<?xml version="1.0" encoding="utf-8"?>
<!-- Generator: Adobe Illustrator 24.2.1, SVG Export Plug-In . SVG Version: 6.00 Build 0)  -->
<svg version="1.1" xmlns="http://www.w3.org/2000/svg" xmlns:xlink="http://www.w3.org/1999/xlink" x="0px" y="0px"
	 viewBox="0 0 400 400" enable-background="new 0 0 400 400" xml:space="preserve">
<g id="Shapes">
	<g>
		<path d="M199.4332,100.57751l97.21484,56.13098l93.03186,53.71057l-93.0321,53.71045l-97.21442,56.13123l-97.2149-56.13135
			L9.1865,210.41907l93.03217-53.71069L199.4332,100.57751 M199.44662,94.82031l-0.83105,0.45569L99.71854,152.3783
			L-0.81375,210.41907l100.53229,58.04053l98.89703,57.10254l0.83105,0.45569l0.8042-0.45569l98.89709-57.10254l100.53223-58.04053
			L299.14792,152.3783L200.25082,95.276L199.44662,94.82031L199.44662,94.82031z"/>
		<path d="M199.4332,119.50708l80.88855,46.70447l76.5719,44.20752l-76.57202,44.20752l-80.88824,46.70459l-80.88873-46.70471
			l-76.5719-44.2074l76.57214-44.20764L199.4332,119.50708 M199.44443,113.74719l-0.69501,0.3811l-82.7047,47.75305
			l-84.0722,48.53772l84.0722,48.5376l82.7047,47.75317l0.69501,0.3811l0.67255-0.3811l82.70477-47.75317l84.07214-48.5376
			l-84.07214-48.53772l-82.70477-47.75305L199.44443,113.74719L199.44443,113.74719z"/>
	</g>
</g>
<g id="no-tagline">
	<rect x="101.76141" y="177.98938" width="195.34361" height="64.85936"/>
</g>
<g id="tagline">
</g>
</svg>
