<?xml version="1.0" encoding="utf-8"?>
<!-- Generator: Adobe Illustrator 24.2.1, SVG Export Plug-In . SVG Version: 6.00 Build 0)  -->
<svg version="1.1" xmlns="http://www.w3.org/2000/svg" xmlns:xlink="http://www.w3.org/1999/xlink" x="0px" y="0px"
	 viewBox="0 0 400 400" enable-background="new 0 0 400 400" xml:space="preserve">
<g id="Shapes">
	<g>
		<path d="M200.08308,88.55096l96.75755,55.86682l92.57111,53.44458l-92.57129,53.44434l-96.75719,55.86719l-96.75774-55.86731
			l-92.57111-53.44421l92.5713-53.44458L200.08308,88.55096 M200.09647,82.79364l-0.82726,0.45361l-98.44363,56.84045
			L0.75421,197.86237l100.07138,57.77441l98.44363,56.8407l0.82726,0.45361l0.80049-0.45361l98.44362-56.8407l100.07138-57.77441
			l-100.07138-57.77466l-98.44362-56.84045L200.09647,82.79364L200.09647,82.79364z"/>
	</g>
	<g>
		<path d="M200.08308,67.20233l96.75755,55.86694l92.57111,53.44458l-92.57129,53.44434l-96.75719,55.86719l-96.75774-55.86731
			l-92.57111-53.44421l92.5713-53.44458L200.08308,67.20233 M200.09647,61.44501l-0.82726,0.45361l-98.44363,56.84058
			L0.75421,176.51385l100.07138,57.77441l98.44363,56.8407l0.82726,0.45361l0.80049-0.45361l98.44362-56.8407l100.07138-57.77441
			L299.34058,118.7392l-98.44362-56.84058L200.09647,61.44501L200.09647,61.44501z"/>
	</g>
	<g>
		<path d="M200.08308,115.23663l96.75755,55.86707l92.57104,53.44434l-92.57123,53.44434l-96.75719,55.86719l-96.75774-55.86731
			l-92.57104-53.44421l92.57124-53.44446L200.08308,115.23663 M200.09647,109.47931l-0.82726,0.45361l-98.44363,56.84058
			L0.75421,224.54803l100.07138,57.77441l98.44363,56.8407l0.82726,0.45361l0.80049-0.45361l98.44362-56.8407l100.07138-57.77441
			L299.34058,166.7735l-98.44362-56.84058L200.09647,109.47931L200.09647,109.47931z"/>
	</g>
</g>
<g id="no-tagline">
	<rect x="110.3803" y="169.77254" width="181.71895" height="61.51678"/>
</g>
<g id="tagline">
</g>
</svg>
