<svg xmlns="http://www.w3.org/2000/svg" viewBox="0 0 153.5752 133">
  <title>shape</title>
  <g id="shape">
    <g>
      <path d="M114.0267,2l37.23911,64.5L114.0267,131H39.54849L2.30939,66.5,39.54849,2H114.0267m1.1547-2H38.3938L0,66.5,38.3938,133h76.7876l38.3938-66.5L115.1814,0Z"/>
      <path d="M110.56256,8l33.775,58.5-33.775,58.5h-67.55L9.23761,66.5,43.01257,8h67.55m.57736-1H42.43524L8.08292,66.5,42.43524,126h68.70468l34.35233-59.5L111.13992,7Z"/>
      <g>
        <polygon points="46.793 118.452 16.798 66.5 46.793 14.548 106.782 14.548 136.777 66.5 106.782 118.452 46.793 118.452"/>
        <path d="M106.20477,15.54791,135.622,66.5l-29.41721,50.95209H47.37042L17.95322,66.5l29.4172-50.95209h58.83435m1.15473-2H46.2157L15.6438,66.5l30.5719,52.95209h61.1438L137.9314,66.5,107.3595,13.54791Z"/>
      </g>
    </g>
  </g>
  <g id="tagline">
    <g id="text-box">
      <rect x="36.2876" y="29.8493" width="81" height="49" fill="#29abe2"/>
    </g>
    <g id="tagline-2" data-name="tagline">
      <rect x="36.2876" y="80.8493" width="81" height="16" fill="#29abe2"/>
    </g>
  </g>
  <g id="no-tagline">
    <rect id="text-box-2" data-name="text-box" x="35.49731" y="28.8493" width="82" height="70" fill="#d9e021"/>
  </g>
</svg>
