<?xml version="1.0" encoding="utf-8"?>
<!-- Generator: Adobe Illustrator 24.2.1, SVG Export Plug-In . SVG Version: 6.00 Build 0)  -->
<svg version="1.1" xmlns="http://www.w3.org/2000/svg" xmlns:xlink="http://www.w3.org/1999/xlink" x="0px" y="0px"
	 viewBox="0 0 400 400" enable-background="new 0 0 400 400" xml:space="preserve">
<g id="Shapes">
	<g>
		<path d="M361.85498,132.95007l-21.40002-73.41016l-73.41003-21.3999l-66.54004-36.5l-0.5-0.28003l-67.04993,36.78003
			l-73.41003,21.3999l-21.3999,73.41016L1.63501,199.49011l-0.27002,0.51001l36.78003,67.03979l21.3999,73.42017l73.41003,21.3999
			l66.53992,36.5l0.51001,0.28003l67.04004-36.78003l73.41003-21.3999l21.40002-73.42017l36.51001-66.53979l0.27002-0.5
			L361.85498,132.95007z M367.20496,147.07019l17.91003,32.65991l-4.81006,16.51001l-13.71997-47.05005L367.20496,147.07019z
			 M43.21484,217.17004l-8.70996,29.88013l-13.70996-47.05005l13.70996-47.05005l8.70996,29.87988l-9.13989,16.66016
			l-0.28003,0.51001L43.21484,217.17004z M36.19495,200.00012l7.85999-14.31006l4.16992,14.31006l-4.17993,14.30981
			L36.19495,200.00012z M309.20496,96.10999l12.0199,6.59009l9.53003,32.67993L309.20496,96.10999z M307.32495,92.67004
			l-7.17004-13.06006l15.67004,4.56006l4.57007,15.67017L307.32495,92.67004z M317.5249,82.4801l-18.80005-5.47998
			l-14.96997-27.29004l42.95996,23.57007l23.58008,42.96997l-27.29004-14.97998L317.5249,82.4801z M303.88501,90.78992
			L264.625,69.25012l32.66992,9.52002L303.88501,90.78992z M203.76489,49.30994l13.16003-3.82983l29.83997,16.36987
			L203.76489,49.30994z M200.00488,48.22009l-14.31995-4.16992l14.31995-7.8501l14.31006,7.8501L200.00488,48.22009z
			 M200.50488,34.07019l-0.5-0.27002l-17.16992,9.40991l-29.89001-8.70996l47.05994-13.71021l47.05005,13.71021l-29.89001,8.70996
			L200.50488,34.07019z M183.07495,45.4801l13.15991,3.82983l-43,12.54004L183.07495,45.4801z M96.11499,90.78992l6.58997-12.01978
			l32.67004-9.52002L96.11499,90.78992z M92.67493,92.67004l-13.06995,7.17017l4.56995-15.67017l15.67004-4.56006L92.67493,92.67004
			z M101.2749,77.00012L82.47485,82.4801l-5.47998,18.79004l-27.28992,14.97998l23.57996-42.96997l42.95996-23.57007
			L101.2749,77.00012z M78.7749,102.70007l12.02002-6.59009L69.25488,135.37L78.7749,102.70007z M45.48486,183.07996
			l16.37012-29.83984l-12.54004,43L45.48486,183.07996z M49.31494,203.76013l12.54004,43l-16.37012-29.84009L49.31494,203.76013z
			 M90.79492,303.89001l-12.02002-6.6001L69.24487,264.62L90.79492,303.89001z M92.67493,307.32019l7.55994,13.77979
			l-15.84985-4.56006l-4.78003-16.38989L92.67493,307.32019z M82.5249,317.68005l0.16003,0.56006l18.96997,5.45996
			l14.58997,26.58984l-42.95996-23.56982l-23.57996-42.96997l27.28992,14.96997L82.5249,317.68005z M96.11499,309.21008
			l41.02002,22.5l-34.05005-9.79004L96.11499,309.21008z M195.85498,350.78992l-12.78003,3.73022l-28.34009-15.56006
			L195.85498,350.78992z M199.63501,351.88l14.48999,4.17017l-14.12012,7.75l-14.31995-7.8501L199.63501,351.88z
			 M199.49487,365.92004l0.51001,0.28003l16.98999-9.32007l30,8.63013l-46.98999,13.69995l-47.05994-13.71997l29.89001-8.70996
			L199.49487,365.92004z M216.74487,354.60999l-13.32996-3.82983l43.34998-12.63013L216.74487,354.60999z M303.88501,309.21008
			l-6.59009,12.01001l-32.66992,9.53003L303.88501,309.21008z M307.32495,307.32019l13.07007-7.17017l-4.57007,15.67017
			l-15.67004,4.56982L307.32495,307.32019z M298.72485,323.00012l18.80005-5.47998l5.47998-18.80005l27.29004-14.96997
			l-23.58008,42.96997l-42.95996,23.56982L298.72485,323.00012z M321.22485,297.28992l-12.0199,6.6001L330.74487,264.62
			L321.22485,297.28992z M338.14502,153.24011l16.36987,29.83984l-3.82996,13.16016L338.14502,153.24011z M350.68494,203.76013
			l3.82996,13.15991l-16.36987,29.84009L350.68494,203.76013z M351.7749,200.00012l4.17004-14.31006l7.85999,14.31006
			l-7.85999,14.30981L351.7749,200.00012z M365.92493,200.50012l0.28003-0.5l-9.42004-17.17017l8.70996-29.87988l13.71008,47.05005
			l-13.71008,47.05005l-8.70996-29.88013L365.92493,200.50012z M365.7749,144.47009l-0.28003,0.94995l-0.91992-3.13013
			L365.7749,144.47009z M364.39502,149.19006l-9.04004,31.03003l-19.93005-36.32007L323.83496,104.13l28.33997,15.55005
			l7.72998,14.08008L364.39502,149.19006z M357.18494,124.43005l-1.56995-2.87012l0.86987,0.49023L357.18494,124.43005z
			 M355.65491,119.19006l-1.93005-1.06006l-23.56995-42.96997l15.07996,8.28003L355.65491,119.19006z M338.76489,61.24011
			l5.63013,19.33984l-16.13013-8.84985l-8.83997-16.13013L338.76489,61.24011z M316.56494,54.76013l8.27002,15.08008
			l-42.96997-23.57007l-1.05005-1.92993L316.56494,54.76013z M277.95496,43.51013l0.47998,0.87988l-2.87-1.56982L277.95496,43.51013
			z M280.31494,47.82019l15.55005,28.33984l-39.77002-11.58984L219.7749,44.65002l31.04004-9.05005l15.41992,4.49023
			L280.31494,47.82019z M255.53491,34.22009l2.17004,1.19995l-3.13-0.91992L255.53491,34.22009z M200.00488,3.76013
			l52.92004,29.02979l-2.10999,0.62012l-68.47998-19.95996L200.00488,3.76013z M179.72485,14.88l16.52002,4.81006
			l-53.94995,15.72998L179.72485,14.88z M122.04492,43.51013l2.39001-0.68994l-2.87,1.56982L122.04492,43.51013z
			 M133.76489,40.09021l15.42004-4.49023l31.03992,9.05005l-36.31995,19.92017l-39.7699,11.58984l15.54993-28.33984
			L133.76489,40.09021z M119.19495,44.34021l-1.05994,1.92993L75.16492,69.84021l8.27002-15.07007L119.19495,44.34021z
			 M61.23486,61.24011l19.34009-5.64014L71.73486,71.7301l-16.12988,8.84985L61.23486,61.24011z M54.76489,83.43005
			l15.08008-8.27002L46.2749,118.13l-1.92993,1.06006L54.76489,83.43005z M43.51489,122.05017l0.87012-0.47998l-1.57007,2.85986
			L43.51489,122.05017z M40.09497,133.76013l7.72998-14.08008L76.16492,104.13l-11.58997,39.77002l-19.92993,36.32007
			l-9.04004-31.03003L40.09497,133.76013z M35.42493,142.28992l-0.92004,3.14014l-0.28003-0.95996L35.42493,142.28992z
			 M32.79492,147.07996l0.62,2.11011l-13.71997,47.05005l-4.80994-16.51001L32.79492,147.07996z M3.76489,200.00012
			l9.69006-17.65991l5.14001,17.65991l-5.14001,17.65991L3.76489,200.00012z M32.79492,252.92004l-17.90991-32.6499
			l4.80994-16.51001l13.71997,47.0498L32.79492,252.92004z M34.22485,255.53015l0.28003-0.95996l0.92004,3.13989L34.22485,255.53015
			z M35.60498,250.80994l9.04004-31.02979l19.92993,36.31006l11.58997,39.76978l-28.33997-15.55005l-7.72998-14.07983
			L35.60498,250.80994z M42.81494,275.57019l1.57007,2.85986l-0.87012-0.47998L42.81494,275.57019z M44.34497,280.80994
			l1.92993,1.05005l23.57007,42.96997l-15.08008-8.27002L44.34497,280.80994z M61.23486,338.76013l-5.62988-19.34009
			l16.12988,8.8501l8.84009,16.12988L61.23486,338.76013z M83.43494,345.2301l-8.27002-15.08008l42.97009,23.57007l1.05994,1.92993
			L83.43494,345.2301z M122.04492,356.4801l-0.47998-0.87012l2.87,1.57007L122.04492,356.4801z M119.68494,352.17004
			l-15.17004-27.6499l41.02002,11.80005l34.68994,19.02979l-31.03992,9.04004l-15.42004-4.48999L119.68494,352.17004z
			 M144.46484,365.77014l-2.16992-1.19019l3.13,0.91016L144.46484,365.77014z M147.07495,367.20007l2.10999-0.60986
			l47.05994,13.70996l-16.52002,4.80981L147.07495,367.20007z M200.00488,396.24011l-17.66992-9.68994l17.66992-5.15015
			l17.66003,5.15015L200.00488,396.24011z M220.2749,385.10999l-16.51001-4.80981l47.02002-13.7002l2.13,0.61011L220.2749,385.10999
			z M255.5249,365.77014l-0.95996-0.28003l3.14001-0.91016L255.5249,365.77014z M277.95496,356.4801l-2.39001,0.69995l2.87-1.57007
			L277.95496,356.4801z M266.23486,359.90002l-15.45996,4.51001l-31.15991-8.96997l36.47998-20.02002l39.77002-11.59009
			l-15.55005,28.34009L266.23486,359.90002z M280.81494,355.65002l1.05005-1.92993l42.96997-23.57007l-8.27002,15.08008
			L280.81494,355.65002z M338.76489,338.76013l-19.33997,5.63989l8.83997-16.12988l16.13013-8.8501L338.76489,338.76013z
			 M345.23486,316.55994l-15.07996,8.27002l23.56995-42.96997l1.93005-1.05005L345.23486,316.55994z M356.48486,277.95007
			l-0.86987,0.47998l1.56995-2.85986L356.48486,277.95007z M359.90491,266.2301l-7.72998,14.07983l-28.33997,15.55005
			l11.58997-39.76978l19.93005-36.31006l9.04004,31.02979L359.90491,266.2301z M364.57495,257.71008l0.91992-3.13989
			l0.28003,0.95996L364.57495,257.71008z M367.20496,252.92004l-0.62-2.11011l13.71997-47.0498l4.81006,16.51001
			L367.20496,252.92004z M386.54492,217.66003l-5.14001-17.65991l5.14001-17.67017l9.68994,17.67017L386.54492,217.66003z"/>
	</g>
</g>
<g id="no-tagline">
	<rect x="77.50948" y="141.32889" fill="#FFFFFF" width="244.98105" height="117.34222"/>
</g>
<g id="tagline">
	<g>
		<rect x="77.50948" y="141.32889" fill="#00F9FF" width="245.01642" height="79.7766"/>
		<rect x="77.50948" y="224.09201" fill="#00F9FF" width="245.01642" height="34.5791"/>
	</g>
</g>
</svg>
