<?xml version="1.0" encoding="utf-8"?>
<!-- Generator: Adobe Illustrator 24.2.1, SVG Export Plug-In . SVG Version: 6.00 Build 0)  -->
<svg version="1.1" xmlns="http://www.w3.org/2000/svg" xmlns:xlink="http://www.w3.org/1999/xlink" x="0px" y="0px"
	 viewBox="0 0 400 400" enable-background="new 0 0 400 400" xml:space="preserve">
<g id="Shapes">
	<g>
		<path d="M200,1.71497C90.66992,1.71497,1.71997,90.66516,1.71997,199.995c0,109.34009,88.94995,198.29004,198.28003,198.29004
			S398.28003,309.33508,398.28003,199.995C398.28003,90.66516,309.33008,1.71497,200,1.71497z M200,389.28503
			c-104.37012,0-189.28003-84.91992-189.28003-189.29004C10.71997,95.62512,95.62988,10.71497,200,10.71497
			c104.36987,0,189.28003,84.91016,189.28003,189.28003C389.28003,304.36511,304.36987,389.28503,200,389.28503z"/>
	</g>
	<g>
		<path d="M200.00012,18.83997c-99.89014,0-181.16016,81.27002-181.16016,181.15991
			c0,99.89014,81.27002,181.16016,181.16016,181.16016c99.88989,0,181.15991-81.27002,181.15991-181.16016
			C381.16003,100.10999,299.89001,18.83997,200.00012,18.83997z M200.00012,378.16003
			c-98.23999,0-178.16016-79.92017-178.16016-178.16016c0-98.22998,79.92017-178.15991,178.16016-178.15991
			s178.15991,79.92993,178.15991,178.15991C378.16003,298.23987,298.24011,378.16003,200.00012,378.16003z"/>
	</g>
	<g>
		<path d="M366.54004,199.99487c0,91.83008-74.70996,166.55005-166.54004,166.55005S33.45996,291.82495,33.45996,199.99487
			c0-91.82983,74.70996-166.53979,166.54004-166.53979S366.54004,108.16504,366.54004,199.99487z"/>
	</g>
</g>
<g id="no-tagline">
	<rect x="57.35907" y="131.67715" fill="#FFFFFF" width="285.28186" height="136.64571"/>
</g>
<g id="tagline">
	<g>
		<rect x="57.35907" y="131.67715" fill="#00F9FF" width="285.36911" height="92.90031"/>
		<rect x="57.35907" y="228.05528" fill="#00F9FF" width="285.36911" height="40.26756"/>
	</g>
</g>
</svg>
