<?xml version="1.0" encoding="utf-8"?>
<!-- Generator: Adobe Illustrator 24.2.1, SVG Export Plug-In . SVG Version: 6.00 Build 0)  -->
<svg version="1.1" xmlns="http://www.w3.org/2000/svg" xmlns:xlink="http://www.w3.org/1999/xlink" x="0px" y="0px"
	 viewBox="0 0 400 400" enable-background="new 0 0 400 400" xml:space="preserve">
<g id="Shapes">
	<path d="M399.35593,201.32921c0.92212-9.97762-6.44376-18.84813-16.42413-19.77577
		c-0.92178-0.08557-1.82941-0.07799-2.72736-0.02621c0.89365-0.13528,1.78366-0.33821,2.66385-0.60876
		c9.5773-2.94856,14.97192-13.14151,12.02338-22.72156c-2.38776-7.75861-9.52499-12.77226-17.25565-12.82541
		c2.38293-1.63855,4.35623-3.83409,5.74854-6.46446c2.27216-4.29031,2.73599-9.20734,1.30588-13.84828
		c-1.42734-4.63818-4.57745-8.44535-8.86777-10.71751c-4.29584-2.27492-9.21286-2.73598-13.85104-1.30587
		c-5.22949,1.60818-9.19748,5.38361-11.25552,10.03421c-0.11234-0.33406-0.16858-0.67778-0.30402-1.00632
		c-1.11038-2.69456-2.90042-4.90045-5.07889-6.53348c1.4527,0.36304,2.94009,0.56734,4.43561,0.56734
		c4.09152,0,8.20792-1.37213,11.59546-4.1854c7.71097-6.40235,8.77664-17.88461,2.3743-25.59558
		c-5.19275-6.24912-13.71524-8.12924-20.86456-5.21105c4.18143-6.49345,3.90018-15.21764-1.28827-21.464
		c-3.10315-3.73539-7.47354-6.04068-12.30774-6.48793c-4.83972-0.44725-9.55798,1.01598-13.28784,4.11639
		c-0.78235,0.64948-1.47772,1.36316-2.12238,2.10789c0.59927-0.78822,1.1528-1.61853,1.62543-2.51097
		c2.26941-4.29308,2.73599-9.21286,1.30588-13.85104c-1.42734-4.64094-4.57745-8.44811-8.86777-10.72027
		c-4.29031-2.26664-9.21011-2.73874-13.85104-1.30587c-2.84192,0.8738-5.36581,2.39985-7.4216,4.4325
		c0.52472-2.84296,0.36804-5.78737-0.50748-8.62895c-1.42734-4.64094-4.57745-8.44535-8.86777-10.71751
		c-4.29031-2.2694-9.21286-2.73874-13.85104-1.30587c-4.64093,1.42734-8.4481,4.57744-10.72026,8.87052
		c-2.54565,4.81211-2.6899,10.25783-0.88467,14.98505c-0.29799-0.14701-0.59064-0.30024-0.90158-0.43
		c-2.69214-1.11813-5.51732-1.41078-8.2112-1.02357c0.79132-0.47624,1.56538-0.98975,2.28925-1.59092
		c3.73538-3.10316,6.04066-7.47355,6.48793-12.30774c0.44725-4.8342-1.01323-9.55244-4.11363-13.28784
		c-3.10316-3.73539-7.47354-6.04068-12.30774-6.48793c-8.04849-0.75647-15.43057,3.94936-18.43401,11.07089
		c-0.60669-2.82846-1.88495-5.48989-3.78647-7.77999c-3.10179-3.73539-7.47217-6.04068-12.30637-6.48793
		c-4.8342-0.44449-9.55521,1.01046-13.28922,4.11362c-3.73538,3.10316-6.03929,7.47354-6.48793,12.30774
		c-0.09265,1.00149-0.08386,1.99469-0.01501,2.97893c-0.13182-0.97181-0.32233-1.945-0.61996-2.91267
		c-1.42873-4.63818-4.57883-8.44535-8.87053-10.71751c-4.29308-2.27492-9.21286-2.73597-13.84966-1.30587
		c-4.64095,1.42734-8.44673,4.57744-10.7189,8.86776c-1.39041,2.62692-2.09528,5.49058-2.1115,8.38116
		c-1.6389-2.38121-3.83272-4.35313-6.46085-5.74458c-4.2917-2.27216-9.21286-2.73598-13.84828-1.30311
		c-4.64095,1.42734-8.44673,4.57744-10.71889,8.86776c-2.27077,4.29032-2.73459,9.2101-1.30724,13.85104
		c1.61404,5.2428,5.42052,9.18525,10.08821,11.23862c-0.35149,0.11733-0.71315,0.17807-1.05894,0.32095
		c-2.66092,1.09467-4.87595,2.8961-6.5485,5.14893c1.38369-5.44848,0.25555-11.4581-3.60166-16.10387
		c-6.40096-7.70821-17.88322-8.77389-25.59695-2.37155c-6.24774,5.19035-8.12872,13.71438-5.21105,20.86353
		c-6.49173-4.18126-15.2142-3.8969-21.46401,1.28931c-3.73539,3.1004-6.0393,7.47078-6.48793,12.30774
		c-0.44725,4.8342,1.0146,9.55244,4.11639,13.28783c0.6381,0.76889,1.34211,1.46048,2.08062,2.10375
		c-0.78114-0.59082-1.60231-1.13746-2.48508-1.60404c-4.29032-2.27216-9.20734-2.73873-13.84966-1.30863
		c-4.64094,1.42735-8.44673,4.57745-10.71751,8.86776c-2.27216,4.29308-2.73598,9.21287-1.30725,13.85104
		c0.87397,2.84158,2.39985,5.36566,4.43233,7.42109c-7.59416-1.388-15.54843,2.1983-19.34629,9.37575
		c-2.27078,4.29032-2.73597,9.2101-1.30725,13.85104s4.57744,8.44536,8.86914,10.71751
		c2.65867,1.40526,5.55615,2.12032,8.48124,2.12032c1.7973,0,3.60287-0.27057,5.36842-0.81445
		c0.40981-0.1263,0.80461-0.2816,1.20096-0.43414c-0.15478,0.31198-0.35632,0.59221-0.49142,0.9173
		c-1.10606,2.6566-1.39888,5.4968-0.98924,8.27141c-2.87419-4.82936-7.922-8.28108-13.93439-8.84015
		c-4.83282-0.43344-9.55382,1.01323-13.28921,4.11639s-6.0393,7.47354-6.48655,12.30774s1.01322,9.55244,4.115,13.28783
		c1.90117,2.28941,4.28272,4.03494,6.95227,5.1517c-2.82846,0.606-5.4911,1.87805-7.77913,3.77956
		c-3.73539,3.10316-6.0393,7.47356-6.48655,12.30775s1.01322,9.55244,4.115,13.28783
		c3.10178,3.7354,7.47354,6.04068,12.30774,6.48793c0.56597,0.05246,1.12918,0.0773,1.68824,0.0773
		c0.41999,0,0.83342-0.03036,1.24737-0.05936c-0.96284,0.13528-1.92257,0.32785-2.86936,0.61981
		c-4.64094,1.42734-8.44673,4.57744-10.71889,8.86775c-2.27078,4.29031-2.73459,9.2101-1.30725,13.85104
		c2.38949,7.76205,9.54036,12.7688,17.26583,12.81989c-2.38776,1.63991-4.36382,3.83754-5.75735,6.46999
		c-2.27078,4.29031-2.73459,9.21008-1.30725,13.85104c2.40191,7.80206,9.61318,12.82953,17.38351,12.82953
		c1.76693,0,3.56146-0.25952,5.33529-0.80615c5.22934-1.60956,9.19699-5.38498,11.25587-10.03284
		c0.11216,0.33337,0.16841,0.67709,0.30369,1.00494c1.09743,2.66074,2.89869,4.87491,5.151,6.5473
		c-5.44727-1.38318-11.45689-0.254-16.10318,3.60147c-7.71098,6.40512-8.77389,17.88736-2.37155,25.59836
		c3.59045,4.32343,8.77665,6.55417,14.00013,6.55417c2.3467,0,4.68443-0.50522,6.90447-1.41974
		c-1.59869,2.44608-2.59052,5.25867-2.86815,8.25278c-0.44725,4.8342,1.0146,9.55246,4.11638,13.28784
		c3.58907,4.32346,8.7739,6.55695,13.99737,6.55695c4.09292,0,8.21069-1.37213,11.59821-4.18539
		c0.7625-0.63293,1.44874-1.33072,2.08839-2.06235c-0.5853,0.77512-1.12797,1.59024-1.59144,2.46542
		c-2.27077,4.29031-2.7346,9.21008-1.30725,13.85104c1.42873,4.64093,4.57882,8.44534,8.86914,10.7175
		c2.65867,1.40527,5.55615,2.1203,8.48124,2.1203c1.79729,0,3.60287-0.27054,5.36842-0.81442
		c2.84364-0.87448,5.36858-2.40192,7.42454-4.43594c-1.39076,7.59433,2.19554,15.5517,9.3723,19.35266
		c2.70422,1.43011,5.60723,2.10651,8.47158,2.10651c6.52245,0,12.8392-3.5173,16.09697-9.6684v-0.00278
		c2.55945-4.83557,2.69508-10.31097,0.86276-15.05405c0.31525,0.15668,0.59824,0.35959,0.92625,0.49625
		c1.93947,0.80615,3.97835,1.20923,6.01721,1.20923c0.74748,0,1.49084-0.11111,2.23351-0.21948
		c-0.80754,0.48315-1.59265,1.01254-2.33014,1.62476c-3.7354,3.10315-6.03929,7.47354-6.48793,12.30774
		c-0.44725,4.8342,1.01321,9.55243,4.11501,13.28784c3.10316,3.73538,7.47354,6.04068,12.30774,6.48792
		c0.57288,0.05246,1.14436,0.08008,1.71309,0.08008c4.22682,0,8.28384-1.46048,11.57613-4.1937
		c2.28717-1.90015,4.03046-4.27859,5.14703-6.94485c0.60739,2.82571,1.88358,5.483,3.78285,7.77036
		c3.10316,3.73538,7.47354,6.04065,12.30911,6.48792c0.56598,0.05246,1.12918,0.0773,1.68825,0.0773
		c9.27222,0,17.2151-7.08978,18.08752-16.50143c0.09111-0.98492,0.08266-1.96155,0.01759-2.9299
		c0.13443,0.96146,0.32648,1.92084,0.6174,2.86639c2.4019,7.80209,9.61455,12.82956,17.3835,12.82956
		c1.76694,0,3.56146-0.25952,5.33667-0.80615c4.64095-1.42737,8.44536-4.57745,10.71751-8.87054
		c1.39128-2.62692,2.09685-5.49057,2.11238-8.38116c1.63785,2.38123,3.83081,4.35315,6.45996,5.7446
		c2.65869,1.40524,5.55756,2.1203,8.48126,2.1203c1.7973,0,3.60287-0.27057,5.36978-0.81445
		c9.58005-2.94855,14.9747-13.14151,12.02338-22.71878c-1.42734-4.63818-4.57742-8.44537-8.86774-10.71753
		c-0.37875-0.20084-0.76785-0.36993-1.15558-0.54181c0.33078-0.11111,0.66827-0.16565,0.99545-0.30023
		c2.6868-1.10846,4.88699-2.89197,6.51724-5.06265c-0.22052,0.89035-0.396,1.7966-0.48209,2.72699
		c-0.44727,4.8342,1.01321,9.55246,4.11636,13.28784c3.1004,3.73538,7.47079,6.04068,12.30774,6.48795
		c0.5715,0.05243,1.14023,0.08005,1.70895,0.08005c4.22684,0,8.28522-1.46048,11.57889-4.19644
		c6.24774-5.18759,8.1282-13.70886,5.21243-20.858c2.42798,1.56952,5.21191,2.54755,8.1748,2.82156
		c0.57147,0.05243,1.1402,0.08005,1.70895,0.08005c4.22681,0,8.28522-1.46048,11.57886-4.19644
		c3.73541-3.1004,6.04068-7.47079,6.48795-12.30774c0.44727-4.8342-1.01321-9.55246-4.11639-13.28784
		c-0.64465-0.77649-1.35278-1.46667-2.09149-2.10788c0.78391,0.59427,1.60818,1.14435,2.49457,1.61368h0.00278
		c2.70285,1.42737,5.60446,2.10654,8.47018,2.10654c6.52109,0,12.83783-3.5173,16.09836-9.67117
		c3.80252-7.19055,2.28458-15.80432-3.15698-21.30112c1.08655,0.20291,2.18362,0.3382,3.28952,0.3382
		c1.79453,0,3.60287-0.27057,5.36703-0.81445c4.64093-1.42734,8.44809-4.57742,10.72025-8.86774
		c2.26941-4.29309,2.73599-9.21286,1.30588-13.85104c-1.42734-4.64096-4.57742-8.44812-8.87051-10.72028
		c-4.82419-2.54686-10.28613-2.68628-15.02283-0.86758c0.15323-0.30853,0.33334-0.59634,0.46777-0.91867
		c1.11624-2.68352,1.41077-5.50093,1.02875-8.1886c0.47314,0.78476,0.98923,1.54883,1.58575,2.26663
		c3.1004,3.7354,7.47354,6.04068,12.30774,6.48793c0.5715,0.05246,1.14297,0.08006,1.7117,0.08006
		c4.22684,0,8.28247-1.46046,11.57614-4.19644c3.73538-3.1004,6.0379-7.47078,6.48792-12.30774
		c0.74905-8.1044-3.97058-15.47855-11.11783-18.45886c2.84332-0.60324,5.5282-1.84906,7.82693-3.76024
		C396.60336,210.53654,398.90866,206.16341,399.35593,201.32921z M349.94824,135.75417
		c0.53043,1.72276,1.32864,3.28401,2.28253,4.71204c-1.8703-0.64258-3.86069-0.93108-5.87451-0.82755
		c1.40906-1.2617,2.55978-2.77463,3.43893-4.48911C349.84973,135.35109,349.88647,135.55333,349.94824,135.75417z
		 M362.65131,153.11629c-0.17703-1.28723-0.49902-2.57239-1.01651-3.82857c-0.3009-0.73024-0.66638-1.41216-1.06049-2.07062
		c2.09286,0.84206,4.32861,1.34106,6.63562,1.35695C365.43576,149.79295,363.89972,151.32866,362.65131,153.11629z
		 M342.27869,143.39613c1.59299-0.65433,3.24396-0.96629,4.87009-0.96629c5.04126,0,9.83405,2.99274,11.8743,7.9346
		c2.6918,6.54039-0.43344,14.04982-6.97107,16.74438c-3.16391,1.3031-6.65082,1.29759-9.81473-0.01657
		c-3.16113-1.31691-5.62103-3.78508-6.92691-6.95175c-1.30585-3.16666-1.30032-6.65358,0.01657-9.81471
		C336.64386,147.16188,339.11203,144.702,342.27869,143.39613z M353.12872,169.72057
		c2.55478-1.05188,4.67615-2.71114,6.2807-4.73758c0.10681,1.31277,0.34286,2.62347,0.74005,3.91209
		c0.37411,1.21545,0.87244,2.36948,1.47238,3.45793c-2.444-1.57988-5.34753-2.50821-8.46829-2.50821
		c-0.17584,0-0.34665,0.02071-0.52112,0.02623C352.79587,169.81029,352.96671,169.78751,353.12872,169.72057z M365.97757,185.4959
		c0,7.07047-5.75354,12.82402-12.82401,12.82402s-12.82126-5.75356-12.82126-12.82402s5.75079-12.82402,12.82126-12.82402
		S365.97757,178.42543,365.97757,185.4959z M363.41949,203.16032c-1.45959-1.27342-3.15475-2.27423-5.01312-2.93959
		c1.77728-0.63637,3.41013-1.57367,4.82556-2.7691c-0.02155,0.1767-0.05936,0.34787-0.0759,0.52594
		C362.99347,199.73483,363.09045,201.47552,363.41949,203.16032z M365.97757,214.94559
		c0,7.07047-5.75354,12.82401-12.82401,12.82401s-12.82126-5.75354-12.82126-12.82401s5.75079-12.82402,12.82126-12.82402
		S365.97757,207.87512,365.97757,214.94559z M368.80466,214.94559c0-0.75786-0.07248-1.49776-0.17722-2.22729
		c1.63199,1.58264,3.52335,2.82983,5.59103,3.69536c-2.10049,0.45209-4.10123,1.28447-5.93234,2.45782
		C368.61279,217.61461,368.80466,216.30391,368.80466,214.94559z M367.09589,178.4213
		c0.61447,0.42862,1.24841,0.83514,1.92136,1.19128c2.65866,1.40526,5.55753,2.12032,8.48126,2.12032
		c0.52283,0,1.04565-0.07246,1.56882-0.11803c-3.93814,0.47832-7.53012,2.24248-10.31357,4.88528
		c0.02139-0.33337,0.0509-0.66536,0.0509-1.00426C368.80466,182.94835,368.18002,180.54851,367.09589,178.4213z
		 M392.19159,159.03065c2.48749,8.08922-2.06787,16.69469-10.15707,19.18771c-8.07263,2.4875-16.69467-2.06786-19.18494-10.15706
		c-1.20648-3.9176-0.81445-8.07265,1.10431-11.69484c1.91879-3.62495,5.13239-6.28639,9.05273-7.49287
		c1.49637-0.46106,3.01205-0.67915,4.5029-0.67915C384.07202,148.19444,390.16238,152.44058,392.19159,159.03065z
		 M362.80539,115.73546c1.49084-0.4583,3.01758-0.68745,4.53326-0.68745c2.47095,0,4.91702,0.60462,7.16159,1.79177
		c3.62494,1.91877,6.28363,5.13237,7.49011,9.05273c1.20648,3.9176,0.81442,8.06989-1.10434,11.69208
		c-1.91876,3.62495-5.13235,6.28639-9.05273,7.49287c-8.08368,2.48474-16.69467-2.06786-19.18494-10.15706
		C350.16083,126.8312,354.71619,118.22572,362.80539,115.73546z M347.80032,123.13998
		c1.30313,3.16666,1.29761,6.65083-0.01932,9.81472c-1.31693,3.16115-3.7851,5.62103-6.95175,6.92691
		c-3.16391,1.3031-6.65082,1.29758-9.81473-0.01657c-3.16113-1.31691-5.62378-3.78508-6.92966-6.95175
		c-2.6918-6.53762,0.43344-14.04982,6.97107-16.74438c1.59302-0.65432,3.24399-0.96629,4.87009-0.96629
		C340.96729,115.20261,345.76007,118.19535,347.80032,123.13998z M349.74118,82.58627c4.40903,0,8.79047,1.88564,11.82184,5.53545
		c5.4057,6.51278,4.50842,16.20878-2.00433,21.61447c-6.51004,5.40569-16.20602,4.50566-21.61447-2.00159
		c-5.4057-6.51278-4.50842-16.20879,2.00159-21.61447C342.806,83.74306,346.28189,82.58627,349.74118,82.58627z M332.01205,94.08371
		c-0.66397-1.14091-1.42648-2.23902-2.40277-3.21497c-0.5582-0.55838-1.17853-1.00977-1.79489-1.466
		c2.28372-0.02485,4.55502-0.51559,6.7157-1.40664C333.30707,89.87346,332.47363,91.9427,332.01205,94.08371z M281.53613,51.49666
		c-1.03412-0.78339-2.16949-1.46393-3.42169-1.98503c-0.70056-0.29127-1.41183-0.50799-2.12619-0.69159
		c2.08823-0.89727,3.9649-2.1638,5.55841-3.73953C281.15686,47.19115,281.15652,49.35702,281.53613,51.49666z M260.26019,59.0337
		c2.04852-4.92254,6.83029-7.89595,11.85773-7.89595c1.63992,0,3.30472,0.3175,4.90875,0.98561
		c6.52658,2.71389,9.62698,10.23713,6.91034,16.76647c-2.71664,6.52658-10.24542,9.62147-16.76648,6.91034
		C260.64395,73.08352,257.54355,65.56028,260.26019,59.0337z M260.52213,53.45408c0.09543-1.88564-0.14304-3.75334-0.70227-5.51957
		c0.15582,0.08835,0.30023,0.18981,0.45966,0.27401c1.56903,0.83032,3.22672,1.388,4.91962,1.73034
		C263.44861,50.79817,261.85959,51.98394,260.52213,53.45408z M286.54874,69.9776c1.06033-2.551,1.38611-5.22417,1.08847-7.79104
		c1.00235,0.85172,2.09442,1.61163,3.28467,2.24179c1.13541,0.60048,2.3205,1.04704,3.52695,1.39352
		c-2.9313,0.6205-5.62827,2.05612-7.79517,4.22475c-0.14185,0.14218-0.23709,0.30991-0.37219,0.45554
		C286.36447,70.3227,286.47195,70.16188,286.54874,69.9776z M288.6525,72.04546c2.42123-2.42124,5.64035-3.75472,9.06653-3.75472
		c3.42343,0,6.64529,1.33348,9.06653,3.75472c4.99985,4.99985,4.99985,13.13599,0,18.13583
		c-5.00537,5.00261-13.13873,4.99709-18.13306,0C283.65265,85.18144,283.65265,77.0453,288.6525,72.04546z M313.61584,82.86511
		c1.16522,1.4025,2.5108,2.56066,3.95868,3.51797c-2.01178,0.12424-3.98389,0.63499-5.83517,1.53088
		c0.85239-1.76347,1.34882-3.63531,1.50153-5.54994C313.36908,82.52967,313.48108,82.70291,313.61584,82.86511z M309.47461,92.86757
		c2.50131-2.49854,5.78391-3.7492,9.06653-3.7492c3.28537,0,6.56799,1.25066,9.06931,3.7492
		c4.99985,4.99985,4.99985,13.13599,0,18.13584c-4.99985,4.99709-13.13046,4.99709-18.13583,0
		C304.47476,106.00356,304.47476,97.86742,309.47461,92.86757z M317.79572,59.44506
		c2.78015-2.31081,6.20633-3.54489,9.77884-3.54489c0.47763,0,0.95801,0.02208,1.44116,0.06902
		c4.08325,0.37823,7.77444,2.32185,10.39447,5.47747c5.4057,6.51001,4.50842,16.20602-2.00159,21.61448
		c-6.51001,5.40569-16.20877,4.50842-21.61725-2.0016C310.38568,74.54676,311.28296,64.85075,317.79572,59.44506z
		 M309.45251,70.8652c-0.23328-0.26711-0.4136-0.5639-0.66812-0.81859c-1.79764-1.79729-3.97867-3.03414-6.33298-3.78163
		c0.77838-0.13321,1.55521-0.29472,2.3215-0.53077c3.28366-1.00977,6.13593-2.8961,8.3363-5.42432
		C310.77271,63.40408,309.53568,67.11048,309.45251,70.8652z M294.91129,33.68936c1.49084-0.4583,3.01758-0.68468,4.53326-0.68468
		c2.47092,0,4.91702,0.60186,7.16156,1.79177c3.62497,1.91601,6.28641,5.13237,7.49286,9.04997
		c1.20374,3.91761,0.81171,8.07264-1.10709,11.69484c-1.91599,3.62496-5.13235,6.28639-9.04996,7.49287
		c-3.92313,1.20372-8.07541,0.81168-11.69485-1.10709c-3.62494-1.91601-6.28638-5.13237-7.49286-9.04997
		c-1.20374-3.91761-0.81168-8.07264,1.10709-11.69484C287.77731,37.55727,290.99365,34.89584,294.91129,33.68936z
		 M255.21342,24.9624c1.916-3.62496,5.13237-6.28639,9.04997-7.49287c1.49084-0.4583,3.01758-0.68468,4.53326-0.68468
		c2.47095,0,4.91702,0.60186,7.16434,1.79177c3.62219,1.91601,6.28363,5.12961,7.49011,9.04997
		c1.2037,3.91761,0.81168,8.07264-1.10709,11.69484v0.00276c-1.91602,3.6222-5.12961,6.28087-9.04721,7.48735
		c-3.93143,1.20372-8.07819,0.80892-11.69485-1.10433C254.12013,41.7482,251.25439,32.44147,255.21342,24.9624z M244.92935,39.82114
		c1.63994,0,3.3047,0.31749,4.90875,0.98561c6.52658,2.71389,9.62698,10.23713,6.91034,16.76647
		c-1.31416,3.16114-3.78233,5.62103-6.94899,6.9269c-3.1722,1.31139-6.65358,1.30586-9.81473-0.01657
		c-6.52934-2.71664-9.62975-10.23988-6.9131-16.76647C235.12016,42.79455,239.9019,39.82114,244.92935,39.82114z
		 M218.10936,20.18066c0.73575-7.94841,7.44179-13.93387,15.27425-13.93387c0.47209,0,0.94972,0.02209,1.42734,0.06626
		c4.08049,0.37823,7.77171,2.32185,10.39174,5.47747c2.62001,3.15286,3.85135,7.13948,3.47311,11.22274
		c-0.37823,4.08049-2.32185,7.77171-5.47748,10.39173c-3.15285,2.62002-7.13396,3.85135-11.22273,3.47588
		C223.54956,36.10231,217.32942,28.60945,218.10936,20.18066z M199.43378,41.2478c-0.63637-1.77728-1.57436-3.40961-2.76979-4.82523
		c0.17599,0.0214,0.34785,0.05798,0.52524,0.07454c0.57288,0.05246,1.14436,0.08006,1.71309,0.08006
		c1.18544,0,2.35016-0.14287,3.49573-0.36857C201.11357,37.6746,200.1031,39.37803,199.43378,41.2478z M147.79555,32.40557
		c1.25928,1.83181,2.82277,3.38891,4.60936,4.62714c-1.32347,0.17876-2.63693,0.4652-3.90414,0.98838
		c-0.71713,0.29541-1.37161,0.68606-2.02663,1.07534C147.32051,36.99199,147.78502,34.72605,147.79555,32.40557z
		 M142.62711,47.56248c1.31554-3.1639,3.78371-5.62379,6.95038-6.92966c1.5778-0.64879,3.23291-0.97457,4.8894-0.97457
		c1.66893,0,3.33922,0.3313,4.9267,0.99113c3.16252,1.31691,5.62241,3.78509,6.9269,6.95175
		c1.30588,3.16666,1.30035,6.65358-0.01656,9.81472c-1.31554,3.1639-3.7851,5.62379-6.95175,6.92966
		c-3.16667,1.30311-6.65221,1.29758-9.81473-0.01656c-3.16252-1.31691-5.62241-3.78509-6.9269-6.95175
		C141.30467,54.21054,141.3102,50.72363,142.62711,47.56248z M138.89241,53.34641c-1.27446-1.43494-2.8062-2.6076-4.54672-3.49796
		c0.20602-0.05521,0.41325-0.0773,0.61876-0.1408c1.73294-0.53353,3.32352-1.31001,4.75793-2.27147
		C139.06047,49.36254,138.78111,51.3531,138.89241,53.34641z M164.07472,40.21594c1.3421-0.09732,2.69112-0.29679,4.03062-0.70953
		c1.22667-0.37754,2.38208-0.87725,3.46277-1.47566c-1.58144,2.44402-2.51028,5.34771-2.51028,8.46882
		c0,0.17462,0.02054,0.34441,0.02623,0.51765c-0.06073-0.16151-0.08264-0.33199-0.14908-0.49281
		C167.88742,43.98308,166.18434,41.86277,164.07472,40.21594z M184.70894,33.67831c7.07184,0,12.82402,5.75079,12.82402,12.82125
		s-5.75218,12.82402-12.82402,12.82402c-7.07185,0-12.82402-5.75355-12.82402-12.82402S177.63708,33.67831,184.70894,33.67831z
		 M218.09831,31.37303c-1.26118-0.32854-2.57689-0.5218-3.9397-0.5218c-0.75818,0-1.49791,0.07247-2.22763,0.17738
		c1.58368-1.63234,2.83054-3.52488,3.6964-5.59343C216.09033,27.57138,216.94481,29.57297,218.09831,31.37303z M214.15862,33.67831
		c7.07047,0,12.82265,5.75079,12.82265,12.82125s-5.75218,12.82402-12.82265,12.82402
		c-7.07184,0-12.82401-5.75355-12.82401-12.82402S207.08678,33.67831,214.15862,33.67831z M189.05998,6.58913
		c2.78015-2.30805,6.20633-3.54213,9.77608-3.54213c0.48038,0,0.96214,0.02485,1.44667,0.06902
		c4.08188,0.37823,7.77309,2.32185,10.39311,5.47747c2.61864,3.15286,3.85272,7.13948,3.47449,11.22274
		c-0.37822,4.08049-2.32323,7.77171-5.47746,10.39173c-3.15424,2.61726-7.12292,3.85135-11.22273,3.47311
		c-4.08188-0.37823-7.7731-2.32185-10.39174-5.47747c-2.62003-3.15286-3.85411-7.13949-3.47588-11.22274
		S185.90575,9.20915,189.05998,6.58913z M180.87813,20.91918c0.4588,3.31575,1.81265,6.44997,4.00475,9.09001
		c0.25951,0.31266,0.5406,0.59979,0.81737,0.89244c-0.32939-0.02139-0.65672-0.05038-0.9913-0.05038
		c-2.55791,0-4.96724,0.62947-7.10153,1.72137C179.9548,29.22511,181.15938,25.12529,180.87813,20.91918z M149.19096,14.95442
		c1.91878-3.62496,5.13237-6.28363,9.05136-7.49011c1.49222-0.4583,3.01758-0.68744,4.53603-0.68744
		c2.46817,0,4.91702,0.60462,7.16019,1.79177c3.62495,1.91877,6.28363,5.13237,7.49011,9.05273
		c2.49026,8.08645-2.06648,16.69193-10.1543,19.18495c-8.09474,2.48474-16.69745-2.06786-19.18634-10.15706
		C146.88153,22.73166,147.27357,18.57662,149.19096,14.95442z M114.94849,36.8505
		c-1.20648-3.91761-0.81445-8.07264,1.10295-11.69484c1.91877-3.62496,5.13236-6.28363,9.05135-7.49011
		c1.49222-0.4583,3.01895-0.68744,4.53741-0.68744c2.46678,0,4.91426,0.60462,7.1588,1.79177
		c3.62358,1.91601,6.28363,5.12961,7.48874,9.04997c2.49025,8.08921-2.06509,16.69469-10.15431,19.18771
		C126.047,49.50887,117.43875,44.9397,114.94849,36.8505z M122.35164,51.85556c1.59438-0.65707,3.24535-0.96629,4.87147-0.96629
		c5.04264,0,9.83405,2.99273,11.87016,7.9346c1.30586,3.16666,1.30034,6.65358-0.01657,9.81472
		c-1.31552,3.1639-3.78508,5.62379-6.95175,6.92966c-3.16666,1.30311-6.65081,1.29758-9.81471-0.01656
		c-3.16252-1.31691-5.62241-3.78509-6.9269-6.95175c-1.30587-3.16666-1.30035-6.65358,0.01656-9.81472
		C116.71542,55.62133,119.18497,53.16143,122.35164,51.85556z M87.33337,38.09287c2.8616-2.37707,6.33746-3.53385,9.79401-3.53385
		c4.4118,0,8.79046,1.88564,11.82184,5.53545c2.61864,3.15562,3.85273,7.13948,3.47449,11.22274s-2.32323,7.77448-5.47747,10.39173
		c-3.15562,2.62002-7.15191,3.87067-11.22136,3.47588c-4.08325-0.37823-7.77309-2.32185-10.39311-5.47747
		C79.92471,53.19732,80.82336,43.50132,87.33337,38.09287z M48.72604,121.54147c-0.29834,0.71643-0.48435,1.45702-0.67243,2.19554
		c-0.88985-2.08788-2.16483-4.01976-3.79924-5.66866c1.0938,0.20222,2.19296,0.33406,3.28866,0.33406
		c1.09794,0,2.18243-0.13528,3.25501-0.33061C49.98429,119.13679,49.2544,120.27148,48.72604,121.54147z M49.17606,134.40965
		c0.89399,1.82973,2.10409,3.43378,3.592,4.76448c-1.90842-0.11319-3.81304,0.13873-5.66607,0.73645
		c0.10318-0.18013,0.21931-0.34993,0.3168-0.53421C48.26637,137.7751,48.84131,136.10204,49.17606,134.40965z M51.85682,141.91356
		c1.6703,0,3.3406,0.3313,4.92945,0.9939c3.16114,1.31416,5.62103,3.78233,6.9269,6.94899
		c1.30587,3.16943,1.29897,6.65358-0.01656,9.81473c-1.31691,3.16389-3.78509,5.62379-6.95175,6.92966
		c-3.16804,1.30312-6.65496,1.30035-9.81472-0.01932h-0.00138c-3.16114-1.31416-5.62241-3.78233-6.9269-6.94899
		c-1.30587-3.16667-1.29897-6.65358,0.01656-9.81473c1.31691-3.16389,3.78509-5.62379,6.95175-6.92966
		C48.54659,142.23935,50.20171,141.91356,51.85682,141.91356z M58.24536,139.39293c-3.16114-1.31415-5.62241-3.78232-6.9269-6.94897
		c-1.30587-3.16667-1.29897-6.65359,0.01656-9.81473c1.31691-3.1639,3.78509-5.62379,6.95175-6.92966
		c1.57643-0.64879,3.23154-0.97457,4.88665-0.97457c1.6703,0,3.3406,0.3313,4.92945,0.9939
		c3.16114,1.31416,5.62103,3.78233,6.9269,6.94899c1.30587,3.16943,1.29897,6.65358-0.01656,9.81473
		c-1.31691,3.16389-3.78509,5.62379-6.95174,6.92966c-3.16943,1.3031-6.65635,1.30035-9.81472-0.01933H58.24536z
		 M69.18925,113.10715c-2.53426-1.05533-5.23434-1.35073-7.88715-1.02565c0.87742-1.01529,1.68255-2.11272,2.33652-3.3475
		c0.60099-1.13538,1.06637-2.31633,1.41285-3.5228c0.60773,2.85538,1.99314,5.57824,4.2068,7.79104
		c0.15736,0.15736,0.34354,0.26366,0.50574,0.41274C69.56541,113.32249,69.39269,113.19205,69.18925,113.10715z M71.25711,92.86757
		c2.49992-2.5013,5.78392-3.7492,9.06792-3.7492s6.56799,1.25066,9.06792,3.7492c4.99847,4.99985,4.99847,13.13599,0,18.13584
		c-4.99985,4.99709-13.13599,4.99709-18.13583,0C66.25726,106.00356,66.25726,97.86742,71.25711,92.86757z M88.63614,71.80526
		c-0.02675-2.29355-0.48591-4.53258-1.34332-6.62459c1.82059,1.17611,3.84376,2.0085,5.98978,2.47093
		c-1.1359,0.6626-2.2285,1.42252-3.20083,2.39501C89.53754,70.5905,89.08839,71.19926,88.63614,71.80526z M85.59682,82.13212
		c0.13131,2.03265,0.64051,3.97627,1.51138,5.77287c-1.76865-0.8524-3.64687-1.34728-5.56633-1.49636
		c0.17307-0.13321,0.36581-0.23053,0.5349-0.37133C83.4527,84.8957,84.63053,83.57879,85.59682,82.13212z M92.0806,72.04546
		c4.99986-4.99709,13.13599-4.99709,18.13584,0c4.99985,4.99985,4.99985,13.13599,0,18.13583
		c-4.99985,4.99709-13.13599,4.99709-18.13584,0C87.08076,85.18144,87.08076,77.0453,92.0806,72.04546z M55.18085,70.63744
		c0.37823-4.08326,2.32323-7.77172,5.47747-10.39174c2.86159-2.37707,6.33746-3.53385,9.79401-3.53385
		c4.41042,0,8.78908,1.88564,11.82046,5.53545c2.62002,3.15562,3.85411,7.13948,3.47588,11.22274
		c-0.37823,4.08325-2.32323,7.77171-5.47747,10.39173c-3.15286,2.62002-7.12706,3.87895-11.22274,3.47588
		c-4.08188-0.37823-7.77309-2.32185-10.39174-5.47747C56.0367,78.70455,54.80261,74.72069,55.18085,70.63744z M68.78755,90.15368
		c0.42586,0.03934,0.84982,0.0497,1.27361,0.05936c-0.26193,0.22914-0.5532,0.40584-0.80288,0.65569
		c-1.83181,1.83112-3.04485,4.0239-3.77698,6.33816c-0.13321-0.77994-0.29869-1.5578-0.53543-2.32668
		c-1.00701-3.27434-2.88557-6.11798-5.40344-8.31422C62.20869,88.58139,65.37708,89.83826,68.78755,90.15368z M34.00811,93.04702
		c1.91739-3.62219,5.13237-6.28363,9.04997-7.4901c3.92313-1.20372,8.07264-0.81445,11.69622,1.10709
		c3.62358,1.91602,6.28363,5.12961,7.49011,9.04997c1.20648,3.91761,0.81444,8.07265-1.10433,11.69484
		c-3.95626,7.48183-13.26575,10.35309-20.74619,6.38578c-3.62358-1.91601-6.28363-5.13236-7.49011-9.04997
		C31.6973,100.82702,32.08933,96.67198,34.00811,93.04702z M35.8689,145.54681c-3.91623,1.2037-8.07264,0.81444-11.69622-1.1071
		c-3.62358-1.916-6.28363-5.12961-7.49011-9.04997c-1.2051-3.9176-0.81306-8.07264,1.10433-11.69484
		c2.75116-5.19862,8.08507-8.1665,13.59291-8.1665c2.41986,0,4.87147,0.57149,7.15467,1.77797
		c7.47906,3.96178,10.34342,13.26851,6.38578,20.74757C43.00148,141.67889,39.78788,144.34033,35.8689,145.54681z
		 M48.92068,264.69006c-0.5268-1.71033-1.29086-3.30469-2.25645-4.75345c1.64424,0.5632,3.33283,0.91315,5.03522,0.91315
		c0.28626,0,0.56924-0.06833,0.85516-0.0842c-1.42769,1.26859-2.59483,2.79257-3.48243,4.52292
		C49.01817,265.08899,48.98194,264.88885,48.92068,264.69006z M36.24817,247.28308c0.1798,1.31209,0.46537,2.6145,0.9832,3.87068
		c0.29368,0.71159,0.6833,1.36038,1.06895,2.01125c-2.12842-0.85722-4.37193-1.29344-6.63218-1.30518
		C33.45249,250.63196,34.997,249.08521,36.24817,247.28308z M56.58886,257.04535c-3.16804,1.3031-6.6522,1.29758-9.81472-0.01657
		c-3.16252-1.31691-5.62379-3.78508-6.92828-6.95174c-1.30587-3.16667-1.30035-6.65358,0.01656-9.81473
		c1.31691-3.16389,3.78509-5.62379,6.95175-6.92966c1.59438-0.65707,3.24397-0.96629,4.87009-0.96629
		c5.04264,0,9.83543,2.99274,11.87291,7.93736c1.30587,3.16667,1.30035,6.65082-0.01656,9.81473
		C62.2237,253.27959,59.75553,255.73949,56.58886,257.04535z M45.73746,230.72092c-2.5246,1.03876-4.63232,2.72769-6.27552,4.81694
		c-0.10284-1.3383-0.33838-2.67455-0.74249-3.98869c-0.37495-1.21683-0.87484-2.37224-1.47618-3.46207
		c2.44419,1.58057,5.34823,2.50958,8.46934,2.50958c0.14753,0,0.29058-0.01794,0.43724-0.02209
		C46.01285,230.62704,45.87377,230.66432,45.73746,230.72092z M32.88997,214.94559c0-7.07047,5.75217-12.82402,12.82264-12.82402
		c7.07185,0,12.82402,5.75356,12.82402,12.82402s-5.75217,12.82401-12.82402,12.82401
		C38.64214,227.76959,32.88997,222.01605,32.88997,214.94559z M30.06289,185.4959c0,0.76476,0.07385,1.51086,0.18032,2.24731
		c-1.61802-1.56953-3.52488-2.85332-5.65347-3.73953c2.13135-0.4514,4.15176-1.2962,6.00617-2.49026
		C30.25994,182.78754,30.06289,184.11755,30.06289,185.4959z M35.43459,197.26942c1.46238,1.27826,3.16183,2.28389,5.02573,2.95131
		c-1.77676,0.63637-3.40893,1.57367-4.82419,2.76842c0.02157-0.17599,0.05746-0.34717,0.07402-0.52524
		C35.87528,200.68318,35.76554,198.9411,35.43459,197.26942z M32.88997,185.4959c0-7.07047,5.75217-12.82402,12.82264-12.82402
		c7.07185,0,12.82402,5.75356,12.82402,12.82402s-5.75217,12.82402-12.82402,12.82402
		C38.64214,198.31992,32.88997,192.56636,32.88997,185.4959z M5.52609,164.84496c0.37685-4.08051,2.32323-7.77171,5.47747-10.39174
		c2.78153-2.31081,6.20909-3.54213,9.78021-3.54213c0.47762,0,0.95938,0.02208,1.44115,0.06625
		c8.42879,0.78131,14.64892,8.27419,13.86761,16.70021c-0.37685,4.08049-2.32323,7.77171-5.47747,10.39174
		c-3.15562,2.62001-7.14363,3.83202-11.22274,3.47588c-4.08187-0.37823-7.77309-2.32185-10.39173-5.47748
		C6.38056,172.91483,5.14648,168.92821,5.52609,164.84496z M16.1939,216.07199c-4.08187-0.37822-7.77309-2.32184-10.39173-5.47746
		c-2.62002-3.15286-3.85411-7.13948-3.47449-11.22275c0.37685-4.08049,2.32323-7.77171,5.47747-10.39172
		c2.78153-2.31081,6.20909-3.54214,9.78021-3.54214c0.47762,0,0.95938,0.02209,1.44115,0.06627
		c8.42879,0.78131,14.64892,8.27419,13.86761,16.70021C32.11418,210.62766,24.63926,216.83398,16.1939,216.07199z
		 M30.11328,213.94962c-0.02105,0.33061-0.05038,0.65984-0.05038,0.99597c0,2.54961,0.62533,4.95084,1.71119,7.08012
		c-0.61532-0.43001-1.24996-0.83722-1.92377-1.19406c-3.04277-1.61232-6.40114-2.29424-9.7495-2.05681
		C23.92144,218.24477,27.40318,216.52063,30.11328,213.94962z M6.67735,241.41081c-1.20648-3.9176-0.81444-8.07263,1.10295-11.69484
		c1.91877-3.62495,5.13237-6.28363,9.05135-7.49011c1.49222-0.45828,3.01758-0.68744,4.53603-0.68744
		c2.46817,0,4.91564,0.60461,7.16019,1.79178c3.62358,1.91876,6.28225,5.13237,7.48873,9.05273
		c1.20648,3.9176,0.81444,8.07263-1.10295,11.69484c-1.91877,3.62495-5.13237,6.28363-9.04997,7.49011
		C17.76205,254.0609,9.16485,249.49727,6.67735,241.41081z M36.06354,284.70877
		c-8.08645,2.49579-16.69469-2.06784-19.18495-10.15704c-1.20648-3.9176-0.81444-8.07266,1.10295-11.69485
		c1.91739-3.62494,5.13237-6.28363,9.04997-7.4901c1.49222-0.4583,3.01758-0.68745,4.53603-0.68745
		c2.46817,0,4.91702,0.60463,7.16019,1.79178c3.62496,1.91876,6.28363,5.13235,7.49011,9.05273
		C48.7081,273.61029,44.15274,282.21576,36.06354,284.70877z M51.0686,277.30426
		c-2.69456-6.53763,0.43207-14.04984,6.96831-16.74438c1.59438-0.65433,3.24535-0.96628,4.87009-0.96628
		c5.04264,0,9.83543,2.99274,11.87292,7.9346c1.30586,3.1694,1.30035,6.65356-0.01657,9.81747
		c-1.31691,3.16113-3.78509,5.62103-6.95174,6.92691c-3.16666,1.30032-6.65082,1.30032-9.81472-0.01657
		C54.83436,282.93909,52.37309,280.47092,51.0686,277.30426z M37.30591,312.32251
		c-5.40707-6.51276-4.5098-16.20877,2.00159-21.61722c2.86159-2.3743,6.33609-3.53384,9.79401-3.53384
		c4.41041,0,8.78908,1.88562,11.82046,5.53543c5.40707,6.51279,4.5098,16.2088-2.00159,21.61725
		C52.41036,319.7298,42.71436,318.8353,37.30591,312.32251z M66.85532,306.35776c0.66398,1.14093,1.42648,2.23904,2.40295,3.215
		c0.55148,0.55145,1.16506,0.99594,1.77348,1.44803c-2.30029,0.02762-4.54621,0.4866-6.64426,1.34592
		C65.58311,310.51004,66.40031,308.46912,66.85532,306.35776z M117.32176,348.88754c1.05499,0.80063,2.17795,1.51984,3.43274,2.0423
		c0.71143,0.29611,1.4465,0.479,2.17984,0.66605c-2.11134,0.89865-4.00664,2.17691-5.61482,3.76785
		C117.71294,353.23376,117.71139,351.04718,117.32176,348.88754z M138.60736,341.40778
		c-1.31693,3.16391-3.7851,5.62381-6.95175,6.92966c-3.16667,1.3031-6.65083,1.30035-9.81473-0.01932
		c-3.16252-1.31415-5.62241-3.78232-6.92828-6.95175c-1.30587-3.16666-1.29897-6.65082,0.01656-9.81195
		c1.31691-3.16391,3.78647-5.62381,6.95312-6.92966c1.57505-0.6488,3.23016-0.97458,4.88528-0.97458
		c1.6703,0,3.3406,0.3313,4.92945,0.9939c3.16113,1.31415,5.62241,3.78232,6.9269,6.94897
		C139.92979,334.7597,139.92288,338.24664,138.60736,341.40778z M138.3877,346.88455
		c-0.11319,1.90912,0.13857,3.81476,0.73473,5.66797c-0.17963-0.10284-0.34735-0.21878-0.53163-0.3168
		c-1.58195-0.83652-3.24948-1.42319-4.95619-1.76553C135.45934,349.57706,137.06026,348.3692,138.3877,346.88455z
		 M112.32019,330.46664c-1.04945,2.52063-1.34538,5.20621-1.02961,7.84555c-1.01909-0.87378-2.13084-1.65305-3.34629-2.2963
		c-1.13435-0.59979-2.31443-1.065-3.51987-1.41147c2.85521-0.60809,5.57772-1.99402,7.79086-4.20682
		c0.1534-0.15323,0.26107-0.33682,0.40723-0.49557C112.53191,330.09738,112.40336,330.26648,112.32019,330.46664z
		 M110.21645,328.39877c-4.99985,4.9971-13.13599,4.9971-18.13584,0c-4.99985-4.99985-4.99985-13.13599,0-18.13583
		c2.49992-2.49854,5.78393-3.74918,9.06792-3.74918s6.56799,1.25064,9.06792,3.74918
		C115.21629,315.26279,115.21629,323.39893,110.21645,328.39877z M85.25034,317.57913
		c-1.14436-1.37836-2.46404-2.55859-3.91364-3.52557c1.99004-0.12839,3.94073-0.63361,5.77322-1.51706
		c-0.83705,1.72549-1.33382,3.58838-1.48964,5.53543C85.49415,317.90906,85.38251,317.73788,85.25034,317.57913z
		 M89.39294,307.57391c-4.99985,4.99707-13.13599,4.99707-18.13583,0c-4.99985-4.99985-4.99985-13.13599,0-18.13583
		c2.49992-2.50131,5.78392-3.74921,9.06792-3.74921s6.56799,1.25064,9.06792,3.74921
		C94.39142,294.43793,94.39142,302.57407,89.39294,307.57391z M81.07321,340.99918
		c-6.51002,5.41397-16.20741,4.51117-21.61447-2.00159c-2.62002-3.15564-3.85411-7.1395-3.47588-11.22275
		c0.37823-4.08325,2.32323-7.77173,5.47747-10.39172c2.78152-2.31082,6.20771-3.54489,9.77883-3.54489
		c0.479,0,0.96076,0.02206,1.44253,0.069c4.08326,0.37823,7.77309,2.32187,10.39311,5.47748s3.85411,7.1395,3.47588,11.22275
		S84.22745,338.37915,81.07321,340.99918z M89.36534,330.86697c0.03951-0.42587,0.0459-0.84897,0.05591-1.27277
		c0.22966,0.2616,0.41188,0.55493,0.66052,0.80341c1.83043,1.83044,4.022,3.04382,6.33488,3.77612
		c-0.77924,0.13321-1.55589,0.29886-2.3234,0.53629c-3.26795,1.00494-6.10745,2.87885-8.30283,5.38913
		C87.79806,337.43634,89.05043,334.27243,89.36534,330.86697z M103.95628,366.75211
		c-3.91899,1.20374-8.07265,0.81445-11.69622-1.10709c-3.62358-1.91599-6.28225-5.12961-7.48873-9.04721
		c-1.20648-3.92035-0.81444-8.07263,1.10295-11.6976c1.91739-3.62219,5.13236-6.28363,9.05135-7.49011
		c1.49084-0.45828,3.0162-0.68466,4.53326-0.68466c2.46956,0,4.9184,0.60184,7.16296,1.79178
		c3.62358,1.91599,6.28225,5.12958,7.48872,9.04721c1.20648,3.92035,0.81445,8.07263-1.10294,11.69482
		C111.08887,362.88422,107.87527,365.54565,103.95628,366.75211z M143.65414,375.48184
		c-3.95903,7.48181-13.26576,10.34204-20.74758,6.38855c-7.47906-3.96179-10.34342-13.26852-6.38578-20.74759
		c1.91877-3.62497,5.13237-6.28638,9.05135-7.49286c1.49084-0.45831,3.0162-0.68469,4.53327-0.68469
		c2.46956,0,4.9184,0.60187,7.16295,1.789C144.74742,358.69604,147.61177,368.00278,143.65414,375.48184z M149.02808,359.63474
		c-3.16115-1.31418-5.62103-3.78235-6.9269-6.94901c-1.30588-3.16943-1.29898-6.65356,0.01656-9.81473
		c1.31691-3.16388,3.78647-5.62378,6.95312-6.92966c1.57506-0.64877,3.23016-0.97458,4.88528-0.97458
		c1.67029,0,3.34059,0.3313,4.92944,0.9939c3.16115,1.31418,5.62241,3.78235,6.9269,6.94901
		c1.30588,3.16666,1.29898,6.65356-0.01656,9.81473c-1.31691,3.16388-3.7851,5.62378-6.95175,6.92966
		C155.67613,360.95993,152.18922,360.95163,149.02808,359.63474z M180.75819,380.26358
		c-0.37823,4.08051-2.32323,7.77173-5.47746,10.39172c-3.15424,2.62003-7.12982,3.8624-11.22275,3.47311
		c-4.08186-0.37823-7.77309-2.32184-10.39311-5.47745c-2.61864-3.15286-3.8541-7.1395-3.47449-11.22275
		c0.37823-4.08325,2.32323-7.77173,5.47746-10.39172c2.78015-2.30807,6.20633-3.54214,9.77608-3.54214
		c0.48038,0,0.96214,0.02484,1.44667,0.06903C175.31662,364.34192,181.53813,371.83478,180.75819,380.26358z M199.43378,359.19437
		c0.63585,1.77658,1.57298,3.40961,2.76738,4.82455c-0.17583-0.02142-0.34717-0.05798-0.52422-0.07455
		c-1.77779-0.16702-3.51935-0.05865-5.19102,0.27332C197.76279,362.75583,198.76721,361.05722,199.43378,359.19437z
		 M251.07184,367.98621c-1.22823-1.78488-2.77618-3.33093-4.57916-4.58298c1.30225-0.17529,2.60258-0.45691,3.87274-0.98007
		c0.7009-0.28922,1.35728-0.63846,1.99193-1.01321C251.5153,363.52127,251.08374,365.74512,251.07184,367.98621z M249.2887,359.8114
		c-6.54591,2.68906-14.04706-0.43896-16.74438-6.97107c-2.6918-6.53763,0.43344-14.04706,6.97107-16.74438
		c6.54591-2.6918,14.04706,0.43622,16.74438,6.97107C258.95157,349.60464,255.82632,357.11411,249.2887,359.8114z
		 M260.01569,347.17444c1.27466,1.41354,2.77997,2.56274,4.43958,3.41998c-0.18411,0.05106-0.3703,0.08557-0.55353,0.14218
		c-1.68738,0.51901-3.26071,1.27274-4.69409,2.2197C259.83194,351.11343,260.11234,349.15463,260.01569,347.17444z
		 M234.72018,360.19516c-1.32831,0.10492-2.65488,0.34097-3.95937,0.74268c-1.21718,0.37479-2.37276,0.87448-3.46275,1.47565
		c1.58142-2.4447,2.51027-5.34909,2.51027-8.47159c0-0.14771-0.01811-0.29126-0.02226-0.43826
		c0.05212,0.13736,0.09007,0.27676,0.1465,0.41342C230.99066,356.48462,232.68045,358.58768,234.72018,360.19516z
		 M214.15862,366.76593c-7.07184,0-12.82401-5.75357-12.82401-12.82404s5.75217-12.82401,12.82401-12.82401
		c7.07047,0,12.82265,5.75354,12.82265,12.82401S221.22908,366.76593,214.15862,366.76593z M180.76889,369.0712
		c1.26135,0.32855,2.57706,0.52182,3.94005,0.52182c0.76698,0,1.51517-0.07385,2.25301-0.18085
		c-1.55815,1.60474-2.83296,3.49521-3.72021,5.60309C182.77895,372.87701,181.92378,370.87332,180.76889,369.0712z
		 M184.70894,366.76593c-7.07185,0-12.82402-5.75357-12.82402-12.82404s5.75217-12.82401,12.82402-12.82401
		c7.07184,0,12.82402,5.75354,12.82402,12.82401S191.78078,366.76593,184.70894,366.76593z M198.58482,397.32822
		c-4.08188-0.37823-7.77309-2.32184-10.39311-5.47748c-2.61864-3.15283-3.85411-7.13947-3.47449-11.22272
		c0.73575-7.94843,7.44179-13.93387,15.27425-13.93387c0.47072,0,0.94696,0.02206,1.42596,0.06625
		c4.08186,0.37823,7.77309,2.32184,10.39172,5.47748c2.62003,3.15283,3.85411,7.13947,3.47588,11.22272
		C214.50372,391.88388,207.01637,398.09296,198.58482,397.32822z M217.98373,379.48642
		c-0.46399-3.30264-1.81506-6.42374-3.99905-9.05414c-0.25865-0.31128-0.53886-0.59772-0.81477-0.88898
		c0.32854,0.02072,0.655,0.04971,0.98871,0.04971c2.54877,0,4.94981-0.62534,7.0784-1.71103
		c-0.42982,0.61496-0.83687,1.24997-1.19371,1.92361C218.44463,372.82593,217.76184,376.15823,217.98373,379.48642z
		 M249.67522,385.48706c-1.91878,3.62494-5.13237,6.28638-9.05273,7.49286c-8.08369,2.49026-16.6947-2.07062-19.18358-10.15704
		c-1.20648-3.91763-0.81444-8.07266,1.10295-11.69485c1.91878-3.62497,5.13237-6.28363,9.05273-7.49011
		c1.49084-0.45828,3.01758-0.68744,4.53603-0.68744c2.46819,0,4.91702,0.60461,7.15881,1.79178
		c3.62495,1.91602,6.28363,5.12961,7.49011,9.04996C251.98602,377.70981,251.59398,381.86487,249.67522,385.48706z
		 M283.92044,363.59375c2.49026,8.08643-2.06509,16.69193-10.15707,19.18494c-8.07538,2.48474-16.69467-2.06784-19.18494-10.15707
		c-1.20648-3.9176-0.81444-8.06985,1.10432-11.69482c1.91878-3.62497,5.13237-6.28363,9.05275-7.49011
		c1.49084-0.45828,3.01758-0.68744,4.53326-0.68744c2.47092,0,4.91702,0.60461,7.16156,1.79178
		C280.0553,356.45978,282.71396,359.67337,283.92044,363.59375z M276.51593,348.58868
		c-6.54041,2.68628-14.04706-0.439-16.74438-6.97107c-2.6918-6.53763,0.43344-14.04709,6.97107-16.74438
		c6.54315-2.68353,14.04706,0.43619,16.74438,6.97107C286.1788,338.38193,283.05356,345.89136,276.51593,348.58868z
		 M311.53418,362.3486c-3.15561,2.6228-7.14502,3.88724-11.22275,3.47589c-4.08325-0.37823-7.7717-2.32187-10.39172-5.47748
		s-3.8541-7.1395-3.47589-11.22275c0.37823-4.08325,2.32187-7.7717,5.47748-10.39172
		c2.78293-2.31082,6.20911-3.54214,9.78159-3.54214c0.47763,0,0.95801,0.02209,1.44116,0.06625
		c4.08325,0.37823,7.77448,2.32462,10.39172,5.47748C318.94421,347.24692,318.04419,356.94293,311.53418,362.3486z
		 M350.14426,278.90002c0.29507-0.71024,0.47797-1.44391,0.66504-2.17554c0.89847,2.10858,2.17517,4.0018,3.76334,5.60861
		c-2.11826-0.39066-4.29257-0.39066-6.44257-0.00482C348.9202,281.28882,349.61954,280.16034,350.14426,278.90002z
		 M349.68253,266.01526c-0.89468-1.82559-2.10358-3.42618-3.59012-4.75345c0.29782,0.01727,0.59686,0.08765,0.89349,0.08765
		c1.62112,0,3.21567-0.26846,4.73895-0.75232c-0.08975,0.15808-0.19208,0.30371-0.27747,0.46521
		C350.61154,262.64362,350.02451,264.30975,349.68253,266.01526z M342.08267,257.53677
		c-6.52658-2.71664-9.62698-10.23988-6.91034-16.76646c1.31415-3.16115,3.78232-5.62103,6.94897-6.92691
		c3.16943-1.30586,6.65085-1.30586,9.81473,0.01657c6.52936,2.71388,9.62976,10.23712,6.91312,16.76646
		C356.13251,257.15302,348.60373,260.24789,342.08267,257.53677z M347.5491,268.00031
		c1.30588,3.16388,1.30035,6.65082-0.01657,9.81195c-2.71664,6.52658-10.24817,9.63251-16.76648,6.91309
		c-6.52933-2.71939-9.62973-10.23987-6.91034-16.76645c1.31418-3.16116,3.78235-5.62103,6.94901-6.92691
		c3.16943-1.30862,6.65082-1.3031,9.81473,0.01657C343.78333,262.3627,346.24323,264.83087,347.5491,268.00031z M329.67831,287.3371
		c1.96017,0.81442,3.99213,1.20096,5.99097,1.20096c0.61136,0,1.21579-0.06284,1.81818-0.13391
		c-0.85913,1.00839-1.62491,2.10721-2.25992,3.30609c-0.60013,1.13538-1.06531,2.31631-1.41162,3.5228
		c-0.60739-2.85675-1.9928-5.57962-4.20663-7.79379c-0.12372-0.12354-0.27109-0.20636-0.39792-0.3251
		C329.36893,287.18594,329.5173,287.27014,329.67831,287.3371z M327.61044,307.57391c-4.99985,4.99707-13.13046,4.99707-18.13583,0
		c-4.99985-4.99985-4.99985-13.13599,0-18.13583c2.50131-2.49857,5.78391-3.74921,9.06653-3.74921
		c3.28537,0,6.56799,1.25064,9.06931,3.74921C332.61029,294.43793,332.61029,302.57407,327.61044,307.57391z M310.23004,328.62656
		c0.0264,2.29837,0.48642,4.54153,1.34573,6.63702c-1.85355-1.19339-3.89087-2.00989-5.99875-2.46405
		c1.14642-0.67157,2.2428-1.43701,3.20737-2.40192C309.33517,329.84683,309.77881,329.23395,310.23004,328.62656z
		 M313.26382,318.3197c-0.12872-1.99814-0.63773-3.95557-1.52707-5.79425c1.7645,0.85446,3.63791,1.35211,5.55341,1.50464
		c-0.16498,0.12839-0.33771,0.2395-0.49939,0.37408C315.41159,315.54855,314.23117,316.8689,313.26382,318.3197z
		 M306.78555,328.39877c-2.42123,2.42126-5.6431,3.75473-9.06653,3.75473c-3.42618,0-6.64529-1.33347-9.06653-3.75473
		c-4.99985-4.99985-4.99985-13.13599,0-18.13583c2.42123-2.42123,5.64035-3.7547,9.06653-3.7547
		c3.42343,0,6.64529,1.33347,9.06653,3.7547C311.7854,315.26279,311.7854,323.39893,306.78555,328.39877z M343.68671,329.80405
		c-0.37823,4.08325-2.32184,7.7717-5.47748,10.39172c-3.15561,2.62277-7.14499,3.88171-11.22272,3.47589
		c-4.08328-0.37823-7.77173-2.32187-10.39175-5.47748c-2.62003-3.15286-3.8541-7.1395-3.47586-11.22275
		s2.32462-7.77448,5.47748-10.39172c2.86295-2.37708,6.33884-3.53384,9.79538-3.53384c4.40903,0,8.78769,1.88562,11.81909,5.53543
		C342.83084,321.73691,344.06494,325.72079,343.68671,329.80405z M328.79224,310.23947
		c0.26678-0.23257,0.56287-0.41272,0.81705-0.66672c1.83145-1.83182,3.04449-4.0246,3.77646-6.33887
		c0.13321,0.77994,0.29886,1.5585,0.53595,2.32739c1.00787,3.2771,2.88919,6.12488,5.41016,8.32385
		C336.24078,311.55569,332.54059,310.323,328.79224,310.23947z M364.86221,307.39444
		c-3.95901,7.4791-13.25748,10.35309-20.75034,6.3858c-3.62219-1.91602-6.28363-5.13239-7.49011-9.04999
		c-1.2037-3.9176-0.81168-8.07263,1.10709-11.6976c1.91602-3.62219,5.12961-6.28363,9.04999-7.49011
		c3.9176-1.20096,8.06989-0.81168,11.6976,1.10709C365.95551,290.6059,368.81848,299.91263,364.86221,307.39444z
		 M367.54297,254.22102c2.41571,0,4.87009,0.5715,7.15051,1.78075c3.62497,1.91599,6.28641,5.13235,7.49289,9.04996
		c1.2037,3.9176,0.81168,8.07266-1.10709,11.69485c-1.91602,3.62494-5.13239,6.28638-9.04999,7.49286
		c-3.92587,1.20096-8.07541,0.81168-11.69482-1.10709c-3.62497-1.91602-6.28641-5.13235-7.49289-9.04999
		c-1.2037-3.9176-0.81168-8.07263,1.10434-11.69482C356.69846,257.1889,362.03238,254.22102,367.54297,254.22102z
		 M353.0238,231.24823c-7.97049-3.31023-17.14468,0.46935-20.4632,8.43431c-2.60553,6.26637-0.80859,13.2699,3.94641,17.59471
		c-6.42062-0.32507-12.65527,3.33163-15.26303,9.59387c-2.57825,6.19528-0.85068,13.11115,3.78491,17.44699
		c-5.77148-2.62967-12.80884-1.62335-17.55313,3.12112c-4.82712,4.8273-5.772,12.02612-2.96133,17.85492
		c-2.09995-1.01874-4.39264-1.61301-6.79541-1.61301c-4.18265,0-8.1113,1.62613-11.06537,4.58295
		c-6.10141,6.10144-6.10141,16.0321,0,22.13351c1.93051,1.93259,4.30014,3.22879,6.86203,3.94247
		c-1.18839,0.60184-2.33273,1.33069-3.39996,2.21692c-1.23306,1.02359-2.29337,2.19623-3.19928,3.46759
		c0.6507-2.99823,0.43707-6.21323-0.81772-9.25702c-3.28815-7.97879-12.45129-11.7832-20.43283-8.5061
		c-6.27432,2.58829-9.95552,8.80978-9.65097,15.228c-4.30705-4.76724-11.30246-6.58661-17.57626-4.00525
		c-6.17163,2.54547-9.83456,8.60687-9.66339,14.91327c-2.24489-5.8978-7.9415-10.10669-14.61665-10.10669
		c-6.78558,0-12.55931,4.3483-14.72484,10.39865c-2.16551-6.05035-7.93925-10.39865-14.72484-10.39865
		c-8.63033,0-15.65111,7.02078-15.65111,15.65109c0,2.76361,0.72679,5.35876,1.98918,7.61435
		c-1.24289-0.4003-2.54237-0.68329-3.89552-0.8089c-1.59714-0.15115-3.17754-0.07248-4.71808,0.18634
		c2.65161-1.70343,4.73534-4.14951,5.9715-7.12152c1.6068-3.85965,1.61508-8.11407,0.02208-11.97922
		c-1.59299-3.86514-4.59677-6.8772-8.45502-8.48401c-3.86514-1.60681-8.11543-1.61508-11.9792-0.01932
		c-2.21521,0.91315-4.10396,2.33014-5.65485,4.06461c0.13838-2.32321-0.18654-4.66302-1.0995-6.8779
		c-1.593-3.86514-4.59677-6.8772-8.45502-8.48401c-3.86377-1.60678-8.11543-1.61508-11.9792-0.01932
		c-2.12497,0.87589-3.9566,2.20935-5.47402,3.84445c0.9342-2.02646,1.46944-4.22821,1.46944-6.52795
		c0-4.1799-1.6275-8.10855-4.58434-11.0654c-2.95546-2.95682-6.88687-4.58295-11.06675-4.58295
		c-2.40209,0-4.69478,0.59357-6.79473,1.61163c2.81-5.82742,1.86476-13.02695-2.96201-17.85355
		c-6.10142-6.10141-16.0321-6.10141-22.13351,0c-1.97347,1.9726-3.23948,4.36209-3.93659,6.8772
		c-0.60358-1.19336-1.33434-2.34323-2.22418-3.41513c-1.04273-1.25549-2.23057-2.31631-3.50434-3.21567
		c1.10019,0.24295,2.2121,0.39136,3.32903,0.39136c2.02092,0,4.04184-0.39758,5.96614-1.19269
		c3.86515-1.59299,6.87859-4.59399,8.48538-8.45364c1.6068-3.85962,1.6137-8.11404,0.02071-11.97919
		c-2.59344-6.28848-8.84291-9.97623-15.27925-9.64838c1.71792-1.53709,3.12335-3.40825,4.0358-5.59966
		c1.6068-3.85962,1.6137-8.11128,0.02071-11.97644c-2.54323-6.17044-8.59909-9.83681-14.90343-9.66771
		c5.89177-2.248,10.09546-7.94218,10.09546-14.61371c0-6.78542-4.34812-12.55899-10.39829-14.72485
		c6.05017-2.16586,10.39829-7.93942,10.39829-14.72484c0-8.63033-7.02077-15.65109-15.6511-15.65109
		c-2.7622,0-5.35513,0.72609-7.61021,1.98709c0.40101-1.25272,0.6821-2.55307,0.80616-3.89482
		c0.15047-1.62337,0.06074-3.21222-0.20344-4.74724c1.70429,2.66557,4.15521,4.76173,7.13724,6.0034
		c1.93948,0.80617,3.97834,1.20924,6.01721,1.20924c2.01954,0,4.03908-0.39479,5.96199-1.18715
		c3.86515-1.593,6.87859-4.59677,8.48401-8.45639c1.6068-3.85963,1.6137-8.11406,0.02071-11.97922
		c-0.91331-2.21625-2.33186-4.10603-4.06755-5.65692c0.30679,0.01794,0.61031,0.09111,0.91745,0.09111
		c2.01954,0,4.03909-0.39479,5.962-1.18715c3.86515-1.593,6.87859-4.59677,8.484-8.45641
		c1.6068-3.85962,1.6137-8.11405,0.02071-11.9792c-0.88484-2.14722-2.23954-3.99215-3.89949-5.51888
		c2.08684,0.96905,4.32414,1.50741,6.58163,1.50741c4.00733,0,8.01604-1.52673,11.06676-4.57744
		c4.83109-4.83144,5.77322-12.03857,2.95408-17.86942c2.14912,1.03945,4.46391,1.62199,6.80267,1.62199
		c4.00733,0,8.01604-1.52397,11.06675-4.57468c2.95684-2.95684,4.58434-6.88549,4.58434-11.06537
		c0-4.18265-1.6275-8.1113-4.58434-11.06814c-1.9871-1.9871-4.39609-3.25915-6.93104-3.95142
		c1.21631-0.61497,2.39363-1.31829,3.46759-2.21073c1.25617-1.0429,2.31702-2.23074,3.21687-3.50555
		c-0.6814,3.09212-0.43172,6.30917,0.80012,9.29776c1.59299,3.86515,4.59539,6.8772,8.45502,8.48401
		c1.9381,0.80616,3.97559,1.212,6.01169,1.212c2.02093,0,4.04185-0.39756,5.96613-1.19267
		c3.86516-1.59023,6.87859-4.59401,8.4854-8.45364c0.92056-2.21142,1.2541-4.54845,1.12434-6.87169
		c1.54468,1.73932,3.42842,3.16252,5.63966,4.08326c1.9381,0.80616,3.97559,1.212,6.01306,1.212
		c2.01955,0,4.04047-0.39756,5.96477-1.19267c3.86514-1.59023,6.87859-4.59401,8.48538-8.45364
		c0.87207-2.09478,1.23029-4.30343,1.15988-6.50519c2.23265,5.92127,7.94151,10.15223,14.63478,10.15223
		c6.78558,0,12.55933-4.3483,14.72484-10.39864c2.16553,6.05034,7.93925,10.39864,14.72484,10.39864
		c8.62895,0,15.64972-7.02077,15.64972-15.6511c0-2.76289-0.72644-5.35668-1.98865-7.61158
		c1.24323,0.40032,2.54289,0.6833,3.89638,0.80892c0.57149,0.05245,1.14021,0.0773,1.70619,0.0773
		c1.0096,0,2.00728-0.09456,2.98927-0.25814c-2.57291,1.65925-4.68874,4.08049-5.95164,7.11326
		c-3.31297,7.96773,0.47211,17.14746,8.43707,20.46597c1.96019,0.81445,3.99216,1.20096,5.99374,1.20096
		c4.40076,0,8.62498-1.89323,11.59685-5.16619c-0.33389,6.42512,3.32593,12.6701,9.59521,15.28184
		c1.96021,0.81444,3.99216,1.20095,5.99374,1.20095c4.35211,0,8.52939-1.85596,11.49692-5.06197
		c-2.67471,5.78738-1.68341,12.86543,3.08023,17.62923c3.05072,3.05071,7.05667,4.57468,11.06537,4.57468
		c2.33859,0,4.65372-0.58322,6.80319-1.62267c-2.81985,5.83086-1.87772,13.03867,2.95355,17.87011
		c3.05072,3.0507,7.05942,4.57744,11.06537,4.57744c4.00873,0,8.01743-1.52673,11.06815-4.57744
		c1.97278-1.97261,3.23843-4.3621,3.93555-6.87652c0.60358,1.19337,1.33417,2.34325,2.22385,3.41444
		c1.0379,1.24928,2.22003,2.30253,3.48639,3.1998c-3.00204-0.6557-6.22375-0.44312-9.27585,0.8172
		c-3.86514,1.59023-6.8772,4.59401-8.48401,8.45364c-1.60678,3.85963-1.61505,8.11406-0.02206,11.9792
		c2.48749,6.03516,8.3349,9.68497,14.4888,9.68497c0.2814,0,0.56458-0.06696,0.84686-0.08214
		c-1.74277,1.54536-3.16891,3.43102-4.09085,5.64519c-1.60678,3.85963-1.61508,8.11406-0.01932,11.9792
		c1.59299,3.86516,4.59399,6.87721,8.45364,8.48401c1.93808,0.80617,3.97281,1.21201,6.01031,1.21201
		c0.16116,0,0.3204-0.0428,0.48141-0.04762c-5.91385,2.23627-10.13879,7.9415-10.13879,14.63028
		c0,6.78542,4.34796,12.55898,10.39676,14.72484c-6.0488,2.16586-10.39676,7.93944-10.39676,14.72485
		c0,8.63033,7.02078,15.65109,15.64835,15.65109c2.76288,0,5.35651-0.72609,7.61209-1.98779
		c-0.40134,1.25342-0.68259,2.55376-0.80667,3.89552c-0.14752,1.59438-0.06781,3.17218,0.19034,4.71065
		C358.4892,234.63576,356.06381,232.51338,353.0238,231.24823z M393.34283,235.59653
		c-0.37823,4.08325-2.32458,7.77448-5.47745,10.3945c-3.15564,2.62001-7.14224,3.86238-11.22275,3.4731
		c-4.08325-0.37822-7.77448-2.32184-10.3945-5.47746c-2.61725-3.15286-3.85135-7.13948-3.47311-11.22273
		c0.73438-7.94841,7.44043-13.93387,15.27286-13.93387c0.47211,0,0.94696,0.02208,1.42737,0.06625
		C387.90128,219.67763,394.12415,227.1705,393.34283,235.59653z M379.83966,214.9373
		c-4.08047-0.37823-7.7717-2.32185-10.39172-5.47748c-2.62003-3.15285-3.8541-7.13948-3.47589-11.22273
		c0.73715-7.94841,7.44318-13.93387,15.27289-13.93387c0.47211,0,0.94696,0.02208,1.42734,0.06625
		c8.42603,0.78131,14.64893,8.27419,13.86761,16.70021c-0.37823,4.08327-2.32187,7.77448-5.47748,10.3945
		C387.90955,214.08145,383.91187,215.31277,379.83966,214.9373z"/>
</g>
<g id="no-tagline">
	<rect x="75.09846" y="141.55045" width="244.98105" height="117.34222"/>
</g>
<g id="tagline">
	<g>
		<rect x="92.76326" y="114.28951" fill="#00F9FF" width="214.47348" height="116.54273"/>
		<rect x="92.76326" y="235.19514" fill="#00F9FF" width="214.47348" height="50.51535"/>
	</g>
</g>
</svg>
