<svg xmlns="http://www.w3.org/2000/svg" viewBox="0 0 164 163.99994">
  <title>shape</title>
  <g id="shape">
    <g>
      <path d="M82,2A80,80,0,1,1,2,82,80.09059,80.09059,0,0,1,82,2m0-2a82,82,0,1,0,82,82A82,82,0,0,0,82,0Z"/>
      <path d="M82,5.8125A76.18747,76.18747,0,1,1,5.8125,82,76.27376,76.27376,0,0,1,82,5.8125m0-1A77.18747,77.18747,0,1,0,159.1875,82,77.18747,77.18747,0,0,0,82,4.8125Z"/>
      <g>
        <circle cx="81.99991" cy="82.00031" r="71.04702" transform="translate(-25.13831 37.62195) rotate(-22.50002)"/>
        <path d="M82,11.45313A70.54684,70.54684,0,1,1,11.45313,82,70.62678,70.62678,0,0,1,82,11.45313m0-1A71.54684,71.54684,0,1,0,153.54688,82,71.54684,71.54684,0,0,0,82,10.45313Z"/>
      </g>
    </g>
  </g>
  <g id="tagline">
    <g id="text-box">
      <rect x="26.52219" y="30.85675" width="110" height="66.45831" fill="#29abe2"/>
    </g>
    <g id="tagline-2" data-name="tagline">
      <rect x="26.52219" y="100.02764" width="110" height="31.82911" fill="#29abe2"/>
    </g>
  </g>
  <g id="no-tagline">
    <rect id="text-box-2" data-name="text-box" x="27.5" y="30.49998" width="109" height="103" fill="#d9e021"/>
  </g>
</svg>
