<svg xmlns="http://www.w3.org/2000/svg" viewBox="0 0 197.35332 197.35333">
  <title>shape</title>
  <g id="shape">
    <g>
      <g>
        <path d="M98.67646,160.53543A61.85889,61.85889,0,1,1,160.53534,98.677,61.92871,61.92871,0,0,1,98.67646,160.53543Z"/>
        <path d="M98.67665,37.3179a61.35877,61.35877,0,1,1-61.3588,61.35876A61.42825,61.42825,0,0,1,98.67665,37.3179m0-1a62.35877,62.35877,0,1,0,62.3588,62.35876A62.35877,62.35877,0,0,0,98.67665,36.3179Z"/>
      </g>
      <g>
        <g>
          <path d="M192.26984,106.87466a2.82442,2.82442,0,0,0,2.23437,3.15552,2.97572,2.97572,0,0,0,.52137-5.87647A2.79955,2.79955,0,0,0,192.26984,106.87466Z" fill="#231f20"/>
          <path d="M173.759,142.032a2.69827,2.69827,0,0,1,3.549-1.10144,2.58979,2.58979,0,0,1,.85578,3.65Z" fill="#5481c1"/>
          <path d="M161.19626,134.76553a2.48441,2.48441,0,0,1,3.32883-.70984,2.36535,2.36535,0,0,1,1.07518,3.25806Z" fill="#5481c1"/>
          <path d="M192.26984,106.87466a2.82442,2.82442,0,0,0,2.23437,3.15552,2.97572,2.97572,0,0,0,.52137-5.87647A2.79955,2.79955,0,0,0,192.26984,106.87466Z" fill="#5481c1"/>
          <path d="M189.44649,123.00406a2.78993,2.78993,0,0,0,1.65019,3.49951,2.97958,2.97958,0,0,0,1.51746-5.71106A2.80513,2.80513,0,0,0,189.44649,123.00406Z" fill="#7f904c"/>
          <path d="M183.8317,138.41336a2.8178,2.8178,0,0,0,1.0083,3.73144,2.97968,2.97968,0,0,0,2.51213-5.34717A2.79765,2.79765,0,0,0,183.8317,138.41336Z" fill="#5481c1"/>
          <path d="M169.76125,111.24014a2.4903,2.4903,0,0,0,2.09631,2.688,2.368,2.368,0,0,0,2.91535-1.80908,2.20952,2.20952,0,0,0-.44138-1.7577,2.66765,2.66765,0,0,0-1.69435-.93652,2.709,2.709,0,0,0-1.86214.39209A2.13018,2.13018,0,0,0,169.76125,111.24014Z" fill="#7f904c"/>
          <path d="M166.53583,123.38321a2.55885,2.55885,0,1,0,3.1207-1.294A2.42461,2.42461,0,0,0,166.53583,123.38321Z" fill="#7f904c"/>
          <path d="M184.056,113.74722a2.70162,2.70162,0,0,0,2.014,3.12622,2.59107,2.59107,0,0,0,2.99836-2.24707,2.873,2.873,0,0,0-.39021-2.0686,2.42424,2.42424,0,0,0-3.55685-.54456A2.77985,2.77985,0,0,0,184.056,113.74722Z" fill="#7f904c"/>
          <path d="M180.1726,128.34951a2.55089,2.55089,0,1,0,3.26873-1.71618A2.64137,2.64137,0,0,0,180.1726,128.34951Z" fill="#7f904c"/>
          <path d="M177.811,105.62222a2.58009,2.58009,0,0,0,2.27852,2.71521,2.50918,2.50918,0,1,0,.4451-4.9967A2.56014,2.56014,0,0,0,177.811,105.62222Z" fill="#7f904c"/>
          <path d="M175.42621,119.25467a2.54553,2.54553,0,0,0,1.7717,3.069,2.50864,2.50864,0,1,0,1.28639-4.84693A2.55864,2.55864,0,0,0,175.42621,119.25467Z" fill="#5481c1"/>
          <path d="M170.68366,132.269a2.57215,2.57215,0,0,0,1.20256,3.33008,2.50891,2.50891,0,1,0,2.13443-4.53882A2.55436,2.55436,0,0,0,170.68366,132.269Z" fill="#7f904c"/>
          <path d="M163.3355,104.36819a2.40432,2.40432,0,0,0,2.325,2.27478,2.11551,2.11551,0,1,0,.36877-4.116A2.38753,2.38753,0,0,0,163.3355,104.36819Z" fill="#5481c1"/>
          <path d="M161.38971,115.501a2.36916,2.36916,0,0,0,1.8955,2.63855,2.1122,2.1122,0,1,0,1.05508-3.98205A2.38133,2.38133,0,0,0,161.38971,115.501Z" fill="#7f904c"/>
          <path d="M157.52037,126.11734a2.39591,2.39591,0,0,0,1.39908,2.92932,2.11243,2.11243,0,1,0,1.75637-3.72974A2.37935,2.37935,0,0,0,157.52037,126.11734Z" fill="#5481c1"/>
          <path d="M185.38753,98.67739a2.55073,2.55073,0,1,0,5.08891.00013Z" fill="#5481c1"/>
          <path d="M170.87461,98.67666a2.55867,2.55867,0,0,0,5.08815,0Z" fill="#5481c1"/>
        </g>
        <g>
          <path d="M175.62157,152.59073a2.81519,2.81519,0,0,0,.36676,3.86425,2.97845,2.97845,0,0,0,3.37613-4.84167A2.8272,2.8272,0,0,0,175.62157,152.59073Z" fill="#231f20"/>
          <path d="M142.02686,173.762a2.78244,2.78244,0,0,1,2.01324-.3,2.4252,2.4252,0,0,1,1.86893,3.07483,2.87055,2.87055,0,0,1-1.33389,1.63013Z" fill="#5481c1"/>
          <path d="M134.75779,161.20071a2.12564,2.12564,0,0,1,1.74025-.13855,2.71025,2.71025,0,0,1,1.49534,1.17578,2.67281,2.67281,0,0,1,.37319,1.89893,2.20388,2.20388,0,0,1-1.061,1.46814Z" fill="#5481c1"/>
          <path d="M175.62157,152.59073a2.81519,2.81519,0,0,0,.36676,3.86425,2.97845,2.97845,0,0,0,3.37613-4.84167A2.8272,2.8272,0,0,0,175.62157,152.59073Z" fill="#5481c1"/>
          <path d="M165.11344,165.131a2.57205,2.57205,0,1,0,3.83737-.33325A2.76087,2.76087,0,0,0,165.11344,165.131Z" fill="#7f904c"/>
          <path d="M152.55765,175.64505a2.8276,2.8276,0,0,0-.98,3.74243,2.97791,2.97791,0,0,0,4.8429-3.3728A2.81236,2.81236,0,0,0,152.55765,175.64505Z" fill="#5481c1"/>
          <path d="M153.9672,145.08487a2.4496,2.4496,0,0,0,.44946,3.36572,2.30394,2.30394,0,1,0,2.93517-3.50781A2.4594,2.4594,0,0,0,153.9672,145.08487Z" fill="#7f904c"/>
          <path d="M145.066,153.98355a2.45792,2.45792,0,0,0-.144,3.38464,2.30407,2.30407,0,1,0,3.50868-2.93433A2.44766,2.44766,0,0,0,145.066,153.98355Z" fill="#7f904c"/>
          <path d="M165.078,154.42166a2.66129,2.66129,0,0,0,.16136,3.70056,2.73233,2.73233,0,0,0,3.50348-4.18408A2.67247,2.67247,0,0,0,165.078,154.42166Z" fill="#7f904c"/>
          <path d="M154.39905,165.09756a2.6713,2.6713,0,0,0-.48576,3.6648,2.7324,2.7324,0,0,0,4.18521-3.50245A2.6589,2.6589,0,0,0,154.39905,165.09756Z" fill="#7f904c"/>
          <path d="M163.74218,144.25369a2.5753,2.5753,0,0,0,.62609,3.50525,2.50912,2.50912,0,1,0,2.86727-4.11658A2.58382,2.58382,0,0,0,163.74218,144.25369Z" fill="#7f904c"/>
          <path d="M154.85259,154.86746a2.54434,2.54434,0,1,0,3.52948-.01709A2.5181,2.5181,0,0,0,154.85259,154.86746Z" fill="#5481c1"/>
          <path d="M144.22577,163.762a2.584,2.584,0,0,0-.61378,3.493,2.50876,2.50876,0,1,0,4.11767-2.86438A2.573,2.573,0,0,0,144.22577,163.762Z" fill="#7f904c"/>
          <path d="M151.849,135.907a2.40342,2.40342,0,0,0,.88754,3.14709,2.11333,2.11333,0,1,0,2.35788-3.39074A2.40955,2.40955,0,0,0,151.849,135.907Z" fill="#5481c1"/>
          <path d="M144.57985,144.59207a2.59913,2.59913,0,1,0,3.22287.301A2.34014,2.34014,0,0,0,144.57985,144.59207Z" fill="#7f904c"/>
          <path d="M135.88424,151.86526a2.40924,2.40924,0,0,0-.24589,3.24512,2.11311,2.11311,0,1,0,3.39173-2.35535A2.40143,2.40143,0,0,0,135.88424,151.86526Z" fill="#5481c1"/>
          <path d="M173.7601,142.03018a2.78737,2.78737,0,0,0-.30082,2.014,2.423,2.423,0,0,0,3.07477,1.86914,2.873,2.873,0,0,0,1.63084-1.33472Z" fill="#5481c1"/>
          <path d="M161.19846,134.76162a2.12683,2.12683,0,0,0-.13855,1.74,2.70948,2.70948,0,0,0,1.17555,1.49561,2.67209,2.67209,0,0,0,1.899.37305,2.20262,2.20262,0,0,0,1.46815-1.06055Z" fill="#5481c1"/>
        </g>
        <g>
          <path d="M138.37645,183.84854a2.79994,2.79994,0,0,0-1.61837,3.52136,2.98028,2.98028,0,0,0,5.34883-2.5105A2.81752,2.81752,0,0,0,138.37645,183.84854Z" fill="#231f20"/>
          <path d="M98.67369,185.38748a2.55057,2.55057,0,1,1-.00018,5.08887Z" fill="#5481c1"/>
          <path d="M98.67221,170.87454a2.55866,2.55866,0,0,1-.0003,5.08813Z" fill="#5481c1"/>
          <path d="M138.37645,183.84854a2.79994,2.79994,0,0,0-1.61837,3.52136,2.98028,2.98028,0,0,0,5.34883-2.5105A2.81752,2.81752,0,0,0,138.37645,183.84854Z" fill="#5481c1"/>
          <path d="M122.98,189.45327a2.80442,2.80442,0,0,0-2.21078,3.16626,2.97947,2.97947,0,0,0,5.71132-1.51623A2.78852,2.78852,0,0,0,122.98,189.45327Z" fill="#7f904c"/>
          <path d="M106.83431,192.273a2.80216,2.80216,0,0,0-2.72295,2.75573,2.97534,2.97534,0,0,0,5.87575-.519A2.82418,2.82418,0,0,0,106.83431,192.273Z" fill="#5481c1"/>
          <path d="M123.35964,166.54373a2.55886,2.55886,0,1,0,2.99692,1.558A2.4238,2.4238,0,0,0,123.35964,166.54373Z" fill="#7f904c"/>
          <path d="M111.21561,169.76565a2.13365,2.13365,0,0,0-1.424,1.01367,2.703,2.703,0,0,0-.39305,1.86121,2.67237,2.67237,0,0,0,.93626,1.69556,2.2083,2.2083,0,0,0,1.758.44152,2.368,2.368,0,0,0,1.80968-2.91406A2.48823,2.48823,0,0,0,111.21561,169.76565Z" fill="#7f904c"/>
          <path d="M128.32123,180.18228a2.55083,2.55083,0,1,0,3.41516,1.4A2.64039,2.64039,0,0,0,128.32123,180.18228Z" fill="#7f904c"/>
          <path d="M113.71781,184.06131a2.78349,2.78349,0,0,0-1.735,1.06506,2.42409,2.42409,0,0,0,.54326,3.55713,2.87177,2.87177,0,0,0,2.06908.3905,2.59109,2.59109,0,0,0,2.24765-2.99695A2.6991,2.6991,0,0,0,113.71781,184.06131Z" fill="#7f904c"/>
          <path d="M132.23769,170.69778a2.55657,2.55657,0,0,0-1.21112,3.338,2.50925,2.50925,0,1,0,4.5403-2.133A2.57234,2.57234,0,0,0,132.23769,170.69778Z" fill="#7f904c"/>
          <path d="M119.23442,175.432a2.5582,2.5582,0,0,0-1.77751,3.05689,2.50868,2.50868,0,1,0,4.84725-1.2854A2.54386,2.54386,0,0,0,119.23442,175.432Z" fill="#5481c1"/>
          <path d="M105.588,177.81363a2.56257,2.56257,0,0,0-2.28324,2.72375,2.50879,2.50879,0,1,0,4.99613-.44311A2.58042,2.58042,0,0,0,105.588,177.81363Z" fill="#7f904c"/>
          <path d="M126.09183,157.53177a2.38152,2.38152,0,0,0-.8025,3.15661,2.11253,2.11253,0,1,0,3.73092-1.75537A2.39639,2.39639,0,0,0,126.09183,157.53177Z" fill="#5481c1"/>
          <path d="M115.48449,161.39444a2.381,2.381,0,0,0-1.34325,2.94958,2.11231,2.11231,0,1,0,3.9823-1.05432A2.36748,2.36748,0,0,0,115.48449,161.39444Z" fill="#7f904c"/>
          <path d="M104.34023,163.33755a2.38994,2.38994,0,0,0-1.8429,2.69409,2.11515,2.11515,0,1,0,4.11562-.36731A2.40513,2.40513,0,0,0,104.34023,163.33755Z" fill="#5481c1"/>
          <path d="M142.02877,173.76089a2.7006,2.7006,0,0,0-1.1037,3.54993,2.59187,2.59187,0,0,0,3.65208.855Z" fill="#5481c1"/>
          <path d="M134.76162,161.19851a2.48505,2.48505,0,0,0-.71,3.32874,2.36577,2.36577,0,0,0,3.25807,1.07544Z" fill="#5481c1"/>
        </g>
        <g>
          <path d="M90.47864,192.2698a2.82445,2.82445,0,0,0-3.15544,2.23438,2.97569,2.97569,0,0,0,5.87643.52136A2.79952,2.79952,0,0,0,90.47864,192.2698Z" fill="#231f20"/>
          <path d="M55.32129,173.75906a2.69835,2.69835,0,0,1,1.10152,3.54895,2.58986,2.58986,0,0,1-3.65009.85571Z" fill="#5481c1"/>
          <path d="M62.58786,161.19632a2.48434,2.48434,0,0,1,.70975,3.32873,2.36525,2.36525,0,0,1-3.25808,1.0752Z" fill="#5481c1"/>
          <path d="M90.47864,192.2698a2.82445,2.82445,0,0,0-3.15544,2.23438,2.97569,2.97569,0,0,0,5.87643.52136A2.79952,2.79952,0,0,0,90.47864,192.2698Z" fill="#5481c1"/>
          <path d="M74.34926,189.44656a2.7898,2.7898,0,0,0-3.49948,1.65015,2.97955,2.97955,0,0,0,5.711,1.51745A2.805,2.805,0,0,0,74.34926,189.44656Z" fill="#7f904c"/>
          <path d="M58.94,183.83169a2.81782,2.81782,0,0,0-3.73139,1.0083,2.97967,2.97967,0,0,0,5.3471,2.51221A2.7977,2.7977,0,0,0,58.94,183.83169Z" fill="#5481c1"/>
          <path d="M86.11324,169.76126a2.49028,2.49028,0,0,0-2.68805,2.09631,2.36807,2.36807,0,0,0,1.809,2.91541,2.20961,2.20961,0,0,0,1.75769-.44141,2.66758,2.66758,0,0,0,.93659-1.69434,2.709,2.709,0,0,0-.39212-1.86218A2.1302,2.1302,0,0,0,86.11324,169.76126Z" fill="#7f904c"/>
          <path d="M73.97011,166.53579a2.55887,2.55887,0,1,0,1.29395,3.12073A2.42476,2.42476,0,0,0,73.97011,166.53579Z" fill="#7f904c"/>
          <path d="M83.6061,184.05606a2.70153,2.70153,0,0,0-3.12625,2.014,2.59109,2.59109,0,0,0,2.24713,2.99829,2.87315,2.87315,0,0,0,2.06863-.39014,2.42442,2.42442,0,0,0,.54453-3.55689A2.77966,2.77966,0,0,0,83.6061,184.05606Z" fill="#7f904c"/>
          <path d="M69.00379,180.17263A2.55086,2.55086,0,1,0,70.72,183.44131,2.64126,2.64126,0,0,0,69.00379,180.17263Z" fill="#7f904c"/>
          <path d="M91.73116,177.81106a2.58009,2.58009,0,0,0-2.71526,2.27857,2.50916,2.50916,0,1,0,4.99668.44506A2.56015,2.56015,0,0,0,91.73116,177.81106Z" fill="#7f904c"/>
          <path d="M78.09862,175.42617a2.54564,2.54564,0,0,0-3.069,1.77173,2.50866,2.50866,0,1,0,4.847,1.28638A2.55875,2.55875,0,0,0,78.09862,175.42617Z" fill="#5481c1"/>
          <path d="M65.08442,170.68362a2.57215,2.57215,0,0,0-3.33009,1.20264,2.50892,2.50892,0,1,0,4.53886,2.1344A2.5545,2.5545,0,0,0,65.08442,170.68362Z" fill="#7f904c"/>
          <path d="M92.98513,163.33548a2.40443,2.40443,0,0,0-2.27483,2.325,2.11554,2.11554,0,1,0,4.116.36877A2.38757,2.38757,0,0,0,92.98513,163.33548Z" fill="#5481c1"/>
          <path d="M81.85233,161.38968a2.36931,2.36931,0,0,0-2.63858,1.8955,2.11224,2.11224,0,1,0,3.9821,1.05518A2.38152,2.38152,0,0,0,81.85233,161.38968Z" fill="#7f904c"/>
          <path d="M71.236,157.52041a2.39592,2.39592,0,0,0-2.92932,1.399,2.11245,2.11245,0,1,0,3.7298,1.75635A2.3794,2.3794,0,0,0,71.236,157.52041Z" fill="#5481c1"/>
          <path d="M98.67588,185.3876a2.55071,2.55071,0,1,0-.00005,5.08887Z" fill="#5481c1"/>
          <path d="M98.67665,170.87466a2.55867,2.55867,0,0,0,0,5.08814Z" fill="#5481c1"/>
        </g>
        <g>
          <path d="M44.76263,175.62161a2.81515,2.81515,0,0,0-3.86429.3667A2.97846,2.97846,0,0,0,45.74,179.36453,2.82717,2.82717,0,0,0,44.76263,175.62161Z" fill="#231f20"/>
          <path d="M23.59133,142.02688a2.78213,2.78213,0,0,1,.30007,2.01319,2.4253,2.4253,0,0,1-3.07488,1.869,2.87052,2.87052,0,0,1-1.63008-1.334Z" fill="#5481c1"/>
          <path d="M36.15264,134.75784a2.12541,2.12541,0,0,1,.13847,1.74023,2.70992,2.70992,0,0,1-1.17574,1.49536,2.67322,2.67322,0,0,1-1.89894.37317,2.204,2.204,0,0,1-1.46811-1.061Z" fill="#5481c1"/>
          <path d="M44.76263,175.62161a2.81515,2.81515,0,0,0-3.86429.3667A2.97846,2.97846,0,0,0,45.74,179.36453,2.82717,2.82717,0,0,0,44.76263,175.62161Z" fill="#5481c1"/>
          <path d="M32.22228,165.11343a2.76089,2.76089,0,0,0-3.8362-.333,2.9934,2.9934,0,1,0,3.8362.333Z" fill="#7f904c"/>
          <path d="M21.7083,152.55764a2.82772,2.82772,0,0,0-3.74243-.98,2.72142,2.72142,0,0,0-.42368,3.90113,2.73142,2.73142,0,0,0,3.79652.94177A2.81249,2.81249,0,0,0,21.7083,152.55764Z" fill="#5481c1"/>
          <path d="M52.26851,153.96719a2.44986,2.44986,0,0,0-3.36581.44946,2.30394,2.30394,0,1,0,3.5078,2.93518A2.45936,2.45936,0,0,0,52.26851,153.96719Z" fill="#7f904c"/>
          <path d="M43.36978,145.06607a2.45794,2.45794,0,0,0-3.38462-.144,2.30406,2.30406,0,1,0,2.93429,3.50867A2.44749,2.44749,0,0,0,43.36978,145.06607Z" fill="#7f904c"/>
          <path d="M42.93167,165.07791a2.66133,2.66133,0,0,0-3.70055.16137,2.73236,2.73236,0,0,0,4.18411,3.50354A2.67265,2.67265,0,0,0,42.93167,165.07791Z" fill="#7f904c"/>
          <path d="M32.25582,154.39907a2.67123,2.67123,0,0,0-3.6648-.48571,2.73237,2.73237,0,0,0,3.50239,4.18518A2.65905,2.65905,0,0,0,32.25582,154.39907Z" fill="#7f904c"/>
          <path d="M53.09963,163.74221a2.57526,2.57526,0,0,0-3.50522.6261A2.50908,2.50908,0,1,0,53.711,167.2355,2.58371,2.58371,0,0,0,53.09963,163.74221Z" fill="#7f904c"/>
          <path d="M42.48584,154.85257a2.54433,2.54433,0,1,0,.01706,3.52954A2.51818,2.51818,0,0,0,42.48584,154.85257Z" fill="#5481c1"/>
          <path d="M33.59129,144.22573a2.58394,2.58394,0,0,0-3.493-.61376,2.50876,2.50876,0,1,0,2.86437,4.11767A2.57291,2.57291,0,0,0,33.59129,144.22573Z" fill="#7f904c"/>
          <path d="M61.44627,151.849a2.40342,2.40342,0,0,0-3.14708.88757,2.11331,2.11331,0,1,0,3.39072,2.35791A2.40952,2.40952,0,0,0,61.44627,151.849Z" fill="#5481c1"/>
          <path d="M52.76127,144.57986a2.59947,2.59947,0,0,0-3.59834,3.59741,2.59917,2.59917,0,0,0,3.59834-3.59741Z" fill="#7f904c"/>
          <path d="M45.488,135.8843a2.40924,2.40924,0,0,0-3.24513-.246,2.11311,2.11311,0,1,0,2.35537,3.39173A2.40129,2.40129,0,0,0,45.488,135.8843Z" fill="#5481c1"/>
          <path d="M55.32319,173.76016a2.78786,2.78786,0,0,0-2.0141-.3009,2.423,2.423,0,0,0-1.8691,3.07482,2.87265,2.87265,0,0,0,1.33473,1.63086Z" fill="#5481c1"/>
          <path d="M62.59169,161.19851a2.12634,2.12634,0,0,0-1.74-.13855,2.70974,2.70974,0,0,0-1.49566,1.17554,2.6725,2.6725,0,0,0-.373,1.899,2.20279,2.20279,0,0,0,1.06062,1.46814Z" fill="#5481c1"/>
        </g>
        <g>
          <path d="M13.50485,138.37649a2.80006,2.80006,0,0,0-3.52143-1.61841,2.74928,2.74928,0,0,0-1.08913,3.77063A2.73058,2.73058,0,0,0,12.494,142.107,2.81767,2.81767,0,0,0,13.50485,138.37649Z" fill="#231f20"/>
          <path d="M11.96582,98.67373A2.62611,2.62611,0,0,1,9.48719,101.4a2.65188,2.65188,0,0,1-2.61026-2.72656Z" fill="#5481c1"/>
          <path d="M26.47883,98.67227a2.41126,2.41126,0,0,1-2.48392,2.28479,2.43473,2.43473,0,0,1-2.60423-2.28516Z" fill="#5481c1"/>
          <path d="M13.50485,138.37649a2.80006,2.80006,0,0,0-3.52143-1.61841,2.74928,2.74928,0,0,0-1.08913,3.77063A2.73058,2.73058,0,0,0,12.494,142.107,2.81767,2.81767,0,0,0,13.50485,138.37649Z" fill="#5481c1"/>
          <path d="M7.90006,122.98a2.8044,2.8044,0,0,0-3.16628-2.2107,2.7434,2.7434,0,0,0-1.74949,3.52393,2.75748,2.75748,0,0,0,3.26576,2.18738A2.78869,2.78869,0,0,0,7.90006,122.98Z" fill="#7f904c"/>
          <path d="M5.08036,106.83438a2.80219,2.80219,0,0,0-2.75572-2.723,2.97533,2.97533,0,0,0,.51907,5.87574A2.82406,2.82406,0,0,0,5.08036,106.83438Z" fill="#5481c1"/>
          <path d="M30.80959,123.35965a2.55878,2.55878,0,0,0-4.78157,1.7395,2.55884,2.55884,0,0,0,4.78157-1.7395Z" fill="#7f904c"/>
          <path d="M27.58768,111.2156a2.13335,2.13335,0,0,0-1.01372-1.42395,2.70232,2.70232,0,0,0-1.86111-.39306,2.67256,2.67256,0,0,0-1.69557.93628,2.2082,2.2082,0,0,0-.44155,1.75805,2.368,2.368,0,0,0,2.91406,1.80969A2.48833,2.48833,0,0,0,27.58768,111.2156Z" fill="#7f904c"/>
          <path d="M17.1711,128.32119a2.64046,2.64046,0,0,0-3.26917-1.71765,2.74357,2.74357,0,1,0,3.26917,1.71765Z" fill="#7f904c"/>
          <path d="M13.29206,113.7178a2.7841,2.7841,0,0,0-1.06516-1.735,2.42409,2.42409,0,0,0-3.557.54334,2.87155,2.87155,0,0,0-.39049,2.06909,2.591,2.591,0,0,0,2.99691,2.24756A2.69916,2.69916,0,0,0,13.29206,113.7178Z" fill="#7f904c"/>
          <path d="M26.65557,132.2377a2.5566,2.5566,0,0,0-3.33808-1.21106,2.50926,2.50926,0,1,0,2.13315,4.54028A2.57237,2.57237,0,0,0,26.65557,132.2377Z" fill="#7f904c"/>
          <path d="M21.92133,119.2344a2.5581,2.5581,0,0,0-3.05688-1.77746,2.5087,2.5087,0,1,0,1.28542,4.84729A2.54411,2.54411,0,0,0,21.92133,119.2344Z" fill="#5481c1"/>
          <path d="M19.53969,105.588a2.5627,2.5627,0,0,0-2.72378-2.28333,2.50884,2.50884,0,1,0,.44321,4.99622A2.58045,2.58045,0,0,0,19.53969,105.588Z" fill="#7f904c"/>
          <path d="M39.82151,126.09182a2.38149,2.38149,0,0,0-3.15658-.80249,2.11255,2.11255,0,1,0,1.75537,3.731A2.39643,2.39643,0,0,0,39.82151,126.09182Z" fill="#5481c1"/>
          <path d="M35.95884,115.48452a2.381,2.381,0,0,0-2.94955-1.34326,2.11232,2.11232,0,1,0,1.05433,3.9823A2.36734,2.36734,0,0,0,35.95884,115.48452Z" fill="#7f904c"/>
          <path d="M34.01577,104.34024a2.38983,2.38983,0,0,0-2.69407-1.8429,2.11515,2.11515,0,1,0,.36728,4.1156A2.40516,2.40516,0,0,0,34.01577,104.34024Z" fill="#5481c1"/>
          <path d="M23.59243,142.02884a2.70054,2.70054,0,0,0-3.54989-1.10376,2.59181,2.59181,0,0,0-.85495,3.6521Z" fill="#5481c1"/>
          <path d="M36.15484,134.76162a2.485,2.485,0,0,0-3.3287-.71,2.36572,2.36572,0,0,0-1.07547,3.25806Z" fill="#5481c1"/>
        </g>
        <g>
          <path d="M5.08348,90.47866a2.82423,2.82423,0,0,0-2.23437-3.15539,2.97565,2.97565,0,0,0-.52138,5.87634A2.79946,2.79946,0,0,0,5.08348,90.47866Z" fill="#231f20"/>
          <path d="M23.5943,55.32132a2.69843,2.69843,0,0,1-3.549,1.10156,2.59,2.59,0,0,1-.85577-3.65015Z" fill="#5481c1"/>
          <path d="M36.15705,62.58792a2.48451,2.48451,0,0,1-3.32884.70971,2.36535,2.36535,0,0,1-1.07517-3.258Z" fill="#5481c1"/>
          <path d="M5.08348,90.47866a2.82423,2.82423,0,0,0-2.23437-3.15539,2.97565,2.97565,0,0,0-.52138,5.87634A2.79946,2.79946,0,0,0,5.08348,90.47866Z" fill="#5481c1"/>
          <path d="M7.90683,74.34927a2.79,2.79,0,0,0-1.6502-3.49951,2.75725,2.75725,0,0,0-3.26522,2.18506,2.74183,2.74183,0,0,0,1.74776,3.526A2.805,2.805,0,0,0,7.90683,74.34927Z" fill="#7f904c"/>
          <path d="M13.52161,58.94a2.81785,2.81785,0,0,0-1.00829-3.73145A2.733,2.733,0,0,0,8.912,56.78579a2.74929,2.74929,0,0,0,1.0892,3.7699A2.79764,2.79764,0,0,0,13.52161,58.94Z" fill="#5481c1"/>
          <path d="M27.59206,86.11331a2.49034,2.49034,0,0,0-2.09631-2.68811,2.368,2.368,0,0,0-2.91534,1.80908,2.20938,2.20938,0,0,0,.44138,1.75769,2.66709,2.66709,0,0,0,1.69435.93652,2.70891,2.70891,0,0,0,1.86213-.39209A2.13018,2.13018,0,0,0,27.59206,86.11331Z" fill="#7f904c"/>
          <path d="M30.81749,73.97012a2.55885,2.55885,0,1,0-3.1207,1.29394A2.42463,2.42463,0,0,0,30.81749,73.97012Z" fill="#7f904c"/>
          <path d="M13.29731,83.60611a2.7016,2.7016,0,0,0-2.014-3.12622A2.59115,2.59115,0,0,0,8.28492,82.727a2.8733,2.8733,0,0,0,.39022,2.06872,2.42434,2.42434,0,0,0,3.55685.54443A2.77985,2.77985,0,0,0,13.29731,83.60611Z" fill="#7f904c"/>
          <path d="M17.18071,69.00381a2.64137,2.64137,0,0,0-1.39806-3.41626A2.73441,2.73441,0,0,0,13.912,70.72,2.63812,2.63812,0,0,0,17.18071,69.00381Z" fill="#7f904c"/>
          <path d="M19.54228,91.73123a2.58013,2.58013,0,0,0-2.27852-2.71533,2.50918,2.50918,0,1,0-.44511,4.9967A2.56017,2.56017,0,0,0,19.54228,91.73123Z" fill="#7f904c"/>
          <path d="M21.9271,78.09866a2.54552,2.54552,0,0,0-1.7717-3.069A2.50863,2.50863,0,1,0,18.869,79.87661,2.55863,2.55863,0,0,0,21.9271,78.09866Z" fill="#5481c1"/>
          <path d="M26.66966,65.08438A2.57215,2.57215,0,0,0,25.4671,61.7543a2.509,2.509,0,1,0-2.13444,4.53894A2.55453,2.55453,0,0,0,26.66966,65.08438Z" fill="#7f904c"/>
          <path d="M34.01782,92.98513a2.40434,2.40434,0,0,0-2.325-2.27478,2.11551,2.11551,0,1,0-.36878,4.116A2.38745,2.38745,0,0,0,34.01782,92.98513Z" fill="#5481c1"/>
          <path d="M35.9636,81.85232a2.36916,2.36916,0,0,0-1.89549-2.63855A2.1122,2.1122,0,1,0,33.013,83.19583,2.38134,2.38134,0,0,0,35.9636,81.85232Z" fill="#7f904c"/>
          <path d="M39.83293,71.236a2.39589,2.39589,0,0,0-1.39907-2.92932,2.11248,2.11248,0,1,0-1.75636,3.72986A2.37946,2.37946,0,0,0,39.83293,71.236Z" fill="#5481c1"/>
          <path d="M11.96578,98.67593a2.62811,2.62811,0,0,0-2.47844-2.72876,2.654,2.654,0,0,0-2.61047,2.72864Z" fill="#5481c1"/>
          <path d="M26.47871,98.67666a2.41165,2.41165,0,0,0-2.48369-2.285,2.43555,2.43555,0,0,0-2.60446,2.285Z" fill="#5481c1"/>
        </g>
        <g>
          <path d="M21.73174,44.7626a2.8152,2.8152,0,0,0-.36676-3.86426,2.7309,2.7309,0,0,0-3.79809.94141,2.71946,2.71946,0,0,0,.422,3.90027A2.82721,2.82721,0,0,0,21.73174,44.7626Z" fill="#231f20"/>
          <path d="M55.32645,23.59134a2.78238,2.78238,0,0,1-2.01324.3,2.42519,2.42519,0,0,1-1.86892-3.07482,2.87046,2.87046,0,0,1,1.33388-1.63013Z" fill="#5481c1"/>
          <path d="M62.59553,36.15261a2.12512,2.12512,0,0,1-1.74026.13855,2.71029,2.71029,0,0,1-1.49534-1.17578,2.67277,2.67277,0,0,1-.37318-1.89892,2.20385,2.20385,0,0,1,1.061-1.46814Z" fill="#5481c1"/>
          <path d="M21.73174,44.7626a2.8152,2.8152,0,0,0-.36676-3.86426,2.7309,2.7309,0,0,0-3.79809.94141,2.71946,2.71946,0,0,0,.422,3.90027A2.82721,2.82721,0,0,0,21.73174,44.7626Z" fill="#5481c1"/>
          <path d="M32.23987,32.22232a2.76084,2.76084,0,0,0,.333-3.83618,2.97041,2.97041,0,0,0-4.17034,4.16943A2.76043,2.76043,0,0,0,32.23987,32.22232Z" fill="#7f904c"/>
          <path d="M44.79565,21.70828a2.8276,2.8276,0,0,0,.98-3.74243,2.72135,2.72135,0,0,0-3.90113-.42359,2.7314,2.7314,0,0,0-.94177,3.79651A2.81244,2.81244,0,0,0,44.79565,21.70828Z" fill="#5481c1"/>
          <path d="M43.38612,52.26858a2.44975,2.44975,0,0,0-.44947-3.36584,2.30393,2.30393,0,1,0-2.93516,3.50781A2.45952,2.45952,0,0,0,43.38612,52.26858Z" fill="#7f904c"/>
          <path d="M52.2873,43.36978a2.45794,2.45794,0,0,0,.144-3.38465,2.30407,2.30407,0,1,0-3.50869,2.93433A2.44766,2.44766,0,0,0,52.2873,43.36978Z" fill="#7f904c"/>
          <path d="M32.27536,42.93167a2.6613,2.6613,0,0,0-.16137-3.70056,2.73233,2.73233,0,0,0-3.50347,4.18408A2.67247,2.67247,0,0,0,32.27536,42.93167Z" fill="#7f904c"/>
          <path d="M42.95426,32.25589a2.67132,2.67132,0,0,0,.48576-3.6648,2.73235,2.73235,0,0,0-4.1852,3.50232A2.659,2.659,0,0,0,42.95426,32.25589Z" fill="#7f904c"/>
          <path d="M33.61114,53.09964a2.5753,2.5753,0,0,0-.6261-3.50525A2.50911,2.50911,0,1,0,30.11778,53.711,2.58371,2.58371,0,0,0,33.61114,53.09964Z" fill="#7f904c"/>
          <path d="M42.50073,42.48587a2.54434,2.54434,0,1,0-3.52948.01709A2.5181,2.5181,0,0,0,42.50073,42.48587Z" fill="#5481c1"/>
          <path d="M53.12754,33.59134a2.584,2.584,0,0,0,.61379-3.49305,2.50876,2.50876,0,1,0-4.11768,2.86438A2.57293,2.57293,0,0,0,53.12754,33.59134Z" fill="#7f904c"/>
          <path d="M45.5043,61.44632a2.40345,2.40345,0,0,0-.88754-3.1471A2.11334,2.11334,0,1,0,42.25887,61.69,2.40945,2.40945,0,0,0,45.5043,61.44632Z" fill="#5481c1"/>
          <path d="M52.77346,52.76126A2.59945,2.59945,0,0,0,49.17607,49.163a2.59913,2.59913,0,0,0,3.59739,3.59827Z" fill="#7f904c"/>
          <path d="M61.46907,45.48806A2.40921,2.40921,0,0,0,61.715,42.243a2.11311,2.11311,0,1,0-3.39173,2.35534A2.40145,2.40145,0,0,0,61.46907,45.48806Z" fill="#5481c1"/>
          <path d="M23.59321,55.32315a2.78733,2.78733,0,0,0,.30082-2.014A2.423,2.423,0,0,0,20.81926,51.44a2.873,2.873,0,0,0-1.63084,1.33471Z" fill="#5481c1"/>
          <path d="M36.15484,62.5917a2.12683,2.12683,0,0,0,.13857-1.74,2.70993,2.70993,0,0,0-1.17556-1.4956,2.67207,2.67207,0,0,0-1.899-.373,2.20306,2.20306,0,0,0-1.46817,1.06055Z" fill="#5481c1"/>
        </g>
        <g>
          <path d="M58.97686,13.50491a2.80012,2.80012,0,0,0,1.61837-3.52148,2.74919,2.74919,0,0,0-3.77058-1.08912,2.7306,2.7306,0,0,0-1.57825,3.59974A2.81776,2.81776,0,0,0,58.97686,13.50491Z" fill="#231f20"/>
          <path d="M98.67963,11.96585a2.62635,2.62635,0,0,1-2.72641-2.47864A2.652,2.652,0,0,1,98.6798,6.877Z" fill="#5481c1"/>
          <path d="M98.68109,26.47891a2.41147,2.41147,0,0,1-2.28486-2.484,2.43484,2.43484,0,0,1,2.28517-2.60425Z" fill="#5481c1"/>
          <path d="M58.97686,13.50491a2.80012,2.80012,0,0,0,1.61837-3.52148,2.74919,2.74919,0,0,0-3.77058-1.08912,2.7306,2.7306,0,0,0-1.57825,3.59974A2.81776,2.81776,0,0,0,58.97686,13.50491Z" fill="#5481c1"/>
          <path d="M74.37326,7.90005a2.80442,2.80442,0,0,0,2.21079-3.16626,2.74345,2.74345,0,0,0-3.524-1.74951A2.75735,2.75735,0,0,0,70.87273,6.25,2.78851,2.78851,0,0,0,74.37326,7.90005Z" fill="#7f904c"/>
          <path d="M90.519,5.08035A2.802,2.802,0,0,0,93.242,2.32461a2.97534,2.97534,0,0,0-5.87575.51917A2.8242,2.8242,0,0,0,90.519,5.08035Z" fill="#5481c1"/>
          <path d="M73.99367,30.8096a2.55881,2.55881,0,0,0-1.7395-4.78162,2.55886,2.55886,0,0,0,1.7395,4.78162Z" fill="#7f904c"/>
          <path d="M86.1377,27.58767a2.13323,2.13323,0,0,0,1.424-1.01367,2.70277,2.70277,0,0,0,.39305-1.86108,2.67233,2.67233,0,0,0-.93626-1.69568,2.20829,2.20829,0,0,0-1.758-.44153,2.368,2.368,0,0,0-1.8097,2.91406A2.48822,2.48822,0,0,0,86.1377,27.58767Z" fill="#7f904c"/>
          <path d="M69.03209,17.17117A2.6405,2.6405,0,0,0,70.74977,13.902a2.74356,2.74356,0,1,0-1.71768,3.26917Z" fill="#7f904c"/>
          <path d="M83.6355,13.292a2.78362,2.78362,0,0,0,1.735-1.06506,2.42412,2.42412,0,0,0-.54327-3.55713,2.87177,2.87177,0,0,0-2.06908-.39051,2.5911,2.5911,0,0,0-2.24765,2.997A2.69911,2.69911,0,0,0,83.6355,13.292Z" fill="#7f904c"/>
          <path d="M65.11562,26.65554a2.55648,2.55648,0,0,0,1.21112-3.338,2.50927,2.50927,0,1,0-4.54029,2.13318A2.57226,2.57226,0,0,0,65.11562,26.65554Z" fill="#7f904c"/>
          <path d="M78.11888,21.92129a2.5581,2.5581,0,0,0,1.77752-3.05676,2.50867,2.50867,0,1,0-4.84723,1.2854A2.54385,2.54385,0,0,0,78.11888,21.92129Z" fill="#5481c1"/>
          <path d="M91.76532,19.5397a2.56249,2.56249,0,0,0,2.28324-2.72376,2.5088,2.5088,0,1,0-4.99613.44324A2.58044,2.58044,0,0,0,91.76532,19.5397Z" fill="#7f904c"/>
          <path d="M71.26149,39.82156a2.38152,2.38152,0,0,0,.80249-3.15662,2.11253,2.11253,0,1,0-3.73092,1.75537A2.39642,2.39642,0,0,0,71.26149,39.82156Z" fill="#5481c1"/>
          <path d="M81.86884,35.95889a2.381,2.381,0,0,0,1.34323-2.94959,2.11231,2.11231,0,1,0-3.9823,1.05433A2.3675,2.3675,0,0,0,81.86884,35.95889Z" fill="#7f904c"/>
          <path d="M93.01308,34.01577a2.38985,2.38985,0,0,0,1.8429-2.69409,2.11515,2.11515,0,1,0-4.11562.36731A2.40514,2.40514,0,0,0,93.01308,34.01577Z" fill="#5481c1"/>
          <path d="M55.32455,23.59243a2.7006,2.7006,0,0,0,1.1037-3.54992,2.59174,2.59174,0,0,0-3.65209-.85486Z" fill="#5481c1"/>
          <path d="M62.59169,36.15481a2.48492,2.48492,0,0,0,.71-3.32861,2.36571,2.36571,0,0,0-3.25806-1.07556Z" fill="#5481c1"/>
        </g>
        <g>
          <path d="M106.87467,5.08352a2.82434,2.82434,0,0,0,3.15544-2.23437,2.97569,2.97569,0,0,0-5.87644-.52136A2.79955,2.79955,0,0,0,106.87467,5.08352Z" fill="#231f20"/>
          <path d="M142.032,23.59427a2.69836,2.69836,0,0,1-1.10152-3.549,2.59,2.59,0,0,1,3.6501-.85571Z" fill="#5481c1"/>
          <path d="M134.76546,36.157a2.48432,2.48432,0,0,1-.70976-3.32874,2.36525,2.36525,0,0,1,3.25809-1.07519Z" fill="#5481c1"/>
          <path d="M106.87467,5.08352a2.82434,2.82434,0,0,0,3.15544-2.23437,2.97569,2.97569,0,0,0-5.87644-.52136A2.79955,2.79955,0,0,0,106.87467,5.08352Z" fill="#5481c1"/>
          <path d="M123.00405,7.90689a2.79,2.79,0,0,0,3.49948-1.65027,2.75722,2.75722,0,0,0-2.185-3.26526,2.742,2.742,0,0,0-3.526,1.7478A2.80515,2.80515,0,0,0,123.00405,7.90689Z" fill="#7f904c"/>
          <path d="M138.41336,13.52163a2.81769,2.81769,0,0,0,3.73139-1.0083A2.73282,2.73282,0,0,0,140.56757,8.912a2.74927,2.74927,0,0,0-3.76991,1.08924A2.79759,2.79759,0,0,0,138.41336,13.52163Z" fill="#5481c1"/>
          <path d="M111.24009,27.59207a2.49029,2.49029,0,0,0,2.688-2.09632,2.3679,2.3679,0,0,0-1.80906-2.91528,2.209,2.209,0,0,0-1.75769.44129,2.66742,2.66742,0,0,0-.93657,1.69433,2.709,2.709,0,0,0,.3921,1.86218A2.13018,2.13018,0,0,0,111.24009,27.59207Z" fill="#7f904c"/>
          <path d="M123.38321,30.81753a2.55886,2.55886,0,1,0-1.294-3.12073A2.42465,2.42465,0,0,0,123.38321,30.81753Z" fill="#7f904c"/>
          <path d="M113.74723,13.29727a2.70155,2.70155,0,0,0,3.12623-2.01392,2.59118,2.59118,0,0,0-2.24713-2.99841,2.87263,2.87263,0,0,0-2.06863.39026,2.42424,2.42424,0,0,0-.54451,3.55676A2.77952,2.77952,0,0,0,113.74723,13.29727Z" fill="#7f904c"/>
          <path d="M128.34952,17.18069a2.64125,2.64125,0,0,0,3.41623-1.39807A2.7344,2.7344,0,0,0,126.6333,13.912,2.63813,2.63813,0,0,0,128.34952,17.18069Z" fill="#7f904c"/>
          <path d="M105.62215,19.54226a2.58008,2.58008,0,0,0,2.71526-2.27844,2.50917,2.50917,0,1,0-4.99668-.44519A2.56007,2.56007,0,0,0,105.62215,19.54226Z" fill="#7f904c"/>
          <path d="M119.25469,21.92715a2.54562,2.54562,0,0,0,3.069-1.77173,2.50866,2.50866,0,1,0-4.847-1.28637A2.55874,2.55874,0,0,0,119.25469,21.92715Z" fill="#5481c1"/>
          <path d="M132.26891,26.6697a2.57215,2.57215,0,0,0,3.33008-1.20263,2.50891,2.50891,0,1,0-4.53885-2.1344A2.55441,2.55441,0,0,0,132.26891,26.6697Z" fill="#7f904c"/>
          <path d="M104.3682,34.01785a2.40445,2.40445,0,0,0,2.27481-2.325,2.11554,2.11554,0,1,0-4.116-.36878A2.38757,2.38757,0,0,0,104.3682,34.01785Z" fill="#5481c1"/>
          <path d="M115.501,35.96365a2.36932,2.36932,0,0,0,2.63858-1.89551,2.11222,2.11222,0,1,0-3.9821-1.05505A2.38138,2.38138,0,0,0,115.501,35.96365Z" fill="#7f904c"/>
          <path d="M126.11733,39.83291a2.39578,2.39578,0,0,0,2.92932-1.399,2.11245,2.11245,0,1,0-3.7298-1.75634A2.3794,2.3794,0,0,0,126.11733,39.83291Z" fill="#5481c1"/>
          <path d="M98.67743,11.96585a2.62829,2.62829,0,0,0,2.72876-2.47852,2.6541,2.6541,0,0,0-2.72871-2.61047Z" fill="#5481c1"/>
          <path d="M98.67665,26.47866a2.4114,2.4114,0,0,0,2.285-2.48364,2.43556,2.43556,0,0,0-2.285-2.60449Z" fill="#5481c1"/>
        </g>
        <g>
          <path d="M152.59069,21.73172a2.81516,2.81516,0,0,0,3.86428-.3667,2.731,2.731,0,0,0-.94139-3.7981,2.71934,2.71934,0,0,0-3.90023.422A2.827,2.827,0,0,0,152.59069,21.73172Z" fill="#231f20"/>
          <path d="M173.762,55.32644a2.782,2.782,0,0,1-.3-2.01318,2.42528,2.42528,0,0,1,3.07487-1.869,2.87051,2.87051,0,0,1,1.63008,1.334Z" fill="#5481c1"/>
          <path d="M161.20067,62.59549a2.12543,2.12543,0,0,1-.13847-1.74024,2.71,2.71,0,0,1,1.17573-1.49536,2.67324,2.67324,0,0,1,1.89894-.37317,2.204,2.204,0,0,1,1.46813,1.061Z" fill="#5481c1"/>
          <path d="M152.59069,21.73172a2.81516,2.81516,0,0,0,3.86428-.3667,2.731,2.731,0,0,0-.94139-3.7981,2.71934,2.71934,0,0,0-3.90023.422A2.827,2.827,0,0,0,152.59069,21.73172Z" fill="#5481c1"/>
          <path d="M165.131,32.23989a2.572,2.572,0,1,0-.3333-3.8374A2.76088,2.76088,0,0,0,165.131,32.23989Z" fill="#7f904c"/>
          <path d="M175.645,44.79568a2.82758,2.82758,0,0,0,3.74243.98,2.97791,2.97791,0,0,0-3.37283-4.84289A2.81248,2.81248,0,0,0,175.645,44.79568Z" fill="#5481c1"/>
          <path d="M145.0848,43.38614a2.44962,2.44962,0,0,0,3.36581-.44947,2.30394,2.30394,0,1,0-3.5078-2.93518A2.45934,2.45934,0,0,0,145.0848,43.38614Z" fill="#7f904c"/>
          <path d="M153.98352,52.28726a2.458,2.458,0,0,0,3.38463.144,2.30406,2.30406,0,1,0-2.93429-3.50867A2.44752,2.44752,0,0,0,153.98352,52.28726Z" fill="#7f904c"/>
          <path d="M154.42165,32.27542a2.66129,2.66129,0,0,0,3.70053-.16138,2.73236,2.73236,0,0,0-4.1841-3.50354A2.67264,2.67264,0,0,0,154.42165,32.27542Z" fill="#7f904c"/>
          <path d="M165.09749,42.95425a2.67136,2.67136,0,0,0,3.6648.48584,2.73242,2.73242,0,0,0-3.50238-4.1853A2.659,2.659,0,0,0,165.09749,42.95425Z" fill="#7f904c"/>
          <path d="M144.25368,33.61111a2.57526,2.57526,0,0,0,3.50522-.6261,2.50908,2.50908,0,1,0-4.11653-2.86719A2.58369,2.58369,0,0,0,144.25368,33.61111Z" fill="#7f904c"/>
          <path d="M154.86748,42.50076a2.54433,2.54433,0,1,0-.01707-3.52954A2.51817,2.51817,0,0,0,154.86748,42.50076Z" fill="#5481c1"/>
          <path d="M163.762,53.12759a2.58393,2.58393,0,0,0,3.493.61377,2.50876,2.50876,0,1,0-2.86437-4.11768A2.57291,2.57291,0,0,0,163.762,53.12759Z" fill="#7f904c"/>
          <path d="M135.907,45.5043a2.40344,2.40344,0,0,0,3.1471-.88757,2.1133,2.1133,0,1,0-3.39074-2.35779A2.4094,2.4094,0,0,0,135.907,45.5043Z" fill="#5481c1"/>
          <path d="M144.592,52.77346a2.59917,2.59917,0,1,0,.30108-3.2229A2.34018,2.34018,0,0,0,144.592,52.77346Z" fill="#7f904c"/>
          <path d="M151.86528,61.46914a2.40936,2.40936,0,0,0,3.24514.24585,2.11311,2.11311,0,1,0-2.35538-3.39172A2.4014,2.4014,0,0,0,151.86528,61.46914Z" fill="#5481c1"/>
          <path d="M142.03012,23.59317a2.78731,2.78731,0,0,0,2.0141.3009,2.423,2.423,0,0,0,1.8691-3.07483,2.87309,2.87309,0,0,0-1.33473-1.63086Z" fill="#5481c1"/>
          <path d="M134.76162,36.15481a2.12632,2.12632,0,0,0,1.74.13855,2.70969,2.70969,0,0,0,1.49565-1.17554,2.67206,2.67206,0,0,0,.37305-1.89892,2.203,2.203,0,0,0-1.06061-1.46826Z" fill="#5481c1"/>
        </g>
        <g>
          <path d="M183.84847,58.97683a2.8,2.8,0,0,0,3.52142,1.61841,2.98031,2.98031,0,0,0-2.51056-5.34888A2.81767,2.81767,0,0,0,183.84847,58.97683Z" fill="#231f20"/>
          <path d="M185.38756,98.67947a2.55056,2.55056,0,1,1,5.0889,0Z" fill="#5481c1"/>
          <path d="M170.87461,98.68167a2.55863,2.55863,0,0,1,5.08815,0Z" fill="#5481c1"/>
          <path d="M183.84847,58.97683a2.8,2.8,0,0,0,3.52142,1.61841,2.98031,2.98031,0,0,0-2.51056-5.34888A2.81767,2.81767,0,0,0,183.84847,58.97683Z" fill="#5481c1"/>
          <path d="M189.45325,74.37332a2.8043,2.8043,0,0,0,3.16629,2.21069,2.97947,2.97947,0,0,0-1.51628-5.7113A2.7887,2.7887,0,0,0,189.45325,74.37332Z" fill="#7f904c"/>
          <path d="M192.273,90.51907a2.80215,2.80215,0,0,0,2.75571,2.7229,2.97532,2.97532,0,0,0-.519-5.87573A2.82412,2.82412,0,0,0,192.273,90.51907Z" fill="#5481c1"/>
          <path d="M166.54372,73.99368a2.55884,2.55884,0,1,0,1.55792-2.99695A2.42388,2.42388,0,0,0,166.54372,73.99368Z" fill="#7f904c"/>
          <path d="M169.76563,86.13772a2.13334,2.13334,0,0,0,1.01373,1.424,2.70235,2.70235,0,0,0,1.8611.39307,2.67258,2.67258,0,0,0,1.69557-.93628,2.20815,2.20815,0,0,0,.44156-1.75806,2.3679,2.3679,0,0,0-2.91406-1.80957A2.48816,2.48816,0,0,0,169.76563,86.13772Z" fill="#7f904c"/>
          <path d="M180.18221,69.03213a2.55085,2.55085,0,1,0,1.4-3.41516A2.64046,2.64046,0,0,0,180.18221,69.03213Z" fill="#7f904c"/>
          <path d="M184.06125,83.63552a2.7841,2.7841,0,0,0,1.06516,1.735,2.42411,2.42411,0,0,0,3.55705-.54333,2.87163,2.87163,0,0,0,.39049-2.0691,2.591,2.591,0,0,0-2.99692-2.24756A2.69917,2.69917,0,0,0,184.06125,83.63552Z" fill="#7f904c"/>
          <path d="M170.69774,65.11563a2.55676,2.55676,0,0,0,3.33808,1.21118,2.50926,2.50926,0,1,0-2.13315-4.54028A2.57224,2.57224,0,0,0,170.69774,65.11563Z" fill="#7f904c"/>
          <path d="M175.432,78.11892a2.5581,2.5581,0,0,0,3.05687,1.77747,2.50864,2.50864,0,1,0-1.2854-4.84717A2.54392,2.54392,0,0,0,175.432,78.11892Z" fill="#5481c1"/>
          <path d="M177.81362,91.76529a2.56261,2.56261,0,0,0,2.72378,2.28332,2.50884,2.50884,0,1,0-.4432-4.99622A2.58048,2.58048,0,0,0,177.81362,91.76529Z" fill="#7f904c"/>
          <path d="M157.5318,71.2615a2.38149,2.38149,0,0,0,3.15659.80249,2.11255,2.11255,0,1,0-1.75537-3.731A2.39649,2.39649,0,0,0,157.5318,71.2615Z" fill="#5481c1"/>
          <path d="M161.39447,81.8688a2.381,2.381,0,0,0,2.94956,1.34326,2.11232,2.11232,0,1,0-1.05434-3.9823A2.36742,2.36742,0,0,0,161.39447,81.8688Z" fill="#7f904c"/>
          <path d="M163.33754,93.01309A2.38982,2.38982,0,0,0,166.0316,94.856a2.11514,2.11514,0,1,0-.36727-4.1156A2.40516,2.40516,0,0,0,163.33754,93.01309Z" fill="#5481c1"/>
          <path d="M173.76088,55.32461a2.70062,2.70062,0,0,0,3.5499,1.10364,2.59181,2.59181,0,0,0,.855-3.6521Z" fill="#5481c1"/>
          <path d="M161.19846,62.5917a2.485,2.485,0,0,0,3.32872.71,2.36571,2.36571,0,0,0,1.07545-3.258Z" fill="#5481c1"/>
        </g>
      </g>
    </g>
  </g>
  <g id="tagline">
    <g id="text-box">
      <rect x="53.2283" y="55.75932" width="90.89671" height="54.91674" fill="#29abe2"/>
    </g>
    <g id="tagline-2" data-name="tagline">
      <rect x="53.2283" y="112.91755" width="90.89671" height="26.30147" fill="#29abe2"/>
    </g>
  </g>
  <g id="no-tagline">
    <rect id="text-box-2" data-name="text-box" x="52.16718" y="52.21902" width="92" height="88" fill="#d9e021"/>
  </g>
</svg>
