<svg xmlns="http://www.w3.org/2000/svg" viewBox="0 0 183.13895 183.13583">
  <title>shape</title>
  <g id="shape">
    <g>
      <g>
        <path d="M114.83078,163.15442l4.15833,12.807a88.87416,88.87416,0,0,0,44.35382-32.242A88.88046,88.88046,0,0,0,175.963,118.98755a90.85173,90.85173,0,0,0,3.25177-13.54517,97.34044,97.34044,0,0,0,1.08741-13.87445H166.837a75.33125,75.33125,0,0,1-52.00623,71.58649Z" fill="#00478a"/>
        <path d="M156.18228,138.88635a5.15441,5.15441,0,0,1,1.42584,1.91547,2.598,2.598,0,0,0,.63245.91412,2.96813,2.96813,0,0,0,1.38757.45471c.54346.07758,1.34668.2002,1.9906.35212-.347-.56891-.71655-1.30085-.9613-1.79847a2.99429,2.99429,0,0,0-.855-1.17987,2.62481,2.62481,0,0,0-1.06983-.32373,5.06507,5.06507,0,0,1-2.24682-.76129l.12164-.17114a3.45855,3.45855,0,0,0,1.71308.62225,2.19589,2.19589,0,0,0,2.12-1.04168,1.47054,1.47054,0,0,0-.53088-1.96283,2.49242,2.49242,0,0,0-2.14936-.23481c.76422.50843,1.05933,1.13568.48865,1.92084a1.00165,1.00165,0,0,1-1.36841.3122.5313.5313,0,0,0-.1181-.77094,1.02971,1.02971,0,0,1-.15472.577,1.56168,1.56168,0,0,1-.6164-.8653c.25849.11878.50055.1626.62085-.00647a.575.575,0,0,0-.22687-.73962.535.535,0,0,0-.77533.05548c-.29547.415-.02758,1.26568.756,1.89587l-.15131.21289a2.51561,2.51561,0,0,1-.61768-.57464,1.40756,1.40756,0,0,0-.29113-.337,7.44849,7.44849,0,0,0-1.39386-.44385,7.56429,7.56429,0,0,0,.85839,1.19764,1.37718,1.37718,0,0,0,.4076.17291,2.47268,2.47268,0,0,1,.73449.41016l-.15124.21289c-.83673-.5503-1.71808-.53571-2.0398-.14277a.51863.51863,0,0,0,.1745.74756.59236.59236,0,0,0,.78254-.00207c.1286-.16345.01513-.37934-.17627-.58783a1.59647,1.59647,0,0,1,1.01709.32574,1.02006,1.02006,0,0,1-.51075.31684.54257.54257,0,0,0,.77893-.11658.97039.97039,0,0,1,.10413,1.38324c-.59943.76251-1.26758.68835-1.98712.11578a2.5597,2.5597,0,0,0,.899,1.99018,1.43148,1.43148,0,0,0,2.0083-.1175,2.14814,2.14814,0,0,0,.37536-2.31018,3.51965,3.51965,0,0,0-1.12622-1.44647Z" fill="#ffe06a"/>
        <path d="M168.66806,91.56543a7.30846,7.30846,0,0,0,1.38135.46136,1.402,1.402,0,0,0,.43524-.101,2.55814,2.55814,0,0,1,.83905-.09979l-.00671.2605c-1.00519.0487-1.73035.57886-1.74335,1.08813-.00781.30567.25232.49188.58691.501a.58517.58517,0,0,0,.6258-.46411c.00525-.20728-.21473-.31427-.4928-.37049a1.58116,1.58116,0,0,1,1.01269-.33673,1.04356,1.04356,0,0,1-.22265.55725.54017.54017,0,0,0,.55737-.55334.985.985,0,0,1,.90753,1.05823c-.02453.96911-.60425,1.3031-1.523,1.26452a2.58658,2.58658,0,0,0,1.90235,1.077,1.41352,1.41352,0,0,0,1.54657-1.277,2.17771,2.17771,0,0,0-1.07758-2.08844,3.42548,3.42548,0,0,0-1.74377-.50653l.00537-.20892a5.01066,5.01066,0,0,1,2.2547.70739,2.58992,2.58992,0,0,0,1.05053.36615,3.02658,3.02658,0,0,0,1.39209-.4483c.49433-.25793,1.22913-.63251,1.84778-.8869Z" fill="#ffe06a"/>
        <path d="M118.34274,173.96472c.05377-.66467.18476-1.47485.27753-2.02112a2.98839,2.98839,0,0,0-.00073-1.45727,2.62968,2.62968,0,0,0-.67469-.89014,5.05321,5.05321,0,0,1-1.37249-1.93445l.19818-.06714a3.45673,3.45673,0,0,0,1.02112,1.50867,2.21034,2.21034,0,0,0,2.3294.40344,1.47369,1.47369,0,0,0,.72138-1.90344,2.48586,2.48586,0,0,0-1.60352-1.449c.32215.86377.191,1.53662-.73047,1.83862a1.00108,1.00108,0,0,1-1.291-.54956.53174.53174,0,0,0,.35608-.69373,1.0316,1.0316,0,0,1-.4632.37659,1.56263,1.56263,0,0,1,.00836-1.0625c.13892.24805.30951.42542.50568.35913a.57445.57445,0,0,0,.24884-.73193c-.11218-.31531-.36914-.50806-.659-.41016-.48181.16284-.76452,1.0094-.50018,1.97962l-.24609.08337a2.52781,2.52781,0,0,1-.16358-.82764,1.408,1.408,0,0,0-.03815-.44372,7.38778,7.38778,0,0,0-.8684-1.17688Z" fill="#ffe06a"/>
        <path d="M173.24118,111.14307a24.67784,24.67784,0,0,0,2.52228-4.34241,8.43954,8.43954,0,0,0,.68475-2.59912,5.21959,5.21959,0,0,0-.44958-2.55152,3.39827,3.39827,0,0,0-2.89685-2.212,4.35208,4.35208,0,0,0-4.69495,2.709,5.33379,5.33379,0,0,0-.314,2.45679,4.846,4.846,0,0,0,.52332,1.76636c.56775.99829,1.37244,1.245,1.23907,1.27942a2.13586,2.13586,0,0,1-1.2528-.79431,5.19422,5.19422,0,0,1,4.01825-8.19892,4.73448,4.73448,0,0,1,1.90179.349,4.5707,4.5707,0,0,1,2.43811,2.54553,7.73355,7.73355,0,0,1,.10352,5.49933,19.00619,19.00619,0,0,1-2.26325,4.67908,25.21538,25.21538,0,0,1-2.3175,3.07428c-.01392.01672-.41022.49292-1.004,1.2063-.59265.70758-1.45819,1.61194-2.29132,2.52-.82135.91418-1.72717,1.79107-2.43311,2.47436-.70245.68512-1.209,1.17859-1.32574,1.30884-.885.9483-2.23786,2.09821-3.26666,3.41144a6.14821,6.14821,0,0,0-1.73517,4.42871,3.69,3.69,0,0,0,1.79852,3.14441c2.49115,1.74188,4.80573-.09015,5.46643-.83179a5.58635,5.58635,0,0,0,1.25708-4.46979,4.38512,4.38512,0,0,0-.86218-1.5996,1.97409,1.97409,0,0,1,1.01214,1.0935c.762,2.062.13508,3.74787-1.22589,5.46314a4.69232,4.69232,0,0,1-5.55474,1.26355,4.86231,4.86231,0,0,1-2.80884-4.35883,7.56664,7.56664,0,0,1,1.46734-4.72375,26.883,26.883,0,0,1,2.997-3.63434c.99256-1.09949,1.81067-1.81421,2.56824-2.55957.01306-.01368.42114-.44159,1.03375-1.08393.60382-.65142,1.46344-1.51886,2.26044-2.45257.79559-.95587,1.60467-1.92792,2.24487-2.69708C172.71341,111.91669,173.12943,111.30505,173.24118,111.14307Z" fill="#ffe06a"/>
        <path d="M135.35281,163.249a29.97291,29.97291,0,0,1-3.347,3.74341c-1.40869,1.14234-3.036,2.08338-4.83252,1.80567a3.45513,3.45513,0,0,1-3.00244-2.07435,4.28051,4.28051,0,0,1,1.131-5.281,5.12459,5.12459,0,0,1,4.0755-1.119,4.67147,4.67147,0,0,1,1.5863.7533,2.08616,2.08616,0,0,0-1.136-.93018,4.84408,4.84408,0,0,0-4.96857,1.08142,4.77312,4.77312,0,0,0-1.571,5.30322,4.41193,4.41193,0,0,0,4.08753,3.20887,7.87045,7.87045,0,0,0,5.27106-1.58863,21.20887,21.20887,0,0,0,3.74359-3.60608c1.01135-1.26782,1.60425-2.23474,2.214-3.1455.01111-.01856.33294-.5542.81518-1.35682.47058-.80871,1.11518-1.83984,1.70264-2.93792.57092-1.09107,1.15076-2.19916,1.60809-3.07318.42762-.88434.74048-1.53131.81641-1.68842.29639-.56842.6507-1.248,1.02527-1.96649a24.53814,24.53814,0,0,1,1.21228-2.1969,6.24485,6.24485,0,0,1,3.70038-2.99707,4.07886,4.07886,0,0,1,5.09582,3.8515,5.32187,5.32187,0,0,1-.68121,2.33978,5.47263,5.47263,0,0,1-3.85864,2.57428,4.24749,4.24749,0,0,1-1.76954-.30987,1.93117,1.93117,0,0,0,1.343.61651,5.2066,5.2066,0,0,0,4.79932-2.863,5.01376,5.01376,0,0,0,.72058-1.877,4.70557,4.70557,0,0,0-1.21967-3.79376,4.81288,4.81288,0,0,0-4.98883-1.31763,7.6782,7.6782,0,0,0-4.06768,2.82959,32.88186,32.88186,0,0,0-2.52936,3.9798c-.67713,1.31989-1.173,2.28644-1.653,3.22223-.00866.017-.28106.54865-.69,1.34692-.41547.79957-1.02661,1.81409-1.64893,2.88819C137.0961,160.81287,135.58224,162.91675,135.35281,163.249Z" fill="#ffe06a"/>
        <path d="M119.62424,177.91138l.24273.74756a91.712,91.712,0,0,0,45.77015-33.27112,91.71964,91.71964,0,0,0,13.02417-25.52466,93.69555,93.69555,0,0,0,3.35589-13.98065A100.15368,100.15368,0,0,0,183.139,91.56793H182.353a99.37149,99.37149,0,0,1-1.11225,14.19257,92.89812,92.89812,0,0,1-3.327,13.85992,90.92817,90.92817,0,0,1-12.912,25.30493A90.92526,90.92526,0,0,1,119.62424,177.91138Z" fill="#00478a"/>
        <path d="M119.26028,176.79053l.081.24939a90.00874,90.00874,0,0,0,44.91955-32.65369,90.01593,90.01593,0,0,0,12.78144-25.04877,91.98921,91.98921,0,0,0,3.29333-13.71917,98.46,98.46,0,0,0,1.10114-14.05036h-.26221a98.19857,98.19857,0,0,1-1.098,14.00965,91.72818,91.72818,0,0,1-3.28369,13.679,89.75144,89.75144,0,0,1-12.74408,24.9754A89.747,89.747,0,0,1,119.26028,176.79053Z" fill="#ffe06a"/>
        <path d="M114.19894,161.20337l-.24285-.7478A72.49417,72.49417,0,0,0,164,91.56793h.78625a73.28035,73.28035,0,0,1-50.58728,69.63544Z" fill="#00478a"/>
        <path d="M114.5629,162.32422l-.081-.24939a74.19663,74.19663,0,0,0,51.22058-70.5069h.26221a74.45876,74.45876,0,0,1-51.40179,70.75629Z" fill="#ffe06a"/>
        <path d="M172.39255,102.97131a.651.651,0,0,0-.76013.55078.67575.67575,0,0,0,.58117.74854.65093.65093,0,0,0,.77332-.548A.675.675,0,0,0,172.39255,102.97131Z" fill="#ffe06a"/>
        <path d="M164.8945,128.996a.66274.66274,0,0,0-.90893.27155.67489.67489,0,0,0,.30621.90509.65383.65383,0,0,0,.90716-.27216A.66535.66535,0,0,0,164.8945,128.996Z" fill="#ffe06a"/>
        <path d="M127.41721,164.91724a.65.65,0,0,0,.88909.31359.666.666,0,0,0,.2782-.91149.65912.65912,0,0,0-.89026-.31336A.67467.67467,0,0,0,127.41721,164.91724Z" fill="#ffe06a"/>
        <path d="M149.84616,149.72308a.648.648,0,0,0,.94354.00055.67114.67114,0,0,0-.03125-.95727.65677.65677,0,0,0-.94513-.00165A.68064.68064,0,0,0,149.84616,149.72308Z" fill="#ffe06a"/>
      </g>
      <g>
        <path d="M30.68329,135.79608,19.796,143.71942a88.69349,88.69349,0,0,0,99.19312,32.242l-4.15833-12.807a75.22819,75.22819,0,0,1-84.14749-27.35834Z" fill="#00478a"/>
        <path d="M66.52756,167.64856a5.05605,5.05605,0,0,1-1.37424,1.93384,2.62106,2.62106,0,0,0-.6752.88989,2.97573,2.97573,0,0,0-.00113,1.45715c.09286.54639.22281,1.3562.27634,2.02088.43179-.50086,1.01062-1.07105,1.406-1.45227a2.974,2.974,0,0,0,.85724-1.181,2.61789,2.61789,0,0,0-.02533-1.11292,5.162,5.162,0,0,1,.03226-2.38757l.19882.06738a3.5186,3.5186,0,0,0-.06409,1.83252,2.14291,2.14291,0,0,0,1.66077,1.64978,1.43169,1.43169,0,0,0,1.6933-1.08508,2.55918,2.55918,0,0,0-.438-2.13758c-.24661.88587-.74481,1.33814-1.67813,1.07325a.96923.96923,0,0,1-.72769-1.18177.54022.54022,0,0,0,.69916-.36157.99512.99512,0,0,1-.5994.04212,1.59584,1.59584,0,0,1,.63281-.85926c-.03238.28125.00177.52222.20136.57886a.59425.59425,0,0,0,.63626-.45764.51824.51824,0,0,0-.29678-.707c-.493-.12879-1.21323.37353-1.56861,1.31116l-.24728-.08387a2.49379,2.49379,0,0,1,.35409-.76294,1.38715,1.38715,0,0,0,.22925-.3789,7.62291,7.62291,0,0,0-.00635-1.47339,7.4079,7.4079,0,0,0-.86886,1.17676,1.39659,1.39659,0,0,0-.03891.44348,2.49824,2.49824,0,0,1-.16312.82776l-.24731-.08374c.26516-.97-.01722-1.81641-.49771-1.97876a.53455.53455,0,0,0-.66071.40954.57383.57383,0,0,0,.24823.73169c.19693.06665.36789-.11059.50726-.35852a1.563,1.563,0,0,1,.0073,1.06214,1.03391,1.03391,0,0,1-.46314-.37659.53134.53134,0,0,0,.35581.6936,1.00066,1.00066,0,0,1-1.29053.54968c-.922-.30163-1.0513-.97851-.72937-1.84033a2.48811,2.48811,0,0,0-1.60547,1.44812,1.47336,1.47336,0,0,0,.72171,1.90369,2.20315,2.20315,0,0,0,2.32819-.40161A3.45979,3.45979,0,0,0,66.329,167.5813Z" fill="#ffe06a"/>
        <path d="M115.39841,164.89526a7.60333,7.60333,0,0,0-.00611,1.47339,1.36851,1.36851,0,0,0,.22907.37891,2.52216,2.52216,0,0,1,.35266.76343l-.24658.08361c-.355-.93566-1.07617-1.44238-1.56873-1.31323a.51844.51844,0,0,0-.29669.707.59342.59342,0,0,0,.63556.45777c.19934-.05652.23352-.29761.20135-.57886a1.59869,1.59869,0,0,1,.63294.86145,1.0221,1.0221,0,0,1-.59955-.04431.54342.54342,0,0,0,.69916.36389.97019.97019,0,0,1-.72913,1.17993c-.93231.26465-1.42962-.18786-1.67578-1.074a2.55664,2.55664,0,0,0-.43994,2.13818,1.43118,1.43118,0,0,0,1.69324,1.08521,2.14657,2.14657,0,0,0,1.66089-1.64808,3.52166,3.52166,0,0,0-.0622-1.83288l.19782-.067a5.16425,5.16425,0,0,1,.03118,2.38794,2.591,2.591,0,0,0-.02471,1.1106,2.9845,2.9845,0,0,0,.85534,1.18371c.39527.38123.97443.95142,1.40528,1.45252Z" fill="#ffe06a"/>
        <path d="M21.494,142.486c.644-.15173,1.4479-.27344,1.9913-.35113a2.96573,2.96573,0,0,0,1.38617-.45313,2.63384,2.63384,0,0,0,.63443-.91492,5.15164,5.15164,0,0,1,1.42688-1.914l.12125.1706a3.51719,3.51719,0,0,0-1.12723,1.44513,2.14437,2.14437,0,0,0,.37408,2.31189,1.4319,1.4319,0,0,0,2.00806.11718,2.55712,2.55712,0,0,0,.90036-1.98858c-.71985.57226-1.38821.64624-1.9874-.11609a.97071.97071,0,0,1,.10541-1.38477.53936.53936,0,0,0,.7775.118.99185.99185,0,0,1-.50919-.31811,1.59175,1.59175,0,0,1,1.01615-.32367c-.19172.20813-.30539.4237-.17728.58655a.59293.59293,0,0,0,.783.00262.51787.51787,0,0,0,.1756-.74622c-.32294-.39373-1.201-.41119-2.03977.13947l-.15048-.21179a2.50343,2.50343,0,0,1,.73416-.41059,1.38812,1.38812,0,0,0,.40808-.17224,7.54635,7.54635,0,0,0,.85871-1.19726Z" fill="#ffe06a"/>
        <path d="M98.18719,175.2738c.65217.173,1.4231.42847,2.259.63477a20.24151,20.24151,0,0,0,2.64724.43811,6.29225,6.29225,0,0,0,4.97611-1.34851,3.44854,3.44854,0,0,0,1.21222-3.45545,3.89808,3.89808,0,0,0-1.8584-2.87585,5.04107,5.04107,0,0,0-2.15851-.75439,5.36187,5.36187,0,0,0-3.95572,1.49194,4.76147,4.76147,0,0,0-.8388,1.56274,2.11818,2.11818,0,0,1,.37222-1.43127,4.93414,4.93414,0,0,1,4.6557-2.05457,4.47547,4.47547,0,0,1,1.7944.46485,5.0166,5.0166,0,0,1,2.58677,2.90551,4.47413,4.47413,0,0,1-1.42005,5.03333,7.851,7.851,0,0,1-5.20453,1.776,18.42093,18.42093,0,0,1-2.73807-.19177c-.87429-.15-1.69213-.35706-2.40835-.533a23.63164,23.63164,0,0,1-3.63553-1.25342c-.0202-.0083-.59524-.24487-1.45679-.59924-.4245-.17737-.91958-.38428-1.45218-.60681-.52426-.24854-1.08544-.51465-1.651-.78272-2.25229-1.027-4.44519-2.26636-4.76169-2.41455-.58657-.27881-1.26513-.60632-1.98571-.98389a19.37207,19.37207,0,0,0-2.27219-1.063c-1.57873-.54944-3.18414-.964-4.75305-.24573a3.69282,3.69282,0,0,0-2.42621,2.67346,3.73921,3.73921,0,0,0,.56561,3.43457,5.21872,5.21872,0,0,0,1.92646,1.489,5.42611,5.42611,0,0,0,4.637-.18835c1.033-.60986,1.1972-1.431,1.25009-1.2981a1.94383,1.94383,0,0,1-.72357,1.29212,5.112,5.112,0,0,1-2.66455,1.075,6.51671,6.51671,0,0,1-2.90482-.5625,4.88,4.88,0,0,1-1.686-1.09363,4.72908,4.72908,0,0,1-1.24161-3.7893,4.7952,4.7952,0,0,1,3.26206-3.99036,6.1199,6.1199,0,0,1,2.49746-.47266,7.81307,7.81307,0,0,1,1.23294.12512,9.7664,9.7664,0,0,1,1.221.24073,15.58181,15.58181,0,0,1,2.32474.83508c.74.308,1.44.60486,2.06183.89014,1.35208.634,2.285,1.19909,3.23126,1.6405.01709.00842.55041.27161,1.35107.66663.4068.19763.88153.42822,1.39255.67651.52.22351,1.07691.46289,1.63858.70422,1.13263.467,2.31192.98645,3.25675,1.316C97.28738,174.98376,97.99908,175.22327,98.18719,175.2738Z" fill="#ffe06a"/>
        <path d="M36.94379,155.33862c-.63459-.238-1.39331-.52264-2.19553-.82354a17.49442,17.49442,0,0,1-2.39648-1.20581,6.28112,6.28112,0,0,1-3.22245-4.02308,3.44217,3.44217,0,0,1,1.05524-3.50348,3.91429,3.91429,0,0,1,3.19916-1.23168,5.027,5.027,0,0,1,2.18539.66644,5.32252,5.32252,0,0,1,2.31476,3.53992,4.84483,4.84483,0,0,1-.2464,1.76116,2.13494,2.13494,0,0,0,.54468-1.37768,4.91168,4.91168,0,0,0-2.547-4.40991,4.4608,4.4608,0,0,0-1.72134-.685,5.04185,5.04185,0,0,0-3.80545.82544,4.47075,4.47075,0,0,0-1.81616,4.90124,7.83518,7.83518,0,0,0,3.15429,4.50306,15.53633,15.53633,0,0,0,2.32688,1.45532c.79861.39,1.5719.71564,2.25253.99756a25.23259,25.23259,0,0,0,3.68,1.12957c.02075.00525.6211.1576,1.52072.38587.89377.22656,2.12543.45093,3.33249.69836,1.2013.259,2.45133.43579,3.42209.57837.97031.14441,1.66974.24805,1.84039.28516,1.27863.2406,3.03968.39648,4.64887.8479a6.173,6.173,0,0,1,4.0004,2.57507,3.69662,3.69662,0,0,1,.38232,3.60413c-.99954,2.8739-3.94412,2.73315-4.91989,2.5282a5.63206,5.63206,0,0,1-3.63611-2.88709,4.39414,4.39414,0,0,1-.23721-1.80273,1.97556,1.97556,0,0,0-.17975,1.4801c.59451,2.10962,2.084,3.12183,4.194,3.70569a4.68356,4.68356,0,0,0,5.24161-2.224,4.873,4.873,0,0,0-.27451-5.18091,7.60169,7.60169,0,0,0-3.95581-2.97119,26.92105,26.92105,0,0,0-4.56067-1.1864c-1.44891-.30994-2.52866-.41376-3.58191-.5708-.01855-.00342-.6001-.1109-1.47314-.27228-.871-.174-2.07642-.37232-3.26874-.66229-1.20578-.30622-2.432-.61762-3.40219-.86408C37.83105,155.64771,37.12759,155.40619,36.94379,155.33862Z" fill="#ffe06a"/>
        <path d="M18.139,144.92773l-.63547.46247a91.52991,91.52991,0,0,0,102.36166,33.26935l-.24267-.74756A90.74406,90.74406,0,0,1,18.139,144.92773Z" fill="#00478a"/>
        <path d="M19.09177,144.23425l-.212.1543a89.82773,89.82773,0,0,0,100.45972,32.652l-.081-.24939A89.56554,89.56554,0,0,1,19.09177,144.23425Z" fill="#ffe06a"/>
        <path d="M32.34235,134.59064l.63568-.46271a72.39124,72.39124,0,0,0,80.97665,26.32812l.2428.74781a73.17755,73.17755,0,0,1-81.85513-26.61322Z" fill="#00478a"/>
        <path d="M31.3895,135.28406l.212-.1543a74.09361,74.09361,0,0,0,82.87894,26.94568l.08093.24939A74.3558,74.3558,0,0,1,31.3895,135.28406Z" fill="#ffe06a"/>
        <path d="M105.70276,171.95642a.65786.65786,0,0,0-.75842-.56006.67728.67728,0,0,0-.533.79077.64938.64938,0,0,0,.75763.55994A.66806.66806,0,0,0,105.70276,171.95642Z" fill="#ffe06a"/>
        <path d="M78.62875,172.87915a.67852.67852,0,0,0-.53857-.79211.65919.65919,0,0,0-.76288.55981.669.669,0,0,0,.53851.79016A.65016.65016,0,0,0,78.62875,172.87915Z" fill="#ffe06a"/>
        <path d="M32.90936,148.30841a.66992.66992,0,0,0-.036.9541.6463.6463,0,0,0,.941-.00476.67951.67951,0,0,0,.03552-.95514A.65435.65435,0,0,0,32.90936,148.30841Z" fill="#ffe06a"/>
        <path d="M54.27213,164.95984a.66771.66771,0,0,0,.28305.91272.65143.65143,0,0,0,.89367-.31006.67706.67706,0,0,0-.28256-.91443A.66033.66033,0,0,0,54.27213,164.95984Z" fill="#ffe06a"/>
      </g>
      <g>
        <path d="M30.68329,47.33972,19.796,39.41644A88.88044,88.88044,0,0,0,7.1759,64.14825,90.84854,90.84854,0,0,0,3.92413,77.69348a97.33391,97.33391,0,0,0-1.0874,13.87445,97.3346,97.3346,0,0,0,1.0874,13.87445A90.84926,90.84926,0,0,0,7.1759,118.98755,88.87968,88.87968,0,0,0,19.796,143.71942l10.8873-7.92334a75.19988,75.19988,0,0,1,0-88.45636Z" fill="#00478a"/>
        <path d="M11.48169,91.26208A5.00531,5.00531,0,0,1,9.227,90.55273a2.59012,2.59012,0,0,0-1.05048-.36682,3.0124,3.0124,0,0,0-1.39215.449c-.49429.257-1.229.63019-1.84781.886.61426.25562,1.35221.6297,1.84552.88788a3.03219,3.03219,0,0,0,1.39216.45081,2.59023,2.59023,0,0,0,1.05047-.36737,5.00782,5.00782,0,0,1,2.2547-.7063l.0054.21a3.42336,3.42336,0,0,0-1.74414.5047,2.17831,2.17831,0,0,0-1.07721,2.08887A1.41326,1.41326,0,0,0,10.208,95.86658a2.59149,2.59149,0,0,0,1.90454-1.07508c-.91879.03809-1.49857-.29687-1.5231-1.267A.98422.98422,0,0,1,11.497,92.4671a.54071.54071,0,0,0,.55737.554,1.04446,1.04446,0,0,1-.22269-.55768,1.58213,1.58213,0,0,1,1.01273.33722c-.27808.056-.49808.163-.4928.37048a.58585.58585,0,0,0,.6258.46485c.33459-.009.59475-.19507.58694-.501-.013-.50965-.73825-1.04016-1.74341-1.08869l-.00674-.26123a2.52928,2.52928,0,0,1,.83911.10132,1.4202,1.4202,0,0,0,.43521.10114A7.43044,7.43044,0,0,0,14.472,91.526a7.30145,7.30145,0,0,0-1.38128-.46338,1.40836,1.40836,0,0,0-.43518.1001,2.51045,2.51045,0,0,1-.83911.10065l.00674-.26123c1.00516-.04743,1.73035-.57813,1.74332-1.08576.00781-.307-.25235-.49273-.58695-.502a.584.584,0,0,0-.62573.46271c-.00528.208.21469.31579.4928.37176a1.58126,1.58126,0,0,1-1.01267.33551,1.04873,1.04873,0,0,1,.22263-.55713.5403.5403,0,0,0-.55734.553.98486.98486,0,0,1-.9076-1.05743c.02454-.96973.60425-1.30341,1.523-1.26435a2.58905,2.58905,0,0,0-1.89984-1.079,1.41456,1.41456,0,0,0-1.549,1.27747A2.18041,2.18041,0,0,0,9.74332,90.546a3.42787,3.42787,0,0,0,1.74377.50653Z" fill="#ffe06a"/>
        <path d="M29.20413,136.87543a7.42488,7.42488,0,0,0-1.39374.44409,1.38943,1.38943,0,0,0-.29126.33673,2.54388,2.54388,0,0,1-.61853.57349l-.15091-.21228c.78345-.63038,1.05152-1.48072.75626-1.89545a.53524.53524,0,0,0-.77527-.05542.57428.57428,0,0,0-.22726.739c.12015.16889.36224.12506.62082.00647a1.56057,1.56057,0,0,1-.61664.86487,1.02792,1.02792,0,0,1-.15448-.5766.53062.53062,0,0,0-.11847.77039,1.00246,1.00246,0,0,1-1.36893-.31293c-.5704-.78406-.2713-1.41278.49167-1.91986a2.48935,2.48935,0,0,0-2.15048.23309,1.4697,1.4697,0,0,0-.53088,1.96277,2.18852,2.18852,0,0,0,2.1184,1.0423,3.46115,3.46115,0,0,0,1.71387-.62055l.121.17029a5.0684,5.0684,0,0,1-2.24749.76038,2.62241,2.62241,0,0,0-1.0691.32477,2.98871,2.98871,0,0,0-.85653,1.17779c-.24481.49744-.61426,1.22962-.96179,1.79779Z" fill="#ffe06a"/>
        <path d="M21.49185,40.65283c.34671.56934.71616,1.30152.96167,1.798a2.98626,2.98626,0,0,0,.8559,1.17871,2.63282,2.63282,0,0,0,1.06912.32464,5.05949,5.05949,0,0,1,2.24765.76026l-.12125.17053a3.4608,3.4608,0,0,0-1.713-.62177,2.1905,2.1905,0,0,0-2.11886,1.04334,1.47012,1.47012,0,0,0,.53082,1.96295,2.49158,2.49158,0,0,0,2.15054.233c-.76282-.5069-1.06241-1.13592-.49179-1.92023a1.00263,1.00263,0,0,1,1.36878-.31262A.53116.53116,0,0,0,26.35,46.04a1.03214,1.03214,0,0,1,.15448-.57666,1.56072,1.56072,0,0,1,.61666.86487c-.25814-.11927-.50048-.16272-.6206.0061a.57377.57377,0,0,0,.22769.73846.53443.53443,0,0,0,.77487-.05481c.29511-.41455.02756-1.26562-.75613-1.89569l.15057-.21179a2.52627,2.52627,0,0,1,.61832.57373,1.40686,1.40686,0,0,0,.29132.33673,7.3869,7.3869,0,0,0,1.39471.44269Z" fill="#ffe06a"/>
        <path d="M13.97635,123.74182a29.84415,29.84415,0,0,0,.49875,5.00153c.4801,1.746,1.23947,3.46673,2.85306,4.29809a3.46813,3.46813,0,0,0,3.65438.08246,4.30325,4.30325,0,0,0,2.1893-4.94025,5.21545,5.21545,0,0,0-2.64209-3.29888,4.64383,4.64383,0,0,0-1.729-.31934,2.08452,2.08452,0,0,1,1.46722-.08691,4.84774,4.84774,0,0,1,3.38068,3.79589,4.76926,4.76926,0,0,1-1.83679,5.21064,4.427,4.427,0,0,1-5.20026.1997,7.93049,7.93049,0,0,1-3.33587-4.37927,21.17607,21.17607,0,0,1-.90122-5.1239,35.494,35.494,0,0,1,.05609-3.84491l.137-1.5777c.09661-.9317.16781-2.14044.35168-3.378.17932-1.21771.36139-2.45434.505-3.42975.17643-.96673.30552-1.674.33689-1.84588.15994-1.28827.51843-2.99945.64645-4.68048a6.29955,6.29955,0,0,0-1.2164-4.60041,3.76308,3.76308,0,0,0-3.30887-1.48657c-3.07733.05853-3.811,2.89264-3.91424,3.8819a5.476,5.476,0,0,0,1.59909,4.35638,4.2339,4.2339,0,0,0,1.60992.79328,1.92823,1.92823,0,0,1-1.447-.2931,5.21094,5.21094,0,0,1-2.18643-5.1455,4.58181,4.58181,0,0,1,3.74585-4.284,4.83427,4.83427,0,0,1,4.81366,1.87811,7.75812,7.75812,0,0,1,1.61084,4.6814,33.31565,33.31565,0,0,1-.30258,4.70367c-.23,1.46491-.39835,2.5373-.56134,3.57557-.003.01886-.09507.60882-.23331,1.49444-.14786.8949-.23676,2.07038-.366,3.30536-.13791,1.23743-.2019,2.49542-.22891,3.49908C13.98526,122.791,13.96869,123.54614,13.97635,123.74182Z" fill="#ffe06a"/>
        <path d="M14.00977,59.30939a29.92419,29.92419,0,0,1,.50732-4.99909c.482-1.74542,1.23608-3.46917,2.857-4.29577a3.46565,3.46565,0,0,1,3.65235-.07892,4.29638,4.29638,0,0,1,2.18365,4.94171,5.197,5.197,0,0,1-2.6452,3.296,4.6909,4.6909,0,0,1-1.72891.31915,2.09106,2.09106,0,0,0,1.46689.08759A4.84038,4.84038,0,0,0,23.68661,54.787a4.759,4.759,0,0,0-1.83081-5.21271,4.42325,4.42325,0,0,0-5.19784-.204,7.915,7.915,0,0,0-3.33978,4.37683,21.20274,21.20274,0,0,0-.90961,5.12079,37.42877,37.42877,0,0,0,.05084,3.84613c.00186.02155.05594.64435.137,1.57758.0946.93133.17172,2.14245.34707,3.37793.17914,1.2182.36109,2.45538.50461,3.43121.17413.96649.30154,1.67358.33249,1.84527.16376,1.28962.51294,2.99964.64187,4.68146a6.31532,6.31532,0,0,1-1.22064,4.60034A3.76679,3.76679,0,0,1,9.889,83.71c-3.078-.06158-3.80207-2.89618-3.90906-3.88721a5.11585,5.11585,0,0,1,.0441-1.44976,6.14266,6.14266,0,0,1,.428-1.26618,5.2893,5.2893,0,0,1,1.13147-1.63843,4.2276,4.2276,0,0,1,1.60968-.79174,1.925,1.925,0,0,0-1.4469.29229,5.21512,5.21512,0,0,0-2.19074,5.14234A4.58393,4.58393,0,0,0,9.2962,84.40045a4.842,4.842,0,0,0,4.81748-1.87213,7.78006,7.78006,0,0,0,1.6149-4.68079,32.92956,32.92956,0,0,0-.29831-4.70379c-.228-1.465-.395-2.53791-.55664-3.5766l-.23319-1.495c-.13934-.8927-.23416-2.07055-.36139-3.30554-.13861-1.23828-.19372-2.49365-.22421-3.49908C14.01852,60.2605,14.00208,59.50507,14.00977,59.30939Z" fill="#ffe06a"/>
        <path d="M18.13672,38.21124l-.63547-.46246A91.71518,91.71518,0,0,0,4.47736,63.27362,93.69883,93.69883,0,0,0,1.12161,77.25427,100.15639,100.15639,0,0,0,0,91.56885a100.145,100.145,0,0,0,1.122,14.31457A93.67794,93.67794,0,0,0,4.478,119.86407a91.71415,91.71415,0,0,0,13.02438,25.52454l.63544-.46246A90.92938,90.92938,0,0,1,5.22549,119.62134a92.89121,92.89121,0,0,1-3.32714-13.85993A99.35565,99.35565,0,0,1,.786,91.56885,99.37127,99.37127,0,0,1,1.898,77.37628a92.91377,92.91377,0,0,1,3.32687-13.86A90.931,90.931,0,0,1,18.13672,38.21124Z" fill="#00478a"/>
        <path d="M19.08957,38.90466l-.212-.15429A90.0141,90.0141,0,0,0,6.09637,63.79926,91.99672,91.99672,0,0,0,2.80316,77.51849a98.46784,98.46784,0,0,0-1.101,14.05036A98.45723,98.45723,0,0,0,2.8035,105.6192,91.98116,91.98116,0,0,0,6.097,119.33838,90.01328,90.01328,0,0,0,18.87869,144.387l.212-.15423a89.75172,89.75172,0,0,1-12.7443-24.97534,91.71511,91.71511,0,0,1-3.28384-13.6789A98.19287,98.19287,0,0,1,1.96442,91.56885,98.202,98.202,0,0,1,3.06219,77.5592a91.73322,91.73322,0,0,1,3.28357-13.679A89.75266,89.75266,0,0,1,19.08957,38.90466Z" fill="#ffe06a"/>
        <path d="M32.34055,48.54773l.63571.46265a72.36307,72.36307,0,0,0,.00088,85.11633l-.63568.46265a73.14929,73.14929,0,0,1-.00091-86.04163Z" fill="#00478a"/>
        <path d="M31.3877,47.85431l.212.1543a74.0654,74.0654,0,0,0,.00089,87.11987l-.212.1543a74.32765,74.32765,0,0,1-.00088-87.42847Z" fill="#ffe06a"/>
        <path d="M19.46924,129.85455a.67368.67368,0,0,0,.308-.90094.68529.68529,0,0,0-1.214.63343A.65259.65259,0,0,0,19.46924,129.85455Z" fill="#ffe06a"/>
        <path d="M10.23679,104.38873a.67618.67618,0,0,0,.58017-.75415.65238.65238,0,0,0-.76117-.55511.67594.67594,0,0,0-.59259.75567A.65237.65237,0,0,0,10.23679,104.38873Z" fill="#ffe06a"/>
        <path d="M19.45792,53.30341a.652.652,0,0,0-.90555.26672.68525.68525,0,0,0,1.21414.63306A.67254.67254,0,0,0,19.45792,53.30341Z" fill="#ffe06a"/>
        <path d="M10.23239,78.77173a.65109.65109,0,0,0-.77234.55365.67559.67559,0,0,0,.59259.75586.65245.65245,0,0,0,.76123-.55573A.67756.67756,0,0,0,10.23239,78.77173Z" fill="#ffe06a"/>
      </g>
      <g>
        <path d="M114.83078,19.98138l4.15833-12.80706A88.69332,88.69332,0,0,0,19.796,39.41644l10.8873,7.92328a75.22819,75.22819,0,0,1,84.14749-27.35834Z" fill="#00478a"/>
        <path d="M67.10669,15.29114a5.15855,5.15855,0,0,1-.02921-2.38855,2.5647,2.5647,0,0,0,.02607-1.10852,2.992,2.992,0,0,0-.85675-1.18573c-.39423-.38166-.97226-.95215-1.40424-1.45294-.05338.66461-.18408,1.4746-.27817,2.02136a2.9956,2.9956,0,0,0-.00064,1.45776,2.62223,2.62223,0,0,0,.67572.88977,5.05868,5.05868,0,0,1,1.37125,1.93488l-.19885.06732A3.45494,3.45494,0,0,0,65.391,14.0174a2.21161,2.21161,0,0,0-2.329-.4043,1.47174,1.47174,0,0,0-.72168,1.90222,2.48676,2.48676,0,0,0,1.6015,1.44971c-.32235-.86585-.18863-1.53449.7334-1.83716a1.00007,1.00007,0,0,1,1.29047.54962.53192.53192,0,0,0-.35669.694,1.02969,1.02969,0,0,1,.46365-.37677,1.56336,1.56336,0,0,1-.00894,1.06268c-.1394-.24786-.30951-.42535-.506-.35894a.57572.57572,0,0,0-.25019.73242.53427.53427,0,0,0,.65976.40985c.48236-.163.76459-1.0094.50043-1.97974l.24735-.08374a2.51752,2.51752,0,0,1,.16247.828,1.41028,1.41028,0,0,0,.03787.44379,7.44993,7.44993,0,0,0,.867,1.17737,7.58379,7.58379,0,0,0,.00818-1.47406,1.37439,1.37439,0,0,0-.22821-.37921,2.47425,2.47425,0,0,1-.35349-.76319l.24732-.08386c.35312.93408,1.07629,1.44538,1.56707,1.31629a.51857.51857,0,0,0,.29773-.7074.59224.59224,0,0,0-.63424-.45813c-.2.05664-.235.298-.20255.57916a1.59972,1.59972,0,0,1-.63244-.864,1.05912,1.05912,0,0,1,.60012.04651.54768.54768,0,0,0-.69952-.36609.97063.97063,0,0,1,.729-1.17761c.933-.26484,1.4299.18786,1.67554,1.074a2.56107,2.56107,0,0,0,.44211-2.13873,1.43087,1.43087,0,0,0-1.69382-1.085,2.15232,2.15232,0,0,0-1.66189,1.64666,3.51752,3.51752,0,0,0,.06195,1.8321Z" fill="#ffe06a"/>
        <path d="M29.20145,46.26416a7.58311,7.58311,0,0,0-.85968-1.19586,1.37016,1.37016,0,0,0-.40812-.17218,2.52184,2.52184,0,0,1-.734-.41083l.15087-.21234c.83912.55048,1.71625.53345,2.0394.13953a.51863.51863,0,0,0-.17514-.74677.59354.59354,0,0,0-.78341.00317c-.12815.16291-.01423.37812.17706.58686a1.59074,1.59074,0,0,1-1.016-.32343.98442.98442,0,0,1,.509-.3183.53831.53831,0,0,0-.77728.11817.9707.9707,0,0,1-.10547-1.3852c.599-.762,1.26739-.68811,1.9873-.116a2.5548,2.5548,0,0,0-.90045-1.98841,1.43152,1.43152,0,0,0-2.00793.117,2.141,2.141,0,0,0-.3732,2.3111,3.51766,3.51766,0,0,0,1.12628,1.44641l-.121.17035a5.16084,5.16084,0,0,1-1.427-1.91382,2.62469,2.62469,0,0,0-.63467-.915,2.96709,2.96709,0,0,0-1.38532-.45392c-.54409-.07672-1.348-.19842-1.99118-.35126Z" fill="#ffe06a"/>
        <path d="M118.33926,9.16992c-.43219.50067-1.01135,1.0708-1.40539,1.45246a2.98562,2.98562,0,0,0-.85657,1.18359,2.5986,2.5986,0,0,0,.025,1.11035,5.15652,5.15652,0,0,1-.031,2.38806l-.19818-.06714a3.52047,3.52047,0,0,0,.06372-1.83233,2.14971,2.14971,0,0,0-1.66205-1.6482,1.43137,1.43137,0,0,0-1.69342,1.08515,2.55887,2.55887,0,0,0,.44006,2.13818c.24616-.88605.74335-1.33862,1.676-1.074a.97049.97049,0,0,1,.72888,1.17968.54437.54437,0,0,0-.69916.36414,1.02855,1.02855,0,0,1,.59961-.04456,1.59858,1.59858,0,0,1-.63293.86164c.03289-.281-.00171-.52222-.201-.57868a.59285.59285,0,0,0-.63489.458.51768.51768,0,0,0,.296.70685c.49225.129,1.21448-.37787,1.569-1.31348l.246.08338a2.505,2.505,0,0,1-.353.76336,1.386,1.386,0,0,0-.22907.379,7.57171,7.57171,0,0,0,.00775,1.47388Z" fill="#ffe06a"/>
        <path d="M37.01254,27.73761c-.63449.23791-1.39306.5224-2.1951.82312a16.72174,16.72174,0,0,0-2.39889,1.20221,6.2699,6.2699,0,0,0-3.22571,4.02,3.43364,3.43364,0,0,0,1.04935,3.5036,3.9288,3.9288,0,0,0,3.20019,1.23682,5.02,5.02,0,0,0,2.18473-.6659,5.31841,5.31841,0,0,0,2.31851-3.538,4.797,4.797,0,0,0-.24628-1.76129,2.12833,2.12833,0,0,1,.54416,1.37817,4.90725,4.90725,0,0,1-2.55063,4.4079,4.45616,4.45616,0,0,1-1.721.68475,5.05963,5.05963,0,0,1-3.80581-.83136,4.466,4.466,0,0,1-1.8097-4.902A7.81894,7.81894,0,0,1,31.514,28.79565a19.01249,19.01249,0,0,1,4.582-2.44915,25.471,25.471,0,0,1,3.68045-1.12433c.02112-.00531.62146-.15772,1.5209-.38593.89865-.2196,2.12625-.44854,3.334-.69421,2.42657-.49054,4.93912-.764,5.26309-.85895,1.28354-.23138,3.03772-.39758,4.65143-.83966a6.18422,6.18422,0,0,0,4.00165-2.57111,3.70216,3.70216,0,0,0,.386-3.60577c-.99765-2.87683-3.93823-2.7312-4.91653-2.53467A5.66084,5.66084,0,0,0,50.3775,16.6156a4.39956,4.39956,0,0,0-.23858,1.80341,1.97873,1.97873,0,0,1-.179-1.48041c.60022-2.10077,2.08435-3.12409,4.20032-3.69891a4.67791,4.67791,0,0,1,5.23648,2.22644,4.87565,4.87565,0,0,1-.2796,5.18316,7.61765,7.61765,0,0,1-3.95746,2.96759,26.90235,26.90235,0,0,1-4.564,1.17884c-1.44864.30932-2.52688.41375-3.58047.56884l-1.47452.26923c-.87186.1723-2.07309.37524-3.27.658-1.20535.30591-2.43106.61694-3.40094.8631C37.89685,27.4256,37.19751,27.67157,37.01254,27.73761Z" fill="#ffe06a"/>
        <path d="M98.27789,7.8689c.6521-.1709,1.42389-.4328,2.25919-.63019a20.24312,20.24312,0,0,1,2.64789-.43793,6.30426,6.30426,0,0,1,4.97528,1.35309,3.46091,3.46091,0,0,1,1.20727,3.459,3.8995,3.8995,0,0,1-1.86136,2.87482,5.106,5.106,0,0,1-2.1586.75043,5.36686,5.36686,0,0,1-3.95376-1.49591,4.80893,4.80893,0,0,1-.83865-1.56275,2.12481,2.12481,0,0,0,.37152,1.43128,4.6747,4.6747,0,0,0,2.05468,1.67425,5.876,5.876,0,0,0,2.59922.38422,4.5605,4.5605,0,0,0,1.794-.46045,5.02663,5.02663,0,0,0,2.59079-2.90472,4.47919,4.47919,0,0,0-1.41424-5.03675C105.65179,4.71875,101.035,5.41492,98.2009,6.2066a24.03917,24.03917,0,0,0-3.63828,1.24866l-1.45657.59924c-.42465.17731-.91992.384-1.45273.60645-.52447.24719-1.08591.51184-1.65173.77856-1.12213.54773-2.24134,1.05115-3.10926,1.52832-.86883.46961-1.49493.80866-1.65469.88184-.587.277-1.26523.6109-1.98709.97955a19.392,19.392,0,0,1-2.27313,1.0633c-1.57917.55053-3.18637.956-4.75428.24164A3.7045,3.7045,0,0,1,73.8,11.45557a3.74241,3.74241,0,0,1,.569-3.43531,5.29252,5.29252,0,0,1,1.92969-1.485,5.43376,5.43376,0,0,1,4.63638.1933c1.033.60986,1.19476,1.43133,1.24853,1.29821a1.9402,1.9402,0,0,0-.72277-1.29217,5.10946,5.10946,0,0,0-2.66352-1.0752,6.41048,6.41048,0,0,0-2.90408.55768,4.97129,4.97129,0,0,0-1.68881,1.08954,4.73407,4.73407,0,0,0-1.24521,3.79,4.80306,4.80306,0,0,0,3.25747,3.99585,7.64019,7.64019,0,0,0,4.95206.11078A15.58349,15.58349,0,0,0,83.494,14.3681c.74115-.29925,1.44055-.60254,2.06268-.88592,1.35242-.63806,2.28671-1.19385,3.23377-1.63623.017-.00836.55056-.27161,1.35159-.66675.407-.19757.882-.42816,1.39322-.67639.52026-.22211,1.07745-.46,1.63937-.69983A50.98657,50.98657,0,0,1,98.27789,7.8689Z" fill="#ffe06a"/>
        <path d="M119.62064,5.22314l.24267-.74749A91.53011,91.53011,0,0,0,17.50238,37.74719l.63544.46247A90.74428,90.74428,0,0,1,119.62064,5.22314Z" fill="#00478a"/>
        <path d="M119.25674,6.34406l.08094-.24939a89.828,89.828,0,0,0-100.459,32.65417l.212.1543A89.56582,89.56582,0,0,1,119.25674,6.34406Z" fill="#ffe06a"/>
        <path d="M114.196,21.9314l-.24279.7478A72.39128,72.39128,0,0,0,32.97714,49.00909l-.63568-.46264A73.17765,73.17765,0,0,1,114.196,21.9314Z" fill="#00478a"/>
        <path d="M114.55991,20.81055l-.081.24939A74.09368,74.09368,0,0,0,31.60059,48.00732l-.212-.15429a74.35592,74.35592,0,0,1,83.17133-27.04248Z" fill="#ffe06a"/>
        <path d="M32.89221,34.8454a.65544.65544,0,0,0,.94138.00488.67981.67981,0,0,0-.03617-.95447.647.647,0,0,0-.94058-.00512A.67053.67053,0,0,0,32.89221,34.8454Z" fill="#ffe06a"/>
        <path d="M54.24982,18.18738a.66064.66064,0,0,0,.89468.31158.677.677,0,0,0,.282-.91418.65176.65176,0,0,0-.89352-.31012A.66747.66747,0,0,0,54.24982,18.18738Z" fill="#ffe06a"/>
        <path d="M105.67828,11.175a.66732.66732,0,0,0-.53289-.79041.6486.6486,0,0,0-.75815.55982.677.677,0,0,0,.5339.791A.65678.65678,0,0,0,105.67828,11.175Z" fill="#ffe06a"/>
        <path d="M78.60406,10.261a.65036.65036,0,0,0-.76275-.55792.66869.66869,0,0,0-.5387.79028.65933.65933,0,0,0,.76343.55969A.67818.67818,0,0,0,78.60406,10.261Z" fill="#ffe06a"/>
      </g>
      <g>
        <path d="M166.837,91.56793h13.46521a97.33975,97.33975,0,0,0-1.08741-13.87445A90.851,90.851,0,0,0,175.963,64.14825a88.88122,88.88122,0,0,0-12.62011-24.73181A88.87431,88.87431,0,0,0,118.98911,7.17432l-4.15833,12.80706A75.33125,75.33125,0,0,1,166.837,91.56793Z" fill="#00478a"/>
        <path d="M156.53659,44.748a5.06253,5.06253,0,0,1,2.24872-.75873,2.62353,2.62353,0,0,0,1.06946-.32422,2.9743,2.9743,0,0,0,.85614-1.17841c.24548-.49652.61554-1.22784.9624-1.79693-.6438.1521-1.44751.274-1.9917.35058a2.95933,2.95933,0,0,0-1.38519.45069,2.6445,2.6445,0,0,0-.63556.91717,5.15746,5.15746,0,0,1-1.42768,1.9129l-.12164-.1712a3.5146,3.5146,0,0,0,1.12769-1.44513,2.13772,2.13772,0,0,0-.3722-2.31238,1.43232,1.43232,0,0,0-2.00793-.11706,2.55786,2.55786,0,0,0-.90173,1.98688c.72021-.57184,1.38922-.645,1.98883.11779a.97066.97066,0,0,1-.10755,1.38581.5354.5354,0,0,0-.77606-.11994.96183.96183,0,0,1,.50763.31989,1.5836,1.5836,0,0,1-1.01471.32184c.19141-.20856.30536-.42377.17706-.58686a.59408.59408,0,0,0-.78381-.00372.51834.51834,0,0,0-.17511.74677c.32367.39392,1.19763.41381,2.03815-.13794l.15124.21295a2.493,2.493,0,0,1-.73486.4096,1.38571,1.38571,0,0,0-.4082.17206,7.60216,7.60216,0,0,0-.85956,1.196,7.41093,7.41093,0,0,0,1.395-.44232,1.39447,1.39447,0,0,0,.29175-.33606,2.49581,2.49581,0,0,1,.618-.57416l.1513.21289c-.78418.62933-1.05194,1.4801-.75762,1.89349a.5354.5354,0,0,0,.77593.05628.5732.5732,0,0,0,.228-.73792c-.12054-.16943-.3631-.12628-.62152-.00744a1.56025,1.56025,0,0,1,.61731-.8639,1.03367,1.03367,0,0,1,.15442.57648.53079.53079,0,0,0,.11865-.77014,1.00233,1.00233,0,0,1,1.36847.31226c.57117.7843.26788,1.41552-.49365,1.921a2.49384,2.49384,0,0,0,2.15167-.23121,1.46964,1.46964,0,0,0,.53058-1.96331,2.18364,2.18364,0,0,0-2.11682-1.044,3.463,3.463,0,0,0-1.71393.62048Z" fill="#ffe06a"/>
        <path d="M115.39407,18.23907a7.42281,7.42281,0,0,0,.86676-1.17742,1.39031,1.39031,0,0,0,.03809-.44373,2.547,2.547,0,0,1,.16394-.82758l.24664.08356c-.264.97034.01789,1.81665.49994,1.97949a.5345.5345,0,0,0,.65973-.40985.57512.57512,0,0,0-.24957-.73218c-.19623-.06634-.3664.11121-.506.359a1.56294,1.56294,0,0,1-.00843-1.0625,1.0288,1.0288,0,0,1,.4632.37665.53127.53127,0,0,0-.35608-.69379,1.00088,1.00088,0,0,1,1.29126-.54937c.9212.30194,1.05255.97424.73041,1.83825a2.48386,2.48386,0,0,0,1.60339-1.449,1.47346,1.47346,0,0,0-.72119-1.90344,2.20821,2.20821,0,0,0-2.32843.404,3.457,3.457,0,0,0-1.02258,1.50812l-.19788-.067a5.06187,5.06187,0,0,1,1.37225-1.93451,2.61921,2.61921,0,0,0,.67463-.8902,2.99052,2.99052,0,0,0,.00177-1.45684c-.09394-.54676-.22492-1.35688-.27735-2.02112Z" fill="#ffe06a"/>
        <path d="M178.20346,91.5661c-.61877-.256-1.35351-.63043-1.84784-.88727a3.02467,3.02467,0,0,0-1.39215-.44934,2.60041,2.60041,0,0,0-1.05048.36621,5.0017,5.0017,0,0,1-2.2547.70758l-.00537-.20929a3.4242,3.4242,0,0,0,1.74378-.50488,2.18063,2.18063,0,0,0,1.07757-2.0896,1.414,1.414,0,0,0-1.54687-1.27722,2.58847,2.58847,0,0,0-1.902,1.07715c.91876-.03864,1.49847.29529,1.523,1.26471a.98521.98521,0,0,1-.90759,1.058.54066.54066,0,0,0-.55738-.55334,1.04722,1.04722,0,0,1,.22272.55719,1.58085,1.58085,0,0,1-1.01275-.33661c.27813-.05548.4981-.16291.49285-.37012a.58451.58451,0,0,0-.62573-.46338c-.33459.0091-.59479.194-.587.50025.013.509.73822,1.04,1.74334,1.08837l.00672.25989a2.53886,2.53886,0,0,1-.839-.1001,1.42189,1.42189,0,0,0-.43524-.10095,7.28979,7.28979,0,0,0-1.38129.463Z" fill="#ffe06a"/>
        <path d="M135.42941,19.93591a29.89981,29.89981,0,0,0-3.34143-3.75036c-1.41009-1.13874-3.03326-2.08808-4.83075-1.80988a3.45758,3.45758,0,0,0-3.00616,2.07263,4.28743,4.28743,0,0,0,1.12555,5.28321,5.15694,5.15694,0,0,0,4.07464,1.12317,4.62618,4.62618,0,0,0,1.58649-.7533,2.07909,2.07909,0,0,1-1.13666.92987,4.84338,4.84338,0,0,1-4.96588-1.08936,4.76474,4.76474,0,0,1-1.56683-5.30126,4.41578,4.41578,0,0,1,4.092-3.20679,7.88571,7.88571,0,0,1,5.26922,1.593,21.18932,21.18932,0,0,1,3.73865,3.61341c1.01007,1.26819,1.60395,2.23205,2.21027,3.14575l.81421,1.35864c.46917.81018,1.11706,1.83606,1.699,2.94062.57056,1.09075,1.15,2.19848,1.607,3.07226.426.88574.73761,1.53381.81335,1.69128.29614.56824.65021,1.24756,1.0246,1.96583a22.84569,22.84569,0,0,0,1.2088,2.19934,6.23,6.23,0,0,0,3.69708,2.99945,4.07878,4.07878,0,0,0,5.10089-3.846,5.31609,5.31609,0,0,0-.6795-2.33814,5.46533,5.46533,0,0,0-3.85645-2.57843,4.25512,4.25512,0,0,0-1.77069.30878,1.935,1.935,0,0,1,1.34363-.616,5.20308,5.20308,0,0,1,4.79791,2.86792,5.00935,5.00935,0,0,1,.71912,1.87567,4.7231,4.7231,0,0,1-1.22522,3.79389,4.80559,4.80559,0,0,1-4.98944,1.31073,7.6574,7.6574,0,0,1-4.06488-2.83228,18.9202,18.9202,0,0,1-1.38831-2.04333c-.428-.67249-.80334-1.34168-1.13775-1.93884-.67542-1.3208-1.16993-2.28772-1.64862-3.22388l-.68964-1.34662c-.41-.80609-1.02441-1.81537-1.6452-2.89069-.61365-1.08447-1.30677-2.13079-1.86939-2.96594C135.979,20.71228,135.5502,20.09009,135.42941,19.93591Z" fill="#ffe06a"/>
        <path d="M173.26169,72.08142a24.49716,24.49716,0,0,1,2.518,4.34461,6.22107,6.22107,0,0,1,.23053,5.15112,3.40181,3.40181,0,0,1-2.90173,2.20837,4.35445,4.35445,0,0,1-4.6911-2.71344,5.33388,5.33388,0,0,1-.30982-2.4577,4.82741,4.82741,0,0,1,.5235-1.76483c.56794-.99707,1.37262-1.2439,1.23914-1.27924a2.143,2.143,0,0,0-1.253.79358,5.19533,5.19533,0,0,0,4.01013,8.20349,4.447,4.447,0,0,0,4.34485-2.89013,7.75037,7.75037,0,0,0,.10827-5.4997,18.89954,18.89954,0,0,0-2.25872-4.68066,24.97268,24.97268,0,0,0-2.31391-3.07831c-.01373-.01648-.41-.49262-1.0039-1.20618-.58429-.71039-1.45606-1.6134-2.28748-2.52252-.82245-.91437-1.71985-1.795-2.42956-2.47729-.70264-.68549-1.20929-1.1792-1.326-1.30933-.87549-.95294-2.24012-2.09845-3.25965-3.41663a6.12236,6.12236,0,0,1-1.73193-4.43115,3.68452,3.68452,0,0,1,1.80048-3.14093c2.491-1.7384,4.81164.09192,5.46545.83893a5.57,5.57,0,0,1,1.25238,4.47058,4.37952,4.37952,0,0,1-.86291,1.59821,1.97082,1.97082,0,0,0,1.01251-1.09272c.7619-2.06109.14239-3.75012-1.22-5.46325A4.68443,4.68443,0,0,0,162.363,48.996a4.8595,4.8595,0,0,0-2.81159,4.354,7.54952,7.54952,0,0,0,1.46393,4.72564,26.90642,26.90642,0,0,0,2.98975,3.63861c.991,1.10065,1.81536,1.814,2.56506,2.56311.013.01368.4212.44178,1.03393,1.08448.60212.65234,1.468,1.51843,2.25678,2.45532.79578.95642,1.605,1.929,2.2453,2.69867C172.72952,71.30847,173.15182,71.91888,173.26169,72.08142Z" fill="#ffe06a"/>
        <path d="M182.353,91.566h.78589a100.136,100.136,0,0,0-1.12207-14.31458,93.67768,93.67768,0,0,0-3.35614-13.98053A91.71942,91.71942,0,0,0,165.636,37.7464,91.71266,91.71266,0,0,0,119.86514,4.47626l-.24267.74749a90.92661,90.92661,0,0,1,45.37811,32.98511,90.93472,90.93472,0,0,1,12.91254,25.30469,92.88681,92.88681,0,0,1,3.32733,13.85986A99.36459,99.36459,0,0,1,182.353,91.566Z" fill="#00478a"/>
        <path d="M181.17447,91.566h.26221a98.45141,98.45141,0,0,0-1.10138-14.05035,91.97294,91.97294,0,0,0-3.29364-13.71912,90.01571,90.01571,0,0,0-12.78192-25.04852A90.01,90.01,0,0,0,119.33951,6.09528l-.081.24939A89.74689,89.74689,0,0,1,164.0477,38.90234,89.7515,89.7515,0,0,1,176.79227,63.8775a91.71187,91.71187,0,0,1,3.284,13.6789A98.17833,98.17833,0,0,1,181.17447,91.566Z" fill="#ffe06a"/>
        <path d="M164.78616,91.56635,164,91.56641a72.49425,72.49425,0,0,0-50.04529-68.88672l.2428-.74774a73.28031,73.28031,0,0,1,50.58868,69.6344Z" fill="#00478a"/>
        <path d="M165.96463,91.56635h-.26221a74.19663,74.19663,0,0,0-51.222-70.50593l.08093-.24938a74.45882,74.45882,0,0,1,51.40326,70.75531Z" fill="#ffe06a"/>
        <path d="M127.39511,18.20721a.67586.67586,0,0,0,.27814.91193.65937.65937,0,0,0,.8894-.31384.66677.66677,0,0,0-.27771-.91126A.65057.65057,0,0,0,127.39511,18.20721Z" fill="#ffe06a"/>
        <path d="M149.82889,33.39459a.681.681,0,0,0-.03247.9588.65674.65674,0,0,0,.9447-.002.67152.67152,0,0,0,.03137-.95721A.64778.64778,0,0,0,149.82889,33.39459Z" fill="#ffe06a"/>
        <path d="M172.38943,80.13983a.67427.67427,0,0,0,.59449-.75043.65178.65178,0,0,0-.77466-.54834.67382.67382,0,0,0-.57983.74927A.6499.6499,0,0,0,172.38943,80.13983Z" fill="#ffe06a"/>
        <path d="M164.88309,54.11755a.66556.66556,0,0,0,.3045-.90435.65346.65346,0,0,0-.90723-.27228.675.675,0,0,0-.306.90558A.66241.66241,0,0,0,164.88309,54.11755Z" fill="#ffe06a"/>
      </g>
    </g>
  </g>
  <g id="tagline">
    <g id="text-box">
      <rect x="35.61124" y="40.92468" width="110" height="66.45831" fill="#29abe2"/>
    </g>
    <g id="tagline-2" data-name="tagline">
      <rect x="35.61124" y="110.09557" width="110" height="31.82911" fill="#29abe2"/>
    </g>
  </g>
  <g id="no-tagline">
    <rect id="text-box-2" data-name="text-box" x="37.06947" y="40.06791" width="109" height="103" fill="#d9e021"/>
  </g>
</svg>
