<svg xmlns="http://www.w3.org/2000/svg" viewBox="0 0 169.33479 169.33472">
  <title>shape</title>
  <g id="shape">
    <g>
      <g>
        <rect x="21.0981" y="104.37903" width="4.4331" height="39.42603" fill="#231f20"/>
        <path d="M18.8647,104.379v39.426H17.4614V124.43982c-2.9146,1.78125-4.2046,6.429-4.6958,8.7522h-.0762c-.2646-2.28528-1.4766-5.22876-4.0137-5.46045C4.7734,127.38318,5.039,132.65,5,135.32178c-.0752,3.52453.2285,6.97217,4.2812,7.32055.6816.07691,2.2329-.11523,2.2329-1.12414,0-.30957-.416-.61914-.7934-1.00647a2.492,2.492,0,0,1-.7959-1.85913,2.40269,2.40269,0,0,1,2.6142-2.40125,2.74215,2.74215,0,0,1,2.5752,2.867c0,3.63989-4.1655,4.68676-6.9326,4.68676-4.8867,0-8.1816-3.68078-8.1426-9.21814.0361-4.37719,2.6895-7.97753,6.9302-8.36584a8.03662,8.03662,0,0,1,3.9028.73682l1.7422-2.86658-1.7422-2.82764a8.01926,8.01926,0,0,1-3.9028.736C2.7285,121.61316.0751,117.9729,0,113.59558c0-5.49939,3.2949-9.21655,8.1816-9.21655,2.8037,0,6.9326,1.12329,6.9326,4.72473a2.77735,2.77735,0,0,1-2.5752,2.90442A2.43175,2.43175,0,0,1,9.9248,109.568a2.56413,2.56413,0,0,1,.7959-1.85913c.3774-.38745.7934-.6969.7934-1.04529,0-.92956-1.5893-1.16125-2.2329-1.16125-4.0527,0-4.3564,4.453-4.2812,7.59021.039,2.67175-.1504,7.74585,3.6757,7.39636,2.5371-.23157,3.7491-3.17493,4.0137-5.49939h.0762c.4912,2.44019,1.7422,6.89429,4.6958,8.79273V104.379Z" fill="#231f20"/>
      </g>
      <g>
        <rect x="21.0981" y="64.95361" width="4.4331" height="39.42603" fill="#231f20"/>
        <path d="M18.8647,64.95361v39.426H17.4614V85.01428c-2.9146,1.78125-4.2046,6.429-4.6958,8.75232h-.0762c-.2646-2.2854-1.4766-5.22876-4.0137-5.46045C4.7734,87.95776,5.039,93.22449,5,95.89624c-.0752,3.52454.2285,6.97217,4.2812,7.32068.6816.0769,2.2329-.11536,2.2329-1.12427,0-.30945-.416-.619-.7934-1.00647a2.49143,2.49143,0,0,1-.7959-1.859,2.40278,2.40278,0,0,1,2.6142-2.40136,2.74225,2.74225,0,0,1,2.5752,2.86706c0,3.63989-4.1655,4.68677-6.9326,4.68677-4.8867,0-8.1816-3.68079-8.1426-9.21814.0361-4.3772,2.6895-7.97754,6.9302-8.366a8.03814,8.03814,0,0,1,3.9028.73682l1.7422-2.86646L10.872,81.83826a8.01913,8.01913,0,0,1-3.9028.73584C2.7285,82.18762.0751,78.54736,0,74.17017c0-5.49939,3.2949-9.21656,8.1816-9.21656,2.8037,0,6.9326,1.12317,6.9326,4.72461a2.77727,2.77727,0,0,1-2.5752,2.90442,2.43174,2.43174,0,0,1-2.6142-2.44018,2.56455,2.56455,0,0,1,.7959-1.85913c.3774-.38733.7934-.69678.7934-1.04529,0-.92957-1.5893-1.16126-2.2329-1.16126-4.0527,0-4.3564,4.45313-4.2812,7.59021.039,2.67176-.1504,7.74585,3.6757,7.39649,2.5371-.23157,3.7491-3.175,4.0137-5.49952h.0762c.4912,2.44019,1.7422,6.89429,4.6958,8.79285V64.95361Z" fill="#231f20"/>
      </g>
      <g>
        <rect x="21.0981" y="25.52808" width="4.4331" height="39.42603" fill="#231f20"/>
        <path d="M18.8647,25.52808v39.426H17.4614V45.58887c-2.9146,1.78125-4.2046,6.429-4.6958,8.75232h-.0762c-.2646-2.2854-1.4766-5.22889-4.0137-5.46045C4.7734,48.53223,5.039,53.79907,5,56.47083c-.0752,3.52453.2285,6.97216,4.2812,7.32055.6816.07691,2.2329-.11523,2.2329-1.12414,0-.30957-.416-.61914-.7934-1.00647a2.49167,2.49167,0,0,1-.7959-1.859,2.40278,2.40278,0,0,1,2.6142-2.40137,2.74226,2.74226,0,0,1,2.5752,2.86707c0,3.63977-4.1655,4.68664-6.9326,4.68664C3.2949,64.9541,0,61.27332.039,55.736c.0361-4.3772,2.6895-7.97742,6.9302-8.36584a8.0366,8.0366,0,0,1,3.9028.73681l1.7422-2.86657L10.872,42.41272a8.01926,8.01926,0,0,1-3.9028.736C2.7285,42.76221.0751,39.122,0,34.74475c0-5.49951,3.2949-9.21667,8.1816-9.21667,2.8037,0,6.9326,1.12329,6.9326,4.72473a2.77727,2.77727,0,0,1-2.5752,2.90442A2.43175,2.43175,0,0,1,9.9248,30.717a2.56457,2.56457,0,0,1,.7959-1.85913c.3774-.38745.7934-.6969.7934-1.04529,0-.92956-1.5893-1.16125-2.2329-1.16125-4.0527,0-4.3564,4.45312-4.2812,7.59021.039,2.67175-.1504,7.74585,3.6757,7.39636,2.5371-.23157,3.7491-3.17493,4.0137-5.49939h.0762c.4912,2.44019,1.7422,6.89429,4.6958,8.79285V25.52808Z" fill="#231f20"/>
      </g>
      <g>
        <rect x="25.52971" y="21.09802" width="39.42598" height="4.43311" fill="#231f20"/>
        <path d="M64.95569,18.86462h-39.426V17.4613H44.895c-1.78123-2.91455-6.429-4.20459-8.7523-4.6958v-.07617c2.28538-.26453,5.22879-1.47656,5.46046-4.01367C41.95158,4.77332,36.68476,5.03894,34.013,5c-3.52454-.0752-6.9722.22852-7.32063,4.28113-.07688.68164.11533,2.23291,1.12424,2.23291.30948,0,.61906-.416,1.00645-.79334a2.49162,2.49162,0,0,1,1.859-.7959,2.40273,2.40273,0,0,1,2.40132,2.61414,2.74224,2.74224,0,0,1-2.867,2.5752c-3.63987,0-4.68671-4.16553-4.68671-6.93262C25.52971,3.2948,29.21047,0,34.74782.03894c4.37722.03613,7.97751,2.68958,8.36593,6.93018A8.03765,8.03765,0,0,1,42.3769,10.872l2.86652,1.74219L48.07108,10.872a8.01923,8.01923,0,0,1-.73593-3.90283c.38648-4.2406,4.02674-6.894,8.404-6.96912,5.49941,0,9.21657,3.2948,9.21657,8.18152,0,2.80371-1.12322,6.93262-4.72463,6.93262a2.77733,2.77733,0,0,1-2.90445-2.5752A2.43173,2.43173,0,0,1,59.76678,9.9248a2.56443,2.56443,0,0,1,1.85914.7959c.38739.37732.69687.79334,1.04531.79334.92957,0,1.16124-1.58924,1.16124-2.23291,0-4.05261-4.45308-4.35633-7.59023-4.28113-2.67174.03894-7.74584-.15039-7.39638,3.67566.23157,2.53711,3.175,3.74914,5.49942,4.01367v.07617c-2.44018.49121-6.89428,1.74231-8.79279,4.6958h19.4032Z" fill="#231f20"/>
      </g>
      <g>
        <rect x="64.95518" y="21.09802" width="39.42597" height="4.43311" fill="#231f20"/>
        <path d="M104.38115,18.86462h-39.426V17.4613H84.32045c-1.78123-2.91455-6.429-4.20459-8.7523-4.6958v-.07617c2.28538-.26453,5.22879-1.47656,5.46046-4.01367C81.377,4.77332,76.11023,5.03894,73.43848,5c-3.52454-.0752-6.97219.22852-7.32062,4.28113-.07689.68164.11532,2.23291,1.12424,2.23291.30947,0,.61906-.416,1.00645-.79334a2.4916,2.4916,0,0,1,1.859-.7959,2.40274,2.40274,0,0,1,2.40132,2.61414,2.74224,2.74224,0,0,1-2.867,2.5752c-3.63986,0-4.6867-4.16553-4.6867-6.93262C64.95518,3.2948,68.63594,0,74.17329.03894c4.37722.03613,7.97751,2.68958,8.36593,6.93018a8.03777,8.03777,0,0,1-.73685,3.90283l2.86651,1.74219L87.49655,10.872a8.019,8.019,0,0,1-.73593-3.90283c.38647-4.2406,4.02675-6.894,8.404-6.96912,5.49942,0,9.21657,3.2948,9.21657,8.18152,0,2.80371-1.12322,6.93262-4.72463,6.93262a2.77733,2.77733,0,0,1-2.90444-2.5752A2.43172,2.43172,0,0,1,99.19225,9.9248a2.56443,2.56443,0,0,1,1.85914.7959c.38739.37732.69687.79334,1.0453.79334.92957,0,1.16124-1.58924,1.16124-2.23291,0-4.05261-4.45307-4.35633-7.59022-4.28113-2.67175.03894-7.74583-.15039-7.39638,3.67566.23157,2.53711,3.175,3.74914,5.49941,4.01367v.07617c-2.44017.49121-6.89428,1.74231-8.79278,4.6958h19.40319Z" fill="#231f20"/>
      </g>
      <g>
        <rect x="104.38065" y="21.09802" width="39.42598" height="4.43311" fill="#231f20"/>
        <path d="M143.80663,18.86462h-39.426V17.4613h19.36526c-1.78123-2.91455-6.429-4.20459-8.75229-4.6958v-.07617c2.28537-.26453,5.22878-1.47656,5.46045-4.01367C120.80251,4.77332,115.53569,5.03894,112.864,5c-3.52453-.0752-6.9722.22852-7.32063,4.28113-.07687.68164.11533,2.23291,1.12424,2.23291.30948,0,.61906-.416,1.00645-.79334a2.49162,2.49162,0,0,1,1.859-.7959,2.40273,2.40273,0,0,1,2.40132,2.61414,2.74224,2.74224,0,0,1-2.867,2.5752c-3.63986,0-4.6867-4.16553-4.6867-6.93262,0-4.88672,3.68075-8.18152,9.2181-8.14258,4.37722.03613,7.97751,2.68958,8.36593,6.93018a8.03753,8.03753,0,0,1-.73685,3.90283l2.86652,1.74219L126.922,10.872a8.01935,8.01935,0,0,1-.73593-3.90283c.38648-4.2406,4.02675-6.894,8.404-6.96912,5.4994,0,9.21657,3.2948,9.21657,8.18152,0,2.80371-1.12322,6.93262-4.72464,6.93262a2.77733,2.77733,0,0,1-2.90445-2.5752,2.43173,2.43173,0,0,1,2.44017-2.61414,2.56443,2.56443,0,0,1,1.85914.7959c.38739.37732.69687.79334,1.04531.79334.92958,0,1.16125-1.58924,1.16125-2.23291,0-4.05261-4.45308-4.35633-7.59024-4.28113-2.67174.03894-7.74583-.15039-7.39638,3.67566.23159,2.53711,3.175,3.74914,5.49942,4.01367v.07617c-2.44018.49121-6.89428,1.74231-8.79278,4.6958h19.4032Z" fill="#231f20"/>
      </g>
      <g>
        <rect x="143.8036" y="25.52966" width="4.43309" height="39.42603" fill="#231f20"/>
        <path d="M150.47009,64.95569v-39.426h1.40331V44.8949c2.91459-1.78125,4.2046-6.429,4.6958-8.7522h.0762c.2646,2.28528,1.47659,5.22876,4.0137,5.46045,3.9023.34839,3.63671-4.91846,3.67569-7.59021.07521-3.52454-.2285-6.97217-4.28119-7.32056-.68161-.0769-2.23291.11524-2.23291,1.12415,0,.30957.416.61914.79342,1.00647a2.492,2.492,0,0,1,.79589,1.85913,2.40268,2.40268,0,0,1-2.61419,2.40124,2.74214,2.74214,0,0,1-2.57521-2.86694c0-3.63989,4.16549-4.68677,6.9326-4.68677,4.8867,0,8.18159,3.68079,8.14261,9.21814-.03611,4.3772-2.68952,7.97754-6.93021,8.36585a8.03672,8.03672,0,0,1-3.9028-.73682l-1.7422,2.86658,1.7422,2.82763a8.01935,8.01935,0,0,1,3.9028-.736c4.24069.38648,6.8941,4.02674,6.96919,8.40406,0,5.49939-3.29489,9.21655-8.18159,9.21655-2.8037,0-6.9326-1.12329-6.9326-4.72473a2.77735,2.77735,0,0,1,2.57521-2.90442A2.43174,2.43174,0,0,1,159.41,59.76672a2.56415,2.56415,0,0,1-.79589,1.85913c-.37742.38746-.79342.6969-.79342,1.04529,0,.92957,1.58931,1.16126,2.23291,1.16126,4.05269,0,4.3564-4.453,4.28119-7.59021-.039-2.67176.15041-7.74585-3.67569-7.39636-2.53711.23156-3.7491,3.17492-4.0137,5.49938h-.0762c-.4912-2.44018-1.7422-6.89428-4.6958-8.79272v19.4032Z" fill="#231f20"/>
      </g>
      <g>
        <rect x="143.8036" y="64.95508" width="4.43309" height="39.42603" fill="#231f20"/>
        <path d="M150.47009,104.3811v-39.426h1.40331V84.32043c2.91459-1.78125,4.2046-6.429,4.6958-8.75231h.0762c.2646,2.2854,1.47659,5.22876,4.0137,5.46044,3.9023.34839,3.63671-4.91833,3.67569-7.59008.07521-3.52454-.2285-6.97217-4.28119-7.32068-.68161-.07691-2.23291.11535-2.23291,1.12427,0,.30944.416.619.79342,1.00647a2.49145,2.49145,0,0,1,.79589,1.859,2.40278,2.40278,0,0,1-2.61419,2.40137,2.74225,2.74225,0,0,1-2.57521-2.86706c0-3.6399,4.16549-4.68677,6.9326-4.68677,4.8867,0,8.18159,3.68078,8.14261,9.21814-.03611,4.3772-2.68952,7.97754-6.93021,8.366a8.038,8.038,0,0,1-3.9028-.73681l-1.7422,2.86645,1.7422,2.82764a8.019,8.019,0,0,1,3.9028-.73584c4.24069.38647,6.8941,4.02673,6.96919,8.40393,0,5.49939-3.29489,9.21655-8.18159,9.21655-2.8037,0-6.9326-1.12317-6.9326-4.72461a2.77726,2.77726,0,0,1,2.57521-2.90441A2.43174,2.43174,0,0,1,159.41,99.19226a2.56458,2.56458,0,0,1-.79589,1.85913c-.37742.38733-.79342.69678-.79342,1.04529,0,.92957,1.58931,1.16125,2.23291,1.16125,4.05269,0,4.3564-4.45312,4.28119-7.59021-.039-2.67175.15041-7.74584-3.67569-7.39648-2.53711.23157-3.7491,3.175-4.0137,5.49951h-.0762c-.4912-2.44018-1.7422-6.89429-4.6958-8.79284V104.3811Z" fill="#231f20"/>
      </g>
      <g>
        <rect x="143.8036" y="104.38062" width="4.43309" height="39.42603" fill="#231f20"/>
        <path d="M150.47009,143.80664v-39.426h1.40331v19.36523c2.91459-1.78125,4.2046-6.429,4.6958-8.75232h.0762c.2646,2.2854,1.47659,5.22888,4.0137,5.46045,3.9023.34851,3.63671-4.91834,3.67569-7.59009.07521-3.52453-.2285-6.97217-4.28119-7.32056-.68161-.0769-2.23291.11524-2.23291,1.12415,0,.30957.416.61914.79342,1.00647a2.49168,2.49168,0,0,1,.79589,1.859,2.40278,2.40278,0,0,1-2.61419,2.40137,2.74226,2.74226,0,0,1-2.57521-2.86707c0-3.63977,4.16549-4.68664,6.9326-4.68664,4.8867,0,8.18159,3.68078,8.14261,9.21813-.03611,4.3772-2.68952,7.97742-6.93021,8.36585a8.03672,8.03672,0,0,1-3.9028-.73682l-1.7422,2.86658,1.7422,2.82764a8.01924,8.01924,0,0,1,3.9028-.736c4.24069.38647,6.8941,4.02673,6.96919,8.40393,0,5.49951-3.29489,9.21667-8.18159,9.21667-2.8037,0-6.9326-1.12329-6.9326-4.72473a2.77727,2.77727,0,0,1,2.57521-2.90442,2.43175,2.43175,0,0,1,2.61419,2.44019,2.5646,2.5646,0,0,1-.79589,1.85913c-.37742.38745-.79342.6969-.79342,1.04528,0,.92957,1.58931,1.16126,2.23291,1.16126,4.05269,0,4.3564-4.45313,4.28119-7.59021-.039-2.67175.15041-7.74585-3.67569-7.39636-2.53711.23156-3.7491,3.17492-4.0137,5.49939h-.0762c-.4912-2.44019-1.7422-6.89429-4.6958-8.79285v19.40332Z" fill="#231f20"/>
      </g>
      <g>
        <rect x="104.3791" y="143.80359" width="39.42598" height="4.43311" fill="#231f20"/>
        <path d="M104.3791,150.47009h39.426v1.40332H124.43982c1.78123,2.91455,6.429,4.20459,8.7523,4.6958v.07618c-2.28538.26452-5.22879,1.47656-5.46046,4.01367-.34844,3.90234,4.91838,3.63672,7.59013,3.67566,3.52454.07519,6.97219-.22852,7.32062-4.28113.07689-.68164-.11533-2.23291-1.12424-2.23291-.30948,0-.61906.416-1.00645.79333a2.49159,2.49159,0,0,1-1.859.7959,2.40273,2.40273,0,0,1-2.40132-2.61413,2.74223,2.74223,0,0,1,2.867-2.5752c3.63988,0,4.6867,4.16553,4.6867,6.93262,0,4.88672-3.68075,8.18152-9.21809,8.14258-4.37723-.03614-7.97752-2.68958-8.36594-6.93018a8.03749,8.03749,0,0,1,.73685-3.90283l-2.86652-1.74219-2.82766,1.74219a8.01907,8.01907,0,0,1,.73593,3.90283c-.38648,4.2406-4.02675,6.894-8.404,6.96912-5.49942,0-9.21659-3.2948-9.21659-8.18152,0-2.80371,1.12322-6.93262,4.72464-6.93262a2.77733,2.77733,0,0,1,2.90445,2.5752,2.43172,2.43172,0,0,1-2.44017,2.61413,2.56439,2.56439,0,0,1-1.85914-.7959c-.38739-.37732-.69687-.79333-1.04531-.79333-.92956,0-1.16125,1.58923-1.16125,2.23291,0,4.05261,4.45309,4.35632,7.59024,4.28113,2.67175-.03894,7.74583.15039,7.39638-3.67566-.23157-2.53711-3.175-3.74915-5.49941-4.01367v-.07618c2.44017-.49121,6.89427-1.74231,8.79279-4.6958H104.3791Z" fill="#231f20"/>
      </g>
      <g>
        <rect x="64.95364" y="143.80359" width="39.42598" height="4.43311" fill="#231f20"/>
        <path d="M64.95364,150.47009h39.426v1.40332H85.01435c1.78124,2.91455,6.429,4.20459,8.7523,4.6958v.07618c-2.28539.26452-5.22878,1.47656-5.46047,4.01367-.34843,3.90234,4.9184,3.63672,7.59014,3.67566,3.52453.07519,6.9722-.22852,7.32063-4.28113.07687-.68164-.11533-2.23291-1.12424-2.23291-.30949,0-.61906.416-1.00645.79333a2.4916,2.4916,0,0,1-1.859.7959,2.40272,2.40272,0,0,1-2.40132-2.61413,2.74223,2.74223,0,0,1,2.867-2.5752c3.63986,0,4.6867,4.16553,4.6867,6.93262,0,4.88672-3.68075,8.18152-9.21811,8.14258-4.37721-.03614-7.97751-2.68958-8.36592-6.93018a8.03749,8.03749,0,0,1,.73685-3.90283l-2.86652-1.74219-2.82767,1.74219a8.019,8.019,0,0,1,.73593,3.90283c-.38647,4.2406-4.02674,6.894-8.404,6.96912-5.49941,0-9.21657-3.2948-9.21657-8.18152,0-2.80371,1.12322-6.93262,4.72464-6.93262a2.77733,2.77733,0,0,1,2.90445,2.5752,2.43172,2.43172,0,0,1-2.44017,2.61413,2.56442,2.56442,0,0,1-1.85915-.7959c-.38738-.37732-.69687-.79333-1.0453-.79333-.92958,0-1.16125,1.58923-1.16125,2.23291,0,4.05261,4.45309,4.35632,7.59023,4.28113,2.67175-.03894,7.74584.15039,7.39639-3.67566-.23158-2.53711-3.175-3.74915-5.49942-4.01367v-.07618c2.44017-.49121,6.89428-1.74231,8.79278-4.6958H64.95364Z" fill="#231f20"/>
      </g>
      <g>
        <rect x="25.52818" y="143.80359" width="39.42598" height="4.43311" fill="#231f20"/>
        <path d="M25.52818,150.47009h39.426v1.40332H45.58889c1.78123,2.91455,6.429,4.20459,8.7523,4.6958v.07618c-2.28539.26452-5.22879,1.47656-5.46047,4.01367-.34843,3.90234,4.91838,3.63672,7.59014,3.67566,3.52453.07519,6.97218-.22852,7.32061-4.28113.07689-.68164-.11532-2.23291-1.12423-2.23291-.30948,0-.61907.416-1.00646.79333a2.49155,2.49155,0,0,1-1.859.7959,2.40274,2.40274,0,0,1-2.40132-2.61413,2.74224,2.74224,0,0,1,2.867-2.5752c3.63987,0,4.6867,4.16553,4.6867,6.93262,0,4.88672-3.68075,8.18152-9.2181,8.14258-4.37722-.03614-7.97752-2.68958-8.36593-6.93018a8.03759,8.03759,0,0,1,.73684-3.90283l-2.86651-1.74219-2.82766,1.74219a8.01894,8.01894,0,0,1,.73592,3.90283c-.38646,4.2406-4.02674,6.894-8.404,6.96912-5.49941,0-9.21657-3.2948-9.21657-8.18152,0-2.80371,1.12321-6.93262,4.72464-6.93262a2.77733,2.77733,0,0,1,2.90444,2.5752,2.43172,2.43172,0,0,1-2.44017,2.61413,2.56439,2.56439,0,0,1-1.85914-.7959c-.38739-.37732-.69688-.79333-1.04531-.79333-.92957,0-1.16125,1.58923-1.16125,2.23291,0,4.05261,4.45309,4.35632,7.59023,4.28113,2.67175-.03894,7.74584.15039,7.39639-3.67566-.23158-2.53711-3.175-3.74915-5.49941-4.01367v-.07618c2.44017-.49121,6.89428-1.74231,8.79278-4.6958H25.52818Z" fill="#231f20"/>
      </g>
      <g>
        <path d="M20.14735,10.24182l-.041-.0415-.27412.20642-.29195.199-.30747.1886-.32063.17542-.33146.15905-.33995.13977-.3461.11768-.17462.04956-.17529.04285-.17565.03589-.17572.02856-.17551.02063-.175.01257-.1742.00415-.1731-.00476-.17171-.01416-.17-.02356-.16807-.03369-.1658-.04394-.16325-.05481-.1604-.0658-.15725-.07727-.15382-.08911-.1501-.10132-.14608-.11389-.10466-.09119-.09723-.09228-.08995-.09326-.08283-.09412-.07586-.09509-.069-.09583-.06236-.09668-.05585-.09729-.04947-.09814-.04326-.09876-.03719-.09936-.03127-.09986-.0255-.10046-.0199-.10095-.01443-.10132-.00912-.10181-.004-.10217.00105-.10242.0059-.10266.01061-.1029.03474-.20642.05176-.20667.06755-.20666.08216-.20642.09554-.20582.10771-.20471.11868-.20337.12844-.20166.137-.1997.14433-.19715.30585-.38586.3207-.37219q.16489-.17982.32588-.35559l.32138-.33619c.21156-.2163.41115-.42016.5906-.60363l.322-.33142.34187-.33594.35986-.33338.376-.32312.3903-.30578.19994-.144.20282-.137.20546-.1289.20789-.12.21007-.11.212-.09936.21375-.08765L20.3243,2.368l.21651-.0614.21754-.047.21835-.03173.21891-.01526.21925.00183.21935.02.10964.01709.10959.022.1095.027.10938.0321.10923.03723.109.04261.10886.04809.10862.05359.10835.05933.10806.06506.10775.071.1074.077.21362.17261.21189.19812.1491.16186.16728.20935.08436.11841.08158.12512.07634.13038.06869.13366.05858.1355.046.1355.01755.06726.0135.06653.00913.06579.00448.0647-.0005.06348-.00576.062-.01136.0603-.01722.05835-.02343.05628-.02991.05407-.03672.05139-.04382.04871-.03767.03284-.04233.02734-.0467.02234-.05081.0177-.05465.01367-.0582.01013-.12595.01111-.28247-.00085-.30852-.00684-.17636.0055-.18087.01818-.18386.03406-.09258.02393-.09274.02893-.09273.0343-.09252.04016-.09212.04627-.09153.05273-.09075.05969-.08978.067-.08861.07458-.08725.08252-.07587.07972-.0699.08129-.064.083L21.246,6.0498l-.05251.08582-.04689.08691-.04133.08814-.03586.08911-.03047.09-.02516.09057-.01994.09119-.01478.09167-.00972.092-.00474.09217.00017.09228.005.09229.00973.092.01439.0918.019.0913.02346.0907.02788.09009.03221.08936.07711.17553.09346.17078.10918.165.12425.1582.13866.15039.07861.0741.0816.06836.0844.06286.087.05738.08939.05188.09158.04651.09359.04113.09538.03589.097.03064.09837.02539.09956.02027.10056.01526.10136.01025.10195.00513.10235.00036.10254-.00451.10254-.0094.10234-.014.10193-.0188.10132-.02344.10052-.02807.09952-.03247.09831-.03711.09691-.04139.0953-.04577.0935-.05017.09149-.05432.0893-.0586.08688-.06274L24.4884,8.495l.08148-.07093.07847-.07483.17275-.186.15213-.19129.1322-.19592.113-.20019.09441-.204.07653-.20752.05936-.21057.04287-.21314.02708-.21533.012-.21716-.00245-.21839L25.512,5.87036l-.02924-.21985-.04159-.22-.05325-.2196-.06423-.219-.07453-.21765L25.165,4.55823l-.093-.21411-.10125-.21167-.10878-.20887L24.74631,3.718l-.249-.39966-.26815-.38147-.28173-.36-.28984-.3352-.29241-.307-.2576-.24585L22.84366,1.46l-.26981-.21191L22.29848,1.053,22.01792.875,21.73253.71387,21.44269.5697,21.14875.44226,20.85108.33179l-.301-.09363L20.246.16125,19.93937.1012,19.63045.058,19.31963.03149,19.00728.02173l-.31352.007-.31432.02356-.31475.0404-.31483.057-.31453.07361-.31386.09021-.31284.10693-.31145.12341-.30968.14-.30756.15649-.30507.1731-.30222.1897-.299.20605-.2954.22253-.29144.239-.28713.25549-.28244.27185-.21351.22962-.20263.23523-.1916.24072-.18042.2456-.1691.25037-.15761.25452-.146.25854-.13421.26209-.12229.26538-.11021.26831-.098.27075-.0856.27295-.07308.2749-.0604.27625-.04757.27746-.0346.2782-.02147.27869-.0082.27881.00523.27844.01881.278.03253.27686.04641.27563.06043.27393.07461.27185.08893.26953.10341.26685.118.26379.13281.26025.14773.25659.16281.25245.178.24792.1934.24317.1096.12878.11608.12646.12261.12391.12921.12158.13588.11914.14261.1167.30566.226q.163.10546.33336.21594l.36156.20593q.19047.0954.3903.19568.20462.09047.41953.18555l-.5693,2.50391-2.5245.5874-.18621-.41846-.19609-.38965L12.0083,14.519l-.2158-.33337-.22564-.30591-.11652-.1427-.119-.136-.12143-.12927-.12388-.12268-.12633-.116-.12879-.10949-.24311-.19361L10.34,12.75183l-.25215-.16308-.25615-.1482-.25982-.13318-.26312-.11865-.26608-.10388-.26871-.0896L8.503,11.92l-.2729-.061-.27448-.047-.27572-.0332-.27661-.01929-.27715-.00586-.27734.00769-.2772.021-.27669.0343-.27586.04724-.27466.06018-.27313.07288L5.2,12.08252l-.269.09814-.26645.11048L4.401,12.4137l-.26027.13476-.25665.14661-.2527.15845-.2484.17016-.24375.18164-.23875.193-.23341.20422-.22773.21545-.27552.28235-.25876.287-.242.29114-.22522.29492-.20844.29858-.19167.30164-.17489.30432-.1581.30688-.14131.30884-.12451.31067-.10772.31189-.09092.313-.07411.3136-.05731.31384-.04049.31372-.02368.31336-.00686.3125.01.3114.02679.30993.04363.308.06046.30578.0773.30323.09414.30017.111.297.12784.29334.14469.28931.16155.28491.17842.28015.19527.27515.21215.26965.229.26391.24589.2577.30307.2893.33131.28845q.17555.1388.35626.28186l.3779.26941.39626.25147.204.11706.20734.11036.21027.103.2128.09485.21491.08606.21662.07642.21791.06616.21879.05517.21926.04346.21931.03089.219.01782.21819.0039.217-.01074.21542-.02612.21341-.04212.211-.05883.20816-.07642.20493-.0946.20127-.11365.19721-.13318.19273-.15356.18784-.17469.075-.07849.07087-.0813.06671-.084.06249-.08655.05823-.08887.05393-.09082.04957-.09289L8.83,23.95007l.04073-.09607.03624-.09741L8.9387,23.658l.02712-.09949.0225-.10034.01781-.10083.01311-.10132.00834-.10144.00352-.10144-.00133-.10132L9.02354,22.851l-.01119-.10034-.01618-.09949L8.975,22.55261l-.02631-.09741-.03143-.09607-.03662-.09448-.04184-.09277-.04711-.091-.05242-.08874-.05779-.08643-.0632-.08386-.06864-.0813-.07415-.07837-.15-.13891-.15738-.125L8.00426,21.288l-.16935-.095-.1739-.07885-.1775-.062-.0898-.02453-.09034-.02-.09076-.0155-.09106-.01075-.09124-.0061L6.939,20.974l-.09124.00366-.09108.00879-.09077.01379-.09036.01905-.08982.02429-.08917.02966-.08839.035-.0875.04077-.08648.04626-.08535.05213-.0841.05786L5.882,21.369l-.08124.06982-.07962.07593-.0863.09094-.07736.09131-.0689.09168-.0609.09192-.05335.092-.04628.092-.03967.09192-.03353.09179L5.227,22.34l-.02262.09118-.03145.181-.01614.17847-.00456.17529.01063.58887-.00848.124-.00829.05677-.01158.05285-.01529.04871-.01944.04407-.024.0393-.029.03418-.05238.04749-.05466.04016-.05675.033-.05864.02636-.06034.0199-.06184.01367-.06316.00794-.06428.00244-.06521-.00293-.06594-.00781-.06649-.01233-.06684-.01685-.134-.04529-.133-.059-.13058-.07031-.12657-.07922-.121-.08557-.11394-.08972-.1053-.09143-.09513-.09058-.0834-.0874-.07015-.08191-.18234-.22754-.16091-.22534-.14013-.223-.12-.2207L2.49327,22.21l-.08165-.21643-.06345-.21448-.04589-.2124-.029-.21033-.0127-.20837.00293-.20654.0179-.20459.03225-.20288.04594-.20093.059-.19934L2.49,19.93616l.08316-.19593.09428-.19421.10475-.19275.11458-.19116.12376-.1897.1323-.18823.28765-.37231.31408-.36707.33535-.36218.35148-.35755.36244-.35327.60683-.59631.69987-.663.37758-.331.39217-.31726.20064-.15027.2032-.14307.2054-.1344.20724-.12463.2087-.11365L8.1053,14.297l.21057-.08753.211-.07275.211-.05652.21064-.03906.10509-.01258.10487-.00769.1046-.0028.10429.00232.10394.00769.10354.01318.10309.0188.1026.02466.10206.03051.10149.03663.10085.043.10019.04932.09947.05591.0987.06274.0979.06946.097.07666.09615.08386.09521.09131.09422.09876.09318.10644.11389.14612.10132.15015.08913.15393.0773.15735.06586.1604.05478.1632.04408.16578.03375.168.0238.16993.01423.17163.005.173-.00381.17395-.01227.17468-.02035.17517-.02807.1753-.0354.17517-.04236.1748-.04895.17395-.11617.34473-.138.33813-.15692.32923-.1728.31811-.18569.30445-.19561.28857-.20251.27014.0415.042c.18982-.11768.40351-.25013.63546-.3938l.36718-.21326.3958-.218q.20595-.10675.42119-.21838.21795-.10546.4433-.21436l.46217-.20556.4778-.19251.49016-.1748.49927-.15259.252-.06665.25309-.05933.25375-.05163.254-.04322.25383-.0343.25326-.0249.25229-.01477.25091-.00415.24913.007.24692.0188.24433.031.24132.04382.002,7.58545h1.4013V18.86194h6.6651V17.45959h-7.5801l-.041-.24792-.02879-.24988-.017-.25134-.00584-.25269.00486-.25354.015-.25415L17.9,15.69568l.03385-.25427.04249-.25391.0506-.253.0582-.25208.06528-.25049.14974-.49548.17186-.48559.18985-.47315.20371-.45788.21343-.44007.219-.41955.22047-.39612.2178-.37036C19.88434,10.65906,20.02236,10.44006,20.14735,10.24182Z" fill="#231f20"/>
        <rect x="21.09655" y="21.09729" width="4.4317" height="4.43213" fill="#231f20"/>
        <path d="M11.67375,1.11l-.15-.14307-.164-.1427L11.18346.68494l-.187-.1333L10.8003.42749,10.59671.31506l-.2094-.09777L10.17371.137,10.06585.10437,9.95755.077,9.849.05566,9.74046.04041,9.63207.03162l-.108-.002L9.41664.03491,9.31.04785,9.20435.0686,9.0999.09766,8.99684.13538,8.89538.18213l-.09965.056L8.69809.304l-.09543.0758-.093.08618-.0721.079L8.37368.62927l-.05544.089L8.2714.811,8.23335.90686l-.02908.098-.01993.09973L8.17375,1.205l-.00107.10046.00864.09961.01852.09814.02859.096.03884.09277.04928.089.0599.08448.0707.0791.07416.06885.07784.06176.08106.05469.08379.04688.08607.03906.08785.03064.08917.02185.09.01294.09037.00354.09027-.00623.08968-.01623.08863-.02674L9.56314,2.198l.08508-.04871.08259-.06006.07964-.072.08075-.09009.064-.09082.0491-.09094.036-.09094.02482-.09046.01544-.08959.00792-.08851.00223-.08691L10.0856,1.0083l.00426-.06164L10.09978.892,10.1074.8678l.00967-.0221.012-.01953.01443-.017L10.1694.78564l.02706-.01989.02809-.01648.029-.01306.02984-.00989L10.314.71948l.03123-.0039L10.377.71436l.06483.00524L10.50775.734,10.574.75647l.06578.02917.06458.03492.06262.0393L10.88332.947l.09952.09058.07661.08459.09027.11255.07965.11145.06937.11035.05941.10926.04976.10815.04043.10718.03141.10608.02273.1051.01435.10413.00629.10314-.00144.10218-.00886.10119-.016.10047-.02275.09936-.0292.09864-.03535.09777-.04117.09693-.04668.09619-.1086.18994-.12681.18689-.14246.1842-.15556.18152-.16612.17908-.35371.35132-.30007.29541c-.11008.10437-.22688.21521-.3462.32825l-.1868.16394-.194.1571L9.0415,5.3551l-.2042.1283L8.734,5.53955l-.10384.05L8.526,5.63293l-.10441.03589-.10443.028-.10426.01928-.10392.01-.1034.00013-.1027-.01038L7.801,5.69434,7.70027,5.661l-.09952-.04578-.0981-.05883L7.40615,5.484l-.09473-.08679-.09277-.10169L7.1624,5.22327l-.05-.07422-.044-.076-.03819-.07776-.03252-.07935-.02707-.08081-.02177-.08191L6.93211,4.67l-.01176-.0841-.007-.085-.00248-.08557.0019-.08606.01612-.17322.03138-.17359.04514-.17273.05743-.17065.06825-.16748.07759-.16309.08546-.15747L7.386,3.00037l.09677-.14283L7.583,2.72375l-.0205-.01953-.293.182c-.10887.062-.22594.12891-.349.1991L6.52613,3.287l-.21089.09717-.21827.0924-.22431.0857-.229.07714-.23246.0669L5.17661,3.761l-.23531.04065-.23474.0249-.23286.0072-.11531-.00366-.11434-.00867.02658-.05334.0233-.05518.01993-.05664L4.33035,3.598l.013-.05945.00936-.06066L4.35834,3.416l.00191-.06287-.00511-.10156-.015-.09864-.0244-.09509-.03331-.09119L4.24072,2.88l-.04963-.08178-.057-.0763-.064-.07043-.07037-.064-.07629-.057L3.84172,2.481l-.08665-.04175L3.664,2.406l-.095-.02442-.09848-.015-.10142-.00513-.10143.00513-.09851.015L3.074,2.406l-.09116.0332L2.89614,2.481l-.08181.04956-.07638.057-.07046.064-.064.07043-.05713.0763L2.49662,2.88l-.04179.08667-.03337.09119L2.397,3.153l-.015.09864-.00512.10156.00512.1012.015.09838.02445.095.03337.09106.04179.08679.0497.08179.05713.07654.064.07055.07046.06409.07638.05725.08181.04993.08673.04187L3.074,4.301l.09508.02453.09851.01514.10143.00513.11123-.0066.10766-.01916.10344-.03052L3.79,4.24915l.00906.11731.00408.11779-.00592.23694-.02329.23755-.03894.23694-.05287.23547-.0651.23267-.07562.22888-.08443.22388-.09151.21789-.0969.2107-.20311.39538-.20412.3534-.19143.30236.0215.02.13539-.1018L2.971,7.41614,3.123,7.323l.15855-.08667.16395-.07874.16817-.06921.17125-.05823.17316-.04577.17389-.032.17348-.0166.08622-.00195.08567.00232.085.007.08416.01159.08318.01673.08206.02172.08078.0271.07938.0326.07782.0382.07611.04419.07426.05017.07227.0564.09991.09094.0855.09278L5.52947,7.52l.0585.09607.0459.09741.03389.09876.02247.09961.01167.10058.00145.10132-.00816.10181L5.678,8.31775l-.0256.10242L5.619,8.52258l-.04064.10218-.04726.10192L5.47783,8.828l-.12226.20056-.13919.19654-.15132.191-.15867.1842c-.11.11756-.218.233-.32027.34241l-.29227.29858-.32872.33069-.17815.16492-.18613.16-.1932.15137-.19934.139-.20459.12317-.104.05456-.10494.04907-.1058.04334-.10653.03711L2.4753,11.525l-.10767.02332-.10808.01562-.10836.00757-.10853-.00085-.10858-.00989-.10853-.01929-.10836-.02917-.10807-.03943-.10767-.05029-.10715-.06153-.10653-.07324L1.182,11.20251l-.10493-.0979-.074-.07983L.92,10.92126l-.08231-.1206-.03787-.06458L.76576,10.6698.7367,10.60266.71387,10.5354.69846,10.469.6917,10.40417l.00023-.03161.00285-.03076.00562-.03.00853-.02906.0116-.02807.01482-.02686.01819-.02563.02171-.02429L.794,10.16162l.0211-.01343.02326-.011.0253-.00867.05613-.0116.0626-.00512.29282.00451.08734-.00268.08943-.00916.09082-.017.0915-.02636.09147-.03711.09075-.04944.08931-.06311.08718-.07837.07209-.07971.06049-.08289.04919-.08545L2.213,9.49731l.02755-.08923.01721-.09045L2.265,9.22644l-.00255-.09119-.01194-.09094-.021-.09009-.0298-.08874-.03826-.08679L2.115,8.69409l-.05423-.08166L1.999,8.53406l-.06894-.07447L1.85094,8.389l-.08466-.05945-.08941-.04871L1.58349,8.2428l-.09655-.02771L1.388,8.19751,1.2875,8.18994,1.18619,8.192l-.10131.01172-.10052.021-.09894.03L.78886,8.2937l-.09338.04773-.08943.056-.08468.06445L.44225,8.5343l-.08564.09192L.2812,8.7207l-.06554.09693-.056.099-.04681.10083-.03794.10266-.02944.10412L.0242,9.32959l-.01343.10657-.006.1073.0012.108L.014,9.76l.01447.10876.02058.10889.02637.10864.03181.10828.07857.2146.09622.21069.11113.20508.12333.19776.13279.18884.1395.17822.1435.16589.14475.152.12759.12171.1307.11315.13362.10486.13636.09644.13892.088.1413.07971.14351.07141.14552.063.14736.05457.149.04639.15049.038.15179.02978.1529.02137.15384.01306.15459.00488.15516-.00342.15556-.01172L3.701,12.6189l.1558-.0282.15564-.03638.15532-.04455.1548-.05286.1541-.061.15323-.06909.15218-.07739.15095-.08557.14953-.09375.14793-.10181.14615-.11.1442-.11805.14205-.12622.13974-.1344.10564-.11377.10027-.11645.09481-.11926.08929-.12171.08368-.1239.078-.1261.07225-.128.06643-.12976.06053-.13135.05456-.13281.04851-.13416L6.699,9.96716l.03619-.136.02992-.13684L6.78869,9.557l.01715-.1377.01065-.13794.00409-.13806L6.818,9.00549l-.00927-.13757-.01607-.13709-.02294-.13635-.02988-.13562L6.703,8.32434l-.044-.13342-.05114-.13208-.05839-.13062-.0657-.12878-.07308-.12708-.08055-.12487-.08808-.12281-.0957-.12036-.11181-.126L5.90984,7.057,5.772,6.94031l-.15124-.1117-.16488-.10693L5.2771,6.61963l-.19292-.09692-.20733-.09192.2822-1.23829,1.2481-.293.09217.20752.0971.19311.102.179L6.8053,5.644l.11174.15125.11657.13769.12137.12439.12617.11121.12024.09582.12257.08826.12474.08081.12673.07349.12855.066.1302.05871.13167.05152.133.04443.13411.03735.13506.03028.13586.02331.13647.01648.13691.00977.13719.00293L9.25171,6.844l.13721-.01025.137-.01685.13656-.02331.136-.02979.13521-.036.13428-.04223.13318-.04847L10.333,6.5824l.13046-.06067.12884-.06665.12705-.07251.12509-.07837L10.9674,6.22l.12065-.09.11818-.09545.11552-.1012.1127-.10657.13626-.13977.128-.142.11969-.144.1114-.146.10312-.1477.09482-.14929.08652-.15064.07823-.15185.06993-.15283.06162-.15381.05332-.1543.045-.15491.0367-.15527.02838-.1554.02007-.15527.01175-.15515.00343-.15466-.0049-.15418-.01322-.15344L12.583,2.80383l-.02989-.15149L12.5149,2.5022l-.04655-.14868-.0549-.147-.06323-.14526L12.27863,1.918l-.07993-.14111-.08828-.13868-.09663-.13635-.105-.13354-.11334-.13062Z" fill="#231f20"/>
      </g>
      <g>
        <path d="M159.0929,20.14734l.0415-.041-.20639-.27417-.199-.29187-.18863-.30749-.17532-.32068-.15905-.33142-.13981-.34-.11763-.34607L157.899,17.72l-.04293-.17529-.03587-.17566-.02849-.17566-.02072-.17554-.01259-.175-.00409-.17419.00481-.1731.014-.17163.02365-.17.03364-.16809.044-.16577.05471-.16333.06582-.1604.07728-.15723.08911-.15381.10132-.15015.11389-.146.09126-.10474.09229-.09717.09323-.09.09415-.08289.095-.0758.09586-.0691.09665-.06225.09738-.05591.09807-.04944.09874-.04321.09935-.03723.09993-.03125.10045-.02551.10092-.0199.10138-.01441.10176-.00915.10213-.004.10243.0011.10269.00586.10292.01062.20635.03479.20671.05176.20674.0675.2064.08215.20577.09559.20473.10766.20338.11878.20167.12841.19962.137.19722.14428.38586.30591.37212.32068.35558.32593.33627.32129c.21622.21155.42018.41113.60358.5907.10791.10473.21862.2124.33142.32189l.336.34192.33328.35987.32318.376.30578.39038.144.19983.13693.20288.12892.20545.11995.20788.11011.21009.0993.212.08762.21375.075.21521.06146.21655.047.21753.03162.21838.01533.21888-.00188.21923-.02.21937-.01708.10961-.022.10962-.027.1095-.03206.10938-.03728.10925-.04262.109-.04806.10888-.05364.10865-.05931.10827-.06511.10816-.071.10766-.077.10743-.17261.21362-.19809.21191-.16181.149-.20944.16736-.11834.08435-.12519.08154-.13029.07642-.13373.0686-.13547.0586-.1355.046-.06723.01757-.0666.01355-.06578.009-.06471.00451-.06347-.00048-.062-.00574-.0603-.01135-.05839-.01722-.05629-.02343-.054-.02991-.05144-.03674-.04867-.04383-.03284-.03772-.02734-.04223-.02234-.04676-.01778-.05078-.0137-.05469-.01007-.05822-.01113-.126.00083-.28247.00686-.30847-.00544-.17639-.01827-.18079-.03405-.184-.02387-.09253-.02891-.09277-.03435-.09265-.04012-.09253-.04628-.09217-.05279-.09155-.05971-.0907-.06694-.08984-.07459-.0885-.08258-.08728-.07963-.07593-.08138-.06982-.083-.06409L163.285,21.246l-.08578-.05249-.087-.04687-.08811-.04139-.08908-.03588-.08992-.0304-.09062-.02515-.09122-.02-.09167-.01477-.092-.00964-.09221-.00476-.09229.00012-.09222.005-.09207.00976-.09175.01441-.09133.01892-.09076.02343-.09007.02784-.08926.03222-.17559.07715-.1708.09351-.165.10913-.1582.12427-.15038.13867-.07407.07861-.06845.08154-.06288.08448-.05737.08691-.0519.08948-.0465.09155-.04114.09351-.03586.09546-.03061.09692-.02542.09839-.0203.09961-.01521.10046-.01019.10144-.00523.10193-.00031.1023.00455.10254.00934.10253.01409.10242.0188.10193.02343.10132.028.10046.03255.09961.037.09827.04144.09692.04581.09534.05012.09338.05437.09156.05858.08923.06272.08691.06682.08435.07085.08142.07484.0785.18609.17272.1912.1521.19593.13221.20019.113.20407.09436.20751.07654.21054.05933.21315.04285.21531.02709.21711.012.21844-.00244.21936-.01612.21988-.02929.22-.04163.21964-.05322.21887-.06421.21771-.07459.21613-.0841.21409-.093.21169-.1012.20881-.10876.20557-.11572.39961-.249.3815-.26806.36-.28174.33519-.28992.307-.29236.24587-.25757.22888-.26391.21191-.26978.195-.27539.178-.28064.16112-.28528.14423-.28991.12735-.294.1105-.29761.09366-.301.07684-.30408.06-.30664.04327-.309.02652-.31079.00976-.31238-.00694-.31347-.02365-.31434-.04033-.31469-.057-.31482-.07362-.31458-.09027-.31384-.10686-.31287-.12345-.3114-.14-.30969-.15655-.30762-.1731-.305-.1896-.30225-.20609-.29895-.22256-.29541-.239-.2915-.25544-.28711-.27185-.28235-.22962-.2135-.2353-.20264-.24065-.19165-.24565-.18042L165.7352,12.86l-.25458-.1576-.25853-.146-.26213-.13428-.26535-.12232-.26826-.1101-.2708-.098-.273-.08557-.27483-.07312-.27632-.06042L163.054,11.825l-.27823-.03454-.27867-.02149-.27876-.00818-.27851.00525-.27787.0188-.2769.03247-.27561.04651-.27393.06042-.27191.07459-.26953.08887-.26681.10339-.26375.118-.26033.13281-.25655.14783-.25242.16272-.248.1781-.24313.19336-.12882.10962-.1264.11609-.124.12256-.12157.12927-.11911.13586-.11667.14258-.22592.30567-.216.33337-.20591.36157-.19575.39026-.18549.41956-2.5039-.56934-.58741-2.52441q.21438-.0954.4184-.18628l.38969-.196.36139-.20593.33344-.21582.30589-.22571.14273-.11645.136-.119L155.863,11.21l.12262-.1239.116-.12634.10947-.12879.19354-.24316.17827-.2478.16313-.25208.14813-.25622.13327-.25977.11853-.26318.104-.266.08951-.26879.07523-.271.061-.27283.047-.27453.03314-.27564.01938-.27661.00578-.27722-.00769-.27735-.021-.27722-.03421-.27661-.04725-.27588-.06018-.27466-.073-.27319L157.25218,5.2l-.09807-.269-.11044-.26636L156.921,4.401l-.13472-.26025-.14667-.25672-.15846-.25268-.17011-.24842-.18164-.24377-.193-.23877-.20426-.2334-.21536-.22766-.28238-.27551-.28694-.25879-.29115-.24194-.295-.22522-.29849-.2085-.30164-.19165-.30441-.17493L153.15.70471l-.3089-.14136-.31059-.12451-.31195-.10766-.31294-.09095L151.592.16614l-.31386-.05725-.31377-.04053L150.651.04468,150.3385.03784l-.31139.00989-.30987.02685-.308.04358-.30579.06055L148.80025.256,148.5.3501l-.297.111-.29331.12781-.2893.14477-.28493.1615-.2802.17847-.27511.19519-.26967.21216-.26389.229-.2577.246-.28926.3031q-.14118.16206-.28843.3313-.13888.17543-.28184.3562l-.2695.37793-.25139.39624-.11711.204-.1104.20728-.103.21033-.09486.21276-.086.215-.07644.21655-.06617.218-.05514.21875-.04341.21924-.03095.21936-.01779.21887-.00388.21826.01073.21692.02606.21546.04213.21337.0589.21106.0764.20813.09461.205.11355.20129.13323.19715.15359.19275.17468.18786.07847.07495.08132.07093.084.06665.08652.0625.0888.05822.09092.054.09284.04956.09456.04517.0961.04077.09745.03625.09858.03162.09954.02722.10031.02246.10089.01782.10126.01307.10145.00842.10146.00342.10125-.00122.10087-.00635.10029-.01111.09952-.01624.09856-.02111.09739-.02637.09606-.0315.09451-.03649.09279-.04187.09085-.04712.08874-.05249.08645-.05774.08393-.06324.08124-.0686.07837-.0741.13895-.15.125-.15735.11033-.16382.095-.16943.07888-.17383.062-.17749.0245-.08984.02-.09034.01546-.09082.0108-.09106.00606-.09119.00122-.09131-.00369-.0913-.00871-.09107-.01381-.0907-.019-.09033-.0243-.08984-.02966-.08924-.03512-.08837-.04068-.08753-.04633-.08642-.05206-.08533-.05788-.08411-.0638-.08276-.06979-.08118L147.82,5.72107l-.091-.0863-.09135-.07727-.09167-.069-.09188-.06092-.092-.05334-.092-.04627-.092-.03967-.09182-.03357-.09155-.02783-.0912-.02258-.181-.0315-.17851-.01611-.17527-.00452c-.20991.00379-.4151.00745-.58886.01062l-.124-.00854-.05678-.00818-.05287-.0116-.04868-.01538-.04414-.01941-.03933-.024L145.38,5.04675l-.04745-.05237-.0401-.05468-.03305-.05677-.02632-.05859-.01988-.06042-.01375-.06177-.00791-.06323-.00236-.06421.00285-.06531.0078-.06592.01244-.0664.01675-.0669.04529-.13391.059-.13306.0703-.13061.07918-.12659.08565-.121.0897-.11389.09137-.10535.09059-.09509.08745-.0835.08185-.07007.22758-.18237.22529-.16089.223-.14013.22081-.12.21863-.10046.21651-.08167.21443-.06348.21237-.04589.21037-.02893.20842-.0127.2065.00293.20462.01782.20281.03223.201.046.19926.059.19758.07141.19589.08313.19429.09424.19272.10486.19117.1145.1897.12378.18825.13232.37231.2876.36707.31409.36214.33532.35754.35157.35332.36242.59623.60681.663.69983.33109.37769.31727.39209.15027.20068.143.20313.13446.20544.12465.20728.11356.20862.10121.20983.08759.21058.07267.21093.05652.21106.03908.21057.0126.10511.00775.10486.00278.10461-.00238.10437-.0077.10388-.01317.10352-.0188.10315-.0246.10254-.03053.10205-.03665.10156-.04293.10083-.04933.10022-.05594.09949-.06266.09863-.06957.0979-.07663.097-.08386.09619-.09122.09521-.09877.09424-.10647.09314-.14615.11389-.15018.10132-.15388.08911-.15731.07727-.16041.06592-.16324.05481-.16577.04407-.168.03369-.16994.0238-.17156.01428-.17292.005-.174-.00379-.17472-.01233-.17517-.02038-.17532-.02808-.17519-.0354-.17474-.04236-.174-.04895-.34463-.11608-.33817-.13807-.3293-.157-.31807-.17273-.30447-.18567-.2885-.19568q-.13746-.1029-.27016-.20251l-.042.0415.39382.6355.21319.36719.21807.39575.21841.42127.21428.44323.20561.46216.19248.47778.1748.49024.15265.49927.0666.25207.05938.25305.05159.25379.04322.2539.03431.25391.02484.25317.01478.25232.00418.251-.007.249-.01874.24695-.031.24439-.04388.24133-7.58541.002v1.40137h6.6689v6.665h1.40241V17.94812l.24789-.041.24983-.0288.25141-.01709.25265-.00586.25359.00488.25415.015.25439.02478.25429.03382.25386.04248.2531.05066.252.0581.25055.06531.49542.14978.48563.17188.47311.18982.458.20373q.223.10821.44.21338l.41948.219q.20271.1128.39622.22058.19056.11206.37025.21778C158.67577,19.88428,158.89465,20.02234,159.0929,20.14734Z" fill="#231f20"/>
        <rect x="143.8053" y="21.09656" width="4.43221" height="4.43164" fill="#231f20"/>
        <path d="M168.22479,11.67371l.1431-.15.14264-.16394.13934-.17627.13323-.18713.12422-.196.11242-.20361.09777-.20935.08026-.21362.03267-.10791.02724-.10828.02143-.10852.01529-.10864.00879-.10828.00192-.108-.00529-.10742-.01286-.10669-.0208-.10559-.02907-.1045-.03772-.103-.04671-.10144-.05606-.09974-.06575-.09765-.07582-.09534-.08623-.093-.079-.07214-.08433-.06384-.08894-.05542-.09275-.04688-.09582-.03808-.09812-.02906-.09964-.01989-.10041-.01062-.10042-.0011-.09967.00866-.09815.01856-.09587.02856-.09282.03882-.089.04932-.08444.05993-.07911.07068-.0688.0741-.06187.07788-.05458.08106-.047.08374-.039.08606-.03064.08789-.02194.08923-.01293.09-.00354.09033.0062.09033.01628.0896.02672.08862.0375.08716.04865.08508.06012.08252.072.07971.09015.08069.09076.06409.091.04907.09091.036.09044.02478.08963.01551.08845.00793.087.0022.29069-.00513.06165.00427.05461.00989.02426.00757.022.00977.01958.012.017.0144.02353.02588.01992.0271.0164.02808.01308.029.00988.02979.00685.03063.00394.03125.00121.03174-.00522.06482-.01442.06592-.02243.06628-.02924.06568-.03486.06457-.03931.06263-.08714.11645-.09063.09949-.08456.07666-.11259.09021-.11145.07971-.11036.06934-.10925.05944-.10818.04969-.10714.0404-.1061.0315-.10509.0227-.10411.01428-.10314.00635-.10219-.00146-.10125-.00879-.10036-.016-.09947-.02271-.0986-.0293-.09775-.03527-.09694-.04114-.09613-.04675-.18994-.10865-.187-.12671-.18416-.14245-.18153-.15564-.179-.16614-.35135-.35364c-.08908-.09057-.189-.192-.29539-.30005l-.32832-.34619-.16393-.18689-.15706-.194-.14516-.19983-.12823-.20422-.05618-.10327-.05008-.10388-.04332-.10425-.03594-.10437-.02794-.10437-.01928-.10437-.01-.10388-.00013-.1034.01039-.10266.02154-.1018.03334-.10083.04573-.09949.0588-.09815.07244-.09643.08677-.09473.10168-.09277.07223-.05628.07424-.05.07608-.04406.07779-.03809.07933-.03259.08075-.0271.082-.02173.08313-.01672.0841-.01172.08491-.007.08559-.00256.0861.00195.17322.01611.17354.03138.17268.04516.17067.05737.16745.06824.16309.07764.15751.08545.15078.09192.14285.09668.13376.10022.01948-.02051-.18191-.293-.19911-.349-.20166-.39429-.09722-.21093-.09236-.21827-.08569-.22436-.0772-.229-.06685-.23242-.05467-.23462-.04069-.23523-.02487-.23474-.00722-.23291.00358-.11523.00869-.11438.05343.02661.05513.02332.05667.01989.05815.01648.05948.01294.06072.0094.06184.00562.06287.00195.10158-.00513.0986-.015.09514-.02442.09115-.03332.08672-.04163.08175-.04968.07633-.057.07037-.064.06395-.07031.057-.0763.04961-.08179.04168-.08667.03328-.09106.0244-.09509.015-.09839.00511-.10144-.00511-.10144-.015-.09851-.0244-.0951-.03328-.09118-.04168-.08667-.04961-.08179-.057-.07641-.06395-.07044-.07037-.06409-.07633-.05713-.08175-.04968-.08672-.04175-.09115-.03344-.09514-.02442-.0986-.015-.10158-.00513-.1012.00513-.09833.015-.095.02442-.09111.03344-.08673.04175-.08187.04968-.07646.05713-.07057.06409-.06416.07044-.05727.07641-.04983.08179-.04192.08667-.03348.09118-.02455.0951-.01509.09851-.00514.10144.00666.1112.01919.10767.03042.10339.04042.09864-.11729.009-.11786.00415-.23688-.006-.23752-.02332-.237-.03894-.23541-.05285-.23272-.06507-.22886-.07568-.22393-.08435-.21786-.09155-.21069-.09693-.39542-.20312c-.1237-.07141-.24213-.13977-.35336-.2041l-.30239-.19141-.02.02148.10188.13538.09828.14429.09324.152.08668.15857.07869.16394.0692.16822.05824.17126.04582.1731.03192.174.01656.17346.002.08618-.00235.08569-.00692.085-.01169.08422-.01664.08313-.02176.082-.02709.08081-.03259.07934-.03827.07788-.04413.076-.0502.07434-.05642.07227-.09087.09985-.09277.08557-.0945.07166-.09607.05847-.09746.0459-.09868.03393-.09971.02247-.10059.01171-.10129.00147-.10182-.00818L161.017,5.678l-.10237-.02564-.10237-.03332L160.71,5.57837l-.1019-.04724-.10138-.05335-.20056-.12231-.19648-.13916-.191-.15125-.18421-.15869-.34244-.32031-.29861-.29224-.33061-.32873-.165-.1781-.16-.18616-.15135-.19324-.13906-.19934-.12316-.20459-.05448-.104-.04915-.10486-.04335-.10584-.03711-.10656-.03041-.10718-.02327-.10767-.01565-.108-.0076-.1084.00091-.10852.00988-.10852.0193-.10852.02916-.1084.03949-.108.05026-.10767.06151-.10717.07318-.10657.08533-.10584.09791-.10485.07984-.0741.10356-.083.12057-.08227.06456-.03785.0663-.034.06719-.02906.06723-.02282.06646-.01551.06482-.00671.03154.00024L158.993.6947l.03.00562.02907.00854.028.0116.02687.01489.02565.01819.0243.02173.0162.01868.01347.02111.011.02332.00869.02527.01151.05615.00522.06262-.00458.29285.00272.08728.00914.08948.017.09082.02636.09143.03714.09155.0494.0907.06313.08935.07832.08716.07973.072.08289.06055.08552.04919.08766.03821.08931.02747.09046.01721.09111.0072.09126-.00256.09091-.012.09006-.021.08871-.02979.08689-.0382.08453-.04651.0817-.0542.07835-.06177.07451-.06885.07049-.0791.05948-.08471.04868-.08936.0381-.09338.02771-.09656.01756-.099.0076-.10046-.00214-.10132-.01165-.10132-.021-.10046L161.08.88538,161.041.78882l-.04766-.09339L160.93726.606l-.06437-.0846-.07238-.0791-.092-.08569L160.614.28113l-.09685-.06555-.099-.05591-.10089-.04688-.10262-.038-.10411-.02942-.10541-.02124-.10649-.01343-.10737-.006-.108.00122L159.57471.014l-.10877.0144-.10881.02063-.10866.02637-.10829.03174-.21464.07861L158.71486.282l-.205.11121L158.312.51648l-.18881.13281L157.945.78882l-.16592.14343-.152.14478-.12165.12756-.11322.13074-.10483.13354-.09645.13635-.088.13892-.0797.14136-.07134.14355-.063.14551-.05466.14734-.04633.14905-.038.15039-.02971.15185-.0214.15284-.01313.15393-.00483.15454.00341.15515.01169.15552.01993.15588.02815.15576.0364.15564.04461.15527.05281.15479.061.15417.0692.1532.07737.15222.08554.15088.09369.14954.10184.148.11.14612.1181.14428.12622.142.13432.13977.11376.10559.11656.10034.11922.09473.12165.08936.124.08362.12608.078.128.07226.12979.06653.1314.06043.13281.05456.13406.04859.13515.04235.13606.03614.13678.03.13735.02356.13772.01709.138.01062.138.00415.13785-.00257.13754-.00927.13707-.01612.1364-.02295.13559-.02978.13458-.037.13343-.04394.13206-.05115.13055-.05835.12886-.06568.127-.07312.125-.08056.12274-.08814.12037-.09558.12605-.11181.12135-.12476.11661-.13782.11179-.15124.10691-.16492.102-.17871.097-.193.09192-.20728,1.23829.28223.2929,1.248-.20749.09217-.19312.09717-.17894.10192-.165.10694-.15121.11169-.13768.11658-.12436.12134-.11122.12622-.09586.12024-.0883.12256-.08081.12475-.07338.12671-.066.12854-.05876.13025-.05155.13159-.04438.13306-.03733.134-.0303.13513-.02336.13587-.0165.13647-.00969.13684-.00294.13721.00372.13733.01032.13721.01684.137.02332.1366.02971.13586.036.13525.0423.13428.04847.13318.05461.132.06066.13037.06665.12891.07255.12707.07842.125.0842.123.08989.1206.09555.11817.10112.11548.10663.11279.13971.13623.142.12793.14406.11975.146.11133.1477.10315.14928.09485.15065.08654.15185.07825.15288.06982.15373.06165.15441.05334.15491.045.15521.03662.15536.02844.15534.02.15512.01184.15472.00342.15416-.00488.15343-.01331.1525-.02148.15139-.02991.15013-.03821.14869-.04663.147-.05481.14525-.06323.14327-.07166.1411-.08.13877-.08826.13625-.09656.13358-.105.13069-.1134Z" fill="#231f20"/>
      </g>
      <g>
        <path d="M149.18745,159.0929l.041.0415.27411-.20642.292-.199.30746-.18859.32063-.17542.33147-.15906.34-.13977.34608-.11767.17464-.04956.17528-.04285.17564-.03589.17574-.02856.17551-.02063.175-.01258.17419-.00415.17311.00476.17171.01416.17.02356.16806.03369.16581.04395.16325.05481.1604.0658.15726.07727.15382.08911.15009.10132.14609.11389.10466.09118.09722.09229.09.09326.08283.09412.07587.09509.069.09582.06236.09668.05583.09729.04949.09815.04325.09875.03719.09937.03127.09985.02551.10047.0199.101.01441.10132.00913.1018.004.10218-.00106.10241-.0059.10266-.01061.10291-.03474.20642-.05176.20667-.06755.20666-.08215.20642-.09555.20581-.10771.20471-.11869.20337-.12843.20166-.137.19971-.14434.19714-.30584.38587-.3207.37219q-.16491.1798-.32588.35559c-.10942.1145-.21687.22693-.32138.33618-.21156.21631-.41115.42017-.59061.60364l-.322.33142-.34186.33594-.35986.33337-.376.32312-.39031.30579-.19993.144-.20282.137-.20546.1289-.20789.12-.21006.11-.212.09937-.21375.08764-.21525.075-.21651.06141-.21754.047-.21834.03174-.21892.01526-.21924-.00183-.21936-.02-.10965-.01709-.10959-.022-.10949-.027-.10938-.0321-.10922-.03724-.10907-.0426-.10884-.04809-.10863-.05359-.10835-.05933-.10806-.06506-.10775-.071-.10739-.077-.21364-.17261-.21188-.19812-.14911-.16187-.16728-.20935-.08435-.11841-.08157-.12512-.07636-.13037-.06868-.13367-.05858-.13549-.046-.1355-.01755-.06726-.01349-.06653-.00914-.0658-.00447-.06469.00049-.06348.00577-.062.01135-.06031.01722-.05834.02343-.05628.02992-.05408.03671-.05139.04383-.0487.03765-.03284.04233-.02734.04671-.02234.05081-.0177.05464-.01368.0582-.01013.126-.01111.28247.00086.30852.00683.17636-.00549.18086-.01819.18387-.03405.09258-.02393.09274-.02893.09273-.0343.09253-.04016.09211-.04627.09154-.05273.09074-.0597.08977-.067.08861-.07459.08727-.08252.07586-.07971.0699-.0813.064-.083.05824-.08447.05251-.08581.04689-.08692.04133-.08813.03586-.08911.03047-.09.02516-.09058.01993-.09118.01479-.09168.00972-.092.00474-.09216L148.37,162.295l-.005-.09228-.00972-.092-.01439-.0918-.019-.09131-.02347-.0907-.02788-.09008-.03221-.08936-.0771-.17554-.09346-.17077-.10919-.165-.12424-.1582-.13865-.1504-.07862-.07409-.0816-.06836-.0844-.06287-.087-.05737-.08939-.05188-.09158-.04651-.09359-.04114-.09538-.03589-.097-.03064-.09837-.02539-.09956-.02026-.10056-.01526-.10136-.01025-.10195-.00513-.10235-.00037-.10254.00452-.10254.0094-.10233.014-.10194.0188-.10132.02343-.10053.02808-.09951.03247-.09832.03711-.0969.04138-.0953.04578-.0935.05017-.09149.05432-.0893.0586-.08688.06274-.08427.06677-.08149.07092-.07847.07483-.17275.186-.15213.19128-.1322.19593-.113.20019-.09439.204-.07654.20752-.05936.21057-.04287.21314-.02707.21533-.012.21716.00246.21839.01619.21936.02924.21984.04158.22.05325.21961.06424.219.07451.21765.08412.21607.093.21411.10124.21167.1088.20886.11562.20557.249.39966.26815.38147.28174.36.28984.33521.2924.307.2576.24585.26388.22889.26983.21191.27536.19507.28056.178.28538.16113.28985.14416.29394.12745.29767.11047.301.09363.304.0769.30665.06006.30892.04321.31082.02649.31234.00977.31353-.007.31431-.02356.31476-.0404.31484-.057.31453-.07361.31385-.09021.31284-.10693.31145-.12342.30969-.14.30755-.1565.30507-.17309.30222-.1897.299-.206.29541-.22254.29144-.239.28713-.25549.28244-.27185.21351-.22962.20263-.23523.1916-.24072.18042-.24561.1691-.25036.15761-.25452.146-.25854.13422-.26209.12228-.26538.1102-.26831.098-.27075.0856-.273.07308-.2749.06039-.27625.04758-.27746.03461-.2782.02147-.27869.00819-.27881-.00523-.27844-.01882-.278-.03253-.27686-.0464-.27563-.06043-.27393-.07461-.27185-.08893-.26953-.10341-.26685-.118-.26379-.13281-.26026-.14773-.25659-.1628-.25244-.178-.24792-.1934-.24317-.10961-.12878-.11607-.12647-.12261-.1239-.12921-.12158-.13588-.11914-.14261-.1167q-.14965-.1106-.30566-.226-.163-.10548-.33336-.21595l-.36157-.20593q-.19045-.0954-.39029-.19568-.20461-.09045-.41953-.18554l.5693-2.50391,2.5245-.5874.18622.41846.19607.38964.206.36145.21581.33338.22564.30591.11652.1427.119.136.12143.12928.12388.12268.12633.116.12879.1095.24311.1936.24781.17823.25215.16308.25615.1482.25981.13317.26312.11866.2661.10388.26871.0896.271.07519.27291.061.27449.047.27571.0332.27661.01929.27714.00585.27735-.00769.27719-.021.2767-.0343.27586-.04724.27466-.06019.27314-.07287.27125-.08557.269-.09815.26645-.11047.26353-.12256.26027-.13477.25665-.1466.2527-.15845.2484-.17016.24375-.18165.23875-.193.23341-.20422.22773-.21546.27552-.28234.25876-.287.242-.29114.22522-.29492.20845-.29859.19167-.30163.17489-.30432.1581-.30689.14131-.30884.12451-.31066.10773-.31189.09091-.313.07411-.3136.05732-.31384.04048-.31372.02368-.31336.00685-.3125-.01-.3114-.0268-.30994-.04362-.308-.06046-.30579-.0773-.30322-.09415-.30017-.111-.297-.12784-.29333-.14468-.28931-.16156-.28491-.17841-.28015-.19528-.27515-.21214-.26965-.229-.26392-.24589-.25769-.30307-.28931-.3313-.28845q-.17556-.1388-.35627-.28186l-.3779-.26941-.39625-.25146-.204-.11707-.20734-.11035-.21026-.103-.2128-.09484-.21492-.08606-.21662-.07642-.21791-.06616-.21879-.05518-.21926-.04346-.21931-.03088-.219-.01782-.21819-.00391-.217.01074-.21541.02613-.21342.04211-.211.05884-.20817.07642-.20493.0946-.20126.11365-.19721.13318-.19273.15356-.18783.17468-.075.0785-.07088.08129-.06671.084-.06248.08655-.05825.08886-.05392.09082-.04956.0929-.04518.0946-.04073.09607-.03624.09742-.03171.09863-.02711.09949-.02251.10034-.01782.10083-.01309.10132-.00835.10144-.00352.10144.00132.10131.00624.10083.01119.10035.01617.09948.02123.09851.0263.09742.03144.09607.0366.09448.04184.09277.04712.09094.05242.08875.0578.08643.06318.08386.06865.0813.07414.07837.15.13891.15738.125.16385.11035.16935.095.17391.07886.17749.062.0898.02454.09034.02.09076.0155.09107.01074.09123.00611.09131.00122.09125-.00366.09106-.00879.09077-.0138.09037-.019.08983-.02429.08915-.02967.0884-.035.08751-.04077.08647-.04627.08535-.05212.08411-.05786.08272-.06372.08124-.06983.07962-.07592.0863-.09095.07736-.0913.0689-.09168.06089-.09192.05336-.092.04628-.092.03968-.09192.03352-.0918.02783-.09155.02263-.09119.03145-.181.01614-.17846.00457-.1753-.01064-.58886.00848-.124.00829-.05676.01158-.05286.01529-.0487.01944-.04407.024-.03931.029-.03418.05238-.04748.05466-.04016.05674-.033.05864-.02637.06034-.0199.06184-.01367.06316-.00793.06428-.00244.06522.00293.06593.00781.0665.01233.06683.01684.13394.04529.133.059.13057.07031.12658.07923.121.08557.11392.08972.10532.09143.09512.09058.0834.0874.07015.08191.18234.22754.16091.22534.14013.223.12.22071.10049.21875.08165.21643.06346.21447.04589.21241.029.21032.0127.20838-.00293.20654-.0179.20459-.03226.20288-.04594.20093-.059.19934-.0714.19751-.08316.19592-.09427.19422-.10475.19275-.11458.19116-.12376.18969-.13231.18824-.28764.37231-.31407.36707-.33536.36218-.35147.35754-.36245.35328-.60684.59631c-.22252.21081-.45866.43445-.69986.663l-.37759.33106-.39215.31726-.20066.15027-.2032.14306-.20539.1344-.20723.12464-.20871.11364-.20983.1012-.21057.08752-.21095.07276-.211.05652-.21064.03906-.10509.01257-.10487.00769-.1046.00281-.1043-.00232-.10392-.00769-.10355-.01318-.10309-.0188-.1026-.02466-.10206-.03052-.10149-.03662-.10085-.043-.10019-.04931-.09947-.05591-.09871-.06275-.0979-.06945-.097-.07666-.09615-.08387-.09521-.09131-.09421-.09875-.09319-.10645-.11389-.14611-.10132-.15015-.08912-.15393-.0773-.15735-.06586-.1604-.05478-.16321-.04408-.16577-.03376-.168-.0238-.16992-.01422-.17163-.005-.173.00381-.17395.01227-.17469.02036-.17517.02806-.17529.0354-.17517.04236-.17481.04895-.17395.11618-.34472.138-.33814.15692-.32922.17279-.31812.1857-.30444.1956-.28857.20252-.27015-.04151-.042c-.1898.11768-.4035.25012-.63545.3938l-.36717.21326q-.19229.10583-.39581.218-.206.10675-.42119.21839-.218.10546-.4433.21435l-.46217.20557-.4778.19251-.49016.1748-.49927.15259-.252.06665-.2531.05932-.25374.05164-.254.04321-.25383.0343-.25326.02491-.25229.01477-.25092.00415-.24911-.007-.24693-.0188-.24433-.031-.24132-.04383-.002-7.58545h-1.40131v6.66895h-6.6651v1.40234h7.58011l.041.24793.02879.24987.01705.25135.00584.25268-.00485.25354-.01505.25415-.0247.2544-.03386.25427-.04248.25391-.0506.25305-.0582.25207-.06527.25049-.14975.49549-.17186.48559-.18985.47315-.20371.45788-.21344.44006-.219.41956-.22048.39612-.21779.37036C149.45045,158.67566,149.31244,158.89465,149.18745,159.0929Z" fill="#231f20"/>
        <rect x="143.80655" y="143.8053" width="4.4317" height="4.43213" fill="#231f20"/>
        <path d="M157.66106,168.22473l.15.14307.164.1427.17632.13928.187.1333.19612.12415.20358.11242.20941.09778.2136.08032.10786.0326.10829.02734.10854.02136.10857.01526.10838.00879.108.00195.10744-.00525.10663-.01293.10565-.02076.10446-.029.10306-.03772.10145-.04675.09966-.056.09764-.0658.09541-.0758.093-.08619.0721-.079.06387-.08435.05545-.089.04683-.09278.03806-.09582.02908-.098.01993-.09973.01059-.10034.00106-.10046-.00863-.09961-.01853-.09815-.02859-.09594-.03883-.09278-.04929-.089-.05991-.08447-.07069-.0791-.07416-.06885-.07783-.06177-.08106-.05468-.0838-.04688-.08607-.03906-.08785-.03064-.08917-.02185-.09-.01294-.09038-.00354-.09026.00622-.08969.01624-.08862.02673-.08708.03748-.08509.0487-.08259.06006-.07964.072-.08075.09009-.064.09082-.04908.09095-.03605.09094-.02482.09045-.01544.0896-.00792.0885-.00223.08692.00516.29065-.00428.06164-.00991.05469-.00762.02417-.00967.02209-.01195.01953-.01443.017-.02594.02356-.02707.0199-.0281.01648-.029.01306-.02985.00989-.03059.00683-.03124.00391-.03177.00122-.06483-.00525-.0659-.0144-.06623-.02246-.06576-.02918-.06459-.03491-.06262-.03931-.11638-.08715-.09952-.09058-.07662-.0846-.09025-.11254-.07967-.11145-.06936-.11036-.05941-.10925-.04975-.10815-.04044-.10718-.03142-.10608-.02272-.1051-.01434-.10413-.0063-.10315.00145-.10217.00886-.1012.016-.10046.02274-.09937.0292-.09863.03534-.09778.04119-.09692.04667-.09619.1086-.18994.12681-.18689.14246-.18421.15556-.18152.16613-.17907.3537-.35132.30007-.29541c.11008-.10437.22689-.21521.3462-.32825l.18681-.16394.194-.1571.19984-.14515.2042-.12829.10328-.05615.10386-.05005.1042-.04334.10441-.03589.10443-.028.10427-.01929.10391-.01.10339-.00012.10271.01038.10181.02148.10077.03333.09951.04577.0981.05884.0965.07239.09473.08679.09277.10168.05626.07227.05.07422.044.07605.03818.07776.03253.07934.02705.08081.02178.08191.01667.08313.01175.08411.007.085.00249.08557-.00189.08606-.01613.17322-.03137.17358-.04515.17273-.05744.17066-.06825.16748-.07759.16308-.08545.15747-.09186.15076-.09675.14282-.10022.13379.0205.01953.293-.182c.10887-.062.22594-.12891.349-.1991l.39435-.20166.21089-.09717.21826-.09241.22432-.08569.22905-.07715.23246-.06689.23454-.05469.2353-.04065.23474-.0249.23287-.0072.11531.00366.11433.00867-.02658.05334-.0233.05518-.01992.05664-.01648.05822-.013.05945-.00936.06067-.00567.06189-.00191.06287.00511.10156.015.09863.0244.0951.03331.09118.04171.08667.04962.08179.057.07629.064.07044.07036.064.0763.057.08172.04956.08666.04175.09109.0332.095.02442.09848.015.10141.00513.10144-.00513.09852-.015.09507-.02442.09116-.0332.08673-.04175.0818-.04956.07639-.057.07046-.064.064-.07044.05713-.07629.0497-.08179.04179-.08667.03336-.09118.02446-.0951.015-.09863.00513-.10156-.00513-.1012-.015-.09839-.02446-.095-.03336-.09106-.04179-.08679-.0497-.08179-.05713-.07654-.064-.07056-.07046-.06408-.07639-.05725-.0818-.04993-.08673-.04187-.09116-.03345-.09507-.02453-.09852-.01514-.10144-.00513-.11122.00659-.10766.01917-.10344.03052-.09857.0404-.00907-.11731-.00407-.1178.00592-.23693.02328-.23755.03894-.23694.05288-.23548.0651-.23266.07563-.22888.08441-.22388.09152-.2179.09691-.21069.20311-.39538.20412-.3534.19142-.30237-.0215-.02-.13539.10181-.14426.09839-.152.09314-.15856.08667-.16395.07873-.16817.06922-.17125.05823-.17316.04577-.17388.032-.17348.01661-.08623.00195-.08568-.00232-.085-.007-.08417-.0116-.08318-.01672-.08206-.02173-.08078-.0271-.07937-.03259-.07782-.03821-.07612-.04419-.07426-.05017-.07227-.05639-.09991-.09095-.08551-.09277-.0717-.09448-.0585-.09607-.0459-.09741-.03388-.09876-.02249-.09961-.01166-.10058-.00146-.10132.00816-.10181.01718-.10217.02559-.10242.03342-.10242.04063-.10217.04728-.10193.05328-.10132.12225-.20056.13918-.19653.15132-.191.15868-.1842.32028-.34241.29226-.29859.32872-.33068.17815-.16492.18613-.16.1932-.15136.19935-.139.20459-.12317.104-.05457.10493-.04907.10581-.04333.10653-.03711.10717-.0304.10768-.02331.10808-.01563.10835-.00757.10852.00086.1086.00989.10852.01928.10835.02918.10808.03943.10766.05029.10717.06152.10652.07325.10579.08532.10493.0979.074.07984.083.10351.08231.12061.03788.06457.03406.06629.02907.06714.02284.06726.0154.0664.00677.06482-.00024.03162-.00286.03076-.00561.03-.00853.029-.0116.02808-.01481.02685-.01819.02564-.02171.02429-.0188.01624-.02109.01342-.02327.011-.0253.00867-.05614.01159-.06259.00513-.29281-.00452-.08735.00269-.08943.00915-.09082.017-.09149.02637-.09148.03711-.09074.04944-.08933.06311-.08717.07837-.0721.07971-.06047.08288-.04919.08545-.03822.08777-.02755.08924-.01721.09045-.00717.09119.00255.09118.01195.091.021.09008.02982.08875.03825.08679.0464.0846.05423.08166.06176.07837.06893.07446.07911.07056.08465.05945.08942.0487.09338.03809.09654.02771.09894.01758.10051.00757.10131-.00208.10131-.01172.10053-.021.09892-.03.09656-.03894.0934-.04773.08943-.056.08467-.06446.07912-.07238.08565-.09192.0754-.09449.06554-.09692.056-.099.0468-.10083.038-.10266.02945-.10413.02125-.10534.01345-.10657.00593-.1073-.00119-.108-.008-.10852-.01447-.10877-.02058-.10888-.02638-.10865-.0318-.10827-.07857-.2146-.09622-.2107-.11113-.20507-.12334-.19776-.13278-.18884-.13951-.17822-.14349-.1659-.14475-.152-.12759-.12171-.13069-.11316-.13363-.10486-.13636-.09643-.13892-.088-.14131-.07972-.14349-.07141-.14553-.063-.14735-.05456-.149-.04639-.1505-.038-.15178-.02979-.1529-.02136-.15384-.01306-.15459-.00488-.15517.00341-.15554.01172-.15577.0199-.1558.0282-.15564.03638-.15531.04455-.1548.05286-.15411.061-.15323.06909-.15219.0774-.15094.08557-.14952.09375-.14794.10181-.14616.11-.1442.118-.142.12622-.13974.1344-.10565.11377-.10027.11646-.0948.11926-.08929.1217-.08368.12391-.078.12609-.07225.12806-.06643.12976-.06054.13134-.05455.13282-.0485.13415-.04239.13513-.0362.136-.0299.13684-.02358.13733-.01715.1377-.01065.13793-.00409.13807.00256.13781.00928.13758.01607.13708.02293.13635.02988.13562.03688.13453.044.13342.05115.13208.05838.13061.0657.12879.07308.12707.08055.12488.08809.1228.09569.12037.11181.126.1247.12134.13785.1167.15123.11169.16488.10694.17877.102.19294.09692.20732.09192-.2822,1.23828-1.24811.293-.09216-.20752-.09709-.19311-.102-.179-.10688-.16492-.11173-.15124-.11658-.1377-.12138-.12439-.12616-.1112-.12024-.09583-.12257-.08825-.12474-.08081-.12673-.07349-.12855-.066-.13019-.05872-.13168-.05151-.133-.04443-.13411-.03736-.13507-.03027-.13585-.02332-.13647-.01648-.13692-.00976-.13718-.00293-.1373.00378-.1372.01026-.137.01684-.13655.02332-.136.02978-.13523.036-.13427.04224-.13318.04846-.1319.05469-.13046.06067-.12885.06665-.127.07251-.12509.07837-.123.08423-.12065.09-.11818.09546-.11552.1012-.11271.10656-.13626.13978-.128.142-.11969.144-.11141.146-.1031.14771-.09483.14929-.08652.15063-.07823.15186-.06993.15283-.06162.15381-.05333.1543-.045.1549-.03669.15528-.0284.15539-.02007.15528-.01174.15515-.00342.15466.0049.15418.01321.15344.02156.15246.02988.15149.03822.15015.04656.14868.05488.147.06325.14527.07158.14331.07992.14111.08829.13867.09663.13636.105.13354.11335.13062Z" fill="#231f20"/>
      </g>
      <g>
        <path d="M10.2419,149.18738l-.0415.041.20639.27417.199.29187.18863.3075.17532.32068.15905.33142.13981.34.11763.34607.04957.17469.04291.17529.03588.17566.02849.17566.02072.17553.01259.175.00408.1742-.0048.17309-.014.17163-.02366.17005-.03364.16809-.044.16577-.05472.16333-.06581.1604-.07728.15723-.08912.15381-.10131.15014-.11389.146-.09127.10474-.09228.09716-.09323.09-.09415.08288-.095.07581-.09585.06909-.09664.06226-.09738.05591-.09809.04943-.09874.04322-.09935.03723-.09992.03125-.10045.02551-.10093.0199-.10137.0144-.10177.00916-.10212.004-.10242-.0011-.1027-.00586-.10292-.01062-.20634-.03479-.20671-.05176-.20674-.0675-.20642-.08216-.20575-.09558-.20474-.10766-.20338-.11878-.20167-.12842-.19962-.137-.19723-.14429-.38586-.3059-.37211-.32068-.35558-.32593-.33628-.32129c-.21621-.21155-.42017-.41113-.60357-.5907-.10791-.10473-.21863-.2124-.33141-.3219q-.16536-.16827-.336-.34192L3.8989,151.444l-.3232-.376-.30576-.39038-.144-.19983L2.989,150.2749,2.86,150.06946l-.12-.20789L2.63,149.65149l-.09932-.212-.0876-.21374-.075-.21521-.06146-.21655-.047-.21753L2.228,148.358l-.01533-.21887.00188-.21924.02-.21936.01709-.10962.022-.10962.027-.10949.03206-.10938.03729-.10925.04261-.109.04807-.10889.05363-.10864.05931-.10828.06511-.10815.071-.10767.077-.10742.17261-.21362.19808-.21192.16181-.149.20944-.16736.11835-.08435.12517-.08155.1303-.07641.13373-.0686.13546-.0586.1355-.046.06724-.01758.06661-.01355.06577-.009.06472-.00452.06345.00049.062.00574.06029.01135.0584.01721.05629.02344.054.02991.05143.03674.04869.04382.03283.03772.02734.04224.02234.04675.01778.05078.01369.05469.01008.05823.01113.126-.00082.28247-.00687.30847.00544.17639.01827.18079.03406.184.02386.09253.02892.09277.03434.09265.04012.09253.04628.09216.0528.09156.05969.09069.067.08985.07458.0885.08258.08728.07964.07593.08137.06982.083.06409.08444.05823.0858.05249.087.04687.08812.04138.08907.03589.08992.0304.09062.02514.09122.02.09167.01477.092.00965.09221.00476.09228-.00012.09224-.005.092-.00977.09176-.0144.09132-.01892.09077-.02344.09007-.02783.08927-.03223.17558-.07715.17081-.0935.165-.10913.1582-.12427.15037-.13867.07407-.07861.06845-.08155.06288-.08447.05736-.08691.05191-.08948.0465-.09155.04115-.09351.03585-.09546.03061-.09692.02543-.09839.02029-.09961.01521-.10047.0102-.10144.00522-.10192.00031-.1023-.00454-.10254-.00935-.10254-.0141-.10241-.01879-.10193-.02343-.10132-.028-.10047-.03255-.0996-.037-.09827-.04145-.09693-.0458-.09533-.05012-.09339-.05437-.09155-.05858-.08923-.06272-.08692-.06682-.08435-.07085-.08142-.07484-.07849-.18609-.17273-.19121-.1521-.19591-.1322-.2002-.113-.20407-.09436-.20751-.07654-.21054-.05932-.21314-.04285-.21533-.0271-.2171-.012-.21844.00244-.21937.01611-.21987.0293-.22.04163-.21963.05322-.21888.06421-.21771.07458-.21612.08411-.21411.093-.21167.10119-.20883.10877-.20555.11572-.39962.249-.38151.26807-.36.28174-.3352.28992-.307.29235-.24587.25757-.22888.26392-.21191.26977-.195.27539-.178.28064-.16112.28528-.14423.28992-.12735.29395-.1105.2976-.09366.301-.07684.30408-.06005.30664-.04327.309-.02652.31079-.00977.31237.007.31348.02364.31433.04033.3147.057.31482.07364.31457.09026.31385.10686.31286.12345.3114.14.3097.15657.30761.17309.30506.1896.30224.20609.29895.22256.29541.239.29151.25544.28711.27186.28235.2296.2135.23531.20263.24065.19165.24564.18042.2503.16907.25458.15759.25853.146.26212.13428.26537.12231.26825.11011.2708.098.273.08557.27482.07312.27631.06043.27745.04761.27824.03454.27868.02149.27876.00817.27849-.00524.27788-.0188.27691-.03247.2756-.04651.27392-.06043.27191-.07458.26954-.08887.26682-.10339.26374-.118.26033-.13281.25655-.14782.25243-.16272.248-.17811.24313-.19335.12881-.10962.12641-.11609.124-.12256.12157-.12927.11912-.13587.11666-.14258.22593-.30566.216-.33337.2059-.36158.19575-.39026.1855-.41955,2.5039.56934.5874,2.52441q-.21436.0954-.41839.18628-.19962.10034-.38969.196l-.36139.20594-.33344.21582-.30589.2257-.14273.11646-.136.119-.12928.12134-.12262.1239-.116.12634-.10946.12878-.19355.24317-.17827.2478-.16313.25208-.14813.25622-.13326.25977-.11855.26318-.104.266-.08952.2688-.07521.271-.06105.27282-.047.27454-.03314.27564-.01939.27661-.00578.27722.00769.27734.021.27722.03421.27661.04726.27588.06018.27466.07294.2732.08558.27124.09807.269.11043.26636.12265.26355.13472.26025.14666.25671.15846.25269.17012.24841.18163.24378.193.23877.20426.23339.21536.22767.28238.27551.28694.25879.29115.24194.295.22522.2985.2085.30163.19165.30441.17492.30683.15808.30889.14136.31061.12451.31195.10767.31294.09094.31357.0741.31386.05725.31377.04053.31333.02368.31254.00684.31139-.00989.30987-.02686.308-.04358.30578-.06054.3032-.07727.30027-.09412.297-.111.29331-.12781.2893-.14478.28492-.16149.2802-.17847.27512-.19519.26968-.21216.26387-.229.25772-.246.28925-.3031q.14119-.162.28843-.3313l.28185-.3562.2695-.37793.25138-.39624.1171-.204.11042-.20727.103-.21033.09488-.21277.086-.215.07644-.21656.06616-.218.05514-.21875.04341-.21924.031-.21936.01777-.21887.00389-.21827-.01073-.21691-.02607-.21546-.04212-.21338-.0589-.21106-.0764-.20813-.09461-.20495-.11356-.2013-.13321-.19714-.15359-.19275-.1747-.18787-.07845-.075-.08133-.07092-.084-.06665-.08651-.0625-.08881-.05823-.09092-.05395-.09284-.04956-.09456-.04517-.0961-.04077-.09744-.03626-.09858-.03161-.09955-.02722-.10031-.02246-.10089-.01783-.10126-.01306-.10145-.00842-.10146-.00342-.10125.00122-.10087.00635-.10029.01111-.09952.01623-.09855.02112-.09741.02637-.09605.03149-.09451.0365-.09278.04187-.09087.04712-.08874.05249-.08643.05774-.08394.06323-.08125.06861-.07836.07409-.13894.15-.125.15735-.11034.16381-.095.16944-.07887.17383-.06205.17749-.0245.08984-.02.09033-.01546.09082-.0108.09107-.00606.09118-.00123.09131.0037.09131.00871.09107.01382.09069.019.09034.0243.08984.02966.08923.03513.08838.04068.08753.04632.08642.05206.08533.05788.08411.06379.08276.0698.08118.07589.07971.091.0863.09136.07727.09167.069.09188.06091.092.05335.092.04626.092.03968.0918.03357.09155.02783.09121.02258.181.0315.17851.01611.17527.00452c.20991-.00379.4151-.00745.58886-.01062l.124.00854.05677.00818.05288.0116.04866.01538.04416.01941.03932.024.03418.02893.04744.05237.0401.05469.03306.05676.02632.0586.01988.06042.01375.06177.0079.06323.00237.06421-.00286.06531-.0078.06592-.01242.0664-.01676.0669-.04529.13391-.059.13305-.0703.13062-.07917.12659-.08565.121-.08971.11389-.09136.10535-.09061.09509-.08743.08349-.08186.07007-.22758.18238-.22529.16088-.223.14014-.22081.12-.21864.10046-.21651.08167-.21442.06347-.21238.0459-.21037.02893-.20842.0127-.2065-.00293-.20463-.01783-.2028-.03222-.201-.046-.19927-.059-.19756-.07141-.1959-.08313-.19429-.09424-.19271-.10486-.19118-.1145-.18969-.12378-.18825-.13233-.37233-.28759-.36706-.31409-.36213-.33533-.35755-.35156-.35331-.36243-.59625-.60681-.663-.69983-.33109-.37768-.31726-.39209-.15027-.20069-.143-.20312-.13445-.20545-.12465-.20727-.11356-.20862-.10121-.20984-.08758-.21057-.07269-.21094-.05651-.21106-.03907-.21057-.01261-.1051-.00776-.10486-.00277-.10461.00238-.10437.00771-.10388.01316-.10352.01881-.10315.02459-.10254.03054-.102.03665-.10156.04291-.10083.04934-.10022.05593-.09949.06267-.09863.06957-.0979.07663-.09705.08385-.09619.09124-.09521.09876-.09424.10647-.09314.14616-.11389.15017-.10132.15388-.08911.1573-.07727.16042-.06592.16325-.05481.16577-.04407.168-.03369.16994-.0238.17158-.01429.17292-.005.174.00378.17471.01233.17517.02039.17533.02807.17518.0354.17474.04236.174.04895.34465.11609.33815.13806.3293.157.31808.17273.30447.18566.2885.19568q.13746.10291.27015.20252l.042-.04151-.39381-.63549-.2132-.36719-.21807-.39575-.21841-.42127-.21427-.44324-.20562-.46215-.19247-.47779-.17481-.49023-.15264-.49927-.06661-.25207-.05938-.25306-.05158-.25378-.04323-.25391-.03431-.2539-.02483-.25318-.01479-.25232-.00418-.251.007-.249.01873-.24694.031-.24439.04388-.24133,7.5854-.002v-1.40136H18.862v-6.665H17.4596v7.58008l-.2479.041-.24982.02881-.25141.01709-.25266.00586-.25357-.00488-.25416-.015-.25439-.02478-.25429-.03381-.25387-.04248-.25309-.05066-.252-.05811-.25055-.0653-.49543-.14978-.48562-.17188-.47312-.18982-.45794-.20373-.44006-.21338-.41948-.219q-.20272-.11279-.39621-.22058-.19057-.11205-.37026-.21777C10.659,149.45044,10.44014,149.31238,10.2419,149.18738Z" fill="#231f20"/>
        <rect x="21.0973" y="143.80652" width="4.4322" height="4.43164" fill="#231f20"/>
        <path d="M1.11,157.661l-.14309.15-.14264.16394-.13934.17627-.13322.18713-.12424.196-.11241.20362-.09776.20935L.137,159.161l-.03268.10791-.02724.10828-.02144.10852-.01529.10864-.00879.10828-.00192.108.0053.10742.01286.10669.0208.10559.02908.10449.03771.103.04671.10144.05605.09973.06576.09766.07582.09534.08623.093.079.07215.08434.06384.08894.05542.09276.04687.09581.03809.09811.02905.09965.0199.10041.01062.10043.0011.09967-.00867.09814-.01855.09587-.02857.09282-.03882.089-.04931.08444-.05994.0791-.07068.0688-.07409.06187-.07788.05459-.08106.04695-.08374.039-.08606.03064-.08789.022-.08923.01292-.09.00354-.09033-.0062-.09033-.01628-.0896-.02672-.08863-.03751-.08715-.04864-.08509-.06013-.08252-.072-.07971-.09016-.08069-.09076-.06408-.091-.04908-.0909-.036-.09045-.02478-.08963-.0155-.08846-.00793L1.299,159.244l-.29069.00513-.06165-.00428L.892,159.235l-.02425-.00757-.022-.00977-.01959-.012-.017-.01441-.02354-.02587-.0199-.0271-.01642-.02808-.01307-.02905-.00988-.02979-.00685-.03064-.004-.03125-.0012-.03174.00523-.06482L.734,158.827l.02242-.06629.02924-.06567.03486-.06458.0393-.06262.08715-.11645.09062-.09949.08457-.07666.11259-.09021.11146-.07971.11035-.06934.10925-.05945.10818-.04968.10714-.04041.1061-.03149.10509-.0227.10411-.01429.10313-.00634.10219.00146.10126.00879.10036.016.09946.02271.09861.02929.09776.03528.09693.04114.09613.04675.18994.10864.187.12671.18417.14246.18152.15564.17906.16614.35135.35363c.08908.09058.189.192.29539.3l.32832.34619.16393.18689.15706.194.14516.19983.12823.20423.05619.10327.05007.10388.04332.10425.03594.10437.02793.10437.0193.10437.01.10388.00014.10339-.0104.10266-.02154.10181-.03333.10083-.04575.09949-.05878.09814-.07246.09644-.08675.09473-.10169.09277-.07223.05627-.07423.05-.07608.04407-.07779.03809-.07934.03259-.08076.0271-.082.02173-.08312.01672-.0841.01172-.08491.007-.08559.00256-.08611-.00195-.17321-.01612-.17353-.03137-.17269-.04516-.17067-.05738-.16746-.06823-.16307-.07764-.15752-.08545-.15077-.09192-.14285-.09668-.13376-.10022-.0195.02051.18192.293.19911.349.20166.39428.09722.21094.09236.21826.0857.22437.07718.229.06685.23242.05469.23462.04069.23523.02487.23474.00721.23291-.00358.11524-.00868.11438-.05345-.02661-.05512-.02332-.05668-.0199-.05814-.01648-.05948-.01293-.06072-.0094-.06184-.00562-.06287-.00195-.10157.00512-.09861.015-.09513.02441-.09117.03333L2.88,165.094l-.08176.04969-.07632.057-.07038.064-.06395.07031-.057.07629L2.481,165.493l-.04169.08667-.03329.09107-.02439.09509-.015.09839-.00511.10144.00511.10144.015.09851.02439.09509.03329.09119.04169.08667.04961.08179.057.07641.06395.07044.07038.06408.07632.05713.08176.04968.08671.04175.09117.03345.09513.02441.09861.015.10157.00513.10119-.00513.09834-.015.095-.02441.09111-.03345.08674-.04175.08185-.04968.07647-.05713.07057-.06408.06417-.07044.05725-.07641.04984-.08179.04192-.08667.03348-.09119.02455-.09509.0151-.09851.00514-.10144-.00667-.11121-.01918-.10766-.03043-.1034-.04042-.09863.11729-.009.11786-.00415.23688.006.23751.02331.237.03894.23542.05286.2327.06506.22887.07569.22393.08435.21786.09155.21069.09692.39542.20313c.1237.07141.24213.13977.35336.2041l.30239.19141.02-.02149-.10188-.13537-.09829-.14429-.09322-.152-.08669-.15857-.07869-.16394-.0692-.16821-.05824-.17127-.04583-.17309-.03192-.17395-.01655-.17346-.002-.08618.00235-.0857.00692-.085.01169-.08423.01664-.08313.02177-.082.02708-.08081.03259-.07934.03826-.07789.04414-.07605.05019-.07434.05643-.07226.09087-.09986.09277-.08557.09451-.07165.09607-.05847.09745-.0459.09867-.03394.09972-.02246.10059-.01172.10129-.00146.10182.00818.10218.01721.10236.02563.10237.03333.10222.04065.10188.04724.10138.05334.20056.12232.19649.13916.191.15124.18421.15869.34243.32032.29862.29223c.10571.10511.21687.2157.33061.32874l.165.1781.16.18616.15135.19323.13906.19934.12316.20459.05448.104.04915.10486.04335.10583.03711.10657.03041.10718.02326.10766.01566.108.0076.10839-.00091.10852-.00988.10852-.01929.10853-.02917.10839-.03949.108-.05027.10766-.06149.10718-.07319.10657-.08533.10583-.09791.10486-.07984.0741-.10356.083-.12057.08228-.06456.03784-.06629.03406-.06719.029-.06724.02283-.06646.0155-.06483.00672-.03154-.00025L10.3418,168.64l-.03-.00561-.02907-.00855-.028-.01159-.02688-.01489-.02564-.01819-.02429-.02173-.01621-.01868-.01348-.02112-.011-.02331-.0087-.02527-.0115-.05615-.00523-.06263.00458-.29284-.00272-.08728-.00913-.08948-.017-.09082-.02634-.09143-.03714-.09155-.04941-.0907-.06313-.08936-.07832-.08716-.07974-.072-.08287-.06054-.08553-.0492-.08766-.03821-.08931-.02746-.09046-.01721-.09111-.00721-.09126.00257-.09091.012-.09006.021-.08872.02978-.08688.03821-.08453.04651-.08169.0542-.07836.06177-.07451.06884-.07049.0791-.05948.08472-.04868.08936-.03809.09338-.02772.09656-.01756.099-.0076.10046.00213.10132.01166.10132.021.10046.03007.099.039.09656.04764.09338.05611.08948.06436.08459.0724.07911.092.08569.09452.07544.09685.06555.099.05591.1009.04687.10261.038.10411.02942.10541.02124.1065.01342.10737.006.108-.00122.10851-.00806.10876-.01441.10882-.02063.10865-.02636.10829-.03174.21465-.07861.21067-.0962.20506-.1112.19777-.12329.18881-.13282.17821-.13952.16593-.14343.152-.14478.12163-.12756.11323-.13074.10483-.13355.09644-.13635.08806-.13891.0797-.14136.07134-.14356.063-.1455.05466-.14734.04632-.14905.038-.15039.0297-.15186.0214-.15283.01312-.15393.00485-.15454-.00343-.15515-.01168-.15552-.01993-.15588-.02816-.15576-.03639-.15564-.04461-.15528-.05281-.15478-.061-.15418-.0692-.1532-.07737-.15222-.08554-.15088-.09369-.14953-.10184-.14795-.11-.14612-.1181-.14429-.12622-.142-.13433-.13978-.11376-.10559-.11656-.10034-.11921-.09472-.12167-.08936-.124-.08362-.12607-.078-.128-.07227-.12979-.06653-.13139-.06042-.13282-.05457-.13406-.04858-.13515-.04236-.13606-.03613-.13678-.03L9.557,162.546l-.13773-.01709-.13794-.01062-.138-.00415-.13784.00256L8.868,162.526l-.13706.01611-.13642.02295-.13558.02979-.13459.037-.13341.04394-.13207.05115-.13055.05835-.12886.06567-.127.07312-.125.08057-.12274.08813-.12036.09558-.126.11182-.12136.12476-.1166.13781-.1118.15125-.10692.16492-.102.17871-.097.193-.09192.20728-1.2383-.28223-.2929-1.24805.2075-.09216.19311-.09717.17894-.10193.165-.10693.15122-.1117.13768-.11657.12434-.12134.11123-.12622.09585-.12024.0883-.12256.08081-.12475.07339-.12671.066-.12854.05876-.13025.05154-.13159.0444-.13306.03731-.134.03031-.13514.02336-.13586.01649-.13648.00969-.13684.003-.1372-.00372-.13733-.01032-.13721-.01685-.137-.02331-.1366-.02971-.13586-.036-.13526-.04229-.13427-.04849-.13318-.0546-.132-.06066-.13037-.06665-.12891-.07256-.12707-.07841-.125L6.22,158.36731l-.0899-.12061-.09555-.11816-.10112-.11548-.10663-.11279-.13971-.13623-.142-.12793-.14407-.11975-.146-.11133-.14771-.10315L4.9581,157.207l-.15065-.08655-.15186-.07824-.15288-.06983-.15373-.06164-.15441-.05335-.1549-.045-.15522-.03662-.15537-.02845-.15533-.02-.15511-.01184-.15473-.00341-.15416.00488-.15342.0133-.1525.02149-.15141.02991-.15013.0382-.14868.04664-.147.0548-.14525.06324-.14327.07165-.1411.08-.13877.08826-.13626.09655-.13357.105-.13069.11341Z" fill="#231f20"/>
      </g>
    </g>
    <path d="M150.6674,18.66736v132h-132v-132h132m1-1h-134v134h134v-134Z"/>
  </g>
  <g id="tagline">
    <g id="text-box">
      <rect x="29.6674" y="29.66736" width="110" height="75.79164" fill="#29abe2"/>
    </g>
    <g id="tagline-2" data-name="tagline">
      <rect x="29.6674" y="108.17158" width="110" height="31.82911" fill="#29abe2"/>
    </g>
  </g>
  <g id="no-tagline">
    <rect id="text-box-2" data-name="text-box" x="28.27391" y="28.66736" width="109" height="111" fill="#d9e021"/>
  </g>
</svg>
