<svg xmlns="http://www.w3.org/2000/svg" viewBox="0 0 153.57289 133.41736">
  <title>shape</title>
  <g id="shape">
    <g>
      <path d="M39.90015,2.00626l74.47709.40676,36.88626,64.7024L113.67271,131.4111l-74.47709-.40677L2.30937,66.30194,39.90015,2.00626M38.75638,0,0,66.28931,38.03,132.998l76.78645.41934,38.75641-66.28931L115.54283.41934,38.75638,0Z"/>
      <path d="M94.32079,2.67056l46.69146,47.20429-17.53436,64.03808L59.25206,130.7468,12.56064,83.54251,30.095,19.50443,94.32079,2.67056M94.93068.44315,28.47093,17.86255,10.32669,84.12805l48.31548,48.84616,66.45977-17.41937L143.2462,49.28931,94.93068.44315Z"/>
      <path d="M47.64793,15.59671l58.83356.32129L135.62,67.03l-29.695,50.79065-58.83354-.32129-29.13847-51.112,29.695-50.79065m-1.14375-2.00629L15.64357,66.37476,45.9258,119.493l61.14288.33392L137.92931,67.0426,107.64708,13.92435l-61.1429-.33393Z"/>
    </g>
  </g>
  <g id="tagline">
    <g id="text-box">
      <rect x="36.36491" y="31.1691" width="81" height="49" fill="#29abe2"/>
    </g>
    <g id="tagline-2" data-name="tagline">
      <rect x="36.36491" y="82.1691" width="81" height="16" fill="#29abe2"/>
    </g>
  </g>
  <g id="no-tagline">
    <rect id="text-box-2" data-name="text-box" x="35.78644" y="29.1691" width="82" height="70" fill="#d9e021"/>
  </g>
</svg>
