<svg xmlns="http://www.w3.org/2000/svg" viewBox="0 0 164.06694 166.48775">
  <title>shape</title>
  <g id="shape">
    <g>
      <path d="M164.02935,83.96344A82.003,82.003,0,0,1,.374,89.29678C-1.12552,72.29023,3.738,54.761,12.88386,40.43267A82.02443,82.02443,0,0,1,162.99234,71.24106a71.00547,71.00547,0,0,1,1.034,12.84839c-.01219.56975-.00911,1.14041-.00449,1.71024.00094.11538.00756.89488.0171.44844a90.83767,90.83767,0,0,0-2.61678-24.95144A82.0136,82.0136,0,0,0,.42985,74.12694C-1.17145,90.92606,1.66,107.99744,9.617,122.95163A82.021,82.021,0,0,0,162.80039,98.84934a84.25509,84.25509,0,0,0,1.23561-12.4752C164.05523,85.6231,164.01421,84.555,164.02935,83.96344Z"/>
      <path d="M159.72826,83.64879A77.19038,77.19038,0,0,1,5.69585,88.86693C4.24246,72.85978,8.83144,56.33921,17.43331,42.84862A77.21086,77.21086,0,0,1,158.71763,71.60576a66.39429,66.39429,0,0,1,1.00765,12.169c-.01211.56975-.00911,1.1404-.00449,1.71024.00094.11538.00762.89488.01711.44844a86.11094,86.11094,0,0,0-2.41893-23.452A77.3208,77.3208,0,0,0,112.44185,10.598,77.21082,77.21082,0,0,0,5.731,74.38157c-1.50418,15.7989,1.10679,31.85316,8.55591,45.93878A77.20758,77.20758,0,0,0,158.56263,97.856a79.28006,79.28006,0,0,0,1.17228-11.7965C159.75424,85.30845,159.713,84.24029,159.72826,83.64879Z"/>
      <path d="M157.18232,79.58787A71.54969,71.54969,0,0,1,14.4166,84.53519c-1.36991-14.794,2.91025-30.0919,10.85288-42.56046A71.56845,71.56845,0,0,1,156.21669,68.431a60.86737,60.86737,0,0,1,.96264,11.28285c-.012.56976-.00911,1.1404-.00448,1.71024.00093.11538.00769.89489.0171.44844A80.61652,80.61652,0,0,0,154.995,60.14228a71.30612,71.30612,0,0,0-8.64643-20.18448A71.55383,71.55383,0,0,0,14.44385,70.943c-1.40484,14.646.956,29.53864,7.82307,42.62116A71.56522,71.56522,0,0,0,156.10537,92.91667a73.59216,73.59216,0,0,0,1.08359-10.9181C157.20842,81.24754,157.167,80.17936,157.18232,79.58787Z"/>
    </g>
  </g>
  <g id="tagline">
    <g id="text-box">
      <rect x="54.44147" y="8.88239" width="63.17841" height="104.5712" transform="translate(22.85891 145.73825) rotate(-88.65414)" fill="#29abe2"/>
    </g>
    <g id="tagline-2" data-name="tagline">
      <rect x="70.97262" y="58.16406" width="30.25826" height="104.5712" transform="translate(-26.33976 193.93347) rotate(-88.65414)" fill="#29abe2"/>
    </g>
  </g>
  <g id="no-tagline">
    <rect id="text-box-2" data-name="text-box" x="31.84178" y="28.24281" width="107" height="96" fill="#d9e021"/>
  </g>
</svg>
