<svg xmlns="http://www.w3.org/2000/svg" viewBox="0 0 202.7617 132.7616">
  <title>shape</title>
  <g id="shape">
    <g>
      <path d="M.87375,15.11536,4.40015,17.229,2.24975,57.69141c1.0801.80981,2.1606,3.64123,2.1606,6.47216a2.22524,2.22524,0,0,0,0,4.44861c0,2.83057-1.0805,5.663-2.1606,6.47119l2.1489,40.44043-3.5249,2.1128h7.7319l-3.5361-2.12,2.148-40.43323c-.8638-.80822-1.9439-3.64062-1.9439-6.47119a2.22526,2.22526,0,0,0,0-4.44861c0-2.83093,1.0801-5.66235,1.9439-6.47216L5.06805,17.23633l3.5376-2.121Z" fill="#003c7a"/>
      <path d="M101.38084.87366l-1.7783,3.52649L65.55905,2.24963c-.6813,1.0802-3.06355,2.16065-5.44541,2.16065-.1693-1.08045-.85052-2.16065-1.871-2.16065-1.02092,0-1.70222,1.0802-1.87183,2.16065-2.38155,0-4.76459-1.08045-5.44463-2.16065L16.9011,4.39856,15.12357.87366V8.60559l1.78367-3.53613,34.0189,2.14807c.68-.86389,3.06308-1.944,5.44463-1.944.16961,1.08008.85091,2.16028,1.87183,2.16028,1.02052,0,1.70174-1.0802,1.871-2.16028,2.38186,0,4.76411,1.08008,5.44541,1.944L99.59639,5.068l1.78445,3.5376Z" fill="#003c7a"/>
      <path d="M187.64626.87366l-1.77832,3.52649L151.82445,2.24963c-.68129,1.0802-3.06356,2.16065-5.44541,2.16065-.16929-1.08045-.85052-2.16065-1.871-2.16065-1.02092,0-1.70221,1.0802-1.87183,2.16065-2.38155,0-4.76459-1.08045-5.44463-2.16065l-34.025,2.14893L101.389.87366V8.60559l1.78368-3.53613,34.0189,2.14807c.68-.86389,3.06308-1.944,5.44463-1.944.16962,1.08008.85091,2.16028,1.87183,2.16028,1.02052,0,1.70175-1.0802,1.871-2.16028,2.38185,0,4.76412,1.08008,5.44541,1.944L185.86179,5.068l1.78447,3.5376Z" fill="#003c7a"/>
      <path d="M201.888,117.64624l-3.52639-2.11365,2.15039-40.4624c-1.0801-.80981-2.1606-3.64123-2.1606-6.47217a2.22524,2.22524,0,0,0,0-4.44861c0-2.83056,1.0805-5.663,2.1606-6.47119L198.363,17.23767,201.888,15.125h-7.7319l3.5361,2.12-2.148,40.43322c.8638.80823,1.94391,3.64063,1.94391,6.47119a2.22526,2.22526,0,0,0,0,4.44861c0,2.83094-1.08011,5.66236-1.94391,6.47217l2.14951,40.45508-3.5376,2.121Z" fill="#003c7a"/>
      <path d="M101.38084,131.88794l1.77832-3.52649,34.04349,2.15039c.68129-1.08008,3.06355-2.16052,5.44541-2.16052.16931,1.08044.85052,2.16052,1.871,2.16052,1.02092,0,1.70223-1.08008,1.87183-2.16052,2.38155,0,4.76459,1.08044,5.44463,2.16052l34.02505-2.1488,1.77753,3.5249V124.156l-1.78368,3.53613-34.0189-2.14807c-.68.86377-3.06308,1.944-5.44463,1.944-.1696-1.0802-.85091-2.16028-1.87183-2.16028-1.02052,0-1.70173,1.08008-1.871,2.16028-2.38186,0-4.76412-1.0802-5.44541-1.944l-34.03734,2.14953-1.78447-3.53759Z" fill="#003c7a"/>
      <path d="M15.11545,131.88794l1.77832-3.52649,34.04348,2.15039c.6813-1.08008,3.06355-2.16052,5.44541-2.16052.1693,1.08044.85052,2.16052,1.871,2.16052,1.02092,0,1.70221-1.08008,1.87182-2.16052,2.38155,0,4.76459,1.08044,5.44463,2.16052l34.025-2.1488,1.77754,3.5249V124.156l-1.78367,3.53613-34.01891-2.14807c-.68.86377-3.06308,1.944-5.44463,1.944-.16961-1.0802-.8509-2.16028-1.87182-2.16028-1.02053,0-1.70175,1.08008-1.871,2.16028-2.38186,0-4.76411-1.0802-5.44541-1.944L16.89992,127.6936,15.11545,124.156Z" fill="#003c7a"/>
      <g>
        <path d="M0,.0127.07928.34094l.07084.344.1165.69738.08317.64734.05011.522.23991.101.2433.11047q.242.121.49474.24744.24687.137.50222.27856l.50561.30481.50494.32654.5002.34314.49137.3551.4785.36231q.2335.18438.46154.36462l.44051.36218c.28126.24488.55047.47925.80166.698l.353.32617.3157.30445.27432.2782.22887.24682-.0449.04492q-.55263-.36291-1.07187-.70385Q5.856,6.739,5.60192,6.58118l-.5035-.29981q-.24942-.14208-.488-.27783l-.4711-.25513q-.23251-.11883-.45277-.23156-.223-.10693-.43305-.20752l-.41192-.18274L2.4522,4.96948q-.19026-.06829-.36543-.131-.1779-.05457-.34009-.10412l-.31332-.07654-.14619-.02771-.139-.02063-.13158-.01331-.124-.006-.11627.00146L.668,4.60059l.06267.27075.05541.27478.0931.54529.14382.95691.323.00476.31732.01391.31151.02271.30552.03088.29938.03858.29309.04589.5666.11182q.275.069.53945.13538.2609.0791.511.155.24621.08733.48122.17089.23094.09395.45015.183l.41779.1914q.19854.10145.38413.19605l.34916.19678.3129.19384q.14513.09852.27533.187l.23647.17639.1963.16211.15483.144-.045.04382-.36932-.12146-.38813-.11377q-.199-.05181-.40381-.10534L6.12549,8.6156l-.42576-.08716-.432-.07715L4.8325,8.38452l-.4352-.05566-.43208-.04431-.42584-.03223q-.211-.01006-.41646-.01965L2.719,8.22595q-.1983.00366-.3883.007-.18954.011-.36952.02112-.17915.0185-.3476.03576L1.291,8.3407l.07552.29089.06094.30029.04842.30237.038.29712.08914.991q.395-.11682.76423-.22608.37405-.09282.72371-.17944.35369-.0705.68445-.13623.33392-.0498.64642-.09656.31478-.03112.60963-.06018.29628-.0141.57409-.02746.27843.00109.53978.00207.26122.01428.5067.02783.24472.02583.47489.0503l.44429.06933.415.08484.38685.09693.36.10546.33435.11072q.31935.1192.59679.223l-.04646.10267-.03888.1073-.031.1112-.02293.1145-.01456.11707-.006.119.00291.12036.012.121.02141.121.03105.12036.04094.119.05108.11719.06148.1145.07214.11121.08305.10742.09421.10278.06378.06067.066.05676.068.05286.06994.04895.0717.04492.07332.04114.07478.03723.07611.03321.15558.0548.15911.03919.16145.02344.16263.00781.16263-.00781.16146-.02344.1591-.03919.15559-.0548.0761-.03321.07478-.03723.07332-.04114.0717-.04492.06994-.04895.068-.05286.066-.05676.06377-.06067.05672-.05981.053-.06214.04937-.06457.04569-.06665.042-.06873.0383-.07055.03459-.07215L12.73,11.8551l.05059-.15136.03563-.15564.0206-.1587.00553-.1604-.00962-.16088-.02482-.16016-.0401-.1582-.05544-.155-.07083-.15052-.04121-.07324-.04509-.07165-.049-.07-.05286-.068-.05675-.06592-.06066-.06384-.10285-.09436-.10741-.08313-.11132-.07227-.11457-.0614-.11717-.05115-.11911-.04089-.12039-.031-.121-.02136-.121-.012-.12033-.00293-.119.006-.117.01453-.11436.02294-.11106.031-.10711.0387-.1025.04626L10.28652,9.124l-.11076-.33423-.10558-.36-.09694-.38672L9.8884,7.62817l-.06929-.44433-.0503-.47473L9.741,6.20239,9.739,5.66272l.02743-.5741L9.82671,4.479l.09652-.64636.13623-.68432.1794-.72364.226-.76416c-.24517-.02221-.60064-.05432-.99125-.08972l-.29724-.038L8.874,1.4845l-.30018-.06079-.29066-.0752-.0435.31494-.03021.34192-.01726.3656-.00464.38587.00766.403.01961.41663.03125.42688.04254.434.05351.43762.06415.43786.07446.43494.08444.42859.09408.41894.1034.40589.11238.38965.121.36987-.0449.04492-.144-.15478-.16214-.19617-.1765-.23645-.18707-.27527-.19385-.31274L7.89079,6.281l-.19608-.384-.1915-.41772-.18314-.4502-.171-.48108L6.994,4.03711,6.8586,3.4978l-.11188-.56653-.04594-.293L6.66212,2.339l-.03088-.30554-.02265-.3114-.01394-.31726L6.5899,1.08191c-.26725-.04053-.60034-.09107-.95681-.14526L5.08776.84338,4.81319.78809,4.543.72559,4.53414.83386,4.53276.9502l.006.124.01334.13171.02059.13892.02773.14624.07655.31335.10412.34021.131.36548.15717.38941L5.252,3.3114l.20748.43311.2316.45276.255.47119q.13577.2384.2778.488l.29985.50342.32123.5177q.34049.51837.70385,1.07178l-.0449.04394-.24682-.22851-.27806-.274q-.14425-.14942-.30448-.31543l-.32611-.3529c-.21867-.2511-.453-.52027-.69792-.8014L5.2883,4.88062l-.36465-.46155-.36228-.47852-.35513-.49133L3.86308,2.949l-.32641-.505-.30485-.50562L2.95333,1.436,2.706.94128,2.5955.69788l-.1009-.24L2.25529.4353,1.97864.401,1.34657.30188.66486.16956Z" fill="#231f20"/>
        <polygon points="15.121 8.601 12.646 4.735 15.121 0.868 15.121 8.601" fill="#003c7a"/>
        <polygon points="0.889 15.124 4.754 12.65 8.621 15.124 0.889 15.124" fill="#003c7a"/>
      </g>
      <g>
        <path d="M202.749,0l-.32831.07922c-.113.02332-.22807.047-.344.0708-.23341.03907-.46983.0785-.69739.11658-.22882.02942-.44864.05762-.6473.08313L200.21.3999l-.101.23987-.11051.24329-.24741.49475L199.4726,1.88l-.30489.50562-.32642.50488-.34318.50025-.35512.49133-.36229.47852q-.18448.23364-.36465.46154l-.36222.44056c-.24485.28125-.47925.55041-.69793.80163l-.32615.353-.30453.31567-.27811.27429-.24691.22889-.0449-.04493q.36289-.5526.70388-1.07177.16356-.26367.32124-.5177l.2999-.50342.27781-.488.25507-.47107.23163-.45276.2075-.4331.1827-.41187.15718-.3894.131-.36548.1041-.34009.07654-.31323.02771-.14624.02055-.13892.01332-.13159.006-.124L198.17.77625,198.1611.668l-.27076.06262L197.61549.786c-.18425.03149-.36769.06274-.5453.09314-.35637.05359-.68921.10352-.95689.1438l-.00475.323-.01393.31726-.02263.31152-.03087.30554-.03863.29932-.04593.29309-.11182.56665-.1353.53943-.155.511-.17093.4812-.18306.45019-.19142.41773-.196.38415-.19677.34925-.19379.31286-.187.27527-.17645.23645-.16211.19641-.144.15479-.0439-.045.12152-.36926.11369-.38818.10537-.40381.09648-.41626.08709-.42578.07718-.43213.06673-.43518.05577-.43518.04427-.432.03224-.4259.01968-.41639.00662-.40405-.007-.38818-.0211-.36963-.03574-.34753-.05093-.32264-.2909.07557-.30024.06091-.30232.04846-.29712.038c-.39045.03516-.74566.06714-.991.08912l.22609.76428.17945.72375.13624.68445.0965.64636.06023.60962.02738.5741-.00195.53979-.02788.50672-.05032.47485-.06931.44434-.08483.41491-.09691.38684-.10552.36-.11068.33435-.223.5968-.10272-.04651-.1073-.03881-.1112-.031-.11446-.02295-.11707-.01465-.119-.00586-.12033.00293-.121.012-.121.02148-.12035.031-.11906.04089-.11711.05115-.1145.0614-.11127.07214-.10738.08313-.10283.09412-.06066.06384-.05675.06592-.05284.06811-.04892.07-.045.07165-.0411.07337-.03717.07471-.03328.07617-.0548.15552-.03914.15918-.02348.16137-.00783.16272.00783.1626.02348.16138.03914.15918.0548.15551.03328.07618.03717.0747.0411.07337.045.07165.04892.07.05284.06811.05675.06592.06066.06384.05979.05665.06224.0531.06454.04931.06668.04578.06868.042.07052.03821.07218.03467.07372.03088.1514.05054.15564.03564.15863.02063.1604.0055.1609-.00965.16017-.02478.15822-.04016.155-.05542.15056-.0708.07323-.04126.07164-.045.0699-.04895.068-.05286.066-.05676.06377-.06067.09437-.10291.08316-.1073.07221-.11133.0615-.11462.05108-.11719.04092-.119.031-.12048.02136-.121.012-.121.00289-.12036-.006-.119-.01457-.11695-.0229-.11438-.031-.11108-.03876-.10718-.04631-.10241q.27747-.10383.59662-.22327.16179-.05365.33429-.11084.1744-.05109.35991-.10559.18759-.04687.38679-.09693.2013-.041.41489-.08483.21556-.03351.44426-.06922.23034-.02454.47482-.05029.2457-.01355.50667-.02783.26161-.00111.53973-.002.27807.01319.574.02735.29517.02929.60959.0603.31281.04669.64635.09656.33109.06591.68439.13623.35.08661.72363.17932l.76414.22607.0897-.99121.038-.29724.04834-.30237.06076-.30017.07521-.29077q-.15081-.02069-.31491-.04346l-.34192-.03015-.36558-.01733-.38593-.00464q-.19746.00384-.40292.00769-.20507.00971-.4166.01965l-.42692.03125-.43393.04248-.43759.05359-.43793.06409-.43494.07446-.42859.08448-.41891.094q-.20574.05255-.40593.10339-.19825.05731-.38959.11243l-.3699.12109-.04491-.04492.15476-.144.19621-.16211.2364-.17651q.13-.08844.27526-.187l.31283-.194.34911-.19677.38406-.196q.20259-.093.41773-.19153l.45007-.1831q.2349-.0835.48114-.171.25-.076.51089-.15515.26439-.06629.53934-.13538l.56648-.11182.293-.046.29931-.03857.30545-.03088.31142-.02271.31725-.01392.32287-.00476.14524-.95678.09327-.54541.05536-.27454.06253-.27014-.10838-.00891-.1163-.00135-.124.006-.13161.01342-.139.02051-.14621.02771-.31338.07666q-.16221.04962-.34012.10413-.17517.06262-.36548.131l-.38942.1571-.412.18262q-.21.10071-.43308.20752-.22016.11261-.45279.23157-.22968.12451-.47111.25512l-.488.27771q-.2466.14686-.50353.29993l-.5176.32117q-.51852.34058-1.07187.70386l-.0439-.04493q.10442-.11278.22853-.24682l.274-.278q.14946-.14428.31547-.30456l.35283-.326c.2511-.21875.52022-.453.80142-.698q.216-.17761.44043-.36218.22765-.17982.4615-.36463l.47849-.3623.49139-.3551.50023-.34314.505-.32642.50568-.30481q.255-.14154.50227-.27856.25253-.12617.49483-.24732l.24333-.11047.23995-.101.02267-.23926.0343-.27661.09905-.63208.13237-.68177Z" fill="#231f20"/>
        <polygon points="194.161 15.121 198.027 12.646 201.894 15.121 194.161 15.121" fill="#003c7a"/>
        <polygon points="187.638 0.889 190.111 4.754 187.638 8.621 187.638 0.889" fill="#003c7a"/>
      </g>
      <g>
        <path d="M202.7617,132.7489l-.07928-.32825-.07085-.344-.1165-.69739-.08316-.64734-.05011-.522-.23991-.10095-.24329-.1106q-.242-.12084-.49475-.24731-.24687-.137-.50221-.27857-.24974-.15051-.50562-.30493l-.50494-.32641-.50018-.34314-.4914-.35511-.47848-.3623q-.2335-.18458-.46155-.36462-.2241-.18439-.44051-.36219c-.28126-.24487-.55046-.47925-.80166-.698l-.353-.32617-.31569-.30444q-.146-.14814-.27432-.2782l-.22886-.24682.04489-.04493q.55263.36293,1.07187.70386.26354.16352.5176.32129l.50351.2998q.24942.14209.488.27784.24131.13072.47109.25512.23252.11884.45277.23157.223.10694.433.20752l.41193.18274.38937.1571q.19027.06831.36545.131.17789.05455.34007.10412l.31333.07654.14619.02771.139.02063.13158.01331.124.006.11626-.00147.10835-.00891-.06266-.27075-.05541-.27478-.09311-.54541-.14381-.95679-.323-.00476-.31733-.01392-.31149-.0227-.30553-.03088-.29939-.03858-.29307-.0459q-.28851-.05694-.56661-.11181-.275-.069-.53944-.13538-.26091-.07909-.511-.155-.24621-.08735-.48122-.1709-.23094-.09393-.45014-.183-.21507-.0987-.41779-.19153l-.38414-.19592-.34915-.19678q-.16361-.10125-.3129-.19385-.14513-.0985-.27533-.187l-.23648-.17639-.19629-.16211-.15484-.144.045-.04383.36933.12146.38814.11377q.199.05182.4038.10535l.41636.09644.42575.08715.43205.07715.43518.06665.4352.05579.43209.04431.42583.03223.41646.01965.40393.00671.38831-.00708.3695-.021q.17917-.0185.34761-.03577.16713-.02637.32257-.0509l-.07553-.291-.06093-.30017-.04841-.30237-.038-.29712-.08912-.991q-.39506.11682-.76424.22607-.374.09284-.72371.17945-.35369.0703-.68445.13623-.33391.0498-.64642.09655-.31477.03094-.60963.06018-.29627.0141-.57409.02735-.27843-.00092-.53978-.002-.26121-.01428-.50669-.02783-.24476-.026-.47489-.05029l-.4443-.06934-.41495-.08484-.38684-.09692-.36-.10547-.33437-.11072q-.31933-.11938-.59678-.223l.04646-.10266.03888-.1073.031-.1112.02293-.11451.01457-.11706.006-.119-.00292-.12036-.012-.121-.02141-.121-.031-.12036-.04094-.119-.05108-.11718-.06148-.1145-.07214-.11121-.083-.10742-.09423-.10279-.06376-.06066-.066-.05677-.068-.05285-.06994-.049-.0717-.045-.07332-.041-.07478-.03724-.0761-.0332-.15559-.05481-.15911-.03918-.16145-.02344-.16263-.00781-.16263.00781-.16145.02344-.1591.03918-.1556.05481-.07609.0332-.07479.03724-.07331.041-.07171.045-.06994.049-.068.05285-.066.05677-.06379.06066-.0567.05982-.05305.06213-.04938.06458-.04569.06665-.042.06872-.0383.07056-.03459.07214-.03089.07373-.05058.15137-.03561.15564-.02062.15869-.00552.1604.00961.16089.02483.16016.0401.1582.05543.155.07083.15051.04122.07325.04509.07165.049.06995.05286.068.05675.06592.06066.06384.10285.09436.10741.08313.11132.07214.11457.06153.11717.05115.11911.04089.12039.031.121.02137.121.012.12033.00293.119-.006.117-.01453.11435-.02295.11107-.031.1071-.0387.10251-.04639.22326.59668.11077.33423.10559.36.09692.38672.08486.41491.06929.44422.05029.47485.02783.50671.00194.53968-.02744.57409-.06024.6095-.09651.64636-.13623.68445-.1794.72363-.226.76416c.24518.0221.60065.05433.99126.08973.09725.01233.1967.02514.29724.038l.30236.04834.30018.06067.29066.07532.0435-.315.03022-.34191.01725-.3656.00464-.38587-.00766-.403-.01961-.41663-.03125-.42688-.04254-.434-.05351-.43762-.06415-.43787-.07446-.43493-.08444-.42859-.09407-.41895-.10341-.40588-.11238-.38965-.121-.36987.04491-.04493.144.15479.16214.19617.1765.23645.18707.27527.19385.31274.19685.34912.19608.384.19149.41773.18316.45007.171.4812.15509.51087.13538.5393.11187.56653.046.293.03865.29932.03088.30554.02266.3114.01393.31726.00475.32288.95682.14514c.17768.03039.36117.06189.54533.09338l.27457.0553.27018.0625.00887-.1084.00137-.11621-.006-.124-.01334-.13172-.02058-.13891-.02774-.14624-.07655-.31336-.10411-.34021-.131-.36548-.15718-.3894-.18266-.41186-.20747-.43311q-.11263-.22028-.23162-.45276l-.255-.47119q-.13575-.23841-.27779-.488l-.29986-.50342q-.15762-.25415-.32123-.5177-.34049-.51855-.70384-1.0719l.04489-.04382.24682.22852.27806.27405q.14426.1494.30448.31542l.32611.35291c.21867.2511.453.52014.69792.80139l.36221.44043.36466.46155.36227.47839.35514.49146.34315.50024.32642.505.30484.50561.2785.50232.24733.49475.11049.24341.10091.23987.2393.0227.27666.03431c.19444.03051.40873.06408.63208.099.2219.0431.45271.088.6817.13245Z" fill="#231f20"/>
        <polygon points="187.641 124.161 190.115 128.027 187.641 131.894 187.641 124.161" fill="#003c7a"/>
        <polygon points="201.873 117.638 198.008 120.111 194.141 117.638 201.873 117.638" fill="#003c7a"/>
      </g>
      <g>
        <path d="M.0127,132.7616l.3283-.07923c.11294-.02331.22808-.047.344-.0708.23343-.03906.46984-.07849.69739-.11657.22883-.02942.44865-.05762.64731-.08313l.522-.05018.101-.23986.11052-.24329.2474-.49475.27854-.5022L3.594,130.376l.32642-.505.34318-.50012.35513-.49146L4.981,128.401q.18448-.23364.36465-.46155l.36221-.44055c.24487-.28125.47925-.55041.69795-.80163l.32614-.353.30453-.31568.27811-.27441.24691-.22876.0449.0448q-.36289.5528-.70387,1.0719l-.32125.51758-.29989.50354-.27782.488-.25507.47106-.23163.45276-.20751.43311-.18269.41186-.15718.38941-.131.36548-.1041.34008-.07653.31324-.02771.14624-.02056.13891-.01332.1316-.006.124.00141.11633.00891.10828.27076-.06262.27484-.05542c.18426-.0315.3677-.06275.54531-.09314.35637-.05359.6892-.10352.95689-.1438l.00475-.323.01393-.31726.02263-.31152.03087-.30555.03864-.29944.04592-.29309.11182-.56652.13531-.53943.155-.511.17092-.4812.18306-.4502.19142-.41784.196-.384.19678-.34924.19378-.31287.187-.27526.17645-.23658.16211-.19629.144-.15478.0439.045-.12152.36927-.11369.38818-.10536.40381-.09649.41626-.08709.42578-.07718.432-.06673.4353-.05576.43518-.04427.432-.03224.4259-.0197.41638-.00662.40393.007.38831.0211.36951.03575.34765.05092.32251.2909-.07544.30025-.06091.30232-.04846.29712-.038c.39043-.03515.74565-.06714.991-.08911l-.22609-.76428-.17944-.72376-.13624-.68444-.09651-.64637-.06022-.60962-.0274-.57409.002-.5398.02787-.50671.05032-.47485.0693-.44434.08484-.41492.09691-.38684.10552-.36.11068-.33435.223-.59681.10274.04651.10729.03882.1112.031.11446.02295.11707.01452.119.006.12033-.00293.121-.012.121-.02148.12035-.031.11906-.04089.11711-.05115.11451-.0614.11127-.07214.10737-.08313.10282-.09424.06067-.06372.05675-.06592.05284-.06812.04893-.06994.045-.07166.0411-.07336.03718-.07471.03327-.07617.0548-.15552.03914-.15918.02348-.16138.00783-.16272-.00783-.16259-.02348-.1615-.03914-.15906-.0548-.15552-.03327-.07617-.03718-.07483-.0411-.07324-.045-.07166-.04893-.06994-.05284-.06812-.05675-.06592-.06067-.06384-.05978-.05664-.06224-.0531-.06454-.04932-.06668-.04577-.06868-.042-.07051-.03821-.0722-.03467-.07371-.03088-.1514-.05054-.15563-.03565-.15864-.02063-.16039-.00549-.1609.00965-.16019.02478-.15821.04-.155.05555-.15056.0708-.07322.04126-.07164.045-.06991.049-.068.05286-.066.05676-.06378.06067-.09437.10278-.08316.10742-.0722.11133-.06151.11463-.05108.11718-.04091.119-.031.12049-.02137.121-.012.121-.00288.12036.006.119.01457.11694.0229.11438.031.11109.03877.107.0463.10254q-.27747.10381-.59662.22327-.16179.05364-.33429.11084l-.35991.10547-.38679.097q-.2013.041-.41489.08484-.21556.03351-.44425.06921-.23036.02436-.47484.0503-.2457.01354-.50666.02783-.2616.00092-.53973.002-.27808-.01319-.574-.02746-.29514-.02911-.60958-.06018-.31281-.0467-.64635-.09656-.33109-.06592-.68438-.13623-.35-.08679-.72364-.17932l-.76414-.22608-.0897.99121-.038.29725-.04834.30236-.06075.30017-.07522.29065.31491.04358.34192.03015.36559.01734.38592.00464q.19746-.00386.40293-.00769.205-.00971.41659-.01966l.42693-.03125.43392-.04248.4376-.05359.43793-.06408.43492-.07447.4286-.08447.41892-.09412q.20574-.05236.40592-.10339l.38959-.1123.36991-.1211.0449.04492-.15474.14405-.19623.16211-.23639.17651-.27527.187-.31284.19385q-.1676.09466-.34909.1969l-.38407.196q-.20259.093-.41772.19153l-.45008.18311-.48114.171q-.25.076-.51088.15515-.2644.06629-.53934.13538l-.56649.11181-.293.046-.29932.03858-.30545.03088-.31143.02271-.31723.01391-.32288.00476-.14524.95679-.09327.54529-.05536.27466-.06253.27014.10838.00891.1163.00134.12405-.006.1316-.01343.139-.02051.14621-.02783.31338-.07654q.16221-.04962.34013-.10412.17515-.06262.36548-.131l.38941-.15711.412-.18274.43308-.20739.45279-.23169q.2297-.12434.47111-.255.2385-.13568.488-.27783l.50352-.2998q.254-.15766.5176-.32117.51852-.34057,1.07188-.70386l.0439.0448-.22854.24683-.274.27807q-.14946.14429-.31547.30457l-.35283.32605c-.2511.21863-.52023.453-.80142.69787q-.216.17761-.44045.36231-.22762.17981-.4615.36462l-.47848.36231-.49139.3551-.50023.34314-.505.32642-.50567.30481q-.25506.14154-.50229.27856-.25251.12617-.49482.24731l-.24334.11048-.23994.10095-.02267.23926L.401,130.783.302,131.415l-.13237.68176Z" fill="#231f20"/>
        <polygon points="8.601 117.641 4.735 120.115 0.868 117.641 8.601 117.641" fill="#003c7a"/>
        <polygon points="15.124 131.873 12.65 128.008 15.124 124.141 15.124 131.873" fill="#003c7a"/>
      </g>
    </g>
    <path d="M188.88084,13.38074v106h-175v-106h175m1-1h-177v108h177v-108Z"/>
    <path d="M184.78362,17.54749v97.66662H17.97807V17.54749H184.78362m1-1H16.97807v99.66662H185.78362V16.54749Z"/>
  </g>
  <g id="tagline">
    <g id="text-box">
      <rect x="23.26715" y="25.65857" width="155" height="54.27917" fill="#29abe2"/>
    </g>
    <g id="tagline-2" data-name="tagline">
      <rect x="23.26715" y="81.8081" width="155" height="27.85047" fill="#29abe2"/>
    </g>
  </g>
  <g id="no-tagline">
    <rect id="text-box-2" data-name="text-box" x="22.26715" y="26.65857" width="154" height="80" fill="#d9e021"/>
  </g>
</svg>
