<svg xmlns="http://www.w3.org/2000/svg" viewBox="0 0 149.39001 104.23999">
  <title>shape</title>
  <g id="shape">
    <g>
      <path d="M74.69455,10.30305l36.1955,20.899L145.38989,51.12,110.89,71.03792,74.69508,91.93671,38.5,71.03787,4.00011,51.12l34.5-19.918L74.69455,10.30305M74.7,8l-.31.17L37.5,29.47,0,51.12,37.5,72.76994,74.39,94.07l.31.17.3-.17,36.89-21.30008L149.39,51.12l-37.5-21.65L75,8.17,74.7,8Z"/>
      <path d="M74.69455,2.30305l36.1955,20.899L145.38989,43.12,110.89,63.03792,74.69508,83.93671,38.5,63.03787,4.00011,43.12l34.5-19.918,36.19449-20.899M74.7,0l-.31.17L37.5,21.47,0,43.12,37.5,64.76994,74.39,86.07l.31.17.3-.17,36.89-21.30008L149.39,43.12l-37.5-21.65L75,.17,74.7,0Z"/>
      <path d="M74.69455,20.30305l36.1955,20.899L145.38989,61.12,110.89,81.03792,74.69508,101.93671,38.5,81.03787,4.00011,61.12l34.5-19.918L74.69455,20.30305M74.7,18l-.31.17L37.5,39.47,0,61.12,37.5,82.76994,74.39,104.07l.31.17.3-.17,36.89-21.30008L149.39,61.12l-37.5-21.65L75,18.17,74.7,18Z"/>
      <g>
        <polygon points="16.243 52.282 74.695 18.533 133.148 52.282 74.695 86.03 16.243 52.282"/>
        <path d="M74.69455,19.68785,103.798,36.49191l27.34964,15.7899L103.79788,68.0717,74.6951,84.87553l-29.103-16.80387L18.24242,52.28181,45.59216,36.49187l29.10239-16.804m.00452-2.30421-.25089.13757L44.5921,34.75986,14.24232,52.28181,44.5921,69.80371,74.44818,87.04242l.25089.13757.24279-.13757,29.85608-17.23871,30.34977-17.5219L104.79794,34.75986,74.94186,17.52121l-.24279-.13757Z"/>
      </g>
    </g>
  </g>
  <g id="tagline">
    <g id="text-box">
      <rect x="39.00445" y="34.88499" width="70" height="22" fill="#29abe2"/>
    </g>
    <g id="tagline-2" data-name="tagline">
      <rect x="38.50445" y="58.88499" width="71" height="10" fill="#29abe2"/>
    </g>
  </g>
  <g id="no-tagline">
    <rect id="text-box-2" data-name="text-box" x="40.88559" y="33.88499" width="71" height="34" fill="#d9e021"/>
  </g>
</svg>
