<svg xmlns="http://www.w3.org/2000/svg" viewBox="0 0 86.60254 75">
  <title>shape</title>
  <g id="shape">
    <g>
      <path d="M43.30127,4,63.21985,38.5,83.13844,73H3.4641L23.38269,38.5,43.30127,4m0-4L21.65063,37.5,0,75H86.60254L64.9519,37.5,43.30127,0Z"/>
      <g>
        <polygon points="11.383 65.642 43.301 10.358 75.22 65.642 11.383 65.642"/>
        <path d="M43.30127,12.3577,58.39453,38.5,73.48781,64.6423h-60.373L28.208,38.5,43.30127,12.3577m0-4L26.476,37.5,9.65065,66.6423H76.9519L60.12659,37.5,43.30127,8.35769Z"/>
      </g>
      <path d="M83.13844,2,63.21985,36.5,43.30127,71,23.38269,36.5,3.4641,2H83.13844m3.4641-2H0L21.65063,37.5,43.30127,75,64.9519,37.5,86.60254,0Z"/>
      <g>
        <polygon points="11.383 9.358 75.22 9.358 43.301 64.642 11.383 9.358"/>
        <path d="M73.48781,10.35769,58.39453,36.5,43.30127,62.6423,28.208,36.5,13.11476,10.35769h60.373m3.46409-2H9.65065L26.476,37.5l16.8253,29.1423L60.12659,37.5,76.9519,8.35769Z"/>
      </g>
    </g>
  </g>
  <g id="tagline">
    <g id="text-box">
      <rect x="26.80128" y="12.5" width="33" height="34" fill="#29abe2"/>
    </g>
    <g id="tagline-2" data-name="tagline">
      <rect x="21.80128" y="51.5" width="43" height="13" fill="#29abe2"/>
    </g>
  </g>
  <g id="no-tagline">
    <rect id="text-box-2" data-name="text-box" x="27.30128" y="12.5" width="32" height="50" fill="#d9e021"/>
  </g>
</svg>
