<svg xmlns="http://www.w3.org/2000/svg" viewBox="0 0 153.57513 133">
  <title>shape</title>
  <g id="shape">
    <g>
      <path d="M114.02661,2l37.23914,64.5L114.02661,131H39.54846L2.30939,66.5,39.54846,2h74.47815m1.15473-2H38.3938L0,66.5,38.3938,133h76.78754l38.39379-66.5L115.18134,0Z"/>
      <path d="M110.56256,8l33.775,58.5-33.775,58.5h-67.55L9.23755,66.5,43.01257,8h67.55m.57733-1H42.43524L8.08289,66.5,42.43524,126h68.70465l34.35236-59.5L111.13989,7Z"/>
      <path d="M106.20477,15.54791,135.622,66.5l-29.41718,50.95209H47.37042L17.95319,66.5,47.37042,15.54791h58.83435m1.15473-2H46.2157L15.6438,66.5l30.5719,52.95209h61.1438L137.93134,66.5,107.3595,13.54791Z"/>
    </g>
  </g>
  <g id="tagline">
    <g id="text-box">
      <rect x="36.28757" y="29.8493" width="81" height="49" fill="#29abe2"/>
    </g>
    <g id="tagline-2" data-name="tagline">
      <rect x="36.28757" y="80.8493" width="81" height="16" fill="#29abe2"/>
    </g>
  </g>
  <g id="no-tagline">
    <rect id="text-box-2" data-name="text-box" x="36.09729" y="28.8493" width="82" height="70" fill="#d9e021"/>
  </g>
</svg>
