<svg xmlns="http://www.w3.org/2000/svg" viewBox="0 0 228 113">
  <title>shape</title>
  <g id="shape">
    <g>
      <path d="M114,2c30.14844,0,58.46094,5.80322,79.72205,16.34045C214.5368,28.65649,226,42.2085,226,56.5s-11.4632,27.84351-32.278,38.15955C172.46094,105.19678,144.14844,111,114,111s-58.46094-5.80322-79.722-16.34045C13.4632,84.34351,2,70.7915,2,56.5S13.4632,28.65649,34.27795,18.34045C55.53906,7.80322,83.85156,2,114,2m0-2C51.03958,0,0,25.2959,0,56.5S51.03958,113,114,113,228,87.7041,228,56.5,176.96048,0,114,0Z"/>
      <path d="M114,6.5c56.1893,0,101.90265,22.42993,101.90265,50S170.1893,106.5,114,106.5,12.09735,84.07007,12.09735,56.5,57.8107,6.5,114,6.5m0-1c-56.83157,0-102.90265,22.8335-102.90265,51S57.16843,107.5,114,107.5s102.90265-22.8335,102.90265-51S170.83157,5.5,114,5.5Z"/>
      <g>
        <path d="M114.00049,102.41687c-52.57129,0-95.34131-20.59863-95.34131-45.917s42.77-45.917,95.34131-45.917c52.57031,0,95.33984,20.59863,95.33984,45.917S166.5708,102.41687,114.00049,102.41687Z"/>
        <path d="M114,11.08337c52.29538,0,94.84073,20.37378,94.84073,45.41663S166.29538,101.91663,114,101.91663,19.1593,81.54285,19.1593,56.5,61.70465,11.08337,114,11.08337m0-1c-52.93137,0-95.8407,20.78138-95.8407,46.41663S61.06863,102.91663,114,102.91663,209.84073,82.13525,209.84073,56.5,166.93137,10.08337,114,10.08337Z"/>
      </g>
    </g>
  </g>
  <g id="tagline">
    <g id="text-box">
      <rect x="40.55157" y="21.80554" width="146.89687" height="43.4282" fill="#29abe2"/>
    </g>
    <g id="tagline-2" data-name="tagline">
      <rect x="40.55157" y="67.00632" width="146.89687" height="20.79922" fill="#29abe2"/>
    </g>
  </g>
  <g id="no-tagline">
    <rect id="text-box-2" data-name="text-box" x="42.40479" y="20.80554" width="146" height="65" fill="#d9e021"/>
  </g>
</svg>
