<svg id="shape" xmlns="http://www.w3.org/2000/svg" viewBox="0 0 116.029 24.77127">
  <title>embellishment</title>
  <g>
    <g>
      <path d="M6.9887,3.26417c1.7153.2496,2.5602,1.0545,4.146,1.0785,1.5915.0241,3.3913-1.2489,5.2125-1.2489H27.0489c7.0843,0,8.9384,5.4074,14.5384,6.1664,5.184.7026,10.6261-5.64,13.3367-4.8445.8409.2487,1.9484,2.1593,2.8138,3.2098-2.2452,2.6741-5.1738,3.851-5.2405,7.4732-.0681,3.7736,5.2885,6.4019,5.5168,9.6726v-1.6917c-1.2627-2.6104-4.8899-4.9615-4.8356-7.9746.0605-3.3006,2.5326-4.4815,4.8356-7.1538v-.6696c-.9864-1.2565-2.0294-2.978-2.9629-3.2721-2.8138-.8863-7.8145,4.5913-12.3591,4.2154-5.3477-.4428-7.5586-5.5582-14.7894-5.5582H15.1516c-1.9537,0-2.598,1.2725-4.012,1.2511-1.4203-.0218-2.1113-1.2511-3.9805-1.2511H0C2.2265,2.85167,4.7827,2.94387,6.9887,3.26417Z" fill="#2b283b" fill-rule="evenodd"/>
      <path d="M58.0141,20.21417c-.8845-1.7344-2.6906-3.5617-2.4205-5.305.2056-1.3255,1.3344-2.4027,2.4205-3.6209v-.6559c-1.9475-2.3849-4.9873-7.3504-7.2223-7.4274-2.7924-.0956-4.2781,2.8076-7.9925,2.5251-3.7446-.2866-5.7602-3.0634-10.6736-3.0634H27.561v.4271h4.1371c4.8053,0,6.4423,2.9593,10.2145,3.4901,3.8607.5437,6.271-3.0434,8.8654-2.9539,2.0383.0694,5.1938,5.2302,6.9558,7.3366-1.1426,1.3019-2.6572,2.3008-2.9019,3.8772-.3658,2.3622,2.7898,4.6225,3.1822,6.5762Z" fill="#2b283b" fill-rule="evenodd"/>
      <path d="M32.1257,3.09377h8.2269a17.8113,17.8113,0,0,1,9.5351,2.8921,23.935,23.935,0,0,1,5.8309,6.1927,16.489,16.489,0,0,0,1.859,2.4721c-1.3824,1.0661-.2336,2.7155.4365,4.0943v-.9472c-.5108-1.0141-.7947-1.742,0-2.6764v-.6318a24.692,24.692,0,0,1-2.3889-3.2036,26.38572,26.38572,0,0,0-6.1473-6.444c-1.5515-1.2094-3.2881-2.1753-6.9344-2.1753H32.1257Z" fill="#2b283b" fill-rule="evenodd"/>
      <path d="M58.0141,4.65287a4.09842,4.09842,0,0,0-1.7393.6558,29.3462,29.3462,0,0,0-4.6581,3.293,4.40911,4.40911,0,0,0-.8511,5.6076,2.94729,2.94729,0,0,1,1.5715-3.196,1.35393,1.35393,0,0,1-.2421-1.9435,24.05047,24.05047,0,0,1,4.3929-3.3927,3.82014,3.82014,0,0,1,1.5262-.598Z" fill="#2b283b" fill-rule="evenodd"/>
      <path d="M12.5104,2.66667H9.8795C9.8795,3.355,12.5104,3.355,12.5104,2.66667Z" fill="#2b283b" fill-rule="evenodd"/>
    </g>
    <g>
      <path d="M109.0403,3.26417c-1.7152.2496-2.5615,1.0545-4.1468,1.0785-1.5907.0241-3.3918-1.2489-5.2116-1.2489H88.9789c-7.0831,0-8.9371,5.4074-14.5385,6.1664-5.1827.7026-10.6261-5.64-13.3353-4.8445-.8409.2487-1.9484,2.1593-2.8138,3.2098,2.2438,2.6741,5.1738,3.851,5.2392,7.4732.0694,3.7736-5.2873,6.4019-5.5164,9.6726v-1.6917c1.2636-2.6104,4.8899-4.9615,4.8356-7.9746-.0605-3.3006-2.5326-4.4815-4.8356-7.1538v-.6696c.986-1.2565,2.0294-2.978,2.9637-3.2721,2.8125-.8863,7.8145,4.5913,12.3592,4.2154,5.3477-.4428,7.5586-5.5582,14.7894-5.5582h12.7511c1.9537,0,2.5971,1.2725,4.0107,1.2511,1.4215-.0218,2.1125-1.2511,3.9817-1.2511h7.1591C113.8025,2.85167,111.2464,2.94387,109.0403,3.26417Z" fill="#2b283b" fill-rule="evenodd"/>
      <path d="M58.0141,20.21417c.8854-1.7344,2.6914-3.5617,2.42-5.305-.2042-1.3255-1.333-2.4027-2.42-3.6209v-.6559c1.9484-2.3849,4.9882-7.3504,7.2232-7.4274,2.7911-.0956,4.2781,2.8076,7.9924,2.5251,3.7447-.2866,5.7602-3.0634,10.6737-3.0634h4.5633v.4271h-4.137c-4.8041,0-6.4423,2.9593-10.2145,3.4901-3.8595.5437-6.2697-3.0434-8.8655-2.9539-2.0369.0694-5.1924,5.2302-6.9544,7.3366,1.1426,1.3019,2.6558,2.3008,2.9006,3.8772.367,2.3622-2.7898,4.6225-3.1818,6.5762Z" fill="#2b283b" fill-rule="evenodd"/>
      <path d="M83.9034,3.09377H75.6765A17.81661,17.81661,0,0,0,66.14,5.98587a23.95037,23.95037,0,0,0-5.8305,6.1927,16.426,16.426,0,0,1-1.8594,2.4721c1.3838,1.0661.2336,2.7155-.436,4.0943v-.9472c.5117-1.0141.7955-1.742,0-2.6764v-.6318a24.558,24.558,0,0,0,2.3884-3.2036,26.41587,26.41587,0,0,1,6.1487-6.444c1.5515-1.2094,3.2867-2.1753,6.933-2.1753H83.9034Z" fill="#2b283b" fill-rule="evenodd"/>
      <path d="M58.0141,4.65287a4.10413,4.10413,0,0,1,1.7402.6558,29.33413,29.33413,0,0,1,4.6567,3.293,4.411,4.411,0,0,1,.8525,5.6076,2.94821,2.94821,0,0,0-1.5729-3.196,1.35289,1.35289,0,0,0,.2434-1.9435,24.11883,24.11883,0,0,0-4.3938-3.3927,3.81686,3.81686,0,0,0-1.5261-.598Z" fill="#2b283b" fill-rule="evenodd"/>
      <path d="M103.5186,2.66667h2.6296C106.1482,3.355,103.5186,3.355,103.5186,2.66667Z" fill="#2b283b" fill-rule="evenodd"/>
    </g>
  </g>
</svg>
