<svg xmlns="http://www.w3.org/2000/svg" viewBox="0 0 215.63464 193.42552">
  <title>icon</title>
  <g id="logo">
    <g>
      <path d="M94.1021,23.11263c58.43027-49.96572,29.96093,3.91663,39.20952,63.33847l29.49093,38.8744c11.06743-28.02042,53.52574-28.33606,49.49165-3.33175-27.60007,18.89976-26.2945,18.79707-23.352,44.88714-4.68884,10.91442-30.80465,19.7951-37.53442,24.12955.05742-.004-68.60968.00182-68.69993-.00061l-4.02149-9.38348-24.46407-.33512-12.06447-9.88616-.33512-50.77131C21.71528,111.92053,14.00742,83.435,14.00742,83.435Z" fill="#84f6ff"/>
      <path d="M171.18065,145.09782s15.75084-42.56077,36.19341-37.869c0,0-32.84217-14.07521-44.57151,18.09671Z" fill="#fff"/>
      <path d="M93.59717,23.0463c-3.38271-.41541-23.38331-2.37706-38.36948,7.10394C21.97808-.03411,29.583,44.48862,30.09338,57.46286L14.00742,83.435c43.78671-.68834,17.74213-37.63481,91.20363-41.73038,0,0,11.59571-34.92927,21.64943-37.4427C126.86048,4.2619,116.116-3.58887,93.59717,23.0463Z" fill="#fff"/>
      <path d="M78.35126,173.16447l-28.46417-23.373,6.346-21.11478-17.09133-1.3405C22.99441,166.9002,17.48281,177.998,2.27808,190.00446H37.80124l4.06158-13.51406,9.59473,6.47645Z" fill="#fff"/>
      <polygon points="128.369 56.29 157.524 81.424 169.086 69.36 168.835 57.044 149.984 40.204 140.684 41.461 128.369 56.29" fill="#eb6331"/>
      <polygon points="48.693 146.271 76.843 172.41 149.733 89.719 118.818 64.584 48.693 146.271" fill="#f9cd53"/>
      <polygon points="157.524 81.424 127.363 56.039 119.823 65.338 61.26 133.201 131.317 75.566 149.481 91.729 157.524 81.424" fill="#fff"/>
      <path d="M110.35562,135.0441l13.48874,22.03441C74.861,180.24954,57.51335,108.36968,110.35562,135.0441Z" fill="#fff"/>
      <g>
        <polygon points="44.175 168.799 44.035 170.087 56.932 179.429 74.816 172.211 49.057 149.684 44.175 168.799" fill="none"/>
        <rect x="134.35498" y="55.46341" width="7.67405" height="36.54558" transform="translate(-8.29112 129.20468) rotate(-48.82347)" fill="none"/>
        <path d="M164.76355,55.97836,152.27755,45.058a9.97957,9.97957,0,0,0-14.08481.94166l-7.3777,8.434L158.329,78.49713l7.37709-8.43395a9.98073,9.98073,0,0,0-.94253-14.08482Z" fill="none"/>
        <polyline points="109.727 134.044 146.908 91.534 119.4 67.473 50.639 146.09 78.148 170.149 88.463 158.356" fill="none"/>
        <path d="M171.89017,62.57525a13.6391,13.6391,0,0,0-4.66032-9.41752l-12.486-10.91946A13.72555,13.72555,0,0,0,135.373,43.53339l-7.377,8.43461-.00878-.00764L116.62523,64.94642l.00409.0036L45.352,146.44443l-4.83923,21.557-.06267.57142-5.20419,24.44769,21.53489-9.63111.76483-.18872,20.9566-7.76633,13.42564-15.35026a29.331,29.331,0,0,1-3.465-1.72842L78.14792,170.14922l-27.509-24.05912L119.39961,67.473l27.5081,24.06086-37.181,42.51037c1.13748.55287,1.80184.91614,1.80184.91614l3.58164-1.38239L152.1929,91.17949l-.00284-.00251,5.10148-5.83315.01375.012L168.525,72.52948A13.63777,13.63777,0,0,0,171.89017,62.57525ZM74.81631,172.211,56.9319,179.42907l-12.89716-9.34224.14-1.2877,4.88182-19.11506ZM149.4194,88.65471,121.91216,64.59384l5.0519-5.77565,27.50833,24.05988ZM130.815,54.43365l7.3777-8.434a9.97957,9.97957,0,0,1,14.08481-.94166l12.486,10.92033a9.98073,9.98073,0,0,1,.94253,14.08482L158.329,78.49713" fill="#001230"/>
      </g>
      <g>
        <path d="M57.22289,183.28037c4.80438,5.80228,12.29111,9.70508,23.61857,10.10347l.00491.04168h64.32027c8.04161-.12851,14.61172-2.19227,19.61011-6.08089l-.00017.00022c49.81739-12.67412,5.19656-48.18564,43.531-57.18025,4.87743-2.33443,8.31649-8.75341,7.07016-14.89981-5.79757-23.56564-45.44733-16.04211-53.23271,6.35536a171.47846,171.47846,0,0,0-17.29222-22.02569l6.10953-7.0064-2.82412-2.46282-36.81053,42.21463c-2.95694-1.48264-10.53689-4.97156-17.98031-5.853L134.3807,79.9825,131.57229,77.504,88.48184,126.33981c-6.61532.12887-13.12269,5.79618-12.933,14.65743L61.19622,157.26353l2.80841,2.47852L76.10352,146.03c.57291,1.28157,5.48719,21.44291,5.93411,23.19677Zm24.12131-35.692c1.89859,1.93377,6.501,4.9941,10.74715,1.02829-3.8808-.42941-7.83409-2.18806-12.0684-6.92787a15.42573,15.42573,0,0,1,1.21636-6.34968c1.08061,2.81073,6.47925,8.74743,12.3601,3.72651-3.07592-.66229-6.20027-.75515-10.92672-5.82769,6.58115-6.17292,23.646,1.1484,28.98153,4.31963,2.53261-5.4117,15.48891-10.49785,19.9562-12.28854C151.69241,154.81582,92.27041,173.99261,81.3442,147.58834Zm23.87263,17.35446-.01227.04724-.0072-.04768Zm59.70032,16.146c-4.83923,5.581-12.432,8.26727-22.58521,7.86843-9.249-.0633-30.88135.134-39.82087-.0901.52673-2.56839,1.2312-6.10271,5.87569-8.41367-2.74277-.227-8.20668.00491-9.48242,8.50377H91.05887c.568-2.61061,1.24288-5.91054,5.84989-8.25243-2.68222-.17285-7.97992-.17092-9.45733,8.25243H84.881c-2.08219-18.69753,22.75992-12.06383,35.69595-11.18476a40.17947,40.17947,0,0,0-14.18163-6.90278c11.27422-7.98723,27.80219-13.75044,33.24433-28.59158,7.739,3.06935,14.5508,11.12233,16.37668,20.95835,1.94884-9.86448-4.2356-22.619-15.41047-26.96823.444-6.37441-1.05875-10.86747-5.12742-13.26834l12.80936-12.58792C164.49868,128.06767,180.08846,162.48261,164.91715,181.08876Zm41.5135-54.98567c-28.97465,9.36721-15.91153,22.02-21.6592,43.66628l-9.31431-8.25985c.21189-10.847-3.55438-24.00779-10.23269-34.89633l.00229.00371C175.6473,91.31682,227.16017,106.657,206.43065,126.10309Z" fill="#001230"/>
        <path d="M61.5182,127.96089l.7471-.28952-.38159-.12829,2.51446-2.875c-11.95771-1.31048-28.23681-8.21515-35.99726-17.27307.79993-1.77329,1.94225-4.87145,4.87615-10.89023-2.08362.85693-4.87163,2.45672-7.914,7.33215a50.46128,50.46128,0,0,1-4.04767-6.21856c2.29874-2.05684,5.69784-4.74084,9.532-7.64851-4.36222.75478-5.91432.81475-11.36133,4.01123a61.46632,61.46632,0,0,1-3.454-9.50587C37.88846,51.84364,42.5279,24.45938,89.4409,26.46845a45.45677,45.45677,0,0,0-3.17233,5.94388c45.58351-40.08989,43.85834-38.99955,42.822,18.30408l4.29847-4.91472c4.85313-52.6522-6.64245-58.99338-42.5587-23.73545-11.01439-1.61008-24.18255.52144-35.48525,6.17645l.00136-.00076C9.612-9.52827,41.25489,62.07111,10.98083,83.37563a72.37649,72.37649,0,0,0,4.73909,13.40824c-3.98944,3.12528-9.54455,11.13772-9.50413,18.823,3.61-5.16409,5.7513-8.93278,11.6652-14.766a54.88148,54.88148,0,0,0,5.28639,7.51978c-1.19643,3.74486-2.39482,7.0305-1.61966,13.11086a60.88426,60.88426,0,0,0,4.89492-9.53118A56.12051,56.12051,0,0,0,40.408,122.04429c-4.57774,5.981-16.03234,22.85477-23.69078,50.60527C12.68291,174.01159-.06914,182.226.00028,192.83992l35.24564.18065,1.50806-4.31472-16.36611-.23061c.97042-2.62048,1.97834-5.38179,6.54976-7.78444-2.75991-.14967-7.85822-.34579-10.24256,7.76578l-11.26386-.05705c3.848-8.4007,13.96025-11.99875,15.01863-12.44411a169.86115,169.86115,0,0,1,14.998-37.89062l17.42531-6.75343c-.6193,2.5371-1.252,5.44631-1.79938,8.59115ZM33.8644,23.31336c4.55715-3.1229,11.50258,1.95392,17.23735,7.20408A61.75769,61.75769,0,0,0,31.72728,47.74077l.0036-.00524C31.16306,39.48656,30.82738,26.41486,33.8644,23.31336Z" fill="#001230"/>
        <path d="M113.02194,26.08959c1.81825-4.46527,3.92925-8.88745,5.70616-13.72526-7.40913,6.29893-15.17212,16.88308-13.517,29.34027,4.47071-.13054,2.19821-1.34156,14.00081-.63992-1.78147-1.85218-5.17037-3.07269-9.84432-3.603A55.61826,55.61826,0,0,1,113.02194,26.08959Z" fill="#001230"/>
        <path d="M82.88755,81.62692c4.24367-.02715,8.96643-14.05183,4.24-21.94378C74.85938,46.52268,73.23482,80.22837,82.88755,81.62692Z" fill="#001230"/>
        <path d="M49.70158,60.609c-7.50183-.47931-5.3775,23.076.30712,23.52173C55.15614,84.2752,57.742,60.68151,49.70158,60.609Z" fill="#001230"/>
        <path d="M64.30381,89.5391c2.96684-.79949,7.16984-6.117,1.72494-5.7966C59.00634,83.25785,57.56445,87.92147,64.30381,89.5391Z" fill="#001230"/>
        <path d="M76.83153,94.95a11.35086,11.35086,0,0,0,2.64412-3.651c-3.23808,2.09064-9.0912,5.80348-15.26369-.63207-2.09042,1.67738-4.43353,8.98656-9.94546,2.87158.81934,1.32611-.6115,5.77073,6.4392,4.8869,1.3219,3.60978,5.82262,13.62445,10.823-.95007l-.04238-.02487C73.29456,97.1212,74.04272,96.99969,76.83153,94.95Z" fill="#001230"/>
      </g>
      <polygon points="93.767 60.311 85.054 67.349 97.453 69.695 93.767 60.311" fill="#fff"/>
      <polygon points="40.147 63.83 48.693 69.862 37.382 72.879 40.147 63.83" fill="#fff"/>
    </g>
  </g>
</svg>
