<svg id="Layer_2" data-name="Layer 2" xmlns="http://www.w3.org/2000/svg" viewBox="0 0 400 400">
  <path d="M200.49272,10.60345a190.18091,190.18091,0,0,1,74.00463,365.31933A190.17992,190.17992,0,0,1,126.4882,25.5418a188.93249,188.93249,0,0,1,74.00452-14.93835m0-7C91.6215,3.60345,3.36393,91.861,3.36393,200.73223S91.6215,397.86114,200.49272,397.86114s197.1289-88.25757,197.1289-197.12891S309.36405,3.60345,200.49272,3.60345Z" fill="#231f20"/>
  <path d="M329.78647,177.08134a68.37265,68.37265,0,0,0-129.2937-31.04318,68.37265,68.37265,0,0,0-129.2937,31.04318c0,22.37094,11.66674,41.08977,27.35408,54.70489,27.21915,23.62362,101.93962,71.27358,101.93962,71.27358s74.72045-47.65015,101.93962-71.27381C318.11973,218.17087,329.78647,199.45228,329.78647,177.08134Z" fill="#231f20"/>
  <g>
    <g>
      <path d="M376.84247,200.74345a13.58911,13.58911,0,0,1-3.1764,4.05283c-1.13352,2.692-1.87928,4.59923-1.86193,6.76215.69867,1.96817,1.834,5.203,4.50468,7.48667,1.10342,3.26245,2.25712,6.59643,3.15976,10.0972-.78649,3.50041-1.33466,5.90485-3.05742,7.62655-1.63317,1.68983-4.03088,3.03652-4.05885,3.53759a2.29762,2.29762,0,0,0,1.43806.39519c.30241-.3056-.05312-.50355-.02019-.568,0,0,.18414.45646.03081.54676-.19547.10942,4.095-2.10875,5.57764-4.79329a30.847,30.847,0,0,0,1.06128-4.562,10.4778,10.4778,0,0,0-.41927-5.13394c-.91609-3.39135-1.83785-7.13362-4.6697-9.6843-1.57155-3.49333-1.926-4.23308-1.874-5.13253.02975-.85943-.38208-4.6187,2.92-7.21719,1.73161-3.06343,1.477-2.56838,1.52623-2.63106a6.18582,6.18582,0,0,0,.42635-.56906c.00319-.13846-.52161-.13881-.70256-.08676"/>
      <path d="M368.76514,200.74274a12.99936,12.99936,0,0,1-3.1764,3.86692c-1.13,2.56733-1.87043,4.38464-1.84564,6.44664.70256,1.87822,1.84918,4.96786,4.52982,7.16124,1.11865,3.1201,2.2897,6.31278,3.21712,9.66766-.7617,3.34212-1.2911,5.63784-2.99474,7.26995-1.61511,1.60236-3.993,2.86655-4.016,3.34567a2.39694,2.39694,0,0,0,1.43664.39165c.30206-.28861-.05595-.4816-.0262-.54357,0,0,.19051.43875.03682.52338-.19263.1034,4.06523-1.977,5.52488-4.53478a28.35,28.35,0,0,0,1.023-4.35772,9.68152,9.68152,0,0,0-.45327-4.91368c-.93769-3.24935-1.87574-6.82944-4.71785-9.27672-1.58183-3.34035-1.93948-4.04575-1.891-4.90412a7.74593,7.74593,0,0,1,2.91011-6.8829c1.7263-2.92427,1.47488-2.45259,1.52516-2.51209a5.92771,5.92771,0,0,0,.42246-.54321c.00319-.13243-.51948-.13279-.7015-.08286"/>
      <path d="M361.07769,200.97221a12.45036,12.45036,0,0,1-3.1718,3.68561c-1.11652,2.44763-1.87822,4.17783-1.84529,6.1421a15.49808,15.49808,0,0,0,4.54434,6.85954c1.12679,2.98482,2.33184,6.04967,3.25608,9.2629-.73868,3.19127-1.23869,5.38465-2.93667,6.92859-1.6105,1.51454-3.96182,2.699-3.9813,3.15515a2.4849,2.4849,0,0,0,1.437.3913c.29674-.27267-.06056-.46177-.03081-.51842,0,0,.19335.42174.04072.50036-.1852.09773,4.02238-1.84954,5.48168-4.28088a26.12513,26.12513,0,0,0,.98869-4.16332,9.01015,9.01015,0,0,0-.4731-4.70369,34.76078,34.76078,0,0,0-1.67531-4.73521,14.48423,14.48423,0,0,0-1.25852-2.21533,11.58091,11.58091,0,0,0-1.81483-1.94444c-1.59776-3.20048-1.95683-3.87188-1.909-4.69059a7.21962,7.21962,0,0,1,2.90834-6.56172c1.72488-2.78936,1.47417-2.33928,1.52446-2.39558a5.67653,5.67653,0,0,0,.42245-.5202c.00319-.12571-.52019-.12677-.7015-.07932"/>
    </g>
    <g>
      <path d="M372.40543,239.97782a13.19964,13.19964,0,0,1-3.91119,3.27024c-1.68062,2.37929-3.00819,4.02557-3.36195,6.16973.34561,2.10626.61084,5.4753,2.67957,8.29192.204,1.72489.45681,3.48483.57933,5.232.11438,1.744.20433,3.51458.255,5.32374-1.4154,3.29255-2.61974,5.45619-4.704,6.7395-1.943,1.29393-4.50114,2.107-4.66722,2.57617.20008.36226.84421.57579,1.31164.70681.36863-.22734.07188-.49753.11509-.55454,0,0,.07117.483-.09951.53613-.14377.09632,4.33577-1.19584,6.45655-3.44694,1.48091-2.40479,3.14843-5.68282,2.811-9.30221-.00956-.86935-.022-1.76243-.06657-2.66081a25.17038,25.17038,0,0,0-.35766-2.72916,13.53972,13.53972,0,0,0-1.95506-5.09569c-.63882-3.72174-.96036-4.56524-.69265-5.42538a8.30766,8.30766,0,0,1,4.48627-6.38219c2.30492-2.62044,1.95754-2.19161,2.01774-2.24225a5.96733,5.96733,0,0,0,.53011-.46353c.03116-.13527-.48054-.25178-.66751-.2408"/>
      <path d="M364.52923,238.18672a12.58791,12.58791,0,0,1-3.869,3.08468c-1.64876,2.25606-2.95048,3.81274-3.27379,5.85917.36935,2.01844.67884,5.24584,2.77838,7.976.227,1.65655.5039,3.34815.65157,5.02735.13952,1.67638.256,3.3786.33534,5.11907-1.35519,3.14311-2.517,5.20582-4.56275,6.40556-1.90548,1.21284-4.42607,1.95011-4.58223,2.39841a2.38839,2.38839,0,0,0,1.31093.70327c.36474-.21069.06409-.47663.10375-.53188,0,0,.0818.46743-.08852.51453-.13988.091,4.27733-1.07438,6.34713-3.20685,1.42991-2.29076,3.03334-5.42077,2.64523-8.90313-.02267-.83571-.04852-1.69372-.10588-2.55705a23.82359,23.82359,0,0,0-.39519-2.625,13.07193,13.07193,0,0,0-2.01774-4.913c-.6838-3.57265-1.01631-4.38322-.76135-5.20334a7.683,7.683,0,0,1,4.40057-6.05145c2.26775-2.483,1.92851-2.07653,1.98941-2.12362a5.69543,5.69543,0,0,0,.52055-.4391c.0301-.1289-.47947-.245-.66715-.23655"/>
      <path d="M356.98732,236.70723A12.01915,12.01915,0,0,1,353.164,239.612c-1.64238,2.13071-2.90231,3.607-3.20366,5.55711.3966,1.93842.72558,5.02629,2.86124,7.68108.244,1.59.5595,3.22456.70822,4.83188.1629,1.61263.30383,3.25112.40865,4.92643-1.29393,3.00253-2.43524,4.959-4.43527,6.08261-1.87008,1.13352-4.35135,1.79713-4.5107,2.21852a2.47529,2.47529,0,0,0,1.31163.70292c.3566-.19583.05277-.45964.09561-.50745,0,0,.08676.45114-.0818.49222-.13845.08392,4.23874-.94548,6.248-2.9696a20.34479,20.34479,0,0,0,1.94231-3.81486,10.36756,10.36756,0,0,0,.55844-4.70476c-.06976-3.18914-.53755-6.85174-2.63567-9.72644-.73373-3.43844-1.051-4.20758-.81588-4.99229a7.08112,7.08112,0,0,1,4.32514-5.732c2.23552-2.34883,1.9023-1.96391,1.96215-2.00818a5.386,5.386,0,0,0,.51523-.41573c.02833-.12252-.48195-.23938-.66785-.233"/>
    </g>
    <g>
      <path d="M359.40627,277.27555a13.56052,13.56052,0,0,1-4.61764,2.27412c-2.164,1.94692-3.7182,3.31061-4.62862,5.27417a17.40123,17.40123,0,0,0,.77869,8.69349c-.19795,1.71957-.40758,3.45013-.64661,5.20087q-.19069,1.31836-.38244,2.64275-.2624,1.30455-.52692,2.61973c-2.2295,2.80812-3.6757,4.80249-6.0773,5.52523-2.1994.81411-4.92041,1.00038-5.16192,1.44089.1204.40228.69832.75214,1.1229.982.40227-.1459.16749-.47947.22486-.52373,0,0-.02974.49363-.20574.50886-.19582.03435,4.51955-.17954,7.11662-1.87716,1.87008-2.09139,4.32125-4.84711,4.80143-8.44526.64165-3.45933,1.39238-7.26074.012-10.75655.09419-3.83753.09419-4.65943.5294-5.44875a10.76719,10.76719,0,0,1,1.51631-2.5521,7.32843,7.32843,0,0,1,4.26353-2.67355c2.8878-2.01,2.4441-1.67461,2.51527-1.70931a6.16476,6.16476,0,0,0,.63068-.32826c.063-.12359-.40936-.35164-.59527-.38351"/>
      <path d="M352.13136,273.76522a12.95237,12.95237,0,0,1-4.53514,2.10344c-2.1052,1.834-3.61443,3.11726-4.47422,4.99265a16.60687,16.60687,0,0,0,.94477,8.40949l-.53117,5.01956q-.16093,1.27321-.32224,2.5521-.23106,1.25993-.46424,2.53014c-2.1385,2.67745-3.521,4.58294-5.867,5.2338-2.14557.744-4.81346.86545-5.04116,1.28791.12748.39413.70292.74682,1.1236.97877.39449-.131.15546-.46141.20858-.505,0,0-.01629.48089-.19052.4908-.19086.03046,4.43669-.07507,6.95834-1.66964,1.79571-1.99224,4.152-4.61871,4.55319-8.0961.55985-3.34071,1.22594-7.00437-.20964-10.41023.01771-3.70333-.00035-4.49548.41361-5.249a9.80241,9.80241,0,0,1,1.4508-2.43028,6.91768,6.91768,0,0,1,4.17181-2.49367c2.82123-1.88459,2.39063-1.56908,2.4618-1.6006a5.85141,5.85141,0,0,0,.61581-.3063c.0602-.11792-.41042-.34491-.59562-.37926"/>
      <path d="M345.10822,270.63132a12.39474,12.39474,0,0,1-4.4505,1.93877,32.20687,32.20687,0,0,0-2.62327,2.33892,7.61652,7.61652,0,0,0-1.715,2.37646,16.08827,16.08827,0,0,0,1.09031,8.14249l-.42316,4.84923c-.08393.81552-.164,1.64309-.272,2.46392q-.20451,1.21638-.41078,2.442c-2.04217,2.56024-3.38036,4.36728-5.67219,4.9498-2.09352.676-4.71113.73195-4.92289,1.13777.13209.38775.7054.74364,1.12361.97806.38315-.11863.1427-.44548.1937-.48407,0,0-.00638.46672-.17706.472-.18591.02514,4.35347.02691,6.80111-1.46957,1.74719-1.88105,3.9898-4.402,4.33789-7.7512.48938-3.226,1.05986-6.76959-.404-10.07984-.05808-3.58328-.09243-4.345.30347-5.06276a8.43028,8.43028,0,0,1,1.39769-2.30989,6.53282,6.53282,0,0,1,4.0808-2.32121c2.76-1.76172,2.33963-1.46568,2.409-1.49436a5.64691,5.64691,0,0,0,.60553-.28471c.05772-.1119-.4136-.3403-.597-.37642"/>
    </g>
    <g>
      <path d="M338.33155,310.67166a10.39754,10.39754,0,0,1-1.39308.57366,11.87278,11.87278,0,0,1-3.562.65759c-2.5822,1.38246-4.43138,2.34069-5.675,4.124-.68167,1.97489-1.86264,5.16581-1.198,8.622-1.08465,3.3276-2.39027,6.52206-3.8131,9.87941-2.78227,2.25925-4.74017,3.76034-7.1616,4.0284-2.28013.36049-5.038-.13633-5.36163.25071.0262.41644.51347.88635.87749,1.20576.42777-.04922.27373-.42529.34-.45468,0,0-.14164.46991-.318.44476-.21707-.03257,4.522.9168,7.33617-.27691,2.29962-1.61122,5.36128-3.68385,6.5504-7.16974a38.85907,38.85907,0,0,0,1.98055-5.01142,13.51431,13.51431,0,0,0,.41715-5.46716c.9731-3.69163,1.188-4.4636,1.76455-5.157a8.01608,8.01608,0,0,1,6.8011-3.80707,20.36255,20.36255,0,0,1,2.79042-1.14025,5.88524,5.88524,0,0,0,.67423-.19051c.0857-.10907-.32437-.43662-.49717-.5078"/>
      <path d="M332.01983,305.6312a9.75229,9.75229,0,0,1-1.3552.52657,11.44829,11.44829,0,0,1-3.48235.55773c-2.50075,1.28649-4.28867,2.17638-5.46362,3.886-.62253,1.9069-1.70364,4.99088-.97487,8.38329-.98444,3.226-2.18878,6.32128-3.50183,9.5809-2.66506,2.15195-4.54186,3.58115-6.89318,3.79149-2.21215.30419-4.90341-.24434-5.20937.12855.03471.40935.51878.88209.87821,1.20221.41714-.03612.25815-.41006.32012-.43981,0,0-.12572.4607-.29888.43025-.2114-.03506,4.41793,1.00072,7.13575-.10942,2.20542-1.53119,5.14633-3.49935,6.23169-6.885a36.50308,36.50308,0,0,0,1.823-4.85986,13.04659,13.04659,0,0,0,.284-5.33153c.86934-3.57868,1.06057-4.32586,1.60838-4.98911a7.42229,7.42229,0,0,1,6.583-3.55,17.4262,17.4262,0,0,1,2.71393-1.04711,5.62033,5.62033,0,0,0,.65511-.17246c.0818-.10411-.32649-.43025-.49824-.5039"/>
      <path d="M325.876,301.01852a9.168,9.168,0,0,1-1.31837.48159,11.03854,11.03854,0,0,1-3.41047.45468c-2.42391,1.19266-4.15056,2.02022-5.26425,3.6534a15.01306,15.01306,0,0,0-.773,8.15913c-.90689,3.11372-2.00535,6.1297-3.22031,9.29159-2.56768,2.03438-4.35241,3.40834-6.64105,3.55848-2.16115.23159-4.77841-.35694-5.06843-.00106.04073.40475.522.87962.87891,1.20186.403-.02656.24186-.39731.30065-.42281,0,0-.11332.449-.28188.415-.21211-.04709,4.32337,1.09244,6.94594.05985,2.108-1.46285,4.954-3.31026,5.93884-6.606a34.44033,34.44033,0,0,0,1.67567-4.7168,12.414,12.414,0,0,0,.16926-5.197c.77339-3.47562.92955-4.20793,1.46957-4.8255a6.87491,6.87491,0,0,1,6.3698-3.306,17.96931,17.96931,0,0,1,2.64912-.94867,5.287,5.287,0,0,0,.64024-.154c.07791-.0988-.33074-.426-.50036-.50107"/>
    </g>
    <g>
      <path d="M310.41465,338.58466a13.27606,13.27606,0,0,1-5.10739.10234c-2.767.85235-4.85914,1.2741-6.46824,2.73518a34.40332,34.40332,0,0,0-1.86653,3.47775,12.29762,12.29762,0,0,0-1.19974,4.68c-.91325,1.47878-1.823,2.993-2.80174,4.45688-.99683,1.43416-2.02943,2.87363-3.11691,4.31877-3.1594,1.68841-5.44025,2.64841-7.87513,2.346-2.32511-.19512-4.839-1.16326-5.2547-.88564a2.29379,2.29379,0,0,0,.58677,1.36971c.43237.05595.36155-.35376.43237-.369,0,0-.239.43485-.40864.36438-.17812-.02656,4.1364,1.76,7.19771,1.31907,2.65727-.95681,5.99514-2.49614,7.98916-5.527.53258-.68769,1.08429-1.38494,1.602-2.12645.50532-.7617.98939-1.54713,1.41822-2.35876a13.51261,13.51261,0,0,0,1.64734-5.19661c1.80527-3.32655,2.0875-4.17571,2.83326-4.68068a9.45821,9.45821,0,0,1,2.46109-1.66008,7.72218,7.72218,0,0,1,2.24473-.63882,7.29011,7.29011,0,0,1,2.77483.10163c3.44376-.60023,2.90338-.48337,2.982-.48478a6.09847,6.09847,0,0,0,.705-.02975c.10907-.08605-.21813-.49611-.37146-.60447"/>
      <path d="M305.37525,332.27259a12.68143,12.68143,0,0,1-4.96042-.01523c-2.66648.77622-4.68351,1.14521-6.20867,2.54927a31.96419,31.96419,0,0,0-1.73233,3.38391,11.94212,11.94212,0,0,0-1.06234,4.58966c-.8527,1.44018-1.70222,2.91648-2.61938,4.34321-.93521,1.397-1.90478,2.79962-2.92746,4.209-3.02058,1.6098-5.20476,2.51669-7.55784,2.1732-2.24544-.23513-4.6828-1.23905-5.078-.97169a2.38962,2.38962,0,0,0,.58853,1.36652c.41892.06622.34279-.34207.40936-.35871,0,0-.22132.42918-.38669.35482-.17175-.028,4.01565,1.81873,6.96293,1.43841,2.54679-.8991,5.74267-2.363,7.61309-5.31843.50107-.67,1.02091-1.34812,1.50676-2.07051a26.08577,26.08577,0,0,0,1.32474-2.301,13.04048,13.04048,0,0,0,1.48621-5.09357c1.67885-3.23872,1.93205-4.06912,2.64346-4.55107a8.59439,8.59439,0,0,1,2.34954-1.579,7.128,7.128,0,0,1,2.16364-.57791,7.028,7.028,0,0,1,2.69693.16218c3.33008-.5163,2.80989-.41183,2.88709-.41042a5.70625,5.70625,0,0,0,.68237-.01664c.10411-.0818-.222-.49009-.37359-.60093"/>
      <path d="M300.40173,326.41165a12.1161,12.1161,0,0,1-4.81382-.12606c-2.584.68379-4.5192,1.01524-5.96788,2.35875-.90653,1.75428-2.55281,4.408-2.54891,7.79652-.79817,1.3991-1.58218,2.85451-2.454,4.22635-.87785,1.36192-1.789,2.73021-2.75111,4.10453-2.88638,1.53827-4.988,2.37539-7.25826,2.00074-2.17037-.2794-4.52628-1.30526-4.90979-1.06765a2.474,2.474,0,0,0,.58889,1.36617c.40121.069.32756-.32614.39094-.33712,0,0-.21282.40688-.3704.33429-.16041-.01948,3.90092,1.88671,6.73772,1.56234,2.43984-.84668,5.51532-2.21285,7.26252-5.1095.4738-.65015.95823-1.31907,1.42176-2.01137a22.99449,22.99449,0,0,0,1.23976-2.243,12.65187,12.65187,0,0,0,1.33784-4.99655c.77161-1.59245,1.24364-2.56555,1.56341-3.226a3.11676,3.11676,0,0,1,.90724-1.19584,7.8133,7.8133,0,0,1,2.243-1.50286,7.16385,7.16385,0,0,1,4.71219-.29144c3.22208-.43272,2.7196-.341,2.79431-.33782a5.474,5.474,0,0,0,.664-.00177c.0988-.07791-.227-.48726-.37643-.59881"/>
    </g>
    <g>
      <path d="M277.01606,359.65584a13.5556,13.5556,0,0,1-5.02983-1.09492c-2.9101.16679-4.96857.28329-6.90557,1.24825-1.47488,1.47276-3.87683,3.95829-4.80355,7.2912-1.227,1.21922-2.47065,2.43985-3.74971,3.658-1.2787,1.22027-2.58822,2.45259-3.9898,3.55919-3.49722.80349-5.88112,1.43169-8.19985.53932-2.23021-.74329-4.47635-2.30209-4.94024-2.11052a2.29885,2.29885,0,0,0,.26523,1.4678c.40581.13846.4306-.26842.50284-.267,0,0-.33145.36545-.47876.26736-.1767-.10376,3.65374,2.70826,6.73878,2.97632,2.76067-.49611,6.41477-1.06694,9.02282-3.6201,2.65833-2.30741,5.62474-4.788,6.71293-8.406,2.46534-2.94056,2.97739-3.58292,3.80991-3.92854a11.28044,11.28044,0,0,1,2.77377-1.05844,7.33562,7.33562,0,0,1,5.00256.56516c3.51317.227,2.9565.21282,3.0344.22982a6.14423,6.14423,0,0,0,.698.13634c.12642-.05737-.10163-.53011-.227-.6707"/>
      <path d="M273.5068,352.38058a12.946,12.946,0,0,1-4.85844-1.17743c-2.794.11509-4.76673.19618-6.60847,1.124a16.44533,16.44533,0,0,0-4.49477,7.17115l-3.545,3.58753c-1.20965,1.19726-2.4494,2.408-3.77945,3.494-3.34284.75745-5.62049,1.3559-7.85.44158-2.14345-.76453-4.30638-2.3414-4.74831-2.15514a2.40161,2.40161,0,0,0,.26771,1.46532c.39058.14554.40971-.26169.4784-.26239,0,0-.313.36438-.45539.26275-.17033-.10376,3.52237,2.73871,6.48276,3.04077,2.63957-.46495,6.13715-.99329,8.60673-3.50077,2.51952-2.26526,5.33189-4.68988,6.32058-8.27174,2.32121-2.88284,2.80068-3.5128,3.59354-3.8439a10.26224,10.26224,0,0,1,2.64594-1.00356,6.925,6.925,0,0,1,4.81913.64909c3.38214.28365,2.84849.262,2.92392.28188a5.87707,5.87707,0,0,0,.67282.14412c.12075-.05453-.10624-.5255-.23018-.66786"/>
      <path d="M269.96176,345.55929a12.41122,12.41122,0,0,1-4.69129-1.2564c-2.67781.07366-4.579.09809-6.32837.9901a15.93606,15.93606,0,0,0-4.21289,7.05253l-3.35275,3.5206a48.63243,48.63243,0,0,1-3.5861,3.42038c-3.1973.70965-5.367,1.29889-7.51748.33924-2.05953-.78578-4.14136-2.38247-4.56028-2.19975a2.49022,2.49022,0,0,0,.26842,1.46532c.37359.14767.38952-.25709.45362-.25531,0,0-.29639.35907-.43308.25637-.16219-.0995,3.38922,2.755,6.23559,3.11125,2.52518-.4299,5.87049-.93026,8.21614-3.37435,2.39168-2.21959,5.05356-4.6095,5.95973-8.13328,2.1863-2.8361,2.63355-3.45226,3.39064-3.76636a8.7954,8.7954,0,0,1,2.52837-.94194,6.53991,6.53991,0,0,1,4.63995.72735c3.25749.34207,2.74438.31162,2.81662.33216a5.63247,5.63247,0,0,0,.65157.15475c.11438-.0517-.11225-.52338-.23336-.66609"/>
    </g>
    <g>
      <path d="M239.71656,372.65a12.67032,12.67032,0,0,1-4.63747-2.10379c-2.88425-.54746-4.92926-.965-7.01676-.36084-1.74861,1.22594-4.68032,2.86478-6.31774,5.9909a94.34373,94.34373,0,0,1-9.14782,5.32126c-3.57655.16856-6.04614-.022-8.10389-1.32226-2.00676-1.18522-3.84886-3.14028-4.3432-3.07937a2.29212,2.29212,0,0,0-.06658,1.48869c.36474.23655.47876-.15474.54888-.14093,0,0-.40369.28081-.52551.147-.14872-.09171,2.95792,3.38108,5.90131,4.3124a24.8837,24.8837,0,0,0,4.67926.07968,12.15437,12.15437,0,0,0,4.91084-1.58077c3.12045-1.47948,6.53588-3.48837,8.41729-6.685,3.07441-2.21321,3.7104-2.76916,4.59427-2.9487a8.10761,8.10761,0,0,1,7.69666,1.29641c3.35522.92636,2.81909.80136,2.89063.83394a5.98121,5.98121,0,0,0,.64661.27408c.13527-.03151.01876-.54321-.07153-.70681"/>
      <path d="M237.92652,364.77349a12.07938,12.07938,0,0,1-4.45156-2.14593c-2.75961-.57189-4.71326-1.00462-6.69983-.41537-1.65938,1.20965-4.4459,2.82724-5.99231,5.9438a89.44543,89.44543,0,0,1-8.71828,5.282c-3.41791.15793-5.78126-.03789-7.74907-1.33926-1.91894-1.187-3.67818-3.141-4.15057-3.08008a2.3896,2.3896,0,0,0-.06338,1.48657c.34809.24009.45716-.15263.52408-.14165,0,0-.38563.28365-.50213.14767-.14235-.0903,2.82618,3.38107,5.64351,4.31806a22.8753,22.8753,0,0,0,4.47529.08746,11.24469,11.24469,0,0,0,4.69059-1.56553c2.97809-1.46922,6.2324-3.45828,8.00934-6.64176,2.92215-2.18984,3.52379-2.74119,4.36622-2.91506a7.50116,7.50116,0,0,1,7.36238,1.36192c3.215.95221,2.70259.82508,2.77129.85943a5.63541,5.63541,0,0,0,.62041.27621c.1289-.02974.0131-.53967-.07507-.70468"/>
      <path d="M236.00085,357.33463a9.19029,9.19029,0,0,1-1.33147-.4515,11.482,11.482,0,0,1-2.94091-1.74259c-2.63956-.59668-4.50645-1.04393-6.39565-.471-1.58,1.17282-4.22741,2.79041-5.69344,5.89068a85.86291,85.86291,0,0,1-8.31706,5.23167c-.818.01452-1.57085.02762-2.27129.04a17.97277,17.97277,0,0,1-1.95329-.18945,7.235,7.235,0,0,1-3.1849-1.21532c-1.83395-1.19407-3.5121-3.13178-3.96147-3.09389a2.47428,2.47428,0,0,0-.063,1.48657c.3318.23655.43733-.15156.4993-.1335,0,0-.369.27337-.47947.13952-.13563-.08605,2.69587,3.39914,5.39209,4.33187a22.49113,22.49113,0,0,0,4.28194.10907,10.38783,10.38783,0,0,0,4.48237-1.551c2.84495-1.46107,5.95053-3.40728,7.6308-6.58758,2.7805-2.17886,3.352-2.6987,4.1541-2.87292a6.91985,6.91985,0,0,1,7.04332,1.43168c3.08008.98125,2.58964.85023,2.65515.88493a5.40275,5.40275,0,0,0,.597.28152c.12217-.02833.00709-.539-.07861-.70362"/>
    </g>
    <g>
      <path d="M200.48183,377.08213a13.59058,13.59058,0,0,1-4.05318-3.17675c-2.692-1.13317-4.59923-1.87929-6.7618-1.86193-1.96816.69866-5.20335,1.83431-7.48667,4.50468-3.2628,1.10341-6.59643,2.25747-10.09755,3.16011-3.50042-.78684-5.90449-1.33466-7.62619-3.05742-1.68983-1.63353-3.03688-4.03088-3.53795-4.05921a2.29829,2.29829,0,0,0-.39519,1.43806c.3056.30241.50355-.05312.56835-.01983,0,0-.45645.18378-.54675.03081-.10942-.19547,2.10874,4.095,4.79293,5.57764a30.84151,30.84151,0,0,0,4.5624,1.06128,10.47673,10.47673,0,0,0,5.13358-.41962c3.39135-.9161,7.13362-1.8375,9.68466-4.66935,3.493-1.57155,4.23307-1.926,5.13252-1.87432.85943.02974,4.61835-.38209,7.21719,2.92,3.06344,1.732,2.56839,1.47736,2.63071,1.52658a6.1808,6.1808,0,0,0,.56906.426c.13881.00354.13881-.52125.08676-.70256"/>
      <path d="M200.48219,369.0048a12.99936,12.99936,0,0,1-3.86692-3.1764c-2.567-1.13-4.38464-1.87078-6.44629-1.846-1.87857.70256-4.96786,1.84918-7.16124,4.53018-3.12045,1.11829-6.31314,2.2897-9.66765,3.21677-3.34213-.7617-5.6382-1.29075-7.27031-2.99439-1.60237-1.61511-2.86655-3.993-3.34531-4.016a2.39547,2.39547,0,0,0-.392,1.43664c.28861.30206.482-.05595.54392-.02656,0,0-.4391.19087-.52338.03683-.10375-.19264,1.97666,4.06522,4.53443,5.52488a28.34506,28.34506,0,0,0,4.35807,1.02339,9.68435,9.68435,0,0,0,4.91333-.45327c3.24935-.938,6.82944-1.87574,9.27672-4.71785,3.34035-1.58183,4.0461-1.93948,4.90412-1.89132a7.74816,7.74816,0,0,1,6.88326,2.9101c2.92391,1.72631,2.45223,1.47488,2.51172,1.52552a5.84241,5.84241,0,0,0,.54357.42211c.13244.00354.13244-.51913.08286-.70115"/>
      <path d="M200.25272,361.31734a12.44508,12.44508,0,0,1-3.68526-3.17215c-2.44763-1.11616-4.17783-1.87821-6.14245-1.84493a15.49871,15.49871,0,0,0-6.85954,4.544c-2.98482,1.12714-6.04968,2.33219-9.2629,3.25643-3.19092-.73868-5.38466-1.23905-6.92859-2.93667-1.51455-1.61086-2.69906-3.96217-3.1548-3.9813a2.48109,2.48109,0,0,0-.3913,1.43664c.27232.2971.46177-.06055.51843-.03081,0,0-.42211.19335-.50072.04073-.09773-.1852,1.84989,4.02273,4.28123,5.48168a26.15835,26.15835,0,0,0,4.163.989,9.0066,9.0066,0,0,0,4.7037-.47345,34.75889,34.75889,0,0,0,4.7352-1.67532,14.43465,14.43465,0,0,0,2.21534-1.25816,11.58129,11.58129,0,0,0,1.94444-1.81483c3.20048-1.59776,3.87188-1.95684,4.69059-1.909a7.21756,7.21756,0,0,1,6.56172,2.90833c2.78936,1.72454,2.33928,1.47418,2.39594,1.52411a5.60327,5.60327,0,0,0,.51983.42246c.12607.00354.12678-.5202.07933-.70115"/>
    </g>
    <g>
      <path d="M161.24746,372.64509a13.19837,13.19837,0,0,1-3.27024-3.91154c-2.37964-1.68063-4.02556-3.00785-6.17008-3.3616-2.10626.34526-5.4753.61049-8.29192,2.67957-1.72489.20362-3.48483.45646-5.23168.579-1.74436.11438-3.51458.20468-5.3241.255-3.29254-1.415-5.45618-2.61973-6.73949-4.704-1.29393-1.94267-2.107-4.50079-2.57617-4.66722-.36226.20043-.57579.8442-.70681,1.31163.22769.36864.49753.07189.55454.11545,0,0-.483.07117-.53613-.09951-.096-.14412,1.19584,4.33541,3.44694,6.4562,2.40479,1.4809,5.68317,3.14878,9.30221,2.81131.86935-.00956,1.76243-.02231,2.66081-.06658a25.17666,25.17666,0,0,0,2.72951-.35765,13.54638,13.54638,0,0,0,5.09534-1.95506c3.72174-.63918,4.56524-.96071,5.42538-.69265a8.30619,8.30619,0,0,1,6.38219,4.48627c2.62079,2.30457,2.192,1.95718,2.24225,2.01774a6.03659,6.03659,0,0,0,.46388.53011c.13528.03116.25143-.48054.2408-.66751"/>
      <path d="M163.03821,364.76889a12.59257,12.59257,0,0,1-3.08468-3.8694c-2.25571-1.6484-3.81274-2.95012-5.85917-3.27343-2.01844.36934-5.24584.67884-7.9757,2.77838-1.65654.227-3.3485.50355-5.0277.65157-1.676.13952-3.3786.256-5.11907.335-3.14311-1.35519-5.20583-2.51669-6.40556-4.56275-1.21284-1.90514-1.94975-4.42572-2.39841-4.58224a2.39075,2.39075,0,0,0-.70327,1.31129c.21069.36438.47663.06409.53223.1034,0,0-.46779.0818-.51488-.08818-.091-.13987,1.07438,4.27734,3.20685,6.34714,2.29076,1.42991,5.42077,3.03334,8.90313,2.64523.8357-.023,1.69372-.04887,2.55705-.10624a23.73755,23.73755,0,0,0,2.625-.39519,13.06068,13.06068,0,0,0,4.913-2.01738c3.573-.6838,4.38357-1.01631,5.2037-.76135a7.68281,7.68281,0,0,1,6.05109,4.40022c2.483,2.26774,2.07652,1.9285,2.12362,1.98976a5.74376,5.74376,0,0,0,.4391.52055c.12925.02975.245-.47982.2369-.66715"/>
      <path d="M164.5177,357.227a12.01925,12.01925,0,0,1-2.9048-3.82337c-2.1307-1.64238-3.60664-2.90231-5.55675-3.20366-1.93877.3966-5.02664.72557-7.68143,2.86088-1.59.244-3.22421.5595-4.83153.70823-1.61263.16289-3.25111.30383-4.92643.40864-3.00288-1.29393-4.959-2.43488-6.083-4.43527-1.13352-1.87007-1.79677-4.35135-2.21852-4.51034a2.47375,2.47375,0,0,0-.70256,1.31128c.19582.357.45928.05276.50744.096,0,0-.45114.08641-.49257-.0818-.08357-.13881.94584,4.23839,2.9696,6.248a20.35468,20.35468,0,0,0,3.81486,1.94232,10.36259,10.36259,0,0,0,4.70476.55808c3.1895-.06941,6.8521-.53754,9.72644-2.63567,3.43844-.73372,4.20793-1.051,4.99229-.81552a7.07911,7.07911,0,0,1,5.732,4.32514c2.34919,2.23517,1.96391,1.90195,2.00818,1.96215a5.44231,5.44231,0,0,0,.41573.51523c.12252.02833.23938-.48195.23336-.66786"/>
    </g>
    <g>
      <path d="M123.94938,359.64557a13.55187,13.55187,0,0,1-2.27377-4.61764c-1.94691-2.164-3.311-3.71819-5.27452-4.62862a17.40217,17.40217,0,0,0-8.69349.779c-1.71958-.19795-3.45013-.40794-5.20087-.64661q-1.31836-.19069-2.64239-.38244-1.30509-.2624-2.62009-.52692c-2.80812-2.22986-4.80249-3.6757-5.52488-6.0773-.81446-2.1994-1.00073-4.92076-1.44089-5.16227-.40263.1204-.75214.69867-.98231,1.12325.14589.40227.47947.16749.52373.22451,0,0-.49328-.0294-.50886-.20574-.03435-.19583.17954,4.5199,1.87716,7.117,2.09139,1.86972,4.84711,4.3209,8.44525,4.80143,3.45934.64165,7.26075,1.39237,10.75656.01168,3.83753.0942,4.65943.09455,5.44875.5294a10.78,10.78,0,0,1,2.55245,1.51667,7.32705,7.32705,0,0,1,2.6732,4.26318c2.01,2.88779,1.67461,2.44409,1.70966,2.51562a6.10969,6.10969,0,0,0,.32791.63032c.12359.06339.35164-.40935.38351-.59491"/>
      <path d="M127.45971,352.371a12.95241,12.95241,0,0,1-2.10309-4.53514c-1.8343-2.10556-3.11726-3.61479-4.993-4.47422a16.60321,16.60321,0,0,0-8.40949.94477l-5.01956-.53117q-1.27322-.16093-2.5521-.32224-1.25992-.23158-2.53014-.4646c-2.67745-2.13849-4.58294-3.521-5.23344-5.867-.74435-2.14522-.86581-4.81347-1.28827-5.04081-.39377.12713-.74683.70291-.97842,1.12325.13067.39483.46106.15545.50462.20857,0,0-.48089-.01593-.49081-.19016-.0301-.19087.07508,4.43669,1.66965,6.95833,1.99224,1.79536,4.61906,4.15163,8.09645,4.55284,3.34036.56021,7.004,1.2263,10.40988-.20963,3.70332.01806,4.49583,0,5.249.4136a9.78953,9.78953,0,0,1,2.43028,1.45081,6.917,6.917,0,0,1,2.49367,4.17216c1.88459,2.82123,1.56908,2.39027,1.60059,2.46145a5.92282,5.92282,0,0,0,.30631.6158c.11792.06055.34526-.41006.37961-.59562"/>
      <path d="M130.59361,345.34788a12.39474,12.39474,0,0,1-1.93877-4.4505,32.3458,32.3458,0,0,0-2.33857-2.62363,7.62223,7.62223,0,0,0-2.37681-1.715,16.09267,16.09267,0,0,0-8.14249,1.09032l-4.84923-.42317c-.81552-.08392-1.64309-.16395-2.46392-.272q-1.21585-.2045-2.442-.41042c-2.56024-2.04252-4.36728-3.38072-4.9498-5.67254-.676-2.09317-.73195-4.71078-1.13741-4.92289-.38811.13208-.74364.70539-.97842,1.124.119.38279.44547.14235.48407.19334,0,0-.46672-.00637-.472-.1767-.02514-.18626-.02691,4.35312,1.46993,6.80075,1.88069,1.74755,4.40163,3.99015,7.75083,4.33825,3.22633.489,6.77,1.05986,10.07985-.404,3.58328-.05842,4.345-.09242,5.06312.30348a8.43128,8.43128,0,0,1,2.30953,1.39733,6.53354,6.53354,0,0,1,2.32157,4.08116c1.76136,2.75961,1.46532,2.33928,1.49435,2.409a5.57819,5.57819,0,0,0,.28471.60553c.1119.05737.34-.4136.37607-.59739"/>
    </g>
    <g>
      <path d="M90.55327,338.57121a10.39738,10.39738,0,0,1-.57366-1.39309,11.87529,11.87529,0,0,1-.65759-3.56238c-1.38246-2.5822-2.34069-4.43138-4.124-5.675-1.97489-.68167-5.16581-1.86229-8.622-1.198-3.3276-1.0843-6.52171-2.38991-9.87941-3.81274-2.25889-2.78227-3.76034-4.74052-4.0284-7.16195-.36049-2.28014.13633-5.03762-.25071-5.36128-.41644.0262-.88635.51346-1.20541.87749.04887.42777.42494.27373.45433.33995,0,0-.46991-.142-.44441-.31835.03222-.21671-.91716,4.52239.27656,7.33653,1.61122,2.29961,3.68385,5.36128,7.16974,6.55a38.77725,38.77725,0,0,0,5.01142,1.98056,13.50844,13.50844,0,0,0,5.46716.4175c3.69163.9731,4.4636,1.188,5.157,1.76419a8.01748,8.01748,0,0,1,3.80708,6.80146,20.4407,20.4407,0,0,1,1.1406,2.79006,5.94165,5.94165,0,0,0,.19016.67424c.10907.08569.43662-.324.50815-.49682"/>
      <path d="M95.59373,332.25949a9.77427,9.77427,0,0,1-.52657-1.3552,11.463,11.463,0,0,1-.55738-3.4827c-1.28684-2.50075-2.17673-4.28867-3.886-5.46362-1.90725-.62254-4.99123-1.70329-8.38329-.97452-3.22632-.98479-6.32163-2.18914-9.58125-3.50219-2.15195-2.66506-3.58115-4.54151-3.79114-6.89282-.30454-2.21215.24434-4.90377-.12854-5.20972-.40971.0347-.88245.51878-1.20222.87856.03577.41714.40971.25814.43946.32011,0,0-.4607-.12571-.43025-.29922.03506-.21105-1.00037,4.41827.10942,7.1361,1.53119,2.20506,3.49935,5.14633,6.88539,6.23169a36.52785,36.52785,0,0,0,4.8595,1.823,13.04846,13.04846,0,0,0,5.33189.28364c3.57831.8697,4.32549,1.06057,4.9891,1.60838a7.4228,7.4228,0,0,1,3.54964,6.583,17.386,17.386,0,0,1,1.04711,2.71428,5.62033,5.62033,0,0,0,.17246.65511c.10411.0818.43024-.32649.50425-.49859"/>
      <path d="M100.20641,326.11526a9.22094,9.22094,0,0,1-.48159-1.31836,11.058,11.058,0,0,1-.45469-3.41012c-1.19265-2.42391-2.01986-4.15092-3.65339-5.26461a15.01569,15.01569,0,0,0-8.15877-.773c-3.11408-.90653-6.12971-2.005-9.29195-3.21995-2.034-2.568-3.40834-4.35277-3.55848-6.6414-.23124-2.16081.35694-4.77806.00106-5.06843-.40475.04072-.87962.522-1.20186.87891.02691.403.39731.24221.42281.301,0,0-.449-.11331-.415-.28187.04709-.21211-1.09244,4.323-.05949,6.94559,1.46248,2.10839,3.3099,4.9544,6.60563,5.93884a34.45774,34.45774,0,0,0,4.71679,1.67566,12.40972,12.40972,0,0,0,5.19733.16962c3.47527.77339,4.20793.92955,4.82515,1.46922a6.87636,6.87636,0,0,1,3.30636,6.37015,17.80264,17.80264,0,0,1,.94832,2.64877,5.37394,5.37394,0,0,0,.154.64059c.0988.07755.42635-.33074.50142-.50072"/>
    </g>
    <g>
      <path d="M62.64026,310.6543a13.27612,13.27612,0,0,1-.10233-5.10738c-.852-2.76739-1.27411-4.8595-2.73518-6.46824a34.364,34.364,0,0,0-3.47775-1.86653,12.28757,12.28757,0,0,0-4.68-1.20009c-1.47878-.91291-2.99262-1.823-4.45688-2.80139-1.43416-.99719-2.87363-2.02943-4.31877-3.11691-1.68841-3.15976-2.64806-5.44025-2.346-7.87514.19547-2.32511,1.16326-4.839.88564-5.25469a2.29467,2.29467,0,0,0-1.36972.58677c-.05559.43237.35376.36155.369.432,0,0-.4345-.239-.36438-.4083.02656-.17812-1.76,4.13641-1.31907,7.19736.95681,2.65763,2.49614,5.99515,5.527,7.98952.688.53258,1.38494,1.08394,2.12645,1.602.7617.50532,1.54748.989,2.35875,1.41787a13.50727,13.50727,0,0,0,5.19662,1.64769c3.32655,1.80527,4.17571,2.0875,4.68068,2.83326a9.44242,9.44242,0,0,1,1.66008,2.46109,7.70517,7.70517,0,0,1,.63918,2.24473,7.29758,7.29758,0,0,1-.10163,2.77483c.59986,3.4434.483,2.903.48478,2.982a6.01874,6.01874,0,0,0,.02974.705c.0857.10907.49576-.21848.60412-.37146"/>
      <path d="M68.95234,305.61456a12.67931,12.67931,0,0,1,.01523-4.96007c-.77622-2.66648-1.14485-4.68351-2.54927-6.20868a31.95938,31.95938,0,0,0-3.38391-1.73267,11.9549,11.9549,0,0,0-4.58966-1.06234c-1.44018-.85271-2.91613-1.70187-4.34321-2.619-1.39662-.93557-2.79962-1.90513-4.209-2.92781-1.60945-3.02024-2.51669-5.20476-2.1732-7.55785.23549-2.24508,1.239-4.6828.97169-5.07763a2.38927,2.38927,0,0,0-1.36653.58853c-.06621.41857.34243.34243.35872.409,0,0-.42918-.221-.35482-.38633.028-.1721-1.81837,4.01529-1.43841,6.96293.8991,2.54679,2.363,5.74266,5.31879,7.61274.66963.50142,1.34811,1.02091,2.07015,1.50711a26.1305,26.1305,0,0,0,2.301,1.32438,13.03677,13.03677,0,0,0,5.09357,1.48657c3.23907,1.6785,4.06912,1.932,4.55107,2.6431a8.59008,8.59008,0,0,1,1.579,2.34955,7.14416,7.14416,0,0,1,.57827,2.16363,7.03761,7.03761,0,0,1-.16254,2.69729c.51665,3.32973.41183,2.80953.41042,2.88673a5.78139,5.78139,0,0,0,.01664.68238c.0818.10446.49045-.22168.60093-.37359"/>
      <path d="M74.81363,300.64139a12.11337,12.11337,0,0,1,.12571-4.81418c-.68379-2.58361-1.01524-4.51884-2.35875-5.96752-1.75428-.90653-4.40765-2.55281-7.79652-2.54891-1.3991-.79853-2.85451-1.58254-4.22635-2.45436-1.36192-.8775-2.72986-1.789-4.10453-2.75111-1.53827-2.886-2.375-4.98769-2.00039-7.25792.2794-2.17071,1.30491-4.52663,1.0673-4.91013a2.47712,2.47712,0,0,0-1.36617.58924c-.06905.40121.32649.32756.33712.39094,0,0-.40653-.21317-.33393-.37076.01912-.16-1.88707,3.90127-1.56235,6.73808.84668,2.43949,2.2125,5.515,5.1095,7.26216.6498.47381,1.31872.95859,2.011,1.42177a23.03858,23.03858,0,0,0,2.243,1.23975,12.64573,12.64573,0,0,0,4.9969,1.33784c1.59209.772,2.56555,1.24365,3.22562,1.56377a3.11323,3.11323,0,0,1,1.19584.90724,7.79464,7.79464,0,0,1,1.50286,2.243,7.16307,7.16307,0,0,1,.29144,4.71184c.43272,3.22243.341,2.71995.33817,2.79466a5.52869,5.52869,0,0,0,.00142.66361c.07791.09915.48762-.227.59881-.37642"/>
    </g>
    <g>
      <path d="M41.56909,277.25572a13.55791,13.55791,0,0,1,1.09492-5.03018c-.16679-2.90975-.2833-4.96822-1.24826-6.90522-1.47275-1.47488-3.95828-3.87683-7.2912-4.80355-1.21921-1.22736-2.43984-2.47065-3.658-3.75006-1.22027-1.27835-2.45259-2.58787-3.5592-3.98945-.80348-3.49722-1.43168-5.88112-.539-8.19985.74293-2.23057,2.30174-4.47635,2.11052-4.9406a2.30226,2.30226,0,0,0-1.46815.26523c-.13811.40617.26877.43061.267.5032,0,0-.36545-.33145-.26736-.47912.10376-.1767-2.70826,3.65375-2.97632,6.73914.49611,2.76067,1.06694,6.41477,3.6201,9.02282,2.3074,2.65833,4.788,5.62438,8.40595,6.71293,2.94056,2.46534,3.58292,2.97739,3.92889,3.80991a11.30108,11.30108,0,0,1,1.05809,2.77342,7.33674,7.33674,0,0,1-.56516,5.00291c-.227,3.51281-.21283,2.9565-.22982,3.034a6.24048,6.24048,0,0,0-.13634.698c.05737.12642.53011-.10128.67069-.227"/>
      <path d="M48.84435,273.74646a12.95653,12.95653,0,0,1,1.17743-4.8588c-.11473-2.7936-.19618-4.76672-1.1236-6.60847a16.449,16.449,0,0,0-7.17151-4.49476l-3.58717-3.54468c-1.19762-1.20965-2.40833-2.4494-3.4944-3.77945-.75709-3.34284-1.3559-5.6205-.44122-7.85.76417-2.1438,2.3414-4.30673,2.15478-4.74831a2.397,2.397,0,0,0-1.46532.26771c-.14519.39024.26169.40971.26239.47806,0,0-.36438-.31268-.26275-.455.10376-.17033-2.73836,3.522-3.04042,6.48276.4646,2.63956.99294,6.13714,3.50041,8.60673,2.26527,2.51917,4.68989,5.33189,8.27175,6.32058,2.88283,2.32121,3.51316,2.80033,3.8439,3.59354a10.25665,10.25665,0,0,1,1.00356,2.64594,6.92411,6.92411,0,0,1-.64909,4.81878c-.28365,3.38249-.26205,2.84884-.28188,2.92391a5.9018,5.9018,0,0,0-.14377.67317c.05454.1204.52515-.10658.66751-.23017"/>
      <path d="M55.66564,270.20142a12.40663,12.40663,0,0,1,1.25675-4.69129c-.07365-2.67817-.09809-4.579-.99045-6.32837a15.93015,15.93015,0,0,0-7.05218-4.21289l-3.52095-3.35275a48.633,48.633,0,0,1-3.42-3.58646c-.71-3.19694-1.29924-5.367-.33924-7.51748.78542-2.05917,2.38212-4.141,2.1994-4.55992a2.4848,2.4848,0,0,0-1.46532.26842c-.14767.37359.25744.38952.25531.45326,0,0-.35907-.29639-.25638-.43272.09986-.16219-2.75465,3.38886-3.11088,6.23523.42989,2.52518.9299,5.87085,3.37435,8.2165,2.21923,2.39133,4.60914,5.0532,8.13292,5.95973,2.8361,2.186,3.45226,2.63354,3.76636,3.39029a8.79692,8.79692,0,0,1,.94229,2.52837,6.54286,6.54286,0,0,1-.7277,4.6403c-.34172,3.25749-.31162,2.744-.33216,2.81662a5.62235,5.62235,0,0,0-.15475.65122c.0517.11473.52374-.1119.66609-.233"/>
    </g>
    <g>
      <path d="M28.57489,239.95587a12.67736,12.67736,0,0,1,2.10378-4.63712c.54782-2.88425.965-4.92926.36085-7.01676-1.22559-1.74861-2.86478-4.68068-5.9909-6.31774a94.42759,94.42759,0,0,1-5.32126-9.14782c-.16821-3.57655.022-6.04614,1.32226-8.10425,1.18557-2.0064,3.14028-3.8485,3.07937-4.3432a2.2955,2.2955,0,0,0-1.48834-.06657c-.2369.36473.15439.47876.14058.54887,0,0-.28046-.40369-.147-.5255.09206-.14873-3.38073,2.95791-4.312,5.90166a24.82243,24.82243,0,0,0-.07967,4.67925,12.15273,12.15273,0,0,0,1.58076,4.9105c1.47913,3.12045,3.488,6.53587,6.6846,8.41728,2.21321,3.07477,2.76917,3.71076,2.94871,4.59462a8.10667,8.10667,0,0,1-1.29641,7.69666c-.92636,3.35523-.80136,2.8191-.83359,2.89028a5.942,5.942,0,0,0-.27408.64661c.03116.13527.54286.01912.70646-.07153"/>
      <path d="M36.45144,238.16618a12.08931,12.08931,0,0,1,2.14592-4.45192c.57225-2.75925,1.00462-4.71325.41538-6.69983-1.2093-1.659-2.82724-4.4459-5.94344-5.99231a89.43291,89.43291,0,0,1-5.28232-8.71828c-.15793-3.4179.03789-5.78126,1.33926-7.74871,1.187-1.9193,3.141-3.67853,3.08008-4.15057a2.38838,2.38838,0,0,0-1.48621-.06374c-.24045.34845.15262.45752.14129.52444,0,0-.28329-.38563-.14767-.50213.09066-.14271-3.38108,2.82583-4.31771,5.64351a22.82027,22.82027,0,0,0-.08746,4.47529,11.24248,11.24248,0,0,0,1.56518,4.69023c1.46922,2.97845,3.45827,6.23276,6.64211,8.00935,2.18948,2.9225,2.74084,3.52413,2.91506,4.36622a7.50364,7.50364,0,0,1-1.36192,7.36273c-.95221,3.215-.82544,2.70259-.85979,2.77129a5.66851,5.66851,0,0,0-.27585.62c.02975.12926.53932.01346.70433-.07507"/>
      <path d="M43.8903,236.24015a9.25087,9.25087,0,0,1,.4515-1.33111,11.479,11.479,0,0,1,1.74294-2.94091c.59668-2.63957,1.04358-4.50645.47062-6.396-1.17282-1.5797-2.79042-4.22741-5.89068-5.69344A85.997,85.997,0,0,1,35.433,211.562c-.01416-.818-.02762-1.5712-.03966-2.27128a17.88022,17.88022,0,0,1,.1891-1.95329,7.23484,7.23484,0,0,1,1.21532-3.1849c1.19442-1.83431,3.13213-3.5121,3.09389-3.96147a2.47034,2.47034,0,0,0-1.48622-.063c-.2369.3318.15121.437.13351.49894,0,0-.27373-.36863-.13988-.47911.08605-.136-3.39914,2.69587-4.33187,5.39173a22.495,22.495,0,0,0-.10907,4.2823,10.391,10.391,0,0,0,1.551,4.48237c1.46143,2.8446,3.40728,5.95053,6.58793,7.63044,2.17851,2.7805,2.69835,3.352,2.87292,4.15411a6.92083,6.92083,0,0,1-1.432,7.04367c-.98125,3.08008-.85023,2.58928-.88493,2.65515a5.42233,5.42233,0,0,0-.28152.59668c.02833.12252.539.00744.704-.07861"/>
    </g>
    <g>
      <path d="M24.14315,200.72114a13.589,13.589,0,0,1,3.1764-4.05283c1.13352-2.692,1.87928-4.59923,1.86193-6.76216-.69866-1.96816-1.834-5.203-4.50468-7.48667-1.10342-3.26245-2.25747-6.59643-3.16011-10.09719.78684-3.50042,1.335-5.90485,3.05742-7.62655,1.63353-1.68983,4.03088-3.03652,4.0592-3.53759a2.29991,2.29991,0,0,0-1.43805-.39555c-.30241.306.05312.5039.02018.56835,0,0-.18414-.45645-.0308-.54675.19511-.10942-4.095,2.10875-5.57765,4.79328a30.84718,30.84718,0,0,0-1.06128,4.562,10.47812,10.47812,0,0,0,.41927,5.13394c.9161,3.39135,1.83785,7.13362,4.6697,9.6843,1.57156,3.49333,1.926,4.23307,1.874,5.13252-.02975.85944.38209,4.61871-2.92,7.21719-1.732,3.06344-1.47736,2.56839-1.52659,2.63107a6.19644,6.19644,0,0,0-.426.56906c-.00319.13846.5216.13846.70256.08676"/>
      <path d="M32.22013,200.72149a13.00058,13.00058,0,0,1,3.17675-3.86656c1.12963-2.56733,1.87043-4.385,1.84565-6.44664-.70257-1.87858-1.84919-4.96786-4.53018-7.16124-1.11829-3.1201-2.28935-6.31279-3.21677-9.66766.7617-3.34212,1.29075-5.6382,2.99474-7.27031,1.61511-1.60236,3.99263-2.86655,4.016-3.34531a2.39939,2.39939,0,0,0-1.43664-.392c-.30241.28895.056.482.02621.54392,0,0-.19087-.43875-.03683-.52338.19264-.1034-4.06522,1.977-5.52488,4.53478a28.39175,28.39175,0,0,0-1.02339,4.35772,9.68177,9.68177,0,0,0,.45362,4.91368c.93769,3.249,1.87539,6.82944,4.71786,9.27671,1.58147,3.34036,1.93948,4.04575,1.891,4.90412a7.74593,7.74593,0,0,1-2.9101,6.88291c-1.72631,2.92427-1.47489,2.45224-1.52517,2.51173a5.88236,5.88236,0,0,0-.42246.54356c-.00318.13244.51913.13244.70115.08287"/>
      <path d="M39.90794,200.49238a12.45028,12.45028,0,0,1,3.17179-3.68561c1.11653-2.44764,1.87822-4.17784,1.84494-6.1421a15.49949,15.49949,0,0,0-4.544-6.85989c-1.12679-2.98447-2.33219-6.04933-3.25607-9.26255.73832-3.19128,1.23869-5.38466,2.93666-6.92859,1.61051-1.51455,3.96182-2.69906,3.981-3.15515a2.48287,2.48287,0,0,0-1.43664-.3913c-.29675.27267.06055.46176.0308.51842,0,0-.19334-.42175-.04072-.50036.1852-.09774-4.02238,1.84954-5.48168,4.28088a26.15383,26.15383,0,0,0-.989,4.16331,9.01424,9.01424,0,0,0,.47345,4.7037,34.77781,34.77781,0,0,0,1.67531,4.7352,14.51124,14.51124,0,0,0,1.25817,2.21534,11.56878,11.56878,0,0,0,1.81519,1.94444c1.5974,3.20047,1.95647,3.87152,1.90867,4.69059a7.2178,7.2178,0,0,1-2.90834,6.56172c-1.72453,2.78935-1.47382,2.33928-1.5241,2.39558a5.62877,5.62877,0,0,0-.42246.52019c-.00319.12571.52019.12642.70115.07932"/>
    </g>
    <g>
      <path d="M28.5802,161.48676a13.19375,13.19375,0,0,1,3.91118-3.27024c1.68063-2.37929,3.0082-4.02556,3.3616-6.16972-.34526-2.10627-.61049-5.4753-2.67957-8.29192-.20362-1.72489-.45646-3.48484-.579-5.232-.11438-1.744-.20432-3.51458-.255-5.32375,1.41539-3.29255,2.61973-5.45618,4.704-6.73949,1.943-1.29393,4.50114-2.107,4.66722-2.57617-.20043-.36226-.84421-.57579-1.31164-.70682-.36863.22735-.07188.49718-.11508.55455,0,0-.07118-.483.0995-.53613.14377-.09632-4.33576,1.19584-6.45655,3.44694-1.4809,2.40443-3.14843,5.68282-2.811,9.30221.0092.86935.022,1.76243.06621,2.66081a25.35036,25.35036,0,0,0,.35766,2.72916,13.554,13.554,0,0,0,1.95506,5.09569c.63918,3.72138.96071,4.56523.693,5.42538a8.30794,8.30794,0,0,1-4.48662,6.38219c-2.30457,2.62044-1.95719,2.19161-2.01774,2.24224a6.01852,6.01852,0,0,0-.53011.46354c-.03116.13527.48054.25177.66786.2408"/>
      <path d="M36.45639,163.27787a12.58226,12.58226,0,0,1,3.86905-3.08468c1.64875-2.25606,2.95012-3.8131,3.27378-5.85952-.3697-2.01845-.67919-5.24549-2.77838-7.9757-.22734-1.65655-.5039-3.3485-.65157-5.02771-.13987-1.676-.25637-3.37824-.33534-5.11871,1.35519-3.14311,2.517-5.20583,4.56275-6.40592,1.90549-1.21248,4.42572-1.94975,4.58223-2.39841a2.39172,2.39172,0,0,0-1.31128-.70327c-.36438.21105-.06409.477-.1034.53223,0,0-.0818-.46743.08817-.51488.14023-.091-4.277,1.07438-6.34677,3.20721-1.43027,2.29041-3.03334,5.42042-2.64523,8.90312.02266.83536.04851,1.69373.10588,2.55706a23.75,23.75,0,0,0,.39519,2.625,13.071,13.071,0,0,0,2.01738,4.913c.68415,3.57265,1.01666,4.38322.76135,5.20334A7.68146,7.68146,0,0,1,37.54,160.1815c-2.26774,2.483-1.9285,2.07652-1.98941,2.12362a5.73784,5.73784,0,0,0-.5209.4391c-.02975.1289.47982.245.66715.23655"/>
      <path d="M43.99831,164.75736a12.01913,12.01913,0,0,1,3.82336-2.9048c1.64238-2.1307,2.90232-3.607,3.20331-5.5571-.39625-1.93842-.72558-5.02629-2.86088-7.68108-.244-1.59033-.5595-3.22456-.70823-4.83188-.16289-1.61264-.30383-3.25112-.40865-4.92643,1.29394-3.00253,2.43489-4.959,4.43528-6.08261,1.87007-1.13352,4.35135-1.79713,4.5107-2.21852a2.47536,2.47536,0,0,0-1.31164-.70292c-.35659.19583-.05276.45964-.09561.50745,0,0-.08676-.45115.08145-.49222.13881-.08393-4.23839.94548-6.24763,2.96959a20.32971,20.32971,0,0,0-1.94231,3.81452,10.3598,10.3598,0,0,0-.55844,4.70511c.0694,3.18914.53754,6.85174,2.63567,9.72608.73372,3.4388,1.051,4.20793.81587,4.99265a7.0811,7.0811,0,0,1-4.32514,5.732c-2.23552,2.34883-1.9023,1.96391-1.96214,2.00817a5.4214,5.4214,0,0,0-.51559.41538c-.02833.12252.48195.23938.66821.23336"/>
    </g>
    <g>
      <path d="M41.57936,124.189a13.56039,13.56039,0,0,1,4.61764-2.27412c2.164-1.94692,3.71819-3.311,4.62862-5.27453a17.40389,17.40389,0,0,0-.7787-8.69313c.1976-1.71993.40759-3.45013.64661-5.20087q.19069-1.31837.38209-2.64275.26239-1.30455.52728-2.62009c2.2295-2.80812,3.6757-4.80213,6.07694-5.52488,2.19975-.8141,4.92076-1.00037,5.16227-1.44088-.1204-.40228-.69867-.75214-1.12325-.982-.40227.14589-.16714.47947-.22451.52373,0,0,.02975-.49363.20574-.50886.19583-.03435-4.5199.17918-7.11662,1.87716-1.87007,2.091-4.32125,4.84675-4.80143,8.44525-.64165,3.459-1.39237,7.26075-.012,10.75656-.09419,3.83753-.09419,4.65943-.5294,5.44875a10.77417,10.77417,0,0,1-1.51631,2.55209,7.32955,7.32955,0,0,1-4.26353,2.67356c-2.8878,2.01-2.44409,1.67425-2.51562,1.70931a6.12777,6.12777,0,0,0-.63032.32826c-.063.12359.40935.35164.59526.38351"/>
      <path d="M48.85391,127.69936a12.95653,12.95653,0,0,1,4.53514-2.10343c2.10556-1.834,3.61479-3.11726,4.47422-4.993a16.598,16.598,0,0,0-.94477-8.40914l.53152-5.01956q.16041-1.27321.32224-2.55245.23106-1.25942.46425-2.52979c2.13849-2.67745,3.52095-4.58294,5.86695-5.2338,2.14522-.744,4.81347-.86545,5.04081-1.28791-.12713-.39413-.70256-.74683-1.12325-.97877-.39448.131-.15545.46141-.20857.505,0,0,.01593-.48124.19051-.4908.19051-.03045-4.43669.07472-6.95833,1.66965-1.79571,1.99224-4.152,4.6187-4.5532,8.0961-.5602,3.34071-1.22594,7.00437.20964,10.40988-.01771,3.70367,0,4.49583-.4136,5.24938a9.80324,9.80324,0,0,1-1.45081,2.43028,6.9176,6.9176,0,0,1-4.17217,2.49367c-2.82086,1.88459-2.39026,1.56872-2.46144,1.60059a5.85,5.85,0,0,0-.6158.30631c-.06056.11792.41006.34491.59562.37926"/>
      <path d="M55.87705,130.83327a12.38745,12.38745,0,0,1,4.4505-1.93877,32.22074,32.22074,0,0,0,2.62363-2.33892,7.62086,7.62086,0,0,0,1.715-2.37646,16.09227,16.09227,0,0,0-1.09032-8.14249l.42317-4.84923c.08392-.81553.16395-1.64344.272-2.46392q.2045-1.21638.41077-2.44233c2.04217-2.55988,3.38037-4.36693,5.67219-4.9498,2.09352-.67565,4.71113-.73195,4.92289-1.13741-.13208-.38775-.70539-.74364-1.1236-.97806-.38315.11863-.14271.44547-.1937.48407,0,0,.00637-.46707.17705-.472.18591-.02514-4.35347-.02691-6.8011,1.46957-1.7472,1.88105-3.9898,4.402-4.33825,7.75119-.489,3.226-1.05986,6.76959.4044,10.07985.05807,3.58327.09242,4.345-.30348,5.06276a8.43952,8.43952,0,0,1-1.39768,2.30988,6.53382,6.53382,0,0,1-4.08081,2.32122c-2.76,1.76172-2.33963,1.46532-2.40939,1.49436a5.60949,5.60949,0,0,0-.60553.28471c-.05737.1119.414.3403.59739.37642"/>
    </g>
    <g>
      <path d="M62.65407,90.79293a10.3443,10.3443,0,0,1,1.39273-.57366,11.86412,11.86412,0,0,1,3.56239-.65759c2.58219-1.38282,4.43138-2.34069,5.675-4.12436.68167-1.97454,1.86264-5.16546,1.198-8.62161,1.08465-3.3276,2.39027-6.52206,3.81274-9.87977,2.78227-2.25889,4.74052-3.76033,7.16195-4.028,2.28014-.36084,5.03762.13633,5.36163-.25071-.0262-.41644-.51346-.88635-.87749-1.20576-.42812.04887-.27373.42494-.34.45468,0,0,.14165-.46991.318-.44477.21707.03258-4.52239-.9168-7.33618.27692-2.29961,1.61122-5.36128,3.68385-6.55039,7.16974a38.85709,38.85709,0,0,0-1.98056,5.01142,13.50831,13.50831,0,0,0-.41715,5.46716c-.9731,3.69163-1.1884,4.46325-1.76454,5.157a8.016,8.016,0,0,1-6.80146,3.80673,20.38707,20.38707,0,0,1-2.79007,1.1406,5.88524,5.88524,0,0,0-.67423.19051c-.08569.10907.32437.43662.49682.5078"/>
      <path d="M68.96544,95.83339a9.71481,9.71481,0,0,1,1.35555-.52657,11.448,11.448,0,0,1,3.48235-.55773c2.50075-1.2865,4.28867-2.17638,5.46362-3.886.62253-1.90691,1.70329-4.99088.97452-8.38329.98479-3.226,2.18913-6.32128,3.50219-9.5809,2.66506-2.15195,4.5415-3.58115,6.89282-3.79149,2.21215-.30419,4.90377.24433,5.20972-.12855-.0347-.40971-.51878-.88209-.87856-1.20221-.41714.03612-.25779.41006-.32012.43981,0,0,.12607-.46071.29923-.43025.21105.03506-4.41792-1.00073-7.1361.10942-2.20506,1.53119-5.146,3.49935-6.23169,6.885a36.56283,36.56283,0,0,0-1.82262,4.8595,13.04867,13.04867,0,0,0-.284,5.33189c-.8697,3.57867-1.06057,4.32585-1.60839,4.98911a7.42228,7.42228,0,0,1-6.583,3.55,17.42985,17.42985,0,0,1-2.71393,1.04711,5.64024,5.64024,0,0,0-.65546.17246c-.0818.1041.32649.43024.49859.5039"/>
      <path d="M75.10967,100.44607a9.16879,9.16879,0,0,1,1.31836-.4816,11.04843,11.04843,0,0,1,3.41047-.455c2.42391-1.1923,4.15057-2.01987,5.26426-3.653a15.01326,15.01326,0,0,0,.773-8.15913c.90653-3.11408,2.00534-6.12971,3.2203-9.29159,2.56768-2.03438,4.35242-3.40834,6.641-3.55849,2.16116-.23159,4.77806.3566,5.06843.00107-.04072-.40476-.522-.87962-.87891-1.20187-.403.02656-.24186.39732-.301.42282,0,0,.11332-.44937.28188-.415.21211.04674-4.323-1.09245-6.94559-.05985-2.108,1.46284-4.954,3.31025-5.93884,6.606a34.43931,34.43931,0,0,0-1.67566,4.71679,12.4081,12.4081,0,0,0-.16927,5.197c-.77338,3.47562-.92955,4.20793-1.46957,4.8255a6.87581,6.87581,0,0,1-6.37015,3.306,17.96935,17.96935,0,0,1-2.64877.94867,5.35734,5.35734,0,0,0-.64059.15368c-.07755.09915.33109.42636.50071.50143"/>
    </g>
    <g>
      <path d="M90.571,62.87957a13.28451,13.28451,0,0,1,5.10738-.10234c2.767-.852,4.85915-1.27375,6.46824-2.73517a34.325,34.325,0,0,0,1.86653-3.47775,12.29393,12.29393,0,0,0,1.19974-4.68c.9129-1.47878,1.823-2.99261,2.80175-4.45687.99683-1.43381,2.02942-2.87328,3.11655-4.31842,3.15976-1.68877,5.4406-2.64842,7.87549-2.346,2.32511.19511,4.839,1.16291,5.25434.88564a2.28944,2.28944,0,0,0-.58677-1.36972c-.432-.056-.3612.35376-.432.369,0,0,.239-.43485.40829-.36438.17848.02656-4.1364-1.76-7.19736-1.31908-2.65762.95682-5.99514,2.49615-7.98951,5.527-.53223.68769-1.08394,1.38494-1.60165,2.12645-.50532.7617-.9894,1.54712-1.41823,2.35875a13.51291,13.51291,0,0,0-1.64734,5.19627c-1.80562,3.32689-2.08785,4.17606-2.83361,4.681a9.46061,9.46061,0,0,1-2.46109,1.66008,7.71574,7.71574,0,0,1-2.24473.63882,7.29048,7.29048,0,0,1-2.77483-.10163c-3.4434.60022-2.903.48337-2.982.48478a6.01166,6.01166,0,0,0-.70469.02975c-.10907.08569.21813.49611.37146.60447"/>
      <path d="M95.61037,69.192a12.67319,12.67319,0,0,1,4.96042.01523c2.66648-.77622,4.68316-1.14521,6.20868-2.54927a31.9987,31.9987,0,0,0,1.73232-3.38391,11.95,11.95,0,0,0,1.06234-4.58967c.85271-1.44053,1.70223-2.91648,2.619-4.3432.93557-1.397,1.90513-2.79962,2.92781-4.209,3.02059-1.6098,5.20476-2.51669,7.55785-2.1732,2.24543.23513,4.6828,1.239,5.07763.97133a2.391,2.391,0,0,0-.58818-1.36652c-.41892-.06622-.34278.34243-.40936.35872,0,0,.22133-.42919.38634-.35447.1721.028-4.01529-1.81873-6.96293-1.43841-2.54679.89909-5.74267,2.36265-7.61274,5.31843-.50107.67-1.02091,1.34811-1.50675,2.07015a26.139,26.139,0,0,0-1.32474,2.30139,13.02854,13.02854,0,0,0-1.48622,5.09357c-1.67885,3.23872-1.9324,4.06912-2.64346,4.55106a8.59916,8.59916,0,0,1-2.34954,1.57864,7.1306,7.1306,0,0,1-2.16363.57827A7.04423,7.04423,0,0,1,98.398,67.459c-3.32973.51629-2.80954.41183-2.88673.41041a5.7069,5.7069,0,0,0-.68238.01665c-.10411.0818.22168.49009.37359.60057"/>
      <path d="M100.58354,75.05293a12.11826,12.11826,0,0,1,4.81418.12607c2.584-.6838,4.5192-1.01525,5.96787-2.35875.90653-1.75428,2.55281-4.408,2.54856-7.79652.79853-1.39946,1.58253-2.85451,2.45436-4.22635.87785-1.36192,1.789-2.73022,2.75111-4.10488,2.886-1.53827,4.98805-2.375,7.25827-2.00039,2.17036.27939,4.52628,1.30526,4.90978,1.06765a2.47541,2.47541,0,0,0-.58889-1.36617c-.40156-.06905-.32755.32614-.39129.33712,0,0,.21317-.40688.37075-.33429.16006.01948-3.90091-1.88707-6.73772-1.56235-2.43984.84669-5.51532,2.21286-7.26251,5.10951-.47381.65015-.95823,1.31907-1.42177,2.01136a22.95173,22.95173,0,0,0-1.23975,2.243,12.64408,12.64408,0,0,0-1.33784,4.99654c-.77162,1.59245-1.24365,2.56556-1.56377,3.22563a3.11106,3.11106,0,0,1-.90688,1.19584,7.80478,7.80478,0,0,1-2.243,1.50321,7.16408,7.16408,0,0,1-4.71219.29143c-3.22208.43273-2.71959.341-2.79431.33783a5.47387,5.47387,0,0,0-.664.00177c-.0988.07755.227.48726.37642.59881"/>
    </g>
    <g>
      <path d="M123.96921,41.80874a13.557,13.557,0,0,1,5.03018,1.09492c2.91011-.16678,4.96857-.28364,6.90557-1.24825,1.47453-1.47276,3.87648-3.95863,4.8032-7.2912,1.22736-1.21956,2.471-2.43984,3.75006-3.658,1.27835-1.22028,2.58787-2.45259,3.9898-3.5592,3.49723-.80348,5.88112-1.432,8.19986-.53931,2.2302.74293,4.476,2.30209,4.94024,2.11052a2.30086,2.30086,0,0,0-.26524-1.46781c-.40581-.13845-.4306.26842-.50284.267,0,0,.33145-.3658.47877-.26736.1767.10376-3.65375-2.70826-6.73914-2.97632-2.76067.49611-6.41442,1.06659-9.02246,3.6201-2.65833,2.3074-5.62474,4.788-6.71329,8.40595-2.465,2.94056-2.97739,3.58292-3.80955,3.92854a11.29348,11.29348,0,0,1-2.77378,1.05844,7.33879,7.33879,0,0,1-5.00291-.56516c-3.51281-.227-2.9565-.21283-3.034-.23018a6.16052,6.16052,0,0,0-.698-.136c-.12642.05737.10163.53011.227.67034"/>
      <path d="M127.47847,49.084a12.95022,12.95022,0,0,1,4.8588,1.17707c2.7936-.11473,4.76672-.19618,6.60847-1.1236a16.44541,16.44541,0,0,0,4.49476-7.17115l3.545-3.58753c1.20965-1.19726,2.449-2.408,3.77946-3.494,3.34283-.75745,5.62049-1.3559,7.85-.44158,2.14345.76453,4.30637,2.3414,4.74831,2.15514a2.40165,2.40165,0,0,0-.26771-1.46533c-.39059-.14554-.40971.26169-.47841.26205,0,0,.31268-.364.45539-.26275.17033.10375-3.52237-2.73836-6.48311-3.04042-2.63921.465-6.13715.99329-8.60638,3.50076-2.51952,2.26527-5.33189,4.68988-6.32093,8.27174-2.32086,2.88284-2.80033,3.51281-3.59354,3.84391a10.27181,10.27181,0,0,1-2.64559,1.00356,6.929,6.929,0,0,1-4.81913-.64909c-3.38214-.28365-2.84849-.2624-2.92392-.28188a5.89449,5.89449,0,0,0-.67281-.14412c-.12075.05453.10623.52515.22982.6675"/>
      <path d="M131.0235,55.9053a12.40981,12.40981,0,0,1,4.6913,1.2564c2.67816-.07366,4.579-.09809,6.32872-.99011a15.93587,15.93587,0,0,0,4.21289-7.05252l3.35275-3.5206a48.55748,48.55748,0,0,1,3.58611-3.42038c3.19694-.70965,5.36694-1.29889,7.51748-.33925,2.05952.78578,4.14136,2.38248,4.55992,2.19976a2.48665,2.48665,0,0,0-.26807-1.46532c-.37359-.14767-.38987.25708-.45361.25531,0,0,.29639-.35907.43308-.25638.16183.09951-3.38923-2.755-6.23559-3.11124-2.52519.4299-5.8705.93026-8.2165,3.37435-2.39133,2.21958-5.0532,4.6095-5.95973,8.13328-2.18595,2.83574-2.63319,3.45226-3.39029,3.76636a8.79514,8.79514,0,0,1-2.52837.94194,6.54082,6.54082,0,0,1-4.6403-.72735c-3.2575-.34208-2.744-.31162-2.81662-.33251a5.63722,5.63722,0,0,0-.65122-.1544c-.11473.0517.1119.52338.23336.66609"/>
    </g>
    <g>
      <path d="M161.26906,28.81454a12.67034,12.67034,0,0,1,4.63712,2.10379c2.88461.54746,4.92961.965,7.01676.36085,1.749-1.226,4.68067-2.86478,6.31774-5.99125A94.49737,94.49737,0,0,1,188.3885,19.967c3.5769-.16855,6.04649.022,8.10424,1.32191,2.00641,1.18557,3.84851,3.14064,4.34321,3.07973a2.29681,2.29681,0,0,0,.06657-1.4887c-.36474-.23654-.47876.15475-.54887.14094,0,0,.40368-.28081.5255-.147.14873.09172-2.95791-3.38107-5.9013-4.31239a24.85317,24.85317,0,0,0-4.67926-.07968,12.15251,12.15251,0,0,0-4.91085,1.58077c-3.12045,1.47948-6.53588,3.488-8.41728,6.6846-3.07442,2.21356-3.71076,2.76917-4.59463,2.94906a8.10768,8.10768,0,0,1-7.69666-1.29641c-3.35487-.92636-2.81874-.80172-2.89027-.83394a5.90853,5.90853,0,0,0-.64661-.27408c-.13527.03116-.01913.54321.07153.70681"/>
      <path d="M163.0591,36.69109a12.08227,12.08227,0,0,1,4.45157,2.14593c2.7596.5719,4.71325,1.00462,6.69983.41538,1.65937-1.20965,4.44589-2.82725,5.99231-5.9438a89.35949,89.35949,0,0,1,8.71828-5.282c3.4179-.15793,5.78126.03754,7.74907,1.33926,1.91894,1.187,3.67817,3.141,4.15021,3.08008a2.38967,2.38967,0,0,0,.06374-1.48657c-.3481-.24009-.45716.15262-.52444.14165,0,0,.386-.28365.50213-.14767.14271.0903-2.82583-3.38143-5.64316-4.31806a22.85163,22.85163,0,0,0-4.47564-.08747,11.24308,11.24308,0,0,0-4.69023,1.56554c-2.97845,1.46922-6.2324,3.45827-8.00935,6.64175-2.92214,2.18984-3.52378,2.7412-4.36622,2.91507a7.5018,7.5018,0,0,1-7.36273-1.36192c-3.21464-.95221-2.70224-.82509-2.77094-.85944a5.63645,5.63645,0,0,0-.62041-.27621c-.12889.02975-.0131.53932.07508.70469"/>
      <path d="M164.98477,44.12961a9.23151,9.23151,0,0,1,1.33112.45184,11.4835,11.4835,0,0,1,2.94127,1.7426c2.63956.59668,4.50609,1.04357,6.39564.471,1.58006-1.17283,4.22741-2.79077,5.69344-5.891a85.88944,85.88944,0,0,1,8.31707-5.23132c.81765-.01452,1.57085-.02762,2.27128-.04a18.07269,18.07269,0,0,1,1.95329.1891,7.23854,7.23854,0,0,1,3.1849,1.21567c1.834,1.19407,3.51175,3.13178,3.96112,3.09389a2.47182,2.47182,0,0,0,.063-1.48657c-.3318-.23655-.437.15156-.49895.1335,0,0,.369-.27338.47947-.13952.13563.08605-2.69622-3.39914-5.39208-4.33187a22.49189,22.49189,0,0,0-4.2823-.10942,10.40029,10.40029,0,0,0-4.48237,1.551c-2.8446,1.46143-5.95017,3.40764-7.63044,6.58793-2.7805,2.17887-3.352,2.69835-4.15411,2.87293a6.91937,6.91937,0,0,1-7.04332-1.432c-3.08008-.98089-2.58963-.84987-2.65514-.88457a5.339,5.339,0,0,0-.597-.28152c-.12252.02833-.00708.539.07861.70362"/>
    </g>
    <g>
      <path d="M200.50379,24.38246a13.589,13.589,0,0,1,4.05283,3.1764c2.692,1.13352,4.59958,1.87963,6.76215,1.86228,1.96817-.699,5.20335-1.83431,7.48668-4.50468,3.26244-1.10377,6.59642-2.25747,10.09719-3.16011,3.50077.78684,5.90485,1.33466,7.62655,3.05742,1.68983,1.63352,3.03652,4.03087,3.53795,4.05885a2.29659,2.29659,0,0,0,.39519-1.4377c-.3056-.30277-.50355.05276-.56835.01983,0,0,.45645-.18379.54675-.03081.10942.19547-2.10875-4.095-4.79293-5.57764a30.851,30.851,0,0,0-4.5624-1.06128,10.4741,10.4741,0,0,0-5.13394.41962c-3.39135.91609-7.13327,1.8375-9.6843,4.66934-3.49333,1.57156-4.23308,1.926-5.13252,1.87433-.85944-.02975-4.61835.38173-7.21719-2.92-3.06344-1.732-2.56839-1.47737-2.63107-1.52659a6.16536,6.16536,0,0,0-.56871-.426c-.13881-.00354-.13881.52126-.08675.70257"/>
      <path d="M200.50344,32.45979a12.9995,12.9995,0,0,1,3.86692,3.1764c2.567,1.13,4.38463,1.87078,6.44628,1.84564,1.87857-.70256,4.96786-1.84918,7.16124-4.52982,3.1201-1.11829,6.31279-2.2897,9.66766-3.21677,3.34212.7617,5.6382,1.29074,7.27031,2.99438,1.60236,1.61512,2.86655,3.993,3.34531,4.016a2.39554,2.39554,0,0,0,.392-1.43664c-.2886-.30206-.482.05595-.54392.0262,0,0,.4391-.19051.52338-.03682.1034.19263-1.977-4.06523-4.53442-5.52453a28.30326,28.30326,0,0,0-4.35808-1.02339,9.684,9.684,0,0,0-4.91333.45327c-3.24934.93769-6.82943,1.87574-9.27671,4.71785-3.34036,1.58183-4.0461,1.93948-4.90448,1.89132a7.74791,7.74791,0,0,1-6.8829-2.9101c-2.92427-1.72631-2.45224-1.47489-2.51173-1.52553a5.89117,5.89117,0,0,0-.54357-.4221c-.13243-.00354-.13243.51913-.08286.70115"/>
      <path d="M200.73255,40.14724a12.44368,12.44368,0,0,1,3.68561,3.17215c2.44764,1.11617,4.17783,1.87787,6.1421,1.84494a15.49761,15.49761,0,0,0,6.85989-4.544c2.98483-1.12714,6.04968-2.33219,9.26255-3.25643,3.19128.73868,5.385,1.23869,6.92859,2.93666,1.5149,1.61087,2.69941,3.96183,3.15515,3.9813a2.481,2.481,0,0,0,.3913-1.43663c-.27231-.29711-.46177.06055-.51842.0308,0,0,.4221-.19334.50071-.04107.09774.1852-1.84989-4.02238-4.28123-5.48133a26.15835,26.15835,0,0,0-4.163-.989,9.00779,9.00779,0,0,0-4.704.47345,34.70915,34.70915,0,0,0-4.73485,1.67531,14.43425,14.43425,0,0,0-2.21533,1.25817,11.5692,11.5692,0,0,0-1.9448,1.81483c-3.20012,1.59776-3.87152,1.95683-4.69059,1.909a7.21705,7.21705,0,0,1-6.56137-2.90834c-2.78971-1.72488-2.33927-1.47417-2.39593-1.5241a5.60232,5.60232,0,0,0-.51984-.42246c-.12606-.00354-.12677.51984-.07968.70114"/>
    </g>
    <g>
      <path d="M239.73817,28.8195A13.19842,13.19842,0,0,1,243.0084,32.731c2.37929,1.68062,4.02557,3.00784,6.16973,3.3616,2.10662-.34526,5.4753-.61049,8.29228-2.67958,1.72488-.20361,3.48447-.45645,5.23167-.579,1.744-.11438,3.51458-.20468,5.3241-.255,3.29219,1.415,5.45618,2.61973,6.73949,4.704,1.29393,1.94267,2.10662,4.50079,2.57582,4.66722.36262-.20043.57615-.84456.70681-1.312-.22734-.36863-.49717-.07153-.55418-.11509,0,0,.483-.07117.53612.09951.096.14412-1.19584-4.33577-3.44694-6.45656-2.40478-1.48055-5.68317-3.14842-9.30256-2.811-.86935.00956-1.76243.02231-2.66081.06657a25.18176,25.18176,0,0,0-2.72916.35766,13.548,13.548,0,0,0-5.09569,1.95506c-3.72138.63917-4.56488.96071-5.42538.69265a8.30631,8.30631,0,0,1-6.38183-4.48627c-2.6208-2.30493-2.192-1.95719-2.24225-2.01774a5.98437,5.98437,0,0,0-.46389-.53011c-.13527-.03116-.25178.48053-.2408.66751"/>
      <path d="M237.94741,36.6957a12.59365,12.59365,0,0,1,3.08469,3.869c2.2557,1.64876,3.81274,2.95048,5.85916,3.27378,2.01845-.36934,5.24584-.67883,7.9757-2.77837,1.65655-.227,3.3485-.50391,5.02771-.65157,1.676-.13952,3.37824-.256,5.11871-.335,3.14347,1.35484,5.20583,2.51668,6.40592,4.56275,1.21284,1.90513,1.94975,4.42571,2.39841,4.58223a2.393,2.393,0,0,0,.70327-1.31128c-.21105-.36438-.477-.06409-.53223-.10376,0,0,.46778-.08144.51488.08853.091.13988-1.07438-4.27734-3.20686-6.34713-2.29076-1.42991-5.42077-3.03334-8.90312-2.64523-.83571.02266-1.69373.04887-2.55741.10624a23.64655,23.64655,0,0,0-2.62469.39519,13.06458,13.06458,0,0,0-4.91333,2.01738c-3.57265.68379-4.38322,1.01631-5.20334.76135a7.68352,7.68352,0,0,1-6.05145-4.40057c-2.48269-2.26739-2.07652-1.92851-2.12362-1.98941a5.63808,5.63808,0,0,0-.4391-.52055c-.1289-.02975-.24469.47982-.23655.66715"/>
      <path d="M236.46793,44.23761a12.02505,12.02505,0,0,1,2.90479,3.82337c2.1307,1.64237,3.60665,2.90231,5.55675,3.20366,1.93877-.39661,5.02664-.72558,7.68108-2.86088,1.59032-.244,3.22456-.5595,4.83188-.70823,1.61263-.16325,3.25112-.30383,4.92643-.409,3.00288,1.29428,4.959,2.43524,6.083,4.43563,1.13352,1.86972,1.79678,4.351,2.21853,4.51034a2.47759,2.47759,0,0,0,.70256-1.31128c-.19583-.35695-.45929-.05312-.50745-.096,0,0,.45114-.08675.49258.0818.08357.13882-.94584-4.23838-2.9696-6.248a20.36587,20.36587,0,0,0-3.81487-1.94231,10.36316,10.36316,0,0,0-4.70475-.55808c-3.1895.0694-6.8521.53719-9.72644,2.63531-3.43845.73372-4.20793,1.05136-4.9923.81588a7.07947,7.07947,0,0,1-5.73239-4.32515c-2.34883-2.23552-1.96391-1.90194-2.00782-1.96214a5.44231,5.44231,0,0,0-.41573-.51523c-.12252-.02833-.23938.48194-.23336.66785"/>
    </g>
    <g>
      <path d="M277.03589,41.819A13.54883,13.54883,0,0,1,279.31,46.43666c1.94692,2.164,3.311,3.71784,5.27452,4.62862a17.40216,17.40216,0,0,0,8.69349-.779c1.71958.19794,3.45013.40758,5.20087.64661q1.31837.19068,2.6424.38244,1.30455.26239,2.62008.52692c2.80813,2.2295,4.80249,3.6757,5.52489,6.0773.8141,2.1994,1.00072,4.92041,1.44088,5.16227.40263-.1204.75214-.69867.98231-1.12325-.14589-.40227-.47982-.1675-.52373-.22451,0,0,.49328.02939.50886.20574.03435.19547-.17953-4.51991-1.87715-7.117-2.0914-1.87008-4.84711-4.3209-8.44526-4.80143-3.45934-.64166-7.26075-1.39238-10.75656-.01169-3.83788-.09419-4.65978-.09455-5.4491-.5294a10.77955,10.77955,0,0,1-2.55209-1.51667,7.32708,7.32708,0,0,1-2.67321-4.26317c-2.0103-2.88815-1.6746-2.44409-1.70966-2.51562a6.2169,6.2169,0,0,0-.32791-.63068c-.12358-.063-.352.40971-.38386.59527"/>
      <path d="M273.52592,49.09357A12.95563,12.95563,0,0,1,275.629,53.6287c1.83395,2.10556,3.11726,3.6148,4.993,4.47423a16.6016,16.6016,0,0,0,8.40914-.94478l5.01956.53118q1.27322.16093,2.55245.32224,1.25994.23106,2.52979.46424c2.67745,2.13885,4.58294,3.52095,5.2338,5.867.74435,2.14557.86545,4.81382,1.28826,5.04116.39378-.12713.74683-.70292.97842-1.1236-.13067-.39449-.46141-.15511-.50461-.20822,0,0,.48088.01593.4908.19016.0301.19086-.07507-4.43669-1.66965-6.95834-1.99224-1.79571-4.619-4.15163-8.09645-4.55284-3.34071-.5602-7.004-1.22629-10.40988.20928-3.70367-.0177-4.49583.00036-5.24938-.41325a9.801,9.801,0,0,1-2.42993-1.45115,6.91507,6.91507,0,0,1-2.49367-4.17182c-1.88459-2.82122-1.56907-2.39062-1.60059-2.46144a5.92071,5.92071,0,0,0-.30631-.61616c-.11792-.0602-.34526.41042-.37961.59562"/>
      <path d="M270.392,56.11671a12.39465,12.39465,0,0,1,1.93878,4.4505,32.20847,32.20847,0,0,0,2.33856,2.62327,7.6261,7.6261,0,0,0,2.37646,1.71533,16.09186,16.09186,0,0,0,8.14249-1.09032l4.84958.42317c.81517.08392,1.64309.1636,2.46393.272q1.21584.20449,2.442.41041c2.56025,2.04253,4.36693,3.38037,4.94981,5.67255.676,2.09317.732,4.71077,1.13741,4.92289.38811-.13209.74364-.7054.97806-1.124-.11863-.38279-.44547-.14271-.48372-.19334,0,0,.46672.00637.47168.1767.0255.18626.02727-4.35312-1.46957-6.80075-1.88105-1.74755-4.40163-3.99016-7.7512-4.33825-3.226-.489-6.76959-1.05986-10.07949.404-3.58327.05843-4.345.09243-5.06311-.30347a8.42048,8.42048,0,0,1-2.30953-1.39769,6.53145,6.53145,0,0,1-2.32157-4.0808c-1.76136-2.76-1.46532-2.33963-1.49436-2.409a5.57819,5.57819,0,0,0-.28471-.60553c-.1119-.05737-.34.4136-.37607.59739"/>
    </g>
    <g>
      <path d="M310.43235,62.89338a10.39659,10.39659,0,0,1,.57367,1.39308,11.87427,11.87427,0,0,1,.65723,3.562c1.38281,2.58255,2.341,4.43173,4.12436,5.67538,1.97489.68167,5.16581,1.86228,8.622,1.19761,3.32725,1.08465,6.52171,2.39027,9.87942,3.8131,2.25889,2.78227,3.76033,4.74052,4.028,7.16159.36084,2.2805-.13633,5.038.25107,5.36164.41608-.02621.88634-.51347,1.2054-.8775-.04887-.42776-.42494-.27373-.45468-.33994,0,0,.47026.142.44476.31834-.03222.21672.91681-4.52238-.27656-7.33652-1.61122-2.29962-3.6842-5.36128-7.16974-6.55a38.76108,38.76108,0,0,0-5.01177-1.98056,13.50731,13.50731,0,0,0-5.46716-.4175c-3.69163-.9731-4.46325-1.188-5.157-1.76419a8.01664,8.01664,0,0,1-3.80672-6.80147,20.33118,20.33118,0,0,1-1.1406-2.79041,5.92,5.92,0,0,0-.19016-.67388c-.10906-.08605-.43662.324-.50815.49682"/>
      <path d="M305.3919,69.2051a9.77532,9.77532,0,0,1,.52656,1.35519,11.46249,11.46249,0,0,1,.55738,3.48236c1.28649,2.5011,2.17674,4.289,3.886,5.46362,1.90726.62288,4.99123,1.70364,8.38329.97487,3.22633.98444,6.32164,2.18913,9.5809,3.50219,2.1523,2.6647,3.5815,4.5415,3.79149,6.89282.30454,2.21215-.24434,4.90341.12855,5.20936.40971-.03435.88209-.51842,1.20221-.8782-.03576-.41714-.40971-.25815-.43981-.32012,0,0,.46106.12571.43061.29888-.03506.2114,1.00037-4.41793-.10943-7.13575-1.53118-2.20542-3.49935-5.14633-6.88538-6.23169a36.56539,36.56539,0,0,0-4.8595-1.823,13.04813,13.04813,0,0,0-5.33189-.28364c-3.57868-.86971-4.3255-1.06057-4.98911-1.60839a7.423,7.423,0,0,1-3.54963-6.58332,17.39241,17.39241,0,0,1-1.04712-2.71393,5.61933,5.61933,0,0,0-.17245-.65511c-.10447-.0818-.4306.32649-.50426.49824"/>
      <path d="M300.77886,75.34933a9.17151,9.17151,0,0,1,.48159,1.318,11.04971,11.04971,0,0,1,.455,3.41047c1.19265,2.4239,2.01986,4.15092,3.65339,5.26425a15.01143,15.01143,0,0,0,8.15878.77338c3.11407.90654,6.12971,2.005,9.29194,3.22,2.034,2.568,3.408,4.35276,3.55813,6.6414.2316,2.1608-.35659,4.77806-.0007,5.06843.40475-.04072.87961-.522,1.20186-.87891-.02691-.40334-.39732-.24221-.42281-.301,0,0,.449.11332.415.28188-.0471.21211,1.09244-4.32338.05949-6.94594-1.46284-2.108-3.3099-4.95405-6.606-5.93849a34.378,34.378,0,0,0-4.71679-1.676,12.41384,12.41384,0,0,0-5.197-.16926c-3.47527-.77339-4.20793-.92955-4.82515-1.46922a6.87638,6.87638,0,0,1-3.30636-6.37015A17.752,17.752,0,0,1,302.031,74.929a5.37328,5.37328,0,0,0-.154-.64023c-.09916-.07755-.42636.33074-.50143.50071"/>
    </g>
    <g>
      <path d="M338.34536,90.81028a13.276,13.276,0,0,1,.10234,5.10738c.852,2.7674,1.2741,4.85915,2.73517,6.46824a34.363,34.363,0,0,0,3.47775,1.86654,12.28762,12.28762,0,0,0,4.68,1.20009c1.47878.9129,2.99261,1.82262,4.45687,2.80139,1.43416.99719,2.87363,2.02943,4.31877,3.11691,1.68842,3.1594,2.64806,5.44025,2.34565,7.87513-.19512,2.32511-1.16291,4.839-.88528,5.2547a2.29376,2.29376,0,0,0,1.36935-.58677c.05595-.43237-.3534-.36155-.369-.432,0,0,.43485.239.36474.40829-.02656.17812,1.75994-4.1364,1.31871-7.19736-.95681-2.65762-2.49579-5.99549-5.527-7.98951-.68769-.53259-1.38494-1.08429-2.1261-1.602-.7617-.50532-1.54748-.989-2.3591-1.41822a13.5109,13.5109,0,0,0-5.19627-1.64734c-3.3269-1.80527-4.17571-2.0875-4.68067-2.83326a9.44238,9.44238,0,0,1-1.66009-2.46109,7.705,7.705,0,0,1-.63917-2.24473,7.29011,7.29011,0,0,1,.10163-2.77483c-.59987-3.44341-.48337-2.903-.48478-2.982a6.01706,6.01706,0,0,0-.02975-.705c-.08569-.10906-.49576.21849-.60447.37147"/>
      <path d="M332.03293,95.85a12.67481,12.67481,0,0,1-.01487,4.96007c.77621,2.66647,1.14485,4.68351,2.54926,6.20867a32.02557,32.02557,0,0,0,3.38391,1.73268,11.95531,11.95531,0,0,0,4.58967,1.06234c1.44018.85235,2.91612,1.70187,4.3432,2.619,1.39663.93521,2.79962,1.90513,4.209,2.92745,1.60944,3.02059,2.51668,5.20512,2.17319,7.55785-.23548,2.24544-1.239,4.68315-.97169,5.078a2.3916,2.3916,0,0,0,1.36653-.58854c.06622-.41856-.34243-.34242-.35872-.409,0,0,.42919.221.35447.38634-.028.1721,1.81873-4.01529,1.43876-6.96294-.89945-2.54678-2.363-5.74266-5.31878-7.61273-.66963-.50143-1.34811-1.02091-2.07015-1.50711a26.13568,26.13568,0,0,0-2.30139-1.32438,13.03324,13.03324,0,0,0-5.09321-1.48657c-3.23908-1.6785-4.06948-1.93205-4.55107-2.64311a8.58723,8.58723,0,0,1-1.579-2.3499,7.12774,7.12774,0,0,1-.57827-2.16363,7.03594,7.03594,0,0,1,.16254-2.69693c-.51666-3.32973-.41184-2.80989-.41042-2.88709a5.78285,5.78285,0,0,0-.01665-.68237c-.0818-.10411-.49044.222-.60093.37394"/>
      <path d="M326.172,100.8232a12.1161,12.1161,0,0,1-.12606,4.81382c.68415,2.584,1.0156,4.5192,2.35875,5.96788,1.75463.90653,4.408,2.5528,7.79688,2.54891,1.3991.79817,2.85415,1.58253,4.22634,2.454,1.36157.87784,2.72986,1.789,4.10453,2.75111,1.53827,2.88638,2.375,4.988,2.00039,7.25826-.27939,2.17072-1.30526,4.52664-1.06765,4.91014a2.4782,2.4782,0,0,0,1.36652-.58924c.06906-.40121-.32649-.32756-.33711-.39094,0,0,.40652.21317.33393.37075-.01913.16006,1.88707-3.90127,1.56235-6.73807-.84669-2.43949-2.21251-5.51532-5.10951-7.26252-.6498-.4738-1.31872-.95823-2.011-1.42176a23.03064,23.03064,0,0,0-2.243-1.2394,12.64569,12.64569,0,0,0-4.9969-1.33784c-1.59209-.772-2.56555-1.24365-3.22562-1.56377a3.114,3.114,0,0,1-1.19584-.90724,7.80648,7.80648,0,0,1-1.50321-2.24295,7.161,7.161,0,0,1-.29108-4.71184c-.43273-3.22244-.34137-2.71995-.33818-2.79467a5.47386,5.47386,0,0,0-.00177-.664c-.07755-.0988-.48726.22734-.59845.37642"/>
    </g>
    <g>
      <path d="M359.41618,124.20887a13.55918,13.55918,0,0,1-1.09456,5.02983c.16679,2.9101.28329,4.96856,1.2479,6.90557,1.47311,1.47488,3.95863,3.87683,7.29155,4.80355,1.21921,1.227,2.43949,2.47065,3.65764,3.74971,1.22027,1.2787,2.45294,2.58821,3.55955,3.9898.80313,3.49722,1.43168,5.88112.539,8.19985-.74293,2.23056-2.30209,4.47635-2.11052,4.94059a2.30024,2.30024,0,0,0,1.46816-.26558c.1381-.40581-.26877-.43025-.26736-.50284,0,0,.3658.33145.26736.47911-.10376.17671,2.70861-3.65409,2.97668-6.73913-.49647-2.76067-1.067-6.41477-3.62011-9.02282-2.30775-2.65833-4.788-5.62439-8.406-6.71293-2.94091-2.46534-3.58292-2.97739-3.92889-3.80991a11.29556,11.29556,0,0,1-1.05844-2.77377,7.3399,7.3399,0,0,1,.56516-5.00257c.227-3.5128.21283-2.95649.23018-3.034a6.17,6.17,0,0,0,.136-.69831c-.05737-.12642-.52976.10163-.67034.22734"/>
      <path d="M352.14127,127.71813a12.95662,12.95662,0,0,1-1.17742,4.8588c.11473,2.7936.19617,4.76637,1.1236,6.60846a16.44641,16.44641,0,0,0,7.17151,4.49441l3.58717,3.545c1.19761,1.20965,2.40833,2.4494,3.494,3.77945.75745,3.34283,1.3559,5.62049.44158,7.85-.76453,2.14345-2.3414,4.30673-2.15514,4.74831a2.39646,2.39646,0,0,0,1.46532-.26771c.14555-.39023-.26169-.40971-.262-.4784,0,0,.36438.313.26275.45539-.10375.17032,2.73836-3.522,3.04042-6.48276-.46459-2.63957-.99293-6.13715-3.50041-8.60674-2.26527-2.51951-4.68988-5.33188-8.27174-6.32057-2.88319-2.32121-3.51316-2.80033-3.84391-3.59355a10.25647,10.25647,0,0,1-1.00355-2.64593,6.925,6.925,0,0,1,.64909-4.81914c.28364-3.38213.262-2.84849.28152-2.92391a5.87707,5.87707,0,0,0,.14412-.67282c-.05453-.12075-.52515.10624-.6675.23018"/>
      <path d="M345.32,131.26316a12.40669,12.40669,0,0,1-1.25675,4.6913c.07366,2.67781.09809,4.579.99046,6.32837a15.93655,15.93655,0,0,0,7.05217,4.21289l3.52095,3.35274a48.633,48.633,0,0,1,3.42,3.58647c.71,3.19694,1.29925,5.36694.33924,7.51748-.78542,2.05917-2.38212,4.141-2.1994,4.55992a2.48327,2.48327,0,0,0,1.465-.26842c.14767-.37359-.25708-.38953-.25531-.45327,0,0,.35942.2964.25637.43273-.0995.16218,2.755-3.38887,3.11125-6.23523-.4299-2.52519-.9299-5.87085-3.37435-8.2165-2.21923-2.39133-4.6095-5.0532-8.13328-5.95973-2.83575-2.186-3.4519-2.63355-3.76636-3.39064a8.7954,8.7954,0,0,1-.94194-2.52837,6.54367,6.54367,0,0,1,.72735-4.63995c.34207-3.2575.312-2.744.33251-2.81662a5.62287,5.62287,0,0,0,.15475-.65122c-.0517-.11473-.52373.1119-.66644.233"/>
    </g>
    <g>
      <path d="M372.41038,161.50872a12.67021,12.67021,0,0,1-2.10378,4.63712c-.54746,2.88425-.96461,4.92926-.36049,7.01676,1.22558,1.74861,2.86442,4.68032,5.99089,6.31774a94.49979,94.49979,0,0,1,5.32127,9.14782c.1682,3.57655-.02231,6.04613-1.32226,8.10424-1.18168,2.00075-3.14878,3.8609-3.07123,4.33081a2.38928,2.38928,0,0,0,1.49011.06091c.227-.347-.16573-.45893-.1505-.53117,0,0,.28613.39377.15617.50886-.11049.18237,3.37576-2.9487,4.30283-5.88466a24.8225,24.8225,0,0,0,.07968-4.67926,12.15271,12.15271,0,0,0-1.58077-4.91049c-1.47913-3.12045-3.488-6.53623-6.6846-8.41728-2.21356-3.07477-2.76917-3.71076-2.94906-4.59463a8.10706,8.10706,0,0,1,1.29677-7.69666c.926-3.35522.80135-2.8191.83358-2.89063a5.92956,5.92956,0,0,0,.27408-.64625c-.03116-.13528-.54285-.01913-.70645.07153"/>
      <path d="M364.53419,163.29841a12.08644,12.08644,0,0,1-2.14593,4.45156c-.57225,2.75961-1.00462,4.71361-.41538,6.70019,1.2093,1.659,2.82725,4.44554,5.94345,5.99231a89.35949,89.35949,0,0,1,5.282,8.71828c.15829,3.4179-.03754,5.78125-1.33891,7.74871-1.18344,1.92036-3.14948,3.67535-3.07193,4.15375a2.38348,2.38348,0,0,0,1.488.06091c.23053-.3488-.1636-.45787-.1512-.5248,0,0,.2886.38563.15687.50249-.10907.14165,3.37612-2.82618,4.3085-5.64386a22.81946,22.81946,0,0,0,.08747-4.47529,11.24408,11.24408,0,0,0-1.56519-4.69059c-1.46957-2.9781-3.45827-6.2324-6.64211-8.009-2.18948-2.9225-2.74084-3.52414-2.91506-4.36622a7.50364,7.50364,0,0,1,1.36192-7.36273c.95221-3.215.82544-2.7026.85944-2.77129a5.65471,5.65471,0,0,0,.2762-.62006c-.02974-.12925-.53931-.01345-.70433.07508"/>
      <path d="M357.09532,165.22408a9.24549,9.24549,0,0,1-.45149,1.33147,11.48508,11.48508,0,0,1-1.743,2.94091c-.59668,2.63956-1.04357,4.50645-.47062,6.39565,1.17247,1.58005,2.79042,4.22776,5.89068,5.69379a85.9257,85.9257,0,0,1,5.23133,8.31671c.01451.818.02762,1.57085.04,2.27129a17.97368,17.97368,0,0,1-.1891,1.95329,7.235,7.235,0,0,1-1.21531,3.1849c-1.18806,1.84812-3.14666,3.48129-3.07973,3.99227a2.35846,2.35846,0,0,0,1.488.06091c.228-.34809-.16289-.45751-.1466-.52267,0,0,.28329.386.15227.50213-.10659.09738,3.38426-2.72207,4.31665-5.41971a22.49488,22.49488,0,0,0,.10906-4.28229,10.39558,10.39558,0,0,0-1.551-4.48237c-1.46142-2.8446-3.40763-5.95053-6.58793-7.63044-2.17886-2.78086-2.69834-3.352-2.87292-4.15411a6.92,6.92,0,0,1,1.432-7.04368c.98089-3.08008.85022-2.58963.88457-2.65514a5.35777,5.35777,0,0,0,.28152-.59668c-.02833-.12252-.539-.00744-.70362.07861"/>
    </g>
  </g>
</svg>
