<svg id="Layer_2" data-name="Layer 2" xmlns="http://www.w3.org/2000/svg" viewBox="0 0 400 400">
  <g>
    <path d="M299.402,99.61a140.584,140.584,0,1,0,41.17631,99.40809A139.66167,139.66167,0,0,0,299.402,99.61ZM199.994,328.25764A129.23952,129.23952,0,1,1,329.23347,199.01812,129.38611,129.38611,0,0,1,199.994,328.25764Z" fill="#231f20"/>
    <path d="M140.50285,210.92312a35.00266,35.00266,0,0,0,4.85618-1.383l7.84589,12.32969,3.72254-2.36845-7.49429-11.77712a33.482,33.482,0,0,0,6.81816-4.775l9.11647,7.88962,2.88669-3.336-8.90727-7.70852a41.489,41.489,0,0,0,2.86922-3.67946l7.09364,4.49438,2.36105-3.72746-10.80325-6.84436-1.1756,1.88651c-4.98062,7.9941-11.74127,12.93349-20.093,14.68089-12.85717,2.69158-26.5465-2.971-31.1609-6.1353l-1.72278-1.18114L98.628,209.80168l3.49727,2.68973,5.606-7.2869a49.14183,49.14183,0,0,0,6.13737,2.85323l-4.57831,11.832,4.114,1.59168,4.63733-11.98446a50.52864,50.52864,0,0,0,14.08994,2.23026l-.29983,14.70528,4.41067.08987.30572-14.99311A37.70218,37.70218,0,0,0,140.50285,210.92312Z" fill="#231f20"/>
    <path d="M208.90085,185.2414a41.51319,41.51319,0,0,0,4.5175,1.16606l-2.35894,11.54093,4.322.88385,2.41437-11.8122a33.49532,33.49532,0,0,0,8.31567-.37276l1.24142,13.90467,4.39467-.39269-1.29967-14.557a34.98152,34.98152,0,0,0,4.6923-1.86512,37.679,37.679,0,0,0,3.504-1.9309l9.38514,11.697,3.44064-2.76113-9.20449-11.47184a50.523,50.523,0,0,0,9.80718-10.359l10.98286,6.67109,2.29089-3.77055-10.84357-6.58646a49.1207,49.1207,0,0,0,3.124-6.00358l8.88658,2.35737,1.13129-4.26419L254.8245,153.9137l-.645,1.98622c-1.72771,5.321-9.12355,18.15539-20.95591,23.86415-7.68636,3.70715-16.05592,3.91458-24.87788.61611l-2.08162-.7786-4.38851,12.0127,4.14354,1.51413Z" fill="#231f20"/>
    <rect x="181.9629" y="4.41749" width="7.56326" height="34.34118" fill="#231f20"/>
    <rect x="298.20923" y="59.69929" width="34.34178" height="7.56245" transform="translate(47.48519 241.60043) rotate(-45)" fill="#231f20"/>
    <rect x="360.25341" y="180.98768" width="34.34118" height="7.56326" fill="#231f20"/>
    <rect x="331.7496" y="297.23361" width="7.56332" height="34.34134" transform="translate(-124.04276 329.33749) rotate(-44.99927)" fill="#231f20"/>
    <rect x="210.46114" y="359.27758" width="7.56326" height="34.34118" fill="#231f20"/>
    <rect x="67.43682" y="330.77407" width="34.34134" height="7.56332" transform="translate(-211.80601 157.84975) rotate(-45.00659)" fill="#231f20"/>
    <rect x="5.39332" y="209.48531" width="34.34118" height="7.56326" fill="#231f20"/>
    <rect x="60.67469" y="66.46099" width="7.56332" height="34.34134" transform="translate(-40.25786 70.07399) rotate(-45.00073)" fill="#231f20"/>
    <path d="M190.98305,241.759a25.09265,25.09265,0,0,0,2.63249-.14157,2.20575,2.20575,0,0,0-.46163-4.38728c-4.62055.48563-8.465-.54472-10.82048-2.90454a7.86046,7.86046,0,0,1-2.22257-6.52368c.43947-4.11646,5.09388-9.85846,11.6748-9.85846a2.206,2.206,0,0,0,0-4.4119c-8.5973,0-15.36472,7.27336-16.06208,13.80135a12.19785,12.19785,0,0,0,3.48742,10.11019C182.02814,240.26459,186.1446,241.759,190.98305,241.759Z" fill="#231f20"/>
    <path d="M273.50307,224.23391a3.15319,3.15319,0,0,0-4.17186,1.56829l-.14341.31637c-3.00141,6.62016-6.728,14.81353-14.05316,22.21938-3.77494-5.278-9.16387-8.97152-17.6573-10.10851a18.556,18.556,0,0,0-2.46427-.1668c-12.01378.00016-18.95673,12.14443-27.33741,16.47416-9.19068,4.74811-28.3239,2.97117-34.1853,12.00039a25.654,25.654,0,0,0-4.52019,15.2153c-10.27146-.78753-18.39417-4.46037-24.9602-7.43908l-.31268-.14218a3.1515,3.1515,0,0,0-2.60356,5.74015l.31268.14156c7.27766,3.30154,16.33474,7.41062,28.30928,8.07413.05909.00369.11818.00492.17726.00492.031,0,.0599-.00792.09067-.00877q.411,1.48447.9713,2.97563c4.41871,11.7522,17.70031,18.4219,33.56458,18.4219a64.40544,64.40544,0,0,0,22.52674-4.24048c24.56143-9.2348,39.27045-30.55663,32.85352-47.62351-.48682-1.29485-1.00634-2.54778-1.56807-3.75347a3.12531,3.12531,0,0,0,.621-.46085c8.5696-8.38618,12.67559-17.44326,15.97529-24.72092l.14341-.31576A3.15174,3.15174,0,0,0,273.50307,224.23391Zm-50.66873,71.92a16.58238,16.58238,0,1,1-5.83886-32.10984h.00119A16.666,16.666,0,0,1,232.52,274.79658a16.58225,16.58225,0,0,1-9.68569,21.35737Zm28.10517-14.61165c-5.46191,7.91748-14.21677,14.50609-24.71792,18.64294a21.74381,21.74381,0,1,0-4.05265,1.44112,58.8245,58.8245,0,0,1-17.64944,2.85222c-14.27767,0-25.33043-5.80677-28.845-15.15421-2.78136-7.39738-2.15067-13.57854,2.045-20.04174,2.39564-3.69038,10.18017-5.02171,17.04834-6.19639,5.64605-.96557,10.979-1.87774,15.22215-4.06984,3.53335-1.82542,6.65728-4.63717,9.6783-7.35645,4.88788-4.39959,9.50462-8.55513,15.34475-8.55513a13.58083,13.58083,0,0,1,1.79526.12217c9.30478,1.24562,14.45578,5.78893,18.37185,16.20426C257.68538,266.09434,256.17933,273.94688,250.93951,281.5423Z" fill="#231f20"/>
  </g>
</svg>
