<svg id="Layer1" xmlns="http://www.w3.org/2000/svg" viewBox="0 0 400 400">
  <g>
    <path d="M186.45634,196.49715a160.23976,160.23976,0,0,0,30.02127-20.858v-6.93392l.693-24.88428v-4.36569c-7.67848,11.35655-25.52868,27.40383-41.88625,36.15023a170.15543,170.15543,0,0,0-29.13488,19.78432v32.896A151.19271,151.19271,0,0,1,186.45634,196.49715Z"/>
    <path d="M212.1537,124.19812c-.32022-.11883-.63308-.24818-.95619-.36228-9.44443-3.33472-20.19077-4.62192-30.28247-4.86747a135.64442,135.64442,0,0,1-12.96529,7.933,168.15058,168.15058,0,0,0-21.80028,13.94882v31.14349A149.0234,149.0234,0,0,1,179.12174,147.793,159.1257,159.1257,0,0,0,212.1537,124.19812Z"/>
    <path d="M189.68747,245.39374a160.88183,160.88183,0,0,0,26.79014-18.088V193.64934c-8.10662,10.79183-22.67143,22.67525-37.96213,30.85272a171.08594,171.08594,0,0,0-32.366,22.55956v33.82989A151.54786,151.54786,0,0,1,189.68747,245.39374Z"/>
    <path d="M189.68747,297.92581a160.842,160.842,0,0,0,26.79014-18.08751V246.18246c-8.10623,10.79078-22.671,22.67472-37.96266,30.85167a171.1103,171.1103,0,0,0-32.36548,22.56009v28.0822c.96828.102,1.93789.19245,2.9067.28552.59614.05731,1.1936.09675,1.78988.1509A150.8502,150.8502,0,0,1,189.68747,297.92581Z"/>
    <path d="M181.37856,329.52045a344.8962,344.8962,0,0,0,35.16454-1.844c.12935-.0142-.12975.0142,0,0V303.83965a138.03866,138.03866,0,0,1-21.41369,14.24485,167.0934,167.0934,0,0,0-18.28863,11.37864c1.365.0184,2.73.05258,4.09505.05416C181.08279,329.5173,181.23107,329.52045,181.37856,329.52045Z"/>
  </g>
  <g>
    <path d="M142.41808,327.25819c.33835.03819.67669.07822,1.0155.11733V117.626q-2.73714.30658-5.46977.65779V326.71359c.28173.0369.563.07776.8452.11328l1.80229-194.68872Z"/>
    <path d="M223.81846,326.82687c.28169-.03552.56347-.07638.84515-.11328V118.28375q-2.7331-.35379-5.47018-.65779V327.37552c.33874-.03911.67757-.07914,1.01594-.11733l1.8068-195.12Z"/>
    <path d="M229.19294,118.88853a4.35355,4.35355,0,0,0,5.15564-4.407v-17.937a6.24475,6.24475,0,0,0-4.46546-5.80819V83.62153a7.794,7.794,0,0,0-3.76369-6.48208,50.56758,50.56758,0,1,0-89.61237,0,7.79748,7.79748,0,0,0-3.76274,6.48208v7.11474a6.2472,6.2472,0,0,0-4.46591,5.80819v17.937a4.35375,4.35375,0,0,0,5.15565,4.407c.3024-.0427.60615-.07905.909-.12129V326.22789c-.3024-.04224-.60526-.079-.90811-.12175a4.12787,4.12787,0,0,0-4.89151,4.17973v17.93658a5.93208,5.93208,0,0,0,4.17842,5.49623v7.91912a7.64607,7.64607,0,0,0,6.58726,7.40683c1.19973.13574,2.39945.257,3.60008.382a40.59565,40.59565,0,0,0,76.80858,0c1.20064-.125,2.40128-.24625,3.601-.382a7.64687,7.64687,0,0,0,6.5868-7.40683v-7.91912a5.93241,5.93241,0,0,0,4.17881-5.49623V330.28587a4.12841,4.12841,0,0,0-4.8919-4.17973c-.30239.0427-.6057.07951-.90855.12175V118.76724C228.5877,118.80948,228.89055,118.84583,229.19294,118.88853Zm-94.89885-65.186a47.01963,47.01963,0,1,1,88.37536,22.35538c-1.07521-.13214-2.15189-.25573-3.228-.37748a44.55411,44.55411,0,0,0,2.60033-5.10669,43.196,43.196,0,0,0-.00267-33.741,43.15293,43.15293,0,0,0-9.71194-14.14336,42.59288,42.59288,0,0,0-14.37875-9.14617A41.27061,41.27061,0,0,0,181.313,10.888a44.95974,44.95974,0,0,1,16.133,3.86786,43.381,43.381,0,0,1,13.40366,9.41093c.59761.61785,1.16825,1.2599,1.72638,1.91281.37877,7.08962-.679,24.13431-16.71175,40.167a64.89171,64.89171,0,0,1-8.7351,7.3287q-2.90689-.04914-5.81619-.05346A339.05463,339.05463,0,0,0,139.958,76.05789,46.73744,46.73744,0,0,1,134.29409,53.70251Zm1.15434,29.53887a4.5451,4.5451,0,0,1,3.87462-4.39405,339.005,339.005,0,0,1,83.98137,0,4.11418,4.11418,0,0,1,1.04244.29208,4.64285,4.64285,0,0,1,2.52754,2.54686,4.18811,4.18811,0,0,1,.30506,1.55511v7.0748q-.9018-.12326-1.804-.24082V83.00009a2.43142,2.43142,0,0,0-2.071-2.34284c-.17706-.02107-.35411-.03993-.53163-.06156v9.14038q-2.85706-.35172-5.72094-.65779V79.94241c-.71439-.07509-1.42932-.14558-2.14508-.21708v9.14359c-.8942-.08944-1.78748-.18064-2.68167-.262V79.46379q-15.42387-1.41266-30.91206-1.4167c-1.17055,0-2.34192.01573-3.512.02742v9.144c-.89733.00985-1.7942.01123-2.69106.02789V78.10994c-.70187.01307-1.40374.03239-2.1056.04951V87.302q-3.45021.0849-6.9.23954V78.39218q-4.67612.21092-9.34753.55444v9.1355q-10.6782.77575-21.30837,2.23406ZM181.477,383.81255a43.98281,43.98281,0,0,1-11.41807,7.61259,36.9087,36.9087,0,0,0,45.09268-21.55643c.67178-.06019,1.34355-.12037,2.01524-.18506a38.279,38.279,0,0,1-71.70635,0q17.8854,1.72405,35.85251,1.729,5.20809,0,10.41426-.1465c-.88748,1.51969-1.81977,2.93235-2.77645,4.25427m-2.95213,3.71694c-.67712.77558-1.35791,1.51518-2.0364,2.20628M227.1974,361.982a4.49292,4.49292,0,0,1-2.78584,4.04584,4.097,4.097,0,0,1-1.09279.30193q-2.61647.29526-5.237.55454-5.051.5001-10.11233.85821-3.0586.21975-6.12172.38733-4.91352.26958-9.83239.41337-2.72166.07689-5.44285.1177-2.62863.03505-5.25945.036-5.25794,0-10.51669-.14825-5.25654-.14838-10.51-.44217-2.62655-.151-5.25144-.33433-5.2484-.368-10.48971-.88784-2.61918-.25883-5.23611-.55454a4.073,4.073,0,0,1-.78229-.168,4.5089,4.5089,0,0,1-3.09773-4.17973q.00068-3.91732,0-7.83372,10.63309,1.45986,21.32457,2.24759V366.071q4.67362.30726,9.35029.50236v-9.63556q3.44883.15639,6.90042.24175v9.60583c.70186.01445,1.40373.03239,2.1056.045v-9.59424c.89686.0162,1.79373.01795,2.69106.027v9.59875c1.17008.01169,2.34145.02512,3.512.02512q15.47245,0,30.917-1.28511v-9.73347c.895-.08273,1.78923-.17439,2.68388-.2642v9.76135c.71577-.06561,1.43162-.12856,2.14738-.19859v-9.77221q2.86384-.30726,5.72592-.6623v9.84317c.17742-.01979.354-.036.53153-.0566a2.393,2.393,0,0,0,2.07321-2.31771V354.39q.90317-.11857,1.80542-.24174Zm1.99508-33.4256a2.28133,2.28133,0,0,1,1.03978.08936,2.018,2.018,0,0,1,.62677.333c.02209.01657.04859.02825.06921.0462a2.016,2.016,0,0,1,.52665.70684,2.26509,2.26509,0,0,1,.19279.93017v17.93787a2.94627,2.94627,0,0,1-2.4552,2.82818q-5.95488.85458-11.93036,1.49539-5.97365.639-11.96349,1.06674-8.98379.64159-17.98563.79978-2.99854.054-6,.05393-2.99925,0-5.99951-.05393-8.822-.155-17.63327-.77733-6.47651-.45566-12.93732-1.16116-5.66163-.61868-11.308-1.42342a2.94622,2.94622,0,0,1-2.45517-2.82818V330.662a2.31766,2.31766,0,0,1,.06248-.528,2.023,2.023,0,0,1,1.80631-1.58346c.031-.00359.05976-.01343.09166-.01573a2.43008,2.43008,0,0,1,.49472.02162q5.64479.80944,11.308,1.42214,6.461.70358,12.93732,1.16061,8.8085.61868,17.63327.77871,2.99994.054,5.99951.05346,3.00132,0,6-.05346A337.37789,337.37789,0,0,0,229.19248,328.55637Zm-90.38347-1.7295c-.28218-.03552-.56347-.07638-.8452-.11328V118.28375q2.73241-.35379,5.46977-.65779V327.37552c-.33881-.03911-.67715-.07914-1.0155-.11733m3.73128-19.71412V121.58281c.17075-.02972.36846-.062.55988-.09525a188.35764,188.35764,0,0,1,33.39782-2.5451c10.32252.19546,21.39512,1.47026,31.0904,4.89328,1.81306.6403,3.57808,1.35248,5.28016,2.15v42.71929h0v52.75119h0v26.37509h0v26.37509h0v53.47008c-.12985.0139-.26016.02476-.38954.03865a337.25421,337.25421,0,0,1-34.775,1.80542c-.14742,0-.29567-.00313-.44264-.00313q-15.92659-.02152-31.81428-1.55557c-.96877-.093-1.93843-.18331-2.90676-.28537Zm74.06,19.71412c-.33837.03819-.6772.07822-1.01594.11733V117.626q2.73711.30658,5.47018.65779V326.71359c-.28168.0369-.56346.07776-.84515.11328M181.313,112.77584a339.06233,339.06233,0,0,0-47.879,3.3978,2.08,2.08,0,0,1-2.456-2.10919V96.12787a2.64466,2.64466,0,0,1,.11319-.71935,2.953,2.953,0,0,1,2.34284-2.10781,338.98551,338.98551,0,0,1,95.75888,0,2.944,2.944,0,0,1,2.45557,2.82716v17.93658a2.16773,2.16773,0,0,1-.41917,1.31705,2.11308,2.11308,0,0,1-2.0364.79214A339.06113,339.06113,0,0,0,181.313,112.77584Z"/>
    <path d="M218.772,113.0508q1.14915.12866,2.29784.266V94.06451q-1.14915-.13542-2.29784-.266Z"/>
    <path d="M229.8476,113.79942v-17.937a.78118.78118,0,0,0-.65466-.75129c-.66414-.09487-1.33048-.17622-1.996-.267v19.25271c.66552.08991,1.33186.17163,1.996.26687A.5563.5563,0,0,0,229.8476,113.79942Z"/>
    <path d="M179.00305,91.73427V110.9856c.77015-.00441,1.5403-.02061,2.31-.02061a339.05133,339.05133,0,0,1,34.58538,1.77845q.00138-9.62483,0-19.25178A338.91955,338.91955,0,0,0,181.313,91.7132C180.54335,91.7132,179.7732,91.728,179.00305,91.73427Z"/>
    <path d="M156.44006,111.88523q5.00712-.36732,10.02242-.581V92.0524q-5.01458.21975-10.02242.58058Z"/>
    <path d="M173.85992,111.05664c.75221-.01619,1.50524-.03322,2.25744-.04536V91.75949c-.7522.01123-1.50523.02871-2.25744.04537Z"/>
    <path d="M230.022,348.84159v-17.938a.70284.70284,0,0,0-.8295-.7131c-.66506.09488-1.3314.17706-1.99683.26789v19.60451c.66543-.09082,1.33177-.17254,1.99683-.26779A.99693.99693,0,0,0,230.022,348.84159Z"/>
    <path d="M221.06943,331.242q-1.14929.13624-2.29839.267V351.1144c.767-.0854,1.5322-.17623,2.29839-.267Z"/>
    <path d="M179.00305,333.58392v19.60636c.77015.00451,1.53984.0207,2.31.0207a337.51121,337.51121,0,0,0,34.58538-1.78655V331.81807a336.98947,336.98947,0,0,1-34.58538,1.78656C180.54289,333.60463,179.7732,333.59027,179.00305,333.58392Z"/>
    <path d="M156.44006,352.28531q5.00712.37077,10.02242.58417V333.264q-5.01458-.21975-10.02242-.5837Z"/>
    <path d="M173.85992,353.11841c.75221.01619,1.50524.03414,2.25744.04582V333.5588q-1.1283-.01754-2.25744-.04583Z"/>
  </g>
</svg>
