<svg xmlns="http://www.w3.org/2000/svg" viewBox="0 0 263.8938 125.95834">
  <title>icon</title>
  <g id="logo">
    <g>
      <path d="M69.40072,111.83568s106.41429,45.23893,140.85757-26.218l-26.7321-9.7675Z" fill="#f9cd53"/>
      <path d="M7.88264,76.707S53.86558,3.98078,104.52944.28061c61.004-4.45535,107.27108,45.23892,90.82056,71.28558Z" fill="#bd69d1"/>
      <path d="M23.13364,56.82926s20.56315-71.45694,83.28075-36.49958" fill="#f9cd53"/>
      <path d="M61.68945,38.06537a30.92317,30.92317,0,0,1,5.24219-5.65479,45.466,45.466,0,0,1,6.3335-4.56115,55.69015,55.69015,0,0,1,14.5271-6.11567,66.85605,66.85605,0,0,1,15.72583-2.23144c1.3247-.01056,2.65283-.02948,3.97461.02814,1.32592.02758,2.6477.09124,3.96484.20965,1.32251.0874,2.626.27783,3.93994.42365,1.31152.15533,2.68823.35638,3.98486.61358a119.52611,119.52611,0,0,1,14.8169,4.05323c4.71728,1.51428,9.26123,3.17157,13.71631,4.4508,4.436,1.24109,8.81982,2.28937,12.70459,1.685a10.37879,10.37879,0,0,0,5.43335-2.59363,21.37892,21.37892,0,0,0,4.27807-5.81537,16.27048,16.27048,0,0,1-1.34717,7.87464,13.71938,13.71938,0,0,1-6.16845,6.37738,22.32339,22.32339,0,0,1-8.50733,2.29431c-1.41406.11078-2.80761.1383-4.18017.11267-1.37036-.04956-2.71729-.1532-4.0459-.28937a106.736,106.736,0,0,1-15.12134-3.00921c-4.82544-1.21668-9.47656-2.58564-13.97339-3.603-1.136-.24091-2.20044-.50293-3.34839-.69031-1.14721-.18408-2.293-.417-3.44506-.54883-2.29859-.35144-4.60572-.61657-6.91968-.77508q-3.46875-.28913-6.95557-.27118c-2.32837-.03888-4.64868.11029-6.98071.2774a78.18341,78.18341,0,0,0-13.9502,2.42346A64.48509,64.48509,0,0,0,61.68945,38.06537Z" fill="#001230"/>
      <path d="M99.73145,35.9234a23.87858,23.87858,0,0,1,6.56274-3.45892A41.96352,41.96352,0,0,1,113.583,30.6167a57.95169,57.95169,0,0,1,15.06616-.3078,91.4483,91.4483,0,0,1,28.66895,8.30658c1.18554.55078,2.1206.94488,3.11572,1.38257.98681.4284,1.97925.81036,2.96411,1.19513a48.1511,48.1511,0,0,0,5.91186,1.80481,27.51059,27.51059,0,0,0,11.45069.454,25.71812,25.71812,0,0,0,10.8103-5.155,75.35338,75.35338,0,0,0,9.94824-9.91346,33.0097,33.0097,0,0,1-5.03857,14.29731,27.00519,27.00519,0,0,1-12.69238,10.49731,31.14019,31.14019,0,0,1-16.8252,1.33679,43.33365,43.33365,0,0,1-7.7854-2.23553c-1.23462-.48236-2.44434-1.01-3.62476-1.57257-1.16894-.55829-2.36816-1.225-3.32934-1.7074a142.38306,142.38306,0,0,0-25.145-10.52063,80.884,80.884,0,0,0-13.355-2.84015,56.57642,56.57642,0,0,0-6.91992-.40765A32.79458,32.79458,0,0,0,99.73145,35.9234Z" fill="#001230"/>
      <path d="M120.63721,38.32245a138.31368,138.31368,0,0,1,16.1333,1.81341c5.32763.88709,10.61694,1.96759,15.863,3.20813a299.82189,299.82189,0,0,1,30.96558,9.194,135.95238,135.95238,0,0,0,14.42847,4.69147,34.32014,34.32014,0,0,0,13.23169,1.04419A22.01841,22.01841,0,0,0,217.34717,56.36a30.99569,30.99569,0,0,0,5.88354-3.79908c3.85669-3.097,7.3877-7.09906,11.18921-11.154a41.66318,41.66318,0,0,1-6.02807,15.72229,30.236,30.236,0,0,1-6.08521,6.75635,26.61312,26.61312,0,0,1-8.47143,4.5484,31.31318,31.31318,0,0,1-9.44654,1.39172,43.65146,43.65146,0,0,1-9.022-1.05108,59.8873,59.8873,0,0,1-8.31665-2.50946c-2.71973-1.06568-5.07593-2.07477-7.53809-3.06964l-29.3601-12.21314C140.35107,46.84045,130.53345,42.7392,120.63721,38.32245Z" fill="#001230"/>
      <path d="M135.6311,39.00787c5.30738,3.25415,10.75733,5.89984,16.19947,8.56208,5.44555,2.63794,10.94165,5.1231,16.41748,7.61676,2.75634,1.22125,5.479,2.48321,8.249,3.67169,1.37476.61175,2.73535,1.24359,4.11865,1.83783,1.38916.584,2.76734,1.18731,4.1416,1.79681,2.73829,1.23529,5.5232,2.3938,8.27247,3.61279l2.062.91535c.64746.27856,1.2312.51837,1.86255.75806q1.86.72225,3.7937,1.31207a77.574,77.574,0,0,0,32.80664,2.31622,61.42533,61.42533,0,0,0,16.18774-4.532,39.88918,39.88918,0,0,0,14.15137-10.389c-1.27246,6.22077-5.28394,11.95648-10.31787,16.261a49.8281,49.8281,0,0,1-17.4563,9.45758,65.4917,65.4917,0,0,1-39.52954-.0907c-1.61817-.53839-3.22315-1.14068-4.80371-1.82281-.78076-.33863-1.59082-.71985-2.32959-1.07856l-2.07569-1.04162c-2.759-1.40857-5.52661-2.78565-8.23071-4.3136q-8.15881-4.45871-15.93677-9.65643a153.46086,153.46086,0,0,1-14.8977-11.34265c-1.17017-1.04706-2.3562-2.05542-3.47461-3.16694l-1.6936-1.62866-1.63428-1.70111A47.2957,47.2957,0,0,1,135.6311,39.00787Z" fill="#001230"/>
      <path d="M10.28167,84.58951s17.99276-7.1971,26.7321,2.5704,49.86563,38.04182,82.25259,29.30248,65.45935-32.2156,65.45935-32.2156l5.48351-7.36846S156.7941,51.1744,145.99845,41.4069,55.00652-2.28979,10.28167,84.58951Z" fill="#fff"/>
      <path d="M74.516,71.56507,166.5616,60.42781S131.09017,24.95638,88.93571,31.12533C58.40588,35.59317,37.04779,58.12372,27.58776,70.212l-10.4517,1.01143,6.30934,4.63541c-.88474,1.29992-1.33992,2.04761-1.33992,2.04761l3.54339-.42873L50.72253,95.89924Z" fill="#84f6ff"/>
      <ellipse cx="100.50249" cy="63.38377" rx="38.04182" ry="41.51185" fill="#ff9ce1"/>
      <path d="M132.19681,40.4285q-.92943-1.52517-1.979-2.9497l-32.2-9.09522L64.84754,48.8934a44.794,44.794,0,0,0-2.38688,14.49037,45.576,45.576,0,0,0,.37017,5.73653Z" fill="#bd69d1"/>
      <path d="M0,90.75848A91.79723,91.79723,0,0,1,6.70947,76.351a122.77984,122.77984,0,0,1,8.77466-13.40832A116.216,116.216,0,0,1,38.4082,39.95728a97.07746,97.07746,0,0,1,14.04419-8.7898c2.45362-1.31335,5.0083-2.44086,7.57935-3.53888,2.61889-.97674,5.221-2.03015,7.92383-2.79809,2.66357-.90278,5.41943-1.47779,8.15893-2.12281,1.37818-.28039,2.77027-.49157,4.15674-.73761l2.08325-.3515,2.09815-.23187c1.39917-.15235,2.80127-.3042,4.2041-.40637l4.2168-.15485c1.41552-.07733,2.79541-.04791,4.17578-.01782,1.38379.03576,2.76172.02319,4.15063.10217a103.92487,103.92487,0,0,1,16.68359,2.28162A76.34465,76.34465,0,0,1,134.044,28.84656a78.80362,78.80362,0,0,1,14.35449,9.03106c2.17724,1.72376,4.29419,3.48377,6.30053,5.3014,2.00415,1.8233,3.94239,3.67413,5.82764,5.50909,7.52222,7.39368,14.467,14.60577,22.68384,20.39612a86.29058,86.29058,0,0,0,13.07226,7.69,130.89734,130.89734,0,0,0,14.48975,5.759,75.358,75.358,0,0,1-31.17651-7.23761,95.31046,95.31046,0,0,1-14.0293-8.32922c-4.41724-3.10822-8.57446-6.4342-12.63208-9.64337-4.05908-3.21112-8.043-6.28632-12.09888-9.0033a76.13973,76.13973,0,0,0-12.56225-6.861,67.01206,67.01206,0,0,0-13.50635-4.165,93.06945,93.06945,0,0,0-14.323-1.78509c-1.2146-.08454-2.44873-.08155-3.67212-.12854-1.22827-.04175-2.457-.08429-3.64917-.02491l-3.60718.08832c-1.19921.07007-2.39184.21222-3.59155.287l-1.79858.13251-1.78443.24548c-1.18823.17328-2.38476.30749-3.57031.507-2.355.48212-4.728.89764-7.05713,1.53125-2.3584.52112-4.64526,1.31854-6.96216,2.02814-2.26709.85809-4.57959,1.61853-6.80957,2.616l-1.69116.70429-1.657.78876c-1.09839.54162-2.22656,1.02563-3.30908,1.60949l-3.27613,1.71033-3.20776,1.86279A141.84462,141.84462,0,0,0,20.80957,67.71313,185.62379,185.62379,0,0,0,0,90.75848Z" fill="#001230"/>
      <path d="M0,90.75848A49.10375,49.10375,0,0,1,11.71826,82.2981,36.00926,36.00926,0,0,1,26.177,78.0816a26.22157,26.22157,0,0,1,7.98071.77375,25.34382,25.34382,0,0,1,7.51246,3.33954l.85522.57653.73926.51612,1.47046,1.0346,2.88574,2.07624c1.907,1.37548,3.822,2.70489,5.71167,4.02606a133.48893,133.48893,0,0,0,11.56323,7.202,89.02586,89.02586,0,0,0,12.09351,5.498,75.46405,75.46405,0,0,0,25.71875,4.47321,101.49973,101.49973,0,0,0,26.37817-3.6612c4.3103-1.15478,8.82861-2.61358,13.27295-3.98779,4.44043-1.4325,8.87158-2.895,13.28272-4.42627,8.84155-3.03918,17.51538-6.45593,26.41723-9.86053a77.04382,77.04382,0,0,1,13.98755-4.20417,23.50155,23.50155,0,0,1,7.47-.10455,24.53826,24.53826,0,0,1,6.91309,2.20819,26.9963,26.9963,0,0,0-6.98535-.40552A23.20009,23.20009,0,0,0,196.876,84.676a94.61177,94.61177,0,0,0-12.33277,6.29107c-8.1831,4.71289-16.67334,9.27649-25.40918,13.24231q-6.54858,2.99241-13.25122,5.626c-4.47363,1.7774-8.90527,3.38641-13.65844,4.94159a121.12738,121.12738,0,0,1-14.50684,3.47839,95.59342,95.59342,0,0,1-15.05127,1.21594A82.27257,82.27257,0,0,1,87.50854,117.984a78.57129,78.57129,0,0,1-14.5874-4.39942A96.95632,96.95632,0,0,1,47.71265,97.80231c-1.87183-1.54578-3.65967-3.15906-5.44239-4.742l-5.1538-4.627a19.77822,19.77822,0,0,0-11.031-4.58728,35.10681,35.10681,0,0,0-13.14893,1.483A63.4048,63.4048,0,0,0,0,90.75848Z" fill="#001230"/>
      <path d="M121.32267,31.12533,71.6284,37.29427S23.99044,44.83409.0001,90.75846Z" fill="#001230"/>
      <ellipse cx="100.50249" cy="59.91373" rx="20.82019" ry="26.21801" fill="#001230"/>
      <polygon points="127.492 49.118 105.129 64.283 144.713 82.019 127.492 49.118" fill="#fff"/>
      <polygon points="94.077 63.255 107.7 70.709 92.277 74.308 94.077 63.255" fill="#fff"/>
      <path d="M137.43047,101.38275s32.901-14.3942,41.1263-33.24376l25.01849,11.30974-54.14962,24.33305" fill="#001230"/>
    </g>
  </g>
</svg>
