<svg id="Layer_2" data-name="Layer 2" xmlns="http://www.w3.org/2000/svg" viewBox="0 0 400 400">
  <g>
    <path d="M151.044,270.26348l1.02035,14.56424A62.91918,62.91918,0,0,1,134.765,286.944c-21.7485,0-42.271-11.92706-42.271-36.41066,0-24.16889,18.80774-35.39057,40.44788-35.39057.673,0,1.34572.01086,2.02958.02173a67.55262,67.55262,0,0,0-18.69911-20.97821l7.40132-12.10068a81.19874,81.19874,0,0,1,27.93473,34.8696H151.044c.47772.09764.95517.19534,1.42176.30384l-1.31312,14.77052a46.69517,46.69517,0,0,0-14.662-2.01865c-14.86809,0-24.88507,6.67442-24.88507,20.42472,0,14.66195,12.24183,21.74877,26.08983,21.74877A45.86269,45.86269,0,0,0,151.044,270.26348Z" fill="#2b2b2b"/>
    <polygon points="134.765 142.864 134.515 142.864 134.645 142.647 134.765 142.864" fill="#2b2b2b"/>
    <path d="M304.19632,270.665V216.95515h-.40141l-5.71937-27.65255-6.17523-29.7797L287.581,138.63153l-3.06039-8.00926-3.4838-9.1054-4.76433-12.448-3.40762-8.91h24.86335v21.77043a7.08683,7.08683,0,1,0,14.17364,0V85.99614H263.933a6.91,6.91,0,0,0-3.52711.955.99244.99244,0,0,1-.14109.04338,7.09537,7.09537,0,0,0-4.08061,9.14885l12.61092,32.97032.02159.04345H126.95076l-1.75813-3.093-.39068-.68373.08677-.02166,13.95664-3.39688,15.389-3.73332a7.645,7.645,0,0,0,5.882-7.4775v-5.87126a6.44031,6.44031,0,0,0-6.43555-6.42482H85.27652a6.72288,6.72288,0,0,0-6.71773,6.7178v4.80778a9.69506,9.69506,0,0,0,6.186,8.99683l19.42629,7.434v.01086l11.60156,20.27276-15.248,23.941a81.29351,81.29351,0,0,0-98.6507,46.31914v68.17641H42.12634c16.08371,0,26.19833-8.49758,26.19833-22.45415,0-9.203-6.3705-14.56425-13.555-15.98594a13.03943,13.03943,0,0,0,9.81072-13.04492c0-11.93793-11.02621-16.6914-22.15019-16.6914H17.52345A67.07707,67.07707,0,0,1,76.76807,181.25a66.07669,66.07669,0,0,1,15.8014,1.88835L71.027,216.95515v68.17641H89.3354V216.95515l30.572-50.13923,3.8093-6.24028,6.33791,11.06966,25.927,45.30985,15.82313,27.64176,9.32253,16.25726-15.769,24.27739h21.73791l24.54858-39.29743,18.03724-28.879h.22787l40.4696-63.98723,2.75662-4.36279h1.16118l-.05432.06511-.01073-.02172,5.17661,31.34248a81.72138,81.72138,0,0,0-30.789,36.55175v.01086c-15.82326,3.66821-27.77192,14.7162-27.77192,33.97967,0,24.4836,20.53328,36.41073,42.27105,36.41073a62.86831,62.86831,0,0,0,17.29921-2.11629l-1.00935-14.56431a45.91481,45.91481,0,0,1-13.34869,1.92094c-13.85887,0-26.1007-7.08675-26.1007-21.7487,0-13.7503,10.017-20.42472,24.88507-20.42472a46.69712,46.69712,0,0,1,14.662,2.01858l1.31313-14.77045a86.789,86.789,0,0,0-15.94249-2.0403A66.53554,66.53554,0,0,1,281.9701,195.4669l3.71165,22.45416h.21714v67.2105h54.10034V270.665Zm-284.014-40.0572H37.98068c5.05738,0,7.98754,1.6279,7.98754,5.26358,0,3.53791-2.93016,5.87126-8.08518,5.87126H20.18229Zm0,23.97355H37.98068c7.37973,0,11.42775,2.83253,11.42775,8.096,0,5.66512-4.24329,8.79069-11.33011,8.79069h-17.896Zm231.8345-105.97624-42.87887,68.35-12.41551,19.79531-.11923.19534-4.24343,7.11934-15.17213-27.11h-.19527l-42.2276-74.091H134.515l.13022-.21707.1195.21707H255.61981Z" fill="#2b2b2b"/>
    <path d="M208.5411,216.95515l-11.81869,19.79531,12.41551-19.79531Zm-52.55948,0H155.949l15.85572,27.64176Z" fill="#2b2b2b"/>
    <path d="M361.71541,230.60782V242.1442h36.41073v12.83871H361.71541V271.4681h36.41073v13.66346h-54.719V216.95515h39.06957A67.07762,67.07762,0,0,0,323.23193,181.25a66.3197,66.3197,0,0,0-18.37348,2.58293h-.01086l-5.05738-13.28364a81.25912,81.25912,0,0,1,98.33593,46.40591v13.65267Z" fill="#2b2b2b"/>
    <polygon points="229.91 216.955 211.645 245.834 229.682 216.955 229.91 216.955" fill="#2b2b2b"/>
    <polygon points="268.817 129.157 268.73 129.157 268.795 129.114 268.817 129.157" fill="#2b2b2b"/>
    <line x1="145.18369" y1="115.55883" x2="136.52327" y2="116.53557" fill="none"/>
    <line x1="121.82877" y1="118.19603" x2="114.10168" y2="119.07509" fill="none"/>
    <polygon points="134.765 142.864 134.515 142.864 134.645 142.647 134.765 142.864" fill="#2b2b2b"/>
    <line x1="283.66362" y1="166.31671" x2="281.34115" y2="161.9648" fill="none"/>
    <line x1="273.72211" y1="147.68268" x2="273.13607" y2="146.59741" fill="none"/>
    <line x1="274.23218" y1="148.64856" x2="274.21048" y2="148.60515" fill="none"/>
    <polygon points="274.297 148.605 274.243 148.67 274.232 148.649 274.221 148.605 274.297 148.605" fill="#2b2b2b"/>
    <line x1="103.67472" y1="193.3573" x2="119.90492" y2="166.81124" fill="none"/>
  </g>
</svg>
