<svg id="Layer_2" data-name="Layer 2" xmlns="http://www.w3.org/2000/svg" viewBox="0 0 400 400">
  <g>
    <g>
      <path d="M154.1757,371.41685a37.63177,37.63177,0,0,0,72.42147.38617c-9.70805,3.30127-22.11642,5.28666-35.65192,5.28666C176.88707,377.08968,164.03883,374.95065,154.1757,371.41685Z" fill="#070707"/>
      <path d="M190.44116,323.73282a37.62955,37.62955,0,0,0-36.26546,47.684c9.86313,3.5338,22.71137,5.67283,36.76955,5.67283,13.5355,0,25.94387-1.98539,35.65192-5.28666a37.62909,37.62909,0,0,0-36.156-48.0702Z" fill="none"/>
      <path d="M267.67617,273.2382a27.75842,27.75842,0,0,0-3.94228.28539l-10.3507,50.75731a27.52209,27.52209,0,1,0,14.293-51.0427Z" fill="#070707"/>
      <path d="M240.15559,300.759a27.50458,27.50458,0,0,0,13.2276,23.52192l10.3507-50.75731A27.52328,27.52328,0,0,0,240.15559,300.759Z" fill="none"/>
    </g>
    <path d="M243.78129,72.5417a3.38327,3.38327,0,0,0-.56522-.42665c-.46217-.27218-.9328-.52784-1.3989-.79218-.28684-.17512-.56852-.35726-.85722-.52908-.01239-.0066-.025-.00826-.04213-.01734a102.22689,102.22689,0,0,0-23.93453-9.54366L233.80912,8.05311,214.19231,1.84666l-17.78879,56.224c-1.82348-.09582-3.65089-.15529-5.48326-.15529a103.88936,103.88936,0,0,0-45.3488,10.2871.57758.57758,0,0,0-.07972.03882A97.92048,97.92048,0,0,0,93.00718,155.0074c.00124,13.40541,43.84872,24.27238,97.93745,24.27238s97.93663-10.867,97.93766-24.27238V155.007A97.85064,97.85064,0,0,0,243.78129,72.5417Zm-52.861-7.85937c1.12548,0,2.24869.02644,3.37066.06567l-5.37546,16.98959a97.38555,97.38555,0,0,1-35.72584-9.37969A96.8349,96.8349,0,0,1,190.92026,64.68233Zm19.88136,16.0888,4.13-13.0531a96.00479,96.00479,0,0,1,18.27326,6.72108A97.28365,97.28365,0,0,1,210.80162,80.77113Z" fill="#070707"/>
    <path d="M263.73389,273.52359l22.02968-108.02877c-10.91509,10.45354-49.22851,18.17413-94.81894,18.17413S107.041,175.94836,96.1259,165.49482l19.20276,94.16574,19.36343,94.9538a27.31778,27.31778,0,0,0,.72671,2.98365c2.20449,5.49152,9.02883,10.33377,18.7569,13.81884a37.63367,37.63367,0,1,1,72.42147.38617c10.31993-3.50943,17.58723-8.50656,19.87474-14.205a27.15994,27.15994,0,0,0,.72713-2.99109l6.18415-30.326a27.52242,27.52242,0,0,1,10.3507-50.75731Zm-35.65914-16.35684a12.32,12.32,0,1,1,12.32-12.32A12.31987,12.31987,0,0,1,228.07475,257.16675Z" fill="#070707"/>
  </g>
</svg>
