<svg id="Layer_2" data-name="Layer 2" xmlns="http://www.w3.org/2000/svg" viewBox="0 0 400 400">
  <g>
    <path d="M193.0841,48.44984a5.06942,5.06942,0,0,0,5.06916-5.06916V8.91882a5.06916,5.06916,0,1,0-10.13832,0V43.38068A5.06942,5.06942,0,0,0,193.0841,48.44984Z"/>
    <path d="M167.01184,55.80977A5.06862,5.06862,0,0,0,174.18,48.64166L158.1173,32.57778a5.06862,5.06862,0,0,0-7.1681,7.16811Z"/>
    <path d="M215.5723,57.29488a5.05067,5.05067,0,0,0,3.58406-1.48511l16.06388-16.06388a5.06862,5.06862,0,1,0-7.1681-7.16811L211.98825,48.64166a5.06917,5.06917,0,0,0,3.58405,8.65322Z"/>
    <path d="M214.883,73.13723a5.0694,5.0694,0,0,0,5.06915,5.06916H254.414a5.06916,5.06916,0,0,0,0-10.13832H219.95212A5.06941,5.06941,0,0,0,214.883,73.13723Z"/>
    <path d="M131.75545,78.20639h34.46063a5.06916,5.06916,0,0,0,0-10.13832H131.75545a5.06916,5.06916,0,0,0,0,10.13832Z"/>
    <path d="M317.43318,153.94427c0-.05383-.00325-.10728-.00348-.161l-.01632-4.69154h-.28588c-2.05626-16.51978-14.59952-31.65749-35.85044-43.04205C261.10036,95.241,234.973,88.8672,206.9788,87.79731,200.27518,74.68809,193.08433,62.899,193.08433,62.899s-7.45847,12.23139-14.26513,25.62951c-23.67211,2.16268-45.54136,8.18571-62.968,17.52115-21.24985,11.38456-33.793,26.52227-35.8492,43.04205h-.30569V329.23493l.02847,1.32917c-.0198.47523-.02847.9418-.02847,1.40466,0,18.39426,12.84,35.40366,36.15489,47.8934,22.18746,11.88579,51.56284,18.43139,82.71292,18.43139s60.52545-6.5456,82.71292-18.43139c22.05629-11.81525,34.73784-27.6737,36.0435-44.92443h.11262V154.79449l-.00255-.73342C317.4307,154.02208,317.43318,153.98326,317.43318,153.94427Zm-125.471-54.80811c.51685-.556.88341-.93739,1.03857-1.09758l.01508-.01555.06853-.07047s.40407.41243,1.06649,1.12373h.00008c3.29392,3.53711,13.12392,14.6385,13.12392,21.16352A14.18591,14.18591,0,0,1,199.8141,132.734h0a14.18312,14.18312,0,0,1-1.42415.66087c-.13962.05639-.28364.10365-.42542.15571-.358.13141-.72183.25015-1.09256.35287q-.25722.07111-.51785.13311c-.37.08749-.74681.1571-1.12737.215-.16382.02483-.32548.05569-.49117.075a14.25581,14.25581,0,0,1-1.65125.1038c-.44251,0-.87861-.02661-1.31076-.06621-.233-.02228-.46185-.05762-.69134-.09119-.17613-.02491-.35256-.049-.5266-.08029q-.45876-.08493-.90715-.19871-.10895-.02715-.2172-.05585c-.34559-.09328-.68763-.19554-1.02279-.31264h0a14.18437,14.18437,0,0,1-9.51472-13.3856C178.89377,113.75083,188.61509,102.73646,191.96215,99.13616Zm6.602,287.75178c-58.25077,0-107.4622-25.15025-107.4622-54.91918,0-.28387.00936-.57788.02-.8742,15.23146,19.3817,59.0757,37.46092,109.35053,37.46092,49.87284,0,90.96523-17.79256,105.54564-36.99752.00239.13582.00943.27737.00943.4108C306.02757,361.73769,256.81491,386.88794,198.56414,386.88794ZM306.02757,205.23748c-14.8956,18.56884-57.37293,34.808-107.46312,34.808-50.08958,0-92.56637-16.23885-107.46251-34.80731V182.68012A68.55936,68.55936,0,0,0,99.12916,190.64c.08362.07108.16986.141.254.21194q.8073.67711,1.64584,1.34371c.2974.23761.59589.47469.89879.71.22246.17187.45064.34173.67627.51252,19.31247,14.69658,49.29759,24.6382,83.9495,26.51848.36153.01981.72407.0362,1.08622.05423q2.1078.10383,4.23758.16746c.45651.01384.912.02993,1.36946.04091,1.76318.04193,3.53347.06985,5.3173.06985s3.554-.02792,5.31706-.06985c.45768-.011.91342-.02707,1.37016-.04091q2.1272-.06383,4.23232-.16731c.36524-.01818.73072-.03473,1.09527-.05469,34.59536-1.87811,64.54034-11.79219,83.85552-26.45049.26492-.2.53193-.39912.79252-.60062.28326-.22021.56256-.442.8411-.66435q.87981-.69846,1.72527-1.4086c.0625-.05283.12685-.10489.18912-.15772a68.56235,68.56235,0,0,0,8.04509-7.97463Zm-.01856-50.5734q-.03353,1.26837-.18525,2.52971c-.00441.03635-.00952.07271-.01408.10914q-.14839,1.20549-.4043,2.40278c-.023.1072-.05.21387-.07434.32084q-.24051,1.07344-.56449,2.13925c-.07611.24674-.16344.49178-.24628.73752-.13544.40732-.28527.81286-.439,1.21817-.25015.65113-.51808,1.29947-.81449,1.943q-.039.08574-.07843.17125c-10.232,21.88944-46.96838,39.19927-91.1248,42.17466l-.09769.00634c-1.31974.08826-2.64805.15973-3.98055.22215-1.13556.05113-2.27213.09963-3.41458.13227q-.5039.015-1.00848.02807c-1.66015.03945-3.3254.0642-4.99815.0642s-3.338-.02475-4.99815-.0642q-.50494-.01253-1.00848-.02807c-1.14245-.03264-2.279-.08114-3.41458-.13227-1.3325-.06242-2.66082-.13389-3.98055-.22215l-.09769-.00634c-44.17646-2.97678-80.92608-20.30092-91.13834-42.20452l-.04162-.091c-.31063-.67147-.58963-1.34828-.84983-2.028-.14465-.383-.28635-.76614-.41475-1.15088-.09058-.26794-.18432-.53549-.267-.80466q-.31465-1.03865-.55-2.0848c-.02645-.11641-.05577-.23243-.08083-.349q-.25131-1.18761-.401-2.38351c-.00526-.042-.01122-.08393-.01625-.126q-.14932-1.25736-.1844-2.52205c-.00642-.24056-.01864-.48057-.01864-.72175,0-25.29621,35.54088-47.24165,81.9583-53.27017-3.0457,7.03189-5.20343,13.44283-5.20343,17.51109a25.22257,25.22257,0,0,0,20.55168,24.77743v11.83187H199.8141V142.47717a25.21766,25.21766,0,0,0,18.49783-24.292c0-4.29087-2.39643-11.18493-5.70806-18.66832,51.90473,3.64029,93.4237,27.08368,93.4237,54.4274C306.02757,154.18483,306.01543,154.42415,306.009,154.66408Z"/>
  </g>
</svg>
