<svg id="Layer1" xmlns="http://www.w3.org/2000/svg" viewBox="0 0 400 400">
  <g>
    <path d="M168.59417,244.14081a7.22485,7.22485,0,0,0,10.16194-1.13631L190.399,228.42862A7.2318,7.2318,0,0,0,179.097,219.403l-11.64073,14.5744A7.23042,7.23042,0,0,0,168.59417,244.14081Z"/>
    <path d="M175.24966,82.416a117.93893,117.93893,0,0,0-71.16088,51.14026l67.34536,21.82028Z"/>
    <path d="M216.83968,218.59429a7.22725,7.22725,0,0,0-.85593,10.18851l11.12348,13.16211a7.23074,7.23074,0,1,0,11.04581-9.334l-11.12181-13.16359A7.23178,7.23178,0,0,0,216.83968,218.59429Z"/>
    <path d="M202.32883,174.6822c3.99335,0,6.80021-3.23777,6.80021-7.23112V148.65016c0-3.99187-2.80686-7.22964-6.80021-7.22964s-6.80021,3.23777-6.80021,7.22964v18.80092C195.52862,171.44443,198.33539,174.6822,202.32883,174.6822Z"/>
    <circle cx="203.25951" cy="198.10587" r="19.89881" transform="translate(-60.33956 92.8638) rotate(-22.49997)"/>
    <path d="M85.68337,196.59545a117.04661,117.04661,0,0,0,28.698,76.84321l39.94457-60.28542L86.40648,183.69011A117.9159,117.9159,0,0,0,85.68337,196.59545Z"/>
    <path d="M201.42024,3.68831C93.66628,3.68831,6,91.35607,6,199.11159c0,107.754,87.66628,195.42032,195.42024,195.42032,107.75561,0,195.41968-87.66628,195.41968-195.42032C396.83992,91.35607,309.17585,3.68831,201.42024,3.68831Zm1.83821,324.943c-72.8042,0-132.03668-59.23174-132.03668-132.03586,0-72.80559,59.23248-132.03733,132.03668-132.03733,72.807,0,132.03872,59.23174,132.03872,132.03733C335.29717,269.39957,276.06543,328.63131,203.25845,328.63131Z"/>
    <path d="M171.398,198.06824a7.23245,7.23245,0,0,0,2.55312-13.99886l-14.33394-5.40859a7.23145,7.23145,0,0,0-5.10744,13.53106l14.33459,5.40858A7.23465,7.23465,0,0,0,171.398,198.06824Z"/>
    <path d="M294.7719,270.29829a116.99281,116.99281,0,0,0,26.063-73.70284c0-3.32631-.17193-6.60983-.44485-9.86679L256.25372,211.8Z"/>
    <path d="M229.38642,81.98217l4.062,72.50011,70.52041-18.49986A117.9483,117.9483,0,0,0,229.38642,81.98217Z"/>
    <path d="M158.19593,305.17591a117.31068,117.31068,0,0,0,92.053-.83379l-45.10532-56.38357Z"/>
    <path d="M259.344,180.12473a7.22478,7.22478,0,0,0-9.1327-4.59988l-16.36217,5.39973a7.23108,7.23108,0,1,0,4.53347,13.73323l16.36364-5.40121A7.22991,7.22991,0,0,0,259.344,180.12473Z"/>
  </g>
</svg>
