<svg id="Layer1" xmlns="http://www.w3.org/2000/svg" viewBox="0 0 400 400">
  <g>
    <path d="M385.59055,101.305a6.23138,6.23138,0,0,0-6.26455,5.99536v52.42884H353.40217l.39934-50.9251a6.696,6.696,0,0,0-1.80458-4.63234,6.25645,6.25645,0,0,0-4.40062-1.75089l-29.78771.4784L296.56988,80.95137c-1.15824-1.2162-2.77806-1.4083-4.47167-1.4083H260.13772a18.55727,18.55727,0,0,0,.02485-2.21951V62.9457l23.5614.30956h.005a5.91665,5.91665,0,0,0,6.114-5.82284,6.24044,6.24044,0,0,0-6.10778-6.21927l-74.584-.33526-5.08941-.15172h-.05865a4.69428,4.69428,0,0,0-.71646.06118L168.321,50.72617h-.00253a6.26378,6.26378,0,0,0-6.04163,6.30492,5.6486,5.6486,0,0,0,5.86192,5.76412l29.40336.17619V79.54307h-42.1406c-1.68994,0-3.30731.17742-4.46295,1.3875L130.52852,101.907l-30.9558-1.41442a6.16678,6.16678,0,0,0-4.48047,1.61019,5.89783,5.89783,0,0,0-1.90437,4.28485l-.32707,38.73249-13.04427-.09176-.16862-26.732a6.05535,6.05535,0,0,0-6.074-5.95988s-6.76436-.044-14.73911-.044c-24.72452,0-25.88888.37563-27.12068.77328a6.11263,6.11263,0,0,0-3.73533,3.4198c-36.44966,85.65539-.89349,144.14077.64145,146.57562a6.44573,6.44573,0,0,0,5.203,3.16531h.01621l36.542-.45393c3.36956-.01346,5.75333-3.0087,5.75333-6.31227V234.90374h26.83735v40.2607c0,3.31213,3.47946,6.09691,6.85789,6.09691h131.5736a6.21661,6.21661,0,0,0,3.67537-1.21987l46.84061-34.64463,54.87547-1.07672a6.0739,6.0739,0,0,0,5.978-5.97334l.53652-67.34139H379.326v50.20444a6.27064,6.27064,0,0,0,12.52909,0V107.30038A6.22975,6.22975,0,0,0,385.59055,101.305ZM210.32183,63.33112l37.06106.36462V77.32356a8.66949,8.66949,0,0,0,.77129,2.21951H210.32183Zm81.85,100.04426c-2.22394,15.95256-23.17078,30.131-45.3355,45.139-2.23648,1.51475-4.48291,3.0197-6.71695,4.54791-42.44748,29.03224-60.59362,39.75782-69.35236,40.34145-.99091.06485-1.98558.29365-2.95271.29365h-.0026c-18.96982,0-32.38605-13.1849-32.62189-31.78888-.141-10.82469,12.86594-29.20476,46.38889-65.39595l2.52218-2.857c18.31844-19.80427,35.62477-38.5147,51.44083-42.03728a49.68952,49.68952,0,0,1,10.81911-1.20519,48.68517,48.68517,0,0,1,38.63239,19.17415C292.82706,139.94085,295.42915,152.21911,292.17185,163.37538Z"/>
    <path d="M175.39312,221.63831a10.32,10.32,0,1,0-10.31934,10.31933A10.33245,10.33245,0,0,0,175.39312,221.63831Z"/>
    <path d="M215.5462,155.43725A25.45886,25.45886,0,1,0,241.00694,129.979,25.48893,25.48893,0,0,0,215.5462,155.43725Z"/>
  </g>
</svg>
