<svg id="icon" xmlns="http://www.w3.org/2000/svg" viewBox="0 0 347 347">
  <title>icon</title>
  <g>
    <path d="M173.4995,3.5049a170,170,0,1,0,170,170A170.01084,170.01084,0,0,0,173.4995,3.5049Zm33,318a133.02253,133.02253,0,1,1,133-133A132.69786,132.69786,0,0,1,206.4995,321.5049Z" fill="none" stroke="#231f20" stroke-linecap="round" stroke-linejoin="round" stroke-width="7"/>
    <path d="M339.4995,188.5049a133.002,133.002,0,0,1-234.77,85.62988A133.02376,133.02376,0,0,0,250.26952,62.875,133.03923,133.03923,0,0,1,339.4995,188.5049Z" fill="none" stroke="#231f20" stroke-linecap="round" stroke-linejoin="round" stroke-width="7"/>
    <path d="M281.4995,148.5049a133.09464,133.09464,0,0,1-176.77,125.62988A133.04905,133.04905,0,0,1,250.26952,62.875,132.46951,132.46951,0,0,1,281.4995,148.5049Z" fill="none" stroke="#231f20" stroke-linecap="round" stroke-linejoin="round" stroke-width="7"/>
    <path d="M281.4995,148.5049a133.09464,133.09464,0,0,1-176.77,125.62988A133.04905,133.04905,0,0,1,250.26952,62.875,132.46951,132.46951,0,0,1,281.4995,148.5049Z" fill="none" stroke="#231f20" stroke-linecap="round" stroke-linejoin="round" stroke-width="5.47647"/>
  </g>
  <circle cx="173.4971" cy="173.5034" r="54.5" fill="none" stroke="#231f20" stroke-miterlimit="10" stroke-width="7"/>
</svg>
