<?xml version="1.0" encoding="utf-8"?>
<!-- Generator: Adobe Illustrator 24.2.1, SVG Export Plug-In . SVG Version: 6.00 Build 0)  -->
<svg version="1.1" id="Layer_1" xmlns="http://www.w3.org/2000/svg" xmlns:xlink="http://www.w3.org/1999/xlink" x="0px" y="0px"
	 viewBox="0 0 400 400" enable-background="new 0 0 400 400" xml:space="preserve">
<g>
	<path d="M170.73412,326.70056c-7.01717,0-12.71805,5.69171-12.71805,12.70883c0,7.02637,5.70088,12.71799,12.71805,12.71799
		c7.02638,0,12.71799-5.69162,12.71799-12.71799C183.4521,332.39227,177.7605,326.70056,170.73412,326.70056z M314.83148,326.70056
		c-7.01718,0-12.70877,5.69171-12.70877,12.70883c0,7.02637,5.69159,12.71799,12.70877,12.71799
		c7.02637,0,12.71799-5.69162,12.71799-12.71799C327.54947,332.39227,321.85785,326.70056,314.83148,326.70056z
		 M314.83148,326.70056c-7.01718,0-12.70877,5.69171-12.70877,12.70883c0,7.02637,5.69159,12.71799,12.70877,12.71799
		c7.02637,0,12.71799-5.69162,12.71799-12.71799C327.54947,332.39227,321.85785,326.70056,314.83148,326.70056z
		 M170.73412,326.70056c-7.01717,0-12.71805,5.69171-12.71805,12.70883c0,7.02637,5.70088,12.71799,12.71805,12.71799
		c7.02638,0,12.71799-5.69162,12.71799-12.71799C183.4521,332.39227,177.7605,326.70056,170.73412,326.70056z M395.46851,250.51303
		l-29.66302-79.34853c-2.48425-6.61858-8.80621-11.01239-15.87897-11.01239h-49.87094
		c-7.99051,0-14.90567,5.58965-16.57419,13.40393l-28.31897,119.23616h-47.85013
		c-10.09465-7.93491-22.77563-12.70883-36.57817-12.70883c-13.80258,0-26.48351,4.77393-36.57822,12.70883H98.19879
		c-2.0764,0-3.75421,1.74258-3.75421,3.88394v38.84918c0,2.15063,1.67781,3.88406,3.75421,3.88406h13.20003
		c0,0.00928,0,0.00928,0,0.00928c0,32.71265,26.62253,59.3353,59.3353,59.3353c32.71272,0,59.3353-26.62265,59.3353-59.3353
		c0,0,0,0,0-0.00928h25.42676c0,0.00928,0,0.00928,0,0.00928c0,32.71265,26.62251,59.3353,59.33531,59.3353
		c32.71271,0,59.33524-26.62265,59.33524-59.3353c0-0.42648-0.05563-0.83429-0.06491-1.26065h5.4877
		c9.36237,0,16.95425-7.59183,16.95425-16.95432v-64.74878C396.54376,254.42482,396.18222,252.41338,395.46851,250.51303z
		 M170.73412,373.31787c-18.69701,0-33.90854-15.20221-33.90854-33.8992c0-18.7063,15.21153-33.90848,33.90854-33.90848
		c18.69696,0,33.90849,15.20218,33.90849,33.90848C204.64261,358.11566,189.43108,373.31787,170.73412,373.31787z
		 M314.83148,373.31787c-18.69702,0-33.89929-15.20221-33.89929-33.8992c0-18.7063,15.20227-33.90848,33.89929-33.90848
		c18.69693,0,33.90848,15.20218,33.90848,33.90848C348.73996,358.11566,333.52841,373.31787,314.83148,373.31787z
		 M358.86249,235.87616l-56.10016-4.68112c-2.57703-0.2132-4.35678-2.6604-3.78207-5.17245l6.61859-28.68048
		c0.44492-1.91878,2.15985-3.28139,4.13431-3.28139h36.14249c1.72415,0,3.29074,1.05664,3.93036,2.66028l13.33908,33.35233
		C364.31302,233.00269,361.99561,236.13574,358.86249,235.87616z M314.83148,326.70056
		c-7.01718,0-12.70877,5.69171-12.70877,12.70883c0,7.02637,5.69159,12.71799,12.70877,12.71799
		c7.02637,0,12.71799-5.69162,12.71799-12.71799C327.54947,332.39227,321.85785,326.70056,314.83148,326.70056z
		 M170.73412,326.70056c-7.01717,0-12.71805,5.69171-12.71805,12.70883c0,7.02637,5.70088,12.71799,12.71805,12.71799
		c7.02638,0,12.71799-5.69162,12.71799-12.71799C183.4521,332.39227,177.7605,326.70056,170.73412,326.70056z"/>
	<path d="M246.14685,5.13862c3.76651,5.23199,2.60162,12.50682-2.57735,16.31081l-0.09099,0.06683l-46.38887,33.41064
		l6.48801,20.12156c0.02374,0.0844,0.00838,0.18477,0.0322,0.26926l56.78474,138.91931
		c1.99417,4.86523-0.40591,10.42369-5.31323,12.30861L49.3546,305.6926c-4.59611,1.77109-9.77789-0.3071-11.87058-4.7688
		l-38.08644-81.03638c-1.90586-4.05136-0.68119-8.88657,2.92807-11.55034L179.75847,77.62936l-7.62303-23.64365
		c-1.56331-4.8507,0.26013-9.80713,4.31311-13.11524l53.32066-38.40027C235.03212-1.30619,242.36208-0.11821,246.14685,5.13862z"/>
	<rect x="227.65414" y="232.02948" width="12.43635" height="70.26414"/>
</g>
</svg>
