<svg id="Layer1" xmlns="http://www.w3.org/2000/svg" viewBox="0 0 400 400">
  <g>
    <path d="M92.41027,283.884a13.48322,13.48322,0,1,1-23.67029,0H38.20006a44.0691,44.0691,0,1,0,84.75049,0Z"/>
    <path d="M104.934,69.16086H68.34508l-18.71741.00147v-.00147h-36.589v83.68946H104.934ZM65.43785,90.299,63.412,92.03147l-2.36279-1.48486-2.063,1.54736-3.00073-1.54736-2.36352,1.48486-2.70081-1.48486L49.62767,92.094V69.41233H68.34508V92.094Z"/>
    <path d="M20.63756,157.07834H144.04528a12.86157,12.86157,0,0,1,12.86157,12.86157v7.65381a12.86157,12.86157,0,0,1-12.86157,12.86157H20.63536A12.86157,12.86157,0,0,1,7.77379,177.59372v-7.65161A12.86377,12.86377,0,0,1,20.63756,157.07834Z"/>
    <path d="M278.69127,96.87961V66.968H260.21154a11.44668,11.44668,0,0,0-11.43189,11.43408v7.04541C248.77965,99.5261,264.61266,96.87961,278.69127,96.87961Z"/>
    <path d="M395.45958,241.54368c-46.01123-63.35938-146.05273-21.06348-134.01245,55.42675,1.18359,7.50586,10.813,9.38135,15.09937,3.32764A112.313,112.313,0,0,1,387.29943,254.551,8.30259,8.30259,0,0,0,395.45958,241.54368Z"/>
    <path d="M368.48009,256.3303a101.99871,101.99871,0,0,0-71.39478,28.87158c.32911,1.17139.002,3.03467.002,5.835a44.06934,44.06934,0,1,0,88.13867,0C385.22594,268.79612,369.943,258.04514,368.48009,256.3303Zm-27.32446,48.29052a13.4834,13.4834,0,1,1,13.4834-13.48339A13.48326,13.48326,0,0,1,341.15563,304.62082Z"/>
    <path d="M320.483,208.39524,265.62364,99.15354c-3.63427,0-7.69775.2959-12.92407-2.36279.07007.15918.824,3.09033,1.96533,7.59619a3.39725,3.39725,0,0,0-.39868,1.5747c0,6.28809-9.80127,8.01709-14.01513,8.46778a3.43577,3.43577,0,0,0,.36132,6.85205c.12207,0,.2461-.00684.37012-.019,7.39429-.79248,12.9541-2.99268,16.345-6.3125,4.56568,18.17041,10.87866,43.50439,11.00513,44.01025a82.96463,82.96463,0,0,1-80.48682,103.084H169.77892a42.00527,42.00527,0,0,1-41.6023-47.833l3.00733-21.48243H21.00634L5.90856,242.78293a29.84239,29.84239,0,0,0,28.58227,38.47461H255.40636A85.23349,85.23349,0,0,1,320.483,208.39524Z"/>
  </g>
</svg>
