<?xml version="1.0" encoding="utf-8"?>
<!-- Generator: Adobe Illustrator 24.2.1, SVG Export Plug-In . SVG Version: 6.00 Build 0)  -->
<svg version="1.1" id="Layer_1" xmlns="http://www.w3.org/2000/svg" xmlns:xlink="http://www.w3.org/1999/xlink" x="0px" y="0px"
	 viewBox="0 0 400 400" enable-background="new 0 0 400 400" xml:space="preserve">
<g>
	<g>
		<path fill="none" stroke="#000000" stroke-width="4" stroke-linecap="round" stroke-linejoin="round" stroke-miterlimit="10" d="
			M216.10722,354.30884c11.64273-91.71304-14.40781-138.23529-12.60811-236.21289"/>
		<path fill="none" stroke="#000000" stroke-width="4" stroke-linecap="round" stroke-linejoin="round" stroke-miterlimit="10" d="
			M219.01999,315.5639c22.64075-57.45114,66.79208-43.72061,76.07166-93.51668"/>
		<path fill="none" stroke="#000000" stroke-width="4" stroke-linecap="round" stroke-linejoin="round" stroke-miterlimit="10" d="
			M214.55354,246.49048c-24.02028-55.38545-80.63708-27.95316-100.32969-67.51585"/>
		<path stroke="#000000" stroke-width="1.8" stroke-linecap="round" stroke-linejoin="round" stroke-miterlimit="10" d="
			M299.04349,399.19885h-165.95c1.83002-31.12012,38.22998-39.97998,50.88-28.19006
			c6.57001-11.70996,18.54999-16.69995,30.21997-16.69995c13.20001,0,26,6.39001,30.10004,16.69995
			C252.08348,356.5188,296.3035,363.23889,299.04349,399.19885z"/>
		<g>
			<path fill="#010101" d="M159.3898,200.00922c11.15613-13.13448-7.37837-5.41742-32.00397-13.14998
				c-5.87136-9.84825-7.01234-15.78514-13.22527-26.94983c-8.16233-14.51341-14.92069-22.47946-14.88013-22.42746
				c-8.33541-10.6811-31.53711-31.80211-48.9685-42.18011C39.92263,89.11643,11.014,79.4031,7.36431,78.93031
				C2.08921,78.24699,2.303,81.04627,6.4958,88.2075c21.01854,35.89922,45.20521,71.07372,82.01251,90.32391
				c44.1626,23.09702,29.42859,2.38037,38.22995,40.69978c0.74934,3.2903,1.53883,5.60667,2.1371,6.64749
				C131.68742,230.83174,155.49207,204.5464,159.3898,200.00922z"/>
			<path fill="#FFFFFF" d="M28.31939,94.67679c-3.09641,3.00994,1.46234,7.71111,4.56448,4.69559
				C35.9803,96.36243,31.42154,91.66126,28.31939,94.67679L28.31939,94.67679z"/>
			<path fill="#FFFFFF" d="M80.39622,125.55561c-11.81126-10.75263-29.21519-19.6524-32.34887-20.63533
				c-2.28725-0.71852-3.34725,2.72264-1.09779,3.43236c2.49623,0.78247,24.32418,10.83009,42.08776,31.40635
				c20.55489,23.94579,23.77744,36.00841,26.67858,36.92802c0.96863,0.30917,1.96929-0.23958,2.26324-1.16548
				c0.35122-1.09792-0.04567-1.381-3.08626-5.78314c-7.24857-11.28725-2.18399-6.77771-19.12476-27.52519
				C86.08162,130.3613,80.35043,125.50851,80.39622,125.55561z M105.67873,160.97383
				C105.79288,161.13795,105.77952,161.12029,105.67873,160.97383L105.67873,160.97383z"/>
			<path fill="#FFFFFF" d="M66.77088,130.61722c-3.15699-3.32039-6.37141-6.2619-11.5798-9.92338
				c-4.51715-3.18052-6.48115-5.04926-7.76802-3.04414c-1.92455,3.01369,4.90609,3.48642,15.471,14.13185
				c16.82786,16.95155,23.46321,22.31084,35.63786,35.68913c2.69456,2.9745,2.47719,3.38046,3.63259,3.43602
				c1.00734,0.05643,1.84152-0.72249,1.89274-1.70078C104.23095,166.08055,73.40204,137.58409,66.77088,130.61722z"/>
			<path fill="#FFFFFF" d="M45.79203,125.26501c-2.17378-2.68164-4.91254-5.37817-7.34093-8.75058
				c-0.50325-0.75437-0.77125-1.31059-1.47864-1.53709c-0.96601-0.30558-1.9663,0.24131-2.26507,1.16727
				c-0.98966,3.13229,25.74268,32.19784,50.932,53.43043c5.7284,4.89839,6.63062,5.55664,13.33434,9.36086
				c9.67559,5.49452,11.82314,9.32965,13.52147,6.68385C115.9578,180.22609,86.73048,175.78049,45.79203,125.26501z"/>
			<path fill="#FFFFFF" d="M130.49338,196.57965c-0.79158-0.6104-1.925-0.45497-2.52634,0.32602
				c-0.82481,1.05685-0.35092-0.07076,3.28654,22.63696c0.40654,2.51784,3.93069,1.75722,3.58037-0.41241
				C130.84142,194.24005,130.49016,196.57634,130.49338,196.57965z"/>
			<path fill="#FFFFFF" d="M133.90192,192.19514c-0.95949,0.87524-0.95703,2.83235,1.4257,3.17162
				c14.56509,2.75302,17.51506,4.11281,18.75513,3.47449c1.57628-0.82018,1.04866-3.03943-0.30568-3.32379
				C154.33768,196.09416,135.43144,190.811,133.90192,192.19514z"/>
			<path fill="#FFFFFF" d="M134.82207,199.53967c-1.9276,1.75829,0.81889,3.28249,4.86949,7.93797
				c1.88222,2.15993,1.93285,2.72305,3.05965,2.76221c1.01265,0.03406,1.82681-0.76387,1.8625-1.73555
				c0.04077-1.28088-3.83934-5.21207-4.74834-6.1472C137.97557,200.41302,136.5468,197.97206,134.82207,199.53967
				L134.82207,199.53967z"/>
		</g>
		<g>
			<path fill="#010101" d="M395.80792,111.70818c-16.45413-1.41306-35.21091,10.96435-32.22491,8.88869
				c-43.92822,23.57601-45.25064,44.84031-49.91147,64.92875c0.01834-0.07921-5.94891,19.88495-7.46362,28.43454
				c-43.54654,17.11668-47.38239,14.36269-51.12712,19.0006c-1.20044,1.48679-0.06262,2.15292,1.18822,2.27847
				c11.24695,1.13387,34.53253,0.88628,34.62299,0.89113c3.24277,0.11697,4.05411,27.33339,8.65591,30.91441
				c0.77252,0.60117,2.26593,1.08578,3.41223-1.92044c0.71625-1.87845,9.10449-32.81322,9.94598-45.69678
				c31.88034-11.84032,50.68689-22.40651,63.73682-36.7993c5.28311-5.82675,13.40591-19.5112,16.23297-31.95673
				C395.33746,140.88359,398.00598,113.75162,395.80792,111.70818z M280.38544,236.07605
				C280.54938,236.08482,280.54916,236.08482,280.38544,236.07605L280.38544,236.07605z"/>
			<path fill="#FFFFFF" d="M373.44073,129.68352c3.92435,2.93163-0.51407,8.88814-4.44568,5.9511
				C365.07071,132.70299,369.50912,126.74647,373.44073,129.68352L373.44073,129.68352z"/>
			<path fill="#FFFFFF" d="M367.02142,156.8844c9.5723,6.13501,12.48056,4.93629,13.43851,6.80095
				c0.87378,1.71829-0.92346,3.4552-2.42499,2.88251c-15.12305-5.86778-20.77734-10.70305-31.00824-22.3746
				c-1.34366-1.52403-3.04404-2.93237-1.82596-4.56325C348.42981,135.30748,350.09528,146.02402,367.02142,156.8844z"/>
			<path fill="#FFFFFF" d="M340.89767,146.71915c-5.89221-2.29916-5.31439,18.5737,8.35025,14.66922
				c0.61545-0.17039,3.23517-0.19128,2.89896-2.51338c-0.57236-3.95328-5.29694,0.79424-9.04395-2.4305
				C338.89044,151.80067,344.45425,148.10712,340.89767,146.71915L340.89767,146.71915z M337.7504,155.00998
				C337.82367,155.26463,337.81259,155.23216,337.7504,155.00998L337.7504,155.00998z"/>
			<path fill="#FFFFFF" d="M355.43118,163.91422c-3.94202,5.27692,3.56131,16.01424,13.03427,13.59633
				c7.39752-1.90489,4.03491-5.58926,2.24722-5.11241c-2.82727,0.76419-4.44275,2.45323-8.15317,0.59534
				c-7.91385-4.87271-0.87436-8.26918-4.74319-9.7802C357.87701,163.13205,356.31006,162.73759,355.43118,163.91422z
				 M371.08664,176.49867C371.17654,176.4722,371.20242,176.46613,371.08664,176.49867L371.08664,176.49867z"/>
			<path fill="#FFFFFF" d="M340.59021,165.38007c2.21335,0.86511,0.89587,3.25127,0.63834,4.07268
				c-0.74777,5.63576,5.44876,9.34686,8.98248,7.5042c2.12912-1.11078,4.28091,2.36714,1.59204,3.76453
				c-4.73215,2.45714-14.07516-0.93369-14.66708-9.87386C336.72723,164.56087,340.80588,165.09137,340.59021,165.38007z"/>
			<path fill="#FFFFFF" d="M324.58633,171.47351c1.49051,1.92743-1.86612,4.48621,1.90546,6.99319
				c1.20816,0.58945,1.5386,0.1692,2.77002-0.13205c2.25595-0.55087,3.45828,3.1291,0.87823,3.96088
				c-8.56335,2.92725-11.77771-8.58319-8.42126-11.18217C321.49902,171.40753,323.22186,169.71935,324.58633,171.47351z"/>
			<path fill="#FFFFFF" d="M335.16602,187.84091c-0.83899,6.81732,4.67288,11.47807,11.65564,9.52209
				c5.59515-1.56627,2.6774-5.69557,0.38992-4.60921c-0.8215,0.39725-1.90277,1.14435-3.92017,0.93251
				c-6.91086-0.73366-1.92734-7.19795-5.86722-7.64641C337.50549,185.93105,335.38666,186.00465,335.16602,187.84091z
				 M345.22784,193.6008C345.63397,193.48151,345.73779,193.4586,345.22784,193.6008L345.22784,193.6008z"/>
			<path fill="#FFFFFF" d="M321.23523,190.81094c3.10287,0.35669,0.78378,3.67427,2.11804,6.36371
				c4.17511,6.44354,7.63773,0.18959,9.12616,3.76735c1.52704,3.60681-7.74719,5.99127-12.35901-1.26422
				c-1.89456-2.97188-1.43332-7.12025-0.73578-8.05424C320.00439,190.79393,321.31174,190.70853,321.23523,190.81094z"/>
			<path fill="#FFFFFF" d="M273.92319,231.06577c0.33569,2.31818,2.68295,1.73244,4.74554,1.27409
				c2.67163-0.5972,23.00552-6.84741,22.96112-6.3972c-2.42328,23.9794-0.95203,11.40109-2.4989,24.75096
				c-0.30121,2.69147,3.76086,3.13193,4.05978,0.4612c3.07266-27.09784,4.7847-31.74719-2.20398-29.5246
				C275.42004,229.73248,273.47845,228.03317,273.92319,231.06577z M280.98663,231.73888
				C281.15814,231.69164,281.12488,231.70181,280.98663,231.73888L280.98663,231.73888z M281.40579,231.62178
				C281.67154,231.54721,281.63275,231.55934,281.40579,231.62178L281.40579,231.62178z M281.59821,231.56837
				C281.67941,231.53587,281.82462,231.50514,281.59821,231.56837L281.59821,231.56837z"/>
		</g>
		<g>
			<path fill="#010101" d="M209.60371,2.21061c-15.77057,18.08672-23.21573,28.8596-27.68538,51.72939
				c-3.07112,15.75409-1.17496,30.42947,3.91641,45.02632c3.64917,10.46198,4.81839,16.6945,10.9174,23.27772
				c4.09004,4.41479,2.88251,2.0966-0.27219,6.34459c-7.85121,10.61545-15.19958,33.2567-14.98967,42.02252
				c0.246,10.83293,12.16879,8.91354,18.66425-17.51056c1.55898-6.38655,2.48851-15.37282,2.57738-15.1436
				c0.90022,6.05226,11.63264,33.33315,18.45334,29.92805c9.59164-4.7746-4.52704-34.60141-10.1116-43.73652
				c4.59868-5.13285,2.15892-2.32191,6.20183-5.96515c7.16867-6.42822,14.52774-20.32845,17.09412-29.75379
				c4.99986-18.35015,1.77252-51.60432-4.39072-68.09993c-1.05881-2.86391-1.48584-3.42652-5.77608-11.86435
				C220.91806,2.01243,214.23123-3.09661,209.60371,2.21061z"/>
			<path fill="#FFFFFF" d="M208.69563,26.16538c5.06444,0.3318,5.57695-7.34757,0.50317-7.67999
				C204.13437,18.15359,203.62186,25.83297,208.69563,26.16538L208.69563,26.16538z"/>
			<path fill="#FFFFFF" d="M192.8544,39.11755c0.34361,2.97771,10.38741,6.3373,14.58228,6.62262
				c9.32266,0.63457,13.95334-1.56863,16.93985-1.77046c2.83473-0.19496,2.72948-4.81347-0.52184-4.5896
				c-1.93893,0.13089-3.14473,0.74607-7.56413,1.45371c-13.98596,2.23479-19.23495-4.52022-21.40366-4.27352
				C192.56297,36.83031,192.83481,39.41682,192.8544,39.11755z"/>
			<path fill="#FFFFFF" d="M231.44176,58.74345c2.72601-1.0218,1.26009-5.40046-1.72276-4.2857
				c-1.48488,0.56021-3.4433,0.9168-5.50058,1.22741c-28.13875,4.2384-34.4292-6.93805-36.54565-1.98458
				C184.66882,60.71714,219.25426,63.29293,231.44176,58.74345z"/>
			<path fill="#FFFFFF" d="M225.04437,75.88475c2.65166-0.23391,6.00279-0.02001,5.67303-2.89429
				c-0.70514-6.23215-15.39279,4.90844-44.73428-5.39234c-1.25159-0.43937-2.57278,0.03819-3.04857,1.32074
				c-0.43434,1.17075,0.03511,2.53627,1.27873,2.9136c2.11115,0.64048,4.15193,1.44277,6.2636,2.08453
				c2.05887,0.6257,4.16298,1.09743,6.28291,1.46251c3.0193,0.51995,6.07388,0.82461,9.13222,0.98896
				c4.14148,0.22255,8.29503,0.18671,12.43652-0.01512C220.57011,76.24409,222.80914,76.08497,225.04437,75.88475z"/>
			<path fill="#FFFFFF" d="M221.68605,92.65843c0.78831-1.02074,0.58472-2.46957-0.41148-3.23868
				c-1.97255-1.53858-2.06429,0.94632-15.78305,1.29048c-2.5338-0.06184-6.77826-0.21306-9.25726-0.82296
				c-1.71297-0.5434-4.36032-2.27371-5.45425,0.28835C187.71933,97.33568,219.34862,95.67182,221.68605,92.65843z
				 M196.49393,89.96652C196.6371,90.00754,196.62701,90.00542,196.49393,89.96652L196.49393,89.96652z"/>
			<path fill="#FFFFFF" d="M214.13962,110.56795c0.78868-1.02122,0.58488-2.47258-0.41129-3.24168
				c-2.02161-1.57265-7.16884,2.25372-14.2045-0.70768c-1.43439-0.6039-3.10225,0.37202-3.20605,1.95632
				C195.98534,113.6415,212.43781,112.74567,214.13962,110.56795z"/>
			<path fill="#FFFFFF" d="M214.98215,154.61143c2.18449,2.13997,5.40329-1.18915,3.21759-3.30823
				C216.01477,149.16278,212.79761,152.49348,214.98215,154.61143L214.98215,154.61143z"/>
			<path fill="#FFFFFF" d="M210.30959,143.89932c2.18449,2.13997,5.40327-1.18915,3.21756-3.30823
				C211.34265,138.45113,208.12386,141.78024,210.30959,143.89932L210.30959,143.89932z"/>
			<path fill="#FFFFFF" d="M205.83472,132.75887c2.18449,2.13997,5.40329-1.18915,3.21756-3.30823
				C206.86778,127.31066,203.64902,130.63979,205.83472,132.75887L205.83472,132.75887z"/>
			<path fill="#FFFFFF" d="M189.60872,162.88156c2.18448,2.13997,5.40329-1.18915,3.21758-3.30823
				C190.6418,157.43335,187.423,160.76248,189.60872,162.88156L189.60872,162.88156z"/>
			<path fill="#FFFFFF" d="M192.75323,149.31949c2.18449,2.13998,5.40329-1.18915,3.21756-3.30821
				C193.7863,143.87131,190.5675,147.20044,192.75323,149.31949L192.75323,149.31949z"/>
			<path fill="#FFFFFF" d="M195.86363,139.49307c2.18494,2.14041,5.40213-1.19029,3.21756-3.30823
				C196.8967,134.04488,193.6779,137.37399,195.86363,139.49307L195.86363,139.49307z"/>
		</g>
	</g>
	<path fill="none" stroke="#000000" stroke-width="4" stroke-linecap="round" stroke-linejoin="round" stroke-miterlimit="10" d="
		M218.58945,336.09152c3.66293,0.55362,12.95667-6.50861,15.23705-14.51218c6.10889-21.43967,17.69052-26.54355,17.69052-26.54355
		c17.85725-29.5802,44.00517-10.49124,44.00517-10.49124s-16.52023,33.72214-44.00517,10.49124"/>
	<path fill="none" stroke="#000000" stroke-width="4" stroke-linecap="round" stroke-linejoin="round" stroke-miterlimit="10" d="
		M213.57477,224.2682c3.66293,0.55363,12.95667-6.50861,15.23705-14.51218c6.10889-21.43967,17.69052-26.54355,17.69052-26.54355
		c17.85725-29.5802,44.00517-10.49123,44.00517-10.49123s-16.52023,33.72212-44.00517,10.49123"/>
	<path fill="none" stroke="#000000" stroke-width="4" stroke-linecap="round" stroke-linejoin="round" stroke-miterlimit="10" d="
		M218.90338,310.5563c-3.66293,0.55365-12.95667-6.50861-15.23705-14.51218c-6.10889-21.43967-17.69052-26.54355-17.69052-26.54355
		c-17.85725-29.58018-44.00516-10.49121-44.00516-10.49121s16.52022,33.72211,44.00516,10.49121"/>
</g>
</svg>
