<?xml version="1.0" encoding="utf-8"?>
<!-- Generator: Adobe Illustrator 24.2.1, SVG Export Plug-In . SVG Version: 6.00 Build 0)  -->
<svg version="1.1" id="Layer_1" xmlns="http://www.w3.org/2000/svg" xmlns:xlink="http://www.w3.org/1999/xlink" x="0px" y="0px"
	 viewBox="0 0 400 400" enable-background="new 0 0 400 400" xml:space="preserve">
<g>
	<path fill-rule="evenodd" clip-rule="evenodd" d="M217.68115,174.67784v56.42993l13.01001-28.20996L217.68115,174.67784z
		 M219.72113,169.64781l13.15002,28.52002l13.15997-28.52002H219.72113z M235.06116,202.89781l13.01001,28.20996v-56.42993
		L235.06116,202.89781z M239.11115,91.71788v26.05994h10.25V91.71788H239.11115z M254.71112,91.71788v26.05994h10.25V91.71788
		H254.71112z M232.87115,207.62779l-13.15002,28.52002h26.31L232.87115,207.62779z M273.38116,202.89781l13.01996,28.20996
		v-56.42993L273.38116,202.89781z M258.04114,169.64781l13.16003,28.52002l13.14996-28.52002H258.04114z M256.00116,174.67784
		v56.42993l13.01996-28.20996L256.00116,174.67784z M271.20117,207.62779l-13.16003,28.52002h26.31L271.20117,207.62779z
		 M273.38116,202.89781l13.01996,28.20996v-56.42993L273.38116,202.89781z M271.20117,198.16783l13.14996-28.52002h-26.31
		L271.20117,198.16783z M258.04114,236.14781h26.31l-13.14996-28.52002L258.04114,236.14781z M256.00116,174.67784v56.42993
		l13.01996-28.20996L256.00116,174.67784z M264.96112,91.71788h-10.25v26.05994h10.25V91.71788z M239.11115,117.77782h10.25
		V91.71788h-10.25V117.77782z M248.07117,231.10777v-56.42993l-13.01001,28.21997L248.07117,231.10777z M246.03113,169.64781h-26.31
		l13.15002,28.52002L246.03113,169.64781z M219.72113,236.14781h26.31l-13.15997-28.52002L219.72113,236.14781z
		 M217.68115,174.67784v56.42993l13.01001-28.20996L217.68115,174.67784z M273.38116,202.89781l13.01996,28.20996v-56.42993
		L273.38116,202.89781z M271.20117,198.16783l13.14996-28.52002h-26.31L271.20117,198.16783z M258.04114,236.14781h26.31
		l-13.14996-28.52002L258.04114,236.14781z M256.00116,174.67784v56.42993l13.01996-28.20996L256.00116,174.67784z
		 M264.96112,91.71788h-10.25v26.05994h10.25V91.71788z M239.11115,117.77782h10.25V91.71788h-10.25V117.77782z
		 M248.07117,231.10777v-56.42993l-13.01001,28.21997L248.07117,231.10777z M246.03113,169.64781h-26.31l13.15002,28.52002
		L246.03113,169.64781z M219.72113,236.14781h26.31l-13.15997-28.52002L219.72113,236.14781z M217.68115,174.67784v56.42993
		l13.01001-28.20996L217.68115,174.67784z"/>
	<path fill-rule="evenodd" clip-rule="evenodd" d="M357.19116,243.92784v-91.66003h7.47998v-7.37l-39.06-70.1499l-73.57001-36.70007
		l-73.58002,36.70007l-39.06,70.1499c0,0-34.69001,11.54004-104.07001,34.60999c0,0,0,2.80005,0,8.39001c0,0,2.49005,0,7.48004,0
		c0,0,0,18.67004,0,56.03003h-42.81v8.09998h400v-8.09998H357.19116z M146.88116,243.92784H50.91113c0,0,0-18.67993,0-56.03003
		c0,0,31.98999,0,95.97004,0V243.92784z M294.33112,243.92784h-84.57996v-82.20996h84.57996V243.92784z"/>
	<path fill="#FFFFFF" d="M271.25876,82.26675l4.33545-7.5717c0.11533-0.21033,0.11533-0.46815-0.00681-0.67847
		c-0.11533-0.21032-0.33923-0.33923-0.58347-0.33923h-45.92561c-0.24423,0-0.46814,0.12891-0.59026,0.33923
		c-0.12212,0.21033-0.12212,0.46815,0,0.67847l4.32863,7.5717c-8.12808,6.06552-12.96553,15.67267-12.96553,25.80897
		c0,11.26257,6.01123,21.85355,15.69296,27.64764c0.10178,0.06104,0.22391,0.09499,0.34602,0.09499h32.29518
		c0.1221,0,0.24423-0.03395,0.35275-0.09499c9.67499-5.79408,15.69302-16.38506,15.69302-27.64764
		C284.23111,97.93263,279.39362,88.33228,271.25876,82.26675z M246.31148,86.83963c2.62567,0,4.75603,2.1304,4.75603,4.75612
		c0,2.6256-2.13036,4.75608-4.75603,4.75608c-2.62572,0-4.75609-2.13049-4.75609-4.75608
		C241.55539,88.97003,243.68576,86.83963,246.31148,86.83963z M234.56038,101.17565c0-2.1439,1.74367-3.88082,3.88081-3.88082
		c2.144,0,3.88087,1.73692,3.88087,3.88082c0,2.13728-1.73688,3.88091-3.88087,3.88091
		C236.30405,105.05656,234.56038,103.31293,234.56038,101.17565z M269.71188,122.0318
		c-0.11539,0.23753-0.35281,0.37319-0.60385,0.37319c-0.095,0-0.19675-0.02037-0.29175-0.06783
		c-1.79794-0.84809-4.0708-2.2457-5.28528-4.2879c-3.71121,3.18198-7.55135,4.78316-11.43221,4.78316
		c-0.46815,0-0.94308-0.02029-1.41798-0.06783c-7.63278-0.76668-12.57886-7.40884-12.78238-7.68711
		c-0.08821-0.11529-0.13571-0.25774-0.13571-0.40019v-0.12216c0-0.14933,0.0475-0.28499,0.13571-0.40707
		c0.20352-0.2782,5.1496-6.91365,12.78238-7.68711c4.36931-0.43415,8.69119,1.15337,12.85696,4.72212
		c1.32303-2.17786,3.81299-3.60263,5.2785-4.29469c0.16962-0.08141,0.36636-0.0882,0.54279-0.02029
		c0.17639,0.07454,0.3121,0.21029,0.37994,0.3867c0.06107,0.16283,1.46552,3.90799,0.03391,7.55137
		C270.30893,115.73566,271.50302,118.45634,269.71188,122.0318z"/>
	<path d="M269.77292,114.80617c1.43161-3.64338,0.02716-7.38854-0.03391-7.55137c-0.06784-0.17641-0.20355-0.31216-0.37994-0.3867
		c-0.17642-0.06791-0.37317-0.06112-0.54279,0.02029c-1.46552,0.69205-3.95547,2.11682-5.2785,4.29469
		c-4.16577-3.56876-8.48766-5.15627-12.85696-4.72212c-7.63278,0.77346-12.57886,7.40891-12.78238,7.68711
		c-0.08821,0.12208-0.13571,0.25774-0.13571,0.40707v0.12216c0,0.14245,0.0475,0.2849,0.13571,0.40019
		c0.20352,0.27827,5.1496,6.92043,12.78238,7.68711c0.4749,0.04754,0.94983,0.06783,1.41798,0.06783
		c3.88086,0,7.72099-1.60118,11.43221-4.78316c1.21448,2.0422,3.48734,3.4398,5.28528,4.2879
		c0.095,0.04745,0.19675,0.06783,0.29175,0.06783c0.25104,0,0.48846-0.13566,0.60385-0.37319
		C271.50302,118.45634,270.30893,115.73566,269.77292,114.80617z M248.29259,116.5363c-1.09232,0-1.98111-0.88884-1.98111-1.98116
		s0.88879-1.98116,1.98111-1.98116c1.09233,0,1.97433,0.88884,1.97433,1.98116S249.38492,116.5363,248.29259,116.5363z
		 M264.35873,112.52652c-0.0271,0.06783-0.06781,0.13566-0.11533,0.18991c-0.02036,0.02037-0.03394,0.03395-0.05429,0.04754
		C264.26376,112.70284,264.31802,112.62151,264.35873,112.52652z"/>
	<g>
		
			<ellipse transform="matrix(0.97325 -0.22975 0.22975 0.97325 -14.45534 59.04129)" cx="246.31146" cy="91.59574" rx="4.75607" ry="4.75609"/>
	</g>
	<g>
		<path d="M242.32207,101.17565c0,2.13728-1.73688,3.88091-3.88087,3.88091c-2.13715,0-3.88081-1.74363-3.88081-3.88091
			c0-2.1439,1.74367-3.88082,3.88081-3.88082C240.58519,97.29483,242.32207,99.03175,242.32207,101.17565z"/>
	</g>
	<g>
		<path fill="#787878" d="M264.35873,112.52652c-0.0271,0.06783-0.06781,0.13566-0.11533,0.18991
			c-0.02036,0.02037-0.03394,0.03395-0.05429,0.04754C264.26376,112.70284,264.31802,112.62151,264.35873,112.52652z"/>
	</g>
	<g>
		<path fill="#FFFFFF" d="M250.26692,114.55514c0,1.09232-0.882,1.98116-1.97433,1.98116
			c-1.09232,0-1.98111-0.88884-1.98111-1.98116s0.88879-1.98116,1.98111-1.98116
			C249.38492,112.57397,250.26692,113.46281,250.26692,114.55514z"/>
	</g>
</g>
</svg>
