<svg xmlns="http://www.w3.org/2000/svg" viewBox="0 0 158.92173 158.92219">
  <title>icon</title>
  <g id="logo">
    <g>
      <rect x="12.63927" y="12.63951" width="133.64318" height="133.64318" transform="translate(-0.00023 158.92196) rotate(-90)" fill="#5dbd45"/>
      <g>
        <path d="M67.19384,60.16835C56.74772,43.73926,35.91638,36.82314,18.014,44.47424,10.83642,47.54175,4.98179,52.43287,2.325,59.47739.2186,65.11824,8.68352,79.07754,17.21618,79.64876,8.68352,80.22.2186,94.17928,2.325,99.82012c2.47412,6.56016,7.72144,11.25286,14.22779,14.34444,18.1646,8.63116,39.95406,1.76648,50.66662-15.25383L79.46086,79.46126Z" fill="#eb6331"/>
        <path d="M6.52336,106.39876s5.20313-20.39063,20.10938-23.90625a25.80806,25.80806,0,0,0-18.28125,1.125L1.88274,97.53938Z" fill="#fff"/>
        <path d="M8.77336,74.61751s27.28125-30.09375,43.3125-22.78125c0,0-10.125-19.40625-37.40625-5.90625,0,0-15.75,7.59375-11.53125,20.8125Z" fill="#fff"/>
        <path d="M33.15911,119.90852a40.602,40.602,0,0,1-17.46485-3.9375C8.1884,112.40364,2.91887,107.06282.454,100.52571c-1.42188-3.80664.74023-9.294,3.2373-13.16113a24.572,24.572,0,0,1,7.56348-7.71582,24.5721,24.5721,0,0,1-7.56348-7.71582C1.19426,68.06575-.96785,62.57844.4511,58.77864c2.63965-7.001,8.44043-12.58105,16.77637-16.14355,18.76562-8.01954,40.49121-1.09766,51.65429,16.46L81.82708,79.4554,68.912,99.97591A42.36622,42.36622,0,0,1,33.15911,119.90852Zm.20215-76.58691a36.98348,36.98348,0,0,0-14.56153,2.99121c-7.31054,3.125-12.36035,7.9209-14.60351,13.87109-.58594,1.57032.05566,5.24219,2.85547,9.58008,2.99707,4.6416,6.94238,7.665,10.29785,7.88965v3.99023c-3.35547.22461-7.30078,3.248-10.29785,7.88965-2.79981,4.33789-3.44141,8.00977-2.85254,9.58692,2.12011,5.623,6.5664,10.0791,13.21191,13.2373,17.10547,8.12891,37.792,1.88965,48.11621-14.51269L77.09465,79.46712,65.50676,61.24153A38.17361,38.17361,0,0,0,33.36126,43.32161Z" fill="#451a14"/>
        <path d="M16.83586,100.305c3.92457.33691,7.55744.53674,11.14618.48742a61.43421,61.43421,0,0,0,10.47113-.91784,58.86779,58.86779,0,0,0,10.14508-2.62232c1.73456-.48633,3.34443-1.28,5.10523-1.90466,1.74261-.6626,3.39056-1.53894,5.31988-2.1676-.52429.83008-1.11419,1.61194-1.72271,2.39135a16.3214,16.3214,0,0,1-1.958,2.22742,27.47725,27.47725,0,0,1-4.672,3.69177,29.37251,29.37251,0,0,1-11.22491,4.29956c-1.00464.12012-1.99976.33606-3.01068.37-1.01123.02576-2.01966.07825-3.02649.07471-1.00653-.073-2.01038-.13587-3.00714-.24475-.9953-.12085-1.97882-.33887-2.95618-.52674A24.11888,24.11888,0,0,1,16.83586,100.305Z" fill="#451a14"/>
        <path d="M91.72789,98.75417c10.44612,16.42908,31.27746,23.3452,49.17989,15.69411,7.17753-3.06752,13.03216-7.95863,15.689-15.00316,2.10639-5.64085-6.35853-19.60014-14.89119-20.17137,8.53266-.57122,16.99758-14.53052,14.89119-20.17136C154.12262,52.54224,148.8753,47.84954,142.369,44.758c-18.1646-8.63117-39.95407-1.76649-50.66662,15.25382L79.46086,79.46126Z" fill="#eb6331"/>
        <path d="M125.55266,119.60481A42.15283,42.15283,0,0,1,90.04,99.82747L77.09465,79.46712l12.915-20.52051C101.412,40.8304,124.29,33.9554,143.22747,42.95149c7.50586,3.56738,12.77539,8.9082,15.24023,15.44531,1.42188,3.80664-.74023,9.29395-3.2373,13.16114a24.5721,24.5721,0,0,1-7.56348,7.71582,24.572,24.572,0,0,1,7.56348,7.71582c2.49707,3.86718,4.65918,9.35449,3.24023,13.15429-2.63965,7.001-8.44043,12.58106-16.77637,16.14356A41.00441,41.00441,0,0,1,125.55266,119.60481ZM93.415,97.681c10.10839,15.89551,29.75293,22.17286,46.707,14.92871,7.31054-3.125,12.36035-7.92089,14.60351-13.87109.58594-1.57031-.05566-5.24219-2.85547-9.58008-2.99707-4.6416-6.94238-7.665-10.29785-7.88965V77.27864c3.35547-.22461,7.30078-3.248,10.29785-7.88965,2.79981-4.33789,3.44141-8.00976,2.85254-9.58691-2.12011-5.623-6.5664-10.0791-13.21191-13.23731-17.10449-8.12793-37.792-1.88965-48.11621,14.5127L81.82708,79.4554Z" fill="#451a14"/>
        <g>
          <path d="M98.75378,67.19423c16.42908-10.44612,23.3452-31.27746,15.69411-49.17989-3.06752-7.17753-7.95864-13.03216-15.00316-15.68895C93.80388.219,79.84459,8.68391,79.27336,17.21657,78.70214,8.68391,64.74284.219,59.102,2.32539,52.54184,4.7995,47.84915,10.04682,44.75756,16.55317,36.1264,34.71778,42.99108,56.50724,60.01139,67.21979L79.46086,79.46126Z" fill="#fff"/>
          <path d="M79.46672,81.82747l-20.5205-12.915C40.83,57.51009,33.954,34.63118,42.9511,15.69466,46.51848,8.1888,51.8593,2.91926,58.39641.45442c3.8086-1.42285,9.29395.74024,13.16113,3.23731a24.57175,24.57175,0,0,1,7.71582,7.56347,24.5719,24.5719,0,0,1,7.71583-7.56347C90.8554,1.19466,96.34563-.96843,100.14348.45149c7.001,2.63965,12.58106,8.44043,16.14356,16.77637,8.01953,18.7666,1.09765,40.49023-16.46,51.6543ZM61.13762,3.99934a3.86249,3.86249,0,0,0-1.33593.2002c-5.623,2.12012-10.07911,6.5664-13.23731,13.21191-8.12793,17.10742-1.88965,37.792,14.5127,48.11621L79.455,77.09505,97.68059,65.50716c15.89649-10.10743,22.17481-29.751,14.92871-46.707-3.125-7.31054-7.9209-12.36035-13.87109-14.60351-1.56934-.58594-5.24121.05566-9.58008,2.85547-4.6416,2.99707-7.665,6.94238-7.88965,10.29785H77.27825c-.22461-3.35547-3.24805-7.30078-7.88965-10.29785C66.00872,4.87044,63.03313,3.99934,61.13762,3.99934Z" fill="#451a14"/>
        </g>
        <path d="M98.75378,67.19423c16.42908-10.44612,23.3452-31.27746,15.69411-49.17989-3.06752-7.17753-7.95864-13.03216-15.00316-15.68895C93.80388.219,79.84459,8.68391,79.27336,17.21657,78.70214,8.68391,64.74284.219,59.102,2.32539,52.54184,4.7995,47.84915,10.04682,44.75756,16.55317,36.1264,34.71778,42.99108,56.50724,60.01139,67.21979L79.46086,79.46126Z" fill="#eb6331"/>
        <path d="M80.49211,14.57063S83.39836,26.24251,83.77336,27.18s7.6875-24.1875,21-22.5C104.77336,4.68,93.05461-7.36687,80.49211,14.57063Z" fill="#fff"/>
        <path d="M55.46086,59.43s-20.25-38.25,16.3125-51.46875c0,0-8.4375-8.71875-15.46875-4.78125s-25.875,27.84375-4.5,57.9375" fill="#fff"/>
        <path d="M79.46672,81.82747l-20.5205-12.915C40.83,57.51009,33.954,34.63118,42.9511,15.69466,46.51848,8.1888,51.8593,2.91926,58.39641.45442c3.8086-1.42285,9.29395.74024,13.16113,3.23731a24.57175,24.57175,0,0,1,7.71582,7.56347,24.5719,24.5719,0,0,1,7.71583-7.56347C90.8554,1.19466,96.34563-.96843,100.14348.45149c7.001,2.63965,12.58106,8.44043,16.14356,16.77637,8.01953,18.7666,1.09765,40.49023-16.46,51.6543ZM61.13762,3.99934a3.86249,3.86249,0,0,0-1.33593.2002c-5.623,2.12012-10.07911,6.5664-13.23731,13.21191-8.12793,17.10742-1.88965,37.792,14.5127,48.11621L79.455,77.09505,97.68059,65.50716c15.89649-10.10743,22.17481-29.751,14.92871-46.707-3.125-7.31054-7.9209-12.36035-13.87109-14.60351-1.56934-.58594-5.24121.05566-9.58008,2.85547-4.6416,2.99707-7.665,6.94238-7.88965,10.29785H77.27825c-.22461-3.35547-3.24805-7.30078-7.88965-10.29785C66.00872,4.87044,63.03313,3.99934,61.13762,3.99934Z" fill="#451a14"/>
        <path d="M60.168,91.72828c-16.42908,10.44612-23.3452,31.27747-15.69411,49.17989,3.06752,7.17753,7.95864,13.03217,15.00316,15.689,5.64085,2.10639,19.60014-6.35853,20.17137-14.89119.57122,8.53266,14.53052,16.99758,20.17136,14.89119,6.56016-2.47412,11.25285-7.72144,14.34444-14.22779,8.63116-18.1646,1.76648-39.95406-15.25383-50.66662L79.46086,79.46126Z" fill="#eb6331"/>
        <path d="M68.21086,106.305s-23.4375,16.875-15,47.625c0,0-25.3125-26.8125,1.125-58.125" fill="#fff"/>
        <path d="M61.497,158.92219a7.74466,7.74466,0,0,1-2.71875-.45117c-7.001-2.63965-12.58106-8.44043-16.14356-16.77636-8.01953-18.76661-1.09765-40.49024,16.46-51.6543L79.455,77.09505l20.5205,12.915c18.11621,11.40234,24.99219,34.28125,15.99512,53.21777-3.56738,7.50586-8.9082,12.77539-15.44531,15.24023-3.80957,1.42383-9.29395-.74023-13.16113-3.2373a24.57192,24.57192,0,0,1-7.71583-7.56348,24.57178,24.57178,0,0,1-7.71582,7.56348C68.91692,157.17805,64.915,158.92219,61.497,158.92219Zm-.25586-65.50683c-15.89649,10.10742-22.17481,29.751-14.92871,46.707,3.125,7.31055,7.9209,12.36035,13.87109,14.60352,1.56738.584,5.24121-.05567,9.58008-2.85547,4.6416-2.99707,7.665-6.94239,7.88965-10.29785h3.99023c.22461,3.35546,3.24805,7.30078,7.88965,10.29785C93.871,154.67024,97.54,155.31477,99.12,154.723c5.623-2.12012,10.07911-6.56641,13.23731-13.21192,8.12793-17.10742,1.88965-37.792-14.5127-48.11621L79.46672,81.82747Z" fill="#451a14"/>
        <path d="M49.64836,38.99251c1.07917,3.348,1.998,6.45532,3.0387,9.43274a51.3816,51.3816,0,0,0,3.62518,8.29089,27.19673,27.19673,0,0,0,2.39966,3.56848c.42121.58289.92829,1.07666,1.39173,1.63428.5191.48913,1.009,1.03345,1.5744,1.4989a38.95137,38.95137,0,0,0,8.03283,5.19971,15.74931,15.74931,0,0,1-10.58593-1.23242,18.70734,18.70734,0,0,1-8.02838-7.70667,24.66093,24.66093,0,0,1-3.023-10.34717A22.60829,22.60829,0,0,1,49.64836,38.99251Z" fill="#451a14"/>
        <path d="M68.39836,107.805l44.25,38.25s7.5-17.8125,4.6875-29.53125L96.14836,105.93Z" fill="#451a14"/>
        <path d="M56.86711,90.64876a135.21791,135.21791,0,0,1,11.19794,11.61877q5.25587,6.06758,10.06445,12.47193,4.82118,6.39477,9.20661,13.11767a133.559,133.559,0,0,1,8.06225,13.97913A133.561,133.561,0,0,1,84.195,130.22163q-5.25541-6.06812-10.059-12.47607-4.813-6.401-9.20117-13.12183A135.22,135.22,0,0,1,56.86711,90.64876Z" fill="#451a14"/>
        <path d="M79.52336,32.49251a75.59623,75.59623,0,0,1,5.099,18.48437,119.98373,119.98373,0,0,1,1.4,18.48425,118.62009,118.62009,0,0,1-1.38147,18.48438,74.83842,74.83842,0,0,1-5.11756,18.48437,74.84144,74.84144,0,0,1-5.11755-18.48437,118.62741,118.62741,0,0,1-1.38147-18.48438,119.99122,119.99122,0,0,1,1.4-18.48425A75.59932,75.59932,0,0,1,79.52336,32.49251Z" fill="#451a14"/>
        <path d="M136.49218,79.46126a167.40081,167.40081,0,0,1-28.48438,5.09338,284.06118,284.06118,0,0,1-28.48444,1.40564,280.10626,280.10626,0,0,1-28.48443-1.38806,165.5099,165.5099,0,0,1-28.48438-5.111,165.5099,165.5099,0,0,1,28.48438-5.111,280.10916,280.10916,0,0,1,28.48443-1.38807,284.06414,284.06414,0,0,1,28.48444,1.40564A167.39986,167.39986,0,0,1,136.49218,79.46126Z" fill="#451a14"/>
        <circle cx="86.49211" cy="81.555" r="29.71875" fill="#451a14"/>
        <path d="M107.96086,90.93s19.21875,19.40625,47.90625,7.59375c0,0-10.40625,27-38.53125,18,0,0-8.57447-16.24147-13.5-20.53125Z" fill="#451a14"/>
        <path d="M111.14836,87.83626s7.875-21.9375,6.5625-44.53125l-13.5,19.875Z" fill="#451a14"/>
        <circle cx="79.46086" cy="79.46126" r="29.0625" fill="#f9cd53"/>
        <path d="M51.52336,81.64876l50-21.40115S83.58586,44.805,63.05461,55.77376C63.05461,55.77376,52.37609,61.807,51.52336,81.64876Z" fill="#fff"/>
        <path d="M58.3651,78.64558c2.05249-13.344,10.16534-23.93237,20.30115-28.2268A29.05479,29.05479,0,0,0,62.216,102.85225,38.83034,38.83034,0,0,1,58.3651,78.64558Z" fill="#fff"/>
        <path d="M79.46086,110.52376a31.0625,31.0625,0,1,1,31.0625-31.0625A31.09767,31.09767,0,0,1,79.46086,110.52376Zm0-58.125a27.0625,27.0625,0,1,0,27.0625,27.0625A27.09371,27.09371,0,0,0,79.46086,52.39876Z" fill="#451a14"/>
        <path d="M93.52336,110.055s19.5,6.75,23.625,17.25c0,0,.5625-17.8125-11.0625-28.6875Z" fill="#451a14"/>
        <path d="M5.39836,102.74251s31.78125,13.78125,45.28125-4.5l-8.4375,19.125S16.92961,123.83626,5.39836,102.74251Z" fill="#451a14"/>
        <path d="M83.704,99.15462A21.57937,21.57937,0,0,1,62.14836,77.59993,17.66418,17.66418,0,0,1,79.7929,59.9554,14.53211,14.53211,0,0,1,94.30852,74.471,12.02583,12.02583,0,0,1,82.29583,86.48274v-4A8.02125,8.02125,0,0,0,90.30852,74.471,10.52815,10.52815,0,0,0,79.7929,63.9554,13.66022,13.66022,0,0,0,66.14836,77.59993,17.57478,17.57478,0,0,0,83.704,95.15462a22.46959,22.46959,0,0,0,22.44433-22.44434h4A26.4748,26.4748,0,0,1,83.704,99.15462Z" fill="#451a14"/>
        <polygon points="112.836 79.68 140.773 105.93 109.461 99.649 112.836 79.68" fill="#451a14"/>
      </g>
      <g>
        <ellipse cx="19.05619" cy="18.84329" rx="9.34376" ry="15.91968" transform="translate(-7.74279 18.99383) rotate(-45)" fill="#451a14"/>
        <ellipse cx="18.84306" cy="139.86578" rx="15.91968" ry="9.34376" transform="translate(-93.38103 54.28979) rotate(-45)" fill="#451a14"/>
        <ellipse cx="139.86554" cy="140.07891" rx="9.34376" ry="15.91968" transform="translate(-58.08508 139.92804) rotate(-45)" fill="#451a14"/>
        <ellipse cx="140.07867" cy="19.05642" rx="15.91968" ry="9.34376" transform="translate(27.55317 104.63208) rotate(-45)" fill="#451a14"/>
      </g>
    </g>
  </g>
</svg>
