<svg id="icon" xmlns="http://www.w3.org/2000/svg" viewBox="0 0 349.7402 349.7403">
  <title>icon</title>
  <g>
    <path d="M334.7099,236.8003l-27.4101-3.79,18.0801,23.8799a171.64878,171.64878,0,0,1-172.8204,87.9101l44.6309-52.1601-32.6602,4.5097,49.5899-65.4697-35.7598,4.94,28.0899-37.0899,29.5293-39-37.3096,5.1499L260.2002,84.42,322.75,167.0103l-37.3194-5.1504,43.5801,57.54,8.1289,10.73Q335.98535,233.5049,334.7099,236.8003Z" fill="none" stroke="#231f20" stroke-miterlimit="10" stroke-width="7"/>
    <path d="M334.7099,236.8003a171.46391,171.46391,0,0,1-9.33,20.0899l-18.0801-23.8799Z" fill="none" stroke="#231f20" stroke-miterlimit="10" stroke-width="7"/>
    <path d="M346.2402,174.8702a171.20285,171.20285,0,0,1-9.1006,55.2597l-51.709-68.27,37.3194,5.1504L260.2002,84.42l-61.5303,81.2602,37.3096-5.1499-57.6192,76.0899,35.7598-4.94-49.5899,65.4697,32.6602-4.5097-44.6309,52.1601A171.3788,171.3788,0,1,1,346.2402,174.8702Z" fill="none" stroke="#231f20" stroke-miterlimit="10" stroke-width="7"/>
    <path d="M7.5302,223.5801S58.33,198.6602,170.83,198.6602q18.8394,0,35.6202.8701" fill="none" stroke="#231f20" stroke-miterlimit="10" stroke-width="7"/>
    <polyline points="4.351 188.58 41.88 124.2 62.351 89.08 80.95 122.99 110.351 176.58 121.25 156.53 135.351 130.58 148.07 157.83 166.851 198.08" fill="none" stroke="#231f20" stroke-miterlimit="10" stroke-width="7"/>
    <path d="M80.9502,122.9903a32.74576,32.74576,0,0,1-39.0703,1.2099L62.3506,89.0801Z" fill="none" stroke="#231f20" stroke-miterlimit="10" stroke-width="7"/>
    <path d="M148.0703,157.8301a32.89367,32.89367,0,0,1-26.8203-1.2998l14.1006-25.9502Z" fill="none" stroke="#231f20" stroke-miterlimit="10" stroke-width="7"/>
  </g>
</svg>
