<?xml version="1.0" encoding="utf-8"?>
<!-- Generator: Adobe Illustrator 24.2.1, SVG Export Plug-In . SVG Version: 6.00 Build 0)  -->
<svg version="1.1" id="Layer_1" xmlns="http://www.w3.org/2000/svg" xmlns:xlink="http://www.w3.org/1999/xlink" x="0px" y="0px"
	 viewBox="0 0 400 400" enable-background="new 0 0 400 400" xml:space="preserve">
<g>
	<g>
		<g>
			<path fill="#010101" d="M138.81465,123.98733c-0.53221-0.12748-0.65114-0.82823-0.16631-1.0817
				c3.94676-2.06304,15.75659-7.03501,23.79469,2.2721c2.39977,2.77866,2.32581,6.26124,5.11525,9.53606
				c2.90503,3.4101,7.13611,3.59964,7.13611,3.59964s-1.1367,5.74667-9.97795,6.12558s-11.49355-9.327-13.32487-11.73642
				C149.65485,130.41785,147.63435,126.09757,138.81465,123.98733z"/>
		</g>
		<g>
			<path fill="#010101" d="M174.6944,108.88465c-3.69646-5.59486-4.78522-10.79466-5.07883-12.72354
				c-0.04999-0.32854-0.464-0.45973-0.70651-0.23247c-9.37476,8.7803-10.70137,17.47921-10.15727,23.28666
				c2.04167,1.04137,3.89548,2.48692,5.5276,4.37677c1.43271,1.65924,2.11061,3.41902,2.77086,5.11971
				c0.60374,1.56744,1.17813,3.04755,2.3533,4.42862c2.15205,2.52501,5.38469,2.75005,5.41721,2.75153l0,0
				c2.46648,0.14885,4.95581-0.61658,6.74161-2.32413c1.41971-1.35747,2.63817-3.31645,2.47855-5.9903
				C183.53564,119.11514,179.36775,115.95758,174.6944,108.88465z"/>
		</g>
		<g>
			<path fill="#010101" d="M158.79861,105.52064c-4.26193-0.84811-8.06523-0.13751-9.44556,0.18954
				c-0.35567,0.08418-0.64687,0.32817-0.8037,0.65857c-1.98184,4.17329-2.28474,8.17506-2.04576,11.28301
				c1.27531-0.22132,2.61401-0.35604,3.98709-0.35604c2.0452,0,3.96553,0.29286,5.75858,0.86707
				C156.08965,114.60606,156.62743,110.23486,158.79861,105.52064z"/>
		</g>
		<g>
			<path fill="#010101" d="M199.73988,151.7747c-0.71013,3.52643-1.64073,9.8936-1.05301,16.99541
				c0.01225,0.09798,0.01225,0.1837,0.02451,0.26942h-5.80389c-0.02451-0.08572-0.04903-0.1837-0.08571-0.26942
				c-0.11024-0.37958-0.23265-0.75916-0.35515-1.13873c1.56734-5.52229,3.64893-10.99556,6.4529-16.15053
				C199.15216,151.05232,199.83786,151.28497,199.73988,151.7747z"/>
			<path fill="#010101" d="M203.46227,212.29938h-3.58763c-0.74698-16.76276-3.14685-30.15826-6.2325-40.81094h5.33859
				c0.34288,2.4489,0.86938,4.94676,1.67749,7.42018c0.50208,1.55501,1.54282,4.37123,2.48567,7.70178
				c0.91835,3.23256,1.73871,6.94261,1.89789,10.40784C205.21323,200.70384,204.73567,206.64241,203.46227,212.29938z"/>
		</g>
		<g>
			<path fill="#010101" d="M190.33609,169.03954h-3.257c-0.02452-0.08572-0.0612-0.17145-0.08572-0.26942
				c-3.57538-10.72621-7.72629-17.96269-10.99556-22.50543c-0.71021-1.00407-1.38364-1.87338-1.99586-2.62035
				c0.90608-0.7836,1.55501-1.62848,2.02031-2.37544c1.10204,1.28574,2.37544,2.93871,3.75908,4.99579
				c3.29378,4.93457,7.17526,12.22,10.46906,22.50543C190.28714,168.85583,190.31166,168.94156,190.33609,169.03954z"/>
			<path fill="#010101" d="M197.4379,212.29938h-3.03661c-0.79585-17.01984-3.36725-30.42761-6.53854-40.81094h3.2325
				C194.20541,182.00644,196.66656,195.4142,197.4379,212.29938z"/>
		</g>
		<g>
			<path fill="#010101" d="M191.96808,212.30098c-0.47887-9.85327-1.56206-18.45703-3.00612-25.95271
				c-1.05846,10.3353-0.74348,19.64929-0.24715,25.95271H191.96808z"/>
		</g>
	</g>
	<g>
		<g>
			<path fill="#010101" d="M267.47226,123.98733c0.53223-0.12748,0.65115-0.82823,0.16632-1.0817
				c-3.94678-2.06304-15.75659-7.03501-23.79471,2.2721c-2.39977,2.77866-2.32581,6.26124-5.11525,9.53606
				c-2.90501,3.4101-7.13611,3.59964-7.13611,3.59964s1.1367,5.74667,9.97795,6.12558
				c8.84126,0.37891,11.49356-9.327,13.32487-11.73642C256.63208,130.41785,258.65256,126.09757,267.47226,123.98733z"/>
		</g>
		<g>
			<path fill="#010101" d="M231.59251,108.88465c3.69647-5.59486,4.78522-10.79466,5.07883-12.72354
				c0.04999-0.32854,0.464-0.45973,0.70651-0.23247c9.37476,8.7803,10.70137,17.47921,10.15727,23.28666
				c-2.04167,1.04137-3.89548,2.48692-5.52759,4.37677c-1.43272,1.65924-2.11063,3.41902-2.77086,5.11971
				c-0.60374,1.56744-1.17815,3.04755-2.3533,4.42862c-2.15207,2.52501-5.3847,2.75005-5.41722,2.75153l0,0
				c-2.46648,0.14885-4.95581-0.61658-6.74159-2.32413c-1.41972-1.35747-2.63818-3.31645-2.47856-5.9903
				C222.75127,119.11514,226.91917,115.95758,231.59251,108.88465z"/>
		</g>
		<g>
			<path fill="#010101" d="M247.4883,105.52064c4.26193-0.84811,8.06525-0.13751,9.44557,0.18954
				c0.35565,0.08418,0.64685,0.32817,0.80368,0.65857c1.98184,4.17329,2.28476,8.17506,2.04578,11.28301
				c-1.27533-0.22132-2.61401-0.35604-3.98709-0.35604c-2.04521,0-3.96555,0.29286-5.75858,0.86707
				C250.19728,114.60606,249.6595,110.23486,247.4883,105.52064z"/>
		</g>
		<g>
			<path fill="#010101" d="M212.64566,171.48843c-0.06122,0.2204-0.1225,0.42853-0.1837,0.64893
				c-0.45305,1.60402-0.89383,3.257-1.31018,4.98352c-2.35092,9.63644-4.11414,21.24422-4.73862,35.1785h-3.58763
				c-1.27341-5.65697-1.75096-11.59554-1.57953-15.28114c0.15919-3.46523,0.97955-7.17528,1.89789-10.40784
				c0.94286-3.33055,1.97136-6.14677,2.4856-7.70178c0.79593-2.47342,1.33469-4.97128,1.66531-7.42018H212.64566z"/>
			<path fill="#010101" d="M213.82108,167.63138c-0.12241,0.37958-0.24483,0.75916-0.35506,1.13873
				c-0.03677,0.08572-0.0612,0.1837-0.08572,0.26942h-5.80389c0-0.08572,0.01227-0.17145,0.02452-0.26942
				c0.02443-0.2816,0.0367-0.56328,0.0612-0.84488c0.44078-6.759-0.44078-12.75877-1.11429-16.15053
				c-0.02444-0.09798-0.01219-0.17143,0.02451-0.2449c0.12242-0.30611,0.61223-0.39183,0.79593-0.04895
				c1.64072,3.01218,3.02435,6.12227,4.19986,9.29362l0.01225,0.01218c0.7469,1.99586,1.40808,4.01625,1.99586,6.03654
				c0.01219,0,0.01219,0.01225,0.01219,0.01225C213.67415,167.10487,213.74762,167.36195,213.82108,167.63138z"/>
		</g>
		<g>
			<path fill="#010101" d="M218.42503,171.48843c-0.2816,0.91833-0.55101,1.87337-0.82036,2.84067
				c-0.56328,1.9836-1.08978,4.07744-1.59178,6.26918c-0.36731,1.59186-0.71019,3.23257-1.04082,4.93459
				c-1.4938,7.71404-2.60809,16.59131-3.08557,26.76651h-3.0367c0.56328-12.22002,2.00812-22.6156,3.94278-31.41942
				c0.36732-1.71426,0.77141-3.36723,1.17543-4.95901c0.39183-1.53056,0.80817-3.01218,1.22444-4.43251H218.42503z"/>
			<path fill="#010101" d="M232.28584,143.64433c-0.61223,0.74696-1.28566,1.61627-1.99586,2.62035
				c-3.26926,4.54274-7.42018,11.77922-10.99556,22.50543c-0.02451,0.09798-0.0612,0.1837-0.08571,0.26942h-3.25702
				c0.02444-0.09798,0.04895-0.1837,0.08565-0.26942c0.15918-0.51425,0.31837-1.00406,0.48981-1.49379
				c3.18355-9.50177,6.84473-16.32198,9.97932-21.01164c1.38364-2.05708,2.65704-3.71005,3.759-4.99579
				C230.73076,142.01585,231.37976,142.86073,232.28584,143.64433z"/>
		</g>
		<g>
			<path fill="#010101" d="M214.31883,212.30098c0.47888-9.85327,1.56206-18.45703,3.00612-25.95271
				c1.05847,10.3353,0.74348,19.64929,0.24715,25.95271H214.31883z"/>
		</g>
	</g>
	<g>
		<g>
			<path fill="#010101" d="M223.32938,97.8465c0.36603-0.40685,0.06651-1.05143-0.47655-0.9852
				c-4.42064,0.53946-16.96712,3.143-18.30832,15.36736c-0.40039,3.64959,1.63579,6.47585,1.19588,10.75509
				c-0.45837,4.45621-3.83554,7.01214-3.83554,7.01214s4.19563,4.08818,11.69209-0.61443
				c7.49644-4.70259,4.17578-14.20061,4.31743-17.22369C218.04886,109.29103,217.2625,104.5869,223.32938,97.8465z"/>
		</g>
		<g>
			<path fill="#010101" d="M185.2132,105.75869c-0.12898-6.70445-2.18156-11.60448-3.03378-13.3596
				c-0.14519-0.29893,0.1214-0.64182,0.45001-0.59219c12.70103,1.9141,18.72754,8.32597,21.57333,13.41753
				c-1.09085,2.01568-1.79771,4.25767-2.07001,6.73985c-0.23886,2.17915,0.20096,4.01298,0.6218,5.78812
				c0.39178,1.63337,0.75822,3.17815,0.5737,4.98212c-0.34026,3.30019-2.87497,5.31904-2.90091,5.33871l0,0
				c-1.94695,1.52155-4.43126,2.30307-6.87053,1.90964c-1.93919-0.31274-4.05382-1.23505-5.43893-3.52774
				C183.73425,119.19905,185.37596,114.23454,185.2132,105.75869z"/>
		</g>
		<g>
			<path fill="#010101" d="M196.39674,93.97222c3.02902-3.11581,6.56444-4.68776,7.88675-5.2013
				c0.34067-0.13241,0.71889-0.09662,1.03545,0.08654c3.99927,2.313,6.51849,5.437,8.08446,8.13222
				c-1.17587,0.54108-2.35481,1.18941-3.48566,1.9682c-1.68442,1.16002-3.09987,2.4904-4.2509,3.9803
				C203.78098,99.91837,200.85876,96.62333,196.39674,93.97222z"/>
		</g>
		<g>
			<path fill="#010101" d="M211.31097,169.03954h-3.25702c-0.04903-0.09798-0.07346-0.1837-0.09798-0.26942
				c-0.11023-0.2816-0.20813-0.56328-0.29385-0.84488c-2.90195-8.54665-4.35904-15.79546-4.99579-21.66055
				c-0.62448-5.64471-0.50198-10.02827-0.18362-13.0894c0.80811,0.36731,1.82443,0.68568,3.02437,0.82036
				c-0.2449,2.90202-0.31837,7.00391,0.29385,12.26904c0.1837,1.64079,0.4286,3.39175,0.77141,5.26512
				c0.88165,4.97127,2.33875,10.72621,4.64066,17.24031C211.2375,168.85583,211.27428,168.95381,211.31097,169.03954z"/>
			<path fill="#010101" d="M227.63293,202.11192l-2.49785,1.71426c-2.79179-4.48146-5.25294-8.7793-7.42026-12.89352v-0.01218
				c-0.3183-0.57553-0.6244-1.15099-0.91833-1.71426v-0.01225c-0.63667-1.23671-1.24889-2.46117-1.82442-3.6611
				c-0.7836-1.59177-1.50606-3.1346-2.17949-4.65291c-0.58778-1.27347-1.12648-2.52237-1.64081-3.75908
				c-0.80811-1.93465-1.55499-3.80803-2.21625-5.63245h3.26927c0.08571,0.20813,0.15918,0.42853,0.25716,0.64893
				c0.4653,1.23671,0.96729,2.49785,1.50606,3.78358c0.63673,1.53056,1.31017,3.08557,2.04488,4.67734
				C219.01282,187.18585,222.82085,194.36119,227.63293,202.11192z"/>
		</g>
	</g>
	<g>
		<path fill="#010101" d="M217.77611,169.03954h-3.06113c-0.04903-0.09798-0.09798-0.1837-0.13475-0.26942
			c-0.3428-0.64893-0.67343-1.29791-0.99179-1.93466c0,0,0-0.01225-0.01219-0.01225
			c-1.48161-2.92638-2.80405-5.73042-3.99173-8.43642c0.6857,0.79585,1.33463,1.59177,1.98361,2.3877l0.01225,0.01218
			c1.78766,2.20409,3.44072,4.38356,4.94676,6.48967c0.36732,0.50198,0.72246,1.00398,1.06528,1.49379
			C217.65363,168.85583,217.71483,168.95381,217.77611,169.03954z"/>
		<path fill="#010101" d="M224.5106,179.61874l-2.68155,1.84894c-1.50613-2.43666-2.91422-4.81209-4.22438-7.13858
			c-0.55103-0.95503-1.07753-1.89789-1.57951-2.84067h3.42845C221.47391,174.5128,223.16367,177.29233,224.5106,179.61874z"/>
	</g>
	<g>
		<rect x="16.37615" y="146.261" width="367.24771" height="22.51322"/>
	</g>
	<g>
		<rect x="28.7696" y="288.79095" width="344.86703" height="22.51762"/>
	</g>
	<g>
		<polygon points="357.41263,288.79095 357.29022,290.38272 44.3079,290.38272 44.19774,288.79095 		"/>
		<polygon points="366.58377,171.48843 357.62076,286.10941 44.00179,286.10941 35.8102,171.48843 		"/>
		<polygon points="366.7919,168.77011 366.76746,169.03954 35.63883,169.03954 35.61432,168.77011 		"/>
	</g>
	<g>
		<line fill="none" x1="44.17324" y1="288.55829" x2="44.00182" y2="286.10938"/>
	</g>
</g>
</svg>
