<svg id="icon" xmlns="http://www.w3.org/2000/svg" viewBox="0 0 360 360.00002">
  <title>icon</title>
  <path d="M179.9804,355.6636c-97.3115,0-176.48-79.16838-176.48-176.48,0-97.3169,79.1685-176.4902,176.48-176.4902a176.48515,176.48515,0,1,1,0,352.9702Zm0-345.9702c-93.4516,0-169.48,76.0332-169.48,169.4902,0,93.45172,76.0284,169.48,169.48,169.48a169.48516,169.48516,0,1,0,0-338.9702Zm55.0005,317.9302a3.49983,3.49983,0,0,1-3.5005-3.5V271.31352a3.50061,3.50061,0,0,1,1.8745-3.0996l59.2456-31.0669V110.5142l-56.2016,24.919a3.49978,3.49978,0,0,1-4.9185-3.1998V122.4136a3.50011,3.50011,0,0,1,2.0728-3.19577L281.2138,97.9332,233.8769,82.2051a3.49972,3.49972,0,0,1-2.3965-3.3213V34.2334a3.49967,3.49967,0,0,1,4.7422-3.2719,158.55512,158.55512,0,0,1,0,296.4341A3.49563,3.49563,0,0,1,234.9809,327.6236Zm3.4995-54.19338v45.5293a151.55957,151.55957,0,0,0,0-279.562V76.3584l53.4937,17.774a3.49991,3.49991,0,0,1,.3237,6.5171l-53.8174,24.0341v2.16952l56.2017-24.919a3.49973,3.49973,0,0,1,4.9184,3.1997V239.26372a3.5003,3.5003,0,0,1-1.8745,3.0996Z" fill="#231f20"/>
  <g>
    <path d="M334.9604,179.1836a155.05123,155.05123,0,0,1-99.98,144.94V271.31352l61.1201-32.0498V105.1338l-61.1201,27.09962V122.4136l55.8902-24.9599L234.9804,78.8838V34.2334A155.05479,155.05479,0,0,1,334.9604,179.1836Z" fill="#231f20"/>
    <path d="M234.9809,327.25932a3.13581,3.13581,0,0,1-3.1362-3.13572V271.31352a3.136,3.136,0,0,1,1.6797-2.7773l59.4404-31.169V109.9546l-56.7134,25.14552a3.13581,3.13581,0,0,1-4.4067-2.8667V122.4136a3.13589,3.13589,0,0,1,1.8569-2.86327l48.5166-21.667L233.9917,81.8599a3.13639,3.13639,0,0,1-2.147-2.9761V34.2334a3.13594,3.13594,0,0,1,4.249-2.9316,158.19137,158.19137,0,0,1,0,295.75342A3.13942,3.13942,0,0,1,234.9809,327.25932Zm3.1353-54.0493v46.2959a151.92394,151.92394,0,0,0,0-280.65482v37.77l53.7431,17.8565a3.13605,3.13605,0,0,1,.2901,5.8393l-54.0332,24.13042v2.96528l56.7133-25.1455a3.136,3.136,0,0,1,4.4068,2.8667V239.26372a3.1362,3.1362,0,0,1-1.6797,2.7774Z" fill="#231f20"/>
  </g>
  <path d="M179.9804,337.29942c-87.1855,0-158.1157-70.9302-158.1157-158.11582,0-87.1909,70.9302-158.1259,158.1157-158.1259a157.48226,157.48226,0,0,1,56.1133,10.2441,3.13639,3.13639,0,0,1,2.0225,2.9316V76.6211l53.7431,17.8565a3.13605,3.13605,0,0,1,.2901,5.8393l-54.0332,24.13042v2.96528l56.7133-25.1455a3.136,3.136,0,0,1,4.4068,2.8667V239.26372a3.1362,3.1362,0,0,1-1.6797,2.7774L238.1162,273.21V324.1236a3.13568,3.13568,0,0,1-2.0225,2.93162A157.47075,157.47075,0,0,1,179.9804,337.29942Zm0-309.97032c-83.727,0-151.8442,68.1216-151.8442,151.8545,0,83.72712,68.1172,151.84432,151.8442,151.84432a151.27338,151.27338,0,0,0,51.8643-9.084v-50.6304a3.136,3.136,0,0,1,1.6797-2.7773l59.4404-31.169V109.9546l-56.7134,25.14552a3.13581,3.13581,0,0,1-4.4067-2.8667V122.4136a3.13589,3.13589,0,0,1,1.8569-2.86327l48.5166-21.667L233.9917,81.8599a3.13639,3.13639,0,0,1-2.147-2.9761V36.4131A151.28385,151.28385,0,0,0,179.9804,27.3291Z" fill="#231f20"/>
  <g>
    <g>
      <path d="M175.1508,301.11382a3.49744,3.49744,0,0,1-1.6255-.4004l-111.29-58.355a3.49992,3.49992,0,0,1-1.8745-3.0996V105.1299a3.50018,3.50018,0,0,1,4.9189-3.1997l111.2901,49.355a3.50083,3.50083,0,0,1,2.081,3.1997v143.1289a3.499,3.499,0,0,1-3.5,3.5Zm-107.79-63.9717,104.29,54.6846V156.76132L67.3608,110.5108Z" fill="#231f20"/>
      <path d="M184.8105,301.11382a3.50032,3.50032,0,0,1-3.5-3.5V154.48342a3.501,3.501,0,0,1,2.0811-3.1997L294.6821,101.9341a3.49973,3.49973,0,0,1,4.9184,3.1997V239.26372a3.5003,3.5003,0,0,1-1.8745,3.0996l-111.2905,58.3506A3.49951,3.49951,0,0,1,184.8105,301.11382Zm3.5-144.354v135.0674l104.29-54.6802V110.5142Z" fill="#231f20"/>
    </g>
    <path d="M180.3706,150.29352a3.49976,3.49976,0,0,1-1.4185-.3003L67.6723,100.6534a3.50014,3.50014,0,0,1,.3218-6.5235L179.2739,57.42a3.49525,3.49525,0,0,1,2.2002.0024l110.5,36.71a3.49992,3.49992,0,0,1,.3237,6.5171L181.7973,149.98932A3.50084,3.50084,0,0,1,180.3706,150.29352ZM78.8081,97.9336l101.5576,45.02932L281.2133,97.9332,180.3667,64.4307Z" fill="#231f20"/>
    <path d="M90.2612,175.16022c-6.3374,0-11.1167-8.3643-11.1167-19.45562s4.7793-19.45548,11.1167-19.45548c6.3379,0,11.1177,8.3642,11.1177,19.45548S96.5991,175.16022,90.2612,175.16022Zm0-32.4258c-1.5903,0-4.6314,5.0508-4.6314,12.97018s3.0411,12.97022,4.6314,12.97022c1.5908,0,4.6323-5.0507,4.6323-12.97022S91.852,142.73442,90.2612,142.73442Z" fill="#231f20"/>
    <path d="M115.9702,214.99712c-6.3379,0-11.1177-8.3642-11.1177-19.4556s4.7798-19.455,11.1177-19.455,11.1176,8.3637,11.1176,19.455S122.3081,214.99712,115.9702,214.99712Zm0-32.4253c-1.5909,0-4.6324,5.05078-4.6324,12.9697,0,7.9195,3.0415,12.9703,4.6324,12.9703s4.6323-5.0508,4.6323-12.9703C120.6025,187.6226,117.561,182.57182,115.9702,182.57182Z" fill="#231f20"/>
    <path d="M141.6792,259.92972c-6.3379,0-11.1177-8.3642-11.1177-19.4555s4.7798-19.45562,11.1177-19.45562,11.1176,8.36432,11.1176,19.45562S148.017,259.92972,141.6792,259.92972Zm0-32.4257c-1.5909,0-4.6324,5.0507-4.6324,12.9702s3.0415,12.9702,4.6324,12.9702,4.6323-5.05082,4.6323-12.9702S143.27,227.504,141.6792,227.504Z" fill="#231f20"/>
    <path d="M241.4702,219.69192c-6.3042,0-11.0586-8.3198-11.0586-19.3525s4.7544-19.3525,11.0586-19.3525,11.0586,8.3198,11.0586,19.3525S247.7744,219.69192,241.4702,219.69192Zm0-32.2539c-1.5821,0-4.6075,5.024-4.6075,12.9014s3.0254,12.9014,4.6075,12.9014,4.6074-5.024,4.6074-12.9014S243.0522,187.438,241.4702,187.438Z" fill="#231f20"/>
    <path d="M125.362,101.01047c-1.85105-6.02633,4.706-13.014,15.25243-16.25348s19.89547-1.13749,21.74652,4.88883-4.706,13.014-15.25242,16.25348S127.21307,107.03679,125.362,101.01047ZM156.19421,91.54c-.46454-1.51236-6.15541-2.92925-13.68559-.61627s-11.4444,6.68018-10.97986,8.19254,6.15538,2.92916,13.68556.61618S156.65872,93.05228,156.19421,91.54Z" fill="#231f20"/>
    <path d="M193.172,108.959c-1.85105-6.02632,4.706-13.014,15.25243-16.25348S228.31993,91.568,230.171,97.59431s-4.706,13.014-15.25242,16.25347S195.02309,114.98527,193.172,108.959Zm30.8322-9.47046c-.46454-1.51236-6.15541-2.92925-13.68559-.61627s-11.4444,6.68018-10.97986,8.19254,6.15538,2.92916,13.68556.61618S224.46874,101.00076,224.00423,99.48849Z" fill="#231f20"/>
  </g>
</svg>
