<svg id="icon" xmlns="http://www.w3.org/2000/svg" viewBox="0 0 360 359.99999">
  <title>icon</title>
  <path d="M126.3384,47.9614a135.82936,135.82936,0,0,1,113.3301-1,172.81578,172.81578,0,0,1-58.1099,9.9898A172.96958,172.96958,0,0,1,126.3384,47.9614Z" fill="none" stroke="#231f20" stroke-miterlimit="10" stroke-width="7.35271"/>
  <path d="M205.7984,130.7612c11.27-11.4497,19-18.6699,19-18.6699l11.9199,11.3901A170.82953,170.82953,0,0,1,205.7984,130.7612Z" fill="none" stroke="#231f20" stroke-miterlimit="10" stroke-width="7.35271"/>
  <path d="M72.4483,93.7715a136.07919,136.07919,0,0,1,36.29-35.8301,172.45312,172.45312,0,0,0,72.8203,16.0098,172.4655,172.4655,0,0,0,75.75-17.3994,136.28066,136.28066,0,0,1,36.5596,34.5693,173.021,173.021,0,0,1-51.6997,30.4302l.3398-41.2998-49.75,6.8496,18.6001,14.0302s-17.2099,12.8101-39.4902,31.0601A172.4655,172.4655,0,0,1,72.4483,93.7715Z" fill="none" stroke="#231f20" stroke-miterlimit="10" stroke-width="7.35271"/>
  <path d="M141.2085,206.22119c12.73-18.46,29.1001-37.62989,43.96-53.81009a172.64777,172.64777,0,0,0,116.8198-48.6699,134.58724,134.58724,0,0,1,15.2603,41.6602,172.87426,172.87426,0,0,1-135.69,65.54979A173.65232,173.65232,0,0,1,141.2085,206.22119Z" fill="none" stroke="#231f20" stroke-miterlimit="10" stroke-width="7.35271"/>
  <path d="M50.0684,150.5015v-.0103a134.46709,134.46709,0,0,1,14.3999-43.6099,172.56355,172.56355,0,0,0,86.4702,42.8702c-15.9399,13.7197-32.52,28.8398-46.2402,43.25A173.57934,173.57934,0,0,1,50.0684,150.5015Z" fill="none" stroke="#231f20" stroke-miterlimit="10" stroke-width="7.35271"/>
  <path d="M121.4883,242.91109a106.54919,106.54919,0,0,1,8.0103-17.9199A173.4552,173.4552,0,0,0,319.4483,164.5713c.1001,1.9902.1401,3.9902.1401,6a134.91474,134.91474,0,0,1-25.8901,79.68019,173.446,173.446,0,0,1-171.48,30.75C117.1983,269.69139,117.6485,255.71139,121.4883,242.91109Z" fill="none" stroke="#231f20" stroke-miterlimit="10" stroke-width="7.35271"/>
  <path d="M48.5884,170.7515a173.74609,173.74609,0,0,0,42.9399,36.98969c-8.7397,10.5601-15.0698,20.27-17.3701,28.1401a71.64009,71.64009,0,0,0-2.29,10.6402A134.83946,134.83946,0,0,1,48.5884,170.7515Z" fill="none" stroke="#231f20" stroke-miterlimit="10" stroke-width="7.35271"/>
  <g>
    <path d="M71.8682,246.52149a71.64009,71.64009,0,0,1,2.29-10.6402c2.3003-7.8701,8.6304-17.58,17.3701-28.1401,3.9502-4.77,8.3902-9.71,13.17-14.73969,13.7202-14.4102,30.3003-29.5303,46.2402-43.25,7.21-6.21,14.2998-12.1304,20.9297-17.5601,22.2803-18.25,39.4902-31.0601,39.4902-31.0601L192.7583,87.1011l49.75-6.8496-.3398,41.2998-.0601,7.08-5.3901-5.1499-11.9199-11.3901s-7.73,7.2202-19,18.6699c-6.0601,6.1499-13.1602,13.52-20.6299,21.6499-14.8599,16.1802-31.23,35.3501-43.96,53.81009a215.90348,215.90348,0,0,0-11.7099,18.77,106.54919,106.54919,0,0,0-8.0103,17.9199c-3.8398,12.8003-4.29,26.7803.73,38.0904,4.9599,11.2197,15.3003,19.81,33.0102,22.02,60.3599,7.5498,97.7798-15.7603,113.8599-22.9502C199.1885,347.10109,61.3384,324.20119,71.8682,246.52149Z" fill="#231f20"/>
    <path d="M74.2788,247.186c2.7935-18.9282,14.6065-33.1582,27.1153-46.9692,13.3154-14.70259,27.9765-28.19679,42.833-41.31489,22.0053-19.43122,44.8486-38.0699,68.393-55.6119a2.5483,2.5483,0,0,0,0-4.31732Q203.32055,91.95751,194.02,84.9424q-.2988,2.28435-.5971,4.56928,24.87525-3.42477,49.75-6.84958-1.5828-1.20555-3.1646-2.4106-.1992,24.1896-.3999,48.3798,2.1336-.884,4.2681-1.7675-8.65575-8.2698-17.3106-16.54012a2.5376,2.5376,0,0,0-3.5351,0c-17.2129,16.105-33.5401,33.26522-49.168,50.90192-19.7685,22.30908-40.3403,46.51169-52.1904,74.14549-9.0215,21.03859-8.461,48.9302,12.043,62.8818,10.3608,7.0503,23.7314,7.8657,35.8374,8.5259a177.87263,177.87263,0,0,0,38.186-2.1865c22.5337-3.6592,42.082-13.10061,62.6113-22.3623q-1.51455-1.96365-3.0293-3.92631C238.2451,305.916,197.3589,318.67379,157.6909,316.917c-30.4277-1.3477-68.8554-13.0322-80.7544-44.3672-3.1586-8.3184-3.6899-17.2627-2.5683-26.0283.4087-3.1919-4.5967-3.1529-5,0-1.8823,14.7119,1.4673,29.2944,10.3017,41.2886,8.9629,12.1679,22.2032,20.2895,36.0899,25.72259,34.1743,13.37011,74.7285,10.59521,108.519-2.437a141.53261,141.53261,0,0,0,46.5772-29.25679c2.1997-2.0884-.584-5.0298-3.0293-3.9263-13.9444,6.291-27.3096,13.1055-42.0713,17.4487a167.14063,167.14063,0,0,1-34.8682,6.2246c-13.9609,1.0337-29.1328.9532-42.7636-2.4638a34.62212,34.62212,0,0,1-24.6817-21.794c-5.3594-14.4575-1.5566-30.8852,4.7481-44.3315,13.0859-27.9102,34.705-52.25539,55.2011-74.93169,13.795-15.2617,28.149-30.1464,43.1748-44.206h-3.5351q8.65425,8.27055,17.3096,16.54a2.522,2.522,0,0,0,4.268-1.7676q.20505-24.1896.3999-48.3798c.0147-1.7876-1.5976-2.6265-3.1645-2.4107q-24.87525,3.4248-49.75,6.8496c-2.4283.334-2.062,3.4649-.5972,4.5694q9.3003,7.015,18.6001,14.0302V98.97268c-24.397,18.17772-48.02,37.51072-70.8218,57.64452-15.2978,13.5078-30.2212,27.5361-43.8379,42.75389-12.1855,13.6177-23.2505,27.99359-25.9795,46.4858C68.9922,249.00979,73.8096,250.36668,74.2788,247.186Z" fill="#231f20"/>
  </g>
</svg>
