<svg id="Layer_2" data-name="Layer 2" xmlns="http://www.w3.org/2000/svg" viewBox="0 0 400 400">
  <g>
    <path d="M196.05505,95.22,186.325,80.64a14.20186,14.20186,0,0,1-1.67-3.41H34.445a14.95905,14.95905,0,0,1-2.35,3.82L20.415,94.81006a14.60886,14.60886,0,0,0-3.47,9.45v18.53H198.505v-19.47A14.60447,14.60447,0,0,0,196.05505,95.22ZM16.945,123.79V343.7A14.58729,14.58729,0,0,0,31.535,358.29h152.38A14.58728,14.58728,0,0,0,198.505,343.7V123.79ZM183.87494,72.54V56.3a14.58723,14.58723,0,0,0-14.59-14.59H50.155a14.58728,14.58728,0,0,0-14.59,14.59V71.6a14.44973,14.44973,0,0,1-.76,4.63h149.55A14.31554,14.31554,0,0,1,183.87494,72.54ZM57.035,66.76a7.54,7.54,0,1,1,7.54-7.54A7.54539,7.54539,0,0,1,57.035,66.76Zm25.85,0a7.54,7.54,0,1,1,7.54-7.54A7.54544,7.54544,0,0,1,82.885,66.76Zm27.13,0a7.54,7.54,0,1,1,7.54-7.54A7.54543,7.54543,0,0,1,110.015,66.76Zm55.94.66h-36.36V51.68h36.36Z" stroke="#fff" stroke-miterlimit="10"/>
    <path d="M201.495,123.79V343.7a14.59582,14.59582,0,0,0,14.6,14.59009h152.37A14.5873,14.5873,0,0,0,383.05505,343.7V123.79Zm164.48,193.08a13.11063,13.11063,0,0,1-13.09009,13.1H231.755a13.1107,13.1107,0,0,1-13.09008-13.1V162.05005A13.11073,13.11073,0,0,1,231.755,148.95H352.88489a13.11066,13.11066,0,0,1,13.09009,13.1001ZM352.88489,149.95H231.755a12.10778,12.10778,0,0,0-12.09008,12.1001V316.87a12.10767,12.10767,0,0,0,12.09008,12.1H352.88489a12.1076,12.1076,0,0,0,12.09009-12.1V162.05005A12.10771,12.10771,0,0,0,352.88489,149.95ZM380.605,95.22l-9.72009-14.58a14.20166,14.20166,0,0,1-1.66992-3.41H218.995a14.92626,14.92626,0,0,1-2.34009,3.82L204.965,94.81006a14.60881,14.60881,0,0,0-3.47,9.45v18.53H383.05505v-19.47A14.60362,14.60362,0,0,0,380.605,95.22Zm-12.18-22.68V56.3a14.58727,14.58727,0,0,0-14.59-14.59H234.715a14.59574,14.59574,0,0,0-14.6,14.59V71.6a14.44155,14.44155,0,0,1-.75,4.63H368.90491A14.3181,14.3181,0,0,1,368.42493,72.54Zm-98.02-5.12H234.05505V51.68h36.34986Zm19.59009-.66a7.54,7.54,0,1,1,7.53-7.54A7.539,7.539,0,0,1,289.995,66.76Zm27.12,0a7.54,7.54,0,1,1,7.53992-7.54A7.5369,7.5369,0,0,1,317.115,66.76Zm25.86,0a7.54,7.54,0,1,1,7.53-7.54A7.5391,7.5391,0,0,1,342.975,66.76Z" stroke="#fff" stroke-miterlimit="10"/>
  </g>
</svg>
