<?xml version="1.0" encoding="utf-8"?>
<!-- Generator: Adobe Illustrator 24.2.1, SVG Export Plug-In . SVG Version: 6.00 Build 0)  -->
<svg version="1.1" id="Layer_1" xmlns="http://www.w3.org/2000/svg" xmlns:xlink="http://www.w3.org/1999/xlink" x="0px" y="0px"
	 viewBox="0 0 400 400" enable-background="new 0 0 400 400" xml:space="preserve">
<g>
	<g>
		<path fill="#333333" d="M344.0416,360.39508c-0.02994,2.40338-1.8725,4.33612-4.11566,4.30603
			c-2.24313-0.03-4.0257-2.01285-3.99561-4.4162c0.02994-2.41342,4.22592-12.52765,4.22592-12.52765
			S344.07169,357.98169,344.0416,360.39508z"/>
	</g>
	<g>
		<path fill="#333333" d="M329.69144,335.54004c-2.13303,0.69098-4.46625-0.61084-5.20731-2.90405
			c-0.74115-2.28323-0.02002-13.20859-0.02002-13.20859s6.99985,8.42181,7.74088,10.71503
			C332.94601,332.42569,331.82443,334.84906,329.69144,335.54004z"/>
	</g>
	<g>
		<path fill="#333333" d="M365.92252,319.32721c-1.54221,1.62228-4.21588,1.60229-5.95834-0.06009
			c-1.75247-1.65228-6.33899-11.59634-6.33899-11.59634s10.16434,4.05576,11.91681,5.70804
			C367.29443,315.03119,367.45471,317.69492,365.92252,319.32721z"/>
	</g>
	<g>
		<path fill="#333333" d="M360.54483,350.54117c-2.03278,0.93137-4.49634-0.10013-5.49774-2.29321
			c-0.99139-2.19308-1.50211-13.12848-1.50211-13.12848s7.90128,7.58069,8.89264,9.77377
			C363.43906,347.08633,362.58774,349.61987,360.54483,350.54117z"/>
	</g>
	<g>
		<path fill="#333333" d="M311.56592,313.13849c-1.89267,1.19168-4.46625,0.51074-5.75812-1.5321
			c-1.28183-2.0329-3.25458-12.79807-3.25458-12.79807s8.84253,6.43906,10.12424,8.48196
			C313.95932,309.32312,313.46863,311.94681,311.56592,313.13849z"/>
	</g>
	<g>
		<path fill="#333333" d="M330.37244,277.68854c-0.82123,2.08295-3.30469,3.05435-5.54785,2.1731
			c-2.24313-0.88123-10.21432-8.38181-10.21432-8.38181s10.94534-0.05011,13.18848,0.83115
			C330.0419,273.1922,331.19354,275.60565,330.37244,277.68854z"/>
	</g>
	<g>
		<path fill="#333333" d="M371.61047,295.85413c-1.37183,1.77252-4.0257,2.02289-5.92828,0.55078
			c-1.91272-1.47205-7.4805-10.90533-7.4805-10.90533s10.52484,3.00424,12.43744,4.47629
			C372.54184,291.44797,372.98251,294.0817,371.61047,295.85413z"/>
	</g>
	<g>
		<path fill="#333333" d="M398.19797,333.24683c-1.89267,1.20172-4.47629,0.53073-5.76813-1.50211
			c-1.29187-2.0329-3.32477-12.79807-3.32477-12.79807s8.88263,6.40906,10.1745,8.44189
			C400.57129,329.42145,400.08063,332.04514,398.19797,333.24683z"/>
	</g>
	<g>
		<path fill="#333333" d="M338.97452,305.83823c-1.30176,1.82257-3.94562,2.16302-5.90833,0.77106
			c-1.96274-1.40195-7.8811-10.60492-7.8811-10.60492s10.63498,2.60367,12.59769,3.99564
			C339.7356,301.40201,340.27628,304.01566,338.97452,305.83823z"/>
	</g>
	<path fill="#333333" d="M304.45581,248.64206c-0.35999-0.12994-0.78003-0.01996-1.26001,0.26001
		c-4.98999,1.09003-23.33997,5.45001-27.09998,11.42004c-14.55994-3.88-38.51991-10.52002-61.19008-18.04004
		c-22.66992-7.51996-44.04993-15.91998-53.44995-23.29999l46.83008-48.37c0.83997-0.72003-0.17004-3.52002-2.65002-7.84003
		c-0.12,0.74005-0.41003,1.31-0.85999,1.70001c-4.59009,3.90002-24.72998-12.27997-44.98999-36.13
		c-20.27002-23.84997-32.97997-46.34997-28.39001-50.24999c0.42004-0.35999,0.96997-0.54999,1.65002-0.57001
		c-3.54004-2.81-5.92004-4.06995-6.71996-3.38995l-0.18005,0.13c-2.24011-4.32001-13.62-25.75-27.08997-41.61005
		c-3.04004-3.57001-6.02002-6.66998-8.86011-9.17999c-7.29993-6.46997-14.15991-6.46997-18.62988-5.33997
		C57.42577,21.72208,44.46581,41.6821,29.52587,82.8621c-15.15003,41.73999-7.32007,57.14001-4.06006,61.27996L0.23583,161.65207
		c-2.68994,2.29004,17.80005,30.83002,45.77002,63.76001s52.83008,57.76001,55.53003,55.47998l31.72997-32.77997
		c6.17993-2.48999,32.5-6,138.44997,25.42999c0,0.03003,3.28003,16.08002,14.5,24.19c0.13,0.15002,0.27002,0.26001,0.43994,0.32001
		c2.56006,0.91998,8.62012-9.39001,13.53003-23.03998C305.09583,261.3721,307.01587,249.5621,304.45581,248.64206z
		 M113.27587,83.20213l-66.66003,46.25994c-4.70007,1.61005-9.03992,2.92999-12.77002,3.95001
		c-1.52991-5.45995-2.72998-18.89001,7.24011-46.35998c16.0199-44.14002,27.05994-55.35999,33.5-57
		c1.5-0.38,3.8999-0.52002,7.44995,2.62c2.40991,2.14001,4.97998,4.81,7.6499,7.95001
		c11.55005,13.59998,21.8501,32.33997,24.93005,38.15998C114.29589,80.28208,113.82592,81.75211,113.27587,83.20213z"/>
</g>
</svg>
