<svg id="Layer1" xmlns="http://www.w3.org/2000/svg" viewBox="0 0 400 400">
  <path d="M197.91765,343.61316,175.56953,217.58689a30.10746,30.10746,0,0,0-8.355-16.03122L144.317,178.65843a41.06923,41.06923,0,0,1-11.46285-22.24519l-6.41682-38.24971a8.90063,8.90063,0,0,0-.00013-17.80125h-.80056l12.66253-37.65145a9.505,9.505,0,0,0-1.124-8.33739l-5.80335-8.622a9.50449,9.50449,0,0,0-7.88531-4.19772H82.085a9.50449,9.50449,0,0,0-7.8853,4.19772l-5.8035,8.622a9.50543,9.50543,0,0,0-1.12385,8.33739l12.66226,37.65145h-.80028a8.90063,8.90063,0,1,0-.00014,17.80125l-1.81314,10.80792L73.36165,152.5718h.00014l-.64439,3.84144a41.0697,41.0697,0,0,1-11.46286,22.24519L38.357,201.55567a30.10746,30.10746,0,0,0-8.355,16.03122L7.65358,343.61289a30.106,30.106,0,0,0,7.99275,26.17573L39.446,394.42043a30.106,30.106,0,0,0,21.65035,9.18641h83.37873a30.10634,30.10634,0,0,0,21.65048-9.18641l23.79964-24.63181A30.10555,30.10555,0,0,0,197.91765,343.61316ZM102.78575,199.1054a23.65141,23.65141,0,1,1-23.6514,23.6514A23.65137,23.65137,0,0,1,102.78575,199.1054Zm43.4611,145.28725H59.32451a13.65191,13.65191,0,0,1-13.45912-15.93842l4.33184-51.90115a13.65179,13.65179,0,0,1,13.459-11.36541h78.25905a13.652,13.652,0,0,1,13.459,11.36541l4.33157,51.90115A13.65175,13.65175,0,0,1,146.24685,344.39265Z"/>
  <g>
    <path d="M337.469,130.14868,306.28674,86.7474V17.54377A12.17742,12.17742,0,0,0,294.10928,5.3663H273.65164a12.17743,12.17743,0,0,0-12.17747,12.17747V86.74726L230.292,130.14868a40.57408,40.57408,0,0,0-7.62293,23.6744V382.6143a20.99259,20.99259,0,0,0,20.99268,20.99254h80.43764a20.9922,20.9922,0,0,0,20.99253-20.99254V153.82308A40.57407,40.57407,0,0,0,337.469,130.14868Zm3.16255,110.37843L227.1294,280.65922V213.88671l113.50211-40.13239Z"/>
    <path d="M303.17166,234.54571l-30.04955,10.2756a13.18567,13.18567,0,0,1-16.74275-8.21h0a13.18547,13.18547,0,0,1,8.21-16.743l30.04932-10.2756a13.18564,13.18564,0,0,1,16.743,8.21h0A13.186,13.186,0,0,1,303.17166,234.54571Z"/>
  </g>
</svg>
