<svg id="Layer_2" data-name="Layer 2" xmlns="http://www.w3.org/2000/svg" viewBox="0 0 400 400">
  <path d="M364.75888,18.3043a37.57511,37.57511,0,0,0,17.73584,17.7358V364.91668a37.575,37.575,0,0,0-17.73584,17.73581H35.88217a37.5753,37.5753,0,0,0-17.73572-17.73578V36.04007A37.57537,37.57537,0,0,0,35.88217,18.3043H364.75888m12.39563-16H23.48654A21.34,21.34,0,0,1,2.14645,23.64439v353.668a21.34,21.34,0,0,1,21.34009,21.34009h353.668a21.34012,21.34012,0,0,1,21.34021-21.34009V23.64439A21.34014,21.34014,0,0,1,377.15451,2.3043Z" fill="#474747"/>
  <path d="M246.18229,211.16393,369.89614,87.45007l-58.8039-58.8039L187.37838,152.36l21.778,21.778L93.50807,289.78632c-6.7573.61835-14.59046,4.464-21.18609,11.05961-11.15913,11.15913-18.057,31.3488-14.3652,39.7396,8.12256-11.61286,28.58047-3.20606,39.7396-14.3652,6.59563-6.59562,10.44126-14.42879,11.05962-21.18609l115.6483-115.6483Z" fill="#232323"/>
  <path d="M89.33679,295.10125a24.431,24.431,0,0,0-17.4266,13.86931" fill="none" stroke="#fff" stroke-linecap="round" stroke-miterlimit="10" stroke-width="3"/>
  <line x1="210.03852" y1="180.39043" x2="100.88929" y2="289.53965" fill="none" stroke="#fff" stroke-linecap="round" stroke-miterlimit="10" stroke-width="4"/>
  <line x1="310.4231" y1="37.3709" x2="194.82964" y2="152.96436" fill="none" stroke="#fff" stroke-linecap="round" stroke-miterlimit="10" stroke-width="4"/>
  <g>
    <path d="M331.35006,337.42937c-.82031-.02295-1.64746-.04608-2.47326-.06921a5.88026,5.88026,0,0,1,1.2445.35217A1.71016,1.71016,0,0,0,331.35006,337.42937Z" fill="#a76571"/>
    <path d="M326.14853,337.29034l-.37586.08618.81482-.07562Z" fill="#a76571"/>
    <path d="M324.47311,337.50811a8.78588,8.78588,0,0,0-2.19519.05646A13.95811,13.95811,0,0,0,324.47311,337.50811Z" fill="#a76571"/>
    <path d="M325.75461,337.37951l.01806-.003-1.29956.13159a5.83029,5.83029,0,0,1,1.23926.27179C325.44772,337.63714,325.31711,337.48766,325.75461,337.37951Z" fill="#a76571"/>
    <path d="M325.71237,337.7799a5.23743,5.23743,0,0,0,.52319.22693A5.08522,5.08522,0,0,0,325.71237,337.7799Z" fill="#a76571"/>
    <path d="M326.23556,338.00683c.08887.04144.19654.07617.277.12011A2.58385,2.58385,0,0,0,326.23556,338.00683Z" fill="#a76571"/>
    <path d="M324.63888,341.17242c-.42981.11029-.33276-.85047-1.18432-.62952a50.80947,50.80947,0,0,1-5.55628.7959c-.83862.24115-2.21411-.78888-3.05383-.53058-2.0033.32611-6.95886,1.96014-3.98987,1.70935,4.45776-.40875,7.38538-.74475,11.43628-.975,3.28967-.425,6.47644-.86023,9.87781-1.17169a21.46908,21.46908,0,0,1,2.7345.12976c-1.16724-.16845-2.36-.328-3.6858-.48572C329.47152,339.73247,327.35568,340.9483,324.63888,341.17242Z" fill="#a76571"/>
    <path d="M349.51327,338.24712l-1.28784.3161a12.55411,12.55411,0,0,0-5.93176-.22094q.43671.24261.88513.49182c1.15125-.03974,1.28735-.306.26941-.52918a22.459,22.459,0,0,0,6.81262.63868C350.12008,338.68236,350.15011,338.38219,349.51327,338.24712Z" fill="#a76571"/>
    <path d="M351.59005,338.86913c-.44519.025-.89208.05-1.32922.07447a.5876.5876,0,0,0,.04749.08313c.44714-.04517.89343-.09034,1.32959-.1344Z" fill="#a76571"/>
    <path d="M315.78744,339.75866a26.23759,26.23759,0,0,1-6.81592-.20386c1.02588.13434.91749.41-.22656.554-.30627-.13709-.61474-.27521-.91809-.41095a11.524,11.524,0,0,1,5.92029-.21936s.85144-.253,1.27283-.37818c.64257.10511.62439.40747.76745.65833.43775-.03827.88159-.07715,1.32691-.11609a22.97313,22.97313,0,0,0-3.94727-.94055c-4.00891.2052-7.81726.57709-11.54748.8695a.78855.78855,0,0,0-.71119-.61853l-1.28784.316a12.55488,12.55488,0,0,0-5.93176-.22094q.43671.24261.88513.49188c1.15125-.03973,1.28736-.30609.26941-.52917a21.12715,21.12715,0,0,0,5.433.66c-1.14563.08294-2.28723.16107-3.42273.21484a1.753,1.753,0,0,1-1.19921.409,5.44538,5.44538,0,0,0-1.27-.2002c-.76978.0868-1.53894.17774-2.29993.29932-.26111.0705-.52539.13995-.79016.22644l-.02088.00934c-.40466.19568-.24536.31354.04334.39807a4.26676,4.26676,0,0,1,.85083.19073c-.15894-.05285-.56921-.11242-.85083-.19073a4.95527,4.95527,0,0,0-1.27026.004c-.275.089-.55872.18139-.844.27026.20447-.07214.41162-.14776.62036-.22461.07215-.01105.15357-.03827.22364-.04565l1.2478-.41144.35376-.15924c-.87476.1524-1.74719.31848-2.60828.53644a22.67283,22.67283,0,0,1-2.50207.51544l-1.0437.23651a5.03487,5.03487,0,0,1-3.24976.038l-.92969.00421.18225.08026c-.13928-.0246-.25659-.05188-.35229-.07892-1.31238.00348-2.64673-.00433-4.00549.06641-.36414.019-.72742.054-1.09107.08239,2.474-.32055,4.93323-.62848,7.51587-.865a21.46915,21.46915,0,0,1,2.7345.1297c-1.16724-.16845-2.36-.328-3.68579-.48572-1.74585-.28234-3.8617.93348-6.5785,1.15754-.4298.11035-.33276-.85041-1.18432-.62946a50.8237,50.8237,0,0,1-5.55628.7959c-.83862.24115-2.21411-.78894-3.05383-.53064-2.00329.32611-6.95886,1.9602-3.98987,1.70935,4.08277-.37433,6.8916-.68665,10.4458-.91357q-1.74205.24526-3.4884.55944a56.88988,56.88988,0,0,1-6.18274.91755c-2.03808.16107-4.08557.18286-6.14819.15271-3.60413-.08423-7.24878-.15308-10.87781-.20258a5.41925,5.41925,0,0,1,2.37805-.56146c1.30542.02575,2.50305.09112,3.68811.14831a16.95212,16.95212,0,0,0,2.29163-.13018c.48572-.126.98913-.25654,1.49267-.38709a99.73634,99.73634,0,0,1,11.38831-2.25879l-.05457-.08319a26.24013,26.24013,0,0,1-6.81591-.20386c1.02588.13434.91748.41-.22657.554-.30627-.13715-.61474-.27521-.91809-.41095a11.52415,11.52415,0,0,1,5.92029-.21942l1.27283-.37811c.64258.1051.62439.40747.76745.65832.43775-.03833.8816-.07715,1.32691-.11615a22.9715,22.9715,0,0,0-3.94727-.94049c-5.72778.29315-11.05737.93469-16.31347,1.18359a1.75294,1.75294,0,0,1-1.19922.40894,5.44885,5.44885,0,0,0-1.27-.20014c-.76978.08674-1.53894.17774-2.29993.29926-.26111.0705-.52539.14-.79016.22644l-.02087.0094c-.40467.19562-.24537.31348.04333.398a4.26589,4.26589,0,0,1,.85083.19074c-.15893-.0528-.56921-.11237-.85083-.19074a4.95592,4.95592,0,0,0-1.27026.00409c-.27515.089-.55884.18146-.84424.27032.20447-.07214.41162-.14782.6206-.22467.07215-.011.15357-.03827.22364-.04565l1.2478-.4115.35376-.15918c-.87476.15234-1.74719.31848-2.60828.53638a22.67092,22.67092,0,0,1-2.50207.5155c-.38159.08643-.74585.169-1.0437.23651a5.03522,5.03522,0,0,1-3.24976.038c-.30578.0014-.6178.0028-.92969.00427l.18225.08026c-.13928-.02466-.25659-.05188-.35229-.079-1.31238.00348-2.64673-.00427-4.00549.06641a58.38831,58.38831,0,0,0-6.55225.77551c-1.07837-.025-2.14258-.04627-3.23511-.0752-4.84643-.17346-9.59839-.3435-14.28222-.5111-4.781-.10761-9.42322.04614-13.91309.01086q-1.67926-.01272-3.33948-.02533c-1.2268-.00641-2.434.05981-3.621.157-2.37707.19684-4.64551.566-6.82568.93653-.50757.08685-.9961.17059-1.49488.25708-1.6975-.03644-3.39672-.07331-5.12854-.11921-4.84643-.1734-9.59838-.3435-14.28222-.5111-4.781-.10755-9.42322.04614-13.91309.01092q-1.67925-.01272-3.33948-.02539c-.196-.001-.38842.01019-.58349.0127l-.0509-.00617c-7.033-.84961-20.08667-.38959-26.86683-.28949-3.56811.626-5.00329,1.64179-5.41064,2.65863-.90466-.06244-1.81165-.129-2.728-.20831-2.19177-.18817-4.41907-.41937-6.70337-.66675l-3.47595-.37518c-1.141-.12555-2.27283-.26129-3.42-.413-7.033-.84961-20.08667-.38965-26.86682-.28955-9.084,1.59375-4.37464,5.71381-3.94776,5.94635,5.463,3.43518,9.7815,1.65363,20.62036,3.50659-6.13269-1.12249,6.6825-2.06164,13.74024.26557,5.11731,1.82153,11.4331,2.41455,18.4768,2.25049A87.678,87.678,0,0,0,122.25,354.8604c3.69238-.56115,7.07116-1.325,10.17785-1.6195l4.62159-.51105c.38952-.04413.77258-.06378,1.16613-.09937q.60792-.03186,1.23059-.06451l.86512-.0354c.416.10815.8219.22351,1.20752.35065,5.11731,1.82147,11.4331,2.41449,18.4768,2.25049a87.70116,87.70116,0,0,0,10.85926-.97712c3.69238-.56115,7.07116-1.325,10.17785-1.61956,1.48865-.16455,3.01758-.33362,4.62158-.511.38953-.04413.77259-.06378,1.16614-.09937q.60792-.03186,1.23059-.06451,1.43152-.05859,2.9397-.12024c1.64734.0069,3.25171-.02051,4.83716-.05646,2.15564-.00238,4.32788.00617,6.5321.03815,1.90235.006,3.8031-.08179,5.69043-.25384q2.48127-.0043,4.96082-.00855,3.69579-.05356,7.40136-.10724c9.89112-.18512,19.91333-.49042,30.55225-.33618a56.79285,56.79285,0,0,0,16.12293-2.20734c.9956-.23852,1.78759-.4237,2.64843-.584.84693-.15936,1.68555-.28772,2.49622-.39362,1.62268-.21362,3.12659-.32861,4.3883-.46838,1.91248-.22241,3.837-.31714,5.91919-.54077a28.43032,28.43032,0,0,0,6.30835-1.32184c-4.71325,1.26312-8.06958,1.08368-11.9945,1.64758-1.36231.18738-.93421-.17737.08838-.64038a16.94747,16.94747,0,0,1,3.66955-1.08185c.83789-.24035,2.27307.78095,3.20325.50129a13.2923,13.2923,0,0,0,3.0116-.57483c.50366-.155,1.009-.32648,1.52172-.527.2566-.09351.514-.20178.7743-.3111l.39282-.16223.31677-.14c.70825-.41706.8573.54724,1.2052.35223,2.32275-.7663,4.20435-2.19769,5.944-2.094,1.30542.02581,2.503.09118,3.68811.14831a16.96021,16.96021,0,0,0,2.29163-.13013c.48571-.126.98913-.25653,1.49267-.38714a99.7213,99.7213,0,0,1,11.38831-2.25873Zm-47.77868,3.69787a6.23585,6.23585,0,0,1,4.20056-.37152A10.28388,10.28388,0,0,1,268.00876,343.45653Z" fill="#a76571"/>
    <path d="M282.74521,338.13518c-.82032-.02294-1.64746-.04608-2.47327-.06915a5.87672,5.87672,0,0,1,1.24451.35211A1.70956,1.70956,0,0,0,282.74521,338.13518Z" fill="#a76571"/>
    <path d="M277.54367,337.99621l-.37586.08618.81482-.07562Z" fill="#a76571"/>
    <path d="M275.86825,338.21392a8.7921,8.7921,0,0,0-2.19519.05646A13.95085,13.95085,0,0,0,275.86825,338.21392Z" fill="#a76571"/>
    <path d="M277.14975,338.08538l.01806-.003c-.42981.04352-.85595.08667-1.29956.13153a5.83091,5.83091,0,0,1,1.23926.27179C276.84286,338.343,276.71225,338.19353,277.14975,338.08538Z" fill="#a76571"/>
    <path d="M277.63034,338.71246c.089.0415.19678.07635.27734.12036A2.60678,2.60678,0,0,0,277.63034,338.71246Z" fill="#a76571"/>
    <path d="M277.10751,338.48571a5.21994,5.21994,0,0,0,.52283.22675A5.09063,5.09063,0,0,0,277.10751,338.48571Z" fill="#a76571"/>
    <path d="M79.17367,353.32146c.21472.03931.44837.0788.7107.11841C79.63815,353.39526,79.4133,353.36242,79.17367,353.32146Z" fill="#a76571"/>
  </g>
  <path d="M81.937,314.42886c-6.37061,1.23864-13.27588,2.0448-19.19678.02355-5.00818,9.85474-7.22839,20.57636-4.78345,26.13312,8.12256-11.61285,28.58057-3.20605,39.73963-14.36523a44.458,44.458,0,0,0,3.82141-4.36206C100.53366,311.97958,89.58883,312.94106,81.937,314.42886Z" fill="#a76571"/>
</svg>
