<?xml version="1.0" encoding="utf-8"?>
<!-- Generator: Adobe Illustrator 24.2.1, SVG Export Plug-In . SVG Version: 6.00 Build 0)  -->
<svg version="1.1" id="Layer_1" xmlns="http://www.w3.org/2000/svg" xmlns:xlink="http://www.w3.org/1999/xlink" x="0px" y="0px"
	 viewBox="0 0 100 100" enable-background="new 0 0 100 100" xml:space="preserve">
<g>
	<path d="M27.652,38.447c7.955-5.303,16.667-9.848,25.758-10.606c-10.227,0-12.5-6.061-32.197-4.167
		C25,27.462,27.652,33.144,27.652,38.447z"/>
	<path d="M44.318,62.689c-5.303,1.136-10.606,4.924-15.53,1.136c0.379,7.576,21.212,0,4.545,12.5
		c3.788,1.515,13.636-3.03,15.152-8.712C49.242,64.205,46.591,62.311,44.318,62.689z"/>
	<path d="M21.97,49.811c0,0,26.136-22.727,42.045-17.424C64.015,32.386,40.53,36.553,21.97,49.811z M53.409,56.629
		c-5.303-11.364,9.47-17.045,17.045-22.727c1.515-1.136,2.652-1.515,4.167-1.894c-3.409-1.894-6.818-2.273-10.606-3.03
		c-15.53-1.894-29.545,6.439-42.424,16.288c-1.136,1.136-2.273,1.515-4.167,1.515c-3.788-0.758-7.955-9.848-15.909-11.742
		c4.167,6.061,0.758,7.955,1.136,14.773c0.379,3.03,3.409,5.303,0.758,8.333c-6.061,6.818-1.894,11.364-3.03,15.53
		c6.439-10.227,10.985-15.152,18.939-21.212c-1.136,1.136-4.167,4.545-5.303,7.576c6.061-4.924,12.5,0.379,19.318,3.03
		c3.03,1.515,5.303-1.515,9.47-1.894c7.955-1.136,9.848,4.545,6.061,9.47c2.652,0.379,9.47,0,11.742-6.439
		C57.576,62.689,54.924,60.038,53.409,56.629z"/>
	<path d="M84.47,42.614c-0.758,7.197-9.47,8.333-10.606,1.894C71.97,36.932,84.848,35.417,84.47,42.614z M89.015,52.083
		c7.955,2.273,9.47,0,10.985-1.515c-4.545-5.682-9.091-12.5-15.909-15.909c-3.788-1.515-7.197-2.273-10.606,0.379
		c-7.576,4.924-21.97,10.606-17.045,21.212c5.682,10.985,20.455,10.606,31.818,7.197c4.167-1.136,7.955-3.409,10.985-6.818
		C99.242,53.977,91.667,56.25,89.015,52.083z"/>
	<path d="M80.682,42.992c0,1.894-2.652,2.273-3.03,0.379C77.273,41.477,81.061,41.098,80.682,42.992z M80.682,40.341
		c-1.894-1.136-5.303,1.136-4.545,3.409c0.379,1.894,1.894,2.652,3.409,2.273C81.818,45.644,83.712,41.856,80.682,40.341z"/>
</g>
</svg>
