<svg height='100px' width='100px'  fill="#000000" xmlns="http://www.w3.org/2000/svg" xmlns:xlink="http://www.w3.org/1999/xlink" version="1.1" x="0px" y="0px" viewBox="0 0 512 512" style="enable-background:new 0 0 512 512;" xml:space="preserve"><g><g><g><path d="M420,300H90c-8.02,0-15.55-3.12-21.21-8.79C63.12,285.55,60,278.02,60,270c0-8.021,3.12-15.55,8.79-21.21     C74.45,243.12,81.98,240,90,240h107.14c5.52,0,10,4.49,10,10c0,5.52-4.48,10-10,10H90c-5.5,0.01-9.99,4.49-10,10     c0.01,5.5,4.5,9.99,10,10h330c5.5-0.01,9.99-4.5,10-10c-0.01-5.51-4.5-9.99-10-10H297.14c-5.51,0-10-4.48-10-10     c0-5.51,4.49-10,10-10H420c8.02,0,15.55,3.12,21.21,8.79c5.67,5.66,8.79,13.189,8.79,21.21c0,8.02-3.12,15.55-8.79,21.21     C435.55,296.88,428.02,300,420,300z M247.14,260c-5.51,0-10-4.48-10-10c0-5.51,4.49-10,10-10c5.52,0,10,4.49,10,10     C257.14,255.52,252.66,260,247.14,260z"></path></g><g><path d="M370,340H140c-10.69,0-20.73-4.16-28.28-11.72C104.16,320.729,100,310.689,100,300v-10c0-2.63,1.07-5.21,2.93-7.07     c1.86-1.86,4.44-2.93,7.07-2.93h212.859c5.511,0,10,4.49,10,10s-4.489,10-10,10H120c0.02,11.01,8.99,19.979,20,20h230.03     c7.77,0,14.909-4.59,18.17-11.69c1.63-3.55,5.199-5.85,9.1-5.85c1.44,0,2.84,0.31,4.16,0.91c3.56,1.63,5.85,5.22,5.84,9.149     c-0.01,1.42-0.32,2.8-0.91,4.11c-3.14,6.87-8.149,12.7-14.5,16.85C385.38,337.74,377.81,339.99,370,340z M372.859,300     c-5.52,0-10-4.49-10-10s4.48-10,10-10c5.511,0,10,4.49,10,10S378.37,300,372.859,300z"></path></g><g><path d="M310,370L310,370H200c-10.69,0-20.73-4.16-28.28-11.72C164.16,350.729,160,340.689,160,330c0-2.63,1.07-5.21,2.93-7.07     c1.86-1.86,4.44-2.93,7.07-2.93h170c2.63,0,5.21,1.069,7.069,2.93c1.86,1.86,2.931,4.44,2.931,7.07     c0,10.689-4.16,20.729-11.72,28.28C330.729,365.84,320.689,370,310,370z M182.69,340c3.57,6.16,10.19,9.99,17.31,10h110     c7.12-0.01,13.74-3.84,17.31-10H182.69z"></path></g><g><path d="M280,500h-50c-4.97,0-9.13-3.57-9.88-8.48l-20-130c-0.45-2.89,0.39-5.81,2.29-8.029c1.9-2.221,4.67-3.49,7.59-3.49h90     c2.92,0,5.689,1.27,7.59,3.49c1.9,2.22,2.74,5.14,2.29,8.029l-20,130C289.13,496.43,284.97,500,280,500z M238.58,480h32.84     l16.92-110h-66.68L238.58,480z"></path></g><g><path d="M261.1,260c-23.82,0-45.41-8.8-60.8-24.78c-7.19-7.44-12.8-16.1-16.67-25.73c-3.85-9.56-5.8-19.61-5.81-29.88     c0-13.93,3.73-27.66,10.79-39.7l0.02-0.04c3.76-6.4,5.31-12.76,5.35-21.97c0.01-3.85-0.3-7.82-0.63-12.03     c-0.33-4.32-0.68-8.79-0.7-13.45c-0.01-8.93,1.49-16.06,4.71-22.43c1.19-2.37,3.09-4.41,5.37-5.73c2.14-1.25,4.59-1.91,7.08-1.91     h0.08c3.89,0,7.78,1.75,10.39,4.68c1.53,1.78,5.29,4.75,9.28,7.9l0.73,0.58c3.06-10.83,5.21-21.25,6.78-32.78     c0.43-3.51,2.32-6.88,5.04-9.03c2.54-2.04,5.61-3.12,8.88-3.13c2.55,0,5.06,0.7,7.23,2.01c2.3,1.38,4.271,3.59,5.42,6.07     l15.01,32.07c2.341,5,0.181,10.96-4.819,13.3c-1.34,0.63-2.761,0.94-4.23,0.94c-3.87,0-7.42-2.26-9.06-5.76l-6.92-14.78     c-2.22,10.5-5.15,20.98-9.22,32.99c-1.25,3.69-4.56,6.33-8.43,6.73c-0.35,0.04-0.71,0.06-1.06,0.06c-3.56,0-6.77-1.83-8.59-4.9     c-0.72-1.43-4.25-4.83-8.2-7.91c-0.91-0.74-1.83-1.47-2.8-2.23c-0.79-0.62-1.6-1.26-2.41-1.91c-0.17,1.56-0.26,3.25-0.26,5.17     c-0.02,3.32,0.27,7.05,0.58,11c0.34,4.36,0.73,9.31,0.75,14.48c0.03,12.37-2.62,22.87-8.11,32.11c0,0.01,0,0.01-0.01,0.01     c-5.32,9.1-8.03,19.06-8.04,29.59c0,15.44,6.14,30.64,16.86,41.71c11.85,12.18,27.95,18.64,46.58,18.68     c17.34-0.02,33.44-6.58,45.34-18.49c11.3-11.35,17.78-26.73,17.771-42.21c0-8.39-1.83-16.62-5.44-24.46c0-0.01,0-0.01,0-0.01     c-6.08-13.1-9.189-27.39-11.939-40c-0.801-3.67-1.551-7.14-2.36-10.53c-0.01-0.01-0.01-0.01-0.01-0.02     c-0.17-0.72-0.261-1.48-0.261-2.24c-0.01-2.22,0.74-4.42,2.11-6.18c1.4-1.8,3.38-3.07,5.6-3.59c2.931-0.69,6.091,0.01,8.45,1.86     c1.811,1.41,3.05,3.34,3.57,5.58c0.77,3.3,1.51,6.67,2.229,9.93c2.961,13.48,5.761,26.21,10.75,36.77l0.03,0.07     c4.83,10.48,7.28,21.53,7.271,32.82c0,10.51-2.11,20.81-6.261,30.6c-4.079,9.61-9.909,18.26-17.34,25.72     c-7.54,7.59-16.399,13.56-26.319,17.75c-10.42,4.4-21.561,6.63-33.12,6.63H261.1z M292.76,100.26c-1.69,0-3.37-0.44-4.86-1.26     c-2.33-1.3-4.02-3.43-4.75-6c-0.729-2.57-0.42-5.27,0.87-7.6c1.771-3.17,5.12-5.14,8.75-5.14c1.69,0,3.37,0.43,4.851,1.26     c2.34,1.29,4.029,3.42,4.76,5.99c0.729,2.57,0.42,5.27-0.88,7.61C299.74,98.29,296.39,100.26,292.76,100.26z"></path></g><g><path d="M264.39,228.82h-0.109c-11.88,0-22.17-2.5-30.59-7.43c-8.82-5.13-14.02-12.08-16.82-17.02     c-5.64-10-6.72-19.38-6.86-24.08c0-0.13-0.01-0.23-0.01-0.29c0-5.51,4.49-10,10-10c5.47,0,9.95,4.45,10,9.92c0,0,0,0,0,0.01v0.03     c0,0.07,0.01,0.21,0.02,0.41c0.02,0.4,0.07,1.05,0.19,1.9c0.2,1.57,0.64,4.01,1.59,6.77c2.39,6.83,6.3,11.76,11.96,15.07     c5.44,3.16,12.19,4.69,20.63,4.71c4.61,0,9.71-0.5,15.16-1.46c0.59-0.11,1.18-0.16,1.77-0.16c4.841,0,8.98,3.47,9.83,8.25     c0.471,2.63-0.119,5.28-1.64,7.47c-1.53,2.19-3.82,3.66-6.45,4.12C276.47,228.22,270.189,228.82,264.39,228.82z"></path></g><g><path d="M120,160L120,160c-8.01,0-15.55-3.12-21.21-8.79C93.12,145.55,90,138.02,90,130s3.12-15.55,8.79-21.21     c5.66-5.67,13.2-8.79,21.21-8.79c8.02,0,15.55,3.12,21.21,8.79c5.67,5.66,8.79,13.19,8.79,21.21s-3.12,15.55-8.79,21.21     C135.55,156.88,128.02,160,120,160z M120,120c-5.5,0.01-9.99,4.5-10,10c0.01,5.5,4.5,9.99,10,10c5.5-0.01,9.99-4.5,10-10     C129.99,124.5,125.5,120.01,120,120L120,120z"></path></g><g><path d="M390,110L390,110c-10.69,0-20.73-4.16-28.28-11.72C354.16,90.73,350,80.69,350,70c0-10.68,4.16-20.73,11.72-28.28     C369.27,34.17,379.31,30,390,30c10.689,0,20.729,4.17,28.28,11.72C425.84,49.27,430,59.32,430,70c0,10.69-4.16,20.73-11.72,28.28     C410.729,105.84,400.689,110,390,110z M390,50c-11.01,0.02-19.98,8.99-20,20c0.02,11.01,8.99,19.98,20,20     c11.01-0.02,19.979-8.99,20-20C409.979,58.99,401.01,50.02,390,50L390,50z"></path></g></g></g></svg>