<svg height='100px' width='100px'  fill="#000000" xmlns="http://www.w3.org/2000/svg" xmlns:xlink="http://www.w3.org/1999/xlink" version="1.1" x="0px" y="0px" viewBox="0 0 100 100" style="enable-background:new 0 0 100 100;" xml:space="preserve"><style type="text/css">
	.st0{fill:none;stroke:#000000;stroke-width:2;stroke-linecap:round;stroke-linejoin:round;stroke-miterlimit:10;}
	.st1{fill:none;stroke:#000000;stroke-width:2.2;stroke-linecap:round;stroke-linejoin:round;stroke-miterlimit:10;}
</style><path d="M28.8,42.2c1.3,0.2,2.9,0.3,4.7,0.3c0.4,0,0.8,0,1.3,0c-2.7,1.4-8.4,4.6-7.3,7c0.3,0.7,1.1,1,2.3,1c0.6,0,1.3-0.1,2.1-0.3  c1.6-0.4,3.6-1,5.6-1.9c-1.5,1.7-2.7,3.4-3.6,4.8c-1.2,2.2-1.4,3.6-0.6,4.4c0.3,0.3,0.7,0.4,1.2,0.4c0.8,0,1.9-0.4,3.2-1.3  c1.4-0.9,3-2.3,4.5-3.9c-1,2.9-2.9,9.1-0.4,10.1C42,63,42.2,63,42.4,63c0.9,0,2-0.9,3.1-2.6c1.1-1.6,2.2-3.9,3.2-6.4  c0,0,0-0.1,0-0.1C47.8,63,47,76.8,48.9,87c0.1,0.5,0.5,0.8,1,0.8c0.1,0,0.1,0,0.2,0c0.5-0.1,0.9-0.6,0.8-1.2  c-1.9-10.2-0.9-24.4,0-33.4c0.1,0.3,0.1,0.6,0.2,0.9c0.5,2.6,1.2,5.1,2,6.9c0.9,2.1,1.9,3.1,2.9,3.1c0.1,0,0.2,0,0.3,0  c2.6-0.5,1.9-7,1.4-10c1.3,1.8,2.6,3.4,3.8,4.6c1.3,1.3,2.4,1.9,3.3,1.9c0.3,0,0.6-0.1,0.9-0.3c2.2-1.4-0.9-7.2-2.4-9.8  c2,1.3,5.7,3.6,8,3.6c0.7,0,1.3-0.2,1.6-0.7c1.5-2.2-3.5-6.3-5.9-8.2c2.2,0.5,4.2,0.7,5.9,0.7c0,0,0.1,0,0.1,0c2.4,0,3.8-0.5,4-1.7  c0.6-2.6-5.6-4.6-8.5-5.4c2.2-0.4,4.2-0.9,5.7-1.5c2.3-0.9,3.4-1.9,3.2-3.1c-0.2-1.2-1.5-1.8-4-2c-1.7-0.1-3.7,0-5.9,0.2  c1.9-1.2,3.6-2.4,4.8-3.6c1.8-1.7,2.4-3.1,1.8-4.1c-1.3-2.3-7.2,0.5-9.9,2c1.8-2.5,5.4-7.9,3.3-9.5c-2.1-1.6-6.5,3.2-8.4,5.6  c0.6-2.2,0.9-4.2,1-5.9c0.1-2.5-0.4-3.9-1.5-4.2c-2.5-0.7-4.8,5.4-5.7,8.3c-0.3-2.2-0.7-4.2-1.3-5.8c-0.8-2.4-1.8-3.5-2.9-3.4  c-1.2,0.1-1.9,1.4-2.2,3.9c-0.2,1.7-0.2,3.7-0.1,5.9C45.3,20,44.1,18.3,43,17c-1.6-1.9-2.9-2.6-4-2c-2.3,1.2,0.2,7.2,1.6,10  c-2.4-1.9-7.7-5.7-9.4-3.7c-1.7,2,2.9,6.6,5.2,8.7c-2.9-0.9-9.2-2.5-10.1,0.1c-0.4,1.1,0.5,2.3,2.6,3.6c1.4,0.9,3.3,1.7,5.4,2.5  c-2.2,0.2-4.3,0.5-5.9,1c-2.4,0.7-3.5,1.6-3.5,2.8C25,41,26.3,41.8,28.8,42.2z M29.4,48.6c0.6-0.9,2.9-2.8,7.2-4.8  c4.3-2,7.2-2.6,8.3-2.5c-0.6,0.9-3,2.8-7.2,4.8C33.5,48.1,30.5,48.7,29.4,48.6z M41.6,50.6c-3.2,3.4-5.8,5.1-6.8,5.4  c0.2-1,1.7-3.7,4.9-7.1c3.2-3.4,5.8-5.1,6.8-5.4C46.3,44.5,44.8,47.2,41.6,50.6z M46.9,53.3c-1.7,4.4-3.4,6.9-4.3,7.5  c-0.2-1,0.2-4.1,1.9-8.5c1.7-4.4,3.4-6.9,4.3-7.5C48.9,45.9,48.6,48.9,46.9,53.3z M55.9,62.1c-0.7-0.8-2-3.5-2.9-8.2  c-0.9-4.6-0.7-7.7-0.4-8.7c0.7,0.8,2,3.5,2.9,8.2h0C56.4,58,56.2,61.1,55.9,62.1z M64.4,58.6c-0.9-0.5-3.2-2.6-5.7-6.5  c-2.6-4-3.5-6.8-3.6-7.9c0.9,0.5,3.2,2.6,5.7,6.5C63.4,54.7,64.3,57.6,64.4,58.6z M71,52.3c-1.1-0.1-3.9-1.2-7.7-3.9s-5.8-5-6.3-6  c1.1,0.1,3.9,1.2,7.7,3.9S70.6,51.4,71,52.3z M74.8,44c-1,0.3-4.1,0.3-8.6-0.8c-4.6-1.1-7.3-2.5-8-3.2c1-0.3,4.1-0.3,8.6,0.8  S74,43.2,74.8,44z M75.2,34.8c-0.8,0.7-3.6,1.8-8.3,2.5c-4.7,0.7-7.7,0.4-8.7,0c0.8-0.7,3.6-1.8,8.3-2.5  C71.2,34.1,74.2,34.4,75.2,34.8z M72.2,26.2c-0.5,0.9-2.7,3-6.8,5.4c-4.1,2.4-7,3.2-8,3.2c0.5-0.9,2.7-3,6.8-5.4  C68.2,27,71.1,26.2,72.2,26.2z M59.9,25.3c2.9-3.7,5.3-5.6,6.3-6c-0.2,1-1.4,3.8-4.2,7.5c-2.9,3.7-5.3,5.6-6.3,6  C55.8,31.8,57,29,59.9,25.3z M54.4,23c1.3-4.5,2.8-7.1,3.6-7.9c0.2,1,0.2,4.1-1.1,8.6c-1.3,4.5-2.8,7.1-3.6,7.9  C53,30.6,53.1,27.5,54.4,23z M51.8,33.1c0.2,0.3,0.5,0.5,0.9,0.6c0.1,0,0.3,0.1,0.4,0.1c0.2,0,0.4-0.1,0.6-0.1  c0.1,0.4,0.3,0.7,0.6,0.9c0.3,0.2,0.6,0.3,1,0.3c0,0,0,0,0,0c-0.1,0.4,0,0.7,0.2,1.1c0.2,0.3,0.5,0.5,0.8,0.7  c-0.2,0.3-0.3,0.7-0.2,1c0.1,0.4,0.2,0.7,0.5,0.9c-0.3,0.2-0.5,0.5-0.6,0.9c-0.1,0.4,0,0.7,0.1,1.1c-0.4,0.1-0.7,0.3-0.9,0.6  c-0.2,0.3-0.3,0.7-0.3,1c-0.4,0-0.7,0-1,0.2c-0.3,0.2-0.5,0.5-0.6,0.8c-0.3-0.2-0.7-0.2-1.1-0.2c-0.4,0.1-0.7,0.3-0.9,0.5  c-0.1,0-0.1,0-0.2-0.1c-0.2,0-0.5,0-0.7,0.1c-0.2-0.4-0.5-0.7-0.9-0.9c-0.3-0.1-0.7-0.1-1.1,0c-0.1-0.4-0.2-0.7-0.5-1  c-0.3-0.3-0.6-0.4-1-0.4c0.1-0.4,0.1-0.7-0.1-1.1c-0.2-0.3-0.4-0.6-0.8-0.7c0.2-0.3,0.3-0.7,0.3-1c0-0.4-0.2-0.7-0.4-1  c0.3-0.2,0.5-0.5,0.7-0.8c0.1-0.3,0.1-0.7,0-1.1c0.4-0.1,0.7-0.2,0.9-0.5c0.2-0.3,0.4-0.6,0.4-1c0.1,0,0.2,0,0.3,0  c0.2,0,0.5-0.1,0.7-0.2c0.3-0.2,0.6-0.4,0.7-0.8c0.3,0.2,0.6,0.3,0.9,0.3c0.1,0,0.1,0,0.2,0C51.2,33.5,51.5,33.4,51.8,33.1z   M48.8,14.3c0.6,0.9,1.7,3.7,2.1,8.4s0,7.7-0.4,8.7c-0.6-0.9-1.7-3.7-2.1-8.4c0,0,0,0,0,0C48,18.3,48.4,15.3,48.8,14.3z M40.1,17  c0.9,0.6,2.9,2.8,5.1,7c2.2,4.2,2.9,7.1,2.9,8.2c-0.9-0.6-2.9-2.8-5.1-7C40.7,21,40,18,40.1,17z M32.9,22.7c1,0.2,3.8,1.5,7.4,4.6  s5.3,5.5,5.7,6.5c-1-0.2-3.8-1.5-7.4-4.6C35,26.1,33.3,23.7,32.9,22.7z M28.4,30.7c1-0.2,4.1,0,8.5,1.5c4.5,1.5,7,3.1,7.7,3.9  c-1,0.2-4.1,0-8.5-1.5C31.7,33.1,29.1,31.4,28.4,30.7z M35.7,38c4.7-0.3,7.7,0.3,8.6,0.8c-0.9,0.6-3.8,1.5-8.5,1.8  c-4.7,0.3-7.7-0.3-8.6-0.8C28.1,39.2,31,38.2,35.7,38z"></path></svg>