<svg height='100px' width='100px'  fill="#000000" xmlns="http://www.w3.org/2000/svg" viewBox="0 0 32 32" x="0px" y="0px"><title>Soda Cola Can Drink Drinks Fresh Sparkling Water</title><g><path d="M25,8a.9953.9953,0,0,0-.9594-.9918L22.332,4.4453A1,1,0,0,0,21.5,4h-9a1,1,0,0,0-.832.4453L9.9594,7.0082A.9953.9953,0,0,0,9,8V26c0,.0065.0036.0119.0037.0184a.9939.9939,0,0,0,.0684.339c.011.0284.0256.0531.039.08a.9721.9721,0,0,0,.0569.1171l2,3A1,1,0,0,0,12,30H22a1,1,0,0,0,.832-.4453l2-3a.9721.9721,0,0,0,.0569-.1171c.0134-.0271.028-.0518.039-.08a.9939.9939,0,0,0,.0684-.339c0-.0065.0037-.0119.0037-.0184ZM11,20.5872,16.1483,25H11ZM17.6851,25,11,19.27V9h4.3126L23,15.7264V25ZM23,9v5.3986L16.83,9ZM13.0352,6h7.93l.6667,1h-9.263Zm8.43,22h-8.93l-.6665-1H22.1313Zm-2.65-11.8887a.5007.5007,0,0,1,.1495.5742l-2,5A.5006.5006,0,0,1,16.5,22a.5009.5009,0,0,1-.4644-.6855l1.4024-3.5059L15.7773,18.916a.5.5,0,0,1-.7417-.6015l2-5a.5.5,0,0,1,.9288.371L16.562,17.1914l1.6607-1.1074A.4991.4991,0,0,1,18.8149,16.1113Z"></path></g></svg>