<svg height='100px' width='100px'  fill="#000000" xmlns="http://www.w3.org/2000/svg" xmlns:xlink="http://www.w3.org/1999/xlink" viewBox="0 0 60 60" version="1.1" x="0px" y="0px"><title>Painting and Illustration - Outline - 034 - Draw</title><desc>Created with Sketch.</desc><g stroke="none" stroke-width="1" fill="none" fill-rule="evenodd"><g fill-rule="nonzero" fill="#000000"><path d="M30,0 C13.4314575,-1.01453063e-15 2.02906125e-15,13.4314575 0,30 C-2.02906125e-15,46.5685425 13.4314575,60 30,60 C46.5685425,60 60,46.5685425 60,30 C59.98123,13.4392385 46.5607615,0.0187700372 30,0 Z M30,58 C14.536027,58 2,45.463973 2,30 C2,14.536027 14.536027,2 30,2 C45.463973,2 58,14.536027 58,30 C57.9826624,45.4567858 45.4567858,57.9826624 30,58 Z"></path><path d="M43.23926,10.104 L43.23926,10.10352 C42.0666541,8.93421926 40.1689213,8.93443396 38.99658,10.104 L36.168,12.93262 L31.92532,17.17529 L14.95508,34.14551 C14.94714,34.15344 14.94415,34.16412 14.93652,34.17224 C14.9061976,34.209763 14.8786386,34.2494372 14.85406,34.29095 C14.8072045,34.3539523 14.7680499,34.4223309 14.73743,34.49463 C14.73138,34.51013 14.71869,34.52069 14.71343,34.53663 L11.11043,45.35939 C10.9024329,45.9673328 10.9998817,46.6382362 11.372242,47.1618822 C11.7446023,47.6855281 12.346318,47.9978514 12.98885,48.00099 L12.99764,47.99952 L13,48 L34,48 C34.5522847,48 35,47.5522847 35,47 C35,46.4477153 34.5522847,46 34,46 L19.31677,46 L24.46338,44.28662 C24.47394,44.28308 24.48077,44.27454 24.49115,44.27069 C24.6081348,44.2087263 24.7208702,44.1390526 24.82861,44.06213 C24.83636,44.05481 24.84692,44.05255 24.85449,44.04492 L41.82471,27.07471 L46.06738,22.832 L48.89648,20.00339 C50.0655389,18.8306841 50.0653242,16.9331513 48.896,15.76071 L43.23926,10.104 Z M20.023,38.97705 C20.4837152,39.4369233 21.139932,39.6429036 21.78081,39.52881 C22.3467918,39.3622033 22.9578607,39.4628804 23.44048,39.80225 C24.05535,40.41754 23.70122,41.77582 23.40648,42.53101 L18.35839,44.21521 C17.9345119,42.447724 16.5562666,41.0666285 14.78966,40.6391 L16.469,35.59448 C17.19117,35.31464 18.57594,34.93658 19.19728,35.55957 C19.5368136,36.0417291 19.6378483,36.6524404 19.47169,37.21826 C19.3562522,37.8594376 19.5622135,38.5164956 20.023,38.97705 Z M13.00879,46 L13.00488,46 L14.15955,42.53162 C15.3248609,42.7680892 16.2351582,43.6795882 16.47009,44.84521 L13.00879,46 Z M24.85449,38.3877 C24.2110077,37.7673204 23.3418166,37.4370707 22.44873,37.47363 C22.1101225,37.4753547 21.7724077,37.5085374 21.43994,37.57275 C21.7706404,36.3639266 21.457983,35.0699693 20.61182,34.14551 C20.0916858,33.6322427 19.4101519,33.3145021 18.68262,33.24609 L32.63232,19.29639 L39.70361,26.36768 L25.75391,40.31738 C25.684974,39.5898502 25.3673197,38.9083319 24.85449,38.3877 Z M41.11768,24.95361 L34.04639,17.88232 L36.875,15.05371 L43.94629,22.125 L41.11768,24.95361 Z M47.48193,18.58936 L45.36035,20.71094 L38.28906,13.63965 L40.41064,11.51855 C40.598107,11.3307505 40.8525664,11.2252179 41.11792,11.2252179 C41.3832736,11.2252179 41.637733,11.3307505 41.8252,11.51855 L47.48145,17.1748 C47.8714725,17.5655898 47.8716872,18.1983056 47.48193,18.58936 L47.48193,18.58936 Z"></path><path d="M35.46094,23.53906 C35.2734567,23.3514824 35.0191181,23.2460944 34.75391,23.2460944 C34.4887019,23.2460944 34.2343633,23.3514824 34.04688,23.53906 L24.14746,33.43848 C23.8948625,33.6910775 23.7962119,34.0592464 23.888669,34.404301 C23.9811261,34.7493556 24.2506444,35.0188739 24.595699,35.111331 C24.9407536,35.2037881 25.3089225,35.1051375 25.56152,34.85254 L35.46094,24.95313 C35.6485183,24.765645 35.7539065,24.5113048 35.7539065,24.246095 C35.7539065,23.9808852 35.6485183,23.726545 35.46094,23.53906 L35.46094,23.53906 Z"></path></g></g></svg>