<?xml version="1.0" encoding="utf-8"?>
<!-- Generator: Adobe Illustrator 24.2.1, SVG Export Plug-In . SVG Version: 6.00 Build 0)  -->
<svg version="1.1" id="Layer_1" xmlns="http://www.w3.org/2000/svg" xmlns:xlink="http://www.w3.org/1999/xlink" x="0px" y="0px"
	 viewBox="0 0 100 100" enable-background="new 0 0 100 100" xml:space="preserve">
<g>
	<path d="M45.406,42.94c-1.161-0.097-2.611-0.387-4.352-0.774c-6.383,12.669-11.702,28.143-14.217,39.555
		c-1.257,5.513-2.031,9.865-1.257,13.443h15.377c0-0.097,0-0.29-0.097-0.484c-0.387-1.644-0.58-3.675-0.58-5.899
		c0-5.609,1.451-12.669,5.609-17.988c-1.451-0.677-2.901-1.547-4.159-2.418c-2.708-2.031-4.545-4.449-3.965-7.253
		c1.161-5.029,5.126-5.609,9.478-6.19l0,0c0.484-1.934,1.161-3.965,1.934-5.899c0.677-1.741,1.451-3.482,2.321-5.126
		c-1.547-0.29-2.998-0.484-4.449-0.677C47.05,43.23,45.406,42.94,45.406,42.94z M24.903,100c-0.387,0-0.87-0.097-1.257-0.29
		c-2.224-0.774-3.191-3.385-3.095-7.35c0-2.998,0.58-7.06,1.644-11.702c2.515-11.412,7.834-26.789,14.12-39.555
		c-5.126-1.257-10.928-3.095-15.571-5.609c-5.706-2.901-9.768-6.77-9.478-11.799c0.58-9.284,8.221-11.509,16.441-13.83
		c2.128-0.677,4.352-1.257,6.48-2.128c2.611-0.967,4.932-2.224,7.157-3.385c6.093-3.191,11.315-5.899,17.988-3.288
		c4.739,1.838,7.93,6.286,11.605,11.509c3.385,4.642,7.157,9.961,12.766,14.313c2.128,1.547,3.675,3.482,4.449,5.706
		c0.774,2.128,0.774,4.545-0.193,6.673c-0.87,2.224-2.901,3.675-5.416,4.642c-2.611,1.064-5.899,1.547-8.994,1.644
		c-5.513,0.193-11.412-0.29-17.021-0.967c-1.161,2.031-2.128,4.159-2.901,6.19c-0.387,0.967-0.774,2.031-1.064,2.998
		c0.29-0.097,0.58-0.193,0.87-0.29c3.288-1.161,6.093-2.128,9.478-0.193c2.321,1.354,3.482,3.482,4.836,6.093
		c1.161,2.031,2.418,4.352,4.545,6.48c5.126,5.319,1.644,11.702-6.77,10.832c-2.321-0.29-4.739-0.87-6.963-1.451
		c-3.578,6.383-2.128,13.54-1.257,17.698c0.29,1.547,0.58,2.805,0.58,3.675c0,2.128-0.87,3.385-2.998,3.385H24.903L24.903,100z
		 M53.917,73.888c-1.161-0.29-2.321-0.677-3.482-1.161c-4.062,4.449-5.416,10.928-5.416,16.054c0,1.934,0.193,3.578,0.484,4.836
		c0.193,0.677,0.29,1.257,0.484,1.547h6.867l-0.193-1.257C51.692,89.265,50.048,81.528,53.917,73.888z M44.536,64.507
		c2.998,2.128,7.544,3.868,9.574,4.545l0.774,0.193c3.385,1.064,7.544,2.321,11.122,2.708c2.128,0.193,5.513-0.097,2.901-2.708
		c-2.611-2.708-4.062-5.319-5.319-7.64c-1.064-1.934-1.934-3.578-3.095-4.255c-1.451-0.774-3.288-0.193-5.513,0.58
		c0,0-3.288,1.064-3.772,1.161c-1.064,0.29-2.224,0.387-3.385,0.58c-2.611,0.29-5.029,0.677-5.319,2.418
		C42.311,62.669,43.279,63.54,44.536,64.507z M22.872,31.335c7.447,3.868,18.375,6.19,23.211,6.963l1.644,0.193
		c7.834,1.161,17.408,2.611,25.629,2.321c2.708-0.097,5.416-0.484,7.544-1.257c1.354-0.58,2.321-1.257,2.708-2.128
		c0.484-1.064,0.484-2.128,0.097-3.288c-0.484-1.257-1.451-2.515-2.805-3.482c-6.19-4.739-10.251-10.445-13.83-15.28
		c-3.288-4.642-6.093-8.511-9.478-9.865c-4.642-1.838-8.994,0.387-14.12,3.095c-2.321,1.161-4.836,2.515-7.544,3.578
		c-2.224,0.87-4.642,1.547-6.963,2.224c-6.48,1.838-12.573,3.675-12.959,9.574C15.812,26.692,18.81,29.207,22.872,31.335z"/>
</g>
</svg>
