<svg height='100px' width='100px'  fill="#000000" xmlns="http://www.w3.org/2000/svg" xmlns:xlink="http://www.w3.org/1999/xlink" version="1.1" x="0px" y="0px" viewBox="0 0 90 90" enable-background="new 0 0 90 90" xml:space="preserve"><path d="M38.5,32.3h13.9c0.7,0,1.2-0.5,1.2-1.2s-0.5-1.2-1.2-1.2H38.5c-0.7,0-1.2,0.5-1.2,1.2S37.9,32.3,38.5,32.3z"></path><path d="M41.8,54.2c0,1.3,0.6,2.1,1.8,2.8v-5.6C42.4,52,41.8,53,41.8,54.2z"></path><path d="M49.1,27l6.6-11.4c0.8-1.4,0.4-4.3-0.2-5.8c-0.5,0.6-1.2,1.1-2.1,1c-1.5-0.1-2.5-1.7-3.6-4c-0.1-0.3-0.4-0.4-0.5-0.4  c-0.1,0-0.4,0-0.6,0.2L47.4,8c-0.1,0.1-0.3,0.3-0.4,0.4l-2.9,2.2c-1.3,1-3.2,0.9-4.5-0.2c-0.3-0.2-0.6-0.2-0.7-0.2  c-0.1,0-0.4,0.1-0.4,0.4c-0.4,1.3-1.2,1.7-1.8,1.8c-1,0.2-2-0.5-2.8-1.4c-0.2,1.4-0.2,3.6,0.4,4.7L40.9,27H49.1z"></path><path d="M46.4,62.6V69c1.4-0.6,2.1-1.8,2.1-3.1C48.5,64.5,47.9,63.5,46.4,62.6z"></path><path d="M55.4,38.9c-0.9-1.6-2.1-2.9-3.5-3.8H38.5c-0.1,0-0.2,0-0.3,0c-1.5,1-2.7,2.3-3.6,3.9L19.2,65.6c-2.2,3.8-2.2,8.2,0,12  c2.2,3.8,6.1,6,10.4,6h30.7c4.3,0,8.2-2.2,10.4-6c2.2-3.8,2.2-8.2,0-12L55.4,38.9z M46.4,72.5v2.7c0,0.8-0.6,1.4-1.4,1.4  s-1.4-0.6-1.4-1.4v-2.4c-2,0-3.8-0.4-5.3-1c-0.8-0.3-1.2-1.2-0.9-2l0-0.1c0.3-0.9,1.3-1.4,2.2-1c1.2,0.5,2.6,0.9,4,0.9v-8.2  c-4.1-1.5-6-3.9-6-6.7c0-3.3,2.2-6,6-6.8v-2.7c0-0.8,0.6-1.4,1.4-1.4s1.4,0.6,1.4,1.4v2.5c1.5,0.1,2.9,0.4,4,0.8  c0.8,0.3,1.3,1.3,1,2.1c-0.3,0.9-1.3,1.4-2.1,1c-0.8-0.3-1.8-0.5-2.8-0.6v7.4c4.2,1.6,6.3,3.7,6.3,7.3  C52.7,69.1,50.4,71.7,46.4,72.5z"></path></svg>