<svg height='100px' width='100px'  fill="#000000" xmlns="http://www.w3.org/2000/svg" version="1.0" viewBox="0 0 205.000000 418.000000" preserveAspectRatio="xMidYMid meet" x="0px" y="0px"><g transform="translate(0.000000,418.000000) scale(0.100000,-0.100000)" fill="#000000" stroke="none"><path d="M963 4162 c-11 -9 -44 -63 -72 -118 l-50 -102 -88 -12 c-137 -18 -165 -29 -186 -72 -30 -62 -17 -91 79 -183 l83 -80 -20 -112 c-18 -102 -18 -115 -5 -148 11 -24 26 -40 46 -48 17 -6 29 -14 28 -17 -2 -3 -14 -33 -28 -68 -23 -58 -27 -63 -50 -58 -55 12 -150 18 -183 12 -20 -4 -50 -20 -67 -37 -27 -27 -30 -37 -30 -92 0 -45 7 -77 25 -116 25 -53 25 -54 7 -75 -45 -49 -56 -121 -27 -176 l15 -28 -119 5 c-137 7 -202 -5 -260 -47 -89 -65 -75 -229 36 -412 l40 -64 -52 -56 c-65 -70 -85 -112 -85 -182 0 -82 50 -201 125 -300 l24 -31 -51 -50 c-95 -94 -113 -182 -52 -246 30 -31 105 -59 160 -59 29 0 33 -3 43 -44 13 -53 64 -102 117 -112 52 -10 152 2 220 25 32 11 62 17 66 15 5 -3 8 -39 8 -80 l0 -74 -54 0 c-39 0 -62 -6 -87 -23 -100 -67 -115 -195 -34 -286 27 -31 37 -58 68 -191 20 -85 50 -215 68 -287 l31 -133 373 0 373 0 10 43 c6 23 36 152 68 287 52 224 60 248 90 282 59 66 67 161 21 229 -36 53 -71 72 -137 77 l-60 4 0 67 c0 37 5 72 10 77 7 7 28 5 66 -8 66 -22 167 -33 218 -24 53 10 104 59 117 112 10 41 14 44 43 44 55 0 130 28 160 59 61 64 43 152 -52 246 l-50 49 40 59 c66 97 100 181 106 257 4 60 1 73 -23 118 -15 27 -46 69 -70 92 l-43 42 40 65 c78 129 109 246 88 333 -24 98 -114 136 -307 128 -102 -5 -113 -4 -108 11 32 78 30 116 -11 176 l-25 37 26 63 c42 105 31 168 -35 213 -32 22 -42 24 -120 19 -47 -3 -94 -9 -105 -12 -18 -5 -25 4 -51 63 l-31 69 29 11 c18 7 34 23 44 47 13 33 13 46 -6 148 l-20 112 84 80 c96 92 109 121 79 183 -21 43 -49 54 -186 72 l-88 12 -50 102 c-28 55 -61 109 -72 118 -13 10 -39 18 -62 18 -23 0 -49 -8 -62 -18z m295 -338 l124 -18 -91 -85 -90 -86 20 -114 c11 -62 18 -116 15 -118 -2 -3 -49 18 -103 46 -55 28 -103 51 -108 51 -5 0 -53 -23 -108 -51 -54 -28 -101 -48 -104 -46 -3 3 4 57 16 119 l21 113 -91 86 -91 85 125 18 124 18 54 110 54 109 54 -109 54 -110 125 -18z m-169 -491 c53 -49 103 -134 142 -245 24 -67 36 -88 47 -83 8 3 49 14 90 25 91 24 150 26 158 5 9 -23 -13 -77 -61 -149 -25 -36 -45 -68 -45 -71 0 -2 23 -14 50 -26 83 -36 85 -60 13 -139 l-34 -39 17 -58 c10 -32 21 -61 24 -66 3 -4 29 0 57 8 85 25 154 36 234 36 92 1 145 -18 155 -56 14 -55 -38 -184 -122 -301 l-43 -62 -288 107 c-158 59 -426 159 -594 221 l-306 114 9 27 c8 24 4 34 -31 79 -23 29 -41 60 -41 70 0 23 41 57 80 65 17 4 32 10 34 14 3 4 -15 35 -39 70 -52 74 -79 143 -62 160 18 18 79 13 172 -14 48 -14 88 -24 90 -23 1 2 16 43 33 92 17 49 46 114 64 144 39 63 109 132 136 132 11 0 38 -17 61 -37z m-694 -814 c33 -6 382 -130 775 -276 749 -278 750 -278 767 -342 6 -25 -11 -109 -26 -124 -8 -8 -1775 656 -1794 673 -14 12 2 49 25 61 46 25 139 28 253 8z m604 -500 c465 -177 850 -325 855 -329 5 -5 -17 -41 -48 -81 -31 -40 -56 -75 -56 -79 0 -4 28 -30 61 -59 69 -58 121 -119 116 -135 -7 -22 -58 -37 -151 -43 -59 -4 -96 -10 -96 -17 0 -6 5 -28 11 -49 15 -57 -7 -87 -64 -87 -54 0 -125 20 -207 58 -36 16 -68 28 -72 26 -4 -3 -13 -22 -19 -44 -24 -78 -99 -110 -174 -74 -36 17 -57 43 -111 140 l-21 37 -34 -63 c-41 -78 -95 -120 -157 -123 -50 -2 -85 26 -114 90 l-19 42 -57 -26 c-95 -43 -134 -55 -198 -60 -58 -5 -63 -4 -79 20 -13 21 -14 32 -6 64 17 61 16 63 -41 63 -76 0 -170 17 -187 34 -13 13 -11 19 10 50 13 20 54 61 92 92 37 31 67 60 67 64 0 3 -25 38 -55 76 -71 88 -135 214 -135 264 0 48 37 100 118 165 34 28 62 54 62 58 0 4 -18 31 -39 60 -60 81 -120 187 -104 187 3 0 387 -144 852 -321z m106 -1017 c20 -11 53 -16 103 -16 l72 1 0 -33 0 -34 -255 0 -255 0 0 34 0 33 61 1 c62 1 152 34 178 66 10 12 16 10 39 -11 15 -14 41 -32 57 -41z m381 -215 c32 -37 30 -62 -5 -98 l-29 -29 -427 0 -427 0 -29 29 c-16 16 -29 38 -29 48 0 25 27 62 54 73 11 5 212 8 444 7 l424 -2 24 -28z m-76 -246 c0 -8 -87 -380 -96 -413 -5 -17 -27 -18 -289 -18 -262 0 -284 1 -289 18 -10 35 -96 403 -96 413 0 5 151 9 385 9 212 0 385 -4 385 -9z"></path><path d="M956 2870 c-37 -12 -94 -66 -112 -107 -20 -47 -17 -120 7 -171 53 -109 209 -137 301 -54 48 44 68 85 68 144 -1 136 -130 228 -264 188z m134 -100 c14 -9 31 -33 39 -53 12 -32 11 -40 -5 -74 -25 -51 -81 -79 -126 -64 -43 15 -65 37 -78 77 -10 28 -8 41 7 72 32 66 103 85 163 42z"></path><path d="M480 1789 c-53 -16 -95 -53 -120 -105 -45 -91 -6 -210 82 -255 61 -31 161 -24 212 14 56 43 79 97 74 173 -3 52 -9 70 -35 101 -16 21 -44 46 -60 55 -38 23 -108 30 -153 17z m117 -99 c45 -27 62 -84 39 -132 -51 -107 -206 -74 -206 44 0 32 7 47 34 74 40 40 83 45 133 14z"></path><path d="M1446 1786 c-144 -53 -172 -249 -50 -343 30 -22 49 -28 105 -31 60 -4 74 -1 113 22 65 38 91 86 91 168 0 58 -4 72 -30 109 -51 72 -149 104 -229 75z m140 -110 c27 -27 34 -42 34 -74 0 -118 -155 -151 -206 -44 -34 71 22 152 105 152 24 0 42 -9 67 -34z"></path></g></svg>