<svg height="100px" width="100px" fill="#000000" xmlns:x="http://ns.adobe.com/Extensibility/1.0/" xmlns:i="http://ns.adobe.com/AdobeIllustrator/10.0/" xmlns:graph="http://ns.adobe.com/Graphs/1.0/" xmlns="http://www.w3.org/2000/svg" xmlns:xlink="http://www.w3.org/1999/xlink" version="1.1" x="0px" y="0px" viewBox="0 0 55 55" style="enable-background:new 0 0 55 55;" xml:space="preserve">
	<g>
		
			<path d="M46.2,35.2c-1.3,1.2-2.2,2.6-3.5,3.9c0.1-4.9-0.4-9.6-1.6-14.3c0.8,0.5,1.7,1,2.4,1.6c2,1.5,3.6,3.4,4.9,5.6    c1.1,1.9,2.2,3.7,3,5.7c2.4,6.3-1.4,13.3-8,14.5c-3.5,0.6-6.6-0.5-9.1-3c-0.9-1-1.7-2.1-2.4-3.2c-2.6-4.3-4.8-8.3-7.1-12.2    c-0.2-0.3-0.4-0.4-0.7-0.4c-1.6,0.2-3.1-0.2-4.5-1c-0.1-0.1-0.3-0.2-0.4-0.2c1-0.7,2-1.4,3-2c0.1-0.1,0.3-0.1,0.4-0.1    c1.8,0.2,3.5-0.7,4.2-2.3c0.8-1.7,0.3-3.6-1-4.8c-2.1-1.8-5.8-0.6-6.4,2.1c-0.1,0.3-0.2,0.6-0.5,0.7c-0.9,0.5-1.8,1-2.8,1.5    c-0.2-1-0.2-1.8,0-2.7c0.7-3.6,4-6.1,7.8-5.9c3.5,0.2,6.4,3,6.8,6.6c0.2,2-0.4,3.8-1.6,5.4c-0.2,0.3-0.2,0.5-0.1,0.8    c2.4,4.1,4.7,8.2,7.1,12.2c0.4,0.7,0.9,1.3,1.4,1.9c1.3,1.4,2.8,2,4.7,1.7c1.9-0.3,3.5-1,4.7-2.6c1.6-2.1,1.8-4.4,0.7-6.8    C47.3,37,46.8,36.2,46.2,35.2z">
			</path>
			<path d="M21.7,2.8c0.5,0,1,0,1.5,0c0.4,0,0.5,0.1,0.6,0.5c0.2,2.1-0.4,4-1.5,5.7c-1.5,2.3-3.6,3.9-6.1,5.1    c-1.6,0.7-3.3,1.3-4.9,1.9c-1.9,0.7-3.6,1.6-4.9,3.2c-3,3.7-1.4,8.8,3.2,10.1c3,0.9,5.9,0.3,8.7-1c0.5-0.2,1-0.5,1.5-0.8    c0.3,0.4,0.6,0.9,1,1.4c-0.9,0.5-1.8,1-2.7,1.4c-2.7,1.2-5.5,1.7-8.4,1C6.6,30.7,4.3,29,3.2,26c-1.1-3.3-0.2-6.1,2.1-8.6    c1.6-1.7,3.7-2.8,6-3.5c2.2-0.7,4.4-1.6,6.3-2.9c1.7-1.2,3.1-2.6,3.8-4.6C21.8,5.2,21.8,4,21.7,2.8z">
			</path>
		
	</g>
</svg>
