<svg height='100px' width='100px'  fill="#000000" xmlns="http://www.w3.org/2000/svg" viewBox="0 0 36 36" x="0px" y="0px"><title>Монтажная область 93</title><path d="M8,16V31a3.00883,3.00883,0,0,0,3,3h2a3.00883,3.00883,0,0,0,3-3V16Z"></path><rect x="8" y="10" width="8" height="4"></rect><path d="M8,8h8l1.95-4.68a.99511.99511,0,0,0-.14-.9A.98242.98242,0,0,0,17,2H7.00034a.98244.98244,0,0,0-.81.42.99514.99514,0,0,0-.14.9Z"></path><rect x="22" y="12" width="8" height="4"></rect><path d="M22,18V29.86a4.00237,4.00237,0,1,0,8,0V18Z"></path><path d="M30,10V2.99869a.9953.9953,0,0,0-1.45-.89018l-6,3.00056a.98819.98819,0,0,0-.55.89018V10Z"></path></svg>