<svg height='100px' width='100px'  fill="#000000" xmlns="http://www.w3.org/2000/svg" xmlns:xlink="http://www.w3.org/1999/xlink" version="1.1" x="0px" y="0px" viewBox="0 0 64 64" enable-background="new 0 0 64 64" xml:space="preserve"><g><g><path d="M12,21h40c0.553,0,1-0.448,1-1v-6c0-0.552-0.447-1-1-1h-7.764L32.447,7.105c-0.281-0.141-0.613-0.141-0.895,0L19.763,13    H12c-0.552,0-1,0.448-1,1v6C11,20.552,11.448,21,12,21z M32,9.118L39.764,13H24.236L32,9.118z M13,15h38v4H13V15z"></path><path d="M54,49h-3v-1c0-0.553-0.447-1-1-1H14c-0.552,0-1,0.447-1,1v1h-3c-0.552,0-1,0.447-1,1v6c0,0.553,0.448,1,1,1h44    c0.553,0,1-0.447,1-1v-6C55,49.447,54.553,49,54,49z M53,55H11v-4h3c0.552,0,1-0.447,1-1v-1h34v1c0,0.553,0.447,1,1,1h3V55z"></path><path d="M14,25c-0.552,0-1,0.448-1,1v16c0,0.553,0.448,1,1,1h8c0.552,0,1-0.447,1-1V26c0-0.552-0.448-1-1-1H14z M21,41h-6V27h6V41    z"></path><path d="M28,25c-0.552,0-1,0.448-1,1v16c0,0.553,0.448,1,1,1h8c0.553,0,1-0.447,1-1V26c0-0.552-0.447-1-1-1H28z M35,41h-6V27h6V41    z"></path><path d="M42,25c-0.553,0-1,0.448-1,1v16c0,0.553,0.447,1,1,1h8c0.553,0,1-0.447,1-1V26c0-0.552-0.447-1-1-1H42z M49,41h-6V27h6V41    z"></path></g></g></svg>