<?xml version="1.0" encoding="utf-8"?>
<!-- Generator: Adobe Illustrator 24.2.1, SVG Export Plug-In . SVG Version: 6.00 Build 0)  -->
<svg version="1.1" id="Layer_1" xmlns="http://www.w3.org/2000/svg" xmlns:xlink="http://www.w3.org/1999/xlink" x="0px" y="0px"
	 viewBox="0 0 100 100" enable-background="new 0 0 100 100" xml:space="preserve">
<g>
	<path d="M33.83,62.098c0.165-2.203,0.553-4.557,2.002-6.725c1.453-2.178,3.953-4.122,8.323-5.447
		c0.543-0.165,0.968-0.257,1.413-0.307c0.213-0.023,0.43-0.037,0.665-0.043c-0.413-3.832-0.367-7.525-0.063-10.563
		c0.263-2.625,0.74-4.793,1.297-6.188c0.01-0.09,0.038-0.18,0.087-0.265c0.035-0.062,0.072-0.122,0.107-0.18
		c0.155-0.328,0.315-0.598,0.477-0.802c-0.233-3.022,0.112-5.91,0.457-8.798c0.173-1.45,0.347-2.9,0.443-4.332
		c-0.342-2.067-0.213-4.107,0.227-6.065c0.433-1.932,1.173-3.78,2.062-5.488c0.143-0.517,0.447-0.877,0.793-1.05
		c0.218-0.108,0.448-0.148,0.675-0.115c0.23,0.035,0.447,0.14,0.63,0.32c0.287,0.282,0.49,0.765,0.475,1.452
		c0.117,0.867,0.042,1.707-0.033,2.547c-0.133,1.483-0.267,2.968,0.912,4.382c0.075,0.08,0.132,0.178,0.16,0.292
		c0.333,1.303,0.22,2.17-0.257,2.853c-0.373,0.535-0.935,0.892-1.662,1.23c0.162,0.767,0.362,1.558,0.565,2.358
		c0.82,3.238,1.668,6.593,0.38,9.955c-0.088,0.453-0.192,0.862-0.293,1.263c-0.308,1.223-0.595,2.362-0.237,4.113
		c1.115,3.202,1.833,6.03,2.135,8.603c0.283,2.418,0.202,4.613-0.257,6.677c1.253,0.677,2.458,1.515,3.588,2.518
		c3.077,2.732,5.59,6.687,6.958,11.975c0.003,0.01,0.005,0.022,0.007,0.032l0,0c0.062,0.295,0.192,0.542,0.31,0.768
		c0.47,0.897,0.832,1.583-0.66,3.517c-0.817,3.523-2.46,6.777-4.105,10.028c-0.787,1.555-1.572,3.11-2.268,4.703
		c0.323,1.85,0.227,3.087,0.155,3.987c-0.038,0.473-0.067,0.84-0.013,1.088c0.197,0.918,0.78,0.818,1.16,0.753l0.058-0.01
		c0.745-0.125,1.277,0.252,1.565,0.778c0.117,0.213,0.19,0.452,0.215,0.685c0.027,0.243,0.003,0.492-0.072,0.717
		c-0.167,0.5-0.55,0.865-1.173,0.868l-4.173,0.092c-0.067,0.002-0.13-0.007-0.19-0.023l0,0c-1.15-0.32-1.43-1.535-1.737-2.878
		c-0.24-1.043-0.502-2.187-1.198-2.682c-0.033-0.023-0.063-0.05-0.09-0.077c-0.34-0.335-0.705-0.79-0.89-1.31
		c-0.117-0.33-0.163-0.683-0.093-1.052c0.07-0.365,0.248-0.727,0.582-1.065c0.342-0.348,0.857-0.678,1.598-0.963
		c0.855-1.283,1.17-3.732,1.495-6.267c0.473-3.677,0.967-7.52,3.252-9.025c-0.66-0.962-1.635-1.83-2.66-2.743
		c-1.56-1.39-3.228-2.877-4.277-5.048c-0.987,0.025-2.073-0.063-3.13-0.43c-1.193-0.413-2.33-1.172-3.217-2.492
		c-0.028-0.008-0.055-0.015-0.082-0.022c-0.635-0.163-1.107-0.078-1.443,0.13c-0.335,0.208-0.555,0.543-0.672,0.88
		c-0.022,0.06-0.037,0.112-0.048,0.157c-0.033,0.13-0.043,0.367-0.037,0.628c0.008,0.363,0.047,0.745,0.088,0.977
		c0.097,0.54,0.327,1.142,0.55,1.732c0.13,0.34,0.257,0.677,0.363,1.008c0.16-0.138,0.337-0.265,0.525-0.375
		c0.04-0.372,0.142-0.805,0.368-1.233c0.245-0.463,0.63-0.913,1.23-1.263c0.415-0.243,0.435-0.242,0.875-0.19l0.035,0.003l0,0
		c0.697,0.08,1.502,0.328,2.268,0.698c0.722,0.348,1.422,0.812,1.975,1.348l0.052,0.05c0.303,0.288,0.323,0.307,0.357,0.79
		c0.038,0.562-0.053,1.042-0.242,1.452c-0.097,0.208-0.215,0.397-0.353,0.565c0.218,0.293,0.4,0.585,0.552,0.875
		c0.577,1.108,0.693,2.185,0.517,3.148c-0.178,0.962-0.652,1.802-1.255,2.442c-0.382,0.403-0.813,0.73-1.258,0.962l-0.132,0.068
		l-0.16,0.003c-0.487,0.013-0.88,0.473-1.243,0.9c-0.693,0.815-1.322,1.553-2.532,0.965c-0.12,0.01-0.258,0.022-0.395,0.033
		c-0.193,0.017-0.383,0.032-0.643,0.048c-1.565,0.097-2.817-0.053-3.29-1.842c-0.115,0.163-0.228,0.325-0.343,0.487
		c-0.417,0.59-0.835,1.178-1.222,1.79c-0.015,0.027-0.03,0.053-0.048,0.078l-0.008,0.012c-0.248,0.398-0.485,0.805-0.698,1.228
		c0.618,4.31,0.207,7.77-0.187,11.092c-0.12,1.005-0.237,1.997-0.323,2.998c0.013,0.045,0.04,0.085,0.082,0.115
		c0.082,0.058,0.22,0.093,0.428,0.088l0,0c2.018-0.113,3.19,0.207,4.363,0.525c0.545,0.148,1.088,0.295,1.707,0.39
		c0.08,0.012,0.155,0.038,0.222,0.075c0.337,0.16,0.542,0.39,0.643,0.635c0.083,0.202,0.097,0.41,0.053,0.607
		c-0.042,0.185-0.132,0.353-0.258,0.49c-0.197,0.213-0.49,0.353-0.815,0.357h-0.022l0,0l-8.123-0.215
		c-0.083-0.002-0.162-0.018-0.235-0.048c-0.635-0.233-1.027-0.585-1.27-1.015c-0.23-0.407-0.303-0.852-0.317-1.318h-0.002
		c-0.098-1.378-0.34-2.703-0.582-4.03c-0.505-2.767-1.012-5.535-0.302-8.79l0.002-0.01c0.188-0.987,0.292-1.99,0.397-2.993
		c0.213-2.047,0.425-4.093,1.312-6.073c-0.21-0.782-0.772-1.168-1.333-1.553c-1.243-0.855-2.48-1.707-1.797-5.05
		c0.023-0.13,0.052-0.258,0.085-0.383c0.042-0.177,0.088-0.358,0.138-0.548L33.83,62.098z M50.29,71.668
		c-0.13-0.042-0.248-0.122-0.335-0.24c-0.217-0.297-0.153-0.713,0.143-0.93c0.008-0.007,0.022-0.017,0.038-0.03
		c0.277-0.232,0.55-0.688,0.715-1.273c-0.403,0.813-0.97,1.428-1.488,1.718c-0.023,0.013-0.062,0.033-0.12,0.06
		c-0.33,0.158-0.727,0.018-0.885-0.313c-0.158-0.33-0.018-0.727,0.313-0.885c0.003-0.002,0.01-0.007,0.042-0.023
		c0.417-0.233,0.9-0.855,1.172-1.693c0.232-0.713,0.293-1.568,0.013-2.46c-0.035,0.472-0.13,0.918-0.267,1.328
		c-0.403,1.207-1.2,2.125-1.888,2.457c-0.33,0.158-0.727,0.018-0.885-0.313c-0.158-0.33-0.018-0.727,0.313-0.885
		c0.413-0.198,0.913-0.822,1.202-1.68c0.032-0.093,0.058-0.188,0.083-0.285c-0.182,0.18-0.372,0.342-0.565,0.485
		c-0.907,0.677-1.928,0.98-2.625,0.913c-0.085-0.008-0.165-0.032-0.237-0.068c-0.32,1.535-0.943,2.823-1.682,4.017
		c0.045,0.083,0.073,0.177,0.078,0.278c0.108,1.758,0.955,1.898,2.068,1.83c0.145-0.008,0.377-0.028,0.613-0.048
		c0.173-0.015,0.35-0.03,0.602-0.047l0.202-0.013l0.173,0.1c0.38,0.217,0.697-0.155,1.048-0.568
		c0.517-0.608,1.075-1.263,2.043-1.358c0.038-0.022,0.078-0.047,0.117-0.07L50.29,71.668z M51.08,18.688
		c-0.228-0.028-0.39-0.235-0.363-0.463c0.028-0.228,0.235-0.39,0.463-0.363l0.62,0.077c0.067-0.065,0.147-0.115,0.237-0.148
		c0.745-0.317,1.293-0.597,1.557-0.973c0.23-0.33,0.275-0.823,0.087-1.625c-1.448-1.797-1.293-3.527-1.137-5.255
		c0.07-0.775,0.14-1.55,0.032-2.297c-0.007-0.052-0.008-0.103-0.003-0.153c0.002-0.038,0.002-0.073,0.002-0.107
		c-0.015,0.038-0.033,0.073-0.055,0.107c-0.845,1.62-1.547,3.37-1.955,5.192c-0.408,1.82-0.525,3.713-0.198,5.627
		c0.01,0.062,0.012,0.123,0.007,0.182c-0.1,1.512-0.277,2.982-0.452,4.452c-0.298,2.503-0.598,5.005-0.51,7.54
		c0.157-0.103,0.323-0.203,0.503-0.3c0.323-0.173,0.727-0.053,0.902,0.272c0.173,0.323,0.053,0.727-0.272,0.902
		c-0.443,0.238-0.778,0.497-1.058,0.795c-0.29,0.307-0.532,0.665-0.775,1.085c-0.02,0.033-0.042,0.065-0.065,0.093
		c-0.46,1.167-0.887,3.225-1.147,5.823c-0.3,2.993-0.342,6.65,0.083,10.453c2.185,0.11,4.395,0.625,6.503,1.57
		c0.367-1.827,0.418-3.775,0.168-5.917c-0.292-2.488-0.992-5.238-2.083-8.362c-0.01-0.028-0.017-0.055-0.023-0.083l0,0
		c-0.19-0.905-0.235-1.662-0.197-2.34l-1.098-0.137c-0.228-0.028-0.39-0.235-0.363-0.463c0.028-0.228,0.235-0.39,0.463-0.363
		l1.087,0.135c0.025-0.165,0.055-0.325,0.088-0.485l-1.088-0.135c-0.228-0.028-0.39-0.235-0.363-0.463
		c0.028-0.228,0.235-0.39,0.463-0.363l1.175,0.147c0.023-0.092,0.047-0.185,0.07-0.277c0.102-0.403,0.205-0.817,0.288-1.247
		c0.008-0.043,0.022-0.087,0.037-0.127c1.162-2.98,0.36-6.147-0.413-9.198c-0.232-0.913-0.46-1.818-0.64-2.73l-0.573-0.072
		L51.08,18.688z M54.29,52.742c-0.032-0.013-0.06-0.028-0.088-0.045c-2.308-1.157-4.77-1.74-7.182-1.788
		c-0.035,0.002-0.072,0.002-0.105-0.002c-0.477-0.007-0.843-0.003-1.2,0.037c-0.35,0.04-0.703,0.117-1.173,0.26
		c-4.035,1.222-6.31,2.968-7.605,4.91c-0.907,1.357-1.345,2.832-1.578,4.297c0.217-0.117,0.452-0.21,0.702-0.273
		c0.357-0.09,0.72,0.125,0.81,0.482c0.09,0.357-0.125,0.72-0.482,0.81c-0.377,0.097-0.69,0.308-0.932,0.598
		c-0.22,0.267-0.383,0.598-0.482,0.972c-0.622,2.747,0.277,3.365,1.183,3.988c0.19,0.13,0.378,0.26,0.562,0.402
		c0.198-1.557,0.663-2.763,1.292-3.587c0.508-0.667,1.125-1.097,1.805-1.282c0.688-0.187,1.425-0.117,2.162,0.222
		c0.608,0.28,1.217,0.748,1.795,1.412c-0.098-0.312-0.223-0.64-0.35-0.973c-0.242-0.637-0.49-1.287-0.613-1.97
		c-0.052-0.288-0.1-0.752-0.108-1.185c-0.008-0.365,0.012-0.723,0.078-0.982c0.025-0.095,0.052-0.183,0.08-0.267
		c0.207-0.59,0.605-1.188,1.225-1.573c0.618-0.385,1.438-0.553,2.475-0.287c0.127,0.033,0.25,0.07,0.37,0.11
		c0.152,0.043,0.29,0.142,0.38,0.288c0.722,1.158,1.665,1.805,2.653,2.148c0.742,0.257,1.522,0.35,2.262,0.358
		c-0.117-0.447-0.202-0.907-0.257-1.385c-0.042-0.365,0.22-0.695,0.587-0.737c0.365-0.042,0.695,0.22,0.737,0.587
		c0.07,0.598,0.187,1.152,0.362,1.677c0.162,0.483,0.372,0.947,0.642,1.402c0.945,1.537,2.275,2.722,3.53,3.84
		c1.315,1.172,2.552,2.273,3.297,3.685H61.12c0.012,0.02,0.022,0.042,0.03,0.065c0.135,0.342-0.032,0.727-0.372,0.862
		c-2.152,0.855-2.643,4.677-3.112,8.317c-0.337,2.62-0.662,5.152-1.623,6.71l0.64,0.25c0.213,0.083,0.32,0.323,0.238,0.537
		c-0.083,0.213-0.323,0.32-0.537,0.238l-1.03-0.402c-0.563,0.213-0.93,0.438-1.15,0.663c-0.132,0.135-0.2,0.26-0.222,0.378
		c-0.022,0.115-0.003,0.24,0.042,0.363c0.102,0.285,0.323,0.562,0.542,0.78c1.072,0.792,1.388,2.173,1.678,3.433
		c0.203,0.883,0.387,1.688,0.73,1.868l3.997-0.088c0.003-0.032,0.003-0.07,0-0.112c-0.008-0.07-0.028-0.138-0.058-0.197
		c-0.037-0.067-0.098-0.115-0.178-0.102l-0.058,0.01c-0.873,0.148-2.217,0.377-2.68-1.79c-0.095-0.44-0.058-0.888-0.013-1.468
		c0.068-0.857,0.162-2.043-0.163-3.807c-0.033-0.135-0.025-0.283,0.035-0.422c0.718-1.663,1.55-3.31,2.383-4.958
		c1.393-2.758,2.788-5.517,3.642-8.392l-1.028-0.402c-0.213-0.083-0.32-0.323-0.238-0.537c0.083-0.213,0.323-0.32,0.537-0.238
		l0.953,0.372c0.038-0.148,0.075-0.297,0.11-0.445l-1.022-0.398c-0.213-0.083-0.32-0.323-0.238-0.537
		c0.083-0.213,0.323-0.32,0.537-0.238l1.097,0.428c0.842-1.142,0.658-1.492,0.423-1.94c-0.16-0.303-0.333-0.635-0.433-1.108
		c-1.3-5.002-3.662-8.728-6.547-11.29c-1.17-1.038-2.427-1.887-3.732-2.55L54.29,52.742z M39.585,74.74
		c0.003-0.005,0.007-0.008,0.01-0.013c0.402-0.632,0.83-1.238,1.26-1.845c1.317-1.862,2.635-3.722,2.983-6.267
		c-0.755-1.418-1.6-2.295-2.413-2.668c-0.442-0.203-0.872-0.248-1.26-0.143c-0.398,0.108-0.773,0.378-1.097,0.803
		c-0.672,0.88-1.11,2.367-1.125,4.418c0.053,0.16,0.1,0.335,0.135,0.523c0.035,0.143,0.023,0.3-0.043,0.443
		c-0.872,1.842-1.08,3.845-1.288,5.848c-0.108,1.04-0.217,2.078-0.412,3.107c-0.002,0.013-0.005,0.028-0.008,0.042
		c-0.655,3.005-0.175,5.638,0.307,8.27c0.252,1.373,0.502,2.747,0.603,4.177h-0.002c0,0.012,0.002,0.022,0.002,0.033
		c0.007,0.285,0.04,0.54,0.145,0.727c0.085,0.15,0.238,0.283,0.495,0.39l5.635,0.148c-0.932-0.243-1.94-0.445-3.478-0.358l0,0
		h-0.018c-0.528,0.017-0.938-0.115-1.243-0.328c-0.388-0.272-0.59-0.66-0.645-1.055c-0.012-0.06-0.017-0.122-0.01-0.187
		c0.088-1.037,0.21-2.07,0.335-3.118c0.347-2.918,0.707-5.947,0.338-9.552l-0.193,0.272c-0.215,0.298-0.63,0.368-0.93,0.153
		c-0.298-0.215-0.368-0.63-0.153-0.93l2.073-2.897L39.585,74.74z"/>
</g>
</svg>
