<svg height='100px' width='100px'  fill="#000000" xmlns="http://www.w3.org/2000/svg" data-name="Layer 1" viewBox="0 0 512 512" x="0px" y="0px"><title>Apple</title><path d="M201.624,507c15.269,0,29.819-7.666,42.038-15.165h0c4.034-2.475,18.018-4.029,24.71.02C277.735,497.52,293.406,507,310.378,507c15.608,0,33.856-7.935,52.768-22.948,17.381-13.8,34.969-33.159,50.863-55.995,34.44-49.481,55-105.848,55-150.78,0-58.368-24.195-123.834-77.622-150.715A89.574,89.574,0,0,0,407.924,99.23l5.06-13.19a10.757,10.757,0,0,0-.647-9.087,11.032,11.032,0,0,0-7.237-5.405l-14.127-3.167c-19.1-4.284-37.858-3.8-54.238,1.388A80.034,80.034,0,0,0,320.9,76.725c9.4-19.554,16.133-37.254,15.519-50.861C335.9,14.165,326.616,5,315.3,5a21.124,21.124,0,0,0-21.133,21.024c-.33,18.1-15.045,47.122-29.276,75.19-4.233,8.35-8.4,16.567-12.194,24.486A117.547,117.547,0,0,0,166.165,23.249l-17.7-4.756a12.25,12.25,0,0,0-9.217,1.176c-.131.072-.259.151-.386.233-.157.1-.321.181-.474.285a12.269,12.269,0,0,0-5.306,8.733l-2.136,18.2c-2.489,21.21,2.672,49.192,12.718,70.834-.63.157-1.261.319-1.893.492-32.174,8.818-58.8,32.811-77,69.386C48.516,220.5,42.863,255.472,42.992,277.312c.28,47.215,19.261,103.732,50.775,151.183C126.9,478.386,166.214,507,201.624,507ZM388.347,80.09l12.953,2.9-4.58,11.938a77.7,77.7,0,0,1-17.005,26.561q-4.615-1.7-9.485-3.044c-41.854-11.472-68.924,15.232-87.382,36.063,5.178-13.97,13.866-30.712,22.47-47.187C322.156,82.328,352.958,72.156,388.347,80.09ZM248.263,172.731l1.1-5.845c3.884-16.173,15.208-38.509,26.229-60.245,14.843-29.275,30.191-59.547,30.571-80.4A9.211,9.211,0,0,1,315.3,17c4.969,0,8.9,4.043,9.139,9.4C325.2,43.341,310.023,72.4,295.347,100.5l-.431.825c-.448.679-.9,1.356-1.328,2.053a5.973,5.973,0,0,0-.769,1.966c-13.231,25.383-25.206,49.194-26.6,66.544a22.519,22.519,0,0,1-12.764,2.715,20.211,20.211,0,0,1-5.287-1.092C248.2,173.25,248.23,172.991,248.263,172.731Zm-105.4-124.21,1.227-10.459,38.453,53.932a6,6,0,0,0,9.771-6.967L154.987,32.671l8.064,2.167A105.576,105.576,0,0,1,240.531,148.9l-2.657,14.141c-7.461-9.9-17.588-22.127-30.847-31.771-16.1-11.71-33.211-16.846-51.027-15.365C145.857,95.836,140.493,68.735,142.865,48.521ZM75.513,193.182c11.6-23.312,33.063-53.192,69.431-63.16,19.535-5.354,37.534-1.772,55.025,10.95,14.915,10.848,25.878,25.864,33.132,35.8l.258.353a20.365,20.365,0,0,0,5.066,4.813c.116.084.235.164.356.24a29.283,29.283,0,0,0,13.78,4.386,33.39,33.39,0,0,0,23.231-6.725c.081-.063.159-.13.236-.2a26.513,26.513,0,0,0,2.034-1.835c3.021-3.051,6.242-6.741,9.652-10.647,17.5-20.052,41.479-47.515,79.344-37.138A105.546,105.546,0,0,1,378.8,134l.095.037c61.3,24.883,78.115,100.35,78.115,143.243,0,42.575-19.757,96.379-52.85,143.925-31.2,44.831-68.014,73.8-93.782,73.8-13.624,0-27.5-8.4-35.794-13.413-4.943-2.99-11.552-4.2-17.989-4.2-7.7,0-15.155,1.733-19.209,4.22h0C226.6,488.23,213.907,495,201.624,495c-30.859,0-67.442-27.343-97.86-73.144-30.273-45.582-48.506-99.643-48.772-144.615C54.871,256.783,60.2,223.957,75.513,193.182Z"></path><path d="M104.146,305.063a6,6,0,0,0,4.792-7c-6.62-35.305-1.835-60.061,3.344-74.612,5.539-15.561,12.7-23.087,12.879-23.276a6,6,0,0,0-8.518-8.452c-1.37,1.374-33.384,34.5-19.5,108.552a5.993,5.993,0,0,0,7,4.791Z"></path><path d="M108.625,333.8a6.068,6.068,0,0,0,1.282-.139,6,6,0,0,0,4.586-7.139l-2.648-12.166a6,6,0,1,0-11.726,2.553l2.649,12.166A6,6,0,0,0,108.625,333.8Z"></path></svg>