<svg height='100px' width='100px'  fill="#000000" xmlns="http://www.w3.org/2000/svg" xmlns:xlink="http://www.w3.org/1999/xlink" viewBox="0 0 61 60" version="1.1" x="0px" y="0px"><title>188 -Electricity- (construction, tool, work, building)</title><desc>Created with Sketch.</desc><g stroke="none" stroke-width="1" fill="none" fill-rule="evenodd"><g transform="translate(-958.000000, -2560.000000)" fill="#000000"><g transform="translate(958.000000, 2560.000000)"><path d="M30.1409,25.4849 C29.9659,25.1649 29.9779,24.7749 30.1739,24.4659 L36.1969,15.0039 L30.6029,15.0039 L22.7279,29.0039 L27.6499,29.0039 C27.9839,29.0039 28.2949,29.1709 28.4809,29.4479 C28.6659,29.7259 28.7019,30.0779 28.5739,30.3859 L24.3469,40.5829 L36.8439,26.0039 L31.0179,26.0039 C30.6529,26.0039 30.3169,25.8039 30.1409,25.4849"></path><path d="M39.7766,25.6539 L21.7766,46.6539 C21.5816,46.8829 21.3006,47.0039 21.0166,47.0039 C20.8386,47.0039 20.6566,46.9559 20.4946,46.8559 C20.0756,46.5979 19.9056,46.0749 20.0936,45.6209 L26.1526,31.0039 L21.0176,31.0039 C20.6626,31.0039 20.3346,30.8149 20.1546,30.5079 C19.9746,30.2019 19.9716,29.8229 20.1466,29.5129 L29.1466,13.5129 C29.3236,13.1989 29.6566,13.0039 30.0176,13.0039 L38.0176,13.0039 C38.3826,13.0039 38.7186,13.2029 38.8946,13.5219 C39.0696,13.8419 39.0576,14.2319 38.8616,14.5409 L32.8396,24.0039 L39.0176,24.0039 C39.4086,24.0039 39.7626,24.2309 39.9256,24.5859 C40.0886,24.9399 40.0316,25.3579 39.7766,25.6539 M30.0176,8.0039 C17.8866,8.0039 8.0176,17.8729 8.0176,30.0039 C8.0176,42.1339 17.8866,52.0039 30.0176,52.0039 C42.1486,52.0039 52.0176,42.1339 52.0176,30.0039 C52.0176,17.8729 42.1486,8.0039 30.0176,8.0039"></path><path d="M54.0178,8.0035 C52.9128,8.0035 52.0178,7.1075 52.0178,6.0035 C52.0178,4.8995 52.9128,4.0035 54.0178,4.0035 C55.1228,4.0035 56.0178,4.8995 56.0178,6.0035 C56.0178,7.1075 55.1228,8.0035 54.0178,8.0035 M54.0178,56.0035 C52.9128,56.0035 52.0178,55.1075 52.0178,54.0035 C52.0178,52.8995 52.9128,52.0035 54.0178,52.0035 C55.1228,52.0035 56.0178,52.8995 56.0178,54.0035 C56.0178,55.1075 55.1228,56.0035 54.0178,56.0035 M30.0178,54.0035 C16.7848,54.0035 6.0178,43.2365 6.0178,30.0035 C6.0178,16.7705 16.7848,6.0035 30.0178,6.0035 C43.2508,6.0035 54.0178,16.7705 54.0178,30.0035 C54.0178,43.2365 43.2508,54.0035 30.0178,54.0035 M6.0178,56.0035 C4.9128,56.0035 4.0178,55.1075 4.0178,54.0035 C4.0178,52.8995 4.9128,52.0035 6.0178,52.0035 C7.1228,52.0035 8.0178,52.8995 8.0178,54.0035 C8.0178,55.1075 7.1228,56.0035 6.0178,56.0035 M6.0178,4.0035 C7.1228,4.0035 8.0178,4.8995 8.0178,6.0035 C8.0178,7.1075 7.1228,8.0035 6.0178,8.0035 C4.9128,8.0035 4.0178,7.1075 4.0178,6.0035 C4.0178,4.8995 4.9128,4.0035 6.0178,4.0035 M54.0178,0.0035 L6.0178,0.0035 C2.7088,0.0035 0.0178,2.6945 0.0178,6.0035 L0.0178,54.0035 C0.0178,57.3125 2.7088,60.0035 6.0178,60.0035 L54.0178,60.0035 C57.3268,60.0035 60.0178,57.3125 60.0178,54.0035 L60.0178,6.0035 C60.0178,2.6945 57.3268,0.0035 54.0178,0.0035"></path></g></g></g></svg>