<?xml version="1.0" encoding="utf-8"?>
<!-- Generator: Adobe Illustrator 24.2.1, SVG Export Plug-In . SVG Version: 6.00 Build 0)  -->
<svg version="1.1" id="Layer_1" xmlns="http://www.w3.org/2000/svg" xmlns:xlink="http://www.w3.org/1999/xlink" x="0px" y="0px"
	 viewBox="0 0 100 100" enable-background="new 0 0 100 100" xml:space="preserve">
<g>
	<path fill-rule="evenodd" clip-rule="evenodd" d="M73.147,33.32c-5.895,0-11.252,1.739-15.217,4.572H42.073
		c-3.966-2.832-9.323-4.572-15.218-4.572c-12.219,0-22.127,7.468-22.127,16.679c0,9.212,9.908,16.681,22.127,16.681
		c12.221,0,22.127-7.469,22.127-16.681c0-0.912-0.098-1.808-0.284-2.68h2.609c-0.189,0.873-0.287,1.767-0.287,2.68
		c0,9.212,9.907,16.681,22.127,16.681s22.127-7.469,22.127-16.681S85.368,33.32,73.147,33.32L73.147,33.32z M89.923,50.887
		l-6.648-4.864l-1.275,1.74l6.648,4.864C88.649,52.627,89.923,50.887,89.923,50.887z M35.445,50.887l-6.648-4.864l-1.275,1.74
		l6.648,4.864C34.17,52.627,35.445,50.887,35.445,50.887z M90.896,46.671l-6.648-4.864l-1.275,1.74l6.648,4.864
		C89.622,48.411,90.896,46.671,90.896,46.671z M36.418,46.671l-6.648-4.864l-1.275,1.74l6.648,4.864
		C35.143,48.411,36.418,46.671,36.418,46.671z M54.344,41.204c-0.728,0.882-1.349,1.82-1.852,2.802h-4.981
		c-0.501-0.982-1.125-1.919-1.853-2.802C45.658,41.204,54.344,41.204,54.344,41.204z"/>
	<polygon fill-rule="evenodd" clip-rule="evenodd" points="4.282,48.615 0,48.615 0,51.386 4.282,51.386 	"/>
	<polygon fill-rule="evenodd" clip-rule="evenodd" points="100,48.615 95.718,48.615 95.718,51.386 100,51.386 	"/>
</g>
</svg>
