<?xml version="1.0" encoding="utf-8"?>
<!-- Generator: Adobe Illustrator 24.2.1, SVG Export Plug-In . SVG Version: 6.00 Build 0)  -->
<svg version="1.1" id="Layer_1" xmlns="http://www.w3.org/2000/svg" xmlns:xlink="http://www.w3.org/1999/xlink" x="0px" y="0px"
	 viewBox="0 0 100 100" enable-background="new 0 0 100 100" xml:space="preserve">
<path d="M70.6,17.9c-1.4,0-2.8,0.6-3.8,1.7s-1.5,2.5-1.4,3.9l0.5,6.1c-0.5,0-1,0.4-1,1v4.3c0,0.6,0.4,1,1,1h0.7l1.7,50.5
	c0,1.1,0.1,3.8,2.6,3.8s2.6-2.6,2.6-3.8l1.7-50.5h0.7c0.6,0,1-0.4,1-1v-4.3c0-0.5-0.4-1-1-1l0.5-6.1c0.1-1.4-0.4-2.9-1.4-3.9
	c-1-1.1-2.4-1.7-3.8-1.7C71.2,17.9,70.6,17.9,70.6,17.9z M68.6,35.8h4.5l-1.7,50.4c0,1.8-0.3,1.8-0.6,1.8s-0.5,0-0.6-1.8L68.6,35.8z
	 M66.9,31.5h7.9v2.3h-7.9V31.5z M68.2,20.9c0.6-0.7,1.5-1,2.4-1h0.5c0.9,0,1.7,0.4,2.4,1c0.6,0.7,0.9,1.5,0.8,2.4l-0.5,6.2h-5.9
	l-0.5-6.2C67.3,22.4,67.6,21.5,68.2,20.9z"/>
<path d="M33.5,34.8v-4.3c0-0.6-0.4-1-1-1l0,0v-6.7c0-0.3-0.1-0.6-0.4-0.8l-7.7-5.8c-0.3-0.2-0.7-0.3-1-0.1c-0.3,0.2-0.6,0.5-0.6,0.9
	l-0.1,12.4h-0.1c-0.6,0-1,0.4-1,1v4.3c0,0.6,0.4,1,1,1h0.7L25,86.3c0,1.1,0.1,3.8,2.6,3.8s2.6-2.6,2.6-3.8l1.7-50.5h0.7
	C33.1,35.8,33.5,35.4,33.5,34.8z M25.3,35.8h4.5l-1.7,50.4c0,1.8-0.3,1.8-0.5,1.8c-0.2,0-0.5,0-0.6-1.8L25.3,35.8z M30.5,29.5h-5.8
	V19.1l5.7,4.3v6.1H30.5z M31.5,33.8h-7.9v-2.3h7.9V33.8z"/>
<path d="M50,10.8c-0.1,0-0.1,0-0.2,0h-0.2c-0.1,0-0.1,0-0.2,0c-8.3,0.5-11,5.7-11.1,5.9c-0.2,0.3-0.1,0.7,0.1,1l5.6,7.6
	c-0.4,0.1-0.7,0.5-0.7,0.9v4.6c0,0.6,0.4,1,1,1h0.8L47,86.1c0,1.2,0.1,4,2.7,4s2.7-2.8,2.7-4l1.8-54.2H55c0.6,0,1-0.4,1-1v-4.6
	c0-0.4-0.2-0.7-0.6-0.9l5.7-7.6c0.2-0.3,0.3-0.7,0.1-1C61,16.5,58.3,11.2,50,10.8z M47.2,31.9h5L50.4,86c-0.1,2-0.4,2-0.7,2
	S49,88,49,86L47.2,31.9z M45.4,27.3H54v2.6h-8.6V27.3z M59,17.1l-6,8.2h-6.5l-6.1-8.2c0.8-1.2,3.5-4.1,9.3-4.4
	C55.6,13,58.2,16,59,17.1z"/>
</svg>
