<svg height='100px' width='100px'  fill="#000000" xmlns="http://www.w3.org/2000/svg" viewBox="0 0 64 64" x="0px" y="0px"><title>gym, fitness, wellness, barbell, bodybuilding, hotel, facility</title><g><path d="M38,35V17h4V35ZM26,35V17H22V35ZM11.5,42h41a2.5,2.5,0,0,0,0-5h-41a2.5,2.5,0,0,0,0,5ZM26,6a1,1,0,0,0-1-1H23a1,1,0,0,0-1,1v4h4ZM42,6a1,1,0,0,0-1-1H39a1,1,0,0,0-1,1v4h4Zm6,6H16v3H48Zm3,9h1a1,1,0,0,0,1-1V7a1,1,0,0,0-1-1H51a1,1,0,0,0-1,1V20A1,1,0,0,0,51,21Zm5-1h1a1,1,0,0,0,1-1V8a1,1,0,0,0-1-1H56a1,1,0,0,0-1,1V19A1,1,0,0,0,56,20ZM7,20H8a1,1,0,0,0,1-1V8A1,1,0,0,0,8,7H7A1,1,0,0,0,6,8V19A1,1,0,0,0,7,20Zm5,1h1a1,1,0,0,0,1-1V7a1,1,0,0,0-1-1H12a1,1,0,0,0-1,1V20A1,1,0,0,0,12,21Zm51-7.5A1.5,1.5,0,0,0,61.5,12H60v3h1.5A1.5,1.5,0,0,0,63,13.5ZM2.5,15H4V12H2.5a1.5,1.5,0,0,0,0,3ZM62,52H51V44H47v8H17V44H13v8H2a1,1,0,0,0,0,2H62a1,1,0,0,0,0-2Zm-9,5H48a1,1,0,1,0,0,2h5a1,1,0,0,0,0-2Zm-9,0H10a1,1,0,0,0,0,2H44a1,1,0,1,0,0-2Z"></path></g></svg>