<?xml version="1.0" encoding="utf-8"?>
<!-- Generator: Adobe Illustrator 24.2.1, SVG Export Plug-In . SVG Version: 6.00 Build 0)  -->
<svg version="1.1" id="Layer_1" xmlns="http://www.w3.org/2000/svg" xmlns:xlink="http://www.w3.org/1999/xlink" x="0px" y="0px"
	 viewBox="0 0 100 100" enable-background="new 0 0 100 100" xml:space="preserve">
<path d="M42.32,81.38h-0.19L9.37,73.94c-0.387-0.089-0.661-0.433-0.66-0.83V34.89c0.002-0.198,0.073-0.389,0.2-0.54l16.38-19.67
	c0.153-0.187,0.379-0.299,0.62-0.31c0.238-0.005,0.468,0.085,0.64,0.25l16.38,16.7c0.156,0.161,0.242,0.376,0.24,0.6v48.61
	C43.17,80.999,42.789,81.38,42.32,81.38z M10.4,72.38l31.07,7V32.27L26,16.49L10.41,35.2L10.4,72.38z"/>
<path d="M42.32,81.38c-0.469,0-0.85-0.381-0.85-0.85V31.92c0-0.245,0.106-0.478,0.29-0.64c0.187-0.161,0.435-0.234,0.68-0.2l47.09,7
	c0.414,0.064,0.72,0.421,0.72,0.84v33.82c0.002,0.436-0.326,0.804-0.76,0.85l-7.69,0.8c-0.466,0.06-0.892-0.268-0.952-0.734
	c-0.06-0.466,0.268-0.892,0.734-0.952c0.013-0.002,0.026-0.003,0.038-0.004l6.94-0.7V39.7l-45.39-6.8v46.62l23.2-3.87
	c0.464-0.077,0.903,0.236,0.98,0.7c0.077,0.464-0.236,0.903-0.7,0.98l0,0l-24.19,4L42.32,81.38z"/>
<path d="M89.41,39.82c-0.159,0-0.315-0.045-0.45-0.13L71.18,28.63L25.71,16c-0.453-0.124-0.719-0.592-0.595-1.045
	c0.124-0.453,0.592-0.719,1.045-0.595l0,0L71.75,27c0.078,0.023,0.152,0.057,0.22,0.1l17.89,11.15
	c0.398,0.25,0.518,0.774,0.268,1.172C89.973,39.669,89.702,39.819,89.41,39.82z"/>
<path d="M29.22,51.91L29.22,51.91l-8.91-0.37c-0.454-0.021-0.811-0.396-0.81-0.85V37.86c-0.002-0.443,0.338-0.813,0.78-0.85
	l8.91-0.74c0.468-0.039,0.878,0.309,0.917,0.777c0.002,0.024,0.003,0.049,0.003,0.073v13.94c0,0.469-0.381,0.85-0.85,0.85H29.22z
	 M21.16,49.91l7.21,0.3V38l-7.21,0.6V49.91z"/>
<path d="M59.65,53.18H53c-0.469,0-0.85-0.381-0.85-0.85V40.45c0.003-0.469,0.386-0.848,0.855-0.845c0.028,0,0.057,0.002,0.085,0.005
	l6.68,0.74c0.43,0.046,0.757,0.407,0.76,0.84v11.14c0,0.469-0.38,0.85-0.849,0.851C59.67,53.181,59.66,53.18,59.65,53.18z
	 M53.82,51.48h5V42l-5-0.55V51.48z"/>
<path d="M77.83,53.55H72.4c-0.469,0-0.85-0.381-0.85-0.85v-9.65c0.003-0.469,0.386-0.848,0.855-0.845
	c0.028,0,0.057,0.002,0.085,0.005l5.43,0.6c0.43,0.046,0.757,0.407,0.76,0.84v9c0.028,0.469-0.33,0.871-0.799,0.899
	C77.864,53.55,77.847,53.55,77.83,53.55z M73.25,51.85H77v-7.43L73.25,44V51.85z"/>
<path d="M81.73,70.59c-0.469,0-0.85-0.381-0.85-0.85V43.05c0-0.245,0.106-0.478,0.29-0.64c0.186-0.164,0.435-0.237,0.68-0.2
	l4.45,0.66c0.414,0.064,0.72,0.421,0.72,0.84v25.66c0.002,0.443-0.338,0.813-0.78,0.85l-4.45,0.37L81.73,70.59z M86.18,69.37
	L86.18,69.37z M82.58,44v24.81l2.75-0.23V44.45L82.58,44z"/>
<path d="M70.19,81.37c-2.65,0-4.72-2.91-4.72-6.63s2.07-6.64,4.72-6.64s4.72,2.91,4.72,6.64S72.84,81.37,70.19,81.37z M70.19,69.8
	c-1.64,0-3,2.26-3,4.94s1.38,4.93,3,4.93s3-2.26,3-4.93S71.83,69.8,70.19,69.8z"/>
<path d="M78.24,80c-2.33,0-4.15-2.75-4.15-6.27s1.82-6.27,4.15-6.27s4.15,2.75,4.15,6.27S80.57,80,78.24,80z M78.24,69.17
	c-1.16,0-2.45,1.87-2.45,4.56s1.29,4.56,2.45,4.56s2.45-1.87,2.45-4.56s-1.29-4.59-2.45-4.59V69.17z"/>
<path d="M81.35,71c-0.469,0.022-0.868-0.341-0.89-0.81s0.341-0.868,0.81-0.89l0,0l8.06-0.74c0.464-0.069,0.897,0.251,0.966,0.715
	s-0.251,0.897-0.715,0.966c-0.03,0.004-0.06,0.007-0.091,0.009L81.43,71H81.35z"/>
<path d="M81.7,78.21c-0.469,0-0.85-0.381-0.85-0.85c0-0.419,0.306-0.776,0.72-0.84l9.13-1.38v-1.5l-8.94,0.67
	c-0.469,0.036-0.879-0.316-0.915-0.785c-0.036-0.469,0.316-0.879,0.785-0.915l0,0l9.85-0.74c0.234-0.015,0.465,0.064,0.64,0.22
	c0.172,0.16,0.27,0.385,0.27,0.62v3.15c0,0.419-0.306,0.776-0.72,0.84l-9.84,1.5L81.7,78.21z"/>
<path d="M47.1,85.63c-0.469,0-0.85-0.381-0.85-0.85v-5c0-0.469,0.381-0.85,0.85-0.85c0.469,0,0.85,0.381,0.85,0.85v5
	C47.95,85.249,47.569,85.63,47.1,85.63L47.1,85.63z"/>
<path d="M16.28,78.58c-0.469,0-0.85-0.381-0.85-0.85v-3c0-0.469,0.381-0.85,0.85-0.85s0.85,0.381,0.85,0.85v3
	C17.13,78.199,16.749,78.58,16.28,78.58z"/>
<path d="M29.22,62.11h-0.1L9.46,59.78c-0.467-0.055-0.8-0.478-0.745-0.945c0.055-0.467,0.478-0.8,0.945-0.745l0,0l19.67,2.33
	c0.464,0.07,0.783,0.503,0.713,0.968c-0.061,0.405-0.403,0.709-0.813,0.722L29.22,62.11z"/>
<path d="M34.56,67.7h-0.12l-17.23-2.34c-0.468-0.03-0.824-0.435-0.793-0.903c0.03-0.468,0.435-0.824,0.903-0.793
	c0.04,0.003,0.081,0.008,0.12,0.016L34.67,66c0.464,0.071,0.783,0.505,0.712,0.969c-0.062,0.408-0.409,0.712-0.822,0.721L34.56,67.7
	z"/>
<path d="M16.63,55.64h-0.09l-6.72-0.7c-0.468-0.039-0.815-0.45-0.776-0.918c0.039-0.468,0.45-0.815,0.918-0.776
	C9.974,53.247,9.987,53.248,10,53.25l6.72,0.7c0.469,0.025,0.83,0.426,0.805,0.895s-0.426,0.83-0.895,0.805l0,0V55.64z"/>
<path d="M42.32,63c-0.469,0-0.85-0.381-0.85-0.85c0-0.469,0.381-0.85,0.85-0.85l17.32-0.46c0.446-0.033,0.835,0.301,0.868,0.747
	c0.002,0.027,0.003,0.055,0.002,0.083c0.011,0.469-0.36,0.859-0.83,0.87c0,0,0,0,0,0L42.35,63H42.32z"/>
<path d="M49.81,67.32c-0.469-0.001-0.849-0.382-0.848-0.852c0.001-0.468,0.38-0.847,0.848-0.848l17-1
	c0.469-0.028,0.872,0.331,0.9,0.8c0.028,0.469-0.331,0.872-0.8,0.9l-17,1H49.81z"/>
</svg>
