<svg height='100px' width='100px'  fill="#000000" xmlns="http://www.w3.org/2000/svg" xmlns:xlink="http://www.w3.org/1999/xlink" version="1.1" x="0px" y="0px" viewBox="0 0 100 100" enable-background="new 0 0 100 100" xml:space="preserve"><path d="M23.4,41.1c2.5,0,4.6,2.1,4.6,4.6s-2.1,4.6-4.6,4.6s-4.6-2.1-4.6-4.6S20.8,41.1,23.4,41.1z M91.7,66.2H70.3  c-1,0-1.8,0.8-1.8,1.8v2.9c0,1,0.8,1.8,1.8,1.8h21.3c1,0,1.8-0.8,1.8-1.8V68C93.5,67,92.7,66.2,91.7,66.2z M88.6,75H67.3  c-1,0-1.8,0.8-1.8,1.8v2.9c0,1,0.8,1.8,1.8,1.8h21.3c1,0,1.8-0.8,1.8-1.8v-2.9C90.4,75.8,89.6,75,88.6,75z M94.4,48.6H73.1  c-1,0-1.8,0.8-1.8,1.8v2.9c0,1,0.8,1.8,1.8,1.8h21.3c1,0,1.8-0.8,1.8-1.8v-2.9C96.2,49.4,95.4,48.6,94.4,48.6z M65.5,59.2v2.9  c0,1,0.8,1.8,1.8,1.8h21.3c1,0,1.8-0.8,1.8-1.8v-2.9c0-1-0.8-1.8-1.8-1.8H67.3C66.3,57.4,65.5,58.2,65.5,59.2z M92.8,46.3  c1,0,1.8-0.8,1.8-1.8v-2.9c0-1-0.8-1.8-1.8-1.8H71.4c-1,0-1.8,0.8-1.8,1.8v2.9c0,1,0.8,1.8,1.8,1.8H92.8z M66.5,71.2v-3.6  c0-0.8-0.7-1.5-1.5-1.5h-8.7H19.2c0.2-1.1,0.2-2.4-0.2-3.6c-0.6-2-2.1-3.7-4-4.7c-1.7-0.8-3.2-0.9-4.7-0.7V33.9  c1.7,0.3,3.6,0.1,5.7-1.3c1.2-0.8,2.2-2,2.8-3.3c0.6-1.5,0.7-3,0.5-4.4h56.4c-0.3,1.1-0.3,2.4,0,3.7c0.7,2.8,3,5.1,5.8,5.7  c1.2,0.3,2.4,0.2,3.6-0.1v1.8c0,0.8,0.7,1.5,1.5,1.5h3.5c0.8,0,1.5-0.7,1.5-1.5v-10c0-4.2-3.4-7.6-7.6-7.6H11.4  c-4.2,0-7.6,3.4-7.6,7.6v39c0,4.2,3.4,7.6,7.6,7.6h45H65h0C65.8,72.7,66.5,72,66.5,71.2z M47.6,28.9c9.2,0,16.7,7.5,16.7,16.7  s-7.5,16.7-16.7,16.7c-9.2,0-16.7-7.5-16.7-16.7S38.4,28.9,47.6,28.9z M36.7,39.6H40c0.7-2.2,1.7-4,2.7-5.4  C40.1,35.3,38,37.2,36.7,39.6z M39.4,49.1c-0.2-1.1-0.3-2.3-0.3-3.5s0.1-2.4,0.3-3.5h-3.7c-0.3,1.1-0.5,2.3-0.5,3.5  c0,1.2,0.2,2.4,0.5,3.5H39.4z M42.6,57c-1-1.4-2-3.2-2.7-5.4h-3.3C38,54,40.1,55.9,42.6,57z M46.3,51.6h-3.7c1,2.7,2.5,4.6,3.7,5.9  V51.6z M46.3,42.1h-4.4c-0.2,1.1-0.3,2.3-0.3,3.5c0,1.3,0.1,2.4,0.3,3.5h4.4V42.1z M46.3,33.7c-1.2,1.2-2.7,3.1-3.7,5.9h3.7V33.7z   M58.4,51.6h-3.3c-0.7,2.2-1.7,4-2.7,5.4C55,55.9,57.1,54,58.4,51.6z M55.7,42.1c0.2,1.1,0.3,2.3,0.3,3.5s-0.1,2.4-0.3,3.5h3.7  c0.3-1.1,0.5-2.3,0.5-3.5c0-1.2-0.2-2.4-0.5-3.5H55.7z M52.5,34.2c1,1.4,2,3.2,2.7,5.4h3.3C57.1,37.2,55,35.3,52.5,34.2z M48.8,39.6  h3.7c-1-2.7-2.5-4.6-3.7-5.9V39.6z M48.8,49.1h4.4c0.2-1.1,0.3-2.3,0.3-3.5c0-1.3-0.1-2.4-0.3-3.5h-4.4V49.1z M48.8,57.5  c1.2-1.2,2.7-3.1,3.7-5.9h-3.7V57.5z"></path></svg>