<svg height='100px' width='100px'  fill="#000000" xmlns:dc="http://purl.org/dc/elements/1.1/" xmlns:cc="http://creativecommons.org/ns#" xmlns:rdf="http://www.w3.org/1999/02/22-rdf-syntax-ns#" xmlns:svg="http://www.w3.org/2000/svg" xmlns="http://www.w3.org/2000/svg" xmlns:sodipodi="http://sodipodi.sourceforge.net/DTD/sodipodi-0.dtd" xmlns:inkscape="http://www.inkscape.org/namespaces/inkscape" version="1.1" x="0px" y="0px" viewBox="0 0 100 100"><g transform="translate(0,-952.36218)"><path style="text-indent:0;text-transform:none;direction:ltr;block-progression:tb;baseline-shift:baseline;color:#000000;enable-background:accumulate;" d="M 7.8125,969.33093 C 6.8293323,969.42363 5.9957419,970.34387 6,971.33182 l 0,53.02368 c 1.047e-4,1.0476 0.9528311,2.0008 2,2.0009 l 5.09375,0 c -0.02774,0.332 -0.0625,0.6614 -0.0625,1.0004 0,6.6067 5.365023,11.9741 11.96875,11.9741 6.603726,0 11.96875,-5.3674 11.96875,-11.9741 0,-0.339 -0.03475,-0.6684 -0.0625,-1.0004 l 27.15625,0 c -0.03229,0.3253 -0.0625,0.667 -0.0625,1.0004 0,5.5016 4.500843,10.0045 10,10.0045 5.499156,0 10,-4.5029 10,-10.0045 0,-0.3334 -0.03021,-0.6751 -0.0625,-1.0004 l 8.0625,0 c 1.047169,-10e-5 1.999895,-0.9533 2,-2.0009 l 0,-9.004 c -1.05e-4,-1.0477 -0.952831,-2.0008 -2,-2.0009 l -4,0 c 0.01222,-5.3313 0,-10.7364 0,-16.00716 -5.14e-4,-0.31379 -0.07613,-0.62719 -0.21875,-0.90666 l -9,-18.00804 C 78.449011,977.77492 77.733129,977.33515 77,977.3345 l -12,0 0,-6.00268 c -1.05e-4,-1.04763 -0.952831,-2.00078 -2,-2.00089 -18.39172,0 -36.809077,0 -55.1875,0 z m 2.1875,4.00179 51,0 c -0.0022,8.68255 0,17.34609 0,26.04287 1.05e-4,1.04761 0.952831,2.00081 2,2.00091 l 21,0 0,13.975 c 1.05e-4,1.0476 0.952831,2.0008 2,2.0009 l 4,0 0,5.0022 -7.375,0 c -1.737129,-2.9793 -4.947614,-5.0022 -8.625,-5.0022 -3.677387,0 -6.887871,2.0229 -8.625,5.0022 l -29.5,0 c -1.898645,-4.1168 -6.054911,-6.9719 -10.875,-6.9719 -4.820089,0 -8.976356,2.8551 -10.875,6.9719 l -4.125,0 z m 27.78125,4.97097 c -1.078762,0.0358 -2.022354,1.06559 -1.964319,2.14386 0.05804,1.07828 1.106707,2.00079 2.183069,1.92045 7.20339,0 12.96875,5.76794 12.96875,12.97454 0,4.27679 -1.987102,8.00626 -5.15625,10.37966 -0.957929,0.5647 -1.255957,2.0027 -0.601459,2.9019 0.654498,0.8993 2.113877,1.057 2.945209,0.3183 4.140037,-3.1005 6.875,-8.0396 6.875,-13.59986 0,-9.36933 -7.6661,-17.03885 -17.03125,-17.03885 -0.07284,-0.004 -0.145906,-0.004 -0.21875,0 z m -8.875,2.97007 c -0.389887,0.0474 -0.764656,0.21283 -1.0625,0.46896 -4.13406,3.10095 -6.875,8.04425 -6.875,13.59982 0,9.36926 7.6661,17.03886 17.03125,17.03886 1.06356,0 2.031249,-0.9681 2.031249,-2.0322 0,-1.064 -0.967689,-2.0321 -2.031249,-2.0321 -7.20339,0 -12.96875,-5.7679 -12.96875,-12.97456 0,-4.27318 1.991655,-8.03714 5.15625,-10.4109 0.699084,-0.47356 1.036802,-1.42127 0.794839,-2.23048 -0.241964,-0.80921 -1.044404,-1.4157 -1.888589,-1.4274 -0.06245,-0.003 -0.125046,-0.003 -0.1875,0 z M 65,981.33629 l 10.78125,0 8.03125,16.03841 -18.8125,0 z m -27.1875,4.00179 c -0.858924,0.0798 -1.623138,0.77733 -1.78125,1.62572 -0.274932,1.50909 -1.207817,2.85704 -2.34375,4.40822 -1.135933,1.55118 -2.548929,3.34774 -2.6875,5.84636 -0.0013,0.0417 -0.0013,0.0834 0,0.12506 0,3.91776 3.214659,7.00316 7,7.00316 3.78534,0 7,-3.0854 7,-7.00316 8.1e-5,-0.0104 8.1e-5,-0.0208 0,-0.0313 -0.0359,-4.52132 -3.41063,-8.0522 -5.3125,-11.06744 -0.39586,-0.61375 -1.148341,-0.97762 -1.875,-0.90665 z m 0.5625,6.25279 c 1.408839,2.19314 2.613195,4.26586 2.625,5.75257 0,1.84365 -1.262494,3.00136 -3,3.00136 -1.722539,0 -2.94724,-1.15408 -2.96875,-2.9701 0.08106,-1.00166 0.770184,-2.11793 1.875,-3.62662 0.463481,-0.63291 0.984443,-1.37807 1.46875,-2.15721 z m 27.4375,11.75523 c -1.047341,0.049 -1.955743,1.0469 -1.906649,2.0947 0.04909,1.0478 1.046828,1.9564 2.094149,1.9071 l 4,0 c 1.056625,0.015 2.028484,-0.9437 2.028484,-2.0009 0,-1.0572 -0.971859,-2.0158 -2.028484,-2.0009 -1.386196,0 -2.816811,0 -4.1875,0 z M 25,1019.322 c 4.441966,0 8.03125,3.5909 8.03125,8.0348 0,4.444 -3.589284,8.0349 -8.03125,8.0349 -4.441967,0 -8.03125,-3.5909 -8.03125,-8.0349 0,-4.4439 3.589283,-8.0348 8.03125,-8.0348 z m 49,2.0322 c 3.337397,0 6,2.6637 6,6.0026 0,3.3389 -2.662603,6.0027 -6,6.0027 -3.337397,0 -6,-2.6638 -6,-6.0027 0,-3.3389 2.662603,-6.0026 6,-6.0026 z" fill="#000000" fill-opacity="1" stroke="none" marker="none" visibility="visible" display="inline" overflow="visible"></path></g></svg>