<svg height='100px' width='100px'  fill="#000000" xmlns="http://www.w3.org/2000/svg" xmlns:xlink="http://www.w3.org/1999/xlink" version="1.0" x="0px" y="0px" viewBox="0 0 100 100" enable-background="new 0 0 100 100" xml:space="preserve"><g><path d="M48.708,80.76c-1.063,0-1.949-0.838-1.997-1.911c-0.514-11.493-6.125-17.988-6.181-18.053   c-0.729-0.827-0.653-2.09,0.171-2.82c0.824-0.733,2.083-0.661,2.816,0.161c0.27,0.302,6.608,7.541,7.189,20.534   c0.049,1.103-0.805,2.037-1.909,2.087C48.769,80.759,48.739,80.76,48.708,80.76z"></path></g><g><path d="M49.151,80.583c-0.087,0-0.175-0.006-0.263-0.017c-1.095-0.145-1.866-1.149-1.722-2.244   c1.695-12.894,8.632-19.563,8.926-19.84c0.804-0.758,2.068-0.72,2.827,0.083c0.757,0.803,0.721,2.065-0.079,2.823   c-0.09,0.087-6.212,6.075-7.708,17.455C50.999,79.851,50.14,80.583,49.151,80.583z"></path></g><g><g><path d="M49.807,54.274c-0.329,0-0.657-0.081-0.956-0.243c-5.333-2.903-8.557-7.298-9.325-12.709    c-0.993-6.994,2.323-15.234,8.653-21.503c0.391-0.388,0.925-0.593,1.473-0.578c0.549,0.019,1.067,0.262,1.432,0.674    c6.305,7.122,9.053,14.076,8.168,20.667c-1.15,8.566-8.057,13.174-8.351,13.366C50.57,54.165,50.188,54.274,49.807,54.274z     M49.506,24.244c-4.477,5.126-6.761,11.299-6.021,16.517c0.538,3.789,2.611,6.847,6.167,9.104c1.66-1.416,4.981-4.823,5.64-9.862    C55.933,35.116,53.986,29.822,49.506,24.244z"></path></g><g><path d="M49.324,51.317c-0.828,0-1.5-0.671-1.5-1.499l-0.011-12.332c0-0.828,0.67-1.5,1.499-1.501c0,0,0.001,0,0.001,0    c0.828,0,1.5,0.671,1.5,1.499l0.011,12.332c0,0.828-0.67,1.5-1.499,1.501C49.325,51.317,49.325,51.317,49.324,51.317z"></path></g><g><path d="M62.352,61.853c-0.001,0-0.001,0-0.002,0c-3.628,0-6.231-0.846-6.34-0.882c-0.746-0.247-1.278-0.906-1.361-1.687    c-0.543-5.082,0.637-9.277,3.507-12.47c4.297-4.781,12.156-7.104,24.027-7.104h0.184c0.621,0.001,1.207,0.291,1.585,0.785    c0.377,0.493,0.504,1.135,0.342,1.735C79.694,59.303,68.572,61.853,62.352,61.853z M58.527,57.479    c0.908,0.181,2.248,0.373,3.823,0.373c0,0,0,0,0.001,0c5.796,0,13.313-2.525,17.299-14.105c-9.238,0.284-15.311,2.17-18.521,5.741    C59.273,51.554,58.416,54.178,58.527,57.479z"></path></g><g><path d="M58.415,58.807c-0.334,0-0.67-0.11-0.949-0.339c-0.639-0.524-0.734-1.465-0.213-2.105    c0.129-0.158,3.23-3.904,10.313-7.511c0.735-0.373,1.642-0.083,2.018,0.656c0.376,0.738,0.082,1.642-0.656,2.018    c-6.466,3.292-9.323,6.701-9.351,6.735C59.279,58.62,58.849,58.807,58.415,58.807z"></path></g><g><path d="M37.958,61.779c-5.742,0-19.409-2.172-22.299-22.289c-0.088-0.615,0.114-1.236,0.548-1.682    c0.434-0.444,1.049-0.658,1.667-0.589c11.881,1.415,19.46,4.669,23.173,9.949c2.472,3.517,3.142,7.827,1.991,12.813    c-0.177,0.765-0.784,1.355-1.554,1.511C41.338,61.521,40,61.779,37.958,61.779z M20.086,41.555    C23.1,55.596,32.448,57.779,37.958,57.779c0.552,0,1.04-0.023,1.446-0.055c0.508-3.269-0.03-5.979-1.629-8.255    C35.015,45.544,29.215,42.945,20.086,41.555z"></path></g><g><path d="M39.536,59.067c-0.497,0-0.982-0.246-1.268-0.695c-0.044-0.068-2.475-3.78-8.473-7.808    c-0.688-0.462-0.871-1.394-0.409-2.081c0.461-0.688,1.395-0.872,2.081-0.409c6.599,4.43,9.227,8.521,9.335,8.692    c0.442,0.7,0.233,1.626-0.467,2.069C40.087,58.992,39.81,59.067,39.536,59.067z"></path></g><g><path d="M49.48,76.736c-1.104,0-2-0.896-2-2v-22.25c0-1.104,0.896-2,2-2s2,0.896,2,2v22.25    C51.48,75.841,50.585,76.736,49.48,76.736z"></path></g></g></svg>