<svg height='100px' width='100px'  fill="#000000" xmlns="http://www.w3.org/2000/svg" data-name="Layer 1" viewBox="0 0 24 24" x="0px" y="0px"><title>Cog, cogwheel, repair tool, settings, wrench </title><path d="M4.63,15.12,2.81,17,7,21.19l1.83-1.83.12.05V22h6V18.71H13V20H11V18l-.72-.21a5.7,5.7,0,0,1-1.14-.47l-.66-.36L7,18.37,5.63,17l1.44-1.44-.36-.66a5.74,5.74,0,0,1-.47-1.14L6,13H4V11H6l.21-.71a5.76,5.76,0,0,1,.47-1.14l.36-.66L5.63,7,7,5.63,8.49,7.08l.66-.36a5.76,5.76,0,0,1,1.14-.47L11,6V4h2V6l.71.21a5.76,5.76,0,0,1,1.14.47l.66.36L17,5.63,18.37,7,16.92,8.49l.36.66a5.76,5.76,0,0,1,.47,1.14L18,11h2v2H18.71v2H22V9H19.42l-.05-.12L21.19,7,17,2.81,15.12,4.63,15,4.58V2H9V4.58l-.12.05L7,2.81,2.81,7,4.63,8.88,4.58,9H2v6H4.58Z"></path><path d="M8.05,8.64l-.6,1.3a4.93,4.93,0,0,0,.68,5.22,4.82,4.82,0,0,0,2.16,1.54,5,5,0,0,0,3.09.1l4.91,4.91a2.41,2.41,0,1,0,3.42-3.41L16.8,13.39a5,5,0,0,0-.1-3.08,4.83,4.83,0,0,0-1.53-2.16,4.93,4.93,0,0,0-5.23-.7l-1.3.6L11.59,11l-.59.59Z"></path></svg>