<svg height='100px' width='100px'  fill="#000000" xmlns="http://www.w3.org/2000/svg" xmlns:xlink="http://www.w3.org/1999/xlink" version="1.1" x="0px" y="0px" viewBox="0 0 100 100" enable-background="new 0 0 100 100" xml:space="preserve"><path d="M74.5,40.6L52,18c-0.5-0.5-1.3-0.8-2-0.7c-0.7,0-1.4,0.2-2,0.7L25.5,40.6H14.1v8.7h4.6l9,33.4h44.7l9-33.4h4.6v-8.7H74.5z   M50,24.6l16,16H34L50,24.6z M62.1,60.2L61,59.1v17.7c0,0-2.6,1.6-10.5,1.6c-7.9,0-10.5-1.6-10.5-1.6V59.1l-1.6,1.1l-6.7-5.1  c0.6-1.7,1.9-4.2,2.8-5.8c2.6-4.4,5.5-5,9.7-5c0.7,1.5,2.5,2.9,5.8,2.9s5.1-1.4,5.8-2.9c4.2,0.1,7,0.6,9.7,5c1,1.6,2.4,4.1,3,5.8  L62.1,60.2z"></path></svg>