<svg height='100px' width='100px'  fill="#000000" xmlns="http://www.w3.org/2000/svg" viewBox="0 0 36 36" x="0px" y="0px"><title>Монтажная область 76</title><g data-name="Слой 3"><path d="M19.43,4.49H13.54a1,1,0,0,0-1,1v5.75A5.89,5.89,0,0,0,7.65,17V29.78a5.89,5.89,0,0,0,11.78,0V17a5.89,5.89,0,0,0-4.91-5.8V6.46h4.91a1,1,0,0,0,0-2ZM17.46,17V29.78a3.93,3.93,0,1,1-7.85,0V17a3.93,3.93,0,1,1,7.85,0Z"></path><path d="M4.71,16a1,1,0,0,0-1,1V21a1,1,0,0,0,2,0V17A1,1,0,0,0,4.71,16Z"></path><path d="M31.29,4.49h-5.5L28.28,2A1,1,0,0,0,26.89.62L22.73,4.78a1,1,0,0,0-.21.32,1,1,0,0,0,0,.75,1,1,0,0,0,.21.32l4.16,4.16a1,1,0,0,0,1.39,0,1,1,0,0,0,0-1.39L25.79,6.46h5.5a1,1,0,0,0,0-2Z"></path></g></svg>