<svg height='100px' width='100px'  fill="#000000" xmlns="http://www.w3.org/2000/svg" xmlns:xlink="http://www.w3.org/1999/xlink" version="1.1" x="0px" y="0px" viewBox="0 0 512 512" enable-background="new 0 0 512 512" xml:space="preserve"><g><path fill="#000000" d="M414.4,305.1V172h32.4v-21h-32.4v-15.8H459v-21h-44.6V98.5h32.4h30.6v-21h-30.6h-32.4V61.8h32.4H459v-21   h-12.2h-32.4V25h32.4V4H361v21h32.4v15.8H361h-12.2v21H361h32.4v15.8H361h-30.6v21H361h32.4v15.8h-44.6v21h44.6V151H361v21h32.4   v133.1h-93.6v177.4c0,14.1,11.4,25.5,25.5,25.5h157.2c14,0,25.5-11.4,25.5-25.5V305.1H414.4z M487,482.5c0,2.5-2,4.5-4.5,4.5H325.3   c-2.5,0-4.5-2-4.5-4.5V326.1H487V482.5z"></path><rect x="343.8" y="347.1" fill="#000000" width="120.1" height="118.9"></rect><rect x="48.1" y="347.1" fill="#000000" width="120.1" height="118.9"></rect><path fill="#000000" d="M184.7,200.7H31.5v104.4H4v177.4C4,496.6,15.4,508,29.5,508h157.2c14,0,25.5-11.4,25.5-25.5V305.1h-27.5   V200.7z M191.2,326.1v156.4c0,2.5-2,4.5-4.5,4.5H29.5c-2.5,0-4.5-2-4.5-4.5V326.1h6.5h153.1H191.2z"></path><path fill="#000000" d="M158.4,62c0-32-22.6-58-50.3-58S57.8,30,57.8,62v117.7h100.6V62z M108.1,99c-9.8,0-18.4-6.1-23.8-15.4   c-0.2-0.3-0.4-0.6-0.5-0.9c-0.6-1.1-1.1-2.3-1.6-3.5C80,74,78.8,68.2,78.8,62c0-20.4,13.1-37,29.3-37c16.2,0,29.3,16.6,29.3,37   C137.4,82.4,124.3,99,108.1,99z"></path></g></svg>