<svg height='100px' width='100px'  fill="#000000" xmlns="http://www.w3.org/2000/svg" xmlns:xlink="http://www.w3.org/1999/xlink" version="1.1" x="0px" y="0px" viewBox="0 0 100 100" style="enable-background:new 0 0 100 100;" xml:space="preserve"><path d="M30.9365234,79.03125c0.5527344,0,1-0.4472656,1-1v-0.9326172c0-0.5527344-0.4472656-1-1-1s-1,0.4472656-1,1V78.03125  C29.9365234,78.5839844,30.3837891,79.03125,30.9365234,79.03125z"></path><path d="M66.1572266,70.2929688l-2.125,2.125c-0.390625,0.390625-0.390625,1.0234375,0,1.4140625  C64.2275391,74.0273438,64.4833984,74.125,64.7392578,74.125s0.5117188-0.0976562,0.7070312-0.2929688l2.125-2.125  c0.390625-0.390625,0.390625-1.0234375,0-1.4140625S66.5478516,69.9023438,66.1572266,70.2929688z"></path><path d="M66.1806641,66.1054688c-0.390625-0.390625-1.0234375-0.390625-1.4140625,0l-5.0371094,5.0371094  c-0.390625,0.390625-0.390625,1.0234375,0,1.4140625c0.1953125,0.1953125,0.4511719,0.2929688,0.7070312,0.2929688  s0.5117188-0.0976562,0.7070312-0.2929688l5.0371094-5.0371094C66.5712891,67.1289062,66.5712891,66.4960938,66.1806641,66.1054688z  "></path><path d="M89,88h-7.6635742l-0.0202637-9.6228638c4.8745117-0.5239868,8.6828613-4.659668,8.6828613-9.6710815  c0-5.3652344-4.3642578-9.7294922-9.7294922-9.7294922c-2.2358398,0-4.291748,0.7659302-5.9365234,2.0387573v-1.6895142  c0.9936523-0.9362183,1.6220703-2.25177,1.6220703-3.7174072v-6.1816406c0-0.5527344-0.4472656-1-1-1h-0.6220703V18.6318359  h0.5957031c0.5527344,0,1-0.4472656,1-1V11c0-0.5527344-0.4472656-1-1-1H24.6679688c-0.5527344,0-1,0.4472656-1,1v6.6318359  c0,0.5527344,0.4472656,1,1,1h0.9560547v29.7949219h-0.5810547c-0.5527344,0-1,0.4472656-1,1v6.1816406  c0,1.4465942,0.6098022,2.7496338,1.5810547,3.6835938v1.692627c-1.6380615-1.2539673-3.6780396-2.0080566-5.8955078-2.0080566  c-5.3652344,0-9.7294922,4.3642578-9.7294922,9.7294922c0,5.0427856,3.855957,9.1994629,8.774231,9.6811523L18.7937012,88H11  c-0.5527344,0-1,0.4472656-1,1s0.4472656,1,1,1h78c0.5527344,0,1-0.4472656,1-1S89.5527344,88,89,88z M26.0429688,55.6083984  v-5.1816406h6.3193359v5.1816406c0,1.7275391-1.4169922,3.1328125-3.1591797,3.1328125S26.0429688,57.3359375,26.0429688,55.6083984  z M73.9550781,50.4267578v5.1816406c0,1.7275391-1.4169922,3.1328125-3.1591797,3.1328125s-3.1601562-1.4052734-3.1601562-3.1328125  v-5.1816406H73.9550781z M65.6357422,55.6083984c0,1.7275391-1.4169922,3.1328125-3.1591797,3.1328125  s-3.1591797-1.4052734-3.1591797-3.1328125v-5.1816406h6.3183594V55.6083984z M57.3173828,55.6083984  c0,1.7275391-1.4169922,3.1328125-3.1591797,3.1328125s-3.1591797-1.4052734-3.1591797-3.1328125v-5.1816406h6.3183594V55.6083984z   M48.9990234,55.6083984c0,1.7275391-1.4169922,3.1328125-3.1591797,3.1328125s-3.1591797-1.4052734-3.1591797-3.1328125v-5.1816406  h6.3183594V55.6083984z M40.6806641,55.6083984c0,1.7275391-1.4169922,3.1328125-3.1591797,3.1328125  s-3.1591797-1.4052734-3.1591797-3.1328125v-5.1816406h6.3183594V55.6083984z M41.2490234,79.03125h31.0839844V88H41.2490234  V79.03125z M74.3330078,76.3967896c1.407959,1.0896606,3.1162109,1.8079834,4.9831543,1.9904785L79.3364258,88h-5.003418V76.3967896  z M80.2695312,60.9765625c4.2617188,0,7.7294922,3.4677734,7.7294922,7.7294922s-3.4677734,7.7294922-7.7294922,7.7294922  s-7.7285156-3.4677734-7.7285156-7.7294922S76.0078125,60.9765625,80.2695312,60.9765625z M72.3330078,63.0984497  c-1.1243896,1.586853-1.7919922,3.5189209-1.7919922,5.607605s0.6676025,4.020752,1.7919922,5.607605V77.03125H41.2490234  V59.1382446c0.1559448-0.1629028,0.2980957-0.3381348,0.4316406-0.5202637c0.9390259,1.2805176,2.4475708,2.12323,4.1591797,2.12323  s3.2201538-0.8427124,4.1591797-2.12323c0.9390259,1.2805176,2.4475708,2.12323,4.1591797,2.12323  s3.2201538-0.8427124,4.1591797-2.12323c0.9390259,1.2805176,2.4475708,2.12323,4.1591797,2.12323  s3.2202148-0.8427734,4.1592407-2.123291c0.9391479,1.2805176,2.447937,2.123291,4.1600952,2.123291  c0.5388184,0,1.0484619-0.1057129,1.5371094-0.2588501V63.0984497z M25.6679688,12h48.2607422v4.6318359H25.6679688V12z   M27.6240234,18.6318359h44.7089844v29.7949219H27.6240234V18.6318359z M29.203125,60.7412109  c1.7116089,0,3.2201538-0.8427124,4.1591797-2.12323c0.9390259,1.2805176,2.4475708,2.12323,4.1591797,2.12323  c0.6087646,0,1.1848145-0.1242676,1.7275391-0.3178101V88h-11.625V74.3684692  c1.1484985-1.597168,1.8330078-3.5491943,1.8330078-5.6624146s-0.6845093-4.0652466-1.8330078-5.6624146v-2.5741577  C28.1248169,60.6311035,28.6488647,60.7412109,29.203125,60.7412109z M11.9990234,68.7060547  c0-4.2617188,3.4677734-7.7294922,7.7294922-7.7294922s7.7285156,3.4677734,7.7285156,7.7294922  s-3.4667969,7.7294922-7.7285156,7.7294922S11.9990234,72.9677734,11.9990234,68.7060547z M20.7731934,78.3773804  c1.8134766-0.1946411,3.4736328-0.8956299,4.8508301-1.9498901V88h-4.8302612L20.7731934,78.3773804z"></path><path d="M55.4189453,22.8623047c-0.1357422-0.4101562-0.5185547-0.6875-0.9501953-0.6875H45.5  c-0.4335938,0-0.8173828,0.2792969-0.9511719,0.6914062c-0.1035156,0.3193359-2.5009766,7.859375,0.3613281,11.7958984  C45.8546753,35.961853,47.2312012,36.7144165,49,36.9196777v6.1096191h-1.5c-0.5527344,0-1,0.4472656-1,1s0.4472656,1,1,1h5  c0.5527344,0,1-0.4472656,1-1s-0.4472656-1-1-1H51v-6.1049805c1.7832642-0.1993408,3.1668701-0.953186,4.1123047-2.2602539  C57.9609375,30.7275391,55.5234375,23.1816406,55.4189453,22.8623047z M53.4921875,33.4921875  c-0.7265625,1.0029297-1.8632812,1.4912109-3.4755859,1.4912109c-1.6142578,0-2.7558594-0.4892578-3.4873047-1.4951172  c-1.6884766-2.3183594-0.9042969-7-0.28125-9.3134766h7.4765625C54.3623047,26.484375,55.1738281,31.1679688,53.4921875,33.4921875z  "></path></svg>