<svg height='100px' width='100px'  fill="#000000" xmlns="http://www.w3.org/2000/svg" xmlns:xlink="http://www.w3.org/1999/xlink" xml:space="preserve" version="1.1" style="shape-rendering:geometricPrecision;text-rendering:geometricPrecision;image-rendering:optimizeQuality;" viewBox="0 0 333 259" x="0px" y="0px" fill-rule="evenodd" clip-rule="evenodd"><defs><style type="text/css">
   
    .fil0 {fill:#000000}
   
  </style></defs><g><path class="fil0" d="M211 222l0 37c-21,0 -41,0 -61,0l-24 -103 -26 103c-23,0 -45,0 -68,0l0 -28c-7,9 -16,18 -24,26l-8 -8c23,-24 46,-49 67,-77 19,-24 36,-50 52,-78l-3 -5 5 -3 0 -16c0,-5 9,-5 9,0l0 16 5 3c-1,1 -2,3 -3,5 32,56 75,109 120,155l-9 8c-11,-11 -22,-23 -32,-35zm53 -222c22,0 39,17 39,38 0,22 -17,39 -39,39 -21,0 -38,-17 -38,-39 0,-21 17,-38 38,-38zm-78 108c4,-20 16,-21 27,-15l5 -3c-4,-4 -5,-6 -9,-7 6,-12 18,-14 24,-7 0,0 0,0 -1,0 -5,2 -7,3 -10,8l7 4c10,-9 22,-3 25,5 -6,3 -10,10 -10,18l2 0c0,-9 14,-20 26,-9l7 -4c-3,-5 -5,-6 -10,-8 0,0 -1,0 -1,0 7,-7 19,-5 25,7 -4,1 -6,3 -9,6l5 4c11,-6 23,-5 27,15l17 0c-4,-19 -21,-27 -28,-27 -8,-20 -35,-24 -45,-5 -1,0 -2,1 -3,1 -2,-7 -8,-13 -16,-15 -9,-19 -36,-15 -44,6 -7,-1 -24,7 -28,26l17 0z"></path></g></svg>