<?xml version="1.0" encoding="utf-8"?>
<!-- Generator: Adobe Illustrator 24.2.1, SVG Export Plug-In . SVG Version: 6.00 Build 0)  -->
<svg version="1.1" id="Layer_1" xmlns="http://www.w3.org/2000/svg" xmlns:xlink="http://www.w3.org/1999/xlink" x="0px" y="0px"
	 viewBox="0 0 100 100" enable-background="new 0 0 100 100" xml:space="preserve">
<g>
	<path d="M21.084,36.446v1.166c0.002,0.014,0.006,0.026,0.012,0.04c0.01,0.018,0.026,0.04,0.054,0.06
		c0.062,0.046,0.124,0.086,0.188,0.124c0.966,0.554,2.59,0.504,4.174,0.058c1.6-0.452,3.136-1.302,3.906-2.344
		c0.074-0.098,0.138-0.196,0.194-0.294c0.128-0.222,0.126-0.26,0.126-0.462c0-0.124-0.002,0.07-0.002-0.108h0.002v-1.058
		c-0.034,0.036-0.068,0.072-0.104,0.108c-1.044,1.05-2.736,2.014-4.382,2.564c-1.616,0.542-3.214,0.688-4.17,0.148L21.084,36.446z
		 M28.762,83.79v-0.586c0-0.362,0.132-0.73,0.346-1.032c0.216-0.304,0.518-0.546,0.856-0.652l0.122-0.038
		c0.126-0.04,0.252-0.058,0.376-0.058c0.25,0,0.494,0.076,0.694,0.21c0.208,0.14,0.37,0.344,0.45,0.594
		c0.034,0.106,0.052,0.22,0.052,0.338v2.606c0,0.96-0.63,1.732-1.264,2.088c-0.19,0.106-0.384,0.178-0.568,0.21
		c-0.21,0.036-0.41,0.02-0.582-0.056c-0.114-0.05-0.214-0.122-0.29-0.218c-0.338,0.262-0.716,0.502-1.118,0.72h0.052v5.974
		c-0.01,0.282,0.19,0.344,0.39,0.304l50.286-9.456V10.052C78.526,9.708,78.568,9.5,78.084,9.6l-49.662,9.326
		c-0.302,0.058-0.55,0.134-0.534,0.626v2.542l0.01-0.006c0.02-0.014,0.052-0.044,0.084-0.072c0.116-0.106,0.228-0.208,0.398-0.206
		c0.236,0.002,0.374,0.118,0.37,0.392l-0.03,2.58c-0.002,0.222-0.372,0.466-0.54,0.578h-0.002l-0.042,0.026l0,0
		c-0.082,0.06-0.166,0.118-0.25,0.176v2.408c0.316-0.21,0.612-0.432,0.876-0.658v-0.646c0-0.362,0.132-0.73,0.346-1.032
		c0.216-0.304,0.518-0.546,0.856-0.652l0.122-0.038c0.126-0.04,0.252-0.058,0.376-0.058c0.25,0,0.494,0.076,0.694,0.21
		c0.208,0.14,0.37,0.344,0.45,0.594c0.034,0.106,0.052,0.22,0.052,0.338v2.606c0,0.96-0.63,1.732-1.264,2.088
		c-0.19,0.106-0.384,0.178-0.568,0.21c-0.21,0.036-0.41,0.02-0.582-0.056c-0.1-0.044-0.188-0.104-0.26-0.182
		c-0.332,0.26-0.702,0.5-1.098,0.716v2.834c0.316-0.21,0.612-0.432,0.876-0.658v-0.642c0-0.362,0.132-0.73,0.346-1.032
		c0.216-0.304,0.518-0.546,0.856-0.652l0.122-0.038c0.126-0.04,0.252-0.058,0.376-0.058c0.25,0,0.494,0.076,0.694,0.21
		c0.208,0.14,0.37,0.344,0.45,0.594c0.034,0.106,0.052,0.22,0.052,0.338v2.606c0,0.96-0.63,1.732-1.264,2.088
		c-0.19,0.106-0.384,0.178-0.568,0.21c-0.21,0.036-0.41,0.02-0.582-0.056c-0.102-0.044-0.19-0.106-0.262-0.184
		c-0.332,0.258-0.7,0.498-1.096,0.714v2.834c0.316-0.21,0.612-0.432,0.876-0.658v-0.598c0-0.362,0.132-0.73,0.346-1.032
		c0.216-0.304,0.518-0.546,0.856-0.652l0.122-0.038c0.126-0.04,0.252-0.058,0.376-0.058c0.25,0,0.494,0.076,0.694,0.21
		c0.208,0.14,0.37,0.344,0.45,0.594c0.034,0.106,0.052,0.22,0.052,0.338v2.606c0,0.96-0.63,1.732-1.264,2.088
		c-0.19,0.106-0.384,0.178-0.568,0.21c-0.21,0.036-0.41,0.02-0.582-0.056c-0.112-0.05-0.208-0.12-0.286-0.21
		c-0.326,0.252-0.686,0.484-1.072,0.696v2.834c0.316-0.21,0.612-0.432,0.876-0.658V45.54c0-0.362,0.132-0.73,0.346-1.032
		c0.216-0.304,0.518-0.546,0.856-0.652l0.122-0.038c0.126-0.04,0.252-0.058,0.376-0.058c0.25,0,0.494,0.076,0.694,0.21
		c0.208,0.14,0.37,0.344,0.45,0.594c0.034,0.106,0.052,0.22,0.052,0.338v2.606c0,0.96-0.63,1.732-1.264,2.088
		c-0.19,0.106-0.384,0.178-0.568,0.21c-0.21,0.036-0.41,0.02-0.582-0.056c-0.114-0.05-0.21-0.12-0.288-0.214
		c-0.324,0.252-0.686,0.484-1.07,0.694v2.834c0.316-0.21,0.612-0.432,0.876-0.658v-0.65c0-0.362,0.132-0.73,0.346-1.032
		c0.216-0.304,0.518-0.546,0.856-0.652l0.122-0.038c0.126-0.04,0.252-0.058,0.376-0.058c0.25,0,0.494,0.076,0.694,0.21
		c0.208,0.14,0.37,0.344,0.45,0.594c0.034,0.106,0.052,0.22,0.052,0.338v2.606c0,0.96-0.63,1.732-1.264,2.088
		c-0.19,0.106-0.384,0.178-0.568,0.21c-0.21,0.036-0.41,0.02-0.582-0.056c-0.1-0.044-0.186-0.104-0.258-0.18
		c-0.332,0.26-0.702,0.5-1.098,0.716v2.834c0.316-0.21,0.612-0.432,0.876-0.658v-0.644c0-0.362,0.132-0.73,0.346-1.032
		c0.216-0.304,0.518-0.546,0.856-0.652l0.122-0.038c0.126-0.04,0.252-0.058,0.376-0.058c0.25,0,0.494,0.076,0.694,0.21
		c0.208,0.14,0.37,0.344,0.45,0.594c0.034,0.106,0.052,0.22,0.052,0.338v2.606c0,0.96-0.63,1.732-1.264,2.088
		c-0.19,0.106-0.384,0.178-0.568,0.21c-0.21,0.036-0.41,0.02-0.582-0.056c-0.1-0.044-0.188-0.104-0.26-0.182
		c-0.332,0.258-0.702,0.498-1.096,0.714v2.834c0.316-0.21,0.612-0.432,0.876-0.658v-0.6c0-0.362,0.132-0.73,0.346-1.032
		c0.216-0.304,0.518-0.546,0.856-0.652l0.122-0.038c0.126-0.04,0.252-0.058,0.376-0.058c0.25,0,0.494,0.076,0.694,0.21
		c0.208,0.14,0.37,0.344,0.45,0.594c0.034,0.106,0.052,0.22,0.052,0.338v2.606c0,0.96-0.63,1.732-1.264,2.088
		c-0.19,0.106-0.384,0.178-0.568,0.21c-0.21,0.036-0.41,0.02-0.582-0.056c-0.112-0.05-0.208-0.118-0.284-0.21
		c-0.326,0.252-0.688,0.486-1.074,0.696v2.834c0.316-0.21,0.612-0.432,0.876-0.658v-0.596c0-0.362,0.132-0.73,0.346-1.032
		c0.216-0.304,0.518-0.546,0.856-0.652l0.122-0.038c0.126-0.04,0.252-0.058,0.376-0.058c0.25,0,0.494,0.076,0.694,0.21
		c0.208,0.14,0.37,0.344,0.45,0.594c0.034,0.106,0.052,0.22,0.052,0.338v2.606c0,0.96-0.63,1.732-1.264,2.088
		c-0.19,0.106-0.384,0.178-0.568,0.21c-0.21,0.036-0.41,0.02-0.582-0.056c-0.112-0.05-0.21-0.12-0.286-0.212
		c-0.324,0.252-0.686,0.484-1.072,0.694v2.834c0.316-0.21,0.612-0.432,0.876-0.658v-0.592c0-0.362,0.132-0.73,0.346-1.032
		c0.216-0.304,0.518-0.546,0.856-0.652l0.122-0.038c0.126-0.04,0.252-0.058,0.376-0.058c0.25,0,0.494,0.076,0.694,0.21
		c0.208,0.14,0.37,0.344,0.45,0.594c0.034,0.106,0.052,0.22,0.052,0.338v2.606c0,0.96-0.63,1.732-1.264,2.088
		c-0.19,0.106-0.384,0.178-0.568,0.21c-0.21,0.036-0.41,0.02-0.582-0.056c-0.114-0.05-0.212-0.122-0.288-0.214
		c-0.324,0.25-0.684,0.482-1.068,0.694v2.834c0.316-0.21,0.612-0.432,0.876-0.658L28.762,83.79z M29.49,86.732
		c0.01,0.02,0.022,0.032,0.036,0.038c0.04,0.018,0.104,0.02,0.18,0.006c0.104-0.018,0.22-0.062,0.342-0.13
		c0.454-0.254,0.904-0.8,0.904-1.472v-2.606c0-0.048-0.006-0.09-0.018-0.128c-0.028-0.092-0.09-0.166-0.168-0.22
		c-0.086-0.058-0.192-0.09-0.304-0.09c-0.056,0-0.114,0.008-0.168,0.024l-0.122,0.038c-0.186,0.058-0.362,0.202-0.492,0.386
		c-0.102,0.146-0.176,0.312-0.202,0.48c0.062-0.078,0.12-0.156,0.172-0.234c0.062-0.092,0.132-0.154,0.204-0.19
		c0.112-0.058,0.224-0.058,0.332-0.012c0.09,0.04,0.156,0.106,0.2,0.198c0.036,0.076,0.054,0.178,0.054,0.288v1.778h0.002
		c0,0.254-0.002,0.044,0,0.104c0.002,0.358,0.002,0.428-0.22,0.814c-0.072,0.126-0.152,0.246-0.238,0.364
		c-0.144,0.194-0.31,0.382-0.494,0.562V86.732z M29.492,80.454c0.01,0.018,0.022,0.03,0.034,0.036c0.04,0.018,0.104,0.02,0.18,0.006
		c0.104-0.018,0.22-0.062,0.342-0.13c0.454-0.254,0.904-0.8,0.904-1.472v-2.606c0-0.048-0.006-0.09-0.018-0.128
		c-0.028-0.092-0.09-0.166-0.168-0.22c-0.086-0.058-0.192-0.09-0.304-0.09c-0.056,0-0.114,0.008-0.168,0.024l-0.122,0.038
		c-0.186,0.058-0.362,0.202-0.492,0.386c-0.104,0.146-0.176,0.316-0.204,0.486c0.062-0.078,0.12-0.156,0.174-0.234
		c0.062-0.092,0.132-0.154,0.204-0.19c0.112-0.058,0.224-0.058,0.332-0.012c0.09,0.04,0.156,0.106,0.2,0.198
		c0.036,0.076,0.054,0.178,0.054,0.288v1.778h0.002c0,0.254-0.002,0.044,0,0.104c0.002,0.358,0.002,0.428-0.22,0.814
		c-0.072,0.126-0.152,0.246-0.238,0.364C29.84,80.088,29.676,80.274,29.492,80.454z M29.494,74.176
		c0.01,0.016,0.02,0.026,0.034,0.032c0.04,0.018,0.104,0.02,0.18,0.006c0.104-0.018,0.22-0.062,0.342-0.13
		c0.454-0.254,0.904-0.8,0.904-1.472v-2.606c0-0.048-0.006-0.09-0.018-0.128c-0.028-0.092-0.09-0.166-0.168-0.22
		c-0.086-0.058-0.192-0.09-0.304-0.09c-0.056,0-0.114,0.008-0.168,0.024l-0.122,0.038c-0.186,0.058-0.362,0.202-0.492,0.386
		c-0.106,0.148-0.178,0.32-0.204,0.492c0.062-0.078,0.12-0.158,0.174-0.236c0.062-0.092,0.132-0.154,0.204-0.19
		c0.112-0.058,0.224-0.058,0.332-0.012c0.09,0.04,0.156,0.106,0.2,0.198c0.036,0.076,0.054,0.178,0.054,0.288v1.778h0.002
		c0,0.254-0.002,0.044,0,0.104c0.002,0.358,0.002,0.428-0.22,0.814c-0.072,0.126-0.152,0.246-0.238,0.364
		C29.844,73.808,29.678,73.996,29.494,74.176z M29.496,67.898c0.008,0.014,0.02,0.024,0.032,0.03c0.04,0.018,0.104,0.02,0.18,0.006
		c0.104-0.018,0.22-0.062,0.342-0.13c0.454-0.254,0.904-0.8,0.904-1.472v-2.606c0-0.048-0.006-0.09-0.018-0.128
		c-0.028-0.092-0.09-0.166-0.168-0.22c-0.086-0.058-0.192-0.09-0.304-0.09c-0.056,0-0.114,0.008-0.168,0.024l-0.122,0.038
		c-0.186,0.058-0.362,0.202-0.492,0.386c-0.106,0.15-0.18,0.324-0.204,0.498c0.062-0.078,0.122-0.158,0.174-0.236
		c0.062-0.092,0.132-0.154,0.204-0.19c0.112-0.058,0.224-0.058,0.332-0.012c0.09,0.04,0.156,0.106,0.2,0.198
		c0.036,0.076,0.054,0.178,0.054,0.288v1.778h0.002c0,0.254-0.002,0.044,0,0.104c0.002,0.358,0.002,0.428-0.22,0.814
		c-0.072,0.126-0.152,0.246-0.238,0.364c-0.142,0.192-0.306,0.378-0.49,0.558V67.898z M29.518,61.602
		c0.004,0.002,0.006,0.004,0.01,0.006c0.04,0.018,0.104,0.02,0.18,0.006c0.104-0.018,0.22-0.062,0.342-0.13
		c0.454-0.254,0.904-0.8,0.904-1.472v-2.606c0-0.048-0.006-0.09-0.018-0.128c-0.028-0.092-0.09-0.166-0.168-0.22
		c-0.086-0.058-0.192-0.09-0.304-0.09c-0.056,0-0.114,0.008-0.168,0.024l-0.122,0.038c-0.186,0.058-0.362,0.202-0.492,0.386
		c-0.116,0.164-0.194,0.358-0.21,0.548c0.066-0.082,0.126-0.162,0.18-0.244c0.062-0.092,0.132-0.154,0.204-0.19
		c0.112-0.058,0.224-0.058,0.332-0.012c0.09,0.04,0.156,0.106,0.2,0.198c0.036,0.076,0.054,0.178,0.054,0.288v1.778h0.002
		c0,0.254-0.002,0.044,0,0.104c0.002,0.358,0.002,0.428-0.22,0.814c-0.072,0.126-0.152,0.246-0.238,0.364
		c-0.136,0.184-0.294,0.364-0.468,0.536V61.602z M29.52,55.324c0.002,0.002,0.006,0.004,0.008,0.004
		c0.04,0.018,0.104,0.02,0.18,0.006c0.104-0.018,0.22-0.062,0.342-0.13c0.454-0.254,0.904-0.8,0.904-1.472v-2.606
		c0-0.048-0.006-0.09-0.018-0.128c-0.028-0.092-0.09-0.166-0.168-0.22c-0.086-0.058-0.192-0.09-0.304-0.09
		c-0.056,0-0.114,0.008-0.168,0.024l-0.122,0.038c-0.186,0.058-0.362,0.202-0.492,0.386c-0.118,0.166-0.196,0.362-0.212,0.554
		c0.066-0.082,0.126-0.162,0.182-0.244c0.062-0.092,0.132-0.154,0.204-0.19c0.112-0.058,0.224-0.058,0.332-0.012
		c0.09,0.04,0.156,0.106,0.2,0.198c0.036,0.076,0.054,0.178,0.054,0.288v1.778h0.002c0,0.254-0.002,0.044,0,0.104
		c0.002,0.358,0.002,0.428-0.22,0.814c-0.072,0.126-0.152,0.246-0.238,0.364C29.85,54.974,29.694,55.152,29.52,55.324z
		 M29.494,49.074c0.01,0.016,0.02,0.028,0.034,0.034c0.04,0.018,0.104,0.02,0.18,0.006c0.104-0.018,0.22-0.062,0.342-0.13
		c0.454-0.254,0.904-0.8,0.904-1.472v-2.606c0-0.048-0.006-0.09-0.018-0.128c-0.028-0.092-0.09-0.166-0.168-0.22
		c-0.086-0.058-0.192-0.09-0.304-0.09c-0.056,0-0.114,0.008-0.168,0.024l-0.122,0.038c-0.186,0.058-0.362,0.202-0.492,0.386
		c-0.104,0.148-0.178,0.318-0.204,0.488c0.062-0.078,0.12-0.156,0.174-0.236c0.062-0.092,0.132-0.154,0.204-0.19
		c0.112-0.058,0.224-0.058,0.332-0.012c0.09,0.04,0.156,0.106,0.2,0.198c0.036,0.076,0.054,0.178,0.054,0.288v1.778h0.002
		c0,0.254-0.002,0.044,0,0.104c0.002,0.358,0.002,0.428-0.22,0.814c-0.072,0.126-0.152,0.246-0.238,0.364
		c-0.142,0.194-0.308,0.38-0.492,0.56V49.074z M29.496,42.796c0.01,0.016,0.02,0.026,0.032,0.03c0.04,0.018,0.104,0.02,0.18,0.006
		c0.104-0.018,0.22-0.062,0.342-0.13c0.454-0.254,0.904-0.8,0.904-1.472v-2.606c0-0.048-0.006-0.09-0.018-0.128
		c-0.028-0.092-0.09-0.166-0.168-0.22c-0.086-0.058-0.192-0.09-0.304-0.09c-0.056,0-0.114,0.008-0.168,0.024l-0.122,0.038
		c-0.186,0.058-0.362,0.202-0.492,0.386c-0.106,0.15-0.18,0.322-0.204,0.494c0.062-0.078,0.122-0.158,0.174-0.236
		c0.062-0.092,0.132-0.154,0.204-0.19c0.112-0.058,0.224-0.058,0.332-0.012c0.09,0.04,0.156,0.106,0.2,0.198
		c0.036,0.076,0.054,0.178,0.054,0.288v1.778h0.002c0,0.254-0.002,0.044,0,0.104c0.002,0.358,0.002,0.428-0.22,0.814
		c-0.072,0.126-0.152,0.246-0.238,0.364c-0.142,0.192-0.308,0.38-0.49,0.558V42.796z M29.516,36.5
		c0.004,0.002,0.008,0.006,0.012,0.006c0.04,0.018,0.104,0.02,0.18,0.006c0.104-0.018,0.22-0.062,0.342-0.13
		c0.454-0.254,0.904-0.8,0.904-1.472v-2.606c0-0.048-0.006-0.09-0.018-0.128c-0.028-0.092-0.09-0.166-0.168-0.22
		c-0.086-0.058-0.192-0.09-0.304-0.09c-0.056,0-0.114,0.008-0.168,0.024l-0.122,0.038c-0.186,0.058-0.362,0.202-0.492,0.386
		c-0.116,0.164-0.194,0.356-0.21,0.546c0.066-0.082,0.126-0.162,0.18-0.244c0.062-0.092,0.132-0.154,0.204-0.19
		c0.112-0.058,0.224-0.058,0.332-0.012c0.09,0.04,0.156,0.106,0.2,0.198c0.036,0.076,0.054,0.178,0.054,0.288v1.778h0.002
		c0,0.254-0.002,0.044,0,0.104c0.002,0.358,0.002,0.428-0.22,0.814c-0.072,0.126-0.152,0.246-0.238,0.364
		c-0.138,0.186-0.294,0.366-0.47,0.538V36.5z M29.518,30.222c0.002,0.002,0.006,0.004,0.01,0.006c0.04,0.018,0.104,0.02,0.18,0.006
		c0.104-0.018,0.22-0.062,0.342-0.13c0.454-0.254,0.904-0.8,0.904-1.472v-2.606c0-0.048-0.006-0.09-0.018-0.128
		c-0.028-0.092-0.09-0.166-0.168-0.22c-0.086-0.058-0.192-0.09-0.304-0.09c-0.056,0-0.114,0.008-0.168,0.024l-0.122,0.038
		c-0.186,0.058-0.362,0.202-0.492,0.386c-0.118,0.166-0.196,0.36-0.212,0.552c0.066-0.082,0.126-0.162,0.182-0.244
		c0.062-0.092,0.132-0.154,0.204-0.19c0.112-0.058,0.224-0.058,0.332-0.012c0.09,0.04,0.156,0.106,0.2,0.198
		c0.036,0.076,0.054,0.178,0.054,0.288v1.778h0.002c0,0.254-0.002,0.044,0,0.104c0.002,0.358,0.002,0.428-0.22,0.814
		c-0.072,0.126-0.152,0.246-0.238,0.364c-0.136,0.184-0.294,0.364-0.468,0.536V30.222z M21.084,86.646v1.166
		c0.002,0.014,0.006,0.026,0.012,0.04c0.01,0.018,0.026,0.04,0.054,0.06c0.062,0.046,0.124,0.086,0.188,0.124
		c0.966,0.554,2.59,0.504,4.174,0.058c1.6-0.452,3.136-1.302,3.906-2.344c0.074-0.098,0.138-0.196,0.194-0.294
		c0.128-0.222,0.126-0.26,0.126-0.462c0-0.124-0.002,0.07-0.002-0.108h0.002v-1.058c-0.034,0.036-0.068,0.072-0.104,0.108
		c-0.472,0.476-1.076,0.932-1.748,1.342v0.01H27.87c-0.812,0.492-1.72,0.914-2.616,1.214c-1.616,0.542-3.214,0.688-4.17,0.148
		V86.646z M20.382,87.854L20.382,87.854V87.85c-0.002-0.032-0.002-0.062-0.002-0.092h0.002V85.76c-0.018-0.178,0.03-0.344,0.134-0.5
		c0.116-0.174,0.3-0.324,0.526-0.448c0.316-0.174,0.722-0.31,1.118-0.404v-1.636c-0.436-0.078-0.832-0.212-1.168-0.406
		c-0.092-0.052-0.178-0.108-0.258-0.168c-0.126-0.094-0.21-0.202-0.266-0.314c-0.052-0.104-0.076-0.21-0.084-0.31l0,0V81.57
		c-0.002-0.032-0.002-0.062-0.002-0.092h0.002V79.48c-0.018-0.178,0.03-0.344,0.134-0.5c0.116-0.174,0.3-0.324,0.526-0.448
		c0.316-0.174,0.722-0.31,1.118-0.404v-1.636c-0.436-0.078-0.832-0.212-1.168-0.406c-0.092-0.052-0.178-0.108-0.258-0.168
		c-0.126-0.094-0.21-0.202-0.266-0.314c-0.052-0.104-0.076-0.21-0.084-0.31l0,0V75.29c-0.002-0.032-0.002-0.062-0.002-0.092h0.002
		V73.2c-0.018-0.178,0.03-0.344,0.134-0.5c0.116-0.174,0.3-0.324,0.526-0.448c0.316-0.174,0.722-0.31,1.118-0.404v-1.636
		c-0.436-0.078-0.832-0.212-1.168-0.406c-0.092-0.052-0.178-0.108-0.258-0.168c-0.126-0.094-0.21-0.202-0.266-0.314
		c-0.052-0.104-0.076-0.21-0.084-0.31l0,0V69.01c-0.002-0.032-0.002-0.062-0.002-0.092h0.002V66.92
		c-0.018-0.178,0.03-0.344,0.134-0.5c0.116-0.174,0.3-0.324,0.526-0.448c0.316-0.174,0.722-0.31,1.118-0.404v-1.636
		c-0.436-0.078-0.832-0.212-1.168-0.406c-0.092-0.052-0.178-0.108-0.258-0.168c-0.126-0.094-0.21-0.202-0.266-0.314
		c-0.052-0.104-0.076-0.21-0.084-0.31l0,0V62.73c-0.002-0.032-0.002-0.062-0.002-0.092h0.002V60.64
		c-0.018-0.178,0.03-0.344,0.134-0.5c0.116-0.174,0.3-0.324,0.526-0.448c0.316-0.174,0.722-0.31,1.118-0.404v-1.636
		c-0.436-0.078-0.832-0.212-1.168-0.406c-0.092-0.052-0.178-0.108-0.258-0.168c-0.126-0.094-0.21-0.202-0.266-0.314
		c-0.052-0.104-0.076-0.21-0.084-0.31l0,0V56.45c-0.002-0.032-0.002-0.062-0.002-0.092h0.002V54.36
		c-0.018-0.178,0.03-0.344,0.134-0.5c0.116-0.174,0.3-0.324,0.526-0.448c0.316-0.174,0.722-0.31,1.118-0.404v-1.636
		c-0.436-0.078-0.832-0.212-1.168-0.406c-0.092-0.052-0.178-0.108-0.258-0.168c-0.126-0.094-0.21-0.202-0.266-0.314
		c-0.052-0.104-0.076-0.21-0.084-0.31l0,0V50.17c-0.002-0.032-0.002-0.062-0.002-0.092h0.002V48.08
		c-0.018-0.178,0.03-0.344,0.134-0.5c0.116-0.174,0.3-0.324,0.526-0.448c0.316-0.174,0.722-0.31,1.118-0.404v-1.636
		c-0.436-0.078-0.832-0.212-1.168-0.406c-0.092-0.052-0.178-0.108-0.258-0.168c-0.126-0.094-0.21-0.202-0.266-0.314
		c-0.052-0.104-0.076-0.21-0.084-0.31l0,0V43.89c-0.002-0.032-0.002-0.062-0.002-0.092h0.002V41.8
		c-0.018-0.178,0.03-0.344,0.134-0.5c0.116-0.174,0.3-0.324,0.526-0.448c0.318-0.176,0.728-0.312,1.126-0.406l0.004-1.63
		c-0.442-0.078-0.842-0.212-1.182-0.408c-0.092-0.052-0.178-0.108-0.258-0.168c-0.126-0.094-0.21-0.202-0.266-0.314
		c-0.052-0.104-0.076-0.21-0.084-0.31l0,0v-0.004c-0.002-0.032-0.002-0.062-0.002-0.092h0.002v-1.998
		c-0.018-0.178,0.03-0.344,0.134-0.5c0.116-0.174,0.3-0.324,0.526-0.448c0.318-0.176,0.73-0.314,1.128-0.408v-1.63
		c-0.44-0.078-0.84-0.212-1.18-0.408c-0.092-0.052-0.178-0.108-0.258-0.168c-0.126-0.094-0.21-0.202-0.266-0.314
		c-0.052-0.104-0.076-0.21-0.084-0.31l0,0v-0.004c-0.002-0.032-0.002-0.062-0.002-0.092h0.002v-1.998
		c-0.018-0.178,0.03-0.344,0.134-0.5c0.116-0.174,0.3-0.324,0.526-0.448c0.318-0.176,0.73-0.314,1.128-0.408v-1.122
		c-0.538-0.13-1.026-0.344-1.436-0.648c-0.126-0.092-0.21-0.202-0.266-0.314c-0.052-0.104-0.076-0.21-0.084-0.31l0,0v-0.004
		c-0.002-0.032-0.002-0.062-0.002-0.092h0.002v-1.998c-0.018-0.178,0.032-0.344,0.134-0.5c0.116-0.174,0.3-0.324,0.526-0.448
		c0.318-0.176,0.73-0.314,1.128-0.408V16.22c0-0.558,0.002-0.296,0.002-0.384c-0.006-0.824-0.008-1.222,0.312-1.594
		c0.308-0.358,0.666-0.418,1.356-0.534c0.168-0.028,0.362-0.06,0.556-0.098l48.704-9.158c0.256-0.048,0.524-0.106,0.746-0.156
		c0.716-0.156,1.078-0.236,1.464,0.076c0.396,0.32,0.386,0.696,0.368,1.454c-0.002,0.102-0.006,0.22-0.008,0.4l1.056-0.198v1.104
		l1.08-0.204V8.16l1.138-0.214c0.062-0.012,0.116-0.018,0.164-0.018c0.208,0,0.4,0.074,0.556,0.204
		c0.15,0.128,0.256,0.302,0.294,0.504c0.012,0.06,0.018,0.116,0.018,0.166v76.266c0,0.224-0.084,0.436-0.218,0.602l-0.002-0.002
		c-0.136,0.166-0.332,0.29-0.554,0.332l-51.694,9.72c-0.062,0.012-0.116,0.018-0.164,0.018c-0.21,0-0.402-0.074-0.556-0.202
		c-0.15-0.126-0.256-0.302-0.294-0.508c-0.012-0.06-0.018-0.116-0.018-0.166v-1.254l-1.11,0.208v-1.104l-1.08,0.204l0.004-1.168
		c-0.104,0.02-0.188,0.036-0.266,0.05c-0.796,0.154-1.178,0.228-1.564-0.136c-0.346-0.326-0.334-0.686-0.312-1.38
		c0.006-0.176,0.012-0.39,0.012-0.764v-0.516c-0.436-0.078-0.832-0.212-1.168-0.406c-0.092-0.052-0.178-0.108-0.258-0.168
		c-0.126-0.094-0.21-0.202-0.266-0.314c-0.052-0.104-0.076-0.21-0.084-0.31L20.382,87.854z M22.158,85.134
		c-0.286,0.076-0.562,0.174-0.776,0.294c-0.132,0.072-0.232,0.148-0.28,0.222c-0.016,0.024-0.022,0.05-0.01,0.074
		c0.016,0.036,0.048,0.078,0.098,0.128c0.046,0.046,0.1,0.088,0.158,0.128c0.216,0.146,0.49,0.236,0.81,0.28V85.134z M23.57,86.206
		c0.232-0.038,0.474-0.09,0.72-0.154v-3.264c-0.242,0.032-0.484,0.054-0.72,0.066V86.206z M24.642,85.954
		c0.13-0.038,0.258-0.08,0.39-0.122c0.112-0.038,0.222-0.076,0.334-0.118v-3.13c-0.242,0.06-0.482,0.11-0.722,0.152v3.22
		L24.642,85.954z M25.718,85.578c0.256-0.104,0.508-0.216,0.758-0.336v-2.998c-0.25,0.092-0.504,0.174-0.758,0.246V85.578z
		 M26.476,88.52c-0.25,0.092-0.504,0.174-0.758,0.246v4.674l0.758-0.142v-4.776V88.52z M25.366,88.858
		c-0.242,0.06-0.482,0.11-0.722,0.152v2.144l0,0l-0.004,1.384l0.728-0.136v-3.544H25.366z M24.29,89.062
		c-0.242,0.032-0.484,0.054-0.72,0.066v0.436c0,0.168-0.004,0.362-0.01,0.546c-0.002,0.09-0.004,0.114-0.006,0.196
		c-0.006,0.184,0.132,0.17,0.204,0.154c0.07-0.014,0.146-0.028,0.22-0.042c0.108-0.02,0.214-0.04,0.312-0.058V89.062z
		 M21.086,80.368v1.166c0.002,0.014,0.006,0.026,0.012,0.04c0.01,0.018,0.026,0.04,0.054,0.06c0.062,0.046,0.124,0.086,0.188,0.124
		c0.966,0.554,2.59,0.504,4.174,0.058c1.6-0.452,3.136-1.302,3.906-2.344c0.074-0.098,0.138-0.196,0.194-0.294
		c0.128-0.222,0.126-0.26,0.126-0.462c0-0.124-0.002,0.07-0.002-0.108h0.002V77.55c-0.034,0.036-0.068,0.072-0.104,0.108
		c-1.044,1.05-2.736,2.014-4.382,2.564c-1.616,0.542-3.214,0.688-4.17,0.148L21.086,80.368z M22.16,78.856
		c-0.286,0.076-0.562,0.174-0.776,0.294c-0.132,0.072-0.232,0.148-0.28,0.222c-0.016,0.024-0.022,0.05-0.01,0.074
		c0.016,0.036,0.048,0.078,0.098,0.128c0.046,0.046,0.1,0.088,0.158,0.128c0.216,0.146,0.49,0.236,0.81,0.28V78.856z M23.572,79.928
		c0.232-0.038,0.474-0.09,0.72-0.154V76.51c-0.242,0.032-0.484,0.054-0.72,0.066V79.928z M24.644,79.676
		c0.13-0.038,0.258-0.08,0.39-0.122c0.112-0.038,0.222-0.076,0.334-0.118v-3.13c-0.242,0.06-0.482,0.11-0.722,0.152v3.22
		L24.644,79.676z M25.72,79.3c0.256-0.104,0.508-0.216,0.758-0.336v-2.998c-0.25,0.092-0.504,0.174-0.758,0.246V79.3z
		 M21.088,74.092v1.166c0.002,0.014,0.006,0.026,0.012,0.04c0.01,0.018,0.026,0.04,0.054,0.06c0.062,0.046,0.124,0.086,0.188,0.124
		c0.966,0.554,2.59,0.504,4.174,0.058c1.6-0.452,3.136-1.302,3.906-2.344c0.074-0.098,0.138-0.196,0.194-0.294
		c0.128-0.222,0.126-0.26,0.126-0.462c0-0.124-0.002,0.07-0.002-0.108h0.002v-1.058c-0.034,0.036-0.068,0.072-0.104,0.108
		c-1.044,1.05-2.736,2.014-4.382,2.564c-1.616,0.542-3.214,0.688-4.17,0.148L21.088,74.092z M22.162,72.58
		c-0.286,0.076-0.562,0.174-0.776,0.294c-0.132,0.072-0.232,0.148-0.28,0.222c-0.016,0.024-0.022,0.05-0.01,0.074
		c0.016,0.036,0.048,0.078,0.098,0.128c0.046,0.046,0.1,0.088,0.158,0.128c0.216,0.146,0.49,0.236,0.81,0.28V72.58z M23.574,73.652
		c0.232-0.038,0.474-0.09,0.72-0.154v-3.264c-0.242,0.032-0.484,0.054-0.72,0.066V73.652z M24.646,73.4
		c0.13-0.038,0.258-0.08,0.39-0.122c0.112-0.038,0.222-0.076,0.334-0.118v-3.13c-0.242,0.06-0.482,0.11-0.722,0.152v3.22
		L24.646,73.4z M25.722,73.024c0.256-0.104,0.508-0.216,0.758-0.336V69.69c-0.25,0.092-0.504,0.174-0.758,0.246V73.024z
		 M21.09,67.816v1.166c0.002,0.014,0.006,0.026,0.012,0.04c0.01,0.018,0.026,0.04,0.054,0.06c0.062,0.046,0.124,0.086,0.188,0.124
		c0.966,0.554,2.59,0.504,4.174,0.058c1.6-0.452,3.136-1.302,3.906-2.344c0.074-0.098,0.138-0.196,0.194-0.294
		c0.128-0.222,0.126-0.26,0.126-0.462c0-0.124-0.002,0.07-0.002-0.108h0.002v-1.058c-0.034,0.036-0.068,0.072-0.104,0.108
		c-1.044,1.05-2.736,2.014-4.382,2.564c-1.616,0.542-3.214,0.688-4.17,0.148L21.09,67.816z M22.164,66.304
		c-0.286,0.076-0.562,0.174-0.776,0.294c-0.132,0.072-0.232,0.148-0.28,0.222c-0.016,0.024-0.022,0.05-0.01,0.074
		c0.016,0.036,0.048,0.078,0.098,0.128c0.046,0.046,0.1,0.088,0.158,0.128c0.216,0.146,0.49,0.236,0.81,0.28V66.304z M23.576,67.376
		c0.234-0.04,0.474-0.09,0.72-0.154l-0.004-3.264c-0.242,0.032-0.482,0.054-0.716,0.064v3.352V67.376z M24.646,67.124
		c0.13-0.038,0.26-0.08,0.39-0.124c0.112-0.038,0.222-0.076,0.334-0.118v-3.13c-0.242,0.06-0.486,0.11-0.728,0.152L24.646,67.124z
		 M25.722,66.748c0.266-0.108,0.532-0.226,0.79-0.352H26.48v-2.982c-0.25,0.092-0.504,0.174-0.758,0.246V66.748z M21.09,61.54v1.166
		c0.002,0.014,0.006,0.026,0.012,0.04c0.01,0.018,0.026,0.04,0.054,0.06c0.062,0.046,0.124,0.086,0.188,0.124
		c0.966,0.554,2.59,0.504,4.174,0.058c1.6-0.452,3.136-1.302,3.906-2.344c0.074-0.098,0.138-0.196,0.194-0.294
		c0.128-0.222,0.126-0.26,0.126-0.462c0-0.124-0.002,0.07-0.002-0.108h0.002v-1.058c-0.034,0.036-0.068,0.072-0.104,0.108
		c-0.472,0.476-1.076,0.932-1.748,1.342v0.006h-0.01c-0.812,0.494-1.724,0.916-2.622,1.216c-1.616,0.542-3.214,0.688-4.17,0.148
		V61.54z M22.164,60.028c-0.286,0.076-0.562,0.174-0.776,0.294c-0.132,0.072-0.232,0.148-0.28,0.222
		c-0.016,0.024-0.022,0.05-0.01,0.074c0.016,0.036,0.048,0.078,0.098,0.128c0.046,0.046,0.1,0.088,0.158,0.128
		c0.216,0.146,0.49,0.236,0.81,0.28V60.028z M23.576,61.1c0.232-0.038,0.47-0.09,0.714-0.152v-3.264
		c-0.242,0.032-0.48,0.054-0.714,0.064V61.1z M24.644,60.85c0.13-0.038,0.262-0.08,0.394-0.124c0.112-0.038,0.222-0.076,0.334-0.118
		v-3.13c-0.242,0.06-0.486,0.11-0.728,0.152V60.85z M25.724,60.472c0.256-0.104,0.508-0.216,0.758-0.336v-2.998
		c-0.25,0.092-0.504,0.174-0.758,0.246V60.472z M21.092,55.264v1.166c0.002,0.014,0.006,0.026,0.012,0.04
		c0.01,0.018,0.026,0.04,0.054,0.06c0.062,0.046,0.124,0.086,0.188,0.124c0.966,0.554,2.59,0.504,4.174,0.058
		c1.6-0.452,3.136-1.302,3.906-2.344c0.074-0.098,0.138-0.196,0.194-0.294c0.128-0.222,0.126-0.26,0.126-0.462
		c0-0.124-0.002,0.07-0.002-0.108h0.002v-1.058c-0.034,0.036-0.068,0.072-0.104,0.108c-0.472,0.476-1.076,0.932-1.748,1.342v0.008
		H27.88c-0.812,0.492-1.722,0.914-2.618,1.214c-1.616,0.542-3.214,0.688-4.17,0.148V55.264z M22.166,53.752
		c-0.286,0.076-0.562,0.174-0.776,0.294c-0.132,0.072-0.232,0.148-0.28,0.222c-0.016,0.024-0.022,0.05-0.01,0.074
		c0.016,0.036,0.048,0.078,0.098,0.128c0.046,0.046,0.1,0.088,0.158,0.128c0.216,0.146,0.49,0.236,0.81,0.28V53.752z M23.578,54.824
		c0.232-0.038,0.47-0.09,0.714-0.152v-3.264c-0.242,0.032-0.48,0.054-0.714,0.064V54.824z M24.646,54.574
		c0.13-0.038,0.262-0.08,0.394-0.124c0.112-0.038,0.222-0.076,0.334-0.118v-3.13c-0.242,0.06-0.486,0.11-0.728,0.152V54.574z
		 M25.726,54.196c0.256-0.104,0.508-0.216,0.758-0.336v-2.998c-0.25,0.092-0.504,0.174-0.758,0.246V54.196z M21.094,48.988v1.166
		c0.002,0.014,0.006,0.026,0.012,0.04c0.01,0.018,0.026,0.04,0.054,0.06c0.062,0.046,0.124,0.086,0.188,0.124
		c0.966,0.554,2.59,0.504,4.174,0.058c1.6-0.452,3.136-1.302,3.906-2.344c0.074-0.098,0.138-0.196,0.194-0.294
		c0.128-0.222,0.126-0.26,0.126-0.462c0-0.124-0.002,0.07-0.002-0.108h0.002V46.17c-0.034,0.036-0.068,0.072-0.104,0.108
		c-1.044,1.05-2.736,2.014-4.382,2.564c-1.616,0.542-3.214,0.688-4.17,0.148L21.094,48.988z M22.168,47.476
		c-0.286,0.076-0.562,0.174-0.776,0.294c-0.132,0.072-0.232,0.148-0.28,0.222c-0.016,0.024-0.022,0.05-0.01,0.074
		c0.016,0.036,0.048,0.078,0.098,0.128c0.046,0.046,0.1,0.088,0.158,0.128c0.216,0.146,0.49,0.236,0.81,0.28V47.476z M23.58,48.548
		c0.232-0.038,0.47-0.09,0.714-0.152v-3.264c-0.242,0.032-0.48,0.054-0.714,0.064V48.548z M24.648,48.298
		c0.13-0.038,0.262-0.08,0.394-0.124c0.112-0.038,0.222-0.076,0.334-0.118v-3.13c-0.242,0.06-0.486,0.11-0.728,0.152V48.298z
		 M25.728,47.92c0.256-0.104,0.508-0.216,0.758-0.336v-2.998c-0.25,0.092-0.504,0.174-0.758,0.246V47.92z M21.096,42.712v1.166
		c0.002,0.014,0.006,0.026,0.012,0.04c0.01,0.018,0.026,0.04,0.054,0.06c0.062,0.046,0.124,0.086,0.188,0.124
		c0.966,0.554,2.59,0.504,4.174,0.058c1.6-0.452,3.136-1.302,3.906-2.344c0.074-0.098,0.138-0.196,0.194-0.294
		c0.128-0.222,0.126-0.26,0.126-0.462c0-0.124-0.002,0.07-0.002-0.108h0.002v-1.058c-0.034,0.036-0.068,0.072-0.104,0.108
		c-1.044,1.05-2.736,2.014-4.382,2.564c-1.616,0.542-3.214,0.688-4.17,0.148L21.096,42.712z M22.176,41.198
		c-0.288,0.076-0.568,0.176-0.782,0.294c-0.132,0.072-0.232,0.148-0.28,0.222c-0.016,0.024-0.022,0.05-0.01,0.074
		c0.016,0.036,0.048,0.078,0.098,0.128c0.046,0.046,0.1,0.088,0.158,0.128c0.216,0.146,0.492,0.238,0.814,0.28l0.004-1.128
		L22.176,41.198z M23.578,42.272c0.232-0.038,0.472-0.09,0.716-0.152v-3.264c-0.238,0.032-0.476,0.054-0.708,0.064l-0.01,3.352
		H23.578z M24.648,42.022c0.13-0.038,0.262-0.08,0.394-0.124c0.112-0.038,0.222-0.076,0.334-0.118v-3.13
		c-0.242,0.06-0.486,0.11-0.728,0.152V42.022z M25.728,41.644c0.256-0.104,0.508-0.216,0.758-0.336V38.31
		c-0.25,0.092-0.504,0.174-0.758,0.246V41.644z M27.898,22.94v0.012h-0.02c-0.724,0.474-1.524,0.884-2.324,1.19
		c-0.934,0.358-1.876,0.576-2.704,0.59c-0.44,0.008-0.85-0.042-1.214-0.158c-0.194-0.062-0.376-0.142-0.54-0.242v1.156
		c0.002,0.014,0.006,0.026,0.012,0.04c0.01,0.02,0.026,0.04,0.054,0.06c0.746,0.552,1.84,0.75,3.016,0.618
		c1.198-0.134,2.472-0.608,3.552-1.398h0.002c0.274-0.2,0.294-0.234,0.298-0.452l0.018-1.516c-0.05,0.034-0.1,0.068-0.152,0.102
		L27.898,22.94z M26.486,22.95v-4.312c0-0.224,0.084-0.436,0.218-0.602c0.136-0.166,0.332-0.29,0.554-0.332l50.204-9.44V7.39
		l-51.734,9.728v6.19c0.256-0.11,0.508-0.23,0.758-0.36V22.95z M25.376,23.456V16.83c17.002-3.198,34.004-6.396,51.008-9.592V6.494
		L24.65,16.222v7.488c0.216-0.066,0.436-0.142,0.656-0.226c0.024-0.01,0.048-0.018,0.072-0.028H25.376z M24.296,23.81v-7.88
		c16.658-3.132,33.314-6.266,49.972-9.396c0-0.164,0.004-0.266,0.008-0.494C74.286,5.916,74.258,5.7,74,5.752
		c-0.196,0.042-0.28,0.062-0.632,0.128l-48.704,9.158c-0.24,0.046-0.424,0.076-0.584,0.102c-0.288,0.094-0.518,0.08-0.494,0.734
		c0.002,0.322,0.004,0.112,0.004,0.388v7.7c0.228-0.036,0.464-0.086,0.704-0.15L24.296,23.81z M22.182,23.984v-1.178
		c-0.288,0.076-0.57,0.176-0.786,0.296c-0.132,0.072-0.232,0.148-0.28,0.222c-0.016,0.024-0.022,0.05-0.01,0.074
		c0.016,0.036,0.048,0.078,0.098,0.128c0.172,0.172,0.392,0.296,0.648,0.376c0.104,0.034,0.216,0.06,0.332,0.08L22.182,23.984z
		 M21.098,30.162v1.166c0.002,0.014,0.006,0.026,0.012,0.04c0.01,0.018,0.026,0.04,0.054,0.06c0.062,0.046,0.124,0.086,0.188,0.124
		c0.966,0.554,2.59,0.504,4.174,0.058c1.6-0.452,3.136-1.302,3.906-2.344c0.074-0.098,0.138-0.196,0.194-0.294
		c0.128-0.222,0.126-0.26,0.126-0.462c0-0.124-0.002,0.07-0.002-0.108h0.002v-1.058c-0.034,0.036-0.068,0.072-0.104,0.108
		c-1.044,1.05-2.736,2.014-4.382,2.564c-1.616,0.542-3.214,0.688-4.17,0.148L21.098,30.162z M22.182,28.648
		c-0.29,0.076-0.57,0.176-0.786,0.296c-0.132,0.072-0.232,0.148-0.28,0.222c-0.016,0.024-0.022,0.05-0.01,0.074
		c0.016,0.036,0.048,0.078,0.098,0.128c0.046,0.046,0.1,0.088,0.158,0.128c0.218,0.148,0.496,0.238,0.82,0.282V28.648z
		 M23.594,29.72c0.228-0.038,0.464-0.09,0.704-0.15v-2.668l-0.04,0.004c-0.224,0.024-0.446,0.038-0.664,0.042V29.72z M24.65,29.472
		c0.13-0.038,0.262-0.08,0.394-0.124c0.112-0.038,0.222-0.076,0.334-0.118v-2.536c-0.242,0.064-0.486,0.116-0.728,0.156v2.62V29.472
		z M25.73,29.094c0.256-0.104,0.508-0.216,0.758-0.336v-2.444c-0.25,0.106-0.504,0.198-0.758,0.278V29.094z M26.488,32.036
		c-0.25,0.092-0.504,0.174-0.758,0.246v3.088c0.256-0.104,0.508-0.216,0.758-0.336V32.036z M25.378,32.374
		c-0.242,0.06-0.486,0.11-0.728,0.152v3.22c0.13-0.038,0.262-0.08,0.394-0.124c0.112-0.038,0.222-0.076,0.334-0.118V32.374z
		 M24.298,32.58c-0.238,0.032-0.472,0.052-0.704,0.064v3.35c0.228-0.038,0.464-0.09,0.704-0.15V32.58z M22.184,34.922
		c-0.29,0.076-0.57,0.176-0.786,0.296c-0.132,0.072-0.232,0.148-0.28,0.222c-0.016,0.024-0.022,0.05-0.01,0.074
		c0.016,0.036,0.048,0.078,0.098,0.128c0.046,0.046,0.1,0.088,0.158,0.128c0.218,0.148,0.496,0.238,0.82,0.282V34.922z"/>
</g>
</svg>
