<svg height='100px' width='100px'  fill="#000000" xmlns="http://www.w3.org/2000/svg" xmlns:xlink="http://www.w3.org/1999/xlink" version="1.1" x="0px" y="0px" viewBox="0 0 91 91" style="enable-background:new 0 0 91 91;" xml:space="preserve"><g><path d="M16.2,24.9c4-0.8,7-5.4,5.3-9.4c-1.7-4.1-7.3-4-9.8-0.8c-1.1,1.4,0.7,3.4,2,2c2.4-2.4,6,0,3.9,3c-1.2,1.7-3.6,1.8-5.4,1.2   c-5-1.5-3.9-8.4-0.1-10.7c3.3-1.9,7.8-1.6,11.4-0.3c0.3,5-0.7,10-1.7,14.8c-1.3,6.4-3.1,12.7-5,19c-3,10.3-6.2,21-11.3,30.3   c-0.8,1.5-0.1,3.4,1.6,3.9c8.1,2.4,15.5,6.3,22.5,10.7c0.4,0.6,1.1,1,2,1c10.1-0.3,20.1-0.7,30.1-2.4c8.3-1.3,16.9-3.1,24.5-6.9   c0.9-0.5,1.2-1.3,1-2.2c0-0.2-0.5-4.2-0.6-5.5c-0.5-4.4-0.9-8.7-1.5-13c-1.4-11.3-2.9-22.6-5.2-33.8c-1.1-5.3-2.4-10.7-4.4-15.7   C73,3.8,67.9,0.7,61.2,0.7c-6.6,0-13.4,1.1-19.9,1.7c-7.1,0.7-21.5,2.4-21.7,2.5C14.9,4.4,10,5.7,7.1,9.5   C1.6,16.7,7.2,26.7,16.2,24.9z M22.1,45.3c2-6.5,3.8-13,5.1-19.7c0.8-3.7,1.5-7.6,1.7-11.5c1.6,2.4,1.8,5.5,1.8,8.9   c-0.1,19.5-0.5,39-1.4,58.4c-1-2-5-10.3-6.6-11.8c2-4,3.2-8.4,4-12.7c1.1-5.4,2.3-11.3,2.3-16.8c0-2-3.1-2.5-3.6-0.5   C24.3,45,24.1,50.5,23,55.9c-0.8,4.3-2,8.5-3,12.7c-1.5,0.1-6.3,2.4-7.3,2.9C16.7,63.1,19.5,54,22.1,45.3z M19.9,72.8L19.9,72.8   c0.4,0.6,3.1,5.9,3.2,6.1c-2.8-1.5-5.7-2.8-8.7-4C16.3,74.1,18.1,73.3,19.9,72.8z M56,5c2.9-0.2,6-0.6,8.8,0.1c4.2,1,6.1,4,7.4,7.8   c1.7,5.1,2.9,10.3,4,15.5C78.4,39.2,79.8,50.1,81,61c0.5,4.4,0.9,8.9,1.4,13.3c0.1,0.8,0.1,1.8,0.2,2.8c-7,3.1-14.8,4.4-22.3,5.5   c-8.6,1.2-17.4,1.9-26.1,1.8c0.6-12.8,1-25.6,1.1-38.4c0.1-6.7,0-13.4-0.1-20c-0.1-5,0.3-10.9-3.1-15c-1.1-1.3-2.5-2.5-4.2-3.5   C37.4,6.8,46.7,5.7,56,5z"></path><path d="M66.5,63.2c-1.5,0.8-2.6-0.3-3.9-0.9c-1.4-0.7-2.9-1.3-4.5-1c-1.5,0.3-2.6,1.4-3.4,2.7c-0.9,1.4-1.5,2.2-3.4,1.5   c-1-0.4-1.2-0.7-2.3-0.8c-0.8-0.1-1.1,0.8-1.1,1.4c0.3,2.4,3.2,4.2,5.6,4c1-0.1,2-0.5,2.8-1.2c1-0.9,1.4-2.6,2.6-3.1   c1.3-0.6,2.7,0.9,4,1.4c1.2,0.5,2.4,0.7,3.7,0.5c2.8-0.6,4.5-3.2,5.9-5.5c1.3-2.4-2.3-4.5-3.7-2.1C68.3,61.1,67.5,62.7,66.5,63.2z"></path><path d="M66.9,69.8c-1.5,1-4.3,0-6,0.4c-1.9,0.3-3.9,1.2-5.1,2.7c-1,1.3,0.2,3.2,1.9,2.4c2.2-1.1,3.7-1.8,6.2-1.5   c1.8,0.2,3.4,0.3,5-0.7C70.8,71.7,68.9,68.4,66.9,69.8z"></path><path d="M53,51.4c8.1,4,13.7-3.6,15-10.7c0.6-3.4,1.1-7.4-1-10.4c-1.2-1.9-3.3-3.1-5.4-3.4c-1.4-1.3-4.2-0.7-5.9-0.5   c-3.4,0.5-5.9,2.1-7.9,5C43,38.2,45.5,47.8,53,51.4z M64.2,31.9c3,3.3,2.1,8.2-0.1,11.6c-1.1,1.8-2.7,3.5-4.5,4.3   c0.9-1.1,1.6-2.3,1.7-3.8c0.4-3.1-1.7-5.3-2.4-8.2c-0.3-1.2-0.5-3,0-4.1C59.9,29.5,62.9,30.4,64.2,31.9z M49.3,38.4   c0.2-3.4,2.5-7.3,5.9-8.3c0.1,0,0.2,0,0.3-0.1c-0.8,1.6-0.9,3.6-0.8,5.3c0.1,2,0.9,3.6,1.6,5.4c1.8,4.2-2.7,6-2.8,6.1   C50.9,44.8,49.1,41.6,49.3,38.4z"></path></g></svg>