<svg height='100px' width='100px'  fill="#000000" xmlns="http://www.w3.org/2000/svg" xmlns:xlink="http://www.w3.org/1999/xlink" version="1.1" x="0px" y="0px" viewBox="0 0 100 100" enable-background="new 0 0 100 100" xml:space="preserve"><path d="M80.924,34.087c0,1.822-1.478,3.3-3.304,3.3H59.005c-1.822,0-3.3-1.478-3.3-3.3v-7.153c0-1.825,1.478-3.302,3.3-3.302H77.62  c1.826,0,3.304,1.478,3.304,3.302V34.087z"></path><path d="M53.604,11.448c0,1.823-1.478,3.3-3.302,3.3H31.688c-1.822,0-3.3-1.478-3.3-3.3V9.59c0-1.822,1.478-3.3,3.3-3.3h18.615  c1.824,0,3.302,1.478,3.302,3.3V11.448z"></path><g><polygon points="39.198,25.853 37.072,16.947 22.558,16.947 22.558,25.853  "></polygon><polygon points="40.966,25.853 53.506,25.853 53.506,16.947 38.839,16.947  "></polygon><polygon points="39.608,27.572 22.558,27.572 22.558,37.194 41.906,37.194  "></polygon><polygon points="41.377,27.572 43.674,37.194 53.506,37.194 53.506,27.572  "></polygon></g><g><polygon points="55.705,16.159 55.705,21.913 74.808,21.913 74.808,7.822  "></polygon><polygon points="74.808,5.943 74.808,0.228 55.705,0.228 55.705,14.283  "></polygon></g><path d="M59.627,46.713c-2.552,0-4.627,2.078-4.627,4.627c0,2.552,2.075,4.632,4.627,4.632c2.548,0,4.63-2.08,4.63-4.632  C64.257,48.791,62.175,46.713,59.627,46.713z"></path><path d="M84.558,64.818l-8.733-5.288l-0.877-13.177c-0.301-3.569-3.282-6.376-6.923-6.376v-0.002H32.925  c-3.631,0-6.618,2.805-6.916,6.376l-0.873,13.178l-8.742,5.287l0.02,22.242h3.9l-0.004,7.278c0,3.125,2.523,5.664,5.651,5.664  c3.125,0,5.657-2.536,5.657-5.662l-0.007-7.278h37.736l-0.007,7.278c0,3.128,2.532,5.662,5.65,5.662  c3.126,0,5.655-2.536,5.655-5.662l-0.002-7.278h3.897L84.558,64.818z M25.822,77.236c-2.619,0-4.737-2.125-4.737-4.755  c0-2.602,2.115-4.735,4.737-4.735c2.615,0,4.74,2.132,4.74,4.735C30.562,75.111,28.437,77.236,25.822,77.236z M37.412,79.048  l0.006-8.53c0-1.178,0.956-2.143,2.131-2.143l22.558-0.035c1.178,0,2.136,0.965,2.136,2.14l0.007,8.532L37.412,79.048z   M68.022,60.504c-0.269-2.028-1.986-3.598-4.086-3.598h-8.64c-2.098,0-3.814,1.569-4.084,3.598h-3.438V48.276H34.784v12.228h-4.661  l0.849-13.887c0.154-1.852,1.704-1.82,3.593-1.82h31.842c1.89,0,3.438-0.031,3.6,1.82l0.847,13.887H68.022z M75.137,77.236  c-2.617,0-4.739-2.125-4.739-4.755c0-2.602,2.122-4.735,4.739-4.735c2.613,0,4.733,2.132,4.733,4.735  C79.87,75.111,77.75,77.236,75.137,77.236z"></path></svg>