<svg height='100px' width='100px'  fill="#000000" xmlns="http://www.w3.org/2000/svg" xmlns:xlink="http://www.w3.org/1999/xlink" xml:space="preserve" version="1.1" style="shape-rendering:geometricPrecision;text-rendering:geometricPrecision;image-rendering:optimizeQuality;" viewBox="0 0 60000 60000" x="0px" y="0px" fill-rule="evenodd" clip-rule="evenodd"><defs><style type="text/css">
   
    .fil0 {fill:#000000;fill-rule:nonzero}
   
  </style></defs><g><path class="fil0" d="M45529 45172c-455,-578 -2211,-474 -3122,-419 -76,5 -146,9 -246,14l0 1 -8431 689c512,346 1015,646 1510,912l10289 -1196zm-9143 -12715l-21 -12 -53 -31 -52 -31 -52 -32 -52 -32 -51 -33 -51 -33 -50 -34 -50 -34 -50 -35 -49 -35 -49 -36 -49 -36 -480 640 55 41 56 40 56 40 56 39 57 39 57 38 57 38 58 37 58 36 58 36 59 35 59 35 21 12 402 -691zm12225 -4896l-5 39 -8 63 -9 63 -10 62 -10 62 -11 62 -12 62 -12 61 -13 61 -14 61 -14 60 -15 60 -4 17 773 207 7 -25 17 -69 16 -69 16 -69 15 -70 14 -70 13 -70 13 -71 12 -71 11 -71 10 -72 10 -72 5 -39 -794 -102zm-1116 2736l-21 28 -37 48 -37 47 -38 47 -38 47 -39 46 -39 46 -40 46 -40 45 -41 45 -41 45 -42 45 -37 39 577 554 42 -44 47 -50 46 -50 46 -51 45 -51 45 -51 44 -52 44 -52 43 -53 43 -53 42 -54 42 -54 21 -28 -636 -486zm-2296 1950l-36 20 -56 31 -57 30 -57 30 -57 30 -57 29 -58 29 -58 28 -58 28 -58 28 -59 27 -73 33 325 731 20 -9 64 -29 64 -30 64 -30 63 -31 63 -31 63 -31 63 -32 62 -32 62 -33 62 -33 61 -34 36 -20 -386 -701zm-2880 1033l-42 8 -65 12 -65 12 -65 11 -65 11 -65 10 -65 10 -66 9 -66 9 -66 9 -66 8 -66 8 2 0 85 795 74 -9 71 -9 71 -9 71 -10 71 -10 71 -11 71 -11 70 -12 70 -12 70 -12 70 -13 42 -8 -147 -786zm-3059 108l-55 -7 -64 -9 -64 -9 -64 -10 -64 -10 -63 -11 -63 -11 -63 -11 -63 -12 -63 -12 -63 -13 -65 -14 -175 781 77 16 68 14 69 13 69 13 69 12 69 12 69 11 69 11 69 10 70 10 70 9 55 7 105 -793zm1040 -17297c678,0 1291,275 1735,719 444,444 719,1058 719,1735 0,678 -275,1291 -719,1735 -444,444 -1058,719 -1735,719 -678,0 -1291,-275 -1735,-719 -444,-444 -719,-1058 -719,-1735 0,-678 275,-1291 719,-1735 444,-444 1058,-719 1735,-719zm1170 1285c-299,-299 -713,-485 -1170,-485 -457,0 -870,185 -1170,485 -299,299 -485,713 -485,1170 0,457 185,870 485,1170 299,299 713,485 1170,485 457,0 870,-185 1170,-485 299,-299 485,-713 485,-1170 0,-457 -185,-870 -485,-1170zm-4177 5295c1039,0 1981,421 2662,1103 681,681 1103,1622 1103,2662 0,1039 -421,1981 -1103,2662 -681,681 -1622,1103 -2662,1103 -1039,0 -1981,-421 -2662,-1103 -681,-681 -1103,-1622 -1103,-2662 0,-1039 421,-1981 1103,-2662 681,-681 1622,-1103 2662,-1103zm2096 1668c-536,-536 -1278,-868 -2096,-868 -819,0 -1560,332 -2096,868 -536,536 -868,1278 -868,2096 0,819 332,1560 868,2096 536,536 1278,868 2096,868 819,0 1560,-332 2096,-868 536,-536 868,-1278 868,-2096 0,-819 -332,-1560 -868,-2096zm10029 -1835c-619,-1449 -1638,-3017 -2745,-4717 -2409,-3703 -5219,-8022 -5386,-13317l-2 -33c-10,-163 -53,-420 -165,-630 -79,-148 -197,-268 -369,-262 -8,0 4,0 -13,1 -21,1 -42,1 -62,-1 -170,-4 -288,114 -367,262 -112,211 -156,467 -165,630l-2 33c-167,5295 -2977,9614 -5386,13317 -1106,1701 -2126,3268 -2745,4717 -2133,4996 -1306,8655 894,10973 1928,2031 4908,3057 7887,3067 2979,10 5945,-995 7843,-3025 2156,-2306 2936,-5968 782,-11015zm-2076 -5152c1127,1732 2166,3329 2810,4839 2301,5390 1426,9346 -935,11871 -2057,2200 -5240,3288 -8424,3278 -3184,-11 -6382,-1119 -8465,-3314 -2407,-2536 -3331,-6492 -1050,-11835 645,-1510 1684,-3107 2810,-4839 2353,-3617 5098,-7836 5257,-12908 1,-27 2,-45 2,-52 14,-245 82,-634 256,-962 207,-390 549,-701 1100,-684l12 0 12 0c551,-17 893,294 1100,684 174,328 241,717 256,962 0,7 1,25 2,52 160,5072 2905,9291 5257,12908zm-4983 26603c1185,-70 3539,-210 4001,1092 56,-17 119,-38 198,-65 561,-195 1149,-347 1741,-457 611,-113 1227,-181 1822,-204l0 0c16,-1 33,0 50,1 2192,201 2593,836 2811,1509 11,-3 22,-5 34,-7 539,-84 1000,-82 1391,-17 614,103 1064,362 1381,704 318,344 493,764 559,1190 45,290 40,582 -5,853 -15,105 -72,203 -165,268 -824,581 -1926,939 -2971,1278 -518,169 -1023,332 -1447,508 -2631,2201 -6361,5116 -8301,5012 -130,-7 -202,-13 -264,-17 -236,-18 -338,-26 -726,69 -1257,309 -2778,460 -4120,593 -926,92 -1765,175 -2347,294 -206,42 -422,108 -640,174 -161,49 -322,98 -476,138 -10,3 -143,39 -296,80 -1379,374 -2783,755 -4919,-1241l-1 1c-91,-85 -207,-180 -329,-272 -126,-95 -260,-187 -380,-260l-7326 -4508c-967,-479 -1943,-699 -2925,-709 -1000,-10 -2014,194 -3038,564l0 1c-1608,581 -3181,1844 -4821,3160 -1381,1108 -2807,2253 -4371,3094 -194,104 -436,32 -541,-163 -104,-194 -32,-436 163,-541 1502,-807 2898,-1928 4249,-3013 1693,-1358 3317,-2662 5049,-3288l0 1 1 -1c1110,-401 2215,-623 3314,-612 1107,11 2202,258 3281,793 14,7 29,14 42,23l7341 4517c135,83 291,190 442,304 141,106 278,219 392,325l-1 1 1 1c1809,1691 2998,1369 4166,1051 48,-13 95,-26 306,-80 151,-39 298,-84 445,-129 238,-72 475,-145 712,-193 624,-127 1482,-212 2428,-306 1314,-130 2803,-278 4008,-574 188,-46 326,-74 441,-90 -885,-290 -1897,-537 -2901,-783 -2020,-494 -4004,-979 -4961,-1802 -2165,-1196 -3506,-1076 -4946,-947 -230,21 -462,41 -583,51 -220,16 -412,-149 -428,-369 -16,-220 149,-412 369,-428 271,-20 423,-34 574,-47 1575,-141 3040,-273 5441,1065 26,15 50,32 71,51l1 -1c798,710 2707,1177 4650,1652 1045,256 2100,513 3016,817 482,-125 804,-459 993,-862 110,-235 176,-494 205,-754 29,-261 18,-518 -27,-748 -63,-325 -184,-577 -343,-660 -25,-11 -50,-25 -73,-41 -1321,-942 -2718,-1479 -4190,-1999 -17,-5 -33,-10 -49,-17 -144,-51 -290,-102 -436,-153 -1310,-459 -2678,-938 -4117,-1697 -5,-2 -10,-5 -15,-8 -831,-439 -1687,-972 -2569,-1648 -17,-11 -33,-23 -48,-37 -155,-120 -311,-244 -468,-373 -7,-5 -14,-11 -21,-17 -387,-330 -798,-712 -1242,-1125 -3054,-2838 -7748,-7200 -14940,-3962l0 -1 -11496 5282c-200,91 -437,3 -528,-197 -91,-200 -3,-437 197,-528l11500 -5284 0 -1c7675,-3455 12604,1125 15812,4106 441,410 848,788 1217,1103l7 6c117,96 234,190 350,281l9358 -764 0 1 12 -1c44,-2 142,-8 250,-14zm9753 1897c-208,-327 -669,-610 -1988,-734 -548,22 -1117,86 -1682,191 -552,102 -1100,244 -1622,426 -164,57 -274,92 -389,119 -119,28 -233,44 -404,64l-9452 1098c959,422 1887,748 2788,1063 128,45 255,89 381,134 2568,-205 5166,-685 7781,-1168 859,-159 1719,-318 2447,-445 371,-199 756,-373 1136,-505 341,-118 681,-203 1005,-243zm-1790 1463c-20,14 -42,25 -64,35 -655,362 -1256,809 -1666,1219 -222,222 -350,262 -618,347l-12 4c-645,204 -1242,449 -1838,777 -491,270 -983,595 -1503,999 169,229 290,526 354,858 59,304 73,642 36,983 -37,341 -127,688 -277,1007 -270,578 -729,1061 -1415,1270 63,5 127,9 179,12 1672,89 5242,-2724 7780,-4850 11,-11 23,-21 36,-30 432,-362 834,-704 1190,-1008 510,-434 930,-792 1221,-1024 -24,-336 -97,-597 -208,-792 -168,-295 -445,-442 -781,-483 -398,-49 -875,39 -1370,210 -349,121 -703,282 -1044,467zm-1972 389c-230,42 -456,84 -682,126 -2089,386 -4169,770 -6231,1017 871,357 1719,772 2551,1333 611,-486 1183,-870 1752,-1183 648,-356 1291,-621 1982,-839l12 -4c141,-45 209,-66 293,-150 99,-99 207,-199 324,-300zm5092 1480c772,-256 1539,-538 2132,-918 12,-146 8,-295 -15,-442 -44,-281 -155,-555 -356,-772 -202,-218 -503,-386 -928,-457 -52,-9 -106,-16 -162,-22 34,49 67,100 98,154 196,343 311,793 320,1369 2,134 -63,254 -164,327 -209,157 -526,422 -924,760z"></path></g></svg>