<svg height='100px' width='100px'  fill="#000000" xmlns:dc="http://purl.org/dc/elements/1.1/" xmlns:cc="http://creativecommons.org/ns#" xmlns:rdf="http://www.w3.org/1999/02/22-rdf-syntax-ns#" xmlns:svg="http://www.w3.org/2000/svg" xmlns="http://www.w3.org/2000/svg" xmlns:sodipodi="http://sodipodi.sourceforge.net/DTD/sodipodi-0.dtd" xmlns:inkscape="http://www.inkscape.org/namespaces/inkscape" version="1.1" x="0px" y="0px" viewBox="0 0 100 100"><g transform="translate(0,-952.36218)"><path style="text-indent:0;text-transform:none;direction:ltr;block-progression:tb;baseline-shift:baseline;color:#000000;enable-background:accumulate;" d="m 7.9858009,1020.2722 a 2.0002,2.0002 0 0 0 -1.87344,2.7 c 5.0987701,13.6453 18.7200811,23.39 34.5556211,23.39 l 18.43594,0 c 15.83553,0 29.45716,-9.7447 34.55594,-23.39 a 2.0002,2.0002 0 0 0 -1.87375,-2.7 l -83.8003111,0 z m 3.0365601,4 77.727501,0 c -5.20029,10.6249 -16.53774,18.09 -29.64594,18.09 l -18.43594,0 c -13.1082,0 -24.445331,-7.4651 -29.645621,-18.09 z" fill="#000000" fill-opacity="1" fill-rule="evenodd" stroke="none" marker="none" visibility="visible" display="inline" overflow="visible"></path><path style="text-indent:0;text-transform:none;direction:ltr;block-progression:tb;baseline-shift:baseline;color:#000000;enable-background:accumulate;" d="m 40.667982,958.36218 c -15.83642,0 -29.456671,9.75451 -34.5556211,23.38969 a 2.0002,2.0002 0 0 0 1.87344,2.70063 l 83.8003111,0 a 2.0002,2.0002 0 0 0 1.87343,-2.70063 c -5.09895,-13.63518 -18.71921,-23.38969 -34.55562,-23.38969 l -18.43594,0 z m 0,4 18.43594,0 c 13.10651,0 24.44422,7.47293 29.645,18.09032 l -77.725941,0 c 5.20078,-10.61739 16.538481,-18.09032 29.645001,-18.09032 z" fill="#000000" fill-opacity="1" fill-rule="evenodd" stroke="none" marker="none" visibility="visible" display="inline" overflow="visible"></path><path style="text-indent:0;text-transform:none;direction:ltr;block-progression:tb;baseline-shift:baseline;color:#000000;enable-background:accumulate;" d="m 8.1851709,988.95375 a 2.0002,2.0002 0 1 0 0,4.00003 l 83.8006311,0 a 2.0002,2.0002 0 1 0 0,-4.00003 l -83.8006311,0 z" fill="#000000" fill-opacity="1" fill-rule="evenodd" stroke="none" marker="none" visibility="visible" display="inline" overflow="visible"></path><path style="text-indent:0;text-transform:none;direction:ltr;block-progression:tb;baseline-shift:baseline;color:#000000;enable-background:accumulate;" d="m 8.1851709,1012.5472 a 2.0002,2.0002 0 1 0 0,4 l 83.8006311,0 a 2.0002,2.0002 0 1 0 0,-4 l -83.8006311,0 z" fill="#000000" fill-opacity="1" fill-rule="evenodd" stroke="none" marker="none" visibility="visible" display="inline" overflow="visible"></path><path style="text-indent:0;text-transform:none;direction:ltr;block-progression:tb;baseline-shift:baseline;color:#000000;enable-background:accumulate;" d="m 19.253301,996.04398 a 2.0023372,1.9980652 0 0 0 -1.32996,0.5186 l -10.9140201,9.88532 a 2.0023372,1.9980652 0 1 0 2.69109,2.9584 l 9.3421301,-8.4613 6.917911,8.5643 a 2.0023372,1.9980652 0 0 0 2.97604,0.1577 l 8.67185,-8.6701 7.50682,8.4542 a 2.0023372,1.9980652 0 0 0 2.81361,0.1817 l 10.10439,-8.7821 8.71457,8.8086 a 2.0023372,1.9980652 0 0 0 2.70574,0.1319 l 10.71761,-8.9019 10.46727,9.0086 a 2.0023372,1.9980652 0 1 0 2.61502,-3.0257 l -11.75202,-10.11422 a 2.0023372,1.9980652 0 0 0 -2.58852,-0.023 l -10.60788,8.81072 -8.74387,-8.83812 a 2.0023372,1.9980652 0 0 0 -2.73972,-0.103 l -10.02551,8.71372 -7.60221,-8.56192 a 2.0023372,1.9980652 0 0 0 -2.91587,-0.087 l -8.59985,8.59832 -6.850251,-8.48042 a 2.0023372,1.9980652 0 0 0 -1.57437,-0.7441 z" fill="#000000" fill-opacity="1" fill-rule="evenodd" stroke="none" marker="none" visibility="visible" display="inline" overflow="visible"></path></g></svg>