<svg height='100px' width='100px'  fill="#000000" xmlns="http://www.w3.org/2000/svg" xmlns:xlink="http://www.w3.org/1999/xlink" version="1.1" x="0px" y="0px" viewBox="0 0 468 468" style="enable-background:new 0 0 468 468;" xml:space="preserve"><g><g><path d="M6.158,466h455.684v-30.484H6.158V466z"></path><g><path d="M292.985,410.33c35.207-17.642,58.217-52.056,64.379-90.163c-6.814,7.507-15.903,14.374-27.073,20.344     c-25.66,13.714-59.674,21.266-95.778,21.266s-70.118-7.553-95.778-21.266c-11.169-5.969-20.258-12.836-27.072-20.343     c6.164,38.103,29.67,71.565,64.394,90.162C176.242,410.429,227.999,442.894,292.985,410.33z"></path><g><path d="M238.936,273.457c-37.969-2.535-67.051,5.825-86.432,24.839c-9.899,9.711-14.632,19.912-16.632,25.375      c2.766,1.822,5.731,3.585,8.904,5.277c23.861,12.719,55.73,19.724,89.736,19.724s65.875-7.005,89.736-19.724      c22.554-12.023,34.975-27.539,34.975-43.692c0-11.743-6.571-23.148-18.822-33.12      C312.183,275.125,272.327,275.682,238.936,273.457z"></path><path d="M142.716,289.547c15.232-15.243,44.437-32.675,97.091-29.168c50.558,3.373,77.74-8.959,89.073-16.208      c-28.049-16.614-62.185-22.33-94.367-22.33c-34.006,0-65.875,7.005-89.736,19.724c-22.554,12.023-34.975,27.539-34.975,43.691      c0,10.561,5.312,20.849,15.292,30.067C128.054,308.466,133.41,298.86,142.716,289.547z"></path></g></g></g><g><ellipse cx="65.684" cy="356.208" rx="14.368" ry="14.375"></ellipse><ellipse cx="65.684" cy="284.335" rx="14.368" ry="14.375"></ellipse><ellipse cx="14.368" cy="315.137" rx="14.368" ry="14.375"></ellipse></g><g><path d="M279.55,115.992c0,0,16,17.205,16,26.007c0,8.802-7.2,16.004-16,16.004s-16-7.102-16-16.004    C263.55,133.197,279.55,115.992,279.55,115.992z"></path><g><path d="M269.141,80.953v7.77c0,6.304,5.127,11.433,11.429,11.433S292,95.028,292,88.724V77.291     c0-19.543-15.83-35.443-35.288-35.443c-4.201,0-8.356,0.708-12.312,2.078l26.358,26.088c1.62,1.603,2.338,3.908,1.915,6.148     C272.285,78.223,270.978,79.982,269.141,80.953z"></path><path d="M138.858,43.141c-6.026,0-9.084-7.538-4.813-11.747l23.087-22.753c9.015-8.854,23.126-8.854,32.133-0.008l12.801,12.577     c2.702,2.655,2.741,6.998,0.088,9.701c-2.654,2.704-6.995,2.743-9.698,0.088l-12.8-12.577c-3.619-3.554-9.29-3.553-12.906,0.001     L143.67,41.168C142.334,42.484,140.595,43.141,138.858,43.141z"></path><g><polygon points="241.76,78.21 254.136,72.708 199.592,18.895 159.586,58.318     "></polygon><path d="M148.695,69.797c-0.876,1.648-1.34,3.492-1.332,5.41c0.012,3.058,1.219,5.905,3.4,8.018l33.99,33.543      c4.395,4.327,11.635,4.309,16.129-0.045l27.951-27.527L148.695,69.797z"></path></g></g></g><path d="M99.999,162.961c14.652-5.252,26.359-17.803,29.353-34.396l0,0h0c-16.046-5.735-32.905-1.995-44.836,7.914   c0.001-0.001,0.002-0.001,0.002-0.002c2.721-15.16-2.43-31.45-15.48-42.308l0,0l0,0c-13.051,10.858-18.201,27.148-15.48,42.308   c-11.931-9.907-28.789-13.647-44.834-7.912l0,0c2.994,16.593,14.702,29.144,29.353,34.396c0.001,0,0.002-0.001,0.003-0.001   c-14.653,5.251-26.362,17.803-29.357,34.397v0c16.045,5.735,32.903,1.996,44.834-7.912c-2.721,15.16,2.43,31.45,15.48,42.308v0l0,0   c12.909-10.74,18.075-26.794,15.553-41.813c11.893,9.543,28.468,13.057,44.248,7.417h0v0   C127.5,170.5,95.032,161.181,99.999,162.961z"></path><g><path d="M438.956,361.174L438.956,361.174L438.956,361.174c-14,15.74-38.755,15.74-52.755,0l0,0l0,0    C400.201,345.433,424.956,345.433,438.956,361.174z"></path><path d="M438.956,271.841L438.956,271.841L438.956,271.841c-14,15.74-38.755,15.74-52.755,0l0,0l0,0    C400.201,256.101,424.956,256.101,438.956,271.841z"></path><path d="M468,317.132L468,317.132L468,317.132c-14,15.74-38.755,15.74-52.755,0l0,0l0,0C429.245,301.392,454,301.392,468,317.132z    "></path></g><g><g><ellipse cx="455.125" cy="134.178" rx="10.875" ry="16.3"></ellipse><ellipse cx="352.875" cy="134.178" rx="10.875" ry="16.3"></ellipse><path d="M443.826,117.879h-79.607c5.846,0,10.531,7.458,10.531,16.287c0,8.939-4.802,16.202-10.75,16.303v0.422h80v-0.422     c-6-0.107-10.744-7.367-10.744-16.303C433.256,125.318,437.909,117.879,443.826,117.879z"></path></g><g><ellipse cx="455.125" cy="203.197" rx="10.875" ry="16.3"></ellipse><ellipse cx="352.875" cy="203.197" rx="10.875" ry="16.3"></ellipse><path d="M443.826,186.903h-79.607c5.846,0,10.531,7.456,10.531,16.284c0,8.939-4.802,16.199-10.75,16.301v0.427h80v-0.427     c-6-0.107-10.744-7.364-10.744-16.3C433.256,194.339,437.909,186.903,443.826,186.903z"></path></g></g></g></svg>