<svg height='100px' width='100px'  fill="#000000" xmlns="http://www.w3.org/2000/svg" xmlns:xlink="http://www.w3.org/1999/xlink" version="1.1" x="0px" y="0px" viewBox="0 0 100 100" style="enable-background:new 0 0 100 100;" xml:space="preserve"><path d="M89.394,19.226h-8.497v-8.247c0-0.553-0.447-1-1-1H11.021c-0.553,0-1,0.447-1,1v68.876c0,0.553,0.447,1,1,1h8.497v8.246  c0,0.553,0.447,1,1,1h68.875c0.553,0,1-0.447,1-1V20.226C90.394,19.674,89.946,19.226,89.394,19.226z M12.021,11.979h66.875v66.876  H12.021V11.979z M88.394,88.101H21.519v-7.246h58.378c0.553,0,1-0.447,1-1V21.226h7.497V88.101z"></path><path d="M72.184,34.382c0.032-0.195,0.044-0.396,0.02-0.6c-0.386-3.233-2.214-6.506-5.435-9.727  c-3.176-3.177-6.436-4.994-9.69-5.401c-0.221-0.027-0.44-0.016-0.651,0.023c-0.115-0.161-0.249-0.311-0.41-0.437  c-2.556-2.016-6.163-3.037-10.721-3.037c-4.489,0-8.079,1.021-10.669,3.033c-0.177,0.137-0.325,0.3-0.448,0.478  c-0.195-0.032-0.396-0.044-0.599-0.02c-3.231,0.383-6.504,2.211-9.727,5.434c-3.176,3.176-4.992,6.436-5.4,9.689  c-0.028,0.222-0.017,0.441,0.022,0.652c-0.16,0.115-0.31,0.249-0.437,0.41c-2.015,2.558-3.036,6.164-3.036,10.721  c0,4.491,1.021,8.081,3.033,10.672c0.136,0.175,0.302,0.314,0.478,0.437c-0.033,0.198-0.045,0.401-0.021,0.607  c0.386,3.234,2.214,6.507,5.435,9.728c3.176,3.176,6.436,4.993,9.688,5.4c0.09,0.012,0.18,0.017,0.269,0.017  c0.128,0,0.249-0.034,0.372-0.056c0.118,0.167,0.256,0.323,0.423,0.454c2.558,2.015,6.165,3.036,10.721,3.036  c4.49,0,8.08-1.021,10.671-3.033c0.182-0.141,0.334-0.31,0.458-0.494c0.111,0.018,0.218,0.05,0.332,0.05  c0.084,0,0.169-0.005,0.255-0.015c3.231-0.383,6.504-2.211,9.727-5.434c3.176-3.176,4.993-6.437,5.4-9.689  c0.028-0.223,0.017-0.444-0.022-0.657c0.16-0.115,0.311-0.246,0.438-0.407c2.014-2.559,3.035-6.166,3.035-10.72  c0-4.492-1.021-8.082-3.033-10.671C72.524,34.651,72.361,34.504,72.184,34.382z M66.556,49.834c-1.457,0-2.643-1.186-2.643-2.643  s1.186-2.643,2.643-2.643s2.643,1.186,2.643,2.643S68.013,49.834,66.556,49.834z M66.556,42.549c-2.56,0-4.643,2.083-4.643,4.643  s2.083,4.643,4.643,4.643c0.642,0,1.253-0.131,1.81-0.368c-0.289,0.762-0.65,1.443-1.07,2.056l-19.331-7.975l5.63-2.339  c-0.024,0.165-0.051,0.329-0.051,0.501c0,1.958,1.594,3.552,3.552,3.552s3.551-1.594,3.551-3.552c0-1.162-0.569-2.186-1.434-2.834  l8.101-3.365c0.617,0.884,1.592,2.654,1.9,5.885C68.459,42.866,67.545,42.549,66.556,42.549z M57.314,63.575  c-0.499-0.5-0.774-1.163-0.774-1.869s0.275-1.369,0.774-1.868c1.03-1.029,2.705-1.03,3.737,0c1.03,1.03,1.03,2.707,0,3.737  C60.022,64.605,58.344,64.603,57.314,63.575z M63.746,60.902c-0.159-0.908-0.581-1.778-1.28-2.478c-1.811-1.81-4.755-1.812-6.565,0  c-0.877,0.876-1.36,2.042-1.36,3.282s0.483,2.406,1.36,3.283c0.454,0.454,0.98,0.793,1.54,1.019  c-0.743,0.334-1.48,0.561-2.211,0.697l-8.031-19.309l5.641,2.33c-0.136,0.099-0.273,0.197-0.394,0.318  c-0.671,0.67-1.041,1.562-1.041,2.511s0.37,1.84,1.041,2.511c0.692,0.692,1.602,1.038,2.511,1.038s1.818-0.346,2.511-1.038  c0.822-0.822,1.144-1.948,0.99-3.019l8.108,3.349C66.376,56.456,65.815,58.398,63.746,60.902z M43.706,69.399  c-1.457,0-2.643-1.186-2.643-2.643s1.186-2.643,2.643-2.643s2.643,1.186,2.643,2.643S45.163,69.399,43.706,69.399z M43.706,62.114  c-2.56,0-4.643,2.083-4.643,4.643c0,0.641,0.131,1.253,0.367,1.809c-0.761-0.289-1.442-0.649-2.055-1.069l7.975-19.331l2.338,5.63  c-0.165-0.024-0.33-0.051-0.502-0.051c-1.958,0-3.551,1.593-3.551,3.551s1.593,3.551,3.551,3.551c1.162,0,2.186-0.569,2.834-1.434  l3.365,8.102c-0.883,0.616-2.652,1.592-5.885,1.9c0.53-0.754,0.847-1.668,0.847-2.657C48.349,64.197,46.266,62.114,43.706,62.114z   M27.323,57.516c0.499-0.499,1.162-0.774,1.868-0.774s1.37,0.275,1.869,0.774c1.03,1.03,1.03,2.706,0,3.736  c-0.998,0.998-2.739,0.998-3.737,0c-0.499-0.499-0.774-1.162-0.774-1.868S26.824,58.015,27.323,57.516z M32.475,62.666  c1.81-1.81,1.81-4.755,0-6.564c-0.877-0.877-2.043-1.36-3.283-1.36s-2.405,0.483-3.282,1.36c-0.448,0.448-0.789,0.971-1.02,1.541  c-0.335-0.743-0.561-1.48-0.697-2.211l19.31-8.03l-2.328,5.635c-0.1-0.134-0.198-0.27-0.319-0.391c-1.385-1.385-3.637-1.385-5.021,0  c-0.671,0.671-1.041,1.562-1.041,2.511s0.37,1.841,1.041,2.512c0.692,0.692,1.602,1.038,2.511,1.038c0.17,0,0.339-0.024,0.508-0.049  l-3.35,8.107c-1.06-0.189-3.001-0.749-5.505-2.817C30.93,63.785,31.791,63.349,32.475,62.666z M24.142,41.265  c1.457,0,2.643,1.186,2.643,2.643s-1.186,2.643-2.643,2.643s-2.643-1.186-2.643-2.643S22.685,41.265,24.142,41.265z M24.142,48.55  c2.56,0,4.643-2.083,4.643-4.643s-2.083-4.643-4.643-4.643c-0.642,0-1.253,0.131-1.81,0.368c0.289-0.762,0.65-1.443,1.07-2.055  l19.331,7.976l-5.63,2.338c0.024-0.165,0.051-0.33,0.051-0.502c0-1.958-1.594-3.552-3.552-3.552s-3.551,1.594-3.551,3.552  c0,1.162,0.569,2.187,1.435,2.834l-8.101,3.365c-0.616-0.884-1.592-2.654-1.9-5.886C22.239,48.233,23.152,48.55,24.142,48.55z   M31.515,26.751c0.677,0,1.354,0.258,1.868,0.772c0.499,0.5,0.774,1.163,0.774,1.869s-0.275,1.369-0.774,1.868  c-1.031,1.029-2.708,1.029-3.737,0c-0.499-0.499-0.774-1.162-0.774-1.868s0.275-1.37,0.774-1.869  C30.16,27.009,30.837,26.751,31.515,26.751z M26.95,30.198c0.163,0.933,0.598,1.794,1.282,2.477  c0.905,0.905,2.094,1.357,3.283,1.357c1.188,0,2.377-0.452,3.282-1.357c0.877-0.876,1.36-2.042,1.36-3.282s-0.483-2.406-1.36-3.283  c-0.454-0.454-0.98-0.793-1.54-1.019c0.743-0.334,1.48-0.561,2.211-0.697l8.031,19.31l-5.637-2.329  c0.134-0.1,0.269-0.198,0.391-0.319c1.385-1.386,1.384-3.639,0-5.022c-1.385-1.385-3.637-1.385-5.021,0  c-0.822,0.822-1.144,1.948-0.99,3.02l-8.108-3.35C24.321,34.642,24.882,32.702,26.95,30.198z M46.991,21.7  c1.457,0,2.642,1.186,2.642,2.643s-1.185,2.642-2.642,2.642s-2.643-1.185-2.643-2.642S45.534,21.7,46.991,21.7z M46.991,28.984  c2.56,0,4.642-2.082,4.642-4.642c0-0.642-0.132-1.254-0.368-1.811c0.762,0.289,1.443,0.65,2.056,1.071l-7.975,19.332l-2.339-5.631  c0.166,0.024,0.33,0.051,0.502,0.051c1.958,0,3.551-1.593,3.551-3.551s-1.593-3.551-3.551-3.551c-1.162,0-2.187,0.569-2.835,1.435  l-3.365-8.101c0.882-0.617,2.651-1.594,5.887-1.902c-0.53,0.754-0.848,1.669-0.848,2.659C42.349,26.902,44.432,28.984,46.991,28.984  z M63.374,33.584c-1.029,1.029-2.706,1.029-3.737,0c-1.03-1.03-1.03-2.707,0-3.737c0.516-0.515,1.191-0.772,1.868-0.772  s1.354,0.258,1.869,0.772c0.499,0.499,0.774,1.162,0.774,1.868C64.148,32.421,63.873,33.084,63.374,33.584z M58.223,28.432  c-1.81,1.81-1.81,4.755,0,6.565c0.905,0.904,2.094,1.356,3.283,1.356c1.188,0,2.377-0.452,3.282-1.356  c0.448-0.448,0.789-0.972,1.02-1.541c0.335,0.743,0.561,1.481,0.697,2.212L47.195,43.7l2.329-5.637  c0.1,0.134,0.198,0.269,0.319,0.391c0.692,0.692,1.602,1.038,2.511,1.038s1.818-0.346,2.511-1.038c1.385-1.385,1.385-3.637,0-5.021  c-0.797-0.798-1.947-1.11-3.031-0.959l3.363-8.139c1.06,0.189,3.001,0.75,5.505,2.818C59.793,27.311,58.923,27.733,58.223,28.432z   M51.257,34.846c0.293-0.293,0.683-0.455,1.097-0.455s0.804,0.162,1.097,0.455s0.454,0.683,0.454,1.097s-0.161,0.804-0.454,1.097  c-0.586,0.586-1.607,0.586-2.193,0c-0.293-0.293-0.454-0.683-0.454-1.097S50.964,35.139,51.257,34.846z M41.958,33.803  c0-0.855,0.695-1.551,1.551-1.551s1.551,0.695,1.551,1.551s-0.695,1.551-1.551,1.551S41.958,34.658,41.958,33.803z M34.645,37.447  c0.293-0.293,0.683-0.454,1.097-0.454s0.804,0.161,1.097,0.454c0.604,0.604,0.604,1.589,0,2.194c-0.586,0.586-1.607,0.586-2.193,0  C34.04,39.036,34.04,38.052,34.645,37.447z M32.051,47.39c0-0.855,0.695-1.552,1.551-1.552s1.552,0.696,1.552,1.552  s-0.696,1.551-1.552,1.551S32.051,48.245,32.051,47.39z M39.44,56.254c-0.586,0.586-1.607,0.586-2.193,0  c-0.293-0.293-0.455-0.684-0.455-1.098s0.162-0.804,0.455-1.097s0.683-0.454,1.097-0.454s0.804,0.161,1.097,0.454  C40.045,54.664,40.045,55.648,39.44,56.254z M48.739,57.296c0,0.855-0.695,1.551-1.551,1.551s-1.551-0.695-1.551-1.551  s0.695-1.551,1.551-1.551S48.739,56.44,48.739,57.296z M56.053,53.651c-0.605,0.605-1.588,0.605-2.193,0  c-0.293-0.293-0.455-0.683-0.455-1.097s0.162-0.804,0.455-1.097s0.683-0.455,1.097-0.455s0.804,0.162,1.097,0.455  C56.657,52.062,56.657,53.047,56.053,53.651z M58.646,43.709c0,0.855-0.695,1.552-1.551,1.552s-1.552-0.696-1.552-1.552  s0.696-1.551,1.552-1.551S58.646,42.853,58.646,43.709z M65.355,25.47c2.854,2.855,4.536,5.812,4.862,8.548  c0.007,0.056-0.026,0.105-0.08,0.141c-0.003,0.001-0.005,0.001-0.008,0.002l-1.733,0.721c-0.59-2.583-2.177-5.178-4.732-7.732  c-2.555-2.556-5.083-4.098-7.695-4.691l0.689-1.667c0.009-0.021,0.013-0.043,0.022-0.064c0.028-0.051,0.073-0.089,0.131-0.089  c0.007,0,0.014,0,0.021,0.001C59.634,20.99,62.502,22.615,65.355,25.47z M35.854,19.816c2.231-1.734,5.409-2.613,9.443-2.613  c4.04,0,7.318,0.901,9.484,2.608c0.042,0.033,0.053,0.089,0.043,0.149c-0.002,0.004-0.004,0.008-0.006,0.012l-0.716,1.736  c-2.244-1.409-5.201-2.123-8.813-2.123c-3.615,0-6.494,0.697-8.759,2.125l-0.691-1.663c-0.01-0.025-0.025-0.047-0.035-0.071  C35.79,19.917,35.804,19.854,35.854,19.816z M25.269,25.542c2.856-2.856,5.812-4.537,8.549-4.861  c0.007-0.001,0.013-0.001,0.019-0.001c0.047,0,0.087,0.03,0.119,0.075c0.002,0.004,0.002,0.009,0.004,0.013c0,0,0,0.001,0.001,0.001  l0.721,1.733c-2.582,0.59-5.178,2.176-7.733,4.731c-2.556,2.556-4.098,5.084-4.691,7.696l-1.664-0.688  c-0.025-0.011-0.051-0.016-0.076-0.026c-0.052-0.032-0.086-0.085-0.078-0.148C20.79,31.264,22.415,28.395,25.269,25.542z   M17.003,45.6c0-4.039,0.901-7.318,2.607-9.483c0.027-0.035,0.068-0.055,0.116-0.055c0.007,0,0.015,0.004,0.022,0.005  c0.009,0.004,0.016,0.009,0.025,0.013h-0.001l1.735,0.716c-1.409,2.243-2.122,5.201-2.122,8.812c0,3.614,0.698,6.491,2.125,8.759  l-1.665,0.691c-0.025,0.01-0.047,0.024-0.071,0.035c-0.06,0.014-0.121,0.001-0.16-0.049C17.882,52.814,17.003,49.637,17.003,45.6z   M25.342,65.63c-2.854-2.854-4.536-5.812-4.862-8.549c-0.007-0.057,0.026-0.105,0.08-0.141c0.002-0.001,0.005-0.001,0.007-0.002  v0.001l1.733-0.721c0.589,2.582,2.177,5.177,4.731,7.732c2.556,2.555,5.084,4.097,7.696,4.69l-0.689,1.667  c-0.011,0.025-0.016,0.05-0.025,0.075c-0.032,0.052-0.084,0.084-0.148,0.077C31.063,70.108,28.195,68.483,25.342,65.63z   M54.844,71.283c-2.23,1.733-5.408,2.612-9.443,2.612c-4.038,0-7.317-0.901-9.482-2.606c-0.044-0.035-0.055-0.092-0.044-0.154  c0.001-0.003,0.004-0.005,0.005-0.009l0.716-1.736c2.244,1.409,5.202,2.123,8.812,2.123c3.614,0,6.492-0.697,8.758-2.124  l0.691,1.663c0.009,0.022,0.026,0.039,0.035,0.061C54.911,71.176,54.895,71.244,54.844,71.283z M65.429,65.557  c-2.856,2.856-5.812,4.537-8.549,4.861c-0.061,0.007-0.104-0.024-0.137-0.072c-0.002-0.005-0.003-0.01-0.005-0.015  c0,0,0-0.001-0.001-0.001l-0.721-1.733c2.582-0.59,5.178-2.176,7.733-4.731c2.556-2.556,4.098-5.084,4.691-7.695l1.664,0.688  c0.023,0.01,0.048,0.013,0.072,0.023c0.055,0.031,0.09,0.087,0.082,0.151C69.908,59.834,68.282,62.702,65.429,65.557z   M71.088,54.979c-0.034,0.045-0.09,0.056-0.153,0.045c-0.003-0.001-0.006-0.003-0.009-0.005c-0.001,0-0.001,0-0.001-0.001  l-1.735-0.716c1.409-2.243,2.122-5.201,2.122-8.812c0-3.614-0.698-6.491-2.125-8.759l1.665-0.692c0.025-0.01,0.046-0.024,0.07-0.035  c0.062-0.014,0.122,0,0.161,0.05c1.732,2.229,2.611,5.405,2.611,9.442S72.793,52.814,71.088,54.979z"></path></svg>