<svg height='100px' width='100px'  fill="#000000" xmlns="http://www.w3.org/2000/svg" xmlns:xlink="http://www.w3.org/1999/xlink" version="1.1" x="0px" y="0px" viewBox="0 0 90 90" enable-background="new 0 0 90 90" xml:space="preserve"><path fill="#000000" d="M86.2,58.9c0-0.2,0-0.4,0-0.5l0-0.9c0-0.2,0-0.2,0-0.2l0,0.1l0-0.1l0,0l0-28.4L86,28.5l0,0  c-0.1-0.2-0.3-0.4-0.5-0.5L55.6,15.1c-0.2-0.1-0.4-0.1-0.6-0.1l0,0l0,0c-0.1,0-0.1,0-0.2,0l-7.8,2.3l-0.1,0v0  c-0.5,0.2-0.7,0.4-0.7,1.1c0,0.7,0,1.4,0,1.4l-0.1,3.1c0,0.2-0.1,0.5-0.1,0.8c-0.4,3.2-1.8,10.4-7.3,15L12.9,27.8  c-0.2-0.1-0.5-0.1-0.7,0l0,0l-8.3,2.8c-0.1,0-0.2,0-0.2,0.1c-0.3,0.1-0.5,0.3-0.6,0.6l0.1,29.9c0,0.6,0.1,1.1,0.6,1.3l2.1,0.9  l22.8,9.8l5.1,2.2c0.1,0,0.3,0.1,0.4,0.1c0.1,0,0.2,0,0.2,0l0,0L85.9,60c0.3-0.1,0.4-0.2,0.3-0.5l0-0.4C86.2,59.1,86.2,59,86.2,58.9  z M55,17.2l1.4,0.6l26.4,11.4l-5.7,1.7L49.4,18.9L55,17.2z M45.1,34.8c2.5-4.6,2.9-8.4,3.2-10.8c0-0.2,0-0.4,0.1-0.6l0,0l0-0.1  c0,0,0-0.1,0-0.1l0,0l0.2-2.3l26.9,11.6c0,0.3,0,0.6,0,0.8v0c0,0.4,0,0.7,0,0.7l0,0l0.1,3c0,0.2,0,0.5,0,0.8  c0.1,4.5-0.1,18.3-13.8,21.5l0,0c-6.1,1.6-10.8,1.1-13.8-1.3c-3-2.4-4.6-6.1-4.4-12c0-0.2,0-1.3,0-1.4l-0.1-3.1l-0.2-0.4l0,0  c-0.1-0.2-0.3-0.4-0.5-0.5l-1.9-0.8C42,38.8,44,36.8,45.1,34.8z M28.7,71L7.5,61.8l-2.2-0.9l0.1-27.6l27.5,11.9l0.5,27.8L28.7,71z   M34.4,43.5L7,31.8l5.4-1.8l1.4,0.6l26.6,11.4l-5.8,1.7C34.5,43.6,34.5,43.6,34.4,43.5z M82.1,58.9l-46.5,14l-0.5-27.2l6.2-1.8  l0,1.1c0,0.6,0,1.2,0,1.4l0,0.1c-0.2,6.7,1.5,10.6,5.1,13.5c2.3,1.8,5.2,2.7,8.8,2.7c2.1,0,4.5-0.3,7-1l0,0c0,0,0,0,0.1,0  c0,0,0,0,0,0l0,0c6.6-1.6,11.6-5.7,13.9-11.9c1.8-4.9,1.6-9.9,1.5-12.3c0-0.2,0-0.4,0-0.6h0l0-0.1c0,0,0-0.1,0-0.1l0,0l-0.2-3.9  L84,31l-0.1,24.2l0.1,3L82.1,58.9L82.1,58.9z"></path></svg>