<svg height='100px' width='100px'  fill="#000000" xmlns="http://www.w3.org/2000/svg" xmlns:xlink="http://www.w3.org/1999/xlink" version="1.1" x="0px" y="0px" viewBox="0 0 64 64" style="enable-background:new 0 0 64 64;" xml:space="preserve"><path d="M63,12.3c0-0.1,0-0.2,0-0.3c0,0,0-0.1,0-0.1c0-0.1,0-0.1,0-0.2c0,0,0-0.1,0-0.1c0,0,0-0.1,0-0.1c0,0,0,0-0.1-0.1  c0,0,0-0.1-0.1-0.1c0-0.1-0.1-0.1-0.2-0.1c0,0,0,0,0,0l-15-10c0,0,0,0,0,0c-0.1-0.1-0.2-0.1-0.3-0.1c0,0-0.1,0-0.1,0  c0,0-0.1,0-0.1,0H32H17c0,0-0.1,0-0.1,0c0,0-0.1,0-0.1,0c-0.1,0-0.2,0.1-0.3,0.1c0,0,0,0,0,0l-15,10c0,0,0,0,0,0  c-0.1,0-0.1,0.1-0.2,0.1c0,0,0,0.1-0.1,0.1c0,0,0,0-0.1,0.1c0,0,0,0.1,0,0.1c0,0,0,0.1,0,0.1c0,0.1,0,0.1,0,0.2c0,0,0,0.1,0,0.1  c0,0.1,0,0.2,0,0.3c0,0,0,0,0,0c0,0,0,0,0,0c0,0.1,0,0.1,0.1,0.2l30,50c0.1,0.1,0.1,0.2,0.2,0.2c0,0,0,0,0.1,0  c0.1,0,0.1,0.1,0.2,0.1c0,0,0.1,0,0.1,0c0.1,0,0.2,0.1,0.3,0.1s0.2,0,0.3-0.1c0,0,0.1,0,0.1,0c0.1,0,0.1-0.1,0.2-0.1c0,0,0,0,0.1,0  c0.1-0.1,0.1-0.1,0.2-0.2l30-50C62.9,12.5,62.9,12.4,63,12.3C62.9,12.3,63,12.3,63,12.3C63,12.3,63,12.3,63,12.3z M25.7,13h12.7  L32,55.3L25.7,13z M32,3.7l5.5,7.3h-11L32,3.7z M47.2,3.4L58.7,11H41.5L47.2,3.4z M45,3l-5.5,7.3L34,3H45z M30,3l-5.5,7.3L19,3H30z   M16.8,3.4l5.7,7.6H5.3L16.8,3.4z M23.6,13l6.6,44.2L3.8,13H23.6z M33.7,57.2L40.4,13h19.9L33.7,57.2z"></path></svg>