<svg height='100px' width='100px'  fill="#000000" xmlns="http://www.w3.org/2000/svg" data-name="ICON Black" viewBox="0 0 32 32" x="0px" y="0px"><title>elevator</title><path d="M22.813,28.5h-.375V4a1.5,1.5,0,0,0-1.5-1.5h-16A1.5,1.5,0,0,0,3.438,4V28.5H3.063a.5.5,0,0,0,0,1h19.75a.5.5,0,1,0,0-1Zm-15.375,0V8.875h5V25.542a.5.5,0,0,0,1,0V8.875h5V28.5Zm12,0V8.375a.5.5,0,0,0-.5-.5h-12a.5.5,0,0,0-.5.5V28.5h-2V4a.5.5,0,0,1,.5-.5h16a.5.5,0,0,1,.5.5V28.5Zm6-12.792h3.5a.5.5,0,0,0,.427-.76l-1.75-2.875a.52.52,0,0,0-.855,0l-1.75,2.875a.5.5,0,0,0,.428.76Zm1.75-2.413.86,1.413H26.327Zm1.75,4.038h-3.5a.5.5,0,0,0-.428.76l1.75,2.875a.5.5,0,0,0,.855,0l1.75-2.875a.5.5,0,0,0-.427-.76Zm-1.75,2.413-.861-1.413h1.721ZM15.771,5.708a.5.5,0,0,1-.5.5H10.6a.5.5,0,0,1,0-1h4.667A.5.5,0,0,1,15.771,5.708Z"></path></svg>