<svg height='100px' width='100px'  fill="#000000" xmlns:dc="http://purl.org/dc/elements/1.1/" xmlns:cc="http://creativecommons.org/ns#" xmlns:rdf="http://www.w3.org/1999/02/22-rdf-syntax-ns#" xmlns:svg="http://www.w3.org/2000/svg" xmlns="http://www.w3.org/2000/svg" xmlns:sodipodi="http://sodipodi.sourceforge.net/DTD/sodipodi-0.dtd" xmlns:inkscape="http://www.inkscape.org/namespaces/inkscape" viewBox="0 0 16.933333 16.933334" version="1.1" x="0px" y="0px"><g transform="translate(0,-280.06665)"><path style="color:#000000;font-style:normal;font-variant:normal;font-weight:normal;font-stretch:normal;font-size:medium;line-height:normal;font-family:sans-serif;font-variant-ligatures:normal;font-variant-position:normal;font-variant-caps:normal;font-variant-numeric:normal;font-variant-alternates:normal;font-feature-settings:normal;text-indent:0;text-align:start;text-decoration:none;text-decoration-line:none;text-decoration-style:solid;text-decoration-color:#000000;letter-spacing:normal;word-spacing:normal;text-transform:none;writing-mode:lr-tb;direction:ltr;text-orientation:mixed;dominant-baseline:auto;baseline-shift:baseline;text-anchor:start;white-space:normal;shape-padding:0;clip-rule:nonzero;display:inline;overflow:visible;visibility:visible;opacity:1;isolation:auto;mix-blend-mode:normal;color-interpolation:sRGB;color-interpolation-filters:linearRGB;solid-color:#000000;solid-opacity:1;vector-effect:none;fill:#000000;fill-opacity:1;fill-rule:nonzero;stroke:none;stroke-width:0.5291667;stroke-linecap:round;stroke-linejoin:round;stroke-miterlimit:4;stroke-dasharray:none;stroke-dashoffset:0;stroke-opacity:1;color-rendering:auto;image-rendering:auto;shape-rendering:auto;text-rendering:auto;enable-background:accumulate" d="m 14.922605,284.61831 -1.058333,0.79272 c -0.06623,0.0499 -0.105254,0.12792 -0.105421,0.21083 v 2.11719 c -7.94e-4,0.14632 0.117229,0.26555 0.263552,0.26613 h 1.323948 v 7.1422 c 0,0.44432 -0.350464,0.7953 -0.794782,0.7953 h -1.322403 c -0.444307,0 -0.792716,-0.35098 -0.792716,-0.7953 v -4.2323 c -1.3e-5,-0.72832 -0.596148,-1.32447 -1.324467,-1.32447 h -0.529166 v -8.20105 c 0,-0.43516 -0.357556,-0.79271 -0.7927185,-0.79271 H 2.3817651 c -0.435155,0 -0.7953006,0.35755 -0.7953006,0.79271 0,0.35287 0.5296853,0.35287 0.5296853,0 0,-0.15115 0.1144721,-0.26561 0.2656153,-0.26561 h 7.4083334 c 0.1511591,0 0.2635515,0.11446 0.2635515,0.26561 v 12.69949 c 0,0.35286 0.529167,0.35286 0.529167,0 v -3.96875 h 0.529166 c 0.44432,0 0.795293,0.35046 0.795301,0.79478 v 4.2323 c 0,0.72832 0.593569,1.32447 1.321882,1.32447 h 1.322401 c 0.728321,0 1.324467,-0.59615 1.324467,-1.32447 v -11.11095 c -6.4e-5,-0.0704 -0.0286,-0.13797 -0.07855,-0.18758 l -1.321882,-1.32447 c -0.05024,-0.0516 -0.119676,-0.0806 -0.19172,-0.0801 -0.238016,8e-5 -0.354779,0.29005 -0.183451,0.45527 l 1.245918,1.24592 v 0.42013 h -0.278276 c -0.06114,0 -0.10687,0.0233 -0.145468,0.0527 z m -12.0116732,-2.9652 c -0.1471295,-5.3e-4 -0.2664646,0.11901 -0.2656153,0.26614 v 3.70261 c -7.937e-4,0.14713 0.1184858,0.2667 0.2656153,0.26614 h 6.3494841 c 0.3531209,0 0.3531209,-0.52969 0,-0.52969 H 3.1744832 V 282.1828 H 8.994798 v 2.3828 c -0.00802,0.3607 0.537173,0.3607 0.5291667,0 v -2.64635 c 7.938e-4,-0.14632 -0.1172263,-0.26555 -0.2635488,-0.26614 z m -1.853634,13.49427 v 1.05885 c -5.291e-4,0.14693 0.1186895,0.26618 0.2656179,0.26562 h 9.5255163 c 0.146121,-5.3e-4 0.26411,-0.1195 0.263551,-0.26562 v -1.05885 c -5.29e-4,-0.14531 -0.118237,-0.26297 -0.263551,-0.26355 H 2.1161498 v -12.43542 c 0.0028,-0.14923 -0.1184381,-0.27145 -0.2676843,-0.26975 -0.1469496,0.002 -0.2647421,0.12282 -0.262001,0.26975 v 12.43542 H 1.3092209 c -0.1496563,0 -0.252058,0.12753 -0.2519231,0.26355 z M 15.168583,285.0927 h 0.177766 v 2.3828 h -1.058334 v -1.72083 z m -9.2940083,2.80655 c 0,0 0.4568164,0.60394 0.9126061,1.33066 0.2278963,0.36337 0.4548241,0.75703 0.6211518,1.11311 0.1663276,0.35609 0.2645833,0.68343 0.2645833,0.85577 0,0.86761 -0.7061174,1.56786 -1.5875,1.56786 -0.8813853,0 -1.5875,-0.70025 -1.5875,-1.56786 0,-0.20955 0.1496615,-0.64181 0.3803385,-1.09089 0.230677,-0.44908 0.5313521,-0.93028 0.796335,-1.32705 0.2100368,-0.29586 -0.2466181,-0.60119 -0.4397666,-0.29404 -0.2717721,0.40694 -0.581541,0.90072 -0.8273415,1.37924 -0.2457979,0.47852 -0.4387321,0.92695 -0.4387321,1.33274 0,1.15663 0.9523042,2.09702 2.1166667,2.09702 1.1643598,0 2.1166667,-0.94039 2.1166667,-2.09702 0,-0.33373 -0.1332548,-0.69215 -0.3141927,-1.07953 -0.180938,-0.38737 -0.417031,-0.79558 -0.6521556,-1.17047 -0.4702519,-0.74977 -0.9394773,-1.36891 -0.9394773,-1.36891 -0.047802,-0.0652 -0.122801,-0.105 -0.2167863,-0.10774 -0.2253695,0.0138 -0.3356981,0.25947 -0.204896,0.42711 z m 0.8237247,3.03134 c -0.1471481,0.001 -0.2648665,0.12262 -0.262001,0.26975 0,0.20462 -0.1149218,0.33176 -0.3513985,0.33176 -0.3531235,0 -0.3531235,0.52968 0,0.52968 0.4887146,0 0.8805651,-0.39056 0.8805651,-0.86144 0.00291,-0.14915 -0.1179936,-0.27122 -0.2671656,-0.26975 z M 1.5864645,295.413 h 8.9963525 v 0.52968 H 1.5864645 Z"></path></g></svg>