<svg height='100px' width='100px'  fill="#000000" xmlns="http://www.w3.org/2000/svg" xmlns:xlink="http://www.w3.org/1999/xlink" version="1.1" x="0px" y="0px" viewBox="0 0 36 36" style="enable-background:new 0 0 36 36;" xml:space="preserve"><g><path d="M12.85,30.45l0.58,4.05h9.13l0.58-4.05C21.5,31.13,19.78,31.5,18,31.5S14.5,31.13,12.85,30.45z"></path><path d="M23.15,5.55L22.57,1.5h-9.13l-0.58,4.05C16.16,4.19,19.84,4.19,23.15,5.55z"></path><path d="M23,17.5h-4.5V10c0-0.28-0.22-0.5-0.5-0.5s-0.5,0.22-0.5,0.5v8c0,0.28,0.22,0.5,0.5,0.5h5c0.28,0,0.5-0.22,0.5-0.5   S23.28,17.5,23,17.5z"></path><path d="M23.54,6.81c-3.5-1.74-7.59-1.74-11.09,0C8.17,8.94,5.5,13.23,5.5,18c0,4.77,2.67,9.06,6.96,11.19   c3.5,1.74,7.59,1.74,11.09,0c4.29-2.13,6.96-6.42,6.96-11.19C30.5,13.23,27.83,8.94,23.54,6.81z M18,28.5   c-5.79,0-10.5-4.71-10.5-10.5c0-5.79,4.71-10.5,10.5-10.5S28.5,12.21,28.5,18C28.5,23.79,23.79,28.5,18,28.5z"></path></g></svg>