<svg height='100px' width='100px'  fill="#000000" xmlns="http://www.w3.org/2000/svg" xmlns:xlink="http://www.w3.org/1999/xlink" version="1.1" x="0px" y="0px" viewBox="0 0 100 100" enable-background="new 0 0 100 100" xml:space="preserve"><g><path d="M80.294,33.933c0-6.159-3.542-11.486-8.695-14.068c0.274,0.756,0.427,1.574,0.427,2.426c0,3.905-3.164,7.069-7.069,7.069   c-1.51,0-2.906-0.475-4.055-1.28h0.014c0,0-3.815-2.265,0-6.715c3.818-4.45,0.938-7.027,0.938-7.027s0.134,3.436-2.814,2.967   c-2.677-0.425-3.255-3.991-7.757-4.641c0.217-0.279,0.346-0.629,0.346-1.01c0-0.913-0.738-1.654-1.651-1.654   s-1.655,0.741-1.655,1.654c0,0.363,0.119,0.698,0.317,0.97c-4.803,0.521-5.345,4.245-8.083,4.681   c-2.948,0.469-2.813-2.967-2.813-2.967s-2.88,2.577,0.938,7.027c2.765,3.222,1.524,5.298,0.631,6.198   c-1.194,0.923-2.691,1.474-4.317,1.474c-3.904,0-7.069-3.165-7.069-7.07c0-0.853,0.15-1.669,0.429-2.426   c-5.155,2.582-8.697,7.91-8.697,14.068c0,5.903,3.254,11.045,8.064,13.734c-3.01,4.358-4.771,9.642-4.771,15.337   c0,14.928,12.101,27.027,27.028,27.027C64.899,89.707,77,77.605,77,62.68c0-5.596-1.699-10.791-4.609-15.104   C77.11,44.861,80.294,39.771,80.294,33.933z M74.564,62.68c0,13.562-11.032,24.592-24.592,24.592   c-13.562,0-24.594-11.03-24.594-24.592c0-13.561,11.032-24.593,24.594-24.593C63.532,38.087,74.564,49.119,74.564,62.68z"></path></g></svg>