<svg height='100px' width='100px'  fill="#000000" xmlns="http://www.w3.org/2000/svg" viewBox="0 0 64 64" x="0px" y="0px"><g><path d="M21,34a1.992,1.992,0,0,0,1.44-.618q-1.664-.213-3.216-.481A2,2,0,0,0,21,34Z"></path><path d="M4,26.362a65.827,65.827,0,0,0,13,4.064V24.482a68.432,68.432,0,0,1-13-3.93ZM13,26h2v2H13Z"></path><path d="M19,30.817a73.61,73.61,0,0,0,9,1.07v-6a76.221,76.221,0,0,1-9-1.032ZM22,28h2v2H22Z"></path><path d="M21,22a2,2,0,0,0-1.655.879c1.139.2,2.327.383,3.559.539A2,2,0,0,0,21,22Z"></path><path d="M36,31.887a70.93,70.93,0,0,0,24-5.525v-5.81A72.9,72.9,0,0,1,36,25.89Z"></path><path d="M58.632,14.93A76.126,76.126,0,0,0,32,10,76.126,76.126,0,0,0,5.368,14.93C4.178,15.4,4,17.056,4,18v.362c.707.318,2.081.9,4.007,1.577a75.042,75.042,0,0,1,47.986,0c1.926-.676,3.3-1.259,4.007-1.577V18C60,17.056,59.822,15.4,58.632,14.93ZM15,16H13V14h2Zm6-1H19V13h2Zm6-1H25V12h2Zm6,0H31V12h2Zm6,0H37V12h2Zm6,1H43V13h2Zm6,1H49V14h2Z"></path><path d="M34.112,44.374a1.866,1.866,0,0,0-1.267,1.088.972.972,0,0,1-.9.538,1,1,0,0,1-.885-.567,1.724,1.724,0,0,0-1.164-1.056,1.232,1.232,0,0,0-.242-.023,1.473,1.473,0,0,0-.977.385,1.908,1.908,0,0,0,0,2.522l3.294,2.489,3.389-2.518A1.746,1.746,0,0,0,35.8,46a1.713,1.713,0,0,0-.476-1.261A1.442,1.442,0,0,0,34.112,44.374Z"></path><path d="M33,38.059V36H31v2.059a9,9,0,1,0,2,0Zm3.674,10.68c-.025.023-.05.043-.077.064l-4.037,3a1,1,0,0,1-1.2-.006l-3.964-3a3.877,3.877,0,0,1-.07-5.536,3.414,3.414,0,0,1,2.948-.847,3.355,3.355,0,0,1,1.7.9,3.411,3.411,0,0,1,4.7-.057,3.889,3.889,0,0,1,0,5.478Z"></path><rect x="30" y="24" width="4" height="10"></rect></g></svg>