<svg height='100px' width='100px'  fill="#000000" xmlns="http://www.w3.org/2000/svg" xmlns:xlink="http://www.w3.org/1999/xlink" version="1.1" x="0px" y="0px" viewBox="17.8 -25.9 100 100" enable-background="new 17.8 -25.9 100 100" xml:space="preserve"><path d="M33,22.7c-0.2-1.2,0-2.2,0.6-3.2l4.5-6.6c0,0,1.8-2.6,2.6-3.7C42,7.3,46,7.6,47.2,9.7c0,0,0.3,0.5,0.4,1.3l2.6,6.2l5.1,3.1  c0.9,0.5,1.2,1.7,0.6,2.5c-0.5,0.9-1.7,1.2-2.5,0.6l-6.6-4l-1.4-3l-4.2,6.2l7.2,6.2C50,30,49.6,32,49.6,32l-1.9,10  c0,0.2-0.1,0.3-0.2,0.5c-0.6,1.1-2,1.6-3.2,1c-1-0.5-1.5-1.7-1.2-2.7l1.5-8.4l-7.9-5.5l-0.3-0.2l0,0l-1.7-1.2  C33.9,24.8,33.3,23.8,33,22.7z M35.9,32.6c0.4-1.1,0.8-2.6,1.2-3.8L34,26.6c-0.6-0.4-1.1-0.9-1.4-1.4l-1.1,5.6l-7.8,3.3  c-1,0.3-1.7,1.4-1.6,2.5c0.1,1.3,1.3,2.2,2.6,2.1c0.2,0,0.3-0.1,0.5-0.1l9.4-3.9C34.4,34.7,35.3,34.4,35.9,32.6z M49,8.2  c2.1-0.4,3.5-2.4,3.1-4.5c-0.4-2.1-2.4-3.5-4.5-3.1C45.5,1,44.1,3,44.5,5.1C44.9,7.2,46.9,8.6,49,8.2z M111.3,47.4  c-0.2,0.5-0.6,0.8-1.1,0.9c-0.4,0.1-0.8,0.1-1.3-0.1L93.1,41L88,45.6c-0.2,0.2-0.4,0.3-0.7,0.4c-0.6,0.2-1.4,0-1.8-0.5  c-0.3-0.4-0.5-0.9-0.4-1.3l-1.5,1.4c-0.2,0.2-0.4,0.3-0.7,0.4c-0.6,0.2-1.4,0-1.8-0.5c-0.7-0.7-0.6-1.8,0.1-2.5l3-2.7L68.8,41v3.8  h0.7c0,0,0.8,0.1,0.8-0.7v-0.8h1.5c0,0,0.3,2.7-1.7,3H31v-1.5h22.2V24.3l13.2,13.4l21.1-0.5l0.1-0.1c0,0-7.9-5.6-2.4-10.3  c0.4-0.4,3.7,7.4,3.7,7.4l10.9,0.1l2.3-1.1l-0.5-7.4l2.4,2.8l7.9,3.6l-1.3,2.2l-4.2,0.3l-0.8,4l4.4,1.3c0.9,0.3,1.5,1.3,1.2,2.2  c-0.2,0.6-0.6,1-1.2,1.2c-0.3,0.1-0.7,0.1-1,0l-4.7-1.4l-0.2,0.3l6.2,2.9C111.3,45.5,111.7,46.6,111.3,47.4z M85.1,39.4l1.6-1.4  l-19.5,0.5l1.7,1.7v0.1L85.1,39.4z"></path></svg>