<svg height='100px' width='100px'  fill="#000000" xmlns="http://www.w3.org/2000/svg" xmlns:xlink="http://www.w3.org/1999/xlink" version="1.1" x="0px" y="0px" viewBox="0 0 100 100" enable-background="new 0 0 100 100" xml:space="preserve"><g display="none"><g display="inline"><path d="M68.69,47.742l-6.753-2.433l-7.72-10.269c-0.257-0.343-0.66-0.544-1.089-0.544H36.786c-0.632,0-1.18,0.435-1.325,1.049    l-2.086,8.859c-0.112,0.198-0.194,0.415-0.194,0.659c0,0.005,0.003,0.01,0.003,0.015L29.46,57.217    c-0.126,0.411-0.051,0.857,0.203,1.204c0.254,0.346,0.656,0.553,1.086,0.557l37.361,0.033c0.745,0,1.351-0.599,1.362-1.343    l0.119-8.627C69.599,48.46,69.237,47.939,68.69,47.742z M66.767,56.287H34.233l-1.634-0.016l3.018-9.846h18.332    c0.752,0,1.362-0.609,1.362-1.362c0-0.753-0.61-1.362-1.362-1.362H36.335l1.528-6.481h14.584l7.515,9.997    c0.183,0.243,0.43,0.408,0.701,0.488c0.09,0.059,0.188,0.109,0.293,0.146l5.896,2.124L66.767,56.287z"></path><path d="M62.662,60.373c-0.752,0-1.362,0.609-1.362,1.362c0,1.502-1.222,2.724-2.724,2.724c-1.502,0-2.724-1.222-2.724-2.724    c0-0.753-0.61-1.362-1.362-1.362c-0.752,0-1.362,0.609-1.362,1.362c0,3.005,2.444,5.448,5.448,5.448    c3.004,0,5.448-2.443,5.448-5.448C64.024,60.982,63.414,60.373,62.662,60.373z"></path><path d="M43.595,60.373c-0.752,0-1.362,0.609-1.362,1.362c0,1.502-1.222,2.724-2.724,2.724s-2.724-1.222-2.724-2.724    c0-0.753-0.61-1.362-1.362-1.362c-0.752,0-1.362,0.609-1.362,1.362c0,3.005,2.444,5.448,5.448,5.448s5.448-2.443,5.448-5.448    C44.957,60.982,44.347,60.373,43.595,60.373z"></path></g></g><g display="none"><g display="inline"><path d="M74.84,47.742l-6.753-2.433l-7.72-10.269c-0.257-0.343-0.66-0.544-1.089-0.544H37.487c-0.632,0-1.18,0.435-1.325,1.049    l-1.93,8.185l-6.869,0.424c-0.61,0.037-1.119,0.476-1.248,1.073l-2.6,12.102c-0.086,0.402,0.013,0.819,0.27,1.14    c0.257,0.319,0.645,0.507,1.055,0.508l49.419,0.033c0.745,0,1.351-0.599,1.362-1.343l0.118-8.627    C75.748,48.46,75.386,47.939,74.84,47.742z M72.917,56.287H32.045l-5.514-0.025l2.03-9.453l6.575-0.406    c0.037,0.003,0.069,0.022,0.108,0.022h24.854c0.752,0,1.362-0.609,1.362-1.362c0-0.753-0.61-1.362-1.362-1.362H48.231v-3.046    c0-0.753-0.61-1.362-1.362-1.362c-0.752,0-1.362,0.609-1.362,1.362v3.046h-8.47l1.528-6.481h20.033l7.515,9.997    c0.182,0.243,0.43,0.408,0.701,0.488c0.09,0.059,0.188,0.109,0.293,0.146l5.896,2.124L72.917,56.287z"></path><path d="M68.812,60.373c-0.752,0-1.362,0.609-1.362,1.362c0,1.502-1.222,2.724-2.724,2.724c-1.502,0-2.724-1.222-2.724-2.724    c0-0.753-0.61-1.362-1.362-1.362c-0.752,0-1.362,0.609-1.362,1.362c0,3.005,2.444,5.448,5.448,5.448    c3.004,0,5.448-2.443,5.448-5.448C70.174,60.982,69.564,60.373,68.812,60.373z"></path><path d="M40.21,60.373c-0.752,0-1.362,0.609-1.362,1.362c0,1.502-1.222,2.724-2.724,2.724c-1.502,0-2.724-1.222-2.724-2.724    c0-0.753-0.61-1.362-1.362-1.362c-0.752,0-1.362,0.609-1.362,1.362c0,3.005,2.444,5.448,5.448,5.448s5.448-2.443,5.448-5.448    C41.572,60.982,40.963,60.373,40.21,60.373z"></path></g></g><g display="none"><g display="inline"><path d="M75.31,47.742l-6.753-2.432l-7.72-10.27c-0.257-0.343-0.66-0.544-1.089-0.544H29.785c-0.616,0-1.154,0.414-1.315,1.007    l-5.818,21.585c-0.188,0.696,0.207,1.398,0.878,1.629c0.228,0.173,0.499,0.294,0.808,0.294H74.73c0.745,0,1.351-0.599,1.362-1.343    l0.118-8.627C76.218,48.46,75.857,47.939,75.31,47.742z M73.387,56.287H25.689l1.924-7.138h35.263    c0.752,0,1.362-0.609,1.362-1.362c0-0.753-0.61-1.362-1.362-1.362h-11.45v-5.77c0-0.753-0.61-1.362-1.362-1.362    s-1.362,0.609-1.362,1.362v5.77H37.431v-5.77c0-0.753-0.61-1.362-1.362-1.362c-0.752,0-1.362,0.609-1.362,1.362v5.77h-6.36    l2.481-9.205h28.24l7.515,9.997c0.185,0.246,0.444,0.39,0.719,0.469c0.089,0.059,0.169,0.128,0.274,0.166l5.896,2.124    L73.387,56.287z"></path><path d="M69.282,60.373c-0.752,0-1.362,0.609-1.362,1.362c0,1.502-1.222,2.724-2.724,2.724s-2.724-1.222-2.724-2.724    c0-0.753-0.61-1.362-1.362-1.362s-1.362,0.609-1.362,1.362c0,3.005,2.444,5.448,5.448,5.448c3.004,0,5.448-2.443,5.448-5.448    C70.644,60.982,70.034,60.373,69.282,60.373z"></path><path d="M37.957,60.373c-0.752,0-1.362,0.609-1.362,1.362c0,1.502-1.222,2.724-2.724,2.724c-1.502,0-2.724-1.222-2.724-2.724    c0-0.753-0.61-1.362-1.362-1.362c-0.752,0-1.362,0.609-1.362,1.362c0,3.005,2.444,5.448,5.448,5.448    c3.004,0,5.448-2.443,5.448-5.448C39.319,60.982,38.709,60.373,37.957,60.373z"></path></g></g><g display="none"><g display="inline"><path d="M75.327,50.23l-4.086-8.172c-0.231-0.462-0.702-0.753-1.218-0.753H59.127v-8.173c0-0.753-0.61-1.362-1.362-1.362H25.077    c-0.752,0-1.362,0.609-1.362,1.362v28.602c0,0.753,0.61,1.362,1.362,1.362h32.688c0.752,0,1.362-0.609,1.362-1.362V44.03h10.054    l2.959,5.919h-7.649c-0.752,0-1.362,0.609-1.362,1.362c0,0.753,0.61,1.362,1.362,1.362h8.256v7.701H61.851    c-0.752,0-1.362,0.609-1.362,1.362c0,0.753,0.61,1.362,1.362,1.362h12.258c0.752,0,1.362-0.609,1.362-1.362V50.839    C75.47,50.628,75.421,50.419,75.327,50.23z M56.403,60.373H26.439V34.495h29.964V60.373z"></path><path d="M29.163,50.838h24.516c0.752,0,1.362-0.609,1.362-1.362c0-0.753-0.61-1.362-1.362-1.362H29.163    c-0.752,0-1.362,0.609-1.362,1.362C27.801,50.229,28.411,50.838,29.163,50.838z"></path><path d="M71.384,64.459c-0.752,0-1.362,0.609-1.362,1.362c0,1.502-1.222,2.724-2.724,2.724c-1.502,0-2.724-1.222-2.724-2.724    c0-0.753-0.61-1.362-1.362-1.362c-0.752,0-1.362,0.609-1.362,1.362c0,3.005,2.444,5.448,5.448,5.448    c3.004,0,5.448-2.443,5.448-5.448C72.746,65.068,72.137,64.459,71.384,64.459z"></path><path d="M38.697,64.459c-0.752,0-1.362,0.609-1.362,1.362c0,1.502-1.222,2.724-2.724,2.724s-2.724-1.222-2.724-2.724    c0-0.753-0.61-1.362-1.362-1.362c-0.752,0-1.362,0.609-1.362,1.362c0,3.005,2.444,5.448,5.448,5.448s5.448-2.443,5.448-5.448    C40.059,65.068,39.449,64.459,38.697,64.459z"></path></g></g><g display="none"><g display="inline"><path d="M38.39,44.704c0.08,0,0.163-0.007,0.245-0.023c0.74-0.134,1.231-0.843,1.097-1.583l-0.906-4.981    c-0.134-0.741-0.847-1.241-1.583-1.096c-0.74,0.134-1.231,0.843-1.097,1.583l0.906,4.981    C37.171,44.244,37.744,44.704,38.39,44.704z"></path><path d="M45.213,45.678c0.137,0.64,0.702,1.076,1.33,1.076c0.094,0,0.192-0.009,0.287-0.031c0.736-0.158,1.204-0.882,1.045-1.617    l-1.511-7.031c-0.158-0.737-0.884-1.208-1.617-1.045c-0.736,0.158-1.204,0.882-1.045,1.617L45.213,45.678z"></path><path d="M39.038,53.563c-4.506,0-8.172,3.666-8.172,8.172c0,4.506,3.666,8.172,8.172,8.172s8.172-3.666,8.172-8.172    C47.21,57.229,43.544,53.563,39.038,53.563z M39.038,67.183c-3.004,0-5.448-2.443-5.448-5.448s2.444-5.448,5.448-5.448    c3.005,0,5.448,2.443,5.448,5.448S42.043,67.183,39.038,67.183z"></path><path d="M63.553,53.563c-4.506,0-8.172,3.666-8.172,8.172c0,4.506,3.666,8.172,8.172,8.172s8.172-3.666,8.172-8.172    C71.725,57.229,68.059,53.563,63.553,53.563z M63.553,67.183c-3.005,0-5.448-2.443-5.448-5.448s2.443-5.448,5.448-5.448    c3.005,0,5.448,2.443,5.448,5.448S66.558,67.183,63.553,67.183z"></path><path d="M55.381,34.496h5.65c0.753,0,1.362-0.609,1.362-1.362c0-0.753-0.609-1.362-1.362-1.362h-34.64    c-0.41,0-0.798,0.185-1.057,0.503c-0.259,0.318-0.36,0.736-0.277,1.136l3.113,14.981c0.114,0.551,0.555,0.975,1.109,1.067    l24.516,4.086c0.074,0.012,0.149,0.019,0.223,0.019c0.321,0,0.633-0.113,0.88-0.323c0.306-0.258,0.481-0.638,0.481-1.039V34.496z     M52.658,50.593l-22.009-3.668l-2.583-12.429h24.592V50.593z"></path><path d="M73.447,51.175h-1.722v-4.421c0-0.146-0.024-0.291-0.07-0.431l-2.724-8.172c-0.185-0.556-0.705-0.931-1.291-0.931h-8.172    c-0.753,0-1.362,0.609-1.362,1.362v12.911c0,0.753,0.609,1.362,1.362,1.362c0.753,0,1.362-0.609,1.362-1.362V39.944h5.828    l2.344,7.031v5.562c0,0.753,0.609,1.362,1.362,1.362h3.084c0.753,0,1.362-0.609,1.362-1.362    C74.809,51.784,74.2,51.175,73.447,51.175z"></path></g></g><g display="none"><g display="inline"><path d="M82.468,47.964l-4.086-8.172c-0.231-0.462-0.702-0.753-1.218-0.753H67.132c-0.752,0-1.362,0.609-1.362,1.362v8.909    c0,0.753,0.61,1.362,1.362,1.362s1.362-0.609,1.362-1.362v-7.547h7.828l2.959,5.919h-7.649c-0.752,0-1.362,0.609-1.362,1.362    c0,0.753,0.61,1.362,1.362,1.362h8.256v7.701H19.451c-0.752,0-1.362,0.609-1.362,1.362s0.61,1.362,1.362,1.362h61.799    c0.752,0,1.362-0.609,1.362-1.362V48.573C82.611,48.362,82.562,48.153,82.468,47.964z"></path><path d="M79.887,62.193c-0.752,0-1.362,0.609-1.362,1.362c0,1.502-1.222,2.724-2.724,2.724c-1.502,0-2.724-1.222-2.724-2.724    c0-0.753-0.61-1.362-1.362-1.362c-0.752,0-1.362,0.609-1.362,1.362c0,3.005,2.444,5.448,5.448,5.448    c3.004,0,5.448-2.443,5.448-5.448C81.249,62.802,80.639,62.193,79.887,62.193z"></path><path d="M48.562,62.193c-0.752,0-1.362,0.609-1.362,1.362c0,1.502-1.222,2.724-2.724,2.724c-1.502,0-2.724-1.222-2.724-2.724    c0-0.753-0.61-1.362-1.362-1.362s-1.362,0.609-1.362,1.362c0,3.005,2.444,5.448,5.448,5.448c3.004,0,5.448-2.443,5.448-5.448    C49.924,62.802,49.314,62.193,48.562,62.193z"></path><path d="M35.764,62.193c-0.752,0-1.362,0.609-1.362,1.362c0,1.502-1.222,2.724-2.724,2.724s-2.724-1.222-2.724-2.724    c0-0.753-0.61-1.362-1.362-1.362c-0.752,0-1.362,0.609-1.362,1.362c0,3.005,2.444,5.448,5.448,5.448s5.448-2.443,5.448-5.448    C37.126,62.802,36.516,62.193,35.764,62.193z"></path><path d="M27.811,55.788h25.182c5.82,0,10.555-4.735,10.555-10.555s-4.735-10.555-10.555-10.555H27.811    c-5.82,0-10.555,4.735-10.555,10.555S21.99,55.788,27.811,55.788z M27.811,37.402h25.182c4.318,0,7.831,3.513,7.831,7.831    s-3.513,7.831-7.831,7.831H27.811c-4.318,0-7.831-3.513-7.831-7.831S23.493,37.402,27.811,37.402z"></path><path d="M24.558,46.276h31.33c0.752,0,1.362-0.609,1.362-1.362c0-0.753-0.61-1.362-1.362-1.362h-31.33    c-0.752,0-1.362,0.609-1.362,1.362C23.196,45.667,23.806,46.276,24.558,46.276z"></path></g></g><g display="none"><g display="inline"><path d="M79.27,46.922l-7.717-2.156c-0.013-0.021-0.015-0.045-0.03-0.065l-6.619-9.073c-0.257-0.352-0.666-0.56-1.101-0.56h-6.345    c-0.752,0-1.362,0.609-1.362,1.362v9.891c0,0.753,0.61,1.362,1.362,1.362c0.752,0,1.362-0.609,1.362-1.362v-8.529h4.291    l6.211,8.514c0.055,0.076,0.133,0.122,0.2,0.183c0.157,0.364,0.454,0.665,0.865,0.78l7.14,1.995l-0.086,6.234H22.943v-4.204    h28.343v0.648c0,0.753,0.61,1.362,1.362,1.362c0.752,0,1.362-0.609,1.362-1.362v-2.01c0-0.753-0.61-1.362-1.362-1.362H21.581    c-0.752,0-1.362,0.609-1.362,1.362v6.928c0,0.753,0.61,1.362,1.362,1.362h57.203c0.745,0,1.351-0.599,1.362-1.343l0.118-8.625    C80.274,47.634,79.865,47.089,79.27,46.922z"></path><path d="M71.975,59.583c-0.752,0-1.362,0.609-1.362,1.362c0,1.502-1.222,2.724-2.724,2.724s-2.724-1.222-2.724-2.724    c0-0.753-0.61-1.362-1.362-1.362c-0.752,0-1.362,0.609-1.362,1.362c0,3.005,2.444,5.448,5.448,5.448s5.448-2.443,5.448-5.448    C73.337,60.192,72.727,59.583,71.975,59.583z"></path><path d="M35.201,59.583c-0.752,0-1.362,0.609-1.362,1.362c0,1.502-1.222,2.724-2.724,2.724c-1.502,0-2.724-1.222-2.724-2.724    c0-0.753-0.61-1.362-1.362-1.362c-0.752,0-1.362,0.609-1.362,1.362c0,3.005,2.444,5.448,5.448,5.448s5.448-2.443,5.448-5.448    C36.563,60.192,35.953,59.583,35.201,59.583z"></path></g></g><g display="none"><g display="inline"><path d="M79.408,47.964l-4.086-8.172c-0.231-0.462-0.702-0.753-1.218-0.753H63.209v-4.086c0-0.753-0.61-1.362-1.362-1.362H19.625    c-0.752,0-1.362,0.609-1.362,1.362v24.515c0,0.753,0.61,1.362,1.362,1.362h42.222c0.752,0,1.362-0.609,1.362-1.362V41.763h10.054    l2.959,5.919h-7.649c-0.752,0-1.362,0.609-1.362,1.362c0,0.753,0.61,1.362,1.362,1.362h8.256v7.701H65.933    c-0.752,0-1.362,0.609-1.362,1.362s0.61,1.362,1.362,1.362H78.19c0.752,0,1.362-0.609,1.362-1.362V48.573    C79.552,48.362,79.503,48.153,79.408,47.964z M60.485,58.107H20.987V36.315h39.498V58.107z"></path><path d="M23.711,52.659h34.05c0.752,0,1.362-0.609,1.362-1.362c0-0.753-0.61-1.362-1.362-1.362h-34.05    c-0.752,0-1.362,0.609-1.362,1.362C22.349,52.05,22.959,52.659,23.711,52.659z"></path><path d="M31.062,44.028h26.698c0.752,0,1.362-0.609,1.362-1.362c0-0.753-0.61-1.362-1.362-1.362H31.062    c-0.752,0-1.362,0.609-1.362,1.362C29.701,43.419,30.31,44.028,31.062,44.028z"></path><path d="M76.828,62.193c-0.752,0-1.362,0.609-1.362,1.362c0,1.502-1.222,2.724-2.724,2.724c-1.502,0-2.724-1.222-2.724-2.724    c0-0.753-0.61-1.362-1.362-1.362c-0.752,0-1.362,0.609-1.362,1.362c0,3.005,2.444,5.448,5.448,5.448    c3.004,0,5.448-2.443,5.448-5.448C78.19,62.802,77.58,62.193,76.828,62.193z"></path><path d="M45.503,62.193c-0.752,0-1.362,0.609-1.362,1.362c0,1.502-1.222,2.724-2.724,2.724c-1.502,0-2.724-1.222-2.724-2.724    c0-0.753-0.61-1.362-1.362-1.362s-1.362,0.609-1.362,1.362c0,3.005,2.444,5.448,5.448,5.448c3.004,0,5.448-2.443,5.448-5.448    C46.865,62.802,46.255,62.193,45.503,62.193z"></path><path d="M32.706,62.193c-0.752,0-1.362,0.609-1.362,1.362c0,1.502-1.222,2.724-2.724,2.724c-1.502,0-2.724-1.222-2.724-2.724    c0-0.753-0.61-1.362-1.362-1.362s-1.362,0.609-1.362,1.362c0,3.005,2.444,5.448,5.448,5.448s5.448-2.443,5.448-5.448    C34.068,62.802,33.458,62.193,32.706,62.193z"></path></g></g><g display="none"><g display="inline"><path d="M86.386,47.964L82.3,39.792c-0.141-0.282-0.375-0.505-0.662-0.634l-12.429-5.562c-0.358-0.158-0.745-0.144-1.081-0.004    H12.981c-0.752,0-1.362,0.609-1.362,1.362v24.515c0,0.753,0.61,1.362,1.362,1.362c0.03,0,0.055-0.015,0.085-0.017    c0.03,0.002,0.055,0.017,0.085,0.017h72.016c0.753,0,1.362-0.609,1.362-1.362V48.573C86.529,48.362,86.48,48.153,86.386,47.964z     M14.343,58.107V36.315h54.273l11.465,5.13l3.118,6.237H75.55c-0.753,0-1.362,0.609-1.362,1.362c0,0.753,0.609,1.362,1.362,1.362    h8.256v7.701H14.343z"></path><path d="M78.358,62.193c-0.753,0-1.362,0.609-1.362,1.362c0,1.502-1.222,2.724-2.724,2.724c-1.502,0-2.724-1.222-2.724-2.724    c0-0.753-0.609-1.362-1.362-1.362s-1.362,0.609-1.362,1.362c0,3.005,2.443,5.448,5.448,5.448c3.005,0,5.448-2.443,5.448-5.448    C79.72,62.802,79.111,62.193,78.358,62.193z"></path><path d="M38.86,62.193c-0.752,0-1.362,0.609-1.362,1.362c0,1.502-1.222,2.724-2.724,2.724c-1.502,0-2.724-1.222-2.724-2.724    c0-0.753-0.61-1.362-1.362-1.362c-0.752,0-1.362,0.609-1.362,1.362c0,3.005,2.444,5.448,5.448,5.448s5.448-2.443,5.448-5.448    C40.222,62.802,39.612,62.193,38.86,62.193z"></path><path d="M26.062,62.193c-0.752,0-1.362,0.609-1.362,1.362c0,1.502-1.222,2.724-2.724,2.724s-2.724-1.222-2.724-2.724    c0-0.753-0.61-1.362-1.362-1.362c-0.752,0-1.362,0.609-1.362,1.362c0,3.005,2.444,5.448,5.448,5.448s5.448-2.443,5.448-5.448    C27.424,62.802,26.814,62.193,26.062,62.193z"></path><path d="M69.219,45.394h-6.356v-5.448c0-0.753-0.61-1.362-1.362-1.362s-1.362,0.609-1.362,1.362v5.448H49.242v-5.448    c0-0.753-0.61-1.362-1.362-1.362s-1.362,0.609-1.362,1.362v5.448H35.621v-5.448c0-0.753-0.61-1.362-1.362-1.362    c-0.752,0-1.362,0.609-1.362,1.362v5.448H22v-5.448c0-0.753-0.61-1.362-1.362-1.362c-0.752,0-1.362,0.609-1.362,1.362v5.448    h-1.358c-0.752,0-1.362,0.609-1.362,1.362s0.61,1.362,1.362,1.362h51.301c0.753,0,1.362-0.609,1.362-1.362    S69.972,45.394,69.219,45.394z"></path></g></g><g display="none"><g display="inline"><path d="M75.658,46.602l-4.086-8.172c-0.231-0.462-0.702-0.753-1.218-0.753H60.321c-0.753,0-1.362,0.609-1.362,1.362v8.909    c0,0.753,0.609,1.362,1.362,1.362c0.753,0,1.362-0.609,1.362-1.362v-7.547h7.829l2.959,5.919h-7.649    c-0.753,0-1.362,0.609-1.362,1.362c0,0.753,0.609,1.362,1.362,1.362h8.256v7.701H26.431c-0.753,0-1.362,0.609-1.362,1.362    s0.609,1.362,1.362,1.362h48.009c0.753,0,1.362-0.609,1.362-1.362V47.211C75.801,47,75.752,46.791,75.658,46.602z"></path><path d="M73.078,60.831c-0.753,0-1.362,0.609-1.362,1.362c0,1.502-1.222,2.724-2.724,2.724c-1.502,0-2.724-1.222-2.724-2.724    c0-0.753-0.609-1.362-1.362-1.362s-1.362,0.609-1.362,1.362c0,3.005,2.443,5.448,5.448,5.448c3.005,0,5.448-2.443,5.448-5.448    C74.439,61.44,73.83,60.831,73.078,60.831z"></path><path d="M41.025,60.831c-0.753,0-1.362,0.609-1.362,1.362c0,1.502-1.222,2.724-2.724,2.724c-1.502,0-2.724-1.222-2.724-2.724    c0-0.753-0.609-1.362-1.362-1.362c-0.753,0-1.362,0.609-1.362,1.362c0,3.005,2.443,5.448,5.448,5.448s5.448-2.443,5.448-5.448    C42.387,61.44,41.778,60.831,41.025,60.831z"></path><path d="M28.495,51.979c0.753,0,1.362-0.609,1.362-1.362c0-0.753-0.609-1.362-1.362-1.362c-0.762,0-1.383-0.621-1.383-1.385    c0-0.762,0.621-1.383,1.383-1.383c0.753,0,1.362-0.609,1.362-1.362c0-0.063-0.028-0.117-0.036-0.177    c0.001-0.025,0.014-0.046,0.014-0.071v-7.459l19.812,12.647H38.007c-0.753,0-1.362,0.609-1.362,1.362    c0,0.753,0.609,1.362,1.362,1.362h19.017c0.753,0,1.362-0.609,1.362-1.362c0-0.753-0.609-1.362-1.362-1.362H54.71L29.206,33.784    c-0.419-0.267-0.951-0.285-1.387-0.047c-0.436,0.239-0.708,0.697-0.708,1.194v9.088c-1.583,0.571-2.724,2.073-2.724,3.85    C24.388,50.136,26.23,51.979,28.495,51.979z"></path></g></g><g display="none"><g display="inline"><path d="M77.185,47.964l-4.086-8.172c-0.231-0.462-0.702-0.753-1.218-0.753H61.849c-0.753,0-1.362,0.609-1.362,1.362v8.909    c0,0.753,0.609,1.362,1.362,1.362c0.753,0,1.362-0.609,1.362-1.362v-7.547h7.827l2.959,5.919h-7.649    c-0.753,0-1.362,0.609-1.362,1.362c0,0.753,0.609,1.362,1.362,1.362h8.256v7.701H53.521c-0.753,0-1.362,0.609-1.362,1.362    s0.609,1.362,1.362,1.362h22.446c0.753,0,1.362-0.609,1.362-1.362V48.573C77.328,48.362,77.279,48.153,77.185,47.964z"></path><path d="M74.604,62.193c-0.753,0-1.362,0.609-1.362,1.362c0,1.502-1.222,2.724-2.724,2.724c-1.502,0-2.724-1.222-2.724-2.724    c0-0.753-0.609-1.362-1.362-1.362c-0.753,0-1.362,0.609-1.362,1.362c0,3.005,2.443,5.448,5.448,5.448    c3.005,0,5.448-2.443,5.448-5.448C75.966,62.802,75.357,62.193,74.604,62.193z"></path><path d="M28.037,47.581c0.736,0.153,1.455-0.33,1.603-1.068c0.148-0.738-0.331-1.455-1.068-1.603    c-0.952-0.19-1.875-2.503-2.253-4.289l1.295-2.099c7.101-2.433,13.086-2.244,17.795,0.564c6.31,3.761,8.778,11.304,9.567,14.48    H35.455c-0.753,0-1.362,0.609-1.362,1.362c0,0.753,0.609,1.362,1.362,1.362h20.923c0.223,0,0.425-0.066,0.611-0.161    c0.66-0.178,1.106-0.807,1-1.5c-0.077-0.503-1.992-12.391-11.167-17.873c-5.542-3.31-12.461-3.529-20.569-0.644    c-0.293,0.104-0.54,0.305-0.702,0.568l-1.826,2.959c-0.173,0.279-0.238,0.609-0.186,0.932    C23.708,41.626,24.726,46.918,28.037,47.581z"></path><path d="M37.046,46.646c-0.39-0.641-1.228-0.846-1.871-0.459l-11.662,7.065c-0.642,0.39-0.849,1.228-0.459,1.871    c0.257,0.422,0.706,0.656,1.166,0.656c0.241,0,0.484-0.064,0.705-0.197l11.662-7.065C37.229,48.127,37.435,47.29,37.046,46.646z"></path><path d="M45.568,59.33c-2.886,0-5.235,2.349-5.235,5.235c0,2.886,2.349,5.234,5.235,5.234s5.234-2.348,5.234-5.234    C50.802,61.679,48.455,59.33,45.568,59.33z M45.568,67.075c-1.385,0-2.511-1.127-2.511-2.51c0-1.385,1.127-2.511,2.511-2.511    s2.51,1.127,2.51,2.511C48.078,65.949,46.953,67.075,45.568,67.075z"></path><path d="M32.349,59.33c-2.886,0-5.235,2.349-5.235,5.235c0,2.886,2.349,5.234,5.235,5.234c2.886,0,5.234-2.348,5.234-5.234    C37.583,61.679,35.235,59.33,32.349,59.33z M32.349,67.075c-1.385,0-2.511-1.127-2.511-2.51c0-1.385,1.127-2.511,2.511-2.511    c1.383,0,2.51,1.127,2.51,2.511C34.859,65.949,33.733,67.075,32.349,67.075z"></path></g></g><g display="none"><g display="inline"><path d="M87.193,48.35l-1.361-8.172c-0.029-0.176-0.092-0.343-0.186-0.495l-3.24-5.224c-0.249-0.4-0.686-0.644-1.157-0.644H15.365    c-0.31,0-0.609,0.105-0.851,0.298l-2.554,2.043c-0.323,0.259-0.511,0.65-0.511,1.064v22.249c0,0.753,0.609,1.362,1.362,1.362    H85.85c0.753,0,1.362-0.609,1.362-1.362V48.573C87.212,48.499,87.205,48.423,87.193,48.35z M14.173,58.107V37.874l1.669-1.335    h64.649l2.699,4.352l1.131,6.791h-6.726v-6.376c0-0.753-0.609-1.362-1.362-1.362c-0.753,0-1.362,0.609-1.362,1.362v7.738    c0,0.753,0.609,1.362,1.362,1.362h8.256v7.701H14.173z"></path><path d="M80.402,62.193c-0.753,0-1.362,0.609-1.362,1.362c0,1.502-1.222,2.724-2.724,2.724c-1.502,0-2.724-1.222-2.724-2.724    c0-0.753-0.609-1.362-1.362-1.362s-1.362,0.609-1.362,1.362c0,3.005,2.443,5.448,5.448,5.448c3.005,0,5.448-2.443,5.448-5.448    C81.764,62.802,81.155,62.193,80.402,62.193z"></path><path d="M39.542,62.193c-0.753,0-1.362,0.609-1.362,1.362c0,1.502-1.222,2.724-2.724,2.724c-1.502,0-2.724-1.222-2.724-2.724    c0-0.753-0.609-1.362-1.362-1.362s-1.362,0.609-1.362,1.362c0,3.005,2.443,5.448,5.448,5.448c3.005,0,5.448-2.443,5.448-5.448    C40.904,62.802,40.295,62.193,39.542,62.193z"></path><path d="M26.745,62.193c-0.753,0-1.362,0.609-1.362,1.362c0,1.502-1.222,2.724-2.724,2.724c-1.502,0-2.724-1.222-2.724-2.724    c0-0.753-0.609-1.362-1.362-1.362s-1.362,0.609-1.362,1.362c0,3.005,2.443,5.448,5.448,5.448s5.448-2.443,5.448-5.448    C28.106,62.802,27.497,62.193,26.745,62.193z"></path><path d="M69.901,45.394H18.601c-0.753,0-1.362,0.609-1.362,1.362s0.609,1.362,1.362,1.362h51.301c0.753,0,1.362-0.609,1.362-1.362    S70.654,45.394,69.901,45.394z"></path></g></g><g display="none"><g display="inline"><path d="M72.891,57.654H29.155c-0.448,0-0.867-0.221-1.121-0.589l-2.334-3.388c-0.12-0.174-0.198-0.372-0.227-0.581L24.74,47.94    c-0.055-0.392,0.063-0.79,0.323-1.088c0.26-0.298,0.672-0.422,1.035-0.466l33.708,0.238c0.753,0.005,1.358,0.62,1.353,1.371    c-0.005,0.749-0.614,1.353-1.362,1.353c-0.003,0-0.006,0-0.009,0l-32.129-0.227l0.465,3.276l1.746,2.534h41.677l0.087-6.311    l-5.896-2.125c-0.708-0.254-1.075-1.035-0.82-1.742c0.255-0.709,1.038-1.077,1.743-0.819l6.81,2.454    c0.547,0.197,0.908,0.718,0.9,1.299l-0.119,8.625C74.242,57.056,73.635,57.654,72.891,57.654z"></path><path d="M65.834,46.405c-0.404,0-0.805-0.18-1.073-0.523l-5.184-6.626c-0.464-0.592-0.359-1.448,0.233-1.911    c0.593-0.466,1.448-0.36,1.912,0.233l5.184,6.626c0.464,0.592,0.359,1.448-0.233,1.911C66.423,46.311,66.127,46.405,65.834,46.405    z"></path><path d="M63.357,65.826c-3.004,0-5.448-2.443-5.448-5.448c0-0.753,0.61-1.362,1.362-1.362s1.362,0.609,1.362,1.362    c0,1.502,1.222,2.724,2.724,2.724c1.502,0,2.724-1.222,2.724-2.724c0-0.753,0.61-1.362,1.362-1.362    c0.752,0,1.362,0.609,1.362,1.362C68.805,63.383,66.361,65.826,63.357,65.826z"></path><path d="M37.48,65.826c-3.004,0-5.448-2.443-5.448-5.448c0-0.753,0.61-1.362,1.362-1.362s1.362,0.609,1.362,1.362    c0,1.502,1.222,2.724,2.724,2.724c1.502,0,2.724-1.222,2.724-2.724c0-0.753,0.61-1.362,1.362-1.362    c0.752,0,1.362,0.609,1.362,1.362C42.928,63.383,40.484,65.826,37.48,65.826z"></path></g><path display="inline" d="M46.007,48.461c-0.559,0-1.084-0.347-1.283-0.904l-1.702-4.767c-0.253-0.708,0.116-1.487,0.825-1.74   c0.709-0.254,1.488,0.116,1.741,0.825l1.702,4.767c0.253,0.708-0.116,1.487-0.825,1.74C46.314,48.436,46.16,48.461,46.007,48.461z"></path></g><g display="none"><g display="inline"><path d="M72.722,56.293L27.39,56.261c-0.66-0.003-1.223-0.479-1.336-1.129l-1.476-8.512c-0.076-0.436,0.066-0.883,0.38-1.197    l2.689-2.685c0.113-0.112,0.245-0.203,0.389-0.271l9.913-4.599c0.17-0.078,0.354-0.121,0.541-0.126l14.906-0.358    c0.713,0.015,1.377,0.576,1.394,1.329c0.019,0.753-0.577,1.377-1.329,1.395l-14.622,0.351l-9.437,4.378l-2.018,2.015l1.16,6.691    l6.05,0.027h36.462l-1.287-6.338l-4.345-2.16c-0.674-0.335-0.948-1.153-0.613-1.826c0.335-0.674,1.152-0.951,1.826-0.613    l4.94,2.457c0.376,0.188,0.644,0.537,0.728,0.948l1.75,8.623c0.081,0.4-0.021,0.817-0.28,1.133    C73.518,56.109,73.131,56.293,72.722,56.293z"></path><path d="M65.663,45.043c-0.283,0-0.569-0.088-0.813-0.27l-6.139-4.579c-0.603-0.45-0.728-1.303-0.278-1.906    c0.448-0.603,1.302-0.728,1.906-0.278l6.139,4.579c0.603,0.45,0.728,1.303,0.278,1.906C66.489,44.854,66.078,45.043,65.663,45.043    z"></path><path d="M63.188,64.464c-3.004,0-5.448-2.443-5.448-5.448c0-0.753,0.61-1.362,1.362-1.362c0.752,0,1.362,0.609,1.362,1.362    c0,1.502,1.222,2.724,2.724,2.724s2.724-1.222,2.724-2.724c0-0.753,0.61-1.362,1.362-1.362c0.752,0,1.362,0.609,1.362,1.362    C68.636,62.021,66.192,64.464,63.188,64.464z"></path><path d="M37.311,64.464c-3.004,0-5.448-2.443-5.448-5.448c0-0.753,0.61-1.362,1.362-1.362s1.362,0.609,1.362,1.362    c0,1.502,1.222,2.724,2.724,2.724c1.502,0,2.724-1.222,2.724-2.724c0-0.753,0.61-1.362,1.362-1.362    c0.752,0,1.362,0.609,1.362,1.362C42.759,62.021,40.315,64.464,37.311,64.464z"></path></g><path display="inline" d="M58.096,48.742H27.282c-0.752,0-1.362-0.609-1.362-1.362c0-0.753,0.61-1.362,1.362-1.362h30.814   c0.752,0,1.362,0.609,1.362,1.362C59.458,48.133,58.848,48.742,58.096,48.742z"></path></g><g display="none"><path display="inline" d="M46.863,52.888H33.24c-0.752,0-1.362-0.609-1.362-1.362s0.61-1.362,1.362-1.362h13.623   c0.752,0,1.362,0.609,1.362,1.362S47.615,52.888,46.863,52.888z"></path><g display="inline"><path d="M73.841,61.162H24.81c-0.752,0-1.362-0.609-1.362-1.362c0-0.753,0.61-1.362,1.362-1.362h47.704l0.065-2.515l-6.254-4.755    c-0.227-0.172-0.393-0.41-0.477-0.681l-2.751-8.895l-4.159-0.094v4.472c0,0.753-0.61,1.362-1.362,1.362s-1.362-0.609-1.362-1.362    v-5.864c0-0.367,0.148-0.718,0.41-0.974c0.261-0.255,0.612-0.415,0.983-0.388l6.532,0.148c0.586,0.013,1.097,0.4,1.271,0.959    l2.911,9.415l6.462,4.912c0.349,0.265,0.549,0.681,0.537,1.12l-0.118,4.539C75.183,60.574,74.579,61.162,73.841,61.162z"></path><path d="M64.307,69.333c-3.004,0-5.448-2.443-5.448-5.448c0-0.753,0.61-1.362,1.362-1.362s1.362,0.609,1.362,1.362    c0,1.502,1.222,2.724,2.724,2.724c1.502,0,2.724-1.222,2.724-2.724c0-0.753,0.61-1.362,1.362-1.362    c0.752,0,1.362,0.609,1.362,1.362C69.755,66.89,67.311,69.333,64.307,69.333z"></path><path d="M34.344,69.333c-3.004,0-5.448-2.443-5.448-5.448c0-0.753,0.61-1.362,1.362-1.362c0.752,0,1.362,0.609,1.362,1.362    c0,1.502,1.222,2.724,2.724,2.724c1.502,0,2.724-1.222,2.724-2.724c0-0.753,0.61-1.362,1.362-1.362s1.362,0.609,1.362,1.362    C39.791,66.89,37.348,69.333,34.344,69.333z"></path></g><path display="inline" d="M24.421,61.041c-0.752,0-1.362-0.609-1.362-1.362V33.2c0-0.753,0.61-1.362,1.362-1.362h29.963   c0.752,0,1.362,0.609,1.362,1.362c0,0.753-0.61,1.362-1.362,1.362H25.783v25.116C25.783,60.432,25.173,61.041,24.421,61.041z"></path></g><g display="none"><g display="inline"><path d="M33.619,69.796c-3.566,0-6.467-2.901-6.467-6.468c0-3.566,2.901-6.467,6.467-6.467c3.566,0,6.468,2.901,6.468,6.467    C40.087,66.896,37.185,69.796,33.619,69.796z M33.619,59.016c-2.377,0-4.311,1.935-4.311,4.312c0,2.378,1.934,4.313,4.311,4.313    c2.377,0,4.312-1.935,4.312-4.313C37.931,60.952,35.996,59.016,33.619,59.016z"></path><path d="M63.626,69.796c-3.566,0-6.468-2.901-6.468-6.468c0-3.566,2.901-6.467,6.468-6.467c3.566,0,6.467,2.901,6.467,6.467    C70.093,66.896,67.191,69.796,63.626,69.796z M63.626,59.016c-2.377,0-4.312,1.935-4.312,4.312c0,2.378,1.935,4.313,4.312,4.313    s4.311-1.935,4.311-4.313C67.937,60.952,66.003,59.016,63.626,59.016z"></path></g><g display="inline"><path d="M74.417,61.155c-0.022,0-0.045,0-0.067-0.001c-0.751-0.036-1.331-0.674-1.295-1.426l0.246-5.13l-5.863-2.113    c-0.708-0.254-1.075-1.035-0.82-1.742c0.255-0.709,1.037-1.079,1.743-0.819l6.81,2.454c0.563,0.202,0.928,0.749,0.899,1.346    l-0.294,6.135C75.741,60.587,75.139,61.155,74.417,61.155z"></path><path d="M24.789,59.619c-0.059,0-0.117-0.004-0.176-0.011c-0.746-0.097-1.273-0.779-1.176-1.526l2.29-17.765    c0.087-0.68,0.666-1.188,1.351-1.188H59.61c0.428,0,0.831,0.201,1.089,0.544l7.923,10.542c0.452,0.601,0.331,1.455-0.271,1.907    c-0.6,0.452-1.454,0.331-1.907-0.271l-7.515-9.998H28.275l-2.137,16.578C26.049,59.117,25.463,59.619,24.789,59.619z"></path></g><path display="inline" d="M62.737,53.784H26.92c-0.752,0-1.362-0.609-1.362-1.362s0.61-1.362,1.362-1.362h35.816   c0.752,0,1.362,0.609,1.362,1.362S63.489,53.784,62.737,53.784z"></path><path display="inline" d="M49.924,53.342c-0.752,0-1.362-0.609-1.362-1.362v-6.69c0-0.753,0.61-1.362,1.362-1.362   c0.752,0,1.362,0.609,1.362,1.362v6.69C51.286,52.733,50.676,53.342,49.924,53.342z"></path><path display="inline" d="M38.654,53.342c-0.752,0-1.362-0.609-1.362-1.362v-6.69c0-0.753,0.61-1.362,1.362-1.362   c0.752,0,1.362,0.609,1.362,1.362v6.69C40.016,52.733,39.406,53.342,38.654,53.342z"></path><path display="inline" d="M53.897,63.215H42.468c-0.752,0-1.362-0.609-1.362-1.362c0-0.753,0.61-1.362,1.362-1.362h11.429   c0.752,0,1.362,0.609,1.362,1.362C55.259,62.606,54.649,63.215,53.897,63.215z"></path><path display="inline" d="M50.277,36.443H30.991c-0.752,0-1.362-0.609-1.362-1.362s0.61-1.362,1.362-1.362h19.287   c0.752,0,1.362,0.609,1.362,1.362S51.03,36.443,50.277,36.443z"></path></g><g display="none"><g display="inline"><path d="M79.862,47.966l-4.086-8.172c-0.231-0.462-0.702-0.753-1.218-0.753H63.662v-4.086c0-0.384-0.162-0.751-0.448-1.009    c-0.283-0.257-0.652-0.375-1.048-0.346l-31.36,3.104c-0.541,0.053-1,0.426-1.164,0.944L22.866,59.06    c-0.132,0.414-0.057,0.866,0.2,1.216c0.257,0.35,0.665,0.557,1.099,0.557H62.3c0.753,0,1.362-0.609,1.362-1.362V41.766h10.054    l2.959,5.919h-7.649c-0.753,0-1.362,0.609-1.362,1.362c0,0.753,0.609,1.362,1.362,1.362h8.256v7.701H66.386    c-0.753,0-1.362,0.609-1.362,1.362c0,0.753,0.609,1.362,1.362,1.362h12.258c0.753,0,1.362-0.609,1.362-1.362V48.576    C80.006,48.364,79.956,48.155,79.862,47.966z M60.938,58.109H26.024l5.945-18.781l28.969-2.869V58.109z"></path><path d="M24.94,42.27c-0.716-0.223-1.482,0.173-1.708,0.891l-4.104,13.045c-0.226,0.717,0.173,1.482,0.891,1.708    c0.136,0.043,0.273,0.063,0.408,0.063c0.58,0,1.116-0.371,1.299-0.954l4.104-13.045C26.057,43.261,25.658,42.496,24.94,42.27z"></path><path d="M77.282,62.195c-0.753,0-1.362,0.609-1.362,1.362c0,1.502-1.222,2.724-2.724,2.724c-1.502,0-2.724-1.222-2.724-2.724    c0-0.753-0.609-1.362-1.362-1.362s-1.362,0.609-1.362,1.362c0,3.005,2.443,5.448,5.448,5.448c3.005,0,5.448-2.443,5.448-5.448    C78.644,62.804,78.035,62.195,77.282,62.195z"></path><path d="M50.043,62.195c-0.753,0-1.362,0.609-1.362,1.362c0,1.502-1.222,2.724-2.724,2.724c-1.502,0-2.724-1.222-2.724-2.724    c0-0.753-0.609-1.362-1.362-1.362s-1.362,0.609-1.362,1.362c0,3.005,2.443,5.448,5.448,5.448s5.448-2.443,5.448-5.448    C51.405,62.804,50.795,62.195,50.043,62.195z"></path><path d="M37.245,62.195c-0.753,0-1.362,0.609-1.362,1.362c0,1.502-1.222,2.724-2.724,2.724c-1.502,0-2.724-1.222-2.724-2.724    c0-0.753-0.609-1.362-1.362-1.362c-0.753,0-1.362,0.609-1.362,1.362c0,3.005,2.443,5.448,5.448,5.448s5.448-2.443,5.448-5.448    C38.607,62.804,37.998,62.195,37.245,62.195z"></path><path d="M56.376,55.729c0.753,0,1.362-0.609,1.362-1.362V43.213c0-0.753-0.609-1.362-1.362-1.362    c-0.753,0-1.362,0.609-1.362,1.362v11.154C55.014,55.119,55.624,55.729,56.376,55.729z"></path></g></g><g display="none"><g display="inline"><path d="M57.188,59.925h-2.043V43.184c0-0.753-0.609-1.362-1.362-1.362h-7.775c-0.749,0-1.358,0.605-1.362,1.354L44.54,60.152    H19.284v-27.24H62.3l3.564,4.684c0.458,0.599,1.31,0.716,1.909,0.259c0.599-0.455,0.714-1.31,0.259-1.909l-3.973-5.222    c-0.258-0.339-0.658-0.537-1.084-0.537H17.922c-0.753,0-1.362,0.609-1.362,1.362v29.964c0,0.753,0.609,1.362,1.362,1.362h27.972    c0.749,0,1.358-0.605,1.362-1.354l0.105-16.977h5.059v16.741c0,0.753,0.609,1.362,1.362,1.362h3.405    c0.753,0,1.362-0.609,1.362-1.362C58.55,60.534,57.94,59.925,57.188,59.925z"></path><path d="M82.316,52.052l-4.811-2.445l-3.885-7.77c-0.231-0.462-0.702-0.753-1.218-0.753h-12.49c-0.753,0-1.362,0.609-1.362,1.362    c0,0.753,0.609,1.362,1.362,1.362H71.56l2.959,5.919H66.87c-0.753,0-1.362,0.609-1.362,1.362c0,0.753,0.609,1.362,1.362,1.362    h10.218l3.249,1.651v5.71H63.68c-0.753,0-1.362,0.609-1.362,1.362c0,0.753,0.609,1.362,1.362,1.362h18.019    c0.753,0,1.362-0.609,1.362-1.362v-7.907C83.061,52.755,82.773,52.285,82.316,52.052z"></path><path d="M77.85,64.238c-0.753,0-1.362,0.609-1.362,1.362c0,1.502-1.222,2.724-2.724,2.724c-1.502,0-2.724-1.222-2.724-2.724    c0-0.753-0.609-1.362-1.362-1.362s-1.362,0.609-1.362,1.362c0,3.005,2.443,5.448,5.448,5.448c3.005,0,5.448-2.443,5.448-5.448    C79.212,64.847,78.602,64.238,77.85,64.238z"></path><path d="M31.003,64.238c-0.753,0-1.362,0.609-1.362,1.362c0,1.502-1.222,2.724-2.724,2.724c-1.502,0-2.724-1.222-2.724-2.724    c0-0.753-0.609-1.362-1.362-1.362S21.47,64.847,21.47,65.6c0,3.005,2.443,5.448,5.448,5.448s5.448-2.443,5.448-5.448    C32.365,64.847,31.756,64.238,31.003,64.238z"></path><path d="M50.833,34.955c-0.753,0-1.362,0.609-1.362,1.362c0,0.753,0.609,1.362,1.362,1.362h9.195c0.753,0,1.362-0.609,1.362-1.362    c0-0.753-0.609-1.362-1.362-1.362H50.833z"></path><path d="M34.072,36.318h-9.684c-0.753,0-1.362,0.609-1.362,1.362v7.717c0,0.753,0.609,1.362,1.362,1.362h9.874    c0.745,0,1.351-0.599,1.362-1.342c0.121-8.552,0.082-8.569-0.934-8.996C34.492,36.338,34.282,36.301,34.072,36.318z     M32.916,44.035H25.75v-4.993h7.158C32.933,40.196,32.934,42.108,32.916,44.035z"></path></g></g><g><g><path d="M20.483,51.202l37.361,0.032c0.743,0,1.35-0.596,1.362-1.339l0.118-7.263c0.009-0.583-0.352-1.107-0.9-1.303l-6.793-2.449    l-7.737-8.964c-0.259-0.299-0.635-0.472-1.031-0.472H26.52c-0.612,0-1.149,0.408-1.313,0.999l-2.08,7.52    c-0.111,0.185-0.187,0.389-0.199,0.618l-3.721,10.818c-0.142,0.414-0.077,0.871,0.176,1.229    C19.636,50.984,20.046,51.198,20.483,51.202z M25.315,40.01h18.368c0.752,0,1.362-0.609,1.362-1.362    c0-0.753-0.61-1.362-1.362-1.362H26.138l1.418-5.119h14.684l7.516,8.708c0.178,0.206,0.404,0.346,0.647,0.418    c0.088,0.057,0.185,0.106,0.289,0.144l5.893,2.124l-0.08,4.95H23.966l-1.568-0.015L25.315,40.01z"></path><path d="M51.035,53.958c0,1.502-1.222,2.724-2.724,2.724s-2.724-1.222-2.724-2.724c0-0.753-0.61-1.362-1.362-1.362    c-0.752,0-1.362,0.609-1.362,1.362c0,3.005,2.444,5.448,5.448,5.448s5.448-2.443,5.448-5.448c0-0.753-0.61-1.362-1.362-1.362    C51.645,52.596,51.035,53.205,51.035,53.958z"></path><path d="M31.968,53.958c0,1.502-1.222,2.724-2.724,2.724c-1.502,0-2.724-1.222-2.724-2.724c0-0.753-0.61-1.362-1.362-1.362    c-0.752,0-1.362,0.609-1.362,1.362c0,3.005,2.444,5.448,5.448,5.448s5.448-2.443,5.448-5.448c0-0.753-0.61-1.362-1.362-1.362    S31.968,53.205,31.968,53.958z"></path><path d="M81.106,51.601L77.02,43.43c-0.231-0.462-0.702-0.753-1.218-0.753H65.77c-0.752,0-1.362,0.609-1.362,1.362v8.91    c0,0.753,0.61,1.362,1.362,1.362c0.752,0,1.362-0.609,1.362-1.362v-7.548h7.828l2.96,5.92h-7.65c-0.752,0-1.362,0.609-1.362,1.362    c0,0.753,0.61,1.362,1.362,1.362h8.256v7.7H18.089c-0.752,0-1.362,0.609-1.362,1.362c0,0.753,0.61,1.362,1.362,1.362h61.799    c0.752,0,1.362-0.609,1.362-1.362V52.211C81.249,51.999,81.2,51.79,81.106,51.601z"></path><path d="M78.525,65.83c-0.752,0-1.362,0.609-1.362,1.362c0,1.502-1.222,2.724-2.724,2.724c-1.502,0-2.724-1.222-2.724-2.724    c0-0.753-0.61-1.362-1.362-1.362c-0.752,0-1.362,0.609-1.362,1.362c0,3.005,2.444,5.448,5.448,5.448    c3.004,0,5.448-2.443,5.448-5.448C79.887,66.439,79.277,65.83,78.525,65.83z"></path><path d="M47.2,65.83c-0.752,0-1.362,0.609-1.362,1.362c0,1.502-1.222,2.724-2.724,2.724c-1.502,0-2.724-1.222-2.724-2.724    c0-0.753-0.61-1.362-1.362-1.362s-1.362,0.609-1.362,1.362c0,3.005,2.444,5.448,5.448,5.448s5.448-2.443,5.448-5.448    C48.562,66.439,47.952,65.83,47.2,65.83z"></path><path d="M34.402,65.83c-0.752,0-1.362,0.609-1.362,1.362c0,1.502-1.222,2.724-2.724,2.724s-2.724-1.222-2.724-2.724    c0-0.753-0.61-1.362-1.362-1.362c-0.752,0-1.362,0.609-1.362,1.362c0,3.005,2.444,5.448,5.448,5.448s5.448-2.443,5.448-5.448    C35.764,66.439,35.154,65.83,34.402,65.83z"></path></g></g><g display="none"><g display="inline"><path d="M29.154,62.651c-0.752,0-1.362,0.609-1.362,1.362c0,1.502-1.222,2.724-2.724,2.724s-2.724-1.222-2.724-2.724    c0-0.753-0.61-1.362-1.362-1.362c-0.752,0-1.362,0.609-1.362,1.362c0,3.005,2.444,5.448,5.448,5.448s5.448-2.443,5.448-5.448    C30.516,63.261,29.906,62.651,29.154,62.651z"></path><path d="M93.048,51.342c-0.035-0.439-0.282-0.834-0.661-1.06l-15.891-9.458c-0.646-0.386-1.482-0.17-1.867,0.473    c-0.384,0.646-0.172,1.483,0.474,1.867l15.286,9.099l0.522,6.449H54.26l-5.537-0.024c-0.157-0.063-0.326-0.102-0.506-0.102h-0.025    l-0.815-4.699h12.831c0.752,0,1.362-0.609,1.362-1.362c0-0.753-0.61-1.362-1.362-1.362H47.198l2.143-5.397l9.15-4.245    l12.428-0.029v8.845c0,0.753,0.61,1.362,1.362,1.362s1.362-0.609,1.362-1.362V40.126c0-0.362-0.144-0.709-0.4-0.964    c-0.255-0.254-0.601-0.398-0.962-0.398c-0.001,0-0.002,0-0.003,0l-14.092,0.035c-0.197,0-0.391,0.044-0.57,0.126l-9.913,4.599    c-0.316,0.146-0.564,0.41-0.692,0.733l-2.689,6.771c-0.093,0.234-0.119,0.488-0.076,0.736l1.183,6.823h-4.016V35.412    c0-0.753-0.61-1.362-1.362-1.362H7.362C6.61,34.05,6,34.66,6,35.412v24.515c0,0.753,0.61,1.362,1.362,1.362h32.517    c0.037,0.003,0.068,0.021,0.105,0.021h6.586c0.152,0.059,0.315,0.094,0.486,0.094l45.332,0.032c0.38,0,0.743-0.16,1.001-0.439    c0.258-0.279,0.387-0.654,0.356-1.033L93.048,51.342z M8.724,36.774h29.964v21.791h-17.31V45.374c0-0.753-0.61-1.362-1.362-1.362    h-6c-0.752,0-1.362,0.609-1.362,1.362v13.191h-3.93V36.774z M18.654,58.566h-3.276V46.736h3.276V58.566z"></path><path d="M86.94,62.799c-0.752,0-1.362,0.609-1.362,1.362c0,1.502-1.222,2.724-2.724,2.724c-1.502,0-2.724-1.222-2.724-2.724    c0-0.753-0.61-1.362-1.362-1.362c-0.752,0-1.362,0.609-1.362,1.362c0,3.005,2.444,5.448,5.448,5.448    c3.004,0,5.448-2.443,5.448-5.448C88.302,63.408,87.693,62.799,86.94,62.799z"></path><path d="M61.063,62.799c-0.752,0-1.362,0.609-1.362,1.362c0,1.502-1.222,2.724-2.724,2.724c-1.502,0-2.724-1.222-2.724-2.724    c0-0.753-0.61-1.362-1.362-1.362s-1.362,0.609-1.362,1.362c0,3.005,2.444,5.448,5.448,5.448s5.448-2.443,5.448-5.448    C62.425,63.408,61.815,62.799,61.063,62.799z"></path><path d="M29.712,48.917h6.06c0.752,0,1.362-0.609,1.362-1.362c0-0.753-0.61-1.362-1.362-1.362h-4.698v-5.304    c0-0.753-0.61-1.362-1.362-1.362c-0.752,0-1.362,0.609-1.362,1.362v6.666C28.35,48.308,28.96,48.917,29.712,48.917z"></path></g></g><g display="none"><g display="inline"><path d="M86.095,54.764l-3.255-3.034l-0.04-21.194c-0.001-0.384-0.164-0.75-0.449-1.008l-4.073-3.68    c-0.25-0.226-0.576-0.351-0.913-0.351H17.44c-0.514,0-0.985,0.29-1.216,0.749l-2.927,5.81c-0.096,0.19-0.146,0.4-0.146,0.613    v35.431c0,0.753,0.61,1.362,1.362,1.362h4.085c0.752,0,1.362-0.609,1.362-1.362c0-0.753-0.61-1.362-1.362-1.362h-2.723V32.992    l2.404-4.771h58.563l3.237,2.925l0.029,15.391H19.279c-0.752,0-1.362,0.609-1.362,1.362s0.61,1.362,1.362,1.362h5.444v10.894    c0,0.753,0.61,1.362,1.362,1.362c0.752,0,1.362-0.609,1.362-1.362V49.261h44.267v9.788c0,0.572,0.358,1.083,0.895,1.279    l5.961,2.176c0.154,0.056,0.312,0.082,0.467,0.082c0.556,0,1.078-0.343,1.279-0.895c0.258-0.706-0.106-1.488-0.813-1.746    l-5.065-1.849v-8.835h5.675l0.006,3.066c0.001,0.376,0.158,0.737,0.433,0.994l3.253,3.032v11.747c0,0.753,0.61,1.362,1.362,1.362    c0.752,0,1.362-0.609,1.362-1.362V55.76C86.528,55.383,86.371,55.022,86.095,54.764z"></path><path d="M35.619,51.302c-0.752,0-1.362,0.609-1.362,1.362v6.356c0,0.753,0.61,1.362,1.362,1.362c0.752,0,1.362-0.609,1.362-1.362    v-6.356C36.981,51.911,36.371,51.302,35.619,51.302z"></path><path d="M56.05,41.456V35.1c0-0.753-0.61-1.362-1.362-1.362s-1.362,0.609-1.362,1.362v6.356c0,0.753,0.61,1.362,1.362,1.362    S56.05,42.209,56.05,41.456z"></path><path d="M65.13,41.456V35.1c0-0.753-0.61-1.362-1.362-1.362s-1.362,0.609-1.362,1.362v6.356c0,0.753,0.61,1.362,1.362,1.362    S65.13,42.209,65.13,41.456z"></path><path d="M74.437,41.456V35.1c0-0.753-0.61-1.362-1.362-1.362s-1.362,0.609-1.362,1.362v6.356c0,0.753,0.61,1.362,1.362,1.362    S74.437,42.209,74.437,41.456z"></path><path d="M46.516,41.456V35.1c0-0.753-0.61-1.362-1.362-1.362c-0.752,0-1.362,0.609-1.362,1.362v6.356    c0,0.753,0.61,1.362,1.362,1.362C45.906,42.818,46.516,42.209,46.516,41.456z"></path><path d="M56.05,59.048v-6.356c0-0.753-0.61-1.362-1.362-1.362s-1.362,0.609-1.362,1.362v6.356c0,0.753,0.61,1.362,1.362,1.362    S56.05,59.801,56.05,59.048z"></path><path d="M65.13,59.048v-6.356c0-0.753-0.61-1.362-1.362-1.362s-1.362,0.609-1.362,1.362v6.356c0,0.753,0.61,1.362,1.362,1.362    S65.13,59.801,65.13,59.048z"></path><path d="M46.516,59.048v-6.356c0-0.753-0.61-1.362-1.362-1.362c-0.752,0-1.362,0.609-1.362,1.362v6.356    c0,0.753,0.61,1.362,1.362,1.362C45.906,60.41,46.516,59.801,46.516,59.048z"></path><path d="M36.981,41.456V35.1c0-0.753-0.61-1.362-1.362-1.362c-0.752,0-1.362,0.609-1.362,1.362v6.356    c0,0.753,0.61,1.362,1.362,1.362C36.371,42.818,36.981,42.209,36.981,41.456z"></path><path d="M27.447,41.456V35.1c0-0.753-0.61-1.362-1.362-1.362c-0.752,0-1.362,0.609-1.362,1.362v6.356    c0,0.753,0.61,1.362,1.362,1.362C26.837,42.818,27.447,42.209,27.447,41.456z"></path><path d="M75.881,63.677c-3.566,0-6.467,2.901-6.467,6.467s2.901,6.467,6.467,6.467c3.566,0,6.468-2.901,6.468-6.467    S79.447,63.677,75.881,63.677z M75.881,74.455c-2.377,0-4.311-1.935-4.311-4.312s1.934-4.312,4.311-4.312s4.312,1.935,4.312,4.312    S78.258,74.455,75.881,74.455z"></path><path d="M29.266,63.677c-3.566,0-6.468,2.901-6.468,6.467s2.901,6.467,6.468,6.467c3.566,0,6.467-2.901,6.467-6.467    S32.832,63.677,29.266,63.677z M29.266,74.455c-2.377,0-4.312-1.935-4.312-4.312s1.935-4.312,4.312-4.312s4.311,1.935,4.311,4.312    S31.644,74.455,29.266,74.455z"></path><path d="M65.018,67.305H40.162c-0.752,0-1.362,0.609-1.362,1.362c0,0.753,0.61,1.362,1.362,1.362h24.856    c0.752,0,1.362-0.609,1.362-1.362C66.379,67.914,65.77,67.305,65.018,67.305z"></path></g></g></svg>