<svg height='100px' width='100px'  fill="#000000" xmlns="http://www.w3.org/2000/svg" xmlns:xlink="http://www.w3.org/1999/xlink" version="1.1" x="0px" y="0px" viewBox="0 0 512 512" enable-background="new 0 0 512 512" xml:space="preserve"><g><path d="M187.843,310.229c2.985,0,5.853-0.561,8.741-1.009L94.681,118.335C70.914,144.092,69.844,194.5,94.696,241.03   C117.452,283.661,155.083,310.229,187.843,310.229z"></path><path d="M235.296,208.997c-2.688-4.088-5.249-8.338-7.403-13.03c-5.609-12.207-9.046-26.028-10.363-40.675   c-22.89-33.641-55.265-53.97-83.915-53.968c-2.995,0-5.871,0.561-8.769,1.012l101.91,190.889c0.059-0.065,0.101-0.148,0.16-0.214   c-0.637-1.511-1.433-2.993-1.995-4.518c-8.362-22.686-7.972-45.083,1.112-64.725C228.496,218.419,231.731,213.584,235.296,208.997z   "></path><path d="M318.364,173.504c15.811,0,32.136,2.751,48.233,7.605c9.146-11.726,17.144-25.479,22.941-41.16   c17.94-48.366,10.354-97.161-15.936-119.136l-56.565,152.765C317.49,173.573,317.911,173.504,318.364,173.504z"></path><path d="M278.322,179.777L341.596,8.894c-0.242-0.002-0.479-0.061-0.721-0.061c-34.078,0.003-71.203,32.125-88.978,80.152   c-14.269,38.466-12.41,77.233,2.165,102.557C261.283,186.66,269.404,182.715,278.322,179.777z"></path><path d="M318.362,198.772c-24.603,0-46.007,7.417-59.461,21.321l157.449,72.592c13.791,0.969,26.599,3.576,38.081,7.82   c-2.404-32.232-30.678-67.453-73.841-87.351C359.522,203.432,337.955,198.772,318.362,198.772z"></path><path d="M349.182,300.998c0.748-0.241,1.502-0.402,2.252-0.633L244.59,251.102c-2.64,27.443,15.369,58.562,46.691,81.217   C307.696,318.986,327.283,308.033,349.182,300.998z"></path><path d="M159.244,334.809c-22.255,0-47.35,6.795-71.047,20.652c-44.668,26.038-69.855,68.628-63.467,102.39l183.844-107.289   C196.269,340.154,178.886,334.809,159.244,334.809z"></path><path d="M41.886,487.411c12.288,10.411,29.667,15.756,49.316,15.756c22.263,0,47.383-6.802,71.121-20.675   c44.708-26.062,69.888-68.664,63.45-102.405L41.886,487.411z"></path><path d="M281.99,445.658c14.205,18.855,41.131,29.649,72.708,29.649c15.287,0,31.615-2.498,48.003-7.769   c50.266-16.126,84.71-53.102,85.551-88.125L281.99,445.658z"></path><path d="M404.881,317.291c-15.275,0-31.592,2.495-47.963,7.761c-50.24,16.143-84.661,53.105-85.518,88.13l206.221-66.25   C463.385,328.081,436.45,317.29,404.881,317.291z"></path></g></svg>