<svg height='100px' width='100px'  fill="#000000" xmlns:dc="http://purl.org/dc/elements/1.1/" xmlns:cc="http://creativecommons.org/ns#" xmlns:rdf="http://www.w3.org/1999/02/22-rdf-syntax-ns#" xmlns:svg="http://www.w3.org/2000/svg" xmlns="http://www.w3.org/2000/svg" xmlns:sodipodi="http://sodipodi.sourceforge.net/DTD/sodipodi-0.dtd" xmlns:inkscape="http://www.inkscape.org/namespaces/inkscape" viewBox="0 0 13.229166 13.229167" version="1.1" x="0px" y="0px"><g transform="translate(0,-283.77082)"><path style="color:#000000;font-style:normal;font-variant:normal;font-weight:normal;font-stretch:normal;font-size:medium;line-height:normal;font-family:sans-serif;font-variant-ligatures:normal;font-variant-position:normal;font-variant-caps:normal;font-variant-numeric:normal;font-variant-alternates:normal;font-feature-settings:normal;text-indent:0;text-align:start;text-decoration:none;text-decoration-line:none;text-decoration-style:solid;text-decoration-color:#000000;letter-spacing:normal;word-spacing:normal;text-transform:none;writing-mode:lr-tb;direction:ltr;text-orientation:mixed;dominant-baseline:auto;baseline-shift:baseline;text-anchor:start;white-space:normal;shape-padding:0;clip-rule:nonzero;display:inline;overflow:visible;visibility:visible;opacity:1;isolation:auto;mix-blend-mode:normal;color-interpolation:sRGB;color-interpolation-filters:linearRGB;solid-color:#000000;solid-opacity:1;vector-effect:none;fill:#000000;fill-opacity:1;fill-rule:nonzero;stroke:none;stroke-width:0.26458332px;stroke-linecap:round;stroke-linejoin:round;stroke-miterlimit:4;stroke-dasharray:none;stroke-dashoffset:0;stroke-opacity:1;color-rendering:auto;image-rendering:auto;shape-rendering:auto;text-rendering:auto;enable-background:accumulate" d="m 8.5976562,289.19531 a 0.13230489,0.13230489 0 0 0 -0.1308593,0.13281 v 1.19141 H 3.3066406 1.984375 a 0.13230489,0.13230489 0 0 0 -0.09375,0.22461 l 1.2285156,1.23047 -1.2285156,1.22851 a 0.13230489,0.13230489 0 0 0 0.09375,0.22657 h 1.3222656 5.1601563 v 1.18945 a 0.13230489,0.13230489 0 0 0 0.2265625,0.0937 l 2.6445316,-2.64453 a 0.13230489,0.13230489 0 0 0 0,-0.1875 l -2.6445316,-2.64648 a 0.13230489,0.13230489 0 0 0 -0.095703,-0.0391 z m 0.1328126,0.45117 2.3281252,2.32813 -2.3281252,2.32617 v -1.0039 A 0.13230489,0.13230489 0 0 0 8.5996094,293.16406 H 3.3066406 2.3046875 l 1.0957031,-1.0957 a 0.13230489,0.13230489 0 0 0 0,-0.1875 L 2.3046875,290.7832 h 1.0019531 5.2929688 a 0.13230489,0.13230489 0 0 0 0.1308594,-0.13281 z"></path><path style="color:#000000;font-style:normal;font-variant:normal;font-weight:normal;font-stretch:normal;font-size:medium;line-height:normal;font-family:sans-serif;font-variant-ligatures:normal;font-variant-position:normal;font-variant-caps:normal;font-variant-numeric:normal;font-variant-alternates:normal;font-feature-settings:normal;text-indent:0;text-align:start;text-decoration:none;text-decoration-line:none;text-decoration-style:solid;text-decoration-color:#000000;letter-spacing:normal;word-spacing:normal;text-transform:none;writing-mode:lr-tb;direction:ltr;text-orientation:mixed;dominant-baseline:auto;baseline-shift:baseline;text-anchor:start;white-space:normal;shape-padding:0;clip-rule:nonzero;display:inline;overflow:visible;visibility:visible;opacity:1;isolation:auto;mix-blend-mode:normal;color-interpolation:sRGB;color-interpolation-filters:linearRGB;solid-color:#000000;solid-opacity:1;vector-effect:none;fill:#000000;fill-opacity:1;fill-rule:nonzero;stroke:none;stroke-width:0.26458332px;stroke-linecap:round;stroke-linejoin:round;stroke-miterlimit:4;stroke-dasharray:none;stroke-dashoffset:0;stroke-opacity:1;color-rendering:auto;image-rendering:auto;shape-rendering:auto;text-rendering:auto;enable-background:accumulate" d="m 5.2128906,286.02148 a 0.13230489,0.13230489 0 0 0 -0.089844,0.0469 l -1.3222657,1.58789 a 0.13241278,0.13241278 0 1 0 0.203125,0.16992 l 1.2832032,-1.54101 h 4.9472656 l -1.1425781,1.37109 a 0.13241278,0.13241278 0 1 0 0.203125,0.16992 l 1.3242191,-1.58789 a 0.13230489,0.13230489 0 0 0 -0.101563,-0.2168 H 5.2246094 a 0.13230489,0.13230489 0 0 0 -0.011719,0 z"></path><path style="color:#000000;font-style:normal;font-variant:normal;font-weight:normal;font-stretch:normal;font-size:medium;line-height:normal;font-family:sans-serif;font-variant-ligatures:normal;font-variant-position:normal;font-variant-caps:normal;font-variant-numeric:normal;font-variant-alternates:normal;font-feature-settings:normal;text-indent:0;text-align:start;text-decoration:none;text-decoration-line:none;text-decoration-style:solid;text-decoration-color:#000000;letter-spacing:normal;word-spacing:normal;text-transform:none;writing-mode:lr-tb;direction:ltr;text-orientation:mixed;dominant-baseline:auto;baseline-shift:baseline;text-anchor:start;white-space:normal;shape-padding:0;clip-rule:nonzero;display:inline;overflow:visible;visibility:visible;opacity:1;isolation:auto;mix-blend-mode:normal;color-interpolation:sRGB;color-interpolation-filters:linearRGB;solid-color:#000000;solid-opacity:1;vector-effect:none;fill:#000000;fill-opacity:1;fill-rule:nonzero;stroke:none;stroke-width:0.26458332px;stroke-linecap:round;stroke-linejoin:round;stroke-miterlimit:4;stroke-dasharray:none;stroke-dashoffset:0;stroke-opacity:1;color-rendering:auto;image-rendering:auto;shape-rendering:auto;text-rendering:auto;enable-background:accumulate" d="m 10.501953,286.01953 a 0.13230489,0.13230489 0 0 0 -0.117187,0.13281 v 2.64649 0.52929 0.48829 l -0.5058598,0.76171 a 0.13230489,0.13230489 0 1 0 0.2187498,0.14649 l 0.529297,-0.79492 a 0.13230489,0.13230489 0 0 0 0.02344,-0.0723 v -0.5293 -0.52929 -2.64649 a 0.13230489,0.13230489 0 0 0 -0.148438,-0.13281 z"></path><path style="color:#000000;font-style:normal;font-variant:normal;font-weight:normal;font-stretch:normal;font-size:medium;line-height:normal;font-family:sans-serif;font-variant-ligatures:normal;font-variant-position:normal;font-variant-caps:normal;font-variant-numeric:normal;font-variant-alternates:normal;font-feature-settings:normal;text-indent:0;text-align:start;text-decoration:none;text-decoration-line:none;text-decoration-style:solid;text-decoration-color:#000000;letter-spacing:normal;word-spacing:normal;text-transform:none;writing-mode:lr-tb;direction:ltr;text-orientation:mixed;dominant-baseline:auto;baseline-shift:baseline;text-anchor:start;white-space:normal;shape-padding:0;clip-rule:nonzero;display:inline;overflow:visible;visibility:visible;opacity:1;isolation:auto;mix-blend-mode:normal;color-interpolation:sRGB;color-interpolation-filters:linearRGB;solid-color:#000000;solid-opacity:1;vector-effect:none;fill:#000000;fill-opacity:1;fill-rule:nonzero;stroke:none;stroke-width:0.26458332px;stroke-linecap:round;stroke-linejoin:round;stroke-miterlimit:4;stroke-dasharray:none;stroke-dashoffset:0;stroke-opacity:1;color-rendering:auto;image-rendering:auto;shape-rendering:auto;text-rendering:auto;enable-background:accumulate" d="m 3.9023438,287.60742 a 0.13230489,0.13230489 0 0 0 -0.1328126,0.13281 v 2.91016 a 0.1328125,0.1328125 0 1 0 0.265625,0 v -2.77734 H 9.0625 v 1.98437 a 0.13230489,0.13230489 0 1 0 0.2636719,0 v -2.11719 a 0.13230489,0.13230489 0 0 0 -0.1328125,-0.13281 z"></path><path style="color:#000000;font-style:normal;font-variant:normal;font-weight:normal;font-stretch:normal;font-size:medium;line-height:normal;font-family:sans-serif;font-variant-ligatures:normal;font-variant-position:normal;font-variant-caps:normal;font-variant-numeric:normal;font-variant-alternates:normal;font-feature-settings:normal;text-indent:0;text-align:start;text-decoration:none;text-decoration-line:none;text-decoration-style:solid;text-decoration-color:#000000;letter-spacing:normal;word-spacing:normal;text-transform:none;writing-mode:lr-tb;direction:ltr;text-orientation:mixed;dominant-baseline:auto;baseline-shift:baseline;text-anchor:start;white-space:normal;shape-padding:0;clip-rule:nonzero;display:inline;overflow:visible;visibility:visible;opacity:1;isolation:auto;mix-blend-mode:normal;color-interpolation:sRGB;color-interpolation-filters:linearRGB;solid-color:#000000;solid-opacity:1;vector-effect:none;fill:#000000;fill-opacity:1;fill-rule:nonzero;stroke:none;stroke-width:0.26458332px;stroke-linecap:round;stroke-linejoin:round;stroke-miterlimit:4;stroke-dasharray:none;stroke-dashoffset:0;stroke-opacity:1;color-rendering:auto;image-rendering:auto;shape-rendering:auto;text-rendering:auto;enable-background:accumulate" d="m 7.328125,286.01953 a 0.13230489,0.13230489 0 0 0 -0.087891,0.0488 l -1.3222656,1.58789 a 0.13230489,0.13230489 0 0 0 -0.03125,0.084 v 1.32227 a 0.13230489,0.13230489 0 0 0 0.25,0.0605 l 0.1464843,-0.29297 0.1464844,0.29297 a 0.13230489,0.13230489 0 0 0 0.2363281,0 l 0.1464844,-0.29297 0.1464844,0.29297 a 0.13230489,0.13230489 0 0 0 0.25,-0.0605 v -1.27344 l 1.2929687,-1.55078 a 0.13241278,0.13241278 0 1 0 -0.203125,-0.16992 l -1.3222656,1.58789 a 0.13230489,0.13230489 0 0 0 -0.03125,0.084 v 0.76172 l -0.013672,-0.0273 a 0.13230489,0.13230489 0 0 0 -0.2363281,0 l -0.1464844,0.29297 -0.1464843,-0.29297 a 0.13230489,0.13230489 0 0 0 -0.2363282,0 l -0.013672,0.0273 v -0.71289 l 1.2910156,-1.55078 A 0.13230489,0.13230489 0 0 0 7.328125,286.01953 Z"></path></g></svg>