<svg height='100px' width='100px'  fill="#000000" xmlns="http://www.w3.org/2000/svg" xmlns:xlink="http://www.w3.org/1999/xlink" version="1.1" x="0px" y="0px" viewBox="0 0 65 65" enable-background="new 0 0 65 65" xml:space="preserve"><g><path d="M40.5,35.5c-0.2,0.8,0.2,1.6,0.9,2.1c0.2,0.8,0.8,1.4,1.7,1.6l0.3-1.5c-0.3-0.1-0.5-0.3-0.5-0.6c0-0.3-0.2-0.6-0.5-0.7   c-0.3-0.1-0.4-0.4-0.4-0.7c0-0.1,0.1-0.2,0.1-0.2c0.1-0.2,0.2-0.4,0.1-0.6c-0.1-0.2-0.2-0.4-0.4-0.5c-0.5-0.3-0.8-0.8-0.7-1.4   c0.1-0.4,0.4-0.8,0.8-1c0.2-0.1,0.3-0.2,0.4-0.4s0.1-0.4,0-0.6c0,0,0-0.1,0-0.2c0-0.2,0.3-0.4,0.5-0.3c0.1,0,0.2,0.1,0.2,0.2   c0.2,0.3,0.6,0.4,0.9,0.3c0.1,0,0.2-0.1,0.3,0c0.2,0,0.3,0.1,0.4,0.3c0.1,0.1,0.1,0.3,0.1,0.5c0,0.1,0,0.1-0.1,0.2   c-0.2,0.4-0.1,0.8,0.3,1c0.4,0.2,0.7,0.7,0.6,1.2l1.5,0.3c0.2-0.9-0.2-1.8-0.8-2.5c0.1-0.5,0-1.1-0.3-1.5c-0.3-0.5-0.8-0.8-1.4-0.9   c-0.2,0-0.4,0-0.6,0C43.6,29.2,43.3,29,43,29c-1-0.2-2,0.5-2.2,1.5c0,0.1,0,0.3,0,0.4c-0.6,0.4-1,1-1.1,1.8c-0.2,1,0.2,2,0.9,2.6   C40.5,35.4,40.5,35.4,40.5,35.5z"></path><path d="M62.1,57.4H2.9c-0.4,0-0.8,0.3-0.8,0.8v5.9c0,0.4,0.3,0.8,0.8,0.8h59.2c0.4,0,0.8-0.3,0.8-0.8v-5.9   C62.9,57.8,62.5,57.4,62.1,57.4z"></path><path d="M12.5,27.4h16.9v28.6h30.4V22.2c-1,1.3-2.5,2.2-4.3,2.2c-2,0-3.7-1-4.6-2.6c-0.9,1.6-2.6,2.6-4.6,2.6c-2,0-3.7-1-4.6-2.6   c-0.9,1.6-2.6,2.6-4.6,2.6c-2,0-3.7-1-4.6-2.6c-0.9,1.6-2.6,2.6-4.6,2.6c-2,0-3.7-1-4.6-2.6c-0.9,1.6-2.6,2.6-4.6,2.6   s-3.7-1-4.6-2.6c-0.9,1.6-2.6,2.6-4.6,2.6c-1.8,0-3.3-0.9-4.3-2.2v33.7h7.3V27.4z M32.5,27h23.4v25.9H32.5V27z"></path><rect x="16.2" y="31.1" width="9.4" height="2.9"></rect><circle cx="24.1" cy="42.5" r="1.5"></circle><path d="M54.6,0.1L54.6,0.1L54.6,0.1C54.6,0.1,54.6,0.1,54.6,0.1z"></path><polygon points="49.9,16.2 46.2,1.4 40.5,1.4 42.3,16.2  "></polygon><path d="M42.4,19c0,2.1,1.7,3.8,3.8,3.8s3.8-1.7,3.8-3.8v-1.3h-7.7V19z"></path><polygon points="39,1.4 33.2,1.4 33.2,16.2 40.8,16.2  "></polygon><path d="M37.1,22.9c2.1,0,3.8-1.7,3.8-3.8v-1.3h-7.7V19C33.2,21.1,35,22.9,37.1,22.9z"></path><path d="M51.6,19c0,2.1,1.7,3.8,3.8,3.8s3.8-1.7,3.8-3.8v-1.3h-7.7V19z"></path><polygon points="59,16.2 53.4,1.4 47.8,1.4 51.5,16.2  "></polygon><polygon points="31.7,16.2 31.7,1.4 26,1.4 24.2,16.2  "></polygon><path d="M14.9,19c0,2.1,1.7,3.8,3.8,3.8s3.8-1.7,3.8-3.8v-1.3h-7.7V19z"></path><polygon points="17.2,1.4 11.6,1.4 6,16.2 13.5,16.2  "></polygon><path d="M9.5,22.9c2.1,0,3.8-1.7,3.8-3.8v-1.3H5.7V19C5.7,21.1,7.4,22.9,9.5,22.9z"></path><path d="M24.1,19c0,2.1,1.7,3.8,3.8,3.8s3.8-1.7,3.8-3.8v-1.3h-7.7V19z"></path><polygon points="22.6,16.2 24.5,1.4 18.8,1.4 15.1,16.2  "></polygon><path d="M36.5,47.7c-0.3,0.3-0.3,0.8,0,1.1l2,2c0.2,0.1,0.3,0.2,0.5,0.2s0.4-0.1,0.5-0.2c0.8-0.8,1.8-1.8,2.9-2.9l-3.1-3.1   C38.3,45.9,37.2,47,36.5,47.7z"></path><path d="M49.8,35.4c-0.1-0.1-0.3-0.2-0.5-0.2s-0.4,0.1-0.5,0.2c-1.9,1.9-5.3,5.3-8.3,8.3l3.1,3.1c3-3,6.4-6.4,8.3-8.3   c0.3-0.3,0.3-0.8,0-1.1L49.8,35.4z"></path></g></svg>