<svg height='100px' width='100px'  fill="#000000" xmlns="http://www.w3.org/2000/svg" data-name="Layer 1" viewBox="0 0 128 128" x="0px" y="0px"><title>heavy and power industry final</title><path d="M37.50641,47.988c-5.3623,1.16913-22.48676,6.09717-23.50256,21.50745C14.002,69.53943,14,69.58429,14,69.62817v38.26477a1.98348,1.98348,0,1,0,3.96686,0V69.69647c.65814-9.40338,9.33539-14.161,15.52545-16.37421l3.67053,25.88239a1.98742,1.98742,0,0,0,1.96307,1.71509H50.51624l4.01019-3.996H40.84589L37.33234,52.14886c.84668-.21515,1.51654-.35754,1.92316-.43677A27.94538,27.94538,0,0,1,37.50641,47.988Z"></path><path d="M75.3233,0h-23.801A11.95759,11.95759,0,0,0,39.62177,11.9881V37.96234a23.80167,23.80167,0,1,0,47.60205,0V11.9881A11.95759,11.95759,0,0,0,75.3233,0ZM83.257,37.96234a19.83473,19.83473,0,1,1-39.6684,0V11.9881A7.97214,7.97214,0,0,1,51.52228,3.996h23.801A7.97219,7.97219,0,0,1,83.257,11.9881Z"></path><path d="M73.3399,12.98712H53.50568a5.97881,5.97881,0,0,0-5.95026,5.994v3.996a5.97882,5.97882,0,0,0,5.95026,5.99408H73.3399a5.97882,5.97882,0,0,0,5.95026-5.99408v-3.996A5.97881,5.97881,0,0,0,73.3399,12.98712Zm1.9834,9.99005a1.99337,1.99337,0,0,1-1.9834,1.998H53.50568a1.99337,1.99337,0,0,1-1.9834-1.998v-3.996a1.99332,1.99332,0,0,1,1.9834-1.998H73.3399a1.99332,1.99332,0,0,1,1.9834,1.998Z"></path><path d="M110.41571,78.04468l2.03571,4.86609V69.62817c0-.04388-.001-.08777-.00385-.13171-.99219-15.0899-17.4408-20.13257-23.139-21.43024a27.93911,27.93911,0,0,1-1.75793,3.71484c.471.09692,1.13947.24634,1.94958.459l-.9668,6.81744A12.00558,12.00558,0,0,1,91.947,61.4303l.22467.22363,1.164-8.20795c6.15112,2.25848,14.5036,7.00562,15.14886,16.25049v4.32166A12.42588,12.42588,0,0,1,110.41571,78.04468Z"></path><path d="M108.48456,98.89941V108.892a1.98348,1.98348,0,1,0,3.96686,0v-8.30853Z"></path><path d="M77.84711,64.27216l-5.59576,5.57166c-2.44635,2.43506-5.72656,4.33844-10.32581,5.99109a4.96441,4.96441,0,0,0-1.83038,1.161l-27.3717,27.27454a1.9747,1.9747,0,0,0-.3739.286,9.16523,9.16523,0,0,0-.681.76514l-7.25269,7.22693a9.08352,9.08352,0,0,0-.00092,12.85638,8.95723,8.95723,0,0,0,12.61133-.001l35.79651-35.6687a4.95491,4.95491,0,0,0,1.17474-1.8371c1.657-4.56964,3.56781-7.83105,6.01221-10.26422l3.49231-3.478,6.72,6.69012c-.00537.09283-.01807.18378-.02045.2774a8.39721,8.39721,0,0,0,6.35455,8.3761L114,96.90387l-7.35016-17.5722a8.35787,8.35787,0,0,0-8.103-6.404q-.10574,0-.21191.00269c-.15082.00385-.29791.02148-.44659.03326l-8.73047-8.69049A8.03087,8.03087,0,0,0,77.84711,64.27216Zm-43.61,58.28986a5.02236,5.02236,0,0,1-7.033-7.17157l2.65027-2.64087a8.98733,8.98733,0,0,0,2.4942,4.66327,8.87826,8.87826,0,0,0,4.61212,2.4353Zm64.19781-45.6369.11194-.0014a4.37391,4.37391,0,0,1,4.25037,3.36,4.02631,4.02631,0,0,0,.197.59955l3.56659,8.52661L98.0965,85.81708a3.963,3.963,0,0,0-.59515-.19849,4.41492,4.41492,0,0,1,.93353-8.69348ZM93.74768,74.46a8.41281,8.41281,0,0,0-2.11774,2.16943L85.60455,70.6311a2.99415,2.99415,0,0,0-4.207.002l-4.177,4.158c-2.87537,2.8634-5.08344,6.5921-6.94971,11.73645a.97723.97723,0,0,1-.23437.36389L42.54419,114.28479a1.98225,1.98225,0,0,0-.37341.28516,5.00853,5.00853,0,0,1-7.43555-6.684L62.88336,79.83777a1.02032,1.02032,0,0,1,.37769-.24c5.16193-1.85559,8.90509-4.05164,11.7785-6.91107l5.59674-5.57263a4.07095,4.07095,0,0,1,5.73236.001Z"></path></svg>