<svg height='100px' width='100px'  fill="#000000" xmlns="http://www.w3.org/2000/svg" viewBox="0 0 64 64" x="0px" y="0px"><title>Camera-photo-travel-photography</title><g><path d="M32,46A10,10,0,1,0,22,36,10.011,10.011,0,0,0,32,46ZM28,30a2.975,2.975,0,0,1,1.634.49A6,6,0,1,1,26,36a5.937,5.937,0,0,1,.047-.742A2.987,2.987,0,0,1,28,30Z"></path><rect x="8" y="14" width="6" height="2"></rect><path d="M32,50A14,14,0,1,0,18,36,14.015,14.015,0,0,0,32,50Zm0-26A12,12,0,1,1,20,36,12.013,12.013,0,0,1,32,24Z"></path><circle cx="28" cy="33" r="1"></circle><rect x="52" y="14" width="4" height="2"></rect><path d="M40.918,22.723l-.883-7.367L36.465,10h-8.93l-3.57,5.356-.883,7.367a15.965,15.965,0,0,1,17.836,0ZM29,12h6v2H29Zm-2,4H37v2H27Z"></path><path d="M32,40a4,4,0,1,0-1.132-7.832A2.958,2.958,0,0,1,28,36,4,4,0,0,0,32,40Z"></path><path d="M21.633,18H4v6H20.914ZM12,22H6V20h6Zm4,0H14V20h2Z"></path><path d="M32,52a15.9,15.9,0,0,1-9.292-3H13.816a2.982,2.982,0,0,1-5.632,0H4v5H60V49H41.292A15.9,15.9,0,0,1,32,52Z"></path><circle cx="11" cy="48" r="1"></circle><path d="M48,36a15.926,15.926,0,0,1-4.411,11H60V26H44.47A15.916,15.916,0,0,1,48,36Zm1-8h2v2H49Zm0,15h2v2H49Z"></path><polygon points="57 18 51 18 42.367 18 43.086 24 60 24 60 18 57 18"></polygon><path d="M10,45.184V42h2v3.184A3,3,0,0,1,13.816,47h6.6a15.925,15.925,0,0,1-.881-21H4V47H8.184A3,3,0,0,1,10,45.184Z"></path></g></svg>