<svg height='100px' width='100px'  fill="#000000" xmlns="http://www.w3.org/2000/svg" xmlns:xlink="http://www.w3.org/1999/xlink" version="1.1" x="0px" y="0px" viewBox="0 0 100 100" enable-background="new 0 0 100 100" xml:space="preserve"><path d="M88.3,51l0.5-22.2c0,0,0,0,0,0c0-0.1,0-0.3-0.1-0.4c0,0,0,0,0,0c0-0.1-0.1-0.3-0.2-0.4c0,0,0-0.1-0.1-0.1s0-0.1-0.1-0.1  c-3.6-4.2-13.3-3-18.8-1.9c-8.6,1.7-14.8,6-15,6.2c-0.1,0.1-0.2,0.2-0.3,0.3C54,32.8,49.1,38,39.7,43.1c-0.7,0.4-2.6,1.1-4.9,2  c-1.6,0.6-3.3,1.2-4.9,1.9c-0.4,0.2-0.8,0.3-1.2,0.5c-10,4-19.1,8.7-20,14.3C8.3,62,8,62.5,8,63v4.6c0,0.3,0.1,0.5,0.2,0.7  c1.3,2.3,8.6,6.4,20.7,6.4c0.6,0,1.1,0,1.7,0c10.7-0.3,23.4-4.1,31.1-6.7c0.2,0.1,6.3,0.5,6.3,0.5c0,0,0,0,0.1,0c0.1,0,0.2,0,0.3,0  c0.1,0,0.2,0,0.3-0.1c4.1-1.3,17.5-5.7,19.6-8.9c0.2-0.3,0.3-0.6,0.2-0.9l-0.5-7C88.2,51.4,88.3,51.2,88.3,51z M74.9,55.3  c2.4-6.3,8.2-11.1,10.6-12.9l-0.2,7.7c0,0,0,0,0,0.1C82.5,52,78.9,53.7,74.9,55.3z M45,53.8c0.1,0.7,0.8,1.2,1.5,1.2  c0.1,0,0.2,0,0.3,0c0.8-0.2,1.3-1,1.2-1.8c-0.3-1.3-0.9-2.4-1.7-3.3c1.1-0.6,2.2-1.2,3.3-1.8c0.7,0.7,1.2,1.5,1.3,2.4  c0.1,0.7,0.8,1.2,1.5,1.2c0.1,0,0.2,0,0.3,0c0.8-0.2,1.3-1,1.2-1.8c-0.3-1.3-0.9-2.4-1.7-3.3c1.2-0.8,2.4-1.5,3.6-2.4  c0.5,0.6,0.9,1.3,1.1,2c0.1,0.7,0.8,1.2,1.5,1.2c0.1,0,0.2,0,0.3,0c0.8-0.2,1.3-1,1.2-1.8c-0.2-1.2-0.8-2.3-1.6-3.2  c1.9-1.5,3.5-3,4.6-4.6c0.1-0.1,0.1-0.2,0.2-0.4c1.3,0.2,2.7,0.3,4.4,0.3c1.6,0,3.3-0.1,5-0.4c6.6-0.9,10.9-3.2,13.4-5l-0.1,6.5  C85.4,39,85.2,39,85,39.1c-0.5,0.3-11.2,7.3-13.6,17.5c-8.2,2.9-17.8,5.4-26.3,7c0.5-4.6-1.5-8.3-4.4-11c0.8-0.3,1.7-0.8,2.8-1.3  C44.2,52,44.8,52.9,45,53.8z M49.5,40.5c1,0.3,2.5,0.9,3.9,1.7c-1.1,0.8-2.3,1.5-3.5,2.2c-1.2-0.8-2.4-1.4-3.4-1.9  C47.5,41.8,48.6,41.1,49.5,40.5z M70.3,28.9c6.8-1.4,12.2-1.3,14.8,0.1c-1.7,1.6-5.7,4.4-13.1,5.4c-1.6,0.2-3.1,0.3-4.6,0.3  c-4,0-6.9-0.8-8.7-1.5C61,31.9,65.2,29.9,70.3,28.9z M55.8,35.2c0.9,0.4,2.2,1,4,1.5c-1,1.2-2.3,2.4-3.8,3.6c-1.2-0.9-2.5-1.5-3.7-2  C53.9,37,55.1,35.9,55.8,35.2z M43.2,44.6c0.9,0.3,2.3,0.8,3.7,1.5c-1.1,0.6-2.1,1.1-3.1,1.6c-1.1-0.7-2.2-1.3-3.2-1.7  c0.2-0.1,0.4-0.2,0.5-0.3C41.8,45.4,42.5,45,43.2,44.6z M35.9,47.9c0.2-0.1,0.4-0.1,0.6-0.2c0.2,0.1,0.3,0.2,0.5,0.3  c0.8,0.2,2.2,0.7,3.6,1.4c-1.3,0.6-2.3,1-2.6,1.2c-1.2-0.8-2.5-1.5-3.7-2.1C34.8,48.3,35.4,48.1,35.9,47.9z M30,50.1  c1.2,0.4,4,1.4,6.6,3.1c4.3,2.9,6.1,6.5,5.4,10.6c0,0.1,0,0.2,0,0.3c-5,0.8-9.6,1.4-13.2,1.5c-0.7,0-1.3,0-2,0c0,0,0,0,0,0  C17,65.7,12.9,63,11.7,62C12.5,57.7,22.4,53.2,30,50.1z M69.7,65L69.6,64c0-0.5-0.3-0.9-0.7-1.2s-0.9-0.3-1.3-0.1  c-0.2,0.1-21.3,8.5-37,9c-12.2,0.4-18.3-3.5-19.5-4.6v-1.7C13.4,67,18.2,69,26.8,69c0,0,0,0,0,0c0.7,0,1.4-0.2,2.1-0.2  c13.9-0.5,42.5-7,56.5-15.1l0.3,4.5C83.9,59.7,76.6,62.7,69.7,65z"></path></svg>