<?xml version="1.0" encoding="utf-8"?>
<!-- Generator: Adobe Illustrator 24.2.1, SVG Export Plug-In . SVG Version: 6.00 Build 0)  -->
<svg version="1.1" id="Layer_1" xmlns="http://www.w3.org/2000/svg" xmlns:xlink="http://www.w3.org/1999/xlink" x="0px" y="0px"
	 viewBox="0 0 100 100" enable-background="new 0 0 100 100" xml:space="preserve">
<g>
	<path fill-rule="evenodd" clip-rule="evenodd" d="M45.455,44.392l14.168-13.105c0.472-0.472,1.181-0.354,1.417,0.118L75.325,55.49
		l7.674-5.549c0.472-0.236,1.063-0.236,1.299,0.236l12.751,17.355c0.472,0.59,0,1.417-0.708,1.417H3.66
		c-0.945,0-1.299-1.063-0.59-1.653L38.017,40.85c0.354-0.236,0.708-0.236,1.063,0L45.455,44.392z M45.1,44.982l-6.375-3.542
		c-0.118,0-0.118,0-0.236,0L3.542,67.887c-0.118,0.118-0.118,0.354,0.118,0.354h92.68c0.118,0,0.236-0.236,0.118-0.354
		L83.707,50.649c0-0.118-0.118-0.118-0.236-0.118l-7.674,5.549c-0.354,0.236-0.826,0.118-1.063-0.236L60.449,31.877
		c-0.118-0.118-0.236-0.118-0.236-0.118L45.927,44.982C45.691,45.1,45.336,45.218,45.1,44.982z M81.818,58.914
		c0-0.118,0.118-0.354,0.118-0.472l2.125-3.66c0.236-0.472,0.945-0.472,1.299-0.118l5.785,8.383
		c0.472,0.708-0.236,1.535-0.945,1.063l-7.556-4.486h-0.118c0,0.118,0,0.118-0.118,0.236l-1.181,3.306
		c-0.236,0.708-1.181,0.708-1.417,0l-1.063-3.896c0-0.118-0.118-0.118-0.236-0.118l-0.472,0.118
		c-0.826,0.118-1.299-0.945-0.59-1.417l1.063-0.708c0.354-0.236,0.708-0.236,0.945,0l2.007,1.771
		C81.582,58.914,81.7,58.914,81.818,58.914z M42.621,48.524c0,0.118,0,0.118,0.118,0.118l3.896,0.354
		c0.236,0.118,0.354,0.118,0.59,0.354l1.417,1.889c0.118,0.118,0.354,0.118,0.354,0l3.306-9.091c0.236-0.472,0.826-0.59,1.299-0.236
		l0.945,0.945c0.118,0.118,0.236,0.118,0.236,0l4.486-5.903c0.354-0.354,0.945-0.354,1.299,0.118l2.952,4.132
		c0.118,0.118,0.118,0.236,0.118,0.472l-0.118,2.834l3.66,4.723c0.118,0,0.118,0.118,0.118,0.236l2.479,6.848
		c0.118,0.236,0.354,0.118,0.354-0.118c-3.306-13.577,3.07-1.063,5.077,2.715c0.236,0.354,0,0.945-0.472,1.063l-0.472,0.118
		c-0.118,0-0.236,0.118-0.236,0.236l0.945,3.896c0.118,0.472-0.236,0.945-0.826,0.826l-2.952-0.354c-0.354,0-0.59-0.236-0.59-0.59
		l-0.59-3.66l-5.549-10.626c0-0.236-0.236-0.118-0.236,0l-1.063,4.132c-0.118,0.708-1.299,0.708-1.417-0.118L60.213,45.1
		c0-0.236-0.236-0.236-0.354-0.118l-4.486,8.028c0,0,0,0,0,0.118l2.597,6.375c0.236,0.472-0.236,1.063-0.826,1.063l-5.077-0.708
		c-0.236,0-0.354-0.118-0.472-0.354l-7.084-8.619c-0.118-0.118-0.236-0.118-0.354,0c-2.597,5.667-2.125,2.361-3.188-2.125
		c0,0,0-0.118,0-0.236c-0.118,0-0.236-0.118-0.354,0.118l-3.896,9.209c-0.118,0.118-0.118,0.118-0.236,0.236l-6.966,6.021
		c-0.118,0.118-0.236,0.236-0.472,0.236l-12.397,0.354c-0.826,0-1.181-0.945-0.472-1.299l11.452-7.674
		c0.472-0.354,1.181,0.118,1.181,0.708l-0.236,4.959c0,0.118,0.236,0.236,0.236,0.118l10.862-15.348
		c0.354-0.472,0.945-0.472,1.299,0C41.44,46.989,42.031,47.816,42.621,48.524z"/>
</g>
</svg>
