<svg height='100px' width='100px'  fill="#000000" xmlns="http://www.w3.org/2000/svg" xmlns:xlink="http://www.w3.org/1999/xlink" version="1.1" x="0px" y="0px" viewBox="0 0 100 100" enable-background="new 0 0 100 100" xml:space="preserve"><path d="M81.396,57.912v-2.378l13.429-7.753c0.017-0.01,0.027-0.026,0.043-0.038c0.028-0.021,0.055-0.042,0.078-0.069  c0.021-0.023,0.036-0.048,0.052-0.075c0.018-0.027,0.031-0.055,0.043-0.086c0.011-0.031,0.017-0.062,0.021-0.096  c0.003-0.019,0.012-0.036,0.013-0.056c0.001-0.013-0.006-0.023-0.007-0.036c-0.001-0.034-0.008-0.066-0.017-0.099  c-0.009-0.033-0.017-0.064-0.032-0.094c-0.005-0.011-0.005-0.024-0.012-0.035c-0.01-0.017-0.025-0.027-0.037-0.042  c-0.02-0.028-0.041-0.053-0.066-0.077c-0.025-0.021-0.05-0.039-0.077-0.055s-0.054-0.03-0.083-0.041  c-0.034-0.012-0.068-0.019-0.104-0.024c-0.018-0.002-0.033-0.011-0.051-0.012l-12.693-0.355L95.254,29.29  c0.009-0.011,0.011-0.025,0.019-0.037c0.005-0.008,0.015-0.011,0.02-0.02c0.011-0.02,0.013-0.042,0.021-0.062  c0.014-0.032,0.025-0.062,0.032-0.095c0.006-0.032,0.007-0.062,0.007-0.095c0-0.032-0.001-0.062-0.008-0.094  c-0.006-0.032-0.018-0.061-0.029-0.091c-0.012-0.029-0.023-0.057-0.041-0.084c-0.018-0.028-0.041-0.052-0.065-0.076  c-0.015-0.016-0.024-0.035-0.042-0.049c-0.01-0.007-0.021-0.009-0.031-0.015c-0.01-0.007-0.016-0.017-0.025-0.023L64.196,10.703  c-0.02-0.011-0.042-0.012-0.062-0.021c-0.032-0.013-0.062-0.025-0.096-0.032c-0.031-0.006-0.062-0.006-0.094-0.006  c-0.032,0-0.062,0-0.094,0.006c-0.032,0.006-0.062,0.018-0.094,0.031c-0.027,0.012-0.055,0.022-0.08,0.04  c-0.029,0.019-0.053,0.042-0.078,0.067c-0.016,0.015-0.035,0.024-0.049,0.042l-13.587,17.5L36.881,13.118  c-0.012-0.014-0.029-0.021-0.042-0.033c-0.025-0.023-0.049-0.043-0.078-0.061c-0.028-0.017-0.056-0.03-0.085-0.042  c-0.03-0.011-0.06-0.02-0.092-0.025c-0.031-0.005-0.06-0.007-0.091-0.006c-0.034,0-0.065,0.004-0.099,0.012  c-0.031,0.007-0.06,0.017-0.089,0.03c-0.017,0.008-0.036,0.008-0.053,0.018L5.339,30.858c-0.014,0.008-0.022,0.021-0.035,0.031  c-0.013,0.009-0.029,0.012-0.042,0.023c-0.014,0.012-0.021,0.029-0.033,0.042c-0.023,0.025-0.043,0.05-0.061,0.079  c-0.017,0.027-0.029,0.054-0.041,0.083c-0.012,0.031-0.02,0.061-0.025,0.093c-0.005,0.031-0.007,0.061-0.006,0.092  c0,0.033,0.004,0.063,0.011,0.096c0.007,0.032,0.018,0.062,0.031,0.092c0.008,0.017,0.008,0.035,0.018,0.052  c0.006,0.011,0.019,0.016,0.026,0.026c0.011,0.016,0.015,0.035,0.028,0.05l12.893,14.99L4.784,48.62  c-0.01,0.001-0.017,0.008-0.027,0.01c-0.033,0.007-0.063,0.021-0.095,0.035c-0.029,0.013-0.058,0.023-0.083,0.041  c-0.025,0.017-0.045,0.04-0.066,0.062c-0.025,0.024-0.049,0.048-0.068,0.077c-0.005,0.008-0.014,0.013-0.019,0.021  c-0.011,0.02-0.013,0.042-0.021,0.062c-0.013,0.031-0.025,0.062-0.032,0.095c-0.007,0.036-0.006,0.071-0.005,0.106  c0,0.021-0.006,0.04-0.003,0.061c0.001,0.01,0.007,0.017,0.009,0.026c0.006,0.028,0.017,0.054,0.027,0.081  c0.013,0.032,0.026,0.063,0.045,0.091c0.014,0.021,0.031,0.04,0.049,0.059c0.025,0.028,0.052,0.053,0.083,0.074  c0.011,0.008,0.018,0.02,0.03,0.026l13.962,8.062v14.154c0,0.021,0.009,0.039,0.012,0.061c0.004,0.035,0.009,0.068,0.021,0.102  c0.01,0.03,0.025,0.057,0.041,0.084s0.032,0.055,0.053,0.078c0.022,0.027,0.049,0.047,0.076,0.068  c0.017,0.013,0.028,0.03,0.047,0.041l30.913,17.848c0,0.001,0.001,0,0.002,0.001c0.007,0.005,0.016,0.003,0.023,0.007  c0.067,0.035,0.141,0.059,0.222,0.059c0,0,0.001,0.001,0.001,0.001l0,0c0,0,0,0,0,0s0,0,0,0l0,0c0,0,0.001-0.001,0.001-0.001  c0.081,0,0.155-0.023,0.222-0.059c0.008-0.004,0.016-0.002,0.023-0.007c0.001-0.001,0.002,0,0.002-0.001l14.68-8.476  c2.732,5.08,8.098,8.543,14.26,8.543c8.924,0,16.186-7.261,16.186-16.186C95.359,65.758,89.27,59.002,81.396,57.912z M79.174,57.742  c-0.602,0-1.194,0.038-1.779,0.103l3.002-1.733v1.692C79.991,57.773,79.586,57.742,79.174,57.742z M68.375,61.906  c-0.012,0.005-0.023,0.005-0.035,0.012l-4.805,2.774l-11.771-0.329l7.902-4.563h0.001l0.003-0.002L81.023,47.47l11.771,0.329  l-12.148,7.014l-6.432,3.714C72.025,59.233,70.047,60.401,68.375,61.906z M36.393,14.084l12.818,14.903L19.18,46.326L6.362,31.423  L36.393,14.084z M64.074,11.787L94.112,29.13L80.77,46.315L50.73,28.973L64.074,11.787z M49.484,53.628l-8.937,5.159L20.071,46.966  l29.413-16.98V53.628z M49.984,54.494l8.436,4.871l-8.436,4.87l-8.437-4.87L49.984,54.494z M59.42,58.787l-8.936-5.159V29.985  l29.413,16.98L59.42,58.787z M18.973,47.486l21.325,12.312l0.003,0.002h0l8.196,4.731l-12.627,1.91l-16.549-9.555L6.346,49.396  L18.973,47.486z M19.571,58.187l15.95,9.208c0.009,0.006,0.019,0.004,0.028,0.008c0.068,0.035,0.142,0.06,0.222,0.06  c0.025,0,0.05-0.002,0.075-0.006l13.638-2.062v23.352L19.571,71.476V58.187z M50.484,88.746V65.327l13.165,0.369  c0.005,0,0.01,0,0.015,0c0.082,0,0.156-0.024,0.225-0.06c0.008-0.005,0.017-0.003,0.024-0.008l2.266-1.308  c-1.994,2.69-3.188,6.007-3.188,9.605c0,2.407,0.542,4.685,1.489,6.739L50.484,88.746z M79.174,89.112  c-8.373,0-15.185-6.812-15.185-15.186s6.812-15.185,15.185-15.185s15.186,6.812,15.186,15.185S87.547,89.112,79.174,89.112z"></path><path d="M85.594,71.341h-4.541l-1.403-4.318c-0.134-0.412-0.817-0.412-0.951,0l-1.403,4.318h-4.541c-0.217,0-0.408,0.14-0.475,0.346  c-0.067,0.206,0.006,0.432,0.182,0.559l3.673,2.669l-1.403,4.319c-0.066,0.206,0.007,0.432,0.182,0.559  c0.176,0.128,0.412,0.128,0.588,0l3.674-2.669l3.674,2.669c0.088,0.063,0.191,0.096,0.294,0.096c0.007,0,0.013,0,0.021,0  c0.275,0,0.5-0.224,0.5-0.5c0-0.104-0.031-0.199-0.086-0.278l-1.362-4.195l3.674-2.669c0.175-0.127,0.249-0.353,0.182-0.559  S85.811,71.341,85.594,71.341z M81.332,74.319c-0.176,0.127-0.248,0.353-0.182,0.559l1.04,3.2l-2.723-1.978  c-0.176-0.128-0.412-0.128-0.588,0l-2.722,1.978l1.039-3.2c0.066-0.206-0.006-0.432-0.182-0.559l-2.723-1.979h3.365  c0.217,0,0.408-0.14,0.476-0.346l1.04-3.2l1.04,3.2c0.067,0.206,0.259,0.346,0.476,0.346h3.365L81.332,74.319z"></path></svg>