<svg height='100px' width='100px'  fill="#000000" xmlns="http://www.w3.org/2000/svg" xmlns:xlink="http://www.w3.org/1999/xlink" version="1.1" x="0px" y="0px" viewBox="0 0 91 91" style="enable-background:new 0 0 91 91;" xml:space="preserve"><g><path d="M59.7,31.4c-0.8,0.6-0.1,1.8,0.7,1.8c4.3,0.2,9-3.6,12.1-7.3c0.3,2.8,1.5,5.4,4.1,6.9c3.2,1.8,7.8,0.8,10.1-2   c2.2-2.8,1.8-6.8-1-9c-1.3-1.1-2.9-1.7-4.6-2c2.4-2,4.4-4.5,5.7-7.2c1.8-3.7,0.4-8.6-3.5-10.5c-4-1.9-8.5,3-10.1,6.1   c-0.6,1.1-1,2.4-1.3,3.7c-2.6-2.6-7.1-3.9-10.1-1.4c-3.4,2.9-2.6,7.9,0.1,10.9c1.6,1.8,3.8,2.8,6,3c-0.6,0.8-1.3,1.5-2,2.2   C64,28.5,61.8,29.7,59.7,31.4z M81.8,22.5c2.4,0.9,4.8,3.2,2.7,5.6c-1.2,1.5-3.6,1.8-5.3,0.8c-2-1.2-2-3.8-1.7-5.9   c0-0.3,0-0.6,0-0.9c0.1-0.1,0.3-0.2,0.4-0.2C79.2,21.9,80.5,22.1,81.8,22.5z M75.6,11.1c0.8-2.1,4-7.4,6.9-5.6   c6,3.8-3,10.5-7.3,12.1C74.6,15.4,74.7,13.4,75.6,11.1z M66.2,18.5c-1.3-1.1-2.4-3.4-1-4.9c1.5-1.6,4.5,0.2,5.5,1.5   c0.5,0.7,1,1.4,1.3,2.3c0.1,0.2,0.3,1,0.3,1.2c-0.3,0-0.6,0.1-0.9,0.3C69.7,19.7,67.7,19.7,66.2,18.5z"></path><path d="M87.1,70.4c-3.4-5.6-12.1-3.1-16.8-0.6c-4.4,2.3-8.9,6.5-10.2,11.5c-1.1,0.1-2,0.9-2.4,1.9c-3,0.9-6.2,1.4-9,2.7   c-1.2,0.6-0.9,2.7,0.4,2.9c3.5,0.7,7.6-0.5,10.9-1.6c0.1,0,0.1,0,0.1-0.1c5.6,3.1,13.9,1.2,19.3-1.5C84.7,83,90.9,76.8,87.1,70.4z    M83.1,77c-1.3,2.2-3.8,3.7-6,4.7c-3.6,1.7-10.9,3.7-14.5,0.8c4.7-5.6,10.1-11.9,18.1-11.2C83.7,71.7,84.6,74.4,83.1,77z"></path><path d="M39.3,3.3c-0.2-1.5-1.5-2.3-2.9-1.7c-6.5,2.9-11.5,9.3-14.7,15.5c-1.6,3.1-2.8,6.5-3.8,9.9c-0.2-1.4-0.5-2.9-0.9-4.3   c-1.6-6.1-6-15.2-13.9-12c-1.2,0.5-2,1.8-1.2,3.1c3,4.8,5.3,10,6.6,15.5c1.3,5.6,1,11.1,1.4,16.8l0,0c0,0.7,0.4,1.2,0.9,1.6   C10,49,9.2,50.2,8.3,51.4c-1.4,2-3.9,3.7-4.6,6.1c-0.1,0.5,0.3,1.1,0.8,1c3.6-0.2,6.7-5,8.6-7.6c0.9-1.2,1.7-2.5,2.6-3.7   c5.1-3,11.4-4,16.9-6.3c6.2-2.5,12.1-5.9,18.1-8.8c1.2-0.6,1.3-2.4,0.4-3.3c-5.3-4.9-12.9-4.7-19.6-2.2   C36.8,20.2,40.4,12.8,39.3,3.3z M13.7,36.5c-0.2-2.7-0.7-5.3-1.2-7.8c-1.1-5-3-9.8-5.4-14.3c4.4,1,6,9.2,6.6,12.9   C14.1,30.4,14.2,33.5,13.7,36.5z M33.4,30.7c2.4-0.7,5-1,7.5-0.8c1.4,0.1,2.7,0.5,4,0.9c-5,2.7-10.4,4.7-15.7,6.6   c-2.8,1-5.8,1.7-8.6,2.7c0.3-0.4,0.6-0.7,0.9-1.1C24.6,35.2,28.7,32.1,33.4,30.7z M29.4,23.6c-3,3.7-6.5,6.9-10,10.1   c0.2-0.8,0.5-1.6,0.7-2.4c1.3-3.9,2.8-7.6,4.6-11.3c2.9-5.6,6.5-9.8,11.3-13.4C36.4,12.7,33.1,19,29.4,23.6z"></path><path d="M55.7,48.7c-5.2,2.1-10.2,4.4-15.2,7.1c0.6-1,1.3-1.9,2-2.9c1.9-2.6,3.7-5.3,5.7-7.8c0.7-0.9-0.2-2.3-1.3-1.7   c-1.5,1-3,2.1-4.4,3.3c-0.2-1.4-0.6-2.8-1.1-4.1c-0.7-1.5-3-0.7-3,0.8c0,2.4,0.3,4.8,0.1,7.2c-2.4,2.7-4.2,5.7-5,9v0.1   c-1.6,1-3.3,2-4.9,3.1c0.8-2,1.4-4.1,2.5-6.1c1.5-2.8,3.1-5.4,3.8-8.4c0.1-0.6-0.5-1.2-1.1-0.8C31.6,49,30,51,28.5,53.1   c-0.1-0.9-0.3-1.9-0.4-2.8c-0.2-1.8-0.2-3.7-1.5-5c-0.5-0.5-1.2-0.3-1.5,0.2c-1.1,1.6-0.7,3.8-0.6,5.6c0.1,2-0.1,4.1,0.7,6   c0.1,0.3,0.3,0.5,0.6,0.6c-1.2,2.3-2.2,4.8-2.1,7.2c0,0.4,0.1,0.7,0.3,0.9c-0.4,0.3-0.8,0.5-1.1,0.8c-0.6,0.1-1,0.4-1.2,0.9   c-0.8,0.6-1.6,1.2-2.4,1.8c0.6-3.2,0.8-6.6,0-9.6c-0.3-1.4-2.3-1.3-2.7,0c-0.7,2.4-0.8,5-1.3,7.5c0,0.1-0.1,0.3-0.1,0.4   c-1-2.2-2.4-4.3-4.2-5.3c-1.1-0.6-2.6,0.4-2.2,1.7c0.6,1.8,1.9,3.4,2.6,5.2c0.7,1.9,1,3.8,1.3,5.7c-0.2,0.2-0.4,0.3-0.5,0.5   C10,77.5,6.8,80.1,5.6,83c-0.4,1,0.6,2.5,1.7,1.7c2.2-1.5,4-3.6,6-5.5l0,0c-0.5,2.3-0.2,4.9,0.7,7c1,2.2,2.9,3.4,5.1,4   c2.9,0.8,4.1-3.6,1.2-4.5c-1.6-0.4-2.5-1.5-3.1-2.8c0.5,0.3,0.9,0.6,1.4,0.8c3.1,1.6,6.3,2,9.7,1.3c2.1-0.4,1.7-4-0.5-3.8   c-2.5,0.2-6.2-0.3-8.7-1.8c0.4,0,0.7,0,1.1,0c1.6,0,3.5,0.3,5-0.3c1.2-0.5,1.3-1.8,0.3-2.6c-1.4-1-3.3-1.1-5-1.3   C19.7,75.1,19,75,18.2,75c1.6-1.3,3.3-2.6,5-3.9c0.1,0,0.2,0.1,0.4,0.1c1.2,0.1,2.5,0.3,3.7,0.5c0,3.1,2.9,6.8,5.6,7.6   c1,0.3,2-0.7,1.7-1.7c-0.4-1.2-1.4-2-2.2-3c-0.6-0.7-0.8-1.3-1-2c0.5,0.1,0.9,0.2,1.4,0.3c2.5,0.7,5.3,2.1,7.9,1.8   c1.3-0.1,1.9-1.4,1-2.4c-1.4-1.7-4.1-2.6-6.4-3.2c0.1,0,0.2-0.1,0.2-0.1c1.5-0.7,3.1-1.1,4.3-2.1c0.4-0.3,0.3-1.1-0.2-1.3   c-3-1.5-7.3,0.2-10.1,2.1c-0.3-0.1-0.6-0.1-1-0.2c2.7-1.7,5.4-3.4,8.1-4.9c0.3-0.1,0.6-0.2,0.8-0.4c0.5-0.3,1.1-0.6,1.7-0.9   c1.5,1.4,3.3,2.5,5,3.5c0.2,0.4,0.6,0.8,1,1.1c0.3,1,0.7,1.9,0.9,3c0.3,1.5,0.4,3,0.7,4.5c0.2,1,1.7,1.2,2.2,0.3   c0.9-1.6,1.1-3.7,0.9-5.7c1.2,0.6,2.4,1.1,3.6,1.6c2.4,1,4.6-2.4,2.1-3.6c-1.3-0.7-2.5-1.3-3.8-1.9c0,0,0,0,0.1,0   c1.2-0.5,2.7-0.7,3.7-1.7c0.5-0.5,0.3-1.2-0.2-1.7c-1.3-1-3.4-0.7-4.9-0.5c-1.4,0.2-2.8,0.6-4.1,1.1c-1.1-0.6-2.2-1.2-3.4-1.8   c3.1-1.5,6.2-2.9,9.3-4.2c0.1,0.1,0.2,0.1,0.3,0.2c3.4,1.6,7.5,3.1,10.4,5.6c0.3,0.3,1,0.3,1.2-0.2c0.9-1.9-0.6-3.5-2-4.7   c-1.2-1-2.4-1.9-3.6-2.8c1.8,0.4,3.6,0.7,5.4,1.3c2.2,0.7,4.4,2.6,6.6,3c1,0.2,1.8-0.6,1.5-1.5c-0.5-2.6-4.1-4.3-6.2-5.3   c-0.2-0.1-0.5-0.2-0.8-0.3c1.1-0.3,2.2-0.7,3.3-1c2.3,0,4.4,0.4,6.5,1.1c1.8,0.6,3.6,1.8,5.6,1.8c0.6,0,1.1-0.6,0.9-1.2   c-0.5-1.8-2.3-3.2-4-4.1c0.5-0.1,0.9-0.2,1.4-0.3c3.3-0.8,1.9-5.9-1.4-5.1c-0.7,0.2-1.4,0.4-2.1,0.5c0.2-0.4,0.3-0.8,0.4-1.1   c0.3-0.9,0.2-2,0.5-2.9c0.4-1.2-1.4-2-2-0.9c-0.3,0.6-1,1.2-1.4,1.7c-0.6,0.8-1.1,1.6-1.7,2.4c-0.7,0.9-1.7,1.8-2.5,2.7   c-1.1,0.3-2.3,0.7-3.4,1.1c0.9-2.2,1.4-4.4,0.7-6.4c-0.4-1.2-2-1.5-2.7-0.4C62,40.1,61.9,42.3,61,44c-0.2,0.5-0.5,0.9-0.7,1.4   c-0.1-3.1-1.1-6.4-3.9-7.3c-0.7-0.2-1.3,0.4-1.4,1c-0.1,1.5,0.7,2.9,1,4.4c0.3,1.7,0,3.3-0.5,4.9C55.8,48.6,55.8,48.6,55.7,48.7z"></path></g></svg>