<svg height='100px' width='100px'  fill="#000000" xmlns="http://www.w3.org/2000/svg" data-name="Layer 1" viewBox="0 0 32.88 95" x="0px" y="0px"><title>04</title><path d="M66.27,30c-.06-1.06-.11-2.07-.13-2.9-.11-5.32-1-8.14-2.8-8.62h0l-1.46-.52a6.34,6.34,0,0,0-1.49-2.85A7.75,7.75,0,0,0,62,12.39a6.9,6.9,0,0,0-.46-6.3,6.57,6.57,0,0,0-6.43-3.56C52.93,2.34,49.6,4.26,49,6s-.12,2.53.15,2.87c0,.6,0,1.86,0,2.4.08,1.74,1,5.07,3.37,6.38a.45.45,0,0,0,0,.08.44.44,0,0,0-.15.07,9.54,9.54,0,0,0-2.65,2.69h0l-4.46,8a46.09,46.09,0,0,0-4.87-5L40,23a7.52,7.52,0,0,0-.78-2,4.27,4.27,0,0,0-2.59-1.21.44.44,0,0,0-.22-.11.45.45,0,0,0-.34.09l-.38.3c-.51-.62-1.29-1.15-1.77-1a.51.51,0,0,0-.35.31c-.14.35.1.74.6,1.52.11.16.23.36.29.47-.2,2.57.38,3.6.44,3.71l0,0,0,.05a7.3,7.3,0,0,0,2.36.93.43.43,0,0,0,0,.08.45.45,0,0,0,.08.36,77.84,77.84,0,0,0,5.9,6.88c-.6.54-1,1-1.17,1.14a.44.44,0,0,0-.06.53l.54.94,0,0,.06.07.06.05.08,0,.05,0H43a23.45,23.45,0,0,1,5.17,1.13,62.81,62.81,0,0,1-.5,6.84.81.81,0,0,0,.22.72,1.46,1.46,0,0,0,1.05.36l.37,0a43.89,43.89,0,0,0,.3,5.82c.74,5.68,1.57,11.29,2.26,15.39a.44.44,0,0,0,.26.33l.68.28.74,3a.44.44,0,0,0,.12.2c0,.47-.06.85-.06,1A129.17,129.17,0,0,0,55.12,84.5a8.85,8.85,0,0,1,.09,2.27c-.85.54-2.59,1.62-2.92,1.79s-.91.68-.78,1.35,1.31.91,1.68.95a.87.87,0,0,1,.2,0,.55.55,0,0,0,.28.15l-.1.22c-.45.71-2.46,4-2.1,5.45a1,1,0,0,0,.77.73,1.77,1.77,0,0,0,.43,0,9.74,9.74,0,0,0,4.88-2.12,15.47,15.47,0,0,0,1.77-3.09A5.75,5.75,0,0,0,59.74,89l.94-.47a2.45,2.45,0,0,0,1.23-1.42l.19-.57a5,5,0,0,0-.71-2.91,27.24,27.24,0,0,1,0-6.63,24,24,0,0,0-.74-9.6,3.6,3.6,0,0,0,.37-.24.45.45,0,0,0,.18-.32c0-.09.74-8.91,1.6-11.57l.14-.42a32.1,32.1,0,0,0,1.91-9.38.42.42,0,0,0,0-.08c.54-.27.64-.62.62-.86l0-.29c-.08-.83-.27-2.95-.37-5a1.32,1.32,0,0,0,.87-.69C66.66,37,66.45,33.26,66.27,30Zm-6.81-3.59a47.42,47.42,0,0,1,1.35,7,23.44,23.44,0,0,0-4.14-1.53.44.44,0,0,0,0-.17c-.14-3,0-4.48.15-4.81.72-1.47,2.89-7,3.5-8.54l1.11.39a4.44,4.44,0,0,0-1.55,2A8.76,8.76,0,0,0,59.46,26.39ZM56.85,35.6A23.78,23.78,0,0,0,50.18,32l.09-.29,0-.08A43.54,43.54,0,0,1,57,35.17l-.07.19Zm-.58,2.16c0,.41.13,1,.24,1.76-.68,0-2,.05-3.18,0-.1-.51-.3-1.59-.51-2.68l1.31.11h0C54.65,37.2,55.39,37.47,56.26,37.77ZM48.5,36.45a19.59,19.59,0,0,0-4.35-1.06,25.07,25.07,0,0,0,2.09-1.89,3.24,3.24,0,0,1,2-1,.67.67,0,0,0-.38.37,1,1,0,0,0,0,.82,4.16,4.16,0,0,0,1.9,1.79A11.87,11.87,0,0,0,48.5,36.45Zm2-7.16c0-1.23,1.72-3.82,2.38-4.72v0a.7.7,0,0,0,.06-.16v0a5.15,5.15,0,0,1,.14-.63l.1-.06,1.45-1.35a.44.44,0,0,0,.13-.24l0-.19.19.17c-.29.3-.54.54-.76.74a3.09,3.09,0,0,0-1,1.38,14.16,14.16,0,0,1-1.24,2.33,7.91,7.91,0,0,0-1.32,2.74c0,.13.05.78.12,1.38l-.18,0a.44.44,0,0,0,0-.18A10.38,10.38,0,0,1,50.46,29.29Zm.28,3.87,0,0,0,0Zm6.92,1.35a27.07,27.07,0,0,0-3.83-2.41,31,31,0,0,1,6.07,1.84ZM55.8,31.64c-1.59-.4-3.09-.68-4.16-.86-.08-.61-.14-1.41-.14-1.52A11.61,11.61,0,0,1,52.69,27,13.59,13.59,0,0,0,54,24.42c.08-.28.31-.51.79-1,.23-.22.5-.47.81-.79l.54.49a.44.44,0,0,0,.3.12h0a.45.45,0,0,0,.32-.18L58.35,21C57.5,23.09,56.48,25.6,56,26.5,55.76,27.09,55.67,28.82,55.8,31.64Zm.59-9.47L55.16,21c1-.87,2.74-2.57,3.21-3.88l1.09.73ZM54.21,20.7l0,0-.06.08,0,.08,0,.05-.17.81-.13.12.14-.67a.44.44,0,0,0,0-.14c0-.09-.23-1.91-.38-3a4.3,4.3,0,0,0,.8.15h.17a7.18,7.18,0,0,0,2.87-.94A17,17,0,0,1,54.21,20.7Zm-2.59,2L52,22a.44.44,0,0,0,.29-.37l0-.26.08-.16.05-.08a5.94,5.94,0,0,1,.15.59,5.71,5.71,0,0,0,.15.57,5.49,5.49,0,0,0-.67,1.88c-.45.62-2.49,3.51-2.49,5.16a9.69,9.69,0,0,0,.08,1,8,8,0,0,1,.15-3.74l0-.15C49.91,26.08,51,24,51.62,22.68ZM49.34,32.6l.31.49a2.54,2.54,0,0,0-1-.61A2.73,2.73,0,0,1,49.34,32.6Zm2.53,4.06c.2,1.08.42,2.21.54,2.85h-.33c-.1-.56-.32-1.72-.56-3.07Zm-1.42,2.42a.44.44,0,0,0,0-.06l-.36-2.67.47-.3a.41.41,0,0,0,0,0c.24,1.39.47,2.64.6,3.34a1.42,1.42,0,0,1-.71-.26v-.06A.41.41,0,0,0,50.44,39.07Zm3.57-3L52.42,36a15.88,15.88,0,0,0-2.25-1.27,3.55,3.55,0,0,1-1.35-1.12,4.94,4.94,0,0,1,.56.51.45.45,0,0,0,.2.13l2.19.63a2.06,2.06,0,0,0,.42.12.45.45,0,0,0,.2-.87l-.33-.1a.93.93,0,0,1-.39-.32.54.54,0,0,1-.08-.18h0A24.6,24.6,0,0,1,54.45,35Zm3.87-.72,2.49-.63-.1.24-2.51.72Zm2.9-17.81-.5-.18-1.45-1a8.55,8.55,0,0,0,.91-.7.44.44,0,0,0,.06.07A4.84,4.84,0,0,1,60.79,17.56ZM49.89,6.31c.4-1.28,3.3-3.07,5.18-2.89h.09a5.69,5.69,0,0,1,5.6,3.1h0a6,6,0,0,1,.39,5.58,7,7,0,0,1-1.83,2.77,8.87,8.87,0,0,0,.48-1.28,2.75,2.75,0,0,0,1.08-2.86A1.4,1.4,0,0,0,60,9.64a1.57,1.57,0,0,0-1.27.29,3.46,3.46,0,0,1-1-.88c-.31-.32-.69-.72-1.21-1.2l-.36-.33c-1.47-1.34-2.2-2-3.34-2.25-.28,0-1.89.29-3.11,2.37A3.87,3.87,0,0,1,49.89,6.31Zm.23,5c0-.54,0-1.89,0-2.44,1-2.26,2.4-2.62,2.62-2.66.83.19,1.47.78,2.83,2l.36.33c.5.46.87.84,1.17,1.15a3.29,3.29,0,0,0,1.67,1.19.45.45,0,0,0,.39-.1c.13-.11.45-.32.63-.26s.21.2.29.47a2,2,0,0,1-.86,2,.45.45,0,0,0-.19.28,10.63,10.63,0,0,1-1.29,2.82,7.46,7.46,0,0,1-3.29,1.26C51.4,17.07,50.21,13.06,50.12,11.27Zm2.6,7.47c.06.47.13,1,.18,1.44a1,1,0,0,0-.22-.16.44.44,0,0,0-.27,0l0-.18a1.58,1.58,0,0,0,0-.35c0-.09,0-.2,0-.27a.44.44,0,0,0,0-.17Zm-1.18,1-.12,1.33-.6,1.2A38.34,38.34,0,0,0,49,26.2l0,.16a9,9,0,0,0-.19,3.9,3.77,3.77,0,0,0-.56.08,7.55,7.55,0,0,1,.93-4.89A9.16,9.16,0,0,0,50.42,22a6.28,6.28,0,0,0,.07-.69.78.78,0,0,1,.07-.27v0h0A4.65,4.65,0,0,1,51.54,19.75Zm-13,1.67a7,7,0,0,1,.68,1.85.45.45,0,0,0,.1.2l.27.31a16.91,16.91,0,0,1-1.46,1.56.43.43,0,0,0-.22-.14,16.39,16.39,0,0,1-1.79-.55c.19-.07.4-.13.51-.15.46-.12.86-.23,1-.56s.44-.72.44-.72a1,1,0,0,0,.22-.8.7.7,0,0,0-.06-.14.43.43,0,0,0,0-.05,2.74,2.74,0,0,0-1.09-1.51A2.89,2.89,0,0,1,38.51,21.42ZM37.3,22.58l.07,0-.05.08s-.26.39-.46.76a3.32,3.32,0,0,1-.5.16,4.47,4.47,0,0,0-.85.29,7.53,7.53,0,0,1-.16-1.79.45.45,0,0,0,.51.14,1.35,1.35,0,0,1,1,.07Zm-1.73-1.23-.18.18,0,0v-.14l.15-.12Zm8.38,11.34a72.72,72.72,0,0,1-5.55-6.43,14.67,14.67,0,0,0,1.78-1.82c4,3.84,4.63,4.84,4.71,5a.45.45,0,0,0,.83.18h0l3.11-5.56a9.45,9.45,0,0,1-.49.91,8.41,8.41,0,0,0-1,5.62A13,13,0,0,0,44,32.72Zm5.53-1.45-.14.45a3.94,3.94,0,0,0-3.72,1.19A22.27,22.27,0,0,1,43.15,35L43,34.81C44.44,33.37,47.7,30.59,49.47,31.23Zm-1,13a64.68,64.68,0,0,0,.51-7l.26-.22L49.55,39a.8.8,0,0,0,0,.19c-.06.62-.23,2.61-.27,5h-.11A1.16,1.16,0,0,1,48.5,44.21Zm5.27,23.1.06,0v.18Zm.69,3.94c0-.44.18-2.63.25-3.67a13,13,0,0,0,3.25.48A7.23,7.23,0,0,0,59,68c.93,3,.28,8.66-.21,12.85-.16,1.39-.3,2.59-.37,3.54a11.34,11.34,0,0,0,0,1.48v.08a.44.44,0,0,0,0,.21c0,.5,0,1.16,0,2.24-.37,1.61-1.23,4.29-2,4.76a2.13,2.13,0,0,1-2.14.07c-.4-.35-.2-1,0-1.56h0l.81-1.87a6.57,6.57,0,0,0,.89-2.65s0,0,0,0A9.45,9.45,0,0,0,56,84.34C54.85,77,54.43,71.81,54.46,71.26Zm-.6,18.88h0a1.31,1.31,0,0,0-.59-.16c-.74-.06-.89-.23-.88-.22a.85.85,0,0,1,.3-.39C53,89.2,54.16,88.48,55,88a5.06,5.06,0,0,1-.59,1.39l0,.06-.31.71A.43.43,0,0,0,53.86,90.13Zm4.65,1.8a14.34,14.34,0,0,1-1.61,2.85c-.57.62-3.49,2-4.44,1.81-.11,0-.12-.06-.12-.09-.14-.54.39-1.85,1-3.11a1.51,1.51,0,0,0,.37.49,2.94,2.94,0,0,0,3.2,0c.88-.55,1.6-2.5,2-3.9A5.84,5.84,0,0,1,58.51,91.93Zm2.73-5.57-.17.52a1.56,1.56,0,0,1-.79.91l-.91.46c0-.9,0-1.5,0-2A7.07,7.07,0,0,0,61,84.89,3,3,0,0,1,61.24,86.36Zm-.72-9.42a27.51,27.51,0,0,0,0,6.94c0,.25-.49.8-1.18,1.33,0-.23,0-.47,0-.77.06-.93.2-2.12.36-3.5.41-3.53.95-8.12.55-11.39A24,24,0,0,1,60.52,76.94ZM62.1,54.62,62,55c-.83,2.56-1.51,10.17-1.63,11.56-1.88,1.2-5.28.23-6.93-.37a.43.43,0,0,0-.27-.1L52.67,66c-.69-4.06-1.49-9.55-2.22-15.12a43.94,43.94,0,0,1-.29-6.11c0-1.9.13-3.58.21-4.59a4.66,4.66,0,0,0,1.31.25c.74.05,1.62.07,2.46.07,1,0,2,0,2.5,0,.3,1.87.72,4,1.2,4.5.68.76,2.29,1.05,3.84,1.05A10.84,10.84,0,0,0,64,45.74,31.87,31.87,0,0,1,62.1,54.62Zm2.45-10.25,0,.2a5.46,5.46,0,0,1-2.5.48c-1.7.06-3.13-.25-3.57-.74a15.81,15.81,0,0,1-1-4.37v0a.42.42,0,0,0,0-.05q-.13-.84-.25-1.81a24.83,24.83,0,0,0,6.61,1.4h.38C64.29,41.49,64.48,43.56,64.55,44.38Zm.56-6.11a.64.64,0,0,1-.48.29h0a.44.44,0,0,0-.18.05C63,38.75,60,38.06,56.84,37l-.09,0c-.62-.21-1.24-.42-1.85-.65v0l.33-.82a13.2,13.2,0,0,1,1.52,1.2l.09.05,0,0a.44.44,0,0,0,.17,0h.12l3.56-1a.45.45,0,0,0,.28-.25l.54-1.21c.2-.28.46-1.32-1.22-8.14a7.87,7.87,0,0,1,.39-5c.64-1.44,1.43-2.05,2.36-1.83.75.18,2,1.44,2.17,7.79,0,.85.07,1.86.13,2.93C65.55,33,65.75,36.8,65.11,38.27Z" transform="translate(-33.56 -2.5)"></path></svg>