<?xml version="1.0" encoding="utf-8"?>
<!-- Generator: Adobe Illustrator 24.2.1, SVG Export Plug-In . SVG Version: 6.00 Build 0)  -->
<svg version="1.1" id="Layer_1" xmlns="http://www.w3.org/2000/svg" xmlns:xlink="http://www.w3.org/1999/xlink" x="0px" y="0px"
	 viewBox="0 0 100 100" enable-background="new 0 0 100 100" xml:space="preserve">
<g>
	<path fill-rule="evenodd" clip-rule="evenodd" d="M50,100c-8.814,0-16.271-5.763-19.661-13.898
		C15.424,78.644,5.254,63.39,5.254,45.763c0-6.102,1.017-11.864,3.39-17.288c-3.051-2.034-5.424-5.763-6.78-10.169
		C-0.508,10.169,2.881,2.034,9.322,0.339c5.424-1.356,11.525,2.373,14.576,8.814c15.593-11.525,36.61-11.525,52.542,0
		c2.712-6.441,8.814-10.169,14.237-8.814c6.441,1.695,9.831,9.831,7.458,17.966c-1.017,4.407-3.729,8.136-6.441,10.169
		c2.034,5.424,3.051,11.186,3.051,17.288c0,17.627-10.169,32.881-25.085,40.339C66.271,94.237,58.814,100,50,100z M50,89.831
		c-4.407,0-7.797-4.407-7.797-9.492c0-5.085,3.39-9.153,7.797-9.153s7.797,4.068,7.797,9.153C57.797,85.424,54.407,89.831,50,89.831
		z M45.254,55.254c-2.034,0-4.746,1.695-2.373,4.068l5.763,5.763c0.678,1.017,2.034,1.017,3.051,0l5.763-5.763
		c2.373-2.373-0.339-4.068-2.373-4.068H45.254z M71.356,41.017l-2.373,0.678l-0.339-4.068l-3.051,1.356l-0.339-2.712l-3.051,0.339
		l1.017,6.441l2.712-1.017v3.051l6.102-1.017L71.356,41.017z M28.644,41.017l2.712,0.678v-4.068l3.39,1.356v-2.712l3.051,0.339
		l-0.678,6.441l-3.051-1.017v3.051l-5.763-1.017L28.644,41.017z M50,94.237c-7.797,0-14.237-7.119-16.949-17.288
		c-5.424-4.068-5.085-15.932,0.339-19.661c6.441-20.339,26.78-20.339,33.22,0c5.763,3.729,5.763,15.593,0.339,19.661
		C64.576,87.119,57.797,94.237,50,94.237z"/>
</g>
</svg>
