<svg height='100px' width='100px'  fill="#000000" xmlns="http://www.w3.org/2000/svg" data-name="Layer 1" viewBox="0 0 100 100" x="0px" y="0px"><title>Artboard 33</title><path d="M50.08,76.11a4.87,4.87,0,0,0,1.41-3.65A4,4,0,0,0,50,69.22a5.62,5.62,0,0,0-3.75-.92c0-.25,0-.48,0-.69C46.27,64.26,33.5,64,29.59,64s-16.68.26-16.68,3.61c0,2.57.48,8.78,4.66,13-7.94.85-8,2.2-8,3C9.62,86.9,23.68,88,30.09,88s20.46-1.1,20.46-4.38c0-.8,0-2.22-8.85-3.05a13.78,13.78,0,0,0,1.46-1.81C44.75,78.63,48.16,78.11,50.08,76.11Zm-1.29-5.3a2.07,2.07,0,0,1,.7,1.7,2.92,2.92,0,0,1-.84,2.21,7.9,7.9,0,0,1-4.26,1.86,20.44,20.44,0,0,0,1.71-6.25A4,4,0,0,1,48.79,70.81ZM29.59,66c7.94,0,12.8,1,14.31,1.61-1.51.67-6.37,1.62-14.31,1.62s-12.8-1-14.31-1.62C16.79,67,21.65,66,29.59,66ZM15,69.6c3.78,1.48,11.67,1.63,14.6,1.63s10.81-.15,14.6-1.63C43.25,81.67,33.78,83,29.59,83S15.93,81.67,15,69.6ZM30.09,86c-9.21,0-15.83-1.42-17.92-2.33a35.08,35.08,0,0,1,7.6-1.2A17.55,17.55,0,0,0,29.59,85a17.43,17.43,0,0,0,9.92-2.64A37.92,37.92,0,0,1,48,83.67C45.9,84.58,39.28,86,30.09,86Z"></path><ellipse cx="29.59" cy="67.61" rx="11" ry="1"></ellipse><path d="M83,46H61V76H83ZM81,74H63V48H81Z"></path><path d="M84,33H60a3,3,0,0,0-3,3v3a3,3,0,0,0,.78,2A3,3,0,0,0,57,43V81a5,5,0,0,0,5,5H82a5,5,0,0,0,5-5V43a3,3,0,0,0-.78-2A3,3,0,0,0,87,39V36A3,3,0,0,0,84,33Zm1,3v3a1,1,0,0,1-1,1H83V35h1A1,1,0,0,1,85,36ZM63,40V35h3v5Zm5-5h3v5H68Zm5,0h3v5H73Zm5,0h3v5H78ZM59,36a1,1,0,0,1,1-1h1v5H60a1,1,0,0,1-1-1ZM85,81a3,3,0,0,1-3,3H62a3,3,0,0,1-3-3V43a1,1,0,0,1,1-1H84a1,1,0,0,1,1,1Z"></path><path d="M82,80a1,1,0,0,1-1,1H78v2h3a3,3,0,0,0,3-3V78H82Z"></path><path d="M73.74,69.55h.46a5.84,5.84,0,0,0,4.25-1.48,4.83,4.83,0,0,0,1.11-4.68,6.51,6.51,0,0,0-2.84-3.63l-.36-.22a3.47,3.47,0,0,1-.92-.67,3.3,3.3,0,0,1-.27-.42,3.58,3.58,0,0,0-.72-1,7.3,7.3,0,0,0-4.62-1.87h0a5.12,5.12,0,0,0-3.31,1,5.05,5.05,0,0,0-1.4,1.81,7.43,7.43,0,0,0,1.36,7.92A10.34,10.34,0,0,0,73.74,69.55Zm.09-2A8.38,8.38,0,0,1,68,65a5.39,5.39,0,0,1-1-5.72l0-.08a18,18,0,0,0,8.88,8.11A6,6,0,0,1,73.83,67.55Zm-4-9.92A5.23,5.23,0,0,1,73.09,59a1.89,1.89,0,0,1,.35.5,6.54,6.54,0,0,0,.45.67,5.16,5.16,0,0,0,1.44,1.13l.32.19a4.58,4.58,0,0,1,2,2.49,3.05,3.05,0,0,1-.09,1.87c-5.14-1.6-8-5.89-9.06-8a3.55,3.55,0,0,1,1.2-.2Z"></path></svg>