<svg height='100px' width='100px'  fill="#000000" xmlns="http://www.w3.org/2000/svg" xmlns:xlink="http://www.w3.org/1999/xlink" version="1.1" x="0px" y="0px" viewBox="0 0 100 100" enable-background="new 0 0 100 100" xml:space="preserve"><g><path d="M93,7v86H7V7H93 M95,5H5v90h90V5L95,5z"></path></g><g><g><path d="M38.6,37.4l-0.1-0.3c-0.4-1.9-0.4-3.8,0-5.6l0.5-2.6c0.1-0.3-0.2-0.5-0.4-0.5c-4.9,0.4-8.7,5.5-8.7,11.9    c0,6.3,3.8,11.5,8.7,11.9c0.3,0,0.5-0.2,0.4-0.5L38.6,49c-0.4-1.9-0.4-3.8,0-5.6l0.1-0.3C39,41.2,39,39.3,38.6,37.4z"></path><path d="M48.4,40.2c0-5.9-3.3-10.7-7.7-11.7c-0.2-0.1-0.5,0.1-0.5,0.3l-0.5,2.6c-0.4,1.9-0.4,3.8,0,5.6l0.1,0.3    c0.4,1.9,0.4,3.8,0,5.6l-0.1,0.3c-0.4,1.9-0.4,3.8,0,5.6l0.5,2.6c0,0.2,0.3,0.4,0.5,0.3C45.1,51,48.4,46.1,48.4,40.2z"></path></g><g><path d="M57.2,38.6l-0.3-0.2c-1.6-1.1-2.9-2.4-4-4l-1.5-2.2c-0.2-0.2-0.5-0.3-0.7,0c-3.2,3.7-2.2,10.1,2.2,14.5    c4.5,4.5,10.9,5.4,14.5,2.2c0.2-0.2,0.2-0.5,0-0.7l-2.2-1.5c-1.6-1.1-2.9-2.4-4-4l-0.2-0.3C60.1,41,58.8,39.6,57.2,38.6z"></path><path d="M65.4,34.8c-4.1-4.1-9.2-6.5-13-4.1c-0.2,0.1-0.3,0.4-0.1,0.6l1.5,2.2c1.1,1.6,2.4,2.9,4,4l0.3,0.2c1.6,1.1,2.9,2.4,4,4    l0.2,0.3c1.1,1.6,2.4,2.9,4,4l2.2,1.5c0.2,0.1,0.5,0.1,0.6-0.1C71.4,43.6,69.6,39,65.4,34.8z"></path></g><g><path d="M54.6,58.8l0.2-0.3c1.1-1.6,2.4-2.9,4-4l2.2-1.5c0.2-0.2,0.3-0.5,0-0.7c-3.7-3.2-10.1-2.2-14.5,2.2    c-4.5,4.5-5.4,10.9-2.2,14.5c0.2,0.2,0.5,0.2,0.7,0l1.5-2.2c1.1-1.6,2.4-2.9,4-4l0.3-0.2C52.1,61.7,53.5,60.3,54.6,58.8z"></path><path d="M58.3,67c4.1-4.1,6.5-9.2,4.1-13c-0.1-0.2-0.4-0.3-0.6-0.1l-2.2,1.5c-1.6,1.1-2.9,2.4-4,4l-0.2,0.3c-1.1,1.6-2.4,2.9-4,4    l-0.3,0.2c-1.6,1.1-2.9,2.4-4,4L45.7,70c-0.1,0.2-0.1,0.5,0.1,0.6C49.6,72.9,54.2,71.1,58.3,67z"></path></g></g></svg>