<svg height='100px' width='100px'  fill="#000000" xmlns="http://www.w3.org/2000/svg" xmlns:xlink="http://www.w3.org/1999/xlink" version="1.1" x="0px" y="0px" viewBox="0 0 128 128" style="enable-background:new 0 0 128 128;" xml:space="preserve"><g><path d="M82,55c9.9411621,0,18-8.0588989,18-18c0-3.8717651-1.2340088-7.4489746-3.3140259-10.3848267   C99.1986694,25.7164917,101,23.3216553,101,20.5c0-3.5898438-2.9101562-6.5-6.5-6.5   c-0.5772095,0-1.1339111,0.0825806-1.666687,0.2237549C91.9940186,9.5497437,87.9155884,6,83,6c-5.5228271,0-10,4.4771118-10,10   c0,1.7345581,0.442627,3.3654175,1.2196045,4.7874146C68.1796875,23.6918945,64,29.8497925,64,37   C64,46.9411011,72.0588989,55,82,55z M98,37c0,8.8224487-7.1775513,16-16,16   c-5.3413086,0-10.0672607-2.640625-12.9749756-6.6745605c0.2245483-0.0368042,0.4605713-0.0942993,0.6591187-0.0942993   c7.2000122,0,13.1296997-5.3889771,14.0065918-12.3510132c1.9689331-0.8023071,3.7080078-2.039856,5.116333-3.5873413   c2.1956787,2.8078003,5.4279785,4.7547607,9.1207886,5.2833862C97.9695435,36.0460815,98,36.5194092,98,37z"></path><path d="M96.097168,80.9658203c0.4179688-0.3935547,0.6577148-0.9257812,0.675293-1.5   c0.0170898-0.5742188-0.1899414-1.1210938-0.5834961-1.5390625s-0.9267578-0.6582031-1.5004883-0.6757812   c-0.0224609,0-0.0444336-0.0009766-0.0664062-0.0009766c-0.5498047,0-1.0703125,0.2070312-1.472168,0.5849609v0.0009766   c-0.418457,0.3935547-0.6582031,0.9257812-0.675293,1.5c-0.0175781,0.5742188,0.1894531,1.1201172,0.5830078,1.5380859   C93.8696289,81.7363281,95.2348633,81.7792969,96.097168,80.9658203z"></path><path d="M85.4306641,79.1923828c0.5488281-0.1689453,0.9990234-0.5419922,1.2670898-1.0498047   c0.2685547-0.5068359,0.3232422-1.0888672,0.1538086-1.6376953s-0.5419922-0.9990234-1.0498047-1.2675781   c-0.3139648-0.1660156-0.65625-0.25-1.0019531-0.25c-0.2128906,0-0.4272461,0.03125-0.6367188,0.0966797   c-0.5483398,0.1689453-0.9980469,0.5419922-1.2666016,1.0498047s-0.3232422,1.0888672-0.1538086,1.6376953   C83.0922852,78.9042969,84.2983398,79.5478516,85.4306641,79.1923828z"></path><path d="M63.1098633,65.3753052l2.3295898,0.5250854c0.5390625,0.1210938,0.8774414,0.65625,0.7558594,1.1953125   c-0.1049805,0.4648438-0.5175781,0.7802734-0.9746094,0.7802734c-0.0727539,0-0.1469727-0.0078125-0.2207031-0.0244141   l-1.5462646-0.3485718c0.1678467,1.2694702,0.2335815,2.7983398,0.0439453,4.5543213l2.5657959,0.5774536   c0.5385742,0.1210938,0.8769531,0.65625,0.7558594,1.1953125c-0.1044922,0.4648438-0.5170898,0.7802734-0.9746094,0.7802734   c-0.0727539,0-0.1464844-0.0078125-0.2207031-0.0244141l-2.4449463-0.550293   c-0.1918945,0.9354858-0.4450684,1.9106445-0.8026123,2.9350586c-0.0996094,0.2841797-0.0717773,0.5888672,0.0776367,0.8574219   c0.1542969,0.2773438,0.4199219,0.4765625,0.7290039,0.5458984l3.3271484,0.7441406   c0.5371094,0.1162109,1.0825195-0.1728516,1.2724609-0.6787109c1.640625-4.3876953,1.4277344-7.9462891,0.9599609-10.1582031   c-0.6352539-3.0087891,0.0483398-6.1201172,1.8754883-8.5380859c0.8969116-1.1862183,1.8223267-1.9287109,2.4815674-2.3668213   c-0.4031982-0.1265259-0.8204956-0.2114258-1.2508545-0.2114258h-4.3295898c-0.1676636,0-0.3311157,0.0244751-0.4975586,0.0324097   c-0.4553833,0.2676392-1.3733521,0.8990479-2.2687988,2.0839233c-0.0604248,0.079895-0.1096191,0.1661987-0.1669312,0.2479858   l1.477478,0.3330688c0.5390625,0.1210938,0.8774414,0.65625,0.7558594,1.1953125   c-0.1049805,0.4648438-0.5175781,0.7802734-0.9746094,0.7802734c-0.0727539,0-0.1469727-0.0078125-0.2207031-0.0244141   l-2.0076904-0.4525757C63.1352539,62.626709,62.9539795,64.0001831,63.1098633,65.3753052z"></path><path d="M97.2949219,64.8027344h1.9849243c0.1327515-0.7282104,0.2147827-1.4973145,0.2147827-2.2929688   c0-0.3338623-0.0249023-0.6644897-0.0640869-0.9902344h-1.8875732c-0.5522461,0-1-0.4472656-1-1s0.4477539-1,1-1h1.4411011   c-0.2475586-0.7734375-0.5410156-1.4430542-0.7877808-1.9412842c-0.925293-0.2642212-1.8902588-0.4133301-2.8782959-0.4133301   h-3.3537598c1.0046997,1.1521606,2.2501221,3.0418091,2.2501221,5.3448486c0,2.3574219-0.5893555,4.8046875-1.6176758,6.7128906   l4.8369141,0.0625c0.4621582-0.550415,0.9343872-1.421936,1.3126831-2.4824219h-1.451355c-0.5522461,0-1-0.4472656-1-1   S96.7426758,64.8027344,97.2949219,64.8027344z"></path><path d="M15.2175903,59.300415c0.1924438,0.9874878,1.0551758,1.6972656,2.0612183,1.6972656H25v15.067627   c-2.8253784,0.4022827-5,2.824707-5,5.7612305v0.0726318C20,83.0593872,20.9405518,84,22.1008301,84h10.7983398   C34.0594482,84,35,83.0593872,35,81.8991699v-0.0726318c0-2.9365234-2.1746216-5.3589478-5-5.7612305v-15.067627h7.7211914   c1.0060425,0,1.8687744-0.7097778,2.0612183-1.6972656c0.9468994-4.859436,3.2814941-18.7878418,0.0133057-23.6405029   c-3.09729-4.5990601-2.7303467-7.3748169-2.4127808-8.3839111c0.0751953-0.2389526,0.1937256-0.4534302,0.3482666-0.6505127   l2.5227051-3.2173462c0.7817383-0.9970093,0.5092773-2.4539795-0.579834-3.1011353l-5.3010254-3.1498413   c-0.6069946-0.3607178-0.9790649-1.0145874-0.9790649-1.7207031c0-1.1054688-0.8961792-2.0015869-2.0015869-2.0015869h-7.78479   c-1.1054077,0-2.0015869,0.8961182-2.0015869,2.0015869c0,0.7061157-0.3720703,1.3599854-0.9790649,1.7207031l-5.3010254,3.1498413   c-1.0891113,0.6471558-1.3615723,2.104126-0.579834,3.1011353l2.5227051,3.2173462   c0.154541,0.1970825,0.2730713,0.4115601,0.3482666,0.6505127c0.3175659,1.0090942,0.6845093,3.7848511-2.4127808,8.3839111   C11.9360962,40.5125732,14.2706909,54.440979,15.2175903,59.300415z"></path><path d="M118,102h-3.611084c3.6431885-1.7810669,6.1587524-5.5123291,6.1587524-9.8407593   c0-1.9987793-0.5465698-3.9594116-1.5805664-5.6699219L104.303772,62.2329102   c-0.8734741-1.4448853-2.074646-2.6159058-3.4637451-3.4768677c0.3649902,1.1016235,0.6546021,2.4009399,0.6546021,3.7537231   c0,3.4580078-1.2583008,6.5400391-2.5053711,8.0615234c-0.3710938,0.453125-0.9384766,0.7138672-1.5556641,0.7138672h-4.7919922   c-0.7299805,0-1.3881836-0.3730469-1.7617188-0.9980469c-0.3710938-0.6220703-0.3876953-1.3740234-0.0439453-2.0126953   c0.8632812-1.6025391,1.378418-3.7578125,1.378418-5.7646484c0-2.4868164-2.1378784-4.4807739-2.6269531-4.9041138   c-0.4142456,0.2020874-0.803833,0.4573364-1.1359253,0.7894287l-5.3314819,5.3314819   c-0.8200684,0.8200684-2.1497192,0.8200684-2.9698486,0l-5.164978-5.1650391   c-0.064209,0.0492554-0.1223755,0.1051636-0.2000122,0.1386719c-0.0302734,0.0136719-1.3300781,0.6074219-2.5712891,2.2490234   c-1.4780273,1.9550781-2.0297852,4.4765625-1.5141602,6.9179688c0.5224609,2.4726562,0.7651367,6.4345703-1.0439453,11.2724609   c-0.456543,1.2216797-1.6381836,2.0048828-2.9072266,2.0048828c-0.2236328,0-0.449707-0.0244141-0.6748047-0.0751953   l-3.3266602-0.7441406c-0.8652344-0.1933594-1.609375-0.7490234-2.0405273-1.5244141   c-0.4248047-0.7636719-0.5043945-1.6708984-0.21875-2.4892578c1.4638672-4.1923828,1.2397461-7.5878906,0.7939453-9.6982422   c-0.5062866-2.3978882-0.1619873-4.8549805,0.918335-6.9802246c0.003479-0.0050049,0.0050049-0.0112305,0.0085449-0.0161743   c0.2574463-0.5042725,0.548584-0.9929199,0.8893433-1.4536133c-1.861145,0.866272-3.4677734,2.2554932-4.5644531,4.0696411   L43.8701782,86.4893188c-1.0339966,1.7105103-1.5805664,3.6711426-1.5805664,5.6699219   c0,4.3284302,2.515564,8.0596924,6.1587524,9.8407593h-1.5372314H13c-0.5522461,0-1,0.4472656-1,1s0.4477539,1,1,1h31.012207   c-1.5067749,1.5090942-3.1557617,3.9430542-3.1557617,7.3837891c0,5.0107422-6.4526367,8.7080078-6.5175781,8.7451172   c-0.3959961,0.2226562-0.5917969,0.6855469-0.4765625,1.125S34.3745117,122,34.8291016,122h61.418457   c0.1713867,0,0.3398438-0.0439453,0.4897461-0.1279297c0.3076172-0.1728516,7.5375977-4.3027344,7.5375977-10.4882812   c0-4.4445801,3.4500122-6.8453369,4.3258057-7.3837891H118c0.5522461,0,1-0.4472656,1-1S118.5522461,102,118,102z    M104.597168,85.6523438c0.53125-0.1513672,1.0849609,0.1542969,1.2373047,0.6845703   c0.152832,0.53125-0.1538086,1.0849609-0.6845703,1.2373047L94.019043,90.7744141   c-0.0922852,0.0263672-0.1855469,0.0390625-0.2768555,0.0390625c-0.4345703,0-0.8344727-0.2851562-0.9604492-0.7236328   c-0.152832-0.53125,0.1538086-1.0849609,0.6845703-1.2373047L104.597168,85.6523438z M81.128418,75.1992188   c0.5175781-0.9804688,1.3862305-1.7001953,2.4453125-2.0273438c1.0595703-0.3251953,2.1826172-0.2216797,3.1625977,0.296875   s1.699707,1.3867188,2.0263672,2.4462891s0.2211914,2.1826172-0.2963867,3.1621094   c-0.3051147,0.5774536-0.7426758,1.0497437-1.2582397,1.4193726c0.3296509,0.380249,0.7991333,1.0563965,1.2280273,2.164856   c1.0557251-0.9245605,1.9091797-1.345459,2.4329834-1.5308228c-0.2660522-0.5760498-0.4135132-1.2027588-0.3939819-1.8551636   c0.0336914-1.1074219,0.496582-2.1357422,1.3037109-2.8955078c0.8066406-0.7607422,1.859375-1.1503906,2.9697266-1.1279297   c1.1079102,0.0341797,2.1367188,0.4970703,2.8964844,1.3037109c0.7597656,0.8076172,1.159668,1.8623047,1.1264648,2.9697266   c-0.0332031,1.1083984-0.4960938,2.1376953-1.3032227,2.8974609c-0.6569824,0.6176758-1.4657593,0.9653931-2.2988281,1.0749512   l0.0163574,0.0110474c0,0-3.0211182,0.388855-5.8910522,4.2891235l-0.0108643,1.6004028   c-0.2750854-0.0664673-0.5515137-0.1290283-0.8317261-0.1786499l-0.0881348-0.015625l-2.9628296-0.5252686l-1.0898438-0.1932373   l0.9451904-1.6913452c-0.6029663-4.5748901-2.8570557-6.2695923-2.8570557-6.2695923l0.0074463-0.0007324   c-0.7247314-0.510437-1.2944946-1.25177-1.5753784-2.1625977C80.5048828,77.3017578,80.6103516,76.1787109,81.128418,75.1992188z    M61.0400391,88.3232422c-0.5429688-0.1015625-0.8999023-0.625-0.7978516-1.1679688   c0.1025391-0.5419922,0.628418-0.8974609,1.1679688-0.796875L80,89.8625488v-0.013855l4.802124,0.7546387l2.611145,0.4629517   l0.68927,0.1221924c0.5047607,0.0895996,0.9985352,0.2161255,1.4824219,0.3687744   c0.7399902,0.2333984,1.4508667,0.5409546,2.1271973,0.9144287l-0.2310791-0.0755005   c3.1252441,1.6934814,5.4647827,4.6506958,6.3157349,8.2296753c0.1171265,0.4926147,0.0273438,0.9725342-0.1954346,1.3741455H81h-1   h-1V91.7089844L61.0400391,88.3232422z M102.2749023,111.3837891c0,4.4873047-5.1757812,7.921875-6.3032227,8.6162109H37.9702148   c2.1728516-1.8095703,4.8862305-4.8271484,4.8862305-8.6162109c0-4.4277344,3.4316406-6.8330078,4.3251953-7.3837891H79h2   h24.4272461C103.9213867,105.5097656,102.2749023,107.9462891,102.2749023,111.3837891z"></path></g></svg>