<svg height='100px' width='100px'  fill="#000000" xmlns="http://www.w3.org/2000/svg" xmlns:xlink="http://www.w3.org/1999/xlink" version="1.1" x="0px" y="0px" viewBox="0 0 100 100" style="enable-background:new 0 0 100 100;" xml:space="preserve"><style type="text/css">
	.st0{fill:none;stroke:#000000;stroke-width:2;stroke-linecap:round;stroke-miterlimit:10;}
	.st1{fill:none;stroke:#000000;stroke-width:2;stroke-linecap:round;stroke-linejoin:round;stroke-miterlimit:10;}
	.st2{fill:none;stroke:#000000;stroke-width:2;stroke-miterlimit:10;}
</style><path d="M24.8,40v42c0,3.6,3,6.6,6.6,6.6h34.3c3.6,0,6.6-3,6.6-6.6v-9.5c6.2-0.4,11.1-5.6,11.1-11.9v-6.2c0-6.3-4.9-11.4-11.1-11.9  v-2.7c1.6-0.3,3-1.1,4-2.2c1.5-1.6,2.3-3.8,2.2-6.2c-0.1-3.6-2.5-6.6-5.8-7.8c0,0,0-0.1,0-0.1c-0.1-2.7-1.2-5.2-3.2-7  c-2-1.8-4.5-2.8-7.2-2.7c-2.9,0.1-5.5,1.4-7.3,3.6c-2.7-1.6-6.1-1.5-8.7,0.1c-2.1-3.5-6-5.5-10.2-5.1c-4.3,0.5-7.9,3.6-8.9,7.8  c-0.4,1.5-0.4,3-0.2,4.5c-1-0.1-1.9,0-2.9,0.2c-3.1,0.9-5.3,3.6-5.6,6.7c-0.2,2.2,0.5,4.2,2,5.8C21.7,38.9,23.2,39.7,24.8,40z   M81.4,54.4v6.2c0,5.2-4,9.5-9.1,9.9V44.6C77.4,45,81.4,49.2,81.4,54.4z M70.3,82c0,2.5-2.1,4.6-4.6,4.6H31.4  c-2.5,0-4.6-2.1-4.6-4.6V40.1h6.7c0.5,0,0.9,0.4,0.9,0.9v5.1c0,1.9,0.9,3.7,2.2,4.8v27.7c0,0.6,0.4,1,1,1s1-0.4,1-1V52  c0.4,0.1,0.8,0.2,1.2,0.3c0.2,0,0.4,0,0.6,0c1.3,0,2.6-0.5,3.6-1.2v27.5c0,0.6,0.4,1,1,1s1-0.4,1-1V48.7c0-0.1,0-0.1,0-0.2  c0.3-0.7,0.4-1.5,0.4-2.2V41c0-0.5,0.4-0.9,0.9-0.9h22.8c0,0,0.1,0,0.1,0V82z M20.6,32c0.2-2.3,1.9-4.3,4.1-5c0.5-0.1,1-0.2,1.5-0.2  c0.6,0,1.3,0.1,1.9,0.3c0.4,0.1,0.8,0,1-0.2c0.3-0.3,0.4-0.7,0.2-1.1c-0.6-1.6-0.7-3.3-0.3-5c0.9-3.4,3.8-5.9,7.2-6.3  c3.7-0.4,7.2,1.6,8.7,5c0.1,0.3,0.4,0.5,0.7,0.6c0.3,0.1,0.6,0,0.9-0.2c1.2-1,2.7-1.5,4.2-1.5c1.4,0,2.8,0.5,3.9,1.3  c0.2,0.2,0.5,0.2,0.8,0.2c0.3,0,0.5-0.2,0.7-0.4c1.5-2.1,3.8-3.4,6.3-3.5c2.2-0.1,4.2,0.7,5.8,2.1s2.5,3.5,2.6,5.6  c0,0.2,0,0.5,0,0.7c0,0.5,0.3,0.9,0.8,1c2.9,0.7,4.9,3.2,5,6.1c0.1,1.9-0.5,3.6-1.7,4.8c-1.1,1.2-2.8,1.8-4.7,1.8H47.3  c-1.6,0-2.9,1.3-2.9,2.9v5.3c0,1.1-0.5,2.2-1.3,3c-0.9,0.8-2,1.1-3.1,1c-2-0.2-3.6-2.1-3.6-4.2V41c0-1.6-1.3-2.9-2.9-2.9h-7.3  c-1.6,0-3.1-0.7-4.2-1.8C20.9,35.1,20.4,33.6,20.6,32z"></path><path d="M52.5,46.9c-0.6,0-1,0.4-1,1v30.7c0,0.6,0.4,1,1,1s1-0.4,1-1V47.9C53.5,47.3,53,46.9,52.5,46.9z"></path><path d="M59.9,46.9c-0.6,0-1,0.4-1,1v30.7c0,0.6,0.4,1,1,1s1-0.4,1-1V47.9C60.9,47.3,60.5,46.9,59.9,46.9z"></path></svg>