<svg height='100px' width='100px'  fill="#000000" xmlns="http://www.w3.org/2000/svg" xmlns:xlink="http://www.w3.org/1999/xlink" version="1.1" x="0px" y="0px" viewBox="0 0 100 100" enable-background="new 0 0 100 100" xml:space="preserve"><path d="M36.073,53.604l-1.957,2.684c1.547,2.272,2.462,4.988,2.462,7.926c0,7.834-6.379,14.21-14.21,14.21  c-7.832,0-14.211-6.376-14.211-14.21c0-7.831,6.379-14.209,14.211-14.209c1.452,0,2.842,0.22,4.137,0.632l0.442-0.57l1.547-2.084  c-1.895-0.758-3.979-1.136-6.126-1.136C12.801,46.846,5,54.646,5,64.213c0,9.569,7.801,17.368,17.369,17.368  s17.369-7.799,17.369-17.368C39.737,60.202,38.378,56.539,36.073,53.604z"></path><path d="M65.379,55.781l-1.548-2.084c-1.326,1.705-2.306,3.664-2.904,5.78h3.313c0.381-1.106,0.917-2.18,1.58-3.127L65.379,55.781z   M77.632,46.846c-2.211,0-4.294,0.409-6.222,1.167l1.957,2.653c1.327-0.442,2.779-0.662,4.265-0.662  c7.831,0,14.21,6.378,14.21,14.209c0,7.834-6.379,14.21-14.21,14.21c-6.158,0-11.432-3.946-13.358-9.473h-3.315  c2.052,7.293,8.748,12.631,16.674,12.631C87.199,81.581,95,73.782,95,64.213C95,54.646,87.199,46.846,77.632,46.846z"></path><path d="M80.79,65.793L70.432,51.992l-1.895-2.526l-3.127-4.169l6.506-8.622l3.095,0.696c0,0,3.157,0,3.157-3.158  c0-3.158-2.115-3.158-2.115-3.158H65.536c0,0-2.116,0-2.116,2.116c0,2.084,2.116,2.084,2.116,2.084l3.001,0.664l-6.127,8.147  L46.873,33.708l4.611-6.252l-5.874-3.663c-0.127-0.063-0.538-0.349-0.631-0.695c-0.063-0.221,0-0.506,0.22-0.853  c0.283-0.537,1.199-0.664,1.485-0.664h5.684v-3.157h-5.653c-0.317-0.031-3.001,0.031-4.264,2.242  c-0.82,1.422-0.727,2.621-0.505,3.348c0.537,1.705,2.052,2.525,2.116,2.525l2.872,1.802L31.368,49.403l-1.895,2.525l-8.368,11.338  l2.526,1.894L32,53.824l1.895-2.559l4.737-6.41c5.685,4.768,8.999,11.842,8.999,19.357v1.58H80.79z M66.01,51.328l1.896,2.558  l6.568,8.749H52.369l11.082-14.716L66.01,51.328z M40.496,42.329l4.484-6.063l15.503,10.327L50.474,59.92  C49.4,53.034,45.863,46.781,40.496,42.329z"></path></svg>