<svg height='100px' width='100px'  fill="#000000" xmlns="http://www.w3.org/2000/svg" xmlns:xlink="http://www.w3.org/1999/xlink" version="1.1" x="0px" y="0px" viewBox="0 0 100 100" style="enable-background:new 0 0 100 100;" xml:space="preserve"><path d="M68.1601562,33.5585938c-4.7109375,0-8.6025391,3.5761719-9.1015625,8.1567383H40.9482422  c-0.4990234-4.5805664-4.390625-8.1567383-9.1015625-8.1567383c-5.0488281,0-9.1572266,4.1079102-9.1572266,9.1567383  c0,2.4975586,0.9902344,4.8198242,2.7529297,6.534668c-1.7626953,1.7143555-2.7529297,4.0366211-2.7529297,6.534668  c0,5.0488281,4.1083984,9.1567383,9.1572266,9.1567383c4.7148438,0,8.6083984-3.5820312,9.1035156-8.2128906h18.1015625  c0.4746094,4.6074219,4.3779297,8.2128906,9.1083984,8.2128906c5.0488281,0,9.15625-4.1079102,9.15625-9.1567383  c0-2.4975586-0.9902344-4.8198242-2.7519531-6.534668c1.7617188-1.715332,2.7519531-4.0375977,2.7519531-6.534668  C77.3164062,37.6665039,73.2089844,33.5585938,68.1601562,33.5585938z M72.4287109,50.0517578  c1.8349609,1.3686523,2.8876953,3.4584961,2.8876953,5.7329102c0,3.9462891-3.2099609,7.1567383-7.15625,7.1567383  s-7.15625-3.2104492-7.15625-7.1567383v-0.0561523c0-0.5522461-0.4472656-1-1-1H40.0029297c-0.5527344,0-1,0.5039062-1,1.0561523  c0,3.9462891-3.2099609,7.1567383-7.15625,7.1567383s-7.1572266-3.2104492-7.1572266-7.1567383  c0-2.2744141,1.0527344-4.3642578,2.8886719-5.7329102C27.8310547,49.862793,27.9804688,49.565918,27.9804688,49.25  c0-0.3154297-0.1494141-0.612793-0.4023438-0.8017578c-1.8359375-1.3691406-2.8886719-3.4589844-2.8886719-5.7329102  c0-3.9462891,3.2109375-7.1567383,7.1572266-7.1567383s7.15625,3.2104492,7.15625,7.1567383c0,0.5522461,0.4472656,1,1,1h20.0009766  c0.5527344,0,1-0.4477539,1-1c0-3.9462891,3.2099609-7.1567383,7.15625-7.1567383s7.15625,3.2104492,7.15625,7.1567383  c0,2.2739258-1.0527344,4.3637695-2.8876953,5.7333984C72.1757812,48.637207,72.0263672,48.9345703,72.0263672,49.25  C72.0263672,49.565918,72.1757812,49.862793,72.4287109,50.0517578z"></path><path d="M10.9960938,12h6.625v5.5834961h-6.6074219c-0.5527344,0-1,0.4477539-1,1v61.25c0,0.5522461,0.4472656,1,1,1h1.2236328  c8.1904297,0,16.3398438,2.0083008,24.2226562,5.96875C40.6835938,88.9243164,45.2382812,90,49.9960938,90  s9.3125-1.0756836,13.5351562-3.1977539c7.8837891-3.9604492,16.0341797-5.96875,24.2236328-5.96875h1.2226562  c0.265625,0,0.5195312-0.1054688,0.7070312-0.2929688c0.1875-0.1879883,0.2929688-0.4423828,0.2929688-0.7075195l-0.0390625-61.25  c0-0.5522461-0.4482422-0.9995117-1-0.9995117h-6.5673828V12h6.625c0.5527344,0,1-0.4477539,1-1s-0.4472656-1-1-1h-78  c-0.5527344,0-1,0.4477539-1,1S10.4433594,12,10.9960938,12z M87.9765625,78.8334961h-0.2216797  c-8.5039062,0-16.9560547,2.0795898-25.1220703,6.1816406C58.6914062,86.9956055,54.4394531,88,49.9960938,88  s-8.6953125-1.0043945-12.6376953-2.9848633c-8.1640625-4.1020508-16.6162109-6.1816406-25.1210938-6.1816406h-0.2236328v-59.25  h75.9257812L87.9765625,78.8334961z M80.3710938,17.5834961h-60.75V12h60.75V17.5834961z"></path></svg>