<svg height='100px' width='100px'  fill="#000000" xmlns="http://www.w3.org/2000/svg" xmlns:xlink="http://www.w3.org/1999/xlink" version="1.1" x="0px" y="0px" viewBox="0 0 100 100" enable-background="new 0 0 100 100" xml:space="preserve"><path fill-rule="evenodd" clip-rule="evenodd" d="M82.938,49.13c-0.29,0.696-1.473,0.338-2.216,0.445  c-0.436,0.062-0.138-1.17-0.929-1.577c-0.595-0.306-1.061,0.668-1.525,1.019c-0.595,0.449-1.127,0.988-1.746,1.397  c-0.719,0.475-1.51,0.836-2.254,1.272c-0.909,0.532-1.809,1.084-2.705,1.641c-0.961,0.596-1.9,1.225-2.873,1.798  c-0.28,0.165-0.656,0.461-0.966,0.031c-0.279-0.385-0.021-0.654,0.243-0.94c0.84-0.907,1.667-1.825,2.466-2.768  c0.132-0.156,0.277-0.512,0.124-0.694c-0.163-0.194-0.544-0.092-0.752,0.005c-0.287,0.131-0.521,0.389-0.762,0.612  c-0.437,0.408-0.88,0.812-1.284,1.25c-0.285,0.309-0.489,0.692-0.768,1.006c-0.625,0.705-1.247,1.415-1.922,2.07  c-0.431,0.418-0.973,0.719-1.433,1.109c-0.555,0.472-1.057,1.004-1.616,1.47c-0.562,0.467-1.021,1.284-1.753,1.325  c-0.065,0.004-0.145-0.038-0.168-0.097c-0.048-0.124,0.045-0.288,0.125-0.372c0.95-0.989,1.723-2.089,2.254-3.362  c0.109-0.261,0.407-0.437,0.545-0.693c0.266-0.487,0.467-1.01,0.721-1.503c0.135-0.26,0.27-0.592,0.498-0.717  c0.952-0.519,0.913-1.506,1.154-2.342c0.111-0.385,0.954-1.343,0.081-1.299c-1.381,0.07-1.895,2.055-2.98,2.915  c-1.622,1.283-2.633,3.765-3.552,5.744c-0.563,1.213-1.951,2.384-1.613,3.718c0.198,0.779,1.032-0.256,1.456-0.532  c1.368-0.888,2.872-1.36,4.434-1.121c0.847,0.13,1.793,0.128,2.608,0.762c0.664,0.516,1.589,0.84,2.435,0.943  c1.294,0.157,2.621,0.04,3.932,0.073c0.138,0.003,0.217,0.393,0.4,0.371c0.007,0,0.017-0.014,0.012-0.017  c-0.792-0.713-1.774,0.295-2.665,0.294c-0.553,0-1.102-0.268-1.661-0.375c-0.287-0.055-0.619,0.054-0.884-0.042  c-1.063-0.389-2.078-0.982-3.17-1.204c-0.909-0.184-1.908-0.014-2.854,0.108c-0.969,0.125-1.754,0.689-2.584,1.189  c-0.807,0.485-1.819,0.617-2.731,0.937c-0.618,0.216-1.227,0.466-1.823,0.737c-0.741,0.339-1.469,0.707-2.194,1.078  c-0.373,0.191-0.82,0.307-0.823,0.877c-0.002,0.533,0.312,0.704,0.751,0.807c0.125,0.03,0.235,0.134,0.343,0.216  c0.347,0.267,0.664,0.384,1.147,0.209c0.538-0.194,1.205-0.064,1.716-0.293c0.856-0.383,1.613-0.979,2.45-1.415  c0.957-0.499,1.952-0.927,2.941-1.366c0.111-0.049,0.476-0.183,0.576,0.096c0.507,1.424-4.075,1.499-3.313,2.891  c0.229,0.42,0.825,0.014,1.17-0.004c0.722-0.033,1.571,0.145,2.136-0.175c1.182-0.668,2.775-0.397,3.673-1.705  c0.225-0.326,0.716-0.671,1.184-0.648c0.822,0.041-0.499,0.894-0.101,1.233c0.264,0.223,0.746,0.131,1.124,0.078  c1.524-0.214,3.042-0.466,4.56-0.728c0.387-0.068,0.756-0.233,1.14-0.332c0.111-0.029,0.292-0.061,0.363,0.039  c0.089,0.124-0.019,0.331-0.102,0.441c-0.623,0.813-1.504,1.171-2.483,1.275c-0.714,0.076-1.443,0-2.154,0.093  c-0.45,0.06-0.867,0.342-1.315,0.455c-0.938,0.236-1.888,0.42-2.831,0.633c-1.247,0.282-2.49,0.582-3.741,0.846  c-0.326,0.069-0.678,0.013-1.013,0.06c-0.14,0.021-0.362,0.094-0.392,0.247c-0.027,0.143,0.147,0.323,0.253,0.347  c0.901,0.213,1.715,0.872,2.729,0.529c0.129-0.043,0.372,0.001,0.451,0.096c0.527,0.639,1.207,0.063,1.809,0.237  c0.431,0.126,0.955-0.078,1.439-0.124c0.102-0.01,0.271-0.064,0.323,0.042c0.511,1.024-1.585,0.984-2.462,1.267  c-0.281,0.089-0.562,0.185-0.851,0.232c-0.199,0.032-0.496,0.143-0.617-0.024c-0.11-0.153,0.1-0.365,0.151-0.547  c0.017-0.064,0.256-0.152,0.116-0.386c-0.231-0.388-0.877-0.119-1.27-0.263c-0.725-0.266-1.507-0.265-2.22-0.523  c-0.469-0.169-0.879-0.492-1.336-0.701c-0.219-0.1-0.484-0.104-0.731-0.133c-0.109-0.014-0.252,0.066-0.333,0.021  c-0.185-0.101-0.527-0.174-0.507-0.386c0.021-0.214,0.394-0.292,0.574-0.275c0.553,0.053,1.43,0.137,1.363-0.377  c-0.062-0.48-0.698-0.528-1.023-0.748c-0.082-0.058-0.225-0.091-0.315-0.062c-0.756,0.245-1.781,0.128-2.26,0.762  c-0.045,0.061-0.055,0.166-0.011,0.227c0.263,0.364,1.075-0.026,1.299,0.363c0.029,0.053,0,0.137-0.047,0.177  c-0.745,0.637-1.952,0.283-2.925,0.267c-0.715-0.01-1.426-0.287-2.14-0.438c-0.152-0.032-0.34-0.089-0.464-0.033  c-0.848,0.389-1.603,0.023-2.379-0.245c-0.992-0.343-1.873,0.341-1.685,1.296c0.02,0.097,0.015,0.301,0.184,0.334  c0.435,0.085,0.603-0.928,0.964-0.771c0.051,0.022-0.027,0.127,0.012,0.166c0.299,0.297,0.849,0.015,1.255,0.101  c0.144,0.031,0.354,0.326,0.327,0.46c-0.082,0.431,0.149,0.524,0.441,0.767c0.866,0.717,1.935,0.812,2.922,1.153  c0.107,0.038,0.274,0.028,0.317,0.135c0.042,0.103-0.034,0.249-0.128,0.306c-0.447,0.271-1.077,0.014-1.56-0.149  c-1.102-0.369-2.098-0.989-3.222-1.346c-0.988-0.315-1.999-0.5-2.971-0.792c-0.949-0.284-1.526,0.141-2.258,0.456  c-1.19,0.514-2.445,0.883-3.625,1.417c-1.055,0.478-2.353,0.418-3.172,1.413c-0.152,0.185-0.283,0.387-0.406,0.592  c-0.612,1.028-1.356,1.992-2.5,2.367c-0.834,0.275-1.801,0.332-2.681,0.232c-0.814-0.092-1.449,0.303-2.165,0.45  c-0.729,0.15-1.41,0.532-2.113,0.815c-1.231,0.498-2.461,1.004-3.697,1.492c-0.539,0.213-1.089,0.403-1.642,0.58  c-0.896,0.287-2.313-0.627-2.427-1.522c-0.047-0.363,0.02-0.576,0.407-0.629c0.154-0.022,0.312-0.127,0.457-0.106  c1.168,0.164,2.036-0.562,3.019-0.975c1.21-0.508,2.455-0.934,3.687-1.396c0.862-0.324,1.736-0.624,2.58-0.995  c0.201-0.086,0.346-0.392,0.438-0.628c0.454-1.168,0.894-2.344,1.312-3.527c0.088-0.254,0.291-0.637,0.087-0.827  c-0.222-0.206-0.653,0.017-0.887,0.168c-0.88,0.574-1.709,1.225-2.579,1.816c-0.751,0.511-1.526,0.988-2.303,1.459  c-0.9,0.548-1.82,1.065-2.718,1.618c-0.165,0.102-0.237,0.351-0.399,0.461c-0.781,0.523-1.6,0.989-2.36,1.539  c-0.573,0.414-1.063,0.943-1.62,1.38c-0.305,0.237-0.67,0.399-1.015,0.582c-0.454,0.238-0.915,0.466-1.375,0.693  c-0.139,0.067-0.282,0.14-0.432,0.169c-0.436,0.09-0.915,0.075-1.307,0.256c-0.565,0.263-1.144,0.268-1.313-0.286  c-0.094-0.305,0.334-0.903,0.679-1.182c0.789-0.635,1.668-1.161,2.518-1.72c1.086-0.713,2.188-1.4,3.263-2.127  c1.035-0.701,2.041-1.445,3.069-2.156c0.999-0.691,2.007-1.375,3.021-2.046c0.889-0.587,1.778-1.175,2.692-1.723  c1.275-0.765,2.578-1.486,3.86-2.241c0.579-0.341,1.127-0.737,1.708-1.073c0.396-0.229,0.85-0.36,1.238-0.6  c0.35-0.216,0.681-0.488,0.961-0.791c1.197-1.292,2.367-2.606,3.562-3.9c0.141-0.153,0.565-0.105,0.59-0.371  c0.021-0.215-0.242-0.418-0.477-0.433c-0.979-0.066-1.579,1.138-2.397,1.643c-0.807,0.498-1.671,0.9-2.484,1.384  c-0.27,0.161-0.429,0.509-0.699,0.666c-0.748,0.433-1.556,0.765-2.287,1.221c-0.561,0.351-1.023,0.855-1.564,1.244  c-0.234,0.168-0.558,0.208-0.834,0.325c-0.214,0.089-0.426,0.192-0.623,0.316c-0.486,0.308-0.973,0.617-1.441,0.951  c-0.36,0.256-0.695,0.552-1.039,0.831c-0.863,0.701-1.717,1.415-2.596,2.096c-0.349,0.272-0.761,0.464-1.125,0.72  c-0.265,0.186-0.503,0.411-0.744,0.628c-0.201,0.181-0.366,0.504-0.587,0.542c-1.397,0.243-1.864,1.812-3.18,2.175  c-0.294,0.082-0.476,0.499-0.755,0.698c-0.664,0.472-1.23,1.515-2.06,1.371c-0.233-0.042-0.246-0.309-0.327-0.442  c-0.429-0.697-0.575-0.702-1.178-0.104c-0.289,0.288-0.642,0.51-0.938,0.79c-0.298,0.284-0.563,0.603-0.842,0.908  c-0.091,0.101-0.159,0.225-0.262,0.311c-0.983,0.844-1.978,1.676-2.959,2.524c-0.201,0.176-0.33,0.537-0.54,0.582  c-0.719,0.151-1.472,0.319-2.189,0.25c-0.619-0.06-0.675-0.861-0.531-1.436c0.292-1.162,1.424-1.233,2.101-1.873  c0.125-0.118,0.342-0.168,0.393-0.333c0.022-0.067,0.007-0.166-0.053-0.205c-0.167-0.11-0.396,0.084-0.593,0.086  c-0.271,0-0.675,0.17-0.812-0.063c-0.124-0.207,0.139-0.502,0.303-0.645c0.72-0.635,1.496-1.203,2.212-1.841  c0.819-0.73,1.597-1.508,2.391-2.267c1.139-1.089,2.152-2.271,2.942-3.649c0.388-0.674,0.914-1.268,1.372-1.902  c0.602-0.834,1.201-1.671,1.797-2.509c0.711-1,1.421-2.001,2.127-3.005c0.193-0.277,0.42-0.547,0.546-0.855  c0.419-1.03,0.793-2.08,1.204-3.114c0.286-0.722,0.65-1.417,0.898-2.15c0.268-0.785,0.417-1.611,0.656-2.406  c0.243-0.808,0.544-1.6,0.803-2.404c0.159-0.492,0.301-0.99,0.427-1.493c0.119-0.476,0.117-1.006,0.328-1.431  c0.513-1.022,0.731-2.112,1.009-3.203c0.241-0.947,0.315-1.837,0.076-2.774c-0.446-1.754,0.066-4.094-1.324-5.288  c-0.493-0.425-1.255-0.095-1.854-0.189c-0.218-0.034-0.461-0.176-0.597-0.346c-0.051-0.062,0.13-0.392,0.275-0.52  c0.732-0.646,0.737-0.883,0.131-1.707c-1.021-1.384-2.124-2.681-3.481-3.757c-0.583-0.464-1.04-1.106-1.659-1.505  c-0.659-0.426-1.446-0.652-2.171-0.985c-0.226-0.103-0.439-0.248-0.629-0.409c-0.364-0.311-1.03,0.014-1.275-0.632  c-0.028-0.076-0.686,0.124-1.053,0.127c-0.256,0.003-0.64,0.057-0.771-0.172c-0.132-0.232,0.078-0.612,0.251-0.75  c0.645-0.511,1.335-0.969,2.034-1.405c0.215-0.133,0.54-0.233,0.768-0.171c1.088,0.297,2.035-0.023,2.958-0.555  c0.089-0.053,0.253-0.146,0.386-0.049c0.124,0.093-0.012,0.342,0.072,0.387c0.168,0.09,0.47-0.266,0.521-0.213  c0.294,0.293,0.565,0.625,0.768,0.987c0.074,0.135-0.041,0.393-0.102,0.584c-0.224,0.708-0.161,0.732,0.585,0.688  c0.316-0.019,0.665,0.219,0.97,0.391c0.267,0.149,0.446,0.554,0.677,0.514c0.952-0.165,0.955-1.504,1.4-2.187  c0.04-0.062,0.156-0.125,0.222-0.112c0.643,0.123,1.389,0.103,1.89,0.442c0.472,0.319,1.124,0.819,0.798,1.658  c-0.048,0.127-0.1,0.378,0.04,0.462c0.936,0.574,1.425-0.341,1.614,0.357c0.116,0.434-0.026,0.943-0.076,1.415  c-0.022,0.223-0.377,0.494-0.18,0.769c0.194,0.268,0.608,0.089,0.881,0.068c0.503-0.042,0.604-0.332,0.383-0.796  c-0.084-0.178-0.109-0.528-0.003-0.627c0.408-0.379,0.88-0.688,1.329-1.022c0.392-0.292,0.206,0.196,0.643,0.361  c0.731,0.277,0.352-1.084,0.228-1.586c-0.157-0.64,0.085-1.036,0.946-1.27c0.645-0.174,0.942,0.016,1.104,0.661  c0.054,0.21,0.027,0.601,0.328,0.681c0.345,0.092,0.719-0.24,0.806-0.542c0.04-0.139-0.082-0.22-0.13-0.293  c-0.641-0.981-0.273-1.681,0.904-1.776c0.306-0.024,0.601-0.216,0.905-0.229c0.415-0.02,0.896-0.058,1.234,0.125  c0.369,0.2,0.529,0.607,0.199,1.099c-0.302,0.449-0.46,0.994-0.67,1.502c-0.238,0.578-0.228,1.052,0.489,1.295  c0.512,0.174,0.755,0.46,0.334,1.009c-0.118,0.153-0.313,0.635-0.018,0.828c0.616,0.401,1.139-0.512,1.658,0.063  c0.228,0.252,0.836,0.146,1.266,0.23c0.761,0.147,0.98,0.673,0.821,1.356c-0.11,0.479,0.017,0.619,0.493,0.726  c0.238,0.054,0.537,0.411,0.588,0.726c0.013,0.077-0.133,0.166-0.079,0.223c0.435,0.464,1.245-0.288,1.833-0.521  c0.395-0.157,0.695-0.576,1.092-0.697c0.747-0.229,0.708-0.64,0.59-1.275c-0.098-0.531,0.006-1.123,0.127-1.665  c0.123-0.542,1.364-0.899,1.836-0.582c0.84,0.563,0.84,0.562,1.448-0.154c0.043-0.049,0.09-0.126,0.172-0.131  c0.884-0.057,0.246,0.786,1.485,1.957c0.439,0.417,1.016-0.413,1.409-0.681c0.181-0.124,0.314-0.468,0.298-0.701  c-0.071-1.019-0.371-1.67,0.658-1.721c0.432-0.021,0.678,0.554,1.049,0.789c0.18,0.113,0.494,0.234,0.633,0.153  c0.997-0.583,2.042,0.396,3.013-0.12c0.269-0.143,0.469-0.405,0.72-0.585c0.302-0.216,0.477-0.427,0.358-0.851  c-0.042-0.145,0.196-0.492,0.373-0.552c0.498-0.168,0.943-0.836,1.543-0.296c0.219,0.197,0.692,0.704,0.358,0.922  c-0.229,0.149-0.432-0.566-0.841-0.474c-0.356,0.08-0.517,0.588-0.641,0.942c-0.253,0.723-0.817,1.109-1.383,1.524  c-0.441,0.323-0.982,0.499-1.282,1.043c-0.083,0.15-0.648,0.271-0.89,0.089c-0.303-0.228,0.199-1.009-0.236-1.119  c-0.437-0.111-0.489,0.551-0.662,0.78c-0.289,0.382-0.565,0.761-1.137,0.485c-0.062-0.03-0.227,0.007-0.247,0.054  c-0.277,0.65-0.751,0.575-1.344,0.513c-0.66-0.069-0.562,1.718-1.321,1.969c-0.183,0.06-0.33-0.38-0.287-0.483  c0.25-0.604-0.12-0.758-0.566-0.901c-0.838-0.27-0.85-0.346-0.354-1.069c0.102-0.15,0.221-0.45,0.083-0.609  c-0.361-0.417-0.924,0.108-1.022,0.636c-0.009,0.043-0.025,0.112-0.054,0.123c-0.856,0.302-0.168,1.729-1.029,1.935  c-0.847,0.204,0.206-1.05-0.063-2.215c-0.108-0.466-0.856-0.453-1.118-0.357c-0.479,0.176-0.601,0.673-0.467,1.201  c0.094,0.374-0.141,0.91,0.227,1.25c0.47,0.436,0.789,0.68,0.987,1.308c0.156,0.493,0.544,0.799,1.107,0.683  c0.541-0.112,0.791,0.17,0.82,0.63c0.03,0.479-0.007,0.97-0.083,1.445c-0.112,0.713-1.03,0.982-1.975,0.68  c-0.594-0.189-1.221-0.294-1.84-0.37c-0.113-0.015-0.305,0.277-0.392,0.46c-0.076,0.157,0.126,0.491-0.082,0.586  c-1.214,0.553-1.188-0.761-1.325,0.507c-0.123,1.14-0.354,2.202-1.039,3.133c-0.171,0.231-0.373,0.442-0.58,0.641  c-0.83,0.804-1.685,1.583-2.496,2.404c-0.363,0.367-0.979,0.699-0.973,1.219c0.001,0.082,0.076,0.182,0.158,0.191  c0.571,0.065,0.921-0.686,1.363-1.052c1.061-0.88,2.033-1.898,3.193-2.613c0.652-0.402,1.605-0.321,2.426-0.442  c0.095-0.014,0.218,0.057,0.306,0.12c0.229,0.168,0.554,0.548,0.646,0.497c0.33-0.186,0.58-0.513,0.858-0.789  c0.032-0.031,0.086-0.07,0.073-0.113c0,0-0.016,0.032-0.022,0.026c-0.118-0.1,0.095-0.482,0.361-0.449  c0.416,0.051,0.061,1.034,0.505,1.089c0.744,0.091-0.122-1.255,0.753-1.984c0.975-0.814,2.203-0.24,3.168,0.597  c0.196,0.17,0.841-0.101,1.24-0.261c0.274-0.11,0.509-0.36,0.711-0.591c0.074-0.086,0.067-0.331-0.002-0.439  c-0.161-0.253-0.428-0.443-0.571-0.703c-0.239-0.43-0.471-0.334-0.727-0.053c-0.15,0.166-0.259,0.37-0.417,0.524  c-0.074,0.071-0.238,0.113-0.333,0.082c-0.824-0.266-1.828,0.966-2.47,0.037c-0.413-0.596,0.328-0.748,0.983-1.499  c0.372-0.426,0.978,0.596,1.296,0.373c0.168-0.116-0.037-0.451,0.062-0.56c0.079-0.085,0.368-0.052,0.522,0.021  c1.223,0.575,2.04,0.284,2.576-0.916c0.135-0.303,0.363-0.562,0.503-0.862c0.1-0.214,0.172-0.466,0.165-0.7  c-0.006-0.208-0.167-0.409-0.205-0.623c-0.038-0.22,0.082-0.478-0.008-0.614c-0.179-0.274-0.682-0.114-0.822-0.363  c-0.051-0.091-0.031-0.234,0.042-0.311c0.58-0.615,2.218,0.357,2.555-0.487c0.073-0.185-0.206-0.284-0.293-0.409  c-0.104-0.147-0.373-0.279-0.304-0.445c0.082-0.19,0.443-0.156,0.603-0.088c0.314,0.132,0.496,0.724,1.038,0.672  c0.25-0.023,0.474-0.516,0.821-0.792c0.2-0.159,0.502-0.182,0.725-0.322c0.258-0.162,0.615-0.349,0.673-0.587  c0.05-0.201-0.373-0.465-0.365-0.652c0.018-0.385,0.477-0.666,0.752-1c0.164-0.2,0.344-0.462,0.567-0.53  c0.575-0.176,1.195-0.212,1.766-0.402c0.275-0.093,0.537-0.371,0.688-0.632c0.071-0.124-0.078-0.455-0.221-0.606  c-0.302-0.319-0.622-0.092-0.909,0.08c-0.134,0.08-0.242,0.208-0.356,0.318c-0.482,0.473-1.288,0.643-1.387-0.094  c-0.01-0.072,0.043-0.208,0.095-0.222c0.891-0.246,1.603-1.171,2.582-0.908c0.51,0.137,1.099,0.656,1.281,1.143  c0.186,0.495-0.392,0.774-0.927,0.971c-0.764,0.283-1.475,0.725-2.176,1.15c-0.152,0.092-0.265,0.422-0.232,0.614  c0.094,0.536-0.148,1.297-0.633,1.499c-1.076,0.447-1.971,1.116-2.801,1.93c-0.309,0.302-0.626,0.771-1.271,0.661  c-0.218-0.037-0.916,0.4-0.716,0.71c0.418,0.648,1.363-0.066,1.951,0.454c0.193,0.173,0.793,0.082,1.09-0.09  c1.018-0.585,1.925-1.388,2.986-1.854c0.708-0.31,1.261-0.8,1.911-1.158c0.485-0.268,0.899-0.664,1.354-0.991  c0.597-0.428,1.199-0.847,1.802-1.266c0.753-0.524,1.537-1.007,2.253-1.576c0.649-0.518,1.355-0.763,2.172-0.837  c0.297-0.026,0.572-0.278,0.863-0.411c0.758-0.344,2.579,0.258,1.896,0.937c-0.211,0.21-0.505-0.256-0.724-0.247  c-0.568,0.021-1.202-0.03-1.684,0.206c-1.429,0.693-2.809,1.49-4.181,2.289c-0.652,0.381-1.256,0.85-1.858,1.31  c-0.103,0.077-0.241,0.339-0.134,0.461c0.114,0.127,0.353-0.013,0.506-0.074c0.604-0.244,1.209-0.499,1.797-0.781  c0.145-0.069,0.286-0.231,0.34-0.399c0.001-0.003-0.006-0.016-0.001-0.016c0.832-0.109-0.573,1.045-1.024,1.334  c-1.331,0.856-2.747,1.578-4.103,2.396c-1.021,0.619-1.995,1.319-3.008,1.956c-0.541,0.341-1.099,0.674-1.688,0.919  c-0.76,0.315-1.233,0.884-1.035,1.635c0.237,0.897-0.319,1.439-0.817,1.916c-0.801,0.766-0.863,0.708-1.834-0.01  c-0.404-0.3-1.315,0.05-1.336,0.635c-0.036,0.899-0.418,1.189-1.246,1.179c-0.283-0.002-0.592,0.44-0.866,0.281  c-1.02-0.595,1.984-0.899,1.345-1.455c-0.613-0.535-0.586,0.465-1.926,1.07c-0.192,0.087-0.305-0.22-0.388-0.344  c-0.133-0.195-0.277-0.609-0.324-0.597c-0.313,0.087-0.618,0.239-0.894,0.419c-0.115,0.076-0.148,0.272-0.221,0.413  c-0.22,0.428-0.489,0.765-1.051,0.687c-0.195-0.026-0.406,0.006-0.603,0.047c-0.263,0.054-0.665-0.053-0.844,0.231  c-0.248,0.396-0.139,1.069,0.246,1.393c0.188,0.156,0.478,0.046,0.685-0.009c0.668-0.178,1.209,0.051,1.764,0.393  c0.131,0.08,0.549-0.043,0.635-0.19c0.772-1.317,1.042-1.479,2.239-0.663c0.826,0.564,1.404,0.164,2.007-0.199  c1.69-1.018,3.351-2.088,5.021-3.142c0.981-0.618,1.945-1.264,2.942-1.854c0.751-0.445,1.547-1.153,2.315-1.143  c0.901,0.014,1.015-0.812,1.686-0.976c0.657-0.16,1.214-0.699,1.849-1c1.606-0.761,3.235-1.477,4.853-2.22  c0.788-0.36,1.567-0.738,2.348-1.112c0.059-0.029,0.149-0.092,0.145-0.13c-0.112-0.924,1.741-1.249,1.194-1.656  c-0.005-0.004-0.018,0.011-0.018,0.017c0.002,0.316,0.455,0.438,0.666,0.672c0.396,0.438,0.687,0.589,1.297,0.142  c0.604-0.443,1.432-0.629,2.19-0.795c0.944-0.206,1.723-0.696,2.537-1.16c0.656-0.373,1.367-0.66,2.073-0.932  c0.189-0.072,0.676-0.096,0.692,0.17c0.045,0.782-1.162,0.965-2.033,1.047c-0.666,0.064-1.289,0.578-1.93,0.896  c-0.346,0.172-0.675,0.379-1.031,0.524c-0.437,0.176-0.907,0.272-1.337,0.462c-0.472,0.209-0.426,0.589-0.168,0.643  c0.538,0.113,0.946-0.159,1.342-0.257c0.257-0.063,0.51-0.166,0.747-0.285c1.189-0.597,2.367-1.216,3.56-1.803  c0.449-0.222,1.161-0.921,1.418-0.491c1.382,2.323-5.735,2.919-5.679,5.556c0.028,1.28,1.647,1.863,2.243,2.875  c0.583,0.99,1.424,1.785,1.832,2.75c0.569,1.351,0.896,3.236,2.352,3.587c0.611,0.146,1.226-0.62,1.807-1.06  c0.476-0.359,0.822-0.885,1.247-1.316c0.129-0.129,0.325-0.256,0.493-0.258c0.099-0.002,0.234,0.228,0.297,0.377  c0.546,1.291-0.55,1.93-1.15,2.729c-0.37,0.491-0.923,0.849-1.416,1.239c-0.238,0.189-0.621,0.209-0.808,0.472  c-0.208,0.29-0.539,0.89-0.228,1.161c0.04,0.033,0.103-0.077,0.147-0.051c0.536,0.288,0.335,1.173,0.435,1.772  c0.116,0.686,0.336,0.889,0.998,0.658c0.466-0.162,0.876-0.498,1.345-0.635c0.346-0.101,0.884-0.285,1.127,0.003  c0.228,0.27-0.003,0.765-0.179,1.032c-0.279,0.424-0.685,0.782-1.09,1.1c-0.155,0.12-0.581,0.153-0.661,0.05  c-0.151-0.189,0.047-0.608-0.209-0.853c-0.37-0.354-1.455,0.148-1.129,0.771c0.054,0.103,0.215,0.059,0.307,0.105  c0.174,0.087,0.474,0.094,0.507,0.285c0.035,0.208-0.261,0.434-0.418,0.456c-0.959,0.135-1.053,0.975-1.361,1.62  c-0.278,0.58-0.521,1.182-0.71,1.795c-0.123,0.4-0.292,0.913-0.145,1.24c0.298,0.659-0.04,1.138-0.184,1.698  c-0.117,0.456-0.231,0.963-0.147,1.408c0.093,0.485,0.301,0.915-0.111,1.344c-0.024,0.025,0.096,0.275,0.193,0.319  c0.856,0.383,1.3,1.131,1.713,1.905c0.083,0.154,0.071,0.411,0.189,0.485c0.421,0.267,0.486,0.64,0.562,1.097  c0.101,0.608,0.43,1.176,0.543,1.783c0.091,0.491,0.04,1.018-0.019,1.52c-0.017,0.147-0.257,0.298-0.427,0.381  c-0.073,0.036-0.33-0.105-0.326-0.148c0.02-0.176,0.066-0.376,0.174-0.513c0.389-0.492,0.288-0.912-0.036-1.408  c-0.231-0.352-0.223-0.862-0.458-1.208c-0.855-1.257-1.535-2.642-2.693-3.688c-0.25-0.227-0.41-0.644-0.45-0.994  c-0.138-1.186-0.663-1.573-1.796-1.248c-0.583,0.168-1.175,0.308-1.76,0.472c-0.668,0.188-0.772,0.541-0.362,1.094  c0.551,0.743,1.095,1.491,1.615,2.254c0.241,0.354,0.515,0.728,0.609,1.132c0.213,0.895,1.064,1.459,1.179,2.375  c0.117,0.932,0.087,1.891,0.29,2.801c0.183,0.82-0.082,1.511-0.228,2.268c-0.107,0.558,0.128,1.175,0.097,1.759  c-0.031,0.588-0.228,1.166-0.308,1.754c-0.184,1.343,0.254,2.491,1.213,3.423c0.224,0.216,0.782,0.125,0.877,0.447  c0.31,1.045-0.792,0.986-1.421,0.274c-0.334-0.378-0.513-0.903-0.866-1.255c-1.061-1.053-0.781-2.377-0.83-3.639  c-0.012-0.319,0.006-0.645-0.051-0.955c-0.071-0.392-0.271-0.757,0.268-1.022c0.108-0.054,0.039-0.518,0.012-0.789  c-0.033-0.353-0.122-0.699-0.16-1.051c-0.119-1.107-0.205-2.218-0.358-3.319c-0.028-0.196-0.348-0.332-0.479-0.533  c-0.76-1.164-1.493-2.345-2.255-3.51c-0.552-0.846-1.095-1.705-1.722-2.493c-0.205-0.259-0.669-0.46-1-0.442  c-1.146,0.062-2.284,0.235-3.425,0.362c-0.112,0.013-0.227,0.02-0.339,0.008c-1.28-0.134-2.552-0.003-3.824,0.12  c-0.016,0.001-0.036,0.028-0.042,0.048c-0.252,0.99,0.144,1.062-0.869,0.813c-0.675-0.165-1.339-0.395-2.024-0.51  c-0.464-0.078-0.954,0.01-1.433-0.008c-0.286-0.011-0.665,0.084-0.854-0.134c-0.048-0.053-0.045-0.15-0.009-0.21  c0.144-0.247,0.496-0.296,0.765-0.386c0.325-0.11,0.442-0.254,0.418-0.628c-0.035-0.544,0.511-0.541,0.845-0.664  c1.101-0.41,2.342-0.422,3.294-1.264c0.267-0.236,0.689-0.305,1.052-0.419c0.977-0.303,1.958-0.594,2.942-0.876  c0.138-0.04,0.398-0.051,0.433,0.013c0.337,0.635,0.997,0.425,1.504,0.572c0.189,0.055,0.661-0.053,0.706-0.312  c0.04-0.236-0.311-0.411-0.515-0.486c-0.311-0.117-0.769,0.08-1.002-0.167c-0.807-0.855-0.079-1.367,1.263-1.924  c0.739-0.307,1.425-0.744,2.139-1.117c0.902-0.47,1.797-1.911,2.779-1.436c0.668,0.322-0.13,1.012-0.585,1.232  c-0.787,0.377-1.567,0.773-2.333,1.195c-0.634,0.348-0.774,0.766-0.462,1.41c0.408,0.843,0.855,1.667,1.304,2.489  c0.302,0.552,1.133,0.883,1.708,0.71c0.948-0.285,1.89-0.597,2.848-0.841c0.437-0.112,0.498-0.375,0.525-0.737  c0.046-0.61,0.031-1.243,0.201-1.819c0.163-0.551,0.556-1.028,0.793-1.562c0.098-0.221,0.085-0.513,0.037-0.755  c-0.01-0.055-0.374-0.07-0.572-0.055c-0.356,0.028-0.71,0.085-1.062,0.144c-0.621,0.102-2.234-0.468-1.791-0.985  c0.999-1.169,3.706,1.181,4.344-0.276c0.113-0.261,0.042-0.66-0.212-0.859c-0.387-0.301-1.103,0.337-1.432,0  c-0.52-0.53,0.648-0.671,1.1-0.875c0.314-0.141,0.709-0.351,0.825-0.63c0.174-0.421,0.161-0.93,0.178-1.403  c0.011-0.291,0.133-0.717-0.115-0.877c-0.328-0.212-0.751,0.211-1.12,0.333c-0.077,0.025-0.124,0.172-0.193,0.178  c-0.218,0.024-0.49,0.149-0.661,0.009c-0.053-0.042-0.064-0.135-0.041-0.199c0.231-0.659,1.653-0.643,1.612-1.341  c-0.017-0.273-0.462-0.22-0.598-0.136c-0.544,0.332-1.035,0.753-1.589,1.066c-0.56,0.315-0.623,0.646-0.143,1.038  c0.335,0.273,0.313,0.53,0.069,0.808c-0.369,0.425-1.371,0.675-1.208,1.315c0.041,0.168,0.382,0.208,0.573,0.18  C82.167,48.533,83.164,48.589,82.938,49.13z M41.516,62.027c-0.188,0.028-0.238-0.348-0.396-0.401  c-0.565-0.19-1.84,0.448-2.057,0.999c-0.162,0.415-0.327,0.829-0.47,1.251c-0.377,1.124-1.421,2.229-1.12,3.413  c0.09,0.357,0.596,0.28,0.833-0.071c0.644-0.957,1.264-1.929,1.867-2.91c0.467-0.762,0.462-2.448,1.346-2.318  c0.413,0.061,0.385,1.089,0.259,1.175c-0.882,0.613-0.989,1.715-1.663,2.437c-0.074,0.08-0.107,0.287-0.041,0.41  c0.03,0.057,0.107,0.106,0.172,0.095c2.144-0.396,5.506-3.11,4.312-5.081c-0.181-0.299-0.609,0.323-0.842,0.19  c-0.137-0.079-0.05-0.292-0.121-0.356c-0.254-0.228-0.508-0.533-0.809-0.602c-0.167-0.038-0.481,0.302-0.634,0.533  C41.898,61.176,41.974,61.959,41.516,62.027z M42.792,55.142c-0.207-0.268,0.414-0.624,0.34-0.8  c-0.163-0.384-0.641-0.254-0.896-0.346c-0.078-0.027-0.185-0.056-0.25-0.024c-0.058,0.028-0.112,0.2-0.106,0.203  c0.396,0.234,0.671,0.328,0.936,0.95c0.277,0.654-1.149,0.854-1.33,1.638c-0.104,0.449-0.287,0.918-0.566,1.277  c-0.396,0.508-1.055,1.547-0.31,1.801c0.838,0.286,1.448-0.737,1.765-1.556c0.198-0.512,0.462-1.005,0.749-1.474  c0.209-0.341,0.385-0.844,0.722-0.89c1.011-0.135-0.498,1.498,0.127,2.036c0.481,0.414,1.049-0.388,1.466-0.618  c0.885-0.491,1.69-1.177,2.626-1.508c1.31-0.464,2.329-1.319,3.437-2.07c0.438-0.298,0.429-0.74,0.208-0.981  c-0.64-0.702-1.358-1.339-2.102-1.935c-0.187-0.149-0.583-0.079-0.872-0.036c-0.114,0.019-0.417,0.208-0.333,0.408  c0.159,0.373,0.743-0.083,0.943,0.101c0.055,0.049,0.077,0.147,0.044,0.211c-0.175,0.339-0.718,0.274-1.046,0.463  c-0.58,0.333-1.146,0.693-1.698,1.07c-0.716,0.486-1.408,1.009-2.122,1.499c-0.267,0.183-0.56,0.349-0.864,0.452  C43.388,55.106,42.971,55.376,42.792,55.142z M75.786,32.827c-0.017-0.042,0.053-0.075,0.067-0.118  c0.285-0.915,0.047-1.236-0.825-1.051c-0.362,0.077-0.71,0.253-1.049,0.418c-0.885,0.431-1.737,0.928-2.642,1.308  c-1.163,0.486-2.38,0.75-3.438,1.586c-0.856,0.677-2.311,2.326-3.229,1.43c-0.224-0.218,0.137-0.64,0.307-0.742  c1.23-0.727,2.458-1.468,3.748-2.077c1.307-0.618,2.69-1.072,4.024-1.637c0.521-0.222,1.328-0.29,1.491-0.836  c0.03-0.099-0.043-0.242-0.14-0.275c-0.654-0.221-1.171,0.958-1.946,0.931c-0.093-0.003-0.235-0.215-0.367-0.209  c-0.363,0.016-0.533,0.422-0.808,0.55c-0.933,0.438-1.878,0.855-2.825,1.261c-0.76,0.323-1.562,0.557-2.289,0.938  c-1.349,0.708-2.647,1.512-3.986,2.238c-0.682,0.371-1.435,0.615-2.103,1.005c-0.747,0.436-1.406,1.03-2.164,1.445  c-0.437,0.24-0.693,0.292-1.468,0.52c-0.792,0.232-1.092,1.016-1.788,1.4c-1.061,0.588-1.962,1.452-2.966,2.148  c-0.514,0.355-0.471,0.903,0.064,0.891c0.656-0.014,0.974-0.864,1.505-1.211c1.231-0.805,1.572-0.954,1.58-0.535  c0.009,0.576-1.11,0.555-1.365,1.086c-0.026,0.054-0.009,0.127,0.001,0.191c0.15,0.943,0.771,1.94-0.328,2.743  c-0.069,0.05-0.233,0.326-0.06,0.46c0.352,0.268,0.786-0.228,1.06-0.43c0.801-0.591,1.529-1.282,2.346-1.844  c0.954-0.656,2.565-2.811,3.043-1.675c0.306,0.728-1.283,0.924-1.887,1.433c-0.707,0.594-2.006,0.939-2.053,1.862  c-0.004,0.067,0.068,0.14,0.136,0.152c1.229,0.218,2.216-1.158,3.299-1.778c0.855-0.493,1.684-1.039,2.509-1.585  c0.886-0.585,1.782-1.162,2.62-1.812c0.715-0.555,1.605-0.803,2.285-1.436c0.371-0.347,0.927-0.502,1.411-0.715  c0.804-0.354,1.536-0.798,2.188-1.398c0.253-0.232,0.623-0.336,0.934-0.51c1.179-0.655,2.374-1.283,3.528-1.978  c0.841-0.507,2.79-0.585,2.629-1.785C76.766,32.675,75.889,33.104,75.786,32.827z M72.407,43.342  c-0.054,0.036-0.139,0.014-0.191-0.024c-0.141-0.101-0.129-0.33-0.234-0.464c-0.242-0.305-0.478-0.736-0.958-0.47  c-0.658,0.362-1.408,0.674-1.886,1.214c-0.674,0.761-1.412,1.335-2.284,1.848c-1.232,0.726-2.352,1.644-3.527,2.469  c-0.327,0.229-0.678,0.43-1.026,0.627c-0.286,0.163-0.608,0.27-0.874,0.46c-0.947,0.675-1.878,1.376-2.813,2.067  c-0.128,0.094-0.298,0.166-0.365,0.293c-0.084,0.155-0.246,0.409-0.115,0.537c0.118,0.113,0.347-0.03,0.474-0.113  c1.14-0.747,2.245-1.546,3.407-2.256c1.243-0.761,2.471-1.532,3.633-2.421c1.351-1.035,2.772-1.979,4.172-2.949  c0.835-0.579,1.493-0.248,1.664,0.76c0.057,0.343,0.133,0.835,0.466,0.979c0.113,0.049,0.285-0.006,0.354-0.107  c0.409-0.604-0.544-1.544-0.184-2.177c0.038-0.064,0.131-0.117,0.203-0.098c0.262,0.071,0.346,0.435,0.442,0.681  c0.167,0.417,0.277,0.854,0.398,1.287c0.122,0.433,0.422,0.479,0.731,0.275c0.51-0.335,1.025-0.686,1.457-1.112  c0.325-0.322,0.563-0.71,0.68-1.227c0.16-0.703,0.548-1.37,0.929-1.997c0.11-0.182,0.56-0.274,0.81-0.214  c0.154,0.037,0.338,0.45,0.307,0.664c-0.055,0.363-0.236,0.72-0.424,1.046c-0.672,1.169-1.354,2.335-2.062,3.483  c-0.459,0.743-0.991,1.44-1.447,2.186c-0.133,0.219-0.198,0.548-0.146,0.795c0.101,0.473,0.021,1.179,0.478,1.403  c0.973,0.474,1.864-0.827,2.529-1.65c0.49-0.606,0.976-1.369,1.986-1.119c0.051,0.014,0.137-0.027,0.179-0.071  c0.663-0.721,1.422-1.382,1.959-2.188c0.631-0.944,1.487-1.562,2.398-2.146c0.799-0.513,0.974-0.974,0.535-1.824  c-0.472-0.917-1.076-1.769-1.507-2.703c-0.595-1.292-1.799-2.009-2.661-3.039c-0.474-0.566-1.256-0.808-1.463-1.688  c-0.146-0.624-0.979-0.7-1.529-0.361c-1.132,0.696-2.284,1.362-3.443,2.014c-0.894,0.502-1.823,0.94-2.711,1.452  c-0.937,0.542-1.836,1.146-2.763,1.706c-0.866,0.523-1.761,0.999-2.615,1.54c-0.888,0.561-1.742,1.177-2.615,1.76  c-0.36,0.242-0.73,0.471-1.104,0.694c-1.018,0.613-2.058,1.19-3.052,1.838c-0.666,0.435-1.53,0.555-1.985,1.347  c-0.191,0.331-0.564,0.628-0.924,0.777c-0.74,0.309-1.185,0.921-1.689,1.47c-0.15,0.164-0.231,0.529-0.151,0.722  c0.063,0.156,0.417,0.263,0.644,0.265c0.622,0.008,1.097,0.339,1.21,0.929c0.194,1.004,0.902,1.253,1.748,0.622  c0.822-0.613,1.645-1.231,2.487-1.82c1.012-0.707,2.04-1.388,3.066-2.075c1.001-0.67,2.005-1.335,3.012-1.996  c0.472-0.307,0.978-0.564,1.424-0.902c0.9-0.679,1.746-1.43,2.663-2.083c0.409-0.292,0.925-0.463,1.417-0.606  c0.704-0.204,0.896,0.415,1.079,0.861C72.687,42.727,72.646,43.179,72.407,43.342z M53.408,55.217  c-0.372-0.103-0.667,0.318-0.995,0.448c-0.482,0.19-0.98,0.517-1.461,0.498c-0.661-0.026-0.985,0.39-1.398,0.704  c-0.316,0.243-0.621,0.53-0.848,0.855c-0.143,0.208-0.186,0.528-0.157,0.784c0.012,0.104,0.325,0.213,0.516,0.25  c0.394,0.077,0.808,0.073,1.195,0.173c0.208,0.053,0.513,0.233,0.532,0.389c0.03,0.23-0.089,0.645-0.252,0.711  c-1.188,0.479-2.405,0.894-3.611,1.325c-0.767,0.272-1.682,0.02-2.321,0.752c-1.03,1.179-2.113,2.314-3.151,3.485  c-0.183,0.206-0.203,0.61-0.411,0.732c-0.676,0.394-1.468,1.108-1.06,1.773c0.177,0.289,0.529,0.001,0.678-0.065  c0.489-0.22,0.949-0.511,1.446-0.71c1.12-0.449,2.274-0.82,3.384-1.295c2.081-0.891,4.339-1.39,6.211-2.753  c0.054-0.04,0.108-0.085,0.171-0.108c1.798-0.612,3.461-1.489,5.031-2.553c0.104-0.071,0.392,0.075,0.411-0.064  c0.009-0.063-0.15-0.016-0.173-0.075c-0.781-2.028,1.812-3.951,2.696-5.937c0.935-2.099,5.793-3.271,4.392-5.236  c-0.479-0.67-1.458,0.34-1.944,0.686c-0.681,0.482-1.479,0.791-2.062,1.431c-0.248,0.273-0.687,0.365-0.973,0.615  c-0.393,0.342-0.737,0.707-1.322,0.676c-0.175-0.009-0.395,0.073-0.523,0.191c-0.455,0.413-0.858,0.886-1.323,1.288  c-0.571,0.494-0.597,0.795-0.152,1.44c0.149,0.219,0.261,0.633,0.153,0.827c-0.345,0.623-0.777,1.202-1.227,1.757  c-0.124,0.153-0.436,0.347-0.643,0.241c-0.246-0.124-0.281-0.556-0.225-0.785C54.221,56.746,54.31,55.466,53.408,55.217z   M22.399,56.16c0.016,0.101,0.085,0.225,0.185,0.244c0.339,0.063,0.632-0.316,0.872-0.552c0.693-0.68,1.377-1.377,2.014-2.113  c0.855-0.988,1.66-2.021,2.492-3.029c0.576-0.697,1.128-1.417,1.753-2.068c0.747-0.781,1.614-1.454,2.324-2.265  c0.325-0.374,0.428-0.957,0.575-1.46c0.072-0.252,0.012-0.542,0.022-0.813c0.053-1.496-0.066-2.968-0.766-4.32  c-0.234-0.451-0.638-0.811-0.914-1.244c-0.287-0.452-0.597-0.414-0.963-0.143c-0.254,0.188-0.478,0.461-0.761,0.558  c-1.096,0.372-1.53,1.439-2.191,2.202c-0.55,0.637-0.603,1.705-0.875,2.582c-0.303,0.969-0.594,1.941-0.909,2.906  c-0.29,0.889-0.654,1.758-0.894,2.66c-0.286,1.08-0.415,2.202-0.724,3.274C23.291,53.789,22.203,54.911,22.399,56.16z M38.784,61.51  c-0.126-0.353-0.534-0.38-0.782-0.453c-0.199-0.058-0.508-0.064-0.648,0.053c-0.469,0.387-0.888,0.835-1.318,1.268  c-0.758,0.761-1.511,1.526-2.265,2.292c-0.546,0.556-1.195,1.048-1.606,1.692c-0.642,1.006-1.13,2.112-1.66,3.186  c-0.248,0.5-0.46,1.02-0.655,1.543c-0.167,0.446-0.274,0.916-0.435,1.367c-0.184,0.524-0.251,1.21-0.624,1.521  c-0.692,0.581-1.524,1.084-2.382,1.359c-1.358,0.435-2.776,0.612-4.02,1.45c-0.727,0.49-1.652,0.682-2.479,1.029  c-0.241,0.102-0.627,0.152-0.69,0.428c-0.125,0.533,0.65,0.408,1.034,0.271c1.586-0.558,3.172-1.115,4.756-1.681  c0.63-0.224,1.269-0.434,1.875-0.709c0.676-0.308,1.31-0.703,1.983-1.018c0.19-0.089,0.51-0.126,0.67-0.025  c1.097,0.687,2.169,0.238,3.238-0.039c0.24-0.062,0.468-0.266,0.646-0.456c1.35-1.437,1.99-3.294,2.894-4.993  c0.274-0.518,0.397-1.123,0.549-1.699c0.293-1.109,0.511-2.239,0.838-3.336C38.014,63.521,39.143,62.512,38.784,61.51z   M4.825,78.577c-0.02,0.09,0.042,0.201,0.12,0.25c0.326,0.205,0.84,0.132,1.14-0.026c0.718-0.382,1.413-0.844,2.027-1.377  c1.301-1.133,2.555-2.324,3.81-3.51c0.895-0.844,1.76-1.718,2.638-2.579c0.545-0.535,1.052-1.116,1.646-1.588  c0.887-0.706,1.865-1.295,2.752-2.001c1.287-1.023,2.505-2.135,3.794-3.157c1.127-0.892,2.304-1.726,3.479-2.554  c0.502-0.353,1.107-0.563,1.581-0.945c0.78-0.629,1.445-1.404,2.245-2.008c0.772-0.583,1.697-0.963,2.471-1.545  c0.952-0.714,1.81-1.555,2.724-2.322c0.237-0.2,0.545-0.313,0.795-0.502c0.159-0.119,0.498-0.278,0.402-0.458  c-0.442-0.824-0.926,0.113-1.425,0.759c-0.08,0.105-0.199,0.186-0.313,0.258c-0.471,0.296-0.969,0.554-1.414,0.885  c-0.549,0.407-1.024,0.917-1.587,1.302c-0.613,0.418-1.315,0.705-1.934,1.119c-0.91,0.61-1.789,1.271-2.663,1.932  c-0.624,0.473-1.036,1.578-1.856,1.503c-0.435-0.04-0.74-0.431-0.062-0.864c1.275-0.816,2.44-1.802,3.656-2.711  c0.311-0.232,0.64-0.438,0.959-0.659c0.638-0.442,1.267-0.896,1.912-1.324c0.684-0.455,1.381-0.886,2.074-1.327  c0.096-0.061,0.203-0.106,0.292-0.175c1.243-0.941,2.48-1.89,3.722-2.831c1.197-0.908,2.402-1.8,3.589-2.718  c0.403-0.312,0.782-0.665,1.135-1.034c0.356-0.373,0.357-0.662-0.251-0.776c-0.506-0.095-0.993-0.295-1.499-0.383  c-0.296-0.05-0.707-0.084-0.902,0.075c-0.621,0.502-1.155,1.11-1.742,1.657c-0.313,0.29-0.663,0.544-1.009,0.796  c-0.577,0.423-1.19,0.798-1.739,1.254c-0.616,0.513-1.175,1.097-1.769,1.639c-0.131,0.119-0.339,0.164-0.447,0.294  c-0.764,0.919-1.601,1.746-2.675,2.305c-0.085,0.044-0.121,0.176-0.19,0.26c-0.23,0.279-0.439,0.583-0.705,0.828  c-1.179,1.085-2.369,2.158-3.565,3.225c-0.32,0.285-0.666,0.539-1.006,0.801c-0.438,0.339-0.884,0.667-1.317,1.01  c-0.259,0.207-0.491,0.447-0.756,0.645c-0.646,0.483-1.491,0.825-1.914,1.454c-0.601,0.893-1.575,1.184-2.285,1.857  c-0.448,0.427-1.291,0.662-1.349,1.279c-0.007,0.076,0.06,0.163,0.133,0.184c0.16,0.044,0.326-0.101,0.455-0.197  c0.572-0.429,1.13-0.878,1.696-1.313c0.771-0.592,1.55-1.172,2.314-1.772c0.209-0.164,0.345-0.429,0.564-0.569  c0.674-0.428,1.401-1.776,2.146-1.274c0.191,0.129,0.013,0.533-0.109,0.635c-0.996,0.836-2.016,1.646-3.046,2.438  c-1.221,0.94-2.469,1.846-3.69,2.787c-0.517,0.397-1.006,0.835-1.488,1.274c-0.968,0.882-1.924,1.778-2.881,2.671  c-0.66,0.615-1.314,1.237-1.972,1.854c-0.47,0.44-0.947,0.873-1.412,1.319c-0.486,0.467-0.912,1.016-1.454,1.399  c-0.478,0.337-1.134,0.419-1.614,0.752C6.27,77.315,5.032,77.644,4.825,78.577z M42.24,45.527c-0.372-0.666,0.2-1.685,0.865-2.13  c0.353-0.236,1.701-0.246,1.151-0.793c-0.255-0.253-0.543,0.322-0.723,0.236c-0.41-0.196-0.133-0.409,0.212-1.018  c0.104-0.186,0.105-0.588-0.021-0.706c-0.188-0.174-0.529-0.238-0.806-0.244c-0.148-0.004-0.43,0.215-0.429,0.333  c0.006,0.893-0.662,0.722-1.293,1.473c-0.293,0.349,0.138,0.846,0.219,1.237c0.191,0.91-0.176,1.345-1.083,1.39  c-0.706,0.036-1.408,0.164-2.109,0.27c-0.127,0.02-0.464,0.019-0.446,0.258c0.029,0.423,0.68,0.378,0.973,0.385  c1.309,0.03,2.561,0.409,3.832,0.578c1.522,0.203,2.698,1.296,4.255,1.341c0.497,0.015,1.007,0.436,1.468,0.738  c0.513,0.335,0.987,0.734,1.456,1.132c0.589,0.502,1.159,1.028,1.728,1.552c0.25,0.229,0.449,0.52,0.719,0.719  c0.67,0.495,1.362,0.93,1.633,1.816c0.072,0.237,0.54,0.371,0.848,0.497c0.044,0.018,0.34-0.316,0.307-0.415  c-0.18-0.522-0.043-1.207-0.766-1.472c-0.493-0.182-1.246-0.19-1.43-0.69c-0.229-0.624,0.645-0.688,1.221-0.278  c0.21,0.15,0.614,0.202,0.842,0.101c0.211-0.093,0.454-0.483,0.411-0.684c-0.062-0.288-0.337-0.699-0.584-0.75  c-0.705-0.143-1.444-0.101-2.164-0.192c-0.371-0.048-0.731-0.211-1.085-0.352c-0.115-0.045-0.309-0.151-0.286-0.285  c0.024-0.141,0.252-0.136,0.382-0.19c0.617-0.253,1.805-0.423,1.6-1.128c-0.191-0.663-2.213-0.318-2.822,0.038  c-0.41,0.239-0.716,0.094-0.961-0.191c-0.118-0.137-0.184-0.537-0.12-0.577c0.38-0.238,0.786-0.492,1.216-0.577  c0.543-0.105,0.95-0.495,0.989-1.045c0.021-0.293,0.221-0.57,0.314-0.863c0.05-0.159,0.081-0.345,0.05-0.503  c-0.012-0.063-0.273-0.159-0.33-0.117c-0.616,0.454-1.28,0.868-1.799,1.418c-0.554,0.587-1.492,1.189-1.718,0.63  c-0.212-0.534,0.212-0.609,0.734-1.517c0.195-0.338,0.935,0.38,1.112,0c0.332-0.708-0.391-0.964,0.136-1.329  c0.174-0.12,0.425-0.613,0.214-0.806c-0.418-0.381-1.062,0.343-1.187,0.663c-0.24,0.617-0.793,0.367-1.21,0.783  c-0.605,0.604-0.994,1.528-1.676,1.683c-0.399,0.09-0.555,0.632-0.858,0.57c-0.062-0.012-0.102-0.096-0.105-0.159  c-0.039-0.806,0.758-1.424,1.125-2.142c0.247-0.484,0.112-1.126-0.243-1.242c-0.437-0.141-1.404,0.231-1.527,0.674  c-0.294,1.044-1.325,1.283-1.987,1.919C42.455,45.59,42.3,45.634,42.24,45.527z M22.85,27.295c-1.322,0.572-1.577-0.717-0.587-1.916  c0.106-0.129,0.164-0.397,0.104-0.542c-0.076-0.179-0.303-0.413-0.457-0.409c-0.2,0.005-0.48,0.179-0.574,0.359  c-0.336,0.642-0.624,1.295-1.28,1.7c-0.177,0.108-0.263,0.355-0.418,0.511c-0.119,0.118-0.273,0.226-0.431,0.265  c-0.047,0.012-0.246-0.245-0.224-0.339c0.214-0.844-0.521-0.951-0.972-1.21c-0.529-0.301-1.076-0.783-1.771-0.742  c-0.19,0.01-0.428,0.482-0.761,0.42c-0.073-0.014-0.125-0.098-0.144-0.169c-0.182-0.693,0.915-0.619,1.268-1.574  c0.202-0.546-0.631-0.769-1.091-0.193c-0.247,0.313-0.684,0.467-0.912,0.804c-0.045,0.067,0.001,0.215-0.078,0.23  c-0.537,0.104-0.521-1.447-1.114-1.292c-0.716,0.188-2.008,0.702-1.169,1.572c0.59,0.61,1.641,0.532,2.457,0.841  c0.41,0.155,0.838,0.342,1.167,0.621c0.92,0.776,1.8,1.601,2.682,2.419c0.669,0.618,1.355,1.223,1.966,1.896  c0.602,0.662,0.864,1.75,1.597,2.017c1.085,0.395,3.668-0.146,3.074-1.407c-0.158-0.336-0.61-0.017-0.84-0.063  c-0.156-0.032-0.393-0.06-0.442-0.216c-0.042-0.139,0.113-0.335,0.214-0.369c0.624-0.208,0.91-0.742,0.793-1.206  c-0.229-0.916-1.445,0.796-1.864,0.177c-0.667-0.99,2.414-1.751,1.924-2.772c-0.307-0.64-1.438-0.49-1.932-0.134  C22.805,26.743,23.091,27.19,22.85,27.295z M33.565,23.626c0.043-0.094,0.203-0.102,0.266-0.188  c0.113-0.152,0.362-0.322,0.286-0.498c-0.082-0.186-0.395-0.12-0.595-0.136c-0.688-0.054-0.758,0.443-0.767,0.935  c-0.017,0.904-0.56,1.375-1.308,1.706c-0.486,0.215-1.596,0.002-1.656,0.757c-0.05,0.626,1,0.502,1.074,0.718  c0.162,0.468-0.244,0.799-0.37,1.113c-0.082,0.203-0.108,0.586-0.328,0.575c-0.192-0.01-0.176-0.346-0.229-0.528  c-0.061-0.214-0.056-0.451-0.134-0.657c-0.097-0.256-0.209-0.654-0.391-0.699c-0.278-0.072-0.687,0.015-0.918,0.193  c-0.271,0.209-0.507,0.561-0.509,0.748c-0.004,0.417,0.56,0.546,0.453,0.75c-0.094,0.181-0.408,0.02-0.612,0.042  c-0.133,0.015-0.282,0.024-0.389,0.091c-0.496,0.304-1.018,0.585-1.451,0.964c-0.195,0.173-0.302,0.563-0.279,0.84  c0.036,0.422-0.026,0.979,0.377,1.378c0.513,0.508,1.491-0.174,1.935-0.738c0.169-0.215,0.07-0.647,0.321-0.755  c0.068-0.03,0.171,0.014,0.21,0.076c0.094,0.15-0.047,0.351-0.054,0.525c-0.023,0.589,0.816,1.25,1.369,1.068  c0.298-0.098,0.573-0.265,0.873-0.347c0.639-0.178,1.288-0.507,1.933,0.008c0.066,0.054,0.205,0.084,0.279,0.053  c0.589-0.252,1.586-0.154,1.787-0.8c0.165-0.529-0.362-1.014-0.997-0.57c-0.113,0.077-0.559,0.017-0.619-0.185  c-0.477-1.564,1.881-3.137,0.741-4.006c-0.307-0.236-0.759,0.18-0.964,0c-0.333-0.295-0.44-0.952-0.155-1.239  C33.35,24.214,33.08,24.675,33.565,23.626z M31.41,35.572c-0.588-0.002-0.957-0.882-0.749-1.266c0.495-0.915,2.044-1.12,1.195-1.864  c-0.666-0.584-0.057,0.873-0.581,1.084c-1.717,0.69-1.737,0.365-3.319,0.339c-0.47-0.008-0.5-0.677-0.737-0.963  c-0.108-0.133-0.245-0.315-0.388-0.332c-0.372-0.043-0.766-0.067-1.125,0.014c-0.331,0.073-0.716,0.22-0.916,0.465  c-0.319,0.389-0.605,0.563-1.102,0.39c-0.46-0.161-1.416,0.008-1.124,0.579c0.398,0.773,1.644,0.329,2.392,0.251  c0.748-0.077,1.338,0.133,1.995,0.383c0.321,0.121,0.776-0.077,1.164-0.163c0.185-0.041,0.396-0.506,0.651-0.297  c0.634,0.523-0.039,1.04,0.428,1.438c0.631,0.539,1.495,0.806,1.876,1.655c0.163,0.362,0.497,0.645,0.739,0.973  c0.593,0.803,1.358,1.519,1.139,2.69c-0.039,0.203,0.151,0.57,0.389,0.703c0.067,0.037,0.164,0.035,0.227-0.006  c0.305-0.199,0.429-0.655,0.437-0.988c0.023-0.885,0.449-1.308,1.279-1.467c0.542-0.103,1.007-0.347,0.902-1.035  c-0.018-0.119-0.104-0.276-0.2-0.319c-0.078-0.033-0.247,0.05-0.329,0.13c-0.728,0.708-2.097,1.384-2.402,0.26  c-0.288-1.065,2.038-0.554,2.554-1.405c0.271-0.45-0.305-0.804-0.834-0.784c-0.261,0.01-0.564-0.062-0.786-0.197  c-0.491-0.299-0.7-0.03-0.884,0.353c-0.095,0.2-0.138,0.438-0.275,0.601c-0.125,0.15-0.34,0.423-0.523,0.326  c-0.325-0.174,0.023-0.593,0.124-0.788c0.257-0.495,0.268-1.162,0.993-1.343c0.152-0.038,0.362-0.391,0.319-0.529  c-0.059-0.189-0.332-0.438-0.515-0.438c-0.455-0.005-0.954,0.008-1.172,0.155C31.71,34.539,31.906,35.574,31.41,35.572z   M36.751,37.028c-0.014,0.887,0.384,1.649-0.323,2.195c-0.275,0.214-0.675,0.279-0.924,0.513c-0.439,0.414-1.405,0.791-1.203,1.363  c0.02,0.058,0.138-0.014,0.177,0.032c0.268,0.322-0.023,0.838,0.009,1.252c0.019,0.228,0.09,0.476,0.218,0.657  c0.051,0.071,0.389,0.052,0.483-0.041c0.574-0.561,1.236-1.087,1.63-1.763c0.306-0.524,0.742-0.781,1.155-1.131  c0.959-0.814,2.039-1.524,2.511-2.785c0.145-0.387,0.721-0.799,0.489-1.143c-0.023-0.037-0.099,0.033-0.129,0.002  c-0.445-0.481,0.734-1.53,0.197-2.053c-0.33-0.321-0.812,0.089-1.165,0.145c-0.508,0.083-1.016,0.265-1.522,0.253  c-0.728-0.017-0.87,0.011-0.753,0.702c0.104,0.61-0.026,1.043-0.531,1.392C36.931,36.716,36.753,36.862,36.751,37.028z   M63.539,55.791c0.014,0.06,0.086,0.103,0.146,0.114c0.167,0.03,0.379-0.055,0.478-0.164c0.616-0.682,1.265-1.346,1.785-2.099  c0.395-0.573,0.645-1.223,1.272-1.637c0.883-0.582,1.647-1.302,2.25-2.19c0.401-0.591,0.802-1.197,1.294-1.706  c0.354-0.365,0.78-0.639,0.623-1.222c-0.132-0.487-0.2-1.046-0.489-1.428c-0.54-0.714-1.96-0.222-2.441,0.734  c-0.374,0.743-0.86,1.428-1.271,2.152c-0.275,0.487-0.524,0.992-0.756,1.501c-0.253,0.562-0.448,1.151-0.71,1.707  c-0.257,0.545-0.565,1.063-0.848,1.595c-0.197,0.369-0.394,0.737-0.582,1.11C64.034,54.768,63.413,55.237,63.539,55.791z   M36.462,33.786c0.411-0.227,0.803,0.126,1.112,0.073c0.692-0.117,1.366-0.38,2.061-0.442c0.692-0.063,0.852-0.19,1.169-0.83  c0.242-0.492,0.863-0.458,1.198-0.711c0.109-0.083,0.242-0.389,0.117-0.524c-0.123-0.135-0.372,0.016-0.546,0.065  c-0.158,0.044-0.296,0.16-0.45,0.223c-0.62,0.25-1.24,0.499-1.869,0.727c-0.105,0.038-0.303,0.009-0.361-0.065  c-0.066-0.081-0.049-0.257-0.019-0.38c0.068-0.284,0.477-0.603,0.276-0.917c-0.425-0.667-1.834,0.358-2.108-0.288  c-0.207-0.487,1.079-0.837,0.935-1.28c-0.16-0.488-0.895-0.22-1.222-0.413c-0.284-0.168-0.598-0.737-0.691-0.693  c-0.361,0.171-0.724,0.47-0.921,0.815c-0.137,0.236-0.057,0.642,0.025,0.946c0.114,0.412,0.21,0.759-0.22,1.06  c-0.488,0.342-0.974,0.697-1.407,1.103c-0.194,0.182-0.33,0.495-0.351,0.758c-0.008,0.103,0.389,0.352,0.575,0.329  c0.272-0.036,0.535-0.237,0.773-0.405c0.191-0.134,0.317-0.392,0.52-0.466c0.138-0.05,0.375,0.098,0.53,0.209  c0.049,0.035,0.008,0.25-0.042,0.364c-0.13,0.3-0.245,0.613-0.488,0.999c-0.045,0.073-0.368,0.201-0.339,0.43  c0.033,0.247,0.4,0.42,0.596,0.416c0.254-0.006,0.555-0.181,0.739-0.373C36.26,34.301,36.263,33.895,36.462,33.786z M25.362,63.35  c-0.023,0.101,0.051,0.241,0.149,0.272c0.692,0.223,1.342-0.574,1.96-0.949c2.278-1.382,4.529-2.808,6.801-4.201  c1.316-0.807,2.658-1.572,3.979-2.372c0.439-0.268,0.822-0.632,1.273-0.875c0.727-0.388,1.476-0.69,1.514-1.711  c0.013-0.357,0.27-0.701,0.373-1.062c0.05-0.168,0.139-0.433-0.004-0.551c-0.17-0.138-0.481,0.006-0.643,0.119  c-1.172,0.829-2.34,1.666-3.476,2.542c-0.812,0.626-1.54,1.361-2.363,1.972c-1.677,1.242-3.498,2.283-5.093,3.645  c-0.562,0.479-1.294,0.794-1.751,1.348c-0.552,0.666-1.323,0.87-1.981,1.303C25.851,62.996,25.43,63.057,25.362,63.35z   M39.758,56.602c0.039-0.091,0.005-0.232-0.077-0.29c-0.158-0.11-0.412-0.016-0.569,0.067c-0.69,0.366-1.376,0.746-2.037,1.161  c-1.603,1.008-3.183,2.059-4.793,3.054c-1.569,0.967-3.208,1.827-4.744,2.844c-1.814,1.201-3.549,2.525-5.327,3.782  c-0.675,0.478-1.391,0.898-2.064,1.376c-0.248,0.176-0.4,0.486-0.648,0.663c-0.639,0.455-1.324,0.843-1.956,1.304  c-0.603,0.441-1.1,1.074-1.757,1.378c-0.765,0.356-1.774,0.994-1.425,1.675c0.121,0.236,0.502-0.032,0.681-0.16  c0.689-0.494,1.352-1.025,2.037-1.519c0.271-0.194,0.612-0.291,0.872-0.494c1.547-1.208,3.063-2.455,4.623-3.646  c0.812-0.621,1.697-1.144,2.538-1.727c0.689-0.478,1.358-0.986,2.045-1.467c0.514-0.362,1.031-0.721,1.563-1.053  c0.854-0.531,1.735-1.014,2.574-1.565c0.903-0.591,1.757-1.255,2.655-1.854c0.961-0.642,1.945-1.247,2.925-1.859  c0.321-0.201,0.66-0.368,0.987-0.558C38.494,57.346,39.479,57.281,39.758,56.602z M12.535,69.782c0.033,0.094,0.172,0.15,0.27,0.129  c0.365-0.077,0.476-0.579,0.729-0.852c0.7-0.752,1.406-1.498,2.11-2.244c0.108-0.115,0.241-0.209,0.33-0.336  c0.449-0.64,0.902-1.278,1.328-1.933c0.758-1.168,1.869-2.024,2.634-3.223c0.756-1.185,1.965-2.08,2.964-3.111  c0.783-0.806,2.304-1.317,2.324-2.439c0.001-0.073-0.072-0.156-0.145-0.164c-0.576-0.067-0.97,0.643-1.42,1.008  c-0.671,0.545-1.164,1.351-2.126,1.454c-0.199,0.021-0.458-0.035-0.6-0.158c-0.082-0.073-0.033-0.37,0.037-0.53  c0.315-0.718,0.684-1.413,0.976-2.138c0.094-0.234,0.182-0.594,0.015-0.808c-0.051-0.064-0.163-0.093-0.238-0.058  c-0.308,0.145-0.317,0.606-0.439,0.924c-0.121,0.317-0.178,0.661-0.298,0.979c-0.235,0.626-0.565,1.225-0.732,1.868  c-0.271,1.044-0.669,1.964-1.474,2.739c-0.51,0.49-0.806,1.195-1.233,1.778c-0.337,0.461-0.501,1.112-1.222,1.196  c-0.084,0.011-0.23,0.162-0.219,0.215c0.222,0.929-0.483,1.407-0.944,2.011c-0.325,0.427-0.582,0.906-0.923,1.319  c-0.356,0.433-0.818,0.782-1.153,1.229C12.837,68.969,12.392,69.381,12.535,69.782z M13.906,77.226  c-0.027,0.084,0.012,0.203,0.086,0.25c0.389,0.25,0.981,0.031,1.362-0.166c0.628-0.324,1.196-0.789,1.729-1.262  c0.697-0.618,1.542-0.971,2.316-1.451c0.916-0.569,1.761-1.256,2.634-1.895c0.344-0.252,0.663-0.54,1.023-0.765  c1.54-0.958,3.088-1.901,4.639-2.842c0.879-0.532,1.788-1.016,2.643-1.583c0.398-0.265,0.715-0.662,1.03-1.033  c0.087-0.103,0.159-0.377,0.039-0.496c-0.104-0.1-0.314-0.021-0.429,0.042c-0.842,0.471-1.68,0.946-2.502,1.446  c-0.999,0.606-1.979,1.243-2.975,1.856c-0.594,0.367-1.198,0.713-1.8,1.067c-0.193,0.113-0.418,0.191-0.58,0.337  c-0.559,0.504-1.08,1.05-1.646,1.543c-0.353,0.308-0.749,0.573-1.149,0.817c-0.802,0.489-1.641,0.922-2.43,1.43  c-1.15,0.743-2.27,1.533-3.403,2.302C14.298,76.959,13.982,77.002,13.906,77.226z M49.53,66.677c-0.28-0.197-0.014-0.582,0.004-0.82  c0.016-0.209,0.233-0.462,0.1-0.626c-0.157-0.195-0.538-0.106-0.745-0.017c-1.373,0.598-2.602,1.51-4.128,1.781  c-0.494,0.087-0.949,0.399-1.419,0.615c-1.465,0.673-2.95,1.303-4.379,2.042c-0.842,0.436-0.442-0.026-1.346-0.318  c-0.811-0.262-1.806,1.315-1.089,1.934c0.354,0.305,0.848-0.141,1.215-0.261c0.625-0.204,1.232-0.464,1.854-0.685  c1.517-0.538,2.982-1.169,4.289-2.141c0.46-0.344,0.99-0.659,1.536-0.808c1.365-0.372,2.75-0.641,4.186-0.34  c0.414,0.087,1.165,0.534,1.464,0.013C51.517,66.271,50.052,67.045,49.53,66.677z M48.274,49.576  c-0.182-0.361-0.717-0.332-1.076-0.472c-0.449-0.173-0.9-0.348-1.364-0.466c-0.24-0.062-0.584-0.102-0.757,0.022  c-0.744,0.533-1.468,1.101-2.142,1.719c-0.218,0.201-0.316,0.584-0.367,0.901c-0.077,0.464-0.071,0.942-0.083,1.416  c-0.004,0.18-0.081,0.433,0.064,0.543c0.171,0.13,0.459-0.002,0.63-0.103c0.538-0.315,1.031-0.703,1.569-1.014  c0.86-0.5,1.714-1.034,2.629-1.413C47.896,50.495,48.564,50.152,48.274,49.576z M27.633,54.671c0.029,0.073,0.133,0.104,0.211,0.106  c0.086,0.002,0.171-0.053,0.234-0.104c0.927-0.772,1.851-1.547,2.772-2.324c0.237-0.199,0.472-0.402,0.688-0.621  c0.538-0.539,1.046-1.109,1.605-1.623c0.218-0.199,0.587-0.23,0.813-0.425c0.816-0.703,1.607-1.437,2.389-2.176  c0.113-0.107,0.445-0.365,0.245-0.613c-0.792-0.99-2.419,0.037-3.209,1.11c-0.221,0.302-0.584,0.495-0.852,0.767  c-0.802,0.816-1.611,1.627-2.378,2.475s-1.5,1.727-2.213,2.618C27.769,54.076,27.526,54.401,27.633,54.671z M24.321,59.56  c0.016,0.07,0.108,0.118,0.179,0.117c0.312-0.004,0.53-0.334,0.764-0.537c1.554-1.344,3.104-2.692,4.646-4.053  c1.82-1.607,3.618-3.241,5.447-4.84c0.704-0.615,1.481-1.146,2.195-1.752c0.309-0.261,0.85-0.516,0.808-0.922  c-0.007-0.064-0.088-0.11-0.151-0.117c-0.357-0.037-0.634,0.377-0.975,0.46c-0.84,0.201-1.424,0.701-1.882,1.398  c-0.084,0.129-0.221,0.228-0.343,0.329c-0.728,0.601-1.471,1.187-2.187,1.801c-0.749,0.641-1.476,1.309-2.214,1.965  c-0.924,0.822-1.863,1.626-2.766,2.472c-1.033,0.966-2.042,1.962-3.045,2.961C24.599,59.04,24.262,59.278,24.321,59.56z   M75.811,57.009c0.102-0.3-0.173-0.725-0.347-0.781c-1.123-0.366-2.311-0.787-3.463-0.59c-1.217,0.208-2.374,0.784-3.547,1.228  c-0.135,0.051-0.346,0.244-0.308,0.415c0.043,0.198,0.348,0.272,0.53,0.286c0.624,0.047,1.25,0.038,1.874,0.049  c0.363,0.007,0.729,0.037,1.091,0.014c0.626-0.04,1.287-0.269,1.868-0.135C74.352,57.688,75.518,57.877,75.811,57.009z   M41.903,40.549c-0.463-1.057-5.85,3.64-5.201,4.268c0.214,0.206,0.59-0.035,0.881-0.076c0.331-0.044,0.736-0.265,0.974-0.144  c0.666,0.343,1.191-0.029,1.723-0.24c0.199-0.08,0.435-0.587,0.355-0.768c-0.423-0.96-0.384-1.292,0.291-1.895  C41.266,41.394,42.14,41.089,41.903,40.549z M35.925,43.553c-0.183-0.155-0.369,0.189-0.532,0.244  c-0.53,0.179-1.002,0.705-1.646,0.25c-0.07-0.049-0.398,0.103-0.447,0.226c-0.081,0.197-0.03,0.448-0.027,0.675  c0.009,0.821-0.181,1.477-0.914,2.045c-0.644,0.498-1.594,1.105-1.582,1.944c0,0.065,0.059,0.144,0.124,0.151  c0.515,0.054,0.823-0.627,1.216-0.964c0.496-0.426,0.902-1.041,1.471-1.275c0.916-0.379,1.936-0.512,2.908-0.754  c0.175-0.044,0.555,0.036,0.559-0.193c0.01-0.648-1.353-0.303-1.539-0.662C35.334,44.891,36.471,44.018,35.925,43.553z   M41.715,32.788c-0.044,0.048-0.105,0.125-0.075,0.183c0.269,0.527,1.144,0.319,1.727,0.408c0.807,0.124,1.624,0.197,2.44,0.254  c0.192,0.013,0.497-0.066,0.578-0.204c0.397-0.671-0.154-0.415-0.925-1.008c-0.119-0.092-0.031-0.392-0.107-0.419  c-0.575-0.205-0.647-0.684-0.87-1.165c-0.141-0.302-0.916-0.31-1.407-0.448c-0.02-0.004,0.032-0.168,0.133-0.021  c0.222,0.326-0.357,0.556-0.455,0.797c-0.078,0.191-0.186,0.5-0.099,0.604c0.316,0.38,0.338,0.404-0.108,0.619  C42.27,32.522,41.927,32.564,41.715,32.788z M24.419,45.965c0.034,0.042,0.116,0.044,0.164,0.017c0.43-0.24,0.495-0.871,0.614-1.339  c0.368-1.45,0.73-2.883,1.645-4.123c0.23-0.312,0.311-0.793,0.311-1.196c0-0.219-0.261-0.525-0.414-0.562  c-0.677-0.162-1.213,0.536-1.767,0.833c-0.107,0.058-0.177,0.342-0.139,0.49c0.326,1.246,0.092,2.452-0.161,3.674  C24.521,44.48,23.954,45.388,24.419,45.965z M47.128,58.556c-0.672-0.532-2.774,1.575-2.367,2.275  c0.4,0.682,4.557-0.417,4.297-1.203c-0.116-0.347-0.672-0.368-0.975-0.341C47.48,59.339,47.567,58.904,47.128,58.556z   M25.386,55.396c0.683,0.799,5.789-6.031,4.917-6.289C27.638,48.318,23.668,53.385,25.386,55.396z M7.552,74.977  c0.256,0.797,1.157-0.028,1.536-0.447c0.61-0.676,1.16-1.407,1.721-2.125c0.203-0.259,0.725-0.527,0.563-0.851  C11.15,71.111,7.307,74.213,7.552,74.977z M80.035,62.029c0.193-0.11,0.277-0.518,0.195-0.663c-0.334-0.601-0.729-1.173-1.162-1.708  c-0.116-0.147-0.466-0.305-0.666-0.184c-0.165,0.1-0.192,0.47-0.12,0.545C78.871,60.641,78.962,62.641,80.035,62.029z   M39.141,60.588c0.336-0.361,0.026-1.04,0.257-1.217c0.454-0.353,0.788-0.706,0.884-1.271c0.025-0.156,0.2-0.357,0.087-0.467  c-0.132-0.124-0.438,0.022-0.512,0.133c-0.487,0.719-0.995,1.436-1.374,2.214C38.236,60.481,38.752,61.005,39.141,60.588z   M70.464,53.275c0.238,0.108,0.384-0.076,0.466-0.141c0.556-0.446,1.112-0.893,1.64-1.372c0.094-0.084,0.125-0.403,0.057-0.461  c-0.125-0.106-0.396-0.188-0.52-0.122c-0.473,0.253-0.938,0.535-1.35,0.875c-0.227,0.187-0.372,0.499-0.48,0.783  C70.235,52.948,70.326,53.212,70.464,53.275z M45.759,58.379c0.001-0.079-0.069-0.167-0.145-0.188  c-0.71-0.186-1.47,0.389-1.857,1.139c-0.09,0.174-0.085,0.591,0.126,0.728c0.173,0.112,0.474-0.028,0.592-0.154  C44.93,59.421,45.747,59.044,45.759,58.379z M27.984,35.654c-0.495,0.193-0.161,0.841-0.2,1.161  c-0.019,0.161-0.094,0.391,0.037,0.49c0.151,0.116,0.391-0.032,0.556-0.11c0.284-0.136,0.892-0.115,0.913-0.546  C29.316,36.139,28.614,35.408,27.984,35.654z M25.439,35.13c-0.735,0.107-0.555,1.237-0.148,1.807  c0.066,0.095,0.386,0.142,0.467,0.071C26.071,36.734,25.89,35.065,25.439,35.13z M55.246,52.823  c-0.03,0.406,0.445,0.435,0.546,0.449c0.379,0.05,0.659-0.238,0.887-0.421c0.162-0.132,0.238-0.396,0.29-0.616  c0.015-0.057-0.256-0.269-0.31-0.241C56.212,52.226,55.292,52.195,55.246,52.823z M53.833,38.198  c0.131-0.008,0.268-0.131,0.293-0.259c0.074-0.365-0.266-0.729-0.516-0.978c-0.133-0.133-0.622-0.219-0.79-0.005  c-0.135,0.173,0.025,0.496,0.155,0.63C53.215,37.836,53.481,38.22,53.833,38.198z M43.696,53.652  c-0.043,0.104-0.001,0.271,0.099,0.325c0.229,0.126,0.521-0.103,0.751-0.216c0.257-0.125,0.481-0.318,0.716-0.488  c0.356-0.256,0.996-0.345,1.065-0.778c0.014-0.075-0.057-0.167-0.13-0.185C45.275,52.097,44.059,52.779,43.696,53.652z   M52.777,54.253c-0.31-0.672-1.066,0.253-1.542,0.528c-0.021,0.011,0.086,0.411,0.187,0.439  C51.795,55.326,52.967,54.666,52.777,54.253z M53.814,33.29c-0.051,0.515,0.697,0.36,0.931,0.381  c0.232,0.021,0.626,0.076,0.716-0.153c0.074-0.186-0.228-0.478-0.331-0.472C54.732,33.062,53.868,32.757,53.814,33.29z   M41.587,50.768c0.483,0.283,1.44-0.461,1.343-1.013C42.782,48.937,40.791,50.302,41.587,50.768z M39.979,60.796  c0.145,1.331,2.201-0.141,1.478-0.658C40.976,59.793,39.922,60.286,39.979,60.796z M55.822,34.933  c-0.003-0.443-0.616-0.424-0.78-0.385c-0.2,0.047-0.533,0.238-0.521,0.479c0.01,0.196,0.319,0.357,0.456,0.342  C55.206,35.343,55.826,35.398,55.822,34.933z M23.402,50.161c-0.827-0.607-1.078,1.603-0.439,1.405  C23.465,51.411,23.784,50.441,23.402,50.161z M29.51,25.158c0.012,0.119,0.147,0.24,0.268,0.239  c0.333-0.004,0.767-0.352,0.731-0.684c-0.019-0.178-0.41-0.292-0.442-0.261C29.853,24.659,29.479,24.858,29.51,25.158z   M21.815,53.929c0.032,0.082,0.153,0.119,0.239,0.104c0.473-0.077,0.966-1.311,0.262-1.25  C21.899,52.819,21.662,53.542,21.815,53.929z M53.837,46.95c-0.129,0.771,0.975,0.218,1.019-0.179  c0.01-0.08-0.018-0.193-0.094-0.223C54.45,46.422,53.892,46.617,53.837,46.95z M73.794,49.545c-0.648-0.855-1.303,1.016-0.577,0.932  C73.532,50.44,74.082,49.927,73.794,49.545z M24.877,57.816c0.298,0.126,0.959-0.25,0.869-0.725  C25.575,56.205,24.356,57.596,24.877,57.816z M77.494,31.107c0.038,0.08,0.101,0.184,0.188,0.185  c0.331,0.003,0.707-0.351,0.719-0.681c0.004-0.085-0.09-0.167-0.173-0.191C77.876,30.321,77.255,30.589,77.494,31.107z   M74.642,46.835c-0.021-0.103-0.152-0.199-0.257-0.186c-0.281,0.039-0.365,0.438-0.52,0.673c-0.011,0.017,0.163,0.292,0.304,0.273  C74.464,47.551,74.7,47.128,74.642,46.835z M85.537,42.854c0.017,0.819,1.598-0.105,0.991-0.5  C86.214,42.149,85.528,42.423,85.537,42.854z M89.057,23.405c-1.381,0.902-4.545,0.784-4.274,2.448  c0.047,0.277,0.485,0.027,0.703,0.036c0.223,0.011,0.631-0.068,0.662,0.157c0.125,0.877-1.187,0.806-0.642,1.083  c0.152,0.078,0.33-0.112,0.48-0.197c0.795-0.449,1.634-0.839,2.364-1.376c0.999-0.737,1.836-1.72,2.891-2.348  c0.806-0.48,1.4-1.07,1.888-1.811c0.139-0.209,0.099-0.534,0.141-0.806C91.676,21.392,90.44,22.499,89.057,23.405z M72.612,62.069  c0.326-0.195,0.775-0.025,1.124-0.148c0.435-0.152,0.813-0.458,1.243-0.635c0.687-0.281,2.174,0.076,2.235-0.813  c0.047-0.681-1.131-0.238-1.651-0.201c-1.068,0.078-2.137,0.154-3.206,0.228c-0.041,0.003-0.084-0.021-0.125-0.036  c-0.45-0.161-0.904-0.657-1.35-0.481c-0.063,0.025-0.11,0.119-0.095,0.187c0.035,0.142,0.226,0.205,0.357,0.252  c0.524,0.188,1.054,0.361,1.588,0.523c0.393,0.119,0.455,0.336,0.231,0.659c-0.116,0.166-0.199,0.601-0.367,0.485  C72.594,62.085,72.609,62.07,72.612,62.069z M51.394,32.532c-0.509-0.039-1.674,0.695-1.732,1.178  c-0.014,0.116,0.025,0.392,0.222,0.423c0.373,0.062,0.415-0.806,0.777-0.711c1.013,0.261,1.15,0.176,1.662,0.529  c0.023,0.017,0.206-0.116,0.243-0.208c0.145-0.353,0.729-0.782,0.432-1.202C52.706,32.132,51.941,32.575,51.394,32.532z   M66.694,28.172c0.076,0.208,0.102,0.511,0.298,0.577c1.539,0.519,4.538-0.381,4.462-2.113c-0.013-0.296-0.5-0.27-0.681-0.233  c-0.426,0.086-0.847,0.237-1.244,0.419c-0.952,0.438-1.937,1.902-2.835,1.362C66.69,28.183,66.693,28.168,66.694,28.172z   M58.483,72.154c0.996,0.054,1.858-0.696,2.893-0.487c0.103,0.021,0.38-0.133,0.388-0.304c0.03-0.651-1.841-0.798-2.103-0.459  c-0.461,0.596-0.578-0.131-1.229-0.054c-0.422,0.05-0.802,0.713-0.564,1.186C57.948,72.198,58.263,72.142,58.483,72.154z   M52.576,71.862c-0.223,1.423,5.262,0.768,4.685-0.046C56.362,70.546,52.844,70.153,52.576,71.862z M74.741,28.393  c-1.08-0.087-0.791-2.89-1.851-2.67c-1.166,0.241,0.689,1.69,1.12,2.472c0.082,0.151,0.67-0.073,0.748,0.179  C74.761,28.38,74.742,28.393,74.741,28.393z M68.71,59.725c0.196,0.927,1.895,1.196,1.786,0.341  c-0.086-0.681-1.204-0.83-1.703-0.585C68.715,59.519,68.691,59.641,68.71,59.725z M47.526,29.908  c0.051-0.109-0.055-0.481-0.248-0.509c-0.347-0.05-0.83,0.392-0.78,0.809C46.597,31.047,47.38,30.226,47.526,29.908z M50.832,29.96  c-0.029,0.168,0.037,0.482,0.226,0.563c0.071,0.031,0.172-0.016,0.219-0.077c0.243-0.332,0.437-0.981,0.062-1.343  C50.843,28.625,50.886,29.668,50.832,29.96z M44.372,34.75c-0.686,0.166-0.28,1.445,0.303,1.226  C45.174,35.787,45.027,34.591,44.372,34.75z M57.578,27.666c-0.233-0.073-0.461,0.176-0.658,0.312  c-0.029,0.02,0.024,0.421,0.194,0.469c0.259,0.072,0.603-0.205,0.656-0.468C57.794,27.859,57.695,27.702,57.578,27.666z   M45.332,38.466c-0.123-0.137-0.295-0.236-0.457-0.329c-0.014-0.008-0.195,0.193-0.176,0.225c0.108,0.186,0.232,0.377,0.396,0.505  c0.073,0.057,0.37,0.085,0.392-0.049c0,0-0.015,0.027-0.022,0.026C45.332,38.818,45.414,38.558,45.332,38.466z M32.708,68.606  c-0.336,0.039-0.763,0.46-0.648,0.779c0.231,0.644,1.091-0.193,0.864-0.615C32.882,68.69,32.798,68.596,32.708,68.606z   M71.005,35.657c0.288-0.507-0.875-0.192-1.199,0.275c-0.113,0.159-0.28,0.295-0.449,0.397c-1.738,1.035-3.479,2.067-5.227,3.086  c-1.131,0.661-2.291,1.271-3.402,1.961c-0.381,0.237-1.007,0.516-0.979,0.978c0.008,0.13,0.187,0.208,0.271,0.218  c0.634,0.061,1.13-0.557,1.657-0.88c1.498-0.922,2.976-1.878,4.471-2.805c0.515-0.319,1.09-0.549,1.579-0.902  c0.86-0.622,1.597-1.412,2.669-1.726c0.234-0.068,0.296-0.597,0.582-0.624C70.985,35.634,71.005,35.658,71.005,35.657z   M64.417,36.098c-0.595-0.182-1.159,0.458-1.715,0.737c-0.547,0.275-1.054,0.63-1.594,0.923c-0.652,0.355-1.339,0.652-1.979,1.03  c-1.139,0.675-2.232,1.427-3.385,2.078c-0.499,0.283-1.306,0.847-0.856,1.221c0.117,0.096,0.206-0.08,0.26-0.117  c0.962-0.648,1.855-1.446,2.897-1.908c1.129-0.501,1.947-1.549,3.229-1.732c0.131-0.02,0.28-0.064,0.375-0.149  c0.524-0.471,1.075-0.821,1.807-0.975c0.408-0.086,1.022-0.436,1.089-0.912C64.557,36.216,64.491,36.12,64.417,36.098z   M71.669,35.526c0.367-0.184,0.675-0.491,1.05-0.649c1.068-0.451,2.085-0.987,2.997-1.703c0.076-0.061,0.181-0.275,0.091-0.362  c-0.216-0.208-0.602,0.105-0.86,0.239c-0.573,0.299-1.109,0.667-1.679,0.974c-0.772,0.417-1.565,0.797-2.337,1.216  c-0.039,0.021,0.19,0.327,0.074,0.416c0,0.001-0.031-0.013-0.028-0.022C71.038,35.408,71.47,35.625,71.669,35.526z M20.792,28.288  c0.396,0.662,1.991-0.247,1.755-0.637C21.769,26.366,20.202,27.301,20.792,28.288z M22.837,29.902  c-0.424,0.044-0.594,0.612-0.86,0.942c-0.06,0.074-0.026,0.266,0.03,0.368c0.033,0.059,0.262,0.097,0.288,0.061  c0.284-0.383,0.898-0.712,0.812-1.182C23.087,29.983,22.945,29.89,22.837,29.902z M28.256,28.921  c-0.197-0.067-0.526,0.167-0.756,0.323c-0.053,0.037,0.01,0.421,0.098,0.457c0.354,0.146,0.732,0.24,1.111,0.302  c0.126,0.021,0.502,0.052,0.544-0.24C29.343,29.155,28.563,29.027,28.256,28.921z M32.31,27.631  c-0.148,0.144-0.178,0.427-0.219,0.655c-0.011,0.055,0.136,0.188,0.224,0.203c0.271,0.046,1.139-1.097,0.793-1.264  C32.804,27.08,32.502,27.446,32.31,27.631z"></path></svg>