<svg height='100px' width='100px'  fill="#000000" xmlns:x="http://ns.adobe.com/Extensibility/1.0/" xmlns:i="http://ns.adobe.com/AdobeIllustrator/10.0/" xmlns:graph="http://ns.adobe.com/Graphs/1.0/" xmlns="http://www.w3.org/2000/svg" xmlns:xlink="http://www.w3.org/1999/xlink" version="1.1" x="0px" y="0px" viewBox="-247 370.9 100 100" style="enable-background:new -247 370.9 100 100;" xml:space="preserve"><g><g i:extraneous="self"><path d="M-176.7,442.2v-6.6l0,0v-11.4h-7.2c-0.8-4.4-3.3-8-6.9-10c0.2-0.7,0.3-1.4,0.3-2.1c0-0.6-0.1-1.2-0.2-1.7    c2-0.9,3.8-2.2,5.3-3.9c1.1,0.2,2.1,0.3,3.1,0.3c3.5,0,6.6-1,9.1-3.1c4.1-3.3,6.5-9.2,6.5-15.9c0-2.5-0.3-4.9-0.9-7.1l-0.4-1.4    h-10.2c-0.1-1-0.3-2-0.5-3l-0.4-1.5h-37.6l-0.4,1.5c-0.2,1-0.4,2-0.5,3h-10.3l-0.4,1.4c-0.6,2.2-0.9,4.6-0.9,7.1    c0,6.6,2.4,12.6,6.5,15.9c2.5,2,5.6,3.1,9.1,3.1c1,0,2-0.1,3.1-0.3c1.6,1.6,3.4,2.9,5.3,3.9c-0.1,0.6-0.2,1.1-0.2,1.7    c0,0.7,0.1,1.4,0.3,2.1c-3.6,2-6.1,5.6-6.9,10h-7.2v10.1h-27.7v32.8h97.8v-24.9H-176.7z M-177.9,384.5c0-0.4,0-0.8,0-1.3h6.9    c0.3,1.4,0.4,3,0.4,4.6c0,5.5-1.9,10.2-5.1,12.8c-1.9,1.5-4.2,2.2-6.9,2.2C-179.6,398-177.9,391.7-177.9,384.5z M-220.1,400.6    c-3.2-2.6-5.1-7.4-5.1-12.8c0-1.6,0.1-3.1,0.4-4.6h6.8c0,0.4,0,0.8,0,1.3c0,7.2,1.7,13.5,4.7,18.3    C-216,402.9-218.3,402.1-220.1,400.6z M-201.8,417l2.4-0.9l-1.4-2.1c-0.4-0.6-0.6-1.2-0.6-1.9c0-0.6,0.2-1.3,0.5-1.8l1.3-2.2    l-2.4-0.7c-8.3-2.6-12-13.4-12-22.9c0-2,0.2-4,0.5-5.8h22.5c0.1,1.4,0.2,2.8,0.2,4.3c0.3,19.9-5.5,25.2-5.5,25.2l1.3,2.2    c0.3,0.5,0.5,1.2,0.5,1.8c0,0.7-0.2,1.4-0.6,1.9l-1.4,2.1c0,0,3.5,4,1.1,7.7h-12.4C-206.9,420.6-204.8,418.1-201.8,417z     M-219.1,461.5v1.6H-243v-24.8l23.8,7.4L-219.1,461.5L-219.1,461.5z M-180.7,459.2v3.9H-215v-35h34.3v18l0,0V459.2z M-153.1,463.1    h-23.6v-3.9v-10l23.6-3.1V463.1z"></path><polygon points="-194.6,444.2 -198.6,444.2 -198.6,454.3 -201.1,454.3 -201.1,458.2 -192.1,458.2 -192.1,454.3 -194.6,454.3   "></polygon><rect x="-235.2" y="451.3" width="4" height="7.3"></rect><rect x="-228.3" y="451.3" width="4" height="7.3"></rect><rect x="-172.8" y="451.3" width="4" height="7.3"></rect><rect x="-165.9" y="451.3" width="4" height="7.3"></rect><rect x="-159.3" y="451.3" width="4" height="7.3"></rect></g></g></svg>