<svg height='100px' width='100px'  fill="#000000" xmlns="http://www.w3.org/2000/svg" viewBox="0 0 64 64" x="0px" y="0px"><g><path d="M50.827,56.632c-.051,0-.1-.008-.148-.009-.016,0-.033,0-.049,0q-.471-.006-.98.026l-.13.01c-.31.021-.631.056-.96.1l-.2.025c-.378.054-.766.118-1.168.2s-.792.143-1.17.189c-.1.012-.192.015-.29.024-.276.028-.55.053-.812.062-.1,0-.2,0-.3,0-.249,0-.5,0-.733-.015-.091-.007-.176-.021-.266-.03-.238-.024-.473-.051-.7-.094-.075-.014-.145-.035-.218-.051a6.738,6.738,0,0,1-.675-.18c-.056-.018-.108-.041-.163-.061a5.836,5.836,0,0,1-.657-.279c-.037-.018-.073-.04-.109-.059a5.722,5.722,0,0,1-.637-.392c-.019-.015-.038-.03-.058-.044-.132-.1-.268-.189-.391-.3-.031-.032-.094-.1-.172-.184-.016-.016-.036-.028-.053-.045a5.776,5.776,0,0,1-.978-1.326c-.042-.073-.085-.145-.123-.217-.025-.05-.048-.1-.072-.154l-.019-.039c-.087-.188-.165-.381-.233-.572-.01-.029-.02-.057-.029-.086a8.2,8.2,0,0,1-.464-2.32c0-.062-.011-.123-.015-.184,0-.085-.007-.166-.01-.248a12.4,12.4,0,0,1,.168-2.654,1.024,1.024,0,0,1,.086-.191,1.374,1.374,0,0,1,.059-.129.947.947,0,0,1,.1-.143.857.857,0,0,1,.2-.187,15.813,15.813,0,0,0,5.867-7.033,22.98,22.98,0,0,0,1.648-8.467,18.167,18.167,0,0,1-8.647-12.462C32.569,25.2,21.1,29.6,18.053,30.692c-.008.166-.013.333-.019.5a29.911,29.911,0,0,0,.362,3.837l.008.042q.158.933.366,1.779c.012.047.024.092.035.139.138.547.288,1.07.451,1.564l.022.066a18.094,18.094,0,0,0,2.464,4.9,14.7,14.7,0,0,0,3.794,3.553.975.975,0,0,1,.233.215c.015.018.026.035.039.054a.983.983,0,0,1,.164.362c0,.007.008.012.009.019a13.708,13.708,0,0,1,.2,2.65,11.136,11.136,0,0,1-.2,2.045,7.374,7.374,0,0,1-.515,1.642,4.954,4.954,0,0,1-1.219,1.748c-1.48,1.41-3.609,1.8-6.463,1.171a14.461,14.461,0,0,0-4.588-.365A2.988,2.988,0,0,0,12,59v1H52V59A2.98,2.98,0,0,0,50.827,56.632ZM34.293,30.293a1,1,0,0,1,1.412,0,3.8,3.8,0,0,0,5.588,0,1,1,0,0,1,1.414,1.414,5.693,5.693,0,0,1-4.088,1.858,6.416,6.416,0,0,1-4.326-1.858A1,1,0,0,1,34.293,30.293Zm-8.674,3.272a6.416,6.416,0,0,1-4.326-1.858,1,1,0,0,1,1.412-1.416,3.8,3.8,0,0,0,5.588,0,1,1,0,0,1,1.414,1.414A5.693,5.693,0,0,1,25.619,33.565Zm11.088,7.142a6.369,6.369,0,0,1-4.574,2.079,7.178,7.178,0,0,1-4.84-2.079,1,1,0,0,1,1.412-1.416c.345.339,3.416,3.173,6.588,0a1,1,0,0,1,1.414,1.414Z"></path><path d="M55.447,37.585C53.363,33.833,51,29.581,51,23c0-.022,0-.045,0-.067.005-.081.478-8.173-4.686-13.69C43.063,5.764,38.246,4,32,4c-.082,0-8.4.084-13.944,5.688-3.4,3.435-5.1,8.248-5.056,14.3.077,10.062-2.839,14.521-5.182,18.105C5.25,46.025,3.34,48.946,6.935,58.223a6.951,6.951,0,0,1,1.893-2.1A7.776,7.776,0,0,1,11.46,54.9a10.556,10.556,0,0,1-2.446-9.068,1,1,0,0,1,1.972.33A8.413,8.413,0,0,0,13.6,54.2a.986.986,0,0,1,.288.363,15.9,15.9,0,0,1,2.806.179l.022,0c.487.073.986.166,1.5.28.142.031.262.045.4.07A9.528,9.528,0,0,1,16,49a1,1,0,0,1,2,0c0,3.08,2.85,5.587,3.475,6.1a3.136,3.136,0,0,0,1.407-.773,5.45,5.45,0,0,0,1.286-3.556c0-.1.012-.2.014-.3,0-.031,0-.06,0-.091a12.094,12.094,0,0,0-.11-1.849,14.683,14.683,0,0,1-4.153-4.1c-.039-.053-.081-.1-.119-.153-.073-.109-.136-.227-.207-.338-.155-.238-.306-.488-.458-.748-.082-.143-.165-.285-.245-.431-.173-.316-.341-.651-.506-1-.056-.117-.114-.231-.168-.35-.16-.353-.312-.727-.461-1.11-.048-.125-.1-.246-.146-.372-.128-.349-.246-.72-.363-1.095-.052-.169-.109-.335-.158-.506-.094-.328-.177-.674-.261-1.02-.056-.233-.116-.463-.166-.7-.066-.311-.123-.637-.18-.962-.052-.293-.1-.586-.146-.886s-.081-.621-.117-.94c-.038-.345-.073-.694-.1-1.047-.025-.3-.045-.612-.062-.927-.007-.152-.023-.3-.029-.451,0-.083.006-.155.008-.236C16.024,30.774,16,30.4,16,30a1,1,0,0,1,.683-.948L16.821,29c.195-.067.4-.144.608-.216a75.543,75.543,0,0,0,10.009-4.494c3.889-2.157,7.436-4.749,9.063-7.5.028-.048.055-.1.083-.146a7.481,7.481,0,0,0,.483-1,1,1,0,0,1,1.934.37,17.178,17.178,0,0,0,3.5,9.909c.018.023.032.047.05.07.266.338.559.671.867,1,.036.039.065.079.1.117.3.308.62.608.955.9.062.054.113.112.176.165.318.273.669.532,1.024.79.1.07.181.146.281.215.339.235.713.453,1.085.671.15.087.282.183.437.268A1,1,0,0,1,48,31c0,11.743-6.24,16.418-8.071,17.537a10.714,10.714,0,0,0-.088,1.223c0,.171,0,.349.006.536,0,.044,0,.089.007.135a8.114,8.114,0,0,0,.2,1.461c.012.044.027.1.04.144a5.708,5.708,0,0,0,.2.638c.017.046.037.084.056.128a4.648,4.648,0,0,0,.224.439,7.157,7.157,0,0,0,.685.914,3.7,3.7,0,0,0,1.4.823C43.5,54.265,46,51.885,46,49a1,1,0,0,1,2,0,9.629,9.629,0,0,1-2.734,6.229c.167-.013.333-.025.507-.046.035,0,.068-.005.1-.01q.447-.059.927-.153c.463-.093.911-.165,1.35-.226.154-.021.3-.036.452-.053.283-.033.561-.06.832-.078.163-.011.324-.021.483-.027l.169-.009A.97.97,0,0,1,50.4,54.2a8.363,8.363,0,0,0,2.617-8.038,1,1,0,1,1,1.972-.33,10.575,10.575,0,0,1-2.369,8.983,6.972,6.972,0,0,1,3.337,1.516,5.73,5.73,0,0,1,1.239,1.519C60.99,47.565,58.4,42.91,55.447,37.585ZM18.935,18.359a1,1,0,1,1-1.867-.718C22.312,4.012,38.04,6.989,38.2,7.02a1,1,0,0,1-.391,1.961,22.176,22.176,0,0,0-7.8.137A14.2,14.2,0,0,0,18.935,18.359Zm19.178-5.365A22.932,22.932,0,0,0,23.8,21.6a1,1,0,1,1-1.6-1.2,24.548,24.548,0,0,1,15.689-9.394,1,1,0,0,1,.222,1.988Zm9.595,10.713a1,1,0,0,1-1.414,0c-2.122-2.122-4.042-8.69-4.254-9.432a1,1,0,0,1,1.923-.55C44.5,15.6,46.22,20.8,47.708,22.293A1,1,0,0,1,47.708,23.707Z"></path></g></svg>