<svg height='100px' width='100px'  fill="#000000" xmlns="http://www.w3.org/2000/svg" xmlns:xlink="http://www.w3.org/1999/xlink" version="1.1" x="0px" y="0px" viewBox="0 0 24 24" style="enable-background:new 0 0 24 24;" xml:space="preserve"><g><path d="M12,24c-4.411,0-8-3.589-8-8s3.589-8,8-8s8,3.589,8,8S16.411,24,12,24z M12,9c-3.86,0-7,3.14-7,7c0,3.859,3.14,7,7,7   c3.859,0,7-3.141,7-7C19,12.14,15.859,9,12,9z"></path><rect x="10" y="5" width="4" height="1"></rect><rect x="3" y="4.5" width="2" height="1"></rect><path d="M17,16h-1c0-2.206-1.794-4-4-4v-1C14.757,11,17,13.243,17,16z"></path><path d="M21.5,24h-2.682v-1H21.5c0.827,0,1.5-0.673,1.5-1.5v-14C23,6.673,22.327,6,21.5,6h-3.008C17.669,6,17,5.331,17,4.508V3.997   C17,3.447,16.553,3,16.004,3H7.997C7.447,3,7,3.447,7,3.997v0.511C7,5.331,6.331,6,5.508,6H2.5C1.673,6,1,6.673,1,7.5v14   C1,22.327,1.673,23,2.5,23h2.681v1H2.5C1.122,24,0,22.879,0,21.5v-14C0,6.122,1.122,5,2.5,5h3.007C5.779,5,6,4.779,6,4.508V3.997   C6,2.896,6.896,2,7.997,2h8.007C17.104,2,18,2.896,18,3.997v0.511C18,4.779,18.221,5,18.492,5H21.5C22.879,5,24,6.122,24,7.5v14   C24,22.879,22.879,24,21.5,24z"></path></g></svg>