<svg height='100px' width='100px'  fill="#000000" xmlns="http://www.w3.org/2000/svg" viewBox="0 0 512 512" x="0px" y="0px"><g><path d="M496,80.81V79.19A31.316,31.316,0,0,0,475,49.7a36.446,36.446,0,0,0-14.821-13.861,36,36,0,0,0-68.033,12.963A31.183,31.183,0,0,0,377.3,56.978L324.8,17.6A8.006,8.006,0,0,0,320,16H256a8,8,0,0,0-3.777.948L111.6,92.283,100.124,80.81a31.8,31.8,0,0,0,3.431-8.24H129.14v-16H103.556a31.826,31.826,0,0,0-3.431-8.242l18.1-18.1L106.914,18.913l-18.1,18.1a31.765,31.765,0,0,0-8.242-3.432V16h-16V33.581a31.786,31.786,0,0,0-8.243,3.432l-18.1-18.1L26.913,30.228l18.1,18.1a31.786,31.786,0,0,0-3.432,8.243H16v16H41.582a31.765,31.765,0,0,0,3.432,8.242l-18.1,18.1,11.315,11.313,18.1-18.1a31.826,31.826,0,0,0,8.242,3.431v21.92L28.223,136.948h0A8,8,0,0,0,24,144V488h0a7.986,7.986,0,0,0,8,8H416a8,8,0,0,0,5.979-2.686l64-72A7.994,7.994,0,0,0,488,416V144a7.979,7.979,0,0,0-3.206-6.393l.006-.007L450.667,112H464.81A31.226,31.226,0,0,0,496,80.81ZM424,408V347.042l48-54V408ZM312,56,280,32h32Zm96,208H392V176a8,8,0,0,0-8-8H128a8,8,0,0,0-8,8v88H104V152H408Zm16,16h38.186L424,322.958Zm-16,56H392V280h16ZM210.25,448a23.926,23.926,0,0,1-23.333-18.383l-3.26-13.538c14.915,4.021,34.31,6.672,56.008,7.582l.67-15.986c-24.909-1.044-47.1-4.585-61.043-9.723l-6.06-25.165c21.725,8.234,54.046,10.349,66.415,10.865,5.227.231,10.729.348,16.353.348s11.126-.117,16.334-.347c21.049-.879,40.093-3.413,55.072-7.328a116.1,116.1,0,0,0,11.364-3.546l-13.688,56.84A23.925,23.925,0,0,1,301.75,448ZM88,336H49.814L88,293.042Zm16-56h16v56H104Zm32,0h40.248A67.683,67.683,0,0,0,220,296h12v24.749c-30.875,1.928-55.969,7.475-68.884,15.251H136Zm240-16H349.65A67.577,67.577,0,0,0,360,228V208a8,8,0,0,0-8-8H316a68.054,68.054,0,0,0-60,36.042A68.054,68.054,0,0,0,196,200H160a8,8,0,0,0-8,8v20a67.577,67.577,0,0,0,10.35,36H136V184H376ZM280,367.225V336.784c32.255,2.125,54.135,8.252,61.915,13.751A11.028,11.028,0,0,1,343.654,352C340.747,355.011,324.467,364.387,280,367.225Zm-16,.691c-2.623.056-5.3.084-8,.084s-5.375-.028-8-.084V296h16ZM168.347,352a10.991,10.991,0,0,1,1.74-1.467c7.778-5.5,29.658-11.624,61.913-13.749v30.441C187.536,364.389,171.253,355.011,168.347,352ZM168,228v-2.92L233.9,280H220A52.059,52.059,0,0,1,168,228Zm80,42.92L182.1,216H196a52.059,52.059,0,0,1,52,52ZM278.1,280,344,225.08V228a52.059,52.059,0,0,1-52,52ZM264,270.92V268a52.059,52.059,0,0,1,52-52h13.9Zm94.957,86.373A14.263,14.263,0,0,0,360,352h16v56H346.746ZM348.882,336c-12.916-7.776-38.009-13.323-68.882-15.251V296h12a67.683,67.683,0,0,0,43.752-16H376v56ZM248,136H120L248,40Zm80,0V88l64,48Zm-16,0H264V40l48,36ZM93.333,136H63.874L166.98,80.765ZM88,152V268.958l-48,54V152ZM40,352H88v60.958l-48,54Zm64,0h16v56H104Zm32,0h16a14.263,14.263,0,0,0,1.043,5.293L165.254,408H136Zm33.107,72,2.254,9.361A39.879,39.879,0,0,0,210.25,464h32.377l-14.22,16H136V424Zm94.926,40H301.75a39.877,39.877,0,0,0,38.888-30.637L342.893,424H376v56H249.813ZM392,424h16v56H392Zm0-16V352h16v56Zm80-144H424V152h48ZM418.667,136,328,68V40l128,96ZM56.568,64.568a16,16,0,1,1,16,16A16.019,16.019,0,0,1,56.568,64.568Zm24,30.987a31.8,31.8,0,0,0,8.24-3.431l8.053,8.053L80.57,108.905ZM99.593,424H120v56H49.814ZM424,424h38.185L424,466.958Zm-33.6-357.2A15.18,15.18,0,0,1,399.19,64h1.1a8,8,0,0,0,7.917-9.151A19.766,19.766,0,0,1,408,52a20,20,0,0,1,38.651-7.218,8.006,8.006,0,0,0,4.573,4.569,20.182,20.182,0,0,1,11.007,10.428,8,8,0,0,0,5.677,4.537A15.225,15.225,0,0,1,480,79.19v1.62A15.207,15.207,0,0,1,464.81,96H429.334Z"></path><path d="M271.664,408.007l.672,15.986c8.488-.356,16.758-.992,24.576-1.889l-1.824-15.9C287.65,407.062,279.77,407.667,271.664,408.007Z"></path></g></svg>