<svg height='100px' width='100px'  fill="#000000" xmlns="http://www.w3.org/2000/svg" viewBox="0 0 48 48" x="0px" y="0px"><title>Valentine vol.1</title><g data-name="Layer 2"><path d="M31.11865,14.97461H24.38379V13.27814C25.94843,12.268,30.51617,9.0553,30.919,5.73975A4.38734,4.38734,0,0,0,29.87256,2.2334,4.45908,4.45908,0,0,0,26.52246.71924a4.64252,4.64252,0,0,0-3.124,1.25488A4.82015,4.82015,0,0,0,20.01758.72119a4.56883,4.56883,0,0,0-3.229,1.64307,4.35962,4.35962,0,0,0-.939,3.37109c.39642,3.29083,4.92212,6.47882,6.53418,7.51734v1.72192H15.64893a1,1,0,0,0-1,1V46.2832a1,1,0,0,0,1,1H31.11865a1,1,0,0,0,1-1V15.97461A1,1,0,0,0,31.11865,14.97461ZM17.8335,5.48486a2.35066,2.35066,0,0,1,.501-1.85205,2.55,2.55,0,0,1,1.78516-.91406c.03076-.00146.061-.00195.0918-.00195a3.083,3.083,0,0,1,2.40283,1.3374,1,1,0,0,0,.79053.38769h.00488a1.001,1.001,0,0,0,.792-.3955,2.93786,2.93786,0,0,1,2.3208-1.32715,2.45873,2.45873,0,0,1,1.84766.83447,2.411,2.411,0,0,1,.56494,1.93359l-.001.00879c-.26074,2.16309-3.7041,4.83448-5.53027,6.03321C21.62158,10.36084,18.09375,7.64258,17.8335,5.48486ZM30.11865,16.97461v3.24316a2.20063,2.20063,0,0,0-1.37158.20264c-.83545.44238-1.25928,1.38965-1.25928,2.81543,0,2.46045-.84814,4.68506-1.668,5.41406a.96607.96607,0,0,1-.31884.20313,17.005,17.005,0,0,1-.59619-3.78418c-.27442-2.99951-.49122-5.36914-2.13672-5.65918-1.36963-.24121-2.04737,1.00879-2.59327,2.01318-.73138,1.34534-1.48962,2.72882-3.52587,2.77118V16.97461ZM16.64893,45.2832V26.19232c3.21777-.04126,4.49322-2.36242,5.28271-3.8139.13672-.251.30566-.56153.44922-.7793a21.03111,21.03111,0,0,1,.53223,3.65186c.27636,3.02148.49462,5.40771,2.1958,5.60791a2.31386,2.31386,0,0,0,.27.01562,2.62708,2.62708,0,0,0,1.77-.73c1.377-1.22461,2.33886-4.06543,2.33886-6.90869,0-.84473.19532-1.04688.19336-1.04688a.84066.84066,0,0,1,.4375.08021v23.014Z"></path></g></svg>