<?xml version="1.0" encoding="utf-8"?>
<!-- Generator: Adobe Illustrator 24.2.1, SVG Export Plug-In . SVG Version: 6.00 Build 0)  -->
<svg version="1.1" id="Layer_1" xmlns="http://www.w3.org/2000/svg" xmlns:xlink="http://www.w3.org/1999/xlink" x="0px" y="0px"
	 viewBox="0 0 100 100" enable-background="new 0 0 100 100" xml:space="preserve">
<g>
	<path d="M66.724,64.476v7.406c0,0.496,0.046,0.827,0.177,0.991c0.101,0.127,0.33,0.185,0.727,0.185h0.808V55.893h-0.808
		c-0.397,0-0.626,0.059-0.727,0.185c-0.131,0.164-0.177,0.495-0.177,0.991V64.476z M38.261,42.429
		c0.296,0.038,0.585,0.057,0.883,0.058v-0.833c-0.263-0.001-0.517-0.018-0.778-0.052C38.366,41.602,38.261,42.429,38.261,42.429z
		 M40.876,42.259c0.286-0.076,0.568-0.174,0.841-0.289l-0.325-0.768c-0.238,0.1-0.485,0.185-0.734,0.252L40.876,42.259z
		 M43.907,40.477c0.207-0.213,0.398-0.437,0.575-0.676l-0.67-0.495c-0.156,0.209-0.323,0.405-0.505,0.592
		C43.307,39.898,43.907,40.477,43.907,40.477z M45.606,37.401c0.07-0.289,0.118-0.579,0.149-0.875l-0.829-0.084
		c-0.027,0.259-0.07,0.513-0.131,0.767C44.795,37.209,45.606,37.401,45.606,37.401z M45.498,33.889
		c-0.087-0.283-0.193-0.562-0.318-0.83l-0.755,0.353c0.109,0.235,0.201,0.478,0.277,0.725
		C44.703,34.136,45.498,33.889,45.498,33.889z M43.615,30.924c-0.218-0.199-0.454-0.386-0.697-0.554l-0.471,0.688
		c0.211,0.146,0.417,0.309,0.607,0.483C43.054,31.541,43.615,30.924,43.615,30.924z M40.48,29.331
		c-0.292-0.059-0.583-0.099-0.88-0.119l-0.053,0.832c0.26,0.018,0.515,0.053,0.771,0.105C40.318,30.148,40.48,29.331,40.48,29.331z
		 M36.976,29.558c-0.277,0.092-0.558,0.215-0.819,0.346l0.375,0.744c0.228-0.114,0.473-0.222,0.715-0.302L36.976,29.558z
		 M34.076,31.544c-0.192,0.226-0.367,0.464-0.528,0.714l0.702,0.45c0.141-0.219,0.294-0.427,0.463-0.625
		C34.712,32.082,34.076,31.544,34.076,31.544z M32.592,34.73c-0.049,0.292-0.078,0.587-0.089,0.883l0.833,0.026
		c0.009-0.26,0.035-0.517,0.078-0.774C33.414,34.867,32.592,34.73,32.592,34.73z M32.94,38.227c0.106,0.277,0.232,0.546,0.374,0.806
		l0.73-0.402c-0.124-0.227-0.234-0.463-0.327-0.705L32.94,38.227z M35.025,41.056c0.233,0.184,0.476,0.351,0.731,0.503l0.424-0.717
		c-0.224-0.133-0.436-0.28-0.641-0.441C35.54,40.401,35.025,41.056,35.025,41.056z M47.295,48.459
		c0.192-0.125,0.45-0.07,0.575,0.122c0.125,0.192,0.07,0.45-0.122,0.575c-1.261,0.816-2.644,1.458-4.115,1.892
		c-1.425,0.42-2.931,0.645-4.488,0.645c-1.897,0-3.719-0.335-5.409-0.948c-1.752-0.636-3.36-1.572-4.761-2.745
		c-0.176-0.147-0.199-0.41-0.052-0.586c0.147-0.176,0.41-0.199,0.586-0.052c1.329,1.113,2.852,2,4.51,2.602
		c1.597,0.58,3.324,0.896,5.126,0.896c1.48,0,2.907-0.213,4.253-0.61C44.793,49.838,46.102,49.231,47.295,48.459z M29.977,23.945
		c-0.182,0.14-0.442,0.107-0.583-0.075c-0.14-0.182-0.107-0.442,0.075-0.583c1.363-1.052,2.902-1.887,4.564-2.453
		c1.605-0.547,3.324-0.843,5.111-0.843c0.23,0,0.417,0.187,0.417,0.417c0,0.23-0.187,0.417-0.417,0.417
		c-1.697,0-3.326,0.281-4.844,0.798C32.725,22.158,31.267,22.949,29.977,23.945z M39.145,44.887c-2.498,0-4.759-1.012-6.396-2.649
		c-1.637-1.637-2.649-3.898-2.649-6.396s1.012-4.759,2.649-6.396c1.637-1.637,3.898-2.649,6.396-2.649s4.759,1.012,6.396,2.649
		c1.637,1.637,2.649,3.898,2.649,6.396s-1.012,4.759-2.649,6.396C43.904,43.874,41.642,44.887,39.145,44.887z M33.692,41.295
		c1.396,1.396,3.324,2.259,5.453,2.259c2.13,0,4.058-0.863,5.453-2.259c1.396-1.396,2.259-3.323,2.259-5.453
		c0-2.13-0.863-4.058-2.259-5.453c-1.396-1.396-3.323-2.259-5.453-2.259c-2.13,0-4.058,0.863-5.453,2.259
		c-1.396,1.396-2.259,3.323-2.259,5.453C31.433,37.971,32.296,39.899,33.692,41.295z M31.064,73.059V55.893h-0.832v17.166H31.064z
		 M31.564,55.893v17.166h0.808c0.397,0,0.626-0.059,0.727-0.185c0.131-0.164,0.177-0.495,0.177-0.991V57.07
		c0-0.496-0.046-0.827-0.177-0.991c-0.101-0.127-0.33-0.185-0.727-0.185H31.564z M29.399,73.059V55.893h-0.904v17.166H29.399z
		 M23.926,73.059V55.893h-0.324c-0.397,0-0.626,0.059-0.727,0.185c-0.131,0.164-0.177,0.495-0.177,0.991v14.812
		c0,0.496,0.046,0.827,0.177,0.991c0.101,0.127,0.33,0.185,0.727,0.185H23.926z M24.426,55.893v17.166h0.832V55.893H24.426z
		 M26.091,55.893v17.166h0.904V55.893H26.091z M34.609,64.476v2.344h30.782v-4.585H34.609V64.476z M34.609,68.32v3.563
		c0,0.794-0.122,1.384-0.469,1.819c-0.376,0.472-0.933,0.691-1.769,0.691h-2.644c0.67,2.317,2.036,4.944,3.739,7.338
		c1.864,2.622,4.118,4.944,6.287,6.248c1.536,0.924,3.147,1.627,4.796,2.107c3.7,1.079,7.201,1.079,10.901,0
		c1.649-0.481,3.26-1.183,4.796-2.107c2.169-1.305,4.422-3.627,6.287-6.248c1.702-2.394,3.068-5.021,3.739-7.338h-2.644
		c-0.836,0-1.393-0.218-1.769-0.691c-0.346-0.435-0.469-1.026-0.469-1.819V68.32h-5.412v4.696c0,1.167-0.171,2.024-0.655,2.633
		c-0.514,0.646-1.298,0.944-2.491,0.944H43.168c-1.193,0-1.977-0.298-2.491-0.944c-0.484-0.609-0.655-1.466-0.655-2.633V68.32
		C40.021,68.32,34.609,68.32,34.609,68.32z M28.35,74.392h-4.747c-0.836,0-1.393-0.218-1.769-0.691
		c-0.346-0.435-0.469-1.026-0.469-1.819v-3.603c-1.683-0.14-2.76-1.069-3.26-2.233c-0.208-0.484-0.31-1.01-0.31-1.537
		c0-0.527,0.102-1.051,0.304-1.532c0.505-1.206,1.608-2.162,3.265-2.257v-3.65c0-0.794,0.122-1.384,0.469-1.819
		c0.376-0.472,0.933-0.691,1.769-0.691h2.044V11.677c0-0.943,0.018-1.773,0.273-2.44c0.311-0.811,0.897-1.319,2.014-1.38
		C28,7.853,28.131,7.843,28.256,7.834c1-0.072,1.55-0.112,2.617,1c0.724,0.754,1.149,1.546,1.571,2.331
		c0.327,0.609,0.652,1.213,1.1,1.74c0.307,0.36,0.613,0.599,0.918,0.617c0.324,0.018,0.727-0.193,1.246-0.739
		c0.424-0.446,0.774-1.032,1.134-1.636c0.375-0.628,0.76-1.275,1.279-1.872c0.083-0.096,0.174-0.184,0.27-0.265
		c0.449-0.378,0.957-0.517,1.465-0.467c0.476,0.047,0.937,0.264,1.331,0.607c0.118,0.103,0.234,0.221,0.345,0.353
		c0.645,0.766,1.135,2.315,1.601,3.788c0.342,1.08,0.67,2.116,0.98,2.624c0.084,0.137,0.183,0.237,0.292,0.305
		c0.138,0.086,0.296,0.124,0.455,0.118c0.17-0.006,0.344-0.06,0.501-0.156c0.144-0.088,0.272-0.211,0.367-0.363
		c0.408-0.654,0.654-1.718,0.902-2.792c0.535-2.317,1.08-4.675,3.37-4.618c2.29-0.057,2.835,2.301,3.37,4.618
		c0.248,1.074,0.494,2.137,0.902,2.792c0.095,0.152,0.223,0.275,0.367,0.363c0.157,0.096,0.331,0.151,0.501,0.156
		c0.159,0.005,0.317-0.032,0.455-0.118c0.109-0.068,0.208-0.168,0.292-0.305c0.31-0.508,0.638-1.544,0.98-2.624
		c0.466-1.472,0.956-3.022,1.601-3.788c0.111-0.132,0.226-0.25,0.345-0.353c0.395-0.343,0.856-0.56,1.331-0.607
		c0.508-0.05,1.016,0.089,1.465,0.467c0.097,0.081,0.187,0.17,0.27,0.265c0.518,0.597,0.904,1.244,1.279,1.872
		c0.36,0.604,0.71,1.19,1.134,1.636c0.519,0.546,0.923,0.757,1.246,0.739c0.305-0.017,0.611-0.257,0.918-0.617
		c0.448-0.526,0.773-1.13,1.1-1.74c0.421-0.785,0.847-1.577,1.571-2.331c1.067-1.112,1.617-1.072,2.617-1
		C71.869,7.843,72,7.853,72.066,7.856c1.117,0.061,1.703,0.569,2.014,1.38c0.256,0.667,0.273,1.497,0.273,2.44V54.56h2.044
		c0.836,0,1.393,0.218,1.769,0.691c0.346,0.435,0.469,1.026,0.469,1.819v3.65c1.658,0.095,2.76,1.051,3.265,2.257
		c0.201,0.481,0.304,1.005,0.304,1.532c0,0.527-0.102,1.053-0.31,1.537c-0.499,1.164-1.577,2.093-3.26,2.233v3.603
		c0,0.794-0.122,1.384-0.469,1.819c-0.376,0.472-0.933,0.691-1.769,0.691H71.65c-0.675,2.559-2.164,5.48-4.033,8.109
		c-1.962,2.759-4.357,5.216-6.688,6.618c-1.632,0.982-3.348,1.73-5.109,2.243c-3.716,1.083-7.925,1.083-11.641,0
		c-1.761-0.513-3.477-1.261-5.109-2.243c-2.331-1.403-4.726-3.86-6.688-6.618C30.513,79.872,29.025,76.951,28.35,74.392z
		 M21.365,66.77v-4.546c-0.961,0.088-1.594,0.638-1.883,1.327c-0.128,0.305-0.192,0.632-0.192,0.958c0,0.325,0.063,0.65,0.193,0.951
		C19.764,66.116,20.383,66.647,21.365,66.77z M26.98,54.56h5.392c0.836,0,1.393,0.218,1.769,0.691
		c0.346,0.435,0.468,1.026,0.468,1.819v3.664h5.412v-4.387c0-1.167,0.171-2.024,0.655-2.633c0.514-0.646,1.298-0.944,2.491-0.944
		l0.003,0.003l13.706,0.055v-0.003c1.193,0,1.965,0.283,2.469,0.917c0.475,0.597,0.633,1.438,0.633,2.605v4.387h5.412V57.07
		c0-0.794,0.122-1.384,0.468-1.819c0.376-0.472,0.933-0.691,1.769-0.691h5.392V11.677c0-0.81-0.012-1.515-0.185-1.966
		c-0.118-0.307-0.359-0.5-0.837-0.526c-0.172-0.009-0.262-0.016-0.348-0.022c-0.601-0.043-0.93-0.067-1.565,0.593
		c-0.595,0.619-0.978,1.333-1.357,2.039c-0.36,0.67-0.717,1.335-1.262,1.974c-0.53,0.622-1.129,1.039-1.856,1.08
		c-0.708,0.04-1.462-0.287-2.283-1.15c-0.524-0.551-0.912-1.201-1.311-1.871c-0.345-0.579-0.7-1.174-1.143-1.685
		c-0.042-0.049-0.082-0.089-0.119-0.12c-0.152-0.128-0.318-0.176-0.48-0.16c-0.195,0.019-0.4,0.123-0.592,0.289
		c-0.072,0.063-0.139,0.13-0.199,0.202c-0.466,0.553-0.917,1.979-1.346,3.335c-0.365,1.154-0.716,2.261-1.115,2.915
		c-0.198,0.324-0.446,0.569-0.724,0.743c-0.369,0.231-0.785,0.33-1.2,0.316c-0.403-0.014-0.803-0.136-1.153-0.349
		c-0.317-0.194-0.597-0.463-0.805-0.796c-0.524-0.839-0.795-2.013-1.069-3.198c-0.407-1.761-0.821-3.552-1.996-3.585
		c-0.022,0.001-0.044,0.001-0.067,0c-0.004,0-0.007,0-0.011,0c-0.004,0-0.007,0-0.011,0c-0.023,0.001-0.045,0.001-0.067,0
		c-1.175,0.033-1.589,1.824-1.996,3.585c-0.274,1.185-0.545,2.358-1.069,3.198c-0.208,0.333-0.487,0.602-0.805,0.796
		c-0.35,0.214-0.749,0.335-1.153,0.349c-0.415,0.014-0.83-0.085-1.2-0.316c-0.278-0.174-0.527-0.419-0.724-0.743
		c-0.399-0.654-0.75-1.761-1.115-2.915c-0.429-1.355-0.88-2.781-1.346-3.335c-0.06-0.071-0.127-0.139-0.199-0.202
		c-0.192-0.166-0.397-0.27-0.592-0.289c-0.162-0.016-0.328,0.032-0.48,0.16c-0.037,0.031-0.077,0.071-0.119,0.12
		c-0.443,0.51-0.798,1.106-1.143,1.685c-0.399,0.67-0.787,1.319-1.311,1.871c-0.821,0.863-1.575,1.191-2.283,1.15
		c-0.727-0.041-1.326-0.459-1.856-1.08c-0.545-0.639-0.902-1.304-1.262-1.974c-0.379-0.706-0.763-1.419-1.357-2.039
		c-0.634-0.661-0.964-0.637-1.565-0.593c-0.085,0.006-0.176,0.013-0.348,0.022c-0.478,0.026-0.719,0.219-0.837,0.526
		c-0.173,0.451-0.185,1.156-0.185,1.966C26.98,11.677,26.98,54.56,26.98,54.56z M41.354,60.734h17.291v-4.387
		c0-0.869-0.086-1.455-0.342-1.777c-0.226-0.285-0.673-0.411-1.427-0.411l-0.003-0.003l-13.706-0.055v0.003
		c-0.755,0-1.211,0.139-1.45,0.439c-0.269,0.338-0.364,0.936-0.364,1.805C41.354,56.347,41.354,60.734,41.354,60.734z M58.646,68.32
		H41.354v4.696c0,0.869,0.095,1.467,0.364,1.805c0.239,0.3,0.695,0.439,1.45,0.439h13.665c0.755,0,1.211-0.139,1.45-0.439
		c0.269-0.338,0.364-0.936,0.364-1.805V68.32z M78.635,66.77c0.982-0.124,1.601-0.654,1.883-1.31
		c0.129-0.301,0.193-0.626,0.193-0.951c0-0.325-0.065-0.653-0.192-0.958c-0.288-0.688-0.922-1.239-1.883-1.327V66.77z
		 M38.982,85.254c-0.197-0.118-0.261-0.373-0.143-0.57c0.118-0.197,0.373-0.261,0.57-0.143c1.636,0.984,3.358,1.72,5.122,2.208
		c1.792,0.496,3.627,0.736,5.46,0.72l0.008,0h0.003l0.008,0c1.833,0.016,3.668-0.224,5.46-0.72c1.764-0.488,3.486-1.224,5.122-2.208
		c0.197-0.118,0.452-0.054,0.57,0.143c0.118,0.197,0.054,0.452-0.143,0.57c-1.7,1.023-3.491,1.788-5.327,2.296
		c-1.865,0.516-3.777,0.766-5.688,0.749l-0.003,0l-0.003,0c-1.911,0.016-3.823-0.233-5.688-0.749
		C42.473,87.043,40.682,86.277,38.982,85.254z M61.634,41.602c-0.261,0.034-0.515,0.051-0.778,0.052v0.833
		c0.298-0.001,0.587-0.02,0.883-0.058C61.739,42.429,61.634,41.602,61.634,41.602z M59.341,41.455
		c-0.25-0.067-0.496-0.152-0.734-0.252l-0.325,0.768c0.273,0.115,0.555,0.212,0.841,0.289L59.341,41.455z M56.693,39.898
		c-0.182-0.187-0.349-0.383-0.505-0.592l-0.67,0.495c0.177,0.238,0.369,0.462,0.575,0.676L56.693,39.898z M55.205,37.209
		c-0.061-0.254-0.104-0.507-0.131-0.767l-0.829,0.084c0.031,0.296,0.08,0.586,0.149,0.875L55.205,37.209z M55.297,34.136
		c0.076-0.247,0.168-0.491,0.277-0.725l-0.755-0.353c-0.125,0.269-0.231,0.547-0.318,0.83
		C54.502,33.889,55.297,34.136,55.297,34.136z M56.946,31.541c0.189-0.173,0.396-0.337,0.607-0.483l-0.471-0.688
		c-0.243,0.167-0.479,0.355-0.697,0.554C56.385,30.924,56.946,31.541,56.946,31.541z M59.682,30.148
		c0.256-0.051,0.51-0.087,0.771-0.105L60.4,29.212c-0.297,0.02-0.588,0.06-0.88,0.119C59.52,29.331,59.682,30.148,59.682,30.148z
		 M62.752,30.346c0.242,0.081,0.487,0.188,0.715,0.302l0.375-0.744c-0.261-0.131-0.542-0.254-0.819-0.346L62.752,30.346z
		 M65.288,32.082c0.169,0.198,0.322,0.406,0.463,0.625l0.702-0.45c-0.161-0.25-0.336-0.487-0.528-0.713
		C65.924,31.544,65.288,32.082,65.288,32.082z M66.586,34.867c0.043,0.256,0.069,0.514,0.078,0.774l0.833-0.026
		c-0.01-0.296-0.039-0.591-0.089-0.883C67.408,34.73,66.586,34.867,66.586,34.867z M66.283,37.926
		c-0.093,0.242-0.202,0.478-0.327,0.705l0.73,0.402c0.142-0.26,0.268-0.529,0.374-0.806C67.06,38.227,66.283,37.926,66.283,37.926z
		 M64.46,40.401c-0.204,0.161-0.417,0.308-0.64,0.441l0.424,0.717c0.255-0.152,0.498-0.319,0.731-0.503
		C64.975,41.056,64.46,40.401,64.46,40.401z M52.253,49.155c-0.192-0.125-0.247-0.382-0.122-0.575
		c0.125-0.192,0.382-0.247,0.575-0.122c1.192,0.772,2.502,1.38,3.897,1.791c1.346,0.397,2.774,0.61,4.253,0.61
		c1.803,0,3.529-0.316,5.126-0.896c1.658-0.602,3.181-1.489,4.51-2.602c0.176-0.147,0.439-0.124,0.586,0.052
		s0.124,0.439-0.052,0.586c-1.401,1.173-3.008,2.109-4.761,2.745c-1.69,0.614-3.512,0.948-5.409,0.948
		c-1.556,0-3.062-0.225-4.488-0.645C54.896,50.613,53.513,49.971,52.253,49.155z M70.531,23.287c0.182,0.14,0.215,0.401,0.075,0.583
		c-0.14,0.182-0.401,0.215-0.583,0.075c-1.29-0.996-2.748-1.786-4.323-2.323c-1.518-0.517-3.148-0.798-4.844-0.798
		c-0.23,0-0.417-0.187-0.417-0.417c0-0.23,0.187-0.417,0.417-0.417c1.787,0,3.506,0.297,5.111,0.843
		C67.629,21.4,69.167,22.235,70.531,23.287z M60.855,43.553c2.13,0,4.058-0.863,5.453-2.259c1.396-1.396,2.259-3.324,2.259-5.453
		c0-2.13-0.863-4.058-2.259-5.453c-1.396-1.396-3.323-2.259-5.453-2.259s-4.058,0.863-5.453,2.259
		c-1.396,1.396-2.259,3.324-2.259,5.453s0.863,4.058,2.259,5.453C56.798,42.69,58.726,43.553,60.855,43.553z M67.251,42.237
		c-1.637,1.637-3.898,2.649-6.396,2.649c-2.498,0-4.759-1.012-6.396-2.649c-1.637-1.637-2.649-3.898-2.649-6.396
		c0-2.498,1.012-4.759,2.649-6.396c1.637-1.637,3.898-2.649,6.396-2.649s4.759,1.012,6.396,2.649
		c1.637,1.637,2.649,3.898,2.649,6.396C69.9,38.339,68.888,40.601,67.251,42.237z M68.936,73.059h0.832V55.893h-0.832V73.059z
		 M70.601,73.059h0.904V55.893h-0.904V73.059z M75.574,73.059V55.893h-0.832v17.166H75.574z M76.074,55.893v17.166h0.324
		c0.397,0,0.626-0.059,0.727-0.185c0.131-0.164,0.177-0.495,0.177-0.991V57.07c0-0.496-0.046-0.827-0.177-0.991
		c-0.101-0.127-0.33-0.185-0.727-0.185H76.074z M73.909,73.059V55.893h-0.904v17.166H73.909z"/>
</g>
</svg>
