<svg height='100px' width='100px'  fill="#000000" xmlns="http://www.w3.org/2000/svg" xmlns:xlink="http://www.w3.org/1999/xlink" version="1.1" x="0px" y="0px" viewBox="0 0 100 100" style="enable-background:new 0 0 100 100;" xml:space="preserve"><style type="text/css">
	.st0{fill:none;stroke:#000000;stroke-width:2;stroke-linecap:round;stroke-linejoin:round;stroke-miterlimit:10;}
	.st1{fill:none;stroke:#000000;stroke-width:2;stroke-miterlimit:10;}
</style><path d="M75.5,35c-4.8-5.1-13.2-7.7-25-7.7c0,0,0,0,0,0h-0.2c0,0,0,0,0,0c-11.8,0-20.3,2.6-25,7.7c-4.1,4.4-3.8,9-3.8,9.1v42.6  c0,0.6,0.4,1,1,1s1-0.4,1-1l0-9.5h53.9v9.5c0,0.6,0.4,1,1,1s1-0.4,1-1l0-42.5C79.4,44,79.6,39.4,75.5,35z M23.4,58.3  c2.9-1,24.8-7.7,53.9,0v8.8H23.4L23.4,58.3z M46.7,52.7c-7.3,0.2-13.3,1.1-17.5,2v-6.9c0-0.8,0.7-1.5,1.5-1.5h14.4  c0.8,0,1.5,0.7,1.5,1.5V52.7z M71.6,54.9c-6.3-1.3-12.1-1.9-17.5-2.2v-4.9c0-0.8,0.7-1.5,1.5-1.5h14.4c0.8,0,1.5,0.7,1.5,1.5V54.9z   M26.8,36.3c4.3-4.6,12.5-7,23.6-7.1c11.1,0,19.3,2.5,23.6,7.1c3.5,3.7,3.3,7.6,3.3,7.8v12.1c-1.3-0.3-2.5-0.6-3.8-0.9v-7.5  c0-1.9-1.6-3.5-3.5-3.5H55.6c-1.9,0-3.5,1.6-3.5,3.5v4.9c-1.2,0-2.3,0-3.4,0v-4.8c0-1.9-1.6-3.5-3.5-3.5H30.7  c-1.9,0-3.5,1.6-3.5,3.5v7.3c-1.7,0.4-3,0.8-3.8,1l0-12.1C23.4,43.9,23.2,40.1,26.8,36.3z M23.4,75.2l0-6h53.9v6H23.4z"></path><path d="M21.2,18.1L21,20.8c0,0.3,0.1,0.7,0.4,0.9c0.2,0.1,0.4,0.2,0.6,0.2c0.1,0,0.3,0,0.4-0.1l2.5-1l2.5,1c0.3,0.1,0.7,0.1,1-0.1  c0.3-0.2,0.4-0.5,0.4-0.9l-0.2-2.7l1.8-2.1c0.2-0.3,0.3-0.6,0.2-1c-0.1-0.3-0.4-0.6-0.7-0.7l-2.6-0.7l-1.4-2.3  c-0.4-0.6-1.3-0.6-1.7,0l-1.4,2.3l-2.6,0.7c-0.3,0.1-0.6,0.3-0.7,0.7c-0.1,0.3,0,0.7,0.2,1L21.2,18.1z M23.4,15.6  c0.3-0.1,0.5-0.2,0.6-0.4l0.8-1.3l0.8,1.3c0.1,0.2,0.4,0.4,0.6,0.4l1.5,0.4l-1,1.2c-0.2,0.2-0.2,0.5-0.2,0.7l0.1,1.5l-1.4-0.6  c-0.1,0-0.2-0.1-0.4-0.1s-0.3,0-0.4,0.1l-1.4,0.6l0.1-1.5c0-0.3-0.1-0.5-0.2-0.7l-1-1.2L23.4,15.6z"></path><path d="M34.4,18.1l-0.2,2.7c0,0.3,0.1,0.7,0.4,0.9c0.3,0.2,0.6,0.2,1,0.1l2.5-1l2.5,1c0.1,0,0.2,0.1,0.4,0.1c0.2,0,0.4-0.1,0.6-0.2  c0.3-0.2,0.4-0.5,0.4-0.9l-0.2-2.7l1.8-2.1c0.2-0.3,0.3-0.6,0.2-1c-0.1-0.3-0.4-0.6-0.7-0.7l-2.6-0.7l-1.4-2.3  c-0.4-0.6-1.3-0.6-1.7,0l-1.4,2.3l-2.6,0.7c-0.3,0.1-0.6,0.3-0.7,0.7c-0.1,0.3,0,0.7,0.2,1L34.4,18.1z M36.7,15.6  c0.3-0.1,0.5-0.2,0.6-0.4l0.8-1.3l0.8,1.3c0.1,0.2,0.4,0.4,0.6,0.4l1.5,0.4l-1,1.2c-0.2,0.2-0.2,0.5-0.2,0.7l0.1,1.5l-1.4-0.6  c-0.2-0.1-0.5-0.1-0.8,0l-1.4,0.6l0.1-1.5c0-0.3-0.1-0.5-0.2-0.7l-1-1.2L36.7,15.6z"></path><path d="M47.6,18.1l-0.2,2.7c0,0.3,0.1,0.7,0.4,0.9c0.3,0.2,0.6,0.2,1,0.1l2.5-1l2.5,1c0.1,0,0.2,0.1,0.4,0.1c0.2,0,0.4-0.1,0.6-0.2  c0.3-0.2,0.4-0.5,0.4-0.9L55,18.1l1.8-2.1c0.2-0.3,0.3-0.6,0.2-1c-0.1-0.3-0.4-0.6-0.7-0.7l-2.6-0.7l-1.4-2.3  c-0.4-0.6-1.3-0.6-1.7,0L49,13.7l-2.6,0.7c-0.3,0.1-0.6,0.3-0.7,0.7c-0.1,0.3,0,0.7,0.2,1L47.6,18.1z M49.9,15.6  c0.3-0.1,0.5-0.2,0.6-0.4l0.8-1.3l0.8,1.3c0.1,0.2,0.4,0.4,0.6,0.4l1.5,0.4l-1,1.2C53,17.3,53,17.6,53,17.8l0.1,1.5l-1.4-0.6  c-0.2-0.1-0.5-0.1-0.8,0l-1.4,0.6l0.1-1.5c0-0.3-0.1-0.5-0.2-0.7l-1-1.2L49.9,15.6z"></path><path d="M60.8,18.1l-0.2,2.7c0,0.3,0.1,0.7,0.4,0.9c0.3,0.2,0.6,0.2,1,0.1l2.5-1l2.5,1c0.1,0,0.2,0.1,0.4,0.1c0.2,0,0.4-0.1,0.6-0.2  c0.3-0.2,0.4-0.5,0.4-0.9l-0.2-2.7L70,16c0.2-0.3,0.3-0.6,0.2-1c-0.1-0.3-0.4-0.6-0.7-0.7l-2.6-0.7l-1.4-2.3  c-0.2-0.3-0.5-0.5-0.8-0.5s-0.7,0.2-0.8,0.5l-1.4,2.3l-2.6,0.7c-0.3,0.1-0.6,0.3-0.7,0.7c-0.1,0.3,0,0.7,0.2,1L60.8,18.1z   M63.1,15.6c0.3-0.1,0.5-0.2,0.6-0.4l0.8-1.3l0.8,1.3c0.1,0.2,0.4,0.4,0.6,0.4l1.5,0.4l-1,1.2c-0.2,0.2-0.2,0.5-0.2,0.7l0.1,1.5  l-1.4-0.6c-0.2-0.1-0.5-0.1-0.8,0l-1.4,0.6l0.1-1.5c0-0.3-0.1-0.5-0.2-0.7l-1-1.2L63.1,15.6z"></path><path d="M74,18.1l-0.2,2.7c0,0.3,0.1,0.7,0.4,0.9c0.2,0.1,0.4,0.2,0.6,0.2c0.1,0,0.3,0,0.4-0.1l2.5-1l2.5,1c0.3,0.1,0.7,0.1,1-0.1  c0.3-0.2,0.4-0.5,0.4-0.9l-0.2-2.7l1.8-2.1c0.2-0.3,0.3-0.6,0.2-1c-0.1-0.3-0.4-0.6-0.7-0.7L80,13.7l-1.4-2.3  c-0.4-0.6-1.3-0.6-1.7,0l-1.4,2.3l-2.6,0.7c-0.3,0.1-0.6,0.3-0.7,0.7c-0.1,0.3,0,0.7,0.2,1L74,18.1z M76.3,15.6  c0.3-0.1,0.5-0.2,0.6-0.4l0.8-1.3l0.8,1.3c0.1,0.2,0.4,0.4,0.6,0.4l1.5,0.4l-1,1.2c-0.2,0.2-0.2,0.5-0.2,0.7l0.1,1.5l-1.4-0.6  c-0.1,0-0.2-0.1-0.4-0.1s-0.3,0-0.4,0.1L76,19.3l0.1-1.5c0-0.3-0.1-0.5-0.2-0.7l-1-1.2L76.3,15.6z"></path></svg>