<svg height="100px" width="100px" fill="#000000" xmlns="http://www.w3.org/2000/svg" xmlns:xlink="http://www.w3.org/1999/xlink" version="1.1" x="0px" y="0px" viewBox="0 0 100 100" enable-background="new 0 0 100 100" xml:space="preserve">

	<g>
		<path d="M86.174,23.74L68.605,7.334L48.134,5l-17.786,9.119l7.551,2.553l-10.553,5.595l-3.312,6.526L11.186,38l1.242,6.336   l3.806,3.019l2.471,4.335l0.611-3.546l10.506,2.032c0,0-5.841,6.3-7.446,6.323h-0.043l-2.649-1.858l2.368,8.618l3.257,1.938   l6.465-8.168l10.083-1.258L29.268,70.924l2.343,2.494L43.054,59.84l0.542,2.009L32.79,74.672l2.12,2.258l9.662-11.465l0.543,2.009   l-9.027,10.711l2.122,2.258l7.881-9.352l0.543,2.009l-7.246,8.598l2.121,2.258l6.101-7.24l0.542,2.01l-5.465,6.484l2.121,2.258   l4.32-5.126l0.542,2.009l-3.685,4.371l2.121,2.259l2.54-3.013l0.542,2.008l-1.903,2.26L51.883,95l36.932-46.695L86.174,23.74z">
		</path>
	</g>
</svg>
