<svg height='100px' width='100px'  fill="#000000" xmlns="http://www.w3.org/2000/svg" data-name="Layer 1" viewBox="0 0 100 100" x="0px" y="0px"><title>icon</title><path d="M38.44,65.86H24.75a1,1,0,0,1-1-1V50.74l-3.87,1.6a1,1,0,0,1-.94-.09,1,1,0,0,1-.44-.83v-6a1,1,0,0,1,.53-.88l8.56-4.49a1,1,0,0,1,.77-.07,1,1,0,0,1,.59.5l2.64,5.18,2.65-5.18a1,1,0,0,1,.59-.5,1,1,0,0,1,.77.07l8.56,4.49a1,1,0,0,1,.53.88v6a1,1,0,0,1-.44.83,1,1,0,0,1-.94.09l-3.87-1.6V64.86A1,1,0,0,1,38.44,65.86Zm-12.69-2H37.44V49.25a1,1,0,0,1,.44-.84,1,1,0,0,1,.94-.09l3.87,1.6V46.07l-7.13-3.74-3.07,6a1,1,0,0,1-1.79,0l-3.07-6L20.5,46.07v3.85l3.87-1.6a1,1,0,0,1,.94.09,1,1,0,0,1,.44.84Z"></path><path d="M35,78.06a1.62,1.62,0,0,1-1.36-.76,1.59,1.59,0,0,1,.1-1.87L52.21,51.9,46.36,29.17a1.63,1.63,0,0,1,.32-1.44l4.37-5.21a1.62,1.62,0,0,1,2.55.1l4.06,5.6,4.06-5.6A1.6,1.6,0,0,1,63,22a1.56,1.56,0,0,1,1.3.57l4.36,5.21A1.6,1.6,0,0,1,69,29.17L63.12,51.91l18,22.92a1.62,1.62,0,0,1-1.94,2.48L67.05,71.85a1.67,1.67,0,0,1-.64-.51h0L62.58,66.2l.07,4.15A1.63,1.63,0,0,1,61.4,72L35.35,78A1.73,1.73,0,0,1,35,78.06Zm13.37-49.2,5.85,22.73A1.63,1.63,0,0,1,53.9,53l-18,22.82,24.71-5.74-.09-5a1.61,1.61,0,0,1,1.09-1.56,1.63,1.63,0,0,1,1.83.56l4.48,6,10.67,4.79L61.43,53a1.64,1.64,0,0,1-.3-1.4L67,28.86l-3.93-4.68L59,29.81a1.64,1.64,0,0,1-1.32.67h0a1.61,1.61,0,0,1-1.31-.67l-4.08-5.63Z"></path></svg>