<svg height='100px' width='100px'  fill="#000000" xmlns="http://www.w3.org/2000/svg" xmlns:xlink="http://www.w3.org/1999/xlink" version="1.1" x="0px" y="0px" viewBox="0 0 32 32" enable-background="new 0 0 32 32" xml:space="preserve"><g><rect fill="none" width="32" height="32"></rect></g><g><g><path d="M6,31c-2.757,0-5-2.243-5-5s2.243-5,5-5c0.908,0,1.798,0.246,2.575,0.713C10.094,22.63,11,24.232,11,26    c0,0.133-0.001,0.265-0.015,0.397C10.799,28.968,8.608,31,6,31z M6,23c-1.654,0-3,1.346-3,3s1.346,3,3,3    c1.565,0,2.88-1.218,2.993-2.771C9.001,26.136,9,26.068,9,26c0-1.061-0.544-2.022-1.457-2.573C7.08,23.147,6.545,23,6,23z"></path></g><path d="M29.304,1.795c-0.351-0.474-0.893-0.763-1.487-0.793c-0.608-0.03-1.188,0.207-1.594,0.652l-14.279,15.57l-5.494,5.542   l1.095,0.66C8.456,23.977,9,24.938,9,26c0,0.067,0.001,0.135-0.005,0.202l-0.272,2.779l7.612-7.612l12.699-9.88l0.093-0.082   C31.566,8.968,31.64,4.924,29.304,1.795z"></path><g><path d="M26,31c-2.447,0-4.519-1.747-4.927-4.153C21.025,26.583,21,26.294,21,26c0-1.63,0.795-3.158,2.128-4.089    c1.568-1.113,3.781-1.197,5.446-0.198C30.094,22.629,31,24.231,31,26c0,0.132-0.002,0.266-0.015,0.397    C30.799,28.967,28.608,31,26,31z M26,23c-0.623,0-1.218,0.188-1.721,0.546C23.476,24.107,23,25.022,23,26    c0,0.17,0.014,0.339,0.043,0.5C23.29,27.954,24.532,29,26,29c1.565,0,2.88-1.218,2.993-2.772C29.002,26.135,29,26.067,29,26    c0-1.062-0.545-2.023-1.457-2.573C27.079,23.147,26.545,23,26,23z"></path></g><path d="M10.523,15.816l3.352-3.656L4.502,3.381L1.611,6.075C1.217,6.45,1,6.952,1,7.49C1,8.028,1.217,8.53,1.616,8.91l8.17,7.65   L10.523,15.816z"></path><path d="M17.661,22.871l-0.548,0.548l6.472,6.06L23.043,26.5C23.014,26.339,23,26.17,23,26c0-0.978,0.476-1.893,1.272-2.45   l1.012-0.706l-3.443-3.224L17.661,22.871z"></path><g><path d="M4.501,5.745c-0.267,0-0.533-0.106-0.73-0.316C3.394,5.026,3.415,4.393,3.818,4.015L6.749,1.27    c0.403-0.376,1.036-0.356,1.414,0.046C8.54,1.719,8.519,2.352,8.116,2.73L5.185,5.475C4.992,5.656,4.747,5.745,4.501,5.745z"></path></g><g><path d="M7.432,8.49c-0.267,0-0.533-0.106-0.73-0.316C6.325,7.771,6.346,7.138,6.749,6.76L9.68,4.015    c0.403-0.376,1.036-0.356,1.414,0.046c0.377,0.403,0.356,1.036-0.046,1.414L8.116,8.22C7.923,8.401,7.677,8.49,7.432,8.49z"></path></g><g><path d="M10.363,11.235c-0.267,0-0.533-0.106-0.73-0.316C9.256,10.516,9.276,9.883,9.68,9.505L12.61,6.76    c0.403-0.376,1.036-0.355,1.414,0.046c0.377,0.403,0.357,1.036-0.046,1.414l-2.931,2.745    C10.854,11.146,10.608,11.235,10.363,11.235z"></path></g></g></svg>