<svg height='100px' width='100px'  fill="#000000" xmlns="http://www.w3.org/2000/svg" xmlns:xlink="http://www.w3.org/1999/xlink" version="1.1" x="0px" y="0px" viewBox="0 0 164 164" enable-background="new 0 0 164 164" xml:space="preserve"><path fill-rule="evenodd" clip-rule="evenodd" d="M151.053,8.438v33.855l-27.02-36.572l0.021-5.336  C137.764,0.959,150.236,3.673,151.053,8.438L151.053,8.438z M34.78,40.747v21.771l45.995-0.012l0.005,37.391l-46,0.012v23.664  H12.628c0-27.607,0-55.22,0-82.827H34.78L34.78,40.747z M151.053,48.125L124.01,11.522l-0.083,20.705l27.126,36.718V48.125  L151.053,48.125z M151.053,74.777l-27.15-36.75l-0.079,19.645l27.229,36.857V74.777L151.053,74.777z M151.053,100.362v22.81  l-27.345-37.013l0.092-22.686L151.053,100.362L151.053,100.362z M151.053,129.004v19.891l-27.448-37.153l0.08-19.781  L151.053,129.004L151.053,129.004z M151.053,154.727l-27.472-37.185L123.393,164c14.134-0.258,27.122-2.621,27.66-7.341V154.727  L151.053,154.727z M114.18,163.874c-13.422-0.612-25.667-3.088-26.989-7.215v-1.03l27.171-36.778L114.18,163.874L114.18,163.874z   M87.19,150.011l27.194-36.81l0.088-21.747L87.19,128.382V150.011L87.19,150.011z M87.19,122.55l27.306-36.961l0.081-20.058  l-27.387,37.07V122.55L87.19,122.55z M87.19,96.77V74.944l27.5-37.223l-0.089,21.945L87.19,96.77L87.19,96.77z M87.19,69.113V48.571  l27.607-37.369l-0.084,20.655L87.19,69.113L87.19,69.113z M87.19,42.739l27.631-37.401l0.021-5.018  C100.713,0.712,87.724,3.384,87.19,8.438V42.739z"></path></svg>