<?xml version="1.0" encoding="utf-8"?>
<!-- Generator: Adobe Illustrator 24.2.1, SVG Export Plug-In . SVG Version: 6.00 Build 0)  -->
<svg version="1.1" id="Layer_1" xmlns="http://www.w3.org/2000/svg" xmlns:xlink="http://www.w3.org/1999/xlink" x="0px" y="0px"
	 viewBox="0 0 100 100" enable-background="new 0 0 100 100" xml:space="preserve">
<g>
	<path fill-rule="evenodd" clip-rule="evenodd" d="M46.341,93.496c-0.813,1.22-2.033,2.033-2.846,2.846
		c-8.943,6.911-23.577,3.252-32.52-8.13s-9.35-26.423-0.813-33.333C23.577,66.667,19.919,92.683,46.341,93.496z"/>
	<path fill-rule="evenodd" clip-rule="evenodd" d="M12.195,53.252c8.943-5.285,22.358-1.626,30.894,9.35
		c7.724,9.756,8.943,21.545,4.065,29.675C22.358,81.301,31.301,56.504,12.195,53.252z"/>
	<path fill-rule="evenodd" clip-rule="evenodd" d="M67.886,95.935c-1.22,0-2.439-0.407-3.659-0.813
		C53.659,90.65,50,76.016,55.285,62.602c5.691-13.415,18.293-21.138,28.862-17.073C80.081,63.008,55.691,72.764,67.886,95.935z"/>
	<path fill-rule="evenodd" clip-rule="evenodd" d="M86.179,46.748c9.35,4.878,12.602,18.699,7.317,31.301
		c-4.878,11.382-14.634,18.293-23.577,18.293C67.073,69.106,93.089,64.634,86.179,46.748z"/>
	<path fill-rule="evenodd" clip-rule="evenodd" d="M52.846,50.407c-0.813,0.813-2.033,1.22-3.252,1.626
		c-10.976,2.846-23.171-6.504-26.829-20.732C19.512,17.48,25.203,3.659,35.772,0.813C43.089,16.667,29.268,39.431,52.846,50.407z"/>
	<path fill-rule="evenodd" clip-rule="evenodd" d="M37.805,0C48.374-1.22,59.35,7.724,62.602,21.138
		c3.252,11.789-0.407,23.171-8.13,28.455C36.179,29.675,54.065,10.569,37.805,0z"/>
</g>
</svg>
