<svg height='100px' width='100px'  fill="#000000" xmlns="http://www.w3.org/2000/svg" viewBox="0 0 36 21" x="0px" y="0px"><title>Delivery</title><g data-name="Слой 2"><g data-name="Слой 1"><path d="M35.5,10,32.42,5.33A3,3,0,0,0,29.93,4H25a3,3,0,0,0-1,.18V3a3,3,0,0,0-3-3H1A1,1,0,0,0,1,2H21a1,1,0,0,1,1,1V16H20.85a4,4,0,0,0-7.72,0H13a1,1,0,0,1-1-1V13a1,1,0,0,0-2,0v2a3,3,0,0,0,3,3h.14a4,4,0,0,0,7.72,0h4.28a4,4,0,0,0,7.72,0H33a3,3,0,0,0,3-3V11.61A3,3,0,0,0,35.5,10ZM17,19a2,2,0,0,1-2-2h0a2,2,0,1,1,2,2Zm12,0a2,2,0,0,1-2-2h0a2,2,0,1,1,2,2Zm5-4a1,1,0,0,1-1,1h-.15a4,4,0,0,0-7.72,0H24V7a1,1,0,0,1,1-1h4.93a1,1,0,0,1,.83.44l3.08,4.62a1,1,0,0,1,.17.54Z"></path><path d="M16,5a1,1,0,0,0-1-1H4A1,1,0,0,0,4,6H15A1,1,0,0,0,16,5Z"></path><path d="M16,9a1,1,0,0,0-1-1H7a1,1,0,1,0,0,2h8A1,1,0,0,0,16,9Z"></path></g></g></svg>