<svg height='100px' width='100px'  fill="#000000" xmlns="http://www.w3.org/2000/svg" xmlns:xlink="http://www.w3.org/1999/xlink" xml:space="preserve" version="1.1" style="shape-rendering:geometricPrecision;text-rendering:geometricPrecision;image-rendering:optimizeQuality;" viewBox="0 0 60000 60000" x="0px" y="0px" fill-rule="evenodd" clip-rule="evenodd"><defs><style type="text/css">
   
    .fil0 {fill:#000000}
   
  </style></defs><g><path class="fil0" d="M43381 23697c908,869 682,1985 -342,2579l-1020 592c1171,1396 2951,5317 443,7185l-2750 1585c855,-1030 908,-2213 699,-3397 -222,-1257 -855,-2616 -1661,-3476l-1437 834c-1290,749 -2448,-28 -2906,-682l-23952 13613c1336,20 4142,3264 3516,6061 570,-870 585,-1965 326,-3766 622,477 95,499 952,830 534,-470 555,-810 1017,-1101 781,-492 1019,-141 1781,-409 748,-263 303,-473 1409,-768 1656,-441 1252,-393 2770,-1567 557,-431 1542,-2900 4096,-488 -2180,-4393 -2136,-2590 -4261,-2171 301,-327 369,-370 576,-827l-1564 -269c1765,-1251 4496,889 5555,1150 638,-259 1545,-712 2179,-1018 1017,-491 561,-591 1503,-943 1571,-587 590,190 1422,-961 384,-531 263,-448 884,-822l1507 -915c389,-292 173,-30 562,-464 -611,-1217 -1423,-967 -2667,-1765 1231,-131 1841,323 2922,754 1464,584 2940,-564 3902,-990 506,1466 577,3527 -824,4533l-25139 14479c-461,266 -951,388 -1633,250 -1351,-274 -2245,-1185 -3102,-2526 -317,-497 -579,-1172 -736,-1737 -485,-1750 -253,-3821 843,-4450l4576 -2629 34900 -20079c7580,-4361 10335,5110 6765,7183l-10470 6049c1401,-1128 1142,-3467 681,-4699l727 -580 1878 -722 134 -1208 -1241 -838 1322 119 837 -351 -45 1447 480 -396 1460 179 599 -700 1017 -162 561 -716c2326,-1844 -45,-6430 -4081,-3829l-4858 2939c-30,13 -60,30 -89,49l-21 13zm-36982 -14066c1601,8599 -4570,13491 -402,20264 -2358,-8320 4072,-13920 402,-20264zm5590 6269c1655,8589 -4485,13520 -274,20266 -2410,-8305 3985,-13945 274,-20266zm-3131 -7300c2714,12272 -5913,19596 399,29122 -3787,-11835 5178,-20188 -399,-29122zm40927 12718l-374 969 2131 -224 -2318 738 -400 796 -2213 119 1840 -683 1334 -1715zm-24101 14704l1711 -872 1341 -310 1517 -1361 -834 1261 -31 433 -1562 1021 358 -653 -757 -46 -1741 527zm-10108 6279l1166 -1984 2348 -43 -2100 662 -1413 1365zm-5222 7473c-438,-292 -698,-454 -828,-893 -130,-438 -357,-1071 -276,-974 81,97 568,1006 828,1282 260,276 1006,763 1006,763l-730 -179zm-1648 -2353c-119,-92 -331,-470 -445,-584 -126,-124 -280,11 -378,-192 -206,-428 -356,-1492 -45,-1903 269,-294 187,800 527,1355 483,790 772,1657 341,1324zm2423 2864c897,519 1873,-46 2012,-848 69,-397 -12,-1002 -61,-807 -441,1763 -1260,1528 -1952,1655zm1781 -2094c0,-260 97,-624 -219,-1469 -316,-844 -1193,-1209 -1323,-1306 -130,-97 106,527 414,828 308,300 435,415 565,853 130,438 563,1095 563,1095zm-1931 -3059c-187,-195 -633,-803 -852,-949 -1141,-761 -1792,357 -1680,357 65,0 527,-276 990,-162 463,114 884,446 1128,576 243,130 414,179 414,179zm-265 3591c-730,-438 -1254,-637 -1213,-1396 41,-759 -231,-909 -394,-1201 -162,-292 385,-65 637,633 252,698 203,1229 580,1461 377,231 389,503 389,503zm-136 474c0,0 986,191 1274,-154 288,-345 316,-722 219,-966 -97,-243 -389,-576 -495,-852 -106,-276 -333,-966 -333,-966 0,0 487,844 738,1177 252,333 576,1526 487,1704 -89,179 -779,706 -1144,609 -365,-97 -747,-552 -747,-552zm-1870 -3408c-179,-805 64,-1253 795,-1116 762,143 1907,1945 1355,1554 -947,-671 -2065,-1390 -2150,-438zm2512 2933c-211,-325 -154,-454 -398,-617 -243,-162 -333,-203 -454,-544 -122,-341 -122,-511 -268,-763 -146,-252 -536,-844 -536,-844 0,0 674,211 974,519 300,308 787,925 884,1209 97,284 325,674 187,836 -138,162 -389,203 -389,203zm-2002 498c-603,-474 -1169,-1764 -1193,-2081 -12,-154 248,576 674,714 426,138 368,319 293,583 -75,264 226,784 226,784zm3964 -1657c-145,-891 -71,-1073 -682,-1684 -605,-605 172,-653 381,-292 350,604 359,1426 300,1976zm-4917 -3425c14,-387 398,-928 869,-971 265,-24 732,-239 951,200 70,140 963,116 1382,871 124,223 -2,589 294,856 0,0 -321,9 -545,-143 -234,-159 -371,-482 -438,-627 -70,-151 -254,-392 -357,-459 -287,-184 -966,118 -1056,-255 -98,-406 -846,67 -1102,528zm27156 -15776l7117 -4091 3 3c414,394 412,730 -74,1010l-5850 3374c-338,187 -1092,167 -1199,-289l3 -6z"></path></g></svg>