<svg height='100px' width='100px'  fill="#000000" xmlns="http://www.w3.org/2000/svg" viewBox="0 0 32 32" x="0px" y="0px"><title>Artboard 34</title><g data-name="Layer 68"><path d="M17,3v8a1,1,0,0,1-1,1H7a1,1,0,0,1-1-1V3A1,1,0,0,1,7,2h9A1,1,0,0,1,17,3ZM8,28l6.56-6.56a1.4,1.4,0,0,1,.44-.29V18.22L8.68,24.54a1.46,1.46,0,0,1-.68.39Zm0-7.2,6.32-6.32a1.46,1.46,0,0,1,.68-.39V13H14L8.44,18.58a1.4,1.4,0,0,1-.44.29ZM8,13v2l2-2Zm8,15H15V25l-3,3H7a1,1,0,0,0,0,2h9a1,1,0,0,0,0-2ZM29,4H18v6h6v1.14A4,4,0,1,0,29,15a1,1,0,0,0-2,0,2,2,0,1,1-2-2,1,1,0,0,0,1-1V10h3a1,1,0,0,0,1-1V5A1,1,0,0,0,29,4ZM5,5H3A1,1,0,0,0,2,6v5a1,1,0,0,0,1,1H5.28A2,2,0,0,1,5,11Z"></path></g></svg>