<svg height='100px' width='100px'  fill="#000000" xmlns="http://www.w3.org/2000/svg" xmlns:xlink="http://www.w3.org/1999/xlink" version="1.1" x="0px" y="0px" viewBox="0 0 69 69" style="enable-background:new 0 0 69 69;" xml:space="preserve"><g><path d="M57.44,20.97879h-3.83997l-14.78003-14.88c-0.53998-2.06-2.40997-3.60004-4.64001-3.60004   c-2.5,0-4.53998,1.92004-4.77997,4.37006l-14,14.10999H11.56c-2.47998,0-4.5,2.01996-4.5,4.5c0,2.48999,2.02002,4.5,4.5,4.5h45.88   c2.48004,0,4.5-2.01001,4.5-4.5C61.94,22.99875,59.92004,20.97879,57.44,20.97879z M34.17999,4.49875   C35.73004,4.49875,37,5.76877,37,7.31876c0,1.56-1.26996,2.83002-2.82001,2.83002c-1.56,0-2.82001-1.27002-2.82001-2.83002   C31.35999,5.76877,32.62,4.49875,34.17999,4.49875z M29.79999,9.30875c0.75,1.67004,2.43005,2.84003,4.38,2.84003   c2.12,0,3.91003-1.39001,4.55005-3.29999l12.04999,12.13h-32.56L29.79999,9.30875z"></path><g><path d="M35.6488,50.89481c0,1.58105,1.28711,2.86816,2.86816,2.86816s2.86816-1.28711,2.86816-2.86816v-5.0957V31.98367H35.6488    V50.89481z M38.52808,36.8801c0.79419,0,1.43402,0.63971,1.43402,1.45605c0,0.79419-0.63983,1.4339-1.43402,1.4339    c-0.79413,0-1.45593-0.63971-1.45593-1.4339C37.07214,37.51981,37.73395,36.8801,38.52808,36.8801z"></path><path d="M27.91248,55.1409c0,1.58105,1.28711,2.86816,2.86816,2.86816s2.86816-1.28711,2.86816-2.86816v-4.24609V31.98367    h-5.73633V55.1409z M30.79138,36.8801c0.79413,0,1.43402,0.63971,1.43402,1.45605c0,0.79419-0.63989,1.4339-1.43402,1.4339    c-0.79419,0-1.45593-0.63971-1.45593-1.4339C29.33545,37.51981,29.99719,36.8801,30.79138,36.8801z"></path><path d="M12.43884,63.63309c0,1.58105,1.28711,2.86816,2.86816,2.86816s2.86816-1.28711,2.86816-2.86816v-4.24609V31.98367    h-5.73633V63.63309z M15.31793,36.8801c0.79419,0,1.43402,0.63971,1.43402,1.45605c0,0.79419-0.63983,1.4339-1.43402,1.4339    c-0.79413,0-1.45593-0.63971-1.45593-1.4339C13.862,37.51981,14.5238,36.8801,15.31793,36.8801z"></path><path d="M43.38513,45.7991c0,1.58105,1.28711,2.86816,2.86914,2.86816c1.58105,0,2.86816-1.28711,2.86816-2.86816v-4.6709    v-9.14453h-5.7373V45.7991z M46.26483,36.8801c0.79413,0,1.43396,0.63971,1.43396,1.45605    c0,0.79419-0.63983,1.4339-1.43396,1.4339c-0.79419,0-1.45599-0.63971-1.45599-1.4339    C44.80884,37.51981,45.47064,36.8801,46.26483,36.8801z"></path><path d="M20.17517,59.38699c0,1.58105,1.28711,2.86816,2.86816,2.86816c1.58203,0,2.86914-1.28711,2.86914-2.86816V55.1409    V31.98367h-5.7373V59.38699z M23.05463,36.8801c0.79419,0,1.43402,0.63971,1.43402,1.45605    c0,0.79419-0.63983,1.4339-1.43402,1.4339c-0.79413,0-1.45593-0.63971-1.45593-1.4339    C21.59869,37.51981,22.2605,36.8801,23.05463,36.8801z"></path><path d="M51.12244,31.98367v9.14453c0,1.58105,1.28711,2.86816,2.86816,2.86816s2.86816-1.28711,2.86816-2.86816v-9.14453    H51.12244z M54.00153,39.77005c-0.79413,0-1.45593-0.63971-1.45593-1.4339c0-0.81635,0.6618-1.45605,1.45593-1.45605    s1.43402,0.63971,1.43402,1.45605C55.43555,39.13034,54.79565,39.77005,54.00153,39.77005z"></path></g></g></svg>