<svg height='100px' width='100px'  fill="#000000" xmlns="http://www.w3.org/2000/svg" viewBox="0 0 64 64" x="0px" y="0px"><title>Furniture, household, living, room, estate, </title><g><path d="M45.929,42.2C45.34,35.3,40.237,30,34,30S22.661,35.292,22.072,42.182A3.038,3.038,0,0,0,20,45.06v.2a2.966,2.966,0,0,0,1,2.072l1.212,1.108.675,10.627a1,1,0,0,0,1,.937H25v2h2V60H41v2h2V60h1.1a1,1,0,0,0,1-.937l.674-10.593,1.217-1.1A3.085,3.085,0,0,0,48,45.294v0a3.03,3.03,0,0,0-.773-2.244A3.081,3.081,0,0,0,45.929,42.2ZM34,32c5.082,0,9.274,4.314,9.914,10H42.88a3.026,3.026,0,0,0-3,2.675L39.616,47H28.4l-.252-2.327A3.031,3.031,0,0,0,25.13,42H24.085C24.722,36.315,28.916,32,34,32ZM28.683,49H39.332l-.226,2H28.9ZM45.65,45.887l-1.52,1.37a1,1,0,0,0-.328.68L43.162,58H24.829l-.641-10.094a1,1,0,0,0-.323-.675l-1.526-1.393A.978.978,0,0,1,22,45.2v-.14A1.062,1.062,0,0,1,23.01,44h2.12a1.03,1.03,0,0,1,1.026.9l.78,7.21A1,1,0,0,0,27.93,53H40.06a1,1,0,0,0,.994-.886l.809-7.216A1.022,1.022,0,0,1,42.88,44h1.971a.8.8,0,0,0,.1.009,1.107,1.107,0,0,1,.786.369,1.044,1.044,0,0,1,.268.771A1.105,1.105,0,0,1,45.65,45.887Z"></path><rect x="33" y="35" width="2" height="2"></rect><rect x="29" y="39" width="2" height="2"></rect><rect x="37" y="39" width="2" height="2"></rect><path d="M59.8,16H50.2a1,1,0,0,0-1,.9l-1.2,12A1,1,0,0,0,49,30h5V56H51a1,1,0,0,0-1,1v4a1,1,0,0,0,1,1h8a1,1,0,0,0,1-1V57a1,1,0,0,0-1-1H56V30h5A1,1,0,0,0,62,28.9l-1.2-12A1,1,0,0,0,59.8,16ZM58,60H52V58h6Zm-7.9-32,1-10H58.9l1,10Z"></path><path d="M17.93,46.655c-.006-.018-.008-.037-.015-.055l0-.013a.99.99,0,0,0-.188-.27c-.021-.022-.045-.039-.068-.059a1.007,1.007,0,0,0-.215-.146.976.976,0,0,0-.093-.042A.989.989,0,0,0,17,46H14.18l.806-4.836A1,1,0,0,0,14,40H11V37.9A5.009,5.009,0,0,0,15,33a4.942,4.942,0,0,0-1.7-3.746,4,4,0,1,0-6.59,0A4.986,4.986,0,0,0,9,37.9V40H6a1,1,0,0,0-.986,1.164L5.82,46H3a.989.989,0,0,0-.347.07.976.976,0,0,0-.093.042,1.007,1.007,0,0,0-.215.146c-.023.02-.047.037-.068.059a.99.99,0,0,0-.188.27l0,.013c-.007.018-.009.037-.015.055a.987.987,0,0,0-.06.3c0,.018-.01.032-.01.049V61a1,1,0,0,0,1,1H17a1,1,0,0,0,1-1V47c0-.017-.009-.031-.01-.049A.987.987,0,0,0,17.93,46.655ZM7,33a2.973,2.973,0,0,1,1.031-2.246,3.078,3.078,0,0,1,.653-.434,1,1,0,0,0,.148-1.706A1.979,1.979,0,0,1,8,27a2,2,0,0,1,4,0,1.979,1.979,0,0,1-.832,1.614,1,1,0,0,0,.147,1.706,2.978,2.978,0,0,1-.315,5.5V34a1,1,0,0,0-2,0v1.816A3,3,0,0,1,7,33Zm.181,9h5.638l-.666,4H7.847ZM7,48h7.8L10,53.481,5.2,48ZM4,60V49.661l5.248,6a1,1,0,0,0,1.5,0l5.248-6V60Z"></path><path d="M39.5,10,33.8,2.4a1.036,1.036,0,0,0-1.6,0L26.5,10H22a1,1,0,0,0-1,1V25a1,1,0,0,0,1,1H44a.988.988,0,0,0,.346-.07c.03-.011.058-.024.087-.038a1.009,1.009,0,0,0,.235-.158c.015-.014.033-.024.048-.039a1.006,1.006,0,0,0,.175-.241c.007-.013.008-.027.014-.04s.018-.053.028-.08a1.016,1.016,0,0,0,.056-.282c0-.018.011-.033.011-.052V11a1,1,0,0,0-1-1ZM33,4.667,37,10H29ZM27,12H43v9.925l-6.191-8.513a1.037,1.037,0,0,0-1.618,0l-3.756,5.164L29.8,16.4A1,1,0,0,0,29,16h0a1,1,0,0,0-.8.4L23,23.334V12Zm2,6.665,1.2,1.6L27.49,24H25ZM29.965,24l2.294-3.151.005-.011L36,15.7,42.036,24Z"></path><path d="M11,4a7,7,0,1,0,7,7A7.008,7.008,0,0,0,11,4Zm0,12a5,5,0,1,1,5-5A5.006,5.006,0,0,1,11,16Z"></path><path d="M13.445,9.168,12,10.132V8a1,1,0,0,0-2,0v4a1,1,0,0,0,1.555.832l3-2a1,1,0,0,0-1.11-1.664Z"></path></g></svg>