<svg height='100px' width='100px'  fill="#000000" xmlns="http://www.w3.org/2000/svg" viewBox="0 0 128 128" x="0px" y="0px"><title>light, stage, nightclub, dance, music, party, opera</title><g><path d="M125.229,102.841,100.714,56.972l15.477-31.76a2.966,2.966,0,0,0,4.223-1.515l1.44-3.731A6.591,6.591,0,0,0,110.5,13.553l-2.451,3.16a2.94,2.94,0,0,0,.512,4.133L91.966,40.6,81.441,20.911a2.652,2.652,0,0,0,.965-3.368l-1.368-2.936a5.623,5.623,0,0,0-10.66,3.186L70.845,21A2.69,2.69,0,0,0,73.5,23.3a2.733,2.733,0,0,0,.459-.044l7.1,30.336L64,73.9,46.94,53.59l7.1-30.336a2.733,2.733,0,0,0,.459.044A2.69,2.69,0,0,0,57.155,21l.467-3.205a5.623,5.623,0,0,0-10.66-3.186l-1.368,2.936a2.652,2.652,0,0,0,.965,3.368L36.034,40.6,19.441,20.846a2.941,2.941,0,0,0,.512-4.134L17.5,13.552A6.591,6.591,0,0,0,6.146,19.967l1.44,3.73a2.964,2.964,0,0,0,4.223,1.515L27.286,56.973,2.771,102.841a3.5,3.5,0,0,0,3.084,5.15h.037l25.639-.252a3.491,3.491,0,0,0,3.374-2.7l5.126-21.91,5.956,12.224-13.349,15.9A3.5,3.5,0,0,0,35.317,117H92.683a3.5,3.5,0,0,0,2.679-5.751l-13.349-15.9,5.956-12.224L93.1,105.036a3.491,3.491,0,0,0,3.374,2.7l25.639.252h.037a3.5,3.5,0,0,0,3.084-5.15ZM112.868,15.392a3.591,3.591,0,0,1,6.188,3.494L117.664,22.6l-7.223-4.078Zm-1.684,6.993,2.389,1.349-14.6,29.972L93.489,43.455ZM73.347,17.361a2.636,2.636,0,0,1,1.844-2.891,2.569,2.569,0,0,1,.742-.109,2.64,2.64,0,0,1,2.386,1.514l1.215,2.607-5.772,1.725ZM49.681,15.875a2.622,2.622,0,0,1,4.972,1.486l-.415,2.846-5.772-1.725ZM8.944,18.886a3.612,3.612,0,0,1,1.584-4.419,3.567,3.567,0,0,1,1.754-.459,3.6,3.6,0,0,1,2.849,1.384l2.437,3.123-7.183,4.1Zm5.483,4.848,2.389-1.349,17.7,21.07L29.032,53.706Zm17.556,80.62a.5.5,0,0,1-.481.385l-25.64.252a.435.435,0,0,1-.432-.241.483.483,0,0,1-.013-.5L49.432,21.9l1.719.513ZM41.113,78.5l4.974-21.26,15.954,19L48.1,92.836Zm51.952,34.678a.5.5,0,0,1-.382.821H72.926l7.648-15.7Zm-23.338.538a.5.5,0,0,1-.452.283H35.317a.5.5,0,0,1-.382-.821L81.913,57.238,86.887,78.5Zm52.843-8.965a.483.483,0,0,1-.426.241h-.006l-25.64-.252a.5.5,0,0,1-.481-.386L76.849,22.415l1.719-.513,44.016,82.354A.483.483,0,0,1,122.57,104.75Z"></path></g></svg>