<svg height='100px' width='100px'  fill="#000000" xmlns="http://www.w3.org/2000/svg" xmlns:xlink="http://www.w3.org/1999/xlink" version="1.1" x="0px" y="0px" viewBox="0 0 100 100" style="enable-background:new 0 0 100 100;" xml:space="preserve"><path d="M60.89,27.1V14.23c2.41,1.8,5.57,3.77,7.94,3.77c4.45,0,8.06-3.59,8.06-8c0-4.41-3.62-8-8.06-8c-3.11,0-7.61,3.4-9.94,5.36  C56.56,5.4,52.06,2,48.95,2c-4.44,0-8.06,3.59-8.06,8c0,4.41,3.62,8,8.06,8c2.36,0,5.53-1.97,7.94-3.77v11.45  c-3.48-1.2-7.28-2.4-11.45-3.59c-1.27-0.36-2.54-0.55-3.79-0.55c-9.89,0-16.54,11.43-16.54,22.1c0,2.21,0.34,4.2,0.85,6.07  c-4.59,0.19-13.65,1.13-18.2,5.54c-1.9,1.85-2.86,4.09-2.86,6.67c0,7.02,9.79,8.86,19.25,10.64c7.85,1.48,16.75,3.15,16.75,7.32  c0,8-19.22,13.02-25.96,14.15c-1.09,0.18-1.82,1.21-1.64,2.3C13.45,97.31,14.3,98,15.26,98c0.11,0,0.22-0.01,0.33-0.03  c3-0.5,29.29-5.27,29.29-18.1c0-7.49-10.17-9.4-20.01-11.25c-7.5-1.41-15.99-3.01-15.99-6.71c0-1.48,0.54-2.72,1.65-3.8  c3.72-3.62,12.68-4.43,16.96-4.46c2.86,5.23,8.12,8.34,15.03,8.32h39.26c6.23,0.02,10.87-3.16,11.53-7.91  C93.82,50.45,92.55,38.88,60.89,27.1z M68.83,6c2.24,0,4.06,1.79,4.06,4c0,2.21-1.82,4-4.06,4c-1.29,0-4.24-1.88-6.86-4  C64.43,8.02,67.49,6,68.83,6z M48.95,14c-2.24,0-4.06-1.79-4.06-4c0-2.21,1.82-4,4.06-4c1.29,0,4.25,1.88,6.87,4  C53.19,12.12,50.24,14,48.95,14z M74.89,52c-2.21,0-4-1.79-4-4c0-2.21,1.79-4,4-4c2.21,0,4,1.79,4,4C78.89,50.21,77.09,52,74.89,52z  "></path></svg>