<svg height='100px' width='100px'  fill="#000000" xmlns="http://www.w3.org/2000/svg" xmlns:xlink="http://www.w3.org/1999/xlink" version="1.1" x="0px" y="0px" viewBox="0 0 100 100" enable-background="new 0 0 100 100" xml:space="preserve"><g><path d="M91.339,58.781v-7.503H48.026v7.503c0,6.716,4.554,12.52,10.969,14.177v6.169H45.748V48.192   c0-6.015-3.652-11.369-9.178-13.597V6.75H23.632v27.845c-5.525,2.228-9.178,7.583-9.178,13.597v30.935H8.333v2.5h6.121v11.949   h31.294V81.627h13.247v4.4l-8.717,7.549h38.808l-8.716-7.549v-4.4h9.719v-2.5H80.37v-6.169   C86.785,71.301,91.339,65.497,91.339,58.781z M43.248,75.643H27.396V53.091h15.852V75.643z M34.07,25.375h-7.938v-2.389h7.938   V25.375z M34.07,9.25v11.236h-7.938V9.25H34.07z M16.954,91.076v-3.428h16.238v-2.5H22.083V66h-2.5v19.148h-2.629V48.192   c0-5.242,3.345-9.88,8.323-11.54l0.854-0.285v-8.492h7.938v8.492l0.854,0.285c4.979,1.66,8.323,6.297,8.323,11.54v2.399H24.896   v27.552h18.352v7.006h-7.926v2.5h7.926v3.428H16.954z M56.984,91.076l4.511-3.906V70.914l-1.023-0.188   c-5.497-1.011-9.547-5.631-9.91-11.143h15.355v-2.5H50.526v-3.305h24.313v3.305h-7.255v2.5h7.219   c-0.361,5.512-4.412,10.132-9.909,11.143l-1.023,0.188V87.17l4.511,3.906H56.984z M66.37,81.627h6.625v4.4l-3.313,2.869   l-3.313-2.869V81.627z M72.995,79.127H66.37v-6.169c1.176-0.304,2.287-0.749,3.321-1.312c1.048,0.569,2.151,1.014,3.304,1.312   V79.127z M82.381,91.076H72.199l-0.607-0.526l3.903-3.38V70.914l-1.024-0.188c-0.826-0.152-1.624-0.396-2.394-0.712   c3.238-2.708,5.262-6.764,5.262-11.232v-5.003h11.5v3.305h-9.005v2.5h8.969c-0.361,5.512-4.412,10.132-9.909,11.143l-1.023,0.188   V87.17L82.381,91.076z"></path><rect x="29.75" y="56" width="2.5" height="2.333"></rect><rect x="34.205" y="56" width="2.5" height="2.333"></rect><rect x="38.66" y="56" width="2.5" height="2.333"></rect><rect x="29.75" y="71" width="2.5" height="2.333"></rect><rect x="34.205" y="71" width="2.5" height="2.333"></rect><rect x="38.66" y="71" width="2.5" height="2.333"></rect><rect x="19.583" y="49.5" width="2.5" height="14.867"></rect></g></svg>