<svg height='100px' width='100px'  fill="#000000" xmlns="http://www.w3.org/2000/svg" xmlns:xlink="http://www.w3.org/1999/xlink" version="1.1" x="0px" y="0px" viewBox="0 0 100 100" enable-background="new 0 0 100 100" xml:space="preserve"><path d="M52.408,83.411c2.781-3.386,8.677-11.511,10.759-21.735c0.461,0.338,0.9,0.759,1.406,1.244  c1.58,1.512,3.546,3.393,7.347,3.393s5.765-1.881,7.344-3.393c1.331-1.277,2.213-2.119,4.167-2.119c1.27,0,2.297-1.028,2.297-2.297  c0-1.27-1.027-2.297-2.297-2.297c-3.801,0-5.766,1.883-7.345,3.395c-1.331,1.275-2.21,2.118-4.166,2.118s-2.837-0.843-4.168-2.118  c-1.017-0.973-2.2-2.093-3.923-2.772c0.054-0.786,0.091-1.579,0.091-2.383c0-14.839-9.731-26.961-12.352-29.956V4.297  C51.568,3.028,50.54,2,49.271,2c-1.268,0-2.296,1.028-2.296,2.297v20.194c-2.621,2.995-12.352,15.116-12.352,29.956  c0,0.72,0.031,1.431,0.075,2.137c-2.125,0.622-3.493,1.915-4.645,3.02c-1.331,1.274-2.209,2.117-4.162,2.117  s-2.831-0.843-4.161-2.117c-1.578-1.513-3.541-3.396-7.34-3.396c-1.269,0-2.296,1.027-2.296,2.297c0,1.269,1.028,2.297,2.296,2.297  c1.952,0,2.831,0.842,4.162,2.117c1.578,1.514,3.541,3.395,7.339,3.395c3.799,0,5.761-1.881,7.34-3.395  c0.739-0.707,1.343-1.275,2.065-1.646c2.008,10.413,8.019,18.708,10.838,22.139l-9.38,9.378c-0.657,0.656-0.854,1.645-0.499,2.504  c0.356,0.856,1.194,1.417,2.123,1.417l21.785-0.001c0.929,0,1.767-0.56,2.122-1.418c0.355-0.857,0.158-1.846-0.498-2.503  L52.408,83.411z M40.088,61.633c0.482,0.344,0.941,0.779,1.473,1.287c1.578,1.512,3.543,3.393,7.342,3.393  c3.8,0,5.763-1.881,7.342-3.395c0.828-0.793,1.481-1.418,2.327-1.777c-1.855,8.519-6.715,15.551-9.3,18.821  C46.737,76.754,42.02,69.93,40.088,61.633z M49.274,28.927c3.237,4.085,10.053,14.049,10.053,25.519  c0,0.616-0.029,1.225-0.066,1.833c-3.059,0.336-4.785,1.972-6.195,3.323c-1.33,1.274-2.21,2.117-4.163,2.117  s-2.833-0.843-4.164-2.118c-1.29-1.234-2.855-2.701-5.451-3.202c-0.042-0.646-0.071-1.298-0.071-1.953  C39.217,43.009,46.039,33.021,49.274,28.927z M43.925,92.117l5.347-5.349l5.347,5.347L43.925,92.117z"></path><circle cx="49.271" cy="43.038" r="2.45"></circle><path d="M7.785,75.838h18.835c1.268,0,2.296-1.029,2.296-2.297c0-1.269-1.028-2.297-2.296-2.297H7.785  c-1.268,0-2.296,1.028-2.296,2.297C5.489,74.809,6.517,75.838,7.785,75.838z"></path><path d="M65.122,73.541c0,1.268,1.028,2.297,2.297,2.297h18.835c1.269,0,2.297-1.029,2.297-2.297c0-1.269-1.028-2.297-2.297-2.297  H67.419C66.15,71.244,65.122,72.272,65.122,73.541z"></path><path d="M90.214,90.996H71.38c-1.27,0-2.297,1.027-2.297,2.297c0,1.269,1.027,2.297,2.297,2.297h18.834  c1.269,0,2.297-1.028,2.297-2.297C92.511,92.023,91.482,90.996,90.214,90.996z"></path><path d="M26.621,90.996H7.785c-1.268,0-2.296,1.027-2.296,2.297c0,1.269,1.028,2.297,2.296,2.297h18.835  c1.268,0,2.296-1.028,2.296-2.297C28.917,92.023,27.889,90.996,26.621,90.996z"></path><path d="M30.588,80.764h-7.936c-1.269,0-2.297,1.029-2.297,2.297c0,1.27,1.028,2.297,2.297,2.297h7.936  c1.269,0,2.297-1.027,2.297-2.297C32.886,81.793,31.857,80.764,30.588,80.764z"></path><path d="M81.257,83.061c0-1.268-1.029-2.297-2.299-2.297H62.837c-1.268,0-2.296,1.029-2.296,2.297c0,1.27,1.028,2.297,2.296,2.297  h16.121C80.228,85.357,81.257,84.33,81.257,83.061z"></path></svg>