<svg height='100px' width='100px'  fill="#000000" xmlns="http://www.w3.org/2000/svg" xmlns:xlink="http://www.w3.org/1999/xlink" version="1.1" x="0px" y="0px" viewBox="0 0 67 67" enable-background="new 0 0 67 67" xml:space="preserve"><g><path d="M61.4608078,45.6791992c-1.1035156-0.6914063-2.4619141-0.7666016-3.6308594-0.1982422l-1.0794678,0.5215454   c-6.052124-7.0409546-12.4763794-9.7679443-18.3824463-10.2314453v-0.2592163   c3.0066376,0.1728401,6.3843803-0.3923264,8.5078125-2.5147705c2.5255394-2.5255394,2.8213615-6.6719055,2.3144531-10.2446308   c-0.1000099,0.0011253-7.3722076-1.4750748-10.8222656,2.9705811v-7.2487793   c4.2260742-0.498291,7.5175781-4.0969839,7.5175781-8.454711c0-4.6977544-3.8222656-8.5195313-8.5195313-8.5195313   S28.84655,5.3217759,28.84655,10.0195303c0,4.3591309,3.293457,7.9588614,7.5214844,8.4553213v3.2160034   c-3.0124779-3.1099377-8.6969261-2.0102081-8.8017578-2.0097046l-0.1083984,0.7338867   c-0.03125,0.2119141-0.7373047,5.2211914,2.0517578,8.0097656c1.7792969,1.7792969,4.4394531,2.152832,6.3564453,2.152832   c0.1797485,0,0.3450317-0.0041504,0.5019531-0.0097046v5.1304951c-9.0490723,0.0353394-16.5602417,4.9927979-19.0999146,6.8902588   c-0.4085693-0.0014648-0.7654419-0.0025024-1.0661011-0.0031738v-1.7471313H3.7791665V61.203125h12.4228525v-2.4678345   C20.2434616,60.6442261,30.948967,65.5,35.2860031,65.5c0.0986328,0,0.1953125-0.0029297,0.2871094-0.0078125   c7.3457031-0.4125977,24.5957031-12.5439453,25.7822266-13.3842773   C63.7928314,50.6877594,63.8558731,47.1811523,61.4608078,45.6791992z M47.3924484,24.5507793   c0.3807487,6.2116985-2.3598862,8.8029423-7.5650024,8.9782124l3.7905884-3.7902241l-1.4140625-1.4140625l-3.7943115,3.7939472   C38.570137,26.9443035,41.1303635,24.1774635,47.3924484,24.5507793z M30.84655,10.0195303   c0-3.594727,2.9248047-6.5195313,6.5195313-6.5195313s6.5195313,2.9248044,6.5195313,6.5195313   s-2.9248047,6.519042-6.5195313,6.519042S30.84655,13.6142569,30.84655,10.0195303z M29.3719406,21.4848614   c3.9906845-0.1927319,6.4926834,1.1165581,6.9960938,5.0314941v0.552002l-2.7509766-2.7509766l-1.4140625,1.4140625   l2.8114014,2.8114014C31.1340656,28.261282,29.1409264,26.2846222,29.3719406,21.4848614z M54.8822556,46.9050903   l-7.5536499,3.649353c-0.147522-2.0687523-1.8364182-3.5427246-3.7886963-3.5427246h-0.0009766l-6.0703125,0.0014648   c-3.0371094-2.6240234-6.9082031-4.2304688-10.4306641-4.3144531c-1.9146729-0.0457153-4.1951904-0.072998-6.2440796-0.0895386   C27.1539841,38.656189,41.907402,32.2473755,54.8822556,46.9050903z M14.2020178,59.203125H5.7791667V42.8383789h8.4228516   V59.203125z M60.3260422,50.3925781l-0.0888672,0.0561523c-0.1777344,0.1264648-17.9003906,12.6606445-24.7753906,13.0463867   c-3.4631958,0.2008057-14.5985718-4.7387695-19.2597656-6.9761963V44.5854492   c2.1003418,0.0047607,7.1229248,0.0250854,10.7890625,0.1123047c3.1708984,0.0756836,6.6962891,1.5927734,9.4296875,4.0581055   l0.2861328,0.2573242c0.1752548-0.0000381,6.9564857-0.0014915,6.8330078-0.0014648   c1.0043488,0,1.8154297,0.8147049,1.8154297,1.815918c0,1.0014648-0.8144531,1.8164063-1.8164063,1.8164063H31.080925v2h12.4580078   c1.2243042,0,2.3035889-0.5895996,3.0024414-1.4885864L58.7000656,47.28125   c0.5556641-0.2675781,1.1748047-0.2358398,1.6982422,0.0927734C61.5536079,48.0982399,61.4594498,49.7557831,60.3260422,50.3925781   z"></path><rect x="10.2703857" y="48.3671875" width="2" height="1.6035156"></rect><rect x="10.2703857" y="51.565918" width="2" height="1.6040039"></rect><rect x="10.2703857" y="54.7651367" width="2" height="1.6035156"></rect><path d="M46.9647141,42.8935547c-3.3642578-2.5854492-8.6972656-3.2871094-8.9228516-3.315918l-0.2519531,1.984375   c0.0498047,0.0063477,5.0166016,0.6582031,7.9560547,2.9174805L46.9647141,42.8935547z"></path><path d="M37.8626633,13.993041c1.4810982-0.0798273,2.6205292-0.9229965,2.6115723-2.3635864   c-0.0091171-2.150259-2.3506088-2.200057-2.6342163-2.3840942L37.8286667,7.06317   c0.5951538,0.0822144,1.1506348,0.3039551,1.6635742,0.6652832l0.7495728-1.0719604   c-0.7623291-0.5143433-1.5686035-0.8012695-2.4188232-0.8587036l-0.0028076-0.5922852l-0.7439575,0.0042725l0.0028687,0.5809326   c-1.413475,0.0788398-2.5254936,0.9306202-2.5194092,2.3508306c0.0063019,1.502903,1.0693741,1.9823399,2.5420532,2.3267212   l0.0113525,2.2523193c-0.6886597-0.1055908-1.3602905-0.4385986-2.0135498-1.0004272l-0.8416748,1.0145874   c0.8473511,0.7311401,1.8009644,1.1477661,2.8609009,1.2512207l0.0042725,0.8473511l0.7438965-0.0042725L37.8626633,13.993041z    M35.9752731,7.9948716c0-0.5928984,0.5146637-0.9074645,1.1094971-0.9621582l0.0098877,2.007874   C36.4527397,8.8370962,35.9787598,8.6390877,35.9752731,7.9948716z M37.8470993,10.6616812   c0.6762466,0.1995249,1.2094574,0.4117136,1.2129517,1.0853882c0.003212,0.6192036-0.5786972,0.9360142-1.2030029,1.0039673   L37.8470993,10.6616812z"></path></g></svg>