<svg height='100px' width='100px'  fill="#000000" xmlns="http://www.w3.org/2000/svg" viewBox="0 0 32 32" x="0px" y="0px"><title>home_13</title><g data-name="14"><path d="M12,14v6a1,1,0,0,0,1,1h6a1,1,0,0,0,1-1V14a1,1,0,0,0-1-1H13A1,1,0,0,0,12,14Zm2,1h4v4H14Zm15.68-1.73-13-12a1,1,0,0,0-1.36,0L11,5.25V5a1,1,0,0,0-1-1H6A1,1,0,0,0,5,5v5.79L2.32,13.27A1,1,0,0,0,3,15H6V26a3,3,0,0,0,3,3H23a3,3,0,0,0,3-3V15h3a1,1,0,0,0,.68-1.73ZM25,13a1,1,0,0,0-1,1V26a1,1,0,0,1-1,1H9a1,1,0,0,1-1-1V14a1,1,0,0,0-1-1H5.56l1.12-1A1,1,0,0,0,7,11.23V6H9V7.54a1,1,0,0,0,1.68.73L16,3.36,26.44,13Z"></path></g></svg>