<?xml version="1.0" encoding="utf-8"?>
<!-- Generator: Adobe Illustrator 24.2.1, SVG Export Plug-In . SVG Version: 6.00 Build 0)  -->
<svg version="1.1" id="Layer_1" xmlns="http://www.w3.org/2000/svg" xmlns:xlink="http://www.w3.org/1999/xlink" x="0px" y="0px"
	 viewBox="0 0 100 100" enable-background="new 0 0 100 100" xml:space="preserve">
<g>
	<path fill-rule="evenodd" clip-rule="evenodd" d="M29.629,30.836c-1.91-0.106-3.82-0.212-5.73-0.319
		C8.123,32.19,7.216,52.885,18.452,65.097c-9.569-7.02-17.17-27.628-5.564-36.499c1.336-1.021-2.121-3.379,0.99-8.843
		c-0.322,0.72-0.664,6.093,1.713,7.097c-0.929-2.686-1.617-3.339-0.454-6.601c0,7.657,5.989,2.765,8.333,8.354
		C26.786,28.733,27.861,27.885,29.629,30.836L29.629,30.836z M21.736,27.339c0.234,0,0.423,0.211,0.423,0.472
		c0,0.26-0.19,0.471-0.423,0.471c-0.234,0-0.424-0.211-0.424-0.471C21.312,27.55,21.502,27.339,21.736,27.339z"/>
	<path fill-rule="evenodd" clip-rule="evenodd" d="M15.445,59.468c3.735,3.145,9.689,6.741,14.828,6.568
		c8.344-0.281,12.678,8.378,19.044,6.962c-6.319,2.636-14.491-3.73-22.196-5.395c2.68,2.408,4.879,3.598,8.356,4.233
		C27.967,72.881,18.957,66.77,15.445,59.468L15.445,59.468z"/>
	<path fill-rule="evenodd" clip-rule="evenodd" d="M15.856,36.808C2.689,56.286,28.619,71.045,46.271,62.927
		c-4.076,1.188-11.774,2.731-20.866-3.21c27.649,3.033,18.432-12.806,40.054-3.615c-13.536-10.318-23.329-2.158-25.133-8.088
		c8.788,0.724,20.975-1.111,29.022,1.245c-10.843-5.258-21.34-1.101-29.619-8.218c19.803,5.015,33.769-3.46,45.362,5.478
		C66.29,29.754,57.785,42.09,45.102,34.484c13.041,1.718,21.707-6.334,40.14,4.888c-23.871-17.913-28.629-6.291-39.096-9.951
		c2.158-5.293,39.872-3.396,53.854,5.972C86.235,21.834,47.685,11.865,34.06,29.088C39.88,39.227,17.502,62.244,15.856,36.808
		L15.856,36.808z"/>
	<path fill-rule="evenodd" clip-rule="evenodd" d="M6.263,42.65c-8.179,27.535,22.453,27.185,27.613,37.595
		C31.275,69.563,5.115,66.677,6.263,42.65z"/>
	<path fill-rule="evenodd" clip-rule="evenodd" d="M14.25,70.26C8.283,64.94-1.417,53.281,4.588,43.117
		c1.455-2.463-0.485-4.751-1.519-3.446C-5.765,50.821,6.509,66.166,14.25,70.26L14.25,70.26z"/>
	<path fill-rule="evenodd" clip-rule="evenodd" d="M21.736,27.514c0.147,0,0.266,0.133,0.266,0.296c0,0.163-0.12,0.296-0.266,0.296
		c-0.147,0-0.266-0.133-0.266-0.296C21.47,27.647,21.589,27.514,21.736,27.514z"/>
</g>
</svg>
