<svg height='100px' width='100px'  fill="#000000" xmlns="http://www.w3.org/2000/svg" xmlns:xlink="http://www.w3.org/1999/xlink" version="1.1" x="0px" y="0px" viewBox="0 0 32 32" enable-background="new 0 0 32 32" xml:space="preserve"><g><path d="M15.6,16.6c0.1,0.1,0.3,0.1,0.4,0.1c0.1,0,0.3,0,0.4-0.1l11.2-7.4C27.9,9.1,28,8.9,28,8.6S27.9,8.1,27.7,8L16.4,0.6   c-0.3-0.2-0.6-0.2-0.8,0L4.3,8C4.1,8.1,4,8.4,4,8.6s0.1,0.5,0.3,0.6L15.6,16.6z M16,2.2l9.8,6.5L16,15.1L6.2,8.6L16,2.2z"></path><path d="M28,16c0-0.3-0.1-0.5-0.3-0.6l-3.2-2.1c-0.4-0.2-0.8-0.1-1.1,0.2c-0.2,0.4-0.1,0.8,0.2,1.1l2.3,1.5L16,22.5l-4.2-2.7   L6.2,16l2.3-1.5c0.4-0.2,0.5-0.7,0.2-1.1c-0.2-0.4-0.7-0.4-1.1-0.2l-3.2,2.1C4.1,15.5,4,15.7,4,16c0,0.3,0.1,0.5,0.3,0.6l4.6,3   l-4.6,3C4.1,22.9,4,23.1,4,23.4c0,0.3,0.1,0.5,0.3,0.6l11.2,7.4c0.1,0.1,0.3,0.1,0.4,0.1c0.1,0,0.3,0,0.4-0.1L27.7,24   c0.2-0.1,0.3-0.4,0.3-0.6c0-0.3-0.1-0.5-0.3-0.6l-4.6-3l4.6-3C27.9,16.5,28,16.3,28,16z"></path></g></svg>