<svg height='100px' width='100px'  fill="#000000" xmlns="http://www.w3.org/2000/svg" xmlns:xlink="http://www.w3.org/1999/xlink" version="1.1" x="0px" y="0px" viewBox="0 0 100 100" style="enable-background:new 0 0 100 100;" xml:space="preserve"><g><circle cx="63.383" cy="38.103" r="5.103"></circle><path d="M81.438,64.418l-2.977-21.904c0.078-0.213,0.127-0.441,0.127-0.681V16.71C78.589,10.253,72.191,5,64.328,5   c-1.015,0-1.868,0.759-1.986,1.767L60.56,21.959c-1.423-0.263-2.884-0.39-4.372-0.333c-4.106,0.16-8.271,0.16-12.381,0   c-1.507-0.055-2.984,0.077-4.424,0.348L37.599,6.767C37.48,5.759,36.627,5,35.612,5c-7.863,0-14.261,5.253-14.261,11.71v25.124   c0,0.286,0.062,0.556,0.17,0.802l-2.957,21.757c-0.575,3.854,0.532,7.754,3.119,10.983c3.016,3.765,7.69,6.135,12.825,6.504   c2.271,0.165,4.566,0.29,6.84,0.381v4.095C41.349,91.122,45.229,95,50,95c4.767,0,8.645-3.878,8.645-8.644v-4.094   c2.279-0.092,4.578-0.217,6.846-0.381c5.136-0.37,9.811-2.741,12.826-6.505C80.903,72.146,82.011,68.245,81.438,64.418z    M66.094,9.114c4.819,0.631,8.495,3.797,8.495,7.596v14.771c-1.089-1.652-2.374-3.136-3.809-4.427   c0.206-0.274,0.347-0.603,0.389-0.968l1-8.672c0.126-1.097-0.661-2.089-1.758-2.216c-1.092-0.123-2.09,0.66-2.217,1.758   l-0.87,7.548c-0.919-0.546-1.881-1.009-2.87-1.408L66.094,9.114z M33.847,9.114l1.643,14.011c-1.019,0.415-2.011,0.893-2.955,1.464   l-0.787-7.608c-0.113-1.098-1.084-1.9-2.195-1.784c-1.099,0.113-1.896,1.096-1.783,2.195l1,9.672   c0.013,0.125,0.038,0.245,0.072,0.362c-1.307,1.232-2.485,2.623-3.49,4.164V16.71C25.352,12.911,29.027,9.745,33.847,9.114z M50,91   c-2.564,0-4.651-2.083-4.651-4.644V73.184c0.97-0.502,1.858-1.127,2.649-1.855v1.592v11.221c0,1.104,0.896,2,2,2s2-0.896,2-2V72.92   v-1.559c0.788,0.723,1.677,1.345,2.646,1.849v13.146C54.645,88.917,52.561,91,50,91z M75.194,72.875   c-2.321,2.898-5.963,4.727-9.992,5.017c-2.173,0.157-4.373,0.276-6.558,0.367v-3.776c0.553,0.076,1.112,0.127,1.679,0.127   c6.791,0,12.316-5.522,12.316-12.31c0-1.104-0.896-2-2-2s-2,0.896-2,2c0,4.582-3.73,8.31-8.316,8.31   c-1.025,0-2.021-0.184-2.965-0.548c-3.094-1.183-5.188-4.078-5.333-7.376c-0.004-0.092-0.023-0.179-0.039-0.267   c0.002-0.039,0.012-0.077,0.012-0.117v-3.285c0.669-0.578,2.229-1.934,3.648-3.232c2.143-1.961,1.952-5.035-0.603-6.646   c-0.662-0.417-1.389-0.695-2.153-0.695h-5.786c-0.764,0-1.491,0.278-2.153,0.695c-2.554,1.611-2.746,4.685-0.603,6.646   c1.419,1.299,2.98,2.655,3.649,3.233V62.3c0,0.034,0.008,0.065,0.01,0.099c-0.019,0.098-0.037,0.196-0.041,0.299   c-0.016,0.432-0.068,0.849-0.167,1.283c-0.518,2.549-2.232,4.725-4.593,5.821c-0.184,0.086-0.367,0.168-0.588,0.25   c-0.94,0.369-1.936,0.556-2.956,0.556c-4.578,0-8.303-3.725-8.303-8.303c0-1.104-0.896-2-2-2s-2,0.896-2,2   c0,6.784,5.519,12.303,12.303,12.303c0.569,0,1.13-0.052,1.686-0.129v3.779c-2.178-0.09-4.376-0.209-6.552-0.367   c-4.028-0.29-7.67-2.118-9.991-5.016c-1.883-2.35-2.693-5.152-2.281-7.917l3.165-23.292c1.438-9.306,9.313-16.361,17.967-16.042   c4.21,0.164,8.478,0.164,12.682,0c8.592-0.294,16.535,6.736,17.968,16.007l3.173,23.353C77.888,67.722,77.077,70.524,75.194,72.875   z"></path><path d="M36.612,35.055c-2.283,0-4.428,1.009-5.883,2.769c-0.704,0.851-0.585,2.112,0.267,2.816   c0.851,0.704,2.111,0.585,2.815-0.266c0.693-0.838,1.714-1.318,2.801-1.318c1.088,0,2.108,0.48,2.802,1.318   c0.396,0.478,0.967,0.725,1.542,0.725c0.449,0,0.9-0.15,1.273-0.459c0.852-0.704,0.971-1.965,0.267-2.816   C41.041,36.064,38.896,35.055,36.612,35.055z"></path></g></svg>