<svg height='100px' width='100px'  fill="#000000" xmlns:dc="http://purl.org/dc/elements/1.1/" xmlns:cc="http://creativecommons.org/ns#" xmlns:rdf="http://www.w3.org/1999/02/22-rdf-syntax-ns#" xmlns:svg="http://www.w3.org/2000/svg" xmlns="http://www.w3.org/2000/svg" xmlns:sodipodi="http://sodipodi.sourceforge.net/DTD/sodipodi-0.dtd" xmlns:inkscape="http://www.inkscape.org/namespaces/inkscape" viewBox="0 0 12.7 12.7" version="1.1" x="0px" y="0px"><g><path style="color:#000000;font-style:normal;font-variant:normal;font-weight:normal;font-stretch:normal;font-size:medium;line-height:normal;font-family:sans-serif;font-variant-ligatures:normal;font-variant-position:normal;font-variant-caps:normal;font-variant-numeric:normal;font-variant-alternates:normal;font-feature-settings:normal;text-indent:0;text-align:start;text-decoration:none;text-decoration-line:none;text-decoration-style:solid;text-decoration-color:#000000;letter-spacing:normal;word-spacing:normal;text-transform:none;writing-mode:lr-tb;direction:ltr;text-orientation:mixed;dominant-baseline:auto;baseline-shift:baseline;text-anchor:start;white-space:normal;shape-padding:0;clip-rule:nonzero;display:inline;overflow:visible;visibility:visible;opacity:1;isolation:auto;mix-blend-mode:normal;color-interpolation:sRGB;color-interpolation-filters:linearRGB;solid-color:#000000;solid-opacity:1;vector-effect:none;fill:#000000;fill-opacity:1;fill-rule:nonzero;stroke:none;stroke-width:0.52916664;stroke-linecap:round;stroke-linejoin:round;stroke-miterlimit:4;stroke-dasharray:none;stroke-dashoffset:0;stroke-opacity:1;paint-order:normal;color-rendering:auto;image-rendering:auto;shape-rendering:auto;text-rendering:auto;enable-background:accumulate" d="m 4.2250652,2.19e-6 c -0.4305805,0 -0.784965,0.35441354 -0.784965,0.78502891 V 1.3225097 H 3.1765503 c -0.4351607,0 -0.7953002,0.3596519 -0.7953002,0.7948482 v 0.2635713 c 0,0.3452726 0.2280941,0.6400057 0.5389851,0.7483357 l 0.083716,1.7617929 C 2.7783773,5.0341376 2.6260575,5.2834372 2.6468669,5.5747926 l 0.2635499,3.705502 v -0.019639 c 0,0.2861482 0.1573377,0.5369074 0.3875733,0.6770164 0.03961,0.665549 0.090483,1.330052 0.1421101,1.991255 v -0.02171 c 0,0.435196 0.357555,0.792781 0.7927165,0.792781 h 4.2343668 c 0.4351612,0 0.7932332,-0.357585 0.7932332,-0.792781 v 0.01964 C 9.3123759,11.209425 9.3570441,10.625618 9.3999432,9.9397396 9.6316179,9.8001002 9.7895834,9.5483242 9.7895834,9.2606561 v 0.019639 L 10.053133,5.5747931 C 10.073887,5.2842771 9.922614,5.0353762 9.6981161,4.8920919 L 9.779765,3.1297822 C 10.091181,3.0220364 10.31875,2.7269446 10.31875,2.3809297 V 2.1173579 c 0,-0.4351965 -0.3575555,-0.7948482 -0.7927165,-0.7948482 H 9.2604167 V 0.7850311 C 9.2604167,0.35441573 8.9055152,2.19e-6 8.474935,2.19e-6 Z m 0,0.52920974 H 8.474935 c 0.1465746,0 0.2557983,0.10923241 0.2557983,0.25581917 v 0.8031171 a 0.26460979,0.26463133 0 0 0 0.2661336,0.2635713 h 0.5291666 c 0.1511557,0 0.2635499,0.1144706 0.2635499,0.2656384 v 0.2635713 c 0,0.1511679 -0.1123942,0.2656385 -0.2635499,0.2656385 H 3.1765503 c -0.1511556,0 -0.2661335,-0.1144704 -0.2661335,-0.2656385 V 2.1173579 c 0,-0.151168 0.1149779,-0.2656384 0.2661335,-0.2656384 H 3.705717 A 0.26460979,0.26463133 0 0 0 3.9692669,1.5881482 V 0.7850311 c 0,-0.14658676 0.1092234,-0.25581917 0.2557983,-0.25581917 z M 3.453536,3.1762942 H 9.2464639 L 9.1736003,4.7618563 H 3.5279501 Z M 3.4401,5.2915828 h 5.8203165 c 0.029254,0 0.056214,0.00742 0.082682,0.015503 6.615e-4,2.043e-4 0.0014,3.175e-4 0.00206,5.292e-4 a 0.26490779,0.26492935 0 0 0 0.025321,0.00672 c 0.095768,0.039983 0.1623309,0.1282696 0.1555461,0.2232604 l -0.2635498,3.705502 a 0.26460979,0.26463133 0 0 0 -0.00206,0.017572 c 0,0.1124055 -0.06253,0.2040807 -0.1565796,0.2439326 a 0.26510924,0.26513083 0 0 0 -0.031523,0.00723 c -0.024249,0.00695 -0.048271,0.014471 -0.075448,0.014471 H 3.705717 c -0.020555,0 -0.038359,-0.00682 -0.057361,-0.010854 A 0.26460979,0.26463133 0 0 0 3.5904785,9.4994305 C 3.5006935,9.4577029 3.4401002,9.3695955 3.4401002,9.2606559 a 0.26460979,0.26463133 0 0 0 0,-0.017572 L 3.1744834,5.5375825 c -0.00678,-0.094854 0.059485,-0.1831939 0.1550292,-0.2232603 a 0.26490774,0.2649293 0 0 0 0.027905,-0.00723 c 0.026468,-0.00808 0.053428,-0.015503 0.082682,-0.015503 z m 3.8261231,0.5292097 a 0.26460979,0.26463133 0 0 0 -0.068213,0.00982 c 0,0 -0.8098361,0.2049378 -1.4474568,0.6759829 -0.3188102,0.2355224 -0.611986,0.5485728 -0.6991821,0.9684951 -0.087196,0.4199221 0.062404,0.9021587 0.4960937,1.3850411 a 0.26460979,0.26463133 0 0 0 0.144694,0.083723 C 6.3317084,9.0728242 6.8254841,8.9613864 7.1489177,8.6782153 7.4723512,8.3950434 7.6032953,7.9856036 7.6506957,7.5944723 7.7454972,6.8122098 7.5199545,6.0161456 7.5199545,6.0161456 A 0.26460979,0.26463133 0 0 0 7.2662231,5.8207925 Z m -0.22841,0.6584113 C 7.0874113,6.709985 7.1845462,7.0460594 7.1256633,7.5319385 7.0871539,7.8497033 6.9833409,8.1202329 6.8011353,8.2797574 6.6812066,8.3847571 6.4856125,8.4365874 6.2182252,8.4332489 L 6.580477,7.8053291 A 0.26460984,0.26463138 0 0 0 6.3541342,7.4048041 0.26460984,0.26463138 0 0 0 6.1215903,7.5417577 L 5.7474528,8.1887995 C 5.5954135,7.9486346 5.5351133,7.7461708 5.5686524,7.5846526 5.6171479,7.3511068 5.804383,7.1247876 6.0647462,6.9324431 6.4643988,6.6371981 6.811516,6.551696 7.0378131,6.4792038 Z M 3.8369752,10.055504 h 5.0234659 c -0.039491,0.616584 -0.079451,1.166695 -0.1276408,1.832079 a 0.26460979,0.26463133 0 0 0 -0.00207,0.01964 c 0,0.151167 -0.1123944,0.263571 -0.2635498,0.263571 H 4.2328167 c -0.1511556,0 -0.2635498,-0.112404 -0.2635498,-0.263571 a 0.26460979,0.26463133 0 0 0 0,-0.02171 C 3.9215133,11.273954 3.8750749,10.664689 3.8369752,10.055504 Z"></path></g></svg>