<svg height='100px' width='100px'  fill="#000000" xmlns="http://www.w3.org/2000/svg" xmlns:xlink="http://www.w3.org/1999/xlink" version="1.1" x="0px" y="0px" viewBox="0 0 90 90" style="enable-background:new 0 0 90 90;" xml:space="preserve"><g><path d="M35.5,53c0.1-0.3,0.1-0.7,0.2-1c0.1-0.5,0.2-1,0.3-1.5c0.2-0.8,0.3-1.6,0.6-2.5c1.1-3.9,4.1-6.1,8.5-6.1   c0.4,0,0.9,0,1.3,0.1c0.5,0,0.9,0.1,1.4,0.1c-0.2-0.8-0.3-1.6-0.5-2.4c-0.9-3.2-3-4.4-7-4.1c-4.1,0.3-8.2,0.4-12.2,0   c-3.8-0.3-6.1,1-6.9,4c-0.4,1.3-0.6,2.6-0.9,3.9c-0.5,2-0.5,4-2.8,5.3c-0.7,0.4-1.1,1.5-1.2,2.4c-0.2,1.5-0.3,3.1,0,4.5   c0.2,1.1,0.9,2.2,1.8,2.9c0,0,0,0,0,0c0.6,0.6,1.4,0.9,2.2,1.1v1c0,1.3,1.5,2.4,3.3,2.4c1.8,0,3.3-1.1,3.3-2.4v-0.9h4.8   c0.1-0.9,0.7-3.2,2.5-4.3C35,55.2,35.1,54.7,35.5,53z"></path><path d="M69,57.9c-2.3-1.2-2.2-3.3-2.7-5.2c-0.3-1.3-0.5-2.6-0.9-3.9c-0.9-3.2-3-4.4-7-4.1c-4.1,0.3-8.2,0.4-12.2,0   c-3.8-0.3-6.1,1-6.9,4c-0.4,1.3-0.6,2.6-0.9,3.9c-0.5,2-0.5,4-2.8,5.3c-0.7,0.4-1.1,1.5-1.2,2.4c-0.2,1.5-0.3,3.1,0,4.5   c0.2,1.1,0.9,2.2,1.8,2.9c0,0,0,0,0,0c0.6,0.6,1.4,0.9,2.2,1.1v1c0,1.3,1.5,2.4,3.3,2.4c1.8,0,3.3-1.1,3.3-2.4V69h14.5v0.9   c0,1.3,1.5,2.4,3.3,2.4c1.8,0,3.3-1.1,3.3-2.4v-1c0.8-0.1,1.7-0.5,2.3-1c0.1-0.1,0.3-0.2,0.4-0.4c0.7-0.6,1.3-1.5,1.4-2.4   c0.2-1.7,0.2-3.4,0-5.1C70.1,59.3,69.6,58.3,69,57.9z M42.8,49.2c0.2-0.6,1.4-1.4,2.2-1.4c4.9-0.1,9.8-0.1,14.6,0   c0.8,0,2,0.7,2.2,1.4c0.7,2.3,1.1,4.6,1.7,7c-7.5,0-14.8,0-22.3,0C41.7,53.8,42.1,51.5,42.8,49.2z M40.3,60c1.5,0,2.7,1.2,2.7,2.7   c0,1.5-1.2,2.7-2.7,2.7c-1.5,0-2.7-1.2-2.7-2.7C37.6,61.2,38.8,60,40.3,60z M57.8,63.4H46.2c-0.6,0-1-0.5-1-1s0.5-1,1-1h11.6   c0.6,0,1,0.5,1,1C58.8,63,58.4,63.4,57.8,63.4z M63.5,65.5c-1.5,0-2.7-1.2-2.7-2.7c0-1.5,1.2-2.7,2.7-2.7c1.5,0,2.7,1.2,2.7,2.7   C66.3,64.2,65,65.5,63.5,65.5z"></path><path d="M76.8,45.7l-4.1-3.6l2.6-4.8c0.2-0.3,0.2-0.7,0.1-1c-0.1-0.3-0.4-0.6-0.7-0.7L69.5,34l0.4-5.4c0-0.4-0.1-0.7-0.4-0.9   c-0.3-0.2-0.6-0.4-1-0.3l-5.4,0.6l-1.8-5.1c-0.1-0.3-0.4-0.6-0.7-0.7c-0.3-0.1-0.7-0.1-1,0.1l-4.7,2.8L51.2,21   c-0.2-0.3-0.6-0.4-0.9-0.4c-0.4,0-0.7,0.2-0.9,0.5l-3.2,4.4l-5-2.1c-0.3-0.1-0.7-0.1-1,0c-0.3,0.2-0.5,0.5-0.6,0.8l-1.1,5.3   L33,29.8c-0.4,0-0.7,0.2-0.9,0.5c-0.2,0.3-0.3,0.6-0.2,1l0.5,2.2c0.4,0,0.9,0,1.3,0c0.4,0,0.7,0,1.1,0l-0.3-1.3l5-0.1   c0.5,0,1-0.4,1.1-0.9l1-4.9l4.6,1.9c0.5,0.2,1.1,0,1.4-0.4l2.9-4l3.4,3.6c0.4,0.4,1,0.5,1.5,0.2l4.3-2.5l1.7,4.7   c0.2,0.5,0.7,0.8,1.2,0.8l4.9-0.6L67,34.8c0,0.5,0.3,1.1,0.8,1.2l4.7,1.5l-2.4,4.4c-0.3,0.5-0.2,1.1,0.3,1.4l3.7,3.3l-3.9,3   c-0.4,0.3-0.6,0.9-0.4,1.4l2.1,4.5l-1.2,0.3c0.7,0.5,1.2,1.3,1.6,2l1.5-0.4c0.3-0.1,0.6-0.3,0.8-0.6c0.2-0.3,0.2-0.7,0-1l-2.3-5   l4.3-3.3c0.3-0.2,0.4-0.5,0.5-0.9C77.2,46.3,77.1,46,76.8,45.7z"></path></g></svg>