<svg height='100px' width='100px'  fill="#000000" xmlns="http://www.w3.org/2000/svg" xmlns:xlink="http://www.w3.org/1999/xlink" version="1.1" x="0px" y="0px" viewBox="0 0 64 64" style="enable-background:new 0 0 64 64;" xml:space="preserve"><g><path d="M49,23h-1.077C47.25,18.349,42.008,13.391,35,12.251V7h9c1.654,0,3-1.346,3-3s-1.346-3-3-3H33c-2.206,0-4,1.794-4,4v7.251   C21.992,13.391,16.75,18.349,16.077,23H15v6h2.061L18,44c0,1.669,0.83,3.141,2.091,4.05l0.911,10.017   C21.19,60.879,23.228,63,25.742,63h12.516c2.515,0,4.552-2.121,4.738-4.909l0.912-10.037c1.261-0.903,2.091-2.36,2.089-3.991   L46.939,29H49V23z M36,3h5.184C41.072,3.314,41,3.648,41,4s0.072,0.686,0.184,1H36V3z M45,4c0,0.552-0.449,1-1,1s-1-0.448-1-1   s0.449-1,1-1S45,3.448,45,4z M33,3h1v2.278C33.701,5.453,33.453,5.701,33.278,6H31V5C31,3.897,31.897,3,33,3z M31,8h2v4.044   C32.668,12.026,32.338,12,32,12s-0.668,0.026-1,0.044V8z M32,14c6.989,0,13.041,4.725,13.889,9H18.111   C18.959,18.725,25.011,14,32,14z M19.064,29h6.631C22.861,30.992,21,34.28,21,38s1.861,7.008,4.695,9H23   c-1.654,0-3-1.346-3.002-3.062L19.064,29z M32,29c4.962,0,9,4.037,9,9s-4.038,9-9,9s-9-4.037-9-9S27.038,29,32,29z M38.258,61   H25.742c-1.206,0-2.101-0.898-2.509-2h17.536C40.364,60.096,39.468,61,38.258,61z M41.087,57H22.913l-0.735-8.083   C22.447,48.962,22.719,49,23,49h18c0.281,0,0.553-0.038,0.822-0.083L41.087,57z M44,44c0,1.654-1.346,3-3,3h-2.695   C41.139,45.008,43,41.72,43,38s-1.861-7.008-4.695-9h6.631L44,44z M18,27h-1v-2h30v2h-1H18z"></path><path d="M32.142,45c1.832,0,3.554-0.713,4.849-2.009C38.287,41.696,39,39.975,39,38.143s-0.713-3.554-2.009-4.85l-0.707-0.707   l-9.698,9.698l0.707,0.707C28.588,44.287,30.31,45,32.142,45z M34.261,42.494l-0.745-2.978l2.978,0.744   c-0.234,0.479-0.53,0.929-0.918,1.317C35.19,41.965,34.74,42.261,34.261,42.494z M37,38.143c0,0.061-0.015,0.119-0.018,0.179   l-2.885-0.721l2.115-2.115C36.725,36.27,37,37.185,37,38.143z M31.6,40.098l0.721,2.885C32.261,42.985,32.203,43,32.142,43   c-0.958,0-1.873-0.275-2.656-0.788L31.6,40.098z"></path></g></svg>