<svg height='100px' width='100px'  fill="#000000" xmlns="http://www.w3.org/2000/svg" data-name="Layer 1" viewBox="0 0 64 64" x="0px" y="0px"><title>Real Estate 2</title><path d="M51.35,2.83V4.06h-2.8v9L40.71,7.23V4.06h-2.8V2.83A2.33,2.33,0,0,1,40.24.5H49A2.33,2.33,0,0,1,51.35,2.83Z"></path><polygon points="55.02 22.96 30.56 4.83 6.05 22.96 1.73 22.96 30.56 1.66 59.35 22.96 55.02 22.96"></polygon><path d="M29.37,51.17V36.37a6.82,6.82,0,0,0-6.82-6.82,6.94,6.94,0,0,0-6.82,6.82v14.8H12.37V24.83H48.65V35.31a13.4,13.4,0,0,1,3.55,0V23L30.56,6.84,8.82,23V51.23H6v4.26h31.8a13.49,13.49,0,0,1-1-4.32ZM35.4,23H31.21V18.79H35.4Zm-4.2-9.77h4.19V17.4H31.2Zm-5.58,0h4.19V17.4H25.62Zm0,5.58h4.19V23H25.62Zm-3.8,30H17.51V44h4.32Zm0-7.56H17.51V36.41h4.32Zm5.76,7.56H23.27V44h4.32Zm0-7.56H23.27V36.41h4.32Z"></path><path d="M54,37.43A11.68,11.68,0,0,0,52.2,37a11.83,11.83,0,0,0-3.55,0,11.7,11.7,0,0,0-1.81.42l-8.28,2.62V50.47q0,.35,0,.7a11.85,11.85,0,0,0,5.83,9.52c.93.55,6,2.8,6,2.8s4.14-1.72,6-2.8a12,12,0,0,0,5.85-10.22V40.05Zm-.81,10.52a2.76,2.76,0,0,1-1,2.11,2.63,2.63,0,0,1-.3.22V55h-3V50.27l-.27-.2a2.76,2.76,0,0,1-1-2.13V45.32l1.93-.61a2.77,2.77,0,0,1,1.67,0l1.93.61Z"></path></svg>