<svg height='100px' width='100px'  fill="#000000" xmlns="http://www.w3.org/2000/svg" xmlns:xlink="http://www.w3.org/1999/xlink" version="1.1" x="0px" y="0px" viewBox="0 0 50 50" enable-background="new 0 0 50 50" xml:space="preserve"><g><path d="M27.21,24.637c-0.377-0.417-0.973,0.213-0.583,0.634C26.998,25.687,27.604,25.064,27.21,24.637z"></path><path d="M36.273,26.661c0.89,0.359,4.151,0.797,6.925,0.805c-0.451-0.15-0.21-0.07-0.599-0.193   c0.662-4.687-0.478-9.249-3.796-12.966c0.009-0.011,0.382-0.534,0.392-0.544c-1.9,1.517-5.797,4.831-6.115,7.254   C32.768,23.391,34.115,26.228,36.273,26.661z M37.313,16.25c2.56,2.961,3.551,6.502,3.055,10.417   c-4.611-0.918-5.003-0.456-6.483-3.393l-0.008-0.04l-0.021-0.04C33.506,19.676,34.063,19.977,37.313,16.25z"></path><path d="M28.729,27.556c0.314,0.344,0.843-0.04,0.667-0.494C29.146,26.396,28.269,27.063,28.729,27.556z"></path><path d="M29.309,22.988c0.391-0.421-0.209-1.045-0.579-0.635C28.347,22.767,28.928,23.409,29.309,22.988z"></path><path d="M31.107,24.206l0.182,0.08c-0.228-0.928-0.867-1.578-1.655-1.813l0.073,0.2c0,0.971-1.377,1.008-1.377-0.004l0.073-0.2   c-0.855,0.247-1.46,0.958-1.668,1.813l0.183-0.08c0.897,0,0.93,1.506,0,1.506l-0.183-0.088c0.207,0.862,0.812,1.566,1.668,1.82   L28.33,27.24c0-0.99,1.377-1.003,1.377-0.005l-0.073,0.199c0.784-0.237,1.421-0.889,1.655-1.82l-0.182,0.088   C30.218,25.703,30.177,24.206,31.107,24.206z M29.345,25.784c-1.221,0.563-1.673-1.74-0.325-1.74c0.115,0,0.225,0.025,0.325,0.072   C30.015,24.427,30.028,25.469,29.345,25.784z"></path><path d="M28.859,24.542c-0.606,0.271-0.005,1.232,0.449,0.728c0.123-0.132,0.15-0.33,0.088-0.49   C29.313,24.558,29.07,24.444,28.859,24.542z"></path><path d="M32.503,23.347c-0.81-2.095-3.022-3.112-4.969-2.226c-3.804,1.732-2.697,8.004,1.485,7.977   C31.704,29.084,33.555,26.081,32.503,23.347z M26.147,26.275c-1.585-4.05,4.093-6.836,5.721-2.633   C33.464,27.781,27.734,30.337,26.147,26.275z"></path><path d="M31.066,29.479c-1.361,1.471-2.151,3.243,0.179,11.228c0-0.009-0.014-0.505-0.022-0.709   c4.34-0.846,7.934-3.557,10.058-8.21c0.008,0.003,0.586,0.234,0.593,0.238C37.249,28.376,33.944,26.367,31.066,29.479z    M31.056,37.414c-0.634-5.121-1.249-5.192,0.938-7.928l0.037-0.016l0.021-0.032c0.117-0.054,0.276-0.146,0.388-0.212   c2.266-1.339,3.781,0.101,6.706,1.623C37.518,34.246,34.855,36.618,31.056,37.414z"></path><path d="M31.204,19.508c0.33-0.175,0.633-0.395,0.898-0.658c1.285-1.28,3.026-6.214,3.562-7.983c0,0-0.207,0.335-0.36,0.579   c-4.203-2.436-8.625-2.409-12.681-0.243c-0.224-0.359-0.374-0.604-0.374-0.604C23.544,14.85,25.713,22.428,31.204,19.508z    M34.064,13.609c-2.229,4.508-1.772,4.976-5.009,5.748l-0.036-0.008l-0.037,0.008c-3.275-0.819-2.842-1.374-5.081-5.91   C27.278,11.703,30.813,11.798,34.064,13.609z"></path><path d="M15.684,32.291c0,0,0.47-0.19,0.637-0.259c2.263,4.735,6.029,7.39,10.479,8.052c-0.019,0.592-0.022,0.722-0.022,0.722   c2.393-8.242,1.478-9.919,0.18-11.299C24.282,26.655,21.512,27.748,15.684,32.291z M26.971,37.485   c-3.875-0.667-6.647-3.004-8.374-6.463c4.187-2.199,4.31-3.019,7.356-1.546l0.029,0.032l0.037,0.016   C28.254,32.156,27.583,32.489,26.971,37.485z"></path><path d="M43.698,18.194c-2.725-7.19-9.657-12.014-17.458-10.8c-7.091,0.958-10.916,0.879-15.137,4.328   c-10.6,8.668-6.726,26.913,6.477,29.544c1.616,0.321,3.78,0.584,7.236,1.051C36.554,45.46,49.127,32.515,43.698,18.194z    M35.021,40.461c-12.816,6.257-26.297-8.006-20.636-22.248c2.439-6.136,8.104-10.398,14.635-10.243   C45.364,8.362,50.319,32.993,35.021,40.461z"></path><path d="M30.731,25.128c0.174,0.445,0.783,0.308,0.783-0.174C31.515,24.253,30.478,24.45,30.731,25.128z"></path><path d="M23.984,18.818c-0.539-0.89-3.036-3.446-5.439-5.385c0.001,0.003,0.404,0.578,0.406,0.582   c-3.429,3.634-4.799,8.342-4.051,13.35c-0.138,0.044-0.648,0.204-0.655,0.206c2.479-0.024,4.907-0.308,6.535-0.654   C25.386,25.942,25.734,20.824,23.984,18.818z M20.529,16.042c3.486,3.979,3.906,3.605,3.588,7.127l-0.022,0.04l-0.007,0.04   c-1.712,3.101-1.723,2.469-6.789,3.473C16.753,22.701,17.846,19.001,20.529,16.042z"></path></g></svg>