<svg height='100px' width='100px'  fill="#000000" xmlns:dc="http://purl.org/dc/elements/1.1/" xmlns:cc="http://creativecommons.org/ns#" xmlns:rdf="http://www.w3.org/1999/02/22-rdf-syntax-ns#" xmlns:svg="http://www.w3.org/2000/svg" xmlns="http://www.w3.org/2000/svg" xmlns:sodipodi="http://sodipodi.sourceforge.net/DTD/sodipodi-0.dtd" xmlns:inkscape="http://www.inkscape.org/namespaces/inkscape" viewBox="0 0 100 100" version="1.1" x="0px" y="0px"><g transform="translate(0,-952.36216)"><path style="font-size:medium;font-style:normal;font-variant:normal;font-weight:normal;font-stretch:normal;text-indent:0;text-align:start;text-decoration:none;line-height:normal;letter-spacing:normal;word-spacing:normal;text-transform:none;direction:ltr;block-progression:tb;writing-mode:lr-tb;text-anchor:start;baseline-shift:baseline;opacity:1;color:#000000;fill:#000000;fill-opacity:1;stroke:none;stroke-width:6;marker:none;visibility:visible;display:inline;overflow:visible;enable-background:accumulate;font-family:Sans;-inkscape-font-specification:Sans" d="M 30 5 C 26.173904 5 23 8.1739 23 12 L 23 88 C 23 91.8261 26.173895 95 30 95 L 70 95 C 73.826105 95 77 91.8261 77 88 L 77 12 C 77 8.1739 73.826096 5 70 5 L 30 5 z M 30 11 L 70 11 C 70.605878 11 71 11.39412 71 12 L 71 72 L 29 72 L 29 20 L 65 20 A 3.0003 3.0003 0 1 0 65 14 L 29 14 L 29 12 C 29 11.39412 29.394122 11 30 11 z M 29 78 L 71 78 L 71 88 C 71 88.6059 70.605869 89 70 89 L 30 89 C 29.394131 89 29 88.6059 29 88 L 29 78 z M 42.6875 80 A 3.0040663 3.0040663 0 1 0 43 86 L 57 86 A 3.0003 3.0003 0 1 0 57 80 L 43 80 A 3.0003 3.0003 0 0 0 42.6875 80 z " transform="translate(0,952.36216)"></path></g></svg>