<svg height='100px' width='100px'  fill="#000000" xmlns="http://www.w3.org/2000/svg" data-name="Layer 1" viewBox="0 0 48 48" x="0px" y="0px"><title>accounting, book keep, book keepin, finance</title><path d="M29.71,16.29a1,1,0,0,0-1.42,0l-10,10a1,1,0,0,0,0,1.42,1,1,0,0,0,1.42,0l10-10A1,1,0,0,0,29.71,16.29Z"></path><circle cx="27.5" cy="25.5" r="1.5"></circle><circle cx="20.5" cy="18.5" r="1.5"></circle><path d="M47,13a1,1,0,0,0-1,1V36c-14,.2-20,4.55-22,6.5-2-1.95-8-6.3-22-6.5V14a1,1,0,0,0-2,0V37a1,1,0,0,0,1,1c17.28,0,22.13,6.51,22.18,6.57s0,0,.06,0a.72.72,0,0,0,.19.2l.08,0,.09,0a1,1,0,0,0,.4.1h0a1,1,0,0,0,.4-.1l.09,0,.08,0a.72.72,0,0,0,.19-.2s0,0,.06,0S29.57,38,47,38a1,1,0,0,0,1-1V14A1,1,0,0,0,47,13Z"></path><path d="M5,34c14.16,0,18.13,5.51,18.17,5.55A1,1,0,0,0,24,40h0a1,1,0,0,0,.83-.44c0-.05,4-5.56,18.17-5.56a1,1,0,0,0,1-1V4a1,1,0,0,0-1-1C31.05,3,25.81,6.15,24,7.63,22.19,6.15,17,3,5,3A1,1,0,0,0,4,4V33A1,1,0,0,0,5,34ZM6,5c13.31.21,17.15,4.54,17.23,4.62A1,1,0,0,0,24,10h0a1,1,0,0,0,.77-.37s2.08-2.35,8.32-3.69a1,1,0,0,1,.91,1V11a1,1,0,0,0,2,0V6.92a3,3,0,0,0-.38-1.43A49.41,49.41,0,0,1,42,5V32c-11.18.2-16.2,3.74-18,5.49C22.2,35.75,17.18,32.21,6,32Z"></path></svg>