<?xml version="1.0" encoding="utf-8"?>
<!-- Generator: Adobe Illustrator 24.2.1, SVG Export Plug-In . SVG Version: 6.00 Build 0)  -->
<svg version="1.1" id="Layer_1" xmlns="http://www.w3.org/2000/svg" xmlns:xlink="http://www.w3.org/1999/xlink" x="0px" y="0px"
	 viewBox="0 0 100 100" enable-background="new 0 0 100 100" xml:space="preserve">
<g>
	<path d="M13.026,94.528v-5.984h6.276v5.984C19.303,94.528,13.026,94.528,13.026,94.528z M80.334,56.079v24.723h4.378V56.079
		C84.713,56.079,80.334,56.079,80.334,56.079z M74.057,80.802V56.079h-7.321v24.723H74.057z M60.46,80.802V56.079h-7.321v24.723
		H60.46z M46.863,80.802V56.079h-7.321v24.723H46.863z M33.265,80.802V56.079h-7.321v24.723H33.265z M19.668,80.802V56.079h-4.378
		v24.723H19.668z M13.05,5.473h73.901L92.625,29h-5.649v20.803h4.013V87.08H9.013V49.803h4.013V29h-5.65L13.05,5.473L13.05,5.473z
		 M80.699,29H19.303v20.803h61.397V29z M86.976,88.544v5.984h-6.276v-5.984H86.976z"/>
</g>
</svg>
