<?xml version="1.0" encoding="utf-8"?>
<!-- Generator: Adobe Illustrator 24.2.1, SVG Export Plug-In . SVG Version: 6.00 Build 0)  -->
<svg version="1.1" id="Layer_1" xmlns="http://www.w3.org/2000/svg" xmlns:xlink="http://www.w3.org/1999/xlink" x="0px" y="0px"
	 viewBox="0 0 100 100" enable-background="new 0 0 100 100" xml:space="preserve">
<g>
	<g>
		<path fill-rule="evenodd" clip-rule="evenodd" d="M50.001,23.084C55.339,12.405,60.679,7.067,71.357,7.067
			c11.789,0,21.357,9.567,21.357,21.356c0,21.357-21.357,42.713-42.713,64.07C28.643,71.136,7.286,49.78,7.286,28.423
			c0-11.789,9.568-21.356,21.357-21.356C39.321,7.067,44.661,12.405,50.001,23.084L50.001,23.084z M41.272,37.564
			c0.578-0.428,0.48-1.23,0.495-1.868c3.783-1.151,3.152-3.4,7.404-0.399l0.801,0.698c-0.282,0.076-0.641,0.133-0.886,0.271
			c-0.458,0.257-0.682,1.071-2.861,1.278c-0.838,0.08-0.864-0.245-1.563,1.128c-0.776,3.195-2.698,5.722-6.001,6.326
			c-8.812,1.61-5.914-6.71-14.806-0.317c-1.373,0.987-1.944,1.991-4.329,2.82l0.506-1.789c-0.348,0.028-0.271,0.076-0.605,0.101
			l-1.915,0.178l1.486-1.789c-1.018-0.031-0.913-0.05-1.733-0.501c2.323-0.442,6.227-1.921,8.436-2.875
			c0.473-0.204,0.13-0.147,0.72-0.327c0.624-0.191,0.901-0.481,1.563-0.512c1.269-0.059,1.327,0.083,2.527,0.083
			c1.465,0,1.154,0.05,2.735-0.139c-0.648-0.298-5.537-0.149-6.123-0.349l-1.512-0.71l1.661-0.491
			c-0.265-0.343-1.45-0.623-2.004-0.954l-1.684-1.243c0.455-0.48,0.293-0.407,1.333-0.32c-1.151-1.232-1.068-0.554-2.173-2.397
			c0.737-0.117,1.755,0.302,2.439,0.576c-1.205-1.317-2.455-1.72-3.103-2.629l-0.693-1.286c0.746-0.034,1.026,0.098,1.794,0.27
			c-0.776-1.179-1.688-2.079-2.538-3.432l2.429,0.168c-0.217-0.709-2.657-2.718-3.019-3.467l-0.497-1.615l2.338,0.714
			c-0.156-0.56-2.063-2.421-2.512-2.916c-1.297-1.432-1.235-1.489-2.027-3.254c1.429-0.099,8.834,4.562,10.756,6.018
			c6.261,4.644,2.454,8.033,12.393,13.021C41.47,36.117,41.406,36.463,41.272,37.564L41.272,37.564z M46.486,35.32
			c-0.849-0.001-0.783-0.744-0.437-0.839C46.453,34.369,47,34.632,46.486,35.32z M27.557,26.909
			c-0.894,0.665-1.623,1.202-0.748,2.632c0.589,0.96,1.28,1.406,2.114,2.074c-0.137,0.098-1.061,0.376-0.29,1.52
			c1.157,1.503,2.229,2.396,3.647,3.637c-3.36-2.196-4.765-3.656-4.202-5.092c-0.394-0.885-2.731-2.107-2.227-3.775
			c0.112-0.37,0.625-0.721,1.018-1.071c-0.419-0.171-0.647-0.309-0.93-0.551c-0.925-0.788-1.159-1.606-1.726-2.725
			c0.059,0.058,0.802,1.548,1.686,2.289L27.557,26.909L27.557,26.909z M40.631,35.287c-0.802,0.032-2.933-1.567-3.532-1.961
			l-0.517-0.373c-0.223-0.188-0.302-0.293-0.512-0.475c-2.328-2.023-2.889-4.226-4.403-6.836c-0.669-1.153-1.691-2.089-2.749-2.88
			c-0.689-0.514-0.887-0.53-0.926-0.982c-0.07-0.82,0.281-0.696,0.972-0.202c0.399,0.284,0.542,0.501,0.888,0.882l-1.964-6.07
			c0.116,0.015,2.029,1.957,2.564,2.375c-0.687-2.691-1.721-5.013-2.794-7.466c0.595-0.073,2.485,2.822,3.179,3.597
			c4.119,4.135,3.795,3.093,5.125,8.794c0.326,1.394,1.01,3.349,1.221,4.596c0.059,0.353,0.124,0.674,0.208,1.02
			c0.521,2.186,1.233,2.843,2.36,4.55C39.953,34.166,40.552,34.975,40.631,35.287L40.631,35.287z M46.211,60.279
			c-0.578-0.428-0.479-1.23-0.494-1.868c-3.783-1.15-3.152-3.4-7.405-0.399l-0.8,0.698c0.282,0.077,0.639,0.134,0.886,0.271
			c0.458,0.257,0.682,1.071,2.86,1.278c0.839,0.08,0.864-0.244,1.563,1.128c0.776,3.195,2.699,5.723,6.001,6.326
			c8.813,1.61,5.914-6.71,14.807-0.316c1.372,0.986,1.944,1.99,4.329,2.818l-0.507-1.787c0.348,0.027,0.273,0.074,0.605,0.1
			l1.916,0.179l-1.488-1.79c1.019-0.031,0.913-0.05,1.733-0.501c-2.322-0.442-6.227-1.921-8.436-2.875
			c-0.473-0.204-0.129-0.147-0.72-0.327c-0.624-0.191-0.901-0.481-1.562-0.512c-1.271-0.058-1.327,0.083-2.527,0.083
			c-1.465,0-1.155,0.05-2.736-0.139c0.648-0.298,5.537-0.147,6.123-0.348l1.514-0.71l-1.661-0.491
			c0.265-0.344,1.45-0.624,2.003-0.956l1.685-1.242c-0.457-0.481-0.294-0.408-1.333-0.32c1.151-1.233,1.067-0.554,2.173-2.398
			c-0.739-0.117-1.755,0.302-2.439,0.576c1.205-1.317,2.454-1.72,3.102-2.629l0.693-1.286c-0.746-0.034-1.025,0.099-1.794,0.271
			c0.777-1.18,1.688-2.08,2.539-3.433l-2.43,0.168c0.217-0.709,2.657-2.718,3.02-3.467l0.497-1.615l-2.339,0.715
			c0.157-0.562,2.063-2.421,2.512-2.918c1.297-1.432,1.236-1.488,2.027-3.253c-1.428-0.099-8.834,4.561-10.755,6.017
			c-6.261,4.644-2.455,8.033-12.395,13.021C46.013,58.832,46.078,59.178,46.211,60.279L46.211,60.279z M40.997,58.036
			c0.849-0.002,0.785-0.744,0.437-0.84C41.03,57.084,40.482,57.347,40.997,58.036z M59.926,49.624
			c0.894,0.665,1.623,1.202,0.748,2.633c-0.589,0.959-1.28,1.405-2.114,2.073c0.137,0.098,1.061,0.378,0.29,1.521
			c-1.157,1.502-2.229,2.395-3.645,3.636c3.359-2.196,4.765-3.656,4.201-5.092c0.395-0.885,2.732-2.106,2.227-3.775
			c-0.112-0.37-0.625-0.721-1.018-1.071c0.419-0.171,0.647-0.308,0.931-0.551c0.925-0.787,1.159-1.606,1.726-2.725
			c-0.059,0.058-0.803,1.548-1.686,2.289C61.586,48.561,59.926,49.624,59.926,49.624z M46.853,58.002
			c0.801,0.032,2.933-1.566,3.531-1.961l0.517-0.373c0.223-0.188,0.302-0.293,0.512-0.474c2.329-2.024,2.889-4.227,4.404-6.837
			c0.669-1.151,1.689-2.089,2.748-2.88c0.69-0.514,0.888-0.529,0.926-0.982c0.07-0.82-0.28-0.696-0.971-0.202
			c-0.399,0.284-0.543,0.501-0.89,0.882l1.965-6.07c-0.117,0.015-2.03,1.957-2.565,2.375c0.687-2.691,1.721-5.012,2.794-7.466
			c-0.595-0.073-2.483,2.822-3.179,3.597c-4.119,4.135-3.794,3.093-5.125,8.794c-0.326,1.396-1.009,3.349-1.22,4.598
			c-0.06,0.353-0.125,0.674-0.208,1.019c-0.523,2.186-1.233,2.844-2.36,4.552C47.53,56.881,46.931,57.69,46.853,58.002
			L46.853,58.002z"/>
		<path d="M49.999,17.012c2.803-5.305,5.691-9.374,9.234-12.207C63.235,1.603,68.014,0,74.358,0c7.012,0,13.368,2.849,17.969,7.449
			l0.005,0.004c4.6,4.601,7.448,10.955,7.448,17.969c0,12.439-6.177,24.823-15.44,37.174c-9.195,12.26-21.393,24.456-33.588,36.652
			L49.999,100l-0.753-0.753C37.05,87.051,24.852,74.854,15.66,62.596C6.398,50.245,0.221,37.861,0.221,25.421
			c0-7.014,2.848-13.368,7.448-17.969l0.005-0.004C12.274,2.849,18.629,0,25.642,0c6.341,0,11.122,1.602,15.123,4.805
			C44.31,7.638,47.196,11.707,49.999,17.012L49.999,17.012z M60.556,6.459c-3.667,2.933-6.629,7.389-9.608,13.347l-0.949,1.898
			l-0.949-1.898c-2.978-5.958-5.94-10.414-9.608-13.347c-3.605-2.887-7.966-4.33-13.801-4.33c-6.431,0-12.254,2.61-16.469,6.823
			C4.959,13.167,2.35,18.992,2.35,25.421c0,11.917,6.004,23.896,15.007,35.901C26.241,73.17,38.091,85.08,49.999,96.989
			C61.908,85.08,73.757,73.17,82.643,61.323C91.646,49.318,97.65,37.338,97.65,25.421c0-6.43-2.608-12.254-6.823-16.469
			c-4.215-4.213-10.04-6.823-16.469-6.823C68.522,2.129,64.163,3.572,60.556,6.459L60.556,6.459z"/>
	</g>
</g>
</svg>
