<svg height='100px' width='100px'  fill="#000000" xmlns="http://www.w3.org/2000/svg" xmlns:xlink="http://www.w3.org/1999/xlink" version="1.1" x="0px" y="0px" viewBox="0 0 160 160" style="enable-background:new 0 0 160 160;" xml:space="preserve"><path d="M127.263,114.657l1.502-3.963c0.234-0.62,0.214-1.308-0.059-1.912s-0.773-1.076-1.394-1.312l-18.661-7.07  c-1.291-0.486-2.733,0.16-3.224,1.452l-0.366,0.966c-0.306-0.222-0.644-0.409-1.026-0.525l-6.34-1.926v-6.446l21.986-6.437  c1.491-0.438,2.517-1.805,2.517-3.359V47.403c0-23.4-19.037-42.438-42.438-42.438c-23.4,0-42.438,19.038-42.438,42.438v36.723  c0,1.555,1.025,2.922,2.517,3.359l22.463,6.576v6.307l-7.438,2.259l-0.293-0.774c-0.489-1.291-1.933-1.939-3.224-1.452l-18.661,7.07  c-0.62,0.235-1.122,0.707-1.394,1.312c-0.272,0.604-0.293,1.292-0.059,1.912l1.502,3.963c-5.059,5.878-7.823,13.275-7.823,21.121  v15.757c0,1.933,1.567,3.5,3.5,3.5h103.172c1.933,0,3.5-1.567,3.5-3.5v-15.757C135.086,127.932,132.323,120.534,127.263,114.657z   M109.218,105.961l13.985,5.299l-0.994,2.623l-13.985-5.299L109.218,105.961z M79.791,124.476c0.339,0,0.676-0.022,1.013-0.037  l4.271,23.596H74.879l4.268-23.582C79.362,124.459,79.576,124.476,79.791,124.476z M79.791,119.476  c-2.067,0-4.095-0.363-6.009-1.054L80,115.153l6.047,3.179C84.063,119.083,81.951,119.476,79.791,119.476z M55.407,69.252  l-1.054-6.322c-0.144-0.866,0.157-1.734,0.807-2.324l1.65-1.499c0.983-0.893,1.376-2.266,1.015-3.544  c-0.432-1.527-0.705-3.088-0.817-4.66h3.028c5.781,0,10.83-3.193,13.477-7.907c5.146,4.988,12.125,7.907,19.441,7.907h10.04  c-0.112,1.572-0.385,3.134-0.817,4.661c-0.362,1.278,0.03,2.651,1.014,3.544l1.648,1.498c0.649,0.59,0.951,1.458,0.807,2.324  l-1.054,6.322c-0.113,0.679-0.67,1.203-1.356,1.276l-0.481,0.052c-1.557,0.163-2.877,1.229-3.363,2.712l-0.407,1.235  c-2.173,6.591-6.647,12.187-12.599,15.755c-1.703,1.021-3.652,1.562-5.638,1.562h-1.496c-1.985,0-3.935-0.54-5.638-1.562  c-5.952-3.568-10.426-9.164-12.599-15.755l-0.406-1.231c-0.487-1.486-1.808-2.553-3.355-2.715l-0.493-0.053  C56.077,70.456,55.52,69.931,55.407,69.252z M80,109.533l-10.884-5.443c0.121-0.356,0.188-0.736,0.188-1.127v-7.124  c0.237,0.15,0.47,0.304,0.711,0.448c2.79,1.673,5.984,2.558,9.237,2.558h1.496c3.253,0,6.447-0.885,9.237-2.558  c0.241-0.144,0.474-0.298,0.711-0.448v7.124c0,0.391,0.066,0.771,0.188,1.127L80,109.533z M64.067,107.147  c0.023,0.012,0.041,0.029,0.064,0.041l10.39,5.197l-8.662,4.554l-2.558-9.56L64.067,107.147z M85.478,112.384l10.389-5.196  c0.023-0.012,0.042-0.029,0.064-0.041l0.765,0.232l-2.557,9.559L85.478,112.384z M44.324,47.403  c0-19.541,15.897-35.438,35.438-35.438c19.54,0,35.438,15.897,35.438,35.438v34.101l-13.914,4.073  c1.744-2.582,3.157-5.398,4.188-8.383c3.094-0.91,5.481-3.531,6.024-6.791l1.054-6.321c0.538-3.224-0.585-6.46-3.004-8.658  l-0.11-0.1c0.41-1.993,0.617-4.02,0.617-6.051c0-0.465-0.027-0.928-0.048-1.391c0.022-0.158,0.048-0.315,0.048-0.479  c0-1.788-1.346-3.246-3.076-3.457c-0.023-0.003-0.047-0.004-0.071-0.007c-0.118-0.012-0.232-0.036-0.354-0.036h-13.6  c-7.337,0-14.221-3.92-17.965-10.23c-0.805-1.356-2.417-2.004-3.936-1.589c-1.521,0.417-2.574,1.799-2.574,3.375  c0,4.656-3.788,8.444-8.444,8.444h-6.587c-0.103,0-0.199,0.022-0.3,0.03c-0.055,0.006-0.11,0.009-0.165,0.017  c-1.711,0.229-3.035,1.679-3.035,3.453c0,0.164,0.026,0.32,0.048,0.477c-0.021,0.465-0.048,0.932-0.048,1.393  c0,2.03,0.207,4.057,0.617,6.05l-0.112,0.102c-2.419,2.197-3.542,5.434-3.005,8.657l1.053,6.321  c0.543,3.261,2.932,5.882,6.025,6.791c1.054,3.054,2.511,5.927,4.31,8.558l-14.513-4.248V47.403z M37.791,113.883l-0.994-2.623  l13.985-5.299l0.994,2.623L37.791,113.883z M31.914,135.778c0-6.207,2.207-12.056,6.242-16.686l17.729-6.717  c0.62-0.235,1.122-0.707,1.394-1.312c0.267-0.593,0.289-1.265,0.069-1.875l1.168-0.355l3.323,12.421  c0.196,0.733,0.716,1.339,1.413,1.644c0.32,0.141,0.662,0.21,1.002,0.21c0.4,0,0.8-0.096,1.164-0.287l2.855-1.501  c1.856,1.097,3.846,1.916,5.919,2.443l-4.393,24.272H31.914V135.778z M128.086,148.035h-37.93l-4.41-24.364  c2.018-0.548,3.954-1.374,5.761-2.467l3.076,1.617c0.363,0.191,0.763,0.287,1.163,0.287c0.341,0,0.683-0.069,1.003-0.21  c0.696-0.305,1.216-0.91,1.412-1.644l3.323-12.421l0.517,0.157c0.225,0.068,0.449,0.105,0.674,0.127l-0.013,0.033  c-0.234,0.62-0.214,1.308,0.059,1.912s0.773,1.076,1.394,1.312l17.73,6.717c4.036,4.63,6.242,10.478,6.242,16.686V148.035z"></path><path d="M111.8,126.092c-2.912,0-4.277-1.744-4.308-1.782c-0.459-0.65-1.215-1.023-2.011-1.038c-0.796,0.018-1.566,0.37-2.049,1.002  c-0.057,0.074-1.422,1.818-4.334,1.818c-1.381,0-2.5,1.119-2.5,2.5v6.979c0,4.989,4.724,8.586,8.078,9.547  c0.23,0.066,0.462,0.098,0.689,0.098c0.056,0.001,0.111,0.001,0.165,0c0.228,0,0.459-0.031,0.689-0.098  c3.354-0.96,8.079-4.558,8.079-9.547v-6.979C114.3,127.211,113.181,126.092,111.8,126.092z M109.3,135.571  c0,2.004-2.252,3.811-3.851,4.517c-1.6-0.706-3.851-2.513-3.851-4.517v-4.748c1.56-0.347,2.852-0.984,3.851-1.681  c0.999,0.696,2.291,1.335,3.851,1.681V135.571z"></path></svg>