<svg height='100px' width='100px'  fill="#000000" xmlns="http://www.w3.org/2000/svg" xmlns:xlink="http://www.w3.org/1999/xlink" xml:space="preserve" version="1.1" style="shape-rendering:geometricPrecision;text-rendering:geometricPrecision;image-rendering:optimizeQuality;" viewBox="0 0 1.867 1.422" x="0px" y="0px" fill-rule="evenodd" clip-rule="evenodd"><defs><style type="text/css">
   
    .fil0 {fill:#000000;fill-rule:nonzero}
   
  </style></defs><g><path class="fil0" d="M0.331 0.75c-0.021,-0.012 -0.029,-0.039 -0.016,-0.06 0.012,-0.022 0.039,-0.029 0.06,-0.017l0.077 0.045 0 -0.09c0,-0.025 0.02,-0.045 0.044,-0.045 0.025,0 0.045,0.02 0.045,0.045l0 0.256 0.076 -0.044c0.021,-0.012 0.048,-0.005 0.061,0.016 0.012,0.021 0.005,0.049 -0.017,0.061l-0.12 0.07 0 0.093c0.057,-0.007 0.109,-0.029 0.153,-0.062 0.051,-0.038 0.09,-0.091 0.113,-0.151 -0.067,-0.09 -0.106,-0.202 -0.106,-0.323 0,-0.016 0.001,-0.033 0.002,-0.049 -0.026,-0.021 -0.055,-0.038 -0.087,-0.05 -0.037,-0.015 -0.077,-0.023 -0.12,-0.023 -0.091,0 -0.174,0.037 -0.234,0.097 -0.059,0.06 -0.096,0.142 -0.096,0.234 0,0.091 0.037,0.174 0.096,0.234 0.05,0.049 0.116,0.083 0.19,0.093l0 -0.26 -0.121 -0.07zm-0.287 0.672c-0.024,0 -0.044,-0.02 -0.044,-0.044 0,-0.025 0.02,-0.045 0.044,-0.045l0.408 0 0 -0.163c-0.098,-0.01 -0.186,-0.055 -0.252,-0.121 -0.076,-0.076 -0.123,-0.18 -0.123,-0.296 0,-0.116 0.047,-0.221 0.123,-0.297 0.075,-0.076 0.18,-0.123 0.296,-0.123 0.054,0 0.105,0.01 0.153,0.029 0.025,0.01 0.049,0.022 0.072,0.037 0.025,-0.092 0.074,-0.174 0.14,-0.24 0.098,-0.098 0.234,-0.159 0.384,-0.159 0.151,0 0.287,0.061 0.385,0.159 0.099,0.099 0.16,0.235 0.16,0.385 0,0.151 -0.061,0.287 -0.16,0.385 -0.088,0.089 -0.207,0.147 -0.34,0.158l0 0.246 0.532 0c0.025,0 0.045,0.02 0.045,0.045 0,0.024 -0.02,0.044 -0.045,0.044l-0.577 0 -0.749 0 -0.452 0zm0.497 -0.089l0.66 0 0 -0.246c-0.127,-0.01 -0.242,-0.064 -0.33,-0.147 -0.029,0.059 -0.072,0.11 -0.124,0.148 -0.059,0.045 -0.129,0.074 -0.206,0.082l0 0.163zm0.873 -0.659c0.021,-0.013 0.048,-0.005 0.061,0.016 0.012,0.021 0.005,0.048 -0.017,0.06l-0.168 0.098 0 0.15c0.108,-0.011 0.205,-0.059 0.278,-0.131 0.082,-0.083 0.133,-0.197 0.133,-0.323 0,-0.125 -0.051,-0.239 -0.133,-0.322 -0.083,-0.082 -0.197,-0.133 -0.323,-0.133 -0.125,0 -0.239,0.051 -0.322,0.133 -0.082,0.083 -0.133,0.197 -0.133,0.322 0,0.126 0.051,0.24 0.133,0.323 0.073,0.072 0.17,0.12 0.278,0.131l0 -0.372 -0.169 -0.098c-0.021,-0.012 -0.028,-0.039 -0.016,-0.06 0.013,-0.022 0.04,-0.029 0.061,-0.017l0.124 0.072 0 -0.145c0,-0.025 0.02,-0.045 0.044,-0.045 0.025,0 0.045,0.02 0.045,0.045l0 0.367 0.124 -0.071z"></path></g></svg>