<svg height='100px' width='100px'  fill="#000000" xmlns="http://www.w3.org/2000/svg" xmlns:xlink="http://www.w3.org/1999/xlink" version="1.1" x="0px" y="0px" viewBox="0 0 66 66" enable-background="new 0 0 66 66" xml:space="preserve"><g><path d="M39.597,44.068c2.347-1.503,2.255-6.701-1.146-6.761c-3.03-0.134-5.409,4.053-3.039,6.376   C36.49,44.74,38.289,44.906,39.597,44.068z M38.198,38.324c0.292-0.025,0.529-0.035,0.884,0.112l-0.574,0.574l-0.372-0.372   C38.224,38.55,38.267,38.464,38.198,38.324z M37.343,38.552l0.086,0.086l-0.49,0.49l-0.207-0.207   C36.923,38.771,37.129,38.649,37.343,38.552z M36.362,39.258l0.224,0.224c-0.215,0.215-0.49,0.413-0.274,0.628   c0.218,0.218,0.411-0.058,0.628-0.274l0.671,0.671c0.232,0.232,0.588-0.119,0.354-0.354l-0.671-0.671l0.49-0.49l0.372,0.372   c-0.153,0.153-0.293,0.295-0.118,0.471s0.318,0.036,0.471-0.118c0.285,0.285,0.643-0.065,0.354-0.353   c0.097-0.097,0.558-0.549,0.641-0.658c1.14,1.022,0.825,3.708-0.444,4.521c-0.877,0.56-2.103,0.472-2.855-0.184l0.755-0.755   c0.222,0.222,0.44,0.53,0.662,0.308s-0.086-0.44-0.308-0.662l0.853-0.853c0.232-0.232-0.119-0.588-0.354-0.354l-0.853,0.853   l-1.281-1.281C35.84,39.91,36.071,39.565,36.362,39.258z M35.512,40.84l1.093,1.093l-0.739,0.739   C35.403,42.039,35.403,41.35,35.512,40.84z"></path><path d="M44.658,40.072L44.658,40.072c1.628,1.15,3.984,0.6,4.993-1.282c1.266-2.357-0.834-5.829-3.627-4.912   C43.415,34.735,42.229,38.357,44.658,40.072z M46.935,34.734c0.394,0,0.719,0.13,0.972,0.302c-0.106,0.09-0.453,0.442-0.551,0.54   l-0.529-0.529C46.925,34.949,46.988,34.897,46.935,34.734z M47.002,35.931c-0.31,0.31,0.029,0.678,0.354,0.354   c0.117,0.117,0.459,0.513,0.616,0.513c0.221,0,0.334-0.269,0.177-0.427l-0.44-0.44c0.1-0.1,0.488-0.472,0.556-0.59   c2.229,2.346-0.763,5.517-3.031,3.914v0c-0.046-0.032-0.08-0.068-0.121-0.102l0.575-0.575c0.199,0.199,0.38,0.441,0.587,0.234   c0.207-0.207-0.033-0.387-0.234-0.587l1.005-1.005c0.182-0.182,0.006-0.516-0.276-0.386l-0.866-0.866l0.569-0.569L47.002,35.931z    M46.028,34.956l0.091,0.091l-0.569,0.569l-0.204-0.204C45.553,35.227,45.783,35.074,46.028,34.956z M45.002,35.774l0.195,0.195   c-0.164,0.164-0.32,0.308-0.137,0.491s0.327,0.026,0.491-0.137l0.843,0.843l-0.706,0.706l-1.193-1.193   C44.611,36.353,44.783,36.045,45.002,35.774z M44.355,37.246l0.98,0.98L44.76,38.8C44.328,38.247,44.306,37.635,44.355,37.246z"></path><path d="M43.546,47.814c1.547,4.053,7.019,2,6.14-1.611C48.755,42.392,42.081,43.968,43.546,47.814z M47.192,45.079l-0.013,0.013   l-0.016-0.016C47.173,45.078,47.183,45.077,47.192,45.079z M45.381,45.32l-0.085,0.085l-0.026-0.026   C45.306,45.359,45.344,45.34,45.381,45.32z M44.863,45.679l0.128,0.128c-0.006,0.144,0.099,0.264,0.256,0.256l0.873,0.873   l-0.412,0.412l-1.207-1.207C44.654,45.828,44.72,45.812,44.863,45.679z M44.353,46.7l1.002,1.002l-0.45,0.45   C44.563,47.736,44.324,47.26,44.353,46.7z M45.246,48.517l0.462-0.462c0.291,0.291,0.643-0.064,0.354-0.354l0.71-0.71   c0.098-0.098,0.098-0.256,0-0.354c-0.076-0.076-0.183-0.075-0.275-0.032l-0.847-0.847l0.722-0.722   c0.014-0.001,0.028-0.003,0.042-0.004l0.413,0.413c-0.242,0.242-0.628,0.51-0.392,0.746c0.242,0.242,0.504-0.15,0.746-0.392   c0.123,0.123,0.645,0.703,0.806,0.703c0.221,0,0.334-0.269,0.177-0.427l-0.629-0.629l0.192-0.192   C50.326,46.487,47.652,50.533,45.246,48.517z"></path><path d="M27.815,60.618c7.834,6.096,18.042,4.162,23.782-1.959c1.307-1.391,2.37-2.958,3.159-4.656   c5.544-11.949-4.034-25.516-17.165-24.298c-2.439,0.229-4.884,1.038-7.068,2.337c-0.627,0.373-1.226,0.794-1.805,1.237   c-0.27-0.782-0.554-1.56-0.844-2.338c-0.885-2.372-1.799-4.825-2.085-7.346c-0.752-6.595,4.107-19.537-2.934-22.309   c-2.879-1.143-6.118,1.043-7.22,3.719c-2.213,5.39,1.66,11.073,1.293,16.342c-0.425,5.993-5.775,10.272-7.181,23.315   c-0.519,4.874,0.946,8.88,2.606,12.484C16.965,67.107,24.569,66.875,27.815,60.618z M17.64,62.632l0.97-0.97l0.975,0.975   c-0.209,0.209-0.467,0.397-0.255,0.609c0.212,0.212,0.4-0.047,0.609-0.255c0.236,0.236,0.501,0.619,0.737,0.383   c0.235-0.235-0.146-0.499-0.383-0.737l0.743-0.743l1.075,1.075l-0.322,0.322c-0.233,0.233,0.12,0.587,0.354,0.354l0.322-0.322   l0.479,0.479C21.277,64.229,19.299,63.794,17.64,62.632z M18.963,61.309l0.779-0.78c0.01,0.045,0.017,0.091,0.052,0.126   l0.886,0.886l-0.743,0.743L18.963,61.309z M24.801,60.279l-1.175,1.175l-1.075-1.075l1.175-1.175L24.801,60.279z M24.71,59.481   l0.906-0.906c0.141,0.155,0.276,0.314,0.423,0.465l-0.885,0.885L24.71,59.481z M23.273,61.807l-0.809,0.809l-1.075-1.075   l0.809-0.809L23.273,61.807z M23.48,63.633l-0.663-0.663l0.809-0.809c0.254,0.254,0.666,0.802,0.911,0.557   c0.098-0.098,0.098-0.256,0-0.354l-0.557-0.557l1.175-1.175l0.737,0.737c0.049,0.049,0.113,0.073,0.177,0.073   c0.042,0,0.079-0.027,0.117-0.049C25.475,62.401,24.616,63.194,23.48,63.633z M26.301,61.233c0.014-0.078,0.004-0.157-0.056-0.217   l-0.737-0.737l0.891-0.891c0.042,0.04,0.086,0.078,0.128,0.118c0.166,0.158,0.324,0.322,0.497,0.475   C26.796,60.439,26.555,60.855,26.301,61.233z M35.535,63.073l0.258-0.258l0.353,0.353C35.942,63.137,35.738,63.111,35.535,63.073z    M36.569,63.229c0.093-0.098,0.094-0.252-0.002-0.348l-0.42-0.42l0.84-0.84l1.206,1.205c-0.181,0.228,0.093,0.534,0.339,0.339   l0.179,0.179C37.831,63.36,37.262,63.313,36.569,63.229z M39.199,63.322c0.025-0.085,0.02-0.175-0.046-0.242l-0.261-0.261   l1.477-1.477l1.36,1.36c0.098,0.098,0.256,0.098,0.354,0c0.043-0.043,0.06-0.1,0.065-0.156c0.023-0.012,0.05-0.01,0.069-0.029   l1.414-1.414l0.7,0.7c0.098,0.098,0.256,0.098,0.354,0s0.098-0.256,0-0.354l-0.7-0.7l1.079-1.079l1.136,1.136   c0.098,0.098,0.256,0.098,0.354,0c0.038-0.038,0.048-0.088,0.057-0.137l1.517-1.517l0.04,0.04c0.098,0.098,0.256,0.098,0.354,0   s0.098-0.256,0-0.354l-0.04-0.04l1.596-1.596l0.781,0.781C47.85,61.185,43.541,63.117,39.199,63.322z M43.277,60.75l-1.397,1.397   l-1.158-1.158l1.397-1.397L43.277,60.75z M42.472,59.238l1.079-1.079l1.158,1.158l-1.079,1.079L42.472,59.238z M45.416,59.318   l1.437-1.437l0.919,0.919l-1.437,1.437L45.416,59.318z M51.186,57.608l-0.757-0.757l1.516-1.516l0.578,0.577   C52.119,56.504,51.667,57.066,51.186,57.608z M53.848,53.582c-0.305,0.656-0.663,1.285-1.053,1.896l-0.497-0.497l1.66-1.66   C53.92,53.408,53.888,53.496,53.848,53.582z M55.178,48.87l-1.13-1.129l1.152-1.152c0.087-0.087,0.084-0.218,0.016-0.316   l0.087,0.087C55.327,47.198,55.281,48.037,55.178,48.87z M55.259,45.609l-0.852-0.852l0.67-0.67   C55.161,44.591,55.221,45.099,55.259,45.609z M37.684,30.701c7.387-0.694,15.497,4.063,17.281,12.792   c-0.001,0.001-0.002,0-0.003,0.001l-0.917,0.917c-0.098-0.078-0.238-0.081-0.329,0.01c-0.091,0.091-0.088,0.231-0.01,0.329   l-0.388,0.388c-0.098,0.098-0.098,0.256,0,0.354s0.256,0.098,0.354,0l0.38-0.38l1.109,1.109c-0.098-0.069-0.229-0.072-0.316,0.016   l-1.152,1.152l-0.102-0.102c-0.098-0.098-0.256-0.098-0.354,0s-0.098,0.256,0,0.354l0.102,0.102l-0.34,0.34   c-0.098,0.098-0.098,0.256,0,0.354s0.256,0.098,0.354,0l0.34-0.34l1.181,1.18c0.049,0.049,0.113,0.073,0.177,0.073   c0.024,0,0.043-0.021,0.066-0.027c-0.148,0.976-0.388,1.938-0.716,2.873c-0.012,0.008-0.028,0.005-0.039,0.016l-0.231,0.231   l-1.357-1.357l1.535-1.535c0.098-0.098,0.098-0.256,0-0.354s-0.256-0.098-0.354,0l-1.535,1.535l-0.261-0.261   c-0.098-0.098-0.256-0.098-0.354,0s-0.098,0.256,0,0.354l0.261,0.261l-1.614,1.614c-0.098,0.098-0.098,0.256,0,0.354   s0.256,0.098,0.354,0l1.614-1.614l1.357,1.357l-1.835,1.834l-1.773-1.772c-0.098-0.098-0.256-0.098-0.354,0s-0.098,0.256,0,0.354   l1.773,1.772l-1.516,1.516l-1.972-1.971c-0.098-0.098-0.256-0.098-0.354,0s-0.098,0.256,0,0.354l1.972,1.971l-1.596,1.596   l-0.919-0.919l1.22-1.22c0.098-0.098,0.098-0.256,0-0.354s-0.256-0.098-0.354,0l-1.22,1.22l-1.136-1.136   c-0.098-0.098-0.256-0.098-0.354,0s-0.098,0.256,0,0.354l1.136,1.136l-1.437,1.437l-1.255-1.255   c-0.016-0.016-0.038-0.013-0.056-0.023c-0.011-0.018-0.008-0.041-0.023-0.056c-0.098-0.098-0.256-0.098-0.354,0l-3.006,3.006   l-0.301-0.301c-0.098-0.098-0.256-0.098-0.354,0s-0.098,0.256,0,0.354l0.301,0.301l-1.477,1.477l-1.198-1.198l2.61-2.611   c0.098-0.098,0.098-0.256,0-0.354s-0.256-0.098-0.354,0l-2.691,2.691c-0.049,0.009-0.099,0.019-0.136,0.057   s-0.048,0.088-0.057,0.136l-0.92,0.92l-0.659-0.659c-0.098-0.098-0.256-0.098-0.354,0s-0.098,0.256,0,0.354l0.659,0.659   l-0.482,0.482c-2.528-0.579-4.961-1.773-6.994-3.474c-5.965-5.018-7.183-13.111-3.406-19.894c0.405-0.405,1.277-1.048,0.765-1.248   C28.323,33.859,32.971,31.142,37.684,30.701z M24.442,37.844l-0.534-0.534l0.776-0.776l0.398,0.398   C24.748,37.376,24.897,37.158,24.442,37.844z M26.749,30.785c0.434,1.168,0.801,2.135,1.141,3.146   c-0.001,0.001-0.799,0.734-0.799,0.735l-1.31-1.31l0.598-0.598l0.361,0.361c0.233,0.233,0.589-0.118,0.354-0.354l-0.361-0.361   l0.052-0.052c0.098-0.098,0.098-0.256,0-0.354s-0.256-0.098-0.354,0l-0.052,0.052l-0.864-0.864   c-0.012-0.012-0.031-0.009-0.045-0.018l0.73-0.73l0.302,0.302C26.606,30.843,26.665,30.811,26.749,30.785z M16.559,5.484   c0.93-2.261,3.599-4.046,5.928-3.12c4.246,1.671,3.355,9.389,2.745,13.389h-8.04C16.416,12.753,15.222,8.743,16.559,5.484z    M17.914,19.753c-0.076-1-0.261-2-0.487-3h7.668c-0.135,1-0.26,2-0.337,3H17.914z M24.702,22.753h-6.895c0.112-1,0.143-2,0.143-2   h6.75C24.676,20.753,24.677,21.753,24.702,22.753z M17.609,23.753h7.164c0.078,0,0.185,1,0.468,2h-8.51   C17.082,24.753,17.391,24.753,17.609,23.753z M10.741,44.587c0.975-9.038,4.148-13.834,5.567-17.834h9.198   c0.243,1,0.52,1.857,0.814,2.677L26.2,29.64l-0.507-0.462c-0.098-0.098-0.256-0.075-0.354,0.023s-0.098,0.267,0,0.365l0.507,0.513   l-0.805,0.808c-0.098,0.098-0.098,0.257,0,0.355c0.023,0.023,0.054,0.022,0.082,0.035c-0.036,0.09-0.035,0.191,0.037,0.264   l0.864,0.864l-0.598,0.598l-0.388-0.388c-0.098-0.098-0.256-0.098-0.354,0s-0.098,0.256,0,0.354l0.388,0.388l-0.745,0.745   c-0.098,0.098-0.098,0.256,0,0.354s0.256,0.098,0.354,0l0.745-0.745l1.303,1.303c-0.278,0.281-0.844,0.906-1.337,1.525   l-0.356-0.356l0.778-0.778c0.098-0.098,0.098-0.256,0-0.354s-0.256-0.098-0.354,0l-0.778,0.778l-0.775-0.775   c-0.098-0.098-0.256-0.098-0.354,0s-0.098,0.256,0,0.354l0.775,0.775l-0.776,0.776l-0.358-0.358c-0.098-0.098-0.256-0.098-0.354,0   s-0.098,0.256,0,0.354l0.358,0.358l-0.775,0.775c-0.098,0.098-0.098,0.256,0,0.354s0.256,0.098,0.354,0l0.775-0.775l0.606,0.606   c-0.292,0.467-0.74,1.284-0.822,1.445l-0.915-0.916c-0.098-0.098-0.256-0.098-0.354,0s-0.098,0.256,0,0.354l1.04,1.041   c-0.034,0.072-0.062,0.146-0.095,0.218l-0.322,0.322l-0.626-0.626c-0.098-0.098-0.256-0.098-0.354,0s-0.098,0.256,0,0.354   l0.626,0.626l-0.745,0.745c-0.098,0.098-0.098,0.256,0,0.354s0.256,0.098,0.354,0l0.565-0.564   c-2.105,5.673-1.208,11.911,2.771,16.581l-0.926,0.926l-0.302-0.302c0.039-0.091,0.04-0.196-0.034-0.27s-0.179-0.074-0.27-0.034   l-0.279-0.279c-0.098-0.098-0.256-0.098-0.354,0s-0.098,0.256,0,0.354l0.255,0.255l-1.175,1.175l-0.322-0.322   c-0.098-0.098-0.256-0.098-0.354,0s-0.098,0.256,0,0.354l0.322,0.322l-0.809,0.809l-0.886-0.886   c-0.035-0.035-0.081-0.042-0.126-0.052l1.229-1.23c0.098-0.098,0.098-0.256,0-0.354s-0.256-0.098-0.354,0l-2.289,2.289L18.354,60.7   c-0.098-0.098-0.256-0.098-0.354,0s-0.098,0.256,0,0.354l0.255,0.255l-1.028,1.028c-1.921-1.536-3.13-3.892-3.968-5.701   C11.66,53.162,10.247,49.218,10.741,44.587z"></path></g></svg>