<svg height='100px' width='100px'  fill="#000000" xmlns="http://www.w3.org/2000/svg" xmlns:xlink="http://www.w3.org/1999/xlink" version="1.1" x="0px" y="0px" viewBox="0 0 90 90" enable-background="new 0 0 90 90" xml:space="preserve"><path fill="#000000" d="M73.342,36.44l-8.245,0.459l0.355-12.559l2.068-0.062l-2.785-4.509h-7.922l-3.145,4.928l2.228-0.067  l0.718,12.742l-6.811,0.379l0.662-20.532l3.203-0.098L49.46,7.606h-9.855l-8.093,9.218l4.158,0.843l1.344,20.798l-11.471,0.639  l0.728-12.9l2.051,0.062l-3.225-5.748H18.46l-2.9,5.361l1.905,0.058l0.385,13.596l-5.446,0.304L8.96,51.997l5.213,0.396  l5.679,33.909h19.14V68.338l10.275-1.063l-1.419,19.028h23.579l2.512-29.365l7.102,0.54L73.342,36.44z M22.447,27.675l1.954,0.085  l-0.219,2.952l-1.793-0.077L22.447,27.675z M22.022,31.881l1.703,0.235l-0.192,2.589l-1.567-0.068L22.022,31.881z M24.177,56.415  l-0.732,4.098l-2.863-0.333l0.479-4.126L24.177,56.415z M19.35,27.488l2.057,0.035l0.162,3.022L19.35,30.01V27.488z M19.292,34.531  l0.046-3.368l2.21,0.305l-0.131,3.155L19.292,34.531z M22.993,66.139l-2.499-0.292l0.42-3.618l2.761,0.095L22.993,66.139z   M27.256,66.649l-3.392-0.395l0.677-4.385l3.583,0.122L27.256,66.649z M28.428,60.397l-3.663,0.194l1.102-4.131l3.264,0.458  L28.428,60.397z M38.774,21.813l-0.521-4.881l3.988-0.358l0.942,5.818L38.774,21.813z M39.6,30.577l-0.608-6.528l4.341,0.133  l0.402,6.133L39.6,30.577z M44.799,30.228l-0.464-5.347l3.346,0.103l0.166,5.051L44.799,30.228z M44.785,22.393l-0.498-5.74  l3.801-0.241l0.188,5.76L44.785,22.393z M61.176,26.063l2.232-0.039v2.737l-2.41,0.582L61.176,26.063z M57.925,26.319l2.121-0.091  l0.065,3.212l-1.948,0.084L57.925,26.319z M58.659,31.047l1.849-0.255l0.061,2.992l-1.7,0.074L58.659,31.047z M62.783,79.072  l-3.425-0.099l0.176-6.009l3.554,0.479L62.783,79.072z M59.588,70.908l0.078-4.499l3.314,0.001l0.171,5.386L59.588,70.908z   M61.164,33.768l-0.142-3.423l2.398-0.332l0.05,3.655L61.164,33.768z M66.191,79.153l-2.524-0.072l0.173-4.919l2.739,0.371  L66.191,79.153z M67.359,72.016l-2.892-0.086l0.186-5.279l3.148,0.093L67.359,72.016z"></path></svg>