<?xml version="1.0" encoding="utf-8"?>
<!-- Generator: Adobe Illustrator 24.2.1, SVG Export Plug-In . SVG Version: 6.00 Build 0)  -->
<svg version="1.1" id="Layer_1" xmlns="http://www.w3.org/2000/svg" xmlns:xlink="http://www.w3.org/1999/xlink" x="0px" y="0px"
	 viewBox="0 0 100 100" enable-background="new 0 0 100 100" xml:space="preserve">
<path fill-rule="evenodd" clip-rule="evenodd" d="M7.5,48.4c4.1,0.6,8.6-2.2,11.3-5.1c2-1.7,6.3-2.9,7.2,1.3c0,2.6-2.6,3.9-4.8,3.9
	c4.9,1.1,8.3-1.8,11.6-5.1c1.6-1.7,5.5-2.3,6.2,0.9c0,3.3-3.2,4.7-7.4,4.7c3.3,1,6.2,0.5,9.5,0c0.3-4.1,1.8-5.2,3.3-5.2
	s3.4,1.8,3.3,5.2c4.6-2.3,2.7-11.3-7.2-11.3c-2.8,0-5.5,0.8-7.9,2.5c-1.1,0.6-3.3,1.8-4.5-1c0-1.8,1.4-3.6,3.3-3.1
	c-1.5-1.1-3.2-1.6-4.9-1.6c-3.3-0.1-6.6,1.7-9.4,4.7C14.5,41.3,12.1,47.3,7.5,48.4L7.5,48.4z M92.5,48.4c-4.1,0.6-8.6-2.2-11.3-5.1
	c-2-1.7-6.3-2.9-7.2,1.3c0,2.6,2.6,3.9,4.8,3.9c-4.9,1.1-8.3-1.8-11.6-5.1c-1.6-1.7-5.5-2.3-6.2,0.9c0,3.3,3.2,4.7,7.4,4.7
	c-3.3,1-6.2,0.5-9.5,0c-0.3-4.1-1.8-5.2-3.3-5.2s-3.4,1.8-3.3,5.2c-4.6-2.3-2.7-11.3,7.2-11.3c2.8,0,5.5,0.8,7.9,2.5
	c1.1,0.6,3.3,1.8,4.5-1c0-1.8-1.4-3.6-3.3-3.1c1.5-1.1,3.2-1.6,4.9-1.6c3.3-0.1,6.6,1.7,9.4,4.7C85.5,41.3,87.9,47.3,92.5,48.4
	L92.5,48.4z M83,60.8c-2.7,3-6.1,4.7-9.4,4.7c-1.7,0-3.4-0.5-4.9-1.6c1.9,0.5,3.3-1.2,3.3-3.1c-1.2-2.8-3.4-1.7-4.5-1
	c-2.4,1.7-5.2,2.5-7.9,2.5c-10,0-11.8-8.9-7.2-11.3c-0.1,3.3,1.8,5.2,3.3,5.2s3-1.1,3.3-5.2c3.3-0.5,6.3-1,9.5,0
	c-4.3,0-7.4,1.4-7.4,4.7c0.8,3.2,4.7,2.6,6.2,0.9c3.3-3.3,6.7-6.2,11.6-5.1c-2.2,0-4.8,1.3-4.8,3.9c0.9,4.1,5.2,3,7.2,1.3
	c2.7-2.9,7.1-5.7,11.3-5.1C85.9,54.9,85.5,58.7,83,60.8L83,60.8z M17,60.8c2.7,3,6.1,4.7,9.4,4.7c1.7,0,3.4-0.5,4.9-1.6
	c-1.9,0.5-3.3-1.2-3.3-3.1c1.2-2.8,3.4-1.7,4.5-1c2.4,1.7,5.2,2.5,7.9,2.5c10,0,11.8-8.9,7.2-11.3c0.1,3.3-1.8,5.2-3.3,5.2
	s-3-1.1-3.3-5.2c-3.3-0.5-6.3-1-9.5,0c4.3,0,7.4,1.4,7.4,4.7c-0.8,3.2-4.7,2.6-6.2,0.9c-3.3-3.3-6.7-6.2-11.6-5.1
	c2.2,0,4.8,1.3,4.8,3.9c-0.9,4.1-5.2,3-7.2,1.3C16,53.8,11.6,51,7.4,51.6C14.1,54.9,14.5,58.7,17,60.8z"/>
</svg>
