<svg height='100px' width='100px'  fill="#000000" xmlns="http://www.w3.org/2000/svg" xmlns:xlink="http://www.w3.org/1999/xlink" version="1.1" x="0px" y="0px" viewBox="0 0 100 100" style="enable-background:new 0 0 100 100;" xml:space="preserve"><path d="M84.3,50c-0.1-0.1-2.4-2.8-6.1-5.5c-2.1-1.5-4.2-2.7-6.3-3.5c0.9-2.1,1.5-4.4,1.9-6.9c0.7-4.5,0.4-8.1,0.4-8.2l-0.1,0l0-0.1  c-0.2,0-3.7-0.3-8.2,0.4c-2.6,0.4-4.9,1.1-6.9,1.9c-0.8-2.1-2-4.2-3.5-6.3c-2.7-3.7-5.4-6-5.5-6.1l0,0l0,0c-0.1,0.1-2.8,2.4-5.5,6.1  c-1.5,2.1-2.7,4.2-3.5,6.3c-2.1-0.9-4.4-1.5-6.9-1.9c-4.5-0.7-8.1-0.4-8.2-0.4l0,0.1l-0.1,0c0,0.2-0.3,3.7,0.4,8.2  c0.4,2.6,1.1,4.9,1.9,6.9c-2.1,0.8-4.2,2-6.3,3.5c-3.7,2.7-6,5.4-6.1,5.5l0,0l0,0c0.1,0.1,2.4,2.8,6.1,5.5c2.1,1.5,4.2,2.7,6.3,3.5  c-0.9,2.1-1.5,4.4-1.9,6.9c-0.7,4.5-0.4,8.1-0.4,8.2l0.1,0l0,0.1c0.2,0,3.7,0.3,8.2-0.4c2.6-0.4,4.9-1.1,6.9-1.9  c0.8,2.1,2,4.2,3.5,6.3c2.7,3.7,5.4,6,5.5,6.1l0,0l0,0c0.1-0.1,2.8-2.4,5.5-6.1c1.5-2.1,2.7-4.2,3.5-6.3c2.1,0.9,4.4,1.5,6.9,1.9  c4.5,0.7,8.1,0.4,8.2,0.4l0-0.1l0.1,0c0-0.2,0.3-3.7-0.4-8.2c-0.4-2.6-1.1-4.9-1.9-6.9c2.1-0.8,4.2-2,6.3-3.5  C81.8,52.9,84.2,50.1,84.3,50L84.3,50L84.3,50z M59.7,29.8c2.3-1,4.6-1.5,6.6-1.8c2.6-0.4,4.8-0.5,6.3-0.5c0,2.6-0.2,8-2.3,12.8  c-2.2-0.7-4.4-1-6.4-0.8c-1.5,0.1-2.9,0.4-4.2,0.9c0.5-1.4,0.8-2.8,0.9-4.2C60.7,34.1,60.4,32,59.7,29.8z M63.9,41.3  c1.9-0.1,3.7,0.1,5.5,0.7c-0.9,1.6-2,3.1-3.4,4.3c-1.3,1.1-2.8,1.9-4.4,2.5c-0.2-2.3-1.2-4.4-2.5-6.1C60.6,41.9,62.2,41.4,63.9,41.3  z M50,59.8c-5.4,0-9.8-4.4-9.8-9.8s4.4-9.8,9.8-9.8s9.8,4.4,9.8,9.8S55.4,59.8,50,59.8z M58.7,36.1c-0.1,1.7-0.6,3.3-1.4,4.9  c-1.7-1.4-3.8-2.3-6.1-2.5c0.6-1.7,1.4-3.1,2.5-4.4c1.2-1.4,2.7-2.5,4.3-3.4C58.6,32.3,58.8,34.2,58.7,36.1z M45.9,22.9  c1.5-2.1,3.1-3.7,4.1-4.8c1.9,1.8,5.5,5.8,7.4,10.7c-2,1.1-3.8,2.4-5.1,4c-1,1.1-1.7,2.3-2.3,3.7c-0.6-1.3-1.4-2.6-2.3-3.7  c-1.3-1.6-3.1-2.9-5.1-4C43.5,26.6,44.7,24.5,45.9,22.9z M42,30.6c1.6,0.9,3.1,2,4.3,3.4c1.1,1.3,1.9,2.8,2.5,4.4  c-2.3,0.2-4.4,1.2-6.1,2.5c-0.8-1.6-1.2-3.2-1.4-4.9C41.2,34.2,41.4,32.3,42,30.6z M41,42.7c-1.4,1.7-2.3,3.8-2.5,6.1  c-1.7-0.6-3.1-1.4-4.4-2.5c-1.4-1.2-2.5-2.7-3.4-4.3c1.8-0.5,3.6-0.8,5.5-0.7C37.8,41.4,39.4,41.9,41,42.7z M28,33.8  c-0.4-2.6-0.5-4.8-0.5-6.3c2.6,0,8,0.2,12.8,2.3c-0.7,2.2-1,4.4-0.8,6.4c0.1,1.5,0.4,2.9,0.9,4.2c-1.4-0.5-2.8-0.8-4.2-0.9  c-2.1-0.2-4.2,0.1-6.4,0.8C28.8,38,28.3,35.7,28,33.8z M22.9,54.1c-2.1-1.5-3.7-3.1-4.8-4.1c1.8-1.9,5.8-5.5,10.7-7.4  c1.1,2,2.4,3.8,4,5.1c1.1,1,2.3,1.7,3.7,2.3c-1.3,0.6-2.6,1.4-3.7,2.3c-1.6,1.3-2.9,3.1-4,5.1C26.6,56.5,24.5,55.3,22.9,54.1z   M40.3,70.2c-2.3,1-4.6,1.5-6.6,1.8c-2.6,0.4-4.8,0.5-6.3,0.5c0-2.6,0.2-8,2.3-12.8c2.2,0.7,4.4,1,6.4,0.8c1.5-0.1,2.9-0.4,4.2-0.9  c-0.5,1.4-0.8,2.8-0.9,4.2C39.3,65.9,39.6,68,40.3,70.2z M36.1,58.7c-1.9,0.1-3.7-0.1-5.5-0.7c0.9-1.6,2-3.1,3.4-4.3  c1.3-1.1,2.8-1.9,4.4-2.5c0.2,2.3,1.2,4.4,2.5,6.1C39.4,58.1,37.8,58.6,36.1,58.7z M41.3,63.9c0.1-1.7,0.6-3.3,1.4-4.9  c1.7,1.4,3.8,2.3,6.1,2.5c-0.6,1.7-1.4,3.1-2.5,4.4c-1.2,1.4-2.7,2.5-4.3,3.4C41.4,67.7,41.2,65.8,41.3,63.9z M54.1,77.1  c-1.5,2.1-3.1,3.7-4.1,4.8c-1.9-1.8-5.5-5.8-7.4-10.7c2-1.1,3.8-2.4,5.1-4c1-1.1,1.7-2.3,2.3-3.7c0.6,1.3,1.4,2.6,2.3,3.7  c1.3,1.6,3.1,2.9,5.1,4C56.5,73.4,55.3,75.5,54.1,77.1z M58,69.4c-1.6-0.9-3.1-2-4.3-3.4c-1.1-1.3-1.9-2.8-2.5-4.4  c2.3-0.2,4.4-1.2,6.1-2.5c0.8,1.6,1.2,3.2,1.4,4.9C58.8,65.8,58.6,67.7,58,69.4z M59,57.3c1.4-1.7,2.3-3.8,2.5-6.1  c1.7,0.6,3.1,1.4,4.4,2.5c1.4,1.2,2.5,2.7,3.4,4.3c-1.8,0.5-3.6,0.8-5.5,0.7C62.2,58.6,60.6,58.1,59,57.3z M72,66.2  c0.4,2.6,0.5,4.8,0.5,6.3c-2.6,0-8-0.2-12.8-2.3c0.7-2.2,1-4.4,0.8-6.4c-0.1-1.5-0.4-2.9-0.9-4.2c1.4,0.5,2.8,0.8,4.2,0.9  c2.1,0.2,4.2-0.1,6.4-0.8C71.2,62,71.7,64.3,72,66.2z M71.1,57.4c-1.1-2-2.4-3.8-4-5.1c-1.1-1-2.3-1.7-3.7-2.3  c1.3-0.6,2.6-1.4,3.7-2.3c1.6-1.3,2.9-3.1,4-5.1c2.3,0.9,4.3,2.2,5.9,3.3c2.1,1.5,3.7,3.1,4.8,4.1C80,51.8,76,55.5,71.1,57.4z"></path></svg>