<?xml version="1.0" encoding="utf-8"?>
<!-- Generator: Adobe Illustrator 24.2.1, SVG Export Plug-In . SVG Version: 6.00 Build 0)  -->
<svg version="1.1" id="Layer_1" xmlns="http://www.w3.org/2000/svg" xmlns:xlink="http://www.w3.org/1999/xlink" x="0px" y="0px"
	 viewBox="0 0 100 100" enable-background="new 0 0 100 100" xml:space="preserve">
<path fill-rule="evenodd" clip-rule="evenodd" d="M74.7,27c1.7,1.5,4.7,5.1,5.3,9.8c-2.9-1.1-6-1.1-8.3,0c-2.4,1.2-4.5,3.3-5.9,5.7
	c1-1.7,4.8-1.9,6.6-1.7c2.5,0.3,4.6,1.8,6.4,3.9c4.6,5.1,2.4,13.2,0.4,18.3c-3.4,7.9-6.5,12.2-12.7,21.4c7.6-7.2,9-8.7,16.2-18.1
	c4.8-6.2,7.6-13.8,7.2-22.4c-0.3-6.6-2.1-13.6-7.2-18.2s-13.3-4.5-18.4-1.6C67.5,23,72.1,24.6,74.7,27L74.7,27z M48.1,92.5
	C47.5,86.4,45.6,64,35.3,70S43.3,88.9,48.1,92.5L48.1,92.5z M50.1,36.3c2.7-6.2,13.2-28.8,0-28.8C36.8,7.5,47.4,30.1,50.1,36.3
	L50.1,36.3z M52,92.5c0.7-6,2.5-28.5,12.8-22.5C75.1,76.1,56.9,88.9,52,92.5L52,92.5z M38.1,45c9.1,4.3,11.1,21.7,9.4,32.9
	c0.3-11.4-1.8-28.5-11.7-32.2c-3-1.1-6.5-1.4-9.6,0.3c-3.4,1.9-5.2,6.9-4.6,10.8c0.8,4.5,4.9,7.3,8.8,6.5c3-0.6,6.3-3.1,6.5-6.9
	c0.2-3.8-3.2-6.7-6.3-6.3c-1.1,0.1-2.4,0.6-3.2,1.6c-2.1,2.5-0.5,6.6,2.4,5.3c1.1-0.5,1.8-1.4,1.7-2.6c0.3,2.3-1,4.2-3,4
	c-1.3-0.2-2.5-1.3-2.9-2.8c-0.7-2.5,0.6-4.8,2.6-6.3c1.2-0.9,3.1-1.1,4.3-1c4.7,0.5,8.2,7,4.6,12.3c-2,2.9-5.1,4.1-7.9,4
	c-6.2-0.3-11.3-7.3-7.7-15.1C24.9,42,33.1,42.6,38.1,45L38.1,45z M62,45c5-2.4,13.2-3,16.7,4.6c3.6,7.8-1.5,14.8-7.7,15.1
	c-2.8,0.1-5.9-1-7.9-4c-3.6-5.4-0.1-11.8,4.6-12.3c1.2-0.1,3.1,0.1,4.3,1c2,1.5,3.3,3.8,2.6,6.3c-0.4,1.5-1.6,2.6-2.9,2.8
	c-2.1,0.3-3.4-1.7-3-4c-0.1,1.2,0.6,2.1,1.7,2.6c2.9,1.3,4.5-2.8,2.4-5.3c-0.8-1-2.2-1.5-3.2-1.6c-3-0.4-6.4,2.5-6.3,6.3
	c0.2,3.8,3.5,6.3,6.5,6.9c3.9,0.8,8-2,8.8-6.5C79.3,53,77.5,48,74,46.1c-3.2-1.8-6.7-1.4-9.6-0.3c-9.9,3.7-12,20.9-11.7,32.2
	C50.8,66.7,52.9,49.4,62,45L62,45z M54.2,41.1c-0.7-3.2,1.1-8.5,4.1-11C60.8,28,68,25.8,72,29.2c2.2,1.9,1.3,4.3-0.6,5.4
	c-2.7,1.7-5-0.3-6.9-0.2C60.5,34.7,55,37.2,54.2,41.1L54.2,41.1z M88.2,50c-0.4,3.1-1.3,6.6-3.1,9.6c2.5-14.4-2.9-14.4-2.3-18.7
	C83.3,37.1,89.6,38.5,88.2,50L88.2,50z M45.8,41.1c-0.8-3.9-6.3-6.4-10.3-6.6c-1.9-0.1-4.2,1.9-6.9,0.2c-1.8-1.2-2.7-3.5-0.6-5.4
	c3.9-3.5,11.2-1.3,13.7,0.8C44.6,32.6,46.4,37.9,45.8,41.1L45.8,41.1z M25.3,27c-1.7,1.5-4.7,5.1-5.3,9.8c2.9-1.1,6-1.1,8.3,0
	c2.4,1.2,4.5,3.3,5.9,5.7c-1-1.7-4.8-1.9-6.6-1.7c-2.5,0.3-4.6,1.8-6.4,3.9c-4.6,5.1-2.4,13.2-0.4,18.3c3.4,7.9,6.5,12.2,12.7,21.4
	c-7.6-7.2-9-8.7-16.2-18.1C12.5,60.1,9.7,52.5,10,44c0.3-6.6,2.1-13.6,7.2-18.2s13.3-4.5,18.4-1.6C32.5,23,27.9,24.6,25.3,27
	L25.3,27z M11.8,50c0.4,3.1,1.3,6.6,3.1,9.6c-2.5-14.4,2.9-14.4,2.3-18.7C16.7,37.1,10.4,38.5,11.8,50z"/>
</svg>
