<?xml version="1.0" encoding="utf-8"?>
<!-- Generator: Adobe Illustrator 24.2.1, SVG Export Plug-In . SVG Version: 6.00 Build 0)  -->
<svg version="1.1" id="Layer_1" xmlns="http://www.w3.org/2000/svg" xmlns:xlink="http://www.w3.org/1999/xlink" x="0px" y="0px"
	 viewBox="0 0 100 100" enable-background="new 0 0 100 100" xml:space="preserve">
<g>
	<path fill-rule="evenodd" clip-rule="evenodd" d="M67.172,22.966c-4.414-4.276-10.483-6.897-17.241-6.897
		S37.103,18.69,32.69,22.966c-4.414,4.414-7.172,10.345-7.172,16.828c0,6.621,2.759,12.552,7.172,16.828s10.483,6.897,17.241,6.897
		s12.828-2.621,17.241-6.897c4.414-4.276,7.172-10.207,7.172-16.828C74.345,33.31,71.586,27.379,67.172,22.966z M30.483,48.897
		c-0.138-0.276,0-0.69,0.414-0.828c0.276-0.138,0.69,0,0.828,0.276c0.966,2.069,2.207,4,3.862,5.655
		c1.517,1.517,3.31,2.897,5.379,3.862c0.414,0.276,0.552,0.552,0.276,0.966c-0.138,0.276-0.414,0.414-0.828,0.276
		c-2.207-1.103-4.138-2.621-5.793-4.276C32.966,53.172,31.586,51.103,30.483,48.897z"/>
	<path d="M15.172,53.448c3.586,0,6.897,1.241,9.517,3.448l-0.828,0.552c-2.345-1.793-5.379-2.897-8.69-2.897
		c-3.862,0-7.448,1.517-10.069,4.138c-2.483,2.483-4.138,6.069-4.138,10.069c0,3.862,1.655,7.448,4.138,9.931
		c2.621,2.621,6.207,4.138,10.069,4.138c4,0,7.448-1.517,10.069-4.138c2.621-2.483,4.138-6.069,4.138-9.931
		c0-2.483-0.552-4.69-1.655-6.621l0.828-0.69c1.241,2.207,1.793,4.69,1.793,7.31c0,4.138-1.655,8-4.414,10.621
		c-2.759,2.759-6.483,4.552-10.759,4.552c-4.138,0-8-1.793-10.759-4.552C1.655,76.759,0,72.897,0,68.759
		c0-4.276,1.655-8,4.414-10.759S11.034,53.448,15.172,53.448z"/>
	<path d="M29.379,54.276c0.69,1.103,1.655,2.069,2.621,3.034l0,0l-8.138,6.759c-0.414,0.414-0.966,0.552-1.379,0.414
		c-0.552,0-1.103-0.276-1.379-0.69c-0.414-0.414-0.552-0.966-0.552-1.379c0.138-0.552,0.414-1.103,0.828-1.379L29.379,54.276z"/>
	<path d="M10.759,80.345c0.414,0.138,0.552,0.414,0.414,0.828c-0.138,0.276-0.414,0.414-0.828,0.276
		c-1.931-0.69-3.724-1.931-5.241-3.586c-1.379-1.517-2.483-3.448-3.034-5.517c-0.138-0.276,0.138-0.69,0.414-0.69
		c0.276-0.138,0.69,0,0.828,0.414C3.724,74,4.828,75.655,6.069,77.034C7.31,78.552,8.966,79.655,10.759,80.345z"/>
	<path d="M84.828,53.448c-3.724,0-7.034,1.241-9.655,3.448L76,57.448c2.483-1.793,5.517-2.897,8.828-2.897
		c3.862,0,7.448,1.517,9.931,4.138c2.621,2.483,4.138,6.069,4.138,10.069c0,3.862-1.517,7.448-4.138,9.931
		c-2.483,2.621-6.069,4.138-9.931,4.138c-4,0-7.586-1.517-10.069-4.138c-2.621-2.483-4.138-6.069-4.138-9.931
		c0-2.483,0.552-4.69,1.517-6.621l-0.828-0.69c-1.103,2.207-1.793,4.69-1.793,7.31c0,4.138,1.793,8,4.552,10.621
		c2.759,2.759,6.483,4.552,10.759,4.552c4.138,0,7.862-1.793,10.621-4.552C98.207,76.759,100,72.897,100,68.759
		c0-4.276-1.793-8-4.552-10.759S88.966,53.448,84.828,53.448z"/>
	<path d="M70.621,54.276c-0.828,1.103-1.655,2.069-2.621,3.034l0,0l8,6.759c0.552,0.414,0.966,0.552,1.517,0.414
		c0.552,0,0.966-0.276,1.379-0.69c0.414-0.414,0.552-0.966,0.414-1.379c0-0.552-0.276-1.103-0.69-1.379L70.621,54.276z"/>
	<path d="M80.69,80.345c0.276,0.138,0.414,0.414,0.276,0.828c0,0.276-0.414,0.414-0.69,0.276c-2.069-0.69-3.862-1.931-5.379-3.586
		c-1.379-1.517-2.483-3.448-3.034-5.517c-0.138-0.276,0.138-0.69,0.414-0.69c0.414-0.138,0.69,0,0.828,0.414
		c0.552,1.931,1.517,3.586,2.759,4.966C77.241,78.552,78.759,79.655,80.69,80.345z"/>
</g>
</svg>
