<svg height='100px' width='100px'  fill="#000000" xmlns:dc="http://purl.org/dc/elements/1.1/" xmlns:cc="http://creativecommons.org/ns#" xmlns:rdf="http://www.w3.org/1999/02/22-rdf-syntax-ns#" xmlns:svg="http://www.w3.org/2000/svg" xmlns="http://www.w3.org/2000/svg" xmlns:sodipodi="http://sodipodi.sourceforge.net/DTD/sodipodi-0.dtd" xmlns:inkscape="http://www.inkscape.org/namespaces/inkscape" viewBox="0 0 16.933333 16.933334" version="1.1" enable-background="new" x="0px" y="0px"><g transform="translate(0,-280.06665)"><path style="color:#000000;font-style:normal;font-variant:normal;font-weight:normal;font-stretch:normal;font-size:medium;line-height:normal;font-family:sans-serif;font-variant-ligatures:normal;font-variant-position:normal;font-variant-caps:normal;font-variant-numeric:normal;font-variant-alternates:normal;font-feature-settings:normal;text-indent:0;text-align:start;text-decoration:none;text-decoration-line:none;text-decoration-style:solid;text-decoration-color:#000000;letter-spacing:normal;word-spacing:normal;text-transform:none;writing-mode:lr-tb;direction:ltr;text-orientation:mixed;dominant-baseline:auto;baseline-shift:baseline;text-anchor:start;white-space:normal;shape-padding:0;clip-rule:nonzero;display:inline;overflow:visible;visibility:visible;opacity:1;isolation:auto;mix-blend-mode:normal;color-interpolation:sRGB;color-interpolation-filters:linearRGB;solid-color:#000000;solid-opacity:1;vector-effect:none;fill:#000000;fill-opacity:1;fill-rule:nonzero;stroke:none;stroke-width:0.49479544;stroke-linecap:round;stroke-linejoin:round;stroke-miterlimit:4;stroke-dasharray:none;stroke-dashoffset:0;stroke-opacity:1;color-rendering:auto;image-rendering:auto;shape-rendering:auto;text-rendering:auto;enable-background:accumulate" d="m 2.9517589,281.73068 a 0.24742246,0.24742246 0 0 0 -0.1715664,0.0723 l -2.10943288,2.10944 a 0.24742246,0.24742246 0 0 0 0.1756992,0.42168 H 1.0495477 v 10.73836 a 0.26460979,0.26460979 0 0 0 0.2635514,0.26355 h 3.2835189 7.740098 3.283003 a 0.26460979,0.26460979 0 0 0 0.264067,-0.26355 V 284.3341 h 0.203089 a 0.24742246,0.24742246 0 0 0 0.175699,-0.42168 l -2.109433,-2.10944 a 0.24742246,0.24742246 0 0 0 -0.179834,-0.0723 0.24742246,0.24742246 0 0 0 -0.170014,0.0723 l -2.108917,2.10944 a 0.24742246,0.24742246 0 0 0 0.173633,0.42168 h 0.203089 v 2.26188 H 4.8622359 v -2.26188 h 0.2030888 a 0.24742246,0.24742246 0 0 0 0.1736329,-0.42168 l -2.1094331,-2.10944 a 0.24742246,0.24742246 0 0 0 -0.1777656,-0.0723 z m 0.00413,0.59789 1.4939646,1.49397 H 1.4598582 Z m 11.0215501,0 1.496034,1.49397 h -2.990001 z m -12.39873,2.02314 h 2.7543549 v 10.45517 H 1.578709 Z m 11.02155,0 h 2.753839 v 10.45517 h -2.753839 v -7.94525 z m -10.347688,0.7307 a 0.26460979,0.26460979 0 0 0 -0.2635514,0.26562 v 2.22054 a 0.26460979,0.26460979 0 0 0 0.2635514,0.26561 h 1.4045645 a 0.26460979,0.26460979 0 0 0 0.2635488,-0.26561 v -2.22054 a 0.26460979,0.26460979 0 0 0 -0.2635488,-0.26562 z m 11.023617,0 a 0.26460979,0.26460979 0 0 0 -0.263549,0.26562 v 2.22054 a 0.26460979,0.26460979 0 0 0 0.263549,0.26561 h 1.402498 a 0.26460979,0.26460979 0 0 0 0.265618,-0.26561 v -2.22054 a 0.26460979,0.26460979 0 0 0 -0.265618,-0.26562 z m -10.7580018,0.52917 h 0.8733315 v 1.69344 H 2.5181862 Z m 11.0236198,0 h 0.872812 v 1.69344 h -0.872812 z m -8.6795754,1.5136 h 7.2088624 v 7.6817 h -1.851568 v -2.68769 c 0,-0.96651 -0.7873873,-1.75183 -1.753897,-1.75183 -0.9665123,0 -1.75183,0.78532 -1.7518327,1.75183 v 2.68769 H 4.8622306 Z m -2.6096596,1.66243 a 0.26460979,0.26460979 0 0 0 -0.2635514,0.26355 v 2.22261 a 0.26460979,0.26460979 0 0 0 0.2635514,0.26355 h 1.4045645 a 0.26460979,0.26460979 0 0 0 0.2635488,-0.26355 v -2.22261 a 0.26460979,0.26460979 0 0 0 -0.2635488,-0.26355 z m 11.023617,0 a 0.26460979,0.26460979 0 0 0 -0.263549,0.26355 v 2.22261 a 0.26460979,0.26460979 0 0 0 0.263549,0.26355 h 1.402498 a 0.26460979,0.26460979 0 0 0 0.265618,-0.26355 v -2.22261 a 0.26460979,0.26460979 0 0 0 -0.265618,-0.26355 z m -10.7580018,0.52917 h 0.8733315 v 1.69343 H 2.5181862 Z m 11.0236198,0 h 0.872812 v 1.69343 h -0.872812 z m -5.076178,1.57975 c 0.682506,0 1.2247327,0.54016 1.2247297,1.22266 v 2.68769 H 7.242962 v -2.68769 c 0,-0.6825 0.5401601,-1.22266 1.222666,-1.22266 z"></path></g></svg>