<?xml version="1.0" encoding="utf-8"?>
<!-- Generator: Adobe Illustrator 24.2.1, SVG Export Plug-In . SVG Version: 6.00 Build 0)  -->
<svg version="1.1" id="Layer_1" xmlns="http://www.w3.org/2000/svg" xmlns:xlink="http://www.w3.org/1999/xlink" x="0px" y="0px"
	 viewBox="0 0 100 100" enable-background="new 0 0 100 100" xml:space="preserve">
<g>
	<path d="M56.6,7.26c-1.762,2.947-4.942,8.68-6.162,14.983c-1.202,6.207-0.495,12.985,5.418,18.17
		C69.25,52.16,60.438,66.285,57.26,70.577c-0.495,0.733-0.863,1.19-0.968,1.31c-0.037,0.042-0.002,0.003-0.02,0.025L56.27,71.91
		c-0.187,0.205-0.427,0.26-0.648,0.213c-0.118-0.025-0.225-0.08-0.312-0.158l0,0l-0.003-0.002c-0.082-0.073-0.147-0.165-0.185-0.265
		h0.002l-0.002-0.002c-0.077-0.2-0.065-0.45,0.103-0.668c0.02-0.027,0.055-0.068,0.105-0.13c0.158-0.195,0.487-0.6,0.913-1.178
		c1.035-1.55,2.623-4.353,3.4-7.832c1.133-5.072,0.51-11.575-6.2-17.668c-0.152-0.138-0.275-0.248-0.367-0.328
		c-5.053-4.432-6.555-10.085-6.248-15.742c0.488-8.998,5.585-17.98,8.123-21.923c0.672-1.043,1.182-1.697,1.477-1.965
		c0.345-0.313,0.683-0.372,0.995-0.183c0.318,0.192,0.423,0.523,0.293,0.98c-0.108,0.378-0.467,1.123-1.115,2.208L56.6,7.26z
		 M63.338,22.318c-1.075,1.613-2.263,4.095-2.008,7.123c0.258,3.062,1.993,6.71,6.797,10.657c5.337,4.383,6.595,10.075,5.898,15.715
		c-1.337,10.838-9.98,21.468-10.333,21.898c-0.155,0.188-0.338,0.29-0.493,0.322c-0.222,0.045-0.422-0.012-0.588-0.155l-0.002,0.002
		c-0.152-0.13-0.233-0.305-0.238-0.517c-0.003-0.162,0.058-0.37,0.205-0.558l0.003-0.003c0.528-0.673,17.015-21.687,2.802-33.362
		c-4.238-3.482-6.79-7.057-7.405-10.838c-0.62-3.81,0.72-7.768,4.273-11.982c0.692-0.82,1.143-1.313,1.385-1.52
		c0.543-0.467,0.938-0.407,1.195,0.145c0.063,0.135,0.077,0.28,0.048,0.417c-0.02,0.122-0.063,0.255-0.133,0.395
		c-0.192,0.392-0.68,1.17-1.405,2.258V22.318z M60.002,29.552c-0.103-1.23,0.002-2.377,0.237-3.425
		c-0.977,2.168-1.278,4.248-0.95,6.263c0.56,3.442,2.95,6.752,6.937,10.025c5.288,4.343,6.652,9.835,6.16,15.182
		c0.132-0.647,0.238-1.295,0.318-1.945c0.645-5.228-0.508-10.493-5.42-14.527C62.147,36.905,60.287,32.927,60.002,29.552z
		 M39.257,18.96c-1.7,2.168-6.227,8.218-8.68,15.068c-2.403,6.708-2.8,14.193,3.567,19.423c4.995,4.103,7.095,9.108,7.13,14.257
		c0.038,5.908-2.665,11.982-6.838,17.062c-0.227,0.277-0.523,0.308-0.792,0.198c-0.07-0.028-0.133-0.067-0.187-0.112
		c-0.028-0.023-0.055-0.05-0.078-0.078c-0.022-0.023-0.04-0.047-0.057-0.072c-0.02-0.028-0.037-0.058-0.05-0.088
		c-0.112-0.22-0.115-0.487,0.08-0.73c0.317-0.395,5.515-7.062,4.943-14.87c-0.292-3.99-2.108-8.292-6.898-12.227
		c-5.24-4.305-6.257-10.11-5.25-15.977c1.71-9.958,9.315-20.078,11.687-23.017c0.423-0.525,0.77-0.813,1.005-0.913
		c0.333-0.143,0.622-0.092,0.852,0.128l0.015,0.013c0.185,0.185,0.255,0.432,0.203,0.722c-0.048,0.272-0.262,0.713-0.65,1.208
		L39.257,18.96z M33.3,54.478c-5.233-4.298-6.297-9.925-5.4-15.508c-0.173,0.69-0.323,1.382-0.442,2.072
		c-0.932,5.432-0.01,10.792,4.782,14.727c5.122,4.207,7.067,8.845,7.382,13.158c0.057,0.762,0.06,1.515,0.022,2.252
		c0.205-1.157,0.308-2.315,0.3-3.465c-0.032-4.767-1.99-9.412-6.645-13.237L33.3,54.478z M41.967,28.188
		c-0.968,1.185-2.918,3.953-3.12,7.64c-0.203,3.708,1.365,8.378,7.468,13.392c5.332,4.38,6.348,11.08,5.33,18.063
		c-1.912,13.13-11.072,27.323-11.848,28.413c-0.145,0.203-0.33,0.303-0.513,0.33c-0.195,0.028-0.368-0.022-0.515-0.13
		c-0.115-0.085-0.197-0.197-0.243-0.325c-0.065-0.177-0.06-0.422,0.042-0.622c0.05-0.098,0.125-0.238,0.23-0.433
		c2.122-3.943,16.567-30.797,3.095-41.863c-7.008-5.757-8.025-11.507-6.945-16.168c1.07-4.62,4.215-8.123,5.575-9.5
		c0.362-0.367,0.733-0.583,0.995-0.642c0.247-0.053,0.473-0.01,0.663,0.128c0.228,0.167,0.34,0.408,0.308,0.718
		c-0.025,0.243-0.182,0.587-0.52,1L41.967,28.188z M37.518,35.76c0.078-1.44,0.395-2.748,0.817-3.897
		c-0.868,1.398-1.663,3.063-2.093,4.915c-0.982,4.238-0.018,9.498,6.492,14.847c8.407,6.905,6.742,19.302,3.49,29.185
		c1.813-4.272,3.423-9.063,4.102-13.715c0.955-6.563,0.04-12.828-4.857-16.85c-6.508-5.347-8.175-10.42-7.952-14.485H37.518z
		 M54.98,41.413c-6.12-5.368-7.063-12.272-5.985-18.675c-0.437,1.797-0.738,3.637-0.838,5.475
		c-0.287,5.287,1.105,10.562,5.795,14.673c0.163,0.143,0.292,0.258,0.387,0.343c5.477,4.973,7.15,10.227,7.088,14.862
		c0.857-5.188-0.225-11.222-6.448-16.68L54.98,41.413z M55.287,71.015C55.282,71.02,55.278,71.023,55.287,71.015L55.287,71.015z"/>
</g>
</svg>
