<svg height='100px' width='100px'  fill="#000000" xmlns="http://www.w3.org/2000/svg" xmlns:xlink="http://www.w3.org/1999/xlink" version="1.1" x="0px" y="0px" viewBox="0 0 512 512" style="enable-background:new 0 0 512 512;" xml:space="preserve"><g><path d="M490.7,217.5l-37.9-22.1c-1.4-1.7-3.4-2.9-5.7-3.3L260.7,83.8c-2.8-1.6-6.3-1.6-9,0l-189,109.9c-0.2,0.1-0.4,0.2-0.6,0.3   l-40.3,23.4c-4.3,2.5-5.8,8-3.3,12.3s8,5.8,12.3,3.3l27-15.7v203.4c0,5,4,9,9,9s9-4,9-9V206.8L256.2,102l180.5,105l-0.1,213.8   c0,5,4,9,9,9l0,0c5,0,9-4,9-9l0.1-203.3l26.9,15.7c1.4,0.8,3,1.2,4.5,1.2c3.1,0,6.1-1.6,7.8-4.5C496.4,225.5,495,220,490.7,217.5z"></path><path d="M160.2,234.4h-54.5c-5,0-9,4-9,9v45c0,5,4,9,9,9h54.5c5,0,9-4,9-9v-45C169.2,238.4,165.1,234.4,160.2,234.4z M151.2,279.4   h-36.5v-27h36.5V279.4z"></path><path d="M160.2,299.2h-54.5c-5,0-9,4-9,9v45c0,5,4,9,9,9h54.5c5,0,9-4,9-9v-45C169.2,303.2,165.1,299.2,160.2,299.2z M151.2,344.2   h-36.5v-27h36.5V344.2z"></path><path d="M160.2,363.9h-54.5c-5,0-9,4-9,9v45c0,5,4,9,9,9h54.5c5,0,9-4,9-9v-45C169.2,367.9,165.1,363.9,160.2,363.9z M151.2,408.9   h-36.5v-27h36.5V408.9z"></path><path d="M242.4,299.2h-54.5c-5,0-9,4-9,9v45c0,5,4,9,9,9h54.5c5,0,9-4,9-9v-45C251.4,303.2,247.4,299.2,242.4,299.2z M233.4,344.2   h-36.5v-27h36.5V344.2z"></path><path d="M242.4,363.9h-54.5c-5,0-9,4-9,9v45c0,5,4,9,9,9h54.5c5,0,9-4,9-9v-45C251.4,367.9,247.4,363.9,242.4,363.9z M233.4,408.9   h-36.5v-27h36.5V408.9z"></path><path d="M324.6,234.4h-54.5c-5,0-9,4-9,9v45c0,5,4,9,9,9h54.5c5,0,9-4,9-9v-45C333.6,238.4,329.5,234.4,324.6,234.4z M315.6,279.4   h-36.5v-27h36.5V279.4L315.6,279.4z"></path><path d="M324.6,299.2h-54.5c-5,0-9,4-9,9v45c0,5,4,9,9,9h54.5c5,0,9-4,9-9v-45C333.6,303.2,329.5,299.2,324.6,299.2z M315.6,344.2   h-36.5v-27h36.5V344.2L315.6,344.2z"></path><path d="M324.6,363.9h-54.5c-5,0-9,4-9,9v45c0,5,4,9,9,9h54.5c5,0,9-4,9-9v-45C333.6,367.9,329.5,363.9,324.6,363.9z M315.6,408.9   h-36.5v-27h36.5V408.9L315.6,408.9z"></path><path d="M406.8,363.9h-54.5c-5,0-9,4-9,9v45c0,5,4,9,9,9h54.5c5,0,9-4,9-9v-45C415.8,367.9,411.7,363.9,406.8,363.9z M397.8,408.9   h-36.5v-27h36.5V408.9z"></path></g></svg>