<?xml version="1.0" encoding="utf-8"?>
<!-- Generator: Adobe Illustrator 24.2.1, SVG Export Plug-In . SVG Version: 6.00 Build 0)  -->
<svg version="1.1" id="Layer_1" xmlns="http://www.w3.org/2000/svg" xmlns:xlink="http://www.w3.org/1999/xlink" x="0px" y="0px"
	 viewBox="0 0 100 100" enable-background="new 0 0 100 100" xml:space="preserve">
<path d="M41.048,89.002l0.019-8.909l5-63.093v-6c0-0.553-0.447-1-1-1H15.006c-0.266,0-0.52,0.105-0.707,0.293
	S14.006,10.735,14.006,11l0.004,6.079l4.996,63.013V89c0,0.553,0.447,1,1,1h20.042C40.6,90,41.047,89.554,41.048,89.002z
	 M20.93,79.05l-4.848-61.112H43.99L39.144,79.05H20.93z M44.068,12l0.002,3.938H16.007L16.006,12H44.068z M26.891,88
	c0.35-1.417,1.623-2.476,3.146-2.476s2.797,1.058,3.146,2.476H26.891z M35.209,88c-0.378-2.526-2.542-4.476-5.172-4.476
	s-4.793,1.95-5.172,4.476h-3.86v-6.95h18.059L39.05,88H35.209z"/>
<path d="M39.399,35.007c-1.136-1.134-2.853-1.336-4.196-0.605l-5.75-5.75c0.73-1.342,0.528-3.062-0.605-4.196
	c-1.379-1.379-3.624-1.379-5.005,0c-0.517,0.517-0.855,1.183-0.979,1.893c-0.71,0.12-1.37,0.458-1.897,0.984
	c-1.38,1.381-1.379,3.626,0,5.005c1.101,1.102,2.902,1.323,4.215,0.6l5.739,5.738c-0.287,0.518-0.439,1.103-0.439,1.711
	c0,0.945,0.368,1.834,1.037,2.503c0.689,0.689,1.596,1.034,2.502,1.034s1.812-0.345,2.504-1.035
	c0.525-0.525,0.861-1.184,0.983-1.892c0.709-0.121,1.367-0.458,1.893-0.984C40.779,38.632,40.779,36.387,39.399,35.007z
	 M37.985,38.598c-0.346,0.346-0.822,0.501-1.312,0.432c-0.31-0.05-0.628,0.061-0.851,0.282c-0.224,0.223-0.328,0.538-0.282,0.851
	c0.07,0.488-0.087,0.967-0.432,1.312c-0.6,0.599-1.577,0.6-2.177,0c-0.291-0.291-0.451-0.678-0.451-1.089s0.16-0.797,0.451-1.088
	l0.013-0.013c0.188-0.188,0.293-0.441,0.293-0.707s-0.105-0.52-0.293-0.707l-6.961-6.96c-0.188-0.188-0.448-0.287-0.713-0.287
	c-0.001,0-0.001,0-0.001,0c-0.265,0-0.525,0.111-0.713,0.299c-0.582,0.582-1.595,0.582-2.177,0c-0.6-0.6-0.6-1.576-0.001-2.176
	c0.347-0.346,0.824-0.5,1.313-0.433c0.312,0.051,0.629-0.06,0.851-0.282c0.224-0.224,0.328-0.539,0.282-0.851
	c-0.07-0.489,0.087-0.967,0.432-1.312c0.598-0.6,1.575-0.601,2.177,0c0.6,0.601,0.6,1.577,0,2.177c-0.391,0.391-0.391,1.023,0,1.414
	l6.961,6.961c0.391,0.391,1.023,0.391,1.414,0c0.601-0.601,1.578-0.599,2.177,0C38.585,37.021,38.585,37.997,37.985,38.598z"/>
<path d="M80.323,24.491c-0.944-0.673-1.787-1.175-2.53-1.617c-1.95-1.162-2.826-1.709-2.941-3.624
	c1.174-0.117,2.098-1.099,2.098-2.303v-4.621c0-1.282-1.044-2.326-2.326-2.326H61.477c-1.282,0-2.326,1.044-2.326,2.326v4.621
	c0,1.282,1.044,2.326,2.326,2.326h0.116c-0.138,1.824-0.967,2.313-2.903,3.41c-0.764,0.433-1.63,0.923-2.617,1.597
	c-3.95,2.693-6.216,6.592-6.216,10.694V86.52c0,1.919,1.896,3.479,4.229,3.479h27.931c2.332,0,4.229-1.561,4.229-3.479V34.975
	C86.244,30.991,84.086,27.171,80.323,24.491z M61.15,16.947v-4.621c0-0.18,0.146-0.326,0.326-0.326h13.147
	c0.18,0,0.326,0.146,0.326,0.326v4.621c0,0.18-0.146,0.326-0.326,0.326H61.477C61.297,17.273,61.15,17.127,61.15,16.947z
	 M84.244,66.88H51.856V39.167h32.388V66.88z M82.016,88H54.085c-1.208,0-2.229-0.678-2.229-1.479V68.88h32.388v17.641
	C84.244,87.322,83.224,88,82.016,88z M84.244,37.167H51.856v-2.192c0-3.432,1.947-6.727,5.343-9.042
	c0.919-0.627,1.746-1.096,2.477-1.509c2.156-1.222,3.749-2.126,3.927-5.15h9.257c0.158,3.048,1.815,4.072,3.91,5.318
	c0.71,0.424,1.516,0.903,2.394,1.528c3.276,2.333,5.081,5.478,5.081,8.854L84.244,37.167L84.244,37.167z"/>
<path d="M61.45,57.229c0,3.639,2.961,6.6,6.6,6.6c3.64,0,6.601-2.961,6.601-6.6s-2.961-6.6-6.601-6.6
	C64.411,50.629,61.45,53.59,61.45,57.229z M68.05,52.629c2.537,0,4.601,2.063,4.601,4.6s-2.063,4.6-4.601,4.6
	c-2.536,0-4.6-2.063-4.6-4.6S65.514,52.629,68.05,52.629z"/>
<path d="M58.77,54.868c1.792,0,3.25-1.458,3.25-3.25s-1.458-3.25-3.25-3.25s-3.25,1.458-3.25,3.25S56.978,54.868,58.77,54.868z
	 M58.77,50.368c0.689,0,1.25,0.561,1.25,1.25s-0.561,1.25-1.25,1.25s-1.25-0.561-1.25-1.25S58.08,50.368,58.77,50.368z"/>
<path d="M74.081,51.618c0,1.792,1.458,3.25,3.25,3.25s3.25-1.458,3.25-3.25s-1.458-3.25-3.25-3.25S74.081,49.826,74.081,51.618z
	 M77.331,50.368c0.689,0,1.25,0.561,1.25,1.25s-0.561,1.25-1.25,1.25s-1.25-0.561-1.25-1.25S76.642,50.368,77.331,50.368z"/>
<path d="M64.477,49.859c0.157,0,0.315-0.014,0.475-0.041c0.884-0.151,1.661-0.725,2.135-1.573c0.44-0.79,0.593-1.754,0.428-2.713
	c-0.354-2.061-2.078-3.495-3.845-3.188c-0.884,0.151-1.661,0.725-2.134,1.573c-0.44,0.79-0.593,1.754-0.428,2.713
	C61.429,48.506,62.886,49.859,64.477,49.859z M63.282,44.892c0.104-0.187,0.336-0.509,0.725-0.576
	c0.048-0.008,0.095-0.012,0.143-0.012c0.623,0,1.241,0.678,1.394,1.566c0.086,0.503,0.012,1.014-0.204,1.401
	c-0.104,0.187-0.337,0.509-0.726,0.576c-0.667,0.116-1.371-0.598-1.535-1.555C62.992,45.789,63.066,45.278,63.282,44.892z"/>
<path d="M70.729,49.707c0.269,0.082,0.547,0.123,0.826,0.123c0.613,0,1.235-0.194,1.787-0.568c0.749-0.508,1.317-1.301,1.602-2.231
	c0.61-1.999-0.287-4.052-2.001-4.575c-1.714-0.524-3.604,0.679-4.215,2.678c-0.284,0.931-0.255,1.905,0.082,2.745
	C69.172,48.779,69.871,49.446,70.729,49.707z M70.64,45.717c0.248-0.812,0.881-1.386,1.469-1.386c0.084,0,0.168,0.012,0.25,0.036
	c0.647,0.198,0.956,1.15,0.673,2.079c-0.149,0.488-0.445,0.911-0.812,1.16c-0.178,0.119-0.531,0.304-0.907,0.188
	c-0.378-0.114-0.567-0.464-0.647-0.662C70.5,46.721,70.491,46.205,70.64,45.717z"/>
</svg>
