<svg height='100px' width='100px'  fill="#000000" xmlns="http://www.w3.org/2000/svg" xmlns:xlink="http://www.w3.org/1999/xlink" xml:space="preserve" style="shape-rendering:geometricPrecision;text-rendering:geometricPrecision;image-rendering:optimizeQuality;" viewBox="0 0 21.1544 19.5235" x="0px" y="0px" fill-rule="evenodd" clip-rule="evenodd"><defs><style type="text/css">
   
    .fil0 {fill:#000000}
    .fil1 {fill:#000000;fill-rule:nonzero}
   
  </style></defs><g><g><path class="fil0" d="M10.6335 3.78498c-3.60968,-0.0300999 -6.63627,2.80689 -6.83797,6.41017 -0.217299,3.88068 2.89959,7.17607 6.78557,7.17447 3.90288,-0.00129999 7.02397,-3.33108 6.77457,-7.23137 -0.226199,-3.53498 -3.17648,-6.32337 -6.72217,-6.35327zm5.93827 8.19506l-3.66388 -1.06009c0.0285999,-0.196299 0.0325998,-0.395498 0.0117999,-0.592697l3.70298 -0.913796c0.162099,0.848796 0.144699,1.72479 -0.0508998,2.56659zm-1.50309 2.81089l-2.64369 -2.75079c0.125399,-0.158199 0.227799,-0.328998 0.306899,-0.507798l3.66418 1.06009c-0.274899,0.797896 -0.717797,1.54949 -1.32739,2.19849zm-2.70879 1.68039l-0.913796 -3.70338c0.181899,-0.0718997 0.356598,-0.167399 0.519598,-0.286399l2.64369 2.75079c-0.672697,0.583397 -1.44129,0.995995 -2.24949,1.23899zm-3.68688 -4.50568l-2.75079 2.64359c-0.583397,-0.672697 -0.995995,-1.44119 -1.23899,-2.24939l3.70338 -0.913896c0.0716997,0.181899 0.167299,0.356598 0.286399,0.519698zm0.441398 0.459198c0.158199,0.125499 0.328998,0.227799 0.507798,0.306899l-1.06009 3.66418c-0.797996,-0.274899 -1.54959,-0.717697 -2.19849,-1.32729l2.75079 -2.64379zm0.222699 -0.655697c-0.657297,-0.683897 -0.635597,-1.77489 0.0481998,-2.43219 0.683897,-0.657197 1.77499,-0.635597 2.43219,0.0482998 0.657197,0.683897 0.635597,1.77489 -0.0482998,2.43219 -0.683797,0.657197 -1.77489,0.635497 -2.43209,-0.0482998zm-3.25128 -5.40567l2.64369 2.75079c-0.125399,0.158199 -0.227799,0.328998 -0.306799,0.507798l-3.66418 -1.06009c0.274899,-0.797896 0.717697,-1.54949 1.32729,-2.19849zm2.70879 -1.68039l0.913896 3.70338c-0.181999,0.0718997 -0.356598,0.167299 -0.519598,0.286399l-2.64379 -2.75079c0.672697,-0.583397 1.44129,-0.996095 2.24949,-1.23899zm3.68698 4.50568l2.75079 -2.64369c0.583397,0.672697 0.995995,1.44119 1.23899,2.24939l-3.70338 0.913896c-0.0717997,-0.181799 -0.167299,-0.356598 -0.286399,-0.519598zm-0.441398 -0.459298c-0.158199,-0.125399 -0.328998,-0.227799 -0.507898,-0.306799l1.06019 -3.66418c0.797996,0.274899 1.54949,0.717697 2.19849,1.32719l-2.75079 2.64379zm-0.0600997 -4.14678l-1.06009 3.66388c-0.196299,-0.0285999 -0.395498,-0.0325998 -0.592697,-0.0116999l-0.913796 -3.70308c0.848896,-0.162099 1.72479,-0.144699 2.56659,0.0508998zm-7.39727 4.59168l3.66388 1.06009c-0.0285999,0.196299 -0.0325998,0.395498 -0.0117999,0.592697l-3.70308 0.913796c-0.162099,-0.848796 -0.144699,-1.72479 0.0509998,-2.56659zm4.59168 7.39737l1.06009 -3.66388c0.196199,0.0284999 0.395398,0.0325998 0.592597,0.0116999l0.913796 3.70308c-0.848796,0.162099 -1.72479,0.144699 -2.56649,-0.0508998z"></path><path class="fil0" d="M11.0268 9.68615c-0.491398,-0.247999 -1.09279,-0.0499998 -1.34079,0.441298 -0.247999,0.491398 -0.0499998,1.09279 0.441398,1.34079 0.491298,0.247999 1.09279,0.0499998 1.34069,-0.441298 0.247999,-0.491398 0.0499998,-1.09279 -0.441298,-1.34079zm-0.612397 1.21329c-0.177699,-0.0895996 -0.249299,-0.307199 -0.159599,-0.484898 0.0896996,-0.177699 0.307199,-0.249299 0.484898,-0.159599 0.177699,0.0895996 0.249399,0.307199 0.159699,0.484898 -0.0896996,0.177699 -0.307299,0.249299 -0.484998,0.159599z"></path><path class="fil1" d="M10.5772 9.99995e-005c5.84107,0 10.5772,4.73608 10.5772,10.5772 0,3.48508 -1.08579,8.02496 -4.28688,8.50386 -4.67928,0.699997 -10.2931,0.642097 -13.4341,-0.703997 -2.63079,-1.12739 -3.43338,-4.71248 -3.43338,-7.79986 0,-5.84107 4.73618,-10.5772 10.5772,-10.5772zm0 3.48038c-3.91988,0 -7.09677,3.17698 -7.09677,7.09677 0,3.91978 3.17688,7.09677 7.09677,7.09677 3.91978,0 7.09667,-3.17698 7.09667,-7.09677 0,-3.91978 -3.17688,-7.09677 -7.09667,-7.09677z"></path></g></g></svg>