<?xml version="1.0" encoding="utf-8"?>
<!-- Generator: Adobe Illustrator 24.2.1, SVG Export Plug-In . SVG Version: 6.00 Build 0)  -->
<svg version="1.1" id="Layer_1" xmlns="http://www.w3.org/2000/svg" xmlns:xlink="http://www.w3.org/1999/xlink" x="0px" y="0px"
	 viewBox="0 0 100 100" enable-background="new 0 0 100 100" xml:space="preserve">
<g>
	<path d="M38.519,67.664c-0.232,0.94-1.184,1.514-2.124,1.282c-3.65-1.355-3.833,3.04-1.965,3.979
		c0.574,0.293,0.427,0.208,1.001,0.464h43.225c2.673-2.808-0.171-7.91-3.711-6.14c-1.001,0.5-2.209-0.061-2.478-1.147
		c-0.61-2.405-2.722-4.321-5.273-4.175c0.842,1.685,0.952,2.698,0.952,2.698c0.452,2.271-3.003,2.954-3.442,0.684
		c0-5.737-9.277-10.51-13.721-3.833c-0.354,0.537-0.964,0.818-1.562,0.781c-6.189-0.049-3.369,6.738-5.774,7.373
		c-2.625,0.696-2.563-3.223-2.185-4.626c-1.44,0.122-2.576,1.27-2.917,2.673L38.519,67.664z M22.052,39.99
		c-0.366,0.793-1.257,1.184-2.075,0.952c-2.039-0.537-4.102,0.769-4.346,2.905c-0.11,0.964-0.977,1.66-1.941,1.55
		c-6.494-0.757-0.757,7.397,1.05,2.673c0.342-0.903,1.355-1.355,2.258-1.013c1.563,0.769,3.04,1.001,4.419-0.33
		c0.696-0.671,1.807-0.647,2.478,0.049c1.611,1.929,2.917,0.647,4.785-0.085c0.635-0.281,1.343-0.159,1.831,0.269
		c1.978,1.428,4.724,1.221,6.47-0.488c0.647-0.635,1.648-0.671,2.332-0.11c1.294,0.928,3.101,0.842,4.297-0.22
		c1.697-1.526,2.515,0.598,3.418,1.099c4.053,2.271,3.601-5.469,0.049-3.662c-0.854,0.439-1.917,0.11-2.356-0.757
		c-0.854-2.075-2.686-3.455-4.932-2.319c-0.806,0.403-1.77,0.134-2.246-0.598c-0.989-1.355-2.478-2.063-4.15-2.063
		c0.342,1.233,0.208,2.588-0.122,3.809c-0.598,2.222-3.979,1.306-3.381-0.916c1.343-4.895-6.018-4.7-7.837-0.732L22.052,39.99z
		 M61.029,21.411l0.134-0.024c2.063-5.615,9.875-6.177,12.695-0.867c0.671,0.159,1.257,0.366,1.77,0.623
		c2.917-3.516-0.549-9.314-4.761-7.214c-1.001,0.5-2.209-0.061-2.478-1.147c-1.672-6.543-10.632-6.299-9.778-1.526
		c0.171,0.952-0.464,1.868-1.416,2.026c-0.952,0.171-1.868-0.464-2.026-1.416c-0.354-2.014-0.122-4.077,1.404-5.542
		c-3.784-4.236-10.144-3.65-13.281,1.062c-0.354,0.537-0.964,0.818-1.563,0.781c-1.074-0.012-2.173,0.305-3.076,0.903
		c1.66,0.854,2.637,2.454,3.137,4.211c0.635,2.222-2.747,3.174-3.381,0.964c-3.577-5.505-8.386-3.406-9.656,0.867
		c3.149-0.769,6.482,0.22,8.74,2.539c3.271-0.842,6.592,0.391,8.362,3.32c3.699-0.647,6.946,2.258,6.909,6.006
		c1.27,0.5,2.429,0.049,3.491-0.72c0.342-2.49,2.271-4.468,4.749-4.883h0.012L61.029,21.411z M78.033,23.718
		c1.563,4.187-2.954,8.618-6.897,6.128c-1.624,0.818-2.881,1.074-4.712,0.793c-1.453,1.819-3.857,2.588-6.079,1.941
		c0.024,2.307,1.074,3.955,2.954,5.2c2.417-5.53,9.595-6.75,13.733-2.576c2.93-0.745,5.957,0.427,7.568,2.991
		c10.681-1.611,5.737,16.626-2.686,9.753c-1.074,0.549-2.319,0.818-3.528,0.745c-0.378,4.126-1.978,5.92-3.772,6.995
		c2.759,1.99,5.591,5.273,5.493,8.875c2.82,1.917,3.845,5.676,2.637,8.813h3.882c7.654,0,8.301,11.328,0.757,12.268
		c0,6.812-3.955,12.622-11.292,12.622h-1.465C74.615,99.231,73.834,100,72.87,100h-3.369c-0.964,0-1.746-0.769-1.758-1.733H33.746
		C33.734,99.231,32.953,100,31.989,100h-3.369c-0.964,0-1.746-0.769-1.758-1.733h-1.477c-7.373,0-11.292-5.737-11.292-12.622
		c-7.544-0.94-6.885-12.268,0.769-12.268h15.442c-1.831-3.931,1.123-8.655,5.469-8.24c0.525-0.989,1.282-1.843,2.209-2.49
		c0.098-0.879,0.22-1.636,0.378-2.295c-3.259-4.138-12.781-2.93-15.771-10.01c-1.404,1.038-3.882,1.05-5.493,0.574
		c-0.818,0.989-1.965,1.66-3.235,1.904c-7.703,1.465-9.192-10.73-1.27-11.06c1.123-2.893,3.894-4.602,6.97-4.419
		c2.515-3.748,7.495-4.883,11.389-2.625c3.174-0.842,6.201-0.305,8.618,2.148c2.502-0.623,5.054,0.061,6.824,1.941l-1.111-6.213
		c-0.83-0.232-1.611-0.647-2.271-1.196c-2.1,1.123-4.578,1.16-6.714,0.134c-3.003,2.173-7.007,2.307-10.156,0.378
		c-6.982,5.53-14.331-6.958-5.762-10.229c-2.539-4.309,0.635-10.291,5.884-9.619c1.526-3.003,4.773-4.761,8.142-4.065l0.269,0.061
		c1.587-1.904,3.796-3.101,6.274-3.308c4.871-6.299,13.94-6.299,18.835-0.037c4.822-1.221,9.351,0.891,11.414,5.481
		c7.556-1.489,11.89,8.154,6.873,13.55L78.033,23.718z M56.976,29.944c-1.697,0.854-3.54,1.062-5.347,0.391
		c-0.708,0.977-1.697,1.721-2.832,2.124l1.404,7.825c4.919,2.075,4.382,9.277-0.793,10.571c-2.185,8.118-5.664,6.165-7.214,9.216
		c0.378,1.025,0.024,1.379,0.952,1.587c1.392-1.624,3.308-2.649,5.444-2.856c4.333-5.481,12.268-5.518,16.638-0.073
		c4.114-0.989,8.093,0.745,10.01,4.785c0.391-0.061,0.793-0.098,1.208-0.085c-0.537-2.051-3.76-5.298-5.603-6.189
		c-1.77-0.146-2.234-2.563-0.61-3.333c2.283-1.013,3.784-1.489,4.443-4.285c-1.77,2.307-3.845,2.637-5.872,4.431
		c-0.732,0.635-1.831,0.562-2.466-0.159c-0.745-0.854-2.612-4.346-2.905-4.333c-5.212,0-7.52-6.592-3.418-9.863
		c-4.675-4.175-2.49-8.826-3.015-9.692L56.976,29.944z M63.312,28.809c0.879-0.696,1.099-2.673,2.991-1.843
		c1.245,0.537,2.71,0.293,3.711-0.61c0.708-0.635,1.794-0.598,2.454,0.085c1.758,1.855,4.456-2.051-0.049-2.6
		c-0.647-0.073-1.233-0.513-1.453-1.172c-1.16-3.394-6.116-2.942-6.689,0.586c-0.11,1.038-0.964,1.782-2.014,1.624
		c-4.395-0.378-2.283,6.58,1.05,3.943V28.809z M30.243,19.458c0.964,0.061,1.697,0.891,1.636,1.855
		c-0.061,0.928-0.818,1.636-1.733,1.648c-0.244,0.952-1.233,1.526-2.185,1.257c-0.928-0.269-1.477-1.233-1.208-2.173
		c0.464-1.624,1.733-2.71,3.479-2.588L30.243,19.458z M36.627,23.035c0.061,0.964-0.684,1.794-1.648,1.855
		c-0.964,0.061-1.794-0.684-1.855-1.648c-0.085-1.379,0.195-2.698,1.099-3.76c-3.406-2.49-8.435-0.439-8.948,3.894
		c-0.11,0.964-0.989,1.648-1.953,1.538c-6.287-0.867-3.125,8.118,1.135,3.65c0.537-0.793,1.636-1.013,2.429-0.464
		c2.49,1.965,5.542,2.38,7.971,0.012c0.647-0.635,1.648-0.671,2.332-0.11c1.477,1.074,3.552,0.952,4.895-0.256
		c0.72-0.647,1.831-0.586,2.466,0.134c4.37,5.847,6.836-6.128,1.135-3.186c-1.038,0.537-2.063-0.012-2.478-1.038
		c-1.123-3.589-6.763-3.503-6.592-0.623L36.627,23.035z M51.874,9.375c2.295,0.146,2.075,3.65-0.232,3.503
		c-0.427-0.024-0.732,0.037-0.989,0.391c0.635,0.72,1.172,1.685,1.538,2.954c0.635,2.222-2.747,3.174-3.381,0.964
		c-0.415-1.428-1.099-2.38-2.698-2.283c-2.307,0.146-2.539-3.345-0.232-3.503c0.562-0.037,1.147-0.012,1.733,0.11
		C48.553,9.998,50.104,9.265,51.874,9.375z M23.09,19.263c0.903-1.465,2.185-2.637,3.723-3.406
		C24.188,14.893,22.296,16.772,23.09,19.263z M14.85,76.88c-3.467,0-3.467,5.286,0,5.286h0.989h69.812h0.952
		c3.467,0,3.467-5.286,0-5.286c-23.865,0-47.839,0-71.765,0H14.85z M17.596,85.681c0,4.871,2.38,9.058,7.776,9.058H76.08
		c5.347,0,7.776-4.236,7.776-9.058C83.856,85.681,17.596,85.681,17.596,85.681z M77.264,38.818c-0.806,0.403-1.77,0.134-2.246-0.598
		c-2.6-3.564-8.35-2.161-8.887,2.307c-0.232,1.99-1.587,1.465-2.722,1.428c-4.102,0-0.745,6.726,1.672,3.137
		c0.537-0.793,1.636-1.013,2.429-0.464c2.173,1.721,4.846,2.124,6.97,0.024c0.647-0.635,1.648-0.671,2.332-0.11
		c1.282,0.916,3.015,0.83,4.199-0.232c0.72-0.647,1.831-0.586,2.478,0.146c4.248,4.773,5.273-4.834,0.977-2.612
		c-0.854,0.452-1.917,0.11-2.368-0.745c-1.05-2.014-2.429-3.479-4.822-2.283L77.264,38.818z M69.232,49.377
		c-0.745-0.159-1.44-0.415-2.112-0.769c0.171,0.403,0.354,0.769,0.574,1.16c0.549-0.073,1.062-0.208,1.55-0.391H69.232z
		 M53.583,67.834c1.636,1.636-0.854,4.126-2.49,2.49c0,0-1.575-1.575-1.978-4.688c-0.293-2.295,3.186-2.722,3.479-0.439
		c0.244,1.892,0.989,2.649,0.989,2.649V67.834z M37.86,50.183c2.686,0.549,4.932,0.671,7.019,2.673
		c0.33-0.598,0.647-1.355,0.952-2.319c-0.476-0.208-0.928-0.488-1.331-0.806C41.119,51.477,39.044,49.475,37.86,50.183z
		 M27.765,51.306c3.516,2.551,8.74,2.722,12.207,5.627c0.708-0.757,1.489-1.16,2.38-1.648c-1.44-1.379-11.743-2.93-14.575-3.979
		L27.765,51.306z"/>
</g>
</svg>
