<svg height='100px' width='100px'  fill="#000000" xmlns="http://www.w3.org/2000/svg" xmlns:xlink="http://www.w3.org/1999/xlink" viewBox="0 0 40 40" version="1.1" x="0px" y="0px"><title>charity money donation</title><desc>Created with Sketch.</desc><g stroke="none" stroke-width="1" fill="none" fill-rule="evenodd"><path d="M23.8757606,16.8359932 C23.8757606,15.8906622 24.3373056,14 26.1834854,14 C27.414272,14 28.1903049,14.5333333 28.5115841,15.6 C28.8420295,14.5333333 29.6044799,14 30.7989351,14 C32.5906179,14 33.1474076,15.4179966 33.1474076,16.8359932 C33.1474076,17.7813243 32.5985141,18.9037721 31.4912525,19.8823529 C30.9988883,20.3174969 29.9988742,21.0233792 28.4912102,22 C26.9647268,21.056543 25.9647127,20.3506607 25.491168,19.8823529 C24.2371982,18.642251 23.8757606,17.7813243 23.8757606,16.8359932 Z" fill="#000000" fill-rule="nonzero"></path><path d="M17,15 C19.209139,15 21,13.209139 21,11 C21,8.790861 19.209139,7 17,7 C14.790861,7 13,8.790861 13,11 C13,13.209139 14.790861,15 17,15 Z M17,16 C14.2385763,16 12,13.7614237 12,11 C12,8.23857625 14.2385763,6 17,6 C19.7614237,6 22,8.23857625 22,11 C22,13.7614237 19.7614237,16 17,16 Z" fill="#000000" fill-rule="nonzero"></path><path d="M16.5,13.4771375 C15.5579915,13.3846055 15,13.0069758 15,12.2677356 C15,11.9915933 15.2238576,11.7677356 15.5,11.7677356 C15.7761424,11.7677356 16,11.9915933 16,12.2677356 C16,12.3821504 16.241408,12.5 17,12.5 C17.7564829,12.5 18,12.3376553 18,12 C18,11.6623447 17.7564829,11.5 17,11.5 C15.7564829,11.5 15,10.9956781 15,10 C15,9.09324261 15.553131,8.55418328 16.5,8.41970414 L16.5,8 C16.5,7.72385763 16.7238576,7.5 17,7.5 C17.2761424,7.5 17.5,7.72385763 17.5,8 L17.5,8.41022577 C18.0010542,8.46174359 18.3721495,8.59594123 18.6291241,8.80619899 C18.8945678,9.02338615 19,9.28218145 19,9.5 C19,9.77614237 18.7761424,10 18.5,10 C18.2312745,10 18.0120628,9.78800595 18.0004811,9.52213403 C18.0026789,9.57146372 18.0095228,9.5913137 17.9958759,9.58014773 C17.8631866,9.4715808 17.5506703,9.38634672 17,9.38634672 C16.249334,9.38634672 16,9.5714611 16,10 C16,10.3376553 16.2435171,10.5 17,10.5 C18.2435171,10.5 19,11.0043219 19,12 C19,12.8541424 18.4432992,13.3466926 17.5,13.4694653 L17.5,13.9572134 C17.5,14.2333558 17.2761424,14.4572134 17,14.4572134 C16.7238576,14.4572134 16.5,14.2333558 16.5,13.9572134 L16.5,13.4771375 Z" fill="#000000" fill-rule="nonzero"></path><path d="M35.3965596,22.3274045 C36.4416117,21.6419413 37.5107227,21.7790413 38.0975134,22.5788601 C38.6420432,23.3210758 38.562131,24.3833488 37.8370835,25.0451646 C37.4211521,25.4248225 33.6834492,27.2900519 26.1408249,30.9031827 L25.980426,30.9491482 L16.5960989,31.9993983 L16.4775738,31.9985264 L9.5878949,31.1246576 L9.58910496,22.9889374 L13.7252351,21.5109772 L13.853886,21.532706 C21.5349567,22.830021 26.3261658,23.7144258 28.2478953,24.1905489 C28.7524389,24.3155534 29.081658,24.6112453 29.1521797,25.0168182 C32.2274321,23.9377874 34.3151822,23.036694 35.3965596,22.3274045 Z M27.9275121,27.1367104 L27.7532289,27.3043692 L27.5135934,27.271828 C22.757767,26.6260121 20.0677606,26.2717882 19.9519546,26.2717882 L19.9519546,25.2717882 C20.1411768,25.2717882 22.4640529,25.577269 27.404938,26.2479028 C27.8519803,25.7964003 28.1029999,25.4469452 28.1578397,25.2362733 C28.172152,25.1812914 28.1912125,25.2067402 28.0074087,25.1612014 C26.1307583,24.696247 21.3936034,23.8211544 13.8159844,22.5404746 L10.5890002,23.6935703 L10.588026,30.2434998 L16.5441926,30.9989643 L25.7851081,29.9647643 C32.916244,26.5481856 36.8681885,24.5756103 37.1629165,24.3065857 C37.5027235,23.9964134 37.5394148,23.5086753 37.2912319,23.1703921 C37.0331275,22.8185856 36.5629263,22.7582883 35.945019,23.1635817 C34.6914786,23.9857951 32.3032999,24.9962727 28.7569579,26.2123016 C28.5552811,26.4930283 28.2788094,26.7987659 27.9275121,27.1367104 Z" fill="#000000" fill-rule="nonzero"></path><path d="M3.26250844,23.1012396 C2.98985967,23.1450261 2.80433014,23.4015476 2.84811663,23.6741964 L4.35854257,33.0792825 C4.39747627,33.321714 4.60667895,33.5 4.85221684,33.5 L9.0773425,33.5 C9.35348487,33.5 9.5773425,33.2761424 9.5773425,33 L9.5773425,22.9573772 C9.5773425,22.9389224 9.57632075,22.9204817 9.57428196,22.9021398 C9.54377517,22.6276877 9.29655716,22.429931 9.02210507,22.4604378 L3.28655348,23.0979744 C3.27450455,23.0994125 3.27450455,23.0994125 3.26250844,23.1012396 Z M8.91163021,21.4665589 C9.73498647,21.3750385 10.4766405,21.9683087 10.5681609,22.7916649 C10.5742773,22.8466906 10.5773425,22.9020127 10.5773425,22.9573772 L10.5773425,33 C10.5773425,33.8284271 9.90576962,34.5 9.0773425,34.5 L4.85221684,34.5 C4.11560316,34.5 3.48799512,33.9651419 3.37119402,33.2378474 L1.86076808,23.8327613 C1.72940859,23.014815 2.28599719,22.2452506 3.10394351,22.1138911 C3.13993182,22.1084097 3.13993182,22.1084097 3.17607862,22.1040955 L8.91163021,21.4665589 Z" fill="#000000" fill-rule="nonzero"></path><path d="M3.26250844,23.1012396 C2.98985967,23.1450261 2.80433014,23.4015476 2.84811663,23.6741964 L4.35854257,33.0792825 C4.39747627,33.321714 4.60667895,33.5 4.85221684,33.5 L9.0773425,33.5 C9.35348487,33.5 9.5773425,33.2761424 9.5773425,33 L9.5773425,22.9573772 C9.5773425,22.9389224 9.57632075,22.9204817 9.57428196,22.9021398 C9.54377517,22.6276877 9.29655716,22.429931 9.02210507,22.4604378 L3.28655348,23.0979744 C3.27450455,23.0994125 3.27450455,23.0994125 3.26250844,23.1012396 Z M8.91163021,21.4665589 C9.73498647,21.3750385 10.4766405,21.9683087 10.5681609,22.7916649 C10.5742773,22.8466906 10.5773425,22.9020127 10.5773425,22.9573772 L10.5773425,33 C10.5773425,33.8284271 9.90576962,34.5 9.0773425,34.5 L4.85221684,34.5 C4.11560316,34.5 3.48799512,33.9651419 3.37119402,33.2378474 L1.86076808,23.8327613 C1.72940859,23.014815 2.28599719,22.2452506 3.10394351,22.1138911 C3.13993182,22.1084097 3.13993182,22.1084097 3.17607862,22.1040955 L8.91163021,21.4665589 Z" fill="#000000" fill-rule="nonzero"></path><circle fill="#000000" fill-rule="nonzero" cx="6" cy="31" r="1"></circle></g></svg>