<svg height='100px' width='100px'  fill="#000000" xmlns="http://www.w3.org/2000/svg" data-name="Layer 1" viewBox="0 0 128 128" x="0px" y="0px"><title>Miscellaneous 49 expandlines</title><circle cx="15.5" cy="112" r="2"></circle><path d="M25.5,96a6,6,0,1,0,6,6A6,6,0,0,0,25.5,96Zm0,8a2,2,0,1,1,2-2A2,2,0,0,1,25.5,104Z"></path><circle cx="112.5" cy="112" r="2"></circle><path d="M102.5,96a6,6,0,1,0,6,6A6,6,0,0,0,102.5,96Zm0,8a2,2,0,1,1,2-2A2,2,0,0,1,102.5,104Z"></path><path d="M85.78,84.09a2,2,0,1,0,1.14,3.83A16.34,16.34,0,0,0,97.34,76.33a8.76,8.76,0,0,0-.18-4.08c2.59.91,5.33,2.31,6.61,4.29a4.57,4.57,0,0,1,.51,3.92A2,2,0,0,0,106.21,83a2,2,0,0,0,1.93-1.46,8.59,8.59,0,0,0-1-7.18c-3.71-5.71-13.9-7.27-14.33-7.34h-.08a40.56,40.56,0,0,0-9.76-3.82c-1.83-.54-3.55-1-5.13-1.66C73.87,60,69.22,57.9,66.5,54.79c-.2-.39-.36-.68-.44-.83-3.4-7.64-2-13.68-1.06-17.68.17-.73.32-1.38.42-1.95.3-1.67.67-4.31.8-5.33a2,2,0,0,0,.2-.47c0-.08,2.21-7.81,9.26-11.07,4.44-2.06,9.91-1.92,16.27.39l-1.46.87a43.78,43.78,0,0,0-5.34,4.05C81.35,26,78.23,28.62,73.62,27.9A5.87,5.87,0,0,1,77.33,25a2,2,0,1,0-.57-4c-5.5.79-7.82,7.23-7.92,7.5a2,2,0,0,0,1.22,2.55,15.05,15.05,0,0,0,5.05.93c5.29,0,9.14-3.24,12.62-6.18a40.17,40.17,0,0,1,4.84-3.69c1.63-1,3.26-1.93,4.87-2.81a2,2,0,0,0-.11-3.57C88.27,11.52,80.42,10.87,74,13.83a20.73,20.73,0,0,0-8.65,7.73C63.83,14.89,60.55,9.68,55.58,6,42.3-3.72,21.88,1.23,21,1.45a2,2,0,0,0-.19,3.82C25.64,7,27.18,10.55,29.13,15c.59,1.35,1.2,2.75,1.93,4.15A23.22,23.22,0,0,0,47.81,31.53c5.91.93,9.58.9,10.9-.08a2.37,2.37,0,0,0,1-1.59c1.23-9.2-11.34-14.31-11.87-14.52a2,2,0,0,0-1.48,3.72c.1,0,9,3.74,9.42,9.15a48,48,0,0,1-7.3-.62A19.47,19.47,0,0,1,34.6,17.33c-.67-1.28-1.24-2.61-1.8-3.89-1.39-3.21-2.82-6.49-5.61-9,6.58-.79,18-1.07,26,4.8,5.48,4,8.53,10.42,9.08,19-.1.77-.5,3.68-.81,5.38-.09.51-.23,1.09-.38,1.75a31.37,31.37,0,0,0-.59,14.43s0,0,0,.07c-.18,2.62-1.5,10.42-5.1,11.92a2,2,0,0,0-.55.35c-.51.45-.94.85-1.32,1.22l-.08-.05C47,59.89,41.16,64.06,39,66.74a2,2,0,0,0,.27,2.82A2,2,0,0,0,42,69.28c.17-.21,4.06-4.81,9-2.69a2.38,2.38,0,0,0-.12.59,4.48,4.48,0,0,0,0,.79c.12,1.56.41,5.22-8.59,6.05a2,2,0,0,0,.18,4h.18c5.87-.54,12.74-2.75,12.22-10.23a21.89,21.89,0,0,1,2.37-2.43c3.11-1.48,4.9-5,5.91-8.23,1.14,2.4,3.31,8,1.8,13.33a13.47,13.47,0,0,1-6,7.65,2,2,0,0,0-.49-.07c-8.27-.08-13.86,1.32-16.49,4.24a5.25,5.25,0,0,0-1.52,4,2,2,0,0,0,2,1.77,2,2,0,0,0,2-2.23,2.67,2.67,0,0,1,.52-.85c.76-.85,3.34-2.72,11.36-2.9.19,3.35.33,14.4-5.76,16a2,2,0,0,0-1.41,2.45,2,2,0,0,0,2.45,1.41c9-2.44,9-15.66,8.72-20a17.6,17.6,0,0,0,8.45-10.43,18.48,18.48,0,0,0,.64-5.71l.79,1c.48.59,1,1.19,1.52,1.81,2.65,3.1,5.4,6.31,4.73,9.84-.31,1.65-1.77,3-3.31,4.48a17.9,17.9,0,0,0-3.56,4.14c-3.16,4.27-2.36,11.91-.33,15.65,1.17,2.15,2.75,4.07,4.11,6.09,1.86,2.76,3.62,5.37,4,8.41a8.92,8.92,0,0,1-2.78,7.4,2,2,0,0,0,2.86,2.8,12.83,12.83,0,0,0,3.89-10.72c-.52-4-2.62-7.1-4.66-10.12-1.29-1.92-2.81-3.73-3.91-5.77a9.77,9.77,0,0,1-.79-2,18.58,18.58,0,0,0,2.87,1.86,18,18,0,0,1,2,1.23c2,1.45,5.59,4.16,6.74,6.9a2,2,0,0,0,2.62,1.07,2,2,0,0,0,1.07-2.62c-1.38-3.3-4.68-6.07-8-8.57a21.24,21.24,0,0,0-2.46-1.52,9.93,9.93,0,0,1-2.94-2.09,6.78,6.78,0,0,1-1.28-4.11,3.93,3.93,0,0,1,.54-2l0-.09a15,15,0,0,1,2.74-3.06c1.85-1.74,3.94-3.72,4.5-6.64,1-5.41-2.66-9.72-5.62-13.18-.5-.59-1-1.16-1.45-1.72l-.3-.38c1.12.5,2.23,1,3.3,1.37C78.1,65.95,80,66.5,81.82,67c3.59,1.06,7.31,2.16,9.95,4.17a4.16,4.16,0,0,1,1.64,4.4A12.52,12.52,0,0,1,85.78,84.09Z"></path><path d="M49.36,49.67A13.92,13.92,0,0,0,52.12,47,2,2,0,0,0,49,44.49a10,10,0,0,1-2,1.94c-2.78,2-6.08,1.67-9.9,1.27a38.41,38.41,0,0,0-5.78-.32l-.73,0c3.39-4.22,7.1-6.66,11.06-7.26,6.38-1,11.47,3.25,11.55,3.32a2,2,0,0,0,2.6-3c-.26-.22-6.47-5.46-14.69-4.24-6.13.91-11.62,5.1-16.3,12.45a2,2,0,0,0,1.87,3.06c1.58-.15,3.2-.26,4.81-.33a34.73,34.73,0,0,1,5.18.3,43.84,43.84,0,0,0,4.65.33A13.1,13.1,0,0,0,49.36,49.67Z"></path><path d="M85.9,47.7c-3.82.4-7.12.76-9.9-1.27a10,10,0,0,1-2-1.94A2,2,0,0,0,70.88,47a13.92,13.92,0,0,0,2.76,2.72,13.1,13.1,0,0,0,8,2.34,43.84,43.84,0,0,0,4.65-.33,34.54,34.54,0,0,1,5.18-.3c1.61.07,3.23.18,4.81.33a2,2,0,0,0,1.87-3.06C93.51,41.29,88,37.1,81.89,36.2c-8.24-1.22-14.44,4-14.7,4.24a2,2,0,1,0,2.61,3s5.06-4.27,11.5-3.32c4,.59,7.7,3,11.11,7.27l-.73,0A38.45,38.45,0,0,0,85.9,47.7Z"></path></svg>