<svg height='100px' width='100px'  fill="#000000" xmlns="http://www.w3.org/2000/svg" xmlns:xlink="http://www.w3.org/1999/xlink" version="1.1" x="0px" y="0px" viewBox="0 0 91 91" enable-background="new 0 0 91 91" xml:space="preserve"><g><path d="M61.365,41.421c-8.929,4.229-11.936,12.953-8.044,23.336c0.077,0.207,0.195,0.387,0.34,0.536   c-0.892,1.728-1.591,3.308-2.138,4.651c-1.844-8.666-3.596-19.911-3.706-31.661c0.061-0.014,0.122-0.003,0.185-0.01   c0.305-0.035,7.459-1.014,7.455-14.893c-0.002-7.448-3.086-16.112-3.217-16.478l-1.482-4.125L49.3,6.911   c-6.029,17.091-5.297,36.723-2.97,52.334c-0.836-0.771-1.697-1.496-2.506-2.136c-0.419-6.887-3.52-11.799-9.139-14.582   c-5.218-6.853-10.79-10.201-16.586-9.987C8.744,32.916,2.572,42.566,2.314,42.977c0,0.001-0.001,0.002-0.002,0.003   c-0.053,0.084-0.096,0.174-0.133,0.267c-0.012,0.033-0.02,0.068-0.029,0.102c-0.019,0.06-0.037,0.12-0.049,0.182   c-0.008,0.042-0.009,0.085-0.014,0.127c-0.004,0.055-0.01,0.109-0.01,0.165c0,0.047,0.006,0.093,0.012,0.14   c0.004,0.039,0.002,0.077,0.009,0.115c0.001,0.008,0.007,0.015,0.009,0.023c0.031,0.167,0.094,0.325,0.178,0.475   c0.012,0.021,0.021,0.042,0.035,0.063c0.086,0.138,0.197,0.261,0.328,0.368c0.016,0.014,0.031,0.026,0.049,0.039   c0.037,0.027,0.068,0.059,0.107,0.084c0.104,0.065,0.216,0.107,0.328,0.146c0.012,0.004,0.023,0.012,0.037,0.016   c0.152,0.049,0.309,0.078,0.465,0.078c0.021,0,0.043-0.008,0.064-0.009c0.013,0,0.023,0.005,0.036,0.005   c0.66-0.043,1.341-0.063,2.021-0.063c13.791,0,28.086,8.66,33.426,12.255c1.689,1.168,5.811,4.174,7.738,6.961   c0.096,0.138,0.214,0.248,0.34,0.345c2.324,12.76,5.383,21.782,5.668,22.605c0.223,0.646,0.827,1.052,1.475,1.052   c0.168,0,0.34-0.027,0.509-0.085c0.815-0.281,1.247-1.17,0.967-1.984c-0.049-0.141-1.577-4.653-3.29-11.802   c0.352-0.169,0.648-0.454,0.795-0.85c0.93-2.516,2.867-7.755,6.852-13.244c0.061,0.007,0.12,0.022,0.182,0.022   c0.284,0,0.572-0.077,0.83-0.24c4.025-2.533,8.783-1.216,8.858-1.192c0.827,0.241,1.69-0.23,1.935-1.056   c0.245-0.826-0.227-1.694-1.053-1.938c-0.178-0.053-3.244-0.922-6.896-0.211c3.16-3.295,7.176-6.427,12.287-8.845   c0.779-0.369,1.112-1.299,0.744-2.079c-0.369-0.778-1.299-1.111-2.078-0.743c-9.674,4.575-15.682,11.486-19.412,17.533   c-2.328-7.961,0.184-14.303,7.07-17.564c6.559-3.105,13.529-3.415,21.773-2.69c-0.487,0.745-0.949,1.474-1.369,2.241   c-2.131,3.888-3.087,8.134-3.816,11.808c-1.328,6.704-4.824,11.069-17.559,10.504c-0.863-0.029-1.59,0.632-1.627,1.492   c-0.037,0.861,0.631,1.589,1.492,1.627c0.734,0.031,1.447,0.048,2.141,0.048c11.063,0,16.836-4.085,18.615-13.063   c0.684-3.446,1.574-7.416,3.49-10.915c0.489-0.892,1.074-1.779,1.695-2.718c0.313-0.475,0.638-0.966,0.969-1.486l1.354-2.121   l-2.502-0.27C79.379,37.84,70.131,37.27,61.365,41.421z M50.744,12.781c0.782,3.027,1.59,7.021,1.592,10.6   c0.003,9.5-3.574,11.398-4.508,11.732C47.953,27.621,48.794,20.001,50.744,12.781z M18.225,35.66   c3.553-0.134,7.119,1.516,10.623,4.924c-2.398-0.496-5.062-0.758-8.008-0.758c-5.029,0-9.816,0.739-13.135,1.412   C10.058,38.771,13.762,35.839,18.225,35.66z M20.84,42.946c11.351,0,17.903,3.909,19.529,11.63   c-4.672-3.115-14.414-8.919-25.273-11.317C16.924,43.069,18.869,42.946,20.84,42.946z"></path></g></svg>