<svg height='100px' width='100px'  fill="#000000" xmlns="http://www.w3.org/2000/svg" xmlns:xlink="http://www.w3.org/1999/xlink" xml:space="preserve" version="1.1" style="shape-rendering:geometricPrecision;text-rendering:geometricPrecision;image-rendering:optimizeQuality;" viewBox="0 0 846.66 846.66" x="0px" y="0px" fill-rule="evenodd" clip-rule="evenodd"><defs><style type="text/css">
   
    .fil0 {fill:#000000}
   
  </style></defs><g><path class="fil0" d="M423.33 59.11c166.48,0 301.42,134.94 301.42,301.42 0,166.47 -134.94,301.41 -301.42,301.41 -11.56,0 -22.97,-0.67 -34.19,-1.93l207.04 -357.5 -123.5 2.17 90.44 -137.23 -211.7 0 -79.51 254.79 -10.99 34.98 95.27 0 -50.45 180.91c-108.05,-45.81 -183.83,-152.86 -183.83,-277.6 0,-166.48 134.95,-301.42 301.42,-301.42zm-129.11 370.08l74.38 -238.33 151.19 0 -90.9 137.91 126.39 -2.22 -266.99 461.01 98.65 -353.75 -94.17 0 1.45 -4.62z"></path></g></svg>