<svg height='100px' width='100px'  fill="#000000" xmlns="http://www.w3.org/2000/svg" viewBox="0 0 34 39" x="0px" y="0px"><g fill="none" fill-rule="evenodd" transform="translate(-7 -4)"><rect width="48" height="48"></rect><path fill="#000000" fill-rule="nonzero" d="M26.4125715,25.6315164 C28.0361652,26.9907575 29.0368774,29.4087975 29.0368774,32.0553876 C29.0368774,34.6483585 28.0763083,37.0219941 26.5103828,38.3954343 C27.6737709,39.1468206 29.0553142,39.5821899 30.5372171,39.5821899 C32.01912,39.5821899 33.4006634,39.1468206 34.5640514,38.3954343 C32.9981259,37.0219941 32.0375569,34.6483585 32.0375569,32.0553876 C32.0375569,29.4087975 33.038269,26.9907575 34.6618627,25.6315164 C33.4784322,24.8407488 32.0608718,24.3805012 30.5372171,24.3805012 C29.0135624,24.3805012 27.5960021,24.8407488 26.4125715,25.6315164 Z M25.6209439,26.2401113 C24.0370514,27.6337015 23.0355184,29.6890175 23.0355184,31.9813456 C23.0355184,34.3051127 24.0647116,36.3853219 25.6864402,37.7795441 C25.7038845,37.7598532 25.7230811,37.7412943 25.7440068,37.7240944 C27.1423442,36.5747285 28.0366509,34.4321462 28.0366509,32.0553876 C28.0366509,29.6773671 27.1413889,27.5338305 25.7419016,26.3849516 C25.6914279,26.3435163 25.650999,26.2941756 25.6209439,26.2401113 Z M35.4534903,26.2401113 C35.4234353,26.2941756 35.3830063,26.3435163 35.3325327,26.3849516 C33.9330454,27.5338305 33.0377834,29.6773671 33.0377834,32.0553876 C33.0377834,34.4321462 33.9320901,36.5747285 35.3304275,37.7240944 C35.3513531,37.7412943 35.3705498,37.7598532 35.387994,37.7795441 C37.0097226,36.3853219 38.0389159,34.3051127 38.0389159,31.9813456 C38.0389159,29.6890175 37.0373828,27.6337015 35.4534903,26.2401113 Z M22.075439,31.1388162 L13.6396474,39.7203296 C14.2146882,40.4589799 14.2209637,41.5250136 13.5990194,42.2760141 C12.8885606,43.1338961 11.6270009,43.2453439 10.7794332,42.5247508 L7.71712922,39.921212 C6.86886844,39.2000295 6.75640799,37.9253612 7.46927582,37.0645702 C8.08906246,36.3161752 9.1282581,36.1358454 9.94612683,36.580416 L30.9883837,6.26092719 C32.7697327,3.69420676 36.1585895,3.24569808 38.5293138,5.26126306 L39.117103,5.76099523 C41.4890933,7.77763658 41.6404397,11.2358453 39.4549363,13.4591015 L29.6719092,23.4111229 C29.9564361,23.3819817 30.2451062,23.3670553 30.5372171,23.3670553 C35.2327008,23.3670553 39.0391424,27.2238044 39.0391424,31.9813456 C39.0391424,36.7388867 35.2327008,40.5956359 30.5372171,40.5956359 C25.8417335,40.5956359 22.0352919,36.7388867 22.0352919,31.9813456 C22.0352919,31.6970762 22.0488817,31.4160229 22.075439,31.1388162 Z M22.4474148,29.324313 C23.2816707,26.7148229 25.3116047,24.6507089 27.8825404,23.7952999 L38.7462574,12.7439206 C40.5183159,10.9412511 40.3971311,8.17222139 38.4741698,6.53733984 L37.8863806,6.03760768 C35.9645675,4.40370228 33.2508333,4.76285978 31.8065731,6.84387376 L17.0914148,28.0467361 L20.6931435,31.1088881 L22.4474148,29.324313 Z M12.9004586,39.0361856 L17.8594399,33.9915417 L14.7816528,31.3748394 L10.7395693,37.1990201 L12.9004586,39.0361856 Z M18.5678658,33.2708783 L19.9847176,31.8295515 L16.5139743,28.8787619 L15.3590933,30.5428136 L18.5678658,33.2708783 Z M8.36006242,39.1448674 L11.4223664,41.7484062 C11.8468656,42.1093109 12.4775105,42.0535989 12.8328015,41.6245836 C13.190042,41.1932141 13.1339701,40.5576743 12.7082329,40.1957169 L9.64592882,37.5921781 C9.22142963,37.2312734 8.59078474,37.2869853 8.23549378,37.7160007 C7.87825327,38.1473702 7.93432519,38.78291 8.36006242,39.1448674 Z"></path></g></svg>