<svg height='100px' width='100px'  fill="#000000" xmlns="http://www.w3.org/2000/svg" xmlns:xlink="http://www.w3.org/1999/xlink" version="1.1" x="0px" y="0px" viewBox="0 0 50 50" enable-background="new 0 0 50 50" xml:space="preserve"><g><path fill-rule="evenodd" clip-rule="evenodd" d="M6.807,31.801h15.171v8.16h-1.565l-0.364-1.898H8.737l-0.365,1.898H6.807V31.801z    M32.588,29.014l4.236-3.871l0.788,0.788l-3.107,3.107l0.435,0.434l3.17-3.042l0.789,0.788l-3.044,3.171l0.434,0.435l3.107-3.107   l0.788,0.788l-3.871,4.236h-1.669l-0.474-0.473l-0.615,0.635l5.796,5.776l-1.283,1.283l-5.734-5.817l-5.685,5.817l-1.284-1.283   l5.24-5.124l-5.31-6.465l1.223-1.223l5.909,5.91l0.632-0.62l-0.473-0.474V29.014z M20.58,26.233v4.328h-2.394v-2.367   c-2.758-0.903-4.833-0.937-7.588,0.005v2.362H8.204v-4.324C12.533,24.755,16.245,24.81,20.58,26.233z M8.557,10.222h29.877v8.704   h-1.363c-5.897-7.675-21.253-7.675-27.15,0H8.557V10.222z M0,3.821v9.904h2.897v-3.503h3.296v8.704H3.098v27.253h40.795V18.926   H40.8v-8.704h3.185v2.024L50,8.773L43.985,5.3v2.025H2.897V3.821H0z"></path></g></svg>