<svg height='100px' width='100px'  fill="#000000" xmlns="http://www.w3.org/2000/svg" viewBox="0 0 64 64" x="0px" y="0px"><g><rect x="48" y="52" width="2" height="2"></rect><rect x="18" y="52" width="2" height="2"></rect><path d="M61,44H52.329l2.406-8.347a2.99,2.99,0,0,0-.522-2.584A2.787,2.787,0,0,0,52,32a3.084,3.084,0,0,0-2.962,2.2L48,37.839V35a1,1,0,0,0-1-1H39.729a3.921,3.921,0,0,0,.535-.12l7-1.916A1,1,0,0,0,48,31V24.237a5.236,5.236,0,0,0-6.1-5.165l-1.1.184c-2.32.464-4.8,2.577-4.8,4.981V31a2.98,2.98,0,0,0,1.218,2.408,3.239,3.239,0,0,0,1.681.612A.991.991,0,0,0,38,35v2.087l-3.966.881L27.813,36.15a2.853,2.853,0,0,0-2.421.294l-.422-1.687-1.94.486.8,3.221L9,45.5V20H32a1,1,0,0,0,1-1V7a1,1,0,0,0-1-1H8A1,1,0,0,0,7,7V46.43l-1.423.664a.984.984,0,0,0-.284.2l-3,3A1,1,0,0,0,2,51v4a1,1,0,0,0,1,1H13a1,1,0,0,0,1-1V50h1.026A4.948,4.948,0,0,0,14,53a5,5,0,0,0,10,0,4.948,4.948,0,0,0-1.026-3H24v5a1,1,0,0,0,1,1H43a1,1,0,0,0,1-1V50h1.026A4.948,4.948,0,0,0,44,53a5,5,0,0,0,10,0,4.948,4.948,0,0,0-1.026-3H54v5a1,1,0,0,0,1,1h4a1,1,0,0,0,1-1V50h1a1,1,0,0,0,1-1V45A1,1,0,0,0,61,44ZM9,16h2V14H9V12h2V10H9V8h2v2h2V8h2v2h2V8h2v2h2V8h2v2h2V8h2v2h2V8h2v2H29v2h2v2H29v2h2v2H29V16H27v2H25V16H23v2H21V16H19v2H17V16H15v2H13V16H11v2H9ZM50.97,34.712A1.092,1.092,0,0,1,52,34a.773.773,0,0,1,.636.3.984.984,0,0,1,.168.834L50.248,44H48.325ZM38,26.721l4-1.334V27.35l-4,1.778Zm.412,5.082a.994.994,0,0,1-.343-.517l5.337-2.372A1,1,0,0,0,44,28V24a1,1,0,0,0-1.316-.949L38,24.612v-.375c0-1.341,1.718-2.724,3.165-3.014l1.067-.178A3.236,3.236,0,0,1,46,24.237v6l-6.288,1.721A1.441,1.441,0,0,1,38.412,31.8ZM26.373,38.171A.868.868,0,0,1,26.89,38a1.017,1.017,0,0,1,.327.056l6.5,1.9a.99.99,0,0,0,.5.016L42,38.247V40.2l-7.963,1.769L26.614,39.75a.888.888,0,0,1-.509-.452l-.1-.411A.885.885,0,0,1,26.373,38.171ZM12,54H4V52h8Zm7,2a3,3,0,1,1,3-3A3,3,0,0,1,19,56Zm-6-8a1,1,0,0,0-1,1v1H5.414l1.169-1.168,13.958-6.514L23.382,48Zm11.3-2.643-1.954-3.91,1.99-1,.7,2.791,1.94-.486-.22-.879,6.964,2.08a.994.994,0,0,0,.5.018l3.148-.7-1.756,4.1L30.64,43.232a1,1,0,0,0-1.034-.151Zm.9,1.791,4.639-1.987L33.238,48h-7.62ZM30.465,54H26V50h7.132Zm5,0h-2.6l2.666-4h2.6ZM42,54H37.868l2.667-4H42Zm1-10a1,1,0,0,0-1,1v3H37.517l2.253-5.258,3.447-.766A1,1,0,0,0,44,41V37a1,1,0,0,0-1.217-.976L40,36.642V36h6v8Zm6,12a3,3,0,1,1,3-3A3,3,0,0,1,49,56Zm5-8H44V46H54Zm4,6H56V50h2Zm2-6H56V46h4Z"></path><rect x="11" y="12" width="2" height="2"></rect><rect x="13" y="10" width="2" height="2"></rect><rect x="13" y="14" width="2" height="2"></rect><rect x="15" y="12" width="2" height="2"></rect><rect x="17" y="10" width="2" height="2"></rect><rect x="17" y="14" width="2" height="2"></rect><rect x="19" y="12" width="2" height="2"></rect><rect x="21" y="10" width="2" height="2"></rect><rect x="21" y="14" width="2" height="2"></rect><rect x="23" y="12" width="2" height="2"></rect><rect x="25" y="10" width="2" height="2"></rect><rect x="25" y="14" width="2" height="2"></rect><rect x="27" y="12" width="2" height="2"></rect><rect x="11" y="22" width="13" height="2"></rect><rect x="12" y="26" width="14" height="2"></rect><rect x="50" y="24" width="10" height="2"></rect><rect x="52" y="28" width="10" height="2"></rect></g></svg>