<svg height='100px' width='100px'  fill="#000000" xmlns="http://www.w3.org/2000/svg" xmlns:xlink="http://www.w3.org/1999/xlink" version="1.1" x="0px" y="0px" viewBox="0 0 100 100" enable-background="new 0 0 100 100" xml:space="preserve"><g><path fill="#000000" d="M46.98,26.602c-1.295-4.487-7.318-22.907-19.253-24.499C27.21,2.033,26.713,2,26.234,2   c-3.845,0-6.75,2.18-7.958,5.848c-0.241,0.027-0.486,0.031-0.724,0.072c-4.593,0.789-7.336,3.949-7.338,8.454   c-0.005,8.25,8.918,18.294,23.931,21.504c-0.916,2.231-2.208,5.067-3.471,6.752c-0.245,0.326-1.123,1.203-2.139,2.22   C22.338,53.044,8.132,67.244,7.193,81.786c-3.788,0.132-6.916,3.135-7.176,6.943c-0.28,4.101,2.828,7.668,6.931,7.95   c1.521,0.11,2.984-0.245,4.295-1.018c0.806,1.094,1.735,2.518,2.771,3.527c0.294,0.285,0.688,0.811,1.098,0.811h33.094   c0.507,0,0.984-0.609,1.281-1.023c0.294-0.414,0.373-1.126,0.209-1.608c-0.102-0.3-2.127-6.147-7.239-8.898   c2.471-1.897,4.269-4.975,5.4-7.36c3.167,6.491,6.781,9.754,10.768,9.754c2.736,0,4.483-1.631,4.674-1.815   c0.421-0.409,0.58-1.027,0.411-1.59l-8.269-27.565c5.075-1.222,11.367-6.053,14.134-11.123c1.973-3.613,2.105-7.082,0.379-10.024   C65.558,31.245,50.92,27.491,46.98,26.602z M13.365,16.375c0-2.791,1.541-4.634,4.319-5.253   c-0.358,7.031,4.275,16.347,14.45,23.016C19.37,30.499,13.362,21.76,13.365,16.375z M66.812,47.26   c-2.85,5.22-9.695,9.614-13.464,9.771c-0.485,0.02-0.936,0.265-1.217,0.659c-0.283,0.396-0.366,0.901-0.228,1.366l8.461,28.206   c-0.432,0.219-1.029,0.429-1.738,0.429c-1.817,0-5.449-1.464-9.371-11.265c-0.246-0.617-0.873-1.016-1.522-0.988   c-0.667,0.025-1.244,0.469-1.443,1.104c-0.876,2.79-4.097,10.108-8.423,10.484c-0.805,0.07-1.426,0.734-1.439,1.542   c-0.013,0.808,0.586,1.935,1.388,2.03C41.932,91.094,44.458,94,45.722,97H15.765c-1.089-2-2.023-2.729-2.782-3.932   c-0.232-0.369-0.606-0.847-1.033-0.929c-0.425-0.082-0.868-0.093-1.222,0.16l-0.829,0.543c-0.804,0.554-1.766,0.785-2.735,0.721   c-2.369-0.161-4.164-2.236-4.002-4.604c0.154-2.249,2.038-4.02,4.291-4.02c0.1,0,0.2,0.001,0.269,0.005l0.861,0.074   c0.438,0.036,0.88-0.11,1.207-0.412c0.327-0.302,0.511-0.726,0.508-1.169c-0.104-13.799,14.841-28.736,20.467-34.359   c1.281-1.279,2.054-2.053,2.433-2.557c2.6-3.466,5.086-10.606,5.19-10.908c0.257-0.742-0.071-1.56-0.769-1.917   C23.864,26.645,19.662,15.264,21.069,9.436c0.386-1.6,1.571-4.285,5.165-4.285c0.344,0,0.704,0.025,1.076,0.075   C38.52,6.72,44.135,28.116,44.19,28.332c0.151,0.588,0.625,1.037,1.22,1.154c4.867,0.964,18.275,4.793,21.828,10.853   C68.39,42.303,68.244,44.631,66.812,47.26z"></path><path fill="#000000" d="M99.887,8.589c-0.248-0.356-0.63-0.596-1.06-0.66c-1.025-0.155-2.016-0.233-2.944-0.233   c-1.815,0-3.346,0.309-4.652,0.806c0.21-4.101-2.058-7.622-2.17-7.792c-0.238-0.363-0.616-0.611-1.043-0.687   c-0.427-0.076-0.867,0.028-1.215,0.288c-2.929,2.181-4.753,4.617-5.47,7.255c-3.163-3.161-7.88-3.544-8.095-3.559   c-0.437-0.029-0.86,0.117-1.179,0.412c-0.32,0.293-0.505,0.706-0.511,1.139c-0.055,4.2,1.035,7.462,3.241,9.698   c0.423,0.429,0.866,0.778,1.315,1.094c-0.354,0.252-0.594,0.644-0.648,1.089c-0.013,0.103-1.276,10.375-1.918,20.64   c-1.273,20.334,0.899,22.506,3.033,22.948c0.166,0.035,0.322-0.021,0.503,0.051c2.079,0,4.736-1.637,9.975-21.133   c2.662-9.914,4.747-19.958,4.769-20.059c0.058-0.29,0.023-0.579-0.072-0.846c5.254-1.08,7.77-6.31,8.389-9.228   C100.224,9.388,100.135,8.945,99.887,8.589z M84.172,9.365c0.214-1.853,1.242-3.638,3.059-5.324   c0.584,1.403,1.19,3.533,0.665,5.588c-0.178,0.698-0.495,1.345-0.919,1.951c-0.104,0.131-0.21,0.261-0.306,0.395   c-0.451,0.552-0.989,1.07-1.655,1.537C84.518,12.561,83.973,11.078,84.172,9.365z M74.77,7.483   c1.472,0.388,3.529,1.203,4.842,2.869c0.965,1.227,1.412,2.785,1.336,4.648c-1.085-0.186-2.651-0.677-3.916-1.958   C75.757,11.751,74.998,9.885,74.77,7.483z M77.213,57.711c-1.751-3.34-0.771-22.127,1.246-38.871   c0.818-0.204,1.689-0.306,2.604-0.306c3.095,0,5.98,1.172,7.427,1.872C85.006,36.958,79.918,55.074,77.213,57.711z M89.764,16.101   c-0.507,0-1.039-0.051-1.595-0.153c0.163-0.538,0.432-1.182,0.847-1.828c0.233-0.274,0.447-0.556,0.645-0.848   c1.237-1.389,3.324-2.566,6.837-2.413C95.654,12.919,93.71,16.101,89.764,16.101z"></path></g></svg>