<svg height='100px' width='100px'  fill="#000000" xmlns="http://www.w3.org/2000/svg" xmlns:xlink="http://www.w3.org/1999/xlink" version="1.1" x="0px" y="0px" viewBox="0 0 64 64" style="enable-background:new 0 0 64 64;" xml:space="preserve"><path d="M10,2H2v8h3v2h2v-2h3V7h2V5h-2V2z M8,8H4V4h4V8z"></path><path d="M36,2h-8v3h-2v2h2v3h8V7h2V5h-2V2z M34,8h-4V4h4V8z"></path><path d="M36,54h-8v3h-2v2h2v3h8v-3h2v-2h-2V54z M34,60h-4v-4h4V60z"></path><path d="M54,2v3h-2v2h2v3h3v2h2v-2h3V2H54z M60,8h-4V4h4V8z"></path><path d="M10,54H7v-2H5v2H2v8h8v-3h2v-2h-2V54z M8,60H4v-4h4V60z"></path><rect x="14" y="5" width="4" height="2"></rect><rect x="20" y="5" width="4" height="2"></rect><rect x="40" y="5" width="4" height="2"></rect><rect x="46" y="5" width="4" height="2"></rect><rect x="14" y="57" width="4" height="2"></rect><rect x="20" y="57" width="4" height="2"></rect><rect x="40" y="57" width="4" height="2"></rect><rect x="46" y="57" width="4" height="2"></rect><rect x="5" y="14" width="2" height="4"></rect><rect x="5" y="20" width="2" height="4"></rect><path d="M5,38h2v-2h3v-8H7v-2H5v2H2v8h3V38z M4,30h4v4H4V30z"></path><rect x="5" y="40" width="2" height="4"></rect><rect x="5" y="46" width="2" height="4"></rect><rect x="57" y="14" width="2" height="4"></rect><rect x="57" y="20" width="2" height="4"></rect><path d="M59,26h-2v2h-3v8h3v2h2v-2h3v-8h-3V26z M60,34h-4v-4h4V34z"></path><rect x="57" y="40" width="2" height="4"></rect><rect x="57" y="46" width="2" height="4"></rect><path d="M59,52h-2v2h-3v3h-2v2h2v3h8v-8h-3V52z M60,60h-4v-4h4V60z"></path><polygon points="24.3,21.3 13.6,32 24.3,42.7 25.7,41.3 16.4,32 25.7,22.7 "></polygon><polygon points="38.3,22.7 47.6,32 38.3,41.3 39.7,42.7 50.4,32 39.7,21.3 "></polygon><rect x="31" y="21.2" transform="matrix(0.9286 0.3711 -0.3711 0.9286 14.144 -9.5993)" width="2" height="21.5"></rect></svg>