<svg height='100px' width='100px'  fill="#000000" xmlns="http://www.w3.org/2000/svg" xmlns:xlink="http://www.w3.org/1999/xlink" version="1.1" x="0px" y="0px" viewBox="0 0 512 512" style="enable-background:new 0 0 512 512;" xml:space="preserve"><g><g><g><g><path d="M245.993,286c-2.485,0-4.639-1.851-4.955-4.38c-0.342-2.74,1.601-5.239,4.341-5.582      c39.404-4.925,60.494-17.081,71.248-26.411c11.428-9.915,13.832-18.783,13.855-18.872c0.689-2.653,3.391-4.281,6.055-3.618      c2.662,0.663,4.297,3.323,3.66,5.99c-0.414,1.731-11.088,42.523-93.578,52.834C246.409,285.987,246.2,286,245.993,286z"></path></g><g><path d="M266.004,486.001c-0.324,0-0.654-0.032-0.984-0.099c-2.709-0.541-4.465-3.176-3.923-5.883l29.999-150      c0.543-2.708,3.174-4.465,5.885-3.923c2.707,0.542,4.463,3.176,3.922,5.884l-30,150      C270.428,484.357,268.34,486.001,266.004,486.001z"></path></g><g><path d="M225.994,486.001c-2.334,0-4.422-1.644-4.897-4.021l-30-150c-0.542-2.708,1.214-5.342,3.922-5.884      c2.704-0.54,5.342,1.215,5.883,3.923l30,150c0.542,2.707-1.214,5.342-3.922,5.883      C226.649,485.969,226.319,486.001,225.994,486.001z"></path></g><g><path d="M336,486h-24.199c-2.762,0-5-2.239-5-5c0-2.762,2.238-5,5-5h20.143l25.473-121.002C353.662,355.664,349.846,356,346,356      c-19.48,0-37.707-8.663-50-23.474C283.707,347.337,265.479,356,246,356c-10.247,0-20.055-2.319-29.15-6.893      c-2.467-1.24-3.461-4.246-2.221-6.713c1.241-2.468,4.247-3.461,6.713-2.222C229.031,344.039,237.327,346,246,346      c18.461,0,35.596-9.199,45.836-24.606c0.926-1.395,2.488-2.232,4.164-2.232c1.674,0,3.236,0.838,4.164,2.232      C310.402,336.801,327.537,346,346,346c5.607,0,11.143-0.843,16.449-2.504c1.697-0.529,3.543-0.122,4.855,1.071      c1.314,1.193,1.896,2.994,1.531,4.731l-27.943,132.73C340.404,484.344,338.363,486,336,486z M261.801,486H156      c-2.364,0-4.406-1.656-4.893-3.97l-27.943-132.731c-0.366-1.737,0.217-3.538,1.53-4.731c1.314-1.193,3.161-1.601,4.856-1.071      C134.856,345.157,140.391,346,146,346c12.583,0,24.422-4.137,34.24-11.964c2.159-1.721,5.305-1.366,7.026,0.793      s1.366,5.306-0.793,7.026C174.866,351.108,160.87,356,146,356c-3.846,0-7.663-0.336-11.417-1.002L160.057,476h101.744      c2.762,0,5,2.238,5,5C266.801,483.761,264.563,486,261.801,486z"></path></g><g><path d="M346,356c-19.48,0-37.707-8.663-50-23.474C283.707,347.337,265.479,356,246,356c-19.48,0-37.709-8.663-50.002-23.476      c-0.146,0.176-0.293,0.351-0.44,0.524c-1.789,2.104-4.943,2.361-7.048,0.575c-2.105-1.788-2.362-4.943-0.575-7.048      c1.396-1.645,2.708-3.388,3.901-5.183c0.927-1.395,2.49-2.232,4.165-2.232c1.674,0,3.238,0.838,4.165,2.232      C210.403,336.801,227.538,346,246,346c18.461,0,35.596-9.199,45.836-24.606c0.926-1.395,2.488-2.232,4.164-2.232      c1.674,0,3.236,0.838,4.164,2.232C310.402,336.801,327.537,346,346,346c5.607,0,11.143-0.843,16.449-2.503      C385.508,336.278,401,315.182,401,291c0-6.577-1.148-13.008-3.412-19.113c-0.959-2.59,0.361-5.467,2.951-6.427      c2.592-0.959,5.465,0.361,6.426,2.951C409.643,275.633,411,283.232,411,291c0,28.577-18.311,53.509-45.563,62.04      C359.162,355.004,352.623,356,346,356z M146,356c-6.623,0-13.162-0.996-19.437-2.96C99.31,344.509,81,319.577,81,291      c0-35.842,29.159-65,65-65c1.702,0,3.419,0.07,5.144,0.209c-0.096-1.74-0.144-3.48-0.144-5.209      c0-31.474,15.556-60.851,41.611-78.583c2.283-1.555,5.393-0.963,6.946,1.32c1.554,2.282,0.963,5.393-1.32,6.946      C174.92,166.553,161,192.839,161,221c0,3.436,0.212,6.922,0.629,10.361c0.191,1.575-0.376,3.147-1.53,4.237      c-1.153,1.09-2.753,1.566-4.317,1.287C152.507,236.298,149.216,236,146,236c-30.327,0-55,24.673-55,55      c0,24.182,15.492,45.279,38.55,52.497c5.899,1.846,12.127,2.676,18.323,2.472c2.755-0.099,5.073,2.068,5.166,4.828      s-2.068,5.072-4.828,5.166C147.476,355.987,146.739,356,146,356z M220.001,242.343c-8.924,0-16.066-2.616-21.226-7.776      c-5.16-5.16-7.776-12.301-7.776-21.225c0-23.955,18.952-55.776,30.249-72.613c1.538-2.294,4.645-2.905,6.938-1.366      c2.293,1.539,2.905,4.645,1.366,6.938C211.406,173.344,201,197.779,201,213.342c0,6.262,1.585,10.892,4.847,14.153      s7.892,4.848,14.155,4.848c27.959,0,77.647-32.799,101.301-55.47c1.162-1.112,2.787-1.599,4.369-1.307s2.926,1.328,3.613,2.782      c9.182,19.453,10.842,39.277,11.098,47.9c10.391-0.916,20.48,0.641,29.914,4.445c2.561,1.033,3.801,3.946,2.768,6.508      c-1.033,2.56-3.943,3.799-6.508,2.767c-9.486-3.825-19.832-4.972-30.34-3.083c-1.564,0.281-3.164-0.197-4.316-1.287      c-1.154-1.09-1.723-2.662-1.531-4.237c0.01-0.116,0.055-0.941,0.055-2.416c0-5.197-0.588-22.164-7.482-40.018      C299.129,209.872,251.016,242.343,220.001,242.343z"></path></g><g><path d="M220.001,242.343c-8.924,0-16.065-2.616-21.226-7.776c-5.16-5.161-7.775-12.302-7.775-21.226      c0-28.054,25.667-66.605,36.703-81.879c8.014-11.093,16.567-21.411,23.465-28.311c18.348-18.348,41.828-29.302,62.807-29.302      c13.318,0,24.709,4.35,32.938,12.579s12.578,19.618,12.578,32.937c0,20.981-10.953,44.461-29.301,62.809      c-0.621,0.621-1.285,1.266-1.969,1.921c-6.762,6.48-15.959,14.019-25.895,21.224c-2.236,1.621-5.361,1.123-6.984-1.113      c-1.621-2.235-1.123-5.361,1.113-6.982c9.578-6.946,18.402-14.173,24.85-20.35c0.629-0.604,1.24-1.196,1.813-1.77      c16.514-16.514,26.373-37.351,26.373-55.738c0-10.608-3.336-19.553-9.648-25.865c-6.314-6.313-15.258-9.65-25.867-9.65      c-18.385,0-39.221,9.859-55.735,26.373c-6.539,6.539-14.714,16.415-22.431,27.096C214.012,167.484,201,195.904,201,213.341      c0,6.263,1.585,10.893,4.847,14.154c3.261,3.262,7.891,4.848,14.154,4.848c8.987,0,20.581-3.301,34.459-9.809      c2.5-1.172,5.478-0.097,6.649,2.403c1.173,2.5,0.097,5.478-2.403,6.65C243.489,238.724,230.467,242.343,220.001,242.343z"></path></g><g><path d="M335.996,86.001c-0.799,0-1.607-0.191-2.359-0.595c-2.434-1.305-3.35-4.336-2.043-6.77      c3.242-6.048,4.887-13.054,4.887-20.822c0-13.57-4.979-24.627-5.029-24.737c-1.146-2.512-0.041-5.479,2.471-6.625      c2.51-1.146,5.479-0.042,6.625,2.47c0.242,0.531,5.934,13.171,5.934,28.893c0,9.436-2.043,18.031-6.074,25.548      C339.504,85.044,337.777,86.001,335.996,86.001z"></path></g><g><path d="M346.004,86c-1.521,0-3.021-0.69-4.004-2c-1.658-2.209-1.209-5.344,1-7l40-30c2.209-1.656,5.344-1.209,7,1      s1.209,5.343-1,7l-40,30C348.1,85.674,347.047,86,346.004,86z"></path></g><g><path d="M346.004,96.001c-1.807,0-3.551-0.982-4.441-2.696c-1.273-2.451-0.318-5.47,2.133-6.742      c17.834-9.263,36.746-13.96,56.211-13.96c16.523,0,27.227,3.505,27.674,3.653c2.621,0.874,4.035,3.705,3.162,6.325      c-0.871,2.617-3.701,4.031-6.314,3.165c-0.119-0.039-9.76-3.144-24.521-3.144c-17.844,0-35.207,4.318-51.602,12.834      C347.568,95.819,346.779,96.001,346.004,96.001z"></path></g><g><path d="M286,126c-1.279,0-2.561-0.488-3.535-1.465l-20.001-20c-1.952-1.952-1.952-5.118,0-7.071      c1.952-1.952,5.12-1.952,7.071,0l20,20c1.953,1.953,1.953,5.119,0,7.071C288.559,125.512,287.279,126,286,126z"></path></g><g><path d="M286,216c-1.279,0-2.561-0.488-3.535-1.465l-30.001-30c-1.953-1.952-1.953-5.118,0-7.071      c1.953-1.952,5.118-1.952,7.071,0l30,30c1.953,1.953,1.953,5.119,0,7.071C288.559,215.512,287.279,216,286,216z"></path></g><g><path d="M316,186c-1.279,0-2.561-0.488-3.535-1.465l-20-20c-1.953-1.952-1.953-5.118,0-7.071c1.951-1.952,5.119-1.952,7.07,0      l20,20c1.953,1.953,1.953,5.119,0,7.071C318.559,185.512,317.279,186,316,186z"></path></g></g><circle cx="136" cy="291" r="10"></circle><circle cx="236" cy="311" r="10"></circle><circle cx="346" cy="301" r="10"></circle><circle cx="186" cy="271" r="10"></circle></g></g></svg>