<svg height='100px' width='100px'  fill="#000000" xmlns="http://www.w3.org/2000/svg" viewBox="0 0 64 64" x="0px" y="0px"><title>Artboard 30</title><g data-name="Layer 2"><path d="M38.43,50.8c.69-.52,1.41-1,2.15-1.58C47.45,44.22,56,38,56,25A24,24,0,0,0,8,25c0,13,8.55,19.22,15.42,24.22.74.54,1.46,1.06,2.14,1.57a14.57,14.57,0,0,1,1.49,1.32c-5.88.26-19,1.31-19,5.39C8,61.84,23.09,63,32,63s24-1.16,24-5.5c0-4.08-13.17-5.13-19-5.39A15.48,15.48,0,0,1,38.43,50.8ZM26.77,49.2c-.69-.52-1.42-1.05-2.17-1.6C18.09,42.87,10,37,10,25a22,22,0,0,1,44,0c0,12-8.09,17.87-14.6,22.6-.75.55-1.48,1.08-2.18,1.61A19.6,19.6,0,0,0,34,52.39a31.49,31.49,0,0,0-2,2.71,30,30,0,0,0-2-2.7A19.43,19.43,0,0,0,26.77,49.2ZM54,57.5c-.43,1.23-8.29,3.5-22,3.5s-21.65-2.29-22-3.48c.29-1,6.26-3.13,18.76-3.48l.15.2a2.34,2.34,0,0,1,.24.31c.1.12.19.25.28.37a2.64,2.64,0,0,1,.21.29l.25.35.18.26.22.32.15.23.17.27c0,.07.09.13.12.19l.14.22.08.13.09.16,0,.07.05.08a1,1,0,0,0,1.74,0l.05-.08,0-.08a1,1,0,0,0,.09-.15l.08-.12c0-.08.09-.15.14-.24l.11-.16.19-.3.13-.2.23-.35.16-.23.28-.38.18-.26.31-.41.21-.28.17-.21C47.67,54.39,53.64,56.47,54,57.5Z"></path><path d="M50,25A18,18,0,1,0,32,43,18,18,0,0,0,50,25ZM16,25A16,16,0,1,1,32,41,16,16,0,0,1,16,25Z"></path><path d="M37,27v3a1,1,0,0,0,1,1h4a1,1,0,0,0,1-1v-.5h2a1,1,0,0,0,1-1v-8a1,1,0,0,0-1-1H43V19a1,1,0,0,0-1-1H38a1,1,0,0,0-1,1v3H27V19a1,1,0,0,0-1-1H22a1,1,0,0,0-1,1v.5H19a1,1,0,0,0-1,1v8a1,1,0,0,0,1,1h2V30a1,1,0,0,0,1,1h4a1,1,0,0,0,1-1V27Zm7-5.5v6H43v-6ZM39,20h2v9H39V20Zm-2,4v1H27V24ZM20,27.5v-6h1v6ZM25,29H23V20h2v9Z"></path></g></svg>