<svg height='100px' width='100px'  fill="#000000" xmlns="http://www.w3.org/2000/svg" xmlns:xlink="http://www.w3.org/1999/xlink" version="1.1" x="0px" y="0px" viewBox="0 0 64 64" style="enable-background:new 0 0 64 64;" xml:space="preserve"><g><path d="M56,1c-2.373,0-4.47,1.189-5.736,3H1v2h48.295C49.105,6.634,49,7.305,49,8s0.105,1.366,0.295,2H1v2h5.001   C5.377,13.055,5,14.448,5,16H1v38h4v3.184C3.839,57.598,3,58.698,3,60c0,1.654,1.346,3,3,3s3-1.346,3-3   c0-1.302-0.839-2.402-2-2.816V54h19v3.184c-1.161,0.414-2,1.514-2,2.816c0,1.654,1.346,3,3,3s3-1.346,3-3   c0-1.302-0.839-2.402-2-2.816V54h19v3.184c-1.161,0.414-2,1.514-2,2.816c0,1.654,1.346,3,3,3s3-1.346,3-3   c0-1.302-0.839-2.402-2-2.816V54h4V16h-4c0-1.552-0.377-2.945-1.001-4h2.264c1.267,1.811,3.364,3,5.736,3c3.86,0,7-3.14,7-7   S59.86,1,56,1z M6,61c-0.551,0-1-0.448-1-1s0.449-1,1-1s1,0.448,1,1S6.551,61,6,61z M27,61c-0.551,0-1-0.448-1-1s0.449-1,1-1   s1,0.448,1,1S27.551,61,27,61z M48,61c-0.551,0-1-0.448-1-1s0.449-1,1-1s1,0.448,1,1S48.551,61,48,61z M13,16   c0-1.552-0.377-2.945-1.001-4h30.001C41.377,13.055,41,14.448,41,16H13z M9,12c0.944,0,2,1.71,2,4H7C7,13.71,8.056,12,9,12z M51,18   v34H3V18h7.698c-0.38,1.21-1.06,2-1.698,2v2c1.773,0,3.238-1.649,3.776-4h33.922c-0.38,1.21-1.06,2-1.698,2v2   c1.773,0,3.238-1.649,3.776-4H51z M47,16h-4c0-2.29,1.056-4,2-4S47,13.71,47,16z M56,13c-2.757,0-5-2.243-5-5s2.243-5,5-5   s5,2.243,5,5S58.757,13,56,13z"></path><path d="M27,20c-8.271,0-15,6.729-15,15c0,8.271,6.729,15,15,15s15-6.729,15-15C42,26.729,35.271,20,27,20z M27,48   c-7.168,0-13-5.832-13-13c0-7.168,5.832-13,13-13s13,5.832,13,13C40,42.168,34.168,48,27,48z"></path><path d="M28,26v-2h-2v2c-2.757,0-5,2.243-5,5s2.243,5,5,5h2c1.654,0,3,1.346,3,3s-1.346,3-3,3h-2c-1.654,0-3-1.346-3-3v-1h-2v1   c0,2.757,2.243,5,5,5v2h2v-2c2.757,0,5-2.243,5-5s-2.243-5-5-5h-2c-1.654,0-3-1.346-3-3s1.346-3,3-3h2c1.654,0,3,1.346,3,3v1h2v-1   C33,28.243,30.757,26,28,26z"></path><rect x="35" y="34" width="2" height="2"></rect><rect x="17" y="34" width="2" height="2"></rect><rect x="47" y="48" width="2" height="2"></rect><rect x="38" y="48" width="7" height="2"></rect></g></svg>