<svg height='100px' width='100px'  fill="#000000" xmlns="http://www.w3.org/2000/svg" viewBox="0 0 64 64" x="0px" y="0px"><g><path d="M18.916,55.07a4.71,4.71,0,0,1-.989,1.159l1.629.759a2.99,2.99,0,0,0,2.827-.156l1.878-1.142a24,24,0,0,1-4.752-2.213A4.756,4.756,0,0,1,18.916,55.07Z"></path><path d="M10.812,47.474a4.729,4.729,0,0,1-1.383.631l1.154,1.376a2.992,2.992,0,0,0,2.628,1.054l2.2-.243a24.082,24.082,0,0,1-3.385-4.005A4.738,4.738,0,0,1,10.812,47.474Z"></path><path d="M45.9,34.587c.014-.117.027-.234.037-.351.037-.412.062-.824.062-1.236a13.922,13.922,0,0,0-3.432-9.154l-3.861,3.861a1,1,0,0,1-1.414-1.414l3.861-3.861A13.979,13.979,0,0,0,18,33c0,.412.025.824.062,1.236.01.117.023.234.037.351s.038.252.056.378H28V33a4,4,0,0,1,8,0v1.965h9.845C45.863,34.839,45.887,34.714,45.9,34.587Z"></path><path d="M32,31a2,2,0,0,0-2,2v2.965a1,1,0,0,1-1,1H26.249a6.966,6.966,0,0,0,11.5,0H35a1,1,0,0,1-1-1V33A2,2,0,0,0,32,31Zm.92,2.38a1.155,1.155,0,0,1-.21.33A1.052,1.052,0,0,1,32,34a1.355,1.355,0,0,1-.2-.02.636.636,0,0,1-.18-.06.782.782,0,0,1-.181-.09l-.149-.12a1.155,1.155,0,0,1-.21-.33.943.943,0,0,1,0-.76,1.155,1.155,0,0,1,.21-.33l.149-.12a.782.782,0,0,1,.181-.09.636.636,0,0,1,.18-.06,1.046,1.046,0,0,1,.91.27,1.155,1.155,0,0,1,.21.33.942.942,0,0,1,0,.76Z"></path><path d="M16.1,34.717c-.011-.1-.019-.2-.028-.3-.041-.47-.07-.942-.07-1.413A15.974,15.974,0,0,1,42.568,21.018L48.586,15l-1.293-1.293a1,1,0,0,1,0-1.414L48.888,10.7A27.969,27.969,0,0,0,4,33c0,.653.022,1.311.068,1.965H16.121C16.111,34.883,16.107,34.8,16.1,34.717Zm21.964-26A1,1,0,0,1,39.3,8.04a25.875,25.875,0,0,1,5.178,2.146,1,1,0,1,1-.96,1.754,23.937,23.937,0,0,0-4.779-1.981A1,1,0,0,1,38.062,8.719ZM34.08,7.082q.522.042,1.038.1A1,1,0,0,1,35,9.178a.961.961,0,0,1-.119-.007q-.478-.057-.962-.1a1,1,0,1,1,.16-1.993Z"></path><path d="M29.33,56.835A4.63,4.63,0,0,1,29.062,60h1.8a3,3,0,0,0,2.5-1.336l1.21-1.814a21.841,21.841,0,0,1-5.235-.015Z"></path><path d="M8.351,36.965H5.11l.515,1.921a2.994,2.994,0,0,0,1.936,2.066l2.072.7A23.746,23.746,0,0,1,8.351,36.965Z"></path><path d="M40.5,57.214a4.765,4.765,0,0,1,.251,1.5l1.628-.759a3,3,0,0,0,1.7-2.266l.329-2.153a24.05,24.05,0,0,1-4.753,2.186A4.749,4.749,0,0,1,40.5,57.214Z"></path><path d="M55.938,36.965h-.289a23.722,23.722,0,0,1-1.318,4.782,4.639,4.639,0,0,1,2.988,1.079l.466-1.736a3,3,0,0,0-.644-2.757Z"></path><path d="M54.3,16.112l-1.595,1.6a1,1,0,0,1-1.414,0L50,16.414l-6.018,6.018A15.916,15.916,0,0,1,48,33c0,.471-.029.943-.07,1.413-.009.1-.017.2-.028.3-.009.083-.013.166-.023.248H59.932C59.978,34.311,60,33.653,60,33A28.033,28.033,0,0,0,54.3,16.112Z"></path><path d="M40.054,36.965a8.959,8.959,0,0,1-16.108,0H10.381a21.748,21.748,0,0,0,2.174,6.315c.044.083.087.168.132.251a21.984,21.984,0,0,0,40.932-6.566H40.054ZM19.729,47.54a1,1,0,0,1-1.413.046q-.465-.436-.9-.9a1,1,0,0,1,1.459-1.37c.262.279.531.55.811.812A1,1,0,0,1,19.729,47.54ZM39.368,51.6a20.039,20.039,0,0,1-17.9-1.591,1,1,0,1,1,1.054-1.7,18.227,18.227,0,0,0,16.1,1.43,1,1,0,1,1,.736,1.86Z"></path><path d="M51.293,12.293a1,1,0,0,1,1.414,1.414L51.414,15l.586.586,2-2V11.414L53.586,11H51.414l-2,2,.586.586Z"></path><path d="M51.92,46.369a24.146,24.146,0,0,1-3.393,3.987A4.634,4.634,0,0,1,50.8,52.605l1.155-1.376a2.993,2.993,0,0,0,.581-2.771Z"></path></g></svg>