<svg height='100px' width='100px'  fill="#000000" xmlns="http://www.w3.org/2000/svg" viewBox="0 0 64 64" x="0px" y="0px"><g><path d="M42,26H22a1,1,0,0,0-1,1V59a1,1,0,0,0,1,1H42a1,1,0,0,0,1-1V27A1,1,0,0,0,42,26ZM25,58H23V56h2Zm7.674-9.261a1,1,0,0,1-1.348,0l-4.971-4.531a4.007,4.007,0,0,1,0-6.008A4.809,4.809,0,0,1,32,37.694a4.812,4.812,0,0,1,5.645.5,4.009,4.009,0,0,1,0,6.009ZM41,58H39V56h2Z"></path><path d="M47.782,26.341a1,1,0,0,1,.239.791c-.042.311-.069.669-.1,1.045A12.08,12.08,0,0,1,47.465,31h3.129a12,12,0,0,1-.457-2.82c-.03-.377-.057-.736-.1-1.047A1,1,0,0,1,51.029,26a2.916,2.916,0,0,0,2.326-.739A1.863,1.863,0,0,0,54.06,24a1.863,1.863,0,0,0-.705-1.261l-4.326-4.325-4.293,4.293A1.918,1.918,0,0,0,44,24a1.867,1.867,0,0,0,.7,1.261A2.918,2.918,0,0,0,47.029,26,1,1,0,0,1,47.782,26.341Z"></path><path d="M26,24V5a1,1,0,0,0-1-1H5A1,1,0,0,0,4,5V37a1,1,0,0,0,1,1H19V27a3,3,0,0,1,3-3ZM22,6h2V8H22ZM8,36H6V34H8ZM8,12H6V7A1,1,0,0,1,7,6h5V8H8Zm8.9,18.447a1,1,0,0,1-1.79,0l-5-10a1,1,0,0,1,0-.894l5-10a1.042,1.042,0,0,1,1.79,0l5,10a1,1,0,0,1,0,.894Z"></path><polygon points="12.118 20 16 27.764 19.882 20 16 12.236 12.118 20"></polygon><path d="M32.674,39.678a1,1,0,0,1-1.348,0,2.744,2.744,0,0,0-3.623,0,2.008,2.008,0,0,0,0,3.052L32,46.647l4.3-3.917a2.009,2.009,0,0,0,0-3.053A2.744,2.744,0,0,0,32.674,39.678Z"></path><path d="M45.029,31c.669,0,.808-1.792.9-2.978l.006-.078A4.809,4.809,0,0,1,45,27.719v3.287C45.01,31.006,45.019,31,45.029,31Z"></path><path d="M59,10H39a1,1,0,0,0-1,1V24h4a3.723,3.723,0,0,1,1.355-2.739l4.967-4.968a1,1,0,0,1,1.414,0l5,5A3.681,3.681,0,0,1,56.06,24,3.722,3.722,0,0,1,54.7,26.739a4.5,4.5,0,0,1-2.579,1.2c0,.027,0,.054.007.08.092,1.185.231,2.976.9,2.976a1,1,0,0,1,0,2h-8c-.01,0-.019-.006-.029-.006V44H59a1,1,0,0,0,1-1V11A1,1,0,0,0,59,10ZM46,14H42v4H40V13a1,1,0,0,1,1-1h5ZM58,41a1,1,0,0,1-1,1H52V40h4V36h2Zm0-27H56V12h2Z"></path></g></svg>