<svg height='100px' width='100px'  fill="#000000" xmlns="http://www.w3.org/2000/svg" xmlns:xlink="http://www.w3.org/1999/xlink" version="1.1" x="0px" y="0px" viewBox="0 0 100 100" style="enable-background:new 0 0 100 100;" xml:space="preserve"><path d="M79.1,71.8l3.5,2l0.1-0.2c4.9-6.8,7.5-14.9,7.5-23.4c0.1-10.9-4-21.1-11.6-28.7C71,13.8,60.8,9.6,50,9.6  C27.7,9.6,9.6,27.7,9.6,50S27.7,90.4,50,90.4c3.9,0,7.6-0.5,11.1-1.6l0.2-0.1l-0.8-4l-0.3,0.1c-3.4,1-6.9,1.6-10.4,1.6  c-20,0-36.3-16.3-36.3-36.3c0-20,16.3-36.3,36.3-36.3s36.3,16.3,36.3,36.3c0,7.7-2.4,15.1-7,21.5L79.1,71.8z"></path><path d="M84.1,16.3C75,7.2,62.9,2.2,50,2.2c-4.5,0-8.8,0.6-12.9,1.8L36.9,4l0.7,3.7l0.3-0.1C41.8,6.5,45.9,6,50,6  c24.5,0,44.5,19.9,44.5,44.5S74.5,94.9,50,94.9C25.5,94.8,5.5,74.8,5.5,50.3c0-9.3,2.8-18.1,8.2-25.7l0.2-0.2l-3.3-1.9l-0.1,0.2  c-5.7,8.1-8.8,17.7-8.8,27.7c0,26.5,21.6,48.1,48.1,48.1c26.6,0,48.2-21.6,48.2-48.1C98.2,37.6,93.2,25.5,84.1,16.3z"></path><path d="M76.9,48.3c-0.3-1.2-1.3-1.5-1.3-1.5L71,47.3l-4.2-9.8c-0.4-1.1-1.7-2.9-4.5-3.2H37.9h-0.2  c-2.8,0.3-4.1,2.1-4.5,3.2l-4.1,9.8l-4.4-0.5c0,0-1,0.3-1.3,1.5c-0.3,1.2-0.6,3.4,2.2,4.1l1.5,0.2c-1.9,3.5-3.8,9.9,1.4,15.2  c0.1,0.1,1.4,1.1,2.1,1.3v3.1c0,1.2,1,2.1,2.1,2.1h2.8c1.2,0,2.1-1,2.1-2.1v-2.9h24.9v2.9c0,1.2,1,2.1,2.1,2.1h2.9  c1.2,0,2.1-1,2.1-2.1v-3.1c0.8-0.2,1.5-0.7,2-1.3c5.3-5.3,3.6-11.6,1.8-15.3l1.3-0.1C77.5,51.7,77.2,49.6,76.9,48.3z M36.5,38.8  L36.5,38.8l0.1-0.1c0.1-0.1,0.3-0.7,1.4-0.9h24c1.1,0.1,1.4,0.7,1.4,0.8l4.1,9.7l-35.1-0.1L36.5,38.8z M34.8,60.6  c-1.7,0-3.1-1.4-3.1-3.1c0-1.7,1.4-3.1,3.1-3.1c1.7,0,3.1,1.4,3.1,3.1C37.9,59.2,36.5,60.6,34.8,60.6z M64.9,60.6  c-1.7,0-3.1-1.4-3.1-3.1c0-1.7,1.4-3.1,3.1-3.1c1.7,0,3.1,1.4,3.1,3.1C68,59.2,66.6,60.6,64.9,60.6z"></path><circle cx="25.7" cy="41.3" r="1.6"></circle><circle cx="75.5" cy="40.3" r="1.6"></circle><circle cx="57.2" cy="27.8" r="1.6"></circle><polygon points="29.9,32.4 32.2,31.4 30,30.5 28.9,27.9 27.9,30.5 25.7,31.4 28,32.4 29,34.7 "></polygon><polygon points="71.7,30.6 70.6,28.1 69.6,30.6 67.4,31.5 69.7,32.5 70.7,34.8 71.6,32.5 73.9,31.5 "></polygon><polygon points="45.8,28.1 48.1,27.2 45.9,26.3 44.8,23.7 43.8,26.3 41.6,27.2 43.9,28.1 44.9,30.5 "></polygon></svg>