<svg height='100px' width='100px'  fill="#000000" xmlns="http://www.w3.org/2000/svg" xmlns:xlink="http://www.w3.org/1999/xlink" version="1.1" x="0px" y="0px" viewBox="0 0 100 100" enable-background="new 0 0 100 100" xml:space="preserve"><g><path d="M29.648,49.922c-3.413-1.95-7.772-0.775-9.732,2.619c-1.96,3.4-0.78,7.735,2.633,9.684c3.419,1.95,7.777,0.776,9.738-2.624   C34.247,56.207,33.067,51.872,29.648,49.922z M30.936,54.48l-2.474,0.669c-0.048-0.134-0.106-0.261-0.176-0.377l2.377-0.962   C30.771,54.028,30.86,54.251,30.936,54.48z M28.639,51.675c0.646,0.372,1.181,0.861,1.593,1.424l-2.896,0.781   c-0.011-0.005-0.028-0.011-0.038-0.021l-0.593-2.821C27.367,51.117,28.024,51.325,28.639,51.675z M27.661,55.675l-0.379,0.287   l-0.438-0.186l-0.061-0.473l0.381-0.281l0.438,0.18L27.661,55.675z M26.764,56.515l0.438,0.185l0.059,0.473l-0.385,0.287   l-0.438-0.186l-0.06-0.473L26.764,56.515z M26.294,54.459l0.059,0.467l-0.385,0.288l-0.438-0.187l-0.059-0.473l0.379-0.281   L26.294,54.459z M25.802,57.349l-0.384,0.282l-0.438-0.181l-0.059-0.473L25.3,56.69l0.443,0.186L25.802,57.349z M25.877,51.006   l0.225,2.614c-0.101,0.005-0.208,0.021-0.31,0.043c-0.033,0.005-0.059,0.01-0.092,0.016l-0.544-2.587   C25.396,51.049,25.637,51.017,25.877,51.006z M25.214,55.564l0.054,0.472l-0.378,0.288l-0.439-0.186l-0.059-0.473l0.379-0.287   L25.214,55.564z M21.679,53.551c0.63-1.09,1.598-1.854,2.691-2.248l0.241,2.773l-2.976-0.446   C21.651,53.603,21.663,53.577,21.679,53.551z M21.305,54.358l2.74,0.754c-0.048,0.127-0.091,0.26-0.118,0.398l-2.824-0.424   C21.15,54.841,21.219,54.597,21.305,54.358z M22.495,59.654c-1.02-1.009-1.549-2.4-1.484-3.803l2.98,0.824   c0.027,0.074,0.054,0.149,0.086,0.223L22.495,59.654z M23.564,60.467c-0.161-0.09-0.311-0.186-0.454-0.292l1.73-2.316   c0.102,0.075,0.214,0.144,0.326,0.202l-1.432,2.502C23.677,60.531,23.622,60.499,23.564,60.467z M24.488,60.881l1.88-2.523   l2.42,2.019C27.522,61.158,25.94,61.365,24.488,60.881z M29.429,59.909l-1.863-1.986c0.123-0.08,0.229-0.17,0.33-0.271l2.068,1.727   C29.798,59.57,29.621,59.745,29.429,59.909z M30.519,58.592c-0.027,0.053-0.059,0.106-0.091,0.154l-1.927-2.055   c0.042-0.128,0.074-0.266,0.09-0.404l2.537-1.025C31.31,56.366,31.128,57.545,30.519,58.592z"></path><path d="M78.7,49.184c-3.825-0.936-7.687,1.386-8.633,5.19c-0.945,3.804,1.395,7.644,5.214,8.584   c3.824,0.935,7.691-1.386,8.632-5.19C84.858,53.97,82.524,50.125,78.7,49.184z M81.2,53.215l-2.19,1.323   c-0.085-0.117-0.177-0.217-0.278-0.313l2.02-1.578C80.917,52.828,81.067,53.02,81.2,53.215z M78.214,51.149   c0.721,0.18,1.373,0.504,1.923,0.935l-2.563,1.541c-0.012,0-0.027-0.005-0.043-0.005l-1.352-2.55   C76.835,50.963,77.524,50.985,78.214,51.149z M77.749,56.318l0.475,0.058l0.188,0.436l-0.288,0.377l-0.476-0.053l-0.182-0.441   L77.749,56.318z M77.44,55.15l0.281-0.382l0.477,0.058l0.187,0.44l-0.288,0.377l-0.471-0.058L77.44,55.15z M76.157,55.224   l-0.187-0.435l0.283-0.383l0.476,0.06l0.187,0.44l-0.288,0.377L76.157,55.224z M76.185,56.265l-0.289,0.376l-0.47-0.052   l-0.187-0.441l0.282-0.377l0.476,0.059L76.185,56.265z M75.378,51.267l0.935,2.448c-0.097,0.038-0.192,0.075-0.284,0.123   c-0.026,0.015-0.053,0.031-0.085,0.042l-1.233-2.337C74.924,51.436,75.148,51.341,75.378,51.267z M72.044,54.857   c0.305-1.217,1.02-2.215,1.965-2.896l0.995,2.598l-2.981,0.388C72.028,54.921,72.039,54.889,72.044,54.857z M71.905,55.739   l2.848-0.027c-0.017,0.139-0.017,0.277-0.006,0.415l-2.836,0.367C71.89,56.244,71.89,55.995,71.905,55.739z M72.039,57.253   l3.093-0.027c0.043,0.07,0.09,0.134,0.145,0.198l-0.754,3.081C73.263,59.808,72.37,58.619,72.039,57.253z M75.96,61.035   c-0.059-0.016-0.123-0.026-0.188-0.042c-0.176-0.043-0.352-0.096-0.518-0.16l1.02-2.699c0.124,0.043,0.246,0.08,0.369,0.106   L75.96,61.035z M76.296,57.699l-0.188-0.436l0.29-0.383l0.47,0.059l0.186,0.441l-0.282,0.377L76.296,57.699z M76.771,61.136   l1.111-2.937l2.885,1.275C79.769,60.573,78.304,61.205,76.771,61.136z M81.259,58.847l-2.346-1.397   c0.092-0.111,0.177-0.228,0.246-0.35l2.462,1.093C81.515,58.422,81.392,58.64,81.259,58.847z M81.942,57.285   c-0.016,0.059-0.032,0.117-0.048,0.17L79.47,56.01c0.004-0.138,0-0.277-0.021-0.415l2.152-1.684   C82.087,54.932,82.231,56.111,81.942,57.285z"></path><path d="M90.9,49.252c-0.192-0.494-0.123-0.712-0.102-0.76c0.005-0.005,0.005-0.01,0.005-0.01s-0.005-0.037-0.048-0.111   c-0.358-0.595-3.333-3.395-27.866-5.037c0,0-0.663,0.203-1.555-0.191c-0.893-0.393-7.414-4.297-11.213-5.455   c-3.798-1.152-15.998-2.215-26.617,4.452c0,0-6.479,0.478-10.507,1.201c-0.245,0.047-0.485,0.09-0.71,0.138   c-0.203,0.042-0.594,0.328-1.004,1.029c-0.006,0.006-0.006,0.006-0.006,0.006c-0.465,0.796-0.951,2.13-1.207,4.25   c0,0-0.625,1.498-1.33,1.806c0,0-0.234,1.323,0.129,2.507c0,0-0.097,0.043-0.209,0.138c-0.049,0.042-0.102,0.096-0.154,0.16   c0,0,0,0.403,0.453,0.982c0.033,0.042,0.07,0.085,0.113,0.132c0.912,1.058,3.322,2.598,9.668,3.389   c-0.145-0.626-0.225-1.291-0.225-1.965c0-4.51,3.43-7.612,7.654-7.612c4.226,0,7.654,3.103,7.654,7.612   c0,0.876-0.128,1.721-0.368,2.512l0.161,0.005l35.537,0.102l0.523,0.011c-0.251-0.813-0.391-1.679-0.391-2.582   c0-4.505,3.424-7.655,7.654-7.655c4.226,0,7.65,3.15,7.65,7.655c0,0.983-0.161,1.929-0.46,2.799   c0.913-0.053,5.39-0.409,7.345-2.104c0,0-0.113-0.212-0.651-0.409c0,0,0.651-1.306,0.651-3.235   C91.477,53.014,91.647,51.154,90.9,49.252z M14.99,46.57c-0.913,0.526-3.497,1.201-4.582,2.071c0,0-0.775-4.25,5.71-4.186   C16.118,44.456,15.905,46.039,14.99,46.57z M46.79,37.975c5.08,0.457,13.903,6.604,13.903,6.604   c-1.249-0.032-2.494-0.075-3.733-0.123l-0.305-0.85c0,0,0.283-2.009-2.254-2.009c-1.042,0-1.416,0.702-1.416,2.009   c0,0.212,0.316,0.679,1.918,0.552v0.224c-5.875-0.255-12.152-0.622-16.9-0.951c-0.594-1.599-1-3.894-1.197-5.004   C41.357,37.396,45.054,37.816,46.79,37.975z M27.341,42.591c3.189-2.163,6.292-3.39,9.08-4.069   c0.188,1.095,0.604,3.257,1.176,4.877C31.405,42.963,27.341,42.591,27.341,42.591z M68.06,49.864   c-0.037,0.112-0.086,0.212-0.134,0.308c-0.106,0.191-0.229,0.356-0.353,0.51c-0.123,0.154-0.25,0.292-0.373,0.425   c-0.064,0.063-0.129,0.127-0.188,0.191c-0.064,0.059-0.123,0.117-0.182,0.176c-0.246,0.228-0.475,0.43-0.684,0.61   c-0.209,0.181-0.401,0.335-0.566,0.468c-0.166,0.132-0.31,0.25-0.422,0.339c-0.117,0.09-0.209,0.16-0.267,0.208   c-0.033,0.021-0.054,0.037-0.069,0.047c0.043-0.037,0.145-0.138,0.304-0.287c0.214-0.202,0.529-0.499,0.919-0.888   c0.191-0.195,0.4-0.408,0.625-0.653c0.219-0.244,0.454-0.51,0.668-0.813c0.107-0.154,0.208-0.313,0.288-0.483   c0.043-0.085,0.075-0.17,0.102-0.261c0.021-0.085,0.038-0.175,0.032-0.255c-0.006-0.085-0.027-0.164-0.064-0.233   c-0.043-0.069-0.096-0.138-0.171-0.197c-0.139-0.122-0.331-0.212-0.539-0.292c-0.417-0.155-0.892-0.25-1.384-0.331   c-0.492-0.079-1.01-0.143-1.544-0.196c-0.534-0.053-1.083-0.101-1.649-0.144c-0.563-0.037-1.144-0.075-1.726-0.112   c-0.294-0.015-0.594-0.038-0.893-0.058c-0.294-0.016-0.593-0.042-0.897-0.053c-0.305-0.021-0.609-0.037-0.914-0.054   c-0.303-0.016-0.613-0.031-0.924-0.047c-0.614-0.038-1.238-0.075-1.863-0.112c-0.625-0.032-1.25-0.064-1.881-0.101   c-1.256-0.069-2.511-0.144-3.744-0.212c-0.62-0.032-1.234-0.069-1.838-0.107c-0.604-0.037-1.201-0.074-1.795-0.111   c-1.176-0.075-2.313-0.144-3.393-0.213c-1.078-0.075-2.094-0.143-3.039-0.208c-0.47-0.037-0.918-0.068-1.346-0.101   c-0.433-0.032-0.838-0.064-1.218-0.09c-0.77-0.059-1.432-0.112-1.981-0.16c-0.551-0.042-0.983-0.085-1.277-0.106   c-0.293-0.027-0.449-0.043-0.449-0.043s0.161,0,0.454-0.005c0.295,0.005,0.728,0,1.277,0.005c0.55,0.005,1.218,0.005,1.987,0.016   c0.384,0.005,0.791,0.011,1.223,0.021c0.428,0.005,0.883,0.016,1.352,0.021c0.47,0.011,0.962,0.022,1.475,0.037   c0.508,0.012,1.031,0.028,1.57,0.043c1.084,0.032,2.223,0.063,3.402,0.111c0.588,0.021,1.186,0.048,1.795,0.069   c0.604,0.027,1.218,0.053,1.838,0.08c1.239,0.053,2.494,0.128,3.749,0.191c0.631,0.038,1.256,0.075,1.881,0.112   c0.624,0.038,1.249,0.08,1.87,0.122c0.309,0.021,0.613,0.043,0.923,0.064c0.306,0.021,0.61,0.042,0.913,0.064   c0.3,0.021,0.604,0.047,0.903,0.074c0.3,0.027,0.599,0.053,0.892,0.08c0.588,0.053,1.165,0.101,1.73,0.154   c0.566,0.063,1.122,0.127,1.662,0.202c0.539,0.075,1.063,0.159,1.57,0.266c0.502,0.106,0.994,0.222,1.453,0.419   c0.229,0.102,0.454,0.223,0.652,0.404c0.096,0.09,0.181,0.196,0.24,0.324c0.058,0.122,0.085,0.265,0.085,0.393   C68.129,49.63,68.097,49.752,68.06,49.864z M83.673,46.485c0,0,6.356,1.046,6.105,2.832c-0.16,1.083,0.656,1.922,0.656,1.922   S86.29,51.389,83.673,46.485z"></path></g></svg>