<svg height='100px' width='100px'  fill="#000000" xmlns="http://www.w3.org/2000/svg" viewBox="0 0 100 100" x="0px" y="0px"><title>Artboard 4</title><path d="M46.34,45.67a3.38,3.38,0,0,0-4.77,0,3.33,3.33,0,0,0,0,4.73L48,56.71a1,1,0,0,0,.72.25h0a.92.92,0,0,0,.71-.28l11-11.87a3.38,3.38,0,1,0-4.82-4.73l-7,7.89Z"></path><path d="M81,27v9h9V27H86V14H81V10H72v4H67V27.68L50.31,22.22a1,1,0,0,0-.62,0L33,27.68V14H28V10H19v4H14V27H10v9h4v8H10v9h4v8H10v9h9V61H15V53h4V49h7.89A36.08,36.08,0,0,0,37.52,67H22v5H18v9h4v5H35v4h9V86h6v4h9V81H50v4H44V81H35v4H23V81h4V72H23V68H38.64c.33.28.66.57,1,.84l9.88,6.77a1.36,1.36,0,0,0,1.47,0L53.3,74H67V86h5v4h9V86h5V74h4V65H86V59h4V50H81v9h4v6H81v9h4V85H81V81H72v4H68V73H54.74l6-4.2A34.75,34.75,0,0,0,74,41.51V30.69a1,1,0,0,0-.69-1L68,28V15h4v4h9V15h4V27ZM18,62v7H11V62ZM51,82h7v7H51V82ZM36,82h7v7H36ZM26,73v7H19V73ZM82,58V51h7v7H82Zm0,15V66h7v7Zm-9,9h7v7H73ZM67,43.08a25.75,25.75,0,0,1-9.76,20.2l-7.23,5-7.2-5A25.77,25.77,0,0,1,33,43.08V35.23L50,29.6l17,5.63ZM20,11h7v7H20Zm-5,4h4v4h9V15h4V28l-5.31,1.74a1,1,0,0,0-.69,1V31H19V27H15ZM11,35V28h7v7H11Zm7,17H11V45h7Zm1-4V44H15V36h4V32h7v9.51A32.34,32.34,0,0,0,26.68,48ZM80,18H73V11h7Zm9,10v7H82V28Z"></path></svg>