<svg height='100px' width='100px'  fill="#000000" xmlns="http://www.w3.org/2000/svg" xmlns:xlink="http://www.w3.org/1999/xlink" version="1.1" x="0px" y="0px" viewBox="0 0 500 500" style="enable-background:new 0 0 500 500;" xml:space="preserve"><g><path d="M312.5,225c-13,0-24.5,6.7-31.2,16.8c-4.5-6.7-11-11.9-18.8-14.7v-20.8c7.7,4,16.3,6.2,25.1,6.2c7.5,0,15.1-1.6,22.3-4.9   c11.7-5.4,21.1-14.8,26.5-26.5l2.4-5.2l-2.4-5.2c-8.7-19-27.9-31.4-48.9-31.4c-8.9,0-17.4,2.2-25,6.2V100h-25v24.4   c-11-7.6-24.2-11.9-38.1-11.9c-26.1,0-49.9,15.3-60.8,39l-2.4,5.2l2.4,5.2c7.4,16.2,20.8,28.6,37.5,34.8c7.6,2.8,15.5,4.2,23.3,4.2   c9.5,0,18.9-2,27.8-6.1c3.6-1.6,7-3.6,10.2-5.8v38.1c-7.7,2.7-14.3,7.9-18.8,14.7c-6.7-10.1-18.2-16.8-31.2-16.8   c-20.7,0-37.5,16.8-37.5,37.5s16.8,37.5,37.5,37.5c0.7,0,1.5,0,2.2-0.1c-1.4,3.9-2.2,8.2-2.2,12.6c0,17.3,11.7,31.8,27.7,36.2   c-1.7,4.3-2.7,8.9-2.7,13.8c0,20.7,16.8,37.5,37.5,37.5s37.5-16.8,37.5-37.5c0-4.9-0.9-9.5-2.7-13.8c15.9-4.3,27.7-18.9,27.7-36.2   c0-4.4-0.8-8.6-2.2-12.6c0.7,0,1.4,0.1,2.2,0.1c20.7,0,37.5-16.8,37.5-37.5S333.2,225,312.5,225z M287.5,164.4   c9.2,0,17.7,4.4,23,11.6c-2.9,3.8-6.7,6.9-11.1,8.9c-12.5,5.7-27.1,1.7-35-8.9C269.8,168.8,278.3,164.4,287.5,164.4z M216.9,172.1   c-10.2,4.7-21.5,5.1-32,1.2c-8.6-3.2-15.8-9-20.6-16.6c7.6-11.8,20.9-19.2,35.2-19.2h0c14.3,0,27.6,7.4,35.2,19.2   C230.3,163.4,224.2,168.8,216.9,172.1z M250,250c6.9,0,12.5,5.6,12.5,12.5S256.9,275,250,275s-12.5-5.6-12.5-12.5   S243.1,250,250,250z M175,262.5c0-6.9,5.6-12.5,12.5-12.5s12.5,5.6,12.5,12.5s-5.6,12.5-12.5,12.5S175,269.4,175,262.5z M225,300   c6.9,0,12.5,5.6,12.5,12.5S231.9,325,225,325s-12.5-5.6-12.5-12.5S218.1,300,225,300z M250,375c-6.9,0-12.5-5.6-12.5-12.5   S243.1,350,250,350s12.5,5.6,12.5,12.5S256.9,375,250,375z M275,325c-6.9,0-12.5-5.6-12.5-12.5S268.1,300,275,300   s12.5,5.6,12.5,12.5S281.9,325,275,325z M312.5,275c-6.9,0-12.5-5.6-12.5-12.5s5.6-12.5,12.5-12.5s12.5,5.6,12.5,12.5   S319.4,275,312.5,275z"></path><path d="M426.8,73.2C379.6,26,316.8,0,250,0S120.4,26,73.2,73.2C26,120.4,0,183.2,0,250s26,129.6,73.2,176.8S183.2,500,250,500   s129.6-26,176.8-73.2C474,379.6,500,316.8,500,250S474,120.4,426.8,73.2z M475,250c0,9-0.5,17.9-1.6,26.7l-24.7-4.4   c0.8-7.3,1.3-14.8,1.3-22.4c0-7.6-0.4-15-1.3-22.4l24.7-4.4C474.5,232.1,475,241,475,250z M170,433.3l-8.6,23.6   c-16.3-7-31.8-16-46.2-26.8l16.2-19.3C143.3,419.7,156.2,427.2,170,433.3z M193.5,441.9c14.1,4.2,28.8,6.8,44,7.7v25.1   c-18-1-35.7-4.1-52.6-9.2L193.5,441.9z M262.5,449.6c15.2-0.9,29.9-3.6,44-7.7l8.6,23.6c-17,5.1-34.6,8.2-52.6,9.2V449.6z    M330,433.3c13.8-6,26.7-13.6,38.7-22.4l16.2,19.3c-14.4,10.8-29.9,19.8-46.2,26.8L330,433.3z M250,425c-96.5,0-175-78.5-175-175   S153.5,75,250,75s175,78.5,175,175S346.5,425,250,425z M25,250c0-9,0.5-17.9,1.6-26.7l24.7,4.4C50.4,235,50,242.4,50,250   c0,7.6,0.4,15,1.3,22.4l-24.7,4.4C25.5,267.9,25,259,25,250z M55.6,203l-24.7-4.4c4.1-17.5,10.2-34.3,18.2-50.2L70.9,161   C64.3,174.3,59.1,188.3,55.6,203z M55.6,297c3.6,14.7,8.7,28.8,15.3,42l-21.8,12.6c-8.1-15.9-14.2-32.8-18.2-50.2L55.6,297z    M330,66.7l8.6-23.6c16.3,7,31.8,16,46.2,26.8l-16.2,19.3C356.7,80.3,343.8,72.8,330,66.7z M306.5,58.1c-14.1-4.2-28.8-6.8-44-7.7   V25.4c18,1,35.7,4.1,52.6,9.2L306.5,58.1z M237.5,50.4c-15.2,0.9-29.9,3.6-44,7.7l-8.6-23.6c17-5.1,34.6-8.2,52.6-9.2V50.4z    M170,66.7c-13.8,6-26.7,13.6-38.7,22.4l-16.2-19.3C129.5,59,145,50.1,161.4,43.1L170,66.7z M429.1,161l21.8-12.6   c8.1,15.9,14.2,32.8,18.2,50.2l-24.7,4.4C440.9,188.3,435.7,174.3,429.1,161z M444.4,297l24.7,4.4c-4.1,17.5-10.2,34.3-18.2,50.2   L429.1,339C435.7,325.7,440.9,311.7,444.4,297z M438.4,126.8l-21.8,12.6c-8.3-12.4-17.9-23.9-28.7-34.2L404,85.9   c1.7,1.6,3.4,3.3,5.1,5C420.2,102,429.9,114,438.4,126.8z M90.9,90.9c1.7-1.7,3.4-3.3,5.1-5l16.2,19.2   c-10.8,10.3-20.4,21.8-28.7,34.2l-21.8-12.6C70.1,114,79.8,102,90.9,90.9z M61.6,373.2l21.8-12.6c8.3,12.4,17.9,23.9,28.7,34.2   L96,414.1c-1.7-1.6-3.4-3.3-5.1-5C79.8,398,70.1,386,61.6,373.2z M409.1,409.1c-1.7,1.7-3.4,3.3-5.1,5l-16.2-19.2   c10.8-10.3,20.4-21.8,28.7-34.2l21.8,12.6C429.9,386,420.2,398,409.1,409.1z"></path></g></svg>