<svg height='100px' width='100px'  fill="#000000" xmlns="http://www.w3.org/2000/svg" viewBox="0 0 64 64" x="0px" y="0px"><g><circle cx="53.36" cy="11.359" r="1.805"></circle><circle cx="16" cy="14" r="2"></circle><circle cx="10" cy="8" r="2"></circle><path d="M36,24V22H12.53a8.516,8.516,0,0,0-7.219,4H7v2H4.42a8.239,8.239,0,0,0-.4,2H8.09a5.993,5.993,0,0,1,11.82,0H25V27a3,3,0,0,1,3-3Z"></path><path d="M14,27a4,4,0,1,0,4,4A4,4,0,0,0,14,27Zm0,6a2,2,0,1,1,2-2A2,2,0,0,1,14,33Z"></path><polygon points="36 16 28.303 16 22.303 20 36 20 36 16"></polygon><rect x="36" y="57" width="14" height="2"></rect><polygon points="48.21 18.092 44.723 16 38 16 38 20 45.667 20 48.21 18.092"></polygon><path d="M59,26H28a1,1,0,0,0-1,1V43a1,1,0,0,0,1,1h3V39.5a3.5,3.5,0,0,1,5-3.162V33a3,3,0,0,1,5-2.234,2.994,2.994,0,0,1,4,0,3,3,0,0,1,4.9,1.445A3,3,0,0,1,54,35v9h5a1,1,0,0,0,1-1V27A1,1,0,0,0,59,26ZM31,36H29V34h2Zm2-6H31v2H29V29a1,1,0,0,1,1-1h3Zm25,6H56V34h2Zm0-4H56V30H54V28h3a1,1,0,0,1,1,1Z"></path><path d="M51,34a1,1,0,0,0-1,1v7.187a1,1,0,0,1-2,0V33a1,1,0,0,0-2,0v9.187a1,1,0,0,1-2,0V33a1,1,0,0,0-2,0v9.187a1,1,0,0,1-2,0V33a1,1,0,0,0-2,0V44.187a1,1,0,0,1-2,0V39.5a1.5,1.5,0,0,0-3,0v8.264l2.9,5.789A1,1,0,0,1,36,54v1H50V54a1,1,0,0,1,.052-.316L52,47.838V35A1,1,0,0,0,51,34Z"></path><path d="M54.836,21.986a.985.985,0,0,1-.351-.129L50.062,19.2,46.6,21.8a1,1,0,0,1-.6.2H38v2H59a2.966,2.966,0,0,1,1,.184V22.847Z"></path></g></svg>