<svg height='100px' width='100px'  fill="#000000" xmlns="http://www.w3.org/2000/svg" viewBox="0 0 100 100" x="0px" y="0px"><title>Travel</title><g data-name="Layer 1"><path d="M73,21.935A1,1,0,0,0,72,21H27a1,1,0,0,0-1,.935L22.281,78.673A5,5,0,0,0,27.271,84H71.729a5,5,0,0,0,4.99-5.327Zm.921,59.116a2.97,2.97,0,0,1-2.19.949H27.271a3,3,0,0,1-2.994-3.2L27.937,23H71.063l3.659,55.8A2.97,2.97,0,0,1,73.919,81.051Z"></path><path d="M56,29.5A3.5,3.5,0,0,0,52.5,26h-7a3.5,3.5,0,0,0,0,7h7A3.5,3.5,0,0,0,56,29.5ZM52.5,31h-7a1.5,1.5,0,0,1,0-3h7a1.5,1.5,0,0,1,0,3Z"></path><path d="M64.834,46.519A.972.972,0,0,0,65,46V34a1,1,0,0,0-1-1H59a1,1,0,0,0-1,1V45.249a.989.989,0,0,0-.2.231l-3.652,6A.994.994,0,0,0,54,52V77a3,3,0,0,0,3,3h8a3,3,0,0,0,3-3V52a.994.994,0,0,0-.146-.52ZM60,35h3v3H60Zm0,5h3v5H60Zm6,37a1,1,0,0,1-1,1H57a1,1,0,0,1-1-1V71.328a.936.936,0,0,0,.7-.107L66,65.854Zm0-13.43a.935.935,0,0,0-.108.037L56,69.318v-4.99a.936.936,0,0,0,.7-.107L66,58.854Zm0-7a.935.935,0,0,0-.108.036L56,62.318V52.28L59.214,47h3.571L66,52.28Z"></path><path d="M44,52.638V44a1,1,0,0,0-1-1H38a1,1,0,0,0-1,1v8.624a8.088,8.088,0,0,0-5.519,7.43l.97,18a1,1,0,0,0,1,.946H47.51a1,1,0,0,0,1-.946L49.48,60A8.056,8.056,0,0,0,44,52.638ZM39,45h3v3H39Zm0,5h3v2H39Zm7.563,27H34.4L33.48,60c0-3.309,3.14-6,7-6s7,2.691,7,5.946Z"></path><path d="M40.48,56.823a5.535,5.535,0,0,0-5.8,5.254l.106,1.977a1,1,0,0,0,1,.946h9.387a1,1,0,0,0,1-.946l.108-2.03C46.28,59.156,43.678,56.823,40.48,56.823ZM44.226,63H36.733l-.053-.977c0-1.765,1.7-3.2,3.8-3.2s3.8,1.436,3.8,3.146Z"></path></g></svg>