<svg height='100px' width='100px'  fill="#000000" xmlns="http://www.w3.org/2000/svg" xmlns:xlink="http://www.w3.org/1999/xlink" version="1.1" x="0px" y="0px" viewBox="0 0 100 100" enable-background="new 0 0 100 100" xml:space="preserve"><g><path d="M66.863,3.97v31.065c5.939,1.725,10.287,7.197,10.287,13.694c0,7.88-6.389,14.27-14.27,14.27   c-2.765,0-5.337-0.799-7.521-2.16c0-0.001,0-0.001,0.002-0.003c-6.558,5.245-14.487,9.12-23.207,11.232   c-1.502,0.363-3.038,0.675-4.564,0.93c-0.113,0.018-0.226,0.025-0.337,0.025c-0.981,0-1.848-0.709-2.013-1.709   c-0.184-1.114,0.569-2.168,1.683-2.353c1.428-0.235,2.864-0.528,4.269-0.868c7.857-1.902,15.011-5.33,20.977-9.951   c0.354,0.408,0.962,0.998,1.532,1.482c0.583,0.495,1.147,0.891,1.661,1.208l0,0c3.416-2.733,6.47-5.83,9.052-9.257   c0.681-0.901,0.5-2.183-0.401-2.862c-0.902-0.679-2.183-0.5-2.861,0.402c-2.533,3.364-5.561,6.389-8.973,9.028   c-2.212-2.513-3.566-5.803-3.566-9.417c0-6.497,4.346-11.97,10.287-13.694V2.079c-1.448-0.177-2.922-0.277-4.42-0.277   c-16.473,0-31.665,12.371-34.819,25.994c-0.7,3.028-1.493,10.94-1.493,10.94L8.843,57.198c-0.152,0.339-0.225,0.731-0.225,1.136   c0,1.611,1.301,2.923,2.922,2.923h6.627v10.781c0,8.437,3.679,14.188,14.308,14.188h2.52V99.5h41.903V68.686   c8.449-6.642,13.884-18.992,13.884-30.571C90.782,22.406,80.818,9.033,66.863,3.97z"></path></g></svg>