<svg height='100px' width='100px'  fill="#000000" xmlns="http://www.w3.org/2000/svg" viewBox="0 0 64 64" x="0px" y="0px"><g><path d="M8,25.1a19.313,19.313,0,0,1,2-.1h8a5.006,5.006,0,0,1,5,5v1a5.006,5.006,0,0,1-5,5H14v5H26a5.006,5.006,0,0,0,5-5V23H8Z"></path><path d="M14,49H26V43H14Zm7-4h2a1,1,0,0,1,0,2H21a1,1,0,0,1,0-2Z"></path><path d="M21,31V30a3,3,0,0,0-3-3H10c-6,0-6,2.258-6,3v5c0,5.36,3.015,5.944,8,6V35a1,1,0,0,1,1-1h5A3,3,0,0,0,21,31Z"></path><path d="M26,13H13a5.006,5.006,0,0,0-5,5v3H31V18A5.006,5.006,0,0,0,26,13ZM15,17c-.139,0-3,.047-3,2a1,1,0,0,1-2,0c0-3.164,3.271-4,5-4a1,1,0,0,1,0,2Z"></path><path d="M56,18a5.006,5.006,0,0,0-5-5H38a5.006,5.006,0,0,0-5,5v3H56Zm-3,2a1,1,0,0,1-1-1c0-1.958-2.881-2-3-2a1,1,0,0,1,0-2c1.729,0,5,.836,5,4A1,1,0,0,1,53,20Z"></path><path d="M38,49H50V43H38Zm3-4h2a1,1,0,0,1,0,2H41a1,1,0,0,1,0-2Z"></path><path d="M54,27H46a3,3,0,0,0-3,3v1a3,3,0,0,0,3,3h5a1,1,0,0,1,1,1v6c4.985-.052,8-.636,8-6V30C60,29.258,60,27,54,27Z"></path><path d="M41,31V30a5.006,5.006,0,0,1,5-5h8a19.313,19.313,0,0,1,2,.1V23H33V36a5.006,5.006,0,0,0,5,5H50V36H46A5.006,5.006,0,0,1,41,31Z"></path></g></svg>