<svg height='100px' width='100px'  fill="#000000" xmlns="http://www.w3.org/2000/svg" xmlns:xlink="http://www.w3.org/1999/xlink" version="1.1" x="0px" y="0px" viewBox="0 0 64 64" style="enable-background:new 0 0 64 64;" xml:space="preserve"><g><g><g><path d="M51.5,4.6h-39c-1.8,0-3.3,1.5-3.3,3.3v39c0,1.8,1.5,3.3,3.3,3.3h3.5v-4.5c-1-0.3-1.7-1.2-1.7-2.2v-1.6     c0-1.3,1-2.3,2.3-2.3h30.6c1.3,0,2.3,1,2.3,2.3v1.6c0,1.1-0.7,1.9-1.7,2.2v4.5h3.5c1.8,0,3.3-1.5,3.3-3.3v-39     C54.7,6.1,53.3,4.6,51.5,4.6z M38.7,23c0,2.3-1.8,4.1-4.1,4.1H18.1c-2.3,0-4.1-1.8-4.1-4.1v-9.9c0-2.3,1.8-4.1,4.1-4.1h16.5     c2.3,0,4.1,1.8,4.1,4.1V23z M50,26.2c0,0.5-0.4,0.9-0.9,0.9h-3.5c-0.5,0-0.9-0.4-0.9-0.9v-2.1c0-0.5,0.4-0.9,0.9-0.9h3.5     c0.5,0,0.9,0.4,0.9,0.9V26.2z M50,19.1c0,0.5-0.4,0.9-0.9,0.9h-3.5c-0.5,0-0.9-0.4-0.9-0.9V17c0-0.5,0.4-0.9,0.9-0.9h3.5     c0.5,0,0.9,0.4,0.9,0.9V19.1z M50,12c0,0.5-0.4,0.9-0.9,0.9h-3.5c-0.5,0-0.9-0.4-0.9-0.9V9.9c0-0.5,0.4-0.9,0.9-0.9h3.5     C49.6,9,50,9.4,50,9.9V12z"></path></g><g><g><path d="M35.8,43h-2c0,0,0,0.1,0,0.1c0,0.1,0,0.1,0,0.2c0,0.1,0,0.2,0,0.3c0,0.1,0,0.1,0,0.2c0,0,0,0.1-0.1,0.1c0,0-0.1,0-0.1,0      c0,0-0.1,0-0.2-0.1c-0.1,0-0.2-0.1-0.3-0.1c-0.1-0.1-0.3-0.1-0.4-0.1c-0.2,0-0.3-0.1-0.5-0.1c-0.1,0-0.3,0-0.4,0      c-0.1,0-0.2,0.1-0.3,0.1c-0.1,0.1-0.1,0.1-0.2,0.2c0,0.1-0.1,0.2-0.1,0.2c0,0.1,0,0.2,0.1,0.3c0.1,0.1,0.2,0.2,0.3,0.2      c0.1,0.1,0.3,0.1,0.4,0.2c0.2,0.1,0.3,0.1,0.5,0.2c0.2,0.1,0.3,0.2,0.5,0.2c0.2,0.1,0.3,0.2,0.4,0.3c0.1,0.1,0.2,0.3,0.3,0.5      c0.1,0.2,0.1,0.4,0.1,0.7c0,0.3-0.1,0.6-0.2,0.9c-0.1,0.2-0.3,0.5-0.5,0.6c-0.2,0.2-0.5,0.3-0.8,0.4c-0.1,0-0.2,0.1-0.4,0.1v0.5      h-0.7v-0.5c-0.2,0-0.3,0-0.5,0c-0.2,0-0.4-0.1-0.5-0.1c-0.2,0-0.3-0.1-0.4-0.1c-0.1-0.1-0.2-0.1-0.2-0.1c0,0-0.1-0.1-0.1-0.2      c0-0.1,0-0.2,0-0.4c0-0.1,0-0.2,0-0.3c0-0.1,0-0.1,0-0.2c0,0,0-0.1,0.1-0.1c0,0,0.1,0,0.1,0c0,0,0.1,0,0.2,0.1      c0.1,0.1,0.2,0.1,0.3,0.2c0.1,0.1,0.3,0.1,0.5,0.2c0.2,0.1,0.4,0.1,0.6,0.1c0.1,0,0.3,0,0.4,0c0.1,0,0.2-0.1,0.3-0.1      c0.1-0.1,0.1-0.1,0.2-0.2c0-0.1,0.1-0.2,0.1-0.3c0-0.1,0-0.2-0.1-0.3c-0.1-0.1-0.2-0.2-0.3-0.2c-0.1-0.1-0.3-0.1-0.4-0.2      c-0.2-0.1-0.3-0.1-0.5-0.2c-0.2-0.1-0.3-0.2-0.5-0.2c-0.2-0.1-0.3-0.2-0.4-0.3c-0.1-0.1-0.2-0.3-0.3-0.5      c-0.1-0.2-0.1-0.4-0.1-0.7c0-0.3,0.1-0.5,0.2-0.7c0.1-0.2,0.2-0.4,0.4-0.5h-2.2c-0.5,0.7-0.8,1.6-0.8,2.6c0,2.5,2.1,4.6,4.6,4.6      c2.5,0,4.6-2.1,4.6-4.6C36.6,44.7,36.3,43.8,35.8,43z"></path><circle cx="24.2" cy="45.6" r="1.5"></circle><circle cx="39.8" cy="45.6" r="1.5"></circle></g><path d="M44.2,43v6.2c-0.9,0-2.6,0.4-2.8,2.5H22.8c-0.1-1-0.8-2.4-3-2.4V43h-2.1v9.4c0,0.6,0.6,1.1,1.3,1.1h25.9     c0.7,0,1.3-0.5,1.3-1.1V43H44.2z"></path></g></g><path d="M44.7,56.6H19.3c-0.9,0-1.6-0.7-1.6-1.6l0,0h28.5l0,0C46.2,55.8,45.5,56.6,44.7,56.6z"></path><path d="M44.7,59.4H19.3c-0.9,0-1.6-0.7-1.6-1.6l0,0h28.5l0,0C46.2,58.7,45.5,59.4,44.7,59.4z"></path></g></svg>