<svg height='100px' width='100px'  fill="#000000" xmlns="http://www.w3.org/2000/svg" xmlns:xlink="http://www.w3.org/1999/xlink" xml:space="preserve" version="1.1" style="shape-rendering:geometricPrecision;text-rendering:geometricPrecision;image-rendering:optimizeQuality;" viewBox="0 0 307 275" x="0px" y="0px" fill-rule="evenodd" clip-rule="evenodd"><defs><style type="text/css">
   
    .fil0 {fill:#000000}
   
  </style></defs><g><path class="fil0" d="M73 59c13,0 24,11 24,24 0,12 -11,23 -24,23 -13,0 -23,-11 -23,-23 0,-13 10,-24 23,-24zm75 188c2,-17 -1,-26 -11,-27 6,19 -19,24 -10,48 -45,-19 16,-42 -8,-62 6,-1 11,0 14,3 1,-13 8,-21 21,-24 -6,39 50,36 14,85 -1,-29 -8,-37 -20,-23zm82 -44l0 53c0,18 -26,18 -26,0l0 -56c-1,-2 0,-5 1,-8l17 -27c4,8 10,14 18,19l-10 19zm55 -20l0 79c0,17 -26,17 -26,0l0 -72c10,1 19,-2 26,-7zm-59 -130c24,0 47,0 71,0 5,0 10,5 10,10l0 35c0,4 -2,8 -5,10l-40 28c-11,8 -23,-8 -12,-16l37 -26 0 -19 -9 0 0 18 -8 6c-4,-1 -7,-1 -11,-1 -10,-15 -29,-23 -46,-17l-10 -8 12 -15c3,-3 6,-5 11,-5zm-55 4l1 1 2 -3c3,-4 11,3 8,7l-2 3 2 1 2 -2c3,-4 11,3 8,7l-2 2 22 18c15,-9 35,0 42,16l1 0 -9 7c-19,13 1,42 20,29l28 -20c23,33 -20,79 -56,50 -9,-8 -14,-19 -14,-31 -16,-3 -29,-22 -22,-39l-22 -18 -2 3c-3,3 -12,-3 -8,-7l2 -3 -2 -1 -2 2c-3,4 -12,-3 -8,-7l2 -2 -2 -1c-9,-8 2,-20 11,-12zm85 -57c12,0 23,10 23,23 0,13 -11,24 -23,24 -13,0 -24,-11 -24,-24 0,-13 11,-23 24,-23zm-249 201l44 0 -22 -4c-9,-2 -15,-11 -13,-20l13 -57c2,-9 10,-14 19,-13l27 6c8,2 14,11 12,19l-2 10 -8 1 -18 -20 14 31 9 0 21 0c12,0 12,18 0,18l-34 0c-4,0 -5,0 -7,-1l-22 -36 18 47c7,1 25,3 30,4 7,1 15,5 12,14l-18 49c-5,12 -23,5 -19,-7l10 -27 -1 0 -24 23 23 22c8,7 -2,17 -9,10l-24 -22 -24 22c-7,7 -17,-3 -9,-10l23 -22 -25 -24c-5,-4 -3,-13 4,-13z"></path></g></svg>