<svg height='100px' width='100px'  fill="#000000" xmlns="http://www.w3.org/2000/svg" xmlns:xlink="http://www.w3.org/1999/xlink" version="1.1" x="0px" y="0px" viewBox="0 0 5 5" enable-background="new 0 0 5 5" xml:space="preserve"><path d="M2.941,2.029C3.13,1.868,3.65,1.907,3.708,1.67c0.058-0.237,0.188-0.757-0.086-0.928C3.35,0.571,2.866,0.723,2.724,0.685  s-0.485-0.066-0.73,0s-0.86-0.473-1.352-0.473c-0.493,0-0.702,0.057-0.625,0.17C0.092,0.496,0.18,0.44,0.195,0.534  C0.262,0.922,1.9,2.446,2.023,2.777C2.146,3.109,2.108,4.093,1.71,4.512C1.312,4.928,1.88,4.768,1.956,4.709  C2.032,4.652,2.59,4.736,2.59,2.787C2.598,2.247,2.752,2.191,2.941,2.029z M1.615,1.979C1.456,1.818,1.245,1.604,1.034,1.39  c-0.2-0.225-0.393-0.463-0.475-0.679C0.551,0.692,0.547,0.676,0.54,0.658c0.005-0.001,0.011,0,0.016-0.001  c0.006,0.016,0.012,0.031,0.021,0.048c0.088,0.206,0.29,0.433,0.499,0.646c0.201,0.224,0.402,0.448,0.552,0.616  c0.141,0.177,0.233,0.296,0.233,0.296S1.763,2.15,1.615,1.979z M1.951,2.066c-0.12-0.177-0.297-0.4-0.501-0.606  C1.265,1.244,1.067,1.019,1.003,0.799C1,0.793,1.001,0.788,0.998,0.781c0.019,0.007,0.041,0.015,0.061,0.023  c0.074,0.194,0.264,0.398,0.455,0.6C1.708,1.619,1.878,1.855,1.99,2.042C2.083,2.238,2.145,2.37,2.145,2.37S2.067,2.248,1.951,2.066  z M2.203,2.191C2.159,2.038,2.15,1.823,2.061,1.631c-0.054-0.2-0.132-0.4-0.201-0.547C1.854,1.058,1.851,1.042,1.847,1.019  c0.013,0.003,0.026,0.004,0.04,0.007c0.006,0.018,0.01,0.027,0.017,0.046C1.981,1.21,2.07,1.399,2.142,1.605  c0.077,0.202,0.073,0.421,0.105,0.577C2.266,2.34,2.27,2.447,2.27,2.447S2.238,2.345,2.203,2.191z M2.554,2.08  c-0.081,0.138-0.14,0.229-0.14,0.229S2.449,2.207,2.513,2.06c0.065-0.146,0.153-0.339,0.241-0.534  C2.835,1.38,2.889,1.237,2.922,1.103c0.017,0,0.037-0.001,0.055-0.001c-0.024,0.143-0.073,0.309-0.146,0.46  C2.729,1.75,2.629,1.939,2.554,2.08z M3.123,1.552C3.264,1.417,3.4,1.29,3.492,1.179c0.033-0.054,0.057-0.095,0.078-0.13h0.008  C3.559,1.085,3.537,1.13,3.507,1.187C3.426,1.304,3.291,1.451,3.164,1.591C2.889,1.856,2.642,2.152,2.642,2.152  S2.866,1.839,3.123,1.552z"></path><path d="M4.146,2.129C3.605,2.164,3.379,2.06,3.166,2.255C2.952,2.448,2.852,2.513,2.802,2.583C2.8,2.585,2.8,2.59,2.799,2.593  c-0.002,0.002-0.007,0.004-0.01,0.008l0.007,0.003c-0.037,0.082-0.017,0.24,0.205,0.221c0.242-0.021,0.497,0.198,0.505,0.567  S3.243,4.273,2.889,4.493c-0.111,0.188,0.12,0.298,0.248,0.221c0.127-0.079,0.896-1.221,1.036-1.362  C4.316,3.208,4.67,2.583,4.82,2.548c0.15-0.035,0.191-0.092,0.178-0.164C4.969,2.242,4.686,2.092,4.146,2.129z M3.507,2.797  C3.473,2.678,3.417,2.557,3.346,2.5C3.314,2.467,3.284,2.46,3.258,2.456c0.001-0.001,0.004-0.001,0.006-0.001  C3.29,2.456,3.318,2.458,3.352,2.487C3.438,2.544,3.501,2.661,3.55,2.781c0.082,0.249,0.082,0.507,0.082,0.507  S3.607,3.029,3.507,2.797z M3.734,3.253C3.716,3.359,3.703,3.432,3.703,3.432s0.006-0.072,0.018-0.181  c0.014-0.106-0.012-0.252-0.015-0.396c-0.021-0.137-0.017-0.287-0.06-0.388C3.633,2.433,3.624,2.409,3.613,2.384  c0.005,0.001,0.006,0,0.009,0C3.634,2.407,3.645,2.429,3.66,2.46c0.048,0.096,0.057,0.247,0.09,0.391  C3.745,2.999,3.757,3.145,3.734,3.253z M3.938,2.875c0.051-0.157,0.039-0.327,0.061-0.451C4,2.406,4.001,2.396,4.002,2.38  c0.007-0.001,0.01,0,0.016,0c0,0.016-0.002,0.027-0.002,0.046c-0.012,0.125,0.016,0.292-0.02,0.457  C3.927,3.216,3.757,3.506,3.77,3.512C3.757,3.509,3.9,3.2,3.938,2.875z M3.896,3.417c0,0,0.187-0.274,0.371-0.549  C4.4,2.69,4.527,2.521,4.602,2.423c0,0,0.002,0,0.004,0c-0.068,0.1-0.189,0.278-0.313,0.462C4.093,3.15,3.896,3.417,3.896,3.417z"></path></svg>