<svg height='100px' width='100px'  fill="#000000" xmlns="http://www.w3.org/2000/svg" xmlns:xlink="http://www.w3.org/1999/xlink" version="1.1" x="0px" y="0px" viewBox="90.8 10.9 331.2 490.8" style="enable-background:new 90.8 10.9 331.2 490.8;" xml:space="preserve"><g><g><g><g><g><g><path d="M355.1,501.8h-150c-3.3,0-6-2.7-6-6c0-3.3,2.7-6,6-6h150c3.3,0,6,2.7,6,6C361.1,499.1,358.4,501.8,355.1,501.8z         M185.1,501.8c-3.3,0-6-2.7-6-6c0-3.3,2.7-6,6-6c3.3,0,6,2.7,6,6C191.1,499.1,188.4,501.8,185.1,501.8z M165.1,501.8h-15.1        c-32.6,0-59.2-26.6-59.2-59.2v-51.3c0-3.3,2.7-6,6-6s6,2.7,6,6v51.3c0,12.5,4.9,24.4,13.9,33.3c9,8.9,20.8,13.9,33.3,13.9        h15.1c3.3,0,6,2.7,6,6c0,3.2-2.5,5.9-5.8,6C165.2,501.8,165.2,501.8,165.1,501.8z M375,500.3c-2.8,0-5.2-1.9-5.8-4.6        c-0.8-3.2,1.2-6.5,4.5-7.2c0.5-0.1,0.9-0.2,1.4-0.2c2.8,0,5.2,1.9,5.8,4.6c0.8,3.2-1.2,6.5-4.5,7.2        C375.9,500.3,375.4,500.3,375,500.3z M393.1,492.2c-2,0-3.8-1-4.9-2.6c-0.9-1.3-1.3-2.9-1-4.5c0.3-1.6,1.2-2.9,2.5-3.9        c12.7-8.9,20.3-23.4,20.3-38.7v-98.8c0-3.3,2.7-6,6-6c3.3,0,6,2.7,6,6v98.8c0,19.3-9.5,37.4-25.4,48.5        C395.5,491.8,394.3,492.2,393.1,492.2z M96.8,377.3c-3.3,0-6-2.7-6-6c0-3.3,2.7-6,6-6s6,2.7,6,6        C102.8,374.6,100.1,377.3,96.8,377.3z M96.8,357.3c-3.3,0-6-2.7-6-6v-150c0-3.3,2.7-6,6-6s6,2.7,6,6v150        C102.8,354.6,100.1,357.3,96.8,357.3z M416,329.8c-3.3,0-6-2.7-6-6c0-3.3,2.7-6,6-6c3.3,0,6,2.7,6,6        C422,327.1,419.3,329.8,416,329.8z M416,309.8c-3.3,0-6-2.7-6-6v-150c0-3.3,2.7-6,6-6c3.3,0,6,2.7,6,6v150        C422,307.1,419.3,309.8,416,309.8z M96.8,187.3c-3.3,0-6-2.7-6-6c0-3.3,2.7-6,6-6s6,2.7,6,6        C102.8,184.6,100.1,187.3,96.8,187.3z M96.8,167.3c-3.3,0-6-2.7-6-6V70.2c0-11.2,3.1-22,9.1-31.5c5.8-9.2,14-16.6,23.6-21.5        c0.8-0.4,1.8-0.6,2.7-0.6c2.3,0,4.3,1.3,5.4,3.3c0.7,1.4,0.8,3.1,0.3,4.6s-1.6,2.8-3,3.5c-15.9,8-26.1,24.6-26.1,42.2v91.1        C102.8,164.6,100.1,167.3,96.8,167.3z M416,139.8c-3.3,0-6-2.7-6-6c0-3.3,2.7-6,6-6c3.3,0,6,2.7,6,6        C422,137.1,419.3,139.8,416,139.8z M416,119.8c-3.3,0-6-2.7-6-6V70.2c0-12.5-4.9-24.4-13.9-33.4c-9-9-20.8-13.9-33.3-13.9H340        h0c-3.3,0-6-2.7-6-6s2.7-6,6-6h22.8c8,0,15.7,1.6,23,4.7c7,3,13.4,7.3,18.8,12.7c5.4,5.5,9.7,11.8,12.7,18.8        c3.1,7.3,4.7,15,4.7,23l0,43.6C422,117.1,419.3,119.8,416,119.8z M145.3,23.1c-1.5,0-2.9-0.6-4-1.6c-1.1-1-1.8-2.4-1.9-3.9        c-0.1-1.6,0.4-3.1,1.4-4.4c1-1.2,2.5-2,4.1-2.1c0.9-0.1,1.8,0,2.6,0.4c0.8-0.4,1.7-0.6,2.6-0.6h150c3.3,0,6,2.7,6,6        s-2.7,6-6,6h-150c-0.7,0-1.4-0.1-2.1-0.4c-0.6,0.3-1.3,0.5-2,0.5C145.6,23.1,145.5,23.1,145.3,23.1z M319.9,22.9        c-3.3,0-6-2.7-6-6s2.7-6,6-6c3.3,0,6,2.7,6,6S323.3,22.9,319.9,22.9z"></path></g></g><g><g><path d="M345,475.2h-66.4c-3.3,0-6-2.7-6-6c0-3.3,2.7-6,6-6H345c10.2,0,19.8-4,27.1-11.3c7.3-7.3,11.3-16.9,11.3-27v-14        c0-3.3,2.7-6,6-6c3.3,0,6,2.7,6,6v14C395.3,452.6,372.8,475.2,345,475.2z M258.6,475.2c-3.3,0-6-2.7-6-6c0-3.3,2.7-6,6-6        c3.3,0,6,2.7,6,6C264.6,472.5,261.9,475.2,258.6,475.2z M238.6,475.2h-70.9c-27.7,0-50.3-22.6-50.3-50.3v-9.5c0-3.3,2.7-6,6-6        c3.3,0,6,2.7,6,6v9.5c0,10.2,4,19.8,11.3,27c7.3,7.3,16.9,11.3,27.1,11.3h70.9c3.3,0,6,2.7,6,6        C244.6,472.5,241.9,475.2,238.6,475.2z M123.3,401.4c-3.3,0-6-2.7-6-6c0-3.3,2.7-6,6-6c3.3,0,6,2.7,6,6        C129.3,398.7,126.7,401.4,123.3,401.4z M389.4,396.9c-3.3,0-6-2.7-6-6c0-3.3,2.7-6,6-6c3.3,0,6,2.7,6,6        C395.4,394.2,392.7,396.9,389.4,396.9z M123.3,381.4c-3.3,0-6-2.7-6-6v-150c0-3.3,2.7-6,6-6c3.3,0,6,2.7,6,6v150        C129.3,378.7,126.7,381.4,123.3,381.4z M389.4,376.9c-3.3,0-6-2.7-6-6v-150c0-3.3,2.7-6,6-6c3.3,0,6,2.7,6,6v150        C395.4,374.2,392.7,376.9,389.4,376.9z M123.3,211.4c-3.3,0-6-2.7-6-6s2.7-6,6-6c3.3,0,6,2.7,6,6S126.7,211.4,123.3,211.4z         M389.4,206.9c-3.3,0-6-2.7-6-6s2.7-6,6-6c3.3,0,6,2.7,6,6S392.7,206.9,389.4,206.9z M123.3,191.4c-3.3,0-6-2.7-6-6V87.9        c0-10.2,3.1-20,8.8-28.4c5.6-8.2,13.4-14.5,22.5-18.2c0.7-0.3,1.5-0.5,2.3-0.5c2.4,0,4.6,1.5,5.6,3.7c1.3,3.1-0.2,6.6-3.3,7.8        c-14.5,6-23.9,19.9-23.9,35.5v97.5C129.3,188.7,126.7,191.4,123.3,191.4z M389.4,186.9c-3.3,0-6-2.7-6-6v-93        c0-16.9-11.3-32-27.6-36.8c-2.5-0.8-4.3-3.1-4.3-5.7c0-0.6,0.1-1.2,0.3-1.7c0.7-2.5,3.1-4.3,5.8-4.3c0.6,0,1.1,0.1,1.7,0.3        c0,0,0,0,0,0l0.1,0c5.1,1.5,10,3.9,14.4,6.9c4.4,3,8.2,6.7,11.4,11c3.3,4.3,5.8,9,7.5,14.1c1.8,5.2,2.7,10.7,2.7,16.3l0,93        C395.4,184.2,392.7,186.9,389.4,186.9z M337.7,49.6c-3.3,0-6-2.7-6-6c0-3.3,2.7-6,6-6c3.3,0,6,2.7,6,6        C343.7,46.9,341,49.6,337.7,49.6z M317.7,49.6h-150c-3.3,0-6-2.7-6-6c0-3.3,2.7-6,6-6h150c3.3,0,6,2.7,6,6        C323.7,46.9,321,49.6,317.7,49.6z"></path></g></g><g><g><path d="M256.4,383.2c-13.5,0-26.8-2.1-39.5-6.2c-12.3-4-23.9-9.9-34.5-17.4c-10.4-7.5-19.7-16.4-27.4-26.6        c-7.9-10.3-14-21.7-18.4-33.8c-1.1-3.1,0.5-6.6,3.6-7.7c0.7-0.2,1.3-0.4,2-0.4c2.5,0,4.8,1.6,5.6,4        c16.4,45.6,60,76.2,108.5,76.2h0c0.4,0,0.9,0,1.3,0h0.1c3.3,0,6,2.7,6,5.9c0,0,0,0,0,0.1c0,3.3-2.7,5.9-5.9,6        C257.3,383.2,256.9,383.2,256.4,383.2z M277.6,381.3c-2.9,0-5.4-2.1-5.9-5c-0.3-1.6,0.1-3.2,1-4.5c0.9-1.3,2.3-2.2,3.9-2.5        c0.3-0.1,0.7-0.1,1-0.1c2.9,0,5.4,2.1,5.9,5c0.6,3.3-1.6,6.4-4.9,7h0C278.3,381.3,277.9,381.3,277.6,381.3z M296.9,376.3        c-2.5,0-4.8-1.6-5.7-4c-0.5-1.5-0.4-3.1,0.2-4.6c0.7-1.4,1.9-2.5,3.4-3.1c45.9-16.3,76.8-60,76.8-108.7c0-0.2,0-0.4,0-0.6        c0,0,0,0,0,0c0-1.6,0.6-3.1,1.7-4.2c1.1-1.1,2.6-1.8,4.2-1.8h0c3.3,0,6,2.7,6,6c0,0,0,0,0,0c0,0.1,0,0.1,0,0.2        c0,0.2,0,0.4,0,0.5c0,13.6-2.1,26.9-6.3,39.7c-4,12.3-10,24-17.6,34.6c-7.5,10.5-16.5,19.7-26.8,27.5        c-10.4,7.8-21.9,14-34.1,18.3C298.3,376.1,297.6,376.3,296.9,376.3z M137,283.8c-2.9,0-5.4-2.1-5.9-4.9v0        c-0.3-1.6,0.1-3.2,1-4.5c0.9-1.3,2.3-2.2,3.9-2.5c0.4-0.1,0.7-0.1,1.1-0.1c2.9,0,5.4,2.1,5.9,4.9c0.6,3.3-1.6,6.4-4.8,7        C137.7,283.7,137.3,283.8,137,283.8z M135,263.9c-3.3,0-5.9-2.6-6-5.9l0,0l0,0c0-0.7,0-1.4,0-2.1c0-13.4,2.1-26.7,6.2-39.3        c4-12.2,9.8-23.8,17.3-34.3c7.4-10.4,16.3-19.6,26.4-27.4c10.2-7.9,21.5-14.1,33.6-18.5c0.7-0.2,1.4-0.4,2.1-0.4        c2.5,0,4.8,1.6,5.6,3.9c1.1,3.1-0.5,6.6-3.6,7.7c-45.2,16.6-75.6,60.1-75.6,108.3c0,0.7,0,1.3,0,1.9c0,0,0,0.1,0,0.1        C141,261.1,138.4,263.8,135,263.9L135,263.9z M375.9,241.3c-2.9,0-5.4-2.1-5.9-5c-0.3-1.6,0.1-3.2,1-4.5        c0.9-1.3,2.3-2.2,3.9-2.4c0.3-0.1,0.7-0.1,1-0.1c2.9,0,5.4,2.1,5.9,5c0.6,3.3-1.6,6.4-4.9,6.9        C376.6,241.3,376.3,241.3,375.9,241.3z M371,222L371,222c-2.6,0-4.8-1.6-5.7-4c-16.1-46.3-59.9-77.4-108.9-77.4h0        c-0.8,0-1.7,0-2.6,0c0,0-0.1,0-0.1,0c-1.6,0-3.1-0.6-4.2-1.7c-1.1-1.1-1.8-2.6-1.8-4.2c0-0.1,0-0.1,0-0.2c0-1.6,0.6-3,1.7-4.2        c1.1-1.1,2.6-1.8,4.2-1.8c0.9,0,1.9,0,2.8,0c13.6,0,27,2.1,39.8,6.4c12.4,4.1,24.1,10,34.7,17.7c10.5,7.6,19.7,16.7,27.5,27.1        c7.9,10.5,14,22,18.3,34.3c1.1,3.1-0.6,6.6-3.7,7.6C372.3,221.8,371.6,222,371,222z M233.8,142.6c-2.9,0-5.4-2.1-5.9-4.9        c-0.6-3.3,1.5-6.4,4.8-7c0.4-0.1,0.7-0.1,1.1-0.1c2.9,0,5.4,2.1,5.9,4.9c0.6,3.3-1.5,6.4-4.8,7        C234.5,142.6,234.1,142.6,233.8,142.6z"></path></g></g><g><path d="M256.4,366.5c-3.9,0-7.8-0.2-11.7-0.6c-3.3-0.3-5.7-3.3-5.3-6.6c0.3-3.3,3.3-5.7,6.6-5.3c3.4,0.4,6.9,0.5,10.4,0.5h0       c45.4,0,84.8-30.8,95.7-74.9c0.7-2.7,3.1-4.6,5.8-4.6c0.5,0,1,0.1,1.4,0.2c2.7,0.7,4.6,3.1,4.6,5.8c0,0.5-0.1,1-0.2,1.4       c-3,11.9-7.8,23.2-14.5,33.5c-6.6,10.1-14.7,19.1-24.2,26.6c-9.6,7.6-20.2,13.5-31.7,17.6C281.5,364.4,269,366.5,256.4,366.5z        M225.8,362c-0.6,0-1.2-0.1-1.8-0.3c-1.5-0.5-2.8-1.5-3.5-2.9c-0.8-1.4-0.9-3-0.4-4.6c0.8-2.6,3.1-4.3,5.7-4.3       c0.6,0,1.2,0.1,1.8,0.3c3.2,1,5,4.3,4,7.5C230.7,360.3,228.4,362,225.8,362z M207.3,354.3c-1,0-2-0.2-2.8-0.7       c-17.5-9.3-32.2-23.1-42.5-40c-10.7-17.4-16.3-37.3-16.3-57.8c0-13,2.2-25.8,6.6-37.9c0.9-2.4,3.1-3.9,5.6-3.9       c0.7,0,1.4,0.1,2.1,0.4c3.1,1.1,4.7,4.6,3.6,7.7c-3.9,10.8-5.9,22.2-5.9,33.8c0,36.6,20.1,70,52.4,87.2c2,1,3.2,3.1,3.2,5.3       c0,1-0.3,1.9-0.7,2.8C211.6,353.1,209.5,354.3,207.3,354.3z M360.9,267.4L360.9,267.4L360.9,267.4L360.9,267.4       c-0.1,0-0.2,0-0.3,0c-3.3-0.2-5.8-3-5.7-6.3c0,0,0,0,0,0c0.2-3.3,3-5.8,6.3-5.7c3.3,0.2,5.8,3,5.7,6.3       C366.7,264.9,364.1,267.4,360.9,267.4z M360,247.4c-3,0-5.5-2.2-5.9-5.2c-6.7-48.5-48.7-85.1-97.7-85.1h0       c-28,0-54.7,11.9-73.4,32.8c-1.1,1.3-2.8,2-4.5,2c-1.5,0-2.9-0.5-4-1.5c-1.3-1.1-2-2.8-2-4.5c0-1.5,0.6-2.9,1.5-4       c5.1-5.6,10.7-10.8,16.8-15.3c6.1-4.5,12.8-8.4,19.7-11.6c14.4-6.6,29.9-9.9,45.8-9.9c13.7,0,27,2.5,39.7,7.3       c12.2,4.7,23.4,11.5,33.3,20.2c20,17.6,33,41.7,36.6,67.9c0.5,3.3-1.8,6.3-5.1,6.8C360.6,247.4,360.3,247.4,360,247.4z        M166.6,208c-1.1,0-2.1-0.3-3.1-0.9c-2.8-1.7-3.8-5.4-2-8.2v0c1.1-1.8,3-2.9,5.1-2.9c1.1,0,2.1,0.3,3.1,0.9       c2.8,1.7,3.8,5.4,2.1,8.2C170.6,206.9,168.7,208,166.6,208z"></path></g><g><g><path d="M194.8,346.5c-1.3,0-2.5-0.4-3.5-1.1c-2.1-1.5-3-4.2-2.2-6.7l22.1-68.2l-10.9-7.9c-1.3-0.9-2.1-2.3-2.4-3.9        c-0.3-1.6,0.1-3.2,1.1-4.5c1.1-1.6,2.9-2.5,4.9-2.5c1.3,0,2.5,0.4,3.5,1.1l7.8,5.6l9.1-27.9c0.1-0.4,0.3-0.8,0.5-1.1h-49.5        c2.5,2,3,5.6,1.1,8.2c-1.1,1.6-2.9,2.5-4.9,2.5c-1.3,0-2.5-0.4-3.5-1.2l-14.7-10.7c-2.1-1.5-3-4.2-2.2-6.7        c0.8-2.5,3.1-4.1,5.7-4.1h74.9c-1.5-1.6-2-3.9-1.3-5.9c0.8-2.5,3.1-4.1,5.7-4.1c0.6,0,1.3,0.1,1.9,0.3c1.5,0.5,2.8,1.5,3.5,3        c0.7,1.4,0.9,3,0.4,4.6c-0.3,0.8-0.7,1.6-1.3,2.2h31.1l-15.3-46.9l-8.3,25.7v0c-0.8,2.5-3.1,4.1-5.7,4.1        c-0.6,0-1.3-0.1-1.9-0.3c-2.5-0.8-4.1-3.1-4.1-5.7c0-0.6,0.1-1.3,0.3-1.9l14.1-43.3c0.8-2.5,3.1-4.1,5.7-4.1        c2.6,0,4.9,1.7,5.7,4.1l22.2,68.2h4.4c3.3,0,6,2.7,6,6s-2.7,6-6,6h-0.5l9.4,29l39.9-29h-8.8h0c-3.3,0-6-2.7-6-6s2.7-6,6-6        h27.3c2.6,0,4.9,1.7,5.7,4.1c0.8,2.5-0.1,5.2-2.2,6.7l-58,42.1l7,21.5c0.5,1.5,0.4,3.1-0.4,4.6c-0.7,1.4-2,2.5-3.5,3        c-0.6,0.2-1.2,0.3-1.9,0.3c-2.6,0-4.9-1.7-5.7-4.1l-5.8-17.8l-24.7,17.9l44.1,32c0.7-0.8,1.6-1.3,2.6-1.7        c0.6-0.2,1.2-0.3,1.9-0.3c2.6,0,4.9,1.7,5.7,4.2l2.8,8.7c0.8,2.5-0.1,5.2-2.2,6.7c-2,1.5-5,1.5-7,0l-92.9-67.5l-15.2,46.9        l14.5-10.5c1-0.8,2.3-1.2,3.5-1.2c1.9,0,3.7,0.9,4.9,2.5c0,0.1,0.1,0.1,0.1,0.2c0,0.1,0.1,0.2,0.1,0.2c1.6,2.6,0.9,6.1-1.6,8        l-29.4,21.4C197.3,346.1,196.1,346.5,194.8,346.5z M225.4,265.9l31,22.5l31-22.5l-11.8-36.4h-40.4c0.8,1.5,1,3.2,0.5,4.8        L225.4,265.9z M308.9,318.9c-2.6,0-4.9-1.7-5.7-4.2c-1-3.1,0.7-6.5,3.9-7.6c0.6-0.2,1.2-0.3,1.9-0.3c2.6,0,4.9,1.7,5.7,4.1        c1,3.2-0.7,6.5-3.8,7.6C310.1,318.8,309.5,318.9,308.9,318.9z M240.4,313.4c-1.9,0-3.7-0.9-4.9-2.5c-1-1.3-1.3-2.9-1.1-4.5        c0.3-1.6,1.1-3,2.4-3.9c1-0.8,2.3-1.2,3.5-1.2c1.9,0,3.7,0.9,4.9,2.5c1.9,2.7,1.3,6.4-1.3,8.4        C242.9,313,241.7,313.4,240.4,313.4z M187.7,252c-1.3,0-2.5-0.4-3.5-1.1c-1.3-0.9-2.1-2.3-2.4-3.9c-0.3-1.6,0.1-3.2,1.1-4.5        c1.1-1.6,2.9-2.5,4.9-2.5c1.3,0,2.5,0.4,3.5,1.1c1.3,0.9,2.1,2.3,2.4,3.9c0.3,1.6-0.1,3.2-1.1,4.5        C191.4,251.1,189.6,252,187.7,252z M308.6,229.5c-3.3,0-6-2.7-6-6s2.7-6,6-6c3.3,0,6,2.7,6,6S311.9,229.5,308.6,229.5z"></path></g></g><g><path d="M256.4,284.3c-1.3,0-2.5-0.4-3.5-1.2l-19.6-14.3c-2.1-1.5-3-4.2-2.2-6.7l7.5-23.1c0.8-2.5,3.1-4.1,5.7-4.1h24.2       c2.6,0,4.9,1.7,5.7,4.1l7.5,23.1c0.8,2.5-0.1,5.2-2.2,6.7l-19.6,14.3C258.9,283.9,257.6,284.3,256.4,284.3z M243.8,261.7       l12.6,9.2l12.6-9.2l-4.8-14.8h-15.5L243.8,261.7z"></path></g><g><path d="M292,307.6c-1.3,0-2.5-0.4-3.5-1.1l-21.7-15.4c-1.6-1.1-2.5-2.9-2.5-4.9c0-1.9,0.9-3.8,2.5-4.9l13.1-9.6       c1.5-1.1,3.5-1.4,5.4-0.9c1.8,0.6,3.3,2,3.9,3.8l8.5,25c0.8,2.5,0,5.2-2.1,6.8C294.6,307.2,293.3,307.6,292,307.6z        M221.3,307.6c-1.3,0-2.5-0.4-3.6-1.2c-2.1-1.6-2.9-4.3-2.1-6.7l8.3-24.7c0.6-1.8,2.1-3.2,3.9-3.8c1.8-0.6,3.8-0.2,5.4,0.9       l13,9.4l0,0c1.6,1.1,2.5,3,2.5,4.9c0,1.9-1,3.7-2.5,4.9l-21.3,15.3C223.7,307.2,222.5,307.6,221.3,307.6z M289.8,259       c-0.7,0-1.3-0.1-1.9-0.3c-1.8-0.6-3.2-2-3.8-3.8l-5.4-16.7c-0.6-1.8-0.3-3.8,0.8-5.4c1.1-1.5,2.9-2.5,4.8-2.5l29.6-0.1       c2.6,0,4.9,1.7,5.7,4.2c0.8,2.5-0.1,5.2-2.3,6.7l-24.1,16.8C292.2,258.6,291,259,289.8,259z M292.6,242.2l0.4,1.2l1.7-1.2       H292.6z M223,258.6c-1.2,0-2.4-0.4-3.4-1.1L196,241.1c-2.2-1.5-3.1-4.2-2.3-6.7c0.8-2.5,3.1-4.2,5.7-4.2h0l28.9,0.1       c1.9,0,3.7,0.9,4.8,2.5c1.1,1.5,1.4,3.6,0.8,5.4l-5.3,16.3c-0.6,1.8-2,3.2-3.8,3.8C224.3,258.5,223.6,258.6,223,258.6z        M218.6,242.2l1.2,0.8l0.3-0.8H218.6z M265.6,229.1h-17.8c-1.9,0-3.7-0.9-4.9-2.5c-1.1-1.5-1.4-3.6-0.8-5.4l8.9-27.4       c0.8-2.5,3.1-4.1,5.7-4.1c2.6,0,4.9,1.7,5.7,4.1l8.9,27.4c0.6,1.8,0.3,3.8-0.8,5.4C269.3,228.1,267.5,229.1,265.6,229.1z        M256,217.1h1.3l-0.7-2L256,217.1z"></path></g></g></g></g></g></svg>