<svg height='100px' width='100px'  fill="#000000" xmlns="http://www.w3.org/2000/svg" xmlns:xlink="http://www.w3.org/1999/xlink" version="1.1" x="0px" y="0px" viewBox="0 0 60 60" style="enable-background:new 0 0 60 60;" xml:space="preserve"><path d="M53.461731,24.5585327c-0.8051758-0.5078125-2.5556641-0.765625-3.4667969-0.0185547  c-0.2631836,0.2167969-0.5126953,0.4511719-0.7504883,0.6972656c1.3876953-2.6699219,2.7792969-5.3369141,4.1728516-8.0029297  c0.8916016-1.7060547,0.6035156-3.2734375-0.7900391-4.2998047c-1.5488281-1.1396484-3.2910156-0.9208984-4.5454102,0.5712891  l-0.121582,0.1445313c-0.6269531,0.7421875-1.2753906,1.5107422-1.7841797,2.3925781  c-0.7856445,1.3623047-1.5463867,2.7382813-2.3076172,4.1152344c-0.3383789,0.6123047-0.6772461,1.2246094-1.0180664,1.8359375  c1.4389648-3.5556641,2.9077148-7.1650391,4.3837891-10.7177734c0.3237305-0.7783203,1.3095703-3.1484375-1.1518555-4.5351563  c-1.7382813-0.9804688-3.5087891-0.5205078-4.6220703,1.1904297c-0.8647461,1.3330078-1.6992188,2.7763672-2.550293,4.4140625  c-0.8486328,1.6308594-1.6787109,3.2724609-2.5092773,4.9140625c-0.3227539,0.6376953-0.6455078,1.2763672-0.9697266,1.9140625  c0.4291992-1.0761719,0.8833008-2.1435547,1.3374023-3.2099609c0.5957031-1.3984375,1.2114258-2.8457031,1.7626953-4.2998047  c0.4780273-1.2607422,0.7011719-2.5849609,0.628418-3.7265625c-0.0639648-1.0029297-0.859375-2.3945313-1.9003906-2.7861328  c-1.0634766-0.3984375-2.5385742,0.0458984-3.2939453,0.6865234c-0.7255859,0.6132813-1.1235352,1.5048828-1.4746094,2.2910156  l-0.1899414,0.4199219c-0.878418,1.8818359-1.7456055,3.7675781-2.612793,5.6542969  c-0.9165039,1.9941406-1.8330078,3.9873047-2.762207,5.9746094c-0.3022461,0.6455078-0.6645508,1.2832031-1.0483398,1.9580078  c-0.1884766,0.3320313-0.3808594,0.6708984-0.5742188,1.0234375c-0.1401367,0.2558594-0.1616211,0.5595703-0.059082,0.8330078  c0.1030273,0.2724609,0.3193359,0.4873047,0.5932617,0.5869141l6.6538086,2.4277344  c-0.5234375,0.3671875-1.1254883,0.2958984-2.0288086,0.1875c-0.9135742-0.1103516-1.9487305-0.2333984-3.0288086,0.21875  c-0.2763672,0.1162109-0.4868164,0.3496094-0.5722656,0.6367188c-0.0859375,0.2871094-0.0380859,0.5976563,0.1293945,0.8466797  c0.4511719,0.6660156,1.059082,1.0556641,1.5957031,1.3984375c0.1557617,0.0996094,0.3115234,0.1992188,0.4624023,0.3056641  l0.769043,0.546875c1.8271484,1.2958984,3.7163086,2.6357422,5.4707031,4.0615234  c0.0551758,0.0458984,0.0292969,0.1318359-0.0024414,0.1953125c-0.015625,0.0302734-0.097168,0.1757813-0.2314453,0.1572266  c-0.0517578-0.0117188-0.0991211-0.0273438-0.1381836-0.0449219c-1.0244141-0.4765625-1.9873047-1.0839844-3.0068359-1.7255859  c-0.4223633-0.2666016-0.8442383-0.5322266-1.2709961-0.7890625c-0.4116211-0.2460938-0.9404297-0.1669922-1.2607422,0.1914063  c-0.3198242,0.3574219-0.340332,0.8925781-0.0488281,1.2734375c0.831543,1.0869141,1.7319336,2.0488281,2.6025391,2.9785156  c0.5493164,0.5869141,1.0947266,1.1689453,1.609375,1.7714844c0.0297852,0.0625-0.0625,0.1601563-0.0634766,0.1611328  c-0.0004883,0.0019531-0.0991211,0.109375-0.2050781,0.0634766c-1.1376953-0.8310547-2.2431641-1.7802734-3.3125-2.6982422  c-0.4296875-0.3691406-0.8598633-0.7382813-1.2939453-1.1025391c-0.362793-0.3027344-0.8901367-0.3115234-1.2617188-0.0185547  c-0.3720703,0.2929688-0.4873047,0.8066406-0.2758789,1.2314453c0.456543,0.9169922,1.0454102,1.6611328,1.6147461,2.3808594  c0.3027344,0.3818359,0.6044922,0.7617188,0.8725586,1.1582031c0.0253906,0.0380859,0.046875,0.0800781,0.0654297,0.1230469  c0.0292969,0.0683594-0.0566406,0.1494141-0.0668945,0.1582031c-0.0068359,0.0078125-0.0771484,0.0683594-0.1464844,0.0253906  c-1.0327148-0.9238281-2.0092773-1.9814453-2.9541016-3.0048828c-0.3833008-0.4150391-0.7670898-0.8300781-1.15625-1.2392578  c-0.3076172-0.3242188-0.7919922-0.4052734-1.1884766-0.1972656l-0.3413086,0.1777344  c-0.3930664,0.2060547-0.6035156,0.6455078-0.5170898,1.0810547c0.0112305,0.0546875,0.0170898,0.1113281,0.0239258,0.1679688  c0.0283203,0.2275391,0.0664063,0.5380859,0.234375,0.8505859c0.1621094,0.3017578,0.3427734,0.5947266,0.5239258,0.8867188  c0.2714844,0.4384766,0.5283203,0.8535156,0.71875,1.3378906c-0.0029297,0.0332031-0.0766602,0.1044922-0.0722656,0.1230469  c-0.4091797-0.4121094-0.7460938-0.9492188-1.1025391-1.5185547c-0.2431641-0.3886719-0.487793-0.7773438-0.7592773-1.1416016  l-2.1914063-2.9560547c-2.4746094-3.34375-5.0336914-6.8007813-7.6494141-10.1328125  c-0.8618164-1.0976563-2.2080078-1.7871094-3.6015625-1.8457031c-1.0917969-0.0332031-2.0800781,0.3193359-2.7128906,1  c-1.9160156,2.0605469-0.4799805,3.8154297,0.3779297,4.8642578c0.1157227,0.140625,0.230957,0.28125,0.3393555,0.4228516  c3.2226563,4.1845703,6.4702148,8.734375,7.6762695,14.2939453c0.3408203,1.5712891,1.2333984,3.6269531,2.7148438,4.6806641  c3.6889648,2.6259766,6.8007813,4.4472656,9.793457,5.734375c1.1181641,0.4804688,2.2587891,0.7158203,3.3813477,0.7158203  c2.2700195,0,4.4638672-0.9648438,6.2294922-2.8173828c6.8662109-7.2050781,12.4902344-15.3662109,16.7138672-24.2558594  C54.333313,27.1190796,54.4431763,25.1786499,53.461731,24.5585327z M27.6277466,23.1034546  c0.3994141-0.703125,0.7768555-1.3681641,1.109375-2.078125c0.9311523-1.9912109,1.8496094-3.9892578,2.7680664-5.9863281  c0.8657227-1.8837891,1.730957-3.7666016,2.6079102-5.6445313l0.2041016-0.4501953  c0.2763672-0.6201172,0.5625-1.2607422,0.9399414-1.5800781c0.3359375-0.2841797,1.0771484-0.4257813,1.2919922-0.3427734  c0.1967773,0.09375,0.5913086,0.6796875,0.6142578,1.0429688c0.0551758,0.8642578-0.1235352,1.890625-0.5024414,2.890625  c-0.5371094,1.4169922-1.1450195,2.8447266-1.7329102,4.2255859c-0.5258789,1.2353516-1.0512695,2.4707031-1.5395508,3.7207031  c-0.4208984,1.078125-0.75,2.1904297-1.0678711,3.265625c-0.1416016,0.4794922-0.2832031,0.9580078-0.4331055,1.4345703  c-0.1445313,0.4599609,0.0595703,0.9580078,0.4858398,1.1835938l0.2998047,0.1591797L27.6277466,23.1034546z M52.142395,27.0682983  c-4.1328125,8.6982422-9.6357422,16.6835938-16.3554688,23.734375c-2.0683594,2.1689453-4.7573242,2.7685547-7.3730469,1.6435547  c-2.859375-1.2285156-5.8535156-2.984375-9.4238281-5.5253906c-0.9526367-0.6777344-1.6508789-2.234375-1.9204102-3.4755859  c-1.2939453-5.9648438-4.684082-10.7255859-8.0454102-15.0908203c-0.1206055-0.15625-0.2480469-0.3125-0.3764648-0.4697266  c-0.9790039-1.1953125-1.1264648-1.5195313-0.4609375-2.2353516c0.2148438-0.2314453,0.6083984-0.3642578,1.0654297-0.3642578  c0.0327148,0,0.065918,0,0.0991211,0.0019531c0.8051758,0.0332031,1.6142578,0.4472656,2.1118164,1.0810547  c2.5986328,3.3105469,5.1489258,6.7558594,7.6152344,10.0888672l2.1943359,2.9589844  c0.2397461,0.3222656,0.4536133,0.6660156,0.668457,1.0097656c0.3994141,0.6367188,0.8120117,1.2958984,1.4057617,1.8935547  c0.6645508,0.6445313,1.6552734,0.7304688,2.4614258,0.2177734c0.5878906-0.3740234,0.9438477-0.9814453,0.9946289-1.6230469  c0.4311523,0.4375,0.875,0.8671875,1.3354492,1.2792969c0.1162109,0.1035156,0.2460938,0.1943359,0.3818359,0.2695313  c0.784668,0.4394531,1.7407227,0.3212891,2.434082-0.3046875c0.4262695-0.3847656,0.6757813-0.8857422,0.7260742-1.4082031  c0.1367188,0.1035156,0.2739258,0.2060547,0.4125977,0.3066406c0.1333008,0.0976563,0.2836914,0.1806641,0.4487305,0.2490234  c0.8139648,0.3310547,1.7519531,0.1171875,2.3862305-0.5507813c0.6289063-0.6621094,0.7944336-1.6005859,0.4223633-2.390625  c-0.0786133-0.1669922-0.1762695-0.3183594-0.2871094-0.4462891c-0.1098633-0.1289063-0.2211914-0.2558594-0.3334961-0.3828125  c0.9594727,0.1640625,1.8935547-0.3251953,2.3486328-1.2431641c0.4575195-0.9238281,0.2563477-1.9736328-0.5317383-2.6376953  c-1.8022461-1.4638672-3.71875-2.8232422-5.5717773-4.1386719l-0.4194336-0.2978516  c1.3896484,0.1542969,3.1606445,0.1728516,4.4516602-2.2001953c0.1391602-0.2548828,0.159668-0.5585938,0.0571289-0.8310547  c-0.1030273-0.2724609-0.3193359-0.4863281-0.5927734-0.5859375l-0.9902344-0.3613281  c0.2822266-0.0009766,0.5595703-0.1220703,0.7539063-0.3476563c0.1181641-0.1376953,0.246582-0.2695313,0.3745117-0.4013672  c0.3344727-0.3447266,0.7133789-0.7353516,0.9750977-1.2382813c0.8803711-1.6894531,1.7407227-3.3896484,2.6005859-5.0898438  c0.8271484-1.6347656,1.6538086-3.2685547,2.4990234-4.8945313c0.8212891-1.5800781,1.6240234-2.96875,2.453125-4.2460938  c0.6889648-1.0605469,1.3789063-0.8662109,1.9633789-0.5380859c0.621582,0.3505859,0.8525391,0.6640625,0.2866211,2.0253906  c-1.9570313,4.7089844-3.8984375,9.5136719-5.7758789,14.1611328l-0.4980469,1.2324219  c-0.284668,0.7050781-0.1860352,1.4208984,0.3100586,2.2548828c0.1689453,0.2832031,0.4672852,0.4658203,0.796875,0.4863281  c0.3383789,0.0175781,0.6484375-0.1230469,0.8515625-0.3837891c0.1992188-0.2558594,0.4086914-0.5048828,0.6176758-0.7548828  c0.4931641-0.5888672,1.0024414-1.1972656,1.4106445-1.8994141c0.8603516-1.4814453,1.6894531-2.9804688,2.5185547-4.4794922  c0.7548828-1.3662109,1.5102539-2.7314453,2.2895508-4.0830078c0.4199219-0.7285156,0.9833984-1.3955078,1.5800781-2.1025391  l0.1230469-0.1455078c0.5805664-0.6914063,1.1279297-0.765625,1.8295898-0.25  c0.4111328,0.3027344,0.7651367,0.6884766,0.2036133,1.7636719c-2.628418,5.0273438-5.2490234,10.0595703-7.8500977,15.1025391  c-0.2407227,0.4667969-0.3876953,0.9404297-0.5302734,1.3984375c-0.0576172,0.1855469-0.1152344,0.3710938-0.1791992,0.5527344  c-0.1689453,0.4804688,0.050293,1.0117188,0.5092773,1.2324219l0.6557617,0.3154297  c0.4648438,0.2255859,1.0263672,0.0585938,1.2919922-0.3867188c0.3300781-0.5507813,0.6552734-1.1044922,0.9804688-1.6591797  c0.746582-1.2714844,1.5185547-2.5859375,2.3339844-3.8271484c0.7006836-1.0673828,1.4638672-2.1748047,2.3647461-2.921875  c0.1713867-0.0810547,0.6650391-0.0537109,0.9887695,0.0517578C52.2493286,26.4325562,52.2302856,26.883728,52.142395,27.0682983z"></path></svg>