<svg height='100px' width='100px'  fill="#000000" xmlns="http://www.w3.org/2000/svg" data-name="Layer 1" viewBox="0 0 512 512" x="0px" y="0px"><title>Protect</title><path d="M121.636,423.444a17.141,17.141,0,0,1,7.532,9.461l4.133,55.853a7,7,0,0,0,4.75,6.118l1.122.378a121.574,121.574,0,0,0,76.355.53l2.735-.877a7,7,0,0,0,4.862-6.666V456.916a305.3,305.3,0,0,0-3.534-43.488c-.139-.974-.237-1.963-.294-2.944l-.837-14.412q-.016-.287-.057-.572a78.758,78.758,0,0,0-52.3-63.618l-4.685-1.631a44.726,44.726,0,0,1-16.834-10.559l-22.572-22.571-7.709-26.085a36.562,36.562,0,0,0-30.8-26.749l-1.065-3.555c-.017-.055-.035-.112-.053-.168-3.7-11.3-15.772-18.688-28.255-18.239L54,221.876a33.049,33.049,0,0,0-39.684-22.641,7,7,0,0,0-5.194,8.073L34.07,341.6a7.066,7.066,0,0,0,.25.961,86.431,86.431,0,0,0,32.44,43.1l54.5,37.549C121.381,423.287,121.507,423.367,121.636,423.444ZM100.8,274.734c.016.062.033.122.052.184l1.869,6.327a39.059,39.059,0,0,0-9.02-2.924l-5.5-18.353A22.527,22.527,0,0,1,100.8,274.734ZM69.056,244.848l10.02,33.435a39.184,39.184,0,0,0-7.552,2.178L58.412,236.635C63.326,237.6,67.652,240.675,69.056,244.848Zm-21.315,93.69L24.3,212.356a19.074,19.074,0,0,1,16.287,13.531L58.027,284.2l1.275,4.117q-.392.37-.774.753a7,7,0,0,0,.229,10.119l27.3,24.939A176.083,176.083,0,0,1,107.642,347.8a7,7,0,0,0,11.164-8.449,190.03,190.03,0,0,0-23.3-25.561L74.42,294.535a25.245,25.245,0,0,1,29.644,4.437l30.622,30.621a58.849,58.849,0,0,0,22.132,13.881l4.686,1.63a64.815,64.815,0,0,1,43,52.075l.819,14.115c.079,1.367.217,2.749.411,4.11a291.791,291.791,0,0,1,3.394,41.512v26.195a107.546,107.546,0,0,1-62.21-.082l-3.843-51.924a6.951,6.951,0,0,0-.244-1.387,31.084,31.084,0,0,0-13.8-18.164L74.72,374.136A72.334,72.334,0,0,1,47.741,338.538Z"></path><path d="M497.688,199.235a33.051,33.051,0,0,0-39.683,22.64l-.135.45c-12.484-.449-24.555,6.935-28.255,18.239-.018.056-.036.113-.053.168l-1.065,3.555a36.562,36.562,0,0,0-30.8,26.749l-7.709,26.084-22.572,22.572a44.726,44.726,0,0,1-16.834,10.559l-4.685,1.631A78.758,78.758,0,0,0,293.6,395.5q-.04.285-.057.572l-.837,14.415c-.057.978-.155,1.967-.294,2.939a305.343,305.343,0,0,0-3.534,43.49v31.325a7,7,0,0,0,4.738,6.624,123.142,123.142,0,0,0,77.5.531l1.53-.5a7,7,0,0,0,4.794-5.986l5.37-55.937a17.136,17.136,0,0,1,7.553-9.529c.129-.077.255-.157.378-.242l54.515-37.56a86.421,86.421,0,0,0,32.423-43.084,7.066,7.066,0,0,0,.25-.961l24.952-134.289A7,7,0,0,0,497.688,199.235Zm-54.744,45.613c1.4-4.175,5.731-7.253,10.646-8.213L440.6,280.061l-.124.4a39.2,39.2,0,0,0-7.552-2.178ZM411.2,274.734a22.527,22.527,0,0,1,12.6-14.766l-5.5,18.353a39.082,39.082,0,0,0-9.021,2.924l1.87-6.327C411.165,274.856,411.182,274.8,411.2,274.734Zm53.061,63.8A72.321,72.321,0,0,1,437.3,374.124l-54.325,37.43a31.086,31.086,0,0,0-13.8,18.164,6.986,6.986,0,0,0-.232,1.235l-4.992,52.011a109.221,109.221,0,0,1-61.073.147V456.916a291.84,291.84,0,0,1,3.394-41.514c.194-1.359.332-2.741.411-4.1l.819-14.118a64.815,64.815,0,0,1,43-52.075l4.686-1.63a58.849,58.849,0,0,0,22.132-13.881l30.621-30.621a25.25,25.25,0,0,1,29.645-4.437L416.5,313.793a189.962,189.962,0,0,0-23.3,25.56,7,7,0,0,0,11.164,8.449,176.014,176.014,0,0,1,21.581-23.672l27.3-24.941a7,7,0,0,0,.229-10.118q-.382-.383-.774-.753l1.294-4.181,17.426-58.251a19.07,19.07,0,0,1,16.286-13.53Z"></path><path d="M123.268,147.867a39.738,39.738,0,0,0,0,75.623,137.978,137.978,0,0,0,265.356.041,39.746,39.746,0,0,0,0-75.705,137.43,137.43,0,0,0-36.65-61.157c.073-.956.121-1.917.121-2.886a37.223,37.223,0,0,0-4.781-18.191,37.024,37.024,0,0,0-58.421-44.38l-13.18,13.18a36.9,36.9,0,0,0-39.422,0l-13.18-13.18a37.026,37.026,0,0,0-63.2,26.181,37.22,37.22,0,0,0,4.781,18.191,37,37,0,0,0-4.634,20.968A137.459,137.459,0,0,0,123.268,147.867ZM298.791,31.112a23.022,23.022,0,0,1,34.6,30.227,7,7,0,0,0,0,8.5,23.012,23.012,0,0,1-2.042,30.224,23.042,23.042,0,0,1-32.554,0L285.913,87.187c.038-.054.074-.109.112-.162.086-.121.169-.246.254-.368q.369-.531.719-1.072.146-.227.288-.454.356-.572.691-1.155c.063-.11.128-.217.19-.327q.416-.741.8-1.5c.061-.123.119-.248.18-.372.191-.393.377-.787.554-1.186.074-.168.147-.335.219-.5q.252-.588.482-1.184c.054-.141.111-.279.164-.42q.3-.793.558-1.6c.035-.109.066-.219.1-.328q.2-.657.385-1.321c.048-.175.093-.351.139-.527q.154-.608.29-1.222c.035-.16.072-.318.1-.478.115-.557.22-1.117.309-1.68.011-.07.019-.142.03-.212.076-.5.14-.994.2-1.493.019-.178.036-.356.053-.534q.06-.624.1-1.25c.011-.174.023-.346.031-.52.027-.575.045-1.15.045-1.728s-.018-1.154-.045-1.728c-.008-.174-.02-.347-.031-.52q-.039-.627-.1-1.25c-.017-.178-.034-.356-.053-.534-.056-.5-.12-1-.2-1.493-.011-.071-.019-.142-.03-.213-.089-.563-.194-1.122-.309-1.68-.033-.159-.07-.318-.1-.477q-.135-.614-.29-1.223c-.046-.176-.091-.351-.139-.527q-.18-.663-.385-1.32c-.034-.109-.065-.219-.1-.328q-.261-.807-.558-1.6c-.053-.141-.11-.28-.164-.42q-.231-.6-.482-1.185-.108-.252-.219-.5c-.177-.4-.363-.794-.554-1.186-.061-.124-.119-.249-.18-.373q-.382-.759-.8-1.5c-.062-.11-.127-.217-.19-.327q-.336-.584-.691-1.156-.143-.228-.288-.453-.349-.543-.719-1.072c-.085-.123-.168-.247-.254-.368-.038-.054-.074-.109-.112-.162ZM271.569,48.8l.007.007A22.634,22.634,0,0,1,278.9,65.588q0,.6-.03,1.2c-.023.449-.062.9-.11,1.34a22.56,22.56,0,0,1-6.328,13.4q-.417.426-.858.835l0,0,0,0A22.9,22.9,0,0,1,233.1,65.588a23.389,23.389,0,0,1,.121-2.392,22.9,22.9,0,0,1,38.35-14.4ZM180.656,31.111a23.022,23.022,0,0,1,32.553,0L226.087,43.99c-.04.055-.076.112-.116.167-.082.116-.16.234-.242.35q-.375.54-.732,1.093c-.094.146-.186.292-.278.438q-.364.584-.7,1.179c-.059.1-.121.2-.179.307q-.417.744-.8,1.508c-.06.119-.116.24-.174.359q-.291.6-.561,1.2-.11.246-.216.494-.252.594-.485,1.2c-.054.137-.11.274-.161.412q-.3.8-.559,1.6c-.035.107-.065.215-.1.323q-.206.658-.388,1.325c-.047.175-.092.35-.137.525q-.156.609-.291,1.224c-.035.159-.072.317-.1.477-.115.557-.22,1.117-.309,1.68-.011.071-.019.142-.03.213-.076.495-.14.993-.2,1.492-.019.178-.036.356-.053.535q-.06.622-.1,1.249c-.011.173-.023.346-.031.52-.027.574-.045,1.15-.045,1.728s.018,1.153.045,1.728c.008.174.02.346.031.519q.039.627.1,1.25c.017.178.034.357.053.535q.083.745.2,1.486c.01.073.019.147.03.22.089.562.194,1.121.308,1.677.034.162.071.321.107.482q.133.61.288,1.215c.046.179.092.357.141.535.118.437.246.872.38,1.3.036.114.068.23.1.344q.26.8.555,1.591c.055.149.115.3.173.445q.225.581.469,1.152c.075.178.152.354.231.531q.257.573.531,1.138c.068.139.133.28.2.418q.375.747.782,1.476c.072.128.15.254.223.382q.318.552.653,1.092c.1.167.21.332.317.5.219.34.444.675.675,1.009.1.141.193.283.293.423.035.049.067.1.1.148l-12.878,12.877a23.022,23.022,0,0,1-34.595-30.226,7,7,0,0,0,0-8.5,23.013,23.013,0,0,1,2.043-30.226Zm-9.9,78.852a37.022,37.022,0,0,0,52.353,0l13.18-13.18a36.9,36.9,0,0,0,39.422,0l13.18,13.179a37.04,37.04,0,0,0,58.433-8,123.273,123.273,0,0,1,28.805,53.318,7,7,0,0,0,5.429,5.156,25.739,25.739,0,0,1,0,50.477,7,7,0,0,0-5.43,5.157,123.97,123.97,0,0,1-240.362-.025,7,7,0,0,0-5.408-5.153,25.733,25.733,0,0,1,0-50.434,7,7,0,0,0,5.408-5.154,123.332,123.332,0,0,1,28.882-53.433A36.728,36.728,0,0,0,170.756,109.963Z"></path><path d="M320.747,202.786a20.537,20.537,0,1,0-20.536-20.536A20.56,20.56,0,0,0,320.747,202.786Zm0-27.073a6.537,6.537,0,1,1-6.536,6.537A6.544,6.544,0,0,1,320.747,175.713Z"></path><path d="M191.253,198.324a20.537,20.537,0,1,0-20.537-20.537A20.56,20.56,0,0,0,191.253,198.324Zm0-27.073a6.537,6.537,0,1,1-6.537,6.536A6.543,6.543,0,0,1,191.253,171.251Z"></path><path d="M256,304.814a44.377,44.377,0,1,0-44.378-44.377A44.428,44.428,0,0,0,256,304.814Zm0-74.754a30.377,30.377,0,1,1-30.378,30.377A30.412,30.412,0,0,1,256,230.06Z"></path><path d="M256,278.65a18.213,18.213,0,1,0-18.213-18.213A18.234,18.234,0,0,0,256,278.65Zm0-22.426a4.213,4.213,0,1,1-4.213,4.213A4.217,4.217,0,0,1,256,256.224Z"></path></svg>