<svg height='100px' width='100px'  fill="#000000" xmlns="http://www.w3.org/2000/svg" xmlns:xlink="http://www.w3.org/1999/xlink" version="1.1" x="0px" y="0px" viewBox="0 0 32 32" style="enable-background:new 0 0 32 32;" xml:space="preserve"><g><g><path d="M16.3601227,30.8992615H9.5770559c-1.8746877,0-2.4053111-2.1756935-2.4234986-3.4611015v-10.099123    c0-0.8270817,0.5238028-1.6173325,0.906652-2.194334c0.1018505-0.1532307,0.2373486-0.3578415,0.2855453-0.4569635    l0.0027285-0.1104898c0.0109119-0.2828178,0.0163689-0.4119492-0.3264675-0.7579689    c-0.8107128-0.8179874-0.8643661-1.645978-0.8680038-1.7378254L7.1535573,8.5721569    c0-0.9884963,1.2699494-1.6700768,1.6596189-1.8555903c0.0936661-0.04456,0.1964264-0.067749,0.3000956-0.067749h7.7106361    c0.1036682,0,0.2064285,0.0231891,0.3000946,0.067749c0.3896694,0.1855135,1.6596184,0.867094,1.6596184,1.8555903v3.4829264    c-0.0040913,0.1182194-0.057745,0.9462099-0.8684578,1.7641973c-0.3428364,0.3460197-0.3373795,0.4751511-0.3264675,0.7579689    l0.0031834,0.1113987c0.047287,0.099577,0.183239,0.3060064,0.2850895,0.4610558    c0.2318935,0.3523855,0.5210762,0.7916155,0.7065887,1.2626743c0.1282234,0.3251038-0.0036373,0.694767-0.308279,0.8652763    l-2.5198927,1.4118118l1.5841398,0.987587c0.1664162,0.1036701,0.2814541,0.2723598,0.3169193,0.4651489    c0.0359211,0.1927872-0.0113678,0.391943-0.1295872,0.5483551l-2.680398,3.5465832l2.8972864-1.6232433    c0.2177963-0.1209469,0.4806061-0.1186733,0.6947651,0.0068207c0.2137051,0.1250401,0.3451099,0.3546581,0.3451099,0.6024647    v4.2049732C18.7654343,28.723568,18.2348099,30.8992615,16.3601227,30.8992615z M8.5503654,12.0537195    c0.0031824,0,0.0550175,0.3701172,0.4637842,0.7825212c0.71068,0.7170467,0.7502384,1.2808619,0.7297773,1.7964811    l-0.0036373,0.1364069c0,0.3692083-0.2164326,0.6956758-0.5160732,1.1476374    c-0.2841816,0.4287729-0.673851,1.0162325-0.673851,1.4222708v10.089119    c0.0004549,0.0095482,0.0804796,2.074297,1.0266905,2.074297h6.7830667c0.9462109,0,1.0262356-2.0647488,1.0266914-2.0856628    v-3.0018654l-4.7665176,2.6703949c-0.2882738,0.1627789-0.6502066,0.099577-0.8680029-0.1505013    c-0.2168875-0.2487164-0.2300739-0.616106-0.0304642-0.8798256l4.2299814-5.5972366l-1.9378891-1.2081108    c-0.209157-0.130497-0.334197-0.3619328-0.3287411-0.6088295c0.0059109-0.2468967,0.1418638-0.4724236,0.3569317-0.5929165    l2.9668541-1.6618919c-0.0963955-0.1614151-0.2009735-0.3196468-0.2987328-0.4683313    c-0.297821-0.4528713-0.5133438-0.7802486-0.5133438-1.1485472l-0.0036373-0.1364069    c-0.020462-0.5156193,0.0190964-1.0794344,0.7297764-1.7964811c0.4237709-0.4278631,0.4637852-0.8093481,0.4651489-0.825717    l-0.0013638-3.4383669c-0.0454693-0.078661-0.3892155-0.3405628-0.731142-0.5265312H9.2815075    C8.93958,8.232049,8.5949249,8.4998608,8.542181,8.628993l0.0081844,3.4260902    C8.5503654,12.0541735,8.5503654,12.0537195,8.5503654,12.0537195z M17.5932426,14.7450304l0.0004539,0.0240984    C17.5936966,14.7604895,17.5936966,14.7527599,17.5932426,14.7450304z M8.343936,14.7450304    c-0.0004549,0.0077295-0.0004549,0.0154591-0.0004549,0.0240984L8.343936,14.7450304z"></path></g><g><path d="M17.7519302,8.0456257H8.1852493c-0.3855772,0-0.6984043-0.3128266-0.6984043-0.6984038V5.1046901    c0-0.1455011,0.0454693-0.2869096,0.1295867-0.405129C7.6650839,4.6313577,8.8277264,3.037214,11.1361885,3.037214h3.6648016    c2.3084631,0,3.4711046,1.5941436,3.5197573,1.6623471c0.0841179,0.1182194,0.1295853,0.2596278,0.1295853,0.405129v2.2425318    C18.4503326,7.7327991,18.1375065,8.0456257,17.7519302,8.0456257z M8.8836536,6.6488175h8.1698723v-1.288137    c-0.2832718-0.2964582-1.0298729-0.9266586-2.2525358-0.9266586h-3.6648016c-1.2203884,0-1.9665356,0.6274724-2.2525349,0.9271131    V6.6488175z"></path></g><g><path d="M14.1230478,4.4340219h-2.308917c-0.3855772,0-0.6984034-0.3128266-0.6984034-0.6984041V1.7990927    c0-0.3855772,0.3128262-0.698404,0.6984034-0.698404h2.308917c0.3855772,0,0.6984034,0.3128268,0.6984034,0.698404v1.9365252    C14.8214512,4.1211953,14.508625,4.4340219,14.1230478,4.4340219z M12.5125351,3.037214h0.9121084V2.4974968h-0.9121084V3.037214z    "></path></g><g><path d="M14.9082975,2.4974968h-3.8794165c-0.3855772,0-0.6984043-0.3128269-0.6984043-0.6984042    s0.3128271-0.698404,0.6984043-0.698404h3.8794165c0.3855772,0,0.6984043,0.3128268,0.6984043,0.698404    S15.2938747,2.4974968,14.9082975,2.4974968z"></path></g><g><path d="M12.2792788,27.1744385c-0.1968803,0-0.3905783-0.0827522-0.5269852-0.2396202    c-0.2168875-0.2487164-0.2300739-0.616106-0.0304642-0.8798256l4.2299814-5.5972366l-1.9378891-1.2081108    c-0.209157-0.130497-0.334197-0.3619328-0.3287411-0.6088295c0.0059109-0.2468967,0.1418638-0.4724236,0.3569317-0.5929165    l9.7644711-5.470377c0.2891827-0.1614151,0.6511154-0.0986681,0.8680038,0.1505022    c0.2173405,0.2491703,0.230072,0.6161051,0.0304642,0.8798256l-4.2313461,5.5972357l1.9387989,1.2081108    c0.2096119,0.1309509,0.3346519,0.3623886,0.329195,0.6092854c-0.0059109,0.2468967-0.1418629,0.4724236-0.3569317,0.5929165    l-9.7644711,5.4699211C12.51299,27.14534,12.3956795,27.1744385,12.2792788,27.1744385z M15.7553854,18.6894665    l1.5841398,0.987587c0.1664162,0.1036701,0.2814541,0.2723598,0.3169193,0.4651489    c0.0359211,0.193243-0.0113678,0.391943-0.1295872,0.5483551l-2.680398,3.5465832l5.825036-3.2628555l-1.5850506-0.9880428    c-0.166872-0.1041241-0.281908-0.2728138-0.3173733-0.465601c-0.0359211-0.1932449,0.0113678-0.391943,0.1295872-0.548357    l2.680397-3.5456734L15.7553854,18.6894665z"></path></g></g></svg>