<svg height='100px' width='100px'  fill="#000000" xmlns="http://www.w3.org/2000/svg" xmlns:xlink="http://www.w3.org/1999/xlink" version="1.2" baseProfile="tiny" x="0px" y="0px" viewBox="0 0 100 100" xml:space="preserve"><path d="M50,5C25.147,5,5,25.147,5,50c0,24.853,20.147,45,45,45s45-20.147,45-45C95,25.147,74.853,5,50,5z M50,87.5  c-20.678,0-37.5-16.822-37.5-37.5S29.322,12.5,50,12.5S87.5,29.322,87.5,50S70.678,87.5,50,87.5z"></path><path d="M50,17.5c-17.949,0-32.5,14.551-32.5,32.5c0,17.949,14.551,32.5,32.5,32.5S82.5,67.949,82.5,50  C82.5,32.051,67.949,17.5,50,17.5z M50,77.5c-15.164,0-27.5-12.336-27.5-27.5S34.836,22.5,50,22.5S77.5,34.836,77.5,50  S65.164,77.5,50,77.5z"></path><path d="M40,32.5c-4.136,0-7.5,3.364-7.5,7.5s3.364,7.5,7.5,7.5s7.5-3.364,7.5-7.5S44.136,32.5,40,32.5z M40,42.5  c-1.379,0-2.5-1.122-2.5-2.5s1.121-2.5,2.5-2.5s2.5,1.122,2.5,2.5S41.379,42.5,40,42.5z"></path><path d="M60,32.5c-4.136,0-7.5,3.364-7.5,7.5s3.364,7.5,7.5,7.5s7.5-3.364,7.5-7.5S64.136,32.5,60,32.5z M60,42.5  c-1.379,0-2.5-1.122-2.5-2.5s1.121-2.5,2.5-2.5s2.5,1.122,2.5,2.5S61.379,42.5,60,42.5z"></path><path d="M60,52.5c-4.136,0-7.5,3.364-7.5,7.5s3.364,7.5,7.5,7.5s7.5-3.364,7.5-7.5S64.136,52.5,60,52.5z M60,62.5  c-1.379,0-2.5-1.122-2.5-2.5s1.121-2.5,2.5-2.5s2.5,1.122,2.5,2.5S61.379,62.5,60,62.5z"></path><path d="M40,52.5c-4.136,0-7.5,3.364-7.5,7.5s3.364,7.5,7.5,7.5s7.5-3.364,7.5-7.5S44.136,52.5,40,52.5z M40,62.5  c-1.379,0-2.5-1.122-2.5-2.5s1.121-2.5,2.5-2.5s2.5,1.122,2.5,2.5S41.379,62.5,40,62.5z"></path></svg>