<svg height='100px' width='100px'  fill="#000000" xmlns="http://www.w3.org/2000/svg" xmlns:xlink="http://www.w3.org/1999/xlink" xml:space="preserve" version="1.1" style="shape-rendering:geometricPrecision;text-rendering:geometricPrecision;image-rendering:optimizeQuality;" viewBox="0 0 60000 60000" x="0px" y="0px" fill-rule="evenodd" clip-rule="evenodd"><defs><style type="text/css">
   
    .fil0 {fill:#000000;fill-rule:nonzero}
   
  </style></defs><g><path class="fil0" d="M53945.01 46756.23c-1836.09,2964.34 -3604.15,5252.6 -5794.15,6938.11 -2240.94,1724.72 -4904.69,2804.67 -8505.81,3312.3 -432.1,60.91 -869.21,113.05 -1354.52,156.01 -477.58,42.28 -1031.38,77.88 -1712.89,107.11l-31.26 0c-655.26,-27.68 -1185.6,-61.06 -1642.31,-100.43 -462.08,-39.84 -879.23,-88.23 -1293.58,-144.67 -3646.21,-496.72 -6336.73,-1571.46 -8595.61,-3297.96 -2209.07,-1688.44 -3987.96,-3987.06 -5835.87,-6970.47 -66.09,-6.88 -135.57,-13.71 -212.99,-21.3l-1.56 0c-801.46,-78.64 -2268.87,-222.63 -2531.2,-470.93 -120.73,-114.27 -191.09,-248.39 -222.12,-388.8 -33.2,-150.26 -19.33,-302.73 26.45,-440.64 42.88,-129.23 115.84,-249.11 204.56,-342.85 102.57,-108.35 230.8,-187.29 368.77,-217.78 184.3,-40.73 763.3,162.58 1352.36,423.83 305.66,135.55 626.45,287.35 897.47,425.04 2046.24,-586.02 4723.86,-2507.93 7010.96,-4149.68 1772.94,-1272.67 3318.14,-2381.78 4259.15,-2637.93 1486.95,-505.19 2603.2,-1.91 3775.36,526.68 784.62,353.82 1597.25,720.26 2535.15,739.05 942.41,-18.88 1727.56,-387.83 2481.35,-742.08 1124.45,-528.45 2187.04,-1027.72 3670.48,-523.64 941.01,256.17 2486.19,1365.27 4259.11,2637.92 2287.1,1641.75 4964.72,3563.66 7010.96,4149.68 271.02,-137.69 591.81,-289.49 897.47,-425.04 589.06,-261.25 1168.07,-464.56 1352.36,-423.83 137.99,30.52 266.22,109.44 368.77,217.79 88.71,93.71 161.67,213.61 204.57,342.85 45.77,137.92 59.66,290.38 26.44,440.63 -31.03,140.41 -101.38,274.51 -222.12,388.8 -262.33,248.3 -1729.74,392.29 -2531.2,470.93l-1.56 0c-77.42,7.59 -146.9,14.42 -212.99,21.3zm-50272.7 -38732.52c-188.98,113.04 -433.84,51.48 -546.88,-137.5 -113.04,-188.98 -51.48,-433.84 137.5,-546.88 1549.62,-930.08 3078.78,-1891.65 4579.47,-2880.54 1491.25,-982.66 2963.99,-1998.39 4410.61,-3043.26 178.63,-128.57 427.68,-88 556.25,90.63 128.57,178.63 88,427.68 -90.63,556.25 -1448.84,1046.47 -2931.04,2068.51 -4438.73,3062 -1522.11,1003 -3060.58,1970.78 -4607.59,2899.3zm190.41 7153.92c-201.93,88.02 -436.99,-4.32 -525.01,-206.25 -88.02,-201.93 4.32,-436.99 206.25,-525.01 3392.68,-1475.62 6955.72,-3440.93 10287.21,-5687.46 3176.63,-2142.1 6137.03,-4536.1 8531.35,-7000.36 153.6,-157.92 406.15,-161.41 564.07,-7.81 157.92,153.6 161.41,406.15 7.81,564.07 -2436.45,2507.61 -5439.73,4937.53 -8656.35,7106.6 -3367.29,2270.67 -6974.76,4259.77 -10415.33,5756.22zm220.09 7136.73c-205.38,79.39 -436.24,-22.75 -515.63,-228.13 -79.39,-205.38 22.75,-436.24 228.13,-515.63 5237.88,-2018.22 10827.79,-4980.73 15968.87,-8472.22 4884.9,-3317.53 9362.83,-7111.54 12745.36,-11024.93 144.11,-166.54 395.96,-184.73 562.5,-40.62 166.54,144.11 184.73,395.96 40.62,562.5 -3427.36,3965.25 -7959.9,7806.33 -12901.6,11162.43 -5191.99,3526.07 -10837.69,6518.09 -16128.25,8556.6zm227.92 7133.6c-207.1,75.07 -435.87,-31.96 -510.94,-239.06 -75.07,-207.1 31.96,-435.87 239.06,-510.94 7079.88,-2558.72 14698.29,-6519.71 21654.47,-11260.22 6601.53,-4498.83 12601.3,-9695.75 16971.05,-15057.19 138.93,-170.86 390.08,-196.75 560.94,-57.82 170.86,138.93 196.75,390.08 57.82,560.94 -4421.37,5424.78 -10480.11,10674.98 -17139.81,15213.45 -7009.35,4776.75 -14690.42,8769.61 -21832.59,11350.84zm36737.31 -2504.14c130.04,-111.86 256.17,-227.37 379.77,-346.28l-346.96 -360.02c-116.87,112.42 -236.1,221.64 -359.05,327.4l326.24 378.9zm-3782.18 1547.48c174.06,-4.16 348.57,-17.24 521.46,-37.67l-59.42 -496.46c-157.78,18.61 -316.76,30.51 -475.6,34.31l13.56 499.82zm2033.81 -440.8c159.94,-67.34 318.21,-143.12 471.42,-224.62l-235.36 -441.14c-139.9,74.53 -284.99,143.85 -431.08,205.36l195.02 460.4zm-6574.89 -1485.58c-122.95,-105.76 -242.18,-214.98 -359.05,-327.4l-346.96 360.02c123.6,118.91 249.73,234.42 379.77,346.28l326.24 -378.9zm3469.5 1426.56c-158.84,-3.8 -317.83,-15.7 -475.6,-34.31l-59.42 496.46c172.9,20.43 347.4,33.51 521.46,37.67l13.56 -499.82zm-1852.35 -401.38c-146.09,-61.51 -291.18,-130.83 -431.08,-205.36l-235.36 441.14c153.21,81.5 311.48,157.28 471.42,224.62l195.02 -460.4zm9750.65 -3918.02c-207.96,-71.62 -318.49,-298.29 -246.87,-506.25 71.62,-207.96 298.29,-318.49 506.25,-246.87 1145.17,396.9 2131.73,1239.75 2738.49,2292.55 320.54,556.18 536.37,1169.92 615.4,1806.87 79.5,640.73 21.1,1307.84 -207.48,1967.37 -384.32,1108.88 -1248.82,2182.07 -2748.37,3046.32 -190.7,109.59 -434.16,43.83 -543.75,-146.87 -109.59,-190.7 -43.83,-434.16 146.87,-543.75 1316.35,-758.66 2067.19,-1677.52 2392.13,-2615.08 185.63,-535.61 232.45,-1082.26 166.84,-1611.11 -66.08,-532.63 -245.74,-1044.41 -512.26,-1506.87 -513.37,-890.75 -1344.64,-1602.68 -2307.25,-1936.31zm-1228.42 7580.05c-105.77,110.71 -225.52,206.97 -355.09,289.79 -384.99,246.09 -856.39,368.27 -1291.01,395.04l-99.05 5.93c-731.89,43.21 -1612.13,95.4 -2580.86,1256.33 -210.8,339.43 -451.3,621.82 -755.7,796.27 -258.55,148.19 -957.64,213.88 -1602.81,181.09 -586.71,-29.82 -1170.29,-143.8 -1417.45,-355.07 -193.97,-165.8 -360.03,-379.02 -510.76,-621.26 -969.07,-1161.93 -1849.61,-1214.14 -2581.72,-1257.36l-99.05 -5.93c-434.62,-26.77 -906.02,-148.95 -1291.01,-395.04 -129.57,-82.82 -249.33,-179.09 -355.1,-289.79 -3.1,27.39 -5.5,55.29 -7.17,83.71 -12.94,220.05 -201.83,387.94 -421.88,375 -220.05,-12.94 -387.94,-201.83 -375,-421.88 17.97,-305.69 92.44,-579.16 211.07,-819.74 215.33,-436.74 571.23,-755.93 996.18,-957.3 407.37,-193.04 879.4,-276.25 1347.85,-248.7 381.53,22.44 763.54,118.56 1108.9,288.85 792.36,390.72 1219.21,1317.59 1628.77,2206.95 275.84,598.98 542.72,1178.47 867.68,1456.23 102.05,87.23 500.7,142.32 936.19,164.45 517.59,26.3 1033.17,-0.44 1168.43,-77.97 379.61,-217.56 678.93,-867.5 989.87,-1542.71 409.57,-889.36 836.41,-1816.23 1628.78,-2206.95 345.36,-170.27 727.36,-266.41 1108.9,-288.85 468.45,-27.55 940.48,55.66 1347.85,248.7 424.95,201.37 780.85,520.56 996.18,957.3 118.62,240.58 193.09,514.05 211.07,819.74 12.94,220.05 -154.95,408.94 -375,421.88 -220.05,12.94 -408.94,-154.95 -421.88,-375 -1.67,-28.42 -4.08,-56.32 -7.18,-83.71zm-783.21 -382.09c162.43,-103.82 295.95,-241.9 373.45,-419.06 -98.89,-86.75 -211.68,-159.2 -334.05,-217.18 -285.91,-135.48 -622.38,-193.58 -960.35,-173.7 -278.37,16.37 -554.98,85.48 -802.66,207.59 -398.34,196.42 -702.68,683.4 -976.56,1232.89 615.5,-290.92 1182.94,-324.55 1691.35,-354.57l99.05 -5.93c314.7,-19.38 648.66,-103.13 909.77,-270.04zm-8673.03 630.54c-273.88,-549.49 -578.21,-1036.48 -976.54,-1232.89 -247.68,-122.12 -524.3,-191.22 -802.66,-207.59 -337.97,-19.88 -674.44,38.22 -960.35,173.7 -122.37,57.98 -235.16,130.43 -334.05,217.18 77.5,177.16 211.02,315.24 373.45,419.06 261.11,166.91 595.07,250.66 909.77,270.04l99.05 5.93c508.41,30.02 1075.83,63.62 1691.33,354.57zm-7161.55 -5311.79c5.05,49.43 0.89,100.63 -13.79,151.29 -271.02,930.63 -306.57,1922.26 109.72,2852.22 352.46,787.38 1032.37,1542.91 2171.46,2199.41 190.7,109.59 256.46,353.05 146.87,543.75 -109.59,190.7 -353.05,256.46 -543.75,146.87 -1299.91,-749.19 -2085.28,-1632.53 -2502.7,-2565.03 -408.38,-912.29 -461.08,-1860.13 -296.04,-2770.57 -6878.72,4094.59 -14031.62,7489.99 -20777.94,9833.27 -207.96,71.62 -434.63,-38.91 -506.25,-246.87 -71.62,-207.96 38.91,-434.63 246.87,-506.25 8922.45,-3099.14 18570.36,-8059.08 27342.57,-14049.39 8315.89,-5678.7 15837.98,-12279.98 21198.94,-19094.55 136.34,-173.45 387.49,-203.52 560.94,-67.18 173.45,136.34 203.52,387.49 67.18,560.94 -5412.02,6879.47 -12996.79,13537.5 -21377.06,19260.17 -1906.22,1301.71 -3854.01,2555.07 -5827.02,3751.92zm4634.82 31144.12c-154.13,-54.57 -307.21,-112.81 -459.16,-173.19l-185.08 464.48c157.68,62.64 316.48,123.09 476.42,179.71l167.82 -471zm11612.24 -286c-153.43,56.41 -307.76,109.24 -463.18,159.88l153.58 475.82c161.58,-51.88 322.76,-107.82 482.04,-166.38l-172.44 -469.32zm-1888.71 551.85c-160.57,37.28 -321.37,72.53 -482.71,106.32l101.72 489.54c165.05,-34.44 329.63,-70.63 493.87,-108.76l-112.88 -487.1zm-1944.17 360.78c-163.26,22.83 -326.49,44.03 -490.18,63.57l58.32 496.58c167.47,-19.97 334.47,-41.68 501.5,-65.03l-69.64 -495.12zm-1966.46 185.44c-164.2,7.22 -328.24,12.03 -492.57,14.66l7.34 499.94c169.1,-2.62 337.99,-7.65 506.95,-15.08l-21.72 -499.52zm-1969.29 -39.65c-164.13,-11.9 -327.93,-26 -491.69,-42.14l-49.48 497.54c168.04,16.64 336.21,31.05 504.63,43.26l36.54 -498.66zm-1951.67 -254.91c-160.76,-31.61 -320.77,-65.95 -480.33,-103.14l-114.02 486.82c165.18,38.53 330.88,74.1 497.31,106.82l97.04 -490.5zm-299.67 -10391.83c-38.51,-3.49 -75.23,-12.36 -109.51,-25.78 -1791.01,-69.42 -3625.68,21.93 -5344.38,107.53 -2583.31,128.66 -4912.17,244.48 -6533.46,-216.01 1580.44,2430.07 3142.94,4338.55 5013.15,5767.99 2147.66,1641.5 4719.24,2665.15 8217.49,3141.72 379.88,51.75 780.27,97.66 1252.94,138.41 473.94,40.86 990.86,74.16 1592.23,99.76 624.12,-26.98 1163.54,-62.49 1659.85,-106.44 492.71,-43.61 913.68,-93.33 1313.9,-149.75 3454.52,-486.96 5999.21,-1514.77 8127.69,-3152.94 1852.97,-1426.12 3404.88,-3325.17 4974.57,-5738.75 -1621.29,460.5 -3950.15,344.67 -6533.46,216 -1721.23,-85.73 -3558.72,-177.22 -5351.14,-107.48 -34.25,13.4 -70.94,22.26 -109.41,25.74 -890.92,81.69 -1450.03,370.8 -1973.51,641.48 -607.55,314.15 -1173.21,606.65 -2110.16,610.39l-3.12 0c-936.95,-3.74 -1502.61,-296.24 -2110.16,-610.39 -523.48,-270.68 -1082.59,-559.79 -1973.51,-641.48zm2976.77 236.14c319.9,128.06 669.07,216.88 1108.46,218.84 442.37,-1.98 793.27,-92 1114.94,-221.45 -866.05,79.15 -1309.52,84.03 -2223.4,2.61zm17717.32 -1433.94c-2053.14,-790.72 -4478.19,-2531.43 -6580.86,-4040.79 -1718.26,-1233.42 -3214.54,-2307.49 -4014.37,-2517.79l-26.57 -7.81c-1186.79,-406.01 -2109.24,27.5 -3085.53,486.32 -830.32,390.21 -1695.24,796.69 -2812.58,817.23l-12.5 0c-1110.63,-20.41 -1999.18,-421.11 -2857.04,-807.96 -1027.17,-463.21 -2005.25,-904.26 -3199.83,-495.59l-26.57 7.81c-799.83,210.3 -2296.11,1284.37 -4014.37,2517.79 -2102.67,1509.36 -4527.72,3250.06 -6580.86,4040.79 1364.81,764.46 4013.96,632.66 7025.6,482.67 2284.82,-113.8 4771.92,-237.67 7124.19,12.47 2404.86,255.74 2433.2,252.85 4405.84,51.25 153.48,-15.68 322.99,-33.01 637.4,-64.54 2314.83,-232.17 4751.03,-110.83 6992.47,0.81 3011.63,150 5660.77,281.79 7025.58,-482.66zm2789.68 -529.71c87.87,-14.4 149.63,-27.53 175.4,-38.71l-2.45 -7.8c-2.84,-8.57 -6.41,-16.62 -10.5,-23.95 -28.83,12.14 -85.37,36.68 -162.45,70.46zm-38790.47 0c-77.06,-33.76 -133.62,-58.32 -162.43,-70.46 -4.09,7.32 -7.64,15.38 -10.48,23.94l-2.45 7.81c25.81,11.18 87.48,24.3 175.36,38.71z"></path></g></svg>