<svg height='100px' width='100px'  fill="#000000" xmlns="http://www.w3.org/2000/svg" xmlns:xlink="http://www.w3.org/1999/xlink" version="1.1" x="0px" y="0px" viewBox="0 0 100 100" style="enable-background:new 0 0 100 100;" xml:space="preserve"><path d="M31.4,11.6C24,11.6,18,17.6,18,25s6,13.4,13.4,13.4s13.4-6,13.4-13.4S38.8,11.6,31.4,11.6z M33.1,15.7  c-6.3,0-11.3,5.1-11.3,11.3c0,0.2,0,0.3,0,0.5c-0.3-1-0.5-2-0.5-3.1c0-5.3,4.3-9.6,9.6-9.6c1.7,0,3.2,0.4,4.6,1.2  C34.7,15.8,33.9,15.7,33.1,15.7z"></path><path d="M80,7.5c-7.9,0-14.3,6.4-14.3,14.3S72.1,36.2,80,36.2s14.3-6.4,14.3-14.3S87.9,7.5,80,7.5z M82.7,11.6  c-7.3,0-13.2,5.9-13.2,13.2c0,0.2,0,0.4,0,0.6c-0.4-1.1-0.6-2.3-0.6-3.6c0-6.2,5-11.2,11.2-11.2c1.9,0,3.8,0.5,5.4,1.4  C84.6,11.8,83.6,11.6,82.7,11.6z"></path><path d="M79.3,58.8c-1.5,0-2.9,0.3-4.2,1c-3.3,1.6-5.6,5-5.6,8.9c0,0.9,0.1,1.8,0.4,2.6c1.1,4.2,5,7.3,9.5,7.3  c5.4,0,9.9-4.4,9.9-9.9C89.2,63.2,84.8,58.8,79.3,58.8z M81.6,62.4c-4.7,0-8.4,3.8-8.4,8.4c0,0.1,0,0.2,0,0.4  c-0.2-0.7-0.4-1.5-0.4-2.3c0-4,3.2-7.2,7.2-7.2c1.2,0,2.4,0.3,3.4,0.9C82.9,62.5,82.3,62.4,81.6,62.4z"></path><path d="M22.2,46.4c-0.9-1.5-2.5-2.5-4.3-2.5c-2.8,0-5,2.2-5,5s2.2,5,5,5c1.2,0,2.2-0.4,3.1-1.1c1.2-0.9,1.9-2.3,1.9-3.9  C22.9,48,22.6,47.1,22.2,46.4z M19.3,45.4c-2.7,0-4.9,2.2-4.9,4.9c0,0.1,0,0.1,0,0.2c-0.1-0.4-0.2-0.9-0.2-1.3  c0-2.3,1.9-4.2,4.2-4.2c0.7,0,1.4,0.2,2,0.5C20,45.4,19.7,45.4,19.3,45.4z"></path><path d="M18.1,59.8c-2.6,0-4.8,2.1-4.8,4.8s2.1,4.8,4.8,4.8s4.8-2.1,4.8-4.8S20.7,59.8,18.1,59.8z M18.7,61.7  c-2.1,0-3.8,1.7-3.8,3.8c0,0.1,0,0.1,0,0.2c-0.1-0.3-0.2-0.7-0.2-1c0-1.8,1.4-3.2,3.2-3.2c0.6,0,1.1,0.1,1.5,0.4  C19.2,61.7,19,61.7,18.7,61.7z"></path><path d="M33.1,76.8c-1.1-2-2.9-3.5-5-4.3c-1.2-0.5-2.4-0.7-3.8-0.7c-5.6,0-10.2,4.6-10.2,10.2c0,5.6,4.6,10.2,10.2,10.2  c5.6,0,10.2-4.6,10.2-10.2C34.5,80,34,78.3,33.1,76.8z M26.5,75.6c-4.9,0-8.9,4-8.9,8.9c0,0.1,0,0.3,0,0.4c-0.3-0.8-0.4-1.6-0.4-2.5  c0-4.2,3.4-7.6,7.6-7.6c1.3,0,2.6,0.3,3.6,0.9C27.8,75.7,27.1,75.6,26.5,75.6z"></path><path d="M79.8,49.8c-1.9,0-3.5,1.6-3.5,3.5c0,1.9,1.6,3.5,3.5,3.5c1.9,0,3.5-1.6,3.5-3.5C83.3,51.4,81.8,49.8,79.8,49.8z M80.6,51  c-1.9,0-3.4,1.5-3.4,3.4c0,0,0,0.1,0,0.1c-0.1-0.3-0.2-0.6-0.2-0.9c0-1.6,1.3-2.8,2.8-2.8c0.5,0,1,0.1,1.4,0.3  C81.1,51,80.9,51,80.6,51z"></path><path d="M87.2,43.2c-2,0-3.7,1.6-3.7,3.7c0,2,1.6,3.7,3.7,3.7c2,0,3.7-1.6,3.7-3.7C90.8,44.8,89.2,43.2,87.2,43.2z M88,44.4  c-1.9,0-3.4,1.5-3.4,3.4c0,0,0,0.1,0,0.1c-0.1-0.3-0.2-0.6-0.2-0.9c0-1.6,1.3-2.8,2.8-2.8c0.5,0,1,0.1,1.4,0.3  C88.4,44.4,88.2,44.4,88,44.4z"></path><path d="M78.5,47.5c1.2,0,2.2-1,2.2-2.2c0-1.2-1-2.2-2.2-2.2s-2.2,1-2.2,2.2C76.3,46.5,77.3,47.5,78.5,47.5z M76.8,45.4  c0-0.9,0.8-1.7,1.7-1.7c0.3,0,0.6,0.1,0.8,0.2c-0.1,0-0.3,0-0.4,0c-1.1,0-2,0.9-2,2c0,0,0,0.1,0,0.1C76.8,45.7,76.8,45.6,76.8,45.4z  "></path><path d="M48.3,28.7c-0.6,0-1.2,0-1.8,0.1c-0.7,2.6-2.1,5-3.9,6.9c2.2-0.8,4.6-1.3,7.1-1.3c3.7,0,7.1,0.9,10.1,2.6  c-1.7-0.4-3.4-0.6-5.3-0.6c-13.7,0-24.7,11.1-24.7,24.7c0,0.4,0,0.7,0.1,1.1c-0.7-2.1-1.1-4.4-1.1-6.8c0-6.2,2.7-11.8,7-15.6  c-1.4,0.4-2.8,0.6-4.3,0.6c-1.5,0-2.9-0.2-4.3-0.6c-1.4,2-2.5,4.1-3.2,6.4c0.5,0.8,0.8,1.8,0.8,2.8c0,1.8-0.8,3.4-2.1,4.4  c0,0.4,0,0.8,0,1.2c0,6.6,2.5,12.7,6.6,17.2c2.1,0.8,3.9,2.4,5,4.3c4.1,2.7,9,4.3,14.2,4.3c8,0,15.1-3.6,19.9-9.3  c-0.2-0.9-0.4-1.8-0.4-2.7c0-4.2,2.4-7.7,6-9.4c0.2-1.4,0.4-2.9,0.4-4.3C74.2,40.2,62.6,28.7,48.3,28.7z"></path></svg>