<svg height='100px' width='100px'  fill="#000000" xmlns="http://www.w3.org/2000/svg" xmlns:xlink="http://www.w3.org/1999/xlink" xml:space="preserve" version="1.1" style="shape-rendering:geometricPrecision;text-rendering:geometricPrecision;image-rendering:optimizeQuality;" viewBox="0 0 846.66 846.66" x="0px" y="0px" fill-rule="evenodd" clip-rule="evenodd"><defs><style type="text/css">
   
    .fil0 {fill:#000000}
   
  </style></defs><g><path class="fil0" d="M211.66 379.1c37.47,11.15 63.54,45.81 63.54,85.09l0 53.68 32.19 0c0,27.25 0,54.49 0,81.73l-43.92 0 0 54.09 7.2 0 0 67.34c-16.99,0 -33.98,0 -50.97,0l0 -67.34 7.2 0 0 -54.09 -90.88 0 0 54.09 7.2 0 0 67.34c-16.99,0 -33.98,0 -50.97,0l0 -67.34 7.2 0 0 -54.09 -43.92 0c0,-27.24 0,-54.48 0,-81.73l32.19 0 0 -53.68c0,-40.97 28.33,-76.72 68.01,-86.29 22.35,-156.91 157.28,-273.87 316.09,-273.87 176.34,0 319.3,142.97 319.3,319.3 0,176.34 -142.96,319.3 -319.3,319.3l0 -55.44c145.73,0 263.85,-118.13 263.85,-263.86 0,-145.73 -118.12,-263.85 -263.85,-263.85 -128.7,0 -238.8,93.02 -260.16,219.62zm221.45 -158.43l-68.71 221.74 87.75 0 -61.3 217.81 208.27 -311.88 -118.41 2.11 84.94 -129.78 -132.54 0zm-192.62 479.57l9.39 0 0 -25.76 -9.39 0 0 25.76zm-127.45 0l9.39 0 0 -25.76 -9.39 0 0 25.76z"></path></g></svg>