<svg height='100px' width='100px'  fill="#1A1A1A" xmlns="http://www.w3.org/2000/svg" xmlns:xlink="http://www.w3.org/1999/xlink" version="1.1" x="0px" y="0px" viewBox="0 0 100 100" enable-background="new 0 0 100 100" xml:space="preserve"><g><path d="M79.409,51.255c0.115-1.938-0.306-4.23-1.513-4.985c-1.994-1.245-8.061-5.036-10.827-9.794   c-1.661-2.855-3.323-9.326-4.659-14.526c-0.923-3.592-1.72-6.694-2.338-7.986c-0.161-0.336-0.325-0.696-0.495-1.07   c-1.447-3.173-3.429-7.519-8.024-7.546c-2.587-0.015-5.174-0.063-7.76-0.105c-3.118-0.051-6.235-0.107-9.353-0.164   c-2.769-0.051-5.357-0.291-8.063,0.437c-2.085,0.561-4.541,1.769-5.225,3.996c-0.984,3.198-0.518,21.598-0.01,25.92   c0.084,0.709,0.177,1.582,0.28,2.555c0.501,4.703,1.257,11.81,2.421,14.287c0.713,1.517,1.958,2.712,3.91,3.748l-4.465,22.774   c-0.023,0.114-0.063,0.246-0.105,0.386c-0.162,0.537-0.383,1.272,0.161,1.683c0.441,0.326,1.045,0.441,1.613,0.305   c0.47-0.111,0.843-0.379,1.024-0.735c0.137-0.269,0.2-0.592,0.262-0.904c0.027-0.135,0.052-0.268,0.084-0.387l3.801-14.445   c0.032-0.123,0.13-0.55,0.269-1.158c0.344-1.506,0.912-3.983,1.404-5.872c0.264,0.087,0.528,0.173,0.799,0.257   c0.082,0.026,0.163,0.05,0.243,0.074l-1.834,34.729c-0.004,0.078-0.015,0.163-0.025,0.251c-0.023,0.201-0.05,0.429-0.016,0.633   c0.101,0.601,0.762,1.081,1.333,1.273C32.533,94.962,32.756,95,32.963,95c0.344,0,0.643-0.106,0.862-0.314   c0.296-0.28,0.321-0.817,0.343-1.29c0.006-0.124,0.011-0.239,0.022-0.333l0.365-3.143c0.369-3.183,0.735-6.367,1.097-9.551   l0.173-1.526c0.714-6.268,1.451-12.749,2.069-19.136c0.023-0.242,0.044-0.485,0.064-0.728l0.034-0.393   c1.582-0.044,3.564-0.206,6.497-0.444c2.052-0.167,4.548-0.37,7.646-0.592c0.514-0.037,1.007-0.07,1.5-0.102   c0.072,2.815,0.214,5.674,0.352,8.44c0.093,1.87,0.186,3.739,0.258,5.604l0.114,2.922c0.005,0.116,0.012,0.234,0.019,0.352   c0.014,0.23,0.029,0.462,0.022,0.69c-0.011,0.405,0.141,0.758,0.439,1.019c0.359,0.314,0.907,0.459,1.437,0.376   c0.949-0.15,0.988-0.651,1.038-1.287l0.005-0.066c0.062-0.777,0.071-1.571,0.079-2.34c0.004-0.384,0.008-0.767,0.019-1.149   l0.412-14.818c2.02-0.111,3.87-0.199,5.569-0.28c1.606-0.076,3.076-0.145,4.424-0.223c1.323,4.762,2.534,9.641,3.706,14.361   c0.378,1.523,0.756,3.046,1.137,4.567c0.63,2.508,1.257,5.017,1.884,7.526c0.114,0.456,0.197,0.923,0.286,1.417   c0.199,1.114,0.405,2.266,0.98,3.262c0.493,0.854,0.931,0.853,1.664,0.846l0.192-0.001c0.68,0,1.108-0.138,1.346-0.434   c0.33-0.41,0.203-0.994,0.057-1.671c-0.028-0.129-0.057-0.263-0.084-0.4l-5.859-29.927c1.868-0.244,3.312-0.568,4.545-1.023   C78.641,54.759,79.289,53.28,79.409,51.255z M68.785,45.891c-0.025,0.097-0.096,0.208-0.227,0.335   c-0.493,0.479-7.855,0.515-9.186,0.634c-1.302,0.105-2.687,0.241-4.068,0.28c-1.371,0.079-2.763,0.159-4.156,0.24   c-1.399,0.062-2.799,0.124-4.177,0.185c-1.377,0.068-2.735,0.084-4.048,0.127c-1.257,0.043-2.577,0.122-3.804,0.094   c-2.024-0.047-4.707-0.305-6.253-1.788c-0.402-0.386-0.856-1.091-0.181-1.429c0.719-0.36,1.431,0.305,1.964,0.698   c1.446,1.064,2.693,1.145,4.435,1.045c1.182-0.068,25.296-1.319,27.425-1.122C66.824,45.218,68.957,45.213,68.785,45.891z"></path></g><g><path d="M214.924,47.612c0.008-1.181,0.402-2.779-0.68-3.555c-1.191-0.854-2.885-0.849-4.261-1.188   c-2.377-0.586-4.787-1.062-7.226-1.295c-5.26-0.504-9.151-0.937-9.151-0.937c-0.243-3.007-0.588-5.862-1.41-8.766   c-0.617-2.182-1.178-4.574-2.265-6.581c-0.937-1.729-1.513-2.234-2.666-2.162c-1.153,0.072-38.332,2.306-38.332,2.306   l-20.031,1.081c0,0-1.657,0.216-2.666,1.009c-0.646,0.508-1.088,0.809-1.206,1.459c-0.033,0.182-0.04,0.392-0.02,0.641   c0.047,0.561,0.116,1.122,0.174,1.682c0.173,1.67,0.344,3.339,0.509,5.01c0.314,3.161,0.692,6.336,0.83,9.511   c0.1,2.295,0.191,4.591,0.284,6.886c0.046,1.148,0.092,2.295,0.138,3.443c0.037,0.925-0.121,1.709,0.556,2.44   c0.34,0.368,0.807,0.665,1.196,0.979c0.209,0.169,0.42,0.335,0.63,0.504c-0.095,1.803,0.078,6.715,0.078,6.715h1.225l1.319-4.616   c0.104,0.082,0.206,0.166,0.31,0.248c2.362,1.872,4.714,3.868,7.268,5.478c0.259,0.163,0.587,0.436,0.903,0.475   c0.079,0.01,0.145,0.016,0.216,0.024v7.901v0.576h1.369l0.36-0.648l1.813-8.057c7.913-1.292,49.429-8.405,64.411-11.015   c0.551,1.598,1.722,6.247,1.722,6.247l1.153,0.36v-0.72l0.282-6.439c1.358-0.239,2.159-0.384,2.24-0.406   c0.793-0.216,1.009-0.865,0.937-1.513C214.677,52.379,214.908,49.93,214.924,47.612z M208.913,50.98   c-0.085,0.009-0.158,0.016-0.208,0.027c-0.386,0.081-0.773,0.108-1.147,0.133c-0.309,0.021-0.602,0.041-0.896,0.09l-2.413,0.401   c-0.835,0.138-10.028,1.56-20.674,3.206c-14.387,2.225-30.694,4.746-32.026,4.974c-1.939,0.304-4.106,0.644-6.142,0.644   c-0.231,0-0.461-0.004-0.688-0.013c-1.267-0.063-2.266-0.246-3.148-0.576c-0.814-0.305-3.415-1.871-4.812-2.713l-0.628-0.377   c-0.112-0.067-0.257-0.123-0.407-0.183c-0.416-0.167-0.889-0.356-1.052-0.801c-0.018-0.049-0.032-0.1-0.041-0.154l-0.041-0.255   l0.256-0.037c0.527-0.074,0.959,0.186,1.339,0.418c0.118,0.072,0.236,0.144,0.356,0.205l0.668,0.34   c1.334,0.681,4.111,2.098,4.812,2.3c0.807,0.236,1.74,0.346,2.727,0.356c1.239-0.001,23.643-3.28,40.002-5.675   c10.344-1.514,18.513-2.71,19.252-2.777c0.442-0.04,0.883-0.091,1.324-0.142c0.806-0.093,1.639-0.19,2.47-0.217   c0.327-0.011,0.651-0.076,0.994-0.145c0.12-0.024,0.24-0.048,0.36-0.07c0.029-0.005,0.066-0.015,0.106-0.025   c0.225-0.056,0.534-0.134,0.725,0.054c0.075,0.074,0.152,0.21,0.098,0.441C209.974,50.863,209.336,50.933,208.913,50.98z"></path></g><path d="M383-45"></path><g><path d="M316.281,22.045h-19.685v25.471h19.685V22.045z M302.176,36.454c-0.841,0-1.522-0.681-1.522-1.522   c0-0.841,0.681-1.522,1.522-1.522s1.522,0.681,1.522,1.522C303.698,35.772,303.017,36.454,302.176,36.454z"></path><path d="M283.405,22.045h-19.685v25.471h19.685V22.045z M277.824,36.454c-0.841,0-1.522-0.681-1.522-1.522   c0-0.841,0.681-1.522,1.522-1.522s1.522,0.681,1.522,1.522C279.346,35.772,278.664,36.454,277.824,36.454z"></path><path d="M334.25,12.314H245.75c-0.414,0-0.75,0.337-0.75,0.75v3.208c0,0.414,0.337,0.75,0.75,0.75h5.7V87.24   c0,0.246,0.2,0.446,0.446,0.446h3.208c0.246,0,0.446-0.2,0.444-0.415l1.219-11.848l0.304-17.438h2.33v21.794   c0,0.203,0.159,0.368,0.354,0.368h2.546c0.195,0,0.354-0.165,0.352-0.342l0.968-9.767l0.202-12.052h52.352l0.203,12.074l0.965,9.72   c0,0.203,0.159,0.368,0.354,0.368l2.546,0.001c0.195,0,0.354-0.165,0.354-0.368V57.985h2.331l0.304,17.464l1.216,11.791   c0,0.246,0.2,0.446,0.446,0.446l3.208,0.001c0.246,0,0.446-0.2,0.446-0.447V17.022h5.7c0.414,0,0.75-0.337,0.75-0.75v-3.208   C335,12.65,334.663,12.314,334.25,12.314z M285.231,49.342h-23.338V20.218h23.338V49.342z M318.107,49.342h-23.338V20.218h23.338   V49.342z"></path></g><g><circle fill="none" cx="530" cy="19.268" r="2.167"></circle><path fill="none" d="M569.905,9.616h-79.811c-0.454,0-0.821,0.367-0.821,0.821V28.1c0,0.454,0.367,0.821,0.821,0.821h79.811   c0.454,0,0.821-0.367,0.821-0.821V10.437C570.726,9.983,570.359,9.616,569.905,9.616z M569.085,27.28h-78.169V11.257h78.169V27.28z   "></path><path fill="none" d="M569.905,31.96h-79.811c-0.454,0-0.821,0.367-0.821,0.821v17.664c0,0.454,0.367,0.821,0.821,0.821h79.811   c0.454,0,0.821-0.367,0.821-0.821V32.781C570.726,32.327,570.359,31.96,569.905,31.96z M569.085,49.624h-78.169V33.601h78.169   V49.624z"></path><path d="M573.769,5.137h-87.538c-0.68,0-1.231,0.551-1.231,1.231v48.146c0,0.68,0.551,1.231,1.231,1.231h10.359l-4.863,38.246   c-0.028,0.22,0.123,0.422,0.341,0.457l2.513,0.41c0.022,0.004,0.044,0.006,0.066,0.006c0.115,0,0.226-0.048,0.304-0.135   l1.487-1.641c0.05-0.056,0.085-0.124,0.099-0.198l7.164-37.145h1.859l-2.943,23.057c-0.026,0.21,0.111,0.406,0.317,0.453   l1.814,0.406c0.03,0.006,0.06,0.01,0.09,0.01c0.115,0,0.225-0.048,0.304-0.135l1.073-1.185c0.05-0.056,0.085-0.124,0.099-0.198   l4.322-22.408h38.728l4.322,22.408c0.014,0.074,0.049,0.142,0.099,0.198l1.073,1.185c0.079,0.087,0.189,0.135,0.304,0.135   c0.03,0,0.06-0.003,0.09-0.01l1.814-0.406c0.207-0.046,0.344-0.243,0.317-0.453l-2.943-23.057h1.859l7.164,37.145   c0.014,0.074,0.049,0.142,0.099,0.198l1.487,1.641c0.078,0.087,0.189,0.135,0.304,0.135c0.022,0,0.044-0.002,0.066-0.006   l2.513-0.41c0.219-0.035,0.369-0.237,0.341-0.457l-4.863-38.246h10.359c0.68,0,1.231-0.551,1.231-1.231V6.368   C575,5.688,574.449,5.137,573.769,5.137z M570.726,50.444c0,0.454-0.367,0.821-0.821,0.821h-79.811   c-0.454,0-0.821-0.367-0.821-0.821V32.781c0-0.454,0.367-0.821,0.821-0.821h79.811c0.454,0,0.821,0.367,0.821,0.821V50.444z    M570.726,28.1c0,0.454-0.367,0.821-0.821,0.821h-79.811c-0.454,0-0.821-0.367-0.821-0.821V10.437c0-0.454,0.367-0.821,0.821-0.821   h79.811c0.454,0,0.821,0.367,0.821,0.821V28.1z"></path><path d="M490.915,49.624h78.169V33.601h-78.169V49.624z M530,39.446c1.197,0,2.167,0.97,2.167,2.167s-0.97,2.166-2.167,2.166   s-2.167-0.97-2.167-2.166S528.803,39.446,530,39.446z"></path><path d="M490.915,27.28h78.169V11.257h-78.169V27.28z M530,17.102c1.197,0,2.167,0.97,2.167,2.167s-0.97,2.166-2.167,2.166   s-2.167-0.97-2.167-2.166S528.803,17.102,530,17.102z"></path></g><g><polygon fill="none" points="651.588,57.134 654.586,58.844 658.046,56.534 657.087,53.999  "></polygon><polygon fill="none" points="641.577,56.533 645.037,58.843 648.034,57.134 642.536,53.999  "></polygon><polygon fill="none" points="639.511,61.995 643.327,59.819 640.939,58.224  "></polygon><polygon fill="none" points="638.534,64.579 636.011,71.247 648.226,63.091 644.963,60.913  "></polygon><path fill="none" d="M660.715,54.751l-0.478-1.22c-0.166,0.003-0.326,0.007-0.499,0.01l0.563,1.487L660.715,54.751z"></path><polygon fill="none" points="656.297,59.82 660.111,61.995 658.685,58.224  "></polygon><path fill="none" d="M650,53.564c-0.269,0.025-0.543,0.04-0.823,0.04c-1.383,0-2.636-0.003-3.795-0.009l4.43,2.526l4.427-2.524   c-1.053,0.005-2.182,0.007-3.414,0.007C650.543,53.604,650.269,53.59,650,53.564z"></path><path fill="none" d="M638.908,54.75l0.415,0.278l0.565-1.494c-0.168-0.003-0.339-0.007-0.5-0.01L638.908,54.75z"></path><polygon fill="none" points="651.397,63.091 663.61,71.247 661.088,64.579 654.659,60.913  "></polygon><polygon fill="none" points="649.811,58.148 646.675,59.937 649.812,62.032 652.949,59.937  "></polygon><path d="M672.775,18.378c-8.561-4.697-8.709-13.325-22.679-13.375c-0.01,0-0.019-0.003-0.029-0.003   c-0.023,0-0.044,0.001-0.067,0.001c-0.023,0-0.044-0.001-0.067-0.001c-0.01,0-0.019,0.003-0.029,0.003   c-13.97,0.049-14.117,8.677-22.679,13.375c-1.431,0.867-10.599,0.156-9.017,3.711c1.761,3.956,2.348,21.642,2.348,21.642   c0,4.461,3.043,7.907,7.779,8.67c3.127,0.503,3.728,0.866,8.715,1.055l-10.53,26.832c-0.107,0.273-0.102,0.573,0.016,0.842   c0.117,0.269,0.333,0.477,0.606,0.584c0.556,0.222,1.211-0.069,1.427-0.622l9.68-24.664l0.435,0.29l-13.805,36.493   c-0.258,0.682,0.087,1.445,0.767,1.703c0.665,0.254,1.453-0.107,1.703-0.768l7.591-20.066l14.872-9.93l14.871,9.931l7.591,20.065   c0.193,0.511,0.69,0.854,1.235,0.854c0.16,0,0.317-0.029,0.468-0.086c0.68-0.258,1.025-1.021,0.767-1.703l-13.805-36.492   l0.435-0.29l9.68,24.663c0.216,0.553,0.874,0.842,1.426,0.623c0.274-0.107,0.49-0.315,0.607-0.584   c0.118-0.27,0.123-0.569,0.016-0.842l-10.525-26.819c5.329-0.184,5.885-0.552,9.088-1.068c4.736-0.762,7.779-4.209,7.779-8.67   c0,0,0.587-17.686,2.348-21.642C683.374,18.533,674.206,19.245,672.775,18.378z M636.011,71.247l2.523-6.668l6.429-3.666   l3.263,2.179L636.011,71.247z M660.111,61.995l-3.815-2.175l2.388-1.595L660.111,61.995z M659.737,53.542   c0.173-0.003,0.333-0.007,0.499-0.01l0.478,1.22l-0.414,0.278L659.737,53.542z M654.586,58.844l-2.998-1.71l5.498-3.135   l0.959,2.535L654.586,58.844z M649.811,56.121l-4.43-2.526c1.159,0.006,2.412,0.009,3.795,0.009c0.28,0,0.554-0.014,0.823-0.04   c0.269,0.025,0.543,0.04,0.823,0.04c1.232,0,2.361-0.003,3.414-0.007L649.811,56.121z M648.034,57.134l-2.997,1.709l-3.46-2.31   l0.959-2.534L648.034,57.134z M643.327,59.819l-3.816,2.176l1.428-3.771L643.327,59.819z M639.323,55.028l-0.415-0.278l0.481-1.226   c0.161,0.004,0.332,0.007,0.5,0.01L639.323,55.028z M646.675,59.937l3.136-1.789l3.138,1.79l-3.137,2.095L646.675,59.937z    M661.088,64.579l2.522,6.668l-12.214-8.156l3.263-2.178L661.088,64.579z M676.055,38.485c-0.092,1.815-0.158,3.126-0.42,4.019   l-0.068,0.239c-0.6,2.064-1.277,4.4-4.761,5.481c-3.004,0.932-18.137,1.017-21.14,1.025H649.6c-0.699,0-17.141-0.012-20.405-1.025   c-3.483-1.081-4.161-3.417-4.76-5.479l-0.07-0.241c-0.261-0.893-0.327-2.205-0.419-4.019c-0.143-2.813-0.337-6.665-1.359-11.677   c-0.088-0.438,0.196-0.867,0.634-0.956c0.444-0.086,0.866,0.195,0.955,0.632c1.043,5.118,1.243,9.042,1.389,11.907   c0.084,1.652,0.149,2.949,0.356,3.659l0.07,0.241c0.554,1.911,1.032,3.562,3.686,4.385c2.347,0.729,13.496,0.909,19.934,0.952   c0.176,0,18.312-0.206,20.715-0.952c2.653-0.824,3.132-2.474,3.685-4.385l0.071-0.242c0.207-0.71,0.272-2.006,0.356-3.647   c0.146-2.876,0.346-6.8,1.388-11.917c0.09-0.437,0.516-0.719,0.955-0.632h0.001c0.438,0.089,0.722,0.518,0.634,0.956   C676.392,31.82,676.197,35.672,676.055,38.485z"></path></g><path d="M811.291,60.18c-1.569-0.203-3.035,0.487-3.927,1.664c-0.614-0.048-1.189,0.181-1.611,0.578l-2.444-0.125  c-0.075-0.004-0.178,0.205-0.273,0.506l-28.384-1.229l13.007-3.222c0.104,0.167,0.227,0.263,0.37,0.221l1.944-0.566  c0.345,0.208,0.759,0.306,1.183,0.24c0.819,0.924,2.085,1.407,3.381,1.138c1.925-0.401,3.16-2.286,2.76-4.211  c-0.401-1.925-2.286-3.16-4.211-2.76c-1.296,0.27-2.264,1.218-2.646,2.392c-0.498,0.131-0.89,0.469-1.114,0.899l-1.965,0.572  c-0.067,0.019-0.09,0.252-0.073,0.56l-17.503,4.336l10.73-8.849c0.339,0.339,0.676,0.526,0.9,0.332l2.055-1.784  c0.538,0.06,1.098-0.054,1.578-0.372c1.519,0.668,3.336,0.545,4.766-0.513c2.124-1.571,2.571-4.566,1-6.69  c-1.571-2.124-4.566-2.572-6.69-1c-1.43,1.058-2.079,2.759-1.885,4.407c-0.534,0.44-0.822,1.073-0.854,1.724l-2.076,1.803  c-0.078,0.067,0.053,0.417,0.285,0.833l-11.151,9.197c-0.115-0.059-0.231-0.114-0.354-0.159V28.867  c4.153-0.308,7.357-2.261,7.357-4.631c0-2.584-3.806-4.678-8.501-4.678c-4.695,0-8.501,2.094-8.501,4.678  c0,2.37,3.205,4.323,7.358,4.631v31.234c-0.184,0.068-0.357,0.153-0.524,0.252l-8.127-14.445c0.165-0.156,0.242-0.315,0.158-0.456  l-1.04-1.737c0.114-0.387,0.103-0.812-0.068-1.205c0.687-1.027,0.833-2.374,0.244-3.559c-0.875-1.76-3.012-2.478-4.772-1.603  c-1.761,0.875-2.478,3.012-1.603,4.773c0.589,1.185,1.752,1.882,2.985,1.954c0.253,0.449,0.68,0.742,1.152,0.85l1.051,1.756  c0.034,0.056,0.24,0.026,0.509-0.056l7.856,13.964l-21.104-13.214c0.14-0.314,0.17-0.582-0.024-0.704l-2.052-1.285  c-0.089-0.474-0.331-0.92-0.727-1.246c0.173-1.466-0.403-2.98-1.675-3.922c-1.889-1.399-4.554-1.002-5.953,0.887  c-1.399,1.889-1.002,4.554,0.887,5.953c1.271,0.942,2.888,1.052,4.24,0.458c0.513,0.341,1.127,0.421,1.689,0.279l2.074,1.298  c0.077,0.048,0.336-0.15,0.628-0.451l20.501,12.836l-22.249-4.964c-0.034-0.099-0.087-0.175-0.182-0.196l-1.978-0.434  c-0.204-0.348-0.52-0.631-0.924-0.777c-0.277-1.204-1.158-2.234-2.424-2.617c-1.882-0.569-3.869,0.495-4.438,2.376  c-0.569,1.882,0.495,3.869,2.376,4.438c1.267,0.383,2.571,0.014,3.469-0.834c0.5,0.124,1.006,0.014,1.409-0.256l1.999,0.438  c0.079,0.017,0.245-0.252,0.398-0.608l22.626,5.048l-27.122,3.661c-0.076-0.256-0.193-0.432-0.374-0.409l-2.009,0.254  c-0.308-0.26-0.702-0.421-1.13-0.423c-0.664-1.041-1.839-1.717-3.161-1.654c-1.964,0.093-3.48,1.761-3.387,3.725  c0.093,1.964,1.761,3.48,3.725,3.387c1.322-0.063,2.427-0.847,2.989-1.947c0.512-0.051,0.953-0.324,1.242-0.713l2.031-0.256  c0.058-0.007,0.109-0.167,0.143-0.4l28.406-3.835l-8.743,6.082c-0.209-0.172-0.409-0.241-0.567-0.121l-1.977,1.509  c-0.488-0.086-1.005-0.014-1.461,0.249c-1.347-0.696-3.012-0.689-4.377,0.193c-2.028,1.311-2.609,4.017-1.298,6.045  c1.311,2.028,4.017,2.609,6.045,1.298c1.365-0.882,2.055-2.397,1.973-3.911c0.513-0.37,0.812-0.932,0.879-1.523l1.998-1.525  c0.086-0.065-0.055-0.482-0.298-0.951l8.976-6.244c0.59,0.554,1.379,0.9,2.253,0.9c0.879,0,1.674-0.349,2.265-0.91l10.687,6.562  c-0.185,0.388-0.255,0.734-0.026,0.858l2.001,1.085c0.111,0.439,0.365,0.844,0.755,1.127c-0.077,1.386,0.554,2.773,1.802,3.583  c1.855,1.202,4.333,0.673,5.535-1.182c1.202-1.855,0.672-4.333-1.182-5.535c-1.249-0.809-2.772-0.818-4.006-0.181  c-0.501-0.289-1.083-0.329-1.601-0.163l-2.023-1.097c-0.053-0.029-0.188,0.071-0.349,0.231l-10.343-6.351l23.105,5.155  c0.003,0.234,0.067,0.404,0.231,0.437l1.986,0.398c0.21,0.344,0.531,0.622,0.937,0.76c0.299,1.198,1.198,2.212,2.471,2.573  c1.892,0.535,3.859-0.565,4.394-2.456c0.535-1.892-0.565-3.859-2.456-4.395c-1.274-0.36-2.571,0.032-3.453,0.897  c-0.502-0.115-1.006,0.004-1.404,0.281l-2.007-0.402c-0.063-0.013-0.176,0.157-0.293,0.401l-23.303-5.199l32.123,1.391  c0.005,0.441,0.103,0.784,0.373,0.798l2.418,0.123c0.308,0.37,0.737,0.643,1.241,0.735c0.563,1.365,1.803,2.407,3.372,2.61  c2.331,0.302,4.466-1.342,4.768-3.673C815.266,62.617,813.622,60.482,811.291,60.18z"></path><g><path fill="none" d="M405.724,18.134c-1.48,0.313-2.948,0.555-4.479,0.738c-3.223,0.384-6.267,0.351-9.05-0.101l-1.52,28.459   l1.865,0.373v-2.458c0-1.488,7.922-4.083,14.656-6.019C406.619,31.118,406.022,22.478,405.724,18.134z"></path><path d="M437.241,40.882c-0.456-0.071-1.143-0.188-2.005-0.334c-5.811-0.986-19.277-3.272-24.529-2.357l-1.627-20.905   c5.326-1.609,8.052-3.761,8.828-5.251c0.249-0.477,0.316-0.924,0.193-1.291l-0.079-0.242c-0.603-1.89-1.429-4.48-13.465-5.07   c-14.479-0.71-23.088-0.719-24.132,1.334c-0.305,0.297-2.04,2.204-0.005,5.402c0.721,1.133,2.923,3.931,7.874,5.644l-2.179,46.493   v10.615c0,0.137,0.111,0.249,0.249,0.249h1.868c0.126,0,0.232-0.094,0.247-0.219l1.298-10.911l0.666-12.458l6.59,1.22   c2.55,1.094,7.424,3.06,11.606,4.022c0.011,0.02,0.026,0.039,0.043,0.056c0.181,0.45,0.628,3.634,0.967,6.478   c0.015,0.125,0.121,0.219,0.247,0.219h1.482c0.131,0,0.239-0.101,0.248-0.231l0.341-4.818l1.665,27.03l0.838,9.218   c0.012,0.128,0.119,0.226,0.248,0.226h2.375c0.137,0,0.249-0.111,0.249-0.249v-9.227l-1.017-28.73   c4.629-0.995,11.504-2.996,15.971-5.442l2.574,19.294l1.676,6.913c0.026,0.106,0.119,0.184,0.228,0.189l1.275,0.07   c0.065,0.009,0.135-0.021,0.185-0.067c0.05-0.047,0.078-0.112,0.078-0.181l-0.002-7.712l-2.498-20.507   c3.304-1.983,4.718-3.244,4.718-4.208c0-0.134,0.007-0.278,0.014-0.432C440.595,43.483,440.69,41.421,437.241,40.882z    M392.54,45.146v2.458l-1.865-0.373l1.52-28.459c2.783,0.451,5.827,0.485,9.05,0.101c1.532-0.183,2.999-0.424,4.479-0.738   c0.298,4.343,0.895,12.984,1.471,20.992C400.462,41.063,392.54,43.658,392.54,45.146z M428.799,48.533   c-0.318,0.146-7.665,3.49-13.972,3.49c-0.173,0-0.345-0.002-0.516-0.008c-6.342-0.191-11.443-1.752-11.658-1.819   c-0.396-0.123-0.617-0.542-0.494-0.938c0.123-0.395,0.542-0.617,0.938-0.495c0.051,0.016,5.13,1.567,11.259,1.752   c6.053,0.177,13.74-3.311,13.817-3.346c0.374-0.172,0.821-0.008,0.995,0.369C429.34,47.914,429.175,48.359,428.799,48.533z"></path></g><g><path fill="none" d="M905.593,55.166c-0.47-0.264-0.727-0.814-0.588-1.361c0.138-0.546,0.625-0.907,1.162-0.916   c0.142-0.799,0.226-1.617,0.248-2.45L905.456,50l0.959-0.438c-0.027-1.001-0.13-1.983-0.328-2.932   c-0.542,0.012-1.046-0.336-1.202-0.882c-0.154-0.54,0.083-1.094,0.54-1.374c-0.306-0.836-0.668-1.644-1.1-2.41l-1.051,0.116   l0.597-0.863c-0.474-0.747-1.007-1.449-1.592-2.108c-0.462,0.262-1.051,0.219-1.449-0.171c-0.401-0.392-0.454-0.984-0.197-1.452   c-0.582-0.496-1.202-0.946-1.85-1.357l-0.863,0.597l0.116-1.051c-0.907-0.511-1.866-0.935-2.869-1.268   c-0.264,0.47-0.814,0.727-1.361,0.588c-0.546-0.138-0.907-0.625-0.916-1.162c-0.799-0.142-1.617-0.226-2.451-0.248L890,34.544   l-0.438-0.959c-1.001,0.027-1.983,0.129-2.932,0.328c0.012,0.542-0.336,1.046-0.882,1.202c-0.54,0.154-1.094-0.083-1.374-0.54   c-0.836,0.306-1.643,0.668-2.41,1.1l0.116,1.051l-0.863-0.597c-0.747,0.474-1.449,1.007-2.108,1.592   c0.262,0.462,0.219,1.051-0.171,1.449c-0.392,0.401-0.984,0.454-1.452,0.197c-0.496,0.582-0.946,1.202-1.357,1.85l0.597,0.863   l-1.051-0.116c-0.511,0.907-0.935,1.866-1.268,2.869c0.47,0.264,0.727,0.814,0.588,1.361c-0.138,0.546-0.625,0.907-1.162,0.916   c-0.142,0.799-0.226,1.617-0.248,2.451L874.544,50l-0.959,0.438c0.027,1.001,0.13,1.983,0.328,2.931   c0.542-0.012,1.046,0.336,1.202,0.882c0.154,0.54-0.083,1.094-0.54,1.374c0.306,0.836,0.668,1.644,1.1,2.41l1.051-0.116   l-0.597,0.863c0.474,0.747,1.007,1.449,1.592,2.108c0.462-0.262,1.051-0.219,1.449,0.171c0.401,0.392,0.454,0.984,0.197,1.452   c0.582,0.496,1.202,0.946,1.85,1.357l0.863-0.597l-0.116,1.051c0.907,0.511,1.866,0.935,2.868,1.268   c0.264-0.47,0.814-0.727,1.361-0.588c0.546,0.138,0.907,0.625,0.916,1.162c0.799,0.142,1.617,0.226,2.451,0.248L890,65.456   l0.438,0.959c1.001-0.027,1.983-0.129,2.932-0.328c-0.012-0.542,0.336-1.046,0.882-1.202c0.54-0.154,1.094,0.083,1.374,0.54   c0.836-0.306,1.643-0.668,2.41-1.1l-0.116-1.051l0.863,0.597c0.746-0.474,1.449-1.007,2.108-1.592   c-0.262-0.462-0.219-1.051,0.171-1.449c0.392-0.401,0.984-0.454,1.452-0.197c0.496-0.582,0.946-1.202,1.357-1.85l-0.597-0.863   l1.051,0.116C904.836,57.128,905.26,56.168,905.593,55.166z M890,63.182c-7.28,0-13.182-5.902-13.182-13.182   c0-7.28,5.902-13.182,13.182-13.182S903.182,42.72,903.182,50C903.182,57.28,897.28,63.182,890,63.182z"></path><path d="M890,36.818c-7.28,0-13.182,5.902-13.182,13.182c0,7.28,5.902,13.182,13.182,13.182S903.182,57.28,903.182,50   C903.182,42.72,897.28,36.818,890,36.818z M894.679,55.43c-0.19,0.166-0.484,0.145-0.651-0.049l-3.566-4.138v6.675   c0,0.255-0.207,0.462-0.462,0.462s-0.462-0.207-0.462-0.462V50c0-0.193,0.12-0.366,0.301-0.433c0.18-0.066,0.385-0.015,0.511,0.132   l4.378,5.08C894.894,54.972,894.872,55.264,894.679,55.43z"></path><path d="M907.522,64.065l21.124,8.989l-17.945-14.318l-5.378-0.592c0.487-0.913,0.895-1.873,1.215-2.873   c0.398-0.119,0.727-0.434,0.837-0.866c0.11-0.434-0.031-0.87-0.327-1.164c0.148-0.779,0.232-1.579,0.271-2.391l4.936,2.253L935,50   l-22.746-3.103l-4.936,2.253c-0.048-0.989-0.168-1.959-0.376-2.899c0.287-0.303,0.415-0.743,0.292-1.174   c-0.124-0.435-0.47-0.742-0.879-0.845c-0.29-0.821-0.628-1.619-1.033-2.378l5.378-0.592l17.945-14.318l-21.124,8.989l-3.077,4.452   c-0.478-0.717-1.02-1.385-1.596-2.021c0.104-0.409,0.013-0.857-0.31-1.173c-0.321-0.315-0.769-0.396-1.174-0.286   c-0.557-0.484-1.137-0.941-1.752-1.352l4.453-3.077l8.989-21.124l-14.318,17.945l-0.592,5.378   c-0.913-0.487-1.873-0.895-2.873-1.215c-0.119-0.398-0.434-0.727-0.866-0.837c-0.434-0.11-0.87,0.031-1.165,0.327   c-0.779-0.148-1.579-0.232-2.391-0.271l2.253-4.936L890,5l-3.102,22.746l2.253,4.936c-0.989,0.048-1.959,0.168-2.898,0.376   c-0.303-0.287-0.743-0.415-1.174-0.292c-0.435,0.124-0.742,0.47-0.845,0.879c-0.821,0.29-1.619,0.628-2.378,1.033l-0.592-5.378   l-14.318-17.945l8.989,21.124l4.453,3.077c-0.717,0.478-1.385,1.02-2.021,1.596c-0.409-0.104-0.857-0.013-1.173,0.31   c-0.315,0.322-0.396,0.769-0.286,1.174c-0.484,0.557-0.941,1.137-1.352,1.752l-3.077-4.453l-21.124-8.989l17.945,14.318   l5.378,0.592c-0.487,0.913-0.895,1.873-1.215,2.873c-0.398,0.119-0.727,0.434-0.837,0.866c-0.11,0.434,0.031,0.87,0.327,1.164   c-0.148,0.779-0.232,1.579-0.271,2.391l-4.936-2.253L845,50l22.746,3.103l4.936-2.253c0.048,0.989,0.168,1.959,0.376,2.898   c-0.287,0.303-0.415,0.743-0.292,1.174c0.124,0.435,0.47,0.742,0.879,0.845c0.29,0.821,0.628,1.619,1.033,2.378l-5.378,0.592   l-17.945,14.318l21.124-8.989l3.077-4.453c0.478,0.717,1.02,1.385,1.596,2.021c-0.104,0.409-0.013,0.857,0.31,1.173   c0.321,0.315,0.769,0.396,1.174,0.286c0.557,0.484,1.137,0.941,1.752,1.352l-4.453,3.077l-8.989,21.124l14.318-17.945l0.592-5.378   c0.913,0.487,1.873,0.895,2.873,1.215c0.119,0.398,0.434,0.727,0.866,0.837c0.434,0.11,0.87-0.031,1.165-0.327   c0.779,0.148,1.579,0.232,2.391,0.271l-2.253,4.936L890,95l3.102-22.746l-2.253-4.936c0.989-0.048,1.959-0.168,2.898-0.376   c0.303,0.287,0.743,0.415,1.174,0.292c0.435-0.124,0.742-0.47,0.845-0.879c0.821-0.29,1.619-0.628,2.378-1.033l0.592,5.378   l14.318,17.945l-8.989-21.124l-4.453-3.077c0.717-0.478,1.385-1.02,2.021-1.596c0.409,0.104,0.857,0.013,1.173-0.31   c0.315-0.322,0.396-0.769,0.286-1.174c0.484-0.557,0.941-1.137,1.352-1.752L907.522,64.065z M903.871,58.782   c-0.412,0.648-0.862,1.268-1.357,1.85c-0.468-0.257-1.06-0.203-1.452,0.197c-0.39,0.399-0.433,0.987-0.171,1.449   c-0.659,0.585-1.362,1.118-2.108,1.592l-0.863-0.597l0.116,1.051c-0.766,0.432-1.574,0.794-2.41,1.1   c-0.279-0.457-0.834-0.694-1.374-0.54c-0.546,0.156-0.894,0.66-0.882,1.202c-0.949,0.199-1.931,0.301-2.932,0.328L890,65.456   l-0.438,0.959c-0.834-0.022-1.652-0.106-2.451-0.248c-0.01-0.537-0.371-1.024-0.916-1.162c-0.547-0.139-1.098,0.119-1.361,0.588   c-1.002-0.333-1.962-0.757-2.868-1.268l0.116-1.051l-0.863,0.597c-0.648-0.412-1.268-0.862-1.85-1.357   c0.257-0.468,0.203-1.06-0.197-1.452c-0.399-0.39-0.987-0.433-1.449-0.171c-0.585-0.659-1.118-1.362-1.592-2.108l0.597-0.863   l-1.051,0.116c-0.432-0.766-0.794-1.574-1.1-2.41c0.457-0.279,0.694-0.834,0.54-1.374c-0.156-0.546-0.66-0.894-1.202-0.882   c-0.198-0.949-0.301-1.931-0.328-2.931L874.544,50l-0.959-0.438c0.022-0.834,0.106-1.652,0.248-2.451   c0.537-0.01,1.024-0.371,1.162-0.916c0.139-0.547-0.119-1.097-0.588-1.361c0.333-1.002,0.757-1.962,1.268-2.869l1.051,0.116   l-0.597-0.863c0.412-0.648,0.862-1.268,1.357-1.85c0.468,0.257,1.06,0.203,1.452-0.197c0.39-0.399,0.433-0.987,0.171-1.449   c0.659-0.585,1.362-1.118,2.108-1.592l0.863,0.597l-0.116-1.051c0.766-0.432,1.574-0.794,2.41-1.1   c0.279,0.457,0.834,0.694,1.374,0.54c0.546-0.156,0.894-0.66,0.882-1.202c0.949-0.199,1.931-0.301,2.932-0.328L890,34.544   l0.438-0.959c0.834,0.022,1.652,0.106,2.451,0.248c0.01,0.537,0.371,1.024,0.916,1.162c0.547,0.139,1.097-0.119,1.361-0.588   c1.002,0.333,1.962,0.757,2.869,1.268l-0.116,1.051l0.863-0.597c0.648,0.412,1.268,0.862,1.85,1.357   c-0.257,0.468-0.203,1.06,0.197,1.452c0.399,0.39,0.987,0.433,1.449,0.171c0.585,0.659,1.117,1.362,1.592,2.108l-0.597,0.863   l1.051-0.116c0.432,0.766,0.794,1.574,1.1,2.41c-0.457,0.279-0.694,0.834-0.54,1.374c0.156,0.546,0.66,0.894,1.202,0.882   c0.198,0.949,0.301,1.931,0.328,2.932L905.456,50l0.959,0.438c-0.022,0.834-0.106,1.652-0.248,2.45   c-0.537,0.01-1.024,0.371-1.162,0.916c-0.139,0.547,0.119,1.097,0.588,1.361c-0.333,1.002-0.757,1.962-1.268,2.869l-1.051-0.116   L903.871,58.782z"></path></g><g><path d="M973.486,57.959c0.062,0.072,0.088,0.072,0.102,0.072h72.824c0.014,0,0.04,0,0.102-0.072   c0.964-1.108,0.724-6.51,0.233-10.223l-6.23-3.789h-61.034l-6.23,3.789C972.763,51.449,972.523,56.851,973.486,57.959z"></path><path d="M1039.17,18.627h-1.621H982.45h-1.621l-1.167,23.676h60.675L1039.17,18.627z M992.477,29.525   c-0.479,0-0.868-0.389-0.868-0.868s0.389-0.868,0.868-0.868c0.479,0,0.868,0.389,0.868,0.868S992.957,29.525,992.477,29.525z    M1004.217,29.525c-0.479,0-0.868-0.389-0.868-0.868s0.389-0.868,0.868-0.868c0.479,0,0.868,0.389,0.868,0.868   S1004.697,29.525,1004.217,29.525z M1015.461,29.525c-0.479,0-0.868-0.389-0.868-0.868s0.389-0.868,0.868-0.868   c0.479,0,0.868,0.389,0.868,0.868S1015.941,29.525,1015.461,29.525z M1027.523,29.525c-0.479,0-0.868-0.389-0.868-0.868   s0.389-0.868,0.868-0.868s0.868,0.389,0.868,0.868S1028.002,29.525,1027.523,29.525z"></path><path d="M1041.695,36.448l0.32,6.486l5.92,3.6c0.211,0.128,0.352,0.343,0.386,0.587c0.229,1.617,1.278,9.792-0.566,11.916   c-0.362,0.417-0.827,0.638-1.344,0.638h-72.824c-0.517,0-0.982-0.221-1.344-0.638c-1.845-2.124-0.795-10.299-0.566-11.916   c0.034-0.244,0.176-0.459,0.386-0.587l5.921-3.6l0.32-6.486L965,37.474v30.15h90v-30.15L1041.695,36.448z"></path><path d="M1048.027,72.369v-2.604h-76.054v2.604h1.478l-3.974,10.004h2.496l5.835-10.004h3.97c-0.25,1.017-0.652,2.467-0.652,2.467   h2.193l0.84-2.467h51.684l0.84,2.467h2.193c0,0-0.402-1.45-0.652-2.467h3.97l5.835,10.004h2.496l-3.974-10.004H1048.027z"></path></g><path d="M1155.664,6.009c0,0-11.321-1.009-25.522-1.009c-14.201,0-25.806,1.009-25.806,1.009v33.31c0,0,6.333,0.777,19.663,0.967  l-10.696,52.673c-0.187,0.921,0.408,1.819,1.328,2.006c0.114,0.023,0.228,0.034,0.341,0.034c0.792,0,1.501-0.557,1.665-1.364  l10.827-53.317c0.18,0.001,0.369,0.001,0.551,0.002v45.46c0,1.096,0.888,1.985,1.985,1.985s1.985-0.889,1.985-1.985v-45.46  c0.182-0.001,0.371-0.001,0.551-0.002l10.827,53.317c0.164,0.807,0.873,1.364,1.665,1.364c0.113,0,0.227-0.012,0.341-0.034  c0.921-0.187,1.515-1.086,1.328-2.006l-10.696-52.673c13.33-0.191,19.663-0.967,19.663-0.967V6.009z"></path></svg>