<svg height='100px' width='100px'  fill="#000000" xmlns="http://www.w3.org/2000/svg" xmlns:xlink="http://www.w3.org/1999/xlink" version="1.1" x="0px" y="0px" viewBox="0 0 100 100" style="enable-background:new 0 0 100 100;" xml:space="preserve"><path d="M11,12h17.6386719v7H15.2177734c-0.5527344,0-1,0.4477539-1,1v69c0,0.5522461,0.4472656,1,1,1H84.78125  c0.5527344,0,1-0.4477539,1-1V20c0-0.5522461-0.4472656-1-1-1H72.1386719v-7H89c0.5527344,0,1-0.4477539,1-1s-0.4472656-1-1-1H11  c-0.5527344,0-1,0.4477539-1,1S10.4472656,12,11,12z M83.78125,88H16.2177734V21H83.78125V88z M70.1386719,19h-39.5v-7h39.5V19z"></path><path d="M29.6855469,63.5820312h6.8310547c0.5527344,0,1-0.4477539,1-1v-3.8349609  c0-2.4350586-1.9814453-4.4160156-4.4160156-4.4160156s-4.4150391,1.980957-4.4150391,4.4160156v3.8349609  C28.6855469,63.1342773,29.1328125,63.5820312,29.6855469,63.5820312z M30.6855469,58.7470703  c0-1.3320312,1.0830078-2.4160156,2.4150391-2.4160156s2.4160156,1.0839844,2.4160156,2.4160156v2.8349609h-4.8310547V58.7470703z"></path><path d="M63.4833984,63.5820312h6.8310547c0.5527344,0,1-0.4477539,1-1v-3.8349609  c0-2.4350586-1.9804688-4.4160156-4.4150391-4.4160156s-4.4160156,1.980957-4.4160156,4.4160156v3.8349609  C62.4833984,63.1342773,62.9306641,63.5820312,63.4833984,63.5820312z M64.4833984,58.7470703  c0-1.3320312,1.0839844-2.4160156,2.4160156-2.4160156s2.4150391,1.0839844,2.4150391,2.4160156v2.8349609h-4.8310547V58.7470703z"></path><path d="M22.25,46.144043h0.8378906V82.5c0,0.5522461,0.4472656,1,1,1h51.8242188c0.5527344,0,1-0.4477539,1-1V46.144043H77.75  c0.2900391,0,0.5654297-0.1259766,0.7558594-0.3447266c0.1894531-0.2192383,0.2753906-0.5102539,0.234375-0.796875  l-2.1914062-15.2983398c-0.0712891-0.4926758-0.4931641-0.8583984-0.9902344-0.8583984H54.0391846l-3.4298096-2.6381836  c-0.359375-0.2763672-0.859375-0.2763672-1.21875,0l-3.4298096,2.6381836H24.4414062  c-0.4970703,0-0.9189453,0.3657227-0.9902344,0.8583984l-2.1914062,15.2983398  c-0.0410156,0.2866211,0.0449219,0.5776367,0.234375,0.796875C21.6845703,46.0180664,21.9599609,46.144043,22.25,46.144043z   M54.5839844,71.6572266h-9.1679688V57.9594727C45.4160156,55.4316406,47.4726562,53.375,50,53.375  s4.5839844,2.0566406,4.5839844,4.5844727V71.6572266z M59.9404297,73.6572266v3.1289062H40.1494141v-3.1289062H59.9404297z   M38.2910156,78.7861328h23.5068359V81.5H38.2910156V78.7861328z M74.9121094,81.5H63.7978516v-3.7138672  c0-0.5522461-0.4472656-1-1-1h-0.8574219v-4.1289062c0-0.5522461-0.4472656-1-1-1h-4.3564453V57.9594727  C56.5839844,54.3286133,53.6308594,51.375,50,51.375s-6.5839844,2.9536133-6.5839844,6.5844727v13.6977539h-4.2666016  c-0.5527344,0-1,0.4477539-1,1v4.1289062h-0.8583984c-0.5527344,0-1,0.4477539-1,1V81.5h-11.203125V46.144043h49.8242188V81.5z   M50,28.2617188l5.4482422,4.1904297v7.8671875H44.5517578v-7.8671875L50,28.2617188z M25.3085938,30.8457031h18.052124  l-0.418335,0.3217773c-0.2460938,0.1889648-0.390625,0.4819336-0.390625,0.7924805v9.359375c0,0.5522461,0.4472656,1,1,1h12.8964844  c0.5527344,0,1-0.4477539,1-1v-9.359375c0-0.3105469-0.1445312-0.6035156-0.390625-0.7924805l-0.418335-0.3217773h18.052124  l1.9052734,13.2983398H23.4033203L25.3085938,30.8457031z"></path></svg>