<svg height='100px' width='100px'  fill="#000000" xmlns="http://www.w3.org/2000/svg" xmlns:xlink="http://www.w3.org/1999/xlink" version="1.1" x="0px" y="0px" viewBox="0 0 100 100" enable-background="new 0 0 100 100" xml:space="preserve"><path d="M92.7349548,33.5538559c0.0195694-0.1989326,0.0124512-0.4002762-0.0441818-0.5970802l-3.0133667-10.4803905v-0.0004482  c-0.0976105-0.3386002-0.306076-0.6349792-0.5874329-0.872879c0.2700272-0.4109287,0.4298248-0.9005795,0.4298248-1.4280186  v-5.0067244c0-1.4393997-1.1707153-2.6101179-2.6101151-2.6101179H13.0903187c-1.4393997,0-2.6101179,1.1707182-2.6101179,2.6101179  v5.0067244c0,0.5274391,0.1597967,1.0171452,0.4298239,1.4280739c-0.2814093,0.2380123-0.4897614,0.5345039-0.5870972,0.8732719  l-3.013813,10.4803905c-0.0566297,0.1968575-0.0638061,0.3982582-0.0441823,0.5972481  c-0.0925136,0.1522827-0.1600204,0.3208237-0.1600204,0.5120201v4.2627449c0,0.5563164,0.4509058,1.0072784,1.0073328,1.0072784  h4.0910082v45.5880203c0,1.3882675,1.1299,2.5177155,2.5181646,2.5177155h70.5574951  c1.3882675,0,2.5177231-1.1294479,2.5177231-2.5177155V39.3360672h4.0911713c0.5563202,0,1.0072784-0.4509621,1.0072784-1.0072784  v-4.2627449C92.8950882,33.874794,92.8274689,33.7061386,92.7349548,33.5538559z M12.1335592,15.1683149  c0-0.5274963,0.4292631-0.9567595,0.9567595-0.9567595h73.8193665c0.5274963,0,0.9567566,0.4292631,0.9567566,0.9567595v5.0067244  c0,0.3652325-0.2128906,0.6729393-0.5146027,0.834137H12.64816c-0.3017073-0.1611977-0.5146008-0.4689045-0.5146008-0.834137  V15.1683149z M59.0943146,82.9741211c-0.0052719-0.0001678-0.0096474-0.0030212-0.0149727-0.0030212H40.9206581  c-0.0053253,0-0.009758,0.0028534-0.0150833,0.0030212V53.000721h18.1887398V82.9741211z M40.9055748,52.0820885v-6.3155975  h8.6350517v6.3155975H40.9055748z M59.0943146,52.0820885H50.459259v-6.3155975h8.6350555V52.0820885z M86.0508728,84.9240875  c0,0.4256744-0.346283,0.7719574-0.7719574,0.7719574H60.3033257c0.1053543-0.2722168,0.1689339-0.5652847,0.1689339-0.8742294  V44.7577019c0-0.4632988-0.1370316-0.8923378-0.3623695-1.2614365c-0.1036186-0.1697197-0.221138-0.3294067-0.3617592-0.4685135  c-0.4403648-0.4358215-1.0448418-0.706131-1.7119484-0.706131H41.963707c-0.6671638,0-1.2716408,0.2703667-1.7120056,0.7061882  c-0.1405106,0.1391068-0.2580299,0.2986794-0.3615913,0.4682884c-0.2254524,0.3691559-0.362484,0.7982521-0.362484,1.2616043  v40.0641136c0,0.3089447,0.0635834,0.6020126,0.1689377,0.8742294H14.7214174c-0.4261227,0-0.7724047-0.346283-0.7724047-0.7719574  V39.3360672h72.10186V84.9240875z M90.3744583,33.5636673h-2.5778198h-1.7457657h-72.10186h-1.74576H9.6254311  c-0.3368616,0-0.5472317-0.1197624-0.6203461-0.1892891l0.0907202-0.3156128l2.8997688-10.0871792  c0.0358839-0.063694,0.2722702-0.21665,0.6432219-0.21665h0.1524515c0.0993538,0.011549,0.1966896,0.03022,0.2990713,0.03022  h73.8193665c0.1023788,0,0.1997147-0.018671,0.2990723-0.03022h0.1523361c0.3646698,0,0.5988159,0.1475735,0.6414261,0.2135105  l2.9015121,10.0903187l0.0907745,0.3156128C90.9216919,33.4439049,90.711319,33.5636673,90.3744583,33.5636673z   M42.178112,68.7713242h1.5255241c0.3709526,0,0.6728249-0.3014297,0.6728249-0.6723785v-6.0823517  c0-0.3709526-0.3018723-0.6723785-0.6728249-0.6723785H42.178112c-0.3709488,0-0.6723747,0.3014259-0.6723747,0.6723785v6.0823517  C41.5057373,68.4698944,41.8071632,68.7713242,42.178112,68.7713242z M42.4243698,62.2628479h1.0334587v5.5898438h-1.0334587  V62.2628479z M64.5706711,83.5429993h17.7500534c1.2478714,0,2.2633896-1.0155182,2.2633896-2.2633896V44.5850105  c0-1.2478676-1.0155182-2.2633896-2.2633896-2.2633896H64.5706711c-1.2478676,0-2.2633896,1.015522-2.2633896,2.2633896v36.6945992  C62.3072815,82.5274811,63.3228035,83.5429993,64.5706711,83.5429993z M63.6852303,44.5850105  c0-0.4880257,0.397419-0.8854408,0.8854408-0.8854408h17.7500534c0.4880219,0,0.885437,0.3974152,0.885437,0.8854408v36.6945992  c0,0.4880219-0.3974152,0.885437-0.885437,0.885437H73.905014v-5.9510345l4.0319672,0.0396423l-1.1170578-7.3490601H73.905014  v-0.2026825l2.8897858,0.0303268c0.1122513,0.001236,0.1932144-0.1014252,0.1666412-0.2086258  c-0.6520233-2.6310883-0.6287537-5.2805672-0.5069733-6.9801826l1.4597473,2.6503716l1.5369034-0.9301796l-1.7626877-3.2005234  c-0.2534332-0.4601021-0.7430267-0.7467804-1.2755127-0.7467804h-1.4537506  c-0.022377,0.1471786-0.0687408,0.284771-0.1260986,0.4159164c-0.0379028-0.2270775-0.0659409-0.4736671-0.0659409-0.7604027  V58.512516h-2.6428604v0.4593163c0,0.2866783-0.028038,0.5332146-0.0658798,0.7602348  c-0.0573578-0.1310883-0.1036758-0.2686234-0.1260452-0.4157486h-1.4537506c-0.5324326,0-1.0220795,0.2866783-1.2754593,0.7467232  l-1.7627487,3.2005806l1.5369644,0.9301796l1.4596939-2.6503181c0.1217804,1.6995621,0.14505,4.3490944-0.5069733,6.9801292  c-0.0265808,0.1072006,0.05439,0.2098618,0.1666336,0.2086258l2.889679-0.0303268v0.2026825h-2.9147949l-1.1170578,7.3490601  l4.0318527-0.0396423v5.9510345h-8.4157104c-0.4880219,0-0.8854408-0.3974152-0.8854408-0.885437V44.5850105z M73.445755,60.6742477  c-0.2281418,0-0.4414291-0.0573578-0.6354828-0.1509933c0.0983963-0.3091049,0.1808777-0.6658173,0.2146835-1.0921097h0.8414841  c0.0338058,0.4262924,0.1162872,0.7830582,0.2147446,1.0921097C73.8871307,60.61689,73.6738968,60.6742477,73.445755,60.6742477z   M65.0721512,49.8424759c-0.1794205-0.1794205-0.1794205-0.4700813,0-0.6495018l3.5982742-3.598278  c0.1794205-0.1794205,0.4700851-0.1794205,0.649498,0c0.1794205,0.1794205,0.1794205,0.4700813,0,0.6495018l-3.5982742,3.598278  c-0.0897064,0.0897102-0.2072296,0.1345634-0.3247452,0.1345634C65.2793808,49.9770393,65.1618576,49.9321861,65.0721512,49.8424759  z M67.8280487,49.1929741l3.5982742-3.598278c0.1794205-0.1794205,0.4700775-0.1794205,0.649498,0s0.1794205,0.4700813,0,0.6495018  l-3.5982742,3.598278c-0.0897064,0.0897102-0.2072296,0.1345634-0.3247452,0.1345634  c-0.1175232,0-0.2350464-0.0448532-0.3247528-0.1345634C67.6486282,49.6630554,67.6486282,49.3723946,67.8280487,49.1929741z   M17.679163,83.5429993h17.7500553c1.2478676,0,2.2633858-1.0155182,2.2633858-2.2633896V44.5850105  c0-1.2478676-1.0155182-2.2633896-2.2633858-2.2633896H17.679163c-1.2478695,0-2.2633886,1.015522-2.2633886,2.2633896v36.6945992  C15.4157743,82.5274811,16.4312935,83.5429993,17.679163,83.5429993z M33.5968857,82.1650467h-4.5740395H28.946312v-5.279892  h4.6505737V82.1650467z M16.7937222,44.5850105c0-0.4880257,0.3974171-0.8854408,0.8854408-0.8854408h17.7500553  c0.4880219,0,0.885437,0.3974152,0.885437,0.8854408v36.6945992c0,0.4880219-0.3974152,0.885437-0.885437,0.885437h-0.7223358  h-0.0765343v-5.279892h0.5454369v-1.224823h-7.8083725v1.224823h0.5454369v5.279892h-3.8561916v-9.2627945h2.5405369  c0.0376778,0,0.0737305-0.0169373,0.1001396-0.0469284c0.0264645-0.0299454,0.0410423-0.0705948,0.0404816-0.1128693  l-0.0902157-7.1065598l1.476181,0.8956451c0.0339775,0.020462,0.0733948,0.0248947,0.1098385,0.0115509  c0.0365582-0.0130692,0.0666656-0.0423355,0.0834866-0.0807419l1.0076694-2.3098679  c0.0334187-0.0768738,0.0060005-0.1697769-0.0618992-0.2090797l-3.409771-1.9711037  c-0.2033062,0.2920074-0.4594288,0.5287323-0.7379799,0.7291222c-0.1100616-0.33535-0.196352-0.7689285-0.196352-1.3181801  v-0.4593163h-2.6424141v0.4593163c0,0.5494194-0.0863457,0.9831123-0.1962967,1.3183479  c-0.2785492-0.2003899-0.534729-0.4371681-0.7380905-0.7291756l-3.4096031,1.9709892  c-0.0680676,0.0393028-0.095541,0.132206-0.0618992,0.2090797l1.0076694,2.3098679  c0.016819,0.0384064,0.0469856,0.0676727,0.0834293,0.0807419c0.0365562,0.0132294,0.0762539,0.009079,0.1098957-0.0115509  l1.4762363-0.8956451l-0.0903263,7.1065598c-0.0005054,0.0422745,0.0141296,0.0829239,0.0405369,0.1128693  c0.0262413,0.0299911,0.0625172,0.0469284,0.1000271,0.0469284h2.5400887v9.2627945H17.679163  c-0.4880238,0-0.8854408-0.3974152-0.8854408-0.885437V44.5850105z M23.5975666,63.2205048  c-0.2408161,0-0.4726601-0.0372849-0.6952534-0.1007004c0.1269398-0.3440933,0.2340317-0.7641068,0.2747364-1.2772484h0.8410339  c0.0407047,0.5131416,0.1477966,0.9331551,0.2747364,1.2772484C24.0702267,63.1832733,23.8383827,63.2205048,23.5975666,63.2205048z   M18.2219086,49.8424759c-0.1794205-0.1794205-0.1794205-0.4700813,0-0.6495018l3.5982761-3.598278  c0.1794186-0.1794205,0.4700813-0.1794205,0.6494999,0c0.1794205,0.1794205,0.1794205,0.4700813,0,0.6495018l-3.5982742,3.598278  c-0.0897102,0.0897102-0.2072296,0.1345634-0.3247509,0.1345634C18.4291401,49.9770393,18.3116188,49.9321861,18.2219086,49.8424759  z M20.9778061,49.1929741l3.5982742-3.598278c0.1794205-0.1794205,0.4700813-0.1794205,0.6495018,0s0.1794205,0.4700813,0,0.6495018  l-3.5982742,3.598278c-0.0897102,0.0897102-0.2072315,0.1345634-0.3247509,0.1345634  c-0.1175213,0-0.2350407-0.0448532-0.3247509-0.1345634C20.7983856,49.6630554,20.7983856,49.3723946,20.9778061,49.1929741z   M28.2965851,71.8709793c-0.0045414,0.0214157-0.0064468,0.0434494-0.01054,0.065033v0.5665207v2.9281464h5.9711075V72.502533  v-0.5698242c-0.0039253-0.0204697-0.0058861-0.0413818-0.0102043-0.0617294  c-0.2917824-1.3755417-1.513916-2.4114151-2.9751816-2.4114151S28.5883675,70.4954376,28.2965851,71.8709793z M31.2715988,74.224968  c-0.334507,0-0.605711-0.2184982-0.605711-0.4880219s0.271204-0.4880219,0.605711-0.4880219  c0.3345642,0,0.6057682,0.2184982,0.6057682,0.4880219S31.606163,74.224968,31.2715988,74.224968z M31.2717667,70.3781967  c0.9498062,0,1.7466583,0.6311111,2.0175819,1.4927826h-4.035162  C29.5251102,71.0093079,30.3219604,70.3781967,31.2717667,70.3781967z"></path></svg>