<svg height='100px' width='100px'  fill="#000000" xmlns="http://www.w3.org/2000/svg" viewBox="0 0 52 70" x="0px" y="0px"><path fill="#000000" d="M484.86,898.689 C486.666,898.726 488.452,899.293 490.215,899.632 C491.675,899.911 492.274,899.535 493.549,898.77 C495.721,897.467 497.639,897.665 499.755,898.868 C502.746,900.571 505.861,897.642 509.179,897.958 C511.053,898.136 512.325,899.497 514.068,899.774 C516.919,900.225 514.4,903.017 513.579,901.384 C513.66,901.599 513.807,901.737 514.018,901.798 C511.742,901.188 509.854,899.614 507.363,899.997 C504.02,900.51 502.048,902.472 498.766,900.605 C495.89,898.971 494.788,901.007 492.169,901.747 C489.93,902.379 487.122,900.745 484.837,900.688 C485.313,903.408 487.48,905.762 487.277,908.614 C487.082,911.352 484.256,913.711 484.653,916.453 C485.007,918.933 487.547,920.477 488.2,922.875 C488.973,925.713 486.772,927.925 485.472,930.223 C483.907,932.991 485.284,935.003 486.711,937.471 C488.503,940.568 487.972,943.314 486.412,946.392 C485.058,949.08 484.3,951.053 485.822,953.832 C487.508,956.911 487.051,959.272 485.917,962.487 C489.792,960.175 492.676,964.331 496.284,964.399 C498.272,964.437 499.816,962.472 501.881,962.472 C504.113,962.472 505.823,963.784 507.801,964.601 C509.664,965.37 510.922,964.063 512.587,963.32 C514.683,962.384 516.822,963.035 518.784,963.95 C522.891,965.844 526.581,960.553 530.571,962.588 C530.163,960.137 528.744,958.105 528.164,955.712 C527.421,952.648 529.281,950.542 530.415,947.891 C531.493,945.37 529.801,943.506 529.08,941.179 C528.174,938.253 529.609,935.411 530.502,932.672 C531.36,930.036 530.613,928.026 529.715,925.503 C528.714,922.688 528.986,920.735 530.289,918.07 C531.864,914.98 530.957,913.42 529.949,910.336 C528.955,907.295 529.746,903.572 530.761,900.641 C527.993,902.273 526.582,902.792 523.617,901.185 C522.528,900.595 521.263,899.884 520.034,900.498 C518.583,901.224 518.159,898.999 519.781,898.436 C522.673,897.433 524.498,900.638 527.093,900.352 C527.961,900.257 533.296,896.174 533.483,899.029 C533.562,900.244 532.352,902.105 532.065,903.338 C531.703,904.891 531.468,906.516 531.565,908.113 C531.748,911.107 534.005,913.354 533.134,916.507 C532.507,918.775 530.58,920.682 531.099,923.167 C531.734,926.21 533.539,928.762 532.777,931.999 C532.155,934.64 530.215,937.525 530.916,940.316 C531.617,943.102 533.581,945.139 532.459,948.174 C531.594,950.513 529.456,952.612 530.115,955.272 C530.754,957.85 532.158,960.019 532.616,962.678 C532.787,963.667 533.264,964.626 532.354,965.318 C532.557,967.309 530.608,966.03 530.219,965.159 C529.127,962.713 524.149,965.766 522.587,966.32 C520.22,967.161 518.577,965.829 516.371,965.1 C513.258,964.072 511.43,967.49 508.542,966.91 C506.552,966.514 504.98,965.135 503.044,964.622 C500.865,964.044 499.259,965.808 497.261,966.301 C493.767,967.165 490.482,962.409 487.09,964.131 C486.036,964.667 484.808,967.899 483.445,965.873 C482.479,964.438 484.42,960.887 484.799,959.525 C485.421,957.296 484.593,955.907 483.619,953.94 C482.521,951.725 482.745,949.536 483.731,947.327 C484.585,945.416 485.936,943.535 485.936,941.366 C485.936,939.327 484.372,937.658 483.497,935.928 C482.494,933.946 482.412,931.83 483.414,929.826 C484.281,928.091 486.324,926.191 486.383,924.183 C486.438,922.337 484.544,920.717 483.637,919.273 C482.443,917.37 482.405,915.344 483.292,913.304 C484.008,911.661 485.453,909.866 485.262,907.966 C485.028,905.606 483.389,903.579 482.91,901.26 C481.1,900.069 483.803,898.668 484.86,898.689 Z M501.941,940.136 C506.407,936.844 512.509,937.741 516.172,941.793 C518.209,944.047 519.154,946.839 519.65,949.788 C519.947,951.558 520.113,953.351 520.165,955.143 C520.205,956.5 520.516,955.937 521.624,956.074 C522.301,956.157 522.976,956.265 523.658,956.294 C525.705,956.381 524.502,949.98 524.426,948.797 C524.204,945.324 524.567,941.849 524.357,938.379 C523.934,931.376 524.155,924.498 524.119,917.486 C524.104,914.782 524.455,912.089 524.431,909.382 C524.421,908.227 524.74,907.251 523.408,907.45 C522.29,907.617 521.211,907.527 520.083,907.44 C516.998,907.203 513.919,907.589 510.828,907.619 C507.3,907.653 503.771,907.538 500.244,907.483 C498.018,907.449 495.85,907.285 493.632,907.133 C492.564,907.06 491.8,906.781 491.748,908.033 C491.681,909.662 492.023,911.303 492.21,912.915 C492.313,913.8 492.847,916.038 491.789,916.566 C490.329,917.296 490.387,915.313 490.347,914.531 C490.221,912.086 488.835,908.458 490.143,906.18 C491.272,904.213 494.51,905.189 496.317,905.365 C498.999,905.627 501.751,905.509 504.443,905.562 C507.756,905.627 511.074,905.678 514.384,905.521 C517.019,905.395 520.004,905.911 522.571,905.551 C525.347,905.161 526.324,905.865 526.428,908.682 C526.531,911.444 526.119,914.186 526.119,916.942 C526.117,923.485 525.492,930.137 526.216,936.646 C526.58,939.93 526.285,943.214 526.336,946.506 C526.378,949.241 527.182,952.11 526.708,954.827 C526.08,958.431 524.56,958.451 521.382,958.057 C518.443,957.69 515.277,957.782 512.315,957.743 C506.381,957.664 500.54,959.127 494.59,958.953 C490.627,958.838 489.871,957.487 490.039,953.57 C490.18,950.3 490.34,947.076 490.351,943.799 C490.374,935.958 490.446,928.117 490.446,920.277 C490.446,918.569 492.446,919.389 492.446,920.883 C492.445,922.515 492.442,924.146 492.436,925.778 C492.419,930.225 492.391,934.673 492.37,939.121 C492.353,942.509 492.478,945.928 492.323,949.312 C492.23,951.334 491.945,953.356 492.024,955.383 C492.106,957.538 494.501,956.985 496.275,956.948 C496.275,950.834 496.545,944.114 501.941,940.136 Z M518.179,955.96 C518.131,949.39 516.051,939.299 507.351,940.119 C499.137,940.894 498.156,950.446 498.275,956.868 C505.026,956.482 511.386,955.694 518.179,955.96 Z M507.005,933.043 C510.434,934.056 512.91,930.517 513.082,927.514 C513.182,925.777 512.682,924.016 511.629,922.624 C510.4,920.994 508.422,921.784 506.871,921.579 C504.768,921.301 506.834,919.429 508.003,919.368 C509.764,919.276 512.112,919.95 513.224,921.417 C517.018,926.434 514.084,937.515 506.246,934.954 C503.091,933.924 501.607,930.356 501.747,927.259 C501.814,925.776 502.113,923.193 503.43,922.245 C504.109,921.758 505.276,922.047 505.338,922.976 C505.393,923.792 504.473,923.999 504.243,924.741 C503.365,927.574 503.538,932.019 507.005,933.043 Z" transform="translate(-482 -897)"></path></svg>