<svg height='100px' width='100px'  fill="#000000" xmlns:x="http://ns.adobe.com/Extensibility/1.0/" xmlns:i="http://ns.adobe.com/AdobeIllustrator/10.0/" xmlns:graph="http://ns.adobe.com/Graphs/1.0/" xmlns="http://www.w3.org/2000/svg" xmlns:xlink="http://www.w3.org/1999/xlink" version="1.1" x="0px" y="0px" viewBox="-247 370.9 100 100" style="enable-background:new -247 370.9 100 100;" xml:space="preserve"><g><path d="M-235.8,414.1l82.2-19.1l-5.2-22.2l-86.5,20.1l4.8,21.2v22.8v31h88.8V437v-22.9H-235.8z M-187.9,383.6l11.2-2.6l12.9,12.2    l-11.2,2.7L-187.9,383.6z M-195.2,400.6l-10.9,2.5l-13-12.2l10.9-2.5L-195.2,400.6z M-239.3,395.6l12.9,12.2l-10.7,2.5l-3.4-14.4    L-239.3,395.6z M-236.5,433v-14.9h11l-9.8,14.8L-236.5,433L-236.5,433z M-204.7,418.1h11.2l-9.8,14.8h-11.2L-204.7,418.1z     M-172.7,418.1h11.5L-171,433h-11.5L-172.7,418.1z M-155.7,463.9h-80.8V437h80.8V463.9z"></path><rect x="-231.2" y="443.4" width="45" height="4"></rect><rect x="-231.2" y="452.4" width="45" height="4"></rect></g></svg>