<svg height='100px' width='100px'  fill="#000000" xmlns="http://www.w3.org/2000/svg" xmlns:xlink="http://www.w3.org/1999/xlink" version="1.1" x="0px" y="0px" viewBox="0 0 35 35" enable-background="new 0 0 35 35" xml:space="preserve"><g><path d="M11.5,19.5c0,2.7,1.8,5,4.2,5.7c0,0,0,0,0,0l1.7,8.3l1.7-8.3c2.5-0.7,4.3-3,4.3-5.7c-1.7,1.3-3.7,2-6,2   C15.3,21.5,13.2,20.8,11.5,19.5z"></path><path d="M8.5,10.5c0,2.6,1.1,4.9,2.8,6.5c1.6,1.5,3.8,2.5,6.2,2.5c2.4,0,4.6-1,6.2-2.5c1.7-1.6,2.8-3.9,2.8-6.5c0-5-4-9-9-9   C12.5,1.5,8.5,5.5,8.5,10.5z M21.5,17.5c-0.6,0-1-0.4-1-1c0-0.6,0.4-1,1-1s1,0.4,1,1C22.5,17.1,22.1,17.5,21.5,17.5z M21.5,11.5   c0.6,0,1,0.4,1,1s-0.4,1-1,1s-1-0.4-1-1S20.9,11.5,21.5,11.5z M20.5,8.5c0-0.6,0.4-1,1-1s1,0.4,1,1s-0.4,1-1,1S20.5,9.1,20.5,8.5z    M23.5,15.5c-0.6,0-1-0.4-1-1s0.4-1,1-1s1,0.4,1,1S24.1,15.5,23.5,15.5z M23.5,11.5c-0.6,0-1-0.4-1-1c0-0.6,0.4-1,1-1s1,0.4,1,1   C24.5,11.1,24.1,11.5,23.5,11.5z M23.5,5.5c0.6,0,1,0.4,1,1c0,0.6-0.4,1-1,1s-1-0.4-1-1C22.5,5.9,22.9,5.5,23.5,5.5z M21.5,3.5   c0.6,0,1,0.4,1,1s-0.4,1-1,1s-1-0.4-1-1S20.9,3.5,21.5,3.5z M19.5,5.7c0.6,0,1,0.4,1,1c0,0.6-0.4,1-1,1s-1-0.4-1-1   C18.5,6.2,18.9,5.7,19.5,5.7z M19.5,9.5c0.6,0,1,0.4,1,1c0,0.6-0.4,1-1,1s-1-0.4-1-1C18.5,9.9,18.9,9.5,19.5,9.5z M19.5,13.5   c0.6,0,1,0.4,1,1s-0.4,1-1,1s-1-0.4-1-1S18.9,13.5,19.5,13.5z M18.4,16.5c0.6,0,1,0.4,1,1c0,0.6-0.4,1-1,1c-0.6,0-1-0.4-1-1   C17.4,16.9,17.8,16.5,18.4,16.5z M16.5,13.5c0.6,0,1,0.4,1,1c0,0.6-0.4,1-1,1s-1-0.4-1-1C15.5,13.9,15.9,13.5,16.5,13.5z    M15.5,16.5c0.6,0,1,0.4,1,1c0,0.6-0.4,1-1,1s-1-0.4-1-1C14.5,16.9,14.9,16.5,15.5,16.5z"></path></g></svg>