<svg height='100px' width='100px'  fill="#000000" xmlns="http://www.w3.org/2000/svg" xmlns:xlink="http://www.w3.org/1999/xlink" version="1.1" x="0px" y="0px" viewBox="0 0 80 80" enable-background="new 0 0 80 80" xml:space="preserve"><path d="M40,79.1c-0.5,0-0.9-0.4-1-0.9c-0.5-3.4-1.9-13.9-4.1-13.9c-2.2,0-7,8.2-8.8,11.3c-0.3,0.4-0.8,0.6-1.3,0.4  c-0.5-0.2-0.7-0.7-0.6-1.2c0.9-3.4,3.4-12.3,2.1-14.1c-0.1-0.1-0.2-0.3-0.6-0.3c-2.2,0-7.6,3.9-11.9,7.2c-0.4,0.3-1,0.3-1.3-0.1  c-0.4-0.4-0.4-0.9-0.1-1.3c2-2.6,8.1-10.5,7.2-12.4c-0.2-0.4-0.9-0.6-2.1-0.6c-2.3,0-6,0.8-12.1,2.4c-0.5,0.1-1-0.1-1.2-0.6  c-0.2-0.5,0-1,0.4-1.3c2.9-1.7,11.7-6.9,11.3-9c-0.4-2.1-10.6-3.5-13.9-4c-0.5-0.1-0.9-0.5-0.9-1s0.4-0.9,0.9-1  c3.3-0.5,13.5-1.9,13.9-4c0.4-2.1-8.4-7.3-11.3-9C4,25.8,3.8,25.3,4,24.8c0.2-0.5,0.7-0.7,1.2-0.6c6.1,1.7,9.9,2.4,12.1,2.4  c1.2,0,1.9-0.2,2.1-0.6c0.9-1.9-5.2-9.8-7.2-12.4c-0.3-0.4-0.3-1,0.1-1.3c0.4-0.4,0.9-0.4,1.3-0.1c4.4,3.4,9.7,7.2,11.9,7.2  c0,0,0,0,0,0c0.4,0,0.5-0.1,0.6-0.3c1.3-1.8-1.1-10.7-2.1-14.1c-0.1-0.5,0.1-1,0.6-1.2c0.5-0.2,1,0,1.3,0.4  c1.8,3.1,6.6,11.3,8.8,11.3c2.2,0,3.6-10.5,4.1-13.9c0.1-0.5,0.5-0.9,1-0.9s0.9,0.4,1,0.9c0.5,3.4,1.9,13.9,4.1,13.9  c2.2,0,7-8.2,8.8-11.3C54.2,4,54.7,3.8,55.2,4c0.5,0.2,0.7,0.7,0.6,1.2c-0.9,3.4-3.4,12.3-2.1,14.1c0.1,0.1,0.2,0.3,0.6,0.3  c2.2,0,7.6-3.9,11.9-7.2c0.4-0.3,1-0.3,1.3,0.1c0.4,0.4,0.4,0.9,0.1,1.3c-2,2.6-8.1,10.5-7.2,12.4c0.2,0.4,0.9,0.6,2.1,0.6  c2.3,0,6-0.8,12.1-2.4c0.5-0.1,1,0.1,1.2,0.6c0.2,0.5,0,1-0.4,1.3c-2.9,1.7-11.7,6.9-11.3,9c0.4,2.1,10.6,3.5,13.9,4  c0.5,0.1,0.9,0.5,0.9,1s-0.4,0.9-0.9,1c-3.3,0.5-13.5,1.9-13.9,4c-0.4,2.1,8.2,7.1,11.2,8.9c0.4,0.1,0.6,0.5,0.6,0.9  c0,0.6-0.4,1-1,1c0,0,0,0,0,0c-0.1,0-0.2,0-0.3,0c-6.1-1.7-9.9-2.4-12.1-2.4c-1.2,0-1.9,0.2-2.1,0.6c-0.9,1.8,5,9.5,7.1,12.2  c0.2,0.2,0.3,0.4,0.3,0.7c0,0.6-0.4,1-1,1c0,0,0,0,0,0c-0.2,0-0.4-0.1-0.6-0.2c-4.4-3.4-9.7-7.2-11.9-7.2c-0.4,0-0.5,0.1-0.6,0.3  c-1.3,1.7,1,10.4,2,13.9c0.1,0.1,0.1,0.3,0.1,0.5c0,0.6-0.4,1-1,1c0,0,0,0,0,0c-0.3,0-0.7-0.2-0.9-0.5c-1.8-3.1-6.6-11.3-8.8-11.3  c-2.2,0-3.6,10.5-4.1,13.9C40.9,78.7,40.5,79.1,40,79.1z M34.9,62.3c2.5,0,3.9,3.3,5.1,9.4c1.2-6.2,2.6-9.4,5.1-9.4  c1.9,0,3.9,1.8,7.1,6.7c-1.2-5.4-1.2-8.1-0.1-9.5c0.4-0.5,1-1,2.2-1c1.6,0,4,1.1,7.8,3.7c-3.4-4.9-4.3-7.4-3.4-9.1  c0.8-1.7,3.2-1.7,3.9-1.7c1.5,0,3.5,0.3,6.3,0.9c-5.3-3.5-7-5.6-6.6-7.6c0.4-2.1,2.9-3.4,9.4-4.6c-6.5-1.2-9-2.5-9.4-4.6  c-0.4-2,1.4-4.2,6.6-7.6c-2.8,0.6-4.8,0.9-6.3,0.9c0,0,0,0,0,0c-0.8,0-3.1,0-3.9-1.7c-0.8-1.7,0-4.2,3.4-9.1  c-3.8,2.6-6.2,3.7-7.8,3.7c-1.2,0-1.9-0.6-2.2-1c-1.1-1.4-1.1-4.1,0.1-9.5c-3.2,4.9-5.2,6.7-7.1,6.7c0,0,0,0,0,0  c-2.5,0-3.9-3.3-5.1-9.4c-1.2,6.2-2.6,9.4-5.1,9.4c0,0,0,0,0,0c-1.9,0-3.9-1.8-7.1-6.7c1.2,5.4,1.2,8.1,0.1,9.5c-0.4,0.5-1,1-2.2,1  h0c-1.6,0-4-1.1-7.8-3.7c3.4,4.9,4.3,7.4,3.4,9.1c-0.8,1.7-3.2,1.7-3.9,1.7c-1.5,0-3.5-0.3-6.3-0.9c5.3,3.5,7,5.6,6.6,7.6  c-0.4,2.1-2.9,3.4-9.4,4.6c6.5,1.2,9,2.5,9.4,4.6c0.4,2-1.4,4.2-6.6,7.6c2.8-0.6,4.8-0.9,6.3-0.9c0.8,0,3.1,0,3.9,1.7  c0.8,1.7,0,4.2-3.4,9.1c3.8-2.6,6.2-3.7,7.8-3.7c1.2,0,1.9,0.6,2.2,1c1.1,1.4,1.1,4.1-0.1,9.5C31,64.1,33,62.3,34.9,62.3z"></path><path d="M40,61c-11.6,0-21-9.4-21-21s9.4-21,21-21s21,9.4,21,21S51.6,61,40,61z M40,21c-10.5,0-19,8.5-19,19s8.5,19,19,19  s19-8.5,19-19S50.5,21,40,21z"></path></svg>