<svg height='100px' width='100px'  fill="#000000" xmlns="http://www.w3.org/2000/svg" xmlns:xlink="http://www.w3.org/1999/xlink" version="1.1" x="0px" y="0px" viewBox="0 0 100 100" style="enable-background:new 0 0 100 100;" xml:space="preserve"><path d="M7.9,77.5c-3,0-5.5,2.5-5.5,5.5s2.5,5.5,5.5,5.5s5.5-2.5,5.5-5.5S10.9,77.5,7.9,77.5z M7.9,84.5c-0.8,0-1.5-0.7-1.5-1.5  s0.7-1.5,1.5-1.5s1.5,0.7,1.5,1.5S8.7,84.5,7.9,84.5z M85.6,86.9c-3,0-5.5,2.5-5.5,5.5s2.5,5.5,5.5,5.5s5.5-2.5,5.5-5.5  S88.6,86.9,85.6,86.9z M85.6,93.9c-0.8,0-1.5-0.7-1.5-1.5s0.7-1.5,1.5-1.5s1.5,0.7,1.5,1.5S86.4,93.9,85.6,93.9z M1.9,23.3  c0-1.4,1.1-2.5,2.5-2.5c1.4,0,2.5,1.1,2.5,2.5s-1.1,2.5-2.5,2.5C3,25.8,1.9,24.6,1.9,23.3z M47.5,37.7c0-1.4,1.1-2.5,2.5-2.5  c1.4,0,2.5,1.1,2.5,2.5c0,1.4-1.1,2.5-2.5,2.5C48.6,40.2,47.5,39.1,47.5,37.7z M25,4.3c0-1.4,1.1-2.5,2.5-2.5C28.9,1.8,30,3,30,4.3  c0,1.4-1.1,2.5-2.5,2.5C26.1,6.8,25,5.7,25,4.3z M59,45.4c0-1.4,1.1-2.5,2.5-2.5c1.4,0,2.5,1.1,2.5,2.5c0,1.4-1.1,2.5-2.5,2.5  C60.2,47.9,59,46.8,59,45.4z M36.5,50.7c0-1.4,1.1-2.5,2.5-2.5s2.5,1.1,2.5,2.5c0,1.4-1.1,2.5-2.5,2.5S36.5,52.1,36.5,50.7z   M24.5,93.8c0,1.4-1.1,2.5-2.5,2.5s-2.5-1.1-2.5-2.5c0-1.4,1.1-2.5,2.5-2.5S24.5,92.5,24.5,93.8z M76.9,92.8c0,1.4-1.1,2.5-2.5,2.5  c-1.4,0-2.5-1.1-2.5-2.5c0-1.4,1.1-2.5,2.5-2.5C75.7,90.3,76.9,91.5,76.9,92.8z M89.9,22.3c0-1.4,1.1-2.5,2.5-2.5  c1.4,0,2.5,1.1,2.5,2.5c0,1.4-1.1,2.5-2.5,2.5C91,24.8,89.9,23.7,89.9,22.3z M6.4,68.1c1.4,0,2.5,1.1,2.5,2.5c0,1.4-1.1,2.5-2.5,2.5  c-1.4,0-2.5-1.1-2.5-2.5C3.9,69.2,5,68.1,6.4,68.1z M99.4,78c0,1.1-0.9,2-2,2h-3v3c0,1.1-0.9,2-2,2s-2-0.9-2-2v-3h-3  c-1.1,0-2-0.9-2-2s0.9-2,2-2h3v-3c0-1.1,0.9-2,2-2s2,0.9,2,2v3h3C98.5,76,99.4,76.9,99.4,78z M4.4,9.3c0-1.1,0.9-2,2-2h3v-3  c0-1.1,0.9-2,2-2s2,0.9,2,2v3h3c1.1,0,2,0.9,2,2s-0.9,2-2,2h-3v3c0,1.1-0.9,2-2,2s-2-0.9-2-2v-3h-3C5.3,11.3,4.4,10.4,4.4,9.3z   M25.5,23.8c-1.1,0-2-0.9-2-2c0-3.3,2.7-6,6-6c1.1,0,2,0.9,2,2s-0.9,2-2,2c-1.1,0-2,0.9-2,2C27.5,22.9,26.6,23.8,25.5,23.8z   M74.5,60.2c1.1,0,2,0.9,2,2V73c0,1.1-0.9,2-2,2h-6c-1.1,0-2-0.9-2-2s0.9-2,2-2h4v-8.9C72.5,61.1,73.4,60.2,74.5,60.2z M23.5,62.2  V59c0-1.1,0.9-2,2-2s2,0.9,2,2v3.2c0,1.1-0.9,2-2,2S23.5,63.3,23.5,62.2z M42.8,75H25.5c-1.1,0-2-0.9-2-2v-4.9c0-1.1,0.9-2,2-2  s2,0.9,2,2V71h15.3c1.1,0,2,0.9,2,2S43.9,75,42.8,75z M63.2,17.8c0-1.1,0.9-2,2-2h5.3c3.3,0,6,2.7,6,6v0.5c0,1.1-0.9,2-2,2  s-2-0.9-2-2v-0.5c0-1.1-0.9-2-2-2h-5.3C64.1,19.8,63.2,18.9,63.2,17.8z M75.5,87c3.9,0,7-3.1,7-7v-6v-0.4l0.4-0.6  c0.2-0.4,0.6-0.7,0.9-1l1.7-1.1c2-1.3,3.1-3.5,3.1-5.8c0-1.1-0.9-2-2-2c0,0,0,0,0,0c-1.1,0-2,0.9-2,2c0,1-0.5,1.9-1.3,2.5l-0.8,0.5  V48.3v-2.4l0.1,0.1c0.9,0.5,1.4,1.4,1.5,2.4l0.1,2c0.1,1.1,0.4,2.2,1,3.2l0.5,0.8c0.4,0.6,1,1,1.7,1c0.3,0,0.7-0.1,1-0.3  c0.9-0.6,1.3-1.8,0.7-2.7l-0.5-0.8c-0.2-0.4-0.4-0.9-0.4-1.3l-0.1-2c-0.1-1.4-0.6-2.7-1.4-3.7c0.9-1.9,1.4-3.9,1.4-6  c0-4.8-2.5-9.1-6.5-11.5c0.6-1.4,0.9-2.9,0.9-4.5v-0.5c0-6.6-5.4-12-12-12h-4.4c-2.6-3.2-6.4-5-10.5-5c-0.3,0-0.5,0-0.8,0  c-1.1,0.1-1.9,1-1.9,2.1s1,2,2.1,1.9c0.2,0,0.4,0,0.6,0c1.5,0,3,0.4,4.3,1c-4,0-7.7,2-9.9,5.4c-0.6-0.9-1.3-1.7-2.2-2.4  c0.7-1,1.5-1.8,2.5-2.5c0.9-0.6,1.2-1.8,0.6-2.8c-0.6-0.9-1.8-1.2-2.8-0.6c-1.5,1-2.8,2.2-3.8,3.7C43,10.1,41.5,9.8,40,9.8H29.5  c-6.6,0-12,5.4-12,12v0.5c0,0.4,0,0.9,0.1,1.3l-1.2,0.7c-2.4,1.4-3.9,3.9-4,6.7l-0.1,2.8c0,0.6-0.2,1.3-0.5,1.8l-1.3,2.4  C9,40.6,9,43.5,10.4,46l1.1,2c0.3,0.6,0.5,1.3,0.5,2l0,0.3c-1.2,2.1-1.9,4.5-1.9,7c0,2.8,0.9,5.5,2.4,7.7c-0.3,1.1-0.4,2.2-0.4,3.3  c0,4.3,2,8.2,5.4,10.8V80c0,3.9,3.1,7,7,7h3c2.5,3.6,6.7,5.8,11.1,5.8c2.9,0,5.6-0.9,7.8-2.5l1.4,1.2c1.3,1.2,2.9,1.8,4.6,1.8  c0.6,0,1.2-0.1,1.8-0.2l2.1-0.6c0.4-0.1,0.9-0.1,1.3,0l2.2,0.4c2.3,0.4,4.7-0.3,6.3-2l1.3-1.3c0.3-0.3,0.7-0.6,1.2-0.7l1.9-0.7  c0.8-0.3,1.5-0.6,2.1-1.2H75.5z M84.1,38.3c0,1.2-0.2,2.4-0.7,3.5l-0.8-0.5c-0.1,0-0.1-0.1-0.2-0.2c-0.3-3.6-2.3-6.9-5.3-8.8  c0.9-0.6,1.7-1.3,2.4-2.1C82.4,31.9,84.1,35,84.1,38.3z M13.9,40l1.3-2.4c0.6-1.1,0.9-2.3,1-3.6l0.1-2.8c0.1-1.4,0.8-2.7,2.1-3.5  l0.3-0.2c0.9,1.9,2.3,3.5,4.2,4.7c-3.4,2.2-5.4,6-5.4,10v2.9c-0.8,0.4-1.5,0.9-2.2,1.4c-0.1-0.2-0.2-0.4-0.2-0.5l-1.1-2  C13.2,42.8,13.2,41.3,13.9,40z M17.5,64.6c-2.1-1.8-3.4-4.4-3.4-7.3c0-2.9,1.3-5.5,3.4-7.3V64.6z M17.5,69.4v3.9  c-0.9-1.4-1.3-3-1.4-4.7C16.5,68.9,17,69.1,17.5,69.4z M21.5,80.4c0.9,0.4,1.9,0.7,3,0.7h9.4c1.1,0,2-0.9,2-2s-0.9-2-2-2h-9.4  c-1.7,0-3-1.3-3-3V48.3v-6c0-2.7,1.3-5.2,3.6-6.7c1.1-0.7,1.8-2,1.8-3.3c0-1.3-0.7-2.6-1.8-3.3c-2.2-1.5-3.6-4-3.6-6.7v-0.5  c0-4.4,3.6-8,8-8H40c2.7,0,5.2,1.3,6.7,3.6c0.7,1.1,2,1.8,3.3,1.8c1.3,0,2.6-0.7,3.3-1.8c1.5-2.3,4-3.6,6.7-3.6h4.9  c0.1,0,0.2,0,0.3,0c0.1,0,0.1,0,0.2,0h5.2c4.4,0,8,3.6,8,8v0.5c0,2.7-1.3,5.2-3.6,6.7c-1.1,0.7-1.8,2-1.8,3.3c0,1.3,0.7,2.6,1.8,3.3  c2.3,1.5,3.6,4,3.6,6.7v6V74c0,1.7-1.3,3-3,3H39.8c-1.1,0-2,0.9-2,2s0.9,2,2,2h35.7c1.1,0,2.1-0.2,3-0.7c-0.2,1.5-1.4,2.7-3,2.7  H24.5C22.9,83,21.7,81.9,21.5,80.4z M33,87h11.2c-1.6,1.2-3.5,1.8-5.6,1.8C36.6,88.9,34.6,88.2,33,87z M63.3,88.1  c-0.7,0.7-1.7,1-2.7,0.9l-2.2-0.4c-1-0.2-2.1-0.2-3.1,0.1l-2.1,0.6c-1,0.3-2,0-2.7-0.7l-1.2-1c0.1-0.2,0.3-0.3,0.4-0.5h14.6  L63.3,88.1z M89.3,57.9c0.1,0.1,0.2,0.2,0.2,0.3c0.1,0.1,0.1,0.2,0.2,0.3c0.1,0.1,0.1,0.2,0.1,0.4c0,0.1,0,0.3,0,0.4  c0,0.5-0.2,1-0.6,1.4c-0.1,0.1-0.2,0.2-0.3,0.2c-0.1,0.1-0.2,0.1-0.3,0.2c-0.1,0.1-0.2,0.1-0.4,0.1c-0.1,0-0.3,0-0.4,0s-0.3,0-0.4,0  c-0.1,0-0.2-0.1-0.4-0.1c-0.1-0.1-0.2-0.1-0.4-0.2c-0.1-0.1-0.2-0.2-0.3-0.2c-0.4-0.4-0.6-0.9-0.6-1.4c0-0.1,0-0.3,0-0.4  c0-0.1,0.1-0.3,0.1-0.4c0-0.1,0.1-0.2,0.2-0.3c0.1-0.1,0.2-0.2,0.2-0.3c0.1-0.1,0.2-0.2,0.3-0.2c0.1-0.1,0.2-0.1,0.4-0.2  c0.1-0.1,0.2-0.1,0.4-0.1c0.3,0,0.5,0,0.8,0c0.1,0,0.2,0.1,0.4,0.1c0.1,0,0.2,0.1,0.3,0.2C89.1,57.7,89.2,57.8,89.3,57.9z"></path></svg>