<svg height='100px' width='100px'  fill="#1A1A1A" xmlns="http://www.w3.org/2000/svg" xmlns:xlink="http://www.w3.org/1999/xlink" version="1.1" x="0px" y="0px" viewBox="0 0 90 90" enable-background="new 0 0 90 90" xml:space="preserve"><g><path d="M64.1,55.1c2.1,0,3.8-1.7,3.8-3.8v-2c0-2.1-1.7-3.8-3.8-3.8h-0.5c0.4,1.5,0.6,3.2,0.6,4.8s-0.2,3.3-0.6,4.8H64.1z"></path><path d="M66.6,11.2H23.4c-3.5,0-6.3,2.8-6.3,6.3v55.1c0,3.5,2.8,6.3,6.3,6.3h43.2c3.5,0,6.3-2.8,6.3-6.3V17.4   C72.9,14,70.1,11.2,66.6,11.2z M70.4,72.6c0,2.1-1.7,3.8-3.8,3.8H23.4c-2.1,0-3.8-1.7-3.8-3.8V26h50.8V72.6z M70.4,24.1H19.6v-6.7   c0-2.1,1.7-3.8,3.8-3.8h43.2c2.1,0,3.8,1.7,3.8,3.8V24.1z"></path><circle cx="26.3" cy="18.9" r="1.8"></circle><circle cx="32.5" cy="18.9" r="1.8"></circle><path d="M45,68.1c9.8,0,17.8-8,17.8-17.8c0-9.8-8-17.8-17.8-17.8s-17.8,8-17.8,17.8C27.2,60.1,35.2,68.1,45,68.1z M52.9,38.6   c1.4,0,2.6,1.2,2.6,2.6s-1.2,2.6-2.6,2.6s-2.6-1.2-2.6-2.6S51.4,38.6,52.9,38.6z M48.1,34.9c0.9,0,1.6,0.7,1.6,1.6S49,38,48.1,38   s-1.6-0.7-1.6-1.6S47.2,34.9,48.1,34.9z M30.2,53.1c-0.2-0.9-0.3-1.9-0.3-2.9c0-1.5,0.2-2.9,0.6-4.3c1.1,0.7,2.4,1.1,3.7,1.1   c2.1,0,4-0.9,5.3-2.5C41,46.1,42.9,47,45,47c2.1,0,4-0.9,5.3-2.5c1.3,1.6,3.2,2.5,5.3,2.5c1.4,0,2.7-0.4,3.7-1.1   c0.4,1.4,0.6,2.8,0.6,4.3c0,1-0.1,1.9-0.3,2.9l-0.4,0c-0.9,0-1.8-0.5-2.2-1.3L55.8,49l-1.4,2.7c-0.4,0.8-1.3,1.3-2.2,1.3   s-1.8-0.5-2.2-1.3L48.6,49l-1.4,2.7c-0.4,0.8-1.3,1.3-2.2,1.3s-1.8-0.5-2.2-1.3L41.4,49L40,51.8c-0.4,0.8-1.3,1.3-2.2,1.3   s-1.8-0.5-2.2-1.3L34.2,49l-1.4,2.7c-0.4,0.8-1.3,1.3-2.2,1.3L30.2,53.1z M34.2,52.5c0.7,1.3,2,2.2,3.6,2.2c1.6,0,2.9-0.9,3.6-2.2   c0.7,1.3,2,2.2,3.6,2.2c1.6,0,2.9-0.9,3.6-2.2c0.7,1.3,2,2.2,3.6,2.2c1.6,0,2.9-0.9,3.6-2.2c0.7,1.3,2,2.2,3.6,2.2   c-1.9,6.1-7.6,10.6-14.4,10.6c-6.8,0-12.5-4.5-14.4-10.6C32.2,54.7,33.5,53.8,34.2,52.5z"></path><circle cx="39.5" cy="57.9" r="1.9"></circle><circle cx="37.2" cy="49.1" r="0.8"></circle></g></svg>