<?xml version="1.0" encoding="utf-8"?>
<!-- Generator: Adobe Illustrator 24.2.1, SVG Export Plug-In . SVG Version: 6.00 Build 0)  -->
<svg version="1.1" id="Layer_1" xmlns="http://www.w3.org/2000/svg" xmlns:xlink="http://www.w3.org/1999/xlink" x="0px" y="0px"
	 viewBox="0 0 100 100" enable-background="new 0 0 100 100" xml:space="preserve">
<g>
	<path fill-rule="evenodd" clip-rule="evenodd" d="M0,5.789v11.577h3.288h2.501h90.923H100V5.789C100,5.789,0,5.789,0,5.789z
		 M2.501,94.211C1.12,94.211,0,93.091,0,91.71c0-1.381,1.12-2.501,2.501-2.501H8.29V22.368H91.71v66.841h5.789
		c1.381,0,2.501,1.12,2.501,2.501c0,1.381-1.12,2.501-2.501,2.501C97.499,94.211,2.501,94.211,2.501,94.211z M17.105,89.209h5.001
		V44.042c4.381-1.597,8.77-2.82,13.166-3.669c4.931-0.953,9.842-1.433,14.729-1.436c4.883,0.003,9.791,0.482,14.718,1.433
		c4.399,0.851,8.792,2.075,13.176,3.672v45.167h5.002V42.318h-0.008c0-1-0.606-1.943-1.594-2.325
		c-5.222-2.011-10.435-3.521-15.638-4.526C60.459,34.463,55.239,33.958,50,33.955c-5.243,0.003-10.466,0.509-15.667,1.514
		c-5.133,0.991-10.274,2.475-15.425,4.446c-1.042,0.301-1.804,1.263-1.804,2.403C17.105,42.318,17.105,89.209,17.105,89.209z
		 M40.282,61.525c0.878-2.194,1.936-3.7,2.95-5.145c1.382-1.966,2.682-3.817,3.243-7.189c0.057-0.339,0.378-0.569,0.718-0.512
		c0.067,0.011,0.13,0.033,0.187,0.063c0.469,0.223,8.083,3.967,10,12.008l0.083-0.2c0.246-0.628,0.425-1.412,0.495-2.268
		c0.026-0.344,0.327-0.6,0.671-0.574c0.2,0.016,0.372,0.125,0.474,0.282c0.584,0.823,1.955,4.043,1.305,7.731
		c-0.385,2.182-1.466,4.543-3.81,6.689c-0.12,0.109-0.27,0.163-0.421,0.163l-5.122,0.004c-0.345,0-0.625-0.28-0.625-0.625
		c0-0.117,0.032-0.227,0.088-0.32c0.47-0.92,0.842-2.985,0.775-5.071c-0.024-0.738-0.103-1.471-0.254-2.148
		c-0.25,1.258-0.631,2.524-1.127,3.695c-0.744,1.755-1.753,3.306-2.987,4.325c-0.116,0.095-0.256,0.142-0.396,0.142l-3.182,0.003
		c-0.153,0-0.293-0.055-0.4-0.145c-1.396-1.048-2.761-2.634-3.294-4.821C39.242,65.93,39.329,63.906,40.282,61.525z M35.065,78.859
		c0-1.381,1.12-2.501,2.501-2.501h24.869c1.381,0,2.501,1.12,2.501,2.501s-1.12,2.501-2.501,2.501H37.566
		C36.185,81.36,35.065,80.24,35.065,78.859z"/>
</g>
</svg>
