<svg height='100px' width='100px'  fill="#000000" xmlns="http://www.w3.org/2000/svg" xmlns:xlink="http://www.w3.org/1999/xlink" version="1.1" x="0px" y="0px" viewBox="0 0 100 100" enable-background="new 0 0 100 100" xml:space="preserve"><path d="M43.404,67.072L33.254,64c-0.283-0.086-0.586-0.086-0.869,0l-10.148,3.072c-0.633,0.191-1.065,0.774-1.065,1.436  c0,6.05,0.161,11.369,2.139,15.204c2.002,3.889,5.24,5.096,8.098,6.161c0.293,0.109,0.585,0.219,0.873,0.329  c0.173,0.067,0.356,0.101,0.539,0.101s0.365-0.033,0.539-0.101c0.287-0.11,0.577-0.218,0.869-0.327  c2.859-1.065,6.101-2.272,8.103-6.162c1.979-3.836,2.14-9.155,2.14-15.205C44.47,67.847,44.037,67.264,43.404,67.072z   M39.663,82.339c-1.471,2.857-3.905,3.765-6.483,4.726c-0.12,0.045-0.24,0.089-0.36,0.134c-0.121-0.045-0.242-0.091-0.363-0.136  c-2.576-0.961-5.009-1.867-6.479-4.725c-1.432-2.776-1.77-6.661-1.803-12.718l8.646-2.617l8.647,2.617  C41.434,75.677,41.096,79.562,39.663,82.339z M88.563,38.344h-3.125v-11.4c0-4.136-3.364-7.5-7.5-7.5H14.31  c-1.859,0-3.372-1.513-3.372-3.373s1.513-3.373,3.372-3.373H76.44c0.828,0,1.5-0.672,1.5-1.5s-0.672-1.5-1.5-1.5H14.31  c-3.514,0-6.372,2.859-6.372,6.373v55.049c0,4.136,3.364,7.5,7.5,7.5h2.188c0.828,0,1.5-0.672,1.5-1.5s-0.672-1.5-1.5-1.5h-2.188  c-2.481,0-4.5-2.019-4.5-4.5V21.468c0.979,0.614,2.133,0.976,3.372,0.976h63.628c2.481,0,4.5,2.019,4.5,4.5v11.4H69.313  c-1.93,0-3.5,1.57-3.5,3.5v14.375c0,1.93,1.57,3.5,3.5,3.5h13.125v11.4c0,2.481-2.019,4.5-4.5,4.5H47.626  c-0.828,0-1.5,0.672-1.5,1.5s0.672,1.5,1.5,1.5h30.312c4.136,0,7.5-3.364,7.5-7.5v-11.4h3.125c1.93,0,3.5-1.57,3.5-3.5V41.844  C92.063,39.914,90.492,38.344,88.563,38.344z M89.063,56.219c0,0.275-0.225,0.5-0.5,0.5h-19.25c-0.275,0-0.5-0.225-0.5-0.5V41.844  c0-0.275,0.225-0.5,0.5-0.5h19.25c0.275,0,0.5,0.225,0.5,0.5V56.219z M73.75,44c-0.828,0-1.5,0.672-1.5,1.5v7.063  c0,0.828,0.672,1.5,1.5,1.5s1.5-0.672,1.5-1.5V45.5C75.25,44.672,74.578,44,73.75,44z M76.44,14.57H15.438  c-0.828,0-1.5,0.672-1.5,1.5s0.672,1.5,1.5,1.5H76.44c0.828,0,1.5-0.672,1.5-1.5S77.269,14.57,76.44,14.57z"></path></svg>