<svg height='100px' width='100px'  fill="#000000" xmlns="http://www.w3.org/2000/svg" xmlns:xlink="http://www.w3.org/1999/xlink" version="1.1" x="0px" y="0px" viewBox="0 0 512 512" style="enable-background:new 0 0 512 512;" xml:space="preserve"><g><g><g><g><path d="M261,173c-14.888,0-27-12.112-27-27s12.112-27,27-27s27,12.112,27,27S275.888,173,261,173z M261,133      c-7.168,0-13,5.832-13,13s5.832,13,13,13c7.168,0,13-5.832,13-13S268.168,133,261,133z"></path></g><g><path d="M349.5,493h-177c-26.743,0-48.5-21.757-48.5-48.5v-377c0-26.743,21.757-48.5,48.5-48.5h177      c26.743,0,48.5,21.757,48.5,48.5v377C398,471.243,376.243,493,349.5,493z M172.5,33C153.477,33,138,48.477,138,67.5v377      c0,19.023,15.477,34.5,34.5,34.5h177c19.023,0,34.5-15.477,34.5-34.5v-377c0-19.023-15.477-34.5-34.5-34.5H172.5z"></path></g><g><path d="M131,173h-10c-3.866,0-7-3.134-7-7V96c0-3.866,3.134-7,7-7h10c3.866,0,7,3.134,7,7v70C138,169.866,134.866,173,131,173z      "></path></g><g><path d="M131,233h-10c-3.866,0-7-3.134-7-7v-30c0-3.866,3.134-7,7-7h10c3.866,0,7,3.134,7,7v30C138,229.866,134.866,233,131,233      z"></path></g><g><path d="M391,83H131c-3.866,0-7-3.134-7-7s3.134-7,7-7h260c3.866,0,7,3.134,7,7S394.866,83,391,83z"></path></g><g><path d="M391,443H131c-3.866,0-7-3.134-7-7s3.134-7,7-7h260c3.866,0,7,3.134,7,7S394.866,443,391,443z"></path></g><g><path d="M261,133c-3.866,0-7-3.134-7-7V76c0-3.866,3.134-7,7-7s7,3.134,7,7v50C268,129.866,264.866,133,261,133z"></path></g><path d="M211,146L211,146c-5.523,0-10-4.477-10-10l0,0c0-5.523,4.477-10,10-10l0,0c5.522,0,10,4.477,10,10l0,0     C221,141.523,216.522,146,211,146z"></path><path d="M311,166L311,166c-5.522,0-10-4.477-10-10v-20c0-5.523,4.478-10,10-10l0,0c5.522,0,10,4.477,10,10v20     C321,161.523,316.522,166,311,166z"></path><path d="M211,166L211,166c-5.523,0-10-4.477-10-10l0,0c0-5.523,4.477-10,10-10l0,0c5.522,0,10,4.477,10,10l0,0     C221,161.523,216.522,166,211,166z"></path></g></g></g></svg>