<svg height='100px' width='100px'  fill="#000000" xmlns="http://www.w3.org/2000/svg" xmlns:xlink="http://www.w3.org/1999/xlink" version="1.1" x="0px" y="0px" viewBox="0 0 100 100" enable-background="new 0 0 100 100" xml:space="preserve"><g><rect x="8.782" y="86.833" width="83.385" height="2"></rect><rect x="26.318" y="90" width="52.849" height="2"></rect><path d="M47.347,56.833c0-0.929-0.446-2.002-0.497-2.121l-1.84,0.785c0.11,0.258,0.337,0.923,0.337,1.336H47.347z"></path><path d="M9.996,27.861c0.003,0.095,0.012,0.178,0.033,0.251l1.56,17.563c-0.091,1.158-0.985,14.036,1.836,38.128l0.104,0.884h4.143   l0.215-0.71c0.109-0.359,2.671-9.146,2.441-38.254l1.97-17.583c0.457-0.652,1.085-2.103,2.373-5.333   c0.175-0.439,0.304-0.765,0.358-0.887c2.491-5.631,1.972-10.146-1.501-13.057c-1.905-1.596-4.748-2.512-7.797-2.512   c-2.307,0-4.479,0.55-6.117,1.55c-6.617,4.037-3.062,12.079-0.709,17.4C9.314,26.225,9.702,27.102,9.996,27.861z M18.434,44.672   h-2.529l-1.421-16.001c0.505,0.001,1.057,0.001,1.683,0.001h4.059L18.434,44.672z M12.475,28.653l1.423,16.019h-0.39l-1.423-16.028   C12.206,28.647,12.339,28.65,12.475,28.653z M16.147,82.688H15.31c-2.367-20.646-1.964-32.744-1.781-36.016h4.806   C18.473,70.243,16.715,80.129,16.147,82.688z M10.657,9.608c1.328-0.811,3.131-1.257,5.075-1.257c2.55,0,4.984,0.764,6.513,2.045   c3.435,2.878,2.416,7.416,0.956,10.715c-0.059,0.132-0.199,0.483-0.387,0.956c-0.382,0.959-1.454,3.648-1.961,4.605   c-1.687,0-7.236,0-9.177,0c-0.277-0.678-0.602-1.413-0.94-2.179C7.891,18.059,5.921,12.498,10.657,9.608z"></path><path d="M30.379,44.672v7.849c-1.918,0.119-3.514,0.682-4.749,1.704c-1.521,1.259-2.105,2.887-2.33,3.905h-2.776v5.116   c-0.111,1.074-1.401,14.832,4.694,21.271c0.189,0.199,0.451,0.313,0.726,0.313h24.298c0.314,0,0.609-0.147,0.798-0.397   c0.102-0.135,1.296-1.777,2.361-5.013c3.407,3.725,8.177,5.891,13.341,5.891c3.605,0,7.028-1.047,9.928-2.943v2.32h14.555V16.512   H76.67v27.145c-2.858-1.869-6.266-2.965-9.928-2.965c-7.672,0-14.213,4.785-16.884,11.516c-0.382-0.51-0.787-0.949-1.158-1.281   l-1.339-1.266l-0.299,1.793c-0.216,0.425-1.551,1.056-3.881,1.414v-8.195H37.78V31h2.365v-2H37.78v-0.833h2.365v-2H37.78v-0.854   h2.365v-2H37.78V22.5h2.365v-2H37.78v-1.667h-2V20.5h-2.113v2h2.113v0.813h-2.113v2h2.113v0.854h-2.113v2h2.113V29h-2.113v2h2.113   v13.672H30.379z M22.524,60.13h30.349v2.167H22.524V60.13z M22.447,64.297h2.917c-0.07,2.923,0.128,11.225,4.061,18.533h-3.037   C21.937,77.698,22.244,67.381,22.447,64.297z M49.702,82.83H31.724c-4.205-7.063-4.411-15.73-4.354-18.533h25.572   c0.099,1.32,0.143,2.57,0.137,3.749h-21.7v10.416h20.209C50.875,80.726,50.096,82.183,49.702,82.83z M52.136,76.462H33.379v-6.416   h19.645C52.893,72.547,52.559,74.685,52.136,76.462z M54.845,72.575c1.124,0.987,2.364,1.838,3.705,2.527h-4.075   C54.617,74.308,54.746,73.477,54.845,72.575z M54.047,77.146c0.003-0.015,0.007-0.029,0.01-0.044h25.42   c-3.062,3.918-7.7,6.208-12.734,6.208C61.728,83.311,57.108,81.036,54.047,77.146z M74.997,75.103   c0.575-0.294,1.135-0.613,1.673-0.965v0.965H74.997z M89.225,29.833h-4.277V18.512h4.277V29.833z M82.167,29.833V18.512h0.78   v11.322H82.167z M80.167,18.512v11.322H78.67V18.512H80.167z M78.67,31.833h10.555v50.854H78.67v-1.843   c1.37-1.198,2.579-2.609,3.569-4.218l0.938-1.524H78.67v-2.484c3.837-3.341,6.277-8.247,6.277-13.722s-2.44-10.38-6.277-13.721   V31.833z M66.742,42.691c8.936,0,16.205,7.27,16.205,16.205c0,8.937-7.27,16.206-16.205,16.206c-4.612,0-8.762-1.947-11.707-5.055   c0.097-2.038,0.066-4.292-0.162-6.787v-0.109c1.752,4.87,6.404,8.368,11.869,8.368c6.96,0,12.622-5.663,12.622-12.623   s-5.662-12.622-12.622-12.622c-6.701,0-12.185,5.253-12.584,11.855h-3.1c0.476-1.204,0.418-2.414,0.07-3.514   C53.013,47.754,59.289,42.691,66.742,42.691z M56.119,58.896c0-5.857,4.766-10.622,10.623-10.622s10.622,4.765,10.622,10.622   S72.6,69.52,66.742,69.52S56.119,64.754,56.119,58.896z M48.104,53.209c0.867,1.07,2.019,3.052,0.694,4.921H25.372   c0.216-0.704,0.647-1.631,1.533-2.364c1.406-1.164,3.544-1.537,6.352-1.106C40.622,55.785,46.025,54.873,48.104,53.209z    M41.181,53.079c-2.051,0.135-4.602,0.064-7.622-0.396c-0.404-0.062-0.796-0.106-1.18-0.14v-5.871h8.802V53.079z"></path><path d="M86.667,45.672c0.553,0,1-0.448,1-1V34.5c0-0.552-0.447-1-1-1s-1,0.448-1,1v10.172   C85.667,45.224,86.114,45.672,86.667,45.672z"></path><path d="M86.667,53.958c0.553,0,1-0.447,1-1v-4.917c0-0.552-0.447-1-1-1s-1,0.448-1,1v4.917   C85.667,53.511,86.114,53.958,86.667,53.958z"></path></g><g><rect x="60.237" y="55.085" transform="matrix(0.7453 -0.6667 0.6667 0.7453 -20.7696 57.799)" width="10.063" height="2"></rect><rect x="63.189" y="60.053" transform="matrix(0.7453 -0.6667 0.6667 0.7453 -23.3298 61.0325)" width="10.063" height="2"></rect></g></svg>