<svg height='100px' width='100px'  fill="#000000" xmlns="http://www.w3.org/2000/svg" xmlns:xlink="http://www.w3.org/1999/xlink" version="1.1" x="0px" y="0px" viewBox="0 0 64 64" style="enable-background:new 0 0 64 64;" xml:space="preserve"><g><path d="M24,51c0,2.542,1.458,4,4,4c1.855,0,3.142-0.911,4-1.655C32.858,54.089,34.145,55,36,55c2.542,0,4-1.458,4-4   c0-3.609-6.208-7-8-7S24,47.391,24,51z M31.997,46C32.988,46.039,38,48.743,38,51c0,1.439-0.561,2-2,2   c-1.421,0-2.342-0.842-3.083-1.519L32,50.662l-0.917,0.819C30.342,52.158,29.421,53,28,53c-1.439,0-2-0.561-2-2   C26,48.743,31.012,46.039,31.997,46z"></path><path d="M36,43c1.654,0,3-1.346,3-3s-1.346-3-3-3s-3,1.346-3,3S34.346,43,36,43z M36,39c0.551,0,1,0.448,1,1s-0.449,1-1,1   s-1-0.448-1-1S35.449,39,36,39z"></path><path d="M28,43c1.654,0,3-1.346,3-3s-1.346-3-3-3s-3,1.346-3,3S26.346,43,28,43z M28,39c0.551,0,1,0.448,1,1s-0.449,1-1,1   s-1-0.448-1-1S27.449,39,28,39z"></path><path d="M22,47c1.654,0,3-1.346,3-3s-1.346-3-3-3s-3,1.346-3,3S20.346,47,22,47z M22,43c0.551,0,1,0.448,1,1s-0.449,1-1,1   s-1-0.448-1-1S21.449,43,22,43z"></path><path d="M42,47c1.654,0,3-1.346,3-3s-1.346-3-3-3s-3,1.346-3,3S40.346,47,42,47z M42,43c0.551,0,1,0.448,1,1s-0.449,1-1,1   s-1-0.448-1-1S41.449,43,42,43z"></path><path d="M55.707,17.293C54.603,16.188,52.346,15,50,15h-3.38c-0.255-0.602-0.638-1.127-1.149-1.57   c-1.627-1.412-4.153-1.556-5.564-1.502c-0.178-0.958-0.611-1.711-1.293-2.244c-0.816-0.638-1.797-0.797-2.567-0.798   c-0.03-1.259-0.319-3.222-1.642-4.747C33.173,2.72,31.355,2,29,2c-4.876,0-6.593,3.552-6.933,6.053   c-1.468,0.173-2.654,0.772-3.532,1.785c-1.386,1.598-1.606,3.825-1.596,5.162H14c-2.346,0-4.603,1.188-5.707,2.293   C6,19.586,6,20.944,6,23c0,2.56,0.97,8.884,1.002,9.068C7.088,33.32,7.916,34.382,9,34.802V48c0,8.271,6.729,15,15,15h16   c8.271,0,15-6.729,15-15V34.803c1.084-0.417,1.91-1.465,1.988-2.651C57.03,31.884,58,25.56,58,23   C58,20.944,58,19.586,55.707,17.293z M19.147,16.998l-0.157-1.137c-0.004-0.03-0.401-3.04,1.06-4.718C20.72,10.374,21.685,10,23,10   h1V9c0-0.204,0.057-5,5-5c1.744,0,3.052,0.485,3.886,1.441c1.477,1.693,1.127,4.394,1.125,4.417l-0.21,1.473l1.443-0.361   c0.013-0.004,1.374-0.308,2.141,0.29C37.792,11.58,38,12.165,38,13v1.153l1.142-0.163c0.936-0.132,3.665-0.223,5.02,0.951   C44.726,15.43,45,16.104,45,17c0,0.04,0.069,4,6,4c0.384,0,0.659,0.257,0.759,0.368c0.185,0.205,0.257,0.419,0.249,0.508L51.117,29   H12.883l-0.888-7.1c-0.011-0.113,0.061-0.328,0.246-0.532C12.341,21.257,12.616,21,13,21l2.258-0.008l-0.286-1.228   c-0.003-0.011-0.252-1.12,0.35-1.88C15.788,17.298,16.689,17,18,17L19.147,16.998z M40,61H24c-7.168,0-13-5.832-13-13V35h2v13   c0,6.065,4.935,11,11,11h16c6.065,0,11-4.935,11-11V35h2v13C53,55.168,47.168,61,40,61z M15,35h34v13c0,4.963-4.038,9-9,9H24   c-4.962,0-9-4.037-9-9V35z M55.002,31.932C54.964,32.491,54.486,33,54,33H10c-0.486,0-0.964-0.509-1.012-1.152   C8.979,31.784,8,25.407,8,23c0-1.934,0-2.586,1.707-4.293c0.766-0.766,2.265-1.534,3.798-1.677   c-0.404,0.672-0.555,1.386-0.58,1.971c-0.808,0.021-1.595,0.393-2.167,1.025c-0.55,0.607-0.824,1.363-0.75,2.098L11.117,31h41.766   l1.112-8.9c0.071-0.71-0.204-1.466-0.753-2.073C52.651,19.374,51.834,19,51,19c-3.793,0-3.99-1.815-4-2h3   c1.698,0,3.444,0.859,4.293,1.707C56,20.414,56,21.066,56,23C56,25.407,55.021,31.784,55.002,31.932z"></path><path d="M44,9c2.206,0,4-1.794,4-4s-1.794-4-4-4s-4,1.794-4,4S41.794,9,44,9z M44,3c1.103,0,2,0.897,2,2s-0.897,2-2,2s-2-0.897-2-2   S42.897,3,44,3z"></path><path d="M52,13c1.654,0,3-1.346,3-3s-1.346-3-3-3s-3,1.346-3,3S50.346,13,52,13z M52,9c0.551,0,1,0.449,1,1s-0.449,1-1,1   s-1-0.449-1-1S51.449,9,52,9z"></path><path d="M27,21c2.757,0,5-2.243,5-5s-2.243-5-5-5s-5,2.243-5,5S24.243,21,27,21z M27,13c1.654,0,3,1.346,3,3s-1.346,3-3,3   s-3-1.346-3-3S25.346,13,27,13z"></path><path d="M31,24c0,1.654,1.346,3,3,3s3-1.346,3-3s-1.346-3-3-3S31,22.346,31,24z M34,23c0.551,0,1,0.449,1,1s-0.449,1-1,1   s-1-0.449-1-1S33.449,23,34,23z"></path><path d="M41,23c1.654,0,3-1.346,3-3s-1.346-3-3-3s-3,1.346-3,3S39.346,23,41,23z M41,19c0.551,0,1,0.449,1,1s-0.449,1-1,1   s-1-0.449-1-1S40.449,19,41,19z"></path><path d="M17,26c0-0.482,0.602-2,2-2h3v-2h-3c-2.663,0-4,2.564-4,4H17z"></path><rect x="44" y="25" width="4" height="2"></rect></g></svg>