<svg height='100px' width='100px'  fill="#000000" xmlns="http://www.w3.org/2000/svg" xmlns:xlink="http://www.w3.org/1999/xlink" version="1.1" x="0px" y="0px" viewBox="0 0 100 100" enable-background="new 0 0 100 100" xml:space="preserve"><path fill-rule="evenodd" clip-rule="evenodd" d="M51.85,5.001c0.101,0,0.217,0.033,0.351,0.1c2.033,0.867,3.717,2.016,5.05,3.449  c0.233,0.168,0.35,0.4,0.35,0.701c0,0.232-0.1,0.432-0.3,0.6c-0.233,0.232-0.45,0.35-0.649,0.35c-0.268,0-0.5-0.084-0.7-0.25  c-1.233-1.166-2.684-2.166-4.351-3c-0.232,0-0.416-0.084-0.55-0.25c-0.233-0.199-0.35-0.434-0.35-0.699  c0-0.234,0.116-0.467,0.35-0.701c0.167-0.199,0.367-0.299,0.601-0.299C51.717,5.001,51.783,5.001,51.85,5.001z M77.7,24.55  c0.233-0.232,0.467-0.35,0.7-0.35c0.3,0,0.533,0.117,0.699,0.35c0.067,0.033,0.134,0.084,0.2,0.15c1.267,0.934,2.483,1.967,3.65,3.1  c0.233,0.301,0.467,0.566,0.7,0.801c0.199,0.166,0.267,0.4,0.199,0.699c0,0.301-0.083,0.533-0.25,0.701  c-0.232,0.166-0.467,0.232-0.699,0.199c-0.301,0-0.533-0.117-0.7-0.35c-0.233-0.201-0.45-0.418-0.65-0.65  c-1.033-1.033-2.133-1.982-3.3-2.85c-0.367-0.168-0.583-0.367-0.65-0.6c-0.1-0.168-0.149-0.334-0.149-0.5  C77.45,24.95,77.533,24.718,77.7,24.55z M73.75,21.3c0.233,0.033,0.417,0.201,0.55,0.5c0.033,0.234,0.033,0.5,0,0.801  c-0.133,0.232-0.35,0.383-0.649,0.449c-0.233,0.1-0.467,0.1-0.7,0c-0.8-0.367-1.533-0.684-2.2-0.949  c-1.133-0.434-2.25-0.801-3.35-1.1c-0.301-0.033-0.5-0.168-0.601-0.4c-0.133-0.234-0.167-0.5-0.1-0.801  c0.066-0.232,0.217-0.416,0.45-0.549c0.232-0.168,0.5-0.184,0.8-0.051c1.167,0.268,2.283,0.617,3.35,1.051  C72.133,20.517,72.95,20.866,73.75,21.3z M51.85,9.851c0.167,0.166,0.367,0.332,0.601,0.5c0.066,0,0.133,0,0.2,0  c1.666,1.199,2.949,2.566,3.85,4.1c1.2,2.232,1.65,4.9,1.35,8h0.95c1.3,0,2.567,0.084,3.8,0.25c0.733,0.1,1.518,0.217,2.351,0.35  c0.233,0.066,0.467,0.117,0.7,0.15c4.767,1.133,9.05,3.4,12.85,6.801c0.333,0.365,0.684,0.717,1.05,1.049  c0.333,0.367,0.684,0.75,1.05,1.15c0.7,0.768,1.367,1.551,2,2.35c2.033,2.768,3.551,5.768,4.551,9c0.699,2.633,1.05,5.418,1.05,8.35  v9.602c0,3.566-0.567,6.932-1.7,10.1c-1.434,3.934-3.75,7.5-6.95,10.699c-5.767,5.701-12.717,8.551-20.85,8.551H42.8  c-3.533,0-6.883-0.551-10.05-1.65c-3.167-1.166-6.1-2.883-8.8-5.15c-0.233-0.232-0.434-0.4-0.601-0.5  c-0.133-0.133-0.217-0.25-0.25-0.35c-0.366-0.301-0.699-0.6-1-0.9c-0.633-0.566-1.217-1.184-1.75-1.85  c-4.566-5.334-6.85-11.65-6.85-18.949v-9.602c0-4.199,0.75-8.049,2.25-11.549c0.1,0.332,0.15,0.699,0.15,1.1  c0,0.232,0.017,1.4,0.05,3.5v0.051c0,1.1,0.417,2.033,1.25,2.799c0.767,0.734,1.7,1.1,2.8,1.1c1.133,0,2.083-0.398,2.85-1.199  c0.733-0.801,1.101-1.75,1.101-2.85c-0.033-2.033-0.05-3.168-0.05-3.4c0-3.5-1.184-6.283-3.551-8.35c0-0.033-0.017-0.051-0.05-0.051  c0.567-0.666,1.167-1.332,1.8-2c2.134-2.166,4.45-3.9,6.95-5.199c0.101,0.1,0.233,0.217,0.4,0.35c0.116,0.117,0.233,0.232,0.35,0.35  c1.567,1.367,3.467,2.25,5.7,2.65h0.05c0.967,0.133,1.983,0.166,3.05,0.1h2.051c1.1,0,2.033-0.4,2.8-1.199  c0.167-0.168,0.35-0.35,0.55-0.551c0.033-0.033,0.083-0.082,0.15-0.15c0.3-0.6,0.449-1.283,0.449-2.049c0-1.1-0.366-2.033-1.1-2.801  c-0.033-0.033-0.05-0.066-0.05-0.1h0.3c4.934-2.133,7.283-6.518,7.05-13.15C51.133,9.501,51.483,9.683,51.85,9.851z M38.05,18.751  c0.167-0.234,0.367-0.352,0.601-0.352c0.633-0.133,1.267-0.199,1.899-0.199c1-0.5,1.9-1.084,2.7-1.75c0.167-0.232,0.4-0.35,0.7-0.35  c0.233,0,0.467,0.117,0.7,0.35c0.1,0.232,0.149,0.467,0.149,0.699c0,0.301-0.083,0.533-0.25,0.701c-1,0.9-2.116,1.633-3.35,2.199  c-0.134,0.066-0.25,0.1-0.351,0.1c-0.666,0.068-1.35,0.117-2.05,0.15c-0.233,0.066-0.433,0.018-0.6-0.15  c-0.233-0.232-0.384-0.467-0.45-0.699C37.75,19.149,37.85,18.917,38.05,18.751z M46.15,12.7c-0.134-0.199-0.167-0.416-0.101-0.65  c0.533-1.633,0.767-3.516,0.7-5.65c0-0.266,0.117-0.5,0.35-0.699c0.134-0.232,0.367-0.35,0.7-0.35c0.233,0,0.434,0.117,0.601,0.35  c0.232,0.199,0.35,0.434,0.35,0.699c0.066,2.301-0.184,4.352-0.75,6.15c-0.133,0.268-0.316,0.467-0.55,0.6  c-0.233,0.102-0.467,0.117-0.7,0.051C46.45,13.101,46.25,12.933,46.15,12.7z M7.9,32.8l0.05-0.049c0.399-0.4,0.883-0.602,1.45-0.602  h2.25c2.767-0.133,5.083,0.568,6.949,2.102c0.101,0.066,0.2,0.148,0.301,0.25c0.066,0.033,0.149,0.1,0.25,0.199  c1.833,1.699,2.75,3.949,2.75,6.75c0,0.232,0.017,1.367,0.05,3.4v0.049c0,0.5-0.184,0.967-0.55,1.4l-0.051,0.051  c-0.333,0.367-0.783,0.549-1.35,0.549s-1.05-0.199-1.45-0.6l0.05,0.1c-0.433-0.365-0.649-0.832-0.649-1.398V44.95  c-0.033-2.1-0.05-3.268-0.05-3.5c0-1.199-0.283-2.217-0.851-3.051c-0.233-0.332-0.5-0.633-0.8-0.898  c-0.066-0.033-0.117-0.084-0.15-0.15c-0.5-0.4-1.017-0.684-1.55-0.85c-0.667-0.234-1.383-0.352-2.149-0.352c-0.2,0-0.384,0-0.551,0  c-0.066,0-0.116,0-0.149,0H9.4c-0.601,0-1.067-0.182-1.4-0.549c-0.4-0.4-0.6-0.883-0.6-1.451C7.4,33.649,7.566,33.2,7.9,32.8z   M7.95,23.95c0.333-0.4,0.8-0.6,1.399-0.6H11.7c0.033,0,0.066,0,0.1,0h0.05c1.733,0.1,3.184-0.334,4.351-1.301  c1.1-1,1.649-2.332,1.649-4c0-0.232,0.018-1.4,0.051-3.5v-0.049c0-0.602,0.217-1.068,0.649-1.4c0.391-0.367,0.857-0.551,1.4-0.551  c0.6,0,1.083,0.217,1.45,0.65L21.3,13.149c0.4,0.4,0.601,0.885,0.601,1.451v0.049c-0.033,2.033-0.051,3.168-0.051,3.4  c0,2.934-1,5.25-3,6.951c0,0.033-0.017,0.049-0.05,0.049c-1.899,1.668-4.3,2.434-7.2,2.301H9.35c-0.566,0-1.05-0.201-1.449-0.6  c-0.033,0-0.051-0.018-0.051-0.051c-0.333-0.4-0.5-0.85-0.5-1.35C7.35,24.751,7.55,24.284,7.95,23.95z M79,86.55  c0.3,0,0.533,0.117,0.7,0.35c0.2,0.234,0.267,0.467,0.2,0.701c-0.067,0.232-0.184,0.449-0.351,0.65  c-1.633,1.266-3.366,2.365-5.2,3.299c-0.232,0.133-0.467,0.133-0.699,0c-0.268-0.033-0.467-0.166-0.601-0.4  c-0.1-0.266-0.133-0.533-0.1-0.799c0.133-0.234,0.316-0.451,0.55-0.65c1.7-0.801,3.3-1.768,4.8-2.9  C78.5,86.567,78.733,86.483,79,86.55z M87.85,78.649c0.033,0.168,0,0.4-0.1,0.701c-1.1,1.699-2.35,3.332-3.75,4.9  c-0.233,0.166-0.467,0.25-0.7,0.25c-0.267,0-0.5-0.051-0.7-0.15c-0.232-0.234-0.35-0.467-0.35-0.701c0-0.299,0.1-0.533,0.3-0.699  c1.333-1.467,2.517-3.018,3.55-4.65c0.101-0.232,0.301-0.383,0.601-0.449s0.533-0.033,0.7,0.1  C87.633,78.05,87.783,78.284,87.85,78.649z M69,91.899c0.233,0.135,0.4,0.352,0.5,0.65c0.066,0.234,0.033,0.467-0.1,0.701  c-0.167,0.232-0.367,0.365-0.601,0.398c-1.933,0.602-3.95,0.984-6.05,1.15c-0.3,0.066-0.566-0.016-0.8-0.25  c-0.167-0.133-0.283-0.332-0.351-0.6c0-0.301,0.101-0.533,0.301-0.699c0.166-0.234,0.399-0.352,0.699-0.352  c1.9-0.199,3.801-0.549,5.7-1.049C68.533,91.784,68.767,91.8,69,91.899z M56.85,93.05c0.268,0,0.483,0.084,0.65,0.25  c0.233,0.201,0.35,0.434,0.35,0.701c0,0.232-0.116,0.467-0.35,0.699c-0.167,0.199-0.383,0.301-0.65,0.301H50.95  c-0.233,0-0.467-0.102-0.7-0.301C50.083,94.468,50,94.233,50,94.001c0-0.268,0.083-0.5,0.25-0.701c0.233-0.166,0.467-0.25,0.7-0.25  H56.85z M66.4,82.05c0.366-0.4,0.55-0.883,0.55-1.449s-0.184-1.033-0.55-1.4c-0.4-0.4-0.884-0.6-1.45-0.6H38.4  c-0.567,0-1.033,0.199-1.4,0.6c-0.4,0.367-0.6,0.834-0.6,1.4S36.6,81.649,37,82.05c0.367,0.367,0.833,0.551,1.4,0.551h26.55  C65.517,82.601,66,82.417,66.4,82.05z M85.65,61.899c0-0.566-0.167-1.033-0.5-1.398c-0.4-0.4-0.884-0.602-1.45-0.602H67.4  c-0.567,0-1.033,0.201-1.4,0.602c-0.4,0.365-0.6,0.832-0.6,1.398c0,0.568,0.199,1.051,0.6,1.451c0.367,0.367,0.833,0.549,1.4,0.549  h16.3c0.566,0,1.05-0.182,1.45-0.549C85.483,62.95,85.65,62.468,85.65,61.899z M92.05,67.55c0.101,0.234,0.134,0.5,0.101,0.801  c-0.367,1.934-0.9,3.816-1.601,5.65c-0.133,0.232-0.316,0.398-0.55,0.5c-0.267,0.133-0.517,0.133-0.75,0  c-0.233-0.102-0.417-0.268-0.55-0.5c-0.101-0.234-0.101-0.5,0-0.801c0.633-1.666,1.133-3.4,1.5-5.199  c0.066-0.301,0.217-0.518,0.45-0.65c0.166-0.168,0.399-0.217,0.699-0.15C91.65,67.2,91.883,67.317,92.05,67.55z M91,55.649  c0.233-0.166,0.467-0.25,0.7-0.25c0.3,0,0.533,0.084,0.7,0.25c0.166,0.168,0.25,0.4,0.25,0.701v5.5c0,0.1,0,0.25,0,0.449  c0,0.268-0.084,0.5-0.25,0.701c-0.167,0.166-0.4,0.25-0.7,0.25c-0.233,0-0.467-0.084-0.7-0.25c-0.167-0.201-0.25-0.434-0.25-0.701  c0-0.199,0-0.35,0-0.449v-5.5C90.75,56.05,90.833,55.817,91,55.649z M90.1,44.851c-0.066-0.234,0-0.467,0.2-0.701  c0.101-0.232,0.3-0.365,0.601-0.398c0.232-0.068,0.467-0.018,0.699,0.148c0.233,0.135,0.384,0.334,0.45,0.602  c0.333,1.932,0.533,3.949,0.601,6.049c0,0.234-0.051,0.451-0.15,0.65c-0.233,0.232-0.467,0.35-0.7,0.35c-0.3,0-0.533-0.1-0.7-0.299  c-0.232-0.168-0.35-0.4-0.35-0.701C90.684,48.583,90.467,46.683,90.1,44.851z M86,33.001c0.233-0.168,0.5-0.234,0.8-0.201  c0.233,0.066,0.434,0.217,0.601,0.451c1.166,1.766,2.149,3.582,2.949,5.449c0.067,0.232,0.067,0.5,0,0.801  c-0.166,0.232-0.366,0.398-0.6,0.5c-0.233,0.133-0.467,0.133-0.7,0c-0.3-0.102-0.467-0.268-0.5-0.5  c-0.767-1.834-1.717-3.568-2.85-5.201c-0.101-0.232-0.117-0.5-0.05-0.799C85.65,33.267,85.767,33.101,86,33.001z M60.05,19.95  c-0.233-0.232-0.35-0.467-0.35-0.699c-0.067-1.334-0.25-2.584-0.55-3.75v0.1c-0.067-0.367-0.15-0.717-0.25-1.051  c-0.067-0.232-0.033-0.467,0.1-0.699c0.1-0.301,0.3-0.484,0.6-0.551c0.233-0.066,0.467-0.033,0.7,0.1  c0.233,0.168,0.384,0.367,0.45,0.602c0.1,0.365,0.217,0.682,0.35,0.949c0.301,1.066,0.467,2.15,0.5,3.25H61.7  c0.233,0,0.467,0.1,0.7,0.301c0.166,0.232,0.25,0.467,0.25,0.699c0,0.268-0.084,0.5-0.25,0.699c-0.233,0.168-0.467,0.25-0.7,0.25  c-0.333,0-0.65,0-0.95,0S60.217,20.083,60.05,19.95z M31.75,14.55c0.033,2.1,0.05,3.268,0.05,3.5c0,1.668,0.55,3,1.65,4  c1.167,0.967,2.633,1.4,4.399,1.301H37.9c0.033,0,0.066,0,0.1,0h2.35c0.601,0,1.067,0.199,1.4,0.6c0.4,0.334,0.6,0.801,0.6,1.4  c0,0.5-0.166,0.949-0.5,1.35c0,0.033-0.017,0.051-0.05,0.051c-0.399,0.398-0.883,0.6-1.45,0.6H38.1  c-2.933,0.133-5.35-0.633-7.25-2.301c-0.033,0-0.05-0.016-0.05-0.049c-1.967-1.701-2.95-4.018-2.95-6.951  c0-0.232-0.017-1.367-0.05-3.4v-0.049c0-0.566,0.2-1.051,0.601-1.451L28.3,13.2c0.333-0.434,0.8-0.65,1.4-0.65  c0.533,0,1,0.184,1.399,0.551c0.434,0.332,0.65,0.799,0.65,1.4V14.55z M30.5,24.3l-0.05-0.049l0.05,0.148  C30.5,24.366,30.5,24.333,30.5,24.3z M32.45,24.251L32.5,24.3l-0.05-0.1V24.251z M9.55,45.399c0.033-0.299,0.167-0.533,0.4-0.699  c0.2-0.133,0.433-0.166,0.7-0.1c0.3,0,0.533,0.117,0.699,0.35c0.134,0.232,0.167,0.5,0.101,0.801c-0.3,1.766-0.45,3.633-0.45,5.6  v4.549c0,0.301-0.117,0.551-0.35,0.75c-0.167,0.234-0.367,0.352-0.601,0.352c-0.3,0-0.533-0.117-0.7-0.352  C9.117,56.45,9,56.2,9,55.899v-4.549C9,49.251,9.184,47.267,9.55,45.399z M19.15,24.399l0.05-0.148L19.15,24.3  C19.15,24.333,19.15,24.366,19.15,24.399z M27.25,47.7c0.767,0.801,1.7,1.199,2.8,1.199c1.101,0,2.05-0.365,2.851-1.1  c0.8-0.766,1.199-1.699,1.199-2.799V44.95c0.033-2.1,0.051-3.268,0.051-3.5c0-1,0.333-1.816,1-2.449c0.8-0.635,1.8-0.918,3-0.852  c0.033,0,0.066,0,0.1,0c0.066,0,0.117,0,0.15,0h2.3c1.1,0,2.033-0.365,2.8-1.1c0-0.033,0.017-0.049,0.05-0.049  c0.733-0.801,1.101-1.75,1.101-2.852c0-1.133-0.384-2.066-1.15-2.799c-0.767-0.801-1.7-1.201-2.8-1.201h-2.15  c-0.899-0.033-1.767,0.018-2.6,0.15v-0.049c-2.333,0.299-4.317,1.182-5.95,2.648c-0.2,0.102-0.367,0.25-0.5,0.451  c-2.2,2-3.3,4.699-3.3,8.1c0,0.232-0.017,1.367-0.05,3.4C26.15,45.95,26.517,46.899,27.25,47.7z M34.2,36.7l-0.05,0.051  c0,0.033,0,0.066,0,0.1L34.2,36.7z M28.7,46.351L28.65,46.3c-0.334-0.434-0.5-0.9-0.5-1.4v-0.049c0.033-2.033,0.05-3.168,0.05-3.4  c0-2.768,0.866-4.949,2.6-6.551c0.033-0.033,0.067-0.066,0.101-0.1c0.033-0.1,0.066-0.166,0.1-0.199  c0.066-0.066,0.167-0.117,0.3-0.15c0-0.066,0.033-0.1,0.101-0.1c1.333-1.133,2.933-1.834,4.8-2.1c0.733-0.102,1.5-0.135,2.3-0.102  h2.2c0.566,0,1.05,0.201,1.45,0.602c0.033,0.033,0.066,0.049,0.1,0.049c0.267,0.4,0.4,0.85,0.4,1.35c0,0.568-0.134,1.033-0.4,1.4  c-0.066,0.033-0.117,0.084-0.15,0.15c-0.366,0.301-0.833,0.449-1.399,0.449H38.35c-0.033,0-0.066,0-0.1,0H38.2  c-1.767-0.1-3.217,0.334-4.351,1.301c0,0.033-0.017,0.051-0.05,0.051c-1.1,1-1.649,2.316-1.649,3.949c0,0.232-0.018,1.4-0.051,3.5  v0.051c0,0.533-0.183,0.967-0.55,1.299l-0.05,0.051c-0.434,0.367-0.917,0.549-1.45,0.549C29.483,46.899,29.033,46.718,28.7,46.351z   M35.55,60.351c-0.399-0.4-0.883-0.6-1.45-0.6H17.8c-0.566,0-1.033,0.199-1.399,0.6c-0.4,0.367-0.601,0.832-0.601,1.4  c0,0.566,0.2,1.049,0.601,1.449c0.366,0.367,0.833,0.551,1.399,0.551h16.3c0.567,0,1.051-0.184,1.45-0.551  c0.367-0.4,0.55-0.883,0.55-1.449C36.1,61.183,35.917,60.718,35.55,60.351z M38.3,93.851c0-0.301,0.117-0.533,0.351-0.701  c0.166-0.166,0.399-0.25,0.699-0.25c0.934,0.102,1.867,0.15,2.801,0.15H45.1c0.233,0,0.467,0.084,0.7,0.25  c0.167,0.201,0.25,0.434,0.25,0.701c0,0.232-0.083,0.467-0.25,0.699c-0.233,0.199-0.467,0.301-0.7,0.301H42.15c-1,0-2-0.033-3-0.102  c-0.268-0.066-0.5-0.182-0.7-0.35C38.283,94.384,38.233,94.149,38.3,93.851z M27.65,91.751c-0.233-0.135-0.417-0.318-0.551-0.551  c-0.033-0.301,0-0.566,0.101-0.801c0.133-0.232,0.333-0.398,0.6-0.5c0.233-0.133,0.45-0.1,0.65,0.102c1.7,0.799,3.467,1.467,5.3,2  c0.233,0.066,0.434,0.217,0.6,0.449c0.067,0.232,0.067,0.5,0,0.801c-0.066,0.232-0.217,0.398-0.449,0.5  c-0.233,0.166-0.467,0.232-0.7,0.199C31.267,93.351,29.417,92.616,27.65,91.751z M20.1,83.899c1.101,1.102,2.268,2.102,3.5,3  c0.233,0.168,0.384,0.385,0.45,0.65c0.067,0.234,0,0.467-0.2,0.701c-0.166,0.232-0.399,0.365-0.699,0.398  c-0.233,0-0.467-0.082-0.7-0.25c-1.267-0.967-2.517-2.033-3.75-3.199c-0.367-0.301-0.684-0.617-0.95-0.949  c-0.2-0.234-0.3-0.467-0.3-0.701c0-0.299,0.116-0.533,0.35-0.699c0.233-0.168,0.467-0.25,0.7-0.25c0.3,0,0.533,0.117,0.7,0.35  C19.5,83.218,19.8,83.534,20.1,83.899z M11.3,74.001c-0.133-0.301-0.133-0.568,0-0.801c0.101-0.232,0.267-0.383,0.5-0.449  c0.3-0.102,0.567-0.102,0.8,0c0.233,0.066,0.417,0.25,0.551,0.549c0.5,1.434,1.149,2.867,1.949,4.301  c0.167,0.232,0.367,0.482,0.601,0.75c0.133,0.232,0.167,0.5,0.1,0.799c-0.066,0.234-0.217,0.434-0.45,0.602  c-0.232,0.133-0.467,0.199-0.699,0.199c-0.268-0.066-0.45-0.217-0.551-0.449c-0.232-0.301-0.433-0.584-0.6-0.852  C12.6,77.116,11.867,75.567,11.3,74.001z M10.65,61.601c0.232,0.166,0.35,0.4,0.35,0.699c0,1.9,0.184,3.768,0.55,5.6  c0,0.301-0.066,0.568-0.2,0.801c-0.166,0.166-0.366,0.283-0.6,0.35c-0.3,0.033-0.533-0.033-0.7-0.199  c-0.233-0.1-0.383-0.301-0.45-0.6c-0.333-1.934-0.533-3.9-0.6-5.9c0-0.268,0.117-0.518,0.35-0.75c0.134-0.201,0.367-0.301,0.7-0.301  C10.283,61.3,10.483,61.399,10.65,61.601z"></path></svg>