<svg height='100px' width='100px'  fill="#000000" xmlns="http://www.w3.org/2000/svg" xmlns:xlink="http://www.w3.org/1999/xlink" version="1.1" x="0px" y="0px" viewBox="0 0 512 512" enable-background="new 0 0 512 512" xml:space="preserve"><path d="M189.246,74.592l51.875,34.377V66.594h-49.465C187.333,66.594,185.643,72.205,189.246,74.592z"></path><polygon points="265.845,66.594 252.799,66.594 251.801,66.594 251.801,116.047 251.801,216.617 265.845,216.617 "></polygon><path d="M105.372,329.641c-7.131,0-12.932-5.801-12.932-12.933h-9.693c0,12.476,10.149,22.626,22.625,22.626  s22.626-10.15,22.626-22.626c0-10.813-7.625-19.878-17.78-22.104v-7.473c3.135-1.717,5.262-5.045,5.262-8.871  c0-3.827-2.127-7.155-5.262-8.871v-53.123l-9.692-13.491v66.614c-3.135,1.717-5.261,5.045-5.261,8.871  c0,3.825,2.126,7.154,5.261,8.87v16.645h4.846c7.131,0,12.933,5.801,12.933,12.933S112.503,329.641,105.372,329.641z"></path><path d="M77.485,153.716c0.868,0,1.705-0.121,2.509-0.327l9.784,14.207l10.748,15.604l9.692,14.073l10.902,15.829l96.183,139.655  c2.354-0.372,4.721-0.754,7.1-1.147v-41.749L86.643,147.865c0.604-1.295,0.95-2.734,0.95-4.258c0-5.582-4.525-10.107-10.108-10.107  s-10.108,4.525-10.108,10.107C67.377,149.19,71.903,153.716,77.485,153.716z"></path><path d="M228.625,253.611h10.019v96.169c50.418-8.899,105.228-22.657,155.465-43.914v-52.255h10.019v-22.753H265.845h-14.044  h-23.176V253.611z M345.271,278.807c9.032,0,16.354,7.322,16.354,16.354s-7.321,16.354-16.354,16.354s-16.354-7.322-16.354-16.354  S336.239,278.807,345.271,278.807z M287.748,278.807c9.032,0,16.354,7.322,16.354,16.354s-7.321,16.354-16.354,16.354  s-16.354-7.322-16.354-16.354S278.716,278.807,287.748,278.807z"></path><path d="M126.282,445.406h179.874c50.114,0,95.585-29.115,116.831-74.503c14.647-31.291,23.646-58.552,27.517-71.284  c0.661-2.177-1.051-4.109-3.033-4.109c-0.517,0-1.052,0.132-1.567,0.425c-13.174,7.478-26.949,14.284-41.113,20.495  c-1.773,0.777-3.556,1.541-5.341,2.301c-1.775,0.754-3.554,1.502-5.34,2.238c-50.488,20.808-105.225,34.324-155.465,43.099  c-1.787,0.312-3.565,0.617-5.34,0.917c-1.785,0.303-3.568,0.603-5.34,0.893c-84.484,13.83-154.047,14.418-165.208,14.418  c-0.021,0-0.046,0-0.066,0c-0.801,0-1.425,0.709-1.325,1.504c1.21,9.684,3.936,18.494,7.345,26.267  C78.701,430.849,101.404,445.406,126.282,445.406z"></path></svg>