<svg height="100px" width="100px" fill="#000000" xmlns:x="http://ns.adobe.com/Extensibility/1.0/" xmlns:i="http://ns.adobe.com/AdobeIllustrator/10.0/" xmlns:graph="http://ns.adobe.com/Graphs/1.0/" xmlns="http://www.w3.org/2000/svg" xmlns:xlink="http://www.w3.org/1999/xlink" version="1.1" x="0px" y="0px" viewBox="0 0 100 100" style="enable-background:new 0 0 100 100;" xml:space="preserve">
	<g>
		

			<g>
				<path d="M3.1,74.1c-0.8,0.8-0.8,2.2,0,3l14.4,14.4c0.8,0.8,2.2,0.8,3,0l7.7-7.7L10.8,66.4L3.1,74.1z">
				</path>
				<path d="M96.6,59c-1.1-1.5-3-2.3-4.8-2l-15.4,2.6c0,0.4-0.1,0.7-0.1,1.1c-0.8,4.1-4.3,7.2-8.5,7.5l-1,0.1     c-5.5,0.4-11.2,0.3-16.7-0.3l-4.5-0.5c-1.4-0.1-2.4-1.4-2.3-2.8c0.1-1.4,1.4-2.4,2.8-2.3l4.5,0.5c5.2,0.5,10.6,0.6,15.8,0.3     l1-0.1c1.9-0.1,3.5-1.5,3.9-3.4c0.2-1.1,0-2.3-0.7-3.2c-0.6-0.9-1.6-1.6-2.7-1.8l-23.5-4.1c-2.6-0.5-5.3,0-7.7,1.2L14.8,63.3     l18.2,18.2l19.6,4.7c3.4,0.8,7,0.3,10.1-1.5L95,66.2c1.2-0.7,2.1-1.8,2.4-3.2C97.7,61.6,97.4,60.2,96.6,59z">
				</path>
				<path d="M49,41.8l24.7,8c1.7,0.6,3.5,0.8,5.3,0.8c2.7,0,5.4-0.7,7.9-1.9c4.2-2.1,7.2-5.7,8.7-10.1c1.4-4.4,1-9.1-1.1-13.3     c-2.1-4.2-5.7-7.2-10.1-8.6l-24.7-8c-9.1-3-19,2.1-21.9,11.2c-1.4,4.4-1,9.1,1.1,13.3C41,37.4,44.6,40.4,49,41.8z M70.2,19.1     L82.4,23c2.7,0.9,4.9,2.8,6.3,5.4c1.3,2.6,1.6,5.5,0.7,8.2c-0.9,2.7-2.8,4.9-5.4,6.3c-2.6,1.3-5.5,1.6-8.2,0.7l-12.1-3.9     L70.2,19.1z M43.8,20.8c0.2-0.6,0.6-1.1,1.2-1.4c0.6-0.3,1.2-0.3,1.8-0.1c1.2,0.4,1.9,1.7,1.5,3c-0.6,2-0.5,4,0.5,5.9     c0.9,1.8,2.5,3.2,4.5,3.8l3.1,1c0.6,0.2,1.1,0.6,1.4,1.2c0.3,0.6,0.3,1.2,0.1,1.8c-0.3,1-1.3,1.6-2.3,1.6c-0.2,0-0.5,0-0.7-0.1     l-3.1-1c-3.2-1-5.7-3.2-7.3-6.2C43.1,27.3,42.8,24,43.8,20.8z">
				</path>
			</g>
		
	</g>
</svg>
