<svg height='100px' width='100px'  fill="#000000" xmlns="http://www.w3.org/2000/svg" data-name="Layer 1" viewBox="0 0 64 64" x="0px" y="0px"><title>staff-team- workforce- workers-management</title><path d="M46.851,33.525a1,1,0,0,0,.044-.972l-2-4A1,1,0,0,0,44,28H41V25a9.01,9.01,0,0,0-5.623-8.337,5,5,0,1,0-6.754,0A9.01,9.01,0,0,0,23,25v3H20a1,1,0,0,0-.895.553l-2,4A1,1,0,0,0,18,34H46A1,1,0,0,0,46.851,33.525ZM32,10a3,3,0,1,1-3,3A3,3,0,0,1,32,10ZM25,25a7,7,0,0,1,14,0v3H25Zm-5.382,7,1-2H43.382l1,2Z"></path><path d="M3.95,56.579l-1.857,4A1,1,0,0,0,3,62H29a1,1,0,0,0,.907-1.421l-1.857-4A1,1,0,0,0,27.143,56H25V53a9.01,9.01,0,0,0-5.623-8.337,5,5,0,1,0-6.754,0A9.01,9.01,0,0,0,7,53v3H4.857A1,1,0,0,0,3.95,56.579ZM16,38a3,3,0,1,1-3,3A3,3,0,0,1,16,38ZM9,53a7,7,0,0,1,14,0v3H9ZM8,58H26.5l.929,2H4.567L5.5,58Z"></path><path d="M35,62H61a1,1,0,0,0,.907-1.421l-1.857-4A1,1,0,0,0,59.143,56H57V53a9.01,9.01,0,0,0-5.623-8.337,5,5,0,1,0-6.754,0A9.01,9.01,0,0,0,39,53v3H36.857a1,1,0,0,0-.907.579l-1.857,4A1,1,0,0,0,35,62ZM48,38a3,3,0,1,1-3,3A3,3,0,0,1,48,38ZM41,53a7,7,0,0,1,14,0v3H41Zm-3.5,5H58.5l.929,2H36.567Z"></path><path d="M53.61,16.423c.324.553.627,1.123.9,1.7l1.8-.871c-.3-.618-.627-1.235-.975-1.832Z"></path><path d="M55.284,19.877c.234.6.446,1.207.632,1.814l1.912-.584c-.2-.656-.43-1.316-.682-1.961Z"></path><path d="M51.427,13.263c.405.5.793,1.017,1.151,1.537l1.647-1.137c-.388-.561-.807-1.12-1.246-1.66Z"></path><path d="M56.4,23.549c.14.626.255,1.262.345,1.891l1.98-.283c-.1-.679-.222-1.366-.372-2.042Z"></path><path d="M56.946,27.353Q57,28.169,57,29h2q0-.9-.058-1.778Z"></path><path d="M9.95,13.414l1.633,1.156c.37-.523.764-1.036,1.17-1.524l-1.537-1.279C10.776,12.3,10.351,12.85,9.95,13.414Z"></path><path d="M7.818,16.977l1.791.89c.285-.572.6-1.139.923-1.685l-1.715-1.03C8.463,15.743,8.127,16.357,7.818,16.977Z"></path><path d="M15.426,10.282,14.1,8.786c-.514.455-1.018.938-1.5,1.434l1.435,1.392C14.482,11.151,14.95,10.7,15.426,10.282Z"></path><path d="M48.784,10.472c.473.429.936.882,1.374,1.346l1.453-1.375c-.473-.5-.972-.989-1.483-1.452Z"></path><path d="M5,29H7c0-.64.024-1.286.072-1.922l-1.994-.15C5.026,27.613,5,28.311,5,29Z"></path><path d="M6.26,20.826l1.906.6c.193-.611.412-1.218.652-1.808L6.965,18.87C6.706,19.508,6.469,20.166,6.26,20.826Z"></path><path d="M25.485,4.857l-.521-1.93c-.67.18-1.336.388-1.983.617l.668,1.885C24.247,5.217,24.865,5.024,25.485,4.857Z"></path><path d="M29.258,4.148,29.039,2.16c-.689.076-1.38.178-2.052.3l.369,1.965C27.979,4.313,28.618,4.219,29.258,4.148Z"></path><path d="M21.864,6.141l-.81-1.828c-.624.276-1.251.583-1.863.914l.95,1.759C20.707,6.682,21.287,6.4,21.864,6.141Z"></path><path d="M33.186,2.025C32.5,2,31.8,1.993,31.111,2.014l.063,2c.638-.021,1.287-.018,1.924.009Z"></path><path d="M18.487,7.963,17.405,6.281c-.581.373-1.153.774-1.7,1.19l1.209,1.593C17.42,8.68,17.95,8.309,18.487,7.963Z"></path><path d="M48.539,7.655c-.55-.426-1.118-.833-1.689-1.209l-1.1,1.67c.528.348,1.054.725,1.563,1.119Z"></path><path d="M5.314,24.866l1.977.3c.1-.63.22-1.265.365-1.886l-1.947-.457C5.552,23.5,5.419,24.185,5.314,24.866Z"></path><path d="M37.3,2.521c-.679-.135-1.368-.246-2.049-.328L35.014,4.18c.63.075,1.268.176,1.9.3Z"></path><path d="M45.074,5.372c-.6-.333-1.222-.648-1.855-.937l-.832,1.818c.586.268,1.162.56,1.715.867Z"></path><path d="M39.322,3.005l-.543,1.926c.62.173,1.236.373,1.829.59l.69-1.876C40.655,3.409,39.991,3.193,39.322,3.005Z"></path></svg>