<svg height='100px' width='100px'  fill="#000000" xmlns:dc="http://purl.org/dc/elements/1.1/" xmlns:cc="http://creativecommons.org/ns#" xmlns:rdf="http://www.w3.org/1999/02/22-rdf-syntax-ns#" xmlns:svg="http://www.w3.org/2000/svg" xmlns="http://www.w3.org/2000/svg" xmlns:sodipodi="http://sodipodi.sourceforge.net/DTD/sodipodi-0.dtd" xmlns:inkscape="http://www.inkscape.org/namespaces/inkscape" version="1.1" x="0px" y="0px" viewBox="0 0 100 100"><g transform="translate(0,-952.36218)"><path d="m 49.951746,958.36062 c 0.2094,-0.001 0.4252,0.0304 0.625,0.0938 l 40.7187,12.9375 c 0.3099,0.0484 0.6207,0.1601 0.875,0.3437 0.3446,0.2287 0.6025,0.5824 0.75,0.9688 0.1475,0.3864 0.1671,0.8186 0.0625,1.2187 l 0,57.43758 c 0,0.4213 -0.1261,0.8477 -0.375,1.1875 -0.2489,0.3399 -0.5984,0.5915 -1,0.7188 l -40.7812,12.9375 c -0.2224,0.1019 -0.4435,0.1408 -0.6876,0.1562 -0.244,0.015 -0.4854,-0.021 -0.7187,-0.094 -0.0036,-10e-4 -0.0276,0 -0.0313,0 l -41.0311996,-13 c -0.4016,-0.1273 -0.7511,-0.3789 -1,-0.7188 -0.2489,-0.3398 -0.4061,-0.7662 -0.4062,-1.1875 l 0,-58.00008 c 0,-0.0194 -0.0011,-0.0431 0,-0.0625 0,-0.0104 0.0312,-0.0208 0.0312,-0.0312 0.0073,-0.2314 0.0394,-0.4412 0.125,-0.6563 0.0856,-0.2151 0.2213,-0.4206 0.375,-0.5937 0.1537,-0.1731 0.3278,-0.327 0.5312,-0.4375 0.2035,-0.1105 0.4274,-0.1841 0.6563,-0.2188 l 40.7186996,-12.9062 c 0.1907,-0.0605 0.3624,-0.0924 0.5626,-0.0938 z m 0.0312,4.0938 -13.875,4.4062 34.375,10.9063 13.8438,-4.375 -34.3438,-10.9375 z m -20.5,6.5 -13.9062,4.4062 34.3437,10.9063 13.9687,-4.4063 -34.4062,-10.9062 z m 59.5,7.1562 -16.4688,5.2188 0.1563,14.00002 c 0.0065,0.2639 -0.0292,0.5352 -0.125,0.7812 -0.0958,0.246 -0.2543,0.4663 -0.4375,0.6563 -0.1833,0.19 -0.4138,0.3641 -0.6562,0.4687 -0.2425,0.1047 -0.4862,0.1532 -0.75,0.1563 -0.2639,0 -0.5366,-0.057 -0.7813,-0.1563 -0.2447,-0.099 -0.4686,-0.2517 -0.6563,-0.4375 -0.1876,-0.1857 -0.336,-0.4125 -0.4374,-0.6562 -0.1015,-0.2437 -0.1567,-0.486 -0.1563,-0.75 l -0.1563,-12.81252 -16.5312,5.25 0,53.81258 37,-11.7188 0,-53.81258 z" style="text-indent:0;text-transform:none;direction:ltr;block-progression:tb;baseline-shift:baseline;color:#000000;enable-background:accumulate;" fill="#000000" fill-opacity="1" fill-rule="evenodd" stroke="none" marker="none" visibility="visible" display="inline" overflow="visible"></path></g></svg>