<svg height='100px' width='100px'  fill="#000000" xmlns="http://www.w3.org/2000/svg" xmlns:xlink="http://www.w3.org/1999/xlink" version="1.1" x="0px" y="0px" viewBox="0 0 100 100" enable-background="new 0 0 100 100" xml:space="preserve"><g><circle cx="22.801" cy="13.084" r="8.085"></circle><circle cx="56.154" cy="90.332" r="4.667"></circle><circle cx="75.027" cy="90.332" r="4.667"></circle><path d="M87.975,61.192c-0.004-0.109-0.016-0.217-0.031-0.324c-0.016-0.092-0.029-0.182-0.053-0.271   c-0.023-0.097-0.055-0.188-0.088-0.281c-0.031-0.092-0.066-0.182-0.107-0.271c-0.039-0.086-0.086-0.168-0.135-0.252   c-0.049-0.082-0.1-0.161-0.156-0.239c-0.057-0.08-0.121-0.151-0.186-0.228c-0.063-0.069-0.125-0.137-0.193-0.201   c-0.072-0.065-0.147-0.127-0.227-0.188c-0.078-0.059-0.156-0.115-0.24-0.168c-0.078-0.047-0.16-0.09-0.244-0.133   c-0.096-0.047-0.195-0.092-0.297-0.129c-0.039-0.014-0.074-0.037-0.115-0.049c-0.047-0.016-0.096-0.019-0.145-0.031   c-0.102-0.027-0.205-0.051-0.313-0.066c-0.103-0.016-0.201-0.025-0.301-0.029c-0.054-0.004-0.104-0.017-0.156-0.017H51.711   l-1.114-6.534c-0.004-0.017-0.01-0.029-0.014-0.045c-0.021-0.121-0.062-0.234-0.097-0.35c-0.022-0.076-0.041-0.152-0.069-0.225   c-0.046-0.113-0.105-0.217-0.164-0.322c-0.035-0.064-0.064-0.134-0.105-0.194c-0.072-0.11-0.158-0.21-0.244-0.311   c-0.039-0.045-0.072-0.094-0.113-0.137c-0.104-0.106-0.219-0.2-0.338-0.291c-0.033-0.024-0.061-0.055-0.096-0.078   c-0.121-0.085-0.252-0.153-0.385-0.221c-0.041-0.021-0.078-0.046-0.117-0.064c-0.115-0.051-0.236-0.085-0.357-0.12   c-0.07-0.021-0.137-0.05-0.207-0.064c-0.096-0.021-0.195-0.027-0.295-0.039c-0.104-0.013-0.203-0.029-0.307-0.031   c-0.018,0-0.033-0.005-0.049-0.005h-4.766L30.332,34.613l-0.283-3.835c0-3.946-3.422-7.145-7.646-7.145h-0.381   c-4.225,0-7.648,3.197-7.648,7.145L12.08,61.901h2.637v0.26l-2.689,28.812c-0.189,2.026,1.299,3.821,3.326,4.013   c0.115,0.012,0.23,0.016,0.346,0.016c1.881,0,3.486-1.432,3.664-3.342l2.602-27.893h0.49l2.604,27.891   c0.178,1.91,1.783,3.342,3.664,3.342c0.115,0,0.23-0.004,0.348-0.016c2.025-0.189,3.514-1.984,3.326-4.012l-2.691-28.811V61.9   h2.637l-1.096-14.878l6.369,7.452c0.73,0.853,1.762,1.291,2.803,1.291c0.625,0,1.25-0.161,1.813-0.481h2.876l4.574,26.838   c0.002,0.018,0.01,0.031,0.012,0.049c0.016,0.082,0.043,0.16,0.064,0.242c0.029,0.104,0.057,0.207,0.096,0.305   c0.029,0.074,0.064,0.145,0.1,0.215c0.049,0.098,0.098,0.193,0.154,0.285c0.041,0.064,0.086,0.125,0.131,0.186   c0.066,0.088,0.135,0.172,0.208,0.252c0.052,0.055,0.105,0.107,0.161,0.16c0.078,0.072,0.162,0.139,0.25,0.203   c0.061,0.047,0.123,0.092,0.188,0.133c0.092,0.059,0.188,0.107,0.285,0.154c0.067,0.033,0.133,0.068,0.202,0.098   c0.115,0.045,0.236,0.078,0.355,0.109c0.061,0.016,0.115,0.037,0.176,0.049c0.187,0.035,0.375,0.057,0.57,0.057   c0.002,0,0.004,0,0.006,0h25.834c0.004,0,0.008,0.002,0.012,0.002c0.188,0,0.369-0.022,0.551-0.057   c0.056-0.012,0.107-0.027,0.162-0.039c0.121-0.031,0.238-0.066,0.355-0.111c0.061-0.022,0.119-0.047,0.178-0.071   c0.113-0.054,0.221-0.113,0.326-0.179c0.045-0.026,0.092-0.053,0.135-0.082c0.146-0.102,0.283-0.213,0.41-0.338   c0.01-0.01,0.016-0.02,0.023-0.026c0.115-0.117,0.219-0.244,0.314-0.382c0.032-0.047,0.061-0.098,0.09-0.146   c0.063-0.103,0.121-0.204,0.172-0.315c0.029-0.064,0.057-0.129,0.082-0.197c0.018-0.047,0.043-0.092,0.059-0.143l6.5-20.302   c0.016-0.051,0.018-0.1,0.031-0.147c0.025-0.1,0.049-0.201,0.064-0.305c0.016-0.105,0.024-0.209,0.03-0.314   c0.002-0.051,0.017-0.098,0.017-0.148C87.988,61.274,87.977,61.235,87.975,61.192z"></path></g></svg>