<?xml version="1.0" encoding="utf-8"?>
<!-- Generator: Adobe Illustrator 24.2.1, SVG Export Plug-In . SVG Version: 6.00 Build 0)  -->
<svg version="1.1" id="Layer_1" xmlns="http://www.w3.org/2000/svg" xmlns:xlink="http://www.w3.org/1999/xlink" x="0px" y="0px"
	 viewBox="0 0 100 100" enable-background="new 0 0 100 100" xml:space="preserve">
<g>
	<path fill-rule="evenodd" clip-rule="evenodd" d="M50,6.982c19.663,0,35.601,15.938,35.601,35.601
		c0,19.662-15.938,35.6-35.601,35.6c-1.365,0-2.713-0.079-4.038-0.228L70.416,35.73l-14.587,0.256l10.682-16.208H41.507
		l-9.391,30.094l-1.298,4.132H42.07L36.111,75.37C23.349,69.96,14.399,57.316,14.399,42.583C14.399,22.919,30.338,6.982,50,6.982
		L50,6.982z M34.751,50.692l8.785-28.149h17.857L50.657,38.831l14.928-0.262L34.05,93.02l11.652-41.782H34.579
		C34.579,51.238,34.751,50.692,34.751,50.692z"/>
</g>
</svg>
