<svg height='100px' width='100px'  fill="#000000" xmlns="http://www.w3.org/2000/svg" xmlns:xlink="http://www.w3.org/1999/xlink" version="1.1" x="0px" y="0px" viewBox="0 0 100 100" enable-background="new 0 0 100 100" xml:space="preserve"><path d="M87.453,45.834c-3.443,0-6.294,2.552-6.781,5.862h-6.511v-2.249c0-0.368-0.202-0.706-0.526-0.88  c-0.323-0.174-0.716-0.157-1.024,0.045l-4.932,3.249c-0.199,0.131-0.339,0.329-0.405,0.552v-8.619c0-0.53-0.211-1.039-0.586-1.414  l-6.974-6.974c-0.375-0.375-0.884-0.586-1.414-0.586h-5.228c0.298-0.051,0.562-0.226,0.711-0.496l3.249-5.915  c0.17-0.31,0.164-0.687-0.016-0.991c-0.18-0.304-0.507-0.491-0.861-0.491h-2.195v-6.775c3.31-0.487,5.862-3.338,5.862-6.781  c0-3.784-3.078-6.862-6.862-6.862s-6.862,3.078-6.862,6.862c0,3.443,2.552,6.294,5.862,6.781v6.775h-2.303  c-0.354,0-0.681,0.187-0.861,0.491c-0.18,0.304-0.186,0.681-0.016,0.991l3.249,5.915c0.148,0.27,0.413,0.445,0.711,0.496H35.335  c0.07-0.042,0.143-0.076,0.202-0.135c0.231-0.23,0.334-0.56,0.278-0.881l-0.986-5.581c-0.065-0.367-0.329-0.668-0.684-0.78  c-0.355-0.112-0.744-0.018-1.008,0.247l-1.579,1.578l-6.088-6.736c-0.189-0.21-0.459-0.33-0.742-0.33h-3.327  c-0.487-3.31-3.337-5.862-6.781-5.862c-3.784,0-6.862,3.078-6.862,6.862s3.079,6.862,6.862,6.862c3.443,0,6.294-2.552,6.781-5.862  h2.883l5.858,6.481l-1.6,1.6c-0.264,0.264-0.359,0.652-0.247,1.007c0.112,0.356,0.413,0.62,0.779,0.685l5.173,0.915  c-0.861,0.223-1.499,0.999-1.499,1.929v15.487c-0.076-0.179-0.197-0.337-0.364-0.447l-4.932-3.249  c-0.307-0.203-0.701-0.219-1.024-0.045c-0.324,0.174-0.526,0.513-0.526,0.88v2.249h-6.576c-0.487-3.31-3.337-5.862-6.781-5.862  c-3.784,0-6.862,3.078-6.862,6.862s3.078,6.862,6.862,6.862c3.443,0,6.294-2.552,6.781-5.862h6.576v2.249  c0,0.368,0.217,0.681,0.526,0.88c0.415,0.268,0.858,0.064,1.024-0.045l4.932-3.249c0.167-0.11,0.288-0.268,0.364-0.447v16.333  c0,1.104,0.896,2,2,2h30.525c1.104,0,2-0.896,2-2V52.979c0.066,0.223,0.205,0.421,0.405,0.552l4.932,3.249  c0.167,0.11,0.623,0.298,1.024,0.045c0.311-0.196,0.526-0.513,0.526-0.88v-2.249h6.511c0.487,3.31,3.337,5.862,6.781,5.862  c3.784,0,6.862-3.078,6.862-6.862S91.237,45.834,87.453,45.834z M50.099,13.373c0-1.578,1.284-2.862,2.862-2.862  s2.862,1.284,2.862,2.862s-1.284,2.862-2.862,2.862S50.099,14.951,50.099,13.373z M51.348,28.929h3.117l-1.559,2.838L51.348,28.929z   M14.621,26.066c-1.578,0-2.862-1.284-2.862-2.862s1.284-2.862,2.862-2.862s2.862,1.284,2.862,2.862S16.199,26.066,14.621,26.066z   M31.314,32.342l1.879-1.879l0.403,2.283L31.314,32.342z M12.547,55.558c-1.578,0-2.862-1.284-2.862-2.862s1.284-2.862,2.862-2.862  s2.862,1.284,2.862,2.862S14.125,55.558,12.547,55.558z M27.903,54.089v-2.785l2.114,1.393L27.903,54.089z M62.44,43.79h-4.134  v-4.134L62.44,43.79z M36.749,67.417V38.821h19.557v5.968c0,0.552,0.448,1,1,1h5.968v21.628H36.749z M72.162,54.089l-2.114-1.393  l2.114-1.393V54.089z M87.453,55.558c-1.578,0-2.862-1.284-2.862-2.862s1.284-2.862,2.862-2.862s2.862,1.284,2.862,2.862  S89.031,55.558,87.453,55.558z M50.847,71.846c-0.37-0.562-1.3-0.562-1.67,0l-3.249,4.932c-0.203,0.307-0.22,0.701-0.045,1.024  s0.513,0.526,0.88,0.526h2.249v7.262l-8.466,0.032c-0.489-3.308-3.339-5.857-6.78-5.857c-3.784,0-6.862,3.079-6.862,6.862  s3.078,6.862,6.862,6.862c3.445,0,6.297-2.554,6.782-5.867l9.468-0.036c0.551-0.002,0.996-0.449,0.996-1v-8.258h2.249  c0.368,0,0.706-0.202,0.88-0.526s0.157-0.717-0.045-1.024L50.847,71.846z M33.766,89.489c-1.578,0-2.862-1.284-2.862-2.862  s1.284-2.862,2.862-2.862c1.578,0,2.862,1.284,2.862,2.862S35.344,89.489,33.766,89.489z M48.619,76.328l1.393-2.114l1.393,2.114  H48.619z M58.414,49.994c0,0.552-0.448,1-1,1h-0.592c-0.552,0-1-0.448-1-1s0.448-1,1-1h0.592  C57.966,48.994,58.414,49.441,58.414,49.994z M43.357,49.994c0,0.552-0.448,1-1,1h-0.592c-0.552,0-1-0.448-1-1s0.448-1,1-1h0.592  C42.909,48.994,43.357,49.441,43.357,49.994z M48.398,49.994c0,0.552-0.448,1-1,1h-0.592c-0.552,0-1-0.448-1-1s0.448-1,1-1h0.592  C47.95,48.994,48.398,49.441,48.398,49.994z M53.439,49.994c0,0.552-0.448,1-1,1h-0.592c-0.552,0-1-0.448-1-1s0.448-1,1-1h0.592  C52.992,48.994,53.439,49.441,53.439,49.994z M43.357,53.973c0,0.552-0.448,1-1,1h-0.592c-0.552,0-1-0.448-1-1s0.448-1,1-1h0.592  C42.909,52.973,43.357,53.421,43.357,53.973z M48.398,53.973c0,0.552-0.448,1-1,1h-0.592c-0.552,0-1-0.448-1-1s0.448-1,1-1h0.592  C47.95,52.973,48.398,53.421,48.398,53.973z M53.439,53.973c0,0.552-0.448,1-1,1h-0.592c-0.552,0-1-0.448-1-1s0.448-1,1-1h0.592  C52.992,52.973,53.439,53.421,53.439,53.973z M58.414,53.973c0,0.552-0.448,1-1,1h-0.592c-0.552,0-1-0.448-1-1s0.448-1,1-1h0.592  C57.966,52.973,58.414,53.421,58.414,53.973z M43.357,57.977c0,0.552-0.448,1-1,1h-0.592c-0.552,0-1-0.448-1-1s0.448-1,1-1h0.592  C42.909,56.977,43.357,57.424,43.357,57.977z M48.398,57.977c0,0.552-0.448,1-1,1h-0.592c-0.552,0-1-0.448-1-1s0.448-1,1-1h0.592  C47.95,56.977,48.398,57.424,48.398,57.977z M53.439,57.977c0,0.552-0.448,1-1,1h-0.592c-0.552,0-1-0.448-1-1s0.448-1,1-1h0.592  C52.992,56.977,53.439,57.424,53.439,57.977z M58.414,57.977c0,0.552-0.448,1-1,1h-0.592c-0.552,0-1-0.448-1-1s0.448-1,1-1h0.592  C57.966,56.977,58.414,57.424,58.414,57.977z M43.357,61.873c0,0.552-0.448,1-1,1h-0.592c-0.552,0-1-0.448-1-1s0.448-1,1-1h0.592  C42.909,60.873,43.357,61.321,43.357,61.873z M48.398,61.873c0,0.552-0.448,1-1,1h-0.592c-0.552,0-1-0.448-1-1s0.448-1,1-1h0.592  C47.95,60.873,48.398,61.321,48.398,61.873z M53.439,61.873c0,0.552-0.448,1-1,1h-0.592c-0.552,0-1-0.448-1-1s0.448-1,1-1h0.592  C52.992,60.873,53.439,61.321,53.439,61.873z M58.414,61.873c0,0.552-0.448,1-1,1h-0.592c-0.552,0-1-0.448-1-1s0.448-1,1-1h0.592  C57.966,60.873,58.414,61.321,58.414,61.873z"></path></svg>