<svg height='100px' width='100px'  fill="#000000" xmlns="http://www.w3.org/2000/svg" viewBox="0 0 64 64" x="0px" y="0px"><title>Sponge icon</title><desc>Sponge icon for website, application, printing, document, poster design, etc.</desc><metadata><?xpacket begin="&#65279;" id="W5M0MpCehiHzreSzNTczkc9d"?><x:xmpmeta xmlns:x="adobe:ns:meta/" x:xmptk="Adobe XMP Core 6.0-c002 79.164352, 2020/01/30-15:50:38        "></x:xmpmeta><?xpacket end="w"?></metadata><g data-name="Solid Line"><g data-name="Stroke Close copy 2"><g><circle cx="48" cy="15" r="2"></circle><circle cx="33" cy="24" r="2"></circle><circle cx="39" cy="16" r="2"></circle><circle cx="17" cy="17" r="2"></circle><circle cx="45" cy="25" r="3"></circle><circle cx="26" cy="16" r="3"></circle><circle cx="20" cy="25" r="3"></circle><path d="M58.688,31.044c-.072.351-.161.7-.262,1.035l0,0A14.928,14.928,0,0,1,56.6,36.084,1,1,0,1,1,56,37c0-.023.012-.043.013-.066a15.027,15.027,0,0,1-8.124,5.535c-.175.048-.35.1-.527.138-.445.1-.9.187-1.358.249-.108.015-.216.03-.325.042A14.782,14.782,0,0,1,44,43a20.036,20.036,0,0,1-8.92-2.106,6.886,6.886,0,0,0-6.161,0A20.041,20.041,0,0,1,20,43a14.782,14.782,0,0,1-1.679-.1c-.109-.012-.217-.027-.325-.042-.46-.062-.912-.146-1.358-.249-.177-.042-.353-.09-.528-.138a15.028,15.028,0,0,1-8.123-5.535c0,.023.013.043.013.066v2a1,1,0,0,1-2,0V37a1,1,0,0,1,1.4-.916,14.928,14.928,0,0,1-1.819-4.009l0,0c-.1-.34-.19-.684-.262-1.035A6.975,6.975,0,0,0,2,37V48.785a6.163,6.163,0,0,0,5.414,6.187A6,6,0,0,0,14,49V46a2,2,0,0,1,4,0v9.785a6.163,6.163,0,0,0,5.414,6.187c.191.018.382.028.573.028A6,6,0,0,0,30,56V46a2,2,0,0,1,4,0v5.785a6.163,6.163,0,0,0,5.414,6.187A6,6,0,0,0,46,52V46a2,2,0,0,1,4,0v.785a6.163,6.163,0,0,0,5.414,6.187A6,6,0,0,0,62,47V37A6.975,6.975,0,0,0,58.688,31.044ZM57,40a1,1,0,1,1-1,1A1,1,0,0,1,57,40Zm-1,5a1,1,0,0,1,2,0v2a1,1,0,0,1-2,0ZM41,47a1,1,0,0,1,1,1v3a1,1,0,0,1-2,0V48A1,1,0,0,1,41,47Zm-2-4a1,1,0,1,1-1,1A1,1,0,0,1,39,43ZM25,43a1,1,0,1,1-1,1A1,1,0,0,1,25,43Zm-1,5a1,1,0,0,1,2,0v4a1,1,0,0,1-2,0Zm1,7a1,1,0,1,1-1,1A1,1,0,0,1,25,55ZM8,45a1,1,0,0,1,2,0v4a1,1,0,0,1-2,0Z"></path><path d="M62,13a5.981,5.981,0,0,0-2.031-4.483A4.419,4.419,0,0,0,60,8a5,5,0,0,0-8.582-3.483,5.923,5.923,0,0,0-4.62-.084,5.967,5.967,0,0,0-10.023.635A4.513,4.513,0,0,0,36,5a5,5,0,0,0-4.977,4.772,8.861,8.861,0,0,1-3-.877,17.793,17.793,0,0,0-6.113-1.77A5,5,0,0,0,17,3a4.865,4.865,0,0,0-1.433.218,3.977,3.977,0,0,0-7.155.044A3.938,3.938,0,0,0,7,3a3.992,3.992,0,0,0-2.594,7.033A4.955,4.955,0,0,0,4,12v.021A4.986,4.986,0,0,0,7,21v7A13.015,13.015,0,0,0,20,41a18.029,18.029,0,0,0,8.027-1.9,8.926,8.926,0,0,1,7.946,0A18.029,18.029,0,0,0,44,41,13.015,13.015,0,0,0,57,28V20c0-.365-.025-.724-.055-1.082A6,6,0,0,0,62,13ZM4,16a3,3,0,0,1,1.543-2.6,1,1,0,0,0,.5-1L6.03,12.29A2.126,2.126,0,0,1,6,12a2.972,2.972,0,0,1,.547-1.717A1,1,0,0,0,6.155,8.8,1.979,1.979,0,0,1,5,7,1.99,1.99,0,0,1,8.345,5.533a1,1,0,0,0,1.673-.669,1.985,1.985,0,0,1,3.949-.145,1,1,0,0,0,1.5.717A2.951,2.951,0,0,1,17,5a3,3,0,0,1,3,3l0,.029A3,3,0,0,1,17,11a2.956,2.956,0,0,1-.866-.147,1,1,0,0,0-1,.254,2.956,2.956,0,0,1-2.063.9c-.037-.005-.138-.015-.174-.016a.991.991,0,0,0-1,.752A3.01,3.01,0,0,1,10.457,14.6a1.132,1.132,0,0,0-.488,1.1A2.034,2.034,0,0,1,10,16a3,3,0,0,1-6,0ZM19,36a2,2,0,1,1,2-2A2,2,0,0,1,19,36Zm13,1a2,2,0,1,1,2-2A2,2,0,0,1,32,37Zm14-1a2,2,0,1,1,2-2A2,2,0,0,1,46,36Zm-2-5a16.007,16.007,0,0,1-7.13-1.684,10.95,10.95,0,0,0-9.74,0A16.007,16.007,0,0,1,20,31,11,11,0,0,1,9.029,20.56,5,5,0,0,0,12,16v-.023a5.039,5.039,0,0,0,1.582-2.01,4.947,4.947,0,0,0,2.534-1.058A4.491,4.491,0,0,0,17,13a5,5,0,0,0,4.86-3.871,15.8,15.8,0,0,1,5.27,1.555,10.95,10.95,0,0,0,9.74,0A16.007,16.007,0,0,1,44,9a11,11,0,0,1,0,22ZM56.621,16.939A13.012,13.012,0,0,0,44,7,18.023,18.023,0,0,0,35.975,8.9a8.873,8.873,0,0,1-2.952.874A3,3,0,0,1,36,7a3.171,3.171,0,0,1,1.014.189A1,1,0,0,0,38.265,6.6a3.974,3.974,0,0,1,7.277-.408,1,1,0,0,0,1.4.4,3.954,3.954,0,0,1,4.18.042A1,1,0,0,0,52.5,6.345,3,3,0,0,1,58,8a3.057,3.057,0,0,1-.094.7,1,1,0,0,0,.4,1.046,3.978,3.978,0,0,1-1.684,7.191Z"></path></g></g></g></svg>