<svg height='100px' width='100px'  fill="#000000" xmlns="http://www.w3.org/2000/svg" xmlns:xlink="http://www.w3.org/1999/xlink" version="1.1" x="0px" y="0px" viewBox="-247 370.9 100 100" style="enable-background:new -247 370.9 100 100;" xml:space="preserve"><path d="M-173.3,414.6c2.2,0,4.5-0.4,6.6-1.2c4.8-1.8,8.6-5.3,10.8-9.9c2.2-4.6,2.4-9.8,0.6-14.7c-1.8-4.9-5.3-8.6-9.9-10.8  c-9.6-4.4-21-0.3-25.5,9.3c-3.2,7-1.9,14.8,2.6,20.4c0.3,0.3,0.3,0.8,0.2,1.2l-15.4,32.8c-0.3,0.7-1,1.2-1.8,1.2h-6.9  c-1.1,0-2,0.9-2,2v6c0,1.1-0.9,2-2,2h-16c-1.1,0-2,0.9-2,2v10c0,1.1,0.9,2,2,2h70c1.1,0,2-0.9,2-2v-10c0-1.1-0.9-2-2-2h-16  c-1.1,0-2-0.9-2-2v-6c0-1.1-0.9-2-2-2h-3.1c-1.5,0-2.4-1.5-1.8-2.8l11.6-24.9c0.2-0.4,0.6-0.7,1.1-0.6  C-173.9,414.6-173.6,414.6-173.3,414.6z M-167,384.8c5.1,3,7.3,9.1,5.4,14.7c-0.2,0.6-0.9,0.9-1.5,0.6l-1.6-0.8  c-0.5-0.2-0.8-0.8-0.6-1.3c1.2-3.7-0.3-7.7-3.5-9.8c-0.5-0.3-0.6-0.9-0.4-1.4l0.7-1.6C-168.3,384.7-167.6,384.4-167,384.8z   M-180,456.9h14c1.1,0,2,0.9,2,2v2c0,1.1-0.9,2-2,2h-62c-1.1,0-2-0.9-2-2v-2c0-1.1,0.9-2,2-2h14H-180z M-193.9,442.9h-2.3  c-1.5,0-2.4-1.5-1.8-2.8l13-27.9c0.3-0.6,1-0.8,1.6-0.5c0.6,0.4,1.3,0.8,2,1.1h0.1c0.4,0.2,0.8,0.3,1.2,0.5c0.6,0.2,0.9,0.9,0.6,1.5  l-12.6,27C-192.4,442.4-193.1,442.9-193.9,442.9z M-171.9,384.3l-0.2,1.8c-0.1,0.6-0.6,1-1.1,1c-0.2,0-0.4,0-0.6,0  c-0.6,0-1.1-0.3-1.2-0.9l-0.4-1.8c-0.1-0.6,0.3-1.2,0.9-1.3c0.5-0.1,1.1-0.1,1.6-0.1C-172.3,383.1-171.9,383.7-171.9,384.3z"></path><path d="M-237,386.4c3,0,5.5-2.5,5.5-5.5s-2.5-5.5-5.5-5.5s-5.5,2.5-5.5,5.5S-240,386.4-237,386.4z M-237,379.4  c0.8,0,1.5,0.7,1.5,1.5c0,0.8-0.7,1.5-1.5,1.5s-1.5-0.7-1.5-1.5C-238.5,380.1-237.8,379.4-237,379.4z"></path><path d="M-217,386.4c3,0,5.5-2.5,5.5-5.5s-2.5-5.5-5.5-5.5s-5.5,2.5-5.5,5.5S-220,386.4-217,386.4z M-217,379.4  c0.8,0,1.5,0.7,1.5,1.5c0,0.8-0.7,1.5-1.5,1.5s-1.5-0.7-1.5-1.5C-218.5,380.1-217.8,379.4-217,379.4z"></path><path d="M-217,406.4c3,0,5.5-2.5,5.5-5.5s-2.5-5.5-5.5-5.5s-5.5,2.5-5.5,5.5S-220,406.4-217,406.4z M-217,399.4  c0.8,0,1.5,0.7,1.5,1.5c0,0.8-0.7,1.5-1.5,1.5s-1.5-0.7-1.5-1.5C-218.5,400.1-217.8,399.4-217,399.4z"></path><path d="M-217,426.4c3,0,5.5-2.5,5.5-5.5s-2.5-5.5-5.5-5.5s-5.5,2.5-5.5,5.5S-220,426.4-217,426.4z M-217,419.4  c0.8,0,1.5,0.7,1.5,1.5c0,0.8-0.7,1.5-1.5,1.5s-1.5-0.7-1.5-1.5C-218.5,420.1-217.8,419.4-217,419.4z"></path><path d="M-242.5,420.9c0,3,2.5,5.5,5.5,5.5s5.5-2.5,5.5-5.5s-2.5-5.5-5.5-5.5S-242.5,417.9-242.5,420.9z M-235.5,420.9  c0,0.8-0.7,1.5-1.5,1.5s-1.5-0.7-1.5-1.5c0-0.8,0.7-1.5,1.5-1.5S-235.5,420.1-235.5,420.9z"></path><path d="M-242.7,398.9h13.7c1.1,0,2,0.9,2,2l0,0c0,1.1-0.9,2-2,2h-13.7c-1.1,0-2-0.9-2-2l0,0C-244.7,399.8-243.8,398.9-242.7,398.9z  "></path><path d="M-242.7,439.9h13.7c1.1,0,2,0.9,2,2l0,0c0,1.1-0.9,2-2,2h-13.7c-1.1,0-2-0.9-2-2l0,0C-244.7,440.8-243.8,439.9-242.7,439.9z  "></path><path d="M-165.7,439.9h11.7c1.1,0,2,0.9,2,2l0,0c0,1.1-0.9,2-2,2h-11.7c-1.1,0-2-0.9-2-2l0,0C-167.7,440.8-166.8,439.9-165.7,439.9z  "></path></svg>