<svg height='100px' width='100px'  fill="#000000" xmlns="http://www.w3.org/2000/svg" xmlns:xlink="http://www.w3.org/1999/xlink" version="1.1" x="0px" y="0px" viewBox="0 0 100 100" enable-background="new 0 0 100 100" xml:space="preserve"><path fill="#000000" d="M25.902,51.093c0.002,0.004,0.004,0.006,0.004,0.008v0.078l0.008,0.057l0.396,0.223l-0.016-0.107  c0-0.004,0.002-0.006,0.002-0.008c0-0.004-0.004-0.004-0.004-0.008v-0.1c0-0.004,0.004-0.004,0.004-0.008  c0-0.002-0.002-0.004-0.002-0.006l0.016-0.125v-0.113c0-0.004,0.004-0.008,0.006-0.014c0-0.004-0.004-0.01-0.002-0.014l0.031-0.111  l0.016-0.109c0-0.002,0.002-0.002,0.003-0.004s-0.001-0.004-0.001-0.006l0.033-0.135c0,0,0.001,0,0.002,0  c0-0.002-0.001-0.002-0.001-0.002l0.034-0.117l0.033-0.117c0-0.002,0.004-0.004,0.006-0.008s-0.001-0.006,0.001-0.01l0.021-0.041  l-0.43-0.232l-0.044,0.104l-0.03,0.141c-0.002,0.002-0.004,0.004-0.004,0.006c-0.001,0.002,0.002,0.002,0,0.004l-0.029,0.09  l-0.016,0.139c0,0.004-0.004,0.006-0.004,0.01c-0.002,0.002,0.001,0.006,0,0.008l-0.029,0.104v0.084  c0,0.004-0.002,0.006-0.004,0.008c0,0.002,0.004,0.006,0.003,0.008l-0.015,0.107v0.104l0.015,0.109  C25.906,51.089,25.902,51.091,25.902,51.093z"></path><polygon fill="#000000" points="33.929,16.243 33.527,16.005 33.527,22.56 33.929,22.786 "></polygon><polygon fill="#000000" points="27.253,48.673 28.252,46.292 29.185,43.909 29.185,43.909 30.033,41.546 30.816,39.165   31.517,36.78 32.131,34.437 32.666,32.067 33.115,29.757 33.48,27.44 33.748,25.177 33.924,23.03 33.513,22.796 33.343,24.862   33.341,24.866 33.342,24.868 33.058,27.136 33.058,27.138 33.058,27.14 32.708,29.423 32.707,29.425 32.708,29.429 32.257,31.763   32.256,31.765 31.722,34.116 31.722,34.118 31.722,34.12 31.105,36.47 31.104,36.472 31.105,36.474 30.404,38.858 30.404,38.86   30.404,38.862 29.619,41.245 29.619,41.247 29.619,41.249 28.768,43.634 28.767,43.634 28.767,43.636 27.833,46.021 27.832,46.022   27.832,46.024 26.814,48.392 26.814,48.394 26.154,49.87 26.583,50.103 "></polygon><polygon fill="#000000" points="46.128,63.714 45.908,62.989 45.908,62.987 45.908,62.981 45.904,62.976 45.888,62.876   45.871,62.774 45.873,62.767 45.87,62.757 45.87,62.642 45.87,62.524 45.873,62.517 45.871,62.509 45.888,62.392 45.904,62.274   45.921,62.157 45.925,62.153 45.923,62.144 45.943,62.079 26.966,51.104 28.23,53.358 "></polygon><polygon fill="#000000" points="26.847,50.788 45.988,61.858 46.025,61.772 46.057,61.661 46.089,61.53 46.095,61.522   46.096,61.513 46.814,59.978 47.829,57.597 48.761,55.216 48.779,55.167 31.527,45.202 "></polygon><polygon fill="#000000" points="34.994,15.472 53.889,26.392 53.957,26.282 53.959,26.278 53.961,26.276 54.045,26.161   54.049,26.157 54.049,26.153 54.15,26.036 54.154,26.034 54.154,26.03 54.174,26.011 34.994,14.917 "></polygon><polygon fill="#000000" points="46.763,65.798 46.22,64.013 28.257,53.62 28.257,55.126 "></polygon><polygon fill="#000000" points="47.463,60.312 48.462,57.964 49.394,55.585 50.244,53.2 51.027,50.821 51.727,48.452 52.342,46.108   52.877,43.741 53.324,41.429 53.691,39.112 53.957,36.849 54.137,34.702 53.707,34.454 53.688,34.733 53.686,34.735 53.688,34.735   53.553,36.267 53.553,36.269 53.537,36.501 53.537,36.503 53.504,36.854 53.502,36.856 53.504,36.856 53.27,38.774 53.27,38.776   53.27,38.778 52.902,41.097 52.9,41.099 52.902,41.101 52.451,43.417 52.451,43.419 52.451,43.421 51.918,45.788 51.916,45.79   51.916,45.792 51.398,47.776 51.398,47.778 51.299,48.146 51.299,48.146 51.299,48.147 50.597,50.53 50.597,50.532 50.597,50.534   49.83,52.917 49.828,52.921 49.828,52.923 49.011,55.157 49.011,55.157 48.961,55.29 48.96,55.292 48.027,57.677 48.025,57.679   47.008,60.063 47.007,60.065 47.007,60.069 46.332,61.513 46.779,61.774 "></polygon><polygon fill="#000000" points="54.141,27.888 53.721,27.667 53.721,34.042 53.721,34.214 54.141,34.458 "></polygon><path fill="#000000" d="M46.23,61.835c-0.002,0.004-0.004,0.006-0.006,0.008c0,0.002,0.002,0.004,0,0.006l-0.045,0.105l-0.013,0.078  v0.025c0,0.006-0.005,0.008-0.007,0.014c0,0.006,0.004,0.01,0.003,0.016l-0.032,0.109l-0.016,0.109l-0.016,0.117l-0.016,0.107v0.111  v0.107l0.016,0.09l0.008,0.053l0.396,0.229v-0.111v-0.117c0-0.004,0.002-0.006,0.003-0.008c0-0.004-0.003-0.006-0.001-0.008  l0.016-0.117l0.018-0.117l0.016-0.117l0.018-0.115c0-0.004,0.002-0.004,0.002-0.006s-0.001-0.004,0-0.006l0.033-0.133  c0-0.002,0-0.002,0-0.002c0-0.002,0-0.002,0-0.002l0.033-0.117c0.002,0,0.004,0,0.004-0.002s-0.002-0.004,0-0.006l0.049-0.131  l0.008-0.031l-0.438-0.254L46.23,61.835z"></path><polygon fill="#000000" points="46.191,63.187 46.412,63.909 47.044,65.991 47.132,66.255 47.478,66.46 46.554,63.396 "></polygon><path fill="#000000" d="M26.507,51.329l0.015,0.107c0.001,0.002-0.003,0.006-0.003,0.008c0.001,0.002,0.004,0.004,0.004,0.008v0.092  l0.014,0.084l1.016,3.361c0,0.002,0,0.002,0,0.004l0.002,0.002l0.066,0.283v0.002l0.066,0.264c0,0.002-0.002,0.004,0,0.006  c0,0,0.002,0.002,0.002,0.004l0.049,0.295l0.066,0.281v0.002c0,0.002,0.002,0.002,0.002,0.004l0.049,0.283v0.002  c0,0.002,0.002,0.002,0.002,0.004l0.033,0.301l0.01,0.1l0.145-3.355v-0.006l-1.455-2.594c-0.002-0.004,0-0.01,0-0.014  c-0.004-0.008-0.007-0.014-0.008-0.02c-0.002-0.01,0-0.02,0.002-0.027c0-0.012,0.002-0.021,0.006-0.031  c0.002-0.004-0.002-0.01,0.002-0.014c0.001-0.004,0.006-0.004,0.008-0.006c0.001-0.004,0-0.008,0.002-0.01l4.82-5.752l12.957-15.445  l-9.545-5.504c-0.004-0.004-0.004-0.01-0.008-0.012c-0.012-0.01-0.018-0.02-0.024-0.031c-0.007-0.014-0.014-0.023-0.015-0.037  c-0.002-0.004-0.006-0.008-0.006-0.014V23.22v-7.688v-0.701l-0.047,0.041l-0.076,0.105c-0.002,0.004-0.006,0.002-0.008,0.004  c-0.002,0.004-0.002,0.008-0.004,0.01l-0.105,0.105l-0.059,0.117c0,0.002-0.001,0.002-0.001,0.002c-0.001,0.002,0,0.002-0.001,0.002  l-0.081,0.146l-0.066,0.135l-0.062,0.139l-0.049,0.145l-0.03,0.123l-0.033,0.164l-0.015,0.119v6.781  c0,0.002-0.002,0.002-0.002,0.006c0,0.002,0.002,0.002,0.002,0.004l-0.184,2.217c0,0.002-0.002,0.002-0.002,0.002  c0,0.002,0.002,0.002,0.002,0.004l-0.268,2.266c0,0.002-0.002,0.002-0.002,0.004c0,0,0.001,0,0.001,0.002l-0.366,2.316  c-0.001,0.002-0.002,0.002-0.002,0.002c0,0.002,0.001,0.002,0.001,0.002l-0.45,2.318h-0.002c0,0.002,0.002,0.002,0.002,0.002  l-0.534,2.367c-0.001,0.002-0.001,0.002-0.001,0.004c0,0,0,0,0,0.002l-0.617,2.35c0,0.002-0.001,0.002-0.001,0.002  c0,0.002,0.001,0.002,0,0.002l-0.7,2.385c0,0,0,0,0,0.002c-0.002,0,0,0,0,0.002l-0.785,2.383v0.002c-0.001,0,0,0,0,0.002  l-0.852,2.367c0,0.002,0,0.002,0,0.002s0,0,0,0.002l-0.935,2.385c-0.001,0-0.001,0-0.001,0c0,0.002,0,0.002,0,0.002l-1,2.385  c0,0-0.002,0-0.002,0.002v0.002l-0.717,1.533c0,0,0,0-0.002,0.002c0,0,0,0,0,0.002l-0.062,0.123l-0.029,0.107l-0.034,0.117  l-0.03,0.125l-0.018,0.111c0,0.002-0.002,0.004-0.002,0.006c-0.002,0.002,0,0.004,0,0.008l-0.029,0.102v0.102  c0,0.004-0.002,0.006-0.003,0.008c0,0.002,0.003,0.004,0.003,0.006l-0.016,0.125V51.329z"></path><polygon fill="#000000" points="27.827,58.616 27.423,58.388 27.423,83.407 27.843,83.649 "></polygon><polygon fill="#000000" points="27.373,57.267 27.39,57.583 27.407,57.882 27.42,58.142 27.827,58.372 27.827,58.259 27.794,57.95   27.794,57.946 27.794,57.944 27.777,57.647 27.745,57.351 27.71,57.05 27.677,56.749 27.644,56.452 27.596,56.179 27.531,55.896   27.531,55.892 27.529,55.888 27.478,55.591 27.414,55.329 27.413,55.329 27.357,55.091 26.996,54.896 27.003,54.927 27.07,55.194   27.07,55.198 27.072,55.202 27.121,55.481 27.187,55.78 27.187,55.786 27.189,55.79 27.222,56.052 27.272,56.353 27.271,56.356   27.273,56.358 27.306,56.659 27.339,56.96 27.373,57.259 27.373,57.263 "></polygon><polygon fill="#000000" points="54.283,27.235 54.283,27.229 54.35,27.079 54.416,26.929 54.422,26.923 54.424,26.915   54.504,26.786 54.568,26.657 54.58,26.649 54.584,26.636 54.684,26.521 54.783,26.403 54.883,26.286 54.889,26.284 54.459,26.034   54.422,26.065 54.42,26.067 54.42,26.069 54.418,26.069 54.307,26.181 54.215,26.288 54.137,26.397 54.057,26.524 54.025,26.587   54.023,26.589 54.023,26.593 54.02,26.595 54.018,26.595 54.016,26.603 53.973,26.659 53.912,26.798 53.848,26.942 53.799,27.089   53.768,27.212 53.736,27.356 53.729,27.429 54.162,27.657 54.193,27.53 54.229,27.396 54.23,27.394 54.229,27.388 54.279,27.237 "></polygon><polygon fill="#000000" points="25.996,51.526 26.923,54.614 27.273,54.804 26.343,51.724 "></polygon><polygon fill="#000000" points="53.324,36.487 53.336,36.319 47.951,33.212 47.741,33.464 53.307,36.669 "></polygon><path fill="#000000" d="M53.469,34.784l-8.903-5.123l-12.9,15.375l17.189,9.928l0.771-2.111l0.767-2.383l0.667-2.273l-4.135,4.941  c-0.021,0.025-0.052,0.039-0.082,0.039c-0.018,0-0.037-0.006-0.053-0.016l-10.572-6.086c-0.002-0.002-0.002-0.006-0.006-0.008  c-0.002-0.002-0.007,0-0.01-0.002c-0.01-0.008-0.01-0.02-0.016-0.029c-0.007-0.012-0.016-0.021-0.018-0.035s0.002-0.025,0.006-0.041  c0.002-0.01-0.002-0.02,0.004-0.031c0.002-0.002,0.006-0.002,0.007-0.004c0.003-0.004,0.001-0.008,0.003-0.012l11.307-13.488  l0.35-0.418c0.008-0.01,0.02-0.01,0.029-0.016c0.012-0.006,0.021-0.016,0.035-0.018s0.025,0.002,0.04,0.006  c0.011,0.002,0.021-0.002,0.03,0.004l5.375,3.1L53.469,34.784z"></path><polygon fill="#000000" points="34.994,23.892 44.595,29.431 44.596,29.433 53.486,34.55 53.506,34.274 53.506,34.104   34.994,23.405 "></polygon><polygon fill="#000000" points="39.216,70.054 38.746,69.769 38.746,69.886 39.216,70.171 "></polygon><polygon fill="#000000" points="47.634,70.048 47.634,94.39 47.634,95.063 48.037,95.304 48.037,70.288 "></polygon><polygon fill="#000000" points="70.98,17.466 69.312,18.165 69.312,18.165 67.668,18.913 65.986,19.729 64.32,20.614 64.318,20.614   62.656,21.528 62.656,21.528 60.971,22.513 59.307,23.544 57.627,24.642 57.625,24.644 55.975,25.761 55.975,25.761 55.145,26.358   55.143,26.358 55.037,26.437 54.945,26.542 54.846,26.659 54.754,26.765 54.693,26.888 54.689,26.892 54.688,26.896 54.607,27.024   54.545,27.165 54.482,27.31 54.434,27.454 54.4,27.581 54.369,27.71 54.354,27.827 54.354,34.644 54.354,34.647 54.354,34.651   54.17,36.87 54.17,36.87 54.17,36.872 53.904,39.142 53.902,39.144 53.902,39.146 53.535,41.464 53.535,41.466 53.084,43.784   53.084,43.786 53.084,43.788 52.551,46.155 52.549,46.157 52.549,46.159 51.932,48.511 51.932,48.513 51.932,48.515 51.23,50.882   51.23,50.884 50.447,53.269 50.445,53.271 50.445,53.272 49.595,55.657 49.594,55.657 49.594,55.659 48.66,58.044 48.66,58.046   48.66,58.048 47.659,60.397 47.658,60.399 47.658,60.401 46.927,61.96 46.896,62.069 46.893,62.073 46.893,62.077 46.844,62.208   46.812,62.319 46.781,62.444 46.765,62.556 46.749,62.673 46.732,62.788 46.716,62.897 46.716,63.009 46.716,63.116 46.732,63.206   46.748,63.3 47.762,66.661 47.845,66.927 47.845,66.933 47.847,66.935 47.915,67.218 47.982,67.503 47.982,67.505 47.982,67.507   48.033,67.772 48.033,67.774 48.033,67.774 48.082,68.075 48.082,68.079 48.083,68.081 48.117,68.378 48.166,68.677 48.166,68.681   48.167,68.688 48.184,68.983 48.216,69.265 48.216,69.269 48.218,69.272 48.234,69.604 48.251,69.888 48.25,69.892 48.251,69.894   48.251,70.228 48.251,95.306 74.117,80.372 74.117,16.286 72.629,16.833 "></polygon><polygon fill="#000000" points="47.905,68.405 47.872,68.108 47.823,67.812 47.822,67.812 47.773,67.548 47.707,67.267   47.64,66.985 47.57,66.763 47.208,66.548 47.214,66.565 47.214,66.567 47.281,66.853 47.347,67.136 47.347,67.138 47.349,67.142   47.399,67.425 47.449,67.706 47.448,67.712 47.451,67.714 47.484,68.011 47.533,68.31 47.531,68.315 47.534,68.321 47.55,68.616   47.583,68.897 47.582,68.901 47.583,68.905 47.601,69.237 47.617,69.521 47.617,69.522 47.617,69.522 47.63,69.798 48.037,70.04   48.037,69.897 48.021,69.616 48.003,69.288 47.972,69.007 47.972,69.003 47.97,68.999 47.955,68.704 47.906,68.411 47.906,68.407   "></polygon><polygon fill="#000000" points="52.418,5.161 50.771,5.794 49.106,6.493 47.456,7.259 47.455,7.259 45.775,8.073 44.108,8.94   44.107,8.942 42.445,9.854 42.445,9.856 40.761,10.839 39.098,11.87 37.431,12.972 37.43,12.972 35.763,14.089 35.314,14.411   53.924,5.562 53.924,4.614 52.418,5.159 "></polygon><polygon fill="#000000" points="35.642,13.911 35.644,13.911 35.645,13.911 37.312,12.794 38.98,11.692 38.982,11.692 38.982,11.69   40.65,10.657 40.652,10.657 40.653,10.655 42.337,9.671 42.339,9.671 42.339,9.671 44.007,8.753 44.007,8.753 44.009,8.751   45.677,7.886 45.679,7.886 45.679,7.884 47.365,7.067 47.365,7.065 49.016,6.298 49.019,6.298 49.02,6.296 50.687,5.597   50.689,5.597 50.691,5.595 52.342,4.962 52.342,4.962 52.344,4.962 53.771,4.442 53.404,4.243 51.797,4.796 51.797,4.796   50.152,5.427 48.486,6.144 48.486,6.144 46.841,6.892 45.156,7.726 45.155,7.726 43.494,8.571 43.494,8.573 41.81,9.507   41.809,9.507 40.146,10.487 40.146,10.487 38.48,11.521 36.816,12.603 36.816,12.603 35.148,13.753 35.148,13.753 34.453,14.239   34.864,14.474 "></polygon><polygon fill="#000000" points="71.996,16.466 71.994,16.466 70.348,17.099 70.348,17.101 68.695,17.8 67.031,18.55 65.354,19.362   63.686,20.247 63.684,20.247 62.023,21.161 62.021,21.161 60.338,22.146 60.338,22.146 58.676,23.177 57.008,24.276 55.34,25.394   54.643,25.896 55.074,26.146 55.854,25.585 55.854,25.585 55.855,25.583 57.506,24.466 57.508,24.466 59.191,23.364 59.193,23.364   59.193,23.364 60.861,22.329 60.863,22.329 60.863,22.327 62.549,21.345 62.549,21.343 62.551,21.343 64.219,20.427 64.219,20.425   65.887,19.54 65.889,19.54 65.891,19.54 67.574,18.722 67.576,18.722 67.576,18.722 69.227,17.972 69.229,17.972 69.23,17.97   70.898,17.269 70.9,17.269 70.9,17.269 72.551,16.634 72.553,16.634 73.977,16.11 73.596,15.884 72.393,16.302 71.998,16.466 "></polygon><polygon fill="#000000" points="34.994,23.159 53.506,33.858 53.506,27.489 53.51,27.483 53.508,27.478 53.523,27.327   53.527,27.323 53.527,27.315 53.559,27.167 53.561,27.165 53.561,27.163 53.594,27.028 53.596,27.026 53.596,27.022 53.645,26.872   53.65,26.868 53.65,26.862 53.717,26.712 53.777,26.575 34.994,15.718 "></polygon><polygon fill="#000000" points="54.336,25.858 54.379,25.823 54.383,25.821 54.385,25.819 55.219,25.218 55.221,25.218   55.223,25.216 56.889,24.099 56.891,24.099 58.559,22.997 58.559,22.997 58.561,22.997 60.229,21.962 60.229,21.962 60.23,21.962   61.914,20.978 61.916,20.976 63.584,20.06 63.584,20.06 63.586,20.058 65.252,19.175 65.256,19.175 65.256,19.173 66.941,18.354   66.941,18.354 66.943,18.353 68.611,17.604 68.611,17.604 68.613,17.603 70.264,16.903 70.266,16.903 70.268,16.901 71.916,16.269   72.115,16.185 54.025,5.749 35.117,14.741 "></polygon><polygon fill="#000000" points="28.06,83.2 28.056,82.817 28.056,83.212 "></polygon><polygon fill="#000000" points="28.224,83.376 28.146,83.599 28.374,83.466 "></polygon><polygon fill="#000000" points="28.041,58.556 28.041,58.56 28.039,58.565 28.041,58.571 28.046,59.149 28.045,58.437   28.041,58.554 "></polygon><path fill="#000000" d="M33.982,15.862l0.002-0.002c0-0.002,0-0.002,0-0.004l0.033-0.133c0-0.002,0.002-0.002,0.002-0.002  c0-0.002,0-0.004,0-0.006l0.05-0.15c0.001,0,0.003-0.002,0.004-0.004s-0.001-0.004,0-0.004l0.066-0.15  c0.001-0.002,0.001-0.002,0.002-0.002c0.001-0.002-0.001-0.002,0.001-0.004l0.066-0.133c0-0.002,0.002-0.002,0.002-0.002v-0.002  l0.082-0.146l0.066-0.133c0.002-0.006,0.009-0.008,0.013-0.012c0.003-0.006,0.003-0.012,0.007-0.016l0.111-0.113l0.078-0.107  c0.002-0.004,0.008-0.004,0.011-0.006c0.003-0.006,0.002-0.01,0.006-0.014l0.111-0.096l-0.425-0.24l-0.041,0.043  c-0.002,0.002-0.004,0-0.006,0.002c-0.001,0.002-0.001,0.002-0.002,0.004l-0.094,0.078l-0.089,0.104l-0.098,0.146  c0,0.002-0.001,0-0.003,0.002c0,0,0,0.002,0,0.004l-0.095,0.125l-0.062,0.125l-0.067,0.133l-0.062,0.125l-0.046,0.154l-0.033,0.129  l-0.032,0.146l-0.007,0.059l0.418,0.25L33.982,15.862z"></path><polygon fill="#000000" points="38.533,69.64 38.212,69.46 38.212,70.073 38.533,69.884 "></polygon><polygon fill="#000000" points="39.216,70.776 39.216,70.421 38.638,70.069 38.318,70.259 "></polygon><polygon fill="#000000" points="35.115,67.671 34.81,67.495 34.81,68.091 35.115,67.915 "></polygon><polygon fill="#000000" points="35.748,68.038 35.328,67.794 35.328,67.915 35.748,68.159 "></polygon><polygon fill="#000000" points="35.748,68.759 35.748,68.405 35.221,68.101 34.917,68.276 "></polygon><path fill="#000000" d="M47.419,94.206V69.86l-0.016-0.328l-0.018-0.283l-0.016-0.328l-0.033-0.281c0,0,0.002-0.002,0.002-0.004  s-0.002-0.002-0.002-0.004l-0.017-0.293l-0.049-0.295c-0.001,0,0.001-0.002,0.001-0.002c0-0.002-0.002-0.002-0.002-0.004  l-0.033-0.297l-0.049-0.279l-0.049-0.279l-0.066-0.283l-0.067-0.281v-0.002l-0.065-0.258l-0.086-0.262L28.257,55.372l0.017,27.785  l0.365,0.219L47.419,94.206z M32.379,67.86v-0.133v-8.256v-0.115c0-0.004,0.003-0.006,0.003-0.008c0-0.004-0.002-0.006-0.002-0.008  l0.018-0.117c0-0.006,0.005-0.008,0.006-0.01c0.002-0.006-0.002-0.01,0-0.014l0.033-0.084c0.002-0.006,0.008-0.006,0.01-0.01  c0.002-0.006,0-0.01,0.004-0.016l0.048-0.064l0.046-0.076c0.006-0.01,0.016-0.01,0.023-0.016c0.008-0.008,0.01-0.02,0.021-0.023  l0.057-0.029l0.06-0.045c0.01-0.008,0.021-0.006,0.032-0.008c0.012-0.006,0.02-0.014,0.031-0.014h0.084h0.1h0.084  c0.009,0,0.014,0.008,0.023,0.01c0.008,0.002,0.017-0.002,0.023,0.002l0.091,0.045l0.108,0.029c0.004,0.002,0.006,0.008,0.01,0.01  c0.006,0.002,0.01,0,0.014,0.002l9.473,5.486c0,0,0,0,0.001,0l0.083,0.051c0.002,0.002,0.002,0.004,0.004,0.006  c0.004,0.002,0.006,0,0.008,0.002l0.084,0.066l0.083,0.066c0.003,0.004,0.003,0.008,0.005,0.012  c0.004,0.002,0.009,0.002,0.012,0.006l0.066,0.082c0.002,0.002,0,0.004,0.002,0.006c0,0,0.004,0,0.004,0.002l0.066,0.102  c0.002,0,0,0.002,0.002,0.002c0,0.002,0.002,0.002,0.002,0.004l0.066,0.117l0.049,0.08c0.002,0.002,0,0.006,0.001,0.008  c0.002,0.002,0.005,0.004,0.007,0.006l0.049,0.117c0.002,0.002,0,0.004,0,0.006c0.002,0.004,0.004,0.004,0.006,0.006l0.031,0.113  l0.033,0.1c0.002,0.002-0.002,0.006-0.001,0.008c0.001,0.004,0.005,0.006,0.005,0.008l0.018,0.102c0,0.002-0.004,0.004-0.003,0.008  c0,0.004,0.003,0.006,0.003,0.008v0.102v8.57v0.117c0,0.002-0.002,0.004-0.002,0.008c-0.001,0.002,0.002,0.004,0.002,0.006  l-0.018,0.117c0,0.008-0.006,0.012-0.008,0.018c-0.002,0.004,0,0.01-0.002,0.016l-0.051,0.1l-0.033,0.066  c-0.004,0.008-0.01,0.012-0.014,0.018c-0.004,0.002-0.002,0.008-0.006,0.01l-0.066,0.068l-0.066,0.066  c-0.008,0.008-0.02,0.008-0.029,0.012c-0.01,0.006-0.016,0.016-0.025,0.018l-0.074,0.016l-0.074,0.027  c-0.014,0.006-0.025,0.008-0.039,0.008h-0.101c-0.011,0-0.022,0-0.034-0.004l-0.1-0.035c-0.002,0-0.002-0.002-0.004-0.002  c-0.004-0.002-0.007-0.002-0.01-0.002l-0.094-0.047l-0.093-0.031c-0.003-0.002-0.003-0.004-0.005-0.004  c-0.006-0.002-0.01-0.002-0.014-0.006l-9.154-5.27c-0.004,0-0.004-0.006-0.008-0.006c-0.003-0.004-0.006-0.002-0.01-0.006  l-0.117-0.1l-0.115-0.1l-0.118-0.1c-0.001-0.002-0.001-0.004-0.001-0.004c-0.002,0-0.004,0-0.004-0.002l-0.117-0.117  c-0.006-0.004-0.004-0.012-0.008-0.018c-0.002-0.002-0.008-0.002-0.01-0.006l-0.08-0.143l-0.098-0.148l-0.098-0.131  c-0.004-0.004-0.002-0.01-0.005-0.014c-0.003-0.008-0.011-0.012-0.013-0.02l-0.05-0.166l-0.049-0.162c0-0.002,0-0.002,0-0.002  l-0.05-0.148c-0.002-0.006,0.002-0.008,0-0.014c0-0.004-0.005-0.006-0.006-0.012l-0.017-0.166c0-0.002,0.002-0.004,0.002-0.006  C32.381,67.864,32.379,67.862,32.379,67.86z"></path></svg>