<svg height='100px' width='100px'  fill="#000000" xmlns="http://www.w3.org/2000/svg" xmlns:xlink="http://www.w3.org/1999/xlink" version="1.1" x="0px" y="0px" viewBox="0 0 64 64" style="enable-background:new 0 0 64 64;" xml:space="preserve"><g><rect x="28" y="13.007" width="8" height="2"></rect><path d="M28,18.765c0,0.082-0.016,0.161-0.018,0.242h8.036C36.016,18.926,36,18.847,36,18.765v-1.758h-8V18.765z"></path><rect x="25" y="7.007" width="14.001" height="4"></rect><circle cx="32" cy="26.007" r="1"></circle><rect x="28" y="3.007" width="8" height="2"></rect><path d="M40,39.007H24c-0.552,0-1,0.448-1,1v12c0,0.552,0.448,1,1,1h16c0.552,0,1-0.448,1-1v-12C41,39.456,40.552,39.007,40,39.007   z"></path><path d="M32,31.007c6.074,0,7.609-3.721,7.936-4.851c-1.804-1.223-3.089-3.051-3.632-5.149h-8.608   c-0.543,2.098-1.828,3.926-3.632,5.149C24.391,27.286,25.926,31.007,32,31.007z M32,23.007c1.654,0,3,1.346,3,3s-1.346,3-3,3   s-3-1.346-3-3S30.346,23.007,32,23.007z"></path><path d="M45.788,28.861l-4.081-1.748c-0.69,1.87-2.954,5.895-9.707,5.895s-9.017-4.024-9.707-5.895l-4.081,1.748   C15.653,29.957,14,32.465,14,35.249c0,0.439,0.042,0.881,0.125,1.314l4.546,23.633c0.09,0.47,0.503,0.811,0.981,0.811h24.695   c0.479,0,0.892-0.341,0.981-0.811l4.546-23.634C49.958,36.13,50,35.689,50,35.249C50,32.465,48.347,29.957,45.788,28.861z    M43,52.007c0,1.654-1.346,3-3,3H24c-1.654,0-3-1.346-3-3v-12c0-1.654,1.346-3,3-3h16c1.654,0,3,1.346,3,3V52.007z M47.912,36.181   l-0.964,5.015l-1.965-0.377l0.964-5.012C45.982,35.624,46,35.435,46,35.249c0-1.182-0.702-2.246-1.788-2.712l0.787-1.838   C46.822,31.48,48,33.266,48,35.249C48,35.559,47.971,35.873,47.912,36.181z"></path></g></svg>