<svg height='100px' width='100px'  fill="#000000" xmlns="http://www.w3.org/2000/svg" xmlns:xlink="http://www.w3.org/1999/xlink" version="1.1" x="0px" y="0px" viewBox="0 0 100 100" enable-background="new 0 0 100 100" xml:space="preserve"><path d="M25.214,24.079c7.588-13.395,24.6-18.105,38.008-10.504c13.395,7.57,18.094,24.597,10.506,37.991L49.486,94.391  L25.214,51.566C20.4,43.046,20.4,32.616,25.214,24.079z M73.996,37.815c0-13.528-10.98-24.521-24.51-24.521  c-13.572,0-24.551,10.993-24.551,24.521c0,13.56,10.979,24.554,24.551,24.554C63.016,62.369,73.996,51.375,73.996,37.815  L73.996,37.815z"></path><path d="M45.292,27.371l7.307,3.111l-1.689,3.941l-7.305-3.112L45.292,27.371z M55.117,23.221c-0.889-2.444-3.6-3.704-6.032-2.815  c-2.443,0.889-3.703,3.587-2.812,6.016c0.041,0.104,0.072,0.193,0.117,0.297l-1.023-0.445c-0.326-0.146-0.74,0.029-0.889,0.386  l-1.955,4.564c-0.148,0.356,0.014,0.74,0.355,0.889l7.944,3.394c0.34,0.148,0.74-0.017,0.887-0.355l1.955-4.58  c0.15-0.341-0.014-0.755-0.369-0.903l-0.99-0.429C54.719,28.349,55.979,25.651,55.117,23.221z"></path><g><path d="M49.072,35.579l-1.422,3.393c-0.148,0.341-0.342,0.683-0.533,0.994l-2.861,4.266c-0.311,0.46-0.932,0.653-1.467,0.416   l-1.852,4.416c-0.992,2.4,0.133,5.171,2.52,6.164c2.414,1.021,5.17-0.104,6.193-2.519l1.852-4.386   c1.957-4.032,5.512-7.04,9.811-8.298c0.223-0.076,0.475,0.058,0.533,0.295c0.059,0.223-0.059,0.445-0.297,0.52   c-4.045,1.186-7.408,4.016-9.275,7.808l-1.852,4.401c-1.186,2.829-4.445,4.164-7.277,2.979c-2.83-1.202-4.162-4.462-2.979-7.292   l1.854-4.4c-0.52-0.223-0.814-0.771-0.711-1.333l0.963-5.024c0.074-0.398,0.191-0.8,0.355-1.186l1.406-3.348L49.072,35.579z"></path></g></svg>