<svg height='100px' width='100px'  fill="#000000" xmlns="http://www.w3.org/2000/svg" xmlns:xlink="http://www.w3.org/1999/xlink" version="1.1" x="0px" y="0px" viewBox="0 0 100 100" enable-background="new 0 0 100 100" xml:space="preserve"><g><path d="M68.923,27.328c0.013,0,0.027,0.002,0.04,0.002c-0.007,0-0.015-0.006-0.022-0.006   C68.935,27.325,68.929,27.328,68.923,27.328z"></path><path d="M94.929,48.199c0-2.899-1.988-5.315-4.671-6.014c0.766-0.83,1.115-2.014,0.825-3.193c-0.41-1.663-1.953-2.741-3.604-2.636   c-4.185-11.41-13.439-20.386-25.016-24.21c-0.037-1.533-1.075-2.914-2.635-3.299c-1.177-0.29-2.359,0.057-3.189,0.819   C55.938,6.987,53.523,5,50.624,5c-2.899,0-5.315,1.988-6.014,4.67c-0.83-0.766-2.014-1.115-3.192-0.824   c-1.419,0.35-2.414,1.523-2.611,2.886c-12.195,3.557-22,12.775-26.346,24.615c-1.63-0.077-3.139,1.001-3.544,2.644   c-0.29,1.177,0.058,2.359,0.82,3.189c-2.68,0.701-4.666,3.116-4.666,6.016c0,2.9,1.988,5.315,4.668,6.016   c-0.764,0.83-1.113,2.014-0.822,3.191c0.302,1.223,1.218,2.123,2.336,2.477c3.476,13.709,14.062,24.605,27.584,28.538   c0.247,1.297,1.216,2.399,2.582,2.736c1.177,0.29,2.359-0.057,3.189-0.82c0.7,2.68,3.116,4.667,6.015,4.667   c2.898,0,5.314-1.988,6.014-4.668c0.83,0.764,2.013,1.113,3.19,0.822c1.51-0.373,2.529-1.681,2.626-3.155   c12.866-4.247,22.861-14.86,26.224-28.101c1.149-0.34,2.096-1.248,2.404-2.495c0.29-1.177-0.058-2.359-0.82-3.189   C92.943,53.514,94.929,51.098,94.929,48.199z M49.971,85.016c-19.27,0-34.947-15.676-34.947-34.945s15.677-34.945,34.947-34.945   c19.267,0,34.942,15.676,34.942,34.945S69.238,85.016,49.971,85.016z"></path></g><g><path d="M45.192,68.979c-0.721,0-1.307,0.585-1.307,1.307c0,0.721,0.585,1.306,1.307,1.306c2.611,0,1.689,2.174,2.611,2.174   C48.676,73.766,48.676,68.979,45.192,68.979z"></path><path d="M54.816,68.979c0.722,0,1.307,0.585,1.307,1.307c0,0.721-0.585,1.306-1.307,1.306c-2.61,0-1.687,2.174-2.61,2.174   C51.335,73.766,51.335,68.979,54.816,68.979z"></path><path d="M72.481,37.784c-2.594,0-9.511,3.663-9.511,1.729c0-0.864,3.459-0.864,5.188-2.593c1.729-1.729,2.593-5.188,1.729-7.782   c-1.595-4.784-3.458,2.594-6.052,3.458c-1.16,0.387-4.323,1.729-6.917,0.865c-2.958-0.986-5.188-1.729-6.917-1.729   s-3.96,0.743-6.917,1.729c-2.594,0.865-5.757-0.478-6.917-0.865c-2.594-0.864-4.458-8.243-6.052-3.458   c-0.865,2.594,0,6.053,1.729,7.782c1.729,1.729,5.188,1.729,5.188,2.593c0,1.935-6.917-1.729-9.511-1.729   c-4.323,0-8.647,2.593-8.647,5.188c0,1.729,2.594,4.323,7.782,4.323c5.259,0,6.917-4.323,7.782-1.729c0,0-0.951,7.695,3.459,12.105   c2.594,2.594,1.729,6.053,0.864,7.782c-0.864,1.729-2.046,8.625,2.594,12.105c3.458,2.594,6.517,3.459,8.646,3.459   c2.128,0,5.188-0.865,8.646-3.459c4.64-3.48,3.458-10.375,2.594-12.105c-0.865-1.729-1.729-5.188,0.864-7.782   c4.408-4.41,3.459-12.105,3.459-12.105c0.865-2.594,2.521,1.729,7.782,1.729c5.188,0,7.782-2.594,7.782-4.323   C81.128,40.377,76.804,37.784,72.481,37.784z M41.354,54.34c-0.955,0-1.729-0.775-1.729-1.729c0-0.956,0.774-1.729,1.729-1.729   c0.955,0,1.729,0.773,1.729,1.729C43.083,53.565,42.308,54.34,41.354,54.34z M56.917,71.505c-0.864,3.459-4.323,5.188-6.917,5.188   s-6.052-1.729-6.917-5.188c-0.63-2.516,0.865-4.323,2.594-6.053c1.729-1.729,1.729-6.917,1.729-7.782s0-5.188-1.729-7.782   c-1.729-2.594-4.323-2.594-4.323-7.782c0-5.188,8.646-6.052,8.646-6.052s8.646,0.865,8.646,6.052c0,5.188-2.594,5.188-4.323,7.782   c-1.729,2.594-1.729,6.917-1.729,7.782s0,6.053,1.729,7.782C56.053,67.182,57.545,68.989,56.917,71.505z M58.646,54.34   c-0.955,0-1.729-0.775-1.729-1.729c0-0.956,0.775-1.729,1.729-1.729c0.955,0,1.729,0.773,1.729,1.729   C60.376,53.565,59.602,54.34,58.646,54.34z"></path></g></svg>