<?xml version="1.0" encoding="utf-8"?>
<!-- Generator: Adobe Illustrator 24.2.1, SVG Export Plug-In . SVG Version: 6.00 Build 0)  -->
<svg version="1.1" id="Layer_1" xmlns="http://www.w3.org/2000/svg" xmlns:xlink="http://www.w3.org/1999/xlink" x="0px" y="0px"
	 viewBox="0 0 100 100" enable-background="new 0 0 100 100" xml:space="preserve">
<path stroke="#000000" stroke-width="3.9063" stroke-linecap="round" stroke-linejoin="round" stroke-miterlimit="10" d="
	M55.879,57.914c0,2.148-2.24,5.16-5.729,5.16s-5.729-3.004-5.729-5.16c0-2.156,2.24-2.148,5.729-2.148
	C53.639,55.766,55.879,55.758,55.879,57.914z"/>
<path fill="none" stroke="#000000" stroke-width="3.9063" stroke-linecap="round" stroke-linejoin="round" stroke-miterlimit="10" d="
	M34.338,69.783c10.109,4.068,15.82-3.969,15.82-3.969V63.08"/>
<path fill="none" stroke="#000000" stroke-width="3.9063" stroke-linecap="round" stroke-linejoin="round" stroke-miterlimit="10" d="
	M65.963,69.783c-10.109,4.068-15.82-3.969-15.82-3.969V63.08"/>
<path stroke="#000000" stroke-width="3.9063" stroke-linecap="round" stroke-linejoin="round" stroke-miterlimit="10" d="
	M18.047,35.832l29.688,5.057c0,0-0.73,16.838-18.016,15.094C16.016,54.598,18.047,35.832,18.047,35.832z"/>
<path stroke="#000000" stroke-width="3.9063" stroke-linecap="round" stroke-linejoin="round" stroke-miterlimit="10" d="
	M82.201,35.832l-29.688,5.057c0,0,0.73,16.838,18.014,15.094C84.24,54.598,82.201,35.832,82.201,35.832z"/>
<polygon stroke="#000000" stroke-width="3.9063" stroke-linecap="round" stroke-linejoin="round" stroke-miterlimit="10" points="
	53.6,45.971 46.65,45.971 47.738,40.889 52.512,40.889 "/>
<path d="M29.551,88.486L29.551,88.486z"/>
<path d="M70.508,88.477L70.508,88.477z"/>
<path d="M90.703,57.549v-0.127c-0.01-0.195-0.023-0.391-0.041-0.586c-0.027-0.309-0.061-0.619-0.098-0.93l0,0
	c-1.355-13.328-3.41-53.758-11.533-53.758c-5.859,0-12.109,10.938-15.885,17.902l0,0c0,0-0.75-0.152-1.953-0.359l-0.77-0.131
	l-0.422-0.068c-0.432-0.07-0.896-0.143-1.385-0.215l-0.246-0.037c-0.33-0.049-0.67-0.096-1.02-0.145l-0.262-0.035
	c-2.349-0.333-4.717-0.519-7.09-0.557c-2.373,0.038-4.742,0.225-7.092,0.559l-0.264,0.035c-0.348,0.049-0.689,0.096-1.02,0.145
	l-0.246,0.037c-0.488,0.072-0.953,0.145-1.385,0.215l-0.42,0.068l-0.781,0.131c-1.199,0.207-1.953,0.359-1.953,0.359l0,0
	C33.08,13.086,26.824,2.148,20.969,2.148c-8.123,0-10.18,40.43-11.523,53.75l0,0c-0.037,0.311-0.07,0.621-0.098,0.93
	c-0.018,0.195-0.029,0.391-0.041,0.586v0.127c0,0.195-0.014,0.391-0.016,0.586v0.045c0,0.195,0,0.406,0.01,0.611v0.061
	c0,0.207,0.02,0.416,0.033,0.625v0.059c0.031,0.436,0.078,0.871,0.143,1.311c0,0.01,0,0.02,0,0.029
	c0.066,0.451,0.148,0.906,0.244,1.367c1.998,9.312,10.5,19.24,19.705,26.242c-8.115-8.553-10.717-17.83-13.254-23.535
	c-2.418-5.439-2.17-11.857,2.213-15.885c0.756-0.695,1.492-1.217,2.148-1.428c5.598-1.805,6.17-3.32,6.584-5.781
	c0.547-3.277,3.496-5.078,7.365-4.781c2.375,0.184,3.02-2.068,3.35-2.865c1.41-3.408,3.764-2.646,8.984,1.541
	c2.895,2.318-2.395-7.617,3.182-7.617l0,0c5.576,0,0.289,9.932,3.182,7.617c5.227-4.188,7.578-4.949,8.984-1.541
	c0.328,0.797,0.977,3.049,3.35,2.865c3.867-0.299,6.816,1.504,7.365,4.781c0.412,2.467,0.986,3.977,6.582,5.781
	c0.654,0.211,1.389,0.732,2.148,1.428c4.385,4.027,4.631,10.445,2.213,15.885c-2.539,5.705-5.137,14.982-13.252,23.535
	c9.205-7.008,17.709-16.936,19.705-26.244l0,0c0.098-0.453,0.178-0.906,0.244-1.367v-0.029c0.064-0.439,0.111-0.875,0.145-1.311
	c0-0.02,0-0.039,0-0.059c0.016-0.209,0.025-0.418,0.033-0.625c0-0.021,0-0.041,0-0.061c0-0.205,0-0.408,0-0.611v-0.045
	C90.717,57.941,90.713,57.746,90.703,57.549z M15.471,39.385C16.428,26.746,18.139,7.93,21.953,7.93c3.26,0,8.111,9.18,10.65,14.307
	c-6.932,4.088-12.941,10.266-17.133,17.15L15.471,39.385z M67.395,22.234c2.539-5.127,7.393-14.307,10.65-14.307
	c3.814,0,5.525,18.816,6.482,31.457c-4.189-6.883-10.201-13.061-17.133-17.148V22.234z"/>
<path fill="none" stroke="#000000" stroke-width="3.9063" stroke-linecap="round" stroke-linejoin="round" stroke-miterlimit="10" d="
	M50,97.875c-13.146,0-42.258-23.168-40.658-41.039l0.098-0.92c1.35-13.328,3.404-53.768,11.529-53.768
	c5.859,0,12.109,10.938,15.885,17.904"/>
<path fill="none" stroke="#000000" stroke-width="3.9063" stroke-linecap="round" stroke-linejoin="round" stroke-miterlimit="10" d="
	M50,97.875c13.146,0,42.26-23.168,40.658-41.047l-0.096-0.92c-1.352-13.32-3.406-53.76-11.531-53.76
	c-5.859,0-12.109,10.938-15.887,17.904"/>
<path fill="none" stroke="#000000" stroke-width="3.9063" stroke-linecap="round" stroke-linejoin="round" stroke-miterlimit="10" d="
	M63.145,20.053c0,0-7.676-1.549-13.145-1.549s-13.146,1.549-13.146,1.549"/>
</svg>
