<svg height='100px' width='100px'  fill="#000000" xmlns="http://www.w3.org/2000/svg" xmlns:xlink="http://www.w3.org/1999/xlink" xml:space="preserve" version="1.1" style="shape-rendering:geometricPrecision;text-rendering:geometricPrecision;image-rendering:optimizeQuality;" viewBox="0 0 833 776" x="0px" y="0px" fill-rule="evenodd" clip-rule="evenodd"><defs><style type="text/css">
   
    .fil0 {fill:#000000}
   
  </style></defs><g><path class="fil0" d="M122 256c2,-1 43,-167 47,-185 16,-56 46,-76 87,-70l321 0c41,-6 71,14 87,70 4,18 45,184 46,185l107 0c9,0 16,7 16,16l0 39c0,9 -7,16 -16,16l-42 0c30,98 26,301 21,412 0,21 -16,37 -37,37l-83 0c-21,0 -37,-16 -37,-37l0 -82c-148,0 -297,0 -445,0l0 82c0,21 -16,37 -37,37l-84 0c-20,0 -36,-16 -36,-37 -5,-111 -9,-314 21,-412l-42 0c-9,0 -16,-7 -16,-16l0 -39c0,-9 7,-16 16,-16l106 0zm425 -15c35,0 63,28 64,62 20,-6 37,-24 50,-50 -19,-68 -35,-128 -53,-196l-383 0c-18,68 -35,128 -53,196 15,30 35,49 60,53 84,-1 168,-1 251,-1 0,-35 29,-64 64,-64zm0 14c28,0 51,23 51,51 -34,0 -68,-1 -101,-1 0,-28 22,-50 50,-50zm-171 -176l81 0c4,0 7,4 7,7l0 15c0,4 -3,7 -7,7l-81 0c-4,0 -7,-3 -7,-7l0 -15c0,-3 3,-7 7,-7zm40 261c-69,0 -125,56 -125,125 0,70 56,126 125,126 70,0 126,-56 126,-126 0,-69 -56,-125 -126,-125zm62 205l-50 -50 0 70c19,-2 36,-9 50,-20zm-35 -68l52 51c11,-14 19,-32 21,-51l-73 0zm0 -23l52 -51c11,14 19,32 21,51l-73 0zm35 -68l-50 50 0 -70c19,2 36,9 50,20zm193 18c-30,0 -54,24 -55,55 -1,31 24,56 55,56 32,-1 56,-25 56,-56 0,-30 -25,-55 -56,-55zm-316 141l50 -50 0 70c-19,-2 -36,-9 -50,-20zm35 -68l-52 51c-11,-14 -19,-32 -21,-51l73 0zm0 -23l-52 -51c-11,14 -19,32 -21,51l73 0zm-35 -68l50 50 0 -70c-19,2 -36,9 -50,20zm-194 18c31,0 55,24 56,55 1,31 -24,56 -56,56 -31,-1 -55,-25 -55,-56 0,-30 25,-55 55,-55z"></path></g></svg>