<svg height='100px' width='100px'  fill="#000000" xmlns="http://www.w3.org/2000/svg" xmlns:xlink="http://www.w3.org/1999/xlink" version="1.1" x="0px" y="0px" viewBox="0 0 32 32" enable-background="new 0 0 32 32" xml:space="preserve"><g><path d="M30,29.75h-4v-5.293l1.5-1.5l0.646,0.646c0.195,0.195,0.512,0.195,0.707,0s0.195-0.512,0-0.707l-1-1   c-0.195-0.195-0.512-0.195-0.707,0L26,23.043v-4.586l1.5-1.5l0.646,0.646c0.195,0.195,0.512,0.195,0.707,0s0.195-0.512,0-0.707   l-1-1c-0.195-0.195-0.512-0.195-0.707,0L26,17.043v-1.586l1.5-1.5l0.646,0.646c0.195,0.195,0.512,0.195,0.707,0   s0.195-0.512,0-0.707l-1-1c-0.195-0.195-0.512-0.195-0.707,0l-0.112,0.112c0.058-0.275,0.09-0.539,0.09-0.758   c0-0.954-1.027-2.3-1.232-2.561c-0.191-0.238-0.594-0.238-0.785,0c-0.205,0.261-1.232,1.606-1.232,2.561   c0,0.219,0.033,0.484,0.09,0.758l-0.112-0.112c-0.195-0.195-0.512-0.195-0.707,0l-1,1c-0.195,0.195-0.195,0.512,0,0.707   s0.512,0.195,0.707,0l0.646-0.646l1.5,1.5v4.586l-1.146-1.146c-0.195-0.195-0.512-0.195-0.707,0l-1,1   c-0.195,0.195-0.195,0.512,0,0.707s0.512,0.195,0.707,0l0.646-0.646l1.5,1.5v4.586l-1.146-1.146c-0.195-0.195-0.512-0.195-0.707,0   l-1,1c-0.195,0.195-0.195,0.512,0,0.707s0.512,0.195,0.707,0l0.646-0.646l1.5,1.5v2.293h-8.5v-5.293l1.5-1.5l0.646,0.646   c0.195,0.195,0.512,0.195,0.707,0s0.195-0.512,0-0.707l-1-1c-0.195-0.195-0.512-0.195-0.707,0L16.5,23.043v-4.586l1.5-1.5   l0.646,0.646c0.195,0.195,0.512,0.195,0.707,0s0.195-0.512,0-0.707l-1-1c-0.195-0.195-0.512-0.195-0.707,0L16.5,17.043v-1.586   l1.5-1.5l0.646,0.646c0.195,0.195,0.512,0.195,0.707,0s0.195-0.512,0-0.707l-1-1c-0.195-0.195-0.512-0.195-0.707,0l-0.112,0.112   c0.058-0.275,0.09-0.539,0.09-0.758c0-0.954-1.027-2.3-1.232-2.561c-0.191-0.238-0.594-0.238-0.785,0   c-0.205,0.261-1.232,1.606-1.232,2.561c0,0.219,0.033,0.484,0.09,0.758l-0.112-0.112c-0.195-0.195-0.512-0.195-0.707,0l-1,1   c-0.195,0.195-0.195,0.512,0,0.707s0.512,0.195,0.707,0L14,13.957l1.5,1.5v4.586l-1.146-1.146c-0.195-0.195-0.512-0.195-0.707,0   l-1,1c-0.195,0.195-0.195,0.512,0,0.707s0.512,0.195,0.707,0L14,19.957l1.5,1.5v4.586l-1.146-1.146   c-0.195-0.195-0.512-0.195-0.707,0l-1,1c-0.195,0.195-0.195,0.512,0,0.707s0.512,0.195,0.707,0L14,25.957l1.5,1.5v2.293H7v-2.293   l1.5-1.5l0.646,0.646c0.195,0.195,0.512,0.195,0.707,0s0.195-0.512,0-0.707l-1-1c-0.195-0.195-0.512-0.195-0.707,0L7,26.043v-4.586   l1.5-1.5l0.646,0.646c0.195,0.195,0.512,0.195,0.707,0s0.195-0.512,0-0.707l-1-1c-0.195-0.195-0.512-0.195-0.707,0L7,20.043v-4.586   l1.5-1.5l0.646,0.646c0.195,0.195,0.512,0.195,0.707,0s0.195-0.512,0-0.707l-1-1c-0.195-0.195-0.512-0.195-0.707,0l-0.112,0.112   c0.058-0.275,0.09-0.539,0.09-0.758c0-0.954-1.027-2.3-1.232-2.561c-0.191-0.238-0.594-0.238-0.785,0   C5.902,9.95,4.875,11.296,4.875,12.25c0,0.219,0.033,0.484,0.09,0.758l-0.112-0.112c-0.195-0.195-0.512-0.195-0.707,0l-1,1   c-0.195,0.195-0.195,0.512,0,0.707s0.512,0.195,0.707,0L4.5,13.957l1.5,1.5v1.586l-1.146-1.146c-0.195-0.195-0.512-0.195-0.707,0   l-1,1c-0.195,0.195-0.195,0.512,0,0.707s0.512,0.195,0.707,0L4.5,16.957l1.5,1.5v4.586l-1.146-1.146   c-0.195-0.195-0.512-0.195-0.707,0l-1,1c-0.195,0.195-0.195,0.512,0,0.707s0.512,0.195,0.707,0L4.5,22.957l1.5,1.5v5.293H2   c-0.276,0-0.5,0.224-0.5,0.5s0.224,0.5,0.5,0.5h28c0.276,0,0.5-0.224,0.5-0.5S30.276,29.75,30,29.75z M25.5,10.858   c0.325,0.497,0.625,1.071,0.625,1.392c0,0.734-0.421,1.668-0.604,1.753c-0.226-0.085-0.646-1.019-0.646-1.753   C24.875,11.931,25.175,11.356,25.5,10.858z M16,10.858c0.325,0.497,0.625,1.071,0.625,1.392c0,0.734-0.421,1.668-0.604,1.753   c-0.226-0.085-0.646-1.019-0.646-1.753C15.375,11.931,15.675,11.356,16,10.858z M6.5,10.858c0.325,0.497,0.625,1.071,0.625,1.392   c0,0.734-0.421,1.668-0.604,1.753c-0.226-0.085-0.646-1.019-0.646-1.753C5.875,11.931,6.175,11.356,6.5,10.858z"></path></g></svg>