<svg height='100px' width='100px'  fill="#000000" xmlns="http://www.w3.org/2000/svg" viewBox="0 0 36 36" x="0px" y="0px"><title>Монтажная область 4</title><g data-name="Слой 3"><path d="M34.06,0H1.94A1.94184,1.94184,0,0,0,0,1.94V34.06A1.94184,1.94184,0,0,0,1.94,36H34.06A1.94184,1.94184,0,0,0,36,34.06V1.94A1.94184,1.94184,0,0,0,34.06,0ZM10.12,19.53A.984.984,0,0,1,11,19H24.33a.998.998,0,0,1,.84,1.55l-6.67,10a.99965.99965,0,0,1-1.67,0l-6.66-10A.96354.96354,0,0,1,10.12,19.53Zm15.1-3.06A1.01067,1.01067,0,0,1,24.33,17H11a.98393.98393,0,0,1-.88-.53.96343.96343,0,0,1,.05-1.02l6.66-10a1.04,1.04,0,0,1,1.67,0l6.67,10A1.00745,1.00745,0,0,1,25.22,16.47Z"></path><polygon points="22.46 21 12.87 21 17.67 28.2 22.46 21"></polygon><polygon points="12.87 15 22.46 15 17.67 7.8 12.87 15"></polygon></g></svg>