<svg height='100px' width='100px'  fill="#000000" xmlns="http://www.w3.org/2000/svg" xmlns:xlink="http://www.w3.org/1999/xlink" version="1.1" x="0px" y="0px" viewBox="0 0 100 100" enable-background="new 0 0 100 100" xml:space="preserve"><g><g><g><path d="M88.364,51.078c-0.643-7.279-6.731-12.451-10.303-14.887c-1.136-0.775-2.317-1.493-3.529-2.16V19.144     c0-0.705-0.571-1.276-1.276-1.276H30.555c-0.705,0-1.276,0.571-1.276,1.276v3.496c-1.372,0.373-2.529,1.214-3.191,2.371     c-0.263,0.459-0.436,0.915-0.604,1.355c-0.137,0.361-0.267,0.702-0.428,0.986c-0.859,1.514-2.744,1.976-4.928,2.511     c-1.422,0.349-2.893,0.71-4.213,1.416c-2.297,1.228-3.887,3.675-4.252,6.545c-0.365,2.87,0.56,5.637,2.477,7.401     c0.758,0.697,1.617,1.245,2.448,1.774c1.358,0.865,2.532,1.612,2.996,2.78c0.223,0.561,0.278,1.247,0.336,1.973     c0.071,0.888,0.152,1.894,0.57,2.855c0.643,1.478,1.837,2.414,3.232,2.966l0.18,1.773c0.256,2.523,1.427,5.507,3.48,8.87     c0.006,0.01,0.007,0.023,0.001,0.034l-1.56,2.979c-0.661,1.263-0.172,2.83,1.092,3.491l13.595,7.117     c0.382,0.2,0.791,0.295,1.195,0.295c0.932,0,1.834-0.505,2.296-1.386l2.861-5.458l2.909-2.293     c0.188-0.148,0.354-0.316,0.536-0.47c0.518,0.379,1.051,0.74,1.607,1.073c2.682,1.605,5.633,2.426,8.432,2.426     c1.979,0,3.882-0.41,5.56-1.243c1.996-0.991,3.584-2.487,5.12-3.933c1.24-1.168,2.411-2.271,3.756-3.096     c0.997-0.611,2.09-1.069,3.248-1.555c1.143-0.479,2.324-0.975,3.443-1.641C86.065,61.82,88.835,56.404,88.364,51.078z      M77.041,63.844c-1.195,0.501-2.432,1.019-3.595,1.733c-1.569,0.962-2.892,2.208-4.172,3.414     c-1.465,1.379-2.848,2.682-4.505,3.505c-3.282,1.629-7.706,1.212-11.546-1.086c-0.358-0.214-0.701-0.452-1.043-0.691     c1.177-1.287,2.202-2.703,3.023-4.271l1.741-3.325h16.311c0.705,0,1.276-0.571,1.276-1.276v-24.87     c0.71,0.423,1.411,0.86,2.091,1.324c7.453,5.082,8.963,10.328,9.199,13.003c0.386,4.371-1.888,8.816-5.657,11.061     C79.2,62.939,78.151,63.378,77.041,63.844z M44.591,74.116l-2.851,5.447c-0.009,0.017-0.03,0.023-0.046,0.014L28.099,72.46     c-0.017-0.009-0.023-0.029-0.014-0.046l1.56-2.98c0.418-0.8,0.386-1.776-0.084-2.547c-1.852-3.035-2.902-5.658-3.119-7.798     L25.377,48.6c-0.078-0.765,0.433-1.45,1.189-1.594c0.093-0.018,0.187-0.026,0.279-0.026c0.302,0,0.595,0.093,0.847,0.271     c0.329,0.234,0.544,0.582,0.604,0.982l0.771,5.128c0.169,1.127,1.005,1.977,2.129,2.166c1.125,0.189,2.192-0.342,2.72-1.351     l11.198-21.39c0.107-0.203,0.286-0.353,0.504-0.421c0.22-0.069,0.451-0.048,0.654,0.059c0.419,0.22,0.582,0.739,0.363,1.158     l-8.543,16.318c-0.661,1.263-0.171,2.83,1.09,3.49l0.031,0.016c1.264,0.662,2.83,0.171,3.491-1.092l9.819-18.757     c0.103-0.196,0.276-0.341,0.487-0.407c0.212-0.066,0.436-0.046,0.632,0.057c0.196,0.103,0.341,0.276,0.407,0.487     c0.066,0.211,0.046,0.436-0.057,0.632l-9.552,18.246c-0.321,0.612-0.383,1.312-0.177,1.972c0.206,0.66,0.657,1.199,1.269,1.52     l0.38,0.199c0.612,0.32,1.312,0.383,1.972,0.177c0.66-0.206,1.199-0.657,1.52-1.269l7.805-14.91     c0.088-0.168,0.236-0.291,0.416-0.348c0.181-0.057,0.372-0.039,0.54,0.049c0.168,0.088,0.291,0.235,0.348,0.416     c0.057,0.18,0.039,0.372-0.048,0.54l-8.437,16.117c-0.32,0.612-0.383,1.313-0.177,1.972c0.206,0.66,0.657,1.199,1.269,1.52     c1.264,0.662,2.83,0.172,3.491-1.092l5.254-10.037c0.157-0.3,0.528-0.415,0.828-0.259c0.196,0.103,0.272,0.27,0.301,0.36     c0.028,0.09,0.06,0.272-0.042,0.467l-8.009,15.299c-1.171,2.237-2.771,4.164-4.754,5.728l-2.908,2.292     C44.993,73.51,44.761,73.791,44.591,74.116z M21.955,48.836c-0.77-1.935-2.484-3.027-3.997-3.99     c-0.771-0.491-1.5-0.955-2.09-1.499c-1.309-1.205-1.935-3.15-1.674-5.202c0.261-2.051,1.354-3.777,2.924-4.616     c1.037-0.555,2.291-0.862,3.618-1.188c2.408-0.591,5.138-1.26,6.54-3.731c0.257-0.453,0.428-0.902,0.593-1.337     c0.139-0.365,0.271-0.71,0.434-0.996c0.217-0.38,0.56-0.686,0.976-0.912v19.898c-0.039-0.03-0.07-0.068-0.111-0.096     c-0.901-0.639-1.997-0.877-3.08-0.67c-2.065,0.393-3.462,2.267-3.25,4.359l0.561,5.532c-0.26-0.257-0.452-0.53-0.569-0.8     c-0.249-0.571-0.306-1.285-0.366-2.041C22.397,50.708,22.32,49.754,21.955,48.836z M71.98,60.57H58.281l4.932-9.422     c0.81-1.546,0.21-3.463-1.336-4.272c-1.546-0.809-3.463-0.21-4.273,1.336L52.35,58.249c-0.009,0.016-0.029,0.023-0.046,0.014     c-0.014-0.007-0.022-0.032-0.014-0.046L60.727,42.1c0.404-0.772,0.483-1.654,0.223-2.486s-0.828-1.512-1.6-1.915     c-0.772-0.404-1.655-0.484-2.486-0.223c-0.832,0.26-1.512,0.828-1.916,1.6l-7.806,14.911c-0.007,0.014-0.032,0.021-0.046,0.014     l-0.38-0.199c-0.014-0.007-0.022-0.032-0.014-0.046l9.552-18.246c0.419-0.8,0.501-1.716,0.231-2.578     c-0.27-0.862-0.859-1.568-1.659-1.987c-0.8-0.419-1.716-0.501-2.578-0.231c-0.862,0.269-1.567,0.859-1.986,1.659L40.443,51.13     c-0.009,0.016-0.029,0.023-0.044,0.016l-0.031-0.016c-0.017-0.009-0.023-0.029-0.014-0.046l8.543-16.318     c0.872-1.666,0.226-3.731-1.44-4.603c-0.807-0.423-1.73-0.506-2.6-0.234c-0.87,0.272-1.581,0.866-2.003,1.673L31.831,52.656     V20.42H71.98V60.57z"></path></g></g></g></svg>