<svg height='100px' width='100px'  fill="#000000" xmlns="http://www.w3.org/2000/svg" xmlns:xlink="http://www.w3.org/1999/xlink" viewBox="0 0 68 62" version="1.1" x="0px" y="0px"><title>boat</title><desc>Created with Sketch.</desc><g stroke="none" stroke-width="1" fill="none" fill-rule="evenodd"><g transform="translate(-239.000000, -659.000000)" fill="#000000"><g transform="translate(239.000000, 659.000000)"><path d="M36.2083755,60.0901996 C36.5560128,59.4140339 36.9427464,58.6443422 37.3588483,57.7942552 C38.5468217,55.3672526 39.7345916,52.7777942 40.8445241,50.1297322 C41.8998865,47.6118628 42.8308005,45.1671813 43.6035164,42.8389894 C45.1449453,38.1946664 46,34.2027259 46,31 C46,27.7972741 45.1449453,23.8053336 43.6035164,19.1610106 C42.8308005,16.8328187 41.8998865,14.3881372 40.8445241,11.8702678 C39.7345916,9.2222058 38.5468217,6.63274743 37.3588483,4.20574476 C36.9427464,3.35565781 36.5560128,2.58596606 36.2083755,1.90980043 C35.9983414,1.50127752 35.8469669,1.21277976 35.7639901,1.05748257 C35.0106254,-0.352494191 32.9893746,-0.352494191 32.2360099,1.05748257 C32.1530331,1.21277976 32.0016586,1.50127752 31.7916245,1.90980043 C31.4439872,2.58596606 31.0572536,3.35565781 30.6411517,4.20574476 C29.4531783,6.63274743 28.2654084,9.2222058 27.1554759,11.8702678 C26.1001135,14.3881372 25.1691995,16.8328187 24.3964836,19.1610106 C22.8550547,23.8053336 22,27.7972741 22,31 C22,34.2027259 22.8550547,38.1946664 24.3964836,42.8389894 C25.1691995,45.1671813 26.1001135,47.6118628 27.1554759,50.1297322 C28.2654084,52.7777942 29.4531783,55.3672526 30.6411517,57.7942552 C31.0572536,58.6443422 31.4439872,59.4140339 31.7916245,60.0901996 C32.0016586,60.4987225 32.1530331,60.7872202 32.2360099,60.9425174 C32.9893746,62.3524942 35.0106254,62.3524942 35.7639901,60.9425174 C35.8469669,60.7872202 35.9983414,60.4987225 36.2083755,60.0901996 Z M30.8445241,48.5834713 C29.8263238,46.1542628 28.9310293,43.8031217 28.1928514,41.5789928 C26.7745884,37.3057685 26,33.6894959 26,31 C26,28.3105041 26.7745884,24.6942315 28.1928514,20.4210072 C28.9310293,18.1968783 29.8263238,15.8457372 30.8445241,13.4165287 C31.9220916,10.8456829 34.0113242,6.46758248 34.0113242,6.46758248 C34.0113242,6.46758248 36.1541102,11.027484 37.1554759,13.4165287 C38.1736762,15.8457372 39.0689707,18.1968783 39.8071486,20.4210072 C41.2254116,24.6942315 42,28.3105041 42,31 C42,33.6894959 41.2254116,37.3057685 39.8071486,41.5789928 C39.0689707,43.8031217 38.1736762,46.1542628 37.1554759,48.5834713 C36.1515014,50.9787398 35.0794591,53.3300036 34.0029326,55.5497233 C33.9240213,55.7124325 31.9220916,51.1543171 30.8445241,48.5834713 Z"></path><path d="M29,33 C30.1045695,33 31,32.1045695 31,31 C31,29.8954305 30.1045695,29 29,29 L17,29 C15.8954305,29 15,29.8954305 15,31 C15,32.1045695 15.8954305,33 17,33 L29,33 Z"></path><path d="M12.9999798,29 C14.1026638,29 15,29.8980282 15,31 C15,32.1030542 14.102495,33 12.9999798,33 L4,33 L4,29 L12.9999798,29 Z M0,27 L0,35 C0,36.1045695 0.8954305,37 2,37 L12.9999798,37 C16.3110761,37 19,34.3127516 19,31 C19,27.6895791 16.3124934,25 12.9999798,25 L2,25 C0.8954305,25 0,25.8954305 0,27 Z"></path><path d="M51,33 C52.1045695,33 53,32.1045695 53,31 C53,29.8954305 52.1045695,29 51,29 L39,29 C37.8954305,29 37,29.8954305 37,31 C37,32.1045695 37.8954305,33 39,33 L51,33 Z" transform="translate(45.000000, 31.000000) scale(-1, 1) translate(-45.000000, -31.000000) "></path><path d="M61.9999798,29 C63.1026638,29 64,29.8980282 64,31 C64,32.1030542 63.102495,33 61.9999798,33 L53,33 L53,29 L61.9999798,29 Z M49,27 L49,35 C49,36.1045695 49.8954305,37 51,37 L61.9999798,37 C65.3110761,37 68,34.3127516 68,31 C68,27.6895791 65.3124934,25 61.9999798,25 L51,25 C49.8954305,25 49,25.8954305 49,27 Z" transform="translate(58.500000, 31.000000) scale(-1, 1) translate(-58.500000, -31.000000) "></path><path d="M40,31 C40,26.1758349 37.6138086,22 34,22 C30.3861914,22 28,26.1758349 28,31 C28,35.8241651 30.3861914,40 34,40 C37.6138086,40 40,35.8241651 40,31 Z M32.9080592,34.9574696 C32.3437081,33.9698552 32,32.5477752 32,31 C32,29.4522248 32.3437081,28.0301448 32.9080592,27.0425304 C33.3293803,26.3052184 33.7417331,26 34,26 C34.2582669,26 34.6706197,26.3052184 35.0919408,27.0425304 C35.6562919,28.0301448 36,29.4522248 36,31 C36,32.5477752 35.6562919,33.9698552 35.0919408,34.9574696 C34.6706197,35.6947816 34.2582669,36 34,36 C33.7417331,36 33.3293803,35.6947816 32.9080592,34.9574696 Z"></path></g></g></g></svg>