<?xml version="1.0" encoding="utf-8"?>
<!-- Generator: Adobe Illustrator 24.2.1, SVG Export Plug-In . SVG Version: 6.00 Build 0)  -->
<svg version="1.1" id="Layer_1" xmlns="http://www.w3.org/2000/svg" xmlns:xlink="http://www.w3.org/1999/xlink" x="0px" y="0px"
	 viewBox="0 0 100 100" enable-background="new 0 0 100 100" xml:space="preserve">
<g>
	<path d="M74.744,96.781c0.098,0.354-0.11,0.72-0.464,0.818c-0.354,0.098-0.72-0.11-0.818-0.464
		c-3.526-12.756-2.49-13.906,4.07-21.184l0.236-0.262c0.267-0.296,0.749-0.817,1.26-1.37c2.231-2.412,5.106-5.519,6.113-7.955
		c0.396-0.956,0.816-2.18,1.293-3.572c1.414-4.119,3.327-9.694,7.105-15.385c-1.177-2.138-0.487-3.396,0.653-4.782
		c-0.515,0.268-1.026,0.62-1.374,0.861l-0.007,0.005c-3.641,2.513-5.354,6.693-7.062,10.863c-0.079,0.193-0.158,0.387-0.238,0.58
		c-0.184,0.581-0.395,1.129-0.636,1.63c-0.032,0.066-0.073,0.125-0.122,0.175c-0.385,0.892-0.788,1.77-1.227,2.619
		c-3.076,5.951-7.1,9.456-10.291,10.598c-1.13,0.404-2.176,0.521-3.068,0.356c-0.963-0.179-1.737-0.676-2.244-1.488
		c-0.742-1.188-0.867-3.042-0.084-5.527c0.251-0.797,0.499-1.484,0.714-2.081c0.769-2.132,1.083-3.001,0.257-6.737
		c-0.077-0.346-0.205-0.895-0.397-1.446c0.025,1.73-0.308,3.092-2.671,4.024l-0.021-0.053c-0.388,1.726-0.926,3.337-1.46,4.94
		c-0.58,1.74-1.158,3.471-1.524,5.317c-0.377,1.9-0.963,3.601-1.673,5.231c-0.7,1.606-1.521,3.138-2.383,4.723
		c-2.288,4.211-0.907,9.838,0.355,14.98c0.398,1.623,0.785,3.199,1.045,4.665c0.063,0.362-0.179,0.708-0.542,0.771
		c-0.362,0.063-0.708-0.179-0.771-0.542c-0.258-1.453-0.636-2.992-1.025-4.577c-1.32-5.379-2.765-11.267-0.23-15.933
		c0.844-1.553,1.648-3.053,2.331-4.619c0.673-1.543,1.227-3.154,1.584-4.955c0.379-1.91,0.973-3.692,1.571-5.483
		c0.73-2.188,1.464-4.39,1.789-6.832c0.038-0.284,0.051-0.619,0.064-0.964c0.052-1.334,0.109-2.791,1.42-3.463
		c1.36-0.697,2.288,0.08,2.916,1.231c0.502,0.92,0.781,2.09,0.916,2.699c0.908,4.111,0.557,5.084-0.304,7.471
		c-0.199,0.552-0.428,1.187-0.693,2.029c-0.656,2.082-0.601,3.557-0.057,4.428c0.299,0.479,0.767,0.775,1.353,0.884
		c0.658,0.122,1.47,0.022,2.38-0.304c2.925-1.046,6.651-4.33,9.556-9.952c0.706-1.366,1.318-2.815,1.918-4.275
		c0.281-0.9,0.497-1.897,0.665-2.929c0.274-1.683,0.418-3.454,0.504-5.052c0.081-1.512-0.152-3.085-0.601-4.677
		c-0.261-0.928-0.596-1.861-0.985-2.793c-0.429-0.053-0.793-0.175-1.112-0.355c-0.43-0.243-0.757-0.58-1.03-0.995
		c-0.248-0.377-0.496-0.811-0.741-1.293c-0.123-0.242-0.245-0.497-0.367-0.763c-0.096,0.058-0.182,0.135-0.255,0.23
		c-0.28,0.366-0.384,0.991-0.165,1.856l0.005,0.019c0.214,0.769,0.421,1.45,0.62,2.101c0.899,2.949,1.612,5.29,1.07,8.998
		c-0.234,1.604-0.63,3.177-1.137,4.712c-0.506,1.53-1.121,3.023-1.797,4.474c-0.155,0.334-0.552,0.478-0.885,0.323
		c-0.334-0.155-0.478-0.552-0.323-0.885c0.236-0.506,0.464-1.018,0.683-1.533c0.002-0.024,0.005-0.048,0.009-0.072
		c0.421-2.254,0.233-4.272-0.448-6.18c-0.507-1.421-1.288-2.787-2.295-4.148c-0.487,0.035-0.904-0.029-1.273-0.174
		c-0.428-0.169-0.771-0.436-1.074-0.781c-0.268-0.305-0.546-0.665-0.83-1.074c-0.048-0.07-0.097-0.141-0.147-0.215
		c-0.086,0.058-0.154,0.135-0.197,0.231c-0.114,0.257-0.076,0.648,0.195,1.162l0.001-0.001c0.331,0.587,0.624,1.077,0.903,1.545
		c1.289,2.155,2.313,3.866,2.473,6.803c0.089,1.637-0.127,3.172-0.554,4.654c-0.423,1.469-1.048,2.87-1.782,4.258
		c-0.126,0.239-0.267,0.498-0.42,0.772c-0.155,0.279-0.3,0.534-0.437,0.771c-0.184,0.318-0.591,0.426-0.909,0.242
		c-0.318-0.184-0.426-0.591-0.242-0.909c0.157-0.271,0.3-0.523,0.427-0.75c0.129-0.232,0.263-0.479,0.405-0.746
		c0.701-1.325,1.292-2.647,1.683-4.003c0.053-0.185,0.103-0.37,0.149-0.557c-0.442-0.439-0.931-0.878-1.451-1.345
		c-0.417-0.375-0.855-0.769-1.346-1.235l0,0l-0.011-0.01c-0.742-0.738-1.003-1.5-0.925-2.16c0.047-0.397,0.216-0.751,0.479-1.041
		c0.247-0.273,0.575-0.483,0.957-0.611c0.605-0.203,1.365-0.203,2.155,0.086c-0.418-1.244-1.058-2.313-1.79-3.537
		c-0.306-0.512-0.627-1.049-0.924-1.576l0.001-0.001l-0.007-0.012c-0.492-0.924-0.517-1.729-0.248-2.336
		c0.154-0.347,0.399-0.625,0.709-0.822l-0.014-0.023c-0.119-0.202-0.247-0.528-0.279-0.823c-0.022-0.203-0.004-0.409,0.076-0.596
		c0.112-0.263,0.314-0.458,0.636-0.537c0.177-0.043,0.382-0.043,0.617,0.017c0.588,0.149,1.163,0.688,1.639,1.27
		c0.632,0.773,1.273,1.793,1.948,2.65c1.315,1.669,2.325,3.345,2.957,5.114c0.303,0.848,0.518,1.716,0.638,2.611
		c0.296-1.052,0.532-2.117,0.689-3.194c0.5-3.422-0.174-5.634-1.023-8.42c-0.207-0.68-0.425-1.393-0.63-2.13
		c-0.006-0.017-0.011-0.035-0.015-0.052c-0.329-1.3-0.11-2.32,0.4-2.986c0.226-0.295,0.506-0.52,0.821-0.67
		c-0.036-0.168-0.058-0.351-0.053-0.521c0.007-0.217,0.055-0.429,0.164-0.609c0.151-0.251,0.385-0.421,0.726-0.455
		c0.189-0.019,0.402,0.012,0.64,0.108c0.442,0.18,0.849,0.588,1.203,1.07c0.725,0.986,1.273,2.29,1.785,3.4
		c0.626,1.356,1.158,2.728,1.543,4.093c0.486,1.723,0.737,3.437,0.648,5.104c-0.045,0.838-0.105,1.723-0.192,2.62
		c1.32-2.639,2.962-5.041,5.487-6.783l0.007-0.005c1.11-0.766,3.405-2.35,4.788-0.854c1.454,1.573,0.078,3.427-0.81,4.621
		l-0.109,0.147c-4.543,6.156-6.693,12.421-8.237,16.919c-0.474,1.383-0.892,2.599-1.324,3.644c-1.097,2.653-4.065,5.861-6.369,8.351
		c-0.388,0.42-0.754,0.815-1.245,1.36l-0.236,0.262C72.383,83.654,71.413,84.73,74.744,96.781L74.744,96.781z M27.328,40.18
		c0.235-0.06,0.44-0.06,0.617-0.017c0.322,0.079,0.524,0.273,0.636,0.537c0.08,0.187,0.098,0.393,0.076,0.596
		c-0.032,0.296-0.16,0.622-0.279,0.823l-0.017,0.028c0.306,0.197,0.548,0.473,0.701,0.817c0.269,0.607,0.244,1.412-0.248,2.336
		l-0.007,0.012l0.001,0.001c-0.297,0.527-0.618,1.064-0.924,1.576c-0.732,1.224-1.372,2.293-1.79,3.537
		c0.79-0.29,1.549-0.289,2.155-0.086c0.382,0.128,0.709,0.338,0.957,0.611c0.263,0.29,0.432,0.644,0.479,1.041
		c0.078,0.661-0.183,1.423-0.925,2.16l-0.011,0.01l0,0c-0.491,0.466-0.929,0.859-1.346,1.235c-0.52,0.467-1.008,0.907-1.451,1.345
		c0.046,0.187,0.095,0.372,0.149,0.557c0.391,1.356,0.982,2.678,1.683,4.003c0.141,0.267,0.276,0.515,0.405,0.746
		c0.126,0.227,0.27,0.479,0.427,0.75c0.184,0.318,0.076,0.725-0.242,0.909c-0.318,0.184-0.725,0.076-0.909-0.242
		c-0.137-0.237-0.282-0.491-0.437-0.771c-0.153-0.275-0.294-0.533-0.42-0.772c-0.734-1.389-1.359-2.79-1.782-4.258
		c-0.427-1.482-0.644-3.017-0.554-4.654c0.16-2.937,1.184-4.648,2.473-6.803c0.279-0.467,0.573-0.957,0.903-1.545l0.001,0.001
		c0.271-0.514,0.308-0.906,0.195-1.162c-0.041-0.093-0.106-0.169-0.189-0.226c-0.048,0.072-0.096,0.142-0.143,0.21
		c-0.284,0.409-0.563,0.769-0.83,1.074c-0.303,0.344-0.646,0.612-1.074,0.781c-0.372,0.147-0.792,0.21-1.284,0.174
		c-1.007,1.361-1.788,2.728-2.296,4.149c-0.681,1.908-0.869,3.926-0.448,6.18c0.004,0.024,0.007,0.048,0.009,0.072
		c0.218,0.515,0.446,1.027,0.683,1.533c0.155,0.334,0.011,0.73-0.323,0.885c-0.334,0.155-0.73,0.011-0.885-0.323
		c-0.676-1.451-1.292-2.943-1.797-4.474c-0.507-1.535-0.903-3.107-1.137-4.712c-0.542-3.709,0.171-6.049,1.07-8.998
		c0.198-0.651,0.406-1.332,0.62-2.101l0.005-0.019c0.219-0.865,0.115-1.49-0.165-1.856c-0.067-0.088-0.146-0.16-0.233-0.217
		c-0.12,0.261-0.24,0.511-0.361,0.749c-0.244,0.482-0.492,0.916-0.741,1.293c-0.273,0.415-0.6,0.752-1.03,0.995
		c-0.326,0.184-0.7,0.307-1.142,0.358c-0.388,0.931-0.722,1.863-0.983,2.789c-0.449,1.592-0.682,3.165-0.601,4.677
		c0.085,1.598,0.229,3.369,0.504,5.052c0.168,1.032,0.384,2.028,0.665,2.929c0.601,1.46,1.212,2.909,1.918,4.275
		c2.905,5.621,6.631,8.905,9.556,9.952c0.91,0.326,1.722,0.426,2.38,0.304c0.587-0.109,1.054-0.404,1.353-0.884
		c0.544-0.871,0.599-2.345-0.057-4.428c-0.265-0.841-0.494-1.477-0.693-2.029c-0.861-2.387-1.212-3.36-0.304-7.471
		c0.135-0.609,0.414-1.779,0.916-2.699c0.628-1.151,1.556-1.928,2.916-1.231c1.312,0.673,1.368,2.129,1.42,3.463
		c0.013,0.345,0.027,0.68,0.064,0.964c0.325,2.442,1.06,4.645,1.789,6.832c0.597,1.791,1.192,3.573,1.571,5.483
		c0.357,1.8,0.912,3.412,1.584,4.955c0.683,1.566,1.487,3.066,2.331,4.619c2.535,4.666,1.09,10.553-0.23,15.933
		c-0.389,1.585-0.767,3.124-1.025,4.577c-0.063,0.362-0.408,0.605-0.771,0.542s-0.605-0.408-0.542-0.771
		c0.26-1.466,0.647-3.043,1.045-4.665c1.262-5.142,2.643-10.769,0.355-14.98c-0.861-1.586-1.683-3.118-2.383-4.723
		c-0.71-1.629-1.296-3.331-1.673-5.231c-0.366-1.846-0.944-3.577-1.524-5.317c-0.535-1.603-1.072-3.214-1.46-4.94l-0.021,0.053
		c-2.363-0.932-2.696-2.294-2.671-4.024c-0.192,0.551-0.32,1.1-0.397,1.446c-0.826,3.736-0.512,4.605,0.257,6.737
		c0.215,0.597,0.463,1.284,0.714,2.081c0.783,2.485,0.658,4.339-0.084,5.527c-0.507,0.812-1.281,1.309-2.244,1.488
		c-0.891,0.165-1.938,0.048-3.068-0.356c-3.19-1.141-7.215-4.647-10.291-10.598c-0.439-0.849-0.841-1.727-1.227-2.619
		c-0.048-0.05-0.09-0.109-0.122-0.175c-0.241-0.501-0.451-1.049-0.636-1.63c-0.079-0.193-0.159-0.387-0.238-0.58
		c-1.708-4.17-3.421-8.35-7.062-10.863l-0.007-0.005c-0.349-0.241-0.859-0.593-1.374-0.861c1.14,1.386,1.83,2.643,0.653,4.781
		c3.778,5.692,5.691,11.267,7.105,15.385c0.477,1.391,0.897,2.615,1.293,3.571c1.007,2.436,3.882,5.543,6.113,7.955
		c0.511,0.553,0.994,1.074,1.26,1.37l0.236,0.262c6.56,7.278,7.596,8.427,4.07,21.184c-0.098,0.354-0.464,0.561-0.818,0.464
		c-0.354-0.098-0.561-0.464-0.464-0.818c3.331-12.051,2.361-13.127-3.778-19.939l-0.236-0.262c-0.491-0.545-0.857-0.94-1.245-1.36
		c-2.304-2.49-5.272-5.698-6.369-8.351c-0.432-1.045-0.85-2.262-1.324-3.644c-1.544-4.498-3.694-10.762-8.237-16.919L3.959,46.16
		c-0.887-1.194-2.264-3.048-0.81-4.621c1.383-1.495,3.678,0.089,4.788,0.854l0.007,0.005c2.525,1.743,4.167,4.145,5.487,6.783
		c-0.086-0.897-0.147-1.782-0.192-2.62c-0.089-1.667,0.162-3.381,0.648-5.104c0.287-1.017,0.655-2.037,1.083-3.053
		c0.576-1.366,2.043-4.926,3.476-5.51c0.238-0.097,0.45-0.128,0.64-0.108c0.341,0.035,0.574,0.204,0.726,0.455
		c0.109,0.18,0.157,0.392,0.164,0.609c0.005,0.175-0.018,0.362-0.056,0.534c0.305,0.15,0.576,0.37,0.796,0.657
		c0.51,0.666,0.729,1.687,0.4,2.986c-0.004,0.018-0.01,0.035-0.015,0.052c-0.205,0.737-0.422,1.45-0.63,2.13
		c-0.849,2.786-1.523,4.998-1.023,8.42c0.157,1.077,0.393,2.142,0.689,3.194c0.12-0.896,0.335-1.763,0.638-2.611
		c0.602-1.687,1.549-3.29,2.776-4.882C24.378,43.257,26.017,40.513,27.328,40.18L27.328,40.18z M24.191,18.778l-0.568,0.61
		l-0.61-0.568l0.568-0.61L24.191,18.778z M38.824,32.413l-0.568,0.61l-0.61-0.568l0.568-0.61L38.824,32.413z M35.165,29.004
		l-0.568,0.61l-0.61-0.568l0.568-0.61L35.165,29.004z M31.507,25.596l-0.568,0.61l-0.61-0.568l0.568-0.61L31.507,25.596z
		 M27.849,22.187l-0.568,0.61l-0.61-0.568l0.568-0.61L27.849,22.187z M41.151,5.67c-0.09-0.211,0.008-0.455,0.22-0.545
		c0.211-0.09,0.455,0.008,0.545,0.22l4.057,9.525c0.09,0.211-0.008,0.455-0.22,0.545c-0.211,0.09-0.455-0.008-0.545-0.22
		L41.151,5.67z M29.859,12.354l-1.16,0.657l-0.657-1.16l1.16-0.657L29.859,12.354z M37.748,26.274l-1.16,0.657l-0.657-1.16
		l1.16-0.657C37.09,25.114,37.748,26.274,37.748,26.274z M33.804,19.314l-1.16,0.657l-0.657-1.16l1.16-0.657L33.804,19.314z
		 M35.973,38.012c0.201,0.111,0.275,0.363,0.164,0.565c-0.111,0.201-0.363,0.275-0.565,0.164l-4.458-2.464
		c-0.201-0.111-0.275-0.363-0.164-0.565c0.111-0.201,0.363-0.275,0.565-0.164L35.973,38.012z M24.85,31.863
		c0.201,0.111,0.275,0.363,0.164,0.565c-0.111,0.201-0.363,0.275-0.565,0.164l-7.812-4.319c-0.201-0.111-0.275-0.363-0.164-0.565
		c0.111-0.201,0.363-0.275,0.565-0.164L24.85,31.863z M32.989,51.396c-0.009,0.214-0.02,0.414-0.03,0.609
		c-0.079,1.453-0.142,2.625,1.013,3.417c-0.029-0.184-0.056-0.37-0.081-0.558c-0.046-0.343-0.06-0.711-0.075-1.089
		c-0.037-0.962-0.078-2.011-0.696-2.328C33.075,51.425,33.031,51.408,32.989,51.396z M5.568,46.111
		c0.379-1.289-0.374-2.167-1.303-3.248c-0.081-0.094-0.163-0.19-0.246-0.287c-0.491,0.776,0.413,1.993,1.007,2.793l0.109,0.147
		C5.282,45.714,5.426,45.913,5.568,46.111z M25.966,51.97c-0.083,0.053-0.173,0.085-0.265,0.097
		c-0.048,0.32-0.082,0.656-0.102,1.011c-0.039,0.72-0.014,1.417,0.067,2.098c0.274-0.254,0.555-0.507,0.846-0.769
		c0.431-0.387,0.883-0.794,1.32-1.208c0.411-0.412,0.563-0.774,0.53-1.052c-0.014-0.117-0.063-0.222-0.14-0.307
		c-0.093-0.102-0.228-0.185-0.394-0.241C27.353,51.441,26.676,51.52,25.966,51.97z M77.431,19.791l-0.568-0.61l0.61-0.568
		l0.568,0.61L77.431,19.791z M62.798,33.426l-0.568-0.61l0.61-0.568l0.568,0.61L62.798,33.426z M66.456,30.017l-0.568-0.61
		l0.61-0.568l0.568,0.61L66.456,30.017z M70.114,26.608l-0.568-0.61l0.61-0.568l0.568,0.61L70.114,26.608z M73.772,23.2l-0.568-0.61
		l0.61-0.568l0.568,0.61L73.772,23.2z M50.417,12.828c0,0.23-0.187,0.417-0.417,0.417s-0.417-0.187-0.417-0.417V2.774
		c0-0.23,0.187-0.417,0.417-0.417s0.417,0.187,0.417,0.417V12.828z M58.084,5.345c0.09-0.211,0.334-0.31,0.545-0.22
		c0.211,0.09,0.31,0.334,0.22,0.545l-4.057,9.525c-0.09,0.211-0.334,0.31-0.545,0.22c-0.211-0.09-0.31-0.334-0.22-0.545
		C54.027,14.87,58.084,5.345,58.084,5.345z M71.301,13.011l-1.16-0.657l0.657-1.16l1.16,0.657L71.301,13.011z M63.412,26.931
		l-1.16-0.657l0.657-1.16l1.16,0.657L63.412,26.931z M67.356,19.971l-1.16-0.657l0.657-1.16l1.16,0.657L67.356,19.971z
		 M64.403,38.755c-0.201,0.111-0.454,0.037-0.565-0.164s-0.037-0.454,0.164-0.565l4.482-2.478c0.201-0.111,0.454-0.037,0.565,0.164
		s0.037,0.454-0.164,0.565L64.403,38.755z M75.55,32.592c-0.201,0.111-0.454,0.037-0.565-0.164
		c-0.111-0.201-0.037-0.454,0.164-0.565l7.812-4.319c0.201-0.111,0.454-0.037,0.565,0.164c0.111,0.201,0.037,0.454-0.164,0.565
		L75.55,32.592z M43.821,42.15c-0.105,3.465,0.896,7.5,1.888,11.496c0.546,2.2,1.088,4.388,1.446,6.471
		c0.113,0.66,0.384,1.049,0.747,1.279c0.598,0.101,1.287,0.124,1.988,0.138c0.797,0.015,1.601,0.008,2.293-0.112
		c0.379-0.239,0.663-0.641,0.777-1.305c0.358-2.083,0.901-4.272,1.446-6.471c0.991-3.996,1.992-8.031,1.888-11.496
		c-0.044-1.457-1.288-2.463-2.967-3.01c-1.04-0.156-2.153-0.234-3.269-0.234c-1.116,0-2.228,0.078-3.268,0.234
		C45.109,39.687,43.865,40.693,43.821,42.15z M44.901,53.845c-1.004-4.049-2.018-8.137-1.91-11.717
		c0.028-0.917,0.399-1.687,1.005-2.31c-1.514,0.55-2.533,1.336-2.576,2.347c-0.143,3.401,1.244,7.402,2.619,11.364
		c0.765,2.205,1.526,4.399,2.032,6.504c0.073,0.303,0.205,0.541,0.385,0.729c-0.049-0.155-0.09-0.323-0.121-0.506
		C45.98,58.194,45.442,56.025,44.901,53.845z M56.117,39.818c0.607,0.623,0.978,1.393,1.005,2.31
		c0.108,3.58-0.906,7.669-1.91,11.717c-0.541,2.18-1.079,4.349-1.433,6.413c-0.031,0.18-0.071,0.347-0.121,0.501
		c0.18-0.191,0.313-0.428,0.384-0.724c0.506-2.106,1.267-4.299,2.031-6.504c1.374-3.963,2.762-7.964,2.619-11.364
		C58.65,41.154,57.631,40.368,56.117,39.818z M51.227,23.058c0-0.23,0.187-0.417,0.417-0.417s0.417,0.187,0.417,0.417v7.144
		c0,0.23-0.187,0.417-0.417,0.417s-0.417-0.187-0.417-0.417C51.227,30.202,51.227,23.058,51.227,23.058z M45.601,37.559V22.411
		c0-1.833,0.602-2.911,1.501-3.543c0.868-0.61,1.965-0.749,3.042-0.746c1.047,0.002,2.096,0.119,2.927,0.68
		c0.871,0.588,1.448,1.599,1.448,3.344v15.582c0,0.211,0.092,0.291,0.291,0.335c2.927,0.655,5.123,1.996,5.21,4.049
		c0.154,3.645-1.276,7.767-2.692,11.849c-0.754,2.175-1.505,4.338-1.995,6.379c-0.298,1.242-1.137,1.895-2.232,2.227
		c-0.966,0.293-2.113,0.316-3.233,0.294c-1.075-0.021-2.133-0.064-3.024-0.36c-1.014-0.337-1.778-0.968-2.065-2.162
		c-0.49-2.041-1.241-4.205-1.995-6.379c-1.416-4.082-2.846-8.204-2.692-11.849c0.085-2.012,2.194-3.34,5.032-4.009
		C45.42,38.035,45.601,37.874,45.601,37.559z M53.186,37.777v-15.63c0-1.224-0.343-1.891-0.86-2.24
		c-0.557-0.376-1.361-0.455-2.182-0.456c-0.846-0.002-1.687,0.093-2.277,0.507c-0.559,0.392-0.933,1.129-0.933,2.454v15.364
		c1.009-0.135,2.067-0.202,3.122-0.202C51.114,37.573,52.174,37.641,53.186,37.777z M67.011,51.396
		c-0.043,0.012-0.086,0.029-0.13,0.051c-0.618,0.317-0.659,1.366-0.696,2.328c-0.015,0.378-0.029,0.745-0.075,1.089
		c-0.025,0.188-0.052,0.373-0.081,0.558c1.155-0.792,1.091-1.964,1.013-3.417C67.031,51.809,67.02,51.61,67.011,51.396z
		 M94.432,46.111c0.142-0.199,0.286-0.397,0.433-0.596l0.109-0.147c0.595-0.8,1.498-2.017,1.007-2.793
		c-0.083,0.097-0.165,0.193-0.246,0.287C94.807,43.945,94.054,44.822,94.432,46.111z M74.333,55.177
		c0.081-0.681,0.107-1.378,0.067-2.098c-0.019-0.355-0.054-0.69-0.102-1.011c-0.091-0.013-0.182-0.045-0.265-0.097
		c-0.71-0.45-1.387-0.529-1.863-0.37c-0.166,0.056-0.301,0.139-0.394,0.241c-0.077,0.085-0.126,0.189-0.14,0.307
		c-0.033,0.277,0.119,0.64,0.53,1.051c0.437,0.414,0.889,0.821,1.32,1.208C73.777,54.67,74.059,54.923,74.333,55.177z"/>
</g>
</svg>
