<svg height='100px' width='100px'  fill="#000000" xmlns="http://www.w3.org/2000/svg" xmlns:xlink="http://www.w3.org/1999/xlink" version="1.1" x="0px" y="0px" viewBox="0 0 100 100" style="enable-background:new 0 0 100 100;" xml:space="preserve"><g><path d="M30.9,44.6c1.2,0,2.1-0.9,2.1-2.1c0-10.7-8.7-19.4-19.4-19.4c-1.2,0-2.1,0.9-2.1,2.1C11.5,35.9,20.2,44.6,30.9,44.6z    M28.6,40.2c-6.6-1-11.8-6.2-12.8-12.8C22.4,28.4,27.6,33.7,28.6,40.2z"></path><path d="M49.7,44.1c0.5,0,1.1-0.2,1.5-0.6c4.2-4.2,6.5-9.8,6.5-15.7c0-5.9-2.3-11.5-6.5-15.7c-0.8-0.8-2.1-0.8-3,0   c-4.2,4.2-6.5,9.8-6.5,15.7c0,5.9,2.3,11.5,6.5,15.7C48.6,43.9,49.2,44.1,49.7,44.1z M49.7,16.7c5.1,6.5,5.1,15.7,0,22.1   C44.7,32.3,44.7,23.2,49.7,16.7z"></path><path d="M66.2,42.5c0,1.2,0.9,2.1,2.1,2.1c10.7,0,19.4-8.7,19.4-19.4c0-1.2-0.9-2.1-2.1-2.1C74.9,23.1,66.2,31.8,66.2,42.5z    M83.3,27.5c-1,6.6-6.2,11.8-12.8,12.8C71.5,33.7,76.8,28.4,83.3,27.5z"></path><path d="M34.1,55.1c-10.7,0-19.4,8.7-19.4,19.4c0,1.2,0.9,2.1,2.1,2.1c10.7,0,19.4-8.7,19.4-19.4C36.2,56,35.2,55.1,34.1,55.1z    M19,72.2c1-6.6,6.2-11.8,12.8-12.8C30.8,66,25.6,71.2,19,72.2z"></path><path d="M65.1,55.1c-1.2,0-2.1,0.9-2.1,2.1c0,10.7,8.7,19.4,19.4,19.4c1.2,0,2.1-0.9,2.1-2.1C84.5,63.8,75.8,55.1,65.1,55.1z    M67.3,59.4c6.6,1,11.8,6.2,12.8,12.8C73.5,71.2,68.3,66,67.3,59.4z"></path><path d="M63,29.2c0.2,0.1,0.5,0.1,0.8,0.1c0.3,0,0.6-0.1,0.8-0.2c4.1-1.8,7.3-5.1,9-9.3s1.5-8.8-0.3-12.9c-0.5-1.1-1.7-1.5-2.8-1.1   c-4.1,1.8-7.3,5.1-9,9.3c-1.6,4.2-1.6,8.8,0.3,12.9C62.1,28.6,62.5,29,63,29.2z M65.5,16.7c1-2.4,2.6-4.5,4.7-5.9   c0.6,2.5,0.4,5.1-0.5,7.6s-2.6,4.5-4.7,5.9C64.4,21.7,64.6,19.1,65.5,16.7z"></path><path d="M33.9,29.2c0.3,0.1,0.6,0.2,0.8,0.2c0.3,0,0.5,0,0.8-0.1c0.5-0.2,0.9-0.6,1.2-1.1c1.8-4.1,1.9-8.7,0.3-12.9   c-1.6-4.2-4.8-7.5-9-9.3c-1.1-0.5-2.3,0-2.8,1.1c-1.8,4.1-1.9,8.7-0.3,12.9C26.6,24,29.8,27.3,33.9,29.2z M28.3,10.8   c2.1,1.4,3.8,3.5,4.7,5.9c1,2.4,1.1,5.1,0.5,7.6c-2.1-1.4-3.8-3.5-4.7-5.9C27.9,15.9,27.7,13.2,28.3,10.8z"></path><path d="M94,49.5c-5.8-6-15.4-6.3-21.4-0.5c-0.8,0.8-0.9,2.1-0.1,3c2.8,2.9,6.6,4.6,10.6,4.7c0.1,0,0.2,0,0.4,0   c3.9,0,7.6-1.5,10.4-4.2c0.4-0.4,0.6-0.9,0.6-1.5S94.4,49.9,94,49.5z M83.2,52.5c-2.1,0-4.2-0.7-5.9-1.9c3.6-2.2,8.3-2.1,11.8,0.3   C87.4,52,85.4,52.5,83.2,52.5z"></path><path d="M27.6,51.8c0.4-0.4,0.6-0.9,0.6-1.5c0-0.6-0.2-1.1-0.6-1.5c-5.8-6-15.4-6.3-21.4-0.5c-0.4,0.4-0.6,0.9-0.6,1.5   s0.2,1.1,0.6,1.5c3,3.1,7,4.7,11,4.7C20.9,56,24.7,54.6,27.6,51.8z M11.1,50c1.8-1.1,3.8-1.6,6-1.6c2.1,0,4.2,0.7,5.9,1.9   C19.2,52.4,14.6,52.3,11.1,50z"></path><path d="M60.5,89.9H52V66.4c0,0,0-0.1,0.1-0.1l0.2-0.5l14.2-17.5c0.7-0.9,0.6-2.2-0.3-2.9c-0.9-0.7-2.2-0.6-2.9,0.3l-6.5,8   l7.7-20.7c0.4-1.1-0.2-2.3-1.2-2.7c-1.1-0.4-2.3,0.1-2.7,1.2l-8.5,23v-5.6c0-1.2-0.9-2.1-2.1-2.1s-2.1,0.9-2.1,2.1v5.5l-8.5-22.9   c-0.4-1.1-1.6-1.6-2.7-1.2c-1.1,0.4-1.6,1.6-1.2,2.7l8,21.5l-7.1-8.8c-0.7-0.9-2-1-2.9-0.3c-0.9,0.7-1,2-0.3,2.9l14.8,18.2v23.5H39   c-1.2,0-2.1,0.9-2.1,2.1s0.9,2.1,2.1,2.1h21.6c1.2,0,2.1-0.9,2.1-2.1S61.7,89.9,60.5,89.9z"></path></g></svg>