<svg height='100px' width='100px'  fill="#000000" xmlns="http://www.w3.org/2000/svg" viewBox="0 0 512 512" x="0px" y="0px"><g data-name="Out line"><path d="M488,120H464V88a40.04552,40.04552,0,0,0-40-40H335.19507A40.068,40.068,0,0,0,296,16H88A40.04552,40.04552,0,0,0,48,56V88.08252L23.917,88.333a8.00067,8.00067,0,0,0-7.917,8v96a8.00057,8.00057,0,0,0,7.9165,8L48,200.58447v15.498l-24.083.25049a8.00067,8.00067,0,0,0-7.917,8V272a8.00067,8.00067,0,0,0,7.917,8L48,280.25049V424a40.04552,40.04552,0,0,0,40,40h88.80493A40.068,40.068,0,0,0,216,496H424a40.04552,40.04552,0,0,0,40-40V312h24a8.00008,8.00008,0,0,0,8-8V256a8.00008,8.00008,0,0,0-8-8H464V232h24a8.00008,8.00008,0,0,0,8-8V128A8.00008,8.00008,0,0,0,488,120Zm-8,16v32H464V136ZM192,429.75391V114.24585l16,4V425.75391ZM64,400V80H80V400ZM365.75366,64l-4,16H246.24634l-4-16ZM344.84473,427.57812,355.05566,448H334.24634l-6.48511-25.94043A8.00005,8.00005,0,0,0,320,416H288a8.00005,8.00005,0,0,0-7.76123,6.05957L273.75366,448H252.94434l10.21093-20.42188a8.00091,8.00091,0,0,0-1.49853-9.23535l-8-8a7.99983,7.99983,0,0,0-9.23438-1.498L224,419.05615V380.94434l27.57764-13.78907A7.99869,7.99869,0,0,0,256,360V312a7.99869,7.99869,0,0,0-4.42236-7.15527L224,291.05566V252.94409l27.57764-13.78882A7.99869,7.99869,0,0,0,256,232V184a7.99869,7.99869,0,0,0-4.42236-7.15527L224,163.05591V124.94385l20.42236,10.21142a7.99984,7.99984,0,0,0,9.23438-1.498l8-8a8.00091,8.00091,0,0,0,1.49853-9.23535L252.94434,96h20.80932l6.48511,25.94043A8.00005,8.00005,0,0,0,288,128h32a8.00005,8.00005,0,0,0,7.76123-6.05957L334.24634,96h20.80932l-10.21093,20.42188a8.00091,8.00091,0,0,0,1.49853,9.23535l8,8a7.99984,7.99984,0,0,0,9.23438,1.498L384,124.94385v38.11206l-27.57764,13.78882A7.99869,7.99869,0,0,0,352,184v48a7.99869,7.99869,0,0,0,4.42236,7.15527L384,252.94409v38.11157l-27.57764,13.78907A7.99869,7.99869,0,0,0,352,312v48a7.99869,7.99869,0,0,0,4.42236,7.15527L384,380.94434v38.11181l-20.42236-10.21142a7.99983,7.99983,0,0,0-9.23438,1.498l-8,8A8.00091,8.00091,0,0,0,344.84473,427.57812ZM317.75378,448H290.24622l3.99987-16h19.50782ZM96,96h80V384H96Zm96-8a24.02718,24.02718,0,0,1,24-24h9.75366l4.02661,16.10645a24.03609,24.03609,0,0,0-21.67376,21.67431L192,97.75415Zm54.11133,30.11133L224,107.05591V104a8.00917,8.00917,0,0,1,8-8h3.05566ZM224,308.94434l16,8v38.11132l-16,8Zm0-128,16,8v38.11132l-16,8ZM290.24622,96h27.50756l-3.99987,16H294.24609ZM384,363.05566l-16-8V316.94434l16-8Zm0-128-16-8V188.94434l16-8Zm0-127.99975-22.11133,11.05542L372.94434,96H376a8.00917,8.00917,0,0,1,8,8ZM216,48H112V32H240V48ZM104,64h80.022a39.8336,39.8336,0,0,0-7.217,16H96V72A8.00917,8.00917,0,0,1,104,64Zm72,336v16H104a8.00917,8.00917,0,0,1-8-8v-8Zm-64,32h64v16H112Zm112,4.94434,22.11133-11.05567L235.05566,448H232a8.00917,8.00917,0,0,1-8-8ZM246.24634,464H361.75366l4,16H242.24634Zm126.698-16-11.05567-22.11133L384,436.94434V440a8.00917,8.00917,0,0,1-8,8ZM400,118.24585l16-4V429.75391l-16-4ZM432,136h16v32H432Zm0,128h16v32H432Zm0-16V232h16v16Zm0-32V184h16v32ZM448,88v32H432V88a39.79015,39.79015,0,0,0-8.022-24H424A24.02718,24.02718,0,0,1,448,88ZM392,64a24.02718,24.02718,0,0,1,24,24v9.75415l-16.10645,4.02661a24.0362,24.0362,0,0,0-21.67382-21.67431L382.24634,64H392ZM318.62378,48H303.19507a39.83278,39.83278,0,0,0-7.217-16H296A24.0384,24.0384,0,0,1,318.62378,48Zm-32,0H256V32h8A24.038,24.038,0,0,1,286.62378,48ZM88,32h8V49.37622A24.11333,24.11333,0,0,0,81.37616,64H64V56A24.02718,24.02718,0,0,1,88,32ZM32,104.25l16-.166v32.165l-16-.166Zm0,80.166V152.084l16,.16651v32.33227Zm0,79.667V232.25l16-.166v32.165ZM64,424v-8H81.37616A24.1149,24.1149,0,0,0,96,430.624V448H88A24.02718,24.02718,0,0,1,64,424Zm128,32v-9.75391l16.10651-4.02685a24.03631,24.03631,0,0,0,21.67376,21.67431L225.75366,480H216A24.02718,24.02718,0,0,1,192,456Zm192,24h-1.75366l-4.02661-16.10645a24.03642,24.03642,0,0,0,21.67382-21.67431L416,446.24609V456a24.02718,24.02718,0,0,1-24,24Zm40,0h-.022A39.7896,39.7896,0,0,0,432,456V312h16V456A24.02718,24.02718,0,0,1,424,480Zm56-216v32H464V264Zm-16-48V184h16v32Z"></path><rect x="328" y="152" width="16" height="16"></rect><path d="M320,184H288a8.00008,8.00008,0,0,0-8,8v32a8.00008,8.00008,0,0,0,8,8h32a8.00008,8.00008,0,0,0,8-8V192A8.00008,8.00008,0,0,0,320,184Zm-8,32H296V200h16Z"></path><circle cx="304" cy="160" r="8"></circle><circle cx="272" cy="160" r="8"></circle></g></svg>