<svg height='100px' width='100px'  fill="#000000" xmlns="http://www.w3.org/2000/svg" xmlns:xlink="http://www.w3.org/1999/xlink" xml:space="preserve" style="shape-rendering:geometricPrecision;text-rendering:geometricPrecision;image-rendering:optimizeQuality;" viewBox="0 0 0.332236 0.333709" x="0px" y="0px" fill-rule="evenodd" clip-rule="evenodd"><defs><style type="text/css">
   
    .fil0 {fill:#000000}
    .fil1 {fill:#000000;fill-rule:nonzero}
   
  </style></defs><g><g><path class="fil0" d="M0.16612 0.0770345c0.0178147,-0.0356374 0.0356334,-0.0534521 0.0712669,-0.0534521 0.0393421,0 0.0712708,0.0319248 0.0712708,0.0712669 0,0.0712708 -0.0712708,0.142538 -0.142538,0.213808 -0.0712708,-0.0712708 -0.142542,-0.142538 -0.142542,-0.213808 0,-0.0393421 0.0319288,-0.0712669 0.0712708,-0.0712669 0.0356334,0 0.0534521,0.0178147 0.0712708,0.0534521zm-0.0291296 0.0483183c0.00192911,-0.00142912 0.00160234,-0.00410625 0.00165352,-0.00623221 0.0126258,-0.00384247 0.0105196,-0.0113463 0.0247084,-0.00133069l0.0026732 0.00233068c-0.000940934,0.000251966 -0.00213777,0.000444877 -0.00295666,0.000905501 -0.00152754,0.000858258 -0.00227556,0.00357476 -0.00954713,0.00426373 -0.00279524,0.000267713 -0.00288186,-0.000818888 -0.00521647,0.00376373 -0.00259052,0.0106613 -0.00900383,0.0190943 -0.0200273,0.02111 -0.0294052,0.00537395 -0.019736,-0.0223934 -0.0494089,-0.00105904 -0.00458262,0.00329524 -0.00648811,0.00664559 -0.0144447,0.00940934l0.00168896 -0.00596843c-0.0011614,9.44871e-005 -0.000905501,0.000251966 -0.00201966,0.000338579l-0.00638969 0.000594481 0.00496057 -0.00596843c-0.0033976,-0.000102361 -0.00304721,-0.000165352 -0.0057834,-0.00167321 0.00775188,-0.00147636 0.0207793,-0.00640937 0.0281532,-0.00959437 0.00157872,-0.000681094 0.000433066,-0.00049212 0.00240155,-0.00109054 0.00208265,-0.000637788 0.00300784,-0.00160628 0.00521647,-0.00170864 0.00423617,-0.000196848 0.00442908,0.000275587 0.00843297,0.000275587 0.00488971,0 0.00385035,0.000165352 0.00912588,-0.000464561 -0.00216139,-0.000996051 -0.0184762,-0.000496057 -0.0204328,-0.00116534l-0.00504718 -0.00237005 0.00554324 -0.00163778c-0.000885816,-0.00114566 -0.00483853,-0.00207872 -0.0066889,-0.003185l-0.00561804 -0.00414956c0.00151967,-0.00160234 0.000976366,-0.00135825 0.00444877,-0.00106692 -0.00384247,-0.00411019 -0.00356295,-0.00185037 -0.00725188,-0.00799991 0.0024606,-0.000389759 0.0058582,0.00100786 0.0081377,0.00192124 -0.00401964,-0.00439365 -0.00819282,-0.00574009 -0.0103542,-0.00877155l-0.002311 -0.00429129c0.00248816,-0.000114172 0.00342516,0.000326768 0.00598812,0.000901564 -0.00259052,-0.00393302 -0.00563379,-0.00693693 -0.0084684,-0.0114526l0.0081062 0.000559048c-0.000724401,-0.00236611 -0.00886604,-0.00907076 -0.0100747,-0.0115707l-0.00165746 -0.0053897 0.00780306 0.00238186c-0.000519679,-0.00187006 -0.00688575,-0.00807864 -0.00838179,-0.00973217 -0.00432672,-0.00477947 -0.004122,-0.00496845 -0.0067637,-0.0108581 0.00476766,-0.000330705 0.02948,0.0152242 0.0358933,0.0200824 0.0208935,0.0154959 0.00818888,0.0268068 0.0413578,0.0434522 0.00321256,0.00161415 0.00299996,0.00276768 0.00255115,0.00644087zm0.0174014 -0.0074881c-0.00283461,-3.93696e-006 -0.00261414,-0.00248422 -0.00145668,-0.00279918 0.00134644,-0.000374011 0.00317319,0.000503931 0.00145668,0.00279918zm-0.0631685 -0.0280666c-0.00298422,0.00222045 -0.00541726,0.00401176 -0.00249603,0.00878336 0.00196454,0.00320469 0.0042716,0.00469286 0.00705503,0.00692118 -0.000456688,0.000326768 -0.00353933,0.00125589 -0.000968492,0.00507081 0.00386216,0.00501569 0.00743692,0.00799597 0.0121691,0.0121377 -0.0112125,-0.00732668 -0.0159014,-0.0122006 -0.0140235,-0.0169919 -0.00131495,-0.00295272 -0.00911407,-0.00703141 -0.00743298,-0.0125983 0.000374011,-0.00123621 0.00208659,-0.00240548 0.0033976,-0.00357476 -0.00139762,-0.000570859 -0.00215745,-0.00103148 -0.00310233,-0.00183856 -0.00308658,-0.00262989 -0.0038661,-0.0053582 -0.00575977,-0.00909438 0.000196848,0.000192911 0.00267713,0.00516529 0.00562592,0.0076377l0.00553537 0.0035472zm0.0436294 0.0279564c-0.00267713,0.000106298 -0.00978729,-0.00522828 -0.0117873,-0.00654323l-0.00172439 -0.00124408c-0.000744086,-0.000625977 -0.00100786,-0.000976366 -0.00170864,-0.0015866 -0.00776762,-0.00675189 -0.00964162,-0.0141022 -0.0146927,-0.0228108 -0.00223226,-0.00384641 -0.00564167,-0.00697236 -0.00917312,-0.00961012 -0.00229919,-0.00171652 -0.00296059,-0.0017677 -0.00309051,-0.00327555 -0.000232281,-0.00273619 0.000936997,-0.00232281 0.00324406,-0.00067322 0.00133069,0.000948808 0.00180707,0.00167321 0.00296453,0.00294485l-0.00655504 -0.0202557c0.000385822,5.11805e-005 0.00677157,0.00653142 0.00855502,0.0079251 -0.00229131,-0.00898021 -0.00574403,-0.0167281 -0.00932272,-0.0249131 0.00198423,-0.000244092 0.00829124,0.00941721 0.0106101,0.0120038 0.0137439,0.013799 0.0126652,0.0103227 0.0171022,0.0293461 0.0010866,0.00465349 0.00337004,0.011177 0.00407475,0.0153384 0.000196848,0.00117715 0.000413381,0.002248 0.000692905,0.00340547 0.00174014,0.00729519 0.00411412,0.00948808 0.00787392,0.0151849 0.00067322,0.00102361 0.0026732,0.00372437 0.00293697,0.00476372zm0.0186218 0.0834006c-0.00192911,-0.00142912 -0.00159841,-0.00410625 -0.00164959,-0.00623221 -0.0126258,-0.00383854 -0.0105196,-0.0113463 -0.0247123,-0.00133069l-0.00266926 0.00233068c0.000940934,0.000255902 0.00213383,0.000448814 0.00295666,0.000905501 0.00152754,0.000858258 0.00227556,0.00357476 0.00954319,0.00426373 0.00279918,0.000267713 0.00288186,-0.000814951 0.00521647,0.00376373 0.00259052,0.0106613 0.00900777,0.0190982 0.0200273,0.02111 0.0294091,0.00537395 0.019736,-0.0223934 0.0494128,-0.00105511 0.00457869,0.0032913 0.00648811,0.00664165 0.0144447,0.0094054l-0.00169289 -0.0059645c0.0011614,9.05501e-005 0.000909438,0.000248029 0.00201966,0.000334642l0.00639363 0.000598418 -0.00496451 -0.00597237c0.00340153,-0.000102361 0.00304721,-0.000165352 0.0057834,-0.00167321 -0.00774794,-0.00147636 -0.0207793,-0.00640937 -0.0281532,-0.00959437 -0.00157872,-0.000681094 -0.000429129,-0.00049212 -0.00240155,-0.00109054 -0.00208265,-0.000637788 -0.00300784,-0.00160628 -0.00521254,-0.00170864 -0.00424011,-0.000192911 -0.00442908,0.000275587 -0.00843297,0.000275587 -0.00488971,0 -0.00385429,0.000165352 -0.00912981,-0.000464561 0.00216139,-0.000996051 0.0184762,-0.00049212 0.0204328,-0.0011614l0.00505112 -0.00237005 -0.00554324 -0.00163778c0.000885816,-0.00114959 0.00483853,-0.00208265 0.00668496,-0.00318894l0.00562198 -0.00414562c-0.0015236,-0.00160628 -0.000980303,-0.00136219 -0.00444877,-0.00106692 0.00384247,-0.00411412 0.00355901,-0.00185037 0.00725188,-0.00800384 -0.00246454,-0.000389759 -0.0058582,0.00100786 -0.0081377,0.00192124 0.00401964,-0.00439365 0.00818888,-0.00574009 0.0103503,-0.00877155l0.002311 -0.00429129c-0.00248816,-0.000114172 -0.00342122,0.000330705 -0.00598812,0.000905501 0.00259446,-0.00393696 0.00563379,-0.00694086 0.00847234,-0.0114566l-0.00811014 0.000559048c0.000724401,-0.00236611 0.00886604,-0.00907076 0.0100786,-0.0115707l0.00165746 -0.0053897 -0.00780699 0.0023858c0.000523616,-0.00187399 0.00688575,-0.00807864 0.00838179,-0.00973611 0.00432672,-0.00477947 0.00412594,-0.00496451 0.0067637,-0.0108542 -0.00476372,-0.000330705 -0.02948,0.0152203 -0.0358893,0.0200785 -0.0208935,0.0154959 -0.00819282,0.0268068 -0.0413617,0.0434522 -0.00321256,0.00161415 -0.00299603,0.00276768 -0.00255115,0.00644087zm-0.0174014 -0.00748416c0.00283461,-7.87392e-006 0.00261808,-0.00248422 0.00145668,-0.00280312 -0.00134644,-0.000374011 -0.00317319,0.000503931 -0.00145668,0.00280312zm0.0631685 -0.0280705c0.00298422,0.00222045 0.00541726,0.00401176 0.00249603,0.0087873 -0.00196454,0.00320075 -0.0042716,0.00468892 -0.00705503,0.00691724 0.000456688,0.000326768 0.00353933,0.00125983 0.000968492,0.00507474 -0.00386216,0.00501175 -0.00743692,0.00799203 -0.0121652,0.0121337 0.0112085,-0.00732668 0.0159014,-0.0122006 0.0140195,-0.0169919 0.00131888,-0.00295272 0.009118,-0.00702748 0.00743298,-0.0125983 -0.000374011,-0.00123621 -0.00208659,-0.00240548 -0.0033976,-0.00357476 0.00139762,-0.000570859 0.00215745,-0.00102755 0.00310626,-0.00183856 0.00308658,-0.00262595 0.0038661,-0.0053582 0.00575977,-0.00909438 -0.000196848,0.000192911 -0.00268107,0.00516529 -0.00562592,0.0076377l-0.0055393 0.0035472zm-0.0436255 0.0279564c0.0026732,0.000106298 0.00978729,-0.00522435 0.0117833,-0.00654323l0.00172439 -0.00124408c0.000744086,-0.000625977 0.00100786,-0.000976366 0.00170864,-0.00158266 0.00777156,-0.00675583 0.00964162,-0.0141061 0.0146967,-0.0228147 0.00223226,-0.00384247 0.00563773,-0.00697236 0.00916918,-0.00961012 0.00230312,-0.00171652 0.00296453,-0.00176376 0.00309051,-0.00327555 0.000232281,-0.00273619 -0.00093306,-0.00232281 -0.00324012,-0.00067322 -0.00133069,0.000948808 -0.001811,0.00167321 -0.00296847,0.00294485l0.00655898 -0.0202557c-0.000389759,5.11805e-005 -0.00677551,0.00653142 -0.00855895,0.0079251 0.00229131,-0.00898021 0.00574403,-0.0167242 0.00932272,-0.0249131 -0.00198423,-0.000244092 -0.0082873,0.00941721 -0.0106101,0.0120038 -0.0137439,0.013799 -0.0126613,0.0103227 -0.0171022,0.0293461 -0.0010866,0.00465743 -0.0033661,0.011177 -0.00407082,0.0153423 -0.000200785,0.00117715 -0.000417318,0.002248 -0.000692905,0.00340153 -0.00174407,0.00729519 -0.00411412,0.00949201 -0.00787392,0.0151888 -0.000677157,0.00101967 -0.00267713,0.00372043 -0.00293697,0.00475979z"></path><path class="fil1" d="M0.166116 0.056771c0.00935422,-0.0177045 0.0189919,-0.0312831 0.0308146,-0.0407357 0.0133542,-0.0106849 0.0293028,-0.0160352 0.0504718,-0.0160352 0.0234013,0 0.0446097,0.00950776 0.0599639,0.024858l1.57478e-005 1.18109e-005c0.0153502,0.0153541 0.024854,0.0365586 0.024854,0.0599639 0,0.0415113 -0.0206139,0.0828376 -0.051523,0.124054 -0.0306847,0.0409129 -0.0713889,0.0816132 -0.112085,0.12231l-0.00251178 0.00251178 -0.00251178 -0.00251178c-0.0407003,-0.0407003 -0.0814085,-0.0814045 -0.112081,-0.12231 -0.0309091,-0.041216 -0.051523,-0.0825423 -0.051523,-0.124054 0,-0.0234052 0.00950382,-0.0446097 0.024854,-0.0599639l1.57478e-005 -1.18109e-005c0.0153541,-0.0153502 0.0365586,-0.024858 0.0599639,-0.024858 0.0211612,0 0.0371137,0.00534639 0.0504679,0.0160352 0.0118266,0.00945264 0.0214604,0.0230312 0.0308146,0.0407357zm0.0352279 -0.0352161c-0.0122361,0.00978729 -0.0221218,0.0246572 -0.0320626,0.0445388l-0.00316532 0.00633457 -0.00316532 -0.00633457c-0.00993689,-0.0198817 -0.0198226,-0.0347516 -0.0320626,-0.0445388 -0.0120314,-0.00963374 -0.0265824,-0.0144486 -0.0460546,-0.0144486 -0.0214604,0 -0.0408932,0.00870856 -0.05496,0.0227674 -0.0140628,0.0140668 -0.0227674,0.0335035 -0.0227674,0.05496 0,0.0397672 0.0200352,0.0797431 0.0500781,0.119806 0.0296493,0.039535 0.0691921,0.0792786 0.108932,0.119022 0.0397397,-0.0397436 0.0792825,-0.0794872 0.108936,-0.119022 0.030043,-0.0400625 0.0500781,-0.0800384 0.0500781,-0.119806 0,-0.0214564 -0.00870462,-0.0408932 -0.0227674,-0.05496 -0.0140668,-0.0140589 -0.0335035,-0.0227674 -0.05496,-0.0227674 -0.0194761,0 -0.0340232,0.0048149 -0.0460585,0.0144486z"></path></g></g></svg>