<svg height='100px' width='100px'  fill="#000000" xmlns="http://www.w3.org/2000/svg" xmlns:xlink="http://www.w3.org/1999/xlink" version="1.1" x="0px" y="0px" viewBox="0 0 100 100" enable-background="new 0 0 100 100" xml:space="preserve"><polygon points="34.471,52.592 9.483,68.203 5.711,68.335 1.906,64.387 3.318,57.007 13.095,54.886 14.842,56.617 11.705,57.308   5.078,59.048 4.032,63.931 6.823,65.674 11.707,64.278 34.383,48.929 42.058,46.835 54.617,44.742 66.827,40.325 69.968,38   73.106,38 75.549,36.399 77.294,36.036 79.038,33.586 81.131,33.233 81.479,31.047 82.526,32 86.016,32 86.714,31 89.853,31   92.295,29.89 93.342,30 94.388,30 95.086,31 97.527,31 98.227,31.679 99.621,32.839 99.271,34 98.924,34 98.227,36.087 97.877,38   97.527,38 97.18,37 94.736,37 93,38.113 93,42.998 95.176,42.406 92.643,46 90.201,46 89,45.439 89,42.998 84.803,39.858   83.142,36.718 84.229,40.207 88.786,43.346 88.448,44.394 86.708,44.742 87.06,51.371 85.318,53.813 86.962,59.395 90,63.231   90,65.325 94.375,69.163 97.521,68.813 98.92,70.559 98.224,73 92.294,72.651 76.945,58.348 66.13,59.047 60.897,56.952   53.571,56.254 45.547,58.348 39.267,63.58 28.104,66.021 26.359,68.813 28.453,70.559 27.755,72.303 23.22,73 21.824,71.953   23.568,63.929 28.453,61.837 33.686,56.952 37.872,51.021 41.361,48.579 37.174,50.673 36.128,52.068 "></polygon><polygon points="48.6,58.783 50.387,60.921 48.665,66.941 53.571,72 58,72 58,69.512 56.918,68.813 55.419,69.512 53.102,66.371   56.301,61.837 55.633,57.65 53.555,56.952 "></polygon><polygon points="66.827,60.18 73.455,59.438 71.363,64.649 72.061,68.825 74.154,69.168 75.201,70.758 74.853,72 69.27,72   67.526,66.83 "></polygon><path d="M-33,10"></path></svg>