<svg height='100px' width='100px'  fill="#000000" xmlns="http://www.w3.org/2000/svg" xmlns:xlink="http://www.w3.org/1999/xlink" viewBox="0 0 68 44" version="1.1" x="0px" y="0px"><title>mower, grass, lawn, tractor, cutter, machine</title><desc>Created with Sketch.</desc><g stroke="none" stroke-width="1" fill="none" fill-rule="evenodd"><g transform="translate(-416.000000, -547.000000)" fill="#000000" fill-rule="nonzero"><path d="M446.414214,558.414214 C445.633165,559.195262 444.366835,559.195262 443.585786,558.414214 C442.804738,557.633165 442.804738,556.366835 443.585786,555.585786 L449.585786,549.585786 C450.366835,548.804738 451.633165,548.804738 452.414214,549.585786 C453.195262,550.366835 453.195262,551.633165 452.414214,552.414214 L450.828427,554 L453.165971,556.337543 C453.277484,556.288711 453.392192,556.244516 453.509941,556.205267 C453.917807,556.069312 454.344923,556 454.774852,556 L474,556 C477.313708,556 480,558.686292 480,562 L480,576.070258 C482.391205,577.453495 484,580.038871 484,583 C484,587.418278 480.418278,591 476,591 C471.581722,591 468,587.418278 468,583 L460,583 L460,584 C460,587.313708 457.313708,590 454,590 L440,590 C436.686292,590 434,587.313708 434,584 L434,583 L432,583 C432,587.418278 428.418278,591 424,591 C419.581722,591 416,587.418278 416,583 C416,579.642622 418.06817,576.768292 421,575.581517 L421,562 C421,559.040212 423.143117,556.580975 425.962219,556.089421 L423.172377,549.812277 C422.723769,548.802909 423.178355,547.620985 424.187723,547.172377 C425.197091,546.723769 426.379015,547.178355 426.827623,548.187723 L430.299746,556 L435.645934,556 C437.281552,556 438.752387,556.995804 439.359841,558.514437 L444.354066,571 L454.225148,571 L450.980119,561.264911 C450.797807,560.717977 450.740212,560.159498 450.791906,559.620333 L448,556.828427 L446.414214,558.414214 Z M424,587 C426.209139,587 428,585.209139 428,583 C428,580.790861 426.209139,579 424,579 C421.790861,579 420,580.790861 420,583 C420,585.209139 421.790861,587 424,587 Z M476,587 C478.209139,587 480,585.209139 480,583 C480,580.790861 478.209139,579 476,579 C473.790861,579 472,580.790861 472,583 C472,585.209139 473.790861,587 476,587 Z M476,575 L476,562 C476,560.895431 475.104569,560 474,560 L454.774852,560 L458.019881,569.735089 C458.155837,570.142955 458.225148,570.570072 458.225148,571 C458.225148,573.209139 456.434287,575 454.225148,575 L444.354066,575 C442.718448,575 441.247613,574.004196 440.640159,572.485563 L435.645934,560 L427,560 C425.895431,560 425,560.895431 425,562 L425,575.062283 C427.503442,575.37601 429.690444,576.853266 430.930077,579 L469.069923,579 C470.472153,576.57169 473.086573,575 476,575 Z M438,583 L438,584 C438,585.104569 438.895431,586 440,586 L454,586 C455.104569,586 456,585.104569 456,584 L456,583 L438,583 Z"></path></g></g></svg>