<svg height='100px' width='100px'  fill="#000000" xmlns="http://www.w3.org/2000/svg" xmlns:xlink="http://www.w3.org/1999/xlink" version="1.1" x="0px" y="0px" viewBox="0 0 64 64" style="enable-background:new 0 0 64 64;" xml:space="preserve"><path d="M61.828,56.172C61.073,55.417,60.068,55,59,55c-0.036,0-0.07,0.009-0.105,0.01c0.404-2.206-0.463-4.889-2.452-7.032  c2.102-7.233-1.338-16.901-8.733-24.31c0.711-1.681,1.267-3.38,1.606-5.074c1.136-5.681-0.037-10.607-3.304-13.874  c-3.266-3.266-8.192-4.439-13.873-3.303c-5.534,1.107-11.154,4.289-15.825,8.96c-7.41,7.411-10.861,17.094-8.757,24.334  c-2,2.155-2.865,4.857-2.443,7.07c-1.074-0.029-2.159,0.339-2.942,1.123C1.416,43.66,1,44.665,1,45.733s0.416,2.073,1.172,2.828  c0.755,0.755,1.76,1.172,2.828,1.172s2.073-0.417,2.828-1.172C8.584,47.806,9,46.801,9,45.733c0-0.036-0.009-0.069-0.01-0.105  c0.354,0.065,0.719,0.102,1.094,0.102c1.957,0,4.133-0.887,5.93-2.552c1.324,0.385,2.746,0.594,4.25,0.611  c1.018,1.352,2.143,2.66,3.381,3.897c5.971,5.971,13.419,9.381,19.876,9.381c1.56,0,3.056-0.212,4.465-0.622  c1.797,1.666,3.973,2.553,5.93,2.553c0.375,0,0.74-0.037,1.094-0.102C55.009,58.931,55,58.965,55,59  c0,1.068,0.416,2.073,1.172,2.828C56.927,62.583,57.932,63,59,63s2.073-0.417,2.828-1.172C62.584,61.073,63,60.068,63,59  S62.584,56.927,61.828,56.172z M54.763,46.507c-1.147-0.808-2.406-1.354-3.669-1.565c-0.204-0.034-0.403-0.054-0.601-0.07  c-0.193-5.961-2.161-11.201-5.858-15.609c0.815-1.189,1.536-2.408,2.168-3.646C53.031,32.121,56.098,40.237,54.763,46.507z   M44.963,48.784c-6.982-0.154-12.201-2.923-16.07-6.705c4.091-1.602,8.025-4.223,11.462-7.66c1.113-1.113,2.134-2.282,3.07-3.488  c3.215,3.999,4.916,8.729,5.074,14.093c-0.856,0.219-1.614,0.636-2.227,1.248C45.593,46.951,45.157,47.811,44.963,48.784z   M47.354,18.202c-1.029,5.15-4.018,10.408-8.412,14.803c-3.458,3.457-7.434,6.024-11.538,7.486  c-1.099-1.257-2.072-2.587-2.933-3.946c15.361-3.611,20.786-20.128,22.383-26.916C47.809,12.048,48,14.972,47.354,18.202z   M38.711,23.886c-5.738-3.991-12.111-5.909-15.756-6.749c4.799-1.854,11.459-0.659,17.753,3.42  C40.116,21.674,39.449,22.791,38.711,23.886z M19.402,19.402c0.274-0.274,0.566-0.526,0.869-0.764  c2.187,0.379,10.316,2.049,17.276,6.876c-3.278,4.272-7.848,7.918-14.156,9.222c-3.369-6.054-4.666-12.174-5.013-14.117  C18.688,20.188,19.025,19.779,19.402,19.402z M45.359,7.018c-0.285,1.628-1.288,6.489-3.755,11.739  c-6.754-4.31-13.955-5.52-19.304-3.5c7.429-7.306,18.363-9.661,21.082-10.146c0.43,0.31,0.839,0.647,1.216,1.023  C44.874,6.411,45.118,6.713,45.359,7.018z M17.728,11.792c4.396-4.395,9.652-7.383,14.803-8.413  c2.984-0.597,5.702-0.475,8.007,0.298c-7.759,1.879-26.889,8.494-27.32,27.964c-1.334,0.166-2.714,0.729-3.978,1.616  C7.858,26.806,11.131,18.388,17.728,11.792z M7,45.733c0,0.534-0.208,1.036-0.586,1.414c-0.756,0.756-2.072,0.756-2.828,0  C3.208,46.769,3,46.267,3,45.733s0.208-1.037,0.586-1.415c0.378-0.377,0.88-0.585,1.414-0.585s1.036,0.208,1.414,0.585  C6.792,44.696,7,45.199,7,45.733z M7.828,42.904c-1.532-1.533-0.885-4.771,1.414-7.071c1.796-1.796,4.192-2.611,5.908-2.079  c0.43,1.515,1.01,3.027,1.729,4.516c-0.352,1.14-1.029,2.269-1.98,3.22C12.599,43.789,9.361,44.437,7.828,42.904z M17.48,41.488  c0.221-0.315,0.431-0.633,0.611-0.963c0.231,0.393,0.47,0.785,0.72,1.173C18.356,41.648,17.912,41.58,17.48,41.488z M25.059,46.272  c-4.395-4.395-7.383-9.652-8.412-14.803c-0.597-2.982-0.474-5.7,0.297-8.005c1.88,7.76,8.495,26.887,27.962,27.318  c0.013,0.104,0.019,0.206,0.036,0.311c0.211,1.264,0.757,2.523,1.565,3.67C40.057,56.136,31.65,52.863,25.059,46.272z   M49.101,54.757c-1.176-1.176-1.952-2.594-2.186-3.993c-0.212-1.275,0.062-2.369,0.771-3.079c0.553-0.553,1.338-0.841,2.261-0.841  c0.262,0,0.535,0.023,0.817,0.07c1.398,0.233,2.816,1.01,3.993,2.186c2.3,2.3,2.947,5.538,1.414,7.071  C54.637,57.705,51.399,57.056,49.101,54.757z M60.414,60.414c-0.756,0.756-2.072,0.756-2.828,0C57.208,60.036,57,59.534,57,59  s0.208-1.036,0.586-1.414S58.466,57,59,57s1.036,0.208,1.414,0.586S61,58.466,61,59S60.792,60.036,60.414,60.414z"></path></svg>