<svg height='100px' width='100px'  fill="#000000" xmlns="http://www.w3.org/2000/svg" viewBox="0 0 512 512" x="0px" y="0px"><title>cannabidiol-cbd-dropper-oil-Marijuana</title><g><path d="M104,376a10,10,0,0,0,8-16l-8-10.667L96,360a10,10,0,0,0,8,16Z"></path><path d="M32,462a18.021,18.021,0,0,0,18,18H158a18.021,18.021,0,0,0,18-18V424H32Z"></path><path d="M72,144H88v32h8V144h16v32h8V144h16v32h16V130a2,2,0,0,0-2-2h-5.977L144,128l-.025,0H58a2,2,0,0,0-2,2v46H72Z"></path><path d="M129.848,102.84A35.925,35.925,0,0,1,128,91.456V56a24,24,0,0,0-48,0V91.456a35.925,35.925,0,0,1-1.848,11.384L75.1,112h57.8Z"></path><rect x="48" y="192" width="112" height="16"></rect><path d="M32,408H176V312H32Zm51.2-57.6,14.4-19.2a8,8,0,0,1,12.8,0l14.4,19.2a26,26,0,1,1-41.6,0Z"></path><path d="M166.4,260.8l-12.8-9.6A24.116,24.116,0,0,1,144,232v-8H64v8a24.116,24.116,0,0,1-9.6,19.2l-12.8,9.6a23.745,23.745,0,0,0-3.468,3.2H56a8,8,0,0,1,0,16H32v16H176V280A24.116,24.116,0,0,0,166.4,260.8ZM104,280H88a8,8,0,0,1,0-16h16a8,8,0,0,1,0,16Z"></path><path d="M296,104a182.709,182.709,0,0,0-128,51.833V176a8,8,0,0,1,8,8v32a8,8,0,0,1-8,8h-8v8a8.039,8.039,0,0,0,3.2,6.4L176,248a40.191,40.191,0,0,1,16,32v40.353a166.8,166.8,0,0,1,82.234,8.978A234.074,234.074,0,0,1,198.99,223.644l-7.051-20.068,2.417,1.4a234.062,234.062,0,0,1,91.928,97.935A223.316,223.316,0,0,1,303.939,152C328,198.21,334.077,251.406,321.87,302.477a234.067,234.067,0,0,1,91.713-97.5l2.417-1.4-7.051,20.068a234.079,234.079,0,0,1-75.244,105.687,166.737,166.737,0,0,1,106.584-3.644L448,328l-21.767,9.674a166.729,166.729,0,0,1-85.548,13.408,89.963,89.963,0,0,1,48.848,43.983L392,400l-15.057-2.51a89.96,89.96,0,0,1-54.323-31.147l-10.681-12.816V432a8,8,0,0,1-16,0V353.6l-10.62,12.743A89.96,89.96,0,0,1,231,397.49L215.939,400l2.467-4.935a89.963,89.963,0,0,1,48.848-43.983A166.757,166.757,0,0,1,192,341.823v97.984A182.653,182.653,0,0,0,296,472c101.458,0,184-82.542,184-184S397.458,104,296,104Z"></path></g></svg>