<svg height='100px' width='100px'  fill="#000000" xmlns="http://www.w3.org/2000/svg" xmlns:xlink="http://www.w3.org/1999/xlink" version="1.1" x="0px" y="0px" viewBox="0 0 31.172 21" style="enable-background:new 0 0 31.172 21;" xml:space="preserve"><g><path d="M24.009,14.234L24,14.236v2.562C22.667,16.256,20.829,16,19,16c-1.561,0-3.543,0.246-5,0.84V3.085   C14.294,2.737,16.011,2,19,2s4.706,0.737,5,1.085v2.673l2-2V3c0-2.072-3.516-3-7-3c-2.35,0-4.71,0.424-6,1.335   C11.71,0.424,9.35,0,7,0C3.516,0,0,0.928,0,3v15v1v1h10c0,0.553,1.343,1,3,1s3-0.447,3-1h10v-1v-1v-5.757l-1.777,1.777   L24.009,14.234z"></path><path d="M30.586,3.414c-0.391-0.391-0.902-0.586-1.414-0.586s-1.023,0.195-1.414,0.586l-7.07,7.07l-0.707,3.536l3.535-0.707   l7.07-7.071C31.367,5.461,31.367,4.195,30.586,3.414z M22.102,11.898l-0.707-0.707l7.071-7.071l0.708,0.707L22.102,11.898z"></path></g></svg>