<svg height='100px' width='100px'  fill="#000000" xmlns="http://www.w3.org/2000/svg" xmlns:xlink="http://www.w3.org/1999/xlink" version="1.1" x="0px" y="0px" viewBox="0 0 100 100" enable-background="new 0 0 100 100" xml:space="preserve"><g><path fill="#000000" d="M11.5,18.438v52H44v12.125h12V70.438h32.5v-52H11.5z M22.167,65.854h-6v-6h6V65.854z M22.167,53.854h-6v-6   h6V53.854z M22.167,41.854h-6v-6h6V41.854z M22.167,29.854h-6v-6h6V29.854z M34.667,28.854h4v4h-4V28.854z M42.667,60.187h-4v-4h4   V60.187z M51.593,52.109c-5.012-0.101-8.993-4.245-8.892-9.257c0.074-3.678,2.327-6.799,5.502-8.161   c-0.54,1.13-0.855,2.39-0.882,3.723c-0.101,5.012,3.88,9.156,8.892,9.257c1.334,0.027,2.605-0.238,3.756-0.731   C58.479,50.057,55.271,52.183,51.593,52.109z M65.333,36.854h-4v-4h4V36.854z M83.833,65.854h-6v-6h6V65.854z M83.833,53.854h-6v-6   h6V53.854z M83.833,41.854h-6v-6h6V41.854z M83.833,29.854h-6v-6h6V29.854z"></path></g></svg>