<svg height='100px' width='100px'  fill="#000000" xmlns="http://www.w3.org/2000/svg" xmlns:xlink="http://www.w3.org/1999/xlink" xml:space="preserve" version="1.1" style="shape-rendering:geometricPrecision;text-rendering:geometricPrecision;image-rendering:optimizeQuality;" viewBox="0 0 9600 3199" x="0px" y="0px" fill-rule="evenodd" clip-rule="evenodd"><defs><style type="text/css">
   
    .fil0 {fill:#000000}
   
  </style></defs><g><path class="fil0" d="M4283 260c0,0 -2548,-568 -4214,-26 -96,217 -64,651 -64,651 696,13 287,1073 677,1698 498,638 2018,881 2873,230 855,-651 677,-1928 1162,-1826 56,12 110,12 166,0 485,-102 307,1175 1162,1826 856,651 2375,409 2873,-230 389,-626 -19,-1686 677,-1698 0,0 32,-434 -64,-651 -1666,-543 -4214,26 -4214,26 -345,0 -689,0 -1034,0z"></path></g></svg>