<svg height='100px' width='100px'  fill="#000000" xmlns="http://www.w3.org/2000/svg" xmlns:xlink="http://www.w3.org/1999/xlink" version="1.1" x="0px" y="0px" viewBox="0 0 64 64" style="enable-background:new 0 0 64 64;" xml:space="preserve"><g><circle cx="32" cy="29.007" r="1"></circle><path d="M41.335,30.007l-0.963-2h-5.556c0.112,0.314,0.184,0.648,0.184,1s-0.072,0.686-0.184,1H41.335z"></path><path d="M23.628,28.007l-0.963,2h6.519c-0.112-0.314-0.184-0.648-0.184-1s0.072-0.686,0.184-1H23.628z"></path><path d="M22.419,15.144l1.456,10.863h16.25l1.46-10.896c0.291-2.918,1.188-5.721,2.659-8.296l1.303-2.28l-4.501-1.527h-0.105   C40.555,6.478,38.188,9.35,35,10.482v6.939l-3,3l-3-3v-6.939c-3.178-1.129-5.539-3.987-5.936-7.442l-4.591,1.53l1.283,2.245   C21.228,9.39,22.124,12.193,22.419,15.144z"></path><path d="M14.566,19.007h6.353l-0.487-3.631c-0.271-2.704-1.081-5.239-2.413-7.569l-1.481-2.592l-1.12,0.373   C13.374,6.27,12,8.176,12,10.332c0,2.878,0.782,5.703,2.263,8.17L14.566,19.007z"></path><path d="M31,10.948v5.645l1,1l1-1v-5.645c-0.329,0.037-0.662,0.059-1,0.059S31.329,10.985,31,10.948z"></path><path d="M32,9.007c3.519,0,6.432-2.614,6.92-6H25.08C25.568,6.394,28.481,9.007,32,9.007z"></path><path d="M43.081,19.007h6.353l0.304-0.506c1.48-2.467,2.263-5.292,2.263-8.17c0-2.168-1.364-4.07-3.394-4.759l-1.13-0.383   L45.98,7.807c-1.332,2.33-2.143,4.865-2.409,7.536L43.081,19.007z"></path><path d="M42.298,32.007H21.702L11.268,53.68C11.093,54.043,11,54.449,11,54.852c0,1.179,0.758,2.212,1.886,2.57   c1.352,0.43,2.292,1.114,3.202,1.776c1.334,0.971,2.486,1.809,4.911,1.809c2.423,0,3.575-0.838,4.908-1.809   c1.412-1.027,3.013-2.191,6.087-2.191c3.076,0,4.678,1.164,6.09,2.191c1.335,0.971,2.488,1.809,4.913,1.809   c2.426,0,3.578-0.838,4.913-1.809c0.911-0.662,1.853-1.347,3.204-1.776C52.242,57.064,53,56.031,53,54.852   c0-0.403-0.093-0.809-0.268-1.172L42.298,32.007z M20,59.007c-0.552,0-1-0.448-1-1c0-0.552,0.448-1,1-1s1,0.448,1,1   C21,58.56,20.552,59.007,20,59.007z M21.978,55.217l-1.955-0.42l3-14l1.955,0.42L21.978,55.217z M32,55.007c-0.552,0-1-0.448-1-1   c0-0.552,0.448-1,1-1s1,0.448,1,1C33,54.56,32.552,55.007,32,55.007z M33,51.007h-2v-12h2V51.007z M42.022,55.217l-3-14l1.955-0.42   l3,14L42.022,55.217z M44,59.007c-0.552,0-1-0.448-1-1c0-0.552,0.448-1,1-1s1,0.448,1,1C45,58.56,44.552,59.007,44,59.007z"></path><path d="M58.465,13.007c-0.678,0-1.314,0.264-1.793,0.742L55,15.421l-1.391-1.391c-0.384,1.82-1.055,3.568-1.984,5.188L55,22.593   l5.258-5.258C60.736,16.857,61,16.22,61,15.542C61,14.145,59.862,13.007,58.465,13.007z"></path><path d="M15,32.542c0-1.397-1.138-2.535-2.535-2.535c-0.678,0-1.314,0.264-1.793,0.742L9,32.421l-1.672-1.672   c-0.479-0.479-1.115-0.742-1.793-0.742C4.138,30.007,3,31.145,3,32.542c0,0.678,0.264,1.314,0.742,1.793L9,39.593l5.258-5.258   C14.736,33.857,15,33.22,15,32.542z"></path></g></svg>