<svg height='100px' width='100px'  fill="#000000" xmlns="http://www.w3.org/2000/svg" data-name="Слой 1" viewBox="0 0 128 128" x="0px" y="0px"><title>ic_charity</title><path d="M124.73,57.7c0-3.28-5.14-9.08-11.16-15.1s-5.79-10.52-4.6-14c1.6-4.67,9.42-23.23,11.45-28.6L75.16,0a111.54,111.54,0,0,1-5.41,13C65.8,21.41,64,24.77,64,30.78v0c0-6-1.8-9.38-5.75-17.73A111.55,111.55,0,0,1,52.84,0L9,0C11,5.4,17.42,23.9,19,28.56c1.2,3.49,1.42,8-4.6,14S3.27,54.39,3.27,57.67v28c0,4.16-2.16,11.63,0,12.69,6.89,3.39,11.82-4.6,12.91-11.38a64.8,64.8,0,0,0,1.09-10.76l.93,1.31c2.19,5.61,7.63,19.55,9.36,23.89,2.19,5.47,5,7.66,7.44,12.26s10.07,17.07,14.66,12.47a4.58,4.58,0,0,0,1.26-2.32C52.52,126.36,55,129,59,127c2-1,2-4,1-6,0,0,1.86,4,4,4s4-4,4-4c-1,3-.18,5.22,1,6,3,2,6.06-.53,8-3.43a4.6,4.6,0,0,0,1.32,2.64c4.6,4.6,12.26-7.88,14.66-12.47s5.25-6.78,7.44-12.26l9.9-24.76.38-.54A64.41,64.41,0,0,0,111.82,87c1.09,6.78,6,14.77,12.91,11.38,2.16-1.06,0-8.54,0-12.69ZM68.15,111l-2.8,2.08-1.19.9-1.2-.89-2.51-1.84C47.74,102,24.11,84.77,24.11,61.95A20.95,20.95,0,0,1,64,53a20.95,20.95,0,0,1,39.89,8.93C103.89,84.6,80.64,101.77,68.15,111Z"></path></svg>