<svg height='100px' width='100px'  fill="#000000" xmlns="http://www.w3.org/2000/svg" xmlns:xlink="http://www.w3.org/1999/xlink" version="1.1" x="0px" y="0px" viewBox="0 0 1024 1024" style="enable-background:new 0 0 1024 1024;" xml:space="preserve"><g><path d="M943.9,816.5V326c-2.3,0-4.5,0-6.8,0H80.2v488.8c0,3.1-0.1,6.2,0,9.3c0.4,15.3,11.8,26.7,27.1,27   c10.5,0.2,21,0,31.5,0h775.3c3.1,0,6.1,0,9.3-0.7c12.2-3,20-13.5,20.5-25.9C944,821.7,943.9,819.1,943.9,816.5z M388.6,685.1   c7.7,8.1,7.5,20.1,0,28.3c-7.2,7.8-21.1,7.6-28.3,0c-4.3-4.5-8.6-9-12.9-13.6c-30.6-32.2-61.1-64.5-91.7-96.7   c-7.6-8-7.6-20.3,0-28.3c4.3-4.5,8.6-9.1,12.9-13.6c30.6-32.2,61.1-64.5,91.7-96.7c7.7-8.1,20.5-7.2,28.3,0   c8.1,7.4,7.2,20.7,0,28.3c-4.3,4.5-8.6,9.1-12.9,13.6c-26.1,27.5-52.2,55-78.3,82.5C327.8,621,358.2,653.1,388.6,685.1z M595,441.9   c-5.3,12.6-10.5,25.1-15.7,37.7c-22.8,54.5-45.6,109.1-68.4,163.6c-14.4,34.5-28.8,68.9-43.2,103.4c-4.3,10.4-12.9,16.6-24.6,14   c-9.6-2.2-18-14.9-14-24.6c5.3-12.6,10.5-25.1,15.7-37.7c22.8-54.5,45.6-109.1,68.4-163.6c14.4-34.5,28.8-68.9,43.2-103.4   c4.3-10.4,12.9-16.6,24.6-14C590.6,419.5,599,432.3,595,441.9z M768.4,603.1c-4.3,4.5-8.6,9.1-12.9,13.6   c-30.6,32.2-61.1,64.5-91.7,96.7c-7.7,8.1-20.5,7.2-28.3,0c-8.1-7.4-7.2-20.7,0-28.3c4.3-4.5,8.6-9.1,12.9-13.6   c26.1-27.5,52.2-55,78.3-82.5c-30.4-32-60.8-64.1-91.2-96.1c-7.7-8.1-7.5-20.1,0-28.3c7.2-7.8,21.1-7.6,28.3,0   c4.3,4.5,8.6,9.1,12.9,13.6c30.6,32.2,61.1,64.5,91.7,96.7C776,582.9,776,595.1,768.4,603.1z"></path><path d="M943.9,200.2c-0.3-15.3-11.6-26.6-26.8-27.1c-2.4-0.1-4.8,0-7.1,0H115.7c-2.8,0-5.5,0-8.3,0   c-15.2,0.3-26.7,11.5-27.3,26.7c-0.3,9,0,18,0,26.9v59.2c5,0,10,0.1,15,0.1h848.7v-56.1C943.9,219.9,944,210,943.9,200.2z    M154,249.9c-11.4,0-20.7-9.3-20.7-20.7c0-11.4,9.3-20.7,20.7-20.7s20.7,9.3,20.7,20.7C174.7,240.6,165.5,249.9,154,249.9z    M217.8,249.9c-11.4,0-20.7-9.3-20.7-20.7c0-11.4,9.3-20.7,20.7-20.7c11.4,0,20.7,9.3,20.7,20.7   C238.5,240.6,229.2,249.9,217.8,249.9z M281.6,249.9c-11.4,0-20.7-9.3-20.7-20.7c0-11.4,9.3-20.7,20.7-20.7   c11.4,0,20.7,9.3,20.7,20.7C302.3,240.6,293,249.9,281.6,249.9z"></path></g></svg>