<svg height='100px' width='100px'  fill="#1A1A1A" xmlns="http://www.w3.org/2000/svg" data-name="Layer 1" viewBox="0 0 128 128" x="0px" y="0px"><title>43 town 1 final solid black</title><circle cx="62.5" cy="93.5" r="0.5"></circle><path d="M59,94H47a.5.5,0,0,1,0-1H59a.5.5,0,0,1,0,1Z"></path><circle cx="62.5" cy="90.5" r="0.5"></circle><path d="M59,91H47a.5.5,0,0,1,0-1H59a.5.5,0,0,1,0,1Z"></path><circle cx="111.5" cy="93.5" r="0.5"></circle><path d="M127,94H115a.5.5,0,0,1,0-1h12a.5.5,0,0,1,0,1Z"></path><circle cx="111.5" cy="90.5" r="0.5"></circle><path d="M127,91H115a.5.5,0,0,1,0-1h12a.5.5,0,0,1,0,1Z"></path><circle cx="25.5" cy="79.5" r="0.5"></circle><path d="M41,80H29a.5.5,0,0,1,0-1H41a.5.5,0,0,1,0,1Z"></path><circle cx="25.5" cy="76.5" r="0.5"></circle><path d="M41,77H29a.5.5,0,0,1,0-1H41a.5.5,0,0,1,0,1Z"></path><path d="M40,68.5H1a.5.5,0,0,1,0-1H40a.5.5,0,0,1,0,1Z"></path><path d="M114,32.5H60a.5.5,0,0,1,0-1h54a.5.5,0,0,1,0,1Z"></path><path d="M46,99H42a1,1,0,0,1,0-2h4a1,1,0,0,1,0,2Z"></path><path d="M122,51.22V51h-.09a1.85,1.85,0,0,0-.32-.42l-9.1-9.16a4.83,4.83,0,0,0-1.4-.92H114a.5.5,0,0,0,0-1H60a.5.5,0,0,0,0,1h2.91a4.83,4.83,0,0,0-1.4.92l-9.1,9.16a1.85,1.85,0,0,0-.32.42H52v.22a.56.56,0,0,0,0,.35v5.14A2.35,2.35,0,0,0,54.4,59h1.2A2.35,2.35,0,0,0,58,56.71V52h2v4.71A2.35,2.35,0,0,0,62.4,59h1.2A2.35,2.35,0,0,0,66,56.71V52h2v4.71A2.35,2.35,0,0,0,70.4,59h1.2A2.35,2.35,0,0,0,74,56.71V52h2v4.71A2.35,2.35,0,0,0,78.4,59h1.2A2.35,2.35,0,0,0,82,56.71V52h2v4.71A2.35,2.35,0,0,0,86.4,59h1.2A2.35,2.35,0,0,0,90,56.71V52h2v4.71A2.35,2.35,0,0,0,94.4,59h1.2A2.35,2.35,0,0,0,98,56.71V52h2v4.71A2.35,2.35,0,0,0,102.4,59h1.2a2.35,2.35,0,0,0,2.4-2.29V52h2v4.71A2.35,2.35,0,0,0,110.4,59h1.2a2.35,2.35,0,0,0,2.4-2.29V52h2v4.71A2.35,2.35,0,0,0,118.4,59h1.2a2.35,2.35,0,0,0,2.4-2.29V51.57A.56.56,0,0,0,122,51.22ZM57,56.71A1.35,1.35,0,0,1,55.6,58H54.4A1.35,1.35,0,0,1,53,56.71V52h4Zm.65-6.07a.5.5,0,0,0-.15.35H53.4l8.81-8.88A4.59,4.59,0,0,1,64.91,41h2.34ZM73,56.71A1.35,1.35,0,0,1,71.6,58H70.4A1.35,1.35,0,0,1,69,56.71V52h4Zm.08-6.07a.5.5,0,0,0-.15.35H66.42l10-10h6.31ZM89,56.71A1.35,1.35,0,0,1,87.6,58H86.4A1.35,1.35,0,0,1,85,56.71V52h4ZM92,51H81.86L87,45.83,92.14,51Zm6,0H93.35a.5.5,0,0,0-.15-.35l-5.5-5.52L90.86,42l9,9Zm7,5.71A1.35,1.35,0,0,1,103.6,58h-1.2a1.35,1.35,0,0,1-1.4-1.29V52h4ZM114,51h-5.22a.5.5,0,0,0-.15-.35L99,41h6.31l10,10Zm7,5.71A1.35,1.35,0,0,1,119.6,58h-1.2a1.35,1.35,0,0,1-1.4-1.29V52h4Z"></path><path d="M86.15,84.63l-5.67-14.7A3.19,3.19,0,0,0,80,66.4a3.32,3.32,0,0,0-2.24-1.18,2.82,2.82,0,0,0-1.76.43,3.45,3.45,0,0,0-.33-.46A3.32,3.32,0,0,0,73.46,64a2.77,2.77,0,0,0-2.05.64c-.05,0-.09.1-.14.15a2.45,2.45,0,0,0-3.4-.21,2.49,2.49,0,0,0-.36,3.4,3.1,3.1,0,0,0,0,4.14,3.38,3.38,0,0,0,.4.41A3.13,3.13,0,0,0,68,76.62a3.32,3.32,0,0,0,2.24,1.18h.25a2.84,2.84,0,0,0,.91-.15l13.5,8a1.91,1.91,0,0,0,.91.32C86.33,86,86.49,85.5,86.15,84.63Zm-6.4-13.81,1.09,2.83-5.85,5-2.6-1.54ZM68.27,68.64a2.46,2.46,0,0,0,3.54-3,1.7,1.7,0,0,1,.25-.28A1.76,1.76,0,0,1,73.37,65a2.31,2.31,0,0,1,1.55.83,2.41,2.41,0,0,1,.44.78,8.56,8.56,0,0,1-2.64,3.3A10.93,10.93,0,0,1,68.94,72a2.39,2.39,0,0,1-.65-.54A2.1,2.1,0,0,1,68.27,68.64ZM79.82,81.49l3.05-2.6,2.2,5.72Z"></path><path d="M106.48,72.13a3.1,3.1,0,0,0,0-4.14,2.49,2.49,0,0,0-.36-3.4,2.45,2.45,0,0,0-3.4.21s-.08-.11-.14-.15a2.77,2.77,0,0,0-2.05-.64,3.32,3.32,0,0,0-2.24,1.18,3.53,3.53,0,0,0-.33.46,2.82,2.82,0,0,0-1.76-.43A3.32,3.32,0,0,0,94,66.4a3.19,3.19,0,0,0-.46,3.52l-5.67,14.7c-.34.88-.18,1.38.33,1.38a1.91,1.91,0,0,0,.91-.32l13.5-8a2.84,2.84,0,0,0,.91.15h.25A3.32,3.32,0,0,0,106,76.62a3.13,3.13,0,0,0,.08-4.08A3.46,3.46,0,0,0,106.48,72.13ZM99,78.62l-5.85-5,1.09-2.83,7.36,6.27Zm-10.08,6,2.2-5.72,3.05,2.6Zm16.78-13.12a2.39,2.39,0,0,1-.65.54,10.93,10.93,0,0,1-3.8-2.12,8.57,8.57,0,0,1-2.63-3.3,2.43,2.43,0,0,1,.44-.77,2.31,2.31,0,0,1,1.56-.83,1.76,1.76,0,0,1,1.32.41,1.7,1.7,0,0,1,.25.28,2.49,2.49,0,0,0,.73,2.7,2.42,2.42,0,0,0,2.8.26A2.1,2.1,0,0,1,105.71,71.48Z"></path><path d="M124,23H50a4,4,0,0,0-4,4V99H85.18a11,11,0,0,0,21.64,0H126a2,2,0,0,0,2-2V27A4,4,0,0,0,124,23ZM98.23,99A3,3,0,1,1,99,97,3,3,0,0,1,98.23,99ZM126,97H107a11,11,0,0,0-22,0H48V27a2,2,0,0,1,2-2H124a2,2,0,0,1,2,2Z"></path><path d="M39,29,12.08,29h0a3.72,3.72,0,0,0-3.46,2.68L.05,64.76A1,1,0,0,0,0,65a3,3,0,0,0,0,.4V93.92A5,5,0,0,0,5,99h7.19a11,11,0,0,0,21.62,0H42V32A3,3,0,0,0,39,29ZM7.5,56a.5.5,0,1,1-.5.5A.5.5,0,0,1,7.5,56ZM26.89,41.22,20,55.22a.5.5,0,1,1-.9-.44l6.89-14a.5.5,0,1,1,.9.44Zm.33,3.12a.5.5,0,0,1,.23.67l-4,8.21a.5.5,0,0,1-.9-.44l4-8.21A.5.5,0,0,1,27.22,44.34Zm-3.73-1.11-4,8.21a.5.5,0,0,1-.9-.44l4-8.21a.5.5,0,1,1,.9.44ZM23,100a3,3,0,1,1,3-3A3,3,0,0,1,23,100ZM40,64.37V97H34a11,11,0,0,0-22,0H5a3,3,0,0,1-3-3.08V65.39a1,1,0,0,1,1-1H40Zm-3.5-2V34.5H13.89L8.48,54.78a.5.5,0,1,1-1-.26L13,33.87a.5.5,0,0,1,.48-.37H37a.5.5,0,0,1,.5.5V62.35Z"></path></svg>