<svg height='100px' width='100px'  fill="#000000" xmlns:dc="http://purl.org/dc/elements/1.1/" xmlns:cc="http://creativecommons.org/ns#" xmlns:rdf="http://www.w3.org/1999/02/22-rdf-syntax-ns#" xmlns:svg="http://www.w3.org/2000/svg" xmlns="http://www.w3.org/2000/svg" xmlns:sodipodi="http://sodipodi.sourceforge.net/DTD/sodipodi-0.dtd" xmlns:inkscape="http://www.inkscape.org/namespaces/inkscape" version="1.1" x="0px" y="0px" viewBox="0 0 100 100"><g transform="translate(0,-952.36218)"><path style="color:#000000;enable-background:accumulate;" d="m 48.03262,963.36216 c -7.86374,6 -21.93722,21 -20.9542,39.00004 0.913,8.3598 8.61154,15.8528 17.58154,19.2812 1.83528,2.5587 4.22911,5.2912 7.18251,8.4063 -10.32714,6.0554 -11.41225,1.1815 -29.85427,-5.6875 9.05381,2.3843 13.91112,5.2206 17.76891,6.7812 -1.18502,-8.4254 -7.16724,-9.6541 -14.77099,-12.7812 -2.49826,-0.75 -4.4969,-1.0679 -6.24566,-1.0312 -5.24631,0.1098 -8.04426,3.4329 -13.74046,8.0312 7.18513,4.3278 7.5032,10.6564 13.64677,11.0938 4.83262,0.5281 10.03275,-2.5465 16.70715,-3.125 6.13244,2.8989 12.97036,2.243 18.98682,-0.7188 0.0822,0.084 0.16683,0.1657 0.24982,0.25 -0.77447,2.48 -1.6081,5.2674 -2.56072,8.5 l 3.99722,-0.5 c 2.77851,-11.4855 4.01043,-17.0046 7.36989,-21.75 7.47762,-3.5924 16.19279,-2.3173 20.92297,-4.1562 5.82105,-2.0137 4.85902,-8.0526 10.68008,-14.0938 -5.57619,-2.4719 -10.27241,-5.37704 -15.83276,-5.50004 -3.33621,-0.074 -6.97004,0.857 -11.33587,3.50004 -6.36732,4.8613 -9.71008,10.9162 -8.61902,19.5312 3.14815,-4.3568 11.8608,-9.8378 17.80014,-11.5312 -5.28116,4.6853 -14.04902,3.7454 -21.20402,22.2188 -15.13994,-14.1269 -15.51528,-21.3393 -14.771,-40.81264 0.74155,14.83804 1.34671,22.44064 7.43234,31.56264 4.0843,-6.1433 7.22372,-12.1922 8.08814,-17.4688 1.96593,-17.00004 -2.62753,-27.00004 -8.52533,-39.00004 z" fill="#000000" stroke="none" marker="none" visibility="visible" display="inline" overflow="visible"></path></g></svg>