<svg height='100px' width='100px'  fill="#000000" xmlns:x="http://ns.adobe.com/Extensibility/1.0/" xmlns:i="http://ns.adobe.com/AdobeIllustrator/10.0/" xmlns:graph="http://ns.adobe.com/Graphs/1.0/" xmlns="http://www.w3.org/2000/svg" xmlns:xlink="http://www.w3.org/1999/xlink" version="1.1" x="0px" y="0px" viewBox="0 0 100 100" enable-background="new 0 0 100 100" xml:space="preserve"><g><g i:extraneous="self"><g><path d="M47,48.3c3.9,2.7,7.8,5.3,11.7,8c2.2-0.8,4.3-1.7,6.4-2.5c-3.6-2.5-7.2-4.9-10.8-7.4C51.8,47.1,49.4,47.7,47,48.3z"></path><path d="M21.4,24c-3.2,0.1-6.4,0.2-9.6,0.3c3.9,2.7,7.8,5.3,11.7,8c2.9-0.3,5.8-0.6,8.7-0.9C28.6,28.9,25,26.4,21.4,24z"></path><path d="M43.7,39.2c-2.7,0.5-5.3,0.9-8,1.4c3.5,2.4,7,4.8,10.5,7.2c2.4-0.6,4.8-1.3,7.3-1.9C50.2,43.6,46.9,41.4,43.7,39.2z"></path><path d="M33,31.9c-2.9,0.3-5.8,0.6-8.7,0.9c3.5,2.4,7,4.8,10.5,7.1c2.7-0.5,5.3-0.9,8-1.4C39.5,36.3,36.2,34.1,33,31.9z"></path><path d="M39.5,30.6c-1-0.7-1.9-1.3-2.7-1.9c-2.3-1.6-4.5-3.1-6.8-4.7c-0.2-0.1-0.7-0.3-0.9-0.3c-2.1,0-4.1,0.1-6.2,0.2     c3.6,2.4,7.1,4.8,10.7,7.3C35.4,31,37.4,30.8,39.5,30.6z"></path><path d="M69.8,51.3c-3-2-5.9-4-8.9-6.1c-0.2-0.1-0.4-0.2-0.6-0.4c-1.7,0.4-3.4,0.9-5,1.3c3.6,2.4,7.1,4.8,10.7,7.3     c1.3-0.5,2.6-1,3.9-1.5C70.3,51.7,70.2,51.6,69.8,51.3z"></path><path d="M71.3,51.3c1.4-0.5,2.7-1.1,4.1-1.6c0.4-0.2,0.5-0.3,0-0.6c-2.8-1.9-5.5-3.7-8.2-5.6c-0.2-0.1-0.4-0.2-0.6-0.4     c-1.8,0.5-3.5,0.9-5.2,1.4C64.7,46.8,67.9,49.1,71.3,51.3z"></path><path d="M37.4,23.5c-2.2,0.1-4.4,0.1-6.6,0.2c3.3,2.3,6.6,4.5,9.9,6.8c2.1-0.2,4.1-0.4,6.3-0.7c-3-2.1-6-4.1-9-6.1     C37.8,23.6,37.5,23.5,37.4,23.5z"></path><path d="M58.8,44.5c0.6-0.1,0.6-0.3,0.1-0.6c-2.7-1.8-5.4-3.7-8.1-5.5c-0.2-0.1-0.4-0.2-0.6-0.4c-1.9,0.3-3.7,0.7-5.5,1     c3.2,2.2,6.4,4.4,9.7,6.6C55.9,45.2,57.3,44.8,58.8,44.5z"></path><path d="M34.3,31.8c3.3,2.2,6.4,4.4,9.6,6.6c1.8-0.3,3.6-0.6,5.5-1c-3.1-2.1-6.1-4.2-9.2-6.3C38.2,31.4,36.3,31.6,34.3,31.8z"></path><path d="M60.5,44c1.8-0.5,3.5-0.9,5.2-1.4c-2.9-2-5.7-3.9-8.5-5.8c-1.9,0.3-3.8,0.7-5.7,1C54.5,39.9,57.5,41.9,60.5,44z"></path><path d="M50.6,37.2c1.9-0.3,3.8-0.7,5.7-1c-2.8-1.9-5.7-3.9-8.5-5.8c-2.1,0.2-4.1,0.4-6.2,0.7C44.6,33.1,47.6,35.1,50.6,37.2z"></path><path d="M71.5,40.3c2.7,1.8,5.4,3.7,8,5.5c1.5-0.6,2.9-1.1,4.4-1.7c-2.5-1.7-5-3.4-7.4-5.1C74.9,39.4,73.2,39.8,71.5,40.3z"></path><path d="M53.9,23.5c-2.2,0.1-4.4,0.2-6.6,0.2c2.7,1.9,5.4,3.7,8,5.5c2-0.2,4-0.4,6-0.6C58.8,26.8,56.4,25.2,53.9,23.5z"></path><path d="M93.4,41L66.2,22.6c-0.5-0.3-0.9-0.6-0.9-0.6c0,0-0.1,0-0.1,0c0,0-0.5,0-1.1,0l-19,0.5c-0.6,0-1.4,0-1.7,0     s-0.4,0.2-0.1,0.4s0.9,0.6,1.4,1l16.6,11.4c0,1,0,1.8,0,2.2L39.3,22.7c-0.7-0.5-1.3-0.9-1.4-0.9s-0.1-0.1-0.2-0.1     c-0.1,0-0.8,0-1.6,0L8.5,22.5c-0.8,0-2,0.1-2.5,0.1c-0.5,0-0.6,0.3-0.2,0.6c0.4,0.3,1.3,0.9,2,1.4l21.4,14.8c0,8.9,0,26.4,0,37     c-3.8,1.8-6.3,3-6.4,3.1c-0.9,0.8,5.3,1.3,6.4,1.1C30.4,80.2,78.2,55,86.8,50H86c0,0-6,2.9-13,6.5v-3.1l5.9-2.7     c0.8-0.3,0.8-1,0.1-1.5l-6-4.1v-2l5.6,4c0.5,0.3,0.8,0.6,0.9,0.7c0.1,0,0.5-0.1,1-0.3L93.4,42C93.9,41.7,93.9,41.3,93.4,41z      M40.8,71C38,72.3,35,73.5,33,74.6V41.8l7.7,5.4C40.8,56.3,40.8,61.9,40.8,71z M45,69.3V49.7l12.2,8.7c0.7,0.5,1.2,0.9,1.2,1     c0.1,0.1,0.7-0.2,1.5-0.5l1.2-0.6l0.3,3.4C55.9,64.2,50,66.8,45,69.3z M70.4,57.6c-2.1,1-4.4,2-6.4,3.1v-3.3l6.5-2.9L70.4,57.6z      M77,49c0.7,0.5,0.6,1.1-0.1,1.4l-16.9,7c-0.8,0.3-2,0.2-2.7-0.3L10.2,24.6c-0.7-0.5-0.6-0.9,0.3-0.9L36,22.6     c0.8,0,2.1,0.3,2.8,0.8L77,49z M61.2,37.5c0-0.5,0-1.1,0-1.7C61.2,36.2,61.2,36.8,61.2,37.5L61.2,37.5z M64,39v-2.2l6.9,4.8     l-0.2,2L64,39z M92.2,41.7l-11.7,4.8c-0.5,0.2-1.4,0.1-1.8-0.2L46.1,23.9c-0.5-0.3-0.4-0.6,0.2-0.6L64,22.5     c0.6,0,1.5,0.2,1.9,0.5l26.4,17.7C92.8,41.1,92.7,41.5,92.2,41.7z"></path><path d="M69.3,34c-1.9,0.3-3.7,0.7-5.5,1c2.4,1.7,4.8,3.3,7.2,4.9c1.7-0.4,3.3-0.9,5-1.3C73.7,37,71.5,35.5,69.3,34z"></path><path d="M61.9,28.9c-2,0.2-4,0.4-6,0.6c2.4,1.7,4.8,3.3,7.2,4.9c1.9-0.3,3.7-0.6,5.5-1C66.4,32,64.1,30.5,61.9,28.9z"></path><path d="M66.4,28c-0.7-0.5-1.3-0.9-1.9-1.3c-1.6-1.1-3.1-2.1-4.7-3.2c-0.1-0.1-0.5-0.2-0.7-0.2c-1.4,0-2.8,0.1-4.3,0.1     c2.5,1.7,4.9,3.3,7.4,5C63.6,28.3,64.9,28.2,66.4,28z"></path><path d="M87.3,42.3c-2.1-1.4-4.1-2.8-6.2-4.2c-0.1-0.1-0.3-0.2-0.4-0.3c-1.2,0.3-2.3,0.6-3.5,0.9c2.5,1.7,4.9,3.3,7.4,5     c0.9-0.4,1.8-0.7,2.7-1C87.6,42.6,87.6,42.5,87.3,42.3z"></path><path d="M91.1,40.9c-1.9-1.3-3.8-2.6-5.7-3.9c-0.1-0.1-0.3-0.2-0.4-0.3c-1.2,0.3-2.4,0.6-3.6,0.9c2.3,1.6,4.6,3.1,6.9,4.7     c1-0.4,1.9-0.7,2.8-1.1C91.4,41.2,91.4,41.1,91.1,40.9z"></path><path d="M71.5,27.5c-2.1-1.4-4.1-2.8-6.2-4.2c-0.1-0.1-0.3-0.1-0.4-0.1c-1.5,0-3,0.1-4.6,0.2c2.3,1.6,4.5,3.1,6.9,4.7     C68.6,27.8,70.1,27.6,71.5,27.5z"></path><path d="M79.7,37.6c0.4-0.1,0.4-0.2,0.1-0.4c-1.9-1.3-3.7-2.5-5.6-3.8c-0.1-0.1-0.3-0.2-0.4-0.3c-1.3,0.2-2.5,0.4-3.8,0.7     c2.2,1.5,4.4,3,6.7,4.6C77.7,38.1,78.7,37.8,79.7,37.6z"></path><path d="M62.8,28.9c2.2,1.5,4.4,3,6.7,4.5c1.3-0.2,2.5-0.4,3.8-0.7c-2.1-1.4-4.2-2.9-6.3-4.3C65.5,28.6,64.2,28.7,62.8,28.9z"></path><path d="M80.9,37.3c1.2-0.3,2.4-0.6,3.6-0.9c-2-1.4-3.9-2.7-5.9-4c-1.3,0.2-2.6,0.5-4,0.7C76.7,34.4,78.8,35.8,80.9,37.3z"></path><path d="M74,32.6c1.3-0.2,2.6-0.5,3.9-0.7c-2-1.3-3.9-2.7-5.9-4c-1.4,0.1-2.8,0.3-4.3,0.5C69.9,29.8,71.9,31.2,74,32.6z"></path></g></g></g></svg>