<svg height='100px' width='100px'  fill="#000000" xmlns="http://www.w3.org/2000/svg" xmlns:xlink="http://www.w3.org/1999/xlink" version="1.1" x="0px" y="0px" viewBox="0 0 128 128" style="enable-background:new 0 0 128 128;" xml:space="preserve"><style type="text/css">
	.st0{display:none;}
	.st1{display:inline;}
	.st2{fill:none;stroke:#000000;stroke-width:0.1;stroke-miterlimit:10;}
</style><g class="st0"><g class="st1"><rect class="st2" width="128" height="128"></rect><line class="st2" x1="0" y1="124" x2="128" y2="124"></line><line class="st2" x1="0" y1="120" x2="128" y2="120"></line><line class="st2" x1="0" y1="116" x2="128" y2="116"></line><line class="st2" x1="0" y1="112" x2="128" y2="112"></line><line class="st2" x1="0" y1="108" x2="128" y2="108"></line><line class="st2" x1="0" y1="104" x2="128" y2="104"></line><line class="st2" x1="0" y1="100" x2="128" y2="100"></line><line class="st2" x1="0" y1="96" x2="128" y2="96"></line><line class="st2" x1="0" y1="92" x2="128" y2="92"></line><line class="st2" x1="0" y1="88" x2="128" y2="88"></line><line class="st2" x1="0" y1="84" x2="128" y2="84"></line><line class="st2" x1="0" y1="80" x2="128" y2="80"></line><line class="st2" x1="0" y1="76" x2="128" y2="76"></line><line class="st2" x1="0" y1="72" x2="128" y2="72"></line><line class="st2" x1="0" y1="68" x2="128" y2="68"></line><line class="st2" x1="0" y1="64" x2="128" y2="64"></line><line class="st2" x1="0" y1="60" x2="128" y2="60"></line><line class="st2" x1="0" y1="56" x2="128" y2="56"></line><line class="st2" x1="0" y1="52" x2="128" y2="52"></line><line class="st2" x1="0" y1="48" x2="128" y2="48"></line><line class="st2" x1="0" y1="44" x2="128" y2="44"></line><line class="st2" x1="0" y1="40" x2="128" y2="40"></line><line class="st2" x1="0" y1="36" x2="128" y2="36"></line><line class="st2" x1="0" y1="32" x2="128" y2="32"></line><line class="st2" x1="0" y1="28" x2="128" y2="28"></line><line class="st2" x1="0" y1="24" x2="128" y2="24"></line><line class="st2" x1="0" y1="20" x2="128" y2="20"></line><line class="st2" x1="0" y1="16" x2="128" y2="16"></line><line class="st2" x1="0" y1="12" x2="128" y2="12"></line><line class="st2" x1="0" y1="8" x2="128" y2="8"></line><line class="st2" x1="0" y1="4" x2="128" y2="4"></line><line class="st2" x1="124" y1="0" x2="124" y2="128"></line><line class="st2" x1="120" y1="0" x2="120" y2="128"></line><line class="st2" x1="116" y1="0" x2="116" y2="128"></line><line class="st2" x1="112" y1="0" x2="112" y2="128"></line><line class="st2" x1="108" y1="0" x2="108" y2="128"></line><line class="st2" x1="104" y1="0" x2="104" y2="128"></line><line class="st2" x1="100" y1="0" x2="100" y2="128"></line><line class="st2" x1="96" y1="0" x2="96" y2="128"></line><line class="st2" x1="92" y1="0" x2="92" y2="128"></line><line class="st2" x1="88" y1="0" x2="88" y2="128"></line><line class="st2" x1="84" y1="0" x2="84" y2="128"></line><line class="st2" x1="80" y1="0" x2="80" y2="128"></line><line class="st2" x1="76" y1="0" x2="76" y2="128"></line><line class="st2" x1="72" y1="0" x2="72" y2="128"></line><line class="st2" x1="68" y1="0" x2="68" y2="128"></line><line class="st2" x1="64" y1="0" x2="64" y2="128"></line><line class="st2" x1="60" y1="0" x2="60" y2="128"></line><line class="st2" x1="56" y1="0" x2="56" y2="128"></line><line class="st2" x1="52" y1="0" x2="52" y2="128"></line><line class="st2" x1="48" y1="0" x2="48" y2="128"></line><line class="st2" x1="44" y1="0" x2="44" y2="128"></line><line class="st2" x1="40" y1="0" x2="40" y2="128"></line><line class="st2" x1="36" y1="0" x2="36" y2="128"></line><line class="st2" x1="32" y1="0" x2="32" y2="128"></line><line class="st2" x1="28" y1="0" x2="28" y2="128"></line><line class="st2" x1="24" y1="0" x2="24" y2="128"></line><line class="st2" x1="20" y1="0" x2="20" y2="128"></line><line class="st2" x1="16" y1="0" x2="16" y2="128"></line><line class="st2" x1="12" y1="0" x2="12" y2="128"></line><line class="st2" x1="8" y1="0" x2="8" y2="128"></line><line class="st2" x1="4" y1="0" x2="4" y2="128"></line></g></g><g><path d="M64,7C32.5,7,7,32.5,7,64s25.5,57,57,57s57-25.5,57-57S95.5,7,64,7z M45.9,88.1c-2,0-3.6-1.6-3.6-3.6   c0-2,1.6-3.6,3.6-3.6c2,0,3.6,1.6,3.6,3.6C49.5,86.5,47.9,88.1,45.9,88.1z M53.6,92.2c-2.4,0-4.3-1.9-4.3-4.3   c0-2.4,1.9-4.3,4.3-4.3c2.4,0,4.3,1.9,4.3,4.3C57.9,90.3,56,92.2,53.6,92.2z M64,96.5c-3.4,0-6.2-2.8-6.2-6.2s2.8-6.2,6.2-6.2   s6.2,2.8,6.2,6.2S67.4,96.5,64,96.5z M74.4,93c-2.4,0-4.3-1.9-4.3-4.3c0-2.4,1.9-4.3,4.3-4.3s4.3,1.9,4.3,4.3   C78.6,91.1,76.7,93,74.4,93z M81.6,88.3c-2,0-3.6-1.6-3.6-3.6c0-2,1.6-3.6,3.6-3.6c2,0,3.6,1.6,3.6,3.6   C85.1,86.7,83.5,88.3,81.6,88.3z M88.8,79.9c0,1.3-1.1,2.4-2.4,2.4S84,81.3,84,79.9s1.1-2.4,2.4-2.4c0.1,0,0.2,0,0.3,0   c0-0.1,0.1-0.2,0.1-0.2c3.3-4.7,5-10.2,5-15.9c0-15.3-12.5-27.8-27.8-27.8S36.2,46.1,36.2,61.5c0,4.9,1.8,10.5,4.8,15.4   c0.2-0.1,0.4-0.1,0.6-0.1c1.3,0,2.4,1.1,2.4,2.4s-1.1,2.4-2.4,2.4s-2.4-1.1-2.4-2.4c0-0.3,0.1-0.6,0.2-0.9   c-0.1-0.1-0.1-0.1-0.2-0.2C35.9,72.9,34,66.8,34,61.5c0-16.5,13.4-30,30-30s30,13.4,30,30c0,6.2-1.9,12.1-5.4,17.1   c0,0.1-0.1,0.1-0.2,0.2C88.6,79.1,88.8,79.5,88.8,79.9z"></path></g></svg>