<svg height='100px' width='100px'  fill="#000000" xmlns="http://www.w3.org/2000/svg" viewBox="0 0 66 66" x="0px" y="0px"><title>Artboard 18</title><path d="M50,1H16a3,3,0,0,0-3,3V62a3,3,0,0,0,3,3H50a3,3,0,0,0,3-3V4A3,3,0,0,0,50,1ZM16,3H50a1,1,0,0,1,1,1V57H15V4A1,1,0,0,1,16,3ZM50,63H16a1,1,0,0,1-1-1V59H51v3A1,1,0,0,1,50,63Z"></path><path d="M26,17a3,3,0,0,0,2-.78A3,3,0,0,0,30,17a3,3,0,0,0,0-6,3,3,0,0,0-2,.78A3,3,0,0,0,26,11a3,3,0,0,0,0,6Zm4-4a1,1,0,1,1-1,1A1,1,0,0,1,30,13Zm-4,0a1,1,0,1,1-1,1A1,1,0,0,1,26,13Z"></path><path d="M22,21H34a3,3,0,0,0,3-3V10a3,3,0,0,0-3-3H22a3,3,0,0,0-3,3v8A3,3,0,0,0,22,21ZM21,10a1,1,0,0,1,1-1H34a1,1,0,0,1,1,1v8a1,1,0,0,1-1,1H22a1,1,0,0,1-1-1Z"></path><path d="M27,33a6,6,0,1,0,6-6A6,6,0,0,0,27,33Zm10,0a4,4,0,1,1-4-4A4,4,0,0,1,37,33Z"></path></svg>