<svg height='100px' width='100px'  fill="#000000" xmlns="http://www.w3.org/2000/svg" xmlns:xlink="http://www.w3.org/1999/xlink" version="1.1" x="0px" y="0px" viewBox="0 0 100 100" enable-background="new 0 0 100 100" xml:space="preserve"><path d="M88.842,35.138c-3.4,0-6.156,2.758-6.156,6.158c0,2.229,1.188,4.175,2.959,5.255v3.39h-71.29v-3.389  c1.772-1.081,2.96-3.027,2.96-5.256c0-3.4-2.757-6.158-6.157-6.158C7.757,35.138,5,37.896,5,41.296c0,2.229,1.188,4.175,2.961,5.255  v47.206c0,0.522,0.423,0.947,0.947,0.947h4.5c0.523,0,0.947-0.425,0.947-0.947v-7.343h71.29v7.343c0,0.522,0.424,0.947,0.946,0.947  h4.5c0.524,0,0.947-0.425,0.947-0.947V46.551C93.813,45.471,95,43.524,95,41.296C95,37.896,92.243,35.138,88.842,35.138z   M23.651,76.939h-9.296V59.414h9.296V76.939z M44.316,76.939H35.02V59.414h9.296V76.939z M64.98,76.939h-9.295V59.414h9.295V76.939z   M85.645,76.939H76.35V59.414h9.295V76.939z"></path><path d="M26.843,37.31h9.272c2.943,0,3.849-4.454,0.699-4.942c1.079-2.05-1.227-4.414-3.658-2.996  c-1.218-3.812-7.346-2.673-6.839,1.488C22.219,31.602,23.145,37.31,26.843,37.31z"></path><path d="M69.777,26.063c-0.143-0.44-0.217-0.661-0.514-0.661c-0.299,0-0.375,0.221-0.516,0.661l-1.357,4.209l-4.423-0.009  c-0.462-0.002-0.694,0.001-0.788,0.285c-0.093,0.282,0.096,0.422,0.471,0.693l3.584,2.592l-1.377,4.203  c-0.145,0.44-0.213,0.662,0.027,0.837c0.242,0.176,0.432,0.04,0.805-0.233l3.574-2.606l3.572,2.606  c0.374,0.273,0.563,0.409,0.803,0.233c0.242-0.175,0.172-0.396,0.028-0.837l-1.375-4.203l3.584-2.592  c0.374-0.271,0.562-0.411,0.468-0.693c-0.091-0.284-0.322-0.287-0.785-0.285l-4.422,0.009L69.777,26.063z"></path><path d="M53.445,25.544c0.344-0.251,0.468-0.445,0.252-0.46c-0.133-0.007-0.264-0.012-0.396-0.012c-3.925,0-7.105,3.181-7.105,7.105  c0,3.924,3.181,7.105,7.105,7.105c0.135,0,0.266-0.005,0.396-0.013c0.216-0.014,0.092-0.208-0.252-0.459  c-2.049-1.494-3.383-3.905-3.383-6.634S51.396,27.037,53.445,25.544z"></path><path d="M30.183,13.859v8.489c0,0.523,0.424,0.947,0.947,0.947c0.522,0,0.948-0.424,0.948-0.947v-9.271  c4.91-2.47,10.857-3.864,16.975-3.971V21.4c0,0.523,0.424,0.947,0.947,0.947c0.523,0,0.947-0.424,0.947-0.947V9.12  c6.318,0.165,12.41,1.693,17.369,4.364v8.864c0,0.523,0.424,0.947,0.947,0.947c0.521,0,0.946-0.424,0.946-0.947v-8.297  c0.554-0.083,1.067-0.395,1.367-0.919c0.521-0.908,0.204-2.065-0.704-2.585c-5.93-3.387-13.412-5.252-21.07-5.252  c-7.575,0-14.718,1.735-20.653,5.02c-0.916,0.506-1.247,1.658-0.74,2.574C28.774,13.551,29.477,13.902,30.183,13.859z"></path></svg>