<svg height='100px' width='100px'  fill="#000000" xmlns="http://www.w3.org/2000/svg" xmlns:xlink="http://www.w3.org/1999/xlink" version="1.1" x="0px" y="0px" viewBox="0 0 100 100" style="enable-background:new 0 0 100 100;" xml:space="preserve"><g><path d="M77.928,23.73c0,0-4.134-13.34-9.49-16.23c-1.933-1.043,3.556,5.958,2.127,14.25c-1.769,10.267-3.89,18.81-13.849,15.164   c-3.167-1.198-3.5-6.396-3.98-5.227c-0.079,0.191-0.005,38.147-0.005,38.147c0,1.382,2.538-5.107,7.303-5.056   c12.682,0.136,3.801,27.282,4.988,25.289c0.186-0.189,0.393-0.539,0.614-1l-0.115,0.518l9.395-23.473c0,0,6.243-8.215,6.384-16.922   C81.308,48.731,80.948,31.846,77.928,23.73z M71.49,52.741c-2.941,0.93-9.84,2.318-9.84,2.318s7.191-7,11.187-8.252   C76.834,45.558,74.433,51.812,71.49,52.741z"></path><path d="M18.7,49.19c0.141,8.707,6.384,16.922,6.384,16.922l9.395,23.473l-0.115-0.518c0.222,0.461,0.429,0.811,0.614,1   c1.187,1.993-7.694-25.153,4.988-25.289c4.765-0.052,7.303,6.438,7.303,5.056c0,0,0.074-37.956-0.005-38.147   c-0.48-1.169-0.813,4.029-3.98,5.227c-9.958,3.646-12.08-4.897-13.849-15.164c-1.429-8.292,4.06-15.293,2.127-14.25   c-5.356,2.89-9.49,16.23-9.49,16.23C19.052,31.846,18.692,48.731,18.7,49.19z M27.163,46.808C31.159,48.06,38.35,55.06,38.35,55.06   s-6.898-1.389-9.84-2.318C25.567,51.812,23.166,45.558,27.163,46.808z"></path></g></svg>