<?xml version="1.0" encoding="utf-8"?>
<!-- Generator: Adobe Illustrator 24.2.1, SVG Export Plug-In . SVG Version: 6.00 Build 0)  -->
<svg version="1.1" id="Layer_1" xmlns="http://www.w3.org/2000/svg" xmlns:xlink="http://www.w3.org/1999/xlink" x="0px" y="0px"
	 viewBox="0 0 100 100" enable-background="new 0 0 100 100" xml:space="preserve">
<path d="M89.125,24.241H55.898V11c0-0.553-0.447-1-1-1H45.35c-0.553,0-1,0.447-1,1v13.241H11.125c-0.553,0-1,0.447-1,1V89
	c0,0.553,0.447,1,1,1h78c0.553,0,1-0.447,1-1V25.241C90.125,24.688,89.678,24.241,89.125,24.241z M45.351,35.908h9.548
	c0.553,0,1-0.447,1-1v-2.834h1.215c1.654,0,3,1.346,3,3s-1.346,3-3,3H43.136c-1.654,0-3-1.346-3-3s1.346-3,3-3h1.215v2.834
	C44.351,35.461,44.798,35.908,45.351,35.908z M46.351,12h7.548v21.908h-7.548V12z M88.125,88h-76V26.241h32.226v3.833h-1.215
	c-2.757,0-5,2.243-5,5s2.243,5,5,5h13.978c2.757,0,5-2.243,5-5s-2.243-5-5-5h-1.215v-3.833h32.227V88H88.125z"/>
<path d="M50.125,27.534c-1.344,0-2.438,1.094-2.438,2.438s1.094,2.438,2.438,2.438s2.438-1.094,2.438-2.438
	S51.469,27.534,50.125,27.534z M50.125,30.409c-0.241,0-0.438-0.196-0.438-0.438s0.196-0.438,0.438-0.438s0.438,0.196,0.438,0.438
	S50.366,30.409,50.125,30.409z"/>
<path d="M52.688,46.75c0,0.553,0.447,1,1,1h27.938c0.553,0,1-0.447,1-1s-0.447-1-1-1H53.688
	C53.135,45.75,52.688,46.197,52.688,46.75z"/>
<path d="M81.625,56.729H53.688c-0.553,0-1,0.447-1,1s0.447,1,1,1h27.938c0.553,0,1-0.447,1-1S82.178,56.729,81.625,56.729z"/>
<path d="M81.625,67.706H53.688c-0.553,0-1,0.447-1,1s0.447,1,1,1h27.938c0.553,0,1-0.447,1-1S82.178,67.706,81.625,67.706z"/>
<path d="M81.625,78.685H53.688c-0.553,0-1,0.447-1,1s0.447,1,1,1h27.938c0.553,0,1-0.447,1-1S82.178,78.685,81.625,78.685z"/>
<path d="M45.875,45.75h-26.25c-0.553,0-1,0.447-1,1v32.935c0,0.553,0.447,1,1,1h26.25c0.553,0,1-0.447,1-1V46.75
	C46.875,46.197,46.428,45.75,45.875,45.75z M44.875,78.685h-24.25V47.75h24.25V78.685z"/>
</svg>
