<svg height='100px' width='100px'  fill="#000000" xmlns="http://www.w3.org/2000/svg" data-name="Layer 1" viewBox="0 0 91.22 67.31" x="0px" y="0px"><title>грузовик</title><path d="M62.3,72.83H36V70.61H62.3A2.66,2.66,0,0,0,65,68V21a2.67,2.67,0,0,0-2.66-2.66H9.77A2.67,2.67,0,0,0,7.11,21V68a2.67,2.67,0,0,0,2.66,2.66h8.1v2.22H9.77A4.89,4.89,0,0,1,4.89,68V21A4.89,4.89,0,0,1,9.77,16.1H62.3A4.89,4.89,0,0,1,67.19,21V68A4.89,4.89,0,0,1,62.3,72.83Z" transform="translate(-4.89 -16.1)"></path><path d="M81.65,83.4A10.57,10.57,0,1,1,92.22,72.83,10.58,10.58,0,0,1,81.65,83.4Zm0-18.91A8.35,8.35,0,1,0,90,72.83,8.35,8.35,0,0,0,81.65,64.49Z" transform="translate(-4.89 -16.1)"></path><circle cx="76.76" cy="56.74" r="3.34"></circle><circle cx="22.25" cy="56.74" r="3.34"></circle><path d="M27.14,83.4A10.57,10.57,0,1,1,37.71,72.83,10.58,10.58,0,0,1,27.14,83.4Zm0-18.91a8.35,8.35,0,1,0,8.34,8.34A8.36,8.36,0,0,0,27.14,64.49Z" transform="translate(-4.89 -16.1)"></path><path d="M35.76,57.82A15.86,15.86,0,1,1,51.61,42,15.88,15.88,0,0,1,35.76,57.82Zm0-29.49A13.63,13.63,0,1,0,49.39,42,13.65,13.65,0,0,0,35.76,28.33Z" transform="translate(-4.89 -16.1)"></path><path d="M43,42.52H35.2a1.11,1.11,0,0,1-1.11-1.11V33.62a1.12,1.12,0,0,1,2.23,0v6.67H43a1.12,1.12,0,0,1,0,2.23Z" transform="translate(-4.89 -16.1)"></path><path d="M82.21,36.12H66.08V33.9H82.21a2.79,2.79,0,0,0,0-5.57H66.08V26.11H82.21a5,5,0,0,1,0,10Z" transform="translate(-4.89 -16.1)"></path><path d="M90,50.58H65V33.9H83.53ZM67.19,48.36H86.71L82,36.12H67.19Z" transform="translate(-4.89 -16.1)"></path><rect x="57.85" y="54.51" width="9.53" height="2.22"></rect><path d="M91.6,72l-1-2a5.89,5.89,0,0,0,3.27-5.23V56.4a5.83,5.83,0,0,0-5.82-5.82h-22V48.36h22a8.05,8.05,0,0,1,8,8v8.39A8.1,8.1,0,0,1,91.6,72Z" transform="translate(-4.89 -16.1)"></path><path d="M95,58.37H86.1a1.11,1.11,0,0,1,0-2.22H95a1.11,1.11,0,0,1,0,2.22Z" transform="translate(-4.89 -16.1)"></path><path d="M66.08,50.58a1.11,1.11,0,0,1-.79-1.89l7.79-7.79a1.1,1.1,0,0,1,1.57,0,1.12,1.12,0,0,1,0,1.57l-7.79,7.79A1.09,1.09,0,0,1,66.08,50.58Z" transform="translate(-4.89 -16.1)"></path></svg>