<svg height='100px' width='100px'  fill="#000000" xmlns="http://www.w3.org/2000/svg" viewBox="0 0 64 64" x="0px" y="0px"><title>food, healthy, vegetalian, leaft, cooking, vegetable, organic</title><g><path d="M45.919,16.282c2.015-4.949-1.388-9.032-7.245-9.922a6.141,6.141,0,0,0-5.156,1.21A4.556,4.556,0,0,0,32.3,9.526C25.7,6,15.009,14.058,18.432,21.4c-3.729.423-7.794,2.11-9.716,5.524C4.961,33.6,10.6,40.809,16.339,43.916a18.743,18.743,0,0,0,4.252,1.771.758.758,0,0,1,.424,1.19q-1.227,1.611-2.519,3.138c.015-.023-.5.589-.49.573-.173.2-.346.407-.517.613-.425.51-2.975,2.744-2.737,3.347.459,1.16,1.743-.214,2.149-.625.654-.662,1.461-1.692,1.9-2.21,1.2-1.424,2.4-2.824,3.528-4.283a1.023,1.023,0,0,1,1.488-.153c.255.225.507.438.728.651a16.32,16.32,0,0,0,4.891,3.325.857.857,0,0,0,.243.053c.194.076.386.152.568.232a15.561,15.561,0,0,0,4.472,1.2,10.955,10.955,0,0,0,8.237-2.294,13.027,13.027,0,0,0,4.223-7.626,14.979,14.979,0,0,0,.29-4.753,9.342,9.342,0,0,0-.772-2.893,10.1,10.1,0,0,0,3.614-4.1,10.791,10.791,0,0,0,1.385-5.723C51.588,21.634,49.832,17.342,45.919,16.282Zm-5.86-5.35a.673.673,0,0,1-1.343-.067A.673.673,0,0,1,40.059,10.932Zm-2.4,33.147A.672.672,0,0,1,39,44.145.672.672,0,0,1,37.661,44.079Zm.692-15.445c-.768.24-1.5.572-2.25.867a27.69,27.69,0,0,1-3.665,1.124c-.791,1.633-1.789,3.453-2.647,5.052-.471.878-.961,1.74-1.459,2.6a38.242,38.242,0,0,1,4.688-.83c1.393-.127,5.312-.716,5.918-.413a.539.539,0,0,1,.04.973c-.536.3-3.7.11-9.438,1.235a6.961,6.961,0,0,0-2,.658c-1.078.65-1.777.292-1.289-.862a2.013,2.013,0,0,0,.118-1.113,19.772,19.772,0,0,0-.6-2.5,24.727,24.727,0,0,0-1.694-3.76c-.653-1.213-1.373-2.388-2.1-3.555a8.526,8.526,0,0,1-1.045-1.663.658.658,0,0,1,.767-.883c.531.109.907,1.026,1.171,1.448.39.621,2.5,4.156,3.077,5.346a29.846,29.846,0,0,1,1.6,4.775A114.344,114.344,0,0,0,33.2,25.541c-.29-.356-1.5-2.551-1.912-3.247-.248-.417-2.069-2.626-.612-2.878.645-.112,1.144,1.179,1.433,1.643.4.641.768,1.3,1.146,1.953.073.124.34.49.61.922.118-.294.24-.587.355-.883q.669-1.714,1.26-3.459c.208-.616.688-2.735,1.536-2.572,1.2.231-.442,3.544-.706,4.282-.587,1.64-2.807,6.894-3.275,7.9,1.442-.467,8.006-3.255,8.259-2.133C41.431,27.679,38.989,28.436,38.353,28.634ZM44.532,24.5a.673.673,0,0,1,1.343.066A.673.673,0,0,1,44.532,24.5Z"></path></g></svg>