<svg height='100px' width='100px'  fill="#000000" xmlns="http://www.w3.org/2000/svg" viewBox="0 0 64 64" x="0px" y="0px"><title>a</title><g data-name="19 Carpentry"><path d="M18,29a7,7,0,1,0,7,7A7.008,7.008,0,0,0,18,29Zm0,12a5,5,0,1,1,5-5A5.006,5.006,0,0,1,18,41Z"></path><path d="M18,33a3,3,0,1,0,3,3A3,3,0,0,0,18,33Zm0,4a1,1,0,1,1,1-1A1,1,0,0,1,18,37Z"></path><path d="M56,45H52.334a11.005,11.005,0,0,0-4.917-19.909A.986.986,0,0,0,47,25H18a10.991,10.991,0,0,0-6.3,20H8a2,2,0,0,0-2,2v4a2,2,0,0,0,2,2h2v6H9a1,1,0,0,0,0,2h8a1,1,0,0,0,0-2H16V53H48v6H47a1,1,0,0,0,0,2h8a1,1,0,0,0,0-2H54V53h2a2,2,0,0,0,2-2V47A2,2,0,0,0,56,45ZM24.318,27h22.37a1.009,1.009,0,0,0,.213.045A8.953,8.953,0,0,1,54.94,35H38a1,1,0,0,0,0,2H54.94A8.953,8.953,0,0,1,46.9,44.955.95.95,0,0,0,46.7,45H24.318c.076-.053.142-.117.216-.172.223-.165.44-.335.65-.516.109-.095.214-.193.32-.292.192-.179.376-.365.554-.558.1-.1.193-.205.285-.312.043-.052.093-.1.136-.15H41a1,1,0,0,0,0-2H27.787c.01-.019.017-.04.027-.059.14-.277.272-.559.388-.849.052-.129.1-.261.144-.393.092-.255.175-.513.248-.776.039-.142.076-.284.11-.428.064-.276.115-.557.158-.841.02-.13.044-.259.06-.391a10.264,10.264,0,0,0,0-2.526c-.016-.132-.04-.261-.06-.391-.043-.284-.094-.565-.158-.841-.034-.144-.071-.286-.11-.428-.073-.263-.156-.521-.248-.776-.047-.132-.092-.264-.144-.393-.116-.29-.248-.572-.388-.849-.01-.019-.017-.04-.027-.059H41a1,1,0,0,0,0-2H26.479c-.043-.052-.093-.1-.136-.15-.092-.107-.189-.209-.285-.312-.178-.193-.362-.379-.554-.558-.106-.1-.211-.2-.32-.292-.21-.181-.427-.351-.65-.516C24.46,27.117,24.394,27.053,24.318,27ZM9,36a9,9,0,1,1,9,9A9.01,9.01,0,0,1,9,36Zm5,23H12V53h2Zm38,0H50V53h2Zm4-8H8V47H56Z"></path><path d="M53,15a3,3,0,0,0,3-3V10a3,3,0,0,0-6,0v2A3,3,0,0,0,53,15Zm-1-5a1,1,0,0,1,2,0v2a1,1,0,0,1-2,0Z"></path><path d="M61,7.5V4a1,1,0,0,0-1-1H48a1.993,1.993,0,0,0-1.722,1H6.754A2.007,2.007,0,0,0,4.832,5.451L3.039,11.726a1,1,0,0,0,.843,1.267l42,5A.923.923,0,0,0,46,18a1,1,0,0,0,.447-.105l1.618-.809L48.9,18.2a2.01,2.01,0,0,0,1.6.8H60a1,1,0,0,0,1-1V14.5a1.5,1.5,0,0,0-1-1.414V8.914A1.5,1.5,0,0,0,61,7.5ZM45.821,15.972,42,15.517V15a1,1,0,0,0-2,0v.279l-5-.6V14a1,1,0,0,0-2,0v.445l-5-.6V13a1,1,0,0,0-2,0v.612l-5-.6V12a1,1,0,0,0-2,0v.779l-6-.715V11a1,1,0,0,0-2,0v.826l-5.716-.68L6.754,6H46v8a1,1,0,0,0,.2.6l.645.859ZM59,7.086A1.5,1.5,0,0,0,58,8.5v5a1.5,1.5,0,0,0,1,1.414V17H50.5L48,13.667V5H59Z"></path><path d="M45,31h2a1,1,0,0,0,0-2H45a1,1,0,0,0,0,2Z"></path><path d="M45,43h2a1,1,0,0,0,0-2H45a1,1,0,0,0,0,2Z"></path><path d="M34,35H32a1,1,0,0,0,0,2h2a1,1,0,0,0,0-2Z"></path></g></svg>