<svg height='100px' width='100px'  fill="#000000" xmlns="http://www.w3.org/2000/svg" xmlns:xlink="http://www.w3.org/1999/xlink" version="1.1" x="0px" y="0px" viewBox="0 0 100 100" style="enable-background:new 0 0 100 100;" xml:space="preserve"><style type="text/css">
	.st0{fill:#000000;}
</style><g><path class="st0" d="M30.3,41.5c-0.6,0.1-1,0.6-1.1,1.1c-0.2,1,0.7,1.8,1.7,1.7c0.6-0.1,1-0.6,1.1-1.1   C32.1,42.1,31.3,41.3,30.3,41.5z"></path><path class="st0" d="M60,43.5c3.9,0.8,3.2-2.8,3.2-2.8L60,43.5z"></path><path class="st0" d="M94.9,30.2c-0.6-8-5.7-12.8-8.7-15c-0.2-0.2-5.5-3.7-12.8-3.7c-6.4,0-15.6,2.9-23.5,16   c-7.9-13.1-17-16-23.5-16c-7.3,0-12.6,3.6-12.8,3.7c-3,2.2-8,7-8.6,14.9c-0.7,9,4.4,19,15.1,29.7L50,90.2l29.8-30.2   C90.5,49.2,95.6,39.2,94.9,30.2z M42.8,55c-5.3,0.4-8,0-8,0l-2,12.9L22.7,57.5c-3.4-3.4-6.2-6.8-8.4-10l4.5-20.1l4.9,6.8   c3.3,0.6,5.4,0.9,7.1,1.2l2.9-7.3l2.8,8.6c0,0,0,0,0,0c0.8,0.2,1.5,0.7,2,1.4l2.4,3.3l9.1,2.8C50,44.2,48.1,54.6,42.8,55z    M77.3,57.5L61.2,73.8c-3.1-9.7-3.4-17.9-3.4-17.9S52,52.3,51,51.8c-0.7-0.4-1-7.6-1-7.6l6.1-1.5l5.9-5.1c0.6-0.5,1.3-0.9,2.1-1   l5.2-0.8l2.4-8l3.7,7h0l7.5,16.4C81.3,53.3,79.4,55.4,77.3,57.5z"></path></g></svg>