<svg height='100px' width='100px'  fill="#000000" xmlns:dc="http://purl.org/dc/elements/1.1/" xmlns:cc="http://creativecommons.org/ns#" xmlns:rdf="http://www.w3.org/1999/02/22-rdf-syntax-ns#" xmlns:svg="http://www.w3.org/2000/svg" xmlns="http://www.w3.org/2000/svg" xmlns:sodipodi="http://sodipodi.sourceforge.net/DTD/sodipodi-0.dtd" xmlns:inkscape="http://www.inkscape.org/namespaces/inkscape" version="1.1" x="0px" y="0px" viewBox="0 0 100 100" enable-background="new 0 0 26 26" xml:space="preserve"><path style="font-size:medium;font-style:normal;font-variant:normal;font-weight:normal;font-stretch:normal;text-indent:0;text-align:start;text-decoration:none;line-height:normal;letter-spacing:normal;word-spacing:normal;text-transform:none;direction:ltr;block-progression:tb;writing-mode:lr-tb;text-anchor:start;baseline-shift:baseline;opacity:1;color:#000000;fill:#000000;fill-opacity:1;stroke:none;stroke-width:4;marker:none;visibility:visible;display:inline;overflow:visible;enable-background:accumulate;font-family:Sans;-inkscape-font-specification:Sans" d="M 47.78125 4 A 2.0002 2.0002 0 0 0 45.9375 5.65625 C 43.40873 20.303021 37.878413 26.122262 32.5625 31.6875 C 27.246587 37.252738 22 42.841946 22 55.03125 C 22 61.064288 24.700295 66.164949 28.65625 70.0625 C 32.612205 73.960051 37.804413 76.765576 43.125 78.53125 A 2.0002 2.0002 0 0 0 45.28125 75.34375 C 40.270356 69.338917 39.014577 65.183165 39.125 61.875 C 39.21288 59.242061 40.310087 56.911816 41.53125 54.46875 C 43.839305 55.800661 46.07766 56.516182 48.03125 55.9375 C 50.594682 55.178175 52.178551 53.002291 53.1875 50.71875 C 54.246336 48.3223 54.773564 45.718276 55.03125 43.34375 C 60.579149 49.840865 62.629643 55.337 62.5625 59.96875 C 62.46806 66.483167 58.51618 71.814269 54.875 75.15625 A 2.0002 2.0002 0 0 0 56.53125 78.59375 C 67.744059 77.024478 78 67.290866 78 54.875 C 78 46.350209 76.50537 38.666704 72.125 30.71875 C 67.74463 22.770796 60.563858 14.558054 49.25 4.5 A 2.0002 2.0002 0 0 0 47.78125 4 z M 49 9.75 C 58.628396 18.577709 64.899223 25.896021 68.625 32.65625 C 72.672964 40.00107 74 46.802767 74 54.875 C 74 62.680039 68.812144 69.33969 62.21875 72.625 C 64.585783 69.190267 66.490142 65.022693 66.5625 60.03125 C 66.66143 53.206903 63.353865 45.460107 54.53125 36.78125 A 2.0002 2.0002 0 0 0 51.125 38.46875 C 51.311439 39.875569 51.04901 45.658618 49.53125 49.09375 C 48.772369 50.811316 47.833223 51.819167 46.90625 52.09375 C 45.979277 52.368333 44.470754 52.18319 41.90625 50.125 A 2.0002 2.0002 0 0 0 38.84375 50.8125 C 37.323579 53.848677 35.274577 57.268853 35.125 61.75 C 35.024842 64.750617 35.937439 68.127809 38.09375 71.9375 C 35.627151 70.59934 33.331626 69.054124 31.46875 67.21875 C 28.089094 63.88899 26 59.891389 26 55.03125 C 26 43.912835 30.124663 40.032234 35.46875 34.4375 C 40.362964 29.313739 46.007028 22.665421 49 9.75 z M 37.875 84 A 2.0002 2.0002 0 0 0 38.0625 88 L 61.15625 88 A 2.0002 2.0002 0 1 0 61.15625 84 L 38.0625 84 A 2.0002 2.0002 0 0 0 37.875 84 z M 31.3125 92 A 2.0021961 2.0021961 0 1 0 31.5 96 L 67.6875 96 A 2.0002 2.0002 0 1 0 67.6875 92 L 31.5 92 A 2.0002 2.0002 0 0 0 31.3125 92 z "></path></svg>