<svg height='100px' width='100px'  fill="#000000" xmlns="http://www.w3.org/2000/svg" xmlns:xlink="http://www.w3.org/1999/xlink" version="1.1" x="0px" y="0px" viewBox="0 0 100 100" enable-background="new 0 0 100 100" xml:space="preserve"><g display="none"><rect x="-146.282" y="-781.809" display="inline" fill="#000000" width="1230" height="1241.809"></rect></g><g><path fill="none" d="M83.367,56.386v19.237c4.521-0.868,7.95-4.848,7.95-9.618S87.888,57.254,83.367,56.386z"></path><path fill="none" d="M8.684,66.005c0,4.77,3.429,8.75,7.95,9.618V56.386C12.112,57.254,8.684,61.234,8.684,66.005z"></path><path fill="none" d="M50,56.167c-2.852,0-5.164,2.555-5.164,5.707h10.327C55.164,58.722,52.852,56.167,50,56.167z"></path><path fill="none" d="M54.222,34.688c-6.84,0-15.801-2.619-18.968-10.05c-0.607-1.426,0.056-3.074,1.481-3.682   c1.428-0.607,3.075,0.056,3.682,1.48c1.989,4.667,8.494,6.649,14.028,6.638c6.517-0.069,13.008-2.446,18.077-6.328   C67.467,15.766,59.258,11.212,50,11.212c-15.327,0-27.795,12.47-27.795,27.796v49.565c0,0.112,0.102,0.215,0.214,0.215h55.162   c0.112,0,0.214-0.103,0.214-0.215V39.008c0-4.034-0.871-7.866-2.423-11.329c-5.904,4.348-13.292,6.926-20.868,7.007   C54.411,34.687,54.316,34.688,54.222,34.688z M31.667,48.56c-2.091,0-3.786-1.695-3.786-3.786c0-2.091,1.695-3.786,3.786-3.786   s3.786,1.695,3.786,3.786C35.453,46.865,33.758,48.56,31.667,48.56z M68.333,40.989c2.091,0,3.786,1.695,3.786,3.786   c0,2.091-1.695,3.786-3.786,3.786s-3.786-1.695-3.786-3.786C64.548,42.684,66.243,40.989,68.333,40.989z M62.428,53.659   C61.746,60.578,56.442,65.963,50,65.963c-6.442,0-11.746-5.385-12.428-12.304c-0.08-0.811,0.571-1.514,1.386-1.514h22.085   C61.857,52.145,62.508,52.848,62.428,53.659z"></path><path d="M83.367,51.298v-12.29c0-5.452-1.323-10.598-3.652-15.147c-1.33,1.386-2.78,2.667-4.343,3.818   c1.552,3.463,2.423,7.295,2.423,11.329v49.565c0,0.112-0.102,0.215-0.214,0.215H22.419c-0.112,0-0.214-0.103-0.214-0.215V39.008   c0-15.326,12.469-27.796,27.795-27.796c9.258,0,17.467,4.554,22.522,11.535c1.504-1.152,2.879-2.435,4.095-3.834   C70.519,10.858,60.859,5.642,50,5.642c-18.398,0-33.367,14.968-33.367,33.366v12.29C9.326,52.213,3.649,58.453,3.649,66.005   s5.676,13.791,12.984,14.706v7.862c0,3.19,2.596,5.785,5.786,5.785h55.162c3.19,0,5.786-2.595,5.786-5.785v-7.862   c7.308-0.915,12.984-7.154,12.984-14.706S90.674,52.213,83.367,51.298z M16.633,75.623c-4.521-0.868-7.95-4.848-7.95-9.618   s3.429-8.751,7.95-9.619V75.623z M83.367,75.623V56.386c4.521,0.868,7.95,4.849,7.95,9.619S87.888,74.755,83.367,75.623z"></path><path fill="#000000" d="M37.572,53.659C38.254,60.578,43.558,65.963,50,65.963c6.442,0,11.746-5.385,12.428-12.304   c0.08-0.811-0.571-1.514-1.386-1.514H38.958C38.143,52.145,37.492,52.848,37.572,53.659z M50,56.167   c2.852,0,5.164,2.555,5.164,5.707H44.836C44.836,58.722,47.148,56.167,50,56.167z"></path><circle fill="#000000" cx="31.667" cy="44.775" r="3.786"></circle><circle fill="#000000" cx="68.333" cy="44.775" r="3.786"></circle><path fill="#000000" d="M72.522,22.747c-5.069,3.881-11.56,6.258-18.077,6.328c-5.534,0.012-12.039-1.971-14.028-6.638   c-0.607-1.425-2.254-2.088-3.682-1.48c-1.426,0.607-2.089,2.256-1.481,3.682c3.167,7.431,12.128,10.05,18.968,10.05   c0.094,0,0.189-0.001,0.283-0.002c7.576-0.08,14.964-2.659,20.868-7.007c1.563-1.151,3.013-2.433,4.343-3.818   c1.64-1.709,3.097-3.576,4.302-5.597c0.794-1.331,0.358-3.054-0.973-3.848c-1.33-0.792-3.053-0.358-3.848,0.973   c-0.741,1.242-1.615,2.414-2.58,3.524C75.401,20.311,74.026,21.595,72.522,22.747z"></path></g></svg>