<svg height='100px' width='100px'  fill="#000000" xmlns="http://www.w3.org/2000/svg" xmlns:xlink="http://www.w3.org/1999/xlink" version="1.1" x="0px" y="0px" viewBox="0 0 100 100" style="enable-background:new 0 0 100 100;" xml:space="preserve"><path d="M67.7,5H39.5c-8.8,0-15.9,7.1-15.9,15.9v66.2c0,4.4,3.6,7.9,7.9,7.9h5.3c4.4,0,7.9-3.6,7.9-7.9V28.9c0-1.5,1.2-2.6,2.6-2.6  h20.2c4.4,0,7.9-3.6,7.9-7.9V13C75.6,8.6,72,5,67.7,5z M28.9,24.2L39.3,30H28.9V24.2z M45,10.3v10.8l-6.6-10.7  c0.4,0,0.7-0.1,1.1-0.1H45z M33.4,12.3l7.5,12.2c0,0.1-0.1,0.1-0.1,0.2l-11.5-6.3C29.9,15.9,31.4,13.7,33.4,12.3z M36.9,89.7h-5.3  c-1.5,0-2.6-1.2-2.6-2.6V35.3h10.6v51.8C39.5,88.5,38.3,89.7,36.9,89.7z M70.3,18.3c0,1.5-1.2,2.6-2.6,2.6H50.3V10.3h17.4  c1.5,0,2.6,1.2,2.6,2.6V18.3z"></path></svg>