<?xml version="1.0" encoding="utf-8"?>
<!-- Generator: Adobe Illustrator 24.2.1, SVG Export Plug-In . SVG Version: 6.00 Build 0)  -->
<svg version="1.1" id="Layer_1" xmlns="http://www.w3.org/2000/svg" xmlns:xlink="http://www.w3.org/1999/xlink" x="0px" y="0px"
	 viewBox="0 0 100 100" enable-background="new 0 0 100 100" xml:space="preserve">
<path fill-rule="evenodd" clip-rule="evenodd" d="M65.5,75.5h-30c-13.8,0-25-11.2-25-25s11.2-25,25-25h30c13.8,0,25,11.2,25,25
	S79.3,75.5,65.5,75.5z M40.5,48.5h-6v-6c0-1.1-0.9-2-2-2c-1.1,0-2,0.9-2,2v6h-6c-1.1,0-2,0.9-2,2s0.9,2,2,2h6v6c0,1.1,0.9,2,2,2
	c1.1,0,2-0.9,2-2v-6h6c1.1,0,2-0.9,2-2S41.6,48.5,40.5,48.5z M59.5,47.5c-1.7,0-3,1.3-3,3s1.3,3,3,3s3-1.3,3-3S61.2,47.5,59.5,47.5z
	 M67.5,39.5c-1.7,0-3,1.3-3,3s1.3,3,3,3s3-1.3,3-3S69.2,39.5,67.5,39.5z M67.5,55.5c-1.7,0-3,1.3-3,3s1.3,3,3,3s3-1.3,3-3
	S69.2,55.5,67.5,55.5z M75.5,47.5c-1.7,0-3,1.3-3,3s1.3,3,3,3s3-1.3,3-3S77.2,47.5,75.5,47.5z"/>
</svg>
