<svg height='100px' width='100px'  fill="#000000" xmlns="http://www.w3.org/2000/svg" viewBox="0 0 96 96" x="0px" y="0px"><title>Artboard 10</title><g><path d="M83.1523,32.3656l-34-24a1.9959,1.9959,0,0,0-2.3046,0l-34,24A2.0011,2.0011,0,0,0,12,34V86a1.9989,1.9989,0,0,0,2,2H82a1.9989,1.9989,0,0,0,2-2V34A2.0011,2.0011,0,0,0,83.1523,32.3656ZM80,84H16V35.0375l32-22.59,32,22.59Z"></path><path d="M40,56V50a1.9988,1.9988,0,0,0-2-2H34a1.9988,1.9988,0,0,0-2,2v2H30a1.9988,1.9988,0,0,0-2,2v8a1.9989,1.9989,0,0,0,2,2h2v2a1.9989,1.9989,0,0,0,2,2h4a1.9989,1.9989,0,0,0,2-2V60H56v6a1.9989,1.9989,0,0,0,2,2h4a1.9989,1.9989,0,0,0,2-2V64h2a1.9989,1.9989,0,0,0,2-2V54a1.9988,1.9988,0,0,0-2-2H64V50a1.9988,1.9988,0,0,0-2-2H58a1.9988,1.9988,0,0,0-2,2v6Z"></path></g></svg>