<svg height='100px' width='100px'  fill="#000000" xmlns="http://www.w3.org/2000/svg" xmlns:xlink="http://www.w3.org/1999/xlink" version="1.1" x="0px" y="0px" viewBox="0 0 100 100" style="enable-background:new 0 0 100 100;" xml:space="preserve"><g><path d="M23.5282593,34.5751953c0.0006104,0.0001831,0.0012817,0.0003052,0.0018921,0.0005493   c0.4338989,0.1383057,0.8532715,0.3081665,1.2597046,0.5023804c0.0155029,0.0074463,0.0311279,0.0144043,0.0465088,0.0218506   c0.4012451,0.1942749,0.7871094,0.4144897,1.1566772,0.6594238c0.0125122,0.0082397,0.0246582,0.0168457,0.0371704,0.0252075   c1.1149902,0.7463989,2.0718994,1.713501,2.8091431,2.8500977c0.0174561,0.0268555,0.0358276,0.0527954,0.0530396,0.079834   c0.2250366,0.3543701,0.4268188,0.7252808,0.6072388,1.1099854c0.0253906,0.053894,0.0498047,0.1078491,0.0742798,0.1623535   c0.1690063,0.3777466,0.3179932,0.7670288,0.440918,1.1700439c0.0066528,0.0217285,0.017334,0.0414429,0.0238647,0.0632935   h6.4870605c-0.0081177-0.0466919-0.0110474-0.0944214-0.0184326-0.1412964   c-0.0097656-0.0620728-0.0159912-0.1243286-0.024292-0.1866455c-0.0484009-0.3630371-0.0804443-0.7290039-0.0804443-1.0983276   c0-0.2655029,0.0137939-0.5288086,0.0387573-0.7897949c0.0083008-0.0872192,0.0249023-0.1723633,0.0359497-0.2589111   c0.0220947-0.1727905,0.0438843-0.3456421,0.0767822-0.5157471c0.0196533-0.1016235,0.0471802-0.2008667,0.0706787-0.3013916   c0.0353394-0.1516113,0.0700073-0.3032837,0.1139526-0.4521484c0.03125-0.1060791,0.069458-0.2095337,0.1050415-0.3140869   c0.0476685-0.1400757,0.0951538-0.2799072,0.1503906-0.4170532c0.0423584-0.1051636,0.0904541-0.2076416,0.137207-0.3109131   c0.0598755-0.1322021,0.1204834-0.263916,0.1875-0.3928833c0.0528564-0.1017456,0.1100464-0.2008667,0.1672974-0.3004761   c0.0722656-0.1256714,0.1461792-0.2501831,0.2252808-0.3721924c0.0628662-0.0969238,0.1288452-0.1918335,0.1960449-0.286377   c0.0842896-0.1186523,0.1712646-0.2354126,0.262207-0.3500366c0.0725708-0.0914917,0.1470947-0.1813354,0.223938-0.2701416   c0.0449219-0.0519409,0.0847168-0.1071167,0.1310425-0.1580811c-1.0419922-3.6352539-4.3505859-6.140625-8.1816406-6.140625   c-3.7841797,0-7.1040039,2.5126953-8.1801758,6.0786133c0.0031128,0.0005493,0.0059204,0.0016479,0.0090332,0.0021973   C22.6355591,34.3224487,23.0878906,34.4349365,23.5282593,34.5751953z"></path><path d="M13.9230957,25.9257813v1.5751953c0,0.4140625,0.3359375,0.75,0.75,0.75s0.75-0.3359375,0.75-0.75v-1.5751953h1.5751953   c0.4140625,0,0.75-0.3359375,0.75-0.75s-0.3359375-0.75-0.75-0.75h-1.5751953v-1.5756836c0-0.4140625-0.3359375-0.75-0.75-0.75   s-0.75,0.3359375-0.75,0.75v1.5756836h-1.5756836c-0.4140625,0-0.75,0.3359375-0.75,0.75s0.3359375,0.75,0.75,0.75H13.9230957z"></path><path d="M63.3474121,34.9257813h1.5756836v1.5751953c0,0.4140625,0.3359375,0.75,0.75,0.75s0.75-0.3359375,0.75-0.75v-1.5751953   h1.5751953c0.4140625,0,0.75-0.3359375,0.75-0.75s-0.3359375-0.75-0.75-0.75h-1.5751953v-1.5756836   c0-0.4140625-0.3359375-0.75-0.75-0.75s-0.75,0.3359375-0.75,0.75v1.5756836h-1.5756836c-0.4140625,0-0.75,0.3359375-0.75,0.75   S62.9333496,34.9257813,63.3474121,34.9257813z"></path><path d="M29.4641113,42.7231445c-0.0059814,0-0.0112305-0.0028076-0.0171509-0.0029297h-1.274353   c-0.1220703,0-0.2416992,0.0537109-0.328125,0.1474609L18.2077637,53.484375   c-0.0001831,0.0002441-0.0005493,0.0003052-0.0007324,0.0005493c-0.0066528,0.0100098-0.0095825,0.0131226-0.013916,0.0192871   c-0.0012207,0.0014648-0.0011597,0.0036011-0.0024414,0.0050659c-0.0615234,0.0712891-0.0981445,0.1655273-0.0981445,0.2509766   c0,0.1225586,0.0576172,0.2456055,0.1577148,0.3378906c0.0332031,0.0107422,0.1054688,0.0649414,0.1367188,0.0805664   c0.0102539,0.0048828,0.0498047,0.0214844,0.1357422,0.0214844h49.8896484c0.0610352,0,0.1044922-0.0107422,0.1245117-0.0209961   c0.0317383-0.015625,0.0644531-0.0292969,0.0981445-0.0405273c0.0297852-0.0302734,0.0688477-0.0620117,0.1098633-0.0913086   l9.6425781-10.6118164c0.0009766-0.0009766,0.0019531-0.0024414,0.003418-0.003418   c0.1635742-0.1782227,0.1035156-0.3745117,0.0703125-0.4511719c-0.034668-0.078125-0.1416016-0.2607422-0.3886719-0.2607422   H51.7057495c-0.0062256,0.0001831-0.0117798,0.0029297-0.0180054,0.0029297H37.4743652H29.4641113z M61.3977051,47.5146484   c0.046875,0.7719727-0.4580078,1.7861328-4.8178711,2.7875977c-2.8125,0.6459961-6.5639648,1.1357422-10.5649414,1.378418   c-0.8823242,0.0537109-2.9609375,0.1621094-5.3286133,0.1621094c-4.6113281,0-10.3222656-0.4106445-10.4453125-2.4360352   c-0.046875-0.7719727,0.4580078-1.7861328,4.8178711-2.7875977c2.8120117-0.6459961,6.5639648-1.1357422,10.5649414-1.378418   C48.2233887,45.081543,61.2116699,44.4492188,61.3977051,47.5146484z"></path><path d="M42.3474121,23.9257813h1.5756836v1.5751953c0,0.4140625,0.3359375,0.75,0.75,0.75s0.75-0.3359375,0.75-0.75v-1.5751953   h1.5751953c0.4140625,0,0.75-0.3359375,0.75-0.75s-0.3359375-0.75-0.75-0.75h-1.5751953v-1.5756836   c0-0.4140625-0.3359375-0.75-0.75-0.75s-0.75,0.3359375-0.75,0.75v1.5756836h-1.5756836c-0.4140625,0-0.75,0.3359375-0.75,0.75   S41.9333496,23.9257813,42.3474121,23.9257813z"></path><path d="M86.0524902,71.5h-2.4697266c-2.1230469,0-3.8500977-1.7270508-3.8500977-3.8500977   c0-0.6313477-0.2416992-1.2211914-0.6801758-1.659668s-1.0283203-0.6801758-1.659668-0.6801758h-5.265625l-0.1416016,0.1376953   c-0.131958,0.131958-0.2714233,0.2317505-0.4155273,0.3151855c-0.0157471,0.0091553-0.02948,0.0258789-0.0454102,0.0344238   c-0.1816406,0.1396484-0.371582,0.2768555-0.5610352,0.3964844c-0.1333008,0.0996094-0.3071289,0.2055664-0.4931641,0.3100586   c-1.4165039,0.8325195-3.0517578,1.2763672-4.7177734,1.2763672H19.8225098c-1.78125,0-3.2299805-1.4448242-3.2299805-3.2202148   l-0.0263672-5.4448242l-2.3134766,0.0048828c-1.2958984,0-2.3500977,1.0498047-2.3500977,2.3398438v6.1899414   C11.9025879,68.9458008,12.9567871,70,14.2526855,70h4.949707c2.1176758,0,3.840332,1.7226563,3.840332,3.840332v3.7197266   c0,1.2900391,1.0541992,2.3398438,2.3500977,2.3398438h60.659668c1.2958984,0,2.3500977-1.0498047,2.3500977-2.3398438V73.840332   C88.4025879,72.5498047,87.3483887,71.5,86.0524902,71.5z M68.1047363,76.4487305h-2.4760742   c-0.4140625,0-0.75-0.3359375-0.75-0.75s0.3359375-0.75,0.75-0.75h2.4760742c0.4140625,0,0.75,0.3359375,0.75,0.75   S68.5187988,76.4487305,68.1047363,76.4487305z M79.2478027,76.4487305h-8.6665039c-0.4140625,0-0.75-0.3359375-0.75-0.75   s0.3359375-0.75,0.75-0.75h8.6665039c0.4140625,0,0.75,0.3359375,0.75,0.75S79.6618652,76.4487305,79.2478027,76.4487305z"></path><path d="M68.4123535,55.7001953H18.5227051c-0.1447144,0-0.2827148-0.0161133-0.4146729-0.0447388   c-0.0049438-0.0010986-0.0106201-0.0005493-0.0155029-0.0016479v2.7963867v6.1098633   c0,0.9487305,0.7758789,1.7202148,1.7299805,1.7202148h45.9301758c0.3273926,0,0.65271-0.0245361,0.9753418-0.0648193   c0.1039429-0.0130005,0.2058105-0.0361328,0.309021-0.0532227c0.2177734-0.0360718,0.4345703-0.076416,0.6481323-0.1305542   c0.1184082-0.0300293,0.2345581-0.0671387,0.3513794-0.1026001c0.1953125-0.0593872,0.3886719-0.1244507,0.5787964-0.1989136   c0.1174316-0.0459595,0.2335815-0.0950317,0.3487549-0.1466675c0.0773315-0.034729,0.1512451-0.0766602,0.227478-0.1138916   c-0.0577393-0.0548706-0.1071167-0.1170654-0.1576538-0.1782227c-0.0249023-0.0300903-0.0545654-0.0561523-0.0776367-0.0877075   c-0.0758057-0.1035767-0.1417236-0.2142334-0.1953125-0.3311157c-0.0507813-0.1005859-0.0761719-0.2133789-0.0947266-0.3095703   c-0.0032349-0.0074463-0.0100098-0.0283813-0.017334-0.0584717c-0.0349731-0.1541138-0.0563965-0.3059082-0.0563965-0.4542236   v-8.3583984C68.532959,55.6972656,68.4729004,55.7001953,68.4123535,55.7001953z"></path><path d="M11.9025879,44.1298828c0,3.5854492,2.2016602,6.7353516,5.5263672,7.9804688l9.3081055-10.2543945   c0.3730469-0.4052734,0.8950195-0.6357422,1.4355469-0.6357422h0.2646484   c-0.0241699-0.0674438-0.0401611-0.138916-0.065979-0.2055054c-0.0617065-0.15979-0.1348267-0.3127441-0.2055664-0.4673462   c-0.1108398-0.2416382-0.2272339-0.4797363-0.3589478-0.7078247c-0.0803833-0.1394043-0.1671143-0.2741089-0.2549438-0.4080811   c-0.1481323-0.225769-0.3049927-0.444397-0.4730835-0.6538696c-0.0960693-0.119751-0.194397-0.2371826-0.2966309-0.3513184   c-0.1831055-0.2042847-0.3771973-0.397583-0.5788574-0.5828247c-0.1088867-0.1000366-0.217041-0.2006226-0.3309937-0.2947388   c-0.2156372-0.1781006-0.4434814-0.3405762-0.6760254-0.4967041c-0.1190796-0.079834-0.2350464-0.1637573-0.3582764-0.2376099   c-0.2470093-0.1481934-0.5068359-0.2755737-0.7692261-0.3984375c-0.1243896-0.0581055-0.2442017-0.1242065-0.3717041-0.1763916   c-0.2852783-0.1169434-0.5830078-0.2073364-0.8825684-0.293335c-0.1171265-0.0335083-0.2289429-0.0788574-0.3480225-0.1074219   c-0.3974609-0.0957031-0.8059692-0.1617432-1.2224121-0.2000122c-0.0247803-0.0022583-0.0480347-0.0093384-0.072876-0.0113525   c-0.2558594-0.0288086-0.487793-0.0371094-0.7285156-0.0371094C15.7336426,35.590332,11.9025879,39.4213867,11.9025879,44.1298828z   "></path><path d="M37.9025879,39.7939453c0,0.2990723,0.0263062,0.595459,0.0650024,0.8895264   c0.0108643,0.0825195,0.0255127,0.1642456,0.0394287,0.2462158c0.0166626,0.0980225,0.0441895,0.1934814,0.0651245,0.2905273   h13.036499c0.1002808-0.4663086,0.1508789-0.9438477,0.1508789-1.4262695c0-3.6826172-2.9956055-6.6787109-6.6782227-6.6787109   c-1.7792969,0-3.4467773,0.6870117-4.6948242,1.9345703c-1.1202393,1.1104126-1.7989502,2.538208-1.9511719,4.0780029   C37.9135742,39.3477783,37.9025879,39.5700073,37.9025879,39.7939453z"></path><path d="M70.0925293,64.050293c0,0.065918,0.0176392,0.1427612,0.0423584,0.2107544   c0.0009766,0.0040894,0.00354,0.0133667,0.0040283,0.0158081c0.0366211,0.0820313,0.1396484,0.1728516,0.2685547,0.2197266   c0.0354614,0.0125122,0.0899658,0.0250244,0.1506348,0.029541c0.019104,0.0012207,0.0424194-0.0060425,0.0631104-0.0070801   c0.0402222-0.0019531,0.0824585-0.0108643,0.1264648-0.0255127c0.1858521-0.1448975,0.362915-0.2944946,0.5118408-0.4510498   c0.0380859-0.0395508,0.0795898-0.074707,0.1245117-0.1049805l6.5981445-6.6079102   c0.3378906-0.3305664,0.5205078-0.7651367,0.5205078-1.2294922V45.6870117l-8.4101563,9.2529297V64.050293z"></path></g></svg>