<svg height='100px' width='100px'  fill="#000000" xmlns="http://www.w3.org/2000/svg" xmlns:xlink="http://www.w3.org/1999/xlink" version="1.1" preserveAspectRatio="none" x="0px" y="0px" viewBox="0 0 100 100"><defs><g id="a"><path fill="#000000" stroke="none" d=" M 43.1 17.45 L 43.1 20.9 Q 20 43.4 16.6 61.25 13.4 77.85 27.4 89.15 32.65 93 37.35 94.1 40.95 94.9 50 95 59.05 94.9 62.6 94.1 67.3 93 72.55 89.15 86.55 77.85 83.4 61.25 80 43.4 56.9 20.9 L 56.9 17.45 69.45 5 30.55 5 43.1 17.45 M 47.6 42.95 L 47.6 38.2 52.4 38.2 52.4 42.65 Q 52.5 42.65 52.65 42.65 52.75 42.65 52.85 42.65 52.9 42.65 53 42.65 53.05 42.65 53.15 42.65 53.2 42.65 53.3 42.65 54.3 42.7 55.35 42.9 L 56.15 43.05 Q 56.8 43.2 57.5 43.4 L 59.15 44 Q 59.4 44.05 59.6 44.15 L 58.4 49.75 Q 53.9 48 51.2 48 46.7 48 46.7 50.95 46.7 53.05 52.7 55.1 61.1 58.1 61.1 64.25 61.1 72.3 52.1 73.45 L 52.1 78.5 47.3 78.5 47.3 73.75 Q 42.2 73.75 38.9 71.7 L 40.4 66.05 Q 44 68.15 48.5 68.15 53.3 68.15 53.3 65.15 53.3 62.5 48.2 60.7 39.2 57.8 39.2 51.85 39.2 46.8 43.1 44.55 44.35 43.75 46.05 43.3 46.15 43.25 46.25 43.25 46.3 43.25 46.45 43.2 L 46.55 43.2 Q 47.05 43.05 47.6 42.95 Z"></path></g></defs><g transform="matrix( 1, 0, 0, 1, 0,0) "><use xlink:href="#a"></use></g></svg>