<svg height='100px' width='100px'  fill="#000000" xmlns="http://www.w3.org/2000/svg" viewBox="0 0 64 64" x="0px" y="0px"><g><path d="M15,24.746a3,3,0,1,1,3-3A3,3,0,0,1,15,24.746Zm17-3.077a12.066,12.066,0,0,1,4.58.905l-.117.176H27a12.034,12.034,0,0,1,4.991-1.081Zm17,3.077a3,3,0,1,1,3-3A3,3,0,0,1,49,24.746Zm7-9.43v5.816l-2.041,1.021c.011-.137.041-.268.041-.407a5,5,0,1,0-9.9,1H40.78a13.808,13.808,0,0,0-1.3-.925l.35-.525A1,1,0,0,0,40,20.746v-6h2a1,1,0,0,0,.781-.376l3.7-4.62h.246ZM26.97,10.908a5.015,5.015,0,0,1,3.2-1.158H43.916l-2.4,3H24.766ZM8,21.45a6.664,6.664,0,0,1,2.513-5.238A6.756,6.756,0,0,1,14.7,14.75H22c.009,0,.016,0,.025,0H38v5.7l-.292.437a13.976,13.976,0,0,0-4.282-1.134H35a1,1,0,0,0,0-2H32a1,1,0,0,0-1,1,.989.989,0,0,0,.685.936,13.968,13.968,0,0,0-8.471,3.068H19.9a5,5,0,1,0-9.8,0H8Z"></path><path d="M36.719,44.707a12.069,12.069,0,0,1-4.713.962H32a11.844,11.844,0,0,1-4.644-.962Zm-32.4.688,3.056,3.056a3.073,3.073,0,0,0,4.243,0,3,3,0,0,0,0-4.243l-3.06-3.06a7.009,7.009,0,0,1,8.4,3.063,1,1,0,0,0,.863.5H23.45a14.214,14.214,0,0,0,3.5,2H17v2H47v-2H37.1a13.917,13.917,0,0,0,3.532-2h5.915a1,1,0,0,0,.843-.462A6.991,6.991,0,0,1,59.037,44H56.293a4,4,0,0,0,0,8h2.744a7,7,0,0,1-11.944-.758,1,1,0,0,0-.885-.535H17.854a1,1,0,0,0-.869.5A7,7,0,0,1,4.318,45.4Z"></path><path d="M20.43,36.832l1.016.676a1,1,0,1,0,1.108-1.665l-3-2a1,1,0,0,0-1.387.278l-2,3a1,1,0,1,0,1.665,1.108l.643-.966a14.087,14.087,0,0,0,3.826,6.5,1,1,0,1,0,1.386-1.442A12.08,12.08,0,0,1,20.43,36.832Z"></path><path d="M44.89,35.632a1,1,0,0,0-1.2.749,11.97,11.97,0,0,1-3.09,5.655,1,1,0,0,0,1.433,1.395,13.979,13.979,0,0,0,3.606-6.6A1,1,0,0,0,44.89,35.632Z"></path><path d="M19.114,31.65a.965.965,0,0,0,.231.027,1,1,0,0,0,.972-.77,12,12,0,0,1,2.955-5.476,1,1,0,0,0-1.454-1.373,13.99,13.99,0,0,0-3.447,6.39A1,1,0,0,0,19.114,31.65Z"></path><path d="M47.784,28.8a1,1,0,0,0-1.387.278L45.584,30.3A13.963,13.963,0,0,0,42.6,24.527a1,1,0,0,0-1.515,1.306,11.97,11.97,0,0,1,2.418,4.452l-.72-.48a1,1,0,0,0-1.109,1.665l3,2a1,1,0,0,0,1.387-.278l2-3A1,1,0,0,0,47.784,28.8Z"></path></g></svg>