<svg height='100px' width='100px'  fill="#000000" xmlns="http://www.w3.org/2000/svg" version="1.0" viewBox="0 0 600.000000 600.000000" preserveAspectRatio="xMidYMid meet" x="0px" y="0px"><metadata>
Created by potrace 1.14, written by Peter Selinger 2001-2017
</metadata><g transform="translate(0.000000,600.000000) scale(0.100000,-0.100000)" fill="#000000" stroke="none"><path d="M1733 5588 c-200 -22 -356 -207 -413 -490 -24 -115 -25 -196 -5 -311 27 -153 85 -289 186 -438 152 -222 371 -452 719 -754 183 -159 370 -347 370 -371 0 -8 -7 -28 -15 -45 -25 -47 -49 -251 -38 -310 l10 -49 -48 0 c-61 0 -238 -25 -349 -49 -658 -143 -804 -165 -1075 -165 -198 1 -201 1 -295 33 -117 40 -178 74 -256 145 -66 60 -127 161 -138 231 -6 37 -4 42 24 63 17 13 49 30 72 38 l41 14 61 -58 c130 -124 256 -163 436 -133 143 24 267 107 289 195 28 113 4 195 -80 270 -75 68 -190 103 -394 122 l-69 6 28 22 c119 89 206 120 438 152 201 29 510 9 673 -43 145 -45 272 -147 340 -271 l36 -67 -4 50 c-14 183 -220 371 -493 450 -213 62 -516 90 -710 65 -301 -38 -557 -190 -621 -370 -16 -46 -21 -51 -74 -70 -168 -63 -276 -183 -309 -343 -42 -208 149 -505 411 -638 145 -73 356 -115 519 -104 284 19 626 98 1036 240 219 76 462 145 511 145 18 0 37 -14 66 -46 51 -57 179 -153 234 -174 23 -9 45 -18 48 -22 3 -3 -7 -28 -24 -55 -37 -60 -106 -236 -155 -398 -76 -248 -131 -405 -199 -575 -84 -211 -109 -262 -199 -407 -107 -174 -227 -275 -396 -332 -80 -27 -219 -29 -272 -3 -34 17 -35 19 -38 80 -2 34 1 69 6 79 5 9 43 26 85 38 146 42 239 119 302 250 89 184 86 336 -8 422 -124 114 -280 92 -432 -62 -38 -39 -90 -103 -115 -142 -25 -40 -48 -72 -52 -72 -10 -1 -21 126 -15 184 8 74 79 281 138 402 71 144 179 302 280 407 140 147 265 207 432 208 48 0 87 2 87 4 0 12 -74 38 -133 45 -180 23 -397 -79 -580 -271 -204 -214 -354 -457 -423 -685 -24 -79 -27 -107 -28 -235 -1 -189 13 -236 108 -365 12 -17 13 -33 4 -99 -27 -204 64 -391 227 -467 131 -62 308 -61 489 0 370 126 591 448 760 1111 30 118 71 303 91 410 41 214 83 388 113 465 l19 50 64 13 c35 7 87 24 116 37 28 14 56 25 62 25 5 0 39 20 75 45 l65 44 36 -59 c50 -82 160 -214 354 -426 166 -182 326 -376 437 -532 85 -118 180 -303 205 -398 24 -93 28 -223 9 -309 -21 -101 -95 -226 -151 -256 -24 -12 -93 17 -127 53 l-22 24 20 79 c37 145 19 262 -60 384 -121 187 -287 260 -425 189 -58 -30 -75 -47 -105 -107 -52 -103 -33 -252 55 -438 24 -51 39 -93 33 -93 -7 0 -45 16 -85 36 -216 107 -521 565 -588 885 -34 162 -9 312 75 435 39 59 15 59 -43 2 -92 -94 -140 -233 -138 -405 2 -178 53 -363 161 -591 143 -298 303 -477 517 -579 111 -53 190 -69 269 -55 l56 9 74 -53 c92 -66 168 -95 262 -102 225 -15 404 145 484 433 18 66 22 107 22 230 0 135 -3 159 -28 239 -52 173 -117 287 -270 481 -110 140 -378 408 -591 594 -193 168 -299 269 -358 342 l-36 45 19 52 c25 65 44 229 35 305 l-6 57 78 0 c99 0 212 18 493 80 493 107 624 125 900 124 l215 0 99 -37 c55 -20 122 -52 150 -70 118 -79 209 -201 222 -299 6 -43 5 -45 -35 -71 -75 -50 -91 -48 -167 22 -37 34 -97 76 -132 93 -57 28 -78 33 -161 36 -53 2 -122 -1 -154 -7 -171 -31 -287 -141 -287 -270 0 -174 175 -293 452 -309 54 -2 98 -8 98 -11 0 -14 -119 -92 -167 -111 -70 -26 -229 -58 -360 -71 -178 -19 -443 2 -593 47 -147 43 -285 151 -350 274 -30 55 -35 61 -38 40 -9 -56 43 -171 113 -247 126 -141 315 -226 600 -272 431 -68 760 -9 980 176 69 58 131 142 141 193 4 20 22 33 88 63 155 72 237 157 278 291 60 199 -62 447 -307 622 -179 127 -434 183 -700 155 -285 -31 -528 -92 -1005 -251 -162 -54 -337 -106 -389 -116 -86 -16 -94 -16 -102 -1 -34 60 -196 187 -273 213 l-44 15 42 84 c51 99 86 194 199 545 240 743 419 1026 717 1135 60 22 93 27 165 28 123 0 161 -17 170 -75 4 -26 1 -58 -7 -82 -12 -37 -17 -40 -78 -56 -195 -51 -322 -190 -366 -402 -27 -126 -6 -206 72 -277 73 -67 134 -82 229 -56 112 30 210 116 318 279 l45 68 7 -57 c13 -98 1 -192 -39 -310 -85 -252 -225 -485 -390 -650 -146 -145 -254 -195 -421 -195 -65 0 -76 -2 -66 -14 30 -36 190 -47 293 -21 175 46 320 151 496 360 138 164 262 374 316 536 38 115 49 199 43 333 -6 141 -27 209 -87 284 -36 46 -37 51 -29 93 39 203 -43 407 -199 492 -159 87 -407 72 -627 -38 -370 -185 -567 -591 -755 -1557 -22 -113 -57 -257 -77 -319 l-38 -113 -65 -12 c-73 -14 -226 -82 -280 -124 l-36 -29 -36 62 c-40 70 -174 230 -385 461 -163 180 -231 261 -365 439 -119 159 -231 373 -253 485 -29 143 -14 296 40 403 30 57 88 125 116 134 24 8 79 -18 114 -55 l28 -29 -16 -58 c-9 -32 -19 -81 -23 -108 -27 -218 195 -509 391 -509 65 0 155 42 191 89 62 82 71 216 24 356 -16 48 -45 120 -65 158 l-35 71 52 -21 c82 -32 142 -75 217 -155 174 -186 320 -430 397 -664 25 -76 28 -99 28 -220 0 -151 -13 -202 -79 -300 -37 -55 -34 -61 15 -27 75 50 137 176 161 325 30 183 -45 482 -191 760 -141 268 -311 440 -526 533 -74 32 -86 34 -189 34 l-110 1 -50 38 c-106 83 -228 119 -352 104z m1316 -2483 c35 -18 79 -68 87 -100 3 -13 -1 -49 -10 -79 -18 -62 -41 -80 -121 -95 -50 -9 -78 3 -129 58 -34 35 -37 83 -10 150 25 64 121 99 183 66z"></path></g></svg>