<svg height='100px' width='100px'  fill="#000000" xmlns:dc="http://purl.org/dc/elements/1.1/" xmlns:cc="http://creativecommons.org/ns#" xmlns:rdf="http://www.w3.org/1999/02/22-rdf-syntax-ns#" xmlns:svg="http://www.w3.org/2000/svg" xmlns="http://www.w3.org/2000/svg" xmlns:sodipodi="http://sodipodi.sourceforge.net/DTD/sodipodi-0.dtd" xmlns:inkscape="http://www.inkscape.org/namespaces/inkscape" viewBox="0 0 16.933333 16.933334" version="1.1" x="0px" y="0px"><g transform="translate(0,-280.06665)"><path style="color:#000000;font-style:normal;font-variant:normal;font-weight:normal;font-stretch:normal;font-size:medium;line-height:normal;font-family:sans-serif;font-variant-ligatures:normal;font-variant-position:normal;font-variant-caps:normal;font-variant-numeric:normal;font-variant-alternates:normal;font-feature-settings:normal;text-indent:0;text-align:start;text-decoration:none;text-decoration-line:none;text-decoration-style:solid;text-decoration-color:#000000;letter-spacing:normal;word-spacing:normal;text-transform:none;writing-mode:lr-tb;direction:ltr;text-orientation:mixed;dominant-baseline:auto;baseline-shift:baseline;text-anchor:start;white-space:normal;shape-padding:0;clip-rule:nonzero;display:inline;overflow:visible;visibility:visible;opacity:1;isolation:auto;mix-blend-mode:normal;color-interpolation:sRGB;color-interpolation-filters:linearRGB;solid-color:#000000;solid-opacity:1;vector-effect:none;fill:#000000;fill-opacity:1;fill-rule:nonzero;stroke:none;stroke-width:0.5291667;stroke-linecap:round;stroke-linejoin:round;stroke-miterlimit:4;stroke-dasharray:none;stroke-dashoffset:0;stroke-opacity:1;color-rendering:auto;image-rendering:auto;shape-rendering:auto;text-rendering:auto;enable-background:accumulate" d="m 14.516267,281.26864 c -0.0086,-7e-5 -0.01725,2.7e-4 -0.02585,10e-4 -0.01519,0.001 -0.03022,0.004 -0.04496,0.008 l -1.533239,0.41238 c -0.14132,0.0376 -0.225335,0.18273 -0.187587,0.32401 l 1.095541,4.08812 c 0.03761,0.14158 0.183076,0.22567 0.324528,0.18759 l 1.533239,-0.41031 c 0.14137,-0.0378 0.225182,-0.18324 0.187068,-0.32453 l -1.095528,-4.08968 c -0.03067,-0.11493 -0.134265,-0.19527 -0.253214,-0.19637 z m -2.235007,1.13637 -7.4103999,1.98592 c -0.1411102,0.0378 -0.2248509,0.18289 -0.1870684,0.32402 l 0.8221716,3.06647 c 0.037613,0.14132 0.1827265,0.22534 0.3240114,0.18759 l 0.4366657,-0.11679 c -0.1168109,-0.28003 -0.182417,-0.58623 -0.182417,-0.90692 0,-1.30823 1.0754704,-2.38022 2.3828005,-2.38022 1.2004939,0 2.2010821,0.90534 2.3569611,2.06551 l 2.416389,-0.64751 z m -3.8142361,2.68924 c -1.0197412,0 -1.8536338,0.83131 -1.8536338,1.85105 0,1.01974 0.8338926,1.85157 1.8536338,1.85157 1.0197386,0 1.8510491,-0.83183 1.8510491,-1.85157 0,-1.01974 -0.8313105,-1.85105 -1.8510491,-1.85105 z m -6.0461445,0.10025 c -0.00878,-9e-5 -0.017595,2.5e-4 -0.026352,10e-4 -0.015187,0.001 -0.030223,0.004 -0.044958,0.008 l -1.0216436,0.27543 c -0.1411102,0.0378 -0.2248509,0.18289 -0.1870684,0.32401 l 0.751893,2.81068 c 0.037613,0.14132 0.1827265,0.22534 0.3240114,0.18759 l 1.0237072,-0.27543 c 0.1400836,-0.0379 0.2235385,-0.18149 0.1870683,-0.32195 L 2.673578,285.39108 c -0.03062,-0.11475 -0.1339426,-0.19504 -0.2526981,-0.19637 z m 1.8551841,0.0424 -1.0221595,0.27285 0.6165004,2.30063 1.0216435,-0.2744 z m 4.1909604,0.9157 c 0.4352396,0 0.7927155,0.35748 0.7927155,0.79272 0,0.43524 -0.3574759,0.7953 -0.7927155,0.7953 -0.4352423,0 -0.7953005,-0.36006 -0.7953005,-0.7953 0,-0.43524 0.3600582,-0.79272 0.7953005,-0.79272 z m 0,0.52917 c -0.1492621,0 -0.2661338,0.11429 -0.2661338,0.26355 0,0.14926 0.1168717,0.26613 0.2661338,0.26613 0.1492594,0 0.2635488,-0.11687 0.2635488,-0.26613 0,-0.14926 -0.1142894,-0.26355 -0.2635488,-0.26355 z m -1.056267,2.3921 -1.0542005,2.89905 h -0.00723 v 0.0196 l -1.3068962,3.59409 c -0.1337548,0.33745 0.3827674,0.52538 0.4971256,0.18087 l 1.1875241,-3.26543 h 3.4778261 l 1.187525,3.26543 c 0.114358,0.34451 0.63088,0.15658 0.497125,-0.18087 l -1.307412,-3.59564 v -0.0181 h -0.0067 l -1.0536852,-2.89853 c -0.1568106,0.0785 -0.3228631,0.14004 -0.4966097,0.18242 l 0.9875389,2.71611 c -1.0311158,0 -2.0622341,0 -3.0933497,0 l 0.988052,-2.71663 c -0.1736619,-0.0424 -0.339807,-0.104 -0.4966097,-0.18242 z m 0.7906491,0.23616 v 2.13372 h 0.5291667 v -2.1332 c -0.08663,0.01 -0.1744742,0.0155 -0.2635488,0.0155 -0.089786,0 -0.1782948,-0.006 -0.2656179,-0.016 z m 0,3.72122 v 2.64584 c -0.00505,0.3578 0.5342282,0.3578 0.5291667,0 v -2.64584 z"></path></g></svg>