<svg height='100px' width='100px'  fill="#000000" xmlns="http://www.w3.org/2000/svg" viewBox="0 0 32 32" x="0px" y="0px"><title>BANK AND INVESTMENT</title><g data-name="Layer 2"><path d="M29.0708,17.08594c-.96582-.02734-1.45264-.55176-1.48779-1.60254A5.32972,5.32972,0,0,0,26.36877,12.295l1.38416-1.25842a.5002.5002,0,0,0,.0874-.63525A3.1244,3.1244,0,0,0,25.7998,8.90479a4.94252,4.94252,0,0,0-3.26514.7041,19.1827,19.1827,0,0,0-1.87207-.62646.5.5,0,0,0-.2666.96387,18.13717,18.13717,0,0,1,1.999.68359.50525.50525,0,0,0,.47021-.05029,4.18844,4.18844,0,0,1,2.73389-.69482,2.00191,2.00191,0,0,1,1.15186.71143l-3.33737,3.03366a.50051.50051,0,0,0,.67282.74027l1.53381-1.39453a4.28392,4.28392,0,0,1,.96375,2.541,2.40562,2.40562,0,0,0,2.45947,2.56787v2.54541c-.1748.26172-1.19678,1.42139-5.64941,1.62061a.5.5,0,0,0-.47021.41309L22.16357,27H20V24.50293a.5.5,0,0,0-.5-.5L13.5,24a.504.504,0,0,0-.5.5V27H10.82129A67.68278,67.68278,0,0,0,6.416,18.88916a4.19664,4.19664,0,0,1-.49219-3.62891,7.39942,7.39942,0,0,1,3.335-4.24512,19.05533,19.05533,0,0,1,2.81836-1.07031.5.5,0,0,0-.27344-.96191A20.26143,20.26143,0,0,0,8.793,10.12842a8.332,8.332,0,0,0-3.56891,4.11981,1.72546,1.72546,0,0,0-1.2392.65607c-.18066.18066-.38867.394-.50684.36719a3.05542,3.05542,0,0,1-.47119-1.82812.50022.50022,0,0,0-1,.02975A4.50469,4.50469,0,0,0,2.51845,15.688c.57721.9286,1.52247.57432,2.17344-.07666.06561-.06567.10986-.10522.159-.15082A5.13974,5.13974,0,0,0,5.584,19.44385a68.26634,68.26634,0,0,1,4.46,8.26074A.5.5,0,0,0,10.5,28h3a.49971.49971,0,0,0,.5-.5V25.00049l5,.00244V27.5a.49971.49971,0,0,0,.5.5h3.0835a.50022.50022,0,0,0,.49268-.41357l.76416-4.35791c5.40137-.3252,6.11572-2.12207,6.18066-2.33008.01465-.04834-.021-2.814-.021-2.814A.95918.95918,0,0,0,29.0708,17.08594Z"></path><circle cx="24.50002" cy="16.49998" r="0.99978" transform="translate(-4.79248 12.69869) rotate(-26.56505)"></circle><path d="M13.5,12a.5.5,0,0,0,0,1h6a.5.5,0,0,0,0-1Z"></path><path d="M16.5,4A3.5,3.5,0,1,0,20,7.5,3.50425,3.50425,0,0,0,16.5,4Zm0,6A2.5,2.5,0,1,1,19,7.5,2.50294,2.50294,0,0,1,16.5,10Z"></path></g></svg>