<svg height='100px' width='100px'  fill="#000000" xmlns="http://www.w3.org/2000/svg" xmlns:xlink="http://www.w3.org/1999/xlink" version="1.1" x="0px" y="0px" viewBox="0 0 100 100" enable-background="new 0 0 100 100" xml:space="preserve"><g><path d="M39.4,65.3c0,5.6,4.5,10.1,10.1,10.1s10.1-4.5,10.1-10.1c0-5.6-4.5-10.1-10.1-10.1S39.4,59.7,39.4,65.3z M57.4,65.3   c0,4.3-3.5,7.9-7.9,7.9s-7.9-3.5-7.9-7.9c0-4.3,3.5-7.9,7.9-7.9S57.4,61,57.4,65.3z"></path><path d="M57.8,31.7V10.8l0,1.5V10c0-1.9-1.5-3.4-3.4-3.4h-9.8c-1.9,0-3.4,1.5-3.4,3.4v2.4l0,19.3c-4.3,2.8-6.8,7.5-6.8,12.6v46.4   c0,1.9,1.5,3.4,3.4,3.4h23.4c1.9,0,3.4-1.5,3.4-3.4V44.3C64.6,39.2,62.1,34.5,57.8,31.7z M43.4,13.1l0-0.7V10   c0-0.7,0.5-1.2,1.2-1.2h9.8c0.7,0,1.2,0.5,1.2,1.2l0,3.4H43.4V13.1z M43.4,15.5h12.2l0,6.3H43.4V15.5z M62.4,90.7   c0,0.7-0.5,1.2-1.2,1.2H37.8c-0.7,0-1.2-0.5-1.2-1.2V75l12.9,9.5L62.4,75V90.7z M62.4,72.3l-12.9,9.5l-12.9-9.5v-14l12.9-9.5   l12.9,9.5V72.3z M62.4,55.5l-12.9-9.5l-12.9,9.5V44.3c0-4.6,2.3-8.7,6.2-11.1l0.5-0.3V24h12.2l0,8.9l0.5,0.3   c3.9,2.4,6.2,6.5,6.2,11.1V55.5z"></path></g></svg>