<svg height='100px' width='100px'  fill="#000000" xmlns="http://www.w3.org/2000/svg" data-name="Layer 2" viewBox="0 0 5 5" x="0px" y="0px"><title>hookah</title><path d="M2.9299,3.31221a.347.347,0,0,1-.30284-.37771.84509.84509,0,0,1,.09169-.34236c.03793-.077.1158-.20612.21115-.20612s.17322.12914.21115.20612a.84509.84509,0,0,1,.09169.34236A.347.347,0,0,1,2.9299,3.31221Zm0-.85c-.03095,0-.08709.05058-.14277.16358a.77712.77712,0,0,0-.08384.30866c0,.16623.10165.30148.2266.30148s.2266-.13524.2266-.30148a.77712.77712,0,0,0-.08384-.30866C3.017,2.51283,2.96084,2.46225,2.9299,2.46225Z"></path><polygon points="2.979 3.648 2.805 3.648 2.805 3.255 2.881 3.255 2.881 3.572 2.979 3.572 2.979 3.648"></polygon><path d="M2.97852,4.8002H2.1429V4.76208a1.4243,1.4243,0,0,1,.10639-.55394A1.27843,1.27843,0,0,1,2.4838,3.841a1.17276,1.17276,0,0,1,.34336-.266l.03162.06937a1.12027,1.12027,0,0,0-.32088.25049,1.20235,1.20235,0,0,0-.21915.34486A1.33583,1.33583,0,0,0,2.2196,4.724h.75892Z"></path><polygon points="3.059 3.648 2.886 3.648 2.886 3.572 2.983 3.572 2.983 3.255 3.059 3.255 3.059 3.648"></polygon><polygon points="3.059 2.473 2.983 2.473 2.983 1.766 2.881 1.766 2.881 2.473 2.805 2.473 2.805 1.689 3.059 1.689 3.059 2.473"></polygon><path d="M3.02121,1.76561V1.68937a.31018.31018,0,0,0,.28838-.214.77032.77032,0,0,0,.05406-.18272H2.50056a.77136.77136,0,0,0,.05477.18437.30959.30959,0,0,0,.28763.21232v.07624a.385.385,0,0,1-.35791-.259.84438.84438,0,0,1-.06614-.24895l-.00341-.04126H3.44867l-.00341.04126a.84438.84438,0,0,1-.06614.24895A.385.385,0,0,1,3.02121,1.76561Z"></path><path d="M3.72126,4.8002H2.88564V4.724h.75892a1.33583,1.33583,0,0,0-.09915-.48431,1.20235,1.20235,0,0,0-.21915-.34486,1.12027,1.12027,0,0,0-.32088-.25049L3.037,3.57493a1.17276,1.17276,0,0,1,.34336.266,1.27843,1.27843,0,0,1,.23451.36718,1.4243,1.4243,0,0,1,.10639.55394Z"></path><path d="M2.673,1.25456H2.59671a.14759.14759,0,0,0-.0462-.10742.223.223,0,0,1,0-.31258.14795.14795,0,0,0,0-.21481.223.223,0,0,1,0-.31255.14757.14757,0,0,0,.0462-.1074H2.673A.222.222,0,0,1,2.609.35608a.14793.14793,0,0,0,0,.2148.223.223,0,0,1,0,.31256.148.148,0,0,0,0,.21484A.222.222,0,0,1,2.673,1.25456Z"></path><path d="M2.87213,1.25456H2.79589a.14759.14759,0,0,0-.0462-.10742.223.223,0,0,1,0-.31258.14795.14795,0,0,0,0-.21481.223.223,0,0,1,0-.31255.14757.14757,0,0,0,.0462-.1074h.07624A.222.222,0,0,1,2.8082.35608a.14793.14793,0,0,0,0,.2148.223.223,0,0,1,0,.31256.148.148,0,0,0,0,.21484A.222.222,0,0,1,2.87213,1.25456Z"></path><path d="M3.0713,1.25456H2.99506a.14759.14759,0,0,0-.0462-.10742.223.223,0,0,1,0-.31258.14795.14795,0,0,0,0-.21481.223.223,0,0,1,0-.31255.14757.14757,0,0,0,.0462-.1074H3.0713a.222.222,0,0,1-.06393.15628.14793.14793,0,0,0,0,.2148.223.223,0,0,1,0,.31256.148.148,0,0,0,0,.21484A.222.222,0,0,1,3.0713,1.25456Z"></path><path d="M3.27048,1.25456H3.19424a.14759.14759,0,0,0-.0462-.10742.223.223,0,0,1,0-.31258.14795.14795,0,0,0,0-.21481.223.223,0,0,1,0-.31255.14757.14757,0,0,0,.0462-.1074h.07624a.222.222,0,0,1-.06393.15628.14793.14793,0,0,0,0,.2148.223.223,0,0,1,0,.31256.148.148,0,0,0,0,.21484A.222.222,0,0,1,3.27048,1.25456Z"></path><path d="M2.45608,3.96952a.54247.54247,0,0,1-.33931-.13747.68838.68838,0,0,1-.37919.05667.50611.50611,0,0,1-.4541-.45709.6402.6402,0,0,1,.09044-.411.76391.76391,0,0,1,.39179-.31165c.56953-.21462.69111-.26762.72076-.485a.2928.2928,0,0,0-.09706-.28568.31892.31892,0,0,0-.30673-.03319l-.03031-.07a.393.393,0,0,1,.38311.04239.364.364,0,0,1,.12654.35673c-.03682.27-.20666.334-.76942.546a.68861.68861,0,0,0-.35357.28.56368.56368,0,0,0-.07991.36183.46182.46182,0,0,0,.11857.26087.42459.42459,0,0,0,.26821.13.62692.62692,0,0,0,.31454-.03908.60353.60353,0,0,1-.05179-.0722.5301.5301,0,0,1-.0173-.544.24208.24208,0,0,1,.26621-.09249c.12754.02933.19518.1764.1645.35764a.56779.56779,0,0,1-.19845.3412q-.01767.01438-.03642.0272a.46882.46882,0,0,0,.26921.10208l.001.07623Zm-.26961-.83661a.15648.15648,0,0,0-.13322.06926.45659.45659,0,0,0,.02041.45965.511.511,0,0,0,.05641.07569.46669.46669,0,0,0,.04543-.03264.49054.49054,0,0,0,.1714-.2948c.01993-.11773-.01022-.24849-.10642-.27061A.24139.24139,0,0,0,2.18647,3.13291Z"></path><rect x="2.89178" y="3.60962" width="0.07624" height="1.02326"></rect><path d="M1.424,2.51487a.0325.0325,0,0,1-.02546-.01228L1.32091,2.405A.03252.03252,0,0,1,1.35305,2.353a.186.186,0,0,0,.07133-.03873,2.31535,2.31535,0,0,0,.17842-.17188c.07983-.08133.16239-.16542.21721-.209a.82683.82683,0,0,1,.21955-.125.03253.03253,0,0,1,.03612.01048l.06387.08031a.03251.03251,0,0,1,.00208.03755.82671.82671,0,0,1-.17117.18578c-.05483.0436-.15535.1051-.25257.16458a2.31622,2.31622,0,0,0-.20764.13514.18606.18606,0,0,0-.0538.06078.03252.03252,0,0,1-.01868.02878Zm.03185-.039h0Zm0,0v0Zm0-.00005v0Zm0,0v0Zm0,0v0ZM1.403,2.40376l.01524.01916A.38848.38848,0,0,1,1.46778,2.373,2.24263,2.24263,0,0,1,1.684,2.2316c.09554-.05845.19433-.11889.246-.16a.79077.79077,0,0,0,.1437-.15079l-.0339-.04263a.79408.79408,0,0,0-.17929.106c-.0517.04111-.13282.12376-.21128.20369a2.24259,2.24259,0,0,1-.18642.1788A.38848.38848,0,0,1,1.403,2.40376ZM1.36,2.35527l0,0Zm0,0,0,0Zm0,0,0,0Zm0,0h0Z"></path></svg>