<svg height='100px' width='100px'  fill="#000000" xmlns:dc="http://purl.org/dc/elements/1.1/" xmlns:cc="http://creativecommons.org/ns#" xmlns:rdf="http://www.w3.org/1999/02/22-rdf-syntax-ns#" xmlns:svg="http://www.w3.org/2000/svg" xmlns="http://www.w3.org/2000/svg" xmlns:sodipodi="http://sodipodi.sourceforge.net/DTD/sodipodi-0.dtd" xmlns:inkscape="http://www.inkscape.org/namespaces/inkscape" version="1.1" x="0px" y="0px" viewBox="0 0 100 100"><g transform="translate(0,-952.36218)"><path style="text-indent:0;text-transform:none;direction:ltr;block-progression:tb;baseline-shift:baseline;color:#000000;enable-background:accumulate;" d="m 58.218599,963.08376 c -1.28009,-1.51124 -3.39883,-1.70581 -5.09375,-1.25072 -1.93062,0.53688 -3.66469,1.85409 -5.21875,3.50201 -1.53623,-0.69436 -3.18859,-1.10822 -4.90625,-0.50029 -1.48407,0.72784 -2.36317,1.60754 -2.96875,2.84538 -1.24402,-1.12711 -2.42297,-2.28783 -3.46875,-3.59581 -1.05779,-0.89178 -1.8269,-0.79239 -2.875,-0.25014 -1.62789,1.42521 -3.02718,2.87913 -4.21875,4.3775 -1.56599,-0.71925 -3.1663,-1.33863 -5,-1.28198 -1.95978,0.0605 -3.86173,1.20025 -5.71875,3.00172 -2.12022,-1.05356 -4.41005,-1.22873 -6.28125,-0.12507 -2.02167,1.1924 -3.00426,3.61443 -3.25,6.47245 -2.48471,2.01449 -2.96618,5.13471 -2.5625,7.91078 0.26004,1.70186 0.83799,3.47836 1.75,5.22174 -1.57145,-0.0909 -2.37634,0.98707 -2.40625,1.96992 0.025,1.9658 0.27094,4.79574 0.96875,7.34796 0.3489,1.27609 0.79975,2.47909 1.53125,3.53329 0.42013,0.6055 1.05687,1.138 1.78125,1.5321 1.70659,9.847 4.85866,19.3375 9.5,26.609 4.79316,7.5094 11.38944,12.7625 19.46875,12.8199 l 0,0.031 c 7.75,0.1435 17.75,0.1435 22.375,0 8.42851,0 15.30795,-4.9674 20.15625,-12.4134 4.65776,-7.1534 7.62053,-16.6736 8.96875,-27.0155 0.66765,-0.3534 1.25069,-0.8155 1.625,-1.3758 0.683,-1.0224 1.00259,-2.1694 1.21875,-3.37692 0.43232,-2.41472 0.40625,-5.19754 0.40625,-7.6917 0.005,-0.7272 -0.42049,-1.44136 -1.0625,-1.78227 0.25023,-2.21102 -0.77153,-4.0885 -2.25,-5.44061 0.59334,-0.90923 1.00815,-1.84128 0.96875,-2.87665 -0.065,-1.70791 -1.38357,-3.03887 -2.71875,-3.5958 -2.00277,-0.83541 -4.409,-0.79169 -6.78125,0.0312 -0.48099,-1.78135 -1.13095,-3.49872 -2.5625,-4.75272 -1.03734,-0.90868 -2.75568,-1.35195 -4.25,-0.8755 -0.62623,0.19967 -1.20518,0.56335 -1.78125,0.96931 -1.31331,-2.69214 -3.35584,-4.39392 -5.46875,-5.44062 0.72117,-2.58827 -0.49353,-5.29351 -2.96875,-6.0347 -2.44522,-0.69748 -4.94327,0.38417 -6.90625,1.50091 z m 5.46875,2.28256 c 1.25308,0.33061 0.40162,1.85691 0.125,2.40762 -0.22442,0.45066 -0.27008,0.98748 -0.125,1.46959 -2.63802,0.44506 -4.99564,1.69314 -6.96875,2.93919 -2.1556,-0.84025 -4.64583,-1.29191 -7.3125,-0.65663 -1.62363,0.3868 -3.26839,1.15218 -4.84375,2.31382 l -1.375,-1.68846 c 0.16736,-1.41097 0.1507,-2.72612 1.125,-3.56454 0.49678,-0.17582 1.75622,0.0152 2.9375,0.7817 0.83104,0.55346 2.07482,0.35088 2.6875,-0.43775 1.50817,-1.57026 3.08839,-3.25754 5.28125,-3.3144 0.30511,0.50726 0.55183,1.056 1.01432,1.6161 0.71242,0.52957 1.77768,0.63495 2.48568,0.0723 1.89568,-1.47604 3.97454,-1.98012 4.96875,-1.9386 z m -27.65625,4.44004 2.21875,2.7203 c -0.73218,0.29723 -1.25,1.00555 -1.25,1.84481 0,1.1052 0.89543,2.00114 2,2.00114 0.69035,0 1.29683,-0.37446 1.65625,-0.90676 l 0.96875,1.15691 c -0.21765,0.25322 -0.44329,0.50893 -0.65625,0.78169 -1.84154,-0.033 -3.33378,0.87376 -4.625,1.84481 -0.86649,-2.77141 -0.93523,-5.909 -0.3125,-9.4429 z m -11.4375,1.12564 c 0.69578,-0.0215 1.58235,0.21044 2.625,0.62536 -1.035,1.81141 -1.82423,3.69322 -2.375,5.69076 -2.9906,-0.27986 -6.06936,-0.66402 -9.03125,-0.87551 -0.72346,0.0734 -1.38723,0.57474 -1.65625,1.25072 -1.05123,2.62957 -1.69755,5.04804 -1.40625,7.81697 0.17468,1.66046 0.67367,3.37808 1.46875,5.37808 -2.09241,-2.41081 -3.29401,-5.05668 -3.625,-7.22288 -0.29257,-1.85962 0.046,-3.31806 1.28125,-4.44004 0.66505,-0.32378 1.11858,-1.04228 1.125,-1.78227 0,-2.51812 0.81197,-3.72155 1.5,-4.12737 0.68803,-0.40581 1.70926,-0.45115 3.3125,0.71917 0.81378,0.59228 2.07791,0.43235 2.71875,-0.34395 1.8236,-2.21863 2.95877,-2.65494 4.0625,-2.68904 z m 43.875,1.53213 c 0.77257,0.72 1.41245,1.68139 1.875,3.03298 -0.95311,0.4259 -1.80611,1.14238 -2.6875,1.75101 -0.35941,-0.53231 -0.96589,-0.87551 -1.65625,-0.87551 -1.10457,0 -2,0.89595 -2,2.00115 0,0.41445 0.1281,0.77499 0.34375,1.09438 l -2.53125,1.751 c 0.12025,-0.25721 0.1875,-0.54152 0.1875,-0.84424 0,-1.1052 -0.89543,-2.00114 -2,-2.00114 -1.10457,0 -2,0.89594 -2,2.00114 0,1.10521 0.89543,2.00115 2,2.00115 0.0535,0 0.10384,-0.0271 0.15625,-0.0312 l -9.03125,6.15973 c 0.0422,-0.80764 -0.0677,-1.64679 -0.5625,-2.4389 -0.71744,-1.14857 -2.00819,-1.70902 -3.28125,-1.87607 -0.64524,-0.0847 -1.55006,0.0562 -2.3125,0.0937 0.013,-0.91257 0.16081,-1.92654 0,-2.72031 -0.13589,-0.67077 -0.33875,-1.3394 -0.65625,-1.93861 2.05547,-2.55304 4.13203,-3.73743 6.03125,-4.18989 2.11285,-0.50335 4.10777,-0.10242 5.75,0.71916 0.63378,0.32391 1.44194,0.27415 2.03125,-0.12507 0.55162,-0.36796 1.22645,-0.75136 1.9375,-1.12565 -0.0365,0.15113 -0.0625,0.3067 -0.0625,0.46902 0,1.1052 0.89543,2.00115 2,2.00115 1.10457,0 2,-0.89595 2,-2.00115 0,-0.77962 -0.4435,-1.45194 -1.09375,-1.78227 1.95202,-0.69105 3.66309,-1.14891 5.5625,-1.12559 z m 8.34375,3.37693 c 1.04909,1.5488 1.69898,3.53704 2.03125,5.09667 0.26062,1.23569 1.8799,1.952 2.96875,1.31325 1.7336,-0.73915 4.0197,-1.41196 5.8125,-0.7817 -0.01,0.0202 -0.0894,0.61718 -1.09375,1.59466 -0.84932,0.82782 -0.70334,2.43453 0.28125,3.09552 2.0379,1.236 2.43108,2.72271 1.71875,4.47131 -6.04376,2.39993 -11.55104,4.03962 -17.28125,5.09667 1.9037,-5.51943 2.53109,-12.00846 1.9375,-17.22861 1.72116,-1.33654 2.42617,-1.97236 3.625,-2.65777 z m -24.8125,0.53155 c -1.10457,0 -2,0.89595 -2,2.00115 0,1.1052 0.89543,2.00114 2,2.00114 1.10457,0 2,-0.89594 2,-2.00114 0,-1.1052 -0.89543,-2.00115 -2,-2.00115 z m -4,3.00172 c -1.10457,0 -2,0.89594 -2,2.00115 0,1.1052 0.89543,2.00114 2,2.00114 1.10457,0 2,-0.89594 2,-2.00114 0,-1.10521 -0.89543,-2.00115 -2,-2.00115 z m -28.96875,1.28199 5.03125,0.50028 c -0.31591,2.44358 -0.3697,5.03683 -0.1875,7.84824 -0.5098,0.0913 -1.02253,0.19327 -1.53125,0.31268 z m 21.625,0.71916 c 0.69037,1.22107 0.56554,3.33683 0.375,4.72145 -0.1642,1.21603 1.03466,2.41558 2.25,2.25129 1.2933,-0.16571 2.60181,-0.29698 3.875,-0.12507 -0.11189,1.17054 -0.62817,2.47286 -1,3.4082 -0.48733,1.20586 0.54379,2.74469 1.84375,2.75157 0.77964,-0.031 1.5909,0.24291 2.125,0.4377 0.0292,0.29195 -0.36981,1.54766 -0.84375,2.5327 -10.34306,-0.04 -19.17527,-0.63106 -28.625,-3.37693 2.8117,-1.06368 5.57268,-1.59466 8.34375,-1.59466 0.89546,-0.006 1.74156,-0.68911 1.9375,-1.5634 0.45278,-1.995 0.95952,-3.54569 1.53125,-4.34624 0.57173,-0.80054 1.01273,-1.09437 2.53125,-1.09437 0.58216,-10e-4 1.15828,-0.27191 1.53125,-0.71916 1.21979,-1.3185 2.44656,-2.70214 4.125,-3.28308 z m 12.34375,0 c -1.10457,0 -2,0.89594 -2,2.00114 0,1.1052 0.89543,2.00115 2,2.00115 1.10457,0 2,-0.89595 2,-2.00115 0,-1.1052 -0.89543,-2.00114 -2,-2.00114 z m 15.40625,0.15634 c -1.62152,5.85344 -6.39582,10.94265 -11.09375,15.66521 -1.16832,0.049 -2.36952,0.10331 -3.59375,0.12507 0.30656,-0.81795 0.51734,-1.79642 0.40625,-2.90791 -0.0799,-0.79913 -0.46131,-1.68125 -1.09375,-2.37636 l 6.03125,-4.12736 c 0.23786,0.83927 1.0225,1.46959 1.9375,1.46959 1.10457,0 2,-0.89594 2,-2.00115 0,-0.65674 -0.32413,-1.22978 -0.8125,-1.59466 l 0.90625,-0.62536 c 0.27155,0.13795 0.58086,0.21888 0.90625,0.21888 1.10457,0 2,-0.89595 2,-2.00115 0,-0.0634 0.006,-0.12573 0,-0.18761 z m -11.40625,9.84938 c -1.10457,0 -2,0.89595 -2,2.00115 0,1.1052 0.89543,2.00114 2,2.00114 1.10457,0 2,-0.89594 2,-2.00114 0,-1.1052 -0.89543,-2.00115 -2,-2.00115 z m 32.84375,2.90792 c -0.039,1.44532 0.004,3.0289 -0.1875,4.09609 -0.0944,0.69939 -0.40205,1.38967 -0.65625,2.00119 -14.24979,5.8144 -26.04659,6.9335 -39.09365,7.004 -12.90635,-0.013 -25.90635,-2.014 -37.84375,-7.0353 -0.44676,-0.50295 -0.99541,-1.88527 -1.21875,-2.689 -0.28347,-1.03677 -0.30158,-2.07505 -0.4375,-3.22059 13.99157,5.80709 25.94528,6.91019 40.09375,6.91019 16.3719,0 26.68803,-1.97818 39.34365,-7.06658 z" fill="#000000" fill-opacity="1" stroke="none" marker="none" visibility="visible" display="inline" overflow="visible"></path></g></svg>