<svg height='100px' width='100px'  fill="#000000" xmlns="http://www.w3.org/2000/svg" xmlns:xlink="http://www.w3.org/1999/xlink" version="1.1" x="0px" y="0px" viewBox="0 0 100 100" style="enable-background:new 0 0 100 100;" xml:space="preserve"><path d="M50.7,39.4c4.1,2,9.1,0.3,11.2-3.8c2-4.1,0.3-9.1-3.8-11.2c-0.7-0.3-1.3-0.5-2-0.7c1.8-0.7,3.4-2.1,4.3-4  c2-4.1,0.3-9.1-3.8-11.2c-3.9-1.9-8.6-0.5-10.8,3.2c-0.6-2.3-2.1-4.4-4.4-5.5c-4.1-2-9.1-0.3-11.2,3.8c-1.2,2.4-1.1,5.2,0,7.4  c-3.3-0.3-6.6,1.5-8.1,4.6c-2,4.1-0.3,9.1,3.8,11.2c1.9,0.9,3.9,1.1,5.8,0.6c-0.1,3.2,1.6,6.3,4.6,7.8c4.1,2,8.9,0.4,11.1-3.6  c3.7,14.7,9.7,38.9,13.8,56.6h1.2c-2.6-15.9-7-37.9-13.1-56.1C49.8,38.9,50.2,39.2,50.7,39.4z"></path><path d="M51.7,59.1c0,0-38.3-1.5-26.2-12.8S51.7,59.1,51.7,59.1z"></path><path d="M78.2,53.2C62.7,47.5,59,75.1,59,75.1S93.8,59,78.2,53.2"></path></svg>