<svg height='100px' width='100px'  fill="#000000" xmlns="http://www.w3.org/2000/svg" xmlns:xlink="http://www.w3.org/1999/xlink" version="1.1" x="0px" y="0px" viewBox="0 0 64 64" enable-background="new 0 0 64 64" xml:space="preserve"><g><path d="M50.577,18.746c0.547,0,1.074-0.226,1.449-0.62l3.448-3.621c0.76-0.798,0.729-2.066-0.069-2.827l-1.448-1.379   c-0.768-0.732-2.1-0.697-2.828,0.069l-3.448,3.621c-0.76,0.798-0.729,2.066,0.069,2.827l-1.655,1.738   c0.229-1.055-0.104-2.198-0.987-2.94c-1.013-0.849-2.539-0.861-3.615-0.152c-0.531-0.343-1.081-0.663-1.651-0.96   c0.103-1.309-0.658-2.583-1.953-3.056c-0.33-0.12-0.674-0.181-1.022-0.181c-0.982,0-1.885,0.49-2.438,1.265   c-0.614-0.135-1.236-0.243-1.867-0.323C32.211,10.939,31.059,10,29.68,10c-1.378,0-2.529,0.939-2.879,2.208   c-0.633,0.08-1.254,0.188-1.865,0.323c-0.554-0.775-1.456-1.264-2.438-1.264c-0.35,0-0.695,0.061-1.026,0.181   c-0.753,0.274-1.354,0.825-1.693,1.551c-0.222,0.477-0.3,0.992-0.259,1.502c-0.571,0.298-1.122,0.618-1.651,0.96   c-1.078-0.708-2.604-0.694-3.614,0.154c-0.614,0.515-0.991,1.239-1.061,2.038c-0.046,0.526,0.058,1.039,0.273,1.505   c-0.42,0.455-0.826,0.936-1.215,1.442c-0.246-0.064-0.5-0.1-0.755-0.1c-1.069,0-2.065,0.575-2.601,1.5   c-0.4,0.694-0.507,1.502-0.299,2.276c0.137,0.508,0.408,0.952,0.767,1.317c-0.243,0.58-0.459,1.173-0.648,1.783   c-1.325,0.124-2.432,1.115-2.669,2.456c-0.139,0.789,0.038,1.584,0.497,2.241c0.299,0.427,0.701,0.75,1.158,0.97   C7.688,33.35,7.68,33.666,7.68,34c0,0.335,0.008,0.651,0.021,0.958c-1.176,0.571-1.893,1.861-1.656,3.21   c0.237,1.341,1.339,2.327,2.669,2.453c0.189,0.611,0.406,1.206,0.649,1.786C8.446,43.346,8.21,44.809,8.897,46   c0.534,0.925,1.531,1.5,2.6,1.5c0.257,0,0.512-0.035,0.759-0.101c0.382,0.501,0.785,0.983,1.21,1.447   c-0.543,1.195-0.264,2.653,0.789,3.539c0.539,0.452,1.223,0.7,1.926,0.7c0.617,0,1.203-0.198,1.698-0.54   c0.527,0.34,1.074,0.657,1.642,0.954c-0.1,1.308,0.66,2.581,1.953,3.053c0.33,0.12,0.674,0.18,1.023,0.18   c0.982,0,1.884-0.489,2.439-1.264c0.61,0.135,1.231,0.243,1.864,0.323C27.15,57.061,28.302,58,29.68,58   c1.379,0,2.531-0.939,2.881-2.208c0.632-0.08,1.253-0.188,1.864-0.323c0.555,0.776,1.456,1.265,2.438,1.265   c0.35,0,0.695-0.061,1.026-0.182c1.292-0.471,2.052-1.744,1.95-3.054c0.566-0.295,1.113-0.613,1.641-0.953   c0.496,0.342,1.083,0.541,1.7,0.541c0.703,0,1.388-0.249,1.927-0.702c0.614-0.515,0.99-1.238,1.061-2.036   c0.046-0.527-0.058-1.04-0.273-1.508c0.421-0.456,0.825-0.936,1.214-1.44c0.246,0.064,0.501,0.1,0.757,0.1   c1.069,0,2.065-0.575,2.601-1.5c0.688-1.191,0.451-2.657-0.47-3.595c0.244-0.58,0.46-1.174,0.649-1.783   c1.33-0.125,2.433-1.112,2.672-2.455c0.237-1.35-0.48-2.642-1.659-3.211c0.014-0.304,0.021-0.621,0.021-0.957   c0-0.335-0.008-0.651-0.021-0.956c0.458-0.22,0.86-0.543,1.16-0.971c0.46-0.656,0.637-1.452,0.497-2.243   c-0.238-1.34-1.354-2.329-2.671-2.453c-0.189-0.61-0.405-1.204-0.649-1.784c0.92-0.937,1.157-2.402,0.469-3.596   c-0.534-0.924-1.53-1.499-2.598-1.499c-0.257,0-0.512,0.035-0.758,0.1c-0.03-0.039-0.061-0.077-0.091-0.116l2.18-2.289   C49.571,18.551,50.061,18.746,50.577,18.746z M42.405,17.288c0.001-0.001,0.002-0.001,0.003-0.002   c0.003-0.004,0.003-0.009,0.006-0.014c0,0,0.001-0.001,0.001-0.001c0.19-0.227,0.47-0.357,0.767-0.357   c0.165,0,0.411,0.041,0.64,0.233c0.423,0.355,0.479,0.986,0.124,1.409c-0.004,0.003-0.009,0.004-0.012,0.008   c-0.001,0.001-0.001,0.003-0.003,0.004c-0.189,0.219-0.462,0.347-0.753,0.347c-0.165,0-0.41-0.041-0.64-0.233   c-0.205-0.173-0.331-0.415-0.354-0.681C42.162,17.741,42.241,17.491,42.405,17.288z M35.921,13.962   c0.004-0.014,0.014-0.025,0.018-0.04c0.002-0.008-0.001-0.015,0.001-0.022c0.149-0.38,0.516-0.635,0.926-0.635   c0.115,0,0.229,0.021,0.339,0.06c0.512,0.187,0.776,0.75,0.601,1.264c-0.002,0.004-0.007,0.007-0.009,0.012   c-0.005,0.009-0.003,0.02-0.007,0.029c-0.191,0.487-0.769,0.758-1.266,0.577c-0.252-0.092-0.453-0.277-0.565-0.519   C35.851,14.459,35.842,14.204,35.921,13.962z M29.68,12c0.552,0,1.001,0.449,1.001,1s-0.449,1-1.001,1   c-0.551,0-0.999-0.449-0.999-1S29.129,12,29.68,12z M21.592,13.844c0.113-0.242,0.313-0.425,0.564-0.517   c0.111-0.04,0.226-0.061,0.342-0.061c0.416,0,0.79,0.262,0.935,0.65c0,0.003,0,0.005,0,0.008c0.001,0.005,0.005,0.008,0.006,0.013   c0.179,0.515-0.086,1.081-0.599,1.268c-0.503,0.184-1.078-0.089-1.27-0.578c-0.004-0.009-0.002-0.019-0.007-0.028   c-0.002-0.004-0.006-0.007-0.008-0.011C21.471,14.344,21.481,14.08,21.592,13.844z M15.54,17.148   c0.23-0.193,0.476-0.234,0.641-0.234c0.295,0,0.573,0.129,0.764,0.354c0.003,0.005,0.003,0.011,0.007,0.017   c0.002,0.003,0.005,0.003,0.007,0.006c0.337,0.422,0.281,1.039-0.135,1.388c-0.23,0.193-0.476,0.234-0.642,0.234   c-0.292,0-0.564-0.128-0.754-0.349c-0.001,0-0.001-0.001-0.001-0.002c-0.002-0.002-0.006-0.003-0.009-0.006   c0,0-0.001-0.001-0.002-0.001c-0.172-0.204-0.254-0.463-0.23-0.729C15.209,17.561,15.335,17.32,15.54,17.148z M10.628,23.001   c0.179-0.309,0.511-0.501,0.869-0.501c0.173,0,0.338,0.045,0.49,0.13c0.001,0.001,0.001,0.002,0.002,0.002   c0.003,0.002,0.007,0.003,0.011,0.005c0.473,0.278,0.635,0.886,0.36,1.362c-0.262,0.452-0.875,0.626-1.344,0.372   c-0.004-0.002-0.006-0.006-0.011-0.008c-0.005-0.002-0.011-0.001-0.017-0.004c-0.228-0.134-0.392-0.346-0.46-0.602   C10.459,23.501,10.495,23.232,10.628,23.001z M9,29.354c0.058,0,0.117,0.005,0.175,0.015c0.262,0.046,0.491,0.192,0.645,0.411   c0.153,0.219,0.212,0.484,0.166,0.748c-0.092,0.527-0.59,0.892-1.131,0.81c-0.004,0-0.008-0.003-0.013-0.004   c-0.006,0-0.012,0.002-0.019,0.002c-0.261-0.047-0.488-0.191-0.64-0.409c-0.153-0.219-0.212-0.484-0.166-0.746   C8.1,29.702,8.514,29.354,9,29.354z M9.174,38.631c-0.551,0.104-1.063-0.274-1.158-0.811c-0.095-0.538,0.264-1.05,0.798-1.154   c0.009,0,0.018,0,0.027-0.001c0.01-0.001,0.017-0.007,0.026-0.008c0.045-0.006,0.091-0.012,0.135-0.012   c0.485,0,0.898,0.348,0.982,0.828C10.081,38.016,9.717,38.536,9.174,38.631z M12.461,44.759c-0.069,0.258-0.235,0.473-0.465,0.607   c-0.467,0.27-1.1,0.094-1.366-0.365c-0.274-0.475-0.111-1.083,0.361-1.362c0.005-0.002,0.01-0.001,0.015-0.003   c0.007-0.003,0.011-0.01,0.018-0.013c0.146-0.079,0.302-0.122,0.468-0.122c0.358,0,0.69,0.191,0.869,0.501   C12.494,44.232,12.53,44.501,12.461,44.759z M16.961,50.706c-0.002,0.004-0.007,0.005-0.009,0.009   c-0.004,0.005-0.004,0.012-0.008,0.018c-0.189,0.224-0.467,0.354-0.763,0.354c-0.166,0-0.412-0.041-0.64-0.232   c-0.422-0.355-0.477-0.988-0.124-1.411c0.189-0.226,0.469-0.355,0.766-0.355c0.166,0,0.411,0.04,0.642,0.235   c0.205,0.171,0.33,0.412,0.353,0.677C17.201,50.256,17.122,50.504,16.961,50.706z M23.44,54.061   c-0.001,0.005-0.005,0.009-0.007,0.014c-0.001,0.003,0,0.005,0,0.008c-0.187,0.498-0.778,0.771-1.274,0.591   c-0.512-0.188-0.776-0.751-0.602-1.265c0.002-0.004,0.005-0.006,0.007-0.01c0.005-0.01,0.003-0.021,0.008-0.031   c0.148-0.38,0.517-0.636,0.928-0.636c0.115,0,0.229,0.021,0.342,0.062c0.25,0.091,0.451,0.274,0.564,0.516   C23.516,53.548,23.527,53.813,23.44,54.061z M29.68,56c-0.551,0-0.999-0.449-0.999-1s0.448-1,0.999-1c0.552,0,1.001,0.449,1.001,1   S30.231,56,29.68,56z M37.205,54.673c-0.511,0.185-1.091-0.092-1.277-0.591c0-0.002,0.001-0.004,0-0.007   c-0.001-0.004-0.005-0.007-0.006-0.012c-0.087-0.248-0.076-0.514,0.035-0.752c0.112-0.242,0.313-0.425,0.565-0.517   c0.11-0.04,0.225-0.061,0.341-0.061c0.408,0,0.774,0.254,0.924,0.632c0.005,0.011,0.004,0.023,0.009,0.034   c0.003,0.005,0.007,0.009,0.009,0.014C37.979,53.926,37.716,54.487,37.205,54.673z M43.822,50.853   c-0.23,0.193-0.477,0.234-0.642,0.234c-0.297,0-0.575-0.129-0.765-0.354c-0.004-0.006-0.004-0.013-0.008-0.019   c-0.002-0.003-0.006-0.005-0.008-0.008c-0.16-0.202-0.24-0.45-0.218-0.707c0.023-0.266,0.149-0.507,0.355-0.679   c0.229-0.193,0.475-0.234,0.64-0.234c0.291,0,0.563,0.128,0.754,0.347c0.001,0.001,0.001,0.002,0.002,0.003   c0.004,0.003,0.009,0.004,0.012,0.008c0.172,0.205,0.254,0.464,0.23,0.729C44.152,50.44,44.026,50.682,43.822,50.853z M45.269,43   c-0.4,0.694-0.507,1.503-0.3,2.277c0.099,0.367,0.266,0.701,0.484,0.999c-0.311,0.397-0.633,0.779-0.964,1.142   c-1.037-0.481-2.342-0.38-3.236,0.372c-0.615,0.515-0.992,1.238-1.063,2.037c-0.033,0.377,0.01,0.749,0.113,1.102   c-0.413,0.262-0.838,0.509-1.277,0.742c-0.556-0.581-1.33-0.936-2.163-0.936c-0.35,0-0.695,0.061-1.025,0.181   c-0.754,0.274-1.355,0.825-1.694,1.552c-0.161,0.345-0.248,0.71-0.271,1.079c-0.476,0.102-0.958,0.185-1.448,0.25   C31.958,52.74,30.905,52,29.68,52c-1.225,0-2.277,0.74-2.742,1.795c-0.491-0.065-0.973-0.148-1.448-0.25   c-0.023-0.369-0.111-0.735-0.272-1.08c-0.339-0.727-0.94-1.277-1.691-1.549c-0.331-0.121-0.676-0.183-1.027-0.183   c-0.835,0-1.61,0.355-2.166,0.936c-0.439-0.233-0.864-0.479-1.275-0.741c0.104-0.354,0.146-0.726,0.113-1.104   c-0.07-0.798-0.447-1.521-1.06-2.034c-0.896-0.755-2.205-0.855-3.243-0.373c-0.334-0.369-0.653-0.75-0.958-1.145   c0.218-0.296,0.385-0.63,0.482-0.996c0.208-0.774,0.101-1.583-0.3-2.275c-0.533-0.926-1.529-1.501-2.601-1.501   c-0.11,0-0.215,0.031-0.324,0.043c-0.188-0.457-0.358-0.922-0.51-1.4c0.961-0.641,1.509-1.809,1.296-3.015   c-0.21-1.203-1.117-2.135-2.26-2.404C9.686,34.491,9.68,34.253,9.68,34c0-0.257,0.006-0.5,0.015-0.736   c1.142-0.271,2.048-1.188,2.259-2.388c0.14-0.789-0.037-1.585-0.497-2.242c-0.219-0.312-0.492-0.571-0.799-0.775   c0.152-0.478,0.322-0.944,0.51-1.4c0.108,0.012,0.214,0.043,0.324,0.043c1.07,0,2.066-0.575,2.6-1.5   c0.613-1.062,0.498-2.344-0.185-3.275c0.306-0.393,0.624-0.77,0.949-1.127c0.408,0.202,0.858,0.315,1.326,0.315   c0.704,0,1.388-0.25,1.927-0.702c0.939-0.788,1.27-2.032,0.948-3.14c0.412-0.262,0.836-0.508,1.276-0.741   c0.556,0.581,1.331,0.937,2.166,0.937c0.35,0,0.694-0.061,1.025-0.182c1.152-0.42,1.889-1.478,1.963-2.63   c0.476-0.102,0.958-0.185,1.45-0.25C27.403,15.26,28.455,16,29.68,16c1.226,0,2.278-0.74,2.744-1.795   c0.49,0.065,0.972,0.148,1.451,0.25c0.022,0.369,0.11,0.734,0.271,1.079c0.339,0.725,0.939,1.276,1.693,1.552   c0.33,0.121,0.675,0.182,1.025,0.182c0.834,0,1.608-0.355,2.164-0.936c0.439,0.233,0.864,0.479,1.276,0.742   c-0.103,0.353-0.146,0.724-0.112,1.101c0.07,0.798,0.446,1.521,1.06,2.037c0.539,0.453,1.223,0.702,1.927,0.702   c0.468,0,0.918-0.113,1.326-0.314c0.326,0.358,0.644,0.735,0.949,1.127c-0.218,0.296-0.385,0.631-0.483,0.997   c-0.207,0.773-0.102,1.582,0.299,2.277c0.535,0.925,1.531,1.5,2.601,1.5c0.109,0,0.215-0.031,0.323-0.043   c0.188,0.458,0.358,0.924,0.511,1.402c-0.308,0.204-0.58,0.462-0.798,0.773c-0.46,0.656-0.637,1.453-0.497,2.242   c0.211,1.2,1.116,2.116,2.257,2.388c0.009,0.236,0.015,0.479,0.015,0.738c0,0.256-0.006,0.495-0.015,0.729   c-1.136,0.271-2.046,1.198-2.257,2.396c-0.141,0.788,0.035,1.583,0.494,2.24c0.218,0.313,0.491,0.571,0.8,0.777   c-0.152,0.478-0.321,0.944-0.511,1.402c-0.108-0.012-0.214-0.043-0.323-0.043C46.8,41.5,45.804,42.075,45.269,43z M48.733,45   c-0.265,0.459-0.893,0.631-1.357,0.37c-0.001,0-0.002-0.002-0.003-0.002c-0.004-0.002-0.008-0.003-0.012-0.005   c-0.228-0.135-0.393-0.348-0.461-0.603c-0.068-0.258-0.033-0.527,0.101-0.758c0.178-0.309,0.511-0.5,0.867-0.5   c0.165,0,0.321,0.043,0.467,0.121c0.007,0.004,0.011,0.011,0.019,0.014c0.006,0.003,0.013,0.001,0.02,0.004   c0.228,0.134,0.393,0.347,0.461,0.603C48.902,44.5,48.867,44.769,48.733,45z M50.189,38.631c-0.265-0.046-0.495-0.193-0.648-0.413   c-0.152-0.218-0.21-0.482-0.163-0.746c0.084-0.479,0.496-0.826,0.98-0.826c0.046,0,0.092,0.006,0.138,0.012   c0.008,0.001,0.014,0.006,0.021,0.006c0.01,0.001,0.019,0,0.028,0.001c0.536,0.101,0.896,0.615,0.802,1.152   C51.252,38.356,50.739,38.728,50.189,38.631z M49.543,29.78c0.153-0.218,0.383-0.364,0.646-0.41   c0.06-0.011,0.119-0.016,0.177-0.016c0.483,0,0.896,0.348,0.981,0.825c0.046,0.263-0.013,0.528-0.166,0.747   c-0.152,0.218-0.382,0.363-0.644,0.41c-0.008,0-0.014-0.002-0.021-0.002c-0.003,0-0.005,0.002-0.008,0.002   c-0.543,0.082-1.039-0.282-1.132-0.809C49.331,30.265,49.39,29.999,49.543,29.78z M47.369,22.635c0.001,0,0.003-0.001,0.004-0.002   v0c0.153-0.088,0.319-0.133,0.494-0.133c0.356,0,0.688,0.191,0.865,0.498c0.275,0.476,0.113,1.085-0.359,1.362   c-0.006,0.003-0.013,0.002-0.02,0.005c-0.005,0.002-0.007,0.006-0.012,0.009c-0.467,0.249-1.081,0.077-1.34-0.373   c-0.134-0.232-0.17-0.502-0.101-0.76C46.971,22.984,47.136,22.77,47.369,22.635z M52.577,11.747l1.448,1.38l-3.445,3.619   c0,0-0.001,0-0.003,0l0.001,0.001l-1.448-1.38L52.577,11.747z"></path></g></svg>