<svg height='100px' width='100px'  fill="#000000" xmlns="http://www.w3.org/2000/svg" xmlns:xlink="http://www.w3.org/1999/xlink" version="1.1" x="0px" y="0px" viewBox="0 0 64 64" style="enable-background:new 0 0 64 64;" xml:space="preserve"><g><path d="M38.8,12.9l-1.5-1.4l4.6-4.6c1.6-1.6,1.6-4.2,0-5.8s-4.2-1.6-5.8,0l-4.6,4.6l-1.4-1.4c-0.4-0.4-1-0.4-1.4,0l-4.1,4.1   c-0.4,0.4-0.4,1,0,1.4l2.2,2.2L3.6,35.3c-0.4,0.4-0.4,1,0,1.4l-0.1,0.1c-0.1,0-0.1,0-0.2,0c-0.6,0.1-1.2,0.3-1.7,0.8   s-0.8,1.2-0.8,1.9s0.3,1.4,0.8,1.9s1.2,0.8,1.9,0.8s1.5-0.2,2-0.7c0.4-0.4,0.7-0.9,0.8-1.5c0.1-0.1,0.2-0.3,0.2-0.4   c0.2,0.2,0.4,0.3,0.7,0.3s0.5-0.1,0.7-0.3l23.3-23.3l2.1,2.1c0.2,0.2,0.5,0.3,0.7,0.3s0.5-0.1,0.7-0.3l4.1-4.1   c0.2-0.2,0.3-0.4,0.3-0.7C39.1,13.3,39,13.1,38.8,12.9z M4.3,39.6c0,0.2-0.1,0.3-0.2,0.5c-0.3,0.3-0.7,0.3-1,0   C3,40,2.9,39.8,2.9,39.6s0.1-0.4,0.2-0.5c0.1-0.1,0.3-0.2,0.5-0.2c0.4,0,0.7-0.1,1-0.3C4.4,38.9,4.3,39.2,4.3,39.6z M37.6,2.6   c0.8-0.8,2.1-0.8,2.9,0c0.8,0.8,0.8,2.1,0,2.9l-4.6,4.6l-1.5-1.5L33,7.2L37.6,2.6z M7.1,37.5L5.7,36l22.5-22.5l1.4,1.4L7.1,37.5z    M33.9,16.3l-7.1-7.1l2.7-2.7l7.1,7.1L33.9,16.3z"></path><path d="M55.3,38.6c0,0-2.3,0.9-3.7,2.2c-0.6,0.6-1,1.2-1.3,1.6c0.2-0.6,0.4-1.7,0.4-3c0-2.4-1.2-5.3-1.2-5.3s-1.2,2.9-1.2,5.3   c0,1.3,0.2,2.4,0.4,3c-0.3-0.4-0.7-1-1.3-1.6c-1.4-1.3-3.7-2.2-3.7-2.2s1,2.3,2.4,3.6c0.5,0.5,1.1,0.9,1.5,1.2c-0.1,0-0.3,0-0.5,0   c-1.5,0-3.2,0.7-3.2,0.7s1.8,0.6,3.3,0.6c0.7,0,1.3-0.1,1.7-0.2c-0.1,0.1-0.2,0.2-0.3,0.3c-0.5,0.5-0.9,1.4-0.9,1.4s0.9-0.4,1.4-1   c0.3-0.3,0.4-0.5,0.5-0.7c0.1,0.2,0.3,0.4,0.5,0.7c0.5,0.5,1.4,1,1.4,1s-0.4-0.9-0.9-1.4c-0.1-0.1-0.2-0.2-0.3-0.3   c0.4,0.1,1,0.2,1.7,0.2c1.5,0,3.3-0.6,3.3-0.6s-1.8-0.6-3.2-0.7c-0.2,0-0.3,0-0.5,0c0.4-0.3,1-0.7,1.5-1.2   C54.3,41,55.3,38.6,55.3,38.6z"></path><path d="M57.2,22.8l-0.1-0.1c-0.7-0.3-1.1-1-1.1-1.7v-3.6c0-0.6-0.4-1-1-1h-0.3v-1c0.4-0.1,0.7-0.5,0.7-0.9s-0.3-0.8-0.7-0.9v-2   c0-0.6-0.4-1-1-1h-8.5c-0.6,0-1,0.4-1,1v2c-0.4,0.1-0.7,0.5-0.7,0.9s0.3,0.8,0.7,0.9v1h-0.3c-0.6,0-1,0.4-1,1V21   c0,0.7-0.4,1.4-1.1,1.7l-0.1,0.1C40,23.6,39,25.3,39,27.2v34.4c0,0.4,0.3,0.8,0.7,0.9c0.2,0.1,4.3,1.5,9.8,1.5s9.6-1.5,9.8-1.5   c0.4-0.1,0.7-0.5,0.7-0.9V27.1C59.9,25.3,58.9,23.6,57.2,22.8z M46.2,12.6h6.5v0.9h-6.5V12.6z M46.2,15.5h6.5v0.9h-6.5V15.5z    M58,60.8L58,60.8c-1.4,0.4-4.6,1.2-8.5,1.2s-7.1-0.8-8.4-1.2V27.1c0-1.1,0.6-2.1,1.6-2.6l0.1-0.1c1.3-0.7,2.2-2,2.2-3.5v-2.6h0.3   h8.5h0.3V21c0,1.5,0.8,2.8,2.2,3.5l0.1,0.1c1,0.5,1.6,1.5,1.6,2.6C58,27.2,58,60.8,58,60.8z"></path></g></svg>