<svg height='100px' width='100px'  fill="#000000" xmlns="http://www.w3.org/2000/svg" xmlns:xlink="http://www.w3.org/1999/xlink" xml:space="preserve" style="shape-rendering:geometricPrecision;text-rendering:geometricPrecision;image-rendering:optimizeQuality;" viewBox="0 0 2.26737 2.94446" x="0px" y="0px" fill-rule="evenodd" clip-rule="evenodd"><defs><style type="text/css">
   
    .fil0 {fill:#000000}
   
  </style></defs><g><path class="fil0" d="M1.33196 2.11347c0.0899943,-0.704448 0.179989,-1.40891 0.26997,-2.11337 0.109148,-0.0043773 0.126002,0.129711 0.124283,0.181423 -0.0251633,0.75773 -0.0406693,1.51576 -0.0610101,2.27364 -0.041572,-0.137291 -0.137007,-0.239564 -0.291066,-0.303728 -0.0258063,-0.00383323 -0.0388763,-0.0172372 -0.0421779,-0.0379613zm-1.18431 -1.90353c0.667006,-0.203099 1.05076,0.0594768 1.3836,-0.00422891 -0.0801515,0.635561 -0.160291,1.27112 -0.240442,1.90668 0.00103868,0.0298868 0.00140964,0.0604413 0.0253117,0.0674895 0.0971661,0.0404962 0.185466,0.0986994 0.265754,0.172953 0.0894749,0.0962016 0.0786182,0.186122 0.0445396,0.242285 -0.0657831,0.108406 -0.277934,0.144723 -0.42048,0.112944 -0.219805,-0.0489911 -0.571064,-0.128079 -0.896703,-0.0864825 -0.107776,0.0137749 -0.212756,0.052033 -0.30923,0.0940253 0.0210951,-0.787419 0.0421902,-1.57484 0.0632853,-2.36226 0.00249778,-0.0670196 0.0141211,-0.127201 0.0843681,-0.143412zm1.62196 0.233073l0 -0.0358469c0.133569,-0.000704819 0.267151,-0.00140964 0.400733,-0.00211446 0.0255342,0.00248541 0.0419677,0.0185726 0.0337448,0.0717061l0.063273 2.45927c-0.714303,0.00281928 -1.42859,0.00562619 -2.1429,0.0084331 -0.0787172,-0.00278218 -0.095435,-0.13561 -0.0196978,-0.18533 0.0551985,-0.0362425 0.127251,-0.045195 0.188422,-0.063545 -0.0608618,0.0287863 -0.126694,0.050747 -0.161342,0.0970177 -0.0268821,0.0379242 -0.0128846,0.0549141 0.0137007,0.0590564l2.01214 0 -0.0548275 -2.40865 -0.333243 0z"></path></g></svg>