<svg height='100px' width='100px'  fill="#000000" xmlns="http://www.w3.org/2000/svg" data-name="Layer 1" viewBox="0 0 128 128" x="0px" y="0px"><title>City Elements 02 solid</title><path d="M42.13,24.84a12.222,12.222,0,0,0,2.1-1.22c5.23-3.85,5.75-10.88,5.77-11.18a1.99871,1.99871,0,0,0-1.67-2.1c-5.3-.88-9.64-.02-12.91,2.55C30.52,16.75,30.02,23.02,30,23.29c0,.05.01.1.01.15A19.06794,19.06794,0,0,0,15.43,38h4.13a14.97789,14.97789,0,0,1,28.88,0h4.13A19.09862,19.09862,0,0,0,42.13,24.84Z"></path><path d="M104.38,9.46a2.0027,2.0027,0,0,0-2.22-1.44c-5.09.76-8.79,2.87006-10.99,6.26-3.51,5.4-1.73,11.98-1.65,12.26A2.00122,2.00122,0,0,0,91.45,28h.14c5.09-.37,8.81995-2.19,11.09-5.42C106.5,17.12,104.47,9.77,104.38,9.46Z"></path><path d="M124,42H4a4.00529,4.00529,0,0,0-4,4v6a3.99891,3.99891,0,0,0,4,4h6.74l11.55,59.12a6.01013,6.01013,0,0,0,5.9,4.88H99.81a5.99223,5.99223,0,0,0,5.89-4.87L117.26,56H124a3.99891,3.99891,0,0,0,4-4V46A4.00529,4.00529,0,0,0,124,42Zm-22.22,72.37A2.00347,2.00347,0,0,1,99.81,116H28.19a2.0027,2.0027,0,0,1-1.97-1.64L25.76,112h76.48ZM36,88V74a2,2,0,0,1,4,0V88a2,2,0,0,1-4,0Zm38.31-2.21a1.99633,1.99633,0,0,1,.13,2.9l-3.55,3.69a1.98872,1.98872,0,0,1-2.75.13l-5.41-4.72-1.04,2.53a2.01357,2.01357,0,0,1-1.85,1.24h-.07a2.00143,2.00143,0,0,1-1.83-1.37L53.1,75.63A2.00592,2.00592,0,0,1,55,73a1.84154,1.84154,0,0,1,.41.04l15.64,3.31a1.996,1.996,0,0,1,.45,3.76l-2.39,1.14ZM88,88V74a2,2,0,0,1,4,0V88a2,2,0,0,1-4,0Zm36-36H4V46H124Z"></path><path d="M68.72168,14.75884a5.89255,5.89255,0,0,1,3.77246-2.63177,5.74576,5.74576,0,0,1,4.41211.85838l1.38477.92332a6.22033,6.22033,0,0,1,1.7334,8.48515l-9.96027,15.608h4.74445l8.58691-13.45622a10.2404,10.2404,0,0,0-2.88574-13.965L79.125,9.6574a9.721,9.721,0,0,0-7.4541-1.44479A9.86109,9.86109,0,0,0,65.35059,12.607L53.91766,30.52269A22.88092,22.88092,0,0,1,55.8714,34.8963Z"></path><path d="M90.236,38.00194H94.442a15.0684,15.0684,0,0,0-8.62506-9.81465l-2.1933,3.43711A11.05583,11.05583,0,0,1,90.236,38.00194Z"></path><path d="M95.00311,30.38738A19.00243,19.00243,0,0,1,97.23462,34.054c.2533-.02435.50574-.052.76538-.052a7.99834,7.99834,0,0,1,6.91754,3.99991h4.38239a11.96044,11.96044,0,0,0-14.29681-7.61457Z"></path></svg>