<svg height='100px' width='100px'  fill="#000000" xmlns:x="http://ns.adobe.com/Extensibility/1.0/" xmlns:i="http://ns.adobe.com/AdobeIllustrator/10.0/" xmlns:graph="http://ns.adobe.com/Graphs/1.0/" xmlns="http://www.w3.org/2000/svg" xmlns:xlink="http://www.w3.org/1999/xlink" version="1.1" x="0px" y="0px" viewBox="0 0 64 64" enable-background="new 0 0 64 64" xml:space="preserve"><metadata><sfw xmlns="http://ns.adobe.com/SaveForWeb/1.0/"><slices></slices><sliceSourceBounds height="16384" width="16389" x="-8165" y="-8160" bottomLeftOrigin="true"></sliceSourceBounds></sfw></metadata><g><g><path d="M58,11H6c-0.552,0-1,0.448-1,1v32c0,0.553,0.448,1,1,1h25v6h-7c-0.552,0-1,0.447-1,1s0.448,1,1,1h16c0.553,0,1-0.447,1-1    s-0.447-1-1-1h-7v-6h25c0.553,0,1-0.447,1-1V12C59,11.448,58.553,11,58,11z M57,43H7V13h50V43z"></path><path d="M10,41h44c0.553,0,1-0.447,1-1V16c0-0.552-0.447-1-1-1H10c-0.552,0-1,0.448-1,1v24C9,40.553,9.448,41,10,41z M11,17h42v22    H11V17z"></path><path d="M26.707,25.293c-0.391-0.391-1.023-0.391-1.414,0l-2,2c-0.391,0.391-0.391,1.023,0,1.414l2,2    C25.488,30.902,25.744,31,26,31s0.512-0.098,0.707-0.293c0.391-0.391,0.391-1.023,0-1.414L25.414,28l1.293-1.293    C27.098,26.316,27.098,25.684,26.707,25.293z"></path><path d="M38.707,25.293c-0.391-0.391-1.023-0.391-1.414,0s-0.391,1.023,0,1.414L38.586,28l-1.293,1.293    c-0.391,0.391-0.391,1.023,0,1.414C37.488,30.902,37.744,31,38,31s0.512-0.098,0.707-0.293l2-2c0.391-0.391,0.391-1.023,0-1.414    L38.707,25.293z"></path><path d="M34.447,23.105c-0.494-0.247-1.094-0.047-1.342,0.447l-4,8c-0.247,0.494-0.047,1.095,0.447,1.342    C29.696,32.966,29.849,33,29.999,33c0.367,0,0.72-0.202,0.896-0.553l4-8C35.142,23.953,34.941,23.353,34.447,23.105z"></path></g></g></svg>