<svg height='100px' width='100px'  fill="#000000" xmlns="http://www.w3.org/2000/svg" xmlns:xlink="http://www.w3.org/1999/xlink" version="1.1" x="0px" y="0px" viewBox="0 0 66 66" enable-background="new 0 0 66 66" xml:space="preserve"><g><g><g><g><path d="M23.89,53.3904c0,0.55-0.45,1-1,1h-5.27c-0.5523,0-1-0.4477-1-1v0c0-0.5523,0.4477-1,1-1h5.27      C23.44,52.3904,23.89,52.8404,23.89,53.3904z"></path></g><g><path d="M23.89,40.9283c0,0.55-0.45,1-1,1h-5.27c-0.5523,0-1-0.4477-1-1v0c0-0.5523,0.4477-1,1-1h5.27      C23.44,39.9283,23.89,40.3782,23.89,40.9283z"></path></g><g><g><path d="M48.9225,46.9536v3.988c0,0.5523,0.4477,1,1,1l0,0c0.5523,0,1-0.4477,1-1v-3.988c0-0.5523-0.4477-1-1-1l0,0       C49.3702,45.9536,48.9225,46.4013,48.9225,46.9536z"></path></g></g></g><g><path d="M63.37,28.7704H24.9505v-0.9907l1.6117-1.4673v0.3677c0,0.3588,0.2955,0.6473,0.6473,0.6473     c0.3588,0,0.6544-0.2885,0.6544-0.6473v-0.8693c0.0944-0.0688,0.1736-0.1479,0.2424-0.2424h0.8693     c0.3588,0,0.6473-0.2955,0.6473-0.6473c0-0.3588-0.2885-0.6544-0.6473-0.6544h-0.8672     c-0.0693-0.0947-0.1491-0.1742-0.2445-0.2434v-0.8683c0-0.3588-0.2955-0.6473-0.6544-0.6473     c-0.3518,0-0.6473,0.2885-0.6473,0.6473v0.8662c-0.0958,0.0696-0.1758,0.1497-0.2455,0.2455h-0.8662     c-0.3588,0-0.6473,0.2955-0.6473,0.6544c0,0.3201,0.2428,0.5819,0.5561,0.6287l-0.4844,0.441     c-0.0653-0.0878-0.1649-0.1484-0.2827-0.1484H24.441v-0.8661h-0.2284v-6.843c0-1.5208,1.2374-2.7583,2.7583-2.7583     c1.5218,0,2.7593,1.2375,2.7593,2.7583v0.3881h-0.0468c-0.1584,0-0.2868,0.1284-0.2868,0.2868v0.9614     c0,0.1584,0.1284,0.2868,0.2868,0.2868h2.0811c0.1584,0,0.2868-0.1284,0.2868-0.2868v-0.9614     c0-0.1584-0.1284-0.2868-0.2868-0.2868h-0.0467v-0.3881c0-2.6166-2.1294-4.746-4.7469-4.746c-2.6166,0-4.746,2.1294-4.746,4.746     v6.843h-0.2284v0.8661h-0.1512c-0.1179,0-0.2174,0.0606-0.2827,0.1484l-0.4844-0.441c0.3133-0.0468,0.5561-0.3086,0.5561-0.6287     c0-0.3588-0.2885-0.6544-0.6473-0.6544h-0.8662c-0.0696-0.0958-0.1497-0.1758-0.2455-0.2455v-0.8662     c0-0.3588-0.2955-0.6473-0.6473-0.6473c-0.3588,0-0.6544,0.2885-0.6544,0.6473v0.8683     c-0.0954,0.0692-0.1752,0.1487-0.2445,0.2434H17.462c-0.3588,0-0.6473,0.2955-0.6473,0.6544     c0,0.3518,0.2885,0.6473,0.6473,0.6473h0.8693c0.0688,0.0944,0.1479,0.1736,0.2424,0.2424v0.8693     c0,0.3588,0.2955,0.6473,0.6544,0.6473c0.3518,0,0.6473-0.2885,0.6473-0.6473v-0.3677l1.6117,1.4673v0.9907H2.62     c-0.9,0-1.62,0.73-1.62,1.6299v3.28c0,0.9,0.72,1.62,1.62,1.62h1.3v28.57c0,0.6,0.49,1.09,1.09,1.09h2.92     c0.6,0,1.08-0.4901,1.08-1.09v-1.21h47.97v1.21c0,0.6,0.49,1.09,1.08,1.09h2.92c0.6,0,1.09-0.4901,1.09-1.09v-28.57h1.3     c0.9,0,1.63-0.72,1.63-1.62v-3.28C65,29.5004,64.27,28.7704,63.37,28.7704z M29.91,59.0104c0,0.64-0.52,1.16-1.15,1.16H11.75     c-0.64,0-1.16-0.52-1.16-1.16v-7.66c0-0.64,0.52-1.16,1.16-1.16h17.0099c0.63,0,1.15,0.52,1.15,1.16V59.0104z M30.11,46.5504     c0,0.64-0.52,1.16-1.16,1.16h-17c-0.64,0-1.16-0.52-1.16-1.16v-7.66c0-0.64,0.52-1.16,1.16-1.16h17c0.64,0,1.16,0.52,1.16,1.16     V46.5504z M53.2,58.4204c0,1.02-0.84,1.85-1.86,1.85h-12.7c-1.03,0-1.86-0.83-1.86-1.85v-18.93c0-1.03,0.83-1.86,1.86-1.86h12.7     c1.02,0,1.86,0.83,1.86,1.86V58.4204z"></path><path d="M42.4491,5.2971c0.1283,0.0235,0.2261,0.1213,0.2496,0.2496c0.1006,0.5515,0.2847,1.082,0.5524,1.5546     c0.1184,0.2091,0.425,0.2091,0.5434,0c0.2676-0.4726,0.4517-1.0031,0.5524-1.5546c0.0234-0.1283,0.1213-0.2261,0.2496-0.2496     c0.5508-0.101,1.0807-0.2867,1.5528-0.553c0.2095-0.1182,0.2097-0.4251,0.0004-0.5435c-0.4722-0.2672-1.0021-0.451-1.553-0.5516     c-0.1284-0.0234-0.2263-0.1214-0.2498-0.2498c-0.1006-0.5515-0.2848-1.0819-0.5524-1.5544c-0.1184-0.2091-0.425-0.209-0.5434,0     c-0.2676,0.4725-0.4517,1.003-0.5524,1.5544c-0.0234,0.1284-0.1214,0.2263-0.2498,0.2498     c-0.5509,0.1005-1.0808,0.2844-1.553,0.5516c-0.2093,0.1184-0.2091,0.4254,0.0004,0.5435     C41.3684,5.0103,41.8983,5.1961,42.4491,5.2971z"></path><path d="M59.6158,23.8365c0.1215,0.0223,0.2141,0.1149,0.2363,0.2364c0.0953,0.5222,0.2696,1.0244,0.5229,1.4717     c0.1121,0.1979,0.4023,0.1979,0.5145,0c0.2534-0.4474,0.4277-0.9496,0.5229-1.4717c0.0222-0.1215,0.1148-0.2141,0.2363-0.2364     c0.5215-0.0956,1.0231-0.2714,1.4701-0.5235c0.1983-0.1118,0.1985-0.4025,0.0003-0.5145     c-0.447-0.2529-0.9487-0.427-1.4703-0.5222c-0.1215-0.0222-0.2142-0.1149-0.2365-0.2365     c-0.0953-0.5221-0.2696-1.0242-0.5229-1.4716c-0.1121-0.1979-0.4024-0.1979-0.5145,0c-0.2534,0.4474-0.4277,0.9495-0.5229,1.4716     c-0.0222,0.1216-0.1149,0.2143-0.2365,0.2365c-0.5215,0.0952-1.0233,0.2693-1.4703,0.5222     c-0.1981,0.1121-0.1979,0.4027,0.0004,0.5145C58.5927,23.565,59.0943,23.7409,59.6158,23.8365z"></path><path d="M39.9109,23.4777c0.1215,0.0223,0.2141,0.1149,0.2363,0.2364c0.0953,0.5221,0.2696,1.0243,0.5229,1.4717     c0.1121,0.1979,0.4023,0.1979,0.5145,0c0.2534-0.4474,0.4277-0.9496,0.5229-1.4717c0.0222-0.1215,0.1148-0.2141,0.2363-0.2364     c0.5215-0.0956,1.0231-0.2714,1.4701-0.5235c0.1982-0.1118,0.1985-0.4025,0.0003-0.5146     c-0.447-0.2529-0.9487-0.427-1.4703-0.5222c-0.1215-0.0222-0.2142-0.1149-0.2365-0.2365     c-0.0953-0.5221-0.2696-1.0242-0.5229-1.4716c-0.1121-0.1979-0.4024-0.1979-0.5145,0c-0.2534,0.4474-0.4277,0.9495-0.5229,1.4716     c-0.0222,0.1215-0.1149,0.2143-0.2365,0.2365c-0.5215,0.0952-1.0233,0.2692-1.4703,0.5222     c-0.1982,0.1121-0.1979,0.4028,0.0003,0.5146C38.8878,23.2063,39.3894,23.3822,39.9109,23.4777z"></path></g></g><path d="M58.4568,10.0298c2.3676-1.4742,4.9809-3.5179,5.6063-4.1433c1.1056-1.1056,1.1056-2.9036,0-4.0093   c-1.1168-1.1168-2.9148-1.1168-4.0205,0c-0.6254,0.6142-2.6691,3.2387-4.1433,5.5952c-0.4244,0.6924-1.3178,0.9381-2.0102,0.5249   C52.1693,6.981,50.4494,6.657,49.221,7.1262L48.9418,6.847c-0.2011-0.2011-0.5138-0.2011-0.7036,0   c-0.2011,0.1898-0.2011,0.5137,0,0.7035l0.201,0.2122l-4.8358,3.0936c-0.3909,0.2457-0.536,0.7594-0.3127,1.1726   c0.2011,0.3351,0.4021,0.6589,0.6031,0.9828l4.8022-2.0102l-3.6631,3.719c0.6477,0.9046,1.3401,1.7534,2.0884,2.5574l4.5788-3.0265   l-3.0266,4.5789c0.8041,0.7371,1.6529,1.4295,2.5575,2.0772l3.7636-3.7078l-2.0326,4.8581   c0.3127,0.1898,0.6254,0.3909,0.9492,0.5807c0.4021,0.2234,0.9158,0.0894,1.1615-0.3127l3.1047-4.8358l0.2122,0.2234   c0.201,0.201,0.5138,0.201,0.7148,0c0.1898-0.1898,0.1898-0.5138,0-0.7036l-0.3016-0.3016   c0.4691-1.2284,0.1452-2.9483-0.8711-4.6682C57.5188,11.3476,57.7644,10.4542,58.4568,10.0298z M61.852,2.7818   c0.6254,0,1.1168,0.5026,1.1168,1.1168s-0.4914,1.1168-1.1168,1.1168c-0.6143,0-1.1168-0.5026-1.1168-1.1168   S61.2377,2.7818,61.852,2.7818z"></path></g></svg>