<svg height='100px' width='100px'  fill="#000000" xmlns="http://www.w3.org/2000/svg" xmlns:xlink="http://www.w3.org/1999/xlink" xmlns:serif="http://www.serif.com/" viewBox="0 0 602 241" version="1.1" xml:space="preserve" style="" x="0px" y="0px" fill-rule="evenodd" clip-rule="evenodd" stroke-linejoin="round" stroke-miterlimit="2"><g transform="matrix(1,0,0,1,-14021,-9906)"><g transform="matrix(1,0,0,1,11105.4,387.968)"><path d="M2929.32,9723.42C2927.49,9719.64 2917.83,9702.13 2917.27,9695.14C2917.27,9695.14 2915.65,9673.54 2916.22,9664.61C2917.2,9649.01 2921.62,9637.69 2921.62,9637.69C2921.79,9637.25 2921.97,9636.81 2922.17,9636.38C2930.74,9617.73 2947.83,9603.58 2969.01,9599.33C3003.56,9592.39 3071.83,9582.57 3094.3,9579.4L3126.92,9544.45C3142.57,9527.68 3164.47,9518.17 3187.4,9518.17C3232.66,9518.17 3323.07,9518.17 3363.78,9518.17C3383.01,9518.17 3401.28,9526.55 3413.81,9541.13L3437.07,9568.17L3454.01,9568.17C3470.81,9568.17 3486.91,9574.84 3498.79,9586.71C3510.2,9598.12 3516.8,9613.43 3517.31,9629.5C3517.31,9629.71 3517.32,9629.93 3517.32,9630.14L3517.34,9669.14C3517.34,9669.44 3517.33,9669.74 3517.32,9670.04L3516.29,9694.38C3515.98,9701.67 3506.03,9719.64 3504.2,9723.42C3504.2,9723.42 3498.89,9734.36 3495.6,9741.15C3490.55,9751.56 3480,9758.17 3468.43,9758.17C3465.07,9758.17 3461.5,9758.17 3461.5,9758.17C3450,9758.17 3440.67,9748.84 3440.67,9737.33C3440.67,9736.38 3440.67,9716.46 3440.62,9715.52C3440.43,9712.17 3439.97,9701.97 3439.26,9699.71C3435.31,9687.04 3423.47,9677.83 3409.5,9677.83C3395.54,9677.83 3383.7,9687.04 3379.74,9699.71C3379.04,9701.97 3378.58,9712.17 3378.39,9715.52C3378.34,9716.46 3378.34,9736.38 3378.34,9737.33C3378.34,9748.84 3369.01,9758.17 3357.5,9758.17L3107.5,9758.17C3096,9758.17 3086.67,9748.84 3086.67,9737.33C3086.67,9736.38 3086.67,9716.46 3086.62,9715.52C3086.43,9712.17 3085.97,9701.97 3085.26,9699.71C3081.31,9687.04 3069.47,9677.83 3055.5,9677.83C3041.54,9677.83 3029.7,9687.04 3025.74,9699.71C3025.04,9701.97 3024.58,9712.17 3024.39,9715.52C3024.34,9716.46 3024.34,9736.38 3024.34,9737.33C3024.34,9748.84 3015.01,9758.17 3003.5,9758.17C3003.5,9758.17 2977.12,9758.17 2965.09,9758.17C2953.52,9758.17 2942.96,9751.56 2937.91,9741.15C2934.62,9734.36 2929.32,9723.42 2929.32,9723.42ZM2948.07,9714.33L3003.59,9714.33C3003.53,9715.33 3003.5,9736.33 3003.5,9737.33L2965.09,9737.33C2961.5,9737.33 2958.23,9735.28 2956.66,9732.06C2953.37,9725.26 2948.07,9714.33 2948.07,9714.33ZM3357.59,9714.33C3357.53,9715.33 3357.5,9736.33 3357.5,9737.33L3107.5,9737.33C3107.5,9736.33 3107.47,9715.33 3107.42,9714.33L3357.59,9714.33ZM3485.45,9714.33C3485.45,9714.33 3480.15,9725.26 3476.86,9732.06C3475.29,9735.28 3472.02,9737.33 3468.43,9737.33C3465.07,9737.33 3461.5,9737.33 3461.5,9737.33C3461.5,9736.33 3461.47,9715.33 3461.42,9714.33L3485.45,9714.33ZM2938.04,9693.5C2938.04,9693.5 2936.5,9673.99 2937.01,9665.92C2937.77,9653.85 2941.1,9645.08 2941.1,9645.08C2946.95,9632.33 2958.63,9622.66 2973.11,9619.75C3014.44,9611.46 3104.5,9599 3104.5,9599C3104.5,9599 3125.82,9576.16 3142.15,9558.67C3153.86,9546.12 3170.25,9539 3187.4,9539L3363.78,9539C3376.94,9539 3389.44,9544.74 3398.02,9554.71C3410.62,9569.37 3427.5,9589 3427.5,9589L3454.01,9589C3465.28,9589 3476.09,9593.48 3484.06,9601.45C3491.71,9609.1 3496.14,9619.37 3496.48,9630.15L3496.51,9669.15L3495.47,9693.5L3459.15,9693.5C3452.55,9672.36 3432.81,9657 3409.5,9657C3386.2,9657 3366.46,9672.36 3359.86,9693.5L3105.15,9693.5C3098.55,9672.36 3078.81,9657 3055.5,9657C3032.2,9657 3012.46,9672.36 3005.86,9693.5L2938.04,9693.5ZM3328.5,9673.09L3346.87,9673.09C3359.41,9651.05 3383.1,9636.17 3410.24,9636.17C3412.35,9636.17 3414.44,9636.26 3416.5,9636.43L3416.5,9606C3416.5,9606 3391.16,9578.25 3379.85,9565.85C3376.44,9562.13 3371.63,9560 3366.58,9560C3352.21,9560 3321.63,9560 3302.87,9560C3294.94,9560 3288.5,9566.43 3288.5,9574.37L3288.5,9660.46C3288.5,9663.81 3289.84,9667.02 3292.2,9669.39C3294.58,9671.76 3297.79,9673.09 3301.14,9673.09L3328.5,9673.09ZM3200.5,9673.09L3257.97,9673.09C3258.95,9671.15 3259.5,9668.96 3259.5,9666.63C3259.5,9643.35 3259.5,9597.65 3259.5,9574.37C3259.5,9566.43 3253.07,9560 3245.14,9560C3228.26,9560 3201.37,9560 3185.48,9560C3177.2,9560 3169.3,9563.43 3163.65,9569.48C3151.06,9582.94 3129.5,9606 3129.5,9606L3129.5,9660.46C3129.5,9663.81 3130.84,9667.02 3133.2,9669.39C3135.58,9671.76 3138.79,9673.09 3142.14,9673.09L3200.5,9673.09ZM3395.67,9616.48L3395.67,9614.08L3365.32,9580.83L3309.34,9580.83L3309.34,9652.26L3335.74,9652.26C3350.06,9633.48 3371.32,9620.27 3395.67,9616.48ZM3238.67,9580.83L3185.48,9580.83C3182.97,9580.83 3180.58,9581.87 3178.87,9583.7L3150.34,9614.22L3150.34,9652.26L3238.67,9652.26L3238.67,9580.83Z"></path></g></g></svg>