<svg height='100px' width='100px'  fill="#000000" xmlns:x="http://ns.adobe.com/Extensibility/1.0/" xmlns:i="http://ns.adobe.com/AdobeIllustrator/10.0/" xmlns:graph="http://ns.adobe.com/Graphs/1.0/" xmlns="http://www.w3.org/2000/svg" xmlns:xlink="http://www.w3.org/1999/xlink" version="1.1" x="0px" y="0px" viewBox="-247 370.9 100 100" style="enable-background:new -247 370.9 100 100;" xml:space="preserve"><g><path d="M-155.5,390.3c-1.1-0.3-3.4-1.1-3.5-1.8c-0.1-0.8-0.4-1.6-0.8-2.2c0.6-1.9,0.6-3.3,0.6-3.5l-0.1-2.5l-2.4,0.6    c-0.1,0-2.3,0.6-4.8,2.1c0.5-4.7-0.3-5.7-0.7-6.1c-0.5-0.5-1.1-0.8-1.8-0.8c-2.3,0-7.9,5.4-10.1,9.2c-2.2,3.9-1.6,6.5-0.7,8    c0,0,0,0,0,0.1c-0.6,1-1.1,2-1.7,3.1c-1.3,2.6-2.9,5.5-5.6,8.5c-2,2.2-20.6,5.2-23.4,4.8c-2.7-0.4-5.6-0.1-8.2,1l-0.1-0.1    c0,0,0.1,0,0.1-0.1c-1.3,0.6-8.1,0.4-10.5-1.8c-0.5-0.5-1-1.2-0.5-2.5c0.4-1.3,1.1-2,2.2-2.3c2-0.5,5.1,0.5,7.5,2.5l1.8,1.5l1.2-2    c2.5-3.9,1.6-8.2-2.1-11c-5.3-3.9-14.7-3.4-21.3,4.2c-4.3,4.9-4.4,12.7-0.3,18.1c2.1,2.7,5.4,4.9,9.6,4.9c0.8,0,1.6-0.1,2.4-0.2    c-0.3,1.6-0.4,3.1-0.1,4.7c1.6,8.7-4.5,14-4.7,14.2l-0.6,0.5l-2.3,25.4h11.7h2.1h9.5l2.1-8.5l-3.9-1.3l1.6-5.7    c4.9-2.1,7.9-6.3,10.9-10.8c0.4-0.6,0.8-1.1,1.2-1.7c2.1,0.4,4.1,0.7,6.2,0.8c-0.9,2.5-1.7,4-1.7,4.1l-0.2,0.4l-0.4,22.7h11.6h2.3    h9.6l0.6-8.6l-4-1.3l4.3-22.1c3.6-3.1,5.7-7.5,6.9-10.9c1.3-2.7,2.3-12.7,1.4-19.5c2.2,0.3,4.4,0.1,6.5-0.8    c3.2-1.5,5.3-4.6,6.3-9.4C-151.1,391.7-153.6,390.9-155.5,390.3z M-237.4,414.8c-2.5-3.3-3.3-9,0.2-13c5.6-6.5,12.7-6,15.9-3.6    c0.9,0.7,2.1,1.9,1.9,3.6c-2.7-1.6-6-2.5-8.9-1.7c-1.6,0.5-3.8,1.7-4.9,4.8c-1,2.9-0.2,5.5,2.2,7.3c1.7,1.3,4.2,2,6.7,2.4    c-0.1,0.1-0.1,0.1-0.2,0.2c-0.7,0.7-1.3,1.4-1.8,2.2C-232.6,419.9-236.2,416.4-237.4,414.8z M-215.5,447.8l-1,0.3l-3.2,11.3    l4.1,1.4l-0.5,1.8h-5.4l1.1-4.3l-3-1.4l1.9-9.1C-216.1,443-211.2,446.3-215.5,447.8z M-177.4,462.7h-5.6l0.3-4.4l-3-1.3l1.4-9.4    c5.8-2.2,2.6,12,2.6,12l4.4,1.4L-177.4,462.7z M-159.5,399.9c-3.5,1.6-8.6-0.6-11.4-2.1l-1.9,3.5c1.3,0.7,2.7,1.4,4.3,2    c1.2,6,0.1,17.2-0.8,18.8l-0.2,0.3c-0.5,1.5-1.3,3.2-2.2,4.8c0.1-1.1,0.2-2.2,0.2-3.3l-4,0c-0.1,11.3-6.4,16.5-11.9,21.1l-0.6,0.5    l-2.1,14l3.2,1.4l-0.1,1.9h-6.1l0.3-17.7c0.8-1.7,3.8-8.3,4.1-15.9l-4-0.2c-0.1,2.3-0.5,4.6-1,6.6c-4.6-0.1-9.6-1.1-14.4-3.1    l-1.6-0.6l-0.9,1.4c-4.1,6.7-7,9.2-13.4,11.4l-1.1,0.4l-3,14.4l2.9,1.3l-0.5,2h-6.3l1.8-19.4c1.9-1.9,7.2-8.1,5.5-17.5    c-0.5-2.8,0.5-5.9,2.9-8.3c2.9-2.9,7-4.4,10.7-3.8c2.8,0.4,23.5-2.3,26.9-6.1c3-3.3,4.8-6.6,6.1-9.3c0.8-1.5,1.4-2.7,2.2-3.7    l0.8-1.1l-0.8-1.2c-0.2-0.3-0.4-0.7-0.7-1.1c-0.1-0.2-0.5-0.9,0-2.4c0.9-2.8,3.9-5.8,5.9-7.5c-0.1,1-0.2,2.2-0.4,3.4l-0.4,2.5    l2.5-0.2c1.1-0.1,5.4,0.1,5.7,2c0.5,3.2,4,4.3,6.3,5c0.3,0.1,0.6,0.2,0.9,0.3C-156.5,397.2-157.8,399-159.5,399.9z"></path></g></svg>