<svg height='100px' width='100px'  fill="#000000" xmlns="http://www.w3.org/2000/svg" xmlns:xlink="http://www.w3.org/1999/xlink" xmlns:sketch="http://www.bohemiancoding.com/sketch/ns" viewBox="0 0 94 100" version="1.1" x="0px" y="0px"><title>Group</title><desc>Created with Sketch.</desc><g stroke="none" stroke-width="1" fill="none" fill-rule="evenodd" sketch:type="MSPage"><g sketch:type="MSArtboardGroup" transform="translate(-1.000000, 0.000000)" fill="#000000"><g sketch:type="MSLayerGroup"><path d="M45.86,84.409 L50.14,84.409 L50.14,91.891 L45.86,91.891 L45.86,84.409 Z" sketch:type="MSShapeGroup"></path><path d="M73.422,13.677 L75.354,9.605 L63.817,4.263 L61.885,8.126 C60.18,7.482 58.249,6.838 56.543,6.63 L56.543,0 L39.439,0 L39.439,6.63 C37.525,6.838 35.385,7.482 33.679,8.126 L32.183,4.263 L20.646,9.605 L22.352,13.677 C9.528,22.011 0.984,36.541 0.984,53.001 C0.984,78.858 22.143,100 48,100 C73.857,100 95.016,78.858 95.016,53.001 C95.016,36.541 86.455,22.011 73.422,13.677 L73.422,13.677 Z M48,95.737 C24.492,95.737 5.247,76.509 5.247,53.001 C5.247,29.494 24.492,10.249 48,10.249 C71.508,10.249 90.735,29.494 90.735,53.001 C90.735,76.509 71.508,95.737 48,95.737 L48,95.737 Z" sketch:type="MSShapeGroup"></path><path d="M50.14,47.433 C49.497,47.225 48.644,47.016 48,47.016 C47.147,47.016 46.277,47.225 45.425,47.66 L21.917,23.925 L18.924,26.918 L42.432,50.635 C42.223,51.279 42.014,52.131 42.014,53.001 C42.014,56.203 44.781,58.97 48,58.97 C50.993,58.97 53.76,56.412 53.986,53.419 L77.268,38.89 L73.422,33.113 L50.14,47.433" sketch:type="MSShapeGroup"></path><path d="M79.408,50.861 L86.89,50.861 L86.89,55.124 L79.408,55.124 L79.408,50.861 Z" sketch:type="MSShapeGroup"></path><path d="M45.86,14.094 L50.14,14.094 L50.14,21.576 L45.86,21.576 L45.86,14.094 Z" sketch:type="MSShapeGroup"></path><path d="M9.11,50.861 L16.575,50.861 L16.575,55.124 L9.11,55.124 L9.11,50.861 Z" sketch:type="MSShapeGroup"></path></g></g></g></svg>