<svg height='100px' width='100px'  fill="#000000" xmlns="http://www.w3.org/2000/svg" viewBox="0 0 64 64" x="0px" y="0px"><g><path d="M4,57a5.006,5.006,0,0,0,5,5H55a5.006,5.006,0,0,0,5-5V7a5.006,5.006,0,0,0-5-5H9A5.006,5.006,0,0,0,4,7Zm28,0v3H24V57a1,1,0,0,0-1-1H11a1,1,0,0,1-1-1V50.387l10.684,3.561h0A4.176,4.176,0,0,0,22,54.159a3.927,3.927,0,0,0,1.039-.136,2.646,2.646,0,0,0,1.907-1.707c.56-1.683-.281-3.1-2.59-4.25L10,43.313V15a7.008,7.008,0,0,1,7-7H42c7.514,0,12,3.738,12,10v2.22l-6,1.5V18c0-1.729-1.254-5-6-5a1,1,0,0,0,0,2c3.834,0,3.995,2.7,4,3V43.313L33.553,48.105c-2.221,1.111-3.062,2.528-2.5,4.219a2.642,2.642,0,0,0,1.9,1.7A3.927,3.927,0,0,0,34,54.159a4.176,4.176,0,0,0,1.319-.211h0L46,50.387V56H33A1,1,0,0,0,32,57ZM10,48.279V45.455L21.553,49.9c1.795.9,1.6,1.477,1.495,1.8a.7.7,0,0,1-.537.4,2.2,2.2,0,0,1-1.2-.044h0ZM54,50v2H50v2h4v1a1,1,0,0,1-1,1H48V45.781l6-1.5V48H50v2Zm-6-6.281V40.78l6-1.5v2.939Zm0-5V36.781l6-1.5v1.938Zm0-4V23.781l6-1.5V33.22ZM46,45.456v2.823L34.684,52.052a2.206,2.206,0,0,1-1.2.044.7.7,0,0,1-.54-.412c-.1-.312-.3-.892,1.41-1.75ZM6,7A3,3,0,0,1,9,4H55a3,3,0,0,1,3,3V57a3,3,0,0,1-3,3H34V58H53a3,3,0,0,0,3-3V18c0-5.8-3.678-12-14-12H17a9.01,9.01,0,0,0-9,9V55a3,3,0,0,0,3,3H22v2H9a3,3,0,0,1-3-3Z"></path><path d="M34,30h4a1,1,0,0,0,1-1V23a3,3,0,0,0-6,0v6A1,1,0,0,0,34,30Zm1-7a1,1,0,0,1,2,0v5H35Z"></path><path d="M36,18a3,3,0,1,0-3-3A3,3,0,0,0,36,18Zm0-4a1,1,0,1,1-1,1A1,1,0,0,1,36,14Z"></path><path d="M26,30h4a1,1,0,0,0,1-1V23a3,3,0,0,0-6,0v6A1,1,0,0,0,26,30Zm1-7a1,1,0,0,1,2,0v5H27Z"></path><path d="M28,18a3,3,0,1,0-3-3A3,3,0,0,0,28,18Zm0-4a1,1,0,1,1-1,1A1,1,0,0,1,28,14Z"></path><path d="M23,23a3,3,0,0,0-6,0v6a1,1,0,0,0,1,1h4a1,1,0,0,0,1-1Zm-2,5H19V23a1,1,0,0,1,2,0Z"></path><path d="M20,18a3,3,0,1,0-3-3A3,3,0,0,0,20,18Zm0-4a1,1,0,1,1-1,1A1,1,0,0,1,20,14Z"></path><path d="M13.781,33.375A1,1,0,0,0,12,34v7a1,1,0,0,0,.649.937l8,3A1.02,1.02,0,0,0,21,45a1,1,0,0,0,.781-1.625ZM14,40.307V36.851l3.95,4.937Z"></path><path d="M34.19,44.587A1,1,0,0,0,35,45a1.02,1.02,0,0,0,.351-.063l8-3A1,1,0,0,0,44,41V34a1,1,0,0,0-1.781-.625l-8,10A1,1,0,0,0,34.19,44.587ZM42,36.851v3.456l-3.95,1.481Z"></path><path d="M33,38a5,5,0,1,0-5,5A5.006,5.006,0,0,0,33,38Zm-5,3a3,3,0,1,1,3-3A3,3,0,0,1,28,41Z"></path></g></svg>