<svg height='100px' width='100px'  fill="#000000" xmlns="http://www.w3.org/2000/svg" xmlns:xlink="http://www.w3.org/1999/xlink" version="1.1" x="0px" y="0px" viewBox="0 0 100 100" style="enable-background:new 0 0 100 100;" xml:space="preserve"><g style="" display="none"><rect x="-850.878" y="-10.879" style="" width="1478.926" height="487.476" display="inline" fill="#000000"></rect></g><g><path d="M22.639,23.108c0.057,0,0.115-0.002,0.173-0.006c1.388-0.096,2.436-1.279,2.341-2.667c0-2.433,1.735-4.413,3.869-4.413   c2.13,0,3.863,1.972,3.87,4.427c-0.066,1.366,0.972,2.54,2.342,2.634c1.368,0.087,2.591-0.951,2.686-2.339   c0.007-0.099,0.009-0.204,0.009-0.309c0-5.21-3.995-9.449-8.906-9.449c-4.91,0-8.905,4.239-8.905,9.449   c0,0.105,0.002,0.21,0.009,0.309C20.216,22.073,21.326,23.108,22.639,23.108z"></path><path d="M64.727,23.076c1.389-0.064,2.464-1.252,2.4-2.641c0-2.433,1.735-4.413,3.869-4.413c2.129,0,3.862,1.972,3.869,4.427   c-0.066,1.366,0.972,2.54,2.342,2.634c0.059,0.004,0.117,0.006,0.177,0.006c1.311,0,2.418-1.017,2.509-2.345   c0.007-0.099,0.009-0.204,0.009-0.309c0-5.21-3.995-9.449-8.905-9.449s-8.905,4.239-8.905,9.449c0,0.085,0.001,0.171,0.005,0.252   C62.16,22.077,63.332,23.149,64.727,23.076z"></path><path d="M32.551,78.259c1.699,0.657,3.517,1.245,4.763,2.574c0.63,0.672,1.073,1.494,1.589,2.258   c2.529,3.739,7.038,6.049,11.55,5.918c4.512-0.131,8.879-2.7,11.187-6.579c0.432-0.726,0.808-1.508,1.435-2.073   c0.665-0.599,1.543-0.89,2.386-1.191c14.56-5.201,26.027-18.282,29.277-33.397c0.436-2.028,0.514-4.6-1.259-5.677   c-0.528-0.321-1.126-0.431-1.729-0.382c-1,0.08-2.014,0.597-2.746,1.312c-1.173,1.148-1.839,2.699-2.672,4.114   c-3.023,5.133-8.638,8.647-14.577,9.121c-5.939,0.474-12.04-2.104-15.84-6.692c-1.815-2.192-3.153-5.019-2.687-7.827   c0.749-4.506,5.537-6.99,8.278-10.644c0.321-0.428,0.624-0.898,0.683-1.429c0.205-1.852-2.3-2.609-4.162-2.661   c-5.318-0.15-10.64-0.153-15.958-0.009c-1.792,0.048-4.161,0.67-4.153,2.463c0.003,0.656,0.37,1.251,0.765,1.775   c2.574,3.407,6.984,5.675,7.943,9.836c0.611,2.649-0.425,5.462-2.106,7.598c-4.722,6-12.489,9.141-19.94,7.013   c-4.477-1.279-8.405-4.381-10.687-8.44c-0.752-1.338-1.344-2.79-2.361-3.94c-1.017-1.149-2.624-1.955-4.087-1.493   c-1.308,0.413-2.158,1.749-2.373,3.103c-0.216,1.355,0.091,2.734,0.449,4.058C9.244,60.777,19.209,73.104,32.551,78.259z    M63.683,58.327c0.213,0.071,0.416,0.162,0.629,0.223c2.06,0.599,4.15,0.893,6.22,0.893c5.15,0,10.198-1.799,14.341-5.075   c0.383-0.303,0.908,0.126,0.679,0.557c-4.408,8.316-11.654,14.909-20.441,18.471c-0.683,0.277-1.428-0.245-1.428-0.982V58.327z    M41.452,55.973c0.731-0.457,1.431-0.974,2.121-1.512c1.441-1.136,2.75-2.445,3.917-3.886v16.367c0,1.39,1.126,2.517,2.516,2.517   c0.014,0,0.027-0.004,0.04-0.004c0.014,0,0.027,0.004,0.04,0.004c1.39,0,2.516-1.126,2.516-2.517V50.575   c1.167,1.441,2.476,2.75,3.917,3.886c0.69,0.538,1.39,1.055,2.121,1.512v19.412c0,3.47-2.06,6.565-5.266,7.905   c-0.927,0.388-1.887,0.599-2.861,0.647v-0.002c-0.156,0.009-0.311,0-0.467,0.001c-0.156-0.001-0.311,0.008-0.467-0.001v0.002   c-0.974-0.048-1.934-0.259-2.861-0.647c-3.207-1.339-5.266-4.434-5.266-7.905V55.973z M15.218,54.368   c4.143,3.276,9.191,5.075,14.341,5.075c2.07,0,4.16-0.294,6.22-0.893c0.213-0.061,0.416-0.152,0.629-0.223v14.088   c0,0.737-0.745,1.259-1.428,0.982c-8.787-3.563-16.033-10.155-20.441-18.471C14.311,54.494,14.836,54.065,15.218,54.368z"></path></g></svg>