<svg height='100px' width='100px'  fill="#000000" xmlns="http://www.w3.org/2000/svg" xmlns:xlink="http://www.w3.org/1999/xlink" version="1.1" x="0px" y="0px" viewBox="0 0 512 512" style="enable-background:new 0 0 512 512;" xml:space="preserve"><g><path d="M256.233,158.217H141.764c-11.236,0-20.369,9.143-20.369,20.379v154.826c0,11.236,9.134,20.369,20.369,20.369h114.469   c11.236,0,20.379-9.134,20.379-20.369V178.596C276.611,167.36,267.468,158.217,256.233,158.217z M261.367,333.422   c0,2.828-2.307,5.116-5.134,5.116H141.764c-2.828,0-5.134-2.288-5.134-5.116V178.596c0-2.837,2.307-5.144,5.134-5.144h114.469   c2.828,0,5.134,2.307,5.134,5.144V333.422z"></path><path d="M416.686,222.869l-27.494-0.037c-1.377-4.195-3.051-8.278-5.004-12.203l19.458-19.402c1.432-1.423,2.232-3.358,2.251-5.385   c0-2.018-0.8-3.953-2.232-5.385l-29.745-29.838c-2.976-2.995-7.794-2.995-10.771-0.019l-19.477,19.393   c-3.925-1.981-7.999-3.674-12.184-5.06l0.056-27.485c0-4.204-3.404-7.618-7.608-7.627l-22.497-0.04   c-7.176-8.929-18.009-14.764-30.293-14.914L257.87,33.75c-0.595-3.683-3.786-6.39-7.515-6.39H147.642   c-3.73,0-6.92,2.707-7.515,6.39l-13.276,81.117c-21.624,0.264-39.145,17.89-39.145,39.574v203.127   c0,21.676,17.522,39.313,39.146,39.575l13.275,81.098c0.595,3.683,3.786,6.399,7.515,6.399h102.712c3.73,0,6.92-2.716,7.515-6.399   l13.275-81.098c16.173-0.195,30.064-10.095,36.03-24.163l16.351,0.028c0.019,0,0.019,0,0.019,0c2.009,0,3.944-0.8,5.376-2.232   s2.232-3.367,2.251-5.376l0.037-27.494c4.186-1.377,8.259-3.051,12.203-5.023l19.402,19.458c1.432,1.432,3.367,2.232,5.376,2.251   c0.019,0,0.019,0,0.019,0c2.009,0,3.944-0.8,5.376-2.232l29.838-29.745c2.976-2.976,2.995-7.794,0.019-10.771l-19.402-19.458   c1.972-3.906,3.665-7.98,5.06-12.184l27.494,0.037c0.019,0,0.019,0,0.019,0c2.009,0,3.944-0.8,5.376-2.214   c1.432-1.432,2.232-3.376,2.251-5.395l0.056-42.134C424.294,226.292,420.89,222.869,416.686,222.869z M310.3,223.524   c4.826,1.314,9.285,3.751,12.91,7.382c5.469,5.488,8.464,12.77,8.445,20.518c-0.015,13.309-9.108,24.419-21.355,27.782V223.524z    M154.116,42.595h89.765l11.822,72.223H142.294L154.116,42.595z M243.881,469.386h-89.765l-11.822-72.195h113.408L243.881,469.386z    M270.668,381.937h-5.999H133.328h-5.999c-13.449,0-24.388-10.92-24.388-24.369V154.441c0-13.449,10.938-24.388,24.388-24.388   h5.999h131.341h5.999c13.44,0,24.378,10.938,24.378,24.388v133.245c-0.003,0.095-0.056,0.176-0.056,0.272   c0,0.102,0.052,0.18,0.056,0.281v69.328C295.046,371.018,284.108,381.937,270.668,381.937z M409.003,264.994l-25.559-0.037   c-0.019,0-0.019,0-0.019,0c-3.46,0-6.492,2.335-7.366,5.683c-1.786,6.827-4.483,13.282-7.98,19.198   c-1.786,2.995-1.302,6.808,1.153,9.264l18.044,18.1l-19.049,18.993l-18.044-18.1c-2.455-2.456-6.213-2.921-9.245-1.209   c-6.027,3.534-12.501,6.195-19.235,7.925c-3.367,0.874-5.711,3.906-5.729,7.366l-0.037,25.578l-5.654-0.015   c0-0.058,0.017-0.113,0.017-0.171v-62.733c20.71-3.629,36.559-21.632,36.609-43.384c0.019-11.822-4.576-22.937-12.91-31.308   c-6.538-6.546-14.774-10.697-23.699-12.244v-53.459c0-3.258-0.508-6.377-1.253-9.408l7.243,0.014l-0.056,25.559   c0,3.469,2.344,6.511,5.711,7.385c6.734,1.749,13.189,4.437,19.216,7.98c3.014,1.767,6.79,1.265,9.245-1.172l18.1-18.035   l18.993,19.049l-18.1,18.044c-2.456,2.446-2.958,6.25-1.209,9.245c3.497,5.971,6.176,12.445,7.943,19.253   c0.856,3.348,3.888,5.702,7.348,5.702l25.559,0.037L409.003,264.994z"></path></g></svg>