<svg height='100px' width='100px'  fill="#000000" xmlns="http://www.w3.org/2000/svg" xmlns:xlink="http://www.w3.org/1999/xlink" version="1.1" x="0px" y="0px" viewBox="0 0 65 65" style="enable-background:new 0 0 65 65;" xml:space="preserve"><g><g><g><path d="M64.2,50.5c-0.4-0.4-1-0.4-1.4,0c-0.9,0.9-2.1,1.4-3.4,1.4c-1.3,0-2.5-0.5-3.4-1.4l-0.8-0.8c-2.7-2.7-6.9-2.7-9.6,0     l-0.8,0.8c-1.9,1.9-4.9,1.9-6.8,0l-0.8-0.8c-2.7-2.7-6.9-2.7-9.6,0l-0.8,0.8c-1.9,1.9-4.9,1.9-6.8,0l-0.8-0.8     c-2.7-2.7-6.9-2.7-9.6,0L9,50.5c-0.9,0.9-2.1,1.4-3.4,1.4s-2.5-0.5-3.4-1.4c-0.4-0.4-1-0.4-1.4,0s-0.4,1,0,1.4     c2.6,2.6,7,2.6,9.6,0l0.8-0.8c1.9-1.9,4.9-1.9,6.8,0l0.8,0.8c2.6,2.6,7,2.6,9.6,0l0.8-0.8c1.9-1.9,4.9-1.9,6.8,0l0.8,0.8     c2.6,2.6,7,2.6,9.6,0l0.8-0.8c1.9-1.9,4.9-1.9,6.8,0l0.8,0.8c1.3,1.3,3,2,4.8,2c1.8,0,3.5-0.7,4.8-2     C64.6,51.5,64.6,50.9,64.2,50.5z"></path></g><g><path d="M55.2,56.7c-2.7-2.7-6.9-2.7-9.6,0l-0.8,0.8c-1.9,1.9-4.9,1.9-6.8,0l-0.8-0.8c-2.7-2.7-6.9-2.7-9.6,0l-0.8,0.8     c-1.9,1.9-4.9,1.9-6.8,0l-0.8-0.8c-2.7-2.7-6.9-2.7-9.6,0L9,57.5c-0.4,0.4-0.4,1,0,1.4c0.4,0.4,1,0.4,1.4,0l0.8-0.8     c1.9-1.9,4.9-1.9,6.8,0l0.8,0.8c1.3,1.3,3.1,2,4.8,2c1.7,0,3.5-0.7,4.8-2l0.8-0.8c1.9-1.9,4.9-1.9,6.8,0l0.8,0.8     c2.6,2.6,7,2.6,9.6,0l0.8-0.8c1.9-1.9,4.9-1.9,6.8,0l0.8,0.8c0.4,0.4,1,0.4,1.4,0s0.4-1,0-1.4L55.2,56.7z"></path></g><g><path d="M32.5,16.1c3.3,0,6-2.7,6-6c0-3.3-2.7-6-6-6s-6,2.7-6,6C26.5,13.4,29.2,16.1,32.5,16.1z"></path></g><g><path d="M1.1,45l5.8,2.6c0.1,0.1,0.3,0.1,0.4,0.1c0.4,0,0.8-0.2,0.9-0.6l1.7-3.8c0.5-1,0.5-2.1,0.1-3.2c-0.3-0.7-0.7-1.3-1.3-1.8     l5.8-12.9c0.2-0.5,0-1.1-0.5-1.3c-0.5-0.2-1.1,0-1.3,0.5L6.8,37.6c-0.2,0-0.5-0.1-0.7-0.1c-1.6,0-3.1,1-3.8,2.5l-1.7,3.8     c-0.1,0.2-0.1,0.5,0,0.8C0.7,44.7,0.8,44.9,1.1,45z"></path></g><g><path d="M57.2,37.8c-2.1,1-3,3.5-2.1,5.5l1.7,3.8c0.2,0.4,0.5,0.6,0.9,0.6c0.1,0,0.3,0,0.4-0.1l5.8-2.6c0.2-0.1,0.4-0.3,0.5-0.6     c0.1-0.3,0.1-0.5,0-0.8l-1.7-3.8C61.8,37.9,59.3,36.9,57.2,37.8z"></path></g><g><path d="M19.3,30.9c1.4,1.1,3.5,0.9,4.6-0.6l1.4-1.8V36H14c-0.6,0-1.1,0.6-1,1.2l1.9,8.5c4.2,0.1,6.2,3,6.7,3.4     c1.1,1.1,2.9,1.1,3.9,0c0.4-0.3,2.6-3.4,7-3.4c4.4,0,6.6,3.1,7,3.4c1.1,1.1,2.9,1.1,3.9,0c0.4-0.3,2.5-3.2,6.7-3.4l1.9-8.5     c0.1-0.6-0.4-1.2-1-1.2H39.7v-7.5l1.4,1.8c1.1,1.4,3.1,1.7,4.6,0.6c1.4-1.1,1.7-3.2,0.6-4.6l-5.1-6.6c-0.6-0.8-1.7-1.3-2.4-1.3     c-13,0-12.4,0-12.6,0c-0.9,0.1-1.6,0.5-2.2,1.2l-5.1,6.6C17.7,27.8,17.9,29.8,19.3,30.9z"></path></g></g></g></svg>