<svg height='100px' width='100px'  fill="#000000" xmlns="http://www.w3.org/2000/svg" viewBox="0 0 512 512" x="0px" y="0px"><g data-name="Out line"><path d="M224,396.11621v-1.91992a11.84713,11.84713,0,0,1,10.82568-11.85547l3.58393-.32568.02008-.00147-.00006-.00049,26.29449-2.39013-1.44824-15.9336-26.30383,2.39112A11.90387,11.90387,0,0,1,224,354.22461v-1.59375a11.89749,11.89749,0,0,1,9.7655-11.709h.00061l7.12012-1.29c.03674-.0066.07172-.01758.10822-.02466l8.4367-1.53394-2.8623-15.74219-8.4585,1.53785c-.02893.00512-.058.00561-.08691.011l-.07263.01319A11.89761,11.89761,0,0,1,224,312.1709v-.94824a11.93038,11.93038,0,0,1,8.70013-11.46289l.004-.001-.00006-.00025c.02271-.00634.04419-.01489.067-.02124l17.33349-4.72656-4.209-15.43554-6.8598,1.87036-.00007-.00025a11.90191,11.90191,0,0,1-7.28027-22.63818l.07666-.02783-.0011-.00293.00452-.002,26.89844-9.78125-4.76776-13.11206,3.56707-.69653-3.0664-15.70312-18.76758,3.665-5.75147-8.62695,23.377-2.59765a73.73466,73.73466,0,0,0,18.30713-4.45411l-5.73926-14.93554a57.72652,57.72652,0,0,1-14.334,3.4873l-32.62036,3.62427-8.75317-8.75318a4.7695,4.7695,0,0,1,1.2381-7.63793l.00018.00024,14.4668-7.23438L272.00342,176l-.00684-16-48,.01953a8.01115,8.01115,0,0,0-3.5747.84473l-16.15479,8.07812.00012.00025-15.84485,7.92163a7.98587,7.98587,0,0,0-2.82226,2.35547l-14.72528,19.63379L40.46289,242.12793A35.65625,35.65625,0,0,0,16,276.01953a27.91174,27.91174,0,0,0,8.42377,19.99341c-.07288.07153-.14887.13843-.22113.21069a27.96339,27.96339,0,0,0,.22113,39.78931c-.07288.07153-.14887.13843-.22113.21069a27.96339,27.96339,0,0,0,.22113,39.78931c-.07288.07153-.14887.13843-.22113.21069A27.99666,27.99666,0,0,0,44,424.01953H272v-16H235.90381A11.917,11.917,0,0,1,224,396.11621ZM194.04736,194.62305a20.7677,20.7677,0,0,0,4.82422,7.582l2.89258,2.89258-22.24658,8.89843Zm18.897,23.23486L225.34375,236.457a7.99846,7.99846,0,0,0,8.18945,3.41406l7.48712-1.46191-14.65264,5.32812c-.02332.00855-.04517.01954-.06842.02784l-11.70746,4.25439H73.51013l87.11731-28.9082a7.96967,7.96967,0,0,0,1.71582,2.56543l8,8a8.00023,8.00023,0,0,0,8.62793,1.77051ZM32,276.01953a12.00811,12.00811,0,0,1,12-12H208.6593a27.72633,27.72633,0,0,0,5.96863,24H44A12.01343,12.01343,0,0,1,32,276.01953Zm0,40a12.00811,12.00811,0,0,1,12-12H208.96246A27.72132,27.72132,0,0,0,208,311.22266v.94824a27.83276,27.83276,0,0,0,4.93378,15.84863H44A12.01343,12.01343,0,0,1,32,316.01953Zm0,40a12.00811,12.00811,0,0,1,12-12H209.38367A27.84213,27.84213,0,0,0,208,352.63086v1.59375a27.94747,27.94747,0,0,0,3.65515,13.79492H44A12.01343,12.01343,0,0,1,32,356.01953Zm0,40a12.00811,12.00811,0,0,1,12-12H209.89093A28.10443,28.10443,0,0,0,208,394.19629v1.91992a27.73147,27.73147,0,0,0,2.67291,11.90332H44A12.01343,12.01343,0,0,1,32,396.01953Z"></path><circle cx="328" cy="192" r="8"></circle><circle cx="320" cy="224" r="8"></circle><circle cx="328" cy="336" r="8"></circle><circle cx="304" cy="312" r="8"></circle><circle cx="352" cy="312" r="8"></circle><circle cx="312" cy="256" r="8"></circle><circle cx="352" cy="256" r="8"></circle><circle cx="360" cy="224" r="8"></circle><circle cx="368" cy="192" r="8"></circle><path d="M496,416H459.0625l14.9751-119.80371a143.11179,143.11179,0,0,0-20.29981-92.8457l-13.8-22.26538a47.88422,47.88422,0,0,0-12.06518-29.51392L374.55371,75.41211l-.01343.00928a7.98006,7.98006,0,0,0-13.11792.0249l-72,104a8.01223,8.01223,0,0,0-1.251,2.90527l-25.05616,119.0166A66.74668,66.74668,0,0,0,282.54041,363.438a90.66548,90.66548,0,0,1,8.55969,51.26123L288.062,439.00781A8.00005,8.00005,0,0,0,296,448H448a7.99992,7.99992,0,0,0,7.93848-7.00781L457.0625,432H496ZM278.77246,304.665l24.72363-117.43848,63.05567-91.08008,33.27051,73.19532L384.75146,317.415a50.64591,50.64591,0,0,1-29.752,41.0625l-6.25,2.77832a50.5363,50.5363,0,0,1-69.977-56.59082ZM406.86133,418.11719,402.23389,432H305.062l1.915-15.31641a106.7285,106.7285,0,0,0-2.40161-39.4248,66.60744,66.60744,0,0,0,50.67261-1.38184l6.25-2.77832a66.68361,66.68361,0,0,0,39.17138-54.06347L415.959,168.81055a7.99864,7.99864,0,0,0-.67627-4.1211l-4.15087-9.13183,3.91211,5.58789a7.94065,7.94065,0,0,0,.63427.79394A31.93268,31.93268,0,0,1,424,183.46387v129.04A333.36375,333.36375,0,0,1,406.86133,418.11719ZM440.938,432H419.09912l2.94092-8.82227A349.34006,349.34006,0,0,0,440,312.50391V211.55737l.13818.2229a127.06121,127.06121,0,0,1,18.02344,82.43164Z"></path></g></svg>