<?xml version="1.0" encoding="utf-8"?>
<!-- Generator: Adobe Illustrator 24.2.1, SVG Export Plug-In . SVG Version: 6.00 Build 0)  -->
<svg version="1.1" id="Layer_1" xmlns="http://www.w3.org/2000/svg" xmlns:xlink="http://www.w3.org/1999/xlink" x="0px" y="0px"
	 viewBox="0 0 100 100" enable-background="new 0 0 100 100" xml:space="preserve">
<g>
	<path d="M50.992,11.824l15.552,8.978l5.223-4.003c1.736-1.326,4.021,0.761,2.885,2.609l-2.524,4.619l10.442,6.028
		c0.633,0.366,0.986,1.03,0.987,1.711l0.005,36.464c0,0.784-0.456,1.462-1.116,1.785L50.991,88.177
		c-0.635,0.367-1.39,0.343-1.984-0.001l-15.484-8.941l-5.307,3.973c-1.708,1.28-3.937-0.707-2.908-2.546l2.613-4.661l-10.492-6.057
		c-0.632-0.367-0.986-1.03-0.987-1.713l-0.005-36.464c0-0.783,0.456-1.461,1.116-1.783l31.455-18.161
		C49.643,11.454,50.398,11.48,50.992,11.824L50.992,11.824z M31.479,47.674l31.29-23.98C58.91,21.816,54.578,20.763,50,20.763
		c-16.147,0-29.237,13.091-29.237,29.237c0,8.291,3.468,16.082,9.594,21.653l11.528-20.569l-9.183,0.137
		C30.795,51.244,29.988,48.822,31.479,47.674z M69.726,28.422L58.606,48.77h9.656c1.998,0,2.721,2.628,1.043,3.67L37.353,76.366
		c3.828,1.839,8.117,2.87,12.647,2.87c16.146,0,29.236-13.09,29.236-29.236c0-8.073-3.273-15.383-8.564-20.673
		C70.364,29.019,70.048,28.716,69.726,28.422z M51.775,16.844L50,15.819l-1.776,1.025C49.407,16.782,50.592,16.782,51.775,16.844z
		 M77.832,31.888c0.639,0.982,1.228,1.998,1.765,3.048v-2.029L77.832,31.888z M79.596,65.064c-0.535,1.049-1.124,2.066-1.765,3.047
		l1.765-1.018V65.064z M51.775,83.156c-1.183,0.061-2.368,0.061-3.552,0L50,84.18L51.775,83.156z M22.167,68.111
		c-0.64-0.982-1.23-1.998-1.765-3.047v2.029L22.167,68.111z M20.403,34.936c0.536-1.05,1.126-2.067,1.766-3.048l-1.766,1.019V34.936
		z"/>
</g>
</svg>
