<svg height='100px' width='100px'  fill="#000000" xmlns="http://www.w3.org/2000/svg" xmlns:xlink="http://www.w3.org/1999/xlink" version="1.1" x="0px" y="0px" viewBox="0 0 24 24" enable-background="new 0 0 24 24" xml:space="preserve"><g><path d="M21.505,0.11L19,0.716c-0.087,0.021-0.164,0.07-0.22,0.14l-0.774,0.974c-0.155-0.043-0.315-0.073-0.483-0.073   c-1.007,0-1.826,0.819-1.826,1.826c0,0.609,0.303,1.147,0.763,1.479H2.401c-0.16,0-0.306,0.097-0.368,0.244   C1.971,5.453,2.002,5.624,2.114,5.739l9.332,8.869v6.966l-3.908,1.554c-0.179,0.071-0.281,0.259-0.245,0.447s0.2,0.325,0.393,0.325   h8.505c0.193,0,0.358-0.139,0.394-0.328c0.035-0.19-0.071-0.378-0.252-0.446l-4.085-1.549v-6.969l8.66-8.17l0.674-0.7   c0.111-0.115,0.143-0.286,0.08-0.434S21.453,5.06,21.293,5.06h-2.707c0.46-0.332,0.763-0.869,0.763-1.479   c0-0.546-0.246-1.031-0.627-1.366l0.6-0.755l2.371-0.573c0.215-0.052,0.347-0.268,0.295-0.482S21.72,0.06,21.505,0.11z M9.774,23.1   l2.066-0.821l2.166,0.821H9.774z M11.847,13.887L3.368,5.885L3.346,5.861h17.008L11.847,13.887z M17.522,2.557   c0.565,0,1.025,0.46,1.025,1.025s-0.46,1.025-1.025,1.025s-1.025-0.46-1.025-1.025S16.957,2.557,17.522,2.557z"></path><path d="M11.539,12.127c0.077,0.07,0.174,0.106,0.271,0.106c0.1,0,0.198-0.037,0.275-0.11l3.331-3.165   c0.119-0.112,0.157-0.286,0.096-0.438c-0.061-0.152-0.207-0.252-0.371-0.252H8.387c-0.165,0-0.313,0.102-0.372,0.255   C7.954,8.676,7.994,8.85,8.115,8.962L11.539,12.127z M14.14,9.068l-2.333,2.217L9.408,9.068H14.14z"></path></g></svg>