<svg height='100px' width='100px'  fill="#000000" xmlns="http://www.w3.org/2000/svg" viewBox="0 0 64 64" x="0px" y="0px"><title>food and restaurant-spaguetti-italian food-pasta-sticks-noodles-food</title><g><path d="M15.00293,33.07129a.99658.99658,0,0,1,.26562-.75293c.00824-.00891.02063-.01209.02918-.02063L15.293,32.293l-13,13L3.707,46.707l11.45191-11.4519Z"></path><path d="M56.293,46.707,57.707,45.293l-13-13-.00476.00476c.00855.00854.02094.01172.02918.02063a.99658.99658,0,0,1,.26562.75293l-.156,2.18384Z"></path><path d="M30,47a.99867.99867,0,0,1-.68066-.26709L17.17841,35.45917,18.93066,60H41.06934l1.75225-24.54083L30.68066,46.73291A.99867.99867,0,0,1,30,47Z"></path><rect x="37" y="6" width="24" height="2"></rect><rect x="37" y="10" width="24" height="2"></rect><rect x="29" y="10" width="2" height="2"></rect><rect x="33" y="6" width="2" height="2"></rect><rect x="29" y="14" width="2" height="18"></rect><rect x="19" y="10" width="8" height="2"></rect><rect x="25" y="6" width="6" height="2"></rect><rect x="19" y="6" width="4" height="2"></rect><polygon points="41.453 34 18.547 34 30 44.635 41.453 34"></polygon><rect x="25" y="14" width="2" height="18"></rect><rect x="33" y="14" width="2" height="18"></rect><rect x="33" y="10" width="2" height="2"></rect><rect x="25" y="2" width="2" height="2"></rect><rect x="29" y="2" width="2" height="2"></rect><rect x="33" y="2" width="2" height="2"></rect></g></svg>