<svg height='100px' width='100px'  fill="#000000" xmlns="http://www.w3.org/2000/svg" xmlns:xlink="http://www.w3.org/1999/xlink" version="1.1" x="0px" y="0px" viewBox="0 0 50 50" enable-background="new 0 0 50 50" xml:space="preserve"><g><path d="M16.4399,31.9131c-0.8702,0.153-1.4241-0.5732-2.9251-0.1969c-0.2967,0.0728-0.5961,0.0665-0.8776-0.0144   c-1.5063-0.4368-2.0653,0.2762-2.9323,0.0963c-1.5118-0.3039-2.075,0.4379-2.9206,0.3398l-0.0791-0.0071   c-1.5017-0.1351-1.3278,0.4515-3.1886,0.6375c-1.085-0.0086-2.9212,0.7084-2.4368,1.7741c0.1564,0.3599,1.2479,1.329,2.6679,1.5008   c1.2133,0.1446,1.3038,0.8801,2.9135,0.8093c0.8805-0.0456,1.3473,0.7433,2.8856,0.5405c0.7212-0.0937,0.9002,0.2528,1.7984,0.3597   c0.9872,0.1171,1.2742-0.2397,1.9917-0.0036c1.4487,0.4752,2.1079-0.1893,2.9341,0.0179c0.3345,0.0836,0.6753,0.1142,1.0125,0.0971   c-0.6878,0.7103-1.1094,0.3711-1.8353,1.365c-0.1007,0.1376-0.232,0.2419-0.3831,0.3085   c-1.0779,0.4751-1.1198,1.1583-1.5817,1.4127c-1.0294,0.5677-0.7545,0.9596-1.6851,1.7399   c-0.7381,0.5133-1.6621,1.9966-0.5737,2.4989c0.3633,0.171,1.4628,0.2194,2.3442-0.2599c0.6904-0.3688,1.1157-0.0111,2.0691-0.7526   c0.1304-0.1025,0.2823-0.1655,0.4415-0.1888c1.1686-0.1677,1.3959-0.812,1.9108-0.9271c1.1177-0.2506,1.326-0.9168,1.8263-1.0701   c1.1069-0.34,1.2543-1.0168,1.7382-1.2058c1.1295-0.4449,0.9585-0.8768,1.6429-1.3425c1.0434-0.5114,0.8224-0.9444,1.7552-1.6626   c0.2113,0.193,0.338,0.2775,0.4424,0.5305c0.3678,0.8925,1.1682,1.3566,1.0781,1.2778c0.4174,0.2822,0.4196,0.9542,1.455,1.5007   c0.1439,0.0765,0.2661,0.1898,0.3569,0.3363c0.295,0.4685,0.7176,0.8327,1.2346,1.0575c0.1493,0.0648,0.2806,0.1682,0.3831,0.3066   c0.6813,0.9257,1.3636,0.83,1.7139,1.2373c0.7653,0.8847,1.4202,0.7189,1.8101,1.097c0.9179,0.8995,1.2606,0.489,1.9711,0.9811   c0.7342,0.5145,2.1871,0.8794,2.7075,0.2535c0.1533-0.1703,0.2467-0.6184,0.2122-0.5278c0.0149-0.2682-0.3495-1.26-0.9091-1.7516   c-0.0306-0.0323-0.0782-0.0764-0.1403-0.1304c-0.1079-0.0899-0.2545-0.2149-0.3426-0.4658   c-0.188-0.5368-0.5323-0.9936-0.9963-1.3218c-0.1313-0.0936-0.2365-0.2203-0.3084-0.375   c-0.2365-0.5062-0.6169-0.9225-1.1052-1.2067c-0.1412-0.0836-0.2598-0.2014-0.3453-0.3498   c-0.5621-0.986-1.2658-0.9896-1.5574-1.4199c-0.1942-0.2062-0.4427-0.6921-1.2786-1.0179   c-0.1376-0.053-0.2563-0.1429-0.3543-0.2518c0.8592-0.0522,1.2919,0.5807,2.7651,0.2086c0.8453-0.2155,1.4496,0.4637,2.9332-0.0288   c0.8929-0.2957,1.4268,0.3747,2.9287-0.2545c0.7944-0.3359,1.512,0.2383,2.9035-0.4819c0.7692-0.3993,1.5387,0.1116,2.8631-0.7338   c0.7392-0.4708,1.5429-0.0245,2.7803-1.0197c0.1599-0.1928,0.9694-0.5209,0.83-1.2759c-0.1037-0.581-0.5379-0.6755-0.892-0.8381   c-1.6479-0.7419-1.9551-0.1542-2.819-0.6268c-1.0577-0.5812-2.152-0.407-2.0619-0.4028c-0.2859,0.0333-0.5773-0.009-0.8524-0.1268   c-1.4213-0.6086-2.0837,0.0272-2.9395-0.2572c-1.4739-0.4847-2.0518,0.2008-2.9395-0.0144   c-0.6825-0.1682-1.3911-0.1259-2.0574,0.125c-0.8084,0.3052-1.1636-0.2-2.4351,0.1826c0.6733-0.5386,1.4866-0.4379,2.3964-1.6842   c0.6009-0.8243,1.5969-0.6636,2.498-2.1212c0.1807-0.2941,0.4388-0.5359,0.7562-0.7059c1.4891-0.7962,1.3947-1.8029,2.2704-2.3604   c1.4398-0.9184,1.2496-1.9052,2.0709-2.5286l0.0548-0.0441c1.3702-1.0807,0.9018-1.7246,1.8524-2.739   c0.3804-0.4056,0.8542-0.9109,1.0638-1.9468c0.0453-0.2842,0.4995-1.5981-0.5584-1.7939   c-0.2352-0.0504-0.5619,0.0574-0.8731,0.1448c-0.7915,0.22-1.209,0.3893-1.8461,0.9415c-0.1852,0.1628-0.4955,0.4343-1.0377,0.5404   c-0.7517,0.1466-1.4288,0.5126-1.9639,1.0575l-0.0404,0.0422c-0.692,0.7264-1.6773,0.4632-2.7426,1.8002   c-0.6328,0.797-1.6245,0.6068-2.578,2.0232c-0.1951,0.2886-0.4613,0.5206-0.7841,0.678c-1.5215,0.7429-1.4578,1.7437-2.3577,2.2714   c-1.4662,0.8555-1.3184,1.8461-2.1779,2.4467c-0.1429,0.0998-0.2751,0.2113-0.4019,0.3282   c0.4907-1.4493-0.0688-1.9215,0.4037-2.9908c0.7819-1.7478-0.0325-2.5342,0.3867-3.7236c0.635-1.8035-0.2332-2.5211,0.0935-3.7361   c0.2203-0.8183,0.1879-1.6725-0.0989-2.4881c-0.4233-1.2012,0.4233-1.9021-0.3884-3.7254   c-0.2907-0.6565-0.1891-1.3525-0.1871-1.2625c0.183-2.006-0.7242-2.001-0.829-3.6876c-0.1002-1.5646-1.3134-4.0947-2.5178-3.2515   c-0.1194,0.0795-0.3843,0.4608-0.312,0.3705c-0.0648,0.1475-0.1385,0.2859-0.2131,0.428c-1.0757,2.0506-0.2864,2.3902-1.026,3.5671   c-1.0543,1.6757-0.3134,2.5088-0.8848,3.6597c-0.8619,1.7238-0.0779,2.5493-0.5431,3.711c-0.312,0.7877-0.3786,1.642-0.1862,2.4827   c0.28,1.2302-0.6273,1.8572-0.0477,3.738c0.3666,1.1658-0.4797,1.9199,0.2401,3.7326c0.3851,0.9628-0.0525,1.3045,0.1609,2.5385   c-0.4969-0.5486-0.562-1.3929-1.838-2.1374c-0.3066-0.1799-0.5548-0.4316-0.7256-0.7328   c-0.3822-0.6744-0.9451-1.2031-1.6321-1.5386c-0.3228-0.1573-0.5899-0.3893-0.7841-0.678   c-0.9653-1.4339-1.9302-1.2098-2.5789-2.0232c-1.0573-1.3271-1.6196-0.8846-2.7821-1.8425   c-1.24-1.2629-2.0447-0.7572-3.0016-1.5979c-0.6931-0.6007-1.7151-0.9901-2.4269-1.0862   c-0.6053-0.0749-1.1041,0.4572-0.9981,1.0583c0.1973,0.5407-0.0145,1.3754,1.2112,2.6824   c0.2679,0.2859,0.4613,0.4918,0.5934,0.9091c0.4022,1.2634,1.3992,1.9639,1.3137,1.874c0.2725,0.2068,0.4856,0.4828,0.6196,0.7994   c0.6673,1.5837,1.6699,1.5726,2.1473,2.4872c0.79,1.5247,1.7952,1.4371,2.3307,2.3083c0.9011,1.4576,1.8936,1.2922,2.498,2.1212   c0.9124,1.2498,1.7421,1.1534,2.4045,1.6914C17.4875,31.8555,16.9624,31.825,16.4399,31.9131z M22.4269,37.8173l-0.0261,0.0126   c-0.9875,0.4832-0.9563,1.0652-1.4981,1.2786c-1.0365,0.4068-1.0469,0.9879-1.6051,1.16c-1.093,0.3332-1.1192,0.9093-1.6923,1.035   c-1.0964,0.2478-1.1949,0.8229-1.767,0.9019c-1.1323,0.1591-1.1614,0.6937-1.8901,0.7545   c0.0027-0.0063,0.0072-0.0099,0.0099-0.0153c0.2641-0.5413,0.8276-0.4479,1.4028-1.3829c0.3069-0.5037,0.8832-0.3788,1.5305-1.2598   c0.1178-0.1618,0.2715-0.2742,0.4505-0.3372c0.7442-0.2586,1.0816-0.7147,1.186-0.8066c0.1223-0.143,0.2833-0.2437,0.4658-0.2922   c0.7639-0.2021,1.138-0.6353,1.2427-0.714c0.4054-0.4028,0.9456-0.1599,1.7723-0.8641c0.3519-0.2965,0.5699-0.1688,1.1357-0.3084   C22.7537,37.4271,22.7783,37.6305,22.4269,37.8173z M31.1194,39.8126c0,0,0.3773,0.5938,1.0872,0.9352   c0.5217,0.2512,0.4385,0.8215,1.4081,1.3865c0.4976,0.2894,0.3787,0.8571,1.276,1.4936c0.2646,0.1875,0.3994,0.5665,0.3516,0.4766   c-0.0215-0.0036-0.0378-0.0107-0.0602-0.0143c-0.5636-0.0912-0.6489-0.6646-1.7319-0.9478   c-0.547-0.1375-0.5989-0.7281-1.6563-1.0944c-0.179-0.0612-0.3318-0.1744-0.4496-0.3327c-0.2859-0.3876-0.6699-0.6933-1.116-0.8857   c-0.5267-0.2292-0.4794-0.8135-1.4639-1.3326c-0.5107-0.2717-0.4301-0.8558-1.3461-1.4396l-0.0234-0.0153   c-0.3528-0.2401-0.2785-0.4521-0.6573-0.9819c0.5858,0.2877,0.8152,0.1667,1.1321,0.5026c0.3273,0.3498,0.7427,0.6069,1.2076,0.749   c0.3185,0.0951,0.59,0.4483,0.4999,0.3615C30.2747,39.5088,30.7948,39.3326,31.1194,39.8126z M32.2794,33.8023   c0.8592-0.4055,1.3986,0.2122,2.7875-0.3111c0.3165-0.1178,0.6555-0.1394,0.9946-0.0566c1.4758,0.365,1.8472-0.3409,2.8082-0.0198   c1.4031,0.4604,1.874-0.192,2.7957,0.2041c0.9269,0.3932,1.8443,0.2557,1.7543,0.2536c0.3444-0.0405,0.6861,0.0261,1.0053,0.2005   c1.0305,0.5687,1.011,0.0023-0.0315,0.6681c-0.8202,0.5215-1.4033-0.0309-2.7219,0.6511c-0.8739,0.4486-1.3908-0.1634-2.775,0.4208   c-0.8884,0.3713-1.3901-0.2687-2.7974,0.2032c-0.3192,0.1079-0.66,0.1151-0.9963,0.0189   c-1.4054-0.4037-1.8873,0.2548-2.8065-0.0899c-1.3702-0.5133-1.871,0.1131-2.7803-0.3264c-1.2642-0.6087-1.782-0.0815-2.5421-0.571   c0.4644-0.274,0.9788-0.2611,0.8884-0.2473c0.5746-0.0099,1.1492-0.17,1.6644-0.4658   C30.4007,33.8316,30.8758,34.4581,32.2794,33.8023z M28.2986,30.4222c0.3879-1.0443,1.301-0.9658,1.9882-2.4377   c0.4792-1.0247,1.3577-0.8238,2.1779-2.2714c0.197-0.3462,0.4901-0.6223,0.8597-0.8039c1.4032-0.6793,1.3723-1.6229,2.4099-2.0322   c1.4473-0.5725,1.492-1.511,2.5565-1.8308c1.0471-0.3154,1.7351-1.0828,1.6446-1.0107c0.661-0.6969,1.299-0.4464,2.2894-1.0521   c-0.8354,1.0347-0.4933,1.5377-1.3317,2.1769l-0.054,0.0423c-1.2509,0.9862-0.9388,1.7906-1.9055,2.4099   c-1.376,0.8767-1.1367,1.7457-2.1545,2.2912c-0.5881,0.3147-1.0808,0.7787-1.4342,1.3506   c-0.5983,0.9706-1.4421,0.6647-2.4189,2.0034c-0.2383,0.3255-0.5629,0.5665-0.9567,0.7041   c-1.0593,0.371-1.7167,1.1944-1.6267,1.1141c-0.7338,0.8218-1.4598,0.4003-2.6392,1.481l-0.0413,0.0386   c-0.5289,0.4988-1.2401,0.5547-1.1501,0.5287C26.842,31.8701,27.7189,31.9885,28.2986,30.4222z M22.9556,19.469   c0.5485-1.7537-0.3149-2.3257,0.1951-3.6058c0.2698-0.6798,0.3561-1.4216,0.2482-2.1518   c-0.0693-0.4838,0.0081-0.9684,0.2338-1.4208c0.8088-1.6266,0.0605-2.3276,0.8012-3.5078   c0.8529-1.3547,0.6465-3.5258,0.7391-1.9378c0.1417,2.1661,0.9744,2.0521,0.8309,3.4385l-0.0045,0.054   c-0.1619,1.7717,0.7606,2.1769,0.5126,3.5078c-0.3364,1.7864,0.5753,2.2728,0.2203,3.5959   c-0.1906,0.7104-0.1906,1.4612,0.0036,2.1833c0.3459,1.2915-0.5616,1.7939-0.2221,3.5932c0.242,1.2824-0.6934,1.7744-0.5089,3.5483   c0.0504,0.4865-0.0495,0.9703-0.3004,1.4189c-0.8497,1.532-0.2061,2.3367-0.9532,3.4125   c-0.4896-0.8218-0.7377-0.5811-0.6888-1.4279c0.0405-0.7203-0.1079-1.4432-0.4388-2.1077   c-0.6141-1.2308,0.2155-1.8243-0.4802-3.5726c-0.178-0.4478-0.2149-0.9343-0.1052-1.418   C23.4456,21.2908,22.5552,20.7689,22.9556,19.469z M17.0433,29.2577c-0.3956-0.5422-0.9226-0.9658-1.5286-1.2319   c-0.3759-0.1663-0.6807-0.4316-0.8903-0.7715c-0.8621-1.3953-1.7481-1.1893-2.2642-2.186c-0.7611-1.4738-1.6398-1.3-2.088-2.3577   c-0.4336-1.0328-1.2854-1.6403-1.196-1.5502c-0.822-0.6268-0.5135-1.1608-1.3308-2.1769c0.3093,0.1897,0.714,0.3759,1.2247,0.4748   c0.7255,0.1423,1.1953,0.6893,1.1051,0.6187c1.1107,1.1308,1.8947,0.7572,2.5916,1.6339c1.0051,1.2612,1.8768,0.9855,2.4944,1.9045   c0.3795,0.562,0.8893,1.0062,1.4836,1.2939c1.0661,0.524,0.7759,1.3516,2.2408,2.2085c0.3552,0.2077,0.6268,0.5053,0.7967,0.8668   c0.6927,1.4838,1.5927,1.373,1.9882,2.4377c0.1924,0.5188,0.4927,0.9765,0.8713,1.3578c0.2473,0.6506,0.4348,0.7824,0.5997,1.2598   c-0.5715-0.1571-0.9658-0.5459-0.8758-0.4828c-1.1362-1.0411-1.923-0.6779-2.6401-1.481l-0.0207-0.0242   c-0.4289-0.4955-0.9837-0.8723-1.6051-1.0898C17.6062,29.8243,17.2816,29.5832,17.0433,29.2577z M17.7222,33.8158   c1.3763,0.6376,1.8952,0.0314,2.7543,0.5234c0.8962,0.5081,1.8162,0.4729,1.7256,0.4604c0.2706,0.0009,0.5287,0.0863,0.7661,0.214   c-0.1843,0.1156-0.4163,0.2845-0.7562,0.268c-1.4344-0.085-1.7602,0.6363-2.7237,0.4973c-1.434-0.2437-1.812,0.4797-2.7786,0.2446   c-1.498-0.3677-1.8511,0.3358-2.7992,0.0207c-1.4624-0.4852-1.8658,0.1928-2.7983-0.1943c-1.4308-0.5939-1.8745,0.0491-2.7767-0.41   c-1.2754-0.6543-1.9195-0.1347-2.7237-0.642c-1.0453-0.6589-1.0609-0.0967-0.0333-0.6672c0.5599-0.3085,1.1727-0.1995,1.0826-0.197   c1.3884,0.1251,1.7716-0.5693,2.6769-0.3749c0.5997,0.1214,1.2184,0.0854,1.7921-0.1061c0.9517-0.3206,1.3555,0.3745,2.8091,0.0099   c0.3381-0.0845,0.6771-0.0638,0.9945,0.053C16.3786,34.0531,16.8165,33.3951,17.7222,33.8158z"></path></g></svg>