<svg height='100px' width='100px'  fill="#000000" xmlns="http://www.w3.org/2000/svg" xmlns:xlink="http://www.w3.org/1999/xlink" version="1.1" x="0px" y="0px" viewBox="0 0 236 358.9" style="enable-background:new 0 0 236 358.9;" xml:space="preserve"><style type="text/css">
	.st0{fill:none;stroke:#000000;stroke-width:7;stroke-miterlimit:10;}
</style><g><rect x="0" y="303.6" width="236" height="16.6"></rect><rect x="0" y="280" width="236" height="16.6"></rect><path d="M32.6,358.9h170.9c17.7,0,32.1-14.1,32.6-31.7H0C0.5,344.8,14.9,358.9,32.6,358.9z"></path><path d="M203.4,217.7H187c0.5-1.8,0.8-3.6,1-5.5L202.8,42c1.5-17.6-11.3-33.2-28.7-35.2l-18.4,210.9h-7L167.1,6.2l-16.6-1.5   l-18.6,212.9h-7L143.6,4.2L127,2.7l-18.8,215h-7L120,2.1l-16.6-1.5l-19,217.1h-7l19-217.6C79-1,63.6,12.1,62.1,29.7L47.2,199.9   c-0.6,6.4,0.8,12.5,3.5,17.8H32.6c-17.7,0-32.1,14.1-32.6,31.7h236C235.5,231.8,221.1,217.7,203.4,217.7z"></path><rect x="0" y="256.4" width="236" height="16.6"></rect></g></svg>