<svg height='100px' width='100px'  fill="#000000" xmlns="http://www.w3.org/2000/svg" data-name="Layer 1" viewBox="0 0 128 128" x="0px" y="0px"><title>Project Planning 03 solid</title><path d="M42.25537,42.42218a18.53094,18.53094,0,0,0,9.728,2.58228,19.90631,19.90631,0,0,0,4.50684-.47858A2.0007,2.0007,0,0,0,57.978,42.29224c-.79541-5.353-3.08691-9.39734-6.81152-12.02258-6.584-4.64105-15.19189-3.00421-15.55518-2.93292a2.00071,2.00071,0,0,0-1.56348,2.39673C35.354,35.60315,38.11572,39.87213,42.25537,42.42218Zm6.60693-8.88269A11.39259,11.39259,0,0,1,52.493,37.8349l-3.44666-2.30206a2.00008,2.00008,0,0,0-2.22168,3.32648l3.00616,2.00793a13.589,13.589,0,0,1-5.47736-1.85071,14.0253,14.0253,0,0,1-5.81494-7.988C41.085,30.89862,45.41406,31.10956,48.8623,33.53949Z"></path><path d="M34.04785,49.73535C35.354,55.605,38.11572,59.874,42.25537,62.424a18.53037,18.53037,0,0,0,9.728,2.58228,19.9084,19.9084,0,0,0,4.50684-.47852A2.0007,2.0007,0,0,0,57.978,62.29413c-.79541-5.353-3.08691-9.39734-6.81152-12.02258-6.584-4.64014-15.19189-3.00519-15.55518-2.93292a2.00063,2.00063,0,0,0-1.56348,2.39673Zm14.81445,3.806A11.39212,11.39212,0,0,1,52.493,57.83679l-3.44666-2.30206a2.00008,2.00008,0,0,0-2.22168,3.32648l3.00549,2.00745a13.5866,13.5866,0,0,1-5.47668-1.85022,14.02551,14.02551,0,0,1-5.81494-7.988C41.085,50.89856,45.41406,51.11145,48.8623,53.54138Z"></path><path d="M93.6748,28.206a1.99893,1.99893,0,0,0-1.28613-.86926c-.36279-.07129-8.96973-1.70715-15.55518,2.93292-3.72461,2.62524-6.01611,6.66956-6.81152,12.02258a2.0007,2.0007,0,0,0,1.48779,2.23364,19.90134,19.90134,0,0,0,4.50684.47858,18.53094,18.53094,0,0,0,9.728-2.58228c4.13965-2.55,6.90137-6.819,8.20752-12.68872A1.9991,1.9991,0,0,0,93.6748,28.206ZM83.67725,38.997a13.52625,13.52625,0,0,1-5.48535,1.855l2.9834-1.99268a2.00008,2.00008,0,0,0-2.22168-3.32648L75.5069,37.835a11.38876,11.38876,0,0,1,3.61029-4.28082c3.42969-2.428,7.78223-2.64575,10.34229-2.5188A14.03842,14.03842,0,0,1,83.67725,38.997Z"></path><path d="M93.6748,48.20782a1.99907,1.99907,0,0,0-1.28613-.8692c-.36279-.07129-8.96973-1.70721-15.55518,2.93292-3.72461,2.62524-6.01611,6.66956-6.81152,12.02258a2.0007,2.0007,0,0,0,1.48779,2.23364,19.90342,19.90342,0,0,0,4.50684.47852,18.53037,18.53037,0,0,0,9.728-2.58228c4.13965-2.55,6.90137-6.819,8.20752-12.68866A1.99929,1.99929,0,0,0,93.6748,48.20782ZM83.67725,58.9989a13.52625,13.52625,0,0,1-5.48535,1.855l2.9834-1.99268a2.00008,2.00008,0,0,0-2.22168-3.32648L75.5069,57.83685A11.3883,11.3883,0,0,1,79.11719,53.556c3.42969-2.428,7.78223-2.64868,10.34229-2.5188A14.03863,14.03863,0,0,1,83.67725,58.9989Z"></path><path d="M60.55859,127.91553c2.31183.11432,4.61688.11151,6.92822-.002,10.12207-.49615,20.68115-5.70856,21.4541-16.23688.64209-8.72638-3.94189-15.48486-8.99121-21.48834l-1.30078-1.54211C77.0932,86.80359,75.50854,84.91907,73.98334,83H54.01672c-1.52521,1.91907-3.10992,3.80359-4.66565,5.64624l-1.30078,1.54211c-5.04932,6.00348-9.6333,12.762-8.99121,21.48834C39.832,122.205,50.39111,127.41742,60.55859,127.91553ZM57.85107,96.05707a6.29836,6.29836,0,0,1,4.07031-2.98816V91.00775a2,2,0,1,1,4,0v2.05389a7.04431,7.04431,0,0,1,2.45508,1.14758,2.00028,2.00028,0,0,1-2.34863,3.23859,2.96943,2.96943,0,0,0-1.09912-.51764c-1.21875-.25781-2.896-.11719-3.61523,1.13a2.89673,2.89673,0,0,0,.04346,2.69067c.53662,1.0011,1.63574,1.39758,3.38477,1.96112,2.13525.68756,5.06006,1.63007,6.02734,5.03467a6.221,6.221,0,0,1-3.36279,7.23407,7.07368,7.07368,0,0,1-1.48486.51825v1.51123a2,2,0,1,1-4,0v-1.68011a8.30042,8.30042,0,0,1-2.28076-1.11407,2.00049,2.00049,0,0,1,2.28613-3.28351,3.75854,3.75854,0,0,0,3.74072.44635,2.19679,2.19679,0,0,0,1.252-2.54517c-.34619-1.2179-1.25586-1.62225-3.40479-2.3147-1.94141-.62506-4.35791-1.40344-5.68213-3.87634A6.891,6.891,0,0,1,57.85107,96.05707Z"></path><path d="M65.20068.49438A2.00155,2.00155,0,0,0,62.63184.4397C62.31152.69653,54.7793,6.84656,54.05518,16.783,53.57037,23.4386,56.24835,30.0874,62,36.56085V68.22424a5.77277,5.77277,0,0,0-1.89893,1.33228,4.41555,4.41555,0,0,1-.3418.3194c-.43018.33887-.59082.28125-.73145.23145a6.25749,6.25749,0,0,1-.88965-.44049,7.91412,7.91412,0,0,0-2.05664-.87994,3.37161,3.37161,0,0,0-2.7915.55573,2.83839,2.83839,0,0,0-1.14355,2.13593,4.37906,4.37906,0,0,0,1.415,3.08136l.23291.26465A12.59658,12.59658,0,0,1,55.70911,79h4.149A22.55283,22.55283,0,0,0,57.981,73.97a4.58388,4.58388,0,0,0,4.25049-.94928,8.61306,8.61306,0,0,0,.66406-.60162c.10449-.10156.24268-.23639.35791-.338a3.36082,3.36082,0,0,0,1.49219-.001c.11523.10156.25391.23639.35889.33893a8.79867,8.79867,0,0,0,.66553.60358,4.583,4.583,0,0,0,4.25293.94635A22.4412,22.4412,0,0,0,68.142,79h4.14917a12.44393,12.44393,0,0,1,1.9491-4.21448l.19824-.22559a4.37906,4.37906,0,0,0,1.415-3.08136A2.83839,2.83839,0,0,0,74.71,69.34265a3.38977,3.38977,0,0,0-2.79-.5567,7.93661,7.93661,0,0,0-2.05811.88092,6.25749,6.25749,0,0,1-.88965.44049c-.14209.0498-.30273.10449-.73-.22949a4.5876,4.5876,0,0,1-.34326-.32135A5.83937,5.83937,0,0,0,66,68.2251V36.988c1.68628-1.86194,8.36481-9.88232,7.98438-19.7713C73.74609,11.01587,70.79053,5.3894,65.20068.49438ZM66,30.32776V21.00122a2,2,0,1,0-4,0v9.08c-2.9278-4.35016-4.25873-8.69409-3.9585-12.96515.418-5.93811,3.93213-10.37109,5.854-12.37616,3.86133,3.81964,5.90918,8.05347,6.09082,12.60565C70.1908,22.4657,68.01636,27.13873,66,30.32776Z"></path></svg>