<svg height='100px' width='100px'  fill="#000000" xmlns="http://www.w3.org/2000/svg" xmlns:xlink="http://www.w3.org/1999/xlink" version="1.1" x="0px" y="0px" viewBox="0 0 48 48" enable-background="new 0 0 48 48" xml:space="preserve"><g><path d="M37.2,6.4h-3.8V4.1c0-1.4-0.6-2.6-1.6-3.4c-1-0.7-2.3-0.9-3.7-0.4L9.6,6.4C9.4,6.5,9.3,6.6,9.2,6.7c-1.4,0.6-2.5,2-2.5,3.7   V44c0,2.2,1.8,4,4,4h26.5c2.2,0,4-1.8,4-4V10.4C41.2,8.2,39.5,6.4,37.2,6.4z M28.8,2.2c0.7-0.2,1.4-0.2,1.9,0.2   c0.5,0.3,0.7,1,0.7,1.7v2.3H16.1L28.8,2.2z M39.2,44c0,1.1-0.9,2-2,2H10.8c-1.1,0-2-0.9-2-2V10.4c0-1.1,0.9-2,2-2h26.5   c1.1,0,2,0.9,2,2V44z"></path><path d="M34,10.3c-0.5,0-0.9,0.1-1.4,0.3l-5.3,2.9c-0.8-1.1-2-1.8-3.3-1.8c-1.4,0-2.6,0.7-3.3,1.8l-5.3-2.9   c-0.4-0.2-0.9-0.3-1.4-0.3c-1.6,0-3,1.4-3,3.2v5.4c0,1.7,1.3,3.2,3,3.2c0.5,0,0.9-0.1,1.4-0.3l4.7-2.6l-0.3,0.3   c-0.7,0.8-1.1,1.8-1.2,2.8c-0.1,1.3-1,2.3-2.2,2.8l-2.1,0.8c-0.5,0.2-0.8,0.8-0.6,1.3c0.2,0.4,0.5,0.6,0.9,0.6c0.1,0,0.2,0,0.4-0.1   l2.1-0.8c1.9-0.7,3.2-2.4,3.4-4.5c0.1-0.7,0.3-1.3,0.7-1.8l0.6-0.7c0.6,0.4,1.3,0.6,2.1,0.6c0.8,0,1.5-0.2,2.1-0.6l0.6,0.7   c0.4,0.5,0.7,1.1,0.7,1.8c0.2,2,1.5,3.7,3.4,4.5l2.1,0.8c0.1,0,0.2,0.1,0.4,0.1c0.4,0,0.8-0.2,0.9-0.6c0.2-0.5-0.1-1.1-0.6-1.3   L31.5,25c-1.2-0.5-2-1.5-2.2-2.8c-0.1-1-0.5-2-1.2-2.8L28,19.1l4.7,2.6c0.4,0.2,0.9,0.4,1.4,0.4c1.6,0,3-1.4,3-3.2v-5.4   C37,11.7,35.7,10.3,34,10.3z M19.9,16.9l-5.6,3c-0.6,0.3-1.4-0.1-1.4-1.1v-5.4c0-0.7,0.5-1.2,1-1.2c0.1,0,0.3,0,0.4,0.1l5.6,3   C19.8,15.6,19.8,16.7,19.9,16.9z M24,18.6c-1.2,0-2.1-1.1-2.1-2.4c0-1.3,1-2.4,2.1-2.4c1.2,0,2.1,1.1,2.1,2.4   C26.1,17.5,25.2,18.6,24,18.6z M35,18.8c0,0.9-0.8,1.4-1.4,1.1l-5.6-3c0-0.2,0-1.2,0-1.5l5.6-3c0.6-0.3,1.4,0.1,1.4,1.1V18.8z"></path><path d="M27.2,29.3c-1.2,0-2.3,0.5-3.2,1.3c-0.9-0.8-2-1.3-3.2-1.3c-2.6,0-4.7,2.2-4.7,4.9c0,4.8,7,9.5,7.3,9.7   C23.6,44,23.8,44,24,44c0.2,0,0.4-0.1,0.5-0.2c0.3-0.2,7.3-4.8,7.3-9.7C31.9,31.5,29.8,29.3,27.2,29.3z M24,41.8   c-2-1.4-5.9-4.8-5.9-7.6c0-1.6,1.2-2.9,2.7-2.9c0.9,0,1.8,0.6,2.3,1.5c0.2,0.3,0.5,0.5,0.9,0.5c0,0,0,0,0,0c0.4,0,0.7-0.2,0.9-0.5   c0.5-0.9,1.4-1.5,2.3-1.5c1.5,0,2.7,1.3,2.7,2.9C29.9,37.1,26,40.4,24,41.8z"></path></g></svg>