<svg height='100px' width='100px'  fill="#1A1A1A" xmlns="http://www.w3.org/2000/svg" xmlns:xlink="http://www.w3.org/1999/xlink" version="1.1" x="0px" y="0px" viewBox="0 0 90 90" enable-background="new 0 0 90 90" xml:space="preserve"><path d="M78.348,15.577L76.957,5.373c-0.094-2.687-2.241-4.844-4.874-4.844H20.268c-2.632,0-4.782,2.157-4.873,4.844L14,15.578  c-2.691,0.856-4.659,3.363-4.656,6.416l2.714,60.513c0,3.669,2.832,6.652,6.31,6.652h55.615c3.479,0,6.309-2.983,6.306-6.549  l2.719-60.72C83.008,18.92,81.04,16.429,78.348,15.577z M15.994,19.842h0.062h60.238h0.029h0.034c1.128,0,2.046,0.918,2.049,1.945  v0.004H13.965C14.023,20.709,14.899,19.842,15.994,19.842z M19.975,5.863c0.013-0.103,0.021-0.207,0.021-0.312  c0-0.255,0.16-0.418,0.271-0.418h51.815c0.111,0,0.271,0.163,0.271,0.418c0,0.105,0.008,0.209,0.021,0.312l1.281,9.375H18.694  L19.975,5.863z M73.983,84.556H18.368c-0.94,0-1.706-0.918-1.708-2.151l-2.65-59.078h64.328l-2.648,59.18  C75.689,83.638,74.922,84.556,73.983,84.556z"></path><path d="M46.176,27.746c-14.25,0-25.844,11.592-25.844,25.844c0,14.249,11.593,25.842,25.844,25.842  c14.25,0,25.842-11.593,25.842-25.842C72.018,39.338,60.426,27.746,46.176,27.746z M46.176,76.486  c-12.625,0-22.897-10.271-22.897-22.896c0-12.627,10.272-22.897,22.897-22.897c12.625,0,22.896,10.271,22.896,22.897  C69.072,66.215,58.801,76.486,46.176,76.486z"></path><path d="M46.175,33.505c-11.073,0-20.081,9.011-20.081,20.088c0,11.073,9.007,20.08,20.081,20.08s20.082-9.007,20.082-20.08  C66.257,42.516,57.248,33.505,46.175,33.505z M46.175,72.198c-10.259,0-18.607-8.347-18.607-18.605  c0-10.263,8.348-18.613,18.607-18.613c10.26,0,18.607,8.35,18.607,18.613C64.782,63.852,56.435,72.198,46.175,72.198z   M60.766,45.264c-0.435-0.871-1.704-3.106-4.08-5.035c-1.743-1.456-3.973-2.626-6.115-3.209c-1.946-0.547-3.482-0.609-4.036-0.631  c-1.008,0-1.901,0.129-2.503,0.357c-0.777,0.236-1.185,0.591-1.11,0.973c0.078,0.401,0.628,0.5,1.304,0.583l0.203,0.011  c0.582,0.029,1.305,0.065,2.09,0.065h0.005l0.143,0.005c0.546,0.021,1.824,0.068,3.428,0.454c1.93,0.449,3.979,1.407,5.625,2.633  c2.2,1.594,3.58,3.576,4.071,4.355c0.469,0.726,0.813,1.359,1.041,1.778c0.328,0.605,0.397,0.73,0.614,0.73l0.23-0.068l0.051-0.123  C61.868,47.802,61.348,46.411,60.766,45.264z M48.128,69.01l-0.265-0.011c-0.567-0.03-1.273-0.063-2.032-0.065l-0.139-0.004  c-0.545-0.021-1.827-0.068-3.43-0.454c-1.929-0.449-3.978-1.408-5.622-2.635c-2.196-1.591-3.578-3.574-4.073-4.354  c-0.467-0.727-0.81-1.36-1.038-1.777c-0.329-0.604-0.396-0.73-0.614-0.73l-0.23,0.068l-0.051,0.123  c-0.143,0.339,0.376,1.729,0.958,2.878c0.436,0.868,1.701,3.103,4.079,5.036c1.74,1.454,3.972,2.622,6.115,3.206  c1.944,0.548,3.481,0.611,3.998,0.633h0.037c1.006,0,1.901-0.129,2.503-0.357c0.788-0.241,1.184-0.585,1.109-0.973  C49.356,69.192,48.808,69.094,48.128,69.01z M45.821,70.634L45.821,70.634L45.821,70.634L45.821,70.634z M56.658,44.835  c-1.12-1.438-2.676-2.736-4.267-3.561c-0.963-0.507-1.984-0.901-3.043-1.168c-1.257-0.291-2.585-0.154-3.002,0.27  c-0.134,0.14-0.161,0.282-0.159,0.372c0.004,0.511,0.663,0.826,2.704,1.294l0.118,0.031c0.414,0.102,1.384,0.341,2.543,0.883  c1.411,0.648,2.831,1.704,3.901,2.896c1.434,1.559,2.2,3.302,2.465,3.983c0.229,0.574,0.391,1.069,0.507,1.425  c0.207,0.626,0.267,0.813,0.524,0.813l0.179-0.025l0.076-0.107c0.222-0.315-0.009-1.64-0.217-2.452  C58.801,48.731,58.196,46.763,56.658,44.835z M35.7,62.472c1.12,1.439,2.675,2.737,4.264,3.561c1.446,0.765,2.642,1.066,3.041,1.169  c0.466,0.105,0.925,0.159,1.37,0.159c0.763,0,1.374-0.16,1.634-0.43c0.138-0.139,0.162-0.281,0.16-0.369  c-0.005-0.513-0.663-0.826-2.703-1.295l-0.135-0.034c-0.414-0.103-1.383-0.344-2.527-0.881c-1.406-0.646-2.828-1.701-3.9-2.896  c-1.435-1.56-2.2-3.301-2.465-3.98c-0.228-0.575-0.389-1.067-0.505-1.426c-0.204-0.623-0.267-0.811-0.551-0.811h-0.003l-0.15,0.022  l-0.076,0.108c-0.222,0.315,0.01,1.64,0.217,2.45C33.76,59.395,34.633,61.134,35.7,62.472z M55.917,51.273  c-0.06-0.195-0.105-0.4-0.154-0.612c-0.104-0.458-0.21-0.932-0.442-1.347c-1.072-2.677-3.684-4.624-4.329-4.788  c-0.27-0.143-0.531-0.262-0.796-0.355c-0.236-0.065-0.467-0.075-0.664-0.075h-0.098c-0.693,0.021-0.913,0.294-0.978,0.518  c-0.083,0.297,0.086,0.631,0.471,0.933c0.096,0.082,0.21,0.15,0.332,0.224c0.059,0.037,0.124,0.074,0.168,0.104  c0.194,0.149,0.406,0.288,0.694,0.437c0.441,0.116,2.654,1.532,3.781,3.684c0.891,1.523,1.053,3.21,1.141,4.114  c0.056,0.586,0.081,0.854,0.363,0.854l0.038,0.002c0.291,0,0.376-0.326,0.461-0.647l0.023-0.101  c0.073-0.289,0.171-0.688,0.127-1.167c-0.013-0.151-0.014-0.311-0.016-0.479C56.037,52.183,56.035,51.742,55.917,51.273z   M36.438,56.034c0.06,0.195,0.106,0.402,0.154,0.613c0.104,0.456,0.211,0.931,0.439,1.345c1.07,2.676,3.681,4.624,4.329,4.787  c0.267,0.144,0.528,0.262,0.795,0.354c0.237,0.066,0.468,0.075,0.662,0.075h0.098c0.731-0.021,0.926-0.335,0.977-0.516  c0.085-0.301-0.085-0.635-0.468-0.935c-0.096-0.08-0.21-0.15-0.332-0.224c-0.062-0.036-0.126-0.073-0.169-0.102  c-0.192-0.149-0.403-0.288-0.695-0.437c-0.439-0.117-2.65-1.532-3.778-3.686c-0.888-1.522-1.049-3.206-1.134-4.111  c-0.057-0.57-0.083-0.856-0.401-0.856c-0.293,0-0.377,0.325-0.464,0.648l-0.024,0.104c-0.072,0.291-0.169,0.684-0.127,1.162  c0.013,0.149,0.015,0.31,0.017,0.479C36.318,55.124,36.322,55.565,36.438,56.034z"></path><path d="M61.46,8.034h-5.028c-0.589,0-1.065,0.479-1.065,1.068v2.167c0,0.589,0.477,1.068,1.065,1.068h5.028  c0.59,0,1.066-0.479,1.066-1.068V9.102C62.526,8.513,62.05,8.034,61.46,8.034z"></path><circle cx="26.832" cy="10.186" r="2.898"></circle><circle cx="33.794" cy="10.186" r="1.855"></circle><circle cx="66.702" cy="10.186" r="1.855"></circle></svg>