<svg height='100px' width='100px'  fill="#000000" xmlns="http://www.w3.org/2000/svg" xmlns:xlink="http://www.w3.org/1999/xlink" version="1.1" x="0px" y="0px" viewBox="0 0 50 50" enable-background="new 0 0 50 50" xml:space="preserve"><g><path d="M35.0493,36.3077l-1.0627-1.1931l-2.2157-0.4511c-0.5214-0.1003-1.0126-0.2306-1.4738-0.361   l2.3561,8.0708c0.7325,2.5493,4.5787,1.4521,3.8499-1.1229L35.0493,36.3077z"></path><path d="M48.6344,21.5897c-0.1905-0.2907-4.3112-6.2161-9.665-6.968c-1.4257-0.6668-3.168-0.3648-4.271,0.9424   c-1.534,0.7119-4.4214,1.7545-7.6498,1.3134c0.6818,1.2733,1.183,2.6669,1.4437,4.1407c2.1255,0.01,4.0504-0.401,5.6045-0.9023   l0.6516,4.7623c4.7472-0.4073,5.2642,1.664,3.6595,2.7872c-1.0002-0.054-2.5843-0.1714-5.3137,1.1229l0.1203,0.3008   c0.5715,0.1905,1.2131,0.6617,2.0052,1.4638c0.1575,0.0789,0.4303,0.4152,0.5514,0.5514l1.5841-2.0553   c0.2606,0.0802,0.5213,0.1404,0.8021,0.1604c0.3048,3.6776,0.2182,3.9722,0.5815,4.6018l5.0731,8.5821   c0.5614,0.9525,1.7946,1.2733,2.7471,0.7018c0.9525-0.5614,1.2732-1.7846,0.7018-2.7471l-4.8325-8.1812l-0.4712-5.5644v-0.03   c0.1203-0.4712,0.1604-0.9725,0.0802-1.4839l-0.7018-5.2335c1.8348,1.2532,3.3687,3.098,3.9903,4.0003   C46.8457,26.0379,50.1334,23.7899,48.6344,21.5897z"></path><circle cx="37.4975" cy="9.6879" r="3.5091"></circle><path d="M34.6996,31.4109c-0.0359-0.0401-0.0837-0.0597-0.1242-0.0926   c-0.6777-0.6896-1.5688-1.4525-2.0804-1.3088l-0.6619-1.6922c0,0,3.2352-1.9108,6.2805-1.6758c0,0,0.6639-0.4873-1.2523-0.7393   c-1.3272-0.1745-1.6683-0.0636-8.8392,0.7304c-11.3971-4.2126-9.9859-3.4594-13.0054-5.9039c0,0,2.1031-1.0116,2.0146-1.9144   l-2.6657,0.4217l-0.0346-0.63l-1.4322,0.6977c0,0-3.9679-0.7933-5.0676,1.0667l-0.6546,0.0416   c-0.9211,0.0586-1.3789,1.1769-0.7334,1.8366c0.4926,0.5034,1.348,1.012,2.8197,1.3682c0,0-2.0344,0.2219-1.5127,1.0911   l3.7119,0.1788c0,0,1.6459,1.502,0.6926,2.1615l-5.6653,1.1455c-0.5429,0.11-0.8939,0.6389-0.7843,1.1812   c0.0788,0.3893,0.373,0.6799,0.7333,0.7726c0.1422,0.0367,0.2949,0.0425,0.4479,0.0117l6.0436-1.222   c2.2678-0.0112,2.7212,0.9628,5.4552,1.3678l6.5676,0.9729c3.2255,0.4798,3.1882,1.6218,7.0199,2.4057l2.5382,0.5194l2.577,2.871   c0.3703,0.4118,1.0038,0.4461,1.416,0.0762c0.4121-0.3696,0.4463-1.0038,0.0762-1.416L34.6996,31.4109z M10.8383,20.5126   c-0.0625,0.2428-0.3066,0.387-0.5396,0.327c-0.2428-0.0625-0.387-0.3066-0.3245-0.5494c0.0625-0.2428,0.3066-0.3869,0.5494-0.3244   C10.7566,20.0257,10.9007,20.2698,10.8383,20.5126z"></path><path d="M14.3677,35.0244c-3.5592,0-6.7474-1.6443-8.8328-4.2109c-0.2707-0.3309-0.5213-0.6818-0.7519-1.0427   c-1.1329-1.7646-1.7946-3.87-1.7946-6.1158c0-6.2762,5.1032-11.3794,11.3794-11.3794c6.5201,0,11.9227,5.5749,11.3193,12.4221   l1.935,0.7218c1.1063-7.8806-5.1127-15.1491-13.2542-15.1491c-7.379,0-13.3845,6.0055-13.3845,13.3845   c0,7.3691,6.0055,13.3746,13.3845,13.3746c4.1106,0,7.7901-1.8648,10.2465-4.7924l-2.4163-0.3609   C20.1627,33.8313,17.3955,35.0244,14.3677,35.0244z"></path></g></svg>