<svg height='100px' width='100px'  fill="#000000" xmlns="http://www.w3.org/2000/svg" xmlns:xlink="http://www.w3.org/1999/xlink" version="1.1" x="0px" y="0px" viewBox="0 0 100 100" style="enable-background:new 0 0 100 100;" xml:space="preserve"><path d="M84,9H55.1V6.1C55.1,5.5,54.6,5,54,5h-8c-0.6,0-1.1,0.5-1.1,1.1V9H16C15.5,9,15,9.5,15,10.1v36c0,0.6,0.5,1.1,1.1,1.1h28.9  v46.9c0,0.6,0.5,1.1,1.1,1.1h8c0.6,0,1.1-0.5,1.1-1.1V47.1H84c0.6,0,1.1-0.5,1.1-1.1v-36C85,9.5,84.5,9,84,9z M82.9,44.9H17.1V11.1  h65.8V44.9z M47.1,7.1h5.9V9h-5.9V7.1z M52.9,92.9h-5.9V47.1h5.9V92.9z"></path></svg>