<svg height='100px' width='100px'  fill="#000000" xmlns="http://www.w3.org/2000/svg" xmlns:xlink="http://www.w3.org/1999/xlink" version="1.1" x="0px" y="0px" viewBox="0 0 512 512" style="enable-background:new 0 0 512 512;" xml:space="preserve"><g><rect x="136" y="280" width="16" height="16"></rect><rect x="136" y="384" width="48" height="16"></rect><rect x="352" y="384" width="48" height="16"></rect><path d="M168,344v-16h-9.3725586c-12.4545898,0-24.1640625-4.8500977-32.9707031-13.6567383l-11.3134766,11.3134766   C126.171875,337.4858398,141.8989258,344,158.6274414,344H168z"></path><rect x="184" y="328" width="16" height="16"></rect><path d="M456,400c-1.5,0-2.9958496,0.0705566-4.4770508,0.2094727l-39.5458984-39.5458984l33.0205078-26.4165039   c1.2338867-0.9871826,2.0976563-2.2927246,2.5743408-3.7231445l0.0174561,0.0058594l7.8364258-23.5092773   c2.1015625-4.4492188,3.2543945-9.8022461,3.2543945-15.1503906c0-8.0629883-2.5512695-15.0546875-7.1835938-19.6870117   c-5.1308594-5.1313477-11.9067383-8.0205078-19.1386719-8.1762695l-54.8154297-7.8676758l-25.7346191-6.4335938   c0.7650146-3.4921875-0.8864746-7.189209-4.2302246-8.8608398l-32-16   c-3.9526367-1.9760742-8.7568359-0.3735352-10.7329102,3.5776367l-0.8041992,1.6082764l-16.2553711-12.1899414   c0.526123-2.2297363,0.0950928-4.6671143-1.3852539-6.6405029L264,181.3337402V152c4.418457,0,8-3.581543,8-8V96   c0-4.060791-3.027832-7.4064941-6.9476318-7.9228516l6.8856201-55.0849609   c0.4208984-3.3657227-1.3266602-6.6308594-4.3603516-8.1474609l-16-8   c-1.4130859-0.7070313-3.0048828-0.9819336-4.5698242-0.7827148L122.8901367,31.5766602L107.4731445,16.159668   c-5.0795898-5.0805664-12.0605469-7.3349609-19.1523438-6.1831055c-7.0917969,1.1508789-13.0014648,5.496582-16.2143555,11.9223633   c-2.8647461,5.7290039-3.1015625,12.4086914-0.6503906,18.3261719C73.9072266,46.1430664,78.7983398,50.6987305,84.875,52.7241211   L112,61.7658691V64c-4.418457,0-8,3.581543-8,8v126.7016602l-15.5893555,46.7685547   c-1.0888672,3.2670898,0.034668,6.8642578,2.7900391,8.9301758l4.3137207,3.2346191l-7.3591309,36.7961426   c-5.4462891,27.2319336,6.8945313,55.1279297,30.7075195,69.4160156l1.2351074,0.7412109L108.6860352,376H80   c-1.871582,0-3.6835938,0.65625-5.121582,1.8544922l-48,40c-1.3352051,1.1125488-2.2271729,2.5976563-2.6296387,4.2075195   l-0.0100098-0.0024414l-8,32c-0.597168,2.3901367-0.0605469,4.921875,1.4555664,6.8637695S21.5366211,464,24,464h40   c4.418457,0,8-3.581543,8-8v-8v-16h2.7338867C72.9349365,437.0858154,72,442.4699707,72,448c0,26.4672852,21.5327148,48,48,48   s48-21.5327148,48-48c0-5.5300293-0.9349365-10.9141846-2.7338867-16h21.4677734C184.9349365,437.0858154,184,442.4699707,184,448   c0,26.4672852,21.5327148,48,48,48s48-21.5327148,48-48c0-5.5300293-0.9349365-10.9141846-2.7338867-16h21.4677734   C296.9349365,437.0858154,296,442.4699707,296,448c0,26.4672852,21.5327148,48,48,48s48-21.5327148,48-48   c0-5.5300293-0.9349365-10.9141846-2.7338867-16h21.4987793C408.9589844,437.112793,408,442.5310059,408,448   c0,26.4672852,21.5327148,48,48,48s48-21.5327148,48-48S482.4672852,400,456,400z M431.7402344,280   c3.1894531,0,6.1879883,1.2416992,8.4428711,3.496582c1.5400391,1.5405273,2.4970703,4.7490234,2.4970703,8.3735352   c0,3.0493164-0.6879883,6.2495117-1.8398438,8.5605469c-0.1674805,0.3359375-0.3110352,0.6835938-0.4296875,1.0395508   L434.2341309,320h-55.987915l3.9998779-16H408c3.6713867,0,6.871582-2.4990234,7.7617188-6.0610352l4.859375-19.4526367   l9.9824219,1.4326172C430.9799805,279.9726563,431.3598633,280,431.7402344,280z M374.8632813,271.9189453l29.8365479,4.2822266   L401.7524414,288H376c-3.6708984,0-6.8706055,2.4985352-7.7612305,6.0595703L361.7536621,320h-32.3100586l6.2498779-37.4987793   l9.0362549-18.0725098l29.329834,7.3325195C374.324707,271.8276367,374.5932617,271.8798828,374.8632813,271.9189453z    M297.5795898,273.7338867l21.5581055,10.7792969L313.2230225,320h-27.583374   c-10.8875732,0-21.8603516-0.5380859-32.7365723-1.5895996L297.5795898,273.7338867z M315.5776367,242.7329102   l17.6894531,8.8447266l-8.8447266,17.6894531l-17.6894531-8.8447266L315.5776367,242.7329102z M289.425293,259.2612305   l-55.0820313,55.0820313l2.0800781,2.0800781c-17.7990723-2.7753906-34.9229736-8.9260254-50.4064941-18.0358887   l90.0932617-69.3024902l20.6577148,15.491333L289.425293,259.2612305z M175.9282227,285.9624023   c-0.5517578-8.7315674-4.6191406-16.5195313-10.8015137-21.9672852l89.3322754-68.7167969l14.3994141,19.1992188   L175.9282227,285.9624023z M128,56v-8.9375l88-11V88h-48V72c0-4.418457-3.581543-8-8-8h-32V56z M163.3134766,104H256v32   h-92.6865234l-16-16L163.3134766,104z M165.7661133,152h38.9204102l-10.3432617,10.3432617   C192.8427734,163.8432617,192,165.878418,192,168v24c0,2.121582,0.8427734,4.1567383,2.3432617,5.6567383l13.383667,13.383667   L152,253.9072266v-60.6088867L165.7661133,152z M248,180.0611572l-27.4838867,21.1414795L208,188.6860352v-17.3720703   L227.3134766,152H248V180.0611572z M255.3598633,36.6240234L248.9379883,88H232V34.0623779l14.5888672-1.8236084   L255.3598633,36.6240234z M89.9345703,37.5454102c-2.2915039-0.7641602-3.2998047-2.4853516-3.6962891-3.4433594   c-0.3969727-0.9575195-0.9013672-2.887207,0.1787109-5.0478516c0.8852539-1.7700195,2.5131836-2.9672852,4.4667969-3.2841797   c0.3349609-0.0541992,0.6689453-0.0810547,1-0.0810547c1.5976563,0,3.1162109,0.625,4.2758789,1.7841797L112,43.3134766v1.5869141   L89.9345703,37.5454102z M119.5893555,202.5297852C119.8613281,201.7138672,120,200.8598633,120,200V80h32v12.6865234   l-21.6567383,21.6567383c-3.1245117,3.1240234-3.1245117,8.1894531,0,11.3134766l20.5039063,20.5039063l-14.4365234,43.3095703   C136.1386719,190.2861328,136,191.1401367,136,192v65.0125732c-3.3208008,0.8577881-6.4291992,2.2442627-9.2425537,4.0513916   l-21.3443604-16.0048828L119.5893555,202.5297852z M115.8168945,272.8586426C113.3839111,277.3691406,112,282.5256348,112,288   h-6.2414551l3.9450684-19.7253418L115.8168945,272.8586426z M102.9902344,304H120c4.418457,0,8-3.581543,8-8v-8   c0-8.8222656,7.1777344-16,16-16s16,7.1777344,16,16v8c0,2.5180664,1.1855469,4.8891602,3.199707,6.3999023   c22.0458984,16.534668,48.152832,27.0810547,75.4990234,30.5l2.8364258,0.3540039   C256.1118164,335.0761719,270.9506836,336,285.6396484,336h131.5541992l-20,16H352H184h-48h-5.7841797l-3.1206055-1.8725586   C110.9375,340.4331055,101.7558594,322.4658203,102.9902344,304z M332.1147461,368l-8.3334961,8H210.4140625l-7.666748-8   H332.1147461z M82.8964844,392H112c2.121582,0,4.1567383-0.8427734,5.6567383-2.3432617L139.3139648,368h41.2724609   l20.6376953,21.5351563C202.7329102,391.1098633,204.8193359,392,207,392h120c2.0654297,0,4.050293-0.7988281,5.5400391-2.2290039   L355.2182617,368h41.4677734l57.6572266,57.6567383c1.6938477,1.6943359,2.6269531,3.9467773,2.6269531,6.3432617   s-0.9331055,4.6489258-2.6269531,6.3432617c-3.4980469,3.4970703-9.1884766,3.4970703-12.6865234,0l-20-20   C420.1567383,416.8427734,418.121582,416,416,416h-40c-2.121582,0-4.1567383,0.8427734-5.6567383,2.3432617l-18.3398438,18.3398438   c-1.0585938,1.0585938-2.2939453,1.8842773-3.6728516,2.4550781C346.9487305,439.7099609,345.4916992,440,344,440   c-3.0219727,0-5.8642578-1.1782227-8.003418-3.3168945l-18.3398438-18.3398438C316.1567383,416.8427734,314.121582,416,312,416h-48   c-2.121582,0-4.1567383,0.8427734-5.6567383,2.3432617l-18.3398438,18.3398438   c-1.0585938,1.0585938-2.2939453,1.8842773-3.6728516,2.4550781C234.9487305,439.7099609,233.4916992,440,232,440   c-3.0219727,0-5.8642578-1.1782227-8.003418-3.3168945l-18.3398438-18.3398438C204.1567383,416.8427734,202.121582,416,200,416h-48   v0.0108643c-2.1098633,0.0015869-4.1516113,0.8272705-5.6567383,2.3323975c0,0-11.2524414,11.2524414-18.3325195,18.3422852   C125.8676758,438.8227539,123.0087891,440,119.9599609,440h-0.199707c-2.831543,0-5.5961914-1.144043-7.5932617-3.1464844   l-18.5102539-18.5102539c-1.505249-1.5057373-3.5458984-2.3317871-5.6567383-2.3325195V416H54.0961914L82.8964844,392z M56,448   H34.2460938l4.0002441-16H56V448z M120,480c-17.6450195,0-32-14.3549805-32-32   c0-3.7407227,0.6352539-7.3833008,1.8691406-10.8168945l10.9760742,10.9755859   C105.8139648,453.1420898,112.7080078,456,119.7602539,456h0.199707c7.3144531,0,14.1860352-2.8359375,19.3613281-7.9970703   c3.2260742-3.230957,7.3134766-7.3208008,10.8100586-10.8188477C151.3647461,440.6176758,152,444.2597656,152,448   C152,465.6450195,137.6450195,480,120,480z M232,480c-17.6450195,0-32-14.3549805-32-32   c0-3.7373047,0.6540527-7.3695068,1.8857422-10.8005371l10.7973633,10.7971191C217.84375,453.1577148,224.7041016,456,232,456   c3.6020508,0,7.1181641-0.6992188,10.4492188-2.078125c3.3310547-1.378418,6.3144531-3.3720703,8.8676758-5.925293   l10.7973633-10.7971191C263.3459473,440.6304932,264,444.2626953,264,448C264,465.6450195,249.6450195,480,232,480z M344,480   c-17.6450195,0-32-14.3549805-32-32c0-3.7373047,0.6540527-7.3695068,1.8857422-10.8005371l10.7973633,10.7971191   C329.84375,453.1577148,336.7041016,456,344,456c3.6020508,0,7.1181641-0.6992188,10.4492188-2.078125   c3.3310547-1.378418,6.3144531-3.3720703,8.8676758-5.925293l10.7973633-10.7971191   C375.3459473,440.6304932,376,444.2626953,376,448C376,465.6450195,361.6450195,480,344,480z M456,480   c-17.6450195,0-32-14.3549805-32-32c0-1.4688721,0.1105957-2.9306641,0.3095703-4.3769531l6.0336914,6.0336914   c4.8676758,4.8681641,11.262207,7.3022461,17.6567383,7.3022461s12.7890625-2.434082,17.6567383-7.3022461   c4.7163086-4.7158203,7.3134766-10.9868164,7.3134766-17.6567383c0-4.7067871-1.2988281-9.2119141-3.7174072-13.1149902   C480.300293,423.9338379,488,435.0809326,488,448C488,465.6450195,473.6450195,480,456,480z"></path></g></svg>