<svg height='100px' width='100px'  fill="#000000" xmlns="http://www.w3.org/2000/svg" xmlns:xlink="http://www.w3.org/1999/xlink" version="1.1" x="0px" y="0px" viewBox="0 -96.833 203.167 196.833" enable-background="new 0 -96.833 203.167 196.833" xml:space="preserve"><path d="M169.378,45.893c-3.228,0.753-5.726,1.739-7.702,2.779c6.168-8.046,10.796-17.142,13.973-25.934  c0.1,0.085,0.228,0.179,0.417,0.29c2.145,1.223,6.726,1.365,12.576-2.259c5.651-3.502,8.862-9.542,10.28-12.854  c-3.562-0.212-10.379-0.037-16.085,3.497c-2.12,1.316-3.679,2.643-4.828,3.909c0.819-2.94,1.487-5.805,1.974-8.518  c0.029-0.156-0.003-0.306-0.008-0.457c1.765-1.139,4.103-3.773,5.344-9.074c1.399-5.97-0.36-11.891-1.61-15.029  c-2.5,2.253-6.731,6.804-8.125,12.743c-1.223,5.226-0.482,8.544,0.574,10.369c-0.128,0.214-0.231,0.449-0.28,0.708  c-0.964,5.37-2.621,11.326-4.949,17.375c0.058-1.024,0.066-2.124-0.004-3.323c-0.448-7.649-4.896-14.162-7.364-17.222  c-2.083,3.283-5.745,10.232-5.294,17.959c0.541,9.271,4.407,12.175,5.579,12.846c0.856,0.487,1.399,0.498,1.548,0.489  c0.202-0.01,0.479-0.106,0.8-0.279c-5.173,9.817-12.311,19.087-21.556,25.727c1.524-2.25,2.934-5.314,3.91-9.445  c2.325-9.831-1.074-19.639-2.903-23.894c-3.513,2.949-10.935,10.155-13.273,20.073c-2.817,11.909,1.188,17.207,3.312,18.531  c-8.29,3.785-17.11,5.067-26.376,3.842c0.784-0.297,1.564-0.574,2.353-0.9c0.072-0.029,0.145-0.064,0.209-0.102  c0.919-0.505,1.331-1.631,0.92-2.624c-0.443-1.062-1.66-1.569-2.725-1.13c-3.027,1.257-6.011,2.267-8.952,3.047  c-2.928-0.826-5.895-1.883-8.901-3.186c-1.058-0.457-2.283,0.03-2.741,1.085c-0.427,0.986-0.032,2.119,0.877,2.639  c0.064,0.038,0.137,0.074,0.206,0.105c0.784,0.338,1.561,0.627,2.34,0.938c-9.283,1.08-18.083-0.342-26.312-4.255  c2.146-1.291,6.235-6.526,3.605-18.478c-2.186-9.953-9.491-17.275-12.958-20.278c-1.895,4.226-5.448,13.978-3.277,23.845  c0.911,4.146,2.273,7.232,3.761,9.505c-9.138-6.784-16.129-16.165-21.147-26.062c0.316,0.177,0.592,0.277,0.794,0.291  c0.148,0.012,0.692,0.009,1.555-0.464c1.183-0.652,5.093-3.496,5.78-12.757c0.572-7.719-2.979-14.725-5.011-18.04  c-2.516,3.021-7.066,9.462-7.633,17.104c-0.089,1.199-0.098,2.298-0.057,3.323c-2.233-6.084-3.795-12.066-4.676-17.45  c-0.045-0.261-0.145-0.497-0.27-0.713c1.085-1.808,1.877-5.115,0.737-10.359c-1.299-5.96-5.458-10.577-7.922-12.869  c-1.299,3.118-3.152,9.011-1.847,15.002c1.158,5.32,3.455,7.99,5.2,9.157c-0.007,0.151-0.041,0.3-0.015,0.457  c0.445,2.72,1.066,5.594,1.84,8.547c-1.131-1.284-2.667-2.636-4.766-3.984C14.624,6.513,7.811,6.232,4.245,6.387  c1.367,3.335,4.482,9.424,10.078,13.014c5.794,3.716,10.375,3.646,12.538,2.457c0.192-0.108,0.319-0.201,0.422-0.285  c3.039,8.841,7.523,18.009,13.562,26.151c-1.959-1.071-4.441-2.096-7.655-2.9c-9.79-2.451-19.664,0.828-23.918,2.583  c2.95,3.584,10.105,11.098,19.882,13.537c8.594,2.149,13.621,0.408,15.851-0.818c2.131-1.175,2.944-2.483,3.077-3.016  c0.065-0.256,0.08-0.583,0.044-0.945c4.009,3.999,8.488,7.549,13.526,10.353c2.835,1.579,5.737,2.876,8.693,3.892  c-2.628,0.542-5.985,1.806-10.019,4.519c-0.767,0.518-1.529,1.085-2.262,1.689c-6.942,5.742-10.459,13.887-11.84,17.807  c4.627,0.212,15.002-0.065,23.38-5.704c1.028-0.688,1.994-1.412,2.877-2.144c7.315-6.048,7.866-11.821,7.189-13.935  c6.865,0.973,14.019,0.512,21.407-1.318c7.36,1.946,14.504,2.519,21.385,1.655c-0.708,2.102-0.248,7.883,6.969,14.045  c0.872,0.744,1.829,1.483,2.846,2.188c8.289,5.769,18.658,6.21,23.289,6.07c-1.321-3.941-4.71-12.14-11.561-17.99  c-0.722-0.616-1.475-1.196-2.235-1.726c-3.99-2.775-7.327-4.091-9.946-4.674c2.973-0.97,5.892-2.222,8.754-3.755  c5.082-2.724,9.614-6.204,13.688-10.139c-0.042,0.361-0.033,0.688,0.028,0.944c0.125,0.535,0.916,1.856,3.03,3.064  c2.209,1.261,7.21,3.081,15.837,1.067c9.814-2.285,17.086-9.687,20.092-13.224C189.026,47.028,179.203,43.595,169.378,45.893z"></path><path d="M122.665-11.313c-13.252-4.084-16.244-4.339-26.257-16.315c-2.031-2.427-12.438-17.37-14.529-19.951  c-3.449-4.248-7.014-8.639-10.832-13.006c-1.161-1.325-3.174-1.463-4.498-0.303c-0.031,0.027-0.052,0.059-0.08,0.086  c-4.729,2.797-7.916,7.927-7.916,13.82c0,4.732,0.462,10.566,3.719,13.509l3.188,39.82h4.781v-35.25  c8.828,0.85,18.531,5.972,26.759,28.379c0.05,0.137,1.705,3.462,1.774,3.592c1.077,2.011,1.901,3.352,35.096,3.352  c2.211,0,10.745-0.072,10.745-3.37c-0.017-0.517-0.196-1.195-0.346-1.65C141.66-8.667,138.909-6.304,122.665-11.313z"></path></svg>