<svg height='100px' width='100px'  fill="#000000" xmlns="http://www.w3.org/2000/svg" xmlns:xlink="http://www.w3.org/1999/xlink" version="1.1" x="0px" y="0px" viewBox="0 0 512 512" enable-background="new 0 0 512 512" xml:space="preserve"><path d="M438.287,141.107h-144.87L403.628,30.893L382.415,9.68L258.387,133.711L134.359,9.68l-21.214,21.213l110.211,110.215H73.713  c-26.666,0-48.36,21.693-48.36,48.359v264.494c0,26.666,21.694,48.359,48.36,48.359h364.574c26.665,0,48.359-21.693,48.359-48.359  V189.467C486.646,162.801,464.952,141.107,438.287,141.107z M456.646,453.961c0,10.123-8.236,18.359-18.359,18.359H73.713  c-10.124,0-18.36-8.236-18.36-18.359V189.467c0-10.123,8.236-18.359,18.36-18.359h364.574c10.123,0,18.359,8.236,18.359,18.359  V453.961z"></path><rect x="405.322" y="198.686" width="27.794" height="30"></rect><rect x="405.322" y="241.781" width="27.794" height="30"></rect><polygon points="274.113,338.834 279.697,314.51 199.753,304.924 205.893,338.834 "></polygon><path d="M97.946,429.732h272.43V213.686H97.946V429.732z M184.575,246.154l8.338,27.734l123.49,14.807l-16.757,73.002  c5.239,3.75,8.666,9.869,8.666,16.803c0,11.414-9.254,20.668-20.668,20.668c-11.413,0-20.666-9.254-20.666-20.668  c0-3.494,0.875-6.781,2.405-9.666h-57.46c1.531,2.885,2.405,6.172,2.405,9.666c0,11.414-9.253,20.668-20.667,20.668  c-11.414,0-20.666-9.254-20.666-20.668c0-6.08,2.642-11.529,6.821-15.311l-13.05-72.072l-10.92-36.326L184.575,246.154z"></path></svg>