<?xml version="1.0" encoding="utf-8"?>
<!-- Generator: Adobe Illustrator 24.2.1, SVG Export Plug-In . SVG Version: 6.00 Build 0)  -->
<svg version="1.1" id="Layer_1" xmlns="http://www.w3.org/2000/svg" xmlns:xlink="http://www.w3.org/1999/xlink" x="0px" y="0px"
	 viewBox="0 0 100 100" enable-background="new 0 0 100 100" xml:space="preserve">
<g>
	<path fill-rule="evenodd" clip-rule="evenodd" d="M11.544,66.567l0.9-1.499h-2.099l0.9,1.499v5.997l0.3-0.6V66.567z M92.654,46.627
		C91.604,59.97,93.703,72.714,99.1,83.958H62.519c5.397-11.244,7.496-23.988,6.447-37.331H17.091v5.997h0.15
		c0.3-0.6,0.75-0.9,1.499-0.9c0.75,0,1.499,0.6,1.499,1.499c0,0.9-0.75,1.499-1.499,1.499c-0.75,0-1.199-0.45-1.499-0.9h-0.15v0.9
		l0,0v0.15c0,2.549-1.949,4.798-4.648,5.247v3.748v0.3v0.75l0,0l0,0h-2.099V60.12c-2.699-0.45-4.648-2.699-4.648-5.247v-0.15l0,0
		v-8.096h-0.45c-2.099,0-3.898-1.349-4.798-3.148h99.1c-0.9,1.799-2.699,3.148-4.798,3.148H92.654z M0.15,42.279
		C0,41.979,0,41.679,0,41.379V39.28h18.141c0.45,0,0.75-0.45,0.75-0.9l0,0c0-0.45-0.3-0.75-0.75-0.75H0v-2.249h18.141
		c0.45,0,0.75-0.45,0.75-0.75l0,0c0-0.45-0.3-0.9-0.75-0.9H0v-2.249h18.141c0.45,0,0.75-0.3,0.75-0.75l0,0c0-0.45-0.3-0.9-0.75-0.9
		H0v-2.249h18.141c0.45,0,0.75-0.3,0.75-0.75l0,0c0-0.45-0.3-0.75-0.75-0.75H0v-4.798c0-2.849,2.399-5.247,5.247-5.247h89.505
		c2.849,0,5.247,2.399,5.247,5.247v20.09c0,0.3,0,0.6-0.15,0.9H0.15z M82.759,19.94c5.697,0,10.345,4.648,10.345,10.345
		S88.456,40.63,82.759,40.63s-10.345-4.648-10.345-10.345S77.061,19.94,82.759,19.94z M82.759,21.139
		c5.097,0,9.145,4.048,9.145,9.145s-4.048,9.145-9.145,9.145s-9.145-4.048-9.145-9.145S77.661,21.139,82.759,21.139z M82.759,20.54
		c5.397,0,9.745,4.348,9.745,9.745s-4.348,9.745-9.745,9.745s-9.745-4.348-9.745-9.745S77.361,20.54,82.759,20.54z"/>
</g>
</svg>
