<svg height='100px' width='100px'  fill="#000000" xmlns="http://www.w3.org/2000/svg" xmlns:xlink="http://www.w3.org/1999/xlink" version="1.1" x="0px" y="0px" viewBox="0 0 100 100" style="enable-background:new 0 0 100 100;" xml:space="preserve"><style type="text/css">
	.st0{fill:none;stroke:#000000;stroke-width:2;stroke-linecap:round;stroke-linejoin:round;stroke-miterlimit:10;}
</style><path d="M48.5,70.5h28.8c0.6,0,1-0.4,1-1s-0.4-1-1-1H48.5c-0.6,0-1,0.4-1,1S47.9,70.5,48.5,70.5z"></path><path d="M48.5,74.8h28.8c0.6,0,1-0.4,1-1s-0.4-1-1-1H48.5c-0.6,0-1,0.4-1,1S47.9,74.8,48.5,74.8z"></path><path d="M48.5,79.1h28.8c0.6,0,1-0.4,1-1s-0.4-1-1-1H48.5c-0.6,0-1,0.4-1,1S47.9,79.1,48.5,79.1z"></path><path d="M88.1,52.3H36.3c-0.6,0-1,0.4-1,1v35.2c0,0.6,0.4,1,1,1h51.8c0.6,0,1-0.4,1-1V53.3C89.1,52.7,88.6,52.3,88.1,52.3z   M87.1,87.5H37.3V54.3h49.8V87.5z"></path><path d="M64.7,47.2V12c0,0,0-0.1,0-0.1c0-0.1,0-0.2-0.1-0.2c0-0.1-0.1-0.2-0.2-0.2c0,0,0-0.1-0.1-0.1c0,0,0,0,0,0  c-0.1-0.1-0.2-0.2-0.3-0.2C64,11,63.9,11,63.7,11c0,0,0,0,0,0H11.9c0,0,0,0,0,0c-0.1,0-0.3,0-0.4,0.1c-0.1,0.1-0.2,0.1-0.3,0.2  c0,0,0,0,0,0c0,0,0,0.1-0.1,0.1c-0.1,0.1-0.1,0.1-0.2,0.2c0,0.1,0,0.2-0.1,0.2c0,0,0,0.1,0,0.1v35.2c0,0,0,0.1,0,0.1  c0,0.1,0,0.1,0,0.2c0,0.1,0.1,0.1,0.1,0.2c0,0,0,0.1,0.1,0.1c0,0,0,0,0,0c0.1,0.1,0.2,0.1,0.3,0.2c0,0,0,0,0.1,0  c0.1,0.1,0.3,0.1,0.4,0.1h51.8C64.3,48.2,64.7,47.7,64.7,47.2z M12.9,14.4l16.6,16.2L12.9,45V14.4z M39.7,34c-1,1-2.7,1-3.7,0  L14.4,13h46.9L39.7,34z M31,31.9l3.6,3.5c0.9,0.9,2.1,1.3,3.3,1.3c1.2,0,2.4-0.4,3.3-1.3l3.8-3.7l16,14.4H14.6L31,31.9z M46.3,30.3  l16.4-16v30.7L46.3,30.3z"></path><path d="M74.7,66h8.7c0.6,0,1-0.4,1-1v-6.8c0-0.6-0.4-1-1-1h-8.7c-0.6,0-1,0.4-1,1V65C73.7,65.5,74.2,66,74.7,66z M75.7,59.2h6.7V64  h-6.7V59.2z"></path></svg>