<svg height='100px' width='100px'  fill="#000000" xmlns="http://www.w3.org/2000/svg" data-name="Layer 1" viewBox="0 0 128 128" x="0px" y="0px"><title>City Elements 02 expandlines</title><path d="M128,28a5.00589,5.00589,0,0,0-5-5h-4.333a5.00589,5.00589,0,0,0-5,5v1a2,2,0,0,0,4,0V28a1.00068,1.00068,0,0,1,1-1H123a1.00068,1.00068,0,0,1,1,1v8.20782l-8.3335,8.871L106.791,35.63087a2.0168,2.0168,0,0,0-2.916,0L95,45.07874l-8.875-9.44786a2.01694,2.01694,0,0,0-2.916,0L74.3335,45.0788,65.458,35.63087a2.01685,2.01685,0,0,0-2.916,0L53.6665,45.0788,44.791,35.63086a2.02987,2.02987,0,0,0-1.40309-.62255,2.23661,2.23661,0,0,0-1.46858.584.48512.48512,0,0,0-.04435.03854L33,45.07874l-8.875-9.44788a2.01733,2.01733,0,0,0-2.916,0L12.3335,45.0788,4,36.20782V28a1.00068,1.00068,0,0,1,1-1H9.333a1.00068,1.00068,0,0,1,1,1v3a2,2,0,0,0,4,0V28a5.00589,5.00589,0,0,0-5-5H5a5.00589,5.00589,0,0,0-5,5s.01,74.82276.00788,74.98432a1.97518,1.97518,0,0,0,.623,1.47368,2.032,2.032,0,0,0,2.82716-.08886L12.3335,94.9212l8.87547,9.44792a2.00752,2.00752,0,0,0,2.916,0L33,94.92126l8.875,9.44787a2.0076,2.0076,0,0,0,2.916,0L53.6665,94.9212l8.87551,9.448a2.00794,2.00794,0,0,0,2.916,0L74.3335,94.9212l8.87551,9.448a2.00774,2.00774,0,0,0,2.916,0L95,94.92126l8.875,9.44788a2.03117,2.03117,0,0,0,2.81441.10011q.05268-.04811.10161-.10011l8.87549-9.44794,8.87549,9.44794a2.00028,2.00028,0,0,0,2.82715.08887,1.97469,1.97469,0,0,0,.62312-1.45832C127.99135,102.833,128,28,128,28ZM115.6665,67.0788,108.07721,59l7.58929-8.0788L123.2558,59ZM124,64.05017V75.94983L118.41071,70ZM105.33307,78.0788,97.74414,70l7.58893-8.0788L112.9223,70ZM95,67.07874,87.41113,59,95,50.92126,102.58887,59ZM84.66693,78.0788,77.0777,70l7.58923-8.0788L92.25586,70Zm-10.33344-11L66.7442,59l7.58929-8.0788L81.92279,59ZM64,78.0788,56.41071,70,64,61.9212,71.58929,70Zm-10.3335-11L46.07721,59l7.58929-8.0788L61.2558,59Zm-10.33344,11L35.74414,70l7.58893-8.0788L50.9223,70ZM33,67.07874,25.41113,59,33,50.92126,40.58887,59ZM22.66693,78.0788,15.0777,70l7.58923-8.0788L30.25586,70Zm-10.33344-11L4.7442,59l7.58929-8.0788L19.92279,59ZM9.58929,70,4,75.94983V64.05017Zm2.7442,2.9212L19.92279,81,12.3335,89.0788,4.7442,81ZM33,72.92126,40.58887,81,33,89.07874,25.41113,81Zm20.6665-.00006L61.2558,81,53.6665,89.0788,46.07721,81Zm20.667,0L81.92279,81,74.3335,89.0788,66.7442,81ZM95,72.92126,102.58887,81,95,89.07874,87.41113,81Zm20.6665-.00006L123.2558,81l-7.58929,8.0788L108.07721,81ZM124,42.05017V53.94983L118.41071,48Zm-18.66693-2.129L112.9223,48l-7.58923,8.0788L97.74414,48Zm-20.66614,0L92.25586,48l-7.58893,8.0788L77.0777,48ZM64,39.9212,71.58929,48,64,56.0788,56.41071,48Zm-20.66693,0L50.9223,48l-7.58923,8.0788L35.74414,48Zm-20.66614,0L30.25586,48l-7.58893,8.0788L15.0777,48ZM9.58929,48,4,53.94983V42.05017ZM4,97.94983V86.05017L9.58929,92Zm18.66693,2.129L15.0777,92l7.58923-8.0788L30.25586,92Zm20.66614,0L35.74414,92l7.58893-8.0788L50.9223,92Zm20.66693,0L56.41071,92,64,83.9212,71.58929,92Zm20.66693,0L77.0777,92l7.58923-8.0788L92.25586,92Zm20.66614,0L97.74414,92l7.58893-8.0788L112.9223,92ZM124,86.05017V97.94983L118.41071,92Z"></path></svg>