<svg height='100px' width='100px'  fill="#000000" xmlns="http://www.w3.org/2000/svg" xmlns:xlink="http://www.w3.org/1999/xlink" xml:space="preserve" version="1.1" style="shape-rendering:geometricPrecision;text-rendering:geometricPrecision;image-rendering:optimizeQuality;" viewBox="0 0 847 847" x="0px" y="0px" fill-rule="evenodd" clip-rule="evenodd"><defs><style type="text/css">
   
    .fil0 {fill:#000000}
   
  </style></defs><g><path class="fil0" d="M321 336c0,37 -24,53 -19,78 16,48 33,98 37,149 2,5 14,3 13,-2 -8,-32 -9,-60 2,-81 49,30 -6,121 101,108 52,-6 83,-13 88,-20 -2,-7 -2,-15 2,-28 7,-29 -77,-34 -85,-78 3,-15 -3,-27 -11,-38 4,-17 3,-35 -6,-55l-7 -35c3,-1 4,-10 1,-34 -3,-5 -6,-12 -8,-23l-28 1c-8,3 -16,2 -24,0 -15,2 -29,3 -42,0l0 -15c-1,-8 -12,-7 -13,0l1 35c-4,13 -4,25 -2,38z"></path></g></svg>