<?xml version="1.0" encoding="utf-8"?>
<!-- Generator: Adobe Illustrator 24.2.1, SVG Export Plug-In . SVG Version: 6.00 Build 0)  -->
<svg version="1.1" id="Layer_1" xmlns="http://www.w3.org/2000/svg" xmlns:xlink="http://www.w3.org/1999/xlink" x="0px" y="0px"
	 viewBox="0 0 100 100" enable-background="new 0 0 100 100" xml:space="preserve">
<g>
	<path fill-rule="evenodd" clip-rule="evenodd" d="M50,0c27.612,0,50,22.388,50,50s-22.388,50-50,50S0,77.612,0,50S22.388,0,50,0z
		 M50,3.172c25.933,0,46.828,21.082,46.828,46.828c0,25.933-20.896,46.828-46.828,46.828C24.254,96.828,3.172,75.933,3.172,50
		C3.172,24.254,24.254,3.172,50,3.172z"/>
	<path fill-rule="evenodd" clip-rule="evenodd" d="M62.5,15.112c3.172,0,5.597,2.612,5.597,5.784c0,20.149,0,40.299,0,60.448
		c0,1.866-1.679,3.545-3.545,3.545c-2.052,0-3.545-1.679-3.545-3.545V57.276h-4.104V20.896C56.903,17.724,59.328,15.112,62.5,15.112
		z"/>
	<path fill-rule="evenodd" clip-rule="evenodd" d="M41.231,32.276V16.791c0-0.746,0.56-1.306,1.306-1.306s1.306,0.56,1.306,1.306
		v15.485h2.052V16.791c0-0.746,0.56-1.306,1.306-1.306c0.746,0,1.306,0.56,1.306,1.306v21.642c0,2.612-2.239,4.291-4.851,4.291
		v38.619c0,1.866-1.493,3.545-3.545,3.545c-1.866,0-3.358-1.679-3.358-3.545V42.724c-2.612,0-4.851-1.679-4.851-4.291
		c0-7.276,0-14.552,0-21.642c0-0.746,0.56-1.306,1.306-1.306s1.306,0.56,1.306,1.306v15.485h2.052V16.791
		c0-0.746,0.56-1.306,1.306-1.306c0.746,0,1.306,0.56,1.306,1.306v15.485H41.231z"/>
</g>
</svg>
