<svg height='100px' width='100px'  fill="#000000" xmlns:dc="http://purl.org/dc/elements/1.1/" xmlns:cc="http://creativecommons.org/ns#" xmlns:rdf="http://www.w3.org/1999/02/22-rdf-syntax-ns#" xmlns:svg="http://www.w3.org/2000/svg" xmlns="http://www.w3.org/2000/svg" xmlns:sodipodi="http://sodipodi.sourceforge.net/DTD/sodipodi-0.dtd" xmlns:inkscape="http://www.inkscape.org/namespaces/inkscape" viewBox="0 0 12.7 12.7" version="1.1" x="0px" y="0px"><g transform="translate(0,-284.29998)"><path style="" d="m 11.505709,285.68148 a 0.59144305,0.59144305 0 0 0 -0.445788,0.26663 0.29734837,0.29734837 0 0 1 -0.08616,0.0862 8.5833891,8.5833891 0 0 1 -0.942337,0.53672 1.5363,1.5363 0 0 1 -0.6920958,0.15584 2.0201096,2.0201096 0 0 0 -1.2572919,0.4206 0.29734837,0.29734837 0 0 1 -0.3591594,0 2.619901,2.619901 0 0 0 -1.0845021,-0.47089 0.48701629,0.48701629 0 0 0 -0.2536124,0.0337 0.02477905,0.02477905 0 0 0 -0.00937,0.0403 2.9971338,2.9971338 0 0 1 0.8779035,1.57187 1.0407193,1.0407193 0 0 1 -0.6669032,1.19061 4.568979,4.568979 0 0 1 -2.383095,0.19208 8.7418864,8.7418864 0 0 0 -1.4920801,-0.14713 0.22301129,0.22301129 0 0 1 -0.2182116,-0.19601 4.4017054,4.4017054 0 0 1 0.6209196,-2.83937 0.09539119,0.09539119 0 0 0 -0.1471289,-0.1196 4.0158176,4.0158176 0 0 0 -1.2244197,3.47537 0.29734837,0.29734837 0 0 1 -0.055255,0.21681 2.9876687,2.9876687 0 0 0 -0.5609817,2.10232 1.4341721,1.4341721 0 0 0 0.068367,0.50048 1.5363,1.5363 0 0 1 0.038398,0.80429 3.1639261,3.1639261 0 0 0 0,1.34542 0.44602258,0.44602258 0 0 0 0.3334048,0.34071 4.1789368,4.1789368 0 0 0 1.206532,0.10312 0.3919841,0.3919841 0 0 0 0.2594189,-0.66204 1.2610476,1.2610476 0 0 1 -0.1727899,-0.22795 1.0731916,1.0731916 0 0 1 -0.064621,-0.47089 0.5451387,0.5451387 0 0 1 0.2623222,-0.41956 1.0676153,1.0676153 0 0 0 0.290418,-0.25652 0.09911612,0.09911612 0 0 1 0.1674516,0.0187 0.21504909,0.21504909 0 0 0 0.064621,0.0787 0.84829377,0.84829377 0 0 0 0.2632587,-0.53719 0.09911612,0.09911612 0 0 1 0.1767233,-0.0506 0.48631577,0.48631577 0 0 0 0.00937,0.0112 1.6903293,1.6903293 0 0 0 -0.1156615,-1.08946 0.04968998,0.04968998 0 1 1 0.089907,-0.0421 1.7894454,1.7894454 0 0 1 0.1224981,1.15372 0.09911612,0.09911612 0 0 1 -0.17382,0.0403 0.58543189,0.58543189 0 0 1 -0.010302,-0.014 0.94740989,0.94740989 0 0 1 -0.2937896,0.60013 0.09911612,0.09911612 0 0 1 -0.1277427,0.009 0.31416521,0.31416521 0 0 1 -0.093934,-0.1151 1.1667314,1.1667314 0 0 1 -0.2922911,0.26467 1.1592548,1.1592548 0 0 1 0.544967,0.363 0.04955809,0.04955809 0 0 0 0.06743,0.009 0.58711301,0.58711301 0 0 1 0.2676603,-0.10939 0.14867421,0.14867421 0 0 1 0.1054533,0.0253 0.94944047,0.94944047 0 0 1 0.2715002,0.28892 0.04955809,0.04955809 0 0 0 0.066494,0.0178 v 0 a 0.54792629,0.54792629 0 0 1 0.3851949,-0.0618 0.88391635,0.88391635 0 0 1 0.4022398,0.29089 0.04955809,0.04955809 0 0 0 0.064621,0.0131 0.97671055,0.97671055 0 0 0 0.099179,-0.0656 0.14867421,0.14867421 0 0 1 0.2124987,0.0347 0.49219452,0.49219452 0 0 0 0.2530505,0.1902 4.8534831,4.8534831 0 0 0 0.1776598,-0.63309 0.72260436,0.72260436 0 0 1 -0.1350477,0.0862 0.09911612,0.09911612 0 0 1 -0.1340175,-0.13065 2.6336957,2.6336957 0 0 0 0.2375978,-0.91948 0.04963719,0.04963719 0 0 1 0.09871,0.009 2.7328119,2.7328119 0 0 1 -0.2463075,0.95395 0.62348824,0.62348824 0 0 0 0.1166917,-0.0749 0.09911612,0.09911612 0 0 1 0.1592101,0.0967 4.9525993,4.9525993 0 0 1 -0.2652254,0.86732 0.59960143,0.59960143 0 0 0 0.077732,-0.0318 0.09911612,0.09911612 0 0 1 0.1408542,0.11033 33.988735,33.988735 0 0 1 -0.071176,0.31074 0.57490642,0.57490642 0 0 1 0.4766939,0.22551 0.19823224,0.19823224 0 0 0 0.097774,0.0684 2.1803914,2.1803914 0 0 0 1.5912586,-0.10648 0.23454757,0.23454757 0 0 0 0.036525,-0.40224 1.7889029,1.7889029 0 0 1 -0.2530505,-0.22158 0.29734837,0.29734837 0 0 1 -0.073986,-0.13655 2.9021183,2.9021183 0 0 1 0.051509,-1.508 0.0498335,0.0498335 0 0 1 0.095339,0.029 2.8030023,2.8030023 0 0 0 -0.086161,0.37021 0.7307223,0.7307223 0 0 0 0.1457241,-0.2361 0.09911612,0.09911612 0 0 1 0.1858076,0 0.97370391,0.97370391 0 0 0 0.00937,0.0103 2.2352557,2.2352557 0 0 0 0.2957563,-0.69884 0.12389517,0.12389517 0 0 1 0.1195013,-0.0953 5.1909929,5.1909929 0 0 0 0.096837,-0.30447 0.44602258,0.44602258 0 0 0 0.015921,-0.15387 3.9274419,3.9274419 0 0 1 0.6809512,-2.51374 1.7502551,1.7502551 0 0 1 -0.088034,-1.32023 0.45737011,0.45737011 0 0 1 -0.2269213,0.0365 0.09911612,0.09911612 0 0 1 -0.086161,-0.1268 1.9052427,1.9052427 0 0 1 0.6669032,-0.97334 0.04956416,0.04956416 0 0 1 0.059938,0.0787 1.8061266,1.8061266 0 0 0 -0.6320643,0.92239 0.35825399,0.35825399 0 0 0 0.2850798,-0.10068 0.04955809,0.04955809 0 0 1 0.079605,0.0553 1.6511389,1.6511389 0 0 0 0.1171599,1.5419 2.0905192,2.0905192 0 0 0 0.1035802,-0.17232 0.09911612,0.09911612 0 0 1 0.1833727,0.0244 0.71192774,0.71192774 0 0 0 0.230855,0.37648 1.1920927,1.1920927 0 0 1 0.01779,-0.23666 0.09911612,0.09911612 0 0 1 0.182904,-0.0328 1.2809169,1.2809169 0 0 0 0.273467,0.32722 0.55049746,0.55049746 0 0 1 0.06181,-0.36057 0.09911612,0.09911612 0 0 1 0.174663,9.4e-4 1.7991398,1.7991398 0 0 0 0.543562,0.61568 0.80359505,0.80359505 0 0 1 -0.0094,-0.24257 0.09911612,0.09911612 0 0 1 0.185808,-0.0346 0.57504759,0.57504759 0 0 0 0.339773,0.28209 1.7581454,1.7581454 0 0 1 -0.0206,-1.64062 0.49607349,0.49607349 0 0 0 -0.04308,-0.52174 1.3614728,1.3614728 0 0 1 -1.835787,0.13552 0.04955809,0.04955809 0 1 1 0.06087,-0.0777 1.2623566,1.2623566 0 0 0 1.759647,-0.19068 1.27514,1.27514 0 0 0 0.05057,-1.49836 0.29734837,0.29734837 0 0 1 -0.05057,-0.18384 0.54296548,0.54296548 0 0 0 -0.393904,-0.55367 z m -2.4827417,1.4136 a 0.13619972,0.13619972 0 0 1 0.1330809,0.14282 0.13619972,0.13619972 0 1 1 -0.2719684,0 0.13619972,0.13619972 0 0 1 0.1388875,-0.14282 z" fill="#000000" stroke="none"></path><path style="" d="m 0.71060522,292.59036 a 3.1851143,3.1851143 0 0 0 0.31729648,-0.26748 1.5332882,1.5332882 0 0 0 0.073049,0.41002 1.4371838,1.4371838 0 0 1 0.036525,0.75231 3.2630422,3.2630422 0 0 0 -0.047763,1.13451 0.64290086,0.64290086 0 0 1 -0.5605134,-0.63768 v -1.03281 a 0.44602259,0.44602259 0 0 1 0.18093765,-0.35887 z" fill="#000000" stroke="none"></path><path style="" d="m 8.2029414,293.33855 a 0.82983842,0.82983842 0 0 1 -0.2590443,0.35682 2.8030023,2.8030023 0 0 0 0.00937,0.66278 0.69578959,0.69578959 0 0 0 0.9913173,0.20398 0.27256938,0.27256938 0 0 0 0.095058,-0.32788 1.2128984,1.2128984 0 0 1 -0.02154,-0.87547 0.59852112,0.59852112 0 0 0 -0.2891069,-0.73405 0.02477905,0.02477905 0 0 0 -0.035588,0.0159 2.3343718,2.3343718 0 0 1 -0.3087741,0.72955 0.09911612,0.09911612 0 0 1 -0.1802821,-0.0318 z" fill="#000000" stroke="none"></path><path style="" d="m 7.3335603,286.26362 a 1.8893909,1.8893909 0 0 1 0.8110352,0.71645 2.1192258,2.1192258 0 0 0 -0.1252141,0.0899 0.19823224,0.19823224 0 0 1 -0.2393771,0 2.7190172,2.7190172 0 0 0 -0.064621,-0.0459 1.6988735,1.6988735 0 0 0 -0.382198,-0.76234 z" fill="#000000" stroke="none"></path></g></svg>