<svg height='100px' width='100px'  fill="#000000" xmlns="http://www.w3.org/2000/svg" xmlns:xlink="http://www.w3.org/1999/xlink" version="1.1" x="0px" y="0px" viewBox="0 0 100 100" style="enable-background:new 0 0 100 100;" xml:space="preserve"><g><path d="M55.7400932,31.8525391c1.9765625,0.9980469,3.03125,2.0522461,4.0283203,4.0292969   c0.3447266,0.6826172,1.0351563,1.1069336,1.8017578,1.1069336s1.4570313-0.4243164,1.8017578-1.1074219   c0.9970741-1.9755859,2.0507851-3.0302734,4.0293007-4.0288086c0.6826172-0.3442383,1.1064453-1.034668,1.1064453-1.8012695   S68.0828705,28.5942383,67.4012299,28.25c-1.9785156-0.9985352-3.0322266-2.0532227-4.0293007-4.0292969   c-0.3447266-0.6826172-1.0351563-1.1069336-1.8017578-1.1069336s-1.4570313,0.4243164-1.8017578,1.1074219   c-0.9970703,1.9765625-2.0517578,3.0307617-4.0283203,4.0288086c-0.6826172,0.3442383-1.1074219,1.034668-1.1074219,1.8012695   S55.057476,31.5083008,55.7400932,31.8525391z M61.5867729,25.121582c1.1845703,2.3491211,2.5615273,3.7265625,4.9209023,4.940918   c0,0-0.0019531,0.0019531-0.0078125,0.0048828c0,0,0,0-0.0009766,0c-2.3505859,1.1870117-3.7275429,2.5644531-4.9453163,4.9135742   c-1.1845703-2.3496094-2.5625-3.7275391-4.9130859-4.9458008C58.9910698,28.8491211,60.3689995,27.4711914,61.5867729,25.121582z"></path><path d="M70.2234955,25.6005859c1.2324219,0.6225586,1.8583984,1.2485352,2.4804688,2.4804688   c0.2841797,0.5639648,0.8535156,0.9140625,1.4873047,0.9140625c0.6328125,0,1.2021484-0.3500977,1.4863281-0.9135742   c0.6220703-1.2324219,1.2480469-1.8583984,2.4804688-2.480957c0.0009766,0,0.0009766,0,0.0009766,0   c0.5625-0.284668,0.9130859-0.8540039,0.9130859-1.4863281c0-0.6328125-0.3505859-1.2021484-0.9140625-1.4868164   c-1.2324219-0.6225586-1.8583984-1.2485352-2.4804688-2.480957c-0.2841797-0.5634766-0.8535156-0.9135742-1.4863281-0.9135742   c-0.6337891,0-1.203125,0.3500977-1.4873047,0.9135742c-0.6220703,1.2324219-1.2480469,1.8583984-2.4814453,2.480957   c-0.5625,0.284668-0.9130859,0.8540039-0.9130859,1.4868164C69.309433,24.746582,69.6600189,25.315918,70.2234955,25.6005859z    M74.1902924,21.5981445c0.6474609,1.1083984,1.4082031,1.8686523,2.515625,2.5161133   c-1.1074219,0.6469727-1.8681641,1.4072266-2.5146484,2.515625c-0.6474609-1.1083984-1.4082031-1.8686523-2.515625-2.5161133   C72.7830658,23.4667969,73.543808,22.706543,74.1902924,21.5981445z"></path><path d="M85.9217377,57.2104492c-0.2480469-4.2871094-2.5292969-7.6362305-6.2568359-9.1879883   c-0.6289063-0.2617188-1.2790527-0.4572754-1.9384766-0.6020508c1.8740234-1.3952637,3.0957031-3.6203613,3.0957031-6.1313477   c0-1.1376953-0.9257813-2.0634766-2.0634766-2.0634766h-6.2490234c-3.1120605,0-5.7910156,1.8713379-6.9838867,4.5455322   c-0.4204102-0.725708-0.9370117-1.3807373-1.576664-1.8907471c-0.4316406-0.3452148-1.0595703-0.2729492-1.4052734,0.1582031   c-0.34375,0.4316406-0.2734375,1.0610352,0.1591797,1.4052734c1.6955605,1.3525391,2.3461952,4.5142822,2.5468788,6.5894775   c-0.0380859-0.0288086-0.0786133-0.0523682-0.1152344-0.0845947c-3.2099648-2.8383789-8.088871-3.6137695-12.1445351-1.9267578   c-3.7275391,1.5517578-6.0087891,4.9008789-6.2578125,9.1904297c-0.0175781,0.3144531-0.0273438,0.6274414-0.0273438,0.9389648   c0,1.4941406,0.2038574,2.9382324,0.5498047,4.3267822c-0.0922852-0.0091553-0.1816406-0.0279541-0.2763672-0.0279541h-9.4785156   V37.5498047h9.4785156c1.5556641,0,2.8212891-1.265625,2.8212891-2.8212891v-2.855957   c0-1.5556641-1.265625-2.8212891-2.8212891-2.8212891h-0.6933594v-7.4799805c0-1.5556641-1.265625-2.8212891-2.8212891-2.8212891   h-5.9638672v-1.9287109C37.4998589,15.265625,36.2342339,14,34.6785698,14h-5.506834   c-1.5556641,0-2.8212891,1.265625-2.8212891,2.8212891V18.75H20.385603c-1.5556641,0-2.8212891,1.265625-2.8212891,2.8212891   v7.4799805h-0.6933594c-1.5556641,0-2.8212891,1.265625-2.8212891,2.8212891v2.855957   c0,1.5556641,1.265625,2.8212891,2.8212891,2.8212891h9.4794922v24.9003906h-9.4794922   c-1.5556641,0-2.8212891,1.265625-2.8212891,2.8212891v2.855957c0,1.5556641,1.265625,2.8212891,2.8212891,2.8212891h0.6933594   v7.4799805c0,1.5556641,1.265625,2.8212891,2.8212891,2.8212891h5.9648438v1.9287109   C26.3504467,84.734375,27.6160717,86,29.1717358,86h5.506834c1.5556641,0,2.8212891-1.265625,2.8212891-2.8212891V81.25h5.9638672   c1.5556641,0,2.8212891-1.265625,2.8212891-2.8212891v-7.4799805h0.6933594c1.5307617,0,2.7744141-1.2272949,2.8139648-2.7490234   c3.234375,4.7629395,8.7001953,7.8994141,14.8989296,7.8994141c0.5693359-0.0009766,1.1259766-0.1259766,1.6367188-0.3652344   c0.5126953,0.2392578,1.0751953,0.3642578,1.6679688,0.3652344c9.9003906,0,17.9541016-8.0512695,17.9541016-17.9477539   C85.950058,57.8393555,85.9402924,57.5253906,85.9217377,57.2104492z M28.3504467,16.8212891   C28.3504467,16.3686523,28.7186108,16,29.1717358,16h5.506834c0.453125,0,0.8212891,0.3686523,0.8212891,0.8212891V18.75   h-7.1494122V16.8212891z M19.5643139,21.5712891c0-0.4526367,0.3681641-0.8212891,0.8212891-0.8212891h6.9648438h9.1494122   h6.9638672c0.453125,0,0.8212891,0.3686523,0.8212891,0.8212891v7.4799805H19.5643139V21.5712891z M16.0496655,34.7285156   v-2.855957c0-0.4526367,0.3681641-0.8212891,0.8212891-0.8212891h1.6933594h26.7207012h1.6933594   c0.453125,0,0.8212891,0.3686523,0.8212891,0.8212891v2.855957c0,0.4526367-0.3681641,0.8212891-0.8212891,0.8212891h-30.10742   C16.4178295,35.5498047,16.0496655,35.1811523,16.0496655,34.7285156z M28.3504467,37.6123047h7.1494122v24.8378906h-7.1494122   V37.6123047z M35.4998589,83.1787109C35.4998589,83.6313477,35.1316948,84,34.6785698,84h-5.506834   c-0.453125,0-0.8212891-0.3686523-0.8212891-0.8212891V81.25h7.1494122V83.1787109z M44.2850151,78.4287109   c0,0.4526367-0.3681641,0.8212891-0.8212891,0.8212891h-6.9638672h-9.1494122H20.385603   c-0.453125,0-0.8212891-0.3686523-0.8212891-0.8212891v-7.4799805h24.7207012V78.4287109z M47.7996635,68.1274414   c0,0.4526367-0.3681641,0.8212891-0.8212891,0.8212891h-1.6933594H18.5643139h-1.6933594   c-0.453125,0-0.8212891-0.3686523-0.8212891-0.8212891v-2.855957c0-0.4526367,0.3681641-0.8212891,0.8212891-0.8212891h10.4794922   h9.1494122h10.4785156c0.453125,0,0.8212891,0.3686523,0.8212891,0.8212891V68.1274414z M72.5096283,41.2255859l6.3125,0.0634766   c0,3.1142578-2.5332031,5.6479492-5.6474609,5.6479492l-6.3125-0.0639648   C66.8621674,43.7587891,69.3953705,41.2255859,72.5096283,41.2255859z M68.8712006,48.9370117   c-0.4755859,0.3015137-0.9294434,0.6374512-1.3527832,1.0117188c-0.0800781,0.071167-0.1652832,0.1323242-0.2529297,0.1870117   c-0.0285645-0.3496094-0.0703125-0.7548828-0.1318359-1.1987305H68.8712006z M67.9676361,74.0991211   c-0.3828125-0.0004883-0.7529297-0.1171875-1.0722656-0.3378906c-0.171875-0.1176758-0.3701172-0.1767578-0.5683594-0.1767578   c-0.1992188,0-0.3974609,0.059082-0.5683594,0.1772461c-0.3183594,0.2202148-0.6884766,0.3369141-1.0996094,0.3374023   c-8.7968788,0-15.9541054-7.1542969-15.9541054-15.9477539c0-0.2744141,0.0078125-0.550293,0.0234375-0.824707   c0.2783203-4.7832031,3.2714844-6.7260742,5.0302734-7.4580078c3.3085938-1.3774414,7.4414063-0.7285156,10.0517578,1.578125   c0.7060585,0.6242676,1.5881386,0.9376221,2.4724159,0.9481201c0.0153809,0.0007324,0.0285645,0.0089111,0.0441895,0.0089111   h0.0009766c0.0151367,0,0.0275879-0.0079346,0.0424805-0.0085449c0.885498-0.0100098,1.7680664-0.3238525,2.4731445-0.9484863   c2.6083984-2.3056641,6.7421875-2.956543,10.0527344-1.578125c1.7597656,0.7324219,4.7519531,2.6748047,5.0292969,7.4580078   c0,0.0004883,0,0.0009766,0,0.0014648c0.0166016,0.2753906,0.0244141,0.5498047,0.0244141,0.8232422   C83.950058,66.9448242,76.7928314,74.0991211,67.9676361,74.0991211z"></path><path d="M79.8787689,54.2744141c-0.3242188-0.4472656-0.9492188-0.5458984-1.3964844-0.2211914   s-0.5458984,0.9501953-0.2207031,1.3969727c0.3935547,0.5424805,0.6201172,1.2709961,0.6728516,2.1655273   c0.0107422,0.1835938,0.015625,0.3603516,0.015625,0.5356445c0,1.9824219-0.5380859,3.9248047-1.5556641,5.6176758   c-0.2841797,0.4731445-0.1308594,1.0878906,0.3417969,1.3720703c0.1621094,0.097168,0.3388672,0.1430664,0.5146484,0.1430664   c0.3398438,0,0.6708984-0.1728516,0.8583984-0.4848633c1.2041016-2.003418,1.8408203-4.3022461,1.8408203-6.6479492   c0-0.2133789-0.0068359-0.4272461-0.0195313-0.6513672C80.8553314,56.2163086,80.5018158,55.1313477,79.8787689,54.2744141z"></path><path d="M74.7166595,66.7910156c-0.1494141,0.1157227-0.3007813,0.2280273-0.4560547,0.3359375   c-0.453125,0.3149414-0.5654297,0.9384766-0.25,1.3916016c0.1943359,0.2797852,0.5058594,0.4291992,0.8222656,0.4291992   c0.1972656,0,0.3955078-0.0581055,0.5703125-0.1791992c0.1845703-0.128418,0.3652344-0.2612305,0.5419922-0.3994141   c0.4355469-0.3393555,0.5136719-0.9672852,0.1748047-1.4033203C75.7801361,66.5292969,75.1522064,66.4516602,74.7166595,66.7910156   z"></path></g></svg>