<svg height='100px' width='100px'  fill="#000000" xmlns:x="http://ns.adobe.com/Extensibility/1.0/" xmlns:i="http://ns.adobe.com/AdobeIllustrator/10.0/" xmlns:graph="http://ns.adobe.com/Graphs/1.0/" xmlns="http://www.w3.org/2000/svg" xmlns:xlink="http://www.w3.org/1999/xlink" version="1.1" x="0px" y="0px" viewBox="0 0 100 100" style="enable-background:new 0 0 100 100;" xml:space="preserve"><g><g><path d="M12.7,52.4c0.9-3.5,3.7-6.3,7.2-7.2c0.5-0.1,0.8-0.6,0.8-1.1c0-0.5-0.3-1-0.8-1.1c-3.6-0.9-6.3-3.6-7.2-7.2     c-0.1-0.5-0.6-0.8-1.1-0.8s-1,0.3-1.1,0.8c-0.9,3.6-3.6,6.3-7.2,7.2c-0.5,0.1-0.8,0.6-0.8,1.1c0,0.5,0.3,1,0.8,1.1     c3.5,0.9,6.3,3.7,7.2,7.2c0.1,0.5,0.6,0.8,1.1,0.8S12.6,52.9,12.7,52.4z"></path><path d="M8,25.9c2.7,0.7,4.8,2.8,5.5,5.5c0.1,0.5,0.5,0.8,1,0.8c0,0,0,0,0,0c0.5,0,0.9-0.3,1-0.8c0.7-2.7,2.8-4.8,5.5-5.5     c0.5-0.1,0.8-0.5,0.8-1c0-0.5-0.3-0.9-0.8-1c-2.7-0.7-4.8-2.8-5.5-5.5c-0.1-0.5-0.5-0.8-1-0.8c0,0,0,0,0,0c-0.5,0-0.9,0.3-1,0.8     c-0.6,2.7-2.8,4.8-5.5,5.5c-0.5,0.1-0.8,0.5-0.8,1C7.2,25.4,7.6,25.8,8,25.9z"></path><path d="M18.4,34.6c0,0.5,0.3,0.9,0.8,1c2.3,0.6,4.1,2.4,4.6,4.6c0.1,0.5,0.5,0.8,1,0.8c0.5,0,0.9-0.3,1-0.8     c0.5-2.3,2.4-4.1,4.6-4.6c0.4-0.1,0.8-0.5,0.8-1c0-0.5-0.3-0.9-0.8-1c-2.3-0.5-4.1-2.4-4.6-4.7c-0.1-0.5-0.5-0.8-1-0.8     c-0.4,0-0.9,0.3-1,0.8c-0.6,2.3-2.3,4.1-4.6,4.7C18.7,33.8,18.4,34.2,18.4,34.6z"></path><path d="M38.3,33.8h37.1c3.2,0,5.7,2.6,5.7,5.7v3.1H36.6c-8.2,0-14.9,6.7-14.9,14.9v0.8h66.4V39.5c0-7-5.7-12.6-12.6-12.6H38.3     c-1.9,0-3.4,1.5-3.4,3.4C34.9,32.2,36.4,33.8,38.3,33.8z"></path><path d="M97.2,78.9l-8.9-15.5H21.4l-8.9,15.5c-0.4,0.7-0.4,1.6,0,2.3c0.4,0.7,1.2,1.1,2,1.1h6.8c0.6,0,1.2-0.4,1.5-0.9l2.6-5.6     c0.2-0.5,1-0.5,1.2,0l2.6,5.6c0.3,0.6,0.8,0.9,1.5,0.9h5c0.6,0,1.2-0.4,1.5-0.9l2.6-5.6c0.2-0.5,1-0.5,1.2,0l2.6,5.6     c0.3,0.6,0.8,0.9,1.5,0.9h5c0.6,0,1.2-0.4,1.5-0.9l2.6-5.6c0.2-0.5,1-0.5,1.2,0l2.6,5.6c0.3,0.6,0.8,0.9,1.5,0.9h5     c0.6,0,1.2-0.4,1.5-0.9l2.6-5.6c0.2-0.5,1-0.5,1.2,0l2.6,5.6c0.3,0.6,0.8,0.9,1.5,0.9h5c0.6,0,1.2-0.4,1.5-0.9l2.6-5.6     c0.2-0.5,1-0.5,1.2,0l2.6,5.6c0.3,0.6,0.8,0.9,1.5,0.9h6.8c0.8,0,1.6-0.4,2-1.1C97.6,80.5,97.6,79.6,97.2,78.9z"></path></g></g></svg>