<svg height='100px' width='100px'  fill="#000000" xmlns="http://www.w3.org/2000/svg" xmlns:xlink="http://www.w3.org/1999/xlink" version="1.1" x="0px" y="0px" viewBox="0 0 512 512" enable-background="new 0 0 512 512" xml:space="preserve"><g><g><g><path d="M55.12,376c-14.336,0-26-11.663-26-26s11.664-26,26-26s26,11.663,26,26S69.457,376,55.12,376z M55.12,336     c-7.72,0-14,6.28-14,14s6.28,14,14,14s14-6.28,14-14S62.84,336,55.12,336z"></path></g><g><path d="M404.734,330.11c-20.637,0-38.323-14.979-42.056-35.616c-3.919-23.534,11.796-45.76,35.017-49.626     c3.528-0.578,7.063-0.869,10.521-0.869c20.998,0,36.895,10.541,49.668,19.011c5.218,3.46,10.146,6.728,14.534,8.66     c2.517,1.108,3.958,3.786,3.497,6.497s-2.705,4.762-5.447,4.976c-7.112,0.557-13.837,9.019-20.957,17.977     c-9.507,11.962-20.281,25.52-37.312,28.326C409.793,329.881,407.25,330.11,404.734,330.11z M408.216,255.999     c-2.812,0-5.693,0.238-8.566,0.708c-16.394,2.73-27.918,19.096-25.147,35.734c2.684,14.839,15.404,25.669,30.232,25.669     c1.802,0,3.626-0.165,5.422-0.489c12.557-2.07,21.404-13.202,29.96-23.968c5.262-6.62,10.349-13.021,16.227-17.301     c-1.673-1.075-3.367-2.199-5.091-3.342C439.227,265.037,425.597,255.999,408.216,255.999z"></path></g><g><path d="M355.116,321.15c-1.301,0-2.611-0.421-3.712-1.289c-2.602-2.052-3.047-5.825-0.995-8.427     c15.143-19.199,37.263-28.322,53.152-32.594c3.2-0.861,6.491,1.036,7.352,4.236s-1.036,6.491-4.236,7.352     c-14.137,3.801-33.739,11.82-46.846,28.438C358.647,320.367,356.891,321.15,355.116,321.15z"></path></g><g><path d="M405.12,466H95.119c-2.591,0-4.89-1.663-5.699-4.125c-0.81-2.461,0.052-5.164,2.137-6.703     c56.535-41.719,47.291-142.37,47.191-143.382c-0.167-1.686,0.387-3.363,1.525-4.618c1.137-1.256,2.752-1.972,4.446-1.972h210.8     c1.704,0,3.328,0.725,4.466,1.993s1.683,2.961,1.499,4.654c-0.114,1.064-10.832,107.082,46.813,143.063     c2.271,1.418,3.328,4.168,2.591,6.742S407.798,466,405.12,466z M111.026,454h276.769c-18.801-18.177-31.307-46.112-36.509-81.953     c-3.433-23.648-2.879-44.587-2.257-54.847H151.135c0.478,9.885,0.742,29.804-2.812,52.733     C142.781,405.692,129.995,434.392,111.026,454z"></path></g><g><path d="M194.32,391.6c-3.313,0-6-2.687-6-6V311.2c0-3.313,2.687-6,6-6s6,2.687,6,6V385.6     C200.32,388.913,197.633,391.6,194.32,391.6z"></path></g><g><path d="M243.92,404c-3.313,0-6-2.687-6-6v-24.8c0-3.313,2.687-6,6-6s6,2.687,6,6V398C249.92,401.313,247.233,404,243.92,404z"></path></g><g><path d="M305.92,466c-3.313,0-6-2.687-6-6v-99.2c0-3.313,2.687-6,6-6s6,2.687,6,6V460C311.92,463.313,309.233,466,305.92,466z"></path></g><g><path d="M222.62,276h-185c-2.591,0-4.89-1.663-5.699-4.125c-0.81-2.461,0.052-5.164,2.137-6.703     c32.563-24.029,27.249-82.795,27.191-83.386c-0.164-1.684,0.391-3.362,1.528-4.615c1.137-1.253,2.75-1.97,4.443-1.97h125.8     c1.704,0,3.328,0.725,4.466,1.993c1.138,1.268,1.683,2.96,1.499,4.655c-0.066,0.618-6.285,62.404,26.812,83.062     c2.271,1.418,3.329,4.168,2.591,6.742S225.297,276,222.62,276z M52.553,264h154.09c-20.141-23.602-20.741-61.492-20.055-76.8     H73.578C74.059,202.214,72.929,239.247,52.553,264z"></path></g><g><path d="M96.82,231.6c-3.313,0-6-2.687-6-6v-44.4c0-3.313,2.687-6,6-6s6,2.687,6,6v44.4     C102.82,228.914,100.133,231.6,96.82,231.6z"></path></g><g><path d="M126.42,239c-3.313,0-6-2.687-6-6v-14.8c0-3.313,2.687-6,6-6s6,2.687,6,6V233C132.42,236.313,129.733,239,126.42,239z"></path></g><g><path d="M163.42,276c-3.313,0-6-2.687-6-6v-59.2c0-3.313,2.687-6,6-6s6,2.687,6,6V270C169.42,273.313,166.733,276,163.42,276z"></path></g><g><path d="M455.12,126H311.786c-2.591,0-4.89-1.664-5.699-4.125c-0.81-2.461,0.052-5.165,2.137-6.703     c24.682-18.214,20.569-62.933,20.525-63.382c-0.167-1.686,0.387-3.363,1.524-4.619s2.752-1.971,4.446-1.971h97.466     c1.704,0,3.328,0.725,4.466,1.993c1.138,1.268,1.684,2.96,1.499,4.655c-0.05,0.468-4.77,47.511,20.146,63.062     c2.271,1.417,3.328,4.168,2.591,6.742S457.798,126,455.12,126z M326.119,114H439.93c-13.602-17.992-14.534-44.502-14.13-56.8     h-84.771C341.268,69.285,339.964,95.304,326.119,114z"></path></g><g><path d="M400.12,126c-3.313,0-6-2.687-6-6V90c0-3.313,2.687-6,6-6s6,2.687,6,6v30C406.12,123.313,403.434,126,400.12,126z"></path></g><g><path d="M175.12,126h-90c-3.313,0-6-2.687-6-6s2.687-6,6-6h90c3.313,0,6,2.687,6,6S178.434,126,175.12,126z"></path></g><g><path d="M235.12,126h-30c-3.313,0-6-2.687-6-6s2.687-6,6-6h30c3.313,0,6,2.687,6,6S238.434,126,235.12,126z"></path></g><g><path d="M265.434,126h-0.625c-3.313,0-6-2.687-6-6s2.687-6,6-6h0.625c3.313,0,6,2.687,6,6S268.747,126,265.434,126z"></path></g><g><path d="M355.12,216h-90c-3.313,0-6-2.687-6-6s2.687-6,6-6h90c3.313,0,6,2.687,6,6S358.434,216,355.12,216z"></path></g><g><path d="M415.12,216h-30c-3.313,0-6-2.687-6-6s2.687-6,6-6h30c3.313,0,6,2.687,6,6S418.434,216,415.12,216z"></path></g><g><path d="M445.433,216h-0.625c-3.313,0-6-2.687-6-6s2.687-6,6-6h0.625c3.313,0,6,2.687,6,6S448.746,216,445.433,216z"></path></g></g></g></svg>