<svg height='100px' width='100px'  fill="#000000" xmlns="http://www.w3.org/2000/svg" xmlns:xlink="http://www.w3.org/1999/xlink" version="1.1" x="0px" y="0px" viewBox="0 0 200 200" enable-background="new 0 0 200 200" xml:space="preserve"><g><g><path fill="#000000" d="M91.66,191.596c-23.838-2.052-45.933-12.902-62.219-30.552C13.052,143.281,4.026,120.177,4.026,95.989    C4.026,43.062,47.08,0,100,0s95.974,43.062,95.974,95.989h-7.229c0-48.944-39.811-88.761-88.745-88.761    c-48.934,0-88.745,39.817-88.745,88.761c0,45.663,35.59,84.496,81.023,88.403L91.66,191.596z"></path><path fill="#000000" d="M108.337,191.596l-0.611-7.203c12.884-1.094,25.566-5.073,36.674-11.508l3.623,6.256    C135.999,186.104,122.275,190.411,108.337,191.596z"></path><path fill="#000000" d="M100.003,145.814c-27.452,0-49.787-22.342-49.787-49.803c0-27.463,22.335-49.807,49.787-49.807    c27.473,0,49.822,22.343,49.822,49.807C149.825,123.473,127.476,145.814,100.003,145.814z M100.003,53.433    c-23.468,0-42.559,19.099-42.559,42.578c0,23.475,19.091,42.575,42.559,42.575c23.487,0,42.594-19.1,42.594-42.575    C142.597,72.532,123.49,53.433,100.003,53.433z"></path><path fill="#000000" d="M169.295,145.814c-7.117,0-13.812-2.775-18.851-7.813c-5.052-4.97-7.848-11.685-7.848-18.885V96.011h7.229    v23.105c0,5.247,2.028,10.132,5.71,13.754c3.693,3.692,8.572,5.716,13.76,5.716c5.203,0,10.109-2.026,13.817-5.706    c3.627-3.645,5.633-8.537,5.633-13.764V96.011h7.229v23.105c0,7.15-2.753,13.854-7.754,18.879    C183.133,143.042,176.418,145.814,169.295,145.814z"></path></g><path fill="#000000" d="M100.042,126.125h-0.04c-2.624,0-5.231-0.339-7.747-1.007l1.857-6.986c1.911,0.508,3.892,0.765,5.89,0.765   L100.042,126.125z M107.834,125.096l-1.876-6.979c1.926-0.519,3.78-1.29,5.51-2.292l3.624,6.254   C112.813,123.398,110.372,124.414,107.834,125.096z M84.988,122.115c-2.273-1.311-4.372-2.919-6.235-4.777l5.104-5.118   c1.418,1.413,3.013,2.637,4.742,3.634L84.988,122.115z M121.317,117.291l-5.113-5.109c1.416-1.418,2.641-3.013,3.642-4.74   l6.256,3.623C124.785,113.335,123.176,115.431,121.317,117.291z M73.959,111.116c-1.324-2.277-2.34-4.718-3.024-7.256l6.98-1.879   c0.518,1.925,1.29,3.777,2.293,5.506L73.959,111.116z M129.116,103.801l-6.983-1.87c0.515-1.92,0.775-3.912,0.775-5.919   l7.228-0.107v0.107C130.136,98.649,129.792,101.271,129.116,103.801z M69.902,96.067v-0.056c0-2.617,0.337-5.217,1.004-7.727   l6.986,1.853c-0.505,1.907-0.762,3.884-0.762,5.875L69.902,96.067z M122.106,90.003c-0.524-1.923-1.301-3.774-2.311-5.5l6.24-3.649   c1.33,2.275,2.354,4.714,3.044,7.25L122.106,90.003z M80.165,84.618L73.9,81.014c1.308-2.273,2.913-4.374,4.769-6.242l5.126,5.098   C82.381,81.292,81.16,82.888,80.165,84.618z M116.133,79.777c-1.419-1.41-3.018-2.63-4.749-3.625l3.601-6.268   c2.278,1.31,4.379,2.913,6.243,4.766L116.133,79.777z M88.521,76.215l-3.639-6.245c2.274-1.326,4.715-2.347,7.253-3.035   l1.892,6.977C92.099,74.433,90.248,75.208,88.521,76.215z M105.866,73.881c-1.904-0.504-3.877-0.759-5.863-0.759l-0.07-7.228   l0.191,0.003c0.006,0,0.014,0,0.022,0c2.483,0,5.068,0.336,7.569,0.996L105.866,73.881z"></path><g><path fill="#000000" d="M111.646,200H88.358v-23.291h23.288V200z M95.586,192.771h8.831v-8.834h-8.831V192.771z"></path><path fill="#000000" d="M195.974,200h-23.291v-23.291h23.291V200z M179.911,192.771h8.834v-8.834h-8.834V192.771z"></path><path fill="#000000" d="M27.317,200H4.026v-23.291h23.291V200z M11.255,192.771h8.834v-8.834h-8.834V192.771z"></path><rect x="108.031" y="184.74" fill="#000000" width="68.266" height="7.229"></rect><rect x="23.703" y="184.74" fill="#000000" width="68.269" height="7.229"></rect></g></g></svg>