<svg height='100px' width='100px'  fill="#000000" xmlns="http://www.w3.org/2000/svg" xmlns:xlink="http://www.w3.org/1999/xlink" version="1.1" x="0px" y="0px" viewBox="0 0 64 64" style="enable-background:new 0 0 64 64;" xml:space="preserve"><path d="M18.293,52.707c0.09,0.09,0.196,0.162,0.313,0.212l7,3c0.02,0.009,0.044,0.006,0.064,0.013  c0.084,0.031,0.171,0.046,0.261,0.054C25.955,55.988,25.977,56,26,56h0.019H30c0.174,0,0.345-0.045,0.496-0.132l6.43-3.674  l2.346,1.759c0,0,0.001,0,0.001,0.001L40.4,54.8c0.173,0.13,0.383,0.2,0.6,0.2h4.586l2.707,2.707l1.414-1.414l-3-3  C46.52,53.105,46.266,53,46,53h-4.667l-0.084-0.063C42.395,51.164,43,49.132,43,47c0-6.065-4.935-11-11-11s-11,4.935-11,11  c0,1.928,0.507,3.761,1.42,5.378l-2.849-1.221l-3.864-3.864C15.52,47.105,15.266,47,15,47H2v2h12.586L18.293,52.707z M32,52  c-2.757,0-5-2.243-5-5s2.243-5,5-5s5,2.243,5,5c0,1.581-0.727,3.032-1.995,3.988l-0.409,0.234l-0.73,0.417  C33.271,51.878,32.644,52,32,52z M32,38c4.963,0,9,4.038,9,9c0,1.695-0.465,3.313-1.353,4.735l-1.619-1.214  C38.648,49.461,39,48.25,39,47c0-3.86-3.141-7-7-7s-7,3.14-7,7c0,3.227,2.198,5.943,5.173,6.75L29.734,54h-3.373  C24.221,52.279,23,49.746,23,47C23,42.038,27.037,38,32,38z"></path><path d="M61,5H34.278c0.201-0.539,0.413-1.074,0.641-1.606c0.133-0.309,0.101-0.664-0.084-0.944C34.649,2.169,34.336,2,34,2h-6  c-0.446,0-0.839,0.296-0.962,0.725C26.823,3.477,26.656,4.237,26.51,5H23c-0.553,0-1,0.448-1,1v4c0,0.552,0.447,1,1,1h3.071  c0.089,2.111,0.42,4.215,1.023,6.267l2.946,10.016C30.167,27.712,30.562,28,30.999,28c0.048,0,0.096-0.003,0.144-0.01  C31.635,27.919,32,27.497,32,27v-9.384c0-2.238,0.214-4.446,0.618-6.616H61c0.553,0,1-0.448,1-1V6C62,5.448,61.553,5,61,5z M24,7  h2.205c-0.006,0.051-0.006,0.099-0.011,0.15c-0.056,0.529-0.098,1.058-0.122,1.589C26.068,8.825,26.055,8.914,26.052,9H24V7z   M30,17.616v2.441l-0.987-3.355c-0.675-2.296-0.988-4.661-0.966-7.025c0.005-0.471,0.019-0.948,0.055-1.435  c0.006-0.093,0.015-0.185,0.022-0.277c0.051-0.595,0.119-1.198,0.215-1.809c0-0.001,0-0.002,0-0.003  C28.452,5.43,28.587,4.712,28.767,4h3.749c-0.719,1.876-1.276,3.795-1.688,5.743c-0.004,0.017-0.009,0.035-0.012,0.052  c0,0.002,0.001,0.005,0,0.007C30.28,12.359,30,14.968,30,17.616z M60,9H33.049c0.164-0.662,0.351-1.33,0.558-2H60V9z"></path><path d="M57.98,43.804C57.887,43.336,57.477,43,57,43h-4v-5c0-0.379-0.214-0.725-0.553-0.895l-5.63-2.814l-0.869-2.607  C45.813,31.275,45.431,31,45,31h-4.891l-8.893-1.976c-0.402-0.09-0.82,0.077-1.049,0.421L28.465,32H24  c-0.379,0-0.725,0.214-0.895,0.553l-1.658,3.317l-4.251-0.85c-0.328-0.067-0.667,0.037-0.903,0.273L13.586,38h-2.309l-4.763-2.857  C6.359,35.049,6.182,35,6,35H2v2h3.723l4.763,2.857C10.641,39.951,10.818,40,11,40h2.697L16,41.535V45h2v-4  c0-0.334-0.167-0.646-0.445-0.832l-1.985-1.323l1.759-1.759l4.475,0.895c0.446,0.09,0.89-0.13,1.091-0.533L24.618,34H29  c0.334,0,0.646-0.167,0.832-0.445l1.62-2.43l8.331,1.851C39.854,32.992,39.927,33,40,33h4.279l0.772,2.316  c0.083,0.251,0.264,0.459,0.501,0.578L51,38.618V43h-5v2h10.181l0.839,4.196C57.113,49.664,57.523,50,58,50h4v-2h-3.181  L57.98,43.804z"></path><path d="M13,32c6.065,0,11-4.935,11-11s-4.935-11-11-11S2,14.935,2,21S6.935,32,13,32z M13,12c4.963,0,9,4.038,9,9s-4.037,9-9,9  s-9-4.038-9-9S8.037,12,13,12z"></path><path d="M13,28c3.859,0,7-3.14,7-7s-3.141-7-7-7s-7,3.14-7,7S9.141,28,13,28z M13,16c2.757,0,5,2.243,5,5s-2.243,5-5,5s-5-2.243-5-5  S10.243,16,13,16z"></path><rect x="2" y="60" width="2" height="2"></rect><rect x="6" y="58" width="2" height="2"></rect><rect x="13" y="52" width="2" height="2"></rect><rect x="51" y="60" width="2" height="2"></rect><rect x="55" y="57" width="2" height="2"></rect><rect x="60" y="54" width="2" height="2"></rect><path d="M55.758,32.97C55.838,32.99,55.919,33,56,33c0.195,0,0.389-0.058,0.555-0.168l3-2c0.249-0.166,0.411-0.436,0.44-0.733  c0.029-0.298-0.076-0.594-0.288-0.806l-4-4c-0.268-0.269-0.664-0.362-1.023-0.242l-3,1C51.275,26.188,51,26.569,51,27v4  c0,0.459,0.313,0.859,0.758,0.97L55.758,32.97z M53,27.721l1.729-0.577l2.701,2.701l-1.617,1.078L53,30.219V27.721z"></path><rect x="34" y="18" width="2" height="5"></rect><rect x="40" y="27" width="5" height="2"></rect><rect x="38.172" y="21" transform="matrix(0.7071 -0.7071 0.7071 0.7071 -3.5477 35.435)" width="5.657" height="2"></rect><rect x="2" y="7" width="2" height="2"></rect><rect x="2" y="2" width="2" height="2"></rect><rect x="7" y="4" width="2" height="2"></rect></svg>