<svg height='100px' width='100px'  fill="#000000" xmlns="http://www.w3.org/2000/svg" xmlns:xlink="http://www.w3.org/1999/xlink" version="1.1" x="0px" y="0px" viewBox="0 0 64 64" style="enable-background:new 0 0 64 64;" xml:space="preserve"><path d="M56.24,17.817C56.24,17.817,56.24,17.817,56.24,17.817c-0.26-0.22-0.532-0.42-0.813-0.607l0.567-5.099  c0.045-0.408-0.164-0.802-0.526-0.994c-0.362-0.191-0.807-0.143-1.118,0.125l-5.33,4.569c-2.354,0.374-4.489,1.67-5.888,3.609  l-2.935,4.062l-3.455-1.727l0.307-0.613c0.372-0.743,0.399-1.568,0.151-2.302C39.376,18.297,41,16.341,41,14c0-2.757-2.243-5-5-5  s-5,2.243-5,5c0,0.803,0.208,1.552,0.546,2.226c-0.387,0.039-0.773,0.103-1.156,0.208c-1.804,0.492-3.308,1.657-4.235,3.28  l-3.081,5.391c-0.89,1.558-0.82,3.413-0.005,4.896H20c-1.973,0-3.794,0.646-5.279,1.726c-1.613-0.988-3.55-1.329-5.424-0.934  c-2.126,0.449-3.942,1.801-4.984,3.71l-2.191,4.019c-0.212,0.389-0.143,0.872,0.171,1.186l3,3C5.482,42.896,5.737,43,6,43  c0.056,0,0.111-0.004,0.167-0.014c0.318-0.054,0.592-0.259,0.733-0.55l2.121-4.383c0.605-0.947,1.489-1.665,2.514-2.082  C11.195,36.919,11,37.936,11,39v3.741l-4.874,8.773c-0.119,0.214-0.155,0.464-0.103,0.703l2,9C8.125,61.674,8.531,62,9,62h4  c0.304,0,0.59-0.138,0.78-0.375c0.189-0.236,0.262-0.546,0.196-0.842l-1.873-8.426l6.456-5.738l-1.537,7.172  c-0.044,0.202-0.023,0.413,0.059,0.604l3,7C20.238,61.762,20.6,62,21,62h5c0.336,0,0.649-0.169,0.835-0.45  c0.185-0.28,0.217-0.635,0.084-0.944l-2.874-6.708L25.951,45h0.326c0.233,0.458,0.559,0.876,0.996,1.205  c0.604,0.453,1.341,0.694,2.088,0.694c0.204,0,0.409-0.018,0.611-0.054c0.947-0.17,1.788-0.732,2.308-1.541L32.474,45h8.098  l-3.512,9.658c-0.077,0.212-0.081,0.444-0.009,0.658l2,6C39.188,61.725,39.569,62,40,62h5c0.321,0,0.623-0.154,0.812-0.416  c0.188-0.261,0.239-0.596,0.137-0.901l-1.892-5.676l3.556-10.16L54,48.574V57c0,0.459,0.312,0.859,0.758,0.97l4,1  C58.838,58.99,58.919,59,59,59c0.221,0,0.438-0.073,0.615-0.212C59.858,58.599,60,58.308,60,58V45c0-0.361-0.195-0.694-0.51-0.872  l-9.713-5.464l1.167-3.334c0.104-0.296,0.062-0.624-0.112-0.885l-1.657-2.486l3.317-5.806l7.266,1.816  c0.408,0.103,0.84-0.064,1.074-0.416l2-3c0.282-0.423,0.202-0.99-0.187-1.318L56.24,17.817z M58,56.719l-2-0.5V48  c0-0.355-0.188-0.685-0.496-0.864l-7.218-4.211l0.82-2.343L58,45.585V56.719z M53.727,14.409l-0.204,1.83  c-0.121-0.045-0.245-0.079-0.367-0.118c-0.071-0.023-0.142-0.048-0.214-0.069c-0.29-0.085-0.583-0.161-0.88-0.216L53.727,14.409z   M38.835,26.799C38.835,26.799,38.835,26.799,38.835,26.799l-4.587-2.293c-0.001,0-0.001-0.001-0.001-0.001l-1.787-0.893  l0.883-1.323l1.61,0.806c0.001,0,0.001,0,0.002,0l5.108,2.554c0,0,0,0,0,0l0.678,0.339c0.277,0.138,0.376,0.375,0.41,0.503  s0.065,0.382-0.106,0.64c-0.221,0.331-0.655,0.445-1.009,0.268L38.835,26.799z M35.569,29.888l-2.252-1.287l0.93-1.859l2.641,1.32  L35.569,29.888z M36,11c1.654,0,3,1.346,3,3s-1.346,3-3,3c-0.23,0-0.451-0.031-0.666-0.08c-0.303-0.151-0.612-0.284-0.929-0.388  C33.564,16,33,15.067,33,14C33,12.346,34.346,11,36,11z M12.798,33.605c-2.265,0.247-4.295,1.504-5.5,3.431  c-0.02,0.031-0.037,0.062-0.053,0.095l-1.532,3.167l-1.477-1.477l1.833-3.361c0.761-1.395,2.089-2.383,3.642-2.711  c1.178-0.25,2.388-0.101,3.452,0.403c-0.024,0.028-0.046,0.058-0.07,0.086c-0.03,0.035-0.058,0.072-0.087,0.108  C12.936,33.433,12.864,33.517,12.798,33.605z M10.023,52.217L11.753,60H9.802l-1.743-7.846l4.815-8.668  C12.957,43.337,13,43.17,13,43v-4c0-1.442,0.439-2.783,1.189-3.898c0.154-0.229,0.326-0.449,0.51-0.661  c0.039-0.045,0.08-0.087,0.119-0.131c0.175-0.192,0.36-0.378,0.559-0.553C16.612,32.668,18.228,32,20,32h5.056l4.631,2.778  c0.237,0.142,0.4,0.369,0.462,0.638c0.061,0.27,0.01,0.545-0.144,0.774l-3.539,5.308c-0.002,0.003-0.003,0.006-0.005,0.009  c-0.143,0.215-0.252,0.442-0.341,0.674c-0.018,0.047-0.028,0.095-0.044,0.143c-0.068,0.203-0.117,0.408-0.146,0.616  c-0.003,0.02-0.012,0.04-0.014,0.06h-0.773h-5H20c-0.245,0-0.481,0.09-0.664,0.252l-9,8C10.064,51.494,9.945,51.863,10.023,52.217z   M22.081,54.394L24.483,60h-2.824l-2.614-6.102L20.951,45h2.954l-1.883,8.791C21.979,53.993,21.999,54.204,22.081,54.394z   M29.618,44.876c-0.407,0.074-0.814-0.023-1.146-0.271c-0.291-0.218-0.467-0.528-0.542-0.859c-0.014-0.06-0.019-0.12-0.025-0.18  c-0.013-0.137-0.019-0.274,0.006-0.411c0.005-0.026,0.016-0.051,0.022-0.077c0.04-0.163,0.098-0.323,0.196-0.47l3.539-5.308  c0.46-0.689,0.612-1.514,0.43-2.323c-0.182-0.808-0.673-1.487-1.383-1.913l-4.818-2.891c-0.011-0.008-0.023-0.015-0.034-0.022  c-1.382-0.836-1.854-2.652-1.053-4.055l3.081-5.391c0.662-1.16,1.737-1.992,3.025-2.343c0.438-0.12,0.882-0.179,1.324-0.179  c0.496,0,0.987,0.083,1.462,0.231c0.261,0.137,0.534,0.248,0.82,0.337c0.062,0.032,0.128,0.057,0.189,0.092l0.149,0.086  c0.461,0.263,0.636,0.84,0.398,1.315l-0.307,0.613l-1.506-0.753c-0.451-0.225-1-0.08-1.279,0.34l-2,3  c-0.159,0.239-0.208,0.534-0.135,0.812c0.074,0.277,0.263,0.509,0.52,0.638l1.905,0.953l-1.353,2.706  c-0.237,0.475-0.062,1.052,0.398,1.315l3.341,1.909c0.025,0.014,0.045,0.035,0.07,0.05c0.009,0.006,0.015,0.015,0.024,0.021  c0.688,0.43,1.165,1.102,1.342,1.892c0.002,0.008,0.002,0.016,0.003,0.023c0.04,0.186,0.064,0.373,0.069,0.559  c0.001,0.041-0.007,0.081-0.008,0.122c-0.002,0.154-0.009,0.308-0.035,0.459c-0.014,0.079-0.043,0.155-0.064,0.233  c-0.029,0.111-0.052,0.224-0.094,0.332c-0.072,0.185-0.163,0.364-0.273,0.535l-5.282,8.217  C30.373,44.57,30.025,44.802,29.618,44.876z M59.559,25.859l-7.316-1.829c-0.433-0.108-0.889,0.085-1.11,0.474l-4,7  c-0.188,0.329-0.174,0.736,0.036,1.051l1.724,2.585l-6.836,19.529c-0.072,0.209-0.074,0.437-0.004,0.647L43.612,60h-2.892  l-1.662-4.986l3.881-10.672c0.112-0.307,0.066-0.648-0.12-0.916C42.632,43.159,42.326,43,42,43h-8.239l3.801-5.914  c0.184-0.286,0.335-0.586,0.456-0.895c0.06-0.154,0.089-0.315,0.134-0.473c0.044-0.158,0.102-0.312,0.13-0.474  c0.036-0.205,0.038-0.414,0.048-0.622c0.005-0.119,0.026-0.236,0.023-0.356c-0.006-0.232-0.047-0.464-0.085-0.696  c-0.015-0.088-0.013-0.177-0.033-0.265c-0.002-0.011-0.007-0.021-0.009-0.032c-0.006-0.026-0.005-0.053-0.011-0.08  c-0.016-0.064-0.047-0.121-0.065-0.184c-0.056-0.194-0.123-0.382-0.2-0.566c-0.044-0.106-0.085-0.213-0.137-0.315  c-0.103-0.203-0.223-0.397-0.353-0.583c-0.082-0.118-0.169-0.231-0.261-0.342c-0.02-0.024-0.036-0.051-0.057-0.075l1.56-2.16  l0.44,0.22c0.181,0.091,0.369,0.154,0.559,0.202c0.06,0.015,0.119,0.023,0.179,0.034c0.134,0.025,0.268,0.041,0.403,0.046  c0.034,0.001,0.068,0.012,0.102,0.012c0.029,0,0.057-0.01,0.086-0.01c0.172-0.005,0.341-0.026,0.508-0.062  c0.032-0.007,0.064-0.009,0.096-0.017c0.195-0.05,0.382-0.123,0.563-0.213c0.047-0.024,0.091-0.053,0.137-0.08  c0.135-0.078,0.263-0.166,0.385-0.267c0.046-0.038,0.092-0.074,0.136-0.116c0.151-0.143,0.294-0.297,0.413-0.477  c0.333-0.499,0.493-1.088,0.465-1.677c-0.009-0.196-0.039-0.393-0.09-0.586c-0.047-0.179-0.116-0.349-0.197-0.513  c-0.025-0.05-0.056-0.096-0.083-0.144c-0.063-0.11-0.13-0.217-0.207-0.318c-0.039-0.051-0.081-0.099-0.123-0.147  c-0.08-0.09-0.165-0.174-0.256-0.254c-0.048-0.042-0.095-0.084-0.147-0.123c-0.028-0.021-0.051-0.047-0.079-0.067l2.762-3.823  c1.154-1.599,2.867-2.61,4.825-2.85c0.003,0,0.006,0,0.01-0.001c0.336-0.041,0.672-0.05,1.005-0.043  c0.064,0.001,0.129,0.003,0.193,0.006c1.077,0.055,2.126,0.354,3.084,0.898c0.006,0.004,0.013,0.005,0.019,0.008  c0.369,0.212,0.726,0.454,1.06,0.736v0l5.724,4.844L59.559,25.859z"></path><path d="M7,12h0.178c0.559,1.72,2.5,3,4.822,3h13c2.757,0,5-1.794,5-4s-2.243-4-5-4c-0.846,0-1.655,0.167-2.375,0.48  c-0.057-0.111-0.132-0.215-0.201-0.32c-0.043-0.066-0.078-0.136-0.125-0.2c-0.082-0.11-0.18-0.212-0.274-0.315  c-0.049-0.053-0.09-0.111-0.142-0.163c-0.096-0.095-0.207-0.18-0.313-0.267c-0.063-0.051-0.119-0.108-0.185-0.157  c-0.101-0.074-0.214-0.138-0.323-0.206c-0.083-0.052-0.16-0.109-0.247-0.157c-0.109-0.059-0.228-0.107-0.342-0.159  c-0.097-0.044-0.189-0.095-0.29-0.135c-0.122-0.048-0.253-0.082-0.38-0.121c-0.102-0.032-0.2-0.071-0.306-0.097  c-0.153-0.038-0.313-0.061-0.471-0.088c-0.087-0.015-0.17-0.037-0.259-0.048C18.517,5.016,18.261,5,18,5  c-0.053,0-0.105,0-0.157,0.002C17.287,3.278,15.326,2,13,2c-1.918,0-3.631,0.88-4.462,2.198C8.039,4.067,7.52,4,7,4  C4.243,4,2,5.794,2,8S4.243,12,7,12z M20.999,8.953c-0.002,0.03-0.004,0.06-0.004,0.086c0,0.391,0.228,0.746,0.583,0.909  c0.356,0.163,0.772,0.104,1.07-0.152c0.183-0.158,0.402-0.291,0.639-0.405c0.039-0.019,0.081-0.035,0.121-0.053  c0.239-0.104,0.494-0.191,0.771-0.248C24.446,9.037,24.718,9,25,9c1.626,0,3,0.916,3,2s-1.374,2-3,2H12c-1.626,0-3-0.916-3-2  s1.374-2,3-2c0.577,0,1.15,0.123,1.658,0.355c0.27,0.124,0.582,0.121,0.85-0.008s0.465-0.371,0.536-0.659  C15.285,7.726,16.556,7,18,7C19.603,7,20.96,7.89,20.999,8.953z M7,6c0.577,0,1.15,0.123,1.658,0.355  c0.27,0.124,0.583,0.122,0.85-0.008c0.268-0.129,0.465-0.371,0.536-0.659C10.285,4.726,11.556,4,13,4  c1.309,0,2.454,0.593,2.852,1.39c-0.056,0.021-0.105,0.051-0.159,0.074c-0.155,0.065-0.307,0.134-0.452,0.211  c-0.078,0.041-0.152,0.086-0.227,0.131c-0.131,0.078-0.256,0.161-0.377,0.25c-0.07,0.051-0.138,0.102-0.204,0.156  c-0.12,0.098-0.231,0.203-0.338,0.31c-0.052,0.052-0.107,0.101-0.156,0.156c-0.148,0.165-0.284,0.338-0.4,0.521  C13.039,7.067,12.52,7,12,7c-0.321,0-0.633,0.029-0.937,0.076c-0.099,0.015-0.192,0.041-0.289,0.06  c-0.202,0.041-0.4,0.087-0.592,0.147c-0.107,0.033-0.208,0.072-0.311,0.112C9.699,7.46,9.532,7.532,9.371,7.613  C9.274,7.661,9.179,7.71,9.086,7.764C8.928,7.855,8.781,7.955,8.638,8.059C8.56,8.117,8.48,8.17,8.406,8.231  C8.245,8.365,8.101,8.509,7.964,8.66C7.925,8.703,7.879,8.74,7.842,8.784c-0.166,0.198-0.308,0.409-0.428,0.63  c-0.032,0.059-0.052,0.123-0.08,0.184C7.271,9.731,7.203,9.861,7.158,10H7c-1.626,0-3-0.916-3-2S5.374,6,7,6z"></path></svg>