<svg height='100px' width='100px'  fill="#000000" xmlns="http://www.w3.org/2000/svg" xmlns:xlink="http://www.w3.org/1999/xlink" version="1.1" x="0px" y="0px" viewBox="0 0 100 100" style="enable-background:new 0 0 100 100;" xml:space="preserve"><style type="text/css">
	.st0{fill:none;stroke:#000000;stroke-width:2;stroke-linecap:round;stroke-linejoin:round;stroke-miterlimit:10;}
</style><path d="M50,61.76953c4.73438,0,8.58691-3.85254,8.58691-8.58691c0-6.31934-7.54199-14.30566-7.86328-14.6416  c-0.19043-0.2002-0.45508-0.34375-0.7334-0.31055c-0.27734,0.00293-0.54004,0.12012-0.72754,0.32422  c-0.32031,0.34961-7.84961,8.63379-7.84961,14.62793C41.41309,57.91699,45.26562,61.76953,50,61.76953z M50.0127,40.73926  c1.85645,2.12891,6.57422,7.98047,6.57422,12.44336c0,3.63184-2.95508,6.58691-6.58691,6.58691s-6.58691-2.95508-6.58691-6.58691  C43.41309,48.95996,48.16309,42.92773,50.0127,40.73926z"></path><path d="M10.89551,57.41699c-0.28223,0.0293-0.53906,0.17773-0.70508,0.40723c-0.16699,0.22949-0.22754,0.51953-0.16797,0.79688  c1.03516,4.82324,2.92578,9.38086,5.61914,13.54688c0.1543,0.23828,0.40234,0.39941,0.68164,0.44434  c0.28027,0.04688,0.56641-0.03027,0.78711-0.20996c2.96875-2.40039,7.24902-2.17188,9.9541,0.5332  c2.7041,2.7041,2.93359,6.9834,0.5332,9.9541c-0.17871,0.2207-0.25488,0.50684-0.20996,0.78711  c0.04492,0.2793,0.20605,0.52734,0.44434,0.68164c4.16602,2.69336,8.72363,4.58398,13.54688,5.61914  c0.27539,0.05859,0.56738-0.00098,0.79688-0.16797c0.22949-0.16602,0.37793-0.42285,0.40723-0.70508  C42.9834,85.30273,46.17188,82.43555,50,82.43555s7.0166,2.86719,7.41699,6.66895c0.0293,0.28223,0.17773,0.53906,0.40723,0.70508  C57.99609,89.93457,58.20215,90,58.41113,90c0.07031,0,0.14062-0.00781,0.20996-0.02246  c4.82324-1.03516,9.38086-2.92578,13.54688-5.61914c0.23828-0.1543,0.39941-0.40234,0.44434-0.68164  c0.04492-0.28027-0.03125-0.56641-0.20996-0.78711c-2.40039-2.9707-2.1709-7.25,0.5332-9.9541  c2.70508-2.70508,6.98535-2.93262,9.9541-0.5332c0.22168,0.17969,0.50684,0.25684,0.78711,0.20996  c0.2793-0.04492,0.52734-0.20605,0.68164-0.44434c2.69336-4.16602,4.58398-8.72363,5.61914-13.54688  c0.05957-0.27734-0.00098-0.56738-0.16797-0.79688c-0.16602-0.22949-0.42285-0.37793-0.70508-0.40723  C85.30273,57.0166,82.43555,53.82812,82.43555,50s2.86719-7.0166,6.66895-7.41699c0.28223-0.0293,0.53906-0.17773,0.70508-0.40723  c0.16699-0.22949,0.22754-0.51953,0.16797-0.79688c-1.03516-4.82324-2.92578-9.38086-5.61914-13.54688  c-0.1543-0.23828-0.40234-0.39941-0.68164-0.44434c-0.28027-0.04492-0.56543,0.03125-0.78711,0.20996  c-2.96973,2.39844-7.25,2.17188-9.9541-0.5332c-2.7041-2.7041-2.93359-6.9834-0.5332-9.9541  c0.17871-0.2207,0.25488-0.50684,0.20996-0.78711c-0.04492-0.2793-0.20605-0.52734-0.44434-0.68164  c-4.16602-2.69336-8.72363-4.58398-13.54688-5.61914c-0.27441-0.05762-0.56738,0.00098-0.79688,0.16797  c-0.22949,0.16602-0.37793,0.42285-0.40723,0.70508C57.0166,14.69727,53.82812,17.56445,50,17.56445  s-7.0166-2.86719-7.41699-6.66895c-0.0293-0.28223-0.17773-0.53906-0.40723-0.70508s-0.52051-0.22461-0.79688-0.16797  c-4.82324,1.03516-9.38086,2.92578-13.54688,5.61914c-0.23828,0.1543-0.39941,0.40234-0.44434,0.68164  c-0.04492,0.28027,0.03125,0.56641,0.20996,0.78711c2.40039,2.9707,2.1709,7.25-0.5332,9.9541  c-2.70508,2.70508-6.98535,2.93262-9.9541,0.5332c-0.2207-0.17871-0.50684-0.25488-0.78711-0.20996  c-0.2793,0.04492-0.52734,0.20605-0.68164,0.44434c-2.69336,4.16602-4.58398,8.72363-5.61914,13.54688  c-0.05957,0.27734,0.00098,0.56738,0.16797,0.79688c0.16602,0.22949,0.42285,0.37793,0.70508,0.40723  C14.69727,42.9834,17.56445,46.17188,17.56445,50S14.69727,57.0166,10.89551,57.41699z M19.56445,50  c0-4.47559-3.09082-8.26172-7.35254-9.22363c0.94141-3.87109,2.46875-7.55273,4.55273-10.97168  c3.69336,2.33105,8.55273,1.83496,11.71387-1.32617c3.16211-3.16211,3.65527-8.02148,1.32617-11.71387  c3.41895-2.08398,7.10059-3.61133,10.97168-4.55273c0.96191,4.26172,4.74805,7.35254,9.22363,7.35254  s8.26172-3.09082,9.22363-7.35254c3.87109,0.94141,7.55273,2.46875,10.97168,4.55273  c-2.3291,3.69238-1.83594,8.55176,1.32617,11.71387c3.16211,3.16309,8.02344,3.6543,11.71387,1.32617  c2.08398,3.41895,3.61133,7.10059,4.55273,10.97168C83.52637,41.73828,80.43555,45.52441,80.43555,50  s3.09082,8.26172,7.35254,9.22363c-0.94141,3.87109-2.46875,7.55273-4.55273,10.97168  c-3.69238-2.33105-8.55273-1.83496-11.71387,1.32617c-3.16211,3.16211-3.65527,8.02148-1.32617,11.71387  c-3.41895,2.08398-7.10059,3.61133-10.97168,4.55273C58.26172,83.52637,54.47559,80.43555,50,80.43555  s-8.26172,3.09082-9.22363,7.35254c-3.87109-0.94141-7.55273-2.46875-10.97168-4.55273  c2.3291-3.69238,1.83594-8.55176-1.32617-11.71387c-3.16211-3.16309-8.02344-3.65527-11.71387-1.32617  c-2.08398-3.41895-3.61133-7.10059-4.55273-10.97168C16.47363,58.26172,19.56445,54.47559,19.56445,50z"></path><path d="M50,70.46191c11.2832,0,20.46191-9.17871,20.46191-20.46191S61.2832,29.53809,50,29.53809S29.53809,38.7168,29.53809,50  S38.7168,70.46191,50,70.46191z M50,31.53809c10.17969,0,18.46191,8.28223,18.46191,18.46191S60.17969,68.46191,50,68.46191  S31.53809,60.17969,31.53809,50S39.82031,31.53809,50,31.53809z"></path></svg>