<svg height='100px' width='100px'  fill="#000000" xmlns="http://www.w3.org/2000/svg" viewBox="0 0 512 512" x="0px" y="0px"><g><path d="M302.784,123.722c8.626,7.236,18.486,11.785,27.763,12.809,4.683.519,13.288.491,18.306-5.491,8.361-9.967,1.39-30.159-15.222-44.094-8.626-7.236-18.485-11.785-27.763-12.809a33.647,33.647,0,0,0-3.665-.2c-4.7,0-10.751,1.057-14.641,5.695C279.2,89.594,286.172,109.787,302.784,123.722Zm27.682-8.1a8,8,0,1,1,.988,11.27A8,8,0,0,1,330.466,115.617Zm-18.388-15.424a8,8,0,1,1,.988,11.27A8,8,0,0,1,312.078,100.193ZM293.691,84.769a8,8,0,1,1,.988,11.27A8,8,0,0,1,293.691,84.769Z"></path><path d="M241.94,279.761l-3.437.859V288a8,8,0,0,1-.411,2.53L233.6,304h20.9a31.923,31.923,0,0,1,24,10.868A31.923,31.923,0,0,1,302.5,304h20.9l-4.49-13.47A8,8,0,0,1,318.5,288v-8.128l-.443-.111a8,8,0,0,1,.443-15.613v-8.293a8,8,0,0,1-.443-15.616l.443-.111V188.944l-36.422,18.211a8,8,0,0,1-7.156,0L238.5,188.944V239.38l3.437.859a7.99,7.99,0,0,1-3.437,15.6v8.309a7.994,7.994,0,0,1,3.437,15.609ZM296.5,212a10,10,0,1,1-10,10A10,10,0,0,1,296.5,212Zm-10.525,28.012a9,9,0,0,1,7.2,14.4l-4.9,6.529A11.23,11.23,0,0,0,296,264a8,8,0,0,1,0,16,27.109,27.109,0,0,1-16-5.17A27.106,27.106,0,0,1,264,280a8,8,0,0,1,0-16,11.23,11.23,0,0,0,7.719-3.059l-4.9-6.529a9,9,0,0,1,7.2-14.4ZM260.5,212a10,10,0,1,1-10,10A10,10,0,0,1,260.5,212Z"></path><path d="M334.5,328a8.009,8.009,0,0,0-8-8h-24a16.019,16.019,0,0,0-16,16h40A8.009,8.009,0,0,0,334.5,328Z"></path><path d="M230.5,336h40a16.019,16.019,0,0,0-16-16h-24a8,8,0,1,0,0,16Z"></path><path d="M152,320a16.019,16.019,0,0,0-16,16h40a8,8,0,0,0,0-16Z"></path><path d="M88,272.284V288a8.007,8.007,0,0,1-.572,2.972L82.216,304H104a31.923,31.923,0,0,1,24,10.868A31.923,31.923,0,0,1,152,304h21.784l-5.212-13.029A8,8,0,0,1,168,288V272.284a8,8,0,0,1,.411-2.53A147.616,147.616,0,0,0,176,222.986v-1.8a148.368,148.368,0,0,0-2.012-24.314l-2.823-16.94-12.786,16.894a8,8,0,0,1-10.817,1.829,35.174,35.174,0,0,0-39.124,0,8,8,0,0,1-10.817-1.829L84.835,179.933l-2.823,16.94A148.368,148.368,0,0,0,80,221.187v1.8a147.616,147.616,0,0,0,7.589,46.768A8,8,0,0,1,88,272.284Zm59.578,14.871a43.98,43.98,0,0,1-39.156,0,8,8,0,0,1,7.156-14.31,27.917,27.917,0,0,0,24.844,0,8,8,0,1,1,7.156,14.31ZM144,216a8,8,0,1,1-8,8A8,8,0,0,1,144,216Zm-32,0a8,8,0,1,1-8,8A8,8,0,0,1,112,216Zm0,32a11.241,11.241,0,0,0,8-3.314l.935-.936a8,8,0,1,1,14.129,0l.936.935A11.241,11.241,0,0,0,144,248a8,8,0,0,1,0,16,27.109,27.109,0,0,1-16-5.17A27.106,27.106,0,0,1,112,264a8,8,0,0,1,0-16Z"></path><path d="M373.15,64.286l16.225-10.817A32.562,32.562,0,0,1,440,80.562V320h16V84a52,52,0,0,0-83.2-41.6l-11.933,8.95c.543.414,1.086.826,1.617,1.262A55.815,55.815,0,0,1,373.15,64.286Z"></path><path d="M62.843,423.333A66,66,0,0,0,128.18,480H383.82a66,66,0,0,0,65.337-56.666L454.776,384H57.224ZM352,400h32a8,8,0,0,1,0,16H352a8,8,0,0,1,0-16Zm-48,0h16a8,8,0,0,1,0,16H304a8,8,0,0,1,0-16Z"></path><path d="M80,336h40a16.019,16.019,0,0,0-16-16H80a8,8,0,0,0,0,16Z"></path><path d="M365.783,105.306a39.987,39.987,0,0,0-54.024-46.445c11.083,2.086,22.358,7.608,32.156,15.827C354.668,83.709,362.112,94.545,365.783,105.306Z"></path><path d="M464,336H349.127A24.039,24.039,0,0,1,326.5,352h-96a24.039,24.039,0,0,1-22.624-16h-9.255A24.039,24.039,0,0,1,176,352H80a24.039,24.039,0,0,1-22.624-16H48a16,16,0,0,0,0,32H464a16,16,0,0,0,0-32Z"></path><path d="M232.486,104.371a8,8,0,0,0,1.975-.248l15.508-3.938a8,8,0,1,0-3.938-15.508l-15.508,3.938a8,8,0,0,0,1.963,15.756Z"></path><path d="M185.963,116.187a8,8,0,0,0,1.975-.249L203.446,112a8,8,0,1,0-3.938-15.508L184,100.431a8,8,0,0,0,1.963,15.756Z"></path><path d="M139.44,128a8.015,8.015,0,0,0,1.976-.248l15.507-3.939a8,8,0,1,0-3.939-15.507l-15.507,3.938A8,8,0,0,0,139.44,128Z"></path><path d="M238.115,122.617a8,8,0,1,0,7.432,14.168l14.169-7.432a8,8,0,0,0-7.432-14.168Z"></path><path d="M192.241,155.717a7.994,7.994,0,0,0,10.8,3.367l14.168-7.433a8,8,0,1,0-7.433-14.168l-14.168,7.433A8,8,0,0,0,192.241,155.717Z"></path><path d="M264.916,168.889a8,8,0,0,0,11.251-1.2l10.056-12.445a8,8,0,0,0-12.446-10.057l-10.056,12.446A8,8,0,0,0,264.916,168.889Z"></path></g></svg>