<svg height='100px' width='100px'  fill="#000000" xmlns="http://www.w3.org/2000/svg" xmlns:xlink="http://www.w3.org/1999/xlink" version="1.1" x="0px" y="0px" viewBox="0 0 32 32" enable-background="new 0 0 32 32" xml:space="preserve"><path d="M30,1H14c-1.1,0-2,0.9-2,2v26c0,1.1,0.9,2,2,2h16c1.1,0,2-0.9,2-2V3C32,1.9,31.1,1,30,1z M19,3h6v2h-6V3z M22,29  c-1.104,0-2-0.896-2-2s0.896-2,2-2s2,0.896,2,2S23.104,29,22,29z M28,23H16V7h12V23z M10,12.022V3c0-0.262,0.029-0.517,0.077-0.766  C9.493,2.543,9.085,3.125,9,3.792L8.655,5.895c-0.814,0.351-1.571,0.804-2.27,1.332L4.82,6.644C3.909,6.262,2.799,6.56,2.268,7.479  l-2,3.464c-0.531,0.92-0.234,2.03,0.552,2.628l1.274,1.059C2.038,15.08,2,15.535,2,16s0.038,0.92,0.094,1.369L0.82,18.428  c-0.786,0.599-1.083,1.709-0.552,2.629l2,3.464c0.531,0.92,1.641,1.218,2.552,0.836l1.565-0.583c0.699,0.528,1.456,0.981,2.27,1.332  L9,28.209c0.085,0.666,0.493,1.248,1.077,1.557C10.029,29.518,10,29.262,10,29v-9.022C8.792,19.064,8,17.631,8,16  S8.792,12.935,10,12.022z"></path></svg>