<svg height='100px' width='100px'  fill="#000000" xmlns="http://www.w3.org/2000/svg" xmlns:xlink="http://www.w3.org/1999/xlink" version="1.1" x="0px" y="0px" viewBox="0 0 128 128" enable-background="new 0 0 128 128" xml:space="preserve"><g><path fill="#000000" d="M15.8,111.8c0,8.4,6.8,15.2,15.2,15.2h81.2c-6.6-9.1-6.6-21.3,0-30.4v0H31C22.6,96.6,15.8,103.4,15.8,111.8   z"></path><path fill="#000000" d="M28,91.8V1.3c-7,1.5-12.2,7.6-12.2,15v82C18.9,94.9,23.1,92.5,28,91.8z"></path><path fill="#000000" d="M33.1,1v90.5h79.1V1H33.1z M62.4,60.1H51.5c-6.3,0-11.4-5.1-11.4-11.4c0-6.3,5.1-11.4,11.4-11.4h10.9V60.1z    M91.5,76.1l-24-16.1V37.3l24-16.1V76.1z M96.8,57.5V39.9c4.9,0,8.8,3.9,8.8,8.8C105.6,53.5,101.7,57.5,96.8,57.5z"></path></g></svg>