<?xml version="1.0" encoding="utf-8"?>
<!-- Generator: Adobe Illustrator 24.2.1, SVG Export Plug-In . SVG Version: 6.00 Build 0)  -->
<svg version="1.1" id="Layer_1" xmlns="http://www.w3.org/2000/svg" xmlns:xlink="http://www.w3.org/1999/xlink" x="0px" y="0px"
	 viewBox="0 0 100 100" enable-background="new 0 0 100 100" xml:space="preserve">
<g>
	<path d="M53.531,31.594c-1.163-0.23-2.346-0.345-3.531-0.344c-5.902,0-11.459,2.779-15,7.5c-0.566,0.755-1.078,1.548-1.531,2.375
		c-4.884,9.131-1.441,20.493,7.69,25.377c0.418,0.224,0.845,0.432,1.279,0.623c2.373,1.085,4.953,1.64,7.563,1.625
		c10.355-0.023,18.731-8.437,18.708-18.792C68.687,40.996,62.329,33.302,53.531,31.594z M59,58.719
		c-3.641,3.741-9.223,4.825-14,2.719c-6.315-2.788-9.175-10.168-6.386-16.484c0.119-0.27,0.248-0.536,0.386-0.798
		c0.305-0.565,0.649-1.108,1.031-1.625c2.348-3.151,6.04-5.014,9.969-5.031c0.787-0.004,1.572,0.069,2.344,0.219
		c6.78,1.302,11.22,7.853,9.918,14.633c-0.458,2.387-1.603,4.589-3.293,6.336L59,58.719z M54.188,50.625
		c0.378,0.526,0.566,1.165,0.531,1.813c0.015,0.888-0.349,1.74-1,2.344c-0.732,0.646-1.652,1.041-2.625,1.125v2.344h-1.656v-2.313
		c-0.788-0.09-1.557-0.301-2.281-0.625c-0.696-0.304-1.339-0.715-1.906-1.219l0.938-1.906c0.587,0.54,1.264,0.973,2,1.281
		c0.649,0.293,1.351,0.452,2.063,0.469c0.513,0.032,1.023-0.088,1.469-0.344c0.551-0.356,0.709-1.091,0.353-1.642
		c-0.039-0.061-0.084-0.118-0.134-0.171c-0.242-0.233-0.529-0.414-0.844-0.531l-1.375-0.438c-0.652-0.23-1.289-0.501-1.906-0.813
		c-0.502-0.224-0.942-0.567-1.281-1c-0.374-0.516-0.561-1.144-0.531-1.781c-0.019-0.84,0.322-1.647,0.938-2.219
		c0.707-0.622,1.593-1.005,2.531-1.094v-2.188h1.656v2.188c0.628,0.064,1.247,0.2,1.844,0.406c0.571,0.195,1.116,0.457,1.625,0.781
		l-0.906,1.969c-0.578-0.355-1.197-0.638-1.844-0.844c-0.533-0.188-1.091-0.293-1.656-0.313c-0.448-0.022-0.894,0.086-1.281,0.313
		c-0.3,0.173-0.48,0.497-0.469,0.844c-0.013,0.302,0.1,0.597,0.313,0.813c0.235,0.227,0.511,0.407,0.813,0.531l1.344,0.469
		c0.661,0.185,1.308,0.414,1.938,0.688C53.373,49.799,53.835,50.164,54.188,50.625z M21.25,45c-1.036-1.381-2.994-1.661-4.375-0.625
		c-0.237,0.178-0.447,0.388-0.625,0.625L6.875,57.5c-1.036,1.381-0.756,3.339,0.625,4.375C8.041,62.281,8.699,62.5,9.375,62.5h18.75
		c1.726,0,3.125-1.399,3.125-3.125c0-0.676-0.219-1.334-0.625-1.875L21.25,45z M15.625,56.25l3.125-4.156l3.125,4.156H15.625z
		 M90.625,37.5h-18.75c-1.726,0-3.125,1.399-3.125,3.125c0,0.676,0.219,1.334,0.625,1.875L78.75,55
		c1.036,1.381,2.994,1.661,4.375,0.625c0.237-0.178,0.447-0.388,0.625-0.625l9.375-12.5c1.036-1.381,0.756-3.339-0.625-4.375
		C91.959,37.719,91.301,37.5,90.625,37.5z M81.25,47.906l-3.125-4.156h6.25L81.25,47.906z"/>
</g>
</svg>
