<svg height='100px' width='100px'  fill="#000000" xmlns="http://www.w3.org/2000/svg" data-name="Layer 1" viewBox="0 0 128 128" x="0px" y="0px"><title>construction-works final</title><path d="M41.99982,51.14032h-10a1.99935,1.99935,0,0,0-1.8667,1.26843l-5,12.86a1.961,1.961,0,0,0,.21826,1.8302,2.00675,2.00675,0,0,0,1.64844.85834h15a1.98942,1.98942,0,0,0,2-1.97845V53.11877A1.98942,1.98942,0,0,0,41.99982,51.14032Zm-2,12.86H29.91193l3.46143-8.90314h6.62646Z"></path><path d="M25.99982,90.21521a9.893,9.893,0,1,0,10,9.8924A9.95771,9.95771,0,0,0,25.99982,90.21521Zm0,15.82782a5.93577,5.93577,0,1,1,6-5.93542A5.97448,5.97448,0,0,1,25.99982,106.043Z"></path><path d="M100.99982,110a9.893,9.893,0,1,0-10-9.89239A9.95771,9.95771,0,0,0,100.99982,110Zm0-15.82782a5.93577,5.93577,0,1,1-6,5.93542A5.97448,5.97448,0,0,1,100.99982,94.17218Z"></path><path d="M126.56427,44.79041,76.56671,30.24359l-1.66943-4.95441a1.99058,1.99058,0,0,0-1.34814-1.27661l-21-5.93542a2.00859,2.00859,0,0,0-2.08838.63855,1.96243,1.96243,0,0,0-.25,2.1485l5.78906,11.45306V64.495a1.985,1.985,0,0,0,1.67139,1.95148l6,.9892a2.00779,2.00779,0,0,0,1.07129-.11444l4.35156-1.722,8.01862,2.37964L66.83936,85.76367H51.99982V49.1618a5.97452,5.97452,0,0,0-6-5.93542H29.60236A6.00609,6.00609,0,0,0,24.117,46.75732l-7.37549,16.4649A25.52613,25.52613,0,0,0,1.66437,67.96942,3.94,3.94,0,0,0-.00018,71.1825v26.452a3.98318,3.98318,0,0,0,4,3.95691h6a1.98942,1.98942,0,0,0,2-1.97845c0-7.48883,6.14941-13.35474,14-13.35474a14.365,14.365,0,0,1,14,14.344,1.98942,1.98942,0,0,0,2,1.97845h44a1.98942,1.98942,0,0,0,2-1.97845,13.63526,13.63526,0,0,1,5.81934-11.214,13.11278,13.11278,0,0,1,14.34033-.01349l.04785.03137a12.8049,12.8049,0,0,1,5.79248,10.70148,1.98942,1.98942,0,0,0,2,1.97845h10a1.98942,1.98942,0,0,0,2-1.97845V87.74213a1.98942,1.98942,0,0,0-2-1.97845H121.285l6.68646-38.74213A1.97835,1.97835,0,0,0,126.56427,44.79041ZM3.99176,76.86047H5.99982a1.9786,1.9786,0,1,1,0,3.957H3.99329ZM47.99982,98.62372H43.89c-1.00586-9.03064-8.78955-16.32239-17.89014-16.32239-9.39648,0-16.89795,6.59039-17.88867,15.33319H3.99982l-.005-12.86011h2.005a5.93577,5.93577,0,1,0,0-11.87085H3.99023l-.00067-1.71429a22.28153,22.28153,0,0,1,10.03857-3.91248h3.97168a2.05851,2.05851,0,0,0,1.84534-1.21649L27.77423,48.3595a2.00168,2.00168,0,0,1,1.82813-1.17615H45.99982a1.99129,1.99129,0,0,1,2,1.97845ZM81.0451,69.14587l2.89685.85974-9.1026,15.75806H71.446Zm3.06995,29.47784H51.99982V89.72058h35.745A18.145,18.145,0,0,0,84.11505,98.62372Zm25.75977-12.86a17.12156,17.12156,0,0,0-17.72815,0H79.446l8.42841-14.59106L107.431,76.97644l2.96069,8.78723Zm14.125,3.95691v8.40857h-6.11719a16.6701,16.6701,0,0,0-3.51025-8.40857ZM122.475,55.3551,72.56427,40.8335a2.00414,2.00414,0,0,0-2.4834,1.3399,1.97609,1.97609,0,0,0,1.35449,2.45667L121.79718,59.283l-.99561,5.76862L71.56427,50.72583a2.00425,2.00425,0,0,0-2.4834,1.34,1.97609,1.97609,0,0,0,1.35449,2.45667l49.68829,14.45691L117.31232,85.269h-2.87109L110.89728,74.7511a1.99013,1.99013,0,0,0-1.32275-1.26935l-40-11.87091a2.021,2.021,0,0,0-1.31738.058l-4.48047,1.77271-3.77686-.62262V31.85016a1.96387,1.96387,0,0,0-.21094-.88489L55.82208,23.117l15.61377,4.41345,1.6665,4.94519a1.99175,1.99175,0,0,0,1.333,1.27277l49.29346,14.342Z"></path></svg>