<svg height='100px' width='100px'  fill="#000000" xmlns="http://www.w3.org/2000/svg" viewBox="0 0 512 512" x="0px" y="0px"><g><circle cx="196" cy="468" r="12"></circle><circle cx="188" cy="388" r="12"></circle><circle cx="212" cy="428" r="12"></circle><circle cx="236" cy="468" r="12"></circle><path d="M272,75.695a31.885,31.885,0,0,1-32,0V168h32Z"></path><circle cx="256" cy="48" r="16"></circle><circle cx="252" cy="428" r="12"></circle><path d="M187.4,441.358a27.958,27.958,0,0,1-.675-25.39,27.836,27.836,0,0,1-14.45-4.816l5.482,35.636A27.982,27.982,0,0,1,187.4,441.358Z"></path><path d="M330.347,325.673A8.009,8.009,0,0,0,344,320V280a23.973,23.973,0,0,1,19.532-23.582l4.687-30.467A118.313,118.313,0,0,1,341.555,244.6C317.52,257.11,287.136,264,256,264s-61.521-6.892-85.56-19.407a118.286,118.286,0,0,1-26.658-18.645l9.556,62.12A24.006,24.006,0,0,1,200,296v32a8,8,0,0,0,16,0V312a24,24,0,0,1,48,0v56a8,8,0,0,0,16,0V296a24,24,0,0,1,48,0v24A7.985,7.985,0,0,0,330.347,325.673Z"></path><circle cx="324" cy="404" r="12"></circle><circle cx="276" cy="468" r="12"></circle><path d="M177.829,230.4C199.628,241.75,227.389,248,256,248s56.371-6.248,78.167-17.594c20.519-10.68,34.573-25.2,39.663-40.932l2.152-13.967c-.19-15.983-9.6-31.734-26.561-44.4-15.91-11.882-37.471-20.421-61.421-24.455V176a8,8,0,0,1-8,8H232a8,8,0,0,1-8-8V106.649c-23.95,4.034-45.511,12.573-61.421,24.455-16.964,12.669-26.37,28.419-26.561,44.4l2.141,13.924C143.243,205.183,157.3,219.714,177.829,230.4Zm24.792-101.977,5.141,15.151a109.861,109.861,0,0,0-14.034,5.83l-7.194-14.292A125.712,125.712,0,0,1,202.621,128.424Zm-29.889,15.062,9.45,12.911C173.3,162.9,168,170.225,168,176c0,3.449,1.855,7.458,5.367,11.594l-12.2,10.356c-6-7.067-9.17-14.657-9.17-21.95C152,164.817,159.363,153.271,172.732,143.486Z"></path><path d="M188,360a27.991,27.991,0,0,1,25.278,40.032,27.916,27.916,0,0,1,18.722,8.4,27.986,27.986,0,0,1,45.278,31.6,27.916,27.916,0,0,1,18.722,8.4,27.928,27.928,0,0,1,38.246-1.643l2.77-18.009a28,28,0,1,1,6.845-44.494l6.993-45.455A23.979,23.979,0,0,1,312,320V296a8,8,0,1,0-16,0v72a24,24,0,1,1-48,0V312a8,8,0,1,0-16,0v16a24,24,0,1,1-48,0V296a8,8,0,1,0-16,0v32a24.086,24.086,0,0,1-6.068,15.935l4.111,26.721A27.956,27.956,0,0,1,188,360Z"></path><circle cx="316" cy="468" r="12"></circle></g></svg>