<svg height='100px' width='100px'  fill="#000000" xmlns="http://www.w3.org/2000/svg" xmlns:xlink="http://www.w3.org/1999/xlink" version="1.1" x="0px" y="0px" viewBox="0 0 96 96" enable-background="new 0 0 96 96" xml:space="preserve"><path d="M9.001,9h10.708L9.001,13.501V9z M9.001,62.333h10.708L9.001,66.835V62.333z M33.666,87h-6.867l6.867-2.889V87z   M33.666,81.943L21.64,87H9.001v-1.011l12.333-5.185l12.333-5.186L33.666,81.943L33.666,81.943z M33.666,73.451l-12.333,5.185  L9.001,83.82v-6.323l12.333-5.185l12.333-5.187L33.666,73.451L33.666,73.451z M33.666,64.958l-12.333,5.185L9.001,75.328v-6.324  l15.87-6.671h8.795V64.958z M33.666,38.955v8.493v8.493v4.392h-4.038h-5.161h-2.625H9.001v-1.674v-8.493v-8.493v-6.007h7.882h5.161  h2.625h8.997V38.955z M33.666,33.666h-6.865l6.865-2.886V33.666z M33.666,28.61l-2.88,1.211l-9.146,3.845H9.001v-1.009l12.333-5.185  l12.333-5.185L33.666,28.61L33.666,28.61z M33.666,20.118l-12.333,5.185L9.001,30.487v-6.322l12.333-5.185l12.333-5.185  L33.666,20.118L33.666,20.118z M33.666,11.625L21.333,16.81L9.001,21.995v-6.323L24.871,9h8.795V11.625z M35.667,35.666h10.708  l-10.708,4.501V35.666z M60.332,65.622v8.493v8.492V87H48.508H35.667v-1.675v-8.492V68.34v-6.007h7.882h5.161h2.626h8.996V65.622z   M60.332,60.333h-6.865l5.045-2.121l1.82-0.767V60.333z M60.332,55.277l-6.615,2.781l-5.411,2.273H35.667v-1.01L48,54.139  l12.333-5.185L60.332,55.277L60.332,55.277z M60.332,46.784L48,51.969l-12.333,5.186V50.83L48,45.646l12.333-5.185L60.332,46.784  L60.332,46.784z M60.332,38.291l-24.665,10.37v-6.323l15.869-6.671h8.796V38.291z M60.332,12.289v8.493v8.492v4.392h-4.038h-5.16  h-2.626H35.667v-1.674V23.5v-8.493V9h15.668h8.997V12.289z M62.334,9h10.709l-1.802,0.757l-8.907,3.744V9z M62.334,62.333h10.709  l-10.709,4.502V62.333z M86.999,87h-6.866l6.866-2.889V87z M86.999,81.943L74.973,87H62.334v-1.011l12.332-5.185l12.333-5.186  V81.943z M86.999,73.451l-12.333,5.185L62.334,83.82v-6.323l12.332-5.185l12.333-5.187V73.451z M86.999,64.958l-12.333,5.185  l-12.332,5.187v-6.324l15.869-6.671h8.796V64.958z M86.999,38.955v8.493v8.493v4.392h-4.038h-5.16h-2.626H62.334v-1.674v-8.493  v-8.493v-6.007h7.882h5.161h2.625h8.997V38.955L86.999,38.955z M86.999,33.666h-6.865l6.865-2.886V33.666z M86.999,28.61  l-1.187,0.499l-10.84,4.558H62.334v-1.009l12.332-5.185l12.333-5.185V28.61z M86.999,20.118l-12.333,5.185l-12.332,5.185v-6.322  l12.332-5.185l12.333-5.185V20.118z M86.999,11.625L74.666,16.81l-12.332,5.185v-6.323L78.203,9h8.796V11.625z"></path></svg>