<svg height='100px' width='100px'  fill="#000000" xmlns="http://www.w3.org/2000/svg" xmlns:xlink="http://www.w3.org/1999/xlink" version="1.1" x="0px" y="0px" viewBox="0 0 100 100" enable-background="new 0 0 100 100" xml:space="preserve"><g><g><path d="M79.349,89.378l7.947-7.947L18.975,13.173L4.01,6.083l7.261,15.211L79.349,89.378z M18.306,17.024    c-0.243,0.241-0.862,0.378-0.862,0.378l-2.119,0.002v2.118l-0.005-0.005c-0.034,0.321-0.136,0.627-0.375,0.863    c-0.565,0.562-1.478,0.562-2.04,0l-0.042,0.042l-0.252-0.253l-3.495-7.38l1.6-1.6l7.375,3.496l0.255,0.255l-0.04,0.04    C18.867,15.541,18.867,16.46,18.306,17.024z M84.833,81.431l-2.742,2.739L16.882,18.956c0,0,1.506,0.611,2.737-0.619    c0.388-0.388,0.618-0.859,0.771-1.351L84.833,81.431z"></path><path d="M86.89,96.91l7.939-7.942L89.22,83.35l-7.951,7.948L86.89,96.91z M92.368,88.965l-5.479,5.479l-3.154-3.147l5.484-5.486    L92.368,88.965z"></path></g><polygon points="49.779,63.1 48.128,64.749 43.609,60.23 42.378,61.462 46.897,65.98 45.175,67.702 42.583,65.105 41.35,66.338    43.945,68.934 42.224,70.652 39.63,68.061 38.399,69.29 40.993,71.883 39.273,73.604 34.753,69.086 33.523,70.316 38.042,74.836    36.32,76.559 33.727,73.965 32.496,75.195 35.089,77.788 33.367,79.51 30.775,76.918 29.543,78.148 32.136,80.74 30.415,82.463    25.896,77.943 24.665,79.176 29.183,83.693 27.462,85.416 24.871,82.82 23.636,84.053 26.23,86.646 24.511,88.365 21.919,85.773    20.688,87.004 23.281,89.598 21.559,91.318 17.041,86.8 15.81,88.031 20.328,92.55 17.455,95.423 4.138,82.107 36.461,49.785    35.23,48.554 2.291,81.493 1.673,82.107 17.455,97.885 51.01,64.329  "></polygon><polygon points="81.979,1.807 46.483,37.302 47.714,38.533 81.979,4.269 95.293,17.583 92.414,20.465 87.896,15.946 86.664,17.177    91.184,21.696 89.461,23.415 86.869,20.822 85.639,22.053 88.23,24.648 86.509,26.367 83.916,23.775 82.686,25.006 85.279,27.599    83.559,29.32 79.037,24.802 77.807,26.033 82.327,30.551 80.605,32.273 78.012,29.681 76.779,30.912 79.375,33.504 77.652,35.226    75.061,32.633 73.829,33.864 76.422,36.457 74.7,38.178 70.182,33.66 68.951,34.891 73.469,39.409 71.748,41.131 69.154,38.539    67.924,39.77 70.518,42.362 68.795,44.084 66.202,41.489 64.973,42.72 67.562,45.315 65.846,47.034 61.322,42.516 60.093,43.747    64.613,48.265 62.891,49.986 60.297,47.394 59.064,48.625 61.658,51.217 61.027,51.848 62.26,53.08 97.143,18.198 97.762,17.583     "></polygon></g></svg>