<svg height='100px' width='100px'  fill="#000000" xmlns="http://www.w3.org/2000/svg" xmlns:xlink="http://www.w3.org/1999/xlink" version="1.1" x="0px" y="0px" viewBox="0 0 512 512" style="enable-background:new 0 0 512 512;" xml:space="preserve"><g><path d="M424.094,177.523c2.926-21.376-0.035-35.968-9.716-43.67c-8.039-6.423-18.064-5.941-24.821-4.53   c-4.678-10.935-11.139-17.377-19.289-19.159c-7.203-1.578-13.849,0.928-18.769,3.973c-4.753-8.076-10.359-12.457-16.987-13.33   c-2.878-0.353-5.551,0.019-7.927,0.817c-2.339-7.946-7.779-16.356-20.737-18.398c-8.373-1.522-15.78,4.084-21.981,16.151   c-5.458-9.691-13.348-10.768-17.859-9.858c-11.028,1.225-17.358,9.208-20.718,18.324c-7.315-8.54-14.741-12.123-22.055-11.028   c-13.534,2.042-20.31,19.363-23.076,29.054c-17.005,1.912-28.237,8.113-33.454,18.491c-6.119,12.19-1.877,26.069,2.155,34.821   c-6.403,3.806-10.917,10.49-10.917,18.46c0,8.037,4.582,14.781,11.074,18.565l19.428,238.206   c1.151,14.462,13.441,25.787,27.94,25.787h159.213c14.499,0,26.771-11.325,27.959-25.787l19.281-236.399   c8.498-2.982,14.693-10.867,14.693-20.373C437.528,188.582,431.972,180.816,424.094,177.523z M360.465,464.976h-13.337   l3.829-104.158c15.127-15.662,21.485-34.53,15.058-50.97c-2.499-6.406-6.947-11.677-12.589-15.952l2.746-74.441h24.535   L360.465,464.976z M211.382,219.455h24.553l3.509,95.315c-14.634,15.521-20.776,34.043-14.447,50.234   c3.12,7.983,9.182,14.267,17.141,18.937c-0.015,0.249-0.128,0.469-0.117,0.723l2.959,80.312h-13.355L211.382,219.455z    M340.966,219.455l-2.459,66.656c-9.634-3.177-20.974-4.261-33.162-2.969v-63.687H340.966z M338.618,351.388   c-0.247,0.223-0.446,0.466-0.665,0.723c-7.658,7.348-17.752,13.912-29.471,18.5c-15.613,6.108-31.635,8.02-45.243,5.365   c-12.309-2.413-20.867-8.261-24.079-16.504c-7.036-17.989,12.828-43.275,43.368-55.212c4.975-1.949,10.025-3.472,15.038-4.567   c6.126-1.318,12.086-1.949,17.692-1.949c17.952,0,32.229,6.479,36.591,17.637C356.101,326.245,350.42,339.743,338.618,351.388z    M290.122,286.126c-4.395,1.13-8.807,2.272-13.125,3.968c-8.489,3.316-16.018,7.558-22.804,12.248l-3.052-82.888h38.98V286.126z    M257.425,390.04c1.008,0.244,1.856,0.658,2.901,0.862c4.92,0.947,10.081,1.429,15.39,1.429c4.689,0,9.554-0.716,14.406-1.447   v74.091h-29.937L257.425,390.04z M305.346,387.303c2.895-0.877,5.802-1.42,8.67-2.546c7.87-3.074,14.853-6.986,21.27-11.256   l-3.364,91.475h-26.576V387.303z M179.773,204.232c-3.657,0-6.609-2.952-6.609-6.591c0-3.639,2.952-6.591,6.609-6.591h235.941   c3.639,0,6.591,2.952,6.591,6.591c0,3.639-2.952,6.591-6.591,6.591H179.773z M180.311,151.155   c3.917-7.76,16.486-10.025,26.325-10.563c3.453-0.186,6.349-2.673,7.036-6.052c2.061-9.988,7.667-22.055,11.826-22.686   c0.297,0,6.219-0.724,17.451,19.753c1.671,3.063,5.235,4.567,8.614,3.694c3.379-0.891,5.718-3.973,5.662-7.482   c-0.019-0.223,0.278-22.334,11.38-23.41c0,0,1.17,0.501,2.599,3.564c2.283,4.92,7.092,7.983,12.531,8.001c0.019,0,0.037,0,0.056,0   c5.551,0,10.471-3.119,12.865-8.131c4.084-8.596,6.85-9.579,6.795-9.598c3.917,0.613,9.264,1.467,9.747,17.117   c0.093,3.249,2.228,6.052,5.31,7.036c3.082,0.947,6.442-0.093,8.373-2.71c1.318-1.745,4.159-3.806,5.662-3.806   c0.427,0.074,4.363,0.91,9.227,13.014c0.984,2.432,3.137,4.177,5.718,4.641c2.618,0.538,5.235-0.446,6.98-2.395   c1.318-1.448,7.667-7.333,12.531-6.126c3.861,0.854,7.723,6.646,10.601,15.873c0.631,2.061,2.135,3.75,4.084,4.641   c1.931,0.928,4.233,0.947,6.201,0.093c0.111-0.037,11.176-4.567,17.061,0.149c2.995,2.419,7.168,9.621,4.276,30.057h-225.07   C180.789,169.49,176.596,158.51,180.311,151.155z M203.591,453.187l-19.066-233.732h11.603l20.243,245.519   C209.728,464.967,204.13,459.793,203.591,453.187z M388.405,453.169c-0.553,6.584-6.116,11.714-12.686,11.783l20.242-245.496h11.51   L388.405,453.169z"></path><path d="M352.779,154.775c1.392-0.817,6.108-2.933,9.227-1.522c2.562,1.132,4.641,4.92,5.829,10.675   c0.743,3.602,3.899,6.071,7.445,6.071c0.501,0,1.021-0.056,1.541-0.167c4.121-0.854,6.758-4.883,5.904-8.985   c-2.302-11.102-7.259-18.379-14.741-21.591c-11.046-4.697-21.981,1.801-23.169,2.562c-3.546,2.209-4.623,6.832-2.451,10.396   C344.536,155.759,349.196,156.891,352.779,154.775z"></path><path d="M213.876,173.674c4.196,0,7.612-3.416,7.612-7.612c0-0.056,0.186-6.461,4.381-10.192c2.933-2.581,7.482-3.62,13.682-2.766   c4.121,0.483,7.964-2.469,8.484-6.628c0.501-4.177-2.469-7.964-6.628-8.484c-10.675-1.318-19.27,0.873-25.601,6.498   c-9.264,8.187-9.542,20.217-9.542,21.572C206.265,170.258,209.681,173.674,213.876,173.674z"></path><path d="M283.439,151.396c2.766-1.986,11.492-6.795,18.825-5.644c3.472,0.594,6.331,2.543,8.744,5.959   c1.485,2.098,3.843,3.23,6.219,3.23c1.522,0,3.063-0.464,4.381-1.392c3.435-2.432,4.251-7.185,1.838-10.601   c-4.771-6.758-11.269-10.972-18.769-12.216c-14.759-2.302-28.646,7.259-30.168,8.354c-3.397,2.469-4.121,7.203-1.671,10.601   C275.307,153.067,280.06,153.847,283.439,151.396z"></path><path d="M124.041,44.555c-11.585,0-21.572,7.073-25.842,17.117c-2.97-1.058-6.126-1.615-9.375-1.615   c-15.483,0-28.089,12.606-28.089,28.089c0,16.597,14.889,30.149,31.412,27.866c3.249,11.919,14.165,20.7,27.086,20.7   c15.483,0,28.089-12.606,28.089-28.089c0-5.458-1.615-10.731-4.493-15.205c5.792-5.217,9.301-12.736,9.301-20.774   C152.129,57.161,139.524,44.555,124.041,44.555z M126.603,98.096c3.435,2.413,5.495,6.349,5.495,10.526   c0,7.092-5.774,12.865-12.865,12.865c-7.092,0-12.865-5.774-12.643-14.648c0.39-2.896-0.873-5.755-3.305-7.37   c-1.281-0.854-2.748-1.3-4.233-1.3c-1.318,0-2.636,0.353-3.824,1.04c-8.726,5.105-19.27-1.782-19.27-11.065   c0-7.092,5.774-12.865,12.865-12.865c3.546,0,6.869,1.448,9.338,4.084c2.209,2.358,5.644,2.599,8.54,1.281   c2.952-1.3,4.697-4.79,4.474-8.001c0-7.092,5.774-12.865,12.865-12.865c7.092,0,12.865,5.774,12.865,12.865   c0,5.365-3.435,10.211-8.558,12.067c-2.655,0.965-4.567,3.342-4.938,6.164C123.038,93.678,124.263,96.463,126.603,98.096z"></path><path d="M451.266,59.89c0-15.483-12.606-28.089-28.089-28.089c-11.585,0-21.554,7.055-25.842,17.098   c-2.97-1.058-6.126-1.615-9.394-1.615c-15.483,0-28.089,12.606-28.089,28.089c0,16.597,14.926,30.075,31.43,27.866   c3.249,11.919,14.165,20.7,27.086,20.7c15.483,0,28.089-12.606,28.089-28.089c0-5.458-1.597-10.712-4.493-15.186   C447.757,75.447,451.266,67.947,451.266,59.89z M425.739,85.324c3.435,2.413,5.495,6.349,5.495,10.526   c0,7.092-5.774,12.865-12.865,12.865s-12.865-5.774-12.661-14.666c0.39-2.896-0.891-5.755-3.323-7.37   c-1.262-0.854-2.748-1.281-4.214-1.281c-1.318,0-2.655,0.353-3.843,1.058c-8.614,4.975-19.252-1.782-19.252-11.083   c0-7.092,5.774-12.865,12.865-12.865c3.564,0,6.869,1.448,9.357,4.103c2.209,2.339,5.588,2.562,8.521,1.281   c2.952-1.281,4.715-4.79,4.493-8.001c0-7.092,5.774-12.865,12.865-12.865c7.092,0,12.865,5.774,12.865,12.865   c0,5.365-3.435,10.211-8.54,12.049c-2.673,0.947-4.586,3.323-4.957,6.145C422.174,80.905,423.4,83.69,425.739,85.324z"></path><path d="M124.041,222.425c-11.585,0-21.572,7.073-25.842,17.117c-2.97-1.058-6.126-1.615-9.375-1.615   c-15.483,0-28.089,12.606-28.089,28.089c0,16.597,14.889,30.149,31.412,27.866c3.249,11.919,14.165,20.7,27.086,20.7   c15.483,0,28.089-12.606,28.089-28.089c0-5.458-1.597-10.712-4.493-15.186c5.792-5.217,9.301-12.736,9.301-20.793   C152.129,235.031,139.524,222.425,124.041,222.425z M126.603,275.967c3.435,2.413,5.495,6.349,5.495,10.526   c0,7.092-5.774,12.865-12.865,12.865c-7.092,0-12.865-5.774-12.643-14.648c0.39-2.896-0.873-5.755-3.305-7.37   c-1.281-0.854-2.748-1.3-4.233-1.3c-1.318,0-2.636,0.353-3.824,1.04c-8.726,5.087-19.27-1.782-19.27-11.065   c0-7.092,5.774-12.865,12.865-12.865c3.546,0,6.869,1.448,9.338,4.084c2.209,2.376,5.644,2.599,8.54,1.281   c2.952-1.3,4.697-4.79,4.474-8.001c0-7.092,5.774-12.865,12.865-12.865c7.092,0,12.865,5.774,12.865,12.865   c0,5.365-3.435,10.229-8.54,12.067c-2.673,0.947-4.586,3.323-4.957,6.145C123.038,271.548,124.263,274.333,126.603,275.967z"></path></g></svg>