<svg height='100px' width='100px'  fill="#000000" xmlns="http://www.w3.org/2000/svg" xmlns:xlink="http://www.w3.org/1999/xlink" version="1.1" x="0px" y="0px" viewBox="0 0 100 100" enable-background="new 0 0 100 100" xml:space="preserve"><g><g><path fill="none" d="M18.205,88.639c8.614,1.402,17.449,2.236,26.321,2.486V55.476H22.303    C22.146,66.9,20.769,78.037,18.205,88.639z"></path><path fill="none" d="M22.089,44.526h22.437V8.877c-9.151,0.258-18.286,1.142-27.214,2.636    C19.92,22.523,21.524,33.61,22.089,44.526z"></path><path fill="none" d="M55.476,55.476v35.65c8.883-0.25,17.718-1.081,26.322-2.479c-2.565-10.604-3.942-21.744-4.099-33.171H55.476z    "></path><path fill="none" d="M55.476,44.526h22.437c0.565-10.915,2.168-21.999,4.775-33.005c-8.937-1.497-18.072-2.385-27.212-2.643    V44.526z"></path><path d="M81.514,53.557c-0.002-1.056-0.859-1.911-1.915-1.911H53.561c-1.057,0-1.915,0.857-1.915,1.915v39.524    c0,0.514,0.207,1.007,0.574,1.366C52.578,94.803,53.06,95,53.561,95c0.012,0,0.023,0,0.036,0    c10.435-0.193,20.828-1.175,30.889-2.921c0.527-0.092,0.992-0.399,1.281-0.848c0.29-0.449,0.379-0.999,0.245-1.517    C83.051,78.229,81.537,66.065,81.514,53.557z M55.476,91.125v-35.65h22.223c0.157,11.426,1.534,22.566,4.099,33.171    C73.194,90.044,64.359,90.876,55.476,91.125z"></path><path d="M86.637,8.94c-0.288-0.445-0.748-0.75-1.27-0.843c-10.405-1.856-21.094-2.898-31.77-3.095    C53.07,4.974,52.586,5.19,52.22,5.55c-0.367,0.36-0.574,0.853-0.574,1.366v39.524c0,1.057,0.857,1.915,1.915,1.915h26.18    c1.027,0,1.871-0.81,1.913-1.836c0.489-11.908,2.251-24.046,5.235-36.076C87.017,9.929,86.926,9.385,86.637,8.94z M77.913,44.526    H55.476V8.877c9.14,0.258,18.275,1.146,27.212,2.643C80.081,22.527,78.478,33.611,77.913,44.526z"></path><path d="M46.441,51.646H20.403c-1.056,0-1.913,0.855-1.915,1.911c-0.023,12.505-1.536,24.666-4.496,36.148    c-0.134,0.518-0.044,1.068,0.245,1.517c0.29,0.449,0.754,0.757,1.281,0.848c10.075,1.75,20.467,2.736,30.887,2.928    c0.012,0,0.024,0,0.036,0c0.501,0,0.983-0.197,1.341-0.548c0.367-0.36,0.574-0.853,0.574-1.366V53.561    C48.356,52.503,47.498,51.646,46.441,51.646z M44.526,91.124c-8.872-0.25-17.706-1.084-26.321-2.486    c2.564-10.602,3.941-21.739,4.098-33.163h22.223V91.124z"></path><path d="M46.406,5.002c-10.69,0.196-21.38,1.235-31.773,3.087c-0.522,0.093-0.982,0.398-1.27,0.842    c-0.288,0.445-0.38,0.989-0.252,1.503c2.985,12.033,4.747,24.174,5.237,36.084c0.043,1.026,0.886,1.836,1.913,1.836h26.18    c1.057,0,1.915-0.857,1.915-1.915V6.917c0-0.514-0.207-1.007-0.573-1.366C47.415,5.19,46.917,4.975,46.406,5.002z M44.526,44.526    H22.089c-0.565-10.916-2.169-22.003-4.777-33.013c8.928-1.494,18.063-2.379,27.214-2.636V44.526z"></path></g></g></svg>