<svg height='100px' width='100px'  fill="#000000" xmlns="http://www.w3.org/2000/svg" xmlns:xlink="http://www.w3.org/1999/xlink" version="1.1" x="0px" y="0px" viewBox="0 0 100 100" enable-background="new 0 0 100 100" xml:space="preserve"><g><rect x="35.9250488" y="18.8260498" width="24.6547241" height="2.4599609"></rect><rect x="35.9250488" y="26.1835938" width="20.1674194" height="2.4599609"></rect><path d="M80.6174316,56.4505615c-1.468811-1.630127-2.2789307-3.7300415-2.2789307-5.906189v-0.1431885h0.0064697   v-4.2211914h7.5166626c0.4780273,0,0.866394-0.3873901,0.866394-0.8664551v-6.0372314   c0-0.4785156-0.3878784-0.866394-0.866394-0.866394h-7.5166626v-5.210083c0-0.5388794-0.4369507-0.975769-0.9758301-0.975769   h-1.6817627c-0.5389404,0-0.975769,0.4368896-0.975769,0.975769v5.210083h-1.8619385V15.8504028   c0-0.055542,0.0450439-0.1005249,0.1005249-0.1005249h6.6787109l0.0022583-0.0043945h2.1566772v-3.7839355   c0-3.5028687-2.9515381-6.3526611-6.5795288-6.3526611h-39.15448c-4.78125,0-8.6711426,3.7557373-8.6711426,8.3721924v24.428833   H25.312561v-5.0664673c0-0.5389404-0.4368896-0.9758301-0.975769-0.9758301h-1.6817627   c-0.5389404,0-0.975769,0.4368896-0.975769,0.9758301v5.0664673h-3.0717773c-1.0467529,0-1.8953247-0.8485718-1.8953247-1.8953247   v-1.0518799c0-0.1912842-0.1550903-0.3463135-0.3463135-0.3463135H10.710144c-0.1912231,0-0.3462524,0.1550293-0.3462524,0.3462524   v13.6644897c0,0.1912231,0.1550293,0.3462524,0.3462524,0.3462524h5.6557007c0.1912231,0,0.3463135-0.1550293,0.3463135-0.3463135   v-1.0517578c0-1.0467529,0.8485718-1.8953247,1.8953247-1.8953247h3.0717773v2.0390625H21.661499v2.3253174   c0,2.1761475-0.8101196,4.276062-2.2789307,5.906189L2.267395,75.4390869   C1.6528931,76.1220703,1.3125,77.0018311,1.3125,77.9124756v12.7463379c0,2.0612183,1.703125,3.7322998,3.8029785,3.7322998   h89.769043c2.0998535,0,3.8029785-1.6710815,3.8029785-3.7322998V77.9124756c0-0.9106445-0.3403931-1.7904053-0.954895-2.4733887   L80.6174316,56.4505615z M27.3826904,48.9425049H25.312561v-2.7625122h2.0701294V48.9425049z M30.9567871,46.1799927h7.2648315   v2.7625122h-7.2648315V46.1799927z M31.0767212,64.3328857h4.8894043V69.22229h-4.8894043V64.3328857z M35.1206665,73.2839355   h4.8894043v4.8894043h-4.8894043V73.2839355z M56.5958862,73.2839355v4.8894043h-4.8894653v-4.8894043H56.5958862z    M55.7525635,69.22229v-4.8894043h4.8894653V69.22229H55.7525635z M52.5508423,69.22229h-4.8883057v-4.8894043h4.8883057V69.22229z    M48.2161865,73.2839355v4.8894043h-4.8894043v-4.8894043H48.2161865z M44.1722412,69.22229h-4.8893433v-4.8894043h4.8893433   V69.22229z M63.2900391,86.8823242H36.7099609v-4.1975708h26.5800781V86.8823242z M64.8793335,78.1733398h-4.8894043v-4.8894043   h4.8894043V78.1733398z M68.9232788,69.22229h-4.8894043v-4.8894043h4.8894043V69.22229z M69.1248169,48.9425049h-7.2797852   v-2.7625122h7.2797852V48.9425049z M70.2996216,9.2141113c-0.7520142,1.1657715-1.1748047,2.5217896-1.1748047,3.9480591   v25.2477417H30.9567871v-24.428833c0-2.713623,2.286499-4.9213257,5.0970459-4.9213257h34.1611938   C70.2943115,9.0597534,70.3426514,9.1474609,70.2996216,9.2141113z M74.7116089,48.9425049h-1.8619385v-2.7625122h1.8619385   V48.9425049z"></path></g></svg>