<svg height='100px' width='100px'  fill="#000000" xmlns="http://www.w3.org/2000/svg" xmlns:xlink="http://www.w3.org/1999/xlink" version="1.1" x="0px" y="0px" viewBox="0 0 512 512" style="enable-background:new 0 0 512 512;" xml:space="preserve"><g><g><g><g><path d="M362.903,500H150c-5.523,0-10-4.478-10-10v-50c0-5.522,4.477-10,10-10h212.903c5.522,0,10,4.478,10,10v50      C372.903,495.522,368.426,500,362.903,500z M160,480h192.903v-30H160V480z"></path></g><g><path d="M312.427,260h-84.853c-4.044,0-7.691-2.437-9.239-6.173c-1.548-3.736-0.692-8.038,2.167-10.898l140.605-140.604      c-3.977-22.383,3.192-45.619,19.395-61.821C393.724,27.281,411.302,20,430,20s36.276,7.281,49.498,20.503      c27.292,27.292,27.292,71.702,0,98.994c-13.212,13.212-30.783,20.489-49.474,20.489c-0.002,0-0.002,0-0.003,0      c-4.145,0-8.278-0.366-12.348-1.091l-98.176,98.177C317.622,258.946,315.079,260,312.427,260z M251.716,240h56.568      l99.121-99.122c2.524-2.522,6.199-3.511,9.649-2.591c4.222,1.127,8.585,1.698,12.968,1.698c13.35,0,25.898-5.195,35.333-14.63      c19.495-19.495,19.495-51.216,0-70.711C455.912,45.201,443.355,40,430,40s-25.912,5.201-35.355,14.645      c-12.572,12.572-17.527,31.08-12.932,48.3c0.92,3.448-0.067,7.125-2.591,9.649L251.716,240z"></path></g><g><path d="M366.452,450.668c-1.226,0-2.444-0.225-3.595-0.668H157.142c-2.301,0.889-4.881,0.901-7.23-0.017      C75.948,421.112,30,365.559,30,305v-55c0-5.523,4.477-10,10-10h440c5.522,0,10,4.477,10,10v55      c0,60.559-45.948,116.112-119.913,144.983C368.912,450.442,367.679,450.668,366.452,450.668z M153.793,430h212.413      C430.331,403.879,470,356.233,470,305v-45H50v45C50,356.233,89.669,403.878,153.793,430z"></path></g><g><path d="M270.02,130c-0.005,0-0.013,0-0.02,0h-20c-55.14,0-100-44.86-100-100c0-5.523,4.477-10,10-10h20      c54.915,0,99.633,44.498,99.998,99.328c0.015,0.222,0.021,0.446,0.021,0.672C280.02,125.523,275.543,130,270.02,130z       M170.622,40c4.938,39.409,38.653,70,79.378,70h9.378C254.441,70.591,220.725,40,180,40H170.622z"></path></g><g><path d="M113.64,220c-26.711,0-51.823-10.402-70.711-29.289C41.054,188.835,40,186.292,40,183.64s1.054-5.196,2.929-7.071      l14.143-14.142c18.887-18.887,44-29.289,70.71-29.289s51.823,10.402,70.711,29.289c3.905,3.905,3.905,10.237,0,14.143      l-14.142,14.142C165.463,209.598,140.351,220,113.64,220z M64.577,183.205C78.549,194.096,95.641,200,113.64,200      c21.369,0,41.458-8.322,56.569-23.432l6.636-6.636c-13.972-10.891-31.064-16.795-49.063-16.795      c-21.369,0-41.458,8.321-56.568,23.432L64.577,183.205z"></path></g><g><path d="M350,320H40c-5.523,0-10-4.478-10-10s4.477-10,10-10h310c5.522,0,10,4.478,10,10S355.522,320,350,320z"></path></g></g></g></g></svg>