<?xml version="1.0" encoding="utf-8"?>
<!-- Generator: Adobe Illustrator 24.2.1, SVG Export Plug-In . SVG Version: 6.00 Build 0)  -->
<svg version="1.1" id="Layer_1" xmlns="http://www.w3.org/2000/svg" xmlns:xlink="http://www.w3.org/1999/xlink" x="0px" y="0px"
	 viewBox="0 0 100 100" enable-background="new 0 0 100 100" xml:space="preserve">
<polygon points="56.4,30.7 62,30.7 62,32.6 56.4,32.6 56.4,34.4 63.8,34.4 63.8,28.9 56.4,28.9 "/>
<path d="M43.6,25.2h-5.2C39.6,19.9,44.5,16,50,16s10.4,3.9,11.6,9.2h-5.2V27h7.3l-0.1-1c-1-6.7-6.8-11.8-13.6-11.8
	S37.4,19.3,36.4,26l-0.1,1h7.3C43.6,27,43.6,25.2,43.6,25.2z"/>
<polygon points="43.6,32.6 38,32.6 38,30.7 43.6,30.7 43.6,28.9 36.2,28.9 36.2,34.4 43.6,34.4 "/>
<polygon points="56.4,39.9 56.4,41.7 63.8,41.7 63.8,36.2 56.4,36.2 56.4,38 62,38 62,39.9 "/>
<polygon points="63.8,43.6 56.4,43.6 56.4,45.4 62,45.4 62,48.9 69.3,48.9 69.3,46.3 67.5,46.3 67.5,47.1 63.8,47.1 "/>
<path d="M36.2,51.3v0.6c0,7.6,6.2,13.8,13.8,13.8s13.8-6.2,13.8-13.8v-0.6H62v0.6c0,6.6-5.4,12-12,12s-12-5.4-12-12v-0.6H36.2z"/>
<path d="M47.3,80.3H37.1v1.8H49V73l-0.8-0.1C37.4,72,28.9,62.7,28.9,51.8v-5.5h-1.8v5.5c0,5.8,2.2,11.3,6.1,15.6
	c3.7,4,8.7,6.6,14.1,7.2C47.3,74.6,47.3,80.3,47.3,80.3z"/>
<rect x="37.1" y="84" width="25.7" height="1.8"/>
<polygon points="43.6,39.9 38,39.9 38,38 43.6,38 43.6,36.2 36.2,36.2 36.2,41.7 43.6,41.7 "/>
<path d="M71.1,46.3v5.5c0,10.9-8.5,20.2-19.4,21.1L50.9,73v9.2h11.9v-1.8H52.7v-5.7c5.4-0.6,10.4-3.2,14.1-7.2
	c3.9-4.3,6.1-9.8,6.1-15.6v-5.5h-1.8V46.3z"/>
<path d="M50,71.1c10.6,0,19.3-8.6,19.3-19.3v-0.6h-1.8v0.6c0,9.6-7.8,17.5-17.5,17.5s-17.5-7.8-17.5-17.5v-0.6h-1.8v0.6
	C30.7,62.5,39.4,71.1,50,71.1z"/>
<polygon points="38,45.4 43.6,45.4 43.6,43.6 36.2,43.6 36.2,47.1 32.5,47.1 32.5,46.3 30.7,46.3 30.7,48.9 38,48.9 "/>
</svg>
