<svg height='100px' width='100px'  fill="#000000" xmlns="http://www.w3.org/2000/svg" xmlns:xlink="http://www.w3.org/1999/xlink" version="1.1" x="0px" y="0px" viewBox="0 0 50 50" enable-background="new 0 0 50 50" xml:space="preserve"><g><path fill-rule="evenodd" clip-rule="evenodd" d="M37.517,26.665h2.841v13.187h-2.841V26.665z M30.589,26.665h2.84v13.187h-2.84   V26.665z M23.58,26.665h2.84v13.187h-2.84V26.665z M16.732,26.665h2.841v13.187h-2.841V26.665z M9.885,26.665h2.841v13.187H9.885   V26.665z M29.832,18.013v2.841H50v-2.841H29.832z M38.709,11.415c0,2.856,2.315,5.172,5.172,5.172c2.857,0,5.173-2.316,5.173-5.172   c0-2.857-2.316-5.173-5.173-5.173C41.025,6.243,38.709,8.559,38.709,11.415z M25.849,13.698c0.808-1.513,1.604-3.004,1.604-7.935   h-2.84c0,4.244-0.626,5.415-1.259,6.604c-0.827,1.551-1.669,3.126-1.669,8.486h2.841C24.525,16.181,25.192,14.93,25.849,13.698z    M17.219,13.698c0.807-1.513,1.604-3.004,1.604-7.935h-2.84c0,4.244-0.626,5.415-1.259,6.604c-0.828,1.551-1.669,3.127-1.669,8.486   h2.841C15.895,16.18,16.562,14.929,17.219,13.698z M8.589,13.698c0.807-1.513,1.603-3.004,1.603-7.935H7.351   c0,4.244-0.626,5.415-1.259,6.604c-0.828,1.551-1.668,3.127-1.668,8.486h2.841C7.264,16.18,7.932,14.929,8.589,13.698z    M1.232,25.12v16.276H0v2.841h50v-2.841h-1.232V25.12H50v-2.84H0v2.84H1.232z"></path></g></svg>