<svg height='100px' width='100px'  fill="#000000" xmlns="http://www.w3.org/2000/svg" xmlns:xlink="http://www.w3.org/1999/xlink" version="1.1" x="0px" y="0px" viewBox="0 0 128 128" style="enable-background:new 0 0 128 128;" xml:space="preserve"><style type="text/css">
	.st0{display:none;}
	.st1{display:inline;}
	.st2{fill:none;stroke:#000000;stroke-width:0.1;stroke-miterlimit:10;}
</style><g class="st0"><g class="st1"><rect class="st2" width="128" height="128"></rect><line class="st2" x1="0" y1="124" x2="128" y2="124"></line><line class="st2" x1="0" y1="120" x2="128" y2="120"></line><line class="st2" x1="0" y1="116" x2="128" y2="116"></line><line class="st2" x1="0" y1="112" x2="128" y2="112"></line><line class="st2" x1="0" y1="108" x2="128" y2="108"></line><line class="st2" x1="0" y1="104" x2="128" y2="104"></line><line class="st2" x1="0" y1="100" x2="128" y2="100"></line><line class="st2" x1="0" y1="96" x2="128" y2="96"></line><line class="st2" x1="0" y1="92" x2="128" y2="92"></line><line class="st2" x1="0" y1="88" x2="128" y2="88"></line><line class="st2" x1="0" y1="84" x2="128" y2="84"></line><line class="st2" x1="0" y1="80" x2="128" y2="80"></line><line class="st2" x1="0" y1="76" x2="128" y2="76"></line><line class="st2" x1="0" y1="72" x2="128" y2="72"></line><line class="st2" x1="0" y1="68" x2="128" y2="68"></line><line class="st2" x1="0" y1="64" x2="128" y2="64"></line><line class="st2" x1="0" y1="60" x2="128" y2="60"></line><line class="st2" x1="0" y1="56" x2="128" y2="56"></line><line class="st2" x1="0" y1="52" x2="128" y2="52"></line><line class="st2" x1="0" y1="48" x2="128" y2="48"></line><line class="st2" x1="0" y1="44" x2="128" y2="44"></line><line class="st2" x1="0" y1="40" x2="128" y2="40"></line><line class="st2" x1="0" y1="36" x2="128" y2="36"></line><line class="st2" x1="0" y1="32" x2="128" y2="32"></line><line class="st2" x1="0" y1="28" x2="128" y2="28"></line><line class="st2" x1="0" y1="24" x2="128" y2="24"></line><line class="st2" x1="0" y1="20" x2="128" y2="20"></line><line class="st2" x1="0" y1="16" x2="128" y2="16"></line><line class="st2" x1="0" y1="12" x2="128" y2="12"></line><line class="st2" x1="0" y1="8" x2="128" y2="8"></line><line class="st2" x1="0" y1="4" x2="128" y2="4"></line><line class="st2" x1="124" y1="0" x2="124" y2="128"></line><line class="st2" x1="120" y1="0" x2="120" y2="128"></line><line class="st2" x1="116" y1="0" x2="116" y2="128"></line><line class="st2" x1="112" y1="0" x2="112" y2="128"></line><line class="st2" x1="108" y1="0" x2="108" y2="128"></line><line class="st2" x1="104" y1="0" x2="104" y2="128"></line><line class="st2" x1="100" y1="0" x2="100" y2="128"></line><line class="st2" x1="96" y1="0" x2="96" y2="128"></line><line class="st2" x1="92" y1="0" x2="92" y2="128"></line><line class="st2" x1="88" y1="0" x2="88" y2="128"></line><line class="st2" x1="84" y1="0" x2="84" y2="128"></line><line class="st2" x1="80" y1="0" x2="80" y2="128"></line><line class="st2" x1="76" y1="0" x2="76" y2="128"></line><line class="st2" x1="72" y1="0" x2="72" y2="128"></line><line class="st2" x1="68" y1="0" x2="68" y2="128"></line><line class="st2" x1="64" y1="0" x2="64" y2="128"></line><line class="st2" x1="60" y1="0" x2="60" y2="128"></line><line class="st2" x1="56" y1="0" x2="56" y2="128"></line><line class="st2" x1="52" y1="0" x2="52" y2="128"></line><line class="st2" x1="48" y1="0" x2="48" y2="128"></line><line class="st2" x1="44" y1="0" x2="44" y2="128"></line><line class="st2" x1="40" y1="0" x2="40" y2="128"></line><line class="st2" x1="36" y1="0" x2="36" y2="128"></line><line class="st2" x1="32" y1="0" x2="32" y2="128"></line><line class="st2" x1="28" y1="0" x2="28" y2="128"></line><line class="st2" x1="24" y1="0" x2="24" y2="128"></line><line class="st2" x1="20" y1="0" x2="20" y2="128"></line><line class="st2" x1="16" y1="0" x2="16" y2="128"></line><line class="st2" x1="12" y1="0" x2="12" y2="128"></line><line class="st2" x1="8" y1="0" x2="8" y2="128"></line><line class="st2" x1="4" y1="0" x2="4" y2="128"></line></g></g><g><g><path d="M7,36.6l8,3.6c1.5,0.7,2.3,2.2,2.1,3.8l-0.8,4.8c-1.3,0.4-2.7,0.7-4,1.1l-1.7,0.5l-0.1,1.8c-0.7,10.1-1,20.3-1.1,30.4    c-0.1,12.8,0.3,25.7,1.1,38.5l0.2,2.3h108.5V40.2l-2.3-0.2c-17.9-1.6-36.1-1.6-54,0.2c-0.7,0.1-1.4,0.2-2,0.2l-2.3-4    c-0.8-1.4-0.6-3.2,0.6-4.3l6.2-6.2l-8-3.6c-1.5-0.7-2.3-2.2-2.1-3.8l1.4-8.7L48,11.6c-1.6,0.3-3.2-0.4-3.9-1.9l-4-7.9l-5.9,6.5    c-1.1,1.2-2.8,1.5-4.3,0.8l-7.9-4L21.1,14c-0.2,1.6-1.4,2.9-3,3.1l-8.7,1.4l4.4,7.7c0.8,1.4,0.6,3.2-0.6,4.3L7,36.6z M15.4,54.2    c8.9-2.5,17.9-4.5,27-6.1c-8.3,6.2-15.4,13.8-21,22.4c-2.7,4.2-5.1,8.7-7.1,13.3c0-0.4,0-0.8,0-1.3C14.5,73.1,14.8,63.6,15.4,54.2    z M70.3,89.6C77.1,65.8,93,51,102.2,44.1c2.7,0.1,5.4,0.3,8.2,0.5c-8.8,13.3-14.7,28.5-16.9,44c-1.4,9.9-1.5,19.9-0.2,29.8H67.5    C66.8,108.5,67.7,98.9,70.3,89.6z M98.3,118.3c-1.4-9.7-1.4-19.5,0.1-29.1c2.1-14.6,7.6-28.8,15.8-41.4v70.4H98.3z M94.5,43.9    c-9.8,8.4-22.9,22.9-29,44.3c-2.8,9.7-3.8,19.9-3.1,30.1H38.6c0-10.8,2.1-25.9,10.6-41.6c9.1-16.8,21.8-27,30.9-32.6    C84.9,43.9,89.7,43.8,94.5,43.9z M63.4,45.2c2.4-0.2,4.8-0.4,7.2-0.6C62.1,51,52.3,60.5,44.9,74.3c-9,16.6-11.2,32.6-11.3,44H15.4    c-0.4-6.3-0.7-12.6-0.8-18.9c2.2-9.4,5.9-18.2,11.1-26.2c7.1-11,17-20.3,28.6-27l0,0C57.3,45.9,60.3,45.5,63.4,45.2z M16.8,33.9    c2.7-2.7,3.3-7,1.4-10.3l-0.8-1.3l1.5-0.2c3.8-0.6,6.8-3.7,7.2-7.5l0.2-1.5l1.4,0.7c3.4,1.8,7.6,1,10.2-1.9l1-1.2l0.7,1.4    c1.7,3.4,5.6,5.3,9.4,4.5l1.5-0.3l-0.2,1.5c-0.6,3.8,1.4,7.6,4.9,9.2l1.4,0.6l-1.1,1.1c-2.7,2.7-3.3,7-1.4,10.3l1.2,2.1    c-11.4,1.4-22.7,3.6-33.8,6.3l0.4-2.6c0.6-3.8-1.4-7.6-4.9-9.2L15.7,35L16.8,33.9z"></path><path d="M35.6,43.8c0.2,0,0.4,0,0.6,0c6.9-0.3,12.2-6.2,11.9-13.1v0c-0.3-6.9-6.2-12.2-13.1-11.9c-6.9,0.3-12.2,6.2-11.9,13.1    C23.4,38.6,29,43.8,35.6,43.8z M35.2,23.9c0.1,0,0.3,0,0.4,0c4,0,7.3,3.1,7.5,7.1c0.2,4.1-3,7.7-7.1,7.9c-4.1,0.2-7.7-3-7.9-7.1    C27.9,27.6,31.1,24.1,35.2,23.9z"></path></g></g></svg>