<?xml version="1.0" encoding="utf-8"?>
<!-- Generator: Adobe Illustrator 24.2.1, SVG Export Plug-In . SVG Version: 6.00 Build 0)  -->
<svg version="1.1" id="Layer_1" xmlns="http://www.w3.org/2000/svg" xmlns:xlink="http://www.w3.org/1999/xlink" x="0px" y="0px"
	 viewBox="0 0 100 100" enable-background="new 0 0 100 100" xml:space="preserve">
<g display="none">
	<g display="inline">
		
			<rect x="3.125" y="3.125" fill="none" stroke="#000000" stroke-width="0.1563" stroke-miterlimit="15.625" width="93.75" height="93.75"/>
		<line fill="none" stroke="#000000" stroke-width="0.1563" stroke-miterlimit="15.625" x1="50" y1="3.125" x2="50" y2="96.875"/>
		<line fill="none" stroke="#000000" stroke-width="0.1563" stroke-miterlimit="15.625" x1="96.875" y1="50" x2="3.125" y2="50"/>
		
			<line fill="none" stroke="#000000" stroke-width="0.1563" stroke-miterlimit="15.625" x1="3.125" y1="3.125" x2="96.875" y2="96.875"/>
		
			<rect x="15.625" y="15.625" fill="none" stroke="#000000" stroke-width="0.1563" stroke-miterlimit="15.625" width="68.75" height="68.75"/>
		
			<line fill="none" stroke="#000000" stroke-width="0.1563" stroke-miterlimit="15.625" x1="96.875" y1="3.125" x2="3.125" y2="96.875"/>
		<line fill="none" stroke="#000000" stroke-width="0.1563" stroke-miterlimit="15.625" x1="3.125" y1="50" x2="50" y2="3.125"/>
		<line fill="none" stroke="#000000" stroke-width="0.1563" stroke-miterlimit="15.625" x1="50" y1="3.125" x2="96.875" y2="50"/>
		<line fill="none" stroke="#000000" stroke-width="0.1563" stroke-miterlimit="15.625" x1="96.875" y1="50" x2="50" y2="96.875"/>
		<line fill="none" stroke="#000000" stroke-width="0.1563" stroke-miterlimit="15.625" x1="50" y1="96.875" x2="3.125" y2="50"/>
		<circle fill="none" stroke="#000000" stroke-width="0.1563" stroke-miterlimit="15.625" cx="50" cy="50" r="32.813"/>
	</g>
</g>
<path d="M60.938,84.375h25V68.75h-25V84.375z M64.063,71.875h18.75v9.375h-18.75V71.875z"/>
<path d="M91.875,32.813h-6.25C80.313,15.625,64.219,3.125,45.313,3.125c-23.281,0-42.188,18.906-42.188,42.188
	c0,20,14.063,36.875,32.813,41.094v10.469h56.25V65c2.813-1.25,4.688-3.906,4.688-7.188v-1.719L91.875,32.813z M93.438,54.688h-1.25
	h-7.969l-2.656-18.75h7.813L93.438,54.688z M82.344,32.813H68.125c-0.625-3.75-1.406-7.344-2.5-10.625
	c2.969-0.781,5.781-1.875,8.75-2.969C77.813,23.125,80.469,27.656,82.344,32.813z M81.25,57.813c0,2.656-2.031,4.688-4.688,4.688
	s-4.688-2.031-4.688-4.688H81.25z M71.719,54.688l-1.406-18.75h7.969l2.656,18.75H71.719z M67.188,35.938l1.406,18.75h-9.219
	l1.406-18.75H67.188z M68.75,57.813c0,2.656-2.031,4.688-4.688,4.688s-4.688-2.031-4.688-4.688H68.75z M71.875,16.719
	c-2.5,0.938-5,1.719-7.344,2.5c-1.875-4.375-4.219-8.125-7.031-10.938C62.813,10,67.813,12.969,71.875,16.719z M46.875,6.406
	C53.281,7.188,58.125,12.5,61.406,20c-4.844,1.094-9.688,1.719-14.531,1.875V6.406z M62.5,22.969c1.094,3.125,1.875,6.406,2.5,9.844
	H46.875V25C52.031,24.844,57.344,24.219,62.5,22.969z M35.938,66.25c-2.5,0.313-5,0.781-7.5,1.406
	C26.406,61.563,25.156,54.219,25,46.875h8.281l-2.031,9.219v1.719c0,3.125,1.875,5.938,4.688,7.188V66.25z M43.75,32.813h-7.5
	L33.906,43.75H25c0.156-7.344,1.25-14.531,3.438-20.781C33.594,24.219,38.75,24.844,43.75,25V32.813z M34.375,57.813h9.375
	c0,2.656-2.031,4.688-4.688,4.688S34.375,60.469,34.375,57.813z M35.938,54.688h-1.25l4.063-18.75h7.813l-2.656,18.75H35.938z
	 M56.25,57.813c0,2.656-2.031,4.688-4.688,4.688s-4.688-2.031-4.688-4.688H56.25z M47.188,54.688l2.656-18.75h7.969l-1.406,18.75
	H47.188z M43.75,6.406v15.469c-4.688-0.156-9.531-0.625-14.219-1.719C32.656,12.5,37.344,7.188,43.75,6.406z M33.438,8.125
	c-2.344,2.188-4.219,5-5.938,8.594c-0.313,0.781-0.781,1.719-1.094,2.5c-2.5-0.625-5.156-1.563-7.656-2.5
	C22.969,12.813,27.969,9.844,33.438,8.125z M16.406,19.219c2.969,1.25,5.938,2.188,8.906,3.125
	c-2.031,6.25-3.281,13.75-3.438,21.563H6.25C6.719,34.375,10.469,25.781,16.406,19.219z M6.25,46.875h15.625
	c0.156,7.5,1.25,15,3.438,21.563c-2.969,0.781-5.938,1.875-9.063,3.125C10.469,64.844,6.719,56.25,6.25,46.875z M18.75,73.906
	c2.5-0.938,5.156-1.875,7.656-2.5c1.875,4.531,4.219,8.281,7.031,11.094C27.969,80.781,22.969,77.813,18.75,73.906z M29.531,70.625
	c2.187-0.469,4.219-0.938,6.406-1.25v10.938C33.438,78.125,31.25,74.688,29.531,70.625z M54.688,93.75h-9.375V71.875h9.375V93.75z
	 M89.063,93.75h-31.25v-25H42.188v25h-3.125V65.625c2.5,0,4.844-1.25,6.25-3.125c1.406,1.875,3.75,3.125,6.25,3.125
	c2.5,0,4.844-1.25,6.25-3.125c1.406,1.875,3.75,3.125,6.25,3.125c2.5,0,4.844-1.25,6.25-3.125c1.406,1.875,3.75,3.125,6.25,3.125
	s4.844-1.25,6.25-3.125c1.406,1.875,3.75,3.125,6.25,3.125V93.75z M89.063,62.5c-2.656,0-4.688-2.031-4.688-4.688h9.375
	C93.75,60.469,91.719,62.5,89.063,62.5z"/>
</svg>
