<svg height='100px' width='100px'  fill="#000000" xmlns="http://www.w3.org/2000/svg" xmlns:xlink="http://www.w3.org/1999/xlink" version="1.1" x="0px" y="0px" viewBox="0 0 80 80" enable-background="new 0 0 80 80" xml:space="preserve"><circle cx="40" cy="40" r="18"></circle><path d="M39.7,60.5c0,0-0.1,0-0.2,0.1c-0.2,0.1-0.4,0.1-0.7,0.3c-0.1,0.1-0.3,0.2-0.4,0.3c-0.1,0.1-0.3,0.2-0.4,0.4  c-0.1,0.1-0.2,0.3-0.4,0.5c-0.1,0.2-0.2,0.4-0.3,0.6c-0.1,0.4-0.3,0.8-0.2,1.3l0,0.2l0,0.1v0c0,0.1,0-0.1,0-0.1l0,0l0,0l0,0  c0,0.2,0.1,0.3,0.1,0.5c0,0.1,0,0.2,0.1,0.2c0,0,0.1,0.1,0.1,0.1c0.1,0.1,0.1,0.2,0.1,0.2c0.2,0.4,0.6,0.7,1,1  c0.4,0.2,0.8,0.3,1.3,0.4l0.2,0l0,0l0.1,0l0.1,0l0.3,0l0.1,0l0.1,0l0.1,0l0.4,0.1c0.6,0.1,1,0.4,1.4,0.7c0.8,0.6,1.4,1.3,1.7,2.2  c0.3,0.8,0.4,1.7,0.2,2.5c0,0.3-0.2,0.7-0.4,1.1c-0.1,0.2-0.2,0.3-0.3,0.5c-0.1,0.1-0.2,0.3-0.3,0.4c-0.2,0.2-0.5,0.5-0.7,0.6  c-0.3,0.1-0.5,0.3-0.7,0.4c-0.2,0.1-0.5,0.2-0.7,0.2c-0.2,0-0.4,0-0.6,0.1c-0.1,0-0.2,0-0.2,0c-0.1,0-0.1,0-0.2,0  c-0.1,0-0.2,0-0.3-0.1c-0.2,0-0.3-0.1-0.3-0.1s0.1,0,0.3-0.1c0.2-0.1,0.4-0.1,0.7-0.3c0.1-0.1,0.3-0.2,0.4-0.3  c0.1-0.1,0.3-0.2,0.4-0.4c0.1-0.1,0.2-0.3,0.4-0.5c0.1-0.2,0.2-0.4,0.3-0.6c0-0.2,0.2-0.4,0.2-0.6c0-0.2,0.1-0.3,0-0.7  c0-0.5-0.2-0.9-0.4-1.3c-0.2-0.4-0.6-0.7-1-1c-0.2-0.1-0.4-0.2-0.6-0.2c0,0-0.1,0-0.1,0l0,0l-0.1,0l-0.1,0l-0.3,0l-0.1,0l-0.1,0l0,0  l0,0l0,0c0.1,0-0.1,0,0.1,0c-1,0-2-0.3-2.8-0.9c-0.8-0.6-1.4-1.3-1.7-2.2c-0.1-0.2-0.1-0.5-0.2-0.7L35,65c0-0.1,0-0.2,0-0.3  c0-0.2,0-0.3,0-0.5l0-0.2l0-0.1l0-0.2l0.1-0.3c0.1-0.8,0.5-1.4,0.9-1.9c0.2-0.2,0.5-0.5,0.7-0.6c0.3-0.1,0.5-0.3,0.7-0.4  c0.2-0.1,0.5-0.2,0.7-0.2c0.2,0,0.4-0.1,0.6-0.1c0.1,0,0.2,0,0.2,0c0.1,0,0.1,0,0.2,0c0.1,0,0.2,0,0.3,0.1  C39.6,60.4,39.7,60.5,39.7,60.5z"></path><path d="M50,57.9c0,0-0.1,0.1-0.2,0.2c-0.1,0.1-0.3,0.3-0.4,0.6c-0.1,0.1-0.1,0.3-0.2,0.4c0,0.2-0.1,0.3-0.2,0.5  c0,0.2-0.1,0.4-0.1,0.6c0,0.2,0,0.4,0,0.6c0.1,0.4,0.2,0.9,0.5,1.2l0.1,0.1l0,0.1l0,0c0.1,0.1-0.1-0.1-0.1-0.1l0,0l0,0l0,0  c0.1,0.1,0.2,0.2,0.3,0.4c0.1,0.1,0.1,0.1,0.2,0.2c0,0,0.1,0,0.1,0.1c0.1,0,0.1,0.1,0.2,0.1c0.4,0.2,0.9,0.3,1.3,0.4  c0.5,0,0.9-0.1,1.3-0.3l0.2-0.1l0,0l0.1,0l0.1-0.1l0.2-0.1l0.1-0.1l0.1,0l0.1,0l0.4-0.1c0.6-0.2,1-0.1,1.5-0.1c1,0.1,1.9,0.5,2.6,1  c0.7,0.6,1.2,1.3,1.4,2.1c0.1,0.2,0.2,0.7,0.2,1.1c0,0.2,0,0.4,0,0.6c0,0.2,0,0.3-0.1,0.5c-0.1,0.3-0.2,0.6-0.3,0.9  c-0.1,0.3-0.3,0.5-0.4,0.7c-0.2,0.2-0.3,0.4-0.5,0.5c-0.2,0.1-0.3,0.2-0.5,0.3c-0.1,0-0.1,0.1-0.2,0.1c-0.1,0-0.1,0.1-0.2,0.1  c-0.1,0-0.2,0.1-0.3,0.1c-0.2,0.1-0.3,0.1-0.3,0.1s0.1-0.1,0.2-0.2c0.1-0.1,0.3-0.3,0.4-0.6c0.1-0.1,0.2-0.3,0.2-0.4  c0-0.2,0.1-0.3,0.2-0.5c0-0.2,0.1-0.4,0.1-0.6c0-0.2,0-0.4,0-0.6c-0.1-0.2-0.1-0.5-0.2-0.6c-0.1-0.2-0.1-0.3-0.3-0.6  c-0.2-0.4-0.6-0.7-1-1c-0.4-0.2-0.9-0.3-1.3-0.4c-0.2,0-0.5,0-0.6,0.1c0,0-0.1,0-0.1,0l0,0l-0.1,0l-0.1,0.1l-0.2,0.1l-0.1,0.1  l-0.1,0l0,0l0,0l0,0c0.1,0-0.1,0.1,0.1-0.1c-0.9,0.5-1.9,0.7-2.8,0.6c-1-0.1-1.9-0.5-2.6-1c-0.2-0.1-0.4-0.3-0.5-0.5l-0.2-0.3  C48.1,64.1,48.1,64,48,64c-0.1-0.1-0.2-0.3-0.2-0.4l-0.1-0.1l0-0.1l-0.1-0.1l-0.1-0.3c-0.3-0.7-0.3-1.5-0.2-2.2  c0.1-0.3,0.2-0.6,0.3-0.9c0.1-0.3,0.3-0.5,0.4-0.7c0.2-0.2,0.3-0.4,0.5-0.5c0.2-0.1,0.3-0.3,0.5-0.4c0.1,0,0.1-0.1,0.2-0.1  c0.1,0,0.1-0.1,0.2-0.1c0.1,0,0.2-0.1,0.3-0.1C49.9,57.9,50,57.9,50,57.9z"></path><path d="M57.6,50.5c0,0,0,0.1,0,0.3c0,0.2-0.1,0.4-0.1,0.7c0,0.1,0,0.3,0,0.5c0,0.2,0.1,0.4,0.1,0.5c0.1,0.2,0.1,0.4,0.2,0.6  c0.1,0.2,0.2,0.4,0.3,0.5c0.3,0.3,0.6,0.7,1,0.8l0.2,0.1l0.1,0l0,0c0.1,0-0.1-0.1-0.1,0l0,0l0,0l0,0c0.2,0.1,0.3,0.1,0.5,0.2  c0.1,0,0.2,0.1,0.2,0.1c0,0,0.1,0,0.1,0c0.1,0,0.2,0,0.3,0c0.5,0,0.9-0.1,1.3-0.3c0.4-0.2,0.7-0.6,1-1l0.1-0.1l0,0l0-0.1l0.1-0.1  l0.2-0.2l0.1-0.1l0-0.1l0.1-0.1l0.3-0.3c0.4-0.4,0.8-0.6,1.3-0.9c0.9-0.4,1.8-0.5,2.7-0.4c0.9,0.2,1.7,0.5,2.3,1.1  c0.2,0.2,0.5,0.5,0.7,0.8c0.1,0.2,0.2,0.3,0.3,0.5c0.1,0.2,0.1,0.3,0.2,0.5c0.1,0.3,0.2,0.6,0.2,0.9c0,0.3,0,0.6,0,0.8  c-0.1,0.3-0.1,0.5-0.1,0.7c-0.1,0.2-0.2,0.4-0.2,0.5c0,0.1-0.1,0.1-0.1,0.2c0,0.1-0.1,0.1-0.1,0.2c-0.1,0.1-0.2,0.2-0.2,0.3  c-0.1,0.1-0.2,0.2-0.2,0.2s0-0.1,0-0.3c0-0.2,0.1-0.4,0.1-0.7c0-0.2,0-0.3,0-0.5c0-0.2-0.1-0.4-0.1-0.5c-0.1-0.2-0.1-0.4-0.2-0.6  c-0.1-0.2-0.2-0.4-0.3-0.5c-0.2-0.1-0.3-0.4-0.4-0.5c-0.2-0.1-0.2-0.2-0.6-0.4c-0.4-0.3-0.9-0.3-1.3-0.3c-0.5,0-0.9,0.1-1.3,0.3  c-0.2,0.1-0.4,0.3-0.5,0.4c0,0-0.1,0-0.1,0.1l0,0l0,0.1l-0.1,0.1l-0.2,0.2l-0.1,0.1l0,0.1l0,0l0,0l0,0c0,0-0.1,0.1,0.1-0.1  c-0.5,0.8-1.3,1.5-2.1,1.9c-0.9,0.4-1.8,0.5-2.7,0.4c-0.2,0-0.5-0.1-0.7-0.2l-0.3-0.1c-0.1,0-0.2-0.1-0.2-0.1  c-0.1-0.1-0.3-0.2-0.4-0.2l-0.1-0.1l-0.1,0l-0.1-0.1L58,56.1c-0.6-0.5-1-1.2-1.2-1.8c-0.1-0.3-0.2-0.6-0.2-0.9c0-0.3,0-0.6,0-0.8  c0-0.3,0.1-0.5,0.1-0.7c0.1-0.2,0.2-0.4,0.2-0.6c0-0.1,0.1-0.2,0.1-0.2c0-0.1,0.1-0.1,0.1-0.2c0.1-0.1,0.1-0.2,0.2-0.2  C57.5,50.6,57.6,50.5,57.6,50.5z"></path><path d="M60.5,40.3c0,0,0,0.1,0.1,0.2c0.1,0.2,0.1,0.4,0.3,0.7c0.1,0.1,0.2,0.3,0.3,0.4c0.1,0.1,0.2,0.3,0.4,0.4  c0.1,0.1,0.3,0.2,0.5,0.4c0.2,0.1,0.4,0.2,0.6,0.3c0.4,0.1,0.8,0.3,1.3,0.2l0.2,0l0.1,0h0c0.1,0-0.1,0-0.1,0l0,0l0,0l0,0  c0.2,0,0.3-0.1,0.5-0.1c0.1,0,0.2,0,0.2-0.1c0,0,0.1-0.1,0.1-0.1c0.1-0.1,0.2-0.1,0.2-0.1c0.4-0.2,0.7-0.6,1-1  c0.2-0.4,0.3-0.8,0.4-1.3l0-0.2l0,0l0-0.1l0-0.1l0-0.3l0-0.1l0-0.1l0-0.1l0.1-0.4c0.1-0.6,0.4-1,0.6-1.4c0.6-0.8,1.3-1.4,2.2-1.7  c0.8-0.3,1.7-0.4,2.5-0.2c0.3,0,0.7,0.2,1.1,0.4c0.2,0.1,0.3,0.2,0.5,0.3c0.1,0.1,0.3,0.2,0.4,0.3c0.2,0.2,0.5,0.5,0.6,0.7  c0.2,0.3,0.3,0.5,0.4,0.7c0.1,0.2,0.2,0.5,0.2,0.7c0,0.2,0,0.4,0.1,0.6c0,0.1,0,0.2,0,0.2c0,0.1,0,0.1,0,0.2c0,0.1,0,0.2-0.1,0.3  c0,0.2-0.1,0.3-0.1,0.3s0-0.1-0.1-0.3c-0.1-0.2-0.1-0.4-0.3-0.7c-0.1-0.1-0.2-0.3-0.3-0.4c-0.1-0.1-0.2-0.3-0.4-0.4  c-0.1-0.1-0.3-0.2-0.5-0.4c-0.2-0.1-0.4-0.2-0.6-0.3c-0.2,0-0.4-0.2-0.6-0.2c-0.2,0-0.3-0.1-0.7,0c-0.5,0-0.9,0.2-1.3,0.4  c-0.4,0.2-0.7,0.6-1,1c-0.1,0.2-0.2,0.4-0.2,0.6c0,0,0,0.1,0,0.1c0,0,0,0,0,0l0,0.1l0,0.1l0,0.3l0,0.1l0,0.1l0,0l0,0v0  c0-0.1,0,0.1,0-0.1c0,1-0.3,2-0.9,2.8c-0.6,0.8-1.3,1.4-2.2,1.7c-0.2,0.1-0.5,0.1-0.7,0.2L65,45c-0.1,0-0.2,0-0.3,0  c-0.2,0-0.3,0-0.5,0l-0.2,0L64,45l-0.2,0l-0.3-0.1c-0.8-0.1-1.4-0.5-1.9-0.9c-0.2-0.2-0.5-0.5-0.6-0.7c-0.1-0.3-0.3-0.5-0.4-0.7  c-0.1-0.2-0.2-0.5-0.2-0.7c0-0.2-0.1-0.4-0.1-0.6c0-0.1,0-0.2,0-0.2c0-0.1,0-0.1,0-0.2c0-0.1,0-0.2,0.1-0.3  C60.4,40.4,60.5,40.3,60.5,40.3z"></path><path d="M57.9,30c0,0,0.1,0.1,0.2,0.2c0.1,0.1,0.3,0.3,0.6,0.4c0.1,0.1,0.3,0.1,0.4,0.2c0.2,0,0.3,0.1,0.5,0.2  c0.2,0,0.4,0.1,0.6,0.1c0.2,0,0.4,0,0.6,0c0.4-0.1,0.9-0.2,1.2-0.5l0.1-0.1l0.1,0l0,0c0.1-0.1-0.1,0.1-0.1,0.1l0,0l0,0l0,0  c0.1-0.1,0.2-0.2,0.4-0.3c0.1-0.1,0.1-0.1,0.2-0.2c0,0,0-0.1,0.1-0.1c0-0.1,0.1-0.1,0.1-0.2c0.2-0.4,0.3-0.9,0.4-1.3  c0-0.5-0.1-0.9-0.3-1.3L63,26.9l0,0l0-0.1l-0.1-0.1l-0.1-0.2l-0.1-0.1l0-0.1l0-0.1l-0.1-0.4c-0.2-0.6-0.1-1-0.1-1.5  c0.1-1,0.5-1.9,1-2.6c0.6-0.7,1.3-1.2,2.1-1.4c0.2-0.1,0.7-0.2,1.1-0.2c0.2,0,0.4,0,0.6,0c0.2,0,0.3,0,0.5,0.1  c0.3,0.1,0.6,0.2,0.9,0.3c0.3,0.1,0.5,0.3,0.7,0.4c0.2,0.2,0.4,0.3,0.5,0.5c0.1,0.2,0.2,0.3,0.3,0.5c0,0.1,0.1,0.1,0.1,0.2  c0,0.1,0.1,0.1,0.1,0.2c0,0.1,0.1,0.2,0.1,0.3c0.1,0.2,0.1,0.3,0.1,0.3s-0.1-0.1-0.2-0.2c-0.1-0.1-0.3-0.3-0.6-0.4  c-0.1-0.1-0.3-0.2-0.4-0.2c-0.2,0-0.3-0.1-0.5-0.2c-0.2,0-0.4-0.1-0.6-0.1c-0.2,0-0.4,0-0.6,0c-0.2,0.1-0.5,0.1-0.6,0.2  c-0.2,0.1-0.3,0.1-0.6,0.3c-0.4,0.2-0.7,0.6-1,1c-0.2,0.4-0.3,0.9-0.4,1.3c0,0.2,0,0.5,0.1,0.6c0,0,0,0.1,0,0.1l0,0l0,0.1l0.1,0.1  l0.1,0.2l0.1,0.1l0,0.1l0,0l0,0l0,0c0-0.1,0.1,0.1-0.1-0.1c0.5,0.9,0.7,1.9,0.6,2.8c-0.1,1-0.5,1.9-1,2.6c-0.1,0.2-0.3,0.4-0.5,0.5  l-0.3,0.2C64.1,31.9,64,31.9,64,32c-0.1,0.1-0.3,0.2-0.4,0.2l-0.1,0.1l-0.1,0l-0.1,0.1l-0.3,0.1c-0.7,0.3-1.5,0.3-2.2,0.2  c-0.3-0.1-0.6-0.2-0.9-0.3c-0.3-0.1-0.5-0.3-0.7-0.4c-0.2-0.2-0.4-0.3-0.5-0.5c-0.1-0.2-0.3-0.3-0.4-0.5c0-0.1-0.1-0.1-0.1-0.2  c0-0.1-0.1-0.1-0.1-0.2c0-0.1-0.1-0.2-0.1-0.3C57.9,30.1,57.9,30,57.9,30z"></path><path d="M50.5,22.4c0,0,0.1,0,0.3,0c0.2,0,0.4,0.1,0.7,0.1c0.2,0,0.3,0,0.5,0c0.2,0,0.4-0.1,0.5-0.1c0.2-0.1,0.4-0.1,0.6-0.2  c0.2-0.1,0.4-0.2,0.5-0.3c0.3-0.3,0.7-0.6,0.8-1l0.1-0.2l0-0.1l0,0c0-0.1-0.1,0.1,0,0.1l0,0l0,0l0,0c0.1-0.2,0.1-0.3,0.2-0.5  c0-0.1,0.1-0.2,0.1-0.2c0,0,0-0.1,0-0.1c0-0.1,0-0.2,0-0.3c0-0.5-0.1-0.9-0.3-1.3c-0.2-0.4-0.6-0.7-1-1l-0.1-0.1l0,0l-0.1,0L53.2,17  l-0.2-0.2l-0.1-0.1l-0.1,0l-0.1-0.1l-0.3-0.3c-0.4-0.4-0.6-0.8-0.9-1.3c-0.4-0.9-0.5-1.8-0.4-2.7c0.2-0.9,0.5-1.7,1.1-2.3  c0.2-0.2,0.5-0.5,0.8-0.7c0.2-0.1,0.3-0.2,0.5-0.3C53.7,9,53.9,9,54,8.9c0.3-0.1,0.6-0.2,0.9-0.2c0.3,0,0.6,0,0.8,0  c0.3,0.1,0.5,0.1,0.7,0.1C56.7,8.9,56.8,9,57,9.1c0.1,0,0.1,0.1,0.2,0.1c0.1,0,0.1,0.1,0.2,0.1c0.1,0.1,0.2,0.2,0.3,0.2  c0.1,0.1,0.2,0.2,0.2,0.2s-0.1,0-0.3,0c-0.2,0-0.4-0.1-0.7-0.1c-0.2,0-0.3,0-0.5,0c-0.2,0-0.4,0.1-0.5,0.1c-0.2,0.1-0.4,0.1-0.6,0.2  c-0.2,0.1-0.4,0.2-0.5,0.3c-0.1,0.2-0.4,0.3-0.5,0.4c-0.1,0.2-0.2,0.2-0.4,0.6c-0.3,0.4-0.3,0.9-0.3,1.3c0,0.5,0.1,0.9,0.3,1.3  c0.1,0.2,0.3,0.4,0.4,0.5c0,0,0,0.1,0.1,0.1c0,0,0,0,0,0l0.1,0l0.1,0.1l0.2,0.2l0.1,0.1l0.1,0l0,0l0,0l0,0c0,0,0.1,0.1-0.1-0.1  c0.8,0.5,1.5,1.3,1.9,2.1c0.4,0.9,0.5,1.8,0.4,2.7c0,0.2-0.1,0.5-0.2,0.7l-0.1,0.3c0,0.1-0.1,0.2-0.1,0.2c-0.1,0.1-0.2,0.3-0.2,0.4  l-0.1,0.1l0,0.1l-0.1,0.1L56.1,22c-0.5,0.6-1.2,1-1.8,1.2c-0.3,0.1-0.6,0.2-0.9,0.2c-0.3,0-0.6,0-0.8,0c-0.3,0-0.5-0.1-0.7-0.1  c-0.2-0.1-0.4-0.2-0.6-0.2c-0.1,0-0.2-0.1-0.2-0.1c-0.1,0-0.1-0.1-0.2-0.1c-0.1-0.1-0.2-0.1-0.2-0.2C50.6,22.5,50.5,22.4,50.5,22.4z  "></path><path d="M40.3,19.5c0,0,0.1,0,0.2-0.1c0.2-0.1,0.4-0.1,0.7-0.3c0.1-0.1,0.3-0.2,0.4-0.3c0.1-0.1,0.3-0.2,0.4-0.4  c0.1-0.1,0.2-0.3,0.4-0.5c0.1-0.2,0.2-0.4,0.3-0.6c0.1-0.4,0.3-0.8,0.2-1.3l0-0.2v-0.1v0c0,0,0-0.1,0,0.1l0,0l0,0l0,0  c0-0.2-0.1-0.3-0.1-0.5c0-0.1,0-0.2-0.1-0.2c0,0-0.1-0.1-0.1-0.1c-0.1-0.1-0.1-0.2-0.1-0.2c-0.2-0.4-0.6-0.7-1-1  c-0.4-0.2-0.8-0.3-1.3-0.4l-0.2,0l0,0l-0.1,0l-0.1,0l-0.3,0l-0.1,0l-0.1,0l-0.1,0l-0.4-0.1c-0.6-0.1-1-0.4-1.4-0.7  c-0.8-0.6-1.4-1.3-1.7-2.2c-0.3-0.8-0.4-1.7-0.2-2.5c0-0.3,0.2-0.7,0.4-1.1c0.1-0.2,0.2-0.3,0.3-0.5c0.1-0.1,0.2-0.3,0.3-0.4  c0.2-0.2,0.5-0.5,0.7-0.6C37.5,5.3,37.8,5.1,38,5c0.2-0.1,0.5-0.2,0.7-0.2c0.2,0,0.4,0,0.6-0.1c0.1,0,0.2,0,0.2,0c0.1,0,0.1,0,0.2,0  c0.1,0,0.2,0,0.3,0.1c0.2,0,0.3,0.1,0.3,0.1S40.2,4.9,40,5c-0.2,0.1-0.4,0.1-0.7,0.3c-0.1,0.1-0.3,0.2-0.4,0.3  c-0.1,0.1-0.3,0.2-0.4,0.4c-0.1,0.1-0.2,0.3-0.4,0.5c-0.1,0.2-0.2,0.4-0.3,0.6c0,0.2-0.2,0.4-0.2,0.6c0,0.2-0.1,0.3,0,0.7  c0,0.5,0.2,0.9,0.4,1.3c0.2,0.4,0.6,0.7,1,1c0.2,0.1,0.4,0.2,0.6,0.2c0,0,0.1,0,0.1,0c0,0,0,0,0,0l0.1,0l0.1,0l0.3,0l0.1,0l0.1,0  l0,0l0,0l0,0c-0.1,0,0.1,0-0.1,0c1,0,2,0.3,2.8,0.9c0.8,0.6,1.4,1.3,1.7,2.2c0.1,0.2,0.1,0.5,0.2,0.7L45,15c0,0.1,0,0.2,0,0.3  c0,0.2,0,0.3,0,0.5l0,0.2l0,0.1l0,0.1l-0.1,0.3c-0.1,0.8-0.5,1.4-0.9,1.9c-0.2,0.2-0.5,0.5-0.7,0.6c-0.3,0.1-0.5,0.3-0.7,0.4  c-0.2,0.1-0.5,0.2-0.7,0.2c-0.2,0-0.4,0.1-0.6,0.1c-0.1,0-0.2,0-0.2,0c-0.1,0-0.1,0-0.2,0c-0.1,0-0.2,0-0.3-0.1  C40.4,19.6,40.3,19.5,40.3,19.5z"></path><path d="M30,22.1c0,0,0.1-0.1,0.2-0.2c0.1-0.1,0.3-0.3,0.4-0.6c0.1-0.1,0.1-0.3,0.2-0.4c0-0.2,0.1-0.3,0.2-0.5  c0-0.2,0.1-0.4,0.1-0.6c0-0.2,0-0.4,0-0.6c-0.1-0.4-0.2-0.9-0.5-1.2l-0.1-0.1l0-0.1l0,0c0,0-0.1-0.1,0.1,0.1l0,0l0,0l0,0  c-0.1-0.1-0.2-0.2-0.3-0.4c-0.1-0.1-0.1-0.1-0.2-0.2c0,0-0.1,0-0.1-0.1c-0.1,0-0.1-0.1-0.2-0.1c-0.4-0.2-0.9-0.3-1.3-0.4  c-0.5,0-0.9,0.1-1.3,0.3L26.9,17l0,0l-0.1,0l-0.1,0.1l-0.2,0.1l-0.1,0.1l-0.1,0l-0.1,0l-0.4,0.1c-0.6,0.2-1,0.1-1.5,0.1  c-1-0.1-1.9-0.5-2.6-1c-0.7-0.6-1.2-1.3-1.4-2.1c-0.1-0.2-0.2-0.7-0.2-1.1c0-0.2,0-0.4,0-0.6c0-0.2,0-0.3,0.1-0.5  c0.1-0.3,0.2-0.6,0.3-0.9c0.1-0.3,0.3-0.5,0.4-0.7c0.2-0.2,0.3-0.4,0.5-0.5c0.2-0.1,0.3-0.2,0.5-0.3c0.1,0,0.1-0.1,0.2-0.1  c0.1,0,0.1-0.1,0.2-0.1c0.1,0,0.2-0.1,0.3-0.1c0.2-0.1,0.3-0.1,0.3-0.1s-0.1,0.1-0.2,0.2c-0.1,0.1-0.3,0.3-0.4,0.6  c-0.1,0.1-0.2,0.3-0.2,0.4c0,0.2-0.1,0.3-0.2,0.5c0,0.2-0.1,0.4-0.1,0.6c0,0.2,0,0.4,0,0.6c0.1,0.2,0.1,0.5,0.2,0.6  c0.1,0.2,0.1,0.3,0.3,0.6c0.2,0.4,0.6,0.7,1,1c0.4,0.2,0.9,0.3,1.3,0.4c0.2,0,0.5,0,0.6-0.1c0,0,0.1,0,0.1,0c0,0,0,0,0,0l0.1,0  l0.1-0.1l0.2-0.1l0.1-0.1l0.1,0l0,0l0,0l0,0c-0.1,0,0.1-0.1-0.1,0.1c0.9-0.5,1.9-0.7,2.8-0.6c1,0.1,1.9,0.5,2.6,1  c0.2,0.1,0.4,0.3,0.5,0.5l0.2,0.3c0.1,0.1,0.1,0.1,0.1,0.2c0.1,0.1,0.2,0.3,0.2,0.4l0.1,0.1l0,0.1l0.1,0.1l0.1,0.3  c0.3,0.7,0.3,1.5,0.2,2.2c-0.1,0.3-0.2,0.6-0.3,0.9c-0.1,0.3-0.3,0.5-0.4,0.7c-0.2,0.2-0.3,0.4-0.5,0.5c-0.2,0.1-0.3,0.3-0.5,0.4  c-0.1,0-0.1,0.1-0.2,0.1c-0.1,0-0.1,0.1-0.2,0.1c-0.1,0-0.2,0.1-0.3,0.1C30.1,22.1,30,22.1,30,22.1z"></path><path d="M22.4,29.5c0,0,0-0.1,0-0.3c0-0.2,0.1-0.4,0.1-0.7c0-0.1,0-0.3,0-0.5c0-0.2-0.1-0.4-0.1-0.5c-0.1-0.2-0.1-0.4-0.2-0.6  c-0.1-0.2-0.2-0.4-0.3-0.5c-0.3-0.3-0.6-0.7-1-0.8l-0.2-0.1l-0.1,0l0,0c-0.1,0,0.1,0.1,0.1,0l0,0l0,0l0,0c-0.2-0.1-0.3-0.1-0.5-0.2  c-0.1,0-0.2-0.1-0.2-0.1c0,0-0.1,0-0.1,0c-0.1,0-0.2,0-0.3,0c-0.5,0-0.9,0.1-1.3,0.3c-0.4,0.2-0.7,0.6-1,1l-0.1,0.1l0,0l0,0.1  L17,26.8l-0.2,0.2l-0.1,0.1l0,0.1l-0.1,0.1l-0.3,0.3c-0.4,0.4-0.8,0.6-1.3,0.9c-0.9,0.4-1.8,0.5-2.7,0.4c-0.9-0.2-1.7-0.5-2.3-1.1  c-0.2-0.2-0.5-0.5-0.7-0.8c-0.1-0.2-0.2-0.3-0.3-0.5C9,26.3,9,26.1,8.9,26c-0.1-0.3-0.2-0.6-0.2-0.9c0-0.3,0-0.6,0-0.8  c0.1-0.3,0.1-0.5,0.1-0.7C8.9,23.3,9,23.2,9.1,23c0-0.1,0.1-0.1,0.1-0.2c0-0.1,0.1-0.1,0.1-0.2c0.1-0.1,0.2-0.2,0.2-0.3  c0.1-0.1,0.2-0.2,0.2-0.2s0,0.1,0,0.3c0,0.2-0.1,0.4-0.1,0.7c0,0.2,0,0.3,0,0.5c0,0.2,0.1,0.4,0.1,0.5c0.1,0.2,0.1,0.4,0.2,0.6  c0.1,0.2,0.2,0.4,0.3,0.5c0.2,0.1,0.3,0.4,0.4,0.5c0.2,0.1,0.2,0.2,0.6,0.4c0.4,0.3,0.9,0.3,1.3,0.3c0.5,0,0.9-0.1,1.3-0.3  c0.2-0.1,0.4-0.3,0.5-0.4c0,0,0.1,0,0.1-0.1c0,0,0,0,0,0l0-0.1l0.1-0.1l0.2-0.2l0.1-0.1l0-0.1l0,0l0,0l0,0c0,0,0.1-0.1-0.1,0.1  c0.5-0.8,1.3-1.5,2.1-1.9c0.9-0.4,1.8-0.5,2.7-0.4c0.2,0,0.5,0.1,0.7,0.2l0.3,0.1c0.1,0,0.2,0.1,0.2,0.1c0.1,0.1,0.3,0.2,0.4,0.2  l0.1,0.1l0.1,0l0.1,0.1l0.2,0.2c0.6,0.5,1,1.2,1.2,1.8c0.1,0.3,0.2,0.6,0.2,0.9c0,0.3,0,0.6,0,0.8c-0.1,0.3-0.1,0.5-0.1,0.7  c-0.1,0.2-0.2,0.4-0.2,0.6c0,0.1-0.1,0.2-0.1,0.2c0,0.1-0.1,0.1-0.1,0.2c-0.1,0.1-0.1,0.2-0.2,0.2C22.5,29.4,22.4,29.5,22.4,29.5z"></path><path d="M19.5,39.7c0,0,0-0.1-0.1-0.2c-0.1-0.2-0.1-0.4-0.3-0.7c-0.1-0.1-0.2-0.3-0.3-0.4c-0.1-0.1-0.2-0.3-0.4-0.4  c-0.1-0.1-0.3-0.2-0.5-0.4c-0.2-0.1-0.4-0.2-0.6-0.3c-0.4-0.1-0.8-0.3-1.3-0.2l-0.2,0l-0.1,0h0c-0.1,0,0.1,0,0.1,0l0,0l0,0l0,0  c-0.2,0-0.3,0.1-0.5,0.1c-0.1,0-0.2,0-0.2,0.1c0,0-0.1,0.1-0.1,0.1c-0.1,0.1-0.2,0.1-0.2,0.1c-0.4,0.2-0.7,0.6-1,1  c-0.2,0.4-0.3,0.8-0.4,1.3l0,0.2l0,0l0,0.1l0,0.1l0,0.3l0,0.1l0,0.1l0,0.1l-0.1,0.4c-0.1,0.6-0.4,1-0.6,1.4  c-0.6,0.8-1.3,1.4-2.2,1.7c-0.8,0.3-1.7,0.4-2.5,0.2c-0.3,0-0.7-0.2-1.1-0.4c-0.2-0.1-0.3-0.2-0.5-0.3c-0.1-0.1-0.3-0.2-0.4-0.3  c-0.2-0.2-0.5-0.5-0.6-0.7C5.3,42.5,5.1,42.2,5,42c-0.1-0.2-0.2-0.5-0.2-0.7c0-0.2,0-0.4-0.1-0.6c0-0.1,0-0.2,0-0.2  c0-0.1,0-0.1,0-0.2c0-0.1,0-0.2,0.1-0.3c0-0.2,0.1-0.3,0.1-0.3s0,0.1,0.1,0.3c0.1,0.2,0.1,0.4,0.3,0.7c0.1,0.1,0.2,0.3,0.3,0.4  c0.1,0.1,0.2,0.3,0.4,0.4c0.1,0.1,0.3,0.2,0.5,0.4c0.2,0.1,0.4,0.2,0.6,0.3c0.2,0,0.4,0.2,0.6,0.2c0.2,0,0.3,0.1,0.7,0  c0.5,0,0.9-0.2,1.3-0.4c0.4-0.2,0.7-0.6,1-1c0.1-0.2,0.2-0.4,0.2-0.6c0,0,0-0.1,0-0.1l0,0l0-0.1l0-0.1l0-0.3l0-0.1l0-0.1l0,0l0,0  l0,0c0,0.1,0-0.1,0,0.1c0-1,0.3-2,0.9-2.8c0.6-0.8,1.3-1.4,2.2-1.7c0.2-0.1,0.5-0.1,0.7-0.2L15,35c0.1,0,0.2,0,0.3,0  c0.2,0,0.3,0,0.5,0l0.2,0l0.1,0l0.2,0l0.3,0.1c0.8,0.1,1.4,0.5,1.9,0.9c0.2,0.2,0.5,0.5,0.6,0.7c0.1,0.3,0.3,0.5,0.4,0.7  c0.1,0.2,0.2,0.5,0.2,0.7c0,0.2,0.1,0.4,0.1,0.6c0,0.1,0,0.2,0,0.2c0,0.1,0,0.1,0,0.2c0,0.1,0,0.2-0.1,0.3  C19.6,39.6,19.5,39.7,19.5,39.7z"></path><path d="M22.1,50c0,0-0.1-0.1-0.2-0.2c-0.1-0.1-0.3-0.3-0.6-0.4c-0.1-0.1-0.3-0.1-0.4-0.2c-0.2,0-0.3-0.1-0.5-0.2  c-0.2,0-0.4-0.1-0.6-0.1c-0.2,0-0.4,0-0.6,0c-0.4,0.1-0.9,0.2-1.2,0.5l-0.1,0.1l-0.1,0l0,0c-0.1,0.1,0.1-0.1,0.1-0.1l0,0l0,0l0,0  c-0.1,0.1-0.2,0.2-0.4,0.3c-0.1,0.1-0.1,0.1-0.2,0.2c0,0,0,0.1-0.1,0.1c0,0.1-0.1,0.1-0.1,0.2c-0.2,0.4-0.3,0.9-0.4,1.3  c0,0.5,0.1,0.9,0.3,1.3l0.1,0.2l0,0l0,0.1l0.1,0.1l0.1,0.2l0.1,0.1l0,0.1l0,0.1l0.1,0.4c0.2,0.6,0.1,1,0.1,1.5c-0.1,1-0.5,1.9-1,2.6  c-0.6,0.7-1.3,1.2-2.1,1.4c-0.2,0.1-0.7,0.2-1.1,0.2c-0.2,0-0.4,0-0.6,0c-0.2,0-0.3,0-0.5-0.1c-0.3-0.1-0.6-0.2-0.9-0.3  c-0.3-0.1-0.5-0.3-0.7-0.4c-0.2-0.2-0.4-0.3-0.5-0.5c-0.1-0.2-0.2-0.3-0.3-0.5c0-0.1-0.1-0.1-0.1-0.2c0-0.1-0.1-0.1-0.1-0.2  c0-0.1-0.1-0.2-0.1-0.3c-0.1-0.2-0.1-0.3-0.1-0.3s0.1,0.1,0.2,0.2c0.1,0.1,0.3,0.3,0.6,0.4c0.1,0.1,0.3,0.2,0.4,0.2  c0.2,0,0.3,0.1,0.5,0.2c0.2,0,0.4,0.1,0.6,0.1c0.2,0,0.4,0,0.6,0c0.2-0.1,0.5-0.1,0.6-0.2c0.2-0.1,0.3-0.1,0.6-0.3  c0.4-0.2,0.7-0.6,1-1c0.2-0.4,0.3-0.9,0.4-1.3c0-0.2,0-0.5-0.1-0.6c0,0,0-0.1,0-0.1l0,0l0-0.1l-0.1-0.1l-0.1-0.2l-0.1-0.1l0-0.1l0,0  l0,0l0,0c0,0.1-0.1-0.1,0.1,0.1c-0.5-0.9-0.7-1.9-0.6-2.8c0.1-1,0.5-1.9,1-2.6c0.1-0.2,0.3-0.4,0.5-0.5l0.3-0.2  c0.1-0.1,0.1-0.1,0.2-0.1c0.1-0.1,0.3-0.2,0.4-0.2l0.1-0.1l0.1,0l0.1-0.1l0.3-0.1c0.7-0.3,1.5-0.3,2.2-0.2c0.3,0.1,0.6,0.2,0.9,0.3  c0.3,0.1,0.5,0.3,0.7,0.4c0.2,0.2,0.4,0.3,0.5,0.5c0.1,0.2,0.3,0.3,0.4,0.5c0,0.1,0.1,0.1,0.1,0.2c0,0.1,0.1,0.1,0.1,0.2  c0,0.1,0.1,0.2,0.1,0.3C22.1,49.9,22.1,50,22.1,50z"></path><path d="M29.5,57.6c0,0-0.1,0-0.3,0c-0.2,0-0.4-0.1-0.7-0.1c-0.2,0-0.3,0-0.5,0c-0.2,0-0.4,0.1-0.5,0.1c-0.2,0.1-0.4,0.1-0.6,0.2  c-0.2,0.1-0.4,0.2-0.5,0.3c-0.3,0.3-0.7,0.6-0.8,1l-0.1,0.2l0,0.1l0,0c0,0.1,0.1-0.1,0-0.1l0,0l0,0l0,0c-0.1,0.2-0.1,0.3-0.2,0.5  c0,0.1-0.1,0.2-0.1,0.2c0,0,0,0.1,0,0.1c0,0.1,0,0.2,0,0.3c0,0.5,0.1,0.9,0.3,1.3c0.2,0.4,0.6,0.7,1,1l0.1,0.1l0,0l0.1,0l0.1,0.1  l0.2,0.2l0.1,0.1l0.1,0l0.1,0.1l0.3,0.3c0.4,0.4,0.6,0.8,0.9,1.3c0.4,0.9,0.5,1.8,0.4,2.7c-0.2,0.9-0.5,1.7-1.1,2.3  c-0.2,0.2-0.5,0.5-0.8,0.7c-0.2,0.1-0.3,0.2-0.5,0.3C26.3,71,26.1,71,26,71.1c-0.3,0.1-0.6,0.2-0.9,0.2c-0.3,0-0.6,0-0.8,0  c-0.3-0.1-0.5-0.1-0.7-0.1c-0.2-0.1-0.4-0.2-0.5-0.2c-0.1,0-0.1-0.1-0.2-0.1c-0.1,0-0.1-0.1-0.2-0.1c-0.1-0.1-0.2-0.2-0.3-0.2  c-0.1-0.1-0.2-0.2-0.2-0.2s0.1,0,0.3,0c0.2,0,0.4,0.1,0.7,0.1c0.2,0,0.3,0,0.5,0c0.2,0,0.4-0.1,0.5-0.1c0.2-0.1,0.4-0.1,0.6-0.2  c0.2-0.1,0.4-0.2,0.5-0.3c0.1-0.2,0.4-0.3,0.5-0.4c0.1-0.2,0.2-0.2,0.4-0.6c0.3-0.4,0.3-0.9,0.3-1.3c0-0.5-0.1-0.9-0.3-1.3  c-0.1-0.2-0.3-0.4-0.4-0.5c0,0,0-0.1-0.1-0.1l0,0l-0.1,0l-0.1-0.1l-0.2-0.2l-0.1-0.1l-0.1,0l0,0l0,0l0,0c0,0-0.1-0.1,0.1,0.1  c-0.8-0.5-1.5-1.3-1.9-2.1c-0.4-0.9-0.5-1.8-0.4-2.7c0-0.2,0.1-0.5,0.2-0.7l0.1-0.3c0-0.1,0.1-0.2,0.1-0.2c0.1-0.1,0.2-0.3,0.2-0.4  l0.1-0.1l0-0.1l0.1-0.1l0.2-0.2c0.5-0.6,1.2-1,1.8-1.2c0.3-0.1,0.6-0.2,0.9-0.2c0.3,0,0.6,0,0.8,0c0.3,0,0.5,0.1,0.7,0.1  c0.2,0.1,0.4,0.2,0.6,0.2c0.1,0,0.2,0.1,0.2,0.1c0.1,0,0.1,0.1,0.2,0.1c0.1,0.1,0.2,0.1,0.2,0.2C29.4,57.5,29.5,57.6,29.5,57.6z"></path></svg>