<svg height='100px' width='100px'  fill="#000000" xmlns="http://www.w3.org/2000/svg" xmlns:xlink="http://www.w3.org/1999/xlink" version="1.1" x="0px" y="0px" viewBox="0 0 100 100" enable-background="new 0 0 100 100" xml:space="preserve"><polygon points="90.092,20.688 86.314,24.359 67.871,4.756 71.647,1.086 80.984,5.59 84.775,1.921 90.633,7.948 86.854,11.649 "></polygon><path d="M49.616,20.103c1.373,0.213,2.663-0.692,2.896-2.068c0.21-1.368-0.704-2.652-2.074-2.872  c-1.396-0.222-2.642,0.693-2.875,2.057C47.307,18.591,48.285,19.894,49.616,20.103z"></path><path d="M57.206,17.007c1.289,0.212,2.516-0.655,2.726-1.952c0.212-1.315-0.664-2.519-1.954-2.732  c-1.311-0.211-2.496,0.666-2.727,1.959C55.019,15.571,55.936,16.808,57.206,17.007z"></path><path d="M42.401,22.803c1.292,0.211,2.517-0.657,2.728-1.953c0.211-1.314-0.663-2.518-1.954-2.733  c-1.312-0.209-2.494,0.667-2.727,1.959C40.216,21.365,41.134,22.602,42.401,22.803z"></path><path d="M64.792,13.91c1.229,0.199,2.39-0.624,2.575-1.842c0.193-1.239-0.623-2.369-1.851-2.57  c-1.249-0.201-2.345,0.615-2.579,1.833C62.729,12.561,63.587,13.723,64.792,13.91z"></path><path d="M55.384,25.573c0.087-1.366,1.253-2.409,2.629-2.31c1.374,0.097,2.419,1.274,2.308,2.646  c-0.084,1.368-1.27,2.401-2.645,2.314C56.319,28.145,55.275,26.949,55.384,25.573z"></path><path d="M49.417,29.796c0.088-1.365,1.253-2.408,2.627-2.308c1.377,0.097,2.422,1.276,2.309,2.644  c-0.082,1.37-1.27,2.401-2.643,2.313C50.354,32.37,49.31,31.174,49.417,29.796z"></path><path d="M61.63,21.112c0.088-1.292,1.19-2.283,2.503-2.189c1.293,0.097,2.273,1.21,2.188,2.518c-0.084,1.289-1.21,2.272-2.506,2.186  C62.526,23.549,61.522,22.419,61.63,21.112z"></path><path d="M67.877,16.669c0.08-1.222,1.145-2.163,2.372-2.066c1.208,0.084,2.129,1.135,2.063,2.364  c-0.08,1.219-1.143,2.148-2.369,2.067C68.73,18.954,67.791,17.889,67.877,16.669z"></path><path d="M70.408,30.31c-1.31,0.038-2.422-1.005-2.461-2.343c-0.04-1.335,1.004-2.474,2.317-2.502  c1.36-0.039,2.467,1.026,2.507,2.362C72.808,29.141,71.767,30.258,70.408,30.31z"></path><path d="M65.931,36.271c-1.312,0.039-2.423-1.005-2.462-2.341c-0.042-1.337,1.004-2.475,2.318-2.503  c1.358-0.041,2.468,1.027,2.505,2.361C68.329,35.103,67.289,36.221,65.931,36.271z"></path><path d="M61.232,41.881c-1.31,0.039-2.423-1.004-2.461-2.34c-0.043-1.336,1.001-2.475,2.316-2.502  c1.36-0.042,2.467,1.025,2.506,2.361C63.632,40.714,62.589,41.833,61.232,41.881z"></path><path d="M55.488,48.493c-1.312,0.038-2.423-1.005-2.463-2.342c-0.039-1.336,1.002-2.474,2.319-2.501  c1.358-0.042,2.464,1.024,2.506,2.361C57.887,47.326,56.846,48.443,55.488,48.493z"></path><path d="M75.089,24.184c-1.23,0.029-2.278-0.936-2.297-2.179c-0.043-1.242,0.938-2.302,2.17-2.33c1.25-0.03,2.277,0.958,2.314,2.201  C77.318,23.099,76.341,24.143,75.089,24.184z"></path><path d="M80.098,29.55c-1.208,0.152-2.32-0.711-2.469-1.922c-0.167-1.217,0.708-2.338,1.901-2.479  c1.216-0.148,2.343,0.715,2.489,1.918C82.166,28.274,81.311,29.395,80.098,29.55z"></path><path d="M76.75,37.411c-1.296,0.168-2.45-0.742-2.613-2.02c-0.167-1.272,0.756-2.454,2.01-2.614c1.27-0.151,2.447,0.753,2.613,2.021  C78.926,36.062,78.025,37.246,76.75,37.411z"></path><path d="M73.38,45.267c-1.337,0.175-2.553-0.773-2.735-2.116c-0.162-1.328,0.775-2.572,2.111-2.726  c1.339-0.166,2.577,0.775,2.736,2.103C75.681,43.867,74.718,45.102,73.38,45.267z"></path><path d="M60.542,77.048h-18.89v16.865c0,2.757-2.227,4.983-4.983,4.983l0,0c-2.756,0-5.001-2.227-5.001-4.983V77.048  c-1.241,0-2.153-0.978-2.153-2.123V62.347l16.304-7.716h33.549l7.312-4.07c1.39-0.796,3.157-0.309,3.942,1.079l0,0  c0.785,1.39,0.304,3.146-1.085,3.942l-9.822,5.544v32.787c0,2.757-2.238,4.983-4.993,4.983l0,0c-2.755,0-4.99-2.227-4.99-4.983  l0.009-12.841l-9.043,15.271c-1.411,2.371-4.472,3.146-6.852,1.734l0,0c-2.358-1.408-3.135-4.491-1.726-6.859L60.542,77.048z"></path><polygon points="35.154,53.822 27.846,49.251 27.846,38.397 30.234,38.397 30.234,47.925 34.387,50.521 42.791,36.372   21.948,31.794 18.608,36.486 7.636,36.475 7.672,47.721 28.215,60.165 42.642,53.123 38.551,48.325 "></polygon></svg>