<svg height='100px' width='100px'  fill="#000000" xmlns="http://www.w3.org/2000/svg" data-name="Layer 1" viewBox="0 0 100 100" x="0px" y="0px"><title>Artboard 26</title><path d="M99,8V92a4.86,4.86,0,1,1-9.73,0V12.88H10.73V92A4.86,4.86,0,1,1,1,92V8A4.86,4.86,0,0,1,5.86,3.15H94.14A4.86,4.86,0,0,1,99,8ZM39.52,27.94c0-2.21-2.92-6.06-4.5-8a1.27,1.27,0,0,0-2,0c-1.58,1.92-4.5,5.77-4.5,8a5.49,5.49,0,1,0,11,0Zm16,0c0-2.21-2.92-6.06-4.5-8a1.27,1.27,0,0,0-2,0c-1.58,1.92-4.5,5.77-4.5,8a5.49,5.49,0,1,0,11,0ZM66,33.43a5.49,5.49,0,0,0,5.49-5.49c0-2.21-2.92-6.06-4.5-8a1.27,1.27,0,0,0-2,0c-1.58,1.92-4.5,5.77-4.5,8A5.49,5.49,0,0,0,66,33.43Zm16.5,24.23c0,.71,0,1.47,0,2.41A3.49,3.49,0,0,1,79,63.48H77.39q.26.34.49.69a14.21,14.21,0,0,1,2.34,8.21v16.2A3.39,3.39,0,0,1,76.85,92H72.47a3.39,3.39,0,0,1-3.39-3.39V86H30.92v2.54A3.39,3.39,0,0,1,27.53,92H23.15a3.39,3.39,0,0,1-3.39-3.39V72.39a14.21,14.21,0,0,1,2.34-8.21q.24-.35.49-.69H20.95a3.49,3.49,0,0,1-3.42-3.41c0-.93,0-1.7,0-2.41a3.35,3.35,0,0,1,3.3-3.31l1.25,0A5.71,5.71,0,0,1,25.87,56a69.65,69.65,0,0,1,4.92-10.41,11.39,11.39,0,0,1,7.84-4.55A65.53,65.53,0,0,1,50,40.32h0a65.53,65.53,0,0,1,11.37.74,11.38,11.38,0,0,1,7.84,4.55A69.65,69.65,0,0,1,74.13,56a5.71,5.71,0,0,1,3.79-1.69l1.25,0A3.35,3.35,0,0,1,82.47,57.66ZM39.92,71.47a2.64,2.64,0,0,0-2-2.55l-6.21-1.63a2.64,2.64,0,0,0-3.3,2.55v1.63a2.64,2.64,0,0,0,2.64,2.64h6.21A2.64,2.64,0,0,0,39.92,71.47Zm31.63-1.63a2.64,2.64,0,0,0-3.3-2.55L62,68.92a2.64,2.64,0,0,0,.67,5.19h6.21a2.64,2.64,0,0,0,2.64-2.64Z"></path></svg>