<svg height='100px' width='100px'  fill="#000000" xmlns="http://www.w3.org/2000/svg" xmlns:xlink="http://www.w3.org/1999/xlink" version="1.1" x="0px" y="0px" viewBox="0 0 512 512" style="enable-background:new 0 0 512 512;" xml:space="preserve"><g><path d="M160.9,141.7c-3,0.8-4.7,3.9-3.9,6.9L190.9,272c0,0,0,0,0,0.1c0,0,0,0,0,0l18.4,62.7c0.7,2.4,2.9,4,5.3,4   c0.5,0,1-0.1,1.6-0.2c3-0.9,4.6-4,3.8-6.9L201.6,269l-33.9-123.4C166.9,142.6,163.9,140.9,160.9,141.7z"></path><path d="M158.3,111.2c-0.8-3-3.9-4.7-6.8-3.9c-3,0.8-4.7,3.9-3.9,6.9l1.4,5c0.7,2.5,2.9,4.1,5.4,4.1c0.5,0,1-0.1,1.5-0.2   c3-0.8,4.7-3.9,3.9-6.8L158.3,111.2z"></path><path d="M297.1,338.2c-3.7-11.2-11.3-20.6-21.3-26.7l-41.6-24.9c-2.6-1.6-6.1-0.7-7.6,1.9c-1.6,2.6-0.7,6.1,1.9,7.6l41.6,24.9   c7.8,4.7,13.6,12,16.5,20.6L329.8,473h-73.3l-8.3-34.9c-0.9-4-1-8.2-0.2-12.2l5.5-26.6c2.8-13.7-3.4-27.6-15.6-34.5l-11.9-6.8   c-2.7-1.5-6.1-0.6-7.6,2.1c-1.5,2.7-0.6,6.1,2.1,7.6l11.9,6.8c8,4.5,12,13.6,10.2,22.6l-5.5,26.6c-1.2,5.6-1.1,11.5,0.2,17L245,473   h-99.5l-4.1-15.4c-0.8-3-3.9-4.7-6.8-3.9c-3,0.8-4.7,3.9-3.9,6.8L134,473H64.1V39h62.8L140.1,87c0.8,3,3.9,4.7,6.8,3.9   c3-0.8,4.7-3.9,3.9-6.9l-14.3-52c-0.7-2.4-2.9-4.1-5.4-4.1H58.6c-3.1,0-5.6,2.5-5.6,5.6v445.1c0,3.1,2.5,5.6,5.6,5.6h82.6   c0,0,0,0,0,0c0,0,0,0,0,0h110.8c0,0,0,0,0,0c0,0,0,0,0,0h85.4c1.8,0,3.5-0.9,4.5-2.3s1.3-3.3,0.8-5L297.1,338.2z"></path><path d="M139.8,278.1c-0.3,1.1-0.3,2.2,0,3.3l12.7,41.3c0.7,2.4,2.9,3.9,5.3,3.9c0.5,0,1.1-0.1,1.6-0.2c2.9-0.9,4.6-4,3.7-7   l-12.2-39.7l6-19.4c4.4-14.5-0.9-30-13.4-38.6l-0.2-0.1c-7.5-5.2-13-13-15.4-21.8c-0.8-3-3.9-4.7-6.8-3.9c-3,0.8-4.7,3.9-3.9,6.8   c3.1,11.4,10.1,21.3,19.8,28l0.2,0.1c8.4,5.8,12.1,16.3,9.1,26.1L139.8,278.1z"></path><path d="M113,177.4c0.5,0,1-0.1,1.5-0.2c3-0.8,4.7-3.9,3.9-6.8l-2.3-8.6c-0.8-3-3.9-4.7-6.8-3.9c-3,0.8-4.7,3.9-3.9,6.8l2.3,8.6   C108.3,175.8,110.6,177.4,113,177.4z"></path><path d="M100.9,350l19.4,72.1c0.7,2.5,2.9,4.1,5.4,4.1c0.5,0,1-0.1,1.5-0.2c3-0.8,4.7-3.9,3.9-6.8l-19.4-72.1   c-0.8-3-3.9-4.7-6.8-3.9C101.9,344,100.1,347,100.9,350z"></path><path d="M336.9,152.5c-0.6-3-1.2-10.4,4.7-16.2c7.5-7.4,9.6-18.9,5.3-28.6l-9.2-20.5c-0.6-1.3-1.7-2.4-3.1-2.9   c-1.4-0.5-2.9-0.5-4.3,0.1c-0.4,0.2-43.8,19.7-76.1,40.3c-2.4,1.5-3.3,4.6-2,7.2l0.7,1.4l-15.3,7.7c-10.9,5.5-17.1,17.3-15.5,29.4   c2.7,19.9,6.5,57.5,2,86.8c-0.4,2.6,1.1,5.1,3.5,6.1c0.6,0.2,1.3,0.4,2,0.4c1.9,0,3.7-0.9,4.7-2.6c0.4-0.6,5.3-8.5,10.8-20.9   l0.2,0.1c0.8,0.4,1.6,0.6,2.4,0.6c2.1,0,4.1-1.2,5-3.1c1.3-2.8,0.2-6.1-2.6-7.4l-0.8-0.4c0.6-1.7,1.3-3.4,1.9-5.2l1.5,0.5   c0.6,0.2,1.2,0.3,1.8,0.3c2.3,0,4.5-1.4,5.3-3.7c1-2.9-0.5-6.1-3.4-7.1l-1.8-0.6c0.4-1.4,0.8-2.7,1.1-4.1l1,0.3   c0.5,0.1,1,0.2,1.5,0.2c2.4,0,4.7-1.6,5.4-4.1c0.8-3-0.9-6-3.9-6.9l-1.4-0.4c0.4-1.8,0.7-3.7,1-5.6l1.6,0.3c0.3,0.1,0.7,0.1,1,0.1   c2.7,0,5-1.9,5.5-4.6c0.5-3-1.5-5.9-4.5-6.5l-1.3-0.2c0.4-0.8,0.8-1.7,1.3-2.5c1.7-2.6,1-6-1.6-7.7c-2.6-1.7-6-1-7.7,1.6   c-2.4,3.6-3.9,7.7-4.5,12c0,0,0,0,0,0c0,0,0,0,0,0c0,0.1,0,0.2,0,0.3c-2,16.6-6.9,31.9-11.8,43.8c0.3-23.3-2.2-46.7-4.2-61   c-1-7.4,2.8-14.6,9.5-17.9l15.2-7.6l10.7,21.7c4.7,9.6,15,15,25.6,13.5l8.1-1.1c3-0.4,5.2-3.3,4.7-6.3c-0.4-3-3.2-5.2-6.3-4.7   l-8.1,1.1c-5.8,0.8-11.4-2.2-14-7.4l-14.1-28.6c24.5-15,53.8-29.1,65.4-34.5l6.9,15.4c2.5,5.5,1.3,12-2.9,16.1   c-12.4,12.1-7.4,28.2-7.1,28.9c0.3,1,0.9,1.8,1.7,2.5C436.7,252.9,448,351.9,447.9,390.2c0,3.1-2.1,4.7-3,5.2   c-0.9,0.5-3.3,1.6-6,0.1l-36.2-20.2c-1.8-1-3-2.6-3.4-4.6c-0.4-2,0-4,1.3-5.6l7.3-9.5c2.6-3.4,3.9-7.6,3.7-11.8   c-1.2-29.6-9.3-58.3-24.1-85.6l6.2-3.9c2.6-1.6,3.4-5.1,1.8-7.7c-1.6-2.6-5.1-3.4-7.7-1.8l-5.9,3.7c-2.1-3.4-4.2-6.8-6.5-10.2   c-18.5-27.4-40.1-47.3-54.9-59.2c-2.4-1.9-5.9-1.5-7.8,0.9c-1.9,2.4-1.5,5.9,0.9,7.8c25,20,83.4,75.3,86.8,156.5   c0.1,1.7-0.4,3.3-1.4,4.6l-7.3,9.5c-3.2,4.2-4.4,9.5-3.3,14.6c1.1,5.1,4.3,9.5,8.9,12.1l36.2,20.2c2.6,1.5,5.5,2.2,8.4,2.2   c3,0,6-0.8,8.7-2.4c5.3-3.1,8.5-8.6,8.5-14.8C459.2,350.6,447.6,248.4,336.9,152.5z"></path><path d="M295.8,134.1c2.8-1.2,4.2-4.5,3-7.3c-1.2-2.8-4.5-4.2-7.3-3c-6.8,2.9-11.2,9.5-11.2,16.9c0,10.1,8.2,18.3,18.3,18.3   c10.1,0,18.3-8.2,18.3-18.3c0-1.9-0.3-3.8-0.9-5.6c-0.9-2.9-4.1-4.5-7-3.6c-2.9,0.9-4.5,4.1-3.6,7c0.2,0.7,0.3,1.4,0.3,2.2   c0,4-3.2,7.2-7.2,7.2c-4,0-7.2-3.2-7.2-7.2C291.4,137.8,293.1,135.2,295.8,134.1z"></path></g></svg>