<svg height='100px' width='100px'  fill="#000000" xmlns="http://www.w3.org/2000/svg" data-name="Layer 7" viewBox="0 0 360 360" x="0px" y="0px"><title>great_streets_icons_outlined</title><path d="M120,121.7a20.31,20.31,0,1,1,20.31-20.31A20.34,20.34,0,0,1,120,121.7Zm0-31.63a11.31,11.31,0,1,0,11.31,11.31A11.33,11.33,0,0,0,120,90.08Z"></path><path d="M135.54,195.61a4.5,4.5,0,0,1-4.5-4.5V138c-8.64.23-28.59,2.15-41.47,14.3-8.06,7.6-12.14,18.17-12.14,31.4a4.5,4.5,0,0,1-9,0c0-15.84,5-28.62,15-38,19.61-18.45,51-16.76,52.38-16.68a4.5,4.5,0,0,1,4.23,4.49v57.56A4.5,4.5,0,0,1,135.54,195.61Z"></path><path d="M150.38,246.93a4.5,4.5,0,0,1-4.5-4.5c0-22.65-10.21-28.23-26.86-35.46C94,196.09,94.7,175.22,94.74,174.34a4.5,4.5,0,0,1,9,.41c0,0.72-.23,15.67,18.86,24,18.9,8.21,32.28,16.15,32.28,43.71A4.5,4.5,0,0,1,150.38,246.93Z"></path><path d="M63,247.54q-1,0-2-.06a4.5,4.5,0,0,1,.52-9c1.24,0.07,29.37,1.17,35.3-29.8a4.5,4.5,0,0,1,8.84,1.69C100.07,240,76.37,247.54,63,247.54Z"></path><path d="M240.21,96.69h0a23.46,23.46,0,1,1,23.46-23.46,23.48,23.48,0,0,1-23.46,23.46Zm0-37.92a14.46,14.46,0,1,0,14.46,14.46A14.48,14.48,0,0,0,240.21,58.77Z"></path><path d="M258.78,185.29a4.5,4.5,0,0,1-4.5-4.5V116.24c-9.92.17-35.09,2.19-51.22,17.4-9.85,9.29-14.85,22.17-14.85,38.3a4.5,4.5,0,0,1-9,0c0-18.73,6-33.83,17.71-44.89,23.23-21.86,60.55-19.85,62.13-19.75a4.5,4.5,0,0,1,4.23,4.49v69A4.5,4.5,0,0,1,258.78,185.29Z"></path><path d="M276.57,246.81a4.5,4.5,0,0,1-4.5-4.5c0-27.71-12.44-34.51-32.74-43.33-29.47-12.8-28.61-37.22-28.56-38.26a4.5,4.5,0,0,1,9,.42c0,0.85-.37,19.37,23.15,29.58,22.34,9.7,38.16,19.08,38.16,51.59A4.5,4.5,0,0,1,276.57,246.81Z"></path><path d="M171,247.51c-0.82,0-1.32,0-1.4,0a4.5,4.5,0,0,1,.52-9h0c1.47,0.09,36,1.5,43.26-36.45a4.5,4.5,0,0,1,8.84,1.69c-4.57,23.88-18.65,34.54-29.66,39.27A56.61,56.61,0,0,1,171,247.51Z"></path><path d="M315.85,169.76c-35.94,0-43.59-31.5-43.67-31.83a4.5,4.5,0,0,1,8.77-2c0.27,1.14,6.7,26.32,37.61,24.78a4.5,4.5,0,0,1,.44,9Q317.39,169.76,315.85,169.76Z"></path><path d="M345,286.83H15a4.5,4.5,0,0,1,0-9H345A4.5,4.5,0,0,1,345,286.83Z"></path><path d="M81.33,216.38H15a4.5,4.5,0,1,1,0-9H81.33A4.5,4.5,0,1,1,81.33,216.38Z"></path><path d="M345,216.38H289.54a4.5,4.5,0,0,1,0-9H345A4.5,4.5,0,0,1,345,216.38Z"></path><path d="M195,216.48H161.18a4.5,4.5,0,1,1,0-9H195A4.5,4.5,0,1,1,195,216.48Z"></path></svg>