<svg height='100px' width='100px'  fill="#000000" xmlns="http://www.w3.org/2000/svg" xmlns:xlink="http://www.w3.org/1999/xlink" version="1.1" x="0px" y="0px" viewBox="0 0 100 100" enable-background="new 0 0 100 100" xml:space="preserve"><path fill="none" stroke="#000000" stroke-width="8.0133" stroke-linecap="round" stroke-linejoin="round" stroke-miterlimit="10" d="  M-36.979,34.842"></path><g><path fill="none" stroke="#000000" stroke-width="0.897" stroke-miterlimit="10" stroke-dasharray="5.031,2.5155" d="   M-38.393,21.335"></path></g><path d="M24.184,16.646c-0.003,0-0.006-0.003-0.009-0.003C24.178,16.642,24.181,16.646,24.184,16.646z"></path><path d="M26.226,63.591c-1.853-0.494-3.789-2.11-3.661-5.16c0.084-1.957,1.338-3.678,2.792-5.668  c1.015-1.391,2.099-2.883,2.906-4.625c-1.27,1.897-2.865,3.092-4.268,4.229c-3.989,3.231-4.591,9.24-1.912,11.922  c2.341,2.341,7.866,1.919,9.848-2.173c-1.189,1.142-2.75,1.668-4.213,1.668C27.203,63.783,26.698,63.719,26.226,63.591z"></path><path d="M76.113,25.152c4.873-2.557,8.919-7.38,7.771-13.117c-1.146-5.738-3.214-6.656-4.437-6.885  c-0.681-0.127-1.498,0.078-2.059,0.601c0.542-0.046,1.14,0.054,1.733,0.319c1.114,0.495,2.378,1.673,2.589,3.499  c0.334,2.913-1.505,5.216-5.455,6.86c-2.563,1.495-12.462,1.083-16.378,4.696c-0.984,2.548,0.525,4.384,1.605,5.3  c0.741,0.63,1.646,1.153,2.644,1.544c3.576,1.401,7.637,0.7,10.539-1.816C75.123,25.757,75.606,25.419,76.113,25.152z"></path><path d="M38.542,26.428c1.076-0.914,2.576-2.734,1.623-5.266c-3.409-3.201-11.477-3.276-15.155-4.251  c-0.016,0.003-0.029,0.006-0.046,0.006c-0.039,0-0.079-0.006-0.119-0.019c-0.228-0.083-0.445-0.167-0.66-0.254  c-0.003,0-0.006-0.003-0.009-0.003c-4.304-1.696-6.234-4.016-5.884-7.073c0.209-1.825,1.472-3.004,2.587-3.5  c0.596-0.265,1.192-0.365,1.733-0.318c-0.56-0.523-1.377-0.728-2.059-0.601c-1.225,0.229-3.29,1.148-4.438,6.885  c-1.147,5.74,2.901,10.56,7.773,13.121c0.509,0.267,0.994,0.606,1.454,1.004c2.83,2.453,6.78,3.188,10.3,1.909  C36.741,27.67,37.738,27.111,38.542,26.428z"></path><path d="M61.026,26.967c-1.742-1.483-2.444-3.297-2.07-5.179c-0.963-0.502-1.972-0.929-3.021-1.263  c0.81-0.827,1.312-2.257,1.353-4.167c0.062-2.947-1.972-3.467-1.972-3.467s0.374,1.495,0.082,2.783  c-0.293,1.285-1.868,1.951-2.533,1.91c0,0,1.142-1.551,0.788-4.071c-0.37-2.646-2.865-3.322-2.865-3.322s0.646,1.409,0.354,3.591  c-0.292,2.186-2.74,5.377-5.64,6.341c-0.017,0.003-0.031,0.009-0.047,0.016c-1.543,0.368-3.013,0.922-4.388,1.634  c0.381,1.888-0.322,3.709-2.068,5.195c-1.815,1.542-4.554,2.486-7.302,2.489c-1.472,0-2.945-0.275-4.283-0.873  c2.008,3.05,3.162,7.217,3.162,10.439c0,1.616-0.136,3.019-0.376,4.244c-0.222,4.35-2.456,7.421-4.273,9.914  c-1.384,1.897-2.58,3.535-2.655,5.278c-0.095,2.238,1.079,3.901,3.138,4.452c2.033,0.541,5.722-1.057,6.247-2.833  c1.248-4.214,0.908-8.3-0.007-12.319c-0.001-0.006-0.003-0.015-0.005-0.021c0.253,0.501,0.523,0.994,0.817,1.467l-0.002,0.003  c3.601,5.594,5.325,9.863,5.645,15.759c1.397-2.793,3.683-5.549,6.95-8.443c1.411-1.247,0.938-4.288,0.521-6.969  c-0.254-1.631-0.494-3.176-0.307-4.25c0.553-3.186,2.197-3.616,3.733-3.616s3.18,0.431,3.734,3.616  c0.186,1.074-0.055,2.619-0.309,4.25c-0.416,2.681-0.89,5.722,0.522,6.969c3.267,2.892,5.55,5.647,6.947,8.443  c0.319-5.896,2.046-10.165,5.646-15.759l-0.002-0.003c0.292-0.474,0.564-0.966,0.817-1.467c-0.002,0.006-0.003,0.015-0.005,0.021  c-0.915,4.02-1.225,8.096-0.008,12.319c0.668,2.321,4.214,3.374,6.247,2.833c2.056-0.551,3.232-2.214,3.137-4.452  c-0.071-1.743-1.27-3.381-2.653-5.278c-1.82-2.493-4.056-5.564-4.272-9.917c-0.241-1.226-0.38-2.625-0.38-4.241  c0-3.217,1.154-7.377,3.154-10.424c-1.329,0.588-2.792,0.854-4.249,0.857C65.581,29.456,62.843,28.509,61.026,26.967z   M40.962,42.567c-2.607,0-4.722-1.424-4.722-3.186c0-1.758,2.114-3.182,4.722-3.182c2.608,0,4.724,1.424,4.724,3.182  C45.686,41.144,43.57,42.567,40.962,42.567z M46.456,36.837c-0.198,0.124-0.461,0.062-0.587-0.136  c-0.882-1.427-2.625-2.21-4.907-2.21c-2.279,0-4.022,0.783-4.906,2.21c-0.081,0.13-0.22,0.201-0.362,0.201  c-0.077,0-0.154-0.022-0.225-0.065c-0.2-0.124-0.262-0.387-0.138-0.585c1.045-1.688,3.045-2.616,5.631-2.616  c2.589,0,4.589,0.928,5.632,2.616C46.718,36.45,46.657,36.713,46.456,36.837z M59.037,42.567c-2.608,0-4.721-1.424-4.721-3.186  c0-1.758,2.112-3.182,4.721-3.182c2.61,0,4.724,1.424,4.724,3.182C63.761,41.144,61.647,42.567,59.037,42.567z M64.479,36.837  c-0.199,0.124-0.463,0.062-0.588-0.136c-0.883-1.427-2.625-2.21-4.906-2.21s-4.023,0.783-4.907,2.21  c-0.081,0.13-0.221,0.201-0.362,0.201c-0.076,0-0.155-0.022-0.225-0.065c-0.2-0.124-0.262-0.387-0.138-0.585  c1.045-1.688,3.044-2.616,5.632-2.616s4.588,0.928,5.63,2.616C64.741,36.45,64.679,36.713,64.479,36.837z M64.583,33.276  c-0.147,0.183-0.416,0.21-0.599,0.062c-1.176-0.954-2.765-1.396-5-1.396c-2.237,0-3.826,0.445-5,1.399  c-0.079,0.065-0.175,0.096-0.269,0.096c-0.125,0-0.247-0.056-0.331-0.158c-0.148-0.183-0.121-0.452,0.062-0.601  c1.334-1.083,3.094-1.588,5.537-1.588c2.441,0,4.202,0.504,5.536,1.588C64.703,32.825,64.731,33.094,64.583,33.276z"></path><path d="M77.436,58.431c0.127,3.05-1.806,4.666-3.662,5.16c-0.471,0.128-0.973,0.192-1.493,0.192c-1.461,0-3.02-0.526-4.209-1.668  c1.98,4.092,7.507,4.514,9.847,2.173c2.678-2.682,2.077-8.69-1.91-11.922c-1.405-1.137-3.003-2.332-4.271-4.232  c0.811,1.746,1.894,3.235,2.909,4.629C76.098,54.753,77.353,56.474,77.436,58.431z"></path><path d="M21.166,6.716c-0.937,0.415-1.997,1.404-2.172,2.934c-0.261,2.274,0.899,4.054,3.604,5.5  c-1.588-2.752,0.499-5.921,0.66-7.551c0.037-0.368-0.003-0.695-0.098-0.983C22.64,6.359,21.897,6.39,21.166,6.716z"></path><path d="M81.008,9.65c-0.177-1.529-1.234-2.519-2.17-2.934c-0.733-0.327-1.474-0.357-1.997-0.101  c-0.096,0.288-0.133,0.615-0.099,0.983c0.157,1.618,2.22,4.752,0.696,7.489C80.055,13.661,81.259,11.84,81.008,9.65z"></path><path d="M60.861,68.585c-0.055-1.743-0.568-3.415-1.495-4.892c-1.369-2.18-3.314-4.364-5.886-6.641  c-1.699-1.505-1.196-4.747-0.751-7.606c0.245-1.573,0.476-3.059,0.308-4.022c-0.436-2.517-1.528-3.031-3.036-3.031  s-2.601,0.514-3.037,3.031c-0.167,0.963,0.063,2.449,0.31,4.022c0.444,2.859,0.949,6.102-0.753,7.606  c-2.578,2.283-4.528,4.474-5.897,6.66c-0.915,1.461-1.43,3.143-1.483,4.864c0,0.002,0,0.003,0,0.005  c0,0.021-0.001,0.043-0.001,0.065c0,2.346,0.556,4.532,1.568,6.374c0.099,0.198,0.189,0.331,0.187,0.328  c0.002,0.006,0.003,0.009,0.006,0.016c0.828,1.551,5.494,7.191,2.93,12.811c-0.856,1.88-2.101,6.632,0.101,6.796  c3.067,0.232,4.354-6.699,3.862-11.569c-0.118-1.164-0.352-2.258-0.676-3.267l0,0c0.902,0.241,1.865,0.368,2.884,0.368  s1.983-0.127,2.884-0.368c-0.324,1.009-0.559,2.103-0.676,3.267c-0.492,4.87,0.795,11.802,3.861,11.569  c2.201-0.164,0.958-4.916,0.101-6.796c-2.563-5.619,2.103-11.26,2.931-12.811c0.002-0.007,0.003-0.01,0.006-0.013  c1.132-1.906,1.756-4.217,1.756-6.705C60.862,68.627,60.862,68.605,60.861,68.585z M46.287,63.241h7.428  c0.195,0,0.353,0.161,0.353,0.356s-0.157,0.354-0.353,0.354h-7.428c-0.194,0-0.353-0.158-0.353-0.354S46.093,63.241,46.287,63.241z   M44.462,67.381c0.165-0.579,1.131-0.566,2.161,0.031c0.586,0.341,1.063,0.792,1.339,1.226h0.002  c0.494,0.679,1.35,1.183,2.037,1.204c0.686-0.021,1.542-0.525,2.036-1.204c0.001,0,0.001,0,0.001,0  c0.277-0.434,0.756-0.885,1.339-1.226c1.031-0.598,1.998-0.61,2.161-0.031c0.162,0.579-0.54,1.533-1.571,2.131  c-0.944,0.544-1.831,0.601-2.101,0.163c-0.566,0.459-1.249,0.756-1.857,0.774c-0.003,0-0.006,0-0.008,0l0,0  c-0.003,0-0.006,0-0.009,0c-0.608-0.019-1.291-0.315-1.857-0.774c-0.269,0.438-1.157,0.381-2.101-0.163  C45.004,68.914,44.3,67.96,44.462,67.381z M58.073,72.298c-1.408,3.062-4.059,3.009-6.866,2.953c-0.788-0.016-1.624-0.016-2.413,0  c-0.37,0.009-0.737,0.016-1.098,0.016c-2.386,0-4.545-0.31-5.767-2.969c-0.094-0.205-0.004-0.446,0.198-0.539  c0.205-0.096,0.446-0.006,0.539,0.198c1.186,2.579,3.359,2.539,6.111,2.482c0.799-0.016,1.646-0.016,2.445,0  c2.753,0.057,4.926,0.097,6.111-2.482c0.094-0.204,0.334-0.291,0.539-0.198C58.078,71.852,58.167,72.093,58.073,72.298z"></path><path d="M61.136,38.177c-0.35-0.099-1.259-0.322-2.143-0.334c-0.86-0.009-2.029,0.297-2.16,0.331  c-0.646,0.176-1.028,0.842-0.854,1.489c0.175,0.647,0.841,1.031,1.488,0.855c0.308-0.083,1.081-0.245,1.494-0.248  c0.49,0.006,1.111,0.133,1.526,0.248c0.107,0.027,0.217,0.043,0.323,0.043c0.534,0,1.021-0.353,1.171-0.892  C62.16,39.022,61.781,38.354,61.136,38.177z"></path><path d="M43.116,38.177c-0.349-0.099-1.258-0.322-2.142-0.334c-0.862-0.009-2.029,0.297-2.159,0.331  c-0.647,0.176-1.031,0.842-0.856,1.489c0.177,0.647,0.844,1.031,1.491,0.855c0.307-0.083,1.077-0.245,1.494-0.248  c0.49,0.006,1.109,0.133,1.525,0.248c0.108,0.027,0.217,0.043,0.324,0.043c0.532,0,1.021-0.353,1.17-0.892  C44.143,39.022,43.763,38.354,43.116,38.177z"></path><path d="M24.844,16.896c0.04,0.016,0.08,0.021,0.12,0.021c0.016,0,0.03-0.003,0.045-0.006c-0.306-0.083-0.585-0.17-0.825-0.266  C24.399,16.729,24.616,16.815,24.844,16.896z"></path></svg>