<svg height='100px' width='100px'  fill="#000000" xmlns="http://www.w3.org/2000/svg" viewBox="0 0 48 48" x="0px" y="0px"><title>Wine</title><g data-name="Layer 16"><path d="M46.06641,41.9873H41.1983a3.67272,3.67272,0,0,0,.75385-2.10058V21.84863a1.00051,1.00051,0,0,0-.29883-.71289c-1.7373-1.71-3.65137-3.64258-4.22852-4.292V6.6123a.99942.99942,0,0,0-1-1H31.39453a.99943.99943,0,0,0-1,1v9.80958L27.959,19.02094c-.63861-4.1283-1.1593-7.34406-1.33789-8.06489a3.74343,3.74343,0,0,0-.86389-1.6604L25.749,9.28223l-.014-.01264-.00751-.00885-.00861-.00567a2.55909,2.55909,0,0,0-2.23846-.75238V7.08691a3.70263,3.70263,0,0,0-3.69824-3.69824h-3.0166a2.53874,2.53874,0,0,0-.25892.01093c-.09082-.00782-.175-.01093-.24011-.01093H13.25A3.70263,3.70263,0,0,0,9.55176,7.08691V8.55957H8.1709c-1.81348,0-3.2334,1.84961-3.38965,2.06055a.99183.99183,0,0,0-.18945.48047L.94043,42.87305a1.00063,1.00063,0,0,0,.99316,1.11425H46.06641a1,1,0,0,0,0-2ZM28.99231,25.7998H39.95215v7.625H30.13226C29.77637,31.02759,29.38385,28.39789,28.99231,25.7998ZM35.4248,7.6123V9.63672H32.39453V7.6123ZM32.124,17.501a.99955.99955,0,0,0,.27051-.6836V11.63672H35.4248v5.54c0,.50195,0,.6289,4.52735,5.09082V23.7998H28.69c-.11627-.76745-.23163-1.526-.34485-2.26672ZM19.78223,5.38867a1.7,1.7,0,0,1,1.69824,1.69824V8.55957H19.96582V7.08691a3.75858,3.75858,0,0,0-.0957-.80908c-.01746-.07953-.04315-.15411-.06555-.23157a3.65818,3.65818,0,0,0-.19367-.52392c-.01984-.04285-.028-.09174-.04938-.13367ZM11.55176,7.08691A1.7,1.7,0,0,1,13.25,5.38867l3.05859.001a1.11846,1.11846,0,0,0,.126.01855,1.66529,1.66529,0,0,1,1.53125,1.67871V8.55957H11.55176ZM6.54492,11.61816a2.8316,2.8316,0,0,1,1.626-1.05859H23.34277a1.0106,1.0106,0,0,0,.35645-.06543.60179.60179,0,0,1,.27637-.01465L23.01172,22.376H5.30853ZM5.07867,24.376H22.84973L21.42285,41.9873H3.05469ZM25.77637,41.9873l.7373-.91113,1.14844.91113Zm1.20312-3.09375a1.001,1.001,0,0,0-1.39844.1543l-2.12664,2.631,2.05676-25.38092c.97864,6.18457,2.564,16.84241,3.66461,24.33783Zm3.44928-3.46875h9.52338v4.46192c0,.73242-.92865,1.63666-1.54523,2.10058H31.39551C31.21545,40.75909,30.86377,38.36353,30.42877,35.4248Z"></path></g></svg>