<svg height='100px' width='100px'  fill="#000000" xmlns="http://www.w3.org/2000/svg" xmlns:xlink="http://www.w3.org/1999/xlink" version="1.1" x="0px" y="0px" viewBox="0 0 512 512" enable-background="new 0 0 512 512" xml:space="preserve"><g><path d="M256,0C139.167,0,44.467,94.708,44.467,211.534C44.467,372.184,256,512,256,512s211.533-139.816,211.533-300.466   C467.533,94.708,372.833,0,256,0z M256,375.941c-90.8,0-164.4-73.6-164.4-164.408c0-90.8,73.601-164.409,164.4-164.409   s164.417,73.608,164.417,164.409C420.417,302.342,346.8,375.941,256,375.941z"></path><path d="M344.475,175.733c0,0-32.3,13.816-48.183,13.816c-4.143,0-7.525-3.367-7.525-7.533c0-0.316,0.066-1.383,0.084-1.55   c0.05-0.349,0.1-0.649,0.149-0.982c0.116-0.684,0.192-1.4,0.192-2.134c0-0.683-0.059-1.35-0.184-2.033   c-0.176-1.134-0.518-2.134-1.025-2.983c-1.85-3.617-5.601-6.083-9.925-6.083c-0.417,0-0.825,0.033-1.233,0.083h-0.009   c-0.458,0-0.983,0.1-1.583,0.284c-1.267,0.333-2.441,0.883-3.5,1.6c-14.034,7.8-46.175,37.133-61.5,39.65   c-42.441,6.934-48.55,11.833-50.25,20.45c-0.1,0.55-0.35,1.066-0.325,1.6c0.759,11.384,14.792,16.917,42.95,16.917   c15.525,0,57.541-7.234,93.05-11.933v11.9h60.267v-30.05h-0.059C356.083,194.783,344.475,175.733,344.475,175.733z"></path></g></svg>