<svg height='100px' width='100px'  fill="#000000" xmlns="http://www.w3.org/2000/svg" xmlns:xlink="http://www.w3.org/1999/xlink" version="1.1" x="0px" y="0px" viewBox="0 0 100 100" style="enable-background:new 0 0 100 100;" xml:space="preserve"><path d="M89.216,47.273h-3.229V37.122c0-2.875-1.265-5.642-3.469-7.594c-1.955-1.729-3.031-3.965-3.031-6.294v-6.609  c0.563-0.324,0.948-0.924,0.948-1.619v-3.328c0-1.033-0.841-1.874-1.874-1.874h-6.729c-1.033,0-1.873,0.841-1.873,1.874v3.328  c0,0.776,0.473,1.443,1.146,1.727v6.194c0,2.451-1.113,4.8-3.055,6.446c-2.316,1.963-3.645,4.787-3.645,7.749v10.151h-3.513V37.122  c0-2.874-1.265-5.642-3.47-7.594c-1.954-1.729-3.03-3.964-3.03-6.294v-6.609c0.563-0.324,0.947-0.924,0.947-1.619v-3.328  c0-1.033-0.841-1.874-1.874-1.874h-6.729c-1.033,0-1.874,0.841-1.874,1.874v3.328c0,0.775,0.474,1.442,1.146,1.727v6.195  c0,2.451-1.113,4.801-3.055,6.446c-2.316,1.963-3.645,4.787-3.645,7.749v10.151h-3.513V37.122c0-2.875-1.265-5.643-3.47-7.593  c-1.954-1.73-3.03-3.966-3.03-6.295v-6.609c0.563-0.324,0.947-0.924,0.947-1.619v-3.328c0-1.033-0.84-1.874-1.873-1.874h-6.729  c-1.033,0-1.874,0.841-1.874,1.874v3.328c0,0.775,0.474,1.442,1.146,1.727v6.195c0,2.451-1.113,4.801-3.055,6.446  c-2.315,1.963-3.644,4.788-3.644,7.749v10.151h-3.185c-0.553,0-1,0.448-1,1v9.316c0,0.552,0.447,1,1,1h2.185v4.389h-2.185  c-0.553,0-1,0.448-1,1v9.316c0,0.552,0.447,1,1,1h2.185v4.39h-2.185c-0.553,0-1,0.448-1,1V89c0,0.552,0.447,1,1,1h78.184  c0.553,0,1-0.448,1-1v-9.316c0-0.552-0.447-1-1-1h-2.229v-4.39h2.229c0.553,0,1-0.448,1-1v-9.316c0-0.552-0.447-1-1-1h-2.229v-4.389  h2.229c0.553,0,1-0.448,1-1v-9.316C90.216,47.721,89.769,47.273,89.216,47.273z M73.104,22.927V16.88h4.382v6.354  c0,0.05,0.008,0.099,0.008,0.149h-4.416C73.086,23.231,73.104,23.08,73.104,22.927z M71.958,11.804h6.477v3.076h-6.477V11.804z   M69.343,30.899c1.734-1.47,2.922-3.405,3.449-5.516h4.938c0.482,2.105,1.671,4.057,3.462,5.643c1.803,1.595,2.795,3.76,2.795,6.096  v2.776H66.405v-2.776C66.405,34.75,67.476,32.481,69.343,30.899z M66.405,41.898h17.581v5.375H66.405V41.898z M48.01,22.927V16.88  h4.383v6.354c0,0.05,0.008,0.099,0.008,0.149h-4.417C47.991,23.231,48.01,23.08,48.01,22.927z M46.863,11.804h6.477v3.076h-6.477  V11.804z M44.248,30.899c1.734-1.47,2.922-3.405,3.449-5.516h4.938c0.482,2.105,1.67,4.058,3.461,5.643  c1.803,1.596,2.796,3.76,2.796,6.096v2.776H41.311v-2.776C41.311,34.75,42.381,32.481,44.248,30.899z M41.311,41.898h17.582v5.375  H41.311V41.898z M22.915,22.927V16.88h4.383v6.354c0,0.05,0.008,0.099,0.008,0.149h-4.417C22.896,23.231,22.915,23.08,22.915,22.927  z M21.769,11.804h6.477v3.076h-6.477V11.804z M19.153,30.899c1.734-1.47,2.922-3.405,3.449-5.516h4.938  c0.482,2.104,1.67,4.057,3.461,5.643c1.803,1.595,2.796,3.76,2.796,6.096v2.776H16.217v-2.776  C16.217,34.75,17.287,32.481,19.153,30.899z M16.217,41.898h17.581v5.375H16.217V41.898z M88.216,88H12.032v-7.316h76.184V88z   M84.986,78.684h-69.77v-4.39h69.77V78.684z M88.216,72.294H12.032v-7.316h76.184V72.294z M84.986,62.979h-69.77v-4.389h69.77  V62.979z M88.216,56.589H12.032v-7.316h76.184V56.589z"></path></svg>