<svg height='100px' width='100px'  fill="#000000" xmlns="http://www.w3.org/2000/svg" xmlns:xlink="http://www.w3.org/1999/xlink" version="1.1" x="0px" y="0px" viewBox="0 0 64 64" style="enable-background:new 0 0 64 64;" xml:space="preserve"><g><path d="M60,1H4C2.346,1,1,2.346,1,4v2c0,1.302,0.839,2.402,2,2.816V63h58V8.816C62.161,8.402,63,7.302,63,6V4   C63,2.346,61.654,1,60,1z M5,33h17h2h9.221C30.621,35.543,29,39.084,29,43v4h-2v-4h-8v4h-2v-2c0-1.103-0.897-2-2-2v-2h2v-2H7v2h2v2   c-1.103,0-2,0.897-2,2v2H5V33z M9,27v-6h8v6c0,2.206-1.794,4-4,4S9,29.206,9,27z M19,19c1.103,0,2-0.897,2-2v-2h4v2   c0,1.103,0.897,2,2,2v9c0,1.654-1.346,3-3,3h-2c-1.654,0-3-1.346-3-3v-1V19z M18.026,31H17.46c0.107-0.119,0.209-0.242,0.307-0.37   C17.846,30.759,17.934,30.879,18.026,31z M37,23c0-3.309,2.691-6,6-6s6,2.691,6,6s-2.691,6-6,6S37,26.309,37,23z M55,43v4H31v-4   c0-6.617,5.383-12,12-12S55,36.383,55,43z M23,49c-1.103,0-2-0.897-2-2v-2h4v2C25,48.103,24.103,49,23,49z M15,45v7   c0,0.551-0.448,1-1,1h-4c-0.552,0-1-0.449-1-1v-7c1.103,0,2-0.897,2-2v-2h2v2C13,44.103,13.897,45,15,45z M5,49h2v3   c0,1.654,1.346,3,3,3h4c1.654,0,3-1.346,3-3v-3h2.556c0.53,0.909,1.401,1.587,2.444,1.858V53h-2v2h6v-2h-2v-2.142   c1.043-0.271,1.913-0.949,2.444-1.858H59v8H5V49z M57,47v-4c0-3.916-1.621-7.457-4.221-10H59v14H57z M50.174,31   c-0.883-0.53-1.825-0.971-2.82-1.298C49.545,28.274,51,25.805,51,23c0-4.411-3.589-8-8-8s-8,3.589-8,8   c0,2.805,1.455,5.274,3.646,6.702c-0.995,0.327-1.936,0.768-2.82,1.298H33V9h26v22H50.174z M31,31h-3.026   C28.609,30.162,29,29.13,29,28v-9c0-1.103-0.897-2-2-2v-2h2v-2H17v2h2v2c-1.103,0-2,0.897-2,2H7v8c0,1.538,0.586,2.937,1.54,4H5V9   h26V31z M5,61v-2h54v2H5z M61,6c0,0.551-0.448,1-1,1H4C3.448,7,3,6.551,3,6V4c0-0.551,0.448-1,1-1h56c0.552,0,1,0.449,1,1V6z"></path><rect x="55" y="11" width="2" height="2"></rect><rect x="55" y="15" width="2" height="2"></rect><rect x="55" y="19" width="2" height="2"></rect><rect x="47" y="53" width="2" height="2"></rect><rect x="55" y="53" width="2" height="2"></rect><rect x="51" y="53" width="2" height="2"></rect></g></svg>