<svg height='100px' width='100px'  fill="#000000" xmlns="http://www.w3.org/2000/svg" xmlns:xlink="http://www.w3.org/1999/xlink" version="1.1" x="0px" y="0px" viewBox="0 0 100 100" enable-background="new 0 0 100 100" xml:space="preserve"><g><g><path fill="#000000" d="M90,34c-8,12-20,36-20,56H30c0-20.1-12-44-20-56c13.3,0,24-10.7,24-24    c0,4.4,7.2,8,16.1,8s16.1-3.6,16.1-8C66.1,23.3,76.8,34,90,34z M78.1,38c0-2.2-1.8-4-4-4c-2.2,0-4,1.8-4,4s1.8,4,4,4    C76.3,42,78.1,40.2,78.1,38z M70,46c0-2.2-1.8-4-4-4s-4,1.8-4,4s1.8,4,4,4S70,48.2,70,46z M62,54c0-2.2-1.8-4-4-4s-4,1.8-4,4    s1.8,4,4,4S62,56.2,62,54z M54,62c0-2.2-1.8-4-4-4s-4,1.8-4,4s1.8,4,4,4S54,64.2,54,62z M46,54c0-2.2-1.8-4-4-4s-4,1.8-4,4    s1.8,4,4,4S46,56.2,46,54z M38,46c0-2.2-1.8-4-4-4s-4,1.8-4,4s1.8,4,4,4S38,48.2,38,46z M30,38c0-2.2-1.8-4-4-4s-4,1.8-4,4    s1.8,4,4,4S30,40.2,30,38z"></path></g></g></svg>