<svg height='100px' width='100px'  fill="#000000" xmlns="http://www.w3.org/2000/svg" viewBox="0 0 128 128" x="0px" y="0px"><title>launchpad, controller, dj, edm, music, nightclub</title><path d="M118.546,4.945H9.454a5,5,0,0,0-5,5V119.036a5,5,0,0,0,5,5H118.546a5,5,0,0,0,5-5V9.945A5,5,0,0,0,118.546,4.945ZM89.371,14.562h0a5.292,5.292,0,0,1,0,10.584h0a5.292,5.292,0,0,1,0-10.584Zm-66.9,0a5.292,5.292,0,1,1-5.292,5.292A5.307,5.307,0,0,1,22.467,14.562ZM13.612,35.241A3.142,3.142,0,0,1,16.753,32.1H26.44a3.142,3.142,0,0,1,3.142,3.142v9.687A3.142,3.142,0,0,1,26.44,48.07H16.753a3.142,3.142,0,0,1-3.141-3.142Zm.028,22.116a3.142,3.142,0,0,1,3.142-3.141h9.687a3.142,3.142,0,0,1,3.142,3.141v9.687a3.142,3.142,0,0,1-3.142,3.142H16.782a3.142,3.142,0,0,1-3.142-3.142Zm.029,22.117a3.142,3.142,0,0,1,3.142-3.142H26.5a3.142,3.142,0,0,1,3.141,3.142v9.687A3.142,3.142,0,0,1,26.5,92.3H16.811a3.142,3.142,0,0,1-3.142-3.142Zm16,31.8a3.142,3.142,0,0,1-3.142,3.142H16.839a3.142,3.142,0,0,1-3.141-3.142V101.59a3.141,3.141,0,0,1,3.141-3.141h9.687a3.142,3.142,0,0,1,3.142,3.141ZM33.9,19.854a5.292,5.292,0,1,1,5.292,5.292A5.308,5.308,0,0,1,33.9,19.854Zm2.184,15.387A3.142,3.142,0,0,1,39.227,32.1h9.687a3.142,3.142,0,0,1,3.142,3.142v9.687a3.142,3.142,0,0,1-3.142,3.142H39.227a3.142,3.142,0,0,1-3.142-3.142Zm.029,22.116a3.142,3.142,0,0,1,3.142-3.141h9.687a3.141,3.141,0,0,1,3.141,3.141v9.687a3.142,3.142,0,0,1-3.141,3.142H39.256a3.142,3.142,0,0,1-3.142-3.142Zm.029,22.117a3.142,3.142,0,0,1,3.141-3.142h9.687a3.142,3.142,0,0,1,3.142,3.142v9.687A3.142,3.142,0,0,1,48.971,92.3H39.284a3.142,3.142,0,0,1-3.141-3.142Zm16,31.8A3.142,3.142,0,0,1,49,114.419H39.313a3.142,3.142,0,0,1-3.142-3.142V101.59a3.142,3.142,0,0,1,3.142-3.141H49a3.142,3.142,0,0,1,3.142,3.141ZM50.627,19.854a5.292,5.292,0,1,1,5.292,5.292A5.308,5.308,0,0,1,50.627,19.854Zm7.932,15.387A3.142,3.142,0,0,1,61.7,32.1h9.687a3.142,3.142,0,0,1,3.142,3.142v9.687a3.142,3.142,0,0,1-3.142,3.142H61.7a3.142,3.142,0,0,1-3.142-3.142Zm.029,22.116a3.141,3.141,0,0,1,3.141-3.141h9.687a3.141,3.141,0,0,1,3.142,3.141v9.687a3.142,3.142,0,0,1-3.142,3.142H61.729a3.142,3.142,0,0,1-3.141-3.142Zm.028,22.117a3.142,3.142,0,0,1,3.142-3.142h9.687a3.142,3.142,0,0,1,3.142,3.142v9.687A3.142,3.142,0,0,1,71.445,92.3H61.758a3.142,3.142,0,0,1-3.142-3.142Zm16,31.8a3.142,3.142,0,0,1-3.141,3.142H61.787a3.142,3.142,0,0,1-3.142-3.142V101.59a3.142,3.142,0,0,1,3.142-3.141h9.687a3.141,3.141,0,0,1,3.141,3.141Zm-1.97-86.131a5.292,5.292,0,1,1,5.291-5.292A5.308,5.308,0,0,1,72.645,25.146Zm8.388,10.095A3.142,3.142,0,0,1,84.175,32.1h9.687A3.142,3.142,0,0,1,97,35.241v9.687a3.142,3.142,0,0,1-3.141,3.142H84.175a3.142,3.142,0,0,1-3.142-3.142Zm.028,22.116A3.142,3.142,0,0,1,84.2,54.216H93.89a3.142,3.142,0,0,1,3.142,3.141v9.687a3.142,3.142,0,0,1-3.142,3.142H84.2a3.142,3.142,0,0,1-3.142-3.142Zm.029,22.117a3.142,3.142,0,0,1,3.142-3.142h9.687a3.142,3.142,0,0,1,3.141,3.142v9.687A3.142,3.142,0,0,1,93.919,92.3H84.232a3.142,3.142,0,0,1-3.142-3.142Zm16,31.8a3.142,3.142,0,0,1-3.142,3.142H84.26a3.142,3.142,0,0,1-3.141-3.142V101.59a3.141,3.141,0,0,1,3.141-3.141h9.687a3.141,3.141,0,0,1,3.142,3.141Zm12.008-.5h0a5.292,5.292,0,1,1,0-10.584h0a5.292,5.292,0,0,1,0,10.584Zm0-16.726h0a5.292,5.292,0,1,1,0-10.584h0a5.292,5.292,0,0,1,0,10.584Zm0-16.726h0a5.292,5.292,0,1,1,0-10.584h0a5.292,5.292,0,0,1,0,10.584Zm0-16.726h0a5.292,5.292,0,1,1,0-10.584h0a5.292,5.292,0,0,1,0,10.584Zm0-16.726h0a5.292,5.292,0,1,1,0-10.584h0a5.292,5.292,0,0,1,0,10.584Zm5.291-18.2H103.833a1.5,1.5,0,0,1,0-3h10.555a1.5,1.5,0,0,1,0,3Zm0-8H103.833a1.5,1.5,0,1,1,0-3h10.555a1.5,1.5,0,0,1,0,3Z"></path></svg>