<svg height='100px' width='100px'  fill="#000000" xmlns="http://www.w3.org/2000/svg" xmlns:xlink="http://www.w3.org/1999/xlink" version="1.1" x="0px" y="0px" viewBox="0 0 100 100" style="enable-background:new 0 0 100 100;" xml:space="preserve"><g><g><g><g><g><g><path d="M68.68,91.76c-2.64,0-7.13-1.13-11.47-2.21c-3.1-0.78-6.62-1.66-7.9-1.66s-4.79,0.88-7.9,1.66        c-4.34,1.09-8.83,2.21-11.47,2.21c-7.51,0-13.62-6.11-13.62-13.62c0-0.2,0.02-0.4,0.05-0.61l0.01-0.11        c-0.08-7.05,6.1-11.58,13.57-16.36c0.86-0.54,1.56-1.3,2.04-2.21c4.19-7.93,10.8-11.68,15.58-12.55        c0.17-0.03,0.36-0.06,0.55-0.08c0.03-0.01,0.11-0.01,0.18-0.02c0.7-0.08,1.26-0.08,1.89-0.01c0.11,0.01,0.21,0.02,0.32,0.04        c0.16,0.02,0.34,0.04,0.53,0.08l0.12,0.02c0.16,0.03,0.31,0.06,0.46,0.1c5.98,1.38,11.61,6.03,14.98,12.42        c0.48,0.91,1.18,1.67,2.03,2.21c1.13,0.72,2.19,1.35,3.18,1.94c5.32,3.16,9.52,5.66,10.31,13.85l0.03,0.19        c0.08,0.48,0.13,0.82,0.13,1.1C82.31,85.65,76.19,91.76,68.68,91.76z M49.31,83.89c1.77,0,5.06,0.82,8.87,1.78        c3.92,0.98,8.36,2.09,10.5,2.09c5.31,0,9.62-4.32,9.62-9.62c-0.01-0.06-0.05-0.29-0.08-0.46c-0.03-0.19-0.05-0.35-0.06-0.41        c-0.59-6.19-3.36-7.84-8.37-10.82c-1.03-0.61-2.13-1.27-3.28-2.01c-1.43-0.9-2.62-2.19-3.42-3.71        c-3.35-6.33-8.61-9.53-12.41-10.41l-0.38-0.07c-0.09-0.02-0.2-0.03-0.3-0.04c-0.02,0-0.05-0.01-0.08-0.01        c-0.03,0-0.06,0-0.1-0.01c-0.35-0.04-0.67-0.04-1.02,0l0,0c-0.06,0.01-0.12,0.01-0.15,0.02c-0.13,0.02-0.24,0.03-0.34,0.05        c-3.7,0.67-9.25,3.81-12.77,10.48c-0.81,1.53-1.99,2.81-3.43,3.72c-6.67,4.26-11.77,7.93-11.71,12.98        c0,0.25-0.02,0.48-0.06,0.71c-0.01,5.32,4.31,9.63,9.61,9.63c2.14,0,6.58-1.11,10.5-2.09C44.25,84.71,47.54,83.89,49.31,83.89        z M50.05,50.19C50.05,50.19,50.05,50.19,50.05,50.19C50.05,50.19,50.05,50.19,50.05,50.19z M50.02,50.19c0.01,0,0.02,0,0.03,0        C50.04,50.19,50.03,50.19,50.02,50.19z M50.02,50.19C50.02,50.19,50.02,50.19,50.02,50.19        C50.02,50.19,50.02,50.19,50.02,50.19z"></path></g></g></g><g><g><g><path d="M36.64,39.1c-5.74,0-11.14-6.44-12.57-15.29c-0.82-5.02-0.2-8.97,1.83-11.74c1.5-2.04,3.72-3.32,6.44-3.71        C38.03,7.54,44.46,11,46.02,20.57c0,0,0,0,0,0c0.94,5.77-0.05,11.32-2.65,14.85c-1.5,2.04-3.44,3.28-5.63,3.6        C37.38,39.08,37.01,39.1,36.64,39.1z M33.99,12.24c-0.36,0-0.72,0.03-1.07,0.08c-1.66,0.24-2.93,0.95-3.79,2.12        c-1.35,1.84-1.74,4.86-1.11,8.73c1.25,7.73,5.74,12.39,9.15,11.89c1.12-0.16,2.12-0.84,2.98-2.01        c1.94-2.65,2.68-7.19,1.92-11.85v0C40.99,14.56,37.36,12.24,33.99,12.24z"></path></g></g></g><g><g><g><path d="M18.39,61.47c-5.58,0-11.02-6.19-12.77-14.88c-0.88-4.39-0.44-7.93,1.32-10.54c1.52-2.25,3.91-3.69,7.12-4.28        c3.95-0.74,10.91-0.31,13.14,10.75c1.17,5.8,0.4,11.43-2.06,15.07c-1.39,2.06-3.25,3.35-5.37,3.75        C19.3,61.43,18.84,61.47,18.39,61.47z M16.59,35.52c-0.61,0-1.22,0.08-1.81,0.19c-2.11,0.39-3.64,1.26-4.53,2.59        c-1.14,1.68-1.38,4.21-0.71,7.51c1.53,7.6,6.23,12.21,9.49,11.61c1.06-0.2,2-0.89,2.79-2.06c1.84-2.73,2.4-7.34,1.45-12.04        l0,0C21.98,36.94,19.25,35.52,16.59,35.52z"></path></g></g></g><g><g><g><path d="M63.27,39.1c-0.36,0-0.73-0.03-1.1-0.08c-2.19-0.32-4.13-1.56-5.63-3.6c-2.59-3.53-3.58-9.09-2.65-14.85        c1.55-9.58,7.99-13.03,13.67-12.21c2.72,0.39,4.95,1.68,6.44,3.72c2.03,2.77,2.65,6.72,1.83,11.74        C74.4,32.67,69.01,39.1,63.27,39.1z M65.92,12.24c-3.37,0-7,2.32-8.08,8.97c-0.76,4.66-0.02,9.2,1.92,11.85        c0.86,1.17,1.86,1.85,2.98,2.01c3.42,0.5,7.9-4.17,9.15-11.9c0.63-3.87,0.24-6.89-1.11-8.73c-0.86-1.17-2.13-1.88-3.79-2.12        C66.64,12.27,66.28,12.24,65.92,12.24z"></path></g></g></g><g><g><g><path d="M81.52,61.47c-0.46,0-0.91-0.04-1.37-0.13c-2.12-0.39-3.98-1.69-5.37-3.75c-2.46-3.64-3.23-9.27-2.06-15.07l0,0        c1.93-9.57,8.49-12.8,14.14-11.75c2.61,0.48,4.72,1.81,6.09,3.85c1.92,2.84,2.37,6.87,1.34,11.97        C92.54,55.28,87.1,61.47,81.52,61.47z M76.64,43.32c-0.95,4.7-0.39,9.31,1.45,12.04c0.79,1.17,1.73,1.86,2.79,2.06        c3.26,0.6,7.96-4.02,9.49-11.61c0.8-3.96,0.54-7.05-0.74-8.94c-0.77-1.14-1.95-1.87-3.51-2.16        C82.51,34.03,78.13,35.95,76.64,43.32L76.64,43.32z"></path></g></g></g></g><g><g><g><path d="M20.87,52.3c-0.01,0-0.01,0-0.02,0c-0.55-0.01-0.99-0.47-0.98-1.02c0.23-10.55-4.35-12.13-4.39-12.14       c-0.53-0.15-0.84-0.7-0.69-1.23c0.15-0.53,0.7-0.84,1.23-0.69c0.25,0.07,6.12,1.85,5.86,14.11       C21.86,51.87,21.41,52.3,20.87,52.3z"></path></g></g></g><g><g><g><path d="M38.62,32.17c-0.08,0-0.17-0.01-0.25-0.03c-0.53-0.14-0.85-0.69-0.71-1.22c3.13-11.92-4.25-15.43-4.32-15.46       c-0.5-0.23-0.73-0.82-0.5-1.32c0.23-0.5,0.82-0.73,1.32-0.5c0.09,0.04,8.98,4.25,5.43,17.79       C39.47,31.88,39.06,32.17,38.62,32.17z"></path></g></g></g><g><g><g><path d="M64.87,33.05c-0.21,0-0.42-0.06-0.59-0.2c-0.44-0.33-0.54-0.96-0.21-1.4c7.28-9.83,2.71-16.03,2.52-16.29       c-0.33-0.44-0.25-1.06,0.18-1.4c0.43-0.34,1.06-0.26,1.4,0.17c0.24,0.31,5.74,7.6-2.49,18.71       C65.47,32.91,65.17,33.05,64.87,33.05z"></path></g></g></g><g><g><g><path d="M82.5,55.42c-0.28,0-0.57-0.12-0.76-0.35c-0.36-0.42-0.31-1.05,0.12-1.41c6.82-5.78,4.45-15.14,4.43-15.23       c-0.14-0.53,0.18-1.08,0.71-1.22c0.53-0.14,1.08,0.18,1.22,0.71c0.11,0.43,2.7,10.69-5.07,17.27       C82.95,55.35,82.72,55.42,82.5,55.42z"></path></g></g></g></g></g></svg>