<svg height='100px' width='100px'  fill="#000000" xmlns="http://www.w3.org/2000/svg" xmlns:xlink="http://www.w3.org/1999/xlink" version="1.1" x="0px" y="0px" viewBox="0 0 100 100" enable-background="new 0 0 100 100" xml:space="preserve"><rect x="47.104" y="39.356" stroke="#000000" stroke-miterlimit="10" width="5.792" height="44.893"></rect><rect x="7.571" y="33.962" stroke="#000000" stroke-miterlimit="10" width="84.857" height="7.662"></rect><rect x="4.386" y="89.994" stroke="#000000" stroke-miterlimit="10" width="91.229" height="7.664"></rect><g><path d="M50,2.379L7.823,34h84.354L50,2.379z M50,32.146c-3.955,0-7.161-2.964-7.161-6.622s3.206-6.622,7.161-6.622   c3.954,0,7.159,2.964,7.159,6.622S53.954,32.146,50,32.146z"></path></g><rect x="7.571" y="82.156" stroke="#000000" stroke-miterlimit="10" width="84.857" height="7.663"></rect><rect x="12.861" y="41.272" stroke="#000000" stroke-miterlimit="10" width="74.276" height="7.662"></rect><rect x="47.104" y="39.356" stroke="#000000" stroke-miterlimit="10" width="5.791" height="44.893"></rect><rect x="47.104" y="49.494" stroke="#000000" stroke-miterlimit="10" width="5.791" height="31.892"></rect><rect x="61.958" y="48.911" stroke="#000000" stroke-miterlimit="10" width="5.793" height="32.892"></rect><rect x="76.815" y="49.103" stroke="#000000" stroke-miterlimit="10" width="5.791" height="32.892"></rect><rect x="32.248" y="48.911" stroke="#000000" stroke-miterlimit="10" width="5.793" height="32.892"></rect><rect x="15.899" y="48.911" stroke="#000000" stroke-miterlimit="10" width="5.792" height="32.892"></rect></svg>