<svg height='100px' width='100px'  fill="#000000" xmlns:dc="http://purl.org/dc/elements/1.1/" xmlns:cc="http://creativecommons.org/ns#" xmlns:rdf="http://www.w3.org/1999/02/22-rdf-syntax-ns#" xmlns:svg="http://www.w3.org/2000/svg" xmlns="http://www.w3.org/2000/svg" xmlns:sodipodi="http://sodipodi.sourceforge.net/DTD/sodipodi-0.dtd" xmlns:inkscape="http://www.inkscape.org/namespaces/inkscape" viewBox="0 0 16.933333 16.933334" version="1.1" x="0px" y="0px"><g transform="translate(0,-280.06665)"><path style="color:#000000;font-style:normal;font-variant:normal;font-weight:normal;font-stretch:normal;font-size:medium;line-height:normal;font-family:sans-serif;font-variant-ligatures:normal;font-variant-position:normal;font-variant-caps:normal;font-variant-numeric:normal;font-variant-alternates:normal;font-feature-settings:normal;text-indent:0;text-align:start;text-decoration:none;text-decoration-line:none;text-decoration-style:solid;text-decoration-color:#000000;letter-spacing:normal;word-spacing:normal;text-transform:none;writing-mode:lr-tb;direction:ltr;text-orientation:mixed;dominant-baseline:auto;baseline-shift:baseline;text-anchor:start;white-space:normal;shape-padding:0;clip-rule:nonzero;display:inline;overflow:visible;visibility:visible;opacity:1;isolation:auto;mix-blend-mode:normal;color-interpolation:sRGB;color-interpolation-filters:linearRGB;solid-color:#000000;solid-opacity:1;vector-effect:none;fill:#000000;fill-opacity:1;fill-rule:nonzero;stroke:none;stroke-width:0.8589626;stroke-linecap:butt;stroke-linejoin:round;stroke-miterlimit:4;stroke-dasharray:none;stroke-dashoffset:0;stroke-opacity:1;paint-order:fill markers stroke;color-rendering:auto;image-rendering:auto;shape-rendering:auto;text-rendering:auto;enable-background:accumulate" d="m 8.4667054,284.74192 c -0.8253318,0 -1.6507161,0.1967 -2.3935686,0.59016 -1.4857061,0.78692 -2.4209527,2.25975 -2.4209527,3.86352 h -1.339e-4 a 1.5667267,1.5667267 0 0 0 -0.081639,-0.004 1.5667267,1.5667267 0 0 0 -1.1891637,0.5476 v 2.03638 a 1.5667267,1.5667267 0 0 0 1.1891637,0.54943 1.5667267,1.5667267 0 0 0 0.081639,-0.003 h 0.858924 v -3.12639 h -6.43e-5 c 2.47e-5,-1.27073 0.7364922,-2.454 1.9642957,-3.10432 1.2278249,-0.65034 2.7551543,-0.65034 3.9829794,0 1.227825,0.65033 1.964233,1.83363 1.964233,3.10439 v 3.12632 h 0.858861 a 1.5667267,1.5667267 0 0 0 0.08164,0.003 1.5667267,1.5667267 0 0 0 1.189164,-0.54943 v -2.03638 a 1.5667267,1.5667267 0 0 0 -1.189164,-0.5476 1.5667267,1.5667267 0 0 0 -0.08164,0.004 v -7e-5 h -6.4e-5 c -2.4e-5,-1.60373 -0.935329,-3.07654 -2.421015,-3.86345 -0.742853,-0.39346 -1.5681736,-0.59016 -2.3935053,-0.59016 z"></path></g></svg>