<svg height='100px' width='100px'  fill="#000000" xmlns="http://www.w3.org/2000/svg" viewBox="0 0 66 66" x="0px" y="0px"><title>Artboard 1</title><path d="M28,59H38a1,1,0,0,0,0-2H28a1,1,0,0,0,0,2Z"></path><path d="M60,1H6A5,5,0,0,0,1,6V46a5,5,0,0,0,5,5H23.56l-2.25,6H21a4,4,0,0,0,0,8H45a4,4,0,0,0,0-8h-.31l-2.25-6H60a5,5,0,0,0,5-5V6A5,5,0,0,0,60,1ZM6,3H60a3,3,0,0,1,3,3V43H3V6A3,3,0,0,1,6,3ZM43.06,58.35A1,1,0,0,0,44,59h1a2,2,0,0,1,0,4H21a2,2,0,0,1,0-4h1a1,1,0,0,0,.94-.65L25.69,51H40.31ZM60,49H6a3,3,0,0,1-3-3V45H63v1A3,3,0,0,1,60,49Z"></path><path d="M30,41h6a1,1,0,0,0,1-1V12a1,1,0,0,0-.14-.51l-3-5a1,1,0,0,0-1.72,0l-3,5A1,1,0,0,0,29,12V40A1,1,0,0,0,30,41Zm1-2V35h4v4ZM33,8.94l2,3.34V33H31V12.28Z"></path><path d="M42,41H52a1,1,0,0,0,1-1V7a1,1,0,0,0-1-1H42a1,1,0,0,0-1,1V40A1,1,0,0,0,42,41ZM51,8V39H43V37h4a1,1,0,0,0,0-2H43V29h3a1,1,0,0,0,0-2H43V21h4a1,1,0,0,0,0-2H43V13h3a1,1,0,0,0,0-2H43V8Z"></path><path d="M13,41a1,1,0,0,0,1-1V14H24a1,1,0,0,0,0-2H14V8H24a1,1,0,0,0,0-2H13a1,1,0,0,0-1,1V40A1,1,0,0,0,13,41Z"></path><path d="M24,18H18a1,1,0,0,0,0,2h6a1,1,0,0,0,0-2Z"></path><path d="M18,26h3a1,1,0,0,0,0-2H18a1,1,0,0,0,0,2Z"></path><path d="M24,30H18a1,1,0,0,0,0,2h6a1,1,0,0,0,0-2Z"></path><path d="M21,36H18a1,1,0,0,0,0,2h3a1,1,0,0,0,0-2Z"></path></svg>