<svg height='100px' width='100px'  fill="#000000" xmlns="http://www.w3.org/2000/svg" xmlns:xlink="http://www.w3.org/1999/xlink" version="1.1" x="0px" y="0px" viewBox="0 0 70 70" style="enable-background:new 0 0 70 70;" xml:space="preserve"><style type="text/css">
	.st0{fill:none;}
</style><g><path d="M21.80127,33.89722h26.39679c0.91638,0,1.69159-0.67761,1.81403-1.58582l1.47375-10.93036   c0.0907-0.67267-0.21875-1.32013-0.76526-1.72266c-4.17627-3.07587-6.62854-8.0141-6.9953-15.20544   C43.68402,3.64484,43.03772,3,42.22852,3c-0.78809,0-1.4491,0.61462-1.49219,1.40155   c-0.69324,12.66052-10.78003,12.66052-11.47326,0C29.21997,3.61462,28.55896,3,27.77088,3   c-0.8092,0-1.45557,0.64484-1.49677,1.45294c-0.36676,7.19135-2.81909,12.12958-6.9953,15.20544   c-0.54651,0.40253-0.85596,1.04999-0.76526,1.72266l1.47375,10.93036C20.10974,33.2196,20.88489,33.89722,21.80127,33.89722z"></path><path d="M49.63,38.38245c-0.20001-0.35004-0.58002-0.57001-0.98004-0.57001H21.34998c-0.39996,0-0.77997,0.21997-0.97998,0.57001   c-3.78003,6.81-5.44,14.37-4.82001,22.72998h18.35998L35,55.18243l1.08997,5.92999h18.36005   C55.07001,52.75244,53.40997,45.19244,49.63,38.38245z"></path><path d="M16.0929,65.63599C16.22193,66.42322,16.91797,67,17.71576,67h13.75092c0.79065,0,1.46844-0.56482,1.61102-1.34247   l0.46643-2.54327H15.74164C15.8374,63.94733,15.95386,64.78766,16.0929,65.63599z"></path><path d="M36.92163,65.65753C37.06427,66.43518,37.74207,67,38.53271,67h13.75092c0.79773,0,1.49384-0.57678,1.62286-1.36401   c0.13904-0.84833,0.25543-1.68866,0.35126-2.52173H36.45526L36.92163,65.65753z"></path></g></svg>