<svg height='100px' width='100px'  fill="#000000" xmlns="http://www.w3.org/2000/svg" data-name="Слой 1" viewBox="0 0 276.87299 295.78454" x="0px" y="0px"><title>24</title><path d="M295,214.03955c7.45142,0,13.304-8.13672,13.304-18.55719a24.519,24.519,0,0,0-.59943-5.5102,20.44346,20.44346,0,0,0-2.11279-5.824c-2.39807-4.42517-6.22382-7.223-10.5918-7.223-4.39673,0-8.22223,2.79779-10.62048,7.223a20.44476,20.44476,0,0,0-2.11261,5.824,24.50517,24.50517,0,0,0-.59943,5.5102C281.66745,205.90283,287.52005,214.03955,295,214.03955ZM288.17661,189.858a12.74066,12.74066,0,0,1,3.28326-5.7099A5.20882,5.20882,0,0,1,295,182.63507a5.26307,5.26307,0,0,1,3.54016,1.51306,12.71087,12.71087,0,0,1,3.25464,5.7099,19.68362,19.68362,0,0,1,.79932,5.62433c0,6.96606-3.483,12.84729-7.59412,12.84729-4.13971,0-7.62262-5.88123-7.62262-12.84729A19.68575,19.68575,0,0,1,288.17661,189.858Z" transform="translate(-156.56351 -147.10773)"></path><path d="M270.51328,298.21643c12.04486-.24231,18.59368-3.28162,22.16015-6.48773h5.45966c3.5672,3.20666,10.11578,6.24664,22.165,6.48791a1.51944,1.51944,0,0,0,1.55743-1.51331V285.69763a1.68933,1.68933,0,0,0-.028-.278c.01465-.18213.028-.36474.028-.55053a6.87979,6.87979,0,0,0-6.85962-6.85968H275.8082a6.87983,6.87983,0,0,0-6.85962,6.85968c0,.04608.006.09063.007.13647-.00055.02271-.007.03577-.007.05939v11.63122A1.52647,1.52647,0,0,0,270.51328,298.21643Z" transform="translate(-156.56351 -147.10773)"></path><path d="M420.38937,306.79681H359.893a13.05906,13.05906,0,0,0-11.848,7.62268h-6.33807a44.41861,44.41861,0,0,0,8.308-25.95154V277.53357a10.38072,10.38072,0,0,0,4.8819,1.199h1.85577a10.60632,10.60632,0,0,0,10.59174-10.59192v-16.1875a10.58813,10.58813,0,0,0-10.59174-10.59192h-1.85577a10.37872,10.37872,0,0,0-4.8819,1.19922v-13.4469q0-1.28466-.08569-2.56933c32.66058-4.08277,35.42981-31.49024,35.45843-31.8042a2.85,2.85,0,0,0-1.62738-2.82636c-.37115-.17132-35.97229-17.07275-50.1043-43.02417a2.85217,2.85217,0,0,0-2.14124-1.48462c-1.0849-.1427-24.86652-2.88354-36.51477,11.5625-11.67682-14.446-35.45844-11.7052-36.51489-11.5625a2.952,2.952,0,0,0-2.16962,1.48462c-14.10345,25.95142-49.73334,42.85285-50.07593,43.02417a2.85019,2.85019,0,0,0-1.62738,2.82636c0,.314,2.798,27.72143,35.45862,31.8042q-.0857,1.28466-.08575,2.56933v13.4469a10.37886,10.37886,0,0,0-4.88184-1.19922h-1.85577a10.58828,10.58828,0,0,0-10.59192,10.59192v16.1875a10.60647,10.60647,0,0,0,10.59192,10.59192h1.85577a10.38087,10.38087,0,0,0,4.88184-1.199v10.93438a44.41866,44.41866,0,0,0,8.308,25.95154H241.955a13.05913,13.05913,0,0,0-11.848-7.62268h-60.4964A13.06154,13.06154,0,0,0,156.56351,319.844v5.76685a13.011,13.011,0,0,0,6.16656,11.07727,32.53889,32.53889,0,0,0-1.68426,10.3349v63.23718a32.67819,32.67819,0,0,0,32.632,32.63208H396.32217a32.6783,32.6783,0,0,0,32.632-32.63208V347.023a32.54256,32.54256,0,0,0-1.68432-10.3349,13.011,13.011,0,0,0,6.16662-11.07727V319.844A13.06154,13.06154,0,0,0,420.38937,306.79681Zm-65.49255-59.72565h1.85577a4.87972,4.87972,0,0,1,4.88184,4.882v16.1875a4.87971,4.87971,0,0,1-4.88184,4.882h-1.85577a4.89811,4.89811,0,0,1-4.8819-4.882v-16.1875A4.89812,4.89812,0,0,1,354.89682,247.07116ZM210.6077,196.13891c7.76538-3.93982,36.40057-19.61346,49.99017-43.16681,5.33874-.37115,24.60968-.65655,31.88977,12.47614a2.63221,2.63221,0,0,0,.48529.628,2.76219,2.76219,0,0,0,1.31329.74231,4.34059,4.34059,0,0,0,.59949.08575h.05713a3.2901,3.2901,0,0,0,.74231-.08575,1.52916,1.52916,0,0,0,.314-.1427.48547.48547,0,0,0,.19983-.02857c.05719-.02862.11413-.08557.17132-.11413.11432-.08576.22846-.14276.34259-.22846a.53972.53972,0,0,0,.28558-.22845.75816.75816,0,0,0,.1427-.17127,1.74545,1.74545,0,0,0,.3426-.45672c7.28009-13.13269,26.551-12.84729,31.91833-12.47614,13.58954,23.58191,42.22461,39.227,49.99017,43.16681-1.11346,5.62421-6.48077,21.78333-30.14825,24.69544-.99933.1427-1.99854.22827-3.05481.314H243.81076c-1.05633-.08569-2.08423-.17126-3.05481-.314C217.23117,217.9508,211.77811,201.76312,210.6077,196.13891Zm36.08661,44.50861V226.85821h96.58282v13.78931Zm95.52648,5.7099c-4.311,4.65356-21.81182,9.99231-47.22082,9.99231-25.43768,0-42.93854-5.33875-47.24939-9.99231ZM235.10318,273.0227h-1.85577a4.87986,4.87986,0,0,1-4.882-4.882v-16.1875a4.87987,4.87987,0,0,1,4.882-4.882h1.85577a4.89823,4.89823,0,0,1,4.88184,4.882v16.1875A4.89822,4.89822,0,0,1,235.10318,273.0227Zm10.59174,15.44525v-36.4862c8.936,6.6521,29.20611,10.07788,49.30505,10.07788s40.39746-3.42578,49.305-10.07788v36.4862a39.05774,39.05774,0,0,1-9.59277,25.69452c-.08551.08576-.1427.17145-.22827.257a39.89922,39.89922,0,0,1-5.56714,5.19605q-.34267.25689-.68518.51385a38.98054,38.98054,0,0,1-22.81122,7.59412H284.57938a38.97971,38.97971,0,0,1-22.811-7.59412q-.34268-.25689-.68518-.51385a39.903,39.903,0,0,1-5.5672-5.19605c-.08551-.08557-.1427-.17126-.22845-.257A39.05852,39.05852,0,0,1,245.69492,288.46795Zm87.7326,34.859-16.33026,24.66681-8.47913-14.70306A44.89262,44.89262,0,0,0,333.42752,323.327Zm-52.04571,9.96375-8.47913,14.70306L256.5723,323.327A44.89371,44.89371,0,0,0,281.38181,333.29071Zm-119.1084-7.67987V319.844a7.33483,7.33483,0,0,1,7.33722-7.33728H230.107a7.33971,7.33971,0,0,1,7.33709,7.33728v5.76685a7.35923,7.35923,0,0,1-7.33709,7.36584h-60.4964a7.3436,7.3436,0,0,1-7.33722-7.36584ZM423.24429,347.023v63.23718a26.95156,26.95156,0,0,1-26.92212,26.92218H193.67783a26.95156,26.95156,0,0,1-26.92212-26.92218V347.023a26.56624,26.56624,0,0,1,1.3703-8.422,12.95962,12.95962,0,0,0,1.48462.08557H230.107a13.086,13.086,0,0,0,13.047-13.07574v-5.48145h4.45368L270.67575,355.017A2.86424,2.86424,0,0,0,273.074,356.273h.08557a2.83749,2.83749,0,0,0,2.36963-1.42749l12.362-21.41211h14.2176l12.362,21.41211a2.83743,2.83743,0,0,0,2.36945,1.42749h.08575a2.86424,2.86424,0,0,0,2.39826-1.25605l23.06787-34.88757h4.45367v5.48145A13.086,13.086,0,0,0,359.893,338.68658h60.4964a12.9621,12.9621,0,0,0,1.48462-.08557A26.56624,26.56624,0,0,1,423.24429,347.023Zm4.4823-21.41217a7.34369,7.34369,0,0,1-7.33722,7.36584H359.893a7.35935,7.35935,0,0,1-7.33728-7.36584V319.844a7.34,7.34,0,0,1,7.33728-7.33728h60.4964a7.335,7.335,0,0,1,7.33722,7.33728Z" transform="translate(-156.56351 -147.10773)"></path></svg>