<svg height='100px' width='100px'  fill="#000000" xmlns="http://www.w3.org/2000/svg" xmlns:xlink="http://www.w3.org/1999/xlink" version="1.1" x="0px" y="0px" viewBox="0 0 520 520" style="enable-background:new 0 0 520 520;" xml:space="preserve"><g><g><path d="M400.6,355.2l-8.7,51c-1.1,6.3,3.8,11.9,10.1,11.9c4.9,0,9.2-3.5,10-8.5l8.7-51c1-5.6-2.8-10.8-8.3-11.8    C406.9,345.9,401.6,349.6,400.6,355.2z"></path><path d="M177.5,50.8c5.6,0,10.2-4.6,10.2-10.2s-4.6-10.2-10.2-10.2c-5.6,0-10.2,4.6-10.2,10.2C167.3,46.3,171.9,50.8,177.5,50.8z"></path><path d="M473.4,71.2c-5.6,0-10.2,4.6-10.2,10.2s4.6,10.2,10.2,10.2s10.2-4.6,10.2-10.2C483.6,75.8,479,71.2,473.4,71.2z"></path><path d="M65.3,234.5c-5.6,0-10.2,4.6-10.2,10.2c0,5.6,4.6,10.2,10.2,10.2s10.2-4.6,10.2-10.2S70.9,234.5,65.3,234.5z"></path><path d="M259.1,265.1c5.6,0,10.2-4.6,10.2-10.2c0-5.6-4.6-10.2-10.2-10.2s-10.2,4.6-10.2,10.2    C248.9,260.5,253.5,265.1,259.1,265.1z"></path><polygon points="50.8,50.8 36.4,65.3 50.8,79.7 65.3,65.3   "></polygon><polygon points="320.3,46.6 305.9,32.2 291.5,46.6 305.9,61   "></polygon><polygon points="428.3,151.1 442.8,136.7 428.3,122.3 413.9,136.7   "></polygon><polygon points="104.3,352.7 89.9,338.3 75.5,352.7 89.9,367.1   "></polygon><path d="M447.9,254.9c-14.1,0-25.5,11.5-25.5,25.5c0,14.1,11.4,25.5,25.5,25.5s25.5-11.5,25.5-25.5    C473.4,266.3,461.9,254.9,447.9,254.9z M447.9,285.5c-2.8,0-5.1-2.3-5.1-5.1c0-2.8,2.3-5.1,5.1-5.1c2.8,0,5.1,2.3,5.1,5.1    S450.7,285.5,447.9,285.5z"></path><path d="M116.2,122.3c16.9,0,30.6-13.7,30.6-30.6s-13.7-30.6-30.6-30.6S85.6,74.8,85.6,91.7C85.6,108.5,99.4,122.3,116.2,122.3z     M116.2,81.4c5.6,0,10.2,4.6,10.2,10.2s-4.6,10.2-10.2,10.2S106,97.2,106,91.6S110.6,81.4,116.2,81.4z"></path><path d="M412.1,448.8h-39.3c38.9-272.4,9.9-69.6,39.1-274c0.9-6.2-3.9-11.7-10.1-11.7h-32c1-12.7-1-25.4-5.8-37.2L421.9,68    c4-4,4-10.4,0-14.4l-30.3-30.3c-4-4-10.4-4-14.4,0C349.5,51,359.1,41.4,357,43.5l0,0l-37.7,37.7c-29.1-11.8-64.3-6.4-88.6,17.9    l-64.1,64.1h-50.5c-6.2,0-11,5.5-10.1,11.7c8.6,60.4,1.1,7.9,39.2,274H95.8c-5.6,0-10.2,4.6-10.2,10.2c0,22.5,18.3,40.8,40.8,40.8    h255.1c22.5,0,40.8-18.3,40.8-40.8C422.3,453.3,417.8,448.8,412.1,448.8z M147,316.1h224.3l-4.4,30.6H151.3L147,316.1z     M400.4,60.7l-5.8,5.8l-15.9-15.9l5.8-5.8L400.4,60.7z M245.3,113.4c19.6-19.6,48.7-22.9,71.6-11c4,2.1,8.8,1.3,11.9-1.8    l35.5-35.5L380.2,81l-35.5,35.5c-3.2,3.2-3.9,8-1.8,11.9c5.6,10.7,7.8,22.8,6.6,34.7c-39.2,0-114.1,0-153.8,0L245.3,113.4z     M177.5,183.5h30.6v35.7c0,8.4-6.9,15.3-15.3,15.3c-8.4,0-15.3-6.9-15.3-15.3V183.5L177.5,183.5z M157.1,183.5v35.7    c0,19.7,16,35.7,35.7,35.7s35.7-16,35.7-35.7v-35.7c32.3,0,105,0,161.7,0l-8.7,61.2h-91.7c-5.6,0-10.2,4.6-10.2,10.2    c0,5.6,4.6,10.2,10.2,10.2h88.8l-4.4,30.6H144l-16-112.2L157.1,183.5L157.1,183.5z M161.5,418.2h128.2c5.6,0,10.2-4.6,10.2-10.2    s-4.6-10.2-10.2-10.2H158.6l-4.4-30.6h209.7l-11.7,81.6H165.9L161.5,418.2z M381.5,479.4h-255c-7.5,0-14.1-4.1-17.7-10.2    c33.2,0,254.5,0,290.4,0C395.7,475.3,389.1,479.4,381.5,479.4z"></path><path d="M256.1,149.9l20.4-20.4c4-4,4-10.4,0-14.4s-10.4-4-14.4,0l-20.4,20.4c-4,4-4,10.4,0,14.4    C245.7,153.9,252.1,153.9,256.1,149.9z"></path></g></g></svg>