<svg height='100px' width='100px'  fill="#000000" xmlns="http://www.w3.org/2000/svg" xmlns:xlink="http://www.w3.org/1999/xlink" version="1.1" x="0px" y="0px" viewBox="0 0 100 100" enable-background="new 0 0 100 100" xml:space="preserve"><path d="M90.938,71.656c0.583-9.218-4.335-27.559-20.857-27.559H55.076c-1.886-2.543-3.306-17.764-3.557-30.84  c0-3.387-3.505-6.045-7.995-6.08C35.46,6.484,16.522,5.24,12.778,8.394c-0.824,0.694-1.116,1.487-1.098,2.032  C12.521,36.063,6.23,43.333,5.584,54.53C5.25,60.314,6.9,66.266,9.137,71.328C6.931,73.57,6.65,79.657,6.65,82.597  c0,1.104,0.896,2,2,2h1.762c0.631,5.1,4.99,9.061,10.258,9.061s9.627-3.961,10.258-9.061H41.49c0.631,5.1,4.99,9.061,10.258,9.061  s9.627-3.961,10.258-9.061h7.788c0.631,5.1,4.99,9.061,10.258,9.061s9.627-3.961,10.258-9.061h2.149c1.104,0,2-0.896,2-2  C94.459,81.294,93.419,74.43,90.938,71.656z M57.573,48.097l-0.842,2.544c-1.998,0.425-3.501,2.202-3.501,4.324  c0,2.438,1.982,4.421,4.42,4.421s4.421-1.983,4.421-4.421c0-2.033-1.38-3.75-3.253-4.264l0.862-2.604h8.82l-0.694,2.546  c-1.994,0.427-3.494,2.203-3.494,4.322c0,2.438,1.983,4.421,4.421,4.421s4.421-1.983,4.421-4.421c0-2.046-1.397-3.771-3.288-4.272  l0.702-2.576c16.161,0.431,16.538,20.633,16.211,24.36H25.07c2.576-5.11,2.563-11.168-0.094-16.887  c-2.704-5.819-7.604-10.104-13.11-11.614c0.82-2.303,2.213-8.912,2.343-10.07c1.156,0.917,2.785,1.584,4.308,1.584  c3.851,0,6.982-3.229,6.982-7.196v-4.652c0-2.826,2.471-5.305,5.288-5.305c0,0,15.967,0.05,16.869,0.036  c0.043,1.254,0.089,2.471,0.143,3.622l-12.57,2.695c-0.456,0.098-0.784,0.498-0.79,0.965l-0.092,7.006  c0.065,1.136,0.862,1.105,1.269,1.011l12.759-3.303c0.115,1.272,0.221,2.427,0.351,3.524l-13.272,4.067  c-0.432,0.132-0.721,0.537-0.706,0.988l0.192,5.919c0.045,0.759,0.623,1.071,1.244,0.976l13.887-3.994  c0.306,1.19,0.655,2.103,0.975,2.885l-5.212,5.633c-0.076,0.082-0.137,0.175-0.18,0.272c-2.001,0.423-3.507,2.201-3.507,4.325  c0,2.438,1.983,4.421,4.421,4.421s4.42-1.983,4.42-4.421c0-1.888-1.189-3.502-2.857-4.135l3.9-4.215  c1.035,1.477,2.009,1.482,2.627,1.482H57.573z M57.649,52.545c1.335,0,2.421,1.086,2.421,2.42c0,1.335-1.086,2.421-2.421,2.421  c-1.334,0-2.42-1.086-2.42-2.421C55.229,53.631,56.315,52.545,57.649,52.545z M68.732,52.545c1.335,0,2.421,1.086,2.421,2.42  c0,1.335-1.086,2.421-2.421,2.421s-2.421-1.086-2.421-2.421C66.312,53.631,67.397,52.545,68.732,52.545z M48.187,28.316  l-11.824,3.061l0.064-4.899l11.476-2.461C47.989,25.546,48.083,26.975,48.187,28.316z M49.656,39.849l-12.76,3.669l-0.126-3.87  l12.217-3.744C49.197,37.391,49.421,38.703,49.656,39.849z M46.567,52.545c1.334,0,2.42,1.086,2.42,2.42  c0,1.335-1.086,2.421-2.42,2.421c-1.335,0-2.421-1.086-2.421-2.421C44.146,53.631,45.232,52.545,46.567,52.545z M15.628,11.293  c2.764-1.314,27.749-0.116,27.807-0.116c2.456,0,4.085,0.792,4.085,2.118c0,1.059,0.044,2.083,0.072,3.078  c-0.86,0.013-16.804-0.036-16.804-0.036c-3.95,0-7.288,3.345-7.288,7.305v4.652c0,2.865-2.235,5.196-4.982,5.196  c-1.286,0-3.073-0.897-3.854-2.086C14.788,29.761,15.896,17.438,15.628,11.293z M11.241,45.881  c4.985,1.328,9.448,5.229,11.922,10.552c2.552,5.493,2.41,11.308-0.37,16.044H15.49C11.334,68.125,6.896,57.063,11.241,45.881z   M20.67,89.657c-3.057,0-5.615-2.176-6.207-5.061h12.414C26.285,87.482,23.727,89.657,20.67,89.657z M51.748,89.657  c-3.057,0-5.615-2.176-6.207-5.061h12.414C57.363,87.482,54.805,89.657,51.748,89.657z M80.052,89.657  c-3.057,0-5.615-2.176-6.207-5.061h12.414C85.667,87.482,83.108,89.657,80.052,89.657z M10.719,80.597  c0.162-2.506,0.588-5.088,1.03-6.12h76.377c0.672,0.904,1.664,3.775,2.107,6.12H10.719z"></path></svg>