<svg height='100px' width='100px'  fill="#000000" xmlns="http://www.w3.org/2000/svg" xmlns:xlink="http://www.w3.org/1999/xlink" xml:space="preserve" version="1.1" style="shape-rendering:geometricPrecision;text-rendering:geometricPrecision;image-rendering:optimizeQuality;" viewBox="0 0 846.66 846.66" x="0px" y="0px" fill-rule="evenodd" clip-rule="evenodd"><defs><style type="text/css">
   
    .fil0 {fill:#000000}
   
  </style></defs><g><path class="fil0" d="M317.13 85.57c127.08,0 230.09,96.43 230.09,149.47 0,62.9 -115.05,94.36 -230.09,94.36l26.01 0.76c-42.03,160.25 27.21,174.03 14.76,364.71 39.23,7.37 85.29,17.24 139.19,27.53 11.03,-39.18 14.57,-67.51 14.83,-90.62 -68.02,-4.6 -128.65,-25.77 -128.65,-63.52 0,-36.24 70.41,-102.15 157.26,-102.15 86.84,0 157.26,65.91 157.26,102.15 0,38.22 -62.16,59.44 -131.21,63.67 3.34,25.91 4.45,58.11 -0.46,102.97 56.9,9.7 121.12,19.01 193.52,26.19l-600.2 0c14.28,-60.21 45.18,-79.71 102.47,-78.64 40.96,-174.65 -30.97,-184.68 29.13,-353.62 -105.71,-4.41 -204.01,-35.65 -204.01,-93.79 0,-53.04 103.02,-149.47 230.1,-149.47z"></path></g></svg>