<svg height='100px' width='100px'  fill="#000000" xmlns:x="http://ns.adobe.com/Extensibility/1.0/" xmlns:i="http://ns.adobe.com/AdobeIllustrator/10.0/" xmlns:graph="http://ns.adobe.com/Graphs/1.0/" xmlns="http://www.w3.org/2000/svg" xmlns:xlink="http://www.w3.org/1999/xlink" version="1.1" x="0px" y="0px" viewBox="0 0 100 100" style="enable-background:new 0 0 100 100;" xml:space="preserve"><g><path d="M94.7,23.1L50.8,2.7c-0.5-0.2-1.1-0.2-1.6,0L5.3,23.1c-0.7,0.3-1.1,1-1.1,1.8v50.4c0,0.8,0.4,1.4,1.1,1.8l43.9,20.4    c0.5,0.2,1.1,0.2,1.6,0l43.9-20.4c0.7-0.3,1.1-1,1.1-1.8V24.8C95.8,24.1,95.4,23.4,94.7,23.1z M47.4,90.8L9.3,73.1V29.3l10.4,4.8    v22.7c0,1,0.6,1.9,1.4,2.3l12,5.9c0.4,0.2,0.8,0.3,1.1,0.3c0.5,0,0.9-0.1,1.4-0.4c0.8-0.5,1.2-1.3,1.2-2.2V42l10.6,4.9V90.8z     M31.7,39.6v18.9l-6.8-3.4V36.5L31.7,39.6z M27.9,32.2l15.9-7.4l6.1,3l-15.7,7.3L27.9,32.2z M50,42.5L40.3,38L57,30.2    c0.9-0.4,1.5-1.3,1.5-2.3c0-1-0.5-1.9-1.4-2.3l-12-5.9c-0.7-0.3-1.5-0.4-2.2,0l-21,9.7l-9-4.2L50,8l37.1,17.2L50,42.5z M90.7,73.1    L52.6,90.8V46.9l38.1-17.7V73.1z"></path></g></svg>