<svg height='100px' width='100px'  fill="#000000" xmlns="http://www.w3.org/2000/svg" xmlns:xlink="http://www.w3.org/1999/xlink" version="1.1" x="0px" y="0px" viewBox="0 0 32 32" enable-background="new 0 0 32 32" xml:space="preserve"><g><path d="M30,18c0.5527,0,1-0.4478,1-1V5c0-0.5522-0.4473-1-1-1h-5V3h1c0.5527,0,1-0.4478,1-1s-0.4473-1-1-1h-4   c-0.5527,0-1,0.4478-1,1s0.4473,1,1,1h1v1h-6V3h1c0.5527,0,1-0.4478,1-1s-0.4473-1-1-1h-4c-0.5527,0-1,0.4478-1,1s0.4473,1,1,1h1v1   H9V3h1c0.5527,0,1-0.4478,1-1s-0.4473-1-1-1H6C5.4473,1,5,1.4478,5,2s0.4473,1,1,1h1v1H2C1.4473,4,1,4.4478,1,5v12   c0,0.5522,0.4473,1,1,1h5v1H2c-0.5527,0-1,0.4478-1,1s0.4473,1,1,1h10v9c0,0.5522,0.4473,1,1,1h6c0.5527,0,1-0.4478,1-1v-9h10   c0.5527,0,1-0.4478,1-1s-0.4473-1-1-1h-5v-1H30z M3,6h26v10H3V6z M9,18h6v1h-2H9V18z M18,29h-4v-8h4V29z M23,19h-4h-2v-1h6V19z"></path></g></svg>