<svg height='100px' width='100px'  fill="#000000" xmlns:dc="http://purl.org/dc/elements/1.1/" xmlns:cc="http://creativecommons.org/ns#" xmlns:rdf="http://www.w3.org/1999/02/22-rdf-syntax-ns#" xmlns:svg="http://www.w3.org/2000/svg" xmlns="http://www.w3.org/2000/svg" xmlns:sodipodi="http://sodipodi.sourceforge.net/DTD/sodipodi-0.dtd" xmlns:inkscape="http://www.inkscape.org/namespaces/inkscape" viewBox="0 0 16.933333 16.933333" version="1.1" x="0px" y="0px"><g><path style="color:#000000;font-style:normal;font-variant:normal;font-weight:normal;font-stretch:normal;font-size:medium;line-height:normal;font-family:sans-serif;font-variant-ligatures:normal;font-variant-position:normal;font-variant-caps:normal;font-variant-numeric:normal;font-variant-alternates:normal;font-feature-settings:normal;text-indent:0;text-align:start;text-decoration:none;text-decoration-line:none;text-decoration-style:solid;text-decoration-color:#000000;letter-spacing:normal;word-spacing:normal;text-transform:none;writing-mode:lr-tb;direction:ltr;text-orientation:mixed;dominant-baseline:auto;baseline-shift:baseline;text-anchor:start;white-space:normal;shape-padding:0;clip-rule:nonzero;display:inline;overflow:visible;visibility:visible;opacity:1;isolation:auto;mix-blend-mode:normal;color-interpolation:sRGB;color-interpolation-filters:linearRGB;solid-color:#000000;solid-opacity:1;vector-effect:none;fill:#000000;fill-opacity:1;fill-rule:nonzero;stroke:none;stroke-width:0.52916664;stroke-linecap:round;stroke-linejoin:round;stroke-miterlimit:4;stroke-dasharray:none;stroke-dashoffset:0;stroke-opacity:1;color-rendering:auto;image-rendering:auto;shape-rendering:auto;text-rendering:auto;enable-background:accumulate" d="m 2.1169261,1.058333 c -0.58174,0 -1.05833,0.476573 -1.05833,1.058334 V 8.4666669 H 15.874737 V 2.116667 c 0,-0.58176 -0.4771,-1.058334 -1.05884,-1.058334 z m 5.8068796,1.058334 c 0.005,-2.36e-4 0.009,-2.36e-4 0.013399,0 H 8.996055 c 0.0727,-2.831e-4 0.1320101,0.05804 0.1328098,0.130741 v 0.639238 c 0.1013802,0.03096 0.19882,0.07366 0.2904202,0.119372 L 9.8709345,2.555916 c 0.0515,-0.05064 0.1340305,-0.05064 0.1855205,0 l 0.74776,0.748275 c 0.0519,0.05171 0.0519,0.135871 0,0.187586 l -0.44959,0.450618 c 0.0469,0.09212 0.089,0.193472 0.12196,0.2914549 h 0.636649 c 0.0727,-2.91e-4 0.132021,0.05804 0.13281,0.1307419 v 1.0588501 c 2.92e-4,0.07347 -0.0593,0.1330909 -0.13281,0.1328078 h -0.638199 c -0.032,0.0974 -0.0736,0.1986832 -0.11937,0.2904221 l 0.44855,0.4516522 c 0.0519,0.05172 0.0519,0.1358698 0,0.1875848 l -0.74776,0.747758 c -0.0515,0.05064 -0.1340306,0.05064 -0.1855207,0 L 9.4203147,6.7830488 c -0.1006001,0.05045 -0.18304,0.08674 -0.2924902,0.121439 l 0.00101,0.6361372 c 2.911e-4,0.07347 -0.0593,0.1330909 -0.1327999,0.1328078 h -1.058855 c -0.0735,2.911e-4 -0.1330999,-0.05934 -0.13281,-0.1328078 V 6.9024209 c -0.10517,-0.03297 -0.1991399,-0.07381 -0.2904201,-0.1193721 l -0.4516599,0.450618 c -0.0515,0.05064 -0.13403,0.05064 -0.18551,0 L 6.1264295,6.4859088 c -0.0519,-0.05172 -0.0519,-0.135871 0,-0.1875848 L 6.5796396,5.8466717 c -0.0455,-0.08546 -0.0939,-0.1981459 -0.1224799,-0.290422 H 5.8199896 c -0.0735,2.911e-4 -0.1330899,-0.05934 -0.1328099,-0.1328078 V 4.3645918 c 7.937e-4,-0.07271 0.0601,-0.1310247 0.1328099,-0.1307419 h 0.63924 c 0.0325,-0.09727 0.0736,-0.1978449 0.1198901,-0.289388 L 6.1264256,3.4917769 c -0.0519,-0.05172 -0.0519,-0.1358709 0,-0.187586 L 6.8767757,2.555916 c 0.0515,-0.05064 0.13403,-0.05064 0.1855099,0 l 0.4526899,0.4501019 c 0.0914,-0.04662 0.1922301,-0.08751 0.2893902,-0.1204059 V 2.247408 c 3.968e-4,-0.06767 0.052,-0.124011 0.1193699,-0.130741 z m 0.1462402,0.26355 V 2.98173 c 5.556e-4,0.06018 -0.0396,0.113433 -0.0977,0.129191 -0.14555,0.04128 -0.2847801,0.09934 -0.4159901,0.174667 -0.0512,0.02956 -0.1156798,0.02148 -0.1581298,-0.01964 l -0.4299501,-0.430465 -0.56017,0.56224 0.4273601,0.4278799 c 0.0427,0.04231 0.0518,0.1081291 0.021701,0.160197 -0.0746,0.131159 -0.1313699,0.2706891 -0.17208,0.4159962 -0.016499,0.05731 -0.069,0.0964 -0.12867,0.0956 h -0.60358 V 5.292696 h 0.60151 c 0.0589,8.39e-5 0.11083,0.03899 0.1271199,0.0956 0.0411,0.1457049 0.1005102,0.2866678 0.1757,0.418062 0.029,0.0516 0.02,0.1161439 -0.021701,0.1581298 l -0.4273601,0.427364 0.56017,0.5606892 0.42788,-0.425813 c 0.042,-0.04176 0.1065299,-0.05024 0.15813,-0.021191 0.13183,0.07426 0.27217,0.1314659 0.41806,0.1715659 0.0574,0.015571 0.0973,0.06767 0.0977,0.1271241 v 0.6056483 h 0.79272 V 6.8078442 c -5.557e-4,-0.06018 0.0396,-0.1129149 0.0977,-0.128674 0.1458698,-0.04106 0.28497,-0.0984 0.41651,-0.1736328 0.0521,-0.03006 0.11738,-0.021529 0.15968,0.021191 l 0.42788,0.4258125 0.5606903,-0.5606891 -0.42581,-0.4258138 c -0.0418,-0.04199 -0.0518,-0.1054952 -0.0227,-0.1570961 0.0743,-0.131989 0.133051,-0.2745761 0.17311,-0.4206459 0.0163,-0.05661 0.0682,-0.09552 0.12713,-0.0956 h 0.60358 v -0.7953 h -0.602029 c -0.0589,-8.41e-5 -0.11032,-0.03899 -0.12661,-0.0956 -0.0412,-0.1458942 -0.10031,-0.2865401 -0.1757,-0.4180631 -0.0301,-0.05207 -0.0215,-0.1178899 0.0212,-0.160197 l 0.427879,-0.425813 -0.5606905,-0.56224 -0.4278799,0.427881 c -0.042,0.04176 -0.10653,0.05024 -0.1581301,0.02119 -0.13198,-0.0743 -0.2719998,-0.131503 -0.4180599,-0.171566 -0.0581,-0.01576 -0.0982,-0.06901 -0.0977,-0.129191 v -0.60358 z m 0.3963599,1.5880158 c 0.5098701,0 0.9260401,0.415636 0.9260401,0.9255252 0,0.5098899 -0.41617,0.9281088 -0.9260401,0.9281088 -0.5098701,0 -0.9255201,-0.4182189 -0.9255201,-0.9281088 0,-0.5098892 0.41565,-0.9255252 0.9255201,-0.9255252 z m 0,0.265617 c -0.36688,0 -0.6599102,0.293015 -0.6599102,0.6599082 0,0.3668929 0.2930302,0.6624917 0.6599102,0.6624917 0.36688,0 0.6624902,-0.2955987 0.6624902,-0.6624917 0,-0.3668932 -0.2956102,-0.6599082 -0.6624902,-0.6599082 z M 1.0585961,8.7302167 v 0.7953002 c 0,0.5817611 0.4765897,1.0583331 1.05833,1.0583331 H 14.815897 c 0.58174,0 1.05884,-0.476572 1.05884,-1.0583331 V 8.7302167 Z m 5.7908595,2.1182163 c 0,1.057855 -0.6439199,2.989802 -0.7643,3.439067 h 4.7625004 c -0.12037,-0.449265 -0.76429,-2.381212 -0.76429,-3.439067 z m -2.08721,3.70365 c -0.14658,0 -0.26459,0.117999 -0.26459,0.264584 v 0.79375 c 0,0.146584 0.11801,0.264583 0.26459,0.264583 h 7.4083314 c 0.14658,0 0.26458,-0.117999 0.26458,-0.264583 v -0.79375 c 0,-0.146585 -0.118,-0.264584 -0.26458,-0.264584 z"></path></g></svg>