<svg height='100px' width='100px'  fill="#000000" xmlns="http://www.w3.org/2000/svg" xmlns:xlink="http://www.w3.org/1999/xlink" version="1.1" x="0px" y="0px" viewBox="0 0 50 50" enable-background="new 0 0 50 50" xml:space="preserve"><g><path d="M1,31.6v5.2c0,1.1,0.9,1.9,1.9,1.9h0.9v-9H2.9C1.9,29.7,1,30.6,1,31.6z"></path><path d="M7,24.6c0.2,1.8,1.5,3.1,2.9,3.5c0,0,0,0,0,0c0,0,0,0,0-0.1c-0.7-1.3-1-2.5-0.7-3.4c0.6-2.5,3.9-3.5,3.7-6.9   c-0.1-1.8-1.4-3.2-3-3.5c0.8,1.3,1,2.5,0.7,3.3C9.9,19.7,6.7,21.1,7,24.6z"></path><path d="M7.2,14.7c-0.1-1.8-1.4-3.2-3-3.5c0.8,1.3,1,2.5,0.7,3.3c-0.8,2.4-3.9,3.4-3.6,7c0.2,1.8,1.5,3.1,2.9,3.5c0,0,0,0,0,0   c0,0,0,0,0-0.1c-0.7-1.3-1-2.5-0.7-3.4C4.1,19.3,7.4,17.9,7.2,14.7z"></path><path d="M46,31c-20.3-1.6-34.3-1.2-40.2-1.3v9c5.8-0.1,19.9,0.4,40.1-1.2c1.3-0.1,2.6-0.9,3-2.2C49.5,33.2,48,31.2,46,31z    M25.4,37.9c-2,0-3.6-1.6-3.6-3.6s1.6-3.6,3.6-3.6c2,0,3.6,1.6,3.6,3.6S27.4,37.9,25.4,37.9z"></path><circle cx="25.4" cy="34.2" r="2.1"></circle></g></svg>