<svg height='100px' width='100px'  fill="#000000" xmlns="http://www.w3.org/2000/svg" data-name="Layer 3" viewBox="0 0 64 64" x="0px" y="0px"><title>xxx-western-alcohol-whisky-bottle-drink-food</title><path d="M33.465,18.05A4.967,4.967,0,0,1,32,14.515V9h1a1,1,0,0,0,1-1V2a1,1,0,0,0-1-1H23a1,1,0,0,0-1,1V8a1,1,0,0,0,1,1h1v5.515a4.967,4.967,0,0,1-1.465,3.535L20,20.586,17.465,18.05A4.967,4.967,0,0,1,16,14.515V9h1a1,1,0,0,0,1-1V2a1,1,0,0,0-1-1H7A1,1,0,0,0,6,2V8A1,1,0,0,0,7,9H8v5.515A4.967,4.967,0,0,1,6.535,18.05L3.051,21.535A6.955,6.955,0,0,0,1,26.485V60a3,3,0,0,0,3,3H36a3,3,0,0,0,3-3V26.485a6.951,6.951,0,0,0-2.051-4.949ZM24,3h8V7H24ZM8,3h8V7H8ZM4.465,22.95l3.484-3.485A6.955,6.955,0,0,0,10,14.515V9h4v5.515a6.951,6.951,0,0,0,2.051,4.949l3.484,3.486A4.967,4.967,0,0,1,21,26.485V27H3v-.515A4.967,4.967,0,0,1,4.465,22.95ZM31.293,47.707,33,49.414V51H23V33h2.586l1.707,1.707a1,1,0,0,0,1.414,0L30.414,33H33V44.586l-1.707,1.707A1,1,0,0,0,31.293,47.707ZM21,55H3V29H21Zm2-2H34a1,1,0,0,0,1-1V49a1,1,0,0,0-.293-.707L33.414,47l1.293-1.293A1,1,0,0,0,35,45V32a1,1,0,0,0-1-1H30a1,1,0,0,0-.707.293L28,32.586l-1.293-1.293A1,1,0,0,0,26,31H23V29H37V55H23Zm-4,8H4a1,1,0,0,1-1-1V57H21v3a1,1,0,0,1-1,1Zm17,0H22.816A2.966,2.966,0,0,0,23,60V57H37v3A1,1,0,0,1,36,61Zm1-34H23v-.515a6.941,6.941,0,0,0-1.609-4.462l2.558-2.558A6.955,6.955,0,0,0,26,14.515V9h4v5.515a6.951,6.951,0,0,0,2.051,4.949l3.484,3.486A4.967,4.967,0,0,1,37,26.485Z"></path><path d="M62.736,37.323A1,1,0,0,0,62,37H42a1,1,0,0,0-1,1.083l2,24A1,1,0,0,0,44,63H60a1,1,0,0,0,1-.917l2-24A1,1,0,0,0,62.736,37.323ZM60.913,39l-.333,4H43.42l-.333-4ZM43.587,45H60.413l-1,12H44.587ZM44.92,61l-.167-2H59.247l-.167,2Z"></path><path d="M5,46v6a1,1,0,0,0,1,1H18a1,1,0,0,0,1-1V49a1,1,0,0,0-.293-.707L17.414,47l1.293-1.293A1,1,0,0,0,19,45V32a1,1,0,0,0-1-1H14a1,1,0,0,0-.707.293L12,32.586l-1.293-1.293A1,1,0,0,0,10,31H6a1,1,0,0,0-1,1V42a1,1,0,0,0,.293.707L6.586,44,5.293,45.293A1,1,0,0,0,5,46Zm2,.414,1.707-1.707a1,1,0,0,0,0-1.414L7,41.586V33H9.586l1.707,1.707a1,1,0,0,0,1.414,0L14.414,33H17V44.586l-1.707,1.707a1,1,0,0,0,0,1.414L17,49.414V51H7Z"></path><path d="M43,31a4,4,0,1,0,4-4A4,4,0,0,0,43,31Zm4-2a2,2,0,1,1-2,2A2,2,0,0,1,47,29Z"></path><path d="M56,25a5,5,0,1,0-5-5A5.006,5.006,0,0,0,56,25Zm0-8a3,3,0,1,1-3,3A3,3,0,0,1,56,17Z"></path><path d="M46,11a4,4,0,1,0-4,4A4,4,0,0,0,46,11Zm-6,0a2,2,0,1,1,2,2A2,2,0,0,1,40,11Z"></path></svg>