<svg height='100px' width='100px'  fill="#000000" xmlns="http://www.w3.org/2000/svg" xmlns:xlink="http://www.w3.org/1999/xlink" version="1.1" x="0px" y="0px" viewBox="0 0 100 100" enable-background="new 0 0 100 100" xml:space="preserve"><circle cx="50.012" cy="50.001" r="9.397"></circle><path d="M50.012,64.845c3.765,0,7.438-1.599,10.343-4.502c2.924-2.925,4.535-6.599,4.535-10.343c0-3.74-1.611-7.412-4.541-10.338  c-2.963-2.963-6.635-4.596-10.337-4.596c-3.715,0-7.389,1.629-10.347,4.588c-2.954,2.954-4.581,6.629-4.581,10.346  c0,3.936,1.591,7.784,4.368,10.559C42.176,63.283,46.024,64.845,50.012,64.845z M40.588,40.577c2.712-2.712,6.059-4.206,9.424-4.206  c3.354,0,6.699,1.496,9.416,4.214c2.682,2.681,4.157,6.024,4.157,9.416c0,3.396-1.476,6.741-4.153,9.42  c-2.656,2.656-6.002,4.119-9.419,4.119c-3.644,0-7.156-1.422-9.637-3.901c-2.533-2.535-3.987-6.048-3.987-9.638  C36.388,46.632,37.88,43.286,40.588,40.577z"></path><path d="M40.312,66.802c3.426,1.984,6.599,2.947,9.7,2.947c3.285,0,6.675-0.958,9.802-2.771c2.59-1.496,4.75-3.845,6.803-7.391  c1.881-3.25,2.796-6.387,2.796-9.588c0-3.719-0.829-7.114-2.396-9.819c-1.644-2.841-4.147-5.29-7.246-7.082  c-2.932-1.696-6.306-2.593-9.759-2.593c-3.174,0-6.414,0.944-9.636,2.808c-3.139,1.817-5.556,4.164-7.182,6.975  c-1.724,2.975-2.633,6.333-2.633,9.711c0,3.511,0.88,6.887,2.545,9.76C34.741,62.587,37.233,65.021,40.312,66.802z M34.324,40.942  c1.511-2.61,3.768-4.797,6.707-6.499c3.02-1.746,6.041-2.632,8.981-2.632c3.224,0,6.375,0.836,9.106,2.417  c2.899,1.678,5.239,3.963,6.771,6.607c1.451,2.507,2.219,5.675,2.219,9.165c0,2.966-0.857,5.889-2.621,8.936  c-1.932,3.34-3.941,5.537-6.324,6.914c-2.043,1.184-5.289,2.594-9.149,2.594c-2.865,0-5.824-0.906-9.048-2.771  c-2.882-1.667-5.207-3.938-6.729-6.564c-1.55-2.678-2.369-5.826-2.369-9.107C31.867,46.852,32.716,43.72,34.324,40.942z"></path><path d="M33.125,66.887c2.412,2.412,4.643,4.504,7.529,5.703c3.03,1.256,6.431,1.426,9.358,1.426c3.646,0,6.683-0.524,9.281-1.604  c2.824-1.17,5.529-3.002,7.827-5.301c2.278-2.277,3.674-5.199,4.842-8.018c1.089-2.623,2.251-5.708,2.251-9.094  c0-2.871-0.654-5.786-2.061-9.171c-1.187-2.863-2.943-5.47-5.221-7.748c-2.6-2.599-5.035-4.318-7.67-5.411  c-2.992-1.241-6.214-1.412-9.25-1.412c-3.851,0-6.689,0.467-9.21,1.511c-3.511,1.458-6.059,3.048-8.014,5.005  c-2.018,2.017-3.677,4.632-5.068,7.99c-1.127,2.717-1.7,5.824-1.7,9.235c0,3.11,0.625,6.196,1.857,9.168  C29.042,61.973,30.806,64.568,33.125,66.887z M28.925,41.265c1.325-3.198,2.892-5.673,4.786-7.567  c1.831-1.833,4.242-3.334,7.591-4.722c2.354-0.976,5.04-1.412,8.71-1.412c2.901,0,5.97,0.16,8.75,1.312  c2.471,1.025,4.773,2.653,7.247,5.127c2.156,2.157,3.817,4.62,4.938,7.324c1.337,3.222,1.961,5.978,1.961,8.672  c0,3.146-1.11,6.085-2.152,8.594c-1.115,2.692-2.441,5.478-4.558,7.593c-2.179,2.178-4.737,3.914-7.404,5.019  c-2.438,1.012-5.312,1.504-8.782,1.504c-2.799,0-6.04-0.158-8.857-1.327c-2.667-1.105-4.797-3.109-7.107-5.419  c-2.197-2.196-3.867-4.651-4.965-7.295c-1.165-2.813-1.757-5.729-1.757-8.668C27.326,46.762,27.864,43.823,28.925,41.265z"></path><path d="M26.757,66.895c2.135,2.933,4.113,5.014,6.223,6.549c2.208,1.607,4.868,2.902,8.128,3.961  c2.624,0.853,5.695,1.762,8.904,1.762c2.773,0,5.704-0.516,8.964-1.573c2.715-0.881,5.416-2.292,8.032-4.194  c2.521-1.836,4.386-4.4,6.032-6.664c1.585-2.176,2.816-4.715,3.882-7.989l0.244-0.748c0.828-2.521,1.685-5.127,1.685-7.996  c0-2.76-0.506-5.662-1.547-8.868c-0.974-2.995-2.328-5.698-4.027-8.035c-1.979-2.719-4.034-4.836-6.282-6.471  c-2.168-1.578-4.821-2.864-8.11-3.931c-0.414-0.135-0.832-0.275-1.253-0.417c-2.426-0.816-4.935-1.66-7.619-1.66  c-2.514,0-4.845,0.822-7.101,1.616c-0.581,0.206-1.157,0.408-1.729,0.594c-2.76,0.895-5.656,1.974-8.155,3.792  c-2.243,1.632-4.298,3.75-6.281,6.476l-0.47,0.642c-1.624,2.215-3.303,4.507-4.174,7.194c-0.878,2.699-1.34,5.834-1.34,9.068  c0,2.726,0.524,5.664,1.602,8.983C23.328,61.953,25.044,64.541,26.757,66.895z M23.342,41.335c0.808-2.488,2.423-4.693,3.985-6.825  l0.474-0.646c1.901-2.613,3.862-4.636,5.992-6.188c2.353-1.712,5.135-2.746,7.791-3.607c0.583-0.188,1.169-0.395,1.762-0.604  c2.151-0.758,4.376-1.542,6.666-1.542c2.472,0,4.876,0.809,7.201,1.592c0.428,0.144,0.85,0.285,1.268,0.422  c3.156,1.023,5.69,2.25,7.748,3.745c2.135,1.554,4.097,3.577,5.994,6.184c1.618,2.226,2.911,4.805,3.84,7.67  c0.998,3.076,1.483,5.843,1.483,8.465c0,2.66-0.823,5.166-1.619,7.59l-0.245,0.752c-1.02,3.142-2.193,5.562-3.695,7.624  c-1.666,2.292-3.391,4.661-5.744,6.375c-2.506,1.822-5.085,3.172-7.667,4.01c-3.128,1.017-5.929,1.51-8.562,1.51  c-3.02,0-5.972-0.877-8.501-1.698c-3.128-1.015-5.668-2.25-7.765-3.774c-1.995-1.453-3.883-3.443-5.934-6.261  c-1.65-2.269-3.3-4.75-4.207-7.545c-1.036-3.188-1.539-5.995-1.539-8.581C22.067,46.902,22.508,43.906,23.342,41.335z"></path><path d="M17.934,58.018c0.26,0.724,0.517,1.443,0.751,2.162l0.438,1.373c0.899,2.846,1.829,5.789,3.624,8.256  c2.144,2.945,5.102,5.215,7.707,7.11l1.114,0.819c2.435,1.802,4.954,3.664,7.926,4.629c2.225,0.724,4.562,0.822,6.755,0.822  c0.623,0,1.251-0.01,1.881-0.018c0.626-0.01,1.254-0.02,1.882-0.02c3.323,0,6.567-0.551,10.208-1.73  c3.266-1.062,6.643-2.158,9.527-4.258c3.004-2.188,5.527-4.668,7.498-7.376c2.111-2.899,3.258-6.435,4.27-9.552  c0.211-0.643,0.436-1.287,0.662-1.938c0.922-2.633,1.874-5.356,1.874-8.298c0-3.864-0.522-7.52-1.514-10.568  c-1-3.083-2.938-5.728-4.815-8.284l-0.611-0.835c-1.934-2.654-4.447-5.118-7.477-7.322c-2.736-1.992-5.742-3.989-9.188-5.108  c-3.284-1.066-6.797-1.606-10.436-1.606c-3.506,0-7.211,0.149-10.556,1.235c-3.083,1.001-6.253,2.68-9.424,4.988  c-2.947,2.145-5.3,5.118-7.21,7.745c-2.411,3.314-4.048,6.354-5.002,9.294c-1.152,3.546-1.736,7.066-1.736,10.461  C16.084,52.859,17.025,55.48,17.934,58.018z M19.062,39.942c0.924-2.846,2.455-5.682,4.816-8.929  C25.73,28.469,28,25.594,30.8,23.556c3.061-2.229,6.108-3.844,9.059-4.803c3.171-1.03,6.754-1.171,10.153-1.171  c3.503,0,6.878,0.518,10.033,1.542c3.27,1.062,6.174,2.993,8.823,4.921c2.917,2.124,5.335,4.491,7.187,7.034l0.614,0.84  c1.813,2.473,3.692,5.031,4.628,7.915c0.948,2.92,1.449,6.436,1.449,10.165c0,2.721-0.916,5.338-1.801,7.868  c-0.229,0.66-0.459,1.314-0.672,1.967c-1.029,3.173-2.096,6.454-4.082,9.188c-1.892,2.596-4.317,4.979-7.211,7.088  c-2.719,1.978-5.996,3.041-9.164,4.07c-3.508,1.139-6.621,1.67-9.805,1.67c-0.633,0-1.268,0.008-1.9,0.018  c-2.728,0.039-5.555,0.124-8.215-0.739c-2.769-0.899-5.201-2.698-7.552-4.438l-1.124-0.826c-2.522-1.836-5.387-4.03-7.418-6.822  c-1.67-2.294-2.527-5.009-3.436-7.882l-0.442-1.382c-0.236-0.731-0.499-1.463-0.763-2.201c-0.872-2.43-1.773-4.943-1.773-7.576  C17.389,46.742,17.952,43.358,19.062,39.942z"></path><path d="M93.111,49.981c0-0.638-0.02-1.271-0.047-1.903c0.041-0.009,0.08-0.024,0.121-0.032c0.09-0.111,0.217-0.196,0.349-0.24  c0.497-0.165,0.983-0.44,1.37-0.809c-0.233-3.513-0.885-6.909-1.885-10.154c-0.617,0.126-1.24,0.211-1.869,0.268  c-0.168-0.534-0.35-1.061-0.537-1.586c0.535-0.389,1.041-0.854,1.479-1.371c-1.3-3.424-3.024-6.633-5.079-9.602  c-0.558,0.248-1.107,0.516-1.65,0.803c-0.27-0.385-0.535-0.771-0.815-1.146c0.437-0.46,0.78-0.989,1.104-1.533  c-2.355-3.058-5.078-5.817-8.133-8.182c-0.49,0.307-0.929,0.658-1.295,1.125c-0.031,0.04-0.065,0.071-0.101,0.099  c-0.588-0.448-1.185-0.883-1.796-1.301c0.254-0.649,0.398-1.435,0.152-2.022c-0.014-0.032-0.01-0.059-0.019-0.089  c-1.999-1.298-4.097-2.46-6.297-3.435c-0.358,0.526-0.845,0.997-1.312,1.446c-0.588-0.25-1.184-0.483-1.783-0.707  c0.037-0.712,0.017-1.446-0.312-1.954c-0.04-0.062-0.053-0.12-0.07-0.178c-3.403-1.179-6.99-1.965-10.707-2.292  c-0.004,0.007-0.002,0.016-0.006,0.023c-0.301,0.607-0.604,1.212-0.922,1.81c-0.722-0.05-1.447-0.083-2.18-0.097  c-0.133-0.652-0.277-1.298-0.635-1.876c-0.008-0.013-0.008-0.025-0.015-0.04C50.154,5.005,50.083,5,50.012,5  c-3.42,0-6.739,0.416-9.943,1.146c0.068,0.629,0.096,1.261,0.11,1.893c-0.65,0.152-1.294,0.318-1.933,0.499  c-0.299-0.512-0.621-1.01-0.896-1.536c-0.028-0.055-0.033-0.106-0.046-0.16c-1.683,0.497-3.329,1.077-4.924,1.759  c0.146,0.617,0.347,1.218,0.573,1.812c-0.604,0.26-1.201,0.532-1.79,0.819c-0.39-0.513-0.783-1.02-1.282-1.43  c-3.776,1.899-7.245,4.319-10.326,7.154c0.096,0.779,0.188,1.571,0.201,2.355c-0.805,0.793-1.572,1.621-2.312,2.474  c-0.535-0.358-1.081-0.673-1.688-0.884c-2.944,3.453-5.37,7.354-7.173,11.584c-0.017,0.039-0.033,0.077-0.05,0.117  c0.226-0.04,0.457,0.046,0.577,0.333c0.207,0.482,0.466,0.854,0.847,1.146c-0.208,0.522-0.408,1.048-0.597,1.58  c-0.598-0.118-1.206-0.168-1.802-0.3c-0.028-0.006-0.043-0.023-0.069-0.03c-0.639,1.834-1.156,3.722-1.555,5.655  c0.63,0.592,1.017,1.45,1.521,2.171c-0.104,0.651-0.189,1.307-0.265,1.967c-0.711-0.11-1.409,0.047-1.966,0.573  C5.089,47.114,5.011,48.548,5.011,50c0,1.639,0.094,3.255,0.266,4.85c0.157-0.012,0.321,0.024,0.472,0.141  c0.472,0.365,0.996,0.662,1.563,0.82c0.068,0.508,0.146,1.013,0.231,1.516c-0.038,0.021-0.077,0.045-0.125,0.06  c-0.688,0.212-1.164,0.923-1.499,1.536C6.347,61.041,6.933,63.1,7.646,65.1c0.08-0.014,0.167-0.019,0.261,0  c0.61,0.123,1.218,0.217,1.834,0.266c0.183,0.479,0.365,0.958,0.564,1.428c-0.487,0.414-1.007,0.771-1.576,1.057  c0.663,1.528,1.432,2.996,2.253,4.431c0.002,0,0.003-0.001,0.005-0.001c0.66-0.125,1.316,0.057,1.958-0.163  c0.021-0.009,0.043-0.007,0.064-0.013c0.216,0.359,0.44,0.711,0.666,1.064c-0.189,0.688-0.562,1.246-1.123,1.658  c1.425,2.144,3.035,4.152,4.792,6.018c0.104-0.15,0.267-0.263,0.504-0.268c0.535-0.012,1.014-0.096,1.446-0.352  c0.414,0.422,0.839,0.83,1.27,1.232c-0.181,0.675-0.401,1.337-0.513,2.023c2.692,2.42,5.683,4.514,8.898,6.234  c0.619-0.252,1.115-0.77,1.604-1.26c0.545,0.275,1.095,0.539,1.651,0.792v2.049c4.433,1.929,9.236,3.151,14.272,3.55  c0.419-0.539,0.699-1.188,0.96-1.828c0.522,0.031,1.05,0.047,1.578,0.06c0.005,0.631,0.021,1.271,0.101,1.899  c0.3,0.006,0.596,0.022,0.896,0.022c2.309,0,4.576-0.176,6.793-0.513c0.252-0.614,0.309-1.309,0.221-1.963  c0.479-0.078,0.953-0.16,1.425-0.254c0.442,0.525,0.829,1.088,1.196,1.668c3.34-0.73,6.539-1.842,9.56-3.272  c0.041-0.529,0.067-1.062,0.183-1.579c-0.07-0.12-0.162-0.229-0.227-0.354c-0.02-0.037-0.02-0.069-0.03-0.105  c0.38-0.188,0.759-0.38,1.134-0.579c0.008,0.011,0.018,0.017,0.023,0.028c0.284,0.549,0.632,1.043,1.011,1.512  c2.808-1.514,5.429-3.327,7.839-5.379c-0.267-0.598-0.518-1.2-0.69-1.834c0.323-0.285,0.644-0.573,0.959-0.867  c0.577,0.275,1.103,0.646,1.631,1.008c2.817-2.685,5.282-5.733,7.333-9.064c-0.523-0.348-1.016-0.741-1.484-1.124  c0.307-0.504,0.598-1.019,0.883-1.537c0.699-0.084,1.392-0.046,2.086,0.056c1.269-2.408,2.318-4.941,3.141-7.58  c-0.527-0.412-1.018-0.885-1.544-1.317c-0.009-0.007-0.015-0.017-0.021-0.025c0.102-0.353,0.207-0.705,0.301-1.062  c0.004-0.002,0.006-0.004,0.01-0.004c0.472-0.113,0.949-0.205,1.42-0.325c0.21-0.054,0.42-0.114,0.628-0.183  c0.733-3.082,1.144-6.285,1.201-9.576C94.344,50.564,93.727,50.276,93.111,49.981z M50.012,12.975  c20.449,0,37.025,16.577,37.025,37.026c0,20.45-16.576,37.026-37.025,37.026C29.563,87.027,12.986,70.45,12.986,50  C12.986,29.551,29.563,12.975,50.012,12.975z"></path></svg>