<svg height='100px' width='100px'  fill="#000000" xmlns="http://www.w3.org/2000/svg" xmlns:xlink="http://www.w3.org/1999/xlink" version="1.1" x="0px" y="0px" viewBox="0 0 100 100" style="enable-background:new 0 0 100 100;" xml:space="preserve"><path d="M70.5126953,11.3193359c-6.4728394,0-11.6374512,3.0802002-12.3690186,7.1748047h-4.0792236v-4.2978516  c0-2.3583984-2.0009766-4.2763672-4.4599609-4.2763672h-4.1962891c-2.4589844,0-4.4589844,1.9179688-4.4589844,4.2763672v4.2978516  h-2.9052734c-0.5527344,0-1,0.4472656-1,1s0.4472656,1,1,1h2.9052734v3.5437012  c-1.5216064,0.6741333-2.5888672,2.1867065-2.5888672,3.9475098v5.7089844h-5.3222656  c-4.0224609,0-7.8056641,1.7734375-10.3798828,4.8642578c-2.1474609,2.5792236-3.2216187,5.8207397-3.1016846,9.1204834  c-0.0018921,0.0250244-0.0145264,0.0463867-0.0145264,0.0718994c0,0.0303345,0.0145874,0.0558472,0.0172119,0.0854492  c0.0289917,0.6035156,0.0845947,1.2078857,0.1956787,1.8110352l6.7753906,36.7978516  C26.9101562,88.5048828,28.7050781,90,30.7998047,90h33.4130859c2.0947266,0,3.8896484-1.4951172,4.2695312-3.5556641  l6.7763672-36.796875c0.7285156-3.9560547-0.3300781-7.9980469-2.9042969-11.0888672  c-2.5742188-3.0917969-6.3574219-4.8642578-10.3798828-4.8642578h-5.2470703v-5.7089844  c0-1.7905273-1.1001587-3.3300781-2.6630859-3.9863892v-3.5048218h4.0792847  c0.7317505,4.093689,5.8961792,7.1738281,12.3689575,7.1738281c6.2363281,0,9.9599609-3.0556641,9.9599609-8.1738281  C80.4726562,14.375,76.7490234,11.3193359,70.5126953,11.3193359z M45.4082031,11.9199219h4.1962891  c1.3564453,0,2.4599609,1.0214844,2.4599609,2.2763672v9.4638672h-9.1152344v-9.4638672  C42.9492188,12.9414062,44.0527344,11.9199219,45.4082031,11.9199219z M66.515625,86.0820312  C66.3105469,87.1933594,65.3427734,88,64.2128906,88H30.7998047c-1.1298828,0-2.0976562-0.8066406-2.3027344-1.9169922  l-6.7753906-36.7978516c-0.0327759-0.1777954-0.0440674-0.3560791-0.0684204-0.5341797h51.7070923  c-0.024292,0.1784058-0.0355835,0.3569946-0.0683594,0.5351562L66.515625,86.0820312z M70.8173828,39.8378906  c1.6434937,1.9734497,2.5611572,4.4015503,2.6573486,6.9130859H21.5383911  c0.0957642-2.5106812,1.0134888-4.9386597,2.6569214-6.9121094c2.1923828-2.6337891,5.4160156-4.1445312,8.8427734-4.1445312  h28.9365234C65.4013672,35.6943359,68.625,37.2050781,70.8173828,39.8378906z M54.7275391,33.6943359H40.3603516v-5.7089844  c0-1.2822266,1.0537109-2.3251953,2.3486328-2.3251953h9.6699219c1.2949219,0,2.3486328,1.0429688,2.3486328,2.3251953V33.6943359z   M70.5126953,25.6679688c-5.6738281,0-10.4667969-2.8271484-10.4667969-6.1738281s4.7929688-6.1748047,10.4667969-6.1748047  c5.1328125,0,7.9599609,2.1933594,7.9599609,6.1748047S75.6455078,25.6679688,70.5126953,25.6679688z"></path><path d="M47.5810547,18.0800781c0.5527344,0,1-0.4472656,1-1v-1.3125c0-0.5527344-0.4472656-1-1-1s-1,0.4472656-1,1v1.3125  C46.5810547,17.6328125,47.0283203,18.0800781,47.5810547,18.0800781z"></path><path d="M58.9003906,57.8320312c-2.984375,0-5.4697266,2.1796875-5.9472656,5.0302734H42.4501953  c-0.4775391-2.8505859-2.9628906-5.0302734-5.9472656-5.0302734c-3.3251953,0-6.03125,2.7050781-6.03125,6.0302734  c0,1.5166016,0.5537109,2.9345703,1.5478516,4.03125c-0.9941406,1.0966797-1.5478516,2.5146484-1.5478516,4.0302734  c0,3.3251953,2.7060547,6.03125,6.03125,6.03125c2.9882812,0,5.4746094-2.1845703,5.9492188-5.0654297h10.4951172  c0.4638672,2.8681641,2.9570312,5.0654297,5.953125,5.0654297c3.3251953,0,6.03125-2.7060547,6.03125-6.03125  c0-1.515625-0.5537109-2.9335938-1.5478516-4.0302734c0.9941406-1.0966797,1.5478516-2.5146484,1.5478516-4.03125  C64.9316406,60.5371094,62.2255859,57.8320312,58.9003906,57.8320312z M61.3046875,68.6953125  c1.0341797,0.7714844,1.6269531,1.9482422,1.6269531,3.2285156c0,2.2226562-1.8085938,4.03125-4.03125,4.03125  s-4.0302734-1.8085938-4.0302734-4.03125v-0.0341797c0-0.5527344-0.4472656-1-1-1H41.5332031c-0.5527344,0-1,0.4814453-1,1.0341797  c0,2.2226562-1.8076172,4.03125-4.0302734,4.03125s-4.03125-1.8085938-4.03125-4.03125  c0-1.2802734,0.5927734-2.4570312,1.6269531-3.2285156c0.2529297-0.1884766,0.4023438-0.4863281,0.4023438-0.8017578  s-0.1494141-0.6132812-0.4023438-0.8017578c-1.0341797-0.7714844-1.6269531-1.9482422-1.6269531-3.2294922  c0-2.2226562,1.8085938-4.0302734,4.03125-4.0302734s4.0302734,1.8076172,4.0302734,4.0302734c0,0.5527344,0.4472656,1,1,1  h12.3369141c0.5527344,0,1-0.4472656,1-1c0-2.2226562,1.8076172-4.0302734,4.0302734-4.0302734s4.03125,1.8076172,4.03125,4.0302734  c0,1.28125-0.5927734,2.4580078-1.6269531,3.2294922c-0.2529297,0.1884766-0.4023438,0.4863281-0.4023438,0.8017578  S61.0517578,68.5068359,61.3046875,68.6953125z"></path></svg>