<svg height='100px' width='100px'  fill="#000000" xmlns="http://www.w3.org/2000/svg" xmlns:xlink="http://www.w3.org/1999/xlink" version="1.1" x="0px" y="0px" viewBox="0 0 500 500" enable-background="new 0 0 500 500" xml:space="preserve"><g><path d="M418.3,444.5H81.7c-21.8,0-39.7-17.9-39.7-39.7V95.2c0-21.8,17.9-39.7,39.7-39.7h336.6   c21.8,0,39.7,17.9,39.7,39.7v309.6C458,426.7,440.1,444.5,418.3,444.5z"></path><g><path d="M418.3,429.5c-12,0-24,0-36,0c-28.6,0-57.2,0-85.9,0c-33.7,0-67.4,0-101,0c-27.7,0-55.4,0-83.1,0    c-7.9,0-15.8,0-23.7,0c-1.9,0-3.9,0-5.8,0c-0.3,0-0.7,0-1,0c-1,0-1.9-0.1-2.8-0.1c-2.9-0.1,1.4,0.5-1.4-0.2    c-1.5-0.4-3-0.8-4.5-1.2c-0.6-0.2-1.3-0.4-1.9-0.7c0.2,0.1,2.1,1,0.6,0.2c-1.1-0.6-2.3-1.2-3.4-1.9c-0.8-0.5-3.7-2.9-1.7-1.1    c-1.1-1-2.2-2.1-3.3-3.1c-0.5-0.5-0.9-1-1.3-1.5c0.2,0.2,1.3,1.9,0.3,0.5c-0.8-1.1-1.5-2.2-2.1-3.3c-0.3-0.5-1.9-3.6-1.3-2.3    c0.7,1.5-0.2-0.4-0.2-0.7c-0.3-0.8-0.6-1.7-0.8-2.5c-0.2-0.6-1-4.7-0.8-3.3c0.2,1.5-0.1-2.1-0.1-2.8c0-0.3,0-0.6,0-0.8    c0-0.5,0-0.9,0-1.4c0-5.9,0-11.8,0-17.7c0-25.8,0-51.7,0-77.5c0-33.5,0-67.1,0-100.6c0-28.1,0-56.1,0-84.2c0-7.7,0-15.4,0-23.2    c0-1.5,0-3.1,0-4.6c0-0.1,0-0.2,0-0.3c0,0,0,0,0-0.1c0-0.8,0.4-4.9,0.1-3.5c-0.2,1.5,0.5-2,0.6-2.6c0.3-1.3,0.8-2.5,1.2-3.8    c0.6-1.6-0.1,0.3-0.2,0.6c0.3-0.6,0.6-1.2,0.9-1.8c0.8-1.3,1.6-2.6,2.4-3.9c1.4-2.2-1,0.8,0.9-1c1.1-1,2.2-2.1,3.2-3.2    c1.2-1.2-0.3,0.1-0.5,0.3c0.5-0.4,1.1-0.8,1.6-1.1c1.3-0.8,2.6-1.5,3.9-2.3c2.3-1.4-1.3,0.2,1.2-0.6c1.3-0.4,2.5-0.8,3.8-1.1    c1-0.2,4-0.7,1.3-0.4c1.4-0.1,2.8-0.2,4.1-0.2c0.9,0,1.8,0,2.7,0c6.3,0,12.6,0,18.9,0c25.5,0,51.1,0,76.6,0c33.5,0,66.9,0,100.4,0    c30.2,0,60.5,0,90.7,0c15.4,0,30.8-0.1,46.2,0c0.3,0,0.7,0,1,0c1.2,0,2.3,0.1,3.5,0.2c1.8,0.1-0.4-0.1-0.6-0.1    c0.7,0.1,1.3,0.3,2,0.4c1.7,0.4,3.4,0.9,5.1,1.5c1.6,0.6-0.3-0.1-0.6-0.2c0.6,0.3,1.2,0.6,1.8,0.9c1.1,0.7,2.3,1.3,3.4,2    c0.5,0.4,1.1,0.7,1.6,1.1c-0.2-0.2-1.7-1.5-0.5-0.3c1.1,1.1,2.1,2.1,3.2,3.2c1.9,1.8-0.6-1.2,0.9,1c0.8,1.3,1.6,2.6,2.4,3.9    c0.3,0.6,0.6,1.2,0.9,1.8c-0.1-0.2-0.8-2.2-0.2-0.6c0.5,1.5,1,2.9,1.4,4.4c0.2,1,0.7,4,0.4,1.3c0.1,1.4,0.2,2.7,0.2,4.1    c0,0.1,0,0.1,0,0.2c0,0.5,0,0.9,0,1.4c0,2.2,0,4.5,0,6.7c0,21.9,0,43.9,0,65.8c0,33,0,66.1,0,99.1c0,30.5,0,61,0,91.5    c0,14.8,0.2,29.7,0,44.5c0,0.1,0,0.2,0,0.3c0,0.2,0,0.5,0,0.7c0,0.7-0.3,4.2-0.1,2.8c0.2-1.5-0.5,2-0.6,2.6    c-0.3,1.3-0.8,2.5-1.2,3.8c-0.6,1.6,0.1-0.3,0.2-0.6c-0.4,0.8-0.8,1.6-1.2,2.3c-0.6,1.1-1.4,2.2-2.1,3.3c-1.4,2.2,1-0.8-0.9,1    c-0.9,0.9-1.9,1.8-2.8,2.8c-1.8,1.9,1.2-0.6-1,0.9c-1.1,0.7-2.2,1.4-3.3,2.1c-0.8,0.5-3.5,1.7-1.2,0.7c-1.4,0.6-2.9,1-4.4,1.4    c-0.6,0.2-4.1,0.9-2.6,0.6c1.7-0.3-0.5,0-0.7,0C420.1,429.5,419.2,429.5,418.3,429.5c-7.8,0.1-15.4,6.8-15,15    c0.4,8,6.6,15.1,15,15c29.7-0.5,54-24.2,54.7-54c0.1-3.8,0-7.6,0-11.4c0-23.8,0-47.5,0-71.3c0-34,0-68,0-102.1c0-30,0-60,0-90.1    c0-9.1,0-18.2,0-27.3c0-7.1,0.1-13.9-1.5-20.9c-5.6-24.6-28.6-41.6-53.4-41.9c-4.2-0.1-8.5,0-12.7,0c-23.7,0-47.3,0-71,0    c-33.8,0-67.6,0-101.4,0c-31.8,0-63.7,0-95.5,0c-17.8,0-35.5,0-53.3,0c-15.6,0-30.6,5.1-41.6,16.5C31.7,68.2,27,82.7,27,98.1    c0,19.1,0,38.3,0,57.4c0,32.8,0,65.7,0,98.5c0,32.4,0,64.9,0,97.3c0,17.4-0.1,34.8,0,52.2c0.1,19.5,9.5,37.6,26.2,48    c10,6.2,21.3,8.1,32.9,8.1c19.4,0,38.7,0,58.1,0c32.4,0,64.9,0,97.3,0c33.4,0,66.8,0,100.3,0c22.3,0,44.6,0,66.9,0    c3.2,0,6.4,0,9.6,0c7.8,0,15.4-6.9,15-15C432.9,436.4,426.7,429.5,418.3,429.5z"></path></g></g></svg>