<?xml version="1.0" encoding="utf-8"?>
<!-- Generator: Adobe Illustrator 24.2.1, SVG Export Plug-In . SVG Version: 6.00 Build 0)  -->
<svg version="1.1" id="Layer_1" xmlns="http://www.w3.org/2000/svg" xmlns:xlink="http://www.w3.org/1999/xlink" x="0px" y="0px"
	 viewBox="0 0 100 100" enable-background="new 0 0 100 100" xml:space="preserve">
<g display="none">
	<g display="inline">
		<rect fill="none" stroke="#000000" stroke-width="0.0781" stroke-miterlimit="7.8125" width="100" height="100"/>
		<line fill="none" stroke="#000000" stroke-width="0.0781" stroke-miterlimit="7.8125" x1="0" y1="96.875" x2="100" y2="96.875"/>
		<line fill="none" stroke="#000000" stroke-width="0.0781" stroke-miterlimit="7.8125" x1="0" y1="93.75" x2="100" y2="93.75"/>
		<line fill="none" stroke="#000000" stroke-width="0.0781" stroke-miterlimit="7.8125" x1="0" y1="90.625" x2="100" y2="90.625"/>
		<line fill="none" stroke="#000000" stroke-width="0.0781" stroke-miterlimit="7.8125" x1="0" y1="87.5" x2="100" y2="87.5"/>
		<line fill="none" stroke="#000000" stroke-width="0.0781" stroke-miterlimit="7.8125" x1="0" y1="84.375" x2="100" y2="84.375"/>
		<line fill="none" stroke="#000000" stroke-width="0.0781" stroke-miterlimit="7.8125" x1="0" y1="81.25" x2="100" y2="81.25"/>
		<line fill="none" stroke="#000000" stroke-width="0.0781" stroke-miterlimit="7.8125" x1="0" y1="78.125" x2="100" y2="78.125"/>
		<line fill="none" stroke="#000000" stroke-width="0.0781" stroke-miterlimit="7.8125" x1="0" y1="75" x2="100" y2="75"/>
		<line fill="none" stroke="#000000" stroke-width="0.0781" stroke-miterlimit="7.8125" x1="0" y1="71.875" x2="100" y2="71.875"/>
		<line fill="none" stroke="#000000" stroke-width="0.0781" stroke-miterlimit="7.8125" x1="0" y1="68.75" x2="100" y2="68.75"/>
		<line fill="none" stroke="#000000" stroke-width="0.0781" stroke-miterlimit="7.8125" x1="0" y1="65.625" x2="100" y2="65.625"/>
		<line fill="none" stroke="#000000" stroke-width="0.0781" stroke-miterlimit="7.8125" x1="0" y1="62.5" x2="100" y2="62.5"/>
		<line fill="none" stroke="#000000" stroke-width="0.0781" stroke-miterlimit="7.8125" x1="0" y1="59.375" x2="100" y2="59.375"/>
		<line fill="none" stroke="#000000" stroke-width="0.0781" stroke-miterlimit="7.8125" x1="0" y1="56.25" x2="100" y2="56.25"/>
		<line fill="none" stroke="#000000" stroke-width="0.0781" stroke-miterlimit="7.8125" x1="0" y1="53.125" x2="100" y2="53.125"/>
		<line fill="none" stroke="#000000" stroke-width="0.0781" stroke-miterlimit="7.8125" x1="0" y1="50" x2="100" y2="50"/>
		<line fill="none" stroke="#000000" stroke-width="0.0781" stroke-miterlimit="7.8125" x1="0" y1="46.875" x2="100" y2="46.875"/>
		<line fill="none" stroke="#000000" stroke-width="0.0781" stroke-miterlimit="7.8125" x1="0" y1="43.75" x2="100" y2="43.75"/>
		<line fill="none" stroke="#000000" stroke-width="0.0781" stroke-miterlimit="7.8125" x1="0" y1="40.625" x2="100" y2="40.625"/>
		<line fill="none" stroke="#000000" stroke-width="0.0781" stroke-miterlimit="7.8125" x1="0" y1="37.5" x2="100" y2="37.5"/>
		<line fill="none" stroke="#000000" stroke-width="0.0781" stroke-miterlimit="7.8125" x1="0" y1="34.375" x2="100" y2="34.375"/>
		<line fill="none" stroke="#000000" stroke-width="0.0781" stroke-miterlimit="7.8125" x1="0" y1="31.25" x2="100" y2="31.25"/>
		<line fill="none" stroke="#000000" stroke-width="0.0781" stroke-miterlimit="7.8125" x1="0" y1="28.125" x2="100" y2="28.125"/>
		<line fill="none" stroke="#000000" stroke-width="0.0781" stroke-miterlimit="7.8125" x1="0" y1="25" x2="100" y2="25"/>
		<line fill="none" stroke="#000000" stroke-width="0.0781" stroke-miterlimit="7.8125" x1="0" y1="21.875" x2="100" y2="21.875"/>
		<line fill="none" stroke="#000000" stroke-width="0.0781" stroke-miterlimit="7.8125" x1="0" y1="18.75" x2="100" y2="18.75"/>
		<line fill="none" stroke="#000000" stroke-width="0.0781" stroke-miterlimit="7.8125" x1="0" y1="15.625" x2="100" y2="15.625"/>
		<line fill="none" stroke="#000000" stroke-width="0.0781" stroke-miterlimit="7.8125" x1="0" y1="12.5" x2="100" y2="12.5"/>
		<line fill="none" stroke="#000000" stroke-width="0.0781" stroke-miterlimit="7.8125" x1="0" y1="9.375" x2="100" y2="9.375"/>
		<line fill="none" stroke="#000000" stroke-width="0.0781" stroke-miterlimit="7.8125" x1="0" y1="6.25" x2="100" y2="6.25"/>
		<line fill="none" stroke="#000000" stroke-width="0.0781" stroke-miterlimit="7.8125" x1="0" y1="3.125" x2="100" y2="3.125"/>
		<line fill="none" stroke="#000000" stroke-width="0.0781" stroke-miterlimit="7.8125" x1="96.875" y1="0" x2="96.875" y2="100"/>
		<line fill="none" stroke="#000000" stroke-width="0.0781" stroke-miterlimit="7.8125" x1="93.75" y1="0" x2="93.75" y2="100"/>
		<line fill="none" stroke="#000000" stroke-width="0.0781" stroke-miterlimit="7.8125" x1="90.625" y1="0" x2="90.625" y2="100"/>
		<line fill="none" stroke="#000000" stroke-width="0.0781" stroke-miterlimit="7.8125" x1="87.5" y1="0" x2="87.5" y2="100"/>
		<line fill="none" stroke="#000000" stroke-width="0.0781" stroke-miterlimit="7.8125" x1="84.375" y1="0" x2="84.375" y2="100"/>
		<line fill="none" stroke="#000000" stroke-width="0.0781" stroke-miterlimit="7.8125" x1="81.25" y1="0" x2="81.25" y2="100"/>
		<line fill="none" stroke="#000000" stroke-width="0.0781" stroke-miterlimit="7.8125" x1="78.125" y1="0" x2="78.125" y2="100"/>
		<line fill="none" stroke="#000000" stroke-width="0.0781" stroke-miterlimit="7.8125" x1="75" y1="0" x2="75" y2="100"/>
		<line fill="none" stroke="#000000" stroke-width="0.0781" stroke-miterlimit="7.8125" x1="71.875" y1="0" x2="71.875" y2="100"/>
		<line fill="none" stroke="#000000" stroke-width="0.0781" stroke-miterlimit="7.8125" x1="68.75" y1="0" x2="68.75" y2="100"/>
		<line fill="none" stroke="#000000" stroke-width="0.0781" stroke-miterlimit="7.8125" x1="65.625" y1="0" x2="65.625" y2="100"/>
		<line fill="none" stroke="#000000" stroke-width="0.0781" stroke-miterlimit="7.8125" x1="62.5" y1="0" x2="62.5" y2="100"/>
		<line fill="none" stroke="#000000" stroke-width="0.0781" stroke-miterlimit="7.8125" x1="59.375" y1="0" x2="59.375" y2="100"/>
		<line fill="none" stroke="#000000" stroke-width="0.0781" stroke-miterlimit="7.8125" x1="56.25" y1="0" x2="56.25" y2="100"/>
		<line fill="none" stroke="#000000" stroke-width="0.0781" stroke-miterlimit="7.8125" x1="53.125" y1="0" x2="53.125" y2="100"/>
		<line fill="none" stroke="#000000" stroke-width="0.0781" stroke-miterlimit="7.8125" x1="50" y1="0" x2="50" y2="100"/>
		<line fill="none" stroke="#000000" stroke-width="0.0781" stroke-miterlimit="7.8125" x1="46.875" y1="0" x2="46.875" y2="100"/>
		<line fill="none" stroke="#000000" stroke-width="0.0781" stroke-miterlimit="7.8125" x1="43.75" y1="0" x2="43.75" y2="100"/>
		<line fill="none" stroke="#000000" stroke-width="0.0781" stroke-miterlimit="7.8125" x1="40.625" y1="0" x2="40.625" y2="100"/>
		<line fill="none" stroke="#000000" stroke-width="0.0781" stroke-miterlimit="7.8125" x1="37.5" y1="0" x2="37.5" y2="100"/>
		<line fill="none" stroke="#000000" stroke-width="0.0781" stroke-miterlimit="7.8125" x1="34.375" y1="0" x2="34.375" y2="100"/>
		<line fill="none" stroke="#000000" stroke-width="0.0781" stroke-miterlimit="7.8125" x1="31.25" y1="0" x2="31.25" y2="100"/>
		<line fill="none" stroke="#000000" stroke-width="0.0781" stroke-miterlimit="7.8125" x1="28.125" y1="0" x2="28.125" y2="100"/>
		<line fill="none" stroke="#000000" stroke-width="0.0781" stroke-miterlimit="7.8125" x1="25" y1="0" x2="25" y2="100"/>
		<line fill="none" stroke="#000000" stroke-width="0.0781" stroke-miterlimit="7.8125" x1="21.875" y1="0" x2="21.875" y2="100"/>
		<line fill="none" stroke="#000000" stroke-width="0.0781" stroke-miterlimit="7.8125" x1="18.75" y1="0" x2="18.75" y2="100"/>
		<line fill="none" stroke="#000000" stroke-width="0.0781" stroke-miterlimit="7.8125" x1="15.625" y1="0" x2="15.625" y2="100"/>
		<line fill="none" stroke="#000000" stroke-width="0.0781" stroke-miterlimit="7.8125" x1="12.5" y1="0" x2="12.5" y2="100"/>
		<line fill="none" stroke="#000000" stroke-width="0.0781" stroke-miterlimit="7.8125" x1="9.375" y1="0" x2="9.375" y2="100"/>
		<line fill="none" stroke="#000000" stroke-width="0.0781" stroke-miterlimit="7.8125" x1="6.25" y1="0" x2="6.25" y2="100"/>
		<line fill="none" stroke="#000000" stroke-width="0.0781" stroke-miterlimit="7.8125" x1="3.125" y1="0" x2="3.125" y2="100"/>
	</g>
</g>
<g>
	<g>
		<g>
			<path d="M24.609,28.984v9.297h50.781v-9.297H24.609z M57.109,35H27.5v-2.109h29.609C57.109,32.891,57.109,35,57.109,35z
				 M62.813,35h-2.5v-2.5h2.5V35z M68.047,35h-2.422v-2.5h2.5V35H68.047z M72.969,35h-2.5v-2.5h2.5V35z"/>
			<path d="M24.609,39.609v31.406h13.672h23.594h13.594V39.609H24.609z M43.125,59.375c0.391,0.391,0.391,1.094,0,1.563
				c-0.234,0.234-0.469,0.313-0.781,0.313s-0.547-0.078-0.781-0.313l-6.016-6.016l6.016-6.016c0.391-0.391,1.094-0.391,1.563,0
				s0.391,1.094,0,1.563l-4.453,4.453L43.125,59.375z M53.359,48.047L48.75,62.422c-0.156,0.469-0.547,0.781-1.016,0.781
				c-0.078,0-0.234,0-0.313-0.078c-0.547-0.156-0.859-0.781-0.703-1.406l4.609-14.375c0.156-0.547,0.781-0.859,1.406-0.703
				C53.203,46.875,53.516,47.5,53.359,48.047z M58.438,60.938c-0.234,0.234-0.469,0.313-0.781,0.313
				c-0.313,0-0.547-0.078-0.781-0.313c-0.391-0.391-0.391-1.094,0-1.563l4.453-4.453l-4.453-4.453c-0.391-0.391-0.391-1.094,0-1.563
				c0.391-0.391,1.094-0.391,1.563,0l6.016,6.016L58.438,60.938z"/>
		</g>
		<path d="M50,94.531c-24.531,0-44.531-20-44.531-44.531S25.469,5.469,50,5.469s44.531,20,44.531,44.531S74.531,94.531,50,94.531z
			 M50,7.734C26.719,7.734,7.734,26.719,7.734,50S26.719,92.266,50,92.266S92.266,73.281,92.266,50S73.281,7.734,50,7.734z"/>
	</g>
</g>
</svg>
