<svg height='100px' width='100px'  fill="#000000" xmlns="http://www.w3.org/2000/svg" xmlns:xlink="http://www.w3.org/1999/xlink" viewBox="0 0 48 48" version="1.1" x="0px" y="0px"><path d="M4,36 L44,36 L44,31.5775008 C44,28.7710874 42.0546516,26.3395858 39.316643,25.7237449 C34.2048286,24.573984 29.1009851,24 24,24 C18.8990155,24 13.7951728,24.5739839 8.68335905,25.7237444 C5.94534581,26.3395845 3.99999708,28.771087 4,31.5775052 L4,36 Z M7.80559913,21.8212404 C13.2037328,20.6070801 18.6018664,20 24,20 C29.3981343,20 34.7962687,20.6070803 40.194403,21.8212409 C44.7577529,22.8476429 48,26.9001444 48,31.5775008 L48,40 L0,40 L0,31.5775052 C-4.86070913e-06,26.900145 3.24224494,22.8476402 7.80559913,21.8212404 Z" fill="#000000" fill-rule="nonzero"></path><path d="M22,20 L22,18 C22,16.8954305 21.1045695,16 20,16 L16,16 C14.8954305,16 14,16.8954305 14,18 L14,20 L22,20 Z M16,12 L20,12 C23.3137085,12 26,14.6862915 26,18 L26,24 L10,24 L10,18 C10,14.6862915 12.6862915,12 16,12 Z" fill="#000000" fill-rule="nonzero"></path><path d="M34,20 L34,18 C34,16.8954305 33.1045695,16 32,16 L28,16 C26.8954305,16 26,16.8954305 26,18 L26,20 L34,20 Z M28,12 L32,12 C35.3137085,12 38,14.6862915 38,18 L38,24 L22,24 L22,18 C22,14.6862915 24.6862915,12 28,12 Z" fill="#000000" fill-rule="nonzero"></path><rect fill="#000000" x="4" y="40" width="4" height="4"></rect><rect fill="#000000" x="40" y="40" width="4" height="4"></rect><path d="M8,23.4331055 L8,10 C8,8.8954305 8.8954305,8 10,8 L38,8 C39.1045695,8 40,8.8954305 40,10 L40,20.129879 L44,20.129879 L44,10 C44,6.6862915 41.3137085,4 38,4 L10,4 C6.6862915,4 4,6.6862915 4,10 L4,23.4331055 L8,23.4331055 Z" fill="#000000" fill-rule="nonzero"></path></svg>