<svg height='100px' width='100px'  fill="#000000" xmlns="http://www.w3.org/2000/svg" viewBox="0 0 100 100" x="0px" y="0px"><title>B&amp;amp;W</title><g data-name="Layer 2"><path d="M76,35.1C76,5,56.51,5,56.51,5h-13S24,5,24,35.1H22.34V40h2.14a1.11,1.11,0,0,1,1.11-1.13H74.41A1.11,1.11,0,0,1,75.52,40h2.14V35.1ZM72,37.54H28c-4.88-8.13,3.26-11.39,3.26-11.39C28,18.83,37,18,37,18c0-5.7,5.7-5.7,9-7.32A8,8,0,0,0,50,6.63a8,8,0,0,0,4.07,4.07c3.25,1.62,9,1.62,9,7.32,0,0,8.95.81,5.69,8.13C68.71,26.15,76.85,29.41,72,37.54Z"></path><path d="M31.52,93.57A98.75,98.75,0,0,0,50,95a98.55,98.55,0,0,0,18.48-1.43l4.7-52.46H26.82Z"></path><path d="M59,18.83C45.93,18,45.12,14,45.12,14,45.12,20.46,59,18.83,59,18.83Z"></path><path d="M41.05,20.46c0,7.32,23.59,7.32,23.59,7.32C42.68,25.34,41.05,20.46,41.05,20.46Z"></path><path d="M36.17,27.78c0,7.32,23.59,7.32,23.59,7.32C39.42,33.48,36.17,27.78,36.17,27.78Z"></path></g></svg>