<svg height='100px' width='100px'  fill="#000000" xmlns="http://www.w3.org/2000/svg" viewBox="0 0 64 64" x="0px" y="0px"><g><path d="M51,56H45a3,3,0,0,0,0,6h6a3,3,0,0,0,0-6Z"></path><rect x="34" y="58" width="2" height="2"></rect><rect x="26" y="60" width="4" height="2"></rect><rect x="40.686" y="11.171" width="20.628" height="3.657" transform="translate(5.745 39.87) rotate(-45)"></rect><path d="M12.9,32.515a12.014,12.014,0,0,0,0,16.97l.808.808A1,1,0,0,1,13,52H5a1,1,0,0,0,0,2H41a1,1,0,0,0,0-2H33a1,1,0,0,1-.707-1.707l8-8A1,1,0,0,1,42,43v2a1,1,0,0,0,2,0V39a1,1,0,0,1,.293-.707l4-4A1,1,0,0,1,50,35v8a1,1,0,0,0,2,0V31.414l-19-19Zm6.464-.808-3.635,3.636a8.01,8.01,0,0,0,0,11.314,1,1,0,0,1-1.415,1.414,10.013,10.013,0,0,1,0-14.142l3.636-3.636a1,1,0,0,1,1.414,1.414Zm5-5-2,2a1,1,0,1,1-1.414-1.414l2-2a1,1,0,0,1,1.414,1.414ZM34,41a3,3,0,0,1-6,0V37a1,1,0,0,1,2,0v4a1,1,0,0,0,2,0V37a1,1,0,0,1,2,0Zm-.293-23.636-7.343,7.343a1,1,0,0,1-1.414-1.414l7.343-7.343a1,1,0,0,1,1.414,1.414Z"></path></g></svg>