<svg height='100px' width='100px'  fill="#000000" xmlns="http://www.w3.org/2000/svg" xmlns:xlink="http://www.w3.org/1999/xlink" version="1.1" x="0px" y="0px" viewBox="0 0 100 100" enable-background="new 0 0 100 100" xml:space="preserve"><path fill="#000000" d="M84.277,28.892l-0.006-0.121c-0.005-0.057-0.55-5.765-1.593-11.399C81.073,8.7,79.293,5,76.726,5  c-1.656,0-4.095,1.381-9.633,11.625c-2.224,4.114-4.18,8.269-5.013,10.078c-2.412-0.391-8.487-1.317-11.972-1.317  c-0.036,0-0.072,0-0.107,0c-3.463-0.013-9.643,0.921-12.079,1.317c-0.833-1.809-2.789-5.964-5.013-10.078  C27.369,6.381,24.93,5,23.274,5c-2.567,0-4.347,3.7-5.952,12.372c-1.042,5.634-1.588,11.342-1.593,11.399l-0.006,0.121  c0,0.14-0.042,14.169,0.155,28.299c0.407,29.043,1.364,30.174,1.936,30.851l0.129,0.153l0.168,0.108  c0.42,0.269,10.516,6.595,31.45,6.697C49.666,95,49.766,95,49.869,95c16.313-0.001,31.196-6.324,31.825-6.595l0.288-0.124  l0.202-0.239c0.572-0.676,1.53-1.808,1.936-30.851C84.319,43.06,84.277,29.032,84.277,28.892z M62.641,29.498l1.02,0.176  l0.423-0.945c0.024-0.053,2.401-5.355,5.249-10.645c5.114-9.498,7.103-10.34,7.364-10.413c0.238,0.137,1.783,1.367,3.465,10.764  c0.897,5.013,1.392,9.936,1.45,10.527c0.032,10.094-0.027,20.628-0.176,29.891c-4.111,0.001-14.87-0.307-20.392-3.404  c-2.54-1.425-4.373-6.891-5.164-15.391c-0.44-4.727-0.45-9.261-0.415-11.599C58.274,28.791,61.162,29.243,62.641,29.498z   M18.388,28.962c0.058-0.592,0.552-5.514,1.449-10.527C21.513,9.076,23.052,7.818,23.3,7.673c0.3,0.087,2.299,1,7.367,10.411  c2.848,5.29,5.225,10.592,5.249,10.645l0.423,0.945l1.02-0.176c1.513-0.261,4.497-0.728,7.365-1.061  c0.035,2.325,0.026,6.857-0.412,11.595c-0.789,8.516-2.624,13.991-5.166,15.417c-5.603,3.143-16.62,3.413-20.581,3.403  C18.415,49.59,18.356,39.056,18.388,28.962z M49.576,92.334c-18.09-0.088-27.879-5.062-29.709-6.091  c-0.602-2.04-1.022-11.925-1.258-24.721c0.105,0,0.213,0.001,0.327,0.001c4.457,0,15.478-0.364,21.512-3.75  c3.426-1.922,5.618-7.808,6.516-17.495c0.469-5.066,0.464-9.802,0.422-12.109c0.627-0.051,1.219-0.088,1.754-0.107l0.003,0.027  c0.247-0.025,0.536-0.038,0.859-0.04c0.321,0.003,0.609,0.016,0.856,0.04l0.003-0.027c0.588,0.021,1.246,0.064,1.943,0.123  c-0.042,2.313-0.046,7.039,0.422,12.093c0.897,9.687,3.09,15.573,6.516,17.495c6.035,3.386,17.056,3.75,21.512,3.75  c0.048,0,0.091,0,0.137,0c-0.233,12.622-0.644,22.411-1.234,24.633C77.452,87.242,63.828,92.402,49.576,92.334z"></path><ellipse fill="#000000" cx="30.762" cy="49.059" rx="2.76" ry="3.647"></ellipse><ellipse fill="#000000" cx="69.238" cy="49.059" rx="2.76" ry="3.647"></ellipse><path fill="#000000" d="M60.093,73.531c-0.001,0.007-0.089,0.718-0.613,1.389c-0.686,0.879-1.827,1.324-3.392,1.324  c-3.755,0-4.654-3.227-4.744-3.595l-0.06,0.014v-9.636c2.598-0.785,4.445-3.677,4.445-5.128c0-1.688-11.459-1.643-11.459,0  c0,1.41,1.776,4.323,4.349,5.121v9.761c-0.208,0.709-1.238,3.462-4.708,3.462c-1.565,0-2.706-0.446-3.392-1.324  c-0.52-0.667-0.611-1.373-0.611-1.373c0,0,0,0,0,0l-2.654,0.241c0.161,1.771,1.76,5.12,6.657,5.12c2.993,0,4.941-1.454,6.088-3.021  c1.148,1.566,3.095,3.021,6.089,3.021c4.897,0,6.496-3.349,6.657-5.12L60.093,73.531z M50.009,72.966l-0.038-0.009h0.076  L50.009,72.966z"></path><path fill="#000000" d="M24.533,28.008h-2.665c0-0.11,0.002-2.729,0.135-5.418c0.254-5.121,0.674-6.505,2.045-6.734  c0.903-0.15,2.029-0.338,7.447,10.304l-2.375,1.209c-1.386-2.722-3.086-5.778-4.243-7.56C24.659,21.836,24.533,25.13,24.533,28.008z  "></path><path fill="#000000" d="M74.839,28.008c0-2.877-0.126-6.172-0.344-8.199c-1.157,1.782-2.857,4.838-4.243,7.56l-2.375-1.209  c5.417-10.641,6.544-10.454,7.447-10.304c1.37,0.228,1.791,1.613,2.045,6.734c0.133,2.689,0.135,5.308,0.135,5.418H74.839z"></path></svg>