<svg height='100px' width='100px'  fill="#000000" xmlns="http://www.w3.org/2000/svg" xmlns:xlink="http://www.w3.org/1999/xlink" version="1.1" x="0px" y="0px" viewBox="0 0 100 100" enable-background="new 0 0 100 100" xml:space="preserve"><path d="M73,21H47c-4.4,0-8,3.6-8,8v58c0,4.4,3.6,8,8,8h26c4.4,0,8-3.6,8-8V29C81,24.6,77.4,21,73,21z M52,33h-5  c-2.209,0-4-1.791-4-4c0-2.209,1.791-4,4-4h5c2.209,0,4,1.791,4,4C56,31.209,54.209,33,52,33z"></path><path d="M38,87V29c0-4.971,4.029-9,9-9h18v-7c0-4.4-3.6-8-7-8H26.999C21.599,5,19,8.6,19,13v74c0,4.4,3.6,8,8,8h15.889  C39.988,93.506,38,90.488,38,87z M33,17h-6c-2.209,0-4-1.791-4-4c0-2.209,1.791-4,4-4h6c2.209,0,4,1.791,4,4  C37,15.209,35.209,17,33,17z"></path></svg>