<?xml version="1.0" encoding="utf-8"?>
<!-- Generator: Adobe Illustrator 24.2.1, SVG Export Plug-In . SVG Version: 6.00 Build 0)  -->
<svg version="1.1" id="Layer_1" xmlns="http://www.w3.org/2000/svg" xmlns:xlink="http://www.w3.org/1999/xlink" x="0px" y="0px"
	 viewBox="0 0 100 100" enable-background="new 0 0 100 100" xml:space="preserve">
<g>
	<path d="M43.13,83.362c-0.117-0.033-0.233-0.067-0.35-0.102c-0.017-0.003-0.033-0.008-0.05-0.013l-0.152-0.048
		c-4.935-1.513-9.8-4.565-14.01-8.522c-6.023-5.658-10.73-13.182-12.402-20.688c-0.21-0.945-0.395-1.923-0.555-2.933
		c-3.527,0.528-7.217,1.823-11.065,4.168c6.27,3.402,10.283,10.137,13.76,15.968c1.875,3.147,3.59,6.023,5.38,7.892
		c4.285,4.47,12.34,4.745,19.442,4.277L43.13,83.362z M63.08,83.495c0.02-0.002,0.04-0.003,0.06-0.002
		c5.147-0.193,10.077-1.26,13.093-4.408c1.792-1.868,3.505-4.745,5.38-7.892c3.475-5.832,7.49-12.565,13.76-15.968
		c-3.847-2.345-7.538-3.642-11.065-4.168c-0.158,1.01-0.345,1.988-0.555,2.933c-1.673,7.52-6.35,15.067-12.348,20.74
		c-2.677,2.532-5.622,4.693-8.683,6.317c-0.7,0.385-1.415,0.74-2.145,1.06c-0.905,0.398-1.838,0.747-2.797,1.043
		c-0.015,0.005-0.03,0.008-0.045,0.012c-0.247,0.078-0.493,0.153-0.74,0.223c1.992,0.123,4.053,0.185,6.082,0.112L63.08,83.495z
		 M76.638,80.545c0.238-0.145,0.475-0.295,0.71-0.448c3.997-2.625,7.377-6.502,10.537-10.873c0.448-0.62,0.993-1.39,1.535-2.157
		c2.123-3.003,4.205-5.948,6.493-8.033c0.293-0.268,0.738-0.783,1.09-1.315c0.242-0.365,0.428-0.717,0.46-0.948
		c0.02-0.148-0.235-0.317-0.528-0.508c-0.095-0.063-0.193-0.127-0.29-0.195c-6.313,3.1-10.382,9.927-13.888,15.808
		c-1.915,3.215-3.668,6.153-5.563,8.132c-0.178,0.187-0.363,0.365-0.553,0.538H76.638z M97.18,54.807
		c0.15,0.127,0.32,0.238,0.482,0.345c0.668,0.44,1.248,0.822,1.117,1.795c-0.062,0.453-0.33,0.993-0.668,1.505
		c-0.412,0.623-0.945,1.238-1.303,1.565c-2.182,1.987-4.22,4.872-6.3,7.813c-0.478,0.677-0.958,1.355-1.545,2.168
		c-3.243,4.487-6.728,8.477-10.885,11.207c-4.19,2.752-9.04,4.217-14.967,3.617c-4.3,0.155-8.7-0.28-12.313-0.638l-1.878,0.005
		c-3.588,0.357-7.92,0.785-12.153,0.635c-5.47,0.248-10.302-1.212-14.588-3.867c-4.262-2.642-7.972-6.463-11.22-10.958
		c-0.587-0.813-1.067-1.492-1.545-2.168c-2.08-2.943-4.118-5.827-6.3-7.813c-0.383-0.35-0.912-0.918-1.31-1.522
		c-0.32-0.487-0.56-1.007-0.598-1.49c-0.072-0.932,0.56-1.427,1.207-1.933c0.117-0.092,0.235-0.183,0.35-0.283l0.007-0.005
		c0.025-0.022,0.052-0.04,0.08-0.058c4.377-2.85,8.572-4.388,12.573-4.987c-0.45-3.438-0.6-7.208-0.382-11.207
		c0.283-5.207,1.19-10.808,2.867-16.577c0.102-0.352,0.47-0.555,0.823-0.453c0.17,0.048,0.303,0.16,0.387,0.3h0.002
		c4.275,7.21,10.523,10.65,16.908,13.962c2.398-4.832,5.305-8.908,8.098-12.823c1.813-2.542,3.577-5.015,5.105-7.565
		c0.055-0.095,0.133-0.177,0.233-0.237c0.315-0.188,0.723-0.085,0.912,0.23c1.53,2.553,3.295,5.028,5.11,7.573
		c2.817,3.95,5.752,8.065,8.162,12.952c6.472-3.352,12.828-6.787,17.158-14.09c0.187-0.317,0.595-0.422,0.912-0.235
		c0.165,0.097,0.272,0.253,0.31,0.427c1.668,5.755,2.572,11.343,2.855,16.538c0.218,3.998,0.068,7.767-0.382,11.207
		c3.997,0.597,8.187,2.132,12.557,4.977c0.045,0.025,0.087,0.057,0.123,0.092L97.18,54.807z M77.915,27.807
		c0.598,1.4,1.118,2.823,1.562,4.263c1.773,5.745,2.305,11.675,1.798,17.383c0.377,0.012,0.755,0.03,1.137,0.057
		c0.255,0.018,0.51,0.04,0.767,0.065c0.44-3.36,0.587-7.052,0.372-10.973c-0.255-4.677-1.022-9.678-2.41-14.833
		c-0.998,1.505-2.078,2.84-3.227,4.04L77.915,27.807z M81.14,50.78c-0.462,3.93-1.413,7.738-2.787,11.29
		c-0.878,2.272-1.932,4.44-3.138,6.468c3.49-4.53,6.098-9.693,7.243-14.837c0.202-0.905,0.38-1.842,0.532-2.808
		c-0.225-0.022-0.448-0.04-0.67-0.057C81.925,50.808,81.532,50.79,81.14,50.78z M57.355,81.888c0.012-0.005,0.025-0.008,0.037-0.012
		c0.03-0.01,0.06-0.018,0.088-0.028c1.407-0.455,2.807-1.043,4.187-1.748c6.852-3.608,12.292-10.358,15.447-18.51
		c1.317-3.403,2.233-7.048,2.688-10.81c-3.487,0.09-6.803,0.867-9.938,2.022c-0.41,0.152-0.815,0.315-1.213,0.493
		c0.688,6.648-0.153,12.267-2.507,16.998C63.54,75.528,59.1,79.65,52.85,82.847C54.347,82.692,55.855,82.365,57.355,81.888z
		 M79.943,49.445c0.508-5.577-0.003-11.372-1.735-16.985c-0.377-1.218-0.812-2.433-1.31-3.638c-3.792,3.607-8.21,5.958-12.678,8.272
		c1.597,3.448,2.92,7.287,3.765,11.712c0.202,1.06,0.37,2.097,0.503,3.11c0.303-0.128,0.608-0.248,0.918-0.363
		c3.313-1.222,6.828-2.035,10.538-2.107H79.943z M50.323,82.588c0.345-0.157,0.683-0.317,1.018-0.478
		c6.217-3.453,10.053-7.833,11.965-12.865c1.557-4.095,1.847-8.64,1.115-13.482c-2.18,1.592-4.142,3.542-5.87,5.662
		c-4.003,4.913-6.745,10.73-8.027,15.16c-0.017,0.065-0.045,0.127-0.08,0.183c-0.003,0.007-0.008,0.012-0.012,0.018
		c-0.025,0.037-0.053,0.07-0.083,0.102c-0.098,0.098-0.227,0.165-0.372,0.187c-0.013,0.002-0.028,0.003-0.042,0.005
		c-0.022,0.002-0.043,0.003-0.067,0.002c-0.008,0-0.018,0-0.027-0.002c-0.115-0.007-0.222-0.042-0.313-0.1
		c-0.007-0.003-0.012-0.008-0.018-0.012c-0.037-0.025-0.07-0.053-0.102-0.083c-0.082-0.082-0.142-0.185-0.172-0.3
		c-1.285-4.443-3.99-10.282-7.968-15.205c-1.772-2.192-3.793-4.197-6.055-5.812c-0.768,4.915-0.492,9.527,1.085,13.677
		c1.912,5.032,5.747,9.412,11.965,12.865c0.335,0.162,0.673,0.322,1.018,0.478C49.923,82.877,49.75,82.847,50.323,82.588z
		 M64.173,54.308c-0.237-1.245-0.538-2.508-0.9-3.787c-1.117-3.942-2.558-7.485-4.177-10.717c-2.863,1.6-5.647,3.382-8.173,5.682
		c2.018,2.02,3.522,4.173,4.458,6.615c1.012,2.637,1.355,5.588,0.96,9.04c-0.048,0.428-0.118,0.843-0.207,1.243
		c0.443-0.61,0.905-1.21,1.383-1.798c1.937-2.377,4.162-4.55,6.653-6.278H64.173z M58.49,38.622
		c-0.492-0.935-0.997-1.842-1.512-2.727c-2.302-3.952-4.81-7.437-7.175-10.653c-2.365,3.215-4.873,6.702-7.175,10.653
		c-0.49,0.842-0.972,1.705-1.44,2.592c3.06,1.693,6.045,3.583,8.772,6.08c2.653-2.43,5.553-4.287,8.528-5.945H58.49z M40.58,39.67
		c-1.647,3.268-3.113,6.855-4.245,10.853c-0.343,1.217-0.633,2.418-0.863,3.603c2.575,1.748,4.86,3.977,6.837,6.423
		c0.525,0.65,1.03,1.317,1.512,1.993c-0.102-0.448-0.183-0.915-0.238-1.4c-0.395-3.452-0.053-6.402,0.96-9.04
		c0.937-2.44,2.44-4.595,4.458-6.615c-2.598-2.365-5.468-4.183-8.418-5.818H40.58z M46.523,82.727
		c-6.127-3.18-10.487-7.263-13.058-12.432c-2.368-4.762-3.205-10.425-2.493-17.128c-0.302-0.128-0.605-0.25-0.913-0.363
		c-3.088-1.138-6.353-1.908-9.783-2.017c0.495,3.75,1.453,7.387,2.808,10.785c3.522,8.833,9.712,16.038,17.367,19.407
		c0.878,0.387,1.77,0.72,2.672,0.998l0.02,0.007c1.127,0.337,2.257,0.587,3.38,0.743H46.523z M31.138,51.793
		c0.132-0.973,0.293-1.97,0.487-2.987c0.855-4.482,2.202-8.36,3.825-11.843c-4.382-2.272-8.705-4.602-12.427-8.14
		c-0.478,1.163-0.9,2.335-1.262,3.512c-1.743,5.65-2.217,11.492-1.643,17.115c3.658,0.09,7.127,0.898,10.398,2.103
		c0.208,0.077,0.415,0.157,0.62,0.24H31.138z M67.377,53.915c-0.593,0.312-1.172,0.652-1.738,1.017
		c0.89,5.297,0.625,10.283-1.085,14.785c-0.383,1.01-0.84,1.995-1.372,2.952c0.667-0.945,1.258-1.933,1.772-2.967
		c2.182-4.387,2.995-9.608,2.423-15.785V53.915z M34.002,54.757c-0.57-0.358-1.155-0.69-1.753-0.995
		c-0.6,6.245,0.208,11.515,2.408,15.938c0.513,1.033,1.105,2.022,1.772,2.967c-0.532-0.957-0.988-1.942-1.372-2.952
		c-1.728-4.55-1.98-9.597-1.055-14.96V54.757z M17.463,53.705c1.288,5.79,4.465,11.605,8.673,16.508
		c-1.685-2.498-3.128-5.24-4.288-8.152c-1.415-3.552-2.412-7.358-2.915-11.283c-0.442,0.008-0.885,0.028-1.332,0.06
		c-0.223,0.017-0.447,0.035-0.67,0.057c0.153,0.967,0.332,1.905,0.532,2.808V53.705z M37.21,36.378
		c0.938,0.485,1.877,0.973,2.81,1.473c0.475-0.897,0.962-1.77,1.457-2.622c2.512-4.312,5.245-8.05,7.782-11.49
		c0.04-0.058,0.092-0.11,0.152-0.155c0.297-0.217,0.713-0.153,0.93,0.143c2.538,3.443,5.275,7.185,7.788,11.502
		c0.52,0.893,1.03,1.81,1.527,2.753c0.932-0.503,1.868-0.99,2.805-1.475c-2.375-4.822-5.275-8.89-8.06-12.795
		c-1.608-2.255-3.18-4.458-4.597-6.73c-1.418,2.272-2.988,4.473-4.597,6.73C42.447,27.583,39.572,31.613,37.21,36.378z
		 M16.368,38.602c-0.213,3.922-0.068,7.613,0.372,10.973c0.257-0.025,0.512-0.048,0.767-0.065c0.427-0.03,0.852-0.05,1.275-0.06
		c-0.57-5.753-0.077-11.727,1.707-17.505c0.432-1.397,0.935-2.777,1.515-4.137c-1.147-1.202-2.228-2.535-3.227-4.04
		c-1.388,5.155-2.155,10.157-2.41,14.833H16.368z M32.405,52.355c0.635,0.305,1.257,0.642,1.862,1.005
		c0.218-1.053,0.482-2.118,0.785-3.195c1.162-4.105,2.668-7.782,4.358-11.13c-0.922-0.495-1.85-0.977-2.777-1.457
		c-1.573,3.387-2.878,7.147-3.703,11.473c-0.215,1.13-0.39,2.23-0.527,3.303H32.405z M65.375,53.525
		c0.602-0.37,1.217-0.712,1.847-1.027c-0.138-1.118-0.32-2.267-0.545-3.447c-0.815-4.272-2.095-7.99-3.643-11.343
		c-0.925,0.48-1.85,0.962-2.77,1.458c1.662,3.313,3.143,6.948,4.292,10.998C64.875,51.297,65.148,52.417,65.375,53.525z
		 M54.143,52.578c-0.868-2.262-2.28-4.272-4.183-6.172c-1.903,1.9-3.315,3.91-4.183,6.172c-0.933,2.433-1.247,5.178-0.877,8.415
		c0.315,2.752,1.577,4.892,2.808,6.983c0.825,1.402,1.638,2.782,2.182,4.32c0.56-1.535,1.395-2.915,2.243-4.313
		c1.27-2.093,2.567-4.235,2.883-6.99c0.37-3.237,0.058-5.982-0.877-8.415H54.143z M17.167,71.878
		C13.663,66,9.597,59.177,3.29,56.075l-0.058,0.047c-0.362,0.283-0.715,0.56-0.697,0.788c0.018,0.237,0.172,0.545,0.378,0.86
		c0.323,0.492,0.768,0.968,1.095,1.267c2.288,2.085,4.37,5.028,6.493,8.033c0.542,0.767,1.087,1.537,1.535,2.157
		c2.962,4.098,6.307,7.612,10.102,10.13C20.465,77.413,18.882,74.757,17.167,71.878z"/>
</g>
</svg>
