<svg height='100px' width='100px'  fill="#000000" xmlns="http://www.w3.org/2000/svg" xmlns:xlink="http://www.w3.org/1999/xlink" version="1.1" x="0px" y="0px" viewBox="0 0 32 32" enable-background="new 0 0 32 32" xml:space="preserve"><g><path d="M22.5,5L29,16l-6.5,11h-13L3,16L9.5,5H22.5 M22.5,4h-13C9.146347,4,8.818985,4.1868,8.6390686,4.4912701l-6.5,11   c-0.1854248,0.3138103-0.1854248,0.7036495,0,1.0174599l6.5,11C8.818985,27.8132,9.146347,28,9.5,28h13   c0.353653,0,0.681015-0.1868,0.8609314-0.4912701l6.5-11c0.1854248-0.3138103,0.1854248-0.7036495,0-1.0174599l-6.5-11   C23.181015,4.1868,22.853653,4,22.5,4L22.5,4z"></path><path d="M16,10c3.3084106,0,6,2.6915903,6,6s-2.6915894,6-6,6s-6-2.6915894-6-6S12.6915894,10,16,10 M16,9   c-3.8659973,0-7,3.1340103-7,7s3.1340027,7,7,7s7-3.1340103,7-7S19.8659973,9,16,9L16,9z"></path></g></svg>