<svg height='100px' width='100px'  fill="#000000" xmlns="http://www.w3.org/2000/svg" data-name="Layer 1" viewBox="0 0 100 100" x="0px" y="0px"><title>Security badge</title><path d="M91.06,19.25a1.51,1.51,0,0,0-1-1.66Q70.48,8.95,51,.23a2.1,2.1,0,0,0-1.9,0Q29.51,9,9.91,17.62a1.36,1.36,0,0,0-1,1.48C9,28,8.9,36.91,9,45.82a58.25,58.25,0,0,0,.71,8.71A57.35,57.35,0,0,0,20.39,79.82c7.1,9.57,16.18,16.41,27.68,19.87a6.3,6.3,0,0,0,3.82,0A52.17,52.17,0,0,0,78.54,81.21a57.4,57.4,0,0,0,12.5-36c0-3.85,0-7.69,0-11.54C91,28.87,91,24.06,91.06,19.25Zm-7,17.2c0,3.19,0,6.39,0,9.58A47.65,47.65,0,0,1,73.7,75.91,43.31,43.31,0,0,1,51.57,91.27a5.23,5.23,0,0,1-3.17,0,43.87,43.87,0,0,1-23-16.5,47.62,47.62,0,0,1-8.88-21A48.37,48.37,0,0,1,16,46.53c-0.07-7.39,0-14.79,0-22.18a1.13,1.13,0,0,1,.81-1.23Q33,15.92,49.23,8.67a1.74,1.74,0,0,1,1.57,0Q67,15.91,83.24,23.09a1.25,1.25,0,0,1,.86,1.38C84.06,28.46,84.08,32.45,84.08,36.45Z"></path><path d="M77.62,27.63q-13.49-6-27-12A1.64,1.64,0,0,0,50,15.5V50H78.19q0.13-1.63.14-3.3c0-2.65,0-5.31,0-8,0-3.32,0-6.64,0-10A1,1,0,0,0,77.62,27.63Z"></path><path d="M22.19,53.12a39.57,39.57,0,0,0,7.38,17.45,36.46,36.46,0,0,0,19.1,13.71A4.61,4.61,0,0,0,50,84.5V50H21.82C21.9,51,22,52.09,22.19,53.12ZM50,50h0v0h0Z"></path></svg>