<svg height='100px' width='100px'  fill="#000000" xmlns="http://www.w3.org/2000/svg" xmlns:xlink="http://www.w3.org/1999/xlink" version="1.2" baseProfile="tiny" x="0px" y="0px" viewBox="0 0 128 128" xml:space="preserve"><g><g><path fill="none" stroke="#000000" stroke-width="4" stroke-linejoin="round" stroke-miterlimit="10" d="M21,69c0,0,0-2-2-2    s-9,0-9,4s11,4,11,4V69z"></path><path fill="none" stroke="#000000" stroke-width="4" stroke-linejoin="round" stroke-miterlimit="10" d="M17,115v8c0,0,0,3,3,3    s9,0,9,0s3,0,3-3"></path><path fill="none" stroke="#000000" stroke-width="4" stroke-linejoin="round" stroke-miterlimit="10" d="M61,117"></path><path fill="none" stroke="#000000" stroke-width="4" stroke-linejoin="round" stroke-miterlimit="10" d="M64,75"></path><line fill="none" stroke="#000000" stroke-width="4" stroke-linejoin="round" stroke-miterlimit="10" x1="103" y1="75" x2="25" y2="75"></line><path fill="none" stroke="#000000" stroke-width="4" stroke-linejoin="round" stroke-miterlimit="10" d="M107,69c0,0,0-2,2-2    s9,0,9,4s-11,4-11,4V69z"></path><path fill="none" stroke="#000000" stroke-width="4" stroke-linejoin="round" stroke-miterlimit="10" d="M111,115v8c0,0,0,3-3,3    s-9,0-9,0s-3,0-3-3s0-6,0-6"></path><path fill="none" stroke="#000000" stroke-width="4" stroke-linejoin="round" stroke-miterlimit="10" d="M46.2,51.6    c-3.8,0.5-7.8,1.5-9.2,3.3C33.6,59.6,25,75,25,75s-6,0-6,5c0,0-4,1-4,4v25c0,0-0.1,8,7,8h6.8"></path><path fill="none" stroke="#000000" stroke-width="4" stroke-linejoin="round" stroke-miterlimit="10" d="M37.2,117H106    c7.1,0,7-8,7-8l0-25c0-3-4-4-4-4c0-5-6-5-6-5s-8.4-15.3-11.9-19.9c-1.4-1.9-5.4-2.9-9.3-3.4"></path><path fill="none" stroke="#000000" stroke-width="4" stroke-linejoin="round" stroke-miterlimit="10" d="M67,117"></path><path fill="none" stroke="#000000" stroke-width="4" stroke-linejoin="round" stroke-miterlimit="10" d="M64,75"></path><circle fill="none" stroke="#000000" stroke-width="4" stroke-linejoin="round" stroke-miterlimit="10" cx="64" cy="85" r="4"></circle><line fill="none" stroke="#000000" stroke-width="4" stroke-linejoin="round" stroke-miterlimit="10" x1="15" y1="108" x2="113" y2="108"></line><polyline fill="none" stroke="#000000" stroke-width="4" stroke-linejoin="round" stroke-miterlimit="10" points="33,75 36,87     32,91 22,91 22,76   "></polyline><polyline fill="none" stroke="#000000" stroke-width="4" stroke-linejoin="round" stroke-miterlimit="10" points="95,75 92,87     96,91 106,91 106,76   "></polyline><path fill="none" stroke="#000000" stroke-width="4" stroke-linejoin="round" stroke-miterlimit="10" d="M96,91c0,0,0,4-4,4    c-4.5,0-51.6,0-56,0c-4,0-4-4-4-4"></path><circle fill="none" stroke="#000000" stroke-width="4" stroke-linejoin="round" stroke-miterlimit="10" cx="33" cy="118" r="4"></circle></g><path fill="none" stroke="#000000" stroke-width="4" stroke-linejoin="round" stroke-miterlimit="10" d="M92,30   C92,14.5,79.5,2,64,2S36,14.5,36,30c0,13.2,9.2,24.3,21.5,27.2L64,67l6.5-9.8C82.8,54.3,92,43.2,92,30z"></path></g><path fill="none" stroke="#000000" stroke-width="4" stroke-linejoin="round" stroke-miterlimit="10" d="M55,44V22c0,0,0-7,7-7  c6,0,4,0,4,0s7,0,7,7v22"></path><line fill="none" stroke="#000000" stroke-width="4" stroke-linejoin="round" stroke-miterlimit="10" x1="49" y1="44" x2="79" y2="44"></line><line fill="none" stroke="#000000" stroke-width="4" stroke-linejoin="round" stroke-miterlimit="10" x1="60" y1="24" x2="68" y2="24"></line><path fill="none" stroke="#000000" stroke-width="4" stroke-linejoin="round" stroke-miterlimit="10" d="M75,22h2c0,0,3,0,3,3  s0,9,0,9s0,3-3,3c-2,0-2,0-2,0"></path></svg>