<svg height='100px' width='100px'  fill="#000000" xmlns="http://www.w3.org/2000/svg" xmlns:xlink="http://www.w3.org/1999/xlink" version="1.1" x="0px" y="0px" viewBox="0 0 100 100" enable-background="new 0 0 100 100" xml:space="preserve"><g><path d="M49.251,38.932c-0.3,0.013-0.626,0.017-1.025,0.017c-0.233,0-0.467-0.001-0.7-0.003c-0.233-0.001-0.466-0.003-0.699-0.003   H46.73c-0.152,0.474-0.308,0.977-0.431,1.48c-0.015,0.062-0.032,0.126-0.05,0.188c1.182-0.102,2.463-0.197,4.01-0.296   c0.195-0.499,0.384-0.989,0.548-1.479C50.339,38.87,49.802,38.907,49.251,38.932z"></path><path d="M39.251,49.432c0.196-0.023,0.375-0.048,0.543-0.068c0.365-0.046,0.68-0.088,0.995-0.115   c0.535-0.046,1.068-0.096,1.603-0.146l0.12-0.011c0.361-1.581,0.958-3.281,1.484-4.784c0.249-0.708,0.51-1.458,0.744-2.181   c-2.769,0.297-4.779,0.602-5.831,0.884c0.104,1.34,0.166,2.689,0.23,4.115C39.174,47.875,39.209,48.643,39.251,49.432z"></path><path d="M53.826,27.217c-0.405-0.209-0.813-0.31-1.246-0.31c-0.625,0-1.219,0.204-1.926,0.473c-0.175,0.595-0.791,2.4-0.818,2.48   c-0.269,0.928-0.578,1.871-0.877,2.781c-0.557,1.697-1.132,3.45-1.499,5.263c0.231,0.026,0.464,0.04,0.708,0.04   c0.72,0,1.395-0.118,2.11-0.244c0.183-0.032,0.368-0.065,0.555-0.096c0.102-0.335,0.253-0.815,0.434-1.393   C52.085,33.604,53.6,28.78,53.826,27.217z"></path><path d="M41.427,31.022c-2.056,2.183-3.368,5.011-3.292,7.079l7.744-0.212c0.109-0.303,0.217-0.6,0.323-0.89   c0.258-0.704,0.501-1.369,0.72-2.047c0.154-0.477,0.288-0.97,0.417-1.446c0.108-0.399,0.22-0.811,0.344-1.215   c0.115-0.374,0.248-0.749,0.375-1.113c0.122-0.344,0.247-0.7,0.357-1.053c0.28-0.895,0.453-1.728,0.528-2.542   c-0.179-0.015-0.361-0.021-0.541-0.021C46.006,27.563,43.529,28.791,41.427,31.022z M46.091,30.144   c-0.081,0.1-0.148,0.195-0.209,0.281c-0.124,0.174-0.231,0.323-0.381,0.416l-0.27,0.163c-0.609,0.366-1.184,0.714-1.682,1.234   c-0.147,0.153-0.3,0.302-0.453,0.448c-0.55,0.532-1.069,1.037-1.317,1.783c-0.06,0.174-0.391,0.327-0.56,0.327   c-0.042,0-0.077-0.008-0.106-0.024c-0.21-0.113-0.351-0.346-0.477-0.553l-0.034-0.057c-0.082-0.137,0.031-0.365,0.054-0.409   c0.064-0.123,0.122-0.252,0.18-0.382c0.147-0.328,0.299-0.666,0.551-0.909c0.177-0.171,0.353-0.345,0.529-0.519   c0.818-0.807,1.665-1.641,2.698-2.234l0.071-0.043c0.144-0.086,0.316-0.182,0.45-0.143c0.204,0.064,0.393,0.171,0.611,0.294   c0.096,0.053,0.198,0.111,0.312,0.171l0.11,0.058L46.091,30.144z"></path><path d="M54.408,25.623L54.408,25.623c0.01-0.019,0.02-0.038,0.03-0.058l0.042-0.073l0.081,0.027   c0.013,0.005,0.026,0.01,0.04,0.013l3.208-10.721c-0.174-0.001-0.339-0.003-0.499-0.005c-0.402-0.003-0.763-0.006-1.122,0.009   c-1.947,0.076-1.978,0.192-2.278,1.308c-0.047,0.174-0.1,0.372-0.167,0.597c-0.872,2.892-1.689,5.747-2.587,8.903H54.408z"></path><path d="M36.712,41.458c0.262,0.002,0.525,0.005,0.789,0.005c0.72,0,1.668-0.013,2.623-0.108c0.905-0.093,1.823-0.217,2.711-0.337   c0.762-0.104,1.549-0.211,2.327-0.297l0.019-0.065c0.045-0.159,0.089-0.318,0.127-0.474c0.103-0.423,0.226-0.836,0.347-1.222   c-2.903,0.091-5.79,0.196-8.987,0.314c-0.244,0.01-0.442,0.043-0.606,0.105c-0.12,0.044-0.244,0.154-0.296,0.26   c-0.193,0.389-0.16,0.88,0.086,1.282C36.06,41.259,36.373,41.455,36.712,41.458z"></path><path d="M57.703,13.166c-0.623-0.377-1.083-0.579-1.589-0.579c-0.442,0-0.943,0.151-1.593,0.401   c0.374,0.334,0.665,0.483,1.192,0.483C56.162,13.472,56.77,13.365,57.703,13.166z"></path><path d="M56.265,81.217c0.94,0,1.898-0.023,2.825-0.046l0.264-0.008c0.04-0.108,0.08-0.211,0.118-0.308   c0.089-0.227,0.166-0.423,0.204-0.622c0.453-2.367,0.898-4.736,1.342-7.104l0.504-2.684c0.322-1.703,0.672-3.725,0.833-5.801   c0.109-1.412,0.27-2.843,0.425-4.228c0.108-0.957,0.219-1.945,0.312-2.92c0.214-2.24,0.396-4.52,0.573-6.724l0.035-0.435   c0.016-0.194-0.007-0.394-0.03-0.605c-0.009-0.077-0.018-0.153-0.024-0.233c-0.484-0.059-0.992-0.089-1.549-0.089   c-0.681,0-1.357,0.045-2.01,0.086c-0.336,0.022-0.672,0.043-1.007,0.059l-1.626,0.078c-2.3,0.11-4.678,0.226-7.019,0.309   c-1.085,0.038-2.188,0.054-3.256,0.07c-1.075,0.016-2.188,0.031-3.281,0.071c-1.43,0.05-2.963,0.176-4.495,0.751   c-0.006,0.047-0.014,0.088-0.02,0.127c-0.014,0.087-0.025,0.151-0.02,0.205c0.073,0.799,0.14,1.597,0.207,2.396   c0.158,1.88,0.321,3.826,0.568,5.726c0.319,2.452,0.712,4.934,1.092,7.336c0.174,1.105,0.35,2.211,0.518,3.318   c0.064,0.419,0.13,0.837,0.197,1.255c0.17,1.07,0.345,2.178,0.477,3.273c0.133,1.113,0.239,2.247,0.342,3.343   c0.068,0.729,0.137,1.457,0.213,2.185c0.021,0.2,0.081,0.401,0.144,0.613c0.024,0.083,0.05,0.17,0.073,0.257   c0.13,0.024,0.256,0.05,0.379,0.075c0.303,0.062,0.589,0.121,0.874,0.138c0.4,0.021,0.812-0.007,1.212-0.034l0.241-0.016   c0.392-0.025,0.784-0.056,1.176-0.086c0.421-0.034,0.842-0.065,1.264-0.093c0.282-0.018,0.567-0.025,0.873-0.025   c0.984,0,1.977,0.093,2.937,0.182c0.472,0.045,0.944,0.088,1.417,0.121C54.377,81.19,55.259,81.217,56.265,81.217z"></path><path d="M44.96,44.645c-0.552,1.573-1.038,2.991-1.371,4.346c0.873-0.08,1.884-0.161,2.894-0.196   c0.182-0.007,0.363-0.01,0.544-0.013l0.233-0.004c0.741-1.884,1.761-4.538,2.19-6.147c0.076-0.285,0.17-0.585,0.3-0.958   c-1.343,0.104-2.655,0.218-3.903,0.341C45.569,42.901,45.244,43.836,44.96,44.645z"></path><path d="M62.389,33.011l-0.026-0.084c-0.105-0.328-0.213-0.668-0.396-0.945c-1.524-2.312-3.733-3.667-6.752-4.143   c-0.295,0.964-0.533,1.713-0.766,2.413l0.05,0.044l0.257,0.218l-0.438-0.051l-0.039,0.142c-0.087,0.316-0.173,0.631-0.268,0.944   c-0.312,1.034-0.649,2.079-0.976,3.089c-0.188,0.582-0.375,1.162-0.56,1.744c-0.02,0.065-0.043,0.131-0.066,0.196   c-0.109,0.313-0.212,0.609-0.058,0.881c0.034,0.016,0.062,0.03,0.085,0.043c0.023,0.013,0.05,0.027,0.059,0.028   c1.123-0.036,2.25-0.073,3.376-0.111c2.215-0.073,4.505-0.148,6.758-0.212h0.075c0.278,0,0.559,0.045,0.83,0.089   c0.071,0.013,0.143,0.024,0.214,0.035l-0.342-1.094C63.07,35.162,62.733,34.085,62.389,33.011z"></path><path d="M64.575,41.303c-0.607-0.108-1.705-0.164-3.265-0.164c-2.657,0-6.46,0.164-10.444,0.45   c-0.145,0.389-0.306,0.842-0.43,1.305c-0.465,1.746-1.617,4.705-2.07,5.86c0.333-0.005,0.666-0.008,0.999-0.013   c1.567-0.018,3.188-0.037,4.78-0.15c0.602-0.041,1.205-0.081,1.807-0.121c2.233-0.148,4.542-0.303,6.799-0.592   c0.246-0.031,0.487-0.08,0.766-0.137c0.116-0.024,0.236-0.048,0.364-0.073c0.043-0.305,0.091-0.609,0.139-0.913   c0.114-0.729,0.232-1.481,0.285-2.222c0.028-0.385,0.086-0.772,0.142-1.146C64.55,42.7,64.656,41.994,64.575,41.303z"></path><polygon points="76.607,54.716 76.607,54.716 76.607,54.716  "></polygon><path d="M74.791,15.767c-1.243-6.689-5.975-9.131-11.78-9.086S41.899,5.675,41.899,5.675C14.916,7.134,19.263,18.876,19.263,18.876   s0.319,42.74,2.886,60.393s9.987,13.367,9.987,13.367s23.747,4.08,32.678-0.441s13.755-8.086,15.794-16.01   S76.034,22.456,74.791,15.767z M24.766,48.363l0.106-0.067c0.106-0.066,0.196-0.134,0.276-0.193c0.168-0.122,0.301-0.22,0.457-0.24   c0.204-0.021,0.41,0.048,0.608,0.119l0.116,0.04c1.172,0.396,2.134,0.726,3.026,1.04l0.076,0.027   c0.211,0.071,0.45,0.154,0.583,0.327c0.147,0.187,0.204,0.534,0.122,0.741c-0.085,0.217-0.367,0.38-0.583,0.453   c-0.038,0.013-0.081,0.02-0.126,0.02c-0.134,0-0.279-0.055-0.406-0.104l-0.688-0.254c-0.886-0.327-1.803-0.665-2.689-1.038   c-0.203-0.087-0.351-0.267-0.522-0.476c-0.081-0.098-0.167-0.203-0.267-0.307L24.766,48.363z M26.3,55.206l-0.33,0.038   c-0.074,0.008-0.137,0.017-0.196,0.017c-0.095,0-0.168-0.02-0.222-0.058l-0.095-0.067c-0.206-0.142-0.438-0.303-0.549-0.524   c-0.056-0.112-0.04-0.256,0.044-0.404c0.118-0.212,0.392-0.448,0.665-0.472c0.208-0.018,0.475-0.018,0.75-0.012   c0.107,0.002,0.214,0.004,0.321,0.004h0.092l0.008,0.078c0.188-0.033,0.377-0.068,0.565-0.104c0.524-0.096,1.065-0.195,1.603-0.269   c0.469-0.062,0.885-0.061,1.24,0.005c0.225,0.042,0.475,0.391,0.481,0.604c0.008,0.222-0.267,0.519-0.478,0.579   c-0.521,0.15-1.068,0.233-1.583,0.303C27.845,55.03,27.06,55.12,26.3,55.206z M31.298,58.948c-0.796,0.48-1.619,0.945-2.415,1.396   c-0.333,0.188-0.666,0.375-0.997,0.564c-0.134,0.077-0.267,0.115-0.394,0.115c-0.221,0-0.403-0.116-0.512-0.325   c-0.094-0.184-0.117-0.683,0.064-0.783c1.269-0.707,2.577-1.392,3.843-2.052l0.398-0.207c0.047-0.025,0.104-0.024,0.19-0.007   c0.027,0.005,0.059,0.012,0.094,0.015l0.055,0.007l0.025,0.047c0.018,0.035,0.045,0.075,0.073,0.117   c0.089,0.132,0.181,0.268,0.127,0.386C31.74,58.457,31.563,58.788,31.298,58.948z M71.677,49.073   c0.064-0.074,0.122-0.156,0.175-0.234c0.126-0.183,0.235-0.339,0.393-0.356c0.812-0.093,1.549-0.438,2.262-0.771   c0.447-0.209,0.909-0.426,1.389-0.581l0.049-0.016c0.104-0.035,0.212-0.07,0.327-0.075c0.027-0.002,0.053-0.002,0.079-0.002   c0.442,0,0.678,0.171,0.702,0.506c0.017,0.231-0.164,0.566-0.357,0.664c-0.361,0.183-0.74,0.343-1.106,0.497   c-0.284,0.12-0.577,0.243-0.858,0.377c-0.171,0.079-0.34,0.184-0.503,0.283c-0.244,0.152-0.497,0.309-0.774,0.396   c-0.181,0.056-0.39,0.084-0.621,0.084c-0.194,0-0.407-0.019-0.635-0.059c-0.157-0.029-0.262-0.191-0.373-0.365   c-0.047-0.074-0.096-0.148-0.151-0.217l-0.053-0.067L71.677,49.073z M68.461,40.446c-0.174,0.251-0.481,0.402-0.889,0.44   c-0.341,0.032-0.676,0.053-1.03,0.072l-0.363,0.022c-0.508,1.751-0.731,3.532-0.947,5.257c-0.054,0.438-0.109,0.872-0.167,1.308   c-0.116,0.855-0.198,1.728-0.278,2.573l-0.064,0.675c-0.21,2.181-0.417,4.361-0.625,6.541l-0.322,3.379   c-0.037,0.389-0.078,0.776-0.118,1.166c-0.082,0.789-0.167,1.604-0.221,2.408c-0.226,3.321-0.934,6.613-1.559,9.52   c-0.425,1.977-0.834,4.13-1.254,6.58c-0.062,0.365-0.024,0.758,0.016,1.173c0.02,0.207,0.041,0.421,0.051,0.641l0.002,0.058   l-0.047,0.032c-0.058,0.04-0.119,0.084-0.183,0.132c-0.167,0.125-0.356,0.265-0.569,0.369c-0.177,0.084-0.375,0.124-0.551,0.157   c-0.053,0.01-0.104,0.021-0.153,0.032l-0.469,1.305l-0.057,0.012c-0.091,0.017-0.179,0.038-0.266,0.059   c-0.191,0.045-0.371,0.088-0.558,0.088c-1.165-0.007-2.323-0.021-3.481-0.034c-1.35-0.016-2.7-0.031-4.051-0.038h-0.422   c-1.056,0-2.129,0.015-3.167,0.027c-0.493,0.007-0.986,0.015-1.479,0.02c-0.106,0.001-0.213,0.008-0.32,0.014   c-0.124,0.007-0.246,0.015-0.369,0.015c-0.044,0-0.089-0.002-0.133-0.003c-0.659-0.035-0.917-0.269-1.063-0.964   c-0.023-0.11-0.035-0.224-0.047-0.335c-0.011-0.105-0.022-0.209-0.044-0.312c-0.021-0.102-0.06-0.204-0.098-0.303   c-0.013-0.037-0.027-0.072-0.04-0.107c-0.026-0.023-0.049-0.049-0.072-0.074c-0.042-0.045-0.085-0.092-0.118-0.101   c-1.35-0.362-1.388-0.409-1.362-1.672l0.003-0.159c0.021-1.132-0.062-2.285-0.141-3.401l-0.023-0.335   c-0.167-2.368-0.537-4.752-0.895-7.059c-0.129-0.831-0.258-1.662-0.378-2.494c-0.117-0.803-0.235-1.606-0.354-2.41   c-0.305-2.069-0.62-4.21-0.897-6.318c-0.116-0.889-0.178-1.796-0.237-2.674c-0.032-0.469-0.063-0.936-0.103-1.403   c-0.307-3.583-0.617-7.163-0.931-10.744c-0.012-0.14-0.045-0.279-0.075-0.402c-0.01-0.043-0.02-0.083-0.028-0.12   c-0.252-0.237-0.509-0.271-0.728-0.271c-0.108,0-0.216,0.01-0.324,0.018c-0.159,0.015-0.318,0.023-0.471,0.015   c-0.15-0.014-0.302-0.002-0.457,0.009c-0.114,0.009-0.23,0.017-0.346,0.017c-0.25,0-0.581-0.034-0.919-0.289l-0.058-0.045   l0.022-0.068c0.359-1.111,0.221-2.276-0.4-3.369l-0.037-0.063l0.05-0.055c0.563-0.623,1.245-0.696,1.904-0.769   c0.299-0.031,0.583-0.062,0.852-0.142c-0.082-0.718,0.151-1.377,0.377-2.015l0.058-0.164c0.792-2.271,1.704-3.966,2.87-5.334   c1.323-1.556,2.937-2.701,4.793-3.404c1.06-0.402,2.145-0.726,3.294-1.068c0.328-0.098,0.661-0.198,0.998-0.301l0.032-0.004   c0.209,0.003,0.467,0.013,0.625,0.019c0.049,0.002,0.088,0.003,0.113,0.003c0.84-2.995,1.831-6.543,2.834-10.202   c0.213-0.779,0.411-1.502,0.117-2.292c-0.211-0.567,0.037-1.104,0.698-1.512c0.504-0.312,1.288-0.485,2.206-0.485   c1.593,0,3.181,0.504,3.862,1.224c0.177,0.187,0.292,0.426,0.402,0.657c0.049,0.104,0.098,0.207,0.153,0.305l0.025,0.046   l-0.021,0.047c-1.672,3.604-2.801,7.442-3.893,11.154c-0.144,0.488-0.288,0.978-0.432,1.466c0.044,0.027,0.087,0.056,0.131,0.083   c0.222,0.142,0.431,0.275,0.65,0.368c0.364,0.156,0.741,0.302,1.105,0.442c0.434,0.167,0.883,0.34,1.315,0.532   c2.686,1.203,4.338,3.014,5.05,5.537c0.184,0.653,0.44,1.302,0.687,1.928c0.146,0.37,0.296,0.752,0.431,1.133   c0.19,0.536,0.282,0.942,0.11,1.186c-0.115,0.164-0.329,0.235-0.692,0.235c-0.137,0-0.302-0.009-0.502-0.031   c-0.007,0.041-0.013,0.084-0.02,0.126c-0.031,0.206-0.062,0.419-0.195,0.558c-0.212,0.219-0.637,0.249-0.809,0.253   c-0.548,0.008-1.096,0.019-1.644,0.028c-1.284,0.023-2.612,0.05-3.918,0.05c-0.645,0-1.235-0.007-1.804-0.018   c-1.216-0.027-2.393,0.056-3.709,0.159c-0.135,0.441-0.299,0.911-0.522,1.491l0.601-0.038c0.761-0.046,1.522-0.094,2.283-0.144   c0.369-0.024,0.745-0.032,1.108-0.038c0.548-0.012,1.114-0.022,1.663-0.09c1.695-0.205,3.42-0.207,5.088-0.207   c0.431,0,0.863-0.002,1.294-0.005c0.772-0.005,1.54-0.05,2.354-0.096c0.342-0.019,0.691-0.04,1.048-0.058   c-0.013-0.157-0.027-0.311-0.041-0.459c-0.041-0.451-0.08-0.876-0.084-1.297c-0.002-0.171,0.125-0.436,0.236-0.547   c0.045-0.045,0.089-0.067,0.135-0.067c0.252,0.015,0.654,0.118,0.759,0.34c0.318,0.681,0.567,1.354,0.74,2.002   C68.661,39.896,68.625,40.209,68.461,40.446z M76.295,60.455c-0.048,0.09-0.097,0.181-0.131,0.264l-0.034,0.08l-0.085-0.021   c-0.116-0.03-0.22-0.051-0.316-0.071c-0.188-0.04-0.352-0.073-0.498-0.146c-1.09-0.529-2.191-1.083-3.255-1.619l-0.243-0.122   c-0.356-0.179-0.512-0.463-0.45-0.822c0.055-0.315,0.375-0.562,0.729-0.562c0.083,0,0.164,0.014,0.241,0.04   c0.327,0.114,0.66,0.282,0.961,0.486l0.145,0.097c0.569,0.388,1.107,0.753,1.868,0.797c0.396,0.021,0.757,0.477,1.076,0.877   c0.045,0.058,0.089,0.113,0.132,0.164C76.529,60.012,76.431,60.198,76.295,60.455z M77.142,54.557   c-0.122,0.161-0.327,0.262-0.535,0.262h-0.003c-1.094-0.005-2.205-0.045-3.279-0.085l-0.452-0.016   c-0.132-0.005-0.258-0.075-0.375-0.146c-0.386-0.238-0.509-0.554-0.336-0.864c0.104-0.186,0.391-0.392,0.621-0.392   c0.475,0.025,0.924,0.103,1.221,0.153c0.089,0.015,0.165,0.027,0.221,0.035c0.292,0,0.567-0.005,0.818-0.008   c0.214-0.003,0.412-0.007,0.599-0.007c0.361,0,0.634,0.012,0.887,0.039c0.275,0.03,0.628,0.328,0.701,0.59   C77.273,54.27,77.242,54.426,77.142,54.557z"></path><path d="M44.565,82.38c0.02,0.047,0.037,0.093,0.053,0.136c0.048,0.126,0.093,0.246,0.148,0.274   c0.237,0.121,0.528,0.151,0.731,0.154c0.721,0.01,1.442,0.012,2.164,0.013c0.582,0,1.164,0.002,1.746,0.009   c0.415,0.003,0.83,0.004,1.246,0.004c1.194,0.004,2.429,0.007,3.64,0.087c0.179,0.013,0.364,0.019,0.55,0.019   c0.806,0,1.599-0.113,2.335-0.232c0.031-0.007,0.099-0.09,0.17-0.177c0.031-0.039,0.066-0.082,0.106-0.13   c-1.545-0.005-3.08-0.104-4.564-0.199c-1.5-0.098-3.049-0.197-4.585-0.197C46.947,82.14,45.721,82.219,44.565,82.38z"></path></g></svg>