<svg height='100px' width='100px'  fill="#000000" xmlns="http://www.w3.org/2000/svg" xmlns:xlink="http://www.w3.org/1999/xlink" version="1.1" x="0px" y="0px" viewBox="0 0 32 32" enable-background="new 0 0 32 32" xml:space="preserve"><g><g><path d="M16,18l1.912-1.361l4.535-3.24l-1.857-3.251C20.229,9.518,19.341,9,18.621,9h-5.242c-0.72,0-1.608,0.518-1.969,1.147    l-1.857,3.251l4.535,3.24L16,18z"></path><circle cx="16" cy="5" r="3"></circle><path d="M30,8h-7v2h6v1.485l-13,9.286L3,11.485V10h6V8H2C1.447,8,1,8.447,1,9v18c0,0.553,0.447,1,1,1h28c0.553,0,1-0.447,1-1V9    C31,8.447,30.553,8,30,8z M3,13.942l6.209,4.435L3,24.586V13.942z M4.414,26l6.444-6.444L16,23.229l5.142-3.673L27.586,26H4.414z     M29,24.586l-6.209-6.209L29,13.942V24.586z"></path></g></g></svg>