<svg height='100px' width='100px'  fill="#000000" xmlns="http://www.w3.org/2000/svg" xmlns:xlink="http://www.w3.org/1999/xlink" xml:space="preserve" version="1.1" style="shape-rendering:geometricPrecision;text-rendering:geometricPrecision;image-rendering:optimizeQuality;" viewBox="0 0 12909 19803" x="0px" y="0px" fill-rule="evenodd" clip-rule="evenodd"><defs><style type="text/css">
   
    .fil0 {fill:#000000;fill-rule:nonzero}
   
  </style></defs><g><path class="fil0" d="M1483 0l5776 0c409,0 780,167 1048,436 269,268 436,639 436,1047l0 6564c746,296 1089,899 1427,1493 232,408 461,812 819,1025 361,215 678,462 909,766 248,327 390,708 374,1166 -58,1688 82,2464 323,3811 78,433 167,925 260,1509 132,356 13,681 -276,964 -207,204 -513,385 -870,535 -339,144 -727,262 -1115,346 -1126,244 -2332,192 -2661,-322 -16,-26 -29,-54 -39,-81 -26,-75 -61,-167 -102,-272l-112 -282c-421,-348 -852,-723 -1241,-1139 -374,-399 -704,-831 -943,-1303 -377,-53 -580,-17 -936,47 -155,27 -333,60 -504,85 -534,80 -926,-192 -1137,-578 -89,-161 -143,-344 -160,-528 -17,-189 4,-381 68,-553l15 -35c14,-33 29,-66 45,-98l-1404 0c-408,0 -779,-167 -1047,-435 -269,-269 -436,-640 -436,-1048l0 -11637c0,-408 167,-779 436,-1047 268,-269 639,-436 1047,-436zm6470 11485l39 -3 0 -3164 0 -6835c0,-201 -83,-384 -216,-517 -132,-132 -316,-215 -517,-215l-5776 0c-201,0 -384,83 -517,215 -132,133 -215,316 -215,517l0 11637c0,201 83,384 215,517 133,132 316,215 517,215l4191 0c-201,-269 -405,-525 -620,-774l-8 -9c-182,155 -418,249 -674,249 -287,0 -548,-117 -737,-306 -189,-188 -306,-449 -306,-737 0,-274 106,-524 280,-710 -326,-372 -410,-819 -322,-1214 45,-203 136,-392 263,-549 128,-160 296,-290 492,-373 394,-167 892,-143 1407,211 575,395 1130,792 1661,1191 291,219 572,437 843,654zm790 571l601 601c161,160 161,420 1,581 -160,161 -420,162 -581,2l-656 -656c-456,-388 -940,-772 -1447,-1154 -516,-388 -1064,-779 -1637,-1174 -275,-189 -516,-212 -691,-138 -78,33 -146,86 -200,153 -56,70 -96,153 -116,241 -43,196 12,425 207,614 521,505 976,973 1400,1465 386,449 744,918 1100,1453 77,58 132,145 146,247 12,37 19,76 19,116 0,16 -1,33 -3,49 57,554 151,975 318,1338 179,391 451,737 859,1135 148,144 151,381 7,530 -144,148 -381,151 -530,7 -473,-462 -794,-876 -1017,-1361 -177,-387 -286,-806 -354,-1319l-2318 17c-167,1 -268,75 -313,175l-7 19c-25,69 -34,147 -27,224 8,84 32,166 72,238 70,129 199,220 371,194 219,-33 360,-58 481,-80 502,-90 755,-135 1391,-16 116,23 220,99 272,216 207,463 525,889 894,1283 372,398 803,769 1225,1116 56,40 102,96 130,165l150 377 94 249c192,198 1024,145 1852,-34 352,-77 694,-180 983,-302 272,-115 497,-245 635,-380 72,-71 111,-133 97,-177 -14,-30 -23,-62 -29,-96 -97,-611 -186,-1102 -263,-1535 -251,-1396 -396,-2202 -335,-3965 9,-272 -75,-498 -222,-691 -164,-217 -410,-404 -697,-576 -527,-313 -805,-803 -1086,-1297 -216,-380 -434,-763 -776,-1010l0 3156zm-4371 -9037c1638,0 2967,1328 2967,2967 0,1136 -639,2123 -1576,2621l0 -1398c172,-28 328,-108 447,-222 152,-147 248,-350 247,-573l1 -131c6,-656 17,-1790 -908,-1857 -718,-54 -912,722 -961,1389 -17,232 -17,438 -17,582l0 17c0,223 95,426 247,573 120,114 275,194 448,222l0 1607c-283,89 -584,137 -895,137 -270,0 -532,-36 -781,-104l0 -1651c160,-29 305,-105 418,-212l15 -14c147,-146 238,-349 238,-573l0 -533 0 -6 0 -43 0 -5 0 -1125c0,-126 -102,-228 -228,-228 -126,0 -228,102 -228,228l0 903 -215 0 0 -903c0,-126 -102,-228 -228,-228 -125,0 -227,102 -227,228l0 903 -215 0 0 -903c0,-126 -102,-228 -228,-228 -126,0 -228,102 -228,228l0 1125 0 5 0 120 0 6 0 456c0,224 91,427 238,573 116,115 266,196 433,226l0 1486c-1022,-469 -1731,-1500 -1731,-2698 0,-1639 1328,-2967 2967,-2967zm342 9677c-236,-257 -484,-513 -751,-777 -83,96 -133,220 -133,356 0,150 60,286 158,384 98,98 234,158 384,158 130,0 249,-46 342,-121z"></path></g></svg>