<svg height='100px' width='100px'  fill="#000000" xmlns:dc="http://purl.org/dc/elements/1.1/" xmlns:cc="http://creativecommons.org/ns#" xmlns:rdf="http://www.w3.org/1999/02/22-rdf-syntax-ns#" xmlns:svg="http://www.w3.org/2000/svg" xmlns="http://www.w3.org/2000/svg" xmlns:sodipodi="http://sodipodi.sourceforge.net/DTD/sodipodi-0.dtd" xmlns:inkscape="http://www.inkscape.org/namespaces/inkscape" version="1.1" x="0px" y="0px" viewBox="0 0 100 100"><g transform="translate(0,-952.36218)"><path style="font-size:medium;font-style:normal;font-variant:normal;font-weight:normal;font-stretch:normal;text-indent:0;text-align:start;text-decoration:none;line-height:normal;letter-spacing:normal;word-spacing:normal;text-transform:none;direction:ltr;block-progression:tb;writing-mode:lr-tb;text-anchor:start;baseline-shift:baseline;opacity:1;color:#000000;fill:#000000;fill-opacity:1;stroke:none;stroke-width:4;marker:none;visibility:visible;display:inline;overflow:visible;enable-background:accumulate;font-family:Sans;-inkscape-font-specification:Sans" d="M 49.78125 8.96875 A 2.0002 2.0002 0 0 0 48 11 L 48 23.1875 A 2.0002 2.0002 0 1 0 52 23.1875 L 52 11 A 2.0002 2.0002 0 0 0 49.78125 8.96875 z M 88 19.40625 A 2.0002 2.0002 0 0 0 87.6875 19.4375 A 2.0002 2.0002 0 0 0 86.6875 19.9375 L 79.0625 26.5625 A 2.0049378 2.0049378 0 1 0 81.6875 29.59375 L 89.3125 22.96875 A 2.0002 2.0002 0 0 0 88 19.40625 z M 11.84375 19.4375 A 2.0002 2.0002 0 0 0 10.6875 22.96875 L 18.3125 29.59375 A 2.0049378 2.0049378 0 1 0 20.9375 26.5625 L 13.3125 19.9375 A 2.0002 2.0002 0 0 0 11.84375 19.4375 z M 35.6875 30.875 A 2.0002 2.0002 0 1 0 35.6875 34.875 L 45.34375 34.875 L 36.84375 43.28125 L 26.84375 31.59375 A 2.0002 2.0002 0 0 0 23.65625 31.78125 L 14.84375 45.0625 A 2.0002 2.0002 0 0 0 16.5 48.15625 L 35.28125 48.15625 L 45.90625 80.53125 L 23 51.28125 A 2.0002 2.0002 0 0 0 21.25 50.5 A 2.0002 2.0002 0 0 0 19.875 53.75 L 48.4375 90.21875 A 2.0002 2.0002 0 0 0 51.5625 90.21875 L 79.46875 54.625 A 2.0035523 2.0035523 0 0 0 76.3125 52.15625 L 54.40625 80.125 L 65.75 48.15625 L 83.5 48.15625 A 2.0002 2.0002 0 0 0 85.15625 45.03125 L 76.28125 31.78125 A 2.0002 2.0002 0 0 0 74.625 30.90625 L 35.6875 30.875 z M 54.9375 34.90625 L 70.53125 34.90625 L 63.375 44.15625 L 41.65625 44.15625 L 50.0625 35.84375 L 55.34375 40.6875 A 2.0012813 2.0012813 0 1 0 58.0625 37.75 L 54.9375 34.90625 z M 25.53125 36.21875 L 32.34375 44.15625 L 20.25 44.15625 L 25.53125 36.21875 z M 74.46875 36.3125 L 79.75 44.15625 L 68.40625 44.15625 L 74.46875 36.3125 z M 39.5 48.15625 L 61.5 48.15625 L 50.09375 80.375 L 39.5 48.15625 z " transform="translate(0,952.36218)"></path></g></svg>