<svg height='100px' width='100px'  fill="#000000" xmlns="http://www.w3.org/2000/svg" xmlns:xlink="http://www.w3.org/1999/xlink" version="1.1" x="0px" y="0px" viewBox="0 0 100 100" enable-background="new 0 0 100 100" xml:space="preserve"><ellipse fill="#000000" cx="40.625" cy="49.062" rx="1.875" ry="2.812"></ellipse><ellipse fill="#000000" cx="59.375" cy="49.062" rx="1.875" ry="2.812"></ellipse><path fill="#000000" d="M59.375,53.75h-18.75c-0.586,0-1.137,0.274-1.492,0.74c-0.354,0.467-0.471,1.073-0.313,1.637  c0.079,0.285,2.049,6.998,11.181,6.998c9.133,0,11.102-6.713,11.182-6.998c0.156-0.564,0.041-1.17-0.315-1.637  C60.514,54.024,59.961,53.75,59.375,53.75z"></path><path fill="#000000" d="M70.625,11.559h-45c-4.653,0-8.438,3.785-8.438,8.438v61.875c0,4.64,3.765,8.414,8.401,8.434  c0.013,0,0.024,0.007,0.037,0.007h45c0.013,0,0.024-0.007,0.037-0.007c2.567-0.02,4.651-2.111,4.651-4.684v-15l0,0  c0-0.001,0-0.003,0-0.003V16.246C75.312,13.661,73.21,11.559,70.625,11.559z M73.438,16.246v54.372c0,1.551-1.262,2.812-2.812,2.812  c-0.007,0-0.011,0.003-0.019,0.003H26.562v-60h44.062C72.176,13.434,73.438,14.695,73.438,16.246z M19.062,19.996  c0-3.296,2.454-6.007,5.625-6.467v60c-2.276,0.256-4.265,1.402-5.625,3.105V19.996z M70.625,88.434  c-0.007,0-0.011,0.004-0.019,0.004H25.644c-0.008,0-0.011-0.004-0.019-0.004c-3.618,0-6.562-2.944-6.562-6.562  s2.944-6.562,6.562-6.562h45c0.013,0,0.024-0.007,0.037-0.007c1.045-0.008,2-0.37,2.776-0.958v11.277  C73.438,87.172,72.176,88.434,70.625,88.434z"></path><path fill="#000000" d="M69.688,81.871c0-0.518-0.419-0.938-0.938-0.938H65c-0.518,0-0.938,0.419-0.938,0.938  c0,0.519,0.419,0.938,0.938,0.938h3.75C69.268,82.809,69.688,82.39,69.688,81.871z"></path><path fill="#000000" d="M62.188,81.871c0-0.518-0.419-0.938-0.938-0.938h-1.875c-0.518,0-0.938,0.419-0.938,0.938  c0,0.519,0.419,0.938,0.938,0.938h1.875C61.768,82.809,62.188,82.39,62.188,81.871z"></path><path fill="#000000" d="M56.562,81.871c0-0.518-0.419-0.938-0.938-0.938h-3.75c-0.518,0-0.938,0.419-0.938,0.938  c0,0.519,0.419,0.938,0.938,0.938h3.75C56.143,82.809,56.562,82.39,56.562,81.871z"></path><path fill="#000000" d="M49.062,81.871c0-0.518-0.419-0.938-0.938-0.938h-7.5c-0.518,0-0.938,0.419-0.938,0.938  c0,0.519,0.419,0.938,0.938,0.938h7.5C48.643,82.809,49.062,82.39,49.062,81.871z"></path><path fill="#000000" d="M37.812,81.871c0-0.518-0.419-0.938-0.938-0.938h-15c-0.518,0-0.938,0.419-0.938,0.938  c0,0.519,0.419,0.938,0.938,0.938h15C37.393,82.809,37.812,82.39,37.812,81.871z"></path><path fill="#000000" d="M70.625,77.184h-3.75c-0.518,0-0.938,0.419-0.938,0.938c0,0.519,0.419,0.938,0.938,0.938h3.75  c0.518,0,0.938-0.419,0.938-0.938C71.562,77.603,71.143,77.184,70.625,77.184z"></path><path fill="#000000" d="M61.25,79.059h1.875c0.518,0,0.938-0.419,0.938-0.938c0-0.518-0.419-0.938-0.938-0.938H61.25  c-0.518,0-0.938,0.419-0.938,0.938C60.312,78.64,60.732,79.059,61.25,79.059z"></path><path fill="#000000" d="M53.75,79.059h3.75c0.518,0,0.938-0.419,0.938-0.938c0-0.518-0.419-0.938-0.938-0.938h-3.75  c-0.518,0-0.938,0.419-0.938,0.938C52.812,78.64,53.232,79.059,53.75,79.059z"></path><path fill="#000000" d="M42.5,79.059H50c0.518,0,0.938-0.419,0.938-0.938c0-0.518-0.419-0.938-0.938-0.938h-7.5  c-0.518,0-0.938,0.419-0.938,0.938C41.562,78.64,41.982,79.059,42.5,79.059z"></path><path fill="#000000" d="M23.75,79.059h15c0.518,0,0.938-0.419,0.938-0.938c0-0.518-0.419-0.938-0.938-0.938h-15  c-0.518,0-0.938,0.419-0.938,0.938C22.812,78.64,23.232,79.059,23.75,79.059z"></path><path fill="#000000" d="M70.625,84.684h-3.75c-0.518,0-0.938,0.419-0.938,0.938c0,0.519,0.419,0.938,0.938,0.938h3.75  c0.518,0,0.938-0.419,0.938-0.938C71.562,85.103,71.143,84.684,70.625,84.684z"></path><path fill="#000000" d="M63.125,84.684H61.25c-0.518,0-0.938,0.419-0.938,0.938c0,0.519,0.419,0.938,0.938,0.938h1.875  c0.518,0,0.938-0.419,0.938-0.938C64.062,85.103,63.643,84.684,63.125,84.684z"></path><path fill="#000000" d="M57.5,84.684h-3.75c-0.518,0-0.938,0.419-0.938,0.938c0,0.519,0.419,0.938,0.938,0.938h3.75  c0.518,0,0.938-0.419,0.938-0.938C58.438,85.103,58.018,84.684,57.5,84.684z"></path><path fill="#000000" d="M50,84.684h-7.5c-0.518,0-0.938,0.419-0.938,0.938c0,0.519,0.419,0.938,0.938,0.938H50  c0.518,0,0.938-0.419,0.938-0.938C50.938,85.103,50.518,84.684,50,84.684z"></path><path fill="#000000" d="M38.75,84.684h-15c-0.518,0-0.938,0.419-0.938,0.938c0,0.519,0.419,0.938,0.938,0.938h15  c0.518,0,0.938-0.419,0.938-0.938C39.688,85.103,39.268,84.684,38.75,84.684z"></path></svg>