<?xml version="1.0" encoding="utf-8"?>
<!-- Generator: Adobe Illustrator 24.2.1, SVG Export Plug-In . SVG Version: 6.00 Build 0)  -->
<svg version="1.1" id="Layer_1" xmlns="http://www.w3.org/2000/svg" xmlns:xlink="http://www.w3.org/1999/xlink" x="0px" y="0px"
	 viewBox="0 0 100 100" enable-background="new 0 0 100 100" xml:space="preserve">
<path d="M50,56.327c9.763,0,17.706-7.943,17.706-17.706S59.763,20.915,50,20.915s-17.706,7.943-17.706,17.706
	S40.237,56.327,50,56.327z M50,22.915c8.66,0,15.706,7.046,15.706,15.706S58.66,54.327,50,54.327s-15.706-7.046-15.706-15.706
	S41.34,22.915,50,22.915z"/>
<path d="M22.895,90.021h54.242c3.055,0,5.54-2.485,5.54-5.54v-2.33c0-0.553-0.447-1-1-1H77.81L64.458,55.338
	c4.687-4.059,7.66-10.045,7.66-16.717c0-11.861-9.384-21.568-21.118-22.093v-5.334c0-0.553-0.447-1-1-1s-1,0.447-1,1v5.334
	C37.266,17.053,27.882,26.76,27.882,38.621c0,6.69,2.989,12.69,7.697,16.75l-13.335,25.78h-3.889c-0.553,0-1,0.447-1,1v2.33
	C17.354,87.536,19.84,90.021,22.895,90.021z M29.882,38.621c0-11.093,9.025-20.118,20.118-20.118s20.118,9.025,20.118,20.118
	S61.093,58.739,50,58.739S29.882,49.713,29.882,38.621z M37.181,56.628C40.8,59.212,45.224,60.739,50,60.739
	c4.794,0,9.232-1.538,12.859-4.139l12.699,24.551h-9.444c-0.279-3.976-3.331-7.199-7.254-7.788
	c-0.442-4.272-4.098-7.615-8.527-7.615c-4.403,0-8.038,3.304-8.515,7.539c-4.244,0.298-7.637,3.661-7.932,7.864h-9.39L37.181,56.628
	z M42.428,75.256c3.422,0,6.238,2.595,6.542,5.895H35.886C36.19,77.851,39.006,75.256,42.428,75.256z M43.825,73.379
	c0.426-3.173,3.179-5.632,6.508-5.632c3.3,0,6.031,2.415,6.495,5.546c-2.963,0.254-5.497,2.002-6.828,4.481
	C48.768,75.481,46.504,73.817,43.825,73.379z M57.572,75.256c3.422,0,6.238,2.595,6.542,5.895H51.03
	C51.335,77.851,54.151,75.256,57.572,75.256z M19.354,83.151h61.322v1.33c0,1.952-1.588,3.54-3.54,3.54H22.895
	c-1.952,0-3.54-1.588-3.54-3.54L19.354,83.151L19.354,83.151z"/>
<path d="M45.752,38.621c0,2.351,1.912,4.263,4.263,4.263s4.264-1.912,4.264-4.263c0-2.005-1.396-3.679-3.264-4.132v-5.56
	l0.874,0.874c0.195,0.195,0.451,0.293,0.707,0.293s0.512-0.098,0.707-0.293c0.391-0.391,0.391-1.023,0-1.414l-2.6-2.6
	c-0.391-0.391-1.023-0.391-1.414,0l-2.592,2.592c-0.391,0.391-0.391,1.023,0,1.414s1.023,0.391,1.414,0l0.903-0.903v5.597
	C47.147,34.942,45.752,36.616,45.752,38.621z M52.278,38.621c0,1.248-1.016,2.263-2.264,2.263s-2.263-1.015-2.263-2.263
	s1.015-2.263,2.263-2.263S52.278,37.373,52.278,38.621z"/>
</svg>
