<svg height='100px' width='100px'  fill="#000000" xmlns="http://www.w3.org/2000/svg" xmlns:xlink="http://www.w3.org/1999/xlink" version="1.1" x="0px" y="0px" viewBox="0 0 100 100" style="enable-background:new 0 0 100 100;" xml:space="preserve"><path d="M97.4847717,56.4523735v-4.0046539c0-0.5399399-0.2902756-1.0424957-0.7577591-1.3120041l-8.5407104-4.9309731  c-1.6507339-0.9538879-3.7011108-0.9529648-5.3509216,0l-1.3567657,0.7831421v-3.6083527L20.5685387,8.2134199l-0.1181412-0.0682993  L2.6181402,18.4403973L2.5,18.5082359v21.4696846l3.7961788,2.191597l0.0032306,6.4990959l-0.0636849,0.7208405l0.0849133,0.9183578  l0.4610238,1.5109024l0.8016,1.4426041l0.9488144,1.1061783l0.9571209,0.7402229l0.8763599,0.3945694l0.7485294,0.1158333  l0.5025578-0.0613747l0.4238749-0.223362l0.0237665,0.0410728c0.0691071-0.039917,0.1208515-0.1021042,0.1836128-0.1503868  l0.8828793-0.4652328l0.2796602,0.8112907l0.796524,1.4702911l0.9515829,1.1371002l0.9668121,0.7591438l0.8888206,0.4102592  l0.7591438,0.1241417l0.411644-0.0383034l0.5191135-0.2633934l0.0332851,0.0575714  c0.0908546-0.052494,0.1601925-0.1298523,0.2394524-0.195961l0.8270397-0.4196625l0.3382702,0.9501991l0.8246746,1.4555244  l0.9677334,1.1107979l0.9746571,0.7268372l0.8888206,0.3770332l0.6483879,0.091835l0.5099411-0.0604515l0.4257202-0.2320137  l0.0279198,0.0483398c0.0872784-0.0503578,0.1547718-0.1262169,0.2318382-0.1898994l1.7220917-0.9384308l0.3124256-0.2418175  l12.8791332,7.4359093l2.0633011-1.1910934v2.2455902v0.1366043l2.6132774,1.5084763  c-0.0753937,0.2858887-0.1277161,0.5920868-0.1277161,0.9383163c0,1.0277252,0.3442688,2.1897507,0.96912,3.2719345  c0.6248512,1.0821762,1.4587555,1.9613113,2.3489609,2.4749451c0.5413208,0.3124237,1.0678749,0.470253,1.5473595,0.470253  c0.3456535,0,0.6668472-0.0816879,0.9515839-0.2464371l1.9165497-1.1061783  c0.3518829-0.2031708,0.6193695-0.5335922,0.7995796-0.9497375l2.1663857,1.2506256l0.8140602-0.4697952l3.5852814,2.0702286  v0.9400406l6.7930641,3.9217072l0.8163681-0.4711761l1.4334869,0.7940445  c-0.2842178,1.124115-0.0064011,2.6711884,0.8610153,4.1733856c1.0531158,1.824707,2.6013947,2.9479675,3.887558,2.9479675  c0.3433456,0,0.6686935-0.0802994,0.96035-0.2487411l1.9160843-1.1066437c0.359787-0.20755,0.6275635-0.5375137,0.8062134-0.9553299  c0.6036224,0.2253723,1.2360916,0.3443222,1.8694839,0.3443222c0.9275818,0,1.8533249-0.2399673,2.6766129-0.7157593  l14.5030975-8.3736572c0.4679489-0.2695084,0.7582245-0.7720642,0.7582245-1.3120041V56.5249405L97.5,56.455719  L97.4847717,56.4523735z M20.4503975,8.6905956L80.7697678,43.516304l-17.2415543,9.9541817L3.2088416,18.6450081  L20.4503975,8.6905956z M11.8293314,54.9644852l-0.0590124,0.0320168l-0.6548481,0.1490593l-0.7083797-0.1259842  l-1.0660315-0.5828552l-1.1204863-1.1112595l-0.8888211-1.4366035l-0.4947124-1.4130669l-0.0154023-1.9318352  c0.1302543-0.4715233,0.3677464-0.828598,0.7076302-1.0249023c1.1366391-0.6557693,3.0273442,0.4794846,4.2124391,2.5321693  c0.5851631,1.0138855,0.9077415,2.094223,0.9077415,3.0425758C12.6494484,53.9942131,12.3581362,54.6581192,11.8293314,54.9644852z   M12.8936319,54.3497887c0.0355921-0.0898743,0.0634546-0.1868439,0.0904512-0.2846794  c0.0112486,0.0697441,0.0232468,0.1398315,0.037322,0.2108421L12.8936319,54.3497887z M13.0443649,52.2380295  c-0.1322155-0.7948494-0.4357576-1.6299057-0.8937826-2.4230843c-0.9635239-1.6678658-2.3373652-2.7381096-3.5499182-2.9146271  l0.8486719-0.490097l0.0001726,0.0003471c0.3188868-0.184597,0.721302-0.2279739,1.1666355-0.1278343  c1.5709534,0.3570747,3.2303972,2.3272133,3.7726431,4.4360313l-0.4231825,0.2443542  C13.5177336,51.2214355,13.2081919,51.6680374,13.0443649,52.2380295z M18.5029297,58.8164482l-0.1246014,0.0634537  l-0.601778,0.1186028l-0.718071-0.1347542l-1.0840282-0.6036224l-1.0397272-1.0309601l-0.9132795-1.4490623l-0.5427065-1.6234474  c-0.254509-1.3151779,0.0121136-2.3743439,0.7231474-2.7846603c1.1366386-0.6562347,3.0273438,0.4790192,4.2129002,2.5317078  C19.5986691,55.9551239,19.6379528,58.1577339,18.5029297,58.8164482z M19.5716133,58.1997299  c0.0341511-0.0856628,0.0617828-0.1764603,0.0879707-0.2685852c0.0106716,0.0654755,0.0217476,0.1310616,0.0349007,0.1976318  L19.5716133,58.1997299z M19.7181931,56.0891838c-0.1303692-0.7719498-0.4220276-1.6031418-0.8945312-2.4217606  c-0.9637547-1.6694794-2.3378849-2.7379341-3.5513611-2.9134712l0.8502865-0.4909058  c0.319809-0.1845932,0.7222252-0.2284355,1.1666355-0.1278305c1.5710125,0.357132,3.2301102,2.3273277,3.7722397,4.4362602  l-0.4227791,0.2441254C20.1912727,55.0738602,19.8820782,55.5200005,19.7181931,56.0891838z M25.1750278,62.6693878  l-0.0590134,0.0325356l-0.6663837,0.1490593l-0.7171497-0.133831l-1.0844898-0.6036224l-1.0401878-1.032341l-0.9137421-1.4490662  l-0.5421867-1.6223526c-0.2545681-1.3153458,0.0124607-2.3745117,0.7230892-2.7852936  c0.5307083-0.3050423,1.2510872-0.225666,2.0309982,0.2247429c0.8214436,0.4739456,1.5958157,1.2935448,2.1814404,2.3074265  c0.5851631,1.0138855,0.90728,2.094223,0.90728,3.0421143C25.9946823,61.699173,25.7038326,62.3630219,25.1750278,62.6693878z   M27.4506702,61.2588577l0.0000572,0.000061l-0.0240555,0.028553l0.1809025,0.1522903l-0.2228966-0.106144l0.1725941,0.1610603  l-0.2173595-0.117218l0.1642895,0.1698265l-0.2108994-0.1273689l0.1564445,0.1772118l-0.2049007-0.1375237l0.148138,0.1841316  l-0.1979771-0.1467514l0.1398296,0.1905937l-0.189209-0.1573677l0.1287537,0.197979l-0.1799793-0.1665993L26.2388096,62.0555  c0.1428871-0.3605957,0.2284355-0.7769127,0.2284355-1.2567406c0-1.0295753-0.3447304-2.1939011-0.9709663-3.2783928  c-0.6257744-1.0844917-1.4619846-1.9654655-2.3535748-2.480484c-0.415453-0.2395706-0.8187904-0.3736877-1.2025166-0.4304504  l0.8554783-0.4939041c0.5224018-0.3004265,1.2626247-0.2182846,2.0309982,0.2247429  c1.7033424,0.9834251,3.0887222,3.3836098,3.0887222,5.3499985C27.9153862,60.3534241,27.7547894,60.8961334,27.4506702,61.2588577z   M40.319191,68.4632797L27.9671288,61.331543c0.2707767-0.4302177,0.4208183-0.9856186,0.4208183-1.6412735  c0-2.1168327-1.4915218-4.7006912-3.3250027-5.7588768c-0.9322014-0.5385513-1.8219452-0.6197739-2.5035591-0.2247429  l-1.0786057,0.6227188c-0.6170635-2.2168617-2.3921108-4.2697792-4.0872612-4.6547165  c-0.5620899-0.1278305-1.0835686-0.0650673-1.5072117,0.1795197l-1.0782022,0.6225433  c-0.6171799-2.2167473-2.3925714-4.2696075-4.0876656-4.654541c-0.5602427-0.1264496-1.0821829-0.0659943-1.5072107,0.1785927  l0.1181402,0.2048988l-0.1181402-0.2044373l-1.9202409,1.1089516c-0.1854019,0.1069489-0.3401146,0.2557182-0.4793677,0.4231796  l-0.0404954-5.0888557L40.319191,61.8124123V68.4632797z M42.6187706,67.4082642l-1.8270187,1.0550156v-6.3780136  l1.8270187,1.0548401V67.4082642z M50.6850739,78.3448944c-0.5274773,0.3045807-1.246933,0.2252045-2.0263824-0.2242813  c-0.8191338-0.4730225-1.5921249-1.2903137-2.1763649-2.3018875c-0.5837784-1.0115814-0.9054337-2.0896072-0.9054337-3.0356522  c0-0.8989716,0.2907372-1.5621262,0.8191376-1.8671722c0.2182808-0.1255188,0.4637909-0.1855164,0.7272987-0.1855164  c1.1061821,0,2.5201721,1.0572662,3.4754486,2.7116928c0.5837784,1.0115738,0.9054337,2.0895996,0.9054337,3.0361099  C51.5042114,77.3767014,51.2134743,78.039856,50.6850739,78.3448944z M52.6016235,77.2387161l-0.852478,0.4920578  c0.1423111-0.3594971,0.2276268-0.7744293,0.2276268-1.2525864c0-1.0277328-0.3442688-2.1902084-0.96912-3.2723923  c-0.9612732-1.6652756-2.3324051-2.7310715-3.5428238-2.907074l0.8477516-0.4894638  c0.520092-0.2994995,1.2598534-0.218277,2.0263824,0.2242889c1.6991882,0.9811172,3.0817986,3.3757629,3.0817986,5.3379974  C53.4207611,76.2571335,53.1221809,76.9378281,52.6016235,77.2387161z M55.5675888,77.2666321l-1.7827148-1.0289917  c0.0648384-0.2677765,0.108448-0.5526352,0.108448-0.8660965c0-2.1126785-1.4882927-4.6910019-3.3180809-5.7468796  c-0.9169693-0.5302429-1.8274803-0.6114655-2.4989433-0.2242813l-1.9165497,1.1066437  c-0.3388443,0.1954956-0.6013718,0.4945374-0.7800827,0.8776321l-2.2883339-1.321579v-2.9276657v-3.7224579l12.4762573,7.2032089  V77.2666321z M56.381649,77.0695801l-0.3414955,0.197052v-6.3776703l0.3414955,0.1971741V77.0695801z M6.7687402,41.8966637  v-0.0003471l-3.7961791-2.1915932V19.0538845L63.291935,53.8793602v20.6511879L6.7687402,41.8966637z M60.2032127,79.0029144  l-3.348999-1.9332733v-5.7106552l3.348999,1.9335632V79.0029144z M66.7599945,83.7287598l-6.0842209-3.5130005v-0.8034515  v-0.1365967v-5.7103653l2.7342987,1.5786896l3.3499222,1.9341965V83.7287598z M67.5740585,83.5317612l-0.3414993,0.197052  v-6.6506348l0.3414993-0.1972885V83.5317612z M67.5740585,74.7393112v1.5962219l-0.5778427,0.3337631l-2.9957886-1.7297058  l3.5736313-2.06353V74.7393112z M67.6257401,55.4981384c-0.0347824,0.1299057-0.0456848,0.2612572-0.0457993,0.3922615h-0.0058823  v3.9133949v9.6150513v1.1071014v0.222435v1.5823746l-3.8095627,2.1997299V53.8793602l17.2415543-9.9541817v3.3357887  l-12.6742325,7.3174286C67.9815445,54.780529,67.7304993,55.1072578,67.6257401,55.4981384z M74.7187729,91.1972656  c-1.133873,0.6525345-3.0199585-0.4781036-4.2027435-2.5266342c-1.1823273-2.0480728-1.2210922-4.2470474-0.0863037-4.9028244  c0.2182846-0.1255188,0.4637985-0.1855164,0.7268448-0.1855164c1.106636,0,2.5201721,1.057724,3.4759064,2.7121506  C75.8143387,88.342514,75.8531036,90.5414886,74.7187729,91.1972656z M76.6348572,90.0906219l-0.8468246,0.4890594  c0.4522018-1.1361237,0.2144165-2.8565369-0.7466812-4.5215225c-0.9614487-1.6653824-2.3324661-2.7313538-3.5425339-2.9075851  l0.8470001-0.488945c0.5205536-0.2995071,1.2589264-0.2182846,2.0263824,0.2238235  c1.6991882,0.9811172,3.0817947,3.3757629,3.0817947,5.3379974C77.4539948,89.1095047,77.1554184,89.7897339,76.6348572,90.0906219z   M97.012207,79.4870682c0,0.3714981-0.1998215,0.7171478-0.5214767,0.9026718l-14.5035629,8.3741074  c-1.2705841,0.732666-2.8042145,0.8437119-4.1661148,0.327774c0.0633392-0.2666245,0.1055069-0.5514755,0.1055069-0.8681717  c0-2.1126785-1.4882889-4.6909943-3.3180847-5.7468796c-0.9312744-0.5376282-1.8187103-0.6188507-2.4989395-0.2238159  l-1.9160843,1.1061783c-0.3566742,0.2059402-0.6202393,0.5237885-0.7975693,0.9172592l-1.3492661-0.747261v-7.697052  c0.0862427,0.082428,0.1795807,0.158577,0.285202,0.2194366l8.5407104,4.9309692  c0.8251343,0.4767151,1.750412,0.7148438,2.6756897,0.7148438c0.9248199,0,1.8500977-0.2381287,2.6752319-0.7148438  l1.9460831-1.1236038v5.9235153l11.5099106-6.6458511l0.1181335-0.0678406v-5.9232788l0.9294357-0.5365906  c0.1066055-0.0614929,0.1987839-0.1391983,0.2851944-0.2215195V79.4870682z M95.3250198,74.6024246v0.639328l-10.6829224,6.1681519  v-0.639328L95.3250198,74.6024246z M84.6420975,80.2252731v-0.639389l10.6829224-6.1678085v0.6390457L84.6420975,80.2252731z   M95.3250198,75.787056v0.639328l-10.6829224,6.1681595v-0.6393356L95.3250198,75.787056z M95.3250198,76.9716873v0.639328  l-10.6829224,6.1681595v-0.639328L95.3250198,76.9716873z M95.3250198,78.1563187v0.6389847l-10.6829224,6.1682129v-0.6390381  L95.3250198,78.1563187z M97.012207,71.2476501l-0.0009232,0.000061c0.0179977,0.3913422-0.1813583,0.7559128-0.5205536,0.9520416  L81.9871674,80.57341c-1.5044403,0.8689728-3.3739166,0.8680496-4.8783646,0l-8.5407104-4.9309769  c-0.3216553-0.1859741-0.5214767-0.5316315-0.5214767-0.9031219v-3.9909286v-0.222435V70.510025  c0.0862961,0.0823212,0.1791153,0.1591568,0.285202,0.2203598l8.5407104,4.9309692  c0.8251343,0.4767151,1.750412,0.7148438,2.6756897,0.7148438c0.9248199,0,1.8500977-0.2381287,2.6752319-0.7148438  l14.5035629-8.3736496c0.1056213-0.0608597,0.1989594-0.1369476,0.2851944-0.2193756V71.2476501z M97.012207,65.9761658  c0,0.3710327-0.1998215,0.7166824-0.5214767,0.9026642l-14.5035629,8.3736496c-1.5044403,0.8689804-3.3739166,0.8680573-4.8783646,0  l-8.5407104-4.9309692c-0.3304214-0.1905975-0.5297852-0.5454788-0.5210114-0.9262009h-0.0004654v-8.4989471  c0.0862427,0.0824318,0.1795807,0.158577,0.285202,0.2194366l7.7417068,4.4696579l-0.4913101,0.334404  c-0.4144135,0.2824326-0.6617737,0.7503738-0.6617737,1.2520142v4.7025299c0,0.8343658,0.6788483,1.5132141,1.5132141,1.5132141  c0.1407547,0,0.281044-0.0198441,0.4167175-0.058609l0.1716766-0.0489197v-7.1597672  c0.7874069,0.4223099,1.6552887,0.6412888,2.5261688,0.6412888c0.9248199,0,1.8500977-0.2381287,2.6752319-0.7148438  l14.2990646-8.2555695l0.000061,0.000061l0.2044373-0.1181412c0.1051025-0.060627,0.1987228-0.1359673,0.2851944-0.2185707  V65.9761658z M76.4659576,65.907402c0.0461502,0,0.0835266,0.0373764,0.0835266,0.0830688v6.918129  c-0.6013107,0.0692215-1.1564789-0.4217987-1.1564789-1.0341949V67.171875c0-0.345192,0.1702881-0.6673126,0.4550247-0.8615952  L76.4659576,65.907402z M97.012207,56.473774l-0.0244522,0.1111603c-0.062767,0.2851982-0.2436676,0.5330162-0.4970245,0.679306  l-14.5035629,8.3736534c-1.5044403,0.8689804-3.3739166,0.8680573-4.8783646,0l-8.5407104-4.9309692  c-0.3216553-0.1859818-0.5214767-0.5316315-0.5214767-0.9031296V56.983139  c0.0868149,0.0827789,0.1807327,0.158577,0.285202,0.2188034l8.5407104,4.9314308  c0.8251343,0.4762535,1.750412,0.7143822,2.6752319,0.7143822c0.9252777,0,1.8505554-0.2381287,2.6756897-0.7143822  l14.5035629-8.374115c0.1056213-0.0608559,0.1989594-0.1369438,0.2851944-0.2193756V56.473774z M96.4907303,53.3503838  l-14.5035629,8.374115c-1.5044403,0.8671303-3.3739166,0.8680534-4.8783646,0l-8.5407104-4.9314346  c-0.158287-0.0913734-0.2902679-0.2233582-0.3816452-0.381649c-0.1393661-0.2408943-0.1762848-0.5219383-0.1042938-0.7909851  c0.0724487-0.2690468,0.2445831-0.4937897,0.485939-0.6331558l12.4379578-7.1810036v0.0002899l2.0656052-1.1929398  c1.5049057-0.868515,3.374382-0.868515,4.8783646,0l8.5407104,4.9309692  c0.3216553,0.1859818,0.5214767,0.5316315,0.5214767,0.9031296C97.012207,52.8187523,96.8123856,53.1644058,96.4907303,53.3503838z"></path></svg>