<svg height='100px' width='100px'  fill="#000000" xmlns="http://www.w3.org/2000/svg" xmlns:xlink="http://www.w3.org/1999/xlink" version="1.1" x="0px" y="0px" viewBox="0 0 100 100" style="enable-background:new 0 0 100 100;" xml:space="preserve"><path d="M89,10.0126953H11c-0.5527344,0-1,0.4472656-1,1s0.4472656,1,1,1h14.7646484v5.625h-10.828125c-0.5527344,0-1,0.4472656-1,1  v41.4169922c0,0.1298828,0.0253906,0.2587891,0.0742188,0.3779297l11.828125,28.9326172  c0.1542969,0.3759766,0.5195312,0.6220703,0.9257812,0.6220703h46.4707031c0.40625,0,0.7714844-0.2460938,0.9257812-0.6220703  l11.828125-28.9326172c0.0488281-0.1191406,0.0742188-0.2480469,0.0742188-0.3779297V18.6376953c0-0.5527344-0.4472656-1-1-1  h-10.828125v-5.625H89c0.5527344,0,1-0.4472656,1-1S89.5527344,10.0126953,89,10.0126953z M84.0634766,59.8583984l-11.5,28.1289062  H27.4365234l-11.5-28.1289062V19.6376953h68.1269531V59.8583984z M72.2353516,17.6376953H27.7646484v-5.625h44.4707031V17.6376953z"></path><path d="M35.8143311,61.3058472c-0.1202393,0.5405273-0.1883545,1.0928345-0.1883545,1.6541138  c0,3.9244385,2.9956665,7.1628418,6.8200684,7.5490112c-0.0126343,0.1793823-0.0270996,0.3587646-0.0270996,0.5388794  c0,4.1835938,3.4042969,7.5878906,7.5878906,7.5878906s7.5878906-3.4042969,7.5878906-7.5878906  c0-0.1804199-0.0131226-0.3596802-0.0257568-0.5389404c3.8237915-0.3868408,6.8187256-3.625,6.8187256-7.5489502  c0-0.5621948-0.0679932-1.1141968-0.1881714-1.6541138c3.8790894-0.3322754,6.9362183-3.5912476,6.9362183-7.5548706  c0-3.9470825-3.0311279-7.1971436-6.887146-7.5523682c0.088562-0.4627686,0.1390991-0.9389648,0.1390991-1.427124  c0-4.1835938-3.4042969-7.5878906-7.5878906-7.5878906c-1.2280884,0-2.3851929,0.2998657-3.4125977,0.8201904l0.9223633-5.7088623  c0.0087891-0.0527344,0.0126953-0.1054688,0.0126953-0.1591797c0-2.2666016-1.84375-4.1103516-4.1103516-4.1103516  c-2.265625,0-4.109375,1.84375-4.109375,4.1103516c0,0.0439453,0.0029297,0.0878906,0.0087891,0.1308594l0.7761841,5.8706665  c-1.0895386-0.605835-2.3412476-0.9536743-3.673645-0.9536743c-4.1835938,0-7.5878906,3.4042969-7.5878906,7.5878906  c0,0.4881592,0.0505981,0.9643555,0.1391602,1.427124c-3.8560181,0.3552246-6.887207,3.6052856-6.887207,7.5523682  C28.8779297,57.7146606,31.9351196,60.9736328,35.8143311,61.3058472z M37.6259766,62.9599609  c0-0.6074829,0.1130981-1.1970825,0.3030396-1.7657471c2.3076782-0.4530029,4.2392578-1.9561768,5.2843628-3.9889526  c1.045105,2.0328369,2.9767456,3.5360107,5.2846069,3.9889526c0.1901855,0.569458,0.303772,1.1594238,0.303772,1.7657471  c0,3.0810547-2.5068359,5.5878906-5.5878906,5.5878906S37.6259766,66.0410156,37.6259766,62.9599609z M50.0068359,48.1316528  c1.0300903,2.0735474,2.9745483,3.614563,5.3078613,4.0797119c0.1433105,0.5006104,0.2341309,1.0136719,0.2341309,1.5396118  c0,3.0810547-2.5068359,5.5878906-5.5878906,5.5878906s-5.5878906-2.5068359-5.5878906-5.5878906  c0-0.5214233,0.0895996-1.0299072,0.2303467-1.5250244C46.9783936,51.7839355,48.9628296,50.2331543,50.0068359,48.1316528z   M50.0068359,76.6357422c-3.0810547,0-5.5878906-2.5068359-5.5878906-5.5878906  c0-0.2044678,0.0130005-0.4082031,0.0349121-0.6104736c2.4404907-0.4038696,4.4873047-1.9721069,5.5529785-4.1172485  c1.0622559,2.1382446,3.0993652,3.7036743,5.529541,4.1136475c0.0223999,0.2045288,0.0583496,0.4063721,0.0583496,0.6140747  C55.5947266,74.1289062,53.0878906,76.6357422,50.0068359,76.6357422z M56.7998047,68.5478516  c-3.0810547,0-5.5878906-2.5068359-5.5878906-5.5878906c0-0.6172485,0.1238403-1.2119751,0.319397-1.7866821  c2.2958374-0.4854126,4.2056885-2.0144043,5.2230835-4.0631104c1.032959,2.0800171,2.9862671,3.6234741,5.3288574,4.0838013  c0.1899414,0.5675659,0.3044434,1.1569214,0.3044434,1.7659912C62.3876953,66.0410156,59.8808594,68.5478516,56.7998047,68.5478516z   M69.1357422,53.7509766c0,3.0810547-2.5068359,5.5878906-5.5878906,5.5878906s-5.5878906-2.5068359-5.5878906-5.5878906  c0-0.5219727,0.0900269-1.0301514,0.2301025-1.5250854c2.3624268-0.4399414,4.338623-1.9766846,5.3868408-4.0613403  C66.6444702,48.180481,69.1357422,50.6797485,69.1357422,53.7509766z M62.3876953,44.7714844  c0,3.0810547-2.5068359,5.5878906-5.5878906,5.5878906s-5.5878906-2.5068359-5.5878906-5.5878906  s2.5068359-5.5878906,5.5878906-5.5878906S62.3876953,41.6904297,62.3876953,44.7714844z M50.2119141,30.0253906  c1.1396484,0,2.0703125,0.9072266,2.109375,2.0380859l-1.2525635,7.7503052  c-0.4185791,0.4832153-0.7747803,1.0195312-1.0618896,1.5975342c-0.2366333-0.4763184-0.519104-0.9249878-0.8463745-1.3383179  l-1.0569458-7.9968262C48.1347656,30.9404297,49.0683594,30.0253906,50.2119141,30.0253906z M43.2138672,39.1835938  c3.0810547,0,5.5878906,2.5068359,5.5878906,5.5878906s-2.5068359,5.5878906-5.5878906,5.5878906  s-5.5878906-2.5068359-5.5878906-5.5878906S40.1328125,39.1835938,43.2138672,39.1835938z M36.4367676,48.1645508  c1.0482178,2.0845337,3.024231,3.6212769,5.3865356,4.0612793c0.1405029,0.4952393,0.2304077,1.0040283,0.2304077,1.5251465  c0,3.0810547-2.5068359,5.5878906-5.5878906,5.5878906s-5.5878906-2.5068359-5.5878906-5.5878906  C30.8779297,50.6797485,33.3692017,48.180481,36.4367676,48.1645508z"></path></svg>