<svg height='100px' width='100px'  fill="#000000" xmlns="http://www.w3.org/2000/svg" xmlns:xlink="http://www.w3.org/1999/xlink" version="1.1" x="0px" y="0px" viewBox="0 0 100 100" style="enable-background:new 0 0 100 100;" xml:space="preserve"><path d="M83.067,57.735c4.964-7.147,0.245-20.049,0.042-20.595c-0.146-0.391-0.52-0.651-0.938-0.651H69.384  c-0.542-5.904-2.053-10.82-2.119-11.031c-0.131-0.418-0.518-0.703-0.955-0.703H46.52c-0.439,0-0.827,0.287-0.956,0.707  c-0.226,0.735-5.448,18.1,0.849,26.618c2.05,2.773,5.08,4.277,8.995,4.511V88h-4.953c-0.553,0-1,0.448-1,1s0.447,1,1,1h11.905  c0.553,0,1-0.448,1-1s-0.447-1-1-1h-4.952V56.598c1.489-0.076,2.856-0.338,4.086-0.782c0.291,0.669,0.637,1.312,1.055,1.911  c1.936,2.773,5.036,4.269,9.198,4.49V88h-4.532c-0.553,0-1,0.448-1,1s0.447,1,1,1h11.233c0.553,0,1-0.448,1-1s-0.447-1-1-1h-4.701  V62.224C77.979,62.032,81.122,60.536,83.067,57.735z M83.17,46.334c-0.949,0.361-2.109,0.657-3.851,0.657  c-2.551,0-3.912-0.637-5.354-1.312c-1.575-0.737-3.204-1.5-6.198-1.5c-2.406,0-3.926,0.492-5.248,1.067  c0.405-3.001,1.162-5.593,1.537-6.758h17.401C81.885,39.789,82.802,42.881,83.17,46.334z M47.275,26.755h18.282  c0.425,1.531,1.401,5.381,1.818,9.734h-4.037c-0.42,0-0.794,0.262-0.938,0.656c-0.041,0.111-0.268,0.742-0.559,1.728  c-1.788-0.194-2.954-0.731-4.175-1.303c-1.65-0.772-3.357-1.571-6.492-1.571c-2.659,0-4.287,0.574-5.726,1.219  C45.801,32.564,46.836,28.374,47.275,26.755z M56.485,54.638c-3.831,0-6.6-1.225-8.464-3.746c-2.175-2.941-2.776-7.231-2.686-11.421  l0.188-0.087c1.519-0.712,2.953-1.384,5.649-1.384c2.69,0,4.125,0.671,5.645,1.382c1.255,0.588,2.553,1.191,4.496,1.446  c-0.837,3.428-1.662,8.652-0.477,13.103C59.569,54.391,58.116,54.638,56.485,54.638z M64.19,56.585  c-1.716-2.455-2.081-5.829-1.892-9.04l0.112-0.052c1.441-0.675,2.802-1.313,5.357-1.313c2.549,0,3.91,0.637,5.351,1.311  c1.576,0.737,3.206,1.5,6.201,1.5c1.715,0,2.978-0.259,3.99-0.588c0.093,2.947-0.329,5.951-1.885,8.191  c-1.691,2.434-4.585,3.668-8.603,3.668C68.8,60.263,65.896,59.025,64.19,56.585z"></path><path d="M19.597,36.921c-2.682,2.638-4.22,6.417-4.22,10.37v39.283c0,1.89,1.432,3.427,3.19,3.427h18.953  c1.759,0,3.19-1.537,3.19-3.427V47.291c0-3.836-1.464-7.539-4.016-10.159c-2.405-2.469-3.729-5.68-3.729-9.04v-9.424  c0.668-0.357,1.129-1.054,1.129-1.863v-4.773c0-1.17-0.951-2.122-2.121-2.122h-7.859c-1.17,0-2.121,0.952-2.121,2.122v4.773  c0,0.903,0.569,1.67,1.366,1.976v8.888C23.359,31.197,21.988,34.57,19.597,36.921z M35.262,38.527  c2.192,2.25,3.449,5.444,3.449,8.764v39.283c0,0.787-0.534,1.427-1.19,1.427H18.567c-0.656,0-1.19-0.64-1.19-1.427V47.291  c0-3.419,1.32-6.679,3.622-8.944c2.075-2.04,3.487-4.735,4.065-7.666h6.142C31.728,33.601,33.116,36.323,35.262,38.527z   M30.966,18.925v9.167c0,0.198,0.021,0.393,0.029,0.589H25.31c0.022-0.337,0.049-0.673,0.049-1.013v-8.743H30.966z M23.993,12.031  c0-0.067,0.055-0.122,0.121-0.122h7.859c0.066,0,0.121,0.055,0.121,0.122v4.773c0,0.067-0.055,0.121-0.121,0.121h-7.859  c-0.066,0-0.121-0.054-0.121-0.121V12.031z"></path><path d="M21.837,50.612c-0.553,0-1,0.448-1,1v27.767c0,0.552,0.447,1,1,1h12.414c0.553,0,1-0.448,1-1V51.612c0-0.552-0.447-1-1-1  H21.837z M33.251,78.378H22.837V52.612h10.414V78.378z"></path></svg>