<svg height='100px' width='100px'  fill="#000000" xmlns="http://www.w3.org/2000/svg" xmlns:xlink="http://www.w3.org/1999/xlink" version="1.0" x="0px" y="0px" viewBox="0 0 100 100" enable-background="new 0 0 100 100" xml:space="preserve"><path d="M66.6458435,56.8574219c-0.4836197,0.0395317-0.9420929,0.1545906-1.3672943,0.3282394  c0.8901215,0.2435265,1.576149,1.0192947,1.6566162,1.9920044c0.1027069,1.2444725-0.8223495,2.3364754-2.0667343,2.4381218  c-1.0042114,0.0832939-1.9094162-0.5040016-2.2747116-1.3898849c-0.1376495,0.5047073-0.1966782,1.0390587-0.1515007,1.5910606  c0.2093811,2.5291824,2.4293861,4.4117737,4.9596291,4.2021255c2.5295334-0.2082367,4.4117737-2.4289436,4.2027435-4.9588318  C71.3953857,58.5303688,69.1759949,56.649189,66.6458435,56.8574219z"></path><path d="M52.5972557,62.6287308c-0.2085876-2.5298882-2.427887-4.4117737-4.9587479-4.2028313  c-0.4824715,0.0402336-0.9413834,0.1545868-1.3672943,0.3282356c0.8901176,0.2435303,1.5772972,1.0192947,1.65662,1.9920044  c0.1030579,1.2444725-0.8216476,2.3357697-2.0657692,2.4381218c-1.0047379,0.0832939-1.9097672-0.5047073-2.2746239-1.3891792  c-0.1373825,0.5040016-0.1973801,1.0390587-0.1517639,1.5896492c0.2085876,2.5305977,2.4292107,4.4124794,4.9594536,4.2035408  C50.9246635,67.3793259,52.8069038,65.1593246,52.5972557,62.6287308z"></path><path d="M59.7610054,79.6977081c-3.1447105,0.4199982-6.1362457-0.725647-8.1924858-2.8341217  c0.9871788,3.7524796,4.6341248,6.2703629,8.5796623,5.7444839c3.9458961-0.5244751,6.8060493-3.9105988,6.777195-7.7901382  C65.4930496,77.3908768,62.905014,79.2791214,59.7610054,79.6977081z"></path><path d="M84.5294113,49.8536453c-1.714592,0-3.3134155,0.4828224-4.6870651,1.3087082  c-3.2318954-5.7000122-8.6375504-10.1611977-16.5730972-11.8764954c0.9818878-0.6451797,1.7608261-1.1562386,1.7608261-1.1562386  c0.1403809-0.0931778,0.239296-0.2400017,0.2710571-0.4037666l0.0055618-0.1955299  c-0.0288544-0.2378845-0.186264-0.4348259-0.4121475-0.5124702c0,0-6.0241013-2.102829-6.460247-2.2552986  c-0.0225906-0.0847092-1.8035355-6.5993099-1.8035355-6.5993099c-0.06353-0.2301178-0.248558-0.4016476-0.4836197-0.4482365  c-0.2356758-0.0451756-0.4714394,0.0451775-0.6169395,0.2371769v-0.0021172c0,0-4.0876884,5.3767185-4.1392174,5.4466  c-0.0890274-0.0042343-6.8336601-0.3225899-6.8336601-0.3225899c-0.2385902-0.0112915-0.4596176,0.1115303-0.5760002,0.3218842  l-0.0663567,0.1828232c-0.0318527,0.163765,0.0048561,0.3367081,0.1008568,0.4750595c0,0,2.6661224,3.8421249,3.5944481,5.1811867  c-0.6388245,0.1065903-1.2840919,0.2216492-1.9418869,0.3529434c-15.5386219,3.1080055-24.3953476,18.9741592-24.3953476,18.9741592  l-0.7503548-0.148941c-1.1125603-0.3967094-2.3090343-0.6148262-3.556242-0.6148262  c-5.8991604,0-10.6815233,4.8324814-10.6815233,10.7929649s4.7823629,10.7929611,10.6815233,10.7929611  c1.5726204,0,3.0649471-0.3458786,4.4089508-0.9635315c5.4338055,9.4482574,17.7932148,15.7976837,31.9426556,15.3021545  c17.772747-0.6218872,31.9701881-11.8200226,32.9590416-25.4781723c4.2360992-0.825882,7.4379883-4.5875397,7.4379883-9.1087265  C93.7150803,54.009182,89.6018066,49.8536453,84.5294113,49.8536453z M81.6289368,65.0675583  c0,0,3.6141281,20.7812195-22.4075775,26.2024078S25.248579,73.7414627,25.248579,73.7414627  c-2.5298882,1.2649384-11.9676437,4.9828339-12.1073198-5.9633102c-0.1398535-10.9461403,13.0108519-3.4334183,13.0108519-3.4334183  c0.2208519-9.6254311,7.0396919-19.7816887,21.2074852-23.2016983c-0.7140007,1.8889465-1.8634453,4.9298935-1.8634453,4.9298935  l-0.0296478,0.1016464c-0.0374985,0.1948242,0.0217972,0.4009438,0.1573257,0.5456505  c0.1630592,0.1750565,0.4087944,0.2407036,0.6367073,0.1708221c0,0,6.1081009-1.8388252,6.5498962-1.9715347  c0.0698814,0.0564728,5.3386879,4.2776566,5.3386879,4.2776566c0.1863518,0.1503563,0.437561,0.180706,0.6557655,0.0783539  c0.1799126-0.0825882,0.3105888-0.2512932,0.3486176-0.4461174l0.0112953-0.1058846c0,0,0.1377373-6.3769531,0.1469116-6.8393059  c0.0281487-0.019062,0.8978844-0.5901184,1.9492111-1.2804756c12.5781441,2.8658905,17.1152992,15.4285049,17.1152992,15.4285049  s7.5896683-4.8790703,10.3002625,1.626358C91.3870773,64.1640244,81.6289368,65.0675583,81.6289368,65.0675583z"></path><path d="M40.7737885,20.8276997c0,0,3.366272,0.6416473,3.6090965,0.6875305  c0.0198517,0.0437641,1.4810333,3.3642426,1.4810333,3.3642426l0.0268211,0.0501175  c0.0592079,0.0889416,0.1595306,0.1461182,0.2661209,0.1503525c0.1276741,0.0056477,0.2469711-0.0614109,0.3076744-0.1743526  c0,0,1.6510658-3.0035362,1.7704468-3.2202415c0.0480003-0.0049419,3.6570969-0.3684711,3.6570969-0.3684711  c0.1278534-0.012001,0.2358513-0.095295,0.2810287-0.2167072c0.0380287-0.0995293,0.0247078-0.2131767-0.0346756-0.3021183  l-0.0352936-0.0451756c0,0-2.347065-2.4967117-2.5170937-2.6781235c0.0098801-0.0458832,0.7799988-3.5915384,0.7799988-3.5915384  c0.019062-0.0882349,0.0013237-0.1814117-0.0472908-0.2562351l-0.0713844-0.0776472  c-0.100853-0.0797653-0.2350578-0.0960007-0.3514404-0.0409412c0,0-3.1016541,1.4597673-3.3262138,1.56565  c-0.0401459-0.0240002-3.1743584-1.8522396-3.1743584-1.8522396c-0.1115303-0.0642347-0.246357-0.0607052-0.3542671,0.0098829  c-0.107296,0.0712938-0.1638527,0.1948242-0.1475296,0.3232946L42.892765,14.154273c0,0,0.4552956,3.6000071,0.4617348,3.6458902  c-0.0352936,0.031765-2.7417412,2.4480057-2.7417412,2.4480057c-0.0952072,0.0854111-0.1340294,0.2159996-0.0995293,0.3402348  l0.043148,0.095295C40.6057892,20.7578163,40.684761,20.8107586,40.7737885,20.8276997z"></path><path d="M55.297966,8.1359072c-0.010498,0.0275297-0.8321457,2.0887098-0.8321457,2.0887098l-0.0098839,0.0331774  c-0.0135002,0.0642347,0.0042343,0.132,0.0487061,0.180706c0.0521469,0.058588,0.1327057,0.0818825,0.2082367,0.0592937  c0,0,2.0174141-0.5682364,2.1634445-0.6091776c0.0226746,0.0190592,1.7294159,1.4371796,1.7294159,1.4371796  c0.0600014,0.0508242,0.1432953,0.0621176,0.2153816,0.0296469c0.0592957-0.0261173,0.1036758-0.0811758,0.1171761-0.1447058  l0.0041466-0.0352945c0,0,0.0818863-2.0943575,0.0883255-2.2461224c0.0239983-0.0155296,1.9009438-1.2007084,1.9009438-1.2007084  c0.0465012-0.0296469,0.0796776-0.076941,0.0916786-0.1305885l0.0028229-0.0642352  c-0.0084686-0.0783534-0.0584984-0.1440005-0.1327057-0.1715298c0,0-1.9672089-0.7256489-2.1097984-0.7785902  c-0.0071487-0.0275292-0.5541191-2.1790633-0.5541191-2.1790633c-0.0197639-0.0762353-0.0791473-0.1334119-0.156002-0.1503534  c-0.0770264-0.0155292-0.1553802,0.0120001-0.2047043,0.0741181c0,0-1.3744431,1.7428269-1.3912964,1.7654152  c-0.0296478-0.0021176-2.2440071-0.1461177-2.2440071-0.1461177c-0.0776443-0.0049415-0.1518517,0.0345883-0.1913834,0.1023531  l-0.0224991,0.0599999c-0.0112953,0.0536475-0.0007057,0.1101179,0.0303535,0.1567063  C54.0500526,6.2667265,55.2139664,8.0102596,55.297966,8.1359072z"></path></svg>