<?xml version="1.0" encoding="utf-8"?>
<!-- Generator: Adobe Illustrator 24.2.1, SVG Export Plug-In . SVG Version: 6.00 Build 0)  -->
<svg version="1.1" id="Layer_1" xmlns="http://www.w3.org/2000/svg" xmlns:xlink="http://www.w3.org/1999/xlink" x="0px" y="0px"
	 viewBox="0 0 100 100" enable-background="new 0 0 100 100" xml:space="preserve">
<g>
	<path d="M37.07,71.55h25.85c0-4.52,0-9.04,0-13.57H37.07C37.07,62.51,37.07,67.03,37.07,71.55z M62.92,36.01v-7.56H37.07v7.56
		H62.92z M33.74,36.01v-9.22c0-0.92,0.75-1.67,1.67-1.67h29.18c0.92,0,1.67,0.75,1.67,1.67v9.22h2.55c3.82,0,6.98,3.16,6.98,6.98
		v18.22c0,3.79-3.2,6.98-6.98,6.98h-2.55v5.02c0,0.92-0.75,1.67-1.67,1.67H35.41c-0.92,0-1.67-0.75-1.67-1.67v-5.02h-2.55
		c-3.83,0-6.98-3.15-6.98-6.98V42.99c0-3.84,3.14-6.98,6.98-6.98C31.19,36.01,33.74,36.01,33.74,36.01z M66.26,64.86h2.55
		c1.96,0,3.65-1.68,3.65-3.65V42.99c0-1.98-1.67-3.65-3.65-3.65c-12.54,0-25.08,0-37.62,0c-2.01,0-3.65,1.64-3.65,3.65v18.22
		c0,1.99,1.66,3.65,3.65,3.65h2.55v-8.54c0-0.92,0.75-1.67,1.67-1.67h29.18c0.92,0,1.67,0.75,1.67,1.67V64.86z M25.11,12.53
		c-1.81,1.22-3.66-1.54-1.85-2.76c8-5.36,17.11-8.1,26.74-8.1c26.7,0,48.33,21.64,48.33,48.33S76.7,98.33,50,98.33
		C23.31,98.33,1.67,76.69,1.67,50c0-9.62,2.87-19.04,8.25-27.02c1.23-1.81,3.99,0.05,2.76,1.86C7.64,32.31,5,40.99,5,50
		c0,24.85,20.15,45,45,45s45-20.15,45-45S74.85,5,50,5C41.05,5,32.56,7.55,25.11,12.53z"/>
</g>
</svg>
