<svg height='100px' width='100px'  fill="#000000" xmlns="http://www.w3.org/2000/svg" viewBox="0 0 64 64" x="0px" y="0px"><title>fruit-apple-pineapple-melon</title><g data-name="EX Line"><path d="M61.989,29.852A1,1,0,0,0,61,29H44.18l1.633-8.126a5,5,0,0,0-3.831-5.861c1.265-3.341,5.028-4.1,5.2-4.137A1,1,0,0,0,47.2,8.912a13.2,13.2,0,0,0-5.091-.048l.78-3.879A1,1,0,0,0,42.1,3.808L38.182,3.02A1,1,0,0,0,37,3.8l-.923,4.592a6.839,6.839,0,0,0-2.806-1.262,1.011,1.011,0,0,0-.928.3,1,1,0,0,0-.234.944l1.353,4.978a4.992,4.992,0,0,0-5.3,3.973l-.066.327a19.122,19.122,0,0,0-4.871-.929A16.306,16.306,0,0,0,10.6,21.381c-.048.048-.089.1-.136.15a3.026,3.026,0,0,1-1.27-.138,2.827,2.827,0,0,1-1.522-2.8,6.668,6.668,0,0,1,1.675-3.646L7.787,13.7A8.545,8.545,0,0,0,5.68,18.469a4.794,4.794,0,0,0,2.815,4.8,4.07,4.07,0,0,0,.42.131C5.085,28.769,4.88,36.18,8.5,42.553a5.988,5.988,0,0,0,4.714,11.008,5.994,5.994,0,0,0,11.05,1.317,8.484,8.484,0,0,0,2.911,3.058,6.24,6.24,0,0,0,4.929.74l.055-.016.053.019A5.951,5.951,0,0,0,34.139,59a6.5,6.5,0,0,0,3.036-.774A8.429,8.429,0,0,0,40.143,55.5a5.984,5.984,0,0,0,10.513-1.522,6,6,0,1,0,6.223-10.245A17,17,0,0,0,61.989,29.852ZM59.419,31A19.875,19.875,0,0,1,46,41.816V40H44v2h1.253a27.14,27.14,0,0,1-3.954.551A17.944,17.944,0,0,0,41.374,31ZM43.852,20.479l-.51,2.535-4.376-6.577,2.535.509A3,3,0,0,1,43.852,20.479ZM40.5,22.356,37.67,24.24c-.434-.527-.886-1.044-1.377-1.536-.222-.222-.46-.421-.689-.631L38.869,19.9Zm2.249-11.581A7.894,7.894,0,0,0,40,14.605l-.378-.076a13.25,13.25,0,0,0-.728-2.335A10.56,10.56,0,0,1,42.751,10.774Zm-3.984-5.6,1.961.394-.784,3.9a12.5,12.5,0,0,0-1.991.959c-.062-.094-.118-.19-.184-.283ZM37.44,14.091l-1.8-.362L34.567,9.78A7.78,7.78,0,0,1,37.44,14.091Zm-7.313,3.63a3,3,0,0,1,3.532-2.35l2.536.51,1.566,2.354L34,20.738a20.52,20.52,0,0,0-4-2.365ZM15.359,20.352l11.092,4.105,4.824,3.17,1.557,3.2a.884.884,0,0,0,.063.11L39.644,41.2a14.287,14.287,0,0,1-.518,1.439A6.235,6.235,0,0,0,37.1,41.479h0a5.985,5.985,0,0,0-2.9-.213l1.122-4L33.4,36.729l-1.24,4.416-3.7-6.8a1,1,0,0,0-.689-.5l-6-1.157-1.808-5a1,1,0,0,0-.34-.46L12.789,22.1A13.721,13.721,0,0,1,15.359,20.352Zm-6.888,8.56,3.374,9.116a.96.96,0,0,0,.1.2l3.384,5.148a.992.992,0,0,0,.4.35l3.385,1.65,1.155.759a5.925,5.925,0,0,0-3.484.291A6.005,6.005,0,0,0,11,42c-.165,0-.327.012-.489.025A16.7,16.7,0,0,1,8.471,28.912Zm4.557,22.524A3.936,3.936,0,0,1,12,51.862V50H10v1.858a3.991,3.991,0,1,1,4.957-4.279A5.982,5.982,0,0,0,13.029,51.436ZM19,56a3.995,3.995,0,0,1-3.672-5.58l2.117,1.412,1.109-1.664L16.57,48.845A3.96,3.96,0,0,1,19,48a4,4,0,0,1,0,8Zm4.505-10.129-3.347-2.2a.956.956,0,0,0-.111-.062l-3.2-1.558-3.17-4.824-4.108-11.1a13.78,13.78,0,0,1,1.78-2.6l6.829,5.125,1.9,5.25a1,1,0,0,0,.751.642l6.1,1.176,2.889,5.313a5.932,5.932,0,0,0-1.609.189A7.309,7.309,0,0,0,23.505,45.871Zm16.163,5.976a7.329,7.329,0,0,1-3.428,4.608,4.287,4.287,0,0,1-2.753.474L32.8,54.646l-1.915.578.47,1.56a4.219,4.219,0,0,1-3.147-.56,7.326,7.326,0,0,1-3.156-4.8c-.816-3.771.84-7.483,3.693-8.275a4.084,4.084,0,0,1,2.78.248l-.357,1.271,1.926.541.481-1.712a4.112,4.112,0,0,1,2.885-.127C39.26,44.326,40.7,48.128,39.668,51.847Zm.538-13.43-5.6-8.528L32.954,26.5a1,1,0,0,0-.35-.4l-5.149-3.384a1.045,1.045,0,0,0-.2-.1l-9.108-3.37a15.373,15.373,0,0,1,4.975-.53,18.085,18.085,0,0,1,11.758,5.4A17.823,17.823,0,0,1,40.207,38.417ZM38.865,25.848l2.745-1.826,1.175,1.766L42.14,29H40.618A20.589,20.589,0,0,0,38.865,25.848ZM45,56a1,1,0,0,1,0-2V52a2.994,2.994,0,0,0-2.966,2.669,3.965,3.965,0,0,1-.772-1.281c.125-.326.238-.661.334-1.005a10.9,10.9,0,0,0,.392-2.978A3.949,3.949,0,0,1,45,48a4,4,0,0,1,0,8Zm13-7a4,4,0,0,1-4,4,1,1,0,0,1,0-2V49a2.994,2.994,0,0,0-2.965,2.649c-.018-.02-.038-.038-.056-.059a5.956,5.956,0,0,0-.952-2.856A3.991,3.991,0,0,1,58,49Zm-3.331-5.96A5.967,5.967,0,0,0,48.5,46.6c-.173.066-.35.131-.529.2A5.957,5.957,0,0,0,45,46a6.018,6.018,0,0,0-3.3,1,9.113,9.113,0,0,0-.964-2.409c5.374-.257,13.715-2.08,19.03-10.149A15.155,15.155,0,0,1,54.669,43.04Z"></path><rect x="52" y="33" width="2" height="2"></rect><rect x="46" y="35" width="2" height="2"></rect><path d="M31.131,44.9l-2-.051a3.888,3.888,0,0,0,3.883,4.114l.058-2A1.884,1.884,0,0,1,31.131,44.9Z"></path><rect x="48" y="25" width="9" height="2"></rect><rect x="59" y="25" width="2" height="2"></rect><polygon points="24 13 24 11 26 11 26 9 24 9 24 7 22 7 22 9 20 9 20 11 22 11 22 13 24 13"></polygon><rect x="14" y="12" width="2" height="2"></rect></g></svg>