<svg height='100px' width='100px'  fill="#000000" xmlns="http://www.w3.org/2000/svg" xmlns:xlink="http://www.w3.org/1999/xlink" version="1.1" x="0px" y="0px" viewBox="0 0 100 100" enable-background="new 0 0 100 100" xml:space="preserve"><g><g><g><path d="M35.367,84.672c-2.227,0.528-4.46-0.849-4.984-3.075L23.131,50.89c-0.528-2.233,0.849-4.461,3.072-4.989     c14.053-3.316,20.516-6.466,27.363-9.796c6.951-3.377,14.14-6.874,29.078-10.405c2.23-0.528,4.461,0.85,4.989,3.083l7.255,30.7     c0.525,2.233-0.853,4.46-3.082,4.988c-12.599,2.976-18.711,5.951-25.177,9.107C59.351,77.116,51.824,80.787,35.367,84.672z      M32.138,52.976l5.354,22.643c12.818-3.311,19.262-6.453,25.511-9.496c5.901-2.868,11.983-5.838,22.883-8.713l-5.356-22.648     c-11.328,2.962-17.183,5.804-23.334,8.807C50.898,46.623,44.408,49.779,32.138,52.976z"></path></g></g><g><g><path d="M17.353,74.301c-2.229,0.528-4.46-0.85-4.985-3.076L5.112,40.518c-0.525-2.227,0.85-4.46,3.076-4.988     c14.049-3.316,20.512-6.467,27.359-9.797c6.948-3.377,14.14-6.874,29.086-10.404c2.229-0.529,4.46,0.85,4.984,3.076     c0.528,2.232-0.853,4.46-3.079,4.988c-14.053,3.323-20.516,6.466-27.363,9.796c-6.296,3.063-12.782,6.22-25.056,9.416     l6.313,26.714C20.96,71.546,19.583,73.779,17.353,74.301z"></path></g></g><path d="M66.121,53.504c0.927,3.926-1.504,7.871-5.437,8.794c-3.922,0.929-7.86-1.505-8.786-5.431   c-0.934-3.925,1.504-7.87,5.43-8.793C61.253,47.145,65.195,49.579,66.121,53.504z"></path></g></svg>