<svg height='100px' width='100px'  fill="#000000" xmlns="http://www.w3.org/2000/svg" xmlns:xlink="http://www.w3.org/1999/xlink" version="1.1" x="0px" y="0px" viewBox="0 0 100 100" style="enable-background:new 0 0 100 100;" xml:space="preserve"><path d="M13.125,80.744c0.553,0,1-0.448,1-1V61.34c0-11.597,7.401-15.15,10.377-16.11v40.249c0,2.493,2.102,4.521,4.685,4.521  h40.971c2.583,0,4.685-2.028,4.685-4.521V45.245c1.104,0.369,2.824,1.1,4.553,2.466c3.865,3.053,5.824,7.638,5.824,13.629v18.404  c0,0.552,0.447,1,1,1s1-0.448,1-1V61.34c0-15.222-12.036-18.143-13.146-18.379c-0.013-0.003-0.023-0.011-0.035-0.014  c-6.146-1.227-12.366-8.775-12.366-20.814c0.002-0.024,0.006-0.102,0.006-0.13c0,0,0-0.001,0-0.001c0-0.001,0-0.001,0-0.002  c0.01-3.202-1.229-6.213-3.49-8.481C55.925,11.25,52.916,10,49.631,10c-6.597,0-11.964,5.367-11.964,11.999  c0,0.045,0.002,0.089,0.006,0.117c0,12.056-6.221,19.604-12.366,20.831c-0.013,0.003-0.023,0.011-0.035,0.014  c-1.132,0.237-13.146,3.124-13.146,18.379v18.404C12.125,80.296,12.572,80.744,13.125,80.744z M49.713,12  c2.668,0,5.174,1.041,7.057,2.93c1.882,1.887,2.914,4.394,2.907,7.059c-0.002,0.029-0.006,0.104-0.006,0.128  c0,0.21,0.014,0.423,0.018,0.634H39.654c0.004-0.211,0.018-0.424,0.018-0.634c0-0.045-0.002-0.089-0.006-0.152  C39.667,16.47,44.137,12,49.713,12z M39.549,24.75h20.245c0.74,8.871,5.179,17.882,13.047,19.972v40.757  c0,1.39-1.204,2.521-2.685,2.521H29.187c-1.48,0-2.685-1.131-2.685-2.521V44.722C34.37,42.632,38.809,33.621,39.549,24.75z"></path><path d="M37.503,81.045h24.338c2.11,0,3.827-1.717,3.827-3.827V57.325c0-0.552-0.447-1-1-1H34.676c-0.553,0-1,0.448-1,1v19.894  C33.676,79.329,35.393,81.045,37.503,81.045z M35.676,58.325h27.992v18.894c0,1.007-0.819,1.827-1.827,1.827H37.503  c-1.008,0-1.827-0.82-1.827-1.827V58.325z"></path></svg>