<svg height='100px' width='100px'  fill="#000000" xmlns="http://www.w3.org/2000/svg" xmlns:xlink="http://www.w3.org/1999/xlink" xml:space="preserve" version="1.1" style="shape-rendering:geometricPrecision;text-rendering:geometricPrecision;image-rendering:optimizeQuality;" viewBox="0 0 846.66 846.66" x="0px" y="0px" fill-rule="evenodd" clip-rule="evenodd"><defs><style type="text/css">
   
    .fil0 {fill:#000000;fill-rule:nonzero}
   
  </style></defs><g><path class="fil0" d="M706.55 96.39l0.15 410.5c0,371.82 -566.74,353.58 -566.74,0l0 -410.5c0,-26.69 33.25,-38.68 50.45,-18.77 86.03,83.84 382.6,84.68 467.13,-1.27 17.95,-18.33 49.01,-5.36 49.01,20.04zm-392.94 377.18l220.86 0c17.11,0 28.74,13.58 28.74,30.24l0 26.6c0,185.05 -279.82,185.05 -279.82,0l0 -28.11c0,-17.12 13.56,-28.73 30.22,-28.73zm192.13 57.45l-164.9 0c0.76,108.28 164.15,108.21 164.9,0zm-15.53 -148.62c0,37.78 -57.46,37.78 -57.46,0l0 -48.56c0,-43.8 35.97,-79.63 79.71,-79.63l24.81 0c43.73,0 79.7,35.83 79.7,79.63l0 48.56c0,37.78 -57.47,37.78 -57.47,0l0 -48.56c0,-12.21 -10.1,-22.16 -22.23,-22.16l-24.81 0c-12.15,0 -22.25,9.95 -22.25,22.16l0 48.56zm-203.06 0c0,37.78 -57.45,37.78 -57.45,0l0 -48.56c0,-43.66 35.97,-79.63 79.61,-79.63l24.89 0c43.66,0 79.63,35.97 79.63,79.63l0 48.56c0,37.78 -57.45,37.78 -57.45,0l0 -48.56c0,-12.29 -9.8,-22.16 -22.18,-22.16l-24.89 0c-12.29,0 -22.16,9.8 -22.16,22.16l0 48.56zm362.09 124.49l0 -355.23c-118.9,62.51 -332.9,62.51 -451.83,-0.07l0 355.3c0,283.3 451.83,292.95 451.83,0z"></path></g></svg>