<?xml version="1.0" encoding="utf-8"?>
<!-- Generator: Adobe Illustrator 24.2.1, SVG Export Plug-In . SVG Version: 6.00 Build 0)  -->
<svg version="1.1" id="Layer_1" xmlns="http://www.w3.org/2000/svg" xmlns:xlink="http://www.w3.org/1999/xlink" x="0px" y="0px"
	 viewBox="0 0 100 100" enable-background="new 0 0 100 100" xml:space="preserve">
<g>
	<path d="M26.2,25.083c0.226-1.295,2.195-0.951,1.969,0.344c-0.822,4.658,0.146,13.252,3.072,19.148
		c2.131,4.294,5.415,7.482,10.363,5.027c3.887-1.929,3.412-5.886,3.04-9.56c-0.789-7.799-2.292-13.427,1.307-21.192
		c0.55-1.192,2.362-0.356,1.813,0.836c-3.377,7.285-1.876,12.837-1.135,20.161c0.47,4.644,0.695,9.145-4.141,11.544
		c-6.005,2.98-10.395-0.612-13.035-5.933C26.347,39.2,25.323,30.052,26.2,25.083z M58.739,84.414c1.486,2.845,1.486,7.3,0,10.145
		c-1.695,3.246-4.887,3.246-6.582,0c-1.486-2.845-1.486-7.3,0-10.145C53.853,81.168,57.044,81.168,58.739,84.414z M56.974,85.336
		c-0.948-1.816-2.102-1.816-3.051,0c-1.175,2.25-1.175,6.051,0,8.301c0.948,1.816,2.102,1.816,3.051,0
		C58.149,91.388,58.149,87.587,56.974,85.336z M91.173,42.806c1.391-1.73,0.802-0.983,0.056-1.58
		c-0.344-0.275-0.62-0.74-0.754-1.369c-0.346-1.623-0.6-2.993-1.715-4.306c-0.552-0.65-0.775-1.678-0.74-2.597
		c0.052-1.346,1.243-1.419-0.944-2.225c-9.884-3.668-11.581-5.807-15.106-12.028C66.847,9.66,58.989,5.728,48.633,5.079
		c-16.41-1.029-26.922,8.499-28.728,23.029c-0.555,4.983-1.105,9.929-6.049,15.794c-2.338,2.774-4,1.733-5.68,2.973
		c-0.382,0.282-0.692,0.745-1.1,1.463c-0.874,1.538-0.732,2.793,0.048,4.336c2.19,4.335,9.17,9.782,17.282,14.624
		c9.329,5.568,20.091,10.281,26.831,11.595c1.29,0.247,0.915,2.208-0.375,1.961c-6.95-1.354-17.97-6.168-27.48-11.845
		c-8.397-5.012-15.667-10.739-18.04-15.437c-1.078-2.135-1.203-4.104-0.001-6.219c0.541-0.953,0.985-1.592,1.646-2.08
		c1.878-1.386,3.397-0.282,5.597-2.97c4.319-5.279,4.826-9.83,5.336-14.413c0.994-15.77,13.36-25.898,30.838-24.802
		c10.795,0.677,19.474,4.95,24.836,14.431c3.33,5.887,4.873,7.884,14.176,11.337c2.786,1.034,4.709,2.319,5.943,3.751
		c1.93,2.24,2.25,4.939,1.237,7.67c-0.869,2.341-2.677,4.602-4.832,6.459c-7.965,6.864-15.929,7.644-23.437,7.411
		c-1.66,0.216-3.884,2.001-5.825,4.37c-1.887,2.304-3.983,5.84-4.105,8.887c-0.051,1.31-2.044,1.232-1.992-0.078
		c0.14-3.492,2.383-7.428,4.551-10.075c1.054-1.287,2.214-2.424,3.38-3.299c-4.038-0.24-8.426-0.595-12.402,0.255
		c-1.285,0.272-1.699-1.681-0.414-1.953c5.965-1.275,12.642-0.078,18.768-0.074c4.783,0.004,9.723-0.602,14.663-3.181
		c-1.491,0.316-3.119,0.557-4.804,0.715c-4.744,0.445-9.991,0.249-13.907-0.777c-1.015-0.263-0.615-1.807,0.4-1.544
		c3.738,0.98,8.782,1.163,13.363,0.733C83.524,47.64,87.809,46.991,91.173,42.806z M13.375,50.652
		c-0.801-1.037,0.778-2.255,1.578-1.219c4.59,5.952,11.655,10.526,18.577,13.921c6.973,3.42,13.804,5.643,17.854,6.878
		c3.498,1.067,5.019,2.501,4.725,6.19c-0.103,1.31-2.095,1.154-1.992-0.156c0.215-2.696-0.712-3.335-3.311-4.127
		c-4.111-1.254-11.048-3.511-18.151-6.995C25.5,61.635,18.18,56.883,13.375,50.652z M56.662,26.021
		c-1.31-0.072-1.201-2.064,0.109-1.992c1.805,0.102,3.821-0.421,5.63-0.832c3.138-0.712,5.784-1.175,6.674,1.554
		c0.717,2.2-0.518,3.894-2.8,3.996c-2.43,0.109-4.416-0.921-5.495-3.144C59.418,25.885,58.013,26.097,56.662,26.021z M67.176,25.368
		c-0.346-1.062-2.173-0.716-4.371-0.217c0.773,1.222,1.972,1.667,3.383,1.603C67.182,26.71,67.465,26.255,67.176,25.368z"/>
</g>
</svg>
