<svg height='100px' width='100px'  fill="#000000" xmlns="http://www.w3.org/2000/svg" xmlns:xlink="http://www.w3.org/1999/xlink" version="1.1" x="0px" y="0px" viewBox="0 0 100 100" enable-background="new 0 0 100 100" xml:space="preserve"><path fill-rule="evenodd" clip-rule="evenodd" d="M32.826,29.433c-0.52-2.502-3.679-9.179-1.953-10.498  c3.241-2.48,7.726,1.29,11.22,2.857c0.602-2.208,1.202-4.415,1.806-6.623c0.719-2.642,1.045-2.475,3.691-3.484  c2.592-0.99,8.061,3.488,10.867,3.945c4.81,0.785,9.619,1.569,14.428,2.353c3.078,0.501,8.145-2.271,11.149-3.182  c-4.078,8.66-12.575,9.135-20.972,10.729c1.431,0.563,4.631,1.107,5.535,2.346c1.755,2.404,3.512,4.809,5.267,7.212  c3.153,4.32,6.726,8.532,9.456,13.138c2.142,3.613,8.289,10.522,2.092,13.865c-2.72,1.466-4.021,3.197-6.683,1.561  c-2.774-1.703-3.434-1.688-6.208-3.392c2.59,2.652,3.071,3.586,5.658,6.237c-4.954,1.211-7.036,0.586-12.015-0.806  c-4.585-1.282-7.907,1.519-12.164,3.526c-3.104,1.463-4.612,4.977-6.531,7.753c-1.732,2.509-3.461,5.02-5.17,7.544  c-0.652,0.964-2.971,3.363-2.971,4.605c0-0.981-2.202-3.417-2.712-4.244c-2.182-3.526-4.338-7.068-6.498-10.61  c-4.85-7.964-9.679-15.941-14.505-23.921c-1.03-1.705-2.062-3.411-3.09-5.116c-1.053-1.744,0.612-7.971,0.779-10.098  C13.423,33.633,30.513,30.088,32.826,29.433L32.826,29.433z M64.363,36.507c-4.349,0-4.352,6.746,0,6.746  C68.713,43.252,68.713,36.507,64.363,36.507C62.5,36.507,66.228,36.507,64.363,36.507z"></path></svg>