<svg height='100px' width='100px'  fill="#000000" xmlns="http://www.w3.org/2000/svg" viewBox="0 0 64 64" x="0px" y="0px"><title>Puppy</title><g data-name="Layer 2"><path d="M12,32.6a8,8,0,0,0,4.63,6.63A2.44,2.44,0,0,1,18,41.48V49a5.26,5.26,0,0,1-.44,2.1l-.89,2a8.75,8.75,0,0,0-.68,3v3.66a.34.34,0,0,0,.34.34h.13a2.59,2.59,0,0,0,2.3-1.43l.15-.3a5.61,5.61,0,0,1,3.48-3,4,4,0,0,0,2.46-1.93A2.8,2.8,0,0,1,27.34,52h10.3a3.92,3.92,0,0,1,3.51,2.17l2.29,4.58A2.26,2.26,0,0,0,45.49,60a.65.65,0,0,0,.63-.6l1.65-19.83A3.89,3.89,0,0,1,51.65,36h2.86a2.47,2.47,0,0,0,2.21-1.31,10.41,10.41,0,0,0,1.11-5.59A1.2,1.2,0,0,0,56.63,28H54.94a1.15,1.15,0,0,1-1.11-.85l-.25-.92a4.25,4.25,0,0,0-2.81-2.94L49,22.79a7.15,7.15,0,0,0-5.47.47h0a7.15,7.15,0,0,0-2.52,2.18l-1.21,1.68A9.91,9.91,0,0,0,38,32.9v1A2.07,2.07,0,0,0,39.66,36,2,2,0,0,0,42,34V33a1,1,0,0,1,2,0v1.33A3.67,3.67,0,0,1,40.33,38h-.58a3.67,3.67,0,0,1-2.31-.81,8,8,0,0,0-6.62-1.77l-.67.14a20.44,20.44,0,0,1-4.22.44H20.36a4.4,4.4,0,0,1-3.78-2,3.73,3.73,0,0,1,.92-5c2.2-1.85,4.66-.88,5.42,1a1.83,1.83,0,0,0,1.67,1.2h.32a1.88,1.88,0,0,0,1.8-2.48A7.18,7.18,0,0,0,20,24,8,8,0,0,0,12,32.6Z"></path><path d="M29.22,54H27.58a1.61,1.61,0,0,0-1.09.42A1.09,1.09,0,0,0,26.43,56l3.34,3.61a1.33,1.33,0,0,0,1,.43A1.25,1.25,0,0,0,32,58.8v-.7a5,5,0,0,0-1.45-3.5A1.88,1.88,0,0,0,29.22,54Z"></path><path d="M52.57,42.09l-1.5-.42a1.24,1.24,0,0,0-1.57,1.09l-.41,4.87a.69.69,0,0,0,1.06.65l.87-.55a1.2,1.2,0,0,1,1.63.34l.89,1.31a1.53,1.53,0,0,0,1.26.67A1.19,1.19,0,0,0,56,48.86V46.93a5.38,5.38,0,0,0-1.1-3.26A4.43,4.43,0,0,0,52.57,42.09Z"></path></g></svg>