<?xml version="1.0" encoding="utf-8"?>
<!-- Generator: Adobe Illustrator 24.2.1, SVG Export Plug-In . SVG Version: 6.00 Build 0)  -->
<svg version="1.1" id="Layer_1" xmlns="http://www.w3.org/2000/svg" xmlns:xlink="http://www.w3.org/1999/xlink" x="0px" y="0px"
	 viewBox="0 0 100 100" enable-background="new 0 0 100 100" xml:space="preserve">
<g>
	<path fill-rule="evenodd" clip-rule="evenodd" d="M52.322,0v12.873h16.788c-0.664-2.19-1.46-4.247-2.323-6.238
		C65.793,4.313,64.731,2.057,63.47,0C63.47,0,52.322,0,52.322,0z M73.822,87.127c-0.796,2.787-1.725,5.441-2.853,8.029
		c-0.664,1.659-1.46,3.251-2.256,4.844h14.864c2.322-3.915,4.313-8.228,5.972-12.873C89.549,87.127,73.822,87.127,73.822,87.127z
		 M29.031,95.156c-1.062-2.588-2.057-5.242-2.853-8.029h-15.66c1.593,4.645,3.583,8.958,5.906,12.873h14.93
		C30.491,98.407,29.761,96.815,29.031,95.156z M47.744,100V87.127H30.956c0.664,2.123,1.393,4.247,2.256,6.238
		c0.995,2.322,2.123,4.512,3.318,6.636H47.744z M69.111,87.127H52.322V100H63.47c1.261-2.123,2.322-4.313,3.318-6.636
		C67.651,91.374,68.447,89.25,69.111,87.127z M93.265,73.192H6.802c0.332,1.725,0.73,3.517,1.128,5.242
		c0.332,1.393,0.73,2.787,1.128,4.114h81.951c0.398-1.327,0.73-2.721,1.062-4.114C92.535,76.709,92.867,74.917,93.265,73.192z
		 M78.202,39.018c0.265,3.716,0.332,7.432,0.332,10.949c0,3.583-0.066,7.233-0.332,10.949c-0.133,2.588-0.398,5.176-0.664,7.697
		h16.457c0.929-6.171,1.394-12.475,1.394-18.646c0-6.105-0.465-12.409-1.394-18.58H77.538
		C77.804,33.908,78.069,36.496,78.202,39.018z M52.322,31.387v37.226H72.96c0.265-2.654,0.531-5.309,0.73-7.963
		c0.199-3.517,0.265-7.1,0.265-10.683c0-3.517-0.066-7.1-0.265-10.683c-0.199-2.654-0.464-5.309-0.73-7.896
		C72.96,31.387,52.322,31.387,52.322,31.387z M27.107,31.387c-0.332,2.588-0.597,5.242-0.73,7.896
		c-0.265,3.583-0.332,7.167-0.332,10.683c0,3.583,0.066,7.167,0.332,10.683c0.133,2.654,0.398,5.309,0.73,7.963h20.637V31.387
		H27.107z M21.798,39.018c0.199-2.522,0.398-5.109,0.73-7.631H6.005c-0.929,6.171-1.393,12.475-1.393,18.58
		c0,6.171,0.464,12.475,1.393,18.646h16.523c-0.332-2.522-0.531-5.109-0.73-7.631c-0.199-3.782-0.332-7.432-0.332-11.015
		C21.466,46.45,21.599,42.734,21.798,39.018z M91.009,17.452H9.058c-0.398,1.327-0.796,2.721-1.128,4.114
		c-0.398,1.725-0.796,3.451-1.128,5.242h86.463c-0.398-1.792-0.73-3.517-1.194-5.242C91.739,20.173,91.407,18.779,91.009,17.452z
		 M26.178,12.873c0.796-2.787,1.792-5.508,2.853-8.029c0.73-1.659,1.46-3.251,2.322-4.844h-14.93
		c-2.322,3.915-4.313,8.228-5.906,12.873H26.178z M70.969,4.844c1.128,2.522,2.057,5.242,2.853,8.029h15.727
		C87.89,8.228,85.899,3.915,83.577,0H68.713C69.509,1.593,70.305,3.185,70.969,4.844z M47.744,12.873V0H36.53
		c-1.194,2.057-2.322,4.313-3.318,6.636c-0.863,1.991-1.593,4.048-2.256,6.238H47.744z"/>
</g>
</svg>
