<svg height='100px' width='100px'  fill="#000000" xmlns="http://www.w3.org/2000/svg" xmlns:xlink="http://www.w3.org/1999/xlink" version="1.1" x="0px" y="0px" viewBox="0 0 84.4 99" style="enable-background:new 0 0 84.4 99;" xml:space="preserve"><path d="M56.2,31.5c0.3,0.2,0.6,0.4,0.9,0.4c0.4,0,0.8-0.2,1.1-0.5c0.5-0.6,0.5-1.5-0.1-2c-0.4-0.4-0.8-0.7-1.2-1.1  c-5.6-5.6-10.4-14.6-1.9-26c0.5-0.6,0.3-1.5-0.3-2c-0.6-0.5-1.5-0.3-2,0.3c-7.6,10.2-6.8,20.8,2.2,29.7  C55.3,30.7,55.7,31.2,56.2,31.5z"></path><path d="M30.5,55.4l1.7-2.3c0.3-0.4,0.2-1-0.2-1.3c-0.4-0.3-1-0.2-1.3,0.2l-0.9,1.3L28.8,52c-0.3-0.4-0.9-0.5-1.3-0.2  c-0.4,0.3-0.5,0.9-0.2,1.3l1.7,2.3c0.2,0.2,0.5,0.4,0.8,0.4C30.1,55.8,30.3,55.7,30.5,55.4z"></path><path d="M27.1,87.9c-0.4,0.4-0.4,1,0,1.3l2,2c0.2,0.2,0.4,0.3,0.7,0.3s0.5-0.1,0.7-0.3l2-2c0.4-0.4,0.4-1,0-1.3  c-0.4-0.4-1-0.4-1.3,0l-1.4,1.3l-1.4-1.3C28,87.5,27.4,87.5,27.1,87.9z"></path><path d="M7.2,60.9c-0.5,0-1,0.3-1,0.9c0,0.4-0.1,0.9-0.1,1.3c0,1.6,0.2,3.2,0.7,4.8c0.1,0.4,0.5,0.7,0.9,0.7c0.1,0,0.2,0,0.3,0  c0.5-0.1,0.8-0.7,0.6-1.2C8.2,66,8,64.6,8,63.1c0-0.4,0-0.8,0-1.2C8.1,61.4,7.7,60.9,7.2,60.9z"></path><path d="M9.5,56.6c0.7-1.6,1.8-3,3-4.3l0.2-0.2c0.4-0.4,0.4-1,0-1.3c-0.4-0.4-1-0.4-1.3,0L11.2,51c-1.4,1.4-2.5,3-3.4,4.8  c-0.2,0.5,0,1,0.5,1.3c0.1,0.1,0.3,0.1,0.4,0.1C9,57.2,9.3,57,9.5,56.6z"></path><path d="M17.1,48.1c-0.5,0.1-0.9,0.5-0.8,1.1c0.1,0.5,0.5,0.9,1.1,0.8c1.7-0.2,3.5,0,5.4,0.6c0.1,0,0.2,0,0.3,0  c0.4,0,0.8-0.3,0.9-0.7c0.2-0.5-0.1-1-0.6-1.2C21.2,48.1,19.1,47.9,17.1,48.1z"></path><path d="M11.2,75.3l2.7,2.4c0.2,0.2,0.4,0.2,0.6,0.2c0.3,0,0.5-0.1,0.7-0.3c0.3-0.4,0.3-1-0.1-1.3l-2.7-2.3c-0.5-0.5-1-1-1.4-1.6  c-0.3-0.4-0.9-0.5-1.3-0.2c-0.4,0.3-0.5,0.9-0.2,1.3C10.1,74.1,10.6,74.7,11.2,75.3z"></path><path d="M22.7,85.4c0.2,0.2,0.4,0.2,0.6,0.2c0.3,0,0.5-0.1,0.7-0.3c0.3-0.4,0.3-1-0.1-1.3l-3.2-2.8l3.5-3.5c0.3,0.6,0.5,1.2,0.7,2  c0.2,0.6,0.7,1,1.4,1c0.1,0,0.2,0,0.4,0c0.8-0.2,1.2-1,1-1.7c-1.8-6.6-6.2-7.6-8.2-7.2c-0.8,0.1-1.2,0.9-1.1,1.6  c0.1,0.8,0.9,1.3,1.6,1.2c0.2,0,0.9-0.1,1.7,0.3c0,0,0,0,0,0L2,94.6c-0.7,0.7-0.7,1.9,0,2.7c0.4,0.4,0.9,0.6,1.3,0.6  c0.5,0,1-0.2,1.3-0.6l14.8-14.7L22.7,85.4z"></path><path d="M9.8,81.2c0.3,0.3,0.6,0.4,1,0.4s0.7-0.1,1-0.4c0.6-0.6,0.6-1.5,0-2l-3.5-3.5c-3.6-3.6-5.5-8.3-5.5-13.3s2-9.7,5.5-13.3  c4.7-4.7,12.3-5.5,17.9-1.9L29,49c0.5,0.3,1.1,0.3,1.5,0l2.8-1.8c3.6-2.3,8.1-2.9,12.2-1.6c0.7,0.2,1.5-0.2,1.8-0.9  c0.2-0.7-0.2-1.5-0.9-1.8c-4.9-1.6-10.2-0.9-14.6,1.9l-2,1.3l-2-1.3C21,40.5,12,41.5,6.3,47.1C2.3,51.2,0,56.7,0,62.4  s2.3,11.2,6.3,15.3L9.8,81.2z"></path><path d="M54.9,51.5c-0.7,0.4-0.9,1.2-0.6,1.9c4,7.3,2.7,16.5-3.2,22.3L31.4,95.5c-0.9,0.9-2.4,0.9-3.3,0l-8.9-8.9  c-0.6-0.6-1.5-0.6-2,0s-0.6,1.5,0,2l8.9,8.9c1,1,2.3,1.5,3.7,1.5s2.7-0.5,3.7-1.5l19.7-19.7c6.8-6.8,8.3-17.3,3.7-25.7  C56.5,51.3,55.6,51.1,54.9,51.5z"></path><path d="M36.7,50.6c1.9-0.6,3.7-0.8,5.4-0.6c0.5,0.1,1-0.3,1.1-0.8c0.1-0.5-0.3-1-0.8-1.1c-2-0.2-4,0-6.2,0.7  c-0.5,0.2-0.8,0.7-0.6,1.2c0.1,0.4,0.5,0.7,0.9,0.7C36.5,50.7,36.6,50.7,36.7,50.6z"></path><path d="M35.5,85.3c0.2,0.2,0.4,0.3,0.7,0.3c0.2,0,0.4-0.1,0.6-0.2l4.4-3.9c0.4-0.3,0.4-0.9,0.1-1.3c-0.3-0.4-0.9-0.4-1.3-0.1  L35.6,84C35.2,84.3,35.1,84.9,35.5,85.3z"></path><path d="M48.4,72.3c-0.4,0.6-0.9,1.1-1.4,1.6l-2.7,2.4c-0.4,0.3-0.4,0.9-0.1,1.3c0.2,0.2,0.4,0.3,0.7,0.3c0.2,0,0.4-0.1,0.6-0.2  l2.7-2.4c0.6-0.6,1.1-1.2,1.6-1.8c0.3-0.4,0.2-1-0.2-1.3C49.3,71.8,48.7,71.9,48.4,72.3z"></path><path d="M51.5,68.5c0.1,0,0.2,0,0.3,0c0.4,0,0.8-0.3,0.9-0.7c0.4-1.5,0.7-3.2,0.7-4.8c0-0.5,0-0.9-0.1-1.4c0-0.5-0.5-0.9-1-0.9  c-0.5,0-0.9,0.5-0.9,1c0,0.4,0,0.8,0,1.2c0,1.4-0.2,2.9-0.6,4.3C50.7,67.9,51,68.4,51.5,68.5z"></path><path d="M50.6,53.8c-0.2,0.2-0.4,0.5-0.7,0.7l-0.7,0.7c0.3,0.4,0.5,0.9,0.7,1.4c0.2,0.3,0.5,0.5,0.9,0.5c0.1,0,0.3,0,0.4-0.1  c0.5-0.2,0.7-0.8,0.5-1.3C51.4,55.1,51,54.5,50.6,53.8z"></path><path d="M61.1,38.2c-0.2,0.1-0.3,0.2-0.5,0.3c1.4-2,2.8-4,4.2-6.1c0.3-0.4,0.5-0.5,0.9-0.4c0.7,0.1,1.3,0.7,1.4,1.4  c0.1,1,1.1,1.8,2.1,1.6c1-0.1,1.8-1.1,1.6-2.1c-0.3-2.4-2.2-4.3-4.6-4.6c-1.9-0.3-3.5,0.5-4.6,2.1c-4.4,6.5-9,13.2-14.5,18.9  c-0.4,0.4-0.8,0.8-1.2,1.2l-4.2,4.2c-1.6-0.9-3.2-1-4.2-0.8c-1,0.2-1.6,1.2-1.5,2.2c0.2,1,1.2,1.7,2.2,1.6c0.3,0,3-0.3,4.4,4.8  c0.2,0.8,1,1.4,1.8,1.4c0.2,0,0.3,0,0.5-0.1c1-0.3,1.6-1.3,1.3-2.3c-0.5-1.7-1.1-3.1-1.8-4.1l4.2-4.1c0.4-0.4,0.8-0.8,1.2-1.2  c4.2-4,8.1-6.9,13.4-10.7c0.9-0.6,1.1-1.8,0.5-2.6C63.1,37.8,61.9,37.6,61.1,38.2z"></path><path d="M84.1,56c-2.5-12-16.6-19.8-17.2-20.1c-0.7-0.4-1.6-0.1-1.9,0.6c-0.4,0.7-0.1,1.5,0.6,1.9c0.1,0.1,13.5,7.5,15.8,18.2  c1,4.6-0.3,9.2-3.7,13.7c-0.5,0.6-0.4,1.5,0.3,2c0.3,0.2,0.6,0.3,0.9,0.3c0.4,0,0.8-0.2,1.1-0.6C83.8,66.8,85.2,61.5,84.1,56z"></path></svg>