<svg height='100px' width='100px'  fill="#000000" xmlns="http://www.w3.org/2000/svg" viewBox="0 0 48 48" x="0px" y="0px"><title>Solar Panel</title><g data-name="Solar Panel"><path d="M47.91,32.58C40.44,16.58,40.92,17,40,17c-34.79,0-32.52-.24-32.91.58,0,.1-7,15.12-7,15C0,32.87,0,32.76,0,37a1,1,0,0,0,1,1H21v4H16a1,1,0,0,0-1,1v4a1,1,0,0,0,1,1H32a1,1,0,0,0,1-1V43a1,1,0,0,0-1-1H27V38H47a1,1,0,0,0,1-1C48,32.9,48,32.84,47.91,32.58ZM2.57,32,4,29H15l-.8,3ZM28.23,19l.8,3H19l.8-3Zm1.33,5,.8,3H17.64l.8-3ZM43.1,27H32.44l-.8-3H41.7ZM15.56,27H4.9l1.4-3H16.36Zm1.54,2H30.9l.8,3H16.3Zm16.67,3L33,29H44l1.4,3Zm5.59-13,1.4,3H31.1l-.8-3ZM17.7,19l-.8,3H7.24l1.4-3ZM31,46H17V44H31Zm-6-4H23V38h2Zm21-6H2V34H46Z"></path><path d="M26.83,10.83A4,4,0,1,0,20,8,4,4,0,0,0,26.83,10.83ZM22.59,6.59A2,2,0,1,1,22,8,2,2,0,0,1,22.59,6.59Z"></path><path d="M23,14v1a1,1,0,0,0,2,0V14A1,1,0,0,0,23,14Z"></path><path d="M25,2V1a1,1,0,0,0-2,0V2A1,1,0,0,0,25,2Z"></path><path d="M17,9h1a1,1,0,0,0,0-2H17A1,1,0,0,0,17,9Z"></path><path d="M30,9h1a1,1,0,0,0,0-2H30A1,1,0,0,0,30,9Z"></path><path d="M19.05,11.54l-.71.7a1,1,0,0,0,1.42,1.42l.7-.71A1,1,0,0,0,19.05,11.54Z"></path><path d="M28.24,4.76c.5,0,.64-.23,1.42-1a1,1,0,0,0-1.42-1.42l-.7.71A1,1,0,0,0,28.24,4.76Z"></path><path d="M19.05,4.46a1,1,0,0,0,1.41-1.41l-.7-.71a1,1,0,0,0-1.42,1.42Z"></path><path d="M27.54,13l.7.71a1,1,0,0,0,1.42-1.42l-.71-.7A1,1,0,0,0,27.54,13Z"></path></g></svg>