<svg height='100px' width='100px'  fill="#000000" xmlns="http://www.w3.org/2000/svg" xmlns:xlink="http://www.w3.org/1999/xlink" xml:space="preserve" version="1.1" style="shape-rendering:geometricPrecision;text-rendering:geometricPrecision;image-rendering:optimizeQuality;" viewBox="0 0 175 321" x="0px" y="0px" fill-rule="evenodd" clip-rule="evenodd"><defs><style type="text/css">
   
    .fil0 {fill:#000000}
   
  </style></defs><g><path class="fil0" d="M142 58c9,-6 16,-13 14,-21 -2,-7 -10,-8 -14,-12 -1,-1 -3,-4 -4,-6 -10,-15 -21,-6 -28,6 2,-10 2,-20 -5,-24 -7,-3 -12,1 -18,1 -2,0 -6,-1 -8,-1 -17,-4 -18,11 -15,24 -5,-8 -12,-16 -20,-14 -7,3 -8,10 -12,14 -2,2 -5,3 -7,5 -15,10 -5,20 7,28 -10,-3 -21,-3 -24,4 -4,7 1,13 1,18 0,2 -1,6 -1,8 -4,18 10,18 24,15 -9,6 -16,13 -14,20 3,8 10,8 14,13 1,1 3,4 4,6 10,15 21,5 28,-7 -2,11 -2,21 5,25 4,2 7,1 11,0 0,14 1,28 1,41 -5,-8 -15,-11 -28,-6 -9,3 -17,5 -26,1 17,4 31,-22 52,-6 -31,-47 -56,-1 -79,-17 13,79 70,33 82,39 1,42 2,75 4,98 2,17 25,13 22,-2 -5,-18 -9,-47 -13,-81 15,-2 68,37 80,-39 -23,17 -48,-30 -79,18 21,-17 35,10 52,5 -9,4 -17,2 -26,-1 -13,-5 -22,-2 -28,6 -1,-18 -3,-37 -3,-57 1,0 3,1 4,1 17,3 18,-11 15,-24 5,8 13,16 20,13 7,-2 8,-9 12,-13 2,-2 5,-4 7,-5 15,-10 5,-20 -7,-28 10,2 21,3 24,-4 4,-7 -1,-13 -1,-19 0,-2 1,-5 2,-7 3,-18 -11,-18 -25,-15zm-65 61c-14,39 4,27 10,27 6,0 24,11 10,-27 -12,-34 -8,-34 -20,0zm-24 -19c-38,18 -16,23 -12,27 4,4 9,24 26,-13 15,-31 18,-29 -14,-14zm-4 -30c-39,-13 -27,5 -27,10 0,7 -12,24 27,10 33,-12 33,-8 0,-20zm18 -24c-18,-37 -22,-16 -26,-12 -5,5 -25,9 12,27 32,14 29,17 14,-15zm30 -4c14,-39 -4,-27 -10,-27 -6,0 -24,-11 -10,27 12,33 8,33 20,0zm24 19c38,-18 16,-23 12,-27 -4,-4 -9,-25 -26,12 -15,32 -18,29 14,15zm4 29c39,14 27,-4 27,-10 0,-6 12,-24 -27,-10 -33,12 -33,8 0,20zm-18 24c18,38 22,17 26,13 5,-5 25,-9 -12,-27 -32,-15 -29,-17 -14,14zm-20 -34l0 0 0 0 0 0 0 0 0 0 0 0 0 0 0 0z"></path></g></svg>