<svg height='100px' width='100px'  fill="#000000" xmlns="http://www.w3.org/2000/svg" viewBox="0 0 1000 1000" version="1.1" x="0px" y="0px"><path fill="#000000" opacity="1.00" d=" M 537.86 392.79 C 541.16 390.92 544.89 388.63 548.86 389.58 C 554.35 391.41 558.85 395.17 562.96 399.13 C 571.13 407.65 577.84 417.47 583.55 427.77 C 588.23 436.94 592.49 447.00 591.60 457.53 C 594.36 457.39 597.18 457.63 599.92 457.09 C 604.13 453.32 607.49 448.71 611.37 444.62 C 611.10 440.37 610.72 435.80 612.92 431.94 C 616.60 424.43 625.89 419.76 634.05 422.30 C 642.51 424.49 649.06 433.10 647.79 441.98 C 647.50 454.67 631.64 463.04 620.87 456.55 C 619.02 458.56 617.20 460.61 615.51 462.76 C 619.67 472.36 616.87 483.06 615.12 492.89 C 623.73 492.66 632.38 493.34 640.98 492.58 C 646.39 480.97 650.77 468.75 658.07 458.13 C 661.08 453.70 664.28 449.42 667.39 445.06 C 664.49 434.59 672.94 422.58 683.93 422.31 C 691.20 421.60 698.67 425.70 701.90 432.27 C 704.18 436.40 704.04 441.35 703.30 445.88 C 700.99 453.68 693.19 459.57 685.01 459.34 C 682.20 459.30 679.57 458.24 676.96 457.34 C 672.93 463.00 668.73 468.60 665.57 474.82 C 662.46 480.59 660.20 486.77 657.24 492.61 C 671.34 492.90 685.39 491.48 699.49 491.36 C 709.62 477.40 719.46 463.04 732.21 451.28 C 734.84 448.61 737.89 446.33 740.27 443.42 C 736.47 432.44 745.21 419.21 757.00 419.27 C 768.05 418.17 778.18 429.02 776.40 439.97 C 775.41 451.72 761.27 460.15 750.65 454.54 C 738.74 465.23 727.69 476.99 718.86 490.39 C 732.57 489.34 746.32 488.98 760.01 487.54 C 767.51 475.82 776.25 464.87 786.05 455.00 C 786.55 452.04 785.86 448.88 786.74 445.93 C 788.58 439.81 793.74 434.75 799.99 433.26 C 808.22 430.97 817.48 435.56 821.18 443.16 C 826.15 452.49 820.98 465.03 811.15 468.62 C 805.89 470.60 799.87 469.92 794.95 467.29 C 789.48 473.12 784.20 479.14 779.55 485.65 C 790.92 484.88 802.21 483.06 813.58 482.19 C 814.82 482.14 815.44 480.91 816.00 479.98 C 821.23 470.29 827.48 461.13 834.79 452.89 C 836.35 450.93 838.22 449.18 839.52 447.03 C 839.31 441.92 840.19 436.60 843.53 432.54 C 848.34 426.12 857.64 423.65 865.02 426.76 C 872.16 429.65 877.23 437.30 876.62 445.06 C 876.39 454.98 866.72 463.31 856.92 462.52 C 853.85 462.60 851.24 460.77 848.32 460.22 C 843.03 466.24 837.56 472.38 833.95 479.58 C 848.26 477.28 862.70 474.45 875.81 468.02 C 878.46 466.56 881.07 465.02 883.95 464.03 C 886.52 454.82 896.92 448.62 906.20 451.33 C 913.84 453.11 919.66 460.15 920.33 467.92 C 921.19 477.36 913.54 486.72 904.08 487.63 C 897.10 488.69 889.98 485.17 886.05 479.43 C 871.67 487.58 855.26 491.40 839.03 493.78 C 842.55 497.90 846.69 501.41 850.91 504.78 C 854.09 503.45 857.41 502.16 860.94 502.42 C 870.95 502.36 879.85 511.94 878.80 521.97 C 878.84 533.95 864.83 543.07 853.85 538.29 C 845.14 535.31 840.62 525.55 841.89 516.77 C 834.63 511.23 828.29 504.61 822.29 497.75 C 821.53 496.65 820.32 496.07 819.00 496.43 C 807.17 498.11 795.24 498.94 783.41 500.62 C 789.59 505.49 795.48 510.72 801.80 515.43 C 805.32 513.89 809.28 513.97 813.02 514.49 C 821.74 516.26 828.39 525.12 827.41 534.03 C 826.89 545.09 814.79 553.76 804.17 550.42 C 794.12 548.15 787.59 536.24 791.51 526.62 C 781.73 518.71 772.19 510.51 762.53 502.46 C 754.35 503.17 746.16 503.56 737.99 504.35 C 731.51 504.51 725.04 504.74 718.61 505.55 C 731.82 514.11 743.53 524.72 755.22 535.19 C 760.21 535.07 765.38 536.38 769.05 539.96 C 774.32 544.49 776.66 552.23 774.50 558.87 C 772.61 565.55 766.72 570.84 759.88 572.02 C 749.59 574.06 738.51 565.64 738.29 555.03 C 737.82 550.73 739.37 546.62 741.51 542.98 C 731.98 534.62 722.47 526.19 711.99 519.03 C 706.85 515.08 700.80 511.93 697.18 506.37 C 685.70 506.63 674.26 507.49 662.78 507.72 C 679.62 521.79 693.89 538.59 707.74 555.53 C 712.50 556.27 717.48 557.49 720.98 561.06 C 727.59 567.07 728.59 578.01 723.25 585.17 C 717.52 593.84 704.06 595.47 696.31 588.65 C 691.19 584.45 688.50 577.37 690.01 570.86 C 690.49 567.63 692.35 564.92 693.92 562.14 C 681.12 547.02 668.33 531.69 652.98 519.04 C 648.52 515.63 644.67 511.44 639.95 508.40 C 629.96 508.14 619.91 508.16 609.92 508.54 C 609.29 510.67 608.64 512.80 608.01 514.95 C 619.45 525.27 628.64 537.69 638.58 549.38 C 642.82 549.81 647.21 550.59 650.70 553.25 C 657.86 557.96 660.60 568.20 656.82 575.89 C 653.11 584.20 642.93 588.89 634.24 585.84 C 626.31 583.48 620.72 575.21 621.44 566.96 C 621.38 563.55 623.16 560.58 624.58 557.61 C 625.28 556.37 624.06 555.40 623.39 554.53 C 615.83 545.63 608.82 536.20 600.22 528.25 C 597.45 532.42 594.33 536.56 589.89 539.07 C 592.34 543.55 596.79 546.66 599.36 551.08 C 600.21 554.41 601.40 558.04 600.31 561.45 C 594.03 572.35 581.70 577.10 570.81 582.05 C 555.96 587.84 539.67 592.59 523.69 589.17 C 523.30 593.99 522.59 598.83 521.31 603.49 C 518.88 606.74 516.20 610.86 511.70 611.06 C 501.49 612.35 492.10 606.97 483.11 602.93 C 470.21 596.10 457.57 587.91 448.72 576.07 C 446.95 573.65 445.95 570.79 444.32 568.29 C 440.33 570.90 436.20 573.34 431.88 575.36 C 428.08 575.45 423.40 576.61 420.36 573.66 C 415.90 569.29 412.61 563.70 411.17 557.61 C 407.77 546.57 405.97 535.07 405.46 523.54 C 394.73 533.54 385.41 544.87 376.26 556.29 C 376.64 559.68 379.62 562.44 379.50 566.07 C 380.95 576.26 372.44 586.50 362.10 586.67 C 352.52 587.57 343.38 579.54 342.56 570.06 C 341.88 563.17 345.34 555.90 351.46 552.50 C 354.71 550.31 358.65 549.86 362.43 549.37 C 371.36 539.01 379.44 527.85 389.41 518.41 C 392.80 514.85 396.61 511.75 400.15 508.35 C 387.74 508.17 375.33 508.38 362.91 508.22 C 360.53 507.93 358.92 509.94 357.20 511.22 C 350.34 517.34 342.93 522.87 336.49 529.46 C 326.83 538.85 318.07 549.12 309.41 559.42 C 308.52 560.43 307.78 561.56 307.12 562.73 C 310.62 566.91 312.14 572.71 311.04 578.06 C 309.68 585.04 303.92 591.05 296.92 592.48 C 292.96 593.02 288.67 593.11 285.02 591.23 C 278.48 588.27 274.00 581.17 274.33 573.98 C 274.34 567.70 277.97 561.65 283.39 558.52 C 286.36 556.65 289.90 556.23 293.26 555.53 C 307.10 538.60 321.37 521.80 338.19 507.74 C 326.73 507.44 315.29 506.64 303.82 506.37 C 300.05 512.12 293.74 515.34 288.43 519.44 C 278.15 526.49 268.85 534.78 259.50 542.98 C 262.91 548.32 263.91 555.32 261.30 561.20 C 258.07 568.52 249.92 573.19 241.97 572.17 C 231.69 571.04 223.73 560.23 226.09 550.08 C 227.74 541.06 236.71 534.44 245.80 535.19 C 257.47 524.70 269.19 514.12 282.38 505.55 C 273.67 504.29 264.84 504.84 256.13 503.69 C 250.30 503.53 244.51 502.92 238.70 502.39 C 228.84 510.31 219.36 518.71 209.49 526.62 C 211.80 532.34 210.44 539.11 206.71 543.93 C 203.52 548.25 198.26 550.64 193.01 551.13 C 186.01 551.42 178.95 547.49 175.72 541.24 C 172.25 535.05 172.94 526.90 177.31 521.33 C 182.18 514.64 191.64 512.38 199.21 515.43 C 205.40 510.66 211.48 505.73 217.35 500.57 C 204.91 498.97 192.43 497.75 179.97 496.32 C 173.59 503.70 166.85 510.84 159.09 516.80 C 159.51 521.47 158.99 526.41 156.48 530.48 C 152.51 537.47 143.55 541.10 135.83 538.89 C 130.17 537.25 125.30 532.94 123.18 527.43 C 120.46 519.79 123.00 510.52 129.81 505.89 C 135.59 501.40 143.76 501.54 150.09 504.78 C 154.35 501.44 158.39 497.83 162.04 493.82 C 145.79 491.40 129.35 487.59 114.95 479.43 C 111.21 484.83 104.64 488.40 98.00 487.71 C 87.50 487.43 78.80 476.52 80.92 466.21 C 82.18 459.10 87.78 452.95 94.86 451.32 C 103.53 448.83 113.33 454.08 116.46 462.47 C 117.03 464.63 119.54 464.84 121.18 465.86 C 135.22 473.87 151.30 477.06 167.10 479.55 C 163.43 472.32 157.83 466.32 152.74 460.08 C 149.27 461.31 145.76 462.93 141.96 462.53 C 132.90 462.14 124.57 454.21 124.38 445.01 C 123.84 438.09 127.84 431.28 133.77 427.84 C 138.84 424.83 145.41 424.68 150.72 427.17 C 156.23 429.61 160.13 435.04 161.21 440.91 C 161.78 443.60 160.45 446.96 162.88 448.99 C 171.22 458.31 178.81 468.36 184.68 479.43 C 185.35 480.69 186.19 482.33 187.88 482.23 C 199.12 483.11 210.28 484.91 221.53 485.67 C 216.77 479.22 211.56 473.11 206.04 467.29 C 201.62 469.66 196.45 470.37 191.56 469.20 C 184.69 467.22 179.10 461.16 178.16 454.01 C 176.47 444.97 182.96 435.58 191.77 433.38 C 200.05 430.79 209.52 435.41 213.16 443.15 C 215.18 446.74 214.77 451.00 214.76 454.96 C 224.78 464.68 233.41 475.79 240.95 487.51 C 254.60 489.03 268.33 489.28 282.01 490.42 C 273.44 476.88 262.17 465.28 250.35 454.54 C 239.73 460.15 225.61 451.73 224.61 439.99 C 222.81 429.01 232.97 418.14 244.05 419.27 C 255.83 419.25 264.52 432.46 260.73 443.43 C 263.78 446.97 267.53 449.84 270.78 453.20 C 282.65 464.53 291.89 478.16 301.51 491.36 C 315.61 491.51 329.66 492.88 343.77 492.63 C 340.80 486.75 338.52 480.56 335.40 474.76 C 332.24 468.56 328.06 462.99 324.04 457.34 C 320.11 458.89 315.76 460.06 311.56 458.86 C 303.57 457.01 296.73 449.43 297.23 440.98 C 296.46 430.81 305.97 421.65 316.03 422.28 C 327.44 421.86 336.64 434.22 333.61 445.06 C 337.94 451.17 342.56 457.10 346.35 463.58 C 352.06 473.02 355.33 483.68 360.77 493.27 C 376.74 493.24 392.72 493.39 408.69 493.21 C 405.06 491.02 400.81 490.07 397.23 487.82 C 394.71 485.06 391.59 482.03 391.76 477.98 C 392.15 475.64 392.63 473.31 392.86 470.95 C 388.89 466.35 384.93 461.73 380.78 457.31 C 377.52 457.23 374.35 459.22 370.95 458.67 C 362.68 458.72 354.78 452.17 353.42 443.98 C 352.79 439.20 353.14 433.96 356.13 429.97 C 358.75 426.59 362.14 423.58 366.37 422.47 C 374.86 419.50 384.76 424.46 388.36 432.50 C 390.29 436.24 389.86 440.56 389.62 444.62 C 393.44 448.93 397.32 453.20 401.07 457.57 C 403.63 453.72 406.56 450.12 409.89 446.90 C 415.26 440.99 420.93 435.27 427.46 430.62 C 433.92 426.40 440.58 421.85 448.51 421.17 C 447.32 416.12 445.17 411.26 444.80 406.04 C 445.45 402.31 445.79 397.66 449.59 395.68 C 455.90 391.41 463.68 391.31 470.98 390.60 C 484.76 390.14 498.76 391.35 511.93 395.61 C 518.04 397.86 524.47 400.09 529.08 404.91 C 531.86 400.78 534.54 396.52 537.86 392.79 M 461.21 407.59 C 463.41 416.49 466.59 425.20 470.61 433.46 C 474.11 441.82 478.85 450.32 487.03 454.90 C 489.37 454.18 491.60 453.08 494.02 452.61 C 495.30 452.24 496.95 452.43 497.80 451.19 C 494.44 448.94 492.31 445.45 489.74 442.44 C 488.01 440.17 485.29 438.11 485.52 434.95 C 484.73 428.69 493.15 423.93 498.03 428.05 C 502.80 432.41 505.92 438.31 511.22 442.16 C 513.17 433.96 516.77 426.27 520.72 418.85 C 518.19 416.07 515.22 413.67 511.64 412.44 C 502.29 408.28 492.07 407.15 482.00 406.35 C 475.06 406.49 468.01 405.93 461.21 407.59 M 545.18 409.24 C 538.14 419.59 531.67 430.50 527.58 442.38 C 525.86 446.74 526.10 451.50 526.59 456.08 C 530.17 457.34 532.71 460.33 536.13 461.85 C 536.10 456.35 537.89 451.13 538.79 445.77 C 539.91 442.88 542.81 440.46 546.00 440.51 C 550.52 440.04 554.90 444.47 554.30 449.00 C 553.43 455.01 551.30 460.84 551.34 466.97 C 557.91 463.91 564.95 462.05 572.05 460.67 C 573.34 460.47 574.56 459.98 575.74 459.40 C 576.79 450.16 573.03 441.40 568.67 433.50 C 562.81 423.78 556.42 414.15 547.71 406.71 C 546.77 407.44 545.80 408.19 545.18 409.24 M 239.92 436.09 C 238.16 438.58 240.93 440.74 242.98 441.72 C 244.28 440.71 246.75 440.13 246.54 438.05 C 247.20 434.27 241.45 432.71 239.92 436.09 M 755.74 434.48 C 754.98 435.92 754.04 437.44 754.58 439.15 C 755.36 440.40 756.84 440.90 758.02 441.72 C 760.05 440.73 762.81 438.60 761.09 436.11 C 760.16 433.91 757.65 434.26 755.74 434.48 M 439.00 441.98 C 432.88 445.67 427.93 450.86 423.03 455.97 C 417.16 461.65 412.52 468.45 408.28 475.39 C 412.97 477.84 418.14 479.23 423.03 481.23 C 435.26 484.72 448.50 489.37 461.13 485.11 C 462.19 481.36 463.47 477.63 465.69 474.38 C 460.46 474.91 455.19 474.44 449.96 475.02 C 444.87 475.59 440.33 470.00 441.89 465.12 C 442.90 462.11 445.56 459.14 448.98 459.34 C 454.95 459.37 460.93 459.16 466.85 458.29 C 461.35 451.87 458.03 444.02 454.41 436.51 C 448.70 435.88 443.58 439.00 439.00 441.98 M 313.85 437.71 C 311.57 438.93 311.63 442.98 314.09 443.95 C 316.42 445.51 318.49 442.92 319.54 441.11 C 319.03 439.97 318.53 438.84 318.05 437.71 C 316.67 437.51 315.15 436.92 313.85 437.71 M 370.10 437.06 C 368.71 437.79 367.85 439.33 368.21 440.91 C 368.22 444.51 374.82 444.76 374.84 441.04 C 375.67 438.41 372.52 435.29 370.10 437.06 M 626.18 441.05 C 626.26 444.73 632.78 444.52 632.79 440.90 C 633.43 438.32 630.89 436.81 628.80 436.25 C 627.20 437.34 625.58 438.88 626.18 441.05 M 682.92 437.75 C 682.44 438.87 681.95 439.99 681.47 441.11 C 682.51 442.93 684.59 445.52 686.93 443.94 C 689.57 442.89 689.37 438.32 686.63 437.49 C 685.40 437.01 684.13 437.57 682.92 437.75 M 141.22 440.85 C 139.77 441.73 139.08 443.38 139.45 445.04 C 140.14 447.50 143.84 448.63 145.47 446.42 C 148.48 443.87 144.49 438.63 141.22 440.85 M 856.17 440.90 C 852.27 443.22 856.03 449.61 859.88 447.09 C 864.02 444.96 860.04 438.29 856.17 440.90 M 193.16 450.97 C 192.28 454.60 197.70 456.14 199.49 453.33 C 200.12 451.88 199.62 450.33 199.39 448.86 C 198.81 448.50 197.66 447.78 197.09 447.42 C 195.40 447.98 192.90 448.67 193.16 450.97 M 801.60 448.87 C 800.55 451.40 801.35 455.36 804.84 454.73 C 809.53 454.52 808.36 447.19 803.92 447.42 C 803.34 447.79 802.18 448.51 801.60 448.87 M 96.04 470.88 C 97.50 474.24 103.53 472.80 102.67 468.96 C 102.84 466.68 100.48 465.99 98.82 465.32 C 97.20 466.65 94.38 468.48 96.04 470.88 M 898.32 469.01 C 897.52 472.80 903.45 474.21 904.93 470.92 C 906.63 468.52 903.82 466.64 902.19 465.32 C 900.48 465.99 898.13 466.71 898.32 469.01 M 498.10 467.99 C 483.52 471.78 472.86 487.59 476.07 502.56 C 477.30 510.01 481.77 516.62 487.60 521.28 C 494.29 525.92 502.85 528.38 510.93 526.67 C 521.23 525.16 530.25 517.56 533.94 507.89 C 535.96 502.85 536.06 497.30 535.45 491.99 C 534.08 483.23 528.30 475.46 520.76 470.96 C 513.95 467.02 505.69 466.32 498.10 467.99 M 570.77 477.07 C 563.67 478.92 555.78 480.83 551.03 486.91 C 551.53 490.55 551.73 494.22 551.76 497.89 C 556.38 495.39 561.20 493.28 565.83 490.81 C 570.63 488.88 576.62 492.86 576.55 498.04 C 576.89 501.56 574.28 504.69 571.15 505.98 C 566.20 508.30 561.16 510.51 556.84 513.92 C 564.56 516.97 570.63 522.77 577.16 527.70 C 582.01 527.04 585.10 522.45 587.56 518.62 C 592.63 511.29 595.54 502.79 598.21 494.37 C 600.13 487.30 602.14 480.06 601.65 472.65 C 591.28 473.46 580.86 474.42 570.77 477.07 M 426.35 499.40 C 422.55 503.50 422.05 509.32 421.50 514.62 C 420.53 529.64 423.02 544.81 428.34 558.87 C 431.82 558.07 434.56 555.56 437.73 554.03 C 447.31 548.15 456.61 541.52 464.15 533.10 C 466.15 530.52 468.53 527.46 468.21 524.06 C 466.33 521.12 464.37 518.21 463.09 514.95 C 459.72 518.74 457.03 523.05 453.84 526.98 C 450.34 531.32 442.73 529.96 440.57 524.95 C 439.97 522.67 439.78 520.05 440.84 517.89 C 444.53 512.85 448.63 508.07 451.81 502.67 C 444.55 502.63 437.30 501.45 430.26 499.70 C 428.98 499.44 427.64 498.96 426.35 499.40 M 139.07 524.12 C 141.60 525.76 143.60 523.03 144.62 521.01 C 143.58 519.66 142.99 517.14 140.84 517.42 C 137.23 517.00 135.64 522.74 139.07 524.12 M 856.38 521.02 C 857.40 523.01 859.35 525.74 861.89 524.14 C 865.35 522.80 863.80 517.00 860.17 517.41 C 858.00 517.14 857.40 519.67 856.38 521.02 M 541.48 526.26 C 539.20 529.10 536.42 531.48 533.85 534.04 C 538.40 535.74 542.81 537.80 547.19 539.89 C 550.24 541.26 551.54 544.96 551.24 548.11 C 550.36 552.82 545.16 556.10 540.57 554.25 C 535.21 551.74 529.81 549.33 524.32 547.14 C 524.17 551.14 525.44 555.01 525.41 559.01 C 525.48 563.40 525.59 567.79 525.50 572.19 C 527.59 573.08 529.67 574.15 531.96 574.47 C 542.92 575.24 553.50 571.66 563.64 567.95 C 570.65 564.81 577.82 561.76 583.98 557.07 C 576.82 548.56 568.60 541.00 559.84 534.18 C 554.45 530.28 548.51 525.75 541.48 526.26 M 188.90 531.12 C 187.39 533.50 190.12 535.57 191.98 536.61 C 193.72 535.58 196.25 534.49 195.59 531.96 C 195.31 528.55 190.13 528.15 188.90 531.12 M 805.41 532.05 C 804.77 534.54 807.31 535.58 809.01 536.62 C 810.89 535.57 813.63 533.47 812.07 531.08 C 810.82 528.10 805.56 528.60 805.41 532.05 M 493.45 541.45 C 495.03 545.55 495.62 549.92 497.00 554.09 C 497.91 556.69 497.73 559.78 495.87 561.94 C 492.54 566.71 483.71 565.51 482.09 559.78 C 480.34 554.12 479.46 548.20 477.21 542.70 C 472.13 547.78 467.06 552.91 461.23 557.15 C 460.30 558.03 458.67 558.45 458.45 559.90 C 459.34 563.43 461.27 566.64 463.65 569.38 C 470.31 577.24 479.27 582.66 488.15 587.66 C 494.29 590.44 500.27 594.58 507.22 594.77 C 507.42 592.52 507.64 590.28 508.04 588.07 C 509.88 578.82 509.78 569.33 509.56 559.94 C 509.46 555.02 508.91 549.88 506.42 545.54 C 505.60 544.26 504.55 542.69 502.83 542.84 C 499.66 542.71 496.50 542.34 493.45 541.45 M 240.29 554.02 C 241.43 555.81 243.47 558.56 245.88 556.90 C 249.18 555.58 247.84 549.58 244.14 550.25 C 241.93 550.11 241.30 552.56 240.29 554.02 M 753.64 556.16 C 754.75 556.76 755.92 557.18 757.17 557.41 C 758.84 556.90 759.72 555.33 760.71 554.03 C 759.72 552.25 758.63 549.67 756.09 550.27 C 753.10 550.44 753.00 553.96 753.64 556.16 M 359.37 565.37 C 357.81 566.23 356.68 568.35 357.95 569.93 C 359.29 572.70 363.88 572.11 364.53 569.09 C 365.51 566.29 361.70 563.02 359.37 565.37 M 638.14 565.08 C 634.94 566.67 636.49 572.09 640.03 571.72 C 642.54 571.82 643.83 569.11 643.56 566.92 C 642.05 565.85 640.08 563.48 638.14 565.08 M 291.32 571.34 C 288.81 572.17 288.66 576.03 290.80 577.38 C 292.21 578.13 293.81 577.56 295.29 577.43 C 296.49 575.62 296.65 573.45 295.31 571.67 C 293.98 571.53 292.65 571.30 291.32 571.34 M 705.69 571.67 C 704.35 573.44 704.49 575.61 705.70 577.43 C 708.23 578.41 712.18 577.53 711.65 574.11 C 711.65 570.81 707.95 571.16 705.69 571.67 Z"></path></svg>