<svg height='100px' width='100px'  fill="#000000" xmlns="http://www.w3.org/2000/svg" xmlns:xlink="http://www.w3.org/1999/xlink" version="1.1" x="0px" y="0px" viewBox="0 0 48 48" enable-background="new 0 0 48 48" xml:space="preserve"><path d="M42.08008,42.07715c-1.88281,1.88281-4.38672,2.91992-7.0498,2.91992s-5.16699-1.03711-7.04981-2.91992L17.30371,31.40039  l14.09961-14.09863l10.67676,10.67676C43.96289,29.86133,45,32.36426,45,35.02832C45,37.69141,43.96289,40.19434,42.08008,42.07715z  "></path><path d="M20.01953,5.91797c-1.94336-1.94336-4.49707-2.91504-7.0498-2.91504S7.86328,3.97461,5.91992,5.91797  C4.03711,7.80078,3,10.30371,3,12.9668s1.03711,5.16699,2.91992,7.04981l10.67676,10.67676l14.09961-14.09863L20.01953,5.91797z   M26.99609,19.29004c-0.46191,0.09375-0.92285,0.13867-1.37891,0.13867c-1.11029,0-2.17822-0.28375-3.13422-0.78644  c-0.8927,0.10181-1.78357,0.24615-2.65436,0.42914c-0.51678,0.69519-1.12891,1.30933-1.84717,1.80554  c-1.34668,0.93066-2.90918,1.41504-4.51172,1.41504c-0.48145,0-0.96582-0.04395-1.44922-0.13184  c-2.09277-0.38281-3.91211-1.55762-5.12109-3.30859c-0.11914-0.17188-0.11816-0.40039,0.00195-0.57129  c0.54492-0.77539,1.21484-1.44043,1.99219-1.97656c3.52112-2.43433,8.32556-1.62543,10.8786,1.76184  c0.48511-0.09949,0.97412-0.18793,1.46753-0.26349c-0.55719-0.47681-1.04004-1.05029-1.43048-1.70862  c-0.84576-0.00922-1.67981-0.14496-2.48206-0.41864c-4.15723-1.41699-6.38672-5.95313-4.96973-10.11035  c0.06836-0.19824,0.25195-0.33301,0.46094-0.33887c0.93652-0.03027,1.87891,0.11816,2.77441,0.42383  c2.01367,0.68652,3.63965,2.11621,4.57813,4.02637c0.90161,1.83521,1.05676,3.8999,0.45935,5.84497  c1.25073,2.16803,3.70172,3.29077,6.16663,2.78882c0.27246-0.05566,0.53418,0.11914,0.58984,0.39063  C27.4414,18.97071,27.2666,19.23536,26.99609,19.29004z"></path><path d="M39.09375,30.25781c-0.19531,0.19531-0.19531,0.51172,0,0.70703c1.08496,1.08496,1.68262,2.52734,1.68262,4.0625  s-0.59766,2.97852-1.68262,4.06348c-0.19531,0.19531-0.19531,0.51172,0,0.70703c0.09766,0.09766,0.22559,0.14648,0.35352,0.14648  s0.25586-0.04883,0.35352-0.14648c1.27441-1.27441,1.97559-2.96875,1.97559-4.77051s-0.70117-3.49609-1.97559-4.76953  C39.60547,30.0625,39.28906,30.0625,39.09375,30.25781z"></path></svg>