<?xml version="1.0" encoding="utf-8"?>
<!-- Generator: Adobe Illustrator 24.2.1, SVG Export Plug-In . SVG Version: 6.00 Build 0)  -->
<svg version="1.1" id="Layer_1" xmlns="http://www.w3.org/2000/svg" xmlns:xlink="http://www.w3.org/1999/xlink" x="0px" y="0px"
	 viewBox="0 0 100 100" enable-background="new 0 0 100 100" xml:space="preserve">
<g>
	<path d="M4.825,32.218c-0.69,1.97,1.445,3.65,4.064,4.92c2.812,1.364,6.182,2.242,7.505,2.573c5.004,1.252,9.388,2.606,13.75,4.158
		c4.358,1.551,8.691,3.301,13.601,5.348c2.742,1.143,4.94,1.603,7.46,1.563c2.545-0.041,5.451-0.589,9.572-1.458l0-0.001
		c2.263-0.578-0.145,0.039,0.682-0.173c2.973-0.762,8.615-2.209,14.527-3.341c-11.525-0.92-26.702-6.406-37.446-10.29
		c-1.706-0.617-3.298-1.192-4.827-1.731c-1.942-0.684-3.68-1.365-5.302-2.001c-5.761-2.258-10.052-3.94-16.923-3.09
		c-1.509,0.187-2.843,0.444-3.966,0.979C6.441,30.187,5.536,30.97,4.825,32.218z M36.02,52.119c-2.495,0.341-7.5,0.698-10.713,0.612
		C28.159,52.45,33.354,52.235,36.02,52.119z M38.11,52.566c-3.594,0.504-10.806,1.042-15.436,0.933
		C26.782,53.082,34.268,52.747,38.11,52.566z M74.572,63.302c-3.245,0.504-9.761,1.086-13.951,1.049
		C64.331,63.919,71.098,63.517,74.572,63.302z M77.306,63.836c-4.674,0.741-14.062,1.612-20.101,1.578
		C62.551,64.774,72.302,64.162,77.306,63.836z M78.005,66.189c0.387,0.98,0.944,1.599,1.526,1.642
		c-0.546-0.298-0.947-0.909-1.213-1.688C78.243,66.16,78.145,66.179,78.005,66.189z M78.309,60.31
		c0.263-0.885,0.648-1.606,1.141-1.983c-0.439-0.014-1.093,0.735-1.527,1.976C78.053,60.302,78.181,60.303,78.309,60.31z
		 M82.033,62.893c0,2.817-1.053,4.985-2.195,5.07c2.447-1.332,2.152-8.562,0.087-10.142C80.68,57.797,82.033,59.891,82.033,62.893z
		 M48.166,65.172c0,2.817-1.053,4.985-2.195,5.07c2.447-1.332,2.152-8.562,0.087-10.142C46.812,60.076,48.166,62.171,48.166,65.172z
		 M42.997,52.602c-0.119,2.158-0.961,3.76-1.87,3.827c0.996-0.542,1.462-2.222,1.489-3.984c-0.146-0.06-0.293-0.121-0.441-0.183
		c0.012,0.359-0.048,0.711-0.182,1.018c-0.182,0.414-0.492,0.742-0.943,0.908c-0.126,0.046-0.262,0.079-0.409,0.096l-1.476,0.173
		c0.217,0.706,0.516,1.302,0.869,1.738c0.113,0.14,0.231,0.262,0.352,0.363c0.127,0.099,0.267,0.187,0.425,0.263
		c0.137,0.056,0.276,0.085,0.416,0.085c0.535,0,1.044-0.425,1.45-1.126c0.435-0.75,0.735-1.788,0.829-2.971
		C43.337,52.741,43.167,52.672,42.997,52.602z M14.981,53.335c0,2.51-0.938,4.441-1.956,4.517c2.18-1.187,1.917-7.628,0.077-9.036
		C13.775,48.794,14.981,50.66,14.981,53.335z M46.548,56.892c0.535-0.663,0.891-1.652,1.054-2.421
		c-0.017,0.557-0.226,1.477-0.635,2.227c0.722-0.397,1.26-1.062,1.585-2.118c-0.558-0.16-1.144-0.343-1.743-0.543
		c-0.76-0.254-1.537-0.535-2.298-0.829c-0.133,1.211-0.467,2.286-0.935,3.093c-0.204,0.351-0.434,0.655-0.686,0.903h0.014
		c0.076,0.005,0.151,0.01,0.226,0.014c1.122-0.245,1.887-1.931,2.18-3.102c-0.055,0.825-0.566,2.453-1.502,3.13
		c0.207,0.005,0.409,0.005,0.605,0c0.891-0.49,1.451-1.942,1.66-2.986c-0.015,0.761-0.379,2.199-1.129,2.96
		c0.169-0.013,0.333-0.03,0.492-0.053c0.73-0.612,1.205-1.855,1.401-2.779c-0.021,0.68-0.327,1.901-0.936,2.695
		C46.13,57.034,46.345,56.97,46.548,56.892z M17.853,58.434c0.841-0.615,1.26-2.135,1.37-3.201c0.052,0.693-0.133,1.992-0.683,2.869
		c0.678-0.434,1.195-1.148,1.473-2.278l-0.004-0.001c0.194-0.774,0.274-1.87,0.212-2.991c-0.026-0.47-0.077-0.943-0.156-1.395
		l-0.065-0.322c-0.278-1.368-0.768-2.228-1.65-2.695c-0.829-0.439-2.029-0.576-3.73-0.495c0.351,0.317,0.663,0.738,0.927,1.242
		c0.562,1.074,0.909,2.545,0.909,4.156c0,1.612-0.348,3.082-0.909,4.157c-0.254,0.486-0.555,0.895-0.891,1.209
		c1.359-0.05,2.068-2.125,2.255-3.474c0.035,0.899-0.365,2.816-1.4,3.51c1.395,0.004,2.021-2.108,2.146-3.474
		c0.076,0.876-0.217,2.721-1.161,3.456c0.027-0.002,0.053-0.005,0.08-0.007c1.161-0.307,1.715-2.182,1.844-3.431
		c0.062,0.819-0.208,2.485-1.021,3.299C17.553,58.531,17.705,58.486,17.853,58.434z M51.238,71.257
		c0.949-0.782,1.555-2.421,1.793-3.59c-0.02,0.796-0.379,2.282-1.105,3.3c0.122-0.067,0.237-0.14,0.346-0.22
		c0.889-0.651,1.423-1.788,1.808-3.533c0.151-0.786,0.207-1.661,0.165-2.539c-0.054-1.132-0.268-2.262-0.647-3.215l0.003-0.001
		c-0.392-0.935-0.948-1.574-1.682-1.978c-1.089-0.598-2.603-0.72-4.578-0.543c0.524,0.36,0.985,0.922,1.357,1.634
		c0.621,1.187,1.005,2.813,1.005,4.596c0,1.783-0.384,3.409-1.005,4.596c-0.385,0.735-0.864,1.31-1.41,1.669
		c0.14,0.02,0.283,0.036,0.431,0.047c0.099,0.007,0.197,0.014,0.293,0.02c1.201-0.601,2.013-2.529,2.33-3.854
		c-0.059,0.967-0.656,2.951-1.764,3.88c0.17,0.005,0.335,0.007,0.495,0.007c1.163-0.61,1.879-2.527,2.132-3.845
		c-0.014,0.95-0.499,2.878-1.523,3.828c0.119-0.007,0.236-0.016,0.349-0.027c1.102-0.672,1.799-2.506,2.058-3.78
		c-0.023,0.906-0.484,2.703-1.426,3.691C50.867,71.361,51.058,71.314,51.238,71.257z M85.618,68.315
		c0.658-0.858,1.035-2.185,1.172-3.174c0.026,0.644-0.14,1.737-0.552,2.671c0.203-0.213,0.389-0.46,0.557-0.736
		c0.573-0.94,0.931-2.185,1.053-3.482c0.123-1.305,0.005-2.656-0.372-3.799c-0.338-1.025-0.882-1.87-1.645-2.335
		c-0.702-0.428-1.61-0.627-2.519-0.684c-0.631-0.04-1.257-0.012-1.816,0.055c0.429,0.36,0.81,0.86,1.126,1.469
		c0.621,1.196,1.006,2.835,1.006,4.623c0,1.783-0.384,3.409-1.005,4.596c-0.296,0.566-0.649,1.037-1.044,1.388
		c0.095,0.006,0.191,0.01,0.288,0.014c0.08,0.003,0.16,0.005,0.241,0.006c1.111-0.648,1.768-2.515,1.993-3.808
		c0.004,0.942-0.437,2.846-1.426,3.804c0.2-0.006,0.4-0.017,0.6-0.034c1.002-0.71,1.535-2.485,1.692-3.728
		c0.046,0.898-0.271,2.672-1.12,3.665c0.161-0.023,0.321-0.049,0.478-0.08c0.879-0.792,1.368-2.408,1.528-3.564
		c0.034,0.832-0.253,2.417-0.979,3.435c0.091-0.025,0.181-0.053,0.268-0.081C85.306,68.481,85.465,68.406,85.618,68.315
		L85.618,68.315z M59.398,54.457c4.527-0.098,9.554-0.492,12.822-0.748c0.367-0.029,0.713-0.056,1.171-0.091l0,0.001
		c2.944-0.293,8.284-0.943,12.9-1.659c3.717-0.576,6.953-1.191,8.043-1.685c0.091-0.041,0.166-0.077,0.225-0.108
		c0.712-0.373,1.109-0.851,1.256-1.376c0.026-0.091,0.044-0.184,0.055-0.279c0.065-0.809-0.978-1.217-2.578-1.378
		c-4.345-0.437-12.325,1.129-15.643,1.779l-0.237,0.046c-3.111,0.609-6.246,1.405-9.334,2.189
		c-5.722,1.452-11.288,2.865-16.312,3.003c2.42,0.315,4.806,0.309,7.061,0.303l0.571-0.002
		C59.398,54.453,59.398,54.457,59.398,54.457z M73.468,54.656L73.468,54.656l-0.026,0.003c-0.422,0.042-0.794,0.077-1.108,0.103
		c0.144,1.82-0.515,3.112-1.24,4.118c-0.214,0.338-0.422,0.605-0.635,0.817l-0.007,0.008c0.969,0.444,1.657,0.696,2.416,0.838
		c0.557,0.104,1.166,0.152,1.96,0.176l0-0.001l0.019,0.001c0.397,0.011,0.841,0.017,1.348,0.02c0.255-1.183,0.661-2.167,1.156-2.906
		c0.593-0.888,1.323-1.439,2.096-1.591c0.103-0.039,0.21-0.075,0.32-0.111c0.822-0.265,2.214-0.482,3.609-0.394
		c1.059,0.067,2.133,0.309,2.995,0.835c0.991,0.605,1.681,1.65,2.093,2.897c0.421,1.275,0.552,2.774,0.417,4.218
		c-0.136,1.451-0.544,2.855-1.199,3.93c-0.559,0.917-1.301,1.606-2.216,1.907c-1.094,0.361-2.436,0.478-3.636,0.434
		c-1.315-0.048-2.498-0.306-3.057-0.663c-0.508-0.27-1.007-0.704-1.433-1.253c-0.464-0.598-0.849-1.338-1.067-2.15
		c-1.481,0.187-2.875,0.352-4.209,0.495c-1.62,0.174-3.172,0.322-4.708,0.444c-2.083,0.166-4.197,0.3-6.336,0.408
		c-1.964,0.099-3.942,0.174-5.927,0.228l-0.014,0.062c-0.05,0.243-0.108,0.479-0.175,0.706L54.9,68.235
		c-0.434,1.563-1.049,2.646-2.014,3.352c-1.181,0.865-2.824,1.112-5.24,0.932c-1.806-0.134-3.125-0.876-4.019-2.053
		c-0.95-1.251-1.394-2.98-1.412-4.975c-0.017-1.922,0.184-3.677,0.877-5.021c0.567-1.099,1.442-1.914,2.757-2.314
		c-0.888,0.158-1.897,0.162-3.013,0.086l0-0.001c-1.031-0.025-1.801-0.174-2.407-0.45c-0.28-0.112-0.545-0.283-0.792-0.504
		c-0.057-0.049-0.113-0.1-0.167-0.153c-0.629-0.619-0.995-1.448-1.427-2.536c-0.543,0.067-1.145,0.133-1.794,0.198l-0.044,0.005
		l0-0.001c-1.614,0.161-3.517,0.316-5.54,0.455c-3.085,0.212-6.477,0.388-9.571,0.496c-0.371,1.862-1.262,2.918-2.465,3.484
		c-1.24,0.584-2.777,0.608-4.4,0.464c-0.587-0.052-1.114-0.172-1.584-0.355c-0.607-0.116-1.158-0.5-1.619-1.086
		c-0.097-0.104-0.19-0.213-0.278-0.328c-0.807-1.05-1.184-2.498-1.206-4.225c-0.021-1.644,0.184-3.231,0.801-4.456
		c0.656-1.302,1.749-2.189,3.475-2.32c2.286-0.173,3.879-0.033,5.013,0.568c0.861,0.456,1.437,1.149,1.821,2.135l0.006-0.002
		c0.101,0.265,0.189,0.55,0.264,0.847l2.087-0.073l0-0.001c0.299-0.011,0.582-0.028,0.853-0.052
		c0.545-0.122,0.525-0.364,0.499-0.636c-0.124-0.627-0.351-2.578-0.498-3.838c-0.044-0.376-0.066-0.651-0.08-0.813
		c-0.217-0.097-0.454-0.193-0.707-0.288l-0.001,0v0c-1.397-0.527-3.307-1.04-5.38-1.597c-3.69-0.991-7.886-2.118-10.812-3.764
		c-3.219-1.811-4.933-4.217-2.99-7.671c0.832-1.478,1.9-2.405,3.182-3.014c1.249-0.594,2.679-0.874,4.284-1.072
		c7.128-0.881,11.525,0.842,17.428,3.156c1.613,0.632,3.341,1.31,5.27,1.989c1.412,0.497,3.064,1.095,4.836,1.735
		c12.839,4.641,32.056,11.588,43.493,10.175l0.004,0.035c6.702-0.896,12.606-0.889,14.003,1.566l0.008,0.016
		c0.055,0.105,0.101,0.198,0.137,0.278c0.375,0.829,0.498,1.678,0.278,2.462c-0.222,0.793-0.785,1.496-1.777,2.015
		c-0.102,0.053-0.195,0.099-0.278,0.137c-1.179,0.534-4.51,1.172-8.312,1.762C81.802,53.707,76.43,54.361,73.468,54.656z
		 M71.296,54.826c-2.241,0.174-5.081,0.385-7.98,0.528c0.439,1.094,1.023,2.185,1.755,2.973c0.626,0.674,1.359,1.119,2.195,1.124
		l0.019,0c1.254,0.007,1.957,0.011,2.601-0.701c0.109-0.138,0.22-0.282,0.329-0.433c0.055-0.084,0.109-0.173,0.164-0.269
		c0.029-0.051,0.065-0.095,0.107-0.132C70.996,57.111,71.395,56.116,71.296,54.826z M62.222,55.405
		c-0.934,0.04-1.868,0.072-2.783,0.091c0.109,0.921,0.466,2.249,1.106,3.32c0.493,0.826,1.15,1.481,1.974,1.604l0.018,0.003
		c0.204-0.085,0.409-0.174,0.613-0.265c0.524-0.235,1.039-0.491,1.514-0.77c-0.122-0.111-0.24-0.228-0.354-0.352
		C63.405,58.063,62.714,56.712,62.222,55.405z M58.398,55.514c-1.996,0.022-3.865-0.02-5.409-0.167l0.002-0.017
		c-1.132-0.098-2.277-0.252-3.428-0.496c-0.443,1.491-1.243,2.392-2.346,2.906c-0.21,0.098-0.429,0.18-0.659,0.25
		c0.171-0.03,0.349-0.054,0.532-0.071c2.254-0.217,4.009-0.074,5.33,0.651c1.258,0.691,2.091,1.873,2.542,3.723
		c1.191-0.137,2.487-0.325,3.713-0.593c0.735-0.161,1.441-0.35,2.077-0.573l-0.002-0.004c0.126-0.047,0.255-0.095,0.385-0.145
		c-0.597-0.387-1.088-0.966-1.482-1.626C58.916,58.116,58.512,56.567,58.398,55.514z M65.577,60.047
		c-0.615,0.395-1.303,0.745-2.004,1.06c-0.584,0.262-1.178,0.499-1.746,0.717c-0.859,0.369-1.871,0.66-2.932,0.892
		c-1.23,0.269-2.536,0.46-3.741,0.6c0.066,0.432,0.109,0.871,0.13,1.31c0.029,0.607,0.014,1.214-0.042,1.798
		c1.898-0.053,3.808-0.126,5.728-0.223c2.08-0.105,4.182-0.24,6.303-0.408c1.56-0.124,3.102-0.27,4.68-0.44
		c1.177-0.127,2.366-0.265,3.59-0.416l-0.002-0.013l2.504-0.295c0.636-0.075,1.044-0.433,1.225-0.868
		c0.084-0.202,0.121-0.42,0.112-0.635c-0.009-0.211-0.063-0.42-0.164-0.606c-0.21-0.39-0.636-0.681-1.286-0.695
		c-0.132-0.003-0.297-0.002-0.497-0.002c-0.601,0.002-1.502,0.004-2.668-0.066l0-0.001c-0.836-0.025-1.483-0.077-2.09-0.191
		c-1.01-0.189-1.878-0.539-3.267-1.203l-0.043-0.021c-0.56,0.157-1.219,0.153-2.086,0.148l-0.019,0
		C66.65,60.487,66.089,60.326,65.577,60.047z M77.305,60.785l0.131,0c0.21-0.001,0.383-0.001,0.517,0.002
		c1.079,0.022,1.806,0.543,2.182,1.24c0.175,0.325,0.27,0.689,0.286,1.058c0.015,0.365-0.048,0.734-0.19,1.075
		c-0.315,0.759-1.006,1.379-2.064,1.504l-0.849,0.1c0.185,0.619,0.487,1.183,0.845,1.644c0.357,0.46,0.759,0.811,1.14,1l0.005-0.005
		c0.007,0.006,0.015,0.013,0.023,0.019c0.193,0.092,0.381,0.141,0.554,0.141c0.681,0,1.326-0.582,1.818-1.523
		c0.545-1.043,0.883-2.497,0.883-4.116c0-1.62-0.339-3.087-0.888-4.142c-0.493-0.949-1.136-1.539-1.813-1.539
		c-0.057,0-0.114,0.004-0.172,0.012c-0.659,0.263-1.115,0.609-1.466,1.126C77.868,58.937,77.589,59.708,77.305,60.785z
		 M45.96,63.604c0.452,0,0.818,0.7,0.818,1.564c0,0.864-0.366,1.564-0.818,1.564c-0.452,0-0.818-0.7-0.818-1.564
		C45.142,64.304,45.508,63.604,45.96,63.604z M47.778,61.052c-0.492-0.941-1.137-1.523-1.818-1.523
		c-0.681,0-1.326,0.582-1.818,1.523c-0.545,1.043-0.883,2.497-0.883,4.116c0,1.619,0.337,3.073,0.883,4.116
		c0.492,0.941,1.137,1.523,1.818,1.523c0.681,0,1.326-0.582,1.818-1.523c0.545-1.043,0.883-2.497,0.883-4.116
		C48.661,63.549,48.323,62.095,47.778,61.052z M44.113,51.934c6.41,2.597,14.872,0.449,23.712-1.794
		c3.104-0.788,6.254-1.588,9.387-2.201l0.237-0.047c3.36-0.659,11.442-2.244,15.944-1.792c0.695,0.07,1.312,0.189,1.828,0.368
		c-1.598-1.718-6.78-1.594-12.714-0.755l0.004,0.036c-0.28,0.035-0.566,0.063-0.855,0.088c-7.544,1.138-16.067,3.324-19.943,4.317
		c-1.319,0.338,1.166-0.295-0.682,0.177l-0.022,0.004c-4.187,0.883-7.145,1.441-9.79,1.483c-2.675,0.043-4.997-0.44-7.875-1.64
		c-4.895-2.041-9.213-3.785-13.548-5.328c-4.331-1.542-8.685-2.886-13.656-4.13c-1.352-0.339-4.798-1.236-7.705-2.646
		c-1.828-0.886-3.441-1.978-4.249-3.277c0.181,1.504,1.421,2.71,3.206,3.713c2.813,1.582,6.941,2.691,10.571,3.666
		c2.065,0.555,3.972,1.067,5.421,1.609l0,0c5.803,1.822,11.105,4.082,15.742,6.059C40.893,50.597,42.562,51.308,44.113,51.934z
		 M41.047,51.789c-0.605-0.255-1.222-0.518-1.852-0.786l-3.744,0.102c-0.714,0.019-1.405-0.226-1.98-0.671
		c-0.379-0.293-0.708-0.673-0.959-1.121c-0.307,0.15-0.652,0.261-1.014,0.324c-0.818,0.143-1.746,0.053-2.542-0.37l-0.001,0
		c-0.773,0.725-1.534,1.222-2.387,1.559c-0.75,0.296-1.563,0.464-2.513,0.553c-0.065,0.012-0.132,0.024-0.203,0.035l-0.016,0.003
		l-2.708,0.095c0.063,0.415,0.105,0.841,0.129,1.264c0.037,0.666,0.027,1.328-0.025,1.933c3.006-0.108,6.317-0.282,9.364-0.49
		c2.013-0.138,3.899-0.291,5.492-0.449l0-0.001l4.435-0.519c0.062-0.007,0.118-0.021,0.168-0.039
		c0.163-0.06,0.278-0.185,0.349-0.346c0.088-0.201,0.114-0.455,0.083-0.721C41.109,52.025,41.083,51.906,41.047,51.789z
		 M36.901,50.027c-1.118-0.474-2.271-0.958-3.456-1.444c-0.028,0.036-0.057,0.071-0.087,0.106c0.189,0.376,0.447,0.689,0.748,0.923
		c0.39,0.302,0.851,0.468,1.32,0.455C35.426,50.067,36.901,50.027,36.901,50.027z M32.41,48.163
		c-1.315-0.53-2.668-1.058-4.056-1.572c0.085,0.278,0.18,0.544,0.285,0.782c0.169,0.382,0.353,0.679,0.545,0.816
		c0.078,0.056,0.165,0.109,0.26,0.159c0.578,0.307,1.263,0.37,1.874,0.264C31.756,48.535,32.144,48.376,32.41,48.163z
		 M27.162,46.156c-0.76-0.273-1.531-0.541-2.311-0.801c0.015,0.126,0.031,0.262,0.048,0.407c0.148,1.269,0.378,3.246,0.487,3.776
		l0.005,0.026l0.005,0.051c0.016,0.168,0.032,0.331,0.032,0.487c0.264-0.068,0.515-0.148,0.758-0.244
		c0.693-0.274,1.321-0.676,1.961-1.259c-0.172-0.227-0.325-0.502-0.459-0.807C27.474,47.309,27.299,46.735,27.162,46.156z
		 M13.036,51.917c0.406,0,0.735,0.63,0.735,1.406c0,0.777-0.329,1.406-0.735,1.406c-0.406,0-0.735-0.63-0.735-1.406
		C12.3,52.547,12.629,51.917,13.036,51.917z M14.624,49.648c-0.433-0.829-0.997-1.341-1.588-1.341c-0.591,0-1.155,0.513-1.588,1.341
		c-0.486,0.93-0.787,2.229-0.787,3.676s0.301,2.746,0.787,3.676c0.114,0.217,0.236,0.413,0.366,0.583
		c0.303,0.314,0.669,0.567,1.103,0.751c0.04,0.005,0.079,0.007,0.119,0.007c0.591,0,1.155-0.513,1.588-1.341
		c0.486-0.93,0.787-2.229,0.787-3.676S15.11,50.578,14.624,49.648z"/>
</g>
</svg>
