<svg height='100px' width='100px'  fill="#000000" xmlns="http://www.w3.org/2000/svg" xmlns:xlink="http://www.w3.org/1999/xlink" version="1.1" x="0px" y="0px" viewBox="0 0 100 100" enable-background="new 0 0 100 100" xml:space="preserve"><path fill="#000000" d="M79.532,54.271l5.359-6.62c0.03-0.035,0.054-0.073,0.075-0.113c0.514-0.986,0.845-2.065,1.205-3.109  c0.012-0.038,0.016-0.06,0.018-0.081c0.007-0.096-0.031-0.193-0.111-0.257c-0.065-0.054-0.144-0.074-0.224-0.064  c-0.031,0.002-0.069,0.016-0.101,0.029c-0.983,0.606-2.014,1.169-2.891,1.913l0.775,0.627l-5.505,6.803l-0.135,0.68  c-0.113,0.549-0.159,0.965-0.159,1.285C78.384,54.906,78.955,54.543,79.532,54.271z M31.06,86.682  c-2.999-3.51-4.443-7.789-4.941-13.576c-7.3,0.941-15.446-16.877-8.347-19.203c1.69-0.555,3.769-0.102,5.603,1.377  c-0.063-0.348-0.139-0.744-0.235-1.201l-0.023-0.109c-0.114-0.539-0.238-1.059-0.367-1.562l-0.277,0.276  c-0.116,0.114-0.24,0.226-0.363,0.335c-0.34,0.298-0.585,0.216-0.577-0.148c0.393-1.403,0.396-5.229,0.154-5.744  c-0.113-0.249-0.508-0.298-0.829-0.364c-6.15-1.12-3.958-5.186-6.33-10.237c-0.474-1.017-2.226-5.594-0.618-6.684l-0.033-0.143  c-0.37-1.919,2.142-3.742,3.34-4.947c3.312-3.339,7.506-9.351,10.096-12.852c8.646-11.671,36.601-11.671,45.245,0  c2.175,2.941,7.589,10.676,10.866,13.56c0.973,0.853,1.711,1.452,2.321,2.704c0.354,0.539,0.43,1.393,0.249,2.157  c0.517,0.327,0.577,0.96,0.561,1.507c-0.054,2.94-1.745,5.609-2.512,8.416c-0.407,1.483-0.74,2.691-1.174,3.673  c0.269-0.179,0.566-0.368,0.898-0.562c1.999-1.166,3.838-2.497,4.732-3.601c0.718-0.887,1.992,0.146,1.277,1.032  c-1.908,2.351-2.082,5.604-3.679,8.083l-0.056,0.075l-3.828,4.731c0.459,0.012,0.907,0.09,1.328,0.228  c7.1,2.329-1.044,20.147-8.351,19.204c-0.494,5.754-1.926,10.021-4.886,13.525c-1.679,1.996-3.854,3.746-6.633,5.379  c-1.214,0.715-4.346,2.268-5.221,3.289c-1.875,2.189-5.195,2.457-7.858,2.457c-2.667,0.008-5.848-0.268-7.724-2.457  c-0.873-1.021-4.005-2.574-5.216-3.289C34.898,90.385,32.736,88.65,31.06,86.682z M27.868,41.4c0.315,1.797,0.662,3.698,0.439,5.418  c-0.157,1.19-0.556,2.31-0.914,3.449c-0.318,1.006-0.613,2.126-0.66,3.699c-0.047,1.652,0.179,3.803,0.947,6.838  c0.269,1.055-0.834,1.564-1.463,0.68c-1.12-1.584-1.721-2.355-2.058-2.863c-0.027-0.033-0.05-0.062-0.072-0.098  c-1.872-2.875-4.341-3.545-5.807-3.064c-4.875,1.6,2.292,17.686,8.244,15.887c0.581-0.176,1.145,0.26,1.176,0.857  c0.058,1.117,0.548,8.068,3.986,12.729c0.163,0.221,0.329,0.434,0.504,0.641c2.591,3.131,6.151,4.873,9.583,6.9  c0.228,0.141,0.448,0.277,0.652,0.426c0.33-0.426,1.072-0.531,1.4,0.107c0.36,0.699,0.522,0.996,0.714,1.234  c0.373,0.475,1.077,1.008,1.737,1.299c0.243,0.088,0.498,0.16,0.778,0.223c1.208,0.264,2.416,0.354,3.542,0.354  c1.124,0,2.477-0.094,3.679-0.354c0.278-0.062,0.539-0.137,0.78-0.223c0.658-0.291,1.361-0.824,1.74-1.299  c0.186-0.232,0.352-0.535,0.712-1.234c0.329-0.639,1.073-0.533,1.401-0.107c0.205-0.15,0.419-0.287,0.649-0.426  c3.546-2.098,7.225-3.887,9.833-7.215c0.077-0.113,0.157-0.221,0.235-0.326c3.438-4.66,3.932-11.613,3.989-12.729  c0.026-0.598,0.592-1.033,1.172-0.857c5.952,1.799,13.121-14.287,8.246-15.887c-1.285-0.424-3.343,0.043-5.094,2.104l-0.517,0.664  c-0.066,0.096-0.133,0.195-0.195,0.297c-0.061,0.09-0.124,0.16-0.199,0.217l-0.284,0.379c-0.451,0.596-0.981,1.404-1.704,2.271  c0,0-0.333,0.613-1.085,0.428c-0.612-0.299-0.58-0.811-0.38-1.594c0.733-2.902,0.851-4.385,0.83-5.991  c-0.009-0.208-0.025-0.417-0.045-0.624c-0.012-0.136-0.026-0.271-0.045-0.407c-0.168-1.315-0.541-2.704-1.083-4.558  c-0.687-2.34-0.589-4.313-0.004-6.69c-2.887-1.869-6.481-4.032-8.716-5.414c-3.185,2.391-6.724,3.911-9.488,4.723  c-1.019,0.3-1.567-0.677-0.785-1.391c0.813-0.74,1.601-1.569,2.367-2.477c0.057-0.077,0.075-0.178,0.051-0.278  c-0.042-0.174-0.215-0.287-0.385-0.245c-0.055,0.013-0.1,0.037-0.15,0.069l-0.066,0.048c-1.256,0.866-2.554,1.646-3.888,2.338  c0,0-1.245,0.611-3.348,1.372c-2.085,0.75-5.031,1.647-8.477,2.237c-1.069,0.183-1.492-0.953-0.562-1.513  c2.403-1.443,3.867-2.596,4.025-2.726c0.464-0.393,0.918-0.8,1.36-1.218c0.116-0.126,0.15-0.229,0.15-0.337  c0-0.226-0.179-0.418-0.403-0.418c-0.066,0-0.129,0.01-0.198,0.034c-0.032,0.011-0.064,0.025-0.095,0.045  c-0.777,0.353-1.564,0.677-2.355,0.973c0,0-1.302,0.455-3.476,0.949c-2.115,0.482-5.061,1.001-8.456,1.176L27.868,41.4z   M69.812,36.691c0.362,0.257,1.737,1.327,3.328,2.411l0.64-0.639c0.165-0.166,0.416,0.083,0.246,0.252l-0.586,0.591  c2.309,1.548,4.959,3.027,5.607,2.125c0.209-0.288,0.219-0.921-0.418-1.363c-1.811-1.26-3.16-2.028-4.565-2.813  c0.034,0.063,0.034,0.141-0.034,0.208l-0.836,0.835c-0.164,0.166-0.416-0.084-0.249-0.25l0.835-0.837  c0.036-0.032,0.075-0.049,0.111-0.054l-0.518-0.287l-0.18,0.174c-0.164,0.167-0.416-0.083-0.249-0.251l0.107-0.105  c-1.725-0.969-3.69-2.13-6.763-4.317c-0.007,0.029-0.021,0.057-0.048,0.083l-0.835,0.834c-0.166,0.167-0.419-0.083-0.251-0.251  l0.832-0.834L65.58,31.86l-0.173,0.176c-0.166,0.166-0.419-0.085-0.251-0.252l0.136-0.134c-0.703-0.513-1.46-1.073-2.277-1.694  c-1.724-1.309-3.468-2.359-5.183-3.145l-0.218,0.215c-0.165,0.167-0.418-0.083-0.249-0.251l0.118-0.121  c-2.395-1.05-4.733-1.589-6.924-1.619l-0.735,0.738c-0.169,0.166-0.418-0.085-0.253-0.251l0.484-0.481  c-2.472-0.062-5.117,0.535-7.831,1.79l-0.193,0.194c-0.079,0.079-0.174,0.065-0.236,0.013c-1.554,0.756-3.124,1.731-4.69,2.918  c-5.521,4.184-8.232,5.721-10.628,7.061c-0.066,0.063-0.105,0.082-0.147,0.083c-1.507,0.84-2.914,1.625-4.841,2.967  c-1.135,0.791-0.564,2.587,2.091,1.106c0.738-0.413,1.64-0.974,2.627-1.617c-0.07-0.06-0.096-0.172-0.01-0.258l0.836-0.833  c0.166-0.167,0.419,0.083,0.25,0.251l-0.392,0.391c2.633-1.748,5.687-3.939,7.678-5.4l0.254-0.252c0.051-0.05,0.11-0.063,0.162-0.05  c0.457-0.335,0.841-0.622,1.131-0.838c1.874-1.402,3.751-2.462,5.618-3.222c0.01-0.022,0.025-0.042,0.047-0.063l0.833-0.835  c0.167-0.166,0.419,0.085,0.251,0.253l-0.349,0.347c2.459-0.891,4.893-1.275,7.285-1.249l0.602-0.603  c0.17-0.166,0.419,0.084,0.25,0.252l-0.36,0.362c2.438,0.084,4.819,0.592,7.125,1.419l0.781-0.781  c0.165-0.166,0.419,0.085,0.25,0.253l-0.668,0.666c2.146,0.808,4.209,1.892,6.178,3.172c0.421,0.275,1.02,0.693,1.74,1.207  l0.287-0.288c0.169-0.167,0.422,0.085,0.255,0.253l-0.244,0.246C67.088,34.735,68.425,35.704,69.812,36.691z M64.355,28.916  l0.766,0.574c-0.032-0.057-0.035-0.127,0.018-0.19L64.355,28.916z M45.007,24.057c1.707-0.473,3.393-0.693,5.034-0.654  c0.138-0.004,0.276-0.005,0.419-0.005h0.144c1.312,0.019,2.654,0.197,4.017,0.537c0.952,0.135,1.845,0.312,2.696,0.514  c-0.022-0.056-0.014-0.124,0.047-0.176l0.835-0.835c0.165-0.167,0.419,0.084,0.25,0.251l-0.836,0.835  c0.201,0.051,0.399,0.103,0.594,0.157c0.109-0.095,0.247-0.027,0.289,0.079c2.669,0.76,4.895,1.812,7.032,2.895l0.458-0.461  c0.171-0.167,0.422,0.084,0.255,0.252l-0.381,0.38c2.449,1.247,4.806,2.523,7.616,3.427l0.305-0.301  c0.165-0.168,0.416,0.084,0.246,0.251l-0.164,0.17c1.084,0.331,2.234,0.606,3.484,0.805c3.005,0.476,4.987-0.198,6.847-1.768  c0.299-0.304,0.289-1.203,0.133-1.408c-0.665-1.405-1.532-1.884-2.52-2.793l-0.818,0.82c-0.168,0.166-0.418-0.084-0.251-0.251  l0.813-0.816l-0.058-0.056l-0.31-0.32l-0.195,0.191c-0.168,0.166-0.418-0.085-0.251-0.251l0.197-0.198  c-2.302-2.444-4.9-5.909-7.118-8.934l-0.622,0.617c-0.164,0.166-0.416-0.081-0.249-0.251l0.655-0.657l-0.312-0.432l-0.094,0.087  c-0.164,0.166-0.416-0.085-0.249-0.251l0.129-0.127c-0.665-0.907-1.283-1.758-1.835-2.504c-1.248-1.685-2.947-3.105-4.962-4.263  l-0.87,0.887c-0.166,0.166-0.419-0.083-0.251-0.251l0.811-0.811c-0.161-0.089-0.326-0.177-0.488-0.262l-0.071,0.07  c-0.164,0.164-0.406-0.072-0.262-0.24c-2.196-1.097-4.692-1.914-7.345-2.449l-0.187,0.186c-0.165,0.167-0.418-0.084-0.249-0.251  c-2.144-0.428-4.392-0.655-6.653-0.696c-0.003,0.038-0.02,0.077-0.055,0.113l-0.833,0.834c-0.169,0.167-0.418-0.084-0.253-0.251  l0.703-0.702c-2.715-0.024-5.435,0.222-8.021,0.729L42.032,5.74c-0.126,0.125-0.295,0.017-0.307-0.115  c-2.737,0.583-5.306,1.468-7.532,2.657c-2.274,1.214-4.191,2.744-5.558,4.592c-0.373,0.501-0.821,1.122-1.332,1.82  c0.048,0.063,0.054,0.156-0.018,0.229l-0.547,0.545c-2.065,2.827-4.841,6.587-7.236,9.233c0.058,0.062,0.069,0.16-0.009,0.238  l-0.833,0.834c-0.066,0.064-0.143,0.066-0.203,0.035c-0.322,0.323-0.63,0.617-0.922,0.876c-0.787,0.686-1.887,1.573-2.042,2.657  c0.043,0.252,0.149,0.479,0.208,0.577c0.935,0.775,1.896,1.329,2.87,1.697l0.668-0.668c0.17-0.167,0.419,0.084,0.254,0.251  l-0.547,0.548c2.489,0.814,5.081,0.48,7.646-0.362l0.442-0.437c0.146-0.146,0.352,0.026,0.295,0.184  c2.283-0.833,4.536-2.022,6.663-3.105l0.832-0.835c0.167-0.167,0.416,0.084,0.254,0.253l-0.075,0.073l0.138-0.071  C37.957,26.048,41.018,24.728,45.007,24.057z M22.476,43.319c-1.826,0.314-2.951-0.705-3.146-1.938l-0.673,0.675  c-0.168,0.167-0.418-0.083-0.254-0.252l0.835-0.835c0.02-0.019,0.039-0.032,0.06-0.041c0.022-0.796,0.417-1.625,1.253-2.206  c2.488-1.731,4.101-2.529,6.189-3.727l0.288-0.289c0.079-0.077,0.172-0.065,0.236-0.014c1.921-1.122,4.303-2.638,8.077-5.466  c-2.753,1.393-5.393,2.85-8.646,3.811l-0.254,0.251c-0.114,0.119-0.275,0.031-0.3-0.092c-0.882,0.239-1.812,0.444-2.802,0.601  c-1.374,0.218-2.654,0.16-3.838-0.106l-0.846,0.849c-0.169,0.167-0.419-0.084-0.254-0.251l0.697-0.698  c-1.557-0.418-2.937-1.194-4.145-2.154c-0.078,2.805,1.75,5.596,2.301,8.366c0.376,1.896,0.488,3.338,1.375,4.279l0.607-0.611  c0.167-0.167,0.42,0.085,0.253,0.252l-0.604,0.603c0.618,0.509,1.547,0.836,3.01,0.977C22.025,44.575,22.22,43.919,22.476,43.319z   M58.198,27.193c0.165-0.167,0.419,0.084,0.25,0.252l-0.836,0.833c-0.165,0.167-0.42-0.083-0.249-0.25L58.198,27.193z   M50.403,25.941c0.169-0.167,0.421,0.085,0.252,0.253l-0.835,0.834c-0.168,0.166-0.417-0.084-0.251-0.251L50.403,25.941z   M42.613,27.193c0.167-0.167,0.419,0.084,0.251,0.252l-0.835,0.833c-0.165,0.167-0.419-0.083-0.249-0.25L42.613,27.193z   M34.821,32.202c0.166-0.167,0.418,0.085,0.254,0.253l-0.837,0.833c-0.168,0.167-0.417-0.083-0.249-0.251L34.821,32.202z   M27.03,37.211c0.167-0.166,0.422,0.086,0.253,0.252l-0.839,0.835c-0.165,0.167-0.416-0.084-0.249-0.251L27.03,37.211z   M81.567,30.95c0.171-0.168,0.422,0.085,0.255,0.251l-0.834,0.835c-0.168,0.166-0.418-0.085-0.251-0.252L81.567,30.95z   M81.567,29.698c0.171-0.166,0.422,0.085,0.255,0.252l-0.834,0.834c-0.168,0.168-0.418-0.083-0.251-0.251L81.567,29.698z   M81.567,28.445c0.171-0.167,0.422,0.084,0.255,0.252l-0.834,0.835c-0.168,0.166-0.418-0.085-0.251-0.251L81.567,28.445z   M81.567,27.193c0.171-0.167,0.422,0.084,0.255,0.252l-0.834,0.833c-0.168,0.167-0.418-0.083-0.251-0.25L81.567,27.193z   M73.78,29.698c0.165-0.166,0.418,0.085,0.246,0.252l-0.832,0.834c-0.165,0.168-0.417-0.083-0.249-0.251L73.78,29.698z   M73.78,28.445c0.165-0.167,0.418,0.084,0.246,0.252l-0.832,0.835c-0.165,0.166-0.417-0.085-0.249-0.251L73.78,28.445z   M73.78,27.193c0.165-0.167,0.418,0.084,0.246,0.252l-0.832,0.833c-0.165,0.167-0.417-0.083-0.249-0.25L73.78,27.193z M73.78,25.941  c0.165-0.167,0.418,0.085,0.246,0.253l-0.832,0.834c-0.165,0.166-0.417-0.084-0.249-0.251L73.78,25.941z M73.78,24.688  c0.165-0.167,0.418,0.084,0.246,0.253l-0.832,0.833c-0.165,0.167-0.417-0.085-0.249-0.251L73.78,24.688z M73.78,23.437  c0.165-0.167,0.418,0.084,0.246,0.251l-0.832,0.835c-0.165,0.167-0.417-0.084-0.249-0.25L73.78,23.437z M73.78,22.186  c0.165-0.167,0.418,0.083,0.246,0.252l-0.832,0.833c-0.165,0.168-0.417-0.083-0.249-0.25L73.78,22.186z M73.78,20.932  c0.165-0.168,0.418,0.084,0.246,0.252l-0.832,0.834c-0.165,0.167-0.417-0.083-0.249-0.253L73.78,20.932z M73.78,19.679  c0.165-0.167,0.418,0.085,0.246,0.253l-0.832,0.833c-0.165,0.167-0.417-0.083-0.249-0.251L73.78,19.679z M73.78,18.427  c0.165-0.166,0.418,0.085,0.246,0.253l-0.832,0.833c-0.165,0.167-0.417-0.083-0.249-0.251L73.78,18.427z M73.78,17.175  c0.165-0.168,0.418,0.085,0.246,0.252l-0.832,0.833c-0.165,0.168-0.417-0.083-0.249-0.25L73.78,17.175z M65.985,25.941  c0.171-0.167,0.422,0.085,0.255,0.253l-0.834,0.834c-0.168,0.166-0.418-0.084-0.253-0.251L65.985,25.941z M65.985,24.688  c0.171-0.167,0.422,0.084,0.255,0.253l-0.834,0.833c-0.168,0.167-0.418-0.085-0.253-0.251L65.985,24.688z M65.985,23.437  c0.171-0.167,0.422,0.084,0.255,0.251l-0.834,0.835c-0.168,0.167-0.418-0.084-0.253-0.25L65.985,23.437z M65.985,22.186  c0.171-0.167,0.422,0.083,0.255,0.252l-0.834,0.833c-0.168,0.168-0.418-0.083-0.253-0.25L65.985,22.186z M65.985,20.932  c0.171-0.168,0.422,0.084,0.255,0.252l-0.834,0.834c-0.168,0.167-0.418-0.083-0.253-0.253L65.985,20.932z M65.985,19.679  c0.171-0.167,0.422,0.085,0.255,0.253l-0.834,0.833c-0.168,0.167-0.418-0.083-0.253-0.251L65.985,19.679z M65.985,18.427  c0.171-0.166,0.422,0.085,0.255,0.253l-0.834,0.833c-0.168,0.167-0.418-0.083-0.253-0.251L65.985,18.427z M65.985,17.175  c0.171-0.168,0.422,0.085,0.255,0.252l-0.834,0.833c-0.168,0.168-0.418-0.083-0.253-0.25L65.985,17.175z M65.985,15.922  c0.171-0.166,0.422,0.086,0.255,0.254l-0.834,0.833c-0.168,0.166-0.418-0.081-0.253-0.251L65.985,15.922z M65.985,14.67  c0.171-0.167,0.422,0.084,0.255,0.252l-0.834,0.834c-0.168,0.166-0.418-0.085-0.253-0.251L65.985,14.67z M65.985,13.418  c0.171-0.168,0.422,0.084,0.255,0.252l-0.834,0.835c-0.168,0.166-0.418-0.085-0.253-0.252L65.985,13.418z M65.985,12.167  c0.171-0.167,0.422,0.085,0.255,0.252l-0.834,0.834c-0.168,0.167-0.418-0.084-0.253-0.25L65.985,12.167z M65.985,10.916  c0.171-0.168,0.422,0.083,0.255,0.252l-0.834,0.834c-0.168,0.166-0.418-0.083-0.253-0.251L65.985,10.916z M65.985,9.662  c0.171-0.166,0.422,0.086,0.255,0.252l-0.834,0.834c-0.168,0.168-0.418-0.083-0.253-0.251L65.985,9.662z M58.198,22.186  c0.165-0.167,0.419,0.083,0.25,0.252l-0.836,0.833c-0.165,0.168-0.42-0.083-0.249-0.25L58.198,22.186z M58.198,20.932  c0.165-0.168,0.419,0.084,0.25,0.252l-0.836,0.834c-0.165,0.167-0.42-0.083-0.249-0.253L58.198,20.932z M58.198,19.679  c0.165-0.167,0.419,0.085,0.25,0.253l-0.836,0.833c-0.165,0.167-0.42-0.083-0.249-0.251L58.198,19.679z M58.198,18.427  c0.165-0.166,0.419,0.085,0.25,0.253l-0.836,0.833c-0.165,0.167-0.42-0.083-0.249-0.251L58.198,18.427z M58.198,17.175  c0.165-0.168,0.419,0.085,0.25,0.252l-0.836,0.833c-0.165,0.168-0.42-0.083-0.249-0.25L58.198,17.175z M58.198,15.922  c0.165-0.166,0.419,0.086,0.25,0.254l-0.836,0.833c-0.165,0.166-0.42-0.081-0.249-0.251L58.198,15.922z M58.198,14.67  c0.165-0.167,0.419,0.084,0.25,0.252l-0.836,0.834c-0.165,0.166-0.42-0.085-0.249-0.251L58.198,14.67z M58.198,13.418  c0.165-0.168,0.419,0.084,0.25,0.252l-0.836,0.835c-0.165,0.166-0.42-0.085-0.249-0.252L58.198,13.418z M58.198,12.167  c0.165-0.167,0.419,0.085,0.25,0.252l-0.836,0.834c-0.165,0.167-0.42-0.084-0.249-0.25L58.198,12.167z M58.198,10.916  c0.165-0.168,0.419,0.083,0.25,0.252l-0.836,0.834c-0.165,0.166-0.42-0.083-0.249-0.251L58.198,10.916z M58.198,9.662  c0.165-0.166,0.419,0.086,0.25,0.252l-0.836,0.834c-0.165,0.168-0.42-0.083-0.249-0.251L58.198,9.662z M58.198,8.411  c0.165-0.168,0.419,0.084,0.25,0.253l-0.836,0.833c-0.165,0.167-0.42-0.083-0.249-0.25L58.198,8.411z M58.198,7.159  c0.165-0.166,0.419,0.084,0.25,0.251l-0.836,0.834c-0.165,0.168-0.42-0.083-0.249-0.251L58.198,7.159z M58.198,5.905  c0.165-0.167,0.419,0.085,0.25,0.251l-0.836,0.836c-0.165,0.166-0.42-0.085-0.249-0.252L58.198,5.905z M50.403,22.186  c0.169-0.167,0.421,0.083,0.252,0.252l-0.835,0.833c-0.168,0.168-0.417-0.083-0.251-0.25L50.403,22.186z M50.403,20.932  c0.169-0.168,0.421,0.084,0.252,0.252l-0.835,0.834c-0.168,0.167-0.417-0.083-0.251-0.253L50.403,20.932z M50.403,19.679  c0.169-0.167,0.421,0.085,0.252,0.253l-0.835,0.833c-0.168,0.167-0.417-0.083-0.251-0.251L50.403,19.679z M50.403,18.427  c0.169-0.166,0.421,0.085,0.252,0.253l-0.835,0.833c-0.168,0.167-0.417-0.083-0.251-0.251L50.403,18.427z M50.403,17.175  c0.169-0.168,0.421,0.085,0.252,0.252l-0.835,0.833c-0.168,0.168-0.417-0.083-0.251-0.25L50.403,17.175z M50.403,15.922  c0.169-0.166,0.421,0.086,0.252,0.254L49.82,17.01c-0.168,0.166-0.417-0.081-0.251-0.251L50.403,15.922z M50.403,14.67  c0.169-0.167,0.421,0.084,0.252,0.252l-0.835,0.834c-0.168,0.166-0.417-0.085-0.251-0.251L50.403,14.67z M50.403,13.418  c0.169-0.168,0.421,0.084,0.252,0.252l-0.835,0.835c-0.168,0.166-0.417-0.085-0.251-0.252L50.403,13.418z M50.403,12.167  c0.169-0.167,0.421,0.085,0.252,0.252l-0.835,0.834c-0.168,0.167-0.417-0.084-0.251-0.25L50.403,12.167z M50.403,10.916  c0.169-0.168,0.421,0.083,0.252,0.252l-0.835,0.834c-0.168,0.166-0.417-0.083-0.251-0.251L50.403,10.916z M50.403,9.662  c0.169-0.166,0.421,0.086,0.252,0.252l-0.835,0.834c-0.168,0.168-0.417-0.083-0.251-0.251L50.403,9.662z M50.403,8.411  c0.169-0.168,0.421,0.084,0.252,0.253L49.82,9.497c-0.168,0.167-0.417-0.083-0.251-0.25L50.403,8.411z M50.403,7.159  c0.169-0.166,0.421,0.084,0.252,0.251L49.82,8.245c-0.168,0.168-0.417-0.083-0.251-0.251L50.403,7.159z M50.403,5.905  c0.169-0.167,0.421,0.085,0.252,0.251L49.82,6.993c-0.168,0.166-0.417-0.085-0.251-0.252L50.403,5.905z M42.613,23.437  c0.167-0.167,0.419,0.084,0.251,0.251l-0.835,0.835c-0.165,0.167-0.419-0.084-0.249-0.25L42.613,23.437z M42.613,22.186  c0.167-0.167,0.419,0.083,0.251,0.252l-0.835,0.833c-0.165,0.168-0.419-0.083-0.249-0.25L42.613,22.186z M42.613,20.932  c0.167-0.168,0.419,0.084,0.251,0.252l-0.835,0.834c-0.165,0.167-0.419-0.083-0.249-0.253L42.613,20.932z M42.613,19.679  c0.167-0.167,0.419,0.085,0.251,0.253l-0.835,0.833c-0.165,0.167-0.419-0.083-0.249-0.251L42.613,19.679z M42.613,18.427  c0.167-0.166,0.419,0.085,0.251,0.253l-0.835,0.833c-0.165,0.167-0.419-0.083-0.249-0.251L42.613,18.427z M42.613,17.175  c0.167-0.168,0.419,0.085,0.251,0.252l-0.835,0.833c-0.165,0.168-0.419-0.083-0.249-0.25L42.613,17.175z M42.613,15.922  c0.167-0.166,0.419,0.086,0.251,0.254L42.03,17.01c-0.165,0.166-0.419-0.081-0.249-0.251L42.613,15.922z M42.613,14.67  c0.167-0.167,0.419,0.084,0.251,0.252l-0.835,0.834c-0.165,0.166-0.419-0.085-0.249-0.251L42.613,14.67z M42.613,13.418  c0.167-0.168,0.419,0.084,0.251,0.252l-0.835,0.835c-0.165,0.166-0.419-0.085-0.249-0.252L42.613,13.418z M42.613,12.167  c0.167-0.167,0.419,0.085,0.251,0.252l-0.835,0.834c-0.165,0.167-0.419-0.084-0.249-0.25L42.613,12.167z M42.613,10.916  c0.167-0.168,0.419,0.083,0.251,0.252l-0.835,0.834c-0.165,0.166-0.419-0.083-0.249-0.251L42.613,10.916z M42.613,9.662  c0.167-0.166,0.419,0.086,0.251,0.252l-0.835,0.834c-0.165,0.168-0.419-0.083-0.249-0.251L42.613,9.662z M42.613,8.411  c0.167-0.168,0.419,0.084,0.251,0.253L42.03,9.497c-0.165,0.167-0.419-0.083-0.249-0.25L42.613,8.411z M42.613,7.159  c0.167-0.166,0.419,0.084,0.251,0.251L42.03,8.245c-0.165,0.168-0.419-0.083-0.249-0.251L42.613,7.159z M42.613,5.905  c0.167-0.167,0.419,0.085,0.251,0.251L42.03,6.993c-0.165,0.166-0.419-0.085-0.249-0.252L42.613,5.905z M34.821,25.941  c0.166-0.167,0.418,0.085,0.254,0.253l-0.837,0.834c-0.168,0.166-0.417-0.084-0.249-0.251L34.821,25.941z M34.821,24.688  c0.166-0.167,0.418,0.084,0.254,0.253l-0.837,0.833c-0.168,0.167-0.417-0.085-0.249-0.251L34.821,24.688z M34.821,23.437  c0.166-0.167,0.418,0.084,0.254,0.251l-0.837,0.835c-0.168,0.167-0.417-0.084-0.249-0.25L34.821,23.437z M34.821,22.186  c0.166-0.167,0.418,0.083,0.254,0.252l-0.837,0.833c-0.168,0.168-0.417-0.083-0.249-0.25L34.821,22.186z M34.821,20.932  c0.166-0.168,0.418,0.084,0.254,0.252l-0.837,0.834c-0.168,0.167-0.417-0.083-0.249-0.253L34.821,20.932z M34.821,19.679  c0.166-0.167,0.418,0.085,0.254,0.253l-0.837,0.833c-0.168,0.167-0.417-0.083-0.249-0.251L34.821,19.679z M34.821,18.427  c0.166-0.166,0.418,0.085,0.254,0.253l-0.837,0.833c-0.168,0.167-0.417-0.083-0.249-0.251L34.821,18.427z M34.821,17.175  c0.166-0.168,0.418,0.085,0.254,0.252l-0.837,0.833c-0.168,0.168-0.417-0.083-0.249-0.25L34.821,17.175z M34.821,15.922  c0.166-0.166,0.418,0.086,0.254,0.254l-0.837,0.833c-0.168,0.166-0.417-0.081-0.249-0.251L34.821,15.922z M34.821,14.67  c0.166-0.167,0.418,0.084,0.254,0.252l-0.837,0.834c-0.168,0.166-0.417-0.085-0.249-0.251L34.821,14.67z M34.821,13.418  c0.166-0.168,0.418,0.084,0.254,0.252l-0.837,0.835c-0.168,0.166-0.417-0.085-0.249-0.252L34.821,13.418z M34.821,12.167  c0.166-0.167,0.418,0.085,0.254,0.252l-0.837,0.834c-0.168,0.167-0.417-0.084-0.249-0.25L34.821,12.167z M34.821,10.916  c0.166-0.168,0.418,0.083,0.254,0.252l-0.837,0.834c-0.168,0.166-0.417-0.083-0.249-0.251L34.821,10.916z M34.821,9.662  c0.166-0.166,0.418,0.086,0.254,0.252l-0.837,0.834c-0.168,0.168-0.417-0.083-0.249-0.251L34.821,9.662z M34.821,8.411  c0.166-0.168,0.418,0.084,0.254,0.253l-0.837,0.833c-0.168,0.167-0.417-0.083-0.249-0.25L34.821,8.411z M27.03,29.698  c0.167-0.166,0.422,0.085,0.253,0.252l-0.839,0.834c-0.165,0.168-0.416-0.083-0.249-0.251L27.03,29.698z M27.03,28.445  c0.167-0.167,0.422,0.084,0.253,0.252l-0.839,0.835c-0.165,0.166-0.416-0.085-0.249-0.251L27.03,28.445z M27.03,27.193  c0.167-0.167,0.422,0.084,0.253,0.252l-0.839,0.833c-0.165,0.167-0.416-0.083-0.249-0.25L27.03,27.193z M27.03,25.941  c0.167-0.167,0.422,0.085,0.253,0.253l-0.839,0.834c-0.165,0.166-0.416-0.084-0.249-0.251L27.03,25.941z M27.03,24.688  c0.167-0.167,0.422,0.084,0.253,0.253l-0.839,0.833c-0.165,0.167-0.416-0.085-0.249-0.251L27.03,24.688z M27.03,23.437  c0.167-0.167,0.422,0.084,0.253,0.251l-0.839,0.835c-0.165,0.167-0.416-0.084-0.249-0.25L27.03,23.437z M27.03,22.186  c0.167-0.167,0.422,0.083,0.253,0.252l-0.839,0.833c-0.165,0.168-0.416-0.083-0.249-0.25L27.03,22.186z M27.03,20.932  c0.167-0.168,0.422,0.084,0.253,0.252l-0.839,0.834c-0.165,0.167-0.416-0.083-0.249-0.253L27.03,20.932z M27.03,19.679  c0.167-0.167,0.422,0.085,0.253,0.253l-0.839,0.833c-0.165,0.167-0.416-0.083-0.249-0.251L27.03,19.679z M27.03,18.427  c0.167-0.166,0.422,0.085,0.253,0.253l-0.839,0.833c-0.165,0.167-0.416-0.083-0.249-0.251L27.03,18.427z M27.03,17.175  c0.167-0.168,0.422,0.085,0.253,0.252l-0.839,0.833c-0.165,0.168-0.416-0.083-0.249-0.25L27.03,17.175z M27.03,15.922  c0.167-0.166,0.422,0.086,0.253,0.254l-0.839,0.833c-0.165,0.166-0.416-0.081-0.249-0.251L27.03,15.922z M19.237,29.698  c0.167-0.166,0.42,0.085,0.253,0.252l-0.833,0.834c-0.168,0.168-0.419-0.083-0.254-0.251L19.237,29.698z M19.237,28.445  c0.167-0.167,0.42,0.084,0.253,0.252l-0.833,0.835c-0.168,0.166-0.419-0.085-0.254-0.251L19.237,28.445z M19.237,27.193  c0.167-0.167,0.42,0.084,0.253,0.252l-0.833,0.833c-0.168,0.167-0.419-0.083-0.254-0.25L19.237,27.193z M19.237,25.941  c0.167-0.167,0.42,0.085,0.253,0.253l-0.833,0.834c-0.168,0.166-0.419-0.084-0.254-0.251L19.237,25.941z M27.03,33.454  c0.167-0.167,0.422,0.085,0.253,0.253l-0.839,0.833c-0.165,0.167-0.416-0.084-0.249-0.251L27.03,33.454z M19.237,42.221  c0.167-0.168,0.42,0.083,0.253,0.251l-0.833,0.833c-0.168,0.168-0.419-0.083-0.254-0.25L19.237,42.221z M19.237,39.715  c0.167-0.166,0.42,0.085,0.253,0.253l-0.833,0.833c-0.168,0.168-0.419-0.084-0.254-0.25L19.237,39.715z M19.237,38.463  c0.167-0.166,0.42,0.083,0.253,0.252l-0.833,0.834c-0.168,0.166-0.419-0.084-0.254-0.251L19.237,38.463z M19.237,37.211  c0.167-0.166,0.42,0.086,0.253,0.252l-0.833,0.835c-0.168,0.167-0.419-0.084-0.254-0.251L19.237,37.211z M19.237,35.958  c0.167-0.167,0.42,0.084,0.253,0.254l-0.833,0.833c-0.168,0.166-0.419-0.083-0.254-0.251L19.237,35.958z M19.237,34.707  c0.167-0.167,0.42,0.086,0.253,0.252l-0.833,0.834c-0.168,0.167-0.419-0.083-0.254-0.251L19.237,34.707z M61.128,56.318  c-1.553,0.369-2.812,1.256-3.533,2.369c-0.658,1.029-2.201,0.039-1.543-0.99c1.329-2.068,3.865-3.4,6.699-3.4  c2.837,0,5.349,1.338,6.679,3.4c0.658,1.029-0.885,2.018-1.548,0.99c-0.736-1.143-2.031-2.045-3.637-2.398  c0.537,0.443,0.878,1.115,0.878,1.865c0,1.338-1.081,2.422-2.42,2.422c-1.334,0-2.418-1.084-2.418-2.422  C60.285,57.42,60.61,56.762,61.128,56.318z M62.811,48.034c4.609-0.094,8.481,2.09,8.542,3.417c0.103,2.209-0.213,1.537-2.007,0.859  c-2.518-0.951-4.682-1.23-6.515-1.131c-1.758,0.023-3.808,0.4-6.161,1.385c-1.794,0.748-2.107,1.436-2.005-0.78  C54.725,50.492,58.415,48.123,62.811,48.034z M40.203,56.318c0.517,0.443,0.846,1.102,0.846,1.836c0,1.338-1.084,2.422-2.42,2.422  c-1.334,0-2.419-1.084-2.419-2.422c0-0.75,0.341-1.422,0.877-1.865c-1.601,0.352-2.902,1.252-3.638,2.398  c-0.661,1.029-2.205,0.039-1.542-0.99c1.327-2.066,3.837-3.4,6.677-3.4c2.834,0,5.373,1.334,6.698,3.4  c0.657,1.029-0.884,2.018-1.541,0.99C43.019,57.574,41.758,56.688,40.203,56.318z M38.521,48.034  c4.393,0.088,8.088,2.457,8.148,3.75c0.103,2.214-0.216,1.528-2.01,0.78c-2.356-0.984-4.402-1.363-6.16-1.385  c-1.833-0.1-3.996,0.18-6.51,1.131c-1.793,0.678-2.11,1.35-2.009-0.859C30.041,50.124,33.905,47.941,38.521,48.034z M49.211,56.746  c0.517-0.041,1.036-0.062,1.57-0.062c0.523,0,1.047,0.021,1.569,0.062c1.088,0.088,0.956,1.723-0.133,1.635  c-0.477-0.039-0.954-0.059-1.437-0.059c-0.485,0-0.965,0.02-1.436,0.059C48.252,58.471,48.124,56.834,49.211,56.746z M44.836,71.041  c0,0,0.1-0.113,0.289-0.252c0.969-0.711,2.146-0.57,3.106,0.148c0.43,0.322,0.888,0.545,2.359,0.545  c1.477,0,1.965-0.225,2.392-0.545c0.996-0.748,2.524-0.887,3.392,0.104c0.741,0.805-0.468,1.914-1.206,1.105  c-0.427-0.311-0.845-0.162-1.203,0.105l-0.113,0.082c-0.039,0.043-0.082,0.082-0.133,0.121c-0.964,0.734-1.729,1.494-3.089,1.494  c-1.35,0-2.127-0.76-3.098-1.494c-0.111-0.084-0.2-0.141-0.284-0.203c-0.423-0.318-0.789-0.406-1.199-0.105  C45.305,72.955,44.094,71.846,44.836,71.041z M55.049,65.416c0.439,0.523,0.929,0.869,1.377,1.047  c1.021,0.4,0.421,1.924-0.601,1.523c-0.738-0.291-1.444-0.811-2.032-1.514C53.092,65.637,54.346,64.582,55.049,65.416z   M46.721,66.473c-0.59,0.703-1.293,1.223-2.034,1.514c-1.014,0.4-1.617-1.123-0.602-1.523c0.45-0.178,0.938-0.523,1.379-1.047  C46.167,64.582,47.424,65.637,46.721,66.473z M19.201,59.219c2.271-0.562,4.491,1.963,5.631,4.846  c0.095,0.221,1.076,2.508-0.465,2.629c-0.704,0.055-1.504-0.754-1.785-1.74c-0.184-0.631-0.104-1.191,0.16-1.52  c-1.059-1.945-2.416-2.803-3.151-2.623C18.53,61.07,18.137,59.479,19.201,59.219z M81.836,59.221  c1.062,0.266,0.672,1.855-0.391,1.592c-0.736-0.178-2.094,0.684-3.151,2.627c0.264,0.326,0.346,0.891,0.159,1.521  c-0.279,0.98-1.085,1.791-1.783,1.742c-1.541-0.123-0.56-2.414-0.469-2.633C77.341,61.186,79.562,58.662,81.836,59.221z   M62.62,75.242c-0.825,0.232-1.174-1.012-0.345-1.24c1.774-0.498,3.554,1.283,3.738,2.943c0.095,0.857-1.193,1-1.283,0.143  C64.634,76.203,63.585,74.975,62.62,75.242z M38.466,75.242c-0.96-0.268-2.006,0.961-2.104,1.846  c-0.095,0.857-1.377,0.715-1.284-0.143c0.183-1.66,1.961-3.441,3.739-2.943C39.645,74.23,39.297,75.475,38.466,75.242z   M57.996,79.617c-0.907,0.094-1.911,0.146-3.095,0.186c-0.138,0.006-1.841,0.076-4.284,0.09c-2.554-0.014-4.3-0.09-4.3-0.09  c-1.185-0.039-2.194-0.092-3.1-0.186c0.521,0.57,0.987,1.102,1.472,1.57c0.672,0.719,2.4,1.389,5.907,1.389  c3.687,0,5.23-0.811,6.044-1.504C57.087,80.637,57.516,80.146,57.996,79.617z M62.605,78.496c-0.628,0.254-1.223,0.455-1.815,0.619  c-0.025,0.027-0.051,0.055-0.079,0.082c-3.569,3.299-4.115,5.787-10.104,5.789c-5.992-0.002-6.522-2.49-10.093-5.789  c-0.033-0.027-0.058-0.055-0.083-0.086c-0.587-0.162-1.179-0.361-1.803-0.615c-1.012-0.408-0.4-1.93,0.613-1.521  c2.167,0.873,3.835,1.078,7.145,1.184c0,0,1.716,0.08,4.225,0.096c2.515-0.016,4.233-0.096,4.233-0.096  c3.31-0.102,4.978-0.311,7.147-1.184C63.006,76.566,63.622,78.088,62.605,78.496z"></path></svg>