<?xml version="1.0" encoding="utf-8"?>
<!-- Generator: Adobe Illustrator 24.2.1, SVG Export Plug-In . SVG Version: 6.00 Build 0)  -->
<svg version="1.1" id="Layer_1" xmlns="http://www.w3.org/2000/svg" xmlns:xlink="http://www.w3.org/1999/xlink" x="0px" y="0px"
	 viewBox="0 0 100 100" enable-background="new 0 0 100 100" xml:space="preserve">
<g>
	<path d="M75.882,75.287c-0.758-0.963-3.685-0.79-5.203-0.698c-0.127,0.008-0.243,0.015-0.41,0.023v0.002l-14.052,1.148
		c0.853,0.577,1.692,1.077,2.517,1.52l17.148-1.993V75.287z M60.643,54.095l-0.035-0.02l-0.088-0.052l-0.087-0.052l-0.087-0.053
		l-0.087-0.053l-0.085-0.055l-0.085-0.055l-0.083-0.057l-0.083-0.057l-0.083-0.058l-0.082-0.058l-0.082-0.06l-0.082-0.06l-0.8,1.067
		l0.092,0.068l0.093,0.067l0.093,0.067l0.093,0.065l0.095,0.065l0.095,0.063l0.095,0.063l0.097,0.062l0.097,0.06l0.097,0.06
		l0.098,0.058l0.098,0.058l0.035,0.02l0.67-1.152V54.095z M81.018,45.935L81.01,46l-0.013,0.105l-0.015,0.105l-0.017,0.103
		l-0.017,0.103L80.93,46.52l-0.02,0.103l-0.02,0.102l-0.022,0.102l-0.023,0.102l-0.023,0.1l-0.025,0.1l-0.007,0.028l1.288,0.345
		l0.012-0.042l0.028-0.115l0.027-0.115l0.027-0.115l0.025-0.117l0.023-0.117l0.022-0.117l0.022-0.118l0.02-0.118l0.018-0.118
		l0.017-0.12l0.017-0.12l0.008-0.065l-1.323-0.17H81.018z M79.158,50.495l-0.035,0.047l-0.062,0.08L79,50.7l-0.063,0.078
		l-0.063,0.078l-0.065,0.077l-0.065,0.077l-0.067,0.077l-0.067,0.075l-0.068,0.075l-0.068,0.075l-0.07,0.075l-0.062,0.065
		l0.962,0.923l0.07-0.073l0.078-0.083l0.077-0.083l0.077-0.085l0.075-0.085l0.075-0.085l0.073-0.087l0.073-0.087l0.072-0.088
		l0.072-0.088l0.07-0.09l0.07-0.09l0.035-0.047l-1.06-0.81L79.158,50.495z M75.332,53.745l-0.06,0.033l-0.093,0.052l-0.095,0.05
		l-0.095,0.05l-0.095,0.05l-0.095,0.048l-0.097,0.048l-0.097,0.047l-0.097,0.047l-0.097,0.047l-0.098,0.045l-0.122,0.055
		l0.542,1.218l0.033-0.015l0.107-0.048l0.107-0.05l0.107-0.05l0.105-0.052l0.105-0.052l0.105-0.052l0.105-0.053l0.103-0.053
		l0.103-0.055L75.817,55l0.102-0.057l0.06-0.033l-0.643-1.168L75.332,53.745z M70.532,55.467l-0.07,0.013l-0.108,0.02l-0.108,0.02
		l-0.108,0.018l-0.108,0.018l-0.108,0.017l-0.108,0.017l-0.11,0.015l-0.11,0.015l-0.11,0.015l-0.11,0.013l-0.11,0.013h0.003
		l0.142,1.325l0.123-0.015l0.118-0.015l0.118-0.015l0.118-0.017l0.118-0.017l0.118-0.018l0.118-0.018l0.117-0.02l0.117-0.02
		l0.117-0.02l0.117-0.022l0.07-0.013L70.532,55.467z M65.433,55.647l-0.092-0.012l-0.107-0.015l-0.107-0.015l-0.107-0.017
		l-0.107-0.017l-0.105-0.018l-0.105-0.018L64.6,55.517l-0.105-0.02l-0.105-0.02l-0.105-0.022l-0.108-0.023l-0.292,1.302l0.128,0.027
		l0.113,0.023l0.115,0.022l0.115,0.022l0.115,0.02l0.115,0.02l0.115,0.018l0.115,0.018l0.115,0.017l0.117,0.017l0.117,0.015
		l0.092,0.012l0.175-1.322L65.433,55.647z M67.167,26.818c1.13,0,2.152,0.458,2.892,1.198c0.74,0.74,1.198,1.763,1.198,2.892
		c0,1.13-0.458,2.152-1.198,2.892c-0.74,0.74-1.763,1.198-2.892,1.198c-1.13,0-2.152-0.458-2.892-1.198
		c-0.74-0.74-1.198-1.763-1.198-2.892c0-1.13,0.458-2.152,1.198-2.892C65.015,27.277,66.038,26.818,67.167,26.818z M69.117,28.96
		c-0.498-0.498-1.188-0.808-1.95-0.808c-0.762,0-1.45,0.308-1.95,0.808c-0.498,0.498-0.808,1.188-0.808,1.95
		c0,0.762,0.308,1.45,0.808,1.95c0.498,0.498,1.188,0.808,1.95,0.808c0.762,0,1.45-0.308,1.95-0.808
		c0.498-0.498,0.808-1.188,0.808-1.95C69.925,30.148,69.617,29.46,69.117,28.96z M62.155,37.785c1.732,0,3.302,0.702,4.437,1.838
		c1.135,1.135,1.838,2.703,1.838,4.437c0,1.732-0.702,3.302-1.838,4.437c-1.135,1.135-2.703,1.838-4.437,1.838
		c-1.732,0-3.302-0.702-4.437-1.838c-1.135-1.135-1.838-2.703-1.838-4.437c0-1.732,0.702-3.302,1.838-4.437
		C58.853,38.488,60.422,37.785,62.155,37.785z M65.648,40.565c-0.893-0.893-2.13-1.447-3.493-1.447c-1.365,0-2.6,0.553-3.493,1.447
		s-1.447,2.13-1.447,3.493c0,1.365,0.553,2.6,1.447,3.493s2.13,1.447,3.493,1.447c1.365,0,2.6-0.553,3.493-1.447
		s1.447-2.13,1.447-3.493C67.095,42.693,66.542,41.458,65.648,40.565z M82.363,37.507c-1.032-2.415-2.73-5.028-4.575-7.862
		c-4.015-6.172-8.698-13.37-8.977-22.195l-0.003-0.055c-0.017-0.272-0.088-0.7-0.275-1.05c-0.132-0.247-0.328-0.447-0.615-0.437
		c-0.013,0,0.007,0-0.022,0.002c-0.035,0.002-0.07,0.002-0.103-0.002c-0.283-0.007-0.48,0.19-0.612,0.437
		c-0.187,0.352-0.26,0.778-0.275,1.05L66.903,7.45c-0.278,8.825-4.962,16.023-8.977,22.195c-1.843,2.835-3.543,5.447-4.575,7.862
		c-3.555,8.327-2.177,14.425,1.49,18.288c3.213,3.385,8.18,5.095,13.145,5.112c4.965,0.017,9.908-1.658,13.072-5.042
		c3.593-3.843,4.893-9.947,1.303-18.358H82.363z M78.903,28.92c1.878,2.887,3.61,5.548,4.683,8.065
		c3.835,8.983,2.377,15.577-1.558,19.785c-3.428,3.667-8.733,5.48-14.04,5.463c-5.307-0.018-10.637-1.865-14.108-5.523
		c-4.012-4.227-5.552-10.82-1.75-19.725c1.075-2.517,2.807-5.178,4.683-8.065c3.922-6.028,8.497-13.06,8.762-21.513
		c0.002-0.045,0.003-0.075,0.003-0.087c0.023-0.408,0.137-1.057,0.427-1.603c0.345-0.65,0.915-1.168,1.833-1.14h0.02h0.02
		c0.918-0.028,1.488,0.49,1.833,1.14c0.29,0.547,0.402,1.195,0.427,1.603c0,0.012,0.002,0.042,0.003,0.087
		C70.408,15.86,74.983,22.892,78.903,28.92z M70.598,73.258c1.975-0.117,5.898-0.35,6.668,1.82c0.093-0.028,0.198-0.063,0.33-0.108
		c0.935-0.325,1.915-0.578,2.902-0.762c1.018-0.188,2.045-0.302,3.037-0.34l0,0c0.027-0.002,0.055,0,0.083,0.002
		c3.653,0.335,4.322,1.393,4.685,2.515c0.018-0.005,0.037-0.008,0.057-0.012c0.898-0.14,1.667-0.137,2.318-0.028
		c1.023,0.172,1.773,0.603,2.302,1.173c0.53,0.573,0.822,1.273,0.932,1.983c0.075,0.483,0.067,0.97-0.008,1.422
		c-0.025,0.175-0.12,0.338-0.275,0.447c-1.373,0.968-3.21,1.565-4.952,2.13c-0.863,0.282-1.705,0.553-2.412,0.847
		C81.88,88.015,75.663,92.873,72.43,92.7c-0.217-0.012-0.337-0.022-0.44-0.028c-0.393-0.03-0.563-0.043-1.21,0.115
		c-2.095,0.515-4.63,0.767-6.867,0.988c-1.543,0.153-2.942,0.292-3.912,0.49c-0.343,0.07-0.703,0.18-1.067,0.29
		c-0.268,0.082-0.537,0.163-0.793,0.23c-0.017,0.005-0.238,0.065-0.493,0.133c-2.298,0.623-4.638,1.258-8.198-2.068l-0.002,0.002
		c-0.152-0.142-0.345-0.3-0.548-0.453c-0.21-0.158-0.433-0.312-0.633-0.433l-12.21-7.513c-1.612-0.798-3.238-1.165-4.875-1.182
		c-1.667-0.017-3.357,0.323-5.063,0.94v0.002c-2.68,0.968-5.302,3.073-8.035,5.267c-2.302,1.847-4.678,3.755-7.285,5.157
		c-0.323,0.173-0.727,0.053-0.902-0.272c-0.173-0.323-0.053-0.727,0.272-0.902c2.503-1.345,4.83-3.213,7.082-5.022
		c2.822-2.263,5.528-4.437,8.415-5.48v0.002l0.002-0.002c1.85-0.668,3.692-1.038,5.523-1.02c1.845,0.018,3.67,0.43,5.468,1.322
		c0.023,0.012,0.048,0.023,0.07,0.038l12.235,7.528c0.225,0.138,0.485,0.317,0.737,0.507c0.235,0.177,0.463,0.365,0.653,0.542
		l-0.002,0.002l0.002,0.002c3.015,2.818,4.997,2.282,6.943,1.752c0.08-0.022,0.158-0.043,0.51-0.133
		c0.252-0.065,0.497-0.14,0.742-0.215c0.397-0.12,0.792-0.242,1.187-0.322c1.04-0.212,2.47-0.353,4.047-0.51
		c2.19-0.217,4.672-0.463,6.68-0.957c0.313-0.077,0.543-0.123,0.735-0.15c-1.475-0.483-3.162-0.895-4.835-1.305
		c-3.367-0.823-6.673-1.632-8.268-3.003c-3.608-1.993-5.843-1.793-8.243-1.578c-0.383,0.035-0.77,0.068-0.972,0.085
		c-0.367,0.027-0.687-0.248-0.713-0.615c-0.027-0.367,0.248-0.687,0.615-0.713c0.452-0.033,0.705-0.057,0.957-0.078
		c2.625-0.235,5.067-0.455,9.068,1.775c0.043,0.025,0.083,0.053,0.118,0.085l0.002-0.002c1.33,1.183,4.512,1.962,7.75,2.753
		c1.742,0.427,3.5,0.855,5.027,1.362c0.803-0.208,1.34-0.765,1.655-1.437c0.183-0.392,0.293-0.823,0.342-1.257
		c0.048-0.435,0.03-0.863-0.045-1.247c-0.105-0.542-0.307-0.962-0.572-1.1c-0.042-0.018-0.083-0.042-0.122-0.068
		c-2.202-1.57-4.53-2.465-6.983-3.332c-0.028-0.008-0.055-0.017-0.082-0.028c-0.24-0.085-0.483-0.17-0.727-0.255
		c-2.183-0.765-4.463-1.563-6.862-2.828c-0.008-0.003-0.017-0.008-0.025-0.013c-1.385-0.732-2.812-1.62-4.282-2.747
		c-0.028-0.018-0.055-0.038-0.08-0.062c-0.258-0.2-0.518-0.407-0.78-0.622c-0.012-0.008-0.023-0.018-0.035-0.028
		c-0.645-0.55-1.33-1.187-2.07-1.875c-5.09-4.73-12.913-12-24.9-6.603v-0.002L6.975,75.41c-0.333,0.152-0.728,0.005-0.88-0.328
		c-0.152-0.333-0.005-0.728,0.328-0.88l19.167-8.807v-0.002c12.792-5.758,21.007,1.875,26.353,6.843
		c0.735,0.683,1.413,1.313,2.028,1.838l0.012,0.01c0.195,0.16,0.39,0.317,0.583,0.468l15.597-1.273v0.002l0.02-0.002
		c0.073-0.003,0.237-0.013,0.417-0.023L70.598,73.258z M86.853,76.42c-0.347-0.545-1.115-1.017-3.313-1.223
		c-0.913,0.037-1.862,0.143-2.803,0.318c-0.92,0.17-1.833,0.407-2.703,0.71c-0.273,0.095-0.457,0.153-0.648,0.198
		c-0.198,0.047-0.388,0.073-0.673,0.107l-15.753,1.83c1.598,0.703,3.145,1.247,4.647,1.772c0.213,0.075,0.425,0.148,0.635,0.223
		c4.28-0.342,8.61-1.142,12.968-1.947c1.432-0.265,2.865-0.53,4.078-0.742c0.618-0.332,1.26-0.622,1.893-0.842
		c0.568-0.197,1.135-0.338,1.675-0.405H86.853z M83.87,78.858c-0.033,0.023-0.07,0.042-0.107,0.058
		c-1.092,0.603-2.093,1.348-2.777,2.032c-0.37,0.37-0.583,0.437-1.03,0.578l-0.02,0.007c-1.075,0.34-2.07,0.748-3.063,1.295
		c-0.818,0.45-1.638,0.992-2.505,1.665c0.282,0.382,0.483,0.877,0.59,1.43c0.098,0.507,0.122,1.07,0.06,1.638
		s-0.212,1.147-0.462,1.678c-0.45,0.963-1.215,1.768-2.358,2.117c0.105,0.008,0.212,0.015,0.298,0.02
		c2.787,0.148,8.737-4.54,12.967-8.083c0.018-0.018,0.038-0.035,0.06-0.05c0.72-0.603,1.39-1.173,1.983-1.68
		c0.85-0.723,1.55-1.32,2.035-1.707c-0.04-0.56-0.162-0.995-0.347-1.32c-0.28-0.492-0.742-0.737-1.302-0.805
		c-0.663-0.082-1.458,0.065-2.283,0.35c-0.582,0.202-1.172,0.47-1.74,0.778V78.858z M80.583,79.507
		c-0.383,0.07-0.76,0.14-1.137,0.21C75.965,80.36,72.498,81,69.062,81.412c1.452,0.595,2.865,1.287,4.252,2.222
		c1.018-0.81,1.972-1.45,2.92-1.972c1.08-0.593,2.152-1.035,3.303-1.398l0.02-0.007c0.235-0.075,0.348-0.11,0.488-0.25
		c0.165-0.165,0.345-0.332,0.54-0.5H80.583z M89.07,81.973c1.287-0.427,2.565-0.897,3.553-1.53c0.02-0.243,0.013-0.492-0.025-0.737
		c-0.073-0.468-0.258-0.925-0.593-1.287c-0.337-0.363-0.838-0.643-1.547-0.762c-0.087-0.015-0.177-0.027-0.27-0.037
		c0.057,0.082,0.112,0.167,0.163,0.257c0.327,0.572,0.518,1.322,0.533,2.282c0.003,0.223-0.105,0.423-0.273,0.545
		c-0.348,0.262-0.877,0.703-1.54,1.267L89.07,81.973z"/>
</g>
</svg>
