<svg height='100px' width='100px'  fill="#000000" xmlns="http://www.w3.org/2000/svg" data-name="Layer 1" viewBox="0 0 100 100" x="0px" y="0px"><title>Artboard 5</title><g><path d="M15.19,35.4h0a.5.5,0,0,0-.33-.93,6,6,0,0,0-1.45.78.49.49,0,0,0-.15.71.47.47,0,0,0,.72.33c.19-.12.76,0,1,.09C15.55,36.52,15.82,35.56,15.19,35.4Z"></path><path d="M90.69,64c-.26-2.47-1.3-6.47-3.67-7.86.32-4-.23-8.76-3.41-11.57-2.12-1.87-4.12-2.32-6.77-3-2.26-.62-4.39-1.47-6.72-1.87a79.17,79.17,0,0,0-15.59-1c-2.63.07-5.23-.28-7.85-.44A86.69,86.69,0,0,1,38,37.64a.52.52,0,0,0-.24,0,5.08,5.08,0,0,0-.88-.79,1,1,0,0,0-.67-.17c-.18,0-.55.26-.66.21s-.36-1-.64-1.25a1.09,1.09,0,0,0-.55-.27c-.18,0-.54.12-.71.06a16.06,16.06,0,0,0-3.07-3.33,19.17,19.17,0,0,0-4.36-3.06.5.5,0,0,0-.19-.06,1.86,1.86,0,0,0,0-.29,3.53,3.53,0,0,0-2.15-1.94l-.29-.15a6.3,6.3,0,0,0-1.65-.37,8.4,8.4,0,0,0-3.59.63,17.6,17.6,0,0,0-3.72,2.54,12,12,0,0,0-2.51,2.91,5.26,5.26,0,0,0-.56,2.45,10.41,10.41,0,0,1-.17,1.56A4.78,4.78,0,0,1,9.3,38.47l-.5.34c-.41.29-4,2.86-3.79,3.26a.43.43,0,0,0,.1.17A6,6,0,0,0,6.7,43.89a8.89,8.89,0,0,1,.8.76,5.63,5.63,0,0,0,1.4,1.16,7.41,7.41,0,0,0,3,.82,10.07,10.07,0,0,0,3.36-.36,17.25,17.25,0,0,0,3.46-1.47s0,.06,0,0c4-1.15,3.8,7.93,4.78,10.28,0,.08.08.17.12.25a.55.55,0,0,0-.1.15c-.86.67-2.48.88-3.45,1.25-1.49.57-3.08.91-4.63,1.35-.09,0-2.08.2-2.51,1.33a4,4,0,0,0,.23,3.19c.6,1.17,1.5.75,2.54.54a2.17,2.17,0,0,0,1.1-.48c.29-.26,1.19-.87,1.26-1.21,0,0,0-.06,0-.09a14.33,14.33,0,0,1,1.61-.15c1-.16,2-.34,3-.41a4.67,4.67,0,0,0,3.7-1.65A17.61,17.61,0,0,0,28,60.56a2.9,2.9,0,0,0-.31.57,3.19,3.19,0,0,1-.78,1.15c-3.07.89-6.58.31-9.22,2.36-.11.08-.44.07-.65.12-1.53.38-3.2,3.26-1.4,4.29a2.75,2.75,0,0,0,1.47.2,19.73,19.73,0,0,1,2.17,0,1.08,1.08,0,0,0,.88-.26,8.63,8.63,0,0,0,.77-1.58,80.37,80.37,0,0,0,8.82-1.3A5.49,5.49,0,0,1,32.52,66c1.1.32,1.94,1,3.09,1.1a.51.51,0,0,0,.48-.63,4.84,4.84,0,0,1,.26-1.09,6.54,6.54,0,0,1,1.29-1.8c.5-.68.9-1.43,1.37-2.13.2-.29.39-.61.6-.94a5,5,0,0,0,2.63.59,38.51,38.51,0,0,1,5.07.18c1.67.24,3.21.85,4.83,1.14a29.16,29.16,0,0,0,3,0l.06,0c1.49.16,3.13-.15,4.65-.14.87,0,1.72,0,2.57-.07a9.52,9.52,0,0,1-3.49,1.53,2.06,2.06,0,0,0-1.47-1,3.41,3.41,0,0,0-2.1,1,4.18,4.18,0,0,0-.81,1c-.35,1.21-.77,2.78-.34,3.46,0,0,6,0,8.26-.06.53,0,1-.18,1.11-.42,1.59-1.14,3.56-1.43,5.23-2.34A10.34,10.34,0,0,0,70,64.61s1.83-1.7,2.16-2.07a.43.43,0,0,0,.09-.39s0-.06,0-.09c0-.52,0-1,0-1.52a4.66,4.66,0,0,0,.72,0h0l.29,0,.31,0,.09,0a13.31,13.31,0,0,1,2.62.11,27,27,0,0,0,4.81-.93,11.24,11.24,0,0,0,1.95-.87.5.5,0,0,0,.27.25,4.5,4.5,0,0,1,.85.45.39.39,0,0,0,.2.15,7.14,7.14,0,0,1,2.35,6.67A15.18,15.18,0,0,1,84.09,73c-.86,1.38-1.16,2.87-1.9,4.24a.47.47,0,0,0-.05.29.51.51,0,0,0,.62.57,27.93,27.93,0,0,0,2.87-1.45,29,29,0,0,0,2.55-2.53A14.25,14.25,0,0,0,90.69,64ZM23.36,59.76c-.85.16-1.71.15-2.56.31s-3.47.42-3.64.56-.77,1.16-1,1.38-1.72.54-2,.25a3.27,3.27,0,0,1-.32-2.07,1.94,1.94,0,0,1,.26-.71c.28-.35.63-.28,1-.25h.15a2.79,2.79,0,0,0,.55-.14c1.79-.52,3.56-.95,5.3-1.58.59-.21,1.32-.38,2-.63a.45.45,0,0,0,.05.32,6,6,0,0,0,.8,1.27c.26.28.55.52.81.8A4.17,4.17,0,0,1,23.36,59.76ZM85.65,75.27a6.08,6.08,0,0,1-1.79,1.12l-.31.16a10.1,10.1,0,0,1,.65-1.65c.63-1.17,1.45-2.16,2.13-3.3a13.66,13.66,0,0,0,1.18-3.86c.64-3.11.21-6.85-2.43-8.91-.13-.42-.36-.8-.5-1.21s-1-1.89-1.28-1.56-.28.9-.61,1.3a30.72,30.72,0,0,1-3,1.55,8.83,8.83,0,0,1-4.22.46,7.49,7.49,0,0,0-1.12,0c-.38,0-.75.07-1.12.12l-.34,0c-.16,0-.36.06-.54.07a6.32,6.32,0,0,1,.07-.68c.14-.79.89-1.78.7-2.6a.51.51,0,0,0-.9-.21l-.06.07a.39.39,0,0,0,0,.52,5.64,5.64,0,0,1-.45,1.06,7,7,0,0,0-.31,1.34,17.31,17.31,0,0,0,0,2.72.41.41,0,0,0,0,.13.59.59,0,0,0-.07.23,9.66,9.66,0,0,1-3.54,2.71c-1.63.66-3.43,1.1-4.86,2.2a2.67,2.67,0,0,1-.83.12c-2.25-.05-4.49.29-6.73.19l-.12,0a2.51,2.51,0,0,1,.73-2.68,3.09,3.09,0,0,1,1.23-.79c.67-.15,1,.37,1.31.83a.7.7,0,0,0,.89,0,20.7,20.7,0,0,0,4-1.82,11.67,11.67,0,0,1,2.57-1.62A4.15,4.15,0,0,0,67,60.8.5.5,0,0,0,67,60a10.24,10.24,0,0,1-2.23-2.5c-2.12-2.84-2.29-5.08-1.93-5.49A5,5,0,0,1,65.45,51c.84-.2,1.77-.25,2.62-.47.32.07.84-.29.89-.32a.47.47,0,0,0,.13-.76c.23.16.46.31.56.41a4,4,0,0,0,.78.67.51.51,0,0,0,.77-.4c0-.22.05-.44.07-.65a1.82,1.82,0,0,0,.62.89,4.34,4.34,0,0,0,2.18.27.5.5,0,0,0,0-1c-.93,0-1.7.07-2.14-.88a1.66,1.66,0,0,0-.69-.87.51.51,0,0,0-.75.26,3.67,3.67,0,0,0-.24,1c-.58-.6-1.21-1.36-1.91-1.25s-.67,1-.6,1.72c-1.35.42-3,.37-4.29.9a4,4,0,0,0-1.65,1.11,1.52,1.52,0,0,0-.32.57,6,6,0,0,0,1.1,4.46,24.82,24.82,0,0,0,3.11,3.7,6.83,6.83,0,0,0-.92.25,3.87,3.87,0,0,0-1,.66.39.39,0,0,0-.16,0c-1.36.12-2.7.11-4.06.13s-5.73.07-6.29.05A38.27,38.27,0,0,1,49,60.6a33.69,33.69,0,0,0-3.71-.5c-.39,0-.94,0-1.55,0a2.28,2.28,0,0,1-1.36-2.41,5.06,5.06,0,0,1,.41-1.1A.51.51,0,0,0,42.7,56c-.36-.46-1-.42-1.49-.49a5.9,5.9,0,0,0,.9-.63,1,1,0,0,0,.25-1.26c-.25-.39-.79-.46-1.2-.56-.77-.19-1.61-.18-2.4-.31-.63-.11-.9.86-.27,1s1.09.21,1.63.26c.27,0,1.06-.06,1.22.17s-1.31,1-1.47,1.35a.52.52,0,0,0,.18.68c.38.26,1.14.17,1.61.34h0a.36.36,0,0,0-.22.07c-1.33,1-2.18,2.74-3.12,4.09-.66.94-1.21,1.95-1.94,2.83-.29.36-1.21.74-1.21,1.13,0,.54-.18,1.09-.15,1.35-1.12-.3-2.17-1.19-3.34-1.28A6.88,6.88,0,0,0,30,65c-2.89.54-5.84,1-8.77,1.25a2,2,0,0,0-1.6,1.32c-.24.53-.2.57-.77.59s-1,0-1.51.06a2.49,2.49,0,0,1-.91,0A.86.86,0,0,1,16,67c.49-1.5,2.14-1.49,2.4-1.69a5.63,5.63,0,0,1,3-1.34c1.22-.19,5.5-.62,6.13-1.07a5.3,5.3,0,0,0,1-1.26,3.51,3.51,0,0,1,.29-.56.52.52,0,0,0,.34-.94c-.72-.51-2.68-2.45-2.69-2.45a9.6,9.6,0,0,1-2.07-3.52c-.63-2.23-.4-3.83-.53-6.06,0-.75-.95-2.72-.61-3.33s1.4-1.29,2.28-7.44c.06-.4-.13-.77.08-1.2a.42.42,0,0,0,0-.41.5.5,0,0,0-.4-.24.46.46,0,0,0-.46.27,3.44,3.44,0,0,0-.15,1.34c0,.61,0,1.3-.26,1.54a.43.43,0,0,1-.34.1l-.19,0a.48.48,0,0,0-.49.41c0,.19,0,.37,0,.55a2.43,2.43,0,0,1-.64,1.86,5.75,5.75,0,0,1-1.52.87c-.26.12-.51.23-.74.35l-1.18.66a21.79,21.79,0,0,1-3.38,1.66,9.6,9.6,0,0,1-3.81.57,6.64,6.64,0,0,1-2.07-.47A5.32,5.32,0,0,1,8.16,44l-.29-.27a.55.55,0,0,0,0-.08c0-.21.05-.42.08-.63a8.52,8.52,0,0,0,.12-1.21,1.47,1.47,0,0,0-.43-1c.67-.5,1.4-1,2.28-1.61a5,5,0,0,0,2.4-2.72c0-.09,0-.18,0-.21A9.87,9.87,0,0,0,12.46,35a5,5,0,0,1,.47-2.19,11.11,11.11,0,0,1,2.68-3,15,15,0,0,1,3.09-2.05,6.79,6.79,0,0,1,2.62-.52,8.66,8.66,0,0,1,3,1c.85.72.66,1.26.37,2.07-.06.17-.12.34-.18.53a3,3,0,0,0,.09,1.39c.2,1,.28,1.56-.43,1.87a1.84,1.84,0,0,1-.88.16A4.3,4.3,0,0,1,21.14,33a9.19,9.19,0,0,0-.95-.72A5.44,5.44,0,0,0,18.32,32c-.76-.07-1.9-.18-1.94-.46a.46.46,0,0,0-.43-.39.49.49,0,0,0-.4.15.44.44,0,0,0-.1.37c.11.65.43.85,1,1a3.06,3.06,0,0,0,.57.09c.21,0,.43,0,.65,0s.42,0,.63,0l.38,0a3.31,3.31,0,0,1,1.71,1l.23.2a5.48,5.48,0,0,0,2.93,1.16h0a2.32,2.32,0,0,0,2.33-1,1.29,1.29,0,0,0,0-1.45,3.19,3.19,0,0,1-.21-.5,2.68,2.68,0,0,1,.16-1.69c0-.13.09-.27.13-.41a17.55,17.55,0,0,1,3.78,2.62c1,.95,2.63,2.15,3.17,3.46a.51.51,0,0,0,.57.31c.38.06.76-.08,1,.32s.15.78.52,1.06a1,1,0,0,0,1,.1c.49-.12.46-.1.82.25s.52.43.75.68a.48.48,0,0,0,.8-.17c4,.59,8.25.44,12.33.85,2.46.24,4.93,0,7.38.1s5,.05,7.54.33A64,64,0,0,1,79,43c2.62.89,5.22,2.74,6.13,5.42A19.13,19.13,0,0,1,86,56.33s0,0,0,0h0c2.28,2,3.75,7,3.72,9.11C89.68,68.61,89.33,71.22,85.65,75.27Z"></path></g><line x1="63.25" y1="49.84" x2="62.51" y2="50.16"></line></svg>