<svg height='100px' width='100px'  fill="#000000" xmlns="http://www.w3.org/2000/svg" xmlns:xlink="http://www.w3.org/1999/xlink" version="1.1" x="0px" y="0px" viewBox="0 0 64 64" enable-background="new 0 0 64 64" xml:space="preserve"><path d="M32.699,7.768c-12.924,0-23.438,10.514-23.438,23.438c0,0.41,0.01,0.816,0.031,1.219l2.248-0.121  c-0.02-0.363-0.029-0.729-0.029-1.098c0-6.135,2.625-11.668,6.807-15.541c2.203,1.58,4.717,2.766,7.414,3.518  c-0.656,3.359-1.025,7.145-1.086,10.898h-4.088v2.25h4.088c0.127,7.795,1.57,15.727,4.195,19.701  c-0.668-0.123-1.332-0.266-1.984-0.453l-0.619,2.164c2.092,0.598,4.266,0.9,6.461,0.9c12.924,0,23.438-10.514,23.438-23.438  S45.623,7.768,32.699,7.768z M53.857,30.08H40.752c-0.061-3.748-0.428-7.523-1.082-10.881c2.701-0.75,5.217-1.938,7.422-3.523  C51.01,19.311,53.559,24.402,53.857,30.08z M32.699,10.018c1.4,0,3.117,2.688,4.322,7.477c-1.404,0.256-2.85,0.398-4.322,0.398  c-1.469,0-2.912-0.146-4.32-0.404C29.582,12.703,31.299,10.018,32.699,10.018z M36.553,10.375c3.229,0.598,6.203,1.922,8.742,3.807  c-1.838,1.24-3.906,2.18-6.113,2.807C38.512,14.305,37.633,12.006,36.553,10.375z M20.107,14.178  c2.539-1.881,5.512-3.207,8.738-3.803c-1.078,1.631-1.957,3.928-2.627,6.607C24.014,16.355,21.945,15.416,20.107,14.178z   M27.893,19.684c1.566,0.293,3.172,0.459,4.807,0.459c1.639,0,3.246-0.152,4.811-0.443c0.559,2.902,0.934,6.393,0.994,10.381H26.896  C26.955,26.086,27.332,22.59,27.893,19.684z M38.504,32.33c-0.061,3.99-0.436,7.479-0.994,10.383  c-1.564-0.291-3.172-0.445-4.811-0.445c-1.625,0-3.236,0.156-4.809,0.449c-0.561-2.904-0.936-6.395-0.994-10.387H38.504z   M28.377,44.912c1.414-0.258,2.861-0.395,4.322-0.395c1.473,0,2.918,0.143,4.322,0.398c-1.205,4.791-2.922,7.477-4.322,7.477  S29.58,49.705,28.377,44.912z M39.182,45.424c2.207,0.627,4.273,1.564,6.113,2.807c-2.539,1.883-5.514,3.209-8.742,3.805  C37.633,50.404,38.512,48.105,39.182,45.424z M47.092,46.736c-2.205-1.586-4.721-2.773-7.422-3.525  c0.654-3.355,1.021-7.133,1.082-10.881h13.105C53.559,38.01,51.01,43.102,47.092,46.736z"></path><path d="M15.998,28.521l-0.947,1.471c-1.037,1.611-10.021,15.939-6.283,22.793c1.248,2.287,3.682,3.447,7.23,3.447  c3.547,0,5.98-1.16,7.229-3.447c3.74-6.854-5.246-21.182-6.283-22.793L15.998,28.521z M21.25,51.709  c-0.834,1.529-2.553,2.273-5.252,2.273c-2.701,0-4.42-0.744-5.254-2.273c-2.35-4.303,2.355-14.029,5.254-18.955  C18.895,37.68,23.6,47.406,21.25,51.709z"></path><path d="M13.416,49.387c-0.615-1.219,0.086-3.352,0.408-4.072l-1.025-0.461l-1.025-0.463c-0.164,0.363-1.57,3.613-0.369,6.004  c0.379,0.756,1.189,1.736,2.893,2.109l0.48-2.199C13.873,50.107,13.566,49.686,13.416,49.387z"></path></svg>