<svg height='100px' width='100px'  fill="#000000" xmlns="http://www.w3.org/2000/svg" data-name="Layer 1" viewBox="0 0 100 100" x="0px" y="0px"><title>Artboard 1 copy</title><path d="M50,27.13135A5.36865,5.36865,0,1,0,55.36914,32.5,5.37462,5.37462,0,0,0,50,27.13135Zm0,7.7373A2.36865,2.36865,0,1,1,52.36914,32.5,2.37134,2.37134,0,0,1,50,34.86865Z"></path><path d="M87,41.5a11.51739,11.51739,0,0,0-9.96289-11.398A11.367,11.367,0,0,0,78,25.5,11.5131,11.5131,0,0,0,66.5,14a11.3538,11.3538,0,0,0-4.99512,1.146,11.50655,11.50655,0,0,0-22.00976,0A11.3538,11.3538,0,0,0,34.5,14,11.5131,11.5131,0,0,0,23,25.5a11.3672,11.3672,0,0,0,.96289,4.602l-.01227.00177a11.40389,11.40389,0,0,0-3.01019.83612l.001.0022a11.5003,11.5003,0,0,0,3.9873,22.04419A11.49588,11.49588,0,0,0,43,66.21619V90H34v3H66V90H57V65.47778A11.755,11.755,0,0,0,65.5,69,11.48856,11.48856,0,0,0,76.07129,52.98633,11.51468,11.51468,0,0,0,87,41.5ZM54,90H46V85h8Zm0-8H46V76h8Zm0-9H46V67h8Zm0-9H46V58.5h8Zm.5-8.5v-13h-9v13h-7V29.74121L50,23.22412l11.5,6.51709V55.5Zm19.12695-5.71436C73.5415,49.76611,70,49,68.45117,46.25146l-2.48633,1.67969a11.50432,11.50432,0,0,0,6.46454,4.65418A8.39474,8.39474,0,0,1,74,57.5a8.613,8.613,0,0,1-17,1.84448V58.5h6A1.50038,1.50038,0,0,0,64.5,57V31.45361l.334.03711a1.5,1.5,0,0,0,.90528-2.7959l-15-8.5a1.5,1.5,0,0,0-1.47852,0l-15,8.5a1.5,1.5,0,0,0,.90528,2.7959l.334-.03711V57A1.50039,1.50039,0,0,0,37,58.5h6v3.16547l-.06738-.03754A8.50143,8.50143,0,0,1,27,57.5a8.41087,8.41087,0,0,1,1.87109-5.3125,1.49973,1.49973,0,0,0-1.498-2.40186A8.49759,8.49759,0,1,1,25.5,33a8.831,8.831,0,0,1,5.67285,2.16943L33.1748,32.936a11.47249,11.47249,0,0,0-5.77349-2.778A8.3949,8.3949,0,0,1,26,25.5,8.50982,8.50982,0,0,1,34.5,17a8.41486,8.41486,0,0,1,5.13867,1.74268A1.50012,1.50012,0,0,0,42.041,17.69043a8.49738,8.49738,0,0,1,16.918,0,1.50012,1.50012,0,0,0,2.40235,1.05225A8.41486,8.41486,0,0,1,66.5,17,8.50982,8.50982,0,0,1,75,25.5a8.41675,8.41675,0,0,1-1.74805,5.14648,1.49968,1.49968,0,0,0-.11621,1.644,1.483,1.483,0,0,0,1.46387.75781A8.71021,8.71021,0,0,1,75.5,33a8.49759,8.49759,0,1,1-1.87305,16.78564Z"></path></svg>