<svg height='100px' width='100px'  fill="#000000" xmlns="http://www.w3.org/2000/svg" xmlns:xlink="http://www.w3.org/1999/xlink" version="1.1" x="0px" y="0px" viewBox="0 0 100 100" enable-background="new 0 0 100 100" xml:space="preserve"><path d="M93.273,50.228c0,23.574-19.111,42.686-42.689,42.686S7.895,73.802,7.895,50.228c0-23.582,19.111-42.693,42.689-42.693  S93.273,26.646,93.273,50.228L93.273,50.228z M57.55,43.25c0-2.632-2.136-4.775-4.776-4.775c-2.637,0-4.775,2.144-4.775,4.775  c0,2.645,2.138,4.775,4.775,4.775C55.414,48.025,57.55,45.895,57.55,43.25L57.55,43.25z M61.811,37.825l-2.189,5.906  c-0.646,1.75,0.249,3.691,1.995,4.333c1.742,0.649,3.683-0.241,4.329-1.992l2.695-7.281c1.151-3.122-0.3-6.607-3.338-7.986  l-8.441-3.826l-3.577,5.784l7.905,3.577C61.756,36.602,62.025,37.243,61.811,37.825z M80.753,73.588  c-5.325,2.826-11.421,3.868-17.382,2.965c-4.084-0.611-8.07-1.717-11.88-3.307c-10.104-4.198-21.693-2.591-30.27,4.21l1.19,1.497  c8.033-6.37,18.887-7.876,28.346-3.94c3.952,1.646,8.096,2.797,12.33,3.43c6.367,0.963,12.877-0.151,18.562-3.164L80.753,73.588z   M34.73,56.214c-0.013,0.009-0.025,0.009-0.042,0.009c-0.511,0.038-1.013,0.186-1.464,0.427c-0.481,0.261-0.924,0.591-1.312,0.979  c-0.477,0.473-0.894,1.004-1.252,1.577l-2.62,4.224c-0.68,1.101-0.532,2.526,0.363,3.463c-2.578,1.072-4.991,2.489-7.181,4.224  l1.19,1.498c8.033-6.371,18.887-7.877,28.346-3.94c3.952,1.646,8.096,2.797,12.33,3.438c6.367,0.952,12.877-0.166,18.562-3.178  l-0.897-1.688c-1.945,1.034-4.003,1.831-6.134,2.384c-3.189-1.751-6.515-3.228-9.944-4.421l-1.38-11.749  c-0.413-3.485-3.568-5.97-7.053-5.564c-1.338,0.164-2.59,0.738-3.578,1.653l-4.062,3.768c-0.337,0.316-0.835,0.404-1.261,0.219  l-5.484-2.332l-3.599,5.796l7.379,3.134c2.303,0.984,4.969,0.52,6.804-1.185l2.548-2.358c0.182-0.169,0.414-0.278,0.663-0.308  c0.646-0.072,1.231,0.392,1.304,1.033l0.691,5.864c-5.986-1.376-12.129-1.915-18.259-1.595l0.101,1.911  c11.121-0.586,22.203,1.742,32.156,6.733c-2.742,0.405-5.531,0.396-8.273-0.017c-4.084-0.612-8.07-1.718-11.88-3.309  c-5.657-2.354-11.906-2.923-17.9-1.632c0,0,1.902-3.072,1.907-3.075c0.354-0.57,0.642-1.182,0.857-1.827  c0.223-1.018,0.232-2.08,0.017-3.105c-0.004-0.017-0.009-0.024-0.013-0.038l20.815-33.586c0.013-0.008,0.025-0.008,0.038-0.008  c1.017-0.262,1.962-0.742,2.776-1.4c0.477-0.473,0.898-1.004,1.258-1.578l2.615-4.228c0.826-1.332,0.412-3.083-0.92-3.91  c-1.334-0.836-3.088-0.422-3.915,0.915c0,0-2.616,4.224-2.62,4.232c-0.354,0.569-0.642,1.181-0.855,1.821  c-0.17,0.52-0.271,1.055-0.288,1.604c-0.021,0.515,0.072,1.025,0.271,1.506c0,0.009,0.008,0.021,0.013,0.034L34.73,56.214z"></path></svg>