<svg height='100px' width='100px'  fill="#000000" xmlns="http://www.w3.org/2000/svg" viewBox="0 0 64 64" x="0px" y="0px"><title>body-shop-color-repair-paint</title><g><path d="M5,62h8a3,3,0,0,0,3-3V53H40V51H7a2.941,2.941,0,0,1-.551-.056c-.055-.01-.109-.026-.164-.039a3.15,3.15,0,0,1-.361-.113c-.056-.022-.112-.044-.166-.069a2.991,2.991,0,0,1-.339-.184c-.041-.026-.085-.049-.125-.076a3.059,3.059,0,0,1-.4-.333c-.021-.021-.039-.046-.06-.068a3.169,3.169,0,0,1-.276-.335c-.033-.047-.063-.1-.093-.145a3.142,3.142,0,0,1-.176-.323c-.024-.053-.05-.107-.071-.162-.013-.031-.019-.065-.031-.1H40V47H4V36a3,3,0,0,1,3-3H24V31H9.618l6.447-12.895A1.991,1.991,0,0,1,17.854,17H39V15H17.854a3.979,3.979,0,0,0-3.578,2.211L7.382,31H7a5.006,5.006,0,0,0-5,5V59A3,3,0,0,0,5,62Zm7-9h2v6a1,1,0,0,1-1,1H12ZM8,53h2v7H8ZM4,52c.038.028.083.049.122.077.083.059.171.11.258.164a5.018,5.018,0,0,0,.52.283c.1.046.2.089.3.129a5.1,5.1,0,0,0,.593.184c.071.018.136.049.209.064V60H5a1,1,0,0,1-1-1Z"></path><path d="M23,37H40V35H23a3,3,0,0,0-3,3v4a3,3,0,0,0,3,3H40V43H23a1,1,0,0,1-1-1V41H40V39H22V38A1,1,0,0,1,23,37Z"></path><path d="M9,35a3,3,0,0,0-3,3v4a3,3,0,0,0,3,3h6a3,3,0,0,0,3-3V38a3,3,0,0,0-3-3Zm7,3v4a1,1,0,0,1-1,1H9a1,1,0,0,1-1-1V38a1,1,0,0,1,1-1h6A1,1,0,0,1,16,38Z"></path><path d="M61,26H56.721l-.772-2.316A1,1,0,0,0,55,23H52V21.414A8.055,8.055,0,0,0,57,14V3a1,1,0,0,0-1-1H42a1,1,0,0,0-1,1V14a8.055,8.055,0,0,0,5,7.414V23H40V22H38v1.382l-3.447,1.723A1,1,0,0,0,34,26v2a1,1,0,0,0,.553.895L38,30.618V32h2V31h5.674l-1.086,3.8A1.66,1.66,0,0,1,43,36v2a3.667,3.667,0,0,0,3.511-2.648l.1-.352H49.98l1.8,9H49v2h3.18l.84,4.2A1,1,0,0,0,54,51h2v2a1,1,0,0,1-1,1H46a4,4,0,0,0,0,8H62V60H46a2,2,0,0,1,0-4h9a3,3,0,0,0,3-3V51h2a1,1,0,0,0,.986-1.165L58.108,32.564,61.447,30.9A1,1,0,0,0,62,30V27A1,1,0,0,0,61,26ZM38,28.382l-2-1v-.764l2-1ZM43,4H55V6H43Zm0,10V8H55v6a6.034,6.034,0,0,1-4.286,5.748,1,1,0,0,0-.714.958V23H48V20.706a1,1,0,0,0-.714-.958A6.034,6.034,0,0,1,43,14Zm4.183,19,.571-2H49.18l.4,2ZM60,29.382l-3.447,1.723a1,1,0,0,0-.539,1.06l.139.835H54v2h2.486l.334,2H55v2h2.153l.333,2H56v2h1.819l.334,2H57v2h1.486l.333,2h-4L50.98,29.8A1,1,0,0,0,50,29H40V25H54.279l.772,2.316A1,1,0,0,0,56,28h4Z"></path><rect x="25" y="26" width="7" height="2"></rect><rect x="28" y="19.146" width="2" height="6.708" transform="translate(-4.094 38.376) rotate(-63.435)"></rect><rect x="25.646" y="30.5" width="6.708" height="2" transform="translate(-11.026 16.295) rotate(-26.565)"></rect><rect x="21" y="26" width="2" height="2"></rect><rect x="22" y="19" width="2" height="2"></rect><rect x="19" y="22" width="2" height="2"></rect><path d="M49,16a2,2,0,0,1-2-2H45a4,4,0,0,0,4,4Z"></path><rect x="45" y="10" width="2" height="2"></rect></g></svg>