<svg height='100px' width='100px'  fill="#000000" xmlns="http://www.w3.org/2000/svg" xmlns:xlink="http://www.w3.org/1999/xlink" version="1.0" x="0px" y="0px" viewBox="0 0 100 100" enable-background="new 0 0 100 100" xml:space="preserve"><g><path fill="none" d="M89.417,77.537c0,2.719-1.858,5.223-4.519,6.093c-0.021,0.009-0.042,0.013-0.064,0.019L84.216,83.8   c-0.028,0.009-0.058,0.015-0.086,0.019l-21.585,3.171h25.93c2.526,0,4.581-2.054,4.581-4.58V25.607c0-2.205-1.563-4.047-3.64-4.483   c0,0.002,0.001,0.004,0.001,0.005V77.537L89.417,77.537z"></path><path fill="none" d="M15.733,83.801l-0.618-0.15c-0.022-0.006-0.044-0.012-0.065-0.02c-2.64-0.861-4.415-3.312-4.415-6.093V21.57   c-0.033-0.096-0.053-0.197-0.053-0.305c0-0.048,0.007-0.095,0.009-0.142c-2.08,0.433-3.646,2.278-3.646,4.483V82.41   c0,2.525,2.055,4.58,4.58,4.58h25.879L15.82,83.818C15.79,83.814,15.761,83.809,15.733,83.801z"></path><path fill="#000000" d="M50,56.555c-0.337,0-0.61,0.274-0.61,0.613v6.699c0,0.337,0.272,0.611,0.61,0.611   c0.338,0,0.611-0.274,0.611-0.611v-6.699C50.611,56.829,50.338,56.555,50,56.555z"></path><path fill="#000000" d="M50,69.957c-0.337,0-0.61,0.273-0.61,0.611v6.699c0,0.338,0.272,0.612,0.61,0.612   c0.338,0,0.611-0.274,0.611-0.612v-6.699C50.611,70.23,50.338,69.957,50,69.957z"></path><path fill="#000000" d="M88.973,19.221c-0.607-1.797-1.985-3.24-3.743-3.928c-0.724-2.385-2.967-4.128-5.618-4.128   c-0.027,0-0.055,0.001-0.083,0.004l-0.97,0.088c-0.06,0.004-0.117,0.017-0.172,0.032L51.08,19.195h-2.251l-27.307-7.906   c-0.056-0.016-0.113-0.028-0.171-0.032l-0.972-0.088c-0.027-0.003-0.056-0.004-0.083-0.004c-2.65,0-4.893,1.744-5.615,4.129   c-1.765,0.687-3.152,2.129-3.759,3.933c-3.254,0.306-5.81,3.049-5.81,6.381V82.41c0,3.535,2.876,6.41,6.412,6.41h38.322   c0.026,0.005,0.05,0.015,0.076,0.015h0.103c0.005,0,0.009,0,0.013,0c0.025,0,0.048-0.01,0.073-0.015h38.364   c3.536,0,6.414-2.875,6.414-6.41V25.607C94.89,22.24,92.276,19.477,88.973,19.221z M85.567,74.768v-53.74v-1.832v-1.646   c0.593,0.426,1.08,0.99,1.414,1.646c0.283,0.556,0.454,1.175,0.488,1.832c0.005,0.08,0.013,0.158,0.013,0.238   c0,0.151,0.037,0.295,0.103,0.422v55.849c0,1.925-1.324,3.706-3.225,4.342l-0.541,0.134l-20.996,3.086l17.991-4.684l0.556-0.135   c0.022-0.006,0.043-0.01,0.064-0.016C83.868,79.482,85.567,77.221,85.567,74.768z M12.914,19.195   c0.361-0.711,0.905-1.315,1.566-1.752v1.752v1.832v53.74c0,2.51,1.625,4.719,4.041,5.496c0.021,0.008,0.043,0.012,0.064,0.018   l18.523,4.814l-20.979-3.082l-0.542-0.135c-1.868-0.625-3.121-2.365-3.121-4.342V21.129c0-0.036-0.01-0.068-0.015-0.102   c-0.006-0.051-0.008-0.103-0.021-0.15C12.482,20.275,12.651,19.708,12.914,19.195z M11.525,86.989c-2.525,0-4.58-2.054-4.58-4.58   V25.607c0-2.205,1.566-4.051,3.646-4.483c-0.002,0.047-0.009,0.094-0.009,0.142c0,0.106,0.02,0.209,0.053,0.305v55.967   c0,2.781,1.774,5.23,4.415,6.093c0.021,0.009,0.043,0.013,0.065,0.019l0.618,0.151c0.028,0.009,0.057,0.015,0.086,0.019   l21.584,3.171H11.525z M50,83.357c-0.337,0-0.61,0.272-0.61,0.611v2.424l-29.816-7.756l-0.522-0.125   c-1.64-0.543-2.74-2.041-2.74-3.742V21.027v-1.832v-2.371c0-0.027-0.009-0.053-0.01-0.081c-0.006-0.05-0.007-0.104-0.021-0.153   c0.026-0.273,0.083-0.538,0.161-0.792c0.104-0.333,0.249-0.649,0.434-0.938c0.707-1.107,1.956-1.849,3.381-1.861l0.84,0.076   l16.073,4.654l5.07,1.467l1.363,0.396l4.964,1.438l0.821,0.238v0.092v2.305c0,0.337,0.273,0.611,0.61,0.611   c0.338,0,0.611-0.274,0.611-0.611v-2.32V21.24l0.728-0.211l4.977-1.441l1.351-0.391l5.085-1.473l16.059-4.649l0.84-0.076   c1.425,0.013,2.67,0.755,3.376,1.862c0.186,0.291,0.336,0.604,0.441,0.938c0.094,0.304,0.147,0.623,0.164,0.951   c0.003,0.065,0.009,0.129,0.009,0.196c0,0.142,0.034,0.277,0.093,0.402v1.848v1.832v53.74c0,1.657-1.162,3.19-2.832,3.742   l-30.292,7.872v-2.413C50.611,83.63,50.338,83.357,50,83.357z M93.057,82.41c0,2.525-2.055,4.58-4.581,4.58h-25.93l21.585-3.172   c0.028-0.004,0.058-0.01,0.086-0.018l0.618-0.15c0.022-0.006,0.043-0.012,0.064-0.02c2.661-0.869,4.519-3.375,4.519-6.093V21.129   c0-0.001-0.001-0.003-0.001-0.005c2.076,0.437,3.64,2.278,3.64,4.483V82.41z"></path><path fill="#000000" d="M64.797,22.532c-3.773-0.543-9.368-0.188-12.721,2.603c-1.548,1.289-2.416,2.948-2.599,4.93   c-0.051,0.09-0.088,0.188-0.088,0.297v6.701c0,0.338,0.272,0.611,0.61,0.611c0.338,0,0.611-0.273,0.611-0.611v-6.31   c0.025-0.063,0.045-0.128,0.049-0.201c0.072-1.819,0.812-3.327,2.197-4.479c2.85-2.37,7.962-2.881,11.766-2.332   c8.034,1.156,10.848,7.445,10.82,12.479c-0.036,6.067-4.041,12.739-11.628,13.742c-4.325,0.575-8.932-0.266-13.204-2.301v-3.896   c0-0.338-0.273-0.611-0.611-0.611c-0.337,0-0.61,0.273-0.61,0.611v3.28c-2.053-1.104-4.012-2.485-5.807-4.125   c-0.276-0.253-0.562-0.524-0.857-0.808c-0.048-1.149-0.538-2.204-1.453-2.862c-0.582-0.418-1.286-0.64-2.034-0.64   c-0.069,0-0.138,0.011-0.207,0.016c-3.435-3.012-7.564-5.59-11.866-3.48c-3.655,1.795-4.223,5.474-4.722,8.72   c-0.157,1.016-0.305,1.974-0.533,2.886c-0.082,0.328,0.116,0.659,0.444,0.742c0.321,0.078,0.659-0.117,0.741-0.444   c0.242-0.967,0.401-2,0.556-2.997c0.499-3.238,0.969-6.296,4.053-7.81c3.43-1.683,6.821,0.181,9.863,2.728   c-0.815,0.352-1.56,0.947-2.129,1.738c-0.12,0.167-0.229,0.341-0.326,0.516l-0.057,0.144c-0.007,0.026-0.017,0.052-0.024,0.071   c-0.008,0.023-0.017,0.045-0.04,0.09c-0.011,0.02-0.022,0.041-0.047,0.072l-0.089,0.148c-0.131,0.307-0.23,0.629-0.283,0.902   l-1.138,3.66L20.289,66.018c-0.224,0.309-0.313,0.688-0.251,1.064s0.267,0.707,0.578,0.932c0.244,0.174,0.532,0.268,0.833,0.268   c0.46,0,0.894-0.223,1.15-0.579l14.482-18.769l3.077-2.229c0.135-0.081,0.267-0.164,0.396-0.259l0.117-0.107   c0.02-0.023,0.041-0.046,0.073-0.079c0,0,0.001,0,0.001-0.002l0.067-0.022l0.112-0.137c0.03-0.037,0.057-0.063,0.081-0.082   l-0.386-0.476l0.478,0.414l0.094-0.046l0.074-0.076c0.175-0.184,0.34-0.382,0.491-0.591c0.368-0.513,0.631-1.063,0.792-1.624   c0.07,0.066,0.145,0.138,0.214,0.201c2.034,1.861,4.278,3.402,6.63,4.601v2.045c0,0.339,0.272,0.613,0.61,0.613   c0.338,0,0.611-0.274,0.611-0.613v-1.46c3.403,1.535,6.998,2.357,10.504,2.357c0.961,0,1.917-0.062,2.86-0.188   c8.279-1.096,12.65-8.35,12.688-14.947C76.695,30.702,73.608,23.801,64.797,22.532z M39.433,43.573   c-0.754,1.045-1.702,1.35-2.055,1.095c-0.11-0.078-0.184-0.218-0.215-0.413c-0.068-0.412,0.054-1.124,0.6-1.883   c0.585-0.812,1.317-1.183,1.749-1.183c0.126,0,0.227,0.026,0.307,0.084C40.211,41.559,40.129,42.602,39.433,43.573z M40.764,44.527   c-0.101,0.139-0.21,0.272-0.323,0.396c-0.024,0.013-0.046,0.028-0.065,0.041c-0.047,0.031-0.094,0.063-0.142,0.103   c-0.072,0.06-0.14,0.123-0.205,0.199c-0.041,0.032-0.078,0.062-0.104,0.088l-0.055,0.053c-0.029,0.029-0.057,0.059-0.083,0.087   c-0.083,0.057-0.171,0.112-0.293,0.188l-3.27,2.363L21.619,66.971c-0.056,0.078-0.138,0.088-0.17,0.088   c-0.03,0-0.077-0.009-0.122-0.041c-0.061-0.045-0.079-0.104-0.084-0.137c-0.005-0.029-0.007-0.094,0.049-0.172l13.207-19.795   l1.254-3.96c0.046-0.228,0.113-0.448,0.197-0.661c0.046-0.064,0.085-0.129,0.1-0.16l0.057-0.107   c0.024-0.051,0.047-0.104,0.069-0.162c0.014-0.035,0.026-0.072,0.038-0.109c0.067-0.115,0.14-0.23,0.218-0.339   c0.567-0.788,1.376-1.33,2.208-1.513c0.064,0.059,0.128,0.115,0.192,0.173c-0.74,0.223-1.487,0.786-2.059,1.583   c-0.65,0.902-0.955,1.947-0.815,2.792c0.085,0.519,0.331,0.938,0.708,1.21c0.287,0.205,0.639,0.314,1.02,0.314   c0.939,0,1.99-0.648,2.74-1.69c0.454-0.632,0.713-1.304,0.801-1.929c0.091,0.088,0.18,0.174,0.27,0.262   C41.432,43.26,41.194,43.927,40.764,44.527z"></path></g></svg>