<svg height='100px' width='100px'  fill="#000000" xmlns="http://www.w3.org/2000/svg" xmlns:xlink="http://www.w3.org/1999/xlink" version="1.1" x="0px" y="0px" viewBox="0 0 100 100" style="enable-background:new 0 0 100 100;" xml:space="preserve"><path d="M25.4506836,74.6918945h-5.6074219c-0.4970703,0-0.8999023,0.402832-0.8999023,0.8999023  s0.402832,0.8999023,0.8999023,0.8999023h5.6074219c0.4970703,0,0.8999023-0.402832,0.8999023-0.8999023  S25.9477539,74.6918945,25.4506836,74.6918945z"></path><path d="M87.5,49.1000977H72.3266602h-2.6767578V17.0522461c0-0.4970703-0.402832-0.8999023-0.8999023-0.8999023H53.5766602  h-7.1533203H31.25c-0.4970703,0-0.8999023,0.402832-0.8999023,0.8999023v32.0478516h-2.6767578H12.5  c-0.4970703,0-0.8999023,0.402832-0.8999023,0.8999023v32.9477539c0,0.4970703,0.402832,0.8999023,0.8999023,0.8999023H50h37.5  c0.4970703,0,0.8999023-0.402832,0.8999023-0.8999023V50C88.3999023,49.5029297,87.9970703,49.1000977,87.5,49.1000977z   M71.4267578,50.8999023v8.1713867h-5.3535156v-8.1713867H68.75H71.4267578z M47.3232422,17.9521484h5.3535156v8.1708984h-5.3535156  V17.9521484z M28.5732422,50.8999023H31.25h2.6767578v8.1713867h-5.3535156V50.8999023z M49.1000977,82.0478516H13.3999023  V50.8999023h13.3735352v9.0712891c0,0.4970703,0.402832,0.8999023,0.8999023,0.8999023h7.1533203  c0.4970703,0,0.8999023-0.402832,0.8999023-0.8999023v-9.0712891h13.3735352V82.0478516z M34.8266602,49.1000977h-2.6767578  V17.9521484h13.3735352v9.0708008c0,0.4970703,0.402832,0.8999023,0.8999023,0.8999023h7.1533203  c0.4970703,0,0.8999023-0.402832,0.8999023-0.8999023v-9.0708008h13.3735352v31.1479492h-2.6767578H50H34.8266602z   M86.6000977,82.0478516H50.8999023V50.8999023h13.3735352v9.0712891c0,0.4970703,0.402832,0.8999023,0.8999023,0.8999023h7.1533203  c0.4970703,0,0.8999023-0.402832,0.8999023-0.8999023v-9.0712891h13.3735352V82.0478516z"></path><path d="M62.9506836,74.6918945h-5.6074219c-0.4970703,0-0.8999023,0.402832-0.8999023,0.8999023  s0.402832,0.8999023,0.8999023,0.8999023h5.6074219c0.4970703,0,0.8999023-0.402832,0.8999023-0.8999023  S63.4477539,74.6918945,62.9506836,74.6918945z"></path><path d="M44.2006836,41.7436523h-5.6074219c-0.4970703,0-0.8999023,0.402832-0.8999023,0.8999023  s0.402832,0.8999023,0.8999023,0.8999023h5.6074219c0.4970703,0,0.8999023-0.402832,0.8999023-0.8999023  S44.6977539,41.7436523,44.2006836,41.7436523z"></path></svg>