<svg height='100px' width='100px'  fill="#000000" xmlns="http://www.w3.org/2000/svg" xmlns:xlink="http://www.w3.org/1999/xlink" xml:space="preserve" version="1.1" style="shape-rendering:geometricPrecision;text-rendering:geometricPrecision;image-rendering:optimizeQuality;" viewBox="0 0 105833.32 105833.32" x="0px" y="0px" fill-rule="evenodd" clip-rule="evenodd"><defs><style type="text/css">
   
    .fil0 {fill:#000000;fill-rule:nonzero}
   
  </style></defs><g><path class="fil0" d="M34609.2 95856.52c-5099.66,-4343.07 -15534.67,-4537.61 -20880.5,-619.53 -620.53,454.87 -584.57,482.17 -123,1009.43 4970.65,5677.64 14945.63,6785.7 21457.83,3449.45 2807.4,-1438.27 1669.79,-2030.3 -454.33,-3839.35zm51551.25 -92251.8c-382.88,-578.39 497.67,-1161.31 880.56,-582.9 4492.91,6772.12 7213.59,15217.89 7213.59,23382.6 0,696.06 -1058.34,696.06 -1058.34,0 0,-7965.19 -2652.41,-16192.68 -7035.81,-22799.7zm-73384.6 22799.7c0,696.06 -1058.34,696.06 -1058.34,0 0,-8316.62 2508.29,-16514.23 7192.77,-23388.81 391.05,-572.98 1263.34,22.35 872.3,595.32 -4569.23,6705.47 -7006.73,14681.9 -7006.73,22793.49zm67696.69 -19132.91c-396.47,-567.55 467.56,-1171.12 864.02,-603.58 2880.69,4130.34 4796.33,8789.04 5662.36,13681.96 1084.16,6125.29 500.26,12490.07 -1706.35,18304.88 -244.7,649.83 -1232.76,277.77 -988.06,-372.06 2141.87,-5644.19 2704.09,-11797.21 1653.66,-17744.15 -838.02,-4744.41 -2692.96,-9262.94 -5485.63,-13267.05zm-58762.09 31120.3c247.42,649.85 -740.65,1026.03 -988.06,376.2 -4113.29,-10728.14 -2580.82,-22960.99 4085.51,-32346.08 401.89,-564.83 1261.79,47 859.9,611.84 -6463.45,9099.43 -7945.18,20957.09 -3957.35,31358.04zm56412.06 -21155.95c-239.27,-652.54 752.91,-1016.35 992.18,-363.8 1122.8,3054.85 1687.75,6278.36 1687.75,9532.36 0,696.06 -1058.34,696.06 -1058.34,0 0,-3129.96 -541.53,-6230.03 -1621.59,-9168.56zm-51896.57 9170.63c-2.72,693.32 -1056.92,689.2 -1054.2,-4.14 13.35,-3369.99 607.3,-6709.41 1785.36,-9868.06 241.98,-649.83 1230.05,-281.9 988.06,367.94 -1134.84,3042.75 -1706.36,6257.93 -1719.22,9504.26zm37520.65 8287.67c-1160.08,0 -1160.08,-1763.88 0,-1763.88l2422.26 0 0 -5968.79 -2422.26 0c-1160.08,0 -1160.08,-1763.88 0,-1763.88l2422.26 0 0 -5968.76 -2422.26 0c-1160.08,0 -1160.08,-1763.88 0,-1763.88l2392.6 0c-1085.64,-16216.26 -25234.73,-16216.25 -26320.37,0l2403.98 0c1160.08,0 1160.08,1763.88 0,1763.88l-2433.64 0 0 5968.76 2433.64 0c1160.08,0 1160.08,1763.88 0,1763.88l-2433.64 0 0 5968.79 2433.64 0c1160.08,0 1160.08,1763.88 0,1763.88l-2433.64 0 0 15771.17c0,7252.58 5937.24,13189.91 13189.84,13189.91 7252.6,0 13189.85,-5937.32 13189.85,-13189.91l0 -15771.17 -2422.26 0zm-3566.19 46209.8c0,-696.06 1058.34,-696.06 1058.34,0l0 12175.66c0,696.06 -1058.34,696.06 -1058.34,0l0 -12175.66zm12126.16 -31519.67c-1155.54,0 -1155.54,-1756.98 0,-1756.98l3118.32 -2.53 -11.49 6092.48c-21.98,11864.41 -10434.1,19280.15 -21557.08,19632.57l-39.6 29170.22c0,1155.54 -1756.98,1155.54 -1756.98,0l39.6 -29170.28c-11115.05,-352.87 -21558.17,-7764.27 -21558.17,-19632.51l0 -6095.38 2865.82 7.85c1155.54,0 1155.54,1756.98 0,1756.98l-1101.94 -3.02 0 4333.57c0,11232.85 10252.14,17882.59 20673.96,17882.59 10423.82,0 20656.61,-6658.76 20677.41,-17882.59l8.18 -4334.07 -1358.03 1.1zm-4373.83 -31036.52l0 32117.56c0,8226.28 -6727.44,14953.79 -14953.73,14953.79 -8226.29,0 -14953.72,-6727.52 -14953.72,-14953.79l0 -32117.56c0,-19673.17 29907.45,-19673.18 29907.45,0zm-23165.31 62556.19c0,-696.06 1058.34,-696.06 1058.34,0l0 12175.66c0,696.06 -1058.34,696.06 -1058.34,0l0 -12175.66zm41280.93 -9804.74c-90.62,1155.54 -1847.61,1017.75 -1756.98,-137.8 599.9,-7487.01 8461.32,-15671.21 15814.83,-16804.53 2726.42,-420 2669.78,-25.3 2821.1,2254.48 337.22,5079.38 -1849.43,9840.42 -5237.08,13528.59 -783.98,851.93 -2079.3,-340.09 -1295.34,-1192 3065.05,-3336.96 5081.03,-7623.53 4775.44,-12226.35 0,-513.96 15.52,-747.5 -802.3,-621.52 -6549.53,1009.4 -13784.8,8523.67 -14319.67,15199.13zm-4056.07 15283.97c-385.17,1092.09 -2045.7,506.45 -1660.52,-585.66 2515.79,-7072.54 12225.98,-12947.26 19618.69,-12139.11 2739.31,299.61 2593.18,660.99 2149.5,2901.76 -990.84,5003.31 -4326.16,9027.24 -8561.35,11718.31 -977.6,620.05 -1921.55,-868.24 -943.96,-1488.28 3824.99,-2430.42 6879.47,-6041.1 7775.89,-10567.65 99.48,-502.53 165.76,-729.61 -606.12,-814.04 -6591.18,-720.53 -15526.31,4661.07 -17772.13,10974.67zm-11905.04 8136.63c2920.91,-2487.55 7082.96,-3697.17 11227.48,-3821.84 4450.45,-133.88 8919.28,986.06 11830.32,3119.63 2223.82,1630.11 1910.67,1867.1 405.5,3586.35 -2843.88,3248.38 -6694.76,4960.9 -10603.88,5594.97 -4819.19,781.7 -9754.3,-88.43 -12976.13,-1739 -4311.46,-2208.82 -2808.37,-4248.89 116.71,-6740.11zm11275.72 -2064.86c-3778.55,113.66 -7542.83,1190.7 -10138.84,3401.56 -2124.12,1809.05 -3261.73,2401.08 -454.33,3839.35 2931.31,1501.73 7453.58,2288.18 11901.27,1566.74 3538.73,-573.99 7012.78,-2110.6 9556.56,-5016.19 371.55,-424.42 510.8,-544.83 -123,-1009.43 -2600.85,-1906.22 -6660.24,-2904.8 -10741.66,-2782.03zm-59821.01 -21493.54c90.63,1155.55 -1666.36,1293.34 -1756.98,137.8 -534.87,-6675.46 -7770.14,-14189.73 -14319.67,-15199.13 -879.85,-135.54 -758.36,-40.07 -802.3,621.52 -305.59,4602.82 1710.39,8889.39 4775.44,12226.35 783.96,851.91 -511.36,2043.93 -1295.34,1192 -3387.65,-3688.17 -5574.3,-8449.21 -5237.08,-13528.59 151.32,-2279.78 94.68,-2674.48 2821.1,-2254.48 7353.51,1133.32 15214.93,9317.52 15814.83,16804.53zm3959.61 14836.11c385.18,1092.11 -1275.35,1677.75 -1660.52,585.66 -2245.82,-6313.61 -11180.96,-11695.2 -17772.15,-10974.67 -784.69,85.82 -717.62,250.57 -606.1,814.04 896.42,4526.55 3950.9,8137.23 7775.89,10567.65 977.59,620.04 33.64,2108.33 -943.96,1488.28 -4235.19,-2691.07 -7570.51,-6715 -8561.35,-11718.31 -443.68,-2240.73 -589.83,-2602.15 2149.48,-2901.76 7392.72,-808.15 17102.91,5066.56 19618.71,12139.11zm10244.52 8722.29c2925.08,2491.22 4428.17,4531.29 116.71,6740.11 -7231.18,3704.59 -18076.79,2430.01 -23580.01,-3855.97 -1505.17,-1719.25 -1818.32,-1956.24 405.5,-3586.35 6000.25,-4397.73 17340.7,-4166.67 23057.8,702.21z"></path></g></svg>