<svg height='100px' width='100px'  fill="#000000" xmlns="http://www.w3.org/2000/svg" xmlns:xlink="http://www.w3.org/1999/xlink" xml:space="preserve" version="1.1" style="shape-rendering:geometricPrecision;text-rendering:geometricPrecision;image-rendering:optimizeQuality;" viewBox="0 0 846.66 846.66" x="0px" y="0px" fill-rule="evenodd" clip-rule="evenodd"><defs><style type="text/css">
   
    .fil0 {fill:#000000;fill-rule:nonzero}
   
  </style></defs><g><path class="fil0" d="M650.85 401.01c16.17,11.76 17.75,35.82 3.13,49.64 21.57,20.38 7.41,55.73 -24.41,55.73 -0.6,22.12 -22.63,35.27 -42.38,38.01 -2.53,74.78 -64.48,134.68 -139.34,134.68l-39.72 0 0 26.16c0,24.94 -20.37,45.31 -45.31,45.31l-97.82 0 0 18.67c-23.03,0 -46.07,0 -69.1,0l0 -34.84c-27.85,0 -55.7,0 -83.56,0 0,-12.25 0,-24.49 0,-36.74 27.86,0 55.71,0 83.56,0l0 -56.65c-27.85,0 -55.7,0 -83.56,0l0 -36.73c27.86,0 55.71,0 83.56,0l0 -34.85c23.03,0 46.07,0 69.1,0l0 18.68 97.82 0c24.94,0 45.31,20.37 45.31,45.31l0 26.76 39.72 0c64.43,0 117.9,-51.45 120.41,-115.79 -19.69,-2.79 -41.6,-15.93 -42.19,-37.98 -31.68,0 -46.11,-35.24 -24.4,-55.72 -14.69,-13.75 -13.01,-37.88 3.14,-49.64 -53.41,-31 -83.5,-90.76 -83.5,-151.88 0,-88.08 64.23,-171.68 156.51,-171.68 92.28,0 156.5,83.6 156.5,171.68 0,61.11 -30.08,120.87 -83.47,151.87zm-80.78 -125.59l-14.97 48.31 19.12 0 -13.36 47.45 45.37 -67.95 -25.79 0.47 18.5 -28.28 -28.87 0zm69.06 -91.98l-23.49 23.49 -13.38 -13.38 23.49 -23.49 13.38 13.38zm-109.5 -13.99l23.49 23.49 -13.37 13.38 -23.49 -23.49 13.37 -13.38zm57.65 -15.68l0 33.22 -18.92 0 0 -33.22 18.92 0zm-428.06 477.76l0 -17.83 -37.42 0 0 17.83 37.42 0zm0 93.38l0 -17.82 -37.42 0 0 17.82 37.42 0zm418.81 -304.09c-21.42,0 -36.61,-6.99 -54.54,-6.99 -17.19,0 -17.14,26.6 0,26.6l108.66 0c17.15,0 17.15,-26.6 0,-26.6 -17.61,0 -33.18,6.86 -54.12,6.99zm-0.21 -324.44c-81.88,0 -137.6,75.06 -137.6,152.76 0,63.85 37.02,126.88 99.46,146.82l-37.22 -174.43c10.86,0 21.71,0 32.56,0l0.71 8.72c0.98,11.99 18.85,11.99 19.83,0l0.72 -8.72c14.36,0 28.72,0 43.08,0l0.71 8.72c0.98,11.99 18.85,11.99 19.83,0l0.71 -8.72c10.85,0 21.71,0 32.56,0 -12.4,58.15 -24.81,116.29 -37.21,174.43 62.44,-19.94 99.45,-82.97 99.45,-146.82 0,-77.7 -55.71,-152.76 -137.59,-152.76zm-17.84 304.25c5.91,0.85 11.87,1.28 17.84,1.28 5.96,0 11.93,-0.43 17.83,-1.28l31.61 -148.15c-11.06,8.3 -26.62,7.5 -36.8,-1.87 -3.05,-2.81 -5.5,-6.27 -7.12,-10.16l-11.05 0c-1.62,3.89 -4.07,7.35 -7.12,10.16 -10.18,9.37 -25.73,10.17 -36.79,1.87l31.6 148.15zm72.17 60.24l-108.66 0c-17.17,0 -17.17,26.6 0,26.6l108.66 0c17.15,0 17.15,-26.6 0,-26.6z"></path></g></svg>