<svg height='100px' width='100px'  fill="#000000" xmlns="http://www.w3.org/2000/svg" data-name="Layer 1" viewBox="0 0 128 128" x="0px" y="0px"><title>miscellaneous 63 final</title><path d="M126.16113,75.35626a14.61062,14.61062,0,0,0-9.04883,2.065A11.48049,11.48049,0,0,1,103.752,76.3479a18.3645,18.3645,0,0,0-3.5791-2.25165A125.63065,125.63065,0,0,0,112.42621,56.802c.00739-.01373.016-.02667.023-.04059a45.41327,45.41327,0,0,0,4.62067-10.73c.54761.01929,1.09491.039,1.6391.06384a1.99316,1.99316,0,1,0,.18359-3.98206c-1.11432-.0509-3.4718-.12085-3.52417-.11835a228.74194,228.74194,0,0,0-29.78149,1.43274,1.9588,1.9588,0,0,0-.08984-.18164L74.65527,25.93683a2.01029,2.01029,0,0,0-1.93262-.92444l-25.1582,2.98944c-.02448.00293-.04639.01361-.07062.01746a1.97125,1.97125,0,0,0-.35077.08673c-.05139.01794-.09949.04034-.149.06232-.04858.02155-.09882.0354-.14636.06122l-17,9.18439a1.99072,1.99072,0,0,0-1.04687,1.75165v14.879C16.12585,57.27252,7.91913,59.90039,7.69531,59.973A1.99649,1.99649,0,0,0,6.373,61.38214l-1.14661,4.535a16.45743,16.45743,0,0,0-3.06531-.5257,1.99271,1.99271,0,1,0-.32227,3.97235A10.75827,10.75827,0,0,1,8.3418,72.05249a14.59633,14.59633,0,0,0,8.5957,3.48285,14.597,14.597,0,0,0,9.04591-2.066A10.80457,10.80457,0,0,1,32.834,71.854a10.76713,10.76713,0,0,1,6.50391,2.68872,14.59381,14.59381,0,0,0,8.59766,3.48383,14.55919,14.55919,0,0,0,9.04492-2.066A11.47069,11.47069,0,0,1,70.334,77.03394a15.46088,15.46088,0,0,0,17.64453,1.41785A10.80142,10.80142,0,0,1,94.832,76.83643c.33954.02728.6488.06915.95221.114a1.9983,1.9983,0,0,0,.84857.19745c.0412,0,.08167-.01013.1228-.0127a11.3492,11.3492,0,0,1,4.5813,2.39,14.59761,14.59761,0,0,0,8.59961,3.48383c.51855.04187,1.00879.06128,1.47461.06128a14.67343,14.67343,0,0,0,7.57422-2.12628,10.82282,10.82282,0,0,1,6.85352-1.61536,1.99271,1.99271,0,1,0,.32227-3.97235Zm-13.97754-27.16a48.8323,48.8323,0,0,1-2.87183,6.00214c-12.98865,4.04126-34.05865,7.74072-50.5282,10.26825C62.969,60.38354,75.53644,52.63068,112.18359,48.19623Zm-40.249-19.07532,9.27814,14.81116c-7.27136.89215-14.43488,2.02551-21.27106,3.27557L51.0293,31.60437ZM32.80078,40.35181l14.23071-7.68848,8.7536,15.32538c-8.39978,1.62268-16.20471,3.3891-22.98431,5.0556Zm1.75684,27.51038a1.98692,1.98692,0,0,0-.48907.13135c-.30078-.03925-.58844-.08582-.91229-.11188a14.58753,14.58753,0,0,0-9.0459,2.066A10.81138,10.81138,0,0,1,17.25977,71.563a10.76072,10.76072,0,0,1-6.502-2.68774c-.56732-.42822-1.16583-.87042-1.827-1.29456l1.04871-4.14624c6.99438-2.16882,47.62872-14.34076,86.71765-16.99536-34.61926,6.084-41.9389,15.37268-43.47937,18.86444C42.46973,66.887,34.75641,67.838,34.55762,67.86218ZM95.8999,72.95551c-.24921-.03009-.481-.07013-.74561-.09143a14.5943,14.5943,0,0,0-9.04883,2.066A11.47445,11.47445,0,0,1,72.749,73.85669a15.45814,15.45814,0,0,0-17.64258-1.41785,11.469,11.469,0,0,1-13.35254-1.07336c-.15283-.11536-.31158-.233-.46857-.35C54.68585,69.2326,86.387,64.6947,106.25122,59.24353A140.67724,140.67724,0,0,1,95.8999,72.95551Z"></path><path d="M126.16113,85.32111a14.611,14.611,0,0,0-9.04883,2.065A11.48049,11.48049,0,0,1,103.752,86.31274,15.46362,15.46362,0,0,0,86.10547,84.8949,11.47445,11.47445,0,0,1,72.749,83.82153a15.45814,15.45814,0,0,0-17.64258-1.41785,11.46875,11.46875,0,0,1-13.35254-1.07336,14.59461,14.59461,0,0,0-8.59766-3.48383,14.60114,14.60114,0,0,0-9.0459,2.066,10.811,10.811,0,0,1-6.85059,1.61542,10.7611,10.7611,0,0,1-6.502-2.68781,14.59125,14.59125,0,0,0-8.59668-3.48383,1.99271,1.99271,0,1,0-.32227,3.97235A10.75827,10.75827,0,0,1,8.3418,82.01733a14.59633,14.59633,0,0,0,8.5957,3.48285,14.58384,14.58384,0,0,0,9.04591-2.066A10.80457,10.80457,0,0,1,32.834,81.81885a10.7675,10.7675,0,0,1,6.50391,2.68872,14.59381,14.59381,0,0,0,8.59766,3.48383,14.56576,14.56576,0,0,0,9.04492-2.066A11.47069,11.47069,0,0,1,70.334,86.99878a15.46088,15.46088,0,0,0,17.64453,1.41785A11.4774,11.4774,0,0,1,101.33691,89.49a14.59761,14.59761,0,0,0,8.59961,3.48383c.51855.04187,1.00879.06134,1.47461.06134a14.6734,14.6734,0,0,0,7.57422-2.12634,10.80421,10.80421,0,0,1,6.85352-1.61536,1.99271,1.99271,0,1,0,.32227-3.97235Z"></path><path d="M126.16113,95.286A14.61066,14.61066,0,0,0,117.1123,97.351,11.48049,11.48049,0,0,1,103.752,96.27759a15.46389,15.46389,0,0,0-17.64648-1.41785A11.47445,11.47445,0,0,1,72.749,93.78638a15.45842,15.45842,0,0,0-17.64258-1.41785,11.46875,11.46875,0,0,1-13.35254-1.07336,14.59461,14.59461,0,0,0-8.59766-3.48383,14.61436,14.61436,0,0,0-9.0459,2.066,10.811,10.811,0,0,1-6.85059,1.61542,10.7611,10.7611,0,0,1-6.502-2.68781,14.59125,14.59125,0,0,0-8.59668-3.48383,1.99271,1.99271,0,1,0-.32227,3.97235A10.759,10.759,0,0,1,8.3418,91.98218a14.59633,14.59633,0,0,0,8.5957,3.48285,14.59748,14.59748,0,0,0,9.04591-2.06592A10.80417,10.80417,0,0,1,32.834,91.78369a10.76751,10.76751,0,0,1,6.50391,2.68878,14.5942,14.5942,0,0,0,8.59766,3.48376,14.54652,14.54652,0,0,0,9.04492-2.06592A11.47043,11.47043,0,0,1,70.334,96.96368a15.46116,15.46116,0,0,0,17.64453,1.41785,11.47713,11.47713,0,0,1,13.3584,1.07336,14.598,14.598,0,0,0,8.59961,3.48376c.51855.04187,1.00879.06134,1.47461.06134a14.67343,14.67343,0,0,0,7.57422-2.12628,10.79144,10.79144,0,0,1,6.85352-1.61542,1.99268,1.99268,0,1,0,.32227-3.97229Z"></path></svg>