<svg height='100px' width='100px'  fill="#000000" xmlns="http://www.w3.org/2000/svg" viewBox="0 0 28 30" x="0px" y="0px"><path fill="#000000" fill-rule="evenodd" d="M22 25h2v-8h-2v8zm5.682-12.682l.025-.025c-.012-.012-.026-.022-.039-.033-.383-1.504-1.034-2.581-1.601-3.5C25.471 7.791 25 7.026 25 6V2c0-1.103-.897-2-2-2h-4c-1.103 0-2 .897-2 2v4c0 1.026-.471 1.791-1.067 2.76C15.071 10.158 14 11.899 14 15h2c0-2.534.832-3.885 1.636-5.191C18.307 8.719 19 7.593 19 6V2h4v4c0 1.593.693 2.719 1.364 3.809.268.435.536.879.779 1.366-.945-.048-2.027.213-3.198.993-1.209.805-2.649.714-3.238.125l-1.414 1.414c.69.69 1.7 1.038 2.778 1.038a5.436 5.436 0 0 0 2.984-.913c1.068-.713 2.063-.854 2.815-.436.081.481.13 1.007.13 1.604v12a1 1 0 0 1-1 1h-8v2h8c1.654 0 3-1.346 3-3V15c0-1.037-.127-1.911-.318-2.682zM16 22c0 4.411-3.589 8-8 8s-8-3.589-8-8a7.94 7.94 0 0 1 3.877-6.856l1.031 1.712A5.96 5.96 0 0 0 2 22c0 3.309 2.691 6 6 6s6-2.691 6-6c0-2.99-2.2-5.469-5.065-5.92.063.879.065 1.842.065 2.92H7c0-3.977 0-5.465-2.555-7.168l1.11-1.664C7.322 11.347 8.18 12.569 8.6 14.03c4.13.309 7.4 3.761 7.4 7.97z"></path></svg>