<svg height='100px' width='100px'  fill="#000000" xmlns="http://www.w3.org/2000/svg" xmlns:xlink="http://www.w3.org/1999/xlink" xmlns:a="http://ns.adobe.com/AdobeSVGViewerExtensions/3.0/" version="1.1" x="0px" y="0px" viewBox="-8.395 -35.075 100 100" enable-background="new -8.395 -35.075 100 100" xml:space="preserve"><path d="M47.662,4.404c0,0-1.127-2.096-2.898-1.129C42.293,4.623,30.9,8.431,29.951,8.752C29,9.072,28.18,6.499,26.086,6.337  c-2.094-0.163-10.789,5.151-10.789,5.151L9.5,6.337c-0.967,5.313,4.188,9.822,4.188,9.822l-3.221,5.314  c5.15,5.635,19.484,4.831,19.484,4.831c-2.256-8.053,16.721-13.828,17.711-15.783C48.234,9.396,47.662,4.404,47.662,4.404z   M26.328,11.57c-1.023,0.438-2.02,0.394-2.23-0.098c-0.209-0.49,0.449-1.242,1.471-1.68c1.023-0.438,2.023-0.393,2.232,0.098  C28.012,10.383,27.352,11.133,26.328,11.57z"></path><path d="M8.533,24.774c9.342,7.085,21.014,4.83,21.014,4.83v5.797H0L8.533,24.774z"></path><path d="M65.391,17.895L73.83,1.577L70.777,0l-8.439,16.317c-5.934-1.927-13.08,1.566-16.633,8.434l22.412,11.593  C71.67,29.476,70.391,21.624,65.391,17.895z"></path><rect x="41.668" y="33.908" transform="matrix(0.8882 0.4594 -0.4594 0.8882 22.4341 -20.9563)" width="25.232" height="3.437"></rect></svg>