<svg height='100px' width='100px'  fill="#000000" xmlns:x="http://ns.adobe.com/Extensibility/1.0/" xmlns:i="http://ns.adobe.com/AdobeIllustrator/10.0/" xmlns:graph="http://ns.adobe.com/Graphs/1.0/" xmlns="http://www.w3.org/2000/svg" xmlns:xlink="http://www.w3.org/1999/xlink" version="1.1" x="0px" y="0px" viewBox="0 0 100 100" style="enable-background:new 0 0 100 100;" xml:space="preserve"><g><g i:extraneous="self"><g><g><path d="M55.5,52c0.4,0.2,0.8,0.3,1.2,0.3c1.3,0.1,2.5-0.7,3.1-1.9c1.3-2.8,3.3-6.1,5.6-8.9c5.7,3.1,11.8,3.2,16.6,0.3      c8.9-5.4,11.2-25.1,11.1-35.9c0-1.4-0.8-2.6-2-3.1c-1.3-0.5-2.7-0.3-3.7,0.6c-5,4.6-11,7-16.4,9.2c-7.8,3.2-14.5,5.9-15.6,13.7      c-0.2,1.7-0.1,3.3,0.5,5l0.5,1.5l1.2-0.9c3.8-2.8,9.8-6.1,17.5-7.4C69.4,28.2,59.4,35.9,54,47.7C53.2,49.3,53.9,51.2,55.5,52z"></path></g><g><path d="M18,41.8c4.8,2.9,10.9,2.8,16.6-0.3c2.2,2.9,4.3,6.2,5.6,8.9c0.6,1.2,1.8,1.9,3.1,1.9c0.4,0,0.8-0.1,1.2-0.3      c1.6-0.8,2.3-2.7,1.6-4.3c-5.5-11.8-15.4-19.5-21.2-23.2c7.7,1.3,13.7,4.6,17.5,7.4l1.2,0.9l0.5-1.5c0.6-1.7,0.7-3.4,0.5-5      c-1.1-7.8-7.8-10.5-15.6-13.7C23.6,10.4,17.5,8,12.6,3.4c-1-0.9-2.4-1.2-3.7-0.6c-1.3,0.6-2,1.7-2,3.1      C6.8,16.7,9.1,36.4,18,41.8z"></path></g><g><path d="M88.8,58.2H11.2c-1.3,0-2.4,1.1-2.4,2.4c0,11.7,6.7,22.1,16.9,28.5v6c0,1.3,1.1,2.4,2.4,2.4h44c1.3,0,2.4-1.1,2.4-2.4      v-6c10.2-6.5,16.9-16.8,16.9-28.5C91.2,59.3,90.1,58.2,88.8,58.2z"></path></g></g></g></g></svg>