<svg height='100px' width='100px'  fill="#000000" xmlns="http://www.w3.org/2000/svg" xmlns:xlink="http://www.w3.org/1999/xlink" version="1.1" x="0px" y="0px" viewBox="0 0 64 64" style="enable-background:new 0 0 64 64;" xml:space="preserve"><path d="M4,62h56c0.552,0,1-0.448,1-1V13c0-0.552-0.448-1-1-1H38v2h5v6H21v-6h5v-2H4c-0.552,0-1,0.448-1,1v48  C3,61.552,3.448,62,4,62z M5,54h6v6H5V54z M13,54h6v6h-6V54z M21,54h6v6h-6V54z M29,54h6v6h-6V54z M37,54h6v6h-6V54z M45,54h6v6h-6  V54z M53,46h6v6h-6V46z M53,44v-6h6v6H53z M53,36v-6h6v6H53z M53,28v-6h6v6H53z M51,52H13V22h38V52z M11,28H5v-6h6V28z M11,30v6H5  v-6H11z M11,38v6H5v-6H11z M11,46v6H5v-6H11z M53,60v-6h6v6H53z M59,20h-6v-6h6V20z M45,14h6v6h-6V14z M19,20h-6v-6h6V20z M11,14v6  H5v-6H11z"></path><path d="M35.966,8.639c-0.071-0.267-0.2-0.521-0.371-0.736c-0.771-0.971-1.907-1.426-3.035-1.226  c-1.088,0.196-1.979,0.97-2.322,2.02c-0.26,0.795-0.174,1.67,0.19,2.387l-3.652,4.043c-0.456,0.504-0.623,1.197-0.449,1.854  c0.175,0.657,0.665,1.175,1.311,1.387l4.678,1.531c0.205,0.067,0.416,0.1,0.625,0.1c0.449,0,0.891-0.152,1.252-0.443  c0.529-0.426,0.804-1.084,0.734-1.761l-0.599-5.436C35.715,11.731,36.388,10.2,35.966,8.639z M33.503,10.538  c-0.759,0.344-1.209,1.149-1.122,2.001l0.558,5.459l-4.678-1.531l3.653-4.043c0.59-0.654,0.712-1.582,0.304-2.308  c-0.139-0.246-0.167-0.529-0.079-0.797c0.115-0.35,0.412-0.608,0.775-0.673c0.059-0.011,0.118-0.016,0.176-0.016  c0.342,0,0.671,0.181,0.945,0.529C34.237,9.906,33.893,10.361,33.503,10.538z"></path><path d="M39.583,5.049c0.484-0.087,1.008-0.055,1.482,0.102l0.626-1.899c-0.786-0.259-1.643-0.319-2.466-0.17L39.583,5.049z"></path><path d="M38.237,5.669l-1.26-1.554c-0.649,0.527-1.16,1.212-1.477,1.983l1.85,0.761C37.54,6.397,37.847,5.985,38.237,5.669z"></path><path d="M43.032,7.249l1.937-0.498c-0.208-0.807-0.62-1.557-1.193-2.168L42.316,5.95C42.66,6.317,42.907,6.766,43.032,7.249z"></path><path d="M58.139,5.634c-0.4-0.729-0.922-1.375-1.55-1.921l-1.313,1.51c0.45,0.391,0.824,0.854,1.11,1.375L58.139,5.634z"></path><path d="M57,9c0,0.348-0.036,0.697-0.107,1.036l1.957,0.41C58.95,9.972,59,9.486,59,9c0-0.343-0.025-0.687-0.074-1.021l-1.979,0.29  C56.982,8.507,57,8.751,57,9z"></path><path d="M54.467,2.447C53.689,2.155,52.872,2.004,52.037,2l-0.01,2c0.597,0.003,1.181,0.11,1.735,0.319L54.467,2.447z"></path><path d="M48.763,5.189c0.454-0.387,0.967-0.686,1.524-0.889l-0.686-1.879c-0.781,0.285-1.499,0.704-2.135,1.244L48.763,5.189z"></path><path d="M16,48h14c0.552,0,1-0.448,1-1v-2h1c0.552,0,1-0.448,1-1v-8c0-0.552-0.448-1-1-1H18c-0.552,0-1,0.448-1,1v2h-1  c-0.552,0-1,0.448-1,1v8C15,47.552,15.448,48,16,48z M19,37h12v2c0-0.552-0.448-1-1-1H19V37z M17,40h12v6H17V40z"></path><path d="M34,34h14c0.552,0,1-0.448,1-1v-8c0-0.552-0.448-1-1-1H34c-0.552,0-1,0.448-1,1v8C33,33.552,33.448,34,34,34z M35,26h12v6  H35V26z"></path><path d="M44,45h-4c-0.552,0-1,0.448-1,1v4c0,0.552,0.448,1,1,1h4c0.552,0,1-0.448,1-1v-4C45,45.448,44.552,45,44,45z M43,49h-2v-2h2  V49z"></path><path d="M45.174,39.117l-3.532-1.876c-0.488-0.259-1.093-0.074-1.353,0.414l-1.877,3.532c-0.259,0.488-0.074,1.093,0.414,1.353  l3.532,1.877c0.146,0.077,0.307,0.117,0.469,0.117c0.098,0,0.197-0.015,0.292-0.044c0.254-0.078,0.466-0.252,0.591-0.487  l1.877-3.533c0.124-0.234,0.15-0.508,0.073-0.762C45.583,39.454,45.408,39.242,45.174,39.117z M42.414,42.181l-1.766-0.938  l0.938-1.766l1.766,0.938L42.414,42.181z"></path></svg>