<?xml version="1.0" encoding="utf-8"?>
<!-- Generator: Adobe Illustrator 24.2.1, SVG Export Plug-In . SVG Version: 6.00 Build 0)  -->
<svg version="1.1" id="Layer_1" xmlns:sketch="http://www.bohemiancoding.com/sketch/ns"
	 xmlns="http://www.w3.org/2000/svg" xmlns:xlink="http://www.w3.org/1999/xlink" x="0px" y="0px" viewBox="0 0 100 100"
	 enable-background="new 0 0 100 100" xml:space="preserve">
<path d="M76.5,35v-5c0-5.3-3.7-9.8-8.6-11.1c-0.9-2.6-1.4-6.7-1.4-9.9c0-4.1-3.4-7.5-7.5-7.5H41c-4.1,0-7.5,3.4-7.5,7.5
	c0,3.2-0.5,7.3-1.4,9.9c-4.9,1.3-8.6,5.8-8.6,11.1v40c0,5.3,3.7,9.8,8.6,11.1c0.9,2.6,1.4,6.7,1.4,9.9c0,4.1,3.4,7.5,7.5,7.5h18
	c4.1,0,7.5-3.4,7.5-7.5c0-3.2,0.5-7.3,1.4-9.9c4.9-1.3,8.6-5.8,8.6-11.1V45c0.8,0,1.5-0.7,1.5-1.5v-7C78,35.7,77.3,35,76.5,35z
	 M36.5,9c0-2.5,2-4.5,4.5-4.5h18c2.5,0,4.5,2,4.5,4.5c0,1.4,0.1,5.8,1.1,9.5H35.3C36.4,14.8,36.5,10.4,36.5,9z M63.5,91
	c0,2.5-2,4.5-4.5,4.5H41c-2.5,0-4.5-2-4.5-4.5c0-1.4-0.1-5.8-1.1-9.5h29.3C63.6,85.3,63.5,89.6,63.5,91z M73.5,70
	c0,4.7-3.8,8.5-8.5,8.5H35c-4.7,0-8.5-3.8-8.5-8.5V30c0-4.7,3.8-8.5,8.5-8.5h30c4.7,0,8.5,3.8,8.5,8.5V70z M65,23.5H35
	c-3.6,0-6.5,2.9-6.5,6.5v40c0,3.6,2.9,6.5,6.5,6.5h30c3.6,0,6.5-2.9,6.5-6.5V30C71.5,26.4,68.6,23.5,65,23.5z M60,57H40
	c-3.5,0-6.4-3.1-6-6.7c0.3-3,2.9-5.2,5.9-5.3l1.4-0.1l0.8-1.4c1.6-2.8,4.6-4.5,7.8-4.5s6.2,1.7,7.8,4.5l0.8,1.4l1.4,0.1
	c3,0.1,5.6,2.3,5.9,5.3C66.4,54,63.5,57,60,57z M53.7,46.3c-0.4-0.4-1-0.4-1.4,0L50,48.6l-2.3-2.3c-0.4-0.4-1-0.4-1.4,0
	c-0.4,0.4-0.4,1,0,1.4l2.3,2.3l-2.3,2.3c-0.4,0.4-0.4,1,0,1.4c0.2,0.2,0.5,0.3,0.7,0.3c0.2,0,0.5-0.1,0.7-0.3l2.3-2.3l2.3,2.3
	c0.2,0.2,0.5,0.3,0.7,0.3c0.2,0,0.5-0.1,0.7-0.3c0.4-0.4,0.4-1,0-1.4L51.4,50l2.3-2.3C54.1,47.3,54.1,46.7,53.7,46.3z"/>
</svg>
