<svg height='100px' width='100px'  fill="#000000" xmlns="http://www.w3.org/2000/svg" xmlns:xlink="http://www.w3.org/1999/xlink" version="1.1" x="0px" y="0px" viewBox="0 0 100 100" style="enable-background:new 0 0 100 100;" xml:space="preserve"><path d="M77.8,96.2c-2-0.4-4-0.4-6-0.5c-0.2,0-0.5-0.1-0.6,0.3c-0.1,0.7-0.6,0.6-1,0.6c-0.7,0-1.5-0.2-2.2-0.2  c-1.1-0.1-2.1-0.3-3.2,0c-0.5,0.2-0.9,0.2-1.4,0.2c-0.8-0.1-1.6-0.3-2.5-0.1c-1.6,0.4-3.2,0.3-4.8,0c-0.7-0.2-1.5-0.4-2.2-0.2  c-1.2,0.2-2.5,0.2-3.7,0.1c-1-0.1-2.1-0.1-3.1-0.2c-0.4,0-0.9-0.1-1,0.2c-0.3,0.7-0.8,0.5-1.2,0.4c-0.8-0.2-1.7-0.4-2.5-0.5  c-4.4-0.4-8.9-0.5-13.4-0.2c-0.8,0.1-1.6,0.3-2.5,0.2c-1-0.2-2.1-0.6-3.2-0.4c-0.1,0-0.2,0-0.2-0.1c-0.1,0-0.1-0.1-0.2-0.2  c-0.1-0.1,0-0.2,0.1-0.3c0.1-0.1,0.2-0.1,0.3-0.1c0.9-0.2,0.9-0.2,0.9-1.1c0.1-1.7,0-3.4,0.5-5c0.4-1.5,0.1-3.1,0.4-4.7  c0-0.2,0.1-0.6-0.1-0.6c-1-0.1-0.5-0.7-0.4-1.2c0.2-2,0.7-4,0.8-6c0.1-2.4-0.1-4.8,0-7.3c0.1-2.1,0.1-4.1,0.3-6.2c0.1-1,0-1-0.9-1.5  c-0.1,0-0.2-0.1-0.1-0.3c0.2-0.3,0.4-0.2,0.7-0.2c0.4,0,0.6-0.2,0.6-0.6c-0.1-2,0.2-4-0.3-5.9c-0.2-0.6-0.3-1.1,0.4-1.5  c-0.9-0.4-1.6-0.4-2.4-0.2c-2.2,0.7-4.3,0.1-6.1-1.3c1-0.6,1-0.7,0.9-1.8c-0.1-0.7-0.2-1.5-0.1-2.2c0.1-0.4,0-0.9-0.1-1.3  c-0.1-0.5-0.7-1,0.2-1.4c0.3-0.1,0-0.7-0.1-1c-0.4-1.5,0.1-2.2,1.7-2.4c0.9-0.1,1.7-0.1,2.6-0.2c2,0,4-0.5,6.1-0.5  c3.2,0.1,6.4,0,9.7,0c3.4,0,6.7,0.1,10.1,0c5.1-0.3,10.2-0.2,15.2,0.2c1.8,0.1,3.6,0.2,5.3,0c3.3-0.5,6.5,0.3,9.8,0  c0.1,0,0.2,0,0.2,0c1.3,0.5,2.8,0.3,4.1,0.5c0.5,0.1,1.1-0.1,1.5,0.4c0.2,0.3,0.7,0.3,0.9,0.2c0.7-0.4,1.3-0.1,1.9,0  c0.8,0.1,0.9,0.3,0.8,1.1c-0.1,1.4-0.1,2.7-0.2,4.1c-0.1,1,0,2,0,3c0,1.4-0.7,2-2,1.9c-1.7-0.1-3.3,0.5-4.9,0.6  c-0.4,0-0.5,0.3-0.6,0.7c0,1.2-0.2,2.3,0.2,3.4c0.2,0.5,0.3,1.1,0.2,1.7c-0.1,2.1-0.3,4.1-0.4,6.2c-0.4,5.7-0.1,11.5-0.5,17.2  c-0.1,2.5-0.2,5-0.4,7.5c0,0.3-0.1,0.7-0.3,0.9c-0.4,0.4-0.4,0.8-0.4,1.3c0.1,0.8-0.5,1.4-0.5,2.2c0,0.2-0.2,0.4-0.4,0.3  c-0.2,0-0.3-0.2-0.3-0.4c0-0.3,0-0.6,0-0.9c0-1,0.1-2.1,0.1-3.1c0-0.9,0-1-0.9-0.9c-2.5,0.2-5-0.1-7.4,0.2c-1.8,0.2-3.5,0.3-5.3,0.5  c-0.1,1.2,0.1,2.4,0.3,3.5c1.6,0.1,3.2,0.2,4.8,0.7c-0.4,0.5-0.8,0.3-1.1,0.1c-0.6-0.2-1.3-0.4-1.8-0.3c-0.8,0.2-1.4,0.2-2.1-0.2  c-0.1-0.1-0.3-0.1-0.3,0.1C64,93.7,64,94,64,94c0.7,0.3,0.3,0.8,0.2,1.2c1,0.3,1.9,0.1,2.9,0c2.3-0.2,4.6-0.5,6.9-0.4  c1.1,0,1.1,0,1.3-1.1c0.1-0.3,0-0.6,0-0.8c0-0.4-0.1-0.8,0.3-1.3c0.4,1.1,0.1,2,0.3,2.9c0.1-1.4,0.1-2.8,0.2-4.3  c0.8,1.4-0.1,2.9,0.3,4.4c1.6-0.2,3.2,0,4.8,0.1c-0.8,0.7-1.9,0.5-3,0.6c0.4,0.4,0.9,0.2,1.2,0.8C78.8,96.4,78.3,96.4,77.8,96.2z   M85.7,43c-5.8-0.6-11.7-0.7-17.6-0.9c-1.6,0-3.2,0-4.8,0.3c-1.2,0.2-2.4,0.1-3.7,0c-1.7-0.2-3.4-0.1-5.1-0.1  c-1.9,0-3.7,0.1-5.6,0.2c-1.3,0-2.6-0.4-3.9-0.3c-1.2,0.1-2.3-0.1-3.5,0.2c-0.1,0-0.3,0.1-0.4,0c-1.7-0.8-3.5-0.4-5.2-0.4  c-0.4,0-0.9,0-1,0.5c-0.1,0.4,0.3,0.7,1,0.7c0.7,0.1,1.4,0.1,2.1,0.3c-0.3,0.2-0.7,0.1-1.1,0.2c-0.5,0-0.9,0.1-1.4,0.1  c-0.2,0-0.5,0.1-0.5,0.4c0,0.3,0.3,0.2,0.5,0.2c0.2,0,0.3,0,0.6,0c-0.5,0.3-1,0.2-1.3,0.6c-0.2,0.4-0.2,0.8-0.1,1.2  c0.2,1.3-0.2,2.6,0.1,4c-0.4,0-0.2-0.7-0.6-0.5c-0.3,0.1-0.6,0.1-0.8,0.3c-0.4,0.7-1.1,0.5-1.7,0.5c-2-0.1-4-0.1-6,0.1  c-0.7,0.1-1.4,0.2-2-0.3c-0.2-0.2-0.5-0.1-0.7-0.1c-0.7,0.1-1.3,0.1-1.9-0.2c-0.3,0.4-0.2,0.7-0.2,1c0,0.3,0.3,0.5,0.6,0.5  c0.5,0,1.1,0.1,1.6,0c2-0.5,3.9-0.3,5.9-0.3c4.3-0.1,8.6-0.3,12.9-0.2c5.3,0.1,10.6,0,15.9,0.2c3.2,0.1,6.3-0.4,9.5-0.3  c2.9,0,5.7,0.4,8.5,0.3c2.4-0.1,4.9,0,7.3,0c1,0,2,0.1,3.1-0.1c0-1,0.4-1.9,0.7-2.9c0.4-1.4,0.3-3-0.2-4.5  C86.8,43,86.1,43.2,85.7,43L85.7,43z M46,69.5c-0.4,0.7-0.9,0.4-1.3,0.7c0.5,0.4,1.1,0.1,1.6,0.2c0.6,0.1,1.1,0.1,1.8,0.2  c-5.9,1-11.7,0.8-17.4,1c1,0.3,2,0.1,3,0.2c-0.9,0.4-1.8,0.1-2.7,0.3c-0.4,0-0.8-0.1-0.7,0.5c0,0.3-0.2,0.3-0.4,0.3  c-0.4,0-0.7,0.1-1,0.4l0,0c-0.2,0-0.3,0-0.5,0c-0.3,0-0.5,0.2-0.7,0.4c-0.1-0.3-0.4-0.3-0.6-0.3c-0.4,0-0.7,0.1-0.7,0.6  c-0.1,2.2-0.2,4.5-0.2,6.7c0,0.9,0,0.9,0.9,0.9c2.4,0,4.8,0,7.2,0c1.9,0,3.9,0,5.8-0.1c0.4,0,0.8,0.1,1-0.5c0.1-0.3,0.5-0.2,0.8-0.2  c1-0.1,2.1,0.1,3.1-0.1c-0.2-1.1,0-2.2,0-3.4c0-1.1-0.1-2.3-0.3-3.4c-0.2-0.7,0.2-1.4,0.2-2.1c0-0.1,0.1-0.2,0.2-0.2  c0.2,0,0.2,0.1,0.3,0.2c0.2,0.3,0.2,0.7,0.2,1.1c-0.1,2.1,0.1,4.3-0.1,6.4c0,0.2,0,0.4,0.1,0.6c0.1,0.9,0.1,0.9,1,0.9  c2.6,0.2,5.2,0.3,7.8,0.4c1.6,0,3.1-0.4,4.7-0.4c1.7,0,3.5,0,5.2-0.1c0.6,0,1.4,0.1,1.8-0.7c0.2-0.3,0.8-0.2,1.2-0.2  c1.6,0.1,3.2,0.2,4.8,0.3c1.6,0.1,3.1,0,4.7-0.2c0.4-0.1,0.5-0.3,0.5-0.6c0-1,0-2,0.1-3c0-0.5-0.1-1,0.2-1.5  c0.5,0.3,0.1,0.8,0.5,1.2c0.2-1.4,0.5-2.8,0.5-4.2c0-0.5-0.1-0.8-0.7-0.7c-0.3,0-0.6,0.1-0.9-0.1c0.2-0.4,0.5-0.4,0.7-0.3  c0.8,0.1,1-0.3,1-1c0-2.5,0.4-4.9,0.4-7.4c0-1,0-1-1-1c-1.4,0-2.9-0.1-4.3,0.1c-0.9,0.1-0.9,0.2-1,1.1c-0.1,2.4-0.3,4.8-0.4,7.2  c0,0.1-0.1,0.2-0.1,0.3c-0.6-0.8-0.7-1.6-0.5-2.6c0.1-0.9-0.1-1.8-0.3-2.7c-0.1-0.2-0.2-0.5,0-0.7c0.5-0.1,0.2,0.6,0.6,0.6  c0.2-0.9-0.1-1.8,0.2-2.7c0.1-0.3-0.2-0.5-0.4-0.5c-0.6,0-1-0.2-1.5-0.6c-0.3-0.3-0.9-0.2-1.4-0.3c-0.1,0-0.3,0-0.2,0.2  c0.2,0.5,0,0.7-0.5,0.6c-0.6-0.1-1.4,0.3-1.5-0.7c-0.1-0.1-0.2-0.1-0.3-0.1c-0.8,0.9-1.8,0.9-2.9,0.9c-3.3,0-6.6,0-9.9,0  c-0.7,0-1.3,0.2-2,0.2c-1.3,0.1-2.6,0-3.9-0.1c-2-0.2-4,0.1-6,0.2c-1.3,0.1-2.6,0-3.8-0.1c-0.5,0-0.8,0.1-0.8,0.6  c0,0.3-0.2,0.6-0.2,0.8c0,2.4,0.1,4.7,0,7.1c0,0.6,0.2,0.8,0.8,0.8c1.7,0,3.4-0.1,5.1-0.2c0.5,0,1-0.1,1.3,0  c-1.6-0.6-3.4-0.4-5.2-0.3c0.7-0.6,1.5-1.1,2.6-0.9c-0.5-0.6-1.1-0.4-1.5-0.7c-0.1-0.1-0.3-0.2-0.2-0.4c0-0.1,0.2-0.2,0.3-0.2  c1.5-0.2,3-0.4,4.5-0.2c-1.1,0.5-2.3,0.2-3.4,0.5c0.1,0.3,0.5,0.3,0.7,0.3c1-0.1,2.1,0.3,3.1,0c0.2-0.1,0.4,0.1,0.4,0.2  c0.1,0.2-0.1,0.4-0.3,0.4c-0.3,0-0.6,0-0.9,0c-0.3,0-0.6,0.1-0.7,0.4c-0.8-0.4-1.7,0-2.5-0.1c0.8,0.3,1.7,0,2.5,0.1  C44.2,69.6,45,69.8,46,69.5z M39.3,90.2c0.1,0.2,0.2,0.3,0.4,0.3c1.4-0.1,2.8,0.2,4.3-0.3c0.4-0.2,1,0.2,1.5,0.1  c1.6-0.2,3.2-0.4,4.8-0.6c0.8-0.1,1.5-0.3,2.3,0.1c0.3,0.1,0.7,0,1,0c0.3,0,0.5-0.1,0.5-0.5c0.1-1.7,0.4-3.4,0-5.1  c-0.1-0.7,0.2-1.4,0.2-2.2c0-0.1,0.1-0.2,0.3-0.2c0.1,0,0.2,0.1,0.3,0.2c0.1,0.3,0.2,0.7,0.2,1.1c-0.1,1.7-0.2,3.4-0.2,5.1  c0,0.5-0.4,0.9-0.2,1.5c1.4,0.1,2.9-0.1,4.3-0.3c-0.8-0.1-1.6-0.3-2.3-0.6c-0.4-0.2-0.6-0.5-0.6-0.8c0-0.3,0.3-0.7,0.7-0.7  c0.9,0,1.8-0.1,2.7-0.2c0.2,0,0.5,0,0.5,0.2c0.3,0.9,0.9,0.6,1.5,0.5c0.2,0,0.5-0.1,0.8,0.1c-0.3,0.6-0.8,0.6-1.3,0.6  c-0.8,0-1.6-0.2-2.4,0.3c2,0.2,4,0.4,5.8,0.1c1.9-0.3,3.7-0.4,5.5-0.4c0.7,0,0.8-0.5,0.8-1c0-1.9,0.1-3.8-0.2-5.7  c0-0.3-0.2-0.6,0.2-0.9c0.3,0,0.4,0.2,0.4,0.5c0.2,0.9,0.4,1.8,0.2,2.7c-0.2,1.2,0.1,2.4-0.4,3.6c-0.2,0.5,0.2,0.7,0.7,0.8  c1.2,0.2,2.5,0.1,3.8,0c-0.4-0.4-1,0-1.3-0.7c1,0,2,0,2.9,0c0.4,0,0.6-0.1,0.6-0.5c0.3-2,0.6-3.9,0.5-5.9c0-0.9,0-0.8-0.9-0.8  c-2.4,0-4.8,0-7.2,0c-2.4,0-4.8,0.2-7.2,0.5c-1.7,0.2-3.5-0.1-5.2,0.2c-3.1,0.6-6.2,0.2-9.2,0.6C48,82,47.3,82,46.9,81.5  c-0.2-0.2-0.4-0.2-0.7-0.2c-2.6,0.1-5.1,0.2-7.7,0.3c-0.5,0-0.9,0.1-1.3,0.3c-0.6,0.2-0.8,0.6-0.8,1.2c0,1.8,0.1,3.6,0,5.3  c0,0.6,0.2,0.9,0.8,0.9c1.7,0,3.3-0.1,5-0.2c0.5,0,1-0.1,1.5,0.3C42.2,89.6,40.8,89.8,39.3,90.2z M61.8,60.1c0.6-0.3,1.3,0.1,2-0.2  c-0.6-0.5-0.5-1-0.3-1.6c0.3-1.2,0.6-2.3,0.5-3.5c0-0.2,0-0.3,0-0.5c-0.4-1.7-0.1-1.5-1.7-1.6c-3.8-0.2-7.6-0.3-11.4-0.3  c-1.3,0-2.7,0.4-4,0.2c-0.3,0-0.4,0.2-0.3,0.5c0.5,1.9,0.2,3.8,0,5.6c-0.1,1.9-0.2,1.9,1.6,1.9c2-0.1,3.9-0.1,6-0.2  c-0.7,0.5-0.7,0.5-1.7,0.4c-0.7,0-1.3,0-2,0c-0.6,0-1.2,0-1.8,0.1c1.3,0.5,2.6,0.6,4,0.3c0.4-0.1,0.9-0.1,1.4-0.1  c2.3,0.2,4.6-0.1,6.9,0c0.8,0,1.4-0.7,2.2-0.4C62.7,60.1,62.2,60.5,61.8,60.1z M30.6,54c-0.1,0.4-0.5,0.2-0.8,0.3c-0.7,0-1.3,0-2,0  c-0.4,0-0.6,0.1-0.6,0.5c0,1.4,0,2.7,0,4c0.4,0.1,0.6,0.1,0.9,0c0.5-0.1,0.8-0.1,0.7-0.9c-0.1-1-0.3-2-0.4-3c0.5-0.1,0.8,0,1.2,0  c0.9,0.1,0.9,0.1,1.2,1.1c0.1,0.4,0.1,1,0.6,1.1c0.3,0.1,0.8,0.1,1-0.4c0.2-0.4,0-1.2-0.5-1.4c-0.2-0.1-0.4,0-0.5-0.2  c1.2-0.1,1.2-0.1,1.3,1c0.1,0.6,0.1,0.6,0.4,1.2c-0.9,0-1.7-0.1-2.5-0.1c-0.2,0-0.4,0-0.5,0.2c-0.1,0.2,0.1,0.4,0.4,0.4  c0.6,0,1.2,0,1.7,0c0.2,0,0.4,0,0.8,0.1c-1,0.2-1.7,0.1-2.4,0.1c-0.3,0-0.6-0.1-0.6,0.4c0,0.4,0.2,0.6,0.6,0.6c0.7,0,1.3,0,2,0  c0.6,0,1.1,0,1.7,0.1c-0.6,0.4-1.3,0.1-1.9,0.3c-0.6,0.2-1.3,0-2.2,0c0.6,0.5,1.2,0.6,1.7,0.7c-0.6,0-1.2,0-1.9,0.1  c-0.2,0-0.7,0-0.6,0.5c0,0.4,0.3,0.3,0.6,0.3c2.2-0.1,4.4,0.2,6.6,0.1c2.1-0.1,4.3,0,6.4,0c0.5,0,1,0.1,1.5-0.1  c1.1-0.3,1.1-0.4,0.9-1.5c0-0.3-0.1-0.7,0-0.8c0.8-0.9,0.5-1.9,0.2-2.9c-0.2-0.7,0-1.4,0-2.1c0-1,0-1-1-1.1c-2-0.1-4,0.1-5.9,0  c-0.3,0-0.8,0.1-0.4,0.6c-0.1,0.1-0.3,0.2-0.4,0.2c-0.7,0.1-1.3,0.1-2,0.1c-0.7,0-1.4,0-2.1,0.2c-0.5,0.1-1,0.1-1.5,0  c-1.1-0.3-2.2,0.2-3.5,0.1C29.5,54.4,30.1,53.8,30.6,54z M74.7,52.6c-3,0.1-6-0.3-9-0.2c-0.2,0-0.5,0-0.7,0  c-0.6,0.1-0.8,0.3-0.5,0.8c0.5,0.9,0.3,1.8,0.2,2.8c0,0.5-0.1,1.1-0.2,1.6c0,0.8,0,0.9,0.9,0.9c1.1,0,2.2,0.1,3.3,0.1  c0.2,0,0.5,0,0.7,0.1c-0.6,0.4-1.2,0.3-1.8,0.3c-0.7,0-1.5-0.1-2.2-0.1c-0.4,0-1.1-0.2-1.1,0.6c0,0.6,0.1,0.7,1.1,0.7  c1.6,0,3.3-0.1,4.9-0.2c0.3,0,0.6-0.2,0.8,0.3c0.1,0.3,0.5,0.1,0.8,0.1c1.4,0,2.9,0,4.3-0.1c-1.1,0.5-2.3,0.2-3.4,0.4  c1.9,0.3,3.8-0.1,5.8-0.2c0.3-2.5,0.5-5.1,0.3-7.6C77.6,52.5,76.1,52.5,74.7,52.6z M50.6,95.5c0.3,0.3,0.7,0.3,1,0.3  c3.8-0.1,7.6-0.2,11.4-0.4c0.6,0,0.7-0.4,0.7-0.9c0-1,0.1-2-0.1-3c-0.1-0.6-0.1-1.1-0.2-1.8c-1.4,0.1-2.8,0.2-4.1,0.4  c-2.5,0.3-4.9,0.3-7.4,0.3c-2.1,0-4.3,0.2-6.4,0.4c-0.6,0-0.9,0.2-0.9,0.9c0.1,1.2,0,2.4-0.3,3.6c0.5,0.1,1,0.4,1.4-0.3  c0.1-0.3,0.4-0.2,0.7-0.2c1.6,0,3.1,0.1,4.7,0c0.3,0,0.5,0.1,0.8,0.3C51.5,95.4,50.9,95.1,50.6,95.5z M28.3,94.6  c-0.3,0.1-0.6,0.1-0.8-0.1c-0.3-0.2,0-0.4,0.1-0.6c0.2-0.6-0.7-0.5-0.7-1c0-0.4,0.9-0.4,0.4-0.9c-0.1-0.1-0.1-0.3,0-0.4  c0.2-0.1,0.4-0.1,0.5,0.1c0.2,0.3,0.4,0.4,0.7,0.3c1.4-0.2,2.7,0.5,4.1,0.3c0.3,0,0.6,0.1,0.7,0.4c-0.1,0.4-0.4,0.3-0.6,0.2  c-0.7-0.2-1.4-0.1-2.1-0.1c-0.2,0-0.5,0-0.5,0.4c0,0.2,0.1,0.4,0.3,0.5c0.2,0.1,0.6,0.1,0.7,0.5c-0.5,0.4-1.7,0-1.3,1.3  c0.2,0,0.4,0.1,0.6,0.1c3.8-0.2,7.6,0,11.4-0.1c0.6,0,1.1,0.2,1.7,0.1c0.3,0,0.6-0.1,0.6-0.5c0-1.1,0.3-2.3,0-3.4  c-0.1-0.4-0.2-0.6-0.6-0.5c-0.8,0-1.7,0-2.5,0c-0.5,0-1.2,0.2-1.6-0.1c-1.2-0.9-2.6-0.5-3.8-0.4c-2.9,0.3-5.7,0.3-8.5-0.4  c-0.1,0-0.2-0.1-0.2-0.1c-0.5-0.1-0.8,0-0.8,0.6c0,0.7-0.1,1.3-0.2,2c-0.1,0.6-0.1,1.1-0.4,1.7c-0.4,0.9-0.2,1.2,0.8,1.2  c0.3,0,0.6,0,0.9-0.1c0.7-0.2,1.4-0.3,2.1,0.1C29.1,94.6,28.9,94.3,28.3,94.6z M30.9,69.6c0.2,0,0.5,0.1,0.7,0.1  c0.5,0,0.9-0.2,0.8-0.8c0-0.7,0-1.3,0-2c0-0.6-0.3-0.8-0.7-0.6c-0.4,0.1-0.7-0.1-1.1,0c-0.1,0.6-0.2,1.3-0.3,1.9  c0,0.2,0,0.5-0.3,0.5c-0.2,0-0.4-0.1-0.6-0.4c-0.1-0.4-0.2-0.8-0.2-1.2c-0.1-0.8-0.3-0.9-1-0.9c-0.4,0-0.5,0.2-0.5,0.5  c0.1,1.6,0.3,3.1,0.3,4.7c0,0.4,0.4,0.4,0.6,0.3c1.7-1.1,3.8-0.5,5.6-1.1c0.5-0.2,1,0.3,1.6,0.1c0.2-1.6,0-3.2-0.4-4.8  c-0.2-0.9-0.6-1.8,0.6-2.3c0.2-0.1,0.1-0.3,0.1-0.4c-0.1-0.4-0.1-0.8-0.1-1.2c0-0.5-0.3-0.6-0.7-0.4c-0.7,0.4-1.3,0.3-2,0.2  c-1.7-0.2-3.5,0.3-5.2,0.1c-0.5-0.1-0.8,0.2-0.8,0.7c0,0.9-0.1,1.7,0,2.6c0.1,0.6,0.8,1,1.3,0.7c0.2-0.1,0.2-0.3,0.2-0.5  c0-0.2-0.1-0.4-0.2-0.6c0-0.2,0-0.3,0-0.7c0.4,0.6,1,0.1,1.4,0.4c0.5,0.5,1.1,0.1,1.8,0.4c-0.5,0.1-0.9,0.2-1.3,0.2  c-0.2,0-0.3,0.1-0.3,0.4c0,0.2,0,0.5,0.3,0.5c0.4,0,0.8,0.1,1.2,0c0.2,0,0.3-0.2,0.4-0.4c0-0.3-0.3-0.8,0.2-0.8  c0.7,0,0.1,0.6,0.1,0.9c0.2,1.3,0.1,2.6,0.1,3.8c0,0.2,0,0.4-0.1,0.7c-1.4-0.8-3,0.2-4.6-0.7C29.2,69.5,30,69.5,30.9,69.6z   M27.3,83.9c-0.2,0-0.3,0-0.5,0c-0.2,0-0.3,0.1-0.3,0.3c0,0.2,0.1,0.3,0.3,0.2c0.5-0.1,1-0.2,1.5-0.3c0.2,0,0.3,0,0.5,0.1  c-0.8,0-1,1.3-2.1,0.9c-0.2-0.1-0.5,0.2-0.5,0.5c0,1.1-0.1,2.2-0.2,3.4c1.4-0.5,2.7-0.3,4-0.1c0.6,0.1,1.1,0,1.7,0  c1.2-0.1,2.4,0.3,3.7,0.4c0.4,0,0.6-0.1,0.6-0.6c0.1-1.8,0.2-3.6-0.1-5.4c-0.1-1-0.1-1-1-0.8c-1.5,0.2-3.1,0.1-4.6,0.1  c-1,0-2.1,0-3.1-0.2c-0.4-0.1-0.9-0.1-0.9,0.5c0,0.2-0.1,0.4,0.3,0.4c1.1,0.1,2.2,0.1,3.3,0.2C29.1,83.9,28.2,83.8,27.3,83.9z   M29.3,42.9c1.7,0,3.4,0.4,5.1,0.2c0-0.8-0.4-1.2-1.1-1.2c-0.9,0-1.7-0.5-2.6,0.2c-0.4,0.3-1.1,0.2-1.6,0.1c-1.2-0.3-2.4,0-3.6,0.1  c-0.5,0.1-1.1,0.1-1.6,0.1c0,0.1,0,0.1,0,0.2C25.8,42.7,27.6,42.9,29.3,42.9z M21,45.5c-0.1-0.4,0.6-1.2-0.5-1.2  c-0.1,0-0.1-0.1-0.2-0.1c-0.1-0.4,0.5-0.2,0.5-0.6c-0.7-0.1-0.9-0.4,0.1-1c-1.4,0.4-1.5,0.5-1.3,1.2c0.4,1.5,0,3.1,0.5,4.7  c0.1,0.3,0,0.5-0.2,0.9c-0.4,0.5-0.5,1.2-0.5,1.8c0,0.6,0.5,0.4,0.8,0.5c0.5,0,0.7-0.2,0.6-0.7c-0.3-1.7,0-3.4-0.4-5.2  c-0.1-0.3-0.1-0.7,0.2-1C21,44.9,20.8,45.3,21,45.5z M27.5,49.4c0,0.5,0.4,0.4,0.6,0.4c0.9,0,1.9,0,2.8,0c0.3,0,0.7-0.1,1,0  c0.7,0.4,1,0,1.4-0.7C31.2,49.2,29.4,49.3,27.5,49.4z M26.7,71.2c0,0.3,0,0.7,0.5,0.7c0.5,0,0.5-0.3,0.5-0.6  c-0.1-1.2-0.2-2.4-0.3-3.7c0-0.1-0.1-0.2-0.3-0.2C27,68.6,26.8,69.9,26.7,71.2z M21.6,46c0.1,0.4,0.4,0.4,0.8,0.4  c0.3-0.1,0.5-0.3,0.3-0.5c-0.2-0.3,0-0.5,0.1-0.8c0.1-0.3,0.2-0.6-0.1-0.9c-0.3-0.2-0.7-0.3-1.1-0.1c-0.4,0.2-0.2,0.6-0.2,0.9  C21.5,45.3,21.5,45.6,21.6,46z M36.8,89.9c-2.5-0.2-5.1,0-7.6-0.1C31.8,90.4,34.3,90.2,36.8,89.9z M22.6,48.8c0.5-0.3,1-0.8,1.4-1.2  c0.1-0.1,0-0.2,0-0.4c-0.1-0.2-0.4-0.2-0.4-0.1c-0.3,0.5-0.7,0.4-1.2,0.2c-0.4-0.1-0.7,0.1-0.6,0.6C21.9,48.8,22.2,49.1,22.6,48.8z   M28.3,48.1c-0.5,0-1.3,0-1.2,0.6c0.1,0.6,0.9,0.4,1.4,0.4c0.2,0,0.4,0,0.6,0c0.3,0,0.6-0.1,0.6-0.5c-0.1-0.3-0.1-0.8-0.7-0.5  c-0.1,0.1-0.3,0.1-0.4,0.1C28.4,48.1,28.4,48.1,28.3,48.1z M34.5,45.7c0-2.2,0-2.2-2.3-1.8c0.3,0.5,0.9,0.9,1.2,0.8  c1-0.4,0.9,0.3,0.9,0.9c0,0.3-0.1,0.6,0.2,0.8C34.5,46.1,34.5,45.9,34.5,45.7z M27.2,59.8c-0.1,1.2,0.2,1.4,1.3,1.2  c0.3,0,0.5-0.1,0.4-0.5c0-0.3-0.1-0.5-0.4-0.5c-0.2,0-0.5-0.1-0.7-0.2c-0.2-0.1-0.2-0.5-0.5-0.5C27.2,59.5,27.2,59.7,27.2,59.8z   M29,55.2c-0.1,0.9,0,1.7,0.5,2.7c0.3-0.8,0.2-1.4-0.1-2c0.8-0.1,0.6,0.7,1.1,0.9C30.4,55.3,30.4,55.3,29,55.2z M33.7,45.3  c0-0.2-0.1-0.4-0.4-0.4c-0.3,0-0.5,0.2-0.5,0.4c0,0.2,0,0.3,0,0.5c0,0.2,0.1,0.6,0.2,0.7c0.5,0.2-0.3,1,0.4,0.9  c0.5-0.1,0.1-0.7,0.2-1C33.7,46,33.7,45.6,33.7,45.3z M77.6,79.4c-0.1,0.2-0.2,0.5,0.2,0.5c0.3,0,0.5-0.1,0.6-0.3c0-0.2,0-0.3,0-0.5  c0-0.8,0-1.6,0-2.3c0,0-0.1,0-0.1,0C78,77.6,77.8,78.5,77.6,79.4z M26.1,46.4c0.2,0,0.4-0.1,0.4-0.4c0-0.2,0-0.4-0.2-0.5  c-0.4-0.2-1,0.2-1.4-0.2c-0.2,0.2-0.3,0.4-0.3,0.6c0,0.2,0.1,0.4,0.3,0.4c0.3,0,0.6,0,0.9,0.1c0,0,0,0,0,0  C25.8,46.4,26,46.4,26.1,46.4z M28.6,45.4c-0.4-0.2-0.8-0.1-1.2,0c-0.3,0.1-0.3,0.3-0.3,0.6c0,0.3,0.2,0.5,0.5,0.5  c0.4,0,0.9,0.1,1.3-0.1C28.8,46,28.9,45.6,28.6,45.4z M24.7,43.5c0.8,0.3,2.5,0.5,3.6,0.3C27.6,43.4,25.9,43.2,24.7,43.5z   M33.5,48.2c0-0.4-0.2-0.5-0.5-0.4c-0.4,0.1-1-0.1-1,0.6c-0.1,0.6,0.4,0.4,0.7,0.4C33.2,48.9,33.5,48.7,33.5,48.2z M26.3,49.2  c0.2-0.1,0.3-0.3,0.2-0.5c-0.1-0.2,0-0.4-0.2-0.5c-0.2,0-0.5-0.1-0.7,0c0.2,0.2,0.6,0.4-0.1,0.3c-0.3,0-0.7,0.1-0.7,0.5  c0,0.3,0.4,0.3,0.8,0.3C25.8,49.3,26,49.3,26.3,49.2z M29.2,47.5c0.2,0,0.3-0.2,0.2-0.4c0-0.1-0.1-0.2-0.2-0.2  c-0.7,0.2-1.4,0-2.1,0.4C27.8,47.6,28.5,47.6,29.2,47.5z M31.5,48.2c0-0.4-0.3-0.4-0.6-0.4c-0.3,0.1-0.8-0.1-0.8,0.5  c0,0.5,0.4,0.5,0.8,0.5C31.3,48.9,31.5,48.7,31.5,48.2z M31.2,46.5c0.5,0,0.5-0.4,0.5-0.8c0-0.2,0.1-0.6-0.3-0.6  c-0.6,0-0.4,0.6-0.5,0.8C30.9,46.3,31,46.5,31.2,46.5z M30.1,47.3c0,0.4,0.5,0.2,0.8,0.3c0.1,0,0.2,0,0.2,0c0.2,0,0.4-0.1,0.4-0.4  c0-0.3-0.3-0.3-0.5-0.3c-0.1,0-0.2,0-0.2,0C30.5,47,30,46.8,30.1,47.3z M24.6,44.4c0.6,0.3,1.2,0.3,2.1,0  C25.8,44.1,25.2,44.1,24.6,44.4z M26.2,47.6c0.1,0,0.2-0.1,0.2-0.3c0-0.1-0.1-0.2-0.2-0.3c-0.5,0-1.1-0.2-1.8,0.4  C25.2,47.7,25.7,47.7,26.2,47.6z M34,49.3c0,0,0.1,0.1,0.2,0.1c0.1,0,0.2-0.1,0.2-0.2c0.1-0.2,0-0.8-0.1-1.4  C34,48.1,33.8,49,34,49.3z M28,92.9c0.4,0.3,0.9,0.3,1.3,0.1c0,0,0.1-0.2,0-0.2c-0.1-0.3-0.4-0.3-1.4,0C28,92.8,28,92.9,28,92.9z   M32.5,81.9c-0.6-0.2-1.2-0.1-2,0.1C31.4,82.2,31.9,82,32.5,81.9z M30.1,46.5c0.6-0.4,0.4-0.9,0.2-1.5  C29.9,45.5,29.9,45.9,30.1,46.5z M21.2,47.4c-0.2,0.5-0.2,0.9,0,1.6C21.7,48.3,21.3,47.9,21.2,47.4z M22.4,49.9c0.2,0,0.4,0,0.4-0.3  c0-0.2-0.1-0.5-0.4-0.5c-0.2,0-0.4,0.1-0.4,0.2C22,49.7,22.1,49.9,22.4,49.9z M23.3,46c0,0.2,0,0.4,0.2,0.4c0.3,0,0.5,0,0.5-0.4  c0-0.2-0.1-0.3-0.3-0.3C23.5,45.6,23.3,45.7,23.3,46z M30.5,43.9c-0.5-0.5-1-0.3-1.4-0.1C29.5,44.1,30,44.2,30.5,43.9z M29.9,66.5  c-0.3,0.6-0.1,1.2-0.1,1.7C30,67.7,30.1,67.2,29.9,66.5z M28.6,93.4c-0.2-0.1-0.4-0.1-0.5,0.1c0,0,0.1,0.2,0.1,0.2  c0.2,0,0.4,0,0.6,0c0,0,0-0.1,0.1-0.1C28.8,93.6,28.7,93.5,28.6,93.4z M28.6,53.5c-0.4-0.2-0.8-0.1-1.1-0.1  C27.9,53.5,28.2,53.7,28.6,53.5z M25.6,81.8c0,0.2,0.1,0.3,0.3,0.2c0.1,0,0.3-0.1,0.2-0.2c-0.1-0.1-0.3-0.2-0.4-0.2  C25.5,81.5,25.6,81.6,25.6,81.8z M29.7,66c0.1,0.1,0.2,0,0.2-0.1c0.1-0.3,0.1-0.6-0.3-0.7C29.5,65.5,29.4,65.7,29.7,66z M35.2,82.1  c-0.6-0.2-0.9-0.1-1.2,0C34.3,82.1,34.6,82.1,35.2,82.1z M31.7,43.9c0-0.1-0.1-0.2-0.3-0.2c-0.2,0-0.3,0-0.4,0.2  c-0.1,0.3,0.2,0.2,0.3,0.3C31.5,44.1,31.7,44.1,31.7,43.9z M32.3,47.5c0.1,0,0.2-0.1,0.2-0.2c0-0.2-0.1-0.3-0.3-0.3  c-0.1,0-0.2,0.1-0.2,0.2C32.1,47.4,32.2,47.5,32.3,47.5z M64.7,60.5c0,0.2,0.1,0.3,0.3,0.3c0.1,0,0.2-0.1,0.2-0.2  c0-0.2-0.2-0.2-0.3-0.2C64.8,60.4,64.6,60.4,64.7,60.5z M80.3,60c-0.3,0.1,0,0.3,0,0.3C80.3,60.3,80.3,60.1,80.3,60z M68.3,80.3  c-0.1,0-0.1-0.1-0.2-0.1c-0.1,0-0.2,0-0.2,0.1c0,0.1,0,0.1-0.1,0.2C68.1,80.3,68.2,80.3,68.3,80.3z"></path><path d="M48.4,15.5c0.8-1.2,1.9-2,2.9-2.8c2.8-2.1,6-1.3,7.8,1.9c0.9,1.6,1.6,3.3,2.5,5c0.9,1.6,1.2,3.2,1.2,5  c-0.1,2.3-0.6,4.5-1.6,6.7c-1.8,3.9-5,4.9-8.7,4.9c-0.3,0-0.5-0.1-0.7-0.2c-0.9-0.6-1.7-1.1-2.6-1.7C49,34.3,49,34.1,49,33.9  c-0.2-1-1.1-1.4-1.9-0.8c-0.6,0.4-1.1,0.8-1.7,1.2c-0.8,0.6-1.7,0.9-2.8,0.9c-2.6-0.1-5-1-7.3-2.2c-0.2-0.1-0.6-0.1-0.4-0.5  c0.6,0,1.1,0.6,1.9,0.5c-2.1-1.4-3.9-2.8-5.5-4.5c-0.2,0.1-0.3,0.3-0.4,0.3c-0.8,0.4-1.6,1.2-2.4,1.1c-1-0.1-2,0.1-3.1-0.1  c-1.4-0.2-2.5-0.7-3.4-1.8c-0.1-0.1,0-0.3-0.3-0.3c-1.1,0.1-1.6-0.8-2.2-1.5c-0.4-0.5-0.8-1-1.4-1.4c-1.5-1-2.6-2.4-3.3-4.1  c-0.4-0.9-0.8-1.9-1.1-2.9c-0.7-2.4-1-4.7-0.3-7.2c0.3-1,0.7-1.8,1.7-2.3c0.8-0.5,1.6-1.1,2.2-2c0.7-1,1.8-1.6,3.1-1.8  C22,4.3,23.3,4.7,24.3,6c0.5-1,1.4-1.9,2.6-2.3c2.5-0.9,5-1.7,7.8-1.4c3.5,0.5,6.9,1.4,9.7,3.7c0.9,0.7,1.8,1.4,2.3,2.5  C46.9,9,47,9.3,46.8,9.8c-0.5-0.3-0.4-0.9-1.1-1.1C46.6,11.1,47.2,13.3,48.4,15.5z M43.1,7c0.1,0.4,0.3,0.8,0.8,0.9  c0.5,0.9,1.1,1.8,1.7,2.8c0-1.2-0.7-2.2-1.8-2.8C44,7.4,43.5,7.2,43.1,7z M56.2,17.2c1,1.7,2.7,2.6,3.2,4.8  c-0.9-0.9-1.1-2.1-2.1-2.7c0.1,1.7,1.3,3.1,0.8,4.8c-0.4-0.5,0.1-1.3-0.5-1.7c-0.4,0.3,0,0.8-0.6,1.1c0.1-1.4-0.8-2.1-1.7-2.8  c-0.1-0.1-0.2-0.2-0.3-0.2c-0.4-0.1-0.2,0.6-0.6,0.4c-0.3-0.1,0-0.7-0.4-0.8c-0.3-0.1-0.6-0.2-0.8-0.2c-0.3-0.1-0.5-0.2-0.8-0.4  c0.6-0.4,1.1,0.2,1.6,0c0.2-0.4-0.1-0.4-0.3-0.5c-0.2-0.2-0.5-0.2,0-0.5c0.2-0.1,0-0.3-0.2-0.5c-0.6-0.5-1.1-1-2-0.9  c-0.2,0-0.4,0-0.5-0.2c0-0.4,0.3-0.2,0.5-0.3c0.7-0.2,1.4,0.3,2.2,0.1c0.2-0.1,0.7,0.1,0.7,0.6c0.1,1.8,1.6,2.5,2.6,3.5  c-0.4-2-1.2-3.8-3.3-5.1c1.4-0.2,2.4,0.3,3.6,0.3c-0.4-0.9-1.2-1.1-1.9-1.6c-0.6-0.4-1.2-0.7-2-0.7c-0.3,0-0.6,0-0.8,0.2  c-0.3,0.2-0.6,0.6-1.1,0.2c-0.1-0.1-0.4,0.1-0.5,0.2c-0.6,0.4-1.2,0.8-1.8,1.1c-0.5,0.3-0.7,0.8-0.8,1.3c-0.2,0.5-0.3,1-0.5,1.5  c-0.1,0.2-0.2,0.5-0.4,0.6c-0.2,0.1-0.3,0.3-0.5,0.1c-0.2-0.1-0.2-0.3-0.1-0.4c0.2-1.3,0-2.6,0.1-4c0-0.5,0-1-0.3-1.5  c-0.4,0.3-0.1,0.8-0.4,1.1c-0.4-0.6-0.4-1.3-0.6-2c-0.3-1.2-0.4-1.2-1.7-1.7c-0.4-0.1-0.6-0.5-0.9-0.8c-1.9-2.1-4.1-3.7-6.8-4.6  c-1.2-0.4-2.4-0.5-3.6-0.7c-0.5-0.1-1.2-0.1-1.7,0.5c1.5,0.7,3.1,1.1,4.4,2c1.3,1,2.7,1.7,4.1,3c-0.2-1.3-1.1-1.9-1.5-2.9  c0.4,0.1,0.6,0.3,0.7,0.5c0.8,0.9,1.4,1.9,1.9,3.1c0.1,0.3,0.3,0.7,0.6,0.9c0.5,0.6,0.5,0.6,0.2,1.5c-0.8-0.8-1.8-1-2.9-1.5  c0,0.8,0.5,1.4,0.2,2.1c-0.4-0.4-0.4-1-0.7-1.4c-0.1-0.2-0.3-0.5-0.4-0.7c-0.1-0.2-0.4-0.2-0.6-0.1c-0.2,0.1-0.2,0.3-0.1,0.4  c0.1,0.5,0.1,1.1,0.1,1.6c0,0.1,0,0.3-0.3,0.4c-0.2-0.5-0.1-1-0.2-1.5c-0.2-1.1-0.3-1.2-1.4-1.2c-0.7,0-1.4,0.3-2.1,0.4  c-0.2,0-0.3,0.1-0.5-0.2c1-0.6,2.1-0.7,3.2-0.8c0.2-0.6-0.1-1-0.3-1.4c-0.5-0.9-1.2-1.6-1.8-2.3c-0.5-0.6-1.3-0.7-2-1  C31.2,5.8,31,6,31,6.4c-0.2,1-0.4,2-0.4,3.1c0,0.6,0.1,1.2-0.1,1.8c-0.4,0-0.4-0.4-0.4-0.6c0-1.3,0-2.6,0.3-3.9  c0-0.2,0.1-0.4,0.1-0.6c0-0.6-0.3-0.8-0.8-0.5C29.1,6,28.5,6.4,28,6.8c-0.5,0.4-1,0.8-1.8,0.7c-0.4-0.1-0.5,0.2-0.6,0.5  c0,0.1,0,0.2-0.1,0.4c-0.3,1.4-0.3,1.4,1,1.9c0.1,0,0.1,0.1,0.3,0.2c-0.3,0.1-0.5,0.1-0.8,0c-1.2-0.4-2.2-0.1-3.2,0.6  c-0.3,0.2-0.6,0.6-1.1,0.5c0.1-0.5,0.7-0.7,1-1c0.2-0.3,0.5-0.5,0.3-0.9c-0.2-0.4-0.7-0.6-1.1-0.6c-0.4-0.1-0.5,0.3-0.7,0.6  c-0.2,0.4-0.1,0.9-0.1,1.3c0,0.6,0.3,0.6,0.7,0.5c-0.6,0.6-0.8,0.6-1,0c0-0.1,0-0.2,0-0.4c0-0.1,0-0.2,0-0.4c-0.6,1-0.5,1.4,0.5,1.7  c1.1,0.3,2.2,0.7,3.5,1.1c-0.8,0.3-1.2,0-1.6-0.1c-0.6-0.1-1.2-0.3-1.8-0.5c-0.3-0.1-0.6-0.3-0.7,0.1c-0.1,0.4-0.2,1,0.3,1.2  c0.8,0.4,1.7,0.8,2.5,0.7c0.7-0.1,0.9,0.2,1.1,0.6c0.8,2.6,2,5.2,2.7,7.8c0.1,0.2,0.1,0.5,0.3,0.7c0.5,0.5,0.4,0.8-0.2,1  c-0.5,0.2-1.1,0.3-1.8,0.4c0.4,0.4,0.8,0.4,1.2,0.5c0.2,0,0.3,0.1,0.3,0.3c0,0.2-0.2,0.3-0.4,0.3c-0.5,0-0.9-0.1-1.3-0.4  c-1.7-1.2-3.7-1.8-5.4-3c-0.5-0.3-0.8-0.8-1.5-1c0.1,0.9,0.3,1.6,1.1,2c1.9,1,3.8,2,5.8,2.7c1.3,0.5,2.7,0.8,4.1,0.5  c0.1,0,0.2,0.1,0.4,0.1c-0.4,0.6-1.3,0.9-2.7,0.8c-1-0.1-1.9-0.6-3.1-0.6c1.6,1,3.1,1.4,4.8,1.2c1-0.1,1.4-1,2.1-1.7  c0,0,0-0.1,0-0.1c0.1-0.4-0.9-0.2-0.4-0.8c0.4-0.4-0.1-0.6-0.3-0.9c-0.1-0.2-0.2-0.4,0-0.6c0.2-0.2,0.4-0.1,0.7,0.1  c1,0.6,1.4,1.6,2.2,2.5c0.6,0.7,1.3,1.3,2.1,1.8c1.8,1.1,3.5,2.2,5.5,2.9c0.8,0.3,1.5,0.6,2.4,0.5c0.2,0,0.4,0,0.6,0.1  c0.1,0.1,0.1,0.2,0.2,0.3c0,0.2-0.1,0.2-0.2,0.2c-0.3,0.1-0.6,0-0.9,0c-1.8-0.3-3.5-1.1-5.1-2c-0.4-0.2-0.8-0.6-1.5-0.7  c0.3,0.6,0.8,0.8,1.1,1c1.1,0.7,2.2,1.3,3.4,1.8c1.6,0.7,3.2,0.5,4.8-0.4c0.1-0.1,0.3-0.2,0.4-0.3c0.9-0.7,0.8-1-0.1-1.6  c-0.1-0.1-0.3-0.1-0.4-0.4c0.7-0.2,1.1,0.5,1.7,0.5c0.1-0.1,0-0.2,0-0.3c-0.1-0.3-0.7-0.6,0.1-0.8c0.2-0.1,0-0.4-0.1-0.7  c-0.2-0.6-0.7-1.2-0.8-1.9c0.5-0.2,0.5,0.2,0.6,0.3c0.5,0.9,0.9,1.8,1.4,2.8c0.4,0.9,1,1.5,1.9,2c1.3,0.8,2.5,0.9,3.9,0.9  c0.2,0,0.3,0,0.5-0.1c0.1,0,0.1-0.1,0.2-0.2c-0.9-0.6-1.9-1.2-2.4-2.3c0.7,0.4,1.3,0.9,2,1.3c0.3,0.2,0.7,0.4,1.1,0.6  c0.5,0.2,1,0.1,1.2-0.2c0.4-0.8,1.3-0.9,1.8-1.5c0.5-0.7,0.9-1.4,1.2-2.1c0,0,0.1,0,0.3,0c0,1.5-1.1,2.3-1.9,3.2  c-0.9,1-2,1.6-3.6,1.8c1,0.2,1,0.2,1.7,0c2-0.6,3.7-1.6,4.5-3.7c0.1-0.3,0.7-0.8-0.1-1.1c-0.1,0,0-0.2,0-0.3  c0.3-0.5,0.2-1.1,0.3-1.7c0-0.3-0.1-0.7,0.5-0.7c0.4,0,0.4-1.5,0-1.7c-0.1-0.1-0.2,0-0.3,0.1c-0.2,0.2-0.4,0.3-0.7,0.6  c0.2-1.2,0.9-2.1,0.6-3.2c-0.3-1-0.6-2.1-1.2-3c-0.6-0.9-1.2-1.7-2.3-2c-0.1,0.5,0.6,0.6,0.3,1l0,0C57.2,18,57,17.2,56.2,17.2z   M21.4,18.4C21,18.4,21,18,20.9,17.7c-0.2-0.6-0.3-1.2-0.5-1.8c-0.2-0.8-0.5-1-1.4-1c-0.2,0-0.4,0-0.5-0.2c0-0.3,0.3-0.2,0.5-0.3  c0.4-0.2,0.9-0.2,0.9-0.8c0-0.7-0.3-1.1-1-1.3c-0.2,0-0.3-0.1-0.5-0.1c-0.1,0-0.2-0.1-0.2-0.3c0-0.1,0.1-0.2,0.2-0.2  c0.3,0,0.6,0,1,0c0.1-0.3-0.2-0.3-0.4-0.4c-0.8-0.3-0.9-0.3-1.1,0.5c-0.1,0.4,0,0.9-0.4,1.3c-0.4-0.3,0.1-0.9-0.4-1.2  C17,12.6,17,13.3,17.2,14c0.3,1.2,0.8,2.3,1.3,3.5c0.2,0.4,0.5,0.6,0.9,0.8c0.4,0.3,1,0.3,1.4,0.7c-0.2,0.3-0.5,0-0.7,0.3  c0.5,0.5,1.1,0.9,1.7,1.3c0.6,0.4,1.3,0.7,1.8,1.2c-1.4-0.1-2.4-1.1-3.6-1.7c-0.3,0.1-0.2,0.3-0.1,0.4c0.9,1.5,1.9,2.9,3.7,3.4  c0.5,0.1,0.9,0.3,1.3,0.7c0.2,0.2,0.4,0.3,0.7,0.3c0.9,0,1.1-0.3,0.8-1.1c-0.9-2.5-1.8-5.1-2.7-7.6c-0.1-0.4-0.3-0.6-0.8-0.6  c-0.7,0-1.4-0.4-2.3-0.4C20.8,16.3,21.3,17.3,21.4,18.4z M17.5,17.4c-0.8-1.6-0.8-3.4-0.9-5.2c-0.1-0.7,0.1-1.3,0.8-1.7  c0.7-0.4,0.6-1.2,1-1.8c-0.5-0.2-0.8-0.7-1.3-0.1c-0.1,0.1-0.4,0.8-0.3,1c0.1,0.2,0.1,0.4,0,0.6c-0.2,0-0.3-0.2-0.4-0.3  c-1-1.2-1.3-1.1-2,0.3c-0.5,1.2,0,2.2,0.3,3.2c0,0,0.1,0.1,0.1,0.1c0.8-0.4,0.8,0.3,1,0.7c0.3,0.5,0.5,0.9,0.6,1.5  c0.2,0.8,0.4,1.6,1,2.2C17.6,17.8,17.5,17.6,17.5,17.4z M37.4,4.9c0.5,0.2,0.9,0.1,1.2-0.2c-0.9-1.3-3.8-2-5.3-1.2  C34.9,3.9,36.1,4.4,37.4,4.9z M26.8,6c-0.1,0.4-0.4,0.3-0.6,0.5C26,6.6,26,6.7,26,6.8c0,0.1,0.1,0.2,0.3,0.2c0.3,0,0.6-0.1,0.8-0.3  c0.6-0.5,1.4-0.8,1.8-1.5c0.2-0.4,0.9-0.4,1-1.1C28.6,4.5,27.2,4.5,26.8,6z M22.8,8.4c0.1,0.1,0.6,0.5,0.9,0c0.2-0.4,0.1-0.7-0.2-1  c-0.8-0.8-1.8-1.3-3-1C21.1,7.4,22.2,7.6,22.8,8.4z M17.2,22.6c-0.5-1.6-1-3.3-2.2-4.6C15,19.9,15.9,21.3,17.2,22.6z M43.3,8.7  c0.1-0.5-0.1-0.7-0.3-0.8c-0.7-0.6-1.3-1.2-2-1.8c-0.6-0.6-1.2-0.8-2.2-0.4C40.4,6.5,41.9,7.5,43.3,8.7z M17.9,6.8  c1.7-1.3,3.6-1.5,5.5-0.6C21.8,4.5,19,4.8,17.9,6.8z M20,8.4c-0.9,0.4-1.5,0.9-1.6,1.7c-0.1,0.5,0.6,0.5,1.1,1.1  C19.7,10.1,19.9,9.3,20,8.4z M39.6,11.3c-0.6-1-1.4-1.5-2.4-2.1C37.6,10.9,37.8,11.1,39.6,11.3z M18.4,7.3c-0.2,0.1-0.4,0.2-0.3,0.4  C18.2,8,18.5,8,18.6,8c0.5-0.1,0.9-0.5,1.4-0.1c0.2,0.1,0.5,0.1,0.6-0.3c0.1-0.3-0.2-0.4-0.4-0.5c-0.2,0-0.3,0-0.4,0  C19.2,7.2,18.8,7.1,18.4,7.3z M36.4,10.4c0.1,0.2,0.3,0.3,0.5,0.2c0.2-0.1,0.1-0.3,0-0.4c-0.5-0.8-0.8-1.8-1.8-2.3  C35.6,8.8,36.2,9.5,36.4,10.4z M54.8,13.3c0.8,0.5,1.5,0.9,2.1,1.3c0.1-0.1,0.1-0.1,0.2-0.2C56.6,13.7,56,13.3,54.8,13.3z   M13.7,12.8c0,0.8-0.1,1.4,0.2,2C13.7,14.2,14.4,13.5,13.7,12.8z M24.1,9.2c-0.2,0.2-0.5,0.5-0.2,0.8c0.2,0.2,0.5,0.1,1-0.1  C24.4,9.7,24.3,9.5,24.1,9.2z M25.2,5.7c0.6-0.3,0.6-0.3,1-0.9C25.7,5,25.4,5.3,25.2,5.7z M21.5,26.3c0.4,0.5,0.8,0.9,1.4,0.7  C22.6,26.5,22.2,26.3,21.5,26.3z M38.3,33.5c0.5,0.5,1.1,0.6,1.6,0.6C39.6,33.7,39,33.6,38.3,33.5z M21.5,8.3c-0.6,0-0.6,0-1,0.8  C21,8.8,21.3,8.7,21.5,8.3z M52.9,12.7c-0.3-0.2-0.5,0-0.8,0.4C52.5,13,52.8,12.9,52.9,12.7z"></path><path d="M69.6,71c-2.1,0.1-4.3,0.1-6.4-0.1c-1.9-0.2-3.8-0.4-5.6-0.3c-2.3,0.1-4.6-0.4-7-0.2c-0.6,0.1-1.2,0.1-1.8,0.3  c1.7,0.2,3.4,0.7,5.2,0.1c0.1,0,0.3-0.1,0.3,0c1.2,0.8,2.5,0.2,3.7,0.3c0.4,0,0.9,0,1.4-0.1c1.8-0.2,3.5,0.2,5.3,0.3  c1.5,0.1,2.9,0.3,4.4,0c0.8-0.2,1.7,0,2.6,0c1.6,0,3.1,0,4.7-0.1c-3.1-0.8-6.3-0.8-9.5-0.4c0.9,0,1.9,0,2.8,0  C69.6,70.8,69.6,70.9,69.6,71z"></path><path d="M55,66.2c0.2,1.2,0,2.3,0.2,3.4c0.3-2.6,0.3-5.3,0-7.9c-0.4,0-0.4,0.3-0.5,0.4c-0.2,0.4,0.4,1.2-0.6,1.2  c0,0-0.1,0.4-0.1,0.6c0.2,1.4,0.4,2.8,0.1,4.3c-0.1,0.2,0,0.4,0.3,0.5c0.3,0.1,0.4-0.2,0.4-0.4C54.8,67.6,54.7,66.9,55,66.2z"></path><path d="M63.7,79.4c0.5-0.6,0.5-1.3,0.5-1.9c0-1.4,0.2-2.8-0.1-4.2c-0.1-0.4,0.1-0.8,0.1-1.2c0-0.2-0.1-0.4-0.3-0.4  c-0.2,0-0.3,0.1-0.3,0.3c0,0.4,0.1,0.9-0.4,1.2c-0.1,0,0,0.3,0,0.5c0.6,1.7,0.6,3.5,0.4,5.3C63.6,79.1,63.6,79.2,63.7,79.4z"></path><path d="M62,68.4c-1.2-0.2-2.3-0.4-3.7-0.4c0.6,0.7,1.3,0.2,2,0.7c-1.3,0.1-2.4,0-3.6,0.2c0.5,0.6,1.2,0.7,1.8,0.6  c0.9-0.2,1.7-0.2,2.6-0.2C61.7,69.3,62,69,62,68.4z"></path><path d="M33,73.3c-0.8-0.5-1.5,0-2.3-0.1c0.8,0.6,0.9,1.7,0.5,2.3c-0.1,0.1-0.2,0.1-0.2,0.3c0.3,1,0.3,1-0.8,1.1  c0.3,0.3,0.6,0.2,0.8,0.3c0.3,0.1,0.3,0.3,0.2,0.5c0,0.3-0.6,0.2-0.6,0.5c0,0.2,0.5,0.2,0.6,0.5c0,0.2-0.1,0.4,0.2,0.6  c-0.1-0.8,0.3-1.1,1-1.1c-0.7-0.1-0.9-0.3-0.7-0.9c0.2-0.6,0-1.3,0-2c0-0.1,0-0.3,0-0.4C31.9,74.3,31.8,73.4,33,73.3z"></path><path d="M52.4,80.1c-2,0-4.1-0.7-6.1-0.3C48.3,80.4,50.3,80.3,52.4,80.1z"></path><path d="M69.9,78.5c-1.3,0.1-2.5-0.5-3.8-0.2c-0.2,0-0.5,0.1-0.7,0.1c-0.1,0-0.2,0.1-0.2,0.3c0,0.1,0.1,0.2,0.2,0.2  c1.5,0,3-0.1,4.5-0.1C69.8,78.7,69.9,78.6,69.9,78.5z"></path><path d="M26.8,75.2c1.3,1.2,0.6,2.9,1.2,4.4c0-0.8,0-1.4-0.1-2c-0.1-0.6-0.1-1.2,0-1.8c0.1-0.5-0.1-0.7-0.4-0.9  C27.3,74.8,26.9,74.9,26.8,75.2z"></path><path d="M29.1,78.9c0.3-1.1-0.3-2.1,0.1-3.2c0-0.1,0.1-0.1,0.2-0.1c-0.3-0.2-0.6-0.1-1.1-0.1C28.8,76.6,28.6,77.8,29.1,78.9z"></path><path d="M77.9,64.6c0.2,1.6-0.2,3.3-0.1,5.1C78.3,68.6,78.4,65.5,77.9,64.6z"></path><path d="M76.6,68.1c-0.2-1,0.5-2.6,0.3-4.3c-0.1,0-0.2,0-0.3,0C76.6,65.5,76.6,67.1,76.6,68.1z"></path><path d="M50.9,79.2c-0.9-0.3-1.7-0.5-2.6-0.5c-0.1,0-0.3,0-0.4,0.2c0,0.2,0.1,0.3,0.3,0.3c0.9,0.1,1.8,0.2,2.7,0.2  C50.9,79.4,50.9,79.3,50.9,79.2z"></path><path d="M75.6,74.1c-0.1,1.4,0.2,2.8,0.3,4.2C76,76.9,75.9,75.5,75.6,74.1z"></path><path d="M65.7,70.5c-0.6-0.4-1.2-0.2-2-0.2C64.4,70.9,65,70.5,65.7,70.5z"></path><path d="M32.5,74.5c0.7,0.2,1.3,0.2,2,0.1C33.8,74.5,33.2,74.2,32.5,74.5z"></path><path d="M29,73.5c-0.2,0-0.3,0.1-0.3,0.3c0,0.3,0.3,0.3,0.5,0.4c0.3,0.1,0.2-0.2,0.3-0.4C29.3,73.6,29.1,73.5,29,73.5z"></path><path d="M29,73.5c0.2,0.1,0.3,0.2,0.5,0.2c0.2-0.1,0.4-0.1,0.8-0.3c-0.5-0.3-0.9-0.2-1.2-0.2c0,0,0,0,0,0C29.1,73.3,29,73.4,29,73.5  z"></path><path d="M33.8,75.6c-0.2-0.1-0.4-0.1-0.6,0c0.1,0.2,0.3,0,0.4,0.1C33.6,75.7,33.7,75.6,33.8,75.6z"></path><path d="M69.6,61.2c0.1,0,0.2,0,0.2,0c0.1,0,0.1-0.1,0.2-0.1c-0.1,0-0.1-0.1-0.2,0C69.7,61.1,69.7,61.1,69.6,61.2z"></path><path d="M37.6,81c0.1,0,0.2,0,0.2,0c0-0.1-0.1-0.2-0.2-0.2c-0.1,0-0.2,0-0.2,0C37.4,81,37.5,81,37.6,81z"></path><path d="M85.7,43c0.6,0.7,0.4,1.6,0.5,2.4c0.1,1,0,1.9,0.1,2.9c0.1,1-0.1,1.7-1.2,2.5c0-0.6,0.7-0.9,0.5-1.5l0,0  c0.5-0.5,0.2-1.2,0.3-1.8c0-0.4-0.4-0.6-0.7-0.5c-0.6,0.4-1,0-1.4-0.2c-0.6-0.3-1.3,0-2-0.3c0.7-0.4,1.4,0.2,2-0.2  c-0.3-1.2-0.3-1.2-1.5-1.2c-1.2,0-2.3,0-3.5,0c-0.2,0-0.5,0-0.5-0.5c1.1,0,2.2,0,3.3,0c0.9,0,1.5-0.3,1.9-1.1  c0.1-0.3,0.2-0.4,0.5-0.3c0.3,0.1,0.1,0.3,0.1,0.5c-0.1,1-0.1,1.1,0.9,1c0.2,0,0.3-0.1,0.6-0.1C85.7,44,85.7,43.5,85.7,43  C85.7,43,85.7,43,85.7,43z M84.6,46.3c0.2,0.4,0.6,0.3,0.9,0.3c0.4-0.1,0.4-0.4,0.4-0.7c0-0.3,0-0.7-0.4-0.8c-0.3-0.1-0.7,0-1.1,0  C84.3,45.6,84.4,46,84.6,46.3z"></path><path d="M85.6,49.2c0-0.3,0.1-0.6-0.4-0.6c-0.9,0-1.7,0-2.6,0c-0.6,0-1-0.1-1-0.8c0-0.6-0.5-0.9-0.6-1.6c-0.3,1,0.5,1.6,0.1,2.3  c-0.8,0.3-1.7-0.2-2.8,0.3c1,0.1,1.6,0.1,2.3,0.3c0.5,0.1,1,0.1,1.6,0C83.3,49,84.5,48.9,85.6,49.2C85.6,49.2,85.6,49.2,85.6,49.2z"></path><path d="M84.7,50.6c-0.4-0.4-0.8-0.4-1.2-0.4c-2.5,0-5.1,0-7.6,0.1C78.7,50.4,81.7,50.5,84.7,50.6z"></path><path d="M41,88.6c1.2,0.1,2.3,0.1,3.4-0.2c0.6-0.2,1.2,0,1.7-0.1c0.2,0,0.4-0.1,0.4-0.4c0-0.3-0.3-0.2-0.5-0.2  c-1.5,0.3-3,0.4-4.5,0.3c-0.9,0-1.8-0.1-2.7-0.2c-0.3,0-0.8-0.1-0.8,0.3c0,0.4,0.4,0.5,0.8,0.5C39.6,88.6,40.3,88.6,41,88.6z"></path><path d="M76,84.7c-0.5,0.8-0.2,1.7-0.1,2.6C76.2,86.5,76.4,85.6,76,84.7z"></path><path d="M76.7,83.3c0,1.1,0,2,0,3C77.2,85.4,77.2,84.3,76.7,83.3z"></path><path d="M54.5,59.3c-2.1-0.2-4.2-0.2-6.5-0.1C48.8,59.8,53,59.8,54.5,59.3z"></path><path d="M36.6,53.7c-1.4,0-2.7,0.4-4.1,0.2C33.5,54.2,36,54,36.6,53.7z"></path><path d="M36.1,56.9c0.5,0.1,1,0.6,1.7,0.3C37.3,56.6,36.7,57,36.1,56.9z"></path><path d="M76.8,57.5c0.5-0.9,0.5-1.8,0.4-2.8c0-0.2-0.2-0.4-0.5-0.2c-0.2,0.1-0.2,0.2-0.1,0.4C77,55.7,76.9,56.6,76.8,57.5z"></path><path d="M77.8,56.3c-0.3,1.1,0.1,1.9,0.3,2.8C78.2,58.2,78.5,57.3,77.8,56.3z"></path><path d="M33,63.7c-0.4-0.3-0.8,0-1.1-0.4c1-0.1,2,0,3.2-0.5c-0.6-0.2-1.1-0.3-1.5-0.2c-0.5,0.2-1,0.3-1.6,0.2c0,0-0.1,0-0.1,0  c-1.1,0.9-2.2,0.2-3.3,0.2c0,0-0.1,0.1-0.1,0.1C29.2,63.9,29.6,63.9,33,63.7z"></path><path d="M30.3,87.2c1.7,0.3,1.7,0.3,1.7,1.3c0.3-0.1,0.2-0.3,0.2-0.5c0-0.4,0.2-0.6,0.6-0.6c0.5,0,1,0,1.5,0c0.2,0,0.4,0,0.5-0.3  c0-0.1,0-0.3-0.1-0.3c-0.2-0.3-0.4,0-0.6,0.1C33.9,87,33.7,87,33.5,87c-1,0.1-1.2,0-1.3-1.1c0-0.1-0.1-0.2-0.1-0.4  c-0.1,0-0.2,0-0.2,0C31.9,86.8,31.4,87.3,30.3,87.2z"></path><path d="M27.4,86.3c0.8,0.2,1.3-0.1,1.9-0.4C28.6,85.9,28,85.8,27.4,86.3z"></path><path d="M32.8,83.3c0,0,0.1,0.1,0.1,0.1c0.1,0,0.2,0,0.2-0.1c0.1-0.2-0.1-0.2-0.2-0.2C32.9,83.2,32.8,83.3,32.8,83.3z"></path><path d="M41.2,30.2c0.5-0.1,0.7,0.3,1,0.6c0.4,0.3,0.8,0.8,1.4,1.1c0.1-0.8-0.6-1-0.9-1.6c0.5-0.1,0.9-0.3,1.4-0.4  c0.4-0.1,0.8-0.4,1.2-0.7c0.3-0.3,0.9-0.6,0.3-1.2c-0.7,0.6-1.2,1.3-2.1,1.5c-0.4,0.1-0.7,0.2-1.1,0.1c-1.3-0.4-2.8-0.3-4.1-1  c-0.5-0.2-0.9-0.5-1.5-0.5c-0.4,0-0.5-0.3-0.8-0.6c-0.6-0.6-1.1-1.2-1.9-1.5c0.8,1.4,2.1,2.4,3.3,3.5c1.2,1.2,2.8,1.6,4.5,1.9  C41.7,31.1,41,30.8,41.2,30.2c-1.2,0.6-2-0.4-2.9-1C39.3,29.6,40.2,29.9,41.2,30.2z"></path><path d="M48.7,17.5c0.6-0.5,1.3-0.8,2-1.3c0.8-0.5,1.4,0.3,2.2,0c-0.5-0.4-0.8-1-1.5-0.8C50.3,15.8,49.1,16.2,48.7,17.5z"></path><path d="M42.4,26.2c-1.1-1.1-2.5-1-3.9-1.2C39.3,25.6,40.7,26,42.4,26.2z"></path><path d="M42.3,15.7c-0.8-0.2-1.6-0.2-2.6,0.3C40.7,16.2,41.5,15.9,42.3,15.7z"></path><path d="M57.8,18.1c0.2,0.5,0.5,0.8,0.9,1C58.5,18.7,58.4,18.1,57.8,18.1C57.7,18.2,57.8,18.1,57.8,18.1z"></path><path d="M34.6,28.2c0-0.6-0.4-0.8-0.9-1.3C33.8,27.7,34.3,27.9,34.6,28.2z"></path></svg>