<svg height='100px' width='100px'  fill="#000000" xmlns="http://www.w3.org/2000/svg" xmlns:xlink="http://www.w3.org/1999/xlink" viewBox="0 0 100 100" version="1.1" x="0px" y="0px"><title>give-love-3</title><desc>Created with Sketch.</desc><g stroke="none" stroke-width="1" fill="none" fill-rule="evenodd"><path d="M62.9347843,25.2188023 L62.9347843,25.2188023 L88.7607722,25.2188023 C89.1615103,25.2188023 89.4862213,24.8940913 89.4862213,24.4933532 L89.4862213,11.7254491 C89.4862213,11.324711 89.1615103,11 88.7607722,11 L62.9347843,11 C62.5340463,11 62.2093352,11.324711 62.2093352,11.7254491 L62.2093352,24.4933532 C62.2093352,24.8940913 62.5340463,25.2188023 62.9347843,25.2188023 M93.1442258,37.5717495 C93.1320383,37.541861 93.11869,37.5122627 93.104181,37.4835349 L88.2181363,27.8562451 L85.6146446,27.8562451 L91.0116957,38.4901681 C93.611415,44.9275132 93.1514803,52.0865351 89.747383,58.1388118 C85.274554,66.0923455 78.2118718,77.0013589 74.400072,82.7962463 C74.1183076,83.2245514 73.661855,83.4804899 73.1470764,83.4987712 C72.6517397,83.5219856 72.1912246,83.3028999 71.89292,82.9114476 C69.5201211,79.804204 70.991622,76.3771825 71.0554615,76.232673 L76.2667977,64.0184317 C76.4446778,64.0401951 76.624299,64.0547041 76.8079827,64.0547041 C79.2675453,64.0547041 81.2686241,62.0536253 81.2686241,59.5937725 L81.2686241,41.3406027 C81.2686241,40.6995959 80.7489124,40.1798841 80.1079055,40.1798841 C80.0411642,40.1798841 79.9767444,40.1885895 79.9129048,40.1993262 C79.7402479,40.2289245 79.580359,40.2945051 79.4425236,40.3914251 C79.1436386,40.6015152 78.947187,40.9474093 78.947187,41.3406027 L78.947187,59.5937725 C78.947187,60.7733528 77.9875629,61.733267 76.8079827,61.733267 C75.6281123,61.733267 74.6687784,60.7733528 74.6687784,59.5937725 L74.6687784,51.0825135 C74.6687784,48.8260767 73.8255164,46.7295288 72.2951089,45.1782284 C67.584913,40.4056439 67.9583742,33.9569818 67.9624368,33.8925619 C67.9641778,33.8667359 67.9653386,33.8380081 67.9653386,33.8121821 L67.9653386,27.8562451 L65.6439014,27.8562451 L65.6439014,33.7756195 C65.6140129,34.285175 65.4663115,38.1965063 67.5048235,42.368419 C61.9496245,39.8270257 55.1669656,40.8409134 50.5940246,45.4141445 L50.0000269,46.0081422 L49.4060292,45.4141445 C44.8330883,40.8409134 38.0501392,39.8270257 32.4952304,42.368419 C34.5337423,38.1965063 34.3860409,34.285175 34.3561524,33.7756195 L34.3561524,27.8562451 L32.0347153,27.8562451 L32.0347153,33.8121821 C32.0347153,33.8380081 32.035876,33.8667359 32.0373269,33.8925619 C32.0416796,33.9569818 32.4148506,40.4056439 27.7049449,45.1782284 C26.1742473,46.7295288 25.3312755,48.8260767 25.3312755,51.0825135 L25.3312755,59.5937725 C25.3312755,60.7733528 24.3716514,61.733267 23.1920712,61.733267 C22.0124909,61.733267 21.0528669,60.7733528 21.0528669,59.5937725 L21.0528669,41.3406027 C21.0528669,40.9474093 20.8564152,40.6015152 20.55724,40.3914251 C20.4194047,40.2945051 20.2598059,40.2289245 20.0868588,40.1993262 C20.0233095,40.1885895 19.9588896,40.1798841 19.8921483,40.1798841 C19.2511415,40.1798841 18.7314297,40.6995959 18.7314297,41.3406027 L18.7314297,59.5937725 C18.7314297,62.0536253 20.7322184,64.0547041 23.1920712,64.0547041 C23.3754647,64.0547041 23.5553761,64.0401951 23.7332562,64.0184317 L28.9443021,76.232673 C29.0084318,76.3771825 30.4796426,79.804204 28.1071339,82.9114476 C27.808539,83.3028999 27.3480239,83.5219856 26.8526873,83.4987712 C26.3381988,83.4804899 25.8817462,83.2245514 25.5999818,82.7962463 C21.7878919,77.0013589 14.7252096,66.0923455 10.2523807,58.1388118 C6.84857353,52.0865351 6.3886388,44.9275132 8.98835818,38.4901681 L14.3854093,27.8562451 L11.7819176,27.8562451 L6.89587281,37.4835349 C6.88136382,37.5122627 6.86772538,37.541861 6.85553784,37.5717495 C3.96825043,44.6794096 4.46881031,52.5905771 8.22924825,59.2768964 C12.7366086,67.291658 19.8320811,78.2520331 23.6604211,84.0715858 C24.3504683,85.1214557 25.5135083,85.7746501 26.7708566,85.8187574 C26.8187363,85.8204985 26.8660356,85.821369 26.9133348,85.821369 C28.1184509,85.821369 29.2193924,85.2796036 29.9518058,84.3205599 C33.1820856,80.0903211 31.1493772,75.4738533 31.0713189,75.3032276 L28.0334283,68.1827997 L50.0000269,90.1493983 L71.9666256,68.1827997 L68.9284448,75.3032276 C68.8506766,75.4738533 66.8179683,80.0903211 70.048248,84.3205599 C70.7803712,85.2796036 71.881603,85.821369 73.0864288,85.821369 C73.1337281,85.821369 73.1813176,85.8204985 73.2291972,85.8187574 C74.4865456,85.7746501 75.6492954,85.1214557 76.3393426,84.0715858 C80.1679727,78.2520331 87.2634453,67.291658 91.7708056,59.2768964 C95.5312435,52.5905771 96.0318034,44.6794096 93.1442258,37.5717495 M10.5138325,24.4933532 L10.5138325,11.7254491 C10.5138325,11.324711 10.8385436,11 11.2392816,11 L37.0652695,11 C37.4657174,11 37.7907186,11.324711 37.7907186,11.7254491 L37.7907186,24.4933532 C37.7907186,24.8940913 37.4657174,25.2188023 37.0652695,25.2188023 L37.0649793,25.2188023 L11.2392816,25.2188023 C10.8385436,25.2188023 10.5138325,24.8940913 10.5138325,24.4933532" fill="#000000"></path></g></svg>