<svg height='100px' width='100px'  fill="#000000" xmlns="http://www.w3.org/2000/svg" xmlns:xlink="http://www.w3.org/1999/xlink" version="1.1" x="0px" y="0px" viewBox="0 0 100 100" enable-background="new 0 0 100 100" xml:space="preserve"><path d="M33,40.234L28.064,49h2.897c-0.363,3.678-3.291,6.456-6.962,6.456c-3.925,0-7-3.177-7-7.231V25.226  c1.305-0.394,2.264-1.593,2.264-3.025s-0.959-2.63-2.264-3.024V5c0-0.553-0.447-1-1-1s-1,0.447-1,1v14.233  c-1.212,0.447-2.083,1.603-2.083,2.968S13.788,24.723,15,25.17v23.055c0,5.177,3.953,9.231,9,9.231s9-4.055,9-9.231V40.234z"></path><path d="M87.994,69.321c-0.226-0.399-0.606-0.675-1.072-0.774c-0.546-0.118-1.174,0.024-1.646,0.37  c-1.061,0.781-2.164,1.369-3.258,1.809c2.177-4.073,3.951-8.595,5.282-13.474c1.743-6.392,1.998-26.072-7.715-36.847  C66.389,5.77,51.828,5.252,49.08,5.273c-0.395,0.007-0.765,0.202-0.991,0.522c-0.226,0.32-0.286,0.735-0.158,1.117  c0.758,2.211,2.355,6.228,4.89,9.535c-3.138,2.309-5.758,6.909-6.679,8.524c-0.244,0.431-0.212,0.965,0.082,1.36  c0.293,0.396,0.79,0.579,1.278,0.472c6.215-1.412,13.775-2.921,16.355-2.921c1.224,0,2.358,0.516,3.374,1.532  c2.449,2.454,3.569,7.003,3.588,10.248C67.394,48.572,59.5,53.16,51.818,57.622c-0.078,0.045-0.157,0.092-0.248,0.142  c-0.623,0.128-2.792-1.612-3.833-2.456c-0.864-0.7-1.68-1.362-2.363-1.765l-0.254-0.149l-0.295,0.013  c-0.708,0.029-1.323,0.351-1.779,0.928c-1.731,2.192-0.757,8.08-0.479,9.553c-7.058,6.481-10.253,16.374-11.344,20.597  c-0.064,0.25-0.011,0.541,0.122,0.76c0.137,0.226,0.373,0.404,0.653,0.471c1.911,0.377,2.799,0.683,3.199,0.861  c-0.322,0.576-0.736,1.105-1.143,1.622c-0.335,0.425-0.839,0.855-0.763,1.451c0.036,0.279,0.2,0.565,0.44,0.719  c2.724,1.733,7.112,3.8,12.551,3.8c10.35,0,20.229-4.437,27.893-12.492c1.199,0.252,4.173,0.795,7.542,0.795  c2.134,0,4.274-1.487,5.728-3.979C89.214,75.458,89.43,71.858,87.994,69.321z M44.616,55.573c0.029-0.037,0.057-0.066,0.083-0.089  c0.507,0.346,1.128,0.85,1.778,1.377c1.019,0.826,2.009,1.62,2.942,2.172c-1.626,0.97-3.242,1.983-4.753,3.099  c-0.111,0.082-0.211,0.173-0.32,0.256C43.971,59.8,43.846,56.548,44.616,55.573z M85.717,77.483c-1.074,1.842-2.607,2.986-4,2.986  c-4.038,0-7.596-0.854-7.631-0.863c-0.172-0.043-0.373-0.057-0.541-0.003c-0.156,0.05-0.32,0.173-0.433,0.295  c-3.131,3.377-6.663,6.099-10.457,8.118c4.195-14.141-3.554-17.594-3.903-17.739c-0.512-0.217-1.096,0.026-1.309,0.535  c-0.214,0.51,0.026,1.096,0.535,1.309c0.072,0.03,7.046,3.15,2.188,17.098c-4.398,1.928-9.089,2.947-13.885,2.947  c-4.367,0-8.004-1.472-10.517-2.91c1.443-1.858,1.581-2.496,1.581-2.943c0-1.063-1.017-1.693-3.912-2.341  c1.378-4.895,4.943-14.723,12.42-20.231c2.169-1.602,4.501-2.956,6.97-4.391c7.702-4.474,16.241-9.442,19.913-23.166  c0.018-0.04,0.02-0.085,0.032-0.128c0.806-3.05,1.376-6.523,1.642-10.523c0.036-0.552-0.381-1.027-0.932-1.064  c-0.539-0.023-1.028,0.38-1.064,0.932c-0.108,1.637-0.273,3.17-0.478,4.628c-0.68-2.279-1.754-4.488-3.289-6.026  c-1.403-1.406-3.015-2.119-4.789-2.119c-2.966,0-10.958,1.675-15.101,2.59c2.197-3.602,4.219-5.924,6.021-6.913l1.079-0.593  l-0.801-0.935c-2.405-2.806-4.04-6.553-4.865-8.743C54.419,7.465,66.717,9.121,78.1,21.745c9.193,10.196,8.93,28.899,7.271,34.981  c-1.479,5.423-3.519,10.386-6.061,14.75c-0.014,0.023-0.013,0.049-0.025,0.073c-3.598,0.769-6.533,0.228-6.579,0.22  c-0.54-0.111-1.066,0.245-1.175,0.786c-0.106,0.541,0.243,1.066,0.784,1.175c0.313,0.063,7.678,1.467,14.088-3.135  C87.321,72.511,87.064,75.172,85.717,77.483z M51.28,74.866c-0.88-0.416-1.909-0.495-2.899-0.223  c-0.989,0.272-1.833,0.867-2.376,1.676c-0.574,0.855-0.748,1.843-0.489,2.78c0.258,0.939,0.912,1.699,1.843,2.141  c0.537,0.254,1.13,0.383,1.735,0.383c0.387,0,0.778-0.053,1.165-0.159c0.989-0.271,1.834-0.867,2.377-1.676  c0.574-0.855,0.748-1.843,0.489-2.782C52.867,76.067,52.212,75.308,51.28,74.866z M50.975,78.673  c-0.19,0.284-0.465,0.514-0.789,0.68c0.133-0.309,0.168-0.647,0.077-0.978c-0.239-0.868-1.249-1.346-2.257-1.069  c-0.119,0.033-0.231,0.076-0.338,0.125c0.276-0.409,0.717-0.714,1.244-0.859c0.213-0.059,0.427-0.088,0.637-0.088  c0.31,0,0.608,0.064,0.876,0.19c0.396,0.188,0.671,0.494,0.772,0.863C51.299,77.905,51.22,78.309,50.975,78.673z"></path></svg>