<svg height='100px' width='100px'  fill="#000000" xmlns="http://www.w3.org/2000/svg" xmlns:xlink="http://www.w3.org/1999/xlink" xml:space="preserve" version="1.1" style="shape-rendering:geometricPrecision;text-rendering:geometricPrecision;image-rendering:optimizeQuality;" viewBox="0 0 60000 60000" x="0px" y="0px" fill-rule="evenodd" clip-rule="evenodd"><defs><style type="text/css">
   
    .fil0 {fill:#000000;fill-rule:nonzero}
   
  </style></defs><g><path class="fil0" d="M51296 28221l-713 -225 225 -713 713 225 -225 713zm-33049 -12114c2786,1929 3648,3760 4382,5324 405,862 770,1637 1414,2271 289,284 596,523 915,716 792,480 1663,687 2498,607 828,-79 1623,-442 2273,-1102 232,-236 445,-508 633,-817l-1 0c179,-325 311,-650 399,-970 247,-892 163,-1763 -182,-2520 -348,-761 -963,-1412 -1775,-1858 -330,-181 -690,-328 -1077,-435 -868,-240 -1724,-168 -2675,-88 -1723,145 -3742,316 -6813,-1146 -186,-88 -266,-310 -178,-497 39,-82 103,-143 179,-179 3078,-1461 5099,-1290 6823,-1145 952,80 1808,152 2675,-88 387,-107 748,-254 1077,-435 813,-446 1427,-1097 1775,-1858 346,-757 429,-1627 182,-2520 -89,-320 -221,-645 -399,-970l-5 -9c-187,-305 -398,-575 -628,-808 -649,-660 -1445,-1023 -2273,-1102 -835,-80 -1706,127 -2498,607 -319,193 -626,432 -915,716 -644,634 -1009,1409 -1414,2271 -736,1566 -1599,3401 -4399,5330 -169,117 -402,74 -519,-95 -51,-73 -71,-159 -65,-241l-1 0c274,-3397 1432,-5063 2421,-6484 545,-784 1035,-1489 1261,-2360 101,-391 154,-776 162,-1150 20,-926 -237,-1784 -723,-2467 -483,-678 -1195,-1186 -2090,-1418 -321,-83 -666,-131 -1032,-140 -366,8 -711,56 -1032,140 -896,232 -1608,740 -2090,1418 -486,683 -742,1541 -723,2467 8,374 61,760 162,1150 226,871 716,1576 1261,2360 988,1421 2145,3084 2416,6475 16,206 -138,386 -343,402 -99,8 -191,-24 -263,-81 -2786,-1929 -3647,-3760 -4382,-5324 -405,-862 -770,-1637 -1414,-2271 -289,-284 -596,-523 -915,-716 -792,-480 -1663,-687 -2498,-607 -828,79 -1623,442 -2273,1102 -232,236 -445,508 -633,817l1 0c-179,325 -311,650 -399,970 -247,892 -163,1763 182,2520 348,761 963,1412 1775,1858 330,181 690,328 1077,435 868,240 1724,168 2675,88 1723,-145 3742,-316 6813,1146 186,88 266,310 178,497 -39,82 -103,143 -179,179 -3078,1461 -5099,1290 -6823,1145 -952,-80 -1808,-152 -2675,88 -387,107 -748,254 -1077,435 -813,446 -1427,1097 -1775,1858 -346,757 -429,1627 -182,2520 89,320 221,645 399,970l5 9c187,305 398,575 628,808 649,660 1445,1023 2273,1102 835,80 1706,-127 2498,-607 319,-193 626,-432 915,-716 644,-634 1009,-1409 1414,-2271 736,-1566 1599,-3401 4399,-5330 169,-117 402,-74 519,95 51,73 71,159 65,241l1 0c-274,3397 -1432,5063 -2421,6484 -545,784 -1035,1489 -1261,2360 -101,391 -154,776 -162,1150 -20,926 237,1784 723,2467 483,678 1195,1186 2090,1418 321,83 666,131 1032,140 366,-8 711,-56 1032,-140 896,-232 1608,-740 2090,-1418 486,-683 742,-1541 723,-2467 -8,-374 -61,-760 -162,-1150 -226,-871 -716,-1576 -1261,-2360 -988,-1421 -2145,-3084 -2416,-6475 -16,-206 138,-386 343,-402 99,-8 191,24 263,81zm3707 5639c-634,-1348 -1367,-2907 -3479,-4548 362,2643 1345,4056 2195,5278 584,839 1109,1594 1369,2600 116,447 176,890 186,1323 23,1088 -282,2102 -860,2914 -582,817 -1437,1429 -2511,1707 -378,98 -782,154 -1212,163l-15 0c-429,-9 -834,-65 -1212,-163 -1074,-278 -1929,-890 -2511,-1707 -578,-812 -883,-1826 -860,-2914 9,-432 70,-876 186,-1323 260,-1005 785,-1760 1369,-2600 851,-1223 1835,-2638 2199,-5288 -2108,1636 -2840,3192 -3473,4539 -436,927 -828,1761 -1566,2487 -84,82 -169,161 -256,237l-6490 11286 17045 18864 23866 0 9635 -29653 -17226 -12515c-17,-10 -33,-22 -48,-35l-7950 -5776 -294 213c79,70 156,143 231,220 266,271 512,585 732,943 9,12 17,25 24,38 206,375 359,753 464,1131 296,1069 194,2115 -223,3028 -415,908 -1140,1679 -2094,2203 -377,207 -792,376 -1238,500 -1001,277 -1917,200 -2935,114 -1485,-125 -3203,-270 -5680,738 2470,1007 4185,863 5669,738 1018,-86 1934,-163 2935,114 446,124 861,293 1238,500 954,524 1679,1295 2094,2203 417,913 519,1959 223,3028 -105,378 -258,756 -464,1131l-1 -1c-3,5 -5,9 -8,14 -223,368 -474,691 -747,968 -778,791 -1735,1226 -2734,1321 -992,95 -2023,-148 -2954,-713 -371,-225 -725,-499 -1052,-821 -738,-726 -1130,-1560 -1566,-2487zm-11819 3591c-772,348 -1589,488 -2383,412 -851,-81 -1672,-409 -2377,-992l-266 193 1895 5831 3131 -5444zm-5303 -1109c-196,-222 -378,-470 -546,-743 -9,-12 -17,-25 -24,-38 -206,-375 -359,-753 -464,-1131 -296,-1069 -194,-2115 223,-3028 415,-908 1140,-1679 2094,-2203 377,-207 792,-376 1238,-500 1001,-277 1917,-200 2935,-114 1485,125 3203,270 5680,-738 -2470,-1007 -4185,-863 -5669,-738 -1018,86 -1934,163 -2935,-114 -446,-124 -861,-293 -1238,-500 -954,-524 -1679,-1295 -2094,-2203 -417,-913 -519,-1959 -223,-3028 105,-378 258,-756 464,-1131l1 1c3,-5 5,-9 8,-14 223,-368 474,-691 747,-968 778,-791 1735,-1226 2734,-1321 992,-95 2023,148 2954,713 371,225 725,499 1052,821 738,726 1130,1560 1566,2487 634,1348 1367,2907 3479,4548 -362,-2643 -1345,-4056 -2195,-5278 -584,-839 -1109,-1594 -1369,-2600 -116,-447 -176,-890 -186,-1323 -23,-1088 282,-2102 860,-2914 582,-817 1437,-1429 2511,-1707 378,-98 782,-154 1212,-163l15 0c429,9 834,65 1212,163 1074,278 1929,890 2511,1707 578,812 883,1826 860,2914 -9,432 -70,876 -186,1323 -260,1005 -785,1760 -1369,2600 -851,1223 -1835,2638 -2200,5288 2109,-1636 2840,-3192 3473,-4539 436,-927 828,-1761 1566,-2487 328,-323 682,-597 1052,-821 931,-564 1962,-807 2954,-713 755,72 1486,338 2134,805 -74,-67 -151,-130 -233,-189l677 -492c136,-99 317,-92 445,5l8127 5904 12798 2697c163,34 278,169 295,326l752 7036 3686 2678c138,100 188,278 132,431l-2677 8239 1478 13158c19,173 -83,331 -239,390l-6560 2934c-13,6 -26,11 -40,15l-1761 5420c-54,166 -213,268 -380,257l-10554 4 -9642 4313c-157,70 -337,23 -441,-105l-3806 -4212 -7253 0c-166,0 -306,-108 -354,-257l-1 0 -4114 -12662c-8,-24 -13,-49 -16,-73l-5709 -6319c-113,-124 -125,-304 -44,-441l2268 -3943 -2187 -6731c-51,-158 8,-325 136,-418l0 0 381 -276zm35332 -11386l11552 8393 -651 -6096 -10901 -2297zm12948 22050l-4492 13826 5756 -2575 -1264 -11251zm-19315 20456l-11067 0 3185 3526 7882 -3526zm-19053 -745l6309 0 -9851 -10903 3543 10903zm32055 -12114l-713 -225 225 -713 713 225 -225 713zm899 -2854l-713 -225 225 -713 713 225 -225 713zm899 -2854l-713 -225 225 -713 713 225 -225 713zm899 -2854l-713 -225 225 -713 713 225 -225 713zm899 -2854l-713 -225 225 -713 713 225 -225 713z"></path></g></svg>