<svg height='100px' width='100px'  fill="#000000" xmlns:dc="http://purl.org/dc/elements/1.1/" xmlns:cc="http://creativecommons.org/ns#" xmlns:rdf="http://www.w3.org/1999/02/22-rdf-syntax-ns#" xmlns:svg="http://www.w3.org/2000/svg" xmlns="http://www.w3.org/2000/svg" xmlns:sodipodi="http://sodipodi.sourceforge.net/DTD/sodipodi-0.dtd" xmlns:inkscape="http://www.inkscape.org/namespaces/inkscape" version="1.1" x="0px" y="0px" viewBox="0 0 100 100"><g transform="translate(0,-952.36218)"><path style="text-indent:0;text-transform:none;direction:ltr;block-progression:tb;baseline-shift:baseline;color:#000000;enable-background:accumulate;" d="m 68.048321,957.50109 -31.681964,7.2268 c -0.571608,-0.8266 -1.14071,-1.6906 -1.74625,-2.5966 -0.368917,-0.567 -1.040367,-0.9222 -1.715066,-0.9073 -1.025039,0.061 -1.431962,0.6544 -2.120447,1.3452 -0.566867,-0.088 -1.095261,0.1526 -1.537413,0.3178 -0.641047,0.4202 -1.065972,1.1975 -0.95723,1.9661 0.08125,0.5674 0.180866,1.1166 0.280647,1.6581 l -3.679598,0.8447 c -0.558758,0.059 -0.993548,0.6665 -0.869807,1.2163 0.123742,0.5499 0.776757,0.9114 1.306369,0.7234 l 3.648416,-0.8448 c 1.772154,7.4969 5.29974,12.5743 8.668883,18.1142 0.306013,2.6524 -0.623594,5.668 -2.432277,8.0719 -5.460506,9.55711 -8.334354,18.01841 -7.795758,26.43621 0.540515,8.4475 4.515566,16.6194 12.099015,25.56 0.5869,0.7304 1.71926,0.9483 2.53391,0.4876 0.81464,-0.4606 1.21516,-1.5453 0.89623,-2.4273 -2.03335,-6.0854 -3.55585,-10.2923 -3.92907,-14.0472 -0.23022,-2.3161 0.14395,-4.6684 0.90431,-7.2268 1.73394,4.3264 4.14925,7.9623 7.07855,10.6683 4.1214,3.807 9.27634,5.8182 14.5313,5.1621 0.81526,-0.098 1.53413,-0.7528 1.71082,-1.5573 0.17669,-0.8045 -0.2015,-1.7014 -0.90006,-2.1344 -11.09384,-7.1093 -14.31562,-15.9768 -13.50226,-24.559 0.81336,-8.5819 6.01528,-16.90801 12.34848,-21.96221 0.59714,-0.479 0.87729,-1.3223 0.68603,-2.0649 l -1.37205,-5.3811 c -0.26929,-1.0599 -1.5213,-1.7491 -2.55701,-1.4078 -1.64646,0.5476 -3.18875,0.5012 -4.36563,0.031 -1.17687,-0.4696 -2.05243,-1.3056 -2.55701,-2.8156 -0.22511,-0.6586 -0.81622,-1.1776 -1.49678,-1.3141 -2.94824,-0.5881 -5.23671,-2.0134 -7.57748,-4.3486 -1.41809,-1.4147 -2.8197,-3.2018 -4.30326,-5.2559 l 29.43679,-6.6951 c 1.00092,1.6303 2.18791,3.1876 3.33658,4.7242 0.56395,0.9709 2.01884,1.2689 2.91698,0.5974 0.89814,-0.6713 1.02966,-2.1553 0.26369,-2.9751 l -2.99357,-4.0045 c -0.81779,-0.8842 -1.69117,-0.8601 -2.55701,-0.6258 z m -11.00761,9.9173 c -3.28874,0 -5.98714,2.7111 -5.98714,5.9756 0,3.2643 2.6984,5.9441 5.98714,5.9441 3.28874,0 5.98714,-2.6797 5.98714,-5.9441 0,-3.2644 -2.6984,-5.9756 -5.98714,-5.9756 z m -23.574376,0.031 c 1.879704,2.7074 3.709745,5.1723 5.675316,7.133 2.47485,2.469 5.32263,4.1867 8.66888,5.0683 0.95523,1.9785 2.4325,3.5396 4.30326,4.2861 1.55711,0.6213 3.26938,0.6499 4.98929,0.4066 l 0.62366,2.4716 c -6.67657,5.7434 -11.9847,14.37631 -12.8786,23.80811 -0.75496,7.966 1.90791,16.397 9.23018,23.4327 -1.51617,-0.7015 -3.01717,-1.635 -4.39681,-2.9096 -3.42426,-3.1631 -6.25239,-8.0359 -7.67102,-14.2034 -0.18536,-0.7886 -0.89179,-1.4258 -1.693,-1.5271 -0.8012,-0.1013 -1.64316,0.3401 -2.01779,1.0578 -2.806032,5.5985 -3.721392,10.08 -3.274215,14.5789 0.09962,1.0021 0.444593,2.0553 0.654844,3.066 -2.532567,-4.5871 -3.993205,-8.9691 -4.272075,-13.3276 -0.471262,-7.3653 2.034087,-15.0042 7.328016,-24.24601 2.2297,-3.8097 2.92012,-7.1913 2.96239,-10.4181 0.007,-0.3715 -0.0912,-0.7444 -0.28065,-1.0637 -3.560193,-5.9191 -6.801443,-10.5657 -8.450604,-17.5197 z m 23.574376,3.942 c 1.12009,0 1.99571,0.8904 1.99571,2.0023 0,1.1117 -0.87562,1.9396 -1.99571,1.9396 -1.1201,0 -1.99571,-0.8279 -1.99571,-1.9396 0,-1.1119 0.87561,-2.0023 1.99571,-2.0023 z m 15.96572,60.00511 c -1.6533,0 -2.99358,1.3447 -2.99358,3.0034 0,1.6588 1.34028,3.0034 2.99358,3.0034 1.6533,0 2.99357,-1.3446 2.99357,-3.0034 0,-1.6587 -1.34027,-3.0034 -2.99357,-3.0034 z" fill="#000000" fill-opacity="1" stroke="none" marker="none" visibility="visible" display="inline" overflow="visible"></path></g></svg>