<svg height='100px' width='100px'  fill="#000000" xmlns="http://www.w3.org/2000/svg" viewBox="0 0 64 64" x="0px" y="0px"><g><path d="M59.9,15.553A1,1,0,0,0,59,15H7a1,1,0,0,0-.895.553l-2,4A1.792,1.792,0,0,0,4,20v9.764L2.105,33.553A1,1,0,0,0,2,34v8a1,1,0,0,0,1,1H8.08a6.991,6.991,0,0,0,13.84,0H42.08a6.991,6.991,0,0,0,13.84,0H61a1,1,0,0,0,1-1V20a.978.978,0,0,0-.115-.443ZM7.618,17H58.382l1,2H6.618ZM6,21H16v2H6Zm0,4H16v4H6ZM4,35H6v2H4Zm0,6V39H7a1,1,0,0,0,1-1V34a1,1,0,0,0-1-1H4.618l1-2H16V41Zm11,6a5.009,5.009,0,0,1-4.9-4h2.083a2.982,2.982,0,0,0,5.632,0H19.9A5.009,5.009,0,0,1,15,47Zm5-6H18V33h2Zm0-10H18V25h2Zm4,10H22V33h2Zm0-10H22V25h2ZM44,41H26V31H44ZM26,29V25h8v4Zm18,0H36V25h8Zm5,18a5.009,5.009,0,0,1-4.9-4h2.083a2.982,2.982,0,0,0,5.632,0H53.9A5.009,5.009,0,0,1,49,47ZM48,33v8H46V33Zm-2-2V25h2v6Zm6,2v8H50V33Zm-2-2V25h2v6ZM60,41H58V39h2Zm0-4H57a1,1,0,0,0-1,1v3H54V34h6Zm0-5H54V25h6Zm0-9H18V21H60Z"></path><rect x="10" y="33" width="2" height="2"></rect><rect x="28" y="33" width="2" height="2"></rect><rect x="32" y="33" width="2" height="2"></rect><rect x="36" y="33" width="2" height="2"></rect></g></svg>