<?xml version="1.0" encoding="utf-8"?>
<!-- Generator: Adobe Illustrator 24.2.1, SVG Export Plug-In . SVG Version: 6.00 Build 0)  -->
<svg version="1.1" id="Layer_1" xmlns="http://www.w3.org/2000/svg" xmlns:xlink="http://www.w3.org/1999/xlink" x="0px" y="0px"
	 viewBox="0 0 100 100" enable-background="new 0 0 100 100" xml:space="preserve">
<g>
	<path d="M24.895,0h29.167c2.065,0,3.939,0.843,5.292,2.202c1.358,1.353,2.202,3.227,2.202,5.287v33.146
		c3.767,1.495,5.499,4.54,7.206,7.539c1.172,2.06,2.328,4.1,4.136,5.176c1.823,1.086,3.424,2.333,4.59,3.868
		c1.252,1.651,1.969,3.575,1.889,5.888c-0.293,8.524,0.414,12.443,1.631,19.245c0.394,2.187,0.843,4.671,1.313,7.62
		c0.667,1.798,0.066,3.439-1.394,4.868c-1.045,1.03-2.591,1.944-4.393,2.702c-1.712,0.727-3.671,1.323-5.63,1.747
		c-5.686,1.232-11.776,0.97-13.437-1.626c-0.081-0.131-0.146-0.273-0.197-0.409c-0.131-0.379-0.308-0.843-0.515-1.374l-0.566-1.424
		c-2.126-1.757-4.302-3.651-6.267-5.752c-1.889-2.015-3.555-4.196-4.762-6.58c-1.904-0.268-2.929-0.086-4.727,0.237
		c-0.783,0.136-1.682,0.303-2.545,0.429c-2.697,0.404-4.676-0.97-5.742-2.919c-0.449-0.813-0.722-1.737-0.808-2.666
		c-0.086-0.954,0.02-1.924,0.343-2.793l0.076-0.177c0.071-0.167,0.146-0.333,0.227-0.495h-7.09c-2.06,0-3.934-0.843-5.287-2.197
		c-1.358-1.358-2.202-3.232-2.202-5.292V7.489c0-2.06,0.843-3.934,2.202-5.287C20.961,0.843,22.835,0,24.895,0z M57.567,57.996
		l0.197-0.015V42.004V7.489c0-1.015-0.419-1.939-1.091-2.611c-0.667-0.667-1.596-1.086-2.611-1.086H24.895
		c-1.015,0-1.939,0.419-2.611,1.086c-0.667,0.672-1.086,1.596-1.086,2.611v58.764c0,1.015,0.419,1.939,1.086,2.611
		c0.672,0.667,1.596,1.086,2.611,1.086h21.163c-1.015-1.358-2.045-2.651-3.131-3.909l-0.04-0.045
		c-0.919,0.783-2.111,1.257-3.404,1.257c-1.449,0-2.767-0.591-3.722-1.545c-0.954-0.949-1.545-2.267-1.545-3.722
		c0-1.384,0.535-2.646,1.414-3.585c-1.646-1.879-2.07-4.136-1.626-6.13c0.227-1.025,0.687-1.979,1.328-2.772
		c0.646-0.808,1.495-1.464,2.484-1.884c1.99-0.843,4.504-0.722,7.105,1.065c2.904,1.995,5.706,3.999,8.388,6.014
		C54.78,55.8,56.199,56.9,57.567,57.996z M61.556,60.88l3.035,3.035c0.813,0.808,0.813,2.121,0.005,2.934
		c-0.808,0.813-2.121,0.818-2.934,0.01l-3.313-3.313c-2.303-1.959-4.747-3.898-7.307-5.827c-2.606-1.959-5.373-3.934-8.266-5.928
		c-1.389-0.954-2.606-1.071-3.489-0.697c-0.394,0.167-0.737,0.434-1.01,0.773c-0.283,0.353-0.485,0.773-0.586,1.217
		c-0.217,0.99,0.061,2.146,1.045,3.101c2.631,2.55,4.929,4.913,7.07,7.398c1.949,2.267,3.757,4.636,5.555,7.337
		c0.389,0.293,0.667,0.732,0.737,1.247c0.061,0.187,0.096,0.384,0.096,0.586c0,0.081-0.005,0.167-0.015,0.247
		c0.288,2.798,0.763,4.924,1.606,6.757c0.904,1.974,2.277,3.722,4.338,5.731c0.747,0.727,0.763,1.924,0.035,2.676
		c-0.727,0.747-1.924,0.763-2.676,0.035c-2.389-2.333-4.009-4.424-5.136-6.873c-0.894-1.954-1.444-4.07-1.788-6.661l-11.705,0.086
		c-0.843,0.005-1.353,0.379-1.581,0.884l-0.035,0.096c-0.126,0.348-0.172,0.742-0.136,1.131c0.04,0.424,0.162,0.838,0.364,1.202
		c0.353,0.651,1.005,1.111,1.873,0.98c1.106-0.167,1.818-0.293,2.429-0.404c2.535-0.454,3.813-0.682,7.024-0.081
		c0.586,0.116,1.111,0.5,1.374,1.091c1.045,2.338,2.651,4.489,4.514,6.479c1.879,2.01,4.055,3.883,6.186,5.636
		c0.283,0.202,0.515,0.485,0.656,0.833l0.757,1.904l0.475,1.257c0.97,1,5.171,0.732,9.352-0.172
		c1.778-0.389,3.505-0.909,4.964-1.525c1.374-0.581,2.51-1.237,3.207-1.919c0.364-0.359,0.561-0.672,0.49-0.894
		c-0.071-0.151-0.116-0.313-0.146-0.485c-0.49-3.085-0.939-5.565-1.328-7.751c-1.267-7.049-2-11.12-1.692-20.022
		c0.045-1.374-0.379-2.515-1.121-3.489c-0.828-1.096-2.07-2.04-3.52-2.909c-2.661-1.581-4.065-4.055-5.484-6.55
		c-1.091-1.919-2.192-3.853-3.919-5.1V60.88z M39.484,15.245c8.271,0,14.983,6.706,14.983,14.983c0,5.737-3.227,10.721-7.958,13.235
		v-7.06c0.869-0.141,1.656-0.545,2.257-1.121c0.768-0.742,1.252-1.767,1.247-2.894l0.005-0.662c0.03-3.313,0.086-9.039-4.585-9.377
		c-3.626-0.273-4.605,3.646-4.853,7.014c-0.086,1.172-0.086,2.212-0.086,2.939v0.086c0,1.126,0.48,2.151,1.247,2.894
		c0.606,0.576,1.389,0.98,2.262,1.121v8.115c-1.429,0.449-2.949,0.692-4.52,0.692c-1.363,0-2.686-0.182-3.944-0.525v-8.337
		c0.808-0.146,1.54-0.53,2.111-1.071l0.076-0.071c0.742-0.737,1.202-1.762,1.202-2.894v-2.692v-0.03v-0.217v-0.025v-5.681
		c0-0.636-0.515-1.151-1.151-1.151s-1.151,0.515-1.151,1.151v4.56H35.54v-4.56c0-0.636-0.515-1.151-1.151-1.151
		c-0.631,0-1.146,0.515-1.146,1.151v4.56h-1.086v-4.56c0-0.636-0.515-1.151-1.151-1.151s-1.151,0.515-1.151,1.151v5.681v0.025v0.606
		v0.03v2.303c0,1.131,0.46,2.156,1.202,2.894c0.586,0.581,1.343,0.99,2.187,1.141v7.504c-5.161-2.368-8.741-7.575-8.741-13.624
		C24.501,21.951,31.207,15.245,39.484,15.245z M41.211,64.111c-1.192-1.298-2.444-2.591-3.792-3.924
		c-0.419,0.485-0.672,1.111-0.672,1.798c0,0.757,0.303,1.444,0.798,1.939c0.495,0.495,1.182,0.798,1.939,0.798
		C40.14,64.723,40.741,64.49,41.211,64.111z"/>
</g>
</svg>
