<svg height='100px' width='100px'  fill="#000000" xmlns="http://www.w3.org/2000/svg" xmlns:xlink="http://www.w3.org/1999/xlink" version="1.1" x="0px" y="0px" viewBox="0 0 60 60" style="enable-background:new 0 0 60 60;" xml:space="preserve"><g><g><path d="M35,0C22.439,0,7,14.337,7,26c0,2.92,0.02,11.691,8.592,11.975l24.747,21.776c0.009,0.007,0.019,0.01,0.028,0.017    c0.074,0.063,0.156,0.108,0.242,0.146c0.027,0.012,0.052,0.021,0.078,0.029C40.789,59.977,40.893,60,41,60    c0.094,0,0.189-0.014,0.283-0.041c0.006-0.002,0.01-0.006,0.017-0.008c0.005-0.002,0.011-0.001,0.017-0.003    c0.09-0.029,0.172-0.072,0.248-0.124c0.02-0.014,0.033-0.031,0.053-0.047c0.058-0.045,0.111-0.096,0.158-0.152    c0.021-0.025,0.039-0.055,0.058-0.084c0.035-0.055,0.065-0.109,0.089-0.17c0.014-0.033,0.025-0.064,0.035-0.102    c0.007-0.021,0.02-0.043,0.023-0.065l9.836-47.214C51.877,11.993,51.938,12,52,12c0.552,0,1-0.447,1-1C53,3.165,40.297,0,35,0z     M17.157,36.686c0.613-1.862,1.797-4.397,3.571-7.263l15.53,24.072L17.157,36.686z M40,55.605L21.923,27.585    c3.9-5.76,9.956-12.343,18.077-16.993V55.605z M42,49.296V9.491c0.902-0.46,1.823-0.904,2.771-1.311    c1.037,1.003,2.924,2.671,5.08,3.425L42,49.296z M45.707,6.293c-0.286-0.286-0.716-0.371-1.088-0.218    c-17.208,7.086-26.934,22.679-29.347,29.897C9.732,35.568,9,30.467,9,26C9,15.458,23.58,2,35,2c4.122,0,14.533,2.422,15.859,7.836    C48.639,9.225,46.49,7.076,45.707,6.293z"></path></g></g></svg>