<?xml version="1.0" encoding="utf-8"?>
<!-- Generator: Adobe Illustrator 24.2.1, SVG Export Plug-In . SVG Version: 6.00 Build 0)  -->
<svg version="1.1" id="Layer_1" xmlns="http://www.w3.org/2000/svg" xmlns:xlink="http://www.w3.org/1999/xlink" x="0px" y="0px"
	 viewBox="0 0 100 100" enable-background="new 0 0 100 100" xml:space="preserve">
<g display="none">
	<g display="inline">
		<rect stroke="#000000" stroke-width="0.0195" stroke-miterlimit="1.9531" width="100" height="100"/>
		<line fill="none" stroke="#000000" stroke-width="0.0195" stroke-miterlimit="1.9531" x1="0" y1="96.875" x2="100" y2="96.875"/>
		<line fill="none" stroke="#000000" stroke-width="0.0195" stroke-miterlimit="1.9531" x1="0" y1="93.75" x2="100" y2="93.75"/>
		<line fill="none" stroke="#000000" stroke-width="0.0195" stroke-miterlimit="1.9531" x1="0" y1="90.625" x2="100" y2="90.625"/>
		<line fill="none" stroke="#000000" stroke-width="0.0195" stroke-miterlimit="1.9531" x1="0" y1="87.5" x2="100" y2="87.5"/>
		<line fill="none" stroke="#000000" stroke-width="0.0195" stroke-miterlimit="1.9531" x1="0" y1="84.375" x2="100" y2="84.375"/>
		<line fill="none" stroke="#000000" stroke-width="0.0195" stroke-miterlimit="1.9531" x1="0" y1="81.25" x2="100" y2="81.25"/>
		<line fill="none" stroke="#000000" stroke-width="0.0195" stroke-miterlimit="1.9531" x1="0" y1="78.125" x2="100" y2="78.125"/>
		<line fill="none" stroke="#000000" stroke-width="0.0195" stroke-miterlimit="1.9531" x1="0" y1="75" x2="100" y2="75"/>
		<line fill="none" stroke="#000000" stroke-width="0.0195" stroke-miterlimit="1.9531" x1="0" y1="71.875" x2="100" y2="71.875"/>
		<line fill="none" stroke="#000000" stroke-width="0.0195" stroke-miterlimit="1.9531" x1="0" y1="68.75" x2="100" y2="68.75"/>
		<line fill="none" stroke="#000000" stroke-width="0.0195" stroke-miterlimit="1.9531" x1="0" y1="65.625" x2="100" y2="65.625"/>
		<line fill="none" stroke="#000000" stroke-width="0.0195" stroke-miterlimit="1.9531" x1="0" y1="62.5" x2="100" y2="62.5"/>
		<line fill="none" stroke="#000000" stroke-width="0.0195" stroke-miterlimit="1.9531" x1="0" y1="59.375" x2="100" y2="59.375"/>
		<line fill="none" stroke="#000000" stroke-width="0.0195" stroke-miterlimit="1.9531" x1="0" y1="56.25" x2="100" y2="56.25"/>
		<line fill="none" stroke="#000000" stroke-width="0.0195" stroke-miterlimit="1.9531" x1="0" y1="53.125" x2="100" y2="53.125"/>
		<line fill="none" stroke="#000000" stroke-width="0.0195" stroke-miterlimit="1.9531" x1="0" y1="50" x2="100" y2="50"/>
		<line fill="none" stroke="#000000" stroke-width="0.0195" stroke-miterlimit="1.9531" x1="0" y1="46.875" x2="100" y2="46.875"/>
		<line fill="none" stroke="#000000" stroke-width="0.0195" stroke-miterlimit="1.9531" x1="0" y1="43.75" x2="100" y2="43.75"/>
		<line fill="none" stroke="#000000" stroke-width="0.0195" stroke-miterlimit="1.9531" x1="0" y1="40.625" x2="100" y2="40.625"/>
		<line fill="none" stroke="#000000" stroke-width="0.0195" stroke-miterlimit="1.9531" x1="0" y1="37.5" x2="100" y2="37.5"/>
		<line fill="none" stroke="#000000" stroke-width="0.0195" stroke-miterlimit="1.9531" x1="0" y1="34.375" x2="100" y2="34.375"/>
		<line fill="none" stroke="#000000" stroke-width="0.0195" stroke-miterlimit="1.9531" x1="0" y1="31.25" x2="100" y2="31.25"/>
		<line fill="none" stroke="#000000" stroke-width="0.0195" stroke-miterlimit="1.9531" x1="0" y1="28.125" x2="100" y2="28.125"/>
		<line fill="none" stroke="#000000" stroke-width="0.0195" stroke-miterlimit="1.9531" x1="0" y1="25" x2="100" y2="25"/>
		<line fill="none" stroke="#000000" stroke-width="0.0195" stroke-miterlimit="1.9531" x1="0" y1="21.875" x2="100" y2="21.875"/>
		<line fill="none" stroke="#000000" stroke-width="0.0195" stroke-miterlimit="1.9531" x1="0" y1="18.75" x2="100" y2="18.75"/>
		<line fill="none" stroke="#000000" stroke-width="0.0195" stroke-miterlimit="1.9531" x1="0" y1="15.625" x2="100" y2="15.625"/>
		<line fill="none" stroke="#000000" stroke-width="0.0195" stroke-miterlimit="1.9531" x1="0" y1="12.5" x2="100" y2="12.5"/>
		<line fill="none" stroke="#000000" stroke-width="0.0195" stroke-miterlimit="1.9531" x1="0" y1="9.375" x2="100" y2="9.375"/>
		<line fill="none" stroke="#000000" stroke-width="0.0195" stroke-miterlimit="1.9531" x1="0" y1="6.25" x2="100" y2="6.25"/>
		<line fill="none" stroke="#000000" stroke-width="0.0195" stroke-miterlimit="1.9531" x1="0" y1="3.125" x2="100" y2="3.125"/>
		<line fill="none" stroke="#000000" stroke-width="0.0195" stroke-miterlimit="1.9531" x1="96.875" y1="0" x2="96.875" y2="100"/>
		<line fill="none" stroke="#000000" stroke-width="0.0195" stroke-miterlimit="1.9531" x1="93.75" y1="0" x2="93.75" y2="100"/>
		<line fill="none" stroke="#000000" stroke-width="0.0195" stroke-miterlimit="1.9531" x1="90.625" y1="0" x2="90.625" y2="100"/>
		<line fill="none" stroke="#000000" stroke-width="0.0195" stroke-miterlimit="1.9531" x1="87.5" y1="0" x2="87.5" y2="100"/>
		<line fill="none" stroke="#000000" stroke-width="0.0195" stroke-miterlimit="1.9531" x1="84.375" y1="0" x2="84.375" y2="100"/>
		<line fill="none" stroke="#000000" stroke-width="0.0195" stroke-miterlimit="1.9531" x1="81.25" y1="0" x2="81.25" y2="100"/>
		<line fill="none" stroke="#000000" stroke-width="0.0195" stroke-miterlimit="1.9531" x1="78.125" y1="0" x2="78.125" y2="100"/>
		<line fill="none" stroke="#000000" stroke-width="0.0195" stroke-miterlimit="1.9531" x1="75" y1="0" x2="75" y2="100"/>
		<line fill="none" stroke="#000000" stroke-width="0.0195" stroke-miterlimit="1.9531" x1="71.875" y1="0" x2="71.875" y2="100"/>
		<line fill="none" stroke="#000000" stroke-width="0.0195" stroke-miterlimit="1.9531" x1="68.75" y1="0" x2="68.75" y2="100"/>
		<line fill="none" stroke="#000000" stroke-width="0.0195" stroke-miterlimit="1.9531" x1="65.625" y1="0" x2="65.625" y2="100"/>
		<line fill="none" stroke="#000000" stroke-width="0.0195" stroke-miterlimit="1.9531" x1="62.5" y1="0" x2="62.5" y2="100"/>
		<line fill="none" stroke="#000000" stroke-width="0.0195" stroke-miterlimit="1.9531" x1="59.375" y1="0" x2="59.375" y2="100"/>
		<line fill="none" stroke="#000000" stroke-width="0.0195" stroke-miterlimit="1.9531" x1="56.25" y1="0" x2="56.25" y2="100"/>
		<line fill="none" stroke="#000000" stroke-width="0.0195" stroke-miterlimit="1.9531" x1="53.125" y1="0" x2="53.125" y2="100"/>
		<line fill="none" stroke="#000000" stroke-width="0.0195" stroke-miterlimit="1.9531" x1="50" y1="0" x2="50" y2="100"/>
		<line fill="none" stroke="#000000" stroke-width="0.0195" stroke-miterlimit="1.9531" x1="46.875" y1="0" x2="46.875" y2="100"/>
		<line fill="none" stroke="#000000" stroke-width="0.0195" stroke-miterlimit="1.9531" x1="43.75" y1="0" x2="43.75" y2="100"/>
		<line fill="none" stroke="#000000" stroke-width="0.0195" stroke-miterlimit="1.9531" x1="40.625" y1="0" x2="40.625" y2="100"/>
		<line fill="none" stroke="#000000" stroke-width="0.0195" stroke-miterlimit="1.9531" x1="37.5" y1="0" x2="37.5" y2="100"/>
		<line fill="none" stroke="#000000" stroke-width="0.0195" stroke-miterlimit="1.9531" x1="34.375" y1="0" x2="34.375" y2="100"/>
		<line fill="none" stroke="#000000" stroke-width="0.0195" stroke-miterlimit="1.9531" x1="31.25" y1="0" x2="31.25" y2="100"/>
		<line fill="none" stroke="#000000" stroke-width="0.0195" stroke-miterlimit="1.9531" x1="28.125" y1="0" x2="28.125" y2="100"/>
		<line fill="none" stroke="#000000" stroke-width="0.0195" stroke-miterlimit="1.9531" x1="25" y1="0" x2="25" y2="100"/>
		<line fill="none" stroke="#000000" stroke-width="0.0195" stroke-miterlimit="1.9531" x1="21.875" y1="0" x2="21.875" y2="100"/>
		<line fill="none" stroke="#000000" stroke-width="0.0195" stroke-miterlimit="1.9531" x1="18.75" y1="0" x2="18.75" y2="100"/>
		<line fill="none" stroke="#000000" stroke-width="0.0195" stroke-miterlimit="1.9531" x1="15.625" y1="0" x2="15.625" y2="100"/>
		<line fill="none" stroke="#000000" stroke-width="0.0195" stroke-miterlimit="1.9531" x1="12.5" y1="0" x2="12.5" y2="100"/>
		<line fill="none" stroke="#000000" stroke-width="0.0195" stroke-miterlimit="1.9531" x1="9.375" y1="0" x2="9.375" y2="100"/>
		<line fill="none" stroke="#000000" stroke-width="0.0195" stroke-miterlimit="1.9531" x1="6.25" y1="0" x2="6.25" y2="100"/>
		<line fill="none" stroke="#000000" stroke-width="0.0195" stroke-miterlimit="1.9531" x1="3.125" y1="0" x2="3.125" y2="100"/>
	</g>
</g>
<g>
	<g>
		<path fill="none" stroke="#000000" stroke-width="3.125" stroke-miterlimit="1.9531" d="M50,21.094
			c-20.703,0-37.5,16.797-37.5,37.5h75C87.5,37.891,70.703,21.094,50,21.094z"/>
		<path d="M86.836,66.602H13.164c-0.371,0-0.664-0.293-0.664-0.664v-1.836c0-0.371,0.293-0.664,0.664-0.664h73.691
			c0.371,0,0.664,0.293,0.664,0.664v1.836C87.5,66.309,87.207,66.602,86.836,66.602z"/>
		<path fill="none" stroke="#000000" stroke-width="3.125" stroke-miterlimit="1.9531" d="M84.375,78.906h-68.75
			c-1.719,0-3.125-1.406-3.125-3.125v-4.375h75v4.375C87.5,77.5,86.094,78.906,84.375,78.906z"/>
		<circle cx="24.688" cy="48.359" r="2.812"/>
		<circle cx="72.5" cy="48.359" r="2.812"/>
		<circle cx="35.938" cy="38.047" r="2.812"/>
		<circle cx="56.875" cy="50.313" r="2.812"/>
	</g>
</g>
</svg>
