<svg height='100px' width='100px'  fill="#000000" xmlns:dc="http://purl.org/dc/elements/1.1/" xmlns:cc="http://creativecommons.org/ns#" xmlns:rdf="http://www.w3.org/1999/02/22-rdf-syntax-ns#" xmlns:svg="http://www.w3.org/2000/svg" xmlns="http://www.w3.org/2000/svg" xmlns:sodipodi="http://sodipodi.sourceforge.net/DTD/sodipodi-0.dtd" xmlns:inkscape="http://www.inkscape.org/namespaces/inkscape" version="1.1" x="0px" y="0px" viewBox="0 0 100 100"><g transform="translate(0,-952.36218)"><path d="m 91.96875,959.0025 4,22 c 0.22005,1.1535 -0.79444,2.3773 -1.96875,2.375 l -6,0 0,23.9688 2,0 c 1.04717,10e-5 1.9999,0.9528 2,2 l 0,32.0001 c -1e-4,1.0472 -0.95283,1.9999 -2,2 l -2,0 0,4.0312 -4,0 0,-4.0312 -68,0 0,4.0312 -4,0 0,-4.0312 -2.0000004,0 c -1.04717,-10e-5 -1.9999,-0.9528 -2,-2 l 0,-32.0001 c 1e-4,-1.0472 0.95283,-1.9999 2,-2 l 2.0000004,0 0,-23.9063 -6.0000004,-0.062 c -1.1743,0 -2.1888,-1.2215 -1.96875,-2.375 l 4,-22 c 0.1602,-0.9176 1.03724,-1.6554 1.96875,-1.6562 L 90,957.3468 c 0.96868,0.025 1.75258,0.8351 1.96875,1.6557 z M 84,983.3775 l -68,0 0,23.9688 68,0 z m 4,27.9688 -76,0 0,28.0001 76,0 z m -26.9375,4.5938 c 1.43385,0.4801 2.73338,1.2622 3.84375,2.1875 1.18602,1.0745 1.06954,2.2093 0.4375,3.3407 -1.14847,1.9725 -2.69673,3.3507 -3.71875,4.1874 -2.99437,2.1397 -6.73819,3.0307 -9.875,3.2504 -0.71599,0.5088 -1.21533,1.2916 -1.62495,1.9063 0.33447,0.9548 0.62652,2.019 0.84375,3.25 0.22785,1.0501 -0.55218,2.2097 -1.61068,2.3945 -1.0585,0.1848 -2.18534,-0.6418 -2.32682,-1.707 -0.49084,-2.0826 -1.01348,-4.0027 -2.25005,-5.6562 -1.05819,-0.4605 -2.17173,-1.0712 -3.2187,-1.1878 -0.99143,-0.1052 -2.02514,0.024 -3.375,-0.5 -1.18421,-0.6389 -2.21183,-1.7942 -2.75,-3 -0.35622,-0.8166 -0.44737,-1.1814 -0.875,-1.625 -0.89088,-0.9207 -0.5457,-2.6983 0.625,-3.2187 3.04592,-1.4579 6.30898,-1.245 9.0625,0.375 1.74395,1.3305 2.96788,3.4399 2.96875,5.9063 0.28897,0.3233 0.54669,0.6798 0.8125,1.0312 0.34722,-0.3674 0.7345,-0.6925 1.125,-1 0.51254,-2.9505 2.0728,-7.6308 6.625,-9.9375 1.87687,-0.7823 3.49303,-0.5053 5.2812,0 z" style="text-indent:0;text-transform:none;direction:ltr;block-progression:tb;baseline-shift:baseline;color:#000000;enable-background:accumulate;" fill="#000000" fill-opacity="1" stroke="none" marker="none" visibility="visible" display="inline" overflow="visible"></path></g></svg>