<svg height='100px' width='100px'  fill="#000000" xmlns:dc="http://purl.org/dc/elements/1.1/" xmlns:cc="http://creativecommons.org/ns#" xmlns:rdf="http://www.w3.org/1999/02/22-rdf-syntax-ns#" xmlns:svg="http://www.w3.org/2000/svg" xmlns="http://www.w3.org/2000/svg" xmlns:sodipodi="http://sodipodi.sourceforge.net/DTD/sodipodi-0.dtd" xmlns:inkscape="http://www.inkscape.org/namespaces/inkscape" viewBox="0 0 16.933333 16.933334" version="1.1" x="0px" y="0px"><g transform="translate(0,-280.06665)"><path style="color:#000000;font-style:normal;font-variant:normal;font-weight:normal;font-stretch:normal;font-size:medium;line-height:normal;font-family:sans-serif;font-variant-ligatures:normal;font-variant-position:normal;font-variant-caps:normal;font-variant-numeric:normal;font-variant-alternates:normal;font-feature-settings:normal;text-indent:0;text-align:start;text-decoration:none;text-decoration-line:none;text-decoration-style:solid;text-decoration-color:#000000;letter-spacing:normal;word-spacing:normal;text-transform:none;writing-mode:lr-tb;direction:ltr;text-orientation:mixed;dominant-baseline:auto;baseline-shift:baseline;text-anchor:start;white-space:normal;shape-padding:0;clip-rule:nonzero;display:inline;overflow:visible;visibility:visible;opacity:1;isolation:auto;mix-blend-mode:normal;color-interpolation:sRGB;color-interpolation-filters:linearRGB;solid-color:#000000;solid-opacity:1;vector-effect:none;fill:#000000;fill-opacity:1;fill-rule:nonzero;stroke:none;stroke-width:0.5291667;stroke-linecap:round;stroke-linejoin:round;stroke-miterlimit:4;stroke-dasharray:none;stroke-dashoffset:0;stroke-opacity:1;color-rendering:auto;image-rendering:auto;shape-rendering:auto;text-rendering:auto;enable-background:accumulate" d="m 1.3224004,280.59479 c -0.43515596,0 -0.79271656,0.36014 -0.79271656,0.7953 v 14.28698 c 0,0.43516 0.3575545,0.79272 0.79271656,0.79272 H 11.377084 c 0.435157,0 0.793234,-0.35756 0.793234,-0.79272 v -1.3224 c 0,-0.35312 -0.529685,-0.35312 -0.529685,0 v 1.3224 c 0,0.15116 -0.112406,0.26355 -0.263549,0.26355 H 1.3224004 c -0.151157,0 -0.2635509,-0.11239 -0.2635499,-0.26355 v -14.28698 c 0,-0.15116 0.1123868,-0.26562 0.2635499,-0.26562 H 9.525517 v 1.32395 c 0,0.43516 0.358071,0.79324 0.793234,0.79324 h 1.321882 v 5.29063 c 0,0.35312 0.529685,0.35312 0.529685,0 v -5.55418 c 2.65e-4,-0.0702 -0.02712,-0.13768 -0.07648,-0.18759 l -2.117183,-2.11718 c -0.04965,-0.0499 -0.117162,-0.078 -0.187584,-0.078 z m 8.7328016,0.90537 1.211294,1.21233 h -0.947745 c -0.15116,0 -0.263549,-0.1129 -0.263549,-0.26407 z m -5.822384,1.21233 c -0.360476,-0.008 -0.360476,0.53695 0,0.52917 h 3.96875 c 0.360476,0.008 0.360476,-0.53695 0,-0.52917 z m -1.851568,2.11667 h 5.820318 c 0.360476,0.008 0.360476,-0.53695 0,-0.52917 H 2.36859 c -0.357449,0.024 -0.332851,0.53814 0.01265,0.52917 z m 6.878651,0 h 1.05885 c 0.360476,0.008 0.360476,-0.53695 0,-0.52917 H 9.247238 c -0.357454,0.024 -0.332853,0.53814 0.01267,0.52917 z m -6.878651,1.58801 h 7.937501 c 0.360476,0.008 0.360476,-0.53695 0,-0.52916 H 2.36859 c -0.357449,0.0241 -0.332851,0.53814 0.01265,0.52916 z m 12.824024,0.52969 c -0.307557,0 -0.614063,0.1159 -0.847495,0.34933 l -5.285465,5.2834 c -0.03149,0.0322 -0.05426,0.0718 -0.06615,0.11524 l -0.529166,1.85156 c -0.05552,0.19863 0.127452,0.3816 0.326078,0.32608 l 1.853633,-0.52917 c 0.04273,-0.0124 0.08165,-0.0353 0.113173,-0.0667 l 5.284949,-5.2834 c 0.466858,-0.46686 0.46686,-1.23019 0,-1.69705 -0.233428,-0.23342 -0.542004,-0.34933 -0.849561,-0.34933 z m 0,0.52296 c 0.170797,0 0.341889,0.0665 0.474906,0.19948 0.266041,0.26603 0.266039,0.68325 0,0.94929 l -0.202054,0.20206 -0.949296,-0.9493 0.202054,-0.20205 c 0.133019,-0.13303 0.303594,-0.19948 0.47439,-0.19948 z m -12.836684,0.006 c -0.33724,0.0403 -0.314293,0.51806 0.01265,0.5271 h 1.058334 c 0.362804,0.0318 0.393546,-0.5194 0.01474,-0.52761 z m 2.129843,0.5271 h 5.820318 c 0.363381,0.0321 0.393655,-0.52035 0.02894,-0.52813 -0.0097,-1.8e-4 -0.01932,1.6e-4 -0.02894,0.001 h -5.83401 c -0.339079,0.0409 -0.314177,0.52017 0.01368,0.5271 z m 9.65626,0.24237 0.287838,0.28783 -4.520139,4.52066 -0.287319,-0.28681 z m 0.661974,0.66197 0.287322,0.28784 -4.519621,4.52065 -0.287837,-0.28783 z M 2.38125,289.06177 c -0.360476,-0.008 -0.360476,0.53695 0,0.52917 h 7.937501 c 0.360476,0.008 0.360476,-0.53695 0,-0.52917 z m 0,1.58803 c -0.360476,-0.008 -0.360476,0.53695 0,0.52917 h 4.761466 c 0.360476,0.008 0.360476,-0.53695 0,-0.52917 z m 5.820318,0 c -0.360476,-0.008 -0.360476,0.53695 0,0.52917 h 1.058333 c 0.360477,0.008 0.360477,-0.53695 0,-0.52917 z m -5.820318,2.11667 h 5.290633 c 0.360476,0.008 0.360476,-0.53695 0,-0.52917 H 2.36859 c -0.357449,0.024 -0.332851,0.53814 0.01265,0.52917 z m 7.009393,0.50539 0.688329,0.6873 -0.9617,0.2744 z m -7.009393,1.08262 h 1.058334 c 0.360476,0.008 0.360476,-0.53695 0,-0.52916 H 2.36859 c -0.357449,0.0241 -0.332851,0.53814 0.01265,0.52916 z m 2.117183,0 h 2.644283 c 0.360476,0.008 0.360476,-0.53695 0,-0.52916 H 4.484741 c -0.358635,0.0252 -0.33201,0.53966 0.01368,0.52916 z"></path></g></svg>