<svg height='100px' width='100px'  fill="#000000" xmlns="http://www.w3.org/2000/svg" xmlns:xlink="http://www.w3.org/1999/xlink" version="1.1" x="0px" y="0px" viewBox="0 0 50 50" style="enable-background:new 0 0 50 50;" xml:space="preserve"><style type="text/css">
	.st0{fill:none;stroke:#000000;stroke-width:1.2;stroke-linecap:round;stroke-linejoin:round;stroke-miterlimit:10;}
	.st1{fill:none;stroke:#000000;stroke-width:1.1;stroke-linecap:round;stroke-linejoin:round;stroke-miterlimit:10;}
	.st2{fill:none;stroke:#000000;stroke-width:1.4;stroke-linecap:round;stroke-linejoin:round;stroke-miterlimit:10;}
	.st3{stroke:#000000;stroke-width:0.2;stroke-miterlimit:10;}
	.st4{fill:none;}
	.st5{fill:none;stroke:#000000;stroke-width:0.2;stroke-miterlimit:10;}
	.st6{fill:none;stroke:#000000;stroke-linecap:round;stroke-linejoin:round;stroke-miterlimit:10;}
	.st7{fill:none;stroke:#000000;stroke-width:0.95;stroke-miterlimit:10;}
	.st8{fill:none;stroke:#000000;stroke-width:0.9;stroke-linecap:round;stroke-linejoin:round;stroke-miterlimit:10;}
	.st9{fill:none;stroke:#000000;stroke-width:1.3;stroke-linecap:round;stroke-linejoin:round;stroke-miterlimit:10;}
	.st10{fill:none;stroke:#000000;stroke-linecap:round;stroke-miterlimit:10;}
	.st11{fill:none;stroke:#000000;stroke-width:1.1;stroke-linecap:round;stroke-miterlimit:10;}
</style><polyline class="st9" points="42.7304802,27.7616367 39.567131,42.29282 37.1620636,42.29282 "></polyline><line class="st9" x1="44.1705933" y1="21.2231083" x2="43.7590523" y2="23.1135769"></line><line class="st9" x1="43.1755638" y1="25.6953068" x2="43.1755638" y2="25.6953068"></line><polyline class="st9" points="12.2789068,42.29282 10.4328699,42.29282 5.4298697,19.3110142 "></polyline><g><path class="st9" d="M20.3492622,39.9574623C20.3673763,39.9701347,20.3313904,39.9444695,20.3492622,39.9574623"></path><path class="st9" d="M21.6995659,41.7259827c0.1366558,0.3833923,0.2110653,0.7963295,0.2110653,1.2266464   c0,2.0173607-1.6353931,3.6527557-3.6527538,3.6527557s-3.6527548-1.6353951-3.6527548-3.6527557   s1.6353941-3.6527557,3.6527548-3.6527557"></path><circle class="st1" cx="18.2578773" cy="42.9526291" r="0.9639646"></circle></g><polyline class="st9" points="13.0900259,19.3110142 46.3999367,19.3110142 46.3999367,13.9242687 3.7171648,13.9242687   3.7171648,19.3110142 8.3741293,19.3110142 "></polyline><line class="st9" x1="11.0411453" y1="19.3110142" x2="11.0411453" y2="19.3110142"></line><circle cx="6.9182429" cy="16.6176414" r="0.7480729"></circle><circle cx="10.488287" cy="16.6176414" r="0.7480729"></circle><circle cx="14.0583305" cy="16.6176414" r="0.7480729"></circle><circle cx="17.6283741" cy="16.6176414" r="0.7480729"></circle><circle cx="21.1984177" cy="16.6176414" r="0.7480729"></circle><circle cx="24.7684631" cy="16.6176414" r="0.7480729"></circle><circle cx="28.3385067" cy="16.6176414" r="0.7480729"></circle><circle cx="31.9085503" cy="16.6176414" r="0.7480729"></circle><circle cx="35.4785957" cy="16.6176414" r="0.7480729"></circle><circle cx="39.0486374" cy="16.6176414" r="0.7480729"></circle><circle cx="42.6186829" cy="16.6176414" r="0.7480729"></circle><line class="st9" x1="28.019907" y1="42.29282" x2="21.8497295" y2="42.29282"></line><path d="M40.2316818,5.7744226h-0.4500122V5.7444544H38.681694v0.0299683h-6.460022l-0.1799927-0.0039468v1.1039834h0.0100098  v1.3800049h-0.3900166c-0.5300293,0-0.710022,0.3099976-0.710022,0.5799561v1.9700317h-0.5799561V8.8344202  c0-0.3099976-0.25-0.5499878-0.5500488-0.5499878h-7.7299805c-0.2999878,0-0.5499878,0.25-0.5499878,0.5499878v2.5200195  c0,0.289978,0.25,0.5499878,0.5499878,0.5499878h0.4500122v1.4100342h-0.4500122  c-0.3099976,0-0.5499878,0.2399902-0.5499878,0.5499878v0.5499878h18.2399921v-0.5499878  c0-0.3099976-0.2399902-0.5499878-0.5499878-0.5499878h-0.4500122v-1.3800049h0.4199829c0.0100098,0,0.0200195,0,0.0200195,0  c0.289978,0,0.539978-0.2399902,0.5499878-0.5400391l0.0100098-2.0099487h0.4500122  c0.3099976,0,0.5499878-0.2400513,0.5499878-0.5500488V6.3244715C40.7816696,6.0144129,40.5416794,5.7744226,40.2316818,5.7744226z   M22.7916775,9.384469h6.3300171v1.4199829h-6.3300171V9.384469z M30.101675,13.3144617h-6.460022v-1.4100342h6.460022V13.3144617z   M37.681694,13.3144617h-6.4600239v-1.4100342h4.2100239l2.25,0.0200195V13.3144617z M38.6716843,10.8344202l-6.4700317-0.0599976  l0.0200195-1.3899536h3.2199707l3.2400513,0.0299683L38.6716843,10.8344202z M39.681694,8.2844324l-6.4800415-0.0200195V6.8744593  h6.4800415V8.2844324z"></path><path d="M19.7916775,10.7744226h-0.5900269V8.8044519c0-0.2700195-0.1799927-0.5800171-0.7099609-0.5800171H18.101675  l0.0100098-2.0599976c0-0.2299805-0.1900024-0.4199829-0.4200439-0.4199829H9.9216833  c-0.2999878,0-0.5499878,0.25-0.5499878,0.5499878v2.5100098c0,0.3099976,0.2399902,0.5499878,0.5499878,0.5499878h0.4500122  l0.0099487,2.0100098c0.0100098,0.2999878,0.2600098,0.539978,0.5500488,0.539978c0,0,0.0099487,0,0.0199585,0h0.4200439v1.3800049  h-0.4500122c-0.3099976,0-0.5499878,0.2399902-0.5499878,0.5499878v0.5500488h9.6799917v-3.3500366  C20.0516872,10.8944178,19.9316921,10.7744226,19.7916775,10.7744226z M11.4816809,10.2644129L11.4716711,9.384469V8.272253h-1  V6.84443h6.4799795v2.5100098h0.9800415l0.0199585,1.3900146l-6.4699697,0.0599976V10.2644129z M18.9316921,13.2844324h-6.460021  v-1.3900146l2.25-0.0199585h4.210021V13.2844324z"></path><g><path class="st3" d="M28.5029182,32.1401329c0.0196705-0.1452179-0.0135937-0.2669621-0.1051121-0.3841896   c-0.0922813-0.1149483-0.2109852-0.1815205-0.3637581-0.2026691c-0.1512527-0.0204315-0.2707596,0.0113125-0.3751125,0.0960369   c-0.443203,0.3229351-0.9446201,0.484024-1.4989738,0.484024c-0.5649471,0-1.072401-0.2155437-1.5064869-0.6398354   c-0.4364071-0.42729-0.6572285-0.939682-0.6572285-1.5235424c0-0.584198,0.2231007-1.0988693,0.6640244-1.5295773   c0.4408817-0.4299068,0.9476185-0.6477318,1.5064888-0.6477318c0.548315,0,1.0474529,0.1607094,1.48386,0.4779472   c0.1240234,0.1013546,0.2434902,0.1338596,0.3902245,0.1164684c0.1474533-0.020771,0.2646809-0.0877209,0.3577213-0.2041893   c0.0900002-0.1145687,0.1240234-0.2450104,0.1035919-0.3985424c-0.0211487-0.1546707-0.0869598-0.2730389-0.201149-0.3607597   c-0.4186764-0.3192215-0.8728561-0.5233669-1.3516884-0.6294937v-0.9378223c0-0.1911449-0.1546707-0.3458176-0.3458157-0.3458176   s-0.3458176,0.1546726-0.3458176,0.3458176v0.8523407c-0.0097923-0.0000858-0.0190792-0.0023651-0.0289154-0.0023651   c-0.2718163,0.0026169-0.5296154,0.0440712-0.7802391,0.1044788v-0.9544544c0-0.1911449-0.1546726-0.3458176-0.3458176-0.3458176   c-0.191143,0-0.3458157,0.1546726-0.3458157,0.3458176v1.2127628c-0.3058815,0.1543751-0.596693,0.3459415-0.8597279,0.6015053   c-0.6549492,0.6386547-0.9740868,1.386261-0.9740868,2.2854595c0,0.8875065,0.3282146,1.6593018,0.9748459,2.2930584   c0.2625713,0.2573776,0.5531292,0.4493675,0.8589687,0.603363v1.1727448c0,0.1911469,0.1546726,0.3458176,0.3458157,0.3458176   c0.1911449,0,0.3458176-0.1546707,0.3458176-0.3458176V33.108181c0.2504539,0.0588036,0.508213,0.0983162,0.7802391,0.0983162   c0.0097504,0,0.019165-0.0022392,0.0289154-0.0023232v0.8209763c0,0.1911469,0.1546726,0.3458176,0.3458176,0.3458176   s0.3458157-0.1546707,0.3458157-0.3458176v-0.9059105c0.4725418-0.1032982,0.9279041-0.2997169,1.356966-0.6062737   C28.4113979,32.4184494,28.4810085,32.2921448,28.5029182,32.1401329z"></path></g><path class="st0" d="M30.9499378,35.286747c-0.0860996,0.0889511-0.9659672,0.7665024-1.0695438,0.8317871  c-3.2690163,2.0605202-7.6147919,1.2140312-9.8600826-1.9835625c-2.3164291-3.2989082-1.5199738-7.851038,1.7789345-10.167469  s7.8510361-1.5199738,10.1674671,1.7789326c1.3541298,1.9284611,1.6444931,4.2851849,0.993042,6.3732014"></path><path class="st0" d="M32.2119255,34.058876C32.1166077,34.2030678,32.3181267,33.9208908,32.2119255,34.058876"></path><g><path class="st9" d="M30.7512569,46.5459671C30.7298717,46.5403671,30.7725258,46.5519524,30.7512569,46.5459671"></path><path class="st9" d="M28.871273,45.3557396c-0.2611771-0.3121719-0.4742241-0.6736488-0.6235123-1.07724   c-0.699873-1.892067,0.2665939-3.9932518,2.1586609-4.6931229c1.8920708-0.6998749,3.9932518,0.2665901,4.6931267,2.1586609   c0.6998711,1.892067-0.2665939,3.9932518-2.1586609,4.6931229"></path><circle class="st1" cx="31.6736546" cy="43.0112686" r="0.9639646"></circle></g><line class="st9" x1="9.0631313" y1="23.2358017" x2="11.2186737" y2="32.9491806"></line><line class="st9" x1="11.7776575" y1="35.4449081" x2="12.2789068" y2="37.7036514"></line><polyline class="st1" points="37.1893806,3.5580347 38.4796143,3.5580347 38.4796143,6.2148528 30.9814301,6.2148528   30.9814301,3.5580347 34.7305145,3.5580347 "></polyline><polygon points="11.4816809,10.2644129 11.4716711,10.2644129 11.4716711,9.384469 "></polygon><line class="st11" x1="16.1784744" y1="8.824441" x2="18.1311798" y2="8.824441"></line><line class="st11" x1="14.2980556" y1="8.824441" x2="14.2980556" y2="8.824441"></line><line class="st11" x1="11.2363596" y1="8.824441" x2="12.6681099" y2="8.824441"></line></svg>