<svg height='100px' width='100px'  fill="#000000" xmlns:dc="http://purl.org/dc/elements/1.1/" xmlns:cc="http://creativecommons.org/ns#" xmlns:rdf="http://www.w3.org/1999/02/22-rdf-syntax-ns#" xmlns:svg="http://www.w3.org/2000/svg" xmlns="http://www.w3.org/2000/svg" xmlns:sodipodi="http://sodipodi.sourceforge.net/DTD/sodipodi-0.dtd" xmlns:inkscape="http://www.inkscape.org/namespaces/inkscape" version="1.1" x="0px" y="0px" viewBox="0 0 128 128" enable-background="new 0 0 128 128" xml:space="preserve"><path style="" d="M 55.5 14 C 53.8 14 52.5 15.3 52.5 17 L 52.5 18.099609 C 40.7 20.399609 29.799609 26.100781 21.099609 34.800781 L 18.099609 37.800781 C 17.099609 38.800781 16.900781 40.499219 17.800781 41.699219 C 18.400781 42.499219 19.299219 42.900391 20.199219 42.900391 C 20.699219 42.900391 21.1 42.799609 21.5 42.599609 C 29.1 38.799609 37.6 37 46 37.5 C 47.7 37.6 49.099609 36.299219 49.099609 34.699219 C 49.199609 32.999219 47.900781 31.599609 46.300781 31.599609 C 41.900781 31.399609 37.600781 31.7 33.300781 32.5 C 39.100781 28.5 45.6 25.800781 52.5 24.300781 L 52.5 39 C 52.5 40.5 53.699609 41.8 55.099609 42 L 55.099609 109 C 54.999609 114 59 118 64 118 C 69 118 73 114 73 109 L 73 41.900391 C 74.3 41.600391 75.400391 40.4 75.400391 39 L 75.400391 38.800781 C 85.900391 36.500781 96.999219 37.799219 106.69922 42.699219 C 107.99922 43.399219 109.6 43.000781 110.5 41.800781 C 111.4 40.600781 111.19922 39.000391 110.19922 37.900391 L 107.19922 34.900391 C 98.399219 26.100391 87.4 20.399609 75.5 18.099609 L 75.5 17 C 75.5 15.3 74.2 14 72.5 14 L 55.5 14 z M 58.400391 20 L 69.400391 20 L 69.400391 36 L 58.400391 36 L 58.400391 20 z M 75.400391 24.199219 C 82.400391 25.699219 89.1 28.499609 95 32.599609 C 88.5 31.399609 81.900391 31.499219 75.400391 32.699219 L 75.400391 24.199219 z M 61 48 L 67 48 L 67 109 C 67 110.7 65.7 112 64 112 C 62.3 112 61 110.7 61 109 L 61 48 z " fill="#000000" stroke="none"></path></svg>