<svg height='100px' width='100px'  fill="#000000" xmlns="http://www.w3.org/2000/svg" xmlns:xlink="http://www.w3.org/1999/xlink" version="1.1" x="0px" y="0px" viewBox="-370 248.3 100 100" style="enable-background:new -370 248.3 100 100;" xml:space="preserve"><style type="text/css">
	.st0{fill:#000000;}
</style><path class="st0" d="M-303.7,254.8h-33c-3.9,0-7,3.2-7,7v72.9c0,3.9,3.2,7,7,7h33c3.9,0,7-3.2,7-7v-72.9  C-296.7,258-299.8,254.8-303.7,254.8z M-327.9,260.3h15.5c0.7,0,1.2,0.5,1.2,1.2s-0.5,1.2-1.2,1.2h-15.5c-0.7,0-1.2-0.5-1.2-1.2  S-328.6,260.3-327.9,260.3z M-320.2,338.7c-2.3,0-4.2-1.9-4.2-4.2c0-2.3,1.9-4.2,4.2-4.2c2.3,0,4.2,1.9,4.2,4.2  C-316,336.9-317.9,338.7-320.2,338.7z M-300,327.4h-40.3v-59.8h40.3V327.4z"></path><path d="M-305.9,301.6h-1.2l-2.7-9.4c-0.1-0.3-0.3-0.5-0.6-0.5H-324c0.2-0.7,0.1-1.6,0.1-2.4c-0.1-0.9-0.1-1.9,0.2-2.6  c0.5-1.1,1.4-1.4,2.4-1.5l-0.4,2.2l5.1,2.1l9-5l-4.2-7.5l-9,5l-0.4,2.5c-1.3,0-2.6,0.5-3.2,1.9c-0.4,0.9-0.3,1.9-0.3,2.9  c0.1,0.9,0.1,1.7-0.1,2.4h-5.5c-0.3,0-0.5,0.2-0.6,0.5l-2.7,9.4h-1.2c-0.4,0-0.6,0.3-0.6,0.6v9.3c0,0.4,0.3,0.6,0.6,0.6h1.7v2  c0,2.4,2.6,2.4,3.4,2.4s3.4,0,3.4-2.4v-2h12v2c0,2.4,2.6,2.4,3.4,2.4s3.4,0,3.4-2.4v-2h1.7c0.4,0,0.6-0.3,0.6-0.6v-9.3  C-305.3,301.8-305.5,301.6-305.9,301.6z M-312.2,278.4l3.2,5.8l-7.7,4.3l-3.9-1.6l0.2-1.5c0.5,0.1,0.9,0.1,1.2,0.2  c0,0.1,0,0.3,0.1,0.4c0.3,0.5,0.8,0.6,1.3,0.4c0.5-0.3,0.6-0.8,0.4-1.3c-0.3-0.5-0.8-0.6-1.3-0.4c-0.1,0.1-0.2,0.1-0.2,0.2  c-0.4-0.1-0.9-0.2-1.3-0.3l0.3-1.9L-312.2,278.4z M-329.3,309.4c-1.4,0-2.6-1.1-2.6-2.6c0-1.4,1.1-2.6,2.6-2.6s2.6,1.1,2.6,2.6  S-327.9,309.4-329.3,309.4z M-329.4,301.6c-0.4,0-0.8-0.4-0.6-0.9l1.7-5.8c0.1-0.3,0.4-0.4,0.6-0.4h15.1c0.3,0,0.5,0.2,0.6,0.4  l1.7,5.8c0.1,0.4-0.2,0.9-0.6,0.9H-329.4z M-311.5,309.4c-1.4,0-2.6-1.1-2.6-2.6c0-1.4,1.1-2.6,2.6-2.6c1.4,0,2.6,1.1,2.6,2.6  S-310.1,309.4-311.5,309.4z"></path></svg>