<svg height='100px' width='100px'  fill="#000000" xmlns="http://www.w3.org/2000/svg" viewBox="0 0 80 80" x="0px" y="0px"><title>47_realestate_transport_cargo</title><g><circle cx="63" cy="56" r="2"></circle><circle cx="36" cy="56" r="2"></circle><circle cx="26" cy="56" r="2"></circle><path d="M68,33a5,5,0,0,0-5-5H54V19H17v8H15v2h2v3H14v2h3v4H13v2h4V57h3.09A6,6,0,0,0,31,59.31,6,6,0,0,0,41.91,57H57.09a6,6,0,0,0,11.82,0H71V43.59l-3-3Zm-2,0v7H59V30h4A3,3,0,0,1,66,33ZM19,40h3V38H19V34h4V32H19V29h5V27H19V21H52V46H19Zm7,20a4,4,0,1,1,4-4A4,4,0,0,1,26,60Zm10,0a4,4,0,1,1,4-4A4,4,0,0,1,36,60Zm15-5H41.91A6,6,0,0,0,31,52.69,6,6,0,0,0,20.09,55H19V48H52v7Zm12,5a4,4,0,1,1,4-4A4,4,0,0,1,63,60Zm6-15.59V55h-.09a6,6,0,0,0-11.82,0H54V30h3V42h9.59Z"></path><rect x="25" y="27" width="3" height="2"></rect><rect x="10" y="32" width="3" height="2"></rect><rect x="23" y="38" width="3" height="2"></rect><rect x="28" y="32" width="3" height="2"></rect><polygon points="41.29 28.71 44.59 32 32 32 32 34 44.59 34 41.29 37.29 42.71 38.71 48.41 33 42.71 27.29 41.29 28.71"></polygon></g></svg>