<svg height='100px' width='100px'  fill="#000000" xmlns:x="http://ns.adobe.com/Extensibility/1.0/" xmlns:i="http://ns.adobe.com/AdobeIllustrator/10.0/" xmlns:graph="http://ns.adobe.com/Graphs/1.0/" xmlns="http://www.w3.org/2000/svg" xmlns:xlink="http://www.w3.org/1999/xlink" version="1.1" x="0px" y="0px" viewBox="0 0 100 100" style="enable-background:new 0 0 100 100;" xml:space="preserve"><g><g i:extraneous="self"><path d="M97,19.9c-0.4-0.5-1.1-0.8-1.7-0.9c-13.2-0.8-23.9-4.1-31-9.8c-0.5-0.4-1.2-0.6-1.9-0.5c-0.7,0.1-1.3,0.5-1.6,1.1    l-6.5,10.4c-0.4,0.6-0.5,1.4-0.2,2.1c0.2,0.7,0.8,1.2,1.5,1.5c0,0,1.8,0.7,4.4,2.4L50,41.8l-9.8-15.6c2.5-1.7,4.3-2.4,4.4-2.4    c0.7-0.2,1.2-0.8,1.4-1.5c0.2-0.7,0.1-1.4-0.2-2.1L39.3,9.9c-0.4-0.6-1-1-1.6-1.1c-0.7-0.1-1.4,0.1-1.9,0.5    c-7.1,5.6-17.8,9-31,9.8c-0.7,0-1.3,0.4-1.7,0.9c-0.4,0.5-0.6,1.2-0.5,1.9c1.1,8,10.2,24.8,19.2,26.1c0.1,0,0.2,0,0.3,0    c1,0,1.9-0.6,2.2-1.5c1.4-3.4,3-6.3,4.7-8.9l11.8,18.8L26,79.9c-1,1.5-1.3,3.3-0.9,5c0.4,1.7,1.4,3.2,3,4.2l1.8,1.1c0,0,0,0,0,0    c1.1,0.7,2.3,1,3.5,1c2.2,0,4.4-1.1,5.7-3.1L50,70.8l10.9,17.3c1.3,2,3.4,3.1,5.7,3.1c1.2,0,2.4-0.3,3.5-1l1.8-1.1    c1.5-0.9,2.6-2.4,3-4.2c0.4-1.7,0.1-3.5-0.9-5L59.1,56.3L71,37.5c1.7,2.5,3.3,5.5,4.7,8.9c0.4,0.9,1.3,1.5,2.2,1.5    c0.1,0,0.2,0,0.3,0c9.1-1.3,18.1-18.1,19.2-26.1C97.6,21.1,97.4,20.4,97,19.9z M20.7,42.5C15.9,40.1,9.8,30.7,7.8,23.6    c11.7-1,21.6-4.1,28.8-9l3.7,5.9C35.8,22.9,26.8,29.2,20.7,42.5z M32.2,33.4c1.4-1.7,2.9-3.1,4.2-4.2l10.8,17.1l-3.4,5.5    L32.2,33.4z M69.9,82.5c0.3,0.4,0.3,0.9,0.2,1.4c-0.1,0.5-0.4,0.9-0.8,1.2l-1.8,1.1c-0.9,0.5-2,0.3-2.6-0.6L52.8,66.3l3.4-5.5    L69.9,82.5z M35,85.6c-0.5,0.9-1.7,1.1-2.6,0.6L30.7,85c-0.4-0.3-0.7-0.7-0.8-1.2c-0.1-0.5,0-1,0.2-1.4l33.5-53.3    c1.4,1.2,2.8,2.6,4.2,4.2L35,85.6z M79.3,42.5c-6.1-13.4-15.1-19.6-19.6-22l3.7-5.9c7.2,4.9,17,8,28.8,9    C90.2,30.7,84.1,40.1,79.3,42.5z"></path></g></g></svg>