<?xml version="1.0" encoding="utf-8"?>
<!-- Generator: Adobe Illustrator 24.2.1, SVG Export Plug-In . SVG Version: 6.00 Build 0)  -->
<svg version="1.1" id="Layer_1" xmlns="http://www.w3.org/2000/svg" xmlns:xlink="http://www.w3.org/1999/xlink" x="0px" y="0px"
	 viewBox="0 0 100 100" enable-background="new 0 0 100 100" xml:space="preserve">
<g>
	<path fill-rule="evenodd" clip-rule="evenodd" d="M50.649,2.007c25.03,0,45.336,21.015,45.336,47.107S75.679,96.34,50.649,96.34
		c-24.911,0-45.218-21.133-45.218-47.226S25.738,2.007,50.649,2.007z M55.844,27.627c-0.945,1.653-1.653,3.542-2.243,5.549
		c0.472-0.118,0.945-0.118,1.417,0c1.535,1.299,2.834,2.952,3.66,4.841c1.063,2.361,1.417,5.077,0,6.966
		c-0.118,0.59-0.118,2.834,0.472,3.188c0.826,0.59,1.299,2.007,2.007,2.597l0.472,0.118l0.118,0.59
		c0.354,1.771-6.139,3.66-8.264-5.077c-0.826-0.826-0.708-1.771-0.472-2.597c-0.472-0.354-0.826-0.826-1.063-1.181
		c-0.118,1.417-0.118,2.834-0.236,4.014c0,4.723,1.181,25.148,9.445,23.14c7.202-1.653,16.293,13.105,9.091,16.175l-1.889,0.826
		l0.236-2.007c0.236-2.361-2.597-4.368-4.132-5.785c-1.535-1.417-3.188-0.236-4.723-1.181c-1.417-0.945-3.07-1.653-4.604-2.479
		c-8.028-4.25-12.161-13.459-15.702-21.37c-2.243-5.077-4.368-11.334-5.195-17.591c-0.354,0.472-0.826,0.945-1.535,1.299
		c-0.59,0.236-1.299,0.354-1.653,0.354c-1.299,2.597-2.243,2.243-4.25,2.715c-1.771,7.202-5.667,4.841-6.257,5.785
		c-2.952,5.313-4.841-2.007,0.472-5.431c0.472-0.472,2.125-6.612,2.597-7.674c1.535-4.014,4.014-7.32,8.501-6.966l0,0l0.59,0.118
		c0.118,0,0.236,0,0.354,0.118h0.118c0.118,0,0.236,0,0.354,0l0.708,0.236c0.59-3.66,1.889-7.084,4.132-10.035
		c2.125-2.834,5.903-5.431,9.681-6.257c-1.181-0.118-2.125,0.118-2.834,0.59c0.59-2.479,4.959-1.653,7.792-0.472
		c1.181,0.354,2.361,0.945,3.424,1.889c0.59,0.59,1.063,1.181,1.535,1.889c1.535,2.243,2.952,5.195,1.299,6.494
		c0.118-0.708,0-1.653-0.354-2.715C58.914,21.488,57.497,25.03,55.844,27.627z M52.302,11.924c0.236,1.653,0.59,0.708-0.236,2.361
		c-0.59,1.181,1.889-0.118,1.063,1.653c-0.236,0.59,1.771,0.945,0.118,1.771c-0.708,0.472-0.59-0.118-0.59,1.299
		c0.472,0,1.181,0.59,1.889-0.354c0.118-0.118-0.354,0.472,1.181,0.826c0.708,0.118,1.299,1.181,1.535,2.125
		c-0.354,1.535-1.181,3.424-2.361,5.431l-0.236,0.354c-0.236,0.118-0.826,0.236-1.181,0c-0.826-0.472-0.354,0-0.708-0.708
		c0,0-0.472-0.236-0.472,0.118c-0.118,0.354-0.59,0-0.708,0.472c0,0.118-0.708,0.472-0.826-0.59c0-0.59-2.007-1.299-1.299-0.354
		c0.236,0.354-0.708,0.59,0,1.181c0.236,0.118,0.354,0.826-0.472,1.063c-1.535,0.236-0.472,1.063-0.472,1.417
		s0.236,0.236,0.472,0.472c-0.708-0.118-1.417-0.354-2.243-0.708c-3.188-1.417-5.903-3.778-7.32-6.375
		c0.236-0.354,0.472-1.181,0.354-1.299c-0.472-0.708-0.118-2.479,0.354-2.479c0.826,0,0.708-0.708,1.299-0.354
		c0.708,0.59,1.299,0.354,1.417-0.354c0.118-1.417-1.181-0.826-1.181-1.181c-0.236-1.299,2.125-0.354,2.007-1.063
		c0-1.063,0.708-0.59,0.826-0.472c0.354,0.945,1.653-0.236,1.063-0.59c-0.472-0.236-0.118-2.479,0.236-3.07
		C48.052,11.688,50.413,11.452,52.302,11.924z M46.163,18.536c3.306,0.59,0.59,1.063,2.125,3.07c0.59,0.59,0.59,1.771-1.299,1.535
		c-1.417-0.236-0.118,4.132-3.896,0c-1.063-1.181,1.299-0.354,1.299-2.834C44.392,19.126,45.809,18.536,46.163,18.536z
		 M55.49,22.668c0.708,0.472,0.472,1.653,0.118,2.361c-0.354,0.708-1.063,1.535-1.771,1.181c-0.708-0.472-0.59-1.653-0.236-2.361
		C53.955,23.14,54.782,22.196,55.49,22.668z M55.136,23.259c-0.236-0.118-0.59,0.236-0.945,0.826
		c-0.236,0.708-0.354,1.299-0.118,1.417c0.354,0.118,0.708-0.236,1.063-0.826C55.372,24.085,55.49,23.495,55.136,23.259z
		 M55.372,23.022c0.472,0.236,0.236,1.299,0,1.771c-0.236,0.59-0.826,1.417-1.417,1.063c-0.59-0.354-0.236-1.417,0-1.889
		C54.191,23.495,54.782,22.668,55.372,23.022z M51.122,55.726c0.118,0.826-1.653,0.236-2.007,0.59
		c-0.826,0.708,1.771,2.007,0.354,2.834c-1.417,0.945,1.771,0.59,1.771,1.417c0,0.236,0.59,0.59,0.945,0.472
		c0.472,1.889,1.063,3.66,1.771,5.077c-0.354-0.118-0.826-0.354-1.417-1.181c0,0-1.889-0.708-0.59,0.708
		c0.826,0.826-1.417-0.354-0.826,2.243c1.299,0.236,2.243,0.472,1.063,2.007c0,0,2.125,1.299,0.118,1.535l-0.708,0.118
		c-1.889-1.771-3.896-4.368-6.375-8.737c1.417,0.945,4.132-0.945,1.063-2.597c-2.597-1.417,2.715-1.417,0.826-2.834
		c-1.063-0.945-0.118-0.826,0-1.653c0.354-3.896-2.243-0.59-2.243-0.59c-2.834,0.708,0.118-3.306-1.181-3.424
		c-2.243-0.236-0.826-3.896-2.125-2.125c-0.59,0.708-2.361,0.354-2.597,0.236l0,0l0.236-0.118h-0.236
		c-1.653-4.132-2.597-7.91-3.188-11.334c1.181,0.826,3.188,0.708,4.486,0c-0.59-2.125,1.063-1.299,1.063-0.945
		c-0.118,2.243,1.299,0.118,1.299,0.118c0.354-2.597-1.771-3.07-1.771-3.306c-0.118-2.479,0.708,0.472,0.708-3.188
		c0-2.125-2.597,1.063-2.479-0.708c0.118-2.007-0.945-1.063-0.945-1.889c0.118-1.653-1.181-2.007,0.354-2.007
		c1.063,0,1.299-0.472,1.299-0.826l-0.118-0.118c0,0.118,0,0.118,0,0.236l0.472,0.236l0,0c1.771,2.125,4.132,3.778,6.257,4.723
		c0.826,0.236,1.771,0.59,2.715,0.708c-0.945,1.063,2.361,3.542-0.708,3.66c-0.472,0-2.597,0-2.243,1.653
		c0.118,0.59,2.597,0.354,1.771,2.834c-0.354,1.063,1.063,0,0.708,1.181c-2.361,6.375-1.181-0.354-3.896,1.535
		c-0.826,0.472-4.014-0.118-3.07,2.952c0,0,1.063,0.59,1.181-0.826c0-0.236,2.125,0.236,2.007-0.472
		c0.118-0.236,1.535-0.59,1.889,1.063c0.236,0.826,2.479-0.59,2.125,1.889c-0.118,0.59,1.063,2.125,1.653,2.243
		c0.118,2.125,0.236,4.25,0.472,6.257C50.885,55.49,51.122,55.608,51.122,55.726z M60.803,76.978
		c3.66-0.945,2.597-3.306-0.826-5.903c0.472,0,0.945,0,1.535-0.118c5.785-1.299,13.932,11.452,8.264,13.932
		c0.354-3.188-3.424-5.785-4.486-6.73C63.636,76.623,61.865,77.214,60.803,76.978z M53.365,34.12
		c-0.59,2.007-0.945,4.014-1.181,6.021c0.472,3.188,1.653,2.597,1.653,3.424c-0.118,2.597,0.354,1.653,0.59,2.715
		c1.771,7.674,6.375,5.431,6.375,5.431c-0.59-0.118-1.653-2.243-2.243-2.715c-1.299-0.945-0.826-4.25-0.708-4.368
		C60.567,40.732,55.726,33.294,53.365,34.12z M56.907,38.961c-1.181-0.118,0.708,0.118,0.118,3.66
		c-0.118,0.59-0.354,1.063-0.472,1.535l0,0c-0.118,0.472-0.236,1.063-0.354,1.889c0,1.417,0.236,2.361,0.708,2.597
		c-0.236-0.472-0.354-1.299-0.354-2.243c0.118-1.181,0.236-1.889,0.472-2.479c0.236-0.354,0.354-0.708,0.59-1.653
		C57.733,41.204,57.733,39.079,56.907,38.961z M55.254,36.836c-1.889-0.236,0.708,0.236,0.236,3.896
		c-0.118,1.181-0.472,2.243-0.945,2.715c0.708-0.118,1.299-1.535,1.535-3.188C56.316,38.371,55.962,36.836,55.254,36.836z
		 M34.002,34.238c-0.118-2.125-0.118-4.132,0.118-6.257c-0.826-0.236-1.771-0.472-0.826-0.236
		c-9.563-2.361-9.563,12.751-11.688,14.168c-3.188,2.007-4.014,7.91-1.889,4.132c1.181-2.125,4.486,1.535,6.139-5.903
		c0.236-0.708,2.715,0.472,4.368-2.597C30.697,36.6,33.058,37.898,34.002,34.238z M32.586,28.571c2.243,0.59-0.945,0-2.243,4.723
		c-0.472,1.535-0.472,2.952-0.236,3.778c-0.708-0.472-0.708-2.479-0.236-4.604C30.579,30.106,31.759,28.335,32.586,28.571z
		 M29.28,29.162c2.243,0.59-0.945,0-2.479,5.549c-0.472,1.771-0.59,3.424-0.354,4.486c-0.708-0.59-0.708-2.834,0-5.431
		C27.155,31.051,28.453,28.926,29.28,29.162z"/>
</g>
</svg>
