<svg height='100px' width='100px'  fill="#000000" xmlns="http://www.w3.org/2000/svg" viewBox="0 0 100 100" x="0px" y="0px"><title>Artboard 17 Kopie 2</title><g data-name="Ebene 2"><g><path d="M66.21,41.78a.46.46,0,0,1,0,.88,1.68,1.68,0,0,1-1.52,0,.46.46,0,0,1,0-.88A1.68,1.68,0,0,1,66.21,41.78Z"></path><path d="M69.1,40.11a.46.46,0,0,1,0,.88,1.68,1.68,0,0,1-1.52,0,.46.46,0,0,1,0-.88A1.68,1.68,0,0,1,69.1,40.11Z"></path><path d="M69,43.38a.46.46,0,0,1,0,.88,1.68,1.68,0,0,1-1.52,0,.46.46,0,0,1,0-.88A1.68,1.68,0,0,1,69,43.38Z"></path><path d="M71.86,41.71a.46.46,0,0,1,0,.88,1.68,1.68,0,0,1-1.52,0,.46.46,0,0,1,0-.88A1.68,1.68,0,0,1,71.86,41.71Z"></path></g><g><path d="M30.59,61a.46.46,0,0,1,0,.88,1.68,1.68,0,0,1-1.52,0,.46.46,0,0,1,0-.88A1.68,1.68,0,0,1,30.59,61Z"></path><path d="M33.47,59.36a.46.46,0,0,1,0,.88,1.68,1.68,0,0,1-1.52,0,.46.46,0,0,1,0-.88A1.68,1.68,0,0,1,33.47,59.36Z"></path><path d="M33.35,62.63a.46.46,0,0,1,0,.88,1.68,1.68,0,0,1-1.52,0,.46.46,0,0,1,0-.88A1.68,1.68,0,0,1,33.35,62.63Z"></path><path d="M36.24,61a.46.46,0,0,1,0,.88,1.68,1.68,0,0,1-1.52,0,.46.46,0,0,1,0-.88A1.68,1.68,0,0,1,36.24,61Z"></path></g><polygon points="46.94 73.36 46.63 73.18 45.89 73.61 45.52 74.56 45.89 75.08 46.2 75.25 46.94 74.83 47.31 73.88 46.94 73.36"></polygon><path d="M89.79,47.3a8.53,8.53,0,0,0-3.13-4.85A10.38,10.38,0,0,0,88,34.77a8.47,8.47,0,0,0-5-5.94c-5.68-2.38-12.28-.31-20.74,6.51l-44,23.72a33.93,33.93,0,0,1-3.93,1.82c-2.91,1.2-5.43,2.24-5.77,4.23-.2,1.15.39,2.32,1.79,3.58a21.53,21.53,0,0,0,7.79,3.88c-.65.29-1.32.57-2,.84-2.91,1.2-5.43,2.24-5.77,4.23-.2,1.15.39,2.32,1.79,3.58,3.35,3,11.31,5.54,18.77,5.54a22.18,22.18,0,0,0,9.91-2L83.49,60.12a15.4,15.4,0,0,0,3.89-3.55A10.6,10.6,0,0,0,89.79,47.3ZM10.5,65.45c.16-.91,2.6-1.91,4.56-2.72a35.41,35.41,0,0,0,4.15-1.92L63.26,37.06l.15-.1c5.88-4.75,10.7-7.07,14.82-7.07a10.13,10.13,0,0,1,4,.79A6.41,6.41,0,0,1,86,35.24a8.59,8.59,0,0,1-2,7.5h0a13.74,13.74,0,0,1-3.37,3.12L38,70.45c-7.74,3.93-21.93.75-26.39-3.25C10.85,66.48,10.43,65.84,10.5,65.45ZM46.21,77.33a1.84,1.84,0,0,1-1.71.22h0l-.08,0h0l-2.64-1.42a1.72,1.72,0,0,1-.85-1.69,4.64,4.64,0,0,1,.32-1.57l-2-.72,2.27-1.31.75.3A4.69,4.69,0,0,1,43.46,70a1.72,1.72,0,0,1,1.9-.11L48,71.23l.07,0,0,0h0a1.83,1.83,0,0,1,.68,1.6A5.65,5.65,0,0,1,46.21,77.33Zm34.1-20.2a1.75,1.75,0,0,1-1.62.21h0l-.08,0h0l-2.51-1.35a1.64,1.64,0,0,1-.8-1.61,4.45,4.45,0,0,1,.32-1.55l-1.82-.64L76,50.84l.59.23a4.36,4.36,0,0,1,1.1-.95,1.63,1.63,0,0,1,1.8-.1L82,51.33l.06,0,0,0h0a1.74,1.74,0,0,1,.65,1.52A5.37,5.37,0,0,1,80.3,57.13Z"></path><polygon points="47.02 73.47 46.71 73.3 45.98 73.73 45.61 74.67 45.98 75.2 46.29 75.37 47.02 74.94 47.39 74 47.02 73.47"></polygon><polygon points="81.08 53.46 80.78 53.3 80.08 53.7 79.73 54.6 80.08 55.1 80.38 55.26 81.08 54.86 81.43 53.96 81.08 53.46"></polygon><g><path d="M66.3,41.9a.46.46,0,0,1,0,.88,1.68,1.68,0,0,1-1.52,0,.46.46,0,0,1,0-.88A1.68,1.68,0,0,1,66.3,41.9Z"></path><path d="M69.18,40.23a.46.46,0,0,1,0,.88,1.68,1.68,0,0,1-1.52,0,.46.46,0,0,1,0-.88A1.68,1.68,0,0,1,69.18,40.23Z"></path><path d="M69.06,43.49a.46.46,0,0,1,0,.88,1.68,1.68,0,0,1-1.52,0,.46.46,0,0,1,0-.88A1.68,1.68,0,0,1,69.06,43.49Z"></path><path d="M71.95,41.83a.46.46,0,0,1,0,.88,1.68,1.68,0,0,1-1.52,0,.46.46,0,0,1,0-.88A1.68,1.68,0,0,1,71.95,41.83Z"></path></g><g><path d="M30.67,61.15a.46.46,0,0,1,0,.88,1.68,1.68,0,0,1-1.52,0,.46.46,0,0,1,0-.88A1.68,1.68,0,0,1,30.67,61.15Z"></path><path d="M33.56,59.48a.46.46,0,0,1,0,.88,1.68,1.68,0,0,1-1.52,0,.46.46,0,0,1,0-.88A1.68,1.68,0,0,1,33.56,59.48Z"></path><path d="M33.44,62.74a.46.46,0,0,1,0,.88,1.68,1.68,0,0,1-1.52,0,.46.46,0,0,1,0-.88A1.68,1.68,0,0,1,33.44,62.74Z"></path><path d="M36.32,61.08a.46.46,0,0,1,0,.88,1.68,1.68,0,0,1-1.52,0,.46.46,0,0,1,0-.88A1.68,1.68,0,0,1,36.32,61.08Z"></path></g></g></svg>