<svg height='100px' width='100px'  fill="#000000" xmlns="http://www.w3.org/2000/svg" xmlns:xlink="http://www.w3.org/1999/xlink" viewBox="0 0 67 54" version="1.1" x="0px" y="0px"><title>erwachsene</title><desc>Created with Sketch.</desc><g stroke="none" stroke-width="1" fill="none" fill-rule="evenodd"><g fill="#000000"><path d="M48.5831145,33.864483 C50.677299,34.9606188 52.7356527,37.0317508 54.6770976,39.7956117 C55.7579828,41.334371 56.7335948,42.9883842 57.5852498,44.6427817 C57.8833301,45.2218228 58.1443096,45.7589146 58.3660859,46.2398178 C58.4978206,46.5254733 58.5863404,46.7267828 58.6296017,46.8295524 C58.8438771,47.3385755 59.4302263,47.5775157 59.9392494,47.3632403 C60.4482725,47.148965 60.6872127,46.5626157 60.4729374,46.0535926 C60.4212109,45.9307134 60.3236889,45.7089314 60.1822618,45.4022587 C59.9487685,44.8959483 59.675226,44.3330021 59.3634659,43.727387 C58.4727197,41.9970522 57.4518631,40.2663331 56.3136836,38.6460091 C54.2052754,35.6444575 51.9379658,33.3630725 49.5105853,32.0925355 C49.0212755,31.8364215 48.4169902,32.0254641 48.1608761,32.5147738 C47.9047621,33.0040836 48.0938047,33.608369 48.5831145,33.864483 L48.5831145,33.864483 Z"></path><path d="M25.9876463,34.9920961 C28.0897469,36.0847733 30.1563144,38.1609574 32.1053202,40.9355821 C33.1862055,42.4743415 34.1618175,44.1283547 35.0134724,45.7827521 C35.3115527,46.3617933 35.5725322,46.8988851 35.7943086,47.3797883 C35.9260433,47.6654438 36.014563,47.8667532 36.0578244,47.9695229 C36.2720997,48.478546 36.858449,48.7174862 37.3674721,48.5032108 C37.8764952,48.2889354 38.1154354,47.7025862 37.90116,47.1935631 C37.8494335,47.0706839 37.7519115,46.8489018 37.6104844,46.5422291 C37.3769911,46.0359188 37.1034487,45.4729726 36.7916886,44.8673575 C35.9009423,43.1370227 34.8800858,41.4063036 33.7419063,39.7859795 C31.6249453,36.7722521 29.3480968,34.4848085 26.9100759,33.2175191 C26.42004,32.9627971 25.8162945,33.1535568 25.5615726,33.6435927 C25.3068507,34.1336286 25.4976104,34.7373741 25.9876463,34.9920961 L25.9876463,34.9920961 Z"></path><path d="M21.637207,33 L21.637207,33 C26.8081348,33 31,28.8081348 31,23.637207 C31,18.4662793 26.8081348,14.2744141 21.637207,14.2744141 C16.4662793,14.2744141 12.2744141,18.4662793 12.2744141,23.637207 C12.2744141,28.8081348 16.4662793,33 21.637207,33 L21.637207,33 Z M21.637207,35 L21.637207,35 C15.3617098,35 10.2744141,29.9127043 10.2744141,23.637207 C10.2744141,17.3617098 15.3617098,12.2744141 21.637207,12.2744141 C27.9127043,12.2744141 33,17.3617098 33,23.637207 C33,29.9127043 27.9127043,35 21.637207,35 L21.637207,35 Z"></path><path d="M18.2283691,12.8024983 C18.2283691,12.8024983 19.1782276,17.5675422 23.0031834,20.5385157 C26.8281392,23.5094892 28.6429681,23.683149 32.2287948,23.6831493 C32.2287948,23.6831493 32.6815311,16.2596059 27.1726848,13.7024226 C21.6638386,11.1452394 18.2283691,12.8024983 18.2283691,12.8024983 Z"></path><path d="M20.5009277,27.2309156 C20.5009277,27.2309156 20.8741165,28.8990527 22.376899,29.9391251 C23.8796814,30.9791976 24.5927074,31.0399921 26.0015387,31.0399922 C26.0015387,31.0399922 26.1794137,28.4411729 24.0150495,27.5459593 C21.8506853,26.6507457 20.5009277,27.2309156 20.5009277,27.2309156 Z"></path><path d="M24.2838616,13.5837913 C24.2838616,13.5837913 23.3358605,17.8509331 19.5183843,20.5114679 C15.7009082,23.1720027 13.8896281,23.3275168 10.3108134,23.327517 C10.3108134,23.327517 10.4881138,17.2563659 16.5555751,14.4088215 C22.6230364,11.5612771 24.2838616,13.5837913 24.2838616,13.5837913"></path><path d="M22.5819445,27.2899028 C22.5819445,27.2899028 22.2094855,28.7837353 20.7096417,29.71513 C19.2097979,30.6465248 18.4981662,30.7009668 17.0920898,30.7009669 C17.0920898,30.7009669 17.1617492,28.5755904 19.545587,27.5787278 C21.9294249,26.5818651 22.5819445,27.2899028 22.5819445,27.2899028"></path><path d="M44.5,33 L44.5,33 C49.1841459,33 53,29.0966572 53,24.2592593 C53,19.4218614 49.1841459,15.5185185 44.5,15.5185185 C39.8158541,15.5185185 36,19.4218614 36,24.2592593 C36,29.0966572 39.8158541,33 44.5,33 L44.5,33 Z M44.5,35 L44.5,35 C38.7010101,35 34,30.1912066 34,24.2592593 C34,18.3273119 38.7010101,13.5185185 44.5,13.5185185 C50.2989899,13.5185185 55,18.3273119 55,24.2592593 C55,30.1912066 50.2989899,35 44.5,35 L44.5,35 Z"></path><path d="M41.35,13.9742658 C41.35,13.9742658 42.2277344,18.478449 45.7622559,21.2867775 C49.2967773,24.0951061 50.9738037,24.259259 54.2873535,24.2592593 C54.2873535,24.2592593 54.7057129,17.2421152 49.6151611,14.824924 C44.5246094,12.4077329 41.35,13.9742658 41.35,13.9742658 Z"></path><path d="M34,14.1335388 C34,14.1335388 34.876018,18.1670774 38.4036278,20.6819621 C41.9312376,23.1968469 43.6049846,23.3438473 46.9120548,23.3438476 C46.9120548,23.3438476 46.7482171,17.6050596 41.1414667,14.913403 C35.5347163,12.2217465 34,14.1335388 34,14.1335388 Z" transform="translate(40.456027, 18.409469) scale(-1, 1) translate(-40.456027, -18.409469) "></path><ellipse cx="46.075" cy="11.8639802" rx="4.725" ry="4.83333333"></ellipse><polygon points="19.6601562 34.1108398 21.956543 38.3710938 24.9521484 33.9858398"></polygon><polygon points="21.887207 37.1254883 18.1826172 46.543457 21.887207 50.0209961 25.7768555 46.5991211"></polygon><circle cx="38.5" cy="36.5" r="1.5"></circle><circle cx="41.5" cy="39.5" r="1.5"></circle><circle cx="45.5" cy="41.5" r="1.5"></circle><circle cx="49.5" cy="39.5" r="1.5"></circle><circle cx="51.5" cy="36.5" r="1.5"></circle><path d="M6.24682477,47.0772907 C6.31486518,46.9803168 6.45066125,46.7921024 6.64887545,46.5257548 C6.98191624,46.078236 7.36679465,45.5786424 7.79812665,45.0401083 C9.03090759,43.5009351 10.385907,41.9618237 11.8186758,40.5283937 C14.4105473,37.9353259 16.9587073,35.9884823 19.3232936,34.954198 C19.8292908,34.7328718 20.0600622,34.1432597 19.838736,33.6372625 C19.6174097,33.1312653 19.0277976,32.9004939 18.5218004,33.1218201 C15.8879747,34.2738714 13.1569278,36.3604441 10.4041359,39.1145065 C8.91510588,40.6042238 7.51281189,42.1970559 6.2371029,43.7898264 C5.79046343,44.3474725 5.39118304,44.8657606 5.044415,45.3317252 C4.8347439,45.6134678 4.68807917,45.8167463 4.60962055,45.9285687 C4.29240971,46.3806701 4.40176017,47.004321 4.85386163,47.3215318 C5.3059631,47.6387426 5.92961393,47.5293922 6.24682477,47.0772907 L6.24682477,47.0772907 Z"></path><path d="M34.3788628,39.6962303 C34.4006201,39.656149 34.4523072,39.5668026 34.5337379,39.4353075 C34.6745774,39.2078787 34.8448917,38.952269 35.0444282,38.6755896 C35.6181081,37.8801194 36.3065323,37.0832072 37.1064999,36.3410439 C38.1443448,35.378192 39.2923144,34.5817019 40.5470242,34.0057277 C41.0489505,33.7753185 41.2690587,33.1816433 41.0386495,32.6797169 C40.8082404,32.1777906 40.2145651,31.9576824 39.7126388,32.1880916 C38.2533673,32.8579698 36.9320612,33.7747251 35.7462512,34.8748504 C34.8432622,35.7125908 34.0693763,36.6084325 33.4222702,37.5057163 C33.029761,38.0499735 32.7630039,38.4807353 32.6211372,38.7420809 C32.3576562,39.2274634 32.5375428,39.8345373 33.0229253,40.0980183 C33.5083078,40.3614994 34.1153817,40.1816128 34.3788628,39.6962303 L34.3788628,39.6962303 Z"></path></g></g></svg>