<svg height='100px' width='100px'  fill="#000000" xmlns="http://www.w3.org/2000/svg" xmlns:xlink="http://www.w3.org/1999/xlink" xml:space="preserve" version="1.1" style="shape-rendering:geometricPrecision;text-rendering:geometricPrecision;image-rendering:optimizeQuality;" viewBox="0 0 50000 50000" x="0px" y="0px" fill-rule="evenodd" clip-rule="evenodd"><defs><style type="text/css">
   
    .fil0 {fill:#000000;fill-rule:nonzero}
   
  </style></defs><g><path class="fil0" d="M23137.39 13353.51c-954.58,-376.55 -1773.3,-1024.3 -2361.39,-1848.67 -615.89,-863.33 -978.22,-1918.95 -978.22,-3057.95 0,-1455.98 590.2,-2774.17 1544.37,-3728.35 954.19,-954.19 2272.38,-1544.38 3728.35,-1544.38 1455.97,0 2774.16,590.19 3728.35,1544.38 954.19,954.19 1544.38,2272.37 1544.38,3728.35 0,1171.64 -383.65,2255.31 -1032.47,3132.41 -603.48,815.8 -1437.8,1451.39 -2407.02,1810.99l0 1294.85c1285.95,-377.06 2406.54,-1141 3227.06,-2157.32 900.22,-1115.05 1439.26,-2534.64 1439.26,-4080.93 0,-1794.85 -727.49,-3419.77 -1903.64,-4595.92 -1176.16,-1176.16 -2801.08,-1903.64 -4595.92,-1903.64 -1794.84,0 -3419.75,727.48 -4595.92,1903.64 -1176.16,1176.17 -1903.64,2801.08 -1903.64,4595.92 0,1523.64 522.44,2923.49 1397.54,4029.9 802.77,1014.93 1902.75,1784.53 3168.91,2178.01l0 -1301.29zm-7059.76 24168.9c-33.44,133.75 -168.99,215.08 -302.74,181.64 -133.75,-33.44 -215.08,-168.99 -181.64,-302.74 160.84,-637.51 477.59,-1230.51 895.93,-1695.92 411.84,-458.18 924.16,-795 1487.01,-933.6 133.75,-32.89 268.87,48.87 301.76,182.62 32.89,133.75 -48.87,268.87 -182.62,301.76 -461.39,113.61 -887.33,396.36 -1235.05,783.2 -365.1,406.17 -641.79,924.72 -782.65,1483.04zm-1294.63 -2643.61c-42.6,131.05 -183.4,202.75 -314.45,160.15 -131.05,-42.6 -202.75,-183.4 -160.15,-314.45 312.6,-960.53 874.06,-1748.42 1552.1,-2330.44 745.59,-639.99 1634.16,-1031.57 2490.14,-1130.83 136.99,-15.64 260.73,82.74 276.37,219.73 15.64,136.99 -82.74,260.73 -219.73,276.37 -760.33,88.17 -1553.27,439.13 -2222.56,1013.63 -612.01,525.34 -1119.03,1237.24 -1401.72,2105.84zm-625.24 -3244.59c-54.47,126.2 -200.95,184.36 -327.15,129.89 -126.2,-54.47 -184.36,-200.95 -129.89,-327.15 530.72,-1222.87 1412.94,-2115.87 2425.47,-2710.97 1182.92,-695.28 2545.25,-983.43 3730.65,-915.36 137.52,7.54 242.89,125.17 235.35,262.69 -7.54,137.52 -125.17,242.89 -262.69,235.35 -1096.5,-62.96 -2356.81,203.67 -3451.35,847 -928.03,545.44 -1735.87,1362.12 -2220.39,2478.55zm18100.05 9395.28c-107.86,85.21 -264.4,66.85 -349.61,-41.01 -85.21,-107.86 -66.85,-264.4 41.01,-349.61 1707.86,-1351.93 2920.24,-2966.73 3626.77,-4608.67 744.79,-1730.84 925.16,-3487.7 528.41,-4990.88 -35.05,-133.21 44.52,-269.64 177.73,-304.69 133.21,-35.05 269.64,44.52 304.69,177.73 425.2,1610.93 236.93,3482.03 -551.85,5315.1 -736.75,1712.17 -1999.5,3394.85 -3777.15,4802.03zm-9120.42 -15921.74c-4493.45,-655.41 -7799.44,294.7 -9802.63,2161.54 -1127.81,1051.04 -1844.59,2396.91 -2127.92,3910.96 -286.15,1529.12 -131.76,3232.97 485.76,4983.58 1524.16,4320.86 5853.13,8898.21 13324.56,11859.23 7459.01,-2956.14 11775.43,-7522.3 13293.45,-11835.65 616.43,-1751.54 768.91,-3457.24 480.62,-4989 -285.27,-1515.72 -1004.22,-2863.74 -2133.85,-3917.31 -1998.75,-1864.16 -5289.08,-2819.23 -9753.64,-2184.06l0 1392.65c0,214 -87.28,408.28 -227.84,548.87 -140.58,140.58 -334.86,227.85 -548.87,227.85l-2212.92 0c-214.01,0 -408.29,-87.27 -548.87,-227.85 -140.58,-140.58 -227.85,-334.86 -227.85,-548.87l0 -1381.94zm3766.35 -815.57c4671,-640.63 8149.07,400.88 10297.4,2404.54 1257.66,1172.97 2057.65,2671.49 2374.47,4354.81 313.8,1667.28 151.58,3513.21 -511.88,5398.38 -1597.04,4537.89 -6113.48,9326.86 -13901.26,12374.65l-145.32 56.86 -145.3 -56.86c-7800.78,-3052.88 -12329.73,-7851.75 -13932.37,-12395.11 -664.74,-1884.48 -828.87,-3729.63 -517.02,-5396.08 314.68,-1681.53 1112.48,-3177.9 2368.54,-4348.46 2153.21,-2006.64 5647.2,-3042.92 10346.39,-2382.05l0 -1232.9c-603.42,-329.33 -1113.01,-806.81 -1479.2,-1382.98 -397.88,-626.01 -628.34,-1368.48 -628.34,-2164.26 0,-784.76 225.83,-1519.26 616.37,-2142.18 368.3,-587.43 882.47,-1073.07 1491.17,-1405.65l0 -487.94c-1519.9,-416.74 -2842.11,-1313.04 -3793.91,-2516.4 -984.68,-1244.95 -1572.54,-2816.56 -1572.54,-4523.66 0,-2015.67 817.06,-3840.57 2138.02,-5161.54 1320.97,-1320.96 3145.87,-2138.02 5161.54,-2138.02 2015.67,0 3840.57,817.05 5161.54,2138.02 1320.97,1320.97 2138.02,3145.86 2138.02,5161.54 0,1734.26 -605.75,3327.88 -1617.38,4580.93 -969.07,1200.32 -2310.63,2087.38 -3848.94,2485.59l0 409.34c622.63,317.54 1151.68,791.2 1535.22,1369.16 424.76,640.06 672.2,1407.08 672.2,2230.81 0,820.77 -245.83,1585.47 -668.07,2224.59 -383.98,581.18 -914.61,1057.33 -1539.35,1376.01l0 1168.86zm-2989.63 -3270.37l2212.92 0c214.02,0 408.28,87.27 548.86,227.85 140.58,140.58 227.85,334.86 227.85,548.87l0 398.02c345.27,-237.27 642.45,-539.79 873.73,-889.86 337.31,-510.56 533.69,-1123.67 533.69,-1783.97 0,-662.67 -197.97,-1278.08 -537.82,-1790.19 -230.76,-347.73 -526.44,-648.29 -869.6,-884.23l0 208.23c0,214.01 -87.27,408.29 -227.84,548.86 -140.58,140.58 -334.86,227.85 -548.87,227.85l-2212.92 0c-214.01,0 -408.29,-87.27 -548.87,-227.85 -140.58,-140.56 -227.85,-334.85 -227.85,-548.86l0 -136.65c-324.19,240.78 -601.57,540.25 -816.17,882.54 -311.34,496.6 -491.37,1086.2 -491.37,1720.3 0,639.12 184.61,1234.66 503.34,1736.14 213.62,336.13 486.73,630.04 804.2,866.68l0 -327.01c0,-214.01 87.27,-408.29 227.85,-548.87 140.58,-140.58 334.86,-227.85 548.87,-227.85zm2189.63 800l-2166.35 0 0 4644.6 2166.35 0 0 -4644.6zm800 -9292.11c703.98,-316.7 1311.69,-810.7 1766.4,-1425.4 548.66,-741.7 873.09,-1660.87 873.09,-2657.41 0,-1235.15 -500.62,-2353.35 -1310,-3162.73 -809.38,-809.38 -1927.59,-1310 -3162.73,-1310 -1235.14,0 -2353.35,500.62 -3162.73,1310 -809.37,809.38 -1309.99,1927.58 -1309.99,3162.73 0,968.67 306.77,1864.5 828.22,2595.45 437.16,612.81 1025.74,1110.72 1711.39,1439.56l0 -116.53c0,-214.01 87.27,-408.29 227.85,-548.87 140.58,-140.58 334.86,-227.85 548.87,-227.85l2212.92 0c214.02,0 408.3,87.27 548.86,227.85 140.58,140.58 227.85,334.86 227.85,548.87l0 164.33zm-800 -141.05l-2166.35 0 0 4644.59 2166.35 0 0 -4644.59z"></path></g></svg>