<svg height="100px" width="100px" fill="#000000" xmlns:xlink="http://www.w3.org/1999/xlink" xmlns="http://www.w3.org/2000/svg"  version="1.1" viewBox="0,0,90,90" x="0px" y="0px">
	<g layerName="Layer 1">
		<path opacity="1" fill="#000000" d="M45.3481+16.4126C29.3812+16.4126+16.4164+29.353+16.4164+45.32C16.4164+61.287+29.3812+74.2274+45.3481+74.2274C61.3151+74.2274+74.2556+61.287+74.2556+45.32C74.2556+29.353+61.3151+16.4126+45.3481+16.4126ZM43.2087+20.5943C44.1522+21.427+48.0022+24.9667+47.1473+28.0825L45.105+35.5951C46.9147+35.5554+48.6511+36.0251+50.2106+36.9322L52.3987+28.8848C53.194+25.9866+57.5415+24.9294+59.2062+24.5816C63.3017+27.324+66.5031+31.2703+68.3963+35.8868C67.9731+36.8248+65.5892+41.9528+62.2696+42.0378L54.441+42.2323C55.0234+43.9874+55.2084+45.7784+54.8057+47.5081L63.0476+47.2893C66.028+47.213+68.2604+50.969+69.1013+52.4922C67.7629+56.9097+65.279+60.7908+61.9292+63.7974C60.9688+63.7078+55.2499+63.1352+54.0763+60.0047L51.4019+52.7839C50.9512+53.1515+50.6166+53.6113+50.0891+53.9023C48.9659+54.5218+47.7653+54.87+46.5638+55.0206L49.3597+62.4602C50.4634+65.4045+47.1689+69.1222+46.1991+70.1673C45.9096+70.1772+45.6401+70.2402+45.3481+70.2402C40.6724+70.2402+36.3245+68.883+32.5841+66.642C32.3532+65.4438+31.4527+60.1889+34.0429+58.2299L40.2425+53.5133C38.8395+52.6526+37.543+51.5778+36.6929+50.0366C36.6306+49.9235+36.6288+49.7863+36.5714+49.6719L30.3474+54.3885C27.7782+56.3317+23.0252+54.0461+21.911+53.489C21.0101+50.9127+20.4037+48.2029+20.4036+45.32C20.4036+43.3428+20.6733+41.4512+21.1087+39.6066C21.6011+39.3217+27.1069+36.1936+29.9584+38.1722L35.9879+42.3539C36.5238+40.6655+37.6178+39.2332+39.0026+38.0263L32.4383+33.4799C29.8056+31.6532+30.4775+26.4864+30.6635+25.2137C34.2395+22.5963+38.5434+20.9964+43.2087+20.5943Z">
		</path>
		<path opacity="1" fill="#000000" d="M45.3506+33.6009C38.872+33.6009+33.6022+38.8414+33.6022+45.32C33.6022+51.7986+38.872+57.0391+45.3506+57.0391C51.8293+57.0391+57.0698+51.7986+57.0697+45.32C57.0697+38.8414+51.8293+33.6009+45.3506+33.6009ZM45.3553+36.6455C50.1545+36.6455+54.0299+40.5208+54.0299+45.32C54.0299+50.1192+50.1545+53.9946+45.3553+53.9945C40.5562+53.9945+36.6421+50.1192+36.6421+45.32C36.6421+40.5208+40.5561+36.6455+45.3553+36.6455Z">
		</path>
		<path opacity="1" fill="#000000" d="M45.834+13.0631C28.0215+12.7853+13.357+27.0094+13.0791+44.8219C12.8013+62.6345+27.0254+77.299+44.8379+77.5769C62.6504+77.8547+77.315+63.6306+77.5928+45.8181C77.8707+28.0056+63.6466+13.341+45.834+13.0631ZM45.8047+14.9382C62.5818+15.1999+75.9795+29.0117+75.7178+45.7888C75.4561+62.5658+61.6443+75.9635+44.8672+75.7018C28.0902+75.4401+14.6925+61.6283+14.9542+44.8512C15.2159+28.0742+29.0277+14.6765+45.8047+14.9382Z">
		</path>
		<path opacity="1" fill="#000000" d="M45.3329+37.2194C40.8592+37.2194+37.2354+40.8432+37.2354+45.3169C37.2354+49.7905+40.8592+53.4206+45.3329+53.4206C49.8065+53.4206+53.4366+49.7905+53.4366+45.3169C53.4366+40.8432+49.8065+37.2194+45.3329+37.2194ZM45.5083+38.7048C46.2551+38.7048+46.8621+39.3055+46.8621+40.0523C46.8621+40.7991+46.2551+41.406+45.5083+41.406C44.7615+41.406+44.1546+40.7991+44.1546+40.0523C44.1546+39.3055+44.7615+38.7048+45.5083+38.7048ZM45.3329+41.9513C47.1918+41.9513+48.6984+43.4579+48.6984+45.3169C48.6984+47.1758+47.1918+48.6825+45.3329+48.6825C43.4739+48.6825+41.9673+47.1758+41.9673+45.3169C41.9673+43.4579+43.4739+41.9513+45.3329+41.9513ZM40.2939+42.3085C41.0407+42.3085+41.6414+42.9155+41.6414+43.6623C41.6414+44.4091+41.0407+45.016+40.2939+45.016C39.5471+45.016+38.9401+44.4091+38.9401+43.6623C38.9401+42.9155+39.5471+42.3085+40.2939+42.3085ZM45.3329+42.3524C43.6954+42.3524+42.3684+43.6794+42.3684+45.3169C42.3684+46.9543+43.6954+48.2813+45.3329+48.2813C46.9703+48.2813+48.2973+46.9543+48.2973+45.3169C48.2973+43.6794+46.9703+42.3524+45.3329+42.3524ZM50.4533+42.5843C51.2001+42.5843+51.8071+43.1913+51.8071+43.938C51.8071+44.6848+51.2001+45.2918+50.4533+45.2918C49.7065+45.2918+49.0995+44.6848+49.0995+43.938C49.0995+43.1913+49.7065+42.5843+50.4533+42.5843ZM45.3329+42.7159C46.7698+42.7159+47.9338+43.88+47.9338+45.3169C47.9338+46.7538+46.7698+47.9178+45.3329+47.9178C43.8959+47.9178+42.7319+46.7538+42.7319+45.3169C42.7319+43.88+43.8959+42.7159+45.3329+42.7159ZM42.0863+48.156C42.8331+48.156+43.4401+48.763+43.4401+49.5098C43.4401+50.2565+42.8331+50.8635+42.0863+50.8635C41.3396+50.8635+40.7326+50.2565+40.7326+49.5098C40.7326+48.763+41.3396+48.156+42.0863+48.156ZM48.1406+48.4506C48.8874+48.4506+49.4881+49.0575+49.4881+49.8043C49.4881+50.5511+48.8874+51.1518+48.1406+51.1518C47.9539+51.1518+47.7761+51.1132+47.6142+51.0453C47.4523+50.9773+47.3043+50.8787+47.1817+50.757C46.9366+50.5134+46.7869+50.1777+46.7869+49.8043C46.7869+49.0575+47.3938+48.4506+48.1406+48.4506Z">
		</path>
		<path opacity="1" fill="#000000" d="M45.328+4.65599C22.8673+4.65599+4.65599+22.8673+4.65599+45.328C4.65599+67.7887+22.8673+86+45.328+86C67.7887+86+86+67.7887+86+45.328C86+22.8673+67.7887+4.65599+45.328+4.65599ZM45.328+12.6489C63.3744+12.6489+78.0071+27.2816+78.0071+45.328C78.0071+63.3744+63.3744+78.0071+45.328+78.0071C27.2816+78.0071+12.6489+63.3744+12.6489+45.328C12.6489+27.2816+27.2816+12.6488+45.328+12.6489Z">
		</path>
	</g>
</svg>
