<svg height='100px' width='100px'  fill="#000000" xmlns="http://www.w3.org/2000/svg" viewBox="0 0 100 100" x="0px" y="0px"><title>Artboard 24</title><g><path d="M86.36,28H87a4,4,0,0,0,0-8h-.92a6.55,6.55,0,0,0,1-3.42c0-3.63-5.54-6.21-6.17-6.5a1,1,0,0,0-.82,0c-.63.28-6.17,2.87-6.17,6.5a6.55,6.55,0,0,0,1,3.42H74a4,4,0,0,0,0,8h.21l-.65,9.1A14.52,14.52,0,0,0,64.5,34h-29A14.4,14.4,0,0,0,26,37.44L25.36,28H26a4,4,0,0,0,0-8h-.92a6.55,6.55,0,0,0,1-3.42c0-3.63-5.54-6.21-6.17-6.5a1,1,0,0,0-.82,0c-.63.28-6.17,2.87-6.17,6.5a6.55,6.55,0,0,0,1,3.42H13a4,4,0,0,0,0,8h.21L9.58,78.83A9,9,0,0,0,9,82a8,8,0,0,0,7.75,8h66.5A8,8,0,0,0,91,82a8.15,8.15,0,0,0-1.09-4.06ZM75.87,16.58c0-1.8,3.05-3.71,4.58-4.48C82,12.88,85,14.78,85,16.58A4.55,4.55,0,0,1,83.5,20H77.41A4.55,4.55,0,0,1,75.87,16.58ZM72,24a2,2,0,0,1,2-2H87a2,2,0,0,1,0,4H74A2,2,0,0,1,72,24Zm12.35,4,3.39,47.44A7.7,7.7,0,0,0,83.25,74H72.93L74,59h0l2.21-31ZM63,74V68h8.35l-.43,6Zm8.49-8H63V61c0-.34,0-.67-.05-1h9Zm.57-8H62.64a13,13,0,0,0-4.34-7H72.56Zm.64-9H55a13,13,0,0,0-10,0H26.86l-.43-6H73.14ZM27.64,60h9.41c0,.33-.05.66-.05,1v5H28.07Zm9.72-2H27.5L27,51H41.7A13,13,0,0,0,37.36,58ZM28.64,74l-.43-6H37v6ZM39,61a11,11,0,0,1,22,0V74H39ZM35.5,36h29a12.46,12.46,0,0,1,8.88,3.6l-.1,1.4h-47l-.07-1A12.36,12.36,0,0,1,35.5,36ZM14.87,16.58c0-1.8,3.05-3.71,4.58-4.48C21,12.88,24,14.78,24,16.58A4.55,4.55,0,0,1,22.5,20H16.41A4.55,4.55,0,0,1,14.87,16.58ZM11,24a2,2,0,0,1,2-2H26a2,2,0,0,1,0,4H13A2,2,0,0,1,11,24Zm12.35,4,3.29,46H16.75a7.71,7.71,0,0,0-5,1.79L15.21,28Zm59.9,60H16.75a6,6,0,0,1,0-12h66.5a6,6,0,0,1,0,12Z"></path></g></svg>