<svg height='100px' width='100px'  fill="#000000" xmlns="http://www.w3.org/2000/svg" xmlns:xlink="http://www.w3.org/1999/xlink" version="1.1" x="0px" y="0px" viewBox="0 0 100 100" enable-background="new 0 0 100 100" xml:space="preserve"><g><rect x="45.387" y="47.215" width="3.184" height="1.25"></rect><path d="M45.387,45.215h3.184v-9.911l1.932-6.071c-4.368-1.777-7.047,0.984-7.047,0.984l1.932,4.723V45.215z"></path><path d="M45.387,50.465v28.769c0,0.88,0.713,1.592,1.592,1.592s1.592-0.712,1.592-1.592V50.465H45.387z"></path></g><g><path d="M28.104,47.797l3.771-6.532l-3.771-6.532h-7.542l-3.771,6.532l3.771,6.532H28.104z M24.977,38.292   c0.464,0.298,0.599,0.917,0.301,1.382l-1.655,2.577c-0.191,0.297-0.513,0.459-0.842,0.459c-0.185,0-0.372-0.051-0.54-0.159   c-0.464-0.298-0.599-0.917-0.301-1.382l1.655-2.577C23.894,38.127,24.511,37.993,24.977,38.292z M19.854,42.736   c-0.184,0-0.37-0.051-0.537-0.157c-0.466-0.297-0.603-0.916-0.306-1.381l2.886-4.524c0.298-0.466,0.917-0.602,1.381-0.306   c0.466,0.297,0.603,0.916,0.306,1.381l-2.886,4.524C20.507,42.573,20.184,42.736,19.854,42.736z"></path><path d="M24.333,59.135c-4.616,0-8.372,3.755-8.372,8.371c0,4.617,3.755,8.373,8.372,8.373s8.372-3.756,8.372-8.373   C32.704,62.89,28.949,59.135,24.333,59.135z"></path><path d="M39.374,42.072l-7.521-13.026H16.812L9.291,42.072l7.342,12.717L9.291,67.506l7.521,13.026h15.042l7.521-13.026   l-7.342-12.717L39.374,42.072z M14.77,41.766c-0.178-0.31-0.178-0.69,0-1l4.348-7.532c0.179-0.31,0.509-0.5,0.866-0.5h8.697   c0.357,0,0.688,0.19,0.866,0.5l4.349,7.532c0.178,0.31,0.178,0.69,0,1l-4.349,7.532c-0.179,0.31-0.509,0.5-0.866,0.5h-8.697   c-0.357,0-0.688-0.19-0.866-0.5L14.77,41.766z M34.704,67.506c0,5.72-4.653,10.373-10.372,10.373s-10.372-4.653-10.372-10.373   c0-5.719,4.653-10.371,10.372-10.371S34.704,61.787,34.704,67.506z"></path></g><rect x="72.768" y="54.574" width="12.116" height="26.252"></rect><g><rect x="55.458" y="54.413" width="12.116" height="21.517"></rect><rect x="55.458" y="77.93" width="12.116" height="2.896"></rect><polygon points="67.574,52.413 67.574,49.381 65.555,49.381 65.555,44.141 64.4,44.141 64.4,32.519 58.631,35.116 58.631,44.141    57.478,44.141 57.478,49.381 55.458,49.381 55.458,52.413  "></polygon></g></svg>