<svg height='100px' width='100px'  fill="#000000" xmlns="http://www.w3.org/2000/svg" xmlns:xlink="http://www.w3.org/1999/xlink" version="1.1" x="0px" y="0px" viewBox="0 0 100 100" style="enable-background:new 0 0 100 100;" xml:space="preserve"><path d="M50.0830078,62.4301758c-5.6611328,0-10.2675781,4.605957-10.2675781,10.2675781S44.421875,82.965332,50.0830078,82.965332  s10.2675781-4.605957,10.2675781-10.2675781S55.7441406,62.4301758,50.0830078,62.4301758z M50.0830078,80.965332  c-4.5585938,0-8.2675781-3.7089844-8.2675781-8.2675781s3.7089844-8.2675781,8.2675781-8.2675781  s8.2675781,3.7089844,8.2675781,8.2675781S54.6416016,80.965332,50.0830078,80.965332z"></path><path d="M34.7246094,58.6899414c-2.6044922,0-4.7236328,2.1191406-4.7236328,4.7236328s2.1191406,4.7236328,4.7236328,4.7236328  s4.7236328-2.1191406,4.7236328-4.7236328S37.3291016,58.6899414,34.7246094,58.6899414z M34.7246094,66.137207  c-1.5019531,0-2.7236328-1.2216797-2.7236328-2.7236328s1.2216797-2.7236328,2.7236328-2.7236328  s2.7236328,1.2216797,2.7236328,2.7236328S36.2265625,66.137207,34.7246094,66.137207z"></path><path d="M65.4423828,58.6899414c-2.6044922,0-4.7236328,2.1191406-4.7236328,4.7236328s2.1191406,4.7236328,4.7236328,4.7236328  s4.7236328-2.1191406,4.7236328-4.7236328S68.046875,58.6899414,65.4423828,58.6899414z M65.4423828,66.137207  c-1.5019531,0-2.7236328-1.2216797-2.7236328-2.7236328s1.2216797-2.7236328,2.7236328-2.7236328  s2.7236328,1.2216797,2.7236328,2.7236328S66.9443359,66.137207,65.4423828,66.137207z"></path><path d="M44.1669922,59.8466797c0.2246094,0,0.4501953-0.019043,0.6767578-0.0581055  c2.5673828-0.4404297,4.2294922-3.2841797,3.7050781-6.3378906c-0.2460938-1.4404297-0.9394531-2.7246094-1.9511719-3.6166992  c-1.0722656-0.9453125-2.3730469-1.3466797-3.6542969-1.1240234c-1.2841797,0.2207031-2.375,1.0292969-3.0703125,2.277832  c-0.6572266,1.1777344-0.8818359,2.6201172-0.6347656,4.0600586C39.7158203,57.8330078,41.8486328,59.8466797,44.1669922,59.8466797  z M41.6201172,51.9614258c0.3955078-0.7094727,0.9853516-1.1640625,1.6611328-1.2797852  c0.1142578-0.0195312,0.2285156-0.0292969,0.34375-0.0292969c0.5683594,0,1.1435547,0.2353516,1.6503906,0.6821289  c0.6699219,0.5908203,1.1328125,1.4624023,1.3027344,2.4541016c0.3369141,1.9672852-0.5917969,3.7749023-2.0722656,4.0288086  c-1.4853516,0.2573242-2.9589844-1.140625-3.296875-3.1074219C41.0390625,53.7177734,41.1845703,52.7416992,41.6201172,51.9614258z"></path><path d="M54.7070312,59.625c0.3916016,0.1191406,0.7910156,0.1782227,1.1923828,0.1782227  c0.8779297,0,1.7626953-0.2822266,2.5742188-0.8330078c1.1162109-0.7573242,1.9658203-1.9443359,2.3916016-3.3417969  c0.9052734-2.9638672-0.3847656-5.9936523-2.8759766-6.7543945c-1.2451172-0.378418-2.5830078-0.1474609-3.7666016,0.6542969  c-1.1162109,0.7573242-1.9658203,1.9443359-2.3916016,3.3422852C50.9257812,55.8339844,52.2158203,58.8642578,54.7070312,59.625z   M53.7431641,53.4541016c0,0,0,0,0-0.0004883c0.2939453-0.9624023,0.8623047-1.7685547,1.6015625-2.2700195  c0.4726562-0.3208008,0.9746094-0.4853516,1.4589844-0.4853516c0.2050781,0,0.40625,0.0292969,0.6015625,0.0888672  c1.4365234,0.4384766,2.1298828,2.3481445,1.5478516,4.2578125c-0.2939453,0.9624023-0.8623047,1.7685547-1.6015625,2.2700195  c-0.6728516,0.4560547-1.4052734,0.5981445-2.0605469,0.3969727C53.8544922,57.2734375,53.1601562,55.3632812,53.7431641,53.4541016  z"></path><path d="M86.4395752,25.1858521c2.1407471-1.5159302,3.5447998-4.0067139,3.5447998-6.8235474  C89.984375,13.7514648,86.2333984,10,81.6220703,10c-4.6103516,0-8.3613281,3.7514648-8.3613281,8.3623047  c0,2.8101807,1.3977661,5.2955322,3.5297852,6.8125H76.578125c-2.03125,0-3.6845703,1.652832-3.6845703,3.6845703v0.5795898  H27.2578125V28.859375c0-2.0317383-1.6533203-3.6845703-3.6845703-3.6845703h-0.043457  c2.132019-1.5169678,3.5297852-4.0023193,3.5297852-6.8125C27.0595703,13.7514648,23.3085938,10,18.6982422,10  c-4.6113281,0-8.3623047,3.7514648-8.3623047,8.3623047c0,2.8101807,1.3977661,5.2955322,3.5300293,6.8125h-0.0437012  c-2.03125,0-3.6845703,1.652832-3.6845703,3.6845703v60.1616211c0,0.5522461,0.4472656,1,1,1h77.8769531  c0.5527344,0,1-0.4477539,1-1V28.859375C90.0146484,26.8651123,88.4192505,25.2453613,86.4395752,25.1858521z   M12.3359375,18.3623047C12.3359375,14.8540039,15.1904297,12,18.6982422,12s6.3613281,2.8540039,6.3613281,6.3623047  s-2.8535156,6.3623047-6.3613281,6.3623047S12.3359375,21.8706055,12.3359375,18.3623047z M74.8935547,77.4287109v-8.4887695  h13.1210938v8.4887695H74.8935547z M88.0146484,47.9628906v8.4882812H74.8935547v-8.4882812H88.0146484z M74.8935547,58.4511719  h5.5605469v8.4887695h-5.5605469V58.4511719z M82.4541016,58.4511719h5.5605469v8.4887695h-5.5605469V58.4511719z   M88.0146484,45.9628906h-5.5605469v-8.4887695h5.5605469V45.9628906z M80.4541016,45.9628906h-5.5605469v-8.4887695h5.5605469  V45.9628906z M75.2607422,18.3623047C75.2607422,14.8540039,78.1142578,12,81.6220703,12s6.3623047,2.8540039,6.3623047,6.3623047  s-2.8544922,6.3623047-6.3623047,6.3623047S75.2607422,21.8706055,75.2607422,18.3623047z M76.578125,27.1748047h9.7519531  c0.9287109,0,1.6845703,0.7558594,1.6845703,1.6845703v6.6147461H74.8935547V28.859375  C74.8935547,27.9306641,75.6494141,27.1748047,76.578125,27.1748047z M72.8935547,38.8964844h-7.8359375v-7.4575195h7.8359375  V38.8964844z M36.4423828,38.8964844v-7.4575195h7.5380859v7.4575195H36.4423828z M45.9804688,31.4389648h7.5390625v7.4575195  h-7.5390625V31.4389648z M55.5195312,31.4389648h7.5380859v7.4575195h-7.5380859V31.4389648z M34.4423828,31.4389648v7.4575195  h-7.1845703v-7.4575195H34.4423828z M12.1376953,77.4287109v-8.4887695h13.1201172v8.4887695H12.1376953z M25.2578125,47.9628906  v8.4882812H12.1376953v-8.4882812H25.2578125z M12.1376953,58.4511719h5.5605469v8.4887695h-5.5605469V58.4511719z   M19.6982422,58.4511719h5.5595703v8.4887695h-5.5595703V58.4511719z M25.2578125,45.9628906h-5.5595703v-8.4887695h5.5595703  V45.9628906z M17.6982422,45.9628906h-5.5605469v-8.4887695h5.5605469V45.9628906z M13.8222656,27.1748047h9.7509766  c0.9287109,0,1.6845703,0.7558594,1.6845703,1.6845703v6.6147461H12.1376953V28.859375  C12.1376953,27.9306641,12.8935547,27.1748047,13.8222656,27.1748047z M12.1376953,79.4287109h5.3652344v8.5922852h-5.3652344  V79.4287109z M19.5029297,88.0209961v-8.5922852h5.7548828v8.5922852H19.5029297z M27.2578125,88.0209961V40.8964844h45.6357422  v47.1245117H27.2578125z M74.8935547,79.4287109h5.5605469v8.5922852h-5.5605469V79.4287109z M82.4541016,88.0209961v-8.5922852  h5.5605469v8.5922852H82.4541016z"></path></svg>