<svg height='100px' width='100px'  fill="#000000" xmlns="http://www.w3.org/2000/svg" xmlns:xlink="http://www.w3.org/1999/xlink" version="1.1" x="0px" y="0px" viewBox="0 0 96 96" enable-background="new 0 0 96 96" xml:space="preserve"><g><rect x="1.1118" y="92.9951" width="93.8896" height="2"></rect><path d="M15.6386,67.2038c-0.35,0.66-0.69,1.33-1.01,2h-13.52v-2h11.25v-3.53l2,0.11v3.42H15.6386z"></path><path d="M13.4386,35.5238v-2h1.69v2H13.4386z M16.5986,56.7038h-1.7v-2h1.7V56.7038z M16.5986,45.1737h-1.7v-2h1.7V45.1737z"></path><path d="M94.9986,67.2038v2h-16.9c-0.32-0.68-0.66-1.35-1.03-2h1.74v-8.53c0.65-0.03,1.32-0.07,2-0.1v8.63H94.9986z"></path><path d="M64.5986,25.1837h1.6v2h-1.6V25.1837z"></path><path d="M64.3586,43.4837h5.47l-0.94,1.54h-11.95l2.2-3.61h-4.81l6.23-10.21h-4.5c7.6572-12.5605,2.9721-4.8795,8.71-14.3   c0.5327,0.9171-1.9298-3.3225,5.21,8.97l-3.65,5.99h5.12L64.3586,43.4837z"></path><path d="M36.1962,52.956c-1.589,4.1845-2.9763,8.9361-4.1008,13.9514c10.1667-5.787,19.7476-5.8496,28.5362-0.1882   c-0.5568-2.5209-1.1753-4.9711-1.8486-7.3168h-4.1653v-2h3.576c-1.1396-3.6938-2.4125-7.0726-3.781-9.9565   c-2.5895-0.9895-5.2844-1.5377-8.0513-1.5377c-2.6563,0-5.2466,0.504-7.7406,1.4197c-0.5632,1.1323-1.1036,2.3577-1.6303,3.6282   h4.0755v2H36.1962z"></path><path d="M30.7686,63.8438c1.4-5.66,3.12-10.92,5.08-15.31c-8.3,4.16-15.33,12.83-19.91,22.5099h6.19v2h-7.09   c-1.92,4.4301-3.32,9.02-4.09,13.44h11.77v2H10.6486c-0.1201,0.85-0.21,1.69-0.27,2.51h16.61c0.09-3.02,0.31-6.14,0.65-9.28h-6.92   v-2h7.15c0.57-4.68,1.39-9.37,2.42-13.87h-6.37v-2H30.7686z"></path><path d="M77.6786,73.0437h-7.14v-2h6.24c-4.53-9.5699-11.45-18.1399-19.6299-22.36c1.86,4.35,3.5099,9.55,4.86,15.16h6.74v2h-6.27   c1.01,4.49,1.82,9.19,2.38,13.87h7.09v2h-6.86c0.34,3.14,0.5601,6.26,0.65,9.28h16.59   C81.8986,85.2437,80.2586,79.0037,77.6786,73.0437z M69.9486,88.4837v-2h11.47v2H69.9486z"></path><path d="M61.2286,69.5637c-4.46-3.31-9.06-5-13.87-5.07v0.5h-2v-0.45c-4.42,0.34-9.02,2.02-13.84,5.04   c-1.42,7.04-2.32,14.47-2.53,21.41h34.75C63.5286,84.0437,62.6286,76.6137,61.2286,69.5637z M47.3586,89.0537h-2v-3.01h2V89.0537z    M47.3586,83.0338h-2v-3h2V83.0338z M47.3586,77.0238h-2v-3.01h2V77.0238z M47.3586,71.0037h-2v-3h2V71.0037z"></path><path d="M24.5486,19.8637c0.99-1.87,2.95-3.14,5.21-3.14h1.31c0.68-2.13,2.12-3.89,3.99-4.98c-1.22-1.62-3.15-2.62-5.29-2.62   c-3.66,0-6.64,2.97-6.64,6.63C23.1286,17.2638,23.6386,18.7138,24.5486,19.8637z"></path><rect x="28.768" y="1.2949" width="2" height="4.9854"></rect><rect x="18.8076" y="6.2947" transform="matrix(0.7072 0.7071 -0.7071 0.7072 11.3954 -12.9243)" width="4.9853" height="1.9998"></rect><rect x="15.3002" y="14.7617" width="4.9863" height="2"></rect><rect x="20.3003" y="21.7361" transform="matrix(-0.7071 -0.7071 0.7071 -0.7071 19.2293 56.4229)" width="1.9998" height="4.9857"></rect><rect x="37.2349" y="4.802" transform="matrix(0.7071 0.7071 -0.7071 0.7071 16.3568 -24.8995)" width="1.9998" height="4.9853"></rect><path d="M32.6773,18.7252h-2.9178c-2.1492,0-3.8905,1.7418-3.8905,3.8906c0,2.1397,1.7415,3.8811,3.8905,3.8811   c5.0399,0,1.0242,0,19.7672,0c2.1562,0,3.8904-1.7516,3.8904-3.8811c0-2.1491-1.7415-3.8906-3.8904-3.8906h-2.9271   c-0.3798-3.5106-3.3439-6.2432-6.9565-6.2432S33.0571,15.2146,32.6773,18.7252z"></path><path d="M58.4174,9.7841l0.707,0.707l0.707-0.707c1.1152-1.1167,2.9307-1.1147,4.0459,0l1.4141-1.4141   c-1.6729-1.6738-4.2754-1.8696-6.167-0.5854c-1.8906-1.2847-4.4941-1.0889-6.167,0.5854l1.4141,1.4141   C55.4848,8.6694,57.3002,8.6674,58.4174,9.7841z"></path><path d="M67.0854,3.6709l0.707,0.7075l0.707-0.7075c0.8594-0.8594,2.3555-0.8594,3.2148,0l1.4141-1.4141   c-0.8066-0.8076-1.8799-1.252-3.0215-1.252c-0.834,0-1.6309,0.2373-2.3145,0.6797c-0.6836-0.4424-1.4814-0.6797-2.3145-0.6797   c-1.1426,0-2.2158,0.4443-3.0225,1.252l1.4141,1.4141C64.728,2.8115,66.225,2.8105,67.0854,3.6709z"></path><path d="M73.4955,7.5776c0.8867-0.8857,2.3291-0.8867,3.2158-0.0005l0.707,0.707l0.707-0.707c0.8867-0.8877,2.3291-0.8867,3.2158,0   l1.4141-1.4141c-1.4482-1.4492-3.6836-1.6372-5.3369-0.5713c-1.6553-1.0659-3.8887-0.875-5.3369,0.5708L73.4955,7.5776z"></path><path d="M94.9986,55.8637c-4.59,0.22-24.7,1.23-24.7,1.23c-1.43-1.72-2.95-3.32-4.55-4.78l7.64-10.83h-5.47   c0.062-0.1015,7.1533-11.7238,7.09-11.62h-5.12c8.5343-13.9973,2.9459-4.8364,9.91-16.27l9.93,16.27h-5.13l7.09,11.62h-5.47   C86.2859,41.5939,95.0601,55.9645,94.9986,55.8637z"></path><path d="M23.2786,56.0938c-1.62,1.84-3.1299,3.83-4.52,5.93c-3.3089-0.1807,5.45,0.3011-17.76-0.98   c7.6652-12.5575,3.4982-5.7322,7.14-11.7h-4.45c7.0802-11.6062,3.4282-5.6147,5.77-9.45h-4.17   c7.7964-12.7868,4.5217-7.4221,8.06-13.23l8.08,13.23h-4.17l5.77,9.45h-4.45L23.2786,56.0938z"></path></g></svg>