<svg height='100px' width='100px'  fill="#000000" xmlns="http://www.w3.org/2000/svg" xmlns:xlink="http://www.w3.org/1999/xlink" version="1.1" x="0px" y="0px" viewBox="0 0 32 32" enable-background="new 0 0 32 32" xml:space="preserve"><path d="M16.003,3.32l-0.092,0.001c-3.388,0.023-6.563,1.365-8.94,3.776c-2.378,2.412-3.675,5.605-3.65,8.992  C3.371,23.031,9.058,28.68,16,28.68h0.092c3.387-0.023,6.561-1.365,8.938-3.777s3.675-5.605,3.649-8.993  C28.63,8.968,22.945,3.32,16.003,3.32z M16.081,27.209H16c-6.137,0-11.165-4.992-11.209-11.13c-0.001-0.105,0.012-0.208,0.014-0.313  c0.389,0.716,0.923,1.085,1.605,1.383c1.114,0.486,1.708,0.125,1.861,3.631c0.16,3.688,4.103,3.74,3.675,2.4  c-0.347-1.088-0.389-2.592,0.716-3.586c1.104-0.996,0.66-2.742-1.326-4.085c-1.984-1.344-1.663-4.454-0.828-4.686  c0.707-0.197,3.312,1.24,2.603-1.309c-0.525-1.889-2.991-1.963-4.111-2.26c1.449-1.165,3.146-1.938,4.965-2.271  c0.177,0.217,0.481,0.425,1.006,0.529c1.36,0.27,2.054,0.946,2.55,1.501c0.463,0.516,4.013,3.645,5.869,0.574  c1.432,1.259,2.541,2.876,3.188,4.708c-0.804-0.154-1.984-0.262-2.668,0.232c-1.104,0.8-1.22,2.035-2.822,2.418  c-1.602,0.381-5.36,1.396-5.072,2.998c0.29,1.604-0.075,2.348,1.778,2.58c1.854,0.234,3.208-0.27,3.341,0.965  s-2.143,1.373-1.859,2.605c0.227,0.994,1.813,1.174,3.863,0.551C21.154,26.287,18.689,27.191,16.081,27.209z"></path></svg>