<svg height='100px' width='100px'  fill="#000000" xmlns="http://www.w3.org/2000/svg" xmlns:xlink="http://www.w3.org/1999/xlink" version="1.1" x="0px" y="0px" viewBox="0 0 100 100" enable-background="new 0 0 100 100" xml:space="preserve"><g><g><path d="M45.5,5c-2.7-1.4-6-0.5-7.5,2.1c0,0,0,0.1-0.1,0.1l-5.7,10.6c-0.1,0.2-0.2,0.4-0.2,0.7L30.2,31l-4.3,2.7    c-1.4,0.9-2.3,2.3-2.5,4s0.4,3.3,1.6,4.5l3.2,3.2c1.1,1.1,2.5,1.6,3.9,1.6c1.2,0,2.3-0.4,3.3-1.1L50,34.7l14.8,11.2    c1,0.7,2.1,1.1,3.3,1.1c1.4,0,2.8-0.5,3.9-1.6l3.2-3.2c1.2-1.2,1.7-2.8,1.6-4.5s-1.1-3.1-2.5-4L69.8,31L68,18.4    c0-0.2-0.1-0.5-0.2-0.7L62.1,7.1c0,0,0-0.1-0.1-0.1c-1.6-2.6-4.9-3.5-7.5-2.1c-2.8,1.5-3.8,4.9-2.4,7.7l2.1,4c-0.2,0-0.3,0-0.5,0    c-1.4,0-2.8,0.5-3.8,1.4c-1-0.9-2.3-1.4-3.8-1.4c-0.2,0-0.3,0-0.5,0l2.1-4C49.4,9.9,48.3,6.5,45.5,5z M53.8,20.7    c1,0,1.8,0.8,1.8,1.8v5c0,1.1,0.9,2,2,2s2-0.9,2-2v-8.8c0-0.3-0.1-0.6-0.2-0.9l-3.7-7C55.2,10,55.5,9,56.4,8.5    c0.8-0.4,1.7-0.2,2.2,0.6l5.5,10.2L66,32.5c0.1,0.6,0.4,1.1,0.9,1.4l5.1,3.2c0.5,0.3,0.6,0.8,0.7,1.1c0,0.3,0,0.8-0.4,1.2    l-3.2,3.2c-0.5,0.5-1.3,0.6-1.9,0.1L52,31.2v-8.7C52,21.5,52.8,20.7,53.8,20.7z M46.2,20.7c1,0,1.8,0.8,1.8,1.8v8.7L32.8,42.7    c-0.6,0.4-1.4,0.4-1.9-0.1l-3.2-3.2c-0.4-0.4-0.4-0.9-0.4-1.2c0-0.3,0.2-0.7,0.7-1.1l5.1-3.2c0.5-0.3,0.8-0.8,0.9-1.4l1.9-13.2    l5.5-10.2c0.5-0.7,1.4-1,2.2-0.6c0.8,0.4,1.2,1.5,0.7,2.3l-3.7,7c-0.2,0.3-0.2,0.6-0.2,0.9v8.8c0,1.1,0.9,2,2,2s2-0.9,2-2v-5    C44.4,21.5,45.2,20.7,46.2,20.7z"></path><path d="M46.7,67.7c-1.2-1.3-2.9-2.1-4.7-2.1c0,0,0,0,0,0c-1.8,0-3.5,0.8-4.7,2.1c-1.7,1.9-2.9,3.7-3.7,5.5c-1.5-0.6-2.7-1-3-1.1    c-0.7-0.2-1.4,0-1.9,0.4c0,0-0.2,0.1-0.4,0.4c-3.2,3.2-4.4,7.7-3.3,12.1c1.2,4.3,4.4,7.6,8.7,8.8c0,0,0.1,0,0.1,0c0,0,0.1,0,0.1,0    c4.8,1.3,10.2,1.9,16,1.9c3,0,5.9-0.2,8.6-0.5c0,0,0,0,0.1,0c2.7-0.3,5.3-0.8,7.6-1.4c4.3-1.1,7.6-4.4,8.7-8.8    c1.2-4.4-0.1-8.9-3.3-12.1c-0.3-0.3-0.4-0.4-0.4-0.4C70.8,72,70,71.8,69.4,72c-0.1,0-1.4,0.4-3.2,1.2c-0.8-1.7-2-3.4-3.5-5.1    C61.5,66.7,59.8,66,58,66c-1.8,0-3.5,0.8-4.7,2.1c-0.5,0.5-0.9,1.1-1.3,1.6v-3.3c2.5-0.6,4-1.8,5-4c1-2.2,0.1-14.8-1.6-16.7    c-0.5-0.6-1.3-0.8-2-0.7c-0.7,0.2-1.3,0.8-1.5,1.5c-1.2,5.4-3.9,7.2-6.1,8.6c-0.9,0.6-1.8,1.1-2.4,1.9c-1,1.2-1.5,2.7-1.3,4.2    c0.2,1.7,1.2,3.2,2.6,4.2c1,0.7,2,1.1,3.2,1.3v2.7C47.6,68.7,47.2,68.2,46.7,67.7z M40.3,70.3c0.4-0.5,1-0.8,1.7-0.8    c0.7,0,1.3,0.3,1.7,0.8c1,1.2,1.8,2.3,2.5,3.4c-1.4,1-3.2,2.3-4.8,3.9c-1.2-1.1-2.7-2-4.1-2.8C37.9,73.4,38.9,71.9,40.3,70.3z     M39.2,87.9c-1.1,0.7-2.6,1.3-4.8,1.8c-2.7-0.8-4.8-3-5.6-5.8c-0.7-2.8-0.1-5.6,1.7-7.7c0.9,0.3,2.1,0.8,3.3,1.4c0,0,0,0,0,0    c2.2,1,4.5,2.4,5.8,4c0,0,0,0,0,0c0.2,0.2,0.4,0.5,0.6,0.8c0.2,0.4,0.4,0.7,0.4,1C41.3,85.5,40.8,86.8,39.2,87.9z M41.5,91.2    c2.9-2,4-5,3.2-8.6c-0.1-0.6-0.4-1.3-0.7-1.9c2.2-2.1,4.7-3.9,6.1-4.7c1.6,1,4.8,3.2,7.1,5.8c1.7,1.9,2.7,3.7,2.7,5.2    c0,1-0.2,1.9-0.5,2.6c-0.3,0.7-0.8,1.3-1.6,1.7c-2.4,0.3-5,0.4-7.8,0.4C47,91.7,44.2,91.5,41.5,91.2z M69.4,76.2    c1.8,2.1,2.5,5,1.7,7.7c-0.8,2.9-3,5.1-5.9,5.9c-0.6,0.2-1.3,0.3-2,0.5c0.3-1,0.5-2.2,0.5-3.4c0-2-0.8-4.2-2.5-6.4    C63.6,78.6,67.2,77,69.4,76.2z M59.7,70.7c1.3,1.5,2.3,2.9,2.9,4.2c-1.4,0.8-2.8,1.6-4,2.7c-1.6-1.5-3.2-2.8-4.6-3.8    c0.6-1,1.4-2,2.3-3.1C57.2,69.7,58.8,69.7,59.7,70.7z M47,62c-0.5-0.3-0.9-0.9-0.9-1.4c-0.1-0.4,0.1-0.8,0.3-1.1    c0.2-0.3,0.9-0.7,1.5-1.1c1.5-0.9,3.5-2.3,5.2-4.7c0.3,3,0.4,6.2,0.2,7c-0.3,0.7-0.6,1.2-1.3,1.5V61c0-1.1-0.9-2-2-2s-2,0.9-2,2    v1.5C47.7,62.4,47.3,62.2,47,62z"></path></g></g></svg>