<svg height='100px' width='100px'  fill="#000000" xmlns:x="http://ns.adobe.com/Extensibility/1.0/" xmlns:i="http://ns.adobe.com/AdobeIllustrator/10.0/" xmlns:graph="http://ns.adobe.com/Graphs/1.0/" xmlns="http://www.w3.org/2000/svg" xmlns:xlink="http://www.w3.org/1999/xlink" version="1.1" x="0px" y="0px" viewBox="0 0 100 100" enable-background="new 0 0 100 100" xml:space="preserve"><g><g i:extraneous="self"><path d="M45.5,36.3c-3.1,0-6.4-0.4-8.6-1.3c-1.1-0.4-0.9-0.8-2.9-1.3c0,0.8,0,1.7,0,2.7c2,1.9,5.6,3.3,11,3.3c5.5,0,11-1.5,11-3.5    v-2.5c0,0.5-1.4,1-2.4,1.4C51.3,35.8,48.6,36.3,45.5,36.3z"></path><path d="M45,34.8c5.5,0,11-1.5,11-3.5V31c0-2.2-5.1-3.9-11-3.9c-5.9,0-11,1.8-11,3.9c0,0,0,0.2,0,0.5C36,33.3,39.6,34.8,45,34.8z"></path><path d="M49,60.9c-1,0.2-2.4,0.2-3.8,0.2c-3.1,0-6.2-0.4-8.5-1.3c-1.1-0.4-0.8-0.8-2.8-1.3c0,1.4,0,2.3,0,2.3    c0,2.2,5,3.9,10.9,3.9c1.3,0,3.1-0.1,4.1-0.3V60.9z"></path><path d="M49,55.8c-1,0.2-2.3,0.2-3.7,0.2c-3.1,0-6.3-0.4-8.5-1.3C35.8,54.4,36,54,34,53.5c0,1,0,1.8,0,2.7c2,1.9,5.5,3.3,10.9,3.3    c1.4,0,3.1-0.1,4.1-0.3V55.8z"></path><path d="M49,50.9c-1,0.2-2.3,0.2-3.7,0.2c-3.1,0-6.3-0.4-8.5-1.3C35.8,49.5,36,49,34,48.6c0,0.9,0,1.8,0,2.7    c2,1.9,5.5,3.3,10.9,3.3c1.4,0,3.1-0.1,4.1-0.3V50.9z"></path><g><path d="M49,45.9c-1,0.2-2.3,0.2-3.7,0.2c-3.1,0-6.3-0.4-8.5-1.3c-1.1-0.4-0.8-0.8-2.8-1.3c0,0.9,0,1.8,0,2.7     c2,1.9,5.5,3.3,10.9,3.3c1.4,0,3.1-0.1,4.1-0.3V45.9z"></path></g><path d="M56,40.8v-2.2c0,0.5-1.4,1-2.4,1.4c-2.2,0.8-5,1.3-8.1,1.3c-3.1,0-6.4-0.4-8.6-1.3c-1.1-0.4-0.9-0.8-2.9-1.3    c0,0.9,0,1.7,0,2.7c2,1.9,5.7,3.3,11.1,3.3c1.4,0,2.8-0.1,4-0.3C49.9,42.8,53,41.5,56,40.8z"></path><path d="M61.2,51c-3.1,0-6.7-0.4-8.9-1.3c-1.1-0.4-1.2-0.8-3.2-1.3c0,0.8,0,1.7,0,2.7c3,1.9,5.6,3.3,11,3.3c5.5,0,11-1.5,11-3.5    v-2.5c0,0.5-1.1,1-2.1,1.4C66.7,50.5,64.2,51,61.2,51z"></path><path d="M60.4,69.2c5.5,0,10.5-1.5,11.1-3.5l0.2-2.5c-0.7,0.5-1.4,1-2.5,1.4c-2.2,0.8-5.1,1.3-8.1,1.3c-3.1,0-6.7-0.4-8.9-1.3    c-1.1-0.4-1.2-0.8-3.2-1.3c0,0.9,0,1.8,0,2.7C52,67.8,55.1,69.2,60.4,69.2z"></path><path d="M60.4,59.3c5.5,0,10.5-1.5,11.1-3.5l0.2-2.5c-0.7,0.5-1.4,1-2.5,1.4c-2.2,0.8-5.1,1.3-8.1,1.3c-3.1,0-6.7-0.4-8.9-1.3    c-1.1-0.4-1.2-0.8-3.2-1.3c0,0.9,0,1.7,0,2.7C52,57.9,55.1,59.3,60.4,59.3z"></path><path d="M60.4,64.3c5.5,0,10.5-1.5,11.1-3.5l0.2-2.5c-0.7,0.5-1.4,1-2.5,1.4c-2.2,0.8-5.1,1.3-8.1,1.3c-3.1,0-6.7-0.4-8.9-1.3    c-1.1-0.4-1.2-0.8-3.2-1.3c0,0.9,0,1.8,0,2.7C52,62.9,55.1,64.3,60.4,64.3z"></path><path d="M60,49.5c5.6,0,11-1.5,11-3.5v-0.3c0-2.2-5.1-3.9-11-3.9c-5.9,0-11,1.8-11,3.9c0,0,0,0.2,0,0.5C52,48,54.6,49.5,60,49.5z"></path><path d="M57.8,83.1c-8.8,0-16.5-4.5-21-11.3l3.7-1.6L21.6,58.1l-3.9,22.1l4.6-2c6.2,8.3,16,13.6,27.1,13.6    C68,91.8,83.1,77,83.1,58h-0.2C82.9,72,71.7,83.1,57.8,83.1z"></path><path d="M43,17c8.8,0,16.5,4.5,21,11.4l-3.7,1.6l18.9,12.1L83.1,20l-4.6,2c-6.2-8.3-16-13.7-27.1-13.7C32.8,8.3,17.7,23,17.7,42    h0.2C17.9,29,29.1,17,43,17z"></path></g></g></svg>