<svg height='100px' width='100px'  fill="#1A1A1A" xmlns="http://www.w3.org/2000/svg" xmlns:xlink="http://www.w3.org/1999/xlink" version="1.1" x="0px" y="0px" viewBox="0 0 90 90" enable-background="new 0 0 90 90" xml:space="preserve"><path d="M78.971,15.577L77.579,5.373c-0.093-2.687-2.243-4.844-4.874-4.844H20.892c-2.63,0-4.781,2.157-4.872,4.844l-1.394,10.205  c-2.69,0.856-4.658,3.363-4.655,6.416l2.712,60.513c0,3.669,2.832,6.652,6.31,6.652h55.612c3.479,0,6.311-2.983,6.307-6.549  l2.719-60.72C83.63,18.92,81.661,16.429,78.971,15.577z M16.618,19.842h0.064h60.234h0.03h0.032c1.129,0,2.047,0.918,2.051,1.945  v0.004H14.591C14.646,20.709,15.524,19.842,16.618,19.842z M20.599,5.863c0.014-0.103,0.021-0.207,0.021-0.312  c0-0.255,0.161-0.418,0.271-0.418h51.813c0.111,0,0.272,0.163,0.272,0.418c0,0.105,0.008,0.209,0.021,0.312l1.28,9.375H19.319  L20.599,5.863z M74.604,84.556H18.992c-0.939,0-1.705-0.918-1.708-2.151l-2.648-59.078H78.96l-2.648,59.18  C76.312,83.638,75.545,84.556,74.604,84.556z"></path><path d="M46.798,27.746c-14.248,0-25.841,11.592-25.841,25.844c0,14.249,11.593,25.842,25.841,25.842  c14.251,0,25.843-11.593,25.843-25.842C72.641,39.338,61.049,27.746,46.798,27.746z M46.798,76.486  c-12.624,0-22.894-10.271-22.894-22.896c0-12.627,10.271-22.897,22.894-22.897c12.624,0,22.896,10.271,22.896,22.897  C69.693,66.215,59.422,76.486,46.798,76.486z"></path><path d="M60.857,39.274c-0.019-0.015-0.034-0.034-0.054-0.048c-3.62-3.532-8.561-5.721-14.007-5.721  c-11.071,0-20.078,9.011-20.078,20.088c0,11.073,9.007,20.08,20.078,20.08c11.074,0,20.082-9.007,20.082-20.08  C66.879,47.991,64.567,42.92,60.857,39.274z M59.166,39.727c-1.71,1.031-3.508,1.771-6.922,0.062  c-5.736-2.874-9.147-1.036-11.89,0.442c-2.277,1.228-3.927,2.114-6.419,0.308c-0.078-0.057-0.153-0.098-0.231-0.15  c3.365-3.339,7.992-5.408,13.093-5.408C51.548,34.98,55.873,36.785,59.166,39.727z M46.797,72.198  c-10.257,0-18.604-8.347-18.604-18.605c0-4.621,1.703-8.847,4.502-12.105c0.126,0.083,0.249,0.153,0.376,0.245  c1.312,0.952,2.491,1.305,3.58,1.305c1.602,0,3.018-0.763,4.402-1.509c2.694-1.454,5.478-2.956,10.532-0.422  c4.335,2.174,6.758,0.871,8.676-0.322c3.178,3.339,5.144,7.845,5.144,12.808C65.405,63.852,57.056,72.198,46.797,72.198z"></path><path d="M30.385,8.034h-5.026c-0.591,0-1.067,0.479-1.067,1.068v2.167c0,0.589,0.476,1.068,1.067,1.068h5.026  c0.591,0,1.068-0.479,1.068-1.068V9.102C31.453,8.513,30.977,8.034,30.385,8.034z"></path><circle cx="55.814" cy="10.186" r="1.855"></circle><circle cx="61.568" cy="10.186" r="1.855"></circle><circle cx="67.323" cy="10.186" r="1.855"></circle></svg>