<svg height='100px' width='100px'  fill="#000000" xmlns="http://www.w3.org/2000/svg" viewBox="0 0 64 64" x="0px" y="0px"><g><path d="M61,32H59.313a28.113,28.113,0,0,0-19.324,7.619A15.173,15.173,0,0,0,21,38.821V31.442a14.834,14.834,0,0,0,4-1.774A14.992,14.992,0,1,0,33,2a14.891,14.891,0,0,0-7.99,2.328A14.984,14.984,0,0,0,7.022,28.175L2.1,38.572A1.006,1.006,0,0,0,2,39v9a1,1,0,0,0,.319.732l14,13A1,1,0,0,0,17,62H61a1,1,0,0,0,1-1V33A1,1,0,0,0,61,32ZM21,29.373V26.65l.387-.171a15,15,0,0,0,1.878,1.91A12.772,12.772,0,0,1,21,29.373ZM33,4A13,13,0,1,1,20,17,13.015,13.015,0,0,1,33,4ZM4,17A12.99,12.99,0,0,1,23.261,5.614a15.033,15.033,0,0,0-4.407,6.444,7.759,7.759,0,0,0-6.48,4.819L7.92,26.28A12.96,12.96,0,0,1,4,17ZM42,60H17.393L4,47.563V39.225L14.206,17.676a5.809,5.809,0,0,1,4.07-3.5,14.8,14.8,0,0,0,1.941,10.635l-.623.277A1,1,0,0,0,19,26V41a1,1,0,0,0,1.707.707,13.154,13.154,0,0,1,17.843-.671l-2.257,2.257,1.414,1.414,3-3c.418-.418.852-.815,1.293-1.2Zm18,0H44V39h-.119a26.115,26.115,0,0,1,15.432-5H60Z"></path><path d="M33,27A10,10,0,1,0,23,17,10.011,10.011,0,0,0,33,27ZM33,9a8,8,0,1,1-8,8A8.009,8.009,0,0,1,33,9Z"></path><path d="M33,22a5,5,0,1,0-5-5A5.006,5.006,0,0,0,33,22Zm0-8a3,3,0,1,1-3,3A3,3,0,0,1,33,14Z"></path><rect x="6.333" y="33" width="8.667" height="2" transform="translate(-24.82 30.761) rotate(-67.367)"></rect><rect x="12.5" y="26" width="2.167" height="2" transform="translate(-16.565 29.147) rotate(-67.367)"></rect></g></svg>