<svg height='100px' width='100px'  fill="#000000" xmlns="http://www.w3.org/2000/svg" xmlns:xlink="http://www.w3.org/1999/xlink" version="1.1" x="0px" y="0px" viewBox="0 0 64 64" enable-background="new 0 0 64 64" xml:space="preserve"><g><path d="M55.509,50.373v-0.02h-2.994v0.02H13.777c1.161,1.171,1.802,2.733,1.802,4.385c0,3.414-2.763,6.208-6.148,6.258   c0,0-0.01-0.01-0.02-0.01c-3.444,0-6.228-2.793-6.228-6.238V5.727c0-1.512,1.222-2.733,2.723-2.733h43.885   c1.502,0,2.723,1.222,2.723,2.733v6.048c0.33-0.03,0.671-0.05,1.011-0.05c0.681,0,1.342,0.07,1.982,0.19V5.727   C55.509,2.583,52.936,0,49.782,0H5.917C2.763,0,0.19,2.583,0.19,5.727v49.041c0,5.056,4.065,9.161,9.111,9.221   c0.03,0,0.06,0.01,0.09,0.01c0.01,0,0.02,0,0.02,0h44.826c5.136,0,9.542-4.045,9.572-9.172c0.01-1.582-0.371-3.104-1.111-4.456   H55.509z"></path><path d="M60.676,29.757c-1.882,1.672-4.386,2.713-7.149,2.713c-2.723,0-5.226-1.041-7.109-2.713c-1.772,0-3.134,1.412-3.134,3.134   v12.806c0,1.142,0.921,2.063,2.052,2.063h16.421c1.131,0,2.053-0.921,2.053-2.063V32.891C63.81,31.169,62.398,29.757,60.676,29.757   z"></path><path d="M45.532,21.714c0,4.438,3.604,8.042,7.989,8.042c4.439,0,8.042-3.604,8.042-8.042c0-4.387-3.603-7.99-8.042-7.99   C49.136,13.724,45.532,17.327,45.532,21.714z"></path><path d="M17.315,10.849c0-0.553-0.448-1.001-1.001-1.001H9.138c-0.553,0-1.001,0.448-1.001,1.001v7.175   c0,0.553,0.448,1.001,1.001,1.001h7.175c0.553,0,1.001-0.448,1.001-1.001V10.849z M15.312,17.023H10.14v-5.172h5.172V17.023z"></path><path d="M17.315,25.369c0-0.553-0.448-1.001-1.001-1.001H9.138c-0.553,0-1.001,0.448-1.001,1.001v7.175   c0,0.553,0.448,1.001,1.001,1.001h7.175c0.553,0,1.001-0.448,1.001-1.001V25.369z M15.312,31.543H10.14V26.37h5.172V31.543z"></path><path d="M16.313,38.887H9.138c-0.553,0-1.001,0.448-1.001,1.001v7.175c0,0.553,0.448,1.001,1.001,1.001h7.175   c0.553,0,1.001-0.448,1.001-1.001v-7.175C17.315,39.335,16.867,38.887,16.313,38.887z M15.312,46.062H10.14V40.89h5.172V46.062z"></path><rect x="19.151" y="13.046" width="21.36" height="2.391"></rect><rect x="19.151" y="27.761" width="21.36" height="2.391"></rect><rect x="19.151" y="42.476" width="21.36" height="2.391"></rect></g></svg>