<svg height='100px' width='100px'  fill="#000000" xmlns="http://www.w3.org/2000/svg" xmlns:xlink="http://www.w3.org/1999/xlink" version="1.1" x="0px" y="0px" viewBox="0 0 64 64" style="enable-background:new 0 0 64 64;" xml:space="preserve"><g><path d="M58.04,24.455C59.983,19.138,61,13.477,61,7.82V6h-6v6.049c0,3.708-0.451,7.392-1.328,10.987   C53.398,23.013,53.122,23,52.848,23c-4.473,0-8.478,2.997-9.739,7.288l-0.788,2.68c-1.436,4.879-4.26,9.18-8.166,12.437   c-3.648,3.04-8.062,5.001-12.762,5.673C17.104,51.689,12.731,52,8.399,52H4.4C2.525,52,1,53.525,1,55.4   c0,1.376,0.821,2.608,2.092,3.139l1.873,0.78C10.827,61.761,17.02,63,23.371,63c7.103,0,14.242-1.62,20.648-4.684   c8.773-4.195,15.469-11.925,18.37-21.209l0.147-0.475c0.308-0.981,0.463-2,0.463-3.028v-0.452   C63,29.583,61.071,26.274,58.04,24.455z M57,12.049V8h2c-0.028,6.955-1.651,13.912-4.702,20.162c-0.001,0-0.001-0.001-0.002-0.001   l0.665-2.216C56.313,21.434,57,16.759,57,12.049z M43.156,56.512C37.019,59.448,30.177,61,23.371,61   c-6.086,0-12.02-1.187-17.637-3.528l-1.873-0.78C3.338,56.474,3,55.967,3,55.4C3,54.628,3.628,54,4.4,54h3.999   c4.427,0,8.894-0.317,13.276-0.944c5.067-0.724,9.825-2.839,13.759-6.116c3.56-2.968,6.275-6.746,7.967-11.02l4.965-1.655   l2.049,6.145l6-3l1.625,4.873C54.733,48.433,49.53,53.464,43.156,56.512z M61,33.604c0,0.825-0.125,1.643-0.372,2.433l-0.147,0.476   c-0.341,1.092-0.739,2.161-1.188,3.204l-1.708-5.126l-6,3l-1.951-5.855l-5.395,1.798c0,0,0-0.001,0-0.001l0.788-2.68   C46.04,27.406,49.256,25,52.848,25c0.099,0,0.198,0.009,0.297,0.013c-0.035,0.119-0.065,0.239-0.1,0.357l-0.507,1.689   c-0.228-0.186-0.449-0.384-0.66-0.595l-0.172-0.171l-1.412,1.416l0.171,0.17C52.478,29.892,55.153,31,58,31v-2   c-0.616,0-1.22-0.068-1.809-0.193c0.393-0.815,0.763-1.641,1.109-2.477c2.274,1.493,3.7,4.065,3.7,6.822V33.604z"></path><path d="M41.431,52.903C35.827,55.583,29.582,57,23.371,57v2c6.508,0,13.051-1.484,18.923-4.292   c3.998-1.912,7.619-4.732,10.475-8.157l-1.537-1.28C48.561,48.476,45.171,51.115,41.431,52.903z"></path><path d="M52.652,43.423l1.633,1.154c0.473-0.668,0.924-1.363,1.342-2.065l-1.719-1.023C53.517,42.146,53.094,42.797,52.652,43.423z   "></path><path d="M18.465,26.05L16,23.587v3.177c0,1.308-0.31,2.618-0.895,3.789C14.383,32,14.001,33.618,14,35.232   c-1.256-1.025-2-2.561-2-4.232v-2.851l-4.062,5.078C6.688,34.789,6,36.751,6,38.751c0,2.362,0.92,4.583,2.59,6.253l2.703,2.703   l1.414-1.414l-2.703-2.703C8.712,42.297,8,40.579,8,38.751c0-1.548,0.532-3.066,1.5-4.275l0.882-1.103   c0.613,1.848,1.938,3.404,3.749,4.31L16,38.618v-3.382c0-1.308,0.31-2.618,0.895-3.789c0.483-0.967,0.814-2.012,0.98-3.081   C19.898,30.786,21,33.809,21,37v1.618l1.447-0.724c2.102-1.051,3.926-2.621,5.288-4.526l0.804,2.408   C28.845,36.695,29,37.653,29,38.623V39c0,2.817-1.346,5.509-3.601,7.2l1.201,1.6C29.355,45.733,31,42.443,31,39v-0.377   c0-1.185-0.189-2.355-0.564-3.479l-2.251-6.751l-1.079,2.16c-0.958,1.918-2.42,3.568-4.195,4.761   C22.533,31.816,20.988,28.575,18.465,26.05z"></path><path d="M32.464,10.326l0.45-0.321c-0.106,1.235-0.311,2.46-0.611,3.662l-0.05,0.196C32.085,14.536,32,15.229,32,15.923   c0,1.541,0.419,3.053,1.211,4.372l0.53,0.885C34.564,22.552,35,24.123,35,25.723c0,1.898-0.627,3.78-1.766,5.298L32.2,32.4l1.6,1.2   l1.034-1.378C36.23,30.359,37,28.052,37,25.723c0-1.963-0.534-3.89-1.544-5.572l-0.53-0.885C34.32,18.257,34,17.101,34,15.923   c0-0.53,0.065-1.061,0.193-1.574l0.049-0.195C34.745,12.144,35,10.073,35,8V6.057l-3.698,2.642C27.981,11.07,26,14.92,26,19h2   C28,15.565,29.669,12.323,32.464,10.326z"></path><path d="M4.2,34.6l1.6-1.2l-1.034-1.378C3.627,30.503,3,28.622,3,26.723c0-1.6,0.436-3.171,1.259-4.544l0.53-0.884   C5.581,19.976,6,18.463,6,16.923c0-0.693-0.085-1.387-0.254-2.062l-0.049-0.192c-0.3-1.202-0.505-2.428-0.611-3.663l0.45,0.321   C8.331,13.323,10,16.565,10,20h2c0-4.08-1.981-7.93-5.302-10.301L3,7.057V9c0,2.073,0.255,4.144,0.758,6.155l0.048,0.192   C3.935,15.862,4,16.393,4,16.923c0,1.178-0.32,2.334-0.926,3.344l-0.53,0.884C1.534,22.833,1,24.76,1,26.723   c0,2.329,0.77,4.636,2.166,6.499L4.2,34.6z"></path><path d="M14.294,23.121C16.039,21.375,17,19.055,17,16.587c0-1.18-0.222-2.334-0.66-3.432l-1.034-2.584   C15.103,10.064,15,9.531,15,8.985c0-1.492,0.795-2.896,2.074-3.663l0.944-0.567c0.143,2.518,1.093,4.941,2.713,6.885   C22.194,13.396,23,15.621,23,17.905h2c0-2.751-0.97-5.431-2.731-7.545C20.806,8.604,20,6.379,20,4.095V1.234l-3.955,2.373   C14.167,4.734,13,6.794,13,8.985c0,0.801,0.151,1.585,0.448,2.329l1.034,2.584C14.826,14.758,15,15.662,15,16.587   c0,1.934-0.753,3.752-2.12,5.12L14.294,23.121z"></path><path d="M30.105,28.553l1.789,0.895l0.329-0.658C32.731,27.774,33,26.636,33,25.5s-0.269-2.274-0.776-3.289L30,17.763l-1.262,2.524   c-0.371,0.743-0.857,1.417-1.445,2.005l1.414,1.414c0.473-0.472,0.893-0.989,1.257-1.544l0.471,0.943   C30.805,23.845,31,24.673,31,25.5s-0.195,1.655-0.565,2.395L30.105,28.553z"></path><path d="M8.036,23.163c0.364,0.555,0.784,1.072,1.257,1.544l1.414-1.414c-0.588-0.588-1.074-1.263-1.445-2.005L8,18.763   l-2.224,4.448C5.269,24.226,5,25.364,5,26.5s0.269,2.274,0.776,3.289l0.329,0.658l1.789-0.895l-0.329-0.658   C7.195,28.155,7,27.327,7,26.5s0.195-1.655,0.565-2.395L8.036,23.163z"></path></g></svg>