<svg height='100px' width='100px'  fill="#000000" xmlns="http://www.w3.org/2000/svg" viewBox="0 0 48 48" x="0px" y="0px"><title>6-mushroom</title><g data-name="6-mushroom"><path d="M10,6h1V7a1,1,0,0,0,2,0V6h1a1,1,0,0,0,0-2H13V3a1,1,0,0,0-2,0V4H10a1,1,0,0,0,0,2Z"></path><path d="M44,23V22a1,1,0,0,0-2,0v1H41a1,1,0,0,0,0,2h1v1a1,1,0,0,0,2,0V25h1a1,1,0,0,0,0-2Z"></path><path d="M43.99987,45l4-15s-9,4-11,12l-3-3-2,4-2-3-3,5c0-8-4-12-4-12,1,3-1,11-1,11l-3-8-3,4-6-7-1,8c-2-5-9-6-9-6l2,10v3h42Z"></path><path d="M17.31342,28.98022C16.88171,28.98865,16.46021,29,16,29c-.8775,0-1.77789-.01862-2.67877-.05762a42.31289,42.31289,0,0,0-.31452,4.49207L15.896,36.80518l1.154-1.5387c-.02936-.40125-.05017-.81757-.05017-1.26648A41.80838,41.80838,0,0,1,17.31342,28.98022Z"></path><path d="M32,21h-.001c-.04712,0-.681-.00214-1.63012-.03674A21.3539,21.3539,0,0,1,30.99988,26a41.72018,41.72018,0,0,1-2,11,13.94427,13.94427,0,0,1-.82068,1.78754c.02289.08294.05109.1535.07324.23785l1.65869-2.76416L31.75244,39.023l1.61444-3.22888A38.85005,38.85005,0,0,0,34.99988,26a21.35855,21.35855,0,0,0-.63306-5.04578C33.61987,20.98175,32.84094,21,32,21Z"></path><path d="M31.99988,5C28.99335,5,23.72852,9.5191,21.298,13.038a27.91508,27.91508,0,0,1,3.57941,2.88678,29.57606,29.57606,0,0,1,2.64484,2.86078c2.41449.21369,4.4776.21442,4.4776.21442s12,0,12-3S35.99988,5,31.99988,5ZM38,15a1,1,0,0,1-1-1c0-2.17578-3.2124-3.022-3.24512-3.03027a1.00017,1.00017,0,0,1,.4878-1.93994C34.437,9.07861,39,10.26221,39,14A1,1,0,0,1,38,15Z"></path><path d="M15.99988,13c-4,0-12,8-12,11s12,3,12,3,12,0,12-3S19.99988,13,15.99988,13Zm-1.75476,5.96973C14.2124,18.978,11,19.82422,11,22a1,1,0,0,1-2,0c0-3.73779,4.563-4.92139,4.75732-4.97021a1.00017,1.00017,0,0,1,.4878,1.93994Z"></path></g></svg>