<?xml version="1.0" encoding="utf-8"?>
<!-- Generator: Adobe Illustrator 24.2.1, SVG Export Plug-In . SVG Version: 6.00 Build 0)  -->
<svg version="1.1" id="Layer_1" xmlns="http://www.w3.org/2000/svg" xmlns:xlink="http://www.w3.org/1999/xlink" x="0px" y="0px"
	 viewBox="0 0 100 100" enable-background="new 0 0 100 100" xml:space="preserve">
<g>
	<g>
		<path fill-rule="evenodd" clip-rule="evenodd" d="M32.609,25.431l13.965,26.553c0.983-1.976,1.975-3.949,2.992-5.91
			C43.887,35.176,37.143,24.041,32.609,25.431L32.609,25.431z M50.436,59.327l1.398,2.658l4.457-2.499
			c-0.857-1.711-1.828-3.69-2.881-5.814L50.436,59.327L50.436,59.327z"/>
		<path fill-rule="evenodd" clip-rule="evenodd" d="M56.408,59.512c9.024-11.165,18.845,10.888,9.831,14.677
			c-3.809,1.601-7.294-0.862-10.097-4.582C52.883,65.019,56.408,59.512,56.408,59.512L56.408,59.512z M59.197,61.393
			c0.517-0.698,1.566-1.925,2.514-1.806c1.785,0.223,3.448,3.37,3.974,4.847c0.579,1.625,1.433,5.739-0.749,6.657
			c-2.442,1.026-4.827-1.753-6.081-3.468C57.554,65.844,58.126,63.158,59.197,61.393z"/>
		<path fill-rule="evenodd" clip-rule="evenodd" d="M57.057,60.524c0,0-2.092,4.408-0.915,9.084
			c-2.425-3.218-4.338-7.375-5.51-10.655l2.441-4.641L57.057,60.524L57.057,60.524z"/>
		<path fill-rule="evenodd" clip-rule="evenodd" d="M67.391,25.431L48.166,61.984l-4.457-2.499
			C49.592,47.744,60.816,23.416,67.391,25.431L67.391,25.431z M50,51.125c0.803,0,1.453,0.651,1.453,1.453S50.803,54.032,50,54.032
			s-1.453-0.651-1.453-1.453S49.197,51.125,50,51.125z"/>
		<path fill-rule="evenodd" clip-rule="evenodd" d="M43.592,59.512C34.568,48.348,24.747,70.4,33.761,74.189
			c3.809,1.601,7.294-0.862,10.097-4.582C47.117,65.019,43.592,59.512,43.592,59.512L43.592,59.512z M40.803,61.393
			c-0.517-0.698-1.566-1.925-2.514-1.806c-1.785,0.223-3.448,3.37-3.974,4.847c-0.579,1.625-1.433,5.739,0.749,6.657
			c2.442,1.026,4.827-1.753,6.081-3.468C42.446,65.844,41.874,63.158,40.803,61.393z"/>
		<path fill-rule="evenodd" clip-rule="evenodd" d="M42.943,60.524c0,0,2.092,4.408,0.915,9.084
			c4.198-5.571,6.865-13.96,6.798-15.732c-0.197,0.1-0.42,0.156-0.656,0.156c-0.803,0-1.453-0.651-1.453-1.453
			c0-0.027,0.001-0.053,0.002-0.08c-0.146-0.004-0.302,0-0.466,0.01C48.083,52.509,42.943,60.524,42.943,60.524z"/>
	</g>
</g>
<rect fill="none" width="100" height="100"/>
<path d="M50.771,0.452L71.65,12.506l-0.002,0.003L92.522,24.56l0.777,0.449v0.883V50v24.108v0.883l-0.777,0.449L71.648,87.491
	l0.002,0.003L50.771,99.548L50,99.993l-0.771-0.445L28.35,87.494l0.002-0.003L7.478,75.44l-0.777-0.449v-0.883V50V25.892v-0.883
	l0.777-0.449l20.874-12.051l-0.002-0.003L49.229,0.452L50,0.007C50,0.007,50.771,0.452,50.771,0.452z M50,5.351L34.68,14.196
	l0.002,0.003L11.33,27.681v44.638l23.352,13.482l-0.002,0.003L50,94.649l15.319-8.845l-0.002-0.003L88.67,72.319V27.681
	L65.318,14.199l0.002-0.003C65.32,14.196,50,5.351,50,5.351z"/>
</svg>
