<svg height='100px' width='100px'  fill="#000000" xmlns="http://www.w3.org/2000/svg" xmlns:xlink="http://www.w3.org/1999/xlink" version="1.1" x="0px" y="0px" viewBox="0 0 64 64" style="enable-background:new 0 0 64 64;" xml:space="preserve"><g><path d="M61,25h-2v-0.182c0-0.859-0.436-1.645-1.164-2.1l-6.948-4.343C50.493,18.13,50.039,18,49.576,18h-2.958l-1.447-2.894   C44.831,14.424,44.146,14,43.382,14H20.618c-0.764,0-1.449,0.424-1.789,1.105L17.382,18h-2.958c-0.463,0-0.917,0.13-1.313,0.377   l-6.945,4.341C5.436,23.174,5,23.959,5,24.818V25H3c-1.103,0-2,0.897-2,2v8c0,1.103,0.897,2,2,2h2v2.508   c0,0.533,0.176,1.061,0.527,1.527l9.106,10.89C15.205,52.608,16.044,53,16.935,53H27c1.654,0,3-1.346,3-3v-4c0-1.103,0.897-2,2-2   s2,0.897,2,2v4c0,1.654,1.346,3,3,3h10.065c0.891,0,1.729-0.392,2.302-1.075l9.138-10.931C58.824,40.568,59,40.041,59,39.508V37h2   c1.103,0,2-0.897,2-2v-8C63,25.897,62.103,25,61,25z M5,35H3v-8h2V35z M20.618,16h22.764l1,2H19.618L20.618,16z M19,51h-2.065   c-0.297,0-0.576-0.131-0.767-0.358L14.795,49H19V51z M23,51h-2v-2h2V51z M28,50c0,0.552-0.448,1-1,1h-2v-2h3V50z M39,51h-2   c-0.552,0-1-0.448-1-1v-1h3V51z M43,51h-2v-2h2V51z M47.833,50.642C47.642,50.869,47.362,51,47.065,51H45v-2h4.206L47.833,50.642z    M57,39.508c0,0.103-0.033,0.204-0.062,0.244L50.878,47H36v-1c0-2.206-1.794-4-4-4s-4,1.794-4,4v1H13.122l-6.028-7.207   C7.033,39.712,7,39.61,7,39.508V24.818c0-0.163,0.086-0.317,0.225-0.404l6.944-4.341C14.246,20.025,14.335,20,14.424,20h35.152   c0.089,0,0.178,0.025,0.253,0.072l6.947,4.343C56.914,24.501,57,24.655,57,24.818V39.508z M61,35h-2v-8h2V35z"></path><path d="M53.488,25.556l-5.53-3.16C47.506,22.137,46.991,22,46.469,22H17.531c-0.521,0-1.036,0.137-1.488,0.396l-5.532,3.16   C9.579,26.089,9,27.088,9,28.161v9.115c0,0.701,0.247,1.383,0.695,1.921l3.937,4.723c0.571,0.687,1.412,1.08,2.305,1.08h8.709   c1.234,0,2.327-0.74,2.786-1.886l0.994-2.485C28.578,40.247,28.943,40,29.354,40h5.291c0.411,0,0.776,0.247,0.929,0.628   l0.994,2.487C37.027,44.26,38.12,45,39.354,45h8.709c0.893,0,1.733-0.394,2.305-1.079l3.936-4.724   C54.753,38.659,55,37.978,55,37.276v-9.115C55,27.088,54.421,26.089,53.488,25.556z M53,37.276c0,0.233-0.082,0.461-0.232,0.64   l-3.937,4.725C48.641,42.869,48.361,43,48.063,43h-8.709c-0.411,0-0.776-0.247-0.929-0.628l-0.994-2.487   C36.973,38.74,35.88,38,34.646,38h-5.291c-1.234,0-2.327,0.74-2.786,1.886l-0.994,2.485C25.422,42.753,25.057,43,24.646,43h-8.709   c-0.298,0-0.577-0.131-0.768-0.36l-3.938-4.724C11.082,37.737,11,37.51,11,37.276v-9.115c0-0.358,0.193-0.691,0.504-0.869   l5.531-3.16h0.001C17.187,24.046,17.357,24,17.531,24h28.938c0.174,0,0.345,0.046,0.496,0.132l5.531,3.16   C52.807,27.47,53,27.803,53,28.161V37.276z"></path><rect x="41.897" y="27.214" transform="matrix(0.7071 -0.7071 0.7071 0.7071 -8.5759 39.0889)" width="2" height="5.364"></rect><rect x="46.604" y="32.629" transform="matrix(0.7071 -0.7071 0.7071 0.7071 -10.5256 43.7959)" width="2" height="3.95"></rect><rect x="41" y="29.343" transform="matrix(0.7071 -0.7071 0.7071 0.7071 -12.4472 39.9497)" width="2" height="11.314"></rect><rect x="17.897" y="27.214" transform="matrix(0.7071 -0.7071 0.7071 0.7071 -15.6054 22.1183)" width="2" height="5.364"></rect><rect x="22.604" y="32.629" transform="matrix(0.7071 -0.7071 0.7071 0.7071 -17.5551 26.8253)" width="2" height="3.95"></rect><rect x="17" y="29.343" transform="matrix(0.7071 -0.7071 0.7071 0.7071 -19.4767 22.9792)" width="2" height="11.314"></rect></g></svg>