<svg height='100px' width='100px'  fill="#000000" xmlns="http://www.w3.org/2000/svg" viewBox="0 0 512 512" x="0px" y="0px"><g data-name="Out line"><rect x="56" y="320" width="16" height="144"></rect><path d="M376,208A120.13592,120.13592,0,0,0,256,328a121.742,121.742,0,0,0,1.6792,20.16492A69.96379,69.96379,0,0,0,224,336.2345V320h24a7.99968,7.99968,0,0,0,7.86279-9.47412l-24-128A7.99968,7.99968,0,0,0,224,176H160a7.99968,7.99968,0,0,0-7.86279,6.52588L132.36084,288H128V168a7.99977,7.99977,0,0,0-8-8h-8V64a7.9971,7.9971,0,0,0-1.14014-4.11572l-24-40a7.99934,7.99934,0,0,0-11.29738-2.54053A61.77252,61.77252,0,0,0,48,68.84424V160H40a7.99977,7.99977,0,0,0-8,8V288H24a7.99977,7.99977,0,0,0-8,8V488a7.99977,7.99977,0,0,0,8,8H424a7.99977,7.99977,0,0,0,8-8V440a7.96094,7.96094,0,0,0-1.75293-4.99,121.16238,121.16238,0,0,0,41.37451-34.4978A118.93846,118.93846,0,0,0,496,328,120.13592,120.13592,0,0,0,376,208ZM304,328a72.08187,72.08187,0,0,1,72-72c1.52258,0,3.03.06348,4.5293.15723L304.15723,332.5293C304.06348,331.03,304,329.52258,304,328Zm95.39136-68.07788a71.80228,71.80228,0,0,1,16.92138,8.45166l-99.939,99.939a71.80228,71.80228,0,0,1-8.45166-16.92138Zm29.11377,18.88623A71.9462,71.9462,0,0,1,326.80835,380.50513ZM398.62378,432H225.37622A24.03837,24.03837,0,0,1,248,416H376A24.03824,24.03824,0,0,1,398.62378,432ZM208,336H176V320h32Zm-64-16h16v16h-2.3877A69.3,69.3,0,0,0,144,337.36816Zm22.63916-128h50.72168l21,112H145.63916ZM64,68.84424A45.79047,45.79047,0,0,1,77.856,35.97559L96,66.21582V160H64ZM48,176h64V288H48ZM32,304h96v38.64258A69.41905,69.41905,0,0,0,88,405.6123v6.64307a69.22181,69.22181,0,0,0,12.9668,40.46143L120.45465,480H32Zm81.98633,139.417A53.31114,53.31114,0,0,1,104,412.25537V405.6123A53.52955,53.52955,0,0,1,142.78735,354.113,69.22323,69.22323,0,0,0,120,405.6123v6.64307a69.22181,69.22181,0,0,0,12.9668,40.46143L152.45465,480H140.11719ZM192,440v40H172.11719l-26.13086-36.583A53.31114,53.31114,0,0,1,136,412.25537V405.6123A53.61235,53.61235,0,0,1,189.6123,352h28.7754a53.60238,53.60238,0,0,1,53.31164,48H248a40.06761,40.06761,0,0,0-39.19507,32H200A7.99977,7.99977,0,0,0,192,440Zm224,40H208V448H416Zm42.87939-89.16455A105.02157,105.02157,0,0,1,413.13672,425.167a40.121,40.121,0,0,0-9.167-13.72534A88.05317,88.05317,0,1,0,325.4624,400H300.959a103.99251,103.99251,0,1,1,157.92041-9.16455Z"></path></g></svg>