<svg height='100px' width='100px'  fill="#000000" xmlns="http://www.w3.org/2000/svg" xmlns:xlink="http://www.w3.org/1999/xlink" version="1.1" x="0px" y="0px" viewBox="0 0 100 100" style="enable-background:new 0 0 100 100;" xml:space="preserve"><polygon points="47.2,14.5 41.1,10.5 32.8,5 5.1,19.3 14.7,31.3 "></polygon><polygon points="47.2,51.6 14.7,34.9 5.1,46.9 32.8,61.2 "></polygon><path d="M67.1,64.3c-0.3,0-0.6-0.1-0.8-0.2l-14.9-9.9V95l24.4-12.9L80,57.8l-12.2,6.3C67.6,64.2,67.4,64.3,67.1,64.3z"></path><polygon points="52.8,51.6 67.2,61.2 94.9,46.9 85.3,34.9 "></polygon><path d="M70.5,36c-0.4,0.2-0.9,0.2-1.3,0c-0.4-0.2-0.7-0.6-0.8-1c-0.3-1.3-1.5-2.3-2.8-2.3c-1.6,0-2.9,1.3-2.9,2.9  c0,0.2,0,0.3,0.1,0.5c0.1,0.6-0.2,1.2-0.7,1.5c-0.5,0.3-1.2,0.3-1.6-0.1c-0.1-0.1-0.3-0.2-0.4-0.2c-1.4-0.7-2.9,0.3-3,1.7  c0.9,0.9,1.4,2.2,1.4,3.5c0,0.8-0.6,1.4-1.4,1.4c-0.8,0-1.4-0.6-1.4-1.4c0-1.2-1-2.2-2.2-2.2c-0.8,0-1.4-0.6-1.4-1.4  c0-0.8,0.7-1.4,1.4-1.4c0.3,0,0.7,0,1,0.1c0,0,0,0,0,0c0,0,0-0.1,0.1-0.1c0.8-2.1,3.1-3.4,5.3-3.1c0.2-1.4-0.4-2.8-1.6-3.5  c-0.4-0.2-0.8-0.4-1.3-0.5c-0.6-0.1-1.1-0.6-1.2-1.2c-0.2-1.1-0.7-2-1.6-2.5c-0.8-0.5-1.8-0.7-2.7-0.4c-0.9,0.2-1.7,0.8-2.2,1.6  c-0.3,0.5-0.4,1-0.5,1.6c0,0.4-0.3,0.8-0.7,1.1c-0.4,0.2-0.8,0.3-1.3,0.1c-1.3-0.5-2.7,0-3.4,1.2c0,0.1-0.1,0.2-0.1,0.2  c1.1,0.8,2.6,2.7,2.2,4.2c-0.2,0.5-0.6,0.9-1.2,1c-0.8,0.1-1.4-0.4-1.6-1.2c0,0,0,0,0-0.1c-0.1-0.9-0.8-1.7-1.7-2  c-0.8-0.2-1.3-0.1-1.8,0.2c-0.4,0.2-0.8,0.2-1.2,0.1c-0.4-0.1-0.7-0.4-0.8-0.8c-0.5-1.2-1.6-1.9-2.8-1.9c-1.6,0-2.9,1.3-3,2.9  c0,0.4-0.2,0.7-0.5,1c-0.3,0.3-0.7,0.4-1.1,0.3c-1.4-0.1-2.7,1-2.7,2.4c0,0,0,0.1,0,0.2L50,49.9L75,37C74,35.7,72.2,35.2,70.5,36z"></path><path d="M32.9,64.3c-0.2,0-0.4-0.1-0.7-0.2L20,57.8l4.2,24.3L48.6,95V54.1L33.6,64C33.4,64.2,33.1,64.3,32.9,64.3z"></path><path d="M24.5,36.7c0.5-2,2.2-3.6,4.3-4c0.7-2.5,3-4.3,5.7-4.3c2,0,3.7,1,4.8,2.5c0.5-0.1,1-0.1,1.5-0.1c0.1-0.3,0.2-0.6,0.4-0.8  c1.1-1.8,3.2-2.8,5.2-2.7c0.2-0.4,0.4-0.9,0.6-1.3c0.9-1.5,2.3-2.5,4-2.9c1.7-0.4,3.4-0.1,4.9,0.8c1.3,0.8,2.3,2.1,2.7,3.6  c0.5,0.2,0.9,0.4,1.4,0.6c1.1,0.7,1.9,1.7,2.4,2.8c1-0.7,2.2-1.2,3.5-1.2c2.1,0,4.1,1.2,5,3c0.5-0.1,0.9-0.2,1.4-0.2  c2.2,0,4.2,1.1,5.4,2.9l5.1-2.6L50,16.3L17.4,33.1L24.5,36.7z"></path><polygon points="58.9,10.5 52.8,14.5 85.3,31.3 94.9,19.3 67.2,5 "></polygon></svg>