<svg height='100px' width='100px'  fill="#000000" xmlns="http://www.w3.org/2000/svg" data-name="Layer 1" viewBox="0 0 512 512" x="0px" y="0px"><defs><style>.cls-1{fill:none;}</style></defs><title>vdeo</title><circle class="cls-1" cx="69.54" cy="175.23" r="33.44"></circle><path d="M323.62,91.77H35.19A35.31,35.31,0,0,0,0,127V385a35.31,35.31,0,0,0,35.19,35.19H323.62A35.3,35.3,0,0,0,358.81,385V326.15L388,340.55l94.76,46.7C498.86,395.17,512,387,512,369.08V142.92c0-17.91-13.14-26.09-29.21-18.17L388,171.45l-29.21,14.4V127A35.3,35.3,0,0,0,323.62,91.77ZM69.54,208.67A33.44,33.44,0,1,1,103,175.23,33.44,33.44,0,0,1,69.54,208.67Z"></path></svg>