<?xml version="1.0" encoding="utf-8"?>
<!-- Generator: Adobe Illustrator 24.2.1, SVG Export Plug-In . SVG Version: 6.00 Build 0)  -->
<svg version="1.1" id="Layer_1" xmlns="http://www.w3.org/2000/svg" xmlns:xlink="http://www.w3.org/1999/xlink" x="0px" y="0px"
	 viewBox="0 0 100 100" enable-background="new 0 0 100 100" xml:space="preserve">
<g>
	<path d="M3.671,46.397c0.036-1.91,1.129-3.035,4.237-3.554c1.292-0.161,2.587-0.3,3.877-0.482c0.356-0.05,0.323,0.007,0.329-0.417
		l0.034-2.642c0.014-1.133,1.728-1.104,1.714,0.035l-0.031,2.496c-0.004,0.306-0.064,0.282,0.223,0.247l0.833-0.104
		c0.2-0.01,0.189-0.048,0.193-0.3l0.034-2.704c0.014-1.128,1.721-1.099,1.707,0.035l-0.03,2.463
		c-0.004,0.304-0.062,0.278,0.225,0.242l0.781-0.097c0.308-0.038,0.247,0.006,0.251-0.315l0.034-2.659
		c0.014-1.124,1.714-1.095,1.701,0.034l-0.031,2.497c-0.003,0.225-0.013,0.202,0.2,0.175l0.92-0.114
		c0.166-0.021,0.14,0.01,0.142-0.156l0.035-2.768c0.014-1.119,1.707-1.09,1.694,0.034l-0.029,2.39
		c-0.004,0.326-0.054,0.277,0.273,0.237l0.767-0.095c0.294-0.037,0.227-0.008,0.231-0.325l0.033-2.572
		c0.014-1.115,1.701-1.086,1.687,0.034l-0.033,2.321c-0.005,0.344-0.074,0.322,0.246,0.282l0.769-0.096
		c0.332-0.041,0.257-0.006,0.263-0.363l0.037-2.51c0.014-1.11,1.694-1.082,1.68,0.034l-0.027,2.23
		c-0.005,0.373-0.087,0.368,0.252,0.325l0.721-0.09c0.387-0.048,0.306,0.003,0.311-0.406l0.031-2.425
		c0.014-1.106,1.687-1.077,1.673,0.034l-0.027,2.221c-0.005,0.369-0.076,0.339,0.271,0.295l0.69-0.086
		c0.412-0.051,0.326,0.002,0.331-0.433l0.03-2.364c0.014-1.101,1.68-1.073,1.666,0.034l-0.027,2.163
		c-0.005,0.396-0.081,0.361,0.294,0.314l0.736-0.091c0.343-0.043,0.264-0.01,0.268-0.38l0.03-2.371
		c0.014-1.097,1.673-1.068,1.659,0.033l-0.026,2.154c-0.004,0.366-0.074,0.333,0.273,0.289l0.661-0.082
		c0.426-0.053,0.366,0.03,0.372-0.391l0.03-2.335c0.014-1.092,1.666-1.064,1.652,0.033l-0.028,2.256
		c-0.003,0.234-0.028,0.188,0.218,0.158l0.815-0.101c0.356-0.044,0.276-0.006,0.281-0.387l0.029-2.29
		c0.014-1.088,1.659-1.06,1.646,0.033l-0.025,2.054c-0.005,0.373-0.085,0.361,0.257,0.318l0.782-0.097
		c0.343-0.043,0.274,0.007,0.279-0.352l0.029-2.287c0.014-1.083,1.652-1.055,1.639,0.033l-0.024,1.927
		c-0.006,0.465-0.107,0.454,0.316,0.401l0.66-0.082c0.43-0.053,0.343,0.007,0.349-0.444l0.028-2.167
		c0.014-1.079,1.645-1.051,1.632,0.033l-0.024,1.983c-0.005,0.4-0.078,0.357,0.306,0.31l0.727-0.09
		c0.368-0.046,0.295,0.008,0.3-0.377l0.028-2.19c0.014-1.074,1.638-1.046,1.625,0.033l-0.025,2.033
		c-0.004,0.292-0.061,0.269,0.213,0.235l0.741-0.092c0.502-0.062,0.381-0.024,0.388-0.569l0.025-1.971
		c0.014-1.07,1.631-1.042,1.618,0.032l-0.022,1.801c-0.006,0.509-0.021,0.45,0.37,0.41l0.635-0.079
		c0.423-0.053,0.335,0.003,0.34-0.443l0.026-2.053c0.013-1.065,1.624-1.038,1.611,0.032l-0.023,1.896
		c-0.004,0.366-0.075,0.334,0.272,0.291l0.746-0.093c0.382-0.048,0.33,0.028,0.335-0.349l0.027-2.109
		c0.014-1.06,1.617-1.033,1.604,0.032l-0.023,1.855c-0.005,0.403-0.063,0.338,0.344,0.287l2.677-0.332
		c1.879-0.233,2.525-0.43,3.958,1.028l2.276,2.347c0.399,0.412,0.295,0.384,0.48-0.184l6.52-20.017
		c0.195-0.598,0.153-0.523,0.19-1.105c0.194-3.013,1.838-5.885,4.144-8.279c2.608-2.706,6.077-4.813,9.242-5.812
		c2.883-0.91,5.975,0.364,5.325,3.774c-0.272,1.427-1.365,2.892-3.522,3.759c-3.678,1.477-6.302,3.931-8.196,7.368
		c-0.474,0.859-0.869,1.576-1.569,2.061c-0.58,0.401-0.482,0.096-0.711,0.826l-6.958,22.205c-0.247,0.79-0.215,0.494,0.105,1.212
		c1.106,2.481,0.215,8.162-0.056,10.813c-0.055,0.537-0.077,0.413,0.32,0.803l12.511,12.252l0.001,0.001l0.001,0.001l0.021,0.021
		l0.001,0.001c1.411,1.399,2.283,3.331,1.859,5.333c-0.153,0.723-0.467,1.369-0.897,1.881c-0.336,0.4-0.368,0.21-0.383,0.776
		l-0.031,1.149v0.006c-0.111,2.949-6.762,3.445-8.204,1.018L28.173,93.014c-0.535,0.142-0.461,0.004-0.46,0.673h0.002
		c0,0.818-0.51,1.537-1.334,2.04c-1.613,0.984-4.158,0.984-5.771,0c-0.824-0.503-1.334-1.223-1.334-2.04h0.002l-0.001-2.85
		c0-0.844,0.105-0.559-0.3-1.251L8.33,71.391c-0.387-0.662-0.178-0.521-0.896-0.584c-1.696-0.15-3.852-1-3.89-2.881
		C3.592,60.746,3.617,53.577,3.671,46.397L3.671,46.397z M87.498,77.264l-5.745,1.525c1.248,1.252,6.003,0.95,6.068-0.764h0
		l0.012-0.457C87.845,77.149,87.875,77.164,87.498,77.264z M87.411,76.205c1.246-0.348,1.823-1.771,1.823-2.968
		c0.001-0.994-0.033-0.655-0.523-0.304c-0.717,0.514-1.873,0.9-3.427,1.319H85.28L29.404,88.877
		c-3.528,1.071-6.187,1.416-8.556-1.85l-0.013-0.018c-5.26-9.262-10.292-18.454-15.737-27.779c-0.492-0.843-0.462-1.042-0.463,0.011
		c-0.001,0.953-0.002,1.906-0.008,2.859c-0.001,0.682,0.136,1.127,0.484,1.721l15.387,26.297l0.001,0
		c1.623,2.484,2.943,2.847,5.76,2.279c0.424-0.085,0.883-0.194,1.38-0.324l0-0.001C47.563,86.784,67.487,81.494,87.411,76.205
		L87.411,76.205z M7.097,69.284L4.999,65.7c-0.456-0.778-0.392-0.839-0.398,0.08l-0.014,2.127c0.037,1.024,1.269,1.544,2.252,1.754
		C7.499,69.803,7.402,69.804,7.097,69.284z M26.332,93.447c-2.122,0.409-3.926,0.394-5.519-1.23
		c-0.579-0.59-0.492-0.772-0.492,0.179l0,1.291h0.002c0,0.427,0.317,0.834,0.831,1.147c1.274,0.777,3.408,0.777,4.682,0
		c0.513-0.313,0.831-0.72,0.831-1.147h0.002C26.668,93.303,26.718,93.373,26.332,93.447z M21.593,73.095
		c-0.533,0.61-1.675,0.678-2.415,0.48c-0.51-0.137-1.258-0.584-1.143-1.215l0.033-0.348c0.021-0.224,0.064-0.315-0.208-0.142
		c-0.244,0.155-0.353,0.438-0.359,0.753c-0.005,0.277,0.071,0.562,0.208,0.778l1.73,2.74c0.186,0.294,0.514,0.437,0.921,0.466
		c0.513,0.037,1.143-0.103,1.785-0.354c0.406-0.159,0.66-0.423,0.692-0.872c0.027-0.367-0.013-0.183-0.182-0.068
		c-0.26,0.177-0.806,0.371-1.349,0.467c-0.633,0.112-1.292,0.093-1.588-0.224l-0.015-0.016c-0.095-0.109-0.084-0.274,0.025-0.369
		c0.109-0.095,0.274-0.084,0.369,0.025c0.007,0.008-0.002-0.002,0.003,0.004c0.154,0.164,0.632,0.15,1.117,0.064
		c0.366-0.065,1.354-0.199,1.302-0.758C22.48,74.102,21.824,73.387,21.593,73.095L21.593,73.095z M22.636,73.573
		c0.068,0.087,0.057,0.08,0.211,0.048l2.394-0.577c0.192-0.046,0.032-0.271-0.041-0.367c-0.165-0.214-0.428-0.394-0.636-0.345
		l-2.449,0.58C22.114,72.913,22.636,73.573,22.636,73.573z M23.144,74.278c0.105,0.181,0.18,0.454,0.208,0.737
		c0.08,0.827-0.244,1.422-1.017,1.724c-0.71,0.278-1.418,0.432-2.012,0.389c-0.571-0.041-1.041-0.258-1.326-0.71l-0.636-1.006
		c-0.116-0.183-0.067-0.156-0.281-0.104l-0.699,0.169c-1.219,0.294-1.915-1.489-0.797-1.758l0.467-0.113
		c0.2-0.048,0.153-0.013,0.077-0.198c-0.101-0.246-0.154-0.524-0.149-0.794c0.014-0.727,0.43-1.292,1.163-1.379l0.126-1.346
		c0.001-0.336,0.207-0.629,0.54-0.833c0.427-0.261,0.996-0.339,1.5-0.266c0.19,0.027,0.175,0.034,0.368-0.006l36.628-7.404
		l0.676,0.894L71.57,59.47l1.795,1.847l-14.106,2.952c-0.004,0.001-0.008,0.002-0.012,0.003L21.827,72.1l0.026,0.278l0,0.005
		l0,0.001l0,0.002l0,0.001l0,0.001l0,0.001l0,0.001l0,0.001l0,0.001l0,0l0,0l0,0.001l0,0.001l0,0.001l0,0.001l0,0.001l0,0.001
		l0,0.001l0,0.001l0,0.001l0,0.001l0,0.001l0,0.001l0,0.001l0,0.001l0,0.001v0.001v0v0.001v0.001l0,0.004l0,0.001v0l0,0.001l0,0.006
		l0,0.001l-0.001,0.015l2.588-0.613c0.614-0.145,1.49,0.584,1.407,1.229c-0.03,0.238-0.178,0.425-0.486,0.499l-2.116,0.51
		C22.996,74.122,23.025,74.073,23.144,74.278L23.144,74.278z M17.827,74.569l-0.246-0.39c-0.112-0.177-0.068-0.146-0.279-0.096
		l-0.597,0.144c-0.401,0.097,0.002,0.875,0.551,0.742l0.528-0.127C18.034,74.782,17.977,74.805,17.827,74.569z M18.555,72.409
		c0.001,0.321,0.332,0.546,0.758,0.66c0.571,0.153,1.984,0.131,2.02-0.654l-0.14-1.495c-0.033-0.351,0.01-0.24-0.271-0.107
		c-0.601,0.285-1.422,0.271-2-0.023c-0.232-0.118-0.195-0.204-0.224,0.104l-0.058,0.615l0,0.001
		C18.639,71.51,18.555,72.409,18.555,72.409z M20.809,69.503c-0.468-0.286-1.261-0.286-1.729,0c-0.382,0.233-0.382,0.543,0,0.777
		c0.468,0.286,1.261,0.286,1.729,0C21.193,70.045,21.193,69.738,20.809,69.503z M21.653,70.239l0.15,1.6l37.194-7.782l-1.127-1.491
		l-36.074,7.447C21.593,70.053,21.633,70.022,21.653,70.239z M21.081,69.057c0.247,0.151,0.424,0.351,0.5,0.581
		c0.056,0.169-0.013,0.155,0.186,0.114l35.929-7.417l-0.502-0.664l-36.059,7.289C20.948,68.996,20.936,68.968,21.081,69.057z
		 M58.153,62.506l1.126,1.49l13.566-2.839l-1.364-1.403C71.482,59.755,58.153,62.506,58.153,62.506z M62.632,76.582
		c-2.922,1.689-9.957,3.103-13.324,2.869c-3.058-0.213-2.866-2.264-0.91-4.012c3.208-2.867,8.906-3.581,12.983-2.694
		C63.781,73.267,65.295,75.043,62.632,76.582z M62.108,75.677c1.725-0.997,0.448-1.605-0.948-1.909
		c-3.743-0.814-9.113-0.19-12.066,2.449c-1.238,1.106-1.739,2.049,0.283,2.19C52.537,78.627,59.367,77.261,62.108,75.677z
		 M74.239,57.137l-2.374,0.469h-0.004c-0.607,0.115-1.349,0.162-1.737-0.417c-0.201-0.3-0.011-0.281-0.426-0.256
		c-7.348,0.456-16.011,1.663-24.842,3.31c-9.669,1.803-19.534,4.132-28.088,6.58c-0.62,0.177-0.324,0.07-0.526,0.593
		c-0.155,0.402-0.511,0.711-1.419,0.896l-2.71,0.553c-0.424,0.087-0.382,0.014-0.165,0.396l9.76,17.168
		c2.073,2.845,4.352,2.372,7.412,1.442l0.02-0.006l55.874-14.624l0-0.001c1.79-0.482,2.967-0.885,3.379-1.421v-0.002
		c0.324-0.422,0.076-1.085-0.854-2.203L74.997,57.333C74.632,56.976,74.75,57.036,74.239,57.137L74.239,57.137z M10.537,66.823
		c0.03,0.029,0.057,0.062,0.08,0.099c0.383-10.072-0.152-11.557-4.55-19.938c-0.324-0.617-0.497-1.15-0.553-1.616
		c-0.056-0.476,0.15-0.914-0.385-0.196c-0.27,0.362-0.402,0.792-0.414,1.287l-0.069,9.218c-0.006,0.764,0.011,0.66,0.385,1.328
		L10.537,66.823z M69.455,46.193L15.767,54.86c0.807,3.328,0.941,6.634,0.69,10.619c-0.026,0.416-0.094,0.373,0.302,0.26
		c0.616-0.175,1.238-0.35,1.867-0.524c0.561-0.155,0.388-0.124,0.708-0.602c3.745-5.584,18.129-9.412,24.095-10.527
		c4.914-0.919,20.468-2.902,24.267,1.661c0.265,0.319,0.132,0.267,0.568,0.235c0.443-0.032,0.883-0.062,1.317-0.089
		c0.431-0.027,0.352,0.044,0.396-0.39c0.388-3.842,0.558-6.058,0.305-7.681c-0.07-0.45-0.181-0.857-0.32-1.25
		C69.808,46.135,69.828,46.108,69.455,46.193z M15.704,54.606l53.632-8.658c0.434-0.058,0.346-0.091,0.05-0.552
		c-0.38-0.591-0.839-1.218-1.444-1.947l0,0l-5.739-6.145c-0.155-0.166-0.1-0.143-0.327-0.116l-0.505,0.061
		c-0.225,0.027-0.177,0-0.18,0.239l-0.006,0.478c-0.005,0.37,0.071,0.127,0.287,0.39l2.772,3.367
		c0.436,0.53-0.371,1.193-0.807,0.663l-1.954-2.374c-0.169-0.205-0.096-0.151-0.354-0.111c-0.69,0.105-1.612-0.046-1.564-0.921l0,0
		l0.016-1.263c0.004-0.28-0.012-0.231-0.216-0.216L58.57,37.6c-0.415,0.052-0.337-0.014-0.342,0.416l-0.003,0.242
		c-0.006,0.497,0.05,0.169,0.291,0.47l2.743,3.432c0.428,0.535-0.387,1.186-0.815,0.651l-1.786-2.234
		c-0.333-0.416-0.166-0.334-0.65-0.277c-0.642,0.075-1.454-0.165-1.411-0.953l0,0l0.015-1.167c0.005-0.408,0.066-0.344-0.344-0.293
		l-0.591,0.073c-0.459,0.057-0.405-0.037-0.41,0.41l-0.003,0.229c-0.007,0.534,0.05,0.181,0.297,0.499l2.715,3.497
		c0.422,0.543-0.405,1.186-0.827,0.643l-1.834-2.361c-0.274-0.353-0.144-0.256-0.566-0.206c-0.133,0.016-0.257,0.02-0.37,0.013
		c-0.799-0.044-1.057-0.453-1.048-1.154l0.012-0.93c0.006-0.465,0.078-0.396-0.387-0.338l-0.751,0.093
		c-0.253,0.032-0.196,0.006-0.199,0.277l-0.005,0.38c-0.006,0.467,0.071,0.152,0.302,0.458l2.687,3.561
		c0.415,0.549-0.421,1.18-0.835,0.631l-1.847-2.449c-0.219-0.29-0.114-0.229-0.455-0.181c-0.159,0.023-0.305,0.029-0.437,0.022
		c-0.561-0.031-1.089-0.36-1.056-0.975l0,0l0.015-1.147c0.005-0.391,0.082-0.362-0.284-0.316l-0.768,0.095
		c-0.346,0.043-0.275-0.005-0.279,0.358l-0.003,0.262c-0.007,0.539,0.063,0.178,0.306,0.509l2.659,3.626
		c0.407,0.555-0.437,1.173-0.844,0.618l-1.827-2.493c-0.226-0.309-0.119-0.231-0.481-0.185c-0.353,0.045-0.745,0.021-1.051-0.176
		c-0.274-0.176-0.428-0.462-0.41-0.787l0,0l0.012-0.976c0.006-0.51,0.13-0.536-0.323-0.48l-0.64,0.08
		c-0.38,0.047-0.354-0.038-0.358,0.322l-0.004,0.301c-0.007,0.55,0.068,0.18,0.311,0.521l2.63,3.691
		c0.398,0.56-0.454,1.166-0.852,0.606l-1.842-2.585c-0.18-0.252-0.096-0.194-0.393-0.152c-0.668,0.095-1.556-0.124-1.51-0.961l0,0
		l0.014-1.139c0.005-0.4,0.082-0.364-0.297-0.317l-0.773,0.096c-0.301,0.037-0.242-0.007-0.246,0.306l-0.004,0.305
		c-0.007,0.548,0.076,0.177,0.315,0.522l2.602,3.756c0.39,0.565-0.47,1.159-0.86,0.594l-1.84-2.656
		c-0.164-0.236-0.09-0.169-0.369-0.137c-0.688,0.08-1.557-0.11-1.51-0.963l0,0l0.015-1.142c0.005-0.394,0.081-0.359-0.292-0.313
		l-0.799,0.099c-0.275,0.034-0.215,0.002-0.218,0.295l-0.008,0.618c0.127,0.028,0.245,0.102,0.323,0.219l2.574,3.82
		c0.385,0.57-0.484,1.156-0.868,0.586l-1.945-2.887c-0.705,0.155-1.802,0.027-1.75-0.929l0,0l0.014-1.122
		c0.006-0.44,0.074-0.376-0.364-0.321l-0.653,0.081c-0.296,0.037-0.281-0.01-0.286,0.352l-0.003,0.262
		c-0.007,0.548,0.09,0.173,0.324,0.53l2.546,3.885c0.377,0.576-0.5,1.149-0.876,0.573l-1.925-2.938
		c-0.707,0.152-1.797,0.018-1.745-0.936l0,0l0.014-1.108c0.005-0.407,0.091-0.389-0.283-0.343l-0.778,0.097
		c-0.293,0.036-0.231-0.001-0.235,0.308l-0.004,0.36c-0.006,0.45,0.113,0.137,0.327,0.473l2.517,3.95
		c0.369,0.578-0.512,1.139-0.88,0.561l-1.788-2.806c-0.159-0.25-0.097-0.171-0.394-0.137c-0.352,0.04-0.741,0.012-1.045-0.184
		c-0.281-0.18-0.437-0.472-0.419-0.804l0,0l0.015-1.19c0.004-0.351,0.061-0.302-0.287-0.258l-0.731,0.091
		c-0.35,0.044-0.268,0.012-0.273,0.39l-0.003,0.255c-0.006,0.494,0.113,0.15,0.331,0.504l2.489,4.015
		c0.36,0.584-0.528,1.132-0.889,0.549l-1.885-3.04c-0.71,0.147-1.789,0-1.737-0.95l0,0l0.014-1.137
		c0.005-0.388,0.08-0.354-0.286-0.309l-0.781,0.097c-0.266,0.033-0.211-0.003-0.214,0.277l-0.005,0.367
		c-0.005,0.404-0.01,0.171,0.227,0.372c0.042,0.036,0.079,0.079,0.109,0.129l2.461,4.079c0.355,0.589-0.542,1.13-0.897,0.541
		l-1.704-2.826c-0.205-0.339-0.094-0.252-0.462-0.226c-0.677,0.048-1.475-0.177-1.43-0.998l0,0l0.014-1.114
		c0.005-0.385,0.089-0.376-0.261-0.333l-0.768,0.095c-0.29,0.036-0.243-0.016-0.246,0.277l-0.005,0.374
		c-0.005,0.386-0.02,0.174,0.212,0.356c0.05,0.039,0.093,0.088,0.127,0.146l2.433,4.144c0.347,0.592-0.554,1.12-0.901,0.528
		l-1.708-2.909c-0.187-0.318-0.105-0.218-0.47-0.192c-0.754,0.054-1.409-0.209-1.394-1.097l0.014-1.068
		c0.004-0.333,0.078-0.327-0.225-0.29l-0.83,0.103c-0.272,0.034-0.21,0.006-0.214,0.298l-0.005,0.393
		c-0.004,0.3-0.025,0.151,0.177,0.283c0.242,0.159,2.253,3.831,2.571,4.387c0.339,0.598-0.57,1.114-0.909,0.516l-1.651-2.89
		c-0.2-0.349-0.088-0.296-0.453-0.275c-0.691,0.04-1.493-0.167-1.445-1l0,0l0.016-1.27c0.003-0.239,0.044-0.21-0.189-0.181
		l-0.844,0.105c-0.272,0.034-0.226-0.014-0.23,0.263l-0.006,0.455c-0.003,0.269-0.015,0.131,0.174,0.254
		c0.07,0.045,0.129,0.107,0.172,0.185l2.376,4.274c0.334,0.601-0.579,1.108-0.913,0.508l-1.708-3.073
		c-0.133-0.238-0.078-0.166-0.353-0.138c-0.845,0.084-1.474-0.213-1.462-1.14l0.013-0.996c0.005-0.377,0.084-0.36-0.262-0.317
		l-0.749,0.093c-0.31,0.039-0.239,0.008-0.243,0.342l-0.005,0.387c-0.003,0.242-0.02,0.127,0.155,0.23
		c0.08,0.047,0.149,0.116,0.196,0.203l2.348,4.338c0.326,0.606-0.596,1.101-0.921,0.496l-1.704-3.148
		c-0.1-0.184-0.048-0.151-0.249-0.125c-0.374,0.048-0.793,0.024-1.118-0.185c-0.288-0.185-0.448-0.484-0.43-0.825l0,0l0.015-1.164
		c0.005-0.357,0.066-0.313-0.282-0.27l-0.764,0.095c-0.245,0.03-0.198-0.007-0.201,0.247l-0.005,0.393
		c-0.005,0.368-0.025,0.174,0.201,0.342c0.061,0.045,0.113,0.105,0.151,0.176l2.32,4.403c0.321,0.609-0.605,1.096-0.925,0.487
		l-1.686-3.201c-0.1-0.19-0.047-0.149-0.254-0.127c-0.703,0.073-1.584-0.148-1.537-1.015l0,0l0.014-1.089
		c0.006-0.453,0.078-0.388-0.372-0.332l-0.684,0.085c-0.456,0.056-0.405-0.011-0.162,0.386
		C13.35,47.946,14.865,51.285,15.704,54.606L15.704,54.606z M67.023,55.793c-4.074-3.931-18.707-2.089-23.497-1.193
		c-5.949,1.113-19.294,4.693-23.426,9.859c-0.412,0.515-0.416,0.465,0.169,0.307c7.647-2.067,16.096-4.002,24.398-5.55
		c7.799-1.454,15.472-2.567,22.233-3.127C67.311,56.054,67.356,56.113,67.023,55.793z M81.462,19.741
		c0.556-0.459,1.057-1.38,1.637-2.444c2.33-4.272,4.79-6.357,9.255-8.252h0.001c1.121-0.476,1.67-1.271,1.771-2.051
		c0.215-1.661-1.3-2.551-2.824-2.158c-2.995,0.955-6.275,2.954-8.748,5.521c-2.248,2.333-3.818,5.123-3.871,7.998
		C78.661,19.548,80.44,20.585,81.462,19.741L81.462,19.741z M93.983,4.993c0.512,0.54,0.76,1.298,0.661,2.067
		c-0.123,0.949-0.771,1.908-2.085,2.466l0,0c-4.355,1.848-6.729,3.855-9.002,8.021c-0.606,1.113-1.131,2.077-1.762,2.598
		c-0.277,0.229-0.107,0.137,0.156,0.045c0.858-0.297,1.263-1.032,1.782-1.973c2.004-3.638,4.836-6.273,8.724-7.834
		c1.78-0.715,2.671-1.871,2.883-2.98c0.212-1.115-0.255-2.165-1.194-2.64C92.94,4.152,93.623,4.613,93.983,4.993z M80.571,17.226
		c0.356,0,0.645,0.333,0.645,0.744c0,0.411-0.289,0.744-0.645,0.744c-0.356,0-0.645-0.333-0.645-0.744
		C79.926,17.559,80.215,17.226,80.571,17.226z M91.862,6.12c0.35,0,0.634,0.333,0.634,0.744c0,0.411-0.284,0.744-0.634,0.744
		c-0.35,0-0.634-0.333-0.634-0.744S91.512,6.12,91.862,6.12z M78.063,20.564l-6.284,19.292c-0.202,0.622-0.248,0.457,0.204,0.924
		l1.986,2.048c0.595,0.651,0.435,0.706,0.715-0.189l6.479-20.678c0.266-0.85,0.305-0.55-0.433-0.66
		c-0.737-0.111-1.464-0.437-2.028-0.908C78.158,19.938,78.323,19.764,78.063,20.564z M60.552,38.497l0.055-4.473
		c0.003-0.234-0.348-0.246-0.351-0.017l-0.063,4.929c-0.004,0.34,0.259,0.399,0.553,0.383c0.184-0.01,0.161,0.006,0.045-0.135
		l-0.132-0.16C60.52,38.855,60.549,38.692,60.552,38.497z M57.589,39.006l0.057-4.65c0.003-0.239-0.355-0.251-0.358-0.017
		l-0.062,4.844c-0.004,0.339,0.001,0.479,0.451,0.504c0.285,0.016,0.288,0.024,0.137-0.166
		C57.682,39.355,57.567,39.239,57.589,39.006z M54.63,39.169l0.055-4.482c0.003-0.243-0.362-0.255-0.365-0.018l-0.062,4.84
		c-0.005,0.354-0.019,0.521,0.455,0.547c0.302,0.017,0.277,0.015,0.124-0.181C54.592,39.559,54.625,39.552,54.63,39.169z
		 M51.667,39.725l0.058-4.707c0.003-0.248-0.369-0.26-0.372-0.018l-0.064,5.003c-0.004,0.311,0.107,0.404,0.462,0.424
		c0.329,0.018,0.264-0.001,0.105-0.212C51.736,40.057,51.641,39.944,51.667,39.725z M48.705,40.099l0.058-4.749
		c0.003-0.252-0.376-0.265-0.379-0.018l-0.064,5.016c-0.004,0.325,0.074,0.429,0.467,0.45c0.323,0.018,0.266,0.002,0.111-0.208
		C48.782,40.43,48.684,40.317,48.705,40.099z M45.744,40.473l0.059-4.792c0.003-0.257-0.382-0.27-0.386-0.018l-0.065,5.078
		c-0.004,0.316,0.118,0.409,0.473,0.428c0.307,0.017,0.272,0.013,0.126-0.192l-0.112-0.158
		C45.765,40.715,45.734,40.592,45.744,40.473z M42.783,40.848l0.059-4.834c0.003-0.261-0.389-0.274-0.392-0.018l-0.064,5.057
		c-0.005,0.356,0.132,0.48,0.421,0.494c0.315,0.015,0.346,0.034,0.191-0.189C42.883,41.192,42.768,41.067,42.783,40.848z
		 M39.822,41.202l0.06-4.858c0.003-0.266-0.396-0.279-0.399-0.018l-0.065,5.126c-0.004,0.348,0.173,0.455,0.455,0.465
		c0.344,0.012,0.295,0.006,0.138-0.227C39.901,41.528,39.803,41.414,39.822,41.202z M36.861,41.573l0.06-4.897
		c0.003-0.27-0.403-0.284-0.406-0.019l-0.065,5.128c-0.005,0.362,0.125,0.491,0.437,0.503c0.442,0.017,0.26-0.081,0.058-0.389
		C36.879,41.8,36.852,41.685,36.861,41.573z M33.895,41.743l0.058-4.742c0.003-0.275-0.403-0.282-0.406-0.012l-0.065,5.135
		c-0.005,0.36,0.027,0.504,0.493,0.529c0.318,0.018,0.261,0.004,0.12-0.216l-0.113-0.177C33.879,42.098,33.893,41.925,33.895,41.743
		z M30.94,42.186L31,37.34c0.003-0.28-0.417-0.293-0.42-0.019l-0.067,5.258c-0.005,0.363,0.223,0.441,0.543,0.443
		c0.249,0.002,0.224,0.02,0.104-0.173C30.966,42.537,30.936,42.53,30.94,42.186z M27.977,42.697v-0.002l0.062-5.024
		c0.003-0.284-0.425-0.298-0.429-0.019l-0.067,5.284c-0.005,0.367,0.209,0.466,0.528,0.465c0.288-0.001,0.235,0,0.103-0.219
		l-0.121-0.201C27.999,42.892,27.975,42.794,27.977,42.697z M25.018,42.9l0.06-4.897c0.004-0.289-0.43-0.302-0.434-0.019
		L24.577,43.3c-0.005,0.394,0.248,0.482,0.588,0.471c0.209-0.006,0.181,0.007,0.084-0.158C25.047,43.269,25.014,43.27,25.018,42.9z
		 M22.057,43.267l0.06-4.933c0.004-0.293-0.437-0.307-0.441-0.02l-0.068,5.355c-0.004,0.343,0.135,0.446,0.515,0.467
		c0.293,0.016,0.261,0.017,0.139-0.195C22.076,43.615,22.053,43.615,22.057,43.267z M19.095,43.676l0.061-5.01
		c0.004-0.298-0.444-0.312-0.447-0.02l-0.069,5.381c-0.004,0.35,0.112,0.458,0.52,0.481c0.287,0.016,0.261,0.021,0.144-0.189
		C19.155,44.05,19.091,44.003,19.095,43.676z M16.136,43.912l0.06-4.915c0.004-0.302-0.451-0.317-0.454-0.02l-0.069,5.41
		c-0.005,0.356,0.108,0.468,0.525,0.491c0.297,0.016,0.254,0.013,0.135-0.206C16.144,44.323,16.131,44.33,16.136,43.912z
		 M13.175,44.25l0.06-4.921c0.004-0.307-0.457-0.321-0.461-0.02l-0.071,5.556v0.014c-0.016,0.297,0.339,0.369,0.609,0.372
		c0.2,0.003,0.17,0.011,0.085-0.15l-0.167-0.316C13.145,44.62,13.173,44.428,13.175,44.25z M71.757,56.559l2.172-0.429
		c0.551-0.109,0.452-0.006,0.51-0.568c0.851-8.326,0.981-9.594-1.244-12.031L67.442,37.6c-1.047-1.065-1.568-0.902-2.945-0.738
		l-0.813,0.101c-0.264,0.033-0.288,0.085-0.111,0.274l5.135,5.498l0.018,0.023c1.517,1.827,2.295,3.029,2.588,4.904
		c0.284,1.816,0.086,4.207-0.347,8.439C70.901,56.697,71.144,56.681,71.757,56.559z M9.036,43.755l-0.984,0.122
		c-0.752,0.104-1.427,0.102-1.504,1.046C6.515,45.319,6.641,45.83,6.993,46.5c4.634,8.832,5.086,10.383,4.649,20.963
		c-0.021,0.511-0.107,0.454,0.386,0.353l2.585-0.528c0.749-0.153,0.698-0.458,0.74-1.031c0.32-4.307,0.23-7.771-0.624-11.238
		c-0.827-3.358-2.373-6.742-4.958-10.922C9.473,43.616,9.6,43.685,9.036,43.755z"/>
</g>
</svg>
