<svg height='100px' width='100px'  fill="#000000" xmlns="http://www.w3.org/2000/svg" viewBox="0 0 48 48" x="0px" y="0px"><title>27-dog</title><g data-name="Layer 28"><path d="M47.707,21.293a1,1,0,0,0-1.414,0l-1,1a1,1,0,1,0,1.414,1.414l1-1A1,1,0,0,0,47.707,21.293Z"></path><path d="M43,19a1,1,0,0,0-1,1v1a1,1,0,0,0,2,0V20A1,1,0,0,0,43,19Z"></path><path d="M41,24a3,3,0,0,0-3,3v3.52A8.931,8.931,0,0,0,35,30H23a1,1,0,0,0,0,2H35a6.986,6.986,0,0,1,3.5.944,1,1,0,0,0,1.5-.865V27a1,1,0,0,1,2,0V45a1,1,0,0,1-1,1H39a1,1,0,0,1-1-1.011,4.71,4.71,0,0,0-1.419-3.358A5.474,5.474,0,0,0,32.727,40H21a5,5,0,0,0-5,5.033.882.882,0,0,1-.271.633,1.138,1.138,0,0,1-.807.334H13a1,1,0,0,1-1-1V35.414l1.707-1.707a1,1,0,0,0-1.414-1.414L10.586,34H6a4,4,0,0,1-4-4V28H9a1,1,0,0,0,1-1V26a4,4,0,0,1,4-4h5a1,1,0,0,1,1,1v5a2,2,0,0,1-4,0V25a1,1,0,0,0-2,0v3a3.989,3.989,0,0,0,7.954.45L47.72,1.693A1,1,0,1,0,46.28.307L22,25.52V23a3,3,0,0,0-3-3H14a6.006,6.006,0,0,0-6,6H1a1,1,0,0,0-1,1v3a6.006,6.006,0,0,0,6,6h4v9a3,3,0,0,0,3,3h1.922a3.16,3.16,0,0,0,2.226-.924A2.876,2.876,0,0,0,18,45.02,3,3,0,0,1,21,42H32.727a3.513,3.513,0,0,1,2.433,1.038A2.728,2.728,0,0,1,36,44.97,3,3,0,0,0,39,48h2a3,3,0,0,0,3-3V27A3,3,0,0,0,41,24Z"></path></g></svg>