<svg height='100px' width='100px'  fill="#000000" xmlns="http://www.w3.org/2000/svg" data-name="Layer 1" viewBox="0 0 100 100" x="0px" y="0px"><title>123all</title><path d="M84.21,15.62a10,10,0,0,0-10-10H25.79a10,10,0,0,0-10,10v56a10,10,0,0,0,10,10h9.95L48.62,93.83a2,2,0,0,0,2.76,0L64.26,81.58h9.95a10,10,0,0,0,10-10ZM50,89.62,34,74.4a9.13,9.13,0,0,1,0-13,9.38,9.38,0,0,1,13.17,0,9.24,9.24,0,0,1,1.17,1.42,2,2,0,0,0,3.32,0A9.33,9.33,0,0,1,66,61.4a9.13,9.13,0,0,1,0,13Zm30.21-18a6,6,0,0,1-6,6H68.47l.35-.33a13.13,13.13,0,0,0,0-18.68,13.39,13.39,0,0,0-18.8,0l0,0,0,0a13.4,13.4,0,0,0-18.8,0,13.13,13.13,0,0,0,0,18.71l.32.3H25.79a6,6,0,0,1-6-6v-56a6,6,0,0,1,6-6H74.21a6,6,0,0,1,6,6Z"></path><path d="M68.33,37.49H31.67a2,2,0,1,0,0,4H68.33a2,2,0,0,0,0-4Z"></path><path d="M36.81,29.15H63.19a2,2,0,0,0,0-4H36.81a2,2,0,0,0,0,4Z"></path></svg>