<svg height='100px' width='100px'  fill="#000000" xmlns="http://www.w3.org/2000/svg" xmlns:xlink="http://www.w3.org/1999/xlink" version="1.1" x="0px" y="0px" viewBox="0 0 80 80" style="enable-background:new 0 0 80 80;" xml:space="preserve"><path d="M36.1992188,13.3435059c-0.1381836-1.7944336-1.7036133-3.199707-3.5634766-3.199707H17.1147461  C11.5375977,10.1437988,7,14.6813965,7,20.2585449v3.5009766c0,3.9008789,2.2495117,7.4775391,5.7314453,9.1118164  c1.3818359,0.6489258,2.5952148,1.5571289,3.6264648,2.7216797l7.6293945,8.1235352  c0.4282227,0.4921875,1.0234375,0.7446289,1.6240234,0.7446289c0.4838867,0,0.9707031-0.1640625,1.3759766-0.4990234  c2.3979492-1.9833984,2.7773438-5.581543,0.8071289-8.0673828l-3.6459961-4.0786133h23.0854492  c1.8295898,0,3.3955078-1.3754883,3.5649414-3.1313477c0.0947266-0.9765625-0.2280273-1.9516602-0.8847656-2.6748047  c-0.6572266-0.7241211-1.5947266-1.1396484-2.5712891-1.1396484H38.677063  c0.2124023-0.4491577,0.3405151-0.9452515,0.3405151-1.4741211c0-1.3331299-0.7630615-2.4794922-1.8676758-3.0616455  c0.3536987-0.5439453,0.5639648-1.1896973,0.5639648-1.8856201c0-1.3853149-0.8041382-2.5445557-1.9830322-3.0848999  C36.0903931,14.7657471,36.2550049,14.0684814,36.1992188,13.3435059z M37.0175781,23.3962402  c0,0.8125-0.6611328,1.4731445-1.4736328,1.4731445h-4.003418c-0.4143066,0-0.7697144,0.2520752-0.9214478,0.611145  c-0.0507813,0.119812-0.0790405,0.2515259-0.0790405,0.3898315c0,0.5522461,0.4477539,1,1,1h15.8027344  c0.4140625,0,0.8115234,0.1762695,1.0908203,0.4838867c0.2822266,0.3115234,0.4155273,0.715332,0.3745117,1.1381836  c-0.0712891,0.7421875-0.7631836,1.3237305-1.5742188,1.3237305H21.9130859c-0.3945313,0-0.7519531,0.2319336-0.9125977,0.5917969  c-0.1611328,0.3598633-0.0957031,0.7807617,0.1669922,1.074707l5.097168,5.6992188  c1.2617188,1.59375,1.0141602,3.9438477-0.5517578,5.2387695c-0.065918,0.0556641-0.1621094,0.046875-0.2426758-0.0454102  l-7.6342773-8.1293945c-1.1928711-1.3481445-2.6245117-2.4194336-4.2548828-3.1850586  C10.7983398,29.7546387,9,26.8884277,9,23.7595215v-3.5009766c0-4.4746094,3.6401367-8.1147461,8.1147461-8.1147461h15.5209961  c0.8212891,0,1.5107422,0.5942383,1.5693359,1.3530273c0.0307617,0.4033203-0.0976563,0.7822266-0.3618164,1.0673828  c-0.2758789,0.2983398-0.6796875,0.4692383-1.1069336,0.4692383h-2.2197266c-0.5522461,0-1,0.4477539-1,1s0.4477539,1,1,1h2.2197266  h1.5043945c0.8261719,0,1.4731445,0.621582,1.4731445,1.4155273c0,0.8125-0.6606445,1.4736328-1.4731445,1.4736328h-3.2670898  c-0.5522461,0-1,0.4477539-1,1s0.4477539,1,1,1h3.2670898h1.3032227  C36.3564453,21.9226074,37.0175781,22.5837402,37.0175781,23.3962402z"></path><path d="M67.2685547,47.1286621c-1.3808594-0.6479492-2.5942383-1.5566406-3.6259766-2.7216797l-7.6298828-8.1235352  c-0.7729492-0.8886719-2.0913086-0.9956055-3.0004883-0.2451172c-2.3974609,1.9838867-2.7763672,5.5825195-0.8061523,8.0673828  l3.6459961,4.0786133H32.7661133c-1.8291016,0-3.3950195,1.375-3.5649414,3.1308594  c-0.0947266,0.9765625,0.2280273,1.9516602,0.8847656,2.675293c0.6577148,0.7241211,1.5947266,1.1396484,2.5712891,1.1396484  h8.6659546c-0.2122192,0.4490356-0.340271,0.9449463-0.340271,1.4736328c0,1.3330078,0.7629395,2.4793091,1.8672485,3.0615234  c-0.3537598,0.5440063-0.5640259,1.1897583-0.5640259,1.8857422c0,1.3856812,0.8044434,2.5449219,1.9835205,3.0853271  c-0.3596802,0.5985107-0.5241699,1.2957764-0.4683838,2.0206299c0.1376953,1.7939453,1.703125,3.1992188,3.5634766,3.1992188  h15.5205078C68.4624023,69.8562012,73,65.3186035,73,59.7414551v-3.5009766  C73,52.3395996,70.7504883,48.7629395,67.2685547,47.1286621z M71,59.7414551c0,4.4746094-3.6401367,8.1147461-8.1147461,8.1147461  H47.3647461c-0.8217773,0-1.5112305-0.5942383-1.5693359-1.3530273c-0.03125-0.402832,0.097168-0.7817383,0.3613281-1.0668945  c0.2758789-0.2983398,0.6796875-0.4692383,1.1074219-0.4692383h2.2192383c0.5522461,0,1-0.4477539,1-1s-0.4477539-1-1-1h-2.2192383  h-1.5043945c-0.8261719,0-1.4736328-0.6220703-1.4736328-1.4160156c0-0.8125,0.6611328-1.4736328,1.4736328-1.4736328h3.2670898  c0.5522461,0,1-0.4477539,1-1s-0.4477539-1-1-1h-3.2670898h-1.3037109c-0.8125,0-1.4731445-0.6611328-1.4731445-1.4736328  s0.6606445-1.4731445,1.4731445-1.4731445h4.003418c0.2762451,0,0.5263062-0.1121216,0.7072754-0.2932129  c0.1810913-0.1809692,0.2932129-0.4310303,0.2932129-0.7072754c0-0.5522461-0.4477539-1-1-1H32.6572266  c-0.4135742,0-0.8110352-0.1762695-1.090332-0.4838867c-0.2827148-0.3115234-0.4160156-0.7158203-0.3754883-1.1386719  c0.0722656-0.7416992,0.7636719-1.3232422,1.574707-1.3232422h25.3208008c0.3945313,0,0.7519531-0.2314453,0.9125977-0.5917969  c0.1611328-0.3598633,0.0957031-0.7807617-0.1669922-1.074707l-5.0966797-5.6992188  c-1.2617188-1.5932617-1.0146484-3.9438477,0.5512695-5.2392578c0.0644531-0.0541992,0.1630859-0.0458984,0.2426758,0.0454102  l7.6347656,8.1293945c1.1938477,1.3486328,2.625,2.4204102,4.2543945,3.1850586C69.2016602,50.2453613,71,53.1115723,71,56.2404785  V59.7414551z"></path></svg>