<svg height='100px' width='100px'  fill="#000000" xmlns="http://www.w3.org/2000/svg" viewBox="0 0 64 64" x="0px" y="0px"><g><path d="M16.207,29.279l-1.525,1.3.384.451a1.034,1.034,0,0,1,.272.776,1.241,1.241,0,0,1-.511.825L16.062,34.2A3.218,3.218,0,0,0,17.328,32a3.026,3.026,0,0,0-.738-2.272Z"></path><path d="M19.837,37.905l1.7,1.059a6.213,6.213,0,0,0,0-6.537l-1.7,1.059A4.2,4.2,0,0,1,19.837,37.905Z"></path><path d="M32,17a2.973,2.973,0,0,0,2-.784V22h2V17.447a2.283,2.283,0,0,0,.6.086,2.511,2.511,0,0,0,1.13-.28l5.52-3.238,17.7.984.112-2-18-1a1.037,1.037,0,0,0-.562.136L36.772,15.5a.372.372,0,0,1-.277.02.365.365,0,0,1-.169-.573l1.345-1.682A2.623,2.623,0,0,0,35.623,9,2.626,2.626,0,0,0,33,11.623V14a1,1,0,0,1-2,0V9.5L34.333,7H61V5H34a1,1,0,0,0-.6.2l-4,3A1,1,0,0,0,29,9v5A3,3,0,0,0,32,17Zm3-5.377A.623.623,0,0,1,35.623,11a.623.623,0,0,1,.487,1.012L35,13.4Z"></path><path d="M61,27H55a1,1,0,0,0-1,1v.186l-1.33.034c-.59,0-1.177-.028-1.763-.069l1.2-5.606-1.956-.417-1.238,5.8a24.983,24.983,0,0,1-3.31-.747l1.415-5.928-1.945-.465-1.4,5.846a26.762,26.762,0,0,0-3.162-.679l1.136-5.766-1.961-.386-1.168,5.927a27.07,27.07,0,0,0-7.079.425l-1.164-6.3-1.967.364,1.18,6.386c-.447.121-.895.235-1.336.38a5.754,5.754,0,0,0-.87.373L24.933,21.28,23.067,22l2.571,6.659c-.1.12-.2.246-.292.375a9.065,9.065,0,0,0-4.456-2.358v-.249a3.605,3.605,0,0,0-3.6-3.6h-.132a3.589,3.589,0,0,0-3.114,1.826H12.231c-.052,0-.1.007-.155.007A5.148,5.148,0,0,0,2,26.109a5.027,5.027,0,0,0,1.223,3.267A7.727,7.727,0,0,0,2,33.492v1.585A8.617,8.617,0,0,0,5.706,42.03,3.992,3.992,0,0,0,2,46v3a3.959,3.959,0,0,0,.6,2.084A1,1,0,0,0,2,52v6a1,1,0,0,0,1,1H61a1,1,0,0,0,1-1V28A1,1,0,0,0,61,27ZM26.1,40.608c.06.138.114.279.185.409h0a4.457,4.457,0,0,0,.48.983H24.718A8.892,8.892,0,0,0,26.1,40.608ZM28,39.5A2.5,2.5,0,0,1,30.5,37H54v5H30.5A2.5,2.5,0,0,1,28,39.5Zm.772-10.61a25.008,25.008,0,0,1,15.518,0,26.977,26.977,0,0,0,8.4,1.329h0l1.3-.034V35H30.5a4.47,4.47,0,0,0-2.528.781c.011-.18.028-.358.028-.541A8.526,8.526,0,0,0,26.684,30.7,3.555,3.555,0,0,1,28.772,28.89ZM26,35.24A6.89,6.89,0,0,1,19,42H15.465a10.679,10.679,0,0,0-.563-2.071l1.307,1.1.38-.451a3.038,3.038,0,0,0,.729-2.27,3.215,3.215,0,0,0-1.253-2.192l-1.242,1.567a1.25,1.25,0,0,1,.506.826,1.05,1.05,0,0,1-.27.782l-.274.325a37.733,37.733,0,0,0-5.7-8.91l5.2-2.227H19a7.539,7.539,0,0,1,.785.044A6.86,6.86,0,0,1,26,35.24ZM17.156,24.826h.132a1.6,1.6,0,0,1,1.6,1.605l-3.3.047h-.034v-.051a1.6,1.6,0,0,1,.084-.475.109.109,0,0,0,0-.018A1.6,1.6,0,0,1,17.156,24.826ZM7.154,23a3.114,3.114,0,0,1,2.864,1.877,10.775,10.775,0,0,0-5.5,2.887A3,3,0,0,1,4,26.109,3.136,3.136,0,0,1,7.154,23ZM4,35.077V33.492c0-3.707,3.77-6.84,8.231-6.84h1.235L7.05,29.4a1,1,0,0,0-.35,1.587C8.44,32.93,12.712,38.343,13.447,42H11.889C7.539,42,4,38.9,4,35.077ZM4,46a2,2,0,0,1,2-2H54v7H6a2,2,0,0,1-2-2ZM60,57H4V53H60Zm0-14v8H56V29h4Z"></path></g></svg>