<svg height='100px' width='100px'  fill="#000000" xmlns="http://www.w3.org/2000/svg" xmlns:xlink="http://www.w3.org/1999/xlink" version="1.1" x="0px" y="0px" viewBox="0 0 100 100" style="enable-background:new 0 0 100 100;" xml:space="preserve"><g><path d="M50,46.5c0.2,0,0.4-0.1,0.4-0.3c0-0.1,4.5-8.3,4.5-18.3S50.5,9.8,50.4,9.8c-0.1-0.2-0.3-0.3-0.4-0.3s-0.4,0.1-0.4,0.3   c0,0.1-4.5,8.3-4.5,18.3s4.4,18.2,4.5,18.3C49.6,46.4,49.8,46.5,50,46.5z M52.2,39.2c-0.9-3.1-1.7-6.9-1.7-11.1   c0-4.2,0.8-8.1,1.7-11.1c0.9,3.1,1.7,6.9,1.7,11.1C53.9,32.2,53.1,36.1,52.2,39.2z"></path><path d="M53.6,46.4c0.1,0.1,0.2,0.1,0.4,0.1c0,0,0.1,0,0.1,0c0.1,0,9-2.7,16.1-9.7c7-7,9.7-16,9.7-16.1c0.1-0.2,0-0.4-0.1-0.5   c-0.1-0.1-0.3-0.2-0.5-0.1c-0.1,0-9,2.7-16.1,9.7c-7,7-9.7,16-9.7,16.1C53.4,46.1,53.5,46.3,53.6,46.4z M69.5,36.1   c-3.1,3.1-6.6,5.3-9.4,6.8c1.4-3.2,4-8.3,8.4-12.7c3.1-3.1,6.5-5.3,9.4-6.8C76.5,26.5,73.9,31.7,69.5,36.1z"></path><path d="M46.3,50.4c0.2-0.1,0.3-0.3,0.3-0.4s-0.1-0.4-0.3-0.4c-0.1,0-8.3-4.5-18.3-4.5S9.8,49.5,9.8,49.6c-0.2,0.1-0.3,0.3-0.3,0.4   s0.1,0.4,0.3,0.4c0.1,0,8.3,4.5,18.3,4.5S46.2,50.5,46.3,50.4z M28,53.9c-0.4,0-0.8,0-1.1,0c-7-1.2-12-3.9-12-3.9s5-2.7,12-3.9   c0.4,0,0.7,0,1.1,0c7.8,0,14.6,2.8,16.9,3.9C42.6,51.1,35.9,53.9,28,53.9z"></path><path d="M29.8,36.8c7,7,16,9.7,16.1,9.7c0,0,0.1,0,0.1,0c0.1,0,0.3-0.1,0.4-0.1c0.1-0.1,0.2-0.3,0.1-0.5c0-0.1-2.7-9-9.7-16.1   c-7-7-16-9.7-16.1-9.7c-0.2-0.1-0.4,0-0.5,0.1c-0.1,0.1-0.2,0.3-0.1,0.5C20.1,20.8,22.8,29.7,29.8,36.8z M44.5,43.3   c-2.9-1.5-6.3-3.8-9.4-6.8c-4.4-4.4-7.1-9.5-8.4-12.7c2.9,1.5,6.3,3.7,9.4,6.8C40.5,34.9,43.1,40.1,44.5,43.3z"></path><path d="M50,53.5c-0.2,0-0.4,0.1-0.4,0.3c0,0.1-4.5,8.3-4.5,18.3s4.4,18.2,4.5,18.3c0.1,0.2,0.3,0.3,0.4,0.3s0.4-0.1,0.4-0.3   c0-0.1,4.5-8.3,4.5-18.3s-4.4-18.2-4.5-18.3C50.4,53.6,50.2,53.5,50,53.5z M52.2,83.1c-0.9-3.1-1.7-6.9-1.7-11.1   c0-4.2,0.8-8.1,1.7-11.1c0.9,3.1,1.7,6.9,1.7,11.1C53.9,76.2,53.1,80.1,52.2,83.1z"></path><path d="M46.4,53.6c-0.1-0.1-0.3-0.2-0.5-0.1c-0.1,0-9,2.7-16.1,9.7s-9.7,16-9.7,16.1c-0.1,0.2,0,0.4,0.1,0.5   c0.1,0.1,0.2,0.1,0.4,0.1c0,0,0.1,0,0.1,0c0.1,0,9-2.7,16.1-9.7c7-7,9.7-16,9.7-16.1C46.6,53.9,46.5,53.7,46.4,53.6z M36.1,69.5   c-3.1,3.1-6.6,5.3-9.4,6.8c1.4-3.2,4-8.3,8.4-12.7c3.1-3.1,6.5-5.3,9.4-6.8C43.1,59.9,40.5,65.1,36.1,69.5z"></path><path d="M90.2,49.6c-0.1,0-8.3-4.5-18.3-4.5s-18.2,4.4-18.3,4.5c-0.2,0.1-0.3,0.3-0.3,0.4s0.1,0.4,0.3,0.4c0.1,0,8.3,4.5,18.3,4.5   s18.2-4.4,18.3-4.5c0.2-0.1,0.3-0.3,0.3-0.4S90.4,49.6,90.2,49.6z M72,53.9c-0.4,0-0.8,0-1.1,0c-7-1.2-12-3.9-12-3.9s5-2.7,12-3.9   c0.4,0,0.7,0,1.1,0c7.8,0,14.6,2.8,16.9,3.9C86.5,51.1,79.8,53.9,72,53.9z"></path><path d="M70.2,63.2c-7-7-16-9.7-16.1-9.7c-0.2-0.1-0.4,0-0.5,0.1c-0.1,0.1-0.2,0.3-0.1,0.5c0,0.1,2.7,9,9.7,16.1   c7,7,16,9.7,16.1,9.7c0,0,0.1,0,0.1,0c0.1,0,0.3-0.1,0.4-0.1c0.1-0.1,0.2-0.3,0.1-0.5C79.9,79.2,77.2,70.3,70.2,63.2z M77.9,76.7   c-2.9-1.5-6.3-3.8-9.4-6.8c-4.4-4.4-7.1-9.5-8.4-12.7c2.9,1.5,6.3,3.7,9.4,6.8C73.9,68.3,76.5,73.5,77.9,76.7z"></path></g></svg>