<svg height='100px' width='100px'  fill="#000000" xmlns="http://www.w3.org/2000/svg" xmlns:xlink="http://www.w3.org/1999/xlink" version="1.0" x="0px" y="0px" viewBox="0 0 100 100" enable-background="new 0 0 100 100" xml:space="preserve"><g><path d="M62.77,65.597V46.489c0-0.553-0.447-1-1-1H38.23c-0.553,0-1,0.447-1,1v19.107c0,0.553,0.447,1,1,1H61.77   C62.322,66.597,62.77,66.149,62.77,65.597z M43.04,57.044h6.895l-1.011,7.465H44.05L43.04,57.044z M60.77,64.597h-9.839l1.14-8.419   c0.038-0.286-0.048-0.574-0.238-0.792c-0.189-0.217-0.464-0.342-0.753-0.342h-9.184c-0.289,0-0.563,0.125-0.753,0.342   c-0.19,0.218-0.276,0.506-0.238,0.792l1.139,8.419H39.23V47.489h5.842v2.871c0,0.553,0.447,1,1,1s1-0.447,1-1v-2.871h5.855v2.871   c0,0.553,0.447,1,1,1s1-0.447,1-1v-2.871h5.842V64.597z"></path><path d="M61.942,71.331h-0.69c-0.553,0-1,0.447-1,1s0.447,1,1,1h0.69c0.553,0,1-0.447,1-1S62.495,71.331,61.942,71.331z"></path><path d="M69.684,16.999H30.316c-0.553,0-1,0.447-1,1v11.426v52.576c0,0.553,0.447,1,1,1h39.367c0.553,0,1-0.447,1-1V27.267v-9.268   C70.684,17.446,70.236,16.999,69.684,16.999z M31.316,18.999h37.367v8.117c-0.242,0.746-1.651,4.676-4.525,4.676h-7.554   c-1.812,0-3.445-1.084-4.164-2.761c-0.157-0.368-0.519-0.606-0.919-0.606H31.316V18.999z M31.316,81.001v-7.67H56.82   c0.553,0,1-0.447,1-1s-0.447-1-1-1H31.316V30.425h19.583c1.146,2.065,3.318,3.367,5.705,3.367h7.554   c2.025,0,3.499-1.127,4.525-2.424v39.963h-3.115c-0.553,0-1,0.447-1,1s0.447,1,1,1h3.115v7.67H31.316z"></path><path d="M36.295,22.87h-1c-0.553,0-1,0.447-1,1s0.447,1,1,1h1c0.553,0,1-0.447,1-1S36.848,22.87,36.295,22.87z"></path><path d="M40.883,22.87h-1.835c-0.553,0-1,0.447-1,1s0.447,1,1,1h1.835c0.553,0,1-0.447,1-1S41.436,22.87,40.883,22.87z"></path><path d="M45.472,22.87h-1.836c-0.553,0-1,0.447-1,1s0.447,1,1,1h1.836c0.553,0,1-0.447,1-1S46.024,22.87,45.472,22.87z"></path><path d="M49.225,22.87h-1c-0.553,0-1,0.447-1,1s0.447,1,1,1h1c0.553,0,1-0.447,1-1S49.777,22.87,49.225,22.87z"></path><path d="M60.273,29.687c2.365,0,4.29-1.925,4.29-4.291c0-2.365-1.925-4.289-4.29-4.289s-4.29,1.924-4.29,4.289   C55.983,27.762,57.908,29.687,60.273,29.687z M60.273,23.106c1.263,0,2.29,1.027,2.29,2.289c0,1.264-1.027,2.291-2.29,2.291   s-2.29-1.027-2.29-2.291C57.983,24.134,59.011,23.106,60.273,23.106z"></path></g></svg>