<svg height='100px' width='100px'  fill="#000000" xmlns:dc="http://purl.org/dc/elements/1.1/" xmlns:cc="http://creativecommons.org/ns#" xmlns:rdf="http://www.w3.org/1999/02/22-rdf-syntax-ns#" xmlns:svg="http://www.w3.org/2000/svg" xmlns="http://www.w3.org/2000/svg" xmlns:sodipodi="http://sodipodi.sourceforge.net/DTD/sodipodi-0.dtd" xmlns:inkscape="http://www.inkscape.org/namespaces/inkscape" version="1.1" x="0px" y="0px" viewBox="0 0 100 100"><g transform="translate(0,-952.36218)"><path d="m 26.967692,976.36216 c -14.047479,0 -25.4676895,11.70039 -25.4676895,26.01564 0,14.3151 11.4202105,25.9844 25.4676895,25.9844 7.68222,0 14.570011,-3.4952 19.246341,-8.9947 l 21.94328,0 0,5.9965 c 0.008,1.1531 0.731389,2.2692 1.76912,2.729 1.03774,0.4598 2.332169,0.2378 3.16505,-0.5428 l 24.517589,-22.9862 c 1.187901,-1.119 1.187901,-3.2847 0,-4.4037 L 73.091483,977.17405 c -0.575521,-0.5361 -1.36675,-0.824 -2.145291,-0.7807 -1.488649,0.079 -2.790759,1.4791 -2.788879,2.9982 l 0,5.9964 -21.94328,0 c -4.67633,-5.5091 -11.564121,-9.0258 -19.246341,-9.0258 z m 0,6.0276 c 10.867401,0 19.64475,8.9134 19.64475,19.98804 0,11.0743 -8.777349,19.9567 -19.64475,19.9567 -10.867399,0 -19.6447495,-8.8824 -19.6447495,-19.9567 0.521,-12.00564 10.2098495,-20.06695 19.6447495,-19.98805 z m -9.16347,8.0576 c -2.497719,0 -4.627429,1.1597 -5.853579,2.93579 -1.22615,1.77611 -1.65494,3.9597 -1.65494,6.2151 0,2.67945 1.13164,5.92335 2.78888,8.86955 1.64226,2.7748 4.166169,5.8437 7.202049,5.9027 1.58217,-0.1542 2.2774,-0.9701 2.85018,-2.3111 0.40277,-1.5971 0.30272,-3.1054 0.33707,-4.6847 l 6.98752,0 c 0.0836,1.5994 -0.0684,3.3013 0.33707,4.6847 0.4614,1.4935 1.47429,2.0462 2.85018,2.3111 3.50034,-0.4187 5.66569,-3.1957 7.20205,-5.9027 1.65724,-2.9462 2.788881,-6.1901 2.788881,-8.86955 0,-2.393 -0.728261,-4.6583 -2.175941,-6.3712 -1.44768,-1.7131 -3.66231,-2.7797 -6.16005,-2.7797 -0.91676,0 -1.65917,-0.1325 -2.69694,-0.031 -0.74861,0.073 -1.54526,0.4794 -2.29853,1.0306 l -7.63111,0 c -0.72509,-0.54589 -1.50271,-0.95399 -2.23724,-1.0306 -0.90553,-0.072 -1.83718,-0.011 -2.63555,0.031 z m 2.23724,3.9352 c 0.57052,0.3519 1.15895,0.79679 2.0227,1.0619 l 8.82635,0 c 0.84343,-0.089 1.64727,-0.7865 2.084,-1.0619 0.31758,-0.031 1.12883,0.062 2.32917,0.062 1.455761,0 2.441801,0.5231 3.1873,1.4054 0.745491,0.8821 1.225881,2.181 1.225881,3.74779 0,1.28055 -0.89699,4.43355 -2.267881,6.87075 -0.826479,1.3777 -1.72305,2.7975 -3.00341,3.4354 -0.0542,-0.9535 -0.054,-2.0974 -0.0919,-2.9982 -0.30222,-1.9768 -0.7494,-2.9974 -2.48241,-3.529 l -9.80705,0 c -1.77747,0.252 -2.305,1.99 -2.48241,3.529 -0.0591,1.0141 -0.0635,2.1309 -0.0919,2.9982 -1.32243,-0.5767 -2.32648,-2.2439 -3.00341,-3.4354 -1.370899,-2.4372 -2.267879,-5.5902 -2.267879,-6.87075 0,-1.7045 0.38469,-3.085 0.95006,-3.904 0.56536,-0.81899 1.1799,-1.24919 2.635639,-1.24919 0.74498,8e-4 1.49812,-0.033 2.23714,-0.062 z m -1.40977,0.9682 c -1.8957,0 -3.432459,1.5661 -3.432459,3.49789 0,1.93175 1.536759,3.49795 3.432459,3.49795 1.89571,0 3.43247,-1.5662 3.43247,-3.49795 0,-1.93179 -1.53676,-3.49789 -3.43247,-3.49789 z m 14.22023,0 0,1.4991 -1.47106,0 0,3.99764 1.47106,0 0,1.4991 3.922821,0 0,-1.4991 1.47106,0 0,-3.99764 -1.47106,0 0,-1.4991 z" style="text-indent:0;text-transform:none;direction:ltr;block-progression:tb;baseline-shift:baseline;color:#000000;enable-background:accumulate;" fill="#000000" fill-opacity="1" stroke="none" marker="none" visibility="visible" display="inline" overflow="visible"></path></g></svg>