<svg height='100px' width='100px'  fill="#000000" xmlns="http://www.w3.org/2000/svg" xmlns:xlink="http://www.w3.org/1999/xlink" version="1.1" x="0px" y="0px" viewBox="0 0 100 100" style="enable-background:new 0 0 100 100;" xml:space="preserve"><g><path d="M86.1786423,20.6811523c-2.6503906-1.3369141-4.0644531-2.7509766-5.4033203-5.4023438   C80.377861,14.4897461,79.5800095,14,78.6942673,14s-1.6835938,0.4897461-2.0810547,1.2783203   c-1.3388672,2.6518555-2.7529297,4.065918-5.4042969,5.4033203c-0.7880859,0.3979492-1.2773438,1.1953125-1.2773438,2.0810547   s0.4892578,1.6831055,1.2783203,2.081543c2.6503906,1.3369141,4.0644531,2.7509766,5.4033203,5.4023438   c0.3974609,0.7885742,1.1953125,1.2783203,2.0810547,1.2783203s1.6835938-0.4897461,2.0810547-1.277832   c1.3388672-2.6518555,2.7529297-4.065918,5.4033203-5.402832c0-0.0004883,0-0.0004883,0.0009766-0.0004883   c0.7880859-0.3979492,1.2773438-1.1953125,1.2773438-2.0810547S86.9677048,21.0795898,86.1786423,20.6811523z    M85.2772751,23.0585938c-3.0449219,1.5361328-4.7490234,3.2402344-6.2871094,6.2871094   c-0.0791016,0.15625-0.2197266,0.1791992-0.2958984,0.1791992s-0.2167969-0.0229492-0.2958984-0.1791992   c-1.5380859-3.046875-3.2421875-4.7509766-6.2871094-6.2871094c-0.15625-0.0791016-0.1796875-0.2192383-0.1796875-0.2958984   s0.0234375-0.2167969,0.1787109-0.2954102c3.0458984-1.5366211,4.75-3.2407227,6.2880859-6.2880859   C78.4774704,16.0229492,78.6180954,16,78.6942673,16s0.2167969,0.0229492,0.2958984,0.1796875   c1.5380859,3.046875,3.2421875,4.7509766,6.2871094,6.2871094c0.15625,0.0791016,0.1796875,0.2192383,0.1796875,0.2958984   S85.4335251,22.9794922,85.2772751,23.0585938z"></path><path d="M37.0516891,66.8486328h-1.4736328v-1.4726563c0-1.5224609-1.2392578-2.7617188-2.7617188-2.7617188   c-1.5224628,0-2.7617207,1.2392578-2.7617207,2.7617188v1.4726563h-1.4726563   c-1.5224609,0-2.7617188,1.2392578-2.7617188,2.7617188s1.2392578,2.7617188,2.7617188,2.7617188h1.4726563v1.4736328   c0,1.5224609,1.2392578,2.7617188,2.7617207,2.7617188c1.5224609,0,2.7617188-1.2392578,2.7617188-2.7617188v-1.4736328h1.4736328   c1.5224609,0,2.7617188-1.2392578,2.7617188-2.7617188S38.5741501,66.8486328,37.0516891,66.8486328z"></path><path d="M63.5468063,71.9003906c-0.5527344,0-1,0.4472656-1,1v2.5830078c0,2.1230469-1.7265625,3.8496094-3.8496094,3.8496094   h-7.4335938c-0.5527344,0-1,0.4472656-1,1s0.4472656,1,1,1h7.4335938c3.2255859,0,5.8496094-2.6240234,5.8496094-5.8496094   v-2.5830078C64.5468063,72.3476563,64.0995407,71.9003906,63.5468063,71.9003906z"></path><path d="M46.0634079,79.3330078h-0.734375c-0.5527344,0-1,0.4472656-1,1s0.4472656,1,1,1h0.734375c0.5527344,0,1-0.4472656,1-1   S46.6161423,79.3330078,46.0634079,79.3330078z"></path><path d="M71.3671188,33.8242188H69.212822v-3.9609375c0-6.1738281-5.0224609-11.1967773-11.1962891-11.1967773H29.1766872   c-5.3037109,0-9.7475586,3.7106934-10.8979492,8.6694336h-2.4526358c-1.8105469,0-3.2832031,1.4726563-3.2832031,3.2827148   v4.1640625c0,1.8105469,1.4726563,3.2832031,3.2832031,3.2832031h2.1542959v2.2470703h-2.1542959   c-1.8105469,0-3.2832031,1.4726563-3.2832031,3.2827148v4.1645508c0,1.8100586,1.4726563,3.2827148,3.2832031,3.2827148h2.1542959   v23.7607422C17.9803982,80.9775391,23.0028591,86,29.1766872,86h28.8398457   c6.1738281,0,11.1962891-5.0224609,11.1962891-11.1962891V44.5546875h2.1542969   c1.8105469,0,3.2832031-1.4726563,3.2832031-3.2832031v-4.1640625   C74.650322,35.296875,73.1776657,33.8242188,71.3671188,33.8242188z M67.212822,34.8242188v8.7304688v31.2490234   C67.212822,79.875,63.087822,84,58.0165329,84H29.1766872c-5.0712891,0-9.1962891-4.125-9.1962891-9.1962891V50.0429688v-8.7299805   V37.065918v-7.2026367c0-5.0712891,4.125-9.1967773,9.1962891-9.1967773h28.8398457   c5.0712891,0,9.1962891,4.1254883,9.1962891,9.1967773V34.8242188z"></path><path d="M55.4208298,75.2724609c3.2822266,0,5.9521484-2.6699219,5.9521484-5.9521484s-2.6699219-5.953125-5.9521484-5.953125   s-5.9521484,2.6708984-5.9521484,5.953125S52.1386032,75.2724609,55.4208298,75.2724609z"></path><circle cx="33.5692673" cy="57.6884766" r="2.7324219"></circle><circle cx="43.596611" cy="57.6884766" r="2.7324219"></circle><circle cx="53.6239548" cy="57.6884766" r="2.7324219"></circle><path d="M28.766531,53.3330078h29.6601582c1.625,0,2.9462891-1.3212891,2.9462891-2.9462891V29.453125   c0-1.6245117-1.3212891-2.9462891-2.9462891-2.9462891H28.766531c-1.625,0-2.9462891,1.3217773-2.9462891,2.9462891v20.9335938   C25.8202419,52.0117188,27.141531,53.3330078,28.766531,53.3330078z M46.3134079,45.8999023h0.5c0.5527344,0,1,0.4477539,1,1   s-0.4472656,1-1,1h-0.5c-0.5527344,0-1-0.4477539-1-1S45.7606735,45.8999023,46.3134079,45.8999023z M38.8593063,45.8999023   h0.9316406c0.5527344,0,1,0.4477539,1,1s-0.4472656,1-1,1h-0.9316406c-0.5527344,0-1-0.4477539-1-1   S38.306572,45.8999023,38.8593063,45.8999023z M31.8368435,45.8999023h0.5000019c0.5527344,0,1,0.4477539,1,1s-0.4472656,1-1,1   h-0.5000019c-0.5527344,0-1-0.4477539-1-1S31.2841091,45.8999023,31.8368435,45.8999023z"></path></g></svg>