<svg height='100px' width='100px'  fill="#000000" xmlns="http://www.w3.org/2000/svg" viewBox="0 0 64 64" x="0px" y="0px"><g><circle cx="51" cy="56" r="2"></circle><circle cx="27" cy="56" r="2"></circle><path d="M60,22.917A1,1,0,0,0,59,22H57V17a5.006,5.006,0,0,0-5-5,4.95,4.95,0,0,0-2,.424A4.95,4.95,0,0,0,48,12a5.006,5.006,0,0,0-5,5v5H41a1,1,0,0,0-1,.917L39,34.964,38,22.917a1,1,0,0,0-1.765-.557L36,22.638V20.2a4,4,0,1,0-8,0v2.438l-.231-.278A1,1,0,0,0,26,22.917L24.08,46H22V2H2V8H6v2.184A3,3,0,0,0,4,13V48.618l4,2V55a1,1,0,0,0,1.447.9l4-2A1,1,0,0,0,14,53V13a3,3,0,0,0-2-2.816V8h4V52h6.54a6,6,0,1,0,8.92,0H46.54a6,6,0,1,0,8.92,0H62V46h-.08ZM59.913,46H57.92L56.087,24H58.08ZM55,17v5H53V17a4.949,4.949,0,0,0-1.024-3L52,14A3,3,0,0,1,55,17Zm-5-2.22A2.985,2.985,0,0,1,51,17v5H49V17A2.985,2.985,0,0,1,50,14.78ZM45,17a3,3,0,0,1,3-3l.024,0A4.949,4.949,0,0,0,47,17v5H45Zm-3.08,7H54.08l1.833,22H40.087ZM30,25V20.2a2.009,2.009,0,1,1,4,0V25h.031L32,27.438,29.969,25Zm-2.206.515L31,29.362V33h2V29.362l3.206-3.847L37.913,46H33V39H31v7H26.087ZM6,47.382V13a1,1,0,0,1,2,0V48.382Zm6,5-2,1V13a1,1,0,0,1,2,0Zm-2-42.2a2.989,2.989,0,0,0-1,.6,2.989,2.989,0,0,0-1-.6V8h2ZM4,6V4H16V6ZM18,8V4h2V34H18Zm0,28h2V46H18ZM31,56a4,4,0,1,1-4-4A4,4,0,0,1,31,56Zm24,0a4,4,0,1,1-4-4A4,4,0,0,1,55,56Zm5-6H18V48H60Z"></path><rect x="46.379" y="28.5" width="4.243" height="2" transform="translate(-6.654 42.935) rotate(-45)"></rect><rect x="46.172" y="33" width="5.657" height="2" transform="translate(-9.69 44.607) rotate(-45)"></rect></g></svg>