<svg height='100px' width='100px'  fill="#000000" xmlns="http://www.w3.org/2000/svg" viewBox="0 0 64 64" x="0px" y="0px"><title>Dog</title><g data-name="Layer 2"><path d="M12,26.92v4.17a11.6,11.6,0,0,1-1.87,6.42,12.59,12.59,0,0,0-2,5.18A12.46,12.46,0,0,0,20.44,56.9h0a3.06,3.06,0,0,1,1.53.43,19.89,19.89,0,0,0,20,0,3.06,3.06,0,0,1,1.53-.43h0A12.27,12.27,0,0,0,54.76,50a12.56,12.56,0,0,0-.86-12.41A11.59,11.59,0,0,1,52,31.09V26.92a5.35,5.35,0,0,1,1.33-3.46A16.3,16.3,0,0,0,56.65,8.79a2,2,0,0,0-1.43-1.43A16.29,16.29,0,0,0,41.45,10,18.85,18.85,0,0,0,33,8H31a18.85,18.85,0,0,0-8.42,2A16.29,16.29,0,0,0,8.77,7.37,2,2,0,0,0,7.35,8.79a16.3,16.3,0,0,0,3.33,14.67A5.34,5.34,0,0,1,12,26.92ZM51.09,10.83A12.34,12.34,0,0,1,53,11a12.34,12.34,0,0,1,.15,1.95,12.21,12.21,0,0,1-2.42,7.33,19.05,19.05,0,0,0-5.65-7.88A12.27,12.27,0,0,1,51.09,10.83ZM42,34a2,2,0,1,1-2,2A2,2,0,0,1,42,34ZM23.37,14.11l.14-.1.07,0a5.24,5.24,0,0,1,7.74,4.35L32,31a9,9,0,0,0,9,9h4.68A5.91,5.91,0,0,1,51,48.5l0,0a8.2,8.2,0,0,1-7.32,4.35h-.14a7.06,7.06,0,0,0-3.54,1,15.89,15.89,0,0,1-16,0,7.06,7.06,0,0,0-3.54-1h0A8.29,8.29,0,0,1,13,48.56a8.53,8.53,0,0,1,.4-8.76A15.58,15.58,0,0,0,16,31.09V27a15,15,0,0,1,.21-2.49v0A15,15,0,0,1,23.37,14.11ZM11,11a12.29,12.29,0,0,1,7.92,1.39,19.05,19.05,0,0,0-5.65,7.88,12.21,12.21,0,0,1-2.42-7.33A12.35,12.35,0,0,1,11,11Z"></path><circle cx="22" cy="36.02" r="2"></circle><path d="M20.78,47a5.16,5.16,0,0,0,5.15,5,8,8,0,0,0,2.86-.53,9,9,0,0,1,6.42,0,8,8,0,0,0,2.86.53,5.16,5.16,0,0,0,5.15-5,2,2,0,0,0-1.81-2.13,2,2,0,0,0-2.19,2A1.14,1.14,0,0,1,38.11,48,4.08,4.08,0,0,1,34,43.95v-.77l.23-.14a2.24,2.24,0,0,0,1.13-2.2,2.19,2.19,0,0,0-2.17-1.91H30.87a2.24,2.24,0,0,0-2,1.24A2.19,2.19,0,0,0,29.71,43h0l.29.16v.77A4.08,4.08,0,0,1,25.89,48a1.14,1.14,0,0,1-1.11-1.16,2,2,0,0,0-2.19-2A2,2,0,0,0,20.78,47ZM32,39.79H32l.16.17h-.4Z"></path></g></svg>