<svg height='100px' width='100px'  fill="#000000" xmlns="http://www.w3.org/2000/svg" xmlns:xlink="http://www.w3.org/1999/xlink" version="1.1" x="0px" y="0px" viewBox="0 0 64 64" style="enable-background:new 0 0 64 64;" xml:space="preserve"><g><path d="M63,17.886V11c0-0.553-0.448-1-1-1h-1V8c0-1.654-1.346-3-3-3h-2c-0.395,0-0.77,0.081-1.116,0.22   C54.539,3.945,53.383,3,52,3h-2c-0.395,0-0.77,0.081-1.116,0.22C48.539,1.945,47.383,1,46,1h-2c-1.383,0-2.538,0.945-2.884,2.22   C40.77,3.081,40.395,3,40,3h-2c-1.654,0-3,1.346-3,3v5h0.031c-0.97,0.722-1.68,1.774-1.93,3h-2.202c-0.25-1.226-0.96-2.278-1.93-3   H29V6c0-1.654-1.346-3-3-3h-2c-0.395,0-0.77,0.081-1.116,0.22C22.539,1.945,21.383,1,20,1h-2c-1.383,0-2.538,0.945-2.884,2.22   C14.77,3.081,14.395,3,14,3h-2c-1.383,0-2.538,0.945-2.884,2.22C8.77,5.081,8.395,5,8,5H6C4.346,5,3,6.346,3,8v2H2   c-0.552,0-1,0.447-1,1v6.886c0,5.493,0.88,10.919,2.617,16.128l0.02,0.06C3.265,34.219,3,34.576,3,35v12c0,0.553,0.448,1,1,1h1v15   h2V48h16v15h2V48h3c0.552,0,1-0.447,1-1V35c0-0.36-0.201-0.662-0.486-0.838l2.909-2.493c0.205-0.175,0.401-0.364,0.593-0.555   c0.187,0.185,0.36,0.382,0.561,0.554l2.91,2.494C35.201,34.338,35,34.639,35,35v12c0,0.553,0.448,1,1,1h3v15h2V48h16v15h2V48h1   c0.552,0,1-0.447,1-1V35c0-0.424-0.265-0.781-0.637-0.927l0.02-0.06C62.12,28.805,63,23.379,63,17.886z M56,7h2   c0.551,0,1,0.448,1,1v2h-4V8C55,7.448,55.449,7,56,7z M50,5h2c0.551,0,1,0.448,1,1v2v2h-4V6C49,5.448,49.449,5,50,5z M43,4   c0-0.552,0.449-1,1-1h2c0.551,0,1,0.448,1,1v2v4h-4V6V4z M37,6c0-0.552,0.449-1,1-1h2c0.551,0,1,0.448,1,1v4h-3   c-0.342,0-0.677,0.035-1,0.101V6z M38,12h23v5.886c0,5.277-0.846,10.491-2.515,15.495L58.279,34H38.37L35,31.111V15   C35,13.346,36.346,12,38,12z M41,40v-4h10v4h2v-4h2v5c0,0.552-0.449,1-1,1H37v-6h2v4H41z M24,5h2c0.551,0,1,0.448,1,1v4.101   C26.677,10.035,26.342,10,26,10h-3V6C23,5.448,23.449,5,24,5z M17,4c0-0.552,0.449-1,1-1h2c0.551,0,1,0.448,1,1v2v4h-4V6V4z M11,6   c0-0.552,0.449-1,1-1h2c0.551,0,1,0.448,1,1v4h-4V8V6z M5,8c0-0.552,0.449-1,1-1h2c0.551,0,1,0.448,1,1v2H5V8z M5,46V36h2v5   c0,1.654,1.346,3,3,3h17v2H5z M13,40v-4h10v4h2v-4h2v6H10c-0.551,0-1-0.448-1-1v-5h2v4H13z M30.122,30.15L25.631,34H5.721   l-0.206-0.619C3.846,28.377,3,23.163,3,17.886V12h23c1.383,0,2.539,0.945,2.884,2.22C27.782,14.664,27,15.741,27,17v2   c0,0.098,0.014,0.194,0.042,0.287l2.157,7.19c0.337,1.121,0.861,2.161,1.52,3.109C30.528,29.784,30.329,29.973,30.122,30.15z    M31.115,25.903L29,18.854V17c0-0.552,0.449-1,1-1h3v13.281C32.138,28.309,31.493,27.161,31.115,25.903z M59,46H37v-2h17   c1.654,0,3-1.346,3-3v-5h2V46z"></path><path d="M48,28c5.333,0,11-1.752,11-5s-5.667-5-11-5s-11,1.752-11,5S42.667,28,48,28z M48,20c5.494,0,9,1.776,9,3s-3.506,3-9,3   s-9-1.776-9-3S42.506,20,48,20z"></path><path d="M16,18c-5.333,0-11,1.752-11,5s5.667,5,11,5s11-1.752,11-5S21.333,18,16,18z M16,26c-5.494,0-9-1.776-9-3s3.506-3,9-3   s9,1.776,9,3S21.494,26,16,26z"></path></g></svg>