<svg height='100px' width='100px'  fill="#000000" xmlns="http://www.w3.org/2000/svg" xmlns:xlink="http://www.w3.org/1999/xlink" version="1.1" x="0px" y="0px" viewBox="0 0 1000 1000" enable-background="new 0 0 1000 1000" xml:space="preserve"><g><path d="M669.316,771.9c-51.748,0-104.132-12.535-155.697-37.257l-10.492-5.032l-0.717,2.528c-0.306,1.075-1.287,1.817-2.405,1.817   c-1.118,0-2.1-0.742-2.405-1.817l-0.717-2.527l-10.491,5.031C434.828,759.365,382.442,771.9,330.69,771.9   c-18.354,0-36.739-1.628-54.649-4.839c-0.948-0.159-1.739-0.854-1.999-1.805c-0.298-1.087,0.166-2.238,1.134-2.812   c32.516-19.266,72.291-32.761,115.026-39.026l38.86-5.699l-36.983-13.231c-79.113-28.3-152.797-74.922-178.329-103.645   c-0.677-0.762-0.824-1.857-0.372-2.771c0.424-0.855,1.295-1.391,2.24-1.391c0.063,0,0.125,0.002,0.189,0.007   c61.461,4.628,116.832,20.043,169.275,47.124l43.737,22.583l-31.749-37.617c-67.402-79.845-113.241-167.063-140.136-266.638   c-0.272-1.006,0.109-2.076,0.956-2.683c0.435-0.312,0.946-0.469,1.458-0.469c0.484,0,0.969,0.141,1.391,0.422   c72.392,48.463,135.362,122.145,182.104,213.081l30.287,58.92l-11.926-65.16c-10.071-55.039-14.1-100.909-12.316-140.232   c3.919-86.258,25.274-166.399,48.706-247.728c0.202-0.739,0.735-1.36,1.466-1.659c0.307-0.125,0.629-0.187,0.949-0.187   c0.657,0,1.303,0.259,1.781,0.747c0.291,0.296,0.508,0.665,0.622,1.063c23.438,81.362,44.8,161.534,48.702,247.763   c1.784,39.332-2.245,85.205-12.316,140.241l-11.922,65.154l30.283-58.914c46.751-90.946,109.723-164.631,182.107-213.09   c0.234-0.157,0.494-0.273,0.768-0.344c0.207-0.053,0.416-0.079,0.624-0.079c0.66,0,1.305,0.261,1.78,0.742   c0.625,0.633,0.87,1.549,0.638,2.408c-26.894,99.559-72.732,186.778-140.137,266.639l-31.752,37.625l43.742-22.591   c52.424-27.081,107.791-42.495,169.265-47.124c0.063-0.005,0.126-0.007,0.188-0.007c0.944,0,1.815,0.534,2.239,1.391   c0.452,0.913,0.305,2.009-0.371,2.77c-25.515,28.717-99.188,75.34-178.313,103.655l-36.981,13.223l38.859,5.698   c42.703,6.264,82.455,19.75,114.958,38.999c0.696,0.393,1.188,1.109,1.264,1.956c0.115,1.29-0.771,2.454-2.046,2.683   C706.068,770.271,687.673,771.9,669.316,771.9z"></path><path d="M500.005,178.946l0.004,0.004c23.393,81.206,44.716,161.215,48.607,247.184c1.775,39.151-2.243,84.84-12.278,139.678   l-14.963,81.772l38.007-73.939C605.94,483.073,668.628,409.71,740.656,361.49l0.006-0.001v0.001   c-26.796,99.193-72.471,186.1-139.634,265.677l-39.85,47.22l54.897-28.352c52.115-26.922,107.175-42.25,168.305-46.853   c-25.31,28.486-98.54,74.782-177.286,102.962l-46.416,16.596l48.774,7.152c42.389,6.218,81.844,19.596,114.092,38.703h0.005   c-17.79,3.19-36.037,4.805-54.233,4.805c-51.38,0-103.399-12.456-154.616-37.011l-13.168-6.315l-1.527,5.383l-1.527-5.383   l-13.167,6.315C434.095,756.944,382.068,769.4,330.69,769.4c-18.198,0-36.449-1.614-54.235-4.805h-0.004   c32.25-19.107,71.707-32.485,114.114-38.703l48.77-7.152l-46.414-16.605c-78.748-28.17-151.981-74.466-177.302-102.952   c61.121,4.603,116.182,19.931,168.316,46.853l54.891,28.342l-39.845-47.21c-67.167-79.565-112.838-166.472-139.633-265.677   c72.038,48.226,134.721,121.583,181.271,212.146l38.012,73.948l-14.969-81.781c-10.035-54.84-14.053-100.524-12.277-139.669   c3.907-85.988,25.227-165.989,48.621-247.182V178.946 M784.381,599.183h0.005 M500.004,173.948c-0.636,0-1.277,0.122-1.888,0.371   c-1.479,0.604-2.556,1.864-2.948,3.362c-23.465,81.447-44.848,161.728-48.778,248.226c-1.793,39.515,2.248,85.569,12.354,140.796   l8.884,48.539l-22.562-43.893c-46.935-91.312-110.193-165.317-182.936-214.015c-0.843-0.564-1.813-0.845-2.782-0.845   c-1.023,0-2.045,0.313-2.915,0.938c-1.694,1.215-2.456,3.354-1.913,5.366c26.992,99.936,72.996,187.468,140.64,267.599   l23.652,28.023l-32.583-16.823c-52.748-27.239-108.432-42.742-170.235-47.396c-0.126-0.009-0.252-0.014-0.377-0.014   c-1.889,0-3.632,1.069-4.479,2.782c-0.904,1.825-0.609,4.017,0.744,5.539c25.74,28.958,99.865,75.903,179.355,104.339l27.552,9.857   l-28.95,4.245c-43.054,6.313-83.144,19.919-115.938,39.349c-1.938,1.148-2.869,3.45-2.273,5.623   c0.525,1.918,2.126,3.316,4.044,3.618c18.033,3.229,36.542,4.865,55.018,4.865c52.129,0,104.879-12.617,156.782-37.502l7.826-3.754   c0.707,1.976,2.584,3.313,4.707,3.313s4-1.337,4.707-3.313l7.826,3.754c51.905,24.885,104.653,37.502,156.778,37.502   c18.504,0,37.048-1.643,55.116-4.883c2.549-0.458,4.327-2.785,4.098-5.365c-0.153-1.718-1.163-3.169-2.586-3.946   c-32.762-19.382-72.789-32.956-115.766-39.261l-28.945-4.244l27.545-9.849c79.436-28.427,153.49-75.316,179.273-104.273   c0.826-0.892,1.332-2.085,1.332-3.396c0-2.726-2.179-4.941-4.891-4.999c-0.037-0.001-0.074-0.001-0.111-0.001   c-0.058,0-0.115,0.001-0.174,0.003c-0.085,0.003-0.17,0.008-0.254,0.015c-61.797,4.658-117.457,20.161-170.173,47.393   l-32.588,16.83l23.656-28.031c67.644-80.146,113.647-167.679,140.64-267.598c0.114-0.425,0.173-0.864,0.173-1.304   c0-1.545-0.715-3.005-1.937-3.952c-0.886-0.687-1.967-1.049-3.064-1.049c-0.416,0-0.833,0.052-1.244,0.157   c-0.548,0.141-1.072,0.375-1.542,0.689c-72.736,48.694-135.996,122.702-182.94,214.023l-22.56,43.889l8.881-48.535   c10.106-55.225,14.147-101.282,12.355-140.805c-3.915-86.5-25.316-166.829-48.798-248.341c-0.229-0.797-0.654-1.525-1.235-2.118   C502.618,174.47,501.323,173.948,500.004,173.948L500.004,173.948z"></path></g></svg>