<svg height='100px' width='100px'  fill="#000000" xmlns="http://www.w3.org/2000/svg" xmlns:xlink="http://www.w3.org/1999/xlink" version="1.1" x="0px" y="0px" viewBox="0 0 100 100" style="enable-background:new 0 0 100 100;" xml:space="preserve"><path d="M32.4,62.9c2.7-8.8,13.2-29.1,23.6-15.9c2.9,3.6,14,22.3,0.9,19.6c-5.4-1.1-7.8-4.9-13.6-4.3c-4.2,0.4-4.1,3.3-8.4,4  C32.8,66.6,31.9,64.5,32.4,62.9z"></path><ellipse transform="matrix(0.5841 -0.8117 0.8117 0.5841 -4.7561 72.5582)" cx="68.4" cy="40.9" rx="9.5" ry="6.3"></ellipse><ellipse transform="matrix(0.3564 -0.9343 0.9343 0.3564 6.1686 72.1323)" cx="55.4" cy="31.6" rx="8.3" ry="5.5"></ellipse><ellipse transform="matrix(0.9811 -0.1934 0.1934 0.9811 -5.4844 8.3185)" cx="39.9" cy="32.2" rx="5.1" ry="7.7"></ellipse><ellipse transform="matrix(0.7324 -0.6809 0.6809 0.7324 -20.9759 31.7872)" cx="30" cy="42.6" rx="4.7" ry="7.1"></ellipse><path d="M49.9,88.5C49.7,88.5,49.7,88.5,49.9,88.5c-0.3,0-0.3,0-0.4,0c-0.8,0-1.5-0.4-2.2-1.1l-0.6-0.7L15.2,60.2  C3.7,50.6,2.3,33.1,12,21.4c4.7-5.7,11.3-9.2,18.7-9.8c7-0.7,13.7,1.3,19.3,5.4c5.4-4.2,12.3-6.1,19.1-5.4c7.3,0.7,14,4.2,18.7,9.8  s7.1,12.8,6.6,20.1c-0.6,7.4-4,14.1-9.8,18.8L52.9,86.9l-0.7,0.7C51.4,88.2,50.7,88.5,49.9,88.5z M33.1,17.5  c-6.3,0-12.3,2.7-16.6,7.7C8.8,34.4,9.9,48,19,55.6l0,0l30.9,26l30.7-25.8c4.5-3.8,7.1-8.9,7.7-14.8c0.6-5.7-1.3-11.3-5.2-15.8  c-3.8-4.5-8.9-7.3-14.7-7.7c-5.7-0.4-11.2,1.3-15.6,4.7L52,23.1c-1.3,1.3-3.1,1.3-4.2,0l-0.8-0.8C42.7,19,37.9,17.5,33.1,17.5z"></path></svg>