<svg height='100px' width='100px'  fill="#000000" xmlns="http://www.w3.org/2000/svg" viewBox="0 0 64 64" x="0px" y="0px"><g><path d="M38,62H4a2,2,0,0,1-2-2V47a2,2,0,0,1,2-2H38a2,2,0,0,1,2,2V60A2,2,0,0,1,38,62ZM4,47V60H38V47Z"></path><rect x="6" y="48" width="2" height="2"></rect><rect x="10" y="48" width="2" height="2"></rect><rect x="14" y="48" width="2" height="2"></rect><rect x="18" y="48" width="2" height="2"></rect><rect x="22" y="48" width="2" height="2"></rect><rect x="26" y="48" width="2" height="2"></rect><rect x="30" y="48" width="2" height="2"></rect><rect x="34" y="48" width="2" height="2"></rect><rect x="6" y="51" width="2" height="2"></rect><rect x="10" y="51" width="2" height="2"></rect><rect x="14" y="51" width="2" height="2"></rect><rect x="18" y="51" width="2" height="2"></rect><rect x="22" y="51" width="2" height="2"></rect><rect x="26" y="51" width="2" height="2"></rect><rect x="30" y="51" width="2" height="2"></rect><rect x="34" y="51" width="2" height="2"></rect><rect x="6" y="54" width="2" height="2"></rect><rect x="10" y="54" width="2" height="2"></rect><rect x="14" y="54" width="2" height="2"></rect><rect x="18" y="54" width="2" height="2"></rect><rect x="22" y="54" width="2" height="2"></rect><rect x="26" y="54" width="2" height="2"></rect><rect x="30" y="54" width="2" height="2"></rect><rect x="34" y="54" width="2" height="2"></rect><rect x="6" y="57" width="2" height="2"></rect><rect x="10" y="57" width="22" height="2"></rect><rect x="34" y="57" width="2" height="2"></rect><path d="M54,47H48a3.009,3.009,0,0,0-3,3v6a6,6,0,0,0,12,0V50A3.009,3.009,0,0,0,54,47Zm-4,2h2v3H50Zm5,7a4,4,0,0,1-8,0V50a1,1,0,0,1,1-1v3a2.006,2.006,0,0,0,2,2h2a2.006,2.006,0,0,0,2-2V49a1,1,0,0,1,1,1Z"></path><path d="M39,7H3A1,1,0,0,0,2,8V32a1,1,0,0,0,1,1H15v3H10a1,1,0,0,0-1,1v4a1,1,0,0,0,1,1H32a1,1,0,0,0,1-1V37a1,1,0,0,0-1-1H27V33H39a1,1,0,0,0,1-1V8A1,1,0,0,0,39,7ZM31,38v2H11V38ZM17,36V33h8v3Zm21-5H4V9H38Z"></path><path d="M6,30H36a1,1,0,0,0,1-1V11a1,1,0,0,0-1-1H6a1,1,0,0,0-1,1V29A1,1,0,0,0,6,30ZM7,12H35V28H7Z"></path><rect x="9" y="14" width="2" height="2"></rect><rect x="9" y="18" width="4" height="2"></rect><path d="M61,4H43a1,1,0,0,0-1,1V41a1,1,0,0,0,1,1H61a1,1,0,0,0,1-1V5A1,1,0,0,0,61,4ZM60,40H44V6H60Z"></path><path d="M52,30a4,4,0,1,0,4,4A4,4,0,0,0,52,30Zm0,6a1.994,1.994,0,0,1-1-3.722V34h2V32.278A1.994,1.994,0,0,1,52,36Z"></path><path d="M58,7H46a1,1,0,0,0-1,1V20a1,1,0,0,0,1,1H58a1,1,0,0,0,1-1V8A1,1,0,0,0,58,7ZM57,19H47V17H57Zm0-4H47V13H57Zm0-4H47V9H57Z"></path></g></svg>