<svg height='100px' width='100px'  fill="#1A1A1A" xmlns="http://www.w3.org/2000/svg" xmlns:xlink="http://www.w3.org/1999/xlink" version="1.1" x="0px" y="0px" viewBox="0 0 90 90" enable-background="new 0 0 90 90" xml:space="preserve"><path d="M20.83,31.883c0,0,3.504-1.759,7.122-2.828l-2.158-1.868l-4.708,1.859L20.83,31.883z"></path><polygon points="76.273,37.492 68.818,38.234 68.818,31.442 76.273,32.188 "></polygon><path d="M26.636,51.465c-6.708,1.471-12.053,1.991-16.26,1.991c-1.537,0-2.905-0.076-4.151-0.192  c-0.807,1.687-1.579,3.475-2.28,5.373H54.91c1.703-2.721,6.055-4.655,11.171-4.655c1.05,0,2.065,0.088,3.037,0.24v-6.303  C58.805,46.248,45.231,47.382,26.636,51.465z"></path><path d="M26.287,49.882c18.64-4.091,32.342-5.253,42.832-3.606V30.101l-7.515-5.422C43.368,25.496,30.42,29.002,21.2,33.47  c-0.547,0.429-8.212,6.599-14.179,18.207C11.461,52.025,17.704,51.765,26.287,49.882z M40.095,33.654  c4.724-1.07,7.232,1.378,15.096-1.711c0,0,6.483-2.661,7.312,7.753h-9.634v-2.793H42.178v2.793H30.78  C30.78,39.696,33.667,35.112,40.095,33.654z"></path><polygon points="3.346,60.46 0.088,65.321 54.493,65.321 54.493,60.46 "></polygon><path d="M89.912,59.163c-4.222,0.696-7.438,0.269-8.673-1.175c-1.703-1.991-1.161-5.759,1.379-9.593  c3.298-4.98,4.118-8.907,2.44-11.664c-2.567-4.219-9.641-3.591-10.442-3.502l0.344,3.222c1.493-0.16,6.047-0.145,7.332,1.963  c0.94,1.547,0.098,4.456-2.375,8.19c-3.412,5.156-3.849,10.321-1.143,13.491c1.155,1.347,3.398,2.889,7.634,2.889  c1.039,0,2.214-0.107,3.504-0.318V59.163z"></path></svg>