<svg height='100px' width='100px'  fill="#1A1A1A" xmlns:x="http://ns.adobe.com/Extensibility/1.0/" xmlns:i="http://ns.adobe.com/AdobeIllustrator/10.0/" xmlns:graph="http://ns.adobe.com/Graphs/1.0/" xmlns="http://www.w3.org/2000/svg" xmlns:xlink="http://www.w3.org/1999/xlink" version="1.1" x="0px" y="0px" viewBox="0 0 100 100" style="enable-background:new 0 0 100 100;" xml:space="preserve"><g><g i:extraneous="self"><g><path d="M68.5,42.8H31.5c-1.8,0-3.3,1.5-3.3,3.3v4.5c0,1.8,1.5,3.3,3.3,3.3h1.7l13.6,41.2c1,3.1,5.3,3.1,6.3,0L66.8,54h1.7     c1.8,0,3.3-1.5,3.3-3.3v-4.5C71.8,44.3,70.3,42.8,68.5,42.8z"></path><path d="M68,39.1c-0.1-1.8-0.5-4.1-1.8-6c-1.7-2.4-4.5-3.8-8.5-4.4c-1.2-0.2-2.1-1.2-2.1-2.4c0-1.4,1.3-2.4,2.7-2.3     c2,0.3,3.8,0.7,5.4,1.4c0.1-2.6,0-6.6-2.3-9.1c-1.6-1.8-4.1-2.6-7.5-2.3c-1.4,0.1-2.6-1-2.5-2.4c0-1.2,1.1-2.2,2.3-2.3     c0.5,0,1.1,0,1.6,0c-0.3-0.8-0.8-3.8-1.8-5.8c-0.5-1-1.8-1.3-2.6-0.5c-5.3,4.4-8,8.9-9.2,11.6c2.3,0,5,0.6,7.9,1.8     c1.2,0.5,1.9,1.8,1.5,3c-0.4,1.3-1.9,2-3.2,1.4c-4.2-1.8-7.3-2-9.4-0.6c-1.8,1.2-2.7,3.7-3.1,5.8c3.8-0.8,8.8,0,15,2.6     c1.1,0.5,1.8,1.7,1.4,2.9c-0.4,1.3-1.9,2-3.2,1.5c-7.1-3-12.1-3.5-14.5-1.4c-1.9,1.7-2.1,5-1.9,7.6H68z"></path></g></g></g></svg>