<svg height='100px' width='100px'  fill="#000000" xmlns="http://www.w3.org/2000/svg" xmlns:xlink="http://www.w3.org/1999/xlink" version="1.1" x="0px" y="0px" viewBox="0 0 160 160" style="enable-background:new 0 0 160 160;" xml:space="preserve"><path d="M75.776,82.298c1.366-1.367,1.366-3.583-0.001-4.95c-3.361-3.36-7.41-5.78-11.828-7.132v-5.842c0-1.933-1.567-3.5-3.5-3.5  s-3.5,1.567-3.5,3.5v4.623c-0.471-0.023-0.944-0.035-1.419-0.035c-0.475,0-0.949,0.012-1.42,0.035v-4.623c0-1.933-1.567-3.5-3.5-3.5  s-3.5,1.567-3.5,3.5v5.842c-4.419,1.353-8.468,3.773-11.829,7.133c-5.407,5.409-8.386,12.6-8.386,20.248  c0,7.647,2.979,14.838,8.387,20.247c3.36,3.361,7.409,5.781,11.828,7.134v5.841c0,1.933,1.567,3.5,3.5,3.5s3.5-1.567,3.5-3.5v-4.622  c0.471,0.023,0.945,0.035,1.42,0.035c0.475,0,0.948-0.012,1.419-0.035v4.622c0,1.933,1.567,3.5,3.5,3.5s3.5-1.567,3.5-3.5v-5.841  c4.419-1.353,8.468-3.773,11.828-7.134c1.367-1.366,1.367-3.583,0-4.949c-1.367-1.367-3.582-1.367-4.949,0  c-4.087,4.086-9.52,6.337-15.298,6.337c-5.779,0-11.212-2.251-15.298-6.337c-4.087-4.087-6.337-9.52-6.337-15.298  s2.25-11.212,6.336-15.298c4.087-4.087,9.521-6.337,15.299-6.337s11.211,2.25,15.298,6.337  C72.193,83.665,74.409,83.666,75.776,82.298z"></path><circle cx="55.528" cy="97.597" r="5.117"></circle><path d="M151.667,77.019h-7.925V44.705c0-1.933-1.567-3.5-3.5-3.5h-7.7c0.655-2.386,0.993-4.85,0.993-7.366  c0-15.345-12.484-27.829-27.829-27.829S77.877,18.494,77.877,33.839c0,2.525,0.34,4.986,0.993,7.366h-2.716  c-1.728-13.698-13.443-24.329-27.601-24.329S22.68,27.507,20.952,41.205h-4.764c-6.262,0-11.356,5.094-11.356,11.355v90.073  c0,6.262,5.094,11.356,11.356,11.356h124.054c1.933,0,3.5-1.567,3.5-3.5v-32.891h7.925c1.933,0,3.5-1.567,3.5-3.5v-33.58  C155.167,78.586,153.6,77.019,151.667,77.019z M84.877,33.839c0-11.485,9.344-20.829,20.829-20.829s20.829,9.344,20.829,20.829  c0,2.547-0.474,5.016-1.365,7.366H86.221C85.333,38.863,84.877,36.395,84.877,33.839z M48.553,23.875  c10.29,0,18.839,7.508,20.511,17.329H28.042C29.714,31.383,38.263,23.875,48.553,23.875z M136.743,146.99H16.188  c-2.402,0-4.356-1.954-4.356-4.356V52.56c0-2.401,1.954-4.355,4.356-4.355h67.706c0.014,0,0.028,0.003,0.043,0.003  c0.008,0,0.017-0.003,0.025-0.003h52.78v28.814h-19.961c-9.351,0-16.958,7.607-16.958,16.958v6.664  c0,9.351,7.607,16.958,16.958,16.958h19.961V146.99z M148.167,110.599h-31.386c-5.491,0-9.958-4.467-9.958-9.958v-6.664  c0-5.491,4.467-9.958,9.958-9.958h31.386V110.599z"></path><path d="M120.854,88.455c-5.041,0-9.143,4.102-9.143,9.143s4.102,9.142,9.143,9.142s9.142-4.101,9.142-9.142  S125.895,88.455,120.854,88.455z M120.854,101.739c-2.284,0-4.143-1.858-4.143-4.142c0-2.284,1.858-4.143,4.143-4.143  c2.283,0,4.142,1.858,4.142,4.143C124.996,99.88,123.137,101.739,120.854,101.739z"></path></svg>