<svg height='100px' width='100px'  fill="#000000" xmlns="http://www.w3.org/2000/svg" xmlns:xlink="http://www.w3.org/1999/xlink" version="1.1" x="0px" y="0px" viewBox="0 0 160 160" style="enable-background:new 0 0 160 160;" xml:space="preserve"><g><path d="M76.303,63.931c-0.185,0.299-0.598,0.659-2.307,1.04c-0.34,0.082-0.69,0.113-1.03,0.113c-1.288,0-2.534-0.515-3.43-1.452   c-0.484-0.608-0.639-1.329-0.484-2.04c0.154-0.701,0.618-1.288,1.267-1.607c0.711-0.35,1.545-0.33,2.235,0.062l1.854,1.04   c0.433,0.237,1.689,1.216,1.978,2.256C76.437,63.54,76.406,63.756,76.303,63.931z"></path><path d="M58.235,72.367c-0.711,1.051-1.895,1.679-3.162,1.679h-3.749c-0.783,0-3.451-0.412-4.697-1.648   c-0.185-0.185-0.278-0.422-0.268-0.7c0.01-0.494,0.309-1.308,2.503-3.286c2.06-1.864,4.975-2.513,7.633-1.71   c1.102,0.463,1.906,1.339,2.235,2.441C59.059,70.245,58.874,71.419,58.235,72.367z"></path><path d="M101.066,72.388c-0.505,0.659-1.257,1.071-2.081,1.143l-4.81,0.443c-0.093,0.01-0.185,0.01-0.268,0.01   c-0.484,0-0.958-0.113-1.39-0.34l-3.245-1.71c-0.752-0.391-1.298-1.082-1.504-1.905c-0.196-0.824-0.041-1.689,0.433-2.39   l3.739-5.449c0.917-1.329,2.761-1.689,4.1-0.793l3.595,2.39c0.68,0.453,1.154,1.174,1.288,1.978l0.721,4.326   C101.776,70.904,101.57,71.739,101.066,72.388z"></path><path d="M51.833,93.928c-0.625,1.474-1.52,2.797-2.661,3.935c-1.14,1.137-2.468,2.03-3.947,2.655   c-2.943,1.243-6.338,1.276-9.316,0.129l-5.402,2.906c0.237,0.16,0.462,0.337,0.706,0.487v5.013c0,1.422,1.153,2.575,2.575,2.575   s2.575-1.153,2.575-2.575v-2.893c1.312,0.308,2.656,0.482,4.027,0.482c1.371,0,2.714-0.174,4.027-0.481v2.893   c0,1.422,1.153,2.575,2.575,2.575s2.575-1.153,2.575-2.575v-5.012c1.169-0.716,2.261-1.551,3.243-2.53   c1.612-1.608,2.879-3.483,3.764-5.57c0.321-0.757,0.568-1.535,0.774-2.323H51.95C51.91,93.721,51.876,93.826,51.833,93.928z"></path><path d="M154.876,74.232c-1.833-3.41-5.789-6.15-8.354-7.479l-18.685-8.848l-20.849-17.707c-2.544-2.153-5.758-3.338-9.095-3.338   h-72.64c-0.958,0-1.885,0.186-2.73,0.515c-0.803,0.309-1.617,0.618-2.472,0.762c-8.127,1.39-14.338,8.467-14.338,16.986v31.695   c-1.494,3.986-0.639,8.642,2.575,11.856c2.194-2.194,3.286-5.058,3.286-7.921c0-1.339-0.237-2.678-0.711-3.945V55.124   c0-4.748,2.761-8.848,6.757-10.826c0,0.082-0.01,0.165-0.01,0.258v16.739c0,1.772,0.237,3.533,0.721,5.233l3.152,11.125   l-4.985,14.946c-0.258,0.793-0.391,1.617-0.391,2.462v21.601h-0.021v4.419c0,1.138,0.922,2.06,2.06,2.06h3.111   c1.138,0,2.06-0.922,2.06-2.06v-13.988c0-2.318,1.267-4.44,3.306-5.542l21.446-11.537h38.236l4.532,2.647   c3.07,1.803,4.965,5.099,4.965,8.652v19.767c0,1.138,0.922,2.06,2.06,2.06h3.08c1.138,0,2.06-0.922,2.06-2.06v-1.36   c0.01-0.062,0.01-0.124,0.01-0.185V99.53c0-2.328,0.814-4.584,2.297-6.386l2.287-2.771h12.371c0.484,1.184,1.174,2.307,2.06,3.306   c2.421,2.73,5.223,5.088,8.323,7.015l2.74,1.71c0.742,0.453,1.597,0.7,2.462,0.7c0.433,0,0.876-0.062,1.308-0.196l5.717-1.679   c2.091-0.608,3.471-2.616,3.327-4.759V71.873c2.029,0.886,5.243,2.524,7.581,3.739C154.372,76.065,155.35,75.107,154.876,74.232z    M138.694,94.854l-2.771,0.814l-1.761-1.102c-2.513-1.555-4.759-3.492-6.747-5.675c-4.46-4.893-5.088-12.217-5.088-12.217   l-1.998,3.997c-0.402,0.814-0.701,1.648-0.907,2.493h-13.525c-1.071,0-2.091,0.474-2.781,1.308l-3.914,4.738l-10.095-5.913   c-0.556-0.329-1.185-0.494-1.823-0.494H47.162c-0.598,0-1.185,0.144-1.71,0.433L23.316,95.142v-0.082c0-0.062,0-0.123,0.02-0.175   l5.336-16.007c0.227-0.69,0.247-1.432,0.051-2.122l-2.833-9.981l2.627-0.999c2.678-1.02,4.347-3.718,4.059-6.572   c-0.185-1.772,0.525-3.502,1.895-4.635l2.833-2.338c2.184-1.803,2.905-4.872,1.751-7.468l-0.309-0.69h17.666L55.3,46.018   c-0.711,1.226-0.566,2.781,0.34,3.863l6.881,8.158c0.659,0.783,1.628,1.205,2.606,1.205c0.546,0,1.082-0.123,1.576-0.391   l4.841-2.544c1.061-0.556,2.38-0.237,3.059,0.752c0.556,0.803,1.442,1.329,2.41,1.442c0.979,0.113,1.957-0.206,2.678-0.865   l3.368-3.059c1.246-1.133,1.463-3.049,0.505-4.44l-4.203-6.067h18.531c1.627,0,3.193,0.567,4.419,1.617l2.184,1.854l1.082,13.854   c0.113,1.483,0.979,2.75,2.328,3.399c1.339,0.659,2.884,0.546,4.131-0.288c1.061-0.721,2.482-0.711,3.533,0.031l3.183,2.215   c0.711,0.494,1.545,0.742,2.379,0.742c0.628,0,1.267-0.144,1.854-0.433l3.791-1.895l11.918,4.141V94.854z"></path></g></svg>