<?xml version="1.0" encoding="utf-8"?>
<!-- Generator: Adobe Illustrator 24.2.1, SVG Export Plug-In . SVG Version: 6.00 Build 0)  -->
<svg version="1.1" id="Layer_1" xmlns="http://www.w3.org/2000/svg" xmlns:xlink="http://www.w3.org/1999/xlink" x="0px" y="0px"
	 viewBox="0 0 100 100" enable-background="new 0 0 100 100" xml:space="preserve">
<path fill-rule="evenodd" clip-rule="evenodd" d="M42.8,41.9c-3.1-3.1-4.8-5.5-6.3-8.4c-1.9-3.2-2.8-6.8-2.8-10.6
	c0-5.9,2.3-12.3,7-17.9C37.5,10.2,36,15.5,36,20.4c0,3.8,0.9,7.2,2.6,10.1c0.6-0.6,0.9-1.5,1.5-1.8c-0.1-1.1-0.2-2.2-0.2-3.3
	c0-5.7,2.1-10.6,5.6-14.4c-2,3.4-3.2,7.1-3.2,10.9c0,2,0.3,4,1.1,5.9c3,0,5.7,2.1,6,6.6c0.3,2.5-0.7,5.3-1.8,7.5
	c0.6,0.9,1.5,1.8,2.4,2.7c0.9-0.9,1.8-1.8,2.4-2.7c-1.1-2.2-2.1-5-1.8-7.5c0.3-4.5,3-6.6,6-6.6c0.7-2,1.1-3.9,1.1-5.9
	c0-3.8-1.2-7.5-3.2-10.9c3.5,3.8,5.6,8.7,5.6,14.4c0,1.1-0.1,2.2-0.2,3.3c0.6,0.3,0.9,1.2,1.5,1.8c1.7-2.9,2.6-6.4,2.6-10.1
	c0-4.8-1.5-10.2-4.7-15.4c4.8,5.7,7,12,7,17.9c0,3.8-1,7.4-2.8,10.6c-1.5,2.9-3.2,5.2-6.3,8.4L50,49.2L42.8,41.9L42.8,41.9z
	 M41.9,57.2l7.3-7.2l-7.3-7.2c-3.1-3.1-5.5-4.8-8.4-6.3c-3.2-1.9-6.8-2.8-10.6-2.8c-5.9,0-12.3,2.3-17.9,7
	c5.2-3.2,10.5-4.7,15.4-4.7c3.8,0,7.2,0.9,10.1,2.6c-0.6,0.6-1.5,0.9-1.8,1.5c-1.1-0.1-2.2-0.2-3.3-0.2c-5.7,0-10.6,2.1-14.4,5.6
	c3.4-2,7.1-3.2,10.9-3.2c2,0,4,0.3,5.9,1.1c0,3,2.1,5.7,6.6,6c2.5,0.3,5.3-0.7,7.5-1.8c0.9,0.6,1.8,1.5,2.7,2.4
	c-0.9,0.9-1.8,1.8-2.7,2.4c-2.2-1.1-5-2.1-7.5-1.8c-4.5,0.3-6.6,3-6.6,6c-2,0.7-3.9,1.1-5.9,1.1c-3.8,0-7.5-1.2-10.9-3.2
	c3.8,3.5,8.7,5.6,14.4,5.6c1.1,0,2.2-0.1,3.3-0.2c0.3,0.6,1.2,0.9,1.8,1.5c-2.9,1.7-6.4,2.6-10.1,2.6c-4.8,0-10.2-1.5-15.4-4.7
	c5.7,4.8,12,7,17.9,7c3.8,0,7.4-1,10.6-2.8C36.4,62,38.7,60.3,41.9,57.2L41.9,57.2z M28.7,40.1L28.7,40.1L28.7,40.1z M33.4,41.8
	c-1,0-2.5,0.4-2.5,1.6c0,1.7,2.1,2.8,3.6,2.8s3.2-0.6,4.7-1.6C37.7,43.1,35.5,41.8,33.4,41.8L33.4,41.8z M28.7,59.9L28.7,59.9
	L28.7,59.9z M33.4,58.2c-1,0-2.5-0.4-2.5-1.6c0-1.7,2.1-2.8,3.6-2.8s3.2,0.6,4.7,1.6C37.7,56.9,35.5,58.2,33.4,58.2L33.4,58.2z
	 M57.2,58.1c3.1,3.1,4.8,5.5,6.3,8.4c1.9,3.2,2.8,6.8,2.8,10.6c0,5.9-2.3,12.3-7,17.9c3.2-5.2,4.7-10.5,4.7-15.4
	c0-3.8-0.9-7.2-2.6-10.1c-0.6,0.6-0.9,1.5-1.5,1.8c0.1,1.1,0.2,2.2,0.2,3.3c0,5.7-2.1,10.6-5.6,14.4c2-3.4,3.2-7.1,3.2-10.9
	c0-2-0.3-4-1.1-5.9c-3,0-5.7-2.1-6-6.6c-0.3-2.5,0.7-5.3,1.8-7.5c-0.6-0.9-1.5-1.8-2.4-2.7c-0.9,0.9-1.8,1.8-2.4,2.7
	c1.1,2.2,2.1,5,1.8,7.5c-0.3,4.5-3,6.6-6,6.6c-0.7,2-1.1,3.9-1.1,5.9c0,3.8,1.2,7.5,3.2,10.9c-3.5-3.8-5.6-8.7-5.6-14.4
	c0-1.1,0.1-2.2,0.2-3.3c-0.6-0.3-0.9-1.2-1.5-1.8c-1.7,2.9-2.6,6.4-2.6,10.1c0,4.8,1.5,10.2,4.7,15.4c-4.8-5.7-7-12-7-17.9
	c0-3.8,1-7.4,2.8-10.6c1.5-2.9,3.2-5.2,6.3-8.4l7.2-7.3L57.2,58.1L57.2,58.1z M40.1,71.3L40.1,71.3L40.1,71.3z M41.8,66.6
	c0-2.1,1.3-4.2,2.8-5.8c1,1.5,1.5,3.1,1.6,4.7c0,1.5-1.1,3.6-2.8,3.6C42.1,69.1,41.8,67.6,41.8,66.6L41.8,66.6z M59.9,71.3
	L59.9,71.3L59.9,71.3z M58.2,66.6c0-2.1-1.3-4.2-2.8-5.8c-1,1.5-1.5,3.1-1.6,4.7c0,1.5,1.1,3.6,2.8,3.6
	C57.9,69.1,58.2,67.6,58.2,66.6L58.2,66.6z M58.1,42.8L50.8,50l7.3,7.2c3.1,3.1,5.5,4.8,8.4,6.3c3.2,1.9,6.8,2.8,10.6,2.8
	c5.9,0,12.3-2.3,17.9-7C89.8,62.5,84.5,64,79.6,64c-3.8,0-7.2-0.9-10.1-2.6c0.6-0.6,1.5-0.9,1.8-1.5c1.1,0.1,2.2,0.2,3.3,0.2
	c5.7,0,10.6-2.1,14.4-5.6c-3.4,2-7.1,3.2-10.9,3.2c-2,0-4-0.3-5.9-1.1c0-3-2.1-5.7-6.6-6c-2.5-0.3-5.3,0.7-7.5,1.8
	c-0.9-0.6-1.8-1.5-2.7-2.4c0.9-0.9,1.8-1.8,2.7-2.4c2.2,1.1,5,2.1,7.5,1.8c4.5-0.3,6.6-3,6.6-6c2-0.7,3.9-1.1,5.9-1.1
	c3.8,0,7.5,1.2,10.9,3.2c-3.8-3.5-8.7-5.6-14.4-5.6c-1.1,0-2.2,0.1-3.3,0.2c-0.3-0.6-1.2-0.9-1.8-1.5c2.9-1.7,6.4-2.6,10.1-2.6
	c4.8,0,10.2,1.5,15.4,4.7c-5.7-4.8-12-7-17.9-7c-3.8,0-7.4,1-10.6,2.8C63.6,38,61.3,39.7,58.1,42.8L58.1,42.8z M71.3,59.9L71.3,59.9
	L71.3,59.9z M66.6,58.2c1,0,2.5-0.4,2.5-1.6c0-1.7-2.1-2.8-3.6-2.8s-3.2,0.6-4.7,1.6C62.3,56.9,64.5,58.2,66.6,58.2L66.6,58.2z
	 M71.3,40.1L71.3,40.1L71.3,40.1z M66.6,41.8c-2.1,0-4.2,1.3-5.8,2.8c1.5,1,3.1,1.5,4.7,1.6c1.5,0,3.6-1.1,3.6-2.8
	C69.1,42.1,67.6,41.8,66.6,41.8L66.6,41.8z M59.9,28.7L59.9,28.7L59.9,28.7z M58.2,33.4c0-1-0.4-2.5-1.6-2.5c-1.7,0-2.8,2.1-2.8,3.6
	s0.6,3.2,1.6,4.7C56.9,37.7,58.2,35.5,58.2,33.4L58.2,33.4z M40.1,28.7L40.1,28.7L40.1,28.7z M41.8,33.4c0,2.1,1.3,4.2,2.8,5.8
	c1-1.5,1.5-3.1,1.6-4.7c0-1.5-1.1-3.6-2.8-3.6C42.1,30.9,41.8,32.4,41.8,33.4z"/>
</svg>
