<svg height='100px' width='100px'  fill="#000000" xmlns:x="http://ns.adobe.com/Extensibility/1.0/" xmlns:i="http://ns.adobe.com/AdobeIllustrator/10.0/" xmlns:graph="http://ns.adobe.com/Graphs/1.0/" xmlns="http://www.w3.org/2000/svg" xmlns:xlink="http://www.w3.org/1999/xlink" version="1.1" x="0px" y="0px" viewBox="0 0 100 100" style="enable-background:new 0 0 100 100;" xml:space="preserve"><g><g i:extraneous="self"><g><path d="M84.8,91h-4V51.9h3.8c1.1,0,2.2-0.6,2.8-1.5c0.6-1,0.7-2.2,0.3-3.2l-6.2-14c-0.5-1.2-1.7-2-3.1-2H21.6     c-1.3,0-2.5,0.8-3.1,2l-6.2,14c-0.5,1-0.4,2.2,0.3,3.2c0.6,1,1.7,1.5,2.8,1.5h3.8V91h-4c-1.8,0-3.2,1.4-3.2,3.2s1.4,3.2,3.2,3.2     h69.5c1.8,0,3.2-1.4,3.2-3.2S86.6,91,84.8,91z M25.7,51.9h48.7V91H63l-0.7-6.2c-0.5-4.6-4.5-8.1-9.1-8.1h-6.4     c-4.6,0-8.5,3.5-9.1,8.1L37,91H25.7V51.9z"></path><circle cx="50" cy="65.8" r="8.6"></circle><path d="M30.6,23.1c0.8,1.8,2.7,2.7,4.7,2.3L71.4,18c2.1-0.4,3.1-2.9,1.9-4.7c-2-3.1-6.3-4.6-9.1-3.9c-3.5,0.9-7.3,1.9-7.3,1.9     L45.2,3.2c-0.8-0.6-1.8-0.8-2.8-0.6c-2.3,0.5-3.5,2.9-2.5,5l3.4,7.2l-7.1,1.9l-6.3-5.2c-0.5-0.4-1.2-0.6-1.9-0.5     c-1.4,0.3-2.2,1.8-1.6,3.1L30.6,23.1z"></path></g></g></g></svg>