<svg height='100px' width='100px'  fill="#000000" xmlns="http://www.w3.org/2000/svg" xmlns:xlink="http://www.w3.org/1999/xlink" xml:space="preserve" version="1.1" style="shape-rendering:geometricPrecision;text-rendering:geometricPrecision;image-rendering:optimizeQuality;" viewBox="0 0 335 246" x="0px" y="0px" fill-rule="evenodd" clip-rule="evenodd"><defs><style type="text/css">
   
    .fil0 {fill:#000000}
   
  </style></defs><g><path class="fil0" d="M55 206c9,2 19,3 29,3 13,-25 14,-55 -13,-70l2 -4c29,16 30,48 16,74 55,1 76,-9 87,-60 3,-14 6,-27 14,-35 -61,-43 -113,-17 -158,28 -25,-4 -33,14 -24,35 -10,18 36,27 47,29zm39 -101c7,-5 15,-1 14,8 6,0 10,4 9,10 9,0 11,10 6,16l-3 -2c3,-4 1,-11 -5,-8l-3 -3c2,-6 -1,-10 -7,-8l-3 -3c3,-5 -1,-10 -6,-7l-2 -3zm129 68c21,16 46,28 71,34 1,-5 2,-9 3,-13 -35,-3 -60,-14 -78,-27 1,2 2,4 4,6zm71 39c-22,-5 -43,-15 -62,-27 17,20 40,36 66,40 -2,-5 -3,-10 -4,-13zm-94 -89c6,14 28,38 96,33 -2,-2 -3,-5 -5,-7 -26,3 -60,1 -77,-23 -4,0 -9,-2 -14,-3zm98 38c-77,5 -98,-25 -104,-39l-2 0c4,9 26,49 109,48 -1,-3 -2,-6 -3,-9zm-77 -33c16,17 45,19 67,17 -4,-7 -9,-12 -15,-18 0,0 -11,6 -52,1zm80 46c-84,2 -108,-39 -113,-50 0,0 0,1 0,1 0,1 25,58 111,65 1,-5 2,-10 2,-16zm-94 -17c-12,-11 -19,-21 -22,-26 0,0 0,1 -1,2 3,4 11,14 23,26l0 -2zm1 9c-12,-11 -21,-22 -25,-27l-1 1c1,2 9,22 29,43 1,-3 -2,-14 -3,-17zm1 21c-15,-16 -24,-31 -28,-39 -1,3 -2,6 -2,10 4,9 10,19 18,25 3,2 9,6 12,4zm71 -68c-18,4 -38,5 -57,4 28,5 46,2 57,-4zm-54 0c21,0 44,-1 64,-8 6,-6 9,-13 11,-21 -25,19 -44,25 -75,29zm-17 -3c41,-3 61,-8 94,-33 1,-7 2,-16 3,-24 -32,36 -44,52 -97,57zm-10 -4c60,-3 78,-25 97,-49 3,-3 7,-8 10,-12 2,-12 3,-24 7,-34 -11,12 -17,25 -23,37 -12,27 -29,51 -84,55 -3,1 -5,2 -7,3zm18 -8c46,-6 57,-28 69,-52 7,-16 16,-32 34,-47 -8,1 -14,2 -20,3 -15,16 -24,33 -32,49 -12,23 -21,41 -42,41 -3,2 -6,4 -9,6zm16 -12c14,-4 22,-19 31,-37 7,-14 15,-30 28,-44 -22,7 -27,22 -32,38 -5,14 -10,30 -27,43zm-91 114c10,13 24,29 39,34 5,-1 9,-3 12,-5 -19,-2 -37,-16 -49,-29l-2 0zm30 35c-13,-8 -25,-21 -34,-33 -1,0 -2,0 -3,1 8,14 20,29 37,32zm-24 -37c13,13 31,26 49,26 2,-2 4,-5 5,-8 -19,2 -38,-7 -53,-19l-1 1zm6 -3c13,11 31,19 49,16 0,-3 0,-5 -1,-8 -16,3 -33,-1 -47,-9 0,0 -1,1 -1,1zm5 -4c12,7 26,10 40,8 -7,-9 -27,-13 -37,-11 -1,1 -2,2 -3,3zm-4 -106c12,-2 25,-3 37,-3 0,-2 0,-3 -1,-5 -15,0 -33,1 -48,6 4,0 8,1 12,2zm38 2c-10,0 -20,0 -29,1 9,4 18,9 27,15 1,-6 2,-12 2,-16zm-60 -6c17,-7 38,-8 56,-9 -1,-3 -4,-5 -6,-7 -19,3 -38,8 -54,16 1,0 4,0 4,0zm-31 4c3,-4 14,-18 49,-29 -3,-1 -7,-2 -9,-3 -33,14 -43,27 -46,34 2,-1 4,-2 6,-2zm59 -27c-31,8 -46,19 -52,25 4,-1 7,-1 11,-1 16,-11 37,-17 56,-21 -5,-2 -10,-3 -15,-3zm-71 31c1,-5 9,-21 46,-38 -4,-1 -7,-4 -9,-6 -32,19 -39,37 -40,45 1,0 2,-1 3,-1zm-8 4c0,-8 6,-30 43,-52 -1,-2 -2,-5 -2,-8 -36,26 -43,52 -44,61 1,0 2,-1 3,-1zm-8 4c0,-7 4,-37 47,-68 -2,-5 -6,-6 -11,-6 -33,30 -38,63 -38,75l2 -1zm-7 4c0,-9 3,-43 34,-75 -29,13 -40,50 -39,78 2,-1 3,-2 5,-3zm17 7c6,-4 15,-1 14,8 6,0 10,5 9,11 9,-1 11,10 6,16l-4 -3c4,-4 2,-11 -4,-8l-3 -3c2,-5 -1,-10 -7,-8l-3 -3c3,-5 -1,-10 -6,-6l-2 -4zm-45 47c6,0 11,5 11,11 0,6 -5,11 -11,11 -6,0 -11,-5 -11,-11 0,-6 5,-11 11,-11zm0 -12c13,0 23,10 23,23 0,13 -10,23 -23,23 -13,0 -23,-10 -23,-23 0,-13 10,-23 23,-23zm0 4c-10,0 -19,9 -19,19 0,10 9,19 19,19 10,0 19,-9 19,-19 0,-10 -9,-19 -19,-19zm113 -23c13,16 9,39 -3,55l-3 -3c10,-13 15,-35 3,-49l3 -3zm14 59c19,0 31,6 36,13 16,19 -7,47 -31,43 -13,-1 -28,-11 -40,-35 -23,5 -52,5 -77,1 -14,-3 -61,-13 -51,-34 -9,-22 2,-43 27,-40 9,-9 18,-17 28,-24 0,-32 9,-75 45,-87 11,-4 23,-1 24,13 3,19 28,18 43,22 18,4 32,13 26,47 44,-17 53,-40 60,-61 8,-24 15,-46 79,-47 -23,22 -22,26 -25,58 -1,12 -2,24 -5,35 -7,26 -27,32 -27,32 58,63 3,62 28,105 -42,-4 -72,-28 -93,-64 6,17 5,39 -19,21 -5,-5 -12,-12 -17,-23 -2,9 -6,18 -11,25z"></path></g></svg>