<svg height='100px' width='100px'  fill="#000000" xmlns="http://www.w3.org/2000/svg" xmlns:xlink="http://www.w3.org/1999/xlink" version="1.1" x="0px" y="0px" viewBox="0 0 100 100" enable-background="new 0 0 100 100" xml:space="preserve"><path fill="#000000" d="M52.241,75.178c-0.69,0.426-1.254,0.774-2.044,1.261c1.168,0.524,1.858,0.973,1.428,2.234  c-0.164,0.481,0.483,1.238,0.718,1.774c-0.679,0.477-1.346,0.947-2.236,1.573c-0.143-0.694-0.336-1.292-0.379-1.9  c-0.126-1.801-0.163-3.609-0.301-5.409c-0.045-0.593-0.312-1.166-0.442-1.755c-0.092-0.421-0.124-0.856,0.079-1.323  C50.101,72.79,51.138,73.947,52.241,75.178z"></path><path fill="#000000" d="M47.573,65.149c0.418,0.563,0.772,1.026,1.111,1.5c0.45,0.63,0.934,1.242,1.312,1.914  c0.213,0.378,0.434,0.94,0.295,1.27c-0.118,0.28-0.745,0.347-1.376,0.599c0.272-1.515-0.263-2.083-1.418-2.388  c-0.823-0.218-1.159-0.874-0.41-1.682C47.295,66.137,47.338,65.759,47.573,65.149z"></path><path fill="#000000" d="M50.387,93.668c0.347,0.354,0.693,0.707,1.04,1.061c-0.065,0.134-0.131,0.268-0.196,0.402  c-1.852,0-3.705,0.014-5.557-0.01c-0.485-0.006-0.966-0.166-1.452-0.192c-1.106-0.058-1.233-0.218-1.034-1.563  c0.323,0.026,0.652,0.052,0.981,0.079c-0.051-0.095-0.101-0.191-0.152-0.286c0.642-0.402,1.284-0.804,1.894-1.186  c0.395,0.636,0.72,1.16,1.046,1.684c0.076-0.035,0.153-0.071,0.229-0.106c-0.094-0.437-0.187-0.875-0.281-1.312  c0.334,0.09,0.668,0.179,1.078,0.289c0-0.439,0-0.863,0-1.34c1.136-0.114,1.18,0.818,1.423,1.483  c0.204,0.557,0.281,1.16,0.415,1.743c0.149-0.014,0.298-0.028,0.447-0.041c0.042-0.234,0.085-0.469,0.127-0.703L50.387,93.668z"></path><path fill="#000000" d="M74.924,91.12c0.473,0.45,0.946,0.899,1.682,1.599c0.071-0.845,0.112-1.335,0.163-1.943  c0.967,0.813,1.886,1.587,2.806,2.361c0.094-0.096,0.187-0.192,0.281-0.288c-0.085-0.188-0.17-0.376-0.281-0.622  c1.231-0.646,1.962,0.552,3.051,0.999c-0.338,0.17-0.678,0.489-1.014,0.484c-1.967-0.026-3.95,0.002-5.895-0.248  C74.338,93.284,75.091,91.966,74.924,91.12z"></path><path fill="#000000" d="M66.298,38.152c-0.724-0.926-0.948-0.444-1.201,0.107c-0.974,2.124-2.58,3.691-4.487,4.969  c-0.385,0.258-0.866,0.375-1.395,0.369c0.37-0.226,0.74-0.453,1.11-0.679c-0.037-0.111-0.073-0.222-0.11-0.333  c-0.789,0.142-1.577,0.284-2.538,0.458c0.724,0.846,1.271,1.484,1.96,2.288c-0.69,0.162-1.227,0.296-1.768,0.413  c-1.206,0.259-1.503,1.17-0.754,2.139c0.552,0.714,1.332,1.384,0.991,2.436c-0.959-0.225-1.862-0.438-2.837-0.667  c0.101,0.624,0.187,1.159,0.332,2.056c-0.558-0.467-0.795-0.797-1.103-0.889c-0.335-0.099-0.748-0.026-1.103,0.067  c-0.199,0.052-0.439,0.462-0.506,0.425c-1.46-0.792-2.959,0.597-4.608-0.296c-1.104-0.598-2.855-0.006-4.316,0.06  c-0.358,0.016-0.751-0.03-1.064,0.103c-0.721,0.308-1.675,0.53-2.05,1.104c-1.463,2.235-1.329,4.681-0.409,7.093  c0.459,1.204,1.084,2.343,1.582,3.533c0.114,0.274,0.07,0.65,0.001,0.958c-0.53,2.346-1.086,4.685-1.625,7.029  c-0.025,0.109-0.008,0.267,0.057,0.351c1.247,1.602,0.955,3.875,2.507,5.431c0.576,0.577,0.373,1.932,0.552,3.114  c-0.576-0.475-1.024-0.844-1.473-1.214c-0.104,0.081-0.207,0.163-0.311,0.244c0.85,1.344,1.7,2.688,2.548,4.028  c-0.17,0.178-0.802,0.542-0.821,0.935c-0.024,0.492,0.363,1.092,0.734,1.5c0.99,1.089,0.851,4.096-0.485,4.98  c0.146-0.372,0.225-0.572,0.416-1.06c-0.446,0.232-0.926,0.396-0.913,0.489c0.183,1.278-0.858,1.556-1.602,1.583  c-2.356,0.086-4.724,0.015-7.08-0.118c-0.882-0.05-1.742-0.453-2.618-0.671c-1.162-0.29-2.135-0.782-2.669-1.965  c-0.126-0.281-0.624-0.394-0.823-0.509c-0.65-3.249-1.301-6.52-1.961-9.789c-0.433-2.144,0.191-4.15,1.204-5.92  c1.238-2.163,2.73-4.21,4.324-6.132c0.946-1.141,2.327-1.914,3.458-2.914c0.526-0.465,1.064-1.013,1.346-1.637  c0.636-1.406,1.028-2.812,0.855-4.485c-0.153-1.469,0.333-3.083,0.842-4.525c0.808-2.287,2.084-4.319,3.65-6.232  c1.141-1.394,1.787-3.207,2.58-4.868c0.326-0.683-0.861-3.222-1.632-3.82c-0.999-0.774-1.733-1.658-2.429-2.814  c-0.897-1.489-0.259-1.809,0.598-2.471c0.097-0.075,0.244-0.165,0.255-0.26c0.26-2.442,2.486-3.485,3.859-5.046  c1.065-1.211,2.963-1.884,4.616-2.309c1.019-0.262,2.274,0.391,3.583,0.667c0.398-0.818,0.747-1.917,1.399-2.789  c0.948-1.265,2.087-2.394,3.212-3.514c0.214-0.213,0.769-0.233,1.113-0.141c1.178,0.315,2.338,1.034,3.493,1.008  c1.384-0.031,2.857-0.464,4.109-1.088c2.082-1.038,3.983-2.407,6.358-2.821c2.841-0.494,4.808,0.915,4.587,3.402  c-0.018,0.203-0.024,0.424-0.109,0.602c-1.633,3.427-2.842,7.08-5.416,10.003c-0.707,0.803-1.355,1.514-2.596,1.259  c-0.296-0.061-0.701,0.387-1.049,0.611c-0.414,0.266-0.877,0.487-1.22,0.827c-1.019,1.011-1.517,2.204-1.166,3.682  C66.383,36.922,66.298,37.391,66.298,38.152z M36.552,78.225c-0.625-1.046-2.887-5.144-4.441-3.741  c-1.017,0.92-0.501,3.269-0.372,4.381c0.177,1.534-0.091,3.013,0.011,4.485c0.171,2.466,3.638,3.864,4.511,0.868  C36.761,82.502,35.251,79.259,36.552,78.225z M52.993,36.95c0.648,1.639,2.022,2.999,3.602,3.779  c-0.113-0.339,0.053-0.94-0.035-1.296c4.037,0.374-0.188-7.255-1.23-8.095c-0.904,0.981,0.448,2.427-0.528,3.23  c0.122,0.258,0.074,0.712,0.185,0.995c-0.228,0.022-0.536,0.214-0.779,0.231c0.206,0.306,0.212,0.786,0.443,1.09  c-0.085-0.112-1.439,0.046-1.667,0.042C52.986,36.934,52.99,36.942,52.993,36.95z"></path><path fill="#000000" d="M54.694,16.976c1.065,0.529,2.148,1.067,3.23,1.606c-0.015,0.073-0.03,0.146-0.046,0.219  c-0.749-0.189-1.507-0.349-2.245-0.572c-2.391-0.723-3.476-0.337-5.002,1.751c-0.229,0.313-0.614,0.512-0.992,0.815  c0.146,0.23,0.261,0.428,0.392,0.615c0.698,0.998,0.131,2.512-1.043,2.508c-2.11-0.008-3.382,1.157-4.578,2.69  c-0.917,1.175-2.057,2.177-3.222,3.152c0.164-1.943,0.239-3.806,1.66-5.306c1.09-1.15,1.725-2.522,0.679-4.098  c-0.041-0.062-0.063-0.166-0.044-0.237c0.986-3.776,1.814-7.606,3.049-11.299c0.49-1.467,1.726-2.825,3.647-2.94  c0.875-0.053,1.519,0.254,1.916,1.05c1.104,2.214,2.042,4.463,2.1,7.005C54.217,14.904,54.504,15.867,54.694,16.976z"></path><path fill="#000000" d="M54.378,82.104c-0.098,1.012,0.437,0.924,1.079,0.801c2.303-0.438,4.622-0.802,6.588-2.244  c0.354-0.26,0.802-0.392,1.44-0.693c0.389,3.128-1.92,4.385-3.12,5.554c1.015,1.101,2.063,2.237,3.031,3.287  c-1.074,1.593-2.102,1.896-3.369,1.754c-2.322-0.261-4.658-0.405-6.971-0.723c-0.507-0.07-1.097-0.57-1.381-1.036  c-1.127-1.847-1.585-3.857-1.211-5.775C51.845,82.703,53.044,82.419,54.378,82.104z"></path><path fill="#000000" d="M67.615,44.025c-0.051,0.175,3.729,3.632,4.114,4.117c1.255,1.58,2.317,3.317,3.111,5.174  c1.751,4.096,1.741,8.415,2.023,12.784c-2.435-1.602-1.411-6.183-2.294-8.623c-0.376-1.038-0.927-1.843-1.115-2.974  c-0.163-0.981,0.098-2.141-0.192-3.084C72.385,48.561,66.399,48.216,67.615,44.025z"></path><path fill="#000000" d="M73.247,80.719c-1.003-1.291,1.202-3.079-0.774-4.254c-0.159,0.11-0.397,0.275-0.78,0.54  c-0.514-1.679-1-3.268-1.501-4.907c2.611,0.139,2.52,0.16,3.054,2.473C73.724,76.64,73.882,78.661,73.247,80.719z"></path><path fill="#000000" d="M69.099,72.279c-1.08,1.683-2.16,3.366-3.241,5.049c-0.131-0.057-0.262-0.115-0.394-0.172  c0.216-1.072,0.17-2.314,0.723-3.167c0.553-0.854,1.706-1.319,2.596-1.955C68.889,72.115,68.994,72.197,69.099,72.279z"></path><path fill="#000000" d="M53.982,81.33c-0.274-1.346-2.191-1.45-1.365-3.286c0.754,0.8,1.458,1.516,2.096,2.287  C54.763,80.392,54.349,80.836,53.982,81.33z"></path></svg>