<svg height='100px' width='100px'  fill="#000000" xmlns="http://www.w3.org/2000/svg" xmlns:xlink="http://www.w3.org/1999/xlink" version="1.1" x="0px" y="0px" viewBox="0 0 100 100" enable-background="new 0 0 100 100" xml:space="preserve"><path d="M62.5778809,13.3783007C58.657959,9.575078,54.3063965,7.6366019,50.0002441,7.7552543  c-4.3144531-0.1176758-8.6582031,1.820312-12.578125,5.6235347c-5.894043,5.7172861-10.171875,15.234376-10.171875,22.6289063  v44.6054726c0,3.0693359,2.2241211,5.9511719,6.262207,8.1142578c4.2382813,2.2714844,9.9545898,3.5224609,16.0961914,3.5224609  h0.7832031c6.1411133,0,11.8579102-1.2509766,16.0961914-3.5224609c4.0380859-2.1630859,6.2617188-5.0449219,6.2617188-8.1142578  V36.0076942C72.7497559,28.6126766,68.4724121,19.0955868,62.5778809,13.3783007z M29.9925537,38.6944008  c1.4283447-1.4283447,3.7441406-1.4283447,5.1724854,0s1.4283447,3.7441406,0,5.1724854  c-1.4283447,1.4284058-3.7441406,1.4284058-5.1724854,0C28.5641479,42.4385414,28.5641479,40.1227455,29.9925537,38.6944008z   M44.5991211,67.1337967c-1.4283447,1.4283447-3.7442017,1.4283447-5.1725464,0  c-1.4283447-1.4284058-1.4283447-3.7442055,0-5.1725502s3.7442017-1.4283447,5.1725464,0  S46.0274658,65.7053909,44.5991211,67.1337967z M42.6758423,19.8520565c1.4284058,1.4284058,1.4284058,3.7442017,0,5.1725464  c-1.4283447,1.4283447-3.7441406,1.4283447-5.1724854,0c-1.4284058-1.4283447-1.4284058-3.7441406,0-5.1725464  C38.9317017,18.4237118,41.2474976,18.4237118,42.6758423,19.8520565z M34.2703857,80.0603104  c1.4283447-1.4283447,3.7441406-1.4283447,5.1724854,0c1.4284058,1.4283447,1.4284058,3.7442017,0,5.1725464  c-1.4283447,1.4283447-3.7441406,1.4283447-5.1724854,0S32.842041,81.4886551,34.2703857,80.0603104z M59.77771,18.4812069  c-1.4283447,1.4283447-3.7442017,1.4283447-5.1725464,0s-1.4283447-3.7442026,0-5.1725473s3.7442017-1.4283447,5.1725464,0  S61.2060547,17.0528622,59.77771,18.4812069z M54.8762207,44.1189613c1.4283447,1.4283447,1.4283447,3.7441406,0,5.1724854  s-3.7441406,1.4283447-5.1725464,0c-1.4283447-1.4283447-1.4283447-3.7441406,0-5.1724854  C51.1320801,42.6905556,53.447876,42.6905556,54.8762207,44.1189613z M60.0033569,83.5246048  c-1.4284058-1.4283447-1.4284058-3.7441406,0-5.1725464c1.4283447-1.4283447,3.7441406-1.4283447,5.1724854,0  c1.4284058,1.4284058,1.4284058,3.7442017,0,5.1725464C63.7474976,84.9529495,61.4317017,84.9529495,60.0033569,83.5246048z   M61.4291382,56.8375893c1.4284058-1.4283447,3.7442017-1.4283447,5.1725464,0c1.4283447,1.4284058,1.4283447,3.7442017,0,5.1725464  s-3.7441406,1.4283447-5.1725464,0C60.0007935,60.5817909,60.0007935,58.265995,61.4291382,56.8375893z M67.0643311,36.0870399  c-1.4283447,1.4284058-3.7442017,1.4284058-5.1725464,0c-1.4283447-1.4283447-1.4283447-3.7441406,0-5.1724834  c1.4283447-1.4283447,3.7442017-1.4283447,5.1725464,0C68.4926758,32.3428993,68.4926758,34.6586952,67.0643311,36.0870399z"></path></svg>