<svg height='100px' width='100px'  fill="#000000" xmlns="http://www.w3.org/2000/svg" xmlns:xlink="http://www.w3.org/1999/xlink" xml:space="preserve" version="1.1" style="shape-rendering:geometricPrecision;text-rendering:geometricPrecision;image-rendering:optimizeQuality;" viewBox="0 0 100 100" x="0px" y="0px" fill-rule="evenodd" clip-rule="evenodd"><defs><style type="text/css">
   
    .fil0 {fill:#000000;fill-rule:nonzero}
   
  </style></defs><g><path class="fil0" d="M85.29 20.87c3.87,3.87 6.5,9.11 6.5,14.89 0,12.76 -7.18,23.48 -15.96,31.91 -8.64,8.31 -18.82,14.4 -25.09,18.01 -0.47,0.28 -1.04,0.26 -1.49,0 -6.26,-3.61 -16.43,-9.69 -25.08,-18.01 -8.77,-8.43 -15.96,-19.15 -15.96,-31.91 0,-5.78 2.63,-11.02 6.5,-14.89 4.16,-4.16 9.79,-6.75 15.15,-6.75 3.52,0 7.04,0.64 10.25,1.95 3.05,1.24 5.81,3.09 8.03,5.56 0.55,0.61 0.5,1.56 -0.11,2.11 -0.62,0.55 -1.57,0.5 -2.12,-0.11 -1.9,-2.12 -4.28,-3.71 -6.93,-4.79 -2.82,-1.16 -5.95,-1.72 -9.12,-1.72 -4.57,0 -9.41,2.26 -13.03,5.87 -3.34,3.35 -5.62,7.85 -5.62,12.77 0,11.79 6.77,21.81 15.04,29.76 8.06,7.75 17.58,13.56 23.75,17.14 3.19,-1.85 7.27,-4.29 11.57,-7.28 -1.52,-0.23 -3.15,-0.52 -4.68,-0.96 -0.51,0.16 -1.09,0.26 -1.64,0.35l-0.63 0.11 0.27 0.5c0.18,0.34 0.36,0.68 0.73,1.45 0.35,0.75 0.08,1.26 -0.6,1.58l-0.15 0.05c-0.89,0.3 -2.87,0.07 -3,0.06l-0.09 -0.01c-0.55,-0.11 -0.9,-0.64 -0.79,-1.18 0.11,-0.53 0.62,-0.88 1.15,-0.79 0.18,0.02 0.69,0.07 1.16,0.1l-0.17 -0.31c-0.16,-0.31 -0.33,-0.62 -0.63,-1.25 -0.43,-0.89 -0.09,-1.47 0.72,-1.86 0.12,-0.05 0.25,-0.1 0.39,-0.14 -0.71,-0.42 -1.33,-0.9 -1.82,-1.46 -0.89,0.68 -1.77,1.32 -2.65,1.9 -0.45,0.31 -1.07,0.19 -1.38,-0.27 -0.3,-0.46 -0.18,-1.08 0.27,-1.38 2.75,-1.85 5.65,-4.22 8.33,-7.02 2.33,-2.43 4.5,-5.18 6.27,-8.19 0.44,-0.76 0.86,-1.48 1.24,-2.15 -0.05,-0.07 -0.1,-0.12 -0.16,-0.15 -0.23,-0.15 -0.65,-0.25 -1.42,-0.29 -0.55,-0.02 -0.97,-0.49 -0.94,-1.04 0.03,-0.55 0.5,-0.97 1.05,-0.95 1.14,0.06 1.85,0.26 2.37,0.59l0.08 0.05c0.41,-0.8 0.8,-1.59 1.13,-2.43 0.22,-0.57 0.37,-0.99 0.46,-1.36 -1.25,0.62 -2.62,0.93 -3.1,0.85 -1.77,-0.28 -2.07,-1.34 -2.4,-2.52 -0.16,-0.56 -0.33,-1.18 -0.84,-1.56 -0.51,-0.39 -1.19,-0.46 -1.8,-0.53 -1.54,-0.17 -2.8,-0.3 -2.92,-2.65 -0.04,-1.03 0.25,-2.15 0.77,-3.15 -0.64,0.11 -1.29,0.25 -1.98,0.46 -0.19,0.06 -0.39,0.12 -0.59,0.19l0.01 0.03c0.08,0.58 0.19,1.11 0.34,1.4 0.25,0.49 0.05,1.09 -0.44,1.34 -0.49,0.25 -1.09,0.05 -1.34,-0.44 -0.21,-0.4 -0.36,-0.96 -0.47,-1.57 -0.9,0.41 -1.85,0.92 -2.87,1.55 -1.69,1.03 -3.33,2.09 -5.14,3.44 -1.81,1.36 -3.81,3.04 -6.22,5.32 -0.15,0.1 -0.32,0.27 -0.45,0.4 -2.04,1.79 -4.89,4.46 -6.13,6.89 -0.25,0.49 -0.85,0.69 -1.34,0.43 -0.49,-0.25 -0.68,-0.85 -0.43,-1.34 0.57,-1.12 1.44,-2.28 2.37,-3.34 -0.33,-0.23 -0.64,-0.49 -0.94,-0.78 -1.17,-1.13 -2.16,-2.74 -2.67,-4.49 -0.53,-1.79 -0.57,-3.75 0.14,-5.55 0.35,-0.87 0.87,-1.7 1.59,-2.45 1.36,-1.41 1.84,-2.75 1.77,-3.88 -0.03,-0.67 -0.27,-1.28 -0.61,-1.78 -0.35,-0.51 -0.82,-0.93 -1.33,-1.2 -0.69,-0.38 -1.44,-0.49 -2.02,-0.24l-0.72 0.29c-1.67,0.67 -4.63,1.86 -5.6,3.86 -0.91,1.87 -0.71,2.85 -0.4,4.34 0.11,0.49 0.22,1.03 0.31,1.64 0.16,-0.2 0.31,-0.38 0.46,-0.52 0.5,-0.45 1.03,-0.58 1.58,-0.26 0.23,0.13 0.4,0.33 0.52,0.6l0.02 0.03c0.13,0.26 0.53,0.84 0.92,1.41l0.1 -0.5c0.07,-0.37 0.14,-0.73 0.26,-1.08 0.18,-0.52 0.75,-0.8 1.27,-0.62 0.52,0.18 0.8,0.75 0.62,1.27 -0.08,0.24 -0.14,0.51 -0.19,0.8l-0.01 0.04c-0.15,0.8 -0.32,1.68 -0.99,2.71 -0.17,0.3 -0.5,0.52 -0.88,0.52 -0.55,0 -1,-0.45 -1,-1.01 0,-0.19 -0.34,-0.3 -0.71,-0.83l-0.64 -0.95c-0.5,0.81 -0.99,1.89 -1.1,2.21 -0.01,0.45 -0.03,0.92 -0.07,1.42 -0.19,2.63 0.45,5.35 1.57,7.45 1.04,1.95 2.45,3.34 3.92,3.5 0.54,0.06 0.94,0.56 0.88,1.11 -0.06,0.54 -0.56,0.94 -1.1,0.88 -2.17,-0.24 -4.13,-2.04 -5.47,-4.56 -1.27,-2.41 -2,-5.52 -1.79,-8.52 0.23,-3.16 -0.14,-4.95 -0.43,-6.33 -0.39,-1.9 -0.65,-3.15 0.55,-5.62 1.31,-2.7 4.73,-4.07 6.65,-4.84l0.68 -0.28c1.17,-0.5 2.56,-0.33 3.76,0.32 0.78,0.42 1.49,1.05 2.03,1.83 0.53,0.79 0.89,1.74 0.96,2.79 0.09,1.64 -0.53,3.51 -2.33,5.38 -0.54,0.56 -0.92,1.17 -1.18,1.8 -0.53,1.36 -0.49,2.86 -0.08,4.26 0.42,1.42 1.21,2.72 2.14,3.62 0.3,0.29 0.62,0.53 0.93,0.73 1.15,-1.16 2.22,-2.12 2.84,-2.66l0.4 -0.36c2.46,-2.32 4.52,-4.04 6.4,-5.45 1.88,-1.41 3.56,-2.5 5.29,-3.56 0.34,-0.2 0.67,-0.4 1,-0.58 -0.09,-0.53 -0.17,-1.08 -0.22,-1.64 -0.07,-0.69 -0.1,-1.37 -0.1,-2.03 0,-4.3 1.29,-8.3 3.49,-11.64 3.26,-5.29 9.56,-10.12 17.74,-10.59 5.65,-0.31 11.71,2.83 15.61,6.73zm-44.74 7.06c0.23,-0.5 0.83,-0.72 1.33,-0.48 0.49,0.23 0.71,0.82 0.48,1.32 -0.25,0.53 -0.39,1.16 -0.46,1.77l0 0.02c-0.09,0.81 -0.04,1.56 0.04,2.05 0.1,0.54 -0.26,1.06 -0.8,1.16 -0.54,0.1 -1.06,-0.26 -1.16,-0.8 -0.12,-0.65 -0.17,-1.62 -0.07,-2.62l0.01 -0.03c0.08,-0.8 0.28,-1.64 0.63,-2.39zm4.8 -1.02c0.34,-0.44 0.96,-0.52 1.4,-0.18 0.43,0.33 0.51,0.96 0.18,1.4 -0.33,0.43 -0.69,1.65 -0.87,3.13 -0.14,1.22 -0.13,2.58 0.15,3.77 0.13,0.53 -0.21,1.07 -0.74,1.2 -0.54,0.13 -1.08,-0.2 -1.21,-0.74 -0.33,-1.43 -0.35,-3.03 -0.18,-4.46 0.21,-1.82 0.75,-3.44 1.27,-4.12zm-13.67 36.82c-0.47,0.27 -1.08,0.11 -1.36,-0.36 -0.27,-0.48 -0.11,-1.09 0.37,-1.37l1.76 -1.06c1.79,-1.08 2.71,-1.64 3.52,-0.86 0.67,0.65 0.41,1.84 -0.12,4.31l-0.19 0.9 0.3 -0.11c0.97,-0.36 1.97,-0.73 2.71,-0.32 0.81,0.46 1,1.39 -0.01,3.18l-0.07 0.1 0.64 -0.3c0.84,-0.34 1.72,-0.71 2.45,-0.78 1.04,-0.09 1.75,0.26 1.86,1.42 0.05,0.51 -0.11,1.08 -0.27,1.68l-0.33 1.2c0.41,0.37 0.44,1 0.06,1.41 -0.37,0.4 -1,0.43 -1.4,0.06 -0.91,-0.83 -0.57,-2.07 -0.25,-3.2l0.13 -0.5c-0.41,0.11 -0.96,0.34 -1.48,0.56 -1.19,0.49 -2.33,0.96 -3.11,0.52 -0.81,-0.45 -0.96,-1.38 0.03,-3.14 0.04,-0.08 0.09,-0.14 0.15,-0.19l-0.42 0.17c-0.75,0.28 -1.49,0.56 -2.09,0.46l-0.06 -0.01c-0.79,-0.17 -1.19,-0.65 -1.01,-1.61l0.41 -1.92c0.38,-1.74 0.81,-2.33 0.69,-2.46 -0.3,-0.28 -0.18,0.58 -1.1,1.14l-1.81 1.08zm6.02 2.87c-0.03,-0.01 -0.14,0.04 -0.3,0.12 0.24,-0.07 0.44,-0.04 0.3,-0.12zm0.42 1.78c-0.23,0.04 -0.39,0.01 -0.25,0.09 0.02,0.01 0.11,-0.02 0.25,-0.09zm13.34 -29.68c-0.03,-0.49 -0.04,-0.93 -0.04,-1.25 0,-0.55 0.45,-1 1,-1 0.55,0 1,0.45 1,1l0.01 0.52 0.17 -0.06 0.49 -0.13c0,-0.25 0,-0.55 -0.01,-0.86 -0.01,-0.5 -0.04,-0.99 -0.09,-1.27 -0.1,-0.54 0.26,-1.06 0.8,-1.16 0.54,-0.09 1.06,0.26 1.16,0.81 0.07,0.37 0.11,0.98 0.12,1.58l0.01 0.48c0.59,-0.08 1.18,-0.14 1.76,-0.16l-0.03 -0.83c0,-3.22 1.29,-6.15 3.39,-8.28l0.06 -0.06c2.14,-2.14 5.09,-3.46 8.35,-3.46 3.26,0 6.21,1.32 8.34,3.46 2.14,2.13 3.46,5.08 3.46,8.34 0,3.26 -1.32,6.21 -3.46,8.35 -2.14,2.13 -5.09,3.46 -8.34,3.46l-0.85 -0.04 -0.17 -0.01c-0.1,0.91 -0.36,1.86 -0.76,2.88l-0.17 0.43c0.15,0.08 0.27,0.1 0.44,0.13 0.2,0.03 0.43,0.08 0.71,0.15 0.53,0.14 0.85,0.68 0.71,1.22 -0.13,0.53 -0.68,0.85 -1.21,0.71l-0.56 -0.12c-0.37,-0.07 -0.65,-0.12 -0.95,-0.26 -0.26,0.52 -0.56,1.07 -0.88,1.64l-0.01 0.03 0 0 -0.01 0.02 -0.01 0.01 0 0.01 -0.01 0.02 0 0 -0.09 0.15c0.52,0.11 1.06,0.19 1.6,0.26 0.72,0.08 1.46,0.12 2.22,0.12 5.29,0 10.08,-2.14 13.54,-5.6 3.47,-3.47 5.62,-8.26 5.62,-13.56 0,-3.09 -0.74,-6 -2.03,-8.59 -0.94,-1.76 -2.16,-3.38 -3.57,-4.79 -1.81,-1.8 -3.92,-3.27 -6.15,-4.29 -2.28,-0.95 -4.78,-1.48 -7.41,-1.48 -5.29,0 -10.09,2.14 -13.55,5.6 -3.47,3.47 -5.61,8.26 -5.61,13.55 0,0.65 0.03,1.27 0.08,1.85 0.03,0.28 0.06,0.56 0.1,0.85 0.28,-0.13 0.56,-0.26 0.83,-0.37zm12.5 34.98c3.29,-2.42 6.65,-5.14 9.8,-8.16 4.46,-4.29 8.48,-9.18 11.24,-14.63 -0.14,0.15 -0.28,0.29 -0.43,0.44 -3.84,3.84 -9.13,6.2 -14.96,6.2 -0.82,0 -1.64,-0.05 -2.45,-0.14 -0.82,-0.09 -1.62,-0.24 -2.41,-0.42l-0.41 0.7c-1.85,3.15 -4.11,6.03 -6.54,8.57 -1.44,1.5 -2.94,2.88 -4.45,4.13 1.92,2.18 7.02,2.86 10.61,3.31zm-23.06 -20.79c0.42,0.02 0.98,0.07 1.45,0.35 0.74,0.45 1.1,1.18 0.4,2.4 -0.45,0.78 -0.96,0.92 -1.63,0.54l-0.13 -0.09c-0.3,-0.23 -0.48,-0.58 -0.71,-1.05l-0.35 -0.67c-0.27,-0.49 -0.09,-1.09 0.39,-1.36 0.19,-0.1 0.39,-0.14 0.58,-0.12zm11.18 9.82c-0.07,0.22 -0.19,0.4 -0.35,0.54 -0.45,0.4 -0.92,0.38 -1.39,0.07 -0.18,-0.11 -0.35,-0.28 -0.49,-0.46 -0.35,-0.44 -0.73,-1.18 -0.8,-1.34 -0.21,-0.51 0.03,-1.09 0.54,-1.3 0.17,-0.07 0.34,-0.09 0.51,-0.07l0.72 0.03c0.58,0.01 0.92,0.02 1.28,0.4 0.52,0.55 0.37,0.99 0.02,2.01l-0.04 0.12zm17.22 -16.55l0.31 0.02c2.71,0 5.16,-1.1 6.93,-2.87 1.77,-1.78 2.87,-4.23 2.87,-6.94 0,-2.7 -1.1,-5.15 -2.87,-6.93 -1.77,-1.77 -4.23,-2.87 -6.93,-2.87 -2.71,0 -5.16,1.1 -6.93,2.87l-0.06 0.06c-1.71,1.74 -2.78,4.13 -2.81,6.77 0.9,-0.14 2.06,-0.06 3.21,0.2 1.44,0.33 2.91,0.95 3.84,1.77 1.07,0.94 2.3,2.45 2.76,4.23 0.3,1.16 0.27,2.42 -0.32,3.69zm-4 -3.57c0.23,0.19 0.42,0.55 0.5,0.94 0.05,0.3 0.03,0.59 -0.12,0.81 -0.3,0.46 -0.18,1.08 0.28,1.38 0.45,0.31 1.07,0.19 1.38,-0.27 0.47,-0.7 0.56,-1.52 0.42,-2.28 -0.16,-0.84 -0.62,-1.65 -1.18,-2.11 -0.42,-0.35 -1.05,-0.3 -1.4,0.13 -0.35,0.42 -0.3,1.05 0.12,1.4z"></path></g></svg>