<svg height='100px' width='100px'  fill="#000000" xmlns="http://www.w3.org/2000/svg" xmlns:xlink="http://www.w3.org/1999/xlink" viewBox="0 0 100 100" version="1.1" x="0px" y="0px"><title>Bubble Tea</title><desc>Created with Sketch.</desc><g stroke="none" stroke-width="1" fill="none" fill-rule="evenodd"><g fill="#000000"><path d="M25.444847,32 L30.6659296,81.4202478 C30.8809341,83.4553763 32.5973381,85 34.6437924,85 L65.3562076,85 C67.4026619,85 69.1190659,83.4553763 69.3340704,81.4202478 L74.555153,32 L25.444847,32 Z M24.3336353,28 L75.6663647,28 C77.323219,28 78.6663647,29.3431458 78.6663647,31 C78.6663647,31.1052805 78.6608228,31.210488 78.6497618,31.3151858 L73.3119331,81.8404956 C72.8819241,85.9107526 69.4491161,89 65.3562076,89 L34.6437924,89 C30.5508839,89 27.1180759,85.9107526 26.6880669,81.8404956 L21.3502382,31.3151858 C21.1761659,29.6675012 22.3707647,28.1906753 24.0184494,28.016603 C24.1231472,28.005542 24.2283548,28 24.3336353,28 Z" fill-rule="nonzero"></path><circle cx="63" cy="77" r="3"></circle><circle cx="35" cy="58" r="3"></circle><circle cx="51" cy="69" r="3"></circle><circle cx="57" cy="61" r="3"></circle><circle cx="66" cy="58" r="3"></circle><circle cx="35" cy="68" r="3"></circle><circle cx="60" cy="71" r="3"></circle><circle cx="54" cy="78" r="3"></circle><circle cx="66" cy="65" r="3"></circle><circle cx="38" cy="78" r="3"></circle><path d="M47.7610473,74.4701122 L51.7610473,74.4701122 L51.7610473,15.06715 L47.7610473,15.06715 L47.7610473,74.4701122 Z M45.7610473,11.06715 L53.7610473,11.06715 C54.8656168,11.06715 55.7610473,11.9625805 55.7610473,13.06715 L55.7610473,76.4701122 C55.7610473,77.5746817 54.8656168,78.4701122 53.7610473,78.4701122 L45.7610473,78.4701122 C44.6564778,78.4701122 43.7610473,77.5746817 43.7610473,76.4701122 L43.7610473,13.06715 C43.7610473,11.9625805 44.6564778,11.06715 45.7610473,11.06715 Z" fill-rule="nonzero" transform="translate(49.761047, 44.768631) rotate(10.000000) translate(-49.761047, -44.768631) "></path><path d="M30,44 L69.0128184,44 C70.1173879,44 71.0128184,43.1045695 71.0128184,42 C71.0128184,40.8954305 70.1173879,40 69.0128184,40 L30,40 C28.8954305,40 28,40.8954305 28,42 C28,43.1045695 28.8954305,44 30,44 Z" fill-rule="nonzero"></path></g></g></svg>