<svg height='100px' width='100px'  fill="#000000" xmlns="http://www.w3.org/2000/svg" xmlns:xlink="http://www.w3.org/1999/xlink" version="1.1" x="0px" y="0px" viewBox="0 0 90 90" style="enable-background:new 0 0 90 90;" xml:space="preserve"><path d="M16.59863,82.0918h56.80273c0.55273,0,1-0.44775,1-1V45.77002c0-20.46387-5.75-37.02881-5.80762-37.19385  c-0.00397-0.01123-0.01215-0.01965-0.01648-0.03064c-0.013-0.03333-0.03326-0.06079-0.04968-0.09229  c-0.03925-0.07538-0.08374-0.14496-0.13934-0.20679c-0.02686-0.02991-0.05481-0.05554-0.08502-0.08203  c-0.0614-0.05377-0.12775-0.09772-0.20038-0.13513c-0.03351-0.01733-0.06403-0.03632-0.09967-0.04987  c-0.11151-0.04248-0.22876-0.07123-0.35278-0.07123H22.34961c-0.12402,0-0.24121,0.02875-0.35272,0.07123  c-0.03564,0.01355-0.0661,0.03247-0.09961,0.0498c-0.07269,0.03741-0.1391,0.0813-0.2005,0.13513  c-0.03021,0.02655-0.05823,0.05219-0.08508,0.08215c-0.05566,0.06189-0.10016,0.13147-0.13934,0.20685  c-0.01636,0.03137-0.03644,0.05872-0.0495,0.09198c-0.00433,0.01105-0.01263,0.01953-0.0166,0.03082  c-0.05762,0.16504-5.80762,16.72998-5.80762,37.19385V81.0918C15.59863,81.64404,16.0459,82.0918,16.59863,82.0918z   M23.34961,9.9082h43.30078v37.10059H23.34961V9.9082z M17.59863,45.77002c0-12.27625,2.10132-23.11731,3.75098-29.73743v31.9762  c0,0.55225,0.44727,1,1,1h45.30078c0.55273,0,1-0.44775,1-1V16.02692c1.64978,6.61633,3.75098,17.45502,3.75098,29.7431V80.0918  H17.59863V45.77002z"></path><path d="M47.85156,12.7041h-20.1582c-0.55273,0-1,0.44775-1,1v28.93311c0,0.55225,0.44727,1,1,1h20.1582c0.55273,0,1-0.44775,1-1  V13.7041C48.85156,13.15186,48.4043,12.7041,47.85156,12.7041z M46.85156,41.63721h-18.1582V14.7041h18.1582V41.63721z"></path><path d="M63.14355,17.11621H52.9873c-0.55273,0-1,0.44775-1,1v4.53125c0,0.55225,0.44727,1,1,1h10.15625c0.55273,0,1-0.44775,1-1  v-4.53125C64.14355,17.56396,63.69629,17.11621,63.14355,17.11621z M62.14355,21.64746H53.9873v-2.53125h8.15625V21.64746z"></path><path d="M54.80176,25.06689c-1.36621,0-2.47754,1.11133-2.47754,2.47754c0,1.36572,1.11133,2.47705,2.47754,2.47705  s2.47754-1.11133,2.47754-2.47705C57.2793,26.17822,56.16797,25.06689,54.80176,25.06689z M54.80176,28.02148  c-0.26367,0-0.47754-0.21387-0.47754-0.47705s0.21387-0.47754,0.47754-0.47754s0.47754,0.21436,0.47754,0.47754  S55.06543,28.02148,54.80176,28.02148z"></path><path d="M61.3291,25.06689c-1.36621,0-2.47754,1.11133-2.47754,2.47754c0,1.36572,1.11133,2.47705,2.47754,2.47705  s2.47754-1.11133,2.47754-2.47705C63.80664,26.17822,62.69531,25.06689,61.3291,25.06689z M61.3291,28.02148  c-0.26367,0-0.47754-0.21387-0.47754-0.47705s0.21387-0.47754,0.47754-0.47754s0.47754,0.21436,0.47754,0.47754  S61.59277,28.02148,61.3291,28.02148z"></path><path d="M54.80176,31.42529c-1.36621,0-2.47754,1.11133-2.47754,2.47754c0,1.36572,1.11133,2.47705,2.47754,2.47705  s2.47754-1.11133,2.47754-2.47705C57.2793,32.53662,56.16797,31.42529,54.80176,31.42529z M54.80176,34.37988  c-0.26367,0-0.47754-0.21387-0.47754-0.47705s0.21387-0.47754,0.47754-0.47754s0.47754,0.21436,0.47754,0.47754  S55.06543,34.37988,54.80176,34.37988z"></path><path d="M61.3291,31.42529c-1.36621,0-2.47754,1.11133-2.47754,2.47754c0,1.36572,1.11133,2.47705,2.47754,2.47705  s2.47754-1.11133,2.47754-2.47705C63.80664,32.53662,62.69531,31.42529,61.3291,31.42529z M61.3291,34.37988  c-0.26367,0-0.47754-0.21387-0.47754-0.47705s0.21387-0.47754,0.47754-0.47754s0.47754,0.21436,0.47754,0.47754  S61.59277,34.37988,61.3291,34.37988z"></path><path d="M61.58691,51.44141H28.41309c-0.55273,0-1,0.44775-1,1v5.50195c0,0.55225,0.44727,1,1,1h5.99902v18.42236  c0,0.55225,0.44727,1,1,1h19.17578c0.55273,0,1-0.44775,1-1V58.94336h5.99902c0.55273,0,1-0.44775,1-1v-5.50195  C62.58691,51.88916,62.13965,51.44141,61.58691,51.44141z M53.58789,76.36572H36.41211v-18.8208h17.17578V76.36572z   M60.58691,56.94336h-4.99902v-0.39844c0-0.55225-0.44727-1-1-1H35.41211c-0.55273,0-1,0.44775-1,1v0.39844h-4.99902v-3.50195  h31.17383V56.94336z"></path><path d="M44,68.01801v2.02936h-1.62305c-0.55273,0-1,0.44775-1,1s0.44727,1,1,1h1.63556  C44.0462,72.56909,44.4693,72.98535,45,72.98535c0.53436,0,0.96112-0.42139,0.98956-0.94818  c1.61163-0.05457,2.90887-1.37396,2.90887-2.9986c0-1.62103-1.29181-2.93793-2.89844-2.99799v-2.02985h1.62305  c0.55273,0,1-0.44775,1-1s-0.44727-1-1-1h-1.63568c-0.03394-0.52155-0.45685-0.9375-0.98737-0.9375  c-0.53418,0-0.96075,0.4212-0.98944,0.94769c-1.61169,0.0545-2.909,1.37439-2.909,2.99908  C41.10156,66.64105,42.39337,67.95795,44,68.01801z M46,68.05182c0.50195,0.05798,0.89844,0.46954,0.89844,0.98676  c0,0.51672-0.39648,0.92828-0.89844,0.98627V68.05182z M44,64.03326v1.97351c-0.50189-0.05798-0.89844-0.4696-0.89844-0.98676  S43.49811,64.09125,44,64.03326z"></path></svg>