<svg height='100px' width='100px'  fill="#000000" xmlns="http://www.w3.org/2000/svg" viewBox="0 0 64 64" x="0px" y="0px"><title>food-vegetable-chili-spicy-appetizer</title><g data-name="Layer 14"><path d="M19.081,56.546a100.648,100.648,0,0,1-6.05-33.1l.262.262A1,1,0,0,0,15,23V21a7,7,0,0,0-6-6.92V14a6.006,6.006,0,0,1,6-6V6a8.009,8.009,0,0,0-8,8v.08A7,7,0,0,0,1,21v2a1,1,0,0,0,1.707.707L3,23.414v.218A54.64,54.64,0,0,0,19.109,62.523l.184.184a1,1,0,0,0,1.647-1.049ZM8,16a5.006,5.006,0,0,1,4.981,4.567l-.274-.274a1,1,0,0,0-1.414,0L10,21.586,8.707,20.293a1,1,0,0,0-1.414,0L6,21.586,4.707,20.293a1,1,0,0,0-1.414,0l-.274.274A5.006,5.006,0,0,1,8,16ZM5,23.632v-.218l.293.293a1,1,0,0,0,1.414,0L8,22.414l1.293,1.293a1,1,0,0,0,1.414,0l.322-.322A102.677,102.677,0,0,0,17.2,57.23l.155.425A52.6,52.6,0,0,1,5,23.632Z"></path><path d="M35.081,56.546a100.648,100.648,0,0,1-6.05-33.1l.262.262A1,1,0,0,0,31,23V21a7,7,0,0,0-6-6.92V14a6.006,6.006,0,0,1,6-6V6a8.009,8.009,0,0,0-8,8v.08A7,7,0,0,0,17,21v2a1,1,0,0,0,1.707.707L19,23.414v.218A54.64,54.64,0,0,0,35.109,62.523l.184.184a1,1,0,0,0,1.647-1.049ZM24,16a5.006,5.006,0,0,1,4.981,4.567l-.274-.274a1,1,0,0,0-1.414,0L26,21.586l-1.293-1.293a1,1,0,0,0-1.414,0L22,21.586l-1.293-1.293a1,1,0,0,0-1.414,0l-.274.274A5.006,5.006,0,0,1,24,16Zm-3,7.632v-.218l.293.293a1,1,0,0,0,1.414,0L24,22.414l1.293,1.293a1,1,0,0,0,1.414,0l.322-.322A102.677,102.677,0,0,0,33.2,57.23l.155.425A52.6,52.6,0,0,1,21,23.632Z"></path><path d="M59,27h-.757a3.972,3.972,0,0,0-2.829,1.172L44.586,39H36a1,1,0,0,0-1,1v5a14,14,0,0,0,7,12.106V62a1,1,0,0,0,1,1H55a1,1,0,0,0,1-1V57.106A14,14,0,0,0,63,45V40a1,1,0,0,0-1-1H57.414l4.414-4.414A3.972,3.972,0,0,0,63,31.757V31A4,4,0,0,0,59,27ZM54,61H44V58.061a13.782,13.782,0,0,0,10,0Zm-5-4A12.013,12.013,0,0,1,37,45H61A12.013,12.013,0,0,1,49,57ZM61,43H37V41H61Zm0-11.243a1.987,1.987,0,0,1-.586,1.415L54.586,39H47.414l9.414-9.414A1.987,1.987,0,0,1,58.243,29H59a2,2,0,0,1,2,2Z"></path><path d="M40.707,32.121a1,1,0,0,1,.293.708v.342a1,1,0,0,1-.293.708l-1.414,1.414,1.414,1.414,1.414-1.414A2.978,2.978,0,0,0,43,33.171v-.342a2.978,2.978,0,0,0-.879-2.122l-.828-.828A1,1,0,0,1,41,29.171v-.342a1,1,0,0,1,.293-.708l1.414-1.414-1.414-1.414-1.414,1.414A2.978,2.978,0,0,0,39,28.829v.342a2.978,2.978,0,0,0,.879,2.122Z"></path><path d="M45.707,30.121a1,1,0,0,1,.293.708v.342a1,1,0,0,1-.293.708l-1.414,1.414,1.414,1.414,1.414-1.414A2.978,2.978,0,0,0,48,31.171v-.342a2.978,2.978,0,0,0-.879-2.122l-.828-.828A1,1,0,0,1,46,27.171v-.342a1,1,0,0,1,.293-.708l1.414-1.414-1.414-1.414-1.414,1.414A2.978,2.978,0,0,0,44,26.829v.342a2.978,2.978,0,0,0,.879,2.122Z"></path><path d="M62,1a9,9,0,0,0-8.139,5.184A7,7,0,0,0,48,3a1,1,0,0,0-1,1V8a7,7,0,0,0,6,6.92v.837a3.972,3.972,0,0,0,1.172,2.829l.242.242A1.987,1.987,0,0,1,55,20.243V21h2v-.757a3.972,3.972,0,0,0-1.172-2.829l-.242-.242A1.987,1.987,0,0,1,55,15.757v-.816A9.011,9.011,0,0,0,63,6V2A1,1,0,0,0,62,1ZM49,8V5.1A5.008,5.008,0,0,1,53,10v2.9A5.008,5.008,0,0,1,49,8ZM61,6a7.011,7.011,0,0,1-6,6.929V10a7.011,7.011,0,0,1,6-6.929Z"></path></g></svg>