<svg height='100px' width='100px'  fill="#000000" xmlns="http://www.w3.org/2000/svg" data-name="Слой 1" viewBox="0 0 100 100" x="0px" y="0px"><title>dog_Монтажная область 1</title><path d="M88.70807,71.74048a3.85706,3.85706,0,0,0-2.26587-.81616c-.80371-.02655-1.11548-.43335-1.001-1.22632.05359-.37055.01654-.75336.03974-1.12952.06024-.97735-.5246-1.34527-1.37116-1.41748a2.55281,2.55281,0,0,0-2.0639.66358A28.83283,28.83283,0,0,0,76.89624,73.78a11.36564,11.36564,0,0,1-.97449,1.38324c-.4851.55481-.93927.61578-1.18646-.2381C74.20453,73.09186,72.96423,71.6297,72.1,69.97a6.666,6.666,0,0,0-2.33887-2.67358c-1.65942-1.01642-3.34808-1.99146-5.07-2.89759-1.77014-.93151-3.58026-1.79138-5.402-2.619a1.1755,1.1755,0,0,1-.69561-1.79944,6.27961,6.27961,0,0,0,.23651-.71131,22.02154,22.02154,0,0,0,.9646-10.1939c-.225-1.4358-.67487-2.79261-.9292-4.20307-.16235-.89923-.56677-1.90918.27276-2.65912,1.07538-.96069.72132-1.99713.11152-2.873a2.794,2.794,0,0,1-.73761-2.19037,1.2299,1.2299,0,0,0-.84223-1.50605c-.97992-.18725-.94928-.85778-.95184-1.54608-.00281-.75384.03772-1.5083.07556-2.26172.06848-1.36181.18024-1.41784,1.55469-1.29882a7.08748,7.08748,0,0,0,3.5899-.23871c.08057.27.14112.49878.2168.72259a2.39375,2.39375,0,0,0,3.03583,1.68927c1.35943-.25695,1.94287-1.02118,1.76251-2.6214a11.8757,11.8757,0,0,0-.27326-2.80371,1.05365,1.05365,0,0,1,.41456-1.32159c1.24493-.9032,1.46862-2.27466,1.65936-3.65833a6.36256,6.36256,0,0,1,.063-1.098c.55822.015.90332-.57147.99109-1.2005a1.39847,1.39847,0,0,0-.40326-1.96417,1.15492,1.15492,0,0,0-1.53406.17688.82039.82039,0,0,0-.1507.10626c-.0202.01251-.038.02606-.05713.04022l-.01727.01679a.748.748,0,0,0-.28613.6347l-.04071-.03827c-1.04364.42817-1.97254-.191-2.95062-.26037a3.43441,3.43441,0,0,1-2.1037-1.14563,22.54461,22.54461,0,0,1-2.15522-2.77081,23.25532,23.25532,0,0,0-1.77862-1.73127,7.706,7.706,0,0,0-1.34912-.94629c-.25476-.06652-.506-.14465-.76038-.21246a2.86582,2.86582,0,0,1-.63385-.17712c-.68933-.18842-1.38263-.364-2.06439-.57679a12.12926,12.12926,0,0,0-2.91937-.64093,13.31275,13.31275,0,0,0-3.21344.10883,7.9999,7.9999,0,0,1-1.477.19733c-.04645.01861-.09278.03888-.13874.056a8.94066,8.94066,0,0,0-3.17218,2.1037l-.00232-.04877a7.27431,7.27431,0,0,1-1.297,1.40832.3649.3649,0,0,1-.0398.08844c-1.04993,1.34626-.98291,2.90851-.936,4.46186a1.55477,1.55477,0,0,1-.1499.8883,10.21771,10.21771,0,0,0-1.08912,8.29657,1.201,1.201,0,0,1,.04084.39447,8.68224,8.68224,0,0,1,.844,2.51221A6.14368,6.14368,0,0,1,41.17065,33.33c.14447.79126.92585,1.37487.63776,2.29663-.74634,2.38763-1.0083,4.92639-2.248,7.16082a2.65511,2.65511,0,0,0-.47222,1.01685c-.09986,2.38843-1.21961,4.47345-1.98072,6.65271a14.03208,14.03208,0,0,1-3.59356,5.64008,27.25525,27.25525,0,0,0-5.3866,6.24987,34.18208,34.18208,0,0,0-2.65643,5.39478c-.38453,1.12512-.59119,1.16327-1.58948.49023-1.89343-1.27661-2.51837-3.1972-2.69232-5.34521a17.65229,17.65229,0,0,1,1.3233-7.725A12.6375,12.6375,0,0,1,24.14484,51.377a21.84969,21.84969,0,0,1,6.61486-5.7774c.45514-.23578.95636-.53638.78083-1.12885-.1623-.54785-.71063-.624-1.24005-.64654a8.41541,8.41541,0,0,0-5.03138,1.256,21.04249,21.04249,0,0,0-6.6701,7.538,11.02,11.02,0,0,0-1.03369,2.20954,28.44741,28.44741,0,0,0-1.231,9.27514,11.68266,11.68266,0,0,0,1.96338,6.17975,14.941,14.941,0,0,0,5.8977,5.40186c-.73321,1.62512-1.415,3.1712-2.1264,4.70361-.91522,1.97168.12531,3.13941,1.38715,3.9884a4.71314,4.71314,0,0,0,2.67456.76A7.33056,7.33056,0,0,1,29.099,85.573a33.25751,33.25751,0,0,0,8.77753,2.6604,18.71725,18.71725,0,0,0,5.40167.35382,2.82877,2.82877,0,0,0,2.44208-3.39551c-.126-.65533-.916-.88275-.88215-1.592a1.52747,1.52747,0,0,1,2.066.74518c1.7544,2.7041,4.59607,3.75183,7.43451,4.78265a3.75825,3.75825,0,0,0,2.05194-.02813,2.43947,2.43947,0,0,0,1.89612-1.88031,1.49664,1.49664,0,0,0-1.198-1.99036c-.69464-.18988-.81921-1.0155-1.018-1.76331.59955,0,1.09765.00806,1.59534-.00226a10.02235,10.02235,0,0,0,1.50488-.07025,3.72091,3.72091,0,0,0,2.55316-2.72632A2.98589,2.98589,0,0,0,59.614,78.1228a15.449,15.449,0,0,0-6.78436-1.25567c-1.13928.0863-1.42914-.35089-1.32111-1.4599a1.17133,1.17133,0,0,1,.91749-1.04877,2.72719,2.72719,0,0,0,1.76983-2.43433,12.84848,12.84848,0,0,0,.00617-3.18249c-.12958-1.37647.21966-1.67621,1.611-1.48071.61853.08679,1.22235.26812,1.82959.40075,3.90832.85395,7.14044,2.71161,8.943,6.47852a8.14667,8.14667,0,0,0,1.84,2.8114c.628.54828.50818.9538-.29138,1.15143a7.116,7.116,0,0,0-3.7522,2.37658,2.31485,2.31485,0,0,0,.53009,3.56788,4.31722,4.31722,0,0,0,1.17627.57708,1.75265,1.75265,0,0,1,1.48053,2.054,1.62765,1.62765,0,0,0,.77466,1.78046,12.9737,12.9737,0,0,0,2.04492.94519,2.0934,2.0934,0,0,0,2.25958-.50562,7.24056,7.24056,0,0,0,2.13861-3.26794A6.36738,6.36738,0,0,1,76.493,82.7489a38.79683,38.79683,0,0,1,3.21655-2.90472,2.949,2.949,0,0,1,1.50068-.72449c2.22521-.31488,4.11584-1.46161,6.07434-2.444a4.59214,4.59214,0,0,0,2.10058-2.32965A1.81256,1.81256,0,0,0,88.70807,71.74048ZM58.28143,79.94617c.58057-.26331,1.16815-.52729,1.65045.16711a.33422.33422,0,0,1-.07147.4917c-.7196.42151-1.23987.10016-1.72015-.393C58.22394,80.04938,58.23822,79.96576,58.28143,79.94617Zm-.08862,1.27606a.84458.84458,0,0,1,.87427.49829c.06659.1864-.17835.257-.34638.29071-.40356.08118-.73748-.00446-.82751-.45959A.25824.25824,0,0,1,58.19281,81.22223ZM57.68542,39.7229c.50031-.11761.48707.41376.61261.73944.06891.45954-.14276.69757-.59863.68823-.22369-.00457-.53595-.00055-.50909-.34729C57.22253,40.38806,57.1839,39.84088,57.68542,39.7229Zm-.9262-2.56519a10.25913,10.25913,0,0,1-6.96064-.2893c1.27228-.69116,2.43824-.1474,3.5224-.17157C54.4325,36.67206,55.66528,36.25061,56.75922,37.15771Zm-6.63794-9.20892c.71014.76251,4.09442,2.10394,5.0581,2.25635.36994.05859.4704.53485.43555.94366-.08966,1.05805-.22424,2.11621-.23688,3.17554-.01037.871-.47937,1.06555-1.1961,1.056-.50092-.00684-1.00251-.00189-1.50287-.0238-2.32141-.10181-2.61-.24134-2.55835-2.50928C50.15717,31.23657,50.223,29.63928,50.12128,27.94879ZM65.318,30.51288a6.20322,6.20322,0,0,1-.71313-2.52765c-.68073,1.29932-.00263,2.31842-.45984,3.192-.28534-.08466-.54657-.19526-.55469-.47754-.03631-1.254-.0401-2.50892-.06177-3.76343-.00854-.49353.35682-.61243.71662-.73279.42145-.141.88086.01746.9328.38507C65.36163,27.887,66.0976,29.17944,65.318,30.51288Zm-24.31457-.93256c-.21448-.65625-.05463-1.32446-.38416-1.98211-1.292-2.5788-.08874-6.86109,1.89289-8.66761.312-.28442.53271-.69293,1.20239-.22009.39038.27557.49274-.66333.63013-1.10834.1192-.38635.60583-.78381.12945-1.17437-.44324-.36347-.93335-.16193-1.39935.09307-.51227.28034-.83032.96936-1.51917.82593a.55545.55545,0,0,1-.087-.74487,7.56418,7.56418,0,0,1,5.45239-4.4892,11.08873,11.08873,0,0,1,6.65674.4336,2.85624,2.85624,0,0,0,.89624.27972c2.57233.23456,4.17371,1.85675,5.33722,3.92249a6.52389,6.52389,0,0,0,5.80511,3.45721c1.378.07373,1.7099.54,1.66938,1.94019-.05237,1.80322-.26288,2.06073-2.04383,2.53564a9.72741,9.72741,0,0,1-1.23022.25238,3.58171,3.58171,0,0,1-2.496.08435c-1.09668-.35815-1.04975-1.42645-.67475-2.30878a1.21293,1.21293,0,0,0-.99054-.05011c-.36523.08545-.71295.24292-1.07464.34717a.879.879,0,0,0-.69922.78662c-.00263.02686.00561.04517.00506.07038a6.41611,6.41611,0,0,1,1.756,1.233c.44226.32574.99817.44616,1.44574.77148a1.61308,1.61308,0,0,1,.80371,1.74811c.0108.55933.064,1.09076-.8208,1.29736a12.27956,12.27956,0,0,1-5.7674-.29712,11.67958,11.67958,0,0,1-4.67132-2.30511,3.412,3.412,0,0,1-1.58875-3.189,3.62637,3.62637,0,0,0-.46265-2.48938c-.52581-.85528-.0733-1.84375-.274-2.75976-.094-.42926.001-.95227-.64154-.90973-.586.03882-.623.53662-.6225.98486a10.69133,10.69133,0,0,0,.15759,3.18433,17.48139,17.48139,0,0,1,.64,3.88647c.18811,2.67212,1.13214,5.24951.84021,7.99341-.13257,1.24628-.41065,2.46362-.5282,3.70874-.066.69928-.70008,1.13983-1.08673,1.66333-.87745,1.18787-1.64582,1.076-2.4574-.214a40.60921,40.60921,0,0,1-2.922-6.855C41.63824,30.7038,41.21118,30.21637,41.00342,29.58032Zm4.51947,52.62055c-1.03943.03137-2.05921.503-3.12622.01214a6.67843,6.67843,0,0,0-3.45752-.62249c-1.07233.09606-1.94654-.6648-3.20453-.992,2.09808-1.79773,4.1546-2.85229,6.76184-2.34.3031.05951.58771.22431.8913.26734.6419.09112,1.4151-.338,1.87353.4505a10.2709,10.2709,0,0,1,.7049,2.71533A.45634.45634,0,0,1,45.52289,82.20087Zm-.8905-6.63538c.44488.15137.39453.57263.39337.93927-.00135.45557-.26715.72247-.69312.66528a10.35249,10.35249,0,0,1-2.85577-.60315c.28985-.57592.519-1.04022,1.12365-1.01733A6.876,6.876,0,0,1,44.63239,75.56549Zm-.14179-2.90057c.08008.57013.51276,1.07727-.24792,1.39294-.13282.05512-.45649-.01227-.48334-.09277C43.5564,73.35687,43.85858,72.9873,44.4906,72.66492ZM56.4975,78.657c.19714-.18054.47455-.04156.68982.1001.27685.18219.17407.32416.03216.5838-.3894.71289-.76483,1.27094-1.75519.4701C56.07764,79.56348,56.14136,78.98328,56.4975,78.657Zm-1.9848,1.33155c-.39863.50354-.67218.81311-1.04145.7912-.34643-.02045-.90985-1.13062-1.25421-2.38581A4.49694,4.49694,0,0,0,54.5127,79.98859Zm-2.58558-7.13477a5.93367,5.93367,0,0,1,.55194-3.33191C52.64215,70.895,53.124,71.89948,51.92712,72.85382Zm1.92328-9.05926c0-2.33661-.00464-4.49164.00513-6.64655.0014-.30737.09991-.61426.10291-.92181a.6274.6274,0,0,0-.45136-.55341.52781.52781,0,0,0-.65833.22595c-.22454.72742-1.09112,1.21613-.71789,2.17432.9173,2.35522.34143,4.74878-.10327,7.06244-.51923,2.70129-1.154,5.38507-1.70471,8.08471a11.99613,11.99613,0,0,0,.30279,5.76233c.39057,1.387,1.47608,2.28675,2.33655,3.33954.69757.85358,1.67389,1.46613,1.652,2.81757-.01074.66211.67254,1.1756,1.27575,1.54785.32789.20227.74286.39209.40766.83563a.84422.84422,0,0,1-1.32111.14533,4.31907,4.31907,0,0,1-.94055-1.61481,4.49753,4.49753,0,0,0-1.15582-1.69775c-.19788-.16858-.48462-.2229-.62592.06665-.06543.13415-.02887.45532.06537.509a2.94367,2.94367,0,0,1,1.45691,2.45373c-1.86377-.52612-1.85162-2.67492-3.45148-3.55377.17835,1.15967,1.0036,1.77686,1.43842,2.55567-.18085.13214-.31683.27838-.35858.25512a7.42149,7.42149,0,0,1-3.87427-4.35211,22.12673,22.12673,0,0,1-1.11047-6.0907c-.01087-1.5133-.62043-2.9342-.65235-4.45361a18.24386,18.24386,0,0,1,.18073-3.37384,6.68909,6.68909,0,0,0-1.03693-5.50891c-.84729-1.09241-.80536-2.47858-.93072-3.78137-.09-.9361-.08582-1.88123-.12842-2.822a.69107.69107,0,0,0-.49457-.71912.64849.64849,0,0,0-.79.6156,17.21773,17.21773,0,0,0-.128,2.06061c-.00506.43408.09357.86841.114,1.30408.04083.86914-.47242,1.17791-1.18671.87933-2.01306-.84113-3.94171-.22284-5.85053.28992a5.91625,5.91625,0,0,0-4.36761,3.49334,5.34764,5.34764,0,0,0,3.34125-1.581c.80829-.84631,1.99493-.68817,3.01287-.8725.88636-.16046,1.933-.76318,2.74854.30444.18817.24628.40393-.112.62042-.13775a2.00962,2.00962,0,0,1,2.4693,1.66583c.13953.88886.72119,1.53851.88324,2.42963.57294,3.1488-.84,5.56732-2.5097,7.991-1.43567,2.084-3.61432,3.20758-5.493,4.737a4.40537,4.40537,0,0,1-4.50763,1.046c-1.069-.324-2.34.396-3.36634-.60242-.16626-.16174-.78906.19324-1.20794.23144-.49665.04517-1.18433-.06884-1.19873.57849-.01575.7016.73425.40638,1.15759.56055a17.3967,17.3967,0,0,0,4.81488.68311A13.3745,13.3745,0,0,1,36.62732,82.419a7.30833,7.30833,0,0,0,3.28876.70513c1.0498-.02136,1.98675.04529,2.11145,1.46668.0382.435.76117.6311.92468,1.13977.11615.36182.25207.80658-.13141,1.0224-.4411.24835-.6861-.15979-.81671-.51062a3.63857,3.63857,0,0,0-1.259-1.60974c-.20471-.15827-.47107-.13635-.84.05.27026.91339,1.55811,1.20587,1.5332,2.39819-1.0346-.21991-1.14068-1.49622-2.06787-1.76093a1.727,1.727,0,0,1-.5899-.44708c-.27838-.25622-.564-.291-.80677.00263-.28436.34381-.02215.57953.24708.7464.561.34783,1.28021.50585,1.57861,1.40063a2.6448,2.6448,0,0,1-1.83313.15527c-1.86469-.53314-3.73578-1.0542-5.56513-1.69262-.4331-.15125-1.45086.06128-1.165-1.0434.05609-.21655-.244-.21985-.39124-.19781-1.70685.25537-3.28479-.56531-4.99847-.528-2.27851.04956-3.15632-1.36481-2.37018-3.48956a13.44783,13.44783,0,0,1,2.6344-4.72956c.54736-.58172.42975-.99566-.40284-1.0968-2.23419-.27124-3.7492-1.68207-5.12359-3.22394a11.13478,11.13478,0,0,1-3.05463-7.12072A21.94357,21.94357,0,0,1,19.45654,54.188a19.24653,19.24653,0,0,1,2.08582-3.29938c-.63465,1.19257.39953,2.39587-.08954,3.54425-.42126.98914-.63239,2.03668-.99615,3.036-.93689,2.57349-.64258,5.20325-.26252,7.79309a5.46,5.46,0,0,0,1.90436,3.18231c.93646.82544,1.90289,1.61939,2.88751,2.38709.58777.45831,1.17438.29706,1.27283-.40979a21.28142,21.28142,0,0,1,1.71069-5.13043A18.09255,18.09255,0,0,1,33.12427,58.464a1.95444,1.95444,0,0,1,.81726-.396c.82879-.23181,1.81366-.369,1.40686-1.69745-.05829-.1903.28741-.51922.4704-.766a26.81166,26.81166,0,0,0,3.85632-8.5108,3.429,3.429,0,0,0,.15076-.738c.04528-.66,1.242-1.20214.86541-1.40081-1.14453-.60407-.01812-1.00763.00739-1.42817a7.60406,7.60406,0,0,1,.61365-1.96331c.20977-.59034.45111-1.1695.66-1.7602.20624-.58325.38922-1.17474.6037-1.82721.87683.22413.9154,1.13947,1.38745,1.6637,1.26508,1.405,2.24225,1.64087,3.67627.42743,1.34418-1.13745,2.68536-1.78729,4.47546-1.15912a7.6358,7.6358,0,0,0,2.99909.01624c.72333-.04212,1.08093.19195.87781.97589-.31562,1.21826-.462,2.366,1.03009,2.99725.21576.09137.35162.52283.40667.81885.44623,2.39661,1.01172,4.78363,1.25629,7.20227a16.155,16.155,0,0,1-2.157,10.11682A7.87208,7.87208,0,0,1,53.8504,63.79456Zm14.15991,9.89312A14.23432,14.23432,0,0,0,65.713,70.106c-1.33294-1.74878-3.492-2.29126-5.44439-3.067a51.54083,51.54083,0,0,0-5.787-1.45428c.439-.6388.6582-1.1623,1.54571-1.17285.625-.00739.59449-.93506.9314-1.39533.41821-.57123.54614-.84552,1.2215-.4884,3.31738,1.75342,6.81543,3.16491,9.9458,5.272,1.74109,1.172,2.0506,1.51947,3.65112,4.17-.057.27967-.233.18433-.40863.14136-.17493-.04291-.3573-.05585-.73157-.11029.98474,1.4491,1.88727,2.77722,2.97278,4.3747a2.41643,2.41643,0,0,1-1.56787-1.3443,5.87982,5.87982,0,0,0-.89221-1.20539c-.1778-.2063-.45844-.27282-.58283.05634a.45187.45187,0,0,0,.30158.59015c-.88532.6532-.71057-.86377-1.49268-.65094-.10742.86444.78968,1.46039.87073,2.55957A5.33322,5.33322,0,0,1,68.01031,73.68768ZM71.8988,77.144a4.10453,4.10453,0,0,1-1.02972-2.67065l.00348.00287C70.82953,75.43781,72.05969,75.876,71.8988,77.144Zm15.41413-2.37036a5.22524,5.22524,0,0,1-2.911,1.64472c-3.49634.354-8.8429,4.34588-10.24927,7.19641a6.19779,6.19779,0,0,0-.53552,1.39746,3.64191,3.64191,0,0,1-1.24018,2.05908c-.45416.37976-.76178,1.18024-1.52331.84271-.84094-.37268-1.77881-.73669-1.954-1.84558-.039-.24676-.00659-.50433-.03736-.753a2.10943,2.10943,0,0,0-1.62182-2.0553c-.76154-.18591-1.55255-.517-1.66773-1.33374-.12744-.9043.68171-1.43616,1.31586-1.91717a7.26266,7.26266,0,0,1,4.14606-1.03016c3.45794-.20556,5.58587-2.2384,7.27429-4.88684a29.64318,29.64318,0,0,1,4.10449-4.89209c.31531-.31756.6521-.69891,1.11743-.54785.546.17713.346.72071.35291,1.135.03766,2.23456.07013,2.2843,2.42718,2.63831a2.04521,2.04521,0,0,1,1.75586,1.18066A6.59128,6.59128,0,0,1,87.31293,74.77368Z"></path><path d="M20.27946,67.835c-.35056.2025-.59347.047-.76861-.25027-.70783-1.20117-1.24974-4.962-1.06244-7.33269a2.217,2.217,0,0,1,.55735,1.53937C18.98714,65.11364,19.08939,65.5,20.27946,67.835Z"></path><path d="M34.85237,66.07975c.08436.95824-.30646,1.33388-.98757,1.454a.31052.31052,0,0,1-.23162-.1941C33.63345,66.59786,34.2466,66.42369,34.85237,66.07975Z"></path><path d="M28.25884,70.91131c.53181-.56566.954-.80141,1.43155-.13279A1.22464,1.22464,0,0,1,28.25884,70.91131Z"></path><path d="M43.86469,48.97753a1.22955,1.22955,0,0,1,.96637-.98537A1.30429,1.30429,0,0,1,43.86469,48.97753Z"></path><path d="M46.336,54.46462c.08773-.16325.1639-.33419.26577-.48809a.46111.46111,0,0,1,.77667-.12491c.08791.07731.20587.2046.19481.29489-.03667.29966-.354.27627-.54624.39907-.25273.16141-.47228-.00938-.69806-.095Z"></path><path d="M19.10878,57.06077c.18238-.28268.23205-.76485.74847-.57257a.35552.35552,0,0,1,.15072.47657c-.23545.55967-.58619.17592-.89882.09243Z"></path><path d="M19.10915,57.0572a1.58652,1.58652,0,0,1-.32875,1.9079c-.86837-.80828.59139-1.21406.32862-1.90323Z"></path><path d="M47.66551,55.35681a1.49573,1.49573,0,0,1,.06815.30187c-.02912.29355-.03317.6089-.32327.78178-.05479.03262-.27992-.09782-.27674-.10869.08451-.285.18477-.56573.294-.84261C47.44273,55.45082,47.51811,55.43626,47.66551,55.35681Z"></path><path d="M46.32892,54.45061c.13063.61135.29715,1.58269-.18352,1.69547-.67189.15758-.31531-.53908-.141-.86009.14173-.26119.36151-.47639.33682-.81234Z"></path><path d="M49.22,78.55523c-.00829.20375-.071.39174-.26162.401-.2825.01378-.40478-.20536-.44026-.45632-.03124-.22087.13666-.30922.30926-.35126C49.20028,78.05785,49.157,78.37074,49.22,78.55523Z"></path><path d="M35.21914,65.61929c.13532-.36848.44855-.39.7475-.31745a.2667.2667,0,0,1,.1257.43158.56073.56073,0,0,1-.62107.28788A.30565.30565,0,0,1,35.21914,65.61929Z"></path><path d="M36.26609,63.10343a.31274.31274,0,0,1-.17832-.4181.28066.28066,0,0,1,.4094-.20972.388.388,0,0,1,.16205.303C36.657,62.99107,36.51053,63.10423,36.26609,63.10343Z"></path><path d="M24.94334,82.55989c.41575-.37036.75971-.19534,1.46247-.20707A1.55183,1.55183,0,0,1,24.94334,82.55989Z"></path><path d="M57.74585,18.07428c-1.90637.454-2.38156.33928-3.00263-.6698-.46713-.759-.25241-1.282.60909-1.49977a1.39533,1.39533,0,0,1,1.49408.48171,4.278,4.278,0,0,1,.54546.73278A7.39878,7.39878,0,0,1,57.74585,18.07428Z"></path><path d="M52.632,15.05671c-.185.23751-.40828.42674-.74238.28621-.16344-.06875-.374-.21486-.28858-.39251.14869-.3094.48-.28477.76685-.23017C52.51343,14.748,52.76068,14.76307,52.632,15.05671Z"></path><path d="M53.70078,13.52045a.4668.4668,0,0,1,.459.468c.00226.36009-.28968.35272-.53389.34374a.35027.35027,0,0,1-.36792-.343A.4057.4057,0,0,1,53.70078,13.52045Z"></path><path d="M51.34082,25.15246c.44833-.633.85721-.87628,1.46119-.45938A1.63326,1.63326,0,0,1,51.34082,25.15246Z"></path><path d="M66.28447,69.27211a9.22322,9.22322,0,0,0-2.50174-1.54332,2.34435,2.34435,0,0,1-1.38944-1.83111c.83574,1.42506,2.70986,1.23129,3.66379,2.46716.23559.30523.58536.508.19946.91655Z"></path><path d="M66.25654,69.28139c.88652-.15829,1.3354.32549,1.7353,1.08836-.91476-.00878-.91149-1.09907-1.69553-1.10359C66.28447,69.27211,66.25654,69.28139,66.25654,69.28139Z"></path><path d="M70.371,72.15358a.36539.36539,0,0,1-.41879.28222c-.45736-.06252-.57471-.44917-.66065-.79279-.05027-.2012.19537-.25934.3753-.2C70.02166,71.56009,70.36331,71.70565,70.371,72.15358Z"></path></svg>