<svg height='100px' width='100px'  fill="#000000" xmlns="http://www.w3.org/2000/svg" xmlns:xlink="http://www.w3.org/1999/xlink" version="1.1" x="0px" y="0px" viewBox="0 0 64 64" style="enable-background:new 0 0 64 64;" xml:space="preserve"><g><path d="M52.599,49c-0.769,1.243-2.114,2-3.599,2c-1.483,0-2.83-0.757-3.599-2H18.599c-0.769,1.243-2.114,2-3.599,2   c-1.483,0-2.83-0.757-3.599-2H3.056c0.499,4.494,4.319,8,8.944,8h40c4.625,0,8.445-3.506,8.944-8H52.599z"></path><path d="M17,61h30c1.302,0,2.402-0.839,2.816-2H14.184C14.598,60.161,15.698,61,17,61z"></path><path d="M38,27H26v8h0.401c0.769-1.243,2.114-2,3.599-2c1.483,0,2.83,0.757,3.599,2H38V27z"></path><path d="M32,19c1.483,0,2.83,0.757,3.599,2h2.24L35.604,6.104C35.335,4.306,33.818,3,32,3s-3.335,1.306-3.604,3.104L26.161,21h2.24   C29.17,19.757,30.516,19,32,19z"></path><path d="M40,23h-5.618L34,22.236C33.619,21.474,32.853,21,32,21s-1.619,0.474-2,1.236L29.618,23H24v2h16V23z"></path><path d="M32,36.236C31.619,35.474,30.853,35,30,35s-1.619,0.474-2,1.236L27.618,37H26c0,3.309,2.691,6,6,6s6-2.691,6-6h-5.618   L32,36.236z"></path><path d="M6,41h2c0-1.774,0.766-2.604,1.734-3.652C10.797,36.197,12,34.895,12,32.337s-1.203-3.861-2.266-5.013   C8.766,26.274,8,25.445,8,23.669s0.766-2.606,1.735-3.657C10.797,18.861,12,17.558,12,15h-2c0,1.776-0.766,2.605-1.734,3.655   C7.203,19.807,6,21.11,6,23.669c0,2.558,1.203,3.861,2.266,5.012C9.234,29.731,10,30.561,10,32.337   c0,1.775-0.766,2.604-1.734,3.653C7.203,37.141,6,38.443,6,41z"></path><path d="M14,44h2c0-1.774,0.766-2.604,1.734-3.652C18.797,39.197,20,37.895,20,35.337s-1.203-3.861-2.266-5.013   C16.766,29.274,16,28.445,16,26.669s0.766-2.606,1.735-3.657C18.797,21.861,20,20.558,20,18h-2c0,1.776-0.766,2.605-1.734,3.655   C15.203,22.807,14,24.11,14,26.669c0,2.558,1.203,3.861,2.266,5.012C17.234,32.731,18,33.561,18,35.337   c0,1.775-0.766,2.604-1.734,3.653C15.203,40.141,14,41.443,14,44z"></path><path d="M44,42h2c0-1.774,0.766-2.604,1.734-3.652C48.797,37.197,50,35.895,50,33.337s-1.203-3.861-2.266-5.013   C46.766,27.274,46,26.445,46,24.669s0.766-2.606,1.735-3.657C48.797,19.861,50,18.558,50,16h-2c0,1.776-0.766,2.605-1.734,3.655   C45.203,20.807,44,22.11,44,24.669c0,2.558,1.203,3.861,2.266,5.012C47.234,30.731,48,31.561,48,33.337   c0,1.775-0.766,2.604-1.734,3.653C45.203,38.141,44,39.443,44,42z"></path><path d="M52,45h2c0-1.774,0.766-2.604,1.734-3.652C56.797,40.197,58,38.895,58,36.337s-1.203-3.861-2.266-5.013   C54.766,30.274,54,29.445,54,27.669s0.766-2.606,1.735-3.657C56.797,22.861,58,21.558,58,19h-2c0,1.776-0.766,2.605-1.734,3.655   C53.203,23.807,52,25.11,52,27.669c0,2.558,1.203,3.861,2.266,5.012C55.234,33.731,56,34.561,56,36.337   c0,1.775-0.766,2.604-1.734,3.653C53.203,41.141,52,42.443,52,45z"></path></g></svg>