<?xml version="1.0" encoding="utf-8"?>
<!-- Generator: Adobe Illustrator 24.2.1, SVG Export Plug-In . SVG Version: 6.00 Build 0)  -->
<svg version="1.1" id="Layer_1" xmlns="http://www.w3.org/2000/svg" xmlns:xlink="http://www.w3.org/1999/xlink" x="0px" y="0px"
	 viewBox="0 0 100 100" enable-background="new 0 0 100 100" xml:space="preserve">
<g>
	<path fill-rule="evenodd" clip-rule="evenodd" d="M0,45.803c1.473-5.155,4.271-8.984,7.953-11.782l-6.038-2.062
		c-0.736-0.295-1.178-1.031-0.884-1.915l1.031-3.093c0.295-0.736,1.031-1.178,1.915-0.884l8.542,2.946
		c1.325-4.124,4.418-16.2,14.58-18.557c15.169-1.325,30.633-1.325,45.803,0c10.015,2.356,13.255,14.433,14.58,18.557l8.542-2.946
		c0.884-0.295,1.62,0.147,1.915,0.884l1.031,3.093c0.295,0.884-0.147,1.62-0.884,1.915L91.9,34.021
		c3.829,2.798,6.48,6.627,8.1,11.782c0,0,0,36.377,0,39.617c0,2.798-2.209,5.155-5.007,5.155h-9.426
		c-2.798,0-5.007-2.356-5.007-5.155v-4.418c-19.588-4.271-41.532-4.271-61.119,0v4.418c0,2.798-2.209,5.155-5.007,5.155H5.007
		C2.209,90.574,0,88.218,0,85.42C0,82.18,0,45.803,0,45.803z M29.013,13.844C21.944,14.433,17.084,24.448,16.2,30.928
		c22.239,4.124,45.361,4.124,67.599,0c-0.884-6.48-5.891-16.495-12.813-17.084C57.143,12.518,42.857,12.518,29.013,13.844z
		 M92.342,47.57c-4.566,0-18.409,6.186-20.177,7.364c-1.473,0.736-1.325,2.504-0.295,4.86c6.48,0,13.255,0,19.735,0
		c2.209,0,4.124-1.767,4.124-3.976c0-1.62,0-3.24,0-4.86C95.729,49.043,94.256,47.57,92.342,47.57z M7.511,47.57
		c4.713,0,18.557,6.186,20.324,7.364c1.473,0.736,1.325,2.504,0.295,4.86c-6.48,0-13.255,0-19.882,0
		c-2.062,0-3.976-1.767-3.976-3.976c0-1.62,0-3.24,0-4.86C4.271,49.043,5.744,47.57,7.511,47.57z"/>
</g>
</svg>
