<svg height='100px' width='100px'  fill="#000000" xmlns="http://www.w3.org/2000/svg" viewBox="0 0 512 512" x="0px" y="0px"><g><path d="M472,321.013V84A68,68,0,0,0,363.2,29.6l-16,12a8.005,8.005,0,0,0-1.52,1.506A56.092,56.092,0,0,0,283.663,60.3l-2.457,2.987a8.005,8.005,0,0,0-.88,1.318,30.122,30.122,0,0,0-5.022,4.739c-14.415,17.184-6.862,46.455,17.2,66.635,11.021,9.245,23.909,15.088,36.292,16.456a50.442,50.442,0,0,0,5.53.311c11,0,20.271-3.863,26.527-11.128.01-.011.021-.02.03-.03l9.01-9.827q.145-.159.282-.325a55.992,55.992,0,0,0,10.045-52.648c.073-.045.149-.083.222-.132l17.811-11.875A16.564,16.564,0,0,1,424,80.562V320H349.127a24.08,24.08,0,0,0-6.923-10.128c-.037-.134-.067-.269-.112-.4L334.5,286.7v-2.83l15.557,3.889a8,8,0,1,0,3.88-15.522L334.5,267.38V252.62l19.437-4.859a8,8,0,0,0-3.88-15.522L334.5,236.128V176a8,8,0,0,0-11.578-7.155L278.5,191.056l-44.422-22.211A8,8,0,0,0,222.5,176v59.38l-12.563-3.141a8,8,0,0,0-3.88,15.522l16.443,4.111v16.256l-16.443,4.111a8,8,0,1,0,3.88,15.522L222.5,284.62V286.7l-7.589,22.768c-.045.133-.075.268-.112.4A24.071,24.071,0,0,0,207.879,320h-9.255a24.053,24.053,0,0,0-4.711-7.95,7.991,7.991,0,0,0-.519-2.107L184,286.459V273.565a163.565,163.565,0,0,0,8-50.579v-1.8a164.381,164.381,0,0,0-2.23-26.945l-5.879-35.273a8,8,0,0,0-14.27-3.512l-19.789,26.15a51.075,51.075,0,0,0-43.664,0l-19.789-26.15a8,8,0,0,0-14.27,3.512L66.23,194.242A164.381,164.381,0,0,0,64,221.187v1.8a163.576,163.576,0,0,0,8,50.58v12.893L61.486,312.745A23.986,23.986,0,0,0,57.376,320H48a32,32,0,0,0-7.052,63.208L47,425.6A82,82,0,0,0,128.18,496H383.82A82,82,0,0,0,465,425.6l6.056-42.389a32,32,0,0,0,.948-62.2ZM352.322,64.971a40.05,40.05,0,0,1,13.461,40.335c-3.671-10.761-11.115-21.6-21.868-30.618-9.8-8.219-21.073-13.741-32.156-15.827A40.037,40.037,0,0,1,352.322,64.971Zm-21.775,71.56c-9.277-1.024-19.137-5.573-27.763-12.809-16.612-13.935-23.583-34.128-15.222-44.095,3.89-4.638,9.937-5.695,14.641-5.695a33.647,33.647,0,0,1,3.665.2c9.278,1.024,19.137,5.573,27.763,12.809,16.612,13.935,23.583,34.127,15.222,44.094C343.835,137.022,335.23,137.05,330.547,136.531ZM407.437,48a32.457,32.457,0,0,0-18.062,5.469L373.15,64.286a55.815,55.815,0,0,0-10.666-11.674c-.531-.436-1.074-.848-1.617-1.262L372.8,42.4A52,52,0,0,1,456,84V320H440V80.562A32.6,32.6,0,0,0,407.437,48ZM334.5,328a8.009,8.009,0,0,1-8,8h-40a16.019,16.019,0,0,1,16-16h24A8.009,8.009,0,0,1,334.5,328Zm-86.742-57.94a7.99,7.99,0,0,0-9.258-5.908v-8.309a7.992,7.992,0,0,0,3.437-15.6l-3.437-.859V188.944l36.422,18.211a8,8,0,0,0,7.156,0L318.5,188.944v51.184l-.443.111a8,8,0,0,0,.443,15.616v8.293a8,8,0,0,0-.443,15.613l.443.111V288a8,8,0,0,0,.411,2.53L323.4,304H302.5a31.923,31.923,0,0,0-24,10.868A31.923,31.923,0,0,0,254.5,304H233.6l4.49-13.47A8,8,0,0,0,238.5,288v-7.38l3.437-.859A8,8,0,0,0,247.761,270.06ZM230.5,336a8,8,0,1,1,0-16h24a16.019,16.019,0,0,1,16,16ZM184,328a8.009,8.009,0,0,1-8,8H136a16.019,16.019,0,0,1,16-16h24A8.009,8.009,0,0,1,184,328ZM80,221.187a148.368,148.368,0,0,1,2.012-24.314l2.823-16.94,12.786,16.894a8,8,0,0,0,10.817,1.829,35.174,35.174,0,0,1,39.124,0,8,8,0,0,0,10.817-1.829l12.786-16.894,2.823,16.94A148.368,148.368,0,0,1,176,221.187v1.8a147.616,147.616,0,0,1-7.589,46.768,8,8,0,0,0-.411,2.53V288a8,8,0,0,0,.572,2.971L173.784,304H152a31.923,31.923,0,0,0-24,10.868A31.923,31.923,0,0,0,104,304H82.216l5.212-13.028A8.007,8.007,0,0,0,88,288V272.284a8,8,0,0,0-.411-2.53A147.616,147.616,0,0,1,80,222.986ZM80,336a8,8,0,0,1,0-16h24a16.019,16.019,0,0,1,16,16Zm369.157,87.334A66,66,0,0,1,383.82,480H128.18a66,66,0,0,1-65.337-56.667L57.224,384H454.776ZM464,368H48a16,16,0,0,1,0-32h9.376A24.039,24.039,0,0,0,80,352h96a24.039,24.039,0,0,0,22.624-16h9.255A24.039,24.039,0,0,0,230.5,352h96a24.039,24.039,0,0,0,22.624-16H464a16,16,0,0,1,0,32Z"></path><path d="M323.349,99.205a8,8,0,1,0,.988,11.27A8,8,0,0,0,323.349,99.205Z"></path><circle cx="336.595" cy="120.758" r="8" transform="translate(-9.258 29.849) rotate(-5.009)"></circle><path d="M304.961,83.781a8,8,0,1,0,.988,11.27A8,8,0,0,0,304.961,83.781Z"></path><circle cx="112" cy="224" r="8"></circle><circle cx="144" cy="224" r="8"></circle><path d="M112,264a27.106,27.106,0,0,0,16-5.17A27.109,27.109,0,0,0,144,264a8,8,0,0,0,0-16,11.241,11.241,0,0,1-8-3.314l-.936-.935a8,8,0,1,0-14.129,0l-.935.936A11.241,11.241,0,0,1,112,248a8,8,0,0,0,0,16Z"></path><path d="M140.422,272.845a27.917,27.917,0,0,1-24.844,0,8,8,0,0,0-7.156,14.31,43.98,43.98,0,0,0,39.156,0,8,8,0,1,0-7.156-14.31Z"></path><circle cx="260.503" cy="222" r="10"></circle><circle cx="296.503" cy="222" r="10"></circle><path d="M266.822,254.412l4.9,6.529A11.23,11.23,0,0,1,264,264a8,8,0,0,0,0,16,27.106,27.106,0,0,0,16-5.17A27.109,27.109,0,0,0,296,280a8,8,0,0,0,0-16,11.23,11.23,0,0,1-7.719-3.059l4.9-6.529a9,9,0,0,0-7.2-14.4H274.022A9,9,0,0,0,266.822,254.412Z"></path><path d="M304,416h16a8,8,0,0,0,0-16H304a8,8,0,0,0,0,16Z"></path><path d="M352,416h32a8,8,0,0,0,0-16H352a8,8,0,0,0,0,16Z"></path><path d="M255.754,90.462a8,8,0,0,0-9.723-5.785l-15.508,3.938a8,8,0,1,0,3.938,15.508l15.508-3.938A8,8,0,0,0,255.754,90.462Z"></path><path d="M209.231,102.277a8,8,0,0,0-9.723-5.785L184,100.431a8,8,0,1,0,3.938,15.507L203.446,112A8,8,0,0,0,209.231,102.277Z"></path><path d="M152.984,108.308l-15.507,3.938a8,8,0,1,0,3.939,15.508l15.507-3.939a8,8,0,1,0-3.939-15.507Z"></path><path d="M241.838,137.7a7.968,7.968,0,0,0,3.709-.918l14.169-7.432a8,8,0,0,0-7.432-14.168l-14.169,7.432a8,8,0,0,0,3.723,15.086Z"></path><path d="M199.332,160a7.975,7.975,0,0,0,3.71-.918l14.168-7.433a8,8,0,1,0-7.433-14.168l-14.168,7.433A8,8,0,0,0,199.332,160Z"></path><path d="M264.916,168.889a8,8,0,0,0,11.251-1.2l10.056-12.445a8,8,0,0,0-12.446-10.057l-10.056,12.446A8,8,0,0,0,264.916,168.889Z"></path></g></svg>