<svg height='100px' width='100px'  fill="#000000" xmlns="http://www.w3.org/2000/svg" viewBox="0 0 32 32" x="0px" y="0px"><title>74-Cloth button</title><g data-name="74-Cloth button"><path d="M16,0A16,16,0,1,0,32,16,16,16,0,0,0,16,0Zm0,30A14,14,0,1,1,30,16,14,14,0,0,1,16,30Z"></path><path d="M16,4A12,12,0,1,0,28,16,12,12,0,0,0,16,4Zm0,22A10,10,0,1,1,26,16,10,10,0,0,1,16,26Z"></path><path d="M21,14a2,2,0,0,0-1.72,1H17V12.72a2,2,0,1,0-2,0V15H12.72a2,2,0,1,0,0,2H15v2.28a2,2,0,1,0,2,0V17h2.28A2,2,0,1,0,21,14Z"></path></g></svg>