<svg height='100px' width='100px'  fill="#000000" xmlns="http://www.w3.org/2000/svg" viewBox="0 0 64 64" x="0px" y="0px"><title>herbs-nature-plant-natural-leaf-leaves-herbs-spa-healing</title><polygon points="18.179 61.222 18.179 55.636 20.886 52.929 19.472 51.515 18.179 52.808 18.179 47.636 20.886 44.929 19.472 43.515 18.179 44.808 18.179 40.222 16.179 40.222 16.179 48.808 14.886 47.515 13.472 48.929 16.179 51.636 16.179 61.222 18.179 61.222"></polygon><polygon points="6.156 54.38 9.715 55.793 11.929 60.921 13.765 60.128 9.965 51.328 11.378 47.77 9.519 47.031 8.844 48.73 5.441 40.848 3.605 41.641 5.422 45.851 3.723 45.176 2.985 47.036 6.544 48.449 8.593 53.196 6.894 52.521 6.156 54.38"></polygon><path d="M46.009,22.442l2.309-4.084-1.613-5.813,1.927-.535L49.71,15.9l2.025-3.58-1.55-5.584L52.111,6.2l1.016,3.658,2.435-4.306,1.741.984L54.878,10.82l3.656-1.038.547,1.924-5.6,1.591-1.952,3.451,3.646-1.012.535,1.927L50.134,19.21,47.75,23.426l3.411-.947a12.061,12.061,0,0,0,8.4-14.848,4.953,4.953,0,0,0-6.1-3.449,12.075,12.075,0,0,0-8.4,14.848Z"></path><path d="M28.875,21.214v-1.2l-1.72-1.72A19.959,19.959,0,0,1,28.875,21.214Z"></path><path d="M24.242,28.875h2.946a17.857,17.857,0,0,0-5.812-2.865Z"></path><path d="M30.875,12.968l1.46-1.461,1.415,1.414L30.875,15.8v5.618l1.46-1.46,1.4,1.4a18.013,18.013,0,0,0-3.861-16.9,17.858,17.858,0,0,0-4.55,11.629c.283.3.562.6.827.909l1.263-1.263,1.46,1.461v-9.2h2Z"></path><path d="M23.044,24.458l-.845-.845H19.768A19.956,19.956,0,0,1,23.044,24.458Z"></path><path d="M17.145,33.75,15.73,32.335l1.461-1.46h-9.2v-2h4.976l-1.461-1.46L12.921,26,15.8,28.875h5.618l-1.46-1.46,1.409-1.41a18.022,18.022,0,0,0-16.908,3.87,18.032,18.032,0,0,0,22.733,1H20.019Z"></path><path d="M18.134,23.4V21.613H20.2l-6.505-6.5,1.414-1.414,3.519,3.519V15.147h2v4.066L24.6,23.185V21.12H26.58A18.014,18.014,0,0,0,11.9,11.9a17.853,17.853,0,0,0,5.006,11.44C17.315,23.35,17.725,23.364,18.134,23.4Z"></path><path d="M30.875,27.16a17.824,17.824,0,0,0,2.851-5.769l-2.851,2.851Z"></path><path d="M26.6,25.185l2.063,2.063a17.835,17.835,0,0,0-2.063-6.1Z"></path><path d="M43.083,43.132A4.641,4.641,0,0,0,47.3,47.324,4.642,4.642,0,0,0,43.083,43.132Z"></path><path d="M49.247,36.333a5.212,5.212,0,0,0-1.85,5.341,5.217,5.217,0,0,0,1.85-5.341Z"></path><path d="M50.671,49.133a5.164,5.164,0,0,0-.134,2.929,5.218,5.218,0,0,0,1.85-5.342A5.193,5.193,0,0,0,50.671,49.133Z"></path><path d="M39.714,44.461a5.161,5.161,0,0,0,.134-2.928A5.218,5.218,0,0,0,38,46.875,5.191,5.191,0,0,0,39.714,44.461Z"></path><path d="M45.354,31A14.563,14.563,0,1,0,60,45.563,14.621,14.621,0,0,0,45.354,31Zm10.214,9.62a6.6,6.6,0,0,1-1.674,4.391,7.194,7.194,0,0,1-3.434,9.442,1,1,0,0,1-1.334-.459,7.379,7.379,0,0,1-.292-.681,7.174,7.174,0,0,1-3.157,4.471,1,1,0,0,1-1.379-.3,7.143,7.143,0,0,1-1.034-5.128,7.273,7.273,0,0,1-6.607.848,1,1,0,0,1-.6-1.285,7.169,7.169,0,0,1,1.673-2.608.886.886,0,0,1-1.145-.5,7.21,7.21,0,0,1,3.337-9.665.977.977,0,0,1,.588-.071,7.136,7.136,0,0,1-.589-5.177,1,1,0,0,1,1.221-.711,7.154,7.154,0,0,1,4.816,4.14,7.189,7.189,0,0,1,3.363-3.382,1,1,0,0,1,1.335.459,7.143,7.143,0,0,1,.409,5.294,6.581,6.581,0,0,1,2.876-.666h.625a1,1,0,0,1,1,1Z"></path><path d="M49.33,45.237a4.641,4.641,0,0,0,4.219-4.192A4.64,4.64,0,0,0,49.33,45.237Z"></path><path d="M49.3,47.325c.017-.03.031-.062.048-.093l-.052,0C49.3,47.265,49.3,47.3,49.3,47.325Z"></path><path d="M42.063,41.116H42.1c-.141-.127-.276-.261-.407-.4.045.149.084.3.119.45A.979.979,0,0,1,42.063,41.116Z"></path><path d="M42.81,47.177a6.61,6.61,0,0,1-1.248-1.956,7.187,7.187,0,0,1-1.609,2.57A7.3,7.3,0,0,1,42.81,47.177Z"></path><path d="M38.438,51.592a5.281,5.281,0,0,0,5.142-2.377A5.287,5.287,0,0,0,38.438,51.592Z"></path><path d="M44.549,40.393a5.232,5.232,0,0,0-2.862-4.879,5.156,5.156,0,0,0,.7,2.841A5.209,5.209,0,0,0,44.549,40.393Z"></path><path d="M45.271,52.472a5.149,5.149,0,0,0,.206,2.929,5.212,5.212,0,0,0,1.217-5.52A5.166,5.166,0,0,0,45.271,52.472Z"></path></svg>