<svg height='100px' width='100px'  fill="#000000" xmlns="http://www.w3.org/2000/svg" xmlns:xlink="http://www.w3.org/1999/xlink" version="1.1" x="0px" y="0px" viewBox="0 0 64 64" style="enable-background:new 0 0 64 64;" xml:space="preserve"><path d="M33.896,10.149c-0.718-0.358-1.575-0.256-2.187,0.262s-0.855,1.348-0.62,2.113l1.246,4.062  C32.596,17.432,33.364,18,34.248,18h3.113c0.12,0,0.239-0.021,0.351-0.063l6.475-2.429l-0.82,7.382  c-0.041,0.364,0.121,0.721,0.422,0.931C43.96,23.939,44.16,24,44.361,24c0.153,0,0.306-0.035,0.447-0.105l4-2  c0.237-0.119,0.417-0.327,0.501-0.578l2.869-8.607l8-4c0.653-0.326,1.076-0.981,1.104-1.711c0.028-0.73-0.343-1.417-0.969-1.793  l-3.438-2.062c-0.287-0.172-0.641-0.188-0.943-0.046l-7.084,3.355l-8.11-3.311c-0.192-0.077-0.405-0.096-0.605-0.048l-4,0.934  c-0.39,0.091-0.688,0.405-0.758,0.8c-0.069,0.394,0.103,0.791,0.437,1.011l6.018,3.939l-4.458,2.112L33.896,10.149z M38.864,5.442  l1.415-0.33l6.121,2.5l-2.449,1.16L38.864,5.442z M56.306,5.133l2.979,1.787l-8.371,4.186c-0.237,0.119-0.417,0.327-0.501,0.578  l-2.869,8.607l-1.985,0.992l0.797-7.173c0.039-0.346-0.105-0.686-0.379-0.899C45.797,13.072,45.581,13,45.361,13  c-0.118,0-0.237,0.021-0.351,0.063L37.18,16h-2.932l-1.246-4.062l3.912,1.956c0.275,0.137,0.597,0.141,0.875,0.009L56.306,5.133z"></path><path d="M59,43h-1.204l-6.335-10.709c-0.019-0.032-0.04-0.062-0.062-0.092C50.835,31.448,49.938,31,49,31H7.562  c-1.379,0-2.576,0.935-2.922,2.324l-1.891,9.726C2.322,43.164,2,43.536,2,44v9c0,2.757,2.243,5,5,5h2.35c0.826,2.327,3.043,4,5.65,4  s4.824-1.673,5.65-4H29h13h3.1c0.826,2.327,3.043,4,5.65,4s4.824-1.673,5.65-4H57c2.757,0,5-2.243,5-5v-7C62,44.346,60.654,43,59,43  z M49.772,33.364l5.7,9.636H43V33h6C49.298,33,49.583,33.136,49.772,33.364z M17,43V33h11v10H17z M30,33h11v10H30V33z M6.591,33.758  C6.703,33.312,7.102,33,7.562,33H15v10H4.796L6.591,33.758z M15,60c-2.206,0-4-1.794-4-4s1.794-4,4-4s4,1.794,4,4S17.206,60,15,60z   M50.75,60c-2.206,0-4-1.794-4-4s1.794-4,4-4s4,1.794,4,4S52.956,60,50.75,60z M60,53c0,1.654-1.346,3-3,3h-0.25  c0-3.309-2.691-6-6-6s-6,2.691-6,6H43v-9h-2v9H30v-9h-2v9h-7c0-3.309-2.691-6-6-6s-6,2.691-6,6H7c-1.654,0-3-1.346-3-3v-8h53.226H59  c0.551,0,1,0.448,1,1V53z"></path><path d="M19.793,17.297l1.682,1.082c0.271-0.422,0.647-0.772,1.088-1.014l-0.961-1.754C20.87,16.013,20.245,16.596,19.793,17.297z"></path><rect x="24" y="15" width="2" height="2"></rect><path d="M33.749,23.314l-0.7,1.873c0.468,0.175,0.889,0.468,1.219,0.849l1.511-1.311C35.23,24.094,34.528,23.605,33.749,23.314z"></path><path d="M37,29.144V28c0-0.357-0.038-0.714-0.113-1.061l-1.955,0.422C34.977,27.569,35,27.784,35,28v1.144H37z"></path><rect x="29.429" y="23" width="2" height="2"></rect><rect x="28" y="15" width="2" height="2"></rect><rect x="25.429" y="23" width="2" height="2"></rect><path d="M19,20c0,0.725,0.152,1.424,0.452,2.078l1.818-0.832C21.091,20.854,21,20.435,21,20c0-0.072,0.002-0.144,0.008-0.214  l-1.995-0.145C19.004,19.761,19,19.879,19,20z"></path><path d="M23.292,24.949l0.279-1.98c-0.493-0.069-0.966-0.266-1.367-0.566l-1.2,1.6C21.674,24.505,22.465,24.833,23.292,24.949z"></path></svg>