<svg height='100px' width='100px'  fill="#000000" xmlns="http://www.w3.org/2000/svg" xmlns:xlink="http://www.w3.org/1999/xlink" version="1.1" x="0px" y="0px" viewBox="0 0 512 512" style="enable-background:new 0 0 512 512;" xml:space="preserve"><g><g><g><g><path d="M480.998,418.4c-2.108,0-3.863-1.643-3.991-3.761l-0.025-0.313c-0.008-0.116-0.011-0.232-0.008-0.349l0.014-0.483      c0.006-0.163,0.013-0.325,0.013-0.489c0-2.209,1.791-4,4-4s4,1.791,4,4v1.395c0,2.163-1.72,3.935-3.882,3.998      C481.078,418.399,481.038,418.4,480.998,418.4z"></path></g><g><path d="M421,420c-2.209,0-4-1.791-4-4V106c0-19.476,14.913-34.732,33.95-34.732c18.775,0,34.05,16.086,34.05,35.858v306.868      c0,2.209-1.791,4-4,4s-4-1.791-4-4V107.125c0-15.361-11.686-27.858-26.05-27.858C436.156,79.268,425,90.76,425,106v310      C425,418.209,423.209,420,421,420z"></path></g><g><path d="M431,470H31c-2.209,0-4-1.791-4-4V106c0-2.209,1.791-4,4-4h390c2.209,0,4,1.791,4,4v288.168      c6.318-8.223,15.731-13.519,25.95-13.519c17.84,0,32.78,14.558,34.014,33.143c0.008,0.114,0.011,0.229,0.008,0.345      c-0.304,15.171-5.744,29.171-15.319,39.421C459.748,464.161,446.021,470,431,470z M35,462h396      c26.027,0,45.336-20.111,45.97-47.849c-1.033-14.314-12.432-25.502-26.02-25.502c-13.459,0-25.103,12.37-25.956,27.575      c-0.122,2.162-1.95,3.84-4.106,3.773C418.724,419.938,417,418.165,417,416V110H35V462z"></path></g><g><path d="M206.003,467.479c-1.244,0-2.469-0.578-3.25-1.664c-1.29-1.793-0.882-4.293,0.911-5.583      C233.93,438.459,252,403.232,252,366c0-63.963-52.038-116-116-116c-41.285,0-79.788,22.226-100.484,58.003      c-1.106,1.911-3.553,2.564-5.465,1.46c-1.912-1.106-2.565-3.554-1.459-5.466C50.712,265.756,91.869,242,136,242      c68.374,0,124,55.626,124,124c0,39.799-19.314,77.454-51.665,100.727C207.628,467.235,206.812,467.479,206.003,467.479z"></path></g><g><path d="M136,440c-40.804,0-74-33.196-74-74c0-2.209,1.791-4,4-4s4,1.791,4,4c0,36.393,29.607,66,66,66s66-29.607,66-66      s-29.607-66-66-66c-2.209,0-4-1.791-4-4s1.791-4,4-4c40.804,0,74,33.196,74,74S176.804,440,136,440z"></path></g><g><path d="M136,400c-18.748,0-34-15.252-34-34s15.252-34,34-34s34,15.252,34,34S154.748,400,136,400z M136,340      c-14.336,0-26,11.663-26,26s11.664,26,26,26s26-11.663,26-26S150.336,340,136,340z"></path></g><g><path d="M311,320c-60.103,0-109-48.897-109-109c0-60.103,48.897-109,109-109c60.103,0,109,48.897,109,109      C420,271.103,371.103,320,311,320z M311,110c-55.691,0-101,45.309-101,101s45.309,101,101,101s101-45.309,101-101      S366.691,110,311,110z"></path></g><g><path d="M311,276.25c-35.979,0-65.25-29.271-65.25-65.25s29.271-65.25,65.25-65.25c21.32,0,41.34,10.453,53.552,27.961      c1.265,1.812,0.82,4.305-0.992,5.569c-1.811,1.264-4.305,0.819-5.568-0.992C347.273,162.923,329.706,153.75,311,153.75      c-31.567,0-57.25,25.682-57.25,57.25s25.683,57.25,57.25,57.25c14.443,0,28.236-5.394,38.837-15.188      c1.624-1.5,4.154-1.399,5.653,0.224s1.398,4.153-0.224,5.653C343.183,270.102,327.462,276.25,311,276.25z"></path></g><g><path d="M311,241.25c-16.68,0-30.25-13.57-30.25-30.25s13.57-30.25,30.25-30.25s30.25,13.57,30.25,30.25      S327.68,241.25,311,241.25z M311,188.75c-12.269,0-22.25,9.981-22.25,22.25s9.981,22.25,22.25,22.25s22.25-9.981,22.25-22.25      S323.269,188.75,311,188.75z"></path></g><g><path d="M55.736,211.347c-10.981,0-19.431-1.252-20.346-1.394c-2.183-0.336-3.679-2.378-3.343-4.562      c0.335-2.183,2.378-3.679,4.561-3.345c0.553,0.085,55.334,8.178,65.681-17.539c12.513-31.104,71.152-32.464,73.643-32.507      c0.023,0,0.046,0,0.07,0c2.177,0,3.959,1.745,3.997,3.93c0.039,2.208-1.72,4.03-3.929,4.069      c-0.557,0.01-55.82,1.297-66.359,27.493C101.642,207.551,74.853,211.347,55.736,211.347z"></path></g><g><path d="M96,150H66c-2.209,0-4-1.791-4-4s1.791-4,4-4h30c2.209,0,4,1.791,4,4S98.209,150,96,150z"></path></g><g><path d="M359.453,414.87c-1.979,0-4.042-0.194-6.149-0.655c-8.276-1.813-15.244-7.235-20.71-16.118      c-14.41-23.415-45.587-18.215-45.898-18.157c-2.179,0.38-4.251-1.069-4.635-3.244c-0.384-2.176,1.068-4.251,3.244-4.635      c1.497-0.266,36.875-6.15,54.102,21.843c4.27,6.938,9.498,11.137,15.543,12.481c9.731,2.164,18.754-3.661,18.843-3.721      c1.841-1.211,4.322-0.706,5.538,1.132s0.723,4.31-1.111,5.532C377.818,409.595,369.765,414.87,359.453,414.87z"></path></g><g><path d="M376,80H36c-2.209,0-4-1.791-4-4s1.791-4,4-4h340c2.209,0,4,1.791,4,4S378.209,80,376,80z"></path></g><g><path d="M376,50H36c-2.209,0-4-1.791-4-4s1.791-4,4-4h340c2.209,0,4,1.791,4,4S378.209,50,376,50z"></path></g></g></g></g></svg>