<svg height='100px' width='100px'  fill="#000000" xmlns="http://www.w3.org/2000/svg" xmlns:xlink="http://www.w3.org/1999/xlink" version="1.1" x="0px" y="0px" viewBox="0 0 11.937 29" style="enable-background:new 0 0 11.937 29;" xml:space="preserve"><g><path d="M10.992,12.552c-0.102,0.016-0.2,0.045-0.305,0.045c-0.309,0-0.617-0.074-0.896-0.214C9.429,12.2,9.068,11.98,8.721,11.769   c-0.759-0.462-1.544-0.94-2.212-0.94c-0.281,0-0.538,0.083-0.808,0.261c-0.732,0.481-1.189,0.985-1.686,1.861   C3.816,13.3,3.64,13.757,3.47,14.198c-0.106,0.274-0.211,0.544-0.319,0.792c-0.406,0.928-0.991,1.326-1.409,1.496   c-0.24,0.098-0.493,0.147-0.753,0.147c-0.104,0-0.201-0.032-0.302-0.048l-0.577,6.415c-0.022,0.252,0.063,0.511,0.232,0.697   C0.513,23.885,0.754,24,1.007,24h10.028c0.253,0,0.494-0.115,0.665-0.302c0.17-0.187,0.255-0.44,0.232-0.692L10.992,12.552z"></path><path d="M0.4,15.44c0.173,0.128,0.38,0.193,0.588,0.193c0.127,0,0.254-0.023,0.374-0.073c0.331-0.135,0.642-0.445,0.872-0.972   c0.292-0.666,0.547-1.491,0.911-2.133c0.539-0.95,1.093-1.603,2.006-2.203c0.46-0.303,0.913-0.425,1.357-0.425   c1.319,0,2.566,1.073,3.733,1.662c0.141,0.07,0.293,0.105,0.445,0.105c0.195,0,0.389-0.058,0.557-0.172   c0.297-0.202,0.46-0.549,0.427-0.907l-0.545-5.854C10.886,2.021,8.672,0,6.021,0C3.37,0,1.156,2.021,0.916,4.662l-0.912,9.894   C-0.027,14.899,0.123,15.234,0.4,15.44z"></path><path d="M4.117,28.083C4.117,28.589,4.513,29,5.019,29H7.2c0.506,0,0.917-0.411,0.917-0.917V25h-4V28.083z"></path></g></svg>