<?xml version="1.0" encoding="utf-8"?>
<!-- Generator: Adobe Illustrator 24.2.1, SVG Export Plug-In . SVG Version: 6.00 Build 0)  -->
<svg version="1.1" id="Layer_1" xmlns="http://www.w3.org/2000/svg" xmlns:xlink="http://www.w3.org/1999/xlink" x="0px" y="0px"
	 viewBox="0 0 100 100" enable-background="new 0 0 100 100" xml:space="preserve">
<g>
	<g>
		<g>
			<path d="M27.907,83.239c-12.737,0-23.099-12.624-23.099-28.142c0-15.133,21.39-47.076,22.301-48.428
				c0.357-0.53,1.239-0.53,1.596,0c0.133,0.201,13.542,20.194,19.46,36.026c0.186,0.498-0.068,1.052-0.565,1.238
				c-0.494,0.186-1.052-0.066-1.238-0.565C41.357,29.975,30.876,13.5,27.907,8.953C23.959,15.002,6.73,42.15,6.73,55.097
				c0,14.457,9.499,26.219,21.176,26.219c10.432,0,19.439-9.625,20.951-22.386c0.06-0.53,0.554-0.916,1.067-0.841
				c0.528,0.062,0.905,0.539,0.841,1.067C49.139,72.886,39.312,83.239,27.907,83.239z"/>
		</g>
		<g>
			<path d="M27.907,71.643c-8.004,0-14.515-7.897-14.515-17.603c0-2.132,0.678-4.954,2.017-8.391
				c0.193-0.494,0.753-0.74,1.245-0.547c0.494,0.193,0.74,0.749,0.546,1.245c-1.251,3.213-1.886,5.801-1.886,7.692
				c0,8.646,5.649,15.679,12.592,15.679c0.531,0,0.962,0.43,0.962,0.962C28.868,71.213,28.438,71.643,27.907,71.643z"/>
		</g>
	</g>
	<g>
		<g>
			<g>
				<path d="M57.611,93.728c-0.531,0-0.962-0.43-0.962-0.962V72.14c0-0.531,0.43-0.962,0.962-0.962s0.962,0.43,0.962,0.962v20.626
					C58.573,93.298,58.143,93.728,57.611,93.728z"/>
			</g>
		</g>
		<g>
			<g>
				<g>
					<g>
						<path d="M74.778,70.238c-2.041,0-3.914-0.67-5.292-2.049l-3.844-3.842c-3.27-3.271-2.552-9.326,1.634-13.783
							c0.332-0.355,0.702-0.732,1.106-1.138C78.384,39.424,93.549,38.669,94.189,38.64c0.308-0.017,0.531,0.092,0.721,0.282
							c0.19,0.19,0.293,0.453,0.282,0.721c-0.028,0.64-0.785,15.805-10.785,25.804c-0.402,0.404-0.781,0.772-1.138,1.108
							C80.688,68.978,77.576,70.238,74.778,70.238z M93.181,40.652c-3.625,0.372-15.467,2.162-23.438,10.132
							c-0.387,0.389-0.742,0.751-1.065,1.097c-3.472,3.696-4.209,8.573-1.677,11.107l3.844,3.842
							c2.533,2.532,7.409,1.797,11.107-1.675c0.34-0.321,0.704-0.674,1.093-1.065C91.015,56.119,92.809,44.276,93.181,40.652z"/>
					</g>
					<g>
						<path d="M57.611,73.102c-0.118,0-0.237-0.021-0.353-0.068c-0.494-0.195-0.736-0.753-0.541-1.247
							c1.187-3.005,5.221-5.365,8.601-6.575c2.793-0.995,5.21-2.344,7.185-4.004c3.172-2.669,7.165-6.699,8.166-10.735
							c0.128-0.513,0.646-0.83,1.164-0.702c0.516,0.128,0.83,0.65,0.702,1.164c-1.125,4.539-5.403,8.892-8.795,11.745
							c-2.152,1.809-4.768,3.27-7.777,4.342c-3.071,1.099-6.567,3.217-7.459,5.471C58.357,72.871,57.994,73.102,57.611,73.102z"/>
					</g>
				</g>
				<g>
					<g>
						<path d="M47.566,60.534c-2.011,0-4.239-0.9-6.079-2.629c-0.248-0.233-0.513-0.49-0.794-0.772
							c-7.001-7.001-7.531-17.61-7.551-18.057c-0.011-0.269,0.092-0.531,0.282-0.721s0.456-0.299,0.721-0.282
							c0.447,0.021,11.056,0.55,18.057,7.551c0.282,0.282,0.537,0.545,0.772,0.793c3.01,3.204,3.502,7.576,1.125,9.953l-2.659,2.659
							C50.426,60.042,49.055,60.534,47.566,60.534z M35.163,40.096c0.331,2.825,1.681,10.47,6.889,15.678
							c0.267,0.267,0.516,0.509,0.751,0.731c2.398,2.254,5.664,2.778,7.275,1.166l2.659-2.659c1.611-1.611,1.089-4.875-1.164-7.274
							c-0.222-0.235-0.466-0.486-0.732-0.753C45.622,41.765,37.988,40.423,35.163,40.096z"/>
					</g>
				</g>
				<g>
					<path d="M57.613,73.102c-0.088,0-0.177-0.013-0.263-0.038c-0.511-0.145-0.808-0.676-0.665-1.187
						c0.109-0.383,2.475-9.152-4.851-13.929c-0.09-0.024-0.178-0.064-0.261-0.116c-0.338-0.214-8.284-5.313-9.664-10.881
						c-0.128-0.515,0.186-1.037,0.702-1.164c0.516-0.128,1.037,0.188,1.164,0.702c0.993,4.008,6.383,8.036,8.218,9.309
						c9.61,5.397,6.573,16.495,6.541,16.605C58.415,72.826,58.03,73.102,57.613,73.102z"/>
				</g>
			</g>
		</g>
	</g>
</g>
</svg>
