<svg height='100px' width='100px'  fill="#000000" xmlns="http://www.w3.org/2000/svg" xmlns:xlink="http://www.w3.org/1999/xlink" version="1.1" x="0px" y="0px" viewBox="0 0 100 100" enable-background="new 0 0 100 100" xml:space="preserve"><g><path fill="#000000" d="M45.9,57.9c0-0.1,0-0.2,0-0.3c-0.6,0.3-1,0.6-1.3,0.7c-0.7,0.4-1.5,0.8-2.2,1.1c-0.2,0.1-0.4,0.2-0.6,0.3   C41,60.1,40,60.5,39,60.5c-0.4,0-0.7,0-1.1-0.2c-1.3-0.4-2.3-1.4-2.6-2.7c-0.7,0.2-1.6,0.9-2.2,1.6c-0.6,0.7-1.1,1.6-1.4,2.5   c-0.7,2.2,0.2,4.1,2.4,4.8c2.5,0.8,4.9,1.5,7.3,0.9c1.6-0.4,3.2-1,4.8-1.5c0.2-0.1,0.4-0.2,0.7-0.2c0.5-0.8,1.2-1.5,1.1-2.7   c0-1,0-2.1-0.4-3C47.2,59.3,46.1,58.6,45.9,57.9z"></path><path fill="#000000" d="M46,67.1c-1.5,0.5-3,1-4.5,1.4c-0.7,0.2-1.4,0.2-2.1,0.2c-1.9,0-3.9-0.6-5.8-1.2c-1.1-0.4-2-1-2.5-1.8   c-1.3,0-2.6,0.1-3.8,0.7c-0.9,0.5-2.2,1.8-2,2.9c0.1,0.6,0.7,0.9,1.2,1.4c0.2,0.1,0.4,0.3,0.5,0.4c0.7,0.5,1.5,0.9,2.3,1.3   c0.2,0.1,0.4,0.2,0.7,0.3c1.1,0.6,2.3,1,3.4,1.3c0.5,0.2,1.1,0.4,1.6,0.5c1.3,0.5,2.6,0.9,4,1.1c0,0,0.1,0,0.1,0   c0.3-0.1,0.7-0.1,1-0.2c1.7-0.5,3.3-1.2,4.6-2.5c1.8-1.8,1.1-3.3,1.1-5.4C45.9,67.4,46,67.2,46,67.1z"></path><path fill="#000000" d="M94,23c-0.8-1-2-1.5-3.6-1.6c-4.4-0.3-13.5,0.2-13.9,0.2l-0.4,0l-2.5,3.5H61L60.8,21l-10.7-0.2l-5.5,7.5   v6.1c-0.3,0-0.7,0.1-1.1,0.1c-4.3,0.2-7.7,1.4-11.9,2.5c-4.6,1.2-9.5,1.7-13.8,4.2c-2,1.2-4.1,2.4-6,3.8c-1.4,1-3.3,2.8-4.4,4.6   l0,0c-0.5,0.7-2,3-2.1,4.2c-0.3,2.9-0.3,6,0.1,8.9c0.5,3.3,1,7.7,3.4,10.2c1.6,1.6,3.3,3.3,5.3,4.4c4.5,2.5,10.2,1,14.9,0.3   c1.9-0.3,3.5-0.8,5.4-1.2c0.5-0.1,1.1-0.2,1.7-0.2c-0.4-0.2-0.9-0.3-1.3-0.5c-0.5-0.2-1.1-0.4-1.6-0.5c-1.2-0.4-2.4-0.8-3.6-1.4   c-0.2-0.1-0.4-0.2-0.7-0.3c-0.8-0.4-1.7-0.9-2.5-1.5c-0.1-0.1-0.3-0.2-0.5-0.3c-0.7-0.5-1.5-1.1-1.7-2c-0.3-1.7,1.3-3.4,2.6-4   c1.2-0.6,2.5-0.8,3.8-0.8c-0.3-1-0.4-2.1,0-3.3c0.4-1.1,0.9-2.2,1.6-2.9c0.3-0.3,1.6-1.7,2.9-1.9c-0.1-2.1,1.4-3.4,2.8-4.8l0.2,0   c-1.2,1.5-2.1,3.1-2,4.9c0.1,1.3,0.8,2.2,2,2.6c1,0.3,2.1-0.1,3.2-0.6c0.2-0.1,0.4-0.2,0.6-0.3c0.7-0.3,1.4-0.6,2.1-1   c0.8-0.5,1.7-1,2.6-1.2c0.2-0.3,0.4-0.5,0.5-0.8c0.3-0.7,0.5-1.4,0.6-2.1l11.7,1.9l10-7.5l18.1,1.9l6.7-2.1c0.4-0.1,0.7-0.5,0.7-1   l0-19.9C95,26.2,95.2,24.4,94,23z M46.2,28.9l4.7-6.4l8.3,0.1l0.2,4.1h12.9l-1.6,2.3H60.1l-6.8,4L49.3,34v0c-1,0.1-2,0.2-3,0.3   V28.9z M35.3,53c-1.2,1.3-2.1,2.7-3.1,4.1c-0.8,1.2-1.8,2.4-2.7,3.7c-2.4,3.3-5.9,3.8-8.4,6l0,0c1.9-1.5,5.1-3.5,7.8-6.6   c2.2-2.5,3.5-5.5,5.8-7.9c0.3-0.3,0.6-0.7,1-1.1l1,0.2C36.2,52,35.8,52.5,35.3,53z M68.9,45.8L68.9,45.8l-3.8,2.8l-6.2,4.7l-22-3.5   c0.8-0.9,1.6-1.7,2.5-2.3c1.6-1.1,3.4-1.7,5.1-2.5c3.4-1.5,7.8-2.9,7.6-7.3c0-1.1-0.1-2.1-0.6-2.9h2.3l6.8-4h9l0.1,5.9l10,1.1   L68.9,45.8z M92.6,46.2l-5.3,1.6l-15.9-1.7l9.3-6.9l3.2-0.7l0-2l-12.5-1.3l-0.1-3.9l5.7-7.9c1.9-0.1,9.5-0.4,13.3-0.2   c1.1,0.1,1.9,0.4,2.4,1c0.8,0.9,0.6,2.3,0.6,2.3l0.1,18.9C93.3,45.7,93.1,46.1,92.6,46.2z"></path></g></svg>