<svg height='100px' width='100px'  fill="#000000" xmlns="http://www.w3.org/2000/svg" xmlns:xlink="http://www.w3.org/1999/xlink" viewBox="0 0 230 230" version="1.1" x="0px" y="0px"><title>blockchain</title><desc>Created with Sketch.</desc><g stroke="none" stroke-width="1" fill="none" fill-rule="evenodd"><g fill="#000000" fill-rule="nonzero"><path d="M115,229.5 C51.7633961,229.5 0.5,178.236604 0.5,115 C0.5,51.7633961 51.7633961,0.5 115,0.5 C178.236604,0.5 229.5,51.7633961 229.5,115 C229.433858,178.209187 178.209187,229.433858 115,229.5 Z M115,5.5 C54.5248199,5.5 5.5,54.5248199 5.5,115 C5.5,175.47518 54.5248199,224.5 115,224.5 C175.47518,224.5 224.5,175.47518 224.5,115 C224.433865,54.5522353 175.447765,5.56613547 115,5.5 Z"></path><path d="M115,216.94 C109.083644,216.937858 103.178473,216.425965 97.35,215.41 C96.4364592,215.293765 95.6607907,214.684709 95.3311728,213.824814 C95.0015549,212.964919 95.1713666,211.993438 95.7731406,211.296347 C96.3749145,210.599256 97.3111983,210.289444 98.21,210.49 C109.349928,212.42503 120.740072,212.42503 131.88,210.49 C133.241382,210.252518 134.537518,211.163618 134.775,212.525 C135.012482,213.886382 134.101382,215.182518 132.74,215.42 C126.881626,216.437776 120.946122,216.946343 115,216.94 Z M65.33,203.66 C64.8918448,203.659655 64.4612295,203.545973 64.08,203.33 C53.799557,197.378409 44.6356434,189.679774 37,180.58 C36.1108217,179.522375 36.2473749,177.944179 37.3050001,177.055 C38.3626254,176.165822 39.9408215,176.302375 40.83,177.36 C48.0876555,186.017821 56.8019742,193.341233 66.58,199 C67.5546225,199.567941 68.0281861,200.718207 67.7359352,201.807719 C67.4436843,202.89723 66.4580206,203.656073 65.33,203.66 Z M164.75,203.66 C163.613169,203.668509 162.613742,202.908914 162.317598,201.811301 C162.021454,200.713688 162.503172,199.55447 163.49,198.99 C173.280245,193.332116 182.005114,186.004986 189.27,177.34 C189.833005,176.621554 190.74281,176.267047 191.643476,176.415171 C192.544141,176.563295 193.292493,177.190503 193.595756,178.051416 C193.899019,178.912329 193.708985,179.87009 193.1,180.55 C185.456826,189.644569 176.286098,197.336475 166,203.28 C165.620814,203.502075 165.18943,203.619412 164.75,203.62 L164.75,203.66 Z M21.57,151.66 C20.5148465,151.658035 19.5745304,150.993811 19.22,150 C15.146092,138.832817 13.0644912,127.03708 13.07,115.15 C13.0673409,114.48788 13.328505,113.851967 13.7957591,113.382836 C14.2630132,112.913705 14.8978747,112.649995 15.56,112.65 C16.9384352,112.655481 18.0545191,113.771565 18.06,115.15 C18.0555921,126.453893 20.0356438,137.670801 23.91,148.29 C24.3798255,149.585004 23.713498,151.016043 22.42,151.49 C22.1460818,151.580334 21.8582205,151.620974 21.57,151.61 L21.57,151.66 Z M208.47,151.56 C208.176443,151.564629 207.884656,151.513736 207.61,151.41 C206.985368,151.186827 206.476168,150.722733 206.196181,150.121419 C205.916194,149.520105 205.888757,148.83169 206.12,148.21 C209.989594,137.566176 211.959524,126.325385 211.94,115 L211.94,114.78 C211.94,113.399288 213.059288,112.28 214.44,112.28 C215.820712,112.28 216.94,113.399288 216.94,114.78 L216.94,115 C216.954773,126.891781 214.883382,138.693972 210.82,149.87 C210.456372,150.854057 209.51909,151.50816 208.47,151.51 L208.47,151.56 Z M21.5,83.59 C20.6829527,83.590842 19.9170497,83.1923775 19.4487711,82.5228387 C18.9804925,81.8532999 18.8689351,80.9971829 19.15,80.23 C23.2064266,69.0553838 29.1903175,58.6783421 36.83,49.57 C37.716417,48.5096133 39.2946133,48.368583 40.355,49.255 C41.4153867,50.1414171 41.556417,51.7196133 40.67,52.78 C33.3983387,61.4395708 27.7050826,71.3096866 23.85,81.94 C23.4921245,82.9298686 22.5525752,83.5895522 21.5,83.59 Z M208.4,83.29 C207.349066,83.2940375 206.408748,82.6378154 206.05,81.65 C202.163625,71.0384961 196.443361,61.1921961 189.15,52.56 C188.573016,51.8722637 188.406764,50.928952 188.713869,50.0854011 C189.020974,49.2418502 189.75478,48.6262157 190.638869,48.4704011 C191.522958,48.3145865 192.423016,48.6422637 193,49.33 C200.668327,58.4115598 206.682934,68.7687342 210.77,79.93 C211.247398,81.2250948 210.584885,82.6620323 209.29,83.14 C209.004143,83.2407168 208.703078,83.2914582 208.4,83.29 Z M65.16,31.44 C64.0319794,31.4360729 63.0463157,30.6772301 62.7540648,29.5877187 C62.4618139,28.4982072 62.9353775,27.3479408 63.91,26.78 C74.1853539,20.7963488 85.4390821,16.6794614 97.15,14.62 C98.0306597,14.4645895 98.9273333,14.7908106 99.5022526,15.4757789 C100.077172,16.1607473 100.242993,17.1004 99.9372526,17.9407789 C99.6315122,18.7811579 98.9006597,19.3945895 98.02,19.55 C86.8881226,21.5069597 76.1900493,25.4171732 66.42,31.1 C66.0373261,31.3224497 65.6026321,31.4397481 65.16,31.44 Z M164.57,31.29 C164.133703,31.2895675 163.705502,31.1721575 163.33,30.95 C153.534972,25.3007336 142.821201,21.4214345 131.68,19.49 C130.37652,19.1991447 129.531832,17.9351302 129.761793,16.6195411 C129.991754,15.3039519 131.215145,14.4014308 132.54,14.57 C144.25358,16.5784396 155.520121,20.6408944 165.82,26.57 C166.805155,27.1335705 167.287061,28.2900559 166.993601,29.3864242 C166.70014,30.4827925 165.704957,31.2439113 164.57,31.24 L164.57,31.29 Z"></path><path d="M115,203.65 C66.0399569,203.65 26.35,163.960043 26.35,115 C26.35,66.0399569 66.0399569,26.35 115,26.35 C163.960043,26.35 203.65,66.0399569 203.65,115 C203.59489,163.937198 163.937198,203.59489 115,203.65 Z M115,31.35 C68.8013807,31.35 31.35,68.8013807 31.35,115 C31.35,161.198619 68.8013807,198.65 115,198.65 C161.198619,198.65 198.65,161.198619 198.65,115 C198.600397,68.8219427 161.178057,31.3996035 115,31.35 Z"></path><path d="M138.39,123.06 C132.543403,122.940651 126.862344,121.096829 122.06,117.76 C121.439793,117.339025 121.037201,116.665599 120.96,115.92 C120.891929,115.179598 121.155621,114.44712 121.68,113.92 L129.19,106.41 C129.889464,105.709013 130.937825,105.489132 131.86,105.85 C134.99,107.05 138.04,106.69 139.86,104.85 L157.38,87.33 C158.746505,85.8334012 159.331485,83.782271 158.96,81.79 C157.974235,76.3128054 153.687195,72.0257649 148.21,71.04 C146.217285,70.658783 144.161842,71.2449924 142.67,72.62 L125.15,90.14 C123.36,91.93 123,94.98 124.15,98.14 C124.509877,99.0654598 124.290345,100.116079 123.59,100.82 L116.08,108.32 C115.55288,108.844379 114.820402,109.108071 114.08,109.04 C113.334401,108.962799 112.660975,108.560207 112.24,107.94 C105.11,97.29 105.24,84.78 112.44,77.52 L130,60 C138.71,51.3 154.77,53.2 165.81,64.23 C170.907895,69.1778306 174.247669,75.6572039 175.32,82.68 C176.22,89.57 174.32,95.74 170.04,100.04 L152.51,117.57 C148.729408,121.218554 143.642256,123.196491 138.39,123.06 Z M127.48,115.18 C135.48,119.37 143.96,119.01 148.94,114.02 L166.47,96.49 C169.65,93.31 171.02,88.64 170.33,83.32 C169.406588,77.3884917 166.564941,71.9229754 162.24,67.76 C153.15,58.67 140.24,56.76 133.51,63.53 L116,81.06 C111,86.06 110.65,94.56 114.84,102.52 L119,98.36 C117.78,93.89 118.72,89.51 121.59,86.64 L139.11,69.12 C141.696017,66.6368896 145.304693,65.5242456 148.84,66.12 C156.572509,67.393556 162.631577,73.4566474 163.9,81.19 C164.490812,84.7219378 163.378626,88.3254198 160.9,90.91 L143.38,108.43 C140.51,111.3 136.13,112.24 131.66,111.02 L127.48,115.18 Z"></path><path d="M86,175.47 C78.67,175.47 70.62,172.15 64.25,165.78 C59.1477869,160.831319 55.8074175,154.347279 54.74,147.32 C53.84,140.44 55.74,134.32 60.02,129.97 L77.55,112.44 C84.81,105.19 97.32,105.11 107.97,112.24 C108.590207,112.660975 108.992799,113.334401 109.07,114.08 C109.138071,114.820402 108.874379,115.55288 108.35,116.08 L100.85,123.59 C100.150536,124.290987 99.1021747,124.510868 98.18,124.15 C95.05,122.94 92,123.31 90.18,125.15 L72.66,142.63 C69.76,145.52 70.66,151.18 74.77,155.23 C76.6588233,157.195846 79.1376859,158.491456 81.83,158.92 C83.8226417,159.29958 85.8773563,158.713578 87.37,157.34 L104.89,139.82 C106.256505,138.323401 106.841485,136.272271 106.47,134.28 C106.355531,133.448194 106.144092,132.632645 105.84,131.85 C105.479132,130.927825 105.699013,129.879464 106.4,129.18 L113.91,121.68 C114.4395,121.149498 115.179087,120.884562 115.924997,120.958184 C116.670908,121.031806 117.34443,121.436219 117.76,122.06 C120.427973,125.968526 122.165699,130.435988 122.84,135.12 C123.74,142.01 121.84,148.18 117.56,152.48 L100,170 C96.251777,173.620878 91.2101211,175.590725 86,175.47 Z M91.64,111.93 C87.7295906,111.796855 83.9291772,113.23777 81.09,115.93 L63.53,133.51 C60.35,136.69 58.98,141.37 59.67,146.67 C60.5934606,152.604378 63.4349284,158.073062 67.76,162.24 C76.85,171.33 89.76,173.24 96.49,166.47 L114,148.94 C117.18,145.76 118.55,141.09 117.86,135.77 C117.450495,132.870319 116.536712,130.064668 115.16,127.48 L111,131.63 C111.183488,132.286205 111.320495,132.954528 111.41,133.63 C112.002497,137.165091 110.890297,140.772327 108.41,143.36 L90.89,160.88 C88.3039828,163.36311 84.6953074,164.475754 81.16,163.88 C77.356959,163.317899 73.843687,161.522617 71.16,158.77 C65.16,152.77 64.16,143.94 69.05,139.09 L86.57,121.57 C89.44,118.7 93.83,117.76 98.3,118.98 L102.45,114.82 C99.1201712,113.002656 95.4026046,112.011534 91.61,111.93 L91.64,111.93 Z"></path><path d="M98.12,141.59 C97.7858112,141.588582 97.4519608,141.568551 97.12,141.53 C94.9528644,141.202889 92.9516126,140.177687 91.42,138.61 C87.93,135.12 87.42,129.92 90.36,127.01 L126.92,90.45 C128.492966,88.9510814 130.672799,88.2675744 132.82,88.6 C134.987474,88.9194088 136.990073,89.9417884 138.52,91.51 C142.01,95 142.52,100.21 139.58,103.11 L103,139.67 C101.695469,140.936725 99.9379477,141.628208 98.12,141.59 Z M131.73,93.53 C131.249704,93.5042067 130.778727,93.669588 130.42,93.99 L93.87,130.54 C93.04,131.37 93.28,133.43 94.87,135.08 C95.6294811,135.861449 96.6164623,136.38294 97.69,136.57 C98.2954395,136.683114 98.9200788,136.526041 99.4,136.14 L136,99.58 C136.82,98.76 136.59,96.69 134.94,95.05 C134.190483,94.2607154 133.203879,93.7375697 132.13,93.56 C131.997754,93.5387143 131.863942,93.5286784 131.73,93.53 Z"></path></g></g></svg>