<svg height='100px' width='100px'  fill="#1A1A1A" xmlns="http://www.w3.org/2000/svg" xmlns:xlink="http://www.w3.org/1999/xlink" version="1.1" x="0px" y="0px" viewBox="0 0 256 256" style="enable-background:new 0 0 256 256;" xml:space="preserve"><g><g><g><path d="M163.2,59.3v18.4l12.9-12.9C172.7,61.9,168.1,59.9,163.2,59.3z"></path><path d="M140.2,69.1c-3.2,3.4-4.9,8-5.5,12.9h18.4L140.2,69.1z"></path><path d="M157.1,77.7V59.3c-4.9,0.6-9.2,2.6-12.9,5.5L157.1,77.7z"></path><path d="M112.6,122.6c-17.2-6.3-33.3,0-38.5,2.3l7.5,71.9h64.4l7.5-72.7C140.5,127.5,125.8,127.2,112.6,122.6z"></path><path d="M73.5,118.8c7.5-3.2,23.3-8,40.8-1.7c18.1,6.3,34.8,2,39.7,0.6l2.9-27.9H70.6L73.5,118.8z"></path><path d="M180.4,101c2.9-3.4,4.9-8,5.5-12.9h-18.4L180.4,101z"></path><path d="M163.2,110.5c4.9-0.6,9.2-2.6,12.9-5.5l-12.9-12.9V110.5z"></path><path d="M128,1C57.9,1,1,57.9,1,128s56.9,127,127,127s127-56.9,127-127S198.1,1,128,1z M182.7,107.3c-6.6,6.6-15.5,9.5-23,9.2     l-8.6,83.4c0,1.4-1.4,2.6-2.9,2.6H78.7c-1.4,0-2.6-1.1-2.9-2.6L64,86.9c0-0.9,0.3-1.7,0.9-2.3s1.4-0.9,2.3-0.9H129     c0.3-8,3.7-15.5,9.2-21c12.4-12.4,32.2-12.4,44.6,0S195.1,95,182.7,107.3z"></path><path d="M167.5,82h18.4c-0.6-4.9-2.6-9.5-5.5-12.9L167.5,82z"></path></g></g></g></svg>