<svg height='100px' width='100px'  fill="#000000" xmlns="http://www.w3.org/2000/svg" xmlns:xlink="http://www.w3.org/1999/xlink" version="1.1" x="0px" y="0px" viewBox="0 0 48 48" enable-background="new 0 0 48 48" xml:space="preserve"><g><path d="M16.95,40.88l-1.84,3.67c-0.16,0.311-0.14,0.681,0.04,0.98C15.33,45.82,15.65,46,16,46h16c0.35,0,0.67-0.18,0.85-0.47   c0.18-0.3,0.2-0.67,0.04-0.98l-1.84-3.67C38.93,38.16,43.02,30.82,43.84,23H4.16C4.98,30.82,9.07,38.16,16.95,40.88z M16.9,36.01   c0.21-0.51,0.79-0.76,1.3-0.55c0.16,0.07,0.32,0.12,0.48,0.18c0.52,0.19,0.79,0.761,0.6,1.28c-0.14,0.41-0.53,0.66-0.94,0.66   c-0.11,0-0.23-0.01-0.34-0.05c-0.18-0.07-0.37-0.141-0.55-0.21C16.94,37.11,16.69,36.52,16.9,36.01z M9.71,27.5   c0.51-0.21,1.1,0.03,1.31,0.54c1.04,2.51,2.55,4.5,4.49,5.93c0.44,0.32,0.54,0.95,0.21,1.4c-0.19,0.26-0.5,0.399-0.8,0.399   c-0.21,0-0.42-0.06-0.59-0.189c-2.24-1.64-3.97-3.92-5.16-6.771C8.96,28.3,9.2,27.71,9.71,27.5z M43,17h-1.056   C41.381,9.656,34.726,4.016,26.987,5.175C24.707,3.202,21.744,2,18.5,2c-7.168,0-13,5.832-13,13c0,0.676,0.069,1.342,0.171,2H5   c-0.552,0-1,0.447-1,1v2c0,0.333,0.006,0.667,0.018,1h39.965C43.994,20.667,44,20.333,44,20v-2C44,17.447,43.552,17,43,17z    M39.949,17H37.94c-0.458-4.137-3.719-7.441-7.886-7.931c-0.375-0.729-0.818-1.415-1.319-2.057C28.823,7.011,28.913,7,29,7   C34.728,7,39.442,11.402,39.949,17z M31.422,16.235c0.17,0.232,0.305,0.489,0.402,0.765h-0.496   C31.368,16.746,31.398,16.492,31.422,16.235z M31.428,13.644c-0.084-0.813-0.249-1.601-0.477-2.361   c2.615,0.758,4.578,2.987,4.969,5.718h-2.032C33.601,15.572,32.714,14.349,31.428,13.644z M7.5,15c0-6.065,4.935-11,11-11   s11,4.935,11,11c0,0.679-0.083,1.345-0.204,2h-2.032c0.151-0.654,0.236-1.321,0.236-2c0-4.963-4.038-9-9-9s-9,4.037-9,9   c0,0.679,0.085,1.346,0.236,2H7.704C7.583,16.345,7.5,15.679,7.5,15z M23.078,17c0.274-0.625,0.422-1.304,0.422-2   c0-2.757-2.243-5-5-5s-5,2.243-5,5c0,0.696,0.148,1.375,0.422,2h-2.126C11.6,16.352,11.5,15.682,11.5,15c0-3.859,3.14-7,7-7   s7,3.141,7,7c0,0.682-0.1,1.352-0.296,2H23.078z M16.292,17c-0.498-0.549-0.792-1.255-0.792-2c0-1.654,1.346-3,3-3s3,1.346,3,3   c0,0.745-0.294,1.451-0.792,2H16.292z"></path></g></svg>