<?xml version="1.0" encoding="utf-8"?>
<!-- Generator: Adobe Illustrator 24.2.1, SVG Export Plug-In . SVG Version: 6.00 Build 0)  -->
<svg version="1.1" id="Layer_1" xmlns="http://www.w3.org/2000/svg" xmlns:xlink="http://www.w3.org/1999/xlink" x="0px" y="0px"
	 viewBox="0 0 100 100" enable-background="new 0 0 100 100" xml:space="preserve">
<g>
	<g>
		<path d="M51.914,65.518c-0.625-0.596-1.611-0.566-2.202,0.054c-0.596,0.625-0.566,1.611,0.054,2.202
			c1.772,1.694,3.154,3.398,4.077,5.264c0.903,1.826,1.382,3.843,1.382,6.216c0,1.846-1.299,3.066-3.398,3.848
			c-2.524,0.938-6.113,1.274-10.122,1.274s-7.598-0.332-10.122-1.274c-2.1-0.781-3.398-2.002-3.398-3.848
			c0-2.373,0.479-4.395,1.382-6.216c0.923-1.865,2.3-3.569,4.077-5.264c0.625-0.596,0.649-1.582,0.054-2.202
			c-0.596-0.62-1.582-0.649-2.202-0.054c-2.031,1.938-3.623,3.921-4.722,6.143c-1.118,2.261-1.709,4.731-1.709,7.598
			c0,3.394,2.075,5.518,5.435,6.768c2.935,1.094,6.885,1.479,11.206,1.479s8.271-0.386,11.206-1.479
			c3.359-1.25,5.435-3.374,5.435-6.768c0-2.866-0.591-5.337-1.709-7.598C55.537,69.434,53.945,67.456,51.914,65.518L51.914,65.518z"
			/>
		<path d="M37.231,57.72c0.127-0.854-0.464-1.646-1.318-1.772c-0.854-0.127-1.646,0.464-1.772,1.318
			c-0.005,0.015-0.84,5.874-2.808,8.423c-0.527,0.679-0.4,1.66,0.278,2.183c0.679,0.527,1.66,0.4,2.183-0.278
			C36.279,64.38,37.227,57.739,37.231,57.72L37.231,57.72z"/>
		<path d="M49.268,57.271c-0.127-0.854-0.918-1.445-1.772-1.318c-0.854,0.127-1.445,0.918-1.318,1.772
			c0.005,0.02,0.952,6.66,3.428,9.878c0.527,0.679,1.504,0.806,2.183,0.278c0.679-0.527,0.806-1.504,0.278-2.183
			C50.107,63.145,49.272,57.285,49.268,57.271L49.268,57.271z"/>
		<path d="M34.238,58.076c0.322,0.801,1.226,1.187,2.026,0.869c0.801-0.322,1.187-1.226,0.869-2.026l-1.245-3.105h11.23
			l-0.898,3.276c-0.225,0.83,0.264,1.685,1.094,1.909c0.83,0.225,1.685-0.264,1.909-1.094l1.401-5.103
			c0.063-0.171,0.098-0.356,0.098-0.552c0-0.864-0.698-1.563-1.563-1.563H33.613c-0.205-0.005-0.41,0.029-0.61,0.112
			c-0.801,0.322-1.191,1.23-0.869,2.031l1.45-0.581l-1.445,0.581L34.238,58.076L34.238,58.076z"/>
		<path d="M34.556,52.251c0,0.864,0.698,1.563,1.563,1.563s1.563-0.698,1.563-1.563c0-1.021,0.415-1.943,1.084-2.612
			c0.669-0.669,1.592-1.084,2.612-1.084c1.021,0,1.943,0.415,2.612,1.084c0.669,0.669,1.084,1.592,1.084,2.612
			c0,0.864,0.698,1.563,1.563,1.563c0.864,0,1.563-0.698,1.563-1.563c0-1.885-0.762-3.589-1.997-4.819
			c-1.235-1.235-2.939-1.997-4.819-1.997c-1.885,0-3.589,0.762-4.819,1.997C35.317,48.662,34.556,50.366,34.556,52.251
			L34.556,52.251z"/>
		<path d="M50.166,47.476c0.684-0.522,0.815-1.499,0.293-2.183S48.96,44.478,48.276,45l-3.682,2.822
			c-0.684,0.522-0.815,1.499-0.293,2.183s1.499,0.815,2.183,0.293L50.166,47.476L50.166,47.476z"/>
		<path d="M34.473,44.995c-0.684-0.522-1.66-0.391-2.183,0.293c-0.522,0.684-0.391,1.66,0.293,2.183l3.682,2.822
			c0.684,0.522,1.66,0.391,2.183-0.293s0.391-1.66-0.293-2.183L34.473,44.995z"/>
		<path d="M41.372,29.497c1.895,0,3.633,0.625,4.912,1.636c1.377,1.094,2.231,2.627,2.231,4.346s-0.854,3.252-2.231,4.346
			c-1.274,1.011-3.013,1.636-4.912,1.636c-1.895,0-3.633-0.625-4.912-1.636c-1.377-1.094-2.231-2.627-2.231-4.346
			s0.854-3.252,2.231-4.346C37.739,30.122,39.478,29.497,41.372,29.497L41.372,29.497z M44.355,33.574
			c-0.742-0.591-1.797-0.952-2.983-0.952c-1.187,0-2.236,0.366-2.983,0.952c-0.64,0.508-1.035,1.182-1.035,1.904
			s0.396,1.396,1.035,1.904c0.742,0.591,1.797,0.952,2.983,0.952c1.187,0,2.236-0.366,2.983-0.952
			c0.64-0.508,1.035-1.182,1.035-1.904S44.995,34.082,44.355,33.574L44.355,33.574z"/>
		<path d="M30.835,20.205c-0.391-0.767-1.328-1.069-2.095-0.679c-0.767,0.391-1.069,1.328-0.679,2.095l1.484,2.9l1.387-0.708
			l-1.392,0.713c0.278,0.547,0.84,0.859,1.421,0.85h8.208c0.864,0,1.563-0.698,1.563-1.563c0-0.864-0.698-1.563-1.563-1.563h-7.285
			L30.835,20.205L30.835,20.205z M43.579,22.251c-0.864,0-1.563,0.698-1.563,1.563c0,0.864,0.698,1.563,1.563,1.563h8.232
			c0.659,0,1.221-0.41,1.45-0.986l1.416-2.769c0.391-0.767,0.088-1.704-0.679-2.095s-1.704-0.088-2.095,0.679l-1.045,2.046H43.579
			L43.579,22.251z"/>
		<path d="M33.247,12.5h16.27c0.864,0,1.563,0.698,1.563,1.563c0,0.303-0.088,0.591-0.239,0.83l-2.778,5.146l-1.372-0.737
			l1.377,0.742c-0.288,0.532-0.835,0.83-1.396,0.82H36.06c-0.63,0-1.177-0.376-1.421-0.913l-2.778-5.146h-0.005
			c-0.41-0.757-0.127-1.709,0.63-2.119C32.729,12.559,32.993,12.495,33.247,12.5L33.247,12.5z M46.899,15.625H35.845l1.143,2.114
			h8.774L46.899,15.625L46.899,15.625z"/>
		<path d="M40.728,39.536c0-0.864-0.698-1.563-1.563-1.563s-1.563,0.698-1.563,1.563v7.939c0,0.864,0.698,1.563,1.563,1.563
			s1.563-0.698,1.563-1.563V39.536L40.728,39.536z M42.017,47.476c0,0.864,0.698,1.563,1.563,1.563s1.563-0.698,1.563-1.563v-7.939
			c0-0.864-0.698-1.563-1.563-1.563s-1.563,0.698-1.563,1.563V47.476z"/>
		<path d="M45.142,19.302c0-0.864-0.698-1.563-1.563-1.563s-1.563,0.698-1.563,1.563v12.119c0,0.864,0.698,1.563,1.563,1.563
			s1.563-0.698,1.563-1.563V19.302z M37.603,31.416c0,0.864,0.698,1.562,1.563,1.562s1.563-0.698,1.563-1.562V19.302
			c0-0.864-0.698-1.563-1.563-1.563s-1.563,0.698-1.563,1.563V31.416z"/>
		<path d="M48.613,45.239c-0.552,0.332-0.728,1.05-0.396,1.602c0.332,0.552,1.05,0.728,1.602,0.396
			c3.501-2.124,11.152-4.932,16.831-5.137c1.86-0.068,3.457,0.146,4.536,0.767c0.908,0.522,1.445,1.406,1.411,2.764
			c-0.059,2.324-1.582,5.845-5.273,10.967c-3.408,4.731-0.664,8.726,1.875,12.407c2.09,3.037,3.999,5.806,0.366,8.242
			c-0.537,0.361-0.679,1.084-0.322,1.621c0.356,0.537,1.084,0.679,1.621,0.322c5.596-3.755,3.047-7.456,0.254-11.514
			c-2.09-3.032-4.351-6.318-1.899-9.717c3.989-5.537,5.645-9.507,5.713-12.275c0.059-2.334-0.923-3.887-2.583-4.844
			c-1.489-0.859-3.516-1.162-5.781-1.079C60.508,39.98,52.344,42.974,48.613,45.239L48.613,45.239z"/>
		<path fill-rule="evenodd" clip-rule="evenodd" d="M71.865,77.324c0.732,1.27,0.396,2.847-0.752,3.569l0,0l-9.385,3.975
			l-1.455-2.524l8.042-6.113l0.083-0.049l0,0C69.6,75.562,71.133,76.055,71.865,77.324L71.865,77.324z"/>
	</g>
</g>
</svg>
