<svg height='100px' width='100px'  fill="#000000" xmlns="http://www.w3.org/2000/svg" xmlns:xlink="http://www.w3.org/1999/xlink" version="1.1" x="0px" y="0px" viewBox="0 0 128 128" enable-background="new 0 0 128 128" xml:space="preserve"><g><polygon fill="#000000" points="30.111,37.233 32.057,36.146 34.003,37.233 33.631,34.928 35.207,33.296 33.03,32.959    32.057,30.863 31.084,32.959 28.907,33.296 30.482,34.928  "></polygon><polygon fill="#000000" points="90.979,33.183 92.925,32.092 94.871,33.183 94.499,30.878 96.074,29.243 93.896,28.906    92.925,26.81 91.952,28.906 89.779,29.243 91.35,30.878  "></polygon><polygon fill="#000000" points="68.43,27.543 72.566,25.226 76.701,27.543 75.912,22.645 79.259,19.171 74.634,18.454 72.566,14    70.499,18.454 65.881,19.171 69.219,22.645  "></polygon><polygon fill="#000000" points="58.346,42.255 57.672,40.8 56.995,42.255 55.481,42.493 56.576,43.627 56.317,45.229    57.672,44.472 59.023,45.229 58.765,43.627 59.859,42.493  "></polygon><polygon fill="#000000" points="84.498,43.364 83.82,41.908 83.143,43.364 81.629,43.598 82.727,44.736 82.465,46.338    83.82,45.581 85.171,46.338 84.913,44.736 86.01,43.598  "></polygon><path fill="#000000" d="M49.939,40.551c5.477,0,9.919-4.727,9.919-10.555s-4.443-10.554-9.919-10.554   c-5.481,0-9.92,4.727-9.92,10.554C40.02,35.824,44.458,40.551,49.939,40.551z M53.367,23.678c1.895,0,3.428,1.632,3.428,3.648   c0,2.015-1.534,3.647-3.428,3.647s-3.428-1.632-3.428-3.647C49.939,25.31,51.473,23.678,53.367,23.678z"></path><path fill="#000000" d="M23.533,62.973c3.882,0,7.032-3.351,7.032-7.481c0-4.134-3.149-7.481-7.032-7.481   c-3.885,0-7.031,3.348-7.031,7.481C16.502,59.622,19.648,62.973,23.533,62.973z M25.964,51.01c1.341,0,2.431,1.16,2.431,2.587   c0,1.43-1.09,2.586-2.431,2.586c-1.345,0-2.431-1.156-2.431-2.586C23.533,52.17,24.62,51.01,25.964,51.01z"></path><path fill="#000000" d="M32.057,46.59c0,1.972,1.506,3.575,3.359,3.575c1.857,0,3.363-1.603,3.363-3.575   c0-1.976-1.506-3.578-3.363-3.578C33.563,43.013,32.057,44.615,32.057,46.59z M36.578,44.45c0.643,0,1.163,0.553,1.163,1.233   c0,0.684-0.52,1.236-1.163,1.236s-1.162-0.553-1.162-1.236C35.416,45.003,35.936,44.45,36.578,44.45z"></path><path fill="#000000" d="M96.074,53.318c3.886,0,7.031-3.351,7.031-7.481c0-4.134-3.146-7.481-7.031-7.481   c-3.881,0-7.031,3.348-7.031,7.481C89.042,49.967,92.191,53.318,96.074,53.318z M98.505,41.359c1.341,0,2.431,1.156,2.431,2.583   c0,1.431-1.09,2.586-2.431,2.586s-2.431-1.156-2.431-2.586C96.074,42.515,97.164,41.359,98.505,41.359z"></path><path fill="#000000" d="M100.021,59.545c0,1.891,1.443,3.428,3.225,3.428c1.777,0,3.222-1.537,3.222-3.428   c0-1.895-1.444-3.428-3.222-3.428C101.465,56.117,100.021,57.65,100.021,59.545z M104.359,57.493c0.613,0,1.113,0.531,1.113,1.185   c0,0.655-0.5,1.181-1.113,1.181c-0.615,0-1.113-0.526-1.113-1.181C103.246,58.023,103.745,57.493,104.359,57.493z"></path><path fill="#000000" d="M69.238,45.837c2.83,0,5.123-2.44,5.123-5.455c0-3.011-2.293-5.451-5.123-5.451   c-2.829,0-5.123,2.44-5.123,5.451C64.115,43.397,66.409,45.837,69.238,45.837z M71.009,37.119c0.98,0,1.771,0.845,1.771,1.884   c0,1.042-0.79,1.888-1.771,1.888c-0.977,0-1.77-0.845-1.77-1.888C69.238,37.964,70.032,37.119,71.009,37.119z"></path><path fill="#000000" d="M78.191,36.289c0,2.019,1.541,3.658,3.44,3.658c1.897,0,3.438-1.64,3.438-3.658   c0-2.02-1.541-3.659-3.438-3.659C79.732,32.63,78.191,34.269,78.191,36.289z M82.818,34.097c0.658,0,1.19,0.567,1.19,1.266   c0,0.699-0.532,1.262-1.19,1.262c-0.656,0-1.187-0.563-1.187-1.262C81.633,34.664,82.163,34.097,82.818,34.097z"></path><path fill="#000000" d="M33.346,70.564c0.731-2.717,9.071-15.997,9.708-16.104c9.935-1.647,35.036-0.331,42.934-0.003"></path><path fill="#000000" d="M107.889,75.525c-1.029-0.801-2.953-1.529-4.388-2.334c-1.127-0.633-3.84-1.373-2.469-3.502   c2.39,2.598,9.345,1.416,9.325-2.041c-0.021-3.106-5.227-3.278-7.953-1.752c-2.118,1.186-2.235,3.072-3.84,4.086   c-1.381-3.088-8.381-18.172-11.231-19.383c-4.869-2.066-38.304-2.513-46.248-0.433c-5.362,1.403-9.349,14.389-11.909,19.816   c-1.358-0.939-1.688-2.711-3.29-3.793c-2.695-1.818-8.035-1.889-8.228,1.166c-0.144,2.258,3.078,4.105,5.759,3.795   c1.585-0.188,2.06-1.541,3.29-1.168c0.398,0.146,0.586,0.582,0.55,0.875c-2.128,2.963-5.232,2.918-7.681,4.961   c-5.967,4.979-5.69,14.47-5.503,25.891h0.857v8.954c0,1.843,1.247,3.337,2.784,3.337h13.111c1.537,0,2.784-1.494,2.784-3.337   v-8.954H94.41v8.954c0,1.843,1.248,3.337,2.785,3.337h13.109c1.537,0,2.785-1.494,2.785-3.337v-8.954h0.85   C114.165,90.08,114.068,80.363,107.889,75.525z M104.328,82.648c3.16,0,5.721,2.727,5.721,6.088s-2.561,6.087-5.721,6.087   s-5.721-2.726-5.721-6.087S101.168,82.648,104.328,82.648z M42.337,53.348c10.17-1.217,35.621-0.355,43.651-0.004   c1.211,0.468,7.143,13.291,9.281,17.221c-18.826,0-41.403-0.195-62.804,0C33.97,67.546,39.815,53.65,42.337,53.348z M25.11,82.648   c3.159,0,5.721,2.727,5.721,6.088s-2.562,6.087-5.721,6.087c-3.16,0-5.721-2.726-5.721-6.087S21.95,82.648,25.11,82.648z    M92.275,93.967c0,2.068-1.576,3.746-3.521,3.746h-49.51c-1.944,0-3.521-1.678-3.521-3.746v-5.619c0-2.07,1.577-3.746,3.521-3.746   h49.511c1.944,0,3.521,1.676,3.521,3.746v5.619H92.275z"></path></g></svg>