<svg height='100px' width='100px'  fill="#000000" xmlns="http://www.w3.org/2000/svg" xmlns:xlink="http://www.w3.org/1999/xlink" version="1.1" x="0px" y="0px" viewBox="0 0 160 160" style="enable-background:new 0 0 160 160;" xml:space="preserve"><g><polygon points="61.6,146.5 57.3,144.4 53.2,146.4 49.6,145.5 46.1,146.4 41.8,143.2 37.5,146.4 34.1,145.5 30.4,146.4 26.3,144.4    22,146.5 19.5,146.5 14.7,140.7 7.9,146.5 5,146.5 5,150.5 11.8,150.5 14.7,147 17.7,150.5 22.9,150.5 26.3,148.9 30,150.7    34.1,149.7 38.4,150.7 41.8,148.2 45.3,150.7 49.6,149.7 53.7,150.7 57.3,148.9 60.7,150.5 68.3,150.5 68.3,146.5  "></polygon><rect x="144.8" y="146.5" width="10.2" height="4"></rect><path d="M37.2,33.5v4v8v4h4h16.2h4v-4v-8v-4h-4H41.2H37.2z M57.4,45.5H41.2v-8h16.2V45.5z"></path><path d="M151,69.2v5.7h-5.7v-5.7h-4v5.7h-5.7v-5.7h-4v5.7h-5.7v-5.7h-4v5.7h-5.7v-5.8h-4v5.8h-5.7v-5.8h-4v5.8h-5.7v-5.8h-4V75   h-5.7v-9.8H94v-2C94,38.8,74.1,9.3,49.5,9.3C24.9,9.3,5,38.8,5,63.2v2h6.9v33.4h36.4l1.6-0.5l4.2-3.5H40.7l9-8.8l6.7,6.8l3.1-2.6   l-6.9-7l8.7-8.5v14.1l4-3.4V67.6H33.8v27H15.9V63.4c0-19.3,15.5-43,33.6-43s33.6,23.6,33.6,43v17.3h4V79h5.7v1.8h4V79h5.7v1.8h4V79   h5.7v1.8h4V79h5.7v1.9h4V79h5.7v1.9c0,0,3.7,0,4.1,0l0-1.8h5.7v3.6c1.5,0.8,2.8,1.8,4,3.1v-6.7h5.7v17.7h4V69.2H151z M58.4,71.6   l-8.6,8.5l-8.4-8.5H58.4z M37.8,73.8l9,9.1l-9,8.9V73.8z M87.1,61.2c-0.5-9.6-4.5-20.2-10.8-28.8c-7.5-10.3-17.1-15.9-26.8-15.9   s-19.3,5.7-26.8,15.9C16.5,41,12.5,51.6,12,61.2H9C10,39,27.7,13.3,49.5,13.3S89,39,90,61.2H87.1z"></path><polygon points="118.5,144.9 116.5,144.9 120.9,132.3 119.1,129.7 115.6,127.9 112.9,127.9 116.5,132.9 110.8,148.9 121.3,148.9    126.9,133.7 123.3,131.8  "></polygon><polygon points="91.7,144.9 89.7,144.9 84.8,130.1 84.3,130.9 84.3,141.3 86.8,148.9 97.2,148.9 90.5,127.9 86.3,127.9  "></polygon><path d="M145.3,108.9V95.7c0-6-4.9-11-11-11H75.6c-2.5,0-4.9,0.9-6.8,2.5l-17,14.4l-12.4,3.7c-1.1,0.3-1.9,1.3-2,2.4   s0.5,2.2,1.5,2.8l1,0.5l-0.9,1.3c-0.5,0.8-0.8,1.7-0.7,2.6l0.2,1.2c0.5,3.9,0.4,7.8-0.2,11.7l-0.6,3.9c-0.2,1.4,0.7,2.7,2,3.1   l4.6,1.4c0.8,0.2,1.6,0.1,2.3-0.3l2.2-1.4c3.5-2.2,6.5-5.1,8.9-8.5h10.5l4.2,5.1v19.3h9.9v-20.3l2.9-4.3h30.9l14.7,7.5v17.2h10   v-19.6c0-0.6-0.1-1.1-0.3-1.7l-4.1-12.4l2.6-9.3c0.4-1.3,0.6-2.6,0.6-4V91.2c1.1,1.2,1.7,2.8,1.7,4.5v13.2c-1.7,2-2.7,4.6-2.7,7.3   c0,3,1.2,5.8,3.3,7.9l1.4,1.4l1.4-1.4c2.1-2.1,3.3-4.9,3.3-7.9C148,113.5,147,111,145.3,108.9z M135.6,90.1v13.5   c0,1-0.1,1.9-0.4,2.9l-3,10.4l4.5,13.5c0,0.1,0.1,0.3,0.1,0.4v15.6h-2v-15.6l-17.8-9H83l-4.8,7.1v17.5h-1.9v-16.7l-6.3-7.6H55.5   l-0.6,0.9c-2.1,3.3-4.9,6.1-8.2,8.1l-1.8,1.1l-3.1-0.9l0.5-2.8c0.7-4.2,0.8-8.6,0.2-12.8l-0.1-1c0-0.1,0-0.2,0.1-0.3l3.2-5   l-2.3-1.2l10.5-3.1l17.6-14.9c1.2-1,2.6-1.5,4.2-1.5h58.7C135,88.8,135.6,89.4,135.6,90.1z M143.3,119.3c-0.5-1-0.7-2-0.7-3.1   s0.2-2.1,0.7-3.1c0.5,1,0.7,2,0.7,3.1S143.7,118.3,143.3,119.3z"></path></g></svg>