<svg height='100px' width='100px'  fill="#000000" xmlns="http://www.w3.org/2000/svg" xmlns:xlink="http://www.w3.org/1999/xlink" viewBox="0 0 60 60" version="1.1" x="0px" y="0px"><title>90 -Vending Machine- (Outline)</title><desc>Created with Sketch.</desc><g stroke="none" stroke-width="1" fill="none" fill-rule="evenodd"><g transform="translate(-1199.000000, -1309.000000)" fill="#000000"><g transform="translate(1199.000000, 1308.000000)"><path d="M14,60.998 L46,60.998 C46.5522847,60.998 47,60.5502847 47,59.998 L47,53.998 C47,53.4457153 46.5522847,52.998 46,52.998 L14,52.998 C13.4477153,52.998 13,53.4457153 13,53.998 L13,59.998 C13,60.5502847 13.4477153,60.998 14,60.998 Z M15,54.998 L45,54.998 L45,58.998 L15,58.998 L15,54.998 Z"></path><path d="M12,54.998 L48,54.998 C48.5522847,54.998 49,54.5502847 49,53.998 L49,5.998 C49,5.44571525 48.5522847,4.998 48,4.998 L12,4.998 C11.4477153,4.998 11,5.44571525 11,5.998 L11,53.998 C11,54.5502847 11.4477153,54.998 12,54.998 Z M13,6.998 L47,6.998 L47,52.998 L13,52.998 L13,6.998 Z"></path><path d="M12,6.998 L48,6.998 C48.5522847,6.998 49,6.55028475 49,5.998 L49,1.998 C49,1.44571525 48.5522847,0.998 48,0.998 L12,0.998 C11.4477153,0.998 11,1.44571525 11,1.998 L11,5.998 C11,6.55028475 11.4477153,6.998 12,6.998 Z M13,2.998 L47,2.998 L47,4.998 L13,4.998 L13,2.998 Z"></path><path d="M16,20.998 L36,20.998 C36.5522847,20.998 37,20.5502847 37,19.998 L37,9.998 C37,9.44571525 36.5522847,8.998 36,8.998 L16,8.998 C15.4477153,8.998 15,9.44571525 15,9.998 L15,19.998 C15,20.5502847 15.4477153,20.998 16,20.998 Z M17,10.998 L35,10.998 L35,18.998 L17,18.998 L17,10.998 Z"></path><path d="M16,30.998 L36,30.998 C36.5522847,30.998 37,30.5502847 37,29.998 L37,19.998 C37,19.4457153 36.5522847,18.998 36,18.998 L16,18.998 C15.4477153,18.998 15,19.4457153 15,19.998 L15,29.998 C15,30.5502847 15.4477153,30.998 16,30.998 Z M17,20.998 L35,20.998 L35,28.998 L17,28.998 L17,20.998 Z"></path><path d="M16,40.998 L36,40.998 C36.5522847,40.998 37,40.5502847 37,39.998 L37,29.998 C37,29.4457153 36.5522847,28.998 36,28.998 L16,28.998 C15.4477153,28.998 15,29.4457153 15,29.998 L15,39.998 C15,40.5502847 15.4477153,40.998 16,40.998 Z M17,30.998 L35,30.998 L35,38.998 L17,38.998 L17,30.998 Z"></path><path d="M40,15.998 L44,15.998 C44.5522847,15.998 45,15.5502847 45,14.998 L45,10.998 C45,10.4457153 44.5522847,9.998 44,9.998 L40,9.998 C39.4477153,9.998 39,10.4457153 39,10.998 L39,14.998 C39,15.5502847 39.4477153,15.998 40,15.998 Z M41,13.998 L41,11.998 L43,11.998 L43,13.998 L41,13.998 Z"></path><path d="M40,23.998 L44,23.998 C44.5522847,23.998 45,23.5502847 45,22.998 L45,18.998 C45,18.4457153 44.5522847,17.998 44,17.998 L40,17.998 C39.4477153,17.998 39,18.4457153 39,18.998 L39,22.998 C39,23.5502847 39.4477153,23.998 40,23.998 Z M41,21.998 L41,19.998 L43,19.998 L43,21.998 L41,21.998 Z"></path><path d="M40,31.998 L44,31.998 C44.5522847,31.998 45,31.5502847 45,30.998 L45,26.998 C45,26.4457153 44.5522847,25.998 44,25.998 L40,25.998 C39.4477153,25.998 39,26.4457153 39,26.998 L39,30.998 C39,31.5502847 39.4477153,31.998 40,31.998 Z M41,29.998 L41,27.998 L43,27.998 L43,29.998 L41,29.998 Z"></path><path d="M40,39.998 L44,39.998 C44.5522847,39.998 45,39.5502847 45,38.998 L45,34.998 C45,34.4457153 44.5522847,33.998 44,33.998 L40,33.998 C39.4477153,33.998 39,34.4457153 39,34.998 L39,38.998 C39,39.5502847 39.4477153,39.998 40,39.998 Z M41,37.998 L41,35.998 L43,35.998 L43,37.998 L41,37.998 Z"></path><path d="M16,50.998 L44,50.998 C44.5522847,50.998 45,50.5502847 45,49.998 L45,43.998 C45,43.4457153 44.5522847,42.998 44,42.998 L16,42.998 C15.4477153,42.998 15,43.4457153 15,43.998 L15,49.998 C15,50.5502847 15.4477153,50.998 16,50.998 Z M17,44.998 L43,44.998 L43,48.998 L17,48.998 L17,44.998 Z"></path><path d="M1,60.9982 L59,60.9982 C59.5522847,60.9982 60,60.5504847 60,59.9982 C60,59.4459153 59.5522847,58.9982 59,58.9982 L1,58.9982 C0.44771525,58.9982 0,59.4459153 0,59.9982 C0,60.5504847 0.44771525,60.9982 1,60.9982 Z"></path><path d="M19,13.9982 L19,15.9982 C19,16.5504847 19.4477153,16.9982 20,16.9982 C20.5522847,16.9982 21,16.5504847 21,15.9982 L21,13.9982 C21,13.4459153 20.5522847,12.9982 20,12.9982 C19.4477153,12.9982 19,13.4459153 19,13.9982 Z"></path><path d="M23,13.9982 L23,15.9982 C23,16.5504847 23.4477153,16.9982 24,16.9982 C24.5522847,16.9982 25,16.5504847 25,15.9982 L25,13.9982 C25,13.4459153 24.5522847,12.9982 24,12.9982 C23.4477153,12.9982 23,13.4459153 23,13.9982 Z"></path><path d="M27,13.9982 L27,15.9982 C27,16.5504847 27.4477153,16.9982 28,16.9982 C28.5522847,16.9982 29,16.5504847 29,15.9982 L29,13.9982 C29,13.4459153 28.5522847,12.9982 28,12.9982 C27.4477153,12.9982 27,13.4459153 27,13.9982 Z"></path><path d="M31,13.9982 L31,15.9982 C31,16.5504847 31.4477153,16.9982 32,16.9982 C32.5522847,16.9982 33,16.5504847 33,15.9982 L33,13.9982 C33,13.4459153 32.5522847,12.9982 32,12.9982 C31.4477153,12.9982 31,13.4459153 31,13.9982 Z"></path><path d="M19,23.9982 L19,25.9982 C19,26.5504847 19.4477153,26.9982 20,26.9982 C20.5522847,26.9982 21,26.5504847 21,25.9982 L21,23.9982 C21,23.4459153 20.5522847,22.9982 20,22.9982 C19.4477153,22.9982 19,23.4459153 19,23.9982 Z"></path><path d="M23,23.9982 L23,25.9982 C23,26.5504847 23.4477153,26.9982 24,26.9982 C24.5522847,26.9982 25,26.5504847 25,25.9982 L25,23.9982 C25,23.4459153 24.5522847,22.9982 24,22.9982 C23.4477153,22.9982 23,23.4459153 23,23.9982 Z"></path><path d="M27,23.9982 L27,25.9982 C27,26.5504847 27.4477153,26.9982 28,26.9982 C28.5522847,26.9982 29,26.5504847 29,25.9982 L29,23.9982 C29,23.4459153 28.5522847,22.9982 28,22.9982 C27.4477153,22.9982 27,23.4459153 27,23.9982 Z"></path><path d="M31,23.9982 L31,25.9982 C31,26.5504847 31.4477153,26.9982 32,26.9982 C32.5522847,26.9982 33,26.5504847 33,25.9982 L33,23.9982 C33,23.4459153 32.5522847,22.9982 32,22.9982 C31.4477153,22.9982 31,23.4459153 31,23.9982 Z"></path><path d="M19,33.9982 L19,35.9982 C19,36.5504847 19.4477153,36.9982 20,36.9982 C20.5522847,36.9982 21,36.5504847 21,35.9982 L21,33.9982 C21,33.4459153 20.5522847,32.9982 20,32.9982 C19.4477153,32.9982 19,33.4459153 19,33.9982 Z"></path><path d="M23,33.9982 L23,35.9982 C23,36.5504847 23.4477153,36.9982 24,36.9982 C24.5522847,36.9982 25,36.5504847 25,35.9982 L25,33.9982 C25,33.4459153 24.5522847,32.9982 24,32.9982 C23.4477153,32.9982 23,33.4459153 23,33.9982 Z"></path><path d="M27,33.9982 L27,35.9982 C27,36.5504847 27.4477153,36.9982 28,36.9982 C28.5522847,36.9982 29,36.5504847 29,35.9982 L29,33.9982 C29,33.4459153 28.5522847,32.9982 28,32.9982 C27.4477153,32.9982 27,33.4459153 27,33.9982 Z"></path><path d="M31,33.9982 L31,35.9982 C31,36.5504847 31.4477153,36.9982 32,36.9982 C32.5522847,36.9982 33,36.5504847 33,35.9982 L33,33.9982 C33,33.4459153 32.5522847,32.9982 32,32.9982 C31.4477153,32.9982 31,33.4459153 31,33.9982 Z"></path></g></g></g></svg>