<svg height='100px' width='100px'  fill="#000000" xmlns="http://www.w3.org/2000/svg" xmlns:xlink="http://www.w3.org/1999/xlink" version="1.0" x="0px" y="0px" viewBox="0 0 100 100" enable-background="new 0 0 100 100" xml:space="preserve"><circle cx="30" cy="68.333" r="8.333"></circle><path d="M90,63.333H76.628C75.107,61.321,72.715,60,70,60c-4.6,0-8.333,3.73-8.333,8.333c0,4.604,3.733,8.334,8.333,8.334  c4.03,0,7.393-2.861,8.164-6.667H90V63.333z"></path><path d="M73.333,23.333l-10,23.333H50V30H30l-6.667,16.666L10,50v20h6.667v-1.667C16.667,60.979,22.649,55,30,55  s13.333,5.979,13.333,13.333V70h13.334v-6.667H50v-10h17.728l10-23.333h5.605v6.666H90V23.333H73.333z"></path></svg>