<svg height='100px' width='100px'  fill="#000000" xmlns="http://www.w3.org/2000/svg" xmlns:xlink="http://www.w3.org/1999/xlink" version="1.1" x="0px" y="0px" viewBox="0 0 64 64" style="enable-background:new 0 0 64 64;" xml:space="preserve"><g><circle cx="33.5" cy="45.5" r="1.5"></circle><path d="M44,54V43c0-6.617-5.383-12-12-12s-12,5.383-12,12v11c0,0.552,0.448,1,1,1h22C43.552,55,44,54.552,44,54z M40,47.667   c0,2.315-1.897,4.199-4.23,4.199c-0.668,0-1.318-0.156-1.898-0.445C32.933,52.986,31.207,54,29.308,54   C26.381,54,24,51.638,24,48.733c0-1.267,0.458-2.472,1.265-3.411C24.472,44.549,24,43.475,24,42.333   c0-2.315,1.897-4.199,4.23-4.199c0.668,0,1.318,0.156,1.898,0.445C31.067,37.014,32.793,36,34.692,36   C37.619,36,40,38.362,40,41.267c0,1.267-0.458,2.472-1.265,3.411C39.528,45.451,40,46.525,40,47.667z"></path><path d="M34.692,38c-1.479,0-2.789,0.98-3.184,2.385l-0.479,1.705l-1.213-1.291c-0.396-0.423-0.975-0.665-1.586-0.665   c-1.229,0-2.23,0.986-2.23,2.199c0,0.862,0.49,1.621,1.278,1.98l1.617,0.738l-1.47,0.999C26.533,46.657,26,47.66,26,48.733   C26,50.534,27.483,52,29.308,52c1.479,0,2.789-0.98,3.184-2.385l0.202-0.718C31.153,48.53,30,47.151,30,45.5   c0-1.93,1.57-3.5,3.5-3.5c1.359,0,2.527,0.787,3.106,1.921C37.477,43.313,38,42.326,38,41.267C38,39.466,36.517,38,34.692,38z"></path><path d="M36.965,45.842c-0.16,1.617-1.412,2.903-3.014,3.112l0.232,0.247c0.396,0.423,0.975,0.665,1.586,0.665   c1.229,0,2.23-0.986,2.23-2.199C38,46.903,37.601,46.238,36.965,45.842z"></path><circle cx="27" cy="11" r="1"></circle><path d="M18,54V43c0-3.257,1.128-6.251,3-8.632V27c0-2.206-1.794-4-4-4s-4,1.794-4,4l1.782,31.172   C14.873,59.758,16.189,61,17.778,61H20v-4.184C18.839,56.402,18,55.302,18,54z"></path><circle cx="17" cy="17" r="1"></circle><path d="M48.634,15.573c-0.597-0.073-1.003-0.019-1.452,0.076l-0.312,0.066c0.039,0.192,0.068,0.386,0.089,0.581   C48.147,16.707,49,17.759,49,19h-2c0-0.484-0.517-0.894-1.129-0.894H45.87c-0.323,0-0.621,0.106-0.839,0.301   c-0.107,0.096-0.288,0.3-0.288,0.592h-2c0-0.795,0.341-1.536,0.958-2.086c0.352-0.313,0.775-0.529,1.23-0.662   C44.772,15.337,44.242,14,42.5,14c-1.549,0-2.14,0.986-2.364,1.898C40.669,16.44,41,17.181,41,18c0,1.654-1.346,3-3,3   c-0.71,0-1.355-0.258-1.869-0.672C35.493,20.764,34.742,21,33.954,21c-1.042,0-2.021-0.41-2.757-1.154   c-1.512-1.53-1.511-4.02,0-5.549l1.422,1.406c-0.745,0.754-0.745,1.981,0.001,2.737c0.645,0.652,1.718,0.709,2.446,0.181   C35.024,18.42,35,18.213,35,18c0-1.654,1.346-3,3-3c0.108,0,0.209,0.021,0.314,0.032C38.88,13.34,40.23,12,42.5,12   c0.487,0,0.928,0.068,1.332,0.182c0.231-0.324,0.216-0.77-0.074-1.06c-0.322-0.322-0.85-0.322-1.172,0l-1.414-1.414   c1.101-1.102,2.896-1.104,4-0.001c0.943,0.944,1.073,2.391,0.402,3.481c0.239,0.238,0.448,0.503,0.625,0.791   c0.307-0.625,0.477-1.325,0.477-2.046c0-2.619-2.134-4.75-4.757-4.75c-1.122,0-2.207,0.398-3.056,1.121L37.44,9.515l-0.219-1.856   C36.909,5.002,34.655,3,31.978,3s-4.932,2.002-5.244,4.658l-0.044,0.373C26.793,8.021,26.894,8,27,8c1.654,0,3,1.346,3,3   s-1.346,3-3,3c-1.533,0-2.786-1.16-2.964-2.645c-0.752-0.529-1.799-0.462-2.471,0.21c-0.752,0.753-0.752,1.977,0,2.729   l-1.414,1.414c-1.531-1.531-1.531-4.023,0-5.557c1.176-1.175,2.915-1.44,4.354-0.811c0.219-0.328,0.501-0.611,0.828-0.831   l-0.241-0.205c-0.849-0.723-1.934-1.121-3.057-1.121c-2.622,0-4.756,2.131-4.756,4.75c0,0.782,0.192,1.54,0.55,2.199   c0.938,0.272,1.682,0.984,1.997,1.903c0.834-0.102,1.705,0.154,2.345,0.793c1.103,1.104,1.103,2.899,0,4.001l-1.414-1.414   c0.322-0.323,0.322-0.849-0.001-1.172c-0.265-0.265-0.662-0.3-0.976-0.129C19.337,19.217,18.26,20,17,20c-1.654,0-3-1.346-3-3   c0-0.421,0.089-0.821,0.246-1.185C12.33,16.451,11,18.209,11,20.296c0,1.17,0.425,2.383,1.101,3.266C13.187,22.01,14.976,21,17,21   c2.086,0,3.924,1.071,5,2.69c1.076-1.62,2.914-2.69,5-2.69s3.924,1.071,5,2.69c1.076-1.62,2.914-2.69,5-2.69s3.924,1.071,5,2.69   c1.076-1.62,2.914-2.69,5-2.69c2.013,0,3.794,1,4.883,2.526c0.659-0.88,1.071-2.077,1.071-3.23   C52.954,17.822,51.097,15.792,48.634,15.573z M34.172,6.706c1.103,1.104,1.103,2.898,0,4.001l-1.414-1.414   c0.323-0.323,0.323-0.849,0-1.172c-0.322-0.322-0.85-0.322-1.172,0l-1.414-1.414C31.272,5.605,33.067,5.604,34.172,6.706z"></path><circle cx="38" cy="18" r="1"></circle><rect x="33" y="57" width="8" height="4"></rect><path d="M31,27c0-2.206-1.794-4-4-4s-4,1.794-4,4v5.292c2.196-1.849,4.966-3.025,8-3.241V27z"></path><path d="M47,23c-2.206,0-4,1.794-4,4v7.368c1.872,2.381,3,5.375,3,8.632v11c0,1.654-1.346,3-3,3v4h3.222   c1.589,0,2.905-1.242,2.996-2.828l1.784-31.229C51,24.794,49.206,23,47,23z"></path><path d="M41,27c0-2.206-1.794-4-4-4s-4,1.794-4,4v2.051c3.034,0.216,5.804,1.392,8,3.241V27z"></path><rect x="22" y="57" width="9" height="4"></rect></g></svg>