<svg height='100px' width='100px'  fill="#000000" xmlns="http://www.w3.org/2000/svg" data-name="Layer 1" viewBox="0 0 100 100" x="0px" y="0px"><title>medical &amp;amp; health care icon set</title><path d="M96.81,53.7,84.45,27A2,2,0,0,0,81.74,26L68.8,32.5,54.22,28.28a2,2,0,0,0-.72-.07l-11,.93a2,2,0,0,0-1.26.6l-11-.52L16.39,23.37a2,2,0,0,0-2.64,1.12L3.13,52a2,2,0,0,0,1.68,2.71l19,1.81C27,59,44.14,73.11,47,75.31a7.83,7.83,0,0,0,4.85,1.48,15.19,15.19,0,0,0,4.73-.84,4.09,4.09,0,0,0,1.81.43,4.17,4.17,0,0,0,.94-.11c2-.46,3.44-2.3,4.3-3.72a10.13,10.13,0,0,0,2.44.33,4.46,4.46,0,0,0,4.81-4.75H71a5.22,5.22,0,0,0,3.78-1.4c1.8-1.74,1.77-4.46,1.56-6l2.29-2.12,16.62-2a2,2,0,0,0,1.57-2.83ZM66.89,36.11a2,2,0,0,0,.51.46l8,19.56-1.08,1c-2.65-2.88-8.65-9.36-13.24-14-3-3-5.55-4.09-7.77-4.09-3.37,0-5.92,2.44-7.74,4.18-3,2.87-4.12,1.91-4.72,1.39s-1.07-3.13-1-5.28L43.82,33l9.63-.81ZM16.74,27.85l10.79,4.54-4.47,20L7.82,50.94ZM72,63.86c-.36.35-1.27.37-2.49.06L58.22,53.1A2,2,0,1,0,55.45,56L66.72,66.81a3.16,3.16,0,0,1,.06,2s-.64.44-3.08-.37L53.22,58.86a2,2,0,0,0-2.69,3l9.63,8.76c-.57.9-1.25,1.69-1.71,1.79-.07,0-.26-.13-.32-.17-3-2.57-8.53-8-8.58-8A2,2,0,1,0,46.75,67c.17.17,3.16,3.1,6,5.69a4.66,4.66,0,0,1-3.27-.59c-2.66-2-18.53-15-22.61-18.36l4.59-20.5,7.25.35-2.57,4a2,2,0,0,0-.32,1c-.05,1.11-.18,6.77,2.41,9,2,1.76,5.44,2.93,10.12-1.54,3.12-3,5.18-5,9.87-.16,5.29,5.4,12.46,13.2,14.14,15C72.49,61.89,72.5,63.36,72,63.86Zm7-9.37L71.36,35.69l10.32-5.16L92,52.89Z"></path></svg>