<svg height='100px' width='100px'  fill="#000000" xmlns="http://www.w3.org/2000/svg" viewBox="0 0 64 64" x="0px" y="0px"><g><path d="M59,20H57.768A9.01,9.01,0,0,0,49,13H4.3a2.3,2.3,0,0,0-1.278,4.219l1.31.873a2.99,2.99,0,0,0,2.932.224L6.014,25.835A1,1,0,0,0,6.8,26.98l3.684.737A4,4,0,0,0,13.673,27l1.576-1.182L17,38.071V50a1,1,0,0,0,1,1h4a1,1,0,0,0,1-.9l.91-9.1H35.892A4.992,4.992,0,0,0,38,40.526a11.052,11.052,0,0,0,1,.945V44a3,3,0,0,0,6,0v-.045a11.134,11.134,0,0,0,2,0V44a3,3,0,0,0,6,0V41.761l2,.889V50a1,1,0,0,0,1,1h4a1,1,0,0,0,1-1V39a1,1,0,0,0-.445-.832L58,36.465V22h1a1,1,0,0,1,1,1V35h2V23A3,3,0,0,0,59,20ZM40,15v7.5a5.5,5.5,0,0,1-11,0V15ZM6.554,16.428a1,1,0,0,1-1.109,0l-1.31-.873A.3.3,0,0,1,4.3,15H7.82l-.11.658ZM51,44a1,1,0,0,1-2,0V42.8a1,1,0,0,0-.367-.774.986.986,0,0,0-.831-.206,9.11,9.11,0,0,1-3.6,0,1,1,0,0,0-1.2.98V44a1,1,0,0,1-2,0V40.986a1,1,0,0,0-.4-.8,9.068,9.068,0,0,1-.8-.7l1.768-1.061A3,3,0,0,1,43.108,38h4.57a8.96,8.96,0,0,0,3.353,2.857.835.835,0,0,0-.031.129Zm5-7a1,1,0,0,0,.445.832L59,39.535V49H57V42a1,1,0,0,0-.594-.914L52.157,39.2A7,7,0,0,1,48,32.8V32H46v.8a8.946,8.946,0,0,0,.613,3.2H43.108a5.009,5.009,0,0,0-2.573.712l-3.1,1.86A3.01,3.01,0,0,1,35.892,39H24V35H22v4.949L21.1,49H19V38a.969.969,0,0,0-.01-.142l-2-14A1,1,0,0,0,15.4,23.2l-2.927,2.2a2,2,0,0,1-1.592.361l-2.735-.547L9.54,16.842l.015-.01-.011-.015L9.847,15H22.7a.3.3,0,0,1,.168.555l-1.454.969a1.006,1.006,0,0,1-1,.062l-.962-.481-.894,1.79.962.48a3.006,3.006,0,0,0,3.006-.187l1.454-.969A2.3,2.3,0,0,0,25,15.3a2.16,2.16,0,0,0-.031-.3H27v7.5a7.5,7.5,0,0,0,15,0V15h7a7.008,7.008,0,0,1,7,7V37Z"></path><path d="M48,18a4,4,0,0,0-4,4v4a4,4,0,0,0,8,0V22A4,4,0,0,0,48,18Zm2,8a2,2,0,0,1-4,0V22a2,2,0,0,1,4,0Z"></path></g></svg>