<svg height='100px' width='100px'  fill="#000000" xmlns="http://www.w3.org/2000/svg" xmlns:xlink="http://www.w3.org/1999/xlink" version="1.1" x="0px" y="0px" viewBox="0 0 100 100" style="enable-background:new 0 0 100 100;" xml:space="preserve"><g><path d="M56.3,81.6c0,2.8-2.3,5-5,5h-5.5c-2.8,0-5-2.3-5-5v-4.1c-1.3-0.1-2.7-0.3-3.9-0.5v4.6c0,4.9,4,8.9,8.9,8.9h5.5   c4.9,0,8.9-4,8.9-8.9v-4.7c-1.3,0.2-2.6,0.4-3.9,0.5V81.6z"></path><path d="M37.8,20.2c0,5.9,4.8,10.7,10.7,10.7s10.7-4.8,10.7-10.7S54.4,9.5,48.5,9.5S37.8,14.3,37.8,20.2z M48.5,13.4   c3.7,0,6.8,3,6.8,6.8c0,3.7-3,6.8-6.8,6.8c-3.7,0-6.8-3-6.8-6.8C41.8,16.4,44.8,13.4,48.5,13.4z"></path><path d="M85,66.8c-0.6-3.2-1.7-6.4-3.3-9.7c-0.3-0.6-0.7-1.3-1.1-2c-0.1-0.2-0.3-0.3-0.5-0.3c-0.2,0-0.4,0-0.5,0.2   c-2.6,2.4-5.6,4.8-8.9,7.2c-1.4,1-2.9,2-4.5,3.1c-0.2,0.2-0.3,0.4-0.3,0.7c0.1,0.3,0.3,0.5,0.6,0.5c0.7,0.1,1.5,0.1,2.2,0.2   c0.8,0.1,1.5,0.1,2.3,0.2c-0.4,0.2-0.8,0.4-1.3,0.5c-1.2,0.4-2.4,0.9-3.7,1.2c-1.8,0.5-3.7,0.9-5.7,1.2v-4c2.1-1.7,3.4-4.3,3.4-7   V41.1c0-4.9-4-8.9-8.9-8.9H42.4c-4.9,0-8.9,4-8.9,8.9v7C22.3,50.3,15,55,15,60.7c0,0.9,0.2,1.8,0.6,2.7c2.9,6.6,16,11.2,32.7,11.2   c13.2,0,24.2-2.9,29.6-7.4c2.2,0.1,4.3,0.2,6.5,0.3c0,0,0,0,0,0c0,0,0.1,0,0.1,0c0.1,0,0.3-0.1,0.4-0.2C85,67.2,85.1,67,85,66.8z    M36.8,69.9c-3.7-0.6-7.1-1.4-10-2.5c-3.9-1.5-6.5-3.3-7.5-5.1c-0.1-0.2-0.2-0.5-0.3-0.7c-0.1-0.3-0.1-0.5-0.1-0.8   c0-2.3,3-4.8,7.9-6.7c2-0.8,4.2-1.4,6.6-1.9v6.6c0,2.7,1.3,5.3,3.4,7V69.9z M59.7,58.8c0,1.7-0.9,3.4-2.5,4.3c-0.6,0.4-1,1-1,1.7   v5.6c-2.6,0.3-5.3,0.4-8,0.4c-2.6,0-5.1-0.1-7.5-0.4v-5.7c0-0.7-0.4-1.3-1-1.7c-1.5-0.9-2.5-2.6-2.5-4.3V41.1c0-2.8,2.3-5,5-5h12.3   c2.8,0,5,2.3,5,5V58.8z"></path></g></svg>