<svg height='100px' width='100px'  fill="#000000" xmlns="http://www.w3.org/2000/svg" xmlns:xlink="http://www.w3.org/1999/xlink" version="1.1" x="0px" y="0px" viewBox="0 0 68 68" enable-background="new 0 0 68 68" xml:space="preserve"><g><g><path d="M60.6442,56.7052H23.1413c-0.4067,0-0.583-0.2861-0.6401-0.4092s-0.1611-0.4424,0.0605-0.707l3.3168-3.4639h7.2696    h16.5381h7.0054c1.6191,0,2.9683-1.2148,3.1382-2.8252l2.5098-23.8467c0.0933-0.8877-0.1958-1.7773-0.7935-2.4414    c-0.2755-0.3059-0.61-0.5438-0.9736-0.72c0.0037-0.1929,0.0102-0.3887,0.0102-0.5779c0-8.9854-3.4229-16.0244-7.793-16.0244    c-4.375,0-7.8022,7.0391-7.8022,16.0244c0,0.0831,0.0037,0.1699,0.0045,0.2539h-1.9254c0.2397-2.0303,0.3626-3.7188,0.3458-4.4307    c-0.0239-1.0254-0.3577-1.9939-0.946-2.8088c1.6029-1.5256,3.4729-5.0613,4.2981-6.7166    c0.1357-0.2725,0.1401-0.5918,0.0117-0.8682s-0.376-0.4785-0.6719-0.5498C44.3693,6.169,42.2971,7.42,40.8605,8.547    c-0.5464-3.0352-2.6152-5.9727-2.7251-6.127c-0.2349-0.3311-0.645-0.4863-1.0415-0.3936    c-0.3945,0.0918-0.6948,0.4131-0.7598,0.8135l-0.9497,5.8447l-3.1313-2.6045c-0.2583-0.2148-0.6064-0.2852-0.9268-0.1895    c-0.3213,0.0967-0.5728,0.3477-0.6699,0.668c-1.007,3.3254,2.3547,6.8049,3.7545,8.0764    c-0.687,0.9026-1.0659,1.9895-1.0387,3.1384c0.016,0.6859,0.2044,2.2732,0.5179,4.1943h-0.4453l-0.4164-1.6572    c-0.4399-1.752-1.9644-3.146-4.1289-3.1934L25.8024,4.7921c-0.1343-0.5352-0.6802-0.8574-1.2134-0.7256l-4.1392,1.04    C20.32,5.139,20.1998,5.1975,20.0947,5.2762c-0.0971,0.0726-0.1756,0.1646-0.2399,0.2651    c-0.0052,0.0083-0.0142,0.0129-0.0192,0.0212c-0.0001,0-0.0001,0.0002-0.0001,0.0002c-0.0664,0.1108-0.1106,0.2347-0.1302,0.3645    c-0.0195,0.1298-0.0142,0.2632,0.0186,0.3931l3.0957,12.3213c-0.9457,0.4987-1.639,1.338-1.9879,2.3165l-4.9774-10.1554    c-0.168-0.3428-0.5161-0.5596-0.8979-0.5596h-8.313c-0.5522,0-1,0.4473-1,1s0.4478,1,1,1h7.6895l5.3897,10.9965l4.0615,28.0289    c0.0059,0.0408,0.0276,0.0745,0.0382,0.1134l-2.7457,2.869c-0.6885,0.8135-0.8379,1.9199-0.3896,2.8867    s1.3887,1.5674,2.4546,1.5674h1.56c-0.5245,0.7524-0.8369,1.6628-0.8369,2.6475c0,2.5625,2.085,4.6475,4.6479,4.6475    c2.5625,0,4.6475-2.085,4.6475-4.6475c0-0.9846-0.3123-1.895-0.8368-2.6475h16.822c-0.5245,0.7524-0.8368,1.6628-0.8368,2.6475    c0,2.5625,2.085,4.6475,4.6475,4.6475c2.563,0,4.6479-2.085,4.6479-4.6475c0-0.9846-0.3124-1.895-0.8369-2.6475h3.8774    c0.5522,0,1-0.4473,1-1S61.1965,56.7052,60.6442,56.7052z M48.7365,50.1251H34.0798l-0.498-7.0352H49.098L48.7365,50.1251z     M49.2008,41.0899H33.4402l-0.5723-8.0859h16.7485L49.2008,41.0899z M57.8405,49.0909c-0.062,0.5898-0.5562,1.0342-1.1489,1.0342    h-5.9528l0.3616-7.0352h7.3717L57.8405,49.0909z M58.6826,41.0899h-7.4794l0.4156-8.0859h7.9147L58.6826,41.0899z     M60.0598,24.3507c0.2222,0.2461,0.3252,0.5635,0.2905,0.8936l-0.6062,5.7598h-8.0225l0.3616-7.0361h7.1181    C59.5329,23.9678,59.8381,24.1036,60.0598,24.3507z M52.7897,7.6895c2.7402,0,5.793,5.7598,5.793,14.0244    c0,0.0848-0.0045,0.1692-0.0057,0.2539h-7.4435h-4.1402c-0.0013-0.0847-0.0058-0.1691-0.0058-0.2539    C46.9875,13.4493,50.0456,7.6895,52.7897,7.6895z M32.7326,9.0811l2.7183,2.2607c0.2754,0.2305,0.6528,0.2949,0.9897,0.168    c0.3364-0.126,0.5796-0.4219,0.6367-0.7764l0.7827-4.8145c0.7021,1.457,1.3101,3.2344,1.0854,4.627    c-0.0693,0.4287,0.147,0.8535,0.5347,1.0508c0.3877,0.1943,0.8579,0.1201,1.1636-0.1885    c0.8877-0.8965,2.2437-1.9766,3.4097-2.5322c-1.1979,2.177-2.405,3.9741-3.0374,4.5007    c-0.8143-0.5066-1.7523-0.7749-2.7419-0.7419c-0.8417,0.0197-1.6362,0.2666-2.3487,0.6724    C34.9851,12.473,33.3604,10.7562,32.7326,9.0811z M41.063,21.9678h-5.1566c-0.3115-1.8154-0.5153-3.3953-0.5351-4.2412    c-0.0383-1.6644,1.2797-3.0533,2.9502-3.0918c0.0244-0.001,0.0488-0.001,0.0732-0.001c1.6343,0,2.9797,1.3082,3.0186,2.9502    C41.4335,18.4493,41.2983,20.0883,41.063,21.9678z M50.0808,23.9678l-0.3616,7.0361H32.7263l-0.498-7.0361H50.0808z     M32.0748,50.1251h-6.4355l-1.0195-7.0352h6.9569L32.0748,50.1251z M24.1066,6.2501l0.8469,3.3701l-2.1995,0.5527l-0.8472-3.3701    L24.1066,6.2501z M24.2477,20.2218c0.5356-0.1348,0.8608-0.6777,0.7261-1.2139l-1.7326-6.895l2.1998-0.5527l1.733,6.896    c0.1343,0.5352,0.6821,0.8604,1.2134,0.7256c1.1892-0.295,2.4026,0.428,2.7017,1.6162v0.001l0.2886,1.1475l-0.0855,0.0215H31.155    h-8.544C22.7686,21.1429,23.381,20.4393,24.2477,20.2218z M21.8844,23.9678h8.3388l0.4981,7.0361h-7.8528    C22.8212,30.6659,21.8214,23.5175,21.8844,23.9678z M23.1583,33.004h7.7046l0.5724,8.0859H24.33L23.1583,33.004z M28.5124,64.0001    c-1.46,0-2.6479-1.1875-2.6479-2.6475s1.188-2.6475,2.6479-2.6475s2.6475,1.1875,2.6475,2.6475S29.9724,64.0001,28.5124,64.0001z     M52.9558,64.0001c-1.46,0-2.6475-1.1875-2.6475-2.6475s1.1875-2.6475,2.6475-2.6475s2.6479,1.1875,2.6479,2.6475    S54.4157,64.0001,52.9558,64.0001z"></path><path d="M51.072,15.2784h3.4258c0.5522,0,1-0.4473,1-1s-0.4478-1-1-1H51.072c-0.5522,0-1,0.4473-1,1    S50.5197,15.2784,51.072,15.2784z"></path><path d="M51.072,20.9503h3.4258c0.5522,0,1-0.4473,1-1s-0.4478-1-1-1H51.072c-0.5522,0-1,0.4473-1,1    S50.5197,20.9503,51.072,20.9503z"></path></g></g></svg>