<svg height='100px' width='100px'  fill="#000000" xmlns="http://www.w3.org/2000/svg" xmlns:xlink="http://www.w3.org/1999/xlink" xmlns:a="http://ns.adobe.com/AdobeSVGViewerExtensions/3.0/" version="1.1" x="0px" y="0px" viewBox="-9.346 -33.505 100 100" enable-background="new -9.346 -33.505 100 100" xml:space="preserve"><path d="M47.661,5.974c0,0-1.127-2.094-2.898-1.128C42.292,6.192,30.899,10,29.95,10.322c-0.951,0.32-1.771-2.254-3.865-2.416  s-10.789,5.151-10.789,5.151L9.499,7.906c-0.967,5.314,4.188,9.824,4.188,9.824l-3.223,5.313c5.152,5.635,19.486,4.83,19.486,4.83  c-2.256-8.051,16.721-13.828,17.711-15.782C48.233,10.967,47.661,5.974,47.661,5.974z M26.327,13.141  c-1.023,0.438-2.02,0.393-2.23-0.098c-0.209-0.49,0.449-1.241,1.471-1.68c1.023-0.438,2.021-0.393,2.23,0.099  C28.011,11.952,27.349,12.703,26.327,13.141z"></path><path d="M8.532,26.345c9.34,7.085,21.014,4.83,21.014,4.83v5.798H0L8.532,26.345z"></path><path d="M31.222,32.932v-1.099c1.031,0,1.869-0.837,1.869-1.866c0-1.027-0.838-1.865-1.869-1.865v-1.099  c1.635,0,2.965,1.33,2.965,2.964C34.187,31.602,32.856,32.932,31.222,32.932z"></path><path d="M69.372,18.519h1.334c0,1.254,1.018,2.271,2.271,2.271c1.25,0,2.268-1.017,2.268-2.271h1.332c0,1.986-1.613,3.604-3.6,3.604  S69.372,20.505,69.372,18.519z"></path><path d="M82.282,17.326c1.047-0.321,1.207-8.938,0.482-10.066C82.04,6.135,73.28-1.566,71.349,0.286  c-1.932,1.852,3.283,3.677,3.688,5.125c0.404,1.449,0.322,11.915,0.322,11.915S81.235,17.646,82.282,17.326z"></path><path d="M52.573,5.732c0,1.527,13.768,0.32,13.768,1.854c0,1.148-15.057-0.887-15.057,1.079c0,1.964,15.299-0.034,15.299,2.061  c0,1.528-15.789-0.967-15.781,1.208c0.008,1.973,16.023,0.482,16.023,2.332c0,1.859-13.609-0.322-13.609,1.207  c0,2.004,17.705,1.855,17.705,1.855V5.17C70.921,5.17,52.573,3.155,52.573,5.732z"></path><path d="M36.343,29.385c0.021,0.192,0.033,0.385,0.033,0.582c0,0.608-0.105,1.191-0.299,1.732c5.516,2.719,10.363,3.769,14.57,3.769  c11.973,0,18.717-8.525,20.648-11.405H71.29c-0.709-0.215-1.363-0.565-1.928-1.019l0.004,0.002  c-2.514,3.791-12.932,16.672-33.029,6.335"></path></svg>