<?xml version="1.0" encoding="utf-8"?>
<!-- Generator: Adobe Illustrator 24.2.1, SVG Export Plug-In . SVG Version: 6.00 Build 0)  -->
<svg version="1.1" id="Layer_1" xmlns="http://www.w3.org/2000/svg" xmlns:xlink="http://www.w3.org/1999/xlink" x="0px" y="0px"
	 viewBox="0 0 100 100" enable-background="new 0 0 100 100" xml:space="preserve">
<g>
	<path fill-rule="evenodd" clip-rule="evenodd" d="M-359.74,138.725h7.792l0,0h29.044c2.479,0,4.486,2.007,4.486,4.486v21.015
		c0,2.479-2.007,4.486-4.486,4.486h-32.586c-2.952,0.826-6.848,0.472-10.744-0.118c-2.479-0.472-7.202,0.945-7.792,0.708
		c-11.334-4.841,1.181-0.59,1.063-2.243c0-4.723,7.792-2.007,4.723-4.604c-0.118,0-1.417-1.063-4.486,0.708
		c-2.361,1.299-7.792,0-7.91,0.118c-1.181,0.118-8.146,1.653-1.063-0.826c1.063-0.354,2.007-0.826,2.834-1.063
		c8.737-1.653,2.361-2.952-1.889-1.889c-0.472,0.118-1.535,1.299-2.597,0.708c-0.118-0.118-4.25,2.125-5.785-0.236
		c-2.125-3.07-8.028-0.236-8.737-0.472c-3.306-1.417-8.264-4.604-9.327-4.486c-6.257,0.59,1.181-1.417,3.07-0.945
		c0.59,0.236,6.257,4.368,9.799,1.653c3.306-2.479,8.855,0,8.973-0.236c0.472-1.771,4.486-1.299,6.139-1.653
		c3.306-0.472-0.236-2.597-4.132-0.472c-1.063,0.59-2.479-0.472-3.778-0.354c-1.417,0.236-2.597,1.417-4.604-0.472
		c-1.771-1.771-6.021-2.834-6.021-2.834c7.556-1.771,6.966,0.472,11.216-1.889c0.708-0.354,4.723-2.597,7.792-0.236
		c5.903,4.368,11.216-3.542,2.952-1.181c-4.959,1.417,1.181-2.834,5.195-1.299c2.952,0.945,3.896,0,3.896,0
		c3.66,0-1.889-1.771-1.889-1.771c-2.125-2.243-10.035,1.299-13.105-0.354c-3.07-1.653,6.612-1.653,7.674-2.597
		c2.952-2.597,7.91-2.007,12.987-1.417C-360.567,138.843-360.213,138.725-359.74,138.725z M-345.455,143.802l14.994,9.327
		l-14.522,9.799l-0.472-0.118V143.802z"/>
	<path fill-rule="evenodd" clip-rule="evenodd" d="M-370.838-106.021c-0.59,0-1.181,0.118-1.653,0.236
		c-1.417,0.236-3.778,0.826-4.368-1.181c-0.118-0.472-0.118-0.945,0-1.299c-1.535,0.118-2.952-0.354-4.014-1.889
		c-1.063-1.653-5.903,0.945-7.674,0.236c-2.007-0.945-6.966-4.014-8.146-4.25c-1.535,0.118-4.25,0.59-4.604-1.653
		c-0.354-3.07,6.257-3.542,7.91-3.07c2.007,0.59,5.667,3.66,7.91,1.889c0.472-0.354,0.944-0.59,1.417-0.826
		c-0.236-0.118-0.354-0.236-0.59-0.236c-0.708-0.472-1.535-0.708-2.361-1.063c-0.236-0.118-0.59-0.118-0.826-0.236
		c-1.889-0.59-2.479-3.424-0.236-3.896c3.424-0.826,4.841-0.59,7.91-0.708c0.944-0.118,1.771-0.472,2.597-0.945
		c1.417-0.708,2.834-1.299,4.368-1.417c-0.826-0.59-1.417-1.417-1.299-2.361c0.472-3.306,6.966-2.479,8.737-3.188
		c3.66-3.188,9.445-2.479,13.932-2.007c0.472-0.118,0.945-0.118,1.417-0.118h36.128c3.424,0,6.375,2.834,6.375,6.375v20.543
		c0,3.542-2.952,6.375-6.375,6.375h-31.759c-3.424,0.945-7.674,0.354-11.098-0.236c-2.125-0.354-6.493,1.299-8.028,0.59
		c-1.535-0.59-6.612-2.125-5.667-4.723c0.118-0.354,0.354-0.708,0.59-0.945C-370.484-106.021-370.72-106.021-370.838-106.021z
		 M-351.24-131.405h7.32h0.118h27.509c2.361,0,4.25,1.889,4.25,4.25v19.953c0,2.361-1.889,4.25-4.25,4.25h-30.933
		c-2.715,0.826-6.494,0.472-10.272-0.236c-2.243-0.354-6.73,0.945-7.32,0.708c-10.744-4.604,1.063-0.472,1.063-2.125
		c0-4.368,7.32-1.771,4.486-4.25c-0.118-0.118-1.417-1.063-4.25,0.59c-2.243,1.299-7.556,0.118-7.674,0.118
		c-1.063,0.118-7.674,1.535-0.945-0.826c1.063-0.354,1.889-0.826,2.715-0.945c8.264-1.535,2.243-2.715-1.771-1.889
		c-0.472,0.118-1.535,1.299-2.479,0.708c-0.118-0.118-4.014,2.007-5.549-0.118c-2.007-2.952-7.556-0.236-8.264-0.59
		c-3.07-1.299-7.792-4.368-8.855-4.25c-5.903,0.59,1.063-1.299,2.952-0.826c0.59,0.236,5.903,4.132,9.327,1.535
		c3.07-2.361,8.383,0.118,8.501-0.236c0.354-1.653,4.25-1.181,5.785-1.535c3.07-0.472-0.236-2.479-3.896-0.472
		c-1.063,0.59-2.361-0.472-3.542-0.236c-1.417,0.236-2.479,1.299-4.368-0.472c-1.771-1.653-5.785-2.715-5.785-2.834
		c7.202-1.535,6.612,0.59,10.744-1.771c0.59-0.354,4.368-2.361,7.32-0.236c5.549,4.25,10.626-3.306,2.834-1.063
		c-4.723,1.417,1.063-2.597,4.959-1.181c2.715,0.945,3.66,0,3.66,0c3.424,0-1.771-1.653-1.889-1.653
		c-1.889-2.125-9.445,1.181-12.397-0.354c-2.834-1.535,6.257-1.653,7.32-2.479c2.834-2.479,7.556-1.889,12.279-1.417
		C-352.066-131.405-351.712-131.405-351.24-131.405z M-337.78-126.564l14.404,8.737l-13.932,9.327h-0.472V-126.564z
		 M-334.475-123.495v11.806l9.209-6.139L-334.475-123.495z"/>
	<path fill-rule="evenodd" clip-rule="evenodd" d="M-363.046,87.957c0-0.118,0-0.236,0-0.354c-0.59,0-1.181,0-1.889,0
		C-364.227,87.721-363.636,87.839-363.046,87.957z M-336.246,56.907c9.563,0,17.355,7.91,17.355,17.591
		c0,9.563-7.792,17.473-17.355,17.473c-1.771,0-3.542-0.354-5.195-0.826c-3.306,0.826-7.674,0.472-12.043-0.354
		c-2.715-0.472-8.146,1.181-8.737,0.826c-12.987-5.431,1.181-0.59,1.181-2.479c0-5.313,8.855-2.243,5.313-5.195
		c-0.118-0.118-1.653-1.181-5.077,0.708c-2.597,1.535-8.855,0.118-9.091,0.118c-1.181,0.236-9.209,1.889-1.181-0.826
		c1.299-0.472,2.361-1.063,3.188-1.181c9.917-1.889,2.715-3.306-2.125-2.243c-0.472,0.118-1.653,1.417-2.834,0.826
		c-0.236-0.118-4.841,2.361-6.612-0.236c-2.361-3.542-9.209-0.236-9.917-0.59c-3.778-1.653-9.327-5.313-10.626-5.077
		c-7.084,0.708,1.299-1.653,3.424-1.063c0.826,0.236,7.202,4.959,11.216,1.889c3.778-2.834,10.035,0,10.154-0.354
		c0.472-1.889,5.195-1.417,6.966-1.771c3.778-0.59-0.236-2.952-4.604-0.59c-1.181,0.708-2.834-0.59-4.368-0.354
		c-1.535,0.354-2.952,1.653-5.077-0.472c-2.125-2.125-6.966-3.306-6.966-3.424c8.619-1.889,7.91,0.59,12.751-2.125
		c0.826-0.354,5.313-2.834,8.855-0.236c6.73,5.077,12.751-4.014,3.306-1.299c-5.549,1.653,1.417-3.188,6.021-1.535
		c3.188,1.181,4.368,0.118,4.368,0.118c4.132,0-2.125-2.007-2.125-2.007c-2.361-2.597-11.334,1.417-14.994-0.472
		c-3.424-1.771,7.556-1.889,8.737-2.952c4.604-3.896,13.341-1.417,21.015-1.063c1.299-0.472,2.715-0.708,4.132-0.708
		c-0.118-0.118,0-0.118,0.354-0.118H-336.246z M-338.961,83.235V67.651l12.161,7.556l-11.924,8.028H-338.961z M-367.887,87.367
		c-0.708-0.118-1.299-0.236-1.889-0.354c-0.708,0.118-1.535,0.236-2.243,0.354c-1.535,0.236-4.014,0.945-4.723-1.181
		c-0.118-0.708,0-1.299,0.472-1.771c-1.889,0.236-3.778,0-5.077-2.007c-1.535-2.243-7.202,0.945-9.091,0.118
		c-2.125-0.945-8.264-4.604-9.681-4.959c-10.153,1.063-2.952-6.848,3.896-4.723c2.361,0.708,6.612,4.368,9.445,2.125
		c0.708-0.59,1.417-0.945,2.125-1.181c-0.354-0.236-0.826-0.472-1.181-0.708c-0.944-0.472-1.889-0.826-2.834-1.181
		c-0.354-0.118-0.59-0.236-0.944-0.354c-1.889-0.59-2.597-3.306-0.236-3.778c3.778-0.945,5.431-0.708,9.091-0.826
		c1.063-0.118,2.125-0.59,3.07-1.181c2.007-1.063,4.25-1.771,6.375-1.653c-0.354-0.118-0.59-0.236-0.945-0.354
		c-0.944-0.59-1.771-1.417-1.653-2.715c0.472-3.424,8.028-2.597,10.035-3.424c5.313-4.604,15.466-2.007,22.078-1.653
		c1.417-0.354,2.834-0.59,4.25-0.708c0.236,0,0.354,0,0.472,0h0.59c10.744,0,19.362,8.737,19.362,19.481
		c0,10.626-8.619,19.362-19.362,19.362c-1.771,0-3.542-0.236-5.313-0.708c-3.778,0.826-8.501,0.236-12.279-0.354
		c-2.479-0.472-7.556,1.417-9.209,0.708c-1.535-0.708-7.438-2.361-6.494-5.077C-369.421,87.721-368.713,87.367-367.887,87.367z
		 M-369.185,64.345c0.354,0.118,0.59,0.236,0.945,0.354c0.118-0.118,0.236-0.118,0.354-0.236
		C-368.359,64.463-368.831,64.463-369.185,64.345z M-337.308,79.929l6.73-4.486l-6.73-4.132V79.929z"/>
	<path fill-rule="evenodd" clip-rule="evenodd" d="M-402.361-51.594c-0.945,0.59-2.007,0.826-3.07,0.708
		c-1.653,0.708-4.723,0.354-5.667,0.354c-1.299,0-6.612,0.59-6.612-1.771c0-1.063,1.063-1.535,2.361-1.653
		c0.236-0.59,0.708-0.826,1.417-0.945c0.118-0.472,0.472-0.708,0.826-0.945c-2.479,0.118-5.195-0.236-7.438-0.59
		c-2.007-0.354-6.257,1.063-7.556,0.59c-1.299-0.59-6.139-2.007-5.313-4.132c0.236-0.826,0.945-1.063,1.771-1.063
		c-0.59-0.118-1.299-0.236-1.889-0.354c-0.59,0.118-1.181,0.236-1.771,0.354c-1.181,0.118-3.306,0.708-3.778-0.945
		c-0.236-0.59,0-1.181,0.354-1.535c-1.535,0.236-3.188,0-4.25-1.653c-1.181-1.771-5.903,0.826-7.438,0.118
		c-1.771-0.708-6.848-3.896-7.91-4.132c-1.299,0.236-3.778,0.59-4.014-1.299c-0.354-2.479,5.667-2.952,7.202-2.479
		c1.889,0.59,5.313,3.542,7.792,1.771c0.59-0.472,1.181-0.826,1.771-1.063c-0.354-0.236-0.708-0.354-1.063-0.59
		c-0.708-0.354-1.535-0.708-2.361-0.945c-0.236-0.118-0.472-0.118-0.826-0.236c-1.535-0.472-2.007-2.834-0.118-3.188
		c3.188-0.708,4.486-0.472,7.438-0.59c0.945-0.118,1.771-0.472,2.597-0.945c2.361-1.299,5.313-2.007,7.792-0.826
		c0.118-0.236,0.354-0.472,0.708-0.708c-1.653,0.472-3.66-0.236-5.313-0.59c-1.181-0.236-2.715-0.708-2.715-2.243
		c0.118-2.361,5.077-2.361,6.73-2.125c1.417,0.354,1.181-0.472,2.597-0.708c1.535-0.236,1.417-0.118,2.834,0.118
		c0.354,0.118,1.299,0.236,1.889,0.354c0.354-0.59,0.826-0.945,1.535-1.181c2.834-0.472,5.431-0.826,8.383-0.59
		c0.354-0.118,0.826-0.118,1.299-0.118h34.357c3.188,0,5.785,2.597,5.785,5.785v19.599c0,3.188-2.597,5.785-5.785,5.785h-3.188
		c-0.118,0.472-0.236,0.945-0.472,1.299c-1.181,2.715-4.132,5.195-7.084,4.014c-1.771,0.59-4.368,0.354-5.313,0.354
		C-396.93-50.531-401.299-50.059-402.361-51.594z M-386.187-61.393c-1.771-0.826-4.132,0.59-5.313,3.07
		c-1.181,2.597-0.708,5.313,1.181,6.139c1.771,0.826,4.132-0.59,5.313-3.188C-383.825-57.851-384.298-60.567-386.187-61.393z
		 M-395.159-53.365c-1.771,0-3.188,0.118-3.188,0.236c0,0.118,1.417,0.236,3.188,0.236c1.653,0,3.07-0.118,3.07-0.236
		C-392.09-53.247-393.507-53.365-395.159-53.365z M-394.451-54.073c-1.299,0-2.361,0-2.361,0.118c0,0.118,1.063,0.236,2.361,0.236
		c1.299,0,2.361-0.118,2.361-0.236C-392.09-54.073-393.152-54.073-394.451-54.073z M-395.986-52.302
		c-2.834,0-5.077,0.118-5.077,0.118c0,0.118,2.243,0.236,5.077,0.236s5.195-0.118,5.195-0.236
		C-390.791-52.184-393.152-52.302-395.986-52.302z M-410.272-54.427c-1.299,0-2.243,0.118-2.243,0.236
		c0,0.118,0.945,0.118,2.243,0.118c1.181,0,2.243,0,2.243-0.118C-408.028-54.309-409.091-54.427-410.272-54.427z M-410.98-53.365
		c-1.653,0-3.07,0.118-3.07,0.236c0,0.118,1.417,0.236,3.07,0.236c1.771,0,3.188-0.118,3.188-0.236
		C-407.792-53.247-409.209-53.365-410.98-53.365z M-411.216-52.302c-2.834,0-5.077,0.118-5.077,0.236s2.243,0.118,5.077,0.118
		s5.195,0,5.195-0.118S-408.383-52.302-411.216-52.302z M-414.286-85.596h7.202l0,0h27.155c2.243,0,4.132,1.889,4.132,4.132v19.599
		c0,2.361-1.889,4.25-4.132,4.25h-3.424c0.118-1.889-0.472-3.66-2.243-4.486c-2.715-1.299-5.549,1.181-6.612,3.542
		c-0.118,0.354-0.236,0.59-0.354,0.945h-6.612c0.236-2.007-0.354-4.132-2.243-5.077c-2.715-1.181-5.549,1.299-6.612,3.66
		c-0.236,0.354-0.354,0.945-0.472,1.417h-1.889c-2.715,0.708-6.375,0.354-10.035-0.236c-2.243-0.354-6.612,0.945-7.202,0.708
		c-10.626-4.486,1.063-0.472,1.063-2.125c-0.118-4.25,16.057-3.07,4.368-4.132c-0.118-0.118-1.417-1.063-4.25,0.59
		c-2.125,1.181-7.32,0-7.438,0c-1.063,0.236-7.556,1.535-0.944-0.708c1.063-0.354,1.889-0.826,2.597-0.945
		c8.146-1.535,2.243-2.715-1.771-1.771c-0.354,0-1.417,1.181-2.361,0.59c-0.118-0.118-3.896,2.007-5.431-0.118
		c-1.889-2.952-7.438-0.236-8.146-0.59c-2.952-1.299-7.674-4.25-8.737-4.132c-5.785,0.59,1.181-1.299,2.952-0.826
		c0.59,0.236,5.903,4.014,9.209,1.535c3.07-2.361,8.146,0,8.264-0.236c0.472-1.653,4.25-0.945,5.785-1.535
		c0.472-0.118,0.708-0.59,0.944-0.472c8.737,2.007-1.535-1.889-4.841,0c-0.944,0.59-2.243-0.472-3.542-0.236
		c-1.299,0.236-2.361,1.299-4.25-0.472c-1.653-1.653-5.667-2.715-5.549-2.715c6.966-1.653,6.375,0.472,10.39-1.771
		c0.708-0.354,4.368-2.361,7.32-0.236c2.715,2.125,4.959-0.354,6.257,0.236c3.542,1.299,2.597,0.945,3.542,1.299
		c5.431,2.007,11.806,1.417,2.597,0.236c-0.472-0.118-0.826-0.472-1.299-0.708c-2.834-1.181-6.73-2.597-8.383-2.125
		c-4.604,1.299,1.063-2.597,4.841-1.181c2.715,0.945,3.66,0,3.66,0c12.279,1.417,12.279-0.118,6.966-0.708
		c0,0-0.354,0.59-2.007-0.945c-2.361-1.889-6.139,0.118-6.73,0c-2.834-0.354-6.612-2.715-8.737-0.708
		c-1.181,1.063-3.306,0.354-5.313-0.118c-3.896-0.826,1.417-1.653,3.424-1.299c2.125,0.354,2.243-0.59,3.188-0.708
		c1.417-0.236,0.944-0.236,2.361,0.118c4.723,0.945,2.597-0.59,4.014-0.826c2.479-0.472,5.077-0.945,8.146-0.59
		C-415.112-85.596-414.758-85.596-414.286-85.596z M-396.576-80.756l13.105,8.028l-12.633,8.501h-0.472V-80.756z M-401.889-61.747
		c-1.771-0.826-4.25,0.59-5.431,3.188c-1.063,2.479-0.59,5.195,1.181,6.021c1.889,0.826,4.25-0.59,5.431-3.07
		C-399.528-58.205-400.118-60.921-401.889-61.747z M-402.952-59.504c-0.945-0.354-2.125,0.354-2.715,1.653
		c-0.59,1.299-0.354,2.715,0.59,3.07c0.945,0.472,2.125-0.236,2.715-1.535C-401.771-57.615-402.007-59.032-402.952-59.504z
		 M-387.131-59.15c-0.945-0.472-2.243,0.236-2.834,1.535c-0.59,1.299-0.236,2.715,0.59,3.188c0.945,0.354,2.125-0.354,2.834-1.653
		C-385.95-57.379-386.305-58.678-387.131-59.15z"/>
	<path fill-rule="evenodd" clip-rule="evenodd" d="M-357.143,14.286c9.091,0,16.529,7.32,16.529,16.411s-7.438,16.411-16.529,16.411
		c-9.209,0-16.529-7.32-16.529-16.411S-366.352,14.286-357.143,14.286z M-356.316,26.21h2.243l0,0h8.383
		c0.826,0,1.417,0.59,1.417,1.299v6.139c0,0.708-0.59,1.299-1.417,1.299h-9.445c-0.826,0.236-1.889,0.118-3.07-0.118
		c-0.708-0.118-2.125,0.236-2.243,0.236c-3.306-1.417,0.354-0.118,0.354-0.708c0-1.299,2.243-0.472,1.299-1.299
		c0,0-0.354-0.236-1.299,0.236c-0.708,0.354-2.243,0-2.243,0c-0.354,0-2.361,0.472-0.354-0.236c0.354-0.118,0.59-0.236,0.826-0.236
		c2.479-0.472,0.708-0.945-0.59-0.59c-0.118,0-0.354,0.354-0.708,0.118c0,0-1.181,0.708-1.653,0
		c-0.59-0.945-2.361-0.118-2.597-0.118c-0.945-0.472-2.361-1.417-2.715-1.299c-1.771,0.118,0.354-0.472,0.945-0.236
		c0.118,0,1.771,1.181,2.834,0.472c0.945-0.826,2.597,0,2.597-0.118c0.118-0.472,1.299-0.354,1.771-0.472
		c0.944-0.118,0-0.708-1.181-0.118c-0.354,0.118-0.708-0.118-1.063-0.118c-0.472,0.118-0.826,0.472-1.299-0.118
		c-0.59-0.59-1.771-0.826-1.771-0.826c2.125-0.59,2.007,0.118,3.188-0.59c0.236-0.118,1.417-0.708,2.243-0.118
		c1.771,1.299,3.306-0.945,0.945-0.236c-1.535,0.354,0.236-0.826,1.417-0.472c0.826,0.354,1.181,0.118,1.181,0.118
		c1.063,0-0.59-0.59-0.59-0.59c-0.59-0.59-2.834,0.354-3.778-0.118c-0.826-0.472,1.889-0.472,2.243-0.708
		c0.826-0.708,2.243-0.59,3.778-0.472C-356.553,26.21-356.434,26.21-356.316,26.21z M-352.184,27.627l4.368,2.715l-4.25,2.834
		h-0.118V27.627z"/>
	<path fill-rule="evenodd" clip-rule="evenodd" d="M-358.323,115.466c-0.708,0-1.771,0.118-2.125,0.118
		c-1.535,0.354-4.25,2.007-5.549,0.118c-0.944-1.535-3.66,0-4.723-0.118c-0.945,0-1.889-0.472-2.715-0.945
		c-0.472-0.236-2.479-1.653-2.834-1.653c-0.472,0-1.889,0.236-2.007-0.472c-0.118-1.181,3.306-1.299,4.014-1.181
		c0.945,0.354,1.771,1.063,3.07,1.417c0.826,0.118,1.653,0.118,2.243-0.354c0.59-0.354,1.063-0.59,1.653-0.708
		c0-0.118-0.118-0.236-0.236-0.472c-0.118-0.354-0.945-0.708-1.299-0.826c-0.472-0.236-2.361-0.472-2.361-1.181
		c0-0.236,0.236-0.472,0.472-0.472c1.299-0.354,2.479-0.472,3.896-0.236c0.354,0.118,1.417,0.354,1.889,0.118
		c0.236,0,0.354-0.472,0.472-0.708c0.236-0.59,1.535-0.945,2.125-1.063c1.063-0.236,2.125-0.118,3.07,0.472
		c0-0.945,2.834-1.535,3.542-1.535c0.472,0,0.945,0,1.417,0.236c0.354,0.118,0.945,0.236,1.417,0.236
		c-0.354-0.118-0.59-0.236-0.708-0.354h-0.118l0,0c-0.826-0.945-5.667,0.826-7.674-0.118c-0.354-0.236-0.708-0.472-0.59-0.945
		c0.118-1.299,4.25-1.063,5.077-1.535c2.007-1.771,5.549-1.299,8.028-1.063c0.354,0,0.59,0,0.826,0h21.96
		c1.771,0,3.188,1.417,3.188,3.188v12.515c0,1.771-1.417,3.188-3.188,3.188h-19.362c-2.243,0-4.368,0.118-6.493-0.118
		c-1.181-0.118-4.132,0.59-4.723,0.472c-0.708-0.236-1.417-0.472-2.125-0.945c-0.354-0.236-1.299-0.59-0.945-1.299
		c0.354-0.826,2.479,0.118,3.306,0c0.118-0.472,0.354-0.945,0.708-1.417c0.118,0,0.118,0,0.118,0c-1.417,0.708-3.424,0.236-4.841,0
		c-0.354,0.118-0.708,0.236-1.181,0.236c-0.472,0.118-1.653,0.472-1.889-0.236c-0.236-0.826,1.771-1.299,2.243-1.535
		c0.59-0.118,1.181-0.472,1.771-0.59C-359.386,115.702-358.796,115.584-358.323,115.466z M-348.052,102.715h4.604h0.118h17.237
		c1.417,0,2.597,1.181,2.597,2.715v12.515c0,1.417-1.181,2.715-2.597,2.715h-19.362c-1.889,0-4.014,0-6.493-0.236
		c-1.417-0.118-4.25,0.59-4.604,0.472c-0.826-0.236-1.535-0.59-1.889-0.826c-2.834-1.535,2.597,0.354,2.597-0.472
		c0-2.834,4.604-1.181,2.715-2.715c0,0-0.826-0.59-2.597,0.354c-1.417,0.826-4.723,0.118-4.723,0.118
		c-0.708,0.118-4.841,0.945-0.708-0.472c0.708-0.236,1.299-0.59,1.771-0.59c5.195-1.063,1.417-1.771-1.181-1.181
		c-1.299,0.236-3.896,1.889-4.959,0.236c-1.181-1.771-4.604-0.236-5.195-0.236c-2.125-0.236-4.841-2.834-5.549-2.715
		c-3.66,0.354,0.708-0.826,1.771-0.472c0.472,0.118,3.778,2.597,5.903,0.945c2.007-1.535,5.313,0,5.313-0.118
		c0.236-1.063,2.715-0.826,3.66-0.945c1.889-0.354-0.354-2.007-2.361-0.472c-0.236,0.236-0.118,0,0-0.236
		c0.118-0.59,0.118-1.535-2.361,0.118c-0.708,0.59-2.007,1.299-2.715-0.236c-0.472-1.299-4.014-1.653-3.542-1.771
		c4.132-1.063,5.667,1.417,6.612-1.063c0.236-0.472,2.834-1.535,4.723-0.118c3.424,2.597,6.612-2.125,1.653-0.708
		c-2.952,0.826,0.708-1.653,3.188-0.826c1.653,0.59,2.243,0.118,2.243,0.118c2.125,0-1.063-1.063-1.181-1.063
		c-1.181-1.417-5.903,0.708-7.792-0.354c-1.771-0.945,4.014-0.945,4.604-1.417c1.771-1.535,4.723-1.299,7.792-0.945
		C-348.524,102.834-348.288,102.715-348.052,102.715z M-339.551,105.785l8.973,5.549l-8.737,5.785h-0.236V105.785z
		 M-364.345,111.924c0.236,0.118,0.472,0.118,0.708,0.236c0.236-0.354,0.59-0.59,1.063-0.708c-0.118-0.118,0-0.236,0-0.472v-0.118
		c-0.472,0.236-1.181,0.708-1.417,0.826C-364.109,111.806-364.227,111.924-364.345,111.924z M-360.449,111.334
		c0.236-0.118,0.472-0.118,0.59-0.118C-359.976,111.216-360.213,111.216-360.449,111.334z M-358.205,108.028
		c0.59,0.236,1.063,0.236,1.653,0.118c0.236,0,0.826-0.236,0.945-0.472c-0.354-0.236-1.535,0.118-1.771,0.118
		C-357.615,107.91-357.851,108.028-358.205,108.028z M-338.961,106.73v9.563l7.32-4.959L-338.961,106.73z"/>
	<path fill-rule="evenodd" clip-rule="evenodd" d="M-377.686-172.845c-0.945-0.236-3.306,0.236-3.896,0.472
		c-1.889,0.472-5.313,2.479-6.848,0.118c-1.417-2.007-4.959,0.354-6.375-0.118c-2.007-0.472-6.021-3.542-6.966-3.424
		c-0.472,0-2.125,0.354-2.243-0.472c-0.118-1.063,3.66-1.653,4.723-1.181c1.181,0.354,2.243,1.417,3.896,1.771
		c1.063,0.236,2.243,0.236,3.188-0.472c1.181-0.945,2.834-1.063,4.25-0.826c0.826,0.118,1.771,0.354,2.479,0.472
		c0.826-1.299,3.66-0.945,4.841-1.181c0.118,0,0.472,0,0.59-0.118c-0.826-0.354-3.66,0.236-4.25,0.472
		c-1.653,0.708-2.479,0-0.826-1.181c0.236-0.118,0.708-0.354,0.826-0.59c-0.118-0.118-0.354-0.118-0.472,0
		c-1.181,0.118-3.66,3.188-5.549,1.299c-0.354-0.354-0.944-0.708-1.417-0.945c-0.708-0.354-1.299-0.59-2.007-0.826
		c-0.236,0-0.472-0.118-0.708-0.236c-0.59-0.118-0.826-0.826-0.236-1.063c1.417-0.236,2.834-0.354,4.25,0
		c0.472,0.118,1.417,0.472,1.889,0.472c0.826,0,1.653-1.181,2.125-1.653c1.181-1.653,4.959-1.535,6.612-0.354
		c3.424,2.597,7.32-1.417,2.007,0.118c-0.472,0.118-1.535,0.472-1.771-0.236c-0.59-1.299,4.132-3.07,5.903-2.125
		c0.236,0,0.59,0.118,0.826,0.236v-0.118c-1.299-1.299-7.438,0-9.681-0.354c-0.472-0.118-1.535-0.236-1.417-0.945
		c0-1.299,5.785-1.417,6.966-1.889h0.118c2.597-2.243,13.932-1.299,17.71-1.417c6.73,0,12.161,5.431,12.161,12.161
		s-5.431,12.279-12.161,12.279c-3.542,0-8.028-0.236-11.57-0.826c-1.535-0.236-5.431,0.826-6.021,0.59
		c-0.59-0.236-1.181-0.59-1.771-0.826c-0.472-0.236-2.361-0.826-2.125-1.653c0.354-1.063,3.66,0,4.723-0.118
		c0.472-1.063,1.181-1.653,2.243-2.007c0.354-0.118,1.063-0.236,1.535-0.354c-0.118-0.118-0.236-0.236-0.354-0.236
		c-0.59-0.59-2.243,0.118-2.834,0.472c-1.771,1.063-4.368,0.354-6.257,0.118c-0.472,0.118-0.945,0.236-1.417,0.236
		c-0.472,0.118-2.007,0.59-2.243-0.118c-0.236-0.945,2.243-1.535,2.715-1.653c0.708-0.236,1.417-0.708,2.125-0.826
		C-379.929-172.019-378.394-172.373-377.686-172.845z M-359.15-188.666c6.375,0,11.57,5.313,11.57,11.688
		c0,6.493-5.195,11.688-11.57,11.688c-3.188,0-8.619-0.236-11.452-0.708c-1.889-0.354-5.431,0.708-5.903,0.59
		c-0.354-0.118-0.118-0.118-1.771-0.826c-5.431-2.361,2.597-0.354,2.834-0.945c1.181-3.306,5.549-1.417,3.306-3.424
		c-0.118,0-1.063-0.826-3.424,0.472c-1.771,1.063-5.903,0.118-6.021,0.118c-0.826,0.118-6.139,1.299-0.826-0.59
		c0.826-0.354,1.535-0.708,2.125-0.826c5.903-1.417,2.834-2.597-1.417-1.417c-1.653,0.472-5.077,2.243-6.375,0.354
		c-1.535-2.361-5.549-0.118-6.612-0.354c-2.834-0.708-5.549-3.542-7.084-3.424c-4.723,0.354,1.653-1.299,2.361-0.708
		c0.472,0.118,4.723,3.306,7.438,1.299c2.479-2.007,6.73,0,6.848-0.236c0.236-1.299,3.424-1.063,4.604-1.181
		c2.479-0.472,0.944-2.243-4.014-0.708c0,0-1.889,0.826-0.236-0.236c1.771-1.181,0.59-1.771,0-1.653
		c-1.181,0.236-3.66,2.952-5.195,1.535c-1.417-1.299-4.604-2.125-4.604-2.243c5.785-1.299,5.431,2.715,8.501-1.417
		c0.354-0.354,3.542-1.889,5.903-0.118c4.486,3.306,8.619-2.715,2.243-0.945c-3.778,1.181,2.007-2.597,4.132-1.299
		c2.007,0.472,2.834,0.472,2.834,0.472c2.715,0-1.535-1.181-1.535-1.181c-1.535-1.653-7.202-0.118-9.917-0.59
		c-4.368-0.708,5.903-1.417,5.785-1.889C-374.144-189.492-363.636-188.548-359.15-188.666z M-361.039-170.956l0.118-10.508
		l8.146,4.959L-361.039-170.956z M-360.449-171.901l6.73-4.604l-6.73-4.132V-171.901z"/>
	<path fill-rule="evenodd" clip-rule="evenodd" d="M-364.817-224.321c7.91,0,14.286,6.257,14.286,13.813
		c0,7.674-6.375,13.932-14.286,13.932c-7.792,0-14.168-6.257-14.168-13.932C-378.985-218.064-372.609-224.321-364.817-224.321z
		 M-358.205-215.821c2.834,0,5.195,2.361,5.195,5.195c0,2.834-2.361,5.195-5.195,5.195c-1.417,0-3.778-0.118-5.077-0.354
		c-0.826-0.118-2.361,0.354-2.597,0.236c-0.118,0,0,0-0.826-0.354c-2.361-1.063,1.181-0.118,1.299-0.354
		c0.472-1.535,2.479-0.708,1.417-1.535c0,0-0.472-0.354-1.417,0.236c-0.826,0.354-2.715,0-2.715,0c-0.354,0-2.715,0.59-0.354-0.236
		c0.354-0.118,0.708-0.354,0.945-0.354c2.597-0.708,1.299-1.181-0.59-0.708c-0.708,0.236-2.243,1.063-2.834,0.236
		c-0.708-1.063-2.479-0.118-2.952-0.236c-1.299-0.236-2.479-1.535-3.188-1.535c-2.007,0.236,0.826-0.59,1.063-0.236
		c0.236,0,2.125,1.417,3.306,0.59c1.181-0.945,2.952,0,3.07-0.118c0.118-0.59,1.535-0.472,2.007-0.59
		c1.063-0.118,0.472-0.945-1.771-0.236c0,0-0.826,0.354-0.118-0.118c0.826-0.472,0.354-0.826,0-0.708
		c-0.472,0-1.653,1.299-2.243,0.708c-0.708-0.708-2.125-1.063-2.007-1.063c2.479-0.59,2.361,1.181,3.778-0.59
		c0.118-0.236,1.535-0.826,2.597-0.118c1.889,1.535,3.778-1.181,0.944-0.354c-1.653,0.472,0.826-1.181,1.771-0.59
		c0.945,0.236,1.299,0.118,1.299,0.118c1.181,0-0.708-0.472-0.708-0.472c-0.708-0.708-3.188,0-4.368-0.236
		c-1.889-0.354,2.597-0.59,2.597-0.826C-364.817-216.175-360.213-215.702-358.205-215.821z M-359.032-208.028v-4.604l3.66,2.243
		L-359.032-208.028z"/>
	<path fill-rule="evenodd" clip-rule="evenodd" d="M-362.338,190.319h7.32l0,0h27.391c2.361,0,4.25,1.889,4.25,4.25v19.481
		c0,2.361-1.889,4.132-4.25,4.132h-4.368c0.354-2.007,0-4.25-2.007-5.195c-2.597-1.181-5.313,1.299-6.375,3.542
		c-0.236,0.472-0.354,1.063-0.472,1.653h-10.153c0.354-2.007-0.118-4.25-2.007-5.077c-2.715-1.299-5.313,1.181-6.375,3.424
		c-0.236,0.59-0.472,1.299-0.59,2.007c-2.479,0.354-5.431,0-8.501-0.472c-2.361-0.472-6.848,0.945-7.32,0.708
		c-10.744-4.486,1.063-0.59,0.945-2.125c0-4.368,7.32-1.771,4.486-4.25c-0.118,0-1.417-0.945-4.25,0.59
		c-2.125,1.299-7.438,0.118-7.556,0.118c-1.063,0.118-7.556,1.535-0.945-0.708c1.063-0.354,1.889-0.826,2.597-0.945
		c8.264-1.535,2.243-2.715-1.771-1.889c-2.007,0.59-6.139,2.952-7.792,0.472c-2.007-2.834-7.674-0.118-8.264-0.472
		c-3.07-1.299-7.792-4.25-8.855-4.132c-5.903,0.59,1.063-1.299,2.952-0.826c0.59,0.236,5.903,4.014,9.209,1.535
		c3.188-2.361,8.383,0,8.501-0.236c0.354-1.653,4.25-1.181,5.785-1.535c3.07-0.472-0.826-2.243-4.959-0.59
		c-2.125,0.826,1.771-2.361-0.236-2.479c-1.417,0-4.723,3.66-6.612,1.889c-1.771-1.653-5.667-2.715-5.667-2.715
		c7.084-1.535,6.493,0.472,10.626-1.653c0.59-0.354,4.368-2.479,7.32-0.236c5.549,4.014,8.383-0.708,2.715-1.063
		c-6.375-0.472,1.181-2.597,4.959-1.299c3.07,0.236,3.778,0.118,3.778,0.118c3.66,0-1.889-1.653-1.889-1.653
		c-2.007-2.125-9.445,1.181-12.397-0.354c-2.834-1.535,6.257-1.535,7.202-2.479c2.834-2.361,7.556-1.889,12.397-1.299
		C-363.164,190.437-362.81,190.319-362.338,190.319z M-342.739,221.015c-1.299,0-2.243,0.118-2.243,0.236
		c0,0.118,0.945,0.118,2.243,0.118c1.181,0,2.243,0,2.243-0.118C-340.496,221.133-341.558,221.015-342.739,221.015z
		 M-361.747,221.015c-1.299,0-2.361,0.118-2.361,0.236c0,0.118,1.063,0.118,2.361,0.118c1.181,0,2.243,0,2.243-0.118
		C-359.504,221.133-360.567,221.015-361.747,221.015z M-362.456,222.078c-1.653,0-3.07,0.118-3.07,0.236
		c0,0.118,1.417,0.236,3.07,0.236c1.771,0,3.188-0.118,3.188-0.236C-359.268,222.196-360.685,222.078-362.456,222.078z
		 M-362.692,223.141c-2.834,0-5.195,0.118-5.195,0.236c0,0.118,2.361,0.236,5.195,0.236s5.195-0.118,5.195-0.236
		C-357.497,223.259-359.858,223.141-362.692,223.141z M-353.365,213.695c-1.771-0.826-4.25,0.59-5.431,3.07
		c-1.063,2.597-0.59,5.313,1.181,6.139c1.889,0.826,4.25-0.472,5.431-3.07C-351.004,217.237-351.594,214.522-353.365,213.695z
		 M-354.427,215.939c-0.826-0.354-2.125,0.354-2.715,1.653c-0.59,1.299-0.354,2.715,0.59,3.07c0.945,0.472,2.125-0.236,2.715-1.535
		C-353.247,217.828-353.483,216.411-354.427,215.939z M-343.329,222.078c-1.771,0-3.188,0.118-3.188,0.236
		c0,0.118,1.417,0.236,3.188,0.236c1.653,0,3.07-0.118,3.07-0.236C-340.26,222.196-341.677,222.078-343.329,222.078z
		 M-343.566,223.141c-2.952,0-5.195,0.118-5.195,0.236c0,0.118,2.243,0.236,5.195,0.236c2.834,0,5.077-0.118,5.077-0.236
		C-338.489,223.259-340.732,223.141-343.566,223.141z M-334.357,213.695c-1.771-0.826-4.132,0.59-5.313,3.07
		c-1.181,2.597-0.708,5.313,1.181,6.139c1.771,0.826,4.132-0.59,5.313-3.07C-331.995,217.237-332.468,214.522-334.357,213.695z
		 M-335.301,215.939c-0.945-0.354-2.243,0.354-2.834,1.653c-0.59,1.299-0.236,2.597,0.59,3.07c0.945,0.472,2.243-0.236,2.834-1.535
		C-334.12,217.828-334.475,216.411-335.301,215.939z M-348.878,195.041l14.168,8.737l-14.168,8.973V195.041z"/>
	<path fill-rule="evenodd" clip-rule="evenodd" d="M-332.94,271.665c-0.118,0.59-0.236,1.063-0.472,1.417
		c-1.063,2.361-3.896,5.077-6.73,3.778c-2.007-0.944-2.479-3.07-2.243-5.195h-11.688c-0.118,0.59-0.236,1.063-0.472,1.417
		c-1.063,2.479-3.896,5.077-6.73,3.778c-1.889-0.826-2.361-2.834-2.243-4.841h-0.118c-3.07,0.354-6.612,0-9.681-0.59
		c-2.007-0.354-7.438,1.063-8.264,0.708c-0.59-0.236-5.667-1.889-5.195-3.07c0.354-1.181,5.195,0.708,6.021,0.236
		c0-4.014,4.014-3.188,5.549-3.778c-0.118-0.118-0.354-0.354-0.354-0.354c-0.945-0.826-3.188,0.236-4.132,0.708
		c-2.361,1.299-6.021,0.354-8.501,0.118c-0.708,0.118-1.417,0.236-2.125,0.354c-0.59,0.118-2.597,0.708-2.834-0.236
		c-0.354-0.944,3.07-1.771,3.542-2.007c0.944-0.354,2.125-0.944,3.07-1.063c0.472-0.118,2.952-0.59,3.896-1.063
		c-1.181-0.472-4.604-0.118-5.667,0.118c-2.597,0.59-7.202,3.424-9.327,0.354c-2.007-2.952-7.674,0.118-8.973-0.354
		c-1.417-0.59-8.737-4.723-9.445-4.604c-0.59,0-3.07,0.472-3.188-0.472c-0.236-1.417,5.549-1.771,6.493-1.535
		c1.653,0.472,3.07,1.889,5.549,2.361c1.417,0.354,3.07,0.354,4.25-0.59c1.771-1.299,3.896-1.417,6.021-1.181
		c0.945,0.118,2.361,0.59,3.306,0.826c1.063-1.771,5.077-1.417,6.73-1.653c0.118,0,0.354-0.118,0.472-0.118
		c-1.181-0.59-4.604,0.118-5.549,0.472c-3.188,1.299-0.354-2.479-0.354-2.715c-0.118,0-0.236,0-0.236,0
		c-1.417,0-5.195,4.368-7.674,2.007c-0.59-0.59-1.299-1.063-2.007-1.417c-0.944-0.472-1.889-0.826-2.834-1.063
		c-0.236-0.118-0.59-0.236-0.944-0.354c-0.708-0.236-1.063-1.063-0.236-1.181c3.424-0.826,4.959-0.59,8.146-0.708
		c1.299-0.118,2.361-0.59,3.424-1.181c2.715-1.417,6.139-2.125,8.737-0.236c5.195,3.896,8.028,0.236,2.715-0.118
		c-0.708,0-3.306-0.118-3.306-1.299c0-2.125,7.202-1.771,8.973-1.181c1.063,0,2.834,0.236,4.014,0.118
		c-0.945-0.354-2.125-0.708-2.479-0.945c-1.889-1.889-10.154,1.417-13.695-0.354c-4.486-2.361,7.556-3.188,8.028-3.542
		c3.542-2.952,9.681-2.125,13.932-1.653c0.472-0.118,0.944-0.118,1.417-0.118h38.607c2.952,0,5.313,2.243,5.313,5.195v21.606
		c0,2.952-2.361,5.195-5.313,5.195H-332.94z M-366.352,240.142h8.146l0,0h30.46c2.597,0,4.723,2.125,4.723,4.723v21.606
		c0,2.597-2.125,4.723-4.723,4.723h-4.841c0.354-2.361-0.118-4.841-2.243-5.785c-2.952-1.417-5.903,1.299-7.084,3.778
		c-0.236,0.59-0.472,1.299-0.59,2.007h-11.216c0.354-2.243-0.118-4.841-2.243-5.785c-2.952-1.299-5.903,1.299-7.084,3.896
		c-0.236,0.59-0.472,1.417-0.59,2.125c-2.834,0.354-6.139,0-9.563-0.472c-2.597-0.472-7.438,0.944-8.146,0.708
		c-11.806-4.959,1.181-0.472,1.181-2.361c0-4.723,8.146-2.007,4.959-4.604c-0.118-0.118-1.535-1.063-4.723,0.708
		c-2.479,1.299-8.264,0-8.383,0c-1.181,0.236-8.501,1.771-1.063-0.826c1.181-0.354,2.125-0.826,2.952-0.945
		c9.091-1.771,2.479-3.07-2.007-2.125c-2.243,0.59-6.966,3.306-8.737,0.59c-2.243-3.188-8.501-0.236-9.209-0.59
		c-3.424-1.417-8.619-4.723-9.799-4.604c-6.493,0.708,1.299-1.417,3.306-0.826c0.59,0.118,6.612,4.368,10.272,1.653
		c3.424-2.597,9.327,0,9.327-0.354c0.472-1.771,4.723-1.299,6.493-1.535c3.424-0.59-0.945-2.597-5.431-0.708
		c-2.479,0.945,2.007-2.597-0.354-2.834c-1.535,0-5.195,4.132-7.32,2.125c-1.889-1.771-6.375-2.952-6.257-2.952
		c7.91-1.771,7.202,0.472,11.806-2.007c0.59-0.354,4.841-2.597,8.028-0.236c6.257,4.604,9.327-0.708,3.188-1.181
		c-7.202-0.472,1.181-2.834,5.431-1.299c3.424,0.118,4.132,0,4.132,0c4.132,0-2.125-1.771-2.125-1.771
		c-2.125-2.361-10.39,1.299-13.695-0.472c-3.188-1.653,6.966-1.653,8.028-2.597c3.07-2.715,8.264-2.125,13.695-1.535
		C-367.296,240.26-366.824,240.142-366.352,240.142z M-356.316,266.116c-2.007-0.944-4.723,0.59-6.021,3.424
		c-1.299,2.834-0.708,5.903,1.299,6.848c2.007,0.945,4.723-0.708,6.021-3.542C-353.719,270.012-354.309,267.06-356.316,266.116z
		 M-357.497,268.595c-1.063-0.472-2.361,0.354-3.07,1.771c-0.59,1.417-0.354,3.07,0.708,3.542c1.063,0.354,2.361-0.354,3.07-1.889
		C-356.198,270.602-356.434,269.067-357.497,268.595z M-335.183,266.116c-2.007-0.944-4.723,0.59-6.021,3.424
		s-0.708,5.903,1.299,6.848c2.007,0.945,4.723-0.708,6.021-3.542S-333.176,266.942-335.183,266.116z M-336.364,268.595
		c-0.944-0.472-2.361,0.354-3.07,1.771c-0.59,1.417-0.354,2.952,0.708,3.424s2.361-0.236,3.07-1.771
		C-335.065,270.602-335.301,269.067-336.364,268.595z M-351.358,245.455l15.821,9.563l-15.821,10.035V245.455z M-350.885,246.399
		v17.592l14.286-8.973L-350.885,246.399z M-357.733,269.067c-0.945-0.354-1.889,0.826-2.243,1.535
		c-0.354,0.708-0.59,2.361,0.354,2.715c0.944,0.472,1.889-0.708,2.243-1.417C-357.025,271.074-356.789,269.54-357.733,269.067z
		 M-336.6,269.067c-0.945-0.354-1.889,0.826-2.243,1.535c-0.354,0.708-0.59,2.243,0.354,2.715c0.945,0.472,2.007-0.708,2.243-1.535
		C-335.891,271.074-335.655,269.54-336.6,269.067z"/>
	<path fill-rule="evenodd" clip-rule="evenodd" d="M-450.531,146.399h28.217c2.597,0,4.841,2.125,4.841,4.841v14.05
		c0,2.715-2.243,4.841-4.841,4.841h-28.217c-2.597,0-4.841-2.125-4.841-4.841v-14.05
		C-455.372,148.524-453.129,146.399-450.531,146.399z M-435.301,152.775h2.597h0.118h9.917c0.945,0,1.535,0.708,1.535,1.535v7.202
		c0,0.826-0.59,1.535-1.535,1.535h-1.535c0.118-0.826,0-1.653-0.826-1.889c-0.945-0.472-1.889,0.354-2.243,1.181
		c-0.118,0.236-0.118,0.472-0.236,0.708h-3.66c0.118-0.826,0-1.653-0.826-1.889c-0.945-0.472-1.889,0.354-2.243,1.181
		c-0.118,0.236-0.236,0.472-0.236,0.826c-0.945,0.118-2.007,0-3.07-0.236c-0.945-0.118-2.479,0.354-2.715,0.236
		c-3.896-1.653,0.354-0.118,0.354-0.708c0-1.653,2.715-0.708,1.653-1.535c0-0.118-0.472-0.354-1.535,0.236
		c-0.826,0.354-2.715,0-2.834,0c-0.354,0-2.715,0.59-0.354-0.236c0.472-0.236,0.708-0.354,1.063-0.354
		c2.952-0.59,0.826-1.063-0.708-0.708c-0.708,0.118-2.243,1.063-2.834,0.118c-0.708-1.063-2.834,0-3.07-0.118
		c-1.063-0.472-2.834-1.535-3.188-1.535c-2.125,0.236,0.354-0.472,1.063-0.236c0.236,0,2.125,1.417,3.424,0.472
		c1.063-0.826,2.952,0,3.07-0.118c0.118-0.59,1.535-0.354,2.125-0.472c1.063-0.236-0.354-0.826-1.889-0.236
		c-0.708,0.354,0.708-0.826,0-0.945c-0.59,0-1.771,1.417-2.479,0.708c-0.59-0.59-2.007-0.945-2.007-0.945
		c2.597-0.59,2.361,0.118,3.896-0.708c0.118-0.118,1.535-0.826,2.597,0c2.007,1.417,3.07-0.354,1.063-0.472
		c-2.361-0.118,0.354-0.945,1.771-0.354c1.181,0,1.417,0,1.417,0c1.299,0-0.708-0.59-0.708-0.59
		c-0.708-0.826-3.424,0.354-4.604-0.236c-0.944-0.472,2.361-0.472,2.715-0.826c1.063-0.826,2.715-0.708,4.486-0.472
		C-435.655,152.893-435.537,152.775-435.301,152.775z M-428.217,163.991c-0.472,0-0.826,0-0.826,0.118c0,0,0.354,0,0.826,0
		c0.472,0,0.826,0,0.826,0C-427.391,163.991-427.745,163.991-428.217,163.991z M-435.183,163.991c-0.354,0-0.826,0.118-0.826,0.118
		s0.472,0,0.826,0c0.472,0,0.826,0,0.826,0S-434.711,163.991-435.183,163.991z M-435.419,164.463c-0.59,0-1.063,0-1.063,0
		c0,0.118,0.472,0.118,1.063,0.118c0.708,0,1.181,0,1.181-0.118C-434.238,164.463-434.711,164.463-435.419,164.463z
		 M-435.419,164.817c-1.063,0-1.889,0-1.889,0.118c0,0,0.826,0,1.889,0s1.889,0,1.889,0
		C-433.53,164.817-434.357,164.817-435.419,164.817z M-431.995,161.393c-0.708-0.354-1.535,0.118-2.007,1.063
		c-0.472,0.945-0.236,2.007,0.354,2.243c0.708,0.354,1.653-0.236,2.007-1.063C-431.169,162.692-431.405,161.629-431.995,161.393z
		 M-432.468,162.22c-0.236-0.236-0.708,0-0.945,0.59c-0.236,0.472-0.118,0.945,0.236,1.063c0.354,0.118,0.708-0.118,0.944-0.59
		C-431.995,162.81-432.113,162.338-432.468,162.22z M-428.453,164.463c-0.59,0-1.063,0-1.063,0c0,0.118,0.472,0.118,1.063,0.118
		c0.708,0,1.181,0,1.181-0.118C-427.273,164.463-427.745,164.463-428.453,164.463z M-428.453,164.817c-1.063,0-1.889,0-1.889,0
		c0,0.118,0.826,0.118,1.889,0.118s1.889,0,1.889-0.118C-426.564,164.817-427.391,164.817-428.453,164.817z M-425.03,161.393
		c-0.708-0.354-1.653,0.118-2.007,1.063c-0.472,0.945-0.236,2.007,0.354,2.243c0.708,0.354,1.535-0.236,2.007-1.181
		C-424.203,162.692-424.439,161.629-425.03,161.393z M-425.502,162.22c-0.354-0.236-0.708,0-0.945,0.472
		c-0.236,0.59-0.118,1.063,0.236,1.181c0.236,0.118,0.708-0.118,0.944-0.59C-425.03,162.81-425.148,162.338-425.502,162.22z
		 M-430.46,154.545l5.195,3.188l-5.195,3.306V154.545z"/>
	<path fill-rule="evenodd" clip-rule="evenodd" d="M-382.527-15.348c2.715,0,4.959,2.125,4.959,4.959
		c0,2.715-2.243,4.959-4.959,4.959c-1.299,0-3.66-0.118-4.841-0.354c-0.826-0.118-2.361,0.354-2.597,0.236c-0.118,0,0,0-0.708-0.236
		c-2.243-1.063,1.063-0.236,1.181-0.472c0.472-1.417,2.479-0.59,1.417-1.417c0-0.118-0.472-0.354-1.417,0.236
		c-0.708,0.354-2.597,0-2.597,0c-0.354,0-2.597,0.472-0.354-0.236c0.354-0.118,0.708-0.354,0.944-0.354
		c2.479-0.59,1.181-1.181-0.59-0.708c-0.708,0.236-2.125,1.063-2.715,0.236c-0.708-1.063-2.361,0-2.834-0.236
		c-1.181-0.236-2.361-1.417-3.07-1.417c-2.007,0.118,0.708-0.59,1.063-0.236c0.118,0,2.007,1.417,3.188,0.472
		c1.063-0.826,2.834,0,2.834-0.118c0.118-0.472,1.535-0.354,2.007-0.472c1.063-0.118,0.354-0.945-1.653-0.236
		c0,0-0.826,0.354-0.118-0.118c0.708-0.472,0.236-0.708-0.118-0.708c-0.354,0.118-1.535,1.299-2.125,0.708
		c-0.59-0.59-2.007-0.945-2.007-1.063c2.479-0.472,2.361,1.181,3.66-0.59c0.118-0.118,1.535-0.826,2.479,0
		c2.007,1.417,3.66-1.181,0.945-0.354c-1.535,0.354,0.826-1.181,1.771-0.59c0.944,0.118,1.299,0.118,1.299,0.118
		c1.063,0-0.708-0.472-0.708-0.472c-0.708-0.708-3.07,0-4.25-0.236c-1.889-0.354,2.479-0.59,2.479-0.826
		C-388.902-15.702-384.416-15.348-382.527-15.348z M-383.235-7.91v-4.486l3.424,2.125L-383.235-7.91z"/>
	<path fill-rule="evenodd" clip-rule="evenodd" d="M-428.689,87.367c15.112,2.715,25.148,7.556,25.148,13.105
		c0,5.549-10.035,10.39-25.03,12.987c1.299-1.063,2.125-2.715,2.125-4.604V92.09C-426.446,90.201-427.273,88.548-428.689,87.367z
		 M-476.033,105.785c-9.563-0.472-21.842-4.841-21.842-5.431c0-0.59,12.279-5.077,21.724-5.431l0.118,0.118
		c0.944,1.181,1.181,3.778,1.181,5.313S-475.089,104.486-476.033,105.785z M-461.629,123.967c9.799-1.063,17.71-4.959,21.842-9.917
		h7.202c2.952,0,5.195-2.361,5.195-5.195V92.09c0-2.834-2.243-5.195-5.195-5.195h-7.32c-4.014-4.25-11.924-7.674-21.724-8.619
		c-9.327-0.945-18.3,0.59-24.203,3.778c1.889,0,3.896,0,5.903,0.236c6.493,0.59,12.161,2.361,16.411,4.604
		c-2.834,0-5.195,2.361-5.195,5.195v16.765c0,2.834,2.361,5.195,5.195,5.195h0.118c-4.368,2.715-10.035,4.604-16.529,5.313
		c-2.007,0.236-4.014,0.354-5.903,0.354C-479.811,123.259-470.956,125.03-461.629,123.967z M-475.325,94.451h5.785v11.924h-5.785
		v-0.118c0.826-1.063,1.299-3.306,1.299-5.903C-474.026,97.875-474.498,95.632-475.325,94.451L-475.325,94.451z M-463.518,88.666
		h30.933c1.889,0,3.424,1.535,3.424,3.424v16.765c0,1.889-1.535,3.424-3.424,3.424h-30.933c-1.889,0-3.424-1.535-3.424-3.424V92.09
		C-466.942,90.201-465.407,88.666-463.518,88.666z M-451.476,104.604v4.014l11.216-8.028l-11.216-8.146v4.132V104.604z
		 M-449.705,105.195l6.493-4.604l-6.493-4.723V105.195z"/>
	<path fill-rule="evenodd" clip-rule="evenodd" d="M-459.032,207.438h-3.07v-0.236c-0.945,0-1.889-0.118-2.834-0.354
		c-0.826-0.118-7.556-1.535-7.556-2.597c0-1.181,6.73-2.479,7.556-2.715c0.944-0.118,1.889-0.236,2.834-0.354v-0.118h3.07v-0.708
		c0-1.063,0.708-2.007,1.535-2.479c-1.889-0.826-4.132-1.299-6.257-1.535c-0.945-0.118-1.771-0.118-2.715-0.118h-2.007l1.771-0.945
		c3.424-1.653,7.792-2.125,11.57-1.771c3.306,0.354,7.674,1.535,10.153,4.014h3.188c0.118,0,0.118,0,0.236,0l-0.118-0.118
		l1.771,0.354c2.952,0.472,12.043,2.479,12.043,6.493c0,4.132-9.091,6.021-12.043,6.494l-1.653,0.354v-0.118c0,0-0.118,0-0.236,0
		h-3.188c-2.361,2.834-6.612,4.25-10.153,4.723c-3.778,0.354-8.264-0.118-11.57-2.125l-1.535-0.945l1.771,0.118
		c0.945,0,1.771-0.118,2.715-0.118c2.125-0.354,4.368-0.826,6.375-1.889c-0.944-0.472-1.653-1.417-1.653-2.597V207.438z
		 M-440.024,198.229c6.966,1.181,11.688,3.424,11.688,6.021c0,2.597-4.723,4.841-11.57,6.021c0.59-0.472,0.945-1.299,0.945-2.125
		v-7.792C-438.961,199.528-439.315,198.701-440.024,198.229z M-461.865,206.73c-4.486-0.236-10.153-2.243-10.153-2.479
		c0-0.236,5.667-2.361,10.035-2.597l0.118,0.118c0.354,0.59,0.472,1.771,0.472,2.479
		C-461.393,204.959-461.511,206.139-461.865,206.73z M-455.254,215.23c4.604-0.59,8.264-2.361,10.153-4.723h3.306
		c1.299,0,2.361-1.063,2.361-2.361v-7.792c0-1.299-1.063-2.361-2.361-2.361h-3.424c-1.889-2.007-5.549-3.542-10.035-4.014
		c-4.368-0.354-8.383,0.354-11.216,1.771c0.945,0,1.889,0,2.715,0.118c3.07,0.236,5.667,1.063,7.674,2.125
		c-1.417,0-2.479,1.063-2.479,2.361v7.792c0,1.299,1.063,2.361,2.479,2.361l0,0c-2.007,1.299-4.604,2.243-7.674,2.597
		c-0.826,0-1.771,0.118-2.715,0.118C-463.636,214.876-459.504,215.702-455.254,215.23z M-461.629,201.535h2.715v5.431h-2.715l0,0
		c0.472-0.472,0.708-1.535,0.708-2.715C-460.921,203.07-461.157,202.007-461.629,201.535L-461.629,201.535z M-456.08,198.819h14.286
		c0.945,0,1.653,0.708,1.653,1.535v7.792c0,0.945-0.708,1.653-1.653,1.653h-14.286c-0.945,0-1.653-0.708-1.653-1.653v-7.792
		C-457.733,199.528-457.025,198.819-456.08,198.819z M-450.531,206.257v1.771l5.195-3.66l-5.195-3.778v1.889V206.257z
		 M-449.705,206.494l2.952-2.125l-2.952-2.243V206.494z M-456.08,199.292c-0.708,0-1.181,0.472-1.181,1.063v7.792
		c0,0.59,0.59,1.181,1.181,1.181h14.286c0.59,0,1.181-0.59,1.181-1.181v-7.792c0-0.59-0.59-1.063-1.181-1.063H-456.08z
		 M-451.004,208.973v-9.327l6.493,4.723L-451.004,208.973z M-449.233,205.549l1.653-1.181l-1.653-1.299V205.549z"/>
	<path fill-rule="evenodd" clip-rule="evenodd" d="M-490.437,252.066c9.327,0,16.883,7.32,16.883,16.411
		s-7.556,16.411-16.883,16.411c-9.327,0-16.765-7.32-16.765-16.411S-499.764,252.066-490.437,252.066z M-483.943,265.053
		c4.604,0.826,7.674,2.361,7.674,4.014c0,1.771-3.07,3.306-7.674,4.132c0.354-0.354,0.59-0.945,0.59-1.535v-5.195
		C-483.353,265.88-483.589,265.407-483.943,265.053z M-498.583,270.72c-2.834-0.118-6.612-1.417-6.612-1.653
		c0-0.236,3.778-1.535,6.612-1.771v0.118c0.354,0.354,0.472,1.181,0.472,1.653S-498.229,270.366-498.583,270.72z M-494.097,276.387
		c2.952-0.236,5.431-1.535,6.73-3.07h2.243c0.826,0,1.535-0.708,1.535-1.653v-5.195c0-0.945-0.708-1.653-1.535-1.653h-2.361
		c-1.181-1.299-3.66-2.361-6.612-2.597c-2.834-0.354-5.667,0.118-7.438,1.063c0.59,0,1.181,0.118,1.771,0.118
		c2.007,0.236,3.778,0.708,5.077,1.417c-0.826,0-1.653,0.708-1.653,1.653v5.195c0,0.945,0.826,1.653,1.653,1.653l0,0
		c-1.299,0.826-3.07,1.417-5.077,1.653c-0.59,0.118-1.181,0.118-1.771,0.118C-499.764,276.269-496.93,276.741-494.097,276.387z
		 M-498.347,267.178h1.771v3.778h-1.771l0,0c0.236-0.354,0.472-1.063,0.472-1.889S-498.111,267.532-498.347,267.178
		L-498.347,267.178z M-494.687,265.407h9.563c0.59,0,0.944,0.472,0.944,1.063v5.195c0,0.59-0.354,1.063-0.944,1.063h-9.563
		c-0.59,0-1.063-0.472-1.063-1.063v-5.195C-495.75,265.88-495.277,265.407-494.687,265.407z M-491.027,270.366v1.299l3.542-2.597
		l-3.542-2.479v1.299V270.366z M-490.437,270.602l2.007-1.535l-2.007-1.417V270.602z"/>
	<path fill-rule="evenodd" clip-rule="evenodd" d="M-339.906-76.978h24.911c2.243,0,4.132,1.771,4.132,4.132v13.459
		c0,2.243-1.889,4.132-4.132,4.132h-24.911c-2.243,0-4.132-1.889-4.132-4.132v-13.459
		C-344.038-75.207-342.149-76.978-339.906-76.978z M-339.906-75.561h24.911c1.417,0,2.715,1.181,2.715,2.715v13.459
		c0,1.417-1.299,2.715-2.715,2.715h-24.911c-1.535,0-2.715-1.299-2.715-2.715v-13.459C-342.621-74.38-341.44-75.561-339.906-75.561z
		 M-330.224-62.81v3.188l8.973-6.494l-8.973-6.494v3.306V-62.81z M-328.808-62.338l5.195-3.778l-5.195-3.66V-62.338z"/>
	<path fill-rule="evenodd" clip-rule="evenodd" d="M-472.609-37.308c0.118-0.354,0.236-0.945,0.236-1.299l0,0
		c0,0.472-2.597,0.354-2.952,0.354c-0.236,0-2.834,0.118-2.834-0.354c0-0.472,2.597-0.472,2.834-0.472c0.354,0,2.952,0,2.952,0.472
		c0-0.472-0.118-1.181-0.354-1.653h-0.118v-0.118h1.889v3.542h-1.889v-0.118l0.118-0.118
		C-472.727-37.072-472.609-37.19-472.609-37.308c-0.118,0.354-1.771,0.354-2.007,0.354c-0.354,0-2.125,0-2.125-0.354
		c0-0.472,1.771-0.472,2.125-0.472C-474.38-37.78-472.609-37.78-472.609-37.308L-472.609-37.308z M-459.74-42.267
		c3.896,0.826,6.493,2.125,6.493,3.66c0,1.417-2.597,2.715-6.493,3.542c0.354-0.236,0.59-0.59,0.59-1.063v-4.959
		C-459.15-41.558-459.386-42.031-459.74-42.267z M-474.616-37.662c1.063,0,1.889,0.118,1.889,0.354c0,0.118-0.826,0.236-1.889,0.236
		c-1.181,0-2.007-0.118-2.007-0.236C-476.623-37.544-475.797-37.662-474.616-37.662z M-474.616-40.142
		c1.063,0,1.889,0.118,1.889,0.354c0,0.118-0.826,0.236-1.889,0.236c-1.063,0-2.007-0.118-2.007-0.236
		C-476.623-40.024-475.679-40.142-474.616-40.142z M-475.325-38.843c1.535,0,2.834,0.118,2.834,0.236
		c0,0.118-1.299,0.236-2.834,0.236c-1.417,0-2.715-0.118-2.715-0.236C-478.04-38.725-476.741-38.843-475.325-38.843z
		 M-472.609-40.26h1.535v3.306h-1.535l0,0c0.118-0.354,0.354-0.945,0.354-1.653C-472.255-39.315-472.491-40.024-472.609-40.26
		L-472.609-40.26z M-469.185-31.877c2.834-0.354,5.077-1.535,6.139-2.952h-6.612c-1.181,0.826-2.834,1.417-4.723,1.653
		c-0.59,0-1.181,0-1.653,0C-474.38-32.113-471.901-31.641-469.185-31.877z M-469.185-44.864c2.715,0.236,4.959,1.181,6.139,2.361
		h-6.612h-0.118c-1.181-0.59-2.834-1.063-4.604-1.299c-0.59,0-1.181,0-1.653,0C-474.38-44.746-471.901-45.1-469.185-44.864z
		 M-469.658-42.149h9.091c0.59,0,1.063,0.472,1.063,1.063v4.959c0,0.472-0.472,0.945-1.063,0.945h-9.091
		c-0.59,0-1.063-0.472-1.063-0.945v-4.959C-470.72-41.677-470.248-42.149-469.658-42.149z M-466.116-37.662v0.945l2.479-1.889
		l-2.479-1.771v0.945V-37.662z M-459.74-42.385c1.535,0.354,6.73,1.535,6.73,3.778c0,2.243-5.077,3.306-6.73,3.66l-0.59,0.118
		l0.472-0.354c0.354-0.236,0.59-0.59,0.59-0.945v-4.959c0-0.472-0.236-0.826-0.59-1.063l-0.59-0.354L-459.74-42.385z
		 M-474.616-40.26c0.236,0,2.007,0,2.007,0.472c0,0.354-1.771,0.354-2.007,0.354c-0.354,0-2.125,0-2.125-0.354
		C-476.741-40.26-474.97-40.26-474.616-40.26z M-469.185-31.759c-2.243,0.236-4.959-0.118-6.966-1.299l-0.354-0.236h0.472
		c0.472,0,1.063,0,1.653-0.118c1.535-0.118,3.306-0.59,4.604-1.535h0.118h6.966l-0.236,0.236
		C-464.345-32.94-466.942-31.995-469.185-31.759z M-469.185-44.982c2.007,0.118,4.723,0.826,6.257,2.479l0.118,0.118h-6.848h-0.118
		l0,0h-0.118c-1.299-0.708-2.952-1.063-4.486-1.299c-0.59,0-1.181,0-1.653,0h-0.59l0.472-0.236
		C-474.144-44.982-471.429-45.218-469.185-44.982z M-469.658-42.267h9.091c0.708,0,1.181,0.59,1.181,1.181v4.959
		c0,0.59-0.472,1.063-1.181,1.063h-9.091c-0.59,0-1.181-0.472-1.181-1.063v-4.959C-470.838-41.677-470.248-42.267-469.658-42.267z
		 M-465.998-36.954l2.125-1.653l-2.125-1.535V-36.954z"/>
	<path fill-rule="evenodd" clip-rule="evenodd" d="M-428.926,303.424c4.368,0.708,7.202,2.125,7.202,3.66
		c0,1.653-2.834,2.952-7.084,3.778c0.354-0.354,0.59-0.826,0.59-1.299v-4.841C-428.217,304.25-428.453,303.66-428.926,303.424z
		 M-444.274,308.146c1.181,0,2.007,0.118,2.007,0.236c0,0.118-0.826,0.236-2.007,0.236c-1.063,0-1.889-0.118-1.889-0.236
		C-446.163,308.264-445.336,308.146-444.274,308.146z M-444.156,305.667c1.063,0,1.889,0.118,1.889,0.236
		c0,0.118-0.826,0.236-1.889,0.236c-1.181,0-2.007-0.118-2.007-0.236C-446.163,305.785-445.336,305.667-444.156,305.667z
		 M-444.864,306.848c1.535,0,2.834,0.118,2.834,0.236c0,0.236-1.299,0.354-2.834,0.354s-2.715-0.118-2.715-0.354
		C-447.58,306.966-446.399,306.848-444.864,306.848z M-438.253,313.813c2.715-0.236,5.077-1.417,6.257-2.834h2.007
		c0.826,0,1.535-0.59,1.535-1.417v-4.841c0-0.826-0.708-1.417-1.535-1.417h-2.125c-1.063-1.299-3.424-2.243-6.139-2.479
		c-2.715-0.236-5.195,0.118-6.966,1.063c0.59,0,1.181,0,1.653,0c1.889,0.236,3.542,0.708,4.723,1.417
		c-0.826,0-1.417,0.59-1.417,1.417v4.841c0,0.826,0.59,1.417,1.417,1.417l0,0c-1.181,0.826-2.834,1.417-4.604,1.535
		c-0.59,0.118-1.181,0.118-1.771,0.118C-443.447,313.695-440.968,314.168-438.253,313.813z M-442.149,305.431h1.535v3.424h-1.535
		l0,0c0.236-0.354,0.354-1.063,0.354-1.771S-441.913,305.785-442.149,305.431L-442.149,305.431z M-438.843,303.778h8.855
		c0.59,0,0.944,0.472,0.944,0.945v4.841c0,0.472-0.354,0.945-0.944,0.945h-8.855c-0.472,0-0.944-0.472-0.944-0.945v-4.841
		C-439.787,304.25-439.315,303.778-438.843,303.778z M-435.419,308.264v1.181l3.306-2.243l-3.306-2.361v1.181V308.264z
		 M-434.947,308.501l1.889-1.299l-1.889-1.417V308.501z"/>
	<path fill-rule="evenodd" clip-rule="evenodd" d="M-446.281,340.732c6.375,0,11.57,5.077,11.57,11.334
		c0,6.375-5.195,11.452-11.57,11.452c-6.493,0-11.57-5.077-11.57-11.452C-457.851,345.809-452.775,340.732-446.281,340.732z
		 M-441.677,348.996c3.424,0.59,5.667,1.653,5.667,2.952s-2.243,2.361-5.667,2.952c0.236-0.236,0.472-0.59,0.472-1.063v-3.778
		C-441.204,349.587-441.44,349.233-441.677,348.996z M-453.955,352.775c0.826,0,1.535,0,1.535,0.118
		c0,0.236-0.708,0.236-1.535,0.236s-1.535,0-1.535-0.236C-455.49,352.775-454.782,352.775-453.955,352.775z M-453.955,350.767
		c0.826,0,1.535,0.118,1.535,0.236s-0.708,0.236-1.535,0.236s-1.535-0.118-1.535-0.236S-454.782,350.767-453.955,350.767z
		 M-454.427,351.712c1.181,0,2.243,0.118,2.243,0.236s-1.063,0.236-2.243,0.236s-2.243-0.118-2.243-0.236
		S-455.608,351.712-454.427,351.712z M-449.233,357.261c2.243-0.236,4.014-1.063,4.959-2.243h1.653c0.708,0,1.181-0.472,1.181-1.181
		v-3.778c0-0.708-0.472-1.181-1.181-1.181h-1.653c-0.944-0.944-2.715-1.771-4.959-2.007c-2.125-0.118-4.132,0.236-5.549,0.945
		c0.472-0.118,0.945,0,1.417,0c1.417,0.118,2.715,0.472,3.66,1.063c-0.59,0-1.181,0.472-1.181,1.181v3.778
		c0,0.708,0.59,1.181,1.181,1.181h0.118c-1.063,0.59-2.361,1.063-3.778,1.299c-0.472,0-0.945,0-1.417,0
		C-453.365,357.143-451.358,357.615-449.233,357.261z M-452.302,350.531h1.299v2.715h-1.299l0,0
		c0.118-0.236,0.236-0.708,0.236-1.299c0-0.59-0.118-1.063-0.236-1.299V350.531z M-449.705,349.233h7.084
		c0.472,0,0.826,0.354,0.826,0.826v3.778c0,0.472-0.354,0.826-0.826,0.826h-7.084c-0.354,0-0.708-0.354-0.708-0.826v-3.778
		C-450.413,349.587-450.059,349.233-449.705,349.233z M-446.871,352.893v0.944l2.479-1.889l-2.479-1.771v0.826V352.893z
		 M-446.517,353.011l1.535-1.063l-1.535-1.063V353.011z"/>
	<path fill-rule="evenodd" clip-rule="evenodd" d="M-347.462-35.065h24.911c2.243,0,4.132,1.889,4.132,4.132v13.459
		c0,2.243-1.889,4.132-4.132,4.132h-24.911c-2.243,0-4.132-1.889-4.132-4.132v-13.459
		C-351.594-33.176-349.705-35.065-347.462-35.065z M-347.462-33.648h24.911c1.535,0,2.715,1.181,2.715,2.715v13.459
		c0,1.417-1.181,2.715-2.715,2.715h-24.911c-1.417,0-2.715-1.299-2.715-2.715v-13.459
		C-350.177-32.468-348.878-33.648-347.462-33.648z M-337.78-20.897v3.188l9.091-6.494l-9.091-6.375v3.188V-20.897z M-336.364-20.425
		l5.195-3.778l-5.195-3.66V-20.425z"/>
	<path fill-rule="evenodd" clip-rule="evenodd" d="M-356.907-29.044h4.604v9.445h-4.604l0,0c0.708-0.826,1.181-2.597,1.181-4.723
		C-355.726-26.328-356.198-28.099-356.907-29.044L-356.907-29.044z"/>
	<path fill-rule="evenodd" clip-rule="evenodd" d="M-345.809-42.031c8.264,0.826,14.994,3.896,17.946,7.674h-18.3
		c-3.542-2.243-8.501-3.896-14.404-4.486c-1.535-0.118-3.188-0.236-4.723-0.118C-360.449-41.44-353.365-42.739-345.809-42.031z"/>
	<path fill-rule="evenodd" clip-rule="evenodd" d="M-345.809-5.431c8.264-0.826,14.994-4.368,18.064-8.737h-18.418
		c-3.424,2.597-8.501,4.486-14.286,5.077c-1.653,0.236-3.306,0.236-4.841,0.236C-360.449-5.903-353.365-4.486-345.809-5.431z"/>
	<path fill-rule="evenodd" clip-rule="evenodd" d="M-319.481-34.711c12.043,2.125,20.071,6.021,20.071,10.508
		c0,4.368-8.028,8.264-20.071,10.39c1.063-0.826,1.771-2.243,1.771-3.66v-13.459C-317.71-32.468-318.418-33.766-319.481-34.711z"/>
	<ellipse fill-rule="evenodd" clip-rule="evenodd" cx="-364.227" cy="-24.321" rx="7.792" ry="0.826"/>
	<ellipse fill-rule="evenodd" clip-rule="evenodd" cx="-362.456" cy="-27.745" rx="5.431" ry="0.826"/>
	<ellipse fill-rule="evenodd" clip-rule="evenodd" cx="-362.574" cy="-20.779" rx="5.431" ry="0.826"/>
	<path fill-rule="evenodd" clip-rule="evenodd" d="M-420.661,3.542c15.466,3.07,25.738,8.264,25.738,14.05
		c0,5.903-10.035,10.98-25.502,14.05c1.417-0.945,2.243-2.597,2.243-4.25V8.028C-418.182,6.139-419.126,4.486-420.661,3.542z
		 M-478.63,21.606c4.132,0,7.556,0.472,7.556,1.063s-3.424,1.063-7.556,1.063c-4.25,0-7.556-0.472-7.556-1.063
		S-482.881,21.606-478.63,21.606z M-478.63,12.043c4.132,0,7.556,0.472,7.556,1.063s-3.424,1.063-7.556,1.063
		s-7.556-0.472-7.556-1.063S-482.763,12.043-478.63,12.043z M-480.992,16.647c5.903,0,10.626,0.472,10.626,1.063
		c0,0.59-4.723,1.063-10.626,1.063c-6.021,0-10.744-0.472-10.744-1.063C-491.736,17.119-487.013,16.647-480.992,16.647z
		 M-470.838,11.216h6.375v13.105h-6.375l0,0c0.826-1.299,1.535-3.778,1.535-6.612C-469.303,14.876-470.012,12.397-470.838,11.216
		L-470.838,11.216z M-457.261,43.802c10.862-1.181,19.717-5.549,24.203-11.098h-26.092c-4.723,3.07-11.098,5.195-18.418,6.021
		c-2.243,0.236-4.486,0.354-6.612,0.354C-477.568,43.093-467.651,44.982-457.261,43.802z M-457.379-6.73
		c10.744,1.063,19.481,4.723,23.967,9.445h-25.738c-0.118,0-0.354,0-0.472,0c-4.723-2.479-10.862-4.368-17.946-5.077
		c-2.243-0.236-4.486-0.236-6.612-0.236C-477.568-6.021-467.769-7.792-457.379-6.73z M-459.15,4.132h35.655
		c2.125,0,3.896,1.771,3.896,3.896v19.362c0,2.125-1.771,3.896-3.896,3.896h-35.655c-2.125,0-3.896-1.771-3.896-3.896V8.028
		C-463.046,5.903-461.275,4.132-459.15,4.132z M-445.336,21.488v3.542l9.799-7.084l-9.799-6.966v3.542V21.488z"/>
	<path fill-rule="evenodd" clip-rule="evenodd" d="M-500.236,208.973c9.445,0,17.119,7.438,17.119,16.647
		c0,9.327-7.674,16.765-17.119,16.765c-9.563,0-17.237-7.438-17.237-16.765C-517.473,216.411-509.799,208.973-500.236,208.973z
		 M-492.916,220.779c4.959,0.945,8.264,2.715,8.264,4.604s-3.188,3.542-8.146,4.486c0.354-0.354,0.708-0.826,0.708-1.417v-6.257
		C-492.09,221.606-492.444,221.133-492.916,220.779z M-511.688,226.682c1.299,0,2.479,0.118,2.479,0.354
		c0,0.118-1.181,0.236-2.479,0.236c-1.417,0-2.479-0.118-2.479-0.236C-514.168,226.8-513.105,226.682-511.688,226.682z
		 M-511.688,223.495c1.299,0,2.479,0.236,2.479,0.354c0,0.236-1.181,0.354-2.479,0.354c-1.299,0-2.479-0.118-2.479-0.354
		C-514.168,223.731-512.987,223.495-511.688,223.495z M-512.515,225.03c2.007,0,3.542,0.118,3.542,0.354s-1.535,0.354-3.542,0.354
		c-1.889,0-3.424-0.118-3.424-0.354S-514.404,225.03-512.515,225.03z M-509.209,223.259h2.125v4.25h-2.125l0,0
		c0.354-0.354,0.472-1.181,0.472-2.125C-508.737,224.439-508.855,223.731-509.209,223.259L-509.209,223.259z M-504.841,233.884
		c3.542-0.472,6.493-1.889,7.91-3.66h-8.501c-1.535,0.945-3.542,1.653-5.903,2.007c-0.708,0-1.417,0.118-2.125,0.118
		C-511.334,233.53-508.146,234.238-504.841,233.884z M-504.841,217.473c3.542,0.354,6.375,1.535,7.792,3.07h-8.383c0,0,0,0-0.118,0
		c-1.535-0.826-3.542-1.417-5.785-1.653c-0.708-0.118-1.417-0.118-2.125-0.118C-511.334,217.71-508.146,217.119-504.841,217.473z
		 M-505.431,221.015h11.57c0.708,0,1.299,0.59,1.299,1.181v6.257c0,0.708-0.59,1.299-1.299,1.299h-11.57
		c-0.708,0-1.181-0.59-1.181-1.299v-6.257C-506.612,221.606-506.139,221.015-505.431,221.015z M-500.945,226.564v1.181l3.188-2.243
		l-3.188-2.361v1.181V226.564z"/>
	<path fill-rule="evenodd" clip-rule="evenodd" d="M-480.638,332.349c6.612,0,12.043,5.313,12.043,11.806
		c0,6.612-5.431,11.924-12.043,11.924c-6.73,0-12.161-5.313-12.161-11.924C-492.798,337.662-487.367,332.349-480.638,332.349z
		 M-470.602,336.836c7.91,1.653,12.987,4.25,12.987,7.202c0,3.07-5.077,5.667-12.751,7.202c1.417-2.007,2.243-4.368,2.243-7.084
		C-468.123,341.44-469.067,338.961-470.602,336.836z M-488.43,331.523c1.535,0.118,3.07,0.472,4.486,0.826
		c-2.361,0.59-4.604,1.889-6.257,3.778c-2.361-1.181-5.313-2.007-8.737-2.361c-1.181-0.118-2.243-0.118-3.424-0.118
		C-498.937,331.877-493.861,330.933-488.43,331.523z M-495.632,340.732h2.952c-0.354,1.063-0.59,2.243-0.59,3.424
		s0.236,2.361,0.472,3.424h-2.834l0,0c0.472-0.708,0.826-2.007,0.826-3.424C-494.805,342.621-495.159,341.44-495.632,340.732
		L-495.632,340.732z M-488.43,357.615c2.125-0.236,4.014-0.59,5.785-1.299c-2.952-0.472-5.549-1.889-7.438-4.014
		c-2.361,1.417-5.431,2.361-8.855,2.715c-1.181,0.118-2.243,0.236-3.424,0.236C-498.937,357.261-493.861,358.323-488.43,357.615z
		 M-500,346.163c2.361,0,4.132,0.236,4.132,0.472c0,0.354-1.771,0.59-4.132,0.59c-2.243,0-4.132-0.236-4.132-0.59
		C-504.132,346.399-502.243,346.163-500,346.163z M-499.882,341.204c2.243,0,4.132,0.236,4.132,0.472c0,0.354-1.889,0.59-4.132,0.59
		c-2.361,0-4.132-0.236-4.132-0.59C-504.014,341.44-502.243,341.204-499.882,341.204z M-501.299,343.566
		c3.306,0,5.903,0.236,5.903,0.59c0,0.236-2.597,0.59-5.903,0.59c-3.188,0-5.785-0.354-5.785-0.59
		C-507.084,343.802-504.486,343.566-501.299,343.566z M-483.471,347.462v3.188l9.327-6.493l-9.327-6.612v3.306V347.462z"/>
	<path fill-rule="evenodd" clip-rule="evenodd" d="M-454.545,272.491c-0.826,0.472-4.014,0.354-4.486,0.354
		s-4.604,0.118-4.604-0.708s4.132-0.708,4.604-0.708s3.66,0,4.486,0.472c0-0.354-0.118-0.826-0.236-1.299
		c-0.472,0.59-2.834,0.472-3.188,0.472c-0.472,0-3.424,0.118-3.424-0.708c0-0.708,2.952-0.708,3.424-0.708
		c0.354,0,2.125,0,2.952,0.354c0-0.118-0.118-0.118-0.118-0.118v-0.118v-0.472h2.597c0.354-0.945,0.944-2.007,1.535-2.834
		c-1.889-0.945-4.132-1.417-6.257-1.653c-0.826-0.118-1.653-0.118-2.479-0.118h-1.299l1.063-0.59
		c3.07-1.535,7.084-1.889,10.508-1.535c1.063,0.118,2.243,0.236,3.424,0.59l0.59,0.118c0.59-0.118,1.063-0.118,1.653-0.118
		c2.834,0,5.431,1.299,7.084,3.306h0.472c2.361,0.472,9.799,2.243,9.799,5.667c0,3.424-7.32,5.077-9.681,5.549l-0.472,0.118
		c-1.653,2.125-4.25,3.424-7.202,3.424c-0.236,0-0.472,0-0.708,0l-0.708,0.236c-1.299,0.472-2.834,0.826-4.25,0.945
		c-3.424,0.472-7.438,0-10.508-1.771l-0.945-0.59h1.181c0.826,0,1.653,0,2.479-0.118c2.125-0.236,4.368-0.826,6.375-2.007
		c-0.708-0.826-1.299-1.889-1.653-2.952h-2.597v-0.354v-0.118l0,0c-0.708,0.236-2.597,0.236-2.952,0.236
		c-0.472,0-3.306,0.118-3.306-0.708c0-0.708,2.834-0.708,3.306-0.708s2.834,0,3.306,0.472
		C-454.664,273.318-454.545,272.845-454.545,272.491z M-443.802,263.518c4.959,0,8.973,3.896,8.973,8.737
		c0,4.841-4.014,8.737-8.973,8.737s-8.855-3.896-8.855-8.737C-452.656,267.414-448.76,263.518-443.802,263.518z M-436.364,266.824
		c5.785,1.181,9.681,3.07,9.681,5.313c0,2.243-3.778,4.132-9.563,5.313c1.063-1.535,1.771-3.306,1.771-5.195
		C-434.475,270.13-435.183,268.241-436.364,266.824z M-449.587,262.81c1.299,0.118,2.361,0.354,3.424,0.59
		c-1.771,0.472-3.424,1.535-4.604,2.834c-1.771-0.826-4.014-1.417-6.493-1.771c-0.826,0-1.653-0.118-2.479,0
		C-457.261,263.046-453.483,262.456-449.587,262.81z M-454.9,269.658h2.243c-0.236,0.826-0.354,1.653-0.354,2.597
		c0,0.826,0.118,1.653,0.236,2.479h-2.125v-0.118c0.354-0.472,0.59-1.417,0.59-2.479C-454.309,271.074-454.545,270.13-454.9,269.658
		L-454.9,269.658z M-449.469,282.172c1.535-0.236,2.952-0.472,4.25-0.944c-2.243-0.354-4.132-1.417-5.549-3.07
		c-1.771,1.063-4.014,1.771-6.493,2.007c-0.826,0.118-1.653,0.236-2.479,0.236C-457.261,281.818-453.483,282.645-449.469,282.172z
		 M-458.087,273.672c1.771,0,3.07,0.118,3.07,0.354c0,0.236-1.299,0.472-3.07,0.472c-1.653,0-2.952-0.236-2.952-0.472
		C-461.039,273.79-459.74,273.672-458.087,273.672z M-457.969,270.012c1.653,0,2.952,0.118,2.952,0.354
		c0,0.236-1.299,0.472-2.952,0.472c-1.771,0-3.07-0.236-3.07-0.472C-461.039,270.13-459.74,270.012-457.969,270.012z
		 M-459.032,271.783c2.479,0,4.368,0.118,4.368,0.354c0,0.236-1.889,0.472-4.368,0.472c-2.361,0-4.25-0.236-4.25-0.472
		C-463.282,271.901-461.393,271.783-459.032,271.783z M-445.809,274.616v2.361l6.848-4.841l-6.848-4.841v2.479V274.616z
		 M-445.573,276.387l6.021-4.25l-6.021-4.25V276.387z M-443.802,263.754c-4.604,0-8.619,3.778-8.619,8.501
		c0,4.723,4.014,8.383,8.619,8.383c4.723,0,8.619-3.66,8.619-8.383C-435.183,267.532-439.079,263.754-443.802,263.754z
		 M-446.163,277.686v-10.98l7.792,5.431L-446.163,277.686z M-445.218,275.797l5.077-3.66l-5.077-3.66V275.797z M-435.537,267.296
		c0.826,1.417,1.299,3.188,1.299,4.959c0,1.653-0.354,3.306-1.181,4.723c2.597-0.59,8.383-2.243,8.383-4.841
		C-427.037,269.54-432.94,267.887-435.537,267.296z M-450.885,265.88c0.944-1.063,2.125-1.889,3.542-2.361
		c-0.826-0.236-1.535-0.236-2.243-0.354c-2.715-0.236-6.021-0.118-8.737,0.944c0.354,0,0.708,0,1.063,0.118
		C-455.136,264.345-452.893,264.935-450.885,265.88z M-454.309,270.012c0.236,0.59,0.354,1.535,0.354,2.125
		c0,0.708-0.118,1.535-0.354,2.243h1.181c-0.236-0.708-0.236-1.417-0.236-2.125c0-0.826,0-1.535,0.236-2.243H-454.309z
		 M-446.517,281.228c-1.653-0.472-3.188-1.417-4.25-2.597c-2.007,1.063-4.25,1.653-6.493,1.889
		c-0.354,0.118-0.826,0.118-1.181,0.118c2.715,1.181,6.021,1.535,8.855,1.181C-448.524,281.7-447.462,281.582-446.517,281.228z
		 M-459.858,274.026c0.708,0.118,1.535,0.118,1.771,0.118c0.354,0,1.181,0,1.889-0.118c-0.708,0-1.535-0.118-1.889-0.118
		C-458.323,273.908-459.15,274.026-459.858,274.026z M-459.858,270.366c0.708,0.118,1.535,0.118,1.889,0.118
		c0.236,0,1.063,0,1.771-0.118c-0.708,0-1.535-0.118-1.771-0.118C-458.323,270.248-459.15,270.366-459.858,270.366z
		 M-456.434,272.137c-1.063,0-2.243,0-2.597,0s-1.535,0-2.479,0c0.945,0.118,2.125,0.118,2.479,0.118
		S-457.497,272.255-456.434,272.137z"/>
	<path fill-rule="evenodd" clip-rule="evenodd" d="M-554.073,201.653c0.118-4.368,3.542-7.91,7.91-7.792
		c4.368,0,7.792,3.66,7.792,7.91c-0.118,4.368-3.542,7.91-7.91,7.91C-550.649,209.563-554.073,206.021-554.073,201.653z
		 M-553.365,201.653c0.118-4.014,3.306-7.202,7.202-7.084c3.896,0,7.084,3.306,6.966,7.202c0,4.014-3.188,7.202-7.084,7.084
		C-550.177,208.855-553.365,205.549-553.365,201.653z M-546.281,205.077c0.118,0.236,0.118,1.417,0.118,1.535s0,1.653-0.236,1.535
		c-0.354,0-0.236-1.417-0.236-1.535s0-1.299,0.118-1.535c-0.118,0-0.236,0-0.472,0c0.236,0.236,0.236,1.063,0.236,1.181
		c0,0.118,0,1.181-0.354,1.181c-0.236,0-0.118-1.063-0.118-1.181c0-0.118-0.118-0.826,0.118-1.063c-0.118,0-0.118,0-0.118,0v0.118
		h-0.118v-0.945c-0.354-0.118-0.708-0.354-1.063-0.59c-0.236,0.708-0.472,1.417-0.59,2.243c0,0.236,0,0.59,0,0.826v0.472
		l-0.236-0.472c-0.472-1.063-0.59-2.479-0.472-3.542c0-0.472,0.118-0.826,0.236-1.181v-0.236c0-0.236,0-0.472,0-0.59
		c0-0.945,0.472-1.889,1.181-2.479v-0.118c0.118-0.826,0.826-3.424,2.007-3.424c1.181,0,1.771,2.597,1.889,3.424v0.118
		c0.708,0.59,1.181,1.535,1.181,2.479c0,0.118,0,0.236,0,0.236l0.118,0.236c0.118,0.59,0.236,1.063,0.236,1.535
		c0.118,1.181,0,2.597-0.59,3.66l-0.236,0.354v-0.472c0-0.236,0-0.472,0-0.826c-0.118-0.708-0.354-1.535-0.708-2.243
		c-0.236,0.236-0.59,0.472-1.063,0.59v0.945h-0.118l0,0c0-0.118,0-0.118,0-0.118c0.118,0.354,0.118,0.945,0,1.063
		c0,0.236,0.118,1.181-0.236,1.181c-0.236,0-0.236-1.063-0.236-1.181c0-0.118,0-0.945,0.236-1.063
		C-545.927,205.077-546.163,205.077-546.281,205.077z M-549.351,201.299c0-1.771,1.417-3.07,3.07-3.07s2.952,1.417,2.952,3.07
		c0,1.771-1.417,3.188-3.07,3.07C-548.052,204.368-549.351,202.952-549.351,201.299z M-548.17,198.701
		c0.354-2.007,1.063-3.306,1.889-3.306c0.708,0,1.417,1.299,1.771,3.306c-0.472-0.354-1.063-0.59-1.771-0.59
		S-547.698,198.347-548.17,198.701z M-549.587,203.306c0-0.472,0.118-0.826,0.236-1.181c0.118,0.59,0.472,1.181,0.945,1.653
		c-0.354,0.59-0.59,1.299-0.708,2.243c0,0.236,0,0.59,0,0.826C-549.587,205.903-549.823,204.604-549.587,203.306z M-547.226,205.195
		v-0.826c0.236,0.118,0.59,0.118,0.826,0.118c0.354,0,0.59,0,0.826-0.118v0.826l0,0c-0.118-0.118-0.472-0.236-0.826-0.236
		S-547.107,205.077-547.226,205.195L-547.226,205.195z M-542.857,203.306c-0.118-0.472-0.236-0.945-0.354-1.417
		c-0.118,0.708-0.472,1.417-1.063,1.889c0.354,0.59,0.59,1.417,0.708,2.243c0,0.354,0,0.59,0,0.826
		C-543.093,206.021-542.739,204.723-542.857,203.306z M-545.927,206.257c0-0.59,0.118-1.063,0.236-1.063
		c0,0,0.118,0.472,0.118,1.063s-0.118,1.063-0.236,1.063C-545.809,207.32-545.927,206.848-545.927,206.257z M-547.226,206.257
		c0-0.59,0.118-1.063,0.236-1.063c0,0,0.118,0.472,0.118,1.063s-0.118,1.063-0.118,1.063
		C-547.107,207.32-547.226,206.848-547.226,206.257z M-546.517,206.612c0-0.826,0-1.535,0.118-1.535
		c0.118,0,0.118,0.708,0.118,1.535s-0.118,1.535-0.118,1.535C-546.517,208.146-546.517,207.438-546.517,206.612z M-545.573,202.007
		h0.945l-1.771-2.361l-1.653,2.361h0.826H-545.573z M-544.864,201.889l-1.535-2.125l-1.417,2.125H-544.864z M-549.233,201.299
		c0,1.653,1.181,2.952,2.834,2.952c1.653,0.118,2.952-1.299,2.952-2.952c0-1.535-1.181-2.952-2.834-2.952
		S-549.233,199.646-549.233,201.299z M-544.51,202.125h-3.778l2.007-2.715L-544.51,202.125z M-545.1,201.771l-1.299-1.771
		l-1.181,1.771H-545.1z M-548.052,198.465c0.59-0.354,1.181-0.472,1.771-0.472s1.181,0.118,1.653,0.472
		c-0.236-0.945-0.826-2.952-1.653-2.952C-547.226,195.514-547.816,197.521-548.052,198.465z M-548.642,203.778
		c-0.354-0.354-0.59-0.826-0.708-1.299c-0.118,0.354-0.118,0.59-0.118,0.826c-0.118,0.945-0.118,2.007,0.236,3.07
		c0-0.236,0-0.354,0-0.472C-549.115,205.195-548.878,204.486-548.642,203.778z M-547.107,204.959
		c0.236-0.118,0.472-0.118,0.708-0.118s0.472,0,0.708,0.118v-0.354c-0.236,0-0.472,0-0.708,0s-0.472,0-0.708,0V204.959z
		 M-543.211,202.243c-0.118,0.59-0.472,1.181-0.944,1.535c0.354,0.708,0.59,1.417,0.708,2.243c0,0.118,0,0.236,0,0.472
		c0.472-0.945,0.472-2.125,0.472-3.188C-543.093,202.952-543.093,202.597-543.211,202.243z M-545.809,206.848
		c0.118-0.236,0.118-0.472,0.118-0.59c0-0.118,0-0.354-0.118-0.59c0,0.236,0,0.472,0,0.59
		C-545.809,206.375-545.809,206.612-545.809,206.848z M-546.989,206.848c0-0.236,0-0.472,0-0.59c0-0.118,0-0.354,0-0.59
		c-0.118,0.236-0.118,0.472-0.118,0.59C-547.107,206.375-547.107,206.612-546.989,206.848z M-546.399,205.667
		c0,0.354,0,0.826,0,0.945s0,0.472,0,0.826c0-0.354,0-0.708,0-0.826S-546.399,206.021-546.399,205.667z M-547.934,202.834
		c0.354,0.472,0.945,0.708,1.535,0.708c0.708,0,1.181-0.236,1.653-0.708H-547.934z M-544.156,201.299
		c0-0.945-0.59-1.771-1.417-2.125L-544.156,201.299z M-547.107,199.174c-0.826,0.354-1.417,1.063-1.417,2.007L-547.107,199.174z
		 M-546.871,197.285c0.236,0,0.354,0,0.59,0c0.118,0,0.354,0,0.472,0c-0.118-0.472-0.354-0.945-0.472-1.063
		C-546.517,196.34-546.753,196.812-546.871,197.285z"/>
	<path fill-rule="evenodd" clip-rule="evenodd" d="M-560.921,304.132c7.674,0,13.932,6.139,13.932,13.813
		c0,7.556-6.257,13.695-13.932,13.695s-13.932-6.139-13.932-13.695C-574.852,310.272-568.595,304.132-560.921,304.132z
		 M-567.414,317.828c-0.59,0.354-2.715,0.354-2.952,0.354c-0.354,0-3.188,0-3.188-0.59c0-0.472,2.833-0.472,3.188-0.472
		c0.236,0,2.361,0,2.952,0.354c0-0.236,0-0.59-0.118-0.826c-0.354,0.354-1.889,0.236-2.243,0.236c-0.236,0-2.243,0.118-2.243-0.472
		c0-0.472,2.007-0.472,2.243-0.472s1.535,0,2.007,0.236v-0.118l0,0v-0.354h1.771c0.236-0.708,0.59-1.299,1.063-1.889
		c-1.299-0.59-2.834-0.945-4.368-1.181c-0.472,0-1.063,0-1.653,0h-0.826l0.708-0.354c2.125-1.063,4.841-1.299,7.084-1.181
		c0.826,0.118,1.535,0.236,2.243,0.472l0.472,0.118c0.354-0.118,0.708-0.118,1.181-0.118c1.889,0,3.542,0.826,4.723,2.243h0.354
		c1.653,0.354,6.612,1.535,6.612,3.778c0,2.361-4.959,3.424-6.612,3.778l-0.236,0.118c-1.181,1.417-2.952,2.243-4.841,2.243
		c-0.236,0-0.354,0-0.472,0l-0.472,0.236c-0.945,0.354-2.007,0.472-2.952,0.59c-2.361,0.354-5.077,0-7.084-1.181l-0.59-0.472
		l0.708,0.118c0.59,0,1.181-0.118,1.653-0.118c1.535-0.236,3.07-0.59,4.368-1.299c-0.472-0.59-0.945-1.299-1.181-2.007h-1.653
		v-0.354l0,0l0,0c-0.59,0.118-1.771,0.118-2.007,0.118c-0.354,0-2.243,0.118-2.243-0.472c0-0.472,1.889-0.472,2.243-0.472
		c0.236,0,1.889,0,2.243,0.354C-567.414,318.418-567.414,318.064-567.414,317.828z M-560.094,311.806
		c3.306,0,6.021,2.597,6.021,5.903c0,3.188-2.716,5.903-6.021,5.903c-3.424,0-6.021-2.715-6.021-5.903
		C-566.116,314.404-563.518,311.806-560.094,311.806z M-555.136,314.05c3.896,0.708,6.494,2.125,6.494,3.542
		c0,1.535-2.479,2.834-6.375,3.66c0.708-1.063,1.181-2.243,1.181-3.542C-553.837,316.293-554.309,314.994-555.136,314.05z
		 M-563.991,311.334c0.826,0.118,1.535,0.236,2.243,0.354c-1.181,0.354-2.361,1.063-3.07,2.007c-1.181-0.59-2.715-1.063-4.368-1.181
		c-0.59-0.118-1.181-0.118-1.771-0.118C-569.185,311.57-566.706,311.098-563.991,311.334z M-567.651,315.939h1.535
		c-0.236,0.59-0.236,1.181-0.236,1.771s0,1.063,0.236,1.653h-1.535l0,0c0.236-0.354,0.472-0.945,0.472-1.771
		C-567.178,316.883-567.414,316.293-567.651,315.939L-567.651,315.939z M-563.991,324.439c1.063-0.118,2.007-0.354,2.833-0.708
		c-1.417-0.236-2.715-0.944-3.66-2.007c-1.181,0.708-2.715,1.181-4.368,1.417c-0.59,0-1.181,0-1.771,0
		C-569.185,324.203-566.706,324.675-563.991,324.439z M-569.776,318.654c1.181,0,2.125,0.118,2.125,0.236
		c0,0.236-0.945,0.354-2.125,0.354c-1.181,0-2.007-0.118-2.007-0.354C-571.783,318.772-570.956,318.654-569.776,318.654z
		 M-569.776,316.175c1.181,0,2.125,0.118,2.125,0.236c0,0.236-0.945,0.354-2.125,0.354c-1.063,0-2.007-0.118-2.007-0.354
		C-571.783,316.293-570.838,316.175-569.776,316.175z M-570.366,317.355c1.535,0,2.834,0.118,2.834,0.236
		c0,0.236-1.299,0.354-2.834,0.354c-1.653,0-2.952-0.118-2.952-0.354C-573.318,317.473-572.019,317.355-570.366,317.355z
		 M-561.511,319.244v1.653l4.604-3.306l-4.604-3.188v1.653V319.244z M-561.275,320.543l4.014-2.952l-4.014-2.834V320.543z
		 M-560.094,312.043c-3.188,0-5.903,2.479-5.903,5.667s2.715,5.667,5.903,5.667c3.07,0,5.785-2.479,5.785-5.667
		S-557.025,312.043-560.094,312.043z M-561.747,321.37v-7.438l5.195,3.66L-561.747,321.37z M-561.039,320.071l3.424-2.479
		l-3.424-2.361V320.071z M-554.664,314.404c0.708,0.945,1.063,2.125,1.063,3.306c0,1.063-0.354,2.243-0.945,3.188
		c1.771-0.472,5.667-1.535,5.667-3.306C-548.878,315.821-552.774,314.758-554.664,314.404z M-564.935,313.341
		c0.708-0.708,1.417-1.181,2.361-1.535c-0.472-0.118-0.945-0.236-1.417-0.236c-1.889-0.236-4.132,0-5.903,0.59
		c0.236,0.118,0.472,0.118,0.708,0.118C-567.769,312.397-566.234,312.751-564.935,313.341z M-567.296,316.175
		c0.236,0.472,0.354,1.063,0.354,1.417c0,0.472-0.118,1.063-0.354,1.535h0.826c-0.118-0.472-0.118-0.945-0.118-1.417
		c0-0.59,0-1.063,0.118-1.535H-567.296z M-561.983,323.731c-1.063-0.236-2.125-0.944-2.952-1.771
		c-1.299,0.826-2.834,1.181-4.25,1.299c-0.354,0.118-0.59,0.118-0.826,0.118c1.771,0.826,4.014,1.063,6.021,0.826
		C-563.4,324.085-562.692,323.967-561.983,323.731z M-570.956,318.89c0.472,0.118,1.063,0.118,1.181,0.118
		c0.236,0,0.708,0,1.181-0.118c-0.472,0-0.945,0-1.181,0C-569.894,318.89-570.484,318.89-570.956,318.89z M-570.956,316.411
		c0.472,0.118,1.063,0.118,1.181,0.118c0.236,0,0.826,0,1.299-0.118c-0.472,0-1.063,0-1.299,0
		C-569.894,316.411-570.484,316.411-570.956,316.411z M-568.713,317.591c-0.59,0-1.417,0-1.653,0c-0.236,0-1.063,0-1.771,0
		c0.708,0.118,1.535,0.118,1.771,0.118C-570.13,317.71-569.303,317.71-568.713,317.591z"/>
	<path fill-rule="evenodd" clip-rule="evenodd" d="M-568.005,264.699c-0.708,0.236-1.771,0.354-2.243,0.354
		c-2.007,0.236-4.014,0.236-5.903,0.236c-2.007,0-4.014,0-6.021-0.236c-0.826-0.118-3.188-0.118-3.188-1.417
		c0-1.181,2.361-1.299,3.188-1.299c2.007-0.236,4.014-0.236,6.021-0.236c1.889,0,3.896,0,5.903,0.236c0.472,0,1.535,0,2.243,0.354
		c0-0.472-0.118-1.063-0.236-1.535c-1.535,0.945-5.195,0.826-6.139,0.826c-1.063,0-6.612,0.118-6.612-1.653
		c0-1.771,5.549-1.653,6.612-1.653c0.826,0,3.542,0,5.195,0.472v-1.063h5.549c0.708-1.535,1.771-3.07,2.952-4.25
		c-3.778-2.125-8.383-3.188-12.633-3.66c-1.535-0.118-3.07-0.118-4.604-0.118h-3.542l3.188-1.653
		c5.667-2.952,13.223-3.66,19.599-2.952c4.723,0.472,10.035,1.771,14.168,4.25l0.59,0.354l-0.236,0.59
		c1.417,0.708,2.833,1.653,4.014,2.715l1.181,0.236c4.486,1.063,16.765,4.25,16.765,10.39c0,6.257-12.751,9.445-17.237,10.508
		l-1.417,0.236c-0.59,0.59-1.417,1.063-2.243,1.535l0.354,0.59l-0.59,0.472c-4.132,3.424-10.035,5.195-15.348,5.785
		c-6.494,0.708-14.05-0.118-19.717-3.424l-2.715-1.653h3.188c1.535,0,3.07,0,4.604-0.236c4.368-0.472,8.855-1.771,12.633-4.132
		c-1.299-1.181-2.361-2.715-3.07-4.486h-5.431v-0.826c-1.653,0.472-4.486,0.472-5.195,0.472c-1.063,0-6.73,0.118-6.73-1.653
		s5.667-1.653,6.73-1.653c0.826,0,4.604-0.118,6.139,0.826C-568.123,265.762-568.005,265.171-568.005,264.699z M-539.197,254.427
		c9.799,2.243,16.175,5.667,16.175,9.563c0,3.896-6.612,7.438-16.647,9.681c2.479-2.597,4.014-6.021,4.014-9.917
		C-535.655,260.213-536.954,256.907-539.197,254.427z M-558.796,282.29c6.257-0.708,11.452-2.834,14.994-5.667
		c-2.007,0.945-4.132,1.417-6.375,1.417c-3.778,0-7.202-1.417-9.917-3.778c-3.306,2.243-7.91,3.896-13.105,4.368
		c-1.653,0.236-3.188,0.354-4.723,0.236C-573.2,281.7-566.116,283.117-558.796,282.29z M-558.796,246.281
		c5.549,0.472,10.39,2.007,13.813,4.132c-1.653-0.59-3.424-0.945-5.195-0.945c-3.778,0-7.202,1.417-9.799,3.778
		c-3.424-1.889-8.028-3.306-13.223-3.896c-1.653-0.118-3.188-0.118-4.723-0.118C-573.2,246.753-566.234,245.573-558.796,246.281z
		 M-550.177,250.295c7.438,0,13.695,5.903,13.695,13.459c0,7.556-6.257,13.577-13.695,13.577c-7.556,0-13.813-6.021-13.813-13.577
		C-563.991,256.198-557.733,250.295-550.177,250.295z M-550.177,251.83c6.73,0,12.161,5.313,12.161,11.924
		s-5.431,11.924-12.161,11.924c-6.73,0-12.161-5.313-12.161-11.924S-556.907,251.83-550.177,251.83z M-553.837,268.005v4.014
		l11.57-8.146l-11.57-8.146v4.132V268.005z M-552.184,268.949l7.084-5.077l-7.084-5.077V268.949z M-568.241,259.032h4.368
		c-0.59,1.417-0.826,3.07-0.826,4.723s0.236,3.188,0.708,4.604h-4.25l0,0c0.708-0.945,1.181-2.715,1.181-4.723
		C-567.06,261.629-567.532,259.858-568.241,259.032L-568.241,259.032z M-574.38,266.352c3.306,0,5.903,0.354,5.903,0.826
		s-2.597,0.708-5.903,0.708c-3.188,0-5.903-0.236-5.903-0.708S-577.568,266.352-574.38,266.352z M-574.38,259.504
		c3.306,0,5.903,0.354,5.903,0.826c0,0.472-2.597,0.826-5.903,0.826c-3.188,0-5.785-0.354-5.785-0.826
		C-580.165,259.858-577.568,259.504-574.38,259.504z M-576.151,262.928c4.486,0,8.264,0.354,8.264,0.708
		c0,0.472-3.778,0.826-8.264,0.826c-4.604,0-8.383-0.354-8.383-0.826C-584.534,263.282-580.756,262.928-576.151,262.928z
		 M-550.177,252.656c-6.139,0-11.334,4.959-11.334,11.098c0,6.257,5.195,11.098,11.334,11.098c6.139,0,11.334-4.841,11.334-11.098
		C-538.843,257.615-544.038,252.656-550.177,252.656z M-554.664,273.672v-19.599l13.813,9.799L-554.664,273.672z M-551.358,267.296
		l4.841-3.424l-4.841-3.424V267.296z"/>
	<path fill-rule="evenodd" clip-rule="evenodd" d="M-499.646,376.387c15.466,3.424,25.384,8.973,25.384,15.112
		s-10.272,11.688-26.092,15.112c3.896-4.014,6.375-9.445,6.375-15.466C-493.979,385.478-496.104,380.283-499.646,376.387z
		 M-530.46,420.307c9.681-1.063,18.064-4.368,23.495-8.973c-2.952,1.535-6.375,2.361-10.035,2.361
		c-5.903,0-11.334-2.243-15.466-6.021c-5.313,3.542-12.515,6.021-20.779,6.966c-2.479,0.236-4.959,0.354-7.438,0.354
		C-553.129,419.362-542.149,421.606-530.46,420.307z M-530.46,363.518c8.737,0.826,16.293,3.306,21.724,6.612
		c-2.597-1.063-5.313-1.535-8.264-1.535c-5.903,0-11.334,2.243-15.466,5.903c-5.313-3.07-12.515-5.195-20.779-6.021
		c-2.479-0.236-4.959-0.354-7.438-0.354C-553.247,364.227-542.149,362.338-530.46,363.518z M-517.001,369.894
		c11.806,0,21.724,9.327,21.724,21.251s-9.917,21.251-21.724,21.251c-11.806,0-21.606-9.327-21.606-21.251
		S-528.808,369.894-517.001,369.894z M-517.001,372.373c10.626,0,19.244,8.383,19.244,18.772c0,10.39-8.619,18.772-19.244,18.772
		c-10.508,0-19.126-8.383-19.126-18.772C-536.128,380.756-527.509,372.373-517.001,372.373z M-522.668,397.757v6.375l18.064-12.869
		l-18.064-12.869v6.493V397.757z M-520.071,399.292l11.216-8.028l-11.216-7.91V399.292z M-545.455,383.589h6.848
		c-0.826,2.361-1.299,4.841-1.299,7.556c0,2.479,0.472,4.959,1.181,7.202h-6.73l0,0c1.063-1.417,1.889-4.25,1.889-7.438
		S-544.392,385.006-545.455,383.589L-545.455,383.589z M-555.018,395.277c5.077,0,9.209,0.472,9.209,1.181
		c0,0.708-4.132,1.181-9.209,1.181c-5.077,0-9.327-0.472-9.327-1.181C-564.345,395.75-560.094,395.277-555.018,395.277z
		 M-555.018,384.534c5.195,0,9.327,0.472,9.327,1.181s-4.132,1.181-9.327,1.181c-5.077,0-9.209-0.472-9.209-1.181
		S-560.094,384.534-555.018,384.534z M-557.969,389.728c7.32,0,13.105,0.59,13.105,1.181c0,0.708-5.785,1.299-13.105,1.299
		c-7.202,0-13.105-0.59-13.105-1.299C-571.074,390.319-565.171,389.728-557.969,389.728z"/>
	<path fill-rule="evenodd" clip-rule="evenodd" d="M-519.835,51.004c8.855,0,16.057,6.966,16.057,15.584
		s-7.202,15.584-16.057,15.584c-8.973,0-16.175-6.966-16.175-15.584S-528.808,51.004-519.835,51.004z M-514.05,62.338
		c4.368,0.945,7.202,2.479,7.202,4.25s-2.834,3.306-7.32,4.25c1.063-1.063,1.771-2.597,1.771-4.368
		C-512.397,64.817-512.987,63.4-514.05,62.338z M-522.786,74.734c2.834-0.354,5.195-1.299,6.73-2.479
		c-0.826,0.354-1.889,0.59-2.833,0.59c-1.653,0-3.188-0.59-4.368-1.653c-1.535,0.945-3.542,1.653-5.903,1.889
		c-0.708,0.118-1.417,0.118-2.125,0.118C-529.162,74.498-525.974,75.089-522.786,74.734z M-522.786,58.678
		c2.479,0.236,4.604,0.945,6.257,1.889c-0.826-0.354-1.535-0.472-2.361-0.472c-1.653,0-3.188,0.59-4.368,1.653
		c-1.535-0.826-3.542-1.417-5.903-1.653c-0.708-0.118-1.417-0.118-2.125-0.118C-529.162,58.914-526.092,58.323-522.786,58.678z
		 M-518.89,60.449c3.306,0,6.139,2.715,6.139,6.021c0,3.424-2.833,6.021-6.139,6.021s-6.139-2.597-6.139-6.021
		C-525.03,63.164-522.196,60.449-518.89,60.449z M-518.89,61.157c2.952,0,5.431,2.361,5.431,5.313c0,2.952-2.479,5.313-5.431,5.313
		s-5.431-2.361-5.431-5.313C-524.321,63.518-521.842,61.157-518.89,61.157z M-520.543,68.359v1.771l5.195-3.66l-5.195-3.542v1.771
		V68.359z M-519.835,68.831l3.188-2.361l-3.188-2.243V68.831z M-526.919,64.345h1.889c-0.236,0.708-0.354,1.417-0.354,2.125
		s0.118,1.417,0.354,2.007h-1.889l0,0c0.236-0.354,0.472-1.181,0.472-2.007C-526.446,65.525-526.682,64.699-526.919,64.345
		L-526.919,64.345z M-529.634,67.651c1.417,0,2.597,0.118,2.597,0.354c0,0.118-1.181,0.354-2.597,0.354
		c-1.535,0-2.715-0.236-2.715-0.354C-532.349,67.769-531.169,67.651-529.634,67.651z M-529.634,64.581
		c1.417,0,2.597,0.118,2.597,0.354s-1.181,0.354-2.597,0.354c-1.417,0-2.597-0.118-2.597-0.354S-531.051,64.581-529.634,64.581z
		 M-530.46,66.116c2.007,0,3.66,0.118,3.66,0.354c0,0.118-1.653,0.354-3.66,0.354c-2.125,0-3.778-0.236-3.778-0.354
		C-534.238,66.234-532.586,66.116-530.46,66.116z"/>
	<path fill-rule="evenodd" clip-rule="evenodd" d="M-462.692-125.974h10.98c1.063,0,1.889,0.826,1.889,1.771v5.903
		c0,1.063-0.826,1.889-1.889,1.889h-10.98c-0.944,0-1.771-0.826-1.771-1.889v-5.903
		C-464.463-125.148-463.636-125.974-462.692-125.974z M-468.949-117.355c2.243,0,4.132,0.118,4.132,0.236s-1.889,0.236-4.132,0.236
		c-2.361,0-4.132-0.118-4.132-0.236S-471.311-117.355-468.949-117.355z M-469.303-121.606c2.243,0,4.132,0.118,4.132,0.236
		c0,0.118-1.889,0.236-4.132,0.236c-2.361,0-4.132-0.118-4.132-0.236C-473.436-121.488-471.665-121.606-469.303-121.606z
		 M-471.192-119.481c3.306,0,6.021,0.118,6.021,0.354c0,0.118-2.715,0.354-6.021,0.354s-5.903-0.236-5.903-0.354
		C-477.096-119.362-474.498-119.481-471.192-119.481z M-468.949-125.738c2.361,0,4.132,0.118,4.132,0.236s-1.771,0.236-4.132,0.236
		c-2.243,0-4.132-0.118-4.132-0.236S-471.192-125.738-468.949-125.738z M-471.192-123.849c3.306,0,6.021,0.236,6.021,0.354
		c0,0.236-2.715,0.354-6.021,0.354s-6.021-0.118-6.021-0.354C-477.214-123.613-474.498-123.849-471.192-123.849z M-462.692-125.384
		h10.98c0.708,0,1.299,0.472,1.299,1.181v5.903c0,0.708-0.59,1.299-1.299,1.299h-10.98c-0.59,0-1.181-0.59-1.181-1.299v-5.903
		C-463.872-124.911-463.282-125.384-462.692-125.384z M-458.442-119.717v1.417l4.014-2.834l-4.014-2.952v1.417V-119.717z
		 M-457.733-119.481l2.243-1.653l-2.243-1.653V-119.481z"/>
	<path fill-rule="evenodd" clip-rule="evenodd" d="M-386.187,320.779h35.655c2.125,0,3.896,1.771,3.896,3.896v19.362
		c0,2.125-1.771,3.896-3.896,3.896h-35.655c-2.125,0-3.896-1.771-3.896-3.896v-19.362
		C-390.083,322.55-388.312,320.779-386.187,320.779z M-372.373,338.135v3.542l9.799-6.966l-9.799-7.084v3.542V338.135z"/>
	<path fill-rule="evenodd" clip-rule="evenodd" d="M-525.856,304.132h14.64c2.007,0,3.542,1.653,3.542,3.542v7.91
		c0,2.007-1.535,3.66-3.542,3.66h-14.64c-2.007,0-3.66-1.653-3.66-3.66v-7.91C-529.516,305.785-527.863,304.132-525.856,304.132z
		 M-525.856,306.139h14.64c0.826,0,1.653,0.708,1.653,1.535v7.91c0,0.945-0.826,1.653-1.653,1.653h-14.64
		c-0.945,0-1.653-0.708-1.653-1.653v-7.91C-527.509,306.848-526.8,306.139-525.856,306.139z M-520.189,313.223v1.417l4.014-2.834
		l-4.014-2.952v1.535V313.223z M-525.856,305.195h14.64c1.417,0,2.479,1.181,2.479,2.479v7.91c0,1.417-1.063,2.597-2.479,2.597
		h-14.64c-1.417,0-2.597-1.181-2.597-2.597v-7.91C-528.453,306.375-527.273,305.195-525.856,305.195z"/>
	<path fill-rule="evenodd" clip-rule="evenodd" d="M-512.515,189.728c4.132,0,7.438,0.236,7.438,0.354
		c0,0.118-3.306,0.236-7.438,0.236c-4.132,0-7.438-0.118-7.438-0.236C-519.953,189.965-516.647,189.728-512.515,189.728z
		 M-512.279,184.061c4.132,0,7.438,0.118,7.438,0.236c0,0.236-3.306,0.354-7.438,0.354c-4.014,0-7.438-0.118-7.438-0.354
		C-519.717,184.179-516.293,184.061-512.279,184.061z M-512.161,195.159c4.014,0,7.32,0.118,7.32,0.236
		c0,0.236-3.306,0.354-7.32,0.354c-4.132,0-7.438-0.118-7.438-0.354C-519.599,195.277-516.293,195.159-512.161,195.159z
		 M-509.917,192.562c2.715,0,4.841,0.118,4.841,0.236c0,0.236-2.125,0.354-4.841,0.354s-4.841-0.118-4.841-0.354
		C-514.758,192.68-512.633,192.562-509.917,192.562z M-510.035,186.659c2.715,0,4.841,0.236,4.841,0.354
		c0,0.118-2.125,0.236-4.841,0.236s-4.841-0.118-4.841-0.236C-514.876,186.895-512.751,186.659-510.035,186.659z M-502.597,183.707
		h16.057c1.063,0,1.771,0.826,1.771,1.771v8.855c0,0.945-0.708,1.771-1.771,1.771h-16.057c-0.945,0-1.771-0.826-1.771-1.771v-8.855
		C-504.368,184.534-503.542,183.707-502.597,183.707z M-496.34,191.617v1.653l4.368-3.188l-4.368-3.188v1.535V191.617z"/>
	<path fill-rule="evenodd" clip-rule="evenodd" d="M-541.558,114.522c14.05,0,25.974,11.216,25.974,25.384
		c0,14.286-11.924,25.502-25.974,25.502c-14.168,0-25.974-11.216-25.974-25.502C-567.532,125.738-555.726,114.522-541.558,114.522z
		 M-541.558,117.473c12.633,0,22.904,10.035,22.904,22.432c0,12.515-10.272,22.55-22.904,22.55
		c-12.751,0-23.022-10.035-23.022-22.55C-564.581,127.509-554.309,117.473-541.558,117.473z M-548.406,147.816v7.792l21.606-15.466
		l-21.606-15.348v7.674V147.816z M-545.336,149.705l13.341-9.563l-13.341-9.563V149.705z"/>
	<path fill-rule="evenodd" clip-rule="evenodd" d="M-585.596,350.413c3.896,0,7.084,2.952,7.084,6.848
		c0,3.896-3.188,6.848-7.084,6.848c-3.778,0-6.966-2.952-6.966-6.848C-592.562,353.365-589.374,350.413-585.596,350.413z
		 M-599.41,356.907c2.952,0,5.431,0.118,5.431,0.236c0,0.236-2.479,0.354-5.431,0.354c-3.07,0-5.549-0.118-5.549-0.354
		C-604.959,357.025-602.479,356.907-599.41,356.907z M-598.583,354.191c3.07,0,5.549,0.118,5.549,0.236
		c0,0.236-2.479,0.354-5.549,0.354c-2.952,0-5.431-0.118-5.431-0.354C-604.014,354.309-601.535,354.191-598.583,354.191z
		 M-596.34,351.122c2.952,0,5.431,0.118,5.431,0.354c0,0.118-2.479,0.236-5.431,0.236c-3.07,0-5.431-0.118-5.431-0.236
		C-601.771,351.24-599.41,351.122-596.34,351.122z M-595.632,363.046c2.952,0,5.431,0.118,5.431,0.236
		c0,0.118-2.479,0.354-5.431,0.354c-3.07,0-5.431-0.236-5.431-0.354C-601.063,363.164-598.701,363.046-595.632,363.046z
		 M-598.347,359.858c2.952,0,5.431,0.118,5.431,0.236c0,0.236-2.479,0.354-5.431,0.354c-3.07,0-5.549-0.118-5.549-0.354
		C-603.896,359.976-601.417,359.858-598.347,359.858z M-585.596,351.24c3.424,0,6.257,2.715,6.257,6.021s-2.833,6.021-6.257,6.021
		c-3.424,0-6.139-2.715-6.139-6.021S-589.02,351.24-585.596,351.24z M-587.367,359.386v2.125l5.785-4.25l-5.785-4.132v2.125V359.386
		z M-586.541,359.858l3.542-2.597l-3.542-2.479V359.858z"/>
	<path fill-rule="evenodd" clip-rule="evenodd" d="M-381.464,391.617c3.07,0,5.549,2.479,5.549,5.431s-2.479,5.313-5.549,5.313
		c-2.952,0-5.431-2.361-5.431-5.313S-384.416,391.617-381.464,391.617z M-392.208,399.055c2.834,0,5.077,0.118,5.077,0.236
		c0,0.236-2.243,0.354-5.077,0.354s-5.077-0.118-5.077-0.354C-397.285,399.174-395.041,399.055-392.208,399.055z M-392.208,394.451
		c2.834,0,5.195,0.118,5.195,0.354c0,0.118-2.361,0.236-5.195,0.236s-5.077-0.118-5.077-0.236
		C-397.285,394.569-395.041,394.451-392.208,394.451z M-392.68,396.812c2.834,0,5.195,0.118,5.195,0.236
		c0,0.118-2.361,0.236-5.195,0.236s-5.077-0.118-5.077-0.236C-397.757,396.93-395.514,396.812-392.68,396.812z M-390.555,392.208
		c2.834,0,5.077,0.118,5.077,0.354c0,0.118-2.243,0.236-5.077,0.236s-5.195-0.118-5.195-0.236
		C-395.75,392.326-393.388,392.208-390.555,392.208z M-390.673,401.299c2.834,0,5.195,0.118,5.195,0.236
		c0,0.118-2.361,0.354-5.195,0.354c-2.715,0-5.077-0.236-5.077-0.354C-395.75,401.417-393.388,401.299-390.673,401.299z
		 M-375.797,398.111v-0.118l0,0V398.111z M-382.645,398.465v1.417l4.132-2.952l-4.132-2.952v1.535V398.465z"/>
	<path fill-rule="evenodd" clip-rule="evenodd" d="M-387.367,288.902c2.952,0,5.431,2.479,5.431,5.431s-2.479,5.313-5.431,5.313
		c-3.07,0-5.431-2.361-5.431-5.313S-390.437,288.902-387.367,288.902z M-381.818,295.277L-381.818,295.277L-381.818,295.277
		L-381.818,295.277z M-388.666,295.75v1.417l4.25-2.952l-4.25-2.952v1.535V295.75z"/>
	<path fill-rule="evenodd" clip-rule="evenodd" d="M58.56,68.123c-3.07-0.59-9.091,1.417-9.917,1.063
		c-0.59-0.236-0.118-0.118-2.952-1.417c-9.091-4.132,4.368-0.59,4.723-1.653c2.007-5.903,9.563-2.715,5.667-6.139
		c-0.118-0.236-1.889-1.535-5.667,0.826c-3.07,1.889-10.153,0.118-10.272,0.118c-1.417,0.236-10.39,2.243-1.417-1.063
		c1.535-0.59,2.597-1.181,3.66-1.417c10.035-2.597,4.723-4.841-2.361-2.715c-2.834,0.826-8.619,4.25-10.744,0.708
		c-2.715-4.25-9.445-0.118-11.216-0.708c-4.841-1.181-9.327-6.375-11.924-6.139c-8.028,0.708,2.715-2.361,3.896-1.181
		c0.826,0.354,8.146,6.021,12.633,2.243c4.25-3.424,11.334,0.118,11.452-0.354c0.59-2.361,5.785-1.771,7.91-2.125
		c4.132-0.708,1.417-4.014-6.848-1.181c0,0-3.306,1.417-0.472-0.472c3.07-2.125,1.063-3.07,0-2.952
		c-1.771,0.354-6.139,5.431-8.619,2.834c-2.479-2.479-7.792-4.014-7.792-4.014c9.681-2.361,9.091,4.723,14.404-2.597
		c0.59-0.826,5.903-3.542,9.917-0.354c7.556,6.139,14.404-4.723,3.778-1.535c-6.375,1.889,3.306-4.723,6.848-2.479
		c3.542,0.945,4.841,0.826,4.841,0.826c4.604,0-2.597-2.007-2.597-2.007c-2.597-3.07-12.161-0.118-16.765-1.063
		c-7.32-1.299,10.035-2.597,9.917-3.424c3.306-3.07,22.078-2.243,28.099-2.243c11.57,0,21.251,9.209,21.251,20.897
		c0,11.57-9.681,20.779-21.251,20.779C72.019,69.185,62.928,68.949,58.56,68.123z M76.741,34.475c7.91,0,14.286,6.257,14.286,13.932
		s-6.375,13.932-14.286,13.932c-7.792,0-14.168-6.257-14.168-13.932S68.949,34.475,76.741,34.475z M76.741,29.988
		c10.272,0,18.654,8.146,18.654,18.418s-8.383,18.3-18.654,18.3c-10.153,0-18.654-8.028-18.654-18.3S66.588,29.988,76.741,29.988z
		 M76.741,32.94c8.619,0,15.821,6.848,15.821,15.466S85.36,63.872,76.741,63.872c-8.501,0-15.702-6.848-15.702-15.466
		S68.241,32.94,76.741,32.94z M91.263,51.122L91.263,51.122L91.263,51.122L91.263,51.122z M73.554,52.184v3.896l10.862-7.792
		l-10.862-7.674v3.896V52.184z"/>
	<path fill-rule="evenodd" clip-rule="evenodd" d="M-39.906,177.332c6.612,0,11.924,5.195,11.924,11.688
		c0,6.494-5.313,11.688-11.924,11.688s-11.924-5.195-11.924-11.688C-51.83,182.527-46.517,177.332-39.906,177.332z M-39.906,173.554
		c8.619,0,15.702,6.848,15.702,15.466c0,8.619-7.084,15.466-15.702,15.466c-8.501,0-15.702-6.848-15.702-15.466
		C-55.608,180.401-48.406,173.554-39.906,173.554z M-39.906,176.033c7.202,0,13.223,5.785,13.223,12.987
		c0,7.32-6.021,12.987-13.223,12.987s-13.223-5.667-13.223-12.987C-53.129,181.818-47.107,176.033-39.906,176.033z M-27.745,191.381
		h0.118l0,0H-27.745z M-42.621,192.208v3.306l9.209-6.494l-9.209-6.493v3.188V192.208z"/>
</g>
</svg>
