<svg height='100px' width='100px'  fill="#000000" xmlns="http://www.w3.org/2000/svg" xmlns:xlink="http://www.w3.org/1999/xlink" version="1.1" x="0px" y="0px" viewBox="0 0 100 100" enable-background="new 0 0 100 100" xml:space="preserve"><g><g><path fill="none" d="M31.719,74.742l-1.48,9.485l7.474-6.025c0.139-0.112,0.269-0.234,0.39-0.366    c-2.222-0.951-4.318-2.164-6.259-3.624C31.789,74.386,31.748,74.563,31.719,74.742z"></path><path fill="none" d="M68.281,25.258l1.48-9.484l-7.474,6.024c-0.139,0.112-0.269,0.235-0.39,0.367    c2.222,0.951,4.317,2.164,6.259,3.624C68.211,25.614,68.252,25.437,68.281,25.258z"></path><path fill="none" d="M31.844,25.788c1.941-1.46,4.036-2.673,6.259-3.624c-0.121-0.132-0.251-0.255-0.391-0.367l-7.474-6.024    l1.48,9.484C31.748,25.437,31.789,25.614,31.844,25.788z"></path><path fill="none" d="M22.164,38.103c0.95-2.222,2.163-4.318,3.624-6.259c-0.173-0.055-0.351-0.097-0.53-0.125l-9.486-1.479    l6.025,7.473C21.909,37.852,22.032,37.982,22.164,38.103z"></path><path fill="none" d="M19.954,53.617c-0.147-1.212-0.221-2.424-0.221-3.618s0.074-2.405,0.221-3.617    c-0.178,0.039-0.352,0.092-0.522,0.157L10.479,50l8.953,3.461C19.602,53.526,19.776,53.578,19.954,53.617z"></path><path fill="none" d="M53.617,19.955c-0.039-0.178-0.091-0.353-0.157-0.523L50,10.479l-3.46,8.954    c-0.065,0.169-0.118,0.344-0.157,0.522c1.213-0.147,2.424-0.222,3.617-0.222S52.404,19.807,53.617,19.955z"></path><path fill="none" d="M78.203,37.713C78.203,37.713,78.203,37.713,78.203,37.713l6.024-7.474l-9.485,1.479    c-0.179,0.028-0.356,0.07-0.53,0.125c1.46,1.942,2.673,4.037,3.624,6.259C77.968,37.982,78.091,37.852,78.203,37.713z"></path><path fill="none" d="M52.222,29.179c-0.729-0.083-1.472-0.124-2.219-0.124c-11.554,0-20.955,9.394-20.955,20.94    c0,9.798,6.638,18.173,16.155,20.4c0.045,0.006,0.089,0.014,0.129,0.023c1.494,0.353,3.066,0.532,4.671,0.532    c11.546,0,20.94-9.401,20.94-20.955C70.943,39.252,62.895,30.303,52.222,29.179z M42.071,47.244c-3.322,0-6.025-2.703-6.025-6.025    c0-3.322,2.703-6.025,6.025-6.025c3.322,0,6.025,2.703,6.025,6.025C48.096,44.541,45.393,47.244,42.071,47.244z"></path><circle fill="none" cx="42.071" cy="41.219" r="3.122"></circle><path fill="none" d="M21.798,62.287l-6.025,7.474l9.486-1.479c0.179-0.028,0.356-0.07,0.53-0.125    c-1.461-1.942-2.674-4.037-3.624-6.259C22.032,62.018,21.909,62.148,21.798,62.287z"></path><path fill="none" d="M77.836,61.896c-0.951,2.223-2.164,4.318-3.624,6.26c0.174,0.055,0.351,0.097,0.53,0.125l9.485,1.479    l-6.024-7.474C78.091,62.148,77.968,62.017,77.836,61.896z"></path><path fill="none" d="M68.156,74.212c-1.942,1.46-4.037,2.673-6.259,3.624c0.121,0.132,0.251,0.254,0.391,0.367l7.474,6.024    l-1.48-9.485C68.252,74.563,68.211,74.386,68.156,74.212z"></path><path fill="none" d="M80.045,46.383c0.147,1.213,0.222,2.424,0.222,3.617c0,1.193-0.074,2.404-0.222,3.618    c0.178-0.039,0.353-0.092,0.522-0.157L89.521,50l-8.954-3.46C80.398,46.474,80.224,46.422,80.045,46.383z"></path><path fill="none" d="M46.383,80.046c0.039,0.178,0.092,0.352,0.157,0.522L50,89.522l3.461-8.954    c0.065-0.169,0.118-0.344,0.156-0.522C51.193,80.34,48.808,80.34,46.383,80.046z"></path><path d="M52.537,26.293c-0.826-0.094-1.678-0.141-2.534-0.141c-13.155,0-23.858,10.696-23.858,23.843    c0,11.19,7.607,20.752,18.499,23.25c0.037,0.008,0.077,0.016,0.119,0.021c1.683,0.389,3.445,0.587,5.24,0.587    c13.147,0,23.843-10.703,23.843-23.858C73.847,37.762,64.681,27.572,52.537,26.293z M50.003,70.95    c-1.606,0-3.177-0.179-4.671-0.532c-0.04-0.009-0.084-0.017-0.129-0.023c-9.516-2.227-16.155-10.602-16.155-20.4    c0-11.546,9.4-20.94,20.955-20.94c0.747,0,1.489,0.041,2.219,0.124c10.673,1.124,18.722,10.073,18.722,20.816    C70.943,61.549,61.55,70.95,50.003,70.95z"></path><path d="M44.087,22.828c0.316,0.222,0.706,0.307,1.089,0.242c3.231-0.576,6.417-0.576,9.648,0c0.085,0.015,0.17,0.022,0.254,0.022    c0.297,0,0.589-0.091,0.835-0.264c0.316-0.222,0.531-0.562,0.596-0.943c0.203-1.187,0.085-2.397-0.341-3.5L51.354,5.928    C51.138,5.369,50.6,5,50,5s-1.138,0.369-1.354,0.929l-4.814,12.457c-0.426,1.102-0.544,2.312-0.341,3.5    C43.556,22.266,43.771,22.606,44.087,22.828z M46.54,19.433L50,10.479l3.46,8.953c0.066,0.17,0.118,0.344,0.157,0.523    c-1.213-0.147-2.424-0.222-3.617-0.222s-2.404,0.074-3.617,0.222C46.422,19.777,46.474,19.602,46.54,19.433z"></path><path d="M28.851,25.706c0.182,1.169,0.686,2.276,1.455,3.202c0.248,0.298,0.603,0.484,0.989,0.518    c0.042,0.004,0.085,0.006,0.128,0.006c0.342,0,0.674-0.12,0.937-0.343c2.494-2.106,5.302-3.732,8.348-4.832    c0.365-0.131,0.661-0.403,0.824-0.755c0.163-0.352,0.179-0.754,0.043-1.117c-0.418-1.125-1.124-2.11-2.04-2.849l-10.398-8.381    c-0.468-0.377-1.117-0.427-1.637-0.127c-0.519,0.3-0.801,0.888-0.708,1.481L28.851,25.706z M37.713,21.797    c0.139,0.112,0.27,0.235,0.391,0.367c-2.223,0.951-4.318,2.164-6.259,3.624c-0.055-0.173-0.097-0.351-0.125-0.53l-1.48-9.484    L37.713,21.797z"></path><path d="M19.537,39.534c0.739,0.918,1.724,1.623,2.849,2.041c0.164,0.06,0.335,0.091,0.506,0.091c0.209,0,0.418-0.045,0.611-0.135    c0.351-0.163,0.623-0.46,0.754-0.824c1.1-3.045,2.725-5.853,4.832-8.348c0.25-0.295,0.371-0.679,0.337-1.064    c-0.034-0.385-0.22-0.741-0.518-0.989c-0.926-0.77-2.032-1.273-3.201-1.456c0,0,0,0-0.001,0L12.51,26.792    c-0.594-0.093-1.181,0.189-1.481,0.708c-0.3,0.519-0.25,1.17,0.127,1.637L19.537,39.534z M25.258,31.719    c0.179,0.028,0.356,0.07,0.53,0.125c-1.461,1.942-2.674,4.037-3.624,6.259c-0.132-0.121-0.255-0.252-0.367-0.391l-6.025-7.473    L25.258,31.719z"></path><path d="M20.747,56.606c0.379,0,0.759-0.032,1.137-0.097c0.381-0.065,0.721-0.28,0.943-0.596c0.223-0.316,0.31-0.708,0.242-1.089    c-0.287-1.614-0.433-3.237-0.433-4.824s0.146-3.21,0.432-4.824c0.068-0.38-0.019-0.772-0.241-1.089    c-0.222-0.316-0.561-0.531-0.942-0.596c-1.185-0.202-2.396-0.086-3.5,0.341L5.928,48.646C5.369,48.862,5,49.4,5,50    c0,0.6,0.369,1.138,0.928,1.354l12.457,4.815C19.136,56.459,19.937,56.606,20.747,56.606z M19.432,46.539    c0.17-0.065,0.344-0.118,0.522-0.157c-0.147,1.212-0.221,2.423-0.221,3.617s0.074,2.405,0.221,3.618    c-0.178-0.039-0.352-0.092-0.522-0.157L10.479,50L19.432,46.539z"></path><path d="M29.426,68.704c0.034-0.386-0.087-0.768-0.337-1.064c-2.107-2.495-3.732-5.304-4.832-8.348    c-0.131-0.364-0.403-0.661-0.754-0.824s-0.753-0.177-1.117-0.044c-1.125,0.418-2.11,1.124-2.849,2.04l-8.382,10.398    c-0.376,0.467-0.427,1.118-0.127,1.637c0.262,0.454,0.744,0.726,1.256,0.726c0.074,0,0.149-0.006,0.224-0.018l13.196-2.059    c1.168-0.182,2.275-0.686,3.201-1.456C29.205,69.446,29.392,69.09,29.426,68.704z M25.258,68.281l-9.486,1.479l6.025-7.474    c0.112-0.139,0.234-0.269,0.367-0.39c0.95,2.222,2.163,4.317,3.624,6.259C25.615,68.211,25.438,68.253,25.258,68.281z"></path><path d="M40.708,75.743c-3.046-1.1-5.854-2.726-8.348-4.832c-0.296-0.25-0.681-0.374-1.064-0.337    c-0.385,0.034-0.741,0.22-0.989,0.518c-0.77,0.926-1.273,2.033-1.456,3.202L26.792,87.49c-0.093,0.593,0.189,1.181,0.708,1.481    c0.226,0.13,0.476,0.195,0.726,0.195c0.324,0,0.647-0.109,0.911-0.321l10.398-8.382c0.916-0.739,1.622-1.724,2.04-2.848    c0.135-0.363,0.12-0.766-0.043-1.117C41.369,76.146,41.073,75.875,40.708,75.743z M37.713,78.202l-7.474,6.025l1.48-9.485    c0.028-0.18,0.07-0.357,0.125-0.53c1.941,1.46,4.036,2.673,6.259,3.624C37.982,77.968,37.852,78.09,37.713,78.202z"></path><path d="M55.912,77.172c-0.316-0.222-0.708-0.31-1.089-0.241c-3.226,0.574-6.42,0.574-9.648,0    c-0.383-0.066-0.773,0.019-1.089,0.242c-0.316,0.222-0.531,0.561-0.596,0.943c-0.203,1.187-0.085,2.397,0.341,3.499l4.815,12.458    C48.862,94.631,49.4,95,50,95s1.138-0.369,1.354-0.929l4.815-12.458c0.426-1.103,0.543-2.313,0.34-3.5    C56.443,77.734,56.229,77.394,55.912,77.172z M53.461,80.567L50,89.522l-3.46-8.954c-0.065-0.17-0.118-0.344-0.157-0.522    c2.425,0.294,4.81,0.294,7.234,0C53.578,80.224,53.526,80.398,53.461,80.567z"></path><path d="M71.149,74.294c-0.182-1.168-0.686-2.275-1.455-3.201c-0.248-0.298-0.603-0.484-0.989-0.518    c-0.384-0.036-0.769,0.087-1.064,0.337c-2.494,2.106-5.303,3.732-8.348,4.831c-0.364,0.131-0.661,0.403-0.823,0.754    c-0.163,0.351-0.179,0.753-0.044,1.116c0.417,1.124,1.122,2.11,2.04,2.85l0,0l10.398,8.381c0.264,0.213,0.587,0.321,0.911,0.321    c0.25,0,0.5-0.064,0.726-0.195c0.519-0.3,0.801-0.888,0.708-1.481L71.149,74.294z M62.287,78.203    c-0.139-0.112-0.27-0.235-0.391-0.367c2.222-0.951,4.317-2.164,6.259-3.624c0.055,0.173,0.097,0.351,0.125,0.53l1.48,9.485    L62.287,78.203z"></path><path d="M80.463,60.465c-0.74-0.917-1.725-1.622-2.849-2.04c-0.363-0.133-0.765-0.119-1.117,0.044    c-0.351,0.163-0.623,0.46-0.754,0.824c-1.1,3.045-2.725,5.854-4.832,8.348c-0.25,0.296-0.371,0.679-0.337,1.064    c0.034,0.386,0.221,0.741,0.518,0.989c0.927,0.77,2.034,1.273,3.202,1.456l13.195,2.059c0.075,0.012,0.15,0.018,0.224,0.018    c0.513,0,0.995-0.272,1.256-0.726c0.3-0.519,0.25-1.17-0.127-1.637L80.463,60.465z M74.742,68.281    c-0.18-0.028-0.357-0.07-0.53-0.125c1.46-1.942,2.673-4.037,3.624-6.26c0.132,0.121,0.255,0.251,0.367,0.391l6.024,7.474    L74.742,68.281z"></path><path d="M94.072,48.646l-12.457-4.814c-1.102-0.427-2.313-0.544-3.5-0.341c-0.381,0.065-0.721,0.28-0.943,0.596    c-0.223,0.316-0.309,0.708-0.241,1.089c0.287,1.615,0.433,3.238,0.433,4.824s-0.146,3.209-0.433,4.825    c-0.068,0.381,0.019,0.773,0.242,1.089c0.222,0.316,0.561,0.531,0.943,0.596c0.378,0.065,0.758,0.097,1.136,0.097    c0.81,0,1.611-0.147,2.363-0.438l12.457-4.815C94.631,51.138,95,50.599,95,50C95,49.4,94.631,48.862,94.072,48.646z     M80.568,53.461c-0.17,0.065-0.344,0.118-0.522,0.157c0.147-1.213,0.222-2.424,0.222-3.618c0-1.193-0.074-2.404-0.222-3.617    c0.178,0.039,0.353,0.092,0.522,0.157L89.521,50L80.568,53.461z"></path><path d="M70.574,31.296c-0.034,0.386,0.087,0.769,0.337,1.064c2.106,2.494,3.732,5.302,4.832,8.348    c0.131,0.364,0.403,0.661,0.754,0.824c0.193,0.09,0.402,0.135,0.611,0.135c0.171,0,0.342-0.03,0.506-0.091    c1.125-0.418,2.11-1.124,2.849-2.041l8.381-10.398c0.376-0.467,0.427-1.118,0.127-1.637c-0.3-0.519-0.887-0.805-1.481-0.708    l-13.196,2.059c-1.168,0.183-2.276,0.687-3.201,1.456C70.795,30.554,70.608,30.91,70.574,31.296z M74.742,31.719l9.485-1.479    l-6.024,7.473c0,0,0,0,0,0c-0.112,0.139-0.235,0.269-0.367,0.39c-0.951-2.222-2.164-4.318-3.624-6.259    C74.386,31.789,74.563,31.747,74.742,31.719z"></path><path d="M59.292,24.257c3.046,1.1,5.854,2.725,8.348,4.832c0.263,0.222,0.595,0.343,0.937,0.343c0.042,0,0.085-0.002,0.127-0.006    c0.386-0.034,0.741-0.221,0.989-0.518c0.77-0.927,1.274-2.034,1.456-3.202l2.059-13.195c0.093-0.593-0.189-1.181-0.708-1.481    c-0.519-0.3-1.169-0.25-1.637,0.127l-10.398,8.381c-0.917,0.739-1.623,1.724-2.041,2.85c-0.135,0.363-0.119,0.765,0.044,1.117    C58.631,23.854,58.928,24.126,59.292,24.257z M62.287,21.797l7.474-6.024l-1.48,9.484c-0.028,0.18-0.07,0.357-0.125,0.53    c-1.942-1.46-4.037-2.673-6.259-3.624C62.017,22.032,62.148,21.909,62.287,21.797z"></path><path d="M42.071,35.194c-3.322,0-6.025,2.703-6.025,6.025c0,3.322,2.703,6.025,6.025,6.025c3.322,0,6.025-2.703,6.025-6.025    C48.096,37.897,45.393,35.194,42.071,35.194z M42.071,44.341c-1.721,0-3.122-1.4-3.122-3.122c0-1.721,1.4-3.122,3.122-3.122    c1.721,0,3.122,1.401,3.122,3.122C45.193,42.941,43.792,44.341,42.071,44.341z"></path></g></g></svg>