<svg height='100px' width='100px'  fill="#000000" xmlns="http://www.w3.org/2000/svg" viewBox="0 0 100 100" x="0px" y="0px"><path fill-rule="evenodd" d="M810,2380.4 C811.9872,2380.4 813.6,2378.7836 813.6,2376.8 C813.6,2374.8128 811.9872,2373.2 810,2373.2 C808.0164,2373.2 806.4,2374.8128 806.4,2376.8 C806.4,2378.7836 808.0164,2380.4 810,2380.4 Z M838.8,2402 C842.7708,2402 846,2405.2292 846,2409.2 L846,2418.2 L774,2418.2 L774,2409.2 C774,2405.2292 777.2328,2402 781.2,2402 L799.2828,2402 C799.8804,2402 800.4384,2401.7012 800.7732,2401.2044 C801.1116,2400.7148 801.1764,2400.0884 800.9532,2399.5304 C799.7904,2396.6216 799.2,2393.5544 799.2,2390.4224 L799.2,2376.8 C799.2,2370.842 804.0456,2366 810,2366 C815.9544,2366 820.8,2370.842 820.8,2376.8 L820.8,2390.4224 C820.8,2393.5616 820.2096,2396.6252 819.0468,2399.5304 C818.8236,2400.0884 818.892,2400.7148 819.2268,2401.2044 C819.5616,2401.7048 820.1196,2402 820.7172,2402 L838.8,2402 Z M840.6,2421.8 C841.5936,2421.8 842.4,2422.6064 842.4,2423.6 L842.4,2450.6 C842.4,2451.5936 841.5936,2452.4 840.6,2452.4 L835.2,2452.4 L835.2,2432.6 C835.2,2431.6064 834.3936,2430.8 833.4,2430.8 C832.4064,2430.8 831.6,2431.6064 831.6,2432.6 L831.6,2452.4 L828,2452.4 L828,2436.7724 C828,2435.7752 827.1936,2434.9724 826.2,2434.9724 C825.2064,2434.9724 824.4,2435.7752 824.4,2436.7724 L824.4,2452.4 L820.8,2452.4 L820.8,2443.0256 C820.8,2442.032 819.9936,2441.2256 819,2441.2256 C818.0064,2441.2256 817.2,2442.032 817.2,2443.0256 L817.2,2452.4 L795.6,2452.4 C794.6064,2452.4 793.8,2451.5936 793.8,2450.6 L793.8,2443.8284 L790.0092,2451.4064 C789.7068,2452.0184 789.0804,2452.4 788.4,2452.4 L779.4,2452.4 C778.4064,2452.4 777.6,2451.5936 777.6,2450.6 L777.6,2423.6 C777.6,2422.6064 778.4064,2421.8 779.4,2421.8 L840.6,2421.8 Z" transform="translate(-760 -2359)"></path></svg>