<svg height='100px' width='100px'  fill="#000000" xmlns:dc="http://purl.org/dc/elements/1.1/" xmlns:cc="http://creativecommons.org/ns#" xmlns:rdf="http://www.w3.org/1999/02/22-rdf-syntax-ns#" xmlns:svg="http://www.w3.org/2000/svg" xmlns="http://www.w3.org/2000/svg" xmlns:sodipodi="http://sodipodi.sourceforge.net/DTD/sodipodi-0.dtd" xmlns:inkscape="http://www.inkscape.org/namespaces/inkscape" version="1.1" x="0px" y="0px" viewBox="0 0 100 100"><g transform="translate(0,-952.36218)"><path d="m 84.966377,959.3634 -31.51955,1.0118 c -1.55804,0.049 -2.92811,1.562 -2.86261,3.1617 0.11143,2.5181 0.36561,4.8989 0.76952,7.1454 l -21.76203,27.2224 c -0.90859,1.1271 -0.85272,2.9492 0.12312,4.0153 l 0.33859,0.3794 -12.95872,17.7688 10.83484,-7.0822 -15.75977,24.2819 12.80482,-12.1409 -3.93995,10.1174 12.80482,-11.1292 -3.93994,9.1057 9.84985,-10.1174 -0.98498,3.0352 7.5413,-6.1969 0.1539,0.1897 c 1.00788,1.0985 2.85585,1.23 4.00151,0.2846 l 28.34912,-23.0806 c 2.32081,0.324 4.7447,0.4743 7.23349,0.4743 1.57844,6e-4 3.00413,-1.5096 2.95496,-3.1301 l -0.98499,-32.3759 c -0.0477,-1.5894 -1.49994,-2.9907 -3.0473,-2.9404 z m -51.8041,4.047 -3.07808,2.6243 -4.12463,-0.2846 1.63139,3.7624 -1.47748,3.7309 2.64715,-0.1898 -2.80106,28.8032 5.78679,-27.665 1.69295,1.3596 0.89264,-3.9521 3.44745,-2.1184 -3.53979,-2.15 z m -16.06758,14.1645 -2.4009,3.9837 -3.6937,0.3478 2.80105,3.6675 -0.83108,3.8574 2.0931,-0.8853 -1.90841,23.4283 5.20195,-23.4916 1.90841,1.2331 -0.24624,-4.7425 2.80105,-2.5926 -4.27853,-1.2015 z m 38.44523,5.0587 c 1.55675,2.7348 3.44349,5.0992 5.66367,7.0822 2.93897,2.6251 6.37735,4.535 10.18844,5.8491 l -5.20195,4.23677 c -4.67729,-4.27887 -8.80832,-10.56617 -10.65016,-17.16807 z m -6.12538,0.032 c 1.79263,8.2014 6.44191,15.6565 12.06607,20.9937 l -1.90841,1.5493 c -5.77123,-5.60473 -10.53129,-14.1907 -10.92718,-21.5944 z m -5.75601,7.2087 c 1.80471,7.2325 6.03895,14.0507 11.20421,19.16 l -1.87763,1.5176 c -4.92125,-4.804 -9.63849,-13.1019 -10.21923,-19.5394 z m -5.7868,7.2087 c 0.88212,3.1767 2.25173,6.2959 3.97073,9.169 l -6.03304,-6.57633 z m 39.3071,8.8212 -1.84685,2.9087 -3.23199,0.6956 0.83108,1.1699 -7.57207,4.3315 8.68018,-2.15 -0.3078,2.9088 3.10886,-1.2014 2.98574,1.4543 -0.0923,-3.5095 2.21622,-2.5925 -3.17042,-0.9802 -1.6006,-3.0352 z m -14.25152,10.5284 -2.4009,3.9839 -3.6937,0.3477 1.84685,2.4029 -14.99025,4.9955 15.66743,-2.4978 -0.55406,2.6243 4.12463,-1.739 3.17043,2.0235 -0.24625,-4.7425 2.80105,-2.5927 -4.27853,-1.1698 z m 3.41667,18.8122 -2.98574,1.5492 -3.10886,-1.0433 0.18469,1.6757 -21.66969,-1.1698 21.11563,4.0154 -1.23123,1.7389 3.23198,0.5375 1.84685,2.8139 1.60061,-3.0985 3.17042,-1.1065 -2.247,-2.4663 0.0923,-3.4462 z" style="color:#000000;enable-background:accumulate;" fill="#000000" stroke="none" marker="none" visibility="visible" display="inline" overflow="visible"></path></g></svg>