<svg height='100px' width='100px'  fill="#000000" xmlns="http://www.w3.org/2000/svg" data-name="Layer 1" viewBox="0 0 128 128" x="0px" y="0px"><title>solid</title><path d="M99.33,43.19a1,1,0,0,0-1-1H96.67a4,4,0,0,0-.47-.06,1,1,0,0,0-.87,1.08,1,1,0,0,0,1,.86s.08.08.12.08.14.07.21.07h1.66A1,1,0,0,0,99.33,43.19Z"></path><path d="M93,59.88a1,1,0,1,0,2,0v-2a1,1,0,1,0-2,0Z"></path><path d="M106,51.49a1,1,0,0,0-1,1v2a1,1,0,1,0,2,0v-2A1,1,0,0,0,106,51.49Z"></path><path d="M103.34,44.2a1.78,1.78,0,0,1,.62,0,1,1,0,0,0,.35,0,1,1,0,0,0,.94-.68.92.92,0,0,0-.59-1.21,3.71,3.71,0,0,0-1.32-.16h-1a1,1,0,0,0,0,2Z"></path><path d="M94,48.82a1,1,0,0,0,1-1v-2a1,1,0,1,0-2,0v2A1,1,0,0,0,94,48.82Z"></path><path d="M106,45.46a1,1,0,0,0-1,1v2a1,1,0,1,0,2,0v-2A1,1,0,0,0,106,45.46Z"></path><path d="M106,57.52a1,1,0,0,0-1,1v1.57a1,1,0,1,0,2,0V58.53A1,1,0,0,0,106,57.52Z"></path><path d="M93,53.85a1,1,0,1,0,2,0v-2a1,1,0,1,0-2,0Z"></path><path d="M88.76,21.87a1,1,0,0,0-.08-1.42,1,1,0,0,0-1.41.08L85.93,22A1,1,0,0,0,86,23.45a1,1,0,0,0,1.41-.08Z"></path><path d="M78,44.94a1,1,0,1,0,2,0v-2a1,1,0,1,0-2,0Z"></path><path d="M78,50a1,1,0,1,0,2,0V48a1,1,0,1,0-2,0Z"></path><path d="M89.27,18.28a1,1,0,0,0,.08,1.42,1,1,0,0,0,1.41-.08l1.33-1.5A1,1,0,0,0,92,16.71a1,1,0,0,0-1.41.08Z"></path><path d="M93.93,13l-1.33,1.5A1,1,0,0,0,92.68,16a1,1,0,0,0,1.41-.08l1.33-1.5A1,1,0,0,0,95.34,13,1,1,0,0,0,93.93,13Z"></path><path d="M85.94,63.38h-2a1,1,0,0,0,0,2h2a1,1,0,0,0,0-2Z"></path><path d="M79,35.89a1,1,0,0,0,1-1v-2a1,1,0,1,0-2,0v2A1,1,0,0,0,79,35.89Z"></path><path d="M82.68,27.2a1,1,0,0,0,1.41-.08l1.33-1.5a1,1,0,0,0-.08-1.42,1,1,0,0,0-1.41.08l-1.33,1.5A1,1,0,0,0,82.68,27.2Z"></path><path d="M88.94,65.4h2a1,1,0,0,0,0-2h-2a1,1,0,0,0,0,2Z"></path><path d="M78,55a1,1,0,1,0,2,0V53a1,1,0,1,0-2,0Z"></path><path d="M78,39.91a1,1,0,1,0,2,0v-2a1,1,0,1,0-2,0Z"></path><path d="M96.68,12.46a1,1,0,0,0,.75-.33l1.33-1.5a1,1,0,0,0-.08-1.42,1,1,0,0,0-1.41.08l-1.33,1.5a1,1,0,0,0,.75,1.67Z"></path><path d="M118.14,27.47a1,1,0,0,0,1.41.08,1,1,0,0,0,.07-1.42l-1.34-1.5a1,1,0,0,0-1.41-.07A1,1,0,0,0,116.8,26Z"></path><path d="M106.84,13.34a1,1,0,0,0-.07,1.42l1.34,1.49a1,1,0,0,0,1.41.08,1,1,0,0,0,.07-1.42l-1.34-1.5A1,1,0,0,0,106.84,13.34Z"></path><path d="M120.15,29.71l1.3,1.45.08.08a.92.92,0,0,0,.66.28,1,1,0,0,0,.7-.29,1,1,0,0,0,0-1.43l-1.28-1.43a1,1,0,0,0-1.41-.08A1,1,0,0,0,120.15,29.71Z"></path><path d="M113.53,20.82a1,1,0,0,0-.07,1.42l1.34,1.5a1,1,0,0,0,1.41.07,1,1,0,0,0,.07-1.42l-1.34-1.49A1,1,0,0,0,113.53,20.82Z"></path><path d="M98.94,65.4h2a1,1,0,0,0,0-2h-2a1,1,0,0,0,0,2Z"></path><path d="M103.42,11l1.34,1.5a1,1,0,0,0,1.41.07,1,1,0,0,0,.07-1.42l-1.34-1.5a1,1,0,0,0-1.41-.07A1,1,0,0,0,103.42,11Z"></path><path d="M99.24,8.27a1,1,0,0,0,1.27.62,1.22,1.22,0,0,1,1,.13,1,1,0,0,0,.54.16,1,1,0,0,0,.54-1.85A3.22,3.22,0,0,0,99.86,7,1,1,0,0,0,99.24,8.27Z"></path><path d="M93.94,65.4h2a1,1,0,0,0,0-2h-2a1,1,0,0,0,0,2Z"></path><path d="M123,42.34a1,1,0,0,0-1,1v2a1,1,0,1,0,2,0v-2A1,1,0,0,0,123,42.34Z"></path><path d="M123,57.42a1,1,0,0,0-1,1v2a1,1,0,1,0,2,0v-2A1,1,0,0,0,123,57.42Z"></path><path d="M78,60a1,1,0,1,0,2,0V58a1,1,0,1,0-2,0Z"></path><path d="M123,52.39a1,1,0,0,0-1,1v2a1,1,0,1,0,2,0v-2A1,1,0,0,0,123,52.39Z"></path><path d="M123,47.37a1,1,0,0,0-1,1v2a1,1,0,1,0,2,0v-2A1,1,0,0,0,123,47.37Z"></path><path d="M112.94,18.65l-1.34-1.5a1,1,0,0,0-1.41-.08,1,1,0,0,0-.07,1.42L111.45,20a1,1,0,0,0,1.41.08A1,1,0,0,0,112.94,18.65Z"></path><path d="M123,37.31a1,1,0,0,0-1,1v2a1,1,0,1,0,2,0v-2A1,1,0,0,0,123,37.31Z"></path><path d="M121.66,62.78a1.52,1.52,0,0,1-1,.6h-1.7a1,1,0,0,0,0,2h1.7a3.49,3.49,0,0,0,2.52-1.29,1,1,0,0,0-.09-1.42A1,1,0,0,0,121.66,62.78Z"></path><path d="M110.94,63.38h-2a1,1,0,0,0,0,2h2a1,1,0,0,0,0-2Z"></path><path d="M115.94,63.38h-2a1,1,0,0,0,0,2h2a1,1,0,0,0,0-2Z"></path><path d="M105.94,63.38h-2a1,1,0,0,0,0,2h2a1,1,0,0,0,0-2Z"></path><path d="M82,27.95A1,1,0,0,0,80.6,28l-1.33,1.5a1,1,0,0,0,.08,1.42,1,1,0,0,0,1.41-.08l1.33-1.5A1,1,0,0,0,82,27.95Z"></path><path d="M123,32.29a1,1,0,0,0-1,1v2a1,1,0,1,0,2,0v-2A1,1,0,0,0,123,32.29Z"></path><path d="M80.77,65.07l.18,0a1,1,0,0,0,.18-2,1.36,1.36,0,0,1-.92-.64,1,1,0,0,0-1.37-.34,1,1,0,0,0-.34,1.38A3.36,3.36,0,0,0,80.77,65.07Z"></path><path d="M118.39,21a1,1,0,0,0,1.41.07,1,1,0,0,0,.07-1.42l-1.34-1.49a1,1,0,0,0-1.41-.07A1,1,0,0,0,117,19.5Z"></path><path d="M127.74,28.41l-1.17-1.3a1,1,0,0,0-1.41-.07,1,1,0,0,0-.07,1.42l1.17,1.3a1,1,0,0,0,1.41.07A1,1,0,0,0,127.74,28.41Z"></path><path d="M110.34,12a1,1,0,0,0,1.41.07,1,1,0,0,0,.07-1.42L110.49,9.2a1,1,0,0,0-1.41-.07,1,1,0,0,0-.07,1.42Z"></path><path d="M106.32,7.56a1,1,0,0,0,1.41.07,1,1,0,0,0,.07-1.42l-1.34-1.49a1,1,0,0,0-1.41-.07A1,1,0,0,0,105,6.07Z"></path><path d="M114.36,16.52a1,1,0,0,0,1.41.07,1,1,0,0,0,.07-1.42l-1.34-1.49a1,1,0,0,0-1.41-.07A1,1,0,0,0,113,15Z"></path><path d="M122.55,22.63a1,1,0,0,0-1.41-.07,1,1,0,0,0-.07,1.42l1.34,1.49a1,1,0,0,0,1.41.07,1,1,0,0,0,.07-1.42Z"></path><path d="M92.93,9.4a1,1,0,0,0,.75-.34L95,7.56a1,1,0,0,0-.08-1.42,1,1,0,0,0-1.41.08l-1.33,1.5a1,1,0,0,0,.08,1.42A1,1,0,0,0,92.93,9.4Z"></path><path d="M85,18.42a1,1,0,0,0,.75-.34L87,16.58A1,1,0,0,0,87,15.16a1,1,0,0,0-1.41.08l-1.33,1.5a1,1,0,0,0,.08,1.42A1,1,0,0,0,85,18.42Z"></path><path d="M73,31.94a1,1,0,0,0,.75-.34l1.33-1.5A1,1,0,0,0,75,28.68a1,1,0,0,0-1.41.08l-1.33,1.5a1,1,0,0,0,.08,1.42A1,1,0,0,0,73,31.94Z"></path><path d="M88.94,13.91a1,1,0,0,0,.75-.34L91,12.07a1,1,0,0,0-.08-1.42,1,1,0,0,0-1.41.08l-1.33,1.5a1,1,0,0,0,.08,1.42A1,1,0,0,0,88.94,13.91Z"></path><path d="M81,22.93a1,1,0,0,0,.75-.34L83,21.09A1,1,0,0,0,83,19.67a1,1,0,0,0-1.41.09l-1.33,1.5a1,1,0,0,0,.08,1.42A1,1,0,0,0,81,22.93Z"></path><path d="M77,27.43a1,1,0,0,0,.75-.34l1.33-1.5A1,1,0,0,0,79,24.17a1,1,0,0,0-1.41.08l-1.33,1.5a1,1,0,0,0,.08,1.42A1,1,0,0,0,77,27.43Z"></path><path d="M96.92,4.89a1,1,0,0,0,.75-.34L99,3.05a1,1,0,0,0-.08-1.42,1,1,0,0,0-1.41.08l-1.33,1.5a1,1,0,0,0,.08,1.42A1,1,0,0,0,96.92,4.89Z"></path><path d="M101.16,1.89c.07,0,.14.09.13.07l1,1.12a1,1,0,0,0,1.41.07,1,1,0,0,0,.07-1.42L102.7.55a3,3,0,0,0-.61-.43,1,1,0,0,0-.94,1.78Z"></path><path d="M97,28h2a1,1,0,0,0,0-2H97a1,1,0,0,0,0,2Z"></path><path d="M97,32.08h2a1,1,0,0,0,0-2H97a1,1,0,0,0,0,2Z"></path><path d="M105,26h-2a1,1,0,0,0,0,2h2a1,1,0,0,0,0-2Z"></path><path d="M106,31.07a1,1,0,0,0-1-1h-2a1,1,0,0,0,0,2h2A1,1,0,0,0,106,31.07Z"></path><path d="M31.34,104.78H24.66c-2,0-3.66,2.15-3.66,4.11v14.32a1,1,0,1,0,2,0V108.89c0-.85.75-2.09,1.66-2.09h6.67c.92,0,1.66,1.24,1.66,2.09v14.54a1,1,0,1,0,2,0V108.89C35,106.93,33.36,104.78,31.34,104.78Z"></path><path d="M31.23,71.14a3.29,3.29,0,0,0-4.72.09L7.06,93.09,7,93.18a2.87,2.87,0,0,0-1,2.08v29.8C6,126.93,7.51,128,9.36,128H48.64c1.85,0,3.36-1.07,3.36-2.94V95.26a2.8,2.8,0,0,0-1-2.07ZM50,125.06c0,.76-.61.92-1.36.92H9.36c-.75,0-1.36-.16-1.36-.92V95.26c0-.2.05-.28.45-.71L28,72.57a1.22,1.22,0,0,1,1.78-.06l19.69,22,.1.1c.39.4.45.48.45.66Z"></path><path d="M29.29,65.3l25,27.79a1,1,0,0,0,1.41.07,1,1,0,0,0,.07-1.42l-25-27.86c-1.12-1-3.07-1.19-4.65.53L.25,93.61A1,1,0,0,0,.34,95a1,1,0,0,0,1.41-.08l25.8-29.18C28.3,64.94,29,65,29.29,65.3Z"></path><path d="M25,90.64h2a1,1,0,0,0,0-2H25a1,1,0,0,0,0,2Z"></path><path d="M25,94.68h2a1,1,0,0,0,0-2H25a1,1,0,0,0,0,2Z"></path><path d="M31,90.64h2a1,1,0,0,0,0-2H31a1,1,0,0,0,0,2Z"></path><path d="M31,94.68h2a1,1,0,0,0,0-2H31a1,1,0,0,0,0,2Z"></path><path d="M100.83,67.58l-.05,0a1,1,0,0,0-1.56,0l-.05,0-4,6a1,1,0,1,0,1.66,1.12L99,71.46v38.37H55a1,1,0,0,0,0,2h45c.55,0,1,.07,1-.48V71.46l2.17,3.27a1,1,0,0,0,.83.45,1,1,0,0,0,.55-.17,1,1,0,0,0,.28-1.39Z"></path></svg>