<svg height='100px' width='100px'  fill="#000000" xmlns="http://www.w3.org/2000/svg" xmlns:xlink="http://www.w3.org/1999/xlink" version="1.1" x="0px" y="0px" viewBox="0 0 512 512" enable-background="new 0 0 512 512" xml:space="preserve"><g><path d="M134.786,204.349l-67.14,48.34c-3.361,2.42-4.125,7.107-1.704,10.469c1.465,2.036,3.762,3.118,6.093,3.118   c1.518,0,3.05-0.459,4.376-1.414l67.14-48.34c3.361-2.42,4.125-7.107,1.704-10.469   C142.835,202.692,138.147,201.928,134.786,204.349z M500.107,212.848c-9.121-21.599-30.701-27.178-48.244-21.998   c-15.85-12.86-38.743-19.384-68.165-19.384c-1.473,0-253.876,0-255.35,0c-29.42,0-52.317,6.524-68.174,19.385   c-17.537-5.176-39.113,0.402-48.245,21.997c-4.29,10.156-4.102,21.653,0.515,31.544c3.254,6.971,10.128,16.074,24.453,21.714   c3.576,21.623,13.895,40.004,30.033,53.374c16.39,13.578,38.202,21.056,61.418,21.056c42.312,0,88.659-30.183,105.705-68.779   c6.324-12.597,10.144-20.203,12.824-22.955c0.523-0.538,4.768-2.353,9.046-2.353s8.59,1.993,9.246,2.66   c2.845,2.893,6.804,10.775,13.384,23.877c17.387,37.892,63.536,67.55,105.145,67.55c23.217,0,45.029-7.478,61.418-21.056   c16.141-13.373,26.461-31.759,30.034-53.375c14.318-5.64,21.19-14.742,24.443-21.712   C504.209,234.502,504.397,223.004,500.107,212.848z M35.49,248.614c-4.294-2.829-7.503-6.387-9.454-10.566   c-2.825-6.052-2.93-13.11-0.29-19.361c4.386-10.374,13.237-14.748,22.201-14.682C39.699,215.926,35.508,230.865,35.49,248.614z    M220.504,265.314c-0.049,0.1-0.09,0.202-0.134,0.303c-14.549,33.056-55.778,59.918-92.021,59.918   c-41.532,0-72.565-26.467-77.224-65.876c-0.422-3.506-0.636-7.185-0.636-10.934c0-18.925,5.525-33.689,16.423-43.883   c13.036-12.194,33.706-18.377,61.437-18.377c1.621,0,3.26,0.01,4.909,0.03c63.415,0.77,92.951,17.366,92.951,52.23   C226.208,247.647,224.286,256.594,220.504,265.314z M270.944,234.878c-3.75-1.872-6.064-3.742-14.915-3.742   s-11.466,1.832-14.936,3.502c-1.158-21.417-11.543-37.585-30.94-48.173h91.742C282.426,197.093,272.037,213.342,270.944,234.878z    M460.92,259.675c-4.657,39.393-35.689,65.86-77.222,65.86c-17.005,0-35.785-5.925-52.88-16.684   c-17.552-11.046-31.292-26.048-38.688-42.242c-0.024-0.053-0.049-0.105-0.074-0.158c-4.126-9.08-6.218-18.408-6.218-27.727   c0-34.864,29.536-51.461,92.949-52.23c1.65-0.02,3.29-0.03,4.911-0.03c27.732,0,48.398,6.183,61.432,18.382   c10.901,10.179,16.428,24.941,16.428,43.878C461.558,252.474,461.344,256.153,460.92,259.675z M486,238.05   c-1.949,4.177-5.155,7.733-9.445,10.561c-0.018-17.757-4.21-32.697-12.457-44.608c8.964-0.065,17.81,4.31,22.19,14.681   C488.931,224.938,488.826,231.996,486,238.05z"></path></g></svg>