<svg height='100px' width='100px'  fill="#000000" xmlns:dc="http://purl.org/dc/elements/1.1/" xmlns:cc="http://creativecommons.org/ns#" xmlns:rdf="http://www.w3.org/1999/02/22-rdf-syntax-ns#" xmlns:svg="http://www.w3.org/2000/svg" xmlns="http://www.w3.org/2000/svg" xmlns:sodipodi="http://sodipodi.sourceforge.net/DTD/sodipodi-0.dtd" xmlns:inkscape="http://www.inkscape.org/namespaces/inkscape" viewBox="0 0 100 100" version="1.1" x="0px" y="0px"><g transform="translate(0,-952.36216)"><g transform="matrix(1.0012069,0,0,1.0002236,-0.07276705,-0.22339342)"><path transform="translate(0,952.36216)" d="m 56.000213,19.884859 c -1.267454,0.02837 -1.964,1.291929 -1.898596,2.440708 -0.269136,2.383058 -0.303446,4.817399 -0.648345,7.174126 -1.473806,3.021619 -2.937171,6.07224 -4.422963,9.073778 -1.909415,-1.672896 -4.954022,-1.69903 -6.935033,-0.132929 -0.61994,-2.471928 -1.524384,-4.909061 -1.967116,-7.402711 -0.02269,-2.83167 0.39001,-5.695528 0.05399,-8.511335 -0.429353,-1.736219 -3.341262,-1.725828 -3.602861,0.08528 -0.370549,3.19519 -0.291657,6.186719 0.175443,9.647105 0.4671,3.460386 1.566415,7.27455 2.568395,10.911819 -0.808872,2.327947 -1.206305,4.769971 -1.12889,7.32452 0.524633,3.302489 1.406015,7.362811 0.191728,9.592844 -1.060265,1.947172 -5.16839,3.279508 -10.590118,4.172939 -5.421728,0.893431 -13.261293,0.292592 -19.8840752,0.699494 -1.4562644,0.220144 -2.6405101,1.720626 -2.3460892,3.210985 -0.043957,1.149333 1.0024185,2.01618 1.8692754,2.549795 10.699633,0.225104 35.951549,-1.232825 42.355281,-8.116189 11.578806,-2.296867 25.331813,-3.66089 35.758777,-5.191442 1.262501,-0.152147 2.712955,-0.686034 2.976036,-2.099561 0.726918,-1.92947 -1.154606,-4.193417 -3.194122,-3.681469 -9.321228,1.092585 -18.514981,3.568457 -27.899872,3.520999 -3.769544,-0.01906 -7.923116,-1.133405 -8.057435,-3.987807 -0.134319,-2.854402 0.778817,-5.609952 1.68927,-7.910519 2.166927,-4.246107 4.716506,-9.144438 5.837037,-12.855325 1.120531,-3.710887 1.086974,-5.973986 1.052422,-8.961405 -0.165605,-0.907012 -1.021096,-1.618441 -1.952139,-1.5537 z" style="opacity:1;fill:#000000;fill-opacity:1;fill-rule:evenodd;stroke:none;stroke-width:1;stroke-linecap:round;stroke-linejoin:round;stroke-miterlimit:4;stroke-dasharray:none;stroke-dashoffset:0;stroke-opacity:1"></path><circle r="5" cy="983.56458" cx="46.159729" style="opacity:1;fill:#000000;fill-opacity:1;fill-rule:evenodd;stroke:none;stroke-width:3.83965182;stroke-linecap:round;stroke-linejoin:round;stroke-miterlimit:4;stroke-dasharray:none;stroke-dashoffset:0;stroke-opacity:1"></circle><path transform="translate(0,952.36216)" d="m 39.40369,20.942824 c -0.241482,-0.111666 -0.46879,-0.213514 -0.505128,-0.22633 -0.08486,-0.02993 0.117828,-1.177507 0.417818,-2.365591 0.645231,-2.555388 1.849168,-6.436591 2.930022,-9.4456853 1.306338,-3.6368433 1.528736,-4.0291663 2.178991,-3.8438645 0.229476,0.065393 0.289575,0.1325775 0.31083,0.3474737 -1.446168,5.5435381 -2.646496,8.2623071 -4.521291,14.4500371 l -0.372182,1.286989 z" style="opacity:1;fill:#000000;fill-opacity:1;fill-rule:evenodd;stroke:none;stroke-width:1;stroke-linecap:round;stroke-linejoin:round;stroke-miterlimit:4;stroke-dasharray:none;stroke-dashoffset:0;stroke-opacity:1"></path><path transform="translate(0,952.36216)" d="m 47.486651,6.0332973 c -0.28683,-0.7603887 -0.290487,-0.7864684 -0.127044,-0.9059806 0.205703,-0.150414 0.492982,-0.1572909 0.796359,-0.019063 3.496532,5.6531303 3.992037,7.3171113 7.371095,14.2535663 l -0.401131,0.193327 c -0.220621,0.106331 -0.508828,0.296509 -0.640459,0.422619 -0.131631,0.126111 -0.25704,0.228346 -0.278687,0.227188 -2.176121,-4.540988 -4.779853,-9.105123 -6.720133,-14.1716567 z" style="opacity:1;fill:#000000;fill-opacity:1;fill-rule:evenodd;stroke:none;stroke-width:1;stroke-linecap:round;stroke-linejoin:round;stroke-miterlimit:4;stroke-dasharray:none;stroke-dashoffset:0;stroke-opacity:1"></path><path transform="translate(0,952.36216)" d="M 9.5156853,63.869612 C 18.002339,50.765354 27.125763,36.532319 35.267929,25.607365 l 0.558916,-0.742682 0,1.690487 0,1.690488 c -8.262122,12.510254 -15.772487,23.483519 -23.629022,34.886104 -0.825853,1.22719 -0.73648,1.181082 -2.2892918,1.181082 l -0.7913495,0 z" style="opacity:1;fill:#000000;fill-opacity:1;fill-rule:evenodd;stroke:none;stroke-width:1;stroke-linecap:round;stroke-linejoin:round;stroke-miterlimit:4;stroke-dasharray:none;stroke-dashoffset:0;stroke-opacity:1"></path><path transform="translate(0,952.36216)" d="m 58.26284,25.955118 0.101548,-1.303609 c 0.05585,-0.716984 0.108865,-1.310377 0.117808,-1.318651 8.912221,9.132367 17.061504,18.431683 25.358882,27.239181 l 0.593886,0.629909 -1.610352,0.195643 c -0.885693,0.107604 -1.730936,0.216458 -1.87832,0.241899 C 74.635032,45.510693 65.436093,33.840993 58.26284,25.955118 Z" style="opacity:1;fill:#000000;fill-opacity:1;fill-rule:evenodd;stroke:none;stroke-width:1;stroke-linecap:round;stroke-linejoin:round;stroke-miterlimit:4;stroke-dasharray:none;stroke-dashoffset:0;stroke-opacity:1"></path><path transform="translate(0,952.36216)" d="m 5.5564904,75.891717 c 0.1283376,-2.271149 0.3763185,-5.490766 0.426797,-5.541244 0.4565713,0.284106 1.0022832,0.724871 1.2317233,0.900856 0.2294401,0.175985 2.5480936,-0.05918 2.5480936,-0.05918 0.058908,8.047594 1.3051177,16.705834 1.4033917,23.791455 -2.0329322,0 -4.0658644,0 -6.0987966,0 -0.016965,-6.524569 0.1733087,-13.405821 0.488791,-19.091887 z" style="opacity:1;fill:#000000;fill-opacity:1;fill-rule:evenodd;stroke:none;stroke-width:1;stroke-linecap:round;stroke-linejoin:round;stroke-miterlimit:4;stroke-dasharray:none;stroke-dashoffset:0;stroke-opacity:1"></path><path transform="translate(0,952.36216)" d="m 88.374275,69.969698 c -0.321986,-7.104152 -0.619908,-11.245301 -0.884944,-12.300815 -0.04725,-0.188166 -0.01935,-0.257137 0.138079,-0.341391 0.344884,-0.184577 0.976386,-0.817718 1.144733,-1.147705 0.305674,-1.631853 1.240827,1.081532 1.757784,4.199775 1.006201,6.025754 2.781208,19.661152 4.078904,31.33367 0.191864,1.725782 0.349064,3.167617 0.349333,3.204077 -1.766378,0.10048 -3.117621,0.06629 -5.023602,0.06629 -0.70605,-8.739053 -1.215957,-17.606076 -1.560287,-25.013901 z" style="opacity:1;fill:#000000;fill-opacity:1;fill-rule:evenodd;stroke:none;stroke-width:1;stroke-linecap:round;stroke-linejoin:round;stroke-miterlimit:4;stroke-dasharray:none;stroke-dashoffset:0;stroke-opacity:1"></path></g></g></svg>