<svg height='100px' width='100px'  fill="#000000" xmlns="http://www.w3.org/2000/svg" xmlns:xlink="http://www.w3.org/1999/xlink" version="1.1" x="0px" y="0px" viewBox="0 0 66 66" enable-background="new 0 0 66 66" xml:space="preserve"><g><g><g><path d="M61.1,55.8H4.9C2.7,55.8,1,54,1,51.9v-47C1,2.7,2.7,1,4.9,1h56.2C63.3,1,65,2.7,65,4.9v47     C65,54,63.3,55.8,61.1,55.8z M4.9,2.9c-1.1,0-1.9,0.9-1.9,1.9v47c0,1.1,0.9,1.9,1.9,1.9h56.2c1.1,0,1.9-0.9,1.9-1.9v-47     c0-1.1-0.9-1.9-1.9-1.9H4.9z"></path></g></g><g><path d="M35.3,51.8h-4.7c-0.5,0-1-0.4-1-1c0-0.5,0.4-1,1-1h4.7c0.5,0,1,0.4,1,1C36.3,51.4,35.9,51.8,35.3,51.8z"></path></g><g><path d="M45.4,17.3c-1.5,0-2.8,1.1-3,2.7c-0.2,1.7,1,3.2,2.7,3.4c1.7,0.2,3.2-1,3.4-2.7    C48.7,18.9,47.3,17.3,45.4,17.3z"></path><path d="M24.5,25.3c-2.4,0-4.5,1.8-4.8,4.3c-0.3,2.7,1.6,5.1,4.3,5.4c2.7,0.3,5.1-1.6,5.4-4.3    C29.7,27.9,27.4,25.3,24.5,25.3z"></path><path d="M59.2,5.8H6.8c-0.5,0-1,0.4-1,1v40c0,0.5,0.4,1,1,1h52.4c0.5,0,1-0.4,1-1v-40    C60.2,6.3,59.7,5.8,59.2,5.8z M37.4,32.9c0,0.4-0.3,0.7-0.7,0.8l-2.8,0.7C33.7,35,33.4,35.5,33,36l0.8,2.7c0.1,0.4,0,0.8-0.3,1    l-1.8,1.4c-0.3,0.2-0.7,0.3-1.1,0.1l-2.5-1.5c-0.6,0.2-1.2,0.4-1.8,0.5L25,42.9c-0.2,0.4-0.6,0.6-1,0.5l-2.3-0.3    c-0.4,0-0.7-0.3-0.8-0.7l-0.7-2.8c-0.6-0.3-1.1-0.6-1.6-0.9l-2.7,0.8c-0.4,0.1-0.8,0-1-0.3l-1.4-1.8c-0.2-0.3-0.3-0.7-0.1-1.1    l1.5-2.5c-0.2-0.6-0.4-1.2-0.5-1.8l-2.5-1.3c-0.4-0.2-0.6-0.6-0.5-1l0.3-2.3c0-0.4,0.3-0.7,0.7-0.8L15,26c0.3-0.6,0.6-1.1,0.9-1.6    l-0.8-2.7c-0.1-0.4,0-0.8,0.3-1l1.8-1.4c0.3-0.2,0.8-0.3,1.1-0.1l2.5,1.5c0.6-0.2,1.2-0.4,1.8-0.5l1.3-2.5c0.2-0.4,0.6-0.6,1-0.5    l2.3,0.3c0.4,0,0.7,0.3,0.8,0.7l0.7,2.8c0.6,0.3,1.1,0.6,1.6,0.9l2.7-0.8c0.4-0.1,0.8,0,1,0.3l1.4,1.8c0.2,0.3,0.3,0.8,0.1,1.1    l-1.5,2.5c0.2,0.6,0.4,1.2,0.5,1.8l2.5,1.3c0.4,0.2,0.6,0.6,0.5,1L37.4,32.9z M54.9,22.6c-0.1,0.4-0.4,0.8-0.8,0.8l-1.6,0.3    c-0.1,0.3-0.3,0.6-0.5,0.9l0.6,1.5c0.2,0.4,0,0.8-0.3,1.1l-1.8,1.4c-0.3,0.3-0.8,0.3-1.1,0l-1.3-0.9c-0.3,0.1-0.7,0.2-1,0.3    l-0.6,1.5c-0.2,0.4-0.6,0.6-1,0.6l-2.2-0.3c-0.4-0.1-0.8-0.4-0.8-0.8l-0.3-1.6c-0.3-0.1-0.6-0.3-0.9-0.5l-1.5,0.6    c-0.4,0.2-0.8,0-1.1-0.3l-1.4-1.8c-0.3-0.3-0.3-0.8,0-1.2L38,23c-0.1-0.3-0.2-0.7-0.3-1l-1.5-0.6c-0.4-0.2-0.6-0.6-0.6-1l0.3-2.2    c0.1-0.4,0.4-0.8,0.8-0.8l1.6-0.3c0.1-0.3,0.3-0.6,0.5-0.9l-0.6-1.5c-0.2-0.4,0-0.8,0.3-1.1l1.8-1.4c0.3-0.3,0.8-0.3,1.2,0    l1.3,0.9c0.3-0.1,0.7-0.2,1-0.3l0.6-1.5c0.2-0.4,0.6-0.6,1-0.6l2.2,0.3c0.4,0.1,0.8,0.4,0.8,0.8l0.3,1.6c0.3,0.1,0.6,0.3,0.9,0.5    l1.5-0.6c0.4-0.2,0.8,0,1.1,0.3l1.4,1.8c0.3,0.3,0.3,0.8,0,1.2l-0.9,1.3c0.1,0.3,0.2,0.7,0.3,1l1.5,0.6c0.4,0.2,0.6,0.6,0.6,1    L54.9,22.6z"></path></g><g><path d="M43,64c0,0.5-0.4,1-1,1H24c-0.5,0-1-0.4-1-1s0.4-1,1-1H25v-5.3H41v5.3H42C42.6,63.1,43,63.5,43,64z"></path></g></g></svg>