<svg height='100px' width='100px'  fill="#000000" xmlns:x="http://ns.adobe.com/Extensibility/1.0/" xmlns:i="http://ns.adobe.com/AdobeIllustrator/10.0/" xmlns:graph="http://ns.adobe.com/Graphs/1.0/" xmlns="http://www.w3.org/2000/svg" xmlns:xlink="http://www.w3.org/1999/xlink" version="1.1" x="0px" y="0px" viewBox="0 0 56.7 56.7" style="enable-background:new 0 0 56.7 56.7;" xml:space="preserve"><g><g i:extraneous="self"><g><g><g><path d="M28.7,44l-3.6-7l-6.8,2.4l2.4-7.3l-10.4-6l10.4-2L18,13.8l8.3,5.6l3.1-5.7l3.6,6.7l9.5-3.9l-3.8,8.1l9.1,2.8l-9.1,4       L43.6,42l-11-6L28.7,44z M25.9,35.3l2.8,5.6l3.3-6.8l8.6,4.7l-3.7-8.1l6.9-3l-7-2.2l2.9-6.3l-7.4,3l-3-5.6l-2.6,4.8L20.3,17       l2.2,8.2l-8.2,1.6l8.1,4.7l-1.8,5.7L25.9,35.3z M28.7,37.7l-2.1-4.1l-3.8,1.3l1.3-4.1l-5.8-3.4l6-1.2l-1.6-6l4.7,3.1l2.1-3.8       l2.3,4.4l5.2-2.1l-2.1,4.5l4.9,1.5L35,29.9l2.5,5.6l-6.2-3.4L28.7,37.7z M27.3,31.8l1.4,2.7l2.1-4.3l3.8,2.1l-1.4-3l2.5-1.1       l-2.9-0.9l1.3-2.7l-3,1.2l-1.7-3.2l-1.6,2.9L25,23.6l1,3.8l-3.7,0.7l3.6,2.1L25,32.6L27.3,31.8z"></path></g></g><g><g><g><path d="M29.7,50.6v-3.2c0-0.1,0.1-0.1,0.1-0.1c0.1,0,0.1,0.1,0.1,0.1v3.2c0,0.1-0.1,0.1-0.1,0.1        C29.8,50.8,29.7,50.7,29.7,50.6z M29.7,44.5v-0.6c0-0.1,0.1-0.1,0.1-0.1c0.1,0,0.1,0.1,0.1,0.1v0.6c0,0.1-0.1,0.1-0.1,0.1        C29.8,44.6,29.7,44.6,29.7,44.5z"></path></g></g><g><g><path d="M29.7,12.5V9.8c0-0.1,0.1-0.1,0.1-0.1c0.1,0,0.1,0.1,0.1,0.1v2.7c0,0.1-0.1,0.1-0.1,0.1        C29.8,12.6,29.7,12.6,29.7,12.5z M29.7,6.9V6.3c0-0.1,0.1-0.1,0.1-0.1c0.1,0,0.1,0.1,0.1,0.1v0.6C30,7,29.9,7,29.8,7        C29.8,7,29.7,7,29.7,6.9z"></path></g></g><g><g><path d="M5.5,28.1c0-0.1,0.1-0.1,0.1-0.1h0.6c0.1,0,0.1,0.1,0.1,0.1c0,0.1-0.1,0.1-0.1,0.1H5.7C5.6,28.2,5.5,28.2,5.5,28.1z         M9,28.1c0-0.1,0.1-0.1,0.1-0.1h2.4c0.1,0,0.1,0.1,0.1,0.1c0,0.1-0.1,0.1-0.1,0.1H9.2C9.1,28.2,9,28.2,9,28.1z"></path></g></g><g><g><path d="M48.5,28.1c0-0.1,0.1-0.1,0.1-0.1h0.6c0.1,0,0.1,0.1,0.1,0.1c0,0.1-0.1,0.1-0.1,0.1h-0.6        C48.6,28.2,48.5,28.2,48.5,28.1z M52.1,28.1c0-0.1,0.1-0.1,0.1-0.1H56c0.1,0,0.1,0.1,0.1,0.1c0,0.1-0.1,0.1-0.1,0.1h-3.8        C52.1,28.2,52.1,28.2,52.1,28.1z"></path></g></g><g><g><path d="M17.2,15.7L15.5,14c-0.1-0.1-0.1-0.1,0-0.2c0.1-0.1,0.1-0.1,0.2,0l1.7,1.7c0.1,0.1,0.1,0.1,0,0.2c0,0-0.1,0-0.1,0        C17.3,15.7,17.2,15.7,17.2,15.7z M13.4,11.9L13,11.5c-0.1-0.1-0.1-0.1,0-0.2c0.1-0.1,0.1-0.1,0.2,0l0.4,0.4        c0.1,0.1,0.1,0.1,0,0.2c0,0-0.1,0-0.1,0C13.5,11.9,13.5,11.9,13.4,11.9z"></path></g></g><g><g><path d="M51.2,49.7l-3.4-3.4c-0.1-0.1-0.1-0.1,0-0.2c0.1-0.1,0.1-0.1,0.2,0l3.4,3.4c0.1,0.1,0.1,0.1,0,0.2c0,0-0.1,0-0.1,0        S51.2,49.7,51.2,49.7z M45.8,44.2l-0.4-0.4c-0.1-0.1-0.1-0.1,0-0.2s0.1-0.1,0.2,0L46,44c0.1,0.1,0.1,0.1,0,0.2        c0,0-0.1,0-0.1,0S45.8,44.2,45.8,44.2z"></path></g></g><g><g><path d="M12.1,45.8c-0.1-0.1-0.1-0.1,0-0.2l0.4-0.4c0.1-0.1,0.1-0.1,0.2,0c0.1,0.1,0.1,0.1,0,0.2l-0.4,0.4c0,0-0.1,0-0.1,0        S12.1,45.9,12.1,45.8z M14.6,43.3c-0.1-0.1-0.1-0.1,0-0.2l2.3-2.3c0.1-0.1,0.1-0.1,0.2,0s0.1,0.1,0,0.2l-2.3,2.3        c0,0-0.1,0-0.1,0C14.6,43.4,14.6,43.4,14.6,43.3z"></path></g></g><g><g><path d="M42.4,15.5c-0.1-0.1-0.1-0.1,0-0.2l2.9-2.9c0.1-0.1,0.1-0.1,0.2,0c0.1,0.1,0.1,0.1,0,0.2l-2.9,2.9c0,0-0.1,0-0.1,0        S42.4,15.6,42.4,15.5z M47.3,10.6c-0.1-0.1-0.1-0.1,0-0.2l0.4-0.4c0.1-0.1,0.1-0.1,0.2,0c0.1,0.1,0.1,0.1,0,0.2l-0.4,0.4        c0,0-0.1,0-0.1,0C47.4,10.6,47.4,10.6,47.3,10.6z"></path></g></g><g><g><path d="M23.6,43.1c-0.1,0-0.1-0.1-0.1-0.2l0.2-0.5c0-0.1,0.1-0.1,0.2-0.1c0.1,0,0.1,0.1,0.1,0.2L23.8,43        C23.8,43.1,23.7,43.1,23.6,43.1C23.6,43.1,23.6,43.1,23.6,43.1z M24.9,39.9c-0.1,0-0.1-0.1-0.1-0.2l0.1-0.3        c0-0.1,0.1-0.1,0.2-0.1c0.1,0,0.1,0.1,0.1,0.2l-0.1,0.3C25.1,39.8,25.1,39.9,24.9,39.9C25,39.9,25,39.9,24.9,39.9z"></path></g></g><g><g><path d="M33.5,19.2c-0.1,0-0.1-0.1-0.1-0.2l0.2-0.6c0-0.1,0.1-0.1,0.2-0.1c0.1,0,0.1,0.1,0.1,0.2l-0.2,0.6        C33.7,19.2,33.6,19.2,33.5,19.2C33.5,19.2,33.5,19.2,33.5,19.2z M34.9,15.9c-0.1,0-0.1-0.1-0.1-0.2l0.2-0.5        c0-0.1,0.1-0.1,0.2-0.1c0.1,0,0.1,0.1,0.1,0.2l-0.2,0.5C35,15.9,35,15.9,34.9,15.9C34.9,15.9,34.9,15.9,34.9,15.9z"></path></g></g><g><g><path d="M18.7,23.6l-0.5-0.2c-0.1,0-0.1-0.1-0.1-0.2c0-0.1,0.1-0.1,0.2-0.1l0.5,0.2c0.1,0,0.1,0.1,0.1,0.2        C18.9,23.6,18.8,23.6,18.7,23.6C18.7,23.6,18.7,23.6,18.7,23.6z M15.5,22.3l-1.7-0.7c-0.1,0-0.1-0.1-0.1-0.2        c0-0.1,0.1-0.1,0.2-0.1l1.7,0.7c0.1,0,0.1,0.1,0.1,0.2C15.6,22.3,15.6,22.3,15.5,22.3C15.5,22.3,15.5,22.3,15.5,22.3z"></path></g></g><g><g><path d="M44.2,34.2L43.6,34c-0.1,0-0.1-0.1-0.1-0.2c0-0.1,0.1-0.1,0.2-0.1l0.5,0.2c0.1,0,0.1,0.1,0.1,0.2        C44.4,34.2,44.3,34.2,44.2,34.2C44.2,34.2,44.2,34.2,44.2,34.2z M40.9,32.8l-0.7-0.3c-0.1,0-0.1-0.1-0.1-0.2        c0-0.1,0.1-0.1,0.2-0.1l0.7,0.3c0.1,0,0.1,0.1,0.1,0.2C41.1,32.8,41,32.8,40.9,32.8C41,32.8,41,32.8,40.9,32.8z"></path></g></g><g><g><path d="M25.4,17.8l-0.7-1.6c0-0.1,0-0.2,0.1-0.2c0.1,0,0.2,0,0.2,0.1l0.7,1.6c0,0.1,0,0.2-0.1,0.2c0,0,0,0-0.1,0        C25.5,17.9,25.4,17.9,25.4,17.8z M23.6,13.5l-0.2-0.5c0-0.1,0-0.2,0.1-0.2c0.1,0,0.2,0,0.2,0.1l0.2,0.5c0,0.1,0,0.2-0.1,0.2        c0,0,0,0-0.1,0C23.7,13.6,23.6,13.5,23.6,13.5z"></path></g></g><g><g><path d="M35.5,42.2l-0.4-1.1c0-0.1,0-0.2,0.1-0.2c0.1,0,0.2,0,0.2,0.1l0.4,1.1c0,0.1,0,0.2-0.1,0.2c0,0,0,0-0.1,0        C35.6,42.3,35.5,42.2,35.5,42.2z M33.9,38.4l-0.2-0.5c0-0.1,0-0.2,0.1-0.2c0.1,0,0.2,0,0.2,0.1l0.2,0.5c0,0.1,0,0.2-0.1,0.2        c0,0,0,0-0.1,0C34,38.5,34,38.5,33.9,38.4z"></path></g></g><g><g><path d="M15.6,34c0-0.1,0-0.2,0.1-0.2l0.2-0.1c0.1,0,0.2,0,0.2,0.1c0,0.1,0,0.2-0.1,0.2L15.8,34c0,0,0,0-0.1,0        C15.7,34.1,15.6,34,15.6,34z M18.5,32.8c0-0.1,0-0.2,0.1-0.2l0.5-0.2c0.1,0,0.2,0,0.2,0.1c0,0.1,0,0.2-0.1,0.2l-0.5,0.2        c0,0,0,0-0.1,0C18.6,32.9,18.5,32.8,18.5,32.8z"></path></g></g><g><g><path d="M40,23.9c0-0.1,0-0.2,0.1-0.2l0.5-0.2c0.1,0,0.2,0,0.2,0.1c0,0.1,0,0.2-0.1,0.2L40.2,24c0,0,0,0-0.1,0        C40,24,40,23.9,40,23.9z M43.2,22.5c0-0.1,0-0.2,0.1-0.2l0.8-0.3c0.1,0,0.2,0,0.2,0.1c0,0.1,0,0.2-0.1,0.2l-0.8,0.3        c0,0,0,0-0.1,0C43.3,22.6,43.2,22.6,43.2,22.5z"></path></g></g><g><g><path d="M25.9,47.7c-0.1,0-0.1-0.1-0.1-0.2l0.1-0.6c0-0.1,0.1-0.1,0.1-0.1c0,0,0,0,0,0c0.1,0,0.1,0.1,0.1,0.2l-0.1,0.6        C26.1,47.6,26,47.7,25.9,47.7C26,47.7,25.9,47.7,25.9,47.7z M26.6,44.2c-0.1,0-0.1-0.1-0.1-0.2l0.2-1.2c0-0.1,0.1-0.1,0.2-0.1        c0.1,0,0.1,0.1,0.1,0.2l-0.2,1.2C26.8,44.2,26.7,44.2,26.6,44.2C26.6,44.2,26.6,44.2,26.6,44.2z"></path></g></g><g><g><path d="M32.1,16.9c-0.1,0-0.1-0.1-0.1-0.2l0.2-1.1c0-0.1,0.1-0.1,0.2-0.1c0.1,0,0.1,0.1,0.1,0.2l-0.2,1.1        C32.2,16.8,32.2,16.9,32.1,16.9C32.1,16.9,32.1,16.9,32.1,16.9z M32.8,12.9c-0.1,0-0.1-0.1-0.1-0.2l0.1-0.6        c0-0.1,0.1-0.1,0.1-0.1c0,0,0,0,0,0c0.1,0,0.1,0.1,0.1,0.2L33,12.8C33,12.9,32.9,12.9,32.8,12.9        C32.9,12.9,32.9,12.9,32.8,12.9z"></path></g></g><g><g><path d="M12.7,24.8L8.5,24c-0.1,0-0.1-0.1-0.1-0.2c0-0.1,0.1-0.1,0.2-0.1l4.1,0.8c0.1,0,0.1,0.1,0.1,0.2        C12.8,24.8,12.8,24.8,12.7,24.8C12.7,24.8,12.7,24.8,12.7,24.8z M5.7,23.4l-0.6-0.1C5,23.3,5,23.2,5,23.1        C5,23.1,5.1,23,5.2,23l0.6,0.1c0.1,0,0.1,0.1,0.1,0.2C5.8,23.4,5.8,23.4,5.7,23.4C5.7,23.4,5.7,23.4,5.7,23.4z"></path></g></g><g><g><path d="M47.8,31.8l-0.6-0.1c-0.1,0-0.1-0.1-0.1-0.2c0-0.1,0.1-0.1,0.2-0.1l0.6,0.1c0.1,0,0.1,0.1,0.1,0.2        C47.9,31.8,47.9,31.8,47.8,31.8C47.8,31.8,47.8,31.8,47.8,31.8z M44.3,31.1l-1.6-0.3c-0.1,0-0.1-0.1-0.1-0.2        c0-0.1,0.1-0.2,0.2-0.1l1.6,0.3c0.1,0,0.1,0.1,0.1,0.2C44.5,31.1,44.4,31.1,44.3,31.1C44.3,31.1,44.3,31.1,44.3,31.1z"></path></g></g><g><g><path d="M41.1,45.2l-1.6-2.3c0-0.1,0-0.2,0-0.2c0.1,0,0.2,0,0.2,0l1.6,2.3c0,0.1,0,0.2,0,0.2c0,0-0.1,0-0.1,0        C41.2,45.3,41.2,45.3,41.1,45.2z M37.9,40.5L37.6,40c0-0.1,0-0.2,0-0.2c0.1,0,0.2,0,0.2,0l0.3,0.5c0,0.1,0,0.2,0,0.2        c0,0-0.1,0-0.1,0C38,40.5,38,40.5,37.9,40.5z"></path></g></g><g><g><path d="M20.7,14.6l-2.3-3.5c0-0.1,0-0.2,0-0.2c0.1,0,0.2,0,0.2,0l2.3,3.5c0,0.1,0,0.2,0,0.2c0,0-0.1,0-0.1,0        C20.8,14.7,20.7,14.7,20.7,14.6z M16.7,8.7l-0.3-0.5c0-0.1,0-0.2,0-0.2c0.1,0,0.2,0,0.2,0L17,8.6c0,0.1,0,0.2,0,0.2        c0,0-0.1,0-0.1,0C16.8,8.8,16.8,8.8,16.7,8.7z"></path></g></g><g><g><path d="M41.8,20.1c0-0.1,0-0.2,0-0.2l0.5-0.3c0.1,0,0.2,0,0.2,0c0,0.1,0,0.2,0,0.2L42,20.1c0,0-0.1,0-0.1,0        C41.8,20.2,41.8,20.1,41.8,20.1z M44.7,18.1c0-0.1,0-0.2,0-0.2l1.8-1.2c0.1,0,0.2,0,0.2,0c0,0.1,0,0.2,0,0.2l-1.8,1.2        c0,0-0.1,0-0.1,0C44.8,18.2,44.7,18.2,44.7,18.1z"></path></g></g><g><g><path d="M14.3,38.5c0-0.1,0-0.2,0-0.2l1-0.7c0.1,0,0.2,0,0.2,0c0,0.1,0,0.2,0,0.2l-1,0.7c0,0-0.1,0-0.1,0        C14.4,38.5,14.3,38.5,14.3,38.5z M17.8,36.1c0-0.1,0-0.2,0-0.2l0.5-0.3c0.1,0,0.2,0,0.2,0c0,0.1,0,0.2,0,0.2L18,36.2        c0,0-0.1,0-0.1,0C17.9,36.2,17.8,36.2,17.8,36.1z"></path></g></g><g><g><path d="M36.6,17.9c-0.1,0-0.1-0.1,0-0.2l1-1.4c0.1-0.1,0.1-0.1,0.2,0c0.1,0,0.1,0.1,0,0.2l-1,1.4        C36.8,17.9,36.8,17.9,36.6,17.9C36.7,17.9,36.7,17.9,36.6,17.9z M39.2,14c-0.1,0-0.1-0.1,0-0.2l0.3-0.5c0-0.1,0.1-0.1,0.2,0        c0.1,0,0.1,0.1,0,0.2L39.4,14C39.4,14,39.3,14.1,39.2,14C39.3,14.1,39.2,14,39.2,14z"></path></g></g><g><g><path d="M19.7,43.2c-0.1,0-0.1-0.1,0-0.2l0.3-0.5c0-0.1,0.1-0.1,0.2,0c0.1,0,0.1,0.1,0,0.2L20,43.1        C19.9,43.2,19.9,43.2,19.7,43.2C19.8,43.2,19.8,43.2,19.7,43.2z M21.7,40.2c-0.1,0-0.1-0.1,0-0.2l0.7-1.1c0-0.1,0.1-0.1,0.2,0        c0.1,0,0.1,0.1,0,0.2l-0.7,1.1C21.9,40.2,21.8,40.3,21.7,40.2C21.8,40.3,21.7,40.3,21.7,40.2z"></path></g></g><g><g><path d="M46.6,39.4l-0.5-0.3c-0.1,0-0.1-0.1,0-0.2c0-0.1,0.1-0.1,0.2,0l0.5,0.3c0.1,0,0.1,0.1,0,0.2        C46.7,39.4,46.7,39.5,46.6,39.4C46.6,39.5,46.6,39.4,46.6,39.4z M43.6,37.5L42,36.4c-0.1,0-0.1-0.1,0-0.2c0-0.1,0.1-0.1,0.2,0        l1.7,1.1c0.1,0,0.1,0.1,0,0.2C43.8,37.5,43.8,37.5,43.6,37.5C43.7,37.5,43.7,37.5,43.6,37.5z"></path></g></g><g><g><path d="M18.6,20.7l-0.8-0.5c-0.1,0-0.1-0.1,0-0.2c0-0.1,0.2-0.1,0.2,0l0.8,0.5c0.1,0,0.1,0.1,0,0.2        C18.8,20.7,18.7,20.8,18.6,20.7C18.6,20.8,18.6,20.8,18.6,20.7z M15.3,18.6l-0.5-0.3c-0.1,0-0.1-0.1,0-0.2        C14.9,18,15,18,15,18l0.5,0.3c0.1,0,0.1,0.1,0,0.2C15.5,18.6,15.5,18.6,15.3,18.6C15.4,18.6,15.4,18.6,15.3,18.6z"></path></g></g><g><g><path d="M27.1,15.3l-0.2-1.1c0-0.1,0-0.2,0.1-0.2c0.1,0,0.2,0,0.2,0.1l0.2,1.1c0,0.1,0,0.2-0.1,0.2c0,0,0,0,0,0        C27.2,15.4,27.2,15.3,27.1,15.3z M26.3,11.3l-0.1-0.6c0-0.1,0-0.2,0.1-0.2c0.1,0,0.2,0,0.2,0.1l0.1,0.6c0,0.1,0,0.2-0.1,0.2        c0,0,0,0,0,0C26.4,11.4,26.4,11.4,26.3,11.3z"></path></g></g><g><g><path d="M32.9,44.1l-0.3-1.3c0-0.1,0-0.2,0.1-0.2c0.1,0,0.2,0,0.2,0.1l0.3,1.3c0,0.1,0,0.2-0.1,0.2c0,0,0,0,0,0        C32.9,44.2,32.9,44.1,32.9,44.1z M32,39.9l-0.1-0.6c0-0.1,0-0.2,0.1-0.2c0.1,0,0.2,0,0.2,0.1l0.1,0.6c0,0.1,0,0.2-0.1,0.2        c0,0,0,0,0,0C32.1,40,32,40,32,39.9z"></path></g></g><g><g><path d="M44,25.3c0-0.1,0-0.2,0.1-0.2l0.6-0.1c0.1,0,0.2,0,0.2,0.1c0,0.1,0,0.2-0.1,0.2l-0.6,0.1c0,0,0,0,0,0        C44.1,25.4,44,25.3,44,25.3z M47.4,24.6c0-0.1,0-0.2,0.1-0.2l2.6-0.5c0.1,0,0.2,0,0.2,0.1c0,0.1,0,0.2-0.1,0.2l-2.6,0.5        c0,0,0,0,0,0C47.5,24.7,47.5,24.6,47.4,24.6z"></path></g></g><g><g><path d="M11.7,31.7c0-0.1,0-0.2,0.1-0.2l0.6-0.1c0.1,0,0.2,0,0.2,0.1c0,0.1,0,0.2-0.1,0.2l-0.6,0.1c0,0,0,0,0,0        C11.8,31.8,11.7,31.8,11.7,31.7z M15.2,31c0-0.1,0-0.2,0.1-0.2l0.9-0.2c0.1,0,0.2,0,0.2,0.1c0,0.1,0,0.2-0.1,0.2l-0.9,0.2        c0,0,0,0,0,0C15.2,31.1,15.2,31.1,15.2,31z"></path></g></g><g><g><path d="M31.1,15.1C31,15.1,31,15,31,14.9l0.2-1.7c0-0.1,0.1-0.1,0.1-0.1c0,0,0,0,0,0c0.1,0,0.1,0.1,0.1,0.2l-0.2,1.7        C31.3,15,31.2,15.1,31.1,15.1C31.1,15.1,31.1,15.1,31.1,15.1z M31.6,10.4c-0.1,0-0.1-0.1-0.1-0.2l0.1-0.6        c0-0.1,0.1-0.1,0.2-0.1c0.1,0,0.1,0.1,0.1,0.2l-0.1,0.6C31.7,10.4,31.7,10.4,31.6,10.4C31.6,10.4,31.6,10.4,31.6,10.4z"></path></g></g><g><g><path d="M27.6,50.9c-0.1,0-0.1-0.1-0.1-0.2l0.1-0.6c0-0.1,0.1-0.1,0.1-0.1c0,0,0,0,0,0c0.1,0,0.1,0.1,0.1,0.2l-0.1,0.6        C27.7,50.8,27.7,50.9,27.6,50.9C27.6,50.9,27.6,50.9,27.6,50.9z M27.9,47.4c-0.1,0-0.1-0.1-0.1-0.2l0.2-2        c0-0.1,0.1-0.1,0.1-0.1c0,0,0,0,0,0c0.1,0,0.1,0.1,0.1,0.2l-0.2,2C28.1,47.3,28,47.4,27.9,47.4C27.9,47.4,27.9,47.4,27.9,47.4        z"></path></g></g><g><g><path d="M51.2,30.3l-0.6-0.1c-0.1,0-0.1-0.1-0.1-0.2c0-0.1,0.1-0.1,0.1-0.1c0,0,0,0,0,0l0.6,0.1c0.1,0,0.1,0.1,0.1,0.2        C51.3,30.3,51.2,30.3,51.2,30.3C51.2,30.3,51.2,30.3,51.2,30.3z M47.7,30l-2.5-0.2c-0.1,0-0.1-0.1-0.1-0.2        c0-0.1,0.1-0.1,0.1-0.1c0,0,0,0,0,0l2.5,0.2c0.1,0,0.1,0.1,0.1,0.2C47.8,29.9,47.7,30,47.7,30C47.7,30,47.7,30,47.7,30z"></path></g></g><g><g><path d="M7.8,26.1l-3.6-0.4c-0.1,0-0.1-0.1-0.1-0.2c0-0.1,0.1-0.1,0.1-0.1c0,0,0,0,0,0l3.6,0.4c0.1,0,0.1,0.1,0.1,0.2        C7.9,26,7.9,26.1,7.8,26.1C7.8,26.1,7.8,26.1,7.8,26.1z M1.3,25.4l-0.6-0.1c-0.1,0-0.1-0.1-0.1-0.2c0-0.1,0.1-0.1,0.1-0.1        c0,0,0,0,0,0l0.6,0.1c0.1,0,0.1,0.1,0.1,0.2C1.4,25.4,1.3,25.4,1.3,25.4C1.3,25.4,1.3,25.4,1.3,25.4z"></path></g></g><g><g><path d="M45.8,47.8l-2.7-3.3c-0.1-0.1,0-0.2,0-0.2c0.1,0,0.2,0,0.2,0l2.7,3.3c0.1,0.1,0,0.2,0,0.2c0,0-0.1,0-0.1,0        C45.9,47.9,45.9,47.9,45.8,47.8z M41.2,42.2l-0.4-0.5c-0.1-0.1,0-0.2,0-0.2c0.1,0,0.2,0,0.2,0l0.4,0.5c0.1,0.1,0,0.2,0,0.2        c0,0-0.1,0-0.1,0C41.3,42.3,41.3,42.3,41.2,42.2z"></path></g></g><g><g><path d="M16.1,11.6l-2.3-2.8c-0.1-0.1,0-0.2,0-0.2c0.1,0,0.2,0,0.2,0l2.3,2.8c0.1,0.1,0,0.2,0,0.2c0,0-0.1,0-0.1,0        C16.2,11.6,16.1,11.6,16.1,11.6z M11.9,6.5l-0.4-0.5c-0.1-0.1,0-0.2,0-0.2c0.1,0,0.2,0,0.2,0l0.4,0.5c0.1,0.1,0,0.2,0,0.2        c0,0-0.1,0-0.1,0C12,6.6,12,6.5,11.9,6.5z"></path></g></g><g><g><path d="M43.2,17.1c-0.1-0.1,0-0.2,0-0.2l2.5-2.1c0.1,0,0.1,0,0.2,0c0.1,0.1,0,0.2,0,0.2l-2.5,2.1c0,0-0.1,0-0.1,0        C43.3,17.2,43.2,17.2,43.2,17.1z M47.9,13.2c0-0.1,0-0.2,0-0.2l0.5-0.4c0.1,0,0.2,0,0.2,0c0.1,0.1,0,0.2,0,0.2l-0.5,0.4        c0,0-0.1,0-0.1,0C48,13.3,48,13.3,47.9,13.2z"></path></g></g><g><g><path d="M13.3,41.7c-0.1-0.1,0-0.2,0-0.2l0.5-0.4c0.1,0,0.2,0,0.2,0c0.1,0.1,0,0.2,0,0.2l-0.5,0.4c0,0-0.1,0-0.1,0        C13.3,41.7,13.3,41.7,13.3,41.7z M16,39.4c-0.1-0.1,0-0.2,0-0.2l1.5-1.2c0.1,0,0.2,0,0.2,0c0.1,0.1,0,0.2,0,0.2l-1.5,1.2        c0,0-0.1,0-0.1,0C16.1,39.5,16,39.5,16,39.4z"></path></g></g><g><g><path d="M34.9,18.6c-0.1,0-0.1-0.1-0.1-0.2l0.3-0.5c0-0.1,0.1-0.1,0.2-0.1c0.1,0,0.1,0.1,0.1,0.2l-0.3,0.5        C35.1,18.6,35,18.7,34.9,18.6C34.9,18.7,34.9,18.7,34.9,18.6z M36.5,15.5c-0.1,0-0.1-0.1-0.1-0.2l0.5-1c0-0.1,0.1-0.1,0.2-0.1        c0.1,0,0.1,0.1,0.1,0.2l-0.5,1C36.7,15.5,36.7,15.6,36.5,15.5C36.6,15.6,36.6,15.5,36.5,15.5z"></path></g></g><g><g><path d="M22.2,42.3c-0.1,0-0.1-0.1-0.1-0.2l0.4-0.7c0-0.1,0.1-0.1,0.2-0.1c0.1,0,0.1,0.1,0.1,0.2l-0.4,0.7        C22.4,42.3,22.3,42.3,22.2,42.3C22.3,42.3,22.2,42.3,22.2,42.3z M24,39c-0.1,0-0.1-0.1-0.1-0.2l0.3-0.5c0-0.1,0.1-0.1,0.2-0.1        c0.1,0,0.1,0.1,0.1,0.2L24.2,39C24.2,39,24.1,39,24,39C24,39,24,39,24,39z"></path></g></g><g><g><path d="M19.1,22.5l-0.5-0.3c-0.1,0-0.1-0.1-0.1-0.2c0-0.1,0.1-0.1,0.2-0.1l0.5,0.3c0.1,0,0.1,0.1,0.1,0.2        C19.2,22.5,19.2,22.5,19.1,22.5C19.1,22.5,19.1,22.5,19.1,22.5z M16,20.8l-0.5-0.2c-0.1,0-0.1-0.1-0.1-0.2        c0-0.1,0.1-0.1,0.2-0.1l0.5,0.2c0.1,0,0.1,0.1,0.1,0.2C16.1,20.8,16.1,20.8,16,20.8C16,20.8,16,20.8,16,20.8z"></path></g></g><g><g><path d="M45.2,36.5l-1.1-0.6c-0.1,0-0.1-0.1-0.1-0.2c0-0.1,0.1-0.1,0.2-0.1l1.1,0.6c0.1,0,0.1,0.1,0.1,0.2        C45.4,36.5,45.3,36.5,45.2,36.5C45.3,36.5,45.2,36.5,45.2,36.5z M41.5,34.5L41,34.2c-0.1,0-0.1-0.1-0.1-0.2        c0-0.1,0.1-0.1,0.2-0.1l0.5,0.3c0.1,0,0.1,0.1,0.1,0.2C41.7,34.5,41.6,34.5,41.5,34.5C41.6,34.5,41.5,34.5,41.5,34.5z"></path></g></g><g><g><path d="M26.3,16.9l-0.2-0.6c0-0.1,0-0.2,0.1-0.2c0.1,0,0.2,0,0.2,0.1l0.2,0.6c0,0.1,0,0.2-0.1,0.2c0,0,0,0,0,0        C26.4,17,26.3,16.9,26.3,16.9z M25.2,13.5l-0.2-0.6c0-0.1,0-0.2,0.1-0.2c0.1,0,0.2,0,0.2,0.1l0.2,0.6c0,0.1,0,0.2-0.1,0.2        c0,0,0,0,0,0C25.3,13.6,25.3,13.5,25.2,13.5z"></path></g></g><g><g><path d="M33.9,41.9l-0.2-0.7c0-0.1,0-0.2,0.1-0.2c0.1,0,0.2,0,0.2,0.1l0.2,0.7c0,0.1,0,0.2-0.1,0.2c0,0,0,0,0,0        C34,42.1,33.9,42,33.9,41.9z M32.8,38.4l-0.2-0.6c0-0.1,0-0.2,0.1-0.2c0.1,0,0.2,0,0.2,0.1l0.2,0.6c0,0.1,0,0.2-0.1,0.2        c0,0,0,0,0,0C32.9,38.5,32.8,38.5,32.8,38.4z"></path></g></g><g><g><path d="M41.5,24.5c0-0.1,0-0.2,0.1-0.2l1.7-0.5c0.1,0,0.2,0,0.2,0.1c0,0.1,0,0.2-0.1,0.2l-1.7,0.5c0,0,0,0,0,0        C41.6,24.6,41.6,24.6,41.5,24.5z M46,23.2c0-0.1,0-0.2,0.1-0.2l0.6-0.2c0.1,0,0.2,0,0.2,0.1c0,0.1,0,0.2-0.1,0.2l-0.6,0.2        c0,0,0,0,0,0C46.1,23.3,46,23.2,46,23.2z"></path></g></g><g><g><path d="M13.8,32.9c0-0.1,0-0.2,0.1-0.2l0.6-0.2c0.1,0,0.2,0,0.2,0.1c0,0.1,0,0.2-0.1,0.2L14,33c0,0,0,0,0,0        C13.9,33,13.9,33,13.8,32.9z M17.2,31.9c0-0.1,0-0.2,0.1-0.2l0.5-0.1c0.1,0,0.2,0,0.2,0.1c0,0.1,0,0.2-0.1,0.2L17.4,32        c0,0,0,0,0,0C17.3,32,17.2,32,17.2,31.9z"></path></g></g><g><g><path d="M32.8,18.3c-0.1,0-0.1-0.1-0.1-0.2l0.2-0.6c0-0.1,0.1-0.1,0.2-0.1c0.1,0,0.1,0.1,0.1,0.2L33,18.2        C33,18.3,32.9,18.3,32.8,18.3C32.8,18.3,32.8,18.3,32.8,18.3z M33.8,14.9c-0.1,0-0.1-0.1-0.1-0.2l0.2-0.6        c0-0.1,0.1-0.1,0.2-0.1c0.1,0,0.1,0.1,0.1,0.2L34,14.8C34,14.9,33.9,14.9,33.8,14.9C33.9,14.9,33.8,14.9,33.8,14.9z"></path></g></g><g><g><path d="M24.7,45.2c-0.1,0-0.1-0.1-0.1-0.2l0.2-0.7c0-0.1,0.1-0.1,0.2-0.1c0.1,0,0.1,0.1,0.1,0.2l-0.2,0.7        C24.8,45.1,24.8,45.2,24.7,45.2C24.7,45.2,24.7,45.2,24.7,45.2z M25.7,41.6c-0.1,0-0.1-0.1-0.1-0.2l0.2-0.6        c0-0.1,0.1-0.1,0.2-0.1c0.1,0,0.1,0.1,0.1,0.2l-0.2,0.6C25.9,41.6,25.8,41.6,25.7,41.6C25.7,41.6,25.7,41.6,25.7,41.6z"></path></g></g><g><g><path d="M45.2,32.9l-0.6-0.2c-0.1,0-0.1-0.1-0.1-0.2c0-0.1,0.1-0.1,0.2-0.1l0.6,0.2c0.1,0,0.1,0.1,0.1,0.2        C45.4,32.9,45.3,32.9,45.2,32.9C45.2,32.9,45.2,32.9,45.2,32.9z M41.8,31.9l-1-0.3c-0.1,0-0.1-0.1-0.1-0.2        c0-0.1,0.1-0.1,0.2-0.1l1,0.3c0.1,0,0.1,0.1,0.1,0.2C42,31.8,41.9,31.9,41.8,31.9C41.9,31.9,41.9,31.9,41.8,31.9z"></path></g></g><g><g><path d="M16.3,24.1l-2.6-0.8c-0.1,0-0.1-0.1-0.1-0.2c0-0.1,0.1-0.1,0.2-0.1l2.6,0.8c0.1,0,0.1,0.1,0.1,0.2        C16.4,24.1,16.4,24.1,16.3,24.1C16.3,24.1,16.3,24.1,16.3,24.1z M10.8,22.5l-0.6-0.2c-0.1,0-0.1-0.1-0.1-0.2s0.1-0.1,0.2-0.1        l0.6,0.2c0.1,0,0.1,0.1,0.1,0.2C11,22.4,10.9,22.5,10.8,22.5C10.8,22.5,10.8,22.5,10.8,22.5z"></path></g></g><g><g><path d="M37.9,43.5L37,41.9c0-0.1,0-0.2,0.1-0.2c0.1,0,0.2,0,0.2,0.1l0.9,1.6c0,0.1,0,0.2-0.1,0.2c0,0,0,0-0.1,0        C38,43.6,37.9,43.5,37.9,43.5z M35.7,39.3l-0.3-0.5c0-0.1,0-0.2,0.1-0.2c0.1,0,0.2,0,0.2,0.1l0.3,0.5c0,0.1,0,0.2-0.1,0.2        c0,0,0,0-0.1,0C35.7,39.4,35.7,39.3,35.7,39.3z"></path></g></g><g><g><path d="M23.5,16.5l-1.3-2.4c0-0.1,0-0.2,0.1-0.2c0.1,0,0.2,0,0.2,0.1l1.3,2.4c0,0.1,0,0.2-0.1,0.2c0,0,0,0-0.1,0        C23.6,16.6,23.5,16.6,23.5,16.5z M20.8,11.5L20.6,11c0-0.1,0-0.2,0.1-0.2c0.1,0,0.2,0,0.2,0.1l0.3,0.5c0,0.1,0,0.2-0.1,0.2        c0,0,0,0-0.1,0C20.9,11.6,20.9,11.6,20.8,11.5z"></path></g></g><g><g><path d="M40.8,22.2c0-0.1,0-0.2,0.1-0.2l0.5-0.3c0.1,0,0.2,0,0.2,0.1c0,0.1,0,0.2-0.1,0.2l-0.5,0.3c0,0,0,0-0.1,0        C40.8,22.3,40.8,22.3,40.8,22.2z M43.9,20.6c0-0.1,0-0.2,0.1-0.2l1.2-0.6c0.1,0,0.2,0,0.2,0.1c0,0.1,0,0.2-0.1,0.2l-1.2,0.6        c0,0,0,0-0.1,0C43.9,20.7,43.9,20.6,43.9,20.6z"></path></g></g><g><g><path d="M15.1,36c0-0.1,0-0.2,0.1-0.2l0.7-0.4c0.1,0,0.2,0,0.2,0.1c0,0.1,0,0.2-0.1,0.2L15.3,36c0,0,0,0-0.1,0        C15.2,36,15.1,36,15.1,36z M18.3,34.2c0-0.1,0-0.2,0.1-0.2l0.5-0.3c0.1,0,0.2,0,0.2,0.1c0,0.1,0,0.2-0.1,0.2l-0.5,0.3        c0,0,0,0-0.1,0C18.4,34.3,18.4,34.3,18.3,34.2z"></path></g></g><g><g><path d="M39,16.9c-0.1-0.1-0.1-0.1,0-0.2l0.4-0.5c0.1-0.1,0.1-0.1,0.2,0c0.1,0.1,0.1,0.1,0,0.2l-0.4,0.5        C39.2,17,39.1,17,39,16.9C39,17,39,17,39,16.9z M41.2,14.2c-0.1-0.1-0.1-0.1,0-0.2l1.7-2.1c0.1-0.1,0.1-0.1,0.2,0        c0.1,0.1,0.1,0.1,0,0.2l-1.7,2.1C41.4,14.2,41.3,14.3,41.2,14.2C41.3,14.3,41.2,14.2,41.2,14.2z"></path></g></g><g><g><path d="M16.5,44.3c-0.1-0.1-0.1-0.1,0-0.2l1.3-1.6c0.1-0.1,0.1-0.1,0.2,0c0.1,0.1,0.1,0.1,0,0.2l-1.3,1.6        C16.7,44.3,16.7,44.3,16.5,44.3C16.6,44.3,16.6,44.3,16.5,44.3z M19.7,40.4c-0.1-0.1-0.1-0.1,0-0.2l0.4-0.5        c0.1-0.1,0.1-0.1,0.2,0c0.1,0.1,0.1,0.1,0,0.2l-0.4,0.5C19.9,40.4,19.9,40.4,19.7,40.4C19.8,40.4,19.8,40.4,19.7,40.4z"></path></g></g><g><g><path d="M18,18.5l-0.5-0.4c-0.1-0.1-0.1-0.1,0-0.2c0.1-0.1,0.1-0.1,0.2,0l0.5,0.4c0.1,0.1,0.1,0.1,0,0.2        C18.2,18.6,18.1,18.6,18,18.5C18,18.6,18,18.6,18,18.5z M15.3,16.3l-1.2-1c-0.1-0.1-0.1-0.1,0-0.2c0.1-0.1,0.1-0.1,0.2,0        l1.2,1c0.1,0.1,0.1,0.1,0,0.2C15.4,16.3,15.4,16.3,15.3,16.3C15.3,16.3,15.3,16.3,15.3,16.3z"></path></g></g><g><g><path d="M48.4,43.5L48,43.2c-0.1-0.1-0.1-0.1,0-0.2c0.1-0.1,0.1-0.1,0.2,0l0.5,0.4c0.1,0.1,0.1,0.1,0,0.2        C48.6,43.5,48.6,43.6,48.4,43.5C48.5,43.6,48.4,43.5,48.4,43.5z M45.7,41.3l-2.4-2c-0.1-0.1-0.1-0.1,0-0.2        c0.1-0.1,0.1-0.1,0.2,0l2.4,2c0.1,0.1,0.1,0.1,0,0.2C45.9,41.3,45.8,41.3,45.7,41.3C45.8,41.3,45.7,41.3,45.7,41.3z"></path></g></g><g><g><path d="M28.2,13.2l-0.2-1.7c0-0.1,0.1-0.2,0.1-0.2c0,0,0,0,0,0c0.1,0,0.1,0.1,0.1,0.1l0.2,1.7c0,0.1-0.1,0.2-0.1,0.2        c0,0,0,0,0,0C28.3,13.4,28.2,13.3,28.2,13.2z M27.8,8.6L27.7,8c0-0.1,0.1-0.2,0.1-0.2c0,0,0,0,0,0C27.9,7.8,28,7.9,28,8        l0.1,0.6c0,0.1-0.1,0.2-0.1,0.2c0,0,0,0,0,0C27.8,8.7,27.8,8.7,27.8,8.6z"></path></g></g><g><g><path d="M31.5,46.8l-0.1-0.6c0-0.1,0.1-0.2,0.1-0.2c0,0,0,0,0,0c0.1,0,0.1,0.1,0.1,0.1l0.1,0.6c0,0.1-0.1,0.2-0.1,0.2        c0,0,0,0,0,0C31.6,46.9,31.5,46.9,31.5,46.8z M31.2,43.3L31,41.2c0-0.1,0.1-0.2,0.1-0.2c0,0,0,0,0,0c0.1,0,0.1,0.1,0.1,0.1        l0.2,2.1c0,0.1-0.1,0.2-0.1,0.2c0,0,0,0,0,0C31.3,43.4,31.2,43.4,31.2,43.3z"></path></g></g><g><g><path d="M9,30.1C9,30.1,9.1,30,9.2,30l1.5-0.1c0,0,0,0,0,0c0.1,0,0.1,0.1,0.1,0.1c0,0.1-0.1,0.2-0.1,0.2l-1.5,0.1c0,0,0,0,0,0        C9.1,30.3,9,30.2,9,30.1z M13.5,29.7c0-0.1,0.1-0.2,0.1-0.2l0.6-0.1c0.1,0,0.2,0.1,0.2,0.1c0,0.1-0.1,0.2-0.1,0.2l-0.6,0.1        c0,0,0,0,0,0C13.5,29.8,13.5,29.8,13.5,29.7z"></path></g></g><g><g><path d="M47.5,26.3c0-0.1,0.1-0.2,0.1-0.2l4.1-0.4c0,0,0,0,0,0c0.1,0,0.1,0.1,0.1,0.1c0,0.1-0.1,0.2-0.1,0.2l-4.1,0.4        c0,0,0,0,0,0C47.6,26.5,47.5,26.4,47.5,26.3z M54.5,25.6c0-0.1,0.1-0.2,0.1-0.2l0.6-0.1c0,0,0,0,0,0c0.1,0,0.1,0.1,0.1,0.1        c0,0.1-0.1,0.2-0.1,0.2l-0.6,0.1c0,0,0,0,0,0C54.6,25.8,54.5,25.7,54.5,25.6z"></path></g></g></g></g></g></g></svg>