<svg height='100px' width='100px'  fill="#000000" xmlns="http://www.w3.org/2000/svg" xmlns:xlink="http://www.w3.org/1999/xlink" version="1.1" x="0px" y="0px" viewBox="0 0 100 100" style="enable-background:new 0 0 100 100;" xml:space="preserve"><g><path d="M82.8,47c0-3.1-11.4-5-30.4-5c-8.6,0-17.4,0.3-24.1,0.8c-11.2,0.9-11.2,1.9-11.2,2.7c0,1.5,4.4,3.1,10.8,4.3   c-0.3,0.3-0.6,0.6-0.8,1c-1.2,1.1-1.4,3-0.6,4.4c0.5,0.8,1.2,1.3,2,1.4c0.2,0,0.3,0,0.5,0c0.6,0,1.3-0.2,1.8-0.7   c0.2-0.1,0.3-0.3,0.5-0.5c0.8-0.8,1.4-2.2,1.4-3.5l1.2-1.3c5.7,0.8,12.2,1.3,18.4,1.3c5.3,0,10-0.1,14-0.4   c-0.1,0.2-0.2,0.3-0.3,0.5c-1.2,1.1-1.4,3-0.6,4.4c0.5,0.8,1.2,1.3,2,1.4c0.2,0,0.3,0,0.5,0c0.6,0,1.3-0.2,1.8-0.7   c0.2-0.2,0.4-0.4,0.6-0.6c1.1-0.9,1.5-2.7,1.2-4c0.1,0,0.2-0.1,0.2-0.2l1.4-1.5C79.4,50.1,82.8,48.8,82.8,47z M30,54.8   c-0.3,0.3-0.7,0.4-1.1,0.3c-0.4-0.1-0.7-0.3-1-0.7c-0.5-0.8-0.3-2.1,0.4-2.7c0.3-0.2,0.6-0.3,0.9-0.3c0.1,0,0.1,0,0.2,0   c0.4,0.1,0.7,0.3,1,0.7c0,0,0,0,0,0C31,53,30.8,54.2,30,54.8z M44.4,50.3l2.6-2.9c0,0,0,0,0.1-0.1l3.3-3.6c0.1-0.1,0.1-0.1,0.1-0.2   c0.4,0,0.9,0,1.3,0l-6.2,6.9C45.2,50.4,44.8,50.3,44.4,50.3z M19.7,46l25.9,1.4l-2.5,2.8C31.9,49.4,22.8,47.4,19.7,46z M53.1,43.5   c18.6,0,25.7,1.9,27.7,3H50.4L53.1,43.5C53.1,43.5,53.1,43.5,53.1,43.5z M49.2,43.5l-2.7,3l-25.1-1.4C26,44.4,36,43.6,49.2,43.5z    M46.9,50.4l2.6-2.9h31.3c-2,1.1-9.2,3-28.3,3C50.5,50.6,48.7,50.5,46.9,50.4z M68.9,56.2c-0.3,0.3-0.7,0.4-1.1,0.3   c-0.4-0.1-0.7-0.3-1-0.7c-0.5-0.8-0.3-2.1,0.4-2.7c0.3-0.2,0.6-0.3,0.9-0.3c0.1,0,0.1,0,0.2,0c0.4,0.1,0.7,0.3,1,0.7   C69.8,54.3,69.6,55.6,68.9,56.2z M70.9,51.3C70.9,51.3,70.8,51.3,70.9,51.3C70.9,51.2,70.9,51.2,70.9,51.3L70.9,51.3z"></path><path d="M72.1,45.9c0.2,0,0.4-0.1,0.4-0.3c0-0.1-0.1-0.3-0.3-0.3c-0.2,0-0.4,0.1-0.4,0.3C71.8,45.8,71.9,45.9,72.1,45.9z"></path><path d="M71.4,48.1c-0.2,0-0.4,0.1-0.4,0.3c0,0.1,0.1,0.3,0.3,0.3s0.4-0.1,0.4-0.3C71.8,48.3,71.6,48.1,71.4,48.1z"></path><path d="M69.4,45.9c0.2,0,0.4-0.1,0.4-0.3c0-0.1-0.1-0.3-0.3-0.3s-0.4,0.1-0.4,0.3C69.1,45.8,69.3,45.9,69.4,45.9z"></path><path d="M68.8,48.1c-0.2,0-0.4,0.1-0.4,0.3c0,0.1,0.1,0.3,0.3,0.3s0.4-0.1,0.4-0.3C69.1,48.3,69,48.1,68.8,48.1z"></path><path d="M32.9,45.2c0.2,0,0.4-0.1,0.4-0.3c0-0.1-0.1-0.3-0.3-0.3s-0.4,0.1-0.4,0.3C32.6,45.1,32.7,45.2,32.9,45.2z"></path><path d="M32.2,47.4c-0.2,0-0.4,0.1-0.4,0.3c0,0.1,0.1,0.3,0.3,0.3s0.4-0.1,0.4-0.3C32.6,47.5,32.4,47.4,32.2,47.4z"></path><path d="M30.2,45.2c0.2,0,0.4-0.1,0.4-0.3c0-0.1-0.1-0.3-0.3-0.3c-0.2,0-0.4,0.1-0.4,0.3C29.9,45.1,30,45.2,30.2,45.2z"></path><path d="M29.6,47.4c-0.2,0-0.4,0.1-0.4,0.3c0,0.1,0.1,0.3,0.3,0.3c0.2,0,0.4-0.1,0.4-0.3C29.9,47.5,29.8,47.4,29.6,47.4z"></path></g></svg>