<svg height="100px" width="100px" fill="#000000" xmlns:x="http://ns.adobe.com/Extensibility/1.0/" xmlns:i="http://ns.adobe.com/AdobeIllustrator/10.0/" xmlns:graph="http://ns.adobe.com/Graphs/1.0/" xmlns="http://www.w3.org/2000/svg" xmlns:xlink="http://www.w3.org/1999/xlink" version="1.1" x="0px" y="0px" viewBox="0 0 100 100" style="enable-background:new 0 0 100 100;" xml:space="preserve">
	<g>
		
			<g>
				<path d="M94.8,25.8h-4.2v-4.7c0-0.8-0.4-1.6-1-2.1c-0.6-0.5-1.4-0.7-2.2-0.6L50,25.8l-37.4-7.3c-0.8-0.2-1.6,0.1-2.2,0.6     c-0.6,0.5-1,1.3-1,2.1v4.7H5.2c-1.5,0-2.7,1.2-2.7,2.7v50.3c0,1.5,1.2,2.7,2.7,2.7h89.6c1.5,0,2.7-1.2,2.7-2.7V28.5     C97.5,27,96.3,25.8,94.8,25.8z M85.2,69.3l-32.5,6.3V30.8l32.5-6.3V69.3z M14.8,24.4l32.5,6.3v44.9l-32.5-6.3V24.4z">
				</path>
				<path d="M22.3,38.5l16.4,3.2c0.2,0,0.3,0.1,0.5,0.1c1.3,0,2.4-0.9,2.6-2.2c0.3-1.5-0.7-2.9-2.1-3.1l-16.4-3.2     c-1.5-0.3-2.9,0.7-3.1,2.1C19.9,36.8,20.9,38.2,22.3,38.5z">
				</path>
				<path d="M39.8,49l-16.4-3.2c-1.5-0.3-2.9,0.7-3.1,2.1c-0.3,1.5,0.7,2.9,2.1,3.1l16.4,3.2c0.2,0,0.3,0.1,0.5,0.1     c1.3,0,2.4-0.9,2.6-2.2C42.2,50.7,41.2,49.3,39.8,49z">
				</path>
				<path d="M39.8,61.6l-16.4-3.2c-1.5-0.3-2.9,0.7-3.1,2.1c-0.3,1.5,0.7,2.9,2.1,3.1l16.4,3.2c0.2,0,0.3,0.1,0.5,0.1     c1.3,0,2.4-0.9,2.6-2.2C42.2,63.3,41.2,61.9,39.8,61.6z">
				</path>
				<path d="M66.9,63.7c0.9,1.6,3.2,1.6,4.1,0c3-5.1,8.1-14.6,8.1-18.5c0-5.6-4.5-10.1-10.1-10.1c-5.6,0-10.1,4.5-10.1,10.1     C58.8,49.2,63.9,58.6,66.9,63.7z M68.9,40.5c2.6,0,4.7,2.1,4.7,4.7c0,2.6-2.1,4.7-4.7,4.7c-2.6,0-4.7-2.1-4.7-4.7     C64.2,42.6,66.3,40.5,68.9,40.5z">
				</path>
			</g>
		
	</g>
</svg>
