<?xml version="1.0" encoding="utf-8"?>
<!-- Generator: Adobe Illustrator 24.2.1, SVG Export Plug-In . SVG Version: 6.00 Build 0)  -->
<svg version="1.1" id="Layer_1" xmlns="http://www.w3.org/2000/svg" xmlns:xlink="http://www.w3.org/1999/xlink" x="0px" y="0px"
	 viewBox="0 0 100 100" enable-background="new 0 0 100 100" xml:space="preserve">
<g>
	<path fill-rule="evenodd" clip-rule="evenodd" d="M76.408,6.877c-3.136,2.204-3.054,5.419-0.903,7.46
		c1.652-2.701-0.504-3.378,0.458-5.893c-0.674,2.623,1.295,3.192,0,5.893c3.421-1.508,0.53-5.628,0.448-7.46H76.408z"/>
	<path fill-rule="evenodd" clip-rule="evenodd" d="M84.015,14.066c-3.094-2.263-6.112-1.158-7.358,1.534
		c3.087,0.7,3.038-1.557,5.73-1.452c-2.698,0.203-2.61,2.25-5.582,1.887c2.525,2.76,5.501-1.302,7.211-1.965V14.066z"/>
	<path fill-rule="evenodd" clip-rule="evenodd" d="M82.684,19.785c-2.086-3.215-5.304-3.251-7.424-1.181
		c2.636,1.75,3.395-0.376,5.87,0.674c-2.593-0.769-3.238,1.177-5.89-0.219c1.38,3.476,5.605,0.736,7.44,0.723L82.684,19.785z"/>
	<path fill-rule="evenodd" clip-rule="evenodd" d="M70.181,8.088c-1.851,3.355-0.366,6.21,2.459,7.103
		c0.301-3.153-1.933-2.816-2.175-5.497c0.546,2.652,2.567,2.302,2.587,5.298C75.469,12.136,71.061,9.7,70.181,8.088z"/>
	<path fill-rule="evenodd" clip-rule="evenodd" d="M64.595,10.458c-1.007,3.699,1.109,6.122,4.065,6.318
		c-0.451-3.133-2.544-2.276-3.408-4.827c1.154,2.446,3.035,1.629,3.761,4.536C70.688,13.143,65.828,11.816,64.595,10.458z"/>
	<path fill-rule="evenodd" clip-rule="evenodd" d="M87.913,25.649c-3.094-2.263-6.112-1.158-7.358,1.534
		c3.087,0.7,3.038-1.557,5.73-1.452c-2.698,0.203-2.61,2.25-5.582,1.887c2.525,2.76,5.501-1.302,7.211-1.965V25.649z"/>
	<path fill-rule="evenodd" clip-rule="evenodd" d="M84.953,32.631c-3.447,1.678-6.22,0.049-6.966-2.822
		c3.162-0.137,2.711,2.077,5.376,2.453c-2.62-0.68-2.165-2.678-5.157-2.852C81.183,27.144,83.387,31.67,84.953,32.631z"/>
	<path fill-rule="evenodd" clip-rule="evenodd" d="M78.354,36.736c-3.702-0.994-4.729-4.042-3.411-6.698
		c2.479,1.969,0.687,3.346,2.453,5.376c-1.531-2.23,0.121-3.444-2.024-5.537c3.731,0.242,2.43,5.105,2.983,6.855L78.354,36.736z"/>
	<path fill-rule="evenodd" clip-rule="evenodd" d="M80.218,20.943c-3.823,0.252-5.425,3.041-4.65,5.903
		c2.816-1.449,1.328-3.146,3.453-4.794c-1.936,1.89-0.553,3.401-3.064,5.033C79.662,27.579,79.335,22.552,80.218,20.943z"/>
	<path fill-rule="evenodd" clip-rule="evenodd" d="M65.011,25.495c0.396-3.813,3.244-5.308,6.073-4.425
		c-1.553,2.757-3.195,1.207-4.922,3.27c1.962-1.864,3.421-0.425,5.147-2.871C71.659,25.191,66.652,24.675,65.011,25.495z"/>
	<path fill-rule="evenodd" clip-rule="evenodd" d="M61.871,19.073c2.319-3.051,5.53-2.852,7.489-0.628
		c-2.76,1.55-3.355-0.628-5.906,0.239c2.646-0.576,3.143,1.413,5.89,0.219C67.712,22.268,63.699,19.223,61.871,19.073z"/>
	<path fill-rule="evenodd" clip-rule="evenodd" d="M24.622,3.993c-1.004,3.699,1.109,6.122,4.065,6.318
		c-0.451-3.133-2.544-2.276-3.411-4.827c1.158,2.446,3.035,1.629,3.761,4.536c1.671-3.346-3.185-4.67-4.418-6.03L24.622,3.993z"/>
	<path fill-rule="evenodd" clip-rule="evenodd" d="M35.064,4.67c-3.826,0.229-5.445,3.009-4.686,5.874
		c2.822-1.429,1.344-3.14,3.483-4.775c-1.949,1.877-0.572,3.398-3.094,5.017C34.472,11.299,34.172,6.272,35.064,4.67z"/>
	<path fill-rule="evenodd" clip-rule="evenodd" d="M37.69,9.922c-3.659-1.145-6.158,0.88-6.469,3.826
		c3.149-0.334,2.371-2.456,4.951-3.228c-2.489,1.063-1.74,2.973-4.673,3.591C34.78,15.907,36.284,11.103,37.69,9.922z"/>
	<path fill-rule="evenodd" clip-rule="evenodd" d="M20.6,8.895c0.716,3.764,3.679,5.013,6.426,3.898
		c-1.779-2.616-3.287-0.932-5.18-2.842c2.113,1.691,3.444,0.134,5.37,2.427c0.036-3.741-4.909-2.799-6.613-3.483L20.6,8.895z"/>
	<path fill-rule="evenodd" clip-rule="evenodd" d="M22.261,15.119c1.586,3.489,4.762,4.006,7.165,2.27
		c-2.348-2.122-3.411-0.131-5.703-1.54c2.449,1.145,3.378-0.683,5.788,1.092C28.664,13.297,24.079,15.377,22.261,15.119z"/>
	<path fill-rule="evenodd" clip-rule="evenodd" d="M25.473,24.429c-0.164-3.83,2.436-5.723,5.363-5.262
		c-1.135,2.956-2.986,1.658-4.392,3.954c1.668-2.129,3.319-0.916,4.673-3.591C32.007,23.164,26.977,23.38,25.473,24.429z"/>
	<path fill-rule="evenodd" clip-rule="evenodd" d="M42.56,7.967c-3.826,0.229-5.445,3.009-4.686,5.874
		c2.822-1.429,1.344-3.14,3.483-4.775c-1.949,1.877-0.572,3.398-3.094,5.017C41.968,14.595,41.667,9.569,42.56,7.967z"/>
	<path fill-rule="evenodd" clip-rule="evenodd" d="M45.18,17.002c-2.319-3.051-5.53-2.852-7.489-0.628
		c2.76,1.55,3.355-0.628,5.906,0.239c-2.646-0.576-3.143,1.413-5.89,0.219C39.339,20.198,43.351,17.153,45.18,17.002z"/>
	<path fill-rule="evenodd" clip-rule="evenodd" d="M63.66,5.383c-3.633,1.223-4.471,4.327-2.989,6.897
		c2.351-2.119,0.477-3.382,2.113-5.52c-1.39,2.322,0.337,3.431-1.674,5.651c3.712-0.471,2.106-5.246,2.551-7.025L63.66,5.383z"/>
	<path fill-rule="evenodd" clip-rule="evenodd" d="M56.122,7.152c-2.113,3.198-0.86,6.161,1.887,7.273
		c0.549-3.117-1.704-2.96-1.73-5.651c0.334,2.685,2.374,2.495,2.155,5.484c2.636-2.656-1.566-5.432-2.312-7.11V7.152z"/>
	<path fill-rule="evenodd" clip-rule="evenodd" d="M53.594,11.459c3.149,2.185,3.087,5.403,0.948,7.456
		c-1.668-2.691,0.484-3.382-0.491-5.89c0.687,2.616-1.279,3.198,0.036,5.893c-3.434-1.488-0.562-5.625-0.491-7.46H53.594z"/>
	<path fill-rule="evenodd" clip-rule="evenodd" d="M47.642,10.194c3.748,0.804,4.928,3.797,3.748,6.514
		c-2.574-1.841-0.857-3.306-2.721-5.246c1.642,2.149,0.052,3.447,2.302,5.425c-3.738-0.049-2.685-4.974-3.326-6.694H47.642z"/>
	<path fill-rule="evenodd" clip-rule="evenodd" d="M43.381,19.445c2.086-3.215,5.304-3.254,7.424-1.181
		c-2.636,1.75-3.395-0.376-5.87,0.674c2.593-0.769,3.238,1.177,5.89-0.219c-1.38,3.476-5.605,0.736-7.44,0.723L43.381,19.445z"/>
	<path fill-rule="evenodd" clip-rule="evenodd" d="M48.496,26.715c-0.926-3.718,1.239-6.096,4.202-6.23
		c-0.52,3.123-2.593,2.224-3.512,4.752c1.207-2.423,3.071-1.563,3.859-4.454C54.644,24.161,49.758,25.381,48.496,26.715z"/>
	<path fill-rule="evenodd" clip-rule="evenodd" d="M10.167,41.393c1.586,3.489,4.762,4.006,7.165,2.27
		c-2.348-2.122-3.411-0.131-5.703-1.54c2.449,1.145,3.378-0.683,5.788,1.092C16.571,39.571,11.986,41.651,10.167,41.393z"/>
	<path fill-rule="evenodd" clip-rule="evenodd" d="M18.641,35.251c-2.799,2.62-2.27,5.792,0.144,7.512
		c1.259-2.904-0.968-3.274-0.366-5.9c-0.301,2.688,1.727,2.979,0.818,5.838C22.415,40.732,18.978,37.053,18.641,35.251z"/>
	<path fill-rule="evenodd" clip-rule="evenodd" d="M25.286,35.418c-3.545,1.452-4.179,4.608-2.535,7.074
		c2.211-2.266,0.258-3.404,1.753-5.645c-1.236,2.407,0.556,3.401-1.308,5.746C26.869,41.883,24.959,37.223,25.286,35.418z"/>
	<path fill-rule="evenodd" clip-rule="evenodd" d="M13.186,49.984c3.797,0.517,5.926-1.894,5.739-4.853
		c-3.048,0.854-1.929,2.819-4.343,4.009c2.276-1.465,1.223-3.221,4.009-4.317c-3.532-1.226-4.215,3.764-5.403,5.164L13.186,49.984z"
		/>
	<path fill-rule="evenodd" clip-rule="evenodd" d="M18.935,51.367c3.738-0.857,4.876-3.862,3.656-6.567
		c-2.551,1.877-0.811,3.319-2.649,5.282c1.612-2.171,0.007-3.447,2.227-5.455C18.432,44.728,19.553,49.637,18.935,51.367z"/>
	<path fill-rule="evenodd" clip-rule="evenodd" d="M19.01,55.409c3.797,0.517,5.926-1.894,5.739-4.853
		c-3.048,0.854-1.929,2.819-4.343,4.009c2.276-1.465,1.223-3.221,4.009-4.317c-3.532-1.226-4.215,3.764-5.403,5.164L19.01,55.409z"
		/>
	<path fill-rule="evenodd" clip-rule="evenodd" d="M27.301,56.501c2.862-2.548,2.413-5.733,0.046-7.515
		c-1.331,2.871,0.886,3.296,0.219,5.906c0.366-2.682-1.655-3.022-0.674-5.854C23.664,50.926,27.01,54.69,27.301,56.501z"/>
	<path fill-rule="evenodd" clip-rule="evenodd" d="M21.326,31.003c1.586,3.489,4.762,4.006,7.165,2.27
		c-2.348-2.122-3.411-0.131-5.703-1.54c2.449,1.145,3.378-0.683,5.788,1.092C27.729,29.181,23.144,31.261,21.326,31.003z"/>
	<path fill-rule="evenodd" clip-rule="evenodd" d="M24.717,28.223c3.221,2.073,6.171,0.788,7.254-1.969
		c-3.123-0.513-2.94,1.737-5.632,1.792c2.682-0.363,2.469-2.404,5.458-2.217C29.112,23.226,26.385,27.458,24.717,28.223z"/>
	<path fill-rule="evenodd" clip-rule="evenodd" d="M32.69,32.321c-1.511-3.522,0.245-6.217,3.149-6.825
		c-0.013,3.166-2.201,2.61-2.705,5.255c0.804-2.584,2.78-2.034,3.094-5.017c2.122,3.081-2.505,5.069-3.535,6.586H32.69z"/>
	<path fill-rule="evenodd" clip-rule="evenodd" d="M27.415,36.31c3.748,0.805,4.928,3.797,3.748,6.514
		c-2.574-1.841-0.857-3.306-2.721-5.246c1.642,2.152,0.052,3.447,2.302,5.425c-3.738-0.049-2.685-4.974-3.326-6.694H27.415z"/>
	<path fill-rule="evenodd" clip-rule="evenodd" d="M38.027,36.173c3.123-2.224,3.022-5.439,0.86-7.466
		c-1.635,2.711,0.523,3.375-0.422,5.896c0.657-2.626-1.315-3.185-0.036-5.893C35.015,30.237,37.932,34.342,38.027,36.173z"/>
	<path fill-rule="evenodd" clip-rule="evenodd" d="M17.97,21.735c2.852,2.561,5.968,1.756,7.473-0.795
		c-3.002-1.004-3.179,1.249-5.844,0.88c2.705,0.065,2.819-1.982,5.743-1.324c-2.237-2.999-5.602,0.749-7.371,1.243L17.97,21.735z"/>
	<path fill-rule="evenodd" clip-rule="evenodd" d="M16.688,27.66c3.221,2.077,6.171,0.791,7.254-1.969
		c-3.123-0.513-2.94,1.737-5.631,1.795c2.682-0.363,2.469-2.404,5.458-2.217c-2.685-2.603-5.412,1.629-7.08,2.394L16.688,27.66z"/>
	<path fill-rule="evenodd" clip-rule="evenodd" d="M49.578,2.904c3.748,0.805,4.928,3.797,3.748,6.514
		c-2.574-1.841-0.857-3.306-2.721-5.246c1.642,2.149,0.052,3.447,2.302,5.425c-3.738-0.049-2.685-4.974-3.326-6.694L49.578,2.904z"
		/>
	<path fill-rule="evenodd" clip-rule="evenodd" d="M45.036,6.877c-2.803,2.613-2.283,5.785,0.124,7.515
		c1.266-2.901-0.961-3.277-0.353-5.9c-0.307,2.688,1.72,2.986,0.805,5.838C48.797,12.368,45.366,8.683,45.036,6.877z"/>
	<path fill-rule="evenodd" clip-rule="evenodd" d="M12.437,31.003c1.586,3.489,4.762,4.006,7.165,2.27
		c-2.348-2.122-3.411-0.131-5.703-1.54c2.449,1.145,3.378-0.683,5.788,1.092C18.84,29.181,14.255,31.261,12.437,31.003z"/>
	<path fill-rule="evenodd" clip-rule="evenodd" d="M69.164,3.169c-3.633,1.223-4.471,4.327-2.989,6.897
		c2.351-2.119,0.477-3.382,2.113-5.52c-1.39,2.322,0.337,3.431-1.674,5.651c3.712-0.471,2.106-5.246,2.551-7.025L69.164,3.169z"/>
	<path fill-rule="evenodd" clip-rule="evenodd" d="M90.039,20.682c-3.094-2.263-6.112-1.158-7.358,1.534
		c3.087,0.7,3.038-1.557,5.73-1.452c-2.698,0.203-2.61,2.25-5.582,1.887c2.525,2.76,5.501-1.302,7.211-1.965L90.039,20.682z"/>
	<path fill-rule="evenodd" clip-rule="evenodd" d="M73.71,40.51c-3.702-0.994-4.729-4.042-3.411-6.698
		c2.479,1.969,0.687,3.346,2.453,5.376c-1.531-2.23,0.121-3.444-2.024-5.537c3.731,0.242,2.43,5.105,2.983,6.855V40.51z"/>
	<path fill-rule="evenodd" clip-rule="evenodd" d="M81.287,42.354c-3.731,0.876-6.08-1.321-6.174-4.284
		c3.117,0.559,2.188,2.623,4.706,3.574c-2.404-1.243-1.521-3.09-4.402-3.918C78.818,36.17,79.973,41.072,81.287,42.354z"/>
	<path fill-rule="evenodd" clip-rule="evenodd" d="M85.771,39.169c-3.731,0.876-6.08-1.321-6.174-4.284
		c3.117,0.559,2.188,2.623,4.706,3.574c-2.404-1.243-1.521-3.09-4.402-3.918C83.302,32.984,84.456,37.887,85.771,39.169z"/>
	<path fill-rule="evenodd" clip-rule="evenodd" d="M92.311,31.098c-3.094,2.263-6.112,1.158-7.358-1.534
		c3.087-0.7,3.038,1.557,5.73,1.452c-2.698-0.203-2.61-2.25-5.582-1.887c2.525-2.76,5.501,1.302,7.211,1.965V31.098z"/>
	<path fill-rule="evenodd" clip-rule="evenodd" d="M63.66,25.734c-3.633,1.223-4.471,4.327-2.989,6.897
		c2.351-2.119,0.477-3.382,2.113-5.52c-1.39,2.322,0.337,3.431-1.674,5.651c3.712-0.471,2.106-5.246,2.551-7.025L63.66,25.734z"/>
	<path fill-rule="evenodd" clip-rule="evenodd" d="M64.34,22.578c-3.094-2.263-6.112-1.158-7.358,1.534
		c3.087,0.7,3.038-1.557,5.73-1.452c-2.698,0.203-2.61,2.25-5.582,1.887c2.525,2.76,5.501-1.302,7.211-1.965V22.578z"/>
	<path fill-rule="evenodd" clip-rule="evenodd" d="M37.776,0.916c-2.803,2.613-2.283,5.785,0.124,7.515
		c1.266-2.901-0.961-3.277-0.353-5.9c-0.307,2.688,1.72,2.986,0.805,5.838C41.536,6.407,38.106,2.721,37.776,0.916z"/>
	<path fill-rule="evenodd" clip-rule="evenodd" d="M45.817,0.53c-3.826,0.229-5.445,3.009-4.686,5.874
		c2.822-1.429,1.344-3.14,3.483-4.775c-1.949,1.877-0.572,3.398-3.094,5.017C45.225,7.159,44.924,2.132,45.817,0.53z"/>
	<path fill-rule="evenodd" clip-rule="evenodd" d="M56.367,0c3.633,1.223,4.471,4.327,2.989,6.897
		c-2.351-2.119-0.477-3.382-2.113-5.52c1.39,2.322-0.337,3.431,1.674,5.651c-3.712-0.471-2.106-5.246-2.551-7.025L56.367,0z"/>
	<path fill-rule="evenodd" clip-rule="evenodd" d="M43.855,71.777c-1.246,4.834-6.802,2.865-10.72,4.621
		c-6.783,3.041-16.783-2.358-24.42,5.03c-3.29,3.185,1.9-1.38,7.355-1.658c0.193-0.01,0.867-0.065,1.011-0.026
		c0.406,0.111-0.046,0.736-0.164,0.922c-0.314,0.5-0.648,1.001-1.001,1.475c-0.35,0.468-0.729,1.03-1.03,1.537
		c-0.199,0.34-0.484,1.03-0.605,1.41c-0.128,0.392-0.245,0.775-0.366,1.168c-0.265,0.867-0.805,1.315-1.266,2.041
		c-0.039,0.062-0.415,0.595-0.245,0.612c0.111,0.01,0.448-0.566,0.52-0.67c0.428-0.625,0.886-0.991,1.171-1.75
		c0.213-0.569,0.366-1.158,0.618-1.717c0.239-0.53,0.399-0.854,0.752-1.328c0.33-0.438,0.598-0.782,0.975-1.187
		c0.343-0.37,0.612-0.719,0.984-1.079c0.585-0.562,1.406-1.207,2.201-1.41c0.621-0.16,1.001-0.249,1.655-0.216
		c0.785,0.043,2.132,0,2.652,0.697c0.491,0.703-0.098,2.198-0.363,2.907c-0.425,1.138-0.903,2.253-1.4,3.362
		c-0.154,0.343-0.281,0.648-0.451,0.988c-0.278,0.556-0.549,0.975-0.922,1.472c-0.67,0.893-1.478,1.668-2.204,2.512
		c-0.128,0.147-0.664,0.788-0.634,0.952c0.016,0.088,0.092,0.088,0.154,0.02c0.275-0.298,0.504-0.631,0.791-0.939
		c1.174-1.253,2.387-2.312,3.411-3.718c0.196-0.271,0.34-0.468,0.513-0.752c0.448-0.723,0.997-1.406,1.491-2.106
		c0.723-1.037,1.445-2.129,2.09-3.215c1.04-1.72,3.519-2.031,5.337-2.204c0.206-0.02,1.138-0.114,1.272-0.098
		c0.448,0.049,0.101,0.769-0.023,0.978c-0.399,0.677-0.903,1.154-1.426,1.72c-0.121,0.131-0.7,0.814-0.592,0.981
		c0.157,0.245,0.657-0.386,0.775-0.504c0.285-0.291,0.661-0.592,0.971-0.87c0.294-0.265,0.549-0.484,0.831-0.769
		c0.412-0.422,0.674-0.71,1.033-1.177c0.471-0.615,0.546-0.517,1.23-0.631c1.665-0.281,3.467-0.621,5.147-0.729
		c0.196-0.013,2.037-0.164,1.521,0.461l-0.023,0.026c-1.145,1.056-2.27,2.132-3.372,3.231c-0.285,0.281-0.716,0.507-1.06,0.726
		c-0.772,0.494-1.462,0.749-2.368,0.857c-0.782,0.095-1.514,0.114-2.299,0.157c-0.693,0.036-1.468,0.291-2.077,0.618
		c-0.474,0.255-0.664,0.356-1.092,0.697c-0.379,0.301-0.697,0.582-1.056,0.896c-0.082,0.069-0.5,0.389-0.51,0.471
		c-0.013,0.128,0.199,0.033,0.255,0c0.35-0.209,0.821-0.661,1.174-0.932c0.455-0.35,0.716-0.533,1.239-0.785
		c0.605-0.291,1.079-0.448,1.759-0.504c0.386-0.033,1.135,0.026,1.537,0.056c0.285,0.023,1.701,0.092,1.684,0.455
		c-0.007,0.19-0.605,0.723-0.762,0.876c-1.933,1.88-3.797,3.359-6.027,4.876c-0.186,0.124-0.373,0.249-0.559,0.376
		c-0.477,0.317-0.88,0.612-1.328,0.965c-0.396,0.307-0.589,0.448-1.04,0.683c-0.35,0.183-0.612,0.298-0.968,0.455
		c-0.428,0.186-0.994,0.471-1.357,0.765c-0.389,0.314-0.785,0.67-1.168,1.001c-0.02,0.02-0.392,0.33-0.304,0.356
		c0.105,0.033,1.338-0.994,1.527-1.132c0.746-0.546,1.619-0.726,2.482-0.997c0.523-0.164,0.798-0.242,1.289-0.494
		c0.412-0.209,0.733-0.386,1.164-0.556c0.7-0.271,1.387-0.582,2.064-0.903c0.592-0.278,0.997-0.631,0.975,0.373
		c-0.01,0.468-0.17,1.047-0.226,1.531c-0.069,0.618-0.082,1.253,0.056,1.864c0.131,0.592,0.35,1.04,0.517,1.606
		c0.137,0.455,0.141,0.87,0.245,1.302c0.078,0.33,0.245,0.298,0.239,0.007c-0.01-0.419-0.098-1.063-0.209-1.468
		c-0.285-1.017-0.543-1.442-0.415-2.567c0.101-0.899,0.311-1.289,0.602-2.096c0.334-0.919,0.818-1.858,1.629-2.436l0.098-0.072
		c0.291-0.203,1.488-1.096,1.733-0.576c0.186,0.396-0.193,1.841-0.298,2.325c-0.114,0.543-0.222,1.096-0.33,1.638
		c-0.124,0.625-0.242,1.521-0.275,2.152c-0.049,0.89,0.098,1.462,0.356,2.309c0.085,0.281,0.199,0.543,0.285,0.837
		c0.036,0.118,0.229,0.984,0.458,0.775c0.216-0.196-0.209-1.478-0.271-1.779c-0.271-1.354-0.186-1.907,0.216-3.208
		c0.173-0.569,0.402-1.118,0.589-1.678c0.144-0.435,0.268-0.968,0.392-1.423c0.824-3.025,1.9-5.517,4.533-7.42
		c0.239-0.173,1.413-0.952,1.635-0.952c0.304-0.003,0.304,0.543,0.285,0.746c-0.052,0.53-0.167,1.05-0.249,1.576
		c-0.046,0.294-0.095,0.559-0.134,0.86c-0.065,0.461-0.114,0.958-0.15,1.419c-0.056,0.716-0.023,1.226,0.206,1.916
		c0.085,0.255,0.304,0.713,0.422,0.961c0.252,0.533,0.523,1.043,0.788,1.566c0.144,0.288,0.275,0.625,0.419,0.896
		c0.118,0.226,0.213,0.108,0.144-0.111c-0.147-0.471-0.461-1.047-0.68-1.501c-0.134-0.271-0.265-0.569-0.392-0.847
		c-0.124-0.275-0.268-0.618-0.376-0.899c-0.186-0.497-0.239-1.06-0.19-1.586c0.052-0.598,0.18-1.262,0.304-1.848
		c0.065-0.317,0.19-0.733,0.291-1.047c0.092-0.285,0.226-0.615,0.334-0.896c0.15-0.392,0.298-0.693,0.419-1.109
		c0.131-0.445,0.37-1.086,0.769-1.347c1.56-1.024,2.727-2.194,3.807-3.699c1.527,0.049,2.423,3.355,2.969,4.641
		c0.167,0.441-0.582,3.329-0.749,4.032c-0.285,1.197-0.536,2.338-0.749,3.552c-0.242,1.393-1.011,2.129-1.848,3.182
		c-0.337,0.425-0.7,0.804-1.06,1.207c-0.445,0.491-0.867,1.161-1.024,1.805c-0.043,0.177-0.311,1.217-0.304,1.298
		c0.016,0.157,0.17,0.072,0.242-0.059c0.199-0.366,0.291-1.079,0.484-1.498c0.265-0.572,0.7-1.076,1.161-1.498
		c0.448-0.409,0.867-0.85,1.305-1.262c0.435-0.412,0.873-0.755,1.289-1.197c0.098-0.105,0.513-0.592,0.589-0.634
		c0.422-0.242,1.459,0.955,1.684,1.282c0.356,0.52,0.697,1.053,0.827,1.678c0.183,0.876,0.199,2.119,0.229,3.035
		c0.023,0.791,0.026,1.586,0.056,2.374c0,0.056,0.007,0.468,0.144,0.406c0.092-0.043,0.069-0.674,0.069-0.778
		c0.01-1.331,0.023-2.705-0.02-4.032c-0.026-0.795-0.052-1.37-0.379-2.109c-0.222-0.504-0.435-0.958-0.716-1.429
		c-0.131-0.222-0.265-0.441-0.396-0.664c-0.468-0.785-0.504-1.57-0.229-2.43c0.111-0.35,0.209-0.703,0.307-1.053
		c0.203-0.739,0.497-2.06,1.357-2.276c0.674-0.15,1.495,0.314,2.067,0.634c0.536,0.298,1.037,0.769,1.478,1.194
		c0.651,0.631,1.269,1.527,1.495,2.413c0.229,0.916,0.196,1.877-0.167,2.75c-0.314,0.755-0.589,1.22-0.703,2.064
		c-0.029,0.232-0.141,1.727-0.072,1.854c0.056,0.105,0.144,0.013,0.177-0.072c0.085-0.229,0.128-1.194,0.17-1.527
		c0.141-1.05,0.481-1.462,0.912-2.351c0.314-0.644,0.428-1.364,0.572-2.06c0.199-0.952,0.589-0.419,1.014,0.007
		c0.386,0.389,0.769,0.778,1.148,1.171c0.487,0.504,0.654,0.618,0.873,1.308c0.17,0.536,0.285,1.321,0.206,1.884
		c-0.101,0.71-0.366,1.203-0.592,1.861c-0.124,0.356-0.222,0.615-0.314,0.988c-0.144,0.589-0.206,0.916-0.239,1.527
		c-0.016,0.347-0.023,0.618-0.072,0.965c-0.01,0.072-0.124,0.644,0.065,0.598c0.245-0.059,0.334-1.629,0.37-1.89
		c0.111-0.863,0.477-1.769,0.88-2.538c0.183-0.35,0.337-0.628,0.497-0.997c0.072-0.164,0.314-0.811,0.383-0.899
		c0.383-0.491,1.174,0.271,1.485,0.543c0.468,0.402,0.827,0.824,1.357,1.151c0.37,0.229,0.752,0.419,1.125,0.634
		c0.569,0.327,1.082,0.847,1.58,1.272c0.075,0.065,0.373,0.311,0.451,0.147c0.072-0.154-0.363-0.549-0.464-0.654
		c-0.455-0.471-0.952-0.939-1.504-1.292c-0.334-0.213-0.896-0.592-1.164-0.873c-0.262-0.278-0.598-0.71-0.831-1.024
		c-0.507-0.687-0.85-1.308-1.289-2.034c-0.559-0.919-1.128-1.707-1.763-2.57c-0.072-0.098-0.383-0.497-0.098-0.546
		c0.285-0.052,2.018,0.484,2.436,0.585c0.638,0.157,1.115,0.343,1.694,0.657c0.098,0.056,0.533,0.307,0.628,0.196
		c0.056-0.065-0.242-0.196-0.298-0.229c-0.396-0.232-0.716-0.428-1.141-0.612c-0.474-0.199-1.001-0.347-1.495-0.523
		c-0.34-0.121-0.723-0.271-1.053-0.415c-0.392-0.17-0.736-0.406-1.122-0.605c-0.716-0.37-1.416-0.742-1.995-1.315
		c-1.495-1.488-6.233-6.122-5.216-8.362l0.033-0.075c1.828,1.848,3.221,2.306,5.677,2.826c0.569,0.121,1.779,0.343,2.247,0.582
		c1.03,0.527,2.044,1.511,2.459,2.6c0.334,0.87,0.307,1.678,0.386,2.58c0.062,0.726,0.324,1.122,0.648,1.75
		c0.183,0.353,0.334,0.18,0.226-0.164c-0.167-0.517-0.425-0.791-0.477-1.406c-0.029-0.366-0.01-0.854-0.013-1.233
		c-0.007-0.847-0.062-1.406-0.242-2.234c-0.229-1.047,0.262-0.733,0.867-0.415c1.066,0.556,2.083,1.2,3.09,1.854
		c0.605,0.392,1.086,0.876,1.599,1.374c0.618,0.598,1.282,1.625,1.609,2.417c0.275,0.67,0.412,2.175,0.219,2.888
		c-0.144,0.523-0.383,0.919-0.507,1.449c-0.098,0.415-0.137,0.674-0.183,1.099c-0.043,0.383-0.078,0.697-0.098,1.086
		c-0.016,0.301-0.206,0.798-0.19,1.014c0.01,0.154,0.118,0.16,0.18-0.013c0.098-0.262,0.239-0.746,0.255-1.02
		c0.029-0.448,0.098-0.932,0.167-1.38c0.092-0.592,0.239-1.027,0.5-1.56c0.32-0.648,0.396-1.122,0.435-1.838
		c0.023-0.455,0.013-1.132-0.023-1.583c-0.046-0.556-0.249-1.302,0.576-0.733c0.497,0.343,0.981,0.677,1.491,1.007
		c0.772,0.5,1.498,1.233,2.201,1.841c0.726,0.628,1.36,1.033,2.302,1.256c0.406,0.095,0.876,0.124,1.295,0.173
		c0.186,0.023,0.684,0.049,0.863,0.013c0.167-0.036,0.128-0.164-0.056-0.229c-0.298-0.105-1.135-0.199-1.488-0.252
		c-0.988-0.144-1.782-0.569-2.485-1.272c-0.621-0.618-1.187-1.253-1.838-1.848c-0.327-0.298-0.667-0.592-0.955-0.922
		c-0.713-0.821-1.429-1.642-2.142-2.463c-1.308-1.504-2.62-3.009-3.928-4.513l-0.036-0.043c1.707-1.109,4.386-0.752,6.263-0.337
		c0.546,0.121,1.014,0.461,1.442,0.808c0.435,0.35,0.991,0.896,1.272,1.377c0.579,0.978,0.226,1.485,0.02,2.479
		c-0.128,0.621-0.128,1.076,0.173,1.652c0.199,0.383,0.445,0.755,0.648,1.148c0.052,0.098,0.235,0.5,0.317,0.53
		c0.147,0.052,0.101-0.19,0.082-0.255c-0.154-0.504-0.576-1.089-0.782-1.576c-0.275-0.654-0.167-1.122,0.029-1.769
		c0.239-0.785,0.477-1.089,0.311-1.956c-0.062-0.324-0.164-0.598-0.258-0.906c-0.255-0.811,0.399-0.504,0.837-0.35
		c0.739,0.255,1.478,0.527,2.204,0.805c0.441,0.17,0.88,0.562,1.053,1.004c0.245,0.615,0.232,1.132,0.082,1.763
		c-0.124,0.52-0.285,1.295-0.141,1.805c0.128,0.458,0.406,1.099,0.638,1.511c0.255,0.448,0.448,0.7,0.762,1.102
		c0.255,0.327,0.481,0.677,0.716,1.017c0.131,0.193,0.222,0.092,0.157-0.092c-0.118-0.324-0.716-1.102-0.945-1.423
		c-0.409-0.579-0.621-1.086-0.844-1.75c-0.219-0.654-0.17-0.952,0.023-1.599c0.134-0.448,0.301-0.808,0.419-1.269
		c0.075-0.301,0.144-0.88,0.409-1.043c0.199-0.124,0.533,0.105,0.713,0.216c0.455,0.275,0.84,0.618,1.226,0.981
		c0.5,0.474,0.863,0.906,1.279,1.455c0.304,0.399,0.641,0.814,0.968,1.197c0.383,0.448,0.729,0.739,1.22,1.06
		c0.065,0.043,0.402,0.314,0.419,0.098c0.016-0.203-0.5-0.53-0.654-0.667c-0.703-0.634-1.318-1.609-1.844-2.391
		c-0.638-0.952-1.674-1.995-2.584-2.701c-0.598-0.464-1.082-0.86-1.737-1.259c-4.883-2.992-12.509-3.346-18.14-3.882
		c-8.424-1.74-11.829-9.036-13.412-16.734c-0.078-0.376-0.078-0.448-0.065-0.814c0-0.036-0.01-0.252-0.01-0.252
		s0.072-0.157,0.085-0.216c0.082-0.337-0.033-0.831,0.216-1.06l0.043-0.039c0.249-0.193,0.68-0.392,0.975-0.54
		c0.441-0.219,0.873-0.285,1.285-0.471c0.275-0.128,0.324-0.324,0.664-0.487c0.311-0.147,0.68-0.288,1.004-0.432
		c0.814-0.36,1.616-0.749,2.42-1.135c1.508-0.726,2.822-1.194,4.438-1.658c1.808-0.52,3.669-0.958,5.504-1.377
		c3.695-0.84,7.993-4.395,5.661-3.29c-4.389,2.083-10.635,3.29-10.455,2.414c0.873-1.517,2.806-3.715,2.613-4.552
		c-3.368,2.705-2.368,4.284-9.837,6.923c-1.766,0.625-3.62,1.092-5.403,1.158c-0.899-13.444,10.328-14.484,17.14-22.794
		c3.13-3.823,12.823-4.49,8.411-4.405c-9.438,0.183-5.288,3.529-3.038-12.506l-1.815,5.18c-0.569,1.217-6.07-6.233-3.349-2.044
		c1.096,1.687,3.496,2.077,1.511,6.868c-3.944,9.52-18.412,14.667-19.445,14.37c-1.429-0.412-1.563-6.819,2.888-13.474
		c1.661-3.581,6.528-7.796,5.923-12.404c-0.948,3.149-3.126,5.321-3.78,6.511c-1.145,2.08-1.145,1.266-5.805-2.276l-0.043,0.523
		l2.688,2.463c1.589,2.786-1.678,6.135-4.389,8.781c-3.624,3.535-2.636,0.53-8.326-3.584c-4.039-2.92-6.076-5.975-3.843-11.708
		c-0.226-0.206-0.504-0.098-0.896,0.641l-1.527,4.945c-1.759-1.511-5.945-5.246-5.213-7.839c0.108-0.383-5.367-0.386,10.266,15.904
		c3.159,3.3,5.887,8.254,6.76,12.725c0.219,1.128,0.314,2.122,0.196,3.27c-0.111,1.096-0.134,2.207-0.249,3.296
		c-0.02,0.186-0.046,0.363-0.078,0.546c-0.056,0.317-0.114,0.543-0.196,0.847c-0.173,0.648-0.17,1.082-0.059,1.73
		c0.183,1.066,0.15,0.929-0.137,0.029c-0.222-0.7-0.196-1.145-0.258-1.835c-0.029-0.347-0.026-0.7-0.023-1.047
		c0.003-0.406,0.399-1.148-0.108-1.4c-0.196-0.098-0.533,0.02-0.752,0.052c-0.392,0.056-0.991-0.078-1.403-0.141
		c-2.75-0.419-5.403-0.739-8.192-0.749c-1.226-0.003-2.273-0.003-3.503-0.157c-2.073-0.262-4.304-0.805-6.341-1.321
		c-0.249-0.062-0.5-0.128-0.749-0.19c-3.427-0.883-9.003,0.455-6.485,0.481c4.739,0.052,10.4,1.75,9.716,2.472
		c-1.622,1.004-4.5,2.155-4.866,3.012c4.32-0.971,4.507-2.875,12.012-1.949c4.415,0.546,8.663,2.204,8.483,7.492
		c-0.092,2.705,1.841,9.818,0.033,16.842L43.855,71.777z"/>
	<path fill-rule="evenodd" clip-rule="evenodd" d="M83.845,45.016c-0.863,3.735-3.872,4.87-6.57,3.646
		c1.88-2.548,3.319-0.805,5.288-2.639c-2.175,1.609-3.447,0-5.461,2.217c0.108-3.738,5.013-2.606,6.743-3.221V45.016z"/>
	<path fill-rule="evenodd" clip-rule="evenodd" d="M74.321,40.676c3.261,2.011,3.372,5.226,1.351,7.394
		c-1.812-2.597,0.301-3.401-0.808-5.854c0.827,2.577-1.102,3.264,0.353,5.883c-3.506-1.298-0.867-5.586-0.893-7.42L74.321,40.676z"
		/>
	<path fill-rule="evenodd" clip-rule="evenodd" d="M67.843,42.154c3.764,0.726,5.01,3.689,3.888,6.433
		c-2.616-1.786-0.925-3.287-2.835-5.183c1.691,2.113,0.128,3.444,2.417,5.373c-3.738,0.029-2.793-4.915-3.47-6.619V42.154z"/>
	<path fill-rule="evenodd" clip-rule="evenodd" d="M82.589,54.036c-3.62,1.259-6.184-0.683-6.586-3.62
		c3.156,0.235,2.449,2.381,5.053,3.068c-2.521-0.981-1.835-2.914-4.784-3.437c3.221-1.9,4.879,2.855,6.322,3.99L82.589,54.036z"/>
	<path fill-rule="evenodd" clip-rule="evenodd" d="M77.785,57.725c-3.833-0.098-5.543-2.822-4.883-5.71
		c2.871,1.334,1.449,3.09,3.643,4.654c-2.011-1.812-0.687-3.375-3.264-4.905c3.686-0.641,3.555,4.392,4.503,5.965V57.725z"/>
	<path fill-rule="evenodd" clip-rule="evenodd" d="M73.707,57.685c-3.62,1.259-6.184-0.683-6.586-3.62
		c3.156,0.235,2.449,2.381,5.049,3.068c-2.518-0.984-1.835-2.917-4.784-3.44c3.221-1.9,4.879,2.855,6.322,3.99V57.685z"/>
	<path fill-rule="evenodd" clip-rule="evenodd" d="M66.306,61.776c-3.31-1.933-3.499-5.141-1.534-7.358
		c1.874,2.551-0.216,3.408,0.955,5.831c-0.89-2.554,1.024-3.29-0.497-5.87C68.768,55.589,66.234,59.942,66.306,61.776z"/>
	<path fill-rule="evenodd" clip-rule="evenodd" d="M62.319,41.029c-1.39,3.571,0.458,6.204,3.378,6.714
		c-0.121-3.162-2.289-2.535-2.881-5.161c0.89,2.554,2.845,1.939,3.264,4.905c2.018-3.149-2.675-4.977-3.758-6.462L62.319,41.029z"/>
	<path fill-rule="evenodd" clip-rule="evenodd" d="M58.614,44.385c-1.39,3.571,0.458,6.204,3.378,6.714
		c-0.121-3.162-2.289-2.535-2.881-5.161c0.89,2.554,2.845,1.939,3.264,4.905c2.018-3.149-2.675-4.977-3.758-6.462L58.614,44.385z"/>
</g>
</svg>
