<svg height='100px' width='100px'  fill="#000000" xmlns="http://www.w3.org/2000/svg" viewBox="0 0 64 64" x="0px" y="0px"><title>recycled paper</title><g data-name="recycled paper"><path d="M17.16,44.15V43a1,1,0,0,1,2,0v1.19a1,1,0,0,1-2,0Zm15.31,4.94H19.16V47.81a1,1,0,0,0-2,0v2.28a1,1,0,0,0,1,1H32.47a1,1,0,0,0,0-2ZM51.1,45.46a3.49,3.49,0,0,1-1,1.19c-2.74,2.81-5.55,5.57-8.33,8.34-.58.57-1.06.5-1.78.5H13.77a1,1,0,0,1-1-1v-45a1,1,0,0,1,1-1H50.23c.68,0,1,.55,1,1.14,0,.89,0,33.93,0,35.21A1.88,1.88,0,0,1,51.1,45.46Zm-36.33,8H39.91V45.16a1,1,0,0,1,1-1h8.32V10.52H14.77Zm33-7.32H41.91v5.91ZM37.47,28a1,1,0,0,0-.37,1.37l2.81,4.87H34.77v-2.6l-3.6,3.6,3.6,3.6v-2.6h6.87a1,1,0,0,0,.87-1.5l-3.68-6.37A1,1,0,0,0,37.47,28ZM22.36,36.07h7.35a1,1,0,0,0,0-2H24.09l2.57-4.45,2.25,1.3L27.59,26l-4.91,1.32,2.25,1.3-3.43,5.95a1,1,0,0,0,.87,1.5ZM28,25.68a1,1,0,0,0,1.37-.37l2.81-4.87,2.57,4.45-2.25,1.3,4.91,1.32L38.7,22.6l-2.25,1.3L33,18a1,1,0,0,0-1.73,0l-3.68,6.37A1,1,0,0,0,28,25.68Z"></path></g></svg>