<svg height='100px' width='100px'  fill="#000000" xmlns:x="http://ns.adobe.com/Extensibility/1.0/" xmlns:i="http://ns.adobe.com/AdobeIllustrator/10.0/" xmlns:graph="http://ns.adobe.com/Graphs/1.0/" xmlns="http://www.w3.org/2000/svg" xmlns:xlink="http://www.w3.org/1999/xlink" version="1.1" x="0px" y="0px" viewBox="0 0 100 100" style="enable-background:new 0 0 100 100;" xml:space="preserve"><g><g i:extraneous="self"><path d="M95.7,45.4l-43-31.9c-1.6-1.2-3.8-1.2-5.4,0l-43,31.9c-1,0.7-1.6,1.8-1.8,3c-0.2,1.2,0.1,2.4,0.8,3.4    c1.5,2,4.3,2.4,6.3,0.9l7.2-5.3V84c0,1.9,1.5,3.4,3.4,3.4h59.3c1.9,0,3.4-1.5,3.4-3.4V47.4l7.2,5.3c0.8,0.6,1.7,0.9,2.7,0.9    c1.4,0,2.8-0.7,3.6-1.8c0.7-1,1-2.2,0.8-3.4C97.3,47.2,96.6,46.1,95.7,45.4z M51.9,41.6c0.6-3.1,3-5.2,5.5-4.8    c1.2,0.2,2.2,1,2.9,2.3c0.6,1.2,0.8,2.7,0.5,4.2c-0.5,2.8-2.6,4.8-4.8,4.8c-0.2,0-0.4,0-0.7-0.1h0C52.8,47.6,51.3,44.7,51.9,41.6z     M39.8,39.1c0.6-1.2,1.7-2,2.9-2.3c2.4-0.5,4.9,1.7,5.5,4.8c0.6,3.1-0.9,6-3.4,6.4h0c-0.2,0-0.4,0.1-0.7,0.1c-2.2,0-4.3-2-4.8-4.8    C39,41.8,39.2,40.3,39.8,39.1z M34.2,55.6c-0.8,0-1.6-0.3-2.4-0.7c-1.1-0.7-2-1.9-2.5-3.3c-1-2.9,0.1-5.9,2.4-6.7    c1.1-0.4,2.4-0.2,3.5,0.5c1.1,0.7,2,1.9,2.5,3.3c1,2.9-0.1,5.9-2.4,6.7C35,55.5,34.6,55.6,34.2,55.6z M35.5,65.4    c0-4.4,4.7-9.1,8.8-12.4c3.4-2.7,8.2-2.7,11.6,0c4.1,3.3,8.8,8,8.8,12.4C64.5,76.1,35.5,76.1,35.5,65.4z M70.6,51.6    c-0.5,1.4-1.4,2.6-2.5,3.3c-0.8,0.5-1.6,0.7-2.4,0.7c-0.4,0-0.8-0.1-1.2-0.2c-2.3-0.8-3.4-3.8-2.4-6.7c1-2.9,3.7-4.6,6-3.8    C70.5,45.7,71.6,48.7,70.6,51.6z"></path></g></g></svg>