<svg height='100px' width='100px'  fill="#1A1A1A" xmlns="http://www.w3.org/2000/svg" viewBox="0 0 48 48" x="0px" y="0px"><title>10-song</title><g data-name="10-song"><path d="M47.84082,46.45947l-6.31934-9.83105A22.746,22.746,0,0,0,46,23,23.003,23.003,0,1,0,34.68457,42.80957L46.60645,47.919a.99937.99937,0,0,0,1.23437-1.45948ZM34.999,40.769a.99857.99857,0,0,0-.92187.06983,21.02909,21.02909,0,1,1,5.43847-4.87647.99866.99866,0,0,0-.05468,1.15821l4.93261,7.67431Z"></path><path d="M34,9a.99969.99969,0,0,0-1.33008-.94385l-20,7A.99976.99976,0,0,0,12,16V28.10059A5.00019,5.00019,0,1,0,18,33V21.7207l10-3.33349v5.71338A5.00019,5.00019,0,1,0,34,29ZM32,29a3,3,0,1,1-3-3,.99974.99974,0,0,0,1-1V17a1.00015,1.00015,0,0,0-1.31641-.94873l-12,4A1,1,0,0,0,16,21V33a3,3,0,1,1-3-3,.99974.99974,0,0,0,1-1V16.70947l18-6.2998Z"></path><path d="M24,9a.99974.99974,0,0,0,1-1V6a1,1,0,0,0-2,0V8A.99974.99974,0,0,0,24,9Z"></path><path d="M24,37a.99974.99974,0,0,0-1,1v2a1,1,0,0,0,2,0V38A.99974.99974,0,0,0,24,37Z"></path><path d="M42,23a.99974.99974,0,0,0-1-1H39a1,1,0,0,0,0,2h2A.99974.99974,0,0,0,42,23Z"></path><path d="M10,23a.99974.99974,0,0,0-1-1H7a1,1,0,0,0,0,2H9A.99974.99974,0,0,0,10,23Z"></path><path d="M35.31348,32.89941a.9999.9999,0,0,0-1.41407,1.41407L35.31348,35.728a.9834.9834,0,0,0,1.41406,0,.99965.99965,0,0,0,0-1.41407Z"></path><path d="M12.68652,13.10059a1.04253,1.04253,0,0,0,1.41407,0,.99965.99965,0,0,0,0-1.41407L12.68652,10.272A.99989.99989,0,0,0,11.27246,11.686Z"></path></g></svg>