<svg height='100px' width='100px'  fill="#000000" xmlns="http://www.w3.org/2000/svg" xmlns:xlink="http://www.w3.org/1999/xlink" version="1.1" x="0px" y="0px" viewBox="0 0 100 100" enable-background="new 0 0 100 100" xml:space="preserve"><g><path d="M50.1,61.2c-4.3,0-7.7,2-7.7,4.4c0,2.4,3.5,9.5,7.7,9.5s7.7-7,7.7-9.5C57.8,63.2,54.3,61.2,50.1,61.2z"></path><path d="M89,16c-9.1-4.4-18.1,7.6-20.4,11c-2,3-4.7,7.2-6.1,9.2c-3.4-1.2-7.5-1.9-12.4-1.9c0,0,0,0,0,0c0,0,0,0,0,0   c-4.9,0-8.9,0.7-12.4,1.9c-1.4-2.1-4.1-6.2-6.1-9.2c-2.3-3.4-11.3-15.4-20.4-11c-9.9,4.8-1.1,21.4,0,25.1c1.1,3.7,2,11.2,5.4,14.7   c0.9,1,2,1.8,3.1,2.6c-0.6,3-0.7,6.3,0.3,9.3c2,5.6,6.3,9.6,8.3,12.6c2,3,4.6,9.6,10.3,9.3c5.6-0.4,7.6-2.5,11.5-2.6v0c0,0,0,0,0,0   c0,0,0,0,0,0v0c3.9,0,5.9,2.2,11.5,2.6c5.6,0.4,8.3-6.3,10.3-9.3c2-3,6.3-7,8.3-12.6c1.1-3,0.9-6.3,0.3-9.3   c1.1-0.8,2.2-1.6,3.1-2.6C87,52.2,87.9,44.7,89,41C90.1,37.4,98.9,20.8,89,16z M21.4,51.8c-0.2,0.7-0.5,1.5-0.7,2.4   c-0.1-0.1-0.2-0.2-0.3-0.3c-3-2.5-4.5-6.8-5.5-12.1c-1.1-5.8-7.6-16.1-1.9-19.1c5.7-3.1,15.5,12,18.3,16.7   C24.8,43.6,22.2,49.5,21.4,51.8z M63.8,86.6c-3.8,1.7-9.8-1.9-13.8-2c-3.9,0-10,3.6-13.8,2c-2.5-1.1-4.7-4-4.7-8.1   c0-5.2,3-9.9,6.8-12.9c1.8-1.4,8.5-9.7,3.4-16.2c-1.8-2.3-5.3-3.1-5.5-6.9c-0.1-2.6,1.3-3.6,3.4-4.4c2-0.8,6.4-1.3,10.4-1.3   s8.3,0.5,10.4,1.3c2,0.8,3.5,1.8,3.4,4.4c-0.2,3.8-3.8,4.6-5.5,6.9c-5.1,6.5,1.6,14.8,3.4,16.2c3.8,3,6.8,7.7,6.8,12.9   C68.5,82.6,66.3,85.5,63.8,86.6z M85.3,41.8c-1,5.2-2.5,9.6-5.5,12.1c-0.1,0.1-0.2,0.2-0.3,0.3c-0.3-0.9-0.5-1.7-0.8-2.4   c-0.7-2.3-3.3-8.1-9.8-12.4c2.8-4.6,12.6-19.8,18.3-16.7C92.9,25.7,86.3,36,85.3,41.8z"></path></g></svg>