<svg height='100px' width='100px'  fill="#1A1A1A" xmlns="http://www.w3.org/2000/svg" viewBox="0 0 64 64" x="0px" y="0px"><path d="M57.979,28.794a1,1,0,0,0-.3-.53L45.293,16.879A3.014,3.014,0,0,0,43.1,16h-.015L30.918,17a.992.992,0,0,0-.23.064A10,10,0,0,0,22,12V4a1,1,0,0,0-1-1H3A1,1,0,0,0,2,4V42a1,1,0,0,0,1,1H21a1,1,0,0,0,1-1V32c.043,0,.084,0,.127-.006l2.965,6.425a1.012,1.012,0,0,0,.122.2l11,14a.948.948,0,0,0,.079.089l8,8a1,1,0,0,0,1.414-1.414L37.75,51.335,26.859,37.475l-3.2-6.931h0l-1.408-3.05a2.3,2.3,0,0,1,1.063-3.033A2.618,2.618,0,0,1,26.8,25.553l4.323,7.926a1.013,1.013,0,0,0,.323.353l7.783,5.189a2.992,2.992,0,0,0,3.539-.154l2.54-2.032a2.993,2.993,0,0,0,.751-3.8l-5.274-9.523A1,1,0,0,0,39.909,23H32V18.921L43.171,18a1.026,1.026,0,0,1,.738.322l12.178,11.2L60,48.1V60a1,1,0,0,0,2,0V48a1.014,1.014,0,0,0-.021-.206ZM20,41H4V5H20v7.2a9.936,9.936,0,0,0-4,1.817V10a1,1,0,0,0-1-1H9a1,1,0,0,0-1,1V34a1,1,0,0,0,1,1h6a1,1,0,0,0,1-1V29.981A9.936,9.936,0,0,0,20,31.8ZM14,16.02a9.924,9.924,0,0,0,0,11.96c0,.007,0,.013,0,.02v5H10V11h4v5C14,16.007,14,16.013,14,16.02Zm8.416,6.651a4.293,4.293,0,0,0-1.984,5.66h0l.751,1.628A8,8,0,1,1,30,22a7.9,7.9,0,0,1-.876,3.638L28.555,24.6a4.61,4.61,0,0,0-5.277-2.253A4.683,4.683,0,0,0,22.42,22.671ZM39.32,25l4.988,9.008a1,1,0,0,1-.25,1.265l-2.541,2.033a1,1,0,0,1-1.179.05L32.76,32.305l-2.532-4.641A9.857,9.857,0,0,0,31.534,25Z"></path></svg>