<svg height='100px' width='100px'  fill="#000000" xmlns="http://www.w3.org/2000/svg" xmlns:xlink="http://www.w3.org/1999/xlink" version="1.1" x="0px" y="0px" viewBox="0 0 100 100" style="enable-background:new 0 0 100 100;" xml:space="preserve"><path d="M10.2915039,89.6289062C10.4868164,89.8251953,10.7436523,89.9228516,11,89.9228516  c0.2553711,0,0.5107422-0.0966797,0.7055664-0.2919922C43.3154297,58.1386719,88.5878906,55.875,89.0415039,55.8554688  c0.5517578-0.0234375,0.9804688-0.4892578,0.9570312-1.0410156c-0.0229492-0.5517578-0.4975586-1-1.0410156-0.9570312  c-0.2401733,0.0101929-12.8563843,0.6375732-29.4353638,5.7693481  c-24.8635254-12.0698853-48.246582-13.1775513-48.4801636-13.1873169c-0.559082-0.0332031-1.0175781,0.40625-1.0410156,0.9570312  C9.9775391,47.9482422,10.40625,48.4140625,10.9580078,48.4375c0.2236938,0.0095215,22.0339966,1.0541382,45.7780762,12.0823975  c-3.1433716,1.0438232-6.406311,2.2506104-9.736084,3.642334c-14.272583-6.1233521-27.3764038-8.7989502-35.8632812-9.9639893  c-0.5488281-0.0810547-1.0517578,0.3066406-1.1269531,0.8544922c-0.0751953,0.546875,0.3076172,1.0517578,0.8544922,1.1259766  c8.0123291,1.1000366,20.2009888,3.572876,33.5762939,9.0828247c-2.8573608,1.265625-5.7528687,2.6721191-8.6541748,4.2313843  c-7.8777466-3.0702515-16.1528931-5.4542236-24.5969238-7.0847168c-0.5439453-0.1083984-1.0668945,0.2490234-1.1713867,0.7919922  c-0.1044922,0.5419922,0.25,1.0664062,0.7924805,1.1708984c7.7666016,1.500061,15.3834229,3.6539307,22.6755981,6.3922119  c-2.5441284,1.4394531-5.0855103,2.9990845-7.6027832,4.6921997c-4.7402344-1.7282104-9.6641846-3.2280273-14.6436157-4.4545288  c-0.5351562-0.1347656-1.0786133,0.1943359-1.2104492,0.7314453c-0.1318359,0.5361328,0.1958008,1.078125,0.7319336,1.2099609  c4.4406128,1.093689,8.8295288,2.4171143,13.0866699,3.9175415c-4.6711426,3.2949829-9.2374878,7.0547485-13.5534668,11.3549194  C9.902832,88.6044922,9.9018555,89.2373047,10.2915039,89.6289062z"></path><path d="M88.8632812,61.6162109c-13.8862305,1.9072266-40.6152344,7.8916016-63.6103516,26.53125  c-0.4287109,0.3476562-0.4946289,0.9765625-0.1469727,1.40625c0.1977539,0.2431641,0.4863281,0.3701172,0.7773438,0.3701172  c0.2211914,0,0.4438477-0.0732422,0.6293945-0.2236328c22.6171875-18.3330078,48.9433594-24.2236328,62.6230469-26.1035156  c0.546875-0.0751953,0.9296875-0.5791016,0.8544922-1.1259766S89.409668,61.5322266,88.8632812,61.6162109z"></path><path d="M89.9819336,70.6181641c-0.1049805-0.5429688-0.6313477-0.9023438-1.1713867-0.7919922  C76.9047852,72.125,59.1435547,77.1591797,42.1381836,88.0810547c-0.4643555,0.2988281-0.5991211,0.9179688-0.3007812,1.3818359  c0.190918,0.2978516,0.5131836,0.4599609,0.8422852,0.4599609c0.1850586,0,0.3720703-0.0507812,0.5395508-0.1582031  C59.956543,79.0136719,77.456543,74.0556641,89.1894531,71.7890625  C89.7319336,71.6845703,90.0864258,71.1601562,89.9819336,70.6181641z"></path><path d="M62.1665039,90c0.1459961,0,0.2949219-0.0322266,0.4350586-0.1005859  c8.2841797-4.0146484,17.246582-7.2236328,26.6376953-9.5390625c0.5361328-0.1318359,0.8637695-0.6738281,0.7314453-1.2099609  s-0.6767578-0.8671875-1.2099609-0.7314453c-9.5268555,2.3476562-18.621582,5.6054688-27.03125,9.6816406  c-0.4970703,0.2402344-0.7045898,0.8388672-0.4638672,1.3359375C61.4384766,89.7929688,61.7949219,90,62.1665039,90z"></path><path d="M50,10.0371094c-0.4379883,0-0.8251953,0.2851562-0.9550781,0.7041016  c-0.5395508,1.7382812-1.8891602,3.0791016-3.703125,3.6796875c-1.9003906,0.6259766-3.9819336,0.3095703-5.5712891-0.8525391  c-0.3569336-0.2587891-0.8417969-0.2548828-1.1948242,0.0107422c-0.3520508,0.2675781-0.4868164,0.7333984-0.3320312,1.1474609  c0.6245117,1.6679688,0.3833008,3.4658203-0.6625977,4.9326172c-1.1352539,1.5927734-3.034668,2.5253906-5.0615234,2.4580078  c-0.4404297,0.0009766-0.8481445,0.2763672-0.9814453,0.703125c-0.1328125,0.4277344,0.034668,0.890625,0.409668,1.1347656  c1.6166992,1.0517578,2.543457,2.7148438,2.543457,4.5644531c0,1.8486328-0.9267578,3.5117188-2.543457,4.5634766  c-0.375,0.2441406-0.5424805,0.7070312-0.409668,1.1347656c0.1333008,0.4277344,0.5410156,0.7041016,0.9814453,0.703125  c2.0561523-0.0537109,3.9272461,0.8662109,5.0620117,2.4580078c1.0454102,1.4667969,1.2866211,3.2646484,0.6621094,4.9316406  c-0.1547852,0.4140625-0.0200195,0.8798828,0.3320312,1.1474609c0.3530273,0.2685547,0.8378906,0.2705078,1.1948242,0.0107422  c1.5893555-1.1621094,3.671875-1.4785156,5.5708008-0.8525391c1.8139648,0.6005859,3.1640625,1.9414062,3.7036133,3.6796875  C49.1748047,46.7148438,49.5620117,47,50,47s0.8251953-0.2851562,0.9550781-0.7041016  c0.5390625-1.7382812,1.8891602-3.0791016,3.703125-3.6796875c1.8989258-0.6269531,3.9824219-0.3105469,5.5712891,0.8525391  c0.3574219,0.2597656,0.8422852,0.2558594,1.1948242-0.0107422c0.3520508-0.2675781,0.4868164-0.7333984,0.3320312-1.1474609  c-0.6245117-1.6669922-0.3833008-3.4648438,0.6621094-4.9316406c1.1357422-1.5927734,3.03125-2.5234375,5.0620117-2.4580078  c0.4609375,0.0009766,0.8486328-0.2753906,0.9814453-0.703125s-0.034668-0.890625-0.409668-1.1347656  c-1.6166992-1.0517578-2.543457-2.7148438-2.543457-4.5634766c0-1.8496094,0.9267578-3.5126953,2.543457-4.5644531  c0.375-0.2441406,0.5424805-0.7070312,0.409668-1.1347656c-0.1328125-0.4267578-0.5205078-0.7021484-0.9814453-0.703125  c-2.0366211,0.0791016-3.9262695-0.8652344-5.0615234-2.4580078c-1.0458984-1.4667969-1.2871094-3.2646484-0.6625977-4.9326172  c0.1547852-0.4140625,0.0200195-0.8798828-0.3320312-1.1474609c-0.3525391-0.2675781-0.8374023-0.2695312-1.1948242-0.0107422  c-1.5888672,1.1630859-3.6738281,1.4785156-5.5717773,0.8525391c-1.8139648-0.6005859-3.1635742-1.9414062-3.7026367-3.6796875  C50.8251953,10.3222656,50.4379883,10.0371094,50,10.0371094z M54.0297852,16.3193359  c1.7788086,0.5888672,3.6806641,0.546875,5.3911133-0.0751953c-0.0786133,1.6044922,0.3867188,3.1972656,1.3696289,4.5761719  c1.0708008,1.5019531,2.6362305,2.5576172,4.4111328,3.0263672c-1.0834961,1.3144531-1.6928711,2.953125-1.6928711,4.6728516  c0,1.71875,0.609375,3.3574219,1.6928711,4.671875c-1.7749023,0.46875-3.340332,1.5244141-4.4116211,3.0273438  c-0.9824219,1.3779297-1.4477539,2.9697266-1.3696289,4.5742188c-1.7089844-0.6220703-3.6118164-0.6640625-5.3901367-0.0751953  C52.3349609,41.2783203,50.9389648,42.3300781,50,43.7148438c-0.9394531-1.3847656-2.3354492-2.4365234-4.0307617-2.9970703  c-0.8466797-0.2802734-1.7207031-0.4169922-2.5893555-0.4169922c-0.9560547,0-1.9052734,0.1660156-2.800293,0.4921875  c0.078125-1.6035156-0.387207-3.1962891-1.3696289-4.5742188c-1.0712891-1.5029297-2.6367188-2.5585938-4.4116211-3.0273438  c1.0834961-1.3144531,1.6928711-2.953125,1.6928711-4.671875c0-1.7197266-0.609375-3.3583984-1.6928711-4.6728516  c1.7749023-0.46875,3.340332-1.5244141,4.4111328-3.0263672c0.9829102-1.3789062,1.4482422-2.9716797,1.3696289-4.5761719  c1.7089844,0.6210938,3.6103516,0.6630859,5.390625,0.0751953C47.6650391,15.7587891,49.0610352,14.7080078,50,13.3232422  C50.9389648,14.7070312,52.3344727,15.7587891,54.0297852,16.3193359z"></path><path d="M39.9990234,28.5185547c0,5.5146484,4.4863281,10.0009766,10.0009766,10.0009766  s10.0009766-4.4863281,10.0009766-10.0009766S55.5146484,18.5175781,50,18.5175781S39.9990234,23.0039062,39.9990234,28.5185547z   M58.0009766,28.5185547c0,4.4121094-3.5893555,8.0009766-8.0009766,8.0009766s-8.0009766-3.5888672-8.0009766-8.0009766  S45.5883789,20.5175781,50,20.5175781S58.0009766,24.1064453,58.0009766,28.5185547z"></path></svg>