<svg height='100px' width='100px'  fill="#000000" xmlns="http://www.w3.org/2000/svg" xmlns:xlink="http://www.w3.org/1999/xlink" version="1.1" x="0px" y="0px" viewBox="0 0 100 100" enable-background="new 0 0 100 100" xml:space="preserve"><g><path d="M94.912,21.003l-2.636-2.636c-7.057-7.049-19.339-7.035-26.366,0L50.089,34.185l-7.977-7.977   c0.774-5.593-0.915-11.468-5.205-15.757c-7.268-7.268-19.098-7.268-26.366,0c-7.272,7.268-7.272,19.102,0,26.37   c3.634,3.634,8.408,5.455,13.181,5.455c0.862,0,1.717-0.128,2.573-0.246l7.975,7.972l-7.978,7.977   c-5.59-0.773-11.46,0.913-15.75,5.205c-7.272,7.268-7.272,19.102,0,26.37C14.175,93.187,18.949,95,23.723,95   s9.551-1.813,13.185-5.447c4.29-4.29,5.979-10.164,5.205-15.757L94.912,21.003z M47.453,52.638c-1.453-1.456-1.453-3.816,0-5.272   c0.728-0.728,1.682-1.092,2.636-1.092c0.954,0,1.908,0.364,2.636,1.092c1.453,1.456,1.453,3.816,0,5.272   C51.269,54.095,48.909,54.095,47.453,52.638z M71.182,23.639c3.31-3.306,8.626-4.136,12.733-2.192L60.1,45.263   c-0.534-1.132-1.168-2.235-2.103-3.17c-0.935-0.934-2.039-1.567-3.171-2.101L71.182,23.639z M15.814,31.548   c-4.362-4.362-4.362-11.463,0-15.825c2.181-2.177,5.047-3.27,7.912-3.27c2.862,0,5.728,1.092,7.909,3.27   c4.359,4.362,4.359,11.463,0,15.825C27.273,35.903,20.176,35.903,15.814,31.548z M34.004,39.192c1.026-0.679,2-1.468,2.903-2.371   c0.903-0.903,1.691-1.877,2.37-2.903l5.539,5.539l-5.273,5.272L34.004,39.192z M40.076,54.74c0.534,1.132,1.169,2.236,2.104,3.171   c0.935,0.934,2.039,1.568,3.171,2.102l-6.074,6.074c-0.679-1.026-1.467-2-2.37-2.903c-0.903-0.903-1.878-1.692-2.905-2.37   L40.076,54.74z M31.635,84.28c-4.362,4.355-11.459,4.355-15.821,0c-4.362-4.362-4.362-11.463,0-15.825   c2.181-2.177,5.047-3.27,7.912-3.27c2.862,0,5.728,1.092,7.909,3.27C35.994,72.818,35.994,79.918,31.635,84.28z"></path><path d="M63.274,57.911l20.642,20.646c-4.107,1.952-9.423,1.114-12.733-2.192L57.997,63.183l-5.272,5.272L65.91,81.637   c3.517,3.525,8.2,5.462,13.185,5.462c4.974,0,9.657-1.937,13.181-5.462L94.912,79L68.546,52.638L63.274,57.911z"></path></g></svg>