<svg height='100px' width='100px'  fill="#000000" xmlns="http://www.w3.org/2000/svg" data-name="Layer 1" viewBox="0 0 128 128" x="0px" y="0px"><title>Miscellaneous 39 final</title><path d="M127.86,111a2,2,0,0,0-2.6-1.11,6.08,6.08,0,0,0-3.63,3.52,8.26,8.26,0,0,0,.44,6,3.68,3.68,0,0,1-1.2,3.9,3.47,3.47,0,0,1-3.67.3c-1.33-.75-1.93-2.48-1.69-4.86.07-.66.19-1.37.32-2.11.56-3.23,1.5-8.64-4.74-10.22l-1.07-.25c-3.1-.7-3.18-1-3-2.19.24-1.81,1.41-3.09,2.76-4.58a28.48,28.48,0,0,0,1.85-2.18c5-6.69-.77-14.48-3.52-18.22-4.9-6.68,2.47-17.57,2.55-17.67l.11-.17c2-3.71,1.43-8-1.63-11.53A15.5,15.5,0,0,0,107.34,48c-1.6-1.35-1.87-1.76-1.68-2.59a12.6,12.6,0,0,1,2-3.83,19.37,19.37,0,0,0,2.19-4,11.61,11.61,0,0,0-1-10.57,27.24,27.24,0,0,0-12-9.53c-.81-.35-1.7-.67-2.56-1-3.29-1.19-6.4-2.32-7.16-5.13-.85-3.14-5.68-7.39-6.64-8.2a2,2,0,0,0-.35-.24,23.83,23.83,0,0,0-23,.09C51.05.84,45.86.93,41.7,3.29,35.32,6.91,34,14.48,33.91,14.81c-.57,3.49-6.91,5.92-9,6.47a13.82,13.82,0,0,0-9.11,6c-4.23,6.56-2.33,15.59-2.25,16,2,9.06-5.15,11.1-6,11.3a2,2,0,0,0-.33.11A6.87,6.87,0,0,0,3,59.33C2,63,4.59,66.8,5.26,67.72c.59,1.21.13,1.92-1.82,3.88A13.43,13.43,0,0,0,.83,74.85,7.18,7.18,0,0,0,.45,80.7a11.51,11.51,0,0,0,5,5.55c-5,5.73-5,13.44-5,20.27,0,1.07-.12,7.94-.12,7.94C.18,118.29.1,122.12,0,125.95A2,2,0,0,0,1.94,128H2a2,2,0,0,0,2-1.94c.1-3.84.18-7.67.26-11.51,0,0,.12-6.92.12-8,0-6.57,0-13.36,4.31-18,2.17-2.34,6.95-3,10.32-2.26,3.64.78,6.76,3.15,10.07,5.66a43.17,43.17,0,0,0,7.54,4.93,58.38,58.38,0,0,0,8.84,3.34,2,2,0,1,0,1.09-3.85,54.42,54.42,0,0,1-8.23-3.11,39.55,39.55,0,0,1-6.82-4.5L31,88.37c3.44-10.51-2.5-23.64-2.75-24.2a2,2,0,0,0-3.64,1.67c.05.12,5.05,11.2,2.94,20a22.23,22.23,0,0,0-7.68-3.5,17.89,17.89,0,0,0-11,1.19l-.06,0a8.42,8.42,0,0,1-4.63-4.21,3.19,3.19,0,0,1,.19-2.66,10.49,10.49,0,0,1,1.89-2.25c1.83-1.84,4.6-4.63,2.45-8.7a2,2,0,0,0-.19-.3c-.74-.95-2.13-3.44-1.71-5.1.07-.29.29-1.14,1.87-1.86,4.15-1.06,11.08-5.68,8.77-16-.13-.6-3-14.83,8.37-17.28,1.12-.29,10.93-3,12-9.7,0-.06,1.12-6.06,5.84-8.72C47,4.92,51.32,5,56.63,7.09a2,2,0,0,0,1.84-.2A20.05,20.05,0,0,1,78,6.35C80,8,82.88,11,83.25,12.41c1.3,4.82,5.93,6.5,9.66,7.85.84.3,1.64.59,2.35.9a23.22,23.22,0,0,1,10.22,8.06,7.66,7.66,0,0,1,.6,7,16.15,16.15,0,0,1-1.77,3.14,15.79,15.79,0,0,0-2.53,5.12c-.79,3.38,1.49,5.29,3,6.56a12.46,12.46,0,0,1,1.32,1.22c1.13,1.29,2.78,3.89,1.18,6.89-.87,1.3-8.78,13.55-2.41,22.22,3.25,4.43,6.48,9.49,3.53,13.47-.47.64-1,1.24-1.6,1.88-1.57,1.73-3.36,3.7-3.76,6.74-.68,5.09,3.74,6.08,6.12,6.62l1,.23c2.39.6,2.47,1.68,1.78,5.66-.14.78-.28,1.6-.36,2.4-.4,4,.95,7.19,3.7,8.74a7.16,7.16,0,0,0,3.53.91,7.57,7.57,0,0,0,4.5-1.48,7.72,7.72,0,0,0,2.67-8.2,2.11,2.11,0,0,0-.16-.46,4.54,4.54,0,0,1-.38-3,2.11,2.11,0,0,1,1.36-1.19A2,2,0,0,0,127.86,111Z"></path><path d="M99.73,104.64c-1.35-2-2.42-3.65-2.25-6a17,17,0,0,1,1.73-5.29c1.34-3,2.85-6.44,1.59-10.07a12.77,12.77,0,0,0-3.94-5.31c-.54-.49-1-1-1.52-1.47A7.34,7.34,0,0,1,93,70.93a6.79,6.79,0,0,1,3-4.68l.88-.64c1.87-1.33,4-2.84,4.62-5.95A11.65,11.65,0,0,0,98.64,50a2,2,0,0,0-3,2.63,7.71,7.71,0,0,1,2,6.22c-.3,1.48-1.29,2.25-3,3.47l-1,.69A10.65,10.65,0,0,0,89,70.56c-.27,3,.9,5.93,3.38,8.61.58.63,1.18,1.18,1.75,1.7A9,9,0,0,1,97,84.55c.74,2.14-.28,4.46-1.47,7.14a20.08,20.08,0,0,0-2.06,6.63c-.26,3.74,1.42,6.28,2.9,8.52A15,15,0,0,1,98.56,111,10,10,0,0,1,98,118a2,2,0,1,0,3.61,1.72,14,14,0,0,0,.75-9.86A18.65,18.65,0,0,0,99.73,104.64Z"></path><path d="M40.28,20.57a2,2,0,0,0,2.73.72c.67-.39,6.62-3.61,10.34,1.85a2,2,0,1,0,3.31-2.25C51.94,14,44.34,15.86,41,17.84A2,2,0,0,0,40.28,20.57Z"></path><path d="M57.26,11.46A11.2,11.2,0,0,0,46.21,9.79a2,2,0,1,0,1.59,3.67,7.15,7.15,0,0,1,6.95,1.12,2,2,0,1,0,2.51-3.11Z"></path><path d="M56,36.47A2,2,0,0,0,54.72,36H50a2,2,0,1,0,0,4h4l6.72,5.54a2,2,0,1,0,2.54-3.09Z"></path><path d="M43.46,46.74a2,2,0,0,0,3.08,2.55A3.89,3.89,0,0,1,49,48a2,2,0,0,0,1.72-1,9.55,9.55,0,0,1,1.47.16,2,2,0,1,0,3.66,1.6,7.68,7.68,0,0,1,2.32,3,2,2,0,0,0,3.66-1.6A12.2,12.2,0,0,0,50.24,43c-1.9-.4-2.26-1.36-2.29-1.47v0l-.09-.17a2,2,0,0,0-3.81,1h0l0,.07a1.93,1.93,0,0,0,0,.22,2,2,0,0,0,.12.35,8.89,8.89,0,0,0,1.23,2A8.38,8.38,0,0,0,43.46,46.74Z"></path><path d="M54.59,61.6a2,2,0,0,0,0,2.83l2,2a2,2,0,0,0,2.83-2.83l-2-2A2,2,0,0,0,54.59,61.6Z"></path><path d="M65,70a2,2,0,1,0,0-4H63a2,2,0,1,0,0,4Z"></path><path d="M57,75.5a4.47,4.47,0,0,1,2.06.87A2,2,0,0,0,63,75.65c-.41-2.25-2.62-3.32-4.08-3.79C57.41,69,52.45,69,51.38,69a7.06,7.06,0,0,1-2.84-2.25,2,2,0,0,0-3.09,2.54A14,14,0,0,0,48,71.7a10.74,10.74,0,0,0,2.88,6.94A8.78,8.78,0,0,0,57.26,81l.86,0a2,2,0,1,0-.25-4,5.23,5.23,0,0,1-4.17-1.2A5.66,5.66,0,0,1,52.24,73a6.67,6.67,0,0,1,3.08.73A2,2,0,0,0,57,75.5Z"></path><path d="M84.23,112A10.79,10.79,0,0,0,87,104.46a13.92,13.92,0,0,0-6-11.35c-6.2-4-14.75-4.13-26.13-.34a16.76,16.76,0,0,1-.77-2.88l.46-.1c9.59-2.36,19-10.65,23.73-15.38a16.87,16.87,0,0,0,4-7.91l.61-3.55c8-4.39,9.85-11.84,10.08-17.15a8,8,0,0,0,5.16-5.08c1.42-3.59,1.13-8.09-.66-10.46-3.72-4.92-10.3-4.29-13.47-4-4.74.45-8.22-.28-10.06-2.1a5.4,5.4,0,0,1-1.56-4c0-.06,0-.11,0-.17.2-7.77-3.89-11.34-4.06-11.49a2,2,0,0,0-2.79.22,2,2,0,0,0,.18,2.81c.11.1,2.81,2.59,2.68,8.31A9.51,9.51,0,0,0,71,26.93c2.75,2.78,7.23,3.9,13.33,3.32,4.51-.43,7.93-.18,9.9,2.43.85,1.12,1.08,4.17.13,6.58a5.22,5.22,0,0,1-1.45,2.13,8.8,8.8,0,0,0-3.6-6.46c-4.37-3.07-10.91-1.38-11.2-1.31-4.45,1.21-7.82,1.14-9.73-.22a4.18,4.18,0,0,1-1.7-2.8c.72-9.65-4.2-13.91-4.41-14.09a2,2,0,1,0-2.58,3.06s3.6,3.26,3,10.87a2,2,0,0,0,0,.24A8.18,8.18,0,0,0,66,36.57c3,2.17,7.4,2.47,13.19.9.05,0,5-1.26,7.86.72a4.31,4.31,0,0,1,1.53,2,2.11,2.11,0,0,0,0,.24c0,.1,1.84,8-2.48,14.32-3.81-4.73-6.94-5.63-7.32-5.73A2,2,0,0,0,78.3,49H74a2,2,0,1,0,0,4h4c.59.24,2.72,1.31,5.39,4.77a15.61,15.61,0,0,1-1.48,1.08,11.22,11.22,0,0,0-11.45-3.47,2,2,0,0,0,1.11,3.84h0a2,2,0,0,0,4,0A6.49,6.49,0,0,1,79,61.68l-.71,4.14a12.87,12.87,0,0,1-2.88,5.76C71,76,62.21,83.78,53.53,85.92c-.4.1-10,2.19-16.62-18.67a2,2,0,0,0-3.81,1.21C38.16,84.4,45.36,88.72,50,89.73c.24,1.88,1.39,8.17,6,10.74a2,2,0,1,0,2-3.49,4.84,4.84,0,0,1-.95-.71c9.7-3.1,16.85-3,21.81.18a10,10,0,0,1,4.23,8,6.73,6.73,0,0,1-2.6,5.59,36,36,0,0,0-6-2,2,2,0,0,0-.87,3.9,34.43,34.43,0,0,1,12.35,6,11.26,11.26,0,0,0-6.07,1.54,10,10,0,0,0-3.48,3.61A27.62,27.62,0,0,0,65.8,120c-9.42-9.15-18.68-8-19.08-7.89a2,2,0,0,0,.56,4c.28,0,5.89-.67,12.53,4.12a26.11,26.11,0,0,0-11,4.25,2,2,0,0,0,2.43,3.17,22,22,0,0,1,13.12-3.71,1.86,1.86,0,0,0,1.09.07,24.55,24.55,0,0,1,10.83,3.75,2,2,0,0,0,3-1.26A6.18,6.18,0,0,1,81.92,123c1.85-1.12,4.4-1.27,7.57-.43a2,2,0,0,0,.66.05,16.26,16.26,0,0,1,1.95,4,2,2,0,1,0,3.81-1.22C93.82,118.9,88.86,114.66,84.23,112Z"></path><path d="M58,108a2,2,0,0,0,1-.27A33.5,33.5,0,0,1,70.23,104a2,2,0,1,0-.47-4A37.05,37.05,0,0,0,57,104.27,2,2,0,0,0,58,108Z"></path><path d="M22.87,124.35a2,2,0,0,0,2.26,3.3c.05,0,5.38-3.61,9.59-.11a2,2,0,0,0,2.55-3.08C32.07,120.14,25.58,122.5,22.87,124.35Z"></path><path d="M26,54.52c-.27,3.83,2.17,7.18,5.45,7.47l.45,0c3.13,0,5.79-2.86,6.06-6.51a7,7,0,0,0-4-7.11,11.49,11.49,0,0,1,3.35-7.87,9.07,9.07,0,0,0,2.9-2.08A16.91,16.91,0,0,0,43.3,32.8l.07-.18c.91-2.39,2.56-5.11,5.21-4.52a2,2,0,1,0,.86-3.91,7.08,7.08,0,0,0-6.8,2.1c-8.94-1.51-12.79,4-13.57,7.25a2,2,0,1,0,3.89.94c.05-.21,1.22-4.65,7.18-4.45-.17.37-.34.75-.49,1.16l-.07.18a13.74,13.74,0,0,1-2.26,4.35c-1.15,1.24-3,1.88-5.38,1.88-4.38,0-8.47,2.68-9.72,6.38a28.43,28.43,0,0,0-.8,3.12c-.07.31-.12.62-.17.91a5.12,5.12,0,0,1-.52,1.77c-.29.5-.61.95-.95,1.43a8.48,8.48,0,0,0-2.05,5.86,16.22,16.22,0,0,0,.58,3.06,6.92,6.92,0,0,1,.34,3.5A11,11,0,0,1,18.1,65a8.71,8.71,0,0,0-1,3.8,7.19,7.19,0,0,0,.79,2.8c.62,1.38.82,1.85-.34,3.06a2,2,0,0,0,2.89,2.76c3-3.16,1.81-5.85,1.1-7.45a4.47,4.47,0,0,1-.45-1.28,5.72,5.72,0,0,1,.66-2.08,14.1,14.1,0,0,0,.72-1.88,10.27,10.27,0,0,0-.32-5.58,13.06,13.06,0,0,1-.46-2.32c-.08-1.25.37-2,1.33-3.3.35-.5.75-1.07,1.13-1.72a8.69,8.69,0,0,0,1-3.1c0-.25.09-.5.15-.77A24.89,24.89,0,0,1,26,45.25a6.19,6.19,0,0,1,5.7-3.64A14.36,14.36,0,0,0,30,48.46,7.08,7.08,0,0,0,26,54.52ZM31.92,58h-.11c-1-.08-1.93-1.42-1.8-3.2S31.17,52,32.07,52h.11c1,.08,1.93,1.41,1.8,3.2S32.82,58,31.92,58Z"></path></svg>