<svg height='100px' width='100px'  fill="#000000" xmlns="http://www.w3.org/2000/svg" xmlns:xlink="http://www.w3.org/1999/xlink" version="1.1" x="0px" y="0px" viewBox="0 0 100 100" style="enable-background:new 0 0 100 100;" xml:space="preserve"><path d="M62,14.2c-0.1-0.3-0.4-0.6-0.7-0.7l-20-8.4c-0.6-0.3-1.4,0-1.6,0.7l-2.1,5C35.8,9.6,33.9,9,31.8,9c-5.5,0-10,4.5-10,10v5.7  l-2.7,0c0,0,0,0,0,0c-0.3,0-0.6,0.1-0.9,0.4c-0.2,0.2-0.4,0.6-0.4,0.9v67.9c0,0.7,0.6,1.3,1.3,1.3h52c0.5,0,1-0.3,1.2-0.8l3.9-3.8  l3.9,2.9c0.4,0.3,0.9,0.3,1.3,0.1c0.4-0.2,0.7-0.6,0.7-1.1V31c0-0.5-0.3-0.9-0.7-1.1l-4.2-2.2V18c0-0.7-0.6-1.3-1.3-1.3H61.3  l0.7-1.5C62.1,14.9,62.1,14.5,62,14.2z M31.8,11.5c2,0,3.9,0.8,5.3,2.2c1.4,1.4,2.1,3.3,2.1,5.2v5.5h-6.6h-8.3v-3h8.1v-2.5h-8.1  C24.4,14.8,27.7,11.5,31.8,11.5z M20.4,27.2l49.5,0v65.4H20.4V27.2z M79.6,89.9l-2.7-2c-0.5-0.4-1.2-0.3-1.6,0.1l-2.9,2.7V28  l7.2,3.7V89.9z M74.8,26.4l-3-1.6c0,0,0,0-0.1,0c0,0-0.1,0-0.1,0c-0.1,0-0.1,0-0.2-0.1c0,0-0.1,0-0.1,0c-0.1,0-0.1,0-0.2,0  l-16.3-0.1v-5.4h4.5h15.4V26.4z M53.6,16.7c-0.7,0-1.3,0.6-1.3,1.3v6.6l-10.6-0.1V19c0-0.3,0-0.6,0-0.9c0-0.1,0-0.2,0-0.3  c0-0.2-0.1-0.4-0.1-0.6c0-0.1-0.1-0.2-0.1-0.4c0-0.2-0.1-0.4-0.1-0.5c0-0.1-0.1-0.2-0.1-0.4c-0.1-0.2-0.1-0.3-0.2-0.5  c0-0.1-0.1-0.2-0.1-0.4c-0.1-0.2-0.1-0.3-0.2-0.5c-0.1-0.1-0.1-0.2-0.2-0.3c-0.1-0.2-0.2-0.3-0.3-0.5c-0.1-0.1-0.1-0.2-0.2-0.3  c-0.1-0.2-0.2-0.3-0.3-0.5c-0.1-0.1-0.1-0.2-0.2-0.3c0,0,0,0,0,0l2-4.7l17.7,7.4l-0.6,1.4H53.6z"></path><path d="M53.8,43v-9.4h-2.5V43c0,4.2-3.4,7.5-7.5,7.5s-7.5-3.4-7.5-7.5v-9.4h-2.5V43c0,5.5,4.5,10,10,10C49.3,53,53.8,48.5,53.8,43z  "></path><rect x="44.3" y="80.7" width="16.8" height="2.5"></rect></svg>