<svg height='100px' width='100px'  fill="#000000" xmlns="http://www.w3.org/2000/svg" viewBox="0 0 59.28 44.95" x="0px" y="0px"><title>Assets 5</title><g data-name="Layer 2"><g data-name="Layer 3"><path d="M29.77,0H28.28a.41.41,0,0,0-.41.41v8H18.47c-3.77,0-7.23,3.6-8.05,8.37l-.48,2.8H7.58A7.59,7.59,0,0,0,0,27.15v5.08a7.59,7.59,0,0,0,7.58,7.58h.11v3.55A1.6,1.6,0,0,0,9.29,45h3.57a1.6,1.6,0,0,0,1.59-1.59V39.81H27.86v4.73a.41.41,0,0,0,.41.41h1.49a.41.41,0,0,0,.41-.41V.41A.41.41,0,0,0,29.77,0ZM13.37,17.28c.56-3.24,2.85-5.88,5.1-5.88h9.39v8.16H13ZM7.58,36.81A4.59,4.59,0,0,1,3,32.23V27.15a4.59,4.59,0,0,1,4.58-4.58H27.86V36.81Z"></path><circle cx="11.07" cy="29.47" r="3.1"></circle><g><path d="M47.68,18.59A8.7,8.7,0,1,1,39,27.3a8.71,8.71,0,0,1,8.7-8.7m0-2.9a11.6,11.6,0,1,0,11.6,11.6,11.6,11.6,0,0,0-11.6-11.6Zm2.9,16a1.45,1.45,0,0,0,1-2.47L49.13,26.7v-5.2a1.45,1.45,0,0,0-2.9,0v5.8h0a1.43,1.43,0,0,0,.43,1l2.9,2.9a1.43,1.43,0,0,0,1,.43Z"></path></g></g></g></svg>