<?xml version="1.0" encoding="utf-8"?>
<!-- Generator: Adobe Illustrator 24.2.1, SVG Export Plug-In . SVG Version: 6.00 Build 0)  -->
<svg version="1.1" id="Layer_1" xmlns="http://www.w3.org/2000/svg" xmlns:xlink="http://www.w3.org/1999/xlink" x="0px" y="0px"
	 viewBox="0 0 100 100" enable-background="new 0 0 100 100" xml:space="preserve">
<g>
	<g>
		<path d="M72.882,80.287H31.087c-4.378,0-8.305-2.931-9.553-7.126L17.21,58.614c-0.173-0.581-0.06-1.21,0.302-1.698
			c0.364-0.486,0.935-0.773,1.542-0.773h65.86c0.607,0,1.178,0.286,1.542,0.773c0.362,0.487,0.475,1.116,0.302,1.698L82.435,73.16
			C81.186,77.357,77.259,80.287,72.882,80.287z M21.633,59.99l3.589,12.076c0.764,2.576,3.178,4.376,5.865,4.376h41.795
			c2.687,0,5.101-1.8,5.865-4.377l3.589-12.075H21.633z"/>
	</g>
	<g>
		<g>
			<path d="M43.671,48.791H24.626c-0.513,0-1.005-0.205-1.365-0.568c-0.361-0.364-0.562-0.857-0.558-1.369
				c0.143-19.198,21.244-32.572,22.142-33.132c0.717-0.447,1.639-0.374,2.28,0.18c0.637,0.554,0.838,1.459,0.496,2.231
				c-6.622,14.93-2.156,30.024-2.109,30.175c0.177,0.582,0.068,1.215-0.295,1.704C44.854,48.502,44.28,48.791,43.671,48.791z
				 M26.649,44.944H41.22c-0.913-4.349-2.216-13.834,0.691-24.249C36.255,25.401,27.669,34.208,26.649,44.944z"/>
		</g>
		<g>
			<path d="M54.817,46.14c-0.43,0-0.853-0.145-1.196-0.418c-0.46-0.364-0.727-0.919-0.727-1.505V7.36c0-0.82,0.52-1.549,1.294-1.817
				c0.772-0.27,1.632-0.016,2.141,0.628l24.525,31.181c0.408,0.517,0.52,1.207,0.302,1.827c-0.218,0.621-0.74,1.086-1.38,1.235
				L55.251,46.09C55.106,46.124,54.962,46.14,54.817,46.14z M56.74,12.916v28.882l19.218-4.447L56.74,12.916z"/>
		</g>
		<g>
			<path d="M54.817,59.99c-1.063,0-1.923-0.861-1.923-1.923V29.059c0-1.062,0.86-1.923,1.923-1.923s1.923,0.861,1.923,1.923v29.008
				C56.74,59.129,55.88,59.99,54.817,59.99z"/>
		</g>
	</g>
	<g>
		<path d="M83.278,94.564c-1.47,0-2.943-0.48-4.169-1.439l-2.348-1.831c-0.943-0.738-2.663-0.738-3.606,0l-2.348,1.832
			c-2.453,1.916-5.886,1.917-8.338-0.001l-2.348-1.831c-0.943-0.738-2.663-0.738-3.606,0l-2.348,1.832
			c-2.453,1.916-5.886,1.917-8.338-0.001l-2.348-1.831c-0.943-0.738-2.663-0.737-3.606-0.001l-2.348,1.833
			c-2.453,1.916-5.886,1.917-8.338-0.001l-2.348-1.831c-0.945-0.74-2.665-0.737-3.606-0.001l-2.348,1.833
			c-2.453,1.916-5.886,1.917-8.338-0.001l-2.701-2.108c-0.639-0.496-2.265-0.496-2.9,0c-0.839,0.654-2.047,0.503-2.699-0.332
			C3.6,89.848,3.748,88.64,4.586,87.986c2.032-1.586,5.596-1.587,7.632-0.001l2.701,2.109c1.078,0.841,2.528,0.841,3.606,0
			l2.348-1.833c2.334-1.823,5.996-1.824,8.338,0l2.348,1.832c1.078,0.843,2.528,0.842,3.606,0.001l2.348-1.833
			c2.336-1.824,6.002-1.824,8.338,0.001l2.348,1.831c1.078,0.843,2.528,0.842,3.606,0.001l2.348-1.833
			c2.34-1.825,6.002-1.824,8.338,0.001l2.348,1.831c1.078,0.843,2.528,0.842,3.606,0.001l2.348-1.833
			c2.34-1.825,6.002-1.824,8.338,0.001l2.348,1.831c1.078,0.843,2.528,0.842,3.606,0.001l2.702-2.109
			c2.034-1.586,5.6-1.585,7.63,0.001c0.838,0.654,0.986,1.862,0.332,2.699c-0.654,0.836-1.861,0.989-2.699,0.332
			c-0.639-0.495-2.259-0.497-2.898,0l-2.702,2.109C86.221,94.084,84.749,94.564,83.278,94.564z"/>
	</g>
</g>
</svg>
