<?xml version="1.0" encoding="utf-8"?>
<!-- Generator: Adobe Illustrator 24.2.1, SVG Export Plug-In . SVG Version: 6.00 Build 0)  -->
<svg version="1.1" id="Layer_1" xmlns="http://www.w3.org/2000/svg" xmlns:xlink="http://www.w3.org/1999/xlink" x="0px" y="0px"
	 viewBox="0 0 100 100" enable-background="new 0 0 100 100" xml:space="preserve">
<g>
	<g>
		<path d="M63.08,39.36c0.07-0.74,0.12-1.49,0.12-2.26c0-13.63-11.09-24.72-24.72-24.72s-24.73,11.1-24.73,24.73
			c0,13.49,10.87,24.49,24.3,24.71c-0.09,0.86-0.14,1.74-0.14,2.63c0,13.83,11.25,25.08,25.08,25.08s25.08-11.25,25.08-25.08
			C88.09,50.64,76.88,39.41,63.08,39.36z M15.75,37.11c0-12.53,10.19-22.72,22.72-22.72S61.2,24.58,61.2,37.11
			c0,0.8-0.05,1.58-0.14,2.34c-1.38,0.11-2.73,0.32-4.04,0.64c0.16-0.99,0.25-1.99,0.25-2.98c0-10.36-8.43-18.79-18.79-18.79
			s-18.79,8.43-18.79,18.79S28.11,55.9,38.48,55.9c0.33,0,0.64-0.02,0.96-0.03c-0.47,1.27-0.82,2.6-1.08,3.96
			C25.88,59.76,15.75,49.6,15.75,37.11z M40.3,53.79c-0.59,0.07-1.19,0.11-1.83,0.11c-9.26,0-16.79-7.53-16.79-16.79
			s7.53-16.79,16.79-16.79s16.79,7.53,16.79,16.79c0,1.21-0.14,2.42-0.4,3.61C48.44,42.93,43.18,47.69,40.3,53.79z M63,87.53
			c-12.73,0-23.08-10.36-23.08-23.08S50.28,41.36,63,41.36s23.08,10.36,23.08,23.08S75.73,87.53,63,87.53z"/>
		<path d="M63,45.38c-10.51,0-19.06,8.55-19.06,19.06S52.49,83.51,63,83.51s19.06-8.55,19.06-19.06S73.52,45.38,63,45.38z M63,81.51
			c-9.41,0-17.06-7.65-17.06-17.06S53.59,47.39,63,47.39s17.06,7.65,17.06,17.06C80.07,73.85,72.41,81.51,63,81.51z"/>
		<path d="M68.08,63.75c-0.54-0.49-1.15-0.87-1.84-1.13c-0.68-0.26-1.6-0.55-2.76-0.87v-5.81c1.17,0.38,1.91,1.15,2.22,2.32
			c0.27,0.99,0.86,1.48,1.77,1.48c0.48,0,0.9-0.17,1.24-0.51s0.51-0.74,0.51-1.21c0-0.42-0.11-0.88-0.34-1.38
			c-0.23-0.5-0.55-0.99-0.97-1.47c-0.53-0.62-1.15-1.09-1.86-1.4s-1.57-0.51-2.56-0.61v-1.51c0-0.76-0.3-1.15-0.89-1.15
			s-0.88,0.39-0.88,1.17v1.48c-1.93,0.17-3.4,0.76-4.42,1.79c-1.02,1.02-1.53,2.34-1.53,3.94c0,1.23,0.26,2.23,0.78,3.02
			c0.52,0.78,1.2,1.39,2.04,1.81s1.88,0.81,3.13,1.15v6.49c-0.62-0.18-1.12-0.43-1.5-0.77s-0.66-0.71-0.84-1.11
			c-0.19-0.4-0.41-0.99-0.66-1.75c-0.11-0.35-0.31-0.63-0.6-0.82c-0.29-0.2-0.64-0.29-1.06-0.29c-0.52,0-0.96,0.18-1.31,0.54
			c-0.35,0.36-0.52,0.76-0.52,1.21c0,0.61,0.13,1.22,0.39,1.85s0.66,1.23,1.21,1.82c0.54,0.58,1.22,1.07,2.04,1.46
			c0.81,0.39,1.77,0.65,2.86,0.77v3.77c0,0.43,0.07,0.74,0.2,0.95c0.14,0.2,0.37,0.31,0.71,0.31c0.36,0,0.6-0.13,0.71-0.38
			s0.16-0.65,0.16-1.2v-3.48c1.33-0.11,2.48-0.46,3.45-1.05c0.97-0.59,1.7-1.34,2.2-2.27s0.75-1.92,0.75-2.98
			c0-0.85-0.16-1.63-0.47-2.34C69.1,64.88,68.66,64.27,68.08,63.75z M61.71,61.24c-0.84-0.31-1.46-0.65-1.87-1.03
			c-0.41-0.38-0.61-0.93-0.61-1.67c0-0.77,0.22-1.35,0.66-1.73s1.05-0.69,1.83-0.92v5.35H61.71z M65.67,70.37
			c-0.51,0.57-1.24,0.95-2.18,1.13v-6.12c0.97,0.31,1.7,0.68,2.2,1.12s0.75,1.07,0.75,1.88C66.43,69.14,66.18,69.81,65.67,70.37z"/>
		<path d="M45.88,40.51c-0.31-0.32-0.74-0.47-1.29-0.47c-0.28,0-0.53,0.09-0.77,0.28s-0.52,0.67-0.85,1.44
			c-0.51,1.18-1.05,1.94-1.6,2.26s-1.17,0.48-1.84,0.48c-1.79,0-2.84-1.65-3.16-4.94h4.03c0.13,0,0.28-0.17,0.45-0.5
			c0.17-0.33,0.25-0.63,0.25-0.9c0-0.23-0.09-0.34-0.28-0.34h-4.54c-0.02-0.18-0.03-0.48-0.03-0.89l0.03-1.35h4.11
			c0.13,0,0.28-0.17,0.45-0.5c0.17-0.33,0.25-0.63,0.25-0.89c0-0.24-0.09-0.36-0.28-0.36H36.4c0.16-1.5,0.51-2.61,1.05-3.32
			c0.55-0.71,1.32-1.06,2.33-1.06c0.88,0,1.5,0.17,1.87,0.52c0.37,0.34,0.68,0.84,0.95,1.49c0.21,0.5,0.42,0.86,0.64,1.1
			c0.22,0.24,0.56,0.36,1.03,0.36c0.42,0,0.78-0.16,1.07-0.47s0.44-0.69,0.44-1.14c0-1.32-0.62-2.43-1.87-3.32s-2.73-1.33-4.46-1.33
			c-3.92,0-6.17,2.39-6.77,7.17H31.3c-0.12,0-0.27,0.17-0.44,0.52c-0.17,0.35-0.26,0.64-0.26,0.88c0,0.23,0.08,0.34,0.25,0.34h1.69
			c-0.04,0.76-0.05,1.34-0.05,1.75v0.5h-1.18c-0.12,0-0.27,0.17-0.44,0.52c-0.17,0.35-0.26,0.64-0.26,0.87
			c0,0.24,0.08,0.36,0.25,0.36h1.75c0.26,2.6,1.04,4.53,2.35,5.81c1.31,1.28,2.85,1.92,4.61,1.92c1.88,0,3.48-0.57,4.8-1.71
			s1.98-2.39,1.98-3.73C46.35,41.27,46.19,40.82,45.88,40.51z"/>
		<path d="M47.19,86.2c-2.03-1.39-3.87-3.09-5.47-5.04c-0.23-0.28-0.61-0.42-0.97-0.35c-0.86,0.17-1.76,0.26-2.67,0.26
			c-5.92,0-11.14-3.6-13.26-9.04h2.68c0.36,0,0.69-0.19,0.87-0.5s0.18-0.69,0-1L20.85,57.5c-0.18-0.31-0.51-0.5-0.87-0.5
			s-0.69,0.19-0.87,0.5l-3.67,6.34c-0.02,0.03-0.03,0.05-0.04,0.08l-3.82,6.61c-0.18,0.31-0.18,0.69,0,1s0.51,0.5,0.87,0.5h3.31
			c2.39,10.32,11.64,17.72,22.32,17.72c3.1,0,6.1-0.61,8.93-1.81c0.34-0.14,0.57-0.46,0.61-0.82C47.66,86.76,47.49,86.41,47.19,86.2
			z M38.08,87.75c-10,0-18.63-7.11-20.53-16.91c-0.09-0.47-0.5-0.81-0.98-0.81h-2.38l2.99-5.18c0.01-0.02,0.03-0.05,0.04-0.08
			L19.98,60l5.79,10.03h-2.33c-0.31,0-0.59,0.14-0.78,0.38s-0.26,0.55-0.19,0.85c0.03,0.12,0.06,0.24,0.1,0.36l0.04,0.14
			c2.16,6.76,8.38,11.31,15.47,11.31c0.84,0,1.67-0.06,2.47-0.19c1.21,1.42,2.55,2.71,4,3.85C42.47,87.41,40.3,87.75,38.08,87.75z"
			/>
		<path d="M88.41,28.47c-0.18-0.31-0.51-0.5-0.87-0.5h-3.31c-2.39-10.32-11.64-17.72-22.32-17.72c-3.1,0-6.1,0.61-8.93,1.81
			c-0.34,0.14-0.57,0.46-0.61,0.82s0.13,0.72,0.43,0.92c2.03,1.39,3.87,3.09,5.47,5.04c0.23,0.29,0.61,0.42,0.97,0.35
			c0.86-0.17,1.76-0.26,2.67-0.26c5.92,0,11.14,3.6,13.26,9.04H72.5c-0.36,0-0.69,0.19-0.87,0.5s-0.18,0.69,0,1l7.52,13.03
			c0.18,0.31,0.51,0.5,0.87,0.5s0.69-0.19,0.87-0.5l3.67-6.34c0.02-0.03,0.03-0.05,0.04-0.08l3.82-6.61
			C88.59,29.16,88.59,28.78,88.41,28.47z M82.82,35.15c-0.01,0.02-0.03,0.05-0.04,0.08L80.02,40l-5.79-10.03h2.33
			c0.31,0,0.59-0.14,0.78-0.38s0.26-0.55,0.19-0.85c-0.03-0.12-0.06-0.24-0.1-0.36l-0.04-0.14c-2.16-6.76-8.38-11.31-15.47-11.31
			c-0.84,0-1.67,0.06-2.47,0.19c-1.21-1.42-2.55-2.71-4-3.85c2.08-0.68,4.25-1.02,6.46-1.02c10,0,18.63,7.11,20.53,16.91
			c0.09,0.47,0.5,0.81,0.98,0.81h2.38L82.82,35.15z"/>
	</g>
</g>
</svg>
