<svg height='100px' width='100px'  fill="#000000" xmlns="http://www.w3.org/2000/svg" xmlns:xlink="http://www.w3.org/1999/xlink" version="1.1" x="0px" y="0px" viewBox="0 0 100 100" enable-background="new 0 0 100 100" xml:space="preserve"><path d="M80.869,36.185C73.953,28.405,67.908,21.608,79.3,7.94c-0.544,9.711,3.543,15.25,7.207,20.215  c4.347,5.891,8.185,11.094,3.152,22.811C88.723,45.017,84.616,40.397,80.869,36.185z M41.481,44.998  c5.767,2.403,11.789,5.407,17.781,8.897c2.042,1.188,4.026,2.414,5.967,3.658c-1.492,1.332-3.73,2.072-6.431,2.072  c-2.819,0-5.922-0.838-8.737-2.359C44.406,54.209,41.016,49.127,41.481,44.998z M15.571,57.305  C9.36,50.464,6.718,44.552,8.502,41.487c1.784-3.063,8.229-3.684,17.245-1.658c0.108,0.023,0.22,0.053,0.328,0.078  c-2.567,4.842-5.772,12.77-5.781,22.148C18.582,60.462,16.996,58.874,15.571,57.305z M23.384,64.813  c-0.753-10.376,2.982-19.237,5.685-24.15c3.053,0.837,6.267,1.912,9.586,3.199c-0.543,2.805,0.215,5.922,2.037,8.813  c-2.402,6.519-3.989,14.436-3.389,22.488C32.182,71.821,27.481,68.323,23.384,64.813z M44.347,79.513  c-1.3-0.758-2.576-1.528-3.836-2.309c-0.988-7.59,0.288-15.295,2.394-21.695c1.562,1.669,3.485,3.184,5.73,4.396  c2.774,1.499,5.703,2.395,8.564,2.643c-2.316,6.229-3.694,14.11-3.065,22.212C50.888,83.161,47.612,81.413,44.347,79.513z   M66.611,90.144c-3.007-1.103-6.044-2.36-9.331-3.883c-0.995-8.656,0.571-17.314,3.14-23.715c3.072-0.299,5.607-1.471,7.349-3.326  c4.188,2.805,8.103,5.955,11.625,9.047c-3.688,0.811-7.57,4.043-10.28,8.7C66.365,81.688,65.555,86.611,66.611,90.144z   M82.291,84.644c-2.542,4.367-6.431,7.416-9.456,7.416c-0.639,0-1.21-0.145-1.7-0.43c-2.868-1.67-2.606-7.694,0.571-13.154  c2.541-4.365,6.43-7.416,9.457-7.416c0.639,0,1.211,0.145,1.7,0.43c0.152,0.089,0.292,0.196,0.427,0.309  c0.061,0.058,0.124,0.115,0.185,0.173C85.664,74.112,85.219,79.613,82.291,84.644z"></path></svg>