<svg height='100px' width='100px'  fill="#000000" xmlns="http://www.w3.org/2000/svg" xmlns:xlink="http://www.w3.org/1999/xlink" version="1.1" x="0px" y="0px" viewBox="0 0 100 100" enable-background="new 0 0 100 100" xml:space="preserve"><path fill-rule="evenodd" clip-rule="evenodd" d="M90.483,34.11c-0.585-0.373-1.191-0.697-1.816-0.977  c-0.002-0.018-0.003-0.037-0.004-0.056c-1.034-10.07-16.889-8.521-22.058-8.263c-2.805,0.14-9.584-3.153-16.965-3.165  c-6.211-0.01-13.151,3.283-15.511,3.165c-5.124-0.256-20.742-1.778-22.025,8.001c-0.899,0.343-1.765,0.769-2.587,1.295  c-11.719,7.488,5.17,22.206,12.753,25.562c0.758,0.473,1.515,0.874,2.269,1.207v-0.234h0V78.35l51.653,0V60.646h-0.226  c0.587-0.282,1.175-0.606,1.763-0.973C85.313,56.316,102.201,41.598,90.483,34.11z M13.031,36.693  c1.188-8.316,5.641,13.448,17.926,23.953C22.839,55.722,11.842,45.01,13.031,36.693z M29.908,28.81  c10.186-2.175,0.297,11.961,9.802,31.836C35.198,54.906,19.722,30.985,29.908,28.81z M50.253,60.646c0-9.374-10.038-34.826,0-34.826  C60.291,25.82,50.253,51.272,50.253,60.646z M70.092,28.81c10.185,2.175-5.29,26.096-9.802,31.836  C69.796,40.771,59.907,26.636,70.092,28.81z M69.069,60.646c12.287-10.505,16.739-32.269,17.927-23.952  C88.184,45.01,77.186,55.722,69.069,60.646z"></path></svg>