<svg height='100px' width='100px'  fill="#000000" xmlns="http://www.w3.org/2000/svg" data-name="Layer 3" viewBox="0 0 64 64" x="0px" y="0px"><title>architecture and city-studying-bookstore-education-reading-library</title><path d="M62,57H61V16a1,1,0,0,0-1-1H46.949a14.981,14.981,0,0,0-29.9,0H4a1,1,0,0,0-1,1V57H2a1,1,0,0,0-1,1v4a1,1,0,0,0,1,1H62a1,1,0,0,0,1-1V58A1,1,0,0,0,62,57ZM41,57V53H59v4ZM32,31a15.007,15.007,0,0,0,13.256-8H59V51H41V36a1,1,0,0,0-1-1H24a1,1,0,0,0-1,1V51H5V23H18.744A15.007,15.007,0,0,0,32,31ZM25,49h2v2H25Zm0,4h3a1,1,0,0,0,1-1V48a1,1,0,0,0-1-1H25V37H39V57H25ZM59,21H46.125a14.86,14.86,0,0,0,.824-4H59ZM32,3A13,13,0,1,1,19,16,13.015,13.015,0,0,1,32,3ZM17.051,17a14.86,14.86,0,0,0,.824,4H5V17ZM5,53H23v4H5Zm56,8H3V59H61Z"></path><path d="M23.757,20.97l8,2a1,1,0,0,0,.486,0l8-2A1,1,0,0,0,41,20V10a1,1,0,0,0-1.243-.97L32,10.969,24.243,9.03A1,1,0,0,0,23,10V20A1,1,0,0,0,23.757,20.97ZM39,19.219l-6,1.5V12.781l6-1.5ZM25,11.281l6,1.5v7.938l-6-1.5Z"></path><path d="M8,49H20a1,1,0,0,0,1-1V28a1,1,0,0,0-1-1H8a1,1,0,0,0-1,1V48A1,1,0,0,0,8,49Zm1-6h2v4H9Zm6-6H13V33h2Zm-4,0H9V33h2Zm8,2v3H17a1,1,0,0,0-1-1H9V39Zm-4,4v4H13V43Zm2,4V44h2v3Zm2-18v8H17V32a1,1,0,0,0-1-1H9V29Z"></path><path d="M44,49H56a1,1,0,0,0,1-1V28a1,1,0,0,0-1-1H44a1,1,0,0,0-1,1V48A1,1,0,0,0,44,49Zm1-5h2v3H45ZM55,33v4H53V33Zm-4,4H49V33h2Zm4,2v2H48a1,1,0,0,0-1,1H45V39Zm-4,4v4H49V43Zm2,4V43h2v4Zm2-18v2H48a1,1,0,0,0-1,1v5H45V29Z"></path><path d="M36,39H28a1,1,0,0,0-1,1v4a1,1,0,0,0,1,1h8a1,1,0,0,0,1-1V40A1,1,0,0,0,36,39Zm-1,4H29V41h6Z"></path></svg>