<svg height='100px' width='100px'  fill="#1A1A1A" xmlns:x="http://ns.adobe.com/Extensibility/1.0/" xmlns:i="http://ns.adobe.com/AdobeIllustrator/10.0/" xmlns:graph="http://ns.adobe.com/Graphs/1.0/" xmlns="http://www.w3.org/2000/svg" xmlns:xlink="http://www.w3.org/1999/xlink" version="1.1" x="0px" y="0px" viewBox="-949 951 100 100" style="enable-background:new -949 951 100 100;" xml:space="preserve"><g><g i:extraneous="self"><g><path d="M-916.4,990.5l8.7,13.5l6.1-7l-9.1-10.7c3.9-5.7,2.9-15.1-2.9-22.8c-6.8-9.1-17.7-12.6-24.3-7.7     c-6.6,4.9-6.4,16.3,0.4,25.4C-931.6,989-922.9,992.6-916.4,990.5z"></path><path d="M-890.5,1010.1l-6.6,10.3l16,24.7c2.3,3.6,7.2,4.5,10.7,1.9l0.6-0.5c3.4-2.6,4-7.5,1.2-10.8L-890.5,1010.1z"></path><path d="M-855.9,964.2c-0.9-1.1-2.6-1-3.4,0.1c0,0-11.4,14.6-14.6,18.7c-0.5,0.6-1.4,0.7-2,0.3c0,0,0,0,0,0     c-0.6-0.5-0.8-1.3-0.3-2l13.7-19.3c0.6-0.8,0.6-2-0.1-2.8c-0.9-1.1-2.6-1-3.4,0.1c0,0-11.4,14.6-14.6,18.7     c-0.5,0.6-1.4,0.7-2,0.3l0,0c-0.6-0.5-0.8-1.3-0.3-2c3.1-4.3,13.8-19.4,13.8-19.4c0.8-1.1,0.4-2.7-0.9-3.3     c-0.9-0.4-2-0.1-2.7,0.7l-15.4,19.8c0,0,0,0,0,0l0,0l-2,2.6c-2,2.7-2.9,5.9-2.5,8.7l0.9,5.8l-38.3,44.4     c-2.8,3.3-2.2,8.2,1.2,10.8l0.6,0.5c3.4,2.6,8.3,1.7,10.7-1.9l31.6-49.3l5.9-0.8c2.8-0.4,5.6-2.2,7.7-4.9l2-2.6l0,0l0,0     l14.5-20.4C-855.2,966.2-855.2,965-855.9,964.2z"></path></g></g></g></svg>