<svg height='100px' width='100px'  fill="#000000" xmlns="http://www.w3.org/2000/svg" xmlns:xlink="http://www.w3.org/1999/xlink" version="1.1" x="0px" y="0px" viewBox="0 0 64 64" style="enable-background:new 0 0 64 64;" xml:space="preserve"><g><path d="M40,55h-2c0,1.711-0.309,2-1,2v2C38.991,59,40,57.654,40,55z"></path><path d="M47.126,39.99c0.027-0.005,0.06-0.007,0.085-0.012c0.833-0.181,1.995-0.739,2.795-2.373   c1.751-3.574,0.776-10.197-0.105-12.037c-1.242-2.596-4.532-3.612-8.187-2.527c-1.148,0.341-2.467,1.041-3.715,1.819v-7.142   c2.357-0.928,5.873-3.588,6-8.694c0.032-1.27-0.41-4.187-2.309-6.134C40.467,1.636,38.889,1,37,1c-2.706,0-4.829,1.199-6.329,3.558   c-0.797-0.644-1.727-1.194-2.785-1.475c-1.809-0.48-3.639-0.116-5.44,1.085c-1.273,0.849-2.044,2.211-2.229,3.938   c-0.245,2.289,0.643,5.122,2.065,6.589c1.358,1.401,2.916,2.412,3.718,2.888v7.277c-1.248-0.777-2.567-1.478-3.715-1.819   c-3.655-1.085-6.944-0.069-8.187,2.527c-0.881,1.839-1.856,8.463-0.105,12.037c0.8,1.634,1.962,2.192,2.795,2.373   c0.026,0.005,0.058,0.007,0.085,0.012L11.865,46h5.415l1.387,4.16L26,40.075v6.341c-0.803,0.476-2.36,1.486-3.718,2.888   c-1.422,1.467-2.311,4.3-2.065,6.589c0.185,1.728,0.956,3.089,2.229,3.938c1.288,0.859,2.591,1.29,3.891,1.29   c0.517,0,1.034-0.068,1.549-0.205c1.059-0.281,1.988-0.832,2.785-1.475C32.171,61.801,34.294,63,37,63   c1.889,0,3.467-0.636,4.69-1.891c1.899-1.947,2.341-4.864,2.309-6.134c-0.127-5.105-3.643-7.766-6-8.694v-6.206l7.334,10.084   L46.721,46h5.415L47.126,39.99z M48.211,36.725c-0.365,0.745-0.83,1.169-1.422,1.297c-1.757,0.382-8.161-1.323-11.007-2.954   C35.909,34.732,35.991,34.374,36,34l0-3.975c0.001-0.055-0.011-0.105-0.012-0.159c7.472-1.076,10.747-2.377,12.103-3.446   c0.002,0.004,0.005,0.007,0.007,0.011C48.733,27.759,49.663,33.762,48.211,36.725z M30,34l0-3.975   c0.008-0.303,0.129-0.587,0.333-0.781C30.455,29.128,30.658,28.984,31,29l1.973,0c0.589,0.016,1.041,0.444,1.027,1l0,3.975   c-0.008,0.303-0.129,0.587-0.333,0.781c-0.123,0.116-0.337,0.24-0.641,0.245L33,35l-1.973,0C30.438,34.984,29.986,34.556,30,34z    M42.285,24.958c1.646-0.489,3.196-0.435,4.32,0.075c-0.845,0.556-3.154,1.604-9.147,2.585   C38.98,26.547,40.837,25.388,42.285,24.958z M23.718,13.304c-0.887-0.915-1.717-3.081-1.514-4.985   c0.122-1.134,0.576-1.971,1.35-2.487c1.319-0.88,2.565-1.146,3.811-0.817c2.858,0.754,4.722,4.397,4.741,4.434l1.788-0.896   c-0.047-0.094-0.659-1.29-1.752-2.56C33.846,3.007,36.118,3,37,3c1.329,0,2.426,0.433,3.258,1.287   c1.33,1.363,1.771,3.55,1.742,4.688c-0.139,5.576-5.055,7.002-5.26,7.059L36,16.233V23h-8l-0.001-6.606l-0.537-0.281   C27.441,16.103,25.374,15.012,23.718,13.304z M28,25h8v1.201c-0.607,0.434-1.145,0.841-1.577,1.177   C34.002,27.156,33.525,27.014,33,27l-1.973,0c-0.529-0.023-1.026,0.114-1.469,0.362c-0.429-0.334-0.96-0.734-1.558-1.162L28,25z    M21.715,24.958c1.448,0.43,3.305,1.588,4.827,2.661c-5.992-0.981-8.301-2.029-9.146-2.585   C18.521,24.523,20.071,24.47,21.715,24.958z M15.789,36.725c-1.452-2.963-0.522-8.966,0.113-10.293   c0.002-0.004,0.005-0.007,0.007-0.011c1.357,1.069,4.633,2.371,12.107,3.446C28.013,29.912,28.001,29.955,28,30l0,3.975   c-0.01,0.393,0.061,0.765,0.191,1.108c-2.86,1.627-9.235,3.323-10.98,2.94C16.619,37.895,16.154,37.47,15.789,36.725z M18.721,44   h-2.585l3.399-4.079c1.476-0.203,3.235-0.615,4.944-1.154l-5.144,7.073L18.721,44z M42,55.025c0.028,1.138-0.412,3.325-1.742,4.688   C39.426,60.567,38.329,61,37,61c-0.882,0-3.154-0.007-4.857-2.993c1.093-1.269,1.705-2.466,1.752-2.56l-1.788-0.896   c-0.019,0.037-1.883,3.68-4.741,4.434c-1.246,0.33-2.492,0.062-3.811-0.817c-0.774-0.516-1.229-1.353-1.35-2.487   c-0.204-1.904,0.627-4.07,1.514-4.985c1.655-1.708,3.723-2.798,3.744-2.809L28,47.606V37.42c0.569-0.266,1.087-0.541,1.537-0.82   C29.967,36.835,30.458,36.986,31,37h1.988c0.022,0,0.043,0,0.065,0c0.51,0,0.997-0.141,1.43-0.389   c0.445,0.275,0.956,0.546,1.516,0.808v10.347l0.74,0.199C36.792,47.979,41.86,49.408,42,55.025z M45.279,44l-0.613,1.84   l-5.144-7.073c1.709,0.538,3.469,0.951,4.944,1.154L47.865,44H45.279z"></path></g></svg>