<?xml version="1.0" encoding="utf-8"?>
<!-- Generator: Adobe Illustrator 24.2.1, SVG Export Plug-In . SVG Version: 6.00 Build 0)  -->
<svg version="1.1" id="Layer_1" xmlns="http://www.w3.org/2000/svg" xmlns:xlink="http://www.w3.org/1999/xlink" x="0px" y="0px"
	 viewBox="0 0 100 100" enable-background="new 0 0 100 100" xml:space="preserve">
<path fill-rule="evenodd" clip-rule="evenodd" d="M90.258,27.913c-0.535-0.787-1.089-1.602-1.762-2.334
	c-1.517-1.656-3.027-3.317-4.538-4.979l-2.375-2.612c-0.399-0.438-0.628-0.878-0.72-1.384c-0.14-0.768-0.346-1.634-1.049-2.182
	c-0.754-0.586-1.065-1.409-0.981-2.587c0.132-1.848,0.391-3.353,1.227-4.687l0.09-0.138c0.206-0.297,0.587-0.852,0.19-1.465
	c-0.31-0.482-0.885-0.601-1.519-0.524C78.745,5.03,78.67,5.04,78.596,5.044c-0.505,0.032-0.916,0.26-1.297,0.471
	C76.066,6.2,75.228,7.207,74.81,8.51c-0.438,1.364-0.963,2.396-1.65,3.245c-0.459,0.567-0.912,1.244-0.79,1.965
	c0.123,0.729,0.78,1.227,1.472,1.656c0.561,0.346,0.618,0.48,0.623,0.501c0,0.024-0.024,0.174-0.511,0.671
	c-0.114,0.116-0.23,0.234-0.362,0.326l-0.229,0.158c-1.92,1.333-3.905,2.711-6.043,3.733c-0.309,0.148-0.625,0.286-0.941,0.424
	c-1.109,0.485-2.257,0.987-3.148,1.906c-1.204,1.238-2.607,2.13-4.094,3.076l-0.684,0.436c-1.396,0.898-2.811,1.486-4.319,1.795
	c-1.505,0.309-2.715,0.861-3.697,1.688c-1.037,0.875-2.175,1.669-3.275,2.438l-0.896,0.628c-0.141,0.1-0.29,0.199-0.434,0.261
	l0.06-0.207c0.152-0.533,0.283-0.993,0.699-1.217c0.53-0.285,0.892-0.773,1.019-1.376c0.139-0.662-0.03-1.381-0.454-1.925
	l-0.116-0.148c-0.695-0.893-1.114-1.432-1.875-1.432c-0.3,0-0.628,0.087-1.099,0.29c-0.095,0.041-0.188,0.087-0.279,0.133
	c-0.138,0.069-0.309,0.155-0.39,0.155c-0.029,0-0.085-0.065-0.096-0.079c-0.628-0.757-1.504-1.094-2.356-1.345
	c-1.915-0.565-3.657-0.23-4.971,0.964c-0.73,0.664-1.417,1.492-2.162,2.605c-0.298,0.443-0.608,1.055-0.365,1.851
	c0.16,0.521,0.353,1.037,0.546,1.554c0.374,0.998,0.727,1.939,0.855,2.942c0.056,0.434,0.479,0.507,0.889,0.578
	c0.069,0.011,0.133,0.021,0.102,0.002c0.379,0.206,0.534,0.503,0.748,0.915c0.139,0.268,0.297,0.572,0.54,0.868
	c0.318,0.387,0.741,0.596,1.225,0.607c-1.07,0.302-2.061,0.701-2.953,1.091c-0.633,0.276-1.294,0.424-1.964,0.438l-0.898,0.023
	c-0.581,0.017-1.163,0.034-1.744,0.034c-1.194,0-2.107-0.073-2.962-0.237c-1.261-0.24-2.576-0.194-4.139,0.153l-0.348,0.078
	c-0.6,0.134-1.199,0.269-1.803,0.376c-2.092,0.374-4.279,0.48-6.573,0.347l-0.171-0.005c-0.308,0-0.592,0.044-0.867,0.087
	l-0.325,0.048c-0.843,0.106-1.688,0.255-2.536,0.404c-1.555,0.273-3.163,0.556-4.737,0.556c-0.15,0-0.3-0.002-0.491-0.01
	l-0.117-0.004c-0.478,0-0.708,0.325-0.725,0.646c-0.02,0.354,0.194,0.758,0.545,0.891c1.415,1.115,3.104,1.167,4.739,1.218
	c0.491,0.015,0.98,0.03,1.458,0.075c0.729,0.07,1.384-0.07,1.899-0.426c0.655-0.453,1.415-0.585,2.437-0.413
	c2.531,0.423,5.034,0.482,7.362,0.482c0.652,0,1.304-0.005,1.957-0.01l1.32-0.011c0.356-0.004,0.714-0.008,1.071-0.008
	c0.89,0,1.567,0.027,2.263,0.092c1.919,0.18,3.904,0.365,5.868,0.365c1.806,0,3.413-0.158,4.912-0.482
	c1.812-0.392,3.254,0.158,4.257,1.644c1.357,2.01,3.327,2.896,5.621,2.528c1.098-0.177,2.2-0.048,3.41,0.402
	c0.645,0.24,1.497,0.456,2.24,0.273c0.748-0.186,1.564-0.277,2.497-0.277c0.905,0,1.837,0.085,2.738,0.166
	c0.907,0.082,1.845,0.167,2.779,0.17c0.37,0.001,0.59,0.101,0.683,0.624c0.237,1.322,0.431,2.514,0.404,3.725
	c-0.044,2.068,0.104,4.211,0.439,6.37c0.474,3.039,0.623,5.371,0.482,7.562c-0.066,1.038,0.048,1.935,0.351,2.738
	c0.165,0.44,0.188,0.955,0.066,1.577c-0.492,2.547-0.695,5.151-0.89,7.671c-0.077,0.979-0.152,1.957-0.245,2.934
	c-0.059,0.623-0.076,1.16-0.093,1.653c-0.042,1.243-0.073,2.141-0.752,3.502c-0.423,0.847-0.771,1.19-1.258,1.537
	c-0.448,0.249-0.807,0.475-1.122,0.672c-0.608,0.382-1.012,0.636-1.672,0.779c-0.014,0.006-1.356,0.532-2.355,0.844
	c-0.763,0.239-1.308,0.744-1.424,1.319c-0.056,0.279-0.056,0.827,0.573,1.357c0.237,0.199,0.62,0.28,1.324,0.28
	c1.245,0,3.264-0.265,5.072-0.523c0.424-0.062,0.908,0.049,1.441,0.161c0.668,0.143,1.383,0.29,2.07,0.168
	c2.162-0.375,2.162-1.868,2.162-2.76c0-0.832-0.24-1.634-0.34-1.927c0.333-3.47,1.093-6.673,2.198-9.271
	c1.082-2.542,1.458-5.316,1.15-8.482c-0.133-1.356-0.081-2.482,0.163-3.541c0.068-0.3,0.104-0.606,0.14-0.914l0.021-0.178
	c0.104-0.865,0.181-1.731,0.257-2.599c0.129-1.463,0.263-2.975,0.533-4.441c0.662-3.596,1.012-6.366,1.133-8.98
	c0.055-1.156,0.188-2.335,0.318-3.477c0.049-0.419,0.096-0.839,0.14-1.258c0.076-0.714,0.157-1.206,0.59-1.521
	c1.05-0.763,2.023-1.628,2.965-2.466c0.531-0.472,1.061-0.943,1.605-1.397c3.744-3.125,6.791-5.866,9.487-9.088
	C91.284,30.958,91.377,29.558,90.258,27.913z M40.619,43.969c-1.428,0.309-2.964,0.459-4.698,0.459
	c-1.917,0-3.877-0.183-5.841-0.367c-0.661-0.062-1.367-0.09-2.29-0.09c-0.361,0-0.722,0.004-1.082,0.008l-1.317,0.011
	C24.742,43.995,24.092,44,23.443,44c-2.284,0-4.737-0.057-7.196-0.468c-1.295-0.215-2.297-0.028-3.174,0.577
	c-0.32,0.22-0.746,0.298-1.231,0.254c-0.5-0.048-1.011-0.064-1.524-0.081c-1.367-0.042-2.668-0.083-3.752-0.73
	c1.584-0.025,3.157-0.302,4.68-0.569c0.831-0.146,1.66-0.292,2.488-0.397c0.119-0.015,0.236-0.033,0.354-0.052
	c0.235-0.037,0.469-0.075,0.711-0.075l0.114,0.003c2.375,0.136,4.637,0.027,6.808-0.36c0.618-0.11,1.232-0.248,1.846-0.385
	l0.346-0.077c1.434-0.32,2.6-0.363,3.732-0.147c0.919,0.176,1.891,0.254,3.15,0.254c0.59,0,1.182-0.018,1.773-0.034l0.89-0.023
	c0.802-0.017,1.592-0.193,2.346-0.522c1.522-0.665,3.344-1.361,5.352-1.49c0.269-0.017,0.604-0.038,0.899-0.189
	c0.074-0.038,0.161-0.103,0.247-0.183c0.721,1.254,1.431,3.808,1.743,5.02C43.059,43.819,41.91,43.688,40.619,43.969z
	 M39.433,38.893c0.012-0.006,0.023-0.012,0.035-0.018l0.322-0.164c0.371-0.192,0.639-0.331,1.062-0.402
	c0.081-0.013,0.161-0.02,0.239-0.02c0.339,0,0.526,0.117,0.544,0.128c0.009,0.148-0.021,0.164-0.042,0.175
	c-0.107,0.055-0.326,0.069-0.546,0.083C40.495,38.71,39.956,38.787,39.433,38.893z M46.32,39.204
	c-1.196,1.024-3.051,0.062-3.736-0.358c0.042-0.139,0.068-0.297,0.056-0.492c-0.046-0.727-0.919-1.208-1.953-1.038
	c-0.58,0.097-0.958,0.293-1.359,0.501l-0.304,0.154c-0.5,0.246-0.861,0.249-1.119-0.064c-0.176-0.214-0.296-0.446-0.424-0.692
	c-0.239-0.46-0.51-0.982-1.161-1.336c-0.105-0.057-0.22-0.077-0.411-0.109c-0.035-0.006-0.07-0.011-0.106-0.017
	c-0.169-1.004-0.523-1.948-0.866-2.864c-0.064-0.171-0.118-0.342-0.18-0.512c0.502-0.617,1.489-1.61,2.734-1.683
	c1.809-0.106,2.66,2.283,2.66,2.283s0.006-1.863,0.644-1.964c0.639-0.101,1.133,0.106,1.521,0.745
	c0.388,0.639,0.84,2.234,1.571,2.34c0.331,0.048,0.653-0.1,0.91-0.274c0.029,0.143,0.084,0.254,0.143,0.334
	c0.237,0.32,0.674,0.412,1.183,0.229c0.008-0.003,0.015-0.008,0.023-0.011C46.578,35.463,47.501,38.191,46.32,39.204z
	 M62.915,44.204c-0.154,1.935-0.156,3.731-0.146,4.573c-0.364-0.028-0.727-0.058-1.083-0.09c-0.923-0.083-1.878-0.17-2.829-0.17
	c-1.015,0-1.911,0.101-2.74,0.306c-0.504,0.127-1.11-0.04-1.647-0.24c-1.021-0.379-1.984-0.555-2.934-0.538
	c0.058-0.765,0.386-2.384,1.934-4.692c1.711-2.551,3.228-4.895,3.829-5.828c0.961,0.936,1.957,1.901,3.188,2.623
	c0.683,0.4,1.313,0.595,1.931,0.595c0.106,0,0.211-0.016,0.314-0.028C62.874,41.315,63.053,42.468,62.915,44.204z M73.88,51.665
	c-0.12,2.567-0.465,5.295-1.12,8.845c-0.277,1.514-0.413,3.05-0.544,4.535c-0.076,0.857-0.151,1.713-0.254,2.568l-0.021,0.184
	c-0.03,0.269-0.06,0.539-0.121,0.801c-0.268,1.169-0.327,2.396-0.185,3.865c0.292,2.994-0.059,5.608-1.073,7.991
	c-1.157,2.72-1.948,6.068-2.285,9.681l-0.011,0.116l0.042,0.109c0.003,0.008,0.315,0.844,0.315,1.686
	c0,0.982-0.062,1.548-1.329,1.77c-0.526,0.091-1.11-0.039-1.689-0.161c-0.597-0.127-1.229-0.255-1.791-0.174
	c-1.774,0.253-3.748,0.513-4.931,0.513c-0.475,0-0.649-0.045-0.673-0.045c-0.002,0-0.003,0.001-0.002,0.002
	c-0.101-0.085-0.26-0.245-0.23-0.386c0.033-0.169,0.304-0.42,0.737-0.556c1.031-0.322,2.36-0.845,2.34-0.845
	c0.756-0.156,1.271-0.479,1.922-0.889c0.302-0.189,0.646-0.405,1.12-0.672c0.641-0.45,1.111-0.911,1.625-1.938
	c0.777-1.559,0.812-2.6,0.856-3.918c0.016-0.476,0.034-0.992,0.091-1.593c0.092-0.982,0.169-1.967,0.245-2.95
	c0.193-2.491,0.393-5.067,0.875-7.558c0.156-0.81,0.12-1.503-0.113-2.122c-0.254-0.677-0.346-1.414-0.287-2.319
	c0.145-2.269-0.007-4.668-0.493-7.783c-0.327-2.101-0.471-4.185-0.427-6.193c0.014-0.639-0.029-1.265-0.104-1.897
	c0.543-0.457,1.673-1.158,3.89-1.745c2.119-0.561,3.219-0.755,3.771-0.82C73.962,50.397,73.909,51.031,73.88,51.665z M75.959,35.74
	c-0.865,0.684-1.62,1.015-2.438,1.07l-0.686-0.108c-0.54-0.083-1.088-0.168-1.633-0.274c-1.915-0.375-3.678,0.044-5.24,1.24
	c-0.426,0.327-0.866,0.636-1.307,0.945c-0.289,0.203-0.577,0.406-0.862,0.613c-0.926,0.672-1.726,0.683-2.798,0.055
	c-1.14-0.669-2.057-1.562-3.029-2.508c-0.496-0.483-1.009-0.983-1.551-1.446c-0.147-0.125-0.271-0.337-0.401-0.561l-0.102-0.17
	c-0.075-0.125-0.084-0.2-0.077-0.222c0.006-0.022,0.048-0.076,0.168-0.137c1.874-0.959,3.448-2.319,4.971-3.633
	c0.752-0.65,1.53-1.322,2.327-1.929c1.529-1.164,2.814-2.12,4.262-2.938c1.306-0.738,2.449-1.698,3.555-2.625
	c0.636-0.534,1.294-1.086,1.966-1.581c0.48-0.352,0.957-0.708,1.412-1.087c0.669-0.556,1.521-0.577,2.458-0.6l0.014-0.504v0.503
	c0.218,0,0.34,0.147,0.571,0.563c0.224,0.4,0.452,0.797,0.683,1.194c0.537,0.929,1.094,1.889,1.54,2.866
	c0.903,1.973,2.243,3.568,4.099,4.876c0.274,0.193,0.409,0.306,0.473,0.372c-0.055,0.067-0.169,0.184-0.399,0.382
	c-0.526,0.453-1.044,0.884-1.598,1.173c-2.159,1.127-4.064,2.637-5.906,4.097L75.959,35.74z M89.217,31.859
	c-2.612,3.123-6.356,6.363-9.991,9.401c-0.349-0.358-0.835-1.062-1.496-2.618c-0.466-1.099-0.476-2.136-0.686-2.556
	c1.682-1.33,3.836-2.922,5.759-3.925c0.648-0.339,1.215-0.809,1.787-1.303c0.458-0.394,0.806-0.732,0.783-1.195
	c-0.022-0.467-0.419-0.781-0.933-1.144c-1.706-1.203-2.938-2.665-3.763-4.472c-0.468-1.021-1.036-2.002-1.586-2.952
	c-0.227-0.392-0.453-0.784-0.674-1.18c-0.225-0.404-0.603-1.08-1.45-1.08l-0.076,0.001c-0.984,0.024-2.101,0.052-3.04,0.832
	c-0.439,0.367-0.9,0.71-1.362,1.05c-0.699,0.514-1.369,1.077-2.018,1.621c-1.071,0.899-2.179,1.829-3.404,2.521
	c-1.501,0.849-2.814,1.824-4.375,3.012c-0.821,0.625-1.611,1.308-2.376,1.968c-1.478,1.276-3.005,2.595-4.771,3.5
	c-0.449,0.229-0.617,0.54-0.68,0.759c-0.016,0.056-0.028,0.122-0.034,0.194c-0.522,0.281-1.531,0.655-3.194,0.655
	c-1.931,0-3.564-0.838-4.32-1.299l0.418-0.294c1.119-0.781,2.276-1.59,3.348-2.494c0.851-0.717,1.914-1.198,3.251-1.473
	c1.634-0.334,3.158-0.967,4.661-1.935l0.68-0.433c1.47-0.935,2.989-1.9,4.274-3.224c0.755-0.778,1.764-1.218,2.831-1.685
	c0.327-0.143,0.654-0.286,0.973-0.438c2.211-1.057,4.229-2.459,6.183-3.815l0.229-0.159c0.184-0.128,0.35-0.287,0.507-0.448
	c0.533-0.545,0.853-0.986,0.791-1.496c-0.068-0.56-0.6-0.932-1.092-1.237c-0.646-0.4-0.967-0.708-1.012-0.968
	c-0.041-0.249,0.148-0.63,0.581-1.164c0.769-0.95,1.35-2.084,1.827-3.571c0.342-1.065,1.002-1.858,2.038-2.432
	c0.296-0.164,0.576-0.319,0.855-0.336c0.091-0.006,0.186-0.018,0.279-0.029c0.106-0.013,0.215-0.027,0.319-0.027
	c0.172,0,0.199,0.042,0.245,0.116c0.002,0.06-0.119,0.235-0.184,0.33L79.203,6.61c-0.946,1.511-1.234,3.151-1.378,5.15
	c-0.106,1.523,0.34,2.652,1.367,3.453c0.423,0.33,0.566,0.955,0.678,1.568c0.125,0.689,0.44,1.305,0.966,1.882l2.374,2.611
	c1.512,1.663,3.023,3.326,4.543,4.983c0.623,0.679,1.154,1.462,1.707,2.274C90.292,29.751,90.227,30.653,89.217,31.859z"/>
</svg>
