<svg height='100px' width='100px'  fill="#000000" xmlns="http://www.w3.org/2000/svg" data-name="Layer 1" viewBox="0 0 100 100" x="0px" y="0px"><title>Artboard 17</title><path d="M75.14,64.67a6.25,6.25,0,0,0,6.25-6.25V55.8a6.25,6.25,0,0,0-7.83-6l-10,2.62a6.25,6.25,0,0,0,1.59,12.29ZM62.89,58.42a2.25,2.25,0,0,1,1.68-2.17l10-2.62a2.27,2.27,0,0,1,.58-.08,2.25,2.25,0,0,1,2.24,2.25v2.62a2.25,2.25,0,0,1-2.25,2.25h-10A2.25,2.25,0,0,1,62.89,58.42ZM99,36.11c0,1.17,0,2.44,0,4a7.6,7.6,0,0,1-6.57,7.38,25.12,25.12,0,0,1,3,12.46V86a7.47,7.47,0,0,1-7.46,7.46H80.86A7.47,7.47,0,0,1,73.4,86v-2.1H41.51a2,2,0,0,1,0-4H75.4a2,2,0,0,1,2,2V86a3.46,3.46,0,0,0,3.46,3.46h7.06A3.46,3.46,0,0,0,91.38,86V59.9a20.87,20.87,0,0,0-3.43-12.11c-.23-.34-.48-.69-.73-1a2,2,0,0,1,1.6-3.2h.32l2.32,0A3.61,3.61,0,0,0,95,40c0-1.48,0-2.67,0-3.76a3.41,3.41,0,0,0-3.38-3.41c-.65,0-1.3,0-2,0A7.11,7.11,0,0,0,84.9,35a2,2,0,0,1-3.22-.71c-3.11-7.73-6.07-14-7.72-16.37C70.75,13.28,66,12,62.64,11.4a92,92,0,0,0-15-1.14,2,2,0,0,1,0-4h0a95.74,95.74,0,0,1,15.62,1.2c4,.7,9.85,2.31,13.92,8.17,2.19,3.15,5.27,10.21,7.15,14.75a10.24,10.24,0,0,1,5.21-1.56c.72,0,1.42,0,2.11,0A7.36,7.36,0,0,1,99,36.11ZM12.63,50.45V85.26a8.52,8.52,0,0,0,8.56,8.49h5.34A8.5,8.5,0,0,0,35,85.26V50.45a10.39,10.39,0,0,1,3.66-7.89,22.78,22.78,0,0,0-.36-34.92,4.11,4.11,0,0,0-2.64-1,4.27,4.27,0,0,0-4.27,4.27v9.57a4,4,0,0,1-4,4H20.19a4,4,0,0,1-4-4V10.95A4.27,4.27,0,0,0,12,6.68a4.11,4.11,0,0,0-2.64,1A22.78,22.78,0,0,0,9,42.56,10.38,10.38,0,0,1,12.63,50.45ZM5,25.25a18.75,18.75,0,0,1,6.87-14.53.15.15,0,0,1,.1,0,.28.28,0,0,1,.27.27v9.57a8,8,0,0,0,8,8h7.27a8,8,0,0,0,8-8V10.95a.28.28,0,0,1,.27-.27.15.15,0,0,1,.1,0h0a18.78,18.78,0,0,1,.29,28.8A14.38,14.38,0,0,0,31,50.45V85.26a4.5,4.5,0,0,1-4.49,4.49H21.12a4.5,4.5,0,0,1-4.49-4.49V50.45a14.38,14.38,0,0,0-5.05-10.92A18.78,18.78,0,0,1,5,25.25ZM21.83,82.1V49.86a2,2,0,0,1,4,0V82.1a2,2,0,0,1-4,0Z"></path></svg>