<svg height='100px' width='100px'  fill="#000000" xmlns="http://www.w3.org/2000/svg" xmlns:xlink="http://www.w3.org/1999/xlink" version="1.1" x="0px" y="0px" viewBox="0 0 64 64" style="enable-background:new 0 0 64 64;" xml:space="preserve"><circle cx="50" cy="58" r="4"></circle><circle cx="24" cy="58" r="4"></circle><path d="M32.07,14.93c-1.589-1.589-3.709-2.645-6.07-2.879V9h3V7h-8v2h3v3.051c-5.051,0.502-9,4.767-9,9.949h20  C35,19.24,33.88,16.74,32.07,14.93z"></path><path d="M5.721,27h2.865L11,29.414V50c0,2.21,1.79,4,4,4h9h26h11V28h-3V13.8c0-1.12-0.56-2.18-1.5-2.8S55,9.32,55,8.2V2h-4v6.2  c0,1.12-0.56,2.18-1.5,2.8S48,12.68,48,13.8V28h-4v-1c0-0.552-0.448-1-1-1h-1v-5.4l4-5.6H36l4,5.6V26h-1c-0.552,0-1,0.448-1,1v1h-5  c1.1,0,2.1-0.45,2.83-1.17C36.55,26.1,37,25.1,37,24H13c0,2.21,1.79,4,4,4h-4.586l-3-3H5.721C5.373,24.406,4.735,24,4,24  c-1.1,0-2,0.9-2,2c0,1.1,0.9,2,2,2C4.735,28,5.373,27.594,5.721,27z M51,28h6v13l-3-1l-3,1V28z M18,31h2v2h-2V31z M14,31h2v2h-2V31z   M14,35h2v2h-2V35z"></path></svg>