<svg height='100px' width='100px'  fill="#000000" xmlns="http://www.w3.org/2000/svg" xmlns:xlink="http://www.w3.org/1999/xlink" version="1.1" x="0px" y="0px" viewBox="0 0 1200 1200" style="enable-background:new 0 0 1200 1200;" xml:space="preserve"><style type="text/css">
	.st0{fill:none;}
	.st1{fill:#000000;}
</style><g><path class="st0" d="M733.1,457.6c0-4-1.1-7.2-3.5-10.3c-23.9-30.3-47.6-60.8-71.4-91.1c-4.2-5.4-6.4-11.1-6.4-18.1   c0.2-59.7,0.2-119.4,0.2-179.1c0-1.2-0.1-2.3,0-3.5c0.1-1.8-0.5-2.2-2.3-1.9c-4,0.6-8.1,1-12.2,1.3c-28.7,2.2-57.3,2.1-85.9-1   c-3.2-0.3-3.5,0.6-3.5,3.3c0.1,59.7,0,119.4,0.2,179.1c0,7.7-2,14-6.8,20.1c-24.2,30.6-48,61.5-72.1,92.3c-1.7,2.2-2.5,4.3-2.5,7.1   c0.1,217.8,0.1,435.7,0,653.5c0,3,0.9,5.4,3,7.5c6.1,6.1,13.8,9.5,22.2,13c0-5.5,0-10.2,0-14.9c0-176.6,0-353.2,0-529.7   c0-4.5,1.3-8.2,4.2-11.5c32.6-36.9,65.2-74,97.8-110.9c3.4-3.9,6.4-3.9,9.9-0.1c33.4,37.5,66.7,75,100.1,112.4   c2.2,2.4,3.2,5.1,3.2,8.3c-0.1,7.9-0.2,15.8-0.2,23.7c0,172.3,0,344.7,0,517c0,0.9,0.1,1.8,0,2.6c-0.3,2.6,0.4,3.5,3.1,2.3   c5.6-2.4,11.1-5.2,16.1-8.7c4.7-3.3,7-7.3,6.9-13.6C733,890.3,733,674,733.1,457.6z"></path><path class="st0" d="M550.8,112.9c16.2,1.7,32.4,2.4,48.6,2.5c16.4-0.1,32.7-0.8,49.1-2.5c2.6-0.3,3.4-1.1,3.4-3.8   c-0.1-12.4-0.1-24.9,0-37.3c0-2.3-0.4-2.9-2.9-2.5c-32.8,4.6-65.6,4.2-98.4,0.2c-3.1-0.4-3.3,0.4-3.2,2.9c0.1,12.1,0.1,24.3,0,36.4   C547.2,111.6,547.9,112.6,550.8,112.9z"></path><path class="st1" d="M757.2,1107.9c-0.3-9.1-0.1-18.1-0.1-27.2c0-209,0-418.1,0.1-627.1c0-6.6-1.9-12.1-6-17.3   c-24.3-30.9-48.3-62-72.6-93c-1.9-2.5-2.7-4.9-2.7-8c0.1-61.1,0.1-122.3,0-183.4c0-2.9-0.6-5.9-0.3-8.7c1-10.5-0.1-21,0.1-31.5   c0.3-18.9-0.1-37.7,0.1-56.6c0.1-8.6-2.7-13.7-10.5-17.2c-4.8-2.2-10-3.2-15.2-3.9c-32-4.2-64.1-5.1-96.2-0.8   c-7.2,1-14.5,2-21.2,5.2c-6,2.9-9.8,7.5-9.6,14.4c1,34,0.1,68,0.6,102.1c1,60.3,0.3,120.5,0.3,180.8c0,2.9-0.7,5.2-2.5,7.6   c-24.2,31-48.3,62.1-72.6,93c-4.2,5.4-6.1,10.9-6.1,17.7c0.1,109,0.1,218,0.1,327c0,0,0,0-0.1,0c0,109,0.1,218-0.1,327   c0,13,5.3,22.7,15.1,30.5c10.7,8.5,23.1,13.5,36,17.5c27.1,8.4,55,11.9,83.3,13.4c39.8,2.1,79.2-1,118-9.9   c17.2-4,33.5-10.3,47.5-21.4C752.3,1130.2,757.6,1120.5,757.2,1107.9z M547.3,72.4c0-2.5,0.1-3.3,3.2-2.9   c32.8,3.9,65.6,4.3,98.4-0.2c2.5-0.4,2.9,0.3,2.9,2.5c-0.1,12.4-0.1,24.9,0,37.3c0,2.6-0.8,3.5-3.4,3.8   c-16.3,1.8-32.7,2.4-49.1,2.5c-16.2-0.1-32.5-0.8-48.6-2.5c-2.9-0.3-3.6-1.3-3.5-4C547.4,96.7,547.4,84.6,547.3,72.4z M599.5,705.5   c-21.6,0-39.1-17.5-39.1-39.1c0-4.1,0.6-8.1,1.8-11.9l0,0c0.5-1.6,1.1-3.1,1.8-4.6l35.5-90.9l35.6,91.2c0.6,1.3,1.1,2.6,1.5,3.9   l0,0.1l0,0c1.2,3.8,1.9,7.9,1.9,12.1C638.6,688,621.1,705.5,599.5,705.5z M726.2,1120.3c-5,3.5-10.5,6.3-16.1,8.7   c-2.7,1.2-3.4,0.3-3.1-2.3c0.1-0.9,0-1.8,0-2.6c0-172.3,0-344.7,0-517c0-7.9,0.1-15.8,0.2-23.7c0-3.2-1-5.9-3.2-8.3   c-33.4-37.4-66.7-74.9-100.1-112.4c-3.4-3.9-6.4-3.8-9.9,0.1c-32.6,37-65.1,74-97.8,110.9c-3,3.4-4.2,7-4.2,11.5   c0.1,176.6,0,353.2,0,529.7c0,4.7,0,9.4,0,14.9c-8.4-3.5-16.1-6.8-22.2-13c-2.1-2.1-3-4.5-3-7.5c0-217.8,0-435.7,0-653.5   c0-2.8,0.8-5,2.5-7.1c24-30.8,47.9-61.7,72.1-92.3c4.8-6.1,6.8-12.4,6.8-20.1c-0.2-59.7-0.1-119.4-0.2-179.1c0-2.7,0.3-3.7,3.5-3.3   c28.6,3.1,57.2,3.2,85.9,1c4.1-0.3,8.2-0.7,12.2-1.3c1.8-0.3,2.4,0.1,2.3,1.9c-0.1,1.2,0,2.3,0,3.5c0,59.7,0,119.4-0.2,179.1   c0,7,2.2,12.7,6.4,18.1c23.8,30.3,47.6,60.8,71.4,91.1c2.5,3.2,3.5,6.3,3.5,10.3c-0.1,216.4-0.1,432.7,0.1,649.1   C733.2,1112.9,730.9,1117,726.2,1120.3z"></path></g></svg>