<svg height='100px' width='100px'  fill="#000000" xmlns="http://www.w3.org/2000/svg" xmlns:xlink="http://www.w3.org/1999/xlink" version="1.1" x="0px" y="0px" viewBox="0 0 100 100" enable-background="new 0 0 100 100" xml:space="preserve"><path d="M18.58,45.607c-2.536,0.008,1.425,2.818,6.112,5.675L36.75,55.25c0.423-0.219,1.122-0.394,2.531-1.031l-5.438-8.625  C27.25,45.594,22.193,45.595,18.58,45.607z"></path><path d="M96.75,60.844l-7.598-3.125l-12.896-4.676c-4.502,0.049-13.048,4.541-13.048,4.541l-13.288-4.541  c-1.669,0.018-2.825,0.257-4.963,1.04l4.333,6.875L96.75,60.844z"></path><path d="M36.935,57.521l-7.567-2.586l-5.719-1.955c-4.501,0.049-12.782,4.398-12.866,4.443l-7.47,3.596l39.479-0.103l-2.875-4.833  C37.931,56.971,36.935,57.521,36.935,57.521z"></path><path d="M88.131,45.607c-4.34,0.007-13.246,0.002-23.415-0.004c-0.401-0.8-3.449-5.17-5.288-7.687  c-1.981-2.713-3.936-8.042-6.234-8.625c-1.597-0.208-1.453-0.133-1.809-0.168c-0.697-0.083-0.402-0.069-0.947-0.091  c-0.19-0.013-1.011-0.861-1.08-1.25c0.57-1.1,0.768-2.057,0.525-3.531c-0.484-2.932-2.877-4.927-5.079-4.512  c-2.203,0.416-3.598,3.129-3.114,6.061c0.483,2.932,2.662,4.973,4.864,4.557c0.011-0.002,0.02-0.008,0.029-0.01  c0.396,0.167,0.68,0.342,0.649,0.521c-0.098,0.5-0.217,1.109-0.308,1.75c-1.418,1.156-3.372,3.405-5.166,4.747  c-1.163,0.869-3.256,2.667-4.726,3.975c-0.526-0.199-1.161-0.27-1.817-0.151c-1.695,0.305-2.688,1.046-2.688,2.25  c0,1.167,1.182,1.587,2.718,1.613l14.63,24.534c0.07,2.219-0.225,2.997,0.012,3.958c0.44,1.792,2.696,5.291,2.696,5.291  s4.626,2.742,5.626,2.051c0.914-0.635,1.064-4.523,1.064-4.523s-2.028-5.366-3.463-6.531c-0.857-0.697-2.21-0.639-4.061-1.745  L37.203,44.556c0.086-0.051,5.522-2.677,6.854-3.674c1.239-0.927,3.278-2.41,4.568-3.375c1.059,1.733,2.351,3.746,3.324,5.078  c0.763,1.046,1.632,2.053,2.494,3.014c-5.241-0.003-9.694-0.034-14.631-0.035l4.062,6.75c2.312-0.858,4.1-1.469,6-1.469  l13.254,4.574c1.306-0.676,8.479-4.501,12.871-4.501l8.651,2.856C87.229,50.312,90.331,45.604,88.131,45.607z"></path></svg>