<svg height='100px' width='100px'  fill="#000000" xmlns="http://www.w3.org/2000/svg" xmlns:xlink="http://www.w3.org/1999/xlink" version="1.1" x="0px" y="0px" viewBox="0 0 100 100" style="enable-background:new 0 0 100 100;" xml:space="preserve"><style type="text/css">
	.st0{fill:none;}
</style><path d="M5.5,96h89V7h-89V96z M80.5,46.4c-1.3,8.1-5.7,16.1-12.4,22.5C54.3,82.1,34.9,84.3,25,73.9c-0.1-0.1-0.1-0.1-0.2-0.2  L37,61.9l5.4-0.7c0.2,0,0.4-0.1,0.5-0.3l9.2-12.5l0.7-0.7l9.3-2.7c0.2-0.1,0.3-0.2,0.4-0.3l3.5-6.3l9.2-12.2  C79.9,31.3,81.8,38.5,80.5,46.4z M37.2,57.7l0.5-0.5l1.9-0.5c0,0,0,0,0,0c0.1,0,0.2-0.1,0.2-0.2l1.7-3l0,0l0.9-0.9l12.1-12.1  l0.4-0.4l2.2-0.4l-0.4,0.4L40.2,56.5l-0.4,0.4L29.5,67.2L26.7,70l3.8-5.6l1.3-1.3L37.2,57.7z M32.5,61.4l2.3-3.4l1.5-0.4l-0.5,0.5  l-2,2L32.5,61.4z M38.7,56.2l1-1L39.3,56L38.7,56.2z M51,41.1l0.4-0.4l2.2-0.4l-0.4,0.4l-9.7,9.7l-0.9,0.9l2.2-4l0.9-0.9L51,41.1z   M46,45.1l2.1-3.9l2.1-0.4l-0.4,0.4l-2.9,2.9L46,45.1z M59.9,39.1c0.1,0,0.2-0.1,0.2-0.2l2.8-4.2l0,0l7.2-5.4l-1.8,1.8L60.5,39  l-0.4,0.4l-6.7,6.7l-0.5,0.5l-0.6,0.2L52,46.9c-0.1,0-0.1,0.1-0.2,0.1l-1.9,2.6l0,0l-1.7,1.7l-8.9,8.9l-0.4,0.4l-2.1,0.3l0.4-0.4  l20.6-20.6l0.4-0.4l0,0L59.9,39.1z M59.1,38.6l1.2-1.2l-0.8,1.1L59.1,38.6z M57.3,45l-0.5,0.5l-2.5,0.7l0,0l0.5-0.5l16.4-16.4  l1.8-1.8L67.3,35l-1.8,1.8L57.3,45z M64.8,38.5l-2.3,4.1l-0.9,0.9l-0.3,0.3l-0.5,0.5l-2.5,0.7l0.5-0.5l5.1-5.1L64.8,38.5z   M47.1,53.4l-5,6.8l-2,0.3l0.4-0.4l5-5L47.1,53.4z M19.5,53.6c1.3-8.1,5.7-16.1,12.4-22.5c7.9-7.6,17.7-11.5,26.5-11.5  c6,0,11.5,1.8,15.6,5.6L62.2,34c-0.1,0-0.1,0.1-0.2,0.2l-1,1.4l-2.7,2.7l-10.6,1.9c-0.2,0-0.4,0.2-0.5,0.4L40,53.9L37.9,56l-3.5,1  c-0.2,0-0.3,0.1-0.4,0.3L23.8,72.5C19.8,67.5,18.3,60.9,19.5,53.6z"></path></svg>