<svg height='100px' width='100px'  fill="#000000" xmlns="http://www.w3.org/2000/svg" viewBox="0 0 64 64" x="0px" y="0px"><title>Tree</title><g><path d="M48.563,32.931a9.415,9.415,0,0,0,2.135.242,5.8,5.8,0,0,0,3.72-1.144C56.6,30.22,56.4,26.6,56.39,26.444a1,1,0,0,0-.751-.906c-.149-.038-3.671-.908-5.854.9s-1.983,5.432-1.973,5.585A1,1,0,0,0,48.563,32.931Zm2.5-4.952a4.66,4.66,0,0,1,3.316-.635,4.625,4.625,0,0,1-1.236,3.146,4.668,4.668,0,0,1-3.318.635A4.622,4.622,0,0,1,51.062,27.979Z"></path><path d="M17.077,4.638a.992.992,0,0,0-1.1.425c-.106.165-2.579,4.068-1.288,7.4.908,2.344,3.547,3.912,5.938,4.6a1.025,1.025,0,0,0,1.1-.425c.106-.164,2.579-4.068,1.288-7.4S17.266,4.688,17.077,4.638Zm-.521,7.1c-.666-1.72.2-3.863.736-4.929,1.26.481,3.231,1.533,3.857,3.149a5.427,5.427,0,0,1-.2,3.661L19.507,10.1a1,1,0,1,0-1.85.758l1.387,3.383A5.4,5.4,0,0,1,16.556,11.741Z"></path><path d="M61.946,57.292H44.973l-1.115-16.46,8.085-.557a1,1,0,0,0,.929-1.066l-.279-4.054a1,1,0,0,0-.341-.686,1.017,1.017,0,0,0-.726-.243l-7.823.538,1.313-6.109a1,1,0,0,0-.978-1.21H25.513L18.28,25.122l-2.4-7.213a1,1,0,0,0-1.265-.633l-2.82.939a1,1,0,0,0-.639,1.245L13.245,26.2,8.239,29.7a1,1,0,0,0-.26,1.371l1.677,2.531a1,1,0,0,0,.635.428,1.016,1.016,0,0,0,.751-.146l3.526-2.337,5.373,1.726.581,9.461-4.5-1.447a1,1,0,0,0-1.258.647l-1.115,3.47a1,1,0,0,0,.647,1.258l6.6,2.121.027.45-1.144,8.055H1.946a1,1,0,1,0,0,2h60a1,1,0,0,0,0-2Zm-35.329,0,1.421-7.211a.981.981,0,0,0,.014-.291L27,38.987a1,1,0,1,0-1.99.194l1.038,10.657-1.468,7.454H21.8l1.119-7.875a.964.964,0,0,0,.007-.2l-.075-1.233a1,1,0,0,0-.693-.891l-6.3-2.025.5-1.566,3.237,1.04h0L23.82,45.9a1,1,0,0,0,.612-1.9l-1.866-.6L21.9,32.473a1,1,0,0,0-.692-.891L14.722,29.5a1,1,0,0,0-.858.119l-3.093,2.049-.586-.884,4.805-3.362a1,1,0,0,0,.382-1.115l-2.018-6.5.942-.313,2.247,6.745a1,1,0,0,0,.643.636L25.051,29.4a.983.983,0,0,0,.305.048H37.148l-.866,3.915a1,1,0,0,0-.017.331l1.055,9.117a1,1,0,0,0,.992.885.914.914,0,0,0,.116-.007,1,1,0,0,0,.878-1.108l-1.035-8.95.926-4.183h3.6l-1.277,5.944a1.117,1.117,0,0,0,1.064,1.457l8.079-.556.142,2.059-8.084.556A1,1,0,0,0,41.8,39.97l1.173,17.322Z"></path><path d="M39.058,46.864a1,1,0,0,0-.789,1.173l.56,2.863a1,1,0,0,0,.98.808A.979.979,0,0,0,40,51.689a1,1,0,0,0,.79-1.173l-.561-2.863A1,1,0,0,0,39.058,46.864Z"></path><path d="M24.88,24.1a1,1,0,0,0,0,2H39.8a1,1,0,0,0,0-2Z"></path><path d="M23.214,29.468l-3.462-1.18a1,1,0,1,0-.645,1.892l3.461,1.18a1,1,0,0,0,.646-1.892Z"></path><path d="M49.561,11.854a1,1,0,0,0-.982-.649c-.2.009-4.811.251-6.781,3.232s-.385,7.323-.317,7.507a1.172,1.172,0,0,0,.369.473h0a1,1,0,0,0,.566.177h0c2.214-.031,5.436-1.13,6.828-3.235C51.214,16.378,49.629,12.038,49.561,11.854Zm-1.985,6.4a5.323,5.323,0,0,1-2.966,1.918l2.077-3.014a1,1,0,0,0-1.646-1.135l-2.16,3.134a5.427,5.427,0,0,1,.586-3.62c1.016-1.539,3.264-2.073,4.446-2.252C48.249,14.594,48.531,16.811,47.576,18.257Z"></path><path d="M48.084,41.884a1.028,1.028,0,0,0-.73.924C47.346,43,47.2,47.622,50,49.84a7.161,7.161,0,0,0,4.463,1.329,12.127,12.127,0,0,0,2.989-.377,1,1,0,0,0,.73-.923c.008-.2.158-4.814-2.645-7.031S48.271,41.832,48.084,41.884ZM54.3,44.407c1.448,1.144,1.789,3.429,1.867,4.621-1.329.225-3.562.318-4.922-.757a5.319,5.319,0,0,1-1.659-3.118l2.824,2.325a1,1,0,0,0,1.272-1.544l-2.938-2.418A5.51,5.51,0,0,1,54.3,44.407Z"></path><path d="M3.432,45.464a12.086,12.086,0,0,0,2.737.311,7.32,7.32,0,0,0,4.69-1.435c2.752-2.28,2.495-6.894,2.483-7.09a1,1,0,0,0-.751-.906c-.189-.048-4.676-1.156-7.427,1.124s-2.5,6.894-2.483,7.09A1.024,1.024,0,0,0,3.432,45.464ZM6.44,39.008c1.42-1.178,3.725-1.037,4.909-.864-.057,1.347-.432,3.55-1.766,4.656a5.323,5.323,0,0,1-3.393.974L9.051,41.5a1,1,0,0,0-1.246-1.564L4.829,42.3A5.518,5.518,0,0,1,6.44,39.008Z"></path><path d="M6.608,27.357a3.811,3.811,0,0,0,.668.059,6.658,6.658,0,0,0,4.08-1.851,1,1,0,0,0,.206-1.159c-.144-.3-1.475-2.9-3.837-3.321S3.214,22.65,2.977,22.878a1,1,0,0,0-.206,1.159C2.915,24.333,4.246,26.938,6.608,27.357Zm.766-4.3a3.566,3.566,0,0,1,1.983,1.557,3.61,3.61,0,0,1-2.4.778,3.564,3.564,0,0,1-1.982-1.557A3.594,3.594,0,0,1,7.374,23.054Z"></path></g></svg>