<svg height='100px' width='100px'  fill="#000000" xmlns="http://www.w3.org/2000/svg" xmlns:xlink="http://www.w3.org/1999/xlink" version="1.1" x="0px" y="0px" viewBox="0 0 100 100" style="enable-background:new 0 0 100 100;" xml:space="preserve"><style type="text/css">
	.st0{fill:none;stroke:#000000;stroke-width:2;stroke-linecap:round;stroke-linejoin:round;stroke-miterlimit:10;}
</style><path d="M76.375,13.08301H63.91309c-0.55273,0-1,0.44727-1,1v7.48724L50.5498,10.26172c-0.38281-0.34961-0.96875-0.34961-1.34961,0  l-38.875,35.55859c-0.40723,0.37305-0.43555,1.00586-0.06348,1.41309c0.37305,0.4082,1.00781,0.43359,1.41309,0.06348  l5.97168-5.46222V89c0,0.55273,0.44727,1,1,1h62.45703c0.55273,0,1-0.44727,1-1V41.83447l6.22168,5.69092  c0.19141,0.1748,0.43359,0.26172,0.6748,0.26172c0.27051,0,0.54102-0.10938,0.73828-0.3252  c0.37207-0.40723,0.34375-1.04004-0.06348-1.41309L77.375,34.79834V14.08301C77.375,13.53027,76.92773,13.08301,76.375,13.08301z   M64.91309,15.08301H75.375v17.88599l-10.46191-9.5694V15.08301z M80.10352,88H19.64648V40.00525L49.875,12.35547l30.22852,27.64966  V88z"></path><path d="M44.80664,39.01855c-0.52362,0.62756-0.96381,1.33264-1.32324,2.0899c-3.11517-1.27386-6.3783-0.87103-8.47559,1.12787  c-1.56055,1.48633-2.30078,3.625-2.08594,6.02051c0.0733,0.81433,0.26062,1.62469,0.54211,2.41467  c-3.10217,1.30206-5.12628,3.89331-5.19641,6.78943c-0.05176,2.1543,0.93652,4.18945,2.7832,5.73242  c0.62756,0.52362,1.3327,0.96381,2.08997,1.32324c-1.27307,3.11444-0.87109,6.3783,1.12781,8.47559  c1.31738,1.38379,3.14746,2.12207,5.21484,2.12207c0.26465,0,0.53418-0.01172,0.80566-0.03613  c0.81433-0.0733,1.62469-0.26062,2.41467-0.54211c1.30206,3.10217,3.89331,5.12628,6.78943,5.19641  c0.05469,0.00098,0.10742,0.00195,0.16113,0.00195c2.09473,0,4.06738-0.98535,5.57129-2.78516  c0.58435-0.70032,1.06665-1.49579,1.44556-2.35492c1.21637,0.50378,2.45435,0.76508,3.6394,0.76508  c1.96094,0,3.77246-0.67773,5.08789-1.99316c1.52441-1.52344,2.21289-3.67871,1.94043-6.06934  c-0.08136-0.71356-0.25574-1.42078-0.49823-2.11334c2.94891-1.33728,4.8559-3.86511,4.92401-6.6767  c0.05176-2.1543-0.93652-4.18945-2.7832-5.73242c-0.62756-0.52362-1.3327-0.96387-2.08997-1.3233  c1.27307-3.11438,0.87109-6.37823-1.12781-8.47552c-1.48633-1.56152-3.62598-2.30078-6.02051-2.08594  c-0.81433,0.0733-1.62469,0.26062-2.41467,0.54211c-1.30206-3.10217-3.89331-5.12628-6.78943-5.19641  C48.33691,36.18848,46.34863,37.17285,44.80664,39.01855z M36.38672,43.68359c1.53326-1.46094,4.00549-1.70819,6.40796-0.70166  c-0.23273,0.87677-0.3656,1.79791-0.38843,2.7417c-0.06598,2.72021,1.51154,5.88055,2.63062,7.77393  c-0.71381,0.79095-1.2417,1.75098-1.51593,2.81641c-2.78094-0.74835-4.98621-1.82135-6.10785-2.99756  c-1.44434-1.51562-2.33203-3.37598-2.49902-5.23828C34.75488,46.30176,35.27734,44.74121,36.38672,43.68359z M50.01562,53.27148  c0.03711,0,0.0752,0.00098,0.11328,0.00195c2.59766,0.0625,4.66016,2.22656,4.59766,4.82422  c-0.03027,1.25781-0.54883,2.42969-1.45996,3.29785c-0.91113,0.86719-2.08496,1.33887-3.36328,1.29883  c-2.59863-0.0625-4.66113-2.22656-4.59766-4.82324C45.36719,55.31152,47.46875,53.27148,50.01562,53.27148z M30.26758,57.50977  c0.05127-2.11749,1.6239-4.04034,4.03387-5.02747c0.45551,0.78461,1.013,1.52979,1.66437,2.21301  c1.87762,1.9715,5.22327,3.08862,7.35242,3.63538c0.05505,1.09326,0.37225,2.13849,0.92297,3.06647  c-2.49976,1.44098-4.83368,2.26007-6.43652,2.19659c-2.09375-0.0498-4.03613-0.7373-5.47168-1.93652  C30.96387,60.51465,30.23047,59.04102,30.26758,57.50977z M40.11035,73.08594c-1.77539,0.16113-3.33789-0.36328-4.39453-1.47266  c-1.46094-1.53326-1.70819-4.00549-0.70166-6.40796c0.87677,0.23273,1.79785,0.3656,2.7417,0.38843  c0.05566,0.00098,0.11133,0.00195,0.16699,0.00195c2.68018,0,5.7475-1.53412,7.60272-2.62994  c0.81146,0.73334,1.77496,1.24762,2.82031,1.51447c-0.74835,2.78033-1.82123,4.98517-2.99725,6.10669  C43.83301,72.03125,41.97266,72.91895,40.11035,73.08594z M53.68945,75.66699c-1.14258,1.36914-2.65527,2.12012-4.14746,2.06543  c-2.11749-0.05127-4.04034-1.6239-5.02747-4.03387c0.78461-0.45551,1.52979-1.013,2.21301-1.66437  c1.97205-1.87811,3.08911-5.22498,3.63574-7.35406c1.09259-0.05493,2.13757-0.37079,3.06537-0.92163  c1.43683,2.49683,2.23755,4.81439,2.19733,6.43683C55.57617,72.28906,54.88867,74.23145,53.68945,75.66699z M63.98438,71.95215  c-1.55756,1.55658-4.1601,1.83405-6.68091,0.74127c0.1875-0.78925,0.30219-1.60883,0.32251-2.44928  c0.06592-2.71838-1.5094-5.87634-2.62836-7.77014c0.7702-0.85181,1.30371-1.86957,1.55768-2.97516  c2.79565,0.68103,5.02368,1.70026,6.17224,2.84882c1.48047,1.48047,2.41211,3.31836,2.62402,5.17578  C65.55371,69.2959,65.06836,70.86816,63.98438,71.95215z M69.76465,58.45801c-0.04932,2.03601-1.50244,3.89532-3.75598,4.91357  c-0.50189-0.87085-1.12421-1.69513-1.86707-2.43799c-1.92297-1.92389-5.29059-2.96014-7.43298-3.45685  c-0.07922-1.05322-0.40875-2.03809-0.92224-2.90332c2.43872-1.40405,4.70746-2.20135,6.32397-2.20135  c0.04004,0,0.0791,0.00098,0.11719,0.00195c2.09375,0.0498,4.03613,0.7373,5.47168,1.93652  C69.06836,55.45312,69.80176,56.92676,69.76465,58.45801z M59.92188,42.88184c1.7793-0.1543,3.33789,0.36426,4.39453,1.47266  c1.46094,1.53326,1.70819,4.00549,0.70166,6.40796c-0.87677-0.23273-1.79791-0.3656-2.7417-0.38843  c-0.05566-0.00098-0.11133-0.00195-0.16699-0.00195c-2.6817,0-5.75098,1.53589-7.60583,2.63177  c-0.79095-0.71375-1.75183-1.24091-2.8175-1.5152c0.74835-2.78088,1.82135-4.98615,2.99756-6.10779  C56.19922,43.93652,58.05957,43.04883,59.92188,42.88184z M50.49023,38.23535c2.11749,0.05127,4.04034,1.6239,5.02747,4.03387  c-0.78461,0.45551-1.52979,1.013-2.21301,1.66437c-1.97235,1.87848-3.08948,5.22614-3.63605,7.35516  c-1.11206,0.05737-2.15411,0.38599-3.06244,0.92493c-1.43842-2.49847-2.24023-4.81781-2.19995-6.44122  c0.0498-2.09375,0.7373-4.03613,1.93652-5.47168C47.48535,38.93164,48.99316,38.20117,50.49023,38.23535z"></path></svg>