<svg height='100px' width='100px'  fill="#000000" xmlns:dc="http://purl.org/dc/elements/1.1/" xmlns:cc="http://creativecommons.org/ns#" xmlns:rdf="http://www.w3.org/1999/02/22-rdf-syntax-ns#" xmlns:svg="http://www.w3.org/2000/svg" xmlns="http://www.w3.org/2000/svg" xmlns:sodipodi="http://sodipodi.sourceforge.net/DTD/sodipodi-0.dtd" xmlns:inkscape="http://www.inkscape.org/namespaces/inkscape" viewBox="0 0 16.933333 16.933334" version="1.1" x="0px" y="0px"><g transform="translate(0,-280.06665)"><path style="color:#000000;font-style:normal;font-variant:normal;font-weight:normal;font-stretch:normal;font-size:medium;line-height:normal;font-family:sans-serif;font-variant-ligatures:normal;font-variant-position:normal;font-variant-caps:normal;font-variant-numeric:normal;font-variant-alternates:normal;font-feature-settings:normal;text-indent:0;text-align:start;text-decoration:none;text-decoration-line:none;text-decoration-style:solid;text-decoration-color:#000000;letter-spacing:normal;word-spacing:normal;text-transform:none;writing-mode:lr-tb;direction:ltr;text-orientation:mixed;dominant-baseline:auto;baseline-shift:baseline;text-anchor:start;white-space:normal;shape-padding:0;clip-rule:nonzero;display:inline;overflow:visible;visibility:visible;opacity:1;isolation:auto;mix-blend-mode:normal;color-interpolation:sRGB;color-interpolation-filters:linearRGB;solid-color:#000000;solid-opacity:1;vector-effect:none;fill:#000000;fill-opacity:1;fill-rule:nonzero;stroke:none;stroke-width:0.5291667;stroke-linecap:round;stroke-linejoin:round;stroke-miterlimit:4;stroke-dasharray:none;stroke-dashoffset:0;stroke-opacity:1;color-rendering:auto;image-rendering:auto;shape-rendering:auto;text-rendering:auto;enable-background:accumulate" d="m 5.3769346,282.95016 c 0.2938065,-0.56186 0.3945083,-1.18084 0.4304646,-1.82417 H 9.5188 c -0.0335,1.84419 -0.4007216,2.33066 -1.0107905,3.29644 -5.291e-4,7.9e-4 -0.00103,0.002 -0.00156,0.003 -0.7409715,1.17208 -1.9898834,2.49174 -3.1569134,3.7791 -0.8373554,0.92369 -1.6310483,1.82473 -2.1735108,2.682 v -3.25464 c 0.800155,-0.57982 1.8668587,-1.34328 2.7801922,-2.26911 0.9539052,-0.96696 1.7478748,-2.11579 1.8272787,-3.4277 0.011766,-0.15923 -0.1191104,-0.29254 -0.2785362,-0.2837 -0.1355817,0.008 -0.2434304,0.11653 -0.249597,0.25218 -0.067502,1.11527 -0.7669732,2.16634 -1.6758667,3.08767 -0.7626106,0.77304 -1.6525314,1.43941 -2.403471,1.98592 v -1.35289 c 0,-0.35312 -0.5296834,-0.35312 -0.5296834,0 -0.00203,3.35082 0,6.69859 0,10.05262 0,0.43516 0.3580725,0.79478 0.7932333,0.79478 3.3566063,0.003 6.6985548,0 10.0546838,0 0.43516,0 0.792716,-0.35962 0.792716,-0.79478 v -0.79272 c -0.0077,-0.34503 -0.521508,-0.34503 -0.529166,0 v 0.79272 c 0,0.15115 -0.112395,0.26561 -0.26355,0.26561 h -0.626308 c -1.092699,-2.35385 -2.813781,-3.87179 -2.813781,-7.40884 0,-1.54854 0.326732,-2.64948 0.785998,-3.62717 0.08433,-0.17326 -0.03888,-0.37567 -0.23151,-0.38034 -0.106263,-0.003 -0.203751,0.0587 -0.247531,0.15555 -0.483791,1.0299 -0.836124,2.22788 -0.836124,3.85196 0,3.58626 1.701272,5.27684 2.756938,7.40884 H 8.1679787 c -0.2582955,-1.71758 -1.3090533,-3.63779 -1.5549439,-5.8508 -0.01537,-0.13815 -0.1350047,-0.24085 -0.2738853,-0.23513 -0.071843,0.003 -0.139379,0.0351 -0.1870686,0.0889 0,0 -1.4866985,1.67308 -2.4535969,4.38784 -0.1184661,0.3326 0.3802113,0.50985 0.4986774,0.17725 0.7419565,-2.03406 1.5301223,-3.10073 1.9750734,-3.74034 0.3496794,2.02745 1.2251753,3.77058 1.4614094,5.17229 H 6.5670426 l -0.4867918,-2.43344 c -0.02508,-0.12606 -0.1371201,-0.21587 -0.2656171,-0.2129 -0.090756,0.002 -0.1740482,0.0508 -0.2206582,0.12867 0,0 -0.7321995,1.1906 -0.8226889,2.51767 H 3.439585 c -0.1511559,0 -0.2635496,-0.11445 -0.2635499,-0.26561 v -3.65198 c 0.3791376,-0.96957 1.4198889,-2.20085 2.5662517,-3.46542 0.6708021,-0.73996 1.3725854,-1.49379 1.9998781,-2.23914 -0.953379,3.41161 0.3545744,6.59357 1.9290811,9.02684 0.190787,0.29978 0.639469,0.01 0.444417,-0.28732 -1.811448,-2.79945 -3.213565,-6.46645 -1.1544511,-10.36371 0.6010941,-0.95128 1.0547171,-1.59326 1.0857221,-3.5698 h 2.252575 c -0.409223,0.9153 -0.912532,1.6867 -1.384928,2.50785 -0.176045,0.30593 0.282842,0.56999 0.458887,0.26407 0.496153,-0.86244 1.055033,-1.71249 1.500683,-2.77192 h 0.620118 c 0.151155,0 0.263549,0.11239 0.263549,0.26355 v 1.7663 c -1.014494,1.36838 -2.115116,2.84399 -2.115116,5.37796 0,2.57127 1.133279,4.05618 2.160075,5.43895 l 10e-4,0.002 c 0.0022,0.003 0.0045,0.006 0.0067,0.009 0.152365,0.20339 0.475939,0.096 0.476456,-0.15813 v -12.43642 c 0,-0.43516 -0.357556,-0.79323 -0.792716,-0.79323 -3.345739,-0.006 -6.702953,0 -10.054682,0 -0.4351607,0 -0.7932333,0.35807 -0.7932333,0.79323 v 3.14219 c 0,0.23612 0.2203972,0.30446 0.4402834,0.21728 1.1922363,-0.47271 1.8660075,-1.01413 2.2902995,-1.79888 z M 3.439585,281.12599 h 1.8391643 c -0.036052,0.58973 -0.1226572,1.1125 -0.3705201,1.57768 -0.4211905,0.79047 -1.0723957,1.12416 -1.7321941,1.4242 v -2.73833 c 0,-0.15116 0.112394,-0.26355 0.2635499,-0.26355 z m 10.318233,2.92643 v 8.96431 c -0.850818,-1.17951 -1.588016,-2.43578 -1.588016,-4.48293 0,-2.0458 0.73738,-3.30081 1.588016,-4.48138 z m -8.0408526,10.34304 0.3095419,1.54667 H 5.3020035 c 0.045598,-0.58351 0.2328328,-1.12118 0.4149619,-1.54667 z"></path></g></svg>