<svg height='100px' width='100px'  fill="#000000" xmlns:x="http://ns.adobe.com/Extensibility/1.0/" xmlns:i="http://ns.adobe.com/AdobeIllustrator/10.0/" xmlns:graph="http://ns.adobe.com/Graphs/1.0/" xmlns="http://www.w3.org/2000/svg" xmlns:xlink="http://www.w3.org/1999/xlink" version="1.1" x="0px" y="0px" viewBox="0 0 48 48" enable-background="new 0 0 48 48" xml:space="preserve"><g><g i:extraneous="self"><g><path fill="#000000" d="M12.469,44.794c-0.382,0-0.693-0.312-0.693-0.693V27.668c0-0.382,0.312-0.693,0.693-0.693     c0.383,0,0.694,0.312,0.694,0.693v16.433C13.163,44.482,12.852,44.794,12.469,44.794z"></path><path fill="#000000" d="M18.25,44.794c-0.383,0-0.694-0.312-0.694-0.693V27.668c0-0.382,0.312-0.693,0.694-0.693     c0.382,0,0.693,0.312,0.693,0.693v16.433C18.943,44.482,18.632,44.794,18.25,44.794z"></path><path fill="#000000" d="M24.032,44.794c-0.382,0-0.694-0.312-0.694-0.693V27.668c0-0.382,0.312-0.693,0.694-0.693     s0.694,0.312,0.694,0.693v16.433C24.727,44.482,24.414,44.794,24.032,44.794z"></path><path fill="#000000" d="M29.812,44.794c-0.382,0-0.693-0.312-0.693-0.693V27.668c0-0.382,0.312-0.693,0.693-0.693     c0.383,0,0.694,0.312,0.694,0.693v16.433C30.507,44.482,30.195,44.794,29.812,44.794z"></path><path fill="#000000" d="M35.596,44.794c-0.383,0-0.694-0.312-0.694-0.693V27.668c0-0.382,0.312-0.693,0.694-0.693     c0.382,0,0.693,0.312,0.693,0.693v16.433C36.289,44.482,35.978,44.794,35.596,44.794z"></path><polygon fill="none" points="41.324,2.579 41.324,18.977 41.516,18.977 41.516,2.483 6.645,2.388 6.553,18.977 6.74,18.977      6.74,2.579    "></polygon><rect x="8.128" y="3.967" fill="none" width="31.809" height="15.01"></rect><rect x="6.549" y="18.977" fill="#000000" width="0.191" height="0.693"></rect><path fill="#000000" d="M42.903,18.995V2.483C42.903,1.665,42.238,1,41.42,1H6.645C5.826,1,5.161,1.665,5.161,2.483v16.512     c-0.336,0.046-0.603,0.325-0.603,0.675v5.563c0,0.382,0.312,0.693,0.694,0.693h0.062l2.029,20.448     C7.379,46.729,7.679,47,8.034,47h31.994c0.355,0,0.655-0.271,0.69-0.625l2.031-20.448h0.062c0.382,0,0.694-0.312,0.694-0.693     V19.67C43.506,19.32,43.239,19.041,42.903,18.995z M6.645,2.388l34.871,0.096v16.493h-0.191V2.579H6.74v16.397H6.553L6.645,2.388     z M38.673,11.439c-1.357-1.174-3.777-1.297-5.427-1.05c-1.329,0.202-3.049,1.414-3.938,2.104l-0.734-1.068l-3.911,4.806     l-3.735-7.396C20.92,8.821,20.907,8.813,20.899,8.8s-0.009-0.028-0.018-0.041C20.869,8.74,20.85,8.73,20.835,8.713     c-0.02-0.023-0.036-0.048-0.059-0.069c-0.02-0.018-0.04-0.032-0.062-0.048c-0.03-0.022-0.062-0.039-0.096-0.056     c-0.019-0.01-0.031-0.025-0.051-0.033L17.157,7.13c-0.011-0.036-0.824-1.603-0.911-1.665c-0.173-0.368-0.608-0.529-0.978-0.374     l-4.744,2.084c-0.3,0.133-0.464,0.438-0.441,0.747c-0.002,0.109,0.013,0.219,0.065,0.323l0.641,1.27l-1.958,5.3l2.081,4.162     H8.128V3.967h31.809v15.01h-0.369c-0.05-0.115-0.092-0.235-0.2-0.312l-0.169-0.115c0.175-0.397,0.365-0.984,0.461-1.783     C39.887,14.882,39.979,12.57,38.673,11.439z M29.96,14.72l2.158,0.684l5.243,3.573H24.216l0.811-0.996     c0.021-0.021,0.038-0.044,0.056-0.068l3.414-4.192v1.101L29.96,14.72z M32.829,14.183c0.7,0.282,1.617,0.779,2.278,1.582     l-2.272-1.55L32.829,14.183z M37.233,17.212c-0.671-3.729-4.947-4.676-5.137-4.714c-0.226-0.038-0.456,0.023-0.619,0.182     c-0.164,0.158-0.24,0.388-0.202,0.613l0.07,0.423l-0.942-0.31c0.891-0.665,2.187-1.513,3.049-1.645     c1.432-0.216,3.384-0.08,4.311,0.725c0.61,0.528,0.784,1.912,0.521,4.116c-0.062,0.502-0.167,0.865-0.266,1.143L37.233,17.212z      M18.849,9.307l-3.05,2.084l-2.95-2.004l2.979-1.3L18.849,9.307z M15.401,6.683l0.031,0.062L11.755,8.35l-0.027-0.053     L15.401,6.683z M11.928,10.439l2.402,1.63l-3.544,1.459L11.928,10.439z M15.449,13.096l2.929,5.881h-5.913l-1.924-3.848     L15.449,13.096z M16.679,12.454l3.366-2.287l3.658,7.243l-1.274,1.566h-2.501L16.679,12.454z M39.399,45.612H8.663L6.715,25.994     H41.35L39.399,45.612z M42.117,20.955v3.584H5.947v-4.175h34.185h1.985V20.955z"></path></g></g></g></svg>