<svg height='100px' width='100px'  fill="#000000" xmlns="http://www.w3.org/2000/svg" xmlns:xlink="http://www.w3.org/1999/xlink" version="1.1" x="0px" y="0px" viewBox="0 0 100 100" enable-background="new 0 0 100 100" xml:space="preserve"><g><path fill="#000000" d="M99,56.62V43.061H76.626v-4.429h21.534C89.77,5.98,61.102,2.521,61.102,2.521v27.949h24.754   c-6.154-11.347-15.942-15.358-15.942-15.358v8.302h2.656v-1.246c0,0,4.195,2.352,5.313,5.118H65.019V9.024   c0,0,19.718,5.258,26.57,25.32H52.573v-3.32h4.194v-4.012h-3.913V23.69h4.334v-4.15h-4.615v-4.427h4.335V1.83   c0,0-2.521-0.83-6.717-0.83H50.14c-4.195,0-6.73,0.83-6.73,0.83v13.283h4.336v4.427H43.13v4.15h4.334v3.322h-3.916v4.012h4.197   v3.32H8.729C15.583,14.282,35.3,9.024,35.3,9.024v18.263H22.434c1.118-2.767,5.314-5.118,5.314-5.118v1.246h2.656v-8.302   c0,0-9.79,4.012-15.942,15.358h24.752V2.521c0,0-28.667,3.459-37.058,36.11h21.535v4.429H1.318V56.62h22.374v4.427H2.157   c8.391,32.654,37.058,36.111,37.058,36.111V69.209L14.463,69.21c6.152,11.348,15.942,15.357,15.942,15.357v-8.303h-2.656v1.244   c0,0-4.197-2.348-5.314-5.117H35.3v18.264c0,0-19.718-5.258-26.571-25.32h39.017v3.322h-4.197v4.012h3.916v3.32H43.13v4.15h4.615   v4.428H43.41v13.281c0,0,2.535,0.832,6.73,0.832h0.051c4.196,0,6.717-0.832,6.717-0.832V84.568h-4.335V80.14h4.615v-4.15h-4.334   v-3.32h3.913v-4.012h-4.194v-3.322h39.017c-6.853,20.063-26.57,25.32-26.57,25.32V72.392h12.864   c-1.118,2.77-5.313,5.117-5.313,5.117v-1.244h-2.656v8.303c0,0,9.788-4.01,15.942-15.358H61.102v27.948   c0,0,28.668-3.457,37.059-36.111H76.626V56.62H99z M47.327,10.269V5.704h5.667v4.565h-3.15H47.327z M29.425,38.771h41.467v4.151   H29.425V38.771z M52.994,89.41v4.564h-5.667V89.41h2.517H52.994z M70.892,60.908H29.425v-4.15h41.467V60.908z M5.653,52.054v-4.428   h89.012v4.428H5.653z"></path></g></svg>