<svg height='100px' width='100px'  fill="#000000" xmlns="http://www.w3.org/2000/svg" xmlns:xlink="http://www.w3.org/1999/xlink" version="1.1" x="0px" y="0px" viewBox="0 0 512 512" style="enable-background:new 0 0 512 512;" xml:space="preserve"><title>SoftwareDevelopment-coding-programming-webdevelopment-computersoftware</title><path d="M472,16H40c-13.2,0-24,10.8-24,24v352c0,13.2,10.8,24,24,24h165.2L186,480h-26v16h192v-16h-26l-19.2-64H472  c13.2,0,24-10.8,24-24V40C496,26.8,485.2,16,472,16z M309.2,480H202.8l19.2-64H290L309.2,480z M480,392c0,4.4-3.6,8-8,8H40  c-4.4,0-8-3.6-8-8v-24h448V392z M480,352H32V40c0-4.4,3.6-8,8-8h432c4.4,0,8,3.6,8,8V352z"></path><path d="M440,152H334.6c-2.1,0-4.2-0.8-5.7-2.3L306.3,127c-4.5-4.5-10.6-7-17-7H200c-13.2,0-24,10.8-24,24v168c0,13.2,10.8,24,24,24  h240c13.2,0,24-10.8,24-24V176C464,162.8,453.2,152,440,152z M448,312c0,4.4-3.6,8-8,8H200c-4.4,0-8-3.6-8-8V144c0-4.4,3.6-8,8-8  h89.4c2.1,0,4.2,0.8,5.7,2.3l22.6,22.6c4.5,4.5,10.6,7,17,7H440c4.4,0,8,3.6,8,8V312z"></path><polygon points="266.3,194.3 220.7,240 266.3,285.7 277.7,274.3 243.3,240 277.7,205.7 "></polygon><rect x="282.8" y="236" transform="matrix(0.4856 -0.8742 0.8742 0.4856 -46.6368 408.7433)" width="82.4" height="16"></rect><polygon points="362.3,205.7 396.7,240 362.3,274.3 373.7,285.7 419.3,240 373.7,194.3 "></polygon><polygon points="202.8,64 215.7,94.2 244.3,106.1 274.9,93.8 290.7,109.7 302,98.3 278.8,75.1 244.4,88.8 227.9,81.9 213.3,48   170.7,48 156.1,81.9 139.6,88.8 105.2,75.1 75.1,105.2 88.8,139.6 81.9,156.1 48,170.7 48,213.3 81.9,227.9 88.8,244.4 75.1,278.8   105.2,308.9 139.6,295.2 156.9,302.4 163.1,287.6 139.7,277.9 109.1,290.2 93.8,274.9 106.1,244.3 94.2,215.7 64,202.8 64,181.2   94.2,168.3 106.1,139.7 93.8,109.1 109.1,93.8 139.7,106.1 168.3,94.2 181.2,64 "></polygon><path d="M163.6,134.6l-7.1-14.3c-39.6,19.7-55.7,67.7-36.1,107.3c7.8,15.6,20.4,28.3,36.1,36.1l7.1-14.3  c-31.7-15.7-44.6-54.1-28.9-85.8C140.9,151,151,140.9,163.6,134.6z"></path></svg>