<svg height='100px' width='100px'  fill="#000000" xmlns="http://www.w3.org/2000/svg" xmlns:xlink="http://www.w3.org/1999/xlink" version="1.1" x="0px" y="0px" viewBox="0 0 64 64" style="enable-background:new 0 0 64 64;" xml:space="preserve"><path d="M44.825,39.168c-0.304-0.304-0.367-0.76-0.183-1.148c0.205-0.433,0.388-0.878,0.548-1.334C45.333,36.28,45.703,36,46.133,36  H49v-8h-2.867c-0.43,0-0.8-0.28-0.943-0.686c-0.161-0.456-0.343-0.901-0.548-1.334c-0.184-0.388-0.12-0.845,0.183-1.148l2.025-2.025  l-5.657-5.657l-2.025,2.025c-0.304,0.304-0.76,0.367-1.148,0.183c-0.433-0.205-0.878-0.388-1.334-0.548  C36.28,18.667,36,18.297,36,17.867V15h-8v2.867c0,0.43-0.28,0.8-0.686,0.943c-0.456,0.161-0.901,0.343-1.334,0.548  c-0.388,0.184-0.845,0.12-1.148-0.183l-2.025-2.025l-5.657,5.657l2.025,2.025c0.304,0.304,0.367,0.76,0.183,1.148  c-0.205,0.433-0.388,0.878-0.548,1.334C18.667,27.72,18.297,28,17.867,28H15v8h2.867c0.43,0,0.8,0.28,0.943,0.686  c0.161,0.456,0.343,0.901,0.548,1.334c0.184,0.388,0.12,0.845-0.183,1.148l-2.025,2.025l5.657,5.657l2.025-2.025  c0.304-0.304,0.76-0.367,1.148-0.183c0.433,0.205,0.878,0.388,1.334,0.548C27.72,45.333,28,45.703,28,46.133V49h8v-2.867  c0-0.43,0.28-0.8,0.686-0.943c0.456-0.161,0.901-0.343,1.334-0.548c0.388-0.184,0.845-0.12,1.148,0.183l2.025,2.025l5.657-5.657  L44.825,39.168z M32,42c-5.523,0-10-4.477-10-10c0-5.523,4.477-10,10-10s10,4.477,10,10C42,37.523,37.523,42,32,42z"></path><circle cx="32" cy="27" r="3"></circle><path d="M33,30h-1h-1c-2.209,0-4,1.791-4,4v4h10v-4C37,31.791,35.209,30,33,30z"></path><circle cx="7" cy="5" r="3"></circle><path d="M12,12c0-2.209-1.791-4-4-4H7H6c-2.209,0-4,1.791-4,4v2h10V12z"></path><circle cx="57" cy="5" r="3"></circle><path d="M52,12v2h10v-2c0-2.209-1.791-4-4-4h-1h-1C53.791,8,52,9.791,52,12z"></path><circle cx="7" cy="53" r="3"></circle><path d="M12,60c0-2.209-1.791-4-4-4H7H6c-2.209,0-4,1.791-4,4v2h10V60z"></path><circle cx="57" cy="53" r="3"></circle><path d="M62,60c0-2.209-1.791-4-4-4h-1h-1c-2.209,0-4,1.791-4,4v2h10V60z"></path><path d="M5,46c0.256,0,0.512-0.098,0.707-0.293l3-3l-1.414-1.414L6,42.586V36h6v-2H5c-0.553,0-1,0.447-1,1v7.586l-1.293-1.293  l-1.414,1.414l3,3C4.488,45.902,4.744,46,5,46z"></path><path d="M61.293,41.293L60,42.586V35c0-0.553-0.447-1-1-1h-7v2h6v6.586l-1.293-1.293l-1.414,1.414l3,3  C58.488,45.902,58.744,46,59,46s0.512-0.098,0.707-0.293l3-3L61.293,41.293z"></path><path d="M59.707,18.293c-0.391-0.391-1.023-0.391-1.414,0l-3,3l1.414,1.414L58,21.414V28h-6v2h7c0.553,0,1-0.447,1-1v-7.586  l1.293,1.293l1.414-1.414L59.707,18.293z"></path><path d="M4,21.414V29c0,0.553,0.447,1,1,1h7v-2H6v-6.586l1.293,1.293l1.414-1.414l-3-3c-0.391-0.391-1.023-0.391-1.414,0l-3,3  l1.414,1.414L4,21.414z"></path></svg>