<svg height='100px' width='100px'  fill="#000000" xmlns="http://www.w3.org/2000/svg" viewBox="0 0 512 512" x="0px" y="0px"><title>spices</title><path d="M485.48,464.49C471.41,449,460.3,431.13,451.59,412.1c-19.85-43.36-49.52-64.26-73.68-74.34a86.75,86.75,0,0,0-66.18.2c-11.85,4.84-23.62,10.17-35.1,15.74a15.85,15.85,0,0,0-8.8,16.1c4.55,39.07,8.36,72.49,10.79,93.91.05.45.09.9.13,1.35a31.75,31.75,0,0,0,31.72,29H473.83a17,17,0,0,0,12.53-28.57ZM311.31,388.16a11.69,11.69,0,0,1-1.58,1.29,10.23,10.23,0,0,1-1.79.95A9.63,9.63,0,0,1,306,391a10,10,0,0,1-4.07,0,9.83,9.83,0,0,1-1.94-.59,9.48,9.48,0,0,1-1.78-.95,10.66,10.66,0,0,1-1.59-1.29,10.43,10.43,0,0,1-1.29-1.59,9.89,9.89,0,0,1-.95-1.79,9.74,9.74,0,0,1-.59-1.93,10.24,10.24,0,0,1-.21-2,10.46,10.46,0,0,1,3-7.34,10.64,10.64,0,0,1,3.37-2.24,9.83,9.83,0,0,1,1.94-.59,9.63,9.63,0,0,1,4.07,0,9.44,9.44,0,0,1,1.94.59,10.23,10.23,0,0,1,1.79.95,10.33,10.33,0,0,1,4.62,8.63A10.47,10.47,0,0,1,311.31,388.16Zm31.27,20.76a9.63,9.63,0,0,1-.59,1.94,10.23,10.23,0,0,1-.95,1.79,10.35,10.35,0,0,1-1.29,1.58,10.49,10.49,0,0,1-7.35,3,10.76,10.76,0,0,1-2-.21,11.62,11.62,0,0,1-1.94-.58,12.43,12.43,0,0,1-1.8-1,10.27,10.27,0,0,1-1.57-1.29,11.69,11.69,0,0,1-1.29-1.58,10.23,10.23,0,0,1-.95-1.79,9.63,9.63,0,0,1-.59-1.94,10,10,0,0,1,0-4.07,9.83,9.83,0,0,1,.59-1.94,9.48,9.48,0,0,1,.95-1.78,10.66,10.66,0,0,1,1.29-1.59,10.27,10.27,0,0,1,1.57-1.29,10.69,10.69,0,0,1,1.8-.95,10.83,10.83,0,0,1,1.94-.6,10.49,10.49,0,0,1,9.38,2.84,10.64,10.64,0,0,1,2.24,3.37,10.6,10.6,0,0,1,.8,4A10,10,0,0,1,342.58,408.92Zm12.24-39.08a9.44,9.44,0,0,1-.59,1.94,9.57,9.57,0,0,1-1,1.79,11.78,11.78,0,0,1-1.29,1.59,10,10,0,0,1-1.59,1.29,10.85,10.85,0,0,1-1.78.95,12.74,12.74,0,0,1-1.94.6,11,11,0,0,1-4.07,0,11,11,0,0,1-3.74-1.55,10.77,10.77,0,0,1-1.57-1.29,9.35,9.35,0,0,1-1.29-1.59,9.57,9.57,0,0,1-.95-1.79,9.44,9.44,0,0,1-.59-1.94,9.24,9.24,0,0,1-.21-2,9.36,9.36,0,0,1,.21-2,9.63,9.63,0,0,1,.59-1.94,10.23,10.23,0,0,1,.95-1.79,9.28,9.28,0,0,1,1.29-1.58,9.62,9.62,0,0,1,1.57-1.29,10.73,10.73,0,0,1,3.74-1.56,10.72,10.72,0,0,1,4.07,0,12.74,12.74,0,0,1,1.94.6,10.9,10.9,0,0,1,1.78,1,9,9,0,0,1,1.59,1.29,11.69,11.69,0,0,1,1.29,1.58,10.23,10.23,0,0,1,1,1.79,9.63,9.63,0,0,1,.59,1.94,10,10,0,0,1,.21,2A9.9,9.9,0,0,1,354.82,369.84Z"></path><path d="M138.71,49.79c-28.14,0-51.41,22.08-54.14,50.1h0a8.37,8.37,0,0,0,8.33,9.17h91.79A8.37,8.37,0,0,0,193,99.89l-.1-1A54.38,54.38,0,0,0,138.71,49.79Z"></path><path d="M94.46,438.18h92.27a17.2,17.2,0,0,0,17.08-19.06l-2.6-23.74L193.5,325a24.86,24.86,0,0,0-22.68-22.1,278.14,278.14,0,0,1-31.56-4.23c-11.21-2.2-23.32-7.16-36-14.74a9.86,9.86,0,0,0-9.7-.28,10.16,10.16,0,0,0-5.57,8.3L77.33,419.56a17.2,17.2,0,0,0,17.13,18.62Zm50.28-107.93a10.62,10.62,0,0,1,.59-1.94,12.37,12.37,0,0,1,.95-1.8,11.59,11.59,0,0,1,1.29-1.57,10.43,10.43,0,0,1,1.59-1.29,10.6,10.6,0,0,1,1.79-1,11,11,0,0,1,2-.6,10.48,10.48,0,0,1,9.36,2.85,9.21,9.21,0,0,1,1.29,1.57,10.06,10.06,0,0,1,1,1.8,10.59,10.59,0,0,1,.6,6,11.71,11.71,0,0,1-.6,1.94,9.26,9.26,0,0,1-1,1.78,9,9,0,0,1-1.29,1.59,12.24,12.24,0,0,1-1.57,1.29,10.32,10.32,0,0,1-1.8.95,9.26,9.26,0,0,1-1.94.59,9.87,9.87,0,0,1-4,0,9.53,9.53,0,0,1-2-.59,9.89,9.89,0,0,1-1.79-.95,11.78,11.78,0,0,1-1.59-1.29,10.64,10.64,0,0,1-2.24-3.37,11.66,11.66,0,0,1-.59-1.94,10,10,0,0,1,0-4.07Zm-40.2-7.13a10.75,10.75,0,0,1,1.55-3.74,10.35,10.35,0,0,1,1.29-1.58,10.49,10.49,0,0,1,9.38-2.83,10.32,10.32,0,0,1,1.94.59,11,11,0,0,1,1.79.95,10.35,10.35,0,0,1,1.58,1.29,11.69,11.69,0,0,1,1.29,1.58,10.48,10.48,0,0,1,1.54,3.74,10.36,10.36,0,0,1-.59,6,10,10,0,0,1-1,1.8,11.59,11.59,0,0,1-1.29,1.57,10.35,10.35,0,0,1-1.58,1.29,10.23,10.23,0,0,1-1.79,1,10.36,10.36,0,0,1-1.94.6,10.69,10.69,0,0,1-2,.2,10.46,10.46,0,0,1-7.34-3,10.27,10.27,0,0,1-1.29-1.57,10,10,0,0,1-1-1.8,10.3,10.3,0,0,1-.6-6Zm-2.4,39.31a11.71,11.71,0,0,1,.6-1.94,10.06,10.06,0,0,1,1-1.8,9.62,9.62,0,0,1,1.29-1.57,10.39,10.39,0,0,1,14.69,0,12.24,12.24,0,0,1,1.29,1.57,10.69,10.69,0,0,1,1,1.8,11.66,11.66,0,0,1,.59,1.94,10,10,0,0,1,0,4.07,11.12,11.12,0,0,1-.59,1.94,10.69,10.69,0,0,1-1,1.8,12.24,12.24,0,0,1-1.29,1.57,10.39,10.39,0,0,1-14.69,0,9.62,9.62,0,0,1-1.29-1.57,10.06,10.06,0,0,1-1-1.8,11.15,11.15,0,0,1-.6-1.94,11,11,0,0,1,0-4.07Z"></path><path d="M44.6,494H233a25.14,25.14,0,0,0,25-28c-2.56-22.57-6.5-57.08-11.15-97.05-7.79-66.89-17.59-149.08-26.29-216.3a26.21,26.21,0,0,0-24.6-22.8c-.47,0-.95-.07-1.43-.07H83.08c-.49,0-1,0-1.44.07a26.21,26.21,0,0,0-24.59,22.8c-13.91,107.39-30.61,253-37.44,313.35A25.14,25.14,0,0,0,44.6,494Zm12-76.19L67.31,290.18A31,31,0,0,1,114,266.07c10.6,6.34,20.46,10.44,29.31,12.18a260,260,0,0,0,29.19,3.91,45.62,45.62,0,0,1,41.69,40.53l6.68,60.94,3.64,33.23A38,38,0,0,1,186.73,459H94.46a38,38,0,0,1-37.83-41.12Z"></path><path d="M479,149a77.45,77.45,0,0,1-20.4,8.28A119.92,119.92,0,0,1,432.43,161c-57.88,2.2-76.89,36.75-83.09,61.24a238.43,238.43,0,0,0-43.47,33.68A155,155,0,0,0,304,224a37.1,37.1,0,0,0-2.07-7.68v0a225.62,225.62,0,0,1-11-36.89c-9.65-47.41,2.79-75,3.47-76.47a10.39,10.39,0,0,1,18.84,8.75c-.29.65-13.71,32.17,4.07,86a6.33,6.33,0,0,0,10.12,2.84C345.7,185,364.32,159,363.09,117.52A131.55,131.55,0,0,0,342,50.72a236,236,0,0,0-22.12-29.47,9.75,9.75,0,0,0-16.86,4.62,93,93,0,0,1-20.66,43s-49.78,59.73-6.65,128.36c6.65,18.51,17.88,60.68-.83,97.44-1.84,3.13-2.81,5.09-3,5.51a10.38,10.38,0,0,0,18.29,9.8q1.49-2.52,2.81-5.07c5.17-9.06,12.57-18.42,20.22-27a215.82,215.82,0,0,1,62.53-47.88c7.43-3.81,15-7.5,21.05-10,2-.85,4.12-1.43,6.15-2.23A118.55,118.55,0,0,0,420.88,209c4.85-2.93,11.33-1.83,14.46,2.9a10.38,10.38,0,0,1-3.26,14.6,139.42,139.42,0,0,1-28.76,13.32,120.85,120.85,0,0,0-28,13.42,4.46,4.46,0,0,0,1.55,8.09,125.06,125.06,0,0,0,17.24,2.25c78.6,7.28,95.17-66.24,98.4-106.13A9,9,0,0,0,479,149Z"></path></svg>