<?xml version="1.0" encoding="utf-8"?>
<!-- Generator: Adobe Illustrator 24.2.1, SVG Export Plug-In . SVG Version: 6.00 Build 0)  -->
<svg version="1.1" id="Layer_1" xmlns="http://www.w3.org/2000/svg" xmlns:xlink="http://www.w3.org/1999/xlink" x="0px" y="0px"
	 viewBox="0 0 100 100" enable-background="new 0 0 100 100" xml:space="preserve">
<g>
	<path fill-rule="evenodd" clip-rule="evenodd" d="M88.185,66.873c3.119,0.013,7.687,2.324,11.815,6.562
		c-4.119-1.17-8.334-1.11-10.996-0.068c-2.342-0.568-2.187-1.074-7.616,2.944c-2.334-7.986,4.037-9.252,4.03-9.25
		C72.871,39.305,55.656,40.913,31.001,37.343c1.636,1.447-0.409,3.788,7.536,7.245c-5.813,0.639-10.431,1.128-14.846-8.485
		C17.84,35.235,1.37,37.245,0.344,36.414c-1.898-1.538,4.611-3.134,6.142-7.584c3.516-10.217,28.64-17.377,40.334-11.098
		c4.444,2.387,16.512-0.93,21.002,1.943c0.604,0.387-7.653,1.658-5.258,4.783C67.951,31.486,91.202,56.405,88.185,66.873z
		 M10.743,28.311c-2.91-0.514-2.852,2.788,0.034,0.263C11.012,28.369,10.958,28.35,10.743,28.311z"/>
	<path fill-rule="evenodd" clip-rule="evenodd" d="M78.327,78.935c1.879,0.008,4.632,1.401,7.12,3.954
		c-2.482-0.705-5.022-0.669-6.626-0.041c-1.412-0.343-1.318-0.647-4.589,1.773c-1.406-4.812,2.432-5.575,2.428-5.574
		c-7.561-16.725-17.935-15.756-32.791-17.908c0.986,0.872-0.246,2.283,4.541,4.366c-3.503,0.385-6.285,0.68-8.946-5.113
		c-3.526-0.523-13.45,0.689-14.068,0.188c-1.144-0.926,2.779-1.888,3.701-4.57c2.118-6.157,17.258-10.472,24.305-6.687
		c2.678,1.438,9.95-0.561,12.656,1.171c0.364,0.233-4.612,0.999-3.169,2.882C66.134,57.612,80.145,72.628,78.327,78.935z
		 M31.661,55.699c-1.753-0.31-1.719,1.68,0.021,0.159C31.823,55.733,31.791,55.722,31.661,55.699z"/>
</g>
</svg>
