<svg height='100px' width='100px'  fill="#000000" xmlns="http://www.w3.org/2000/svg" xmlns:xlink="http://www.w3.org/1999/xlink" version="1.1" x="0px" y="0px" viewBox="0 0 512 512" enable-background="new 0 0 512 512" xml:space="preserve"><g><path d="M427.524,298.863h-50.021h-117.15l-0.004-33.363c0.084,0.068,0.172,0.131,0.261,0.192c0.066,0.044,0.132,0.086,0.2,0.127   c0.14,0.083,0.285,0.155,0.436,0.222c0.064,0.028,0.127,0.062,0.193,0.086c0.203,0.077,0.413,0.142,0.631,0.185   c0.009,0.002,0.017,0.003,0.025,0.005c0.008,0.001,0.015,0.003,0.022,0.004c15.883,3.155,31.01,4.755,44.965,4.755   c35.373,0,63.281-9.975,82.946-29.644c27.524-27.477,36.129-71.745,24.885-128.019c-0.317-1.585-1.558-2.824-3.143-3.14   c-15.901-3.161-31.048-4.764-45.018-4.764c-35.373,0-63.282,9.975-82.948,29.643c-10.711,10.688-18.542,23.929-23.468,39.42   l-0.011-79.483c0.047-0.058,0.094-0.116,0.137-0.177c0.04-0.056,0.073-0.115,0.11-0.173c0.092-0.143,0.174-0.291,0.246-0.444   c0.034-0.073,0.068-0.144,0.098-0.218c0.066-0.166,0.119-0.337,0.163-0.513c0.014-0.053,0.033-0.104,0.044-0.156   c0.003-0.012,0.008-0.023,0.01-0.035c5.684-28.574,1.247-51.123-12.835-65.213c-10.141-10.101-24.445-15.223-42.517-15.223   c-7.058,0-14.692,0.807-22.69,2.399c-1.587,0.315-2.827,1.556-3.143,3.143c-5.67,28.521-1.215,51.053,12.883,65.16   c10.139,10.134,24.437,15.273,42.498,15.274c0.001,0,0.001,0,0.002,0c5.359,0,11.056-0.47,16.995-1.395l0.014,100.006   c-3.378-7.916-7.995-14.851-13.845-20.701c-13.756-13.71-33.194-20.661-57.773-20.661c-9.657,0-20.109,1.108-31.066,3.293   c-1.586,0.316-2.826,1.558-3.141,3.144c-7.74,39.002-1.715,69.708,17.415,88.791c13.702,13.735,33.13,20.7,57.744,20.7   c0,0,0,0,0.001,0c9.532,0,19.853-1.081,30.676-3.207l0.004,29.98H135.206H85.178c-2.209,0-4,1.791-4,4v50.025v92.852v50.025v0.001   c0,2.209,1.791,4,4,4h50.028c0.007-0.001,0.014-0.001,0.02,0c0.003,0,0.006-0.001,0.01-0.001h242.257   c0.003,0,0.007,0.001,0.01,0.001h50.021c2.209,0,4-1.791,4-4v-0.001V445.74v-92.852v-50.025   C431.524,300.654,429.733,298.863,427.524,298.863z M289.458,140.811c18.115-18.117,44.121-27.303,77.295-27.303   c12.68,0,26.401,1.379,40.827,4.101c9.921,52.265,1.917,93.082-23.207,118.163c-18.112,18.117-44.117,27.303-77.291,27.303   c-11.317,0-23.471-1.106-36.208-3.278l17.371-18.131l59.624-9.441c2.182-0.345,3.67-2.395,3.325-4.576   c-0.347-2.182-2.396-3.672-4.577-3.325l-49.223,7.794l29.846-31.15c0.04-0.043,0.084-0.081,0.121-0.125l37.64-39.284   c1.528-1.595,1.474-4.127-0.121-5.656c-1.595-1.528-4.127-1.474-5.656,0.121l-31.661,33.043l-3.868-47.814   c-0.179-2.202-2.114-3.835-4.31-3.664c-2.202,0.178-3.843,2.107-3.665,4.31l4.441,54.894l-54.8,57.194   C256.861,204.104,265.136,165.082,289.458,140.811z M235.33,90.913c-15.863,0-28.258-4.352-36.84-12.931   c-11.703-11.709-15.553-30.794-11.192-55.299c6.518-1.16,12.725-1.747,18.485-1.747c15.879,0,28.284,4.337,36.865,12.884   c10.86,10.866,14.926,28.141,11.932,50.244L225.462,53.68c-1.528-1.595-4.061-1.648-5.656-0.121   c-1.595,1.529-1.649,4.061-0.121,5.656l29.413,30.693c-4.807,0.666-9.417,1.005-13.767,1.005   C235.331,90.913,235.33,90.913,235.33,90.913z M221.673,264.09c-22.411,0-39.933-6.174-52.087-18.357   c-16.735-16.694-22.154-43.953-15.729-78.938c9.478-1.747,18.503-2.632,26.864-2.632c22.386,0,39.923,6.167,52.121,18.323   c15.933,15.933,21.591,41.403,16.539,73.954l-16.026-16.694l2.342-36.197c0.143-2.205-1.529-4.107-3.733-4.25   c-2.197-0.136-4.107,1.529-4.25,3.733l-1.869,28.891l-39.509-41.154c-1.53-1.594-4.063-1.645-5.656-0.116   c-1.594,1.53-1.646,4.063-0.116,5.656l15.036,15.662l-21.12,7.975c-2.066,0.78-3.109,3.088-2.329,5.155   c0.605,1.602,2.126,2.588,3.743,2.588c0.47,0,0.947-0.083,1.413-0.259l24.319-9.183l42.248,44.007   C236.088,263.468,228.644,264.09,221.673,264.09z M381.674,491.766c0.922-10.775,5.563-20.786,13.302-28.531   c7.744-7.752,17.762-12.401,28.549-13.324v41.855H381.674z M389.315,457.58c-9.247,9.256-14.711,21.274-15.651,34.186H139.046   c-0.942-12.906-6.416-24.925-15.678-34.188c-9.262-9.263-21.282-14.735-34.19-15.677v-85.174   c12.913-0.939,24.933-6.403,34.189-15.653c9.264-9.256,14.736-21.283,15.677-34.211h234.619   c0.939,12.932,6.403,24.959,15.652,34.21c9.251,9.252,21.277,14.716,34.208,15.654v85.174   C410.599,442.842,398.571,448.314,389.315,457.58z M89.178,491.766v-41.854c10.771,0.924,20.783,5.573,28.533,13.324   c7.75,7.75,12.399,17.761,13.324,28.53H89.178z M423.524,306.863v41.855c-10.792-0.921-20.812-5.563-28.55-13.302   c-7.739-7.74-12.381-17.76-13.302-28.554H423.524z M89.178,306.863h41.857c-0.923,10.788-5.572,20.807-13.323,28.552   c-7.746,7.739-17.758,12.382-28.535,13.304V306.863z"></path><path d="M256.325,338.047c-33.757,0-61.221,27.484-61.221,61.268c0,33.789,27.464,61.279,61.221,61.279   c33.786,0,61.273-27.49,61.273-61.279C317.599,365.531,290.111,338.047,256.325,338.047z M256.325,452.594   c-29.346,0-53.221-23.901-53.221-53.279c0-29.372,23.875-53.268,53.221-53.268c29.375,0,53.273,23.896,53.273,53.268   C309.599,428.692,285.7,452.594,256.325,452.594z"></path><path d="M259.088,392.438v-14.609c2.453,1.044,3.914,3.074,4.537,5.997l9.493-1.244c-0.622-3.709-2.188-6.735-4.536-8.978   c-2.348-2.195-5.475-3.545-9.494-4.015v-3.708h-5.427v3.708c-4.272,0.411-7.663,1.985-10.222,4.8   c-2.558,2.758-3.86,6.209-3.86,10.27c0,4.023,1.097,7.464,3.391,10.279c2.241,2.816,5.845,4.953,10.691,6.313v15.644   c-1.349-0.623-2.552-1.666-3.649-3.123c-1.092-1.408-1.878-3.133-2.242-5.117l-9.752,1.15c0.781,4.846,2.5,8.602,5.164,11.313   c2.71,2.664,6.208,4.224,10.479,4.752v6.889h5.427v-6.947c4.906-0.773,8.714-2.711,11.426-5.784   c2.769-3.075,4.118-6.889,4.118-11.373c0-4.071-1.044-7.357-3.233-9.902C269.21,396.135,265.092,394.045,259.088,392.438z    M253.662,390.666c-1.614-0.74-2.817-1.621-3.597-2.77c-0.781-1.15-1.145-2.348-1.145-3.649c0-1.468,0.411-2.771,1.25-3.968   c0.886-1.196,2.036-2.088,3.491-2.604h0.001V390.666z M263.684,414.863c-1.203,1.361-2.717,2.242-4.596,2.664v-14.656   c2.295,0.669,3.861,1.561,4.906,2.816c0.939,1.196,1.461,2.604,1.461,4.271C265.455,411.836,264.88,413.455,263.684,414.863z"></path><path d="M112.093,161.698c10.116,0,18.346-8.206,18.346-18.293c0-10.087-8.23-18.294-18.346-18.294   c-10.083,0-18.286,8.207-18.288,18.294C93.805,153.492,102.009,161.698,112.093,161.698z M112.093,133.111   c5.705,0,10.346,4.618,10.346,10.294c0,5.676-4.641,10.293-10.346,10.293c-5.672,0-10.288-4.617-10.288-10.292   C101.806,137.729,106.421,133.111,112.093,133.111z"></path><path d="M400.034,61.068c10.087,0,18.294-8.206,18.294-18.293c0-10.087-8.207-18.294-18.294-18.294s-18.293,8.207-18.293,18.294   C381.741,52.862,389.947,61.068,400.034,61.068z M400.034,32.481c5.676,0,10.294,4.618,10.294,10.294   c0,5.676-4.618,10.293-10.294,10.293s-10.293-4.617-10.293-10.293C389.741,37.099,394.358,32.481,400.034,32.481z"></path></g></svg>