<svg height='100px' width='100px'  fill="#000000" xmlns="http://www.w3.org/2000/svg" xmlns:xlink="http://www.w3.org/1999/xlink" version="1.1" x="0px" y="0px" viewBox="0 0 512 512" enable-background="new 0 0 512 512" xml:space="preserve"><g><path d="M256,0C139.167,0,44.467,94.708,44.467,211.533C44.467,372.184,256,512,256,512s211.533-139.816,211.533-300.467   C467.533,94.708,372.833,0,256,0z M256,375.941c-90.8,0-164.4-73.6-164.4-164.408c0-90.8,73.601-164.408,164.4-164.408   s164.417,73.608,164.417,164.408C420.417,302.342,346.8,375.941,256,375.941z"></path><path d="M244.758,176.25c1.758-4.816,2.733-10.05,2.733-15.5c0-24.934-20.208-45.133-45.149-45.133   c-3.867,0-7.625,0.483-11.208,1.4l26.575,26.583c4.35,4.333,0.717,15-8.092,23.817c-8.816,8.816-19.483,12.45-23.816,8.1   l-26.934-26.933c-1.091,3.867-1.666,7.966-1.666,12.167c0,24.934,20.208,45.15,45.142,45.15c5.45,0,10.667-0.967,15.5-2.75   L320.991,306.3c3.441,3.45,8.191,5.583,13.45,5.583c10.509,0,19.025-8.516,19.025-19.033c0-5.25-2.134-10-5.567-13.449   L244.758,176.25z M334.441,300.383c-4.149,0-7.524-3.383-7.524-7.533c0-4.149,3.366-7.516,7.524-7.516s7.525,3.366,7.525,7.516   C341.967,297,338.6,300.383,334.441,300.383z"></path><path d="M330.899,115.617c-6.25,0-11.908,2.533-15.991,6.633l-55.142,55.133l6.95,6.933l46.25-46.25l6.008,6.017l-46.258,46.25   l6.017,6.017l46.258-46.25l6.018,6.017l-46.268,46.25l6.95,6.95l55.158-55.183c4.092-4.083,6.617-9.716,6.617-15.95   C353.467,125.717,343.366,115.617,330.899,115.617z"></path><polygon points="185.433,272.816 174.241,274.117 157.2,301.033 167.842,311.684 167.983,311.55 168.025,311.883 194.95,294.834    196.3,283.217 240.15,239.333 229.5,228.7  "></polygon></g></svg>