<svg height='100px' width='100px'  fill="#000000" xmlns="http://www.w3.org/2000/svg" xmlns:xlink="http://www.w3.org/1999/xlink" version="1.1" x="0px" y="0px" viewBox="0 0 100 100" style="enable-background:new 0 0 100 100;" xml:space="preserve"><polygon points="52.8,51.6 67.2,61.2 94.9,46.9 85.3,34.9 "></polygon><path d="M67.1,64.3c-0.3,0-0.6-0.1-0.8-0.2l-14.9-9.9V95l24.4-12.9L78,69.6l2-11.8l-12.2,6.3C67.6,64.2,67.4,64.3,67.1,64.3z"></path><polygon points="47.2,51.6 14.7,34.9 5.1,46.9 32.8,61.2 "></polygon><polygon points="56.2,12.3 52.8,14.5 85.3,31.3 94.9,19.3 67.2,5 "></polygon><path d="M46.2,46.6c0.2,0.5,0.4,1,0.5,1.6l3.3,1.7l5.2-2.7C52.4,45.8,49.1,45.6,46.2,46.6z"></path><path d="M32.9,64.3c-0.2,0-0.4-0.1-0.7-0.2L20,57.8l2,11.8l2.1,12.5L48.6,95V54.1L33.6,64C33.4,64.2,33.1,64.3,32.9,64.3z"></path><path d="M47.6,43.3c-0.8-1.4-1.8-2.7-3-3.9c-3.2-3.2-7.4-4.9-11.8-4.9c-0.2,0-0.2,0-0.3,0c-0.7,0-1.4,0.1-2.2,0.2c-2,0.3-4,1-5.8,2  l3.1,1.6c5-2,11-0.9,15,2.9c0.9,0.8,1.7,1.8,2.3,2.8C45.8,43.7,46.7,43.4,47.6,43.3z"></path><path d="M53.5,43.5c0.5-1.2,1-2.4,1.6-3.5c-1.2-0.2-2.5-0.4-3.8-0.5c-0.9-0.1-1.8-0.1-2.8,0c0.8,1.1,1.6,2.3,2.2,3.6  C51.6,43.2,52.6,43.3,53.5,43.5z"></path><path d="M50.7,36.7c-1.9-2.2-4.2-3.7-6.6-4.5c-2.3-0.7-4.6-0.7-6.8,0c3.3,0.8,6.3,2.4,8.8,4.7C46.2,36.9,49.3,36.6,50.7,36.7z"></path><path d="M68,31c-5.7-2.3-11.1,1.2-14.1,6c0.4,0.1,0.8,0.1,1.2,0.2c0.6,0.1,1.2,0.2,1.8,0.4C59.5,33.9,63.5,31.2,68,31z"></path><path d="M59.8,44.8c1.6-4.7,5-9.1,9.7-11c-4.1-0.4-8.1,1.8-11,6c0,0,0,0,0,0c-0.9,1.4-1.7,2.9-2.4,4.6c0.7,0.3,1.4,0.7,2,1.2  L59.8,44.8z"></path><path d="M52.3,34.2c0.9-1.2,1.9-2.3,3-3.3c-0.9-0.3-1.8-0.5-2.8-0.6c0,0,0,0,0,0c-1.5-0.1-3,0-4.5,0.5C49.6,31.7,51,32.9,52.3,34.2z  "></path><path d="M32.9,40.2c-0.5,0-0.9,0-1.4,0.1l11.4,5.9C40.9,42.5,37.1,40.2,32.9,40.2z"></path><path d="M58,29c0.6-0.3,1.2-0.6,1.9-0.8c-2.3-2.3-5.3-3.6-8.5-3.6c-0.7,0-1.3,0.1-2,0.2c1.2,0.6,3.1,2,3.9,2.8  C54.9,27.7,56.6,28.2,58,29z"></path><path d="M75.3,36.2c-0.6-0.1-1.2-0.2-1.7-0.2c-3.6,0-7.3,2.7-9.6,6.8l12.2-6.3C75.9,36.3,75.6,36.2,75.3,36.2z"></path><path d="M42.9,25.9c-3.8,0-7.2,1.8-9.7,5c3.3-2,7.4-2.6,11.1-1.7c1.1-0.7,3.1-1.4,4.5-1.7c-1.2-0.7-2.5-1.2-3.9-1.5  C44.1,26,43.5,25.9,42.9,25.9z"></path><polygon points="47.2,14.5 43.8,12.3 32.8,5 5.1,19.3 14.7,31.3 "></polygon><path d="M79.4,34.8l3.2-1.7L50,16.3L17.4,33.1l4.2,2.2c2.3-1.6,4.8-2.7,7.5-3.2c2.8-5.5,8-9,13.7-9c0.7,0,1.3,0.1,2.1,0.2  c2.1-1.1,4.2-1.6,6.5-1.6c4.5,0,8.7,2.1,11.6,5.8c0.4,0,0.8-0.1,1.2-0.1c4,0,7.8,1.9,10.9,5.4c0.3,0.2,0.7,0.4,1,0.6  C77.3,33.7,78.3,34.2,79.4,34.8z"></path></svg>