<svg height='100px' width='100px'  fill="#000000" xmlns="http://www.w3.org/2000/svg" xmlns:xlink="http://www.w3.org/1999/xlink" version="1.1" x="0px" y="0px" viewBox="0 0 100 100" enable-background="new 0 0 100 100" xml:space="preserve"><polygon points="20.205,5.028 47.908,5.028 47.908,9.579 35.921,16.926 "></polygon><polygon points="49.582,10.518 49.582,5.028 60.715,5.028 57.52,16.806 43.498,29.305 40.246,20.2 37.353,18.011 "></polygon><polygon points="73.221,46.327 85.755,32.545 94.971,36.879 94.971,47.946 75.313,49.647 "></polygon><polygon points="33.135,64.866 36.776,62.882 45.023,59.179 38.732,73.637 "></polygon><polygon points="94.971,35.03 85.35,30.505 79.648,36.773 72.924,33.697 94.971,20.556 "></polygon><polygon points="94.971,18.608 71.075,32.852 68.547,31.695 77.282,14.144 94.971,14.715 "></polygon><polygon points="76.264,12.438 67.024,30.998 63.328,29.308 59.138,17.235 62.449,5.028 82.89,5.028 78.406,12.507 "></polygon><polygon points="48.763,49.022 31.686,47.157 35.63,41.16 32.903,30.071 41.215,27.89 "></polygon><polygon points="31.284,30.496 33.831,40.851 22.566,57.975 5.028,43.869 5.028,29.421 27.058,31.603 "></polygon><polygon points="22.952,60.433 27.002,54.276 34.999,61.943 5.028,78.275 5.028,46.018 "></polygon><polygon points="31.664,65.668 40.892,80.129 39.837,94.972 21.281,94.972 28.475,67.404 "></polygon><polygon points="39.818,75.336 43.397,67.111 50.689,94.972 41.515,94.972 42.599,79.694 "></polygon><polygon points="49.482,83.75 56.24,72.626 65.688,91.611 65.688,94.972 52.419,94.972 "></polygon><polygon points="57.268,70.936 61.014,64.769 70.306,72.983 71.279,94.972 67.361,94.972 67.361,91.22 "></polygon><polygon points="72.308,80.364 86.888,94.972 72.953,94.972 "></polygon><polygon points="70.974,71.338 61.896,63.314 65.61,57.202 56.586,52.493 71.817,47.243 79.35,59.184 "></polygon><polygon points="81.026,58.708 76.317,51.239 94.971,49.625 94.971,75.435 "></polygon><polygon points="94.971,13.041 80.319,12.568 84.841,5.028 94.971,5.028 "></polygon><polygon points="17.432,5.028 38.837,21.232 40.65,26.308 26.924,29.909 5.028,27.739 5.028,5.028 "></polygon><polygon points="5.028,80.181 26.458,68.504 19.551,94.972 5.028,94.972 "></polygon><polygon points="89.254,94.972 72.198,77.884 71.975,72.833 80.413,60.587 94.971,78.046 94.971,94.972 "></polygon></svg>