<svg height='100px' width='100px'  fill="#000000" xmlns="http://www.w3.org/2000/svg" xmlns:xlink="http://www.w3.org/1999/xlink" version="1.1" x="0px" y="0px" viewBox="0 0 50 50" enable-background="new 0 0 50 50" xml:space="preserve"><g><path d="M15.6,7.8v3.4l-4,6.7v26.8l7.9,4.4c0.1-0.1,1.5-1.2,0,0l18.7-7.6V14.5l0,0L34,4.4V1L15.6,7.8z M29.4,27.5   c0.2-1.4,1-2.6,1.8-2.8c0.8-0.2,1.2,0.8,0.9,2.2c-0.2,1.3-1,2.6-1.8,2.8C29.5,29.8,29.1,28.8,29.4,27.5z M27.1,26.4   c0.8-0.4,1.4,0.4,1.5,1.6c0.1,1.3-0.5,2.5-1.2,2.9c-0.8,0.4-1.4-0.4-1.5-1.6C25.8,28.1,26.4,26.8,27.1,26.4z M24.6,33.9   c-0.6,0.3-1.2-0.3-1.4-1.5C23,31.2,23.4,30,24,29.7c0.6-0.3,1.3,0.3,1.4,1.5C25.6,32.3,25.2,33.5,24.6,33.9z M29.1,36.9   c-2.3,2.7-4.2,2.3-4.2,0.4c0-1.9,1.8-5.4,3.7-6.2c1.9-0.8,3.2,1.5,3.2,3.4C32,38,30.7,35.1,29.1,36.9z M34.2,28.7   c-0.6,1.1-1.5,1.8-2,1.7c-0.5-0.2-0.4-1.2,0.2-2.3s1.5-1.8,2-1.7C35,26.6,34.9,27.6,34.2,28.7z"></path></g></svg>