<svg height='100px' width='100px'  fill="#000000" xmlns="http://www.w3.org/2000/svg" xmlns:xlink="http://www.w3.org/1999/xlink" version="1.1" x="0px" y="0px" viewBox="7.5 7.5 50 50" enable-background="new 7.5 7.5 50 50" xml:space="preserve"><path d="M56.296,32.501c0-0.133-0.053-0.26-0.146-0.354l-6.677-6.677v-9.442c0-0.276-0.224-0.5-0.5-0.5H39.53l-6.677-6.677  c-0.195-0.195-0.512-0.195-0.707,0l-6.677,6.677h-9.442c-0.276,0-0.5,0.224-0.5,0.5v9.442l-6.677,6.677  c-0.094,0.094-0.146,0.221-0.146,0.354s0.053,0.26,0.146,0.354l6.677,6.677v9.441c0,0.276,0.224,0.5,0.5,0.5h9.442l6.676,6.676  c0.098,0.098,0.226,0.146,0.354,0.146s0.256-0.049,0.354-0.146l6.677-6.676h9.442c0.276,0,0.5-0.224,0.5-0.5V39.53l6.677-6.676  C56.243,32.761,56.296,32.634,56.296,32.501z M48.473,16.528v7.942l-7.942-7.942H48.473z M48.473,25.885v13.231l-9.356,9.356H25.884  l-9.356-9.355V25.884l9.356-9.356h13.232L48.473,25.885z M32.5,9.912l5.616,5.616H26.884L32.5,9.912z M16.528,16.528h7.942  l-7.942,7.942V16.528z M9.911,32.501l5.617-5.617v11.233L9.911,32.501z M16.528,48.473v-7.941l7.942,7.941H16.528z M32.5,55.088  l-5.616-5.615h11.231L32.5,55.088z M48.473,48.473H40.53l7.942-7.942V48.473z M49.473,38.117V26.885l5.616,5.616L49.473,38.117z"></path><path d="M21.728,32.5c0,5.94,4.833,10.772,10.772,10.772c5.94,0,10.772-4.832,10.772-10.772c0-5.94-4.832-10.772-10.772-10.772  C26.56,21.728,21.728,26.56,21.728,32.5z M42.272,32.5c0,5.389-4.384,9.772-9.772,9.772s-9.772-4.384-9.772-9.772  s4.384-9.772,9.772-9.772S42.272,27.111,42.272,32.5z"></path></svg>