<?xml version="1.0" encoding="utf-8"?>
<!-- Generator: Adobe Illustrator 24.2.1, SVG Export Plug-In . SVG Version: 6.00 Build 0)  -->
<svg version="1.1" id="Layer_1" xmlns="http://www.w3.org/2000/svg" xmlns:xlink="http://www.w3.org/1999/xlink" x="0px" y="0px"
	 viewBox="0 0 100 100" enable-background="new 0 0 100 100" xml:space="preserve">
<line fill="none" stroke="#000000" stroke-width="3.125" stroke-linecap="round" stroke-linejoin="round" stroke-miterlimit="3.125" x1="91.406" y1="1.563" x2="8.594" y2="1.563"/>
<line fill="none" stroke="#000000" stroke-width="3.125" stroke-linecap="round" stroke-linejoin="round" stroke-miterlimit="3.125" x1="42.602" y1="3.906" x2="41.773" y2="8.594"/>
<line fill="none" stroke="#000000" stroke-width="3.125" stroke-linecap="round" stroke-linejoin="round" stroke-miterlimit="3.125" x1="50.414" y1="3.906" x2="49.586" y2="8.594"/>
<line fill="none" stroke="#000000" stroke-width="3.125" stroke-linecap="round" stroke-linejoin="round" stroke-miterlimit="3.125" x1="34.789" y1="3.906" x2="33.961" y2="8.594"/>
<line fill="none" stroke="#000000" stroke-width="3.125" stroke-linecap="round" stroke-linejoin="round" stroke-miterlimit="3.125" x1="38.602" y1="13.281" x2="37.781" y2="17.969"/>
<line fill="none" stroke="#000000" stroke-width="3.125" stroke-linecap="round" stroke-linejoin="round" stroke-miterlimit="3.125" x1="46.414" y1="13.281" x2="45.594" y2="17.969"/>
<line fill="none" stroke="#000000" stroke-width="3.125" stroke-linecap="round" stroke-linejoin="round" stroke-miterlimit="3.125" x1="58.227" y1="3.906" x2="57.398" y2="8.594"/>
<line fill="none" stroke="#000000" stroke-width="3.125" stroke-linecap="round" stroke-linejoin="round" stroke-miterlimit="3.125" x1="66.039" y1="3.906" x2="65.211" y2="8.594"/>
<line fill="none" stroke="#000000" stroke-width="3.125" stroke-linecap="round" stroke-linejoin="round" stroke-miterlimit="3.125" x1="54.227" y1="13.281" x2="53.406" y2="17.969"/>
<line fill="none" stroke="#000000" stroke-width="3.125" stroke-linecap="round" stroke-linejoin="round" stroke-miterlimit="3.125" x1="62.039" y1="13.281" x2="61.219" y2="17.969"/>
<polyline fill="none" stroke="#000000" stroke-width="3.125" stroke-linecap="round" stroke-linejoin="round" stroke-miterlimit="3.125" points="
	1.563,22.898 12.5,20.313 23.438,22.898 "/>
<polyline fill="none" stroke="#000000" stroke-width="3.125" stroke-linecap="round" stroke-linejoin="round" stroke-miterlimit="3.125" points="
	23.438,29.148 12.5,26.563 1.563,29.148 "/>
<polyline fill="none" stroke="#000000" stroke-width="3.125" stroke-linecap="round" stroke-linejoin="round" stroke-miterlimit="3.125" points="
	23.438,35.398 12.5,32.813 1.563,35.398 "/>
<polyline fill="none" stroke="#000000" stroke-width="3.125" stroke-linecap="round" stroke-linejoin="round" stroke-miterlimit="3.125" points="
	23.438,41.648 12.5,39.063 1.563,41.648 "/>
<polyline fill="none" stroke="#000000" stroke-width="3.125" stroke-linecap="round" stroke-linejoin="round" stroke-miterlimit="3.125" points="
	23.438,47.898 12.5,45.313 1.563,47.898 "/>
<polyline fill="none" stroke="#000000" stroke-width="3.125" stroke-linecap="round" stroke-linejoin="round" stroke-miterlimit="3.125" points="
	23.438,54.148 12.5,51.563 1.563,54.148 "/>
<polyline fill="none" stroke="#000000" stroke-width="3.125" stroke-linecap="round" stroke-linejoin="round" stroke-miterlimit="3.125" points="
	23.438,60.398 12.5,57.813 1.563,60.398 "/>
<polyline fill="none" stroke="#000000" stroke-width="3.125" stroke-linecap="round" stroke-linejoin="round" stroke-miterlimit="3.125" points="
	23.438,66.648 12.5,64.063 1.563,66.648 "/>
<polyline fill="none" stroke="#000000" stroke-width="3.125" stroke-linecap="round" stroke-linejoin="round" stroke-miterlimit="3.125" points="
	23.438,72.898 12.5,70.313 1.563,72.898 "/>
<polyline fill="none" stroke="#000000" stroke-width="3.125" stroke-linecap="round" stroke-linejoin="round" stroke-miterlimit="3.125" points="
	23.438,79.148 12.5,76.563 1.563,79.148 "/>
<polyline fill="none" stroke="#000000" stroke-width="3.125" stroke-linecap="round" stroke-linejoin="round" stroke-miterlimit="3.125" points="
	23.438,85.398 12.5,82.813 1.563,85.398 "/>
<polyline fill="none" stroke="#000000" stroke-width="3.125" stroke-linecap="round" stroke-linejoin="round" stroke-miterlimit="3.125" points="
	23.438,91.648 12.5,89.063 1.563,91.648 "/>
<polyline fill="none" stroke="#000000" stroke-width="3.125" stroke-linecap="round" stroke-linejoin="round" stroke-miterlimit="3.125" points="
	23.438,97.898 12.5,95.313 1.563,97.898 "/>
<line fill="none" stroke="#000000" stroke-width="3.125" stroke-linecap="round" stroke-linejoin="round" stroke-miterlimit="3.125" x1="42.602" y1="22.656" x2="41.773" y2="27.344"/>
<line fill="none" stroke="#000000" stroke-width="3.125" stroke-linecap="round" stroke-linejoin="round" stroke-miterlimit="3.125" x1="50.414" y1="22.656" x2="49.586" y2="27.344"/>
<line fill="none" stroke="#000000" stroke-width="3.125" stroke-linecap="round" stroke-linejoin="round" stroke-miterlimit="3.125" x1="34.789" y1="22.656" x2="33.961" y2="27.344"/>
<line fill="none" stroke="#000000" stroke-width="3.125" stroke-linecap="round" stroke-linejoin="round" stroke-miterlimit="3.125" x1="58.227" y1="22.656" x2="57.398" y2="27.344"/>
<line fill="none" stroke="#000000" stroke-width="3.125" stroke-linecap="round" stroke-linejoin="round" stroke-miterlimit="3.125" x1="66.039" y1="22.656" x2="65.211" y2="27.344"/>
<polyline fill="none" stroke="#000000" stroke-width="3.125" stroke-linecap="round" stroke-linejoin="round" stroke-miterlimit="3.125" points="
	98.438,22.898 87.5,20.313 76.563,22.898 "/>
<polyline fill="none" stroke="#000000" stroke-width="3.125" stroke-linecap="round" stroke-linejoin="round" stroke-miterlimit="3.125" points="
	98.438,29.148 87.5,26.563 76.563,29.148 "/>
<polyline fill="none" stroke="#000000" stroke-width="3.125" stroke-linecap="round" stroke-linejoin="round" stroke-miterlimit="3.125" points="
	98.438,35.398 87.5,32.813 76.563,35.398 "/>
<polyline fill="none" stroke="#000000" stroke-width="3.125" stroke-linecap="round" stroke-linejoin="round" stroke-miterlimit="3.125" points="
	98.438,41.648 87.5,39.063 76.563,41.648 "/>
<polyline fill="none" stroke="#000000" stroke-width="3.125" stroke-linecap="round" stroke-linejoin="round" stroke-miterlimit="3.125" points="
	98.438,47.898 87.5,45.313 76.563,47.898 "/>
<polyline fill="none" stroke="#000000" stroke-width="3.125" stroke-linecap="round" stroke-linejoin="round" stroke-miterlimit="3.125" points="
	98.438,54.148 87.5,51.563 76.563,54.148 "/>
<polyline fill="none" stroke="#000000" stroke-width="3.125" stroke-linecap="round" stroke-linejoin="round" stroke-miterlimit="3.125" points="
	98.438,60.398 87.5,57.813 76.563,60.398 "/>
<polyline fill="none" stroke="#000000" stroke-width="3.125" stroke-linecap="round" stroke-linejoin="round" stroke-miterlimit="3.125" points="
	98.438,66.648 87.5,64.063 76.563,66.648 "/>
<polyline fill="none" stroke="#000000" stroke-width="3.125" stroke-linecap="round" stroke-linejoin="round" stroke-miterlimit="3.125" points="
	98.438,72.898 87.5,70.313 76.563,72.898 "/>
<polyline fill="none" stroke="#000000" stroke-width="3.125" stroke-linecap="round" stroke-linejoin="round" stroke-miterlimit="3.125" points="
	98.438,79.148 87.5,76.563 76.563,79.148 "/>
<polyline fill="none" stroke="#000000" stroke-width="3.125" stroke-linecap="round" stroke-linejoin="round" stroke-miterlimit="3.125" points="
	98.438,85.398 87.5,82.813 76.563,85.398 "/>
<polyline fill="none" stroke="#000000" stroke-width="3.125" stroke-linecap="round" stroke-linejoin="round" stroke-miterlimit="3.125" points="
	98.438,91.648 87.5,89.063 76.563,91.648 "/>
<polyline fill="none" stroke="#000000" stroke-width="3.125" stroke-linecap="round" stroke-linejoin="round" stroke-miterlimit="3.125" points="
	98.438,97.898 87.5,95.313 76.563,97.898 "/>
<line fill="none" stroke="#000000" stroke-width="3.125" stroke-linejoin="round" stroke-miterlimit="3.125" x1="72.656" y1="56.25" x2="27.344" y2="56.25"/>
<line fill="none" stroke="#000000" stroke-width="3.125" stroke-linecap="square" stroke-linejoin="round" stroke-miterlimit="3.125" x1="50" y1="57.031" x2="50" y2="75"/>
<line fill="none" stroke="#000000" stroke-width="3.125" stroke-linejoin="round" stroke-miterlimit="3.125" x1="72.656" y1="88.281" x2="27.344" y2="88.281"/>
<line fill="none" stroke="#000000" stroke-width="3.125" stroke-linejoin="round" stroke-miterlimit="3.125" x1="72.656" y1="82.813" x2="27.344" y2="82.813"/>
<path fill="none" stroke="#000000" stroke-width="3.125" stroke-linecap="round" stroke-linejoin="round" stroke-miterlimit="3.125" d="
	M28.906,57.273c5.672,2.953,6.305,7.211,6.859,12.625c0.055,0.563,0.117,1.141,0.172,1.734c0.781,7.523,10.156,11.18,10.156,11.18"
	/>
<path fill="none" stroke="#000000" stroke-width="3.125" stroke-linecap="round" stroke-linejoin="round" stroke-miterlimit="3.125" d="
	M71.094,57.273c-5.672,2.953-6.305,7.211-6.859,12.625c-0.055,0.563-0.117,1.141-0.172,1.734
	c-0.781,7.523-10.156,11.18-10.156,11.18"/>
<path fill="none" stroke="#000000" stroke-width="3.125" stroke-linejoin="round" stroke-miterlimit="3.125" d="M27.344,76.031
	c2.725-1.303,3.877-4.568,2.574-7.293c-0.539-1.127-1.447-2.035-2.574-2.574"/>
<path fill="none" stroke="#000000" stroke-width="3.125" stroke-linejoin="round" stroke-miterlimit="3.125" d="M72.656,66.156
	c-2.725,1.303-3.877,4.568-2.574,7.293c0.539,1.127,1.447,2.035,2.574,2.574"/>
<path fill="none" stroke="#000000" stroke-width="3.125" stroke-linejoin="round" stroke-miterlimit="3.125" d="M72.656,41.469
	c-2.45-3.604-6.583-5.694-10.938-5.531H38.281c-4.355-0.162-8.487,1.927-10.938,5.531"/>
</svg>
