<svg height='100px' width='100px'  fill="#000000" xmlns="http://www.w3.org/2000/svg" xmlns:xlink="http://www.w3.org/1999/xlink" version="1.1" x="0px" y="0px" viewBox="0 0 100 100" enable-background="new 0 0 100 100" xml:space="preserve"><path d="M43,60h-8.941c0.5,4.493,4.317,8,8.941,8h12c4.624,0,8.441-3.507,8.941-8H50v-2h14v-2H50v-2h14v-2H50v-2  h14v-2H50v-2h14v-2H50v-2h14v-2H50v-2h14v-2H50v-2h13.941c-0.5-4.493-4.317-8-8.941-8H43c-4.624,0-8.441,3.507-8.941,8H43v2h-9v2h9  v2h-9v2h9v2h-9v2h9v2h-9v2h9v2h-9v2h9v2h-9v2h9V60z"></path><polygon points="52,78 52,74 55,74 55,70 43,70 43,74 46,74 46,78 "></polygon></svg>