<svg height='100px' width='100px'  fill="#000000" xmlns="http://www.w3.org/2000/svg" xmlns:xlink="http://www.w3.org/1999/xlink" version="1.1" x="0px" y="0px" viewBox="0 0 96 96" style="enable-background:new 0 0 96 96;" xml:space="preserve"><polygon points="91,21.8 81.5,25.2 79.1,33 76.7,25.2 67.2,21.8 76,18.7 79.1,10.6 82.1,18.7 "></polygon><path d="M76.4,38.2c-1.8-4.2-4.3-7.9-7.5-11.1s-7-5.7-11.1-7.5c-2.9-1.2-5.9-2-8.9-2.5c-0.2-3.6-3.5-4.3-3.5-4.3v-6h-2.5v6  c0,0-3.1,0.7-3.3,4.3c-3.1,0.4-6.1,1.2-9,2.5c-4.2,1.8-7.9,4.3-11.1,7.5s-5.7,7-7.5,11.1c-1.8,4.3-2.8,8.9-2.8,13.6  s0.9,9.3,2.8,13.6c1.8,4.2,4.3,7.9,7.5,11.1s7,5.7,11.1,7.5c3.6,1.5,8.6,2.6,14.3,2.7c6,0,9.4-1.2,12.9-2.7  c3.8-1.6,7.2-3.8,10.2-6.6h0.1v-0.1c0.3-0.3,0.6-0.6,0.9-0.9c3.2-3.2,5.7-7,7.5-11.1c1.8-4.3,2.8-8.9,2.8-13.6S78.3,42.5,76.4,38.2z   M63.5,26.3h-2.8c-0.9-1.3-2-2.5-3-3.5C59.7,23.8,61.7,24.9,63.5,26.3z M62.8,37h-9.2c-0.3-2.8-0.8-5.3-1.3-7.7h6.8  C60.6,31.6,61.9,34.2,62.8,37z M56.8,26.3h-5.3c-0.6-2.2-1.3-4-2-5.4C52.1,21.9,54.6,23.7,56.8,26.3z M48.4,26.3h-7.6  C43.4,16.8,44.5,17,48.4,26.3z M50.8,40c0.3,3.1,0.5,6.4,0.5,9.8H37.8c0.1-3.4,0.2-6.7,0.5-9.8H50.8z M51.4,52.8  c0,3.1-0.1,6.1-0.4,9H38.2c-0.2-2.9-0.4-5.9-0.4-9H51.4z M44.2,14.8c1.3,0.2,2.3,1.2,2.6,2.2c-0.9-0.1-1.7-0.1-2.6-0.1  c-0.8,0-1.5,0-2.2,0.1C42.1,15.8,42.8,14.8,44.2,14.8z M39.9,20.7c-0.8,1.5-1.5,3.3-2.2,5.6h-5.9C34.2,23.5,37,21.6,39.9,20.7z   M35.4,64.8c0.4,3.5,0.9,6.7,1.5,9.6h-7.4c-1.9-2.8-3.3-6.1-4.3-9.6H35.4z M23.4,49.8c0.1-3.4,0.6-6.7,1.5-9.8h10.4  c-0.3,3.1-0.5,6.4-0.5,9.8H23.4z M35.6,37h-9.9c1-2.8,2.2-5.4,3.7-7.7h7.5C36.4,31.6,35.9,34.2,35.6,37z M31.2,22.6  c-1.1,1.1-2.2,2.3-3.2,3.7h-3C26.9,24.9,28.9,23.6,31.2,22.6z M21.5,29.3H26c-1.4,2.3-2.5,4.9-3.4,7.7h-6.7  C17.4,34.1,19.3,31.6,21.5,29.3z M14.5,40h7.3c-0.8,3.1-1.3,6.4-1.4,9.8h-8.1C12.5,46.4,13.3,43,14.5,40z M12.2,52.8h8.1  c0.1,3.1,0.4,6.1,1,9h-7.5C12.9,59,12.3,56,12.2,52.8z M15,64.8h7c0,0.2,0.1,0.3,0.1,0.5c0.9,3.3,2.2,6.4,3.8,9.1h-4.3  C18.9,71.7,16.6,68.5,15,64.8z M25.2,77.5H28c0.9,1.2,1.9,2.4,2.9,3.4C28.8,79.9,26.9,78.8,25.2,77.5z M31.8,77.5h5.9  c0.7,2.3,1.4,4.2,2.2,5.7C37,82.2,34.2,80.3,31.8,77.5z M40.8,77.5h7.6C45.2,86.6,44.9,86.4,40.8,77.5z M40,74.5  c-0.7-2.9-1.2-6.1-1.6-9.6h12.3c-0.4,3.5-0.9,6.8-1.6,9.6H40z M49.5,82.9c0.8-1.4,1.4-3.2,2.1-5.4h5.3C54.6,80,52.1,81.9,49.5,82.9z   M58,80.7c0.9-1,1.8-2,2.7-3.2h2.6C61.6,78.7,59.9,79.8,58,80.7z M59.2,74.5h-6.9c0.6-2.9,1.1-6.1,1.5-9.6h9.7  C62.5,68.4,61,71.7,59.2,74.5z M64.3,61.8H54.1c0.2-2.9,0.4-9,0.4-9h10.8C65.2,55.9,64.9,58.9,64.3,61.8z M54.4,49.8  c-0.1-3.4-0.2-6.7-0.5-9.8h9.9c0.8,3.1,1.3,6.4,1.5,9.8H54.4z M62.6,29.3h4.3c2.2,2.3,4.1,4.8,5.6,7.7H66  C65.1,34.2,64,31.7,62.6,29.3z M73.9,40c1.2,3.1,2,6.4,2.2,9.8h-7.9c-0.1-3.4-0.6-6.7-1.4-9.8H73.9z M74.6,61.8h-7.3  c0.6-2.9,0.9-5.9,1-9h7.9C76.1,55.9,75.6,59,74.6,61.8z"></path><polygon points="64.1,18 65.5,13.5 70.9,11.6 65.9,9.9 64.1,5.3 62.4,9.9 57.4,11.6 62.8,13.5 "></polygon></svg>