<svg height='100px' width='100px'  fill="#000000" xmlns="http://www.w3.org/2000/svg" xmlns:xlink="http://www.w3.org/1999/xlink" version="1.1" x="0px" y="0px" viewBox="0 0 32 32" enable-background="new 0 0 32 32" xml:space="preserve"><g><path d="M30,10h-8V2c0-0.552-0.448-1-1-1H11c-0.552,0-1,0.448-1,1v8H2c-0.552,0-1,0.448-1,1v10c0,0.553,0.448,1,1,1h8v8   c0,0.553,0.448,1,1,1h10c0.552,0,1-0.447,1-1v-2.361C22.948,27.869,23.948,28,25.007,28h0.001c0.3,0,0.616-0.029,0.927-0.047   c2.067,1.483,3.65,1.969,3.79,2.009l0.553-1.922c-0.026-0.008-1.13-0.358-2.673-1.387c0.404-1.502,0.483-3.088,0.235-4.653H30   c0.552,0,1-0.447,1-1V11C31,10.448,30.552,10,30,10z M19.929,16.628l-1.857,0.743c1.557,3.892,3.549,6.623,5.446,8.523   c-2.216-0.287-4.041-1.227-5.426-2.823c-2.392-2.757-2.974-6.817-2.711-10.028c3.967,0.617,7.137,2.5,8.993,5.367   c1.358,2.097,1.875,4.595,1.488,6.904C23.883,23.588,21.623,20.864,19.929,16.628z M29,20h-1.661   c-0.318-0.93-0.74-1.833-1.287-2.678c-2.343-3.619-6.411-5.889-11.453-6.394c-0.538-0.06-1.014,0.323-1.089,0.854   c-0.538,3.76-0.013,9.045,3.07,12.6c0.96,1.107,2.115,1.96,3.42,2.564V29h-8v-8c0-0.553-0.448-1-1-1H3v-8h8c0.552,0,1-0.448,1-1V3   h8v8c0,0.552,0.448,1,1,1h8V20z"></path></g></svg>