<svg height='100px' width='100px'  fill="#000000" xmlns="http://www.w3.org/2000/svg" xmlns:xlink="http://www.w3.org/1999/xlink" version="1.2" baseProfile="tiny" x="0px" y="0px" viewBox="0 0 100 100" xml:space="preserve"><path d="M87.9,78.6c-0.8,0-1.5,0.7-1.5,1.5c0,1.4-1.1,2.5-2.5,2.5s-2.5-1.1-2.5-2.5c0-0.8,0.4-1.5,1-2v1.5c0,0.8,0.7,1.5,1.5,1.5  s1.5-0.7,1.5-1.5v-8.9c2.3-0.7,4-2.8,4-5.3s-1.7-4.6-4-5.3v-8.8c2-2.5,3.1-6.1,3.1-10.5V33c0-0.8-0.7-1.5-1.5-1.5H71.4  c-2.8,0-5-2.2-5-5c0-2.6-1.2-4.8-3.1-6.3L48.4,1c-0.4-0.5-1.1-0.7-1.7-0.5c-0.6,0.2-1,0.8-1,1.4v6.4l-7.9-6.9  c-0.4-0.4-1.1-0.5-1.6-0.2c-0.5,0.2-0.9,0.8-0.9,1.4l-0.1,20.3c0,0,0,0,0,0.1c-3.5,4.9-6.1,12-4.4,22.1c-3.1,1.1-11.2,4.5-19.8,11.7  c-0.6,0.5-0.7,1.5-0.2,2.1c0.3,0.4,0.7,0.5,1.1,0.5c0.3,0,0.7-0.1,1-0.4c3.1-2.6,6.2-4.7,9-6.4c2.5,4.6,13.5,21.1,44,21.6  c-1.8,4.3-4.4,8.8-8.4,12.8c-0.6,0.6-0.6,1.5,0,2.1c0.3,0.3,0.7,0.4,1.1,0.4s0.8-0.1,1.1-0.4c12.4-12.4,13-29.1,12.9-33.7h1.1v24.2  c-5.3,12.6-3,17.2-2.4,18c0.6,0.9,1.8,2,3.9,2s3.3-1.1,3.9-2c0.5-0.8,2.9-5.4-2.4-18V55.4c2.1,0,4-0.5,5.7-1.4v6.2  c-2.3,0.7-4,2.8-4,5.3s1.7,4.6,4,5.3v4.1c-2.3,0.7-4,2.8-4,5.3c0,3,2.5,5.5,5.5,5.5s5.5-2.5,5.5-5.5C89.4,79.3,88.7,78.6,87.9,78.6z   M45.5,12.1c0.1,0.1,0.2,0.1,0.3,0.2v1.9c-1.5,0.7-4.5,2.3-7.5,5.2l0.1-13.6L45.5,12.1z M24.6,51.1c3.2-1.7,5.8-2.8,7.2-3.3  c2.3,4.2,11.4,17,36.8,17.5c-0.4,1.8-0.9,3.8-1.5,5.8C37.2,71.1,26.8,55.1,24.6,51.1z M76.6,96c-0.2,0.3-0.5,0.6-1.4,0.6  S74,96.3,73.8,96c-1.2-1.9-0.1-7.2,1.4-11.8C76.8,88.7,77.9,94.1,76.6,96z M76.6,52.4H61.2c-0.8,0-1.5,0.7-1.5,1.5s0.7,1.5,1.5,1.5  h8.4c0,1.3,0,3.8-0.4,7c-14.5-0.2-23.2-4.7-28-8.5s-6.7-7.7-7.1-8.4c-4.4-22.1,13-28.7,13.7-29c0.6-0.2,1-0.8,1-1.4l-0.1-8.8  l9.5,12.2h-4.5c-0.8,0-1.5,0.7-1.5,1.5s0.7,1.5,1.5,1.5h4.7c2.8,0,5,2.2,5,5c0,0.1,0,0.3,0,0.4h-4.8c-0.8,0-1.5,0.7-1.5,1.5  s0.7,1.5,1.5,1.5h5.3c0.1,0,0.2,0,0.2,0c1.3,2.7,4,4.7,7.3,4.7h14.1v6.3C85.5,44.3,84.6,52.4,76.6,52.4z M81.4,65.4  c0-1.4,1.1-2.5,2.5-2.5s2.5,1.1,2.5,2.5s-1.1,2.5-2.5,2.5S81.4,66.8,81.4,65.4z"></path></svg>