<svg height='100px' width='100px'  fill="#000000" xmlns="http://www.w3.org/2000/svg" viewBox="0 0 64 64" x="0px" y="0px"><title>a</title><g data-name="13 Health Battery App"><path d="M34,24H33V22a2,2,0,0,0-2-2H29a2,2,0,0,0-2,2v2H26a2,2,0,0,0-2,2V42a2,2,0,0,0,2,2h8a2,2,0,0,0,2-2V26A2,2,0,0,0,34,24Zm-5-2h2v2H29Zm-3,4,8,0v4.583l-.447.447a1.929,1.929,0,0,1-2.774-.16,3.886,3.886,0,0,0-2.812-1.441c-.07,0-.139,0-.208,0-.091,0-.177.025-.267.032a3.92,3.92,0,0,0-.484.057c-.129.026-.254.063-.38.1a3.876,3.876,0,0,0-.444.165c-.06.027-.126.038-.184.068Zm8,16H26V32.414l.447-.447a1.872,1.872,0,0,1,2.773.159,3.834,3.834,0,0,0,3.864,1.345c.088-.019.17-.051.255-.077a3.748,3.748,0,0,0,.537-.2c.04-.019.085-.026.124-.046Z"></path><path d="M58,32a9.929,9.929,0,0,0-5.8-9.061,23.755,23.755,0,0,0-5.047-7.666L41.912,3.59A1,1,0,0,0,41,3H19a1,1,0,0,0-.912.59L12.867,15.216a23.945,23.945,0,0,0,0,33.568L18.088,60.41A1,1,0,0,0,19,61H41a1,1,0,0,0,.912-.59l5.246-11.683a23.732,23.732,0,0,0,5.047-7.667A9.933,9.933,0,0,0,58,32ZM19.647,5H40.353l3.241,7.216A23.771,23.771,0,0,0,30,8c-.543,0-1.079.025-1.613.06-.156.01-.31.023-.465.036-.442.038-.881.086-1.316.148-.2.028-.391.06-.586.092q-.544.091-1.08.206c-.254.054-.505.112-.756.174-.214.054-.425.113-.636.172q-.8.22-1.575.5c-.1.035-.194.067-.29.1a23.587,23.587,0,0,0-3.028,1.369l-.134.072a23.785,23.785,0,0,0-2.114,1.287ZM40.353,59H19.647l-3.24-7.216a23.785,23.785,0,0,0,2.114,1.287l.134.072a23.587,23.587,0,0,0,3.028,1.369c.1.036.194.068.29.1q.779.276,1.575.5c.211.059.422.118.636.172.251.062.5.12.756.174q.535.115,1.08.206c.2.032.39.064.586.092.435.062.874.11,1.316.148.155.013.309.026.465.036.534.035,1.07.06,1.613.06a23.771,23.771,0,0,0,13.594-4.216Zm5.88-12.181-.676-.677a1,1,0,0,0-1.414,1.414l.665.666-.077.07A22.179,22.179,0,0,1,33.64,53.679c-.332.055-.663.108-1,.148-.249.03-.5.059-.751.081-.3.025-.593.03-.89.043V53a1,1,0,0,0-2,0v.951c-.365-.016-.733-.019-1.094-.053-.047-.005-.094-.006-.14-.011-.63-.063-1.252-.161-1.869-.276-.132-.026-.265-.048-.4-.075-.527-.109-1.045-.245-1.56-.392-.243-.069-.484-.141-.724-.219-.406-.131-.806-.278-1.2-.432q-.471-.185-.93-.389-.5-.222-.99-.47-.463-.236-.913-.49-.513-.291-1.011-.611c-.232-.148-.462-.3-.688-.457-.425-.3-.843-.606-1.248-.934-.105-.084-.21-.167-.312-.253-.251-.21-.486-.444-.729-.667l.666-.666a1,1,0,0,0-1.414-1.414l-.683.683A21.912,21.912,0,0,1,8.025,33H9a1,1,0,0,0,0-2H8.025a21.912,21.912,0,0,1,5.736-13.825l.683.683a1,1,0,0,0,1.414-1.414l-.666-.666c.243-.223.478-.457.729-.667.1-.086.207-.169.312-.253.405-.328.823-.637,1.248-.934.226-.157.456-.309.688-.457q.5-.321,1.011-.611.45-.255.913-.49c.327-.165.657-.323.991-.471q.459-.2.928-.387c.4-.155.8-.3,1.2-.433.24-.078.481-.15.724-.219.515-.147,1.033-.283,1.56-.392.132-.027.265-.049.4-.075.617-.115,1.239-.213,1.869-.276.046,0,.093-.006.14-.011.361-.034.729-.037,1.094-.053V11a1,1,0,0,0,2,0v-.951c.3.013.595.018.89.043.251.022.5.05.75.081.336.04.669.093,1,.148A22.179,22.179,0,0,1,44.73,15.707l.078.071-.665.666a1,1,0,1,0,1.414,1.414l.676-.677a21.776,21.776,0,0,1,3.427,4.956c-.087-.015-.178-.014-.266-.027q-.386-.053-.774-.076c-.132-.008-.262-.021-.394-.024a10.189,10.189,0,0,0-1.133.039c-.1.009-.2.026-.3.038-.306.037-.609.087-.909.152-.112.024-.222.048-.333.076s-.224.054-.335.087a18,18,0,1,0,0,19.2c.117.034.237.06.355.09.083.021.166.04.25.059a9.849,9.849,0,0,0,1.164.2l.026,0c.327.032.657.051.989.051.072,0,.142-.009.213-.01.112,0,.222-.011.333-.017.3-.016.6-.045.9-.088.071-.011.144-.01.215-.022A21.776,21.776,0,0,1,46.233,46.819Zm-4.142-22.87a10.1,10.1,0,0,0-.922.764c-.031.029-.059.06-.09.09a10.152,10.152,0,0,0-.844.916l-.01.012a10.094,10.094,0,0,0-.714,1.017c-.026.042-.054.082-.079.124a10.293,10.293,0,0,0-.547,1.053c-.026.06-.054.119-.079.179a9.952,9.952,0,0,0-.4,1.105c-.019.064-.035.127-.053.191a9.863,9.863,0,0,0-.249,1.176c-.007.048-.011.1-.017.145a9.133,9.133,0,0,0,0,2.558c.006.048.01.1.017.145a9.879,9.879,0,0,0,.249,1.177c.018.063.034.126.052.189a10.143,10.143,0,0,0,.4,1.108c.025.058.051.116.077.174a10.035,10.035,0,0,0,.55,1.06c.023.038.048.074.071.112a10.1,10.1,0,0,0,1.589,1.969c.023.022.044.045.067.067a10.106,10.106,0,0,0,.943.782l.134.1a9.965,9.965,0,0,0,1.022.634c.026.014.049.033.076.047a16,16,0,1,1,0-17.682c-.03.015-.055.036-.085.052a10.043,10.043,0,0,0-1,.622C42.2,23.871,42.144,23.91,42.091,23.949ZM51.05,39.39A8,8,0,0,1,40,32a7.807,7.807,0,0,1,.095-1.218,8.042,8.042,0,0,1,5.049-6.25,7.113,7.113,0,0,1,.714-.238l.042-.01c.23-.063.462-.117.7-.159l.027,0q.357-.062.717-.092c.029,0,.059,0,.089,0,.218-.016.436-.024.654-.022.069,0,.137.008.2.01.191.007.382.014.572.035.026,0,.052.008.077.011a7.84,7.84,0,0,1,1.4.292c.243.076.484.163.721.263A7.991,7.991,0,0,1,51.05,39.39Z"></path><path d="M50,28a3.63,3.63,0,0,0-2,.581A3.63,3.63,0,0,0,46,28a2.968,2.968,0,0,0-3,3c0,1.074.6,3.141,4.595,4.914a1,1,0,0,0,.81,0C52.4,34.141,53,32.074,53,31A2.968,2.968,0,0,0,50,28Zm-2,5.9c-1.888-.907-3-1.976-3-2.9a.969.969,0,0,1,1-1,1.6,1.6,0,0,1,1.209.512,1.009,1.009,0,0,0,.777.379,1.078,1.078,0,0,0,.8-.378A1.6,1.6,0,0,1,50,30a.969.969,0,0,1,1,1C51,31.922,49.888,32.991,48,33.9Z"></path></g></svg>