<?xml version="1.0" encoding="utf-8"?>
<!-- Generator: Adobe Illustrator 24.2.1, SVG Export Plug-In . SVG Version: 6.00 Build 0)  -->
<svg version="1.1" id="Layer_1" xmlns="http://www.w3.org/2000/svg" xmlns:xlink="http://www.w3.org/1999/xlink" x="0px" y="0px"
	 viewBox="0 0 100 100" enable-background="new 0 0 100 100" xml:space="preserve">
<g>
	<g>
		<path d="M50.691,15.222l36.355,26.352l-0.641,0.885l0.642-0.886c0.489,0.355,0.599,1.039,0.244,1.529
			c-0.214,0.295-0.548,0.452-0.886,0.452h-0.011h-72.8c-0.604,0-1.094-0.49-1.094-1.094c0-0.386,0.2-0.725,0.502-0.92l36.357-26.353
			l-0.001-0.001C49.768,14.886,50.316,14.915,50.691,15.222L50.691,15.222z"/>
		<path d="M24.966,20.196h6.176c0.604,0,1.094,0.49,1.094,1.095v4.954l-8.365,6.063V21.291
			C23.872,20.686,24.362,20.196,24.966,20.196L24.966,20.196z"/>
		<path fill-rule="evenodd" clip-rule="evenodd" d="M78.418,42.824H21.582V83.93c0,0.604,0.49,1.094,1.095,1.094h54.647
			c0.604,0,1.094-0.49,1.094-1.094L78.418,42.824L78.418,42.824z M47.362,76.025c-0.305-1.272-0.749-2.417-1.367-3.452
			c-0.751-1.258-1.765-2.363-3.104-3.346c-1.341,0.381-6.61,1.447-7.968-4.865l-0.001,0c-0.071-0.33,0.138-0.656,0.468-0.729
			c6.206-1.966,7.861,3.32,8.158,4.555c1.507,1.094,2.649,2.334,3.498,3.756c0.208,0.349,0.398,0.708,0.571,1.077
			c0.111-2.203,0.398-4.456,0.98-6.562c0.089-0.322,0.185-0.64,0.288-0.955c-0.243-0.384-0.52-0.741-0.833-1.065
			c-0.311-0.321-0.658-0.609-1.046-0.857c-1.15,0.321-5.433,1.142-6.544-4.018l-0.001,0c-0.071-0.331,0.138-0.656,0.468-0.729
			c4.996-1.576,6.41,2.554,6.699,3.689c0.485,0.306,0.918,0.662,1.303,1.06c0.165,0.171,0.322,0.349,0.47,0.534
			c1.023-2.441,2.567-4.544,4.855-5.943c0.35-1.484,2.413-8.325,10.356-5.8c0.33,0.073,0.539,0.398,0.468,0.729l-0.001,0
			c-1.763,8.195-8.729,6.571-10.206,6.128c-2.674,1.645-4.227,4.415-5.094,7.553c-0.668,2.417-0.931,5.052-0.983,7.573
			c1.146-1.699,2.695-2.465,3.383-2.737c0.358-1.386,2.061-6.262,8.007-4.379c0.33,0.073,0.539,0.399,0.468,0.729l-0.001,0
			c-1.376,6.391-6.822,5.102-7.95,4.762c-0.566,0.206-2.441,1.036-3.433,3.292L47.362,76.025L47.362,76.025z"/>
	</g>
</g>
<rect fill="none" width="100" height="100"/>
</svg>
