<svg height='100px' width='100px'  fill="#000000" xmlns:dc="http://purl.org/dc/elements/1.1/" xmlns:cc="http://creativecommons.org/ns#" xmlns:rdf="http://www.w3.org/1999/02/22-rdf-syntax-ns#" xmlns:svg="http://www.w3.org/2000/svg" xmlns="http://www.w3.org/2000/svg" xmlns:sodipodi="http://sodipodi.sourceforge.net/DTD/sodipodi-0.dtd" xmlns:inkscape="http://www.inkscape.org/namespaces/inkscape" viewBox="0 0 48 48" version="1.1" x="0px" y="0px"><g transform="translate(0,-1004.3622)"><text xml:space="preserve" style="letter-spacing:0px;word-spacing:0px;" x="12" y="1036.3622" font-style="normal" font-weight="normal" font-size="11.25px" line-height="125%" font-family="Sans" fill="#000000" fill-opacity="1" stroke="none"><tspan x="12" y="1036.3622"></tspan></text><path style="color:#000000;font-style:normal;font-variant:normal;font-weight:normal;font-stretch:normal;font-size:medium;line-height:normal;font-family:sans-serif;text-indent:0;text-align:start;text-decoration:none;text-decoration-line:none;text-decoration-style:solid;text-decoration-color:#000000;letter-spacing:normal;word-spacing:normal;text-transform:none;direction:ltr;block-progression:tb;writing-mode:lr-tb;baseline-shift:baseline;text-anchor:start;white-space:normal;clip-rule:nonzero;display:inline;overflow:visible;visibility:visible;opacity:1;isolation:auto;mix-blend-mode:normal;color-interpolation:sRGB;color-interpolation-filters:linearRGB;solid-color:#000000;solid-opacity:1;fill:#000000;fill-opacity:1;fill-rule:nonzero;stroke:none;stroke-width:0.99999994;stroke-linecap:round;stroke-linejoin:round;stroke-miterlimit:4;stroke-dasharray:none;stroke-dashoffset:0;stroke-opacity:1;color-rendering:auto;image-rendering:auto;shape-rendering:auto;text-rendering:auto;enable-background:accumulate" d="M 24 0 C 10.74809 0 7.1054274e-15 10.7481 0 24 C 0 37.2519 10.74809 48 24 48 C 37.25192 48 48 37.2519 48 24 C 48 10.7481 37.25192 0 24 0 z M 22.494141 8.9921875 C 22.629621 8.9921875 22.759316 9.0475313 22.853516 9.1445312 L 24.853516 11.142578 C 25.050016 11.338078 25.050016 11.656062 24.853516 11.851562 L 22.853516 13.851562 C 22.382186 14.339563 21.658424 13.615831 22.146484 13.144531 L 23.232422 12.058594 C 16.959172 12.455294 12 17.647084 12 24.021484 C 12 24.850584 12.084331 25.660406 12.244141 26.441406 C 12.403951 27.222406 12.639809 27.975659 12.943359 28.693359 C 13.246899 29.411059 13.617498 30.091969 14.048828 30.730469 C 14.480158 31.368869 14.972575 31.964813 15.515625 32.507812 C 16.058665 33.050812 16.652546 33.541356 17.291016 33.972656 C 17.929446 34.404056 18.612398 34.776478 19.330078 35.080078 C 19.976758 35.326678 19.565953 36.2941 18.939453 36 C 18.161653 35.671 17.422039 35.267981 16.730469 34.800781 C 16.038919 34.333481 15.394631 33.802844 14.806641 33.214844 C 14.218651 32.626944 13.687913 31.982616 13.220703 31.291016 C 12.753493 30.599416 12.350484 29.859831 12.021484 29.082031 C 11.692494 28.304131 11.436882 27.487025 11.263672 26.640625 C 11.0905 25.794225 11 24.918184 11 24.021484 C 11 17.067284 16.479439 11.396387 23.349609 11.054688 L 22.146484 9.8515625 C 21.823504 9.5390625 22.044711 8.9922875 22.494141 8.9921875 z M 28.816406 12.001953 C 28.833306 12.001053 28.850288 12.001053 28.867188 12.001953 C 28.933727 12.002953 28.999447 12.016969 29.060547 12.042969 C 29.838347 12.371969 30.577961 12.774887 31.269531 13.242188 C 31.961081 13.709388 32.605369 14.242078 33.193359 14.830078 C 33.781349 15.417978 34.312087 16.062306 34.779297 16.753906 C 35.246507 17.445406 35.649516 18.183138 35.978516 18.960938 C 36.307496 19.738837 36.563118 20.555944 36.736328 21.402344 C 36.9095 22.248844 37 23.124784 37 24.021484 C 37 30.958584 31.547552 36.619328 24.701172 36.986328 L 25.853516 38.138672 C 26.345066 38.609972 25.617714 39.337303 25.146484 38.845703 L 23.146484 36.845703 C 22.951324 36.650403 22.951324 36.333972 23.146484 36.138672 L 25.146484 34.138672 C 25.237204 34.046272 25.360474 33.988281 25.490234 33.988281 C 25.944926 33.975781 26.178746 34.527703 25.853516 34.845703 L 24.714844 35.984375 C 31.012924 35.613375 36 30.413584 36 24.021484 C 36 23.192384 35.915669 22.384516 35.755859 21.603516 C 35.596049 20.822516 35.360191 20.069262 35.056641 19.351562 C 34.753101 18.633862 34.382502 17.9509 33.951172 17.3125 C 33.519852 16.674 33.027415 16.080109 32.484375 15.537109 C 31.941325 14.994109 31.347444 14.501713 30.708984 14.070312 C 30.070554 13.639013 29.387602 13.268444 28.669922 12.964844 C 28.178812 12.768444 28.289106 12.043953 28.816406 12.001953 z M 24 16.021484 C 28.41236 16.021484 32 19.609084 32 24.021484 C 32 28.433784 28.41236 32.021484 24 32.021484 C 19.58764 32.021484 16 28.433784 16 24.021484 C 16 19.609084 19.58764 16.021484 24 16.021484 z M 23.646484 18.994141 L 23.646484 20.148438 C 23.332154 20.187038 23.047209 20.2627 22.792969 20.375 C 22.538729 20.4873 22.322858 20.631241 22.142578 20.806641 C 21.966918 20.982141 21.829522 21.189134 21.732422 21.427734 C 21.63995 21.666334 21.59375 21.929097 21.59375 22.216797 C 21.59375 22.529097 21.647586 22.806322 21.753906 23.044922 C 21.864846 23.283522 22.021219 23.491328 22.224609 23.673828 C 22.432619 23.856328 22.683389 24.015544 22.974609 24.152344 C 23.270449 24.285744 23.602856 24.404159 23.972656 24.505859 C 24.250006 24.597159 24.485536 24.693016 24.679688 24.791016 C 24.878458 24.889216 25.038023 24.995528 25.158203 25.111328 C 25.283013 25.227128 25.372234 25.350975 25.427734 25.484375 C 25.483234 25.617675 25.511719 25.763975 25.511719 25.921875 C 25.511719 26.111275 25.477503 26.2831 25.408203 26.4375 C 25.338873 26.5884 25.235612 26.717372 25.101562 26.826172 C 24.972134 26.931372 24.811328 27.014219 24.617188 27.074219 C 24.427666 27.130219 24.209844 27.158203 23.964844 27.158203 C 23.789194 27.158203 23.61316 27.13975 23.4375 27.09375 C 23.26184 27.04815 23.102284 26.967363 22.958984 26.851562 C 22.815694 26.735763 22.701081 26.579313 22.613281 26.382812 C 22.525422 26.186312 22.482422 25.938825 22.482422 25.640625 L 21.261719 25.640625 C 21.261719 26.037125 21.324409 26.377809 21.449219 26.662109 C 21.574029 26.942809 21.739246 27.177381 21.947266 27.363281 C 22.159896 27.549281 22.403051 27.691063 22.675781 27.789062 C 22.948511 27.887363 23.230274 27.952375 23.521484 27.984375 L 23.521484 28.994141 L 24.486328 28.994141 L 24.486328 27.984375 C 24.833018 27.949275 25.144525 27.878837 25.421875 27.773438 C 25.699225 27.668338 25.934756 27.526963 26.128906 27.351562 C 26.323046 27.176162 26.473758 26.969069 26.580078 26.730469 C 26.686381 26.488369 26.738281 26.217716 26.738281 25.916016 C 26.738281 25.607216 26.687628 25.334609 26.585938 25.099609 C 26.484236 24.864509 26.333526 24.657416 26.134766 24.478516 C 25.935996 24.299516 25.691611 24.143166 25.400391 24.009766 C 25.109171 23.872966 24.773581 23.749325 24.394531 23.640625 C 24.098691 23.545825 23.849874 23.449562 23.646484 23.351562 C 23.447724 23.249862 23.284956 23.14355 23.160156 23.03125 C 23.035346 22.91895 22.946125 22.795409 22.890625 22.662109 C 22.839725 22.525209 22.814453 22.373478 22.814453 22.205078 C 22.814453 22.022678 22.839825 21.855978 22.890625 21.705078 C 22.946095 21.554278 23.026502 21.425512 23.132812 21.320312 C 23.243754 21.211513 23.381179 21.128359 23.542969 21.068359 C 23.704759 21.008359 23.895307 20.978516 24.117188 20.978516 C 24.329816 20.978516 24.519137 21.018609 24.685547 21.099609 C 24.851957 21.180309 24.990624 21.291747 25.101562 21.435547 C 25.212502 21.579447 25.296063 21.750766 25.351562 21.947266 C 25.411563 22.143766 25.441406 22.35865 25.441406 22.59375 L 26.65625 22.59375 C 26.65625 21.88145 26.477034 21.320656 26.121094 20.910156 C 25.769784 20.496056 25.27215 20.24425 24.625 20.15625 L 24.625 18.994141 L 23.646484 18.994141 z " transform="translate(0,1004.3622)"></path></g></svg>