<svg height='100px' width='100px'  fill="#1A1A1A" xmlns="http://www.w3.org/2000/svg" viewBox="0 0 64 64" x="0px" y="0px"><title>Pregnancy</title><g data-name="Layer 2"><path d="M23,36.79l.1.08a.79.79,0,0,0,1.3-.61l0-7a1,1,0,0,1,1.94,0v12a3.12,3.12,0,0,0,1.41,2.61,1.31,1.31,0,0,1,.59,1.1h0a8.77,8.77,0,0,1-1.88,5.44,9.77,9.77,0,0,0-2.12,6.08v.35a3.41,3.41,0,0,0,3.41,3.41H44.13a5.87,5.87,0,0,0,5.57-4A12.9,12.9,0,0,0,48.2,45,34.63,34.63,0,0,0,44,39.94l-2.33-2.37a1.8,1.8,0,0,1-.07-2.46,2.9,2.9,0,0,0-.48-4.27l-5.72-4.11a2.56,2.56,0,0,1-1-1.86v-2.6a2,2,0,0,1,2-2,2.33,2.33,0,0,0,2.3-2,25.3,25.3,0,0,0,.23-5.76l-.09-1.19a.82.82,0,0,1,.3-.69,1.7,1.7,0,0,0,.29-2.33l-.33-.44A8.86,8.86,0,0,0,35.46,5a8.66,8.66,0,0,0-9.64,1.93h0a8.51,8.51,0,0,0-2.25,3.56,24.7,24.7,0,0,0-1.21,7.62v.74a42,42,0,0,1-1.07,9.44l-.1.42A10.24,10.24,0,0,0,22,35.59,3.65,3.65,0,0,0,23,36.79Zm11.92,8a2.5,2.5,0,0,1,3.47.63,2.5,2.5,0,0,1,4.11,2.85l-2,3a2.5,2.5,0,0,1-4.12,0l-2-3A2.5,2.5,0,0,1,34.89,44.75Z"></path></g></svg>