<svg height='100px' width='100px'  fill="#000000" xmlns="http://www.w3.org/2000/svg" xmlns:xlink="http://www.w3.org/1999/xlink" version="1.1" x="0px" y="0px" viewBox="0 0 148 127" enable-background="new 0 0 148 127" xml:space="preserve"><g><path d="M79.8,8.8c18.9,0,38,0.8,57,2.3c2.6,32.1,3.1,64.6,1.4,96.7c-14.6,1.4-32.9,2.1-53.3,2.1c-17.8,0-36.5-0.6-53.9-1.7   c-0.2,0-0.5,0-0.8,0c-3.2,0-7.1,1.2-12.9,3.5c2.6-4.8,3.8-8.1,3.7-11.3c-1.2-29.6-0.7-59.6,1.7-89.3C41.8,9.6,61,8.8,79.8,8.8    M79.8,0C59.6,0,39.4,0.9,19.1,2.6c-1.5,0.1-4.6,2.9-4.8,4.1c-2.7,31.4-3.4,62.6-2.1,94.1c0.2,4.4-13.7,23.3-12.2,25.9   c0.1,0.2,0.5,0.3,0.9,0.3c4.7,0,24.1-9.9,29.2-9.9c0.1,0,0.1,0,0.2,0c18,1.1,36.7,1.7,54.5,1.7c21.5,0,41.6-0.8,57.2-2.5   c1.5-0.2,4.7-3.9,4.7-5.3c1.9-34.7,1.4-69.1-1.5-103.7c-0.1-1.4-3.9-4.6-5.7-4.7C119.6,0.8,99.7,0,79.8,0L79.8,0z"></path></g><path d="M90.1,29.4c6.2,6,6.3,15.9,0.3,22c-6,6.2-15.8,6.3-22,0.3c-6.2-6-6.3-15.9-0.3-22C74.1,23.6,83.9,23.4,90.1,29.4z"></path><path d="M85.8,61.8c3.7,3.6,3.8,9.6,0.2,13.3c-3.6,3.7-9.6,3.8-13.3,0.2c-3.7-3.6-3.8-9.6-0.2-13.3C76.1,58.3,82.1,58.2,85.8,61.8z"></path><path d="M83.2,82.6c2.3,2.2,2.3,5.8,0.1,8.1c-2.2,2.3-5.8,2.3-8.1,0.1c-2.3-2.2-2.3-5.8-0.1-8.1C77.4,80.5,81,80.4,83.2,82.6z"></path></svg>