<svg height='100px' width='100px'  fill="#000000" xmlns="http://www.w3.org/2000/svg" xmlns:xlink="http://www.w3.org/1999/xlink" version="1.1" x="0px" y="0px" viewBox="0 0 66 66" style="enable-background:new 0 0 66 66;" xml:space="preserve"><g><path d="M5.1,9.5l22.2,26.4v18.7c0,0.4,0.2,0.7,0.6,0.9c0.1,0.1,0.3,0.1,0.4,0.1c0.2,0,0.4-0.1,0.6-0.2l9.5-7.7   c0.2-0.2,0.4-0.5,0.4-0.8v-11L60.9,9.5H5.1z M33,20.5c2.6,0,4.7,2.1,4.7,4.7c0,2.3-1.6,4.2-3.7,4.6v0.9c0,0.5-0.4,1-1,1   c-0.5,0-1-0.4-1-1v-0.9c-2.1-0.4-3.7-2.3-3.7-4.6c0-0.5,0.4-1,1-1c0.5,0,1,0.4,1,1c0,1.5,1.2,2.8,2.8,2.8s2.8-1.2,2.8-2.8   c0-1.5-1.2-2.8-2.8-2.8c-2.6,0-4.7-2.1-4.7-4.7c0-2.3,1.6-4.2,3.7-4.6v-0.9c0-0.5,0.4-1,1-1c0.5,0,1,0.4,1,1v0.9   c2.1,0.4,3.7,2.3,3.7,4.6c0,0.5-0.4,1-1,1c-0.5,0-1-0.4-1-1c0-1.5-1.2-2.8-2.8-2.8s-2.8,1.2-2.8,2.8C30.2,19.2,31.5,20.5,33,20.5z"></path><path d="M4.3,7.6h57.4c1.8,0,3.3-1.5,3.3-3.3C65,2.5,63.5,1,61.7,1H4.3C2.5,1,1,2.5,1,4.3C1,6.1,2.5,7.6,4.3,7.6z"></path><path d="M53.6,42.2c-6.3,0-11.4,5.1-11.4,11.4c0,6.3,5.1,11.4,11.4,11.4S65,59.9,65,53.6C65,47.3,59.9,42.2,53.6,42.2z M53.6,52.6   c1.8,0,3.3,1.5,3.3,3.3c0,1.5-1,2.8-2.4,3.2v0.5c0,0.5-0.4,1-1,1s-1-0.4-1-1v-0.5c-1.4-0.4-2.4-1.7-2.4-3.2c0-0.5,0.4-1,1-1   c0.5,0,1,0.4,1,1c0,0.8,0.6,1.4,1.4,1.4c0.8,0,1.4-0.6,1.4-1.4c0-0.8-0.6-1.4-1.4-1.4c-1.8,0-3.3-1.5-3.3-3.3c0-1.5,1-2.8,2.4-3.2   v-0.5c0-0.5,0.4-1,1-1s1,0.4,1,1V48c1.4,0.4,2.4,1.7,2.4,3.2c0,0.5-0.4,1-1,1c-0.5,0-1-0.4-1-1c0-0.8-0.6-1.4-1.4-1.4   c-0.8,0-1.4,0.6-1.4,1.4C52.2,52,52.8,52.6,53.6,52.6z"></path><path d="M12.4,65c6.3,0,11.4-5.1,11.4-11.4c0-6.3-5.1-11.4-11.4-11.4C6.1,42.2,1,47.3,1,53.6C1,59.9,6.1,65,12.4,65z M12.4,54.6   c-1.8,0-3.3-1.5-3.3-3.3c0-1.5,1-2.8,2.4-3.2v-0.5c0-0.5,0.4-1,1-1c0.5,0,1,0.4,1,1V48c1.4,0.4,2.4,1.7,2.4,3.2c0,0.5-0.4,1-1,1   c-0.5,0-1-0.4-1-1c0-0.8-0.6-1.4-1.4-1.4c-0.8,0-1.4,0.6-1.4,1.4c0,0.8,0.6,1.4,1.4,1.4c1.8,0,3.3,1.5,3.3,3.3c0,1.5-1,2.8-2.4,3.2   v0.5c0,0.5-0.4,1-1,1c-0.5,0-1-0.4-1-1v-0.5c-1.4-0.4-2.4-1.7-2.4-3.2c0-0.5,0.4-1,1-1c0.5,0,1,0.4,1,1c0,0.8,0.6,1.4,1.4,1.4   c0.8,0,1.4-0.6,1.4-1.4C13.8,55.2,13.2,54.6,12.4,54.6z"></path><path d="M51.6,26.1v6.5c0,0.5,0.4,1,1,1c0.5,0,1-0.4,1-1v-6.5c0-0.5-0.4-1-1-1C52.1,25.2,51.6,25.6,51.6,26.1z"></path><path d="M56.6,29.8v7.7c0,0.5,0.4,1,1,1c0.5,0,1-0.4,1-1v-7.7c0-0.5-0.4-1-1-1C57,28.8,56.6,29.3,56.6,29.8z"></path><path d="M7.4,29.8v7.7c0,0.5,0.4,1,1,1c0.5,0,1-0.4,1-1v-7.7c0-0.5-0.4-1-1-1C7.9,28.8,7.4,29.3,7.4,29.8z"></path><path d="M12.4,26.1v6.5c0,0.5,0.4,1,1,1s1-0.4,1-1v-6.5c0-0.5-0.4-1-1-1S12.4,25.6,12.4,26.1z"></path></g></svg>