<svg height='100px' width='100px'  fill="#000000" xmlns="http://www.w3.org/2000/svg" viewBox="0 0 55.44 76.33" x="0px" y="0px"><title>Asset 43</title><g data-name="Layer 2"><g data-name="Layer 1"><path d="M4.64,34.25c4.6.62-1.21-6.08-1-8.29a7.93,7.93,0,0,1,2.81-4.57c1.54-1.09,1.28-1,2.6-.31,1.73.93,3.4,4,3.1,5.69-.51,2.82-2.83,3.75-2,7a6.8,6.8,0,0,0,7.2,5.37C16.05,35.72,10,33.58,12.67,29c1.87-3.18,4.84.07,7.59.42-.42-1.63-5.1-3.62-1.45-4.09-5-2.35-9.66-5.81-7.14-11.89C12.42,11.64,18,3.2,20.13,7.54,23.74,1.8,32,1.67,37.74,3.7c7.42,2.62,7.08,8.3,9.78,14.56.87-1.18,1.83-11.64-.36-11.09C45.86-2.66,29.75-.54,23.77,2.72c-1.18.65-2.63,2.7-3.64,3S17.44,5,15.86,5.67a10.47,10.47,0,0,0-3,2.48C10.55,10.52,10.08,13,9.2,16.06c-.94,3.32-2,4.25-4.69,6.13C2.07,23.93.39,25.37.91,28.79,1.15,30.4,2.74,34,4.64,34.25Z"></path><path d="M54.65,35.87c-.91.3-2.66,7.44-4,8.71-1.08,1-6.67,3.29-8.27,2.52-1.19-.57-1.06-4-3.12-3.67,3.59,4.6.89,2.29-1.53,4.33,1.47,2,2.24,1.73,1.45,3.86-1.17,3.18-5.71,3.27-6.71,6.29,4.57,0-.95,9-1.07,11a6.08,6.08,0,0,0,2.52-2.08c2.09,2.85-2.53,6.6-2.38,9.53,2.84-2.11,3.55-4.62,3.75-7.83.09-1.51,1-4.75.68-6.22-.32-.24-.6-.11-.83.41.86-7,5.22-11,11.38-13.64C52,46.68,57.53,42.52,54.65,35.87Z"></path><path d="M50.87,27.08C51.39,31.66,47,33.89,46,38c12.31-3.54,7.31-18-3.24-19.78C46,20.42,50.36,22.69,50.87,27.08Z"></path><path d="M27.59,69c-2-2.55-5.29-3.76-7.27-6.29-.58-.74-1.95-4.72-2.34-4-2.26-2.24-5.21-2.31-5.21-6.14-.85,1.57-.31,4.21.51,5.67a5.13,5.13,0,0,0,2,2.17c1.63.91,1.38-.22,1.43-.31-.4.6,5.78,5.86,6.15,6.51.8,1.39.06,3.16.29,4.83.18,1.2,2,5.51,3.91,2.7,1-1.49-2.89-4.51-2.44-6.35A27.29,27.29,0,0,1,27.59,69Z"></path><path d="M5.65,47.65c-4.8-3.84-2.83-8.11-1.21-13.09-4.87,0-5,7.16-3.85,10.41,2,5.7,8,6.39,13.14,7.58C14.17,51.29,6.74,48.52,5.65,47.65Z"></path><path d="M35.73,19.37a4.76,4.76,0,0,0,.05-4.12c-2.05-3.95-13.49-2.48-11.68.4,4.47-3,6.36-.89,9.14,2.9C34.42,20.16,34.23,21.8,35.73,19.37Z"></path><path d="M17.79,49.49C14,45,8.32,47.85,9.47,39.35,6.37,39.13,8.34,54.15,17.79,49.49Z"></path><path d="M47.94,48.87c.06.13.12.26.17.39C48.09,49,48,48.83,47.94,48.87Z"></path><path d="M47.21,55.82c-1.89,3.25-7.42,2.79-8.66,6.48,7.18,2.44,12.1-7.13,9.56-13A25.7,25.7,0,0,1,47.21,55.82Z"></path><path d="M26.75,50.44c0-4.43-3.55-7.9-3.34-12.41.32-.7.66-1.4,1-2.08C17.19,36.5,23.39,48.29,26.75,50.44Z"></path><path d="M35.63,41.77c4.63.38,6-14,1.15-14C39.83,32.19,33.93,39.83,35.63,41.77Z"></path></g></g></svg>