<svg height='100px' width='100px'  fill="#000000" xmlns="http://www.w3.org/2000/svg" viewBox="0 0 512 512" x="0px" y="0px"><g><path d="M186.269,182.006l15.5,3.988A55.965,55.965,0,0,1,256,144V128A71.96,71.96,0,0,0,186.269,182.006Z"></path><path d="M359.775,27.855a8,8,0,0,0-5.509-3.259L306.49,18.7a8,8,0,0,0-8.822,6.362L282.7,99.481A104.019,104.019,0,0,0,152,200v.4A20.032,20.032,0,0,0,136,220v20a8,8,0,0,0,8,8h8.737l23.3,240.771A8,8,0,0,0,184,496h71.556c.146,0,.291.011.437.011s.292-.009.438-.011H328a8,8,0,0,0,7.963-7.229L359.263,248H368a8,8,0,0,0,8-8V220a20.032,20.032,0,0,0-16-19.6V200a103.433,103.433,0,0,0-19.932-61.149L361.129,34.112A8,8,0,0,0,359.775,27.855ZM290.818,140.288l.018-.088a15.951,15.951,0,0,1,2.414-5.713h0a15.985,15.985,0,0,1,12.516-7.022,88.789,88.789,0,0,1,16.689,14.91,15.983,15.983,0,0,1-.228,4.039l-.05.249a16,16,0,0,1-31.359-6.374Zm-5.46,27.154a32.467,32.467,0,0,0,3.253,2.519,31.774,31.774,0,0,0,17.835,5.485,32.151,32.151,0,0,0,10.282-1.686L311.452,200H278.811ZM275.194,306c-5.914,0-8.672-2.586-13.427-7.54l-.085-.088a15.992,15.992,0,0,1,1.595-14.864h0a15.988,15.988,0,0,1,29.092,11.214c-1.371,1.275-2.608,2.555-3.743,3.737C283.868,303.414,281.11,306,275.194,306Zm11.569,16.779-7.155,35.578-31.372-6.308,7.156-35.585a31.889,31.889,0,0,0,21.081,8,32.231,32.231,0,0,0,10.29-1.69Zm-20.451-60.622L269.159,248H301.8l-4.112,20.449a32.472,32.472,0,0,0-3.248-2.514A31.96,31.96,0,0,0,266.312,262.157ZM272.376,232l3.218-16h32.64l-3.217,16ZM256,112a87.77,87.77,0,0,1,23.542,3.2l-4.311,21.441q-.1.449-.181.9L262.491,200H168A88.1,88.1,0,0,1,256,112ZM152,232V220a4,4,0,0,1,4-4H259.274l-3.218,16H152Zm16.812,16h84.027l-7.859,39.08A30.448,30.448,0,0,0,236.8,286c-13.009,0-19.922,7.2-24.97,12.46-4.757,4.954-7.514,7.54-13.429,7.54s-8.671-2.585-13.427-7.54c-3.064-3.192-6.826-7.092-12.211-9.67Zm22.451,232-1.314-13.576a31.881,31.881,0,0,0,30.217,3.165,32.479,32.479,0,0,0,4.042-2.006,32.217,32.217,0,0,0,4.1,12.417Zm1.964-46.166a16,16,0,1,1,8.606,20.927A15.9,15.9,0,0,1,193.227,433.834Zm77.533,36.319A16.025,16.025,0,0,1,256,480h-.079a16,16,0,0,1-.267-32c.114,0,.229.009.344.009s.229-.008.343-.009a15.995,15.995,0,0,1,14.424,22.151Zm0-48a15.967,15.967,0,0,1-14.413,9.83c-.236,0-.472,0-.708,0a16,16,0,1,1,15.121-9.833ZM320.737,480H283.7a31.986,31.986,0,0,0,4.1-12.415,32.011,32.011,0,0,0,34.252-1.168Zm-31.51-46.166a16,16,0,1,1,8.606,20.927A15.9,15.9,0,0,1,289.227,433.834Zm37.557-16.324a32.065,32.065,0,0,0-34.962-7.112,32.634,32.634,0,0,0-4.026,2,32,32,0,0,0-63.595.009,32.393,32.393,0,0,0-3.887-1.943,32.043,32.043,0,0,0-35.1,7.041l-10.3-106.427C179.84,316.1,186.615,322,198.4,322c13.01,0,19.923-7.2,24.971-12.46,4.757-4.954,7.514-7.54,13.428-7.54a13.685,13.685,0,0,1,5.014.846l-10.837,53.891a8,8,0,0,0,6.266,9.42L284.3,375.62a8,8,0,0,0,9.42-6.266l13.217-65.724A12.81,12.81,0,0,1,313.6,302c5.916,0,8.674,2.586,13.43,7.54a48.745,48.745,0,0,0,9.418,8.148Zm11.545-119.3C333.3,292.977,326.406,286,313.6,286c-1.1,0-2.138.068-3.152.166L318.12,248h25.068ZM356,216a4,4,0,0,1,4,4v12H321.337l3.218-16H356Zm-12-16H327.772l7.626-37.927A87.478,87.478,0,0,1,344,200Zm-16.346-80.574a32.323,32.323,0,0,0-3.242-2.515,31.8,31.8,0,0,0-13.441-5.156,103.9,103.9,0,0,0-13.025-6.911L311.892,35.49l31.85,3.929Z"></path><rect x="365.639" y="62" width="44.721" height="16" transform="translate(249.742 439.227) rotate(-79.698)"></rect><rect x="365.985" y="116" width="24.393" height="16" transform="translate(188.55 473.91) rotate(-79.698)"></rect><rect x="200" y="344" width="16" height="16.578"></rect><rect x="200" y="375.422" width="16" height="16.578"></rect><rect x="304" y="375.422" width="16" height="16.578"></rect></g></svg>