<svg height='100px' width='100px'  fill="#000000" xmlns="http://www.w3.org/2000/svg" xmlns:xlink="http://www.w3.org/1999/xlink" version="1.1" x="0px" y="0px" viewBox="0 0 101 101" style="enable-background:new 0 0 101 101;" xml:space="preserve"><g style="" display="none"><g style="display:inline;opacity:0.25;"><line style="" x1="1763" y1="-0.002" x2="-264.854" y2="-0.002" fill="none" stroke="#000000" stroke-linecap="round" stroke-linejoin="round" stroke-miterlimit="10"></line></g></g><g><g><path d="M73.074,78.707l-0.276-1.838c-0.019-0.129-0.088-0.244-0.19-0.322c0.025-0.299-0.05-0.609-0.226-0.914    c-0.359-0.622-1.152-1.114-1.992-1.635c-0.396-0.245-0.799-0.495-1.149-0.758c-0.963-0.726-2.138-1.957-2.15-1.97    c-0.125-0.13-0.307-0.18-0.474-0.142c-1.843-1.517-3.67-4.117-5.157-6.233c-0.993-1.413-1.85-2.632-2.562-3.345    c-0.194-0.194-0.389-0.39-0.58-0.581c-0.317-0.529-0.744-0.953-1.23-1.252c-0.202-0.211-0.356-0.38-0.441-0.486    c-0.335-2.29-2.838-6.29-2.945-6.459c-0.009-0.015-0.019-0.029-0.03-0.042c1.563-2.847,1.274-5.575,1.26-5.69    c-0.002-0.019-0.005-0.038-0.01-0.057c-0.021-0.09-0.135-0.548-0.384-1.051c0.295-0.774,0.902-3.132-1.434-5.468    c-1.139-1.139-1.955-1.812-2.533-2.206c0.003-0.001,0.006-0.003,0.008-0.004c0.407,0.25,0.948,0.531,1.595,0.75    c2.158,1.23,7.942,2.924,9.087,3.254c0.305,0.479,1.211,1.753,2.401,2.064c0.314,0.082,0.701,0.133,1.104,0.133    c0.841,0,1.748-0.222,2.192-0.836c0.299-0.414,0.498-1.147-0.247-2.296c-1.084-1.673-3.281-1.582-4.053-1.494    c-0.648-0.643-2.887-2.801-4.742-3.835c-1.896-1.058-3.479-1.46-3.879-1.55l-1.615-1.023c-0.023-0.102-0.048-0.206-0.077-0.312    c-0.042-0.154-0.154-0.279-0.303-0.336c-0.028-0.011-0.141-0.054-0.321-0.122c0.439-0.047,0.729-0.109,0.768-0.118    c0.269-0.06,0.439-0.326,0.38-0.596c-0.018-0.081-0.452-1.987-1.925-2.837c-1.54-0.888-3.244,0.148-3.272,0.169    c-0.028,0.014-2.911,1.407-4.787,0.322c-0.193-0.111-0.35-0.213-0.479-0.306c0.073-0.075,0.217-0.246,0.359-0.538    c1.469-0.869,2.407-2.218,2.875-3.546c2.292-0.312,4.028-2.663,4.105-2.768c0.162-0.223,0.113-0.535-0.109-0.698    c-0.066-0.049-1.657-1.186-3.321-0.854c-1.744,0.353-2.334,2.258-2.342,2.292c-0.007,0.017-0.397,0.944-1.11,1.834    c-0.721-2.313-2.976-4.246-6.396-3.904c-4.132,0.422-4.352,4.036-4.354,4.072c-0.01,0.213,0.116,0.41,0.314,0.488l0.812,0.324    c-0.006,0.233,0.009,0.469,0.047,0.705l0.488,3.003c0.098,0.626,0.343,1.204,0.711,1.698c-0.754,0.153-1.588,0.47-2.227,1.108    C30.894,33.868,30.2,36.1,30.2,39.133c0,0.088,0.023,0.174,0.067,0.25c0.017,0.029,0.037,0.06,0.06,0.092    c-0.149,0.589-0.627,2.551-0.889,4.52c-0.025,0.005-0.049,0.011-0.074,0.018c-1.168,0.316-1.738,1.844-1.297,3.479    c0.201,0.743,0.586,1.396,1.085,1.838c0.421,0.373,0.902,0.57,1.369,0.57c0.127,0,0.253-0.015,0.376-0.045    c1.17,1.237,2.676,2.528,3.268,3.025c-0.151,0.791,0.043,2.014,1.606,2.626c0.346,0.136,0.688,0.203,1.019,0.203    c0.521,0,1.013-0.167,1.437-0.497c0.732-0.57,1.167-1.578,1.056-2.452c-0.099-0.782-0.419-1.346-0.951-1.676    c-0.562-0.349-1.216-0.328-1.643-0.26c-1.283-2.725-2.709-4.306-3.293-4.886l1.4-3.359c1.665,2.514,3.866,4.871,4.402,5.432    c0.099,0.75,0.532,3.759,1.275,5.165c0.052,0.117,0.138,0.227,0.231,0.286c-0.343,1.444-0.458,2.793-0.447,3.838    c-0.012,0.008-0.023,0.016-0.035,0.024c-1.227,0.883-1.09,2.619,0.367,4.643c0.647,0.899,1.356,1.578,2.05,1.964    c0.138,0.077,0.276,0.141,0.412,0.194c1.696,2.582,3.316,7.278,3.896,9.042c-0.273,0.075-0.57,0.153-0.879,0.233    c-2.33,0.606-4.738,1.234-4.738,2.701c0.022,0.533,0.294,1.128,0.944,1.436c-0.149,0.259-0.235,0.559-0.235,0.879    c0,0.973,0.792,1.765,1.765,1.765s1.765-0.792,1.765-1.765c0-0.211-0.037-0.414-0.106-0.602c0.73,0.03,1.493,0.06,2.215,0.073    c-0.053,0.167-0.081,0.345-0.081,0.529c0,0.973,0.792,1.765,1.765,1.765s1.765-0.792,1.765-1.765c0-0.336-0.094-0.65-0.258-0.917    c0.009-0.016,0.018-0.033,0.026-0.05c0.004-0.008,0.007-0.017,0.01-0.025l0.001,0c0.329-0.33,1.202-1.208,0.598-3.49    c-0.055-0.209-0.234-0.349-0.447-0.369c0.013-0.189,0.029-0.398,0.047-0.627c0.135-1.763,0.362-4.713-0.233-8.466    c-0.136-0.856-0.298-1.615-0.474-2.286c1.133,1.266,2.117,2.473,2.318,2.721c0.14,0.292,0.774,1.523,2.047,2.795    c1.03,1.03,6.396,4.654,8.787,5.937c0.022,0.059,0.055,0.115,0.098,0.163c0.504,0.554,1.24,1.393,1.48,1.724    c0.001,0.012,0.002,0.024,0.003,0.036c-0.088,0.107-0.132,0.25-0.108,0.397l0.401,2.466c0.022,0.134,0.097,0.252,0.208,0.33    c0.084,0.059,0.185,0.09,0.286,0.09c0.031,0,0.063-0.003,0.094-0.009l1.191-0.229c0.137-0.026,0.25-0.107,0.322-0.215l0.206,1.266    c0.022,0.133,0.097,0.252,0.207,0.33c0.085,0.059,0.185,0.09,0.287,0.09c0.031,0,0.063-0.003,0.094-0.009l1.191-0.229    c0.263-0.051,0.44-0.3,0.4-0.565l-0.122-0.814c0.327-0.038,0.658-0.106,0.972-0.204l0.135,0.83    c0.022,0.133,0.097,0.252,0.207,0.33c0.085,0.059,0.185,0.09,0.287,0.09c0.031,0,0.063-0.003,0.094-0.009l1.191-0.229    C72.937,79.221,73.113,78.972,73.074,78.707z M43.322,76.75c-0.44,0-0.969-0.119-0.992-0.667c0-0.674,2.695-1.376,3.991-1.713    c0.492-0.128,0.954-0.249,1.34-0.366c1.201,0.483,2.359,0.566,2.965,0.57c0.286,1.428-0.191,1.907-0.43,2.146    c-0.021,0.021-0.048,0.048-0.077,0.081c-1.023,0.161-3.065,0.077-4.729,0.011C44.588,76.78,43.855,76.75,43.322,76.75z     M50.107,72.864c-0.019,0.249-0.036,0.475-0.05,0.68c-0.569-0.05-1.333-0.179-2.101-0.5c-0.459-1.432-1.951-5.88-3.652-8.791    c0.243-0.053,0.472-0.155,0.683-0.306c0.652-0.469,0.988-1.268,0.947-2.25c-0.003-0.071-0.009-0.142-0.015-0.213l2.662-1.462    c0.449,0.975,0.961,2.462,1.302,4.61C50.461,68.269,50.24,71.146,50.107,72.864z M37.807,51.935    c0.263,0.163,0.427,0.483,0.486,0.951c0.056,0.446-0.162,1.137-0.678,1.538c-0.415,0.322-0.913,0.373-1.477,0.153    c-1.297-0.508-1.008-1.503-0.938-1.694c0.078-0.201,0.018-0.43-0.149-0.567c-0.026-0.021-1.898-1.56-3.293-3.005    c0.451-0.585,0.53-1.562,0.197-2.798c-0.004-0.014-0.008-0.027-0.012-0.041l0.44-0.137c0.026,0.04,0.057,0.077,0.094,0.109    c0.019,0.016,1.909,1.675,3.474,5.164c0.106,0.237,0.376,0.354,0.621,0.268C36.76,51.81,37.395,51.678,37.807,51.935z     M34.764,29.538l-0.488-3.003l0,0c-0.008-0.048-0.014-0.096-0.019-0.144l6.174,2.459c0.127,1.478-0.912,2.83-2.4,3.065    c-0.753,0.117-1.507-0.063-2.125-0.512C35.288,30.955,34.883,30.292,34.764,29.538z M48.586,22.267    c-0.597,0.671-1.888,1.906-3.339,1.964c-0.214,0.008-0.398,0.152-0.459,0.357c-0.113,0.381-0.548,1.623-1.662,2.643    c0.017-0.295,0.013-0.625-0.022-0.995c1.153-1.149,1.764-2.608,1.812-2.731c0.004-0.014,0.436-1.411,1.599-1.646    C47.294,21.701,48.098,22.014,48.586,22.267z M42.385,30.455c2.341,1.353,5.592-0.223,5.77-0.313    c0.013-0.008,1.272-0.765,2.289-0.177c0.69,0.398,1.086,1.165,1.285,1.677c-0.892,0.106-2.678,0.178-3.803-0.737    c-0.166-0.135-0.399-0.149-0.581-0.036c-0.556,0.347-3.322,1.871-6.271-0.135c0.148-0.313,0.255-0.648,0.314-0.996    C41.635,29.975,41.967,30.213,42.385,30.455z M62.125,40.708c0.117,0.12,0.287,0.171,0.451,0.141    c0.024-0.005,2.359-0.431,3.297,1.016c0.197,0.305,0.496,0.861,0.275,1.167c-0.305,0.422-1.47,0.522-2.232,0.322    c-0.856-0.224-1.658-1.354-1.894-1.77c-0.065-0.114-0.172-0.199-0.299-0.235c-0.065-0.018-6.112-1.737-8.657-3.004l1.519-2.714    c0.676,0.214,1.701,0.598,2.844,1.235C59.45,37.992,62.099,40.681,62.125,40.708z M44.923,58.969    c-0.159-0.22-0.327-0.424-0.504-0.612l3.339,0.247c0.083,0.106,0.208,0.28,0.359,0.531l-2.419,1.328    C45.526,59.951,45.264,59.443,44.923,58.969z M41.209,34.542l-1.199,1.542l-1.886-1.274v-1.899    c0.021-0.003,0.041-0.005,0.062-0.009c0.953-0.151,1.77-0.641,2.347-1.327c0.142,0.096,0.284,0.185,0.426,0.268L41.209,34.542z     M53.578,35.334c0.007,0.004,0.014,0.008,0.021,0.012l-1.446,2.583c-0.275-0.111-0.523-0.231-0.741-0.35    c0.533-0.566,1.132-1.507,1.149-2.889L53.578,35.334z M32.605,45.241c-0.046,0.001-0.093,0.007-0.139,0.021l-0.863,0.269    c-0.158-0.343-0.341-0.639-0.543-0.877c-0.195-0.229-0.407-0.403-0.631-0.519c0.177-1.307,0.461-2.73,0.74-3.898    c0.655,0.458,1.642,0.969,2.953,1.366L32.605,45.241z M44.835,47.756c3.025-3.025,6.262-3.294,8.125-2.217    c0.547,0.316,0.885,1.263,0.981,1.641c0.024,0.283,0.181,2.682-1.168,5.11c-1.292,2.326-4.236,4.764-4.927,5.319l-4.937-0.366    c-0.559-0.259-1.128-0.369-1.652-0.31C41.304,54.292,42.215,50.377,44.835,47.756z M48.705,58.202    c0.877-0.718,2.997-2.549,4.377-4.527c0.605,1.008,2.234,3.837,2.552,5.558c-0.486-0.04-0.98,0.037-1.445,0.246    c-1.312,0.59-1.989,2.054-1.753,3.534c-0.758-0.891-1.805-2.084-2.802-3.088C49.282,59.099,48.944,58.542,48.705,58.202z     M54.565,65.849c0.423,0.189,0.862,0.283,1.295,0.283c0.413,0,0.821-0.086,1.204-0.258c1.108-0.498,1.763-1.62,1.798-2.848    c0.521,0.653,1.119,1.505,1.779,2.444c1.457,2.074,3.232,4.598,5.092,6.219l-1.64,1.121c-1.924-1.063-7.455-4.642-8.625-5.812    c-0.423-0.423-0.769-0.842-1.043-1.216C54.471,65.805,54.518,65.828,54.565,65.849z M68.584,77.437    c-0.578-0.135-2.462-0.683-2.462-2.065c0-0.087-0.023-0.174-0.067-0.25c-0.167-0.291-0.835-1.059-1.285-1.563l1.894-1.295    c0.428,0.43,1.243,1.222,1.975,1.774c0.373,0.281,0.802,0.548,1.224,0.81c0.698,0.433,1.419,0.88,1.652,1.285    c0.16,0.277,0.095,0.434,0,0.561C71.059,77.309,69.452,77.639,68.584,77.437z"></path></g></g></svg>