<svg height='100px' width='100px'  fill="#000000" xmlns="http://www.w3.org/2000/svg" xmlns:xlink="http://www.w3.org/1999/xlink" viewBox="0 0 100 100" version="1.1" x="0px" y="0px"><title>give-love-1</title><desc>Created with Sketch.</desc><g stroke="none" stroke-width="1" fill="none" fill-rule="evenodd"><path d="M68.0626364,52.8744589 L51.6036423,69.3334529 C50.5446633,70.392432 48.8275371,70.392432 47.768558,69.3334529 L31.3095639,52.8744589 L30.8149871,52.3798821 C25.9197157,47.4850939 25.9199573,39.5484288 30.8152287,34.6536406 L31.4656443,34.003225 C36.3606741,29.1086784 44.2966144,29.1086784 49.1916442,34.0034666 L49.6859794,34.4978018 L50.1805562,34.0034666 C55.0748611,29.1084368 63.0108013,29.1079536 67.9058311,34.0025002 L68.5562468,34.6526742 C73.4515182,39.547704 73.4520014,47.484369 68.5569716,52.3798821 L68.0626364,52.8744589 Z M23.1953151,20.934027 C23.613543,20.9132485 23.9909387,21.0978389 24.2395559,21.4230467 C26.2149638,24.0102125 24.9899983,26.8638748 24.9300789,26.9999015 L20.5977601,37.1540682 C20.4496528,37.1359474 20.2998542,37.1238669 20.1471564,37.1238669 C18.0992653,37.1238669 16.433119,38.7900133 16.433119,40.8379043 L16.433119,56.0361746 C16.433119,56.5696507 16.8658435,57.0026168 17.3995612,57.0026168 C17.4551316,57.0026168 17.5087691,56.9951268 17.5616819,56.9861872 C17.7056817,56.9617846 17.8385675,56.906939 17.9535742,56.8262411 C18.202433,56.6515566 18.3660034,56.3633152 18.3660034,56.0361746 L18.3660034,40.8379043 C18.3660034,39.8557574 19.1650095,39.0567513 20.1471564,39.0567513 C21.1295449,39.0567513 21.9283094,39.8557574 21.9283094,40.8379043 L21.9283094,47.9248251 C21.9283094,49.8033471 22.630188,51.5489834 23.9049253,52.8406334 C27.8262646,56.8146438 27.5155534,62.1837135 27.5121709,62.2354181 C27.5104796,62.2581295 27.5097548,62.2813241 27.5097548,62.3042771 L27.5097548,69.459332 L13.9288256,69.459332 L8.32080303,58.409515 C6.15621409,53.0496265 6.53916682,47.0888526 9.3732586,42.0495813 C13.0984101,35.425828 18.9784861,26.3434457 22.1520407,21.5189661 C22.3866446,21.162349 22.7669396,20.9492485 23.1953151,20.934027 L23.1953151,20.934027 Z M30.7318731,69.459332 L29.4426392,69.459332 L29.4426392,62.3347201 C29.476223,61.7584789 29.695847,55.9569263 25.2806558,51.4830237 C24.3787236,50.569011 23.8611938,49.2718039 23.8611938,47.9248251 L23.8611938,40.8379043 C23.8611938,39.6320261 23.2810869,38.5619329 22.3878526,37.8830073 L26.6991514,27.7778875 C26.772601,27.6160084 28.4650829,23.7719845 25.7754742,20.2497859 C25.1419713,19.4200953 24.1803613,18.9653842 23.1271809,19.0023506 C22.0800408,19.039317 21.1119073,19.5831824 20.5371158,20.4568461 C17.3497894,25.3021042 11.4424114,34.4272515 7.68874983,41.1019847 C4.55771867,46.669175 4.14094047,53.2562035 6.54496547,59.1742124 C6.55511311,59.1990983 6.56646881,59.2237426 6.57854934,59.247662 L11.7610957,69.459332 L10.1949761,69.459332 C9.86131192,69.459332 9.59094971,69.7296943 9.59094971,70.0633584 L9.59094971,80.6942228 C9.59094971,81.0278869 9.86131192,81.2982491 10.1949761,81.2982491 L30.7318731,81.2982491 C31.0655373,81.2982491 31.3358995,81.0278869 31.3358995,80.6942228 L31.3358995,70.0633584 C31.3358995,69.7296943 31.0655373,69.459332 30.7318731,69.459332 L30.7318731,69.459332 Z M72.4903914,69.459332 L72.4903914,62.3042771 C72.4903914,62.2827738 72.4894249,62.2588543 72.4879753,62.2375926 C72.4843511,62.1837135 72.1733983,56.8146438 76.0952208,52.8406334 C77.3694749,51.5489834 78.0713535,49.8033471 78.0713535,47.9248251 L78.0713535,40.8379043 C78.0713535,39.8557574 78.8703596,39.0567513 79.8525065,39.0567513 C80.8348951,39.0567513 81.6339012,39.8557574 81.6339012,40.8379043 L81.6339012,56.0361746 C81.6339012,56.3633152 81.7977131,56.651315 82.0463304,56.8262411 C82.161337,56.9066974 82.2939812,56.961543 82.4379811,56.9861872 C82.4911354,56.9951268 82.5447729,57.0026168 82.6003434,57.0026168 C83.1340611,57.0026168 83.5667856,56.5696507 83.5667856,56.0361746 L83.5667856,40.8379043 C83.5667856,38.7900133 81.9006392,37.1238669 79.8525065,37.1238669 C79.6998087,37.1238669 79.5500101,37.1359474 79.4021445,37.1540682 L75.0630606,26.9841968 C75.0096646,26.8638748 73.7846991,24.0102125 75.7605902,21.4230467 C76.0089659,21.0975973 76.3969924,20.9214632 76.8043478,20.934027 C77.2332065,20.9492485 77.6135016,21.162349 77.8478638,21.5189661 C81.0206936,26.3424792 86.9000448,35.4234118 90.6266459,42.0495813 C93.4609793,47.0888526 93.8436904,53.0496265 91.6793431,58.409515 L86.0708373,69.459332 L72.4903914,69.459332 Z M92.3113963,41.1019847 C88.5560435,34.4248354 82.6496319,25.3011377 79.4627887,20.4568461 C78.8877556,19.5829408 77.9193805,19.039317 76.8722404,19.0023506 C75.8275163,18.9629681 74.8579332,19.4200953 74.2244303,20.2497859 C71.5348217,23.7717429 73.227062,27.6160084 73.2920552,27.7580754 L77.6118103,37.8830073 C76.7188177,38.5619329 76.1384691,39.6320261 76.1384691,40.8379043 L76.1384691,47.9248251 C76.1384691,49.2718039 75.6211809,50.569011 74.7192487,51.4830237 C70.3045407,55.9566847 70.5236815,61.7577541 70.557507,62.3347201 L70.557507,69.459332 L69.509642,69.459332 C69.1759778,69.459332 68.9056156,69.7296943 68.9056156,70.0633584 L68.9056156,80.6942228 C68.9056156,81.0278869 69.1759778,81.2982491 69.509642,81.2982491 L89.8049284,81.2982491 C90.1385926,81.2982491 90.4089548,81.0278869 90.4089548,80.6942228 L90.4089548,70.0633584 C90.4089548,69.7296943 90.1385926,69.459332 89.8049284,69.459332 L88.2388088,69.459332 L93.4215968,59.247662 C93.4334357,59.2237426 93.4447914,59.1990983 93.4549391,59.1742124 C95.8589641,53.2562035 95.4424275,46.669175 92.3113963,41.1019847 L92.3113963,41.1019847 Z" fill="#000000"></path></g></svg>