<svg height='100px' width='100px'  fill="#000000" xmlns="http://www.w3.org/2000/svg" xmlns:xlink="http://www.w3.org/1999/xlink" version="1.1" x="0px" y="0px" viewBox="0 0 100 100" enable-background="new 0 0 100 100" xml:space="preserve"><path d="M50,41.415c-8.375,0-15.166,6.789-15.166,15.166S41.625,71.748,50,71.748c8.377,0,15.166-6.79,15.166-15.167  S58.377,41.415,50,41.415z M83.525,21.764H71.723c-1.338-6.049-6.725-10.576-13.174-10.576h-17.1  c-6.449,0-11.836,4.527-13.172,10.576H24.35v-1.97c0-0.746-0.604-1.351-1.35-1.351h-7.764c-0.746,0-1.35,0.604-1.35,1.351v2.224  C7.672,23.225,2.975,28.692,2.975,35.264v40.049c0,7.457,6.045,13.5,13.5,13.5h67.051c7.455,0,13.5-6.043,13.5-13.5V35.264  C97.025,27.807,90.98,21.764,83.525,21.764z M50,79.025c-12.395,0-22.443-10.049-22.443-22.444  c0-12.395,10.049-22.443,22.443-22.443s22.443,10.049,22.443,22.443C72.443,68.977,62.395,79.025,50,79.025z"></path></svg>