<svg height='100px' width='100px'  fill="#000000" xmlns:dc="http://purl.org/dc/elements/1.1/" xmlns:cc="http://creativecommons.org/ns#" xmlns:rdf="http://www.w3.org/1999/02/22-rdf-syntax-ns#" xmlns:svg="http://www.w3.org/2000/svg" xmlns="http://www.w3.org/2000/svg" xmlns:sodipodi="http://sodipodi.sourceforge.net/DTD/sodipodi-0.dtd" xmlns:inkscape="http://www.inkscape.org/namespaces/inkscape" viewBox="0 0 100 100" version="1.1" x="0px" y="0px"><g transform="translate(0,-952.36216)"><path style="opacity:1;fill:#000000;fill-opacity:1;stroke:none;stroke-width:5;stroke-linecap:butt;stroke-linejoin:miter;stroke-miterlimit:4;stroke-dasharray:none;stroke-dashoffset:0;stroke-opacity:1" d="m 32.675,957.36216 -17.318,29.9961 17.318,29.99614 17.326,30.0078 17.325,-30.0078 17.318,-29.99614 -17.318,-29.9961 -34.635,0 -0.02,0 z m 4.942,8.5684 24.752,0 12.377,21.4277 -12.377,21.42784 -24.752,0 -12.375,-21.42784 12.375,-21.4277 z"></path><path d="m 64.001,979.299 -14.761,0.053 -6.641,11.631 -1.105,-1.9242 -3.661,-3e-4 -1.832,3.1777 1.828,3.1784 3.661,4e-4 c 2.751,-4.7594 5.631,-9.841 8.473,-14.8212 l 11.881,-0.042 -6.03,10.4564 -1.122,-1.9477 -3.663,0 -1.829,3.1773 1.829,3.1785 c 1.223,6e-4 2.442,0 3.661,4e-4 3.256,-5.5908 6.542,-11.3089 9.311,-16.1171 z" style="color:#000000;font-style:normal;font-variant:normal;font-weight:normal;font-stretch:normal;font-size:medium;line-height:normal;font-family:sans-serif;text-indent:0;text-align:start;text-decoration:none;text-decoration-line:none;text-decoration-style:solid;text-decoration-color:#000000;letter-spacing:normal;word-spacing:normal;text-transform:none;direction:ltr;block-progression:tb;writing-mode:lr-tb;baseline-shift:baseline;text-anchor:start;white-space:normal;clip-rule:nonzero;display:inline;overflow:visible;visibility:visible;opacity:1;isolation:auto;mix-blend-mode:normal;color-interpolation:sRGB;color-interpolation-filters:linearRGB;solid-color:#000000;solid-opacity:1;fill:#000000;fill-opacity:1;fill-rule:nonzero;stroke:none;stroke-width:8.95905876;stroke-linecap:butt;stroke-linejoin:miter;stroke-miterlimit:4;stroke-dasharray:none;stroke-dashoffset:0;stroke-opacity:1;color-rendering:auto;image-rendering:auto;shape-rendering:auto;text-rendering:auto;enable-background:accumulate"></path></g></svg>