<svg height='100px' width='100px'  fill="#000000" xmlns="http://www.w3.org/2000/svg" xmlns:xlink="http://www.w3.org/1999/xlink" xml:space="preserve" version="1.1" style="shape-rendering:geometricPrecision;text-rendering:geometricPrecision;image-rendering:optimizeQuality;" viewBox="0 0 400 400" x="0px" y="0px" fill-rule="evenodd" clip-rule="evenodd"><defs><style type="text/css">
   
    .fil0 {fill:#000000}
   
  </style></defs><g><path class="fil0" d="M167.899 206.703l0.002 0c0,16.605 -19.246,30.065 -42.988,30.065 -23.742,0 -42.988,-13.46 -42.988,-30.065l0.002 0 -0.002 -0.025c0,-1.574 3.182,-3.028 8.554,-4.198l31.888 -75.853c-1.716,-0.883 -2.886,-2.632 -2.886,-4.646 0,-2.905 2.432,-5.259 5.432,-5.259 3,0 5.432,2.354 5.432,5.259 0,1.586 -0.725,3.008 -1.872,3.972 0.315,0.142 0.702,0.279 1.18,0.411 2.18,0.599 6.262,1.084 10.933,0.426 4.671,-0.658 9.93,-2.456 16.47,-4.036 6.539,-1.58 14.359,-2.942 20.737,-2.872 3.835,0.041 7.149,0.6 9.756,1.155l0 15.208c-0.476,-0.412 -0.975,-0.809 -1.499,-1.185 -4.486,-3.23 -10.738,-5.006 -18.315,-5.237 -7.577,-0.23 -16.481,1.085 -22.316,1.604 -5.836,0.519 -8.604,0.242 -11.372,-0.461 -1.982,-0.504 -3.964,-1.227 -5.489,-1.851l31.597 73.548c4.881,1.137 7.746,2.521 7.746,4.015l-0.002 0.025zm32.096 -112.222c3.996,5.248 6.505,12.813 6.505,21.223 0,1.634 -0.095,3.236 -0.277,4.794 -0.276,2.374 -0.395,4.411 -0.395,6.801l0 52.949c0,0.856 0.013,1.696 0.04,2.523 2.43,0.061 4.397,2.066 4.397,4.509l0 0c0,2.133 -1.499,3.933 -3.496,4.396 0.443,2.542 1.051,5.088 1.84,7.752 1.326,4.479 2.112,10.029 2.112,16.04 0,2.674 -0.156,14.263 -0.446,25.704 2.334,0.21 4.178,2.185 4.178,4.57l0 0.001c0,2.475 -1.987,4.509 -4.445,4.586 -0.262,7.759 -0.592,14.136 -0.98,15.657 -1.352,5.292 -0.015,10.483 3.726,14.462 4.649,4.943 11.246,8.04 18.542,8.04l3.157 0c1.831,0 3.325,1.497 3.325,3.325l0 0.551 -75.566 0 0 -0.551c0,-1.831 1.493,-3.325 3.325,-3.325l3.156 0c7.297,0 13.895,-3.097 18.543,-8.041 3.742,-3.978 5.078,-9.169 3.726,-14.461 -0.389,-1.522 -0.719,-7.904 -0.981,-15.668 -2.362,-0.18 -4.24,-2.169 -4.24,-4.575l0 -0.001c0,-2.315 1.738,-4.244 3.974,-4.547 -0.29,-11.448 -0.446,-23.052 -0.446,-25.727 0,-6.01 0.785,-11.56 2.112,-16.039 0.802,-2.711 1.417,-5.299 1.862,-7.885 -1.765,-0.613 -3.041,-2.296 -3.041,-4.264l0 0c0,-2.28 1.714,-4.178 3.918,-4.471 0.028,-0.839 0.041,-1.691 0.041,-2.559l0 -52.956c0,-2.389 -0.118,-4.425 -0.395,-6.797 -0.182,-1.558 -0.276,-3.16 -0.276,-4.793 0,-8.41 2.508,-15.975 6.505,-21.223zm-40.345 201.133l80.372 0c2.724,0 4.952,2.228 4.952,4.952l0 4.953 -90.276 0 0 -4.953c0,-2.724 2.228,-4.952 4.952,-4.952zm114.911 -178.892c-3,0 -5.432,2.354 -5.432,5.259 0,1.586 0.725,3.008 1.872,3.972 -0.315,0.142 -0.702,0.279 -1.181,0.411 -2.179,0.599 -6.262,1.084 -10.932,0.426 -4.671,-0.658 -9.931,-2.456 -16.47,-4.036 -6.539,-1.58 -14.359,-2.942 -20.737,-2.872 -3.835,0.041 -7.149,0.6 -9.756,1.155l0 15.208c0.476,-0.412 0.975,-0.809 1.499,-1.185 4.486,-3.23 10.737,-5.006 18.314,-5.237 7.578,-0.23 16.482,1.085 22.317,1.604 5.836,0.519 8.604,0.242 11.372,-0.461 2.297,-0.584 4.593,-1.462 6.178,-2.139l-30.952 73.627c-5.372,1.17 -8.554,2.623 -8.554,4.198 0,16.604 19.246,30.064 42.988,30.064 23.742,0 42.988,-13.46 42.988,-30.064 0,-1.494 -2.865,-2.878 -7.746,-4.015l-32.767 -76.272c1.465,-0.942 2.431,-2.554 2.431,-4.384 0,-2.905 -2.432,-5.259 -5.432,-5.259zm-180.558 85.084c7.787,-1.313 18.692,-2.132 30.771,-2.139l-1.361 0 0 -67.818 -29.41 69.957zm31.049 -2.139c12.476,0.007 23.701,0.88 31.529,2.27l-30.168 -70.222 0 67.952 -1.361 0zm181.703 2.244l-30.168 -70.222 0 67.952 -1.5 0c12.532,0 23.811,0.875 31.668,2.27zm-31.668 -2.27l-1.5 0 0 -67.818 -29.41 69.957c7.816,-1.319 18.775,-2.139 30.91,-2.139z"></path></g></svg>