<svg height='100px' width='100px'  fill="#000000" xmlns="http://www.w3.org/2000/svg" xmlns:xlink="http://www.w3.org/1999/xlink" xmlns:sketch="http://www.bohemiancoding.com/sketch/ns" viewBox="0 0 100 100" version="1.1" x="0px" y="0px"><title>5</title><desc>Created with Sketch.</desc><g stroke="none" stroke-width="1" fill="none" fill-rule="evenodd" sketch:type="MSPage"><path d="M80.1346528,39.6637266 C80.1346528,40.7792982 81.0388734,41.6835188 82.154445,41.6835188 C83.2700166,41.6835188 84.1742371,40.7792982 84.1742371,39.6637266 C84.1742371,38.548155 83.2700166,37.6439344 82.154445,37.6439344 C81.0388734,37.6439344 80.1346528,38.548155 80.1346528,39.6637266 M45.4530439,89.5577638 C44.6945715,89.5946048 43.9328675,89.6133485 43.168255,89.6133485 C28.1183796,89.6133485 12.1623446,82.3443588 5,65.4317503 C11.9251402,64.8464953 17.9305479,64.1429613 23.1920257,63.2959413 C30.2735786,67.6806677 36.6086163,66.4464939 36.6086163,65.9556036 C29.6537448,64.9964447 25.0082228,61.6464982 23.0731003,59.9818663 C3.98622592,42.6843662 14.7990621,15.6666566 14.8546468,15.667303 L14.8549699,15.6679493 C15.6266921,16.8061426 16.502474,17.8700075 17.4493526,18.8663306 C24.527997,26.3120924 34.594318,29.854 44.0721524,32.9903333 C48.8165634,34.5602773 53.8563488,36.606246 57.8458423,39.7593839 C58.6970635,40.5165636 64.3676704,45.8281323 62.9467062,51.7362668 C62.880457,51.934368 66.0487838,47.9762217 63.2850618,42.1133305 C67.0916429,37.7140616 71.5506977,33.4692664 77.4074486,32.4907175 C78.154287,32.3659751 78.89854,32.3068356 79.6379455,32.3068356 C82.5008797,32.3068356 85.2894856,33.1929588 87.8567222,34.5816063 C91.7686557,36.697379 94.7001013,41.8444558 95,41.8444558 C85.2917478,41.8451021 81.8658571,62.958232 73.1668546,76.0380829 C67.7971159,84.1124041 57.0463277,88.9893135 45.4530439,89.5577638 M45.0875423,29.9221882 C39.1341645,27.9521637 33.6076899,25.9940964 28.7828104,23.365458 C30.5288803,15.4436716 33.756993,9.93529438 33.7476211,10.0005741 C34.3464491,11.2383027 35.0590318,12.4178613 35.852083,13.5405426 C41.7789611,21.9322135 51.2270641,26.8928231 60.151637,31.3673899 C62.1287712,32.3585423 64.1505023,33.4501995 66.0933808,34.6788795 C64.5551071,35.9893207 63.1315576,37.4335529 61.8004338,38.9123639 C57.0010844,34.3065914 50.4963841,31.7125319 45.0875423,29.9221882" fill="#000000" sketch:type="MSShapeGroup"></path></g></svg>