<svg height='100px' width='100px'  fill="#000000" xmlns="http://www.w3.org/2000/svg" xmlns:xlink="http://www.w3.org/1999/xlink" version="1.1" x="0px" y="0px" viewBox="0 0 248.892 237.475" style="enable-background:new 0 0 248.892 237.475;" xml:space="preserve"><g><path d="M223.227,66.03c0.622-4-1.866-7.901-5.864-8.958c-0.421-0.111-0.829-0.21-1.248-0.318c-0.644,1.438-1.423,2.789-2.32,4.044   C215.968,61.491,219.355,62.96,223.227,66.03z"></path><path d="M121.666,224.818v-90.271h4.635v90.271c0,6.83,5.537,12.363,12.363,12.363c6.828,0,12.365-5.533,12.365-12.363v-49.636   c-1.018-0.508-1.598-0.847-1.711-0.915l-2.428-1.455l0.564-2.771l3.574-17.561v-0.612c-1.238,0.512-2.588,0.798-3.996,0.798   c-0.422,0-0.852-0.027-1.275-0.078c-2.785-0.338-5.27-1.742-7-3.951c-1.729-2.207-2.494-4.959-2.154-7.742   c2.785-22.862,7.626-41.238,14.426-54.88V65.694c2.752-0.234,6.31-0.426,10.646-0.425c1.677,0,3.481,0.033,5.385,0.098   c3.523-2.626,6.584-3.941,8.59-4.578c-0.303-0.423-0.612-0.84-0.89-1.285c-1.91-3.072-3.061-6.465-3.425-9.96   c-3.496-0.191-6.731-0.276-9.66-0.275c-10.357,0-17.073,0.979-19.612,1.429h-36.16c-2.537-0.449-9.255-1.429-19.614-1.431   c-2.146,0-4.465,0.048-6.919,0.146c0.114,0.055,0.224,0.098,0.338,0.156c3.221,1.607,7.971,4.883,12.215,11.328   c0.945,1.443,1.828,2.991,2.66,4.625c0.838,0.053,1.631,0.11,2.355,0.172v5.101c4.721,12.021,7.052,28.253,7.08,49.227   c0,6.041-0.201,12.564-0.598,19.393c-0.254,4.367-2.83,8.08-6.482,9.969v75.436c0,6.83,5.537,12.363,12.363,12.363   C116.129,237.182,121.666,231.648,121.666,224.818z M123.982,123.381l-9.5-12l5.472-40.321c1.297,0.486,2.662,0.74,4.026,0.739   h0.002c0,0,0.004,0,0.006,0c1.363,0,2.726-0.254,4.021-0.74l5.474,40.322L123.982,123.381z M120.182,58.881h3.801h3.799l1.9,7.5   l-0.289,0.456c-1.565,1.306-3.484,1.96-5.412,1.962c-1.928-0.002-3.843-0.655-5.408-1.958l-0.291-0.46L120.182,58.881z"></path><circle cx="123.982" cy="22.5" r="22.5"></circle><path d="M173.041,180.84v1.156v44.912c0,5.523,4.477,10,10,10c5.521,0,10-4.477,10-10v-43.087v-1.084   C185.336,182.64,178.658,181.882,173.041,180.84z"></path><path d="M196.375,182.737v1.084v43.087c0,5.523,4.475,10,10,10c5.52,0,10-4.477,10-10v-44.913v-1.156   C210.758,181.882,204.08,182.64,196.375,182.737z"></path><path d="M194.727,70.59c-1.789,0-3.588-0.207-5.344-0.617c-4.119-0.958-7.802-2.979-10.793-5.813   c-0.029,0.007-0.068,0.017-0.096,0.023c-2.068,0.342-9.605,2.596-17.193,12.658c-8.102,10.672-16.48,29.691-20.727,64.539   c-0.436,3.563,2.102,6.803,5.666,7.236c3.564,0.434,6.805-2.104,7.238-5.666v-0.004c3.211-26.482,8.875-42.502,14.156-52.021   l-16.26,79.912c0,0,15.012,9,43.332,9s43.334-9,43.334-9l-16.258-79.904c0.596,1.072,1.197,2.227,1.799,3.471   c4.73,9.781,9.506,25.07,12.355,48.543c0.4,3.299,3.205,5.719,6.443,5.719c0.262,0,0.527-0.016,0.793-0.047   c3.564-0.434,6.104-3.674,5.67-7.238c-4.25-34.848-12.629-53.867-20.729-64.539c-7.594-10.068-15.135-12.32-17.197-12.658   c-0.012-0.003-0.028-0.007-0.04-0.01C206.643,68.192,200.938,70.59,194.727,70.59z"></path><ellipse transform="matrix(0.2268 -0.9739 0.9739 0.2268 104.6877 226.0454)" cx="194.708" cy="47.09" rx="21.496" ry="21.495"></ellipse><path d="M100.018,120.027c-0.041-30.183-4.861-46.887-11.436-56.932c-3.283-4.986-7.127-8.184-10.678-9.955   c-3.128-1.579-5.902-2.034-7.731-2.117c-4.425,6.399-11.81,10.603-20.161,10.603c-8.351,0-15.736-4.203-20.161-10.602   c-1.829,0.081-4.603,0.536-7.735,2.113c-5.381,2.668-11.18,8.502-15.236,18.842C2.771,82.359,0.014,97.363,0,120.025   c0.002,5.857,0.188,12.225,0.596,19.16c0.248,4.25,3.773,7.531,7.978,7.531c0.158,0,0.316-0.006,0.475-0.014   c4.412-0.258,7.777-4.043,7.519-8.453c-0.391-6.652-0.568-12.711-0.566-18.225c-0.035-24.219,3.496-37.822,6.963-44.922v150.008   c0,6.83,5.537,12.363,12.363,12.363c6.828,0,12.365-5.533,12.365-12.363V134.84h4.635v90.271c0,6.83,5.537,12.363,12.363,12.363   c6.828,0,12.365-5.533,12.365-12.363V75.15c0.592,1.217,1.189,2.611,1.779,4.236c2.82,7.813,5.193,20.633,5.182,40.641   c0,5.514-0.178,11.572-0.564,18.225c-0.258,4.41,3.109,8.195,7.521,8.451c0.158,0.01,0.314,0.014,0.473,0.014   c4.205,0,7.732-3.281,7.979-7.535C99.83,132.25,100.018,125.885,100.018,120.027z"></path><circle cx="50.012" cy="37.125" r="22.5"></circle></g></svg>