<svg height='100px' width='100px'  fill="#000000" xmlns="http://www.w3.org/2000/svg" xmlns:xlink="http://www.w3.org/1999/xlink" version="1.1" x="0px" y="0px" viewBox="0 0 100 100" style="enable-background:new 0 0 100 100;" xml:space="preserve"><path d="M69.9375,61.875c-5.65234,0-10.25,4.59766-10.25,10.25s4.59766,10.25,10.25,10.25s10.25-4.59766,10.25-10.25  S75.58984,61.875,69.9375,61.875z M69.9375,80.375c-4.54883,0-8.25-3.70117-8.25-8.25s3.70117-8.25,8.25-8.25  s8.25,3.70117,8.25,8.25S74.48633,80.375,69.9375,80.375z"></path><path d="M89,25.14453c0.55273,0,1-0.44727,1-1v-6.3457c0-0.55273-0.44727-1-1-1H74.5625V11c0-0.55273-0.44727-1-1-1h-7.25  c-0.55273,0-1,0.44727-1,1v5.79883h-4.33887c-4.25195,0-7.71191,3.45996-7.71191,7.71191v1.26825  c-0.69421-0.22955-1.39984-0.43323-2.12012-0.59833V11c0-0.55273-0.44727-1-1-1h-8.49414c-0.55273,0-1,0.44727-1,1v14.18164  c-1.43744,0.32983-2.81299,0.80133-4.12793,1.37848v-8.84821c0-4.25195-3.45996-7.71191-7.71191-7.71191h-11.0957  C13.45996,10,10,13.45996,10,17.71191V89c0,0.55273,0.44727,1,1,1h6.6875c0.55273,0,1-0.44727,1-1V19.58691  c0-0.68359,0.55664-1.24023,1.24121-1.24023h6.66211c0.68457,0,1.24121,0.55664,1.24121,1.24023v13.5824  c-3.30768,4.05316-5.27051,9.20898-5.27051,14.74768V86c0,0.55273,0.44727,1,1,1H49.875v2c0,0.55273,0.44727,1,1,1H89  c0.55273,0,1-0.44727,1-1V56.49414c0-9.32227-6.44336-17.40234-15.4375-19.52246V25.14453H89z M88,18.79883v4.3457H74.5625v-4.3457  H88z M61.94922,30.97107v-4.58533c0-0.68457,0.55664-1.24121,1.24121-1.24121h2.12207v9.83881  C64.33435,33.51215,63.20795,32.16644,61.94922,30.97107z M55.26172,24.51074c0-3.14941,2.5625-5.71191,5.71191-5.71191h4.33887  v4.3457h-2.12207c-1.78711,0-3.24121,1.4541-3.24121,3.24121v2.89478c-1.44464-1.09021-3.01752-2.00555-4.6875-2.73431V24.51074z   M41.83691,26.97461c0.4707-0.09082,0.81055-0.50293,0.81055-0.98242V12h6.49414v13.99219c0,0.47949,0.33984,0.8916,0.81055,0.98242  c6.09357,1.17194,11.30078,4.90009,14.40546,10.26593c-4.97955,1.43854-9.09277,4.72076-11.64691,9.00946H24.63544  C25.37714,36.76392,32.37714,28.79553,41.83691,26.97461z M26.59082,16.34668h-6.66211c-1.78711,0-3.24121,1.45312-3.24121,3.24023  V88H12V17.71191C12,14.5625,14.5625,12,17.71191,12h11.0957c3.14941,0,5.71191,2.5625,5.71191,5.71191v9.84998  c-1.71265,0.95874-3.28375,2.12292-4.6875,3.46008V19.58691C29.83203,17.7998,28.37793,16.34668,26.59082,16.34668z M24.56152,85  V48.25h27.08862c-1.10876,2.45355-1.72699,5.15942-1.76385,7.98212C48.61407,55.75336,47.27814,55.5,45.89453,55.5  c-6.27246,0-11.375,5.10254-11.375,11.375s5.10254,11.375,11.375,11.375c1.37799,0,2.71045-0.25323,3.98047-0.72931V85H24.56152z   M49.875,75.36517C48.62469,75.95184,47.28595,76.25,45.89453,76.25c-5.16895,0-9.375-4.20605-9.375-9.375  s4.20605-9.375,9.375-9.375c1.39398,0,2.73236,0.30176,3.98047,0.88898V75.36517z M88,88H51.875V56.49414  c0-0.33447,0.02588-0.66351,0.04407-0.99414h36.03687C87.97412,55.83063,88,56.15967,88,56.49414V88z M87.74347,53.5H52.13153  c1.23126-7.32178,6.89282-13.29761,14.37042-14.7373c0.4707-0.09082,0.81055-0.50293,0.81055-0.98242V12h5.25v25.78027  c0,0.47949,0.33984,0.8916,0.81055,0.98242C80.85065,40.20239,86.51221,46.17822,87.74347,53.5z"></path></svg>