<svg height='100px' width='100px'  fill="#000000" xmlns="http://www.w3.org/2000/svg" xmlns:xlink="http://www.w3.org/1999/xlink" xml:space="preserve" version="1.1" style="shape-rendering:geometricPrecision;text-rendering:geometricPrecision;image-rendering:optimizeQuality;" viewBox="0 0 847 847" x="0px" y="0px" fill-rule="evenodd" clip-rule="evenodd"><defs><style type="text/css">
   
    .fil0 {fill:#000000}
   
  </style></defs><g><path class="fil0" d="M423 305c66,0 119,53 119,118 0,66 -53,119 -119,119 -65,0 -118,-53 -118,-119 0,-65 53,-118 118,-118zm0 29l29 59 65 9 -47 46 11 65 -58 -31 -58 31 11 -65 -46 -46 64 -9 29 -59z"></path><path class="fil0" d="M323 225l-44 -97c5,-2 10,-4 14,-6l42 98c-3,1 -9,4 -12,5z"></path><path class="fil0" d="M666 645l-73 -79c33,-39 52,-88 52,-143 0,-122 -99,-222 -222,-222 -25,0 -50,5 -73,13l-35 -101c34,-12 70,-18 108,-18 182,0 329,147 329,328 0,86 -31,158 -86,222z"></path><path class="fil0" d="M543 729l-48 -96c6,-2 11,-4 17,-6l49 94c-6,3 -12,6 -18,8z"></path><path class="fil0" d="M470 640l41 100c-13,4 -63,12 -88,12 -181,0 -328,-147 -328,-329 0,-156 110,-245 110,-245l67 83c1,-1 -71,60 -71,162 0,123 100,222 222,222 16,0 32,-2 47,-5z"></path><path class="fil0" d="M490 621l-26 -52 -9 -18c5,-1 10,-3 14,-4l4 7 32 61c2,0 -11,5 -15,6z"></path><path class="fil0" d="M435 554l9 23 21 51c-14,3 -28,4 -42,4 -115,0 -208,-93 -208,-209 0,-60 25,-114 66,-152l49 60c-24,24 -38,56 -38,92 0,73 59,132 131,132 4,0 8,0 12,-1z"></path><path class="fil0" d="M340 232c-4,1 -8,3 -12,5l32 71c4,-2 7,-4 10,-5 -10,-23 -19,-49 -30,-71z"></path><path class="fil0" d="M379 299c14,-5 29,-7 44,-7 73,0 132,59 132,131 0,28 -8,53 -24,76l53 57c30,-36 48,-82 48,-133 0,-115 -93,-208 -209,-208 -22,0 -47,4 -69,11 7,24 17,50 25,73z"></path><path class="fil0" d="M423 6c228,0 418,184 418,417 0,231 -187,418 -418,418 -230,0 -417,-187 -417,-418 0,-230 187,-417 417,-417zm0 48c-204,0 -369,165 -369,369 0,205 165,370 369,370 205,0 370,-165 370,-370 0,-207 -168,-369 -370,-369z"></path></g></svg>