<svg height='100px' width='100px'  fill="#000000" xmlns="http://www.w3.org/2000/svg" xmlns:xlink="http://www.w3.org/1999/xlink" version="1.1" x="0px" y="0px" viewBox="0 0 100 100" enable-background="new 0 0 100 100" xml:space="preserve"><path d="M38.1156425,32.8640404c-0.8066406,0-1.4605103-0.6539307-1.4605103-1.4605694  c0-0.8065796,0.6538696-1.4605103,1.4605103-1.4605103s1.4605713,0.6539307,1.4605713,1.4605103  C39.5762138,32.2101097,38.9222832,32.8640404,38.1156425,32.8640404z M51.6079521,32.8640404  c0.8065796,0,1.4605103-0.6539307,1.4605103-1.4605694c0-0.8065796-0.6539307-1.4605103-1.4605103-1.4605103  c-0.8066406,0-1.4605713,0.6539307-1.4605713,1.4605103C50.1473808,32.2101097,50.8013115,32.8640404,51.6079521,32.8640404z   M44.4901543,37.556179h1.3232422c0.4140625,0,0.75-0.3359375,0.75-0.75s-0.3359375-0.75-0.75-0.75h-1.1533203v-1.9321289  c0-0.4140625-0.3359375-0.75-0.75-0.75s-0.75,0.3359375-0.75,0.75v2.1025391  C43.1600761,36.9594994,43.7567558,37.556179,44.4901543,37.556179z M44.8617363,42.4892845  c1.7749023,0,3.6713867-0.4316406,3.6713867-1.6430664c0-0.4140625-0.3359375-0.75-0.75-0.75  c-0.3344727,0-0.6176758,0.21875-0.7143555,0.5214844c-0.2509766,0.1484375-1.0400391,0.371582-2.2070313,0.371582  s-1.9555664-0.2231445-2.206543-0.371582c-0.0966797-0.3027344-0.3798828-0.5214844-0.7143555-0.5214844  c-0.4140625,0-0.75,0.3359375-0.75,0.75C41.1908379,42.0576439,43.0873222,42.4892845,44.8617363,42.4892845z   M46.8329277,75.7842102c-0.234375,0.1669922-0.6708984,0.4277344-0.9487305,0.2998047  c-0.133606-0.0612183-0.2346191-0.2125244-0.3196411-0.3828125c0.8763428-0.1798706,1.5116577-0.6794434,1.5116577-1.2745361  c0-0.7458496-0.9914551-1.3504639-2.2144165-1.3504639s-2.2144165,0.6046143-2.2144165,1.3504639  c0,0.5950317,0.6351929,1.0944824,1.5113525,1.2744751c-0.0849609,0.1698608-0.18573,0.321167-0.3184814,0.381897  c-0.2783203,0.1298828-0.7148438-0.1318359-0.949707-0.2988281c-0.2260742-0.1582031-0.5375977-0.1064453-0.6972656,0.1191406  s-0.105957,0.5371094,0.1191406,0.6972656c0.4887695,0.3457031,0.9433594,0.5195313,1.3583984,0.5195313  c0.2055664,0,0.4013672-0.0429688,0.5874023-0.1279297c0.2540894-0.1168823,0.4494629-0.3021851,0.6036987-0.5125732  c0.1542969,0.2103882,0.3496094,0.3956909,0.6038208,0.5125732c0.1855469,0.0849609,0.3813477,0.1279297,0.5869141,0.1279297  c0.4150391,0,0.8696289-0.1738281,1.3583984-0.5195313c0.2250977-0.1601563,0.2788086-0.4716797,0.1191406-0.6972656  S47.0590019,75.6260071,46.8329277,75.7842102z M84.7499161,66.8657532l-1.9599609,1.1142578  c-0.1434326,0.081543-0.2937012,0.1398315-0.446167,0.1812744c-0.0078735,0.0041504-0.0125122,0.0116577-0.0206299,0.0155029  c-0.0462646,0.0220337-0.0950317,0.0204468-0.1427612,0.0324097l-2.6209106,1.4890747  c-0.5449219,0.3100586-1.1386719,0.4570313-1.7246094,0.4570313c-0.0709839,0-0.1410522-0.0094604-0.2116699-0.0137329  c-0.0365601,0.0220337-0.0654297,0.0516357-0.1027832,0.0728149l-9.0058594,5.109375  c-0.7392578,0.4194336-1.5449219,0.6191406-2.3398438,0.6191406c-1.6054688,0-3.1689415-0.8144531-4.0605431-2.2802734  l-2.1274414-3.4938965v4.5153809l-1.7711792-7.4242554l-1.7713013-7.4248695  c-0.1412964-0.5949707-0.6108398-1.0400391-1.2074585-1.210144v-9.7653198v-0.1838989  c0.4869385-0.0109863,0.9712524,0.0467529,1.437439,0.1838989c1.0939941,0.3217773,2.0808105,1.020752,2.7202148,2.071167  l0.5922852,0.9727173l7.8461876,12.8847084l4.946228-2.805912c0.0516968-0.1182251,0.1097412-0.2312622,0.173645-0.3421021  l1.8166504-3.9120483c0.2275391-0.4892578,0.6738281-0.855957,1.2236328-1.0053711  c0.0073853-0.0020142,0.0152588-0.0020752,0.0227051-0.0040283l-1.753479-3.6688232  c-0.0001831-0.0003662-0.0004883-0.0006104-0.0006714-0.0009766c-0.0001221-0.0002441-0.000061-0.0006104-0.0001831-0.0008545  l-1.508606-3.1563721c-0.4228516-0.8847656-0.1582031-1.8632813,0.6025391-2.2285156l3.8310547-1.8300781  c0.375-0.1767578,0.8212891-0.0195313,1,0.3535156c0.1787109,0.3740234,0.0205078,0.8212891-0.3535156,1l-3.8300781,1.8300781  c0.0488281-0.0263672,0.0380859,0.0917969,0.1035156,0.2285156l0.215271,0.4503784l3.8345337-1.8322144  c0.3759766-0.1787109,0.8212891-0.0205078,1,0.3535156s0.0205078,0.8212891-0.3535156,1l-3.8342285,1.8320313l0.3233643,0.6766357  l3.835083-1.8328857c0.375-0.1787109,0.8212891-0.0195313,1,0.3535156c0.1787109,0.3740234,0.0205078,0.8212891-0.3535156,1  l-3.8347168,1.8327026l0.3235474,0.677002l3.8344116-1.8329468c0.375-0.1777344,0.8212891-0.0195313,1,0.3535156  s0.0205078,0.8212891-0.3535156,1l-3.8340454,1.8327637l0.3234253,0.6767578l3.8348389-1.8327637  c0.3759766-0.1777344,0.8222656-0.0195313,1,0.3535156c0.1787109,0.3740234,0.0205078,0.8212891-0.3535156,1l-3.7546387,1.7944336  c0.2520752,0.1800537,0.4584351,0.4072266,0.616272,0.6640015l0.7594604-0.4315796  c0.9208984-0.5258789,2.1005859-0.2001953,2.6269531,0.7231445c0.2157593,0.3800659,0.286377,0.8118286,0.2216187,1.237793  c0.3861084,0.1577759,0.7272339,0.4332275,0.9492798,0.8227539c0.2217407,0.3901978,0.2835693,0.824585,0.2207642,1.2375488  c0.3866577,0.1573486,0.7280884,0.4328613,0.9501343,0.8234863c0.2158203,0.380127,0.2858276,0.8120117,0.2213135,1.237793  c0.3862305,0.1577759,0.7275391,0.4332275,0.949585,0.8227577C85.9989395,65.1636047,85.6737442,66.3418274,84.7499161,66.8657532z   M81.2460098,60.6982689l-1.9619141,1.1142578c-0.0986328,0.0566406-0.1699219,0.1479492-0.2001953,0.2578125  s-0.015625,0.2246094,0.0410156,0.3237305c0.1152344,0.2036133,0.375,0.2763672,0.5820313,0.1606445l1.9609375-1.1142578  c0.2050781-0.1166992,0.2763672-0.3774414,0.1601563-0.5820313c-0.078125-0.1381836-0.2226563-0.2158203-0.3720703-0.2158203  C81.3846817,60.6426048,81.3124161,60.6606712,81.2460098,60.6982689z M78.2679214,60.5376244  c0.0896606,0.012207,0.1831665,0.0036011,0.2681274-0.0439453l1.9619141-1.1142578  c0.0986328-0.0566406,0.1699219-0.1479492,0.2001953-0.2578125s0.015625-0.2246094-0.0410156-0.3237305  c-0.078125-0.1381836-0.2226563-0.2158203-0.3720703-0.2158203c-0.0712891,0-0.1435547,0.0180664-0.2099609,0.0556641  l-1.2895508,0.7324219c-0.0216675,0.0661011-0.036377,0.1342773-0.065918,0.1977539L78.2679214,60.5376244z M80.3617325,67.5177307  c-0.069397-0.0841675-0.1438599-0.1629639-0.199707-0.2608643c-0.2171021-0.3824463-0.2872314-0.8173828-0.2201538-1.2459106  c-0.3855591-0.1576538-0.7288818-0.425415-0.9507446-0.8146362c-0.2232056-0.3927612-0.2843018-0.8302612-0.2193604-1.2456093  c-0.3858643-0.1575928-0.7294922-0.4256592-0.9515381-0.8154297c-0.1950684-0.3436279-0.2763672-0.7299194-0.2426758-1.1156616  l-0.6987305,1.499939c-0.1269531,0.2729492-0.3974609,0.4331055-0.6796875,0.4331055  c-0.1064453,0-0.2138672-0.0224609-0.3164063-0.0703125c-0.3129883-0.1455078-0.4645386-0.4782104-0.4100952-0.8025513  c0.0109253-0.0652466,0.0175171-0.1311035,0.046814-0.1940308l1.8408203-3.9516602  c0.0556641-0.1206055,0.0117188-0.2519531-0.0195313-0.3198242c-0.0722656-0.1577148-0.21875-0.2973633-0.4013672-0.3823242  c-0.1826172-0.0844727-0.3818359-0.1074219-0.5527344-0.0620117c-0.0712891,0.0195313-0.2011719,0.0703125-0.2568359,0.1904297  l-2.0794067,4.4793701l-0.008667,0.0187378c-0.1411133,0.5157471-0.0738525,1.0563965,0.1906128,1.5214272l1.8525391,3.2612305  c0.5458984,0.9604492,1.7714844,1.2993164,2.734375,0.7529297L80.3617325,67.5177307z M80.8778458,64.6152649l1.9599609-1.1142616  c0.0009766-0.0004883,0.0009766-0.0004883,0.0009766-0.0004883c0.0996094-0.0561523,0.1708984-0.1479492,0.2011719-0.2578125  c0.0302734-0.109375,0.015625-0.2241211-0.0410156-0.3232422c-0.078125-0.1381836-0.2226563-0.2158203-0.3720703-0.2158203  c-0.0712891,0-0.1435547,0.0175781-0.2099609,0.0551758l-1.9619141,1.1147461  c-0.2041016,0.1162109-0.2753906,0.3769569-0.1591797,0.5815468C80.4110489,64.6592102,80.6717911,64.7309875,80.8778458,64.6152649  z M84.169838,64.9795227c-0.078125-0.1376953-0.2226563-0.215332-0.3720703-0.215332  c-0.0712891,0-0.1435547,0.0180664-0.2099609,0.0556641l-1.9619141,1.1142578  c-0.0986328,0.0566406-0.1699219,0.1479492-0.2001953,0.2578125s-0.015625,0.2246094,0.0410156,0.3237305  c0.1152344,0.2036133,0.3759766,0.2758789,0.5820313,0.1601563l1.9599609-1.1142578  c0.0009766-0.0004883,0.0009766-0.0004883,0.0009766-0.0004883C84.2137833,65.445343,84.2860489,65.1841125,84.169838,64.9795227z   M59.2714043,77.3008118l0.4658203,10.7978516c0.0039063,0.09375-0.0449219,0.1660156-0.0878906,0.2099609  c-0.0908203,0.0947266-0.2304688,0.1494141-0.3828125,0.1494141h-2.8064575  c0.0425415,0.4283447,0.0685425,0.8623047,0.0838013,1.3007813c0.0083008,0.2376709,0.0273438,0.4716187,0.0273438,0.7119141  c0,0.4140625-0.3359375,0.75-0.75,0.75c-0.4139404,0-0.7496948-0.3356323-0.749939-0.7495728  c0-0.0001221-0.000061-0.0003052-0.000061-0.0004272c0-5.4642334-2.3190308-10.190979-5.6783447-12.4762573  c-1.2598267,1.0536499-2.8273315,1.6871948-4.5311279,1.6871948s-3.2713013-0.6335449-4.5311279-1.6871948  c-0.3076172,0.2092896-0.6062012,0.4376221-0.8952637,0.6867065c0.0946045,0.1179199,0.1801147,0.2440186,0.2432861,0.3862305  c0.190918,0.4296875,0.203125,0.9072266,0.034668,1.34375c-0.0717773,0.1855469-0.171875,0.3525391-0.293457,0.4970703  c0.3745117,0.4716797,0.4970703,1.1230469,0.265625,1.7236328c-0.1669922,0.4365234-0.4960938,0.7822266-0.925293,0.9726563  c-0.1386719,0.0615234-0.2827148,0.1054688-0.4282227,0.1289063c-0.0068359,0.1894531-0.0444336,0.3808594-0.1162109,0.5664063  c-0.3066406,0.7988281-1.1318359,1.2460938-1.9516602,1.0976563c-0.019043,0.1171875-0.050293,0.2333984-0.0942383,0.3486328  c-0.2041016,0.5292358-0.6393433,0.9003296-1.1459351,1.0498657c-0.2352905,1.1729126-0.3716431,2.4012451-0.3716431,3.6747437  c0,0.0001221-0.000061,0.0003052-0.000061,0.0004272c-0.0002441,0.4139404-0.3359985,0.7495728-0.749939,0.7495728  c-0.4140625,0-0.75-0.3359375-0.75-0.75c0-0.2402954,0.019043-0.4742432,0.0273438-0.7119141  c0.0152588-0.4384766,0.0412598-0.8724365,0.0838013-1.3007813H30.456461c-0.1518555,0-0.2915039-0.0546875-0.3828125-0.1494141  c-0.0419922-0.0439453-0.0908203-0.1162109-0.0869141-0.2099609l0.1221313-2.8037109l-0.7080688-0.2724609  c-0.1985474-0.0765381-0.3847656-0.1775513-0.5708618-0.2781372c-0.3169556-0.1713257-0.6201172-0.3651123-0.8926392-0.598999  c-0.3318481-0.0823975-0.6604614-0.1985474-0.9793701-0.3572388l-10.0532227-5.0136719  c-1.2119141-0.6044922-2.1079102-1.6982422-2.4633789-3.0048828s-0.1362305-2.703125,0.6030273-3.8378906l13.5742188-20.8457069  c0.7669678-1.1781616,1.9700317-1.8863525,3.2574463-2.0859375l2.6107807-0.1405029v9.7652588  c-0.5963135,0.1699219-1.0657959,0.6143188-1.2070923,1.2092285l-0.565918,2.3720093l-2.9501362,12.3648109l-0.000061,0.0002441  l1.194458,0.5955811l3.5863056-15.0318642c0.0395508-0.1669922,0.2387695-0.2919922,0.4633789-0.2919922h19.7080078  c0.2246094,0,0.4238281,0.125,0.4638672,0.2919922l4.0869141,17.1289101  C59.2694511,77.2754211,59.2704277,77.2871399,59.2714043,77.3008118z M29.7367344,74.5574036v-7.7796631l-3.8242188,5.8726807  L29.7367344,74.5574036z M38.3080254,79.6767883c-0.0166016-0.0371094-0.0561523-0.1035156-0.140625-0.1357422l-5.9443359-2.3222656  c-0.4135761-0.1552734-0.8193378-0.2265625-1.2075214-0.2265625c-1.4467773,0-2.6538086,0.9814453-3.1445313,2.1943359  c-0.3608398,0.8925781-0.2519531,1.9833984,0.2905273,2.9189453c0.4008789,0.6904297,1.0322266,1.2294922,1.7783203,1.5166016  l4.4995136,1.7314453c0.1269531,0.0507813,0.2802734-0.0166016,0.3305664-0.1464844  c0.0493164-0.1289063-0.0175781-0.2802734-0.1464844-0.3300781l-2.7895527-1.0732422  c-0.2490234-0.0957031-0.4287109-0.3173828-0.4711914-0.5810547c-0.0419922-0.2636719,0.059082-0.5302734,0.265625-0.6992188  c0.2089844-0.1708984,0.5566425-0.2705078,0.8085957-0.1738281l4.0493164,1.5585938  c0.1264648,0.0517578,0.2797852-0.0175781,0.3295898-0.1474609c0.0498047-0.1289063-0.0180664-0.2802734-0.1484375-0.3310547  l-3.640625-1.4003906c-0.1865234-0.0722656-0.3364258-0.2148438-0.4169922-0.3984375  c-0.0805664-0.1826172-0.0844727-0.3896484-0.0117188-0.5761719c0.1508789-0.3828125,0.6079102-0.6386719,0.9946289-0.4941406  l4.3632813,1.6796875c0.0830078,0.0341797,0.1582031,0.0097656,0.1948242-0.0058594  c0.0361328-0.0166016,0.1025391-0.0566406,0.1347656-0.140625c0.0498047-0.1298828-0.0170898-0.2802734-0.1464844-0.3310547  l-4.3632813-1.6787109c-0.1865234-0.0722656-0.3364258-0.2148438-0.4169922-0.3984375  c-0.0805664-0.1826172-0.0844727-0.3896484-0.0117188-0.5761719c0.1513672-0.3828125,0.609375-0.6376953,0.9946289-0.4941406  l3.6420898,1.4023438c0.1269531,0.0517578,0.2802734-0.0185547,0.3300781-0.1464844  C38.3465996,79.7861633,38.3241386,79.7129211,38.3080254,79.6767883z M55.0135918,66.983429  c0.1396484-2.1738281-3.4311523-3.2783241-4.5288086-3.5654335l-0.2485352-0.1162109  c-1.25-0.8994141-3.1083984-1.3740234-5.3745117-1.3740234s-4.1245117,0.4746094-5.3745117,1.3740234l-0.1132813,0.0810547  l-0.1352539,0.0351563c-1.0976563,0.2871094-4.668457,1.3916054-4.5283203,3.5654335  c0.0498047,0.7705078,0.0766602,1.5556641,0.0893555,2.3125c0.0087891,0.5263672,0.2607422,0.8710938,0.5053711,0.9404297  c0.2055664,0.0576172,0.3652344-0.1142578,0.4638672-0.2705078l1.6835938-2.6425781l0.4589844,1.6005859  c0.1875,0.6552734,0.4731445,1.2763672,0.8491211,1.8466797l0.1318359,0.2001953l-0.0209961,0.5048828  c0,3.6972656,2.6870117,6.7060547,5.9902344,6.7060547s5.9902344-3.0087891,5.9902344-6.7060547l-0.0209961-0.5048828  l0.1313477-0.1992188c0.3764648-0.5712891,0.6616211-1.1933594,0.8486328-1.8466797l0.4580078-1.6015625l1.6850586,2.6425781  c0.0996094,0.15625,0.2666016,0.3291016,0.4648438,0.2705078c0.2441406-0.0693359,0.4960938-0.4140625,0.5039063-0.9394531  C54.9354668,68.539093,54.9637871,67.7539368,55.0135918,66.983429z M43.1016655,67.934967  c0-0.6185303-0.5014038-1.1199341-1.1199341-1.1199341s-1.1199341,0.5014038-1.1199341,1.1199341  s0.5014038,1.1199341,1.1199341,1.1199341S43.1016655,68.5534973,43.1016655,67.934967z M28.8832188,34.8183861  c-0.3525391-0.9042969-0.4501953-1.8569336-0.2749023-2.6816406c0.0998535-0.4699078,0.2884521-0.8785992,0.5450439-1.20648  c-0.1231079-5.2011719,0.3381348-9.0215454,1.0130005-11.8025513c0.3988647-2.1903687,1.1903076-4.3655405,2.6318989-6.1555185  c2.3100586-2.8686523,5.8710938-4.2402344,10.5688477-4.0888672c0.1201172,0.0043945,0.2363281,0.0307617,0.34375,0.0766602  c5.9741211-0.6879883,10.4326172,0.590332,13.2529297,3.8012695c2.7371826,3.1152954,3.3915405,7.4434824,3.3571777,11.0161142  c0.2162476,2.0299683,0.3170776,4.3991699,0.2489624,7.1524658c0.2567749,0.3280029,0.4455566,0.7368164,0.5452271,1.2069073  c0.1748047,0.824707,0.0771484,1.7773438-0.2744141,2.6821289c-0.1461182,0.3748779-0.3375854,0.7182007-0.5517578,1.0359497  c-0.2003784,2.3303833-0.5025635,4.8690186-0.9414063,7.6608276c-0.0722656,0.4619141-0.4707031,0.8027344-0.9384766,0.8027344  h-5.3495483c-0.4887085,0.4178467-1.0213623,0.7947998-1.5957642,1.1323242v3.4501953h1.5230103v9.6411133h-0.0793457H36.7367973  v-9.6411133h1.5238647v-3.4710083c-0.5637207-0.3322144-1.0870361-0.7023926-1.5681763-1.1115112h-5.4274311  c-0.4697266,0-0.8691406-0.34375-0.9394531-0.8085938c-0.4222412-2.7981567-0.7127075-5.3421631-0.9047852-7.6766357  C29.2127476,35.5209007,29.025919,35.1851463,28.8832188,34.8183861z M50.7137871,50.4009056c-0.4140625,0-0.75-0.3359375-0.75-0.75  v-3.4552612c-1.4430542,0.5904541-3.1162109,0.9603271-5.0639648,1.0592651  c-1.9793091-0.0999146-3.6777954-0.4751587-5.1391602-1.0762329v3.472229c0,0.4140625-0.3359375,0.75-0.75,0.75h-1.6104736  c1.491394,1.5678711,4.270874,2.6248779,7.4615479,2.6248779c2.4094238,0,4.5828857-0.604126,6.1472168-1.5737305  c0.5071411-0.3143311,0.947937-0.6677246,1.3129272-1.0511475h-0.6547241H50.7137871z M57.6468925,36.0308495  c0.2787476-0.0046387,0.5527344-0.159668,0.7124023-0.2730103c0.4443359-0.3168945,0.8398438-0.8574219,1.0830078-1.4838867  c0.2441406-0.6259766,0.3193359-1.2915039,0.2060547-1.8256836c-0.0527344-0.2480469-0.1943359-0.6845684-0.5478516-0.8222637  c-0.1949463-0.0754395-0.442749-0.0357056-0.7022095,0.0919189C58.2272758,33.2099876,57.9846001,34.656826,57.6468925,36.0308495z   M32.5744438,28.2633953c0.6159668,10.3327618,3.4267578,17.0418682,12.3253784,17.4934673  c8.5374756-0.4364624,11.4387817-6.72052,12.178894-16.4694805c-3.9951782-2.2332153-6.8571167-6.1533203-7.8336792-8.3449707  l-0.1005859-0.0058594C45.4351006,25.7165813,36.6413383,27.618742,32.5744438,28.2633953z M30.2806797,34.2739525  c0.2436523,0.6264648,0.6386719,1.1669922,1.0839844,1.4838867c0.1593628,0.1131592,0.4349365,0.2683105,0.7158222,0.2718506  c-0.3395405-1.3753052-0.5833759-2.8236084-0.7551289-4.3171368c-0.1672974-0.0823975-0.3294678-0.1265869-0.4758301-0.1265869  c-0.0810547,0-0.1572266,0.0131836-0.2270508,0.0400391c-0.2578125,0.1005859-0.4570313,0.4003887-0.546875,0.8222637  C29.9623203,32.9824486,30.0370274,33.6479759,30.2806797,34.2739525z M47.7418633,66.815033  c-0.6185303,0-1.1199341,0.5014038-1.1199341,1.1199341s0.5014038,1.1199341,1.1199341,1.1199341  s1.1199341-0.5014038,1.1199341-1.1199341S48.3603935,66.815033,47.7418633,66.815033z"></path></svg>