<svg height='100px' width='100px'  fill="#000000" xmlns:dc="http://purl.org/dc/elements/1.1/" xmlns:cc="http://creativecommons.org/ns#" xmlns:rdf="http://www.w3.org/1999/02/22-rdf-syntax-ns#" xmlns:svg="http://www.w3.org/2000/svg" xmlns="http://www.w3.org/2000/svg" version="1.1" viewBox="0 0 100 100" xml:space="preserve" x="0px" y="0px"><path d="m 50,10.03125 c -1.727683,0 -3.457449,0.676227 -4.78125,2 L 7,50.25 c -2.6476274,2.647601 -2.6476274,6.914957 0,9.5625 2.6476014,2.647599 6.914929,2.647599 9.5625,0 l 0.21875,-0.25 0,27.28125 c 0,1.72402 1.400981,3.125 3.125,3.125 l 3.6875,0 3.59375,0 43.03125,0 c 0.476664,0 0.95227,-0.09746 1.375,-0.25 0.372544,0.157091 0.78773,0.25 1.21875,0.25 l 7.28125,0 c 1.724077,0 3.125,-1.40098 3.125,-3.125 l 0,-27.28125 0.21875,0.25 c 2.647603,2.647599 6.914929,2.647599 9.5625,0 2.647631,-2.647572 2.647631,-6.914899 0,-9.5625 L 54.78125,12.03125 c -1.323799,-1.323773 -3.053595,-2 -4.78125,-2 z M 27.40625,43.125 c 5.2994,3.712828 6.326142,4.183464 10.5625,5 2.659693,0.512573 5.875,0.46875 5.875,0.46875 0,0 0.436874,-0.260014 1.25,-0.8125 C 46.511908,46.817588 48.23289,46.125 50,46.125 c 1.767111,0 3.488148,0.692588 4.90625,1.65625 0.813216,0.552486 1.28125,0.8125 1.28125,0.8125 0,0 3.184085,0.04383 5.84375,-0.46875 4.236328,-0.816508 5.294349,-1.287143 10.59375,-5 -0.401299,1.165035 -2.740217,8.606929 -10.15625,9.8125 -2.030537,0.330049 -2.90625,0.867036 -2.90625,1.28125 0,0.418132 0.230619,0.491366 0.71875,0.28125 0.383843,-0.165351 1.784169,-0.367639 3.125,-0.46875 3.127984,-0.236005 6.125283,0.846264 6.375,2.5 0.583198,3.861487 -5.713413,3.404625 -8.3125,2.4375 l -1.8125,-0.6875 -0.65625,2.5 C 58.699076,61.94356 57.909187,67.681449 57.53125,70.3125 55.966846,69.788998 54.079536,70.096357 52.46875,69.875 51.312061,69.84406 50.156888,69.83382 49,69.84375 46.913543,70.049778 44.586224,69.681017 42.5625,70.3125 42.116862,67.413454 41.280087,61.863227 41,60.78125 l -0.65625,-2.5 -1.8125,0.6875 c -2.599059,0.967067 -8.86442,1.423988 -8.28125,-2.4375 0.249688,-1.653737 3.21574,-2.736005 6.34375,-2.5 1.340805,0.101169 2.772379,0.303399 3.15625,0.46875 0.488019,0.210116 0.6875,0.13691 0.6875,-0.28125 0,-0.414186 -0.875743,-0.951145 -2.90625,-1.28125 -7.41615,-1.205571 -9.723701,-8.647465 -10.125,-9.8125 z M 44.375,58.28125 c -0.70049,0 -1.28125,0.580816 -1.28125,1.28125 0,0.700521 0.580705,1.25 1.28125,1.25 0.700523,0 1.25,-0.549479 1.25,-1.25 0,-0.700434 -0.54962,-1.28125 -1.25,-1.28125 z m 11.28125,0 c -0.700406,0 -1.28125,0.580816 -1.28125,1.28125 0,0.700521 0.580701,1.25 1.28125,1.25 0.700519,0 1.25,-0.549479 1.25,-1.25 0,-0.700434 -0.549594,-1.28125 -1.25,-1.28125 z M 50,70.75 c 2.717657,1.88e-4 4.696825,0.07426 6.625,0.28125 1.347219,0.144628 2.039301,0.817296 2.125,1.875 0.322355,3.976851 0.217541,4.093338 0.375,6.8125 0.09362,1.617542 -0.80696,2.726125 -1.875,2.75 -3.460415,0.07747 -5.688465,0.09375 -7.25,0.09375 -1.561594,0 -3.789583,-0.01632 -7.25,-0.09375 -1.068038,-0.02384 -1.968647,-1.132458 -1.875,-2.75 0.157402,-2.71922 0.05267,-2.835649 0.375,-6.8125 0.08575,-1.057676 0.777725,-1.730372 2.125,-1.875 C 45.303147,70.824256 47.282285,70.75 50,70.75 z m -6.46875,3.4375 c -0.0048,0.0037 0,0.02159 0,0.03125 0,0.01363 -0.02274,-0.0028 -0.03125,0 -0.136935,0.04428 0.07739,0.822333 0.15625,2 0.07883,1.177725 0.559426,1.65625 1.15625,1.65625 0.596882,0 1.09375,-0.465704 1.09375,-1.0625 0,-0.596795 -0.497705,-1.096223 -0.96875,-1.59375 -0.400219,-0.42273 -1.223048,-1.065173 -1.375,-1.03125 -0.008,0.0028 -0.02669,-0.0037 -0.03125,0 z m 12.875,0 c -0.21761,0.04601 -0.968538,0.634976 -1.34375,1.03125 -0.47107,0.497529 -0.9375,0.996955 -0.9375,1.59375 0,0.596796 0.465648,1.0625 1.0625,1.0625 0.596824,0 1.077393,-0.478555 1.15625,-1.65625 0.07877,-1.177695 0.293159,-1.955718 0.15625,-2 -0.0085,-0.0031 -0.03125,0.0139 -0.03125,0 0,-0.01959 -0.01563,-0.02785 -0.03125,-0.03125 -0.0094,-0.0028 -0.01678,-0.0028 -0.03125,0 z" style="" fill="#000000" fill-opacity="1" stroke="none"></path></svg>