<?xml version="1.0" encoding="utf-8"?>
<!-- Generator: Adobe Illustrator 24.2.1, SVG Export Plug-In . SVG Version: 6.00 Build 0)  -->
<svg version="1.1" id="Layer_1" xmlns="http://www.w3.org/2000/svg" xmlns:xlink="http://www.w3.org/1999/xlink" x="0px" y="0px"
	 viewBox="0 0 100 100" enable-background="new 0 0 100 100" xml:space="preserve">
<g>
	<polygon points="38.7,48.4 43.2,54.2 50.1,54.2 57.1,54.2 61.5,48.4 50.1,48.4 	"/>
</g>
<g>
	<path d="M50.1,25.7c-11.9,0-21.6,9.7-21.6,21.6s9.7,21.6,21.6,21.6s21.6-9.7,21.6-21.6C71.8,35.4,62.1,25.7,50.1,25.7z M50.1,37.9
		L55,46h-9.8L50.1,37.9z M57.6,55.3h-7.5h-7.5l-6.1-7.9H50h13.5L57.6,55.3z"/>
</g>
<g>
	<path d="M50.1,5.5C27,5.5,8.3,24.2,8.3,47.3c0,14.9,7.8,27.9,19.5,35.4c6.5,4.1,22.3,12.1,22.3,12.1s15.9-8,22.3-12.1
		c11.7-7.4,19.5-20.5,19.5-35.4C91.9,24.2,73.2,5.5,50.1,5.5z M50.1,70.4c-12.7,0-23-10.3-23-23s10.3-23,23-23s23,10.3,23,23
		S62.8,70.4,50.1,70.4z"/>
</g>
</svg>
