<svg height='100px' width='100px'  fill="#000000" xmlns="http://www.w3.org/2000/svg" xmlns:xlink="http://www.w3.org/1999/xlink" version="1.1" x="0px" y="0px" viewBox="0 0 64 64" style="enable-background:new 0 0 64 64;" xml:space="preserve"><g><rect x="8" y="27" width="2" height="2"></rect><rect x="12" y="27" width="2" height="2"></rect><rect x="16" y="27" width="2" height="2"></rect><path d="M61,23h-6c-1.103,0-2,0.897-2,2H40v-2c0-1.103-0.897-2-2-2v-1.341l5.173-2.217C44.283,16.967,45,15.879,45,14.671   c0-0.647-0.214-1.29-0.603-1.809L38.5,5H23.414l-3.287-3.287L13,6.465V14c0,2.757,2.243,5,5,5h7v2h-3v2h-7.5l-3-4H5v4H3.993   c-1.648,0-2.994,1.341-3,2.989l-0.02,5.45c-0.002,0.546,0.145,1.083,0.426,1.552l1.369,2.289c0.781,1.305,1.191,2.799,1.187,4.32   c-0.001,0.551-0.058,1.105-0.171,1.661L1.018,55.813L1,63h16c1.654,0,3-1.346,3-3h5c1.654,0,3-1.346,3-3V35h4v10   c0,1.103,0.897,2,2,2h2c1.103,0,2-0.897,2-2V35c1.103,0,2-0.897,2-2v-2h13c0,1.103,0.897,2,2,2h6c1.103,0,2-0.897,2-2v-6   C63,23.897,62.103,23,61,23z M15,7.535l4.873-3.249l1.558,1.558L15,10.132V7.535z M18,17c-1.654,0-3-1.346-3-3v-1.465L23.303,7   H37.5l2.754,3.672l-5.324,2.329l0.802,1.832l5.755-2.518l1.31,1.747C42.928,14.237,43,14.454,43,14.671   c0,0.407-0.241,0.773-0.615,0.933L36,18.341V21h-9v-2.346l6.765-2.96l-0.802-1.832L25.791,17H18z M7,21h3.5l1.5,2H7V21z    M2.993,25.996C2.995,25.447,3.443,25,3.993,25H22v6H2.975L2.993,25.996z M5.746,41.648c0.137-0.672,0.208-1.359,0.209-2.043   c0.006-1.884-0.502-3.735-1.47-5.353L3.735,33H22v2h-0.399c-2.566,0-4.704,1.925-4.973,4.482L16.577,40H10v2h6.379l-0.297,3H10v2   h5.885l-0.297,3H10v2h5.391l-0.297,3H3.208L5.746,41.648z M22,37v2c0,1.103-0.897,2-2,2h-1.512l0.13-1.314   C18.779,38.154,20.062,37,21.601,37H22z M18,60c0,0.552-0.449,1-1,1H3v-4h14c0.551,0,1,0.448,1,1V60z M26,57c0,0.552-0.449,1-1,1   h-5c0-1.619-1.291-2.934-2.897-2.99L18.29,43H20c2.206,0,4-1.794,4-4v-4h2V57z M36,45h-2v-2h2V45z M36,41h-2v-2h2V41z M36,37h-2v-2   h2V37z M38,33H28v-4h-2v4h-2V23h2v4h2v-4h10V33z M53,29H40v-2h13V29z M55,31v-6h6l0.001,6H55z"></path></g></svg>