<svg height='100px' width='100px'  fill="#000000" xmlns="http://www.w3.org/2000/svg" xmlns:xlink="http://www.w3.org/1999/xlink" version="1.1" x="0px" y="0px" viewBox="0 0 91 91" style="enable-background:new 0 0 91 91;" xml:space="preserve"><g><path d="M47.3,56.1c0.7,5.6-0.6,9.7-3.8,14.3c-1.7,2.4,2.7,4.9,3.9,2.3c2.4-5.2,6.1-12.1,2-17.4C48.8,54.5,47.2,55.1,47.3,56.1z"></path><path d="M82.6,51.8c3.5,4.1,4.8,9.8,3.2,14.9C84,72.3,78.2,78,72.2,74.1c-4.8-3.1-7.2-10.5-6.8-16c0.2-2.8,1.4-5.6,3.4-7.6   c2.1-2.1,4.7-1.9,6.9-3.5c0.9-0.7,0.9-1.8,0-2.4c-1.7-1.2-3.8-0.9-5.8-0.1c-3.4-7.2-11.5-10.9-18.8-12.8c-1-0.3-2.1-0.6-3.3-0.8   c0.1-0.4,0.2-0.7,0.2-1.1c2.1-9.8-3.5-20-13.4-22.9c-11.7-3.5-20.5,6.3-31.5,7.5c-2,0.2-3.2,2.9-1.1,4c6.7,3.6,14.8,3.4,22.2,3.9   c4.3,0.3,8.9,0.1,13.1,1.1c1.7,0.4,3.4,1.1,4.7,2.2c0.5,0.5,1.2,1.3,1.7,2.2c-0.1,0.7-0.3,1.4-0.5,2.1c-4.8-0.8-9.8-1-14,0.7   c-0.3-0.5-0.6-1-1-1.4c-2.3-2.4-5.8-3.3-9-3c-3.6,0.3-7.3,1.8-10.4,3.4c-3.2,1.6-6.4,3.7-7.8,7.1c-2.5,6,2.3,11.7,8.4,12.3   c6.5,0.7,13.8-3.6,18-8.4c2-2.4-1.3-5.8-3.5-3.5c-2.4,2.6-5.4,4.8-8.8,6.1c-3,1.2-9.4,1.8-9.8-2.9c-0.5-6.1,18-12.3,20.5-7.4   c-0.1,0.4,0,0.9,0.3,1.2c0.2,1.2,1.7,1.9,2.6,0.9c0.2-0.3,0.4-0.5,0.6-0.8c2.8-0.4,5.5-0.8,8.3-0.6c0.2,0,0.3,0,0.5,0   c-3.1,3.1-5.9,6.5-9.4,9.3c-3.9,3.2-8,6.1-11.6,9.6c-6.7,6.6-11.9,15-11.7,24.7c0,1.4,1.3,2.2,2.6,1.9c9.1-1.9,15.3-10.6,20.4-17.7   c5.7-7.8,10-16.3,12.9-25.5c0.3-0.6,0.6-1.2,0.8-1.8l0,0c2.2,0.4,4.3,0.9,6.4,1.4c2,0.5,3.8,1.1,5.6,1.8c-2.9,2.5-5.1,5.7-6.3,9.4   c-10-0.3-25.4,27-8.8,34.4c9,4,16.4-4.7,19.3-12.2c3.1-8.1,2.6-16.9-5-21.5c1.1-2.9,2.7-5.5,5.3-7.3c0.1-0.1,0.2-0.2,0.4-0.3   c2.7,1.7,5,4,6.9,7c-2.9,2.5-4.6,5.8-5.2,9.6c-1.1,7.7,2.4,18,9.4,22.1c7.7,4.5,15.2-1.1,18.3-8.3c2.9-6.9,2.4-15.2-1.8-21.5   C84.5,45.8,80.2,49.1,82.6,51.8z M37.3,19.4c-5.5-1.1-11.3-1-16.8-1.5c-3.4-0.3-6.8-0.5-10.1-1.1c6-2.4,11.7-6,18.2-6.3   c7.6-0.4,13.4,4.9,14.9,11.4C41.6,20.7,39.4,19.8,37.3,19.4z M26.1,57.8c-4.2,5.9-9.3,13.9-16.4,16.8c1-8.8,6.9-16,13.5-21.7   c3.3-2.8,7.5-5.5,11.2-8.6C32,49,29.2,53.5,26.1,57.8z M53.8,66.7C52,71.9,46.6,80.1,40,76.4c-6.2-3.5-3.9-12.1-1.2-17.1   c1.3-2.4,2.8-4.9,4.9-6.8c1.3-1.2,2.9-1.5,4.4-2c0.3,0.3,0.7,0.6,1.2,0.8C56,54.2,56,60.8,53.8,66.7z"></path><path d="M78.6,48.4c0.1,0,0.3,0.1,0.4,0.1l0,0c0.2,0.1,0.4,0.2,0.6,0.3c0.8,0.2,1.9-0.1,2.3-0.9c0.2-0.4,0.3-0.8,0.2-1.3   c-0.1-0.5-0.2-0.8-0.6-1.2c-0.4-0.5-1.3-0.8-2-0.7c-0.6,0-1.4,0.2-1.8,0.7s-0.6,1.1-0.5,1.8C77.5,47.7,78,48.2,78.6,48.4z"></path><path d="M76.2,52.7c0.8,1.8,2.1,3.3,2.5,5.3s0.2,4.2-0.6,6.1c-1.4,3.2,3.4,5.2,4.4,1.9c1.5-4.9,1-13.1-5.1-14.9   C76.5,50.9,75.9,51.9,76.2,52.7z"></path><path d="M78,68.1c-0.6-0.3-1.3-0.5-2-0.3c-1.3,0.4-2,1.9-1.5,3.1s2.1,1.9,3.3,1.1c0,0,0.1,0,0.1-0.1c0.6-0.4,1.2-1.2,1.1-2   C79,69.2,78.8,68.5,78,68.1z"></path></g></svg>