<?xml version="1.0" encoding="utf-8"?>
<!-- Generator: Adobe Illustrator 24.2.1, SVG Export Plug-In . SVG Version: 6.00 Build 0)  -->
<svg version="1.1" id="Layer_1" xmlns="http://www.w3.org/2000/svg" xmlns:xlink="http://www.w3.org/1999/xlink" x="0px" y="0px"
	 viewBox="0 0 100 100" enable-background="new 0 0 100 100" xml:space="preserve">
<g>
	<path d="M1.042,28.442c-0.095-2.293,0.039-3.941,0.618-5.435c0.604-1.555,1.666-2.884,3.429-4.529
		c0.621-0.579,1.291-1.091,1.961-1.602c2.04-1.557,4.08-3.114,4.117-6.484c0-0.063,0-0.127,0-0.192
		c0.003-0.362,0.296-0.656,0.659-0.659c0.367-0.003,0.666,0.292,0.669,0.659c0.001,0.065,0.001,0.129,0,0.192
		c0.028,2.525,1.18,4.032,2.615,5.285c0.447-1.336,1.265-2.5,2.331-3.371c1.27-1.037,2.891-1.66,4.656-1.66
		c1.782,0,3.417,0.633,4.692,1.687c1.008,0.833,1.791,1.931,2.243,3.187c1.352-1.222,2.412-2.707,2.439-5.128
		c0-0.063,0-0.127,0-0.192c0.003-0.367,0.303-0.662,0.669-0.659c0.363,0.003,0.656,0.297,0.659,0.659
		c0.001,0.065,0.001,0.129,0,0.192c0.037,3.369,2.077,4.927,4.117,6.484c0.67,0.511,1.34,1.023,1.961,1.602
		c0.239,0.223,0.464,0.44,0.678,0.652c0.154-1.027,0.439-1.922,0.899-2.789c0.638-1.199,1.603-2.319,3.026-3.647
		c0.621-0.579,1.291-1.091,1.961-1.602c2.04-1.557,4.08-3.114,4.117-6.484c0-0.063,0-0.127,0-0.192
		c0.003-0.362,0.296-0.656,0.659-0.659c0.367-0.003,0.666,0.292,0.669,0.659c0.001,0.065,0.001,0.129,0,0.192
		c0.037,3.369,2.077,4.927,4.117,6.484c0.67,0.511,1.34,1.023,1.961,1.602c1.34,1.25,2.274,2.317,2.913,3.443
		c0.494,0.871,0.804,1.761,0.979,2.777c0.147-0.143,0.3-0.288,0.458-0.436c0.621-0.579,1.291-1.091,1.961-1.602
		c2.04-1.557,4.08-3.114,4.117-6.484c0-0.063,0-0.127,0-0.192c0.003-0.362,0.296-0.656,0.659-0.659
		c0.367-0.003,0.666,0.292,0.669,0.659c0.001,0.065,0.001,0.129,0,0.192c0.027,2.421,1.087,3.906,2.439,5.128
		c0.452-1.257,1.235-2.354,2.243-3.187c1.275-1.054,2.91-1.687,4.692-1.687c1.765,0,3.386,0.622,4.656,1.66
		c1.067,0.871,1.885,2.036,2.331,3.371c1.434-1.252,2.587-2.76,2.615-5.285c0-0.063,0-0.127,0-0.192
		c0.003-0.367,0.303-0.662,0.669-0.659c0.363,0.003,0.656,0.297,0.659,0.659c0.001,0.065,0.001,0.129,0,0.192
		c0.037,3.369,2.077,4.927,4.117,6.484c0.67,0.511,1.34,1.023,1.961,1.602c1.763,1.645,2.825,2.973,3.429,4.529
		c0.58,1.493,0.713,3.142,0.618,5.435h0.082v1.333H0.768v-1.333C0.768,28.442,1.042,28.442,1.042,28.442z M0.768,59.848h98.463
		v1.333H0.768C0.768,61.181,0.768,59.848,0.768,59.848z M4.752,64.709v1.333H2.085v-1.333H4.752z M98.085,64.709v1.333h-2.667
		v-1.333H98.085z M91.418,64.709v1.333h-2.667v-1.333H91.418z M84.752,64.709v1.333h-2.667v-1.333H84.752z M78.085,64.709v1.333
		h-2.667v-1.333H78.085z M71.418,64.709v1.333h-2.667v-1.333H71.418z M64.752,64.709v1.333h-2.667v-1.333H64.752z M58.085,64.709
		v1.333h-2.667v-1.333H58.085z M51.418,64.709v1.333h-2.667v-1.333H51.418z M44.752,64.709v1.333h-2.667v-1.333H44.752z
		 M38.085,64.709v1.333h-2.667v-1.333H38.085z M31.418,64.709v1.333h-2.667v-1.333H31.418z M24.752,64.709v1.333h-2.667v-1.333
		H24.752z M18.085,64.709v1.333h-2.667v-1.333H18.085z M11.418,64.709v1.333H8.752v-1.333H11.418z M50.195,78.461
		c0.605,0,1.152-0.245,1.548-0.641c0.396-0.396,0.641-0.944,0.641-1.548s-0.245-1.152-0.641-1.548
		c-0.396-0.396-0.944-0.641-1.548-0.641c-0.605,0-1.152,0.245-1.548,0.641c-0.396,0.396-0.641,0.944-0.641,1.548
		s0.245,1.152,0.641,1.548C49.043,78.216,49.591,78.461,50.195,78.461z M52.686,78.763c-0.638,0.637-1.518,1.032-2.491,1.032
		c-0.973,0-1.853-0.394-2.491-1.032c-0.638-0.638-1.032-1.518-1.032-2.491c0-0.973,0.394-1.853,1.032-2.491s1.518-1.032,2.491-1.032
		c0.973,0,1.853,0.394,2.491,1.032s1.032,1.518,1.032,2.491C53.718,77.244,53.324,78.125,52.686,78.763z M42.507,76.411
		c0.013,0.034,0.021,0.07,0.025,0.107c0.245,2.55,2.187,3.871,4.067,5.149c1.483,1.009,2.931,1.994,3.621,3.512
		c0.68-1.521,2.106-2.512,3.564-3.524c1.796-1.247,3.644-2.53,3.942-4.917c0.005-0.039,0.015-0.076,0.029-0.11
		c-0.468-1.399-0.574-2.963-0.487-5.071H42.924C43.007,73.558,42.916,75.067,42.507,76.411z M58.315,77.922
		c-0.667,2.064-2.382,3.256-4.056,4.418c-1.85,1.285-3.645,2.531-3.621,4.915v0.007c-0.002,0.229-0.189,0.414-0.418,0.412
		c-0.227-0.002-0.41-0.186-0.412-0.412l0-0.007c0.024-2.385-1.794-3.621-3.674-4.9c-1.74-1.183-3.528-2.4-4.192-4.556
		c-0.309,0.596-0.698,1.171-1.182,1.76c0.075,1.377,0.331,2.458,0.871,3.475c0.563,1.059,1.444,2.074,2.756,3.298
		c0.575,0.536,1.218,1.028,1.862,1.519c1.56,1.191,3.12,2.382,3.974,4.276c0.854-1.894,2.414-3.085,3.974-4.276
		c0.644-0.491,1.287-0.982,1.862-1.519c1.242-1.159,2.099-2.13,2.662-3.125c0.549-0.968,0.83-1.985,0.936-3.257
		c0.003-0.035,0.009-0.07,0.017-0.104C59.111,79.196,58.665,78.57,58.315,77.922z M60.857,81.086
		c-0.175,1.016-0.486,1.906-0.979,2.777c-0.638,1.126-1.573,2.192-2.913,3.443c-0.621,0.579-1.291,1.091-1.961,1.602
		c-2.04,1.557-4.08,3.114-4.117,6.484c0,0.063,0,0.127,0,0.192c-0.003,0.367-0.303,0.662-0.669,0.659
		c-0.363-0.003-0.656-0.297-0.659-0.659c-0.001-0.065-0.001-0.129,0-0.192c-0.037-3.369-2.077-4.927-4.117-6.484
		c-0.67-0.511-1.34-1.023-1.961-1.602c-1.423-1.328-2.389-2.448-3.026-3.647c-0.461-0.866-0.745-1.761-0.899-2.789
		c-0.214,0.212-0.439,0.429-0.678,0.652c-0.621,0.579-1.291,1.091-1.961,1.602c-2.04,1.557-4.08,3.114-4.117,6.484
		c0,0.063,0,0.127,0,0.192c-0.003,0.362-0.296,0.656-0.659,0.659c-0.367,0.003-0.666-0.292-0.669-0.659
		c-0.001-0.065-0.001-0.129,0-0.192c-0.027-2.421-1.087-3.906-2.439-5.128c-0.452,1.257-1.235,2.354-2.243,3.187
		c-1.275,1.054-2.91,1.687-4.692,1.687c-1.765,0-3.386-0.622-4.656-1.66c-1.067-0.871-1.885-2.036-2.331-3.371
		c-1.434,1.252-2.587,2.76-2.615,5.285c0,0.063,0,0.127,0,0.192c-0.003,0.367-0.303,0.662-0.669,0.659
		c-0.363-0.003-0.656-0.297-0.659-0.659c-0.001-0.065-0.001-0.129,0-0.192c-0.037-3.369-2.077-4.927-4.117-6.484
		c-0.67-0.511-1.34-1.023-1.961-1.602c-1.763-1.645-2.825-2.973-3.429-4.529c-0.58-1.493-0.713-3.142-0.618-5.435H0.768v-1.333
		h98.463v1.333H99.15c0.095,2.293-0.039,3.941-0.618,5.435c-0.604,1.555-1.666,2.884-3.429,4.529
		c-0.621,0.579-1.291,1.091-1.961,1.602c-2.04,1.557-4.08,3.114-4.117,6.484c0,0.063,0,0.127,0,0.192
		c-0.003,0.362-0.296,0.656-0.659,0.659c-0.367,0.003-0.666-0.292-0.669-0.659c-0.001-0.065-0.001-0.129,0-0.192
		c-0.028-2.525-1.18-4.032-2.615-5.285c-0.447,1.336-1.265,2.5-2.331,3.371c-1.27,1.037-2.891,1.66-4.656,1.66
		c-1.782,0-3.417-0.633-4.692-1.687c-1.008-0.833-1.791-1.931-2.243-3.187c-1.352,1.222-2.412,2.707-2.439,5.128
		c0,0.063,0,0.127,0,0.192c-0.003,0.367-0.303,0.662-0.669,0.659c-0.363-0.003-0.656-0.297-0.659-0.659
		c-0.001-0.065-0.001-0.129,0-0.192c-0.037-3.369-2.077-4.927-4.117-6.484c-0.67-0.511-1.34-1.023-1.961-1.602
		C61.156,81.374,61.004,81.229,60.857,81.086z M78.094,85.258c-0.904,0-1.722-0.366-2.314-0.959s-0.959-1.41-0.959-2.314
		c0-0.178,0.014-0.353,0.042-0.523c-0.021,0.02-0.043,0.04-0.065,0.061c-0.621,0.579-1.291,1.091-1.961,1.602
		c-0.191,0.146-0.383,0.292-0.573,0.44c0.33,1.222,1.036,2.291,1.986,3.077c1.043,0.862,2.382,1.38,3.843,1.38
		c1.449,0,2.778-0.509,3.817-1.357c1.002-0.818,1.736-1.951,2.051-3.246c-0.127-0.098-0.255-0.195-0.383-0.293
		c-0.67-0.511-1.34-1.023-1.961-1.602c-0.119-0.111-0.236-0.221-0.349-0.33c0.063,0.254,0.097,0.519,0.097,0.793
		c0,0.904-0.366,1.722-0.959,2.314C79.816,84.891,78.998,85.258,78.094,85.258L78.094,85.258z M77.24,78.825
		c0.272-0.073,0.559-0.113,0.854-0.113c0.405,0,0.792,0.074,1.15,0.208c-0.439-0.614-0.778-1.227-1.036-1.88
		C77.964,77.659,77.647,78.242,77.24,78.825z M76.369,83.71c0.441,0.441,1.051,0.714,1.725,0.714s1.284-0.273,1.725-0.714
		c0.441-0.441,0.714-1.051,0.714-1.725s-0.273-1.284-0.714-1.725c-0.441-0.441-1.051-0.714-1.725-0.714s-1.284,0.273-1.725,0.714
		s-0.714,1.051-0.714,1.725S75.928,83.268,76.369,83.71z M61.598,71.558c0.113,0.501,0.288,0.952,0.542,1.391
		c0.394,0.681,0.985,1.348,1.834,2.14c0.401,0.374,0.848,0.716,1.296,1.057c1.104,0.843,2.208,1.685,2.787,3.049
		c0.579-1.364,1.683-2.206,2.787-3.049c0.448-0.342,0.895-0.684,1.296-1.057c0.812-0.758,1.388-1.402,1.782-2.054
		c0.282-0.467,0.472-0.943,0.593-1.477L61.598,71.558L61.598,71.558z M75.366,71.558c-0.136,0.695-0.368,1.306-0.731,1.906
		c-0.437,0.723-1.059,1.422-1.929,2.233c-0.429,0.401-0.894,0.755-1.358,1.109c-1.425,1.088-2.85,2.176-2.876,4.537
		c0,0.044,0,0.089,0,0.134c-0.002,0.229-0.189,0.414-0.418,0.412c-0.227-0.002-0.41-0.186-0.412-0.412c0-0.045-0.001-0.09,0-0.134
		c-0.026-2.361-1.451-3.45-2.876-4.537c-0.464-0.354-0.929-0.709-1.358-1.109c-0.908-0.848-1.547-1.573-1.987-2.332
		c-0.329-0.569-0.544-1.151-0.672-1.807h-2.15c-0.092,2.139,0.02,3.648,0.527,4.956c0.52,1.34,1.482,2.528,3.095,4.034
		c0.575,0.536,1.218,1.028,1.862,1.519c1.56,1.191,3.12,2.382,3.974,4.276c0.854-1.894,2.414-3.085,3.974-4.276
		c0.644-0.491,1.287-0.982,1.862-1.519c1.614-1.506,2.575-2.694,3.095-4.034c0.507-1.308,0.619-2.816,0.527-4.956
		C77.515,71.558,75.366,71.558,75.366,71.558z M95.669,71.558c-0.128,0.657-0.343,1.238-0.672,1.807
		c-0.44,0.76-1.078,1.485-1.987,2.332c-0.429,0.401-0.894,0.755-1.358,1.109c-1.425,1.088-2.85,2.176-2.876,4.537
		c0,0.044,0,0.089,0,0.134c-0.002,0.226-0.185,0.41-0.412,0.412c-0.229,0.002-0.416-0.183-0.418-0.412c0-0.045,0-0.089,0-0.134
		c-0.026-2.361-1.451-3.449-2.876-4.537c-0.464-0.354-0.929-0.709-1.358-1.109c-0.87-0.812-1.492-1.51-1.929-2.233
		c-0.363-0.601-0.595-1.211-0.731-1.906h-2.149c-0.092,2.14,0.02,3.648,0.527,4.956c0.52,1.34,1.482,2.528,3.095,4.034
		c0.575,0.536,1.218,1.028,1.862,1.519c1.56,1.191,3.12,2.382,3.974,4.276c0.854-1.894,2.414-3.085,3.974-4.276
		c0.644-0.491,1.287-0.982,1.862-1.519c1.614-1.506,2.575-2.694,3.095-4.034c0.508-1.308,0.619-2.816,0.527-4.956H95.669z
		 M81.903,71.558c0.12,0.534,0.311,1.01,0.593,1.477c0.394,0.652,0.97,1.296,1.782,2.054c0.401,0.374,0.848,0.716,1.296,1.057
		c1.104,0.843,2.208,1.685,2.787,3.049c0.579-1.364,1.683-2.206,2.787-3.049c0.448-0.342,0.895-0.683,1.296-1.057
		c0.849-0.792,1.439-1.459,1.834-2.14c0.254-0.439,0.429-0.89,0.542-1.391L81.903,71.558L81.903,71.558z M22.098,84.424
		c0.674,0,1.284-0.273,1.725-0.714c0.441-0.441,0.714-1.051,0.714-1.725s-0.273-1.284-0.714-1.725
		c-0.441-0.441-1.051-0.714-1.725-0.714c-0.674,0-1.284,0.273-1.725,0.714c-0.441,0.441-0.714,1.051-0.714,1.725
		s0.273,1.284,0.714,1.725C20.814,84.151,21.424,84.424,22.098,84.424z M24.412,84.299c-0.592,0.592-1.41,0.959-2.314,0.959
		c-0.904,0-1.722-0.366-2.314-0.959c-0.592-0.592-0.959-1.41-0.959-2.314c0-0.273,0.034-0.539,0.097-0.793
		c-0.113,0.109-0.229,0.219-0.349,0.33c-0.621,0.579-1.291,1.091-1.961,1.602c-0.128,0.098-0.255,0.195-0.383,0.293
		c0.315,1.295,1.049,2.428,2.051,3.246c1.039,0.849,2.368,1.357,3.817,1.357c1.461,0,2.8-0.518,3.843-1.38
		c0.951-0.786,1.656-1.855,1.986-3.077c-0.19-0.148-0.381-0.294-0.573-0.44c-0.67-0.511-1.34-1.023-1.961-1.602
		c-0.022-0.02-0.043-0.04-0.065-0.061c0.027,0.17,0.042,0.345,0.042,0.523C25.371,82.889,25.004,83.707,24.412,84.299L24.412,84.299
		z M20.947,78.92c0.358-0.134,0.746-0.208,1.15-0.208c0.296,0,0.582,0.039,0.854,0.113c-0.406-0.582-0.724-1.166-0.969-1.784
		C21.726,77.693,21.386,78.306,20.947,78.92z M39.444,71.558c-0.128,0.657-0.343,1.238-0.672,1.807
		c-0.44,0.76-1.078,1.485-1.987,2.332c-0.429,0.401-0.894,0.755-1.358,1.109c-1.425,1.088-2.85,2.176-2.876,4.537
		c0,0.044,0,0.089,0,0.134c-0.002,0.226-0.185,0.41-0.412,0.412c-0.229,0.002-0.417-0.183-0.418-0.412c0-0.045,0-0.089,0-0.134
		c-0.026-2.361-1.451-3.449-2.876-4.537c-0.464-0.354-0.929-0.709-1.358-1.109c-0.87-0.812-1.492-1.51-1.929-2.233
		c-0.363-0.601-0.595-1.211-0.731-1.906h-2.149c-0.092,2.139,0.02,3.648,0.527,4.956c0.52,1.34,1.482,2.528,3.095,4.034
		c0.575,0.536,1.218,1.028,1.862,1.519c1.56,1.191,3.12,2.382,3.974,4.276c0.854-1.894,2.414-3.085,3.974-4.276
		c0.644-0.491,1.287-0.982,1.862-1.519c1.614-1.506,2.575-2.694,3.095-4.034c0.507-1.308,0.619-2.816,0.527-4.956
		C41.594,71.558,39.444,71.558,39.444,71.558z M25.677,71.558c0.12,0.534,0.311,1.01,0.593,1.477
		c0.394,0.652,0.97,1.296,1.782,2.054c0.401,0.374,0.848,0.716,1.296,1.057c1.104,0.843,2.208,1.685,2.787,3.049
		c0.579-1.364,1.683-2.206,2.787-3.049c0.448-0.342,0.895-0.683,1.296-1.057c0.849-0.792,1.439-1.459,1.834-2.14
		c0.254-0.439,0.429-0.89,0.542-1.391L25.677,71.558L25.677,71.558z M21.29,71.558h-2.149c-0.136,0.695-0.368,1.306-0.731,1.906
		c-0.437,0.723-1.059,1.422-1.929,2.233c-0.429,0.401-0.894,0.755-1.358,1.109c-1.425,1.088-2.85,2.176-2.876,4.537
		c0,0.044,0,0.089,0,0.134c-0.002,0.229-0.189,0.414-0.418,0.412c-0.227-0.002-0.41-0.186-0.412-0.412c0-0.045-0.001-0.09,0-0.134
		c-0.026-2.361-1.451-3.45-2.876-4.537c-0.464-0.354-0.929-0.709-1.358-1.109c-0.908-0.848-1.547-1.573-1.987-2.332
		c-0.329-0.569-0.544-1.151-0.672-1.807h-2.15c-0.092,2.139,0.02,3.648,0.527,4.956c0.52,1.34,1.482,2.528,3.095,4.034
		c0.575,0.536,1.218,1.028,1.862,1.519c1.56,1.191,3.12,2.382,3.974,4.276c0.854-1.894,2.414-3.085,3.974-4.276
		c0.644-0.491,1.287-0.982,1.862-1.519c1.614-1.506,2.575-2.694,3.095-4.034C21.27,75.206,21.381,73.698,21.29,71.558z
		 M18.289,71.558H5.372c0.113,0.501,0.288,0.952,0.542,1.391c0.394,0.681,0.985,1.348,1.834,2.14
		c0.401,0.374,0.848,0.716,1.296,1.057c1.104,0.843,2.208,1.685,2.787,3.049c0.579-1.364,1.683-2.206,2.787-3.049
		c0.448-0.342,0.895-0.684,1.296-1.057c0.812-0.758,1.388-1.402,1.782-2.054C17.978,72.568,18.169,72.092,18.289,71.558
		L18.289,71.558z M0.768,38.819h98.463v1.333H0.768C0.768,40.152,0.768,38.819,0.768,38.819z M4.752,33.958v1.333H2.085v-1.333
		H4.752z M98.085,33.958v1.333h-2.667v-1.333H98.085z M91.418,33.958v1.333h-2.667v-1.333H91.418z M84.752,33.958v1.333h-2.667
		v-1.333H84.752z M78.085,33.958v1.333h-2.667v-1.333H78.085z M71.418,33.958v1.333h-2.667v-1.333H71.418z M64.752,33.958v1.333
		h-2.667v-1.333H64.752z M58.085,33.958v1.333h-2.667v-1.333H58.085z M51.418,33.958v1.333h-2.667v-1.333H51.418z M44.752,33.958
		v1.333h-2.667v-1.333H44.752z M38.085,33.958v1.333h-2.667v-1.333H38.085z M31.418,33.958v1.333h-2.667v-1.333H31.418z
		 M24.752,33.958v1.333h-2.667v-1.333H24.752z M18.085,33.958v1.333h-2.667v-1.333H18.085z M11.418,33.958v1.333H8.752v-1.333
		H11.418z M50.195,20.206c0.973,0,1.853,0.394,2.491,1.032c0.638,0.638,1.032,1.518,1.032,2.491s-0.394,1.853-1.032,2.491
		c-0.638,0.638-1.518,1.032-2.491,1.032s-1.853-0.394-2.491-1.032c-0.638-0.637-1.032-1.518-1.032-2.491
		c0-0.973,0.394-1.853,1.032-2.491C48.342,20.6,49.223,20.206,50.195,20.206z M51.744,22.18c-0.396-0.396-0.944-0.641-1.548-0.641
		c-0.605,0-1.152,0.245-1.548,0.641c-0.396,0.396-0.641,0.944-0.641,1.548c0,0.605,0.245,1.152,0.641,1.548s0.944,0.641,1.548,0.641
		c0.605,0,1.152-0.245,1.548-0.641s0.641-0.944,0.641-1.548S52.14,22.576,51.744,22.18z M42.532,23.481
		c-0.004,0.038-0.012,0.074-0.025,0.107c0.409,1.344,0.5,2.854,0.417,4.853h14.343c-0.087-2.108,0.019-3.672,0.487-5.071
		c-0.014-0.034-0.024-0.071-0.029-0.11c-0.298-2.386-2.146-3.669-3.942-4.917c-1.458-1.012-2.884-2.003-3.564-3.524
		c-0.69,1.519-2.137,2.504-3.621,3.512C44.719,19.61,42.777,20.932,42.532,23.481z M41.942,22.201
		c0.663-2.156,2.452-3.373,4.192-4.556c1.881-1.279,3.699-2.515,3.674-4.9v-0.007c0.002-0.226,0.185-0.41,0.412-0.412
		c0.229-0.002,0.417,0.183,0.418,0.412v0.007c-0.024,2.384,1.771,3.631,3.621,4.915c1.674,1.162,3.389,2.354,4.056,4.418
		c0.35-0.648,0.796-1.275,1.359-1.924c-0.008-0.034-0.014-0.068-0.017-0.104c-0.106-1.273-0.387-2.289-0.936-3.257
		c-0.564-0.995-1.42-1.966-2.662-3.125c-0.575-0.536-1.218-1.028-1.862-1.519c-1.56-1.191-3.12-2.382-3.974-4.276
		c-0.854,1.894-2.414,3.085-3.974,4.276c-0.644,0.491-1.287,0.982-1.862,1.519c-1.311,1.224-2.193,2.239-2.756,3.298
		c-0.541,1.017-0.796,2.097-0.871,3.475C41.244,21.03,41.633,21.605,41.942,22.201z M78.094,15.576
		c-0.674,0-1.284,0.273-1.725,0.714s-0.714,1.051-0.714,1.725c0,0.674,0.273,1.284,0.714,1.725c0.441,0.441,1.051,0.714,1.725,0.714
		s1.284-0.273,1.725-0.714c0.441-0.441,0.714-1.051,0.714-1.725c0-0.674-0.273-1.284-0.714-1.725
		C79.378,15.849,78.768,15.576,78.094,15.576z M75.78,15.701c0.592-0.592,1.41-0.959,2.314-0.959s1.722,0.366,2.314,0.959
		c0.592,0.592,0.959,1.41,0.959,2.314c0,0.273-0.034,0.539-0.097,0.793c0.113-0.109,0.229-0.219,0.349-0.33
		c0.621-0.579,1.291-1.091,1.961-1.602c0.128-0.097,0.255-0.195,0.383-0.293c-0.315-1.295-1.049-2.428-2.051-3.246
		c-1.039-0.849-2.368-1.358-3.817-1.358c-1.461,0-2.8,0.518-3.843,1.38c-0.951,0.786-1.656,1.855-1.986,3.077
		c0.19,0.148,0.381,0.294,0.573,0.44c0.67,0.511,1.34,1.023,1.961,1.602c0.022,0.02,0.043,0.04,0.065,0.061
		c-0.027-0.17-0.042-0.345-0.042-0.523C74.822,17.111,75.188,16.293,75.78,15.701z M79.245,21.08
		c-0.358,0.134-0.746,0.208-1.15,0.208c-0.296,0-0.582-0.039-0.854-0.113c0.406,0.582,0.724,1.166,0.969,1.784
		C78.467,22.307,78.806,21.694,79.245,21.08z M60.749,28.442c0.128-0.657,0.343-1.238,0.672-1.807
		c0.44-0.76,1.078-1.485,1.987-2.332c0.429-0.401,0.894-0.755,1.358-1.109c1.425-1.088,2.85-2.176,2.876-4.537
		c0-0.044,0-0.089,0-0.134c0.002-0.226,0.185-0.41,0.412-0.412c0.229-0.002,0.416,0.183,0.418,0.412c0,0.045,0,0.09,0,0.134
		c0.026,2.361,1.451,3.449,2.876,4.537c0.464,0.354,0.929,0.709,1.358,1.109c0.87,0.812,1.492,1.51,1.929,2.233
		c0.363,0.601,0.595,1.211,0.731,1.906h2.149c0.092-2.139-0.02-3.648-0.527-4.956c-0.52-1.34-1.482-2.528-3.095-4.034
		c-0.575-0.536-1.218-1.028-1.862-1.519c-1.56-1.191-3.12-2.382-3.974-4.276c-0.854,1.894-2.414,3.085-3.974,4.276
		c-0.644,0.491-1.287,0.982-1.862,1.519c-1.614,1.506-2.575,2.694-3.095,4.034c-0.507,1.308-0.619,2.816-0.527,4.956
		C58.599,28.442,60.749,28.442,60.749,28.442z M74.515,28.442c-0.12-0.534-0.311-1.01-0.593-1.477
		c-0.394-0.652-0.97-1.296-1.782-2.054c-0.401-0.374-0.848-0.716-1.296-1.057c-1.104-0.843-2.208-1.685-2.787-3.049
		c-0.579,1.364-1.683,2.206-2.787,3.049c-0.448,0.342-0.895,0.683-1.296,1.057c-0.849,0.792-1.439,1.459-1.834,2.14
		c-0.254,0.439-0.429,0.89-0.542,1.391C61.598,28.442,74.515,28.442,74.515,28.442z M94.82,28.442
		c-0.113-0.501-0.288-0.952-0.542-1.391c-0.394-0.681-0.985-1.348-1.834-2.14c-0.401-0.374-0.848-0.716-1.296-1.057
		c-1.104-0.843-2.208-1.685-2.787-3.049c-0.579,1.364-1.683,2.206-2.787,3.049c-0.448,0.342-0.895,0.683-1.296,1.057
		c-0.812,0.758-1.388,1.402-1.782,2.054c-0.282,0.467-0.472,0.943-0.593,1.477C81.903,28.442,94.82,28.442,94.82,28.442z
		 M81.052,28.442c0.136-0.695,0.368-1.306,0.731-1.906c0.437-0.723,1.059-1.422,1.929-2.233c0.429-0.401,0.894-0.755,1.358-1.109
		c1.425-1.088,2.85-2.176,2.876-4.537c0-0.044,0-0.089,0-0.134c0.002-0.229,0.189-0.414,0.418-0.412
		c0.227,0.002,0.41,0.186,0.412,0.412c0,0.045,0.001,0.09,0,0.134c0.026,2.361,1.451,3.45,2.876,4.537
		c0.464,0.354,0.929,0.709,1.358,1.109c0.908,0.848,1.547,1.573,1.987,2.332c0.329,0.569,0.544,1.151,0.672,1.807h2.15
		c0.092-2.139-0.02-3.648-0.527-4.956c-0.52-1.34-1.482-2.528-3.095-4.034c-0.575-0.536-1.218-1.028-1.862-1.519
		c-1.56-1.191-3.12-2.382-3.974-4.276c-0.854,1.894-2.414,3.085-3.974,4.276c-0.644,0.491-1.287,0.982-1.862,1.519
		c-1.614,1.506-2.575,2.694-3.095,4.034c-0.507,1.308-0.619,2.816-0.527,4.956H81.052z M22.098,14.742
		c0.904,0,1.722,0.366,2.314,0.959c0.592,0.592,0.959,1.41,0.959,2.314c0,0.178-0.014,0.353-0.042,0.523
		c0.021-0.02,0.043-0.04,0.065-0.061c0.621-0.579,1.291-1.091,1.961-1.602c0.191-0.146,0.383-0.292,0.573-0.44
		c-0.33-1.222-1.036-2.291-1.986-3.077c-1.043-0.862-2.382-1.38-3.843-1.38c-1.449,0-2.778,0.509-3.817,1.357
		c-1.002,0.818-1.736,1.951-2.051,3.246c0.127,0.098,0.255,0.195,0.383,0.293c0.67,0.511,1.34,1.023,1.961,1.602
		c0.119,0.111,0.236,0.221,0.349,0.33c-0.063-0.254-0.097-0.519-0.097-0.793c0-0.904,0.366-1.722,0.959-2.314
		C20.376,15.109,21.194,14.742,22.098,14.742z M22.952,21.175c-0.272,0.073-0.559,0.113-0.854,0.113
		c-0.405,0-0.792-0.074-1.15-0.208c0.439,0.614,0.778,1.227,1.036,1.88C22.228,22.341,22.546,21.758,22.952,21.175z M23.823,16.29
		c-0.441-0.441-1.051-0.714-1.725-0.714c-0.674,0-1.284,0.273-1.725,0.714c-0.441,0.441-0.714,1.051-0.714,1.725
		c0,0.674,0.273,1.284,0.714,1.725c0.441,0.441,1.051,0.714,1.725,0.714c0.674,0,1.284-0.273,1.725-0.714
		c0.441-0.441,0.714-1.051,0.714-1.725C24.537,17.342,24.264,16.732,23.823,16.29z M38.594,28.442
		c-0.113-0.501-0.288-0.952-0.542-1.391c-0.394-0.681-0.985-1.348-1.834-2.14c-0.401-0.374-0.848-0.716-1.296-1.057
		c-1.104-0.843-2.208-1.685-2.787-3.049c-0.579,1.364-1.683,2.206-2.787,3.049c-0.448,0.342-0.895,0.683-1.296,1.057
		c-0.812,0.758-1.388,1.402-1.782,2.054c-0.282,0.467-0.472,0.943-0.593,1.477H38.594z M24.826,28.442
		c0.136-0.695,0.368-1.306,0.731-1.906c0.437-0.723,1.059-1.422,1.929-2.233c0.429-0.401,0.894-0.755,1.358-1.109
		c1.425-1.088,2.85-2.176,2.876-4.537c0-0.044,0-0.089,0-0.134c0.002-0.229,0.189-0.414,0.418-0.412
		c0.227,0.002,0.41,0.186,0.412,0.412c0,0.045,0.001,0.09,0,0.134c0.026,2.361,1.451,3.45,2.876,4.537
		c0.464,0.354,0.929,0.709,1.358,1.109c0.908,0.848,1.547,1.573,1.987,2.332c0.329,0.569,0.544,1.151,0.672,1.807h2.15
		c0.092-2.139-0.02-3.648-0.527-4.956c-0.52-1.34-1.482-2.528-3.095-4.034c-0.575-0.536-1.218-1.028-1.862-1.519
		c-1.56-1.191-3.12-2.382-3.974-4.276c-0.854,1.894-2.414,3.085-3.974,4.276c-0.644,0.491-1.287,0.982-1.862,1.519
		c-1.614,1.506-2.575,2.694-3.095,4.034c-0.508,1.308-0.619,2.816-0.527,4.956C22.677,28.442,24.826,28.442,24.826,28.442z
		 M21.289,28.442c0.092-2.139-0.02-3.648-0.527-4.956c-0.52-1.34-1.482-2.528-3.095-4.034c-0.575-0.536-1.218-1.028-1.862-1.519
		c-1.56-1.191-3.12-2.382-3.974-4.276c-0.854,1.894-2.414,3.085-3.974,4.276c-0.644,0.491-1.287,0.982-1.862,1.519
		C4.382,20.958,3.42,22.145,2.9,23.486c-0.507,1.308-0.619,2.816-0.527,4.956h2.15c0.128-0.657,0.343-1.238,0.672-1.807
		c0.44-0.76,1.078-1.485,1.987-2.332c0.429-0.401,0.894-0.755,1.358-1.109c1.425-1.088,2.85-2.176,2.876-4.537
		c0-0.044,0-0.089,0-0.134c0.002-0.226,0.185-0.41,0.412-0.412c0.229-0.002,0.417,0.183,0.418,0.412c0,0.045,0,0.09,0,0.134
		c0.026,2.361,1.451,3.449,2.876,4.537c0.464,0.354,0.929,0.709,1.358,1.109c0.87,0.812,1.492,1.51,1.929,2.233
		c0.363,0.601,0.595,1.211,0.731,1.906H21.289z M5.372,28.442h12.917c-0.12-0.534-0.311-1.01-0.593-1.477
		c-0.394-0.652-0.97-1.296-1.782-2.054c-0.401-0.374-0.848-0.716-1.296-1.057c-1.104-0.843-2.208-1.685-2.787-3.049
		c-0.579,1.364-1.683,2.206-2.787,3.049c-0.448,0.342-0.895,0.683-1.296,1.057c-0.849,0.792-1.439,1.459-1.834,2.14
		C5.66,27.49,5.486,27.94,5.372,28.442z"/>
</g>
</svg>
