<svg height='100px' width='100px'  fill="#000000" xmlns="http://www.w3.org/2000/svg" xmlns:xlink="http://www.w3.org/1999/xlink" version="1.1" x="0px" y="0px" viewBox="0 0 52 52" style="enable-background:new 0 0 52 52;" xml:space="preserve"><style type="text/css">
	.st0{fill:none;stroke:#000000;stroke-linecap:round;stroke-linejoin:round;stroke-miterlimit:10;}
	.st1{fill:none;}
</style><g><g><g><path d="M14.5115013,43.2844238c-6.6230464,0-12.0117188-6.5644531-12.0117188-14.6337891     c0-7.8691406,11.1230469-24.4794922,11.5966797-25.1826172c0.1855469-0.2753906,0.6445313-0.2753906,0.8300781,0     c0.0693359,0.1044922,7.0419922,10.5009766,10.1191406,18.7333984c0.0966797,0.2587891-0.0351563,0.546875-0.2939453,0.6435547     c-0.2568359,0.0966797-0.546875-0.0341797-0.6435547-0.2939453c-2.6025391-6.9638672-8.0527344-15.53125-9.5966797-17.8955078     C12.4587669,7.8010254,3.499783,21.9182129,3.499783,28.6506348c0,7.5175781,4.9394526,13.6337891,11.0117188,13.6337891     c5.4248047,0,10.1083984-5.0048828,10.8945313-11.640625c0.03125-0.2753906,0.2880859-0.4765625,0.5546875-0.4375     c0.2744141,0.0322266,0.4707031,0.2802734,0.4375,0.5546875C25.5525169,37.9006348,20.4421654,43.2844238,14.5115013,43.2844238z     "></path></g><g><path d="M14.5115013,37.2541504c-4.1621094,0-7.5478511-4.1064453-7.5478511-9.1533203     c0-1.1083984,0.3525391-2.5761719,1.0488276-4.3632813c0.1005859-0.2568359,0.3916016-0.3847656,0.6474609-0.2841797     c0.2568359,0.1005859,0.3847656,0.3896484,0.2841797,0.6474609c-0.6503906,1.6708984-0.9804683,3.0166016-0.9804683,4     c0,4.4960938,2.9374995,8.1533203,6.5478511,8.1533203c0.2763672,0,0.5,0.2236328,0.5,0.5     S14.7878685,37.2541504,14.5115013,37.2541504z"></path></g></g><g><g><g><path d="M29.9577904,48.7385254c-0.2763672,0-0.5-0.2236328-0.5-0.5V37.5129395c0-0.2763672,0.2236328-0.5,0.5-0.5      s0.5,0.2236328,0.5,0.5v10.7255859C30.4577904,48.5148926,30.2341576,48.7385254,29.9577904,48.7385254z"></path></g></g><g><g><g><g><path d="M38.8845482,36.5236816c-1.0615234,0-2.0351563-0.3486328-2.7519531-1.0654297l-1.9990234-1.9980469        c-1.7001953-1.7011719-1.3271484-4.8496094,0.8496094-7.1669922c0.1728516-0.1845703,0.3652344-0.3808594,0.5751953-0.5917969        c5.2011719-5.2011719,13.0869141-5.59375,13.4199219-5.6083984c0.1601563-0.0087891,0.2763672,0.0478516,0.375,0.1464844        s0.1523438,0.2353516,0.1464844,0.375c-0.0146484,0.3330078-0.4082031,8.21875-5.6083984,13.4179688        c-0.2089844,0.2099609-0.40625,0.4013672-0.5917969,0.5761719        C41.9577904,35.8684082,40.3396263,36.5236816,38.8845482,36.5236816z M48.4538841,21.138916        c-1.8847656,0.1933594-8.0429688,1.1240234-12.1875,5.2685547c-0.2011719,0.2021484-0.3857422,0.390625-0.5537109,0.5703125        c-1.8056641,1.921875-2.1884766,4.4580078-0.8720703,5.7753906l1.9990234,1.9980469        c1.3173828,1.3164063,3.8525391,0.9345703,5.7753906-0.8710938c0.1767578-0.1669922,0.3662109-0.3505859,0.5683594-0.5537109        C47.3279076,29.1818848,48.2605247,23.0236816,48.4538841,21.138916z"></path></g><g><path d="M29.9577904,38.0129395c-0.0615234,0-0.1230469-0.0107422-0.1835938-0.0351563        c-0.2568359-0.1015625-0.3828125-0.3916016-0.28125-0.6484375c0.6171875-1.5625,2.7148438-2.7900391,4.4726563-3.4189453        c1.4521484-0.5175781,2.7089844-1.21875,3.7363281-2.0820313c1.6494141-1.3876953,3.7255859-3.4833984,4.2460938-5.5820313        c0.0664063-0.2666016,0.3359375-0.4316406,0.6054688-0.3652344c0.2685547,0.0664063,0.4316406,0.3378906,0.3652344,0.6054688        c-0.5849609,2.3603516-2.8095703,4.6240234-4.5732422,6.1074219        c-1.1191406,0.9404297-2.4794922,1.7001953-4.0439453,2.2578125        c-1.5966797,0.5712891-3.4150391,1.6728516-3.8789063,2.8447266        C30.3454857,37.8928223,30.1570091,38.0129395,29.9577904,38.0129395z"></path></g></g><g><g><path d="M24.7341576,31.4777832c-1.0458984,0-2.2041016-0.4677734-3.1611328-1.3671875        c-0.1289063-0.1210938-0.2666016-0.2548828-0.4130859-0.4013672c-3.640625-3.640625-3.9160156-9.1572266-3.9267578-9.3896484        c-0.0058594-0.1396484,0.0478516-0.2763672,0.1464844-0.375s0.2373047-0.1552734,0.375-0.1464844        c0.2324219,0.0107422,5.7490234,0.2861328,9.3896484,3.9267578c0.1464844,0.1464844,0.2792969,0.2832031,0.4013672,0.4121094        c1.5654297,1.6660156,1.8212891,3.9394531,0.5849609,5.1757813l-1.3828125,1.3828125        C26.2214622,31.2219238,25.5085716,31.4777832,24.7341576,31.4777832z M18.2849388,20.8498535        c0.171875,1.46875,0.8740234,5.4443359,3.5820313,8.1523438c0.1386719,0.1386719,0.2685547,0.2646484,0.390625,0.3798828        c1.2470703,1.171875,2.9453125,1.4443359,3.7832031,0.6064453l1.3828125-1.3828125        c0.8378906-0.8378906,0.5664063-2.5351563-0.6054688-3.7822266c-0.1152344-0.1220703-0.2421875-0.2529297-0.3808594-0.3916016        C23.7234154,21.7180176,19.7536888,21.0197754,18.2849388,20.8498535z"></path></g></g><g><path d="M29.9587669,38.0129395c-0.0458984,0-0.0917969-0.0068359-0.1367188-0.0195313       c-0.265625-0.0751953-0.4199219-0.3515625-0.3457031-0.6171875c0.0566406-0.1992188,1.2871094-4.7587891-2.5224609-7.2431641       c-0.046875-0.0126953-0.0927734-0.0332031-0.1357422-0.0605469c-0.1757813-0.1113281-4.3076172-2.7626953-5.0253906-5.6582031       c-0.0664063-0.2675781,0.0966797-0.5390625,0.3652344-0.6054688s0.5390625,0.0976563,0.6054688,0.3652344       c0.5166016,2.0839844,3.3193359,4.1787109,4.2734375,4.8408203c4.9970703,2.8066406,3.4179688,8.5771484,3.4013672,8.6347656       C30.3757591,37.8693848,30.1755638,38.0129395,29.9587669,38.0129395z"></path></g></g></g></g></g></svg>