<svg height='100px' width='100px'  fill="#000000" xmlns="http://www.w3.org/2000/svg" xmlns:xlink="http://www.w3.org/1999/xlink" xml:space="preserve" style="shape-rendering:geometricPrecision;text-rendering:geometricPrecision;image-rendering:optimizeQuality;" viewBox="0 0 23.5836 16.3303" x="0px" y="0px" fill-rule="evenodd" clip-rule="evenodd"><defs><style type="text/css">
   
    .fil0 {fill:#000000}
   
  </style></defs><g><path class="fil0" d="M20.7973 12.1444c0.7355,0.003 1.8129,0.548 2.7864,1.5476 -0.9713,-0.2759 -1.9655,-0.2618 -2.5932,-0.016 -0.5524,-0.134 -0.5158,-0.2533 -1.7961,0.6942 -0.5504,-1.8835 0.952,-2.182 0.9504,-2.1816 -2.9592,-6.5458 -7.0192,-6.1664 -12.8336,-7.0085 0.3859,0.3413 -0.0965,0.8933 1.7772,1.7086 -1.371,0.1508 -2.4599,0.2661 -3.5013,-2.0011 -1.3799,-0.2046 -5.2641,0.2695 -5.5059,0.0736 -0.4476,-0.3626 1.0874,-0.7391 1.4485,-1.7886 0.8291,-2.4095 6.7544,-4.0982 9.5122,-2.6172 1.048,0.5629 3.8942,-0.2193 4.9531,0.4582 0.1425,0.0912 -1.8049,0.3909 -1.2401,1.1279 1.2703,1.6574 6.7538,7.5342 6.0424,10.0029zm-18.2637 -9.0942c-0.6863,-0.1212 -0.6727,0.6575 0.008,0.0621 0.0554,-0.0485 0.0426,-0.0531 -0.008,-0.0621z"></path><path class="fil0" d="M18.4723 14.9891c0.4432,0.0019 1.0925,0.3303 1.6791,0.9326 -0.5853,-0.1663 -1.1844,-0.1578 -1.5626,-0.0096 -0.3329,-0.0808 -0.3108,-0.1527 -1.0823,0.4182 -0.3317,-1.1349 0.5736,-1.3148 0.5727,-1.3145 -1.7832,-3.9444 -4.2297,-3.7158 -7.7334,-4.2233 0.2326,0.2057 -0.0581,0.5383 1.071,1.0296 -0.8262,0.0909 -1.4823,0.1604 -2.1099,-1.2058 -0.8315,-0.1233 -3.1721,0.1624 -3.3178,0.0443 -0.2697,-0.2185 0.6553,-0.4453 0.8729,-1.0777 0.4996,-1.452 4.0701,-2.4696 5.7319,-1.5771 0.6315,0.3392 2.3466,-0.1322 2.9847,0.2761 0.0858,0.055 -1.0876,0.2355 -0.7473,0.6796 0.7655,0.9988 4.0698,4.5401 3.641,6.0276zm-11.0054 -5.48c-0.4135,-0.073 -0.4053,0.3962 0.0049,0.0374 0.0333,-0.0292 0.0256,-0.032 -0.0049,-0.0374z"></path></g></svg>