<svg height='100px' width='100px'  fill="#000000" xmlns="http://www.w3.org/2000/svg" xmlns:xlink="http://www.w3.org/1999/xlink" version="1.1" x="0px" y="0px" viewBox="0 0 100 100" enable-background="new 0 0 100 100" xml:space="preserve"><path fill-rule="evenodd" clip-rule="evenodd" d="M53.05,15.2l-7.9,7.75c-0.232,0.267-0.533,0.4-0.899,0.4  c-0.333,0-0.617-0.134-0.851-0.4c-0.232-0.233-0.35-0.533-0.35-0.9c0-0.333,0.117-0.617,0.35-0.85l5.801-5.7  c-9.2,0.167-17.084,3.517-23.65,10.05c-6.733,6.8-10.1,14.95-10.1,24.45c0,9.533,3.366,17.683,10.1,24.45  c2.4,2.4,4.9,4.317,7.5,5.75c0.3,0.167,0.5,0.417,0.6,0.75c0.067,0.333,0.018,0.65-0.149,0.95c-0.2,0.4-0.566,0.6-1.101,0.6  c-0.199,0-0.399-0.05-0.6-0.15c-2.8-1.6-5.467-3.65-8-6.15C16.566,68.966,12.95,60.233,12.95,50c0-10.233,3.616-18.967,10.85-26.2  c7-7.033,15.483-10.633,25.45-10.8l-5.851-5.9c-0.232-0.233-0.35-0.517-0.35-0.85s0.117-0.633,0.35-0.9  C43.667,5.117,43.967,5,44.3,5s0.617,0.117,0.85,0.35l7.95,8c0.467,0.4,0.55,0.883,0.25,1.45l-0.05,0.05  c-0.1,0.167-0.167,0.267-0.2,0.3v0.05H53.05z M66.5,18.1c0.167-0.3,0.417-0.5,0.75-0.6c0.333-0.067,0.649-0.017,0.95,0.15  c2.8,1.566,5.467,3.617,8,6.15c7.233,7.267,10.85,16,10.85,26.2c0,10.2-3.616,18.933-10.85,26.2  C69.167,83.267,60.684,86.867,50.75,87l5.85,5.9c0.267,0.267,0.4,0.566,0.4,0.9s-0.134,0.617-0.4,0.85  C56.366,94.883,56.083,95,55.75,95c-0.367,0-0.667-0.117-0.9-0.35l-8-8c-0.467-0.4-0.55-0.883-0.25-1.45l0.05-0.05l0.25-0.4  l7.95-7.7c0.267-0.233,0.567-0.35,0.9-0.35s0.616,0.117,0.85,0.35c0.267,0.267,0.4,0.567,0.4,0.9c0,0.333-0.134,0.6-0.4,0.8  l-5.85,5.75c9.233-0.133,17.133-3.483,23.7-10.05c6.733-6.833,10.1-14.983,10.1-24.45c0-9.467-3.366-17.617-10.1-24.45  c-2.4-2.4-4.9-4.333-7.5-5.8c-0.301-0.167-0.5-0.417-0.601-0.75C66.283,18.7,66.333,18.4,66.5,18.1z M50.05,34.4  c-1.6,4.7-4.233,9.383-7.9,14.05c-1.232,1.567-2.166,3.15-2.8,4.75c-1.533,3.833-1.05,7.684,1.45,11.55c0.6,1,1.35,1.816,2.25,2.45  c1.566,1.233,3.483,1.917,5.75,2.05h0.7c4.667-0.2,7.934-1.7,9.8-4.5c3.367-5.367,2.9-10.8-1.4-16.3  C54.3,43.85,51.684,39.167,50.05,34.4z M59.8,46.9c5.1,6.434,5.634,12.833,1.6,19.2h-0.05c-2.333,3.6-6.283,5.466-11.85,5.6  l-0.101,0.05H48.75c-2.833-0.2-5.233-1.05-7.2-2.55c-1.066-0.8-2.017-1.833-2.85-3.1c-2.934-4.534-3.5-9.134-1.7-13.8  c0.733-1.867,1.8-3.667,3.2-5.4c4.566-5.767,7.433-11.617,8.6-17.55c0.1-0.634,0.5-0.983,1.2-1.05h0.05c0.267,0,0.517,0.1,0.75,0.3  c0.267,0.2,0.417,0.45,0.45,0.75C52.417,35.216,55.267,41.066,59.8,46.9z M80,48.85c0.366,0,0.667,0.116,0.899,0.35  c0.233,0.267,0.334,0.567,0.301,0.9c-0.233,8.633-3.45,16.033-9.65,22.2c-0.866,0.867-1.65,1.583-2.35,2.15  c-0.2,0.2-0.45,0.3-0.75,0.3c-0.4,0-0.733-0.167-1-0.5c-0.233-0.233-0.317-0.534-0.25-0.9c0.033-0.333,0.183-0.617,0.449-0.85  l2.15-1.95c5.667-5.7,8.65-12.533,8.95-20.5c0-0.367,0.133-0.667,0.399-0.9C79.383,48.917,79.667,48.816,80,48.85z M79.899,40.5  c0.301,0.167,0.483,0.417,0.551,0.75l0.399,2.3c0.067,0.367,0,0.683-0.2,0.95c-0.199,0.267-0.482,0.417-0.85,0.45L79.6,45  c-0.3,0-0.566-0.1-0.8-0.3c-0.233-0.233-0.366-0.5-0.4-0.8L78,41.8c-0.066-0.333-0.017-0.65,0.149-0.95  c0.2-0.3,0.467-0.483,0.801-0.55C79.283,40.233,79.6,40.3,79.899,40.5z M28.45,27.7c0.866-0.866,1.649-1.583,2.35-2.15  c0.267-0.233,0.566-0.317,0.9-0.25c0.333,0.034,0.616,0.183,0.85,0.45c0.233,0.267,0.333,0.566,0.3,0.9  c-0.066,0.333-0.233,0.617-0.5,0.85L30.2,29.45c-5.667,5.7-8.65,12.517-8.95,20.45c0,0.333-0.117,0.633-0.351,0.9  c-0.232,0.233-0.517,0.35-0.85,0.35H20c-0.333-0.033-0.634-0.167-0.9-0.4c-0.233-0.267-0.333-0.567-0.3-0.9  C19.066,41.25,22.283,33.867,28.45,27.7z M41,53.6c0.3-0.2,0.616-0.267,0.95-0.2c0.333,0.066,0.6,0.25,0.8,0.55  c0.167,0.3,0.217,0.617,0.149,0.95c-0.699,3.333,0.233,6.2,2.801,8.6c0.233,0.233,0.366,0.533,0.399,0.9  c0,0.333-0.116,0.633-0.35,0.9c-0.267,0.267-0.583,0.4-0.95,0.4c-0.267,0-0.55-0.116-0.85-0.35c-3.233-3.134-4.4-6.8-3.5-11  C40.517,54.017,40.7,53.767,41,53.6z M21.6,56.1l0.351,2.15c0.066,0.367,0,0.683-0.2,0.95c-0.167,0.3-0.434,0.467-0.8,0.5  l-0.25,0.05c-0.267,0-0.517-0.1-0.75-0.3c-0.233-0.2-0.384-0.45-0.45-0.75l-0.351-2.25c-0.033-0.333,0.051-0.633,0.25-0.9  c0.2-0.267,0.467-0.433,0.801-0.5c0.366-0.033,0.683,0.05,0.949,0.25C21.417,55.5,21.566,55.767,21.6,56.1z"></path></svg>