<svg height='100px' width='100px'  fill="#000000" xmlns="http://www.w3.org/2000/svg" xmlns:xlink="http://www.w3.org/1999/xlink" version="1.1" x="0px" y="0px" viewBox="0 0 66 66" style="enable-background:new 0 0 66 66;" xml:space="preserve"><g><path d="M64.3,29.7l-6.6-2.3c-0.6-2.8-1.7-5.5-3.3-8l3-6.2c0.2-0.4,0.1-0.8-0.2-1.1L54,8.7   c-0.3-0.3-0.8-0.4-1.1-0.2l-6.2,3c-2.5-1.6-5.2-2.7-8-3.3l-2.3-6.6C36.1,1.3,35.8,1,35.3,1h-4.7c-0.4,0-0.8,0.3-0.9,0.7l-2.3,6.6   c-2.8,0.6-5.5,1.7-8,3.3l-6.2-3c-0.4-0.2-0.8-0.1-1.1,0.2L8.7,12c-0.3,0.3-0.4,0.8-0.2,1.1l3,6.2c-1.6,2.5-2.7,5.2-3.3,8l-6.6,2.3   C1.3,29.9,1,30.2,1,30.7v4.7c0,0.4,0.3,0.8,0.7,0.9l6.6,2.3c0.6,2.8,1.7,5.5,3.3,8l-3,6.2c-0.2,0.4-0.1,0.8,0.2,1.1l3.3,3.3   c0.3,0.3,0.8,0.4,1.1,0.2l6.2-3c2.5,1.6,5.2,2.7,8,3.3l2.3,6.6c0.1,0.4,0.5,0.7,0.9,0.7h4.7c0.4,0,0.8-0.3,0.9-0.7l2.3-6.6   c2.8-0.6,5.5-1.7,8-3.3l6.2,3c0.4,0.2,0.8,0.1,1.1-0.2l3.3-3.3c0.3-0.3,0.4-0.8,0.2-1.1l-3-6.2c1.6-2.5,2.7-5.2,3.3-8l6.6-2.3   c0.4-0.1,0.7-0.5,0.7-0.9v-4.7C65,30.2,64.7,29.9,64.3,29.7z M63,34.6l-6.5,2.2c-0.3,0.1-0.6,0.4-0.7,0.8c-0.6,3-1.7,5.8-3.4,8.4   c-0.2,0.3-0.2,0.7-0.1,1l3,6.1l-2.3,2.3l-6.1-3c-0.3-0.2-0.7-0.1-1,0.1c-2.6,1.7-5.4,2.9-8.4,3.4c-0.3,0.1-0.6,0.3-0.8,0.7L34.6,63   h-3.2l-2.2-6.5c-0.1-0.3-0.4-0.6-0.8-0.7c-3-0.6-5.8-1.7-8.4-3.4c-0.3-0.2-0.7-0.2-1-0.1l-6.1,3l-2.3-2.3l3-6.1   c0.2-0.3,0.1-0.7-0.1-1c-1.7-2.6-2.9-5.4-3.4-8.4C10,37.3,9.8,37,9.5,36.9L3,34.6v-3.2l6.5-2.2c0.3-0.1,0.6-0.4,0.7-0.8   c0.6-3,1.7-5.8,3.4-8.4c0.2-0.3,0.2-0.7,0.1-1l-3-6.1l2.3-2.3l6.1,3c0.3,0.2,0.7,0.1,1-0.1c2.6-1.7,5.4-2.9,8.4-3.4   c0.3-0.1,0.6-0.3,0.8-0.7L31.4,3h3.2l2.2,6.5c0.1,0.3,0.4,0.6,0.8,0.7c3,0.6,5.8,1.7,8.4,3.4c0.3,0.2,0.7,0.2,1,0.1l6.1-3l2.3,2.3   l-3,6.1c-0.2,0.3-0.1,0.7,0.1,1c1.7,2.6,2.9,5.4,3.4,8.4c0.1,0.3,0.3,0.6,0.7,0.8l6.5,2.2V34.6z"></path><path d="M33,16.9c-8.9,0-16.1,7.2-16.1,16.1S24.1,49.1,33,49.1c8.9,0,16.1-7.2,16.1-16.1S41.9,16.9,33,16.9z    M33,47.1c-7.8,0-14.1-6.3-14.1-14.1S25.2,18.9,33,18.9S47.1,25.2,47.1,33S40.8,47.1,33,47.1z"></path><path d="M34.6,25.5c-0.5-0.1-1.1,0.2-1.2,0.8l-2.9,13.1c-0.1,0.5,0.2,1.1,0.8,1.2c0.5,0.1,1.1-0.2,1.2-0.8   l2.9-13.1C35.5,26.1,35.2,25.6,34.6,25.5z"></path><path d="M37.1,29.8c-0.3,0.5-0.1,1.1,0.4,1.4l3.2,1.8l-3.2,1.8c-0.5,0.3-0.6,0.9-0.4,1.4c0.3,0.5,0.9,0.6,1.4,0.4   l4.7-2.7c0.3-0.2,0.5-0.5,0.5-0.9s-0.2-0.7-0.5-0.9l-4.7-2.6C38,29.2,37.4,29.4,37.1,29.8z"></path><path d="M28.9,29.8c-0.3-0.5-0.9-0.7-1.4-0.4l-4.7,2.6c-0.3,0.2-0.5,0.5-0.5,0.9s0.2,0.7,0.5,0.9l4.7,2.7   c0.5,0.3,1.1,0.1,1.4-0.4c0.3-0.5,0.1-1.1-0.4-1.4L25.3,33l3.2-1.8C29,30.9,29.2,30.3,28.9,29.8z"></path></g></svg>