<svg height='100px' width='100px'  fill="#000000" xmlns="http://www.w3.org/2000/svg" xmlns:xlink="http://www.w3.org/1999/xlink" version="1.1" x="0px" y="0px" viewBox="0 0 100 100" enable-background="new 0 0 100 100" xml:space="preserve"><g><path d="M94.207,27.514c-0.048-0.062-1.209-1.524-2.759-3.074c-1.521-1.521-3.22-2.929-3.29-2.988l-2.342-1.937V13.17l-3.765,0.094   c-0.338,0.008-8.368,0.233-16.57,2.677c-7.85,2.338-14.67,6.357-15.481,6.844c-0.812-0.487-7.632-4.505-15.481-6.844   c-8.202-2.444-16.232-2.669-16.57-2.677l-3.765-0.094v6.346l-2.342,1.937c-0.07,0.059-1.77,1.467-3.29,2.988   c-1.55,1.549-2.711,3.012-2.759,3.074L5,28.516v48.869l11.584,1.022c0.069,0.007,7.098,0.754,17.911,4.478   c0.535,0.184,1.069,0.375,1.602,0.572c0,0,6.57,2.543,13.903,2.543s13.903-2.543,13.903-2.543c0.532-0.197,1.066-0.389,1.601-0.572   c10.814-3.724,17.843-4.471,17.867-4.473L95,77.385V28.516L94.207,27.514z M51.837,25.967c0,0,6.866-4.173,14.693-6.505   c7.828-2.332,15.612-2.525,15.612-2.525v47.755c0,0-8.112,0.688-21.122,5.167c-3.473,1.195-6.548,2.512-9.186,3.794L51.837,25.967z    M17.857,16.936c0,0,7.784,0.193,15.612,2.525c7.827,2.332,14.693,6.505,14.693,6.505l0.002,47.686   c-2.638-1.282-5.713-2.599-9.186-3.794c-13.01-4.479-21.122-5.167-21.122-5.167V16.936z M39.956,81.029   c-1.401-0.582-2.826-1.123-4.265-1.618c-11.377-3.917-18.668-4.651-18.74-4.658l-8.277-0.731V29.793c0,0,1.059-1.339,2.475-2.755   s3.035-2.755,3.035-2.755v40.409l0.006,3.363l3.352,0.296c0.077,0.007,7.905,0.734,20.242,4.981   c2.875,0.989,5.703,2.15,8.411,3.448c-2.657,1.642-4.878,3.234-6.235,4.25L39.956,81.029z M50,83.087   c-4.248,0-6.251-0.349-6.251-0.349s3.06-2.058,6.251-3.917c3.192,1.859,6.252,3.917,6.252,3.917S54.248,83.087,50,83.087z    M91.326,74.021l-8.277,0.731c-0.072,0.007-7.363,0.741-18.74,4.658c-1.438,0.495-2.863,1.036-4.265,1.618l-0.003,0.001   c-1.357-1.016-3.578-2.608-6.235-4.25c2.708-1.298,5.536-2.459,8.411-3.448c12.337-4.247,20.165-4.975,20.242-4.981l3.352-0.296   l0.006-3.363V24.283c0,0,1.619,1.339,3.035,2.755s2.475,2.755,2.475,2.755V74.021z"></path></g></svg>