<svg height='100px' width='100px'  fill="#000000" xmlns="http://www.w3.org/2000/svg" xmlns:xlink="http://www.w3.org/1999/xlink" version="1.1" x="0px" y="0px" viewBox="0 0 100 100" enable-background="new 0 0 100 100" xml:space="preserve"><path d="M76.438,49.37l4.815,8.339c-0.56,0.361-1.129,0.708-1.716,1.029l-4.815-8.339C75.314,50.086,75.888,49.745,76.438,49.37z   M67.358,16.698V7.047c-0.333-0.012-0.665-0.025-1-0.025s-0.667,0.013-1,0.025v9.651c0.333-0.018,0.663-0.05,1-0.05  C66.696,16.647,67.025,16.679,67.358,16.698z M80.959,11.226c-0.564-0.354-1.141-0.689-1.731-1.003l-4.821,8.35  c0.598,0.302,1.179,0.629,1.736,0.993L80.959,11.226z M90.647,21.594c-0.316-0.589-0.656-1.163-1.012-1.725l-8.338,4.814  c0.368,0.555,0.697,1.135,1.002,1.731L90.647,21.594z M93.87,33.388h-9.655c0.025,0.39,0.059,0.778,0.059,1.174  c0,0.279-0.029,0.55-0.042,0.826h9.647c0.008-0.275,0.021-0.549,0.021-0.826C93.899,34.168,93.886,33.778,93.87,33.388z   M81.478,44.144l8.345,4.818c0.349-0.567,0.675-1.149,0.983-1.742l-8.355-4.823C82.157,42.999,81.834,43.582,81.478,44.144z   M51.33,24.831l-8.342-4.816c-0.353,0.565-0.685,1.143-0.997,1.734l8.351,4.821C50.642,25.971,50.968,25.389,51.33,24.831z   M58.267,18.594l-4.82-8.349c-0.59,0.314-1.165,0.652-1.729,1.007l4.815,8.339C57.089,19.225,57.67,18.897,58.267,18.594z   M48.503,35.736c-0.025-0.39-0.059-0.778-0.059-1.174c0-0.279,0.029-0.55,0.042-0.826h-9.647c-0.008,0.275-0.021,0.549-0.021,0.826  c0,0.394,0.013,0.784,0.03,1.174H48.503z M51.398,78.156v12.823h9.807v2H39.663v-2h9.735V78.156H27.707l-21.606-39h47.042  c-0.513-1.464-0.785-3.002-0.785-4.596c0-7.722,6.282-14.004,14.004-14.004c7.722,0,14.004,6.282,14.004,14.004  c0,6.569-4.489,12.151-10.793,13.62l16.607,29.975H51.398z M45.124,41.156H27.703l9.141,16.5h17.421L45.124,41.156z M56.551,57.656  h15.985l-9.141-16.5H47.41L56.551,57.656z M37.953,59.656l9.141,16.5h17.42l-9.141-16.5H37.953z M82.785,76.156l-9.141-16.5H57.659  l9.141,16.5H82.785z M55.283,39.156h9.29l3.987,7.198c5.693-1.05,9.805-5.971,9.805-11.793c0-6.619-5.385-12.004-12.004-12.004  S54.357,27.941,54.357,34.56C54.357,36.169,54.675,37.711,55.283,39.156z M9.495,41.156l9.141,16.5h15.923l-9.141-16.5H9.495z   M28.885,76.156h15.923l-9.141-16.5H19.744L28.885,76.156z M27.676,92.979h8.142v-2h-8.142V92.979z"></path></svg>