<svg height='100px' width='100px'  fill="#000000" xmlns="http://www.w3.org/2000/svg" xmlns:xlink="http://www.w3.org/1999/xlink" xml:space="preserve" version="1.1" style="shape-rendering:geometricPrecision;text-rendering:geometricPrecision;image-rendering:optimizeQuality;" viewBox="0 0 200 227" x="0px" y="0px" fill-rule="evenodd" clip-rule="evenodd"><defs><style type="text/css">
   
    .fil0 {fill:#000000}
   
  </style></defs><g><path class="fil0" d="M145 180c27,-16 36,-37 30,-61 13,-1 20,-10 24,-20 -6,-23 -19,-35 -39,-41 -4,-26 -18,-44 -38,-58 -5,24 -4,46 13,64l-7 3c-20,-14 -43,-13 -67,-7 16,17 35,26 60,25 3,7 1,13 -4,16 -73,-19 -116,-1 -114,88 -9,22 -1,35 23,26 8,-3 16,0 24,6l69 3c1,-14 -8,-19 -30,-17 10,-2 23,-6 30,-12 1,11 3,22 12,32l18 0c3,-6 0,-11 -9,-13l4 -33zm25 -106c4,0 6,3 6,7 0,4 -3,6 -7,6 -4,0 -6,-3 -6,-7 0,-4 3,-6 7,-6z"></path></g></svg>