<svg height='100px' width='100px'  fill="#000000" xmlns:dc="http://purl.org/dc/elements/1.1/" xmlns:cc="http://creativecommons.org/ns#" xmlns:rdf="http://www.w3.org/1999/02/22-rdf-syntax-ns#" xmlns:svg="http://www.w3.org/2000/svg" xmlns="http://www.w3.org/2000/svg" xmlns:sodipodi="http://sodipodi.sourceforge.net/DTD/sodipodi-0.dtd" xmlns:inkscape="http://www.inkscape.org/namespaces/inkscape" version="1.1" x="0px" y="0px" viewBox="0 0 100 100"><g transform="translate(0,-952.36218)"><path style="font-size:medium;font-style:normal;font-variant:normal;font-weight:normal;font-stretch:normal;text-indent:0;text-align:start;text-decoration:none;line-height:normal;letter-spacing:normal;word-spacing:normal;text-transform:none;direction:ltr;block-progression:tb;writing-mode:lr-tb;text-anchor:start;baseline-shift:baseline;opacity:1;color:#000000;fill:#000000;fill-opacity:1;stroke:none;stroke-width:6;marker:none;visibility:visible;display:inline;overflow:visible;enable-background:accumulate;font-family:Sans;-inkscape-font-specification:Sans" d="M 19.03125 11.9375 A 3.0003 3.0003 0 0 0 16.3125 16.34375 L 25.15625 34 L 8 34 L 8 40 L 92 40 L 92 34 L 74.84375 34 L 83.6875 16.34375 A 3.0003 3.0003 0 0 0 80.875 11.9375 A 3.0003 3.0003 0 0 0 78.3125 13.65625 L 68.125 34 L 31.875 34 L 21.6875 13.65625 A 3.0003 3.0003 0 0 0 19.03125 11.9375 z M 88.65625 42.71875 A 3.0003 3.0003 0 0 0 86 45 L 72.90625 82 L 27.09375 82 L 14 45 A 3.0003 3.0003 0 0 0 11 42.96875 A 3.0003 3.0003 0 0 0 8.375 47 L 22.1875 86 A 3.0003 3.0003 0 0 0 25 88 L 75 88 A 3.0003 3.0003 0 0 0 77.8125 86 L 91.625 47 A 3.0003 3.0003 0 0 0 88.65625 42.71875 z M 26.90625 46.9375 A 3.0003 3.0003 0 0 0 24.15625 50.90625 L 31.15625 72.90625 A 3.0003 3.0003 0 1 0 36.84375 71.0625 L 29.84375 49.0625 A 3.0003 3.0003 0 0 0 26.90625 46.9375 z M 49.96875 46.9375 A 3.0003 3.0003 0 0 0 47 50 L 47 72 A 3.0003 3.0003 0 1 0 53 72 L 53 50 A 3.0003 3.0003 0 0 0 49.96875 46.9375 z M 73 46.9375 A 3.0003 3.0003 0 0 0 70.15625 49.0625 L 63.15625 71.0625 A 3.0003 3.0003 0 1 0 68.84375 72.90625 L 75.84375 50.90625 A 3.0003 3.0003 0 0 0 73 46.9375 z " transform="translate(0,952.36218)"></path></g></svg>