<svg height='100px' width='100px'  fill="#000000" xmlns="http://www.w3.org/2000/svg" xmlns:xlink="http://www.w3.org/1999/xlink" version="1.1" x="0px" y="0px" viewBox="0 0 512 512" style="enable-background:new 0 0 512 512;" xml:space="preserve"><g><g><path d="M181.318,433.736c0.033-17.859,0.057-30.764-9.34-40.162c-3.177-3.176-7.399-4.998-11.582-4.998    c-3.465,0-6.633,1.26-8.922,3.549c-3.894,3.895-5.125,7.834-1.043,18.559c0.653,1.715,0.238,3.654-1.06,4.951    c-1.297,1.299-3.236,1.715-4.953,1.061c-4.568-1.738-7.935-2.547-10.596-2.547c-3.064,0-5.446,1.074-7.963,3.59    c-5.245,5.244-4.587,14.436,1.465,20.49c8.705,8.703,20.453,9.354,37.383,9.354l5.715-0.004c3.497,0,7.191,0.02,11.025,0.135    C181.301,442.854,181.309,438.238,181.318,433.736z"></path><path d="M135.012,175.193c1.784,0.12,3.574,0.191,5.369,0.191c18.875,0,36.731-6.572,50.988-18.608    c1.725-1.456,3.408-2.976,5.022-4.591c21.042-21.042,28.499-51.746,19.458-80.126c-0.252-0.791-0.521-1.58-0.8-2.367    c-0.09-0.254-0.187-0.508-0.28-0.761c-0.196-0.535-0.395-1.069-0.604-1.601c-0.116-0.297-0.236-0.592-0.356-0.888    c-0.199-0.491-0.402-0.98-0.611-1.467c-0.131-0.304-0.262-0.608-0.396-0.911c-0.082-0.186-0.169-0.37-0.253-0.554    c-10.175-4.592-21.423-7.012-32.64-7.012c-21.157,0-41.047,8.238-56.006,23.198c-23.304,23.303-29.708,58.728-16.187,88.646    c0.188,0.085,0.374,0.174,0.563,0.257c0.297,0.132,0.595,0.261,0.894,0.389c0.495,0.212,0.993,0.419,1.492,0.622    c0.289,0.117,0.577,0.234,0.866,0.348c0.54,0.211,1.082,0.414,1.625,0.612c0.247,0.09,0.493,0.185,0.74,0.272    c0.788,0.28,1.578,0.549,2.369,0.801C122.354,173.582,128.64,174.764,135.012,175.193z"></path><path d="M155.805,211.182c7.794,2.482,15.908,3.742,24.116,3.742c21.158,0,41.05-8.239,56.01-23.2    c21.043-21.042,28.499-51.745,19.459-80.126c-3.86-12.117-10.407-22.851-19.459-31.902c-3.334-3.334-6.927-6.345-10.751-9.012    c0.077,0.258,0.143,0.517,0.218,0.775c0.141,0.485,0.278,0.97,0.411,1.456c0.137,0.503,0.268,1.006,0.396,1.51    c0.124,0.487,0.244,0.975,0.359,1.463c0.119,0.505,0.233,1.011,0.343,1.517c0.106,0.488,0.209,0.976,0.307,1.465    c0.102,0.507,0.197,1.014,0.29,1.521c0.089,0.49,0.176,0.979,0.257,1.47c0.083,0.507,0.161,1.014,0.236,1.521    c0.072,0.491,0.142,0.982,0.207,1.474c0.066,0.507,0.125,1.015,0.182,1.523c0.056,0.491,0.109,0.983,0.156,1.475    c0.049,0.507,0.09,1.015,0.13,1.522c0.039,0.492,0.076,0.983,0.106,1.475c0.031,0.508,0.055,1.015,0.077,1.522    c0.022,0.491,0.043,0.982,0.057,1.473c0.014,0.507,0.02,1.013,0.025,1.52c0.005,0.49,0.009,0.98,0.006,1.47    c-0.003,0.507-0.015,1.013-0.026,1.519c-0.011,0.488-0.023,0.977-0.042,1.464c-0.021,0.506-0.049,1.011-0.078,1.517    c-0.028,0.486-0.056,0.972-0.091,1.457c-0.038,0.504-0.084,1.007-0.13,1.511c-0.044,0.484-0.087,0.968-0.14,1.451    c-0.054,0.503-0.118,1.004-0.181,1.506c-0.061,0.48-0.12,0.961-0.188,1.44c-0.071,0.501-0.152,1.001-0.231,1.501    c-0.077,0.477-0.151,0.953-0.235,1.428c-0.088,0.5-0.186,0.997-0.283,1.495c-0.092,0.473-0.182,0.945-0.282,1.416    c-0.104,0.496-0.22,0.99-0.333,1.484c-0.108,0.469-0.213,0.939-0.329,1.407c-0.122,0.492-0.254,0.982-0.384,1.473    c-0.124,0.464-0.245,0.93-0.375,1.392c-0.139,0.489-0.288,0.974-0.435,1.46c-0.139,0.461-0.275,0.922-0.422,1.381    c-0.155,0.484-0.321,0.965-0.484,1.447c-0.154,0.455-0.305,0.91-0.467,1.362c-0.172,0.481-0.355,0.958-0.536,1.438    c-0.169,0.448-0.334,0.897-0.511,1.343c-0.189,0.477-0.39,0.949-0.587,1.423c-0.184,0.441-0.364,0.884-0.555,1.322    c-0.206,0.472-0.422,0.938-0.636,1.406c-0.2,0.435-0.394,0.873-0.6,1.305c-0.222,0.466-0.456,0.927-0.687,1.389    c-0.213,0.428-0.422,0.857-0.642,1.283c-0.238,0.459-0.49,0.914-0.736,1.37c-0.229,0.421-0.451,0.845-0.686,1.262    c-0.256,0.454-0.524,0.902-0.788,1.353c-0.241,0.412-0.478,0.826-0.726,1.234c-0.275,0.452-0.563,0.897-0.846,1.344    c-0.253,0.399-0.5,0.801-0.76,1.197c-0.294,0.448-0.601,0.889-0.904,1.333c-0.264,0.387-0.522,0.778-0.793,1.162    c-0.315,0.446-0.644,0.885-0.967,1.326c-0.274,0.372-0.54,0.749-0.82,1.117c-0.344,0.455-0.704,0.901-1.058,1.35    c-0.273,0.347-0.54,0.697-0.818,1.04c-0.38,0.467-0.774,0.924-1.164,1.385c-0.269,0.317-0.53,0.639-0.804,0.953    c-0.447,0.513-0.911,1.016-1.371,1.521c-0.229,0.25-0.451,0.507-0.683,0.755c-0.7,0.75-1.415,1.491-2.144,2.22    c-0.522,0.522-1.05,1.037-1.584,1.545c-1.917,1.826-3.906,3.552-5.954,5.184c-0.393,0.313-0.787,0.623-1.183,0.929    c-3.11,2.394-6.356,4.566-9.721,6.509c-0.319,0.185-0.639,0.369-0.961,0.549c-1.583,0.888-3.19,1.723-4.821,2.508    c-0.316,0.152-0.632,0.304-0.95,0.452c-0.97,0.453-1.949,0.886-2.935,1.304c-10.769,4.555-22.445,6.949-34.49,6.949    c-0.001,0-0.001,0-0.002,0c-1.115,0-2.229-0.023-3.34-0.064c-0.372-0.014-0.741-0.042-1.112-0.061    c-0.74-0.037-1.479-0.072-2.217-0.128c-0.443-0.033-0.884-0.081-1.327-0.121c-0.663-0.06-1.327-0.117-1.988-0.191    c-0.47-0.053-0.939-0.12-1.408-0.18c-0.63-0.082-1.262-0.161-1.891-0.256c-0.482-0.073-0.962-0.157-1.443-0.238    c-0.613-0.103-1.225-0.205-1.835-0.321c-0.489-0.093-0.976-0.196-1.463-0.297c-0.598-0.124-1.197-0.25-1.792-0.386    c-0.491-0.112-0.979-0.233-1.467-0.353c-0.59-0.146-1.179-0.294-1.767-0.453c-0.488-0.131-0.975-0.269-1.46-0.409    c-0.326-0.094-0.655-0.177-0.98-0.274c2.667,3.825,5.678,7.418,9.012,10.752C132.955,200.776,143.688,207.322,155.805,211.182z"></path><path d="M147.085,310.291c-2.58-0.98-4.433-1.439-5.832-1.439c-1.153,0-2.205,0.283-3.585,1.664    c-1.142,1.143-1.718,2.756-1.621,4.543c0.107,1.979,1,3.902,2.516,5.418c4.826,4.824,11.671,5.186,21.562,5.186l3.5-0.002    c1.565,0,3.196,0.006,4.877,0.037c-0.042-2.301-0.038-4.518-0.034-6.689c0.02-10.479,0.034-18.049-5.178-23.26    c-1.604-1.604-3.717-2.523-5.797-2.523c-1.155,0-2.817,0.283-4.171,1.637c-1.716,1.717-2.588,3.207-0.225,9.418    c0.652,1.715,0.237,3.654-1.061,4.951C150.74,310.529,148.798,310.945,147.085,310.291z"></path><path d="M230.199,350.764c-1.399,0-3.252,0.457-5.832,1.438c-1.716,0.654-3.654,0.238-4.952-1.061    c-1.297-1.297-1.712-3.236-1.06-4.951c2.363-6.209,1.491-7.699-0.226-9.416c-1.348-1.35-3.005-1.631-4.158-1.631    c-2.081,0-4.195,0.92-5.801,2.527c-5.214,5.215-5.202,12.787-5.185,23.268c0.004,2.166,0.007,4.377-0.035,6.672    c1.652-0.031,3.249-0.037,4.781-0.037l3.715,0.004c9.829,0,16.632-0.359,21.452-5.18c1.515-1.516,2.408-3.439,2.515-5.416    c0.096-1.789-0.482-3.406-1.628-4.553C232.403,351.047,231.353,350.764,230.199,350.764z"></path><path d="M258.459,176.636c-0.301,0.573-0.606,1.143-0.92,1.71c-0.135,0.244-0.266,0.488-0.402,0.73    c-0.446,0.792-0.902,1.578-1.374,2.356c-0.054,0.089-0.111,0.177-0.166,0.266c-0.423,0.694-0.857,1.383-1.3,2.067    c-0.161,0.248-0.326,0.493-0.489,0.739c-0.356,0.538-0.719,1.072-1.087,1.603c-0.176,0.253-0.352,0.506-0.53,0.757    c-0.419,0.588-0.845,1.171-1.278,1.75c-0.124,0.166-0.243,0.333-0.368,0.497c-0.558,0.735-1.128,1.462-1.71,2.183    c-0.148,0.182-0.301,0.362-0.449,0.543c-0.447,0.542-0.899,1.082-1.359,1.616c-0.205,0.237-0.411,0.472-0.619,0.708    c-0.439,0.499-0.886,0.994-1.338,1.484c-0.195,0.211-0.388,0.424-0.584,0.634c-0.644,0.686-1.296,1.365-1.964,2.033    c-16.721,16.721-38.953,25.929-62.601,25.929c-1.073,0-2.145-0.023-3.214-0.062c-0.356-0.013-0.712-0.036-1.068-0.053    c-0.547-0.026-1.095-0.045-1.641-0.082l38.595,27.901l72.958-18.24c2.497-0.626,5.027,0.894,5.651,3.39    c0.625,2.497-0.894,5.027-3.391,5.651l-65.345,16.336l121.712,87.988l47.105-47.104l-62.665-86.681v62.218    c0,2.573-2.086,4.659-4.66,4.659c-2.573,0-4.659-2.086-4.659-4.659v-74.557c0-0.166,0.032-0.323,0.049-0.484l-51.059-70.629    c0.062,0.909,0.104,1.818,0.138,2.726c0.011,0.282,0.015,0.563,0.023,0.845c0.017,0.646,0.029,1.292,0.031,1.938    c0.002,0.309,0.004,0.619,0.002,0.928c-0.004,0.678-0.017,1.354-0.034,2.031c-0.008,0.241-0.012,0.482-0.021,0.723    c-0.032,0.902-0.078,1.803-0.139,2.703c-0.013,0.204-0.032,0.408-0.047,0.612c-0.053,0.705-0.113,1.41-0.182,2.112    c-0.029,0.307-0.064,0.612-0.097,0.918c-0.069,0.625-0.144,1.249-0.226,1.872c-0.038,0.296-0.075,0.593-0.117,0.889    c-0.108,0.767-0.228,1.531-0.354,2.294c-0.021,0.131-0.04,0.263-0.063,0.395c-0.153,0.883-0.32,1.764-0.501,2.642    c-0.055,0.27-0.116,0.539-0.173,0.808c-0.135,0.625-0.274,1.25-0.422,1.873c-0.073,0.306-0.146,0.612-0.223,0.917    c-0.156,0.628-0.32,1.254-0.489,1.878c-0.071,0.257-0.137,0.516-0.21,0.772c-0.241,0.861-0.496,1.719-0.766,2.573    c-0.051,0.166-0.109,0.329-0.162,0.494c-0.224,0.699-0.457,1.395-0.699,2.088c-0.1,0.289-0.206,0.576-0.31,0.863    c-0.211,0.587-0.43,1.172-0.655,1.756c-0.109,0.286-0.218,0.571-0.331,0.856c-0.27,0.677-0.548,1.349-0.834,2.02    c-0.07,0.167-0.138,0.336-0.211,0.503c-0.356,0.824-0.729,1.644-1.112,2.458c-0.11,0.236-0.228,0.47-0.342,0.705    c-0.286,0.593-0.575,1.184-0.876,1.771C258.748,176.08,258.604,176.358,258.459,176.636z"></path><path d="M411.288,332.686l-14.827-24.713l-44.279,44.279l24.712,14.828l14.463-14.465    c10.299,10.945,10.106,28.221-0.589,38.92l-39.541,39.539c-5.28,5.279-12.302,8.188-19.77,8.188    c-7.469,0-14.489-2.908-19.77-8.188c-7.041-7.043-16.402-10.92-26.359-10.92c-9.958,0-19.319,3.877-26.36,10.92l-16.475,16.475    c-1.82,1.818-1.82,4.77,0,6.588c0.91,0.91,2.103,1.365,3.295,1.365s2.385-0.455,3.295-1.365l16.475-16.475    c5.28-5.279,12.303-8.188,19.771-8.188c7.467,0,14.489,2.908,19.769,8.188c7.042,7.043,16.403,10.92,26.36,10.92    c9.956,0,19.318-3.877,26.358-10.92l39.541-39.539c14.331-14.332,14.521-37.518,0.591-52.098L411.288,332.686z"></path></g></g></svg>