<svg height='100px' width='100px'  fill="#000000" xmlns="http://www.w3.org/2000/svg" viewBox="0 0 512 512" x="0px" y="0px"><g><path d="M442,336a14.015,14.015,0,0,0,14-14V286a14.015,14.015,0,0,0-14-14H360V248h8a24.028,24.028,0,0,0,24-24V176a24.028,24.028,0,0,0-24-24H245.953l9.468-19.1a8,8,0,0,0-3.611-10.718l-21.482-10.663,17.784-35.788,14.333,7.115a24,24,0,1,0,21.342-42.995L240.793,18.506h0A24,24,0,1,0,219.452,61.5l14.328,7.113L216,104.4,194.483,93.723a8,8,0,0,0-10.724,3.613L75.344,316.1a20.034,20.034,0,0,0,5.618,24.667l-10.85,21.859A23.94,23.94,0,0,0,74.4,390L27.657,484.461a8,8,0,1,0,14.34,7.1L88.72,397.126a23.693,23.693,0,0,0,2.868.178,24.065,24.065,0,0,0,21.519-13.341L123.958,362.1a19.76,19.76,0,0,0,5.111.681A20.055,20.055,0,0,0,147,351.66l56.83-114.672A24,24,0,0,0,224,248h8v24.8A40.071,40.071,0,0,0,200,312V456a40.045,40.045,0,0,0,40,40H352a40.1,40.1,0,0,0,9.045-1.031A23.928,23.928,0,0,0,368,496h64a24.027,24.027,0,0,0,24-24V376a24.039,24.039,0,0,0-16-22.624V336ZM226.565,47.169a8,8,0,0,1,7.115-14.331h0l42.993,21.342A8,8,0,1,1,269.56,68.51Zm-3.357,78.675,14.326,7.111-11.642,23.493-9.313,18.792-14.372-7.134Zm-28.668-14.23,14.336,7.116-21,42.262L173.584,153.9ZM98.775,376.849a8,8,0,0,1-14.331-7.114l10.671-21.5,14.331,7.114Zm88.957-143.4L166.305,222.81l-7.114,14.332,21.436,10.64-7.1,14.336-21.446-10.645-7.113,14.332,21.454,10.649-7.105,14.336L137.85,280.136l-7.114,14.332,21.472,10.658-7.1,14.337L123.622,308.8l-7.113,14.332L138,333.8l-5.329,10.752a4,4,0,0,1-5.361,1.8l-35.83-17.784a4.007,4.007,0,0,1-1.8-5.366l62.164-125.436,42.995,21.341ZM208.62,191.3l-6.678,13.476L159,183.46l6.645-13.546.832-1.68,42.988,21.338ZM224,232a8.009,8.009,0,0,1-8-8V212.584l7-14.274L238.024,168H368a8.009,8.009,0,0,1,8,8v8H328a8,8,0,0,0,0,16h48v24a8.009,8.009,0,0,1-8,8H224Zm-8,80a24.027,24.027,0,0,1,24-24,8,8,0,0,0,8-8V248h96v72H216Zm24,168a24.027,24.027,0,0,1-24-24v-8H344v24a23.889,23.889,0,0,0,1.376,8ZM344,376v56H216V336H360v17.376A24.039,24.039,0,0,0,344,376Zm96,96a8.009,8.009,0,0,1-8,8H368a8.009,8.009,0,0,1-8-8v-8h80Zm0-56H424a8,8,0,0,0,0,16h16v16H360V400h80Zm0-32H360v-8a8.009,8.009,0,0,1,8-8h64a8.009,8.009,0,0,1,8,8Zm-64-32V336h48v16Zm-16-32V288h80v32Z"></path><path d="M308,392H284a12,12,0,0,0,0,24h24a12,12,0,0,0,0-24Z"></path><path d="M296,376a8,8,0,0,0,8-8v-8a8,8,0,0,0-16,0v8A8,8,0,0,0,296,376Z"></path><path d="M280,376v-8a8,8,0,0,0-16,0v8a8,8,0,0,0,16,0Z"></path><path d="M320,360a8,8,0,0,0-8,8v8a8,8,0,0,0,16,0v-8A8,8,0,0,0,320,360Z"></path><path d="M384,432h8a8,8,0,0,0,0-16h-8a8,8,0,0,0,0,16Z"></path><path d="M280,200h16a8,8,0,0,0,0-16H280a8,8,0,0,0,0,16Z"></path></g></svg>