<svg height='100px' width='100px'  fill="#000000" xmlns="http://www.w3.org/2000/svg" xmlns:xlink="http://www.w3.org/1999/xlink" version="1.1" x="0px" y="0px" viewBox="0 0 36 36" style="enable-background:new 0 0 36 36;" xml:space="preserve"><path d="M32.75,2.51h-10C21.79,2.51,21,3.29,21,4.26v2.25h-1.25c-1.1,0-2.1,0.66-2.53,1.68c-0.47,1.09-0.18,2.33,0.77,3.32  c0.31,0.32,0.76,0.5,1.23,0.5H21v2.25c0,0.96,0.79,1.75,1.75,1.75h2c0.96,0,1.75-0.79,1.75-1.75v-1.53c0-0.08,0.02-0.13,0.05-0.16  c0.55-0.53,1.15-0.7,1.69-0.47C28.7,12.3,29,12.76,29,13.26v1c0,0.96,0.79,1.75,1.75,1.75h2c0.96,0,1.75-0.79,1.75-1.75v-10  C34.5,3.29,33.71,2.51,32.75,2.51z M33,14.26c0,0.14-0.11,0.25-0.25,0.25h-2c-0.14,0-0.25-0.11-0.25-0.25v-1  c0-1.1-0.66-2.1-1.68-2.53c-0.35-0.15-0.71-0.22-1.07-0.22c-0.78,0-1.58,0.34-2.25,0.99c-0.32,0.31-0.5,0.76-0.5,1.24v1.53  c0,0.14-0.11,0.25-0.25,0.25h-2c-0.14,0-0.25-0.11-0.25-0.25v-3c0-0.41-0.34-0.75-0.75-0.75h-2.53c-0.08,0-0.13-0.02-0.15-0.05  c-0.53-0.55-0.7-1.15-0.47-1.69c0.2-0.46,0.65-0.77,1.15-0.77h2c0.41,0,0.75-0.34,0.75-0.75v-3c0-0.14,0.11-0.25,0.25-0.25h10  c0.14,0,0.25,0.11,0.25,0.25V14.26z"></path><path d="M25.25,19.99H23v-1.25c0-1.1-0.66-2.1-1.68-2.53c-1.1-0.46-2.34-0.17-3.31,0.77c-0.32,0.31-0.5,0.76-0.5,1.23v1.78h-2.25  c-0.09,0-0.18,0.01-0.27,0.02c0.01-0.09,0.02-0.18,0.02-0.27v-2c0-0.96-0.79-1.75-1.75-1.75h-1.53c-0.09,0-0.14-0.03-0.16-0.05  c-0.53-0.55-0.69-1.15-0.47-1.69c0.2-0.47,0.65-0.77,1.15-0.77h1c0.96,0,1.75-0.79,1.75-1.75v-2c0-0.96-0.79-1.75-1.75-1.75h-10  c-0.96,0-1.75,0.79-1.75,1.75v10c0,0.36,0.12,0.71,0.33,1c-0.21,0.29-0.33,0.64-0.33,1v10c0,0.96,0.79,1.75,1.75,1.75h10  c0.36,0,0.71-0.12,1-0.33c0.29,0.21,0.64,0.33,1,0.33h10c0.96,0,1.75-0.79,1.75-1.75v-10C27,20.78,26.21,19.99,25.25,19.99z M3,9.74  c0-0.14,0.11-0.25,0.25-0.25h10c0.14,0,0.25,0.11,0.25,0.25v2c0,0.14-0.11,0.25-0.25,0.25h-1c-1.1,0-2.1,0.66-2.53,1.68  c-0.47,1.09-0.18,2.33,0.77,3.31c0.31,0.32,0.76,0.5,1.23,0.5h1.53c0.14,0,0.25,0.11,0.25,0.25v2c0,0.14-0.11,0.25-0.25,0.25h-3  c-0.41,0-0.75,0.34-0.75,0.75v2.53c0,0.08-0.02,0.13-0.05,0.16c-0.55,0.53-1.15,0.69-1.69,0.47C7.3,23.7,7,23.24,7,22.74v-2  c0-0.41-0.34-0.75-0.75-0.75h-3C3.11,19.99,3,19.88,3,19.74V9.74z M13.5,28.74v3c0,0.14-0.11,0.25-0.25,0.25h-10  C3.11,31.99,3,31.88,3,31.74v-10c0-0.14,0.11-0.25,0.25-0.25h2c0.14,0,0.25,0.11,0.25,0.25v1c0,1.1,0.66,2.1,1.68,2.53  c0.16,0.07,0.32,0.12,0.49,0.15l0.13,0.02c0.12,0.02,0.25,0.04,0.33,0.03l0.18,0c0.16,0,0.31-0.02,0.55-0.07  c0.18-0.04,0.35-0.1,0.53-0.17L9.2,24.79c0,0,0,0,0,0l0.31,0.4c0.13-0.06,0.27-0.14,0.39-0.22l0.13-0.09  c0.16-0.11,0.31-0.23,0.46-0.38c0.32-0.31,0.5-0.76,0.5-1.24v-1.53c0-0.14,0.11-0.25,0.25-0.25h2c0.14,0,0.25,0.11,0.25,0.25v3  c0,0.41,0.34,0.75,0.75,0.75h2.53c0.08,0,0.13,0.02,0.15,0.05c0.53,0.55,0.7,1.15,0.47,1.69c-0.2,0.46-0.65,0.77-1.15,0.77h-2  C13.84,27.99,13.5,28.33,13.5,28.74z M25.5,31.74c0,0.14-0.11,0.25-0.25,0.25h-10c-0.14,0-0.25-0.11-0.25-0.25v-2  c0-0.14,0.11-0.25,0.25-0.25h1c1.1,0,2.1-0.66,2.53-1.68c0.47-1.09,0.18-2.33-0.77-3.32c-0.31-0.32-0.76-0.5-1.23-0.5h-1.53  c-0.14,0-0.25-0.11-0.25-0.25v-2c0-0.14,0.11-0.25,0.25-0.25h3c0.41,0,0.75-0.34,0.75-0.75v-2.53c0-0.09,0.03-0.14,0.05-0.15  c0.55-0.53,1.15-0.7,1.69-0.47c0.47,0.2,0.77,0.65,0.77,1.15v2c0,0.41,0.34,0.75,0.75,0.75h3c0.14,0,0.25,0.11,0.25,0.25V31.74z"></path></svg>