<svg height='100px' width='100px'  fill="#000000" xmlns="http://www.w3.org/2000/svg" xmlns:xlink="http://www.w3.org/1999/xlink" version="1.1" x="0px" y="0px" viewBox="0 0 100 100" style="enable-background:new 0 0 100 100;" xml:space="preserve"><style type="text/css">
	.st0{fill:none;stroke:#000000;stroke-width:2;stroke-linecap:round;stroke-linejoin:round;stroke-miterlimit:10;}
	.st1{fill:none;stroke:#000000;stroke-width:1.8;stroke-linecap:round;stroke-linejoin:round;stroke-miterlimit:10;}
	.st2{fill:none;stroke:#000000;stroke-width:2;stroke-linecap:round;stroke-miterlimit:10;}
	.st3{fill:none;stroke:#000000;stroke-width:2;stroke-miterlimit:10;}
</style><path d="M49.974,65.423c-2.574,0-4.669,2.073-4.669,4.621s2.095,4.62,4.669,4.62s4.669-2.072,4.669-4.62  S52.548,65.423,49.974,65.423z M49.974,72.664c-1.472,0-2.669-1.176-2.669-2.62c0-1.445,1.197-2.621,2.669-2.621  s2.669,1.176,2.669,2.621C52.643,71.488,51.445,72.664,49.974,72.664z"></path><path d="M50.125,10.071c-22.056,0-40,17.944-40,40s17.944,40,40,40s40-17.944,40-40S72.181,10.071,50.125,10.071z M83.09,49.071  c-0.252-8.394-3.651-16.006-9.059-21.699l3.541-3.541c6.314,6.602,10.274,15.465,10.528,25.24H83.09z M12.15,51.071h5.01  c0.249,8.289,3.565,15.818,8.857,21.487l-3.541,3.54C16.279,69.519,12.402,60.741,12.15,51.071z M22.415,24.108l3.54,3.541  c-5.256,5.662-8.547,13.165-8.795,21.422h-5.01C12.401,39.433,16.253,30.68,22.415,24.108z M72.612,25.963  c-5.669-5.292-13.198-8.608-21.487-8.857v-5.01c9.67,0.252,18.448,4.129,25.027,10.325L72.612,25.963z M61.667,78.824  c-3.57,1.438-7.463,2.238-11.542,2.238c-4.189,0-8.185-0.84-11.833-2.353V21.434c3.648-1.513,7.644-2.353,11.833-2.353  c4.086,0,7.986,0.802,11.561,2.246c-0.003,0.033-0.019,0.061-0.019,0.094V78.824z M19.135,50.071  c0-12.118,6.996-22.628,17.157-27.719v55.44C26.131,72.7,19.135,62.19,19.135,50.071z M49.125,17.106  c-8.426,0.253-16.064,3.677-21.764,9.121l-3.54-3.541c6.609-6.35,15.498-10.334,25.304-10.59V17.106z M27.426,73.977  c5.693,5.409,13.305,8.808,21.699,9.06v5.009c-9.775-0.255-18.638-4.214-25.24-10.528L27.426,73.977z M51.125,83.037  c8.257-0.248,15.76-3.539,21.422-8.796l3.54,3.541c-6.572,6.161-15.325,10.013-24.963,10.264V83.037z M63.667,77.941V22.203  c10.32,5.035,17.448,15.634,17.448,27.869C81.115,62.307,73.987,72.906,63.667,77.941z M77.51,76.376l-3.541-3.541  c5.444-5.7,8.868-13.338,9.121-21.764h5.01C87.844,60.878,83.86,69.767,77.51,76.376z"></path></svg>