<?xml version="1.0" encoding="utf-8"?>
<!-- Generator: Adobe Illustrator 24.2.1, SVG Export Plug-In . SVG Version: 6.00 Build 0)  -->
<svg version="1.1" id="Layer_1" xmlns="http://www.w3.org/2000/svg" xmlns:xlink="http://www.w3.org/1999/xlink" x="0px" y="0px"
	 viewBox="0 0 100 100" enable-background="new 0 0 100 100" xml:space="preserve">
<path d="M50,5.8C25.6,5.8,5.8,25.6,5.8,50S25.6,94.2,50,94.2S94.2,74.4,94.2,50S74.4,5.8,50,5.8z M43.9,46.9c0,0.3-0.1,0.5-0.2,0.8
	c-0.9,1.9-5.2,10.4-14.4,14.2C18.8,66.2,17.1,46,19,40.8c1.6-4.4,17.8-3.3,23.1-2.8c1,0.1,1.7,0.9,1.7,1.9v7H43.9z M54.8,46.8
	c0,1-0.8,1.7-1.7,1.7H47c-1,0-1.7-0.8-1.7-1.7v-7.3c0-1,0.8-1.7,1.7-1.7h6c1,0,1.7,0.8,1.7,1.7v7.3H54.8z M70.7,61.9
	C61.5,58,57.2,49.6,56.3,47.7c-0.1-0.2-0.2-0.5-0.2-0.8v-7c0-1,0.7-1.8,1.7-1.9c5.3-0.5,21.5-1.6,23.1,2.8
	C82.9,46,81.2,66.2,70.7,61.9z"/>
</svg>
