<svg height='100px' width='100px'  fill="#1A1A1A" xmlns="http://www.w3.org/2000/svg" xmlns:xlink="http://www.w3.org/1999/xlink" version="1.1" x="0px" y="0px" viewBox="0 0 100 100" enable-background="new 0 0 100 100" xml:space="preserve"><g><path d="M42.658,72.823c-1.506-3.545-3.014-7.093-4.521-10.641c0.281-0.107,0.563-0.213,0.844-0.318   c0.838-0.317,1.206-1.285,0.818-2.148c-0.39-0.864-1.375-1.319-2.19-1.012c-0.9,0.342-1.797,0.68-2.697,1.017   c-1.561-4.019-3.118-8.033-4.679-12.055c2.707-1.469,4.708-3.746,5.708-6.338c0.993-2.573,0.993-5.478-0.179-8.179   c-0.451-1.039-0.901-2.076-1.35-3.114c-1.429-3.292-2.858-6.585-4.287-9.884c-1.427-3.292-2.86-6.591-4.29-9.894   c-0.538-1.243-1.955-1.9-3.133-1.461c-1.179,0.445-1.717,1.836-1.203,3.089c1.369,3.329,2.732,6.646,4.099,9.969   c1.364,3.315,2.732,6.642,4.093,9.958c1.479,3.592-2.9,4.847-4.181,1.576c-1.31-3.346-2.618-6.686-3.927-10.03   c-1.31-3.344-2.618-7.019-3.93-10.37c-0.494-1.26-1.866-1.836-3.047-1.836c-0.002,0-0.002,0-0.002,0   c-1.176,0-1.757,2.184-1.288,3.451c1.248,3.377,2.494,6.914,3.737,10.274c1.245,3.372,2.491,6.825,3.736,10.196   c1.196,3.233-3.079,4.765-4.185,1.61c-1.189-3.389-2.375-6.756-3.565-10.149c-1.191-3.386-2.377-6.768-3.572-10.162   c-0.447-1.278-1.778-1.97-2.96-1.523c-1.178,0.439-1.796,1.854-1.372,3.144c1.129,3.419,2.253,6.837,3.377,10.253   c1.126,3.414,2.252,6.83,3.376,10.249c0.352,1.074,0.707,2.144,1.06,3.22c0.926,2.804,2.848,4.982,5.307,6.257   c2.476,1.292,5.493,1.689,8.502,1.005c1.511,4.039,3.012,8.076,4.521,12.119c-0.955,0.362-1.911,0.724-2.868,1.084   c-0.814,0.308-1.245,1.298-0.958,2.201c0.288,0.901,1.206,1.38,2.042,1.064c0.283-0.104,0.566-0.209,0.848-0.317   c1.245,3.647,2.49,7.292,3.732,10.94c1.427,4.185,2.856,8.376,4.287,12.563c0.389,1.144,1.287,1.982,2.426,2.397   c1.147,0.417,2.541,0.417,3.888-0.094c1.347-0.506,2.387-1.427,2.967-2.499c0.575-1.06,0.685-2.282,0.213-3.396   C46.121,80.97,44.388,76.896,42.658,72.823z"></path><path d="M60.153,43.734l12.115,4.781l-4.394,11.229c-0.955-0.367-1.91-0.734-2.866-1.099c-0.809-0.312-1.791,0.142-2.181,1.007   c-0.382,0.864-0.015,1.833,0.823,2.153c0.281,0.109,0.561,0.218,0.843,0.327c-1.493,3.55-2.992,7.105-4.485,10.653   c-1.717,4.076-3.436,8.155-5.152,12.231c-0.469,1.112-0.357,2.339,0.218,3.406c0.583,1.074,1.622,2.002,2.967,2.515   c1.342,0.516,2.732,0.521,3.877,0.105c1.134-0.41,2.03-1.25,2.416-2.394c1.414-4.191,2.829-8.388,4.245-12.578   c1.23-3.652,2.463-7.308,3.696-10.96c0.283,0.109,0.565,0.214,0.844,0.323c0.838,0.32,1.757-0.156,2.037-1.057   c0.281-0.91-0.151-1.901-0.963-2.213c-0.895-0.343-1.788-0.685-2.68-1.027l4.301-11.217l12.127,4.788   C108.119,4.258,80.693-7.624,60.153,43.734z"></path></g></svg>