<svg height='100px' width='100px'  fill="#000000" xmlns:dc="http://purl.org/dc/elements/1.1/" xmlns:cc="http://creativecommons.org/ns#" xmlns:rdf="http://www.w3.org/1999/02/22-rdf-syntax-ns#" xmlns:svg="http://www.w3.org/2000/svg" xmlns="http://www.w3.org/2000/svg" xmlns:sodipodi="http://sodipodi.sourceforge.net/DTD/sodipodi-0.dtd" xmlns:inkscape="http://www.inkscape.org/namespaces/inkscape" viewBox="0 0 8.4666665 8.4666669" version="1.1" x="0px" y="0px"><g transform="translate(0,-288.53332)"><path style="" d="M 23.076172 9.7246094 L 23.076172 10.591797 A 3.2615256 3.2615256 0 0 0 22.085938 10.912109 L 21.578125 10.210938 L 20.767578 10.798828 L 21.277344 11.5 A 3.2615256 3.2615256 0 0 0 20.666016 12.341797 L 19.841797 12.074219 L 19.533203 13.025391 L 20.357422 13.292969 A 3.2615256 3.2615256 0 0 0 20.357422 14.333984 L 19.533203 14.603516 L 19.841797 15.554688 L 20.666016 15.285156 A 3.2615256 3.2615256 0 0 0 21.277344 16.126953 L 20.767578 16.828125 L 21.578125 17.416016 L 22.085938 16.714844 A 3.2615256 3.2615256 0 0 0 23.076172 17.037109 L 23.076172 17.902344 L 24.076172 17.902344 L 24.076172 17.037109 A 3.2615256 3.2615256 0 0 0 25.066406 16.714844 L 25.576172 17.416016 L 26.384766 16.828125 L 25.875 16.126953 A 3.2615256 3.2615256 0 0 0 26.486328 15.285156 L 27.310547 15.554688 L 27.621094 14.603516 L 26.796875 14.333984 A 3.2615256 3.2615256 0 0 0 26.796875 13.292969 L 27.621094 13.025391 L 27.310547 12.074219 L 26.486328 12.341797 A 3.2615256 3.2615256 0 0 0 25.875 11.5 L 26.384766 10.798828 L 25.576172 10.210938 L 25.066406 10.912109 A 3.2615256 3.2615256 0 0 0 24.076172 10.591797 L 24.076172 9.7246094 L 23.076172 9.7246094 z M 23.511719 11.552734 A 2.2615275 2.2615275 0 0 1 25.837891 13.814453 A 2.2615275 2.2615275 0 1 1 21.314453 13.814453 A 2.2615275 2.2615275 0 0 1 23.511719 11.552734 z " transform="matrix(0.26458333,0,0,0.26458333,0,288.53332)" fill="#000000" stroke="none"></path><path style="" d="M 11.087891 9.09375 A 6.905334 6.905334 0 0 0 4.3789062 16 A 6.905334 6.905334 0 1 0 18.191406 16 A 6.905334 6.905334 0 0 0 11.087891 9.09375 z M 14.015625 11.611328 A 0.50000661 0.50000661 0 0 1 14.066406 11.611328 A 0.50000661 0.50000661 0 0 1 14.410156 12.457031 L 11.285156 15.582031 L 8.8671875 13.164062 A 0.50001557 0.50001557 0 0 1 9.5742188 12.457031 L 11.285156 14.167969 L 13.703125 11.75 A 0.50000661 0.50000661 0 0 1 14.015625 11.611328 z M 12.958984 17 L 13.958984 17 L 13.958984 17.847656 A 2.5477062 2.5477062 0 0 1 14.871094 18.224609 L 15.470703 17.626953 L 16.177734 18.333984 L 15.578125 18.931641 A 2.5477062 2.5477062 0 0 1 15.914062 19.666016 L 15.914062 19.667969 A 5.9053333 5.9053333 0 0 1 14.984375 20.603516 A 1.5477061 1.5477061 0 1 0 12.75 21.722656 A 5.9053333 5.9053333 0 0 1 11.443359 21.902344 A 2.5477062 2.5477062 0 0 1 10.960938 20.845703 L 10.113281 20.845703 L 10.113281 19.845703 L 10.960938 19.845703 A 2.5477062 2.5477062 0 0 1 11.337891 18.931641 L 10.738281 18.333984 L 11.447266 17.626953 L 12.044922 18.224609 A 2.5477062 2.5477062 0 0 1 12.958984 17.847656 L 12.958984 17 z " transform="matrix(0.26458333,0,0,0.26458333,0,288.53332)" fill="#000000" stroke="none"></path><path style="" d="m 4.4616899,291.28442 a 2.0916195,2.0916195 0 0 0 -2.9516459,0 l 0.636779,-2.222 h 1.6780881 z" fill="#000000" stroke="none"></path><path style="" d="m 1.510044,294.24882 0.636779,2.222 h 1.6780881 l 0.6367788,-2.222 a 2.0916195,2.0916195 0 0 1 -2.9516459,0 z" fill="#000000" stroke="none"></path></g></svg>