<svg height='100px' width='100px'  fill="#000000" xmlns="http://www.w3.org/2000/svg" xmlns:xlink="http://www.w3.org/1999/xlink" version="1.1" x="0px" y="0px" viewBox="0 0 100 100" enable-background="new 0 0 100 100" xml:space="preserve"><path fill="#000000" d="M90.11,50l-0.146-3.016c1.705-0.701,3.422-1.476,5.036-2.317c-0.297-2.344-0.721-4.668-1.385-6.942  c-1.842-0.156-3.65-0.244-5.519-0.235l-1.043-2.84c-0.385-0.93-0.853-1.827-1.283-2.739c1.3-1.3,2.589-2.682,3.758-4.08  c-1.172-2.054-2.466-4.025-3.939-5.87c-1.749,0.553-3.477,1.188-5.19,1.91l-2.037-2.234l-2.231-2.035  c0.723-1.715,1.354-3.444,1.909-5.191c-1.846-1.473-3.816-2.766-5.87-3.938c-1.397,1.168-2.778,2.459-4.08,3.758  c-0.911-0.431-1.809-0.896-2.738-1.284l-2.841-1.042c0.01-1.87-0.078-3.676-0.235-5.519C60,5.721,57.678,5.298,55.333,5  c-0.842,1.616-1.619,3.331-2.317,5.035L50,9.888l-3.016,0.147c-0.7-1.705-1.476-3.419-2.318-5.035  c-2.344,0.298-4.667,0.721-6.942,1.385c-0.156,1.843-0.244,3.65-0.235,5.519l-2.84,1.042c-0.93,0.388-1.827,0.854-2.739,1.284  c-1.301-1.298-2.682-2.589-4.08-3.758c-2.054,1.172-4.025,2.465-5.87,3.938c0.553,1.748,1.188,3.477,1.91,5.191l-2.232,2.035  l-2.037,2.234c-1.715-0.722-3.444-1.356-5.191-1.91c-1.473,1.844-2.766,3.816-3.938,5.87c1.168,1.398,2.458,2.78,3.758,4.08  c-0.431,0.912-0.899,1.809-1.285,2.739l-1.042,2.84c-1.87-0.009-3.676,0.079-5.519,0.235C5.721,40,5.298,42.323,5,44.667  c1.616,0.842,3.331,1.617,5.035,2.317L9.888,50l0.147,3.016C8.331,53.717,6.616,54.491,5,55.333  c0.298,2.345,0.721,4.668,1.385,6.942c1.843,0.156,3.649,0.244,5.519,0.234l1.042,2.841c0.386,0.93,0.854,1.827,1.285,2.738  c-1.3,1.302-2.589,2.683-3.758,4.08c1.172,2.054,2.465,4.024,3.938,5.87c1.75-0.555,3.477-1.187,5.191-1.909l2.037,2.232  l2.232,2.036c-0.722,1.714-1.356,3.445-1.91,5.19c1.844,1.474,3.816,2.768,5.87,3.939c1.398-1.169,2.78-2.46,4.08-3.758  c0.912,0.431,1.809,0.896,2.739,1.283l2.84,1.043c-0.009,1.868,0.079,3.677,0.236,5.519c2.274,0.664,4.597,1.09,6.94,1.385  c0.842-1.614,1.619-3.331,2.318-5.036L50,90.11l3.016-0.146c0.699,1.705,1.476,3.422,2.317,5.036  c2.345-0.295,4.668-0.721,6.942-1.385c0.156-1.842,0.244-3.651,0.234-5.519l2.841-1.043c0.93-0.387,1.827-0.853,2.738-1.283  c1.303,1.298,2.683,2.589,4.08,3.758c2.054-1.172,4.024-2.466,5.87-3.939c-0.555-1.745-1.187-3.477-1.909-5.19l2.231-2.036  l2.037-2.232c1.714,0.723,3.445,1.354,5.19,1.909c1.474-1.846,2.768-3.816,3.939-5.87c-1.169-1.397-2.458-2.778-3.758-4.08  c0.431-0.911,0.898-1.809,1.283-2.738l1.043-2.841c1.868,0.01,3.677-0.078,5.519-0.234C94.279,60,94.703,57.678,95,55.333  c-1.614-0.842-3.331-1.616-5.036-2.317L90.11,50z M60.637,75.688c-3.355,1.394-6.978,2.107-10.637,2.116  c-3.658-0.009-7.28-0.723-10.637-2.116c-3.357-1.39-6.443-3.451-9.023-6.027c-2.576-2.579-4.638-5.666-6.028-9.023  c-1.393-3.355-2.108-6.98-2.116-10.637c0.008-3.657,0.724-7.28,2.116-10.637c0.865-2.093,1.995-4.081,3.345-5.905l38.884,38.885  C64.717,73.693,62.73,74.823,60.637,75.688z M75.688,60.637c-0.864,2.094-1.994,4.081-3.345,5.905L33.458,27.657  c1.824-1.35,3.813-2.479,5.905-3.345c3.356-1.393,6.979-2.108,10.637-2.116c3.659,0.008,7.281,0.724,10.637,2.116  c3.357,1.39,6.443,3.452,9.023,6.028c2.576,2.579,4.638,5.666,6.027,9.023c1.394,3.356,2.107,6.98,2.117,10.637  C77.795,53.656,77.081,57.281,75.688,60.637z"></path></svg>