<svg height='100px' width='100px'  fill="#000000" xmlns="http://www.w3.org/2000/svg" xmlns:xlink="http://www.w3.org/1999/xlink" version="1.1" x="0px" y="0px" viewBox="0 0 100 100" enable-background="new 0 0 100 100" xml:space="preserve"><path d="M28.346,79.338c0.012,0.016,0.022,0.029,0.035,0.045C28.382,79.397,28.372,79.386,28.346,79.338z M85.461,93.986  c-0.153,0.339-0.465,0.565-0.925,0.676c-0.096,0.023-0.193,0.047-0.291,0.073C83.714,94.865,83.165,95,82.593,95  c-0.529,0-1.014-0.116-1.476-0.359c-0.646-0.337-1.127-0.736-1.553-1.09c-0.349-0.29-0.68-0.564-1.046-0.758  c-0.322-0.17-0.694-0.29-1.088-0.415c-0.608-0.192-1.235-0.393-1.75-0.812c-0.333-0.271-0.675-0.655-1.071-1.102  c-0.583-0.656-1.242-1.399-2.062-1.984c-0.394-0.282-1.104-0.771-2.005-1.392c-2.175-1.499-5.426-3.74-7.25-5.149  c-0.154,0.554-0.352,1.531-0.288,2.791c0.058,1.161,0.048,2.377,0.03,3.202c2.442,1.55,5.04,2.126,5.663,2.692  c0.732,0.666-0.267,0.865-2.264,1.54c-1.998,0.676-4.661-0.542-5.261-0.808c-0.599-0.268-1.932,0.665-3.893,0.798  s-4.099-1.132-4.831-1.664c-0.07-0.051-0.24-0.253-0.454-0.524c-0.716,0.254-1.932,0.687-2.062,0.757  c-0.188,0.101-4.309-0.399-5.906-0.94c-1.598-0.54-2.297-2.141-2.297-2.141s-1.799-5.309-2.497-8.617  c-0.699-3.309-4.396-10.275-4.658-8.977c-0.208,1.035-2.7,7.102-3.709,9.534c0.239,0.25,0.493,0.602,0.742,1.119  c0.933,1.933,1.266,2.031,1.266,2.031l0.832,0.999l-0.232,0.333l-2.099-1.799c0,0-1.064,0.167-0.799,1.799  c0.267,1.632,1.066,3.162,0.933,3.729s-1.365,1.998-1.664,2.23c-0.3,0.233-3.263,0.865-4.628,0.999  c-1.365,0.133-4.262,0.334-4.428,0.234c-0.167-0.102-0.813-0.067-0.274-0.633c0.541-0.566,2.105-1.365,2.105-1.365l0.52-0.42  c-0.12-0.126-0.23-0.261-0.319-0.412c-1.132-1.933,0.133-7.059,0.399-7.791c0.026-0.071,0.054-0.407,0.089-0.784l-0.206-0.37  c-1.111-2-3.422-6.163-4.111-7.361c-1.802-3.129-3.504-6.086-4.369-9.095c-0.977-3.4,2.056-4.479,3.052-4.833  c0.703-0.249,3.146-0.545,7.231-0.876c-0.003-0.002-0.004-0.002-0.006-0.003c-0.549-0.3-3.097-2.798-3.545-3.446  c-0.45-0.649-2.547-5.545-3.146-6.643c-0.6-1.099-2.498-2.097-2.498-2.097s1.898-2.499,2.647-3.396  c0.749-0.898,2.347-3.546,3.046-4.645c0.7-1.098,2.248-2.947,2.647-3.296c0.399-0.351,1.148-1.998,1.698-2.946  c0.549-0.948,2.048-3.445,2.048-3.445s0.1-0.999,0.349-2.098c0.25-1.099,1.548-3.146,1.548-3.146s-5.493-6.294-6.492-7.791  c-0.999-1.497-1.098-3.296-0.549-4.146c0.549-0.849,5.293-3.146,6.243-3.496c0.949-0.35,3.396-0.35,3.396-0.35  s1.249-0.15,2.298-0.25c0,0,0.03,0.033,0.051,0.054c1.043-0.346,3.828-1.125,4.448-1.177c0.831-0.073,2.225,2.077,2.315,2.26  c0.226,0.45-0.339,1.42-0.49,1.637c-0.12,0.169-0.265,0.339-0.448,0.348c-0.102,0.018-0.206,0.031-0.308,0.031  c-0.112,0-0.216-0.028-0.311-0.075c-0.112,0.203-0.255,0.362-0.412,0.52c-0.213,0.212-0.454,0.333-0.668,0.438  c-0.231,0.115-0.432,0.214-0.586,0.412l-0.005,0.008c-0.337,0.434-0.397,0.511-0.441,1.081c-0.035,0.458,0.007,3.078,0.032,4.498  c0.756,0.747,1.701,1.669,2.565,2.101c1.599,0.799,2.098,1.639,2.098,1.639l1.049-0.34c0,0,0.021,0.017,0.047,0.036l1.231-0.88  l0.382-0.208c0.016-0.631,0.302-1.388,0.62-2.428c0.366-1.198,3.096-3.43,4.627-3.629c1.532-0.199,2.465,0.199,4.529,1.698  c2.063,1.499,2.297,4.926,2.297,5.526c0,0.48-0.279,1.121-0.628,1.268l-0.036,0.1c-0.149,0.409-0.989,1.074-1.189,1.217  c-0.143,0.104-0.382,0.56-0.557,0.893c-0.225,0.431-0.359,0.68-0.506,0.797c-0.212,0.17-0.562,0.177-0.87,0.183  c-0.122,0.001-0.308,0.005-0.357,0.025c-0.118,0.065-0.41,0.589-0.507,1.023c-0.098,0.438-0.242,0.917-0.75,1.062  c-0.09,0.025-0.186,0.038-0.294,0.038h-0.001c-0.129,0-0.252-0.019-0.36-0.035c-0.081-0.011-0.156-0.023-0.21-0.023  c-0.032,0-0.043,0.005-0.043,0.005c-0.226,0.112-1.129,0.395-1.442,0.478c-0.111,0.029-0.301,0.146-0.483,0.259  c-0.267,0.165-0.57,0.351-0.866,0.43c-0.081,0.021-0.169,0.031-0.259,0.031c-0.391,0-0.768-0.199-0.926-0.294  c-0.107,0.539-0.187,1.62,0.463,2.967c0.138,0.515,0.911,1.877,1.684,3.225c0.124-1.337,0.19-3.106-0.024-3.438  c-0.174-0.27-0.229-0.485-0.175-0.683c0.072-0.262,0.311-0.38,0.521-0.483c0.046-0.022,0.093-0.045,0.139-0.071  c0.185-0.101,0.302-0.298,0.388-0.442c0.062-0.107,0.112-0.192,0.192-0.245c0.11-0.073,0.269-0.081,0.416-0.066  c0.256-0.381,0.487-0.574,0.689-0.574c0.108,0,0.357-0.064,0.536-0.118c0.001-0.021,0.004-0.042,0.005-0.061  c0.025-0.248,0.071-0.71,0.463-0.753c0.195-0.021,0.5,0.045,0.98,0.156c0.318,0.072,0.647,0.148,0.905,0.177  c0.374,0.042,0.679-0.071,1-0.19c0.13-0.048,0.265-0.098,0.403-0.137c0.537-0.15,1.364-0.314,2.343,0.002  c0.936,0.304,1.604,1.042,2.084,1.651c0.048,0.062,0.102,0.176,0.158,0.326c0.435,0.321,1.027,0.778,1.342,1.094  c0.533,0.532,0.3,1.265,0.999,1.297c0.699,0.033,1.465,1.365,1.531,1.865c0.067,0.499-0.299,1.065-0.099,1.3  c0.199,0.231,0.498,0.599,0.933,1.163c0.433,0.565,1.098,1.931,1.397,2.631c0.3,0.698,0.366,2.13,0.433,2.861  c0.066,0.734-0.1,2.166-0.066,2.864c0.033,0.699,1.165,0.834,1.531,1.166c0.366,0.334,0.033,1.031,0.033,1.031  s0.433,0.601,0.532,1.366c0.101,0.765-0.532,1.032-0.299,1.298c0.232,0.267,0.699,1.365,0.733,2.097  c0.032,0.733,0.364,0.967,0.932,1.167c0.563-0.192,0.532-0.392,1.031-0.7c-0.199,1.565-2.124,0.833-2.124,0.833s0.027,0.399,0,0.831  c-0.025,0.434-0.772,0.899-1.039,1.2c-0.266,0.3-1.23-0.101-1.664-0.2c-0.433-0.101-1.231-0.866-1.865-1.364  c-0.632-0.501-0.866,0.531-1.164,0.565c-0.301,0.033-0.634-0.731-0.933-0.965c-0.3-0.234-0.367-1.831-0.367-2.477  c0-0.644,0.2-2.584,0.167-2.951c-0.033-0.366-0.433-0.7-0.898-1.166c-0.466-0.465-0.699-1.697-0.732-2.598  c-0.033-0.897,0.632-2.264,0.898-3.528c0.268-1.264,0.633-2.63,0.399-3.328c-0.233-0.7-0.799-0.234-1.265,0.267  c-0.467,0.499-2.396,2.329-3.263,2.53c-0.865,0.199-2.964-0.068-3.363-0.5c-0.188-0.204-0.298-0.409-0.3-0.639  c-0.015,0-0.043-0.001-0.055-0.001c-0.075,0.123-0.23,0.425-0.352,0.68l-0.03,0.063l-0.057,0.037c0,0-0.13,0.096-0.152,0.258  c-0.024,0.181,0.1,0.377,0.207,0.51c0.117,0.141,0.288,0.28,0.487,0.44c0.738,0.595,1.75,1.407,1.362,3.622  c-0.399,2.282-1.877,9.088-3.105,10.82c-0.134,0.189-0.268,0.386-0.399,0.579c-0.767,1.116-1.431,2.084-2.158,2.084H49.26  c-0.062-0.003-0.118-0.021-0.176-0.037l11.889,15.569l0.828,1.084c0.134,0.092,3.412,2.311,4.359,3.109  c0.41,0.345,2.085,2.156,4.024,4.256c2.552,2.76,5.729,6.196,6.344,6.615c1.096,0.747,2.83,1.632,3.534,1.868  c0.104,0.034,0.26,0.077,0.455,0.133c1.187,0.332,3.655,1.024,4.432,2.483C85.542,92.674,85.704,93.444,85.461,93.986z   M54.914,21.999c0.051-0.06,0.102-0.108,0.154-0.146c0.325-0.231,0.715-0.592,0.903-0.82c-0.175-0.172-0.195-0.398-0.211-0.564  c-0.01-0.091-0.017-0.174-0.044-0.249c-0.135,0.209-0.328,0.673-0.465,1C55.142,21.484,55.027,21.758,54.914,21.999z M34.98,6.593  c0.113,0.152,0.219,0.314,0.256,0.457c0.069,0.257,0.14,0.765,0.078,1.145c0.027,0.032,0.055,0.07,0.081,0.099  c0.3,0.194,0.693,0.411,0.829,0.431v0.001l0.011,0.002c0.01,0.001,0.851,0.172,1.526,0.172c0.502,0,0.634-0.095,0.655-0.114  c0.206-0.183,0.229-0.977,0.243-1.404c0.015-0.465,0.024-0.676,0.123-0.807c0.091-0.122,0.284-0.265,0.526-0.265  c0.224,0,0.59,0.125,0.729,0.877c0.163,0.486,0.105,0.926,0.063,1.248c-0.016,0.117-0.037,0.274-0.024,0.336  c0.029,0.007,0.113,0.017,0.312-0.019c0.201-0.17,0.63-1.068,0.565-1.272c-0.24-0.482-1.463-2.013-1.826-1.981  C38.622,5.542,36.146,6.22,34.98,6.593z M28.668,87.876l-2.221-1.348l-0.818,0.378c-0.406,0.378-0.936,0.718-1.379,1.421  C25.834,89.714,27.492,88.903,28.668,87.876z M29.647,86.755L29.6,86.929c0.015-0.018,0.03-0.034,0.044-0.051  C29.645,86.833,29.646,86.797,29.647,86.755z M29.784,84.133l-1.938,1.091l1.836,0.536C29.714,85.131,29.751,84.591,29.784,84.133z   M29.795,87.868c-0.002,0.014-0.007,0.022-0.009,0.036l0.009-0.014V87.868z M30.936,66.513c0.048-0.711,0.126-1.907,0.192-2.914  c-0.084-0.067-0.158-0.125-0.22-0.175c-0.904-0.725-4.757-4.957-5.478-5.75c-0.039,0.004-0.076,0.007-0.115,0.01l0.008,0.1  c-4.161,0.333-6.818,0.645-7.483,0.881c-1.54,0.549-3.5,1.582-2.74,4.225c0.848,2.95,2.534,5.882,4.321,8.984  c0.692,1.201,3.004,5.366,4.115,7.367c0.037,0.066,0.071,0.13,0.106,0.191l0.003-0.001l0.335,0.607  c0.021,0.039,0.041,0.074,0.059,0.108c0.024,0.043,0.038,0.069,0.042,0.075l-0.004,0.003c0.037,0.089,0.035,0.162,0.004,0.229  c0.506,1.054,1.184,2.442,1.646,3.312l0.669,0.766l3.427-2.309c-0.094-0.871-0.453-1.579-1.444-2.84  c-0.018-0.16-1.549-3.759-2.643-6.313l-1.519-3.123l-1.569-4.367c-0.267-0.144-1.096-0.586-1.472-0.781l0.225-0.445  c0.854,0.422,1.979,0.894,2.573,0.953c0.16,0.016,0.566,0.074,1.239,0.18l-0.016,0.099C26.585,65.799,28.872,66.172,30.936,66.513z   M25.153,65.88l-0.015,0.099c-0.655-0.102-1.063-0.16-1.212-0.177c-0.21-0.02-0.459-0.08-0.725-0.163l1.479,4.112l0.064,0.132  c0.121-0.936,0.218-1.69,0.272-2.098c0.055-0.412,0.106-1.091,0.151-1.903C25.163,65.881,25.158,65.881,25.153,65.88z   M31.242,74.737c-0.211,1.462-0.434,3.055-0.638,4.605c0.003,0.003,0.005,0.006,0.008,0.008l0.63-4.611V74.737z M33.85,15.641  c0.769-2.062,1.737-4.801,1.737-5.221c0-0.505,0.16-1.005,0.271-1.298c-0.312-0.136-0.674-0.37-0.763-0.429l-0.025-0.017  l-0.018-0.019C34.569,9,32.64,10.22,32.64,10.22c-0.35,0.2-2.347,1.398-2.996,1.998s0.05,0.699,1.099,1.698  C31.414,14.556,32.879,15.233,33.85,15.641z M37.258,15.665c-0.024-1.473-0.056-3.61-0.023-4.04  c0.057-0.721,0.188-0.893,0.546-1.351l0.006-0.008c0.225-0.287,0.508-0.429,0.758-0.554c0.196-0.097,0.381-0.188,0.537-0.344  c0.309-0.308,0.6-0.599,0.501-1.825C39.536,6.962,39.384,6.81,39.31,6.81c-0.044,0-0.091,0.028-0.115,0.052  c-0.021,0.086-0.029,0.344-0.036,0.536c-0.018,0.64-0.043,1.436-0.408,1.762c-0.186,0.164-0.5,0.24-0.988,0.24  c-0.523,0-1.118-0.09-1.423-0.145c-0.096,0.25-0.253,0.725-0.253,1.166c0,0.583-1.194,3.855-1.774,5.409  c0.292,0.115,0.477,0.184,0.477,0.184s1.248-0.849,1.646-0.948C36.565,15.032,36.868,15.291,37.258,15.665z M49.467,29.61  c0.396,0.613,0.154,3.288,0.079,4.023c0.19,0.295,0.773,1.217,1.153,2.021c0.617,0.493,1.611,1.206,2.394,1.429  c0.029-0.044,0.057-0.085,0.079-0.106c0.066-0.065,0.121-0.104,0.544-0.094c0.085-0.133,0.192-0.271,0.354-0.429  c0.721-0.699,0.478-1.598,0.078-2.03c-0.398-0.433,0.832,0.467,1.299,0.632c0.466,0.167,2.131-0.698,2.342-1.361  c0.209-0.661-1.643-1.568-1.81-1.801c-0.166-0.232,0.732-0.732,1.932-0.732c1.198,0,0.067-0.932,0.134-1.398  c0.065-0.466,0.932-0.033,1.364-0.133c0.369-0.086,0.148-0.507,0.151-1.251c-0.005-0.008-0.01-0.021-0.015-0.026  c-0.435-0.553-1.037-1.223-1.846-1.484c-0.849-0.275-1.578-0.13-2.052,0.004c-0.12,0.032-0.239,0.076-0.365,0.124  c-0.346,0.127-0.736,0.271-1.228,0.219c-0.288-0.032-0.631-0.112-0.963-0.188c-0.285-0.064-0.634-0.145-0.781-0.146  c-0.029,0.068-0.046,0.232-0.053,0.308c-0.019,0.189-0.038,0.385-0.229,0.448c-0.021,0.007-0.504,0.166-0.78,0.179  c-0.079,0.051-0.256,0.271-0.385,0.481l-0.092,0.151l-0.175-0.039c-0.068-0.015-0.152-0.025-0.205-0.023  c-0.013,0.021-0.029,0.049-0.043,0.072c-0.102,0.172-0.271,0.459-0.577,0.625c-0.053,0.03-0.104,0.056-0.156,0.082  c-0.101,0.049-0.249,0.122-0.263,0.169C49.347,29.361,49.361,29.448,49.467,29.61z M43.931,19.919  c0.422,0.344,1.032,0.866,1.361,1.255c0.533,0.632,1.931,3.763,1.863,4.395c-0.037,0.353-0.072,0.669-0.098,0.889l0.119,0.241  c0.14,0.084,0.427,0.226,0.675,0.226c0.047,0,0.092-0.005,0.132-0.016c0.225-0.059,0.495-0.225,0.732-0.37  c0.232-0.145,0.433-0.268,0.614-0.316c0.349-0.094,1.188-0.362,1.352-0.443c0.074-0.038,0.16-0.055,0.264-0.055  c0.091,0,0.185,0.013,0.282,0.027c0.098,0.016,0.195,0.03,0.289,0.03c0.062,0,0.112-0.007,0.156-0.02  c0.197-0.056,0.298-0.23,0.399-0.688c0.085-0.383,0.416-1.206,0.793-1.373c0.139-0.062,0.329-0.066,0.551-0.07  c0.182-0.002,0.487-0.007,0.567-0.072c0.074-0.061,0.255-0.408,0.376-0.638c0.114-0.221,0.216-0.412,0.312-0.572  c-0.11,0.102-0.235,0.152-0.375,0.152c-0.284,0-0.524-0.225-0.735-0.425c-0.109-0.103-0.259-0.242-0.334-0.26  c-0.119,0-0.428,0.344-0.576,0.511c-0.267,0.295-0.477,0.528-0.721,0.528c-0.014,0-0.027,0-0.04-0.002  c-0.107-0.012-0.201-0.068-0.263-0.159c-0.199-0.287-0.056-0.912,0.204-1.908l0.011-0.042c0.159-0.61,0.029-0.779-0.503-1.045  c-0.084-0.041-0.17-0.062-0.265-0.062c-0.345,0-0.713,0.272-0.98,0.471c-0.034,0.024-0.064,0.048-0.094,0.068  c-0.088,0.064-0.179,0.166-0.285,0.283c-0.276,0.308-0.653,0.727-1.346,0.858c-0.067,0.015-0.143,0.021-0.222,0.021  c-1.003,0-2.87-1.103-2.95-1.148l-0.096-0.058l-0.021-0.108c-0.003-0.017-0.068-0.344-0.142-0.828L43.931,19.919z M44.359,44.937  l0.08,0.503c0.521,3.274,4.328,10.035,4.365,10.104c0.157,0.278,0.318,0.425,0.476,0.432c0.465,0.021,1.155-0.983,1.762-1.867  c0.134-0.194,0.27-0.393,0.405-0.584c1.077-1.521,2.521-7.769,3.021-10.62c0.337-1.923-0.47-2.572-1.184-3.145  c-0.212-0.171-0.411-0.331-0.562-0.515c-0.167-0.204-0.244-0.405-0.282-0.604c-0.383-0.027-1.185-0.262-1.753-0.63  c-0.148,0.294-0.316,0.579-0.475,0.835c-0.205,0.327-0.397,0.637-0.44,0.826c0.197,2.049,0.469,4.028,0.513,4.198  c0.051,0.205,0.146,1.06-0.086,2.256c-0.17,0.886-0.395,1.766-0.482,2.102c0.785,0.765,1.222,1.423,1.298,1.959l-0.493,0.072  c-0.059-0.412-0.473-1.001-1.152-1.663c-0.036-0.036-0.065-0.07-0.104-0.107c-0.114-0.108-0.234-0.217-0.358-0.324  c-0.601-0.521-1.036-1.457-1.388-2.212c-0.112-0.243-0.22-0.474-0.317-0.656c-0.422-0.791-1.026-2.723-1.077-3.447  c-0.055-0.766,0.596-1.338,1.072-1.755l0.109-0.095c0.396-0.354,1.124-1.781,1.224-2.13c0.046-0.157,0.115-0.356,0.184-0.534  c-0.091,0.041-0.185,0.098-0.266,0.18c-0.173,0.172-0.404,0.488-0.625,0.794c-0.207,0.282-0.42,0.575-0.613,0.792  c-0.062,0.069-0.246,0.277-0.499,0.239c-0.268-0.04-0.389-0.31-0.517-0.596c-0.045-0.097-0.089-0.196-0.14-0.286  c-0.146-0.267-0.188-0.54-0.234-0.831c-0.042-0.271-0.091-0.577-0.229-0.95c-0.116-0.307-0.185-0.743-0.26-1.205  c-0.09-0.564-0.241-1.512-0.485-1.593l-0.109-0.037l-0.023-0.06c-0.089,0.077-0.223,0.19-0.397,0.139  c-0.077-0.023-0.18-0.087-0.229-0.259c-0.068-0.241-0.2-0.328-0.45-0.286c-0.069,0.212,0.026,0.934,0.117,1.388  c0.006,0.022,0.012,0.046,0.018,0.069c0.015,0.061,0.025,0.112,0.033,0.156c0.001,0.002,0.002,0.005,0.003,0.009h-0.001  c0.021,0.126,0.006,0.198-0.094,0.271l-0.137,0.098l-0.142-0.09c-0.045-0.026-0.076-0.047-0.113-0.171h-0.001  c-0.017-0.056-0.034-0.132-0.056-0.241c-0.112-0.443-0.226-0.596-0.316-0.647c-0.053,0.331-0.012,1.247,0.127,2.027  c0.028,0.161,0.263,1.569-0.167,1.825c-0.121,0.072-0.266,0.059-0.386-0.037c-0.124-0.102-0.306-0.374-0.615-0.846  c-0.163-0.25-0.404-0.618-0.575-0.841c0.011,0.133,0.048,0.356,0.142,0.73c0.187,0.75,1.122,2.189,1.132,2.205l0.022,0.037  l0.011,0.042c0.003,0.012,0.332,1.378,0.844,2.337l0.095,0.179C43.999,42.66,44.005,42.702,44.359,44.937z M77.254,89.783  l-0.257-1.824c-0.265-0.159-0.521-0.319-0.75-0.475c-0.663-0.452-3.726-3.766-6.429-6.69c-1.849-1.998-3.594-3.887-3.979-4.211  c-0.927-0.782-4.29-3.059-4.324-3.081l-2.137-2.757c-0.948-0.655-2.24-1.403-3.666-1.801c-2.896-0.809-11.453-6.288-11.453-6.288  l3.209,5.019c1.316,1.301,4.506,4.503,6.948,6.793l9.042,6.97c1.784,1.394,5.145,3.708,7.367,5.24  c0.901,0.621,1.615,1.113,2.012,1.396c0.866,0.619,1.546,1.384,2.146,2.061c0.156,0.176,0.3,0.334,0.44,0.485L77.254,89.783z   M77.286,90.957l-0.871,0.462c0.122,0.067,0.232,0.147,0.363,0.201C76.931,91.345,77.286,90.957,77.286,90.957z M78.43,89.359  l0.848-0.2c-0.256-0.114-0.543-0.252-0.848-0.408V89.359z M82.458,90.25c-0.293-0.126-0.589-0.235-0.875-0.332l-2.987,0.811  c0,0-0.305,1.104,0,1.553v0.002c0.052,0.022,0.107,0.041,0.156,0.067c0.413,0.22,0.762,0.51,1.132,0.816  c0.03,0.024,0.063,0.05,0.094,0.075c0.761,0.137,2.085,0.211,2.437-0.876C82.734,91.379,82.669,90.674,82.458,90.25z M49.369,48.596  c-0.016,0.069-0.032,0.142-0.05,0.217C49.333,48.755,49.354,48.666,49.369,48.596z"></path></svg>