<svg height='100px' width='100px'  fill="#000000" xmlns="http://www.w3.org/2000/svg" xmlns:xlink="http://www.w3.org/1999/xlink" version="1.1" x="0px" y="0px" viewBox="0 0 65 65" enable-background="new 0 0 65 65" xml:space="preserve"><g><g><circle cx="40.608" cy="38.267" r="2.915"></circle></g><g><circle cx="24.309" cy="38.267" r="2.915"></circle></g><g><path d="M62.689,34.175c0-1.734-0.552-3.331-1.475-4.651v-0.267C61.214,13.4,48.314,0.5,32.459,0.5    C16.604,0.5,3.704,13.4,3.704,29.257v0.369c-0.877,1.299-1.392,2.862-1.392,4.549c0,4.431,3.534,8.016,7.934,8.141    C14.075,53.496,22.571,64.5,32.451,64.5c5.899,0,11.306-3.928,15.536-9.462c-1.558,0.271-3.26,0.397-5.073,0.414    c-0.509,0.366-1.081,0.604-1.686,0.7c-0.016,0-0.016,0-0.016,0c-3.848,2.958-7.649,4.007-9.35,4.15    c-0.509,0.048-13.85-2.02-18.493-23.232c-0.413-1.892,1.049-3.801,2.878-4.437c6.933-2.385,7.792-12.785,7.792-12.785    c3.403,9.621,18.446,11.465,18.446,11.465c-2.322-1.288-2.512-4.071-2.512-4.071c4.945,0.366,8.412,2.242,10.257,3.546    c0.986,0.684,1.654,1.813,1.574,3.006c-0.382,6.233-1.94,11.083-4.055,14.805c2.306-0.477,4.087-1.304,5.232-2.449    c0.143-0.143,0.27-0.286,0.382-0.429c0.461-1.097,0.891-2.194,1.272-3.308c0.015-0.042,0.025-0.084,0.04-0.126v0.039    c0.533-0.01,1.052-0.076,1.555-0.184c-0.006,1.09-0.273,3.256-2.12,5.122c-2.263,2.286-6.268,3.416-11.705,3.392    c-0.412-0.472-1.005-0.785-1.681-0.817c-1.662-0.079-3.479-0.262-5.399-0.547c-1.301-0.208-2.517,0.705-2.708,2.01    c-0.194,1.303,0.707,2.516,2.009,2.708c2.078,0.307,4.053,0.508,5.872,0.593c0.039,0.001,0.078,0.003,0.115,0.003    c0.68,0,1.293-0.294,1.73-0.757c0.092,0,0.195,0.012,0.286,0.012c6.264,0,10.872-1.458,13.743-4.361    c3.687-3.725,2.997-8.372,2.966-8.569l-0.361,0.057C61.205,39.535,62.689,37.037,62.689,34.175z M32.451,6.204    c-12.002,0-21.949,8.67-23.978,20.088c-0.51,0.129-0.999,0.303-1.465,0.522C8.242,13.853,19.181,3.68,32.459,3.68    c13.261,0,24.192,10.148,25.449,23.086c-0.467-0.213-0.958-0.38-1.468-0.503C54.397,14.859,44.443,6.204,32.451,6.204z"></path></g></g></svg>