<?xml version="1.0" encoding="utf-8"?>
<!-- Generator: Adobe Illustrator 24.2.1, SVG Export Plug-In . SVG Version: 6.00 Build 0)  -->
<svg version="1.1" id="Layer_1" xmlns="http://www.w3.org/2000/svg" xmlns:xlink="http://www.w3.org/1999/xlink" x="0px" y="0px"
	 viewBox="0 0 100 100" enable-background="new 0 0 100 100" xml:space="preserve">
<g>
	<path fill-rule="evenodd" clip-rule="evenodd" d="M76.269,32.704l-4.959-15.348l10.862-2.361l7.084,12.279l7.084,12.397
		l-7.438,8.146L78.04,35.773l-15.348,6.848L76.269,32.704z M31.523,17.946l-0.118,0.236l0,0l-4.368,13.459l11.452,8.383l9.917,7.202
		l-1.299-12.161l-1.535-14.168l-13.813-2.952H31.523z M70.366,14.64L66.234,1.771H33.766l-4.25,12.869l-13.105-2.834L0.118,40.024
		l8.973,9.917L0.118,59.976l16.293,28.217l13.105-2.834l4.25,12.751h32.468l4.132-12.751l13.223,2.834l16.293-28.217l-9.091-10.035
		l9.091-9.917L83.589,11.806L70.366,14.64z M62.692,57.379l15.348,6.73l10.862-12.043l7.438,8.264l-7.084,12.279l-7.084,12.279
		l-10.862-2.243l4.959-15.466L62.692,57.379z M67.651,15.23l-15.939,3.306l-1.771,16.765L48.17,18.536L32.349,15.23l0.826-2.597
		l2.597-8.028h14.168h14.286L67.651,15.23z M53.247,49.941L64.345,54.9l12.987,5.785l9.445-10.508l0.236-0.236l-0.236-0.118
		l-9.445-10.626l-12.987,5.785L53.247,49.941z M68.477,17.946h-0.236l-13.932,2.952l-1.417,14.168l-1.299,12.161l4.368-3.188
		l5.549-4.014l0,0l11.452-8.383l-4.368-13.459L68.477,17.946z M49.941,64.699l1.771,16.647l15.939,3.424l-3.424,10.508H49.941
		H35.773L32.349,84.77l15.821-3.424L49.941,64.699z M51.594,52.774l1.299,12.161l1.417,14.05l13.932,2.952l0.236,0.118l0.118-0.236
		l4.368-13.577l-11.452-8.264L51.594,52.774z M37.19,57.379l-13.577,9.799l5.077,15.466l-10.862,2.243l-7.084-12.279L3.66,60.331
		l7.438-8.264L21.96,64.109L37.19,57.379z M48.406,52.774l-9.917,7.202l-11.452,8.264l4.368,13.577l0.118,0.236l0.236-0.118
		l13.813-2.952l1.535-14.05L48.406,52.774z M37.19,42.621l-15.348-6.848L11.098,47.816L3.66,39.669l7.084-12.397l7.084-12.279
		l10.862,2.361l-5.077,15.348L37.19,42.621z M46.753,49.941l-11.098-4.959l-12.987-5.785l-9.563,10.626l-0.118,0.118l0.118,0.236
		l9.563,10.508L35.655,54.9L46.753,49.941z"/>
</g>
</svg>
