<svg height='100px' width='100px'  fill="#000000" xmlns:dc="http://purl.org/dc/elements/1.1/" xmlns:cc="http://creativecommons.org/ns#" xmlns:rdf="http://www.w3.org/1999/02/22-rdf-syntax-ns#" xmlns:svg="http://www.w3.org/2000/svg" xmlns="http://www.w3.org/2000/svg" xmlns:sodipodi="http://sodipodi.sourceforge.net/DTD/sodipodi-0.dtd" xmlns:inkscape="http://www.inkscape.org/namespaces/inkscape" version="1.1" x="0px" y="0px" viewBox="0 0 100 100"><g transform="translate(0,-952.36218)"><path style="text-indent:0;text-transform:none;direction:ltr;block-progression:tb;baseline-shift:baseline;color:#000000;enable-background:accumulate;" d="m 89.992643,970.36385 c -4.44424,1.7558 -8.81467,3.63635 -12.10887,5.9693 -2.7304,-0.55818 -5.76952,-1.64907 -8.32288,-2.40647 -4.2859,-1.25911 -9.33458,-2.56274 -13.54816,-2.56274 -7.19947,0 -17.185176,1.95467 -22.528115,5.15673 -0.544806,0.32738 -0.613425,1.21838 -0.125157,1.62515 l 3.347929,2.65649 -2.909882,0.59381 c -0.775602,0.14482 -1.029859,1.37232 -0.375468,1.81267 6.178387,4.11415 13.431113,6.15681 22.590693,6.15681 3.74276,0 9.01489,-1.27369 13.54816,-2.53148 2.8413,-0.77606 5.64511,-1.68654 8.2916,-2.40648 4.08114,2.95164 8.96145,4.9099 12.95366,5.90681 0.81954,0.20635 1.555,-0.98738 1.00125,-1.62516 l -7.44679,-8.37577 6.47683,-8.34452 c 0.48401,-0.60079 -0.0744,-1.67496 -0.8448,-1.62515 z m -33.97991,3.00028 c 3.79641,0 8.76023,1.22785 12.98495,2.46897 3.09754,0.81039 6.05495,2.1045 9.04254,2.53148 2.95184,-1.60007 6.12492,-3.51371 8.97996,-4.68793 l -4.75595,6.09432 c -0.28868,0.36319 -0.27475,0.93269 0.0313,1.28136 l 5.44429,6.12557 c -3.09382,-1.09767 -6.3313,-2.51622 -9.10511,-4.59417 -0.39926,-0.2988 -0.76273,-0.17166 -1.1577,-0.12506 -2.87931,0.79823 -5.96694,1.73977 -8.47933,2.43772 -4.47797,1.24244 -9.71897,2.46898 -12.98495,2.46898 -7.74023,0 -13.828367,-1.56684 -19.148898,-4.53167 l 2.315389,-0.46879 c 0.76362,-0.1305 1.054252,-1.31242 0.438047,-1.78142 l -3.723397,-2.96902 c 5.099427,-2.23281 13.659999,-4.18231 20.118819,-4.25034 z m -13.016245,3.00027 c -1.10595,0 -2.002499,0.89551 -2.002499,2.00018 0,1.10467 0.896549,2.00019 2.002499,2.00019 1.105949,0 2.002505,-0.89552 2.002505,-2.00019 0,-1.10467 -0.896556,-2.00018 -2.002505,-2.00018 z m 5.006245,0 c 1.00125,3.00028 1.00125,5.00046 0,8.00074 3.00375,-2.00018 3.00375,-6.00056 0,-8.00074 z m 16.95867,16.00148 c -4.44424,1.75581 -8.81467,3.63634 -12.10886,5.96934 -2.73041,-0.5582 -5.76954,-1.6491 -8.322892,-2.4065 -4.285901,-1.2591 -9.334566,-2.56275 -13.548157,-2.56275 -7.199461,0 -17.185176,1.95465 -22.5281149,5.15675 -0.544806,0.3274 -0.613425,1.2184 -0.125157,1.62508 l 3.3479289,2.6565 -2.9098819,0.5938 c -0.775591,0.1449 -1.029846,1.3723 -0.375468,1.8127 6.1783869,4.1142 13.4311149,6.1568 22.5906929,6.1568 3.742765,0 9.014892,-1.2737 13.548157,-2.5315 2.960062,-0.836 5.714402,-1.6755 8.291602,-2.4064 4.08114,2.9516 8.96146,4.9098 12.95366,5.9067 0.81955,0.2064 1.55498,-0.9873 1.00125,-1.6251 l -7.44679,-8.3758 6.47683,-8.34447 c 0.48401,-0.60078 -0.0744,-1.67495 -0.8448,-1.62515 z m -33.979909,3.00024 c 3.796404,0 8.760235,1.2279 12.984954,2.469 3.275325,0.8276 6.059605,2.1171 9.042535,2.53148 2.95184,-1.60008 6.12492,-3.51368 8.97996,-4.68788 l -4.75594,6.09428 c -0.28869,0.3632 -0.27476,0.9327 0.0313,1.2813 l 5.44428,6.1256 c -3.09382,-1.0977 -6.33129,-2.5162 -9.10511,-4.5942 -0.39927,-0.2988 -0.76273,-0.1716 -1.15769,-0.125 -2.82164,0.7648 -5.86202,1.7094 -8.479335,2.4377 -4.47798,1.2424 -9.718973,2.469 -12.984954,2.469 -7.740225,0 -13.828366,-1.5669 -19.148898,-4.5317 l 2.315389,-0.4688 c 0.76362,-0.1305 1.054252,-1.3124 0.438047,-1.7814 l -3.723397,-2.96898 c 6.581549,-2.3214 13.660005,-4.1823 20.118819,-4.2504 z m -12.014994,3.0003 c -1.105951,0 -2.002501,0.8955 -2.002501,2.00018 0,1.1047 0.89655,2.0002 2.002501,2.0002 1.105949,0 2.002499,-0.8955 2.002499,-2.0002 0,-1.10468 -0.89655,-2.00018 -2.002499,-2.00018 z m 5.006248,0 c 1.001248,3.00028 1.001248,5.00048 0,8.00068 3.003747,-2.0001 3.003747,-6.0005 0,-8.00068 z m 66.019895,16.00148 c -4.44424,1.7558 -8.81467,3.6364 -12.10887,5.9693 -2.7304,-0.5582 -5.76953,-1.649 -8.32288,-2.4065 -4.2859,-1.2591 -9.33458,-2.5627 -13.54816,-2.5627 -7.19947,0 -17.185176,1.9547 -22.528115,5.1567 -0.544806,0.3274 -0.613425,1.2184 -0.125157,1.6252 l 3.347929,2.6565 -2.909882,0.5938 c -0.775602,0.1448 -1.029859,1.3723 -0.375468,1.8127 6.178387,4.1141 13.431113,6.1568 22.590693,6.1568 3.74276,0 9.01489,-1.2737 13.54816,-2.5315 2.84131,-0.7761 5.64511,-1.6865 8.2916,-2.4065 4.08114,2.9517 8.96145,4.9099 12.95366,5.9068 0.81954,0.2064 1.55498,-0.9873 1.00125,-1.6251 l -7.44679,-8.3758 6.47683,-8.3445 c 0.48401,-0.6008 -0.0744,-1.675 -0.8448,-1.6252 z m -33.97991,3.0003 c 3.79641,0 8.76023,1.2279 12.98495,2.469 3.11965,0.8062 6.02258,2.1119 9.04254,2.5315 2.95184,-1.6001 6.12492,-3.5138 8.97996,-4.688 l -4.75595,6.0943 c -0.28869,0.3632 -0.27476,0.9327 0.0313,1.2814 l 5.44429,6.1256 c -3.09382,-1.0977 -6.3313,-2.5163 -9.10511,-4.5942 -0.39927,-0.2988 -0.76273,-0.1717 -1.1577,-0.1251 -2.87931,0.7983 -5.96695,1.7398 -8.47933,2.4378 -4.47797,1.2424 -9.71897,2.4689 -12.98495,2.4689 -7.74023,0 -13.828367,-1.5668 -19.148898,-4.5316 l 2.315389,-0.4688 c 0.76362,-0.1305 1.054252,-1.3124 0.438047,-1.7814 l -3.723397,-2.9691 c 6.581552,-2.3213 13.659989,-4.1823 20.118819,-4.2503 z m -12.014995,3.0003 c -1.10595,0 -2.0025,0.8955 -2.0025,2.0002 0,1.1046 0.89655,2.0001 2.0025,2.0001 1.105955,0 2.002495,-0.8955 2.002495,-2.0001 0,-1.1047 -0.89654,-2.0002 -2.002495,-2.0002 z m 5.006245,0 c 1.00125,3.0002 1.00125,5.0004 0,8.0007 3.00375,-2.0002 3.00375,-6.0005 0,-8.0007 z" fill="#000000" fill-opacity="1" stroke="none" marker="none" visibility="visible" display="inline" overflow="visible"></path></g></svg>