<svg height='100px' width='100px'  fill="#000000" xmlns="http://www.w3.org/2000/svg" xmlns:xlink="http://www.w3.org/1999/xlink" version="1.1" x="0px" y="0px" viewBox="0 0 100 100" enable-background="new 0 0 100 100" xml:space="preserve"><rect x="5.892" y="39.185" width="10.915" height="38.83"></rect><path d="M14.694,36.646h-6.69c-0.552,0-1-0.448-1-1s0.448-1,1-1h6.69c0.552,0,1,0.448,1,1S15.246,36.646,14.694,36.646z"></path><path d="M31.712,32.735c0.552,0,1-0.448,1-1s-0.448-1-1-1h-3.901v-0.817h1.817c0.552,0,1-0.448,1-1s-0.448-1-1-1h-1.817v-0.76  c0-0.552-0.448-1-1-1s-1,0.448-1,1v0.76h-1.816c-0.552,0-1,0.448-1,1s0.448,1,1,1h1.816v0.817h-3.841c-0.552,0-1,0.448-1,1  s0.448,1,1,1h3.841v0.816h-3.195c-0.552,0-1,0.448-1,1s0.448,1,1,1h3.195v0.817h-1.816c-0.552,0-1,0.448-1,1s0.448,1,1,1h1.816  v13.959h-4.428v25.688h10.915V52.327h-4.487V38.368h1.817c0.552,0,1-0.448,1-1s-0.448-1-1-1h-1.817v-0.817h3.138  c0.552,0,1-0.448,1-1s-0.448-1-1-1h-3.138v-0.816H31.712z"></path><path d="M69.085,79.015h-12.33c-0.553,0-1-0.447-1-1V51.301c0-0.553,0.447-1,1-1h12.33c0.553,0,1,0.447,1,1v26.714  C70.085,78.567,69.638,79.015,69.085,79.015z"></path><g><polygon points="51.471,46.018 49.416,46.018 49.416,40.667 48.241,40.667 48.241,28.824 42.37,31.466 42.37,40.667 41.196,40.667    41.196,46.018 39.142,46.018 39.142,49.12 51.471,49.12  "></polygon><path d="M39.142,73.15c0.128-0.06,0.267-0.098,0.417-0.098h11.522c0.139,0,0.27,0.028,0.39,0.078V51.12H39.142V73.15z"></path><path d="M51.081,75.053H39.559c-0.15,0-0.29-0.038-0.417-0.098v3.06h12.329v-3.041C51.351,75.024,51.22,75.053,51.081,75.053z"></path></g><path d="M94.25,56.372h-4.062V40.314c0-0.552-0.447-1-1-1h-9.088c-0.553,0-1,0.448-1,1v16.058h-4.064c-0.553,0-1,0.447-1,1v20.643  c0,0.553,0.447,1,1,1H94.25c0.553,0,1-0.447,1-1V57.372C95.25,56.819,94.803,56.372,94.25,56.372z"></path></svg>