<svg height='100px' width='100px'  fill="#000000" xmlns="http://www.w3.org/2000/svg" xmlns:xlink="http://www.w3.org/1999/xlink" xml:space="preserve" version="1.1" style="shape-rendering:geometricPrecision;text-rendering:geometricPrecision;image-rendering:optimizeQuality;" viewBox="0 0 60000 60000" x="0px" y="0px" fill-rule="evenodd" clip-rule="evenodd"><defs><style type="text/css">
   
    .fil0 {fill:#000000;fill-rule:nonzero}
   
  </style></defs><g><path class="fil0" d="M40340 19858c35,139 4,293 -96,410 -165,193 -454,215 -647,50 -541,-464 -739,-575 -790,-516 -97,113 -178,417 -272,770 -69,259 -144,541 -250,832 -4,12 -9,23 -14,35l-646 1624 1 0c-1,4 -3,7 -6,11l-2 4c-5,12 -10,23 -15,34 427,-99 1350,-663 1670,-859 58,-35 98,-60 136,-80 222,-121 501,-39 622,183 33,61 51,126 55,191l1 0 159 2412c16,253 -176,471 -429,487 -32,2 -63,1 -94,-4 -484,-70 -1011,-147 -1517,-263 -526,-121 -1025,-283 -1426,-523l0 1 -2143 -1266c-215,-127 -289,-403 -167,-620 425,-897 388,-1506 129,-1859 -198,-271 -537,-403 -888,-401 -363,2 -732,148 -974,432 -317,374 -417,1009 -16,1916 102,232 -3,503 -235,606 -46,20 -93,32 -139,37 -99,18 -189,43 -271,77 -377,155 -587,510 -686,964 -117,538 -84,1202 22,1872 178,1121 560,2243 813,2858 357,866 323,1489 74,1880 -277,434 -763,574 -1297,452 -244,-56 -500,-170 -747,-338l-2871 1792c943,-226 1880,-461 2809,-704 1858,-484 3208,-920 4400,-1469 567,-262 1100,-550 1637,-884l-721 -4725c-38,-251 135,-485 386,-523 70,-10 138,-5 202,15 478,123 861,265 1230,402 688,255 1328,493 2375,497 251,1 454,204 456,455l10 1042 27 -20c747,-553 1726,-1278 2686,-1852 666,-398 1085,-639 1562,-763 381,-99 762,-114 1285,-64 12,-37 28,-72 50,-106 189,-296 318,-582 399,-858l-6513 -2340c-191,-68 -290,-278 -221,-469 68,-191 278,-290 469,-221l6375 2291c5,-1084 -666,-1974 -1147,-2612 -165,-219 -311,-412 -417,-589 -231,-383 -429,-439 -722,-520 -260,-72 -569,-159 -984,-380 -210,-112 -297,-364 -208,-579 308,-779 213,-1310 -60,-1610 -213,-235 -539,-342 -859,-322 -313,20 -613,164 -784,433 -244,384 -245,1035 274,1981 105,192 59,425 -98,564 -196,196 -428,271 -659,345 -171,55 -343,110 -285,386zm8327 16774c253,0 458,205 458,458 0,253 -205,458 -458,458 -1146,3 -2171,-479 -3066,-904 -301,271 -732,581 -1264,919 -727,462 -1655,983 -2705,1530 -225,117 -503,29 -620,-196 -117,-225 -29,-503 196,-620 1029,-535 1934,-1044 2637,-1490 632,-401 1091,-744 1316,-999l1 1c131,-149 349,-201 538,-112 216,101 241,113 267,125 815,387 1752,832 2700,830zm-149 -3322c253,0 458,205 458,458 0,253 -205,458 -458,458 -1145,3 -2170,-478 -3064,-903 -773,708 -2409,1740 -4409,2841 -2358,1298 -5242,2709 -7804,3799 -233,99 -503,-9 -602,-243 -99,-233 9,-503 243,-602 2531,-1077 5385,-2473 7721,-3760 2164,-1192 3864,-2274 4409,-2894l1 1c131,-149 349,-201 538,-112 216,101 241,113 267,125 815,387 1752,832 2700,830zm-18829 -2557c-709,-836 -1131,-2241 -382,-4022 25,-59 -196,-191 -472,-356 -295,-176 -625,-374 -911,-667 -134,-138 -164,-339 -91,-505l-1 0c497,-1123 443,-1854 133,-2263 -251,-332 -688,-462 -1120,-417 -442,47 -868,276 -1084,660 -252,449 -217,1135 399,2041 143,209 89,495 -120,638l-7 4c-418,310 -794,500 -1118,664 -785,397 -1164,589 -416,2983 13,40 19,81 21,121l371 3924c2,25 3,50 1,74 94,-21 188,-42 282,-63l4514 -2817zm1333 -832c167,-104 386,-57 497,104 -33,-119 -80,-253 -142,-404 -271,-657 -680,-1858 -871,-3062 -123,-773 -157,-1553 -15,-2209 158,-729 525,-1312 1204,-1605 -328,-1049 -117,-1855 340,-2393 423,-497 1055,-752 1671,-756 629,-4 1249,251 1632,774 398,544 529,1359 112,2437l1220 721c-51,-194 -27,-448 89,-772l2 1c2,-5 4,-10 6,-15l653 -1640 3 -8c90,-249 160,-511 224,-753 123,-463 229,-861 462,-1133 325,-379 740,-473 1390,-94 170,-296 507,-405 845,-514l25 -8c-487,-1091 -401,-1931 -39,-2501 340,-534 914,-820 1503,-857 582,-37 1186,171 1596,623 429,473 639,1197 370,2157 168,66 315,107 447,143 506,141 847,236 1265,930 84,140 215,313 363,510 383,508 866,1148 1141,1915l4199 -1784c-41,-116 -20,-239 46,-333l0 0 1218 -1735c46,-65 108,-110 177,-135l4301 -1726c188,-75 402,16 477,204l1124 2801c75,188 -16,402 -204,477l-4202 1686c-76,30 -155,34 -229,15l-2240 -510c-60,-14 -114,-41 -158,-79l-4328 1839c41,275 49,562 15,863l4264 1532c54,-75 134,-125 221,-144l0 -1 2074 -440c79,-17 158,-7 227,24l4320 1664c189,73 283,285 210,474l-1085 2816c-73,189 -285,283 -474,210l-4225 -1628c-72,-28 -130,-76 -171,-135l0 0 -1299 -1909c-52,-76 -71,-164 -61,-249l-4159 -1494c-84,256 -201,519 -355,791 1354,274 2176,840 2537,1767 383,981 193,2321 -473,4115 -74,199 -272,317 -474,298 -1128,-9 -2139,-484 -3022,-903 -1362,1241 -5485,3549 -9535,5464 -3894,1842 -7764,3335 -9131,3200 -764,-75 -957,-471 -1091,-947 -610,395 -1420,728 -2272,999 -1824,581 -3883,896 -4497,930 -77,4 -150,-11 -215,-40l-516 1129c-31,67 -79,121 -137,157l1 1 -3926 2490c-171,109 -399,58 -507,-114l-1617 -2549c-109,-171 -58,-399 114,-507l1477 -937c-22,-17 -42,-35 -61,-56 -63,-70 -128,-145 -193,-224 -66,-80 -135,-167 -209,-261 -145,-186 -247,-318 -353,-458 -147,-192 -302,-396 -462,-600l-3608 2252c61,113 57,245 -2,352l-870 1903c-31,67 -79,121 -137,157l1 1 -3926 2490c-171,109 -399,58 -507,-114l-1617 -2549c-109,-171 -58,-399 114,-507l3823 -2425c73,-46 156,-64 236,-55l2282 92c65,3 126,22 178,54l3568 -2227c-544,-649 -1084,-1185 -1439,-1191 -253,-4 -455,-212 -451,-465 3,-192 123,-354 291,-420l0 -1c739,-290 2192,-52 3540,168 308,50 609,100 890,141l1687 -1053c0,-46 1,-94 3,-144 89,-2482 242,-6728 2078,-6834l341 -20c-50,-375 -53,-707 -20,-998 59,-514 233,-914 476,-1214 326,-402 773,-631 1243,-704 381,-60 777,-17 1132,119 363,139 690,376 925,702 260,360 403,821 353,1366 -34,373 -197,763 -515,1152 -151,185 -339,372 -568,559 604,398 664,653 688,1384 279,-258 384,-305 1179,-128 -811,-2779 -205,-3086 995,-3694 202,-102 425,-215 658,-359 -603,-1074 -565,-1967 -200,-2618 369,-658 1072,-1048 1792,-1123 729,-77 1486,167 1947,776 458,605 609,1555 103,2874 161,122 339,229 504,328 656,392 1179,705 845,1498 -591,1406 -280,2476 252,3090 25,29 50,57 76,83l543 -339zm554 385c-19,95 -77,183 -166,239l-247 154c13,4 27,7 40,10 154,35 278,22 324,-50 48,-75 68,-191 50,-353zm-6583 4244l-6110 3814c39,72 51,153 39,230 762,-79 2484,-372 4040,-867 1032,-329 1977,-741 2474,-1225l0 0c38,-37 82,-67 133,-90 231,-103 502,1 606,232 81,181 126,358 170,527 60,234 114,442 347,465 1190,117 4879,-1334 8650,-3117 4247,-2008 8542,-4420 9486,-5491l1 1c131,-149 349,-201 538,-112 216,101 241,113 267,125 724,344 1543,733 2382,814 496,-1417 639,-2449 367,-3147 -270,-693 -1016,-1097 -2311,-1278 -657,-91 -1048,-104 -1397,-14 -357,93 -727,307 -1322,662 -921,551 -1879,1260 -2610,1802 -128,95 -248,184 -468,344l-290 211c-464,338 -843,614 -1382,1026 -1288,985 -2374,1680 -3625,2257 -1242,573 -2639,1024 -4554,1523 -1785,465 -3599,904 -5430,1308zm-10852 4150l1620 -1028c73,-46 156,-64 236,-55l2282 92c65,3 126,22 178,54l4429 -2765c-2300,471 -4610,884 -6903,1224 -372,55 -927,2 -1560,-89l-1506 940c142,181 279,361 409,531 140,183 273,357 346,450 68,87 133,169 194,243 62,75 117,140 164,192 56,62 92,134 108,210zm3836 230l-2055 1283c-172,107 -399,54 -506,-118 -107,-172 -54,-399 118,-506l1891 -1180 -1365 -55 -3417 2167 1223 1928 3525 -2236 586 -1283zm39737 -12647l-3893 -1500 -1198 254 2316 832c191,68 290,278 221,469 -68,191 -278,290 -469,221l-2444 -878 871 1279 3775 1455 821 -2132zm-5488 -6986l3008 -1278c187,-79 402,8 482,194 79,187 -7,402 -194,482l-2907 1235 1372 312 3755 -1507 -851 -2120 -3873 1554 -792 1127zm-29365 10994c3,3 6,5 9,8 29,-21 57,-43 83,-66 -30,0 -38,8 -50,19 -13,13 -27,26 -42,39zm-1803 1702l-3962 2473c-10,243 -22,465 -39,662 1732,-275 3460,-587 5172,-932 -922,-131 -1357,-653 -1181,-2129 3,-25 6,-50 10,-74zm-4797 2994l-541 338c48,-2 93,-6 132,-12 142,-21 285,-42 427,-64 11,-52 -1,-139 -19,-261zm-3806 1509l863 -539c-535,-87 -1082,-174 -1565,-226 238,231 474,493 702,765zm4674 -2917l4525 -2825c-71,-45 -130,-110 -169,-192 -26,-55 -39,-112 -43,-169l-1 0c-12,-219 -18,-430 -23,-610 -18,-665 -20,-741 -838,-1197 -221,-123 -301,-402 -178,-624 42,-75 101,-134 171,-174 415,-266 718,-528 922,-778 197,-241 296,-461 313,-656 28,-307 -47,-558 -184,-748 -124,-172 -304,-300 -508,-379 -212,-81 -444,-107 -665,-73 -256,40 -497,163 -671,377 -137,169 -237,411 -275,740 -38,329 -13,733 97,1223 55,247 -101,492 -349,546 -25,5 -49,9 -74,10l0 1 -858 49c-931,54 -1111,3278 -1195,5477zm-9505 6799l-2055 1283c-172,107 -399,54 -506,-118 -107,-172 -54,-399 118,-506l1891 -1180 -1365 -55 -3417 2167 1223 1928 3525 -2236 586 -1283zm31597 -17028c-494,277 -1164,607 -1677,666 255,109 553,196 868,268 285,65 585,118 882,165l-72 -1099zm-15283 9845l-227 -2395c-259,285 -605,435 -951,585 -372,162 -744,323 -799,789 -96,809 72,1073 443,1118 342,41 834,-16 1425,-84l109 -13zm13138 -3752c313,-219 634,-454 970,-711 417,-319 787,-590 1214,-901l-12 -1262c-953,-59 -1576,-290 -2239,-536 -156,-58 -315,-117 -480,-174l547 3585z"></path></g></svg>