<svg height='100px' width='100px'  fill="#000000" xmlns:x="http://ns.adobe.com/Extensibility/1.0/" xmlns:i="http://ns.adobe.com/AdobeIllustrator/10.0/" xmlns:graph="http://ns.adobe.com/Graphs/1.0/" xmlns="http://www.w3.org/2000/svg" xmlns:xlink="http://www.w3.org/1999/xlink" version="1.1" x="0px" y="0px" viewBox="0 0 100 100" style="enable-background:new 0 0 100 100;" xml:space="preserve"><g><g i:extraneous="self"><g><path d="M87,64.9c-2.5,1.1-6.7,2.3-11.3,3.6c-1.5,2.8-4.5,5.2-9.2,6.2c-1.1,0.3-2.3,0.4-3.7,0.5c-3.3,0.2-7.2,0-11.5-0.1     c-0.3,0-0.6,0-0.9,0c-1-0.1-2-0.8-2.1-1.8c-0.2-1.3,0.9-2.4,2.2-2.4c0.3,0,0.7,0,1,0c5.6,0.3,10.8,0.5,14.1-0.3     c6-1.4,7.6-5.2,7.1-8.3c-0.4-2.5-2.4-4.9-5.4-4.6C63,58.3,57.9,58.1,53,58c-5.6-0.2-11.4-0.1-15.5,0.5C33,59.2,23.9,63,16,68.9     c-3.9,2.9-8.2,6.3-10.8,8.4c-1.3,1.1-1.5,3-0.4,4.3l12.5,14.9c1.1,1.3,3,1.4,4.2,0.4l4.2-3.6c1-0.8,2.3-1.1,3.6-0.8     C37.4,94.7,46,96,51.5,96c12.2,0.1,35-15.2,41.5-20.1C99.5,71,94.3,61.9,87,64.9z"></path><path d="M37.5,22.3l4.2,0l0,24.7c0,1.6,1.3,2.9,2.9,2.9l10.9,0c0.7,0,1.3-0.6,1.3-1.3V32.7c0-0.8,0.7-1.5,1.5-1.5h8.8     c0.8,0,1.5,0.7,1.5,1.5v15.8c0,0.7,0.6,1.3,1.3,1.3l10.9,0c1.6,0,2.9-1.3,2.9-2.9l0-24.7l4.2,0c1,0,1.7-0.8,1.7-1.7l0-2.1     c0-0.6-0.3-1.2-0.9-1.5L63.7,2.7c-0.5-0.3-1.2-0.3-1.7,0l-8.9,5L53,6c0-0.7-0.6-1.3-1.3-1.3H48c-0.7,0-1.3,0.6-1.3,1.3l0,5.3     l-10,5.7c-0.5,0.3-0.9,0.9-0.9,1.5l0,2.1C35.8,21.6,36.6,22.3,37.5,22.3z"></path></g></g></g></svg>