<?xml version="1.0" encoding="utf-8"?>
<!-- Generator: Adobe Illustrator 24.2.1, SVG Export Plug-In . SVG Version: 6.00 Build 0)  -->
<svg version="1.1" id="Layer_1" xmlns="http://www.w3.org/2000/svg" xmlns:xlink="http://www.w3.org/1999/xlink" x="0px" y="0px"
	 viewBox="0 0 100 100" enable-background="new 0 0 100 100" xml:space="preserve">
<g>
	<path d="M33.195,21.728h0.887V6.632c0-3.648,2.981-6.632,6.63-6.632h18.576c3.642,0,6.63,2.987,6.63,6.632v15.096h0.887
		c5.705,0,10.389,4.685,10.389,10.389v50.417c0,5.582-4.484,10.183-10.02,10.382v3.74c0,1.842-1.505,3.345-3.347,3.345h-4.024
		c-1.844,0-3.345-1.501-3.345-3.345v-3.732H43.541v3.732c0,1.842-1.505,3.345-3.347,3.345h-4.024c-1.844,0-3.345-1.501-3.345-3.345
		v-3.74c-5.536-0.198-10.02-4.8-10.02-10.382V32.117C22.806,26.412,27.49,21.728,33.195,21.728z M63.204,92.924h-2.775v3.107h2.775
		V92.924z M39.571,92.924h-2.775v3.107h2.775V92.924z M38.052,21.728h23.895V6.632c0-1.461-1.197-2.662-2.66-2.662H40.712
		c-1.467,0-2.66,1.195-2.66,2.662V21.728z M66.805,25.698h-33.61c-3.537,0-6.419,2.882-6.419,6.419v50.417
		c0,3.537,2.882,6.419,6.419,6.419h33.61c3.537,0,6.419-2.882,6.419-6.419V32.117C73.224,28.58,70.342,25.698,66.805,25.698z"/>
	<polygon points="40.77,42.28 40.77,72.369 36.8,72.369 36.8,42.28 	"/>
	<polygon points="51.981,36.786 51.981,77.863 48.011,77.863 48.011,36.786 	"/>
	<polygon points="63.192,42.28 63.192,72.369 59.222,72.369 59.222,42.28 	"/>
</g>
</svg>
