<svg height='100px' width='100px'  fill="#000000" xmlns:x="http://ns.adobe.com/Extensibility/1.0/" xmlns:i="http://ns.adobe.com/AdobeIllustrator/10.0/" xmlns:graph="http://ns.adobe.com/Graphs/1.0/" xmlns="http://www.w3.org/2000/svg" xmlns:xlink="http://www.w3.org/1999/xlink" version="1.1" x="0px" y="0px" viewBox="0 0 100 100" style="enable-background:new 0 0 100 100;" xml:space="preserve"><g><path d="M61.8,85.3c-0.7-1.5-1.2-2.9-1.6-4.3c-0.8-2.5-3.1-4.2-5.8-4.2l-4.4,0l-4.4,0c-2.6,0-4.9,1.7-5.8,4.2    c-0.4,1.4-1,2.8-1.7,4.3c0,0,0,0.1,0,0.1c-1.8,4.1,1.2,8.6,5.7,8.5c2-0.1,4.1-0.1,6.2-0.1c2.1,0,4.2,0,6.2,0.1    c4.5,0.1,7.5-4.4,5.7-8.5C61.8,85.4,61.8,85.3,61.8,85.3z M46,89c-0.4,0.4-1.3,0.2-2.1-0.5L42.1,87c-0.4-0.3-0.7-1.1-0.8-2.1    c0-1.2,0.4-2.3,1.1-2.3c0.3,0,0.6,0.2,0.8,0.5v0l2.4,3.9C46.2,87.8,46.4,88.6,46,89z M57.9,87l-1.8,1.5c-0.8,0.7-1.7,0.9-2.1,0.5    c-0.4-0.4-0.2-1.2,0.4-2l2.4-3.9v0c0.2-0.3,0.5-0.5,0.8-0.5c0.6,0,1.1,1.1,1.1,2.3C58.7,85.8,58.3,86.6,57.9,87z"></path><path d="M43.2,55.8l-1.9-7.9c-0.9-4-3-7.7-5.9-10.7l-3.8-3.8c-0.6-0.6-1-1.4-1.1-2.2c-0.1-0.3-0.1-0.7,0-1c0-0.1,0-0.3,0.1-0.4    c0,0,0,0,0,0c0,0,0-0.1,0-0.1c0-0.2,0-0.3,0.1-0.5l0-0.1c0.2-1.1,0.4-2.1,0.7-3c0.9-2.7,2.6-5,4.8-6.6c-0.7,0-1.4,0-2-0.1    c-6.5-1.1-10.7-8.2-9.4-15.7c0-0.1,0-0.1,0-0.2c-4.1,2.5-6.9,7-6.9,12.2c0,6.4,4.2,11.9,9.9,13.6c-0.5,0.2-1,0.4-1.6,0.3    c-1,0-1.7-0.5-2-0.7l-5.8-4.3c-1.2-0.9-2.7-1.3-4.2-1.2l-7.8,0.6C3.1,24,1,27.4,2.2,30.5l0.7,1.7c1.8,4.2,4.9,7.8,8.9,10.1    c1.5,0.8,3.1,1.3,4.8,1.3H18c2.1,0,4.1-0.8,5.6-2.3l0.4-0.4c0.2-0.1,0.9-0.5,1.9-0.3c1,0.2,1.5,0.8,1.7,0.9    c-0.4,2.7-0.4,5.3-0.1,8l0.5,3.4c1.5,11,4.3,21.8,8.3,32.2l6.2-16.7C43.9,64.2,44.1,59.9,43.2,55.8z M17.2,40.6    c-1.4,0.1-2.9-0.1-4.2-0.7c-2.6-1.2-4.8-3.3-6.1-5.7c0.8,1.2,1.7,2.3,2.7,3.2c1,1,2.2,1.7,3.5,2.3c1.3,0.5,2.7,0.8,4.1,0.7    c1.4-0.1,2.8-0.6,4-1.3C20,39.9,18.7,40.5,17.2,40.6z M18.6,29.5c-1.3-0.7-2.7-1.3-4.2-1.6c-2.9-0.8-5.9-0.7-9,0    c1.4-0.7,2.9-1.2,4.5-1.3c1.6-0.2,3.2,0,4.7,0.3c3.1,0.8,5.9,2.6,7.7,5.2C21.2,31.1,19.9,30.2,18.6,29.5z M33.5,51.8    c-0.9-0.1-1.8-0.5-2.6-1.1c-0.7-0.6-1.3-1.4-1.6-2.3c-0.3-0.9-0.4-1.9-0.3-2.8c0,1.9,0.7,3.8,2.1,4.9c0.7,0.6,1.6,1,2.5,1.1    c0.9,0.2,1.9,0.1,2.8-0.1C35.4,51.8,34.5,51.9,33.5,51.8z M38.5,53.2c-0.1-1.5-0.3-3-0.7-4.4c-0.4-1.4-1.1-2.7-2-3.8    c-0.9-1.1-2.1-1.9-3.4-2.4C31,42.1,29.5,42,28,42.2c1.4-0.5,3-0.7,4.6-0.3c1.6,0.4,3,1.3,4,2.5c1,1.2,1.7,2.7,2,4.2    C38.9,50.1,38.8,51.7,38.5,53.2z"></path><path d="M93.6,23.8l-7.8-0.6c-1.5-0.1-3,0.3-4.2,1.2l-5.8,4.3c-0.3,0.2-1,0.7-2,0.7c-0.6,0-1.2-0.1-1.6-0.3    c5.8-1.7,9.9-7.1,9.9-13.6c0-5.2-2.8-9.7-6.9-12.2c0,0.1,0,0.1,0,0.2c1.3,7.5-2.9,14.6-9.4,15.7c-0.7,0.1-1.4,0.2-2,0.1    c2.2,1.7,3.9,4,4.8,6.6c0.3,0.9,0.5,1.9,0.7,3l0,0.1c0,0.2,0,0.3,0.1,0.5c0,0,0,0.1,0,0.1l0,0c0,0.1,0,0.3,0.1,0.4    c0,0.3,0,0.7,0,1c-0.1,0.8-0.5,1.6-1.1,2.2l-3.8,3.8c-2.9,2.9-5,6.6-5.9,10.7l-1.9,7.9c-1,4.1-0.7,8.4,0.8,12.4l6.2,16.7    c4-10.4,6.8-21.2,8.3-32.2l0.5-3.4c0.4-2.7,0.3-5.4-0.1-8c0.2-0.2,0.7-0.8,1.7-0.9c0.9-0.1,1.6,0.2,1.9,0.3l0.4,0.4    c1.5,1.5,3.5,2.3,5.6,2.3h1.3c1.7,0,3.4-0.4,4.8-1.3c4-2.3,7.1-5.8,8.9-10.1l0.7-1.7C99,27.4,96.9,24,93.6,23.8z M70.7,48.4    c-0.3,0.9-0.9,1.7-1.6,2.3c-0.7,0.6-1.7,1-2.6,1.1c-0.9,0.1-1.9,0-2.8-0.3c0.9,0.2,1.9,0.2,2.8,0.1c0.9-0.2,1.8-0.5,2.5-1.1    c1.5-1.1,2.2-3,2.1-4.9C71.1,46.5,71,47.5,70.7,48.4z M67.7,42.6c-1.3,0.5-2.5,1.3-3.4,2.4c-0.9,1.1-1.6,2.4-2,3.8    c-0.4,1.4-0.7,2.9-0.7,4.4c-0.3-1.5-0.4-3.1,0-4.6c0.3-1.5,1-3,2-4.2c1-1.2,2.4-2.2,4-2.5c1.5-0.4,3.2-0.2,4.6,0.3    C70.5,42,69,42.1,67.7,42.6z M87,39.9c-1.3,0.5-2.8,0.8-4.2,0.7c-1.4-0.1-2.8-0.7-4-1.5c1.2,0.7,2.6,1.2,4,1.3    c1.4,0.1,2.8-0.2,4.1-0.7c1.3-0.5,2.5-1.3,3.5-2.3c1-1,1.9-2,2.7-3.2C91.7,36.6,89.6,38.8,87,39.9z M85.6,27.9    c-1.4,0.3-2.8,0.9-4.2,1.6c-1.3,0.7-2.6,1.6-3.8,2.6c1.8-2.5,4.6-4.4,7.7-5.2c1.5-0.4,3.1-0.5,4.7-0.3c1.6,0.2,3.1,0.6,4.5,1.3    C91.5,27.2,88.5,27.1,85.6,27.9z"></path></g></svg>