<svg height='100px' width='100px'  fill="#000000" xmlns="http://www.w3.org/2000/svg" xmlns:xlink="http://www.w3.org/1999/xlink" version="1.1" x="0px" y="0px" viewBox="0 0 95 95" enable-background="new 0 0 95 95" xml:space="preserve"><path d="M75.143,10.674H19.854c-6.045,0-10.945,4.902-10.945,10.949v40.508c0,6.047,4.9,10.947,10.945,10.947h16.978L47.5,84.326  l10.669-11.248h16.974c6.047,0,10.949-4.9,10.949-10.947V21.623C86.092,15.576,81.189,10.674,75.143,10.674z M64.438,43.035  L47.5,59.973L30.563,43.035c-4.405-4.404-4.404-11.547,0-15.951s11.548-4.404,15.952,0L47.5,28.07l0.986-0.986  c4.404-4.404,11.547-4.404,15.951,0S68.843,38.631,64.438,43.035z"></path></svg>