<svg height='100px' width='100px'  fill="#000000" xmlns="http://www.w3.org/2000/svg" xmlns:xlink="http://www.w3.org/1999/xlink" version="1.1" x="0px" y="0px" viewBox="0 0 100 100" style="enable-background:new 0 0 100 100;" xml:space="preserve"><path d="M43.0683594,50.3178711l-5.4023438,6.0732422c-1.8466797,1.8461914-2.6123047,4.4726562-2.0498047,7.0249023  c0.578125,2.6186523,2.4404297,4.6816406,5.1113281,5.6601562c0.7744141,0.2836914,1.578125,0.4213867,2.3779297,0.4213867  c1.9677734,0,3.9140625-0.8325195,5.3457031-2.3720703c0.8085938-0.8710938,2.2871094-0.8706055,3.0976562-0.0004883  c2.0126953,2.1655273,5.0419922,2.9321289,7.7236328,1.9511719c2.6708984-0.9785156,4.5332031-3.0415039,5.1113281-5.6601562  c0.5625-2.5522461-0.203125-5.1787109-2.0097656-6.9824219l-5.4423828-6.1162109  C55.171875,48.3408203,52.6455078,47.2070312,50,47.2070312S44.828125,48.3408203,43.0683594,50.3178711z M55.4375,51.6469727  l5.4824219,6.1582031c1.3613281,1.3613281,1.9257812,3.2978516,1.5107422,5.1801758  c-0.4277344,1.9384766-1.8291016,3.4741211-3.8457031,4.2128906c-1.9228516,0.703125-4.1083984,0.140625-5.5712891-1.4345703  v-0.0004883C52.2373047,64.9291992,51.1396484,64.4501953,50,64.4501953s-2.2373047,0.4790039-3.0136719,1.3134766  c-1.4628906,1.5751953-3.6474609,2.1376953-5.5712891,1.4345703c-2.0166016-0.7387695-3.4179688-2.2744141-3.8457031-4.2128906  c-0.4150391-1.8823242,0.1494141-3.8188477,1.5507812-5.2226562L44.5625,51.6474609  c1.3798828-1.5507812,3.3623047-2.4404297,5.4375-2.4404297S54.0576172,50.0966797,55.4375,51.6469727z"></path><path d="M56.9716797,30.527832c-1.1367188-0.1181641-2.2587891,0.2421875-3.2421875,1.0424805  c-1.4082031,1.1455078-2.3398438,3.0253906-2.5576172,5.1582031c-0.3779297,3.7109375,1.6064453,6.96875,4.4238281,7.262207  c0.1416016,0.0146484,0.2822266,0.0219727,0.4238281,0.0219727c0.9902344,0,1.9560547-0.3632812,2.8183594-1.0639648  c1.4082031-1.1450195,2.3408203-3.0258789,2.5576172-5.1586914C61.7734375,34.0795898,59.7890625,30.8217773,56.9716797,30.527832z   M59.4052734,37.5874023c-0.1611328,1.5849609-0.8447266,3.0092773-1.8291016,3.8095703  c-0.3935547,0.3193359-1.0224609,0.6816406-1.7734375,0.6044922c-1.6943359-0.1762695-2.9033203-2.4980469-2.640625-5.0698242  v-0.0004883c0.1611328-1.5844727,0.8447266-3.0087891,1.8291016-3.809082  c0.3554688-0.2895508,0.9033203-0.6157227,1.5644531-0.6157227c0.0683594,0,0.1376953,0.003418,0.2089844,0.0107422  C58.4580078,32.6938477,59.6679688,35.015625,59.4052734,37.5874023z"></path><path d="M63.0234375,50.1254883c0.5712891,0.2988281,1.1953125,0.4492188,1.8466797,0.4492188  c0.4658203,0,0.9453125-0.0771484,1.4306641-0.2314453c1.6503906-0.5253906,3.1308594-1.8706055,4.0615234-3.690918  c1.6484375-3.2255859,1.0195312-6.7573242-1.4326172-8.0400391c-0.9804688-0.5136719-2.1152344-0.5878906-3.2773438-0.2177734  c-1.6503906,0.5253906-3.1308594,1.8706055-4.0615234,3.6914062C59.9423828,45.3120117,60.5712891,48.8432617,63.0234375,50.1254883  z M63.3720703,42.9960938c0.6787109-1.3286133,1.7587891-2.3364258,2.8867188-2.6958008  c0.2285156-0.0727539,0.5136719-0.1342773,0.8212891-0.1342773c0.296875,0,0.6142578,0.0576172,0.921875,0.21875  c1.4189453,0.7421875,1.6845703,3.1953125,0.5791016,5.3574219c-0.6787109,1.3286133-1.7578125,2.3359375-2.8867188,2.6953125  c-0.4482422,0.1420898-1.1152344,0.2436523-1.7441406-0.0844727C62.5322266,47.6113281,62.2666016,45.1582031,63.3720703,42.9960938  z"></path><path d="M46.2705078,31.5703125c-0.9833984-0.800293-2.1103516-1.1606445-3.2421875-1.0424805  c-2.8173828,0.2939453-4.8017578,3.5517578-4.4238281,7.2617188c0.2167969,2.1333008,1.1494141,4.0141602,2.5576172,5.1591797  c0.8623047,0.7006836,1.828125,1.0639648,2.8183594,1.0639648c0.140625,0,0.2822266-0.0073242,0.4238281-0.0219727  c2.8173828-0.293457,4.8017578-3.5512695,4.4238281-7.262207C48.6103516,34.5957031,47.6787109,32.7158203,46.2705078,31.5703125z   M44.1972656,42.0014648c-0.7646484,0.0766602-1.3798828-0.2851562-1.7734375-0.6044922  c-0.984375-0.800293-1.6679688-2.2246094-1.8291016-3.8100586c-0.2626953-2.5712891,0.9472656-4.8930664,2.640625-5.0698242  c0.0703125-0.0073242,0.1396484-0.0107422,0.2080078-0.0107422c0.6621094,0,1.2099609,0.3261719,1.5654297,0.6157227  c0.984375,0.800293,1.6679688,2.2246094,1.8291016,3.809082v0.0004883  C47.1005859,39.503418,45.8916016,41.8251953,44.1972656,42.0014648z"></path><path d="M34.3476562,38.3945312c-1.1640625-0.3701172-2.296875-0.2958984-3.2773438,0.2177734  c-2.4521484,1.2827148-3.0810547,4.8144531-1.4326172,8.0400391c0.9306641,1.8203125,2.4111328,3.1655273,4.0615234,3.690918  c0.4853516,0.1542969,0.9658203,0.2314453,1.4316406,0.2314453c0.6503906,0,1.2744141-0.1503906,1.8447266-0.4492188  c2.453125-1.2822266,3.0820312-4.8134766,1.4335938-8.0395508C37.4785156,40.2651367,35.9980469,38.9199219,34.3476562,38.3945312z   M36.0488281,48.3530273c-0.6259766,0.3295898-1.2939453,0.2280273-1.7431641,0.0844727  c-1.1289062-0.359375-2.2080078-1.3666992-2.8867188-2.6953125c-1.1054688-2.1621094-0.8398438-4.6152344,0.5791016-5.3574219  c0.3076172-0.1611328,0.625-0.21875,0.921875-0.21875c0.3076172,0,0.5927734,0.0615234,0.8212891,0.1342773  c1.1279297,0.359375,2.2080078,1.3671875,2.8867188,2.6958008C37.7333984,45.1582031,37.4677734,47.6113281,36.0488281,48.3530273z"></path><path d="M76.4794922,34.8422852C71.0810547,25.2998047,60.9345703,19.3720703,50,19.3720703  c-10.9355469,0-21.0820312,5.9287109-26.4794922,15.472168c-0.2724609,0.4804688-0.1025391,1.0908203,0.3779297,1.362793  c0.1552734,0.0878906,0.3242188,0.1293945,0.4912109,0.1293945c0.3486328,0,0.6875-0.1826172,0.8710938-0.5078125  C30.3046875,26.9116211,39.7841797,21.3720703,50,21.3720703c10.2148438,0,19.6943359,5.5385742,24.7392578,14.4545898  c0.2714844,0.4814453,0.8828125,0.6508789,1.3623047,0.3779297C76.5820312,35.9331055,76.7519531,35.3227539,76.4794922,34.8422852z  "></path><path d="M17.4560547,30.5991211c0.1552734,0.0878906,0.3242188,0.1293945,0.4912109,0.1293945  c0.3486328,0,0.6875-0.1826172,0.8710938-0.5078125C25.1757812,18.9819336,37.1240234,12,50.0009766,12  c12.875,0,24.8222656,6.980957,31.1806641,18.21875c0.2714844,0.4799805,0.8828125,0.6499023,1.3623047,0.3774414  c0.4804688-0.2719727,0.6503906-0.8818359,0.3779297-1.362793C76.2099609,17.3701172,63.5947266,10,50.0009766,10  c-13.5966797,0-26.2119141,7.3710938-32.9228516,19.2363281C16.8056641,29.7167969,16.9755859,30.3271484,17.4560547,30.5991211z"></path><path d="M23.8984375,63.7954102c-0.4804688,0.2714844-0.6503906,0.8818359-0.3779297,1.3623047  C28.9189453,74.7001953,39.0654297,80.6279297,50,80.6279297c10.9355469,0,21.0820312-5.9287109,26.4794922-15.472168  c0.2724609-0.4804688,0.1025391-1.0908203-0.3779297-1.362793c-0.4794922-0.2709961-1.0908203-0.1020508-1.3623047,0.378418  C69.6953125,73.0883789,60.2158203,78.6279297,50,78.6279297c-10.2148438,0-19.6943359-5.5385742-24.7392578-14.4545898  C24.9892578,63.6923828,24.3779297,63.5219727,23.8984375,63.7954102z"></path><path d="M49.9990234,90c13.5966797,0,26.2119141-7.3710938,32.9228516-19.2363281  c0.2724609-0.4804688,0.1025391-1.0908203-0.3779297-1.362793c-0.4794922-0.2719727-1.0908203-0.1030273-1.3623047,0.378418  C74.8242188,81.0180664,62.8759766,88,49.9990234,88c-12.875,0-24.8222656-6.980957-31.1806641-18.21875  c-0.2724609-0.4804688-0.8828125-0.6508789-1.3623047-0.3774414c-0.4804688,0.2719727-0.6503906,0.8818359-0.3779297,1.362793  C23.7900391,82.6298828,36.4052734,90,49.9990234,90z"></path></svg>