<svg height='100px' width='100px'  fill="#000000" xmlns="http://www.w3.org/2000/svg" viewBox="0 0 512 512" x="0px" y="0px"><g><rect x="315.819" y="347.819" width="48" height="48" transform="translate(-146.548 240.771) rotate(-32.495)"></rect><path d="M187.05,83.884c1.085-.362,2.178-.692,3.275-1l-2.742-15.553-31.977,2.931,3.809,21.6a59.3,59.3,0,0,0,11.459-2.582Z"></path><path d="M317.1,110.806l.021.117a7.977,7.977,0,0,1,5.843,3.8,134.029,134.029,0,0,1,19.16,69.831q7.23-.312,14.679-.451a117.966,117.966,0,0,0-41.479-83.373L317.1,110.8Z"></path><path d="M80.067,87.545a76.149,76.149,0,0,1,47.866,0l5.194,1.731a59.038,59.038,0,0,0,10,2.378l-3.514-19.931-14.644,1.342a42.351,42.351,0,0,1-36.433-15.1A71.753,71.753,0,0,0,32,32.005V83.056l2.5,1.251A59.292,59.292,0,0,0,80.067,87.545Z"></path><path d="M128.067,104.455l-5.194-1.731a60.055,60.055,0,0,0-37.747,0A75.111,75.111,0,0,1,32,100.733V226.061l22.018-3.882A72.159,72.159,0,0,0,109.282,175.6a42.344,42.344,0,0,1,29.072-26.649l14.22-3.747-6.546-37.123A75.382,75.382,0,0,1,128.067,104.455Z"></path><path d="M334.773,310.9c5.382.364,10.9.638,16.522.822l3.095-63.879c-5.351-.118-10.63-.3-15.8-.56Z"></path><path d="M401.951,326.893l14.3,14.3,17.7-17.7C424.189,324.984,413.431,326.13,401.951,326.893Z"></path><path d="M388.3,388.365,376,396.2V408h48V360H379.716l11.032,17.32A8,8,0,0,1,388.3,388.365Z"></path><path d="M368.85,280.008l-.92,19,18.67-18.67C380.771,280.124,374.84,280.017,368.85,280.008Z"></path><path d="M396.429,344l-16.152-16.156c-4.1.094-8.212.156-12.277.156-2.925,0-5.828-.031-8.716-.078L369.525,344Z"></path><path d="M416.25,273.313,382.313,307.25l4.4,4.4c23.365-.861,44.838-3.338,60.9-6.978Z"></path><path d="M478.927,216c-3.28-2.316-12.518-6.511-32.873-10.109-20.308-3.591-46.189-5.654-73.328-5.87l-1.549,31.965c27.7-.148,54.184-2.218,74.877-5.877C466.409,222.511,475.647,218.316,478.927,216Z"></path><path d="M356.7,200.11c-5.176.1-10.294.263-15.32.494l-1.84,30.7c5.121.253,10.337.438,15.621.552Z"></path><path d="M440,416a8,8,0,0,1-8,8H368a8,8,0,0,1-8-8v-9.611l-25.682,16.359a8,8,0,0,1-11.046-2.45l-5.695-8.942c-26.087,3.778-38.336,9.634-41.179,12.631,1.971,2.023,9.081,6.328,26.8,10.116,17.793,3.8,40.817,5.9,64.831,5.9s47.043-2.094,64.835-5.9c17.687-3.781,24.8-8.078,26.786-10.1-1.7-1.75-7.151-5.123-19.651-8.412Z"></path><path d="M288.89,366.318a8,8,0,0,1,2.45-11.046L335.723,327a339.783,339.783,0,0,1-48.6-6.212,128.294,128.294,0,0,1-21.557-6.3l8.886,91.826q11.959-5.988,33.739-9.692Z"></path><path d="M368.03,456c-27.325,0-53.107-2.576-72.6-7.252a114,114,0,0,1-17.4-5.477l1.932,19.958c.011.11.019.22.025.33.631.87,5.089,5.9,25.8,10.532C322.837,477.9,344.932,480,368,480s45.163-2.1,62.212-5.909c20.711-4.629,25.169-9.662,25.8-10.532.006-.11.014-.22.025-.33l1.929-19.93a114.263,114.263,0,0,1-17.336,5.449C421.142,453.424,395.359,456,368.03,456Z"></path><path d="M435.337,344.736A7.994,7.994,0,0,1,440,352v47.1a102.1,102.1,0,0,1,21.546,7.2l8.883-91.8c-2.815,1.162-5.469,2.034-7.53,2.665Z"></path><path d="M464.98,299.408a26.884,26.884,0,0,0,6.225-3.438c-2.027-1.643-6.963-4.242-16.573-6.909Z"></path><path d="M370.4,247.988l-.777,16.027c11.006.033,21.8.41,32.19,1.107l8.778-8.779a8,8,0,0,1,11.313,0L434.1,268.535c14.415,2.2,26.551,5.14,35.218,8.545,1.091.429,2.711,1.067,4.545,1.94L478.2,234.2a138.054,138.054,0,0,1-23.779,6.611C431.828,245.334,402.068,247.866,370.4,247.988Z"></path><path d="M323.577,230.267,325.3,201.6c-12.871,1-24.857,2.44-35.349,4.3-20.355,3.6-29.593,7.793-32.873,10.109,3.28,2.316,12.518,6.511,32.873,10.109C299.969,227.882,311.359,229.277,323.577,230.267Z"></path><path d="M318.827,309.517l1.631-27.207c-34.568,3.537-51.345,10.026-55.705,13.665,2.744,2.213,11.156,6.463,30.521,10.139C302.447,307.475,310.377,308.612,318.827,309.517Z"></path><path d="M295.422,80l-3.914-22.2-87.937,8.059,2.524,14.31c1.625-.105,3.254-.172,4.888-.172Z"></path><path d="M298.243,96h-87.26c-.7,0-1.394.018-2.09.042l5.782,32.793,85.39-22.5Z"></path><path d="M192.11,99.063l-16.177,5.392a75.121,75.121,0,0,1-13.739,3.163l5.905,33.491,31.051-8.183-6.027-34.179C192.786,98.853,192.446,98.951,192.11,99.063Z"></path><path d="M321.427,266.137l1.192-19.887a360.132,360.132,0,0,1-41.041-5.435A138.054,138.054,0,0,1,257.8,234.2l4.338,44.823A80.277,80.277,0,0,1,274.2,274.5C286.388,270.807,302.616,267.942,321.427,266.137Z"></path></g></svg>