<svg height='100px' width='100px'  fill="#000000" xmlns="http://www.w3.org/2000/svg" viewBox="0 0 46 68" x="0px" y="0px"><path d="M71,482 C71,483.104569 70.1045695,484 69,484 C67.8954305,484 67,483.104569 67,482 L67,423.9922 C67,419.580058 70.5847787,416 74.9952583,416 L105.004742,416 C109.418414,416 113,419.582229 113,423.9922 L113,482 C113,483.104569 112.104569,484 111,484 C109.895431,484 109,483.104569 109,482 L109,423.9922 C109,421.791207 107.209114,420 105.004742,420 L74.9952583,420 C72.7927387,420 71,421.790378 71,423.9922 L71,482 Z M97.0710678,457.071068 C97.8521164,456.290019 99.1184464,456.290019 99.8994949,457.071068 C100.680544,457.852116 100.680544,459.118446 99.8994949,459.899495 C94.4321549,465.366835 85.5678451,465.366835 80.1005051,459.899495 C79.3194565,459.118446 79.3194565,457.852116 80.1005051,457.071068 C80.8815536,456.290019 82.1478836,456.290019 82.9289322,457.071068 C86.8341751,460.976311 93.1658249,460.976311 97.0710678,457.071068 Z M81,448 C79.3431458,448 78,446.656854 78,445 C78,443.343146 79.3431458,442 81,442 C82.6568542,442 84,443.343146 84,445 C84,446.656854 82.6568542,448 81,448 Z M99,448 C97.3431458,448 96,446.656854 96,445 C96,443.343146 97.3431458,442 99,442 C100.656854,442 102,443.343146 102,445 C102,446.656854 100.656854,448 99,448 Z M78,430 C76.3431458,430 75,428.656854 75,427 C75,425.343146 76.3431458,424 78,424 C79.6568542,424 81,425.343146 81,427 C81,428.656854 79.6568542,430 78,430 Z M83,424.990778 C83,424.443586 83.4426603,424 83.9989566,424 L85.0010434,424 C85.5527519,424 86,424.450975 86,424.990778 L86,429.009222 C86,429.556414 85.5573397,430 85.0010434,430 L83.9989566,430 C83.4472481,430 83,429.549025 83,429.009222 L83,424.990778 Z" transform="translate(-67 -416)"></path></svg>