<svg height='100px' width='100px'  fill="#1A1A1A" xmlns:dc="http://purl.org/dc/elements/1.1/" xmlns:cc="http://creativecommons.org/ns#" xmlns:rdf="http://www.w3.org/1999/02/22-rdf-syntax-ns#" xmlns:svg="http://www.w3.org/2000/svg" xmlns="http://www.w3.org/2000/svg" xmlns:sodipodi="http://sodipodi.sourceforge.net/DTD/sodipodi-0.dtd" xmlns:inkscape="http://www.inkscape.org/namespaces/inkscape" version="1.1" x="0px" y="0px" viewBox="0 0 100 100"><g transform="translate(0,-952.36218)"><path d="m 19.182319,958.36355 c 0.315709,0.0138 0.623622,0.1024 0.937559,0.21862 l 17.84374,8.03126 c 0.593149,0.2739 1.023661,0.83941 1.187716,1.4687 l 1.687323,6.25004 12.281457,0 c 1.080708,-7.17343 7.333228,-12.75024 14.843621,-12.75024 8.257677,0 15.031417,6.75071 15.031417,14.96906 0,8.02772 -6.429685,14.52649 -14.375196,14.8748 l -4.468819,43.15641 0,9.5623 c 0,1.1576 -1.086732,2.2188 -2.25,2.2188 l -29.530984,0 c -1.163976,0 -2.25,-1.0612 -2.25,-2.2188 l 0,-9.6562 -6.031417,-57.74987 c -0.115157,-1.22528 0.982205,-2.41087 2.218819,-2.40626 l 9.937559,0 -1.125,-4.12512 -16.843819,-7.62484 c -1.100551,-0.56161 -1.409173,-1.47543 -1.218897,-2.43744 0.313228,-1.34256 1.178149,-1.82339 2.124921,-1.78122 z m 51.000235,7.875 0,4.93724 3.500079,-3.46854 c -1.062992,-0.68528 -2.220591,-1.19835 -3.500079,-1.4687 z m -4.437638,0 c -1.276299,0.27177 -2.472165,0.78484 -3.531259,1.4687 l 3.531259,3.46854 0,-4.93724 z m 11.09374,4.59354 -3.531259,3.50008 4.99996,0 c -0.27,-1.26531 -0.786614,-2.44736 -1.468701,-3.50008 z m -17.749842,0 c -0.687401,1.05732 -1.198701,2.22839 -1.468701,3.50008 l 4.999961,0 -3.53126,-3.50008 z m 19.218543,7.93772 -4.968779,0 3.500078,3.46854 c 0.682796,-1.04882 1.195866,-2.2011 1.468701,-3.46854 z m -12.812244,0 -23.468739,0 6.374763,23.68729 c 3.312992,-0.2204 6.644055,-0.4067 9.96874,-0.3752 1.556221,0.015 3.106063,0.082 4.65626,0.219 0.814961,-7.847 1.643031,-15.68621 2.468976,-23.53109 z m -28.062637,0 -8.656299,0 2.500158,23.96869 c 4.111653,0.4308 8.356535,0.2891 12.624802,0.031 l -6.468661,-23.99987 z m 32.218936,2.56216 -0.593858,5.68772 c 1.697598,-0.17539 3.295984,-0.75154 4.65626,-1.62496 l -4.062402,-4.06276 z" style="text-indent:0;text-transform:none;direction:ltr;block-progression:tb;baseline-shift:baseline;color:#000000;enable-background:accumulate;" fill="#1A1A1A" fill-opacity="1" fill-rule="evenodd" stroke="none" marker="none" visibility="visible" display="inline" overflow="visible"></path></g></svg>