<svg height='100px' width='100px'  fill="#000000" xmlns="http://www.w3.org/2000/svg" xmlns:xlink="http://www.w3.org/1999/xlink" version="1.1" x="0px" y="0px" viewBox="0 0 100 100" enable-background="new 0 0 100 100" xml:space="preserve"><g><path d="M13.558,85.451c-0.528,0-1.065-0.094-1.587-0.29c-2.339-0.878-3.522-3.484-2.646-5.821l21.522-57.374   c1.731-4.578,5.54-7.417,9.944-7.417c4.455,0,8.456,3.017,9.979,7.513l7.744,21.318c0.631-1.203,1.16-2.199,1.458-2.723   c2.096-3.682,4.814-5.55,8.079-5.55c3.571,0,7.021,2.55,8.389,6.2l14.235,37.981c0.877,2.339-0.309,4.944-2.647,5.821   c-2.339,0.878-4.945-0.309-5.821-2.646L68.367,45.545c-0.157-0.453-0.525-0.393-0.782,0.032c-0.916,1.514-4.382,8.433-5.754,11.131   c-0.817,1.605-2.508,2.571-4.307,2.463c-1.799-0.109-3.359-1.275-3.975-2.969l-11.3-31.104c-0.014-0.04-0.028-0.079-0.041-0.12   c-0.364-1.094-1.062-1.386-1.418-1.386c-0.541,0-1.121,0.613-1.48,1.56L17.792,82.515C17.112,84.329,15.389,85.451,13.558,85.451z"></path></g></svg>