<svg height='100px' width='100px'  fill="#000000" xmlns="http://www.w3.org/2000/svg" xmlns:xlink="http://www.w3.org/1999/xlink" version="1.1" x="0px" y="0px" viewBox="0 0 100 100" enable-background="new 0 0 100 100" xml:space="preserve"><g><path fill="none" d="M72.837,68.772c0,0-4.365,2.536-4.167,2.55c3.265,0.204,5.77-1.607,6.742-2.553   c0.39-0.382,0.752-1.098,1.078-1.881C75.096,67.531,72.837,68.772,72.837,68.772z"></path><path fill="none" d="M27.17,68.96c0,0-2.255-1.238-3.655-1.883c0.326,0.782,0.687,1.497,1.071,1.874   c0.974,0.949,3.479,2.756,6.742,2.557C31.531,71.495,27.17,68.96,27.17,68.96z"></path><path d="M94.997,45.026c-0.046-1.324-0.565-0.361-0.565-0.361s-1.337,4.953-1.722,5.643c-0.384,0.692-1.398,2.893-2.872,4.087   c-1.467,1.197-2.413,1.807-2.811,1.871c-0.405,0.068-0.536,0.019-0.16-1.218c0.42-1.37,1.322-6.209,1.411-6.678   c0.089-0.476,0.982-4.447,0.824-5.918c-0.09-0.864,0.592-5.547,0.704-5.899c0.11-0.352,1.039-6.515,0.957-7.685   c-0.093-1.253-1.235-4.004-1.48-4.755c-0.247-0.747-0.488-3-0.938-3.964c-0.454-0.967-0.267-1.875-0.751-1.794   c-0.484,0.079,0,1.792-0.006,1.995c-0.007,0.211,0.16,2.514,0.188,3.217c0.035,0.701,0.52,3.203,0.738,3.75   c0.214,0.55,0.436,1.632,0.261,2.618c-0.175,0.989-0.324,2.636-0.661,3.102c-0.342,0.474-1.353,2.176-2.616,0.803   c-0.384-0.419-1.542-2.972-2.073-3.783c-0.505-0.77-1.088-2.359-1.768-3.208c-0.681-0.844-1.254-1.585-2.775-2.998   c-1.524-1.417-1.643-1.895-2.164-2.563c-0.527-0.661-1.681-2.263-2.219-2.884c-0.352-0.407-0.946-0.467-0.107,0.851   c0.839,1.321,2.21,4.134,2.894,5.02c0.684,0.887,1.838,3.116,2.192,3.76c0.354,0.655,1.475,2.927,1.948,3.764   c0.465,0.84,1.323,2.778,1.956,4.136c0.639,1.35,1.71,4.088,1.898,6.513c0.182,2.425-0.09,4.169-0.54,5.993   c-0.45,1.817-0.354,3.68-0.716,4.986c0,0-0.221,3.242-2.178,5.261c-0.807,0.835-1.685,1.575-2.488,2.192   c0.005-1.969-0.077-3.629-0.121-3.889c0,0-0.615-0.232-0.861,1.597c-0.137,1.029-0.221,2.226-0.342,3.257   c-0.537,0.37-0.963,0.641-1.168,0.774c-0.603,0.388-4.419,2.262-5.867,3.329c-1.445,1.066-9.272,6.169-9.698,6.611   c-0.428,0.445-0.981,0.619-0.981,0.619s-0.041-3.573,0.012-3.998c0.059-0.421,0.054-3.794,0.114-4.178   c0.062-0.385,0.195-3.151,0.284-3.625c0.089-0.474,0.734-4.197,0.089-4.299c-0.639-0.105-0.583,1.508-1.138,2.723   c-0.549,1.213-0.783,3.871-0.942,4.687c-0.157,0.816-0.541,5.871-0.493,6.156c0.043,0.28-0.09,2.796-0.503,3.326   c-0.412,0.523-0.686,1.15-0.635,1.725c0.052,0.576-1.577,1.438-1.577,1.438s-1.167,3.843,2.325,4.461   c2.84,0.501,3.143-1.82,3.143-1.82s-1.081-3.414,3.126-4.678c4.207-1.267,6.415,0.134,10.002-1.961   c3.454-2.019,4.443-3.884,4.927-7.046c0.025-0.16,0.046-0.33,0.067-0.501c2.102-1.271,5.304-3.495,6.308-4.815   c1.398-1.854,4.659-3.621,4.939-3.883c0.284-0.273,2.382-2.166,3.231-4.441C94.475,50.128,95.05,46.351,94.997,45.026z    M68.67,71.322c-0.198-0.014,4.167-2.55,4.167-2.55s2.259-1.242,3.653-1.884c-0.326,0.783-0.688,1.5-1.078,1.881   C74.44,69.715,71.935,71.526,68.67,71.322z"></path><path d="M42.889,75.882c0.054-0.574-0.219-1.203-0.629-1.726c-0.416-0.523-0.549-3.042-0.505-3.327   c0.051-0.284-0.335-5.336-0.495-6.157c-0.155-0.813-0.39-3.471-0.939-4.685c-0.552-1.211-0.502-2.824-1.137-2.724   c-0.647,0.104,0.002,3.829,0.087,4.3c0.091,0.477,0.222,3.24,0.285,3.625c0.061,0.386,0.053,3.756,0.112,4.18   c0.054,0.424,0.011,3.994,0.011,3.994s-0.552-0.172-0.979-0.613c-0.428-0.447-8.254-5.545-9.699-6.614   c-1.447-1.071-5.263-2.937-5.867-3.326c-0.204-0.132-0.63-0.404-1.167-0.774c-0.121-1.031-0.204-2.229-0.339-3.257   c-0.248-1.828-0.863-1.597-0.863-1.597c-0.043,0.257-0.124,1.917-0.119,3.89c-0.804-0.619-1.683-1.359-2.488-2.193   c-1.959-2.022-2.181-5.263-2.181-5.263c-0.356-1.307-0.261-3.168-0.713-4.989c-0.454-1.819-0.725-3.565-0.539-5.988   c0.187-2.425,1.257-5.163,1.894-6.518c0.632-1.354,1.491-3.294,1.96-4.133c0.471-0.837,1.59-3.11,1.944-3.76   c0.354-0.651,1.508-2.875,2.193-3.761c0.681-0.887,2.056-3.699,2.897-5.019c0.839-1.324,0.242-1.261-0.109-0.854   c-0.535,0.62-1.694,2.219-2.219,2.885c-0.523,0.665-0.642,1.141-2.163,2.562c-1.521,1.414-2.099,2.154-2.775,3.001   c-0.679,0.846-1.266,2.435-1.771,3.207c-0.529,0.806-1.686,3.362-2.073,3.779c-1.262,1.376-2.274-0.328-2.612-0.799   c-0.343-0.474-0.491-2.112-0.662-3.104c-0.174-0.983,0.047-2.071,0.256-2.62c0.217-0.546,0.703-3.045,0.739-3.747   c0.031-0.702,0.198-3.007,0.188-3.219c-0.006-0.207,0.48-1.917-0.006-1.995c-0.487-0.078-0.301,0.824-0.75,1.792   c-0.45,0.967-0.691,3.217-0.935,3.965c-0.249,0.751-1.389,3.502-1.481,4.751c-0.087,1.172,0.846,7.334,0.952,7.684   c0.112,0.355,0.795,5.038,0.707,5.9c-0.158,1.473,0.733,5.447,0.824,5.916c0.093,0.472,0.994,5.311,1.415,6.682   c0.373,1.239,0.24,1.288-0.164,1.22c-0.401-0.068-1.341-0.675-2.812-1.875c-1.469-1.194-2.483-3.398-2.873-4.085   c-0.387-0.69-1.723-5.647-1.723-5.647s-0.515-0.956-0.561,0.365c-0.053,1.325,0.525,5.097,1.394,7.426   c0.853,2.271,2.951,4.17,3.235,4.438c0.279,0.265,3.534,2.033,4.943,3.882c1.005,1.322,4.209,3.55,6.308,4.822   c0.021,0.172,0.043,0.342,0.068,0.502c0.482,3.156,1.468,5.026,4.926,7.043c3.588,2.094,5.795,0.688,9.997,1.959   c4.206,1.267,3.131,4.68,3.131,4.68s0.298,2.32,3.142,1.816c3.489-0.613,2.366-4.582,2.366-4.582S42.84,76.459,42.889,75.882z    M24.586,68.952c-0.384-0.378-0.745-1.092-1.071-1.874c1.4,0.645,3.655,1.883,3.655,1.883s4.361,2.535,4.158,2.548   C28.065,71.708,25.56,69.9,24.586,68.952z"></path></g></svg>