<svg height='100px' width='100px'  fill="#000000" xmlns="http://www.w3.org/2000/svg" xmlns:xlink="http://www.w3.org/1999/xlink" version="1.1" x="0px" y="0px" viewBox="0 0 100 100" style="enable-background:new 0 0 100 100;" xml:space="preserve"><path d="M11,81.690918h5.7695312v7.284668c0,0.5522461,0.4472656,1,1,1h7.1982422c0.5527344,0,1-0.4477539,1-1v-7.284668h48.0644531  v7.284668c0,0.5522461,0.4472656,1,1,1h7.1982422c0.5527344,0,1-0.4477539,1-1v-7.284668H89c0.5527344,0,1-0.4477539,1-1V65.1879883  c0-0.5522461-0.4472656-1-1-1h-5.7695312v-6.5708008h4.4501953C88.9599609,57.6171875,90,56.5766602,90,55.2973633V12.2963867  c0-1.2792969-1.0400391-2.3198242-2.3193359-2.3198242H12.3193359C11.0400391,9.9765625,10,11.0170898,10,12.2963867v43.0009766  c0,1.2792969,1.0400391,2.3198242,2.3193359,2.3198242h4.4501953v6.5708008H11c-0.5527344,0-1,0.4477539-1,1V80.690918  C10,81.2431641,10.4472656,81.690918,11,81.690918z M23.9677734,87.9755859h-5.1982422v-6.284668h5.1982422V87.9755859z   M81.2304688,87.9755859h-5.1982422v-6.284668h5.1982422V87.9755859z M81.2304688,64.1879883h-5.1982422v-6.5708008h5.1982422  V64.1879883z M74.0322266,57.6171875v6.5708008H25.9677734v-6.5708008H74.0322266z M12,55.2973633V12.2963867  c0-0.1762695,0.1435547-0.3198242,0.3193359-0.3198242h75.3613281C87.8564453,11.9765625,88,12.1201172,88,12.2963867v43.0009766  c0,0.1762695-0.1435547,0.3198242-0.3193359,0.3198242H12.3193359C12.1435547,55.6171875,12,55.4736328,12,55.2973633z   M18.7695312,57.6171875h5.1982422v6.5708008h-5.1982422V57.6171875z M12,66.1879883h76V79.690918H12V66.1879883z"></path><path d="M62.5341797,71.9394531H37.4658203c-0.5527344,0-1,0.4477539-1,1s0.4472656,1,1,1h25.0683594c0.5527344,0,1-0.4477539,1-1  S63.0869141,71.9394531,62.5341797,71.9394531z"></path><path d="M64.71875,29.7612305l-8.8779297-2.3720703l-5.0068359-7.6806641  c-0.3691406-0.5654297-1.3066406-0.565918-1.6757812,0.0004883l-5,7.6762695L35.28125,29.7509766  c-0.3271484,0.0874023-0.5888672,0.3349609-0.6933594,0.6577148s-0.0390625,0.6762695,0.1748047,0.9394531l5.7861328,7.1152344  l-0.4794922,9.140625c-0.0175781,0.3378906,0.1367188,0.6616211,0.4111328,0.8608398  c0.2724609,0.1992188,0.6269531,0.246582,0.9453125,0.1254883l8.5791016-3.2792969l8.5810547,3.2851562  c0.1152344,0.0439453,0.2373047,0.065918,0.3574219,0.065918c0.2080078,0,0.4150391-0.0649414,0.5888672-0.1914062  c0.2734375-0.1992188,0.4277344-0.5234375,0.4101562-0.8613281l-0.4853516-9.140625l5.7802734-7.1103516  c0.2138672-0.2631836,0.2792969-0.6166992,0.1748047-0.9394531C65.3076172,30.0966797,65.046875,29.8491211,64.71875,29.7612305z   M57.6621094,37.5063477c-0.15625,0.1923828-0.2353516,0.4360352-0.2226562,0.6835938l0.4238281,7.987793l-7.5009766-2.871582  c-0.1152344-0.0439453-0.2363281-0.065918-0.3574219-0.065918s-0.2421875,0.0219727-0.3574219,0.065918l-7.5,2.8671875  l0.4189453-7.9897461C42.5791016,37.9360352,42.5,37.6928711,42.34375,37.5004883l-5.0537109-6.2148438l7.7539062-2.0664062  c0.2382812-0.0634766,0.4453125-0.2133789,0.5800781-0.4204102l4.3720703-6.7124023L54.375,28.8027344  c0.1347656,0.206543,0.3417969,0.355957,0.5800781,0.4199219l7.7558594,2.0722656L57.6621094,37.5063477z"></path></svg>