<svg height='100px' width='100px'  fill="#000000" xmlns="http://www.w3.org/2000/svg" xmlns:xlink="http://www.w3.org/1999/xlink" version="1.1" x="0px" y="0px" viewBox="-434 236 90 90" style="enable-background:new -434 236 90 90;" xml:space="preserve"><style type="text/css">
	.st0{stroke:#000000;stroke-miterlimit:10;}
</style><g><path class="st0" d="M-417.2,274.5v39.8c0,1,0.9,1.7,1.9,1.7h18.3v-11.3c0-3.7,3.4-6.6,7.6-6.6h0.8c4.2,0,7.6,3,7.6,6.6V316h18.3   c1,0,1.9-0.8,1.9-1.7v-39.8H-417.2z M-395.5,290.9c0,1.4-1.2,2.6-2.6,2.6h-9.8c-1.4,0-2.6-1.2-2.6-2.6v-9.8c0-1.4,1.2-2.6,2.6-2.6   h9.8c1.4,0,2.6,1.2,2.6,2.6V290.9z M-367.5,290.9c0,1.4-1.2,2.6-2.6,2.6h-9.8c-1.4,0-2.6-1.2-2.6-2.6v-9.8c0-1.4,1.2-2.6,2.6-2.6   h9.8c1.4,0,2.6,1.2,2.6,2.6V290.9z"></path><polygon class="st0" points="-358.2,271.7 -419.8,271.7 -411.7,251.9 -377.8,251.9 -377.8,246 -370.1,246 -370.1,251.9    -366.3,251.9  "></polygon></g></svg>