<svg height='100px' width='100px'  fill="#000000" xmlns="http://www.w3.org/2000/svg" data-name="Layer 1" viewBox="0 0 64 64" x="0px" y="0px"><title>herb medicine copy</title><path d="M50.33,23.14c-8.5,1.23-15.82,4.91-20.61,10.36-.21.23-.4.48-.6.72-3.87-4.21-9.62-7.06-16.3-8a1.5,1.5,0,0,0-1.51.73A26,26,0,0,0,7.78,40.26a15.13,15.13,0,0,0,6.13,11.89,16.59,16.59,0,0,0,8.74,2.7c.41,0,.82,0,1.25,0h.71a34.82,34.82,0,0,1-8.58,3,1.5,1.5,0,0,0,.3,3,1.53,1.53,0,0,0,.3,0,38.45,38.45,0,0,0,9.91-3.54,1.55,1.55,0,0,0,.6.22,65,65,0,0,0,9.25.86c.52,0,1,0,1.55,0A20.25,20.25,0,0,0,48.7,55a18.6,18.6,0,0,0,7.52-14.6,32.14,32.14,0,0,0-4.38-16.51A1.51,1.51,0,0,0,50.33,23.14ZM22.8,51.86a13.89,13.89,0,0,1-7.18-2.18,12.28,12.28,0,0,1-4.84-9.55,22.54,22.54,0,0,1,2.63-10.81A23.81,23.81,0,0,1,27.2,36.54c.05.05.09.11.14.17a23.51,23.51,0,0,0-2.82,6.38A18.13,18.13,0,0,1,20,37.94a1.5,1.5,0,0,0-2.59,1.51,21.18,21.18,0,0,0,6.49,6.87,21.11,21.11,0,0,0,0,5.56ZM47,52.52a17.59,17.59,0,0,1-9.19,2.79,42.23,42.23,0,0,1-7.3-.4c.4-.27.81-.56,1.2-.85a1.28,1.28,0,0,0,.54-.37,1.47,1.47,0,0,0,1-.77,39.23,39.23,0,0,0,11-13.84A1.5,1.5,0,0,0,41.5,37.8,36.52,36.52,0,0,1,27.3,53.4c-1.58-5.84.2-12.85,4.67-17.92,4.14-4.7,10.42-7.95,17.78-9.21a29,29,0,0,1,3.47,14C53,45.29,50.62,50,47,52.52Z"></path><path d="M33.82,3.17h-8a1.5,1.5,0,0,0-1.5,1.5v4.5h-5a1.5,1.5,0,0,0-1.5,1.5v9a1.5,1.5,0,0,0,1.5,1.5h5v4.5a1.5,1.5,0,0,0,1.5,1.5h8a1.5,1.5,0,0,0,1.5-1.5v-4.5h5a1.5,1.5,0,0,0,1.5-1.5v-9a1.5,1.5,0,0,0-1.5-1.5h-5V4.67A1.5,1.5,0,0,0,33.82,3.17Zm5,9v6h-5a1.5,1.5,0,0,0-1.5,1.5v4.5h-5v-4.5a1.5,1.5,0,0,0-1.5-1.5h-5v-6h5a1.5,1.5,0,0,0,1.5-1.5V6.17h5v4.5a1.5,1.5,0,0,0,1.5,1.5Z"></path></svg>