<svg height='100px' width='100px'  fill="#000000" xmlns="http://www.w3.org/2000/svg" xmlns:xlink="http://www.w3.org/1999/xlink" xml:space="preserve" version="1.1" style="shape-rendering:geometricPrecision;text-rendering:geometricPrecision;image-rendering:optimizeQuality;" viewBox="0 0 60000 60000" x="0px" y="0px" fill-rule="evenodd" clip-rule="evenodd"><defs><style type="text/css">
   
    .fil0 {fill:#000000;fill-rule:nonzero}
   
  </style></defs><g><path class="fil0" d="M31481 47886c1,-18 3,-35 7,-52 -486,-554 -999,-1020 -1569,-1310 -197,-99 -276,-339 -177,-536 99,-197 339,-276 536,-177 1311,666 2280,2023 3250,3381 353,495 707,990 1074,1445 19,23 37,42 56,57 51,42 110,60 172,55 81,-6 173,-47 266,-122 50,-41 100,-90 146,-147 370,-454 603,-982 711,-1556 200,-1060 -20,-2275 -581,-3467 -571,-1214 -1492,-2397 -2684,-3369 -1260,-1028 -2819,-1816 -4580,-2149 -362,-68 -971,-127 -1692,-170 -737,-43 -1577,-68 -2385,-66 -808,-2 -1649,23 -2385,66 -721,42 -1330,101 -1692,170 -1762,333 -3321,1121 -4580,2149 -1191,972 -2113,2156 -2684,3369 -561,1192 -781,2407 -581,3467 108,573 341,1102 711,1556 47,58 96,107 146,147 93,75 184,116 266,122 62,5 121,-13 172,-55 18,-15 37,-34 56,-57 367,-455 721,-950 1074,-1445 969,-1358 1939,-2715 3250,-3381 197,-99 437,-20 536,177 99,197 20,437 -177,536 -570,289 -1084,755 -1569,1309 3,17 6,34 7,52 201,3065 1075,5325 2297,6886 1420,1813 3313,2681 5153,2764 1841,-83 3734,-951 5153,-2764 1222,-1561 2096,-3822 2297,-6886zm-13365 -20962l0 800 -800 0 0 -800 800 0zm12737 0l-737 0 0 800 737 0 0 -800zm-3137 0l0 800 -800 0 0 -800 800 0zm-3200 0l0 800 -800 0 0 -800 800 0zm-3200 0l0 800 -800 0 0 -800 800 0zm9195 -17212c173,344 288,554 378,719 46,85 88,160 100,183 149,281 267,546 325,831 63,306 54,615 -59,957 -10,30 -23,58 -39,84l-1015 1886c-83,153 -141,261 -23,357 97,80 191,20 323,-63 26,-16 13,-8 0,0l0 0 53 -33c504,-316 1079,-732 1655,-1150 993,-719 1991,-1442 2842,-1788 250,-102 512,-178 828,-223 297,-43 641,-58 1068,-41l0 -1 10903 0c71,0 26,1 0,1l0 0 21 0c981,-8 1677,-601 2131,-1423 485,-878 702,-2007 702,-3002 0,-45 0,-59 0,-59 0,0 0,-15 0,-59 0,-995 -216,-2124 -702,-3002 -454,-821 -1150,-1415 -2131,-1423l-21 0 0 0c26,1 71,1 0,1l-15047 0c-71,0 -26,-1 0,-1l0 0 -21 0c-981,8 -1677,601 -2131,1423 -485,878 -702,2007 -702,3002 0,151 -2,-47 -1,56l0 6c-3,401 30,828 118,1289 88,460 230,949 444,1473zm-322 1100c-90,-164 -205,-374 -391,-745 -8,-14 -15,-28 -21,-43 -239,-584 -398,-1126 -495,-1635 -97,-509 -134,-988 -130,-1442 -1,-137 -2,51 -2,-59 0,-1111 247,-2384 802,-3386 585,-1059 1504,-1824 2825,-1835l28 0 0 -1c-24,0 -55,0 0,0l15047 0c55,0 24,0 0,0l0 1 28 0c1321,11 2240,776 2825,1835 554,1003 802,2275 802,3386 0,111 -1,-77 -2,59 1,136 2,-51 2,59 0,1111 -247,2384 -802,3386 -585,1059 -1504,1824 -2825,1835l-28 0 0 1c24,0 55,0 0,0l-10903 0 0 -1c-5,0 -10,0 -16,0 -380,-16 -683,-3 -940,34 -243,35 -446,94 -641,173 -761,310 -1719,1004 -2674,1695 -570,413 -1138,824 -1702,1178 -119,75 46,-28 -50,33 -416,263 -710,450 -1254,4 -626,-514 -440,-858 -174,-1351l1007 -1870c57,-188 61,-356 28,-519 -39,-192 -131,-395 -250,-618 -48,-90 -69,-129 -93,-173zm311 3854c-13,9 -27,17 0,0l0 0zm17350 -3234c-16,0 -25,0 0,0l0 0zm0 797c-32,0 -18,1 0,1l0 -1zm2855 -5281c1,0 1,75 1,3l0 -6c1,-72 0,3 -1,3zm-2855 -4484c-25,0 -16,0 0,0l0 0zm0 -798c-18,0 -32,1 0,1l0 -1zm-15047 798c16,0 25,0 0,0l0 0zm0 -797c32,0 18,-1 0,-1l0 1zm-20374 15224c-417,0 -794,169 -1067,442 -273,273 -442,650 -442,1067 0,417 169,794 442,1067 273,273 650,442 1067,442 417,0 794,-169 1067,-442 273,-273 442,-650 442,-1067 0,-417 -169,-794 -442,-1067 -273,-273 -650,-442 -1067,-442zm-1632 -124c418,-418 995,-676 1632,-676 637,0 1214,258 1632,676 418,418 676,995 676,1632 0,637 -258,1214 -676,1632 -326,326 -749,555 -1221,640l0 3665c617,-1453 1507,-2761 2607,-3861 2206,-2206 5255,-3571 8621,-3571 3367,0 6415,1365 8621,3571 1120,1120 2023,2458 2641,3943l0 -3748c-473,-85 -896,-314 -1221,-640 -418,-418 -676,-995 -676,-1632 0,-637 258,-1214 676,-1632 418,-418 995,-676 1632,-676 637,0 1214,258 1632,676 418,418 676,995 676,1632 0,637 -258,1214 -676,1632 -331,331 -762,562 -1243,643l0 4873c105,-44 216,-74 332,-92 292,-45 617,-6 939,101 593,197 1195,636 1568,1211 455,701 691,1615 706,2527 15,911 -192,1831 -624,2543 -351,579 -956,1023 -1568,1229 -338,114 -686,159 -1003,117 -305,-40 -582,-157 -801,-364 -313,975 -745,1897 -1279,2748 -1066,1699 -2540,3117 -4284,4115 1145,439 2179,1056 3073,1785 1285,1048 2282,2331 2902,3651 631,1341 875,2725 643,3951 -133,702 -419,1351 -877,1912 -84,103 -173,192 -265,266 -222,179 -466,280 -709,297 -262,19 -515,-57 -731,-233 -63,-51 -121,-110 -174,-176 -379,-470 -741,-976 -1102,-1483 -222,-310 -443,-621 -668,-921 -304,2840 -1193,4991 -2397,6529 -1581,2019 -3701,2983 -5766,3071 -14,1 -28,0 -41,0 -2062,-91 -4178,-1055 -5756,-3071 -1204,-1538 -2093,-3689 -2397,-6529 -225,300 -447,611 -668,921 -362,507 -723,1013 -1102,1483 -53,66 -112,125 -174,176 -216,176 -469,253 -731,233 -243,-18 -488,-119 -709,-297 -92,-74 -181,-163 -265,-266 -458,-561 -744,-1210 -877,-1912 -232,-1227 13,-2611 643,-3951 621,-1319 1617,-2602 2902,-3651 906,-739 1956,-1363 3120,-1803 -1757,-1013 -3238,-2451 -4301,-4173 -508,-823 -921,-1711 -1224,-2648 -215,192 -481,301 -774,339 -317,42 -664,-3 -1003,-117 -612,-207 -1216,-651 -1568,-1229 -432,-712 -639,-1632 -624,-2543 15,-912 251,-1827 706,-2527 373,-575 975,-1014 1568,-1211 323,-107 647,-146 939,-101 116,18 227,48 332,92l0 -4873c-481,-82 -912,-313 -1243,-643 -418,-418 -676,-995 -676,-1632 0,-637 258,-1214 676,-1632zm1257 10238c3,-275 -52,-466 -146,-587 -75,-96 -188,-151 -322,-172 -169,-26 -365,-1 -567,66 -434,144 -875,467 -1150,889 -372,573 -565,1336 -578,2105 -13,770 156,1537 509,2118 251,414 691,734 1139,886 228,77 452,108 647,83 161,-21 300,-83 395,-193 95,-111 158,-279 171,-514 -181,-835 -276,-1701 -276,-2590 0,-713 61,-1412 179,-2092zm23944 4614l18 0c4,271 69,461 173,582 95,110 234,172 395,193 194,25 418,-6 647,-83 448,-152 888,-472 1139,-886 353,-581 521,-1348 509,-2118 -13,-770 -206,-1532 -578,-2105 -274,-422 -716,-745 -1150,-889 -202,-67 -399,-92 -567,-66 -134,21 -247,76 -322,172 -95,122 -151,315 -146,594l-33 1c117,677 178,1373 178,2084 0,864 -90,1708 -262,2522zm809 -14286c-273,-273 -650,-442 -1067,-442 -417,0 -794,169 -1067,442 -273,273 -442,650 -442,1067 0,417 169,794 442,1067 273,273 650,442 1067,442 417,0 794,-169 1067,-442 273,-273 442,-650 442,-1067 0,-417 -169,-794 -442,-1067zm-10698 15461l-4175 0 0 2c-280,0 -460,52 -559,136 -53,44 -81,105 -89,175 -12,100 11,218 61,342 127,309 408,623 775,819 516,275 1204,412 1900,412 696,0 1384,-137 1900,-412 367,-195 648,-510 775,-819 51,-124 73,-242 61,-342 -8,-70 -37,-130 -89,-175 -99,-84 -279,-136 -559,-136l0 -2zm-4175 -797l4175 0 0 -2c484,0 836,125 1075,327 219,185 336,424 368,690 28,236 -15,490 -118,739 -191,467 -605,935 -1137,1219 -637,339 -1460,509 -2275,509 -815,0 -1638,-170 -2275,-509 -533,-284 -946,-752 -1137,-1219 -102,-249 -146,-503 -118,-739 32,-266 149,-506 368,-690 239,-202 591,-327 1075,-327l0 2zm-2969 7291c24,12 47,27 68,43 253,-67 510,-126 772,-175 395,-75 1040,-138 1795,-182 737,-43 1593,-68 2429,-66 837,-2 1692,23 2429,66 755,44 1400,107 1795,182 274,52 544,114 809,185 1919,-937 3536,-2398 4664,-4197 1099,-1751 1734,-3824 1734,-6047 0,-3146 -1275,-5994 -3337,-8056 -2062,-2062 -4910,-3337 -8056,-3337 -3146,0 -5994,1275 -8056,3337 -2062,2062 -3337,4910 -3337,8056 0,2194 618,4241 1690,5977 1109,1797 2704,3262 4600,4214zm5084 -19186c2484,0 4733,1007 6360,2635 1628,1628 2635,3877 2635,6360 0,2484 -1007,4733 -2635,6360 -1628,1628 -3877,2635 -6360,2635 -2484,0 -4733,-1007 -6360,-2635 -1628,-1628 -2635,-3877 -2635,-6360 0,-2484 1007,-4733 2635,-6360 1628,-1628 3877,-2635 6360,-2635zm5795 3200c-1483,-1483 -3532,-2400 -5795,-2400 -2263,0 -4312,917 -5795,2400 -1483,1483 -2400,3532 -2400,5795 0,2263 917,4312 2400,5795 1483,1483 3532,2400 5795,2400 2263,0 4312,-917 5795,-2400 1483,-1483 2400,-3532 2400,-5795 0,-2263 -917,-4312 -2400,-5795z"></path></g></svg>