<svg height='100px' width='100px'  fill="#000000" xmlns="http://www.w3.org/2000/svg" data-name="Line EX" viewBox="0 0 64 64" x="0px" y="0px"><title>debtor-debt-owe-accounting</title><path d="M32,37a1,1,0,0,1,1,1h2a3,3,0,0,0-6,0h2A1,1,0,0,1,32,37Z"></path><rect x="31" y="12" width="2" height="2"></rect><path d="M11.4,35.97A20.821,20.821,0,0,0,19,48.47V59a1,1,0,0,0,1,1H44a1,1,0,0,0,1-1V48.484A21.051,21.051,0,0,0,52.783,35H56a1,1,0,0,0,1-1V29h1a1,1,0,0,0,.707-1.707l-6-6a1,1,0,0,0-1.414,0l-.785.785A21.05,21.05,0,0,0,37,11.608V9a1,1,0,0,0-1-1H35V7a3,3,0,0,0-6,0V8H28a1,1,0,0,0-1,1v2.627a21.034,21.034,0,0,0-12.484,8.785A7.994,7.994,0,1,0,11.4,35.97ZM24,58H21V55h3Zm7,0H26V49H24v4H21V45.961a1.844,1.844,0,0,1,.47-1.374A2.379,2.379,0,0,1,23,44.02h2.645L31,49.375ZM28.473,44.02H30a1,1,0,0,0,1-1V41.988a9.116,9.116,0,0,0,1,.059,9.376,9.376,0,0,0,1-.058V43.02a1,1,0,0,0,1,1h1.527L32,47.547Zm9.739-18.405a.991.991,0,0,0,.509.345A4.72,4.72,0,0,1,35,28c-1.958,0-2-2.881-2-3l-1,0H31a6.642,6.642,0,0,0,.735,3H30c-2.418,0-3.5-1.507-3.5-3a2.862,2.862,0,0,1,.832-2.043A3.671,3.671,0,0,1,30,22h8.719l-.689,2.758A1,1,0,0,0,38.212,25.615ZM37,29.649V32H27V29.267A6.037,6.037,0,0,0,30,30h5A6.252,6.252,0,0,0,37,29.649ZM27,34H37v2.9c-.18.541-1.244,3.145-5,3.145s-4.819-2.637-5-3.19ZM43,58H40V55h3Zm0-5H40V49H38v9H33V49.375l5.355-5.355H40c2.8,0,2.99,1.629,3,1.941ZM55,33H49V29h2v2h2V29h2Zm-3-9.586L55.585,27h-7.17ZM31,7a1,1,0,0,1,2,0V8H31Zm-2,3h6v6H29Zm-2,3.69V17a1,1,0,0,0,1,1h8a1,1,0,0,0,1-1V13.668a19.05,19.05,0,0,1,12.021,9.9l-3.728,3.728A1,1,0,0,0,46,29h1v5a1,1,0,0,0,1,1h2.738A19.018,19.018,0,0,1,45,45.853C44.943,44.467,43.856,42.02,40,42.02H35v-.5a6.522,6.522,0,0,0,3.97-4.229.984.984,0,0,0,.03-.242V36a3,3,0,0,0,0-6V28.585A4.625,4.625,0,0,0,41,25a1,1,0,0,0-.729-.963l.7-2.795A1,1,0,0,0,40,20H30a5.56,5.56,0,0,0-4.082,1.543A4.847,4.847,0,0,0,24.5,25a4.943,4.943,0,0,0,.5,2.155V30a3,3,0,0,0,0,6v1a1.023,1.023,0,0,0,.029.24A6.565,6.565,0,0,0,29,41.513v.507H23.02a4.388,4.388,0,0,0-2.942,1.131,3.794,3.794,0,0,0-1.069,2.7,18.813,18.813,0,0,1-5.593-9.989,7.988,7.988,0,0,0,2.921-14.58A19.038,19.038,0,0,1,27,13.69ZM39,34V32a1,1,0,0,1,0,2ZM25,32v2a1,1,0,0,1,0-2ZM12,25a1,1,0,0,1,1,1h2a3,3,0,0,0-2-2.816V22.09a5.993,5.993,0,0,1,0,11.82V32.816A2.993,2.993,0,0,0,12,27a1,1,0,0,1,0-2Zm-1-2.91v1.094A2.993,2.993,0,0,0,12,29a1,1,0,1,1-1,1H9a3,3,0,0,0,2,2.816V33.91a5.993,5.993,0,0,1,0-11.82Z"></path><rect x="9" y="44" width="2" height="7"></rect><rect x="9" y="53" width="2" height="2"></rect><rect x="4" y="38" width="2" height="7"></rect><rect x="14" y="55" width="2" height="4"></rect><rect x="53" y="46" width="2" height="7"></rect><rect x="53" y="42" width="2" height="2"></rect><rect x="48" y="52" width="2" height="7"></rect><rect x="58" y="38" width="2" height="4"></rect></svg>