<svg height='100px' width='100px'  fill="#000000" xmlns="http://www.w3.org/2000/svg" xmlns:xlink="http://www.w3.org/1999/xlink" version="1.1" x="0px" y="0px" viewBox="0 0 100 100" enable-background="new 0 0 100 100" xml:space="preserve"><path d="M79.3279419,43.8907585c0.4842224-1.2211113,0.7586136-2.5484543,0.7586136-3.9419746  c0-3.0089607-1.2449799-5.7238541-3.2429276-7.669384c1.1752014-1.5169525,1.8817749-3.4154434,1.8817749-5.4829025  c0-4.9537926-6.6931534-11.0051794-13.5061951-7.7284145c0.0564499-0.4067497,0.6473846-10.3944387-8.8738823-10.2108479  c-2.7090149,0.0522356-5.1328163,1.2065954-6.777504,3.1057844c-2.0399323-2.032299-4.8527794-3.2893753-7.9598007-3.2893753  c-4.6877861,0-8.705719,2.8607445-10.4080925,6.9308805c-8.3144398-2.2682352-11.9478645,7.4759483-10.0351601,11.1579971  c-2.6417255,1.5607681-4.4190407,4.4293613-4.4190407,7.7199192c0,2.0996628,0.7268925,4.0263748,1.9354229,5.5546722  c-1.2085304,1.5282974-1.9354229,3.4550667-1.9354229,5.5547256c0,4.9537926,4.0158386,8.9696312,8.9696312,8.9696312  c1.5632954,0,3.0320797-0.401535,4.3117886-1.1046638c0.9592991,1.5075455,2.0199871,2.9285889,3.3158245,3.9800339  c2.4722748,2.0060616,6.1544762,2.4478645,9.180748,3.2245941c0.4628754,2.2185783,1.1784782,4.4079094,1.0825195,6.6601982  c-0.1457443,3.4219437-2.1869164,6.4165573-2.2204094,9.8867264c-0.0273094,2.8291855,1.0503159,5.6513367-2.6912918,6.9717407  c-1.4712563,0.519165-3.249218,0.5424957-4.7662239,0.8920975c-1.2430992,0.2864838-2.5020027,0.5975418-3.6834373,1.0855255  c-1.1966496,0.4942703-2.8055344,1.99897-4.2643719,2.0646667c-0.2083206-0.1669846-0.4833584-0.2591782-0.809576-0.2034836  c-0.1656895,0.0282745-0.3314323,0.0566101-0.4971218,0.0848312c-1.0641842,0.1817093-0.7930717,1.583992,0,1.8969345  c1.2403564,0.4893265,2.1675606,0.3234177,3.3331909-0.2672958c2.0404701-1.0340805,3.5724773-2.0678406,5.8635769-2.6304932  c2.9696655-0.7292023,7.2763977-0.4574432,8.9392586-3.5715637c0.9819298-1.838974,0.5331955-3.7079544,0.5500221-5.688858  c0.0221481-2.6057587,0.8681717-4.7057419,1.5729179-7.1536102c1.3209953-4.5879517-0.5839462-7.2450562-0.7504959-11.8076363  c-0.0204811-0.5607185-0.4120178-1.3463173-0.9134941-1.8690796c-2.2847557-2.8545113-4.786705-5.1519547-7.7498093-7.3177948  c-1.0232201-0.7479134-2.0057411,0.9582214-0.9928436,1.698555c2.8683243,2.0966492,5.2385063,4.3455505,7.4381599,7.1157608  c-2.7300529-0.6122208-6.0653915-1.2046585-7.9061432-3.0776672c-0.8960762-0.9117737-1.6751175-1.9956856-2.40271-3.1308899  c1.8543015-1.6432343,3.0295525-4.0357285,3.0295525-6.7082596c0-0.4581985-0.0452652-0.9047852-0.1115532-1.3444901  c0.0375252,0.0004845,0.0739212,0.0056458,0.1115532,0.0056458c0.4092255,0,0.8089333-0.0369339,1.2035866-0.0899963  c0.527977,2.128746,1.3223419,3.9489632,3.0762138,5.5293503c1.6745262,1.5088921,3.5710258,2.8209648,4.3795815,5.0673904  c0.5438919,1.511364,2.6862373,5.7827225,3.0581512,6.5821915c1.0818176,2.3251305,0.8493614,4.1137352,0.4680901,6.5711708  c-0.2506828,1.6160355-0.5854492,3.0341263-1.2734184,4.5173111c-0.5351295,1.1537018-1.132782,2.1410065-1.289814,3.4461441  c-0.179184,1.4887848,0.2605209,2.5764618,0.5186234,3.9830475c0.4417496,2.4082413-0.4522858,4.0046005-2.1551399,5.6284256  c-1.9824104,1.89048-4.7532692,2.2031479-6.4608574,4.4322662c-0.7694702,1.004509,0.9383316,1.9853134,1.6985588,0.9928436  c1.208046-1.5768967,3.3323288-1.917305,4.8928261-2.9962158c1.2143364-0.8395767,2.1904106-1.9831619,3.0706787-3.1583633  c0.6517372-0.8700562,1.3108368-1.7164612,1.42239-2.8386536c0.1712799-1.7216721-1.0643997-3.2035751-1.093483-4.9335785  c-0.0361824-2.1508942,1.4487839-3.596344,2.0873489-5.5031128c0.5877075-1.7548447,0.8328552-3.9075165,0.9478493-5.7349854  c0.333313-5.2969437-2.8440819-6.9396973-3.579628-10.0960693c-0.1339722-0.5747528-1.1901436-3.4834518-2.8873558-5.3113022  c-0.813179-0.8758087-1.8230133-1.4871674-2.6927986-2.2917976c-1.3277702-1.2283173-1.9048347-2.7247314-2.2954559-4.3561935  c1.0345612-0.3811073,1.9784851-0.943924,2.7935448-1.6552811c1.0381622,0.6639938,2.2212105,1.1159019,3.4922676,1.3052483  c-0.5916862,4.3513527,0.6399078,8.6436806,3.471138,12.110733c0.0252686,0.0691376,0.0565567,0.1388092,0.1014977,0.209343  c2.0526772,3.2197571,4.4542007,7.7764778,4.2939415,11.7313538c-0.1587524,3.9177246-4.2116318,5.1679688-4.7425156,8.8060379  c-0.1341324,0.9189758,0.1031647,1.6949005,0.4203529,2.5445786c0.3580437,0.9591904,1.0781059,1.8644638,1.2344398,2.9022522  c0.1033287,0.6862488-0.0637054,1.4735641-0.0262337,2.1747589c0.1485405,2.778923,1.4963646,5.1355057,3.608551,6.8947525  c0.9661789,0.8046875,2.3650742-0.5796432,1.3909378-1.3909912c-1.9114456-1.5920563-2.9571915-3.4736099-3.0575066-5.9873886  c-0.045105-1.1298218,0.1060143-2.1313248-0.2585335-3.2264175c-0.7191505-2.1603088-1.5961418-4.1638412,0.0851555-6.1142654  c0.8484459-0.9842987,1.9062347-1.8111801,2.5498505-2.9648285c2.2276115-3.9929886-0.1445084-9.9579048-2.4850159-14.158947  c-0.6920547-3.252388,3.3168488-5.0794296,4.0382042-5.5498314c0.2002563-0.1305847,0.4070206-0.2394485,0.6107178-0.3584747  c0.1378937,0.4275017,0.3134766,0.8380165,0.5260429,1.2257881c-0.8722076,0.7503853-1.5205536,1.6207657-1.6260338,2.8919258  c-0.159668,1.9241333,0.3313255,3.9742813,0.9887047,5.7754669c-0.2875099,0.4077721-0.5239449,0.8785477-0.6901207,1.4367409  c-0.8757515,2.9413338,1.1167107,5.911747,0.0768776,8.8091621c-0.8001671,2.2298126-3.949173,3.0671844-3.5005989,5.7583694  c0.1364441,0.8183365,0.751461,1.3157272,1.1217613,2.0237503c0.856884,1.6383972,0.5498619,3.1320724,0.9434395,4.8433151  c0.5122261,2.2268524,2.348732,3.6977921,4.293457,4.6808548c4.6076317,2.3291626,10.3954048,4.3767242,15.1638908,1.4594803  c1.0782166-0.6596375,0.091011-2.3616867-0.9929047-1.698555c-2.7376862,1.6748428-5.679657,1.3340073-8.5938988,0.3828278  c-3.2682457-1.0667648-7.2990837-2.2606201-8.0387726-6.1338348c-0.2215996-1.1600342,0.1123085-2.2162628-0.3623962-3.3576508  c-0.2283745-0.5491562-0.7053337-0.9519882-0.9454269-1.4697495c-1.1094513-2.3922272,1.2335815-2.9076767,2.3213654-4.7673569  c2.4520073-4.192009-2.3901787-10.6416817,3.7114487-12.3707733c2.8874092-0.8181763,5.6604729-1.4597511,7.4555244-3.7219276  c1.6386185,2.150032,4.2186813,3.543766,7.1305466,3.543766c4.9537964,0,8.969635-4.0158348,8.969635-8.9696846  C83.2542725,48.2239418,81.6974792,45.5051765,79.3279419,43.8907585z M50.9779549,51.6884155  c-0.8521576,0.7322693-1.6186714,1.5436172-1.9696693,2.4717369c-2.5217896-3.0635834-3.5532303-6.8905106-2.9712219-10.7404442  c1.973484-0.1398811,3.7690239-0.9131699,5.1843681-2.1245499c0.4300842,1.1304169,0.6903915,2.3199692,0.64851,3.6536026  C51.7988739,47.2120132,51.1509552,49.4267197,50.9779549,51.6884155z M53.1381493,50.0215797  c0.3515892-2.3528214,0.932415-4.7038116,0.6089935-7.0786171c-0.1574097-1.1559525-0.5421181-2.2400284-1.037571-3.2788925  c0.3126144-0.440403,0.5838356-0.9104843,0.8140373-1.404808c1.369381,0.8471527,2.9780502,1.3444901,4.706604,1.3444901  c0.1537552,0,0.3036385-0.015377,0.4555092-0.0230103c-0.0041924,0.1232185-0.0186005,0.2438049-0.0186005,0.368042  c0,0.8487701,0.1090813,1.6703873,0.295681,2.4621696c-2.368084,1.1484261-4.0050316,3.5683899-4.0050316,6.3769875  c0,0.0365562,0.0049477,0.0718765,0.0054855,0.108326C54.3374863,49.2410316,53.7288132,49.6139679,53.1381493,50.0215797z   M56.7825546,59.4270973c-0.2813797-0.9125252-0.4885178-1.8406982-0.5775986-2.8042946  c-0.1194534-1.2925606,0.0559654-2.0796623,0.8138237-2.8381691c1.2845993,1.2932053,3.0635834,2.0946617,5.0303459,2.0946617  c1.4543228,0,2.8053207-0.4393272,3.9305191-1.1903038c0.0222626,0.0546188,0.0429535,0.1098328,0.0662384,0.1638603  C64.0554581,57.9812698,59.6219597,57.7531624,56.7825546,59.4270973z"></path></svg>