<svg height='100px' width='100px'  fill="#000000" xmlns="http://www.w3.org/2000/svg" xmlns:xlink="http://www.w3.org/1999/xlink" version="1.1" x="0px" y="0px" viewBox="0 0 50 50" enable-background="new 0 0 50 50" xml:space="preserve"><g><path d="M47.6,8.1h-23c-0.9,0-1.6,0.7-1.6,1.6c0,1.6-1.3,2.8-2.8,2.8H2.5c-0.9,0-1.7,0.8-1.7,1.7v26.1c0,0.9,0.8,1.7,1.7,1.7h45   c0.9,0,1.7-0.8,1.7-1.7V9.6C49.2,8.8,48.5,8.1,47.6,8.1z M13.9,22.2c-2,0-3.6-1.6-3.6-3.6s1.6-3.6,3.6-3.6c2,0,3.6,1.6,3.6,3.6   S15.9,22.2,13.9,22.2z M25.5,12.6C25.5,12.6,25.6,12.6,25.5,12.6l9.2-0.1c0,0,0.1,0,0.1,0.1v2.8c0,0,0,0.1-0.1,0.1h-9.2   c0,0-0.1,0-0.1-0.1V12.6z M30.8,38.4c-5.7,0-10.3-4.6-10.3-10.3s4.6-10.3,10.3-10.3c5.7,0,10.3,4.6,10.3,10.3S36.5,38.4,30.8,38.4z    M46.2,16.5C46.2,16.5,46.2,16.5,46.2,16.5L40,16.5c0,0-0.1,0-0.1-0.1v-4.9c0,0,0-0.1,0.1-0.1h6.1c0,0,0.1,0,0.1,0.1V16.5z"></path><rect x="12.9" y="9.1" width="5.1" height="2.3"></rect><rect x="6.3" y="9.1" width="3.9" height="2.3"></rect><path d="M30.8,19.9c-1.6,0-3.1,0.5-4.3,1.2c0.9,0.5,1.5,1.4,1.5,2.4c0,1.5-1.2,2.7-2.7,2.7c-0.9,0-1.7-0.4-2.2-1   c-0.3,0.9-0.5,1.9-0.5,2.9c0,4.6,3.7,8.3,8.3,8.3s8.3-3.7,8.3-8.3S35.4,19.9,30.8,19.9z M27.1,31.3c-0.6,0-1.1-0.5-1.1-1.1   c0-0.6,0.5-1.1,1.1-1.1c0.6,0,1.1,0.5,1.1,1.1C28.3,30.8,27.8,31.3,27.1,31.3z"></path><path d="M13.9,16c-1.4,0-2.6,1.2-2.6,2.6c0,1.4,1.1,2.6,2.6,2.6c1.4,0,2.6-1.2,2.6-2.6C16.5,17.2,15.3,16,13.9,16z"></path></g></svg>