<svg height='100px' width='100px'  fill="#000000" xmlns="http://www.w3.org/2000/svg" viewBox="0 0 88 88" x="0px" y="0px"><title>business, finance, atm, cash, money, hand</title><g><path d="M64,65v6a1,1,0,0,1-1,1H27a1,1,0,0,1-1-1V65a1,1,0,0,1,1-1H63A1,1,0,0,1,64,65ZM29.79,62H59V56.49A11.1084,11.1084,0,0,0,62.81,50H41.65A10.0357,10.0357,0,0,0,34,45.05V34a5,5,0,0,0-10,0V51.24a11.046,11.046,0,0,0,2.72,7.25ZM86,6H2A1.0029,1.0029,0,0,0,1,7V25a1.0029,1.0029,0,0,0,1,1H12V20H10a4,4,0,0,1,0-8H78a4,4,0,0,1,0,8H76v6H86a1.0029,1.0029,0,0,0,1-1V7A1.0029,1.0029,0,0,0,86,6ZM8,16a2.0059,2.0059,0,0,0,2,2h2V14H10A2.0059,2.0059,0,0,0,8,16Zm72,0a2.0059,2.0059,0,0,0-2-2H76v4h2A2.0059,2.0059,0,0,0,80,16ZM46,32.68a1.3116,1.3116,0,0,0-.91-1.26L45,31.39v2.57A1.32,1.32,0,0,0,46,32.68Zm-3-6.64a1.3231,1.3231,0,0,0-.09,2.54l.09.03ZM22,34v2.35a6.3856,6.3856,0,0,0-1-.27V23.92A6.0376,6.0376,0,0,0,25.92,19H62.08A6.0376,6.0376,0,0,0,67,23.92V36.08A6.0376,6.0376,0,0,0,62.08,41H36V34a7,7,0,0,0-14,0Zm18-1.32a3.3219,3.3219,0,0,0,3,3.3V37a1,1,0,0,0,2,0V35.98a3.3236,3.3236,0,0,0,.73-6.46L45,29.28V26.04a1.32,1.32,0,0,1,1,1.28V28a1,1,0,0,0,2,0v-.68a3.3219,3.3219,0,0,0-3-3.3V23a1,1,0,0,0-2,0v1.02a3.3236,3.3236,0,0,0-.73,6.46l.73.24v3.24a1.32,1.32,0,0,1-1-1.28V32a1,1,0,0,0-2,0ZM14,47a1.0029,1.0029,0,0,0,1,1h7V38.56A3.906,3.906,0,0,0,20,38a1.0029,1.0029,0,0,1-1-1V23a1.0029,1.0029,0,0,1,1-1,3.9989,3.9989,0,0,0,4-4,1.0029,1.0029,0,0,1,1-1H63a1.0029,1.0029,0,0,1,1,1,3.9989,3.9989,0,0,0,4,4,1.0029,1.0029,0,0,1,1,1V37a1.0029,1.0029,0,0,1-1,1,3.9989,3.9989,0,0,0-4,4,1.0029,1.0029,0,0,1-1,1H36v.38A11.8653,11.8653,0,0,1,42.76,48H73a1.0029,1.0029,0,0,0,1-1V14H14ZM29,81a1,1,0,0,0,1,1H60a1,1,0,0,0,1-1V74H29Z"></path></g></svg>