<svg height='100px' width='100px'  fill="#000000" xmlns="http://www.w3.org/2000/svg" xmlns:xlink="http://www.w3.org/1999/xlink" version="1.1" x="0px" y="0px" viewBox="0 0 100 100" enable-background="new 0 0 100 100" xml:space="preserve"><g><path d="M58.316,14.354c10.364,0,18.796,8.432,18.796,18.796c0,0.457,0.311,0.856,0.754,0.97c0.082,0.021,0.165,0.03,0.246,0.03   c0.36,0,0.701-0.195,0.879-0.523l3.802-7.005c0.264-0.485,0.084-1.092-0.402-1.355c-0.484-0.263-1.091-0.083-1.355,0.402   l-2.204,4.061c-1.636-9.846-10.212-17.375-20.515-17.375c-0.553,0-1,0.447-1,1S57.764,14.354,58.316,14.354z"></path><path d="M37.158,87.17c-10.364,0-18.796-8.432-18.796-18.795c0-0.457-0.311-0.856-0.754-0.969c-0.441-0.115-0.906,0.09-1.125,0.491   l-3.803,7.004c-0.264,0.485-0.084,1.093,0.401,1.356c0.486,0.262,1.093,0.083,1.356-0.401l2.205-4.062   C18.279,81.64,26.855,89.17,37.158,89.17c0.553,0,1-0.447,1-1S37.711,87.17,37.158,87.17z"></path><polygon points="73.037,69.409 73.817,64.84 72.192,64.84  "></polygon><polygon points="61.198,69.165 62.059,64.84 60.626,64.84  "></polygon><polygon points="66.25,60.494 67.833,60.494 67.013,56.338  "></polygon><path d="M66.502,36.201c-1.533,0-3.034,0.137-4.496,0.386c-1.729-13.645-13.4-24.232-27.505-24.232   c-15.293,0-27.735,12.442-27.735,27.735s12.442,27.734,27.735,27.734c1.927,0,3.807-0.198,5.624-0.574   c2.063,12.712,13.082,22.421,26.377,22.421c14.765,0,26.732-11.97,26.732-26.734C93.234,48.171,81.267,36.201,66.502,36.201z    M8.766,40.09c0-14.19,11.545-25.735,25.735-25.735c14.189,0,25.733,11.545,25.733,25.735S48.69,65.824,34.501,65.824   C20.311,65.824,8.766,54.28,8.766,40.09z M80.657,64.086c0,0.417-0.34,0.754-0.752,0.754h-2.391l-1.839,9.848   c-0.064,0.355-0.377,0.618-0.741,0.618h-3.3c-0.351,0-0.65-0.239-0.73-0.581L68.52,64.84h-2.988l-2.328,9.884   c-0.08,0.343-0.383,0.582-0.734,0.582h-3.227c-0.362,0-0.673-0.258-0.739-0.616l-1.872-9.85h-2.433   c-0.415,0-0.753-0.336-0.753-0.749v-2.84c0-0.417,0.338-0.756,0.753-0.756h1.614l-0.401-2.217c1.327-1.523,2.496-3.188,3.469-4.975   l1.309,7.19h2.536l1.607-7.824c0.085-0.332,0.385-0.567,0.729-0.567h3.794c0.346,0,0.646,0.235,0.73,0.567l1.876,7.823h2.805   l1.2-7.763c0.063-0.361,0.375-0.628,0.743-0.628h2.789c0.223,0,0.434,0.1,0.578,0.273c0.143,0.172,0.202,0.396,0.16,0.619   l-1.416,7.499h1.586c0.416,0,0.753,0.337,0.751,0.753V64.086z"></path><path d="M44.145,19.933c1.505,0.724,2.93,1.618,4.236,2.658c0.092,0.073,0.202,0.108,0.312,0.108c0.146,0,0.292-0.064,0.392-0.188   c0.172-0.216,0.136-0.53-0.08-0.703c-1.365-1.086-2.854-2.021-4.426-2.775c-0.249-0.121-0.547-0.016-0.667,0.233   S43.896,19.813,44.145,19.933z"></path><path d="M34.501,17.743c1.659,0,3.315,0.184,4.922,0.546c0.037,0.009,0.074,0.013,0.11,0.013c0.229,0,0.436-0.157,0.487-0.39   c0.062-0.27-0.107-0.537-0.377-0.598c-1.68-0.379-3.409-0.571-5.143-0.571h-0.049c-0.276,0-0.476,0.224-0.476,0.5   S34.225,17.743,34.501,17.743z"></path><path d="M24.554,20.025c0.073,0,0.148-0.016,0.219-0.05c1.504-0.73,3.09-1.291,4.714-1.664c0.269-0.062,0.437-0.33,0.375-0.6   c-0.063-0.269-0.325-0.437-0.6-0.375c-1.696,0.391-3.354,0.976-4.927,1.738c-0.248,0.121-0.352,0.42-0.231,0.669   C24.19,19.922,24.368,20.025,24.554,20.025z"></path><path d="M56.901,44.611c-0.271-0.056-0.536,0.11-0.598,0.379c-0.364,1.626-0.916,3.216-1.638,4.724   c-0.119,0.249-0.014,0.548,0.235,0.667c0.069,0.033,0.144,0.049,0.216,0.049c0.187,0,0.365-0.104,0.451-0.284   c0.754-1.576,1.33-3.236,1.712-4.937C57.341,44.939,57.171,44.672,56.901,44.611z"></path><path d="M54.604,30.34c0.087,0.178,0.265,0.281,0.449,0.281c0.074,0,0.148-0.017,0.219-0.051c0.249-0.121,0.352-0.42,0.23-0.668   c-0.764-1.566-1.704-3.05-2.796-4.409c-0.172-0.216-0.488-0.249-0.702-0.077c-0.216,0.173-0.25,0.487-0.077,0.702   C52.973,27.421,53.873,28.841,54.604,30.34z"></path><path d="M56.845,40.019c0.001,0.276,0.225,0.499,0.5,0.499h0.001c0.276-0.001,0.5-0.226,0.499-0.501   c-0.005-1.751-0.206-3.496-0.598-5.188c-0.063-0.27-0.333-0.438-0.6-0.375c-0.27,0.063-0.438,0.331-0.375,0.6   C56.647,36.673,56.84,38.344,56.845,40.019z"></path><path d="M12.108,35.521c0.037,0.009,0.074,0.013,0.11,0.013c0.229,0,0.435-0.157,0.487-0.39c0.37-1.629,0.925-3.217,1.648-4.721   c0.12-0.249,0.016-0.548-0.233-0.667c-0.244-0.12-0.547-0.016-0.667,0.233c-0.757,1.571-1.337,3.23-1.723,4.934   C11.67,35.191,11.839,35.46,12.108,35.521z"></path><path d="M34.501,62.437c-1.677,0-3.349-0.188-4.967-0.556c-0.277-0.063-0.537,0.107-0.599,0.376   c-0.062,0.27,0.107,0.537,0.376,0.599c1.691,0.386,3.438,0.581,5.189,0.581h0.095c0.276,0,0.453-0.224,0.453-0.5   S34.777,62.437,34.501,62.437z"></path><path d="M44.27,60.186c-1.502,0.733-3.086,1.297-4.71,1.673c-0.269,0.063-0.437,0.331-0.374,0.601   c0.054,0.23,0.26,0.387,0.487,0.387c0.037,0,0.075-0.004,0.113-0.013c1.696-0.394,3.353-0.982,4.923-1.749   c0.248-0.121,0.351-0.421,0.229-0.669C44.816,60.167,44.518,60.066,44.27,60.186z"></path><path d="M52.715,53.873c-0.216-0.172-0.529-0.137-0.702,0.081c-1.039,1.309-2.225,2.503-3.524,3.549   c-0.215,0.173-0.249,0.488-0.076,0.703c0.099,0.123,0.244,0.187,0.39,0.187c0.11,0,0.221-0.036,0.313-0.11   c1.357-1.093,2.596-2.34,3.681-3.707C52.968,54.359,52.932,54.045,52.715,53.873z"></path><path d="M24.813,60.226c-1.502-0.726-2.926-1.622-4.231-2.665c-0.217-0.171-0.53-0.137-0.703,0.078   c-0.173,0.216-0.137,0.531,0.078,0.703c1.365,1.09,2.853,2.026,4.421,2.784c0.07,0.034,0.145,0.05,0.218,0.05   c0.186,0,0.364-0.104,0.45-0.282C25.166,60.645,25.062,60.346,24.813,60.226z"></path><path d="M12.155,40.114c0-0.275-0.224-0.499-0.5-0.499c0,0,0,0-0.001,0c-0.275,0-0.499,0.225-0.499,0.501   c0.002,1.751,0.199,3.496,0.587,5.188c0.053,0.231,0.259,0.389,0.487,0.389c0.036,0,0.074-0.004,0.111-0.013   c0.27-0.062,0.438-0.33,0.376-0.599C12.346,43.462,12.157,41.791,12.155,40.114z"></path><path d="M20.625,21.945c-0.174-0.215-0.489-0.248-0.703-0.078c-1.36,1.09-2.602,2.334-3.688,3.699   c-0.172,0.216-0.136,0.53,0.08,0.703c0.092,0.073,0.202,0.108,0.312,0.108c0.146,0,0.292-0.064,0.392-0.188   c1.04-1.307,2.228-2.498,3.53-3.541C20.763,22.476,20.797,22.161,20.625,21.945z"></path><path d="M14.377,49.798c-0.121-0.249-0.419-0.352-0.668-0.232c-0.249,0.12-0.353,0.419-0.232,0.668   c0.758,1.566,1.696,3.053,2.787,4.417c0.099,0.123,0.244,0.188,0.391,0.188c0.109,0,0.22-0.036,0.313-0.109   c0.216-0.173,0.25-0.487,0.078-0.703C16,52.72,15.103,51.297,14.377,49.798z"></path><path d="M28.856,38.342h-2.934c-0.304,0-0.549,0.236-0.549,0.527v4.146c0,0.295,0.245,0.531,0.549,0.531h2.929   c-0.039,1.926-0.842,3.172-0.842,3.172c-0.709,1.275-1.498,2.027-3.162,2.462c-0.24,0.063-0.401,0.271-0.401,0.509v4.566   c0,0.296,0.245,0.531,0.549,0.531h19.001c0.301,0,0.549-0.238,0.549-0.531v-3.769c0-0.296-0.248-0.529-0.549-0.529H31.752   c0.48-0.591,2.129-2.089,2.549-6.411h4.575c0.309,0,0.554-0.236,0.554-0.531v-4.144c0-0.293-0.245-0.531-0.554-0.531h-4.575v-1.913   c0-1.981,0.484-3.546,1.457-4.657c0.953-1.098,2.387-1.631,4.359-1.631c1.244,0,3.744,0.512,3.771,0.519   c0.163,0.037,0.335-0.007,0.458-0.106c0.129-0.104,0.207-0.251,0.207-0.412v-3.837c0-0.262-0.197-0.487-0.465-0.526   c-0.109-0.016-2.598-0.384-4.219-0.384c-3.262,0-5.938,1.007-7.967,3c-2.02,1.979-3.046,4.544-3.046,7.61V38.342z"></path></g></svg>