<svg height='100px' width='100px'  fill="#000000" xmlns="http://www.w3.org/2000/svg" xmlns:xlink="http://www.w3.org/1999/xlink" version="1.1" x="0px" y="0px" viewBox="0 0 64 64" style="enable-background:new 0 0 64 64;" xml:space="preserve"><path d="M63,20c0-3.859-3.141-7-7-7s-7,3.141-7,7c0,1.887,0.754,3.599,1.973,4.859l-1.702,4.539C47.961,27.902,46.05,27,44,27  c-1.049,0-2.071,0.237-3,0.679V9c0-4.411-3.589-8-8-8h-4c-4.411,0-8,3.589-8,8v2.695c-0.156-0.221-0.315-0.44-0.486-0.649  c-0.002-0.003-0.003-0.006-0.005-0.008l-0.001,0.001C18.49,8.576,15.426,7,12,7C5.935,7,1,11.935,1,18s4.935,11,11,11  c0.615,0,1.214-0.063,1.802-0.161l1.466,2.931C12.441,32.935,11,34.354,11,36v4c0,1.502,1.241,2.768,3.304,3.794  c3.232,5.463,4.952,10.6,5.821,13.966c0.797,3.086,3.583,5.24,6.773,5.24h14.203c3.19,0,5.977-2.154,6.773-5.24  c0.87-3.366,2.59-8.502,5.821-13.966C55.759,42.768,57,41.502,57,40v-4c0-1.262-0.85-2.398-2.526-3.384l2.117-5.646  C60.174,26.668,63,23.66,63,20z M45.23,40.135C45.084,39.777,45,39.395,45,39c0-1.654,1.346-3,3-3c1.568,0,2.844,1.213,2.974,2.748  C49.448,39.272,47.516,39.752,45.23,40.135z M51.331,35.299c-0.504-0.454-1.097-0.799-1.754-1.019l3.055-8.146  c0.579,0.32,1.209,0.557,1.873,0.702L51.331,35.299z M56,25c-2.757,0-5-2.243-5-5c0-0.203,0.036-0.396,0.06-0.593l9.25,3.083  C59.444,23.983,57.846,25,56,25z M56,15c2.757,0,5,2.243,5,5c0,0.203-0.036,0.396-0.06,0.593l-9.25-3.083  C52.556,16.017,54.154,15,56,15z M44,29c1.861,0,3.555,1.046,4.416,2.678l-0.889,2.37C44.995,34.29,43,36.405,43,39  c0,0.491,0.074,0.973,0.212,1.434C42.5,40.526,41.766,40.61,41,40.682V30.026C41.864,29.374,42.906,29,44,29z M39,9v31.838  c-0.65,0.042-1.318,0.074-2,0.1V9c0-2.286-0.969-4.346-2.513-5.806C37.077,3.858,39,6.206,39,9z M20.874,29.512  C21.627,28.569,22.773,28,24,28c0.396,0,0.779,0.065,1.148,0.176c-1.309,1.124-2.291,2.615-2.785,4.314L20.874,29.512z   M19.924,27.613l-0.679-1.358c0.659-0.579,1.249-1.231,1.754-1.95v2.503C20.612,27.032,20.255,27.306,19.924,27.613z M31,3.35  c2.327,0.826,4,3.043,4,5.65v17.947C33.763,26.334,32.393,26,31,26c-1.392,0-2.706,0.327-3.883,0.893  c-0.039-0.024-0.077-0.053-0.117-0.076V9C27,6.393,28.673,4.176,31,3.35z M26.916,40.673C25.09,39.355,24,37.257,24,35  c0-3.859,3.141-7,7-7c1.457,0,2.823,0.456,4,1.283v11.702C34.665,40.99,34.341,41,34,41C31.441,41,29.077,40.878,26.916,40.673z   M23,9c0-2.794,1.923-5.142,4.513-5.806C25.969,4.654,25,6.714,25,9v17.083C24.673,26.029,24.339,26,24,26  c-0.339,0-0.672,0.039-1,0.094V9z M3,18c0-4.963,4.037-9,9-9c2.758,0,5.228,1.25,6.88,3.21C19.61,13.339,20,14.647,20,16  c0,3.859-3.141,7-7,7h-1c-2.757,0-5-2.243-5-5s2.243-5,5-5c1.654,0,3,1.346,3,3s-1.346,3-3,3c-0.552,0-1-0.448-1-1s0.448-1,1-1h1v-2  h-1c-1.654,0-3,1.346-3,3s1.346,3,3,3c2.757,0,5-2.243,5-5s-2.243-5-5-5c-3.859,0-7,3.141-7,7s3.141,7,7,7h1  c3.108,0,5.852-1.584,7.47-3.986C19.227,24.497,15.905,27,12,27C7.037,27,3,22.963,3,18z M17.606,27.447l4.541,9.082  c0.235,1.366,0.773,2.65,1.58,3.76c-0.749-0.111-1.467-0.232-2.146-0.363l-5.803-11.609C16.417,28.083,17.028,27.792,17.606,27.447z   M16.165,33.566l2.895,5.791C15.191,38.347,13,37.052,13,36C13,35.438,13.857,34.497,16.165,33.566z M42.164,46.578l0.922,0.922  L41,49.586L38.914,47.5l0.696-0.696C40.474,46.743,41.327,46.668,42.164,46.578z M44.271,59.857L42.414,58l2.086-2.086l1.415,1.415  C45.635,58.349,45.048,59.218,44.271,59.857z M22.085,57.329l1.415-1.415L25.586,58l-1.857,1.857  C22.952,59.218,22.365,58.349,22.085,57.329z M22.086,54.5l-0.63,0.63c-0.179-0.591-0.38-1.212-0.603-1.863L22.086,54.5z M21.414,51  l2.086-2.086L25.586,51L23.5,53.086L21.414,51z M24.914,54.5L27,52.414l2.086,2.086L27,56.586L24.914,54.5z M36.086,54.5L34,56.586  L31.914,54.5L34,52.414L36.086,54.5z M35.414,51l2.086-2.086L39.586,51L37.5,53.086L35.414,51z M30.5,53.086L28.414,51l2.086-2.086  L32.586,51L30.5,53.086z M30.5,55.914L32.586,58L30.5,60.086L28.414,58L30.5,55.914z M34,59.414L35.586,61h-3.172L34,59.414z   M35.414,58l2.086-2.086L39.586,58L37.5,60.086L35.414,58z M38.914,54.5L41,52.414l2.086,2.086L41,56.586L38.914,54.5z M45.914,54.5  l1.233-1.233c-0.223,0.651-0.423,1.272-0.603,1.863L45.914,54.5z M44.5,53.086L42.414,51l2.086-2.086L46.586,51L44.5,53.086z   M35.569,46.983l0.517,0.517L34,49.586L31.914,47.5l0.517-0.517C32.954,46.993,33.477,47,34,47S35.046,46.993,35.569,46.983z   M28.389,46.804l0.696,0.696L27,49.586L24.914,47.5l0.922-0.922C26.673,46.668,27.526,46.743,28.389,46.804z M20.31,45.724  l1.776,1.776L20,49.586l-0.964-0.964c-0.527-1.189-1.125-2.423-1.797-3.684C18.186,45.231,19.216,45.493,20.31,45.724z   M25.602,60.812L27,59.414L28.586,61h-1.688C26.45,61,26.019,60.925,25.602,60.812z M39.414,61L41,59.414l1.398,1.398  C41.981,60.925,41.55,61,41.102,61H39.414z M48.964,48.622L48,49.586L45.914,47.5l1.776-1.776c1.094-0.231,2.124-0.492,3.07-0.785  C50.089,46.199,49.491,47.433,48.964,48.622z M34,45c-12.819,0-21-2.961-21-5v-0.959C16.797,41.65,25.437,43,34,43  s17.203-1.35,21-3.959V40C55,42.039,46.819,45,34,45z M55,36c0,0.609-0.744,1.3-2.109,1.97c-0.045-0.214-0.121-0.416-0.193-0.619  l1.059-2.824C54.548,35.043,55,35.567,55,36z"></path></svg>