<svg height='100px' width='100px'  fill="#000000" xmlns="http://www.w3.org/2000/svg" xmlns:xlink="http://www.w3.org/1999/xlink" version="1.1" x="0px" y="0px" viewBox="0 0 512 512" style="enable-background:new 0 0 512 512;" xml:space="preserve"><g><g><g><path d="M229.333,401h-200c-5.523,0-10-4.478-10-10V260.5c0-93.462,76.038-169.5,169.5-169.5h40.5c5.523,0,10,4.477,10,10v190     c0,5.522-4.477,10-10,10c-22.056,0-40,17.944-40,40s17.944,40,40,40c5.523,0,10,4.478,10,10S234.856,401,229.333,401z      M39.333,381h145.315c-9.519-10.623-15.315-24.647-15.315-40c0-29.678,21.659-54.392,50-59.167V111h-30.5     c-82.435,0-149.5,67.065-149.5,149.5V381z"></path></g><g><path d="M229.333,401c-33.084,0-60-26.916-60-60s26.916-60,60-60c33.085,0,60.001,26.916,60.001,60S262.418,401,229.333,401z      M229.333,301c-22.056,0-40,17.944-40,40s17.944,40,40,40s40.001-17.944,40.001-40S251.389,301,229.333,301z"></path></g><g><path d="M482.667,411H349.334c-3.215,0-6.232-1.545-8.112-4.153c-1.88-2.607-2.391-5.959-1.375-9.009l13.333-40     c1.361-4.084,5.183-6.838,9.487-6.838h23.334v-10c0-5.522,4.478-10,10-10h40c5.522,0,10,4.478,10,10v10h23.333     c4.305,0,8.126,2.754,9.487,6.838l13.333,40c1.016,3.05,0.505,6.401-1.375,9.009C488.899,409.455,485.882,411,482.667,411z      M363.208,391h105.585l-6.667-20h-26.125c-5.522,0-10-4.478-10-10v-10h-20v10c0,5.522-4.478,10-10,10h-26.126L363.208,391z"></path></g><g><path d="M89.333,401c-5.523,0-10-4.478-10-10V251c0-5.523,4.477-10,10-10s10,4.477,10,10v140     C99.333,396.522,94.856,401,89.333,401z"></path></g><g><path d="M419.334,351c-5.522,0-10-4.478-10-10V101c0-33.084-26.916-60-60-60s-60,26.916-60,60c0,5.523-4.478,10-10,10h-50.001     c-5.523,0-10-4.477-10-10s4.477-10,10-10h40.623c4.938-39.409,38.652-70,79.378-70c44.112,0,80,35.888,80,80v240     C429.334,346.522,424.856,351,419.334,351z"></path></g><g><path d="M409.334,491c-16.542,0-30-13.458-30-30s13.458-30,30-30s30,13.458,30,30S425.876,491,409.334,491z M409.334,451     c-5.514,0-10,4.486-10,10s4.486,10,10,10s10-4.486,10-10S414.848,451,409.334,451z"></path></g><g><path d="M199.333,491c-22.056,0-40-17.944-40-40s17.944-40,40-40s40,17.944,40,40S221.389,491,199.333,491z M199.333,431     c-11.028,0-20,8.972-20,20s8.972,20,20,20s20-8.972,20-20S210.361,431,199.333,431z"></path></g><g><path d="M89.333,231c-5.523,0-10-4.477-10-10v-20c0-5.523,4.477-10,10-10s10,4.477,10,10v20     C99.333,226.523,94.856,231,89.333,231z"></path></g><rect x="329.334" y="191" width="20" height="20"></rect><rect x="349.334" y="171" width="20" height="20"></rect><rect x="309.334" y="171" width="20" height="20"></rect><rect x="329.334" y="151" width="20" height="20"></rect><rect x="59.333" y="71" width="20" height="20"></rect><rect x="79.333" y="51" width="20" height="20"></rect><rect x="39.333" y="51" width="20" height="20"></rect><rect x="59.333" y="31" width="20" height="20"></rect></g></g></svg>