<svg height='100px' width='100px'  fill="#000000" xmlns="http://www.w3.org/2000/svg" xmlns:xlink="http://www.w3.org/1999/xlink" version="1.1" x="0px" y="0px" viewBox="0 0 512 512" style="enable-background:new 0 0 512 512;" xml:space="preserve"><g><g><g><path d="M280.7,128.5H140.8c-6.8,0-12.3,5.5-12.3,12.3v111.1v4.1v115.2c0,6.8,5.5,12.3,12.3,12.3h139.8     c6.8,0,12.3-5.5,12.3-12.3V256v-4.1V140.8C293,134,287.5,128.5,280.7,128.5z M251.4,251.9v8.2h33.4v111.1c0,2.3-1.8,4.1-4.1,4.1     H140.8c-2.3,0-4.1-1.8-4.1-4.1V260.1h131.6v-8.2H136.7V140.8c0-2.3,1.8-4.1,4.1-4.1h139.8c2.3,0,4.1,1.8,4.1,4.1v111.1H251.4z"></path><path d="M144.9,243.7h131.6v-98.7H144.9V243.7z M153.2,153.2h115.2v82.3H153.2V153.2z"></path><path d="M177.9,268.3c-18.1,0-32.9,14.8-32.9,32.9v32.9c0,18.1,14.8,32.9,32.9,32.9s32.9-14.8,32.9-32.9v-32.9     C210.8,283.1,196,268.3,177.9,268.3z M177.9,358.8c-13.6,0-24.7-11.1-24.7-24.7v-12.3h49.4v12.3     C202.5,347.8,191.5,358.8,177.9,358.8z M202.5,313.6h-49.4v-12.3c0-13.6,11.1-24.7,24.7-24.7s24.7,11.1,24.7,24.7V313.6z"></path><path d="M272.5,297.1c0-13.6-11.1-24.7-24.7-24.7s-24.7,11.1-24.7,24.7c0,8.6,4.4,16.1,11.1,20.6     c-6.7,4.4-11.1,12-11.1,20.6c0,13.6,11.1,24.7,24.7,24.7c13.6,0,24.7-11.1,24.7-24.7c0-8.6-4.4-16.1-11.1-20.6     C268,313.3,272.5,305.7,272.5,297.1z"></path><path d="M301.2,201.2c0,1.4,0.3,2.8,0.8,4.1l23.9,39.5v122.2c0,9.1,7.4,16.5,16.5,16.5     c9.1,0,16.5-7.4,16.5-16.5V244.8l23.6-38.9l0.3-0.6c0.5-1.3,0.8-2.7,0.8-4.1c0-6.1-4.9-11-11-11h-60.2     C306.2,190.2,301.2,195.1,301.2,201.2z M352.4,239.5h-3.9l18.7-41.1h5.2c1.5,0,2.8,1.3,2.8,2.8c0,0.3,0,0.5-0.1,0.8L352.4,239.5z      M334.1,247.8h16.5v8.2h-16.5V247.8z M309.5,201.2c0-1.5,1.3-2.8,2.8-2.8h6.8l17.1,41.1h-3.9L309.6,202     C309.5,201.7,309.5,201.5,309.5,201.2z"></path><rect x="177.9" y="161.4" width="82.3" height="8.2"></rect><rect x="161.4" y="161.4" width="8.2" height="8.2"></rect></g><rect x="177.9" y="186.6" width="82.3" height="8.2"></rect><rect x="161.4" y="186.6" width="8.2" height="8.2"></rect></g><path d="M256,505c-66.5,0-129-25.9-176.1-72.9C32.9,385,7,322.5,7,256S32.9,127,79.9,79.9C127,32.9,189.5,7,256,7   s129,25.9,176.1,72.9c47,47,72.9,109.6,72.9,176.1s-25.9,129-72.9,176.1C385,479.1,322.5,505,256,505z M256,15   C123.1,15,15,123.1,15,256s108.1,241,241,241s241-108.1,241-241S388.9,15,256,15z"></path></g></svg>