<svg height='100px' width='100px'  fill="#000000" xmlns="http://www.w3.org/2000/svg" xmlns:xlink="http://www.w3.org/1999/xlink" version="1.1" x="0px" y="0px" viewBox="0 0 100 100" style="enable-background:new 0 0 100 100;" xml:space="preserve"><rect x="30.4" y="10.5" width="2.9" height="12.2"></rect><rect x="39.6" y="10.5" width="2.9" height="12.2"></rect><rect x="49.2" y="10.5" width="2.9" height="12.2"></rect><rect x="58.3" y="10.5" width="2.9" height="12.2"></rect><rect x="66.6" y="10.5" width="2.9" height="12.2"></rect><path d="M74.3,25.6c1.1-1.3,1.8-2.9,1.8-4.8v-8.3c0-4-3.2-7.2-7.2-7.2H31.1c-4,0-7.2,3.2-7.2,7.2v8.3c0,1.8,0.7,3.5,1.8,4.8  c-4.3,2.2-7.3,6.7-7.3,11.9v43.9c0,7.4,6,13.3,13.3,13.3h36.6c7.4,0,13.3-6,13.3-13.3V37.5C81.7,32.3,78.7,27.8,74.3,25.6z   M27.8,12.5c0-1.8,1.5-3.3,3.3-3.3h37.8c1.8,0,3.3,1.5,3.3,3.3v8.3c0,1.8-1.5,3.3-3.3,3.3h-0.6H31.7h-0.6c-1.8,0-3.3-1.5-3.3-3.3  V12.5z M31.7,28h36.6c4.7,0,8.6,3.5,9.3,8H22.4C23.1,31.5,27,28,31.7,28z M72.5,45.7c0,0-1.3,18.8-14.6,12.4  C53.4,44.5,72.5,45.7,72.5,45.7z M52.7,76C21.7,83,28,42,28,42S69,48.6,52.7,76z M68.3,90.8H31.7c-4.3,0-7.9-2.9-9.1-6.9h54.8  C76.3,87.9,72.6,90.8,68.3,90.8z"></path><path d="M61.9,55.3c1.1-0.9,2.3-1.8,3.4-2.7c0.2-0.1,0.3-0.3,0.4-0.4c0.3,0.1,0.5,0.1,0.8,0.2c0.4,0,0.8,0,1.3,0  c0.4,0,0.8,0,1.3-0.1c0.5-0.1,0.9-0.2,1.3-0.4c-0.4-0.2-0.8-0.3-1.3-0.4c-0.5-0.1-0.8-0.1-1.3-0.1s-0.8,0-1.3,0.1  c-0.1,0-0.2,0-0.3,0c0.7-0.6,1.5-1.4,2.3-2c1.1-1,2.1-2,3.1-3.1c-1.2,0.8-2.4,1.6-3.5,2.5c-1.2,0.9-2.3,1.8-3.4,2.7  c-1,0.8-1.9,1.7-2.9,2.5c0.1-0.2,0.1-0.5,0.2-0.6c0.2-0.6,0.3-1.3,0.4-1.8c0.1-0.6,0.2-1.3,0.2-1.8c0-0.6,0-1.3-0.1-1.9  c-0.3,0.9-0.5,1.5-0.6,2.2c-0.2,0.6-0.3,1.3-0.4,1.8c-0.1,0.6-0.2,1.3-0.2,1.8c0,0.4,0,0.8,0,1.2c-1,0.9-1.9,1.9-2.8,2.9  C59.5,57,60.8,56.2,61.9,55.3z"></path><path d="M35.2,56.8c-1.2-0.3-1.8-0.3-2.8-0.4c-1,0-1.8,0-2.8,0.2c0.8,0.8,1.7,1,2.5,1.4c1,0.3,1.8,0.5,2.7,0.7  c1.2,0.3,1.8,0.3,2.8,0.4c0.4,0,1.2,0,1.7,0c0.3,0.3,0.3,0.6,0.7,1c1.8,2.7,3.8,5.1,5.8,7.6c2,2.6,4.2,4.9,6.3,7.2  c-1.5-2.5-2.9-5.1-4.6-7.6c0.1-0.8,0.3-1.7,0.5-2.5c0.2-1.3,0.3-2.7,0.5-4.1c0.2-1.3,0.2-2.7,0.2-4.1c0-1.4-0.1-2.7,0-4.3  c-0.7,1.3-0.8,2.5-1.2,3.9c-0.2,1.3-0.3,2.7-0.5,4.1c-0.2,1.3-0.2,2.7-0.2,4.1c0,0.4,0,1,0,1.4c-1.7-2.3-3.3-4.7-4.9-6.9  c-1.8-2.7-3.8-5-5.8-7.6s-4.2-4.9-6.3-7.2c1.5,2.9,3.3,5.5,4.9,8.2c1.3,1.8,2.5,3.8,3.8,5.4c-0.1,0-0.3,0-0.5-0.2  C36.9,57.2,36.1,57,35.2,56.8z"></path></svg>