<svg height='100px' width='100px'  fill="#000000" xmlns="http://www.w3.org/2000/svg" viewBox="0 0 512 512" x="0px" y="0px"><path d="M198.03467,32H313.96533l13.71436,48.00049-.62891,2.20068A114.31232,114.31232,0,0,1,280,146.16284V144a8.00008,8.00008,0,0,0-8-8H240a8.00008,8.00008,0,0,0-8,8v2.16284a114.312,114.312,0,0,1-47.05078-63.96069l-.62891-2.20166Zm67.9126,160.71777C269.794,199.76953,272,209.71387,272,220s-2.20605,20.23047-6.05273,27.28223C262.96973,252.74121,259.251,256,256,256s-6.96973-3.25879-9.94727-8.71777C242.20605,240.23047,240,230.28613,240,220s2.20605-20.23047,6.05273-27.28223C249.03027,187.25879,252.749,184,256,184S262.96973,187.25879,265.94727,192.71777ZM256,272c18.24316,0,32-22.35547,32-52a91.29006,91.29006,0,0,0-.47205-9.25757C292.80981,222.27783,296,236.63672,296,252c0,36.85938-18.31787,68-40,68s-40-31.14062-40-68c0-15.36328,3.19019-29.72217,8.472-41.25757A91.29006,91.29006,0,0,0,224,220C224,249.64453,237.75684,272,256,272Zm0-104a39.37269,39.37269,0,0,0-8,.83789V152h16v16.83789A39.37269,39.37269,0,0,0,256,168ZM104.25439,233.24707a72.97068,72.97068,0,0,1,16.23926-106.62793l50.96509-33.97705A130.36746,130.36746,0,0,0,232,164.82324v11.07862a62.64341,62.64341,0,0,0-16.70508,18.08642C205.43164,209.60449,200,230.207,200,252s5.43164,42.39551,15.29492,58.01172C225.87939,326.77051,240.33545,336,256,336s30.12061-9.22949,40.70508-25.98828C306.56836,294.39551,312,273.793,312,252s-5.43164-42.39551-15.29492-58.01172A62.64341,62.64341,0,0,0,280,175.90186V164.82324a130.36669,130.36669,0,0,0,60.541-72.18115l50.96533,33.97705a72.97068,72.97068,0,0,1,16.23926,106.62793L292.18359,376H219.81641ZM368,476.94434V480H144v-3.05566L185.88867,456H326.11133ZM264,440H248V392h16Z"></path></svg>