<svg height='100px' width='100px'  fill="#000000" xmlns="http://www.w3.org/2000/svg" xmlns:xlink="http://www.w3.org/1999/xlink" version="1.1" x="0px" y="0px" viewBox="0 0 512 512" style="enable-background:new 0 0 512 512;" xml:space="preserve"><g><g><path d="M301.27,185.873c14.365,4.15,28.022,6.251,40.669,6.251c42.393,0,66.759-22.917,77.208-47.975    c-12.671,5.864-28.784,7.663-45.577,9.539C344.378,156.948,314.25,160.314,301.27,185.873z"></path><path d="M478.447,93.572c-26.784,18.102-61.107,21.835-94.434,25.459c-50.929,5.537-99.033,10.767-123.5,62.525    c-0.826,1.748-2.586,2.863-4.52,2.863c-1.934,0-3.694-1.114-4.52-2.861c-24.487-51.76-72.597-56.99-123.532-62.527    c-33.31-3.621-67.611-7.349-94.39-25.426c14.933,67.121,58.669,134.192,140.747,134.192c24.614,0,51.43-6.232,79.701-18.522    c1.27-0.551,2.714-0.554,3.987,0.001c27.642,12.017,54.226,18.11,79.012,18.11c44.663,0,81.858-19.643,107.851-55.096v241.137    c0,2.762,2.238,5,5,5c2.762,0,5-2.238,5-5V158.387c0-0.42-0.067-0.822-0.165-1.212C465.171,139.05,473.219,117.738,478.447,93.572    z M222.055,191.18c-0.595,1.238-1.674,2.177-2.982,2.596c-17.31,5.54-33.811,8.349-49.044,8.349c-0.002,0-0.003,0-0.005,0    c-24.339-0.001-45.876-7.284-62.282-21.061c-14.331-12.036-24.585-29.022-28.873-47.83c-0.492-2.16,0.496-4.387,2.427-5.472    c1.932-1.083,4.347-0.77,5.935,0.777c10.88,10.589,30.985,12.835,52.271,15.212c32.366,3.615,69.05,7.713,82.719,43.479    C222.71,188.513,222.65,189.941,222.055,191.18z M433.103,133.232c-4.288,18.807-14.544,35.794-28.879,47.831    c-16.409,13.778-37.947,21.06-62.285,21.06c-15.235,0-31.736-2.809-49.042-8.349c-1.308-0.419-2.387-1.357-2.982-2.596    c-0.595-1.238-0.655-2.666-0.165-3.949c13.658-35.769,50.343-39.865,82.709-43.48c21.288-2.378,41.395-4.623,52.282-15.213    c1.588-1.544,4.002-1.86,5.935-0.775C432.607,128.847,433.595,131.072,433.103,133.232z"></path><path d="M138.39,153.689c-16.789-1.875-32.899-3.674-45.565-9.536c10.449,25.054,34.813,47.971,77.199,47.972    c0.001,0,0.004,0,0.005,0c12.645,0.001,26.301-2.1,40.67-6.25C197.71,160.314,167.581,156.949,138.39,153.689z"></path></g></g></svg>