<svg height='100px' width='100px'  fill="#000000" xmlns="http://www.w3.org/2000/svg" xmlns:xlink="http://www.w3.org/1999/xlink" xml:space="preserve" version="1.1" style="shape-rendering:geometricPrecision;text-rendering:geometricPrecision;image-rendering:optimizeQuality;" viewBox="0 0 442.28 228.61" x="0px" y="0px" fill-rule="evenodd" clip-rule="evenodd"><defs><style type="text/css">
   
    .fil1 {fill:#000000}
    .fil0 {fill:#000000;fill-rule:nonzero}
   
  </style></defs><g><path class="fil0" d="M50.79 0l340.7 0c4.67,0 8.47,3.8 8.47,8.47 0,18.64 15.21,33.85 33.85,33.85 4.67,0 8.47,3.8 8.47,8.47l0 127.03c0,4.67 -3.8,8.47 -8.47,8.47 -18.64,0 -33.85,15.21 -33.85,33.85 0,4.67 -3.8,8.47 -8.47,8.47l-340.7 0c-4.67,0 -8.47,-3.8 -8.47,-8.47 0,-18.64 -15.21,-33.85 -33.85,-33.85 -4.67,0 -8.47,-3.8 -8.47,-8.47l0 -127.03c0,-4.67 3.8,-8.47 8.47,-8.47 18.64,0 33.85,-15.21 33.85,-33.85 0,-4.67 3.8,-8.47 8.47,-8.47zm51.82 192.73l0 18.94 237.06 0 0 -18.94 16.94 0 0 18.94 27.12 0c3.63,-21.18 20.43,-37.98 41.61,-41.61l0 -111.51c-21.18,-3.63 -37.98,-20.43 -41.61,-41.61l-27.12 0 0 18.94 -16.94 0 0 -18.94 -237.06 0 0 18.94 -16.94 0 0 -18.94 -27.12 0c-3.63,21.18 -20.43,37.98 -41.61,41.61l0 111.51c21.18,3.63 37.98,20.43 41.61,41.61l27.12 0 0 -18.94 16.94 0zm0 -36.2l0 24.14 -16.94 0 0 -24.14 16.94 0zm0 -36.2l0 24.15 -16.94 0 0 -24.15 16.94 0zm0 -36.19l0 24.14 -16.94 0 0 -24.14 16.94 0zm0 -36.2l0 24.14 -16.94 0 0 -24.14 16.94 0zm254 108.59l0 24.14 -16.94 0 0 -24.14 16.94 0zm0 -36.2l0 24.15 -16.94 0 0 -24.15 16.94 0zm0 -36.19l0 24.14 -16.94 0 0 -24.14 16.94 0zm0 -36.2l0 24.14 -16.94 0 0 -24.14 16.94 0z"></path><path class="fil1" d="M225.17 64.7l10.36 32.1c0.57,1.78 2.17,2.94 4.04,2.93l33.74 -0.06c1.87,0 3.45,1.15 4.03,2.92 0.58,1.78 -0.03,3.64 -1.54,4.74l-27.34 19.78c-1.51,1.1 -2.12,2.96 -1.54,4.74l10.49 32.08c0.58,1.78 -0.03,3.64 -1.54,4.74 -1.51,1.09 -3.47,1.09 -4.98,-0.01l-27.26 -19.89c-1.51,-1.1 -3.47,-1.1 -4.98,0l-27.26 19.89c-1.51,1.1 -3.46,1.1 -4.98,0.01 -1.51,-1.1 -2.12,-2.96 -1.54,-4.74l10.49 -32.08c0.58,-1.78 -0.03,-3.65 -1.54,-4.74l-27.34 -19.78c-1.51,-1.1 -2.12,-2.96 -1.54,-4.74 0.58,-1.77 2.16,-2.92 4.03,-2.92l33.74 0.06c1.87,0.01 3.47,-1.15 4.04,-2.93l10.36 -32.1c0.57,-1.78 2.16,-2.93 4.03,-2.93 1.87,0 3.46,1.15 4.03,2.93z"></path></g></svg>