<svg height='100px' width='100px'  fill="#000000" xmlns="http://www.w3.org/2000/svg" xmlns:xlink="http://www.w3.org/1999/xlink" xml:space="preserve" version="1.1" style="shape-rendering:geometricPrecision;text-rendering:geometricPrecision;image-rendering:optimizeQuality;" viewBox="0 0 142 159" x="0px" y="0px" fill-rule="evenodd" clip-rule="evenodd"><defs><style type="text/css">
   
    .fil0 {fill:#000000}
   
  </style></defs><g><path class="fil0" d="M14 76c-26,-27 -15,-43 17,-52 19,-27 44,-28 72,-18l-22 18c15,2 26,9 35,19 -15,12 -35,14 -59,11 34,8 55,26 66,53 26,0 32,45 -13,34 -8,5 -14,11 -16,17 -20,3 -37,0 -51,-7 -2,-5 1,-12 4,-15 -9,-5 -14,-12 -18,-19 -19,18 -35,-14 -16,-23 -1,-6 -1,-12 1,-18zm9 -35c3,0 5,2 5,5 0,3 -2,5 -5,5 -3,0 -5,-2 -5,-5 0,-3 2,-5 5,-5z"></path></g></svg>