<svg height='100px' width='100px'  fill="#000000" xmlns="http://www.w3.org/2000/svg" xmlns:xlink="http://www.w3.org/1999/xlink" xml:space="preserve" version="1.1" style="shape-rendering:geometricPrecision;text-rendering:geometricPrecision;image-rendering:optimizeQuality;" viewBox="0 0 181 328" x="0px" y="0px" fill-rule="evenodd" clip-rule="evenodd"><defs><style type="text/css">
   
    .fil0 {fill:#000000}
   
  </style></defs><g><path class="fil0" d="M33 0l115 0c16,0 28,13 28,29l0 15c3,-1 5,1 5,5l0 9c0,4 -2,6 -5,5l0 7c3,0 5,1 5,5l0 15c0,4 -2,5 -5,4l0 6c3,0 5,1 5,5l0 15c0,4 -2,5 -5,4l0 176c0,15 -12,28 -28,28l-115 0c-15,0 -28,-13 -28,-28l0 -190c-2,1 -5,0 -5,-4l0 -23c0,-4 3,-6 5,-6l0 -48c0,-16 13,-29 28,-29zm25 23c3,0 6,2 6,5 0,3 -3,5 -6,5 -2,0 -5,-2 -5,-5 0,-3 3,-5 5,-5zm0 2c2,0 3,1 3,3 0,2 -1,3 -3,3 -1,0 -3,-1 -3,-3 0,-2 2,-3 3,-3zm-1 11c5,0 10,5 10,10 0,6 -5,10 -10,10 -6,0 -10,-4 -10,-10 0,-5 4,-10 10,-10zm0 3c4,0 7,3 7,7 0,5 -3,8 -7,8 -4,0 -8,-3 -8,-8 0,-4 4,-7 8,-7zm0 6c1,0 2,1 2,2 0,0 -1,1 -2,1 -1,0 -2,-1 -2,-1 0,-1 1,-2 2,-2zm0 -4c3,0 5,3 5,6 0,2 -2,5 -5,5 -3,0 -5,-3 -5,-5 0,-3 2,-6 5,-6zm0 3c2,0 3,1 3,3 0,1 -1,2 -3,2 -2,0 -3,-1 -3,-2 0,-2 1,-3 3,-3zm-22 -15c3,0 5,2 5,5 0,3 -2,5 -5,5 -3,0 -6,-2 -6,-5 0,-3 3,-5 6,-5zm0 2c1,0 3,2 3,3 0,2 -2,3 -3,3 -2,0 -3,-1 -3,-3 0,-1 1,-3 3,-3zm0 1c1,0 1,1 1,2 0,1 0,2 -1,2 -1,0 -2,-1 -2,-2 0,-1 1,-2 2,-2zm0 -8c5,0 10,4 10,10 0,5 -5,10 -10,10 -6,0 -10,-5 -10,-10 0,-6 4,-10 10,-10zm0 2c4,0 7,4 7,8 0,4 -3,7 -7,7 -5,0 -8,-3 -8,-7 0,-4 3,-8 8,-8zm0 23c5,0 10,4 10,10 0,5 -5,10 -10,10 -6,0 -10,-5 -10,-10 0,-6 4,-10 10,-10zm0 2c4,0 7,4 7,8 0,4 -3,7 -7,7 -5,0 -8,-3 -8,-7 0,-4 3,-8 8,-8zm0 6c1,0 1,1 1,2 0,1 0,1 -1,1 -1,0 -2,0 -2,-1 0,-1 1,-2 2,-2zm0 -4c3,0 5,3 5,6 0,3 -2,5 -5,5 -3,0 -6,-2 -6,-5 0,-3 3,-6 6,-6zm0 3c1,0 3,1 3,3 0,1 -2,3 -3,3 -2,0 -3,-2 -3,-3 0,-2 1,-3 3,-3zm-3 -40l26 0c9,0 16,7 16,16l0 29c0,8 -7,15 -16,15l-26 0c-8,0 -15,-7 -15,-15l0 -29c0,-9 7,-16 15,-16zm0 4l26 0c7,0 12,6 12,12l0 29c0,6 -5,11 -12,11l-26 0c-6,0 -11,-5 -11,-11l0 -29c0,-6 5,-12 11,-12zm1 -14c-12,0 -22,10 -22,23l0 271c0,12 10,22 22,22l115 0c12,0 22,-10 22,-22l0 -271c0,-13 -10,-23 -22,-23l-115 0z"></path></g></svg>