<svg height='100px' width='100px'  fill="#000000" xmlns="http://www.w3.org/2000/svg" viewBox="0 0 64 64" x="0px" y="0px"><g data-name="vinyl"><path d="M32,8A24,24,0,1,0,56,32,24.028,24.028,0,0,0,32,8Zm0,10A14.015,14.015,0,0,1,46,32a1,1,0,0,1-2,0A12.013,12.013,0,0,0,32,20a1,1,0,0,1,0-2ZM17,27a1,1,0,0,1,1-1h1V19a1,1,0,0,1,.553-.895l6-3A1,1,0,0,1,27,16v9a1,1,0,0,1-1,1H24a1,1,0,0,1,0-2h1V17.618l-4,2V27a1,1,0,0,1-1,1H18A1,1,0,0,1,17,27ZM32,46A14.015,14.015,0,0,1,18,32a1,1,0,0,1,2,0A12.013,12.013,0,0,0,32,44a1,1,0,0,1,0,2Zm4.392-6.955a1,1,0,0,1-1.176,0L32,36.708l-3.216,2.337a1,1,0,0,1-1.539-1.118l1.228-3.781-3.216-2.337A1,1,0,0,1,25.845,30H29.82l1.229-3.781a1,1,0,0,1,1.9,0L34.18,30h3.975a1,1,0,0,1,.588,1.809l-3.216,2.337,1.228,3.781A1,1,0,0,1,36.392,39.045ZM47,47a1,1,0,0,1-1,1H44a1,1,0,0,1,0-2h1V39.618l-4,2V49a1,1,0,0,1-1,1H38a1,1,0,0,1,0-2h1V41a1,1,0,0,1,.553-.9l6-3A1,1,0,0,1,47,38Z"></path><path d="M32,4A28,28,0,1,0,60,32,28.032,28.032,0,0,0,32,4Zm0,54A26,26,0,1,1,58,32,26.03,26.03,0,0,1,32,58Z"></path><path d="M35.078,32H33.453a1,1,0,0,1-.951-.691L32,29.764l-.5,1.545a1,1,0,0,1-.951.691H28.922l1.315.955a1,1,0,0,1,.363,1.118l-.5,1.545,1.314-.955a1,1,0,0,1,1.176,0l1.314.955-.5-1.545a1,1,0,0,1,.363-1.118Z"></path></g></svg>