<svg height='100px' width='100px'  fill="#000000" xmlns="http://www.w3.org/2000/svg" viewBox="0 0 32 32" x="0px" y="0px"><title>bicycle, bike, transport, transportation,</title><g><path d="M28,14.1V7a3,3,0,0,0-3-3H24a1,1,0,0,0,0,2h1a1,1,0,0,1,1,1v3H10.62l-1-2H11a1,1,0,0,0,0-2H6A1,1,0,0,0,6,8H7.39l1.47,2.94L6.75,14.31A5.07,5.07,0,0,0,5,14a5,5,0,1,0,4.9,6h3.53A3,3,0,0,0,15,19.55l11-6.76V14.1a5,5,0,1,0,2,0ZM5,22a3,3,0,0,1,0-6,3.5,3.5,0,0,1,.65.07l-1.5,2.4A1,1,0,0,0,5,20H7.82A3,3,0,0,1,5,22Zm1.8-4,.54-.87a2.85,2.85,0,0,1,.48.87Zm3.1,0a5.06,5.06,0,0,0-1.46-2.63L9.9,13l2.49,5Zm4.5-.42L11.62,12H23.47ZM27,22a3,3,0,0,1-1-5.82V19a1,1,0,0,0,2,0V16.18A3,3,0,0,1,27,22Z"></path><polygon points="14.81 16.16 19.94 13 13.23 13 14.81 16.16"></polygon></g></svg>