<svg height='100px' width='100px'  fill="#000000" xmlns="http://www.w3.org/2000/svg" xmlns:xlink="http://www.w3.org/1999/xlink" xml:space="preserve" version="1.1" style="shape-rendering:geometricPrecision;text-rendering:geometricPrecision;image-rendering:optimizeQuality;" viewBox="0 0 50000 50000" x="0px" y="0px" fill-rule="evenodd" clip-rule="evenodd"><defs><style type="text/css">
   
    .fil0 {fill:#000000;fill-rule:nonzero}
   
  </style></defs><g><path class="fil0" d="M23378.11 2967.23c-163.69,94.48 -213.57,298.63 -236.53,631.42 207.69,-32.58 428.38,-63.25 665.98,-88.54 334.86,-35.63 704.14,-60.24 1119.26,-63.74 371.48,-3.13 731.01,12.88 1062.88,39.32 293.6,23.39 572.78,55.45 822.94,89.87 -29.97,-376.72 -104.43,-583.48 -375.14,-667.31 -262.13,-81.17 -1023.57,-120.27 -1742.71,-102.29 -600.25,15.01 -1152.24,66.35 -1316.68,161.27zm-7822.36 40024.61c-14.38,-4.09 -25.7,-13.61 -32.39,-25.73l0 -0.19c-6.51,-11.91 -8.71,-26.22 -4.64,-40.4l0.1 0.03c4.07,-14.31 13.57,-25.69 25.73,-32.4l0.19 0c11.88,-6.48 26.24,-8.69 40.4,-4.63 230.68,65.81 466.32,124.48 709.13,176.25 243.16,51.86 494.15,97.01 755.19,135.68 262.59,38.91 533.6,71.16 815.27,97.04 282.89,25.99 578.47,45.83 888.94,59.78 14.73,0.69 27.89,7.24 37,17.04l0.2 0.39c9.23,10.06 14.64,23.6 14.09,38.09 -0.57,14.98 -7.19,28.23 -17.04,37.39l-0.39 0.2c-10.12,9.27 -23.6,14.64 -38.09,14.09l-0.39 0c-311.35,-13.97 -608.63,-33.96 -894.08,-60.18 -286.69,-26.34 -559.63,-58.74 -821.06,-97.48 -262.95,-38.96 -516.18,-84.52 -761.91,-136.93 -246.08,-52.48 -484.1,-111.71 -716.28,-177.94l0.03 -0.1zm-44.7 1042.27c-14.19,-4.21 -25.29,-13.65 -31.96,-25.85l-0.2 -0.2c-6.35,-11.73 -8.31,-26.24 -4.21,-40.39l0 -0.19c4.19,-14.12 13.61,-25.28 25.85,-31.96l0.2 -0.2c11.72,-6.34 26.26,-8.3 40.38,-4.21l0.2 0c326.53,95.76 730.36,182.43 1185.02,257.83 473.99,78.61 1002.27,144.91 1555.11,196.44 558.17,52.04 1141.95,89.17 1720.81,108.85 563.14,19.18 1121.55,21.87 1647.09,5.81 14.85,-0.42 28.43,5.23 38.28,14.52l0.38 0.39c9.55,9.14 15.95,22.36 16.38,37.22 0.45,14.94 -5.24,28.47 -14.5,38.26l-0.38 0.4c-9.18,9.59 -22.36,15.95 -37.22,16.39 -527.74,16.16 -1088.23,13.46 -1653.31,-5.78 -580.88,-19.77 -1166.83,-57.04 -1727.19,-109.28 -556.59,-51.89 -1087.55,-118.48 -1562.93,-197.33 -458.99,-76.11 -867.16,-163.76 -1197.8,-260.72zm-45.26 -10051.85c-14.93,-1.29 -27.72,-8.58 -36.54,-19.11 -8.88,-10.58 -13.66,-24.5 -12.4,-39.1 1.28,-14.85 8.54,-27.69 19.11,-36.54 10.54,-8.86 24.5,-13.66 39.11,-12.41l0.19 0.19c145.45,13.18 288.96,26.66 432.38,40.12l32 2.97c694.67,65.31 1392.12,130.87 2316.41,170.42 14.67,0.62 28.02,7.18 37.41,17.43 9.23,10.06 14.64,23.51 14.09,38.08 -0.57,14.83 -7.18,28.2 -17.43,37.6 -10.11,9.27 -23.5,14.64 -38.08,14.1l-0.19 0c-926.48,-39.67 -1625.92,-105.41 -2322.66,-170.89l-31.21 -2.93c-143.35,-13.44 -286.8,-26.94 -432.18,-40.1l-0.01 0.17zm-111.9 785.19c-14.96,-1.87 -27.67,-9.76 -36.12,-20.79 -8.11,-10.57 -12.4,-24.42 -10.6,-39.12l-0.12 -0.01c1.85,-14.87 9.72,-27.63 20.79,-36.12 10.69,-8.19 24.81,-12.52 39.72,-10.52 776.81,101.86 1694.2,177.68 2653.13,239.13 961.56,61.61 1960.5,108.58 2902.06,152.84l10.71 0.5c14.73,0.68 27.9,7.24 36.99,17.04l0.21 0.39c9.23,10.06 14.64,23.6 14.09,38.09 -0.57,14.98 -7.19,28.24 -17.04,37.39l-0.39 0.2c-10.11,9.27 -23.6,14.64 -38.09,14.09 -3.79,0 -7.72,-0.51 -11.5,-0.51 -944.5,-44.39 -1946.57,-91.5 -2903.88,-152.84 -959.73,-61.5 -1879.01,-137.53 -2659.94,-239.91l-0.02 0.15zm118.43 -11660.97c-15.06,0.58 -28.69,-5.09 -38.66,-14.5l0.08 -0.08c-10.04,-9.43 -16.39,-22.65 -16.9,-37.13 -0.58,-15.06 5.04,-28.65 14.49,-38.66l0.08 0.08c9.39,-9.99 22.56,-16.36 37.13,-16.9 152.08,-5.5 305.69,-11.56 459.36,-17.61l4.37 -0.18c696.03,-27.43 1394.81,-54.98 2322.31,-44.09 14.68,0.2 28.09,6.3 37.62,15.98l0.2 0.2c9.42,9.68 15.29,23.03 15.15,37.84 -0.14,14.77 -6.31,28.31 -15.98,37.84l-0.19 0.19c-9.74,9.46 -23.14,15.3 -37.86,15.15l-0.2 0c-923.11,-10.83 -1621.17,16.68 -2316.42,44.08 -3.93,0 -8.1,0.31 -12.04,0.47 -148.94,5.86 -297.88,11.74 -452.54,17.32zm-107.9 -791.39c-14.86,1.13 -28.68,-4.01 -39.1,-13.02 -10.37,-8.96 -17.38,-21.9 -18.46,-36.59 -1.17,-14.86 3.94,-28.64 12.99,-39.1 8.93,-10.33 21.82,-17.37 36.59,-18.46 778.63,-59.64 1698.61,-85.47 2660.39,-94.63 959.8,-9.14 1960.58,-1.6 2903.85,5.52l10.49 0.09 0 -0.21c14.83,0 28.32,6.08 38.02,15.77l0.2 0.39c9.51,9.65 15.57,22.94 15.57,37.65 0,14.84 -6.08,28.33 -15.78,38.03l-0.39 0.2c-9.69,9.55 -23.03,15.56 -37.65,15.56l-0.2 -0.2 -10.48 -0.08 0 0.2 -0.31 0 -0.2 -0.2c-1884.24,-14.2 -3998.05,-30.14 -5555.53,89.08zm-62.84 -6761.7c-14.59,3.11 -29.12,-0.08 -40.55,-7.56 -11.48,-7.62 -20.06,-19.53 -23.15,-33.84 -3.12,-14.61 0.05,-29.07 7.55,-40.55 7.56,-11.39 19.36,-19.98 33.66,-23.11 161.86,-35.52 341.87,-68.46 538.17,-98.99 196.06,-30.49 405.22,-58.09 626.02,-82.98 222.99,-25.15 458.3,-47.74 704.35,-67.95 244.64,-20.09 502.98,-38.06 773.17,-54.05l0.2 0c14.71,-0.84 28.36,4.27 38.68,13.46 10.2,9.09 17.01,22.25 17.87,37.19 0.84,14.71 -4.31,28.41 -13.46,38.68 -9.09,10.2 -22.22,16.96 -36.99,17.86 -265.56,15.72 -523.07,33.68 -771.06,54.05 -246.59,20.25 -480.83,42.72 -700.98,67.54 -222.36,25.06 -430.06,52.4 -621.31,82.14 -190.98,29.7 -368.81,62.34 -531.97,98.11l-0.2 0zm0 -780c-14.59,3.12 -29.12,-0.08 -40.55,-7.56 -11.48,-7.62 -20.06,-19.53 -23.15,-33.84 -3.12,-14.61 0.05,-29.07 7.55,-40.56 7.56,-11.38 19.36,-19.97 33.66,-23.1 301.88,-66.22 659.72,-123.13 1063.37,-171.77 402.23,-48.48 850.96,-88.83 1335.93,-122.02 482.21,-33.01 1002.06,-58.98 1549.13,-78.88 544.37,-19.79 1115.47,-33.51 1703,-42.12l0.2 0c14.73,-0.14 28.09,5.66 37.86,15.15l0.19 0.2c9.64,9.49 15.84,22.97 15.98,37.82 0.14,14.73 -5.69,28.12 -15.15,37.86l-0.19 0.19c-9.49,9.63 -22.95,15.78 -37.63,15.98 -584.85,8.57 -1154.92,22.28 -1700.29,42.12 -542.7,19.74 -1061.28,45.69 -1545.96,78.88 -481.92,32.99 -928.69,73.18 -1330.32,121.58 -400.21,48.23 -754.72,104.59 -1053.43,170.07l-0.2 0zm-623.17 25965.87c943.01,479.54 5702.2,702.42 10445.43,681.89 4539.37,-19.65 9042.64,-260.53 10145.72,-710.86 -47.53,-165.61 -80.49,-363.78 -87.22,-621.93l-20.74 -3001.58c-1.48,-213.82 13.24,-373.16 39.78,-497.56 -1482.54,438.68 -5772.69,672.12 -10076.36,690.75 -4453.2,19.28 -8939.68,-189.84 -10359.68,-637.88 20.07,116 30.88,260.02 29.6,444.69l-20.74 3001.58c-7.13,273.39 -43.67,479.48 -95.79,650.9zm20688.13 235.87c-1302.01,473.56 -5764.32,725.46 -10241.52,744.84 -4679.42,20.26 -9395.4,-211.7 -10551.72,-708.03 -33.22,71.84 -68.36,139.68 -103.62,207.74 -107.34,207.2 -216.03,417.07 -251.19,788.08 -39.04,848.34 -25.53,1560.97 173.53,2152.57 190.95,567.49 562.16,1037.66 1241.46,1434.63 1323.19,589.62 5327.98,884.46 9344.79,884.46 4016.81,0 8021.6,-294.84 9344.79,-884.46 679.3,-396.97 1050.51,-867.14 1241.46,-1434.63 199.06,-591.6 212.56,-1304.23 173.53,-2152.57 -35.16,-371.01 -143.86,-580.88 -251.19,-788.08 -41.22,-79.58 -82.29,-158.85 -120.32,-244.55zm-20744.72 -4707.95c789.91,501.68 5654.23,734.95 10502.02,713.97 4684.97,-20.28 9331.24,-276.23 10241,-754.86 31.46,-40.39 65.19,-77.53 100.17,-116.03 83.81,-92.24 178.85,-196.84 251.57,-491.7 49.26,-199.68 68.7,-546.08 69.44,-915.76 0.97,-483.1 -30.5,-998.28 -69.66,-1288.88l-0.98 -5.87c-32.42,-286.38 -75.43,-489.24 -147.04,-652.53 -68.14,-155.37 -168.05,-284.54 -316.75,-429.04l-74.82 -72.7 -24.44 -6826.47 -0.54 -104.84c-3.35,-568.49 -4.27,-725.37 334.18,-1241.95 245.68,-375.03 232.24,-958.95 220.4,-1472.86 -3.07,-133.85 -6.06,-263.32 -4.61,-388.17 1.98,-170.81 1.26,-373.5 -32.77,-578.4 -31.63,-190.4 -93.36,-385.26 -212.65,-559.49l-1.96 -2.93c-77.89,-117.34 -141.88,-215.78 -194.8,-321.25l-11.73 18.63c-146.3,-91.76 -1377.29,-176.96 -3173.92,-244.73 -1970.23,-74.32 -4598.02,-120.9 -7220.63,-127.54 -2463.56,-6.23 -4925.94,23.72 -6828.19,80.52 -1651.31,49.31 -2872.82,117.81 -3293.47,199.17 -59,135.27 -133.74,250.96 -229.47,395.2l-1.97 2.93c-119.29,174.23 -181.02,369.09 -212.65,559.49 -34.03,204.9 -34.75,407.59 -32.77,578.4 1.43,122.81 -1.46,255.6 -4.47,396.09 -11.98,554.46 -26.74,1237.95 220.27,1614.94 131.21,200.26 211.4,346.43 260.24,483.49 472.85,-24.19 1680.92,-44.39 3289.28,-58.88 1902.48,-17.14 4366.62,-26.18 6833.2,-24.29 1022.86,0.78 2046.02,3.4 3030.27,7.6 948.26,4.06 1860.25,9.62 2700.96,16.45 2.1,-48.76 5.36,-94.66 8.6,-140.36 2.37,-33.7 4.8,-67.69 5.67,-81.92l0.95 -15.53 4.32 -15.52c57.62,-207.09 187.36,-404.83 370.23,-544.06 165.08,-125.7 373.29,-204.64 610.94,-201.49 21.69,0.29 42.88,1.54 64.04,2.89 910.36,-63.63 1333.22,227.65 1739.54,507.6 290.98,200.47 572.49,394.43 1047.09,412.23 82.5,2.91 147.05,72.17 144.14,154.67 -2.91,82.52 -72.17,147.06 -154.68,144.15 -562.23,-21.09 -879.03,-239.36 -1206.47,-464.96 -230.77,-159.01 -467.54,-322.05 -816.05,-405.6 941.9,938.06 934.83,3509.16 931.68,4653.48 -0.28,102.99 -0.52,194.08 -0.05,270.81 4.06,646.35 -15.79,1284 -62.53,1861.66 -43.92,543.06 -111.69,1038.49 -205.77,1445.48 -106.56,460.99 -328.48,815.86 -596.73,1057.94 343.62,-92.09 559.41,-245.18 774.98,-398.16 300.62,-213.32 600.94,-426.43 1186.28,-506.44 81.88,-11 157.17,46.45 168.17,128.32 11,81.87 -46.46,157.16 -128.31,168.16 -511.91,69.97 -782.16,261.75 -1052.7,453.72 -396.76,281.55 -794.21,563.43 -1824.55,538.68 -186.81,8.39 -366.9,-29.72 -524.59,-115.71 -192.92,-105.21 -349.39,-279.95 -440.5,-526.34l-3.77 -10.16 -2.67 -14.45c-19.19,-103.38 -39.32,-219.37 -53.8,-341.17 -9.78,-82.27 -17.46,-170.12 -21.37,-263.37 -837.61,22.39 -1746.86,40.58 -2693.33,53.89 -974.4,13.71 -1987.03,22.19 -2999.99,24.75 -2468.45,6.24 -4933.74,-23.71 -6836.39,-80.52 -1595.25,-47.63 -2801.91,-115.12 -3295.41,-197.16l-16.55 16.08c-148.7,144.5 -248.61,273.68 -316.75,429.04 -71.61,163.29 -114.62,366.14 -147.04,652.53l-0.98 5.86c-39.17,290.67 -70.65,837.17 -69.66,1348.17 0.75,391.34 20.19,756.86 69.43,956.48 72.73,294.86 167.77,399.46 251.58,491.7 46.43,51.1 90.66,99.81 130.29,156.92zm158.82 -4348.8c460.98,77.5 1653.16,142.85 3244.47,190.36 1902.25,56.79 4364.63,86.76 6828.19,80.53 1010.09,-2.56 2021.57,-11.05 2996.47,-24.76 942.8,-13.26 1852.62,-31.5 2694.81,-54.05l36.63 -7156.75c-841.13,-6.85 -1752.38,-12.4 -2698.81,-16.45 -984.42,-4.21 -2007.2,-6.83 -3029.1,-7.6 -2465.19,-1.88 -4928.51,7.16 -6830.86,24.29 -1553.29,13.99 -2731.4,33.49 -3227.74,56.96 12.07,127.04 11.22,271.25 10.06,461.69l-0.55 104.71 -23.57 6341.07zm16727.52 1463.12c9.18,-1.41 18.61,-2 28.23,-1.66 15.17,0.55 30.2,1.02 45.07,1.43 28.15,-1.34 56.63,-4.11 85.3,-8.3 172.32,-25.18 350.94,-101.26 515.02,-226.4 264.27,-201.57 489.47,-528.76 592.61,-974.95 90.34,-390.91 155.85,-871.75 198.75,-1402.12 46.62,-576.43 66.49,-1205.31 62.52,-1837.05 -0.48,-77.08 -0.23,-168.56 0.05,-271.99 3.58,-1303.59 12.55,-4575.34 -1382.38,-4701.81 -7.84,0.12 -15.57,-0.37 -23.13,-1.43 -16.03,-1.08 -32.06,-2.17 -48.48,-2.39 -165.49,-2.2 -310.64,52.87 -425.77,140.56 -126.19,96.07 -216.7,230.29 -259.35,371.23 -1.96,31.15 -3.3,49.93 -4.65,69 -5.25,74.04 -10.56,148.61 -10.86,212.55l-38.44 7511.91c-0.66,131.46 8.87,258.72 23,377.57 13.78,115.88 31.04,217.9 47.55,307.64 64.75,168.84 170.32,287.23 298.5,357.14 88.7,48.37 189.55,74.54 296.46,79.07zm-16677.91 -13015.16c548.27,-74.7 1698.34,-136.43 3186.66,-180.86 1902.65,-56.81 4367.94,-86.76 6836.39,-80.51 2629.81,6.64 5261.42,53.22 7231.17,127.53 1457.53,54.98 2564.51,128.67 3060.89,216.92 -43.79,-171.62 -68.85,-382.56 -79.75,-686.49 -56.44,-1573.79 -14.98,-2323.61 73.29,-2728.1 -344.3,-101.37 -1485.19,-195.65 -3066.74,-273.03 -1970.33,-96.41 -4597.46,-156.84 -7218.86,-165.44 -2462.86,-8.07 -4924.83,30.78 -6827.02,104.44 -1582.41,61.3 -2768.47,145.22 -3230.41,244.44 102.87,380.77 155.95,1119.63 95.07,2817.69 -9.21,256.69 -28.52,447.05 -60.69,603.41zm-148.8 -3700.49c476.01,-110.3 1702.69,-200.67 3334.29,-263.87 1902.72,-73.7 4368.43,-112.54 6837.56,-104.44 2631,8.64 5263.24,69.06 7232.92,165.44 1530.03,74.86 2675.74,176.98 3137.82,300.21 51.03,-113.91 108.92,-183.26 168.7,-254.81 79.97,-95.72 164.91,-197.44 232.95,-615.66 3.45,-63.29 6.84,-114.4 10.45,-168.73 34.33,-517.35 88.44,-1332.9 -276.65,-1814.11 -12.23,-16.13 -23.85,-31.01 -34.91,-44.79l-4.77 2.93c-143.07,-232.8 -1359.02,-450.14 -3134.71,-623.91 -1966.57,-192.46 -4591.35,-313.1 -7212.39,-330.29 -2458.99,-16.14 -4918.65,61.54 -6820.52,208.89 -1742.76,135 -2998.59,322.73 -3323.42,542.95 -11.59,10.36 -24.06,21.18 -37.6,32.91 -40.39,35.03 -98.85,85.71 -194.13,211.31 -365.08,481.21 -310.97,1296.76 -276.64,1814.11 3.62,54.33 7,105.44 10.45,168.73 68.05,418.22 152.99,519.94 232.95,615.66 40.61,48.61 80.34,96.24 117.65,157.47zm334.35 -3397.74c592.67,-183.9 1704.09,-335 3114.13,-444.23 1903.02,-147.43 4371,-225.11 6843.96,-208.88 2631.35,17.27 5265.92,138.32 7239.33,331.45 1202.85,117.71 2169.84,268.44 2758.13,446.29 -22.02,-80.18 -45.49,-188.71 -76.33,-342.84 -23.83,-119.05 -51.63,-242.5 -91.61,-358.52 -37.49,-108.8 -85.68,-212.5 -151.64,-301.56l-9.71 -13.1 -8.84 -16.2c-409.62,-750.16 -2154.26,-1256.22 -3876.5,-1755.75 -2020.24,-585.97 -4011.77,-1163.63 -4132.7,-2288.35l0 -1.96c-25.87,-255.9 -43.44,-616.45 -50.7,-959.45 -7.42,-350.09 -3.84,-684.24 12.82,-872.25l-0.96 -0.08c12.98,-146.55 40.67,-256.69 74.67,-345.15 -201.5,-26.58 -418.94,-49.13 -645.77,-66.76 -342.98,-26.66 -702.32,-42.05 -1055.39,-43.23 -354.3,-1.17 -706.26,11.42 -1034.33,40.61 -219.82,19.56 -429.57,46.82 -622.69,82.65 31.7,86.17 57.34,192.57 69.68,331.88l-0.96 0.08c16.67,188.01 20.25,522.16 12.82,872.25 -7.25,343 -24.82,703.55 -50.69,959.45l0 1.96c-120.93,1124.72 -2112.47,1702.38 -4132.7,2288.35 -1722.24,499.53 -3466.88,1005.59 -3876.5,1755.75l-8.84 16.2 -9.71 13.1c-65.96,89.06 -114.15,192.76 -151.64,301.56 -39.98,116.02 -67.78,239.47 -91.61,358.52 -17.19,85.9 -32.08,157.64 -45.72,218.21zm8137.58 -7393.55c225.73,-46.03 477.73,-80.27 745.2,-104.07 337.34,-30.02 698,-42.97 1060.11,-41.77 368.81,1.23 735.31,16.62 1077.65,43.23 275.38,21.4 538.47,50.1 777.93,84.59 15.94,-26.6 27.9,-50.78 30.99,-72.45 9.9,-69.25 17.34,-172.68 20.86,-342.92 3.7,-180.03 3.21,-430.23 -3.04,-784.41l-0.2 0.02c-13.24,-201.19 -20.74,-396.42 -26.99,-574.58 -258.42,-36.93 -558.65,-72.45 -885.25,-98.47 -329.38,-26.25 -676.46,-42.22 -1019.92,-39.31 -390.69,3.28 -744.96,27.17 -1070.41,61.8 -264.93,28.19 -510.32,63.76 -740.56,101.22 -6.09,171.31 -13.48,357.66 -26.09,549.34l-0.21 -0.02c-6.24,354.18 -6.73,604.38 -3.03,784.41 3.51,170.24 10.96,273.67 20.86,342.92 3.79,26.47 20.77,56.67 42.1,90.47zm-528.4 -1876.15c26.41,-761.79 41.45,-1195.19 505.08,-1462.82 241.97,-139.66 882.57,-210.91 1553.01,-227.67 764.38,-19.11 1593.06,28.44 1900.91,123.77 700.77,217.01 716.38,666.84 747.58,1566.68 6.24,180.41 13.26,382.59 29.36,627.14l0 11.72c6.54,367.04 7.09,626.49 3.24,813.7 -4.1,198.98 -12.95,320.91 -24.76,403.48 -20.11,140.66 -72.19,221.43 -131.65,313.62 -49.29,76.41 -107.63,166.87 -124.53,357.61l-0.97 0c-15.04,169.64 -18,484.31 -10.89,819.61 6.93,327.26 23.75,672.05 48.57,918.45l0.19 -0.02c85.18,792.24 1917.04,1323.59 3775.28,1862.58 1809.3,524.77 3641.73,1056.44 4164.94,1977.83 97.25,134.11 165.23,278.64 215.72,425.19 49.42,143.39 81.92,286.66 109.2,422.96 67.1,335.38 72.28,339.88 106.29,369.37 55.32,47.97 135.41,117.41 264.42,287.49 478.74,630.99 417.23,1558.06 378.21,2146.15 -4.65,70.1 -8.99,135.38 -11.11,175.22l-0.64 11.94 -2.29 14.42c-90.3,567.52 -221.3,724.32 -344.58,871.87 -161.31,193.08 -303.48,363.25 -211.91,2916.65 11.27,313.99 37.76,504.81 85.93,651.69l0.29 -0.09c45.74,139.01 117.85,251.58 219.29,404.46 165.32,241.85 249.73,505.14 292.01,759.6 39.92,240.36 40.86,469.74 38.63,662.38 -1.34,115.77 1.59,243 4.61,374.51 13.51,586.7 28.86,1253.33 -300.49,1756.06 -257.47,392.98 -256.73,517.03 -254.09,966.55l0.54 106.8 23.7 6616.98c155.2,161.99 266.98,319.73 351.31,512.01 93.82,213.95 148.01,460.62 186.1,797.07l-0.2 0.02c40.99,307.83 73.78,846.07 72.78,1349.41 -0.81,406.83 -24.06,795.57 -83.09,1034.9 -103.2,418.34 -243.27,572.53 -366.82,708.48 -97.09,106.86 -177.57,195.46 -174.51,638.65l20.71 2991.81c11.9,455.16 130.04,683.22 249.87,914.52 129.91,250.78 261.49,504.77 304.76,980.58l0.98 11.71c41.69,903.59 25.09,1669.76 -198.78,2335.08 -230.97,686.45 -672.73,1249.44 -1477.17,1715.71l-12.38 7.17 -10.08 4.54c-1380.2,622.31 -5475.66,933.47 -9559.28,933.47 -4083.62,0 -8179.07,-311.16 -9559.28,-933.47l-10.08 -4.54 -12.38 -7.17c-804.44,-466.27 -1246.2,-1029.26 -1477.17,-1715.71 -223.87,-665.32 -240.47,-1431.49 -198.78,-2335.08l0.97 -11.71c43.28,-475.81 174.86,-729.8 304.77,-980.58 119.82,-231.3 237.97,-459.36 249.84,-914.52l20.74 -2991.81c3.06,-443.19 -77.42,-531.79 -174.51,-638.65 -123.55,-135.95 -263.62,-290.14 -366.82,-708.48 -59.03,-239.3 -82.27,-647.31 -83.09,-1075.62 -1.03,-530.66 31.77,-1100.42 72.78,-1408.69l-0.2 -0.01c38.09,-336.46 92.28,-583.13 186.1,-797.08 84.33,-192.29 196.11,-350.04 351.32,-512.01l23.69 -6366.98 0.55 -106.66c2.72,-449.62 3.47,-573.57 -254.1,-966.69 -330.47,-504.35 -313.84,-1273.88 -300.35,-1898.14 2.97,-138.03 5.79,-268.51 4.47,-382.43 -2.23,-192.64 -1.29,-422.02 38.63,-662.38 42.28,-254.46 126.7,-517.75 292.01,-759.6 101.44,-152.88 173.55,-265.45 219.29,-404.46l0.29 0.09c48.17,-146.88 74.66,-337.7 85.93,-651.69 91.57,-2553.4 -50.6,-2723.57 -211.91,-2916.65 -123.28,-147.55 -254.28,-304.35 -344.57,-871.87l-2.3 -14.42 -0.64 -11.94c-2.12,-39.84 -6.46,-105.12 -11.11,-175.22 -39.02,-588.09 -100.53,-1515.16 378.21,-2146.15 129.01,-170.08 209.11,-239.52 264.42,-287.49 34.01,-29.49 39.19,-33.99 106.29,-369.37 27.28,-136.3 59.78,-279.57 109.19,-422.96 50.5,-146.55 118.48,-291.08 215.74,-425.19 523.2,-921.39 2355.63,-1453.06 4164.93,-1977.83 1858.24,-538.99 3690.1,-1070.34 3775.28,-1862.58l0.19 0.02c24.82,-246.4 41.64,-591.19 48.57,-918.45 7.11,-335.3 4.15,-649.97 -10.9,-819.61l-0.96 0c-16.9,-190.74 -75.24,-281.2 -124.53,-357.61 -59.46,-92.19 -111.54,-172.96 -131.65,-313.62 -11.81,-82.57 -20.66,-204.5 -24.75,-403.48 -3.86,-187.21 -3.32,-446.66 3.22,-813.7l0 -11.72c16.1,-244.58 23.12,-446.71 29.37,-627.1z"></path></g></svg>