<svg height='100px' width='100px'  fill="#000000" xmlns="http://www.w3.org/2000/svg" xmlns:xlink="http://www.w3.org/1999/xlink" version="1.1" x="0px" y="0px" viewBox="0 0 100 100" enable-background="new 0 0 100 100" xml:space="preserve"><path d="M44.773,24.006c-5.147,0-9.314-4.128-9.314-9.222c0-3.698,2.209-6.861,5.375-8.335c-0.087-0.001-0.171-0.012-0.256-0.012  c-6.073,0-10.994,5.002-10.994,11.172c0,6.171,4.921,11.173,10.994,11.173c4.613,0,8.56-2.893,10.187-6.993  C49.142,23.154,47.067,24.006,44.773,24.006z"></path><circle cx="53.206" cy="13.322" r="1.777"></circle><circle cx="57.649" cy="19.542" r="1.777"></circle><circle cx="63.203" cy="15.988" r="1.777"></circle><circle cx="57.871" cy="26.429" r="1.777"></circle><circle cx="65.646" cy="23.541" r="1.777"></circle><circle cx="71.2" cy="9.546" r="1.777"></circle><circle cx="48.81" cy="56.54" r="3.565"></circle><path d="M53.38,56.847c-0.556,1.811,0.458,3.728,2.27,4.285c1.813,0.556,3.731-0.462,4.289-2.271  c0.555-1.811-0.462-3.729-2.274-4.285C55.853,54.02,53.935,55.037,53.38,56.847z"></path><path d="M83.121,55.677"></path><polygon points="80.344,53.456 80.344,64.712 86.861,61.083 86.861,57.085 "></polygon><path d="M96.886,27.206c-0.253,0.061-25.698,6.147-47.75,6.147c-19.43,0-45.733-6.092-45.996-6.154L0,26.467v52.814l2.853-0.329  c0.171-0.02,8.649-0.996,18.716-1.985l0.01,11.881h3.361l-0.004,6.272c0,2.693,2.175,4.88,4.869,4.88  c2.693,0,4.875-2.185,4.875-4.879l-0.006-6.27h32.516l-0.006,6.27c0,2.695,2.182,4.879,4.868,4.879c2.693,0,4.873-2.185,4.873-4.879  l-0.003-6.27h3.359l0.007-11.697c2.713,0.272,5.292,0.539,7.572,0.78V94.96h2.556V78.207c4.029,0.433,6.686,0.734,6.782,0.745  l2.847,0.326V26.442L96.886,27.206z M62.283,65.009c-1.344-1.555-2.894-2.869-4.437-3.117c-3.316-0.534-5,0.998-5.859,2.563  c-0.446-1.646-1.697-3.415-4.912-3.936c-3.186-0.516-7.042,2.464-9.247,4.489h-4.438l0.73-12.435  c0.134-1.595,1.468-1.569,3.096-1.569h27.436c1.628,0,2.964-0.025,3.104,1.569l0.729,12.435H62.283z M29.77,84.343  c-1.44,0-2.607-1.167-2.607-2.607c0-1.438,1.167-2.604,2.607-2.604c1.438,0,2.606,1.166,2.606,2.604  C32.376,83.176,31.208,84.343,29.77,84.343z M56.016,83.334h-10.37V78.89h10.37V83.334z M71.931,84.343  c-1.439,0-2.607-1.167-2.607-2.607c0-1.438,1.168-2.604,2.607-2.604c1.438,0,2.606,1.166,2.606,2.604  C74.537,83.176,73.369,84.343,71.931,84.343z M94.929,73.551c-1.198-0.134-2.749-0.302-4.513-0.492V57.195H87.86v15.592  c-2.296-0.243-4.87-0.508-7.568-0.779l0.002-2.322l-7.525-4.555l-0.755-12.784c-0.259-3.075-2.829-5.495-5.965-5.495v-0.001H35.806  c-3.129,0-5.702,2.417-5.958,5.492l-0.752,12.784l-7.533,4.558l0.001,2.136c-6.846,0.67-13.001,1.342-16.447,1.728v-40.67  c7.68,1.645,27.816,5.592,44.02,5.592c18.268,0,38.186-3.917,45.792-5.575V73.551z"></path></svg>