<svg height='100px' width='100px'  fill="#000000" xmlns="http://www.w3.org/2000/svg" data-name="Layer 1" viewBox="0 0 512 512" x="0px" y="0px"><title>child protection </title><path d="M375.113,169.979A16.723,16.723,0,1,0,391.837,186.7,16.741,16.741,0,0,0,375.113,169.979Zm0,21.446a4.723,4.723,0,1,1,4.724-4.724A4.729,4.729,0,0,1,375.113,191.425Z"></path><path d="M272.532,166.443a16.724,16.724,0,1,0,16.723,16.724A16.743,16.743,0,0,0,272.532,166.443Zm0,21.447a4.724,4.724,0,1,1,4.723-4.723A4.729,4.729,0,0,1,272.532,187.89Z"></path><path d="M354.83,214.5a6,6,0,0,0-6,6,25.008,25.008,0,1,1-50.015,0,6,6,0,0,0-12,0,37.008,37.008,0,1,0,74.015,0A6,6,0,0,0,354.83,214.5Z"></path><path d="M281.439,124.346a5.982,5.982,0,0,0,4.243-1.757l20.974-20.974a6,6,0,0,0-8.485-8.486L277.2,114.1a6,6,0,0,0,4.242,10.243Z"></path><path d="M307.449,122.588a6,6,0,0,0,8.486,0l20.974-20.974a6,6,0,0,0-8.486-8.486L307.449,114.1A6,6,0,0,0,307.449,122.588Z"></path><path d="M392.608,36.9A91.9,91.9,0,0,0,246.77,58.36,91.833,91.833,0,1,0,100.931,166.748l141.6,141.6a6,6,0,0,0,8.486,0l24.1-24.1a115.714,115.714,0,0,0,159.856-73.107,33.416,33.416,0,0,0,0-63.6,115.238,115.238,0,0,0-16.187-34.208A92.217,92.217,0,0,0,392.608,36.9ZM246.77,295.617,109.417,158.264a79.82,79.82,0,1,1,131.7-83.084,6,6,0,0,0,11.314,0,79.828,79.828,0,0,1,131.7-29.8,80.174,80.174,0,0,1,23.325,54.067,115.715,115.715,0,0,0-194.863,48.122,33.409,33.409,0,0,0,0,63.532,115.254,115.254,0,0,0,51.442,67.257ZM428.912,158.344a21.409,21.409,0,0,1,0,41.986,6,6,0,0,0-4.654,4.42,103.648,103.648,0,0,1-200.959-.021,6,6,0,0,0-4.635-4.417,21.4,21.4,0,0,1,0-41.95,6,6,0,0,0,4.635-4.417A103.685,103.685,0,0,1,407.29,117.908a6.073,6.073,0,0,0,.83,1.128,103.342,103.342,0,0,1,16.138,34.888A6,6,0,0,0,428.912,158.344Z"></path><path d="M420.392,327.534l-1.831.988c-8.986-10.627-24.321-14.691-36.031-8.755-.045.022-.09.045-.134.069l-4.856,2.616a39.576,39.576,0,0,0-45.057-3.888l-27.605,15.01H268.11a52.773,52.773,0,0,1-22.844-5.235l-5.074-2.454A87.518,87.518,0,0,0,149.1,334.78c-.131.1-.259.2-.382.313L136.472,346a42.011,42.011,0,0,1-15.387,8.7l-6.82-22.371a6,6,0,0,0-5.739-4.25H49.286A6,6,0,0,0,43.33,334.8L63.076,496.727A6,6,0,0,0,69.032,502h88.86a6,6,0,0,0,5.739-7.75L152.061,456.3l36.032-22.778a21.405,21.405,0,0,1,15.6-2.013c.124.031.25.058.376.081l73.957,13.619a96.211,96.211,0,0,0,59.438-8.393,5.918,5.918,0,0,0,.734-.43L466.11,348.556a6,6,0,0,0,1.744-8.041A35.6,35.6,0,0,0,420.392,327.534Zm-32.377,2.905c6.337-3.168,14.262-.718,19.539,4.021l-47.9,25.842-2.345,1.236a42.527,42.527,0,0,0-6.183-11.222Zm-49.731-1.37c.048-.026.1-.052.143-.08a27.546,27.546,0,0,1,27.281-.161l-23.622,12.727a42.4,42.4,0,0,0-14.433-6.7ZM74.345,490,56.062,340.077h48.021L149.79,490ZM331.76,426.245a84.131,84.131,0,0,1-51.582,7.157l-73.76-13.583a33.382,33.382,0,0,0-24.314,3.3c-.094.052-.187.108-.278.165L148.432,444.4l-23.844-78.211a54,54,0,0,0,19.863-11.224l12.062-10.738a75.566,75.566,0,0,1,78.454-7.535l5.074,2.454a64.831,64.831,0,0,0,28.069,6.432h49.2a30.634,30.634,0,0,1,29.925,24.272L312.2,368.261a213.871,213.871,0,0,0-38.9,1.8,6,6,0,0,0,1.646,11.886,201.569,201.569,0,0,1,36.707-1.695l41.966,1.9c.09,0,.18.006.271.006a6,6,0,0,0,6-6c0-.8-.027-1.588-.07-2.375l5.477-2.888,60.79-32.795a23.605,23.605,0,0,1,28.016,4.146Z"></path></svg>