<svg height='100px' width='100px'  fill="#000000" xmlns="http://www.w3.org/2000/svg" xmlns:xlink="http://www.w3.org/1999/xlink" version="1.1" x="0px" y="0px" viewBox="0 0 100 100" enable-background="new 0 0 100 100" xml:space="preserve"><path d="M87.083,42.915V37.14c0-2.734-4.114-4.479-6.756-5.317l0.01-2.819c0-3.537-4.619-5.12-9.196-5.12  c-5.458,0-8.984,1.976-8.984,5.031v13.921H38.199V28.914c0-3.045-3.511-5.013-8.945-5.013c-4.601,0-9.243,1.588-9.243,5.139  l0.001,2.65c-3.229,0.946-7.542,2.722-7.542,5.457l0.031,5.811c-2.466,0.298-6.345,1.556-6.345,4.142v6.174  c0,2.596,3.908,3.854,6.372,4.146l-0.058,5.609c0,2.698,4.348,4.719,7.563,5.843v2.171c0,3.583,4.013,5.075,9.083,5.075  c4.521,0,9.083-1.569,9.083-5.075v-13.21l23.958-0.002v13.212c0,3.506,4.562,5.075,9.083,5.075c4.521,0,9.083-1.569,9.083-5.075  v-2.213c2.601-1.03,6.761-3.102,6.761-5.801v-5.57c2.416-0.198,6.761-1.447,6.761-4.185V47.1  C93.844,44.362,89.499,43.113,87.083,42.915z M12.56,54.406c-1.481-0.223-3.017-0.859-3.403-1.295v-5.85  c0.383-0.432,1.893-1.061,3.361-1.288L12.56,54.406z M15.471,62.971V37.208c0.388-0.754,3.333-2.106,6.296-2.89l0.014,31.974  C18.815,65.321,15.816,63.746,15.471,62.971z M29.117,73.117c-2.849,0-5.106-0.734-5.833-1.537l-0.019-43.091  c0.742-0.829,3.061-1.588,5.99-1.588c2.975,0,5.178,0.765,5.777,1.579v42.995C34.413,72.319,32.088,73.117,29.117,73.117z   M36.531,54.849v-9.031c0.056,0.006,27.294,0.006,27.375-0.008v9.045C63.824,54.841,36.587,54.843,36.531,54.849z M71.239,73.117  c-2.848,0-5.105-0.733-5.833-1.537V28.37c0.709-0.78,2.869-1.487,5.734-1.487c2.922,0,5.593,1.2,5.932,1.565v43.133  C76.345,72.384,74.088,73.117,71.239,73.117z M78.572,66.284V34.431c2.625,0.737,5.283,2.061,5.511,2.709l0.004,25.848  C83.895,63.72,81.254,65.289,78.572,66.284z M90.844,53.11c-0.418,0.472-2.177,1.178-3.761,1.341v-8.529  c1.583,0.163,3.343,0.869,3.761,1.341V53.11z M42.563,49.813c0,0.414-0.336,0.75-0.75,0.75h-1.938c-0.414,0-0.75-0.336-0.75-0.75  s0.336-0.75,0.75-0.75h1.938C42.227,49.063,42.563,49.398,42.563,49.813z M49.188,49.813c0,0.414-0.336,0.75-0.75,0.75H45.25  c-0.414,0-0.75-0.336-0.75-0.75s0.336-0.75,0.75-0.75h3.188C48.852,49.063,49.188,49.398,49.188,49.813z M61.875,49.813  c0,0.414-0.336,0.75-0.75,0.75h-9c-0.414,0-0.75-0.336-0.75-0.75s0.336-0.75,0.75-0.75h9C61.539,49.063,61.875,49.398,61.875,49.813  z"></path></svg>