<svg height='100px' width='100px'  fill="#000000" xmlns="http://www.w3.org/2000/svg" xmlns:xlink="http://www.w3.org/1999/xlink" version="1.1" x="0px" y="0px" viewBox="0 0 64 64" style="enable-background:new 0 0 64 64;" xml:space="preserve"><g><path d="M36,32h-2c0,1.103-0.897,2-2,2s-2-0.897-2-2h-2c0,2.206,1.794,4,4,4S36,34.206,36,32z"></path><path d="M49.123,47.289l-10.259-4.198C37.731,42.628,37,41.538,37,40.314v-0.718c3.077-2.126,5.427-5.126,6.759-8.597H44   c2.757,0,5-2.243,5-5v-8c0-9.374-7.626-17-17-17S15,8.626,15,18v8c0,2.757,2.243,5,5,5h0.241c1.332,3.471,3.682,6.47,6.759,8.597   v0.718c0,1.224-0.731,2.313-1.864,2.776l-10.259,4.197C8.877,49.743,5,55.518,5,62v1h54v-1C59,55.518,55.123,49.743,49.123,47.289z    M38.107,44.942l1.497,0.613l-2.878,5.757L33.414,48l3.651-3.651C37.386,44.581,37.729,44.788,38.107,44.942z M33.184,21h-2.369   c-0.414-1.161-1.514-2-2.816-2h-5.974c0.914-1.207,2.348-2,3.974-2h6.667c1.075,0,2.14-0.355,3-1l1.733-1.3   c0.603-0.451,1.348-0.7,2.1-0.7c1.93,0,3.5,1.57,3.5,3.5v1.684C42.686,19.072,42.352,19,42,19h-6   C34.698,19,33.598,19.839,33.184,21z M21,22c0-0.551,0.449-1,1-1h6c0.551,0,1,0.449,1,1v2c0,0.551-0.449,1-1,1h-6   c-0.551,0-1-0.449-1-1V22z M35,22c0-0.551,0.449-1,1-1h6c0.551,0,1,0.449,1,1v2c0,0.551-0.449,1-1,1h-6c-0.551,0-1-0.449-1-1V22z    M44.414,28.958C44.793,27.476,45,25.933,45,24.351V24v-0.816c1.161,0.414,2,1.514,2,2.816C47,27.512,45.871,28.754,44.414,28.958z    M32,3c8.271,0,15,6.729,15,15v4.026c-0.584-0.442-1.257-0.773-2-0.924V17.5c0-3.033-2.467-5.5-5.5-5.5   c-1.182,0-2.354,0.391-3.3,1.1l-1.733,1.3c-0.516,0.387-1.156,0.6-1.801,0.6H26c-3.552,0-6.488,2.662-6.935,6.094   c-0.768,0.146-1.465,0.476-2.065,0.931V18C17,9.729,23.729,3,32,3z M17,26c0-1.302,0.839-2.402,2-2.816V24v0.351   c0,1.582,0.207,3.125,0.586,4.607C18.129,28.754,17,27.512,17,26z M21.195,26.876C21.453,26.949,21.719,27,22,27h6   c1.654,0,3-1.346,3-3v-1h2v1c0,1.654,1.346,3,3,3h6c0.281,0,0.547-0.051,0.805-0.124C41.892,32.833,37.79,37.883,32,39.942   C26.21,37.883,22.108,32.833,21.195,26.876z M31.684,41.949L32,42.054l0.316-0.105c0.947-0.316,1.855-0.702,2.719-1.152   c0.072,0.748,0.306,1.452,0.678,2.076L32,46.586l-3.714-3.714c0.372-0.624,0.606-1.328,0.678-2.076   C29.828,41.246,30.737,41.633,31.684,41.949z M25.893,44.942c0.378-0.155,0.721-0.362,1.042-0.594L30.586,48l-3.312,3.312   l-2.878-5.757L25.893,44.942z M49,61v-6h-2v6H33v-2h-2v2H17v-6h-2v6H7.035c0.373-5.255,3.665-9.842,8.599-11.861l6.905-2.825   l4.187,8.374L32,49.414l5.274,5.274l4.187-8.374l6.906,2.825c4.934,2.018,8.226,6.605,8.599,11.86H49z"></path><rect x="31" y="51" width="2" height="2"></rect><rect x="31" y="55" width="2" height="2"></rect></g></svg>