<svg height='100px' width='100px'  fill="#000000" xmlns="http://www.w3.org/2000/svg" xmlns:xlink="http://www.w3.org/1999/xlink" version="1.1" x="0px" y="0px" viewBox="0 0 100 100" style="enable-background:new 0 0 100 100;" xml:space="preserve"><path d="M90.7,17H9.3c-1.7,0-3.1,1.4-3.1,3.1v50.5c0,1.7,1.4,3.1,3.1,3.1h81.3c1.7,0,3.1-1.4,3.1-3.1V20.1  C93.8,18.4,92.4,17,90.7,17z M50,71.7c-1.6,0-2.9-1.3-2.9-2.9s1.3-2.9,2.9-2.9c1.6,0,2.9,1.3,2.9,2.9C52.9,70.4,51.6,71.7,50,71.7z   M88.6,61.5c0,1.7-1.4,3.1-3.1,3.1h-71c-1.7,0-3.1-1.4-3.1-3.1V25.2c0-1.7,1.4-3.1,3.1-3.1h71c1.7,0,3.1,1.4,3.1,3.1V61.5L88.6,61.5  z"></path><path d="M60.5,76.2c-0.3,1.9-2,3.4-4,3.4h-13c-2,0-3.7-1.5-4-3.4H6.3c0,3.8,3,6.8,6.8,6.8H87c3.8,0,6.8-3,6.8-6.8H60.5z"></path><path d="M28.5,61.5H23c-2,0-3.6-1.6-3.6-3.6V46.8c0-2,1.6-3.6,3.6-3.6h5.5c2,0,3.6,1.6,3.6,3.6v11.1C32.1,59.9,30.5,61.5,28.5,61.5z  "></path><path d="M49.7,61.5h-5.5c-2,0-3.6-1.6-3.6-3.6V40.2c0-2,1.6-3.6,3.6-3.6h5.5c2,0,3.6,1.6,3.6,3.6v17.8  C53.4,59.9,51.7,61.5,49.7,61.5z"></path><path d="M71.7,40.5l-0.6-0.2c-3.1-1.1-4.2-1.6-4.2-3.5c0-1.1,0.4-2.5,3.6-2.5c1.5,0,3.2,0.5,4.9,1.6c0.5,0.5,1.2,0.6,1.8,0.2  c0.4-0.2,0.8-0.5,1.1-1.1l0.9-1.9c0.5-0.9,0-2.1-0.7-2.6c-1.5-1-3.3-1.7-5.4-2.1v-3.4h-5.6v3.3c-4.5,0.8-7.1,3.9-7.1,8.4  c0,5.5,3.8,7.4,8.8,9.3l0.3,0.2c3.5,1.3,4.6,1.8,4.6,3.2c0,2.6-2.9,2.9-4.1,2.9c-1.9,0-3.7-0.6-5.5-1.6c-0.3-0.4-0.7-0.4-1-0.4  c-0.6,0-1.4,0.5-1.8,1.1l-1,1.9l-0.1,0.1l-0.1,0.2c-0.3,0.8,0,1.7,0.8,2.2l0,0c1.7,1.1,4.1,1.9,6.3,2.2v3h5.6V58  c4.4-1.1,7.2-4.3,7.4-8.6C80.5,43.6,76,42,71.7,40.5z"></path></svg>