<svg height='100px' width='100px'  fill="#1A1A1A" xmlns:x="http://ns.adobe.com/Extensibility/1.0/" xmlns:i="http://ns.adobe.com/AdobeIllustrator/10.0/" xmlns:graph="http://ns.adobe.com/Graphs/1.0/" xmlns="http://www.w3.org/2000/svg" xmlns:xlink="http://www.w3.org/1999/xlink" version="1.1" x="0px" y="0px" viewBox="0 0 100 100" enable-background="new 0 0 100 100" xml:space="preserve"><g><g i:extraneous="self"><path d="M84.374,49.026c-1.227-0.139-2.431-0.085-3.58,0.136l-1.538-5.229l10.103-11.866C90.174,31.021,89.327,30,88,30H28    c-1.326,0-1.666,1.216-1.338,2.501l0.604,2.37l-7.093-6.136c-0.219-0.19-0.5-0.294-0.789-0.294h-8.18    c-0.666,0-1.206,0.54-1.206,1.206s0.54,1.206,1.206,1.206h7.729l9.375,8.11l1.675,6.567L15.348,32.87    c-0.219-0.189-0.499-0.294-0.789-0.294H6.38c-0.666,0-1.206,0.541-1.206,1.206c0,0.666,0.54,1.206,1.206,1.206h7.73L31,50    c0.014,0.012,0,20.5,0,20.5c0,0.667,0.733,1.519,1.398,1.519h4.825c0.446,0,0.855-0.246,1.065-0.64l1.31-2.463h4.31    c0.432,0,0.826-0.3,1.028-0.681L51.688,55l19.511,4.43c-0.006,0.038-0.012,0.075-0.017,0.113    c-0.738,6.547,3.97,12.452,10.517,13.191c6.546,0.738,12.452-3.969,13.19-10.517C95.629,55.672,90.921,49.767,84.374,49.026z     M38,67l-1.501,2.605h-2.894V50.895L38,52V67z M40.497,52.459l4.335,0.984l-4.335,8.648V52.459z M43.208,66.504h-2.328    l6.389-12.507l2.069,0.469L43.208,66.504z M68.633,56.373c0.13-0.117,0.25-0.244,0.354-0.377l8.935-10.495l1.207,4.106    c-3.438,1.194-6.212,3.931-7.397,7.469L68.633,56.373z M81.041,56.113l0.97,3.299l-3.605-0.818    C78.961,57.472,79.902,56.592,81.041,56.113z M88.173,61.46c-0.319,2.837-2.88,4.878-5.716,4.559    c-2.62-0.297-4.557-2.503-4.586-5.073l4.899,1.111c0.09,0.021,0.178,0.03,0.267,0.03c0.552,0,1.049-0.379,1.175-0.939    c0.115-0.808-1.489-5.423-1.489-5.423c0.294-0.017,0.592-0.016,0.895,0.021C86.452,56.064,88.494,58.623,88.173,61.46z"></path></g></g></svg>