<svg height='100px' width='100px'  fill="#000000" xmlns:dc="http://purl.org/dc/elements/1.1/" xmlns:cc="http://creativecommons.org/ns#" xmlns:rdf="http://www.w3.org/1999/02/22-rdf-syntax-ns#" xmlns:svg="http://www.w3.org/2000/svg" xmlns="http://www.w3.org/2000/svg" xmlns:sodipodi="http://sodipodi.sourceforge.net/DTD/sodipodi-0.dtd" xmlns:inkscape="http://www.inkscape.org/namespaces/inkscape" viewBox="0 0 16.933333 16.933334" version="1.1" x="0px" y="0px"><g transform="translate(0,-280.06665)"><path style="color:#000000;font-style:normal;font-variant:normal;font-weight:normal;font-stretch:normal;font-size:medium;line-height:normal;font-family:sans-serif;font-variant-ligatures:normal;font-variant-position:normal;font-variant-caps:normal;font-variant-numeric:normal;font-variant-alternates:normal;font-feature-settings:normal;text-indent:0;text-align:start;text-decoration:none;text-decoration-line:none;text-decoration-style:solid;text-decoration-color:#000000;letter-spacing:normal;word-spacing:normal;text-transform:none;writing-mode:lr-tb;direction:ltr;text-orientation:mixed;dominant-baseline:auto;baseline-shift:baseline;text-anchor:start;white-space:normal;shape-padding:0;clip-rule:nonzero;display:inline;overflow:visible;visibility:visible;opacity:1;isolation:auto;mix-blend-mode:normal;color-interpolation:sRGB;color-interpolation-filters:linearRGB;solid-color:#000000;solid-opacity:1;vector-effect:none;fill:#000000;fill-opacity:1;fill-rule:nonzero;stroke:none;stroke-width:0.5291667;stroke-linecap:round;stroke-linejoin:round;stroke-miterlimit:4;stroke-dasharray:none;stroke-dashoffset:0;stroke-opacity:1;color-rendering:auto;image-rendering:auto;shape-rendering:auto;text-rendering:auto;enable-background:accumulate" d="m 8.3519469,280.62165 -7.67395094,3.7052 c -0.090941,0.0445 -0.1485201,0.13699 -0.1483114,0.23823 v 1.3224 c 3.44e-4,0.19448 0.2033455,0.32215 0.3787884,0.23823 l 7.55871094,-3.64836 7.5566461,3.64836 c 0.175998,0.0861 0.381238,-0.0423 0.380854,-0.23823 v -1.3224 c -1.74e-4,-0.10171 -0.05863,-0.19432 -0.150378,-0.23823 l -7.6718831,-3.7052 c -0.09465,-0.0457 -0.156689,-0.0356 -0.230476,0 z m 0.115229,0.53124 7.4078261,3.57859 v 0.73432 l -7.2925791,-3.52175 c -0.07279,-0.0352 -0.157686,-0.0352 -0.230476,0 l -7.2930957,3.52175 v -0.73432 z m -1.324467,3.14658 c -0.3606959,-0.008 -0.3606959,0.53717 0,0.52916 h 2.646352 c 0.3606961,0.008 0.3606961,-0.53717 0,-0.52916 z m -3.7031243,1.58801 c -0.1461188,-5.3e-4 -0.2650331,0.11743 -0.2656178,0.26355 v 8.7328 H 2.3812512 v -8.46718 c 0.00294,-0.16014 -0.1359694,-0.28615 -0.2950713,-0.26769 -0.1354984,0.0154 -0.2370719,0.13134 -0.2346113,0.26769 v 8.46718 H 0.79323446 c -0.1453139,5.3e-4 -0.2629699,0.11824 -0.2635499,0.26355 v 1.05834 c -5.556e-4,0.14612 0.1174308,0.26503 0.2635499,0.26561 H 16.139069 c 0.146926,5.3e-4 0.266174,-0.11869 0.265615,-0.26561 v -1.05834 c -5.29e-4,-0.14612 -0.119496,-0.2641 -0.265615,-0.26355 h -1.058852 v -8.46718 c 0.0029,-0.15991 -0.135649,-0.28581 -0.294555,-0.26769 -0.134676,0.0164 -0.235117,0.13204 -0.232543,0.26769 v 8.46718 h -0.7953 v -8.7328 c -5.29e-4,-0.14531 -0.118237,-0.26297 -0.263551,-0.26355 z m 0.2635489,0.52917 h 9.5255185 v 8.46718 H 3.7031335 Z m 3.4395833,1.05885 c -0.4351602,0 -0.7927155,0.35756 -0.7927155,0.79272 v 2.11718 c -0.00802,0.36069 0.537173,0.36069 0.5291667,0 v -2.11718 c 0,-0.15116 0.112395,-0.26356 0.2635488,-0.26356 h 0.5291667 v 1.05886 c 2.646e-4,0.19646 0.2071926,0.324 0.3829235,0.23616 l 0.4123769,-0.20516 0.409795,0.20516 c 0.175731,0.0878 0.382532,-0.0397 0.382923,-0.23616 v -1.05886 h 0.529167 c 0.151154,0 0.2661341,0.1124 0.2661341,0.26356 v 2.64686 c 0,0.15116 -0.1149801,0.26355 -0.2661341,0.26355 h -0.792718 c -0.203235,0 -0.388308,0.0803 -0.529683,0.20826 -0.14092,-0.12798 -0.3254162,-0.20826 -0.5286506,-0.20826 H 5.2911521 c -0.4351603,0 -0.7927182,0.35962 -0.7927182,0.79478 v 2.11512 c -0.00802,0.3607 0.537173,0.3607 0.5291667,0 v -2.11512 c 0,-0.15115 0.112395,-0.26561 0.2635515,-0.26561 h 0.5291666 v 1.05833 c 8e-6,0.19669 0.2069862,0.32462 0.3829209,0.23668 l 0.4123796,-0.20515 0.409792,0.20515 c 0.1759346,0.0879 0.3829182,-0.04 0.3829235,-0.23668 v -1.05833 h 0.5296826 c 0.1511564,0 0.2635514,0.11446 0.2635514,0.26561 v 2.11512 c 0.00762,0.34507 0.5215362,0.34507 0.5291672,0 v -2.10426 c 7.4e-5,-0.004 7.4e-5,-0.007 0,-0.0109 0,-0.15116 0.114461,-0.26562 0.265615,-0.26562 h 0.529166 v 1.05834 c 6e-6,0.19669 0.206989,0.32462 0.382924,0.23668 l 0.4103111,-0.20516 0.409794,0.20515 c 0.175935,0.0879 0.382913,-0.04 0.382921,-0.23668 v -1.05833 h 0.529167 c 0.151156,0 0.266134,0.11446 0.266134,0.26561 v 2.11512 c -0.008,0.3607 0.537172,0.3607 0.529166,0 v -2.11512 c 0,-0.43516 -0.36014,-0.79478 -0.7953,-0.79478 h -1.105358 c 0.02991,-0.083 0.04909,-0.17084 0.04909,-0.26355 v -2.64686 c 0,-0.43516 -0.36014,-0.79272 -0.7953001,-0.79272 z m 1.0588519,0.52916 h 0.5291672 v 0.62891 l -0.146246,-0.0724 c -0.0745,-0.0372 -0.162182,-0.0372 -0.236678,0 l -0.1462432,0.0724 z M 6.3500013,291.7078 H 6.879168 v 0.63097 l -0.1462431,-0.0724 c -0.074496,-0.0372 -0.1621843,-0.0372 -0.2366804,0 l -0.1462432,0.0724 z m 3.7052017,0 h 0.529166 v 0.63097 l -0.146761,-0.0744 c -0.07492,-0.0378 -0.163309,-0.0378 -0.238228,0 l -0.144177,0.0724 z m -8.9963518,3.7052 c 4.9292239,0.003 9.9144398,0 14.8166668,0 v 0.52916 H 1.0588512 Z"></path></g></svg>