<svg height='100px' width='100px'  fill="#000000" xmlns="http://www.w3.org/2000/svg" xmlns:xlink="http://www.w3.org/1999/xlink" version="1.2" baseProfile="tiny" x="0px" y="0px" viewBox="0 0 100 100" xml:space="preserve"><path d="M5,45c0,6.893,5.607,12.5,12.5,12.5S30,51.893,30,45s-5.607-12.5-12.5-12.5S5,38.107,5,45z M25,45   c0,4.136-3.364,7.5-7.5,7.5S10,49.136,10,45s3.364-7.5,7.5-7.5S25,40.864,25,45z"></path><path d="M35,7.5c-6.893,0-12.5,6.168-12.5,13.75S28.107,35,35,35s12.5-6.168,12.5-13.75S41.893,7.5,35,7.5z M35,30   c-4.136,0-7.5-3.925-7.5-8.75s3.364-8.75,7.5-8.75s7.5,3.925,7.5,8.75S39.136,30,35,30z"></path><path d="M52.5,21.25C52.5,28.832,58.107,35,65,35s12.5-6.168,12.5-13.75S71.893,7.5,65,7.5S52.5,13.668,52.5,21.25z M72.5,21.25   c0,4.825-3.364,8.75-7.5,8.75s-7.5-3.925-7.5-8.75s3.364-8.75,7.5-8.75S72.5,16.425,72.5,21.25z"></path><path d="M82.5,32.5C75.607,32.5,70,38.107,70,45s5.607,12.5,12.5,12.5S95,51.893,95,45S89.393,32.5,82.5,32.5z M82.5,52.5   c-4.136,0-7.5-3.364-7.5-7.5s3.364-7.5,7.5-7.5S90,40.864,90,45S86.636,52.5,82.5,52.5z"></path><path d="M32.768,52.263c-0.501,2.98-2.551,5.591-5.621,7.162c-7.075,3.618-10.821,11.235-9.321,18.955   c1.418,7.301,7.549,13.048,14.908,13.977c4.571,0.579,9.101-0.609,12.748-3.343c2.666-1.994,6.371-1.994,9.035,0   c3.045,2.281,6.703,3.485,10.489,3.485c0.75,0,1.504-0.047,2.26-0.143c7.359-0.929,13.49-6.676,14.908-13.977   c1.5-7.72-2.246-15.337-9.32-18.955c-3.071-1.571-5.12-4.182-5.622-7.162C65.817,43.847,58.408,37.5,50,37.5   S34.183,43.847,32.768,52.263z M62.302,53.093c0.767,4.555,3.783,8.484,8.275,10.783c5.071,2.594,7.76,8.039,6.689,13.551   c-1.012,5.208-5.381,9.308-10.626,9.969c-3.284,0.417-6.521-0.432-9.126-2.384c-2.204-1.65-4.803-2.522-7.514-2.522   s-5.31,0.872-7.515,2.522c-2.604,1.951-5.847,2.796-9.125,2.384c-5.245-0.661-9.614-4.761-10.626-9.969   c-1.071-5.512,1.618-10.957,6.689-13.551c4.492-2.299,7.508-6.229,8.275-10.783C38.714,47.054,44.003,42.5,50,42.5   S61.286,47.054,62.302,53.093z"></path></svg>