<svg height='100px' width='100px'  fill="#000000" xmlns="http://www.w3.org/2000/svg" xmlns:xlink="http://www.w3.org/1999/xlink" version="1.1" x="0px" y="0px" viewBox="0 0 64 64" enable-background="new 0 0 64 64" xml:space="preserve"><g><path d="M34.963,42.914v-3.522h3.522c0.477,0,0.918-0.15,1.277-0.409c0.568-0.4,0.941-1.063,0.941-1.813v-1.481   c0-1.227-0.995-2.222-2.218-2.222h-3.522v-3.522c0-1.227-0.995-2.218-2.222-2.218h-1.481c-1.227,0-2.222,0.991-2.222,2.218v3.522   h-3.522c-1.227,0-2.218,0.995-2.218,2.222v1.481c0,0.75,0.373,1.413,0.941,1.813c0.359,0.259,0.8,0.409,1.277,0.409h3.522v3.522   c0,1.227,0.995,2.218,2.222,2.218h1.481C33.968,45.132,34.963,44.141,34.963,42.914z"></path><path d="M14.517,52.278h34.966v-31.49H14.517V52.278z M32,24.035c6.845,0,12.394,5.549,12.394,12.394S38.845,48.824,32,48.824   S19.606,43.275,19.606,36.43S25.155,24.035,32,24.035z"></path><path d="M63,17.545v-1.107V13.77c0-1.254-1.016-2.27-2.27-2.27h-4.126c0-1.149-0.932-2.081-2.081-2.081H52.02   c-1.149,0-2.081,0.932-2.081,2.081h-4.912V9.41c0-2.976-2.413-5.389-5.389-5.389H24.362c-2.976,0-5.389,2.413-5.389,5.389v2.09   h-4.912c0-1.149-0.932-2.081-2.081-2.081H9.478c-1.149,0-2.081,0.932-2.081,2.081H3.27C2.016,11.5,1,12.516,1,13.77v3.775H63z    M23.198,9.41c0-0.642,0.522-1.164,1.164-1.164h15.276c0.642,0,1.164,0.522,1.164,1.164v2.09H23.198V9.41z"></path><polygon points="52.747,20.788 52.747,52.071 63,52.071 63,24.785 63,20.788  "></polygon><path d="M55.97,55.314v0.021H8.071v-0.021H1v0.021v0.666v1.219c0,1.524,1.235,2.759,2.759,2.759h56.482   c1.524,0,2.759-1.235,2.759-2.759v-0.841v-0.378v-0.666v-0.021H55.97z"></path><rect x="1" y="20.788" width="10.253" height="31.283"></rect></g></svg>