<svg height='100px' width='100px'  fill="#000000" xmlns="http://www.w3.org/2000/svg" xmlns:xlink="http://www.w3.org/1999/xlink" version="1.0" x="0px" y="0px" viewBox="0 0 55.879 99.484" enable-background="new 0 0 55.879 99.484" xml:space="preserve"><g><g><path fill-rule="evenodd" clip-rule="evenodd" d="M55.861,18.33C55.644,7.469,49.267-0.096,40.636,0.001    C32.488,0.092,18.038,6.208,9.019,12.705C0,19.204,0.582,26.768,0.582,26.768v7.467H0.291C0.017,34.234,0,34.494,0,34.72    c0,0.227,0.323,0.97,0.873,2.23c0.536,1.231,1.167,1.261,2.52,1.262c0.001,0,0.001,0,0.001,0h0.097c0,0,0.001,0,0.001,0    c1.354-0.001,1.984-0.03,2.521-1.262c0.549-1.26,0.873-2.003,0.873-2.23c0-0.226-0.016-0.485-0.291-0.485H6.353    c0.459-1.475,3.667-5.659,4.315-6.4c0.679-0.776,0.581-1.842,0.873-3.006c1.469-5.226,11.153-9.504,15.517-11.541    c4.365-2.038,12.414-5.528,16.099-3.104c7.422,4.883,1.939,29.385-1.261,43.061c-3.2,13.674-8.146,27.155-12.316,33.459    c-2.701,4.081-5.528,2.616-6.886,2.036c-1.358-0.582-4.364-2.618-7.953-5.625c-3.588-3.007-3.588-7.76-3.297-12.026    c0-0.008-0.001-0.016,0-0.023l0.42-0.729l0.004,0.003c0.314-0.448,0.923-0.588,1.404-0.311l0.921-1.596l0.42,0.242    c0.004,0.003,0.008,0.004,0.012,0.006c0.021,0.015,0.044,0.028,0.072,0.044c0.557,0.275,1.277,0.153,1.493-0.259    c0.216-0.413,0.138-0.86,0.404-1.669l0.444-0.771c0.271,0.142,0.467,0.188,0.606-0.079c0.216-0.413,0.138-0.86,0.404-1.671    l0.444-0.769c0.271,0.142,0.466,0.188,0.606-0.081c0.216-0.412,0.138-0.858,0.404-1.669l0.444-0.769    c0.271,0.139,0.466,0.187,0.606-0.082c0.217-0.412,0.138-0.86,0.405-1.669l0.444-0.771c0.271,0.142,0.466,0.188,0.606-0.08    c0.216-0.412,0.138-0.859,0.404-1.67l0.444-0.769c0.271,0.142,0.467,0.188,0.606-0.08c0.217-0.413,0.138-0.859,0.405-1.671    l0.444-0.769c0.271,0.141,0.465,0.187,0.606-0.082c0.215-0.412,0.137-0.858,0.403-1.668l0.445-0.771    c0.271,0.141,0.466,0.188,0.606-0.08c0.216-0.413,0.138-0.86,0.404-1.671l0.097-0.168c0.214-0.371,0.087-0.845-0.284-1.059    l-0.42-0.243l5.237-9.071c0.215-0.371-1.567-1.8-3.979-3.193s-4.541-2.221-4.756-1.85l-3.977,6.887    c-0.277,0.483-0.875,0.665-1.37,0.435l-0.73,1.264l-0.421-0.242c-0.372-0.214-0.845-0.087-1.06,0.284l-0.097,0.168    c-0.568,0.637-0.994,0.792-1.244,1.186c-0.162,0.255-0.024,0.401,0.233,0.565l-0.444,0.77c-0.569,0.636-0.995,0.792-1.244,1.185    c-0.162,0.255-0.024,0.4,0.233,0.565l-0.444,0.769c-0.568,0.637-0.995,0.792-1.244,1.186c-0.162,0.255-0.024,0.4,0.234,0.564    l-0.444,0.769c-0.569,0.637-0.994,0.792-1.244,1.186c-0.162,0.255-0.024,0.4,0.233,0.565l-0.444,0.77    c-0.568,0.636-0.994,0.792-1.244,1.185c-0.162,0.255-0.024,0.4,0.233,0.566l-0.444,0.769c-0.568,0.637-0.995,0.791-1.244,1.185    c-0.162,0.256-0.024,0.4,0.233,0.565l-0.444,0.77c-0.568,0.636-0.995,0.792-1.244,1.185c-0.162,0.256-0.024,0.401,0.234,0.565    l-0.444,0.771c-0.569,0.636-0.995,0.792-1.244,1.184c-0.25,0.395,0.005,1.079,0.522,1.422c0.026,0.019,0.051,0.031,0.073,0.042    c0.004,0.002,0.007,0.005,0.011,0.008l0.42,0.243l-0.924,1.6c0.419,0.295,0.568,0.851,0.353,1.316l0.004,0.003l-0.139,0.24    c-2.058,0.115-3.34,1.598-3.43,3.857c-0.959,13.69,3.652,15.862,10.376,21.531c6.789,5.722,13.197,7.759,16.196,7.759    c3.02,0,6.012-1.552,9.698-6.109c3.686-4.559,8.915-16.167,13.48-34.43C54.697,40.83,56.056,28.028,55.861,18.33z"></path></g></g></svg>