<svg height='100px' width='100px'  fill="#000000" xmlns="http://www.w3.org/2000/svg" viewBox="0 0 64 64" x="0px" y="0px"><title>1</title><g data-name="Layer 28"><path d="M32.81,3.62a1,1,0,0,0-1.62,0C30.41,4.69,12,30.13,12,40.81a20,20,0,1,0,40,0C52,30.13,33.59,4.69,32.81,3.62ZM32,58.8a18,18,0,0,1-18-18C14,32,28.4,11,32,5.93,35.6,11,50,32,50,40.81A18,18,0,0,1,32,58.8Z"></path><path d="M44.11,43.35a1,1,0,0,0-.42,0h-.06a5.6,5.6,0,0,1-5.7-5.48,5.49,5.49,0,0,1,3.19-4.91l0,0,0,0a.94.94,0,0,0,.11-.1,1,1,0,0,0,.14-.13,1,1,0,0,0,.1-.17.67.67,0,0,0,.11-.36,1,1,0,0,0,0-.19,1,1,0,0,0,0-.19.94.94,0,0,0,0-.14l0,0s0,0,0,0A108.42,108.42,0,0,0,33,19.69a1,1,0,0,0-1.53,0c-.5.6-12.29,14.65-12.29,21.38A12.88,12.88,0,0,0,32.24,53.73a13.06,13.06,0,0,0,12.54-9.14A1,1,0,0,0,44.11,43.35Zm-10.87-1.2,2.86-2.76a7.35,7.35,0,0,0,1.41,3l-4.27,4.13ZM21.18,41.07c0-4.63,7.38-14.64,11.06-19.16a106.87,106.87,0,0,1,7.06,9.75,7.52,7.52,0,0,0-3.26,5l-2.79,2.7v-5L37,30.77a1,1,0,0,0-1.39-1.44l-4,3.89h0a1,1,0,0,0-.2.3l0,0s0,.05,0,.08a1,1,0,0,0-.06.31h0v1.53l-2.32-2.25a1,1,0,1,0-1.39,1.44l3.71,3.59v5l-5-4.84a1,1,0,1,0-1.39,1.44L31.24,46v4.34l-6.34-6.13a1,1,0,1,0-1.39,1.44l5.87,5.68A10.75,10.75,0,0,1,21.18,41.07ZM33.24,51.69V49.27l5.7-5.52a7.77,7.77,0,0,0,3.47,1.46A11.08,11.08,0,0,1,33.24,51.69Z"></path></g></svg>