<svg height='100px' width='100px'  fill="#000000" xmlns:x="http://ns.adobe.com/Extensibility/1.0/" xmlns:i="http://ns.adobe.com/AdobeIllustrator/10.0/" xmlns:graph="http://ns.adobe.com/Graphs/1.0/" xmlns="http://www.w3.org/2000/svg" xmlns:xlink="http://www.w3.org/1999/xlink" version="1.1" x="0px" y="0px" viewBox="0 0 100 100" style="enable-background:new 0 0 100 100;" xml:space="preserve"><g><path d="M94.8,78.9h-7.7V31.3c0-1.5-1.2-2.7-2.7-2.7H72.9c-1.5,0-2.7,1.2-2.7,2.7v47.6h-7.9V49.1c0-1.5-1.2-2.7-2.7-2.7H48.2    c-1.5,0-2.7,1.2-2.7,2.7v29.9h-7.9V66.9c0-1.5-1.2-2.7-2.7-2.7H23.5c-1.5,0-2.7,1.2-2.7,2.7v12.1h-13v-8.4h5    c1.5,0,2.7-1.2,2.7-2.7c0-1.5-1.2-2.7-2.7-2.7h-5v-8.4h5c1.5,0,2.7-1.2,2.7-2.7c0-1.5-1.2-2.7-2.7-2.7h-5v-8.4h5    c1.5,0,2.7-1.2,2.7-2.7c0-1.5-1.2-2.7-2.7-2.7h-5v-8.4h5c1.5,0,2.7-1.2,2.7-2.7c0-1.5-1.2-2.7-2.7-2.7h-5v-5.6    c0-1.5-1.2-2.7-2.7-2.7s-2.7,1.2-2.7,2.7v63.2c0,1.5,1.2,2.7,2.7,2.7h89.7c1.5,0,2.7-1.2,2.7-2.7C97.5,80.1,96.3,78.9,94.8,78.9z"></path></g></svg>