<?xml version="1.0" encoding="utf-8"?>
<!-- Generator: Adobe Illustrator 24.2.1, SVG Export Plug-In . SVG Version: 6.00 Build 0)  -->
<svg version="1.1" id="Layer_1" xmlns="http://www.w3.org/2000/svg" xmlns:xlink="http://www.w3.org/1999/xlink" x="0px" y="0px"
	 viewBox="0 0 100 100" enable-background="new 0 0 100 100" xml:space="preserve">
<g>
	<path fill-rule="evenodd" clip-rule="evenodd" d="M39.862,20.531v0.877c-7.336,0-7.889,15.894-1.453,17.393
		c0,2.353-0.3,3.483-2.099,4.844c-4.821,3.668-7.751,7.105-7.751,13.702v32.964c0,8.189,42.884,10.957,42.884-2.03V59.077
		c0-6.92-2.422-11.788-7.543-15.063c-2.168-1.407-2.307-1.707-2.307-5.213c5.444-0.461,6.113-15.894-0.715-17.301v-0.023h-0.185
		c-0.277-0.046-0.554-0.069-0.83-0.069c0-3.091-0.046-9.988-0.715-11.995c-2.814-8.351-14.902-9.158-18.339-0.623
		C39.885,11.05,39.862,17.578,39.862,20.531z M48.212,26.159h8.558v2.907h-8.627l-0.046,1.776h8.674v2.907h-8.743l-0.046,1.984
		h12.48l0.877-0.092c1.915-0.069,2.745-11.073-1.476-11.073h-3.16v-0.023h-8.443L48.212,26.159z M60.946,50.334
		c0.923-0.415,2.168,0.323,2.768,1.661c0.6,1.338,0.323,2.768-0.623,3.183c-0.946,0.415-2.191-0.323-2.791-1.661
		C59.723,52.18,60,50.75,60.946,50.334z M31.696,86.943l3.022-1.984V63.691c4.637-1.892,7.866-1.869,10.934-1.176V38.8h-4.083
		c0,3.253-0.692,5.329-3.345,7.359c-0.623,0.461-1.269,0.877-1.892,1.315c-0.531,0.415-1.176,1.176-1.638,1.661
		c-1.938,2.053-2.999,5.421-2.999,8.212V86.943z M48.72,63.391c0.969,0.3,1.961,0.646,3.022,0.969V53.633L48.72,55.04V63.391z
		 M54.81,65.19c1.915,0.438,4.083,0.784,6.644,0.83c3.506,0.069,5.306-0.946,6.69-4.129c0.023-0.115,0.092-0.231,0.138-0.323v-2.491
		c0-5.306-1.522-9.481-6.067-12.411c-3.506-2.261-3.783-3.829-3.783-7.866H54.81V65.19z M50.219,21.476h6.482v-0.069
		c0-3.829,0-5.675-0.277-9.504c-0.046-0.646-0.092-1.776-0.254-2.376c-0.323-0.946-1.176-2.422-2.03-2.999
		c-1.2-0.807-2.561-1.361-3.922-1.476v7.036h-5.813v2.884h5.813V21.476z"/>
</g>
</svg>
