<?xml version="1.0" encoding="utf-8"?>
<!-- Generator: Adobe Illustrator 24.2.1, SVG Export Plug-In . SVG Version: 6.00 Build 0)  -->
<svg version="1.1" id="Layer_1" xmlns="http://www.w3.org/2000/svg" xmlns:xlink="http://www.w3.org/1999/xlink" x="0px" y="0px"
	 viewBox="0 0 100 100" enable-background="new 0 0 100 100" xml:space="preserve">
<circle fill="none" stroke="#000000" stroke-width="3.125" stroke-linecap="round" stroke-linejoin="round" stroke-miterlimit="3.125" cx="50" cy="50" r="48.438"/>
<path fill="none" stroke="#000000" stroke-width="3.125" stroke-linecap="round" stroke-linejoin="round" stroke-miterlimit="3.125" d="
	M71.875,25c2.289-5.945-7.813-7.813-7.813-7.813S65.891,27.25,71.875,25z"/>
<path fill="none" stroke="#000000" stroke-width="3.125" stroke-linecap="round" stroke-linejoin="round" stroke-miterlimit="3.125" d="
	M79.617,32.773c5.82-2.586,0-10.992,0-10.992S73.797,30.188,79.617,32.773z"/>
<path fill="none" stroke="#000000" stroke-width="3.125" stroke-linecap="round" stroke-linejoin="round" stroke-miterlimit="3.125" d="
	M84.07,44.195c6.367-0.125,4.266-10.156,4.266-10.156S79.688,39.555,84.07,44.195z"/>
<path fill="none" stroke="#000000" stroke-width="3.125" stroke-linecap="round" stroke-linejoin="round" stroke-miterlimit="3.125" d="
	M83.914,54.836c5.305,3.531,9.281-5.891,9.281-5.891S82.977,48.531,83.914,54.836z"/>
<path fill="none" stroke="#000000" stroke-width="3.125" stroke-linecap="round" stroke-linejoin="round" stroke-miterlimit="3.125" d="
	M80.266,64.914c3.906,5.023,10.672-2.648,10.672-2.648S81.375,58.641,80.266,64.914z"/>
<path fill="none" stroke="#000000" stroke-width="3.125" stroke-linecap="round" stroke-linejoin="round" stroke-miterlimit="3.125" d="
	M73.148,74.219C75.813,80,84.141,74.07,84.141,74.07S75.656,68.359,73.148,74.219z"/>
<path fill="none" stroke="#000000" stroke-width="3.125" stroke-linecap="round" stroke-linejoin="round" stroke-miterlimit="3.125" d="
	M28.125,25c-2.289-5.945,7.813-7.813,7.813-7.813S34.109,27.25,28.125,25z"/>
<path fill="none" stroke="#000000" stroke-width="3.125" stroke-linecap="round" stroke-linejoin="round" stroke-miterlimit="3.125" d="
	M20.383,32.773c-5.82-2.586,0-10.992,0-10.992S26.203,30.188,20.383,32.773z"/>
<path fill="none" stroke="#000000" stroke-width="3.125" stroke-linecap="round" stroke-linejoin="round" stroke-miterlimit="3.125" d="
	M15.93,44.195c-6.367-0.125-4.266-10.156-4.266-10.156S20.313,39.555,15.93,44.195z"/>
<path fill="none" stroke="#000000" stroke-width="3.125" stroke-linecap="round" stroke-linejoin="round" stroke-miterlimit="3.125" d="
	M16.086,54.836c-5.297,3.523-9.281-5.891-9.281-5.891S17.023,48.531,16.086,54.836z"/>
<path fill="none" stroke="#000000" stroke-width="3.125" stroke-linecap="round" stroke-linejoin="round" stroke-miterlimit="3.125" d="
	M19.734,64.914c-3.906,5.023-10.672-2.648-10.672-2.648S18.625,58.641,19.734,64.914z"/>
<path fill="none" stroke="#000000" stroke-width="3.125" stroke-linecap="round" stroke-linejoin="round" stroke-miterlimit="3.125" d="
	M26.852,74.219C24.219,80,15.859,74.063,15.859,74.063S24.344,68.359,26.852,74.219z"/>
<path fill="none" stroke="#000000" stroke-width="3.125" stroke-linecap="round" stroke-linejoin="round" stroke-miterlimit="3.125" d="
	M71.875,25c7.109,5.812,11.617,15.336,11.617,25.234c0.098,13.991-9.116,26.342-22.555,30.234
	c-5.469,1.563-13.281,3.125-15.625,9.375"/>
<path fill="none" stroke="#000000" stroke-width="3.125" stroke-linecap="round" stroke-linejoin="round" stroke-miterlimit="3.125" d="
	M28.125,25c-7.109,5.812-11.617,15.336-11.617,25.234c-0.098,13.991,9.116,26.342,22.555,30.234
	c5.469,1.563,13.281,3.125,15.625,9.375"/>
<path fill="none" stroke="#000000" stroke-width="3.125" stroke-linecap="round" stroke-linejoin="round" stroke-miterlimit="3.125" d="
	M58.289,30.664L30.664,58.289c-1.221,1.22-1.222,3.198-0.002,4.419c0.001,0.001,0.002,0.002,0.002,0.002l6.633,6.633
	c1.22,1.221,3.198,1.222,4.419,0.002c0.001-0.001,0.002-0.002,0.002-0.002l2.211-2.211L37.297,60.5L60.5,37.297l6.633,6.633
	l2.211-2.211c1.221-1.22,1.222-3.198,0.002-4.419c-0.001-0.001-0.002-0.002-0.002-0.002l-6.633-6.633
	c-1.22-1.221-3.198-1.222-4.419-0.002C58.291,30.662,58.29,30.663,58.289,30.664z"/>
<line fill="none" stroke="#000000" stroke-width="3.125" stroke-linecap="round" stroke-linejoin="round" stroke-miterlimit="3.125" x1="41.164" y1="57.734" x2="47.234" y2="63.813"/>
<line fill="none" stroke="#000000" stroke-width="3.125" stroke-linecap="round" stroke-linejoin="round" stroke-miterlimit="3.125" x1="44.477" y1="54.422" x2="50.555" y2="60.5"/>
<line fill="none" stroke="#000000" stroke-width="3.125" stroke-linecap="round" stroke-linejoin="round" stroke-miterlimit="3.125" x1="47.789" y1="51.102" x2="53.867" y2="57.18"/>
<line fill="none" stroke="#000000" stroke-width="3.125" stroke-linecap="round" stroke-linejoin="round" stroke-miterlimit="3.125" x1="51.102" y1="47.789" x2="57.18" y2="53.867"/>
<line fill="none" stroke="#000000" stroke-width="3.125" stroke-linecap="round" stroke-linejoin="round" stroke-miterlimit="3.125" x1="54.422" y1="44.477" x2="60.5" y2="50.555"/>
<line fill="none" stroke="#000000" stroke-width="3.125" stroke-linecap="round" stroke-linejoin="round" stroke-miterlimit="3.125" x1="57.734" y1="41.164" x2="63.813" y2="47.234"/>
</svg>
