<svg height='100px' width='100px'  fill="#000000" xmlns="http://www.w3.org/2000/svg" viewBox="0 0 64 64" x="0px" y="0px"><title>dinner-food-meal-restaurant-dining</title><g><g data-name="29-dinner"><path d="M38.1,54.983A3.2,3.2,0,0,0,40,53.161a3.15,3.15,0,0,0,.2-1.507l2.116-.706-.632-1.9-2.313.771a3.187,3.187,0,0,0-3.642-.742A11.016,11.016,0,0,1,33,49.918V48h3a1,1,0,0,0,1-1V39a1,1,0,0,0-1-1H33V35.9a5,5,0,0,0,0-9.8V23.936a5.822,5.822,0,0,0,4.948-3.62,1,1,0,0,0-.241-1.023L33,14.586V12.84A4.429,4.429,0,0,0,36,8.5a4.429,4.429,0,0,0-3-4.34V2H31V4.16A4.429,4.429,0,0,0,28,8.5a4.429,4.429,0,0,0,3,4.34v1.746l-4.707,4.707a1,1,0,0,0-.241,1.023A5.822,5.822,0,0,0,31,23.936V26.1a5,5,0,0,0,0,9.8V38H28a1,1,0,0,0-1,1v8a1,1,0,0,0,1,1h3v1.962a35.078,35.078,0,0,1-4.734-.7,2.415,2.415,0,0,0-2.655,1.279,2.386,2.386,0,0,0,.743,3.03A13.383,13.383,0,0,0,31,55.95V62h2V55.96A17.915,17.915,0,0,0,38.1,54.983ZM30,8.5A2.3,2.3,0,0,1,32,6a2.3,2.3,0,0,1,2,2.5A2.3,2.3,0,0,1,32,11,2.3,2.3,0,0,1,30,8.5ZM28.218,20.2,32,16.414,35.783,20.2A4.227,4.227,0,0,1,32,22,4.24,4.24,0,0,1,28.218,20.2ZM29,31a3,3,0,1,1,3,3A3,3,0,0,1,29,31Zm0,9h6v6H29ZM25.4,51.436a.409.409,0,0,1,.365-.227.358.358,0,0,1,.085.01A32.834,32.834,0,0,0,32,52a11.276,11.276,0,0,0,4.543-1.092,1.194,1.194,0,0,1,1.562.54,1.159,1.159,0,0,1,.041.965,1.194,1.194,0,0,1-.72.686A16.339,16.339,0,0,1,32,54a11.288,11.288,0,0,1-6.488-2.06A.4.4,0,0,1,25.4,51.436Z"></path><path d="M17,45.871a20.472,20.472,0,0,0,4.452,3.973l1.094-1.674A18.707,18.707,0,0,1,17,42.471V21.521a18.154,18.154,0,0,1,9.329-7.557l-.658-1.889A19.932,19.932,0,0,0,17,18.132V8.354A27.979,27.979,0,0,1,29.1,4.148L28.9,2.158A29.963,29.963,0,0,0,15.363,7.043a8.114,8.114,0,0,0-5.19,2.37l-.76.76a8.122,8.122,0,0,0-2.371,5.194A29.949,29.949,0,0,0,9.867,52.23,3,3,0,0,0,8,55v1a3,3,0,0,0,3,3h3a3.032,3.032,0,0,0,2.479-1.332A30,30,0,0,0,28.9,61.842l.2-1.99a28,28,0,0,1-12.1-4.2ZM7,19.377V39a4.011,4.011,0,0,0,3,3.874v6.445A28.02,28.02,0,0,1,7,19.377ZM14,57H11a1,1,0,0,1-1-1V55a1,1,0,0,1,1-1,1,1,0,0,0,1-1V42a1,1,0,0,0-1-1,2,2,0,0,1-2-2V16c0-.041,0-.086,0-.117a.956.956,0,0,0,.018-.159,6.127,6.127,0,0,1,1.808-4.137l.76-.76A6.142,6.142,0,0,1,15,9.087L15,56.092A1.013,1.013,0,0,1,14,57Z"></path><path d="M62,32a29.981,29.981,0,0,0-4-14.963V11a4,4,0,0,0-4-4H48.579A29.928,29.928,0,0,0,35.1,2.157l-.2,1.99a27.95,27.95,0,0,1,10.929,3.5c-.013.008-.025.019-.038.028-.028.018-.052.04-.079.058a3.88,3.88,0,0,0-.469.388c-.033.031-.068.061-.1.094a4,4,0,0,0-.423.513c-.028.039-.051.08-.077.12a3.9,3.9,0,0,0-.291.536c-.014.03-.03.059-.043.09a4.005,4.005,0,0,0-.2.654c-.011.052-.021.1-.03.157A3.965,3.965,0,0,0,44,11v4.206a19.686,19.686,0,0,0-5.671-3.131l-.658,1.889A17.812,17.812,0,0,1,44,17.868V24a4.005,4.005,0,0,0,3,3.873v14.6a18.6,18.6,0,0,1-4.6,5.031l1.2,1.6A20.334,20.334,0,0,0,47,45.852V55a3.986,3.986,0,0,0,.049.619A28.013,28.013,0,0,1,34.9,59.852l.206,1.99A30.014,30.014,0,0,0,47.85,57.461,4,4,0,0,0,55,55V51.247A29.976,29.976,0,0,0,62,32Zm-2,0a27.988,27.988,0,0,1-5,15.967V27.874A4.011,4.011,0,0,0,58,24V21.59A28.074,28.074,0,0,1,60,32ZM53,55a2,2,0,0,1-3.869.692A1.883,1.883,0,0,1,49,55V27a1,1,0,0,0-1-1,2,2,0,0,1-2-2V11a2,2,0,0,1,2-2V20h2V9h2V20h2V9a2,2,0,0,1,2,2V24a2,2,0,0,1-2,2,1,1,0,0,0-1,1V55Z"></path></g></g></svg>