<svg height='100px' width='100px'  fill="#000000" xmlns="http://www.w3.org/2000/svg" viewBox="0 0 64 64" x="0px" y="0px"><title>sink-wash-cleaning-water-kitchen</title><g><path d="M31,38H17V56H31ZM29,49H27V45h2Z"></path><path d="M6,60H58V34H6Zm9-23a1,1,0,0,1,1-1H48a1,1,0,0,1,1,1V57a1,1,0,0,1-1,1H16a1,1,0,0,1-1-1Z"></path><path d="M9,28V25.71a2.69,2.69,0,0,1,.79-1.92.67.67,0,0,0,.21-.5V23a1,1,0,0,0-1-1H7a1,1,0,0,0-1,1v.29a.67.67,0,0,0,.21.5A2.69,2.69,0,0,1,7,25.71V28Z"></path><path d="M47,38H33V56H47ZM37,49H35V45h2Z"></path><rect x="4" y="30" width="56" height="2"></rect><path d="M58,23a3,3,0,0,0-2-2.83v7.66A3,3,0,0,0,58,25Z"></path><path d="M42,23a3,3,0,0,0-2-2.83v7.66A3,3,0,0,0,42,25Z"></path><path d="M54,23a3,3,0,0,0-2-2.83v7.66A3,3,0,0,0,54,25Z"></path><path d="M50,23a3,3,0,0,0-2-2.83v7.66A3,3,0,0,0,50,25Z"></path><path d="M46,23a3,3,0,0,0-2-2.83v7.66A3,3,0,0,0,46,25Z"></path><path d="M33,4v6H60V4Zm4,4H35V6h2Z"></path><path d="M31,4H4v6H31ZM29,8H27V6h2Z"></path><path d="M25,18v2h2V18a2,2,0,0,1,4,0V28h2V18a4,4,0,0,0-8,0Z"></path></g></svg>