<svg height='100px' width='100px'  fill="#000000" xmlns="http://www.w3.org/2000/svg" xmlns:xlink="http://www.w3.org/1999/xlink" version="1.1" x="0px" y="0px" viewBox="0 0 100 100" enable-background="new 0 0 100 100" xml:space="preserve"><g><path fill="#000000" d="M93.786,22.714c-0.003-0.025-0.008-0.05-0.012-0.076c-0.018-0.113-0.042-0.225-0.073-0.336   c-0.005-0.02-0.009-0.04-0.015-0.06c-0.037-0.123-0.082-0.245-0.136-0.365c-0.011-0.025-0.022-0.049-0.035-0.073   c-0.027-0.06-0.055-0.119-0.086-0.178c-0.019-0.032-0.041-0.062-0.06-0.094c-0.02-0.032-0.038-0.062-0.058-0.093   c-0.064-0.1-0.135-0.195-0.209-0.285c-0.006-0.008-0.011-0.016-0.018-0.022c-0.086-0.102-0.179-0.196-0.274-0.285   c-0.019-0.016-0.037-0.032-0.056-0.048c-0.088-0.075-0.178-0.146-0.271-0.21c-0.019-0.012-0.035-0.025-0.053-0.037   c-0.109-0.073-0.224-0.138-0.343-0.196c-0.007-0.004-0.014-0.008-0.021-0.012L51.07,0.653c-0.842-0.404-1.824-0.404-2.667,0   L7.406,20.343c-0.008,0.004-0.015,0.009-0.023,0.013c-0.116,0.058-0.229,0.122-0.338,0.193c-0.021,0.013-0.041,0.028-0.061,0.042   c-0.09,0.062-0.177,0.13-0.261,0.203c-0.021,0.018-0.042,0.036-0.063,0.055c-0.095,0.087-0.186,0.179-0.271,0.279   c-0.01,0.011-0.018,0.024-0.027,0.036c-0.07,0.085-0.136,0.176-0.197,0.27c-0.022,0.034-0.043,0.068-0.064,0.104   c-0.018,0.03-0.039,0.058-0.056,0.088c-0.031,0.055-0.056,0.112-0.083,0.168c-0.014,0.029-0.029,0.057-0.042,0.085   c-0.052,0.119-0.096,0.238-0.132,0.359c-0.006,0.023-0.012,0.047-0.018,0.07c-0.03,0.108-0.053,0.216-0.07,0.325   c-0.005,0.028-0.01,0.055-0.013,0.083c-0.018,0.132-0.028,0.265-0.028,0.397c0,0.002,0,0.005,0,0.007v50.65   c0,1.119,0.607,2.15,1.587,2.694L48.242,99.2c0.465,0.257,0.98,0.386,1.495,0.386c0.514,0,1.029-0.129,1.494-0.386l40.997-22.734   c0.979-0.544,1.587-1.575,1.587-2.694v-50.65c0-0.001,0-0.003,0-0.005C93.815,22.982,93.805,22.848,93.786,22.714z M49.737,92.981   L11.821,71.956V28.354l20.112,11.153c0.474,0.262,0.986,0.387,1.492,0.387c1.084,0,2.135-0.573,2.698-1.588   c0.825-1.488,0.288-3.364-1.2-4.189L15.449,23.317L49.737,6.85l34.289,16.468L64.553,34.116c-1.489,0.825-2.028,2.701-1.201,4.189   c0.562,1.016,1.613,1.588,2.697,1.588c0.506,0,1.019-0.125,1.491-0.387l20.112-11.152v43.602L49.737,92.981z"></path><path fill="#000000" d="M52.84,50.581c-0.1-0.314-0.425-0.496-0.744-0.413c-1.544,0.402-3.201,0.4-4.751-0.009   c-0.318-0.084-0.647,0.098-0.746,0.412L37.947,78.23c-0.072,0.23-0.002,0.482,0.179,0.643l11.184,9.935   c0.117,0.104,0.263,0.155,0.41,0.155c0.146,0,0.291-0.052,0.408-0.154l11.222-9.935c0.181-0.159,0.251-0.413,0.178-0.645   L52.84,50.581z"></path><path fill="#000000" d="M41.634,38.822l5.072,8.696c0.083,0.141,0.217,0.244,0.375,0.286c0.17,0.044,0.34,0.094,0.511,0.142   c0.671,0.193,1.366,0.392,2.145,0.392c0.751,0,1.419-0.193,2.065-0.38c0.183-0.052,0.366-0.106,0.55-0.153   c0.165-0.043,0.303-0.152,0.385-0.301l4.771-8.727c0.165-0.348,0.315-1.145-0.176-1.924c-0.892-1.412-3.446-2.128-7.595-2.128   c-4.19,0-6.82,0.724-7.82,2.15c-0.641,0.917-0.363,1.755-0.33,1.849C41.601,38.757,41.616,38.79,41.634,38.822z"></path></g></svg>