<svg height='100px' width='100px'  fill="#000000" xmlns:dc="http://purl.org/dc/elements/1.1/" xmlns:cc="http://creativecommons.org/ns#" xmlns:rdf="http://www.w3.org/1999/02/22-rdf-syntax-ns#" xmlns:svg="http://www.w3.org/2000/svg" xmlns="http://www.w3.org/2000/svg" xmlns:sodipodi="http://sodipodi.sourceforge.net/DTD/sodipodi-0.dtd" xmlns:inkscape="http://www.inkscape.org/namespaces/inkscape" version="1.1" x="0px" y="0px" viewBox="0 0 100 100"><g transform="translate(0,-952.36218)"><path style="font-size:medium;font-style:normal;font-variant:normal;font-weight:normal;font-stretch:normal;text-indent:0;text-align:start;text-decoration:none;line-height:normal;letter-spacing:normal;word-spacing:normal;text-transform:none;direction:ltr;block-progression:tb;writing-mode:lr-tb;text-anchor:start;baseline-shift:baseline;opacity:1;color:#000000;fill:#000000;fill-opacity:1;stroke:none;stroke-width:4;marker:none;visibility:visible;display:inline;overflow:visible;enable-background:accumulate;font-family:Sans;-inkscape-font-specification:Sans" d="M 25.125 11 A 2.0002 2.0002 0 0 0 23.75 11.75 L 14.0625 24.125 A 2.0002 2.0002 0 0 0 15.625 27.34375 L 35.15625 27.34375 L 45.03125 54.1875 L 22.875 30.25 A 2.0012813 2.0012813 0 1 0 19.9375 32.96875 L 46.09375 61.21875 C 29.236591 62.513386 14.616455 72.096987 6.28125 85.96875 A 2.004364 2.004364 0 1 0 9.71875 88.03125 C 18.00072 74.24815 32.943434 65.0625 50 65.0625 C 67.056566 65.0625 81.999277 74.24815 90.28125 88.03125 A 2.004364 2.004364 0 1 0 93.71875 85.96875 C 85.383542 72.096987 70.763408 62.513386 53.90625 61.21875 L 85.84375 26.71875 A 2.0002 2.0002 0 0 0 85.9375 24.125 L 76.25 11.75 A 2.0002 2.0002 0 0 0 74.6875 11 C 58.226993 11.019 41.767481 11.0417 25.3125 11 A 2.0002 2.0002 0 0 0 25.125 11 z M 26.25 15 C 42.090043 15.0378 57.915054 15.0184 73.75 15 L 81.75 25.25 L 54.5625 54.625 L 61.59375 33.5 A 2.0002 2.0002 0 0 0 59.53125 30.84375 A 2.0002 2.0002 0 0 0 57.8125 32.25 L 49.90625 55.90625 L 39.4375 27.34375 L 71.4375 27.34375 A 2.0002 2.0002 0 1 0 71.4375 23.34375 L 19.71875 23.34375 L 26.25 15 z M 50 76.34375 C 40.857709 76.34375 32.481055 79.8074 26.125 85.5 A 2.0002 2.0002 0 1 0 28.78125 88.46875 C 34.438861 83.40165 41.865357 80.34375 50 80.34375 C 58.134643 80.34375 65.56114 83.40165 71.21875 88.46875 A 2.0002 2.0002 0 1 0 73.875 85.5 C 67.518946 79.8074 59.142291 76.34375 50 76.34375 z " transform="translate(0,952.36218)"></path></g></svg>