<svg height='100px' width='100px'  fill="#000000" xmlns="http://www.w3.org/2000/svg" xmlns:xlink="http://www.w3.org/1999/xlink" version="1.1" x="0px" y="0px" viewBox="0 0 64 64" style="enable-background:new 0 0 64 64;" xml:space="preserve"><g><rect x="21" y="45" width="4" height="2"></rect><rect x="23" y="53" width="2" height="2"></rect><rect x="19" y="53" width="2" height="2"></rect><path d="M57.507,46.478l1.256-6.24l-6.32,1.272l-3.465-4.082L44.519,43H41V16h1.382l2.344,4.688L50,15.414L51.586,17L47,21.586   v13.473h2V30h6c4.411,0,8-3.589,8-8c0-2.459-1.124-4.76-3.037-6.273C59.988,15.477,60,15.236,60,15c0-4.411-3.589-8-8-8   c-0.417,0-0.827,0.044-1.233,0.108C49.914,3.561,46.754,1,43,1c-3.667,0-6.86,2.542-7.747,6.035C31.19,7.413,28,10.841,28,15   c0,0.247,0.014,0.493,0.036,0.738C26.19,17.205,25,19.464,25,22c0,4.411,3.589,8,8,8h6v13H28.816c-0.414-1.161-1.514-2-2.816-2v-5   c0-1.217-0.731-2.262-1.775-2.732C24.085,31.848,24,30.417,24,29v-1H8v1c0,5.188-0.924,10.282-2.745,15.139l-0.191,0.509   l1.873,0.704l0.191-0.51C8.916,40.071,9.878,35.083,9.989,30H12v2h2v-2h4v4h2v-4h2.012c0.023,1.04,0.094,2.083,0.189,3.122   C20.936,33.474,20,34.624,20,36v5h-4c-1.654,0-3,1.346-3,3v1h-1.667c-1.074,0-2.14,0.355-2.999,1l-5.335,4   C1.747,50.939,1,52.435,1,54c0,2.757,2.243,5,5,5h10h1h9c1.302,0,2.402-0.839,2.816-2h15.703l4.458,5.572l3.465-4.082l6.32,1.272   l-1.256-6.24l5.3-3.523L57.507,46.478z M33,28c-3.309,0-6-2.691-6-6s2.691-6,6-6c1.234,0,2.42,0.372,3.428,1.075l1.145-1.641   C36.227,14.496,34.646,14,33,14c-1.053,0-2.057,0.21-2.979,0.581c0.216-3.113,2.81-5.581,5.945-5.582l0.98,0.005l0.123-0.859   C37.488,5.212,40.037,3,43,3c2.846,0,5.221,1.968,5.829,4.673c-1.314,0.569-2.477,1.476-3.333,2.668l1.625,1.166   C48.247,9.937,50.071,9,52,9c3.309,0,6,2.691,6,6c0,0.313-0.03,0.646-0.094,1.015l-0.107,0.638l0.537,0.36   C60.004,18.132,61,19.997,61,22c0,3.309-2.691,6-6,6h-6v-5.586L54.414,17L50,12.586l-4.726,4.726L43.618,14H39v14H33z M29,53h19   c1.654,0,3-1.346,3-3s-1.346-3-3-3H29v-2h19c2.757,0,5,2.243,5,5s-2.243,5-5,5H29V53z M29,51v-2h19c0.552,0,1,0.449,1,1   s-0.448,1-1,1H29z M27,44v5h-8v-6h7C26.552,43,27,43.449,27,44z M22,36c0-0.551,0.448-1,1-1s1,0.449,1,1v5h-2V36z M3,54   c0-0.939,0.448-1.837,1.199-2.4l5.334-4c0.517-0.387,1.155-0.6,1.8-0.6H13v9c0,0.352,0.072,0.686,0.184,1H6C4.346,57,3,55.654,3,54   z M26,57h-9h-1c-0.552,0-1-0.449-1-1V44c0-0.551,0.448-1,1-1h1v8h10v5C27,56.551,26.552,57,26,57z M56.208,57.208l-4.527-0.911   l-2.658,3.131L47.081,57H48c3.859,0,7-3.14,7-7s-3.141-7-7-7h-0.919l1.942-2.428l2.658,3.131l4.527-0.911l-0.928,4.607L59.193,50   l-3.913,2.601L56.208,57.208z"></path><rect x="12" y="34" width="2" height="4"></rect></g></svg>