<svg height='100px' width='100px'  fill="#000000" xmlns="http://www.w3.org/2000/svg" xmlns:xlink="http://www.w3.org/1999/xlink" version="1.1" x="0px" y="0px" viewBox="0 0 64 64" style="enable-background:new 0 0 64 64;" xml:space="preserve"><path d="M62.3,49.7l-15-7.5l13.6-21c0.6-1-0.5-2.1-1.5-1.5L39.1,32.9l-6-32c-0.2-1.2-1.9-1.2-2.1,0l-6,32L4.6,19.7  c-1-0.6-2.1,0.5-1.5,1.5l13.6,21l-15,7.5c-1,0.5-0.7,2,0.5,2h19.1c0,0.1,0,0.1-0.1,0.2l-5.1,7.4c-0.6,0.9,0.4,2.1,1.4,1.6L29.7,55  c0.1-0.1,0.3-0.1,0.5-0.1h0.5V64h2.8v-9.1h0.4c0.2,0,0.3,0,0.5,0.1l12.2,5.9c1,0.5,2-0.7,1.4-1.6l-5.1-7.4c0-0.1-0.1-0.1-0.1-0.2  h19.1C62.9,51.7,63.3,50.2,62.3,49.7z M39,44.2h-4.8V49h-4.4v-4.8H25v-4.4h4.8V35h4.4v4.8H39V44.2z"></path></svg>