<svg height='100px' width='100px'  fill="#000000" xmlns="http://www.w3.org/2000/svg" viewBox="0 0 64 64" x="0px" y="0px"><g><rect x="6" y="54" width="2" height="2"></rect><rect x="10" y="54" width="2" height="2"></rect><rect x="14" y="54" width="2" height="2"></rect><rect x="18" y="54" width="2" height="2"></rect><rect x="44" y="54" width="2" height="2"></rect><rect x="48" y="54" width="2" height="2"></rect><rect x="52" y="54" width="2" height="2"></rect><rect x="56" y="54" width="2" height="2"></rect><rect x="27" y="42" width="2" height="2"></rect><rect x="35" y="42" width="2" height="2"></rect><path d="M61,23H59.2L24,8.333V5a1,1,0,0,0-1.521-.854L4.719,15H3a1,1,0,0,0-1,1v4a1,1,0,0,0,1,1H5V50H3a1,1,0,0,0-1,1v8a1,1,0,0,0,1,1H61a1,1,0,0,0,1-1V51a1,1,0,0,0-1-1H59V29h2a1,1,0,0,0,1-1V24A1,1,0,0,0,61,23ZM4,19V17H5a1.007,1.007,0,0,0,.521-.146L22,6.783V9.428L5.728,19ZM22,58H4V52H22Zm18,0H24V56H40Zm0-4H24V52H40ZM24,50V40h7V50Zm16,0H33V40h7Zm0-12H24V36H40Zm1-4H23a1,1,0,0,0-1,1V50H7V20.572l15-8.823V13a1,1,0,0,0,.606.919L57,28.659V50H42V35A1,1,0,0,0,41,34ZM60,52v6H42V52Zm0-25h-1.8L24,12.341V10.5L58.615,24.923A1,1,0,0,0,59,25h1Z"></path><path d="M20,23H18V21a1,1,0,0,0-1-1H13a1,1,0,0,0-1,1v2H10a1,1,0,0,0-1,1v4a1,1,0,0,0,1,1h2v2a1,1,0,0,0,1,1h4a1,1,0,0,0,1-1V29h2a1,1,0,0,0,1-1V24A1,1,0,0,0,20,23Zm-1,4H17a1,1,0,0,0-1,1v2H14V28a1,1,0,0,0-1-1H11V25h2a1,1,0,0,0,1-1V22h2v2a1,1,0,0,0,1,1h2Z"></path><path d="M19,36H10a1,1,0,0,0-1,1V47a1,1,0,0,0,1,1h9a1,1,0,0,0,1-1V37A1,1,0,0,0,19,36ZM18,46H11V44h7Zm0-4H11V38h7Z"></path><path d="M45,48h9a1,1,0,0,0,1-1V37a1,1,0,0,0-1-1H45a1,1,0,0,0-1,1V47A1,1,0,0,0,45,48Zm1-10h7v4H46Zm0,6h7v2H46Z"></path><path d="M37,23a3.006,3.006,0,0,0-2.829,2H29.829a3,3,0,1,0-5.421,2.5A2.992,2.992,0,0,0,29.225,31h5.55a2.992,2.992,0,0,0,4.817-3.5A2.992,2.992,0,0,0,37,23Zm.652,5.252a.993.993,0,1,1-1.51,1.245,1,1,0,0,0-.865-.5H28.723a1,1,0,0,0-.865.5A.988.988,0,0,1,27,30a.993.993,0,0,1-.652-1.748,1,1,0,0,0,0-1.5A1,1,0,1,1,28,26a1,1,0,0,0,1,1h6a1,1,0,0,0,1-1,1,1,0,1,1,1.652.748,1,1,0,0,0,0,1.5Z"></path></g></svg>