<svg height='100px' width='100px'  fill="#000000" xmlns="http://www.w3.org/2000/svg" xmlns:xlink="http://www.w3.org/1999/xlink" version="1.1" x="0px" y="0px" viewBox="0 0 100 100" enable-background="new 0 0 100 100" xml:space="preserve"><g><g><path d="M50,93.094c-15.689,0-28.454-12.764-28.454-28.453c0-15.69,12.764-28.454,28.454-28.454S78.453,48.95,78.453,64.641    C78.453,80.33,65.689,93.094,50,93.094z M50,40.611c-13.25,0-24.029,10.779-24.029,24.029C25.971,77.89,36.75,88.669,50,88.669    c13.25,0,24.027-10.779,24.027-24.028C74.027,51.391,63.25,40.611,50,40.611z"></path></g><path d="M62.006,63h-9.261c-0.583-1-1.592-1.566-2.745-1.566c-0.265,0-0.518,0.008-0.765,0.066l-7.085-7.1   c-0.691-0.691-1.812-0.7-2.503-0.009c-0.691,0.691-0.691,1.808,0,2.499l7.143,7.14c-0.038,0.199-0.062,0.401-0.062,0.611   c0,1.807,1.464,3.066,3.272,3.066c1.153,0,2.162-0.708,2.745-1.708h9.261c0.977,0,1.77-0.521,1.77-1.5   C63.775,63.523,62.982,63,62.006,63z"></path><g><path d="M50,84.812c-0.733,0-1.328-0.595-1.328-1.328v-3.877c0-0.733,0.594-1.327,1.328-1.327c0.733,0,1.327,0.594,1.327,1.327    v3.877C51.327,84.218,50.733,84.812,50,84.812z"></path></g><g><path d="M50,50.854c-0.733,0-1.328-0.595-1.328-1.327v-3.878c0-0.732,0.594-1.327,1.328-1.327c0.733,0,1.327,0.595,1.327,1.327    v3.878C51.327,50.259,50.733,50.854,50,50.854z"></path></g><g><path d="M36.623,79.272c-0.34,0-0.679-0.13-0.938-0.39c-0.519-0.519-0.519-1.358,0-1.877l2.741-2.741    c0.519-0.519,1.359-0.519,1.877,0s0.519,1.358,0,1.877l-2.742,2.741C37.302,79.143,36.962,79.272,36.623,79.272z"></path></g><g><path d="M60.635,55.259c-0.34,0-0.68-0.13-0.938-0.39c-0.519-0.519-0.519-1.358,0-1.877l2.741-2.742    c0.52-0.519,1.359-0.519,1.877,0c0.52,0.519,0.52,1.359,0,1.878l-2.74,2.741C61.314,55.129,60.975,55.259,60.635,55.259z"></path></g><g><path d="M34.959,65.895h-3.877c-0.733,0-1.328-0.595-1.328-1.327c0-0.733,0.594-1.328,1.328-1.328h3.877    c0.733,0,1.328,0.595,1.328,1.328C36.287,65.3,35.692,65.895,34.959,65.895z"></path></g><g><path d="M68.918,65.895h-1.471c-0.732,0-1.328-0.595-1.328-1.327c0-0.733,0.596-1.328,1.328-1.328h1.471    c0.732,0,1.328,0.595,1.328,1.328C70.246,65.3,69.65,65.895,68.918,65.895z"></path></g><g><path d="M63.377,79.272c-0.34,0-0.68-0.13-0.939-0.39l-2.741-2.742c-0.519-0.519-0.519-1.359,0-1.877    c0.519-0.519,1.358-0.519,1.878,0l2.74,2.742c0.52,0.519,0.52,1.359,0,1.877C64.057,79.143,63.717,79.272,63.377,79.272z"></path></g><g><path d="M37.662,53.558c-0.34,0-0.68-0.13-0.939-0.389l-1.04-1.041c-0.518-0.519-0.518-1.359,0.001-1.878    c0.518-0.518,1.359-0.519,1.877,0l1.04,1.041c0.518,0.519,0.518,1.359-0.001,1.878C38.341,53.428,38.001,53.558,37.662,53.558z"></path></g><path d="M52,29.333v-1.708c6.54-1.115,11.775-6.838,11.775-13.728c0-7.686-6.172-13.939-13.857-13.939   c-7.687,0-13.734,6.254-13.734,13.939c0,6.89,5.272,12.613,11.816,13.728v1.708c-18.53,1.203-33.238,16.569-33.238,35.307   c0,19.52,15.799,35.401,35.32,35.401c19.52,0,35.197-15.882,35.197-35.401C85.279,45.902,70.532,30.536,52,29.333z M47,19v-6h6v6   H47z M38.879,13.897c0-6.222,4.981-11.284,11.203-11.284c6.222,0,11.079,5.062,11.079,11.284c0,5.446-3.705,9.992-9.161,11.044V22   h2.397C55.131,22,56,21.305,56,20.571v-8.795C56,11.043,55.131,10,54.397,10h-8.795C44.869,10,44,11.043,44,11.776v8.795   C44,21.305,44.869,22,45.602,22H48v2.941C42.548,23.889,38.879,19.343,38.879,13.897z M50,97.387   c-18.057,0-32.747-14.689-32.747-32.746c0-18.058,14.69-32.747,32.747-32.747s32.746,14.689,32.746,32.747   C82.746,82.697,68.057,97.387,50,97.387z"></path></g></svg>