<svg height='100px' width='100px'  fill="#000000" xmlns="http://www.w3.org/2000/svg" xmlns:xlink="http://www.w3.org/1999/xlink" version="1.1" x="0px" y="0px" viewBox="0 0 64 64" enable-background="new 0 0 64 64" xml:space="preserve"><metadata><?xpacket begin="&#65279;" id="W5M0MpCehiHzreSzNTczkc9d"?><x:xmpmeta xmlns:x="adobe:ns:meta/" x:xmptk="Adobe XMP Core 5.3-c011 66.145661, 2012/02/06-14:56:27        "></x:xmpmeta><?xpacket end="w"?></metadata><g><g><path d="M56,16H30c-1.104,0-2,0.896-2,2v16c0,1.104,0.896,2,2,2h26c1.104,0,2-0.896,2-2V18C58,16.896,57.104,16,56,16z M32,20h22    v2c0,1.103-0.897,2-2,2c-0.771,0-1.267-0.436-1.494-0.696c-0.76-0.869-2.252-0.869-3.012,0C47.267,23.564,46.771,24,46,24    s-1.267-0.436-1.494-0.696c-0.76-0.869-2.252-0.869-3.012,0C41.267,23.564,40.771,24,40,24s-1.267-0.436-1.494-0.696    c-0.76-0.869-2.252-0.869-3.012,0C35.267,23.564,34.771,24,34,24c-1.103,0-2-0.897-2-2V20z M32,32v-4.35    c0.627,0.223,1.298,0.35,2,0.35c1.062,0,2.095-0.288,3-0.817c1.811,1.06,4.189,1.06,6,0c1.811,1.06,4.189,1.06,6,0    C49.905,27.712,50.938,28,52,28c0.702,0,1.373-0.127,2-0.35V32H32z"></path><path d="M58,10H28c-3.309,0-6,2.691-6,6v4h-8c-3.309,0-6,2.691-6,6v2H6c-3.309,0-6,2.691-6,6v12c0,1.104,0.896,2,2,2h4.264    c0.892,3.445,4.017,6,7.736,6s6.845-2.555,7.736-6h18.527c0.892,3.445,4.017,6,7.736,6s6.845-2.555,7.736-6H62    c1.104,0,2-0.896,2-2V16C64,12.691,61.309,10,58,10z M14,24h8v4H12v-2C12,24.897,12.897,24,14,24z M4,34c0-1.103,0.897-2,2-2h16    v12h-0.264c-0.892-3.445-4.017-6-7.736-6s-6.845,2.555-7.736,6H4V34z M14,50c-2.206,0-4-1.794-4-4s1.794-4,4-4s4,1.794,4,4    S16.206,50,14,50z M48,50c-2.206,0-4-1.794-4-4s1.794-4,4-4s4,1.794,4,4S50.206,50,48,50z M60,44h-4.264    c-0.892-3.445-4.017-6-7.736-6s-6.845,2.555-7.736,6H26V22v-6c0-1.103,0.897-2,2-2h30c1.103,0,2,0.897,2,2V44z"></path></g></g></svg>