<svg height='100px' width='100px'  fill="#000000" xmlns="http://www.w3.org/2000/svg" viewBox="0 0 64 64" x="0px" y="0px"><title>Asset 66</title><g data-name="Layer 2"><g data-name="Layer 1"><path d="M54.59,64H9.41A9.42,9.42,0,0,1,0,54.59V9.41A9.42,9.42,0,0,1,9.41,0H54.59A9.42,9.42,0,0,1,64,9.41V54.59A9.42,9.42,0,0,1,54.59,64ZM9.41,3.76A5.66,5.66,0,0,0,3.76,9.41V54.59a5.66,5.66,0,0,0,5.65,5.65H54.59a5.66,5.66,0,0,0,5.65-5.65V9.41a5.66,5.66,0,0,0-5.65-5.65Z"></path><path d="M53.06,29.78A4.71,4.71,0,0,0,49,27.45h-16V19.14a4.71,4.71,0,0,0-4.7-4.71H14a1.89,1.89,0,0,0,0,3.77h14.2a1,1,0,0,1,.94.94v8.31H14a1.89,1.89,0,0,0,0,3.77H49a1,1,0,0,1,.86,1.45L43.23,44.75a5.64,5.64,0,0,1-4.95,2.94H14a1.88,1.88,0,1,0,0,3.76H38.28a9.42,9.42,0,0,0,8.26-4.9l6.6-12.08A4.7,4.7,0,0,0,53.06,29.78Z"></path></g></g></svg>