<svg height='100px' width='100px'  fill="#000000" xmlns="http://www.w3.org/2000/svg" xmlns:xlink="http://www.w3.org/1999/xlink" version="1.1" x="0px" y="0px" viewBox="0 0 64 64" style="enable-background:new 0 0 64 64;" xml:space="preserve"><path d="M55,28v-1c0-0.94-0.449-1.837-1.2-2.399L47,19.5V16c0-2.757-2.243-5-5-5h-4v-1c0-1.526-1.149-2.775-2.625-2.962l0.729-2.185  l-1.717-2.575C33.853,1.478,32.961,1,32,1s-1.853,0.478-2.387,1.277l-1.717,2.575l0.729,2.185C27.149,7.225,26,8.474,26,10v1h-4  c-2.757,0-5,2.243-5,5v3.5L10.2,24.6C9.449,25.163,9,26.06,9,27v1c0,9.534,4.481,18.642,12,24.481v2.62  c-2.279,0.465-4,2.484-4,4.899v1c0,1.103,0.897,2,2,2h26c1.103,0,2-0.897,2-2v-1c0-2.414-1.721-4.434-4-4.899v-2.62  C50.519,46.642,55,37.534,55,28z M23,55v-2h18v2H23z M25,33v-2h6v-6h2v6l6-0.001V33h-6v12h-2V33H25z M11.81,34.751  C12.175,34.91,12.577,35,13,35c1.654,0,3-1.346,3-3s-1.346-3-3-3c-0.746,0-1.42,0.283-1.946,0.735C11.019,29.159,11,28.58,11,28v-1  h2c2.757,0,5,2.243,5,5s-2.243,5-5,5h-0.542C12.215,36.259,11.993,35.511,11.81,34.751z M12,32c0-0.552,0.449-1,1-1s1,0.448,1,1  s-0.449,1-1,1S12,32.552,12,32z M45,17v2H19v-2H45z M45.667,21l5.332,4H35c0-1.103-0.897-2-2-2h-2c-1.103,0-2,0.897-2,2H13l5.333-4  H45.667z M51,29c-1.654,0-3,1.346-3,3s1.346,3,3,3c0.423,0,0.825-0.09,1.19-0.249c-0.183,0.76-0.405,1.508-0.648,2.249H51  c-2.757,0-5-2.243-5-5s2.243-5,5-5h2v1c0,0.58-0.019,1.159-0.054,1.735C52.42,29.283,51.746,29,51,29z M52,32c0,0.552-0.449,1-1,1  s-1-0.448-1-1s0.449-1,1-1S52,31.448,52,32z M45,28.413c-0.311-0.517-0.682-0.994-1.111-1.413h2.221  C45.682,27.42,45.311,27.896,45,28.413z M20.111,27c-0.429,0.42-0.8,0.896-1.111,1.413c-0.311-0.517-0.682-0.994-1.111-1.413H20.111  z M19,35.587c0.311,0.517,0.682,0.994,1.111,1.413h-2.221C18.318,36.58,18.689,36.104,19,35.587z M20,32c0-2.757,2.243-5,5-5h4v2h-4  c-1.103,0-2,0.897-2,2v2c0,1.103,0.897,2,2,2h4v2h-4C22.243,37,20,34.757,20,32z M35,35h4c1.103,0,2-0.897,2-2v-2  c0-1.103-0.897-2-2-2h-4v-2h4c2.757,0,5,2.243,5,5s-2.243,5-5,5h-4V35z M45,35.587c0.311,0.517,0.682,0.994,1.111,1.413h-2.221  C44.318,36.58,44.689,36.104,45,35.587z M31.277,3.387c0.323-0.484,1.122-0.484,1.445,0l1.174,1.761L33.279,7h-2.558l-0.617-1.853  L31.277,3.387z M28,10c0-0.552,0.449-1,1-1h6c0.551,0,1,0.448,1,1v1h-8V10z M22,13h20c1.302,0,2.402,0.839,2.816,2H19.184  C19.598,13.839,20.698,13,22,13z M13.192,39H29v6c0,1.103,0.897,2,2,2h2c1.103,0,2-0.897,2-2v-6h15.808  c-1.927,4.685-5.056,8.859-9.144,12H22.336C18.248,47.859,15.119,43.685,13.192,39z M45,60l0.001,1H19v-1c0-1.654,1.346-3,3-3h20  C43.654,57,45,58.346,45,60z"></path></svg>