<svg height='100px' width='100px'  fill="#000000" xmlns="http://www.w3.org/2000/svg" xmlns:xlink="http://www.w3.org/1999/xlink" version="1.1" x="0px" y="0px" viewBox="0 0 110 110" enable-background="new 0 0 110 110" xml:space="preserve"><path d="M31.76,31.13l-0.68-0.34l-0.49,0.49l0.34,0.67l1.57,3.13l2.38-2.38L31.76,31.13z M31.76,31.13l-0.68-0.34l-0.49,0.49  l0.34,0.67l1.57,3.13l2.38-2.38L31.76,31.13z M31.76,31.13l-0.68-0.34l-0.49,0.49l0.34,0.67l1.57,3.13l2.38-2.38L31.76,31.13z   M61.05,57.77l-6.21-6.22L39.53,36.24l-3.49,3.49l15.3,15.3l6.24,6.24L71.1,74.79l3.48-3.49L61.05,57.77z M82.23,78.95l-3.561-3.56  l-3.479,3.479l3.56,3.56c0.319,0.24,0.67,0.37,1.04,0.37c0.62,0,1.311-0.34,1.9-0.92C81.95,81.62,83.21,80.24,82.23,78.95z   M82.23,78.95l-3.561-3.56l-3.479,3.479l3.56,3.56c0.319,0.24,0.67,0.37,1.04,0.37c0.62,0,1.311-0.34,1.9-0.92  C81.95,81.62,83.21,80.24,82.23,78.95z M61.05,57.77l-6.21-6.22L39.53,36.24l-3.49,3.49l15.3,15.3l6.24,6.24L71.1,74.79l3.48-3.49  L61.05,57.77z M31.76,31.13l-0.68-0.34l-0.49,0.49l0.34,0.67l1.57,3.13l2.38-2.38L31.76,31.13z M31.76,31.13l-0.68-0.34l-0.49,0.49  l0.34,0.67l1.57,3.13l2.38-2.38L31.76,31.13z M48,61.55c-6.43,7.229-14.01,16.431-16.9,19.96c3.52-2.88,12.73-10.47,19.96-16.898  L48,61.55z M61.05,57.77l-6.21-6.22L39.53,36.24l-3.49,3.49l15.3,15.3l6.24,6.24L71.1,74.79l3.48-3.49L61.05,57.77z M82.23,78.95  l-3.561-3.56l-3.479,3.479l3.56,3.56c0.319,0.24,0.67,0.37,1.04,0.37c0.62,0,1.311-0.34,1.9-0.92  C81.95,81.62,83.21,80.24,82.23,78.95z M82.4,29.63c-1.051,1.62-2.5,3.13-4.301,3.34c-2.75,0.32-3.979,0.74-4.891,1.64  c-0.65,0.66-0.63,1.83-0.55,2.48l2.81,2.81c1.2-0.13,3.811-0.84,6.62-4.37C83.439,33.82,83.08,31.51,82.4,29.63z M82.4,29.63  c-1.051,1.62-2.5,3.13-4.301,3.34c-2.75,0.32-3.979,0.74-4.891,1.64c-0.65,0.66-0.63,1.83-0.55,2.48l2.81,2.81  c1.2-0.13,3.811-0.84,6.62-4.37C83.439,33.82,83.08,31.51,82.4,29.63z M82.23,78.95l-3.561-3.56l-3.479,3.479l3.56,3.56  c0.319,0.24,0.67,0.37,1.04,0.37c0.62,0,1.311-0.34,1.9-0.92C81.95,81.62,83.21,80.24,82.23,78.95z M61.05,57.77l-6.21-6.22  L39.53,36.24l-3.49,3.49l15.3,15.3l6.24,6.24L71.1,74.79l3.48-3.49L61.05,57.77z M48,61.55c-6.43,7.229-14.01,16.431-16.9,19.96  c3.52-2.88,12.73-10.47,19.96-16.898L48,61.55z M31.76,31.13l-0.68-0.34l-0.49,0.49l0.34,0.67l1.57,3.13l2.38-2.38L31.76,31.13z   M55,5C27.39,5,5,27.39,5,55c0,27.609,22.39,50,50,50c27.609,0,50-22.391,50-50C105,27.39,82.609,5,55,5z M69.49,39.31l3.81,3.82  c0,0-3.569,5.05-8.829,11.01l-6-6C64.439,42.88,69.49,39.31,69.49,39.31z M32.65,29.34l4.49,2.25l1.12,0.56l-6.31,6.31l-0.56-1.12  l-2.25-4.49l-0.98-1.96l2.52-2.53L32.65,29.34z M26.59,28.23L25,25.2l3.03,1.6l1.95,1.01l-2.37,2.36L26.59,28.23z M30.89,84.26  c-0.35,0.36-0.82,0.54-1.29,0.54c-0.46,0-0.92-0.18-1.26-0.521c-0.71-0.699-0.7-1.85,0-2.561c0,0,11.16-13.75,19.58-23.08  l6.05,6.051C44.64,73.1,30.89,84.26,30.89,84.26z M70.25,76.77L56.16,62.68l-6.23-6.238L34.05,40.57l-0.84-0.84l6.32-6.32l0.84,0.84  l15.88,15.89l6.221,6.219l14.09,14.101h0.01l0.841,0.84L71.1,77.62L70.25,76.77z M83.1,83.3c-0.97,0.95-2.14,1.5-3.31,1.5  c-0.83,0-1.66-0.28-2.38-0.88l-5.051-5.05l6.311-6.312l0.85,0.852l4.201,4.21C85.16,79.37,84.73,81.66,83.1,83.3z M83.65,36.77  c-3.78,4.76-7.48,5.16-8.631,5.16c-0.24,0-0.359-0.02-0.359-0.02l-3.86-3.85c0,0-0.8-3.06,1-4.86c1.4-1.4,3.19-1.88,6.07-2.21  c2.47-0.29,4.5-5.79,4.5-5.79S87.311,32.17,83.65,36.77z M78.1,32.97c-2.75,0.32-3.979,0.74-4.89,1.64  c-0.649,0.66-0.63,1.83-0.55,2.48l2.811,2.81c1.199-0.13,3.811-0.84,6.619-4.37c1.352-1.71,0.99-4.02,0.311-5.9  C81.35,31.25,79.9,32.76,78.1,32.97z M78.67,75.391l-3.479,3.479l3.56,3.56c0.319,0.24,0.67,0.37,1.04,0.37  c0.62,0,1.311-0.34,1.9-0.92c0.26-0.26,1.52-1.64,0.539-2.93L78.67,75.391z M54.84,51.55L39.53,36.24l-3.49,3.49l15.3,15.3  l6.24,6.24L71.1,74.79l3.48-3.49L61.05,57.77L54.84,51.55z M69.279,41.94c-1.619,1.21-4.529,3.44-7.879,6.3l2.97,2.97  c2.86-3.34,5.101-6.26,6.3-7.88L69.279,41.94z M51.06,64.609L48,61.55c-6.43,7.229-14.01,16.431-16.9,19.96  C34.62,78.63,43.83,71.04,51.06,64.609z M32.5,35.08l2.38-2.38l-3.12-1.57l-0.68-0.34l-0.49,0.49l0.34,0.67L32.5,35.08z   M31.76,31.13l-0.68-0.34l-0.49,0.49l0.34,0.67l1.57,3.13l2.38-2.38L31.76,31.13z M48,61.55c-6.43,7.229-14.01,16.431-16.9,19.96  c3.52-2.88,12.73-10.47,19.96-16.898L48,61.55z M61.05,57.77l-6.21-6.22L39.53,36.24l-3.49,3.49l15.3,15.3l6.24,6.24L71.1,74.79  l3.48-3.49L61.05,57.77z M82.23,78.95l-3.561-3.56l-3.479,3.479l3.56,3.56c0.319,0.24,0.67,0.37,1.04,0.37  c0.62,0,1.311-0.34,1.9-0.92C81.95,81.62,83.21,80.24,82.23,78.95z M82.23,78.95l-3.561-3.56l-3.479,3.479l3.56,3.56  c0.319,0.24,0.67,0.37,1.04,0.37c0.62,0,1.311-0.34,1.9-0.92C81.95,81.62,83.21,80.24,82.23,78.95z M61.05,57.77l-6.21-6.22  L39.53,36.24l-3.49,3.49l15.3,15.3l6.24,6.24L71.1,74.79l3.48-3.49L61.05,57.77z M48,61.55c-6.43,7.229-14.01,16.431-16.9,19.96  c3.52-2.88,12.73-10.47,19.96-16.898L48,61.55z M31.76,31.13l-0.68-0.34l-0.49,0.49l0.34,0.67l1.57,3.13l2.38-2.38L31.76,31.13z   M31.76,31.13l-0.68-0.34l-0.49,0.49l0.34,0.67l1.57,3.13l2.38-2.38L31.76,31.13z M61.05,57.77l-6.21-6.22L39.53,36.24l-3.49,3.49  l15.3,15.3l6.24,6.24L71.1,74.79l3.48-3.49L61.05,57.77z M61.05,57.77l-6.21-6.22L39.53,36.24l-3.49,3.49l15.3,15.3l6.24,6.24  L71.1,74.79l3.48-3.49L61.05,57.77z M31.76,31.13l-0.68-0.34l-0.49,0.49l0.34,0.67l1.57,3.13l2.38-2.38L31.76,31.13z"></path></svg>