<svg height='100px' width='100px'  fill="#000000" xmlns="http://www.w3.org/2000/svg" data-name="Layer 1" viewBox="0 0 100 100" x="0px" y="0px"><title>Vape</title><path d="M88.51,21.21a20.49,20.49,0,0,0-36.37-4.66A23.41,23.41,0,0,0,26,8.7,23.27,23.27,0,0,0,24,51.89a15.55,15.55,0,0,0-5.49,17.58A15.47,15.47,0,0,0,48.62,64.1a15.19,15.19,0,0,0,16.91-16,20.48,20.48,0,0,0,23-26.92ZM84.9,35.56A17.43,17.43,0,0,1,64.18,44.7a1.49,1.49,0,0,0-1.46.33,1.51,1.51,0,0,0-.46,1.43A12.16,12.16,0,0,1,47.33,60.79a1.51,1.51,0,0,0-1.87,1.69A12.45,12.45,0,1,1,28.18,53,1.51,1.51,0,0,0,28,50.14a20.26,20.26,0,1,1,23-30,1.52,1.52,0,0,0,2.64-.1A17.47,17.47,0,0,1,84.9,35.56Z"></path><path d="M48.91,25.36a.56.56,0,0,0,.71.35A.55.55,0,0,0,50,25,17.3,17.3,0,0,0,17.3,36.39a.56.56,0,0,0,.53.37l.19,0a.56.56,0,0,0,.34-.71A16.18,16.18,0,1,1,48.91,25.36Z"></path><path d="M75.19,15.47a13.79,13.79,0,0,0-10.6-.6.56.56,0,0,0-.34.71.55.55,0,0,0,.71.34A12.75,12.75,0,0,1,73.36,40a.56.56,0,0,0-.35.71.55.55,0,0,0,.53.38l.19,0a13.88,13.88,0,0,0,1.46-25.59Z"></path><path d="M58.72,43.87a.56.56,0,0,0-.34.71A9.78,9.78,0,0,1,39.92,51a.56.56,0,1,0-1.05.37,10.91,10.91,0,0,0,10.29,7.3,10.69,10.69,0,0,0,3.58-.61,10.9,10.9,0,0,0,6.69-13.87A.56.56,0,0,0,58.72,43.87Z"></path><path d="M36.05,72.65A8.77,8.77,0,1,1,30.27,56.1a.56.56,0,0,0,.34-.72A.55.55,0,0,0,29.9,55a9.89,9.89,0,0,0-1,18.24,9.9,9.9,0,0,0,7.55.43.56.56,0,0,0-.36-1.06Z"></path><path d="M83.81,78.79a.54.54,0,0,0-.41-.1l-39.86,6a.55.55,0,0,0-.47.63l.08.53L31.26,87.42a.55.55,0,0,0-.37.22.57.57,0,0,0-.11.42L31.53,93a.55.55,0,0,0,.22.37.57.57,0,0,0,.33.11h.09l11.82-2,.1.62a.55.55,0,0,0,.22.37.57.57,0,0,0,.33.11h.08l39.86-6a.55.55,0,0,0,.47-.63l-1-6.75A.55.55,0,0,0,83.81,78.79ZM32.55,92.27,32,88.46,43.32,87l.51,3.4Zm12.56-.9-.85-5.64L72.89,81.4l.85,5.65Zm29.74-4.49L74,81.24l9-1.37.85,5.65Z"></path><path d="M67.07,84.86l-3.44,1c-.06,0-.11,0-.12-.06l-.21-1.33a.09.09,0,0,0-.13,0l-4.56,2c-.1,0,0,.16.06.14l3.82-.87a.08.08,0,0,1,.11.05l.22,1.43a.1.1,0,0,0,.14,0L67.15,85C67.24,84.94,67.18,84.83,67.07,84.86Z"></path></svg>