<svg height='100px' width='100px'  fill="#000000" xmlns="http://www.w3.org/2000/svg" xmlns:xlink="http://www.w3.org/1999/xlink" version="1.1" x="0px" y="0px" viewBox="0 0 66 66" enable-background="new 0 0 66 66" xml:space="preserve"><g><path d="M56.6,1.6c-0.1-0.2-0.4-0.4-0.7-0.4c-0.3,0-0.5,0.2-0.7,0.4c-6,11.2-5.7,10.5-5.7,10.8c0,0,0,0,0,0v1.6H16.4v-1.4   c0,0,0-0.1,0-0.1c0-0.2-0.1-0.4-0.2-0.5L10.7,1.6c-0.1-0.2-0.4-0.4-0.7-0.4c-0.3,0-0.5,0.2-0.7,0.4L3.8,12.1c0,0,0,0,0,0   c0,0,0,0.1,0,0.1c0,0,0,0.1,0,0.1c0,0,0,0.1,0,0.1v31.6v8.2c0,2.2,1.8,4,4,4H17v3.8l-2.1,3.5c-0.1,0.2-0.1,0.5,0,0.8   c0.1,0.2,0.4,0.4,0.7,0.4h34.9c0,0,0,0,0,0c0.4,0,0.8-0.3,0.8-0.8c0-0.2-0.1-0.4-0.2-0.5l-2-3.4v-3.7h9.2c2.2,0,4-1.8,4-4v-8.2   c0-33.8,0.1-31.8-0.2-32.1L56.6,1.6z M55.9,3.6l4.2,7.9c-2.7-0.4-5.5-0.4-8.5,0L55.9,3.6z M15.6,15.6h34.8c0.4,0.7,0.4,3.7,0,4.4   H15.6C15.1,19.3,15.1,16.3,15.6,15.6z M46.4,38.2h-3.7v-3.1h6.9v8.2h-2.4v-4.4C47.1,38.5,46.8,38.2,46.4,38.2z M42.6,51.6h-1.1   V39.7h4.2v12.6c0,0.4,0.3,0.8,0.8,0.8h1.1v6.5h-4.1v-7.2C43.3,51.9,43,51.6,42.6,51.6z M25.3,38.2h-0.5v-3.8c0,0,0,0,0,0   c0-2.4,3.8-4.5,8.2-4.5c4.4,0,8.2,2.1,8.2,4.5v3.8h-0.5c-0.4,0-0.8,0.3-0.8,0.8v4.4H26v-4.4C26,38.5,25.7,38.2,25.3,38.2z    M23.4,33.6h-2.9c1.2-10.8,23.8-10.8,24.9,0h-2.9C41.2,26.6,24.7,26.6,23.4,33.6z M23.3,35.1v3.1h-3.7c-0.4,0-0.8,0.3-0.8,0.8v4.4   h-2.4v-8.2H23.3z M19.6,53.1c0.4,0,0.8-0.3,0.8-0.8v-8.2c0,0,0,0,0,0s0,0,0,0v-4.4h4.2v11.9h-1.1c-0.4,0-0.8,0.3-0.8,0.8v7.2h-4.1   v-6.5H19.6z M24.1,53.1h1.1c0.4,0,0.8-0.3,0.8-0.8v-7.5H40v7.5c0,0.4,0.3,0.8,0.8,0.8h1.1v6.5H24.1V53.1z M47,33.6   c-1.1-12.8-26.8-12.8-27.9,0h-2.6V21.5h33.1v12.1H47z M10.1,3.6l4.2,7.9c-2.7-0.4-5.5-0.4-8.5,0L10.1,3.6z M5.2,13.1   c3.4-0.6,6.7-0.6,9.7,0v1.1c-1,0.4-1.2,2.4-1.2,3.6c0,1.2,0.2,3.2,1.2,3.6v22.1c-3.2,0.8-6.5,0.8-9.7,0V13.1z M7.7,54.9   c-1.4,0-2.5-1.1-2.5-2.5v-7.3c3.5,0.8,7,0.8,10.6-0.2h3.1v6.7h-1.1c-0.4,0-0.8,0.3-0.8,0.8v2.5H7.7z M49.1,63.2H16.9l1.3-2.2   c8.8,0,20.8,0,29.7,0L49.1,63.2z M60.8,52.3c0,1.4-1.1,2.5-2.5,2.5H49v-2.5c0-0.4-0.3-0.8-0.8-0.8h-1.1v-6.7h3.1   c1.9,0.5,3.8,0.8,5.7,0.8c1.6,0,3.3-0.2,4.9-0.6V52.3z M60.8,43.5c-3.2,0.8-6.5,0.8-9.7,0v-9.2v-13c1.6-0.7,1.6-6.5,0-7.2v-1   c3.4-0.6,6.7-0.6,9.7,0V43.5z"></path><path d="M37.7,48.1c0-0.4-0.3-0.8-0.8-0.8s-0.8,0.3-0.8,0.8c0,0.5-0.1,0.7-0.3,1c-0.6,1.1-0.6,2.3,0,3.4c0.4,0.7,0.4,1.3,0,2   c-0.2,0.4-0.5,0.8-0.5,1.7c0,0.4,0.3,0.8,0.8,0.8s0.8-0.3,0.8-0.8c0-0.5,0.1-0.7,0.3-1c0.6-1.1,0.6-2.3,0-3.4c-0.4-0.7-0.4-1.3,0-2   C37.4,49.5,37.7,49,37.7,48.1z"></path><path d="M34.1,48.1c0-0.4-0.3-0.8-0.8-0.8s-0.8,0.3-0.8,0.8c0,0.5-0.1,0.7-0.3,1c-0.6,1.1-0.6,2.3,0,3.4c0.4,0.7,0.4,1.3,0,2   c-0.2,0.4-0.5,0.8-0.5,1.7c0,0.4,0.3,0.8,0.8,0.8c0.4,0,0.8-0.3,0.8-0.8c0-0.5,0.1-0.7,0.3-1c0.6-1.1,0.6-2.3,0-3.4   C32.8,50.2,34.1,50,34.1,48.1z"></path><path d="M30.6,48.1c0-0.4-0.3-0.8-0.8-0.8s-0.8,0.3-0.8,0.8c0,0.5-0.1,0.7-0.3,1c-0.6,1.1-0.6,2.3,0,3.4c0.4,0.7,0.4,1.3,0,2   c-0.2,0.4-0.5,0.8-0.5,1.7c0,0.4,0.3,0.8,0.8,0.8s0.8-0.3,0.8-0.8c0-0.5,0.1-0.7,0.3-1c1.5-2.7-1.1-3.5,0-5.4   C30.3,49.5,30.6,49,30.6,48.1z"></path></g></svg>