<svg height='100px' width='100px'  fill="#000000" xmlns="http://www.w3.org/2000/svg" xmlns:xlink="http://www.w3.org/1999/xlink" xml:space="preserve" version="1.1" style="shape-rendering:geometricPrecision;text-rendering:geometricPrecision;image-rendering:optimizeQuality;" viewBox="0 0 60000 60000" x="0px" y="0px" fill-rule="evenodd" clip-rule="evenodd"><defs><style type="text/css">
   
    .fil0 {fill:#000000;fill-rule:nonzero}
   
  </style></defs><g><path class="fil0" d="M35820 32596c1137,-2 2265,-647 3195,-1831 921,-1173 1642,-2863 1990,-4978 768,-4669 2743,-6988 4940,-7745 1129,-389 2311,-364 3418,-30 1095,330 2116,963 2938,1793 1687,1704 2541,4243 1485,6721 -1256,2946 -3919,4974 -7031,6143 -3580,1345 -7766,1554 -11067,713 -214,-54 -343,-272 -289,-486 49,-192 229,-316 421,-300zm14448 -10823c-102,-93 -109,-251 -17,-353 93,-102 251,-109 353,-17 335,304 593,651 781,1024 375,744 468,1589 328,2399 -139,806 -510,1581 -1063,2190 -317,350 -696,645 -1125,862 -123,62 -273,13 -335,-110 -62,-123 -13,-273 110,-335 373,-188 703,-446 981,-753 489,-539 817,-1224 940,-1938 123,-710 43,-1446 -282,-2090 -161,-320 -383,-618 -672,-880zm-6848 -8123l-55 20 -118 44 -118 46 -118 47 -118 48 -118 49 -118 51 319 734 111 -48 111 -47 111 -45 111 -44 111 -43 111 -42 55 -20 -277 -750zm12998 16267l75 -119 74 -119 72 -119 71 -119 41 -72 -694 -398 -38 65 -67 113 -68 113 -70 113 -71 113 675 429zm724 -1272l20 -40 59 -119 58 -119 56 -119 55 -119 53 -119 48 -110 -735 -317 -45 103 -50 112 -52 112 -53 112 -54 112 -56 112 -20 40 715 358zm653 -1515l25 -69 41 -118 39 -118 38 -118 37 -118 35 -118 34 -118 3 -12 -772 -211 -33 114 -33 110 -34 110 -36 110 -37 110 -38 111 -25 69 755 265zm449 -1590l25 -121 22 -116 21 -116 20 -116 18 -115 17 -115 17 -122 -794 -96 0 -1 -15 107 -16 107 -17 107 -18 107 -19 108 -21 108 -23 113 783 163zm216 -1648l4 -78 5 -113 3 -112 2 -112 1 -112 0 -112 -1 -111 -2 -79 -800 23 2 71 1 103 0 103 -1 103 -2 104 -3 104 -4 104 -4 78 799 37zm-43 -1662l-8 -76 -13 -108 -14 -108 -15 -107 -16 -107 -17 -107 -19 -106 -19 -102 -786 150 17 93 17 98 16 98 15 99 14 99 13 99 12 100 8 76 795 -91zm-312 -1633l-7 -24 -29 -102 -30 -102 -31 -101 -32 -101 -33 -100 -34 -100 -35 -99 -24 -65 -749 280 21 57 33 91 32 92 31 92 30 93 29 93 28 94 27 94 7 24 770 -216zm-577 -1562l-18 -38 -45 -94 -46 -94 -47 -93 -48 -93 -49 -92 -50 -92 -51 -91 -30 -53 -693 400 26 46 47 84 46 84 45 85 44 85 43 86 42 86 42 87 18 38 723 -341zm-824 -1445l-24 -35 -59 -85 -60 -85 -61 -84 -62 -83 -63 -83 -64 -82 -64 -81 -40 -50 -620 505 35 43 59 75 59 76 58 76 57 77 56 77 56 78 55 79 24 35 659 -454zm-1044 -1292l-26 -28 -72 -75 -73 -74 -74 -73 -74 -73 -75 -72 -76 -71 -76 -70 -49 -44 -534 596 43 39 71 65 70 66 69 66 69 67 68 68 67 68 67 69 26 28 578 -553zm-1233 -1112l-32 -25 -83 -63 -84 -62 -85 -61 -85 -61 -86 -60 -86 -59 -87 -58 -49 -32 -435 671 42 28 81 54 80 55 79 55 79 56 78 57 78 58 77 58 32 25 486 -636zm-1389 -910l-50 -27 -93 -50 -93 -49 -94 -48 -95 -47 -95 -47 -96 -46 -96 -45 -30 -14 -328 730 23 11 89 42 89 42 88 43 88 44 87 45 87 46 86 46 50 27 383 -703zm-1510 -690l-89 -33 -101 -36 -101 -35 -102 -34 -102 -33 -103 -32 -103 -31 -84 -24 -219 769 76 22 96 29 95 30 95 31 95 31 94 32 94 33 89 33 271 -753zm-1592 -456l-57 -12 -107 -21 -108 -20 -108 -19 -108 -18 -109 -17 -109 -16 -113 -16 -98 794 -4 0 102 14 101 15 101 16 101 17 100 18 100 19 100 20 57 12 159 -784zm-1643 -218l-59 -3 -112 -6 -112 -4 -113 -3 -113 -2 -113 -1 -113 0 -92 1 12 800 84 -1 106 0 105 1 105 2 105 3 105 4 104 5 59 3 43 -799zm-1657 21l-108 10 -116 11 -116 12 -116 14 -116 15 -116 16 -116 17 -17 3 128 790 118 -18 108 -15 108 -14 108 -13 108 -12 108 -11 108 -10 -74 -797zm-1634 251l-105 24 -117 28 -118 29 -118 30 -118 32 -118 33 -103 30 226 767 96 -28 110 -31 110 -30 110 -28 110 -27 110 -26 105 -24 -182 -779zm-15473 21275l49 -55 43 -48 42 -49 42 -49 41 -50 41 -50 40 -51 40 -51 39 -52 39 -52 38 -53 38 -53 37 -54 -659 -453 -33 47 -33 46 -34 46 -34 46 -34 45 -35 45 -35 44 -36 44 -36 44 -36 43 -37 43 -37 42 -44 49 592 538zm-12419 -2548l15 57 19 69 20 68 21 68 21 67 22 67 22 66 23 66 24 65 24 65 25 64 26 64 9 21 738 -310 -5 -13 -22 -56 -22 -56 -21 -57 -21 -57 -20 -58 -20 -58 -19 -59 -19 -59 -18 -59 -18 -60 -17 -60 -15 -57 -771 212zm648 1570l34 58 34 57 35 56 35 56 36 55 36 55 37 54 37 54 38 53 38 53 39 52 39 52 45 58 623 -502 0 0 -35 -44 -34 -45 -34 -45 -33 -46 -33 -46 -32 -47 -32 -47 -32 -47 -31 -48 -31 -48 -30 -49 -30 -49 -30 -51 -691 403zm1058 1341l25 24 46 44 47 43 47 42 48 42 48 41 48 41 49 40 49 40 49 39 50 39 50 38 51 38 45 33 471 -647 -39 -28 -44 -33 -44 -34 -44 -34 -43 -35 -43 -35 -43 -35 -42 -36 -42 -36 -42 -37 -41 -37 -41 -37 -40 -38 -25 -24 -550 581zm1371 1003l33 18 55 30 56 29 56 29 56 28 57 28 57 27 57 27 57 26 58 26 58 25 58 25 58 24 47 19 300 -742 -41 -17 -52 -22 -52 -22 -51 -23 -51 -23 -51 -23 -51 -24 -50 -24 -50 -25 -50 -25 -50 -26 -49 -26 -49 -26 -33 -18 -383 703zm1563 638l49 14 61 17 61 16 61 16 62 15 62 15 62 14 62 14 62 13 62 13 62 12 62 12 63 11 29 5 131 -789 -23 -4 -56 -10 -56 -11 -56 -11 -56 -11 -56 -12 -56 -12 -56 -13 -56 -13 -55 -14 -55 -14 -55 -14 -55 -15 -49 -14 -212 771zm1654 284l21 1 64 4 64 3 64 3 64 2 64 2 64 1 64 1 64 0 64 0 64 0 64 -1 64 -1 54 -2 -27 -800 -48 1 -58 1 -58 1 -58 0 -58 0 -58 0 -58 -1 -58 -1 -58 -2 -58 -2 -58 -3 -58 -3 -57 -4 -21 -1 -52 798zm1678 -56l59 -8 63 -9 63 -10 63 -10 63 -11 63 -11 63 -12 63 -12 62 -13 62 -13 62 -14 62 -14 62 -15 17 -4 -192 -777 -66 16 -56 13 -56 12 -56 12 -56 11 -56 11 -57 10 -57 10 -57 10 -57 9 -57 9 -57 8 -59 8 112 792zm1632 -394l29 -10 60 -22 59 -22 59 -23 59 -23 59 -24 59 -24 58 -25 58 -25 58 -26 58 -26 58 -27 57 -27 46 -22 -352 -718 -40 19 -51 24 -51 24 -52 23 -52 23 -52 23 -52 22 -52 22 -53 21 -53 21 -53 20 -53 20 -53 20 -29 10 272 752zm1517 -744l42 -27 53 -35 53 -36 52 -36 52 -37 52 -37 51 -38 51 -38 51 -39 50 -39 50 -40 50 -40 49 -41 28 -23 -518 -610 -22 18 -43 36 -44 35 -44 35 -44 34 -45 34 -45 34 -45 33 -46 33 -46 32 -46 32 -46 31 -47 31 -42 27 439 669zm-25657 5304l-54 -121 -53 -120 -52 -120 -52 -121 -51 -121 -50 -121 -739 305 52 125 53 125 53 125 54 124 55 124 54 121 731 -325zm25764 11312l-118 49 -142 58 -142 57 -142 56 -142 55 -44 17 281 749 49 -19 147 -57 147 -58 147 -59 147 -60 118 -49 -306 -739zm-2973 1005l-97 25 -139 34 -138 33 -138 32 -138 31 -114 25 167 782 120 -26 144 -32 144 -33 144 -35 144 -36 97 -25 -195 -776zm-3087 529l-148 12 -134 10 -134 9 -133 8 -133 7 -99 4 33 799 105 -5 139 -7 139 -8 140 -9 140 -10 154 -13 -68 -797zm-3125 -5l-42 -4 -128 -12 -128 -13 -128 -14 -127 -15 -127 -16 -97 -13 -109 793 103 14 133 17 133 16 134 15 134 14 134 13 42 4 74 -797zm-3073 -559l-90 -25 -121 -35 -121 -35 -120 -36 -120 -37 -120 -38 -58 -19 -249 760 63 20 125 40 125 39 126 38 126 37 126 36 90 25 217 -770zm-2931 -1091l-88 -42 -113 -54 -112 -55 -112 -56 -112 -57 -111 -57 -54 -28 -374 707 59 31 116 60 116 59 117 58 117 58 117 57 88 42 346 -721zm-2713 -1566l-80 -55 -103 -72 -103 -73 -102 -74 -102 -74 -101 -75 -46 -35 -481 639 50 38 105 78 106 77 106 76 107 76 107 75 80 55 457 -657zm-2442 -1970l-88 -83 -92 -88 -92 -88 -91 -89 -91 -89 -90 -90 -20 -20 -570 562 23 23 94 93 94 93 95 92 95 92 96 91 88 83 550 -581zm-2139 -2303l-31 -38 -81 -101 -80 -101 -80 -102 -79 -102 -79 -103 -56 -74 -639 481 59 78 81 106 82 105 82 105 83 105 83 104 31 38 623 -502zm-1813 -2571l-73 -120 -67 -112 -67 -112 -66 -112 -65 -113 -62 -109 -695 396 65 113 68 117 68 116 69 116 69 115 75 123 682 -417zm4285 -29967c5511,-5352 11339,-7884 16393,-8195 2913,-179 5573,379 7775,1561 2213,1188 3959,3004 5033,5333 1422,3084 1659,7062 227,11662 -11,40 -28,78 -51,113l0 0c-2,2 -3,5 -5,7l-1 1c-2,2 -3,5 -5,7l-1 1c-2,2 -3,4 -5,7l-1 1c-2,2 -4,5 -5,7l0 0c-59,73 -144,126 -244,143 -103,18 -204,-6 -286,-59l0 0c-2,-2 -5,-3 -7,-5l-1 -1c-2,-2 -5,-3 -7,-5l-1 -1c-2,-2 -4,-3 -7,-5l-1 -1c-2,-2 -5,-4 -7,-5l0 0c-73,-59 -126,-144 -143,-244 -345,-1983 -993,-3738 -1884,-5263 -1783,-3055 -4540,-5193 -7774,-6407 -3252,-1221 -6987,-1511 -10706,-865 -2681,466 -5353,1420 -7828,2865 -191,111 -436,47 -547,-144 -100,-171 -58,-385 89,-508zm29086 8591c883,-3747 575,-6990 -609,-9558 -999,-2168 -2625,-3858 -4686,-4964 -2072,-1112 -4586,-1637 -7350,-1467 -4217,259 -9006,2135 -13691,6003 1759,-753 3578,-1288 5402,-1605 3854,-670 7733,-366 11119,905 3404,1278 6306,3530 8186,6751 690,1182 1241,2494 1629,3935zm-5674 7821c-88,202 -323,294 -525,206 -155,-68 -245,-222 -239,-381 -11,-961 -138,-1835 -361,-2625 -542,-1915 -1659,-3319 -3071,-4240 -1422,-928 -3146,-1370 -4887,-1353 -883,9 -1772,136 -2631,379 -3356,950 -5686,4744 -6190,8729 -210,1660 -101,3350 385,4878 481,1512 1331,2867 2608,3875 2837,2241 7799,2798 15523,-333 4061,-1646 8665,-3275 13042,-3062 4427,216 8584,2300 11655,8101 97,168 59,387 -98,512 -173,137 -424,109 -561,-64 -3433,-4315 -6799,-5716 -10127,-5470 -3365,249 -6737,2170 -10110,4479 -4957,3392 -9611,4914 -13725,5054 -3848,131 -7222,-946 -9930,-2835 -2707,-1888 -4745,-4586 -5925,-7697 -1242,-3275 -1533,-7007 -650,-10733 1698,-7172 6791,-10727 12085,-11547 2271,-352 4577,-199 6668,388 2101,590 3989,1620 5410,3020 2567,2529 3609,6239 1654,10717zm-130 -2016c906,-3362 -73,-6151 -2083,-8132 -1323,-1303 -3091,-2265 -5066,-2820 -1986,-558 -4176,-703 -6330,-369 -5004,775 -9819,4143 -11429,10941 -845,3569 -568,7140 619,10271 1124,2963 3062,5531 5634,7325 2572,1794 5781,2817 9448,2691 3969,-136 8477,-1616 13300,-4917 3472,-2376 6957,-4354 10504,-4616 2523,-187 5054,491 7597,2499 -2486,-2737 -5401,-3836 -8447,-3985 -4218,-206 -8723,1392 -12704,3006 -8038,3258 -13271,2623 -16317,217 -1410,-1114 -2347,-2602 -2874,-4260 -522,-1642 -640,-3449 -416,-5219 540,-4275 3085,-8356 6765,-9398 922,-261 1882,-398 2840,-407 1893,-18 3771,466 5328,1481 1567,1022 2806,2577 3405,4693 91,320 166,653 226,999zm8031 3190c-594,757 -1269,1324 -1985,1683 2802,362 6003,37 8816,-1020 2923,-1098 5416,-2985 6577,-5709 914,-2143 160,-4354 -1316,-5846 -730,-737 -1634,-1299 -2600,-1590 -954,-288 -1968,-312 -2931,20 -1942,669 -3700,2793 -4411,7117 -371,2256 -1150,4072 -2150,5344z"></path></g></svg>