<svg height='100px' width='100px'  fill="#000000" xmlns="http://www.w3.org/2000/svg" data-name="Layer 1" viewBox="0 0 24 24" x="0px" y="0px"><title>Constructor tool, garage tool, repair tool, screw driver, turnscrew</title><polygon points="5 6.41 8.29 9.71 9.71 8.29 6.41 5 7.69 3.73 3.8 1.78 1.78 3.8 3.73 7.69 5 6.41"></polygon><path d="M18.71,13.29l-1.41,1.41,3,3a1.83,1.83,0,0,1-2.59,2.59l-4-4-1.41,1.41,4,4a3.83,3.83,0,0,0,5.41-5.41Z"></path><path d="M19.21,12.18A5.56,5.56,0,0,0,22,7.34a5.39,5.39,0,0,0-.66-2.45l-.67-1.2L17.57,7H17V6.39l3.06-3.27-1.22-.59A5.43,5.43,0,0,0,16.34,2a5.13,5.13,0,0,0-3.48,1.62c-1.84,1.87-2,3.46-1.78,4.72L2.62,16.79A3.12,3.12,0,0,0,7,21.21l8.34-8.34A4.94,4.94,0,0,0,19.21,12.18Z"></path></svg>