<svg height='100px' width='100px'  fill="#000000" xmlns="http://www.w3.org/2000/svg" xmlns:xlink="http://www.w3.org/1999/xlink" version="1.1" x="0px" y="0px" viewBox="0 0 100 100" style="enable-background:new 0 0 100 100;" xml:space="preserve"><g><path d="M62.5,75.7c-0.3-1.5-1.8-2.6-3.7-2.6H41.2c-1.8,0-3.4,1.1-3.7,2.6l-0.1,0l0,0.5l0,0.1l0,0c0.1,5.8,5.7,10.6,12.5,10.6   c6.9,0,12.5-4.8,12.5-10.6L62.5,75.7L62.5,75.7z"></path><path d="M38.7,67.2c-0.2-2-1.8-3.7-3.9-3.8c-2.3-0.1-3.9,1.8-4.4,3.8c-0.4,1.7,2.2,2.4,2.6,0.7c0.2-0.8,0.6-1.8,1.6-1.8   c0.6,0,1.3,0.5,1.4,1.1C36.2,68.9,38.9,68.9,38.7,67.2z"></path><path d="M65.2,63.4c-2.1,0.1-3.6,1.8-3.9,3.8c-0.2,1.7,2.5,1.7,2.7,0c0.1-0.6,0.8-1.2,1.4-1.1c0.9,0,1.4,1.1,1.6,1.8   c0.4,1.7,3,1,2.6-0.7C69.1,65.1,67.5,63.2,65.2,63.4z"></path><path d="M80.9,57.8h-0.1c0.9-1.2,1.4-2.6,1.4-4.2v-0.3c0-3.6-2.7-6.5-6.2-6.9c1-1.2,1.6-2.7,1.6-4.4v-0.3c0-3.8-3.1-6.9-6.9-6.9   h-1.5c1-1.2,1.5-2.7,1.5-4.3v-0.3c0-3.8-3.1-6.9-6.9-6.9h-3.3L50.1,6.3L39.7,23.4h-3.5c-3.8,0-6.9,3.1-6.9,6.9v0.3   c0,1.6,0.6,3.2,1.5,4.3h-1.5c-3.8,0-6.9,3.1-6.9,6.9v0.3c0,1.7,0.6,3.2,1.6,4.4c-3.5,0.4-6.2,3.3-6.2,6.9v0.3c0,1.6,0.5,3,1.4,4.2   h-0.1c-2,0-3.7,1.6-3.7,3.7v0.1l5.7,28.6c0.1,1.9,1.7,3.5,3.7,3.5h50.5c2,0,3.6-1.6,3.7-3.5l5.7-28.6v-0.1   C84.6,59.5,82.9,57.8,80.9,57.8z M20.6,53.4c0-2.3,1.9-4.2,4.2-4.2h30.9v-3H29.3c-2.3,0-4.2-1.9-4.2-4.2v-0.3   c0-2.3,1.9-4.2,4.2-4.2h8v-3h-1.1c-2.3,0-4.2-1.9-4.2-4.2v-0.3c0-2.3,1.9-4.2,4.2-4.2h13.2v-3.1h-6.3l6.9-11.5l5.4,9l3.5,5.6h4.8   c2.3,0,4.2,1.9,4.2,4.2v0.3c0,2.3-1.9,4.2-4.2,4.2H50.9v3h19.7c2.3,0,4.2,1.9,4.2,4.2v0.3c0,2.3-1.9,4.2-4.2,4.2h-1.5v3h6.1   c2.3,0,4.2,1.9,4.2,4.2v0.3c0,2.3-1.9,4.2-4.2,4.2H24.7c-2.3,0-4.2-1.9-4.2-4.2V53.4z M76.1,90v0.1c0,0.5-0.4,0.9-0.9,0.9H24.8   c-0.5,0-0.9-0.4-0.9-0.9V90l-5.7-28.6c0.1-0.4,0.4-0.8,0.9-0.8h5.7h50.5h5.7c0.5,0,0.8,0.3,0.9,0.8L76.1,90z"></path></g></svg>