<svg height='100px' width='100px'  fill="#000000" xmlns="http://www.w3.org/2000/svg" xmlns:xlink="http://www.w3.org/1999/xlink" version="1.1" x="0px" y="0px" viewBox="0 0 64 64" style="enable-background:new 0 0 64 64;" xml:space="preserve"><g><rect x="41" y="18" width="2" height="2"></rect><rect x="53" y="18" width="2" height="2"></rect><rect x="47" y="18" width="2" height="2"></rect><path d="M63,19c0-2.68-2.125-4.858-4.776-4.977C58.713,13.302,59,12.434,59,11.5C59,9.019,56.981,7,54.5,7h-0.28   C53.67,6.391,52.883,6,52,6c-0.804,0-1.516-0.482-1.814-1.229L48.677,1h-1.954l-3.999,2.398C41.661,4.038,41,5.205,41,6.446   c0,0.205,0.027,0.403,0.06,0.599C38.788,7.269,37,9.169,37,11.5c0,0.934,0.287,1.802,0.776,2.523C35.125,14.142,33,16.32,33,19   c0,1.254,0.47,2.426,1.289,3.33C33.494,23.125,33,24.211,33,25.409v0.762c0,0.324,0.037,0.648,0.108,0.962l4.177,18.31   C37.629,46.948,38.967,48,40.539,48h14.923c1.571,0,2.909-1.052,3.253-2.557l4.177-18.309C62.963,26.819,63,26.496,63,26.171   v-0.762c0-1.198-0.494-2.284-1.289-3.08C62.53,21.426,63,20.254,63,19z M41.5,9h0.593c0.639,0.616,1.505,1,2.461,1H46V8h-1.446   C43.697,8,43,7.303,43,6.446c0-0.542,0.289-1.053,0.754-1.333L47.277,3l1.052,2.515C48.933,7.024,50.374,8,52,8   c0.551,0,1,0.449,1,1s-0.449,1-1,1h-2v2h2c1.637,0,2.967-1.319,2.995-2.95C56.137,9.28,57,10.291,57,11.5   c0,1.378-1.122,2.5-2.5,2.5h-13c-1.378,0-2.5-1.122-2.5-2.5S40.122,9,41.5,9z M38,16h3.5h13H58c1.654,0,3,1.346,3,3   c0,0.881-0.403,1.684-1.068,2.25C59.48,21.1,59.004,21,58.5,21c-1.421,0-2.675,0.661-3.5,1.672C54.175,21.661,52.921,21,51.5,21   s-2.675,0.661-3.5,1.672C47.175,21.661,45.921,21,44.5,21s-2.675,0.661-3.5,1.672C40.175,21.661,38.921,21,37.5,21   c-0.504,0-0.98,0.1-1.432,0.25C35.403,20.684,35,19.881,35,19C35,17.346,36.346,16,38,16z M39.236,44.998l-4.178-18.311   C35.02,26.519,35,26.345,35,26.171v-0.762C35,24.081,36.122,23,37.5,23s2.5,1.081,2.5,2.409v1.136l1.432,12.614l1.987-0.227   L42,26.489v-1.08C42,24.081,43.122,23,44.5,23s2.5,1.081,2.5,2.409v1.136V46h-2.774l-0.547-4.795l-1.987,0.227L42.213,46h-1.674   C39.916,46,39.368,45.579,39.236,44.998z M61,26.171c0,0.174-0.02,0.347-0.059,0.517l-4.177,18.31   C56.632,45.579,56.084,46,55.461,46h-1.674l1.688-14.796l-1.987-0.227L51.774,46H49V26.545v-1.136C49,24.081,50.122,23,51.5,23   s2.5,1.081,2.5,2.409v1.08l-0.253,2.216l1.987,0.227l0.259-2.273l0.001-0.113H56v-1.136C56,24.081,57.122,23,58.5,23   s2.5,1.081,2.5,2.409V26.171z"></path><rect x="9" y="33" width="2" height="2"></rect><rect x="21" y="33" width="2" height="2"></rect><rect x="15" y="33" width="2" height="2"></rect><path d="M26.224,29.023C26.713,28.302,27,27.434,27,26.5c0-0.977-0.317-1.906-0.884-2.671C26.671,23.023,27,22.05,27,21   c0-2.428-1.741-4.453-4.04-4.903c-0.193-3.137-1.373-6.154-3.393-8.579L17.768,5.36l-1.536,1.28l1.799,2.159   c1.724,2.069,2.743,4.638,2.93,7.313c-1.406,0.299-2.578,1.199-3.276,2.408L16.677,16h-1.954l-3.999,2.398   C9.661,19.038,9,20.205,9,21.446c0,0.205,0.027,0.403,0.06,0.599C6.788,22.269,5,24.169,5,26.5c0,0.934,0.287,1.802,0.776,2.523   C3.125,29.142,1,31.32,1,34c0,1.254,0.47,2.426,1.289,3.329C1.494,38.125,1,39.21,1,40.409v0.762c0,0.324,0.037,0.648,0.108,0.963   l4.177,18.31C5.629,61.948,6.967,63,8.539,63h14.923c1.571,0,2.909-1.052,3.253-2.557l4.177-18.309   C30.963,41.819,31,41.495,31,41.171v-0.762c0-1.199-0.494-2.284-1.288-3.08C30.531,36.426,31,35.254,31,34   C31,31.32,28.875,29.142,26.224,29.023z M22,18c1.654,0,3,1.346,3,3s-1.346,3-3,3s-3-1.346-3-3S20.346,18,22,18z M9.5,24h0.593   c0.639,0.616,1.505,1,2.461,1H14v-2h-1.446C11.697,23,11,22.303,11,21.446c0-0.542,0.289-1.053,0.754-1.333L15.277,18l1.052,2.514   c0.17,0.425,0.434,0.805,0.738,1.147C17.394,24.103,19.47,26,22,26c0.97,0,1.869-0.29,2.637-0.77C24.864,25.611,25,26.043,25,26.5   c0,1.378-1.122,2.5-2.5,2.5h-13C8.122,29,7,27.878,7,26.5S8.122,24,9.5,24z M6,31h3.5h13H26c1.654,0,3,1.346,3,3   c0,0.881-0.403,1.684-1.067,2.25C27.48,36.1,27.004,36,26.5,36c-1.421,0-2.675,0.661-3.5,1.672C22.175,36.661,20.921,36,19.5,36   s-2.675,0.661-3.5,1.672C15.175,36.661,13.921,36,12.5,36S9.825,36.661,9,37.672C8.175,36.661,6.921,36,5.5,36   c-0.504,0-0.98,0.1-1.433,0.25C3.403,35.684,3,34.881,3,34C3,32.346,4.346,31,6,31z M7.236,59.998l-4.178-18.31   C3.02,41.52,3,41.345,3,41.171v-0.762C3,39.081,4.122,38,5.5,38S8,39.081,8,40.409v1.137l1.432,12.613l1.987-0.227L10,41.489v-1.08   C10,39.081,11.122,38,12.5,38s2.5,1.081,2.5,2.409v1.137V61h-2.774l-0.547-4.795l-1.987,0.227L10.213,61H8.539   C7.916,61,7.368,60.579,7.236,59.998z M29,41.171c0,0.174-0.02,0.349-0.059,0.518l-4.177,18.31C24.632,60.579,24.084,61,23.461,61   h-1.674l1.688-14.796l-1.987-0.227L19.774,61H17V41.546v-1.137C17,39.081,18.122,38,19.5,38s2.5,1.081,2.5,2.409v1.08l-0.253,2.216   l1.987,0.227l0.259-2.272l0.001-0.113H24v-1.137C24,39.081,25.122,38,26.5,38s2.5,1.081,2.5,2.409V41.171z"></path></g></svg>