<svg height='100px' width='100px'  fill="#000000" xmlns="http://www.w3.org/2000/svg" xmlns:xlink="http://www.w3.org/1999/xlink" xml:space="preserve" version="1.1" style="shape-rendering:geometricPrecision;text-rendering:geometricPrecision;image-rendering:optimizeQuality;" viewBox="0 0 847 847" x="0px" y="0px" fill-rule="evenodd" clip-rule="evenodd"><defs><style type="text/css">
   
    .fil0 {fill:#000000}
   
  </style></defs><g><path class="fil0" d="M653 596c3,135 -96,230 -230,230 -127,0 -230,-103 -230,-230 4,-120 200,-354 231,-575 31,221 229,461 229,575zm-104 -26c16,109 -41,155 -97,125 -42,-35 17,-108 13,-186 2,-127 -25,-190 -46,-307 -31,111 -162,276 -175,393 1,107 78,180 180,180 108,0 186,-71 180,-179 -11,-119 -136,-272 -176,-396 25,140 110,269 121,370z"></path></g></svg>