<?xml version="1.0" encoding="utf-8"?>
<!-- Generator: Adobe Illustrator 24.2.1, SVG Export Plug-In . SVG Version: 6.00 Build 0)  -->
<svg version="1.1"
	 id="Layer_1" xmlns:cc="http://creativecommons.org/ns#" xmlns:dc="http://purl.org/dc/elements/1.1/" xmlns:inkscape="http://www.inkscape.org/namespaces/inkscape" xmlns:rdf="http://www.w3.org/1999/02/22-rdf-syntax-ns#" xmlns:sodipodi="http://sodipodi.sourceforge.net/DTD/sodipodi-0.dtd" xmlns:svg="http://www.w3.org/2000/svg"
	 xmlns="http://www.w3.org/2000/svg" xmlns:xlink="http://www.w3.org/1999/xlink" x="0px" y="0px" viewBox="0 0 100 100"
	 enable-background="new 0 0 100 100" xml:space="preserve">
<g>
	<path d="M68.5,16.5c-1.7,0-3.1,1.4-3.1,3.1c0,0.3,0,0.6,0.1,0.8l3.7,13.8H40.1l-1.9-7.1c-0.4-1.4-1.6-2.3-3-2.3H23.5
		c-1.7,0-3.1,1.5-3.1,3.2c0,1.7,1.4,3,3.1,3.1h9.3l1.3,4.8l-6.8,10.6c-2.4-1.1-5-1.7-7.8-1.7C8.7,44.7,0,53.5,0,64.1
		s8.7,19.4,19.4,19.4c9.5,0,17.4-6.8,19.1-15.8h6.3c0.1,0,0.3,0,0.4,0c1.2,0,2.4-0.7,2.9-1.8l23.3-23.5l1.1,4.1
		c-6.7,3.1-11.4,9.8-11.4,17.6c0,10.7,8.7,19.4,19.4,19.4c10.7,0,19.4-8.7,19.4-19.4s-8.7-19.4-19.4-19.4c-0.7,0-1.3,0-2,0.1
		l-5.9-22.1h10.8c1.3,0,2.3,1,2.3,2.3c0,1.3-1,2.3-2.3,2.3h-2.6c-1.7,0-3.1,1.4-3.1,3.1c0,1.7,1.4,3.1,3.1,3.1h2.6
		c4.7,0,8.6-3.9,8.6-8.6s-3.9-8.6-8.6-8.6L68.5,16.5z M41.8,40.4h22.8l-18,18.1L41.8,40.4z M36.3,43.9L41,61.5h-2.3
		c-0.6-4.6-2.9-8.7-6.1-11.6L36.3,43.9z M19.4,51c1.5,0,3,0.3,4.4,0.8l-7.2,11.1c-0.9,1.5-0.5,3.4,1,4.3c0.5,0.3,1.1,0.5,1.7,0.5H32
		c-1.6,5.5-6.6,9.6-12.6,9.6c-7.3,0-13.2-5.8-13.2-13.1C6.3,56.8,12.1,51,19.4,51z M80.6,51c7.3,0,13.2,5.9,13.2,13.2
		c0,7.3-5.9,13.1-13.2,13.1c-7.3,0-13.2-5.8-13.2-13.1c0-5,2.7-9.2,6.8-11.5l2.9,10.9c0.4,1.7,2.1,2.7,3.8,2.3
		c1.7-0.4,2.7-2.1,2.3-3.8c0-0.1,0-0.1,0-0.2L80.2,51C80.3,51,80.4,51,80.6,51z M29,55.2c1.6,1.7,2.8,3.9,3.3,6.3H25L29,55.2z"/>
</g>
</svg>
