<svg height='100px' width='100px'  fill="#000000" xmlns="http://www.w3.org/2000/svg" xmlns:xlink="http://www.w3.org/1999/xlink" version="1.1" x="0px" y="0px" viewBox="0 0 100 100" style="enable-background:new 0 0 100 100;" xml:space="preserve"><path d="M52.8457031,69.8198242c5.2568359,0,10.5136719-1.9980469,14.5166016-5.9946289l8.7666016-8.7543945  c1.5771484-1.5756836,2.3261719-3.753418,2.0546875-5.9755859c-0.0605469-0.5019531-0.4863281-0.8789062-0.9921875-0.8789062  h-2.1767578l0.1738281-0.2480469c0.9990234-1.4272461,0.8242188-3.3535156-0.4199219-4.5844727l-7.3842163-7.2081909  c-0.0002441-0.0002441-0.0003052-0.0005493-0.0005493-0.0007935c-0.0012207-0.0012207-0.0025635-0.0021973-0.0037842-0.003418  L67.375,36.1665039c-0.0004272-0.0004272-0.0010376-0.0004883-0.0014648-0.0009155  c-8.0037231-7.9802856-21.0137329-7.9812012-29.0157471,0.0036011c-0.0001221,0.0001221-0.0002441,0.0001221-0.0003662,0.0002441  l-0.0010376,0.0010376c-0.0015259,0.0015259-0.0032959,0.0028076-0.0048218,0.0043335  c-0.0003052,0.0003052-0.0004272,0.0008545-0.0007324,0.0011597l-5.1965332,5.1116333  c-0.4394531,0.4379883-0.8427734,0.9067383-1.2089844,1.4018555c-0.1796875-0.2539062-0.3759766-0.487793-0.5888672-0.7006836  c-2.8544922-2.8500977-8.3320312-1.7255859-8.5634766-1.6782227c-0.3867188,0.0820312-0.6884766,0.3842773-0.7714844,0.7705078  c-0.0488281,0.2319336-1.1728516,5.7055664,1.6806641,8.5537109c0.1171875,0.1171875,0.2412109,0.2299805,0.3710938,0.3369141  c-0.1298828,0.1074219-0.2539062,0.2192383-0.3710938,0.3364258c-2.8535156,2.8491211-1.7294922,8.3227539-1.6806641,8.5541992  c0.0830078,0.3862305,0.3847656,0.6884766,0.7714844,0.7700195c0.2314453,0.0498047,5.7099609,1.1733398,8.5634766-1.6772461  c0.2128906-0.2128906,0.4091797-0.4467773,0.5888672-0.7011719c0.3662109,0.4951172,0.7695312,0.9638672,1.2080078,1.4018555  l5.1757812,5.1694336C42.3320312,67.8217773,47.5888672,69.8198242,52.8457031,69.8198242z M73.5498047,46.8217773  l-1.2744141,1.8212891c-0.2138672,0.3051758-0.2402344,0.7045898-0.0673828,1.0351562  c0.171875,0.3305664,0.5136719,0.5380859,0.8867188,0.5380859h3.1386719  c-0.0566406,1.2910156-0.5878906,2.5107422-1.5185547,3.4394531l-8.7666016,8.7543945  c-0.2670898,0.2668457-0.5523682,0.5033569-0.8314209,0.7504883L60.375,58.4257812  c-2.2617188-2.2583008-3.5068359-5.2602539-3.5068359-8.4541016c0-3.1933594,1.2451172-6.1953125,3.5068359-8.4536133  l4.722168-4.7156982c0.293457,0.2582397,0.5922241,0.5075073,0.8725586,0.7874756  c0.001709,0.001709,0.0040283,0.0021362,0.0057373,0.0037842c0.0013428,0.0013428,0.001709,0.0031738,0.0030518,0.0045166  l7.3886719,7.2124023C73.9111328,45.3491211,73.9882812,46.1948242,73.5498047,46.8217773z M32.7333984,54.7592773  c-0.1865234-0.3535156-0.5722656-0.5668945-0.9648438-0.5302734c-0.3984375,0.0317383-0.7402344,0.2983398-0.8671875,0.6777344  c-0.2275391,0.6757812-0.5507812,1.2255859-0.9589844,1.6333008c-1.6054688,1.6054688-4.7167969,1.4150391-6.0761719,1.2402344  c-0.2119141-1.6118164-0.2451172-4.5649414,1.25-6.0571289c0.3349609-0.3349609,0.7666016-0.6137695,1.2832031-0.828125  c0.3730469-0.1547852,0.6162109-0.5195312,0.6162109-0.9238281s-0.2441406-0.7685547-0.6171875-0.9233398  c-0.515625-0.2133789-0.9472656-0.4916992-1.2832031-0.8276367c-1.6064453-1.6044922-1.4169922-4.7080078-1.2412109-6.0639648  c1.6113281-0.2114258,4.5722656-0.2460938,6.0683594,1.2475586c0.4082031,0.4077148,0.7314453,0.9575195,0.9589844,1.6333008  c0.1269531,0.3793945,0.46875,0.6459961,0.8671875,0.6777344c0.3916016,0.0317383,0.7783203-0.1767578,0.9648438-0.5302734  c0.4814453-0.9125977,1.0986328-1.7475586,1.828125-2.4765625l5.1982422-5.112793  c0.0007935-0.0007935,0.0010376-0.0018921,0.0018311-0.0026855c0.0012207-0.0011597,0.0028076-0.0015259,0.0040283-0.0026855  c6.456543-6.4482422,16.5256958-7.1160278,23.7514038-2.0366821l-4.5560913,4.5498657  c-2.6386719,2.6357422-4.0927734,6.140625-4.0927734,9.8686523c0,3.7285156,1.4541016,7.2333984,4.0927734,9.8691406  l4.579834,4.5731201c-7.2283936,5.114563-17.3265991,4.4584351-23.7976074-2.0037842l-5.1767578-5.1694336  C33.8310547,56.5063477,33.2138672,55.6713867,32.7333984,54.7592773z"></path><path d="M61.7597656,46.6533203c0,0.5522461,0.4472656,1,1,1s1-0.4477539,1-1c0-0.9194336,0.75-1.6674805,1.6708984-1.6674805  s1.6708984,0.7480469,1.6708984,1.6674805c0,0.5522461,0.4472656,1,1,1s1-0.4477539,1-1  c0-2.0224609-1.6464844-3.6674805-3.6708984-3.6674805S61.7597656,44.6308594,61.7597656,46.6533203z"></path><path d="M33.1386719,89.7070312C33.3261719,89.8945312,33.5800781,90,33.8457031,90h32.3085938  c0.265625,0,0.5195312-0.1054688,0.7070312-0.2929688l22.8457031-22.8457031C89.8945312,66.6738281,90,66.4194336,90,66.1542969  V33.8457031c0-0.2651367-0.1054688-0.5195312-0.2929688-0.7070312L66.8613281,10.2929688  C66.6738281,10.1054688,66.4199219,10,66.1542969,10H33.8457031c-0.265625,0-0.5195312,0.1054688-0.7070312,0.2929688  L10.2929688,33.1386719C10.1054688,33.3261719,10,33.5805664,10,33.8457031v32.3085938  c0,0.2651367,0.1054688,0.5195312,0.2929688,0.7070312L33.1386719,89.7070312z M12,34.2597656L34.2597656,12h31.4804688  L88,34.2597656v31.4804688L65.7402344,88H34.2597656L12,65.7402344V34.2597656z"></path></svg>