<svg height='100px' width='100px'  fill="#000000" xmlns="http://www.w3.org/2000/svg" xmlns:xlink="http://www.w3.org/1999/xlink" version="1.1" x="0px" y="0px" viewBox="-55 147 500 500" style="enable-background:new -55 147 500 500;" xml:space="preserve"><g><path d="M440.5,310.9L198.1,202.7c-1.9-0.9-4.2-0.9-6.1,0L-50.5,310.9c-2.7,1.2-4.5,3.9-4.5,6.9v266.6c0,4.2,3.4,7.6,7.5,7.6h484.9   c4.2,0,7.5-3.4,7.5-7.6V317.9C445,314.9,443.2,312.2,440.5,310.9z M104.3,573.2c0,1.1-0.1,2-0.3,2.7H87.1c-0.2-0.7-0.3-1.6-0.3-2.7   v-18.8c2.6,0.3,5.5,0.5,8.8,0.5h8.6L104.3,573.2L104.3,573.2z M120.1,576.8c0.1-1.2,0.2-2.4,0.2-3.7v-18.4h149.3v18.4   c0,1.3,0.1,2.5,0.2,3.7H120.1z M303.1,573.2c0,1.1-0.1,2-0.3,2.7h-16.9c-0.2-0.7-0.3-1.6-0.3-2.7v-18.4h8.6c3.3,0,6.2-0.2,8.8-0.5   L303.1,573.2L303.1,573.2z M311.5,531.3c-2.3,5.2-3.3,7.6-17.3,7.6H95.7c-14,0-15-2.4-17.3-7.6c-3.7-8.4-3.4-38.5-1.3-53.8   c0.7-5.1,7.2-14.4,12.5-21.9l1.1-1.6c1.4-2,3.9-7.1,9.9-19.1c4.3-8.7,9.1-18.5,11.3-22.2c8.3-14,15.2-21.2,17.8-22.6   c4.8-1.7,32-3.5,65.4-3.5s60.6,1.8,65.4,3.5c2.5,1.4,9.5,8.6,17.8,22.6c2.2,3.7,7,13.5,11.3,22.2c5.9,12.1,8.5,17.2,9.9,19.1   l1.1,1.6c5.2,7.5,11.8,16.8,12.5,21.9C315,492.7,315.2,522.8,311.5,531.3z M381.3,576.8h-62.5c0.1-1.2,0.2-2.4,0.2-3.7v-24.9   c3.1-2.7,5.3-6.3,7.1-10.6c6-13.8,4.2-49.7,2.5-62.3c-1.2-8.9-8.3-19.1-15.2-28.9l-1-1.5c-1-1.6-5.3-10.2-8.7-17.1   c-4.6-9.4-9.4-19.1-11.9-23.3l0,0c-4.2-7.1-15-24.1-24.5-28.8c-9.8-4.9-62-5.1-72.4-5.1s-62.6,0.2-72.4,5.1   c-9.5,4.7-20.3,21.7-24.5,28.8c-2.5,4.2-7.3,13.9-11.9,23.3c-3.4,6.9-7.6,15.5-8.6,17l-1.1,1.6c-6.9,9.8-14,20-15.2,28.9   c-1.7,12.6-3.5,48.5,2.5,62.3c1.9,4.3,4,7.9,7.1,10.6v24.9c0,1.3,0.1,2.5,0.2,3.7H8.7V350h372.6L381.3,576.8L381.3,576.8z    M429.9,576.8h-33.6V342.4c0-4.2-3.4-7.6-7.5-7.6H1.2c-4.2,0-7.5,3.4-7.5,7.6v234.4h-33.6v-254L195,217.9l234.9,104.9V576.8z"></path><path d="M278.9,442.8c1.4-3.4,2-8.1-8.4-24.8c-2.3-3.7-10.2-16.1-15.8-19.8c-1.9-1.3-6.4-4.3-59.7-4.3c-53.4,0-57.8,3-59.7,4.3   c-5.5,3.7-13.5,16.1-15.8,19.8c-10.4,16.7-9.8,21.4-8.4,24.8c2.2,5.2,7.5,5.7,13.7,6.2c4.3,0.4,10.3,0.7,17.8,1   c13.9,0.5,32.5,0.8,52.4,0.8s38.5-0.3,52.4-0.8c7.6-0.3,13.6-0.6,17.8-1C271.4,448.5,276.7,448,278.9,442.8z M129,433.4   c4-7.4,11.3-18.4,14.7-21.5c12.3-2.7,90.3-2.7,102.6,0c3.4,3.2,10.7,14.1,14.7,21.5C234.9,435.3,155.1,435.3,129,433.4z"></path><path d="M223.3,471.9h-56.7c-15.5,0-15.5,13.1-15.5,18.7c0,18.5,6.9,30,18.1,30h51.5c11.2,0,18.1-11.5,18.1-30   C238.9,484.9,238.9,471.9,223.3,471.9z M220.1,504.5h-50.3c-1.1-1.4-2.8-6.4-2.8-14c0-1.1,0-2,0.1-2.7h55.7c0,0.6,0.1,1.5,0.1,2.7   C222.9,498.2,221.2,503.1,220.1,504.5z"></path><path d="M107,459.6c-5.5-0.6-11.1,1.2-15.3,4.8c-4.2,3.6-6.7,8.6-7,14.1c0,0.9,0,1.8,0,2.6c1.5,17,18,28.9,40,28.9h2.9   c3.9,0,7.5-1.4,10.1-3.9c4.6-4.4,5.8-11.1,3.2-18.4C136.8,475.3,122.1,461.1,107,459.6z M124.7,494c-13.4,0-23.3-5.9-24-14.3   c0,0,0-0.1,0-0.3c0.1-1.5,0.9-2.4,1.4-2.8c0.8-0.7,1.8-1.1,2.9-1.1c0.1,0,0.3,0,0.4,0c5.6,0.6,12.6,5.2,17.3,11.6   c2.2,3,3.2,5.5,3.5,7h-1.5V494z"></path><path d="M298.3,464.4c-4.2-3.6-9.8-5.4-15.3-4.8c-15.1,1.5-29.8,15.7-34,28c-2.5,7.3-1.3,14.1,3.2,18.4c2.7,2.5,6.3,3.9,10.1,3.9   h2.9c22,0,38.4-11.9,40-28.9c0.1-0.8,0.1-1.7,0-2.6C305,473,302.5,468,298.3,464.4z M289.3,479.7c-0.8,8.4-10.7,14.3-24,14.3h-1.5   c0.3-1.4,1.3-3.9,3.5-7c4.7-6.3,11.7-11,17.3-11.6c1.2-0.1,2.4,0.3,3.3,1.1c0.5,0.4,1.4,1.4,1.4,2.8l0,0   C289.4,479.5,289.3,479.6,289.3,479.7z"></path></g></svg>