<svg height='100px' width='100px'  fill="#000000" xmlns="http://www.w3.org/2000/svg" xmlns:xlink="http://www.w3.org/1999/xlink" version="1.1" x="0px" y="0px" viewBox="0 0 100 100" enable-background="new 0 0 100 100" xml:space="preserve"><g><path d="M41.621,24.544v-8.095v-1.787v-1.788c0-0.783-0.635-1.417-1.417-1.417h-4.35c-0.783,0-1.417,0.635-1.417,1.417v1.788v1.787   v8.095c0,10.233-6.699,10.233-6.699,20.468v5.448h14.292v26.654H27.736v7.049c0,2.42,1.96,4.381,4.378,4.381h11.826   c2.419,0,4.379-1.961,4.379-4.381v-39.15C48.32,34.777,41.621,34.777,41.621,24.544z"></path><path d="M72.264,53.385L72.264,53.385c-0.001-1.086-0.114-2.035-0.281-2.925H61.248h-9.063c-0.166,0.89-0.279,1.839-0.279,2.925   h0.002c0,10.934,9.34,10.934,9.34,21.861v9.92c0,1.508-1.222,2.729-2.73,2.729h-6.533v0.648h20.279v-0.648h-6.612   c-1.506,0-2.727-1.221-2.727-2.729v-9.92C62.925,64.318,72.264,64.318,72.264,53.385z"></path></g></svg>