<svg height='100px' width='100px'  fill="#000000" xmlns="http://www.w3.org/2000/svg" data-name="Layer 1" viewBox="0 0 100 100" x="0px" y="0px"><title>Artboard 9</title><path d="M96,25,85.93,20.77l-.37-.83a10.7,10.7,0,0,0-8.71-6.23l-1.48-.14L72.07,4.65a2.5,2.5,0,0,0-4.22-.79c-5.09,5.74-5.91,11.12-6,13.48a32.91,32.91,0,0,0-3.7,5.12A2.5,2.5,0,0,0,62.44,25a26.17,26.17,0,0,1,3.7-4.95,2.56,2.56,0,0,0,.71-2A13.5,13.5,0,0,1,69,10.75l2.22,6a2.5,2.5,0,0,0,2.11,1.62l3,.29A5.69,5.69,0,0,1,81,22l.78,1.73A2.5,2.5,0,0,0,83.09,25L93.9,29.53l-1.15,1.24a11,11,0,0,1-6.64,3.42l-.35,0a12,12,0,0,1-5.23-.46l-3.8-1.21a2.5,2.5,0,0,0-2.95,3.59c.32.59.61,1.18.88,1.79a10.83,10.83,0,0,1-9.37-1.81L57.09,30a29.69,29.69,0,0,0-18.32-6.36H35.21a2.54,2.54,0,0,1-2.54-2.54V20.9a2.4,2.4,0,0,1,2.4-2.39h11a8,8,0,1,0,0-16H19.92a2.5,2.5,0,0,0,0,5H46.07a3,3,0,1,1,0,6h-11a7.4,7.4,0,0,0-7.4,7.39v.15a7.55,7.55,0,0,0,7.54,7.54h3.56a24.69,24.69,0,0,1,14.4,4.7,6.3,6.3,0,0,1-5.9,4.09l-30.73,0A9.19,9.19,0,0,1,13.6,37,10.51,10.51,0,0,1,7,22.37,2.5,2.5,0,0,0,2.5,20.23,15.64,15.64,0,0,0,5.27,37.58a15.46,15.46,0,0,0,4.67,3.35,28.34,28.34,0,0,0-2,23.53L4.45,70.78A17.86,17.86,0,0,0,2.85,84l2.2,8.31a6.91,6.91,0,0,0,6.61,5.24h.07A6.8,6.8,0,0,0,18.25,89L16,80.5l8.58-4.37a14.32,14.32,0,0,0,7-7.88l1.23-3.37s.05.09.08.14l4.66,6a5.09,5.09,0,0,1-.14,6.36l-3.29,3.9a2.5,2.5,0,0,0-.46,2.4L37.09,94a2.5,2.5,0,0,0,4.74-1.58l-3-8.95,2.38-2.83A10.12,10.12,0,0,0,41.51,68l-2.14-2.77,18.39,3.62,3.45,22.67a6.47,6.47,0,0,0,6.22,5.55h0a6.37,6.37,0,0,0,6.33-5.83l1.44-18.05a35.14,35.14,0,0,1,1.93-9l7.4,7.77A4.4,4.4,0,0,1,85,77.43l-5.1,7.48a2.5,2.5,0,0,0,4.13,2.82l5.1-7.48a9.43,9.43,0,0,0-1-11.75l-8.88-9.31a28.86,28.86,0,0,0,1-20.27,17,17,0,0,0,6,.28l.35,0a16,16,0,0,0,9.66-5l1.29-1.39A4.86,4.86,0,0,0,96,25ZM70.26,72.78,68.82,90.83a1.33,1.33,0,0,1-1.35,1.23h0a1.46,1.46,0,0,1-1.31-1.3L62.44,66.35a2.5,2.5,0,0,0-2-2.08L32,58.67a2.49,2.49,0,0,0-2.83,1.6l-2.28,6.27a9.34,9.34,0,0,1-4.55,5.14L12,77a2.5,2.5,0,0,0-1.28,2.86l2.75,10.44a1.8,1.8,0,0,1-1.73,2.26A1.94,1.94,0,0,1,9.89,91l-2.2-8.31a12.88,12.88,0,0,1,1.15-9.51l4-7.33a2.69,2.69,0,0,0,.09-2.22,23.36,23.36,0,0,1,2-21.31,15,15,0,0,0,1.59.1h0l30.73,0a11.27,11.27,0,0,0,10-6l5,3.78A15.64,15.64,0,0,0,76.2,42.7a23.84,23.84,0,0,1-1.92,15.5A40.11,40.11,0,0,0,70.26,72.78Z"></path></svg>