<svg height='100px' width='100px'  fill="#000000" xmlns="http://www.w3.org/2000/svg" xmlns:xlink="http://www.w3.org/1999/xlink" version="1.1" x="0px" y="0px" viewBox="0 0 100 100" enable-background="new 0 0 100 100" xml:space="preserve"><g display="none"><path display="inline" fill="#000000" d="M828.792,474.743H-409.006c-2.084,0-3.789-1.705-3.789-3.789V-716.211   c0-2.084,1.705-3.789,3.789-3.789H828.792c2.084,0,3.789,1.705,3.789,3.789V470.954   C832.582,473.038,830.877,474.743,828.792,474.743z"></path></g><g><g><path d="M50,5C25.147,5,5,25.147,5,50c0,24.853,20.147,45,45,45s45-20.147,45-45C95,25.147,74.853,5,50,5z M82.27,52.78    c-1.03,6.93-4.98,12.69-10.71,16.57c-0.927,0.628-1.893,1.191-2.884,1.707v4.975c0,1.391-1.128,2.519-2.518,2.519h-3.426    c-1.391,0-2.518-1.128-2.518-2.519v-1.998c-5.726,1.189-11.79,0.986-17.353-0.454c-1.042-0.27-2.067-0.597-3.073-0.971v3.265    c0,1.391-1.128,2.518-2.518,2.518h-3.426c-1.391,0-2.519-1.128-2.519-2.518v-5.246c0-0.029,0.004-1.587,0.008-2.983    c-1.731-1.521-3.249-3.288-4.461-5.315c-1.43-2.39-3.78-4.13-6.58-4.68l-4.21-0.81c-1.43-0.28-2.46-1.49-2.46-2.9v-9.51    c0-1.41,1.03-2.62,2.46-2.9l4.21-0.82c2.8-0.54,5.15-2.29,6.58-4.67c0.74-1.23,1.59-2.39,2.51-3.49v-8.92    c0-1.11,1.28-1.73,2.16-1.05l4.98,3.87c4.69-2.85,10.3-4.52,16.35-4.52c15.06,0,27.49,10.31,29.4,23.66    c2.33,0.29,4.11,1.79,4.11,3.59C86.38,50.99,84.6,52.49,82.27,52.78z"></path><path d="M52.137,46.703c-4.266-1.41-5.629-2.263-5.629-3.524c0-1.131,1.307-2.263,4.238-2.263c3.227,0,5.249,0.918,6.111,1.317    c0.185,0.083,0.38,0.13,0.575,0.13c0.538,0,1.029-0.315,1.261-0.798l1.326-2.81c0.158-0.325,0.176-0.714,0.046-1.057    c-0.121-0.352-0.38-0.631-0.714-0.788c-1.595-0.751-3.329-1.233-5.286-1.465l-0.816-0.102v-2.791c0-0.76-0.621-1.382-1.391-1.382    h-3.292c-0.76,0-1.391,0.621-1.391,1.382v3.107l-0.695,0.176c-4.581,1.159-7.317,4.099-7.317,7.855    c0,4.952,4.906,7.159,9.719,8.671c4.442,1.447,5.045,2.698,5.045,3.737c0,1.604-2.077,2.773-4.933,2.773    c-2.43,0-5.045-0.621-6.992-1.66c-0.204-0.111-0.427-0.167-0.658-0.167c-0.148,0-0.297,0.028-0.445,0.074    c-0.362,0.13-0.658,0.399-0.816,0.751l-1.28,2.847c-0.288,0.658-0.046,1.419,0.584,1.771c1.623,0.937,4.034,1.632,6.593,1.92    l0.825,0.083v2.949c0,0.77,0.621,1.391,1.391,1.391h3.348c0.76,0,1.391-0.621,1.391-1.391v-3.218l0.695-0.185    c5.675-1.428,7.688-5.332,7.688-8.235C61.318,50.422,56.681,48.187,52.137,46.703z"></path></g></g></svg>