<svg height='100px' width='100px'  fill="#000000" xmlns="http://www.w3.org/2000/svg" viewBox="0 0 64 64" x="0px" y="0px"><g><path d="M56.631,24.956l1.123-5.609c.074-.415.139-.83.182-1.245A12.833,12.833,0,0,0,58,16.81V13.918a7.982,7.982,0,0,0,2.561-11.49A1,1,0,0,0,59.74,2H28.26a1,1,0,0,0-.821.428A7.982,7.982,0,0,0,30,13.918V16.81c0,.063.008.127.009.19H27.741L26.68,13.523A3.966,3.966,0,0,0,22.97,11H17.06a4.928,4.928,0,0,0-2.476.661L8.734,15H2v2H9a1,1,0,0,0,.5-.131l6.088-3.475A2.925,2.925,0,0,1,17.06,13h5.91a1.961,1.961,0,0,1,1.823,1.181l.683,2.246A3.21,3.21,0,0,0,23.89,16h-.772l-.223-.447a1,1,0,0,0-1.137-.523l-4,1A1,1,0,0,0,18,18h5.89a1.179,1.179,0,0,1,.981.511.878.878,0,0,1,.112.314A1,1,0,0,1,24,20H17a1,1,0,0,0-.707.293A5.871,5.871,0,0,1,12.17,22H2v2H12.17A7.889,7.889,0,0,0,17.4,22H19v4a1,1,0,0,0,1,1h9V25H21V22h3a2.972,2.972,0,0,0,2.985-3H30.2c.02.122.029.244.053.366l1.119,5.593a10.934,10.934,0,0,1-.412,5.818L27.426,40.792c-.1.3-.195.61-.289.918L15.72,45.04A1,1,0,0,0,15,46l-.008,3.108-.979.283a7.71,7.71,0,0,0-5.525-.484L3.6,50.035,2.021,50l-.042,2,1.706.037a1.1,1.1,0,0,0,.247-.026l5.059-1.172a5.8,5.8,0,0,1,4.433.5,1,1,0,0,0,.761.086l6.725-1.944a1,1,0,0,1,1.273.856,1.116,1.116,0,0,1-.76,1.161l-5.709,1.567a1,1,0,0,0-.724,1.115,1.032,1.032,0,0,0,1.025.848l4.121-.149a1,1,0,0,0,.824-.489l.483-.816,1.974-.54L23.3,54.765a1.993,1.993,0,0,1-1.435,1.723l-5.675,1.64a3.134,3.134,0,0,1-1.624.017L7.151,57.012A.942.942,0,0,0,7,57H2v2H6.924l7.254,1.1a5,5,0,0,0,2.565-.055l5.675-1.64a3.993,3.993,0,0,0,2.873-3.477l.17-2.463L26,52.322V62h2V51.774l4.633-1.269L40,53.66V62h2V54h4v8h2V53.659l11.975-5.131c0,.2.025.387.025.582V62h2V49.11c0-.722-.031-1.447-.1-2.243a.852.852,0,0,0-.01-.109h0c-.033-.388-.075-.777-.134-1.117-.054-.45-.139-.911-.231-1.339s-.179-.874-.286-1.277a11.388,11.388,0,0,0-.36-1.284c-.039-.149-.087-.29-.157-.5l-.053-.169c-.03-.1-.061-.2-.093-.288l-2.51-7.121,0-.006-1.021-2.893c-.069-.192-.13-.392-.193-.632s-.137-.485-.189-.707a7.361,7.361,0,0,1-.144-.863l-.048-.492a11.167,11.167,0,0,1-.01-1.979C56.492,25.708,56.558,25.33,56.631,24.956ZM28,7a5.947,5.947,0,0,1,.807-3H59.193A6,6,0,0,1,54,13H34A6.006,6.006,0,0,1,28,7Zm4,9.81V14.737A7.953,7.953,0,0,0,34,15H54a7.953,7.953,0,0,0,2-.263V16.81c0,.064-.008.126-.01.19H32.009C32.008,16.937,32,16.873,32,16.81ZM55.784,19l-1.115,5.568c-.028.142-.041.29-.066.432H33.4c-.024-.146-.044-.292-.073-.437L32.216,19ZM29.567,41h-.094l2.116-6H50.125Zm3.277-9.558A13,13,0,0,0,33.581,27H48.837L32.489,32.45ZM37.163,33l17.261-5.754c.006.349.019.7.053,1.044l.047.484a9.364,9.364,0,0,0,.182,1.093c.065.282.141.575.217.818.068.259.146.519.233.758L55.706,33ZM20.355,47.556l-3.361.971,0-1.777L28.21,43.48a.836.836,0,0,0,.1-.037l28.179-8.218L58.42,40.7l.217.614L24.259,50.725l-.011,0-.072.02a3.025,3.025,0,0,0-1.331-2.81A3,3,0,0,0,20.355,47.556ZM41.205,52l-5.473-2.344,23.485-6.432c.023.091.055.178.076.271.1.4.188.784.269,1.2.084.39.159.789.211,1.226.028.164.04.326.059.489L46.8,52Zm19.624-5.149,0-.006.063,0Z"></path></g></svg>