<svg height='100px' width='100px'  fill="#000000" xmlns="http://www.w3.org/2000/svg" xmlns:xlink="http://www.w3.org/1999/xlink" version="1.1" x="0px" y="0px" viewBox="0 0 100 100" enable-background="new 0 0 100 100" xml:space="preserve"><g><g><g><g><path fill-rule="evenodd" clip-rule="evenodd" d="M97.183,66.346c-1.67-2.892-5.367-3.884-8.262-2.213L66.766,76.925      c-0.111,0.639-0.309,1.312-0.655,2.003c-0.695,1.383-2.858,4.56-7.937,4.233c-4.254-0.274-23.066-5.966-23.897-6.219      c-0.021-0.006-1.989-0.635-3.941-0.064c-0.601,0.179-1.223-0.09-1.523-0.608c-0.051-0.09-0.094-0.188-0.124-0.291      c-0.206-0.703,0.196-1.441,0.9-1.647c2.771-0.813,5.417,0.056,5.49,0.081c5.359,1.626,19.987,5.887,23.268,6.099      c3.36,0.217,4.818-1.638,5.388-2.77c0.414-1.051,0.51-1.88,0.34-2.893c-0.53-3.186-3.886-3.836-3.886-3.836      S31.62,60.766,24.787,59.257c-6.833-1.507-10.262,0.815-10.262,0.815l-12.52,7.229L15.06,89.914l7.794-4.499      c0,0,17.694,4.093,27.788,7.12c10.095,3.03,12.9,0.219,12.9,0.219L94.97,74.609C97.862,72.938,98.854,69.24,97.183,66.346z       M66.391,73.963l21.405-12.358c-1.836-1.149-4.229-1.273-6.238-0.114l-16.612,9.591C65.626,71.927,66.114,72.912,66.391,73.963z       M61.25,68.562c0.647,0.202,1.242,0.489,1.791,0.833l17.93-10.351c-1.836-1.15-4.23-1.273-6.239-0.114l-15.556,8.981      L61.25,68.562z M74.144,56.485c-1.836-1.15-4.229-1.274-6.237-0.115L51.88,65.624l4.172,1.307L74.144,56.485z"></path></g></g></g><g><path d="M43.74,20.89c-0.139-0.138-0.292-0.245-0.453-0.339v-7.915c0-3.633-2.944-6.577-6.577-6.577    c-3.632,0-6.577,2.944-6.577,6.577v7.916c-0.161,0.093-0.314,0.201-0.452,0.338l-7.221,7.221c-0.866,0.867-0.866,2.269,0,3.134    c0.865,0.866,2.269,0.866,3.133,0l4.47-4.47l-5.441,15.04h6.227v7.945c0,1.224,0.993,2.216,2.217,2.216s2.217-0.993,2.217-2.216    v-7.945h2.856v7.945c0,1.224,0.991,2.216,2.215,2.216c1.223,0,2.216-0.993,2.216-2.216v-7.945h6.228l-5.443-15.042l4.471,4.472    c0.865,0.866,2.268,0.864,3.134,0c0.865-0.865,0.865-2.268,0-3.134L43.74,20.89z"></path><path d="M76.758,28.481l-7.219-7.22c-0.436-0.435-1.008-0.651-1.574-0.649H57.05c-0.569,0-1.139,0.216-1.569,0.649l-7.222,7.221    c-0.865,0.865-0.865,2.268,0,3.134s2.269,0.866,3.134,0l4.539-4.54v14.842h0.717v8.212c0,1.223,0.994,2.215,2.218,2.215    s2.215-0.992,2.215-2.215v-8.212h2.856v8.212c0,1.223,0.99,2.215,2.215,2.215c1.223,0,2.217-0.992,2.217-2.215v-8.212h0.717    V27.074l4.54,4.539c0.865,0.868,2.268,0.866,3.132,0C77.624,30.748,77.624,29.346,76.758,28.481z"></path><circle cx="62.509" cy="13.006" r="6.577"></circle></g></g></svg>