<svg height='100px' width='100px'  fill="#000000" xmlns="http://www.w3.org/2000/svg" xmlns:xlink="http://www.w3.org/1999/xlink" version="1.1" x="0px" y="0px" viewBox="0 0 160 160" style="enable-background:new 0 0 160 160;" xml:space="preserve"><path d="M122.856,135.236c-1.354,1.395-3.171,2.162-5.115,2.162s-3.761-0.768-5.115-2.162l-3.653-3.762  c-2.684-2.764-6.283-4.286-10.137-4.286c-3.853,0-7.452,1.522-10.136,4.286l-3.653,3.762c-1.354,1.395-3.171,2.162-5.115,2.162  s-3.761-0.768-5.115-2.162l-3.653-3.762c-2.684-2.764-6.283-4.286-10.136-4.286c-3.854,0-7.453,1.522-10.137,4.286l-3.653,3.762  c-1.354,1.395-3.171,2.162-5.115,2.162c-1.944,0-3.76-0.768-5.115-2.162c-1.347-1.388-3.563-1.419-4.949-0.072  s-1.419,3.563-0.072,4.949c2.684,2.764,6.284,4.285,10.136,4.285s7.453-1.521,10.137-4.285l3.653-3.762  c1.354-1.396,3.171-2.163,5.115-2.163c1.943,0,3.76,0.768,5.114,2.163l3.653,3.762c2.684,2.764,6.284,4.285,10.137,4.285  s7.453-1.521,10.137-4.285l3.653-3.762c1.354-1.396,3.171-2.163,5.114-2.163c1.944,0,3.761,0.768,5.115,2.163l3.653,3.762  c2.684,2.764,6.284,4.285,10.137,4.285s7.453-1.521,10.137-4.285c1.347-1.387,1.314-3.603-0.072-4.949  C126.421,133.818,124.205,133.85,122.856,135.236z"></path><path d="M128.91,49.112c-9.64-4.39-21.09-5.07-29.88-1.77c-5.74,2.16-11.21,6.35-15.54,11.67c-1.49-11.36-6.4-22.17-13.57-29.34  c-8.67-8.68-22.68-14.07-36.56-14.07H33.3c-5.37,0.01-9.74,4.38-9.75,9.75c-0.01,13.9,5.37,27.93,14.06,36.62  c8.68,8.68,22.68,14.06,36.56,14.06h0.06c0.79,0,1.55-0.1,2.28-0.28v30c-0.62-0.33-1.19-0.77-1.69-1.29l-0.81-0.83l-2.85-2.93  c-2.68-2.76-6.28-4.28-10.13-4.28c-3.86,0-7.46,1.52-10.14,4.28l-3.65,3.76c-1.36,1.4-3.17,2.17-5.12,2.17  c-1.94,0-3.76-0.77-5.11-2.17l-3.66-3.76c-2.68-2.76-6.28-4.28-10.13-4.28s-7.46,1.52-10.16,4.31l-6.58,6.91  c-1.34,1.4-1.28,3.62,0.12,4.95c1.4,1.34,3.61,1.28,4.95-0.12l6.55-6.89c1.36-1.4,3.17-2.16,5.12-2.16c1.94,0,3.76,0.76,5.11,2.16  l3.66,3.76c2.68,2.76,6.28,4.29,10.13,4.29c3.85,0,7.46-1.53,10.14-4.29l3.65-3.76c1.36-1.4,3.17-2.16,5.12-2.16  c1.94,0,3.76,0.76,5.11,2.16l3.66,3.76c1.23,1.27,2.65,2.27,4.21,2.99c0.8,0.38,1.64,0.67,2.5,0.88v6.92c0,1.93,1.57,3.5,3.5,3.5  s3.5-1.57,3.5-3.5v-40.25c5.11,2.05,10.63,3.1,15.95,3.1c4.3,0,8.48-0.69,12.18-2.08c8.79-3.3,16.96-11.34,21.33-20.99  C134.82,55.812,133,50.972,128.91,49.112z M63.59,52.112v-10.3c0-1.38-1.12-2.5-2.5-2.5s-2.5,1.12-2.5,2.5v5.3L47.4,35.922  c-0.97-0.98-2.56-0.98-3.53,0c-0.98,0.98-0.98,2.56,0,3.54l3.86,3.86h-4.95c-1.39,0-2.5,1.12-2.5,2.5s1.11,2.5,2.5,2.5h9.95  l9.68,9.68h-4.24c-1.38,0-2.5,1.12-2.5,2.5s1.12,2.5,2.5,2.5h9.24l6.02,6.02c-11.84-0.19-23.61-4.74-30.87-12  c-7.42-7.42-12.02-19.55-12.01-31.66c0.01-1.54,1.22-2.75,2.76-2.76h0.05c12.09,0,24.2,4.6,31.61,12.01  c7.26,7.26,11.81,19.03,11.99,30.87L63.59,52.112z M126.59,57.022c-3.63,8.02-10.3,14.66-17.41,17.33  c-6.45,2.42-14.78,2.14-22.24-0.65l16.16-6.07l6.81,3.03c0.33,0.15,0.68,0.22,1.02,0.22c0.96,0,1.87-0.56,2.28-1.49  c0.57-1.26,0-2.74-1.26-3.3l-2.18-0.96l4.47-1.68c1.29-0.49,1.95-1.93,1.46-3.22c-0.48-1.29-1.93-1.95-3.22-1.46l-13.39,5.03  l1.08-2.35c0.58-1.25,0.04-2.73-1.22-3.31c-1.25-0.58-2.74-0.04-3.32,1.21l-3.21,6.95l-7.24,2.72c3.78-7.01,9.86-12.7,16.31-15.13  c2.95-1.1,6.28-1.64,9.74-1.64c4.91,0,10.08,1.09,14.78,3.23C126.6,55.752,126.86,56.432,126.59,57.022z"></path><path d="M153.5,107.622l-6.72-6.92c-2.68-2.76-6.28-4.28-10.13-4.28c-3.86,0-7.46,1.52-10.14,4.28l-3.65,3.76  c-1.36,1.4-3.17,2.17-5.12,2.17c-1.94,0-3.76-0.77-5.11-2.17l-3.66-3.76c-2.68-2.76-6.28-4.28-10.13-4.28  c-3.86,0-7.46,1.52-10.14,4.28l-2.69,2.77v8.79c1.5-0.71,2.87-1.69,4.06-2.92l3.65-3.76c1.36-1.4,3.17-2.16,5.12-2.16  c1.94,0,3.76,0.76,5.11,2.16l3.65,3.76c2.69,2.76,6.29,4.29,10.14,4.29c3.85,0,7.45-1.53,10.14-4.29l3.65-3.76  c1.36-1.4,3.17-2.16,5.12-2.16c1.94,0,3.76,0.76,5.11,2.16l6.72,6.92c1.35,1.38,3.56,1.41,4.95,0.07  C154.81,111.222,154.85,109.012,153.5,107.622z"></path></svg>