<svg height='100px' width='100px'  fill="#000000" xmlns="http://www.w3.org/2000/svg" viewBox="0 0 48 48" x="0px" y="0px"><title>Food vol.1</title><g data-name="Layer 10"><path d="M42.228,16.46533H40.3089a8.67541,8.67541,0,0,0-7.69959-7.56146A8.65514,8.65514,0,0,0,15.391,8.9054a8.62645,8.62645,0,0,0-7.60535,7.55993H5.772a1.00006,1.00006,0,0,0-1,1v2.76026A19.28294,19.28294,0,0,0,23.04785,39.45032v5.40906H14.08643a1,1,0,0,0,0,2H33.50488a1,1,0,0,0,0-2h-8.457V39.45007A19.24112,19.24112,0,0,0,43.228,20.22559V17.46533A1.00006,1.00006,0,0,0,42.228,16.46533Zm-3.93213,0H25.13177c.00965-.06293.01752-.1264.02887-.18872.01569-.08581.032-.17126.051-.25586.02716-.12134.05884-.24078.09259-.3595.02344-.08245.04626-.16528.07282-.24646.03894-.11889.08343-.2351.12878-.35095.02991-.07635.05786-.15368.09051-.22863.05256-.12073.1117-.23786.17109-.35468.03332-.06549.06359-.13275.099-.197.07952-.14423.16644-.28375.25616-.42121.0213-.03265.03967-.06732.06152-.0996q.1703-.251.3628-.48487c.04065-.04956.08563-.09521.12762-.14355.09082-.10449.18213-.20862.2793-.30719.05615-.057.11609-.10987.17419-.16474.089-.0841.17822-.168.27179-.24713.06537-.0553.13373-.107.20117-.15973.09253-.07226.18573-.14367.28205-.21106.07214-.05047.1463-.09826.22052-.14587.09716-.06238.19561-.1228.2962-.18012q.11637-.06627.23572-.12786c.10333-.05347.20849-.10382.31488-.15192.08069-.03644.16168-.07239.24408-.10565.11053-.04468.22333-.08472.33673-.12348.0827-.02832.165-.05737.24914-.08239.12006-.03571.24256-.06519.3653-.09412.08075-.019.16064-.04047.24243-.05652.13794-.027.27863-.0459.41956-.06421.06982-.009.13849-.02209.20892-.02893.21271-.02075.428-.03277.64606-.03277A6.69145,6.69145,0,0,1,38.2959,16.46533ZM24.04785,3.14063A6.65658,6.65658,0,0,1,30.59863,8.916c-.07318.009-.14251.02941-.21509.04028-.22821.03418-.45391.07483-.676.12665-.11224.02618-.22278.05536-.33331.08587-.20978.05793-.41553.12421-.61859.19739-.10212.03674-.20466.07135-.30494.11182-.23834.09619-.47021.20416-.69751.32055-.05432.02777-.11126.05066-.16491.07959a8.61143,8.61143,0,0,0-.79914.49091c-.07476.05151-.14447.10889-.21746.16266-.18116.13342-.35816.27136-.5282.41821-.08472.07318-.16614.149-.248.2254q-.22961.21434-.44269.44465c-.07452.08044-.14941.15985-.22094.2431-.15467.18-.29969.36761-.43927.56-.04523.06243-.09473.12127-.13837.18493a8.63455,8.63455,0,0,0-.48938.80493c-.00678.0127-.01563.02405-.02234.03675-.00726-.01361-.01685-.02576-.02417-.03931a8.60345,8.60345,0,0,0-.49316-.80188c-.04541-.06543-.09674-.126-.14386-.19012-.1402-.1908-.28565-.377-.4408-.55561-.073-.084-.14947-.16424-.22565-.24542q-.21523-.22942-.4461-.44287c-.08319-.07684-.16608-.15326-.25232-.22681-.17279-.14746-.35272-.28595-.53687-.41986-.07281-.05292-.14227-.10974-.21679-.16046a8.74254,8.74254,0,0,0-.80927-.49091c-.05694-.03033-.11731-.05438-.175-.08349-.2276-.11481-.45959-.22156-.69806-.31659-.10192-.04065-.20617-.07556-.31-.11243-.20533-.073-.41333-.13891-.62543-.19671-.11194-.03046-.22369-.05988-.3374-.086-.22528-.05176-.45429-.09223-.68579-.12628-.074-.01093-.14484-.03138-.21949-.04041A6.72088,6.72088,0,0,1,24.04785,3.14063Zm-7.71045,7.71c.22125,0,.43958.012.6554.03277.07153.00684.14123.0199.2121.029.14282.01825.28558.03711.42547.06415.083.016.16394.03742.24579.05646.12463.029.24908.05847.371.09424.08509.025.16834.054.252.08215.11523.03882.22979.07892.3421.12366.08356.03326.16559.06915.24744.10565.10815.04816.215.09857.32006.15216q.12021.06133.23767.12708c.10291.0578.20362.11871.303.18164.07447.04712.14881.0943.22126.14422.09845.06787.19372.13971.2882.21253.06794.05243.13678.10376.20258.15863.09552.07965.18664.164.27753.24872.05835.05432.11859.10668.17486.163.09937.09937.19269.20435.28559.30969.04193.04755.08679.09247.12738.14124q.19482.23419.36834.48517c.02216.03222.04077.067.06238.09961.09094.13732.179.27673.25964.42089.0365.06531.06781.13373.10212.20032.05951.11536.11865.231.17132.3501.03406.07709.06336.15668.09448.23529.04493.1134.08912.22711.12781.34344.02783.08381.05176.16919.07623.25446.03315.1153.06446.23126.09125.349.0202.08862.0376.17822.05414.26807.011.05993.0188.12091.02814.18139H9.79785A6.626,6.626,0,0,1,16.3374,10.85059Zm24.89063,9.375a17.2281,17.2281,0,1,1-34.45606,0V18.46533H41.228Z"></path></g></svg>