<svg height='100px' width='100px'  fill="#000000" xmlns="http://www.w3.org/2000/svg" xmlns:xlink="http://www.w3.org/1999/xlink" version="1.1" x="0px" y="0px" viewBox="0 0 72 72" enable-background="new 0 0 72 72" xml:space="preserve"><g><g><path d="M48.48,36.351v-2.92c0,0,3.163-1.947-0.122-3.407v-1.218h2.8V18.461h-6.937V5.441c0,0-6.084-9.37-13.385,0v12.899h-7.545    v10.222h3.042v1.46c0,0-2.921,1.825,0,3.042v2.908l-7.058,6.097v28.597h37.602V42.191L48.48,36.351z M54.321,67.99H21.466V46.572    h32.855V67.99z"></path></g><path fill="#000000" stroke="#000000" stroke-width="2" stroke-miterlimit="10" d="M26.333,28.562h22.025h2.8V18.461h-6.937V5.441   c0,0-6.571-9.614-13.385,0l0.122,13.264l-7.667,0.122v9.249L26.333,28.562z"></path></g></svg>