<svg height='100px' width='100px'  fill="#000000" xmlns="http://www.w3.org/2000/svg" xmlns:xlink="http://www.w3.org/1999/xlink" xml:space="preserve" version="1.1" style="shape-rendering:geometricPrecision;text-rendering:geometricPrecision;image-rendering:optimizeQuality;" viewBox="0 0 667 453" x="0px" y="0px" fill-rule="evenodd" clip-rule="evenodd"><defs><style type="text/css">
   
    .fil0 {fill:#000000}
   
  </style></defs><g><path class="fil0" d="M77 337l6 -10 -14 0 6 10 0 40 2 -4 0 -36zm541 -133c-7,89 7,174 43,249l-244 0c36,-75 50,-160 43,-249l-346 0 0 40 1 0c2,-4 5,-6 10,-6 5,0 10,4 10,10 0,6 -5,10 -10,10 -5,0 -8,-3 -10,-6l-1 0 0 6 0 0 0 1c0,17 -13,32 -31,35l0 25 0 2 0 5 0 0 0 0 -14 0 0 -32c-18,-3 -31,-18 -31,-35l0 -1 0 0 0 -54 -3 0c-14,0 -26,-9 -32,-21l661 0c-6,12 -18,21 -32,21l-14 0zm-617 -29c-1,-2 -1,-4 -1,-6l0 -14 121 0c3,0 5,-3 5,-6l0 0c0,-3 -2,-5 -5,-5l-121 0 0 -15 121 0c3,0 5,-3 5,-5l0 0c0,-3 -2,-6 -5,-6l-121 0 0 -15 121 0c3,0 5,-2 5,-5l0 0c0,-3 -2,-6 -5,-6l-121 0 0 -15 121 0c3,0 5,-2 5,-5l0 0c0,-3 -2,-5 -5,-5l-121 0 0 -32c0,-19 16,-35 35,-35l597 0c19,0 35,16 35,35l0 134c0,2 0,4 -1,6l-665 0zm551 -149c38,0 69,31 69,69 0,38 -31,69 -69,69 -38,0 -69,-31 -69,-69 0,-38 31,-69 69,-69zm0 8c34,0 61,27 61,61 0,34 -27,61 -61,61 -34,0 -61,-27 -61,-61 0,-34 27,-61 61,-61zm0 -4c36,0 65,29 65,65 0,36 -29,65 -65,65 -36,0 -65,-29 -65,-65 0,-36 29,-65 65,-65z"></path></g></svg>