<svg height='100px' width='100px'  fill="#000000" xmlns="http://www.w3.org/2000/svg" xmlns:xlink="http://www.w3.org/1999/xlink" version="1.1" x="0px" y="0px" viewBox="0 0 100 100" enable-background="new 0 0 100 100" xml:space="preserve"><path fill="#000000" d="M63.459,29.918c1.635-0.115,2.934-1.582,2.934-3.393V23.67c0-1.662-1.092-3.043-2.535-3.348  c0-0.001,0-0.002,0-0.003c0-7.968-6.455-14.452-14.423-14.452c-7.972,0-14.216,6.32-14.242,14.458  c-1.433,0.314-2.512,1.692-2.512,3.346v2.855c0,1.803,1.286,3.264,2.911,3.39c0.341,12.783,0.206,29.694-0.138,42.065  c-1.559,0.197-2.773,1.623-2.773,3.375v2.855c0,1.699,1.144,3.098,2.637,3.359c0.496,4.006,2.872,12.562,14.118,12.562  c7.326,0,13.38-5.485,14.312-12.562c1.498-0.256,2.646-1.656,2.646-3.359v-2.855c0-1.756-1.223-3.186-2.787-3.376  C63.262,59.663,63.121,42.743,63.459,29.918z M49.643,77.49h-5.149h-5.547v-1.598c0.344-0.019,0.693-0.031,1.032-0.057  c2.28-0.188,5.158-0.588,7.751-1.433c-0.115-0.259-0.182-0.544-0.182-0.847c0-1.156,0.938-2.094,2.094-2.094  s2.093,0.938,2.093,2.094c0,0.303-0.066,0.588-0.182,0.847c2.594,0.845,5.473,1.245,7.752,1.433c0.27,0.02,0.545,0.029,0.818,0.045  v1.609h-5.332H49.643z M53.926,80.044c0,0.359-0.291,0.65-0.65,0.65s-0.65-0.291-0.65-0.65s0.291-0.65,0.65-0.65  S53.926,79.685,53.926,80.044z M46.662,80.044c0,0.359-0.291,0.65-0.65,0.65s-0.65-0.291-0.65-0.65s0.291-0.65,0.65-0.65  S46.662,79.685,46.662,80.044z M45.361,70.544c0-0.359,0.291-0.65,0.65-0.65s0.65,0.291,0.65,0.65c0,0.358-0.291,0.649-0.65,0.649  S45.361,70.902,45.361,70.544z M52.625,70.544c0-0.359,0.291-0.65,0.65-0.65s0.65,0.291,0.65,0.65c0,0.358-0.291,0.649-0.65,0.649  S52.625,70.902,52.625,70.544z M54.793,74.256v-5.15h-5.15h-5.149v5.15c-1.538,0.292-3.424,0.521-5.59,0.637  c-0.136-1.087-0.74-2.004-1.582-2.516c0.355-12.562,0.496-29.974,0.136-42.953c0.771-0.525,1.316-1.407,1.446-2.435  c2.166,0.115,4.052,0.344,5.59,0.636v5.15h5.149h5.15v-5.15c1.486-0.283,3.299-0.505,5.375-0.625  c0.131,1.019,0.672,1.892,1.436,2.417c-0.357,13.03-0.221,30.421,0.135,42.965c-0.832,0.511-1.432,1.421-1.57,2.499  C58.092,74.762,56.279,74.539,54.793,74.256z M49.643,24.391h5.15h5.332V26c-0.273,0.016-0.549,0.025-0.818,0.045  c-2.279,0.188-5.158,0.587-7.752,1.433c0.115,0.259,0.182,0.544,0.182,0.846c0,1.156-0.937,2.094-2.093,2.094  s-2.094-0.938-2.094-2.094c0-0.302,0.066-0.587,0.182-0.846c-2.594-0.845-5.471-1.244-7.751-1.433  c-0.339-0.025-0.688-0.038-1.032-0.057v-1.597h5.547H49.643z M45.361,21.837c0-0.359,0.291-0.65,0.65-0.65s0.65,0.291,0.65,0.65  s-0.291,0.65-0.65,0.65S45.361,22.196,45.361,21.837z M52.625,21.837c0-0.359,0.291-0.65,0.65-0.65s0.65,0.291,0.65,0.65  s-0.291,0.65-0.65,0.65S52.625,22.196,52.625,21.837z M53.926,31.337c0,0.359-0.291,0.65-0.65,0.65s-0.65-0.291-0.65-0.65  s0.291-0.65,0.65-0.65S53.926,30.978,53.926,31.337z M46.662,31.337c0,0.359-0.291,0.65-0.65,0.65s-0.65-0.291-0.65-0.65  s0.291-0.65,0.65-0.65S46.662,30.978,46.662,31.337z M49.434,7.748c6.857,0,12.451,5.521,12.568,12.352  c-0.012,0.152-0.02,0.315-0.029,0.47c-1.002,0.499-1.721,1.551-1.822,2.805h-5.357v-3.119h-5.15h-5.149v3.119H38.92  c-0.101-1.26-0.827-2.319-1.837-2.814c-0.005-0.08-0.01-0.165-0.015-0.244C37.068,13.27,42.5,7.748,49.434,7.748z M49.434,92.251  c-9.889,0-11.889-7.39-12.277-10.973c0.97-0.511,1.665-1.544,1.763-2.772h5.574v3.119h5.149h5.15v-3.119h5.357  c0.098,1.219,0.783,2.246,1.742,2.76C61.111,87.451,55.826,92.251,49.434,92.251z"></path></svg>