<svg height='100px' width='100px'  fill="#000000" xmlns="http://www.w3.org/2000/svg" xmlns:xlink="http://www.w3.org/1999/xlink" version="1.1" x="0px" y="0px" viewBox="0 0 100 100" style="enable-background:new 0 0 100 100;" xml:space="preserve"><g><g><path d="M38.8,45.6c-0.6,0-1.1-0.1-1.6-0.2c-0.5-0.1-1.1-0.3-1.7-0.5c-1.3-0.6-2.4-1.4-3.5-2.5l-0.5-0.5    c-0.4-0.5-0.4-1.2,0-1.6c0.5-0.4,1.2-0.4,1.6,0l0.5,0.5c0.8,0.9,1.7,1.5,2.7,1.9c0.4,0.2,0.8,0.3,1.2,0.4c0.8,0.2,2.9,0.6,6.4-2.8    l4-4c1.2-1.2,1.6-2.9,1.1-4.6l-3.6-11c-0.2-0.6,0.1-1.3,0.7-1.5c0.6-0.2,1.3,0.1,1.5,0.7l3.6,11c0.8,2.5,0.2,5.1-1.7,6.9l-4,4    C42.9,44.9,40.6,45.6,38.8,45.6z"></path></g><g><path d="M13.5,64.5l-6.8-6.8c-2.8-2.8-2.8-7.3,0-10.1L49.1,5.1c1.5-1.5,3.6-2.4,5.8-2.4c2.2,0,4.2,0.8,5.8,2.4    L64.5,9c9.2-2.1,19-0.9,27.5,3.2l1,0.5l-4.8,9.8l-1-0.5c-5.5-2.7-11.6-3.7-17.7-2.9l3.8,8.3l-21,21c-4.8,4.8-9.4,6.3-13.4,6.3    c-5.4,0-9.7-2.8-11.4-4.2L13.5,64.5z M54.9,5c-1.6,0-3,0.6-4.1,1.7L8.3,49.2c-1.9,1.9-1.9,4.9,0,6.8l5.2,5.2l13.9-13.9l0.8,0.8    c0.4,0.4,10.9,10.3,22.5-1.3l19.9-19.9l-4.4-9.6l1.5-0.3c6.7-1.2,13.4-0.4,19.6,2.3l2.7-5.6c-8-3.6-17-4.4-25.5-2.4    c-0.5,0.1-1-0.1-1.2-0.5L59,6.7C57.9,5.6,56.4,5,54.9,5z"></path></g><path d="M92.2,48.1c-4.3,0-7.8-3.5-7.8-7.8c0-4,6.2-11.3,6.9-12.2l0.9-1l0.9,1c0.1,0.1,1.4,1.7,2.9,3.8   c0.8,1.1,1.5,2.2,2,3.1c1.3,2.2,1.9,3.9,1.9,5.3C100,44.6,96.5,48.1,92.2,48.1z M92.2,30.7c-2.4,3-5.4,7.5-5.4,9.6   c0,3,2.4,5.4,5.4,5.4c3,0,5.4-2.4,5.4-5.4c0-0.5-0.2-1.7-1.6-4.1c-0.5-0.9-1.2-1.9-1.9-3C93.4,32.3,92.7,31.4,92.2,30.7z"></path><path d="M60,94.4c-9.4,0-18.3-4.2-22.9-11.4c-3.6-5.5-4.2-11.5-1.7-16.3c1.9-3.6,5.5-5.9,9.2-5.9c0,0,0,0,0.1,0   c3.9,0,7.6,2.5,9.5,6.4c2.6,5.4,1.4,12-3.4,18c-0.4,0.5-1.1,0.6-1.6,0.2c-0.5-0.4-0.6-1.1-0.2-1.6c4.2-5.3,5.4-11,3.1-15.5   c-1.5-3.1-4.4-5.1-7.4-5.1c0,0,0,0,0,0c-2.9,0-5.6,1.8-7.1,4.7c-2.2,4-1.6,9.1,1.6,13.9c5.3,8,16.4,12,27.2,9.6   c13.5-3,22.8-14.6,25.4-32c0.1-0.6,0.7-1.1,1.3-1c0.6,0.1,1.1,0.7,1,1.3c-3.9,26.1-20.3,32.5-27.2,34C64.5,94.2,62.2,94.4,60,94.4z   "></path><path d="M27.1,97.3c-2.5,0-5-0.3-7.6-1c-8.8-2.4-15.6-8.6-18.3-16.6c-2.9-8.4-0.4-18,6.1-23.2   c0.5-0.4,1.2-0.3,1.6,0.2c0.4,0.5,0.3,1.2-0.2,1.6C3,62.9,0.8,71.4,3.4,78.9c2.5,7.3,8.7,12.9,16.7,15.1c8.6,2.3,17.5,0.2,24.3-5.7   c0.5-0.4,1.2-0.4,1.6,0.1c0.4,0.5,0.4,1.2-0.1,1.6C40.5,94.8,33.9,97.3,27.1,97.3z"></path></g></svg>