<svg height='100px' width='100px'  fill="#000000" xmlns="http://www.w3.org/2000/svg" xmlns:xlink="http://www.w3.org/1999/xlink" version="1.1" x="0px" y="0px" viewBox="0 0 64 64" style="enable-background:new 0 0 64 64;" xml:space="preserve"><g><path d="M15,43v2h34v-2h-4v-2c0-8.646,3.855-16.475,3.895-16.553l1.076-2.158l-2.287,0.762c-0.058,0.019-2.682,0.931-5.528,3.187   c1.139-4.546,2.72-7.753,2.739-7.792l1.076-2.158l-2.287,0.762C43.579,17.086,34.977,20.061,32,28.757   c-2.977-8.697-11.579-11.671-11.684-11.706l-2.287-0.762l1.076,2.158c0.019,0.038,1.6,3.246,2.739,7.792   c-2.846-2.256-5.47-3.168-5.528-3.187l-2.29-0.763l1.079,2.159C15.145,24.525,19,32.336,19,41v2H15z M43,41v2h-6v-2   c0-8.798,5.739-13.206,9.05-15.017C44.831,29.081,43,34.772,43,41z M42.053,19.982c-0.782,1.991-1.815,5.064-2.459,8.667   C37.102,31.448,35,35.452,35,41v2h-1.975v-8.622C33.293,25.999,38.824,21.747,42.053,19.982z M31,35h0.025v8H29v-2   c0-5.548-2.102-9.552-4.593-12.351c-0.644-3.603-1.678-6.675-2.459-8.667C25.257,21.791,31,26.199,31,35z M17.95,25.983   C21.261,27.794,27,32.202,27,41v2h-6v-2C21,34.772,19.169,29.081,17.95,25.983z"></path><path d="M29.901,52.896l0.197-1.99c-0.636-0.063-1.275-0.16-1.9-0.286l-0.396,1.96C28.491,52.72,29.198,52.827,29.901,52.896z"></path><path d="M32,1h-1v8h1c12.683,0,23,10.318,23,23v1h8v-1C63,14.907,49.094,1,32,1z M53.187,12.227c2.126,2.276,3.89,4.894,5.2,7.761   l-3.698,1.531c-1.104-2.38-2.569-4.56-4.329-6.466L53.187,12.227z M33,3.017c3.215,0.109,6.296,0.75,9.166,1.828l-1.532,3.699   C38.238,7.659,35.674,7.125,33,7.02V3.017z M42.481,9.311l1.532-3.698c2.867,1.311,5.484,3.074,7.761,5.2l-2.827,2.827   C47.041,11.88,44.861,10.415,42.481,9.311z M56.98,31c-0.106-2.674-0.639-5.238-1.524-7.634l3.699-1.532   c1.078,2.869,1.718,5.951,1.828,9.166H56.98z"></path><path d="M9.783,26.047c1.59-5.935,5.396-10.894,10.717-13.966l0.866-0.5l-4-6.929l-0.866,0.5C1.697,13.7-3.394,32.697,5.153,47.5   l0.5,0.866l6.929-4l-0.5-0.866C9.01,38.18,8.193,31.981,9.783,26.047z M6.4,45.625C-0.75,32.206,3.74,15.447,16.643,7.4   l2.001,3.466c-5.335,3.365-9.15,8.536-10.792,14.663C6.21,31.657,6.928,38.043,9.866,43.624L6.4,45.625z"></path><path d="M51.918,43.5c-3.071,5.32-8.031,9.126-13.965,10.716c-5.933,1.59-12.132,0.775-17.453-2.298l-0.866-0.5l-4,6.929l0.866,0.5   c4.87,2.812,10.191,4.147,15.447,4.147c10.722,0,21.164-5.561,26.899-15.494l0.5-0.866l-6.929-4L51.918,43.5z M48.953,50.367   l2.83,2.83c-2.319,2.162-4.95,3.899-7.774,5.18l-1.529-3.691C44.865,53.591,47.042,52.136,48.953,50.367z M18.375,57.6l2.001-3.466   c5.581,2.938,11.967,3.655,18.095,2.014c0.736-0.197,1.457-0.43,2.164-0.689l1.527,3.686C34.617,61.962,25.963,61.643,18.375,57.6z    M56.6,47.357c-1.004,1.61-2.144,3.09-3.397,4.432l-2.83-2.831c1.017-1.106,1.945-2.307,2.761-3.602L56.6,47.357z"></path><path d="M32,53c5.122,0,10.055-1.865,13.891-5.25l-1.324-1.499C41.097,49.313,36.634,51,32,51V53z"></path></g></svg>