<?xml version="1.0" encoding="utf-8"?>
<!-- Generator: Adobe Illustrator 24.2.1, SVG Export Plug-In . SVG Version: 6.00 Build 0)  -->
<svg version="1.1" id="Layer_1" xmlns="http://www.w3.org/2000/svg" xmlns:xlink="http://www.w3.org/1999/xlink" x="0px" y="0px"
	 viewBox="0 0 100 100" enable-background="new 0 0 100 100" xml:space="preserve">
<g>
	<path d="M41.282,86.84c0.335-0.15,0.728,0.002,0.878,0.337c0.15,0.335-0.002,0.728-0.337,0.878l-2.037,0.91
		c-0.335,0.15-0.728-0.002-0.878-0.337c-0.15-0.335,0.002-0.728,0.337-0.878L41.282,86.84z M25.23,74.412
		c0.003,0.23,0.192,0.412,0.422,0.408c0.23-0.003,0.412-0.192,0.408-0.422c-0.01-0.487,0.27-1.007,0.707-1.42
		c0.443-0.422,1.042-0.725,1.662-0.773c0.23-0.017,0.402-0.217,0.383-0.447c-0.017-0.23-0.217-0.402-0.447-0.383
		c-0.82,0.063-1.6,0.457-2.173,1c-0.597,0.567-0.978,1.308-0.963,2.035L25.23,74.412z M26.312,3.26h-1.333V1.927h1.333V3.26z
		 M26.312,54.185h-1.333v-1.333h1.333V54.185z M26.312,48.852h-1.333v-1.333h1.333V48.852z M26.312,43.518h-1.333v-1.333h1.333
		V43.518z M26.312,38.185h-1.333v-1.333h1.333V38.185z M26.312,8.593h-1.333V7.26h1.333V8.593z M12.563,21.365l3.127-5.415h-0.002
		l3.132-5.423c0.123-0.213,0.347-0.332,0.575-0.332v-0.002h12.523c0.263,0,0.492,0.153,0.6,0.375l3.107,5.382
		c0.007,0.012,0.013,0.025,0.02,0.037l3.112,5.388c0.123,0.215,0.113,0.472-0.005,0.67l-3.127,5.415h0.002l-3.132,5.423
		c-0.123,0.213-0.347,0.332-0.575,0.332v0.002H19.397c-0.263,0-0.492-0.153-0.6-0.375L15.69,27.46
		c-0.007-0.012-0.013-0.025-0.02-0.037l-3.112-5.388C12.435,21.82,12.445,21.563,12.563,21.365z M16.838,16.615l-2.938,5.09
		l2.918,5.055c0.007,0.012,0.015,0.023,0.022,0.035l2.938,5.09h11.757l2.938-5.09h0.002l2.938-5.09l-2.918-5.055
		c-0.007-0.012-0.015-0.023-0.022-0.035l-2.938-5.09H19.778l-2.938,5.09H16.838z M75.018,3.26h-1.333V1.927h1.333V3.26z
		 M75.018,54.185h-1.333v-1.333h1.333V54.185z M75.018,48.852h-1.333v-1.333h1.333V48.852z M75.018,43.518h-1.333v-1.333h1.333
		V43.518z M75.018,38.185h-1.333v-1.333h1.333V38.185z M75.018,8.593h-1.333V7.26h1.333V8.593z M86.097,21.705l-2.938-5.09h-0.002
		l-2.938-5.09H68.462l-2.938,5.09c-0.007,0.012-0.013,0.023-0.022,0.035l-2.918,5.055l2.938,5.09h0.002l2.938,5.09h11.757
		l2.938-5.09c0.007-0.012,0.013-0.023,0.022-0.035L86.097,21.705z M84.308,15.952l3.125,5.413c0.118,0.2,0.13,0.455,0.005,0.67
		l-3.112,5.388c-0.007,0.012-0.013,0.025-0.02,0.037L81.2,32.842c-0.108,0.222-0.337,0.375-0.6,0.375H68.077v-0.002
		c-0.23,0-0.452-0.118-0.575-0.332L64.37,27.46h0.002l-3.127-5.415c-0.118-0.2-0.13-0.455-0.005-0.67l3.112-5.388
		c0.007-0.012,0.013-0.025,0.02-0.037l3.107-5.382c0.108-0.222,0.337-0.375,0.6-0.375h12.523v0.002c0.23,0,0.452,0.118,0.575,0.332
		l3.132,5.423h-0.002L84.308,15.952z M49.332,59.155h1.333v1.333h-1.333V59.155z M49.332,8.23h1.333v1.333h-1.333V8.23z
		 M49.332,13.563h1.333v1.333h-1.333V13.563z M49.332,18.897h1.333v1.333h-1.333V18.897z M49.332,24.23h1.333v1.333h-1.333V24.23z
		 M49.332,53.822h1.333v1.333h-1.333V53.822z M37.082,38.152l3.127-5.415h-0.002l3.132-5.423c0.123-0.213,0.347-0.332,0.575-0.332
		V26.98h12.523c0.263,0,0.492,0.153,0.6,0.375l3.107,5.382c0.007,0.012,0.013,0.025,0.02,0.037l3.112,5.388
		c0.123,0.215,0.113,0.472-0.005,0.67l-3.127,5.415h0.002l-3.132,5.423c-0.123,0.213-0.347,0.332-0.575,0.332v0.002H43.915
		c-0.263,0-0.492-0.153-0.6-0.375l-3.107-5.382c-0.007-0.012-0.013-0.025-0.02-0.037l-3.112-5.388
		C36.953,38.607,36.963,38.35,37.082,38.152z M41.357,33.402l-2.938,5.09l2.918,5.055c0.007,0.012,0.015,0.023,0.022,0.035
		l2.938,5.09h11.757l2.938-5.09h0.002l2.938-5.09l-2.918-5.055c-0.007-0.012-0.015-0.023-0.022-0.035l-2.938-5.09H44.297
		l-2.938,5.09H41.357z M42.22,88.977c0.305-0.205,0.718-0.123,0.922,0.182c0.205,0.305,0.123,0.718-0.182,0.922l-2.413,1.623
		c-0.305,0.205-0.718,0.123-0.922-0.182c-0.205-0.305-0.123-0.718,0.182-0.922L42.22,88.977z M43.492,90.907
		c0.263-0.257,0.683-0.25,0.94,0.013c0.257,0.263,0.25,0.683-0.013,0.94l-2.038,1.988c-0.263,0.257-0.683,0.25-0.94-0.013
		c-0.257-0.263-0.25-0.683,0.013-0.94L43.492,90.907z M45.182,92.483c0.187-0.317,0.595-0.422,0.912-0.235s0.422,0.595,0.235,0.912
		l-1.693,2.853c-0.187,0.317-0.595,0.422-0.912,0.235s-0.422-0.595-0.235-0.912L45.182,92.483z M47.223,93.565
		c0.1-0.353,0.467-0.56,0.82-0.462c0.353,0.1,0.56,0.467,0.462,0.82l-0.898,3.193c-0.1,0.353-0.467,0.56-0.82,0.462
		c-0.353-0.1-0.56-0.467-0.462-0.82L47.223,93.565z M47.772,66.575l-0.008-0.088c-0.028-0.302-0.062-0.673-0.137-1.023
		c-0.107-0.492-0.298-0.928-0.698-0.842c-0.765,0.165-1.298,0.17-1.728-0.033c-0.452-0.213-0.728-0.617-0.965-1.262
		c-0.078-0.215,0.032-0.455,0.247-0.533s0.455,0.032,0.533,0.247c0.16,0.433,0.317,0.692,0.538,0.797
		c0.243,0.115,0.62,0.097,1.202-0.03c1.058-0.228,1.488,0.568,1.685,1.483c0.072,0.333,0.11,0.687,0.138,0.992
		c0.395-0.103,0.802-0.153,1.208-0.153c0.083,0,0.16,0.002,0.227,0.005c0.067-0.003,0.143-0.005,0.227-0.005
		c0.475,0,0.957,0.067,1.423,0.207c0.03-0.317,0.067-0.692,0.143-1.045c0.197-0.915,0.627-1.712,1.685-1.483
		c0.582,0.125,0.958,0.145,1.202,0.03c0.222-0.105,0.38-0.362,0.538-0.797c0.078-0.215,0.318-0.327,0.533-0.247
		c0.215,0.078,0.327,0.318,0.247,0.533c-0.237,0.645-0.515,1.048-0.965,1.262c-0.43,0.203-0.963,0.197-1.728,0.033
		c-0.4-0.087-0.593,0.35-0.698,0.842c-0.075,0.35-0.11,0.722-0.137,1.023c-0.005,0.058-0.01,0.115-0.015,0.167
		c0.402,0.202,0.783,0.463,1.13,0.787c0.942,0.88,1.615,2.208,1.712,4.027c0.002,0.028,0.003,0.058,0.003,0.088l3.957-4.473
		c0.008-0.012,0.017-0.022,0.027-0.033c0.21-0.263,0.512-0.533,0.85-0.77c0.405-0.283,0.873-0.53,1.297-0.667
		c0.558-0.182,1.092-0.183,1.463,0.103c0.08,0.062,0.152,0.137,0.215,0.225c0.125,0.177,0.238,0.44,0.292,0.705
		c0.042,0.205,0.052,0.422,0.013,0.622c-0.053,0.275-0.188,0.52-0.438,0.695c-0.117,0.082-0.253,0.142-0.412,0.173
		c-0.043,0.008-0.087,0.013-0.13,0.013v0.003c-0.41,0-0.743-0.123-1.077-0.247c-0.362-0.133-0.723-0.267-1.108,0.062l-4.148,4.69
		c0.247,0.298,0.462,0.625,0.64,0.978c1.077-0.372,2.438-0.995,3.937-1.682c3.533-1.618,7.793-3.57,11.305-3.573
		c2.102-0.002,4.028,1.145,5.195,2.753c0.57,0.785,0.962,1.685,1.112,2.623c0.152,0.953,0.052,1.94-0.37,2.878
		c-0.747,1.66-2.488,3.15-5.608,3.982c-0.315,0.083-1.383,0.665-1.737,0.858l-0.028,0.015c-0.243,0.133-0.485,0.248-0.725,0.348
		c0.037,0.388,0.003,0.775-0.088,1.15c-0.173,0.712-0.558,1.37-1.062,1.893c-0.507,0.527-1.14,0.923-1.807,1.1
		c-0.467,0.125-0.95,0.142-1.422,0.027l-0.013-0.003c-0.047,0.095-0.098,0.185-0.157,0.273c-0.323,0.485-0.823,0.848-1.393,1.053
		c-0.552,0.198-1.175,0.253-1.763,0.128c-0.348-0.073-0.685-0.208-0.992-0.413c-0.84-0.558-2.45-2.357-3.953-4.395
		c-1.28-1.735-2.503-3.665-3.128-5.17c-0.08-0.193-0.14-0.385-0.183-0.575c-0.165-0.738-0.025-1.357,0.28-1.843
		c0.298-0.478,0.752-0.818,1.228-1.015c0.023-0.01,0.048-0.02,0.072-0.028c-0.49-0.837-1.292-1.463-2.248-1.877
		c-0.927-0.402-2-0.602-3.08-0.602c-1.08,0-2.153,0.2-3.08,0.602c-0.955,0.413-1.758,1.04-2.248,1.877
		c0.025,0.01,0.048,0.018,0.072,0.028c0.475,0.198,0.928,0.537,1.228,1.015c0.305,0.488,0.445,1.107,0.28,1.843
		c-0.043,0.19-0.103,0.382-0.183,0.575c-0.625,1.505-1.848,3.435-3.128,5.17c-1.503,2.038-3.113,3.837-3.953,4.395
		c-0.307,0.203-0.643,0.338-0.992,0.413c-0.588,0.125-1.212,0.072-1.763-0.128c-0.57-0.205-1.072-0.568-1.393-1.053
		c-0.058-0.087-0.11-0.178-0.157-0.273l-0.013,0.003c-0.472,0.115-0.957,0.097-1.422-0.027c-0.667-0.178-1.3-0.573-1.807-1.1
		c-0.502-0.523-0.887-1.182-1.062-1.893c-0.092-0.373-0.125-0.76-0.088-1.15c-0.24-0.1-0.482-0.215-0.725-0.348l-0.028-0.015
		c-0.353-0.192-1.422-0.773-1.737-0.858c-3.122-0.83-4.863-2.32-5.608-3.982c-0.422-0.938-0.522-1.925-0.37-2.878
		c0.15-0.937,0.542-1.838,1.112-2.623c1.167-1.608,3.092-2.755,5.195-2.753c3.512,0.002,7.772,1.953,11.305,3.573
		c1.498,0.687,2.86,1.31,3.937,1.682c0.177-0.353,0.392-0.678,0.64-0.978l-4.148-4.69c-0.385-0.33-0.747-0.195-1.108-0.062
		c-0.333,0.123-0.667,0.247-1.077,0.247v-0.003c-0.043,0-0.087-0.005-0.13-0.013c-0.158-0.032-0.295-0.092-0.412-0.173
		c-0.25-0.175-0.385-0.42-0.438-0.695c-0.038-0.2-0.028-0.417,0.013-0.622c0.053-0.265,0.167-0.527,0.292-0.705
		c0.063-0.09,0.135-0.165,0.215-0.225c0.373-0.285,0.905-0.285,1.463-0.103c0.423,0.137,0.892,0.383,1.297,0.667
		c0.338,0.237,0.64,0.507,0.85,0.77c0.01,0.01,0.018,0.022,0.027,0.033l3.957,4.473c0.002-0.043,0.003-0.085,0.005-0.125
		c0.095-1.797,0.712-3.11,1.593-3.982c0.373-0.37,0.793-0.658,1.24-0.87V66.575z M38.225,76.437c0.213-0.087,0.455,0.017,0.542,0.23
		s-0.017,0.455-0.23,0.542c-0.435,0.177-0.827,0.357-1.22,0.535c-1.502,0.687-3.025,1.382-5.372,1.44
		c-0.23,0.005-0.42-0.177-0.425-0.405c-0.005-0.23,0.177-0.42,0.405-0.425c2.177-0.053,3.622-0.713,5.047-1.365
		C37.395,76.795,37.817,76.602,38.225,76.437z M35.98,85.363c0.025,0.062,0.057,0.122,0.093,0.177
		c0.16,0.242,0.423,0.427,0.732,0.538c0.327,0.118,0.693,0.15,1.04,0.077c0.19-0.04,0.372-0.112,0.533-0.22
		c0.68-0.452,2.03-1.962,3.372-3.745c-0.73-0.47-3.063,1.223-4.758,2.455c-0.365,0.265-0.703,0.512-1.012,0.72V85.363z
		 M42.533,81.112c0.603-0.857,1.17-1.733,1.635-2.553c-1.41-0.38-3.085,0.553-4.9,1.565c-2.285,1.273-4.767,2.657-7.533,2.113
		c0.007,0.147,0.027,0.292,0.062,0.435c0.117,0.475,0.38,0.923,0.728,1.283c0.343,0.357,0.76,0.622,1.187,0.735
		c0.262,0.07,0.525,0.082,0.772,0.022c0.218-0.053,0.9-0.548,1.727-1.148C38.247,82.085,41.027,80.067,42.533,81.112z M44.793,77.36
		c0.062-0.133,0.12-0.265,0.173-0.392c0.053-0.13,0.092-0.247,0.115-0.352c0.08-0.357,0.022-0.64-0.113-0.855
		c-0.14-0.223-0.367-0.388-0.608-0.49c-0.088-0.037-0.172-0.063-0.248-0.08c-1.302-0.29-3.083-1.107-5.103-2.033
		c-3.415-1.565-7.532-3.452-10.752-3.453c-1.655-0.002-3.182,0.917-4.117,2.207c-0.452,0.623-0.762,1.327-0.877,2.05
		c-0.113,0.707-0.038,1.437,0.272,2.128c0.592,1.318,2.053,2.523,4.733,3.237c0.465,0.123,1.645,0.765,2.035,0.978l0.028,0.015
		c2.963,1.613,5.763,0.052,8.293-1.358c2.177-1.213,4.177-2.328,6.17-1.603L44.793,77.36z M58.387,88.037
		c-0.325-0.172-0.45-0.573-0.278-0.898c0.172-0.325,0.573-0.45,0.898-0.278l1.98,1.04c0.325,0.172,0.45,0.573,0.278,0.898
		c-0.172,0.325-0.573,0.45-0.898,0.278L58.387,88.037z M57.288,90.082c-0.305-0.205-0.387-0.617-0.182-0.922
		c0.205-0.305,0.617-0.387,0.922-0.182l2.413,1.623c0.305,0.205,0.387,0.617,0.182,0.922c-0.205,0.305-0.617,0.387-0.922,0.182
		L57.288,90.082z M55.83,91.86c-0.263-0.257-0.268-0.677-0.013-0.94c0.257-0.263,0.677-0.268,0.94-0.013l2.038,1.988
		c0.263,0.257,0.268,0.677,0.013,0.94c-0.257,0.263-0.677,0.268-0.94,0.013L55.83,91.86z M53.922,93.16
		c-0.187-0.317-0.082-0.725,0.235-0.912c0.317-0.187,0.725-0.082,0.912,0.235l1.693,2.853c0.187,0.317,0.082,0.725-0.235,0.912
		s-0.725,0.082-0.912-0.235L53.922,93.16z M51.745,93.925c-0.1-0.353,0.107-0.722,0.462-0.82c0.353-0.1,0.722,0.107,0.82,0.462
		l0.898,3.193c0.1,0.353-0.107,0.722-0.462,0.82c-0.353,0.1-0.722-0.107-0.82-0.462L51.745,93.925z M49.445,94.1
		c-0.005-0.367,0.29-0.668,0.657-0.672c0.367-0.005,0.668,0.29,0.672,0.657l0.042,3.317c0.005,0.367-0.29,0.668-0.657,0.672
		c-0.367,0.005-0.668-0.29-0.672-0.657L49.445,94.1z M53.935,71.013c-0.158-1.165-0.623-2.022-1.24-2.598
		c-0.695-0.65-1.588-0.955-2.452-0.955c-0.053,0-0.118,0.002-0.193,0.007c-0.025,0.002-0.048,0.002-0.073,0
		c-0.073-0.003-0.137-0.005-0.188-0.005c-0.845,0-1.678,0.298-2.318,0.93c-0.585,0.578-1.015,1.443-1.16,2.627
		c0.07-0.032,0.138-0.063,0.21-0.095c1.103-0.478,2.358-0.717,3.605-0.717c1.247,0,2.502,0.238,3.605,0.717
		c0.068,0.03,0.137,0.06,0.203,0.092L53.935,71.013z M75.075,74.413c-0.003,0.23-0.192,0.412-0.422,0.408s-0.412-0.192-0.408-0.422
		c0.01-0.487-0.27-1.007-0.707-1.42c-0.443-0.422-1.042-0.725-1.662-0.773c-0.23-0.017-0.402-0.217-0.383-0.447
		c0.017-0.23,0.217-0.402,0.447-0.383c0.82,0.063,1.6,0.457,2.173,1c0.597,0.567,0.978,1.308,0.963,2.035L75.075,74.413z
		 M61.713,77.21c-0.213-0.087-0.315-0.328-0.23-0.542c0.087-0.213,0.328-0.315,0.542-0.23c0.407,0.165,0.83,0.358,1.253,0.552
		c1.425,0.652,2.87,1.312,5.047,1.365c0.23,0.005,0.41,0.195,0.405,0.425c-0.005,0.23-0.195,0.41-0.425,0.405
		c-2.347-0.057-3.87-0.753-5.372-1.44C62.54,77.565,62.148,77.387,61.713,77.21z M68.515,82.238
		c-2.767,0.543-5.248-0.84-7.533-2.113c-1.815-1.012-3.49-1.945-4.9-1.565c0.465,0.82,1.033,1.697,1.635,2.553
		c1.507-1.043,4.287,0.973,6.323,2.452c0.827,0.6,1.508,1.095,1.727,1.148c0.247,0.06,0.51,0.048,0.772-0.022
		c0.427-0.113,0.843-0.378,1.187-0.735c0.347-0.362,0.612-0.81,0.728-1.283C68.488,82.53,68.51,82.385,68.515,82.238z M58.5,82.19
		c1.342,1.785,2.692,3.293,3.372,3.745c0.162,0.107,0.343,0.18,0.533,0.22c0.347,0.073,0.713,0.042,1.04-0.077
		c0.308-0.112,0.572-0.297,0.732-0.538c0.037-0.055,0.068-0.115,0.093-0.177c-0.307-0.21-0.647-0.457-1.012-0.72
		c-1.695-1.23-4.028-2.923-4.758-2.455V82.19z M55.285,76.97c0.053,0.127,0.11,0.258,0.173,0.392c1.993-0.725,3.993,0.39,6.17,1.603
		c2.53,1.41,5.33,2.97,8.293,1.358l0.028-0.015c0.39-0.212,1.568-0.853,2.035-0.978c2.68-0.713,4.142-1.917,4.733-3.237
		c0.31-0.692,0.383-1.42,0.272-2.128c-0.115-0.723-0.425-1.427-0.877-2.05c-0.935-1.29-2.462-2.207-4.117-2.207
		c-3.22,0.002-7.338,1.888-10.752,3.453c-2.02,0.927-3.803,1.743-5.103,2.033c-0.077,0.017-0.16,0.043-0.248,0.08
		c-0.242,0.1-0.468,0.265-0.608,0.49c-0.133,0.215-0.192,0.498-0.113,0.855c0.023,0.105,0.062,0.222,0.115,0.352L55.285,76.97z"/>
</g>
</svg>
