<svg height='100px' width='100px'  fill="#000000" xmlns:x="http://ns.adobe.com/Extensibility/1.0/" xmlns:i="http://ns.adobe.com/AdobeIllustrator/10.0/" xmlns:graph="http://ns.adobe.com/Graphs/1.0/" xmlns="http://www.w3.org/2000/svg" xmlns:xlink="http://www.w3.org/1999/xlink" version="1.1" x="0px" y="0px" viewBox="0 0 100 100" style="enable-background:new 0 0 100 100;" xml:space="preserve"><g><g i:extraneous="self"><g><path d="M80.2,45.4h17.3C95.4,22.7,77.3,4.6,54.6,2.5v17.3C67.8,21.7,78.3,32.2,80.2,45.4z"></path><path d="M45.6,19.8V2.5C33,3.7,21.8,9.8,14,18.9l14.1,9.9C32.6,24.1,38.8,20.8,45.6,19.8z"></path><path d="M50.1,80.4c-1.9,0-3.8-0.2-5.6-0.5l-5.6,16.2c3.6,0.9,7.4,1.4,11.3,1.4c24.8,0,45.1-18.9,47.4-43.1H80.2     C78.1,69.1,65.4,80.4,50.1,80.4z"></path><path d="M19.6,49.9c0-4.9,1.2-9.6,3.3-13.7L8.8,26.3c-4,7-6.3,15-6.3,23.6c0,19.2,11.4,35.7,27.8,43.3L36,76.9     C26.2,71.8,19.6,61.6,19.6,49.9z"></path><path d="M47.4,67.5v3.6c0,0.6,0.5,1,1,1h3.8c0.6,0,1-0.5,1-1v-3.6l0.4-0.1c2.7-0.5,4.9-1.6,6.5-3.3c1.7-1.8,2.6-4.2,2.6-7     c0-0.7-0.1-1.5-0.2-2.1c-0.1-0.7-0.3-1.3-0.5-1.8c-0.2-0.5-0.5-1.1-0.8-1.6c-0.3-0.5-0.7-0.9-1.1-1.3c-0.4-0.4-0.9-0.7-1.4-1.1     c-0.5-0.3-1.1-0.6-1.6-0.9c-0.4-0.2-1-0.5-1.9-0.8c-0.7-0.3-1.4-0.5-2-0.7c-0.6-0.2-1.4-0.4-2.2-0.7c-2-0.6-3.3-1.2-4.1-1.8     c-0.8-0.5-1.2-1.2-1.2-2c0-0.8,0.3-1.5,1-2c0.7-0.5,1.7-0.7,2.9-0.7c2.3,0,4.8,0.8,7.2,2.4c0.4,0.3,1,0.2,1.4-0.2l3.1-3.9     c0.2-0.2,0.3-0.5,0.2-0.8c0-0.3-0.2-0.5-0.4-0.7c-1-0.7-2.2-1.4-3.5-2c-1.4-0.6-2.8-1.1-4.2-1.5l-0.4-0.1v-4.2c0-0.6-0.5-1-1-1     h-3.8c-0.6,0-1,0.5-1,1v3.9L47,32.7c-2.7,0.4-4.9,1.5-6.5,3.2c-1.7,1.9-2.6,4.2-2.6,6.9c0,0.6,0.1,1.3,0.1,1.9     c0.1,0.6,0.3,1.2,0.5,1.6c0.2,0.5,0.4,1,0.7,1.4c0.3,0.4,0.6,0.9,1,1.2c0.4,0.4,0.8,0.7,1.1,1c0.4,0.3,0.8,0.6,1.4,0.9     c0.5,0.3,1,0.5,1.4,0.7c0.5,0.2,1,0.5,1.6,0.7l0.5,0.2c0.4,0.1,0.8,0.3,1.1,0.4l1.7,0.6c0.7,0.2,1.4,0.4,1.9,0.6     c0.5,0.2,1,0.4,1.5,0.6c0.4,0.2,0.8,0.4,1.1,0.6c0.3,0.2,0.5,0.4,0.7,0.7c0.2,0.3,0.3,0.5,0.4,0.8c0.1,0.3,0.1,0.6,0.1,1     c0,0.9-0.4,1.6-1.1,2.2c-1.6,1.2-4.5,1.1-7.6-0.2c-1.4-0.6-2.7-1.4-3.9-2.4c-0.2-0.2-0.4-0.3-0.7-0.3h0c-0.3,0-0.6,0.1-0.8,0.4     l-3.2,3.9c-0.3,0.4-0.3,1,0.1,1.4c2.6,2.5,5.8,4.1,9.3,4.7L47.4,67.5z"></path></g></g></g></svg>