<svg height='100px' width='100px'  fill="#000000" xmlns="http://www.w3.org/2000/svg" xmlns:xlink="http://www.w3.org/1999/xlink" version="1.1" x="0px" y="0px" viewBox="0 0 64 64" style="enable-background:new 0 0 64 64;" xml:space="preserve"><g><rect x="54" y="28" width="2" height="2"></rect><rect x="48" y="7" width="2" height="2"></rect><path d="M28.125,38.219C26.774,37.139,26,35.527,26,33.798V32h-2v1.798c0,2.34,1.048,4.521,2.875,5.982   c1.031,0.825,1.722,1.96,1.994,3.219H3.131c0.271-1.26,0.963-2.394,1.994-3.219C6.952,38.319,8,36.138,8,33.798V32H6v1.798   c0,1.729-0.774,3.34-2.125,4.421C2.048,39.681,1,41.862,1,44.202V58c0,2.757,2.243,5,5,5h20c2.757,0,5-2.243,5-5V44.202   C31,41.862,29.952,39.681,28.125,38.219z M16.899,45c-0.465,2.279-2.484,4-4.899,4s-4.434-1.721-4.899-4H16.899z M26,61H6   c-1.654,0-3-1.346-3-3V45h2.08c0.488,3.387,3.401,6,6.92,6s6.432-2.613,6.92-6H29v13C29,59.654,27.654,61,26,61z"></path><path d="M29,24h-2.719l1.689-6.757L28,14H4v3l1.724,7H3v6h26V24z M6,16.877V16h20v0.877L24.219,24H7.781L6,16.877z M27,28H5v-2h22   V28z"></path><path d="M23,50c-1.654,0-3,1.346-3,3s1.346,3,3,3s3-1.346,3-3S24.654,50,23,50z M23,54c-0.551,0-1-0.449-1-1s0.449-1,1-1   s1,0.449,1,1S23.551,54,23,54z"></path><rect x="8" y="55" width="2" height="2"></rect><path d="M58.81,49.594C61.324,47.995,63,45.193,63,42c0-3.672-2.214-6.833-5.374-8.231C59.065,32.672,60,30.945,60,29   c0-2.316-1.321-4.326-3.247-5.326C58.121,22.574,59,20.889,59,19c0-3.03-2.259-5.535-5.18-5.937C55.16,11.787,56,9.992,56,8   c0-3.86-3.14-7-7-7s-7,3.14-7,7c0,1.958,0.81,3.728,2.11,5h-0.962C40.861,13,39,14.861,39,17.148c0,1.505,0.817,2.895,2.133,3.625   l3.884,2.158c0.044,0.024,0.089,0.045,0.133,0.068H42c-3.309,0-6,2.691-6,6s2.691,6,6,6h0.66c-0.823,0.299-1.641,0.62-2.445,0.986   l-0.707,0.321C36.77,37.552,35,40.3,35,43.309c0,2.433,1.138,4.601,2.907,6.012C35.066,50.212,33,52.869,33,56c0,3.86,3.14,7,7,7   h16c3.86,0,7-3.14,7-7C63,53.14,61.274,50.679,58.81,49.594z M44,8c0-2.757,2.243-5,5-5s5,2.243,5,5s-2.243,5-5,5S44,10.757,44,8z    M45.989,21.184l-3.885-2.158C41.423,18.647,41,17.927,41,17.148C41,15.963,41.963,15,43.148,15H53c2.206,0,4,1.794,4,4   s-1.794,4-4,4C50.552,23,48.128,22.372,45.989,21.184z M42,33c-2.206,0-4-1.794-4-4s1.794-4,4-4h12c2.206,0,4,1.794,4,4   s-1.794,4-4,4H42z M37,43.309c0-2.226,1.31-4.26,3.336-5.181l0.706-0.321C45.14,35.944,49.5,35,54,35c3.86,0,7,3.14,7,7   s-3.14,7-7,7H42.691C39.553,49,37,46.447,37,43.309z M56,61H40c-2.757,0-5-2.243-5-5s2.243-5,5-5h2.691H54h2c2.757,0,5,2.243,5,5   S58.757,61,56,61z"></path><rect x="54" y="45" width="2" height="2"></rect><rect x="51" y="57" width="2" height="2"></rect><rect x="9" y="18" width="2" height="2"></rect><rect x="13" y="20" width="2" height="2"></rect><rect x="20" y="18" width="2" height="2"></rect><rect x="39" y="53" width="2" height="2"></rect><rect x="48" y="39" width="2" height="2"></rect><rect x="42" y="29" width="2" height="2"></rect><rect x="50" y="17" width="2" height="2"></rect></g></svg>