<svg height='100px' width='100px'  fill="#000000" xmlns="http://www.w3.org/2000/svg" xmlns:xlink="http://www.w3.org/1999/xlink" version="1.1" x="0px" y="0px" viewBox="0 0 100 100" style="enable-background:new 0 0 100 100;" xml:space="preserve"><g><path d="M56.585,75.316c-1.622-0.214-3.218-0.584-4.792-1.022c-3.144-0.895-6.196-2.11-9.134-3.548   c-2.939-1.433-5.779-3.086-8.409-5.025c-1.308-0.976-2.576-2.014-3.726-3.174c-1.178-1.138-2.191-2.438-2.904-3.946   c0.396,1.632,1.332,3.1,2.357,4.43c1.057,1.319,2.261,2.515,3.549,3.604c2.569,2.195,5.467,3.958,8.477,5.458   c3.032,1.455,6.206,2.648,9.512,3.338c1.648,0.353,3.328,0.576,5.017,0.619c1.68,0.01,3.404-0.12,4.967-0.728   C59.852,75.596,58.206,75.568,56.585,75.316z"></path><path d="M22.201,54.574c-0.28-0.672-0.568-1.341-0.901-1.991c-0.32-0.658-0.697-1.284-1.074-1.932   c-0.019,0.768,0.164,1.498,0.347,2.209c0.187,0.714,0.437,1.403,0.7,2.086c0.559,1.352,1.196,2.675,2.137,3.863   C23.199,57.312,22.731,55.932,22.201,54.574z"></path><path d="M60.644,34.565c0.013,0.02,0.031,0.035,0.051,0.045c0.032,0.015,0.07,0.017,0.105,0.002   c0.056-0.025,0.086-0.088,0.07-0.147c-0.567-2.117-1.249-4.905-1.483-7.686c-0.229-3.139,0.235-5.356,1.417-6.777   c0.002-0.001,0.003-0.003,0.004-0.004c0.298-0.395,0.689-0.75,1.194-1.084l1.702-1.015c1.019-0.703,2.199-1.57,3.221-2.666   c1.475-1.572,3.318-4.108,3.731-7.266c0.008-0.062-0.034-0.12-0.089-0.137c-0.059-0.017-0.121,0.011-0.148,0.066   c-1.034,2.175-2.629,4.202-4.737,6.02c-1.078,0.871-2.092,1.577-3.095,2.153c-0.196,0.099-0.387,0.205-0.579,0.312l-1.182,0.668   c-0.724,0.452-1.319,0.969-1.768,1.534c-1.146,1.424-1.541,3.068-1.67,4.197c-0.148,1.359-0.078,2.786,0.211,4.243   C58.129,29.71,59.153,32.247,60.644,34.565z"></path><path d="M67.629,18.491l-0.216,0.114c-0.298,0.157-0.579,0.306-0.873,0.502l-1.109,0.753c-0.24,0.203-0.472,0.426-0.697,0.64   c-0.097,0.094-0.195,0.188-0.3,0.286c-0.217,0.235-0.414,0.493-0.603,0.744c-0.083,0.109-0.166,0.218-0.254,0.331   c-0.996,1.431-1.52,3.267-1.474,5.171c0.034,1.817,0.546,3.519,1.481,4.921c0.013,0.019,0.03,0.034,0.05,0.043   c0.029,0.014,0.064,0.017,0.096,0.006c0.054-0.019,0.088-0.072,0.083-0.129c-0.162-1.806-0.132-3.352,0.09-4.725   c0.255-1.566,0.772-2.921,1.532-4.02c0.091-0.115,0.178-0.233,0.264-0.352c0.123-0.169,0.251-0.344,0.39-0.503l0.741-0.79   l0.846-0.728L68.627,20c0.683-0.537,1.335-1.11,1.887-1.601c0.097-0.093,0.194-0.184,0.292-0.276   c0.205-0.192,0.41-0.385,0.612-0.591l0.037-0.039c0.002-0.003,0.005-0.005,0.007-0.008c0.003-0.003,0.006-0.006,0.009-0.009   l0.023-0.021c0.065-0.052,0.134-0.163,0.134-0.331c0.02-0.075-0.003-0.151-0.064-0.209c-0.113-0.108-0.396-0.163-0.485-0.119   c-0.008,0.004-1.248,0.581-1.25,0.581C69,17.775,68.309,18.116,67.629,18.491z"></path><path d="M70.752,22.546c-0.675,0.612-1.361,1.199-2.086,1.821c-0.58,0.497-1.167,1-1.754,1.521   c-0.043,0.038-0.054,0.101-0.028,0.152c0.013,0.024,0.033,0.043,0.056,0.054c0.026,0.012,0.056,0.016,0.085,0.008   c1.618-0.41,3.238-1.123,4.817-2.12c1.367-0.881,2.906-2.028,3.951-3.853c0.001-0.003,0.003-0.005,0.004-0.008l0.083-0.17   c0.086-0.173,0.17-0.346,0.249-0.54l0.223-0.786c0.084-0.473,0.141-0.897,0.182-1.337l0.014-0.191   c0.063-0.827,0.122-1.609,0.116-2.404c0.01-0.398,0.009-0.794,0.008-1.188c-0.001-0.441-0.001-0.897,0.014-1.342   c-0.003-0.364,0.024-0.748,0.087-1.203c0.059-0.364,0.143-0.743,0.455-1.012c0.044-0.037,0.056-0.099,0.031-0.15   c-0.026-0.05-0.082-0.079-0.138-0.067c-0.586,0.121-0.964,0.707-1.098,0.95c-0.246,0.425-0.415,0.88-0.549,1.273   c-0.234,0.753-0.428,1.564-0.609,2.551c-0.094,0.435-0.167,0.873-0.238,1.297c-0.065,0.392-0.133,0.797-0.215,1.188   c-0.025,0.123-0.047,0.249-0.071,0.374c-0.052,0.276-0.105,0.561-0.165,0.802c-0.053,0.152-0.098,0.304-0.133,0.436l-0.226,0.453   C73.086,20.35,71.795,21.601,70.752,22.546z"></path><path d="M68.041,28.791c-0.038-0.027-0.085-0.034-0.129-0.014c-0.042,0.019-0.069,0.06-0.072,0.106   c-0.018,0.289-0.033,0.569-0.047,0.839c-0.069,1.31-0.128,2.442-0.424,3.414c-0.174,0.619-0.419,1.146-0.777,1.665   c-0.204,0.352-0.47,0.673-0.776,1.045c-0.198,0.24-0.403,0.49-0.615,0.774c-0.027,0.037-0.032,0.086-0.013,0.128   c0.012,0.026,0.034,0.047,0.059,0.059c0.015,0.007,0.03,0.011,0.047,0.012c0.954,0.054,1.846-0.199,2.576-0.727   c0.783-0.517,1.403-1.387,1.659-2.326c0.256-0.881,0.245-1.863-0.031-2.77C69.181,30.02,68.704,29.299,68.041,28.791z"></path><path d="M77.87,51.109c-0.677-0.423-1.366-0.721-2.051-0.938c-2.299-4.451-8.34-9.584-16.456-13.498   c-11.913-5.746-23.118-6.378-25.587-1.407l-0.004-0.002c-0.005,0.01-0.008,0.022-0.013,0.032c-0.003,0.006-0.006,0.011-0.009,0.016   l-2.525,6.032c-0.124-0.397-0.267-0.79-0.443-1.174c-1.886-4.121-6.195-6.19-9.808-4.713c-0.877,0.358-2.209,1.305-2.224,1.316   c-2.764,2.036-3.284,5.89-3.347,6.463c-1.08,5.202,4.909,19.244,5.599,20.834c0.065,0.151,0.214,0.543,0.367,0.828l-2.176,5.199   l0.027,0.012c-1.87,5.192,4.353,12.394,15.456,17.749c11.487,5.541,21.27,5.762,23.765,0.587l13.911-25.316   c0.141,1.289,0.228,2.795,0.228,4.574c0,1.676,1.359,3.035,3.035,3.035c1.45,0,2.659-1.019,2.959-2.378   c0.05,0.969,0.084,1.992,0.084,3.118c0,1.676,1.359,3.035,3.035,3.035c1.676,0,3.035-1.359,3.035-3.035   C84.728,60.652,82.484,53.989,77.87,51.109z M59.838,50.387c-1.327,0.184-4.866-1.217-5.759-1.217   c-0.516,0-2.324,0.811-3.762,1.496c-5.284-2.877-9.915-6.586-12.17-9.752c4.279-0.324,11.296,1.41,17.523,4.414   c2.621,1.265,5.149,2.779,7.383,4.373C62.11,49.934,60.677,50.271,59.838,50.387z M35.573,36.132   c2.01-4.166,13.692-2.11,22.921,2.342c6.109,2.947,12.061,7.387,14.807,11.261c-0.841-0.029-1.636,0.05-2.342,0.19   c-1.733-0.534-3.318-0.362-4.429-0.091c-2.813-2.296-6.293-4.523-9.991-6.307c-7.468-3.601-15.805-5.392-20.274-4.352l-0.564,0.131   C35.215,38.122,35.136,37.039,35.573,36.132z M17.368,43.608c0.009-0.042,0.016-0.084,0.02-0.126   c0.003-0.035,0.337-3.471,2.534-5.09c0.299-0.212,1.274-0.866,1.809-1.084c2.618-1.071,5.794,0.553,7.233,3.695   c0.641,1.4,0.843,2.917,0.603,4.304l-1.414,3.38c-0.099-0.445-0.202-0.91-0.305-1.373c-0.04-0.403-0.092-0.805-0.159-1.207   c-0.133-0.748-0.312-1.496-0.59-2.227c-0.27-0.734-0.618-1.464-1.161-2.12c-0.522-0.654-1.302-1.263-2.256-1.409   c-0.951-0.16-1.821,0.035-2.621,0.556c-0.794,0.521-1.212,1.341-1.46,2.102c-0.236,0.782-0.313,1.554-0.262,2.349l0.008-0.065   c-0.074,0.805,0.091,1.535,0.312,2.24c0.055-0.732,0.112-1.474,0.332-2.098l0.008-0.065c0.134-0.765,0.384-1.553,0.747-2.195   c0.046,3.622,1.94,9.477,3.746,14.258l-2.053,4.906C20.449,57.576,16.578,47.181,17.368,43.608z M27.163,51.049l-1.823,4.355   c-2.405-6.618-3.469-11.378-2.999-13.506c0.004-0.019-0.002-0.038,0.001-0.057c0.36-0.091,0.749-0.123,1.067-0.048   c0.518,0.103,0.984,0.441,1.401,0.908c0.45,0.542,0.814,1.203,1.133,1.911C26.216,45.863,26.888,49.539,27.163,51.049z    M56.663,87.527c-1.653,3.427-9.616,4.076-21.119-1.472c-11.503-5.548-15.953-12.184-14.3-15.612L33.937,40.05   c1.918,4.638,8.222,10.193,16.869,14.364c8.049,3.883,15.774,5.427,20.694,4.504c0.106,0.316,0.207,0.67,0.305,1.053L56.663,87.527   z"></path></g></svg>