<svg height='100px' width='100px'  fill="#000000" xmlns="http://www.w3.org/2000/svg" viewBox="0 0 48 48" x="0px" y="0px"><title>15-bitcoin</title><g data-name="15-bitcoin"><path d="M45,48H3a3,3,0,0,1-3-3V41a1,1,0,0,1,1-1H15v2H2v3a1,1,0,0,0,1,1H45a1,1,0,0,0,1-1V42H33V40H47a1,1,0,0,1,1,1v4A3,3,0,0,1,45,48Z"></path><path d="M45,41H43V13a1,1,0,0,0-1-1H29V10H42a3,3,0,0,1,3,3Z"></path><path d="M5,41H3V13a3,3,0,0,1,3-3H19v2H6a1,1,0,0,0-1,1Z"></path><path d="M28,44H20a3,3,0,0,1-3-3V40h2v1a1,1,0,0,0,1,1h8a1,1,0,0,0,1-1V40h2v1A3,3,0,0,1,28,44Z"></path><path d="M41,38H39V16H29V14H40a1,1,0,0,1,1,1Z"></path><path d="M9,38H7V15a1,1,0,0,1,1-1H19v2H9Z"></path><path d="M24,39a3,3,0,0,1-3-3V7a1,1,0,0,1,1-1h4a1,1,0,0,1,1,1V36A3,3,0,0,1,24,39ZM23,8V36a1,1,0,0,0,2,0V8Z"></path><path d="M28,8H20a1,1,0,0,1-1-1V1a1,1,0,0,1,1-1h8a1,1,0,0,1,1,1V7A1,1,0,0,1,28,8ZM21,6h6V2H21Z"></path><path d="M40,7H28V5H38.221C36.992,4.08,34.091,3,28,3V1C40.635,1,41,5.488,41,6A1,1,0,0,1,40,7Z"></path><path d="M20,7H8A1,1,0,0,1,7,6c0-.512.365-5,13-5V3C13.951,3,11.048,4.065,9.8,5H20Z"></path><rect x="22" y="10" width="4" height="2"></rect><path d="M16,28H14V19a1,1,0,0,1,1.707-.707l3,3-1.414,1.414L16,21.414Z"></path><rect x="11.379" y="19.5" width="4.243" height="2" transform="translate(-10.542 15.55) rotate(-45)"></rect><rect x="14" y="30" width="2" height="2"></rect><path d="M34,34H32V25a1,1,0,0,1,1.707-.707l3,3-1.414,1.414L34,27.414Z"></path><rect x="29.379" y="25.5" width="4.243" height="2" transform="translate(-9.512 30.036) rotate(-45)"></rect><rect x="32" y="36" width="2" height="2"></rect></g></svg>