<svg height='100px' width='100px'  fill="#000000" xmlns="http://www.w3.org/2000/svg" viewBox="0 0 211.16 441.27" x="0px" y="0px"><title>smoothie, drink, fresh, food, meal, fast, restaurant, junk, fastfood</title><g data-name="Layer 2"><g data-name="smoothie, drink, fresh, food, meal, fast, restaurant, junk, fastfood"><path d="M108,181.68a5.39,5.39,0,0,0,0-10.78H103.8a5.39,5.39,0,0,0,0,10.78Z"></path><path d="M79.89,107.71A5.39,5.39,0,0,0,77,97.31c-21.85,6-58.95,23.64-66.24,74.45A15.92,15.92,0,0,0,0,186.8V212a5.39,5.39,0,0,0,5.39,5.39H19.56L42.9,436.45a5.39,5.39,0,0,0,5.36,4.82H162.9a5.4,5.4,0,0,0,5.36-4.82L191.6,217.34h14.17a5.4,5.4,0,0,0,5.39-5.39V186.8a15.91,15.91,0,0,0-10.78-15c-5.83-40.77-30.7-60-50.88-69A116.4,116.4,0,0,0,111,93.35V45.5a14.1,14.1,0,0,1,4.61-10.42l28.33-25.7a5.39,5.39,0,1,0-7.24-8L108.34,27.09a24.92,24.92,0,0,0-8.15,18.41v74a5.39,5.39,0,0,0,10.78,0V104.17a106.19,106.19,0,0,1,34.48,8.61c24.58,11.06,39.32,30.6,43.89,58.12H129.5a5.39,5.39,0,0,0,0,10.78h65.76a5.13,5.13,0,0,1,5.12,5.12v19.76H10.78V186.8a5.13,5.13,0,0,1,5.12-5.12H81.63a5.39,5.39,0,0,0,0-10.78H21.83C28.64,130.19,56.84,114,79.89,107.71Zm78.16,322.78H53.1l-4.87-45.77H148.57a5.39,5.39,0,0,0,0-10.78H47.08l-8.53-80.07H172.6Zm15.7-147.4H37.4l-7-65.75H180.76Z"></path><path d="M49.66,256.05c2.59-.18,5.3-.24,8-.18h.15c.34,0,15.51.06,34.8,6.18a68.78,68.78,0,0,0,20.85,3.24,66.2,66.2,0,0,0,24.33-4.58,176.09,176.09,0,0,1,26.39-8.16A5.39,5.39,0,1,0,161.87,242a187.64,187.64,0,0,0-28,8.65,56.75,56.75,0,0,1-38,1.1c-20.47-6.5-36.58-6.68-38-6.69-3-.06-6.08,0-9,.21a5.39,5.39,0,0,0,.77,10.75Z"></path></g></g></svg>