<svg height='100px' width='100px'  fill="#000000" xmlns="http://www.w3.org/2000/svg" xmlns:xlink="http://www.w3.org/1999/xlink" version="1.1" x="0px" y="0px" viewBox="0 0 100 100" enable-background="new 0 0 100 100" xml:space="preserve"><g><g><path d="M10.3,69.6h27.2l-3.5,6h-7.2c-1.9,0-3.5,1.6-3.5,3.5v2.5c0,1.9,1.6,3.5,3.5,3.5h31.3c1.9,0,3.5-1.6,3.5-3.5v-2.5    c0-0.5-0.1-1-0.3-1.4c3.6,2.6,9.3,3.7,13.3,4.1c0.2,0,0.5,0,0.7,0c1.8,0,3.4-0.7,4.7-1.9c2.4-2.4,2.6-6.3,0.3-8.8    c-0.8-0.9-1.6-1.5-2.4-1.9l4.1-4.1c0.4,0.8,1,1.6,1.9,2.4c1.1,1,2.6,1.6,4.2,1.6c1.7,0,3.4-0.7,4.6-1.9c1.4-1.4,2.1-3.4,1.9-5.3    c-0.7-6.4-3-17.2-10.7-16.8c-1.7,0.1-3.1,0.4-4.4,1.1V19.8c0-2.7-2.2-4.9-4.9-4.9H10.3c-2.7,0-4.9,2.2-4.9,4.9v44.8    C5.4,67.4,7.6,69.6,10.3,69.6z M39.8,69.6h5.3l3.5,6H36.3L39.8,69.6z M59.3,75.9c-0.4-0.2-0.8-0.2-1.3-0.2h-7.2l-3.5-6H58    c-0.1,0.5-0.1,1-0.2,1.5C57.8,73,58.3,74.6,59.3,75.9z M59.6,81.6c0,0.8-0.7,1.5-1.5,1.5H26.8c-0.8,0-1.5-0.7-1.5-1.5v-2.5    c0-0.8,0.7-1.5,1.5-1.5h7.8h15.7h7.8c0.8,0,1.5,0.7,1.5,1.5V81.6z M84,47.1c6.3-0.3,8.1,10.4,8.6,15c0.1,1.4-0.3,2.7-1.3,3.7    c-0.8,0.8-2,1.3-3.2,1.3c-1.1,0-2.1-0.4-2.9-1.1c-0.8-0.7-1.7-1.8-1.7-2.9c0-0.4-0.2-0.8-0.6-0.9c-0.4-0.2-0.8-0.1-1.1,0.2    L75.2,69c-0.3,0.3-0.4,0.7-0.2,1.1c0.2,0.4,0.5,0.6,0.9,0.6c1.1,0,2.2,0.9,2.9,1.7c1.6,1.7,1.5,4.4-0.2,6.1c-1,1-2.3,1.5-3.7,1.3    c-4.6-0.5-15.3-2.3-15-8.6c0.3-6.2,4.7-7.1,7.3-7.1c0.6,0,1,0.1,1,0.1c0.3,0,0.6-0.1,0.9-0.3l7.6-7.6c0.2-0.2,0.3-0.5,0.3-0.9    c0,0-0.5-3.5,1.5-5.9C79.6,48,81.5,47.2,84,47.1z M7.4,19.8c0-1.6,1.3-2.9,2.9-2.9h64.3c1.6,0,2.9,1.3,2.9,2.9v27.7    c-0.2,0.2-0.5,0.5-0.7,0.7c-2,2.5-2.1,5.7-2,6.9l-6.9,6.9c-0.2,0-0.4,0-0.7,0c-1.7,0-6.8,0.5-8.6,5.5H10.3c-1.6,0-2.9-1.3-2.9-2.9    V19.8z"></path><path d="M18.4,61.3h48c2.7,0,4.9-2.2,4.9-4.9V28.1c0-2.7-2.2-4.9-4.9-4.9h-48c-2.7,0-4.9,2.2-4.9,4.9v28.3    C13.5,59.1,15.7,61.3,18.4,61.3z M15.5,28.1c0-1.6,1.3-2.9,2.9-2.9h48c1.6,0,2.9,1.3,2.9,2.9v28.3c0,1.6-1.3,2.9-2.9,2.9h-48    c-1.6,0-2.9-1.3-2.9-2.9V28.1z"></path><path d="M70.7,68.8c-0.4-0.4-1-0.4-1.4,0l-1.6,1.6l-1.6-1.6c-0.4-0.4-1-0.4-1.4,0s-0.4,1,0,1.4l1.6,1.6l-1.6,1.6    c-0.4,0.4-0.4,1,0,1.4c0.2,0.2,0.5,0.3,0.7,0.3s0.5-0.1,0.7-0.3l1.6-1.6l1.6,1.6c0.2,0.2,0.5,0.3,0.7,0.3s0.5-0.1,0.7-0.3    c0.4-0.4,0.4-1,0-1.4l-1.6-1.6l1.6-1.6C71.1,69.8,71.1,69.2,70.7,68.8z"></path><path d="M83.5,59c0.2,0.2,0.5,0.3,0.7,0.3s0.5-0.1,0.7-0.3l3.8-3.8c0.4-0.4,0.4-1,0-1.4L84.9,50c-0.4-0.4-1-0.4-1.4,0l-3.8,3.8    c-0.4,0.4-0.4,1,0,1.4L83.5,59z M84.2,52.1l2.4,2.4l-2.4,2.4l-2.4-2.4L84.2,52.1z"></path><path d="M73.3,64.7c-0.2,0.2-0.3,0.4-0.3,0.7c0,0.3,0.1,0.5,0.3,0.7c0.2,0.2,0.5,0.3,0.7,0.3c0.3,0,0.5-0.1,0.7-0.3    c0.2-0.2,0.3-0.4,0.3-0.7c0-0.3-0.1-0.5-0.3-0.7C74.4,64.3,73.7,64.3,73.3,64.7z"></path><path d="M77.5,60.6c-0.2,0.2-0.3,0.4-0.3,0.7c0,0.3,0.1,0.5,0.3,0.7c0.2,0.2,0.4,0.3,0.7,0.3c0.3,0,0.5-0.1,0.7-0.3    c0.2-0.2,0.3-0.5,0.3-0.7c0-0.3-0.1-0.5-0.3-0.7C78.5,60.2,77.8,60.2,77.5,60.6z"></path></g></g></svg>