<svg height='100px' width='100px'  fill="#000000" xmlns:x="http://ns.adobe.com/Extensibility/1.0/" xmlns:i="http://ns.adobe.com/AdobeIllustrator/10.0/" xmlns:graph="http://ns.adobe.com/Graphs/1.0/" xmlns="http://www.w3.org/2000/svg" xmlns:xlink="http://www.w3.org/1999/xlink" version="1.1" x="0px" y="0px" viewBox="0 0 100 100" style="enable-background:new 0 0 100 100;" xml:space="preserve"><g><g><path d="M87.2,59.6c4.1-9.1,6.2-13.6,10.3-22.7c-9.4-8.2-19.5-6-30.6-13.5l1.3-2.9l-2.6-1.2L50,53.8L34.4,19.3l-2.6,1.2l1.3,2.9     C22,30.8,11.9,28.6,2.5,36.8c4.1,9.1,6.2,13.6,10.3,22.7c9.4-7.8,21.6-6.8,30.7-13.4l5,11L38.4,79.5l2.6,1.2l9-20l9,20l2.6-1.2     L51.6,57.2l5-11C65.6,52.7,77.8,51.8,87.2,59.6z M59.7,39.7c1.7,1.2,2.6,1.7,4.5,2.6c0.9-1.9,1.3-2.8,2.1-4.7     c-1.9-0.9-2.8-1.4-4.5-2.6c0.9-1.9,1.3-2.8,2.1-4.7c1.7,1.2,2.6,1.7,4.5,2.6c0.9-1.9,1.3-2.8,2.1-4.7c1.9,0.9,2.9,1.2,4.9,1.9     c-0.9,1.9-1.3,2.8-2.1,4.7c2,0.6,3,0.9,5,1.5c0.9-1.9,1.3-2.8,2.1-4.7c2,0.6,3,0.9,5,1.5c-0.9,1.9-1.3,2.8-2.1,4.7     c2,0.6,3,1,4.9,1.9c0.9-1.9,1.3-2.8,2.1-4.7c1.9,0.9,2.8,1.4,4.5,2.6c-0.9,1.9-1.3,2.8-2.1,4.7c-1.7-1.2-2.6-1.7-4.5-2.6     c-0.9,1.9-1.3,2.8-2.1,4.7c1.9,0.9,2.8,1.4,4.5,2.6c-0.9,1.9-1.3,2.8-2.1,4.7c-1.7-1.2-2.6-1.7-4.5-2.6c-0.9,1.9-1.3,2.8-2.1,4.7     C80,52.9,79,52.6,77,51.9c0.9-1.9,1.3-2.8,2.1-4.7c-2-0.6-3-0.9-5-1.5c-0.9,1.9-1.3,2.8-2.1,4.7c-2-0.6-3-0.9-5-1.5     c0.9-1.9,1.3-2.8,2.1-4.7c-2-0.6-3-1-4.9-1.9c-0.9,1.9-1.3,2.8-2.1,4.7c-1.9-0.9-2.8-1.4-4.5-2.6C58.4,42.5,58.8,41.6,59.7,39.7z      M37.9,47c-0.9-1.9-1.3-2.8-2.1-4.7c-1.9,0.9-2.9,1.2-4.9,1.9c0.9,1.9,1.3,2.8,2.1,4.7c-2,0.6-3,0.9-5,1.5     c-0.9-1.9-1.3-2.8-2.1-4.7c-2,0.6-3,0.9-5,1.5c0.9,1.9,1.3,2.8,2.1,4.7c-2,0.6-3,1-4.9,1.9c-0.9-1.9-1.3-2.8-2.1-4.7     c-1.9,0.9-2.8,1.4-4.5,2.6c-0.9-1.9-1.3-2.8-2.1-4.7c1.7-1.2,2.6-1.7,4.5-2.6c-0.9-1.9-1.3-2.8-2.1-4.7c-1.9,0.9-2.8,1.4-4.5,2.6     c-0.9-1.9-1.3-2.8-2.1-4.7c1.7-1.2,2.6-1.7,4.5-2.6c0.9,1.9,1.3,2.8,2.1,4.7c1.9-0.9,2.9-1.2,4.9-1.9c-0.9-1.9-1.3-2.8-2.1-4.7     c2-0.6,3-0.9,5-1.5c0.9,1.9,1.3,2.8,2.1,4.7c2-0.6,3-0.9,5-1.5c-0.9-1.9-1.3-2.8-2.1-4.7c2-0.6,3-1,4.9-1.9     c0.9,1.9,1.3,2.8,2.1,4.7c1.9-0.9,2.8-1.4,4.5-2.6c0.9,1.9,1.3,2.8,2.1,4.7c-1.7,1.2-2.6,1.7-4.5,2.6c0.9,1.9,1.3,2.8,2.1,4.7     c1.9-0.9,2.8-1.4,4.5-2.6c0.9,1.9,1.3,2.8,2.1,4.7C40.8,45.7,39.8,46.2,37.9,47z"></path><path d="M73.4,34.7c-2-0.6-3-1-4.9-1.9c-0.9,1.9-1.3,2.8-2.1,4.7c1.9,0.9,2.9,1.2,4.9,1.9C72.1,37.5,72.5,36.6,73.4,34.7z"></path><path d="M81.3,42.4c0.9-1.9,1.3-2.8,2.1-4.7c-2-0.6-3-0.9-5-1.5c-0.9,1.9-1.3,2.8-2.1,4.7C78.3,41.5,79.3,41.8,81.3,42.4z"></path><path d="M71.2,39.4c-0.9,1.9-1.3,2.8-2.1,4.7c2,0.6,3,0.9,5,1.5c0.9-1.9,1.3-2.8,2.1-4.7C74.2,40.3,73.2,40.1,71.2,39.4z"></path><path d="M79.1,47.2c2,0.6,3,1,4.9,1.9c0.9-1.9,1.3-2.8,2.1-4.7c-1.9-0.9-2.9-1.2-4.9-1.9C80.4,44.3,80,45.3,79.1,47.2z"></path><path d="M33.7,37.5c-0.9-1.9-1.3-2.8-2.1-4.7c-1.9,0.9-2.9,1.2-4.9,1.9c0.9,1.9,1.3,2.8,2.1,4.7C30.8,38.8,31.8,38.4,33.7,37.5z"></path><path d="M23.7,40.9c-0.9-1.9-1.3-2.8-2.1-4.7c-2,0.6-3,0.9-5,1.5c0.9,1.9,1.3,2.8,2.1,4.7C20.7,41.8,21.7,41.5,23.7,40.9z"></path><path d="M23.7,40.9c0.9,1.9,1.3,2.8,2.1,4.7c2-0.6,3-0.9,5-1.5c-0.9-1.9-1.3-2.8-2.1-4.7C26.8,40.1,25.8,40.3,23.7,40.9z"></path><path d="M13.8,44.3c0.9,1.9,1.3,2.8,2.1,4.7c1.9-0.9,2.9-1.2,4.9-1.9c-0.9-1.9-1.3-2.8-2.1-4.7C16.7,43.1,15.7,43.4,13.8,44.3z"></path></g></g></svg>