<svg height='100px' width='100px'  fill="#000000" xmlns="http://www.w3.org/2000/svg" xmlns:xlink="http://www.w3.org/1999/xlink" version="1.1" x="0px" y="0px" viewBox="0 0 64 64" enable-background="new 0 0 64 64" xml:space="preserve"><g><path d="M34.862,37.932h-5.655c-1.25,0-1.252,1.942,0,1.942h5.655C36.111,39.874,36.113,37.932,34.862,37.932z"></path><path d="M55.156,58.075c-1.574-4.469-6.147-7.345-10.385-8.921c-0.787-0.293-2.001-0.421-2.629-0.992   c-1.16-1.054-0.05-3.053,0.497-4.181c0.566-1.165,1.481-2.052,2.212-3.107c0.723-1.044,1.313-2.164,1.779-3.34   c0.185-0.467,0.623-0.775,1.121-0.849c2.387-0.356,4.019-2.074,4.505-4.538c0.605-3.069-0.436-6.176-3.418-7.167   c-0.523-0.174-0.855-0.692-0.844-1.243c0.067-3.454,0.174-7.218-1.205-10.397c-0.633-1.46-1.688-2.695-3.224-3.228   c-0.782-0.272-1.602-0.336-2.425-0.318c-1.506,0.032-2.159-0.688-3.34-1.477c-3.868-2.583-9.03-2.467-13.32-0.929   c-3.068,1.1-5.589,3.36-6.829,6.374c-1.287,3.127-1.474,6.603-1.502,9.963c-0.005,0.549-0.351,1.049-0.875,1.214   c-3.252,1.027-4.271,4.593-3.323,7.793c0.06,0.203,0.03,0.418-0.088,0.595c-2.035,3.043-2.949,7.484-0.023,10.301   c1.975,1.901,5.966,2.265,6.732,5.158c0.083,0.313-0.088,0.636-0.386,0.761c-2.939,1.233-5.796,3.031-7.756,5.569   C8.562,57.538,7.625,60.948,7.92,64h1.987c0-0.002,0.001-0.003,0.001-0.004h20.298L30.208,64h3.368l0.003-0.004h17.858   c0,0,0.018,0.003,0.024,0.004h2.478c0.033-0.009,0.07-0.013,0.102-0.023c0,0.008,0.004,0.015,0.004,0.023h1.985   C56.086,63.427,56.22,61.099,55.156,58.075C53.229,52.604,56.22,61.099,55.156,58.075z M50.415,30.862   c-0.211,2.646-1.318,3.522-2.514,3.789c-0.184,0.041-0.373-0.078-0.404-0.264c-0.08-0.483-0.515-0.871-1.034-0.844   c-0.835,0.043-0.925,0.863-1.096,1.496c-0.368,1.367-0.926,2.71-1.654,3.924c-1.409,2.349-3.508,4.302-5.983,5.482   c-5.269,2.514-12.054,1.46-15.693-3.074c-2.223-2.771-3.083-6.013-3.399-7.709c-0.08-0.428,0.347-0.772,0.746-0.599   c0.461,0.2,0.976,0.313,1.522,0.313h4.284c1.612,0,3.022-0.977,3.428-2.376l1.338-4.611c0.13-0.45,0.146-0.913,0.058-1.359   c0.593,0.484,0.979,1.213,0.976,2.037l-0.014,3.586c-0.002,0.4-0.326,0.723-0.726,0.723h-0.179c-1.287,0-1.289,2,0,2h1.895h0.004   h1.898c1.287,0,1.289-2,0-2h-0.166c-0.402,0-0.728-0.327-0.726-0.729l0.014-3.573c0.004-0.995-0.315-1.912-0.849-2.67h1.534   c0.388,0,0.674,0.348,0.614,0.732c-0.065,0.413-0.04,0.839,0.079,1.253L35.707,31c0.405,1.399,1.815,2.376,3.428,2.376h4.285   c1.953,0,3.543-1.427,3.543-3.18v-3.112c0.204-0.09,0.387-0.218,0.539-0.377C49.682,27.041,50.581,28.786,50.415,30.862   C50.18,33.806,50.491,29.909,50.415,30.862z M25.92,29.292c0.125,0,0.246-0.007,0.364-0.02c0.372-0.042,0.666,0.301,0.562,0.66   l-0.148,0.511c-0.157,0.54-0.791,0.933-1.508,0.933h-4.284c-0.836,0-1.543-0.54-1.543-1.18v-0.584c0-0.371,0.369-0.605,0.719-0.482   c0.288,0.101,0.641,0.162,1.018,0.162H25.92z M44.308,29.166c0.328-0.099,0.655,0.16,0.655,0.503v0.528   c0,0.64-0.707,1.18-1.543,1.18h-4.285c-0.717,0-1.351-0.393-1.507-0.933l-0.153-0.528c-0.105-0.362,0.197-0.729,0.569-0.667   c0.17,0.028,0.351,0.044,0.539,0.044h4.821C43.733,29.292,44.043,29.246,44.308,29.166z M43.404,24.404h0.016   C43.46,24.407,43.455,24.407,43.404,24.404z M23.031,14.8l6.803,1.099c1.425,0.23,2.879,0.224,4.302-0.02l6.982-1.195   c1.447-0.247,2.833,0.682,3.154,2.114l-0.041,4.841c-0.004,0.436-0.367,0.765-0.803,0.764c-0.003,0-0.006,0-0.008,0H20.906   c-0.034,0-0.067,0.001-0.101,0.002c-0.434,0.014-0.798-0.317-0.808-0.751l-0.104-4.693C20.192,15.518,21.575,14.565,23.031,14.8z    M22.128,47.76c-0.202,0.36-0.486,0.552-0.812,0.687c-0.361,0.15-0.762-0.06-0.877-0.434c-0.782-2.548-3.202-3.501-5.468-4.667   c-1.404-0.723-2.504-1.64-2.87-3.245c-0.346-1.521,0.032-3.071,0.72-4.441c0.158-0.315,0.569-0.387,0.839-0.159   c0.777,0.658,1.758,1.064,2.92,1.195c0.285,0.032,0.528,0.23,0.627,0.499c0.548,1.488,2.153,4.034,3.171,5.294   c0.503,0.622,0.89,1.324,1.193,2.065C21.938,45.453,22.671,46.798,22.128,47.76C21.913,48.142,22.339,47.385,22.128,47.76z    M34.054,57.148L34,57.034c-0.521-1.1-0.42-2.393,0.266-3.398l1.611-2.363c0.409-0.6,0.052-1.419-0.653-1.536   c-0.445-0.074-1.06,0.134-1.501,0.177c-0.553,0.053-1.109,0.08-1.665,0.08c-1,0-2.055-0.296-3.036-0.237   c-0.753,0.045-1.212,0.876-0.762,1.534l1.605,2.341c0.688,1.004,0.792,2.298,0.273,3.399l-0.197,0.418   c-0.33,0.7-1.294,0.779-1.734,0.143l-4.375-6.325c-0.473-0.685-0.556-1.606-0.101-2.303c0.442-0.678,0.602-1.472,0.538-2.291   c-0.035-0.458,0.437-0.786,0.848-0.582c4.286,2.132,9.412,2.164,13.707,0.046c0.41-0.202,0.877,0.126,0.846,0.583   c-0.049,0.722,0.08,1.425,0.426,2.045c0.42,0.753,0.435,1.663-0.055,2.372l-4.256,6.154C35.347,57.925,34.384,57.847,34.054,57.148   z"></path></g></svg>