<svg height='100px' width='100px'  fill="#000000" xmlns="http://www.w3.org/2000/svg" viewBox="0 0 512 512" x="0px" y="0px"><g><path d="M400,264a128.45685,128.45685,0,0,1-28.10864,80H384v-8a24.0275,24.0275,0,0,1,24-24h8a24.01936,24.01936,0,0,1,12.77515-21.20435,112.36836,112.36836,0,0,0,3.1936-24.95385,23.956,23.956,0,0,1-3.8772-31.231,112.57976,112.57976,0,0,0-38.02612-57.99365,110.53732,110.53732,0,0,0-54.16357-23.49243A128.07694,128.07694,0,0,1,400,264Z"></path><circle cx="240" cy="128" r="8"></circle><path d="M472,360H456a8.00039,8.00039,0,0,1-8-8V312a8,8,0,0,0-16,0v8a8.00039,8.00039,0,0,1-8,8H408a8.00917,8.00917,0,0,0-8,8v16a8.00039,8.00039,0,0,1-8,8H344a8.00917,8.00917,0,0,0-8,8v16a8.00039,8.00039,0,0,1-8,8H312a8,8,0,0,0,0,16h52.302A32.12281,32.12281,0,0,1,384,393.0127V392a32.03667,32.03667,0,0,1,32-32h8v16h-8a16.01833,16.01833,0,0,0-16,16v8a8.00039,8.00039,0,0,1-8,8,16.01833,16.01833,0,0,0-16,16,8.00917,8.00917,0,0,0,8,8h56a8.00917,8.00917,0,0,0,8-8,16.01833,16.01833,0,0,0-16-16V392a32.012,32.012,0,0,1,27.69482,16H480V368A8.00917,8.00917,0,0,0,472,360Z"></path><circle cx="448" cy="248" r="8"></circle><path d="M344,344h6.37964A111.99722,111.99722,0,0,0,272,152H201.86914A23.94343,23.94343,0,0,1,184,160H128a39.7393,39.7393,0,0,1-4.91406,19.177A95.40237,95.40237,0,0,1,168,168H272a96,96,0,0,1,0,192H168A95.97745,95.97745,0,0,1,81.19067,223.03809a39.81046,39.81046,0,0,1-20.458,8.67407A112.06464,112.06464,0,0,0,168,376H272a112.37841,112.37841,0,0,0,48.17847-10.876A24.031,24.031,0,0,1,344,344Z"></path><path d="M78.96753,198.95874A40.06186,40.06186,0,0,1,48,160v-8H64v8a24,24,0,0,0,48,0V128h16v16h56a8,8,0,0,0,0-16H144V112h16V96a16,16,0,0,0-32,0v8a8.00039,8.00039,0,0,1-8,8H104a8.00917,8.00917,0,0,0-8,8,8.00039,8.00039,0,0,1-8,8H56a24.0275,24.0275,0,0,0-24,24v40a23.99914,23.99914,0,0,0,46.96753,6.95874Z"></path><path d="M88,264a80.09041,80.09041,0,0,0,80,80H272a80,80,0,0,0,0-160H168A80.09041,80.09041,0,0,0,88,264Z"></path></g></svg>