<svg height='100px' width='100px'  fill="#000000" xmlns="http://www.w3.org/2000/svg" xmlns:xlink="http://www.w3.org/1999/xlink" version="1.1" x="0px" y="0px" viewBox="0 0 64 64" style="enable-background:new 0 0 64 64;" xml:space="preserve"><g><circle cx="50" cy="18" r="1"></circle><path d="M41,18v2c1.485,0,3.433,0.938,4.854,1.782l-3.225,1.29l0.742,1.857l6.652-2.661L48.6,21.2C48.426,21.069,44.296,18,41,18z"></path><path d="M55,19.167V19c0-3.5-1.541-6.466-4.003-8.229C50.969,2.127,49.384,1,48,1c-2.532,0-7.381,5.874-7.946,9.371   C36.923,12.147,35,15.404,35,19c-0.001,2.295-0.218,4.642-0.502,5.74c-0.263,0.009-0.549,0.073-0.856,0.227   c-0.654,0.327-1.243,0.961-1.575,1.697c-0.326,0.722-0.377,1.487-0.174,2.208c-0.788,1.187-3.454,4.899-7.408,7.271   c-6.531,3.919-8.9,9.249-7.099,15.878c-1.62-1.235-3.522-3.803-2.41-8.804c0.874-3.934,3.589-5.962,6.463-8.109   C24.665,32.697,28,30.205,28,25c0-7.794-4.637-12-9-12c-6.438,0-10,5.322-10,9c0,3.433,2.296,6.694,5.481,7.861   c-1.9,1.791-4.754,4.904-6.4,8.745C6.35,42.645,5.983,49.261,9.269,54.243c1.666,2.528,4.917,5.523,11.006,5.744L21.279,63H41h1h5   c1.654,0,3-1.346,3-3s-1.346-3-3-3h-1c-0.552,0-1-0.449-1-1v-1c0-1.86,0.292-3.282,0.661-5.083   c0.513-2.498,1.132-5.529,1.296-11.025C47.464,40.493,48,42.529,48,44h2c0-1.643-0.538-3.783-1.067-5.49   C49.57,38.791,50.27,39,51,39c1.519,0,2.5-1.767,2.5-4.5S52.519,30,51,30c-0.841,0-2.304,0.775-3.43,1.455   c-0.089-0.055-0.182-0.105-0.278-0.151c0.289-0.432,0.86-0.968,2.024-1.356c3.395-1.132,4.895-3.836,5.415-5.056   C55.974,24.529,57,23.294,57,22C57,20.361,56.006,19.5,55,19.167z M48.354,3.967c0.279,0.966,0.564,2.732,0.63,5.722   c-0.678-0.262-1.393-0.457-2.147-0.558C47.004,8.114,47.635,6.03,48.354,3.967z M33.9,27.465c0.127-0.271,0.307-0.469,0.457-0.591   c1.017,1.509,3.417,3.229,4.908,4.211c-0.116,0.188-0.227,0.396-0.325,0.652c-0.108,0.284-0.191,0.61-0.261,0.952   c-1.936-1.116-4.171-2.908-4.785-4.137C33.722,28.207,33.724,27.841,33.9,27.465z M46,33c0.552,0,1,0.449,1,1s-0.448,1-1,1   s-1-0.449-1-1S45.448,33,46,33z M43.65,35.842c-0.69,0.533-1.706,1.164-2.568,1.178C40.886,36.89,40.5,35.989,40.5,34.5   s0.386-2.39,0.49-2.5c0.298,0.023,1.189,0.457,2.182,1.039C43.069,33.342,43,33.662,43,34C43,34.698,43.249,35.332,43.65,35.842z    M11,22c0-2.512,2.674-7,8-7c3.394,0,7,3.505,7,10c0,4.203-2.668,6.197-5.758,8.505c-0.166,0.124-0.336,0.254-0.504,0.38   l-5.017-1.433c1.082-1.13,2.016-1.943,2.509-2.352c1.004-0.173,2.022-0.599,2.956-1.271C21.948,27.559,23,25.753,23,24   c0-2.273-1.132-4.028-2.953-4.58c-1.783-0.539-3.699,0.254-4.879,2.025l1.664,1.109c0.691-1.036,1.706-1.502,2.635-1.221   C20.427,21.625,21,22.622,21,24c0,1.096-0.76,2.324-1.983,3.206c-1.217,0.877-2.633,1.202-3.7,0.845C12.815,27.218,11,24.673,11,22   z M46,59h1c0.552,0,1,0.449,1,1s-0.448,1-1,1h-5v-1c0-1.654-1.346-3-3-3v-6.844c0.333-1.34,0.367-2.81-0.03-4.399   c-0.467-1.87-1.466-3.257-2.967-4.125c-3.065-1.769-7.106-0.644-7.278-0.594l0.551,1.923c0.934-0.267,3.785-0.718,5.728,0.404   c1.028,0.594,1.691,1.535,2.027,2.877c1.762,7.05-7.027,10.678-7.402,10.829L24.839,59H39c0.552,0,1,0.449,1,1v1H22.721l-1-3H21   c-4.487,0-7.967-1.68-10.062-4.858c-2.749-4.17-2.594-10.072-1.019-13.748c0.854-1.992,2.092-3.791,3.327-5.284l4.564,1.304   c-2.106,1.788-4.037,3.998-4.786,7.369c-1.903,8.563,3.805,11.44,5.335,12.047c0.225,0.532,0.474,1.071,0.747,1.617l1.789-0.895   c-3.916-7.832-2.448-13.455,4.62-17.695c3.669-2.201,6.269-5.38,7.514-7.11c1.446,1.66,3.855,3.306,5.489,4.128   C38.606,37.388,39.554,39,41,39c0.506,0,0.997-0.108,1.465-0.26C41.716,40.412,41,42.421,41,44h2c0-1.612,1.078-4.11,1.976-5.874   c-0.126,5.78-0.756,8.865-1.274,11.389C43.325,51.351,43,52.937,43,55v1C43,57.654,44.346,59,46,59z M33.86,57   c1.12-0.796,2.222-1.78,3.14-2.932V57H33.86z M51.5,34.5c0,1.489-0.386,2.39-0.5,2.5c-0.921,0-1.955-0.627-2.649-1.159   C48.751,35.331,49,34.697,49,34c0-0.339-0.069-0.659-0.173-0.963c0.987-0.583,1.857-1.02,2.091-1.057   C51.114,32.11,51.5,33.011,51.5,34.5z M54,23l-0.742,0.004l-0.181,0.593C52.382,24.927,51.071,25,49,25v2   c0.553,0,1.142-0.002,1.733-0.051c-0.556,0.438-1.231,0.83-2.049,1.103c-2.373,0.791-3.214,2.177-3.514,3.08   c-0.263,0.076-0.511,0.183-0.739,0.324c-0.982-0.593-2.209-1.246-3.069-1.407c-1.661-1.013-4.234-2.829-5.195-4.083   C36.878,24.308,37,21.021,37,19c0-3.02,1.703-5.742,4.445-7.104L42,11.62V11c0-1.883,2.301-4.976,4.118-6.712   c-1.762,5.19-1.3,5.907-1.086,6.235c0.207,0.317,0.54,0.511,0.913,0.531C50.099,11.282,53,14.549,53,19l0.014,1.975L53.988,21   C54.45,21.012,55,21.195,55,22C55,22.449,54.448,23,54,23z"></path></g></svg>