<svg height='100px' width='100px'  fill="#000000" xmlns="http://www.w3.org/2000/svg" viewBox="0 0 68 22" x="0px" y="0px"><path fill="#000000" d="M435.185849,1174.17321 C436.194757,1173.72357 437.377146,1174.17694 437.826789,1175.18585 C438.276432,1176.19476 437.823059,1177.37715 436.814151,1177.82679 C428.687726,1181.44852 422.88999,1181.86055 419.514719,1178.48528 C414.828427,1173.79899 414.828427,1166.20101 419.514719,1161.51472 C422.88999,1158.13945 428.687726,1158.55148 436.814151,1162.17321 C437.823059,1162.62285 438.276432,1163.80524 437.826789,1164.81415 C437.377146,1165.82306 436.194757,1166.27643 435.185849,1165.82679 C428.424507,1162.81344 424.174865,1162.51143 422.343146,1164.34315 C419.218951,1167.46734 419.218951,1172.53266 422.343146,1175.65685 C424.174865,1177.48857 428.424507,1177.18656 435.185849,1174.17321 Z M464.814151,1165.82679 C463.805243,1166.27643 462.622854,1165.82306 462.173211,1164.81415 C461.723568,1163.80524 462.176941,1162.62285 463.185849,1162.17321 C471.312274,1158.55148 477.11001,1158.13945 480.485281,1161.51472 C485.171573,1166.20101 485.171573,1173.79899 480.485281,1178.48528 C477.11001,1181.86055 471.312274,1181.44852 463.185849,1177.82679 C462.176941,1177.37715 461.723568,1176.19476 462.173211,1175.18585 C462.622854,1174.17694 463.805243,1173.72357 464.814151,1174.17321 C471.575493,1177.18656 475.825135,1177.48857 477.656854,1175.65685 C480.781049,1172.53266 480.781049,1167.46734 477.656854,1164.34315 C475.825135,1162.51143 471.575493,1162.81344 464.814151,1165.82679 Z M452,1178 C452,1179.10457 451.104569,1180 450,1180 C448.895431,1180 448,1179.10457 448,1178 L448,1162 C448,1160.89543 448.895431,1160 450,1160 C451.104569,1160 452,1160.89543 452,1162 L452,1178 Z M445,1178 C445,1179.10457 444.104569,1180 443,1180 C441.895431,1180 441,1179.10457 441,1178 L441,1162 C441,1160.89543 441.895431,1160 443,1160 C444.104569,1160 445,1160.89543 445,1162 L445,1178 Z M459,1178 C459,1179.10457 458.104569,1180 457,1180 C455.895431,1180 455,1179.10457 455,1178 L455,1162 C455,1160.89543 455.895431,1160 457,1160 C458.104569,1160 459,1160.89543 459,1162 L459,1178 Z" transform="translate(-416 -1159)"></path></svg>