<svg height='100px' width='100px'  fill="#000000" xmlns="http://www.w3.org/2000/svg" viewBox="0 0 64 64" x="0px" y="0px"><title>Accounting-calculator-math-Finance</title><g><path d="M5,62H41a1,1,0,0,0,1-1V46h6v7a.991.991,0,0,0,.07.349l-.007,0,3,8a1,1,0,0,0,1.874,0l3-8-.007,0A.991.991,0,0,0,56,53V20a2,2,0,0,1,2,2V35h2V22a4,4,0,0,0-4-4V15a1,1,0,0,0-1-1H53V11h5a1,1,0,0,0,1-1V6a4,4,0,0,0-4-4H23a4,4,0,0,0-4,4v7H5a1,1,0,0,0-1,1V61A1,1,0,0,0,5,62ZM50,24h4V52H50Zm2,34.152L50.443,54h3.114ZM54,22H50V20h4Zm0-4H50V16h4ZM57,6V9H53V6a2,2,0,0,1,4,0ZM21,6a2,2,0,0,1,2-2H51.556A3.959,3.959,0,0,0,51,6v8H49a1,1,0,0,0-1,1V44H42V14a1,1,0,0,0-1-1H21ZM6,15H40V60H6Z"></path><path d="M36,18H10a1,1,0,0,0-1,1v6a1,1,0,0,0,1,1H36a1,1,0,0,0,1-1V19A1,1,0,0,0,36,18Zm-1,6H11V20H35Z"></path><path d="M16,29H10a1,1,0,0,0-1,1v6a1,1,0,0,0,1,1h6a1,1,0,0,0,1-1V30A1,1,0,0,0,16,29Zm-1,6H11V31h4Z"></path><path d="M26,29H20a1,1,0,0,0-1,1v6a1,1,0,0,0,1,1h6a1,1,0,0,0,1-1V30A1,1,0,0,0,26,29Zm-1,6H21V31h4Z"></path><path d="M36,29H30a1,1,0,0,0-1,1v6a1,1,0,0,0,1,1h6a1,1,0,0,0,1-1V30A1,1,0,0,0,36,29Zm-1,6H31V31h4Z"></path><path d="M16,39H10a1,1,0,0,0-1,1v6a1,1,0,0,0,1,1h6a1,1,0,0,0,1-1V40A1,1,0,0,0,16,39Zm-1,6H11V41h4Z"></path><path d="M26,39H20a1,1,0,0,0-1,1v6a1,1,0,0,0,1,1h6a1,1,0,0,0,1-1V40A1,1,0,0,0,26,39Zm-1,6H21V41h4Z"></path><path d="M16,49H10a1,1,0,0,0-1,1v6a1,1,0,0,0,1,1h6a1,1,0,0,0,1-1V50A1,1,0,0,0,16,49Zm-1,6H11V51h4Z"></path><path d="M26,49H20a1,1,0,0,0-1,1v6a1,1,0,0,0,1,1h6a1,1,0,0,0,1-1V50A1,1,0,0,0,26,49Zm-1,6H21V51h4Z"></path><path d="M36,39H30a1,1,0,0,0-1,1V56a1,1,0,0,0,1,1h6a1,1,0,0,0,1-1V40A1,1,0,0,0,36,39ZM35,55H31V41h4Z"></path></g></svg>