<svg height='100px' width='100px'  fill="#000000" xmlns="http://www.w3.org/2000/svg" xmlns:xlink="http://www.w3.org/1999/xlink" version="1.1" x="0px" y="0px" viewBox="0 0 100 100" style="enable-background:new 0 0 100 100;" xml:space="preserve"><path d="M26.6,17.1c-0.7-2.2-1.4-4.3-2.1-6.5c-0.6-1.7-1.3-3.5-2-5.2c-0.5-1.3-1.1-2.8-2-3.9c-1.8-2.2-3.3,2.5-3.6,3.6  c-1.3,4.4-1.8,9.2-1.8,13.8c0,5.5,0.8,11.2,3.1,16.2c2.3,4.9,6.4,9.2,11.8,10.7c3.3,0.9,6.3-1.2,8.5-3.4c2.7-2.7,4.7-6.7,5-10.5  c0.1-1.8-1.1-2.6-2.7-2.7c-1.6-0.1-3.9-0.1-5,1.3c-1.2,1.4,0,3.9,0.6,5.3c2.4,5.1,8.1,11.1,14.3,9.7c1.9-0.4,3.5-2.2,4.7-3.6  c2.1-2.5,3.8-5.2,5.4-8.1c3.5-6.5,6.4-13.7,7.1-21.1c0.1-1.6,0.1-3.1-0.1-4.7c-0.1-0.6-0.5-0.8-1.1-0.6c-6,2.7-12,7.4-15.1,13.2  c0.4,0,0.7-0.1,1.1-0.1c-3.7-3.1-8.7-5.3-13.5-5.5c-7.6-0.4-14.5,5-17.2,12c-2.4,6.1-2.6,13.1-2.4,19.5c0.2,7.7,1.1,15.3,2.5,22.9  c1.1,6.4,2.5,12.7,4.5,18.9c0.6,1.9,1.2,3.8,2.1,5.6c0.4,0.8,1.1,2.2,2.3,1.9c1.3-0.4,1.5-2.6,1.7-3.7c0.4-2.7,0.5-5.5,0.6-8.3  c0.2-3.3,0.3-6.7,0.6-10c0.3-2.9,0.6-5.9,1.5-8.7c0.3-0.9,0.6-1.8,1.3-2.5c0.2-0.2,0.4-0.4,0.6-0.5c0.1,0,0.1-0.1,0.2,0  c0.9,0.7,0.9,3.2,1,4.4c0.5,6,0.1,12.1,0,18.1c0,2.8,0,5.6,0.2,8.4c0.1,1.5,0.2,3.6,1.3,4.9c2.2,2.6,3.8-2.6,4.2-4  c1.5-5.1,2.3-10.5,3.4-15.8c1.2-6.5,2.5-12.9,4.1-19.3c1.2-4.6,2.4-10,5.4-13.8c0.8-1,1.8-2,3.2-1.8c2.5,0.3,4.7,2.7,6.1,4.6  c4.6,6,7.2,13.8,8.8,21.2c0.8,3.7,1.5,7.5,1.6,11.4c0.1,2.7,0.1,5.9-1.2,8.5c-2.8,5.5-11,6.8-16.5,7.1c-2.9,0.2-5.8,0.2-8.7-0.4  c-0.9-0.2-1.9-0.4-2.7-0.8c-0.2-0.1-0.5-0.3-0.6-0.4c-0.1-0.2-0.1-0.1-0.1-0.3c0.5-1.7,3.1-2.5,4.6-2.9c1-0.2,2-0.4,3-0.4  c0.4,0,0.7-0.3,0.7-0.7c-0.5-6.5,0.9-14.6,5.7-19.3c1.9-1.8,4.2-3,6.8-3.5c2.8-0.6,5.5-0.5,8-2.1c3.6-2.3,4.4-6.4,3.9-10.4  c-0.4-2.9-1.4-5.9-2.8-8.5c-0.4,0.3-0.7,0.6-1.1,0.9c2.4,2.5,4.4,5.6,5.8,8.8c1.2,2.7,1.9,5.6,1.8,8.5c-0.2,3.6-2,6.7-4.6,9.1  c-0.7,0.6,0.3,1.6,1,1c2.6-2.4,4.4-5.5,4.9-9c0.4-3.2-0.2-6.4-1.4-9.3c-1.5-3.6-3.7-7.2-6.4-10c-0.6-0.6-1.5,0.2-1.1,0.9  c2.7,5.1,5.1,14.2-1.4,17.4c-2.6,1.3-5.6,1-8.4,1.9c-2.3,0.7-4.4,1.9-6,3.6c-3.1,3.2-4.7,7.6-5.5,11.9c-0.5,2.7-0.7,5.6-0.5,8.4  c0.2-0.2,0.5-0.5,0.7-0.7c-2.7,0-5.8,0.7-7.7,2.6c-1.5,1.4-1.8,3,0.1,4c2,1.1,4.5,1.3,6.7,1.4c3.2,0.2,6.4,0,9.5-0.5  c5.4-0.9,12.3-3,14.1-8.9c0.9-2.9,0.9-6,0.7-9c-0.2-3.9-0.9-7.7-1.8-11.4c-1.7-7.3-4.4-14.9-9-20.9c-2.2-2.9-6.6-6.9-10.2-3.8  c-1.4,1.2-2.3,3-3.1,4.6c-1.1,2.4-2,4.9-2.7,7.5c-1.8,6.3-3.1,12.8-4.4,19.2c-1.1,5.7-2.1,11.5-3.5,17.1c-0.4,1.6-0.8,3.4-1.6,4.9  c-0.1,0.2-0.3,0.5-0.3,0.6c-0.1,0.2-0.3,0.3-0.2,0.2c0,0,0,0.1-0.1,0c0-0.1-0.2-0.3-0.3-0.5c-0.9-1.7-0.8-4-0.9-5.9  c-0.1-3-0.1-6.1,0-9.1c0.1-5.7,0.6-11.6-0.3-17.2c-0.2-1.2-0.5-3.2-1.9-3.6c-1.5-0.5-2.7,1.3-3.2,2.4c-1.1,2.4-1.5,5.1-1.8,7.7  c-0.4,3.4-0.6,6.8-0.8,10.2c-0.2,3.1-0.3,6.2-0.6,9.2c-0.1,1-0.2,2-0.4,3c-0.1,0.3-0.2,0.6-0.3,0.9c-0.2,0.4-0.2,0.1,0,0.2  c0.1,0.1-0.3-0.3-0.4-0.6c-0.4-0.6-0.6-1.3-0.9-1.9c-0.9-2.2-1.5-4.4-2.2-6.6c-1.9-6.8-3.3-13.7-4.4-20.7c-1.2-7.7-2-15.6-1.7-23.5  c0.2-5.8,0.8-12.6,4.3-17.5c2.8-3.9,7.1-6.8,11.9-7.1c3.6-0.2,7.1,0.8,10.3,2.4c1.4,0.7,2.8,1.6,4.1,2.6c0.3,0.3,0.9,0.3,1.1-0.1  c3-5.7,8.8-10.2,14.6-12.7c-0.4-0.2-0.7-0.4-1.1-0.6c0.8,6.1-1.3,12.6-3.5,18.2c-2.2,5.4-5.1,11.1-9.1,15.4  c-1.3,1.4-2.6,2.6-4.5,2.6c-3,0-5.7-1.6-7.8-3.6c-1.8-1.8-3.4-4.1-4.3-6.5c-0.2-0.6-0.7-1.7-0.5-2.4c0.4-1.3,2.7-1.2,3.7-1.1  c0.2,0,0.5,0,0.7,0c0.7,0.1,0.7,0.2,0.9,0.8c0.2,0.6,0,1.3-0.2,1.9c-0.2,1-0.5,1.9-0.9,2.8c-0.7,1.6-1.6,3.2-2.7,4.5  c-1.9,2.1-4.8,4.7-7.8,3.9c-4.7-1.3-8.5-5.1-10.6-9.3c-4-8.1-4-18.4-2.2-27c0.3-1.5,0.7-2.9,1.2-4.3c0.2-0.4,0.4-0.8,0.6-1.2  c0.1-0.1,0.2-0.1,0.2-0.3c0-0.1,0,0-0.1,0c-0.2-0.1-0.2-0.1-0.2,0c0,0.1,0.6,1,0.7,1.3c0.7,1.4,1.3,2.8,1.9,4.3c1,2.7,2,5.4,2.8,8.1  c0.2,0.5,0.3,1,0.5,1.5C25.5,18.4,26.9,18,26.6,17.1L26.6,17.1z"></path></svg>