<svg height='100px' width='100px'  fill="#000000" xmlns="http://www.w3.org/2000/svg" xmlns:xlink="http://www.w3.org/1999/xlink" version="1.1" x="0px" y="0px" viewBox="0 0 100 100" enable-background="new 0 0 100 100" xml:space="preserve"><path d="M89.493,83.664c2.398-3.925,1.91-9.129-1.481-12.521c-3.945-3.945-10.346-3.971-14.326-0.083  c-0.03,0.026-0.063,0.047-0.092,0.075c-0.969,0.969-2.257,1.503-3.628,1.503c-1.37,0-2.658-0.534-3.628-1.503  c-0.969-0.969-1.503-2.257-1.503-3.627c0-1.371,0.534-2.658,1.504-3.627c0.01-0.01,0.017-0.021,0.026-0.032l7.299-7.3  c1.927-1.926,2.987-4.485,2.987-7.209c0-2.723-1.061-5.284-2.987-7.208c-1.925-1.926-4.484-2.987-7.208-2.987  c-2.151,0-4.194,0.67-5.909,1.896l-0.388-0.388c-0.989-0.99-2.592-0.99-3.582,0c-0.989,0.989-0.989,2.592,0,3.582l0.197,0.197  l-6.964,6.965V40.313h3.292c1.399,0,2.533-1.134,2.533-2.533s-1.134-2.533-2.533-2.533h-2.929l1.574-6.433  c0.185-0.755,0.012-1.554-0.468-2.166c-0.479-0.612-1.215-0.969-1.993-0.969H36.15c-0.778,0-1.512,0.357-1.993,0.969  c-0.48,0.612-0.653,1.411-0.468,2.166l1.574,6.433h-2.931c-1.399,0-2.533,1.134-2.533,2.533s1.134,2.533,2.533,2.533h3.293v25.107  c-5.749,2.685-9.751,8.505-9.751,15.257c0,4.715,1.954,8.979,5.087,12.039h-2.554c-1.399,0-2.533,1.134-2.533,2.532  c0,1.399,1.134,2.533,2.533,2.533h28.621c1.399,0,2.533-1.134,2.533-2.533c0-1.398-1.134-2.532-2.533-2.532h-2.554  c3.134-3.061,5.087-7.324,5.087-12.039c0-6.752-4.003-12.572-9.751-15.257v-6.859l10.57-10.57c0.453,0.348,0.99,0.533,1.534,0.533  c0.648,0,1.297-0.248,1.791-0.742c0.812-0.811,0.946-2.03,0.427-2.99c0.714-0.366,1.499-0.581,2.324-0.581  c1.37,0,2.658,0.533,3.627,1.503c0.969,0.969,1.503,2.256,1.503,3.626S71.052,52,70.083,52.968L62.752,60.3  c-0.014,0.014-0.022,0.03-0.036,0.044c-1.898,1.921-2.945,4.462-2.946,7.165c0,2.724,1.061,5.283,2.986,7.208  c1.926,1.927,4.486,2.987,7.21,2.987c2.685,0,5.206-1.034,7.122-2.907c0.027-0.026,0.06-0.045,0.087-0.071  c2.001-1.999,5.255-1.999,7.256,0c1.406,1.406,1.802,3.43,1.229,5.205c-0.977-0.609-2.276-0.495-3.127,0.354  c-0.989,0.989-0.989,2.593,0,3.582l0.089,0.088l-3.785,4.139c-0.943,1.033-0.872,2.635,0.159,3.579  c0.487,0.444,1.099,0.664,1.709,0.664c0.687,0,1.37-0.277,1.87-0.823l3.632-3.972l0.225,0.225c0.495,0.494,1.143,0.742,1.791,0.742  s1.296-0.248,1.791-0.742c0.989-0.988,0.989-2.593,0-3.582L89.493,83.664z M40.692,40.313h4.052v22.994h-4.052V40.313z   M46.059,30.746l-1.101,4.502h-4.479l-1.101-4.502H46.059z M54.496,80.678c0,6.494-5.284,11.777-11.778,11.777  c-6.494,0-11.778-5.283-11.778-11.777c0-6.495,5.284-11.778,11.778-11.778C49.212,68.899,54.496,74.183,54.496,80.678z"></path><path d="M37.237,11.435c-1.247,2.147-2.955,5.088-0.389,9.342c0.38,0.631,1.05,0.98,1.737,0.98c0.356,0,0.717-0.094,1.044-0.292  c0.959-0.578,1.267-1.823,0.689-2.781c-1.327-2.2-0.742-3.208,0.423-5.214c0.169-0.291,0.339-0.584,0.503-0.884  c2.202-4.011,1.016-6.713-0.899-10.091c-0.551-0.974-1.787-1.316-2.762-0.763c-0.974,0.552-1.315,1.789-0.763,2.762  c1.719,3.034,2.03,4.034,0.872,6.143C37.544,10.906,37.39,11.171,37.237,11.435z"></path><path d="M45.205,13.88c-0.861,1.484-2.163,3.727-0.25,6.896c0.38,0.631,1.05,0.98,1.737,0.98c0.356,0,0.717-0.094,1.044-0.292  c0.958-0.578,1.267-1.823,0.688-2.781c-0.673-1.117-0.451-1.5,0.286-2.77c0.115-0.198,0.23-0.398,0.342-0.601  c1.757-3.2,0.504-5.412-0.6-7.363c-0.552-0.975-1.789-1.317-2.762-0.766c-0.974,0.552-1.317,1.788-0.766,2.761  c1.104,1.951,1.168,2.334,0.574,3.418C45.404,13.539,45.304,13.71,45.205,13.88z"></path></svg>