<svg height='100px' width='100px'  fill="#000000" xmlns="http://www.w3.org/2000/svg" xmlns:xlink="http://www.w3.org/1999/xlink" version="1.1" x="0px" y="0px" viewBox="0 0 64 64" style="enable-background:new 0 0 64 64;" xml:space="preserve"><g><path d="M32.002,23.983c-4.411,0-8,3.589-8,8c0,4.411,3.589,8,8,8s8-3.589,8-8C40.002,27.572,36.413,23.983,32.002,23.983z    M32.002,37.982c-3.309,0-6-2.691-6-6c0-3.309,2.691-6,6-6s6,2.691,6,6C38.002,35.291,35.311,37.982,32.002,37.982z"></path><path d="M19.615,25.392l-12.44-4.077l-0.343,0.884c-1.215,3.131-1.831,6.423-1.831,9.784s0.616,6.652,1.831,9.783l0.343,0.884   l12.44-4.076l-0.441-1.009c-0.777-1.776-1.172-3.654-1.172-5.582s0.395-3.806,1.172-5.583L19.615,25.392z M16.936,37.347   l-8.564,2.807c-0.909-2.631-1.369-5.375-1.369-8.17c0-2.796,0.46-5.54,1.369-8.171l8.564,2.807   c-0.62,1.725-0.934,3.525-0.934,5.364S16.315,35.621,16.936,37.347z"></path><path d="M33.582,45.883l-1.094,0.122l2.69,12.812l0.937-0.145c3.319-0.514,6.478-1.626,9.388-3.307   c2.91-1.68,5.453-3.859,7.558-6.477l0.594-0.739l-9.75-8.735l-0.653,0.887c-1.151,1.562-2.581,2.843-4.249,3.806   C37.334,45.07,35.51,45.668,33.582,45.883z M44.181,42.348l6.712,6.015c-1.824,2.103-3.971,3.873-6.392,5.271   c-2.421,1.398-5.027,2.372-7.76,2.9l-1.852-8.82c1.805-0.326,3.521-0.954,5.112-1.874C41.594,44.92,42.996,43.748,44.181,42.348z"></path><path d="M45.502,8.6c-2.91-1.68-6.069-2.792-9.388-3.306l-0.937-0.145l-2.69,12.812l1.094,0.122   c1.928,0.215,3.751,0.812,5.42,1.776c1.669,0.963,3.099,2.244,4.249,3.806l0.652,0.887l9.75-8.735l-0.594-0.739   C50.955,12.459,48.413,10.28,45.502,8.6z M44.181,21.617c-1.185-1.4-2.586-2.571-4.179-3.491c-1.593-0.919-3.308-1.548-5.112-1.873   l1.852-8.821c2.733,0.528,5.339,1.502,7.76,2.9c2.421,1.397,4.567,3.168,6.392,5.271L44.181,21.617z"></path><path d="M58.855,16.528l0.025-0.023l-0.434-0.71c-2.681-4.387-6.465-8.073-10.944-10.659C43.023,2.55,37.939,1.116,32.8,0.988   l-0.833-0.021l-4.153,19.785c-1.263,0.473-2.432,1.14-3.453,1.985l-9.368-3.07c1.731-2.401,3.915-4.374,6.508-5.871   c0.369-0.212,0.741-0.413,1.117-0.601l-0.895-1.789c-0.411,0.206-0.818,0.425-1.222,0.658c-3.025,1.747-5.535,4.089-7.486,6.956   l-1.971-0.646c2.14-3.3,5.038-6.068,8.457-8.042c1.211-0.699,2.485-1.299,3.788-1.783l-0.697-1.875   C21.186,7.198,19.81,7.845,18.502,8.6c-3.845,2.22-7.077,5.372-9.413,9.133l-1.954-0.64c2.525-4.224,6.079-7.748,10.367-10.224   c2.044-1.181,4.224-2.107,6.478-2.756L23.427,2.19c-2.41,0.693-4.74,1.684-6.925,2.945c-4.715,2.722-8.6,6.63-11.311,11.32   l-0.032-0.01l-0.398,0.731c-2.459,4.516-3.759,9.636-3.759,14.807s1.3,10.292,3.759,14.806l0.398,0.731l19.202-6.292   c1.021,0.845,2.19,1.513,3.453,1.985l2.027,9.657c-2.944-0.298-5.745-1.203-8.339-2.702c-0.369-0.213-0.728-0.435-1.079-0.666   l-1.102,1.67c0.384,0.253,0.777,0.496,1.18,0.729c2.982,1.72,6.345,2.747,9.767,3.004l0.426,2.031   c-3.928-0.204-7.774-1.329-11.193-3.304c-1.209-0.697-2.366-1.501-3.438-2.389l-1.274,1.541c1.158,0.959,2.408,1.826,3.713,2.58   c3.845,2.22,8.191,3.443,12.616,3.586l0.423,2.015c-4.925-0.066-9.749-1.392-14.039-3.868c-2.046-1.182-3.938-2.605-5.625-4.232   l-1.389,1.439c1.804,1.739,3.827,3.262,6.014,4.525c4.718,2.723,10.045,4.151,15.462,4.153l0.003,0.015l0.833-0.021   c5.14-0.128,10.224-1.562,14.702-4.147c4.478-2.586,8.262-6.271,10.944-10.659l0.434-0.711L43.823,33.971   c0.109-0.648,0.179-1.309,0.179-1.988c0-0.679-0.07-1.34-0.179-1.989l7.349-6.583c1.214,2.7,1.83,5.578,1.83,8.572   c0,0.426-0.013,0.848-0.037,1.268l1.996,0.117c0.027-0.458,0.041-0.92,0.041-1.385c0-3.493-0.773-6.838-2.281-9.961l1.545-1.384   c1.787,3.503,2.735,7.397,2.735,11.345c0,1.397-0.118,2.801-0.35,4.172l1.972,0.334c0.251-1.481,0.378-2.998,0.378-4.506   c0-4.44-1.113-8.815-3.202-12.719l1.532-1.372c2.395,4.298,3.67,9.138,3.67,14.091c0,2.36-0.287,4.711-0.853,6.988l1.941,0.482   c0.604-2.435,0.911-4.947,0.911-7.47C63.002,26.537,61.56,21.219,58.855,16.528z M42.002,31.983c0,5.514-4.486,10-10,10   s-10-4.485-10-10s4.486-10,10-10S42.002,26.469,42.002,31.983z M3.002,31.983c0-4.56,1.08-9.076,3.129-13.115l16.644,5.454   c-1.73,2.08-2.773,4.75-2.773,7.661c0,2.91,1.043,5.581,2.773,7.66L6.131,45.097C4.082,41.059,3.002,36.543,3.002,31.983z    M56.295,47.83c-2.474,3.795-5.845,6.988-9.793,9.268c-3.949,2.28-8.4,3.603-12.922,3.848l-3.6-17.147   c0.659,0.112,1.331,0.184,2.022,0.184c5.154,0,9.547-3.272,11.243-7.844L56.295,47.83z M43.245,27.827   c-1.696-4.571-6.089-7.844-11.243-7.844c-0.69,0-1.363,0.072-2.022,0.184l3.6-17.146c4.522,0.245,8.974,1.568,12.922,3.848   c3.949,2.28,7.32,5.473,9.793,9.267L43.245,27.827z"></path><path d="M59.105,42.302l1.869,0.713c0.229-0.6,0.439-1.207,0.631-1.824l-1.91-0.594C59.516,41.173,59.319,41.741,59.105,42.302z"></path><path d="M55.751,39.793l1.899,0.625c0.212-0.643,0.401-1.3,0.562-1.951l-1.941-0.48C56.122,38.59,55.947,39.197,55.751,39.793z"></path><path d="M52.334,37.256l1.937,0.5c0.189-0.731,0.344-1.484,0.461-2.235l-1.977-0.307C52.648,35.9,52.507,36.587,52.334,37.256z"></path><path d="M27.388,3.351L27.07,1.376c-0.634,0.102-1.266,0.224-1.896,0.366l0.441,1.951C26.205,3.56,26.796,3.446,27.388,3.351z"></path><path d="M26.892,7.511l-0.409-1.958c-0.662,0.139-1.325,0.303-1.97,0.489l0.555,1.922C25.665,7.791,26.278,7.639,26.892,7.511z"></path><path d="M24.424,12.395c0.645-0.25,1.311-0.471,1.979-0.656l-0.534-1.928c-0.732,0.203-1.461,0.445-2.168,0.72L24.424,12.395z"></path><path d="M9.513,50.294l-1.551,1.264c0.405,0.497,0.827,0.983,1.264,1.458l1.47-1.357C10.287,51.215,9.892,50.76,9.513,50.294z"></path><path d="M14.668,49.998c-0.45-0.433-0.889-0.889-1.305-1.354l-1.49,1.334c0.449,0.502,0.923,0.993,1.409,1.461L14.668,49.998z"></path><path d="M18.828,48.34c-0.538-0.433-1.062-0.899-1.559-1.387l-1.401,1.428c0.543,0.533,1.117,1.044,1.706,1.518L18.828,48.34z"></path></g></svg>