<svg height="100px" width="100px" fill="#000000" xmlns="http://www.w3.org/2000/svg" data-name="Слой 1" viewBox="0 0 100 100" x="0px" y="0px">
	<title>
		Something 2
	</title>
	<path d="M74.79153,36.65162c-2.32648-.45565-4.95671-.96987-7.58652-1.48619-2.44657-.48032-4.91747-.86487-7.3312-1.47532-1.96067-.49585-3.81338-1.5063-5.78876-1.82489a8.70563,8.70563,0,0,0-4.05855.69742c-4.64975,1.66366-9.31361,3.22146-14.28225,3.59375a62.41845,62.41845,0,0,1-7.93771.50612c-3.5946-.19376-6.50213-2.21618-9.22119-4.42874a.9333.9333,0,0,1-.05975-.819c.50506-.26132,1.203-.71,1.59423-.54083,2.67522,1.15712,5.16669.15981,7.56724-.69514a33.874,33.874,0,0,0,6.191-3.1A25.27465,25.27465,0,0,1,49.42416,23.666c1.56283.12117,3.04084,1.238,4.57844,1.84582.43605.17236,1.0873.38856,1.39815.19548a13.61869,13.61869,0,0,1,7.47855-1.90337c2.41044.0506,4.85859,1.09,7.17936,1.983,3.57065,1.37382,6.98311,3.17483,10.58748,4.43874,2.03426.71333,4.28587,1.50482,6.52129.32986a.82451.82451,0,0,1,.541-.05664c.76835.19723,1.52846.42653,2.29153.64433a9.27774,9.27774,0,0,1-1.41239,1.6284A19.4196,19.4196,0,0,1,79.649,35.90942C78.15232,36.12217,76.65989,36.365,74.79153,36.65162Zm-8.18371-9.94447a4.57782,4.57782,0,0,0-4.91232,4.15942ZM63.80888,31.597l.32994.42832c.56485-.37247,1.40967-.622,1.63811-1.14221a3.88927,3.88927,0,0,1,2.56584-2.05979c.36562-.13506.72034-.29964,1.13419-.47345-1.14674-.8841-1.94489-.80081-2.76827.10071-.7639.83641-1.60554,1.60139-2.3948,2.4154A5.20434,5.20434,0,0,0,63.80888,31.597Zm6.40455-2.37556c-.92381.66514-1.83245,1.2633-2.6704,1.948a3.84529,3.84529,0,0,0-.883,1.21287c-.03857.07374.51056.60092.57908.5609a3.8517,3.8517,0,0,0,1.19234-.94524C69.0585,31.14137,69.58674,30.21243,70.21343,29.22142ZM46.60774,27.144l-.186-.19655-4.58988,5.062.52.46453ZM72.11235,33.5564,75.631,30.81732C74.365,30.15073,73.42113,30.85026,72.11235,33.5564ZM44.53253,27.19257l-.16129-.14668-5.0087,5.57287.29749.25963Zm13.45721,1.64912.24217.30325q1.49529-1.28485,2.99059-2.56967C59.50134,26.54339,58.81842,27.78252,57.98974,28.84169Zm21.45463,4.2677L78.92,32.42014l-2.04045,1.53173.43588.60166Zm-20.135-3.125.46823.407,2.78949-3.40368-.22977-.21553Q60.82336,28.37823,59.30937,29.98434Zm18.35917,1.95679-.26236-.47509q-1.4856.82438-2.97117,1.64875l.2505.45376ZM42.26933,25.29006l-.06873-.22538q-1.93824.54932-3.87648,1.09864l.15459.46335Q40.374,25.95837,42.26933,25.29006Zm2.27953,6.4578.29818.33L47.129,30.04765l-.36169-.4Zm-5.96941-.017L38.204,31.435l-1.8033,1.903.34424.32367Q37.6622,32.6963,38.57945,31.7309Z">
	</path>
	<path d="M10.81068,70.96081a4.18232,4.18232,0,0,1,1.39437-6.12519c1.70639-.96038,3.16308-2.35331,4.81558-3.423,3.072-1.98864,6.1985-3.89375,9.31617-5.81119,3.31046-2.036,6.53365-4.24674,9.98044-6.02068,5.30188-2.72864,10.39966-5.95208,16.30365-7.37257a3.07278,3.07278,0,0,1,3.74087,3.534,8.67023,8.67023,0,0,1-3.37846,5.591c-2.84164,2.16036-5.49218,4.57983-8.39251,6.65347-4.389,3.138-8.8894,6.1246-13.40649,9.07765-3.28913,2.15026-6.71058,4.09764-10.00947,6.23375a12.73726,12.73726,0,0,0-2.47015,2.37377,2.21132,2.21132,0,0,1-2.3592.67682,14.56465,14.56465,0,0,0-1.48777-.18406c-.319-.03312-.70225.05953-.94931-.08622A22.9344,22.9344,0,0,1,10.679,73.988C9.604,73.07831,10.10668,72.00846,10.81068,70.96081ZM26.56388,66.064l.37284-.35231a3.83282,3.83282,0,0,1,.74605,1.01751c.26336.86643.66573,1.01368,1.37124.47569a5.576,5.576,0,0,1,1.0135-.70475,1.32628,1.32628,0,0,0,.74085-1.9943,2.67819,2.67819,0,0,1,.04525-1.06732l.38827-.054q.5144.78021,1.03154,1.56452c2.08457-.36537,2.7345-1.75639,2.30507-3.91018l.43237.12263c.30079.4684.60161.93681.90823,1.41431,1.79231-.27693,1.85643-1.7853,2.00064-3.236l.52466-.15465c.19833.40546.3967.81091.6221,1.27161l1.24172-.92779a4.17252,4.17252,0,0,0-3.52971-2.44913,1.90259,1.90259,0,0,1-1.43712-2.76608,1.8994,1.8994,0,0,0-.64663-2.5172c-6.614,4.44053-13.92012,7.85579-20.41635,13.02481,4.06562.84312,6.5428,2.89871,6.88192,6.88,2.85255-.40677,1.69208-2.67275,1.912-4.28453l.39954-.00778c.38431.6774.76862,1.35479,1.14875,2.02486C26.86359,68.81154,27.00182,68.56912,26.56388,66.064ZM45.5099,55.6591c2.04025-.52008.36183-2.21473,1.21587-3.28981l1.165,1.4216c.67221-.49772,1.33075-.9853,2.00043-1.48113-.14525-.735-.28847-1.46-.43173-2.18491l.32289-.21333c.48279.44548.96557.891,1.42646,1.31619a1.98441,1.98441,0,0,0,1.02493-2.7637c-.087-.20892.147-.55158.23262-.83245a4.94982,4.94982,0,0,1,.79087.38722,5.11474,5.11474,0,0,1,.655.77431,18.20557,18.20557,0,0,0,1.02352-2.25819c.69333-2.37819-.6384-3.82725-2.94694-2.95952-3.5,1.31555-6.88792,2.931-10.30755,4.45469-.23023.10259-.32712.50435-.5488.87071.65861,0,1.07147-.02773,1.47961.00444,2.76662.21812,3.81056,2.14589,2.40583,4.43165-.20693.33673-.43081.66305-.63242.97209C44.801,54.808,45.16176,55.24111,45.5099,55.6591ZM15.268,71.70892a3.66783,3.66783,0,0,1,.73839-3.52535,1.42313,1.42313,0,0,1,1.36551-.30971,15.40521,15.40521,0,0,1,2.08682,1.73177c-.689-2.38675-4.23388-4.08756-6.56639-3.61957-.45774.09184-1.17369,1.0861-1.13788,1.1284.91,1.07455.05416,1.61011-1.01846,2.40828.88566.2418,1.4354.39189,2.24355.61255-.27936-.81084-.66094-1.33747-.55443-1.73245a8.60153,8.60153,0,0,1,1.10569-2.19744,2.15872,2.15872,0,0,1,1.06739.52084c.937,1.20695-.57185,1.15854-1.0298,1.79847.43909.5292.89133,1.07432,1.34742,1.624-.58436.435-1.28715.73545-1.59688,1.26551-.21426.36662.08363,1.05906.23519,1.582.02078.07184.68317.11588.77088-.01426.868-1.28832,1.2719-.1263,2.007.58394.3154-.67219.5598-1.19306.87135-1.857ZM37.90032,56.09685c2.13984.05075,5.80863-2.23312,6.62446-4.12385.28453-.6594-.45514-1.54434-1.2618-1.48366a6.36655,6.36655,0,0,1-.92592.17122,6.4226,6.4226,0,0,0-5.63642,3.73813C36.3385,55.531,36.71843,56.06882,37.90032,56.09685Zm4.24148,2.29767c.61895-.46836,1.162-.87169,1.69427-1.2887a2.06377,2.06377,0,0,0,.28493-.38537c-.30079-.40774-.60951-.82617-.911-1.23485C40.51043,56.91208,40.51043,56.91208,42.1418,58.39452ZM16.69035,74.814c1.39321.37284,3.18549-2.0252,2.903-3.50965C18.71713,72.36371,17.736,73.54989,16.69035,74.814ZM38.94233,49.979l-.25914-.37967c-.71659.40594-1.44425.79437-2.13859,1.23533-.11329.072-.07924.37588-.11333.57259.19.029.44624.15159.55906.07166C37.65943,51.005,38.2953,50.48408,38.94233,49.979ZM17.8232,71.19517l.78692-.3833q-.60826-1.03305-1.21655-2.06607l-.34365.21581Z">
	</path>
	<path d="M39.47034,55.39886c-1.10093-.23947-1.5931-.85639-1.34995-1.75906a4.59833,4.59833,0,0,1,3.91784-2.507,1.25219,1.25219,0,0,1,.81759,2.13687A24.33213,24.33213,0,0,1,39.47034,55.39886Z">
	</path>
</svg>
