<svg height='100px' width='100px'  fill="#000000" xmlns="http://www.w3.org/2000/svg" viewBox="0 0 100 100" x="0px" y="0px"><title>Artboard 11</title><g data-name="Layer 2"><path d="M94,70.58v5.29H70.77V70.58h4.65V67.77c4.28-1.81,7.84-14.86,7.84-29.56a.745.745,0,1,0-1.49,0c0,14.61-3.5,25.64-6.35,27.86V24.13H89.35V70.58Z"></path><path d="M74.42,66.49H74.4c-3.05,0-4.57-5.11-6.04-10.05-1.4-4.72-2.83-9.58-5.9-10.79a.00976.00976,0,0,0-.01-.00995.41735.41735,0,0,0-.22-.19l-2.6-1.16a2.01533,2.01533,0,0,0-1.79.1l-3.53,2.04a1.35887,1.35887,0,0,0-.64.78l-1.22.7v-.55L49.81,29.41H8.64L6,47.36V75.87h8.71V65.31H43.74V75.87h8.71V49.58l1.56-.9a1.22953,1.22953,0,0,0,.43.3l.97.43a1.95255,1.95255,0,0,0,1.79-.09l4.22-2.43c2.7.50995,4.13,5.31995,5.51,9.97,1.62,5.48,3.31,11.12,7.47,11.12h.03a2.44552,2.44552,0,0,0,.99-.21v-1.7A1.60163,1.60163,0,0,1,74.42,66.49ZM13.14,34.69H45.31l1.86,12.67H11.28Zm1.57,25.23a4.355,4.355,0,1,1,4.35-4.36A4.35742,4.35742,0,0,1,14.71,59.92Zm29.03,0a4.355,4.355,0,1,1,4.36-4.36A4.35527,4.35527,0,0,1,43.74,59.92Z"></path></g></svg>