<svg height='100px' width='100px'  fill="#000000" xmlns="http://www.w3.org/2000/svg" data-name="Layer 1" viewBox="0 0 100 100" x="0px" y="0px"><title>Artboard 27</title><path d="M51.7,63.18c1.42-2.65,2.93-5.19,4.53-7.59l.12-.17,3.5-4.86.13-.17A75.75,75.75,0,0,1,81.22,31.52c-2.07-4.93-4.35-9.86-5.88-12.06-3.25-4.67-8-6-11.27-6.55a94.22,94.22,0,0,0-16.35-1.06h0a94.22,94.22,0,0,0-16.35,1.06c-3.28.57-8,1.87-11.27,6.55-1.83,2.63-4.75,9.19-7.08,15A8.22,8.22,0,0,0,7.57,32l-1.8,0A4.82,4.82,0,0,0,1,36.79c0,1,0,2.12,0,3.46a5,5,0,0,0,4.92,4.9l2.1,0h.28q-.37.49-.71,1A20.44,20.44,0,0,0,4.25,58v23.3A4.87,4.87,0,0,0,9.1,86.13h6.3a4.87,4.87,0,0,0,4.87-4.87V77.6h13.6a6.92,6.92,0,0,1,1.41-.88,2.76,2.76,0,0,0,1.65-1.63C39.62,67.76,45.82,64.24,51.7,63.18ZM29.43,60.43H20.51a3.79,3.79,0,0,1-3.79-3.79V54.3a3.79,3.79,0,0,1,4.75-3.67L30.39,53a3.79,3.79,0,0,1-1,7.46ZM98.9,33.52C97,39.79,91.24,53.46,76,65.38a30.22,30.22,0,0,1-11.5-11.5C76.38,38.59,90,32.87,96.32,30.93A2.07,2.07,0,0,1,98.9,33.52ZM65.51,64.32a35.93,35.93,0,0,0,5.58,4.56,87.83,87.83,0,0,1-9.86,5.65c-3,20.07-18,13-23.7,9.52a1.24,1.24,0,0,1,.13-2.19A8.56,8.56,0,0,0,42.27,77c2.82-7.71,10.64-8.48,13.07-8.53A87.6,87.6,0,0,1,61,58.74,35.92,35.92,0,0,0,65.51,64.32Z"></path></svg>