<?xml version="1.0" encoding="utf-8"?>
<!-- Generator: Adobe Illustrator 24.2.1, SVG Export Plug-In . SVG Version: 6.00 Build 0)  -->
<svg version="1.1" id="Layer_1" xmlns="http://www.w3.org/2000/svg" xmlns:xlink="http://www.w3.org/1999/xlink" x="0px" y="0px"
	 viewBox="0 0 100 100" enable-background="new 0 0 100 100" xml:space="preserve">
<g>
	<path fill-rule="evenodd" clip-rule="evenodd" d="M50,1.5c26.8,0,48.5,21.7,48.5,48.5S76.8,98.5,50,98.5S1.5,76.8,1.5,50
		S23.2,1.5,50,1.5z M25.3,69.6c0.4,0.2,0.9,0,1-0.4c0.3-0.4,0-0.8-0.4-1.1L20,65.4c-0.4-0.1-0.9,0-1.1,0.4c-0.1,0.4,0,0.9,0.4,1.1
		L25.3,69.6z M64.9,72.9c3.8,7,19.7,1.4,19.8,1.2c0.1-0.2,2-6.3-1.3-10.3c-3.4-2-15.3,7.1-16.6,5.4C66,68.1,58,51.2,51,36.3
		c5-11.9,9.3-22.1,9.3-22.1l-0.6-0.6c0,0-4.4,9.5-9.7,20.7c-5.3-11.2-9.7-20.7-9.7-20.7l-0.6,0.6c0,0,4.3,10.2,9.3,22.1
		c-7,14.9-15,31.8-15.8,32.9c-1.3,1.7-13.2-7.4-16.6-5.4c-3.3,4-1.4,10.1-1.3,10.3c0.1,0.2,16,5.8,19.8-1.2
		C35.7,72,43.3,54.3,50,38.6C56.7,54.3,64.3,72,64.9,72.9z M74.7,69.6c-0.4,0.2-0.9,0-1-0.4c-0.3-0.4,0-0.8,0.4-1.1l5.9-2.7
		c0.4-0.1,0.9,0,1.1,0.4c0.1,0.4,0,0.9-0.4,1.1L74.7,69.6z M47.7,69.7c0.1,1.2,1.1,2.1,2.3,2.1s2.1-0.9,2.3-2.1
		c-0.6,0.5-1.4,0.7-2.3,0.7C49.1,70.4,48.3,70.2,47.7,69.7z M50,75.6l-0.5-3.2h1L50,75.6z M50,60.7c2.4,0,4.4,2,4.4,4.5
		c0,2.4-2,4.4-4.4,4.4c-2.4,0-4.4-2-4.4-4.4C45.6,62.7,47.6,60.7,50,60.7z M46.8,66.4c0.2,0,0.4,0.1,0.4,0.4c0,0.2-0.2,0.3-0.4,0.3
		c-0.2,0-0.4-0.1-0.4-0.3C46.4,66.5,46.6,66.4,46.8,66.4z M46.8,63.2c0.2,0,0.4,0.1,0.4,0.4c0,0.2-0.2,0.3-0.4,0.3
		c-0.2,0-0.4-0.1-0.4-0.3C46.4,63.3,46.6,63.2,46.8,63.2z M46.8,64.8c0.2,0,0.4,0.1,0.4,0.4c0,0.2-0.2,0.3-0.4,0.3
		c-0.2,0-0.4-0.1-0.4-0.3C46.4,64.9,46.6,64.8,46.8,64.8z M50,61.5c0.2,0,0.4,0.2,0.4,0.4c0,0.3-0.2,0.4-0.4,0.4s-0.4-0.1-0.4-0.4
		C49.6,61.7,49.8,61.5,50,61.5z M50,68c0.2,0,0.4,0.1,0.4,0.4c0,0.2-0.2,0.4-0.4,0.4s-0.4-0.2-0.4-0.4C49.6,68.1,49.8,68,50,68z
		 M50,64.8c0.2,0,0.4,0.1,0.4,0.4c0,0.2-0.2,0.3-0.4,0.3s-0.4-0.1-0.4-0.3C49.6,64.9,49.8,64.8,50,64.8z M50,66.4
		c0.2,0,0.4,0.1,0.4,0.4c0,0.2-0.2,0.3-0.4,0.3s-0.4-0.1-0.4-0.3C49.6,66.5,49.8,66.4,50,66.4z M50,63.2c0.2,0,0.4,0.1,0.4,0.4
		c0,0.2-0.2,0.3-0.4,0.3s-0.4-0.1-0.4-0.3C49.6,63.3,49.8,63.2,50,63.2z M48.4,64c0.2,0,0.4,0.1,0.4,0.4c0,0.2-0.2,0.3-0.4,0.3
		S48,64.6,48,64.4C48,64.1,48.2,64,48.4,64z M48.4,65.6c0.2,0,0.4,0.1,0.4,0.4c0,0.2-0.2,0.3-0.4,0.3S48,66.2,48,66
		C48,65.7,48.2,65.6,48.4,65.6z M48.4,62.3c0.2,0,0.4,0.2,0.4,0.5c0,0.2-0.2,0.3-0.4,0.3S48,63,48,62.8C48,62.5,48.2,62.3,48.4,62.3
		z M48.4,67.2c0.2,0,0.4,0.1,0.4,0.4c0,0.2-0.2,0.4-0.4,0.4S48,67.8,48,67.6C48,67.3,48.2,67.2,48.4,67.2z"/>
</g>
</svg>
