<svg height='100px' width='100px'  fill="#000000" xmlns="http://www.w3.org/2000/svg" xmlns:xlink="http://www.w3.org/1999/xlink" version="1.1" x="0px" y="0px" viewBox="0 0 100 100" style="enable-background:new 0 0 100 100;" xml:space="preserve"><path d="M24.0439453,16.2172852c-0.3789062,0.0019531-0.7246094,0.21875-0.8916016,0.559082L10.1025391,43.3481445  c-0.2431641,0.4956055-0.0390625,1.0952148,0.4570312,1.3383789c0.1416016,0.0698242,0.2919922,0.1025391,0.4394531,0.1025391  c0.3691406,0,0.7246094-0.2050781,0.8984375-0.559082l4.1097412-8.3682861L17.875,39.1904297  c0.3535156,0.6308594,1.390625,0.6308594,1.7441406,0l1.8603516-3.3149414l1.859375,3.3149414  c0.1767578,0.3154297,0.5107422,0.5107422,0.8720703,0.5107422s0.6953125-0.1953125,0.8720703-0.5107422l1.8613281-3.3164062  l1.8632812,3.3168945c0.1767578,0.3149414,0.5107422,0.5102539,0.8720703,0.5102539S30.375,39.5058594,30.5517578,39.190918  l1.833374-3.263855l2.026062,4.0088501l-1.6904907,3.4088135c-0.2460938,0.4946289-0.0439453,1.0947266,0.4511719,1.340332  c0.1425781,0.0708008,0.2939453,0.1040039,0.4433594,0.1040039c0.3681641,0,0.7226562-0.2036133,0.8964844-0.5556641  l7.2763062-14.6715698l1.9141235,3.4113159c0.3535156,0.6308594,1.390625,0.6308594,1.7441406,0l1.8603516-3.3149414  l1.859375,3.3149414c0.1767578,0.3154297,0.5107422,0.5107422,0.8720703,0.5107422s0.6953125-0.1953125,0.8720703-0.5107422  l1.8613281-3.3164062l1.8632812,3.3168945c0.1767578,0.3149414,0.5107422,0.5102539,0.8720703,0.5102539  s0.6953125-0.1953125,0.8720703-0.5102539l1.8331299-3.2633667l7.3426514,14.5299683  c0.2490234,0.4926758,0.8505859,0.6914062,1.34375,0.4414062c0.4931641-0.2490234,0.6904297-0.8505859,0.4414062-1.34375  l-0.5543213-1.0969238l1.9679565-3.8937988l1.8334351,3.2636719c0.3554688,0.6298828,1.3886719,0.6298828,1.7441406,0  l1.8632812-3.3164062l1.8613281,3.3164062c0.3535156,0.6298828,1.390625,0.6303711,1.7441406-0.0004883l1.859375-3.3149414  l1.8603516,3.3149414c0.1767578,0.3154297,0.5107422,0.5107422,0.8720703,0.5107422s0.6953125-0.1953125,0.8720703-0.5107422  l1.8879395-3.3642578l2.9519043,5.9853516c0.1738281,0.3530273,0.5283203,0.5576172,0.8974609,0.5576172  c0.1484375,0,0.2988281-0.0332031,0.4414062-0.1030273c0.4951172-0.2446289,0.6992188-0.84375,0.4541016-1.3393555  L77.9853516,19.1948242c-0.1669922-0.3398438-0.5126953-0.5556641-0.8916016-0.5576172c-0.0019531,0-0.0029297,0-0.0048828,0  c-0.3769531,0-0.7226562,0.2124023-0.8925781,0.5488281L65.664978,40.0236206L50.7695312,10.5488281  C50.5996094,10.2124023,50.2539062,10,49.8769531,10c-0.0009766,0-0.0029297,0-0.0039062,0  c-0.3789062,0.0014648-0.7236328,0.2163086-0.8916016,0.5556641L35.5211792,37.6976929L24.9423828,16.7661133  C24.7714844,16.4272461,24.4101562,16.1894531,24.0439453,16.2172852z M77.078125,21.8759766l7.0007935,14.1950684  l-1.6873169,3.0065918L80.53125,35.7626953c-0.3535156-0.6308594-1.390625-0.6308594-1.7441406,0l-1.859375,3.3149414  l-1.8613281-3.3154297c-0.1767578-0.3149414-0.5107422-0.5102539-0.8720703-0.5102539S73.5,35.4472656,73.3222656,35.762207  l-1.8632812,3.3173828l-1.6189575-2.8823242L77.078125,21.8759766z M49.8857422,13.2338867l7.2396851,14.3262329  l-1.6185913,2.8817749l-1.8632812-3.3173828c-0.3554688-0.6308594-1.390625-0.6303711-1.7441406,0.0004883l-1.8613281,3.3154297  L48.1787109,27.125c-0.1767578-0.3154297-0.5107422-0.5107422-0.8720703-0.5107422S46.6113281,26.8095703,46.4345703,27.125  l-1.8603516,3.3154297l-1.7103271-3.0480347L49.8857422,13.2338867z M29.6796875,36.6591797l-1.8632812-3.3173828  c-0.3554688-0.6308594-1.390625-0.6303711-1.7441406,0.0004883l-1.8613281,3.3154297l-1.859375-3.3154297  c-0.1767578-0.3154297-0.5107422-0.5107422-0.8720703-0.5107422s-0.6953125,0.1953125-0.8720703,0.5107422l-1.8603516,3.3154297  l-1.6695557-2.9754028L24.0625,19.4594727l7.2360229,14.3175659L29.6796875,36.6591797z"></path><path d="M70.5566406,64.8779297c-1.867981,0-3.6358032,0.4210815-5.2307129,1.1557007l-3.9255371-16.1908569h7.4072266  c0.0927734,0.0283203,0.1904297,0.0429688,0.2900391,0.0429688c1.8886719,0,3.4248047,1.5366211,3.4248047,3.425293  c0,1.8891602-1.5361328,3.4257812-3.4248047,3.4257812c-0.5527344,0-1,0.4477539-1,1s0.4472656,1,1,1  c2.9912109,0,5.4248047-2.434082,5.4248047-5.4257812c0-2.8969727-2.2822266-5.2709961-5.1435547-5.4179688  c-0.0996094-0.0332031-0.2050781-0.050293-0.3125-0.050293h-8.9375c-0.3066406,0-0.5966797,0.140625-0.7861328,0.3818359  s-0.2578125,0.5556641-0.1855469,0.8540039l1.8566284,7.6582031H41.6410522l-2.0681152-5.8266602h3.4534302  c0.5527344,0,1-0.4477539,1-1s-0.4472656-1-1-1h-9.4101562c-0.5527344,0-1,0.4477539-1,1s0.4472656,1,1,1h3.8345337  l2.4338989,6.8571777l-4.949646,8.3922119c-1.6617432-0.812561-3.520752-1.2816162-5.4916382-1.2816162  c-6.9267578,0-12.5615234,5.6347656-12.5615234,12.5610352S22.5166016,90,29.4433594,90  c5.9680176,0,10.9677124-4.1879272,12.2390137-9.7769165l2.0616455,0.2987671  C43.9353638,83.1573486,46.1173706,85.25,48.8007812,85.25c2.8085938,0,5.09375-2.2851562,5.09375-5.09375  c0-1.6125488-0.7678223-3.0352173-1.94104-3.9691162l10.2208252-14.6637573l1.3387451,5.5220337  c-3.3266602,2.2618408-5.5169678,6.0761719-5.5169678,10.3935547C57.9960938,84.3652344,63.6308594,90,70.5566406,90  c6.9267578,0,12.5615234-5.6347656,12.5615234-12.5610352S77.4833984,64.8779297,70.5566406,64.8779297z M29.4433594,88  c-5.8232422,0-10.5615234-4.737793-10.5615234-10.5610352s4.7382812-10.5610352,10.5615234-10.5610352  c1.6004028,0,3.112854,0.3682251,4.4733887,1.0081177l-5.3262329,9.0307007  c-0.0022583,0.0037842-0.0043335,0.0073853-0.0065918,0.0111694l-0.0018921,0.0032349  c-0.0203857,0.0346069-0.0219727,0.0732422-0.0377808,0.1091309c-0.0361328,0.0820312-0.0768433,0.1619263-0.0901489,0.255127  c-0.0002441,0.0015259,0.0004883,0.0029297,0.0002441,0.0044556c-0.0183105,0.1308594-0.0114746,0.2630615,0.0210571,0.3890991  c0.0266113,0.1032104,0.0786133,0.1952515,0.1351929,0.2836304c0.0126343,0.0197754,0.0161133,0.0437012,0.0301514,0.0626831  c0.078186,0.1052856,0.1773071,0.1942139,0.2918091,0.2623291c0.0012207,0.0007324,0.00177,0.0019531,0.0029907,0.0026855  c0.1036987,0.0614014,0.2145386,0.0944214,0.3265991,0.1149902c0.0135498,0.0025024,0.0238647,0.0114136,0.0376587,0.0134277  l10.3937378,1.5061646C38.567627,84.5553589,34.4054565,88,29.4433594,88z M39.9777832,77.9549561l-8.9158936-1.2919922  l4.5761108-7.758728c2.6399536,1.9217529,4.3659058,5.0268555,4.3659058,8.534729  C40.0039062,77.6131592,39.986145,77.7828369,39.9777832,77.9549561z M36.6586304,67.1738281l4.0983276-6.9487305  l5.5145874,15.5368042c-1.0638428,0.6148071-1.8763428,1.5939331-2.276062,2.7752686l-2.0322876-0.2944946  c0.0170288-0.2670898,0.0407104-0.5324097,0.0407104-0.8037109C42.0039062,73.1984253,39.8860474,69.4494019,36.6586304,67.1738281z   M48.8007812,83.25c-1.7060547,0-3.09375-1.3876953-3.09375-3.09375c0-1.7055664,1.3876953-3.0932617,3.09375-3.0932617  s3.09375,1.3876953,3.09375,3.0932617C51.8945312,81.8623047,50.5068359,83.25,48.8007812,83.25z M50.1556396,75.269165  c-0.4342041-0.1207886-0.8826904-0.2061768-1.3548584-0.2061768c-0.2165527,0-0.4229126,0.0375366-0.6324463,0.0639038  l-5.8174438-16.3900757h19.1478271l0.0465088,0.1917114L50.1556396,75.269165z M70.5566406,88  c-5.8232422,0-10.5605469-4.737793-10.5605469-10.5610352c0-3.5057983,1.723999-6.609314,4.3613281-8.531311l5.7158203,9.0645142  c0.1904297,0.3017578,0.5146484,0.4667969,0.8466797,0.4667969c0.1826172,0,0.3671875-0.0498047,0.5322266-0.1542969  c0.4677734-0.2944336,0.6074219-0.9121094,0.3125-1.3789062l-5.6856079-9.0177002  c1.3616333-0.6411133,2.8755493-1.0101318,4.4776001-1.0101318c5.8232422,0,10.5615234,4.737793,10.5615234,10.5610352  S76.3798828,88,70.5566406,88z"></path></svg>