<svg height='100px' width='100px'  fill="#000000" xmlns="http://www.w3.org/2000/svg" xmlns:xlink="http://www.w3.org/1999/xlink" version="1.1" x="0px" y="0px" viewBox="0 0 100 100" enable-background="new 0 0 100 100" xml:space="preserve"><g><path fill="#000000" d="M56.373,21.872c1.253,0,2.272-1.019,2.272-2.271s-1.02-2.271-2.272-2.271c-1.252,0-2.27,1.019-2.27,2.271   S55.121,21.872,56.373,21.872z M56.373,18.33c0.701,0,1.272,0.57,1.272,1.271s-0.571,1.271-1.272,1.271   c-0.7,0-1.27-0.57-1.27-1.271S55.673,18.33,56.373,18.33z"></path><path fill="#000000" d="M67.375,56.753h-2.292c-0.276,0-0.5,0.224-0.5,0.5v1.088h-1.784v-2.033c0-0.276-0.224-0.5-0.5-0.5h-0.215   v-1.613c0-0.737-0.287-1.43-0.809-1.951s-1.215-0.809-1.953-0.809h-2.585c0.003-0.021,0.013-0.04,0.013-0.062V48.25H61   c0.276,0,0.5-0.224,0.5-0.5V26.934c0-0.276-0.224-0.5-0.5-0.5h-2.796c2.989-0.864,5.087-3.591,5.087-6.771   c0-3.676-2.825-6.703-6.418-7.03v-2.137h1.25c0.276,0,0.5-0.224,0.5-0.5V7.768c0-0.276-0.224-0.5-0.5-0.5h-3.5   c-0.276,0-0.5,0.224-0.5,0.5v2.229c0,0.276,0.224,0.5,0.5,0.5h1.25v2.123c-3.729,0.187-6.707,3.271-6.707,7.044v6.771h-0.791   c-0.276,0-0.5,0.224-0.5,0.5V47.75c0,0.276,0.224,0.5,0.5,0.5h0.791v3.185h-7.804c0.003-0.021,0.013-0.04,0.013-0.062V48.25h4.25   c0.276,0,0.5-0.224,0.5-0.5V26.934c0-0.276-0.224-0.5-0.5-0.5h-4.03v-2.61c0-0.276-0.224-0.5-0.5-0.5h-3.566   c-0.276,0-0.5,0.224-0.5,0.5v2.61H33c-0.276,0-0.5,0.224-0.5,0.5V47.75c0,0.276,0.224,0.5,0.5,0.5h4.25v3.122   c0,0.022,0.01,0.041,0.013,0.062h-7.562V32.773c0-1.081-0.421-2.097-1.186-2.862c-0.764-0.765-1.78-1.186-2.861-1.186h-1.203   c-0.276,0-0.5,0.224-0.5,0.5v24.1c0,0.896,0.35,1.74,0.984,2.375c0.634,0.635,1.478,0.984,2.375,0.984h18.504l1.745,4.02   c0.079,0.183,0.259,0.301,0.458,0.301h4.816v3.494h-1.309c-0.276,0-0.5,0.224-0.5,0.5v10.686c0,0.276,0.224,0.5,0.5,0.5h0.768v3.25   c0,0.276,0.224,0.5,0.5,0.5h0.502v7.152c0,0.276,0.224,0.5,0.5,0.5h0.47c-0.035,0.068-0.06,0.143-0.06,0.225v2.537   c0,0.276,0.224,0.5,0.5,0.5h0.391v3.418c0,0.276,0.224,0.5,0.5,0.5s0.5-0.224,0.5-0.5v-3.418h0.258c0.276,0,0.5-0.224,0.5-0.5   v-2.537c0-0.082-0.024-0.156-0.06-0.225h0.573c0.276,0,0.5-0.224,0.5-0.5c0-0.014-0.007-0.025-0.008-0.039   c0.001-0.014,0.008-0.025,0.008-0.039v-7.074h0.504c0.276,0,0.5-0.224,0.5-0.5v-3.25h0.82c0.276,0,0.5-0.224,0.5-0.5V64.999   c0-0.276-0.224-0.5-0.5-0.5h-1.482v-3.494h4.09c0.276,0,0.5-0.224,0.5-0.5v-1.164h1.784v1.088c0,0.276,0.224,0.5,0.5,0.5h2.292   c0.276,0,0.5-0.224,0.5-0.5v-3.176C67.875,56.977,67.651,56.753,67.375,56.753z M55.123,8.268h2.5v1.229h-2.5V8.268z    M38.029,24.324h2.566v2.1h-2.566V24.324z M55.854,87.812v2.037h-0.648v-2.037c0-0.082-0.024-0.156-0.06-0.225h0.768   C55.878,87.655,55.854,87.729,55.854,87.812z M57.871,78.935h-0.504c-0.276,0-0.5,0.224-0.5,0.5v7.152h-2.572v-7.152   c0-0.276-0.224-0.5-0.5-0.5h-0.502v-2.75h4.578V78.935z M59.191,75.185h-7.166v-9.686h7.166V75.185z M57.209,61.101v3.209h-3.375   v-3.209H57.209z M55.763,51.435h-2.15c0.003-0.021,0.013-0.04,0.013-0.062V48.25h2.125v3.122   C55.75,51.395,55.76,51.413,55.763,51.435z M53.404,26.423v-2.1h2.566v2.1H53.404z M50.166,19.664c0-3.343,2.72-6.062,6.062-6.062   s6.062,2.72,6.062,6.062c0,2.963-2.12,5.473-5.041,5.969c-0.113,0.02-0.207,0.082-0.279,0.162v-1.971c0-0.276-0.224-0.5-0.5-0.5   h-3.566c-0.276,0-0.5,0.224-0.5,0.5v2.61h-2.238V19.664z M48.875,27.434H60.5V47.25H48.875V27.434z M50.166,48.25h2.459v3.122   c0,0.022,0.01,0.041,0.013,0.062h-2.472V48.25z M33.5,27.434h11.625V47.25H33.5V27.434z M38.25,51.372V48.25h2.125v3.122   c0,0.022,0.01,0.041,0.013,0.062h-2.15C38.24,51.413,38.25,51.395,38.25,51.372z M25.642,54.993   c-0.446-0.446-0.691-1.038-0.691-1.668v-23.6h0.703c0.814,0,1.579,0.317,2.154,0.893c0.576,0.576,0.893,1.341,0.893,2.155v19.162   c0,0.276,0.224,0.5,0.5,0.5h30.122c0.471,0,0.913,0.184,1.246,0.516c0.332,0.333,0.516,0.774,0.516,1.244v1.49H27.31   C26.68,55.685,26.087,55.439,25.642,54.993z M61.799,60.005H48.346l-1.388-3.197h14.841V60.005z M66.875,59.929h-1.292v-2.176   h1.292V59.929z"></path></g></svg>