<svg height='100px' width='100px'  fill="#000000" xmlns="http://www.w3.org/2000/svg" data-name="Warstwa 1" viewBox="0 0 24 24" x="0px" y="0px"><title>transport2</title><path d="M16.5,16.5a.5.5,0,0,0,.5.5h1a1.5,1.5,0,0,1,0,3v.5a.5.5,0,0,1-1,0V20H16a.5.5,0,0,1,0-1h2a.5.5,0,0,0,0-1H17a1.5,1.5,0,0,1,0-3v-.5a.5.5,0,0,1,1,0V15h1a.5.5,0,0,1,0,1H17A.5.5,0,0,0,16.5,16.5Zm6.5,1A5.5,5.5,0,0,1,13.26,21H1.5a.5.5,0,0,1-.5-.5V1.5A.5.5,0,0,1,1.5,1h17a.5.5,0,0,1,.5.5V12.21A5.5,5.5,0,0,1,23,17.5ZM12.6,20a5.5,5.5,0,0,1,4.9-8l.5,0V2H2V20ZM22,17.5A4.5,4.5,0,1,0,17.5,22,4.51,4.51,0,0,0,22,17.5ZM10.5,13H6v4.5a.5.5,0,0,1-1,0V4.5A.5.5,0,0,1,5.5,4h5a4.5,4.5,0,0,1,0,9ZM14,8.5A3.5,3.5,0,0,0,10.5,5H6v7h4.5A3.5,3.5,0,0,0,14,8.5Z"></path></svg>