<?xml version="1.0" encoding="utf-8"?>
<!-- Generator: Adobe Illustrator 24.2.1, SVG Export Plug-In . SVG Version: 6.00 Build 0)  -->
<svg version="1.1" id="Layer_1" xmlns="http://www.w3.org/2000/svg" xmlns:xlink="http://www.w3.org/1999/xlink" x="0px" y="0px"
	 viewBox="0 0 100 100" enable-background="new 0 0 100 100" xml:space="preserve">
<g>
	<path fill-rule="evenodd" clip-rule="evenodd" d="M1.889,15.466h96.104v22.904H84.061C79.693,28.926,70.13,22.432,59.15,22.432
		s-20.543,6.494-24.911,15.939H1.889V15.466z M59.15,25.856c21.251,0,32.113,26.328,16.883,41.086
		c-9.681,9.209-25.502,9.209-34.593-0.708C27.627,51.122,38.017,25.856,59.15,25.856z M66.116,32.704l-16.057,7.674l1.889-7.556
		C56.434,30.933,61.511,30.815,66.116,32.704z M68.241,33.766c4.132,2.243,7.32,6.257,8.737,10.862l-15.584-7.556L68.241,33.766z
		 M77.45,46.989c0.708,4.604-0.354,9.209-2.834,13.105l-3.66-16.293L77.45,46.989z M73.081,61.983
		c-2.834,3.306-6.966,5.667-11.452,6.257L71.665,55.49L73.081,61.983z M59.032,68.359c-4.841,0-9.209-1.889-12.515-4.959h16.411
		L59.032,68.359z M44.864,61.511c-3.188-3.778-4.604-8.619-4.132-13.459l10.744,13.459H44.864z M41.086,45.573
		c1.181-4.959,4.368-9.209,8.737-11.688L45.691,51.24L41.086,45.573z M59.15,28.926c19.126,0,27.981,23.377,14.286,36.246
		c-8.501,8.028-22.196,7.32-29.988-1.417C31.641,50.413,40.85,28.926,59.15,28.926z M11.452,20.779h7.32
		c2.243,0,2.243,6.021,0,6.021h-7.32C9.209,26.8,9.209,20.779,11.452,20.779z M97.993,61.629v22.904H1.889V61.629h5.785v7.792
		c0,1.889,2.952,1.889,2.952,0v-7.792h2.834v7.792c0,1.889,2.834,1.889,2.834,0v-7.792h2.834v7.792c0,1.889,2.952,1.889,2.952,0
		v-7.792h2.834v7.792c0,1.889,2.834,1.889,2.834,0v-7.792h6.612c4.368,9.209,13.813,15.702,24.793,15.702
		s20.425-6.493,24.793-15.702H97.993z"/>
</g>
</svg>
