<svg height='100px' width='100px'  fill="#000000" xmlns="http://www.w3.org/2000/svg" xmlns:xlink="http://www.w3.org/1999/xlink" version="1.1" x="0px" y="0px" viewBox="0 0 50 50" enable-background="new 0 0 50 50" xml:space="preserve"><g><path d="M26.5,18.5c-0.5-0.1-1-0.2-1.5-0.2c-3.3,0-6,2.7-6,6s2.7,6,6,6s6-2.7,6-6c0-0.5-0.1-1.1-0.2-1.5l-3.7,3.7   c-1.2,1.2-3.1,1.1-4.2,0c-1.2-1.2-1.2-3.1,0-4.2L26.5,18.5z"></path><path d="M32.5,12.5c-2.2-1.4-4.8-2.2-7.5-2.2c-7.7,0-14,6.3-14,14c0,7.7,6.3,14,14,14c7.7,0,14-6.3,14-14c0-2.8-0.8-5.4-2.2-7.5   l-4.4,4.4c0.4,1,0.6,2,0.6,3.1c0,4.4-3.6,8-8,8c-4.4,0-8-3.6-8-8s3.6-8,8-8c1.1,0,2.2,0.2,3.1,0.6L32.5,12.5z"></path><path d="M38.2,15.3c1.8,2.6,2.8,5.7,2.8,9c0,8.8-7.2,16-16,16c-8.8,0-16-7.2-16-16s7.2-16,16-16c3.3,0,6.4,1,9,2.8l5.7-5.7   c-4.1-3.2-9.2-5-14.7-5c-13.2,0-24,10.8-24,24s10.8,24,24,24c13.2,0,24-10.8,24-24c0-5.5-1.9-10.6-5-14.7L38.2,15.3z"></path><path d="M43.1,1c-0.6,0-1,0.4-1,1v3.9L24.3,23.6c-0.4,0.4-0.4,1,0,1.4c0.2,0.2,0.5,0.3,0.7,0.3s0.5-0.1,0.7-0.3L43.5,7.3h3.9   c0.6,0,1-0.4,1-1s-0.4-1-1-1h-1.9L47.7,3c0.4-0.4,0.4-1,0-1.4s-1-0.4-1.4,0l-2.3,2.3V2C44.1,1.4,43.6,1,43.1,1z"></path></g></svg>