<svg height='100px' width='100px'  fill="#000000" xmlns:x="http://ns.adobe.com/Extensibility/1.0/" xmlns:i="http://ns.adobe.com/AdobeIllustrator/10.0/" xmlns:graph="http://ns.adobe.com/Graphs/1.0/" xmlns="http://www.w3.org/2000/svg" xmlns:xlink="http://www.w3.org/1999/xlink" version="1.1" x="0px" y="0px" viewBox="0 0 100 100" style="enable-background:new 0 0 100 100;" xml:space="preserve"><g><g i:extraneous="self"><g><path d="M97.3,7.1c-0.2-2.9-3.7-4.3-5.8-2.2c-17.3,17.5-44,17-45.7,35.6c-0.4,4.1,1.1,8,3.7,11.4c12.7-12.7,26.2-17,26.9-17.3     c0.2-0.1,0.3-0.1,0.5-0.1c-3.5,2-24,14.6-33,37.6C39.2,64.9,31.9,56,25.9,51c-4.1-3.7-7.5-6.1-8.5-6.7c0.1,0,0.2,0,0.3,0.1     c0.5,0.2,10.9,2.7,19.9,12.1c1.8-2.4,2.2-4.2,2-7C38.6,36,19.2,35.9,7,22.9c-1.5-1.6-4.1-0.6-4.3,1.5C1.8,36.5,3,57.1,11.5,63.1     c4.7,3.4,12.1,2.9,17.9,0.3c5,5.7,9.8,12.5,11.9,16.8c-1,4.1-1.6,8.5-1.7,13.1c0,1.7,1.4,3.2,3.1,3.2c0,0,0,0,0.1,0     c1.7,0,3.1-1.4,3.2-3.1c0.2-14.1,5.9-25.5,12.5-34.1c8.1,4.5,18.5,5.7,25.6,0.8C95.9,52.1,98.2,23.8,97.3,7.1z"></path><path d="M28.5,25.1c3.6,0.9,6.5,3.8,7.4,7.4c0.1,0.5,0.6,0.9,1.1,0.9h0c0.5,0,1-0.4,1.1-0.9c0.9-3.6,3.8-6.5,7.4-7.4c0,0,0,0,0,0     c0.5-0.1,0.9-0.6,0.9-1.1c0-0.5-0.4-1-0.9-1.1c-3.7-0.9-6.5-3.7-7.4-7.4c-0.1-0.5-0.6-0.9-1.1-0.9c0,0,0,0,0,0     c-0.5,0-1,0.4-1.1,0.9c-0.9,3.7-3.7,6.5-7.4,7.4c-0.5,0.1-0.9,0.6-0.9,1.1C27.6,24.5,28,24.9,28.5,25.1z"></path><path d="M46.1,12.3c3,0.7,5.5,3.2,6.2,6.2c0.1,0.4,0.5,0.7,0.9,0.7c0,0,0,0,0,0c0.5,0,0.8-0.3,0.9-0.7c0.7-3,3.2-5.5,6.2-6.2     c0,0,0,0,0,0c0.4-0.1,0.7-0.5,0.7-1c0-0.5-0.3-0.8-0.7-0.9c-3.1-0.7-5.5-3.1-6.2-6.2c-0.1-0.4-0.5-0.7-1-0.7c0,0,0,0,0,0     c-0.5,0-0.8,0.3-0.9,0.7c-0.7,3.1-3.1,5.5-6.2,6.2c-0.4,0.1-0.7,0.5-0.7,0.9C45.4,11.8,45.7,12.2,46.1,12.3z"></path><path d="M12.9,16.8c2.8,0.7,5.1,3,5.8,5.8c0.1,0.4,0.5,0.7,0.9,0.7c0,0,0,0,0,0c0.4,0,0.8-0.3,0.9-0.7c0.7-2.8,3-5.1,5.8-5.8     c0,0,0,0,0,0c0.4-0.1,0.7-0.5,0.7-0.9c0-0.4-0.3-0.8-0.7-0.9c-2.9-0.7-5.1-2.9-5.8-5.8c-0.1-0.4-0.5-0.7-0.9-0.7c0,0,0,0,0,0     c-0.4,0-0.8,0.3-0.9,0.7c-0.7,2.9-2.9,5.1-5.8,5.8c-0.4,0.1-0.7,0.5-0.7,0.9C12.2,16.3,12.5,16.7,12.9,16.8z"></path></g></g></g></svg>