<svg height='100px' width='100px'  fill="#000000" xmlns="http://www.w3.org/2000/svg" xmlns:xlink="http://www.w3.org/1999/xlink" version="1.1" x="0px" y="0px" viewBox="0 0 100 100" style="enable-background:new 0 0 100 100;" xml:space="preserve"><style type="text/css">
	.st0{fill:none;stroke:#000000;stroke-width:2;stroke-linecap:round;stroke-linejoin:round;stroke-miterlimit:10;}
	.st1{fill:none;stroke:#000000;stroke-width:2;stroke-linecap:round;stroke-miterlimit:10;}
	.st2{fill:none;stroke:#000000;stroke-width:2;stroke-miterlimit:10;}
	.st3{fill:none;stroke:#000000;stroke-width:2;stroke-linecap:round;stroke-linejoin:round;}
	.st4{fill:none;stroke:#000000;stroke-width:2;stroke-linecap:round;stroke-linejoin:round;stroke-dasharray:2,3;}
</style><path d="M65.7,27.4c-0.1,0-0.2-0.1-0.3-0.1h-29c-0.2,0-0.3,0-0.4,0.1c-0.1,0.1-2.5,1.3-2.8,5.7c-1,0.1-2,0.6-2.6,1.4  c-0.6,0.8-1.2,2.1-1.1,3.9c0,0.5,0.5,0.9,1,0.9h2.6l0.4,8.2h-0.4c-0.3,0-0.5,0.1-0.7,0.3c-0.2,0.2-0.3,0.5-0.3,0.7l0.9,22.2  c0,0.5,0.5,1,1,1h0.7L35.4,86c0.1,1.4,1.2,2.5,2.6,2.5h26.6c1.4,0,2.6-1.1,2.6-2.5L68,71.8h0.7c0.5,0,1-0.4,1-1l0.9-22.2  c0-0.3-0.1-0.5-0.3-0.7c-0.2-0.2-0.4-0.3-0.7-0.3h-0.4l0.4-8.2h2.6c0.5,0,1-0.4,1-0.9c0-0.7,0-1.4-0.2-2.1c-0.5-1.6-1.8-2.8-3.5-3.2  C69.2,28.6,65.8,27.4,65.7,27.4z M36.6,29.3h28.5c0.5,0.2,2.1,1.2,2.4,3.8H35.1C35.3,30.6,36.2,29.6,36.6,29.3z M65.3,85.9  c0,0.3-0.3,0.6-0.6,0.6H38c-0.3,0-0.6-0.3-0.6-0.6l-0.8-14.2H66L65.3,85.9z M67.8,69.8h-33L34,49.6h34.7L67.8,69.8z M67.3,47.6h-32  l-0.4-8.2h32.8L67.3,47.6z M71.1,36.9c0,0.2,0.1,0.3,0.1,0.5H31.4c0.1-0.6,0.3-1.2,0.7-1.7c0.2-0.4,0.7-0.6,1.1-0.6h35.4  C69.8,35.1,70.8,35.8,71.1,36.9z"></path><path d="M47.1,15.9c-2.3,0-4.2,1.9-4.2,4.2s1.9,4.2,4.2,4.2c0.6,0,1-0.4,1-1s-0.4-1-1-1c-1.2,0-2.2-1-2.2-2.2s1-2.2,2.2-2.2  c2.3,0,4.2-1.9,4.2-4.2s-1.9-4.2-4.2-4.2c-0.6,0-1,0.4-1,1s0.4,1,1,1c1.2,0,2.2,1,2.2,2.2S48.3,15.9,47.1,15.9z"></path><path d="M55.6,15.9c-2.3,0-4.2,1.9-4.2,4.2s1.9,4.2,4.2,4.2c0.6,0,1-0.4,1-1s-0.4-1-1-1c-1.2,0-2.2-1-2.2-2.2s1-2.2,2.2-2.2  c2.3,0,4.2-1.9,4.2-4.2s-1.9-4.2-4.2-4.2c-0.6,0-1,0.4-1,1s0.4,1,1,1c1.2,0,2.2,1,2.2,2.2S56.8,15.9,55.6,15.9z"></path><path d="M57.8,60c-0.1,0-2.7-0.2-4.5,1.3v-0.4c0.6-0.7,2-2.2,2-4.2c0-2.5-2.1-4.5-2.2-4.6c-0.4-0.3-0.9-0.3-1.3,0  c-0.1,0.1-2.3,2-2.3,4.5c0,2,1.3,3.6,1.9,4.2v0.5c-1.8-1.5-4.5-1.3-4.6-1.3c-0.5,0-0.9,0.4-0.9,0.9c0,0.1-0.3,3.2,1.6,5  c1.5,1.5,3.7,1.6,4.6,1.6c0.2,0,0.3,0,0.3,0c0,0,0,0,0,0c0,0,0,0,0,0c0,0,0,0,0,0c0,0,0,0,0,0c0.1,0,0.1,0,0.2,0  c0.8,0,3.2-0.1,4.7-1.7c1.8-1.9,1.5-4.9,1.5-5C58.7,60.5,58.3,60.1,57.8,60z M52.4,54.4c0.4,0.6,0.9,1.4,0.9,2.3  c0,0.9-0.5,1.7-1,2.3c-0.4-0.6-0.9-1.4-0.9-2.3C51.4,55.8,51.9,55,52.4,54.4z M48.7,64.6c-0.7-0.7-0.9-1.7-1-2.5  c0.8,0.1,1.8,0.3,2.5,1c0.7,0.7,0.9,1.7,1,2.5C50.5,65.5,49.4,65.3,48.7,64.6z M55.8,64.6c-0.7,0.7-1.7,0.9-2.5,1  c0.1-0.8,0.3-1.8,1-2.5c0.7-0.7,1.7-0.9,2.5-1C56.7,62.8,56.5,63.9,55.8,64.6z"></path></svg>