<svg height='100px' width='100px'  fill="#000000" xmlns="http://www.w3.org/2000/svg" xmlns:xlink="http://www.w3.org/1999/xlink" xml:space="preserve" style="shape-rendering:geometricPrecision;text-rendering:geometricPrecision;image-rendering:optimizeQuality;" viewBox="0 0 11.7164 14.7073" x="0px" y="0px" fill-rule="evenodd" clip-rule="evenodd"><defs><style type="text/css">
   
    .fil0 {fill:#000000}
   
  </style></defs><g><path class="fil0" d="M9.9843 13.5286c0.6376,0.8684 -0.0839,1.3982 -0.7215,0.5297 -0.3305,-0.4501 -2.5284,-3.3017 -3.4058,-4.5218 -0.8774,1.2201 -3.1339,4.2769 -3.4644,4.727 -0.6377,0.8685 -1.3592,0.3387 -0.7216,-0.5297 0.8777,-1.1954 2.7513,-3.7987 3.6276,-4.9951 -0.1734,-0.2587 -0.29,-0.4505 -0.3194,-0.5377 -1.7343,-0.4023 -5.2153,-5.6276 -4.9665,-8.201 1.9508,2.6569 3.8969,5.3172 5.8443,7.9764 1.9474,-2.6592 3.8934,-5.3195 5.8443,-7.9764 0.2899,2.9989 -3.6836,7.9034 -4.9666,8.201 -0.0294,0.0872 -0.1459,0.279 -0.3194,0.5377 0.8764,1.1964 2.6913,3.5945 3.569,4.7899z"></path></g></svg>