<svg height='100px' width='100px'  fill="#000000" xmlns="http://www.w3.org/2000/svg" viewBox="0 0 64 64" x="0px" y="0px"><g><path d="M28.641,40.232l-5.934-4.939A4.25,4.25,0,0,0,22,34.73V31a3,3,0,0,0-3-3,2.967,2.967,0,0,0-1.471.4,2.978,2.978,0,0,0-3.664-1.175A2.982,2.982,0,0,0,8,28v6a1,1,0,0,0,.086.406l4,9a1.009,1.009,0,0,0,.467.489L20,47.618V51a1,1,0,0,0,1,1h9a1,1,0,0,0,1-1V45A5.908,5.908,0,0,0,28.641,40.232ZM18,31a1,1,0,0,1,2,0v3.117a3.682,3.682,0,0,0-2,.613Zm-4-1a1,1,0,0,1,2,0v4.586l-2-2ZM29,50H22V47a1,1,0,0,0-.553-.9l-7.678-3.839L10,33.788V28a1,1,0,0,1,1.175-.986A1.085,1.085,0,0,1,12,28.107V33a1,1,0,0,0,.293.707l9,9,1.414-1.414L18.414,37l.293-.293a1.745,1.745,0,0,1,2.652.061l5.983,4.984A3.932,3.932,0,0,1,29,45Z"></path><path d="M50.135,27.226A2.978,2.978,0,0,0,46.471,28.4,2.967,2.967,0,0,0,45,28a3,3,0,0,0-3,3v3.714a4.02,4.02,0,0,0-.641.518l-6.017,5.016A5.887,5.887,0,0,0,33,45v6a1,1,0,0,0,1,1h9a1,1,0,0,0,1-1V47.618L51.447,43.9a1.009,1.009,0,0,0,.467-.489l4-9A1,1,0,0,0,56,34V28a2.981,2.981,0,0,0-5.865-.774ZM48,30a1,1,0,0,1,2,0v2.586l-2,2Zm-4,1a1,1,0,0,1,2,0v3.729a3.727,3.727,0,0,0-2-.619Zm9.647-3.762A1,1,0,0,1,54,28v5.788l-3.769,8.478-7.678,3.839A1,1,0,0,0,42,47v3H35V45a3.91,3.91,0,0,1,1.641-3.232l6.066-5.061a1.714,1.714,0,0,1,2.586,0l.293.293-4.293,4.293,1.414,1.414,9-9A1,1,0,0,0,52,33V28.107a1.086,1.086,0,0,1,.824-1.093A1.008,1.008,0,0,1,53.647,27.238Z"></path><path d="M32,2A30,30,0,1,0,62,32,30.034,30.034,0,0,0,32,2Zm0,58A28,28,0,1,1,60,32,28.032,28.032,0,0,1,32,60Z"></path><path d="M44,22A12,12,0,1,0,32,34,12.013,12.013,0,0,0,44,22ZM22,22A10,10,0,1,1,32,32,10.011,10.011,0,0,1,22,22Z"></path><path d="M35,28V25h3a1,1,0,0,0,1-1V20a1,1,0,0,0-1-1H35V16a1,1,0,0,0-1-1H30a1,1,0,0,0-1,1v3H26a1,1,0,0,0-1,1v4a1,1,0,0,0,1,1h3v3a1,1,0,0,0,1,1h4A1,1,0,0,0,35,28Zm-2-4v3H31V24a1,1,0,0,0-1-1H27V21h3a1,1,0,0,0,1-1V17h2v3a1,1,0,0,0,1,1h3v2H34A1,1,0,0,0,33,24Z"></path><path d="M32,8V6A25.941,25.941,0,0,0,9.12,19.524l1.76.952A23.941,23.941,0,0,1,32,8Z"></path><path d="M32,56v2A25.805,25.805,0,0,0,52.8,47.6l-1.6-1.2A23.818,23.818,0,0,1,32,56Z"></path><rect x="28" y="56" width="2" height="2"></rect><path d="M12,22a3,3,0,1,0,3-3A3,3,0,0,0,12,22Zm4,0a1,1,0,1,1-1-1A1,1,0,0,1,16,22Z"></path><path d="M45,18a4,4,0,1,0,4-4A4,4,0,0,0,45,18Zm6,0a2,2,0,1,1-2-2A2,2,0,0,1,51,18Z"></path></g></svg>