<svg height='100px' width='100px'  fill="#000000" xmlns="http://www.w3.org/2000/svg" xmlns:xlink="http://www.w3.org/1999/xlink" version="1.1" x="0px" y="0px" viewBox="0 0 512 512" style="enable-background:new 0 0 512 512;" xml:space="preserve"><g><g><path style="" d="M219.645,380.27l9.567-35.994l-29.326-7.82l-9.636,35.925    c-0.417,1.5,0.07,8.763,0.839,17.352c0.835,9.251,2.022,19.899,2.93,26.741c4.262-5.445,10.685-13.999,16.131-21.574    C215.106,387.881,219.158,381.841,219.645,380.27 M303.853,147.44c-0.836-1.361-2.163-2.409-3.769-2.862    c-1.678-0.419-3.352-0.175-4.75,0.627c-1.324,0.768-2.443,2.096-2.86,3.771c-0.421,1.641-0.142,3.316,0.628,4.678    c0.767,1.361,2.096,2.444,3.77,2.898c1.678,0.418,3.352,0.138,4.68-0.629c1.394-0.768,2.443-2.094,2.861-3.771    C304.902,150.514,304.622,148.837,303.853,147.44z M301.551,139.027c3.209,0.837,5.725,2.932,7.262,5.586    c1.535,2.654,2.025,5.865,1.187,9.042c-0.838,3.176-2.934,5.691-5.587,7.227c-2.654,1.536-5.863,2.059-9.008,1.222    c-3.211-0.872-5.727-2.933-7.262-5.586c-1.536-2.653-2.023-5.865-1.188-9.042c0.838-3.176,2.865-5.726,5.519-7.227    C295.123,138.713,298.338,138.188,301.551,139.027z M240.594,130.543c-0.77-1.362-2.095-2.444-3.7-2.898    c-1.678-0.418-3.355-0.175-4.749,0.628c-1.329,0.768-2.375,2.095-2.865,3.736c-0.418,1.675-0.138,3.352,0.628,4.713    c0.77,1.361,2.095,2.444,3.772,2.897c1.605,0.42,3.352,0.175,4.677-0.627c1.398-0.768,2.443-2.095,2.864-3.736    C241.708,133.581,241.432,131.905,240.594,130.543z M238.357,122.095c3.144,0.872,5.726,2.932,7.261,5.55    c1.54,2.654,2.026,5.9,1.187,9.077c-0.834,3.177-2.93,5.726-5.584,7.261c-2.654,1.502-5.867,2.025-9.008,1.188    c-3.213-0.873-5.725-2.933-7.262-5.586c-1.535-2.619-2.025-5.866-1.256-9.042c0.908-3.177,2.93-5.726,5.585-7.262    C231.935,121.78,235.148,121.257,238.357,122.095z M303.365,191.744c0.418-1.536,2.026-2.443,3.563-2.025    c1.464,0.384,2.443,1.956,2.023,3.492l-7.681,28.558c-0.349,1.536-1.956,2.443-3.492,2.025c-1.536-0.385-2.444-1.956-2.022-3.491    L303.365,191.744z M289.329,187.974c0.349-1.536,1.958-2.443,3.493-2.06c1.535,0.419,2.443,1.991,2.025,3.527l-7.613,28.558    c-0.418,1.536-2.022,2.444-3.559,2.025c-1.539-0.42-2.446-1.99-2.025-3.491L289.329,187.974z M191.854,261.114l45.667,12.254    c1.537,0.385,2.444,1.99,2.023,3.527c-0.418,1.535-1.954,2.443-3.489,2.024l-45.736-12.255l-1.536,5.936    c-0.907,3.422-0.349,6.913,1.325,9.811c1.608,2.863,4.4,5.098,7.821,6.039l57.046,15.257c3.355,0.907,6.844,0.35,9.708-1.222    l0.068-0.069c2.861-1.676,5.099-4.435,6.006-7.855l13.895-51.845l-42.036,0.349l0,0h-0.069l0,0l0,0h-0.069l0,0l0,0l0,0h-0.069l0,0    h-0.069l0,0l0,0h-0.072v-0.035l0,0h-0.069l0,0l0,0h-0.069l0,0h-0.069l0,0h-0.072v-0.035l0,0h-0.069v-0.035l0,0h-0.069l0,0l0,0l0,0    h-0.069l0,0v-0.035h-0.072l0,0l-0.069-0.035l0,0l0,0h-0.069l0,0v-0.035l-0.279-0.07v-0.035l-0.069-0.035l0,0l0,0l0,0    l-38.544-22.029l-7.472,27.895l45.667,12.218c1.536,0.419,2.444,1.99,2.096,3.526c-0.491,1.537-2.026,2.444-3.562,2.025    l-45.664-12.219L191.854,261.114z M246.458,307.374l-43.01-11.521l-8.939,33.306l3.282,0.872c0.279,0,0.49,0.036,0.766,0.071    l34.982,9.392c0.21,0.069,0.49,0.174,0.701,0.313l3.281,0.872L246.458,307.374z M267.266,108.06l17.805,4.783l40.988-25.032    l-81.834-21.925L267.266,108.06z M325.989,58.415L259.027,40.47l-3.493,13.092l66.962,17.945L325.989,58.415z M315.794,218.033    c6.491,2.618,12.011,7.646,15.71,13.719c4.19,6.983,6.006,15.397,3.98,23.217l-22.623,84.558    c-1.748,6.354-0.629,12.847,2.373,18.154c3.072,5.271,8.102,9.391,14.385,11.137l0.281,0.069    c6.283,1.642,12.707,0.56,18.011-2.479c5.31-3.036,9.43-8.134,11.173-14.488c7.541-28.069,14.664-56.663,22.622-84.592    c2.237-7.786,7.963-14.174,15.155-18.084c7.189-3.98,15.918-5.447,23.811-3.317c3.071,0.803,6.84,2.829,10.751,5.831    c6.284,4.853,12.986,12.428,17.317,21.82c4.329,9.427,6.354,20.738,3.072,32.922c-1.815,6.739-5.238,13.721-10.685,20.773    c-28.556,36.901-14.661,66.752-14.661,66.821c0.697,1.431,0.068,3.143-1.398,3.841c-1.397,0.629-3.141,0-3.842-1.433    c0-0.104-15.361-33.061,15.362-72.722c4.96-6.424,8.031-12.742,9.636-18.782c2.865-10.718,1.119-20.668-2.723-29.012    c-3.91-8.484-9.984-15.326-15.641-19.691c-3.211-2.514-6.281-4.189-8.656-4.817c-6.426-1.746-13.615-0.49-19.621,2.793    c-5.867,3.246-10.616,8.413-12.29,14.627l-22.691,84.488c-2.096,7.925-7.262,14.209-13.825,18.015    c-6.566,3.771-14.523,5.097-22.414,3.037l-0.072-0.035c-7.89-2.095-14.175-7.262-18.013-13.859    c-3.771-6.6-5.097-14.629-3.003-22.484l22.625-84.486c1.674-6.32,0.138-13.163-3.352-18.853    c-2.934-4.854-7.262-8.902-12.36-11.102c-1.466,4.189-4.33,7.192-7.89,9.251c-5.097,2.933-12.082,4.085-17.877,4.085h-0.418    l-44.618,0.383l-40.918-23.355l-0.276-0.175c-5.029-2.828-10.405-7.227-13.339-12.289l-0.069-0.105    c-2.233-4.015-3.141-8.553-1.815-13.545l18.364-68.533c1.535-5.62,5.167-10.124,9.915-12.813    c4.677-2.722,10.402-3.665,16.059-2.129l86.793,23.252c5.584,1.5,10.123,5.167,12.846,9.879    c2.654,4.678,3.561,10.404,2.096,16.026L315.794,218.033z M58.563,442.029l0.349-5.481l40.217,2.479l0.49-13.267l-6.495-21.401    c-0.417-1.466,0.417-3.001,1.884-3.455c0.421-0.141,0.839-0.141,1.257-0.069l54.185,7.925c0.977,0.174,1.816,0.802,2.165,1.676    l12.918,25.241l24.228,24.856l-3.979,3.841l-24.507-25.137c-0.141-0.21-0.279-0.419-0.417-0.664l-15.852-15.675l-37.288-7.995    l-2.65,9.705c0.068,0.28,0.138,0.559,0.068,0.873l-0.628,16.619c-0.069,1.535-1.397,2.688-2.934,2.582L58.563,442.029z     M206.029,469.33l18.364-42.209l16.829,1.258l-0.697-29.257l43.011-5.201l12.639,33.306l22.481-28.872l37.425,12.009    l-18.152,53.835l32.328-1.083l-0.697-32.188l46.571,21.89l-2.371,4.992l-38.476-18.119l0.629,28.733l-45.733,1.535l4.189-36.588    l-13.757-28.594l-26.184,33.586l-17.944-22.867l-21.646,1.048l-7.958,17.77l-18.993-1.396l-16.829,38.613L206.029,469.33z     M327.245,74.963l-0.142,0.628c-0.417,1.467-1.884,2.34-3.351,1.956L251.417,58.17c-1.467-0.385-2.375-1.92-1.957-3.386    l0.141-0.628l-38.054-10.195l35.539,58.688l12.85,3.457l-23.601-43.222c-0.77-1.361-0.279-3.037,1.046-3.736    c0.697-0.384,1.397-0.418,2.026-0.244l94.33,25.242c1.467,0.383,2.375,1.92,1.958,3.386c-0.21,0.769-0.697,1.362-1.326,1.71    l-41.967,25.556l12.569,3.387l0,0l60.117-33.098L327.245,74.963z" fill-rule="evenodd" clip-rule="evenodd"></path></g></g></svg>