<svg height='100px' width='100px'  fill="#000000" xmlns="http://www.w3.org/2000/svg" xmlns:xlink="http://www.w3.org/1999/xlink" version="1.1" x="0px" y="0px" viewBox="0 0 120 120" style="enable-background:new 0 0 120 120;" xml:space="preserve"><g><path d="M38.5,84.7c0-5.2-4.2-9.4-9.4-9.4s-9.4,4.2-9.4,9.4c0,5.2,4.2,9.4,9.4,9.4S38.5,89.9,38.5,84.7z"></path><path d="M99.9,84.7c0-5.2-4.2-9.4-9.4-9.4S81,79.5,81,84.7c0,5.2,4.2,9.4,9.4,9.4S99.9,89.9,99.9,84.7z"></path><path d="M46.2,53.8c1.9-3.4,1.9-7.5,0-10.9l-9.5-17l-9.5,17c-1.9,3.4-1.9,7.5,0,10.9c1.8,3.3,5.1,5.5,8.9,5.7c0.2,0,0.5,0,0.7,0   c0.2,0,0.5,0,0.7,0C41,59.3,44.3,57.2,46.2,53.8z"></path><path d="M109.8,70.6c-1.2-6.4-5.1-8.3-13.9-10.4c-8.3-2-15-5.5-21.5-9c-7.9-4.2-15.5-8.2-25.1-8.8c1.9,4.1,1.8,8.8-0.4,12.8   c-2.3,4.2-6.5,6.9-11.3,7.2c-0.3,0-0.6,0-0.9,0c-0.3,0-0.6,0-0.9,0c-4.8-0.3-9-3-11.3-7.2c-2.2-3.9-2.3-8.6-0.5-12.6   C16,44.1,10,51,10,59.3v11c0,4.9,2.7,9.1,6.8,11.3C18.2,76.1,23.1,72,29,72c6.4,0,11.8,4.8,12.6,11.1h36.3C78.7,76.8,84,72,90.5,72   c6.4,0,11.8,4.8,12.6,11.1h0.8c1.1,0,2.3-1,3.1-1.8C109.4,78.6,110.5,74.6,109.8,70.6z"></path></g></svg>