<svg height='100px' width='100px'  fill="#000000" xmlns="http://www.w3.org/2000/svg" xmlns:xlink="http://www.w3.org/1999/xlink" version="1.1" x="0px" y="0px" viewBox="0 0 512 512" style="enable-background:new 0 0 512 512;" xml:space="preserve"><g><g><polygon points="324.149,258.862 309.686,254.305 318.709,266.502   "></polygon><path d="M161.068,147.667c-7.08,0-14.163,0.965-21.053,2.869c-41.949,11.643-66.633,55.204-55.02,97.105    c9.43,34.089,40.686,57.896,76.011,57.896c7.091,0,14.188-0.968,21.092-2.876c22.227-6.143,40.564-21.604,50.376-42.448    l6.353-20.117c2.021-11.537,1.448-23.154-1.704-34.534C227.681,171.475,196.405,147.667,161.068,147.667z M141.83,168.042    c0.077-1.731,1.26-3.217,2.93-3.679c1.672-0.462,3.448,0.205,4.404,1.651l18.816,28.49c0.706,1.068,0.857,2.41,0.407,3.609    c-0.45,1.199-1.447,2.11-2.682,2.451l-20.324,5.604c-0.35,0.097-0.708,0.144-1.063,0.144c-0.896,0-1.777-0.301-2.493-0.872    c-1.001-0.798-1.56-2.026-1.503-3.305L141.83,168.042z M135.472,239.227c-0.664,0.439-1.433,0.664-2.208,0.664    c-0.471,0-0.945-0.083-1.398-0.253l-31.834-11.882c-1.624-0.605-2.672-2.189-2.597-3.921s1.257-3.218,2.928-3.681l32.773-9.082    c1.235-0.344,2.559-0.072,3.561,0.726s1.561,2.028,1.504,3.308l-0.939,20.964C137.204,237.348,136.539,238.521,135.472,239.227z     M164.941,259.507l-21.075,26.413c-0.775,0.971-1.935,1.505-3.127,1.505c-0.47,0-0.945-0.083-1.404-0.255    c-1.622-0.608-2.668-2.192-2.591-3.923l1.502-33.782c0.057-1.28,0.724-2.456,1.793-3.161c1.07-0.707,2.412-0.857,3.612-0.404    l19.573,7.369c1.198,0.45,2.108,1.447,2.447,2.682C166.011,257.184,165.739,258.506,164.941,259.507z M165.991,248.456    c-0.47,0-0.945-0.083-1.403-0.255l-20.5-7.686c-1.623-0.608-2.67-2.193-2.592-3.926l0.985-21.844    c0.078-1.727,1.257-3.209,2.923-3.673l21.069-5.867c1.671-0.464,3.451,0.199,4.409,1.646l12.092,18.271    c0.957,1.446,0.874,3.345-0.207,4.701l-13.646,17.126C168.345,247.921,167.184,248.456,165.991,248.456z M209.481,268.434    c-0.019,0-0.038,0-0.056,0c-0.47,0-0.945-0.083-1.404-0.255l-31.683-11.887c-1.198-0.449-2.109-1.446-2.45-2.68    c-0.341-1.234-0.071-2.557,0.727-3.559l13.025-16.346c0.798-1.001,2.032-1.572,3.306-1.503c1.279,0.057,2.454,0.723,3.159,1.791    l18.462,27.936c0.55,0.686,0.879,1.555,0.879,2.502C213.446,266.631,211.674,268.415,209.481,268.434z M215.696,195.721    l-21.175,26.625c-0.761,0.956-1.915,1.51-3.13,1.51c-0.059,0-0.117-0.001-0.176-0.004c-1.28-0.056-2.455-0.722-3.161-1.79    l-11.599-17.543c-0.706-1.068-0.858-2.409-0.409-3.608s1.444-2.11,2.678-2.452l32.774-9.082c1.67-0.465,3.448,0.203,4.404,1.646    C216.857,192.468,216.774,194.364,215.696,195.721z"></path><polygon points="191.688,213.054 201.775,200.371 186.163,204.697   "></polygon><polygon points="184.302,250.735 199.297,256.361 190.466,242.999   "></polygon><polygon points="360.9,237.176 352.005,249.619 361.02,252.471   "></polygon><path d="M184.229,310.373c-7.599,2.1-15.412,3.165-23.223,3.165c-38.909,0-73.336-26.22-83.721-63.762    c-12.79-46.148,14.392-94.127,60.595-106.95c7.588-2.097,15.389-3.159,23.188-3.159c38.919,0,73.365,26.219,83.766,63.76    c0.97,3.504,1.71,7.03,2.236,10.568l1.877-5.943L216.361,90.249c-3.247-11.737-14.07-19.936-26.319-19.936    c-2.42,0-4.839,0.328-7.187,0.977L62.483,104.608c-6.977,1.926-12.795,6.478-16.386,12.817c-3.594,6.346-4.507,13.684-2.57,20.664    l63.289,228.709c3.237,11.737,14.043,19.934,26.279,19.934c2.425,0,4.848-0.33,7.201-0.979l57.562-15.926l26.366-83.488    C213.462,297.72,199.702,306.097,184.229,310.373z"></path><polygon points="310.12,308.283 324.375,303.532 318.85,296.049   "></polygon><polygon points="149.278,180.703 148.557,196.994 158.269,194.317   "></polygon><path d="M142.428,393.464c-3.048,0.842-6.188,1.269-9.333,1.269c-15.823,0-29.8-10.611-33.99-25.804L35.817,140.226    c-2.508-9.038-1.33-18.536,3.319-26.742c4.646-8.201,12.18-14.092,21.216-16.586l120.373-33.319    c3.044-0.839,6.178-1.265,9.317-1.265c15.833,0,29.827,10.61,34.029,25.803l29.303,105.932l5.947-18.835l-28.222-101.99    c-4.025-14.434-17.329-24.521-32.349-24.521c-2.982,0-5.961,0.406-8.856,1.207L45.463,89.87    c-8.569,2.375-15.724,7.982-20.146,15.788c-4.42,7.804-5.546,16.814-3.17,25.372l69.931,252.789    c3.994,14.44,17.279,24.526,32.305,24.526c2.991,0,5.979-0.407,8.881-1.212l61.962-17.157c-0.411-3.671-0.337-7.433,0.278-11.197    L142.428,393.464z"></path><polygon points="145.282,271.318 155.257,258.816 145.993,255.329   "></polygon><polygon points="129.515,230.222 129.961,220.253 114.377,224.571   "></polygon><polygon points="150.343,218.003 149.619,234.046 164.675,239.69 174.697,227.112 165.816,213.693   "></polygon><polygon points="352.66,312.462 361.603,324.552 361.474,309.517   "></polygon><path d="M450.829,162.64l-119.098-37.572c-2.648-0.841-5.384-1.267-8.139-1.267c-11.772,0-22.462,7.813-25.996,18.998    L226.136,369.07c-2.176,6.911-1.522,14.286,1.843,20.763c3.364,6.475,9.013,11.231,15.906,13.396l119.109,37.622    c2.65,0.841,5.39,1.267,8.146,1.267c11.772,0,22.46-7.833,25.991-19.047l71.462-226.27    C473.111,182.498,465.143,167.173,450.829,162.64z M430.868,307.206c-11.492,36.367-44.797,60.8-82.875,60.8    c-8.86,0-17.676-1.366-26.202-4.06c-45.681-14.443-71.118-63.372-56.705-109.07c11.469-36.338,44.762-60.751,82.845-60.751    c8.866,0,17.689,1.367,26.223,4.063C419.841,212.639,445.282,261.544,430.868,307.206z"></path><path d="M468.403,148.578l-142.929-45.149c-3.25-1.031-6.612-1.554-9.998-1.554c-14.486,0-27.644,9.617-31.996,23.388    l-16.086,50.948c-0.024,0.108-0.043,0.218-0.077,0.324l-26.47,83.805l-0.752,2.391c-0.004,0.012-0.01,0.023-0.014,0.035    l-35.56,112.582c-0.194,0.61-0.365,1.228-0.523,1.848c-0.055,0.213-0.101,0.427-0.15,0.641c-0.102,0.438-0.199,0.876-0.283,1.317    c-0.037,0.193-0.072,0.388-0.105,0.581c-0.094,0.545-0.177,1.093-0.243,1.642c-0.009,0.073-0.02,0.146-0.028,0.22    c-0.395,3.475-0.241,7.014,0.474,10.471c0.013,0.064,0.011,0.128,0.021,0.192c2.408,11.44,10.744,21.312,22.674,25.09    l142.89,45.093c3.262,1.035,6.636,1.559,10.031,1.559c14.479,0,27.625-9.598,31.971-23.34l78.958-250.136    c2.691-8.476,1.895-17.521-2.241-25.477C483.829,157.092,476.882,151.242,468.403,148.578z M476.222,199.211l-71.461,226.266    c-4.64,14.736-18.152,24.641-33.621,24.641c-3.578,0-7.131-0.552-10.56-1.64l-119.098-37.618    c-8.931-2.804-16.25-8.962-20.602-17.338c-4.349-8.369-5.191-17.907-2.374-26.857l71.463-226.275    c4.573-14.477,18.4-24.588,33.624-24.588c3.577,0,7.128,0.552,10.553,1.64l119.095,37.571    C471.76,160.877,482.067,180.704,476.222,199.211z"></path><path d="M371.742,205.815c-7.752-2.448-15.764-3.69-23.812-3.69c-34.576,0-64.803,22.166-75.216,55.158    c-13.086,41.493,10.01,85.921,51.487,99.035c7.745,2.446,15.75,3.688,23.791,3.688c34.571,0,64.811-22.187,75.246-55.209    C436.326,263.34,413.225,218.937,371.742,205.815z M342.295,249.446l19.256-26.937c1.008-1.411,2.809-2.01,4.461-1.487    c1.651,0.522,2.779,2.05,2.793,3.782l0.255,32.706c0.015,0.143,0.022,0.287,0.022,0.434c0,2.209-1.79,4-4,4    c-0.007,0-0.014,0-0.02,0c-0.404,0-0.812-0.062-1.206-0.187l-19.514-6.172c-1.221-0.386-2.184-1.333-2.589-2.548    C341.35,251.823,341.55,250.488,342.295,249.446z M295.895,244.47c1.006-1.41,2.807-2.014,4.459-1.493l31.448,9.909    c1.221,0.385,2.184,1.331,2.591,2.545c0.406,1.213,0.208,2.548-0.535,3.591l-11.829,16.609c-0.743,1.044-1.94,1.668-3.222,1.68    c-0.012,0-0.024,0-0.036,0c-1.268,0-2.461-0.601-3.216-1.621l-19.619-26.519C294.905,247.778,294.889,245.88,295.895,244.47z     M334.677,306.793c-0.387,1.221-1.334,2.183-2.549,2.588l-31.138,10.378c-0.415,0.139-0.842,0.205-1.264,0.205    c-1.244,0-2.449-0.582-3.217-1.623c-1.03-1.393-1.046-3.29-0.039-4.7l19.068-26.725c0.744-1.043,1.942-1.666,3.224-1.677    c0.011,0,0.021,0,0.032,0c1.27,0,2.464,0.603,3.218,1.624l12.068,16.347C334.842,304.24,335.063,305.572,334.677,306.793z     M339.192,301.115l-13.031-17.648c-1.029-1.394-1.044-3.292-0.037-4.701l12.72-17.802c1.009-1.412,2.813-2.012,4.461-1.488    l20.863,6.596c1.651,0.521,2.78,2.049,2.794,3.781l0.177,21.896c0.014,1.73-1.087,3.273-2.727,3.824l-20.729,6.959    c-0.419,0.141-0.849,0.208-1.272,0.208C341.166,302.739,339.961,302.156,339.192,301.115z M365.771,340.828    c-0.021,0-0.042,0-0.063,0c-1.244,0-2.448-0.582-3.217-1.621l-19.538-26.414c-0.762-1.029-0.984-2.361-0.599-3.583    c0.385-1.221,1.332-2.184,2.546-2.59l19.256-6.437c1.213-0.404,2.549-0.207,3.592,0.538c1.042,0.743,1.666,1.941,1.677,3.222    l0.278,32.447c0.016,0.144,0.023,0.29,0.023,0.438C369.728,339.022,367.961,340.805,365.771,340.828z M409.904,280.491    c0.013,1.732-1.091,3.277-2.735,3.825l-31.29,10.432c-0.413,0.138-0.84,0.205-1.265,0.205c-0.823,0-1.637-0.254-2.324-0.744    c-1.041-0.743-1.664-1.939-1.676-3.219l-0.188-20.395c-0.012-1.282,0.592-2.491,1.622-3.253c1.03-0.763,2.363-0.983,3.585-0.598    l31.478,9.963C408.764,277.23,409.891,278.758,409.904,280.491z"></path><polygon points="392.961,280.62 378.478,276.036 378.563,285.42   "></polygon><polygon points="359.115,288.911 358.985,272.823 343.664,267.979 334.322,281.052 343.898,294.021   "></polygon></g></g></svg>