<svg height='100px' width='100px'  fill="#000000" xmlns="http://www.w3.org/2000/svg" viewBox="0 0 64 64" x="0px" y="0px"><title>a</title><g data-name="Beard and Moustache"><path d="M29,24a1,1,0,0,0-1,1,1,1,0,0,1-1,1,1,1,0,0,0,0,2,3,3,0,0,0,3-3A1,1,0,0,0,29,24Z"></path><path d="M52,24c-3.571,0-6.2-1.423-8.741-2.8C41.169,20.069,39.2,19,37,19a6,6,0,0,0-5,2.69A6,6,0,0,0,27,19c-2.221,0-4,1.081-5.886,2.225C18.868,22.589,16.544,24,13,24a1,1,0,0,0-.8,1.6C16.25,31,24.06,31,27,31a6,6,0,0,0,5-2.69A6,6,0,0,0,37,31c2.906,0,11.75,0,15.8-5.4A1,1,0,0,0,52,24ZM27,29c-2.353,0-8.143,0-11.843-3.158a18.207,18.207,0,0,0,7-2.907C23.862,21.9,25.338,21,27,21a4,4,0,0,1,0,8Zm10,0a4,4,0,0,1,0-8c1.688,0,3.365.908,5.307,1.959a22.191,22.191,0,0,0,7.5,2.881C45.921,29,39.346,29,37,29Z"></path><path d="M37,26a1,1,0,0,1-1-1,1,1,0,0,0-2,0,3,3,0,0,0,3,3,1,1,0,0,0,0-2Z"></path><path d="M22,16a8.008,8.008,0,0,0,7.931-7h4.138A7.993,7.993,0,0,0,49.931,9H52a1,1,0,0,0,0-2H49.931A7.993,7.993,0,0,0,34.069,7H29.931A7.993,7.993,0,0,0,14.069,7H12a1,1,0,0,0,0,2h2.069A8.008,8.008,0,0,0,22,16ZM48,8a6.006,6.006,0,0,1-6,6c-.189,0-.374-.011-.558-.028l2.265-2.265a1,1,0,0,0-1.414-1.414l-3,3c-.012.012-.016.028-.027.041a6.035,6.035,0,0,1-2.225-1.961l8.332-8.332A6,6,0,0,1,48,8ZM42,2a5.966,5.966,0,0,1,1.411.175L36.175,9.411A5.921,5.921,0,0,1,36,8,6.006,6.006,0,0,1,42,2ZM28,8a6.006,6.006,0,0,1-6,6c-.189,0-.374-.011-.558-.028l2.265-2.265a1,1,0,0,0-1.414-1.414l-3,3c-.012.012-.016.028-.027.041a6.035,6.035,0,0,1-2.225-1.961l8.332-8.332A6,6,0,0,1,28,8ZM22,2a5.966,5.966,0,0,1,1.411.175L16.175,9.411A5.921,5.921,0,0,1,16,8,6.006,6.006,0,0,1,22,2Z"></path><path d="M25.29,7.29a1,1,0,1,0,1.42,0A1.05,1.05,0,0,0,25.29,7.29Z"></path><path d="M45.29,7.29a1,1,0,1,0,1.42,0A1.05,1.05,0,0,0,45.29,7.29Z"></path><path d="M47,33a1,1,0,0,0-1,1c0,5.3-4.813,7.814-9.472,7.99l-.962-1.443A2.993,2.993,0,0,0,37,38a1,1,0,0,0-2,0,1,1,0,0,1-1,1H30a1,1,0,0,1-1-1,1,1,0,0,0-2,0,2.993,2.993,0,0,0,1.434,2.547l-.962,1.443C22.812,41.814,18,39.3,18,34a1,1,0,0,0-2,0c0,24.44,15.043,29.735,15.684,29.948a.986.986,0,0,0,.632,0C32.956,63.735,48,58.44,48,34A1,1,0,0,0,47,33ZM32,61.932c-1.938-.785-11.62-5.491-13.633-21.724A11.409,11.409,0,0,0,23,43.148V51a1,1,0,0,0,2,0V43.7a15.365,15.365,0,0,0,2,.26V49a1,1,0,0,0,2,0V43.3L30.535,41H31v6a1,1,0,0,0,2,0V41h.465L35,43.3V49a1,1,0,0,0,2,0V43.956a15.365,15.365,0,0,0,2-.26V51a1,1,0,0,0,2,0V43.148a11.415,11.415,0,0,0,4.633-2.94C43.62,56.441,33.937,61.147,32,61.932Z"></path><path d="M27.29,52.29a1,1,0,1,0,1.42,0A1.05,1.05,0,0,0,27.29,52.29Z"></path><path d="M35.29,52.29a1,1,0,1,0,1.42,0A1.05,1.05,0,0,0,35.29,52.29Z"></path><path d="M31.29,50.29a1,1,0,1,0,1.42,0A1.05,1.05,0,0,0,31.29,50.29Z"></path><path d="M32,54a1,1,0,0,0-1,1v2a1,1,0,0,0,2,0V55A1,1,0,0,0,32,54Z"></path></g></svg>