<svg height='100px' width='100px'  fill="#000000" xmlns="http://www.w3.org/2000/svg" viewBox="0 0 60 57" x="0px" y="0px"><path fill="#000000" d="M690,831.236068 L676.913389,837.779373 C676.377672,838.055315 675.716816,838.094476 675.105573,837.788854 L661.105573,830.788854 C660.428005,830.45007 660,829.757544 660,829 L660,813 C660,812.289835 660.368524,811.57967 661.105573,811.211146 L674,804.763932 L674,790 C674,789.289835 674.368524,788.57967 675.105573,788.211146 L689.105573,781.211146 C689.668628,780.929618 690.331372,780.929618 690.894427,781.211146 L704.894427,788.211146 C705.631476,788.57967 706,789.289835 706,790 L706,804.763932 L718.894427,811.211146 C719.631476,811.57967 720,812.289835 720,813 L720,829 C720,829.757544 719.571995,830.45007 718.894427,830.788854 L704.913389,837.779373 C704.377672,838.055315 703.716816,838.094476 703.105573,837.788854 L690,831.236068 Z M685.527864,813 L676,808.236068 L666.472136,813 L676,817.763932 L685.527864,813 Z M664,816.236068 L664,827.763932 L674,832.763932 L674,821.236068 L664,816.236068 Z M688,816.236068 L678,821.236068 L678,832.763932 L688,827.763932 L688,816.236068 Z M713.527864,813 L704,808.236068 L694.472136,813 L704,817.763932 L713.527864,813 Z M692,816.236068 L692,827.763932 L702,832.763932 L702,821.236068 L692,816.236068 Z M716,816.236068 L706,821.236068 L706,832.763932 L716,827.763932 L716,816.236068 Z M699.527864,790 L690,785.236068 L680.472136,790 L690,794.763932 L699.527864,790 Z M678,793.236068 L678,804.763932 L688,809.763932 L688,798.236068 L678,793.236068 Z M702,793.236068 L692,798.236068 L692,809.763932 L702,804.763932 L702,793.236068 Z" transform="translate(-660 -781)"></path></svg>