<svg height='100px' width='100px'  fill="#000000" xmlns="http://www.w3.org/2000/svg" xmlns:xlink="http://www.w3.org/1999/xlink" version="1.1" x="0px" y="0px" viewBox="0 0 128 128" style="enable-background:new 0 0 128 128;" xml:space="preserve"><title>88 entetainment 2 final line black(1)</title><path d="M11,22c0.4,0,0.7-0.2,0.9-0.5l3.4-6.2l6.2-3.4c0.5-0.3,0.7-0.9,0.4-1.4c-0.1-0.2-0.2-0.3-0.4-0.4l-6.2-3.4l-3.4-6.2  C11.6,0,11-0.1,10.5,0.1c-0.2,0.1-0.3,0.2-0.4,0.4L6.7,6.7l-6.2,3.4C0,10.4-0.1,11,0.1,11.5c0.1,0.2,0.2,0.3,0.4,0.4l6.2,3.4  l3.4,6.2C10.3,21.8,10.6,22,11,22z"></path><path d="M22.6,25.1l-1.5-2.7c-0.3-0.5-0.9-0.7-1.4-0.4c-0.2,0.1-0.3,0.2-0.4,0.4l-1.5,2.7l-2.7,1.5c-0.5,0.3-0.7,0.9-0.4,1.4  c0.1,0.2,0.2,0.3,0.4,0.4l2.7,1.5l1.5,2.7c0.3,0.5,0.9,0.7,1.4,0.4c0.2-0.1,0.3-0.2,0.4-0.4l1.5-2.7l2.7-1.5  c0.5-0.3,0.7-0.9,0.4-1.4c-0.1-0.2-0.2-0.3-0.4-0.4L22.6,25.1z"></path><path d="M127.5,10.1l-6.2-3.4l-3.4-6.2c-0.3-0.5-0.9-0.7-1.4-0.4c-0.2,0.1-0.3,0.2-0.4,0.4l-3.4,6.2l-6.2,3.4  c-0.5,0.3-0.7,0.9-0.4,1.4c0.1,0.2,0.2,0.3,0.4,0.4l6.2,3.4l3.4,6.2c0.3,0.5,0.9,0.7,1.4,0.4c0.2-0.1,0.3-0.2,0.4-0.4l3.4-6.2  l6.2-3.4c0.5-0.3,0.7-0.9,0.4-1.4C127.8,10.4,127.6,10.2,127.5,10.1z"></path><path d="M102.1,27.4c0,0.4,0.2,0.7,0.5,0.9l2.7,1.5l1.5,2.7c0.3,0.5,0.9,0.7,1.4,0.4c0.2-0.1,0.3-0.2,0.4-0.4l1.5-2.7l2.7-1.5  c0.5-0.3,0.7-0.9,0.4-1.4c-0.1-0.2-0.2-0.3-0.4-0.4l-2.7-1.5l-1.5-2.7c-0.3-0.5-0.9-0.7-1.4-0.4c-0.2,0.1-0.3,0.2-0.4,0.4l-1.5,2.7  l-2.7,1.5C102.3,26.7,102.1,27.1,102.1,27.4z"></path><path d="M83.3,23.6C81.2,15.4,74,9.5,65.6,8.9V1c0-0.6-0.4-1-1-1c-0.6,0-1,0.4-1,1v7.9C54.9,9.2,47.5,15,45.2,23.4  c-28,10.3-42.4,41.3-32.1,69.3s41.3,42.3,69.3,32c0.9-0.3,1.8-0.7,2.7-1.1c0.1,0,0.2,0,0.3-0.1l0,0c27.4-11.8,40-43.6,28.2-70.9  C107.8,39.2,96.9,28.8,83.3,23.6L83.3,23.6z M64,22c8,0,15.9,1.8,23,5.4l-7.8,14.3L63.9,50l-15.3-8.4l-7.8-14.2  C48.1,23.8,56,22,64,22z M86.6,74.7l-12.9-7.1l-7.4-13.6l12.9,7.1L86.6,74.7z M61.6,54.1l-7.5,13.6l-12.9,7.1l7.4-13.6L61.6,54.1z   M55.4,69.3c0.2-0.1,0.3-0.2,0.4-0.4L63.9,54l8.2,14.9c0.1,0.2,0.2,0.3,0.4,0.4l14.9,8.2l-14.9,8.2c-0.2,0.1-0.3,0.2-0.4,0.4  l-8.2,14.9L55.8,86c-0.1-0.2-0.2-0.3-0.4-0.4l-14.9-8.2L55.4,69.3z M35,30.8l-5.9,10.8l-9.4,5.1C23.6,40.4,28.8,35,35,30.8z   M29.1,61.1l7.4,13.6l-12.9-7.1l-7.4-13.6L29.1,61.1z M13.4,84.8c-0.4-1.7-0.6-3.4-0.8-5.1c-0.2-1.8-0.3-3.7-0.3-5.6  c0-1.7,0.1-3.5,0.3-5.2c0.2-1.8,0.5-3.7,0.8-5.5v-0.1c0.5-2.3,1.1-4.5,1.9-6.7L22,68.9c0.1,0.2,0.2,0.3,0.4,0.4l14.9,8.2l-14.9,8.2  c-0.2,0.1-0.3,0.2-0.4,0.4l-5.2,9.4C15.3,92,14.1,88.5,13.4,84.8z M29.1,94.7l-10,5.5c-0.5-0.8-0.9-1.6-1.3-2.4l5.8-10.6l13.7-7.5  L29.1,94.7z M54.1,87.2l8.2,15l-13.7-7.5l-8.2-15L54.1,87.2z M64,125.9c-6.7,0-13.4-1.3-19.7-3.9l4.3-7.8l15.3-8.4l15.3,8.4l4.3,7.9  C77.3,124.6,70.7,125.9,64,125.9z M79.2,94.7l-13.7,7.5l8.2-15l13.7-7.5L79.2,94.7z M108.8,100.2l-10.1-5.6l-8.6-15.8l15.1,8.3  l5.4,9.8C110,98.1,109.5,99.2,108.8,100.2z M114.8,63.4c0.3,1.5,0.6,3.2,0.8,4.9c0.2,1.9,0.3,3.9,0.3,5.8c0,2-0.1,4.1-0.4,6.1  c-0.2,1.6-0.5,3.1-0.8,4.6c-0.7,3.4-1.8,6.7-3.2,9.9l-4.8-8.8c-0.1-0.2-0.2-0.3-0.4-0.4l-14.9-8.1l14.9-8.2c0.2-0.1,0.3-0.2,0.4-0.4  l6.3-11.5C113.8,59.3,114.3,61.4,114.8,63.4z M112.3,54.7l-7.1,13l-14.4,7.8l7.9-14.4l13.3-7.3C112.1,54.2,112.2,54.4,112.3,54.7z   M98.7,41.6l-6-11c6.4,4.2,11.7,9.8,15.7,16.3L98.7,41.6z"></path></svg>