<svg height='100px' width='100px'  fill="#000000" xmlns:dc="http://purl.org/dc/elements/1.1/" xmlns:cc="http://creativecommons.org/ns#" xmlns:rdf="http://www.w3.org/1999/02/22-rdf-syntax-ns#" xmlns:svg="http://www.w3.org/2000/svg" xmlns="http://www.w3.org/2000/svg" xmlns:sodipodi="http://sodipodi.sourceforge.net/DTD/sodipodi-0.dtd" xmlns:inkscape="http://www.inkscape.org/namespaces/inkscape" viewBox="0 0 32 32.000001" version="1.1" x="0px" y="0px"><g transform="translate(0,-1020.3622)"><path style="text-indent:0;text-transform:none;direction:ltr;block-progression:tb;baseline-shift:baseline;color:#000000;enable-background:accumulate;" d="M 16 0 C 7.1693592 0 -5.7824116e-019 7.1693003 0 16 C 0 24.8306 7.1693592 32 16 32 C 24.830631 32 32 24.8306 32 16 C 32 7.1693003 24.830631 0 16 0 z M 16 1 C 24.290185 1 31 7.7098003 31 16 C 31 24.2901 24.290185 31 16 31 C 7.7098054 31 1 24.2901 1 16 C 1 7.7098003 7.7098054 1 16 1 z M 10.40625 8.71875 C 9.5937 8.71875 8.9375 9.3759 8.9375 10.1875 C 8.9375 11.1312 8.88734 11.9681 9.34375 12.8125 L 9.34375 13.8125 C 9.31055 13.8905 9.00303 14.57085 8.6875 15.46875 C 8.35306 16.42045 8.0003 17.5697 7.9375 18.4375 C 7.73531 21.2311 8.5625 23.09375 8.5625 23.09375 C 8.609 23.19955 8.72819 23.28115 8.84375 23.28125 L 12 23.28125 C 12.11599 23.28155 12.20332 23.20005 12.25 23.09375 C 12.25 23.09375 13.07719 21.2311 12.875 18.4375 C 12.7541 16.767 12.04994 15.58665 11.5 13.84375 L 11.5 12.8125 C 12.02891 11.9596 11.875 11.1139 11.875 10.1875 C 11.875 9.3759 11.21881 8.71875 10.40625 8.71875 z M 15.5 8.71875 C 14.68745 8.71875 14.03125 9.3759 14.03125 10.1875 C 14.03125 11.1304 13.98233 11.9689 14.4375 12.8125 L 14.4375 13.8125 C 14.4029 13.8935 14.12721 14.57315 13.8125 15.46875 C 13.47805 16.42045 13.1253 17.5697 13.0625 18.4375 C 12.86031 21.2311 13.65625 23.09375 13.65625 23.09375 C 13.70285 23.19995 13.82152 23.28155 13.9375 23.28125 L 17.09375 23.28125 C 17.20931 23.28115 17.32849 23.19905 17.375 23.09375 C 17.375 23.09375 18.17094 21.2311 17.96875 18.4375 C 17.84786 16.767 17.1437 15.58665 16.59375 13.84375 L 16.59375 12.8125 C 17.12261 11.9596 17 11.1139 17 10.1875 C 17 9.3759 16.31256 8.71875 15.5 8.71875 z M 18.625 9.46875 C 18.34135 9.44875 18.04499 9.5346 17.78125 9.6875 C 17.07794 10.0944 16.84343 10.9851 17.25 11.6875 C 17.72245 12.5038 18.08946 13.27905 18.90625 13.78125 L 19.40625 14.65625 C 19.41705 14.74425 19.51132 15.4426 19.6875 16.375 C 19.8748 17.3662 20.11965 18.53 20.5 19.3125 C 21.7245 21.8317 23.375 23.0625 23.375 23.0625 C 23.4683 23.1315 23.61824 23.15175 23.71875 23.09375 L 26.4375 21.5 C 26.53763 21.442 26.60665 21.33375 26.59375 21.21875 C 26.59375 21.21875 26.35577 19.16045 24.78125 16.84375 C 23.83997 15.45865 22.63009 14.7952 21.28125 13.5625 L 20.78125 12.6875 C 20.81125 11.6851 20.24511 11.02015 19.78125 10.21875 C 19.57797 9.86745 19.27153 9.62825 18.90625 9.53125 C 18.81495 9.50725 18.71956 9.47575 18.625 9.46875 z M 9.90625 13.03125 L 10.90625 13.03125 L 10.90625 13.59375 L 9.90625 13.59375 L 9.90625 13.03125 z M 15.03125 13.03125 L 16 13.03125 L 16 13.59375 L 15.03125 13.59375 L 15.03125 13.03125 z M 20.375 13.1875 L 20.65625 13.65625 L 19.78125 14.15625 L 19.5 13.6875 L 20.375 13.1875 z " transform="translate(-5e-7,1020.3622)" fill="#000000" fill-opacity="1" stroke="none" marker="none" visibility="visible" display="inline" overflow="visible"></path></g></svg>