<svg height='100px' width='100px'  fill="#000000" xmlns="http://www.w3.org/2000/svg" xmlns:xlink="http://www.w3.org/1999/xlink" version="1.1" x="0px" y="0px" viewBox="0 0 100 100" enable-background="new 0 0 100 100" xml:space="preserve"><polygon display="none" fill="none" points="22.85,83.415 28.923,85.971 53.3,95.573 53.3,93.961 47.878,85.952 48.892,59.505   54.467,54.096 54.467,51.087 42.872,47.277 36.558,18.183 43.96,14.902 43.731,3.822 22.821,13.194 20.194,14.438 "></polygon><path d="M75.111,47.352v-3.477l-10.567-3.02l-4.177-21.431l5.931-2.594l0.067-10.296L44.3,1.916L22.436,12.271l-3.648,1.635  l2.677,69.879l0.012,0.326l7.061,2.781l26.604,11.19l17.783-15.289v-3.19l-4.244-6.492l0.799-20.752L75.111,47.352z M19.812,14.543  l3.009-1.349l20.91-9.372l0.229,11.08l-7.402,3.28l6.314,29.094l11.595,3.81v3.01l-5.575,5.408l-1.014,26.447L53.3,93.96v1.612  l-24.377-9.602L22.45,83.42L19.812,14.543z M45.108,42.599l-4.25-21.917h16.438L60.6,38.828L45.108,42.599z"></path><polygon fill="#000000" points="22.85,83.415 20.194,14.438 22.821,13.194 19.812,14.543 22.45,83.42 28.923,85.971 "></polygon></svg>