<svg height='100px' width='100px'  fill="#000000" xmlns="http://www.w3.org/2000/svg" xmlns:xlink="http://www.w3.org/1999/xlink" version="1.1" x="0px" y="0px" viewBox="0 0 32 32" enable-background="new 0 0 32 32" xml:space="preserve"><g><g><path d="M9,7h1h2h7.58h0.44H22h0.42H23c0.55,0,1-0.45,1-1c0-0.18-0.05-0.35-0.13-0.49C23.7,5.21,23.37,5,23,5h-1.42H21h-0.1    C20.43,2.72,18.41,1,16,1c-2.42,0-4.44,1.72-4.9,4H11H9C8.45,5,8,5.45,8,6S8.45,7,9,7z"></path><path d="M23,25h-1h-2h-7.58H12h-2H9.58H9c-0.55,0-1,0.45-1,1c0,0.17,0.04,0.32,0.12,0.46C8.28,26.78,8.62,27,9,27h1.42H11h0.1    c0.46,2.28,2.48,4,4.9,4s4.44-1.72,4.9-4H21h2c0.55,0,1-0.45,1-1S23.55,25,23,25z"></path><polygon points="22,9 20.42,9 20,9.42 12,17.42 10,19.42 10,23 11.58,23 12,22.58 20,14.58 22,12.58   "></polygon><polygon points="14.42,23 20,23 22,23 22,15.42 20,17.42   "></polygon><polygon points="17.58,9 12,9 10,9 10,16.58 12,14.58   "></polygon></g></g></svg>