<svg height='100px' width='100px'  fill="#000000" xmlns="http://www.w3.org/2000/svg" xmlns:xlink="http://www.w3.org/1999/xlink" version="1.1" x="0px" y="0px" viewBox="0 0 100 100" style="enable-background:new 0 0 100 100;" xml:space="preserve"><path d="M10.6171875,36.590332c10.9108887,4.5192871,17.6793823,14.1289673,19.9500122,17.7915039h-4.5540161  c-0.5366211,0-0.9770508,0.4233398-0.9990234,0.9589844c-0.0102539,0.2470703-0.2280273,6.1240234,1.3730469,13.3261719  c2.1391602,9.6181641,6.5517578,16.9350586,12.7612305,21.159668C39.3144531,89.9394531,39.5102539,90,39.7109375,90h20.578125  c0.2006836,0,0.3964844-0.0605469,0.5625-0.1733398c6.2094727-4.2246094,10.6220703-11.5415039,12.7612305-21.159668  c1.6010742-7.2021484,1.3833008-13.0791016,1.3730469-13.3261719c-0.0219727-0.5356445-0.4624023-0.9589844-0.9990234-0.9589844  h-4.555542c2.265564-3.6605835,9.0227051-13.2645264,19.9515381-17.7915039  c0.3896484-0.1616211,0.6362305-0.550293,0.6162109-0.972168c-0.0205078-0.4213867-0.3037109-0.7851562-0.7075195-0.9082031  c-0.3533325-0.1079102-7.8052368-2.2969971-19.2852783,0.3631592c0.7167969-1.1599121,1.1339111-2.5137329,1.1339111-3.9481201  c0-1.5476685-0.4795532-3.0044556-1.3051758-4.2210083c2.6932373-5.8549805,6.0107422-10.9807129,9.8652344-15.2321167  c0.3095703-0.3417969,0.3457031-0.8505859,0.0874023-1.2324219c-0.2578125-0.3818359-0.7451172-0.5375977-1.1762695-0.3769531  c-0.274292,0.1017456-6.5428467,2.4667969-12.7420044,7.2672119c-0.2692261-0.4020386-0.5645752-0.7902832-0.916687-1.1422119  c-2.1298828-2.1318359-5.2998047-2.7612305-8.046875-1.6972656C55.715332,11.796875,53.0292969,10,50.0151367,10  S44.3149414,11.796875,43.125,14.4902344c-2.7456055-1.0629883-5.9155273-0.4335938-8.0473633,1.6972656  c-0.3548584,0.3547363-0.6520996,0.7463989-0.9227295,1.1520386c-6.3312378-5.0092773-12.4877319-7.1913452-12.7554932-7.2838745  c-0.4301758-0.1503906-0.909668,0.0112305-1.1621094,0.3925781c-0.2519531,0.3813477-0.2138672,0.8847656,0.0932617,1.2231445  c3.8566895,4.2545776,7.1724243,9.3811035,9.8637085,15.2340088c-0.8250122,1.2162476-1.3041382,2.6725464-1.3041382,4.2196045  c0,1.3677979,0.3853149,2.6588135,1.0411987,3.7823486c-12.078186-3.1018066-18.9956665-0.2998657-19.3200073-0.1622314  C10.2397461,34.9018555,9.9985352,35.2666016,10,35.6699219S10.2446289,36.4360352,10.6171875,36.590332z M59.9775391,88H40.0224609  c-12.1435547-8.5068359-12.9936523-27.1782227-13.019043-31.6181641H72.996582  C72.9711914,60.8217773,72.1210938,79.4931641,59.9775391,88z M85.7626953,36.0712891  C74.6987915,41.800415,68.4879761,51.9204712,67.09729,54.3818359H51.0151367v-2.2059326  c2.5970459-0.3482666,4.8339233-2.0253296,5.890625-4.4161377c2.7470703,1.0644531,5.9169922,0.4345703,8.046875-1.6972656  c2.121521-2.121521,2.7516479-5.2714844,1.7090454-8.0088501C75.2980957,35.3880615,82.1124268,35.6038818,85.7626953,36.0712891z   M75.3989258,13.7070312c-2.6500244,3.446167-4.9891357,7.3441162-7.0109863,11.6091919  c-0.5233765-0.4313965-1.1032715-0.8009033-1.7380371-1.0813599c0.6361694-1.6437988,0.6541138-3.4359741,0.1189575-5.069519  C69.8464355,16.7376709,73.015686,14.9122314,75.3989258,13.7070312z M33.2574463,19.1807861  c-0.5299683,1.6294556-0.5109863,3.4154053,0.1229248,5.0540771c-0.6351929,0.2806396-1.2153931,0.6503906-1.7390137,1.0820923  c-2.0370483-4.2971191-4.395813-8.2227783-7.0715332-11.6900024C26.9315186,14.8051758,30.1035156,16.6338501,33.2574463,19.1807861  z M30.8901367,31.125c0-2.5097656,1.6972656-4.7104492,4.1269531-5.3510742  c0.3022461-0.0795898,0.5493164-0.2954102,0.6689453-0.5839844s0.0976562-0.6162109-0.0595703-0.8862305  c-1.2651367-2.1713867-0.9091797-4.9272461,0.8652344-6.7021484c1.7758789-1.7749023,4.53125-2.1308594,6.7021484-0.8657227  c0.269043,0.1572266,0.5976562,0.1787109,0.8862305,0.0600586c0.2885742-0.1196289,0.5043945-0.3666992,0.5839844-0.6689453  C45.3046875,13.6972656,47.5048828,12,50.0151367,12c2.5097656,0,4.7104492,1.6972656,5.3515625,4.1269531  c0.0795898,0.3022461,0.2958984,0.5493164,0.5839844,0.6689453c0.2880859,0.1186523,0.6166992,0.097168,0.8862305-0.0600586  c2.1708984-1.265625,4.9267578-0.9101562,6.7016602,0.8657227c1.7749023,1.7749023,2.1308594,4.5307617,0.8657227,6.7021484  c-0.1577148,0.2695312-0.1796875,0.5976562-0.0600586,0.8862305s0.3666992,0.5043945,0.6689453,0.5839844  c2.4296875,0.640625,4.1269531,2.8408203,4.1269531,5.3510742c0,2.5058594-1.6917725,4.7016602-4.114624,5.3466797  c-0.0244751,0.0080566-0.0474243,0.013855-0.0718994,0.0219727c-0.2763062,0.0913086-0.479248,0.2941284-0.590332,0.539917  c-0.0045776,0.0101318-0.0147705,0.0161743-0.019043,0.0264893c-0.0133057,0.0320435-0.0065918,0.0671387-0.0164185,0.1000366  c-0.0281372,0.0931396-0.0470581,0.1859741-0.046875,0.2852783c0.0001221,0.0568237,0.0103149,0.1087646,0.0200195,0.1647949  c0.0084229,0.0493164,0.0016479,0.0982056,0.0178833,0.1471558c0.0131226,0.0395508,0.0420532,0.0673828,0.0593872,0.104126  c0.0127563,0.0272217,0.0106812,0.0585938,0.026062,0.0848389c1.2651367,2.1713867,0.9091797,4.9272461-0.8657227,6.7021484  s-4.5297852,2.1308594-6.7016602,0.8657227c-0.2695312-0.1572266-0.5981445-0.1787109-0.8862305-0.0600586  c-0.2880859,0.1196289-0.5043945,0.3666992-0.5839844,0.6689453C54.7255859,48.5527344,52.5249023,50.25,50.0151367,50.25  c-2.5102539,0-4.7104492-1.6972656-5.3510742-4.1269531c-0.0795898-0.3022461-0.2954102-0.5493164-0.5839844-0.6689453  c-0.1230469-0.0507812-0.2529297-0.0761719-0.3828125-0.0761719c-0.1748047,0-0.3486328,0.0458984-0.503418,0.1362305  c-2.171875,1.2646484-4.9277344,0.9091797-6.7021484-0.8657227s-2.1303711-4.5307617-0.8652344-6.7021484  c0.0141602-0.024292,0.012085-0.0533447,0.0240479-0.0784912c0.0148315-0.0307007,0.0402832-0.0527954,0.052124-0.0855713  c0.0195923-0.0541992,0.0144653-0.1091309,0.024353-0.1640015c0.0100708-0.0552979,0.0234375-0.1065063,0.0241089-0.1626587  c0.0013428-0.1049194-0.0192871-0.2037964-0.0496826-0.302124c-0.0093994-0.0307007-0.0029907-0.0634155-0.0153809-0.0933838  c-0.0028076-0.0068359-0.0095825-0.0107422-0.0125732-0.0174561c-0.0568848-0.1296387-0.1387939-0.2463379-0.2458496-0.3424072  c-0.0247192-0.0221558-0.057373-0.0315552-0.0842285-0.0511475c-0.0753784-0.0552979-0.1489868-0.1132812-0.241333-0.1466064  c-0.0604858-0.0218506-0.116333-0.0373535-0.1765747-0.0588989C32.5466919,35.7711792,30.8901367,33.6019287,30.8901367,31.125z   M33.3771973,38.0254517c-1.0570679,2.7438354-0.4277954,5.9083252,1.7004395,8.0370483  c2.1313477,2.1313477,5.300293,2.762207,8.0473633,1.6972656c1.0562744,2.3908081,3.2930908,4.0678711,5.8901367,4.4161377  v2.2059326H32.90271c-1.4033813-2.484314-7.71521-12.7685547-18.9720459-18.4677734  C17.3240967,35.2785034,24.0203857,34.8502197,33.3771973,38.0254517z"></path><path d="M50.0151367,37.6298828c3.5869141,0,6.5048828-2.9179688,6.5048828-6.5048828s-2.9179688-6.5048828-6.5048828-6.5048828  c-3.5864258,0-6.5043945,2.9179688-6.5043945,6.5048828S46.4287109,37.6298828,50.0151367,37.6298828z M50.0151367,26.6201172  c2.4838867,0,4.5048828,2.0209961,4.5048828,4.5048828s-2.0209961,4.5048828-4.5048828,4.5048828  S45.5107422,33.6088867,45.5107422,31.125S47.53125,26.6201172,50.0151367,26.6201172z"></path><path d="M38.4755859,35.9047852c-0.6083984,1.8876953-0.1323242,4.0024414,1.3129883,5.4467773  c1.4453125,1.4453125,3.5605469,1.9223633,5.4467773,1.3129883c0.9047852,1.7651367,2.7363281,2.9233398,4.7797852,2.9233398  s3.8754883-1.1586914,4.7797852-2.9233398c1.8862305,0.6074219,4.0019531,0.1318359,5.4472656-1.3129883  c1.4453125-1.4443359,1.9213867-3.559082,1.3129883-5.4467773c1.7651367-0.9042969,2.9233398-2.7363281,2.9233398-4.7797852  s-1.1582031-3.8754883-2.9233398-4.7797852c0.6083984-1.8876953,0.1318359-4.0024414-1.3129883-5.4472656  c-1.4453125-1.4453125-3.5600586-1.9213867-5.4472656-1.3125c-0.9042969-1.7646484-2.7363281-2.9233398-4.7797852-2.9233398  c-2.0429688,0-3.875,1.1586914-4.7797852,2.9233398c-1.8886719-0.6098633-4.0019531-0.1328125-5.4467773,1.3125  c-1.4448242,1.4448242-1.9213867,3.5595703-1.3129883,5.4472656c-1.7646484,0.9042969-2.9233398,2.7363281-2.9233398,4.7797852  S36.7109375,35.0004883,38.4755859,35.9047852z M40.0664062,27.8652344  c0.3017578-0.0795898,0.5493164-0.2954102,0.6689453-0.5839844s0.0976562-0.6162109-0.0595703-0.8862305  c-0.7709961-1.3227539-0.5541992-3.0019531,0.5268555-4.0830078c1.081543-1.0820312,2.7607422-1.2988281,4.0820312-0.5268555  c0.2705078,0.1567383,0.5976562,0.1796875,0.8862305,0.0600586c0.2885742-0.1191406,0.5048828-0.3666992,0.5844727-0.6689453  c0.390625-1.4799805,1.730957-2.5141602,3.2597656-2.5141602c1.5292969,0,2.8696289,1.0336914,3.2597656,2.5141602  c0.0795898,0.3017578,0.2954102,0.5493164,0.5839844,0.6689453s0.6162109,0.0976562,0.8862305-0.0600586  c1.3232422-0.7705078,3.0019531-0.5537109,4.0830078,0.5268555c1.0810547,1.0810547,1.2978516,2.7602539,0.5268555,4.0830078  c-0.1572266,0.2700195-0.1791992,0.5976562-0.0595703,0.8862305s0.3671875,0.5043945,0.6689453,0.5839844  c1.4804688,0.390625,2.5141602,1.730957,2.5141602,3.2597656s-1.0336914,2.8691406-2.5141602,3.2597656  c-0.3017578,0.0795898-0.5493164,0.2954102-0.6689453,0.5839844s-0.0976562,0.6162109,0.0595703,0.8862305  c0.7709961,1.3227539,0.5541992,3.0014648-0.5268555,4.0825195c-1.081543,1.0805664-2.762207,1.2978516-4.0830078,0.5273438  c-0.2700195-0.1577148-0.5976562-0.1796875-0.8862305-0.0600586s-0.5043945,0.3671875-0.5839844,0.6689453  c-0.3901367,1.4804688-1.7304688,2.5141602-3.2597656,2.5141602c-1.5288086,0-2.8691406-1.0341797-3.2597656-2.5141602  c-0.0795898-0.3022461-0.2958984-0.5498047-0.5844727-0.6689453c-0.1225586-0.0507812-0.2529297-0.0761719-0.3823242-0.0761719  c-0.1748047,0-0.3486328,0.0458984-0.5039062,0.1362305c-1.3212891,0.7709961-3.0009766,0.5537109-4.0820312-0.5273438  s-1.2978516-2.7597656-0.5268555-4.0825195c0.1572266-0.2700195,0.1791992-0.5976562,0.0595703-0.8862305  s-0.3671875-0.5043945-0.6689453-0.5839844c-1.4804688-0.3901367-2.5141602-1.7304688-2.5141602-3.2597656  S38.5859375,28.2553711,40.0664062,27.8652344z"></path></svg>