<svg height='100px' width='100px'  fill="#000000" xmlns="http://www.w3.org/2000/svg" viewBox="0 0 68 57" x="0px" y="0px"><path d="M59,108 L58,108 C56.8954305,108 56,107.104569 56,106 L56,92 C56,90.8954305 56.8954305,90 58,90 L76.4862675,90 L64,68.9735236 L64,80 C64,81.1045695 63.1045695,82 62,82 C60.8954305,82 60,81.1045695 60,80 L60,62 C59.8081331,60.3811491 61.5444468,59.0417739 63.0628746,59.9943786 L86,74.3842719 L86,68 C86,66.8954305 86.8954305,66 88,66 L104,66 C104.757544,66 105.45007,66.4280048 105.788854,67.1055728 L117.236068,90 L122,90 C123.104569,90 124,90.8954305 124,92 L124,106 C124,107.104569 123.104569,108 122,108 L121,108 C121,101.924868 116.075132,97 110,97 C103.924868,97 99,101.924868 99,108 L81,108 C81,101.924868 76.0751322,97 70,97 C63.9248678,97 59,101.924868 59,108 Z M81.1383906,90 L86,90 L86,79.1062779 L67.941684,67.7771668 L81.1383906,90 Z M102.763932,70 L90,70 L90,90 L112.763932,90 L102.763932,70 Z M110,116 C105.581722,116 102,112.418278 102,108 C102,103.581722 105.581722,100 110,100 C114.418278,100 118,103.581722 118,108 C118,112.418278 114.418278,116 110,116 Z M110,112 C112.209139,112 114,110.209139 114,108 C114,105.790861 112.209139,104 110,104 C107.790861,104 106,105.790861 106,108 C106,110.209139 107.790861,112 110,112 Z M70,116 C65.581722,116 62,112.418278 62,108 C62,103.581722 65.581722,100 70,100 C74.418278,100 78,103.581722 78,108 C78,112.418278 74.418278,116 70,116 Z M70,112 C72.209139,112 74,110.209139 74,108 C74,105.790861 72.209139,104 70,104 C67.790861,104 66,105.790861 66,108 C66,110.209139 67.790861,112 70,112 Z" transform="translate(-56 -59)"></path></svg>