<svg height='100px' width='100px'  fill="#000000" xmlns="http://www.w3.org/2000/svg" xmlns:xlink="http://www.w3.org/1999/xlink" version="1.1" x="0px" y="0px" viewBox="0 0 512 512" style="enable-background:new 0 0 512 512;" xml:space="preserve"><g><g><g><path d="M259.225,307.347c-2.277,0-4.555-0.775-6.41-2.325c-36.079-30.133-57.619-78.92-57.619-130.506     c0-51.56,21.539-100.347,57.616-130.503c3.711-3.102,9.11-3.104,12.824-0.002c36.093,30.15,57.641,78.937,57.641,130.506     c0,51.583-21.549,100.371-57.643,130.507C263.778,306.572,261.501,307.347,259.225,307.347z M259.227,65.11     c-27.709,26.658-44.031,66.882-44.031,109.405c0,42.543,16.323,82.771,44.03,109.409c27.723-26.641,44.051-66.866,44.051-109.409     C303.276,131.987,286.946,91.762,259.227,65.11z"></path></g><g><path d="M259.222,307.348c-3.757,0-7.277-2.125-8.98-5.609c-2.022-4.136-0.959-9.117,2.574-12.067     c31.597-26.382,50.461-69.43,50.461-115.155c0-18.826-3.074-37.071-9.138-54.228c-1.327-3.755-0.3-7.938,2.615-10.652     c21.64-20.141,47.31-33.881,74.234-39.734c4.727-1.024,9.509,1.476,11.361,5.941c18.017,43.439,14.489,96.657-9.437,142.357     c-23.88,45.696-65.588,78.939-111.567,88.918C260.637,307.273,259.925,307.348,259.222,307.348z M315.125,120.037     c5.411,17.404,8.151,35.699,8.151,54.479c0,36.112-10.56,70.852-29.278,98.783c25.09-14.261,46.75-36.729,61.192-64.368     c19.735-37.696,23.918-80.907,11.701-117.366C348.408,96.942,330.741,106.654,315.125,120.037z"></path></g><g><path d="M297.925,312.665c-0.002,0-0.002,0-0.004,0c-14.269-0.001-28.213-1.92-41.445-5.704c-4.408-1.26-7.394-5.356-7.245-9.938     s3.394-8.476,7.873-9.448c40.251-8.736,76.919-38.136,98.087-78.643c8.467-16.162,14.124-33.213,16.819-50.69     c0.601-3.897,3.437-7.078,7.24-8.12c14.729-4.036,29.709-6.083,44.525-6.083c14.3,0,28.241,1.907,41.438,5.669     c4.653,1.326,7.689,5.794,7.209,10.608c-4.665,46.812-32.927,92.048-75.6,121.008     C367.083,301.533,331.958,312.665,297.925,312.665z M390.634,167.871c-3.35,17.35-9.298,34.251-17.722,50.332     c-16.888,32.316-42.696,58.406-72.622,74.442c29.33-0.503,59.525-10.354,85.297-27.866     c35.194-23.885,59.303-59.994,65.779-97.909C432.106,162.799,411.121,163.141,390.634,167.871z"></path></g><g><path d="M259.228,307.348c-0.703,0-1.415-0.074-2.125-0.229c-45.955-9.979-87.663-43.221-111.568-88.921     c-23.906-45.708-27.425-98.924-9.412-142.354c1.853-4.468,6.636-6.965,11.361-5.941c26.925,5.853,52.595,19.592,74.234,39.734     c2.915,2.713,3.942,6.897,2.615,10.652c-6.063,17.156-9.138,35.4-9.138,54.227c0,45.541,18.709,88.432,50.071,114.847     c2.416,1.825,3.978,4.723,3.978,7.984c0,5.388-4.26,9.78-9.596,9.992C259.509,307.345,259.368,307.348,259.228,307.348z      M151.58,91.565c-12.215,36.454-8.041,79.665,11.676,117.362c14.459,27.641,36.124,50.109,61.209,64.37     c-18.711-27.933-29.27-62.676-29.27-98.782c0-18.78,2.74-37.074,8.151-54.479C187.73,106.654,170.063,96.942,151.58,91.565z"></path></g><g><path d="M220.537,312.665c-34.042,0-69.172-11.132-98.917-31.344c-42.654-28.965-70.906-74.201-75.571-121.005     c-0.479-4.813,2.556-9.281,7.207-10.608c13.187-3.762,27.122-5.669,41.423-5.669c14.815,0,29.801,2.046,44.541,6.082     c3.805,1.042,6.641,4.223,7.242,8.121c2.693,17.461,8.344,34.515,16.796,50.69c21.188,40.506,57.858,69.908,98.089,78.643     c4.479,0.973,7.724,4.867,7.873,9.448c0.148,4.582-2.837,8.678-7.244,9.938C248.747,310.746,234.806,312.665,220.537,312.665z      M67.104,166.868c6.476,37.911,30.576,74.021,65.754,97.909c25.773,17.513,55.978,27.363,85.315,27.867     c-29.919-16.036-55.733-42.127-72.64-74.447c-8.411-16.097-14.351-32.995-17.696-50.326     C107.334,163.142,86.35,162.798,67.104,166.868z"></path></g><g><path d="M226,390.315H66c-16.542,0-30-13.458-30-30s13.458-30,30-30h190c3.788,0,7.25,2.14,8.944,5.528     c1.694,3.388,1.328,7.441-0.944,10.472l-30,40C232.111,388.834,229.147,390.315,226,390.315z M66,350.315     c-5.515,0-10,4.486-10,10s4.485,10,10,10h155l15-20H66z"></path></g><g><path d="M446,390.315H286c-3.147,0-6.111-1.482-8-4l-30-40c-2.272-3.03-2.638-7.084-0.944-10.472     c1.694-3.389,5.157-5.528,8.944-5.528h190c16.542,0,30,13.458,30,30S462.542,390.315,446,390.315z M291,370.315h155     c5.514,0,10-4.486,10-10s-4.486-10-10-10H276L291,370.315z"></path></g><g><path d="M446,430.315H66c-5.523,0-10-4.478-10-10s4.477-10,10-10h380c5.522,0,10,4.478,10,10S451.522,430.315,446,430.315z"></path></g><g><path d="M366,470.315H146c-5.523,0-10-4.478-10-10s4.477-10,10-10h220c5.522,0,10,4.478,10,10S371.522,470.315,366,470.315z"></path></g></g></g></svg>