<svg height='100px' width='100px'  fill="#000000" xmlns="http://www.w3.org/2000/svg" viewBox="0 0 64 64" x="0px" y="0px"><g data-name="23-paint ball"><path d="M42,26a1,1,0,0,1-.707-.293l-3-3a1,1,0,0,1,0-1.414l21-21a1,1,0,0,1,1.414,0l3,3a1,1,0,0,1,0,1.414l-21,21A1,1,0,0,1,42,26Zm-1.586-4L42,23.586,61.586,4,60,2.414Z"></path><path d="M34.293,55.707l-8-8a1,1,0,0,1,0-1.414L41,31.586V25h2v7a1,1,0,0,1-.293.707L28.414,47l7.293,7.293Z"></path><path d="M10.5,64.5a1,1,0,0,1-.707-.293l-9.5-9.5a1,1,0,0,1,0-1.414l35-35a1,1,0,0,1,1.414,0l3,3a1,1,0,0,1,0,1.414l-33,33L5.293,54.293,37.586,22,36,20.414,2.414,54,10.5,62.086,21.293,51.293a1,1,0,0,1,1.414,0L30,58.586l5.293-5.293a1,1,0,0,1,1.414,0l3,3a1,1,0,0,1,0,1.414l-6,6a1,1,0,0,1-1.414,0L22,53.414,11.207,64.207A1,1,0,0,1,10.5,64.5ZM31.414,60,33,61.586,37.586,57,36,55.414Z"></path><path d="M31.707,51.707l-1.414-1.414L34,46.586V43.414l-1.707-1.707,1.414-1.414,2,2A1,1,0,0,1,36,43v4a1,1,0,0,1-.293.707Z"></path><rect x="30" y="43.586" width="2" height="2.828" transform="translate(-22.74 35.101) rotate(-45)"></rect><path d="M50,48a1,1,0,0,1-.707-.293l-9-9a1,1,0,0,1,0-1.414l3-3a1,1,0,0,1,1.414,0l9,9a1,1,0,0,1,0,1.414l-3,3A1,1,0,0,1,50,48ZM42.414,38,50,45.586,51.586,44,44,36.414Z"></path><rect x="40.5" y="33.379" width="2" height="4.243" transform="translate(-12.947 39.743) rotate(-45)"></rect><rect x="46.379" y="41.5" width="4.243" height="2" transform="translate(-15.847 46.743) rotate(-45)"></rect><path d="M52.293,8.707l-3-3a1,1,0,0,1,0-1.414l4-4A1,1,0,0,1,54,0h6V2H54.414l-3,3,2.293,2.293Z"></path><path d="M15,32a1,1,0,0,1-.707-.293l-9-9a1,1,0,0,1,0-1.409L21.152,5.209A7.523,7.523,0,1,1,31.8,15.844L15.7,31.712A1,1,0,0,1,15,32ZM7.409,22l7.6,7.6L30.387,14.425a5.524,5.524,0,0,0-7.816-7.807Z"></path><rect x="28.5" y="17.964" width="2" height="7.071" transform="translate(-6.562 27.157) rotate(-45)"></rect><rect x="24.5" y="21.964" width="2" height="7.071" transform="translate(-10.562 25.5) rotate(-45)"></rect><rect x="24.172" y="22" width="5.657" height="2" transform="translate(-8.355 25.828) rotate(-45)"></rect><rect x="12.5" y="17.136" width="2" height="12.728" transform="translate(-12.663 16.429) rotate(-45)"></rect><rect x="8.5" y="46.379" width="2" height="4.243" transform="translate(-31.512 20.923) rotate(-45)"></rect><rect x="11.5" y="43.379" width="2" height="4.243" transform="translate(-28.512 22.165) rotate(-45)"></rect><rect x="14.5" y="40.379" width="2" height="4.243" transform="translate(-25.512 23.408) rotate(-45)"></rect><rect x="17.5" y="37.379" width="2" height="4.243" transform="translate(-22.512 24.651) rotate(-45)"></rect><rect x="20.5" y="34.379" width="2" height="4.243" transform="translate(-19.512 25.893) rotate(-45)"></rect><path d="M3.293,51.707l-3-3a1,1,0,0,1,0-1.414l5-5A1,1,0,0,1,6,42h6v2H6.414l-4,4,2.293,2.293Z"></path><path d="M36.707,19.707l-1.414-1.414,5-5A1,1,0,0,1,41,13h6v2H41.414Z"></path></g></svg>