<svg height='100px' width='100px'  fill="#000000" xmlns="http://www.w3.org/2000/svg" xmlns:xlink="http://www.w3.org/1999/xlink" version="1.1" x="0px" y="0px" viewBox="-0.0002441 0 208 176" enable-background="new -0.0002441 0 208 176" xml:space="preserve"><g><circle cx="155.3093262" cy="135.5507813" r="11.5761719"></circle><circle cx="124.142334" cy="135.5507813" r="11.5761719"></circle><circle cx="92.9763184" cy="135.5507813" r="11.5761719"></circle><circle cx="61.8093262" cy="135.5507813" r="11.5761719"></circle><path d="M163.026123,82.3085938c-4.4960938-10.6254883-11.9755859-19.6274414-21.4042969-26   c-8.9697266-6.0673828-19.7675781-9.7353516-31.3115234-10.0703125V27.8388672H86.564209v18.9848633l-0.0947266,23.0375977   l22.0859375,0.0898438h0.0039063c4.9160156,0.0014648,9.5400391,0.9897461,13.7646484,2.7739258   c6.3320313,2.6772461,11.7568359,7.1772461,15.5732422,12.8295898c1.6455078,2.4394531,2.9697266,5.0898438,3.9716797,7.8945313   H73.1882324V27.8198242H49.4421387v89.3754883h118.2353516v-11.8730469   C167.6784668,97.1933594,166.0231934,89.3867188,163.026123,82.3085938z"></path></g></svg>