<svg height='100px' width='100px'  fill="#000000" xmlns="http://www.w3.org/2000/svg" viewBox="0 0 96 96" x="0px" y="0px"><title>Artboard 2</title><g><path d="M10,28a1.9988,1.9988,0,0,0,2-2V16H22a2,2,0,0,0,0-4H10a1.9988,1.9988,0,0,0-2,2V26A1.9988,1.9988,0,0,0,10,28Z"></path><path d="M22,80H12V70a2,2,0,0,0-4,0V82a1.9988,1.9988,0,0,0,2,2H22a2,2,0,0,0,0-4Z"></path><path d="M84,48c0-3.5742-17.5117-20-36-20S12,44.4258,12,48,29.5117,68,48,68,84,51.5742,84,48ZM64,48A16,16,0,1,1,48,32,16.0183,16.0183,0,0,1,64,48ZM16.2051,48c1.4255-1.9807,7.5393-7.9722,15.926-12.0349a19.5958,19.5958,0,0,0,0,24.07C23.7444,55.9722,17.6306,49.9807,16.2051,48ZM63.8689,60.0349a19.5958,19.5958,0,0,0,0-24.07C72.2556,40.0278,78.3694,46.0193,79.7949,48,78.3694,49.9807,72.2556,55.9722,63.8689,60.0349Z"></path><path d="M86,12H74a2,2,0,0,0,0,4H84V26a2,2,0,0,0,4,0V14A1.9988,1.9988,0,0,0,86,12Z"></path><path d="M86,68a1.9988,1.9988,0,0,0-2,2V80H74a2,2,0,0,0,0,4H86a1.9988,1.9988,0,0,0,2-2V70A1.9988,1.9988,0,0,0,86,68Z"></path><path d="M48,60A12.0131,12.0131,0,0,0,60,48a7.9914,7.9914,0,0,1-7.3828-11.071A11.9979,11.9979,0,1,0,48,60Z"></path></g></svg>