<svg height='100px' width='100px'  fill="#000000" xmlns="http://www.w3.org/2000/svg" xmlns:xlink="http://www.w3.org/1999/xlink" version="1.1" x="0px" y="0px" viewBox="0 0 100 100" style="enable-background:new 0 0 100 100;" xml:space="preserve"><path d="M45.909,22.437c-4.082-1.033-5.403-3.325-5.458-3.422c-0.177-0.316-0.514-0.518-0.876-0.518c-0.552,0-1,0.448-1,1  c0,0.186,0.05,0.359,0.139,0.508c0.314,0.556,2.022,3.186,6.705,4.37c1.083,0.274,2.374,0.871,2.374,2.159c0,0.552,0.448,1,1,1  s1-0.448,1-1C49.792,24.554,48.376,23.061,45.909,22.437z"></path><path d="M75.953,30.377c0.118,0.045,0.24,0.067,0.359,0.067c0.401,0,0.78-0.244,0.933-0.641l4.208-10.917  c0.095-0.248,0.088-0.523-0.019-0.765c-0.107-0.243-0.307-0.433-0.555-0.528l-14.93-5.754l0.185-0.481  c0.199-0.515-0.058-1.094-0.574-1.292c-0.514-0.197-1.094,0.058-1.292,0.574l-7.705,19.992c-0.786-0.313-1.623-0.526-2.496-0.618  c0.866-1.28,1.339-2.797,1.339-4.393c0-3.818-2.785-6.678-7.641-7.847c-5.903-1.422-6.173-5.814-6.184-6.31  c-0.012-0.543-0.457-0.989-1-0.989c-4.384,0-7.95,3.567-7.95,7.951c0,0.627,0.074,1.245,0.22,1.848  c-4.434,0.066-8.021,3.693-8.021,8.143c0,1.335,0.33,2.64,0.949,3.805c-3.994,0.661-7.049,4.139-7.049,8.317  c0,2.61,1.193,4.947,3.062,6.495c-0.393,0.135-0.681,0.497-0.681,0.935v9.489c0,0.552,0.448,1,1,1h2.373l7.903,30.79  C32.502,89.691,32.9,90,33.357,90H47.94c0.457,0,0.855-0.309,0.969-0.751l7.903-30.79h2.138c0.552,0,1-0.448,1-1V47.97  c0-0.552-0.448-1-1-1h-0.078c2.242-1.74,3.693-4.453,3.693-7.504c0-3.286-1.681-6.182-4.223-7.889l2.68-6.953L75.953,30.377z   M23.112,48.97h4.049h0.99v0.917c0,2.206,1.794,4,4,4s4-1.794,4-4V48.97h2.677v7.489H23.112V48.97z M47.164,88H34.133L26.55,58.459  h12.277v0.227c0,2.526,2.055,4.582,4.581,4.582s4.581-2.055,4.581-4.582v-0.227h6.758L47.164,88z M57.95,48.97v7.489h-9.961V48.97  H57.95z M60.566,39.465c0,4.138-3.366,7.504-7.504,7.504h-6.073c-0.552,0-1,0.448-1,1v10.716c0,1.423-1.158,2.582-2.581,2.582  s-2.581-1.158-2.581-2.582V47.97c0-0.552-0.448-1-1-1h-4.677c-0.552,0-1,0.448-1,1v1.917c0,1.103-0.897,2-2,2s-2-0.897-2-2V47.97  c0-0.552-0.448-1-1-1h-0.333h-1.656c-3.545,0-6.43-2.885-6.43-6.43s2.885-6.43,6.43-6.43c0.091,0,0.181,0.007,0.271,0.013  l0.125,0.008c0.401,0.032,0.782-0.196,0.959-0.559c0.177-0.363,0.119-0.797-0.148-1.101c-0.992-1.125-1.538-2.565-1.538-4.054  c0-3.388,2.756-6.144,6.144-6.144c0.369,0,0.756,0.038,1.149,0.112c0.37,0.069,0.747-0.074,0.977-0.373s0.273-0.7,0.111-1.04  c-0.384-0.809-0.58-1.666-0.58-2.546c0-2.982,2.205-5.459,5.07-5.886c0.361,1.909,1.808,5.785,7.596,7.179  c1.836,0.442,6.109,1.902,6.109,5.902c0,1.839-0.844,3.54-2.315,4.665c-0.364,0.278-0.492,0.769-0.311,1.19  c0.181,0.421,0.63,0.669,1.078,0.592c0.444-0.072,0.837-0.106,1.204-0.106C57.2,31.961,60.566,35.328,60.566,39.465z M73.939,17.062  l-3.488,9.051l-3.422-1.319l3.488-9.051L73.939,17.062z M75.739,28.151l-3.422-1.319l3.488-9.051l3.421,1.318L75.739,28.151z   M65.23,13.706l3.422,1.319l-3.488,9.051l-3.422-1.319L65.23,13.706z"></path></svg>