<svg height='100px' width='100px'  fill="#000000" xmlns="http://www.w3.org/2000/svg" viewBox="0 0 64 64" x="0px" y="0px"><title>Artboard 40</title><g><path d="M36,17.1V9a1,1,0,0,0-1.45-.89L18.76,16H9a1,1,0,0,0-1,1V27a1,1,0,0,0,1,1h1v9a1,1,0,0,0,1,1h4a1,1,0,0,0,1-1V35h2a1,1,0,0,0,1-1V31a1,1,0,0,0-1-1H16V28h2.76l15.79,7.89A1,1,0,0,0,35,36a1,1,0,0,0,.53-.15A1,1,0,0,0,36,35V26.9a5,5,0,0,0,0-9.8ZM14,36H12V28h2Zm3-4v1H16V32Zm1-6H10V18h8Zm16,7.38-14-7V17.62l14-7Zm2-8.56V19.18a3,3,0,0,1,0,5.64Z"></path><path d="M44.37,15.37A1,1,0,0,0,43.19,17a5,5,0,0,1,0,8,1,1,0,0,0-.22,1.4,1,1,0,0,0,.81.41,1,1,0,0,0,.59-.19,7,7,0,0,0,0-11.26Z"></path><path d="M47.18,12.49a1,1,0,0,0-1.4.14,1,1,0,0,0,.14,1.4,9,9,0,0,1,0,13.94,1,1,0,0,0,.63,1.77.94.94,0,0,0,.63-.23,11,11,0,0,0,0-17Z"></path><path d="M50,9.6a1,1,0,1,0-1.3,1.52,13,13,0,0,1,0,19.76A1,1,0,0,0,50,32.4,15,15,0,0,0,50,9.6Z"></path><path d="M61,4H52.9a5,5,0,0,0-9.8,0H20.9a5,5,0,0,0-9.8,0H3A3,3,0,0,0,0,7V39a3,3,0,0,0,3,3h8V55H6a1,1,0,0,0-1,1v7a1,1,0,0,0,1,1H26a1,1,0,0,0,1-1V56a1,1,0,0,0-1-1H21V42H43V55H38a1,1,0,0,0-1,1v7a1,1,0,0,0,1,1H58a1,1,0,0,0,1-1V56a1,1,0,0,0-1-1H53V42h8a3,3,0,0,0,3-3V7A3,3,0,0,0,61,4ZM48,2a3,3,0,0,1,2.82,2H45.18A3,3,0,0,1,48,2ZM16,2a3,3,0,0,1,2.82,2H13.18A3,3,0,0,1,16,2ZM13,42h6V55H13ZM25,57v5H7V57Zm32,0v5H39V57ZM45,55V42h6V55ZM62,39a1,1,0,0,1-1,1H3a1,1,0,0,1-1-1V7A1,1,0,0,1,3,6H61a1,1,0,0,1,1,1Z"></path></g></svg>