<?xml version="1.0" encoding="utf-8"?>
<!-- Generator: Adobe Illustrator 24.2.1, SVG Export Plug-In . SVG Version: 6.00 Build 0)  -->
<svg version="1.1" id="Layer_1" xmlns="http://www.w3.org/2000/svg" xmlns:xlink="http://www.w3.org/1999/xlink" x="0px" y="0px"
	 viewBox="0 0 100 100" enable-background="new 0 0 100 100" xml:space="preserve">
<g>
	<g>
		<path d="M33.753,50.94h4.386c0.997,0,1.902,0.407,2.558,1.063c0.656,0.656,1.063,1.561,1.063,2.558v2.897
			c0,0.602-0.488,1.091-1.091,1.091h-9.446c-0.602,0-1.091-0.488-1.091-1.091v-2.897c0-0.997,0.407-1.902,1.063-2.558
			C31.851,51.347,32.756,50.94,33.753,50.94z M38.14,53.122h-4.386c-0.394,0-0.754,0.162-1.015,0.424
			c-0.261,0.261-0.424,0.621-0.424,1.015v1.806h7.264v-1.806c0-0.394-0.162-0.754-0.424-1.015
			C38.894,53.284,38.534,53.122,38.14,53.122z"/>
		<path d="M61.861,50.94h4.386c0.997,0,1.902,0.407,2.558,1.063c0.656,0.656,1.063,1.561,1.063,2.558v2.897
			c0,0.602-0.488,1.091-1.091,1.091h-9.446c-0.602,0-1.091-0.488-1.091-1.091v-2.897c0-0.997,0.407-1.902,1.063-2.558
			C59.958,51.347,60.864,50.94,61.861,50.94L61.861,50.94z M66.247,53.122h-4.386c-0.394,0-0.754,0.162-1.015,0.424
			c-0.261,0.261-0.424,0.621-0.424,1.015v1.806h7.264v-1.806c0-0.394-0.162-0.754-0.424-1.015
			C67.001,53.284,66.641,53.122,66.247,53.122z"/>
		<path d="M50,64.775c-0.018,0-0.037,0-0.055,0.001H50V64.775z M50,64.777h0.055c-0.018-0.001-0.037-0.001-0.055-0.001V64.777z
			 M50,64.775h31.503c0.602,0,1.091,0.488,1.091,1.091c0,0.602-0.488,1.091-1.091,1.091H56.266H50H34.106H18.523
			c-0.602,0-1.091-0.488-1.091-1.091c0-0.602,0.488-1.091,1.091-1.091h15.596H50L50,64.775z"/>
		<path d="M24.197,34.91c0.602,0,1.091-0.488,1.091-1.091s-0.488-1.091-1.091-1.091h-5.49c-0.602,0-1.091,0.488-1.091,1.091v8.784
			c0,0.602,0.488,1.091,1.091,1.091h4.776c0.602,0,1.091-0.488,1.091-1.091s-0.488-1.091-1.091-1.091h-3.685V34.91H24.197z"/>
		<path d="M75.842,32.728c-0.602,0-1.091,0.488-1.091,1.091s0.488,1.091,1.091,1.091h4.399v6.602h-4.344
			c-0.602,0-1.091,0.488-1.091,1.091s0.488,1.091,1.091,1.091h5.435c0.602,0,1.091-0.488,1.091-1.091v-8.784
			c0-0.602-0.488-1.091-1.091-1.091H75.842z"/>
		<path d="M31.06,29.804H68.94c0.602,0,1.091,0.488,1.091,1.091v13.066c0,0.602-0.488,1.091-1.091,1.091H31.06
			c-0.602,0-1.091-0.488-1.091-1.091V30.895C29.969,30.292,30.457,29.804,31.06,29.804z M67.85,31.986H32.15V42.87H67.85V31.986z"/>
		<path d="M84.554,58.766c-0.464,0.509-4.424,5.271,0.248,15.2l-0.984,0.464l0.987-0.464c0.257,0.545,0.023,1.195-0.523,1.452
			c-0.156,0.074-0.321,0.107-0.483,0.104H50H16.182c-0.602,0-1.091-0.488-1.091-1.091c0-0.19,0.049-0.368,0.134-0.524
			c4.901-10.47,0.191-15.174,0.177-15.188l0.78-0.759l-0.784,0.759c-0.419-0.433-0.408-1.123,0.024-1.543
			c0.231-0.224,0.535-0.325,0.832-0.305l33.724-0.657l0-0.004c0.047-0.001,0.093,0.001,0.138,0.006l33.719,0.657l-0.017,1.087
			l0.021-1.091c0.602,0.012,1.081,0.51,1.069,1.112C84.903,58.293,84.767,58.571,84.554,58.766L84.554,58.766z M82.152,73.339
			c-2.928-7.202-1.58-11.95-0.342-14.331L50.073,58.39c-0.017,0.001-0.034,0.002-0.052,0.002l0-0.003l-0.021,0l-31.81,0.62
			c1.238,2.381,2.587,7.129-0.342,14.331H50H82.152L82.152,73.339z"/>
		<path d="M18.025,57.759c-0.27-1.355-0.712-4.238-0.227-6.821c0.5-2.662,1.904-4.997,5.207-5.334
			c0.051-4.346,0.619-20.665,6.266-21.12l0-0.001c0.029-0.002,0.058-0.003,0.087-0.003H50h20.642c0.074,0,0.147,0.007,0.217,0.022
			c5.525,0.696,6.085,16.791,6.136,21.102c3.303,0.338,4.707,2.672,5.207,5.334c0.496,2.641,0.022,5.597-0.246,6.911l0.004,0.001
			c-0.107,0.523-0.571,0.881-1.085,0.873H50H19.108C18.549,58.722,18.088,58.301,18.025,57.759L18.025,57.759z M19.937,51.338
			c-0.341,1.815-0.139,3.856,0.078,5.202H50h29.985c0.217-1.347,0.419-3.387,0.078-5.202c-0.366-1.951-1.434-3.639-4.04-3.602
			c-0.039,0.004-0.079,0.006-0.12,0.006c-0.602-0.005-1.087-0.497-1.082-1.1l0.004,0c0.001-0.068,0.199-19.542-4.241-19.982H50
			H29.414c-4.268,0.422-4.25,18.437-4.241,19.886c0.004,0.044,0.006,0.089,0.004,0.134c-0.017,0.602-0.519,1.077-1.121,1.06l0-0.004
			C21.392,47.664,20.307,49.367,19.937,51.338L19.937,51.338z"/>
	</g>
</g>
<rect x="3.455" y="3.455" fill="none" width="93.091" height="93.091"/>
<path fill-rule="evenodd" clip-rule="evenodd" d="M17.521,0h64.958C92.116,0,100,7.884,100,17.521v64.958
	C100,92.116,92.116,100,82.479,100H17.521C7.884,100,0,92.116,0,82.479V17.521C0,7.884,7.884,0,17.521,0z M17.521,4.38h64.958
	c7.227,0,13.141,5.913,13.141,13.141v64.958c0,7.227-5.913,13.141-13.141,13.141H17.521c-7.227,0-13.141-5.913-13.141-13.141V17.521
	C4.38,10.293,10.294,4.38,17.521,4.38z"/>
</svg>
