<svg height='100px' width='100px'  fill="#000000" xmlns="http://www.w3.org/2000/svg" xmlns:xlink="http://www.w3.org/1999/xlink" xml:space="preserve" version="1.1" style="shape-rendering:geometricPrecision;text-rendering:geometricPrecision;image-rendering:optimizeQuality;" viewBox="0 0 333 333" x="0px" y="0px" fill-rule="evenodd" clip-rule="evenodd"><defs><style type="text/css">
   
    .fil0 {fill:#000000}
   
  </style></defs><g><path class="fil0" d="M190 80c2,4 5,8 7,12l8 -3c-5,-4 -10,-6 -15,-9zm5 103c0,-1 10,-149 -142,-130 -5,39 1,67 13,87 61,-17 55,-78 77,-59 33,29 46,73 35,114 20,0 16,8 19,45 11,-17 26,-32 43,-43 -22,-2 -46,0 -45,-14zm-163 -142c1,-4 5,-8 10,-9 59,-9 99,3 125,24 1,0 42,-5 68,33 11,18 -20,18 -29,23 9,24 11,48 11,61l77 7c14,2 13,21 0,22 -46,2 -90,46 -92,92 -1,14 -21,14 -22,0l-7 -77c-38,-1 -166,-16 -141,-176zm123 153c10,-30 4,-62 -16,-86 -13,24 -35,42 -60,51 23,24 54,32 76,35z"></path></g></svg>