<svg height='100px' width='100px'  fill="#000000" xmlns:x="http://ns.adobe.com/Extensibility/1.0/" xmlns:i="http://ns.adobe.com/AdobeIllustrator/10.0/" xmlns:graph="http://ns.adobe.com/Graphs/1.0/" xmlns="http://www.w3.org/2000/svg" xmlns:xlink="http://www.w3.org/1999/xlink" version="1.1" x="0px" y="0px" viewBox="0 0 85 90" enable-background="new 0 0 85 90" xml:space="preserve"><g><g i:extraneous="self"><path d="M28.035,17.463c-0.008-0.006-0.017-0.009-0.023-0.015l0.002-0.001c-0.021-0.018-0.047-0.027-0.071-0.044    c-0.409-0.298-0.823-0.573-1.247-0.834c-0.006-0.006-0.021-0.008-0.027-0.016c-0.429-0.262-0.859-0.503-1.297-0.73    c-0.172-0.093-0.353-0.179-0.533-0.272c-0.118-0.058-0.241-0.121-0.359-0.179C17.71,12.226,6.717,8.23,0.25,0    c-0.838,9.864,0.102,24.396,7.911,33.953c0.125,0.161,0.261,0.322,0.395,0.482c0.199,0.236,0.394,0.479,0.6,0.708    c0.508,0.579,1.054,1.139,1.637,1.68c0.013,0.012,0.029,0.024,0.04,0.036c0.583,0.535,1.193,1.048,1.849,1.535    c0.033,0.024,0.066,0.056,0.102,0.082c0,0,0,0,0-0.002c0.013,0.007,0.019,0.018,0.033,0.026c7.507,5.485,15.88,5.2,20.293,1.753    c-3.946-2.06-7.834-3.646-10.872-5.059c-0.119-0.057-0.239-0.122-0.357-0.179c-0.18-0.092-0.361-0.178-0.535-0.27    c-0.438-0.227-0.87-0.469-1.293-0.73c-0.006-0.005-0.021-0.012-0.027-0.016c-0.423-0.26-0.838-0.537-1.25-0.835    c-0.024-0.014-0.05-0.026-0.071-0.043l0.002-0.001c-0.009-0.005-0.014-0.008-0.023-0.015c-5.499-4.185-9.661-11.333-8.015-18.225    c0.008,5.852,3.706,11.541,8.373,15.092c0.01,0.005,0.016,0.008,0.022,0.015v0.001c0.025,0.016,0.047,0.029,0.073,0.044    c0.407,0.299,0.822,0.571,1.245,0.833c0.008,0.005,0.021,0.01,0.029,0.015c0.428,0.263,0.855,0.504,1.293,0.732    c0.176,0.091,0.357,0.178,0.534,0.27c0.12,0.058,0.24,0.123,0.36,0.179c3.458,1.609,8.017,3.444,12.514,5.947    c0.382-0.631,0.695-1.306,0.88-2.035C37.819,28.998,33.608,21.706,28.035,17.463z M74.427,58.136    c-0.009-0.006-0.02-0.011-0.024-0.019c-0.029-0.021-0.059-0.036-0.088-0.055c-0.514-0.377-1.041-0.722-1.576-1.051    c-0.009-0.006-0.021-0.013-0.034-0.021c-0.534-0.329-1.079-0.632-1.631-0.921c-0.216-0.115-0.448-0.226-0.672-0.339    c-0.146-0.073-0.303-0.155-0.452-0.227c-8.534-3.967-22.38-8.999-30.53-19.371c-1.061,12.428,0.128,30.739,9.972,42.78    c0.157,0.205,0.328,0.405,0.49,0.608c0.248,0.3,0.497,0.605,0.755,0.894c0.643,0.729,1.333,1.436,2.066,2.118    c0.021,0.015,0.034,0.029,0.051,0.044c0.73,0.672,1.502,1.32,2.328,1.934c0.041,0.031,0.087,0.069,0.129,0.103    c0.017,0.008,0.028,0.021,0.041,0.029c9.459,6.914,20.014,6.556,25.57,2.21c-4.972-2.595-9.869-4.592-13.7-6.374    c-0.148-0.067-0.298-0.151-0.448-0.223c-0.228-0.117-0.456-0.226-0.672-0.343c-0.556-0.284-1.101-0.59-1.636-0.921    c-0.008-0.006-0.024-0.013-0.033-0.021c-0.535-0.327-1.054-0.674-1.572-1.051c-0.029-0.017-0.059-0.031-0.088-0.053l0.004-0.002    c-0.012-0.006-0.02-0.013-0.032-0.017c-6.928-5.273-12.17-14.284-10.098-22.965c0.016,7.375,4.672,14.542,10.554,19.019    c0.009,0.004,0.017,0.008,0.025,0.017c0.028,0.022,0.058,0.037,0.087,0.054c0.514,0.377,1.042,0.723,1.572,1.051    c0.009,0.009,0.025,0.013,0.034,0.021c0.534,0.33,1.083,0.634,1.635,0.92c0.22,0.117,0.444,0.227,0.668,0.344    c0.149,0.069,0.304,0.15,0.452,0.222c4.358,2.028,10.103,4.343,15.769,7.496c0.485-0.798,0.879-1.647,1.111-2.567    C86.758,72.674,81.454,63.482,74.427,58.136z M42.784,31.678c0.058,0.131,0.129,0.266,0.187,0.392    c0.099,0.192,0.191,0.396,0.294,0.581c0.244,0.479,0.502,0.95,0.785,1.415c0.012,0.007,0.012,0.022,0.02,0.028    c0.278,0.462,0.573,0.917,0.897,1.361c0.017,0.027,0.029,0.054,0.045,0.078c0.013,0.005,0.013,0.015,0.017,0.024    c4.565,6.08,12.418,10.671,19.927,8.677c0.788-0.198,1.511-0.543,2.195-0.965c-2.698-4.899-4.669-9.871-6.4-13.646    c-0.065-0.128-0.141-0.262-0.194-0.391c-0.1-0.194-0.195-0.393-0.295-0.582c-0.241-0.478-0.502-0.945-0.789-1.412    c-0.004-0.008-0.008-0.022-0.017-0.031c-0.277-0.461-0.572-0.915-0.892-1.359c-0.017-0.025-0.029-0.052-0.046-0.077    c0,0,0,0-0.005,0c-0.004-0.004-0.008-0.015-0.012-0.022c-3.823-5.089-9.948-9.125-16.248-9.138    c7.416-1.791,15.106,2.749,19.618,8.745c0.004,0.008,0.008,0.017,0.008,0.025l0.009-0.003c0.013,0.023,0.029,0.05,0.042,0.077    c0.327,0.45,0.622,0.898,0.9,1.362c0.008,0.007,0.012,0.02,0.017,0.028c0.282,0.465,0.543,0.938,0.788,1.414    c0.1,0.19,0.191,0.39,0.291,0.58c0.062,0.133,0.129,0.266,0.19,0.393c1.52,3.315,3.229,7.554,5.445,11.857    c3.715-4.812,4.022-13.945-1.889-22.129c-0.012-0.016-0.02-0.025-0.024-0.037c-0.029-0.038-0.054-0.076-0.088-0.113    c-0.522-0.711-1.078-1.384-1.65-2.013c-0.013-0.016-0.021-0.028-0.038-0.045c-0.585-0.639-1.191-1.232-1.809-1.788    c-0.245-0.226-0.512-0.44-0.761-0.658c-0.178-0.139-0.349-0.288-0.522-0.423c-10.285-8.52-25.933-9.549-36.55-8.632    C35.094,12.306,39.394,24.294,42.784,31.678z"></path></g></g></svg>