<svg height='100px' width='100px'  fill="#000000" xmlns="http://www.w3.org/2000/svg" xmlns:xlink="http://www.w3.org/1999/xlink" version="1.1" x="0px" y="0px" viewBox="0 0 66 66" style="enable-background:new 0 0 66 66;" xml:space="preserve"><g><path d="M26.5,21.6c0,0.3,0.1,0.6,0.4,0.9c4.1,3.3,6.5,8.5,8.1,12.7c0.2,0.5,0.8,0.8,1.3,0.6   c0.5-0.2,0.8-0.8,0.6-1.3c-1.5-4.1-3.7-9.1-7.6-12.6l12.9-7.6c0.5-0.3,0.6-0.9,0.4-1.4c-0.3-0.5-0.9-0.6-1.4-0.4L27,20.8   C26.7,21,26.5,21.3,26.5,21.6z"></path><path d="M28.7,10.3c-0.5,0.8-0.8,1.6-1,2.5c0,0.2,0,0.5,0.1,0.7l2,3.4l10.1-6l-2-3.4c-0.1-0.2-0.3-0.4-0.6-0.5   c-0.9-0.3-1.8-0.4-2.7-0.3L32,2.2c-0.1-0.2-0.3-0.4-0.6-0.5c-1.2-0.4-2.5-0.2-3.5,0.4c-1,0.6-1.8,1.7-2,2.9c-0.1,0.2,0,0.5,0.1,0.7   L28.7,10.3z"></path><polygon points="43,16.1 32.8,22.1 51.4,53.6 61.5,47.6  "></polygon><path d="M64.9,63l-1.1-2l-1.5-11.5l-9.5,5.6l9.3,6.9l1.2,2c0.3,0.5,0.9,0.6,1.4,0.4C65,64.1,65.1,63.5,64.9,63z"></path><path d="M13.5,39.9c-0.4,0.4-0.4,1,0,1.4c0.4,0.4,1,0.4,1.4,0c0.4-0.4,0.4-1,0-1.4C14.5,39.5,13.9,39.5,13.5,39.9z   "></path><path d="M29.7,34.1c0-0.6-0.5-1-1-1H12.2c-0.5,0-1,0.4-1,1c0,0.5,0.5,1,1,1h16.5C29.2,35.1,29.7,34.6,29.7,34.1z"></path><path d="M31.5,50.4c-0.4,0.4-0.4,1,0,1.4c0.4,0.4,1.1,0.4,1.4,0c0.4-0.4,0.4-1.1,0-1.4   C32.6,50.1,31.9,50.1,31.5,50.4z"></path><path d="M37.3,50.1c-0.5,0-1,0.5-1,1s0.5,1,1,1h10.9l-1.2-2H37.3z"></path><path d="M2.1,28h14.2c0.5,0,1-0.5,1-1c0-0.6-0.5-1-1-1H2.1c-0.6,0-1,0.4-1,1C1.1,27.6,1.6,28,2.1,28z"></path><path d="M18.6,39.9c-0.4,0.4-0.4,1,0,1.4c0.4,0.4,1,0.4,1.4,0c0.4-0.4,0.4-1,0-1.4C19.6,39.5,19,39.5,18.6,39.9z"></path><path d="M1.3,33.4c-0.4,0.4-0.4,1,0,1.4c0.4,0.4,1,0.4,1.4,0c0.4-0.4,0.4-1,0-1.4C2.3,33,1.7,33,1.3,33.4z"></path><path d="M6.4,33.4c-0.4,0.4-0.4,1,0,1.4c0.4,0.4,1,0.4,1.4,0c0.4-0.4,0.4-1,0-1.4C7.4,33,6.8,33,6.4,33.4z"></path><path d="M26.4,50.4c-0.4,0.4-0.4,1,0,1.4c0.4,0.4,1,0.4,1.4,0c0.4-0.4,0.4-1,0-1.4C27.5,50.1,26.8,50.1,26.4,50.4z   "></path><path d="M40.8,39.6H24.4c-0.5,0-1,0.4-1,1c0,0.5,0.5,1,1,1H42L40.8,39.6z"></path></g></svg>