<?xml version="1.0" encoding="utf-8"?>
<!-- Generator: Adobe Illustrator 24.2.1, SVG Export Plug-In . SVG Version: 6.00 Build 0)  -->
<svg version="1.1" id="Layer_1" xmlns="http://www.w3.org/2000/svg" xmlns:xlink="http://www.w3.org/1999/xlink" x="0px" y="0px"
	 viewBox="0 0 100 100" enable-background="new 0 0 100 100" xml:space="preserve">
<g>
	<path d="M45.2,44c0-0.8-0.7-1.5-1.5-1.5c-3,0-6.6-1.4-6.6-5.4v-5.6c0-0.8-0.7-1.5-1.5-1.5s-1.5,0.7-1.5,1.5V37c0,5,3.9,8.4,9.6,8.4
		C44.5,45.5,45.2,44.8,45.2,44z"/>
	<path d="M71,50l-0.7-0.9c-0.3-0.4-0.8-0.6-1.2-0.5c-0.2,0-18.9,1.1-20.5,17.2c0,0.2,0,0.3,0,0.5c-1.6,1.9-3.3,4.2-4.8,7V50.4
		C51,49.8,56,45.1,56,38.5V19.1c0-0.6-0.3-1.1-0.9-1.4c-0.5-0.2-1.1-0.2-1.6,0.2L47.3,23l-3.8-5.3c-0.6-0.8-1.9-0.8-2.4,0L37.3,23
		l-6.2-5c-0.4-0.4-1.1-0.4-1.6-0.2c-0.5,0.2-0.9,0.8-0.9,1.4v19.4c0,6.6,4.9,11.3,12.2,11.9v30.2c0,0.1,0,0.3,0.1,0.4c0,0,0,0,0,0.1
		C40.7,82,41.2,82.8,42,83c0.1,0,0.3,0,0.4,0c0.7,0,1.3-0.4,1.5-1.1c1.6-6,4.4-10.4,7-13.4c0.6,0,1.1,0.1,1.6,0.1
		c14.7,0,18.9-16.9,18.9-17.1C71.4,50.9,71.3,50.4,71,50z M31.6,38.5V22.3l5,4.1c0.3,0.3,0.7,0.4,1.1,0.3c0.4-0.1,0.8-0.3,1-0.6
		l3.5-4.9l3.5,4.9c0.2,0.3,0.6,0.6,1,0.6c0.4,0.1,0.8-0.1,1.1-0.3l5-4.1v16.2c0,6.2-5.4,8.9-10.7,8.9S31.6,44.7,31.6,38.5z
		 M53.8,65.3c2-1.8,3.5-2.6,3.5-2.6c0.7-0.4,1-1.3,0.6-2s-1.3-1-2-0.6c-0.2,0.1-1.7,0.9-3.7,2.6c2.8-8.7,12.6-10.6,15.9-11
		C67.1,54.9,63.3,64.5,53.8,65.3z"/>
</g>
</svg>
