<svg height='100px' width='100px'  xmlns:dc="http://purl.org/dc/elements/1.1/" xmlns:cc="http://creativecommons.org/ns#" xmlns:rdf="http://www.w3.org/1999/02/22-rdf-syntax-ns#" xmlns:svg="http://www.w3.org/2000/svg" xmlns="http://www.w3.org/2000/svg" xmlns:sodipodi="http://sodipodi.sourceforge.net/DTD/sodipodi-0.dtd" xmlns:inkscape="http://www.inkscape.org/namespaces/inkscape" fill="#000000" version="1.1" x="0px" y="0px" viewBox="0 0 100 100"><path style="font-size:medium;font-style:normal;font-variant:normal;font-weight:normal;font-stretch:normal;text-indent:0;text-align:start;text-decoration:none;line-height:normal;letter-spacing:normal;word-spacing:normal;text-transform:none;direction:ltr;block-progression:tb;writing-mode:lr-tb;text-anchor:start;baseline-shift:baseline;opacity:1;color:#000000;fill:#000000;fill-opacity:1;stroke:none;stroke-width:8.80952454000000000;marker:none;visibility:visible;display:inline;overflow:visible;enable-background:accumulate;font-family:Sans;-inkscape-font-specification:Sans" d="M 50 6 C 25.72316 6 6 25.72316 6 50 C 6 74.276839 25.72316 94 50 94 C 74.27684 94 94 74.276839 94 50 C 94 25.72316 74.27684 6 50 6 z M 50 10 C 72.115079 10 90 27.884921 90 50 C 90 72.115079 72.115079 90 50 90 C 27.884921 90 10 72.115079 10 50 C 10 27.884921 27.884921 10 50 10 z M 50 14 C 30.141439 14 14 30.141438 14 50 C 14 69.858562 30.141439 86 50 86 C 69.858562 86 86 69.858562 86 50 C 86 30.141438 69.858562 14 50 14 z M 50 18 C 67.696801 18 82 32.303199 82 50 C 82 67.696802 67.696801 82 50 82 C 32.303199 82 18 67.696802 18 50 C 18 32.303199 32.303199 18 50 18 z M 35.8125 28 A 2.0002002 2.0002002 0 0 0 34.15625 29.21875 L 28.375 42.71875 C 26.335877 44.26309 25 46.699437 25 49.4375 L 25 61 A 2.0002002 2.0002002 0 0 0 27 63 L 29 63 L 29 68 A 2.0002002 2.0002002 0 0 0 31 70 L 39 70 A 2.0002002 2.0002002 0 0 0 41 68 L 41 63 L 59 63 L 59 68 A 2.0002002 2.0002002 0 0 0 61 70 L 69 70 A 2.0002002 2.0002002 0 0 0 71 68 L 71 63 L 73 63 A 2.0002002 2.0002002 0 0 0 75 61 L 75 49.4375 C 75 46.699437 73.664123 44.26309 71.625 42.71875 L 65.84375 29.21875 A 2.0002002 2.0002002 0 0 0 64 28 L 36 28 A 2.0002002 2.0002002 0 0 0 35.8125 28 z M 37.3125 32 L 62.6875 32 L 66.53125 41 L 33.46875 41 L 37.3125 32 z M 33.4375 45 L 66.5625 45 C 69.053145 45 71 46.937902 71 49.4375 L 71 59 L 29 59 L 29 49.4375 C 29 46.937902 30.946855 45 33.4375 45 z M 37 48 C 34.790861 48 33 49.790861 33 52 C 33 54.209139 34.790861 56 37 56 C 39.209139 56 41 54.209139 41 52 C 41 49.790861 39.209139 48 37 48 z M 63 48 C 60.790861 48 59 49.790861 59 52 C 59 54.209139 60.790861 56 63 56 C 65.209139 56 67 54.209139 67 52 C 67 49.790861 65.209139 48 63 48 z M 33 63 L 37 63 L 37 66 L 33 66 L 33 63 z M 63 63 L 67 63 L 67 66 L 63 66 L 63 63 z "></path></svg>