<svg height='100px' width='100px'  fill="#000000" xmlns="http://www.w3.org/2000/svg" viewBox="0 0 512 512" x="0px" y="0px"><title>sewing-Machine-tailor-Craft</title><g><path d="M472,128h-8V112a32,32,0,0,0-32-32h-8V72a8,8,0,0,0-16,0v8H392V72a8,8,0,0,0-16,0v8H351.2a40.013,40.013,0,0,0-78.4,0H255.2a40,40,0,0,0-78.39,0H144V72a8,8,0,0,0-16,0v8H48a32,32,0,0,0-32,32V216a32,32,0,0,0,32,32H80v32a8,8,0,0,0,16,0V248h16v56a8,8,0,0,0,16,0V288h8a8,8,0,0,0,0-16h-8V248h16a32,32,0,0,0,32-32V176H320V328H48a32,32,0,0,0-32,32v32a32,32,0,0,0,32,32h8v8a24,24,0,0,0,24,24h32a24,24,0,0,0,24-24v-8H344v8a24,24,0,0,0,24,24h32a24,24,0,0,0,24-24v-8h8a32,32,0,0,0,32-32V240h8a24,24,0,0,0,24-24V152A24,24,0,0,0,472,128ZM317.175,94.139l.964-.964a7.32,7.32,0,0,1,10.351,0h0a7.319,7.319,0,0,1,0,10.35l-.965.965a7.319,7.319,0,0,1-10.35,0h0A7.32,7.32,0,0,1,317.175,94.139ZM215.312,65.376h1.376a7.312,7.312,0,1,1,0,14.624h-1.376a7.312,7.312,0,0,1,0-14.624ZM136,408H48a16.019,16.019,0,0,1-16-16V360a16.019,16.019,0,0,1,16-16h88Zm312-16a16,16,0,0,1-16,16H152V344H328a8,8,0,0,0,8-8V168a8,8,0,0,0-8-8H168a8,8,0,0,0-8,8v48a16,16,0,0,1-16,16H48a16,16,0,0,1-16-16V112A16,16,0,0,1,48,96H96V200a8,8,0,0,0,16,0V96h16v88a8,8,0,0,0,16,0V128h8a8,8,0,0,0,0-16h-8V96h32.805a40,40,0,0,0,78.39,0h17.6a40.013,40.013,0,0,0,78.4,0H432a16,16,0,0,1,16,16Z"></path><path d="M424,208H360a8,8,0,0,0-8,8v64a8,8,0,0,0,8,8h64a8,8,0,0,0,8-8V216A8,8,0,0,0,424,208Zm-32,48a8,8,0,1,1,8-8A8,8,0,0,1,392,256Z"></path><path d="M360,336a8,8,0,0,0,8-8V312a8,8,0,0,0-16,0v16A8,8,0,0,0,360,336Z"></path><path d="M400,328V312a8,8,0,0,0-16,0v16a8,8,0,0,0,16,0Z"></path><path d="M424,304a8,8,0,0,0-8,8v16a8,8,0,0,0,16,0V312A8,8,0,0,0,424,304Z"></path><path d="M424,376H176a8,8,0,0,0,0,16H424a8,8,0,0,0,0-16Z"></path></g></svg>