<svg height='100px' width='100px'  fill="#000000" xmlns="http://www.w3.org/2000/svg" xmlns:xlink="http://www.w3.org/1999/xlink" version="1.1" x="0px" y="0px" viewBox="0 0 512 512" enable-background="new 0 0 512 512" xml:space="preserve"><path d="M413.139,314.799c1-10.312,0.375-20.781-1.891-31.328c-5.062-23.592-18.312-46.928-39.389-69.349  c-22.484-23.913-35.156-51.873-37.672-83.091c-1.891-23.586,3.016-40.343,3.062-40.483L343,71.783l-18.875,5.39  c-46.014,13.148-80.965,34.476-103.902,63.404c-18.406,23.211-29.296,51.538-32.499,84.428c-4.062-3.602-7.75-7.242-10.281-10.391  l-11.062-13.773l-7.031,16.203c-11.046,25.397-15.109,48.046-14.875,67.833c-17.671-14.404-28.343-26.412-35.374-26.412  c-7.625,0-24.812,2.984-41.045,17.617c-18.046-12.25-31.155-27.727-39.108-46.218c-8.156-18.969-7.609-34.296-7.594-34.444h-0.016  c0-0.172,0.016-0.336,0.016-0.508c0-5.891-4.766-10.664-10.656-10.664c-5.703,0-10.344,4.477-10.641,10.109H0.042  c-0.046,0.781-0.89,19.522,8.828,42.787c6.781,16.242,19.953,37.312,45.327,55.201c-14.062,21.938-5.594,35.984-5.094,41.219  c1.141,11.998,65.576,106.652,237.758,106.652s225.133-170.643,225.133-170.643S475.84,295.908,413.139,314.799z M173.162,240.598  c6.031,5.383,12.64,10.508,18.187,14.32l16.703,11.477v-20.273c0-71.092,34.499-118.059,105.325-143.144  c-0.875,7.765-1.344,17.585-0.516,28.749c1.859,25.14,10.904,62.373,43.451,97.005c28.826,30.663,40.467,62.208,34.311,92.192  c-11.498,2.812-23.732,5.297-36.623,7.312c-2.172-14.547-11.188-27.609-26.875-38.984c-24.436-17.67-25.342-48.662-25.342-48.936  l-0.234-19.397l-16.25,10.585c-28.014,18.234-47.545,38.742-58.06,60.967c-5.031,10.625-7.891,21.516-8.562,32.328  c-20.53-5.984-37.389-14.422-51.311-23.281C164.209,282.393,166.131,261.902,173.162,240.598z M239.832,329.783  c-0.031-24.062,15.093-48.781,43.436-70.717c3.656,14.156,12.047,33.514,31.344,47.467c10.748,7.781,16.748,15.828,18.217,24.484  c-15.217,1.641-31.232,2.578-48.014,2.578c-1.422,0-2.844-0.016-4.281-0.031C265.752,333.439,252.238,332.064,239.832,329.783z   M384.42,394.859c-29.092,15.951-61.904,24.045-97.559,24.045c-35.608,0-68.873-4.297-98.872-12.75  c-24.53-6.906-46.92-16.592-66.544-28.811c-33.687-20.938-48.655-42.576-51.467-48.311c-0.328-1.844-0.797-3.5-1.234-5  c-0.812-2.875-1.516-5.344-1.234-8.469c0.422-4.406,2.781-9.484,7.047-15.125c11.843-15.641,25.358-19.438,31.39-20.344  c2.671,2,6.859,5.688,10.375,8.781c25.905,22.781,74.138,65.186,164.01,66.029c1.516,0,3,0.016,4.484,0.016  c75.42,0,136.168-18.264,173.869-33.576c1.672-0.688,3.328-1.375,4.938-2.062c-4.703,7.203-10.078,14.656-16.172,22.139  C429.014,364.062,407.811,382.031,384.42,394.859z"></path></svg>