<svg height='100px' width='100px'  fill="#000000" xmlns="http://www.w3.org/2000/svg" xmlns:xlink="http://www.w3.org/1999/xlink" version="1.1" x="0px" y="0px" viewBox="0 0 512 512" style="enable-background:new 0 0 512 512;" xml:space="preserve"><g><path d="M69.5,95.7C60,99.6,48.2,110.9,46,142.4c-0.3,3.9,2.6,7.2,6.5,7.5c0.2,0,0.3,0,0.5,0c3.6,0,6.7-2.8,7-6.5   c1.3-19,6.6-31.3,14.8-34.7c8.8-3.6,20.4,2.9,28.6,9c3.1,2.3,7.5,1.7,9.8-1.4s1.7-7.5-1.4-9.8C91.8,91.4,77.7,92.3,69.5,95.7z"></path><path d="M402,7.5c-18.3,0-35.5,14.5-49.7,41.9c-9.6,18.5-17.8,42.4-24,70.3c-15-48.9-36.6-76.3-61.1-76.3   c-19.2,0-36.8,16.9-51,48.8c-13,29.3-22.3,69.2-26.9,115.2c0,0,0,0,0,0c-1.1,11.1-1.9,22.6-2.5,34.2c0,0,0,0,0,0l0,0   c-0.5,10.1-0.7,20.3-0.7,30.4c0,20.5,0.9,40.9,2.8,60.6c0,0,0,0,0,0c0,0,0,0,0,0.1c0,0,0,0,0,0c0.1,1.1,0.2,2.2,0.3,3.2l0.1,1.5   c0,0,0,0,0,0c0.1,1,0.2,2.1,0.3,3.1c0,0,0,0,0,0l0.2,1.6c0,0,0,0,0,0c0.1,1,0.2,2.1,0.3,3.1c0,0,0,0,0,0l0.2,1.5c0,0,0,0,0,0   c0,0,0,0,0,0c0.1,1.1,0.3,2.1,0.4,3.2c0,0,0,0,0,0l0,0c0,0,0,0,0,0c0,0,0,0,0,0l0.1,0.7c0,0,0,0,0,0c0.3,2.5,0.6,5,1,7.4   c0,0,0,0,0,0l0.1,0.5c0,0,0,0,0,0c0,0,0,0,0,0c0.1,1,0.3,2.1,0.4,3.1c0,0,0,0,0,0l0.2,1.4c0,0,0,0,0,0c0.1,1,0.3,2,0.4,3   c0,0,0,0,0,0c0,0,0,0,0,0l0.2,1.5c0,0,0,0,0,0c0.2,1,0.3,1.9,0.5,2.9c0,0,0,0,0,0l0.2,1.4c0,0,0,0,0,0c0.2,1,0.3,2,0.5,3   c0,0,0,0,0,0l0.1,0.6c0,0,0,0,0,0c0.4,2.2,0.8,4.4,1.2,6.6c0,0,0,0,0,0l0.2,0.9c0,0,0,0,0,0c0,0,0,0,0,0c0.2,0.8,0.3,1.6,0.5,2.5   l0.1,0.3c0,0,0,0,0,0l0.3,1.5c0,0,0,0,0,0c0.2,0.9,0.4,1.8,0.5,2.6c0,0,0,0,0,0l0.3,1.5c0,0,0,0,0,0c0.2,0.9,0.4,1.7,0.6,2.6   c0,0,0,0,0,0l0.3,1.5c0,0,0,0,0,0c0,0,0,0,0,0l0.1,0.6c0.2,0.7,0.3,1.4,0.5,2c0,0,0,0,0,0l0.1,0.6c0,0,0,0,0,0c0,0,0,0,0,0   c0.4,1.9,0.9,3.8,1.3,5.7c0,0,0,0,0,0l0.3,1.3c0,0,0,0,0,0l0,0.2l0.3,1.2l0,0.1c0,0,0,0,0,0l0.1,0.5c0,0,0,0,0,0c0,0,0,0,0,0   l0.1,0.4c0,0,0,0,0,0l0.4,1.6c0,0,0,0,0,0c0.2,0.8,0.4,1.5,0.6,2.3c0,0,0,0,0,0c0,0,0,0,0,0l0.1,0.3l0,0.1c0,0,0,0,0,0l0,0   c0,0,0,0,0,0c0,0,0,0,0,0c0,0,0,0,0,0c0,0,0,0,0,0c0,0,0,0,0,0c0,0,0,0,0,0l0,0c0,0,0,0,0,0l0,0.1l0.2,0.7l0,0.1c0,0,0,0,0,0l0,0   c0,0,0,0,0,0c0.2,0.7,0.4,1.5,0.6,2.2c0,0,0,0,0,0l0.4,1.3c0,0,0,0,0,0c0,0,0,0,0,0l0,0c0,0,0,0,0,0l0.1,0.3l0.1,0.5c0,0,0,0,0,0   c0,0,0,0,0,0l0,0c0,0,0,0,0,0l0,0.1l0.4,1.4l0,0.1c0,0,0,0,0,0l0,0c0,0,0,0,0,0c0,0,0,0,0,0l0.3,1.1c0,0,0,0,0,0c0,0,0,0,0,0l0,0   c0,0,0,0,0,0l0.5,1.8c0,0,0,0,0,0l0,0c0,0,0,0,0,0c0,0,0,0.1,0,0.1c0,0,0,0,0,0c0,0,0,0,0,0c0,0,0,0,0,0.1l0,0l0,0c0,0,0,0,0,0   c0,0,0,0,0,0c0.1,0.3,0.2,0.7,0.3,1c0,0,0,0.1,0,0.1c-0.4,0.2-0.8,0.4-1.2,0.6c-8.3,3.4-20.8-1.7-35.2-14.5   c-2.9-2.6-7.3-2.3-9.9,0.6c-2.6,2.9-2.3,7.3,0.6,9.9c16.5,14.6,29.5,19,39,19c4.2,0,7.8-0.9,10.8-2.1c0.1,0,0.2-0.1,0.3-0.1l0,0   c0,0,0,0,0,0c0,0,0,0,0,0l0.2,0.4c0.1,0.2,0.1,0.3,0.2,0.5c0.1,0.2,0.2,0.5,0.3,0.7c0,0,0,0,0,0c0.2,0.4,0.3,0.9,0.5,1.3l0.2,0.5   c0,0,0,0,0,0l0,0c0,0,0,0,0,0l0,0c0,0,0,0,0,0l0.1,0.4c0,0,0,0,0,0l0.1,0.2l0.1,0.2c0,0,0,0,0,0c0,0,0,0,0,0   c0.1,0.2,0.1,0.3,0.2,0.4c0.2,0.5,0.4,1.1,0.6,1.6c0,0,0,0,0,0c0,0,0,0,0,0c0,0,0,0,0,0l0.1,0.3c0.2,0.5,0.4,0.9,0.5,1.4   c0,0,0,0,0,0c0,0,0,0.1,0,0.1c0,0,0,0,0,0c0,0,0,0,0,0c0,0,0,0,0,0l0.3,0.7c0,0,0,0,0,0c0,0,0,0,0,0c0.1,0.2,0.1,0.4,0.2,0.5   l0.1,0.1c0,0,0,0,0,0c0.2,0.5,0.4,1.1,0.7,1.6c0,0,0,0,0,0l0,0.1l0.5,1.1c0,0,0,0,0,0l0.1,0.3l0.1,0.2c0,0,0,0,0,0c0,0,0,0,0,0   l0.5,1.2l0.1,0.3c0,0,0,0,0,0l0,0c0,0,0,0,0,0c0,0,0,0,0,0l0,0.1c0.2,0.5,0.4,0.9,0.6,1.4c0,0,0,0,0,0l0,0.1l0.2,0.5l0,0   c0,0,0,0,0,0l0,0l0,0c0,0,0,0,0,0l0.3,0.6c0,0,0,0,0,0c0,0,0,0,0,0l0.1,0.3l0,0c0,0,0,0.1,0,0.1c0,0,0,0,0,0l0,0c0,0,0,0,0,0   c0,0,0,0,0,0l0.6,1.3c0,0,0,0,0,0c0,0,0,0,0,0l0,0c0,0,0,0,0,0l0.3,0.5l0.3,0.7c0,0,0,0,0,0c0,0,0,0,0,0l0,0c0,0,0,0,0,0l0.4,0.8   c0,0,0,0,0,0c0,0,0,0,0,0l0,0l0.2,0.4l0.1,0.3c0,0,0,0,0,0c0,0,0,0,0,0l0.6,1.2c0,0,0,0,0,0l0.1,0.3c0.2,0.4,0.4,0.7,0.5,1.1l0,0.1   c0,0,0,0,0,0c0,0,0,0,0,0c0,0,0,0,0,0c0,0,0,0,0,0l0,0c0,0,0,0,0,0l0,0l0.1,0.1c0,0,0,0,0,0c0,0,0,0,0,0l0.6,1.1l0,0.1c0,0,0,0,0,0   c0.3,0.5,0.5,1,0.8,1.5c0,0,0,0,0,0c0,0,0,0,0,0l0.4,0.8l0,0c0,0,0,0,0,0l0,0c0,0,0,0,0,0c0,0,0,0,0,0.1l0.2,0.3c0,0,0,0,0,0   c0.3,0.5,0.6,1,0.8,1.5c0,0,0,0,0,0l0.1,0.2c0.1,0.2,0.2,0.3,0.3,0.5c-0.5,0.2-0.9,0.5-1.4,0.7c-15.3,6.3-39.5-7.9-66.3-38.9   c-28.8-33.4-57.2-82-79.8-137C54.1,237.5,40,183,37,139c-2.8-40.9,4.4-68,19.8-74.3c11.5-4.7,28.5,2.3,47.9,19.8   c20.8,18.8,42.6,47.8,63.3,84c1.9,3.4,6.2,4.5,9.5,2.6c3.4-1.9,4.5-6.2,2.6-9.5c-21.3-37.5-44.2-67.7-66-87.5   C90.1,52.5,68.4,44.7,51.4,51.7C29.8,60.6,19.7,91.9,23,139.9c3.1,45.5,17.6,101.5,40.7,157.8s52.3,106.3,82.1,140.8   c25.6,29.6,49.7,45.2,69.4,45.1c4.5,0,8.8-0.8,12.9-2.5c1.3-0.5,2.6-1.2,3.8-1.9c0.1,0.2,0.3,0.4,0.4,0.6c0,0,0,0,0,0l0.6,0.8   c0,0,0,0,0,0c0,0,0,0,0,0c0,0,0,0,0,0l0.1,0.1c0,0,0,0,0,0.1c0,0,0,0,0,0c0,0,0,0,0,0c0,0,0,0,0,0c0,0,0,0,0,0l0,0c0,0,0,0,0,0   c0,0.1,0.1,0.1,0.1,0.2c0.3,0.4,0.6,0.7,0.9,1.1c0,0,0,0,0,0.1c0,0,0,0,0,0c0,0,0,0,0,0l0,0c0,0,0,0,0,0c0,0,0,0,0,0l0.4,0.5   c0,0,0,0,0,0c0,0,0,0,0,0v0c0,0,0,0,0,0l0.4,0.5c0,0,0,0,0,0c0,0,0,0,0,0l0.4,0.5l0,0l0,0c0,0,0,0,0,0l0.2,0.2   c0.2,0.2,0.4,0.4,0.6,0.6c0,0,0,0,0.1,0.1c0,0,0,0,0,0c0.1,0.1,0.3,0.3,0.4,0.4l0.2,0.2c0,0,0,0,0,0l0,0c0,0,0,0,0,0l0.4,0.4   c0,0,0,0,0,0c0,0,0,0,0,0l0.3,0.4c0,0,0,0,0,0l0.4,0.4c0,0,0,0,0,0c0.2,0.2,0.4,0.4,0.6,0.6l0.1,0.1c0,0,0,0,0,0c0,0,0,0,0,0   c0,0,0,0,0,0c0.3,0.3,0.6,0.6,0.9,0.9c0,0,0,0,0,0l0,0c0,0,0,0,0,0l0,0l0.3,0.2c0,0,0,0,0,0c0,0,0,0,0,0l0,0c0,0,0,0,0,0l0,0   c0,0,0,0,0,0l0.5,0.5c0,0,0,0,0,0l0,0c0,0,0,0,0,0c0.4,0.4,0.8,0.7,1.2,1c0,0,0,0,0,0l0.1,0.1c0.1,0.1,0.3,0.2,0.4,0.3c0,0,0,0,0,0   c0,0,0,0,0,0c0,0,0.1,0.1,0.2,0.2c0,0,0,0,0,0c0,0,0,0,0,0c0,0,0,0,0,0c0.5,0.4,0.9,0.8,1.4,1.1c0,0,0,0,0,0c0,0,0,0,0,0   c0.1,0.1,0.2,0.1,0.3,0.2c0,0,0,0,0,0c0,0,0,0,0,0c0,0,0,0,0,0c0,0,0,0,0,0c0,0,0,0,0,0c0,0,0,0,0,0c0,0,0,0,0,0   c0.1,0.1,0.2,0.1,0.3,0.2c0,0,0,0,0,0l0,0c0,0,0,0,0,0l0.1,0c0,0,0,0,0,0c0,0,0,0,0,0l0.4,0.3c0,0,0,0,0,0l0.1,0.1   c0.3,0.3,0.7,0.5,1,0.7c0,0,0,0,0,0c0.2,0.1,0.3,0.2,0.5,0.3l0.1,0.1c0,0,0,0,0,0l0.1,0.1c0,0,0,0,0,0c0,0,0,0,0,0l0.5,0.3   c0,0,0,0,0,0c0,0,0,0,0,0c0.2,0.1,0.4,0.3,0.7,0.4c0,0,0,0,0,0c0,0,0,0,0,0c0,0,0,0,0,0c0.2,0.1,0.5,0.3,0.7,0.4c0,0,0,0,0,0   c0,0,0,0,0,0c0,0,0,0,0,0l0.1,0.1c0.3,0.2,0.5,0.3,0.8,0.4c0,0,0,0,0,0c0.1,0.1,0.2,0.1,0.4,0.2c0,0,0.1,0,0.1,0.1   c0.1,0.1,0.3,0.1,0.4,0.2c0,0,0,0,0,0c0.1,0,0.1,0.1,0.2,0.1c0,0,0.1,0,0.1,0c0.2,0.1,0.4,0.1,0.6,0.2c0.1,0,0.2,0.1,0.3,0.1   c0.2,0.1,0.5,0.1,0.7,0.1c0,0,0.1,0,0.1,0c0.3,0,0.6,0.1,0.9,0.1c2.4,0,4.7-1.2,6-3.4c1.8-3,1.1-6.8-1.5-8.9c0,0,0,0,0,0   c-0.1-0.1-0.3-0.2-0.4-0.3c0,0,0,0-0.1,0c0,0,0,0,0,0c-0.1,0-0.1-0.1-0.2-0.1c-0.1-0.1-0.2-0.1-0.3-0.2c0,0-0.1,0-0.1-0.1   c0,0,0,0,0,0c0,0-0.1,0-0.1-0.1c0,0,0,0,0,0c0,0,0,0,0,0c0,0,0,0,0,0c0,0,0,0,0,0c0,0,0,0,0,0c0,0,0,0,0,0l0,0   c-0.1-0.1-0.2-0.1-0.4-0.2l-0.2-0.1c0,0,0,0,0,0l0,0c-0.4-0.2-0.7-0.4-1.1-0.7l0,0c0,0,0,0,0,0c0,0,0,0,0,0   c-0.2-0.1-0.4-0.2-0.6-0.4c0,0,0,0,0,0c-0.4-0.3-0.8-0.5-1.2-0.8l0,0c0,0,0,0,0,0c0,0,0,0,0,0c0,0,0,0,0,0c0,0,0,0,0,0l0,0   c0,0,0,0,0,0c0,0,0,0,0,0l-0.5-0.4c0,0,0,0,0,0c0,0,0,0,0,0c0,0,0,0,0,0l0,0c-0.5-0.4-1-0.8-1.5-1.2c0,0-0.1,0-0.1-0.1c0,0,0,0,0,0   l-0.3-0.3c0,0,0,0,0,0l0,0c0,0,0,0,0,0c-0.5-0.4-0.9-0.8-1.4-1.2l0,0c0,0,0,0,0,0l-0.3-0.2l-0.3-0.3c0,0,0,0,0,0   c-0.4-0.4-0.8-0.8-1.2-1.2c0,0,0,0,0,0c0,0,0,0,0,0c0,0,0,0,0,0l0,0c-0.2-0.2-0.4-0.4-0.6-0.6c0,0,0,0,0,0   c-0.4-0.4-0.8-0.8-1.2-1.3l0,0c0,0,0,0,0,0c0,0,0,0,0,0c0,0,0,0,0,0c0,0,0,0,0,0c0,0,0,0,0,0l0,0c-0.2-0.2-0.4-0.4-0.5-0.6   c0,0,0,0,0,0c-0.4-0.5-0.9-1-1.3-1.5c0,0,0,0,0,0c0,0,0,0,0,0L244,472c0,0,0,0,0,0c0,0,0,0,0-0.1c0,0,0,0,0,0c0,0,0,0,0,0   c0,0,0,0,0,0c0,0,0,0,0,0l0,0c-0.5-0.6-1-1.3-1.5-1.9c0,0,0,0,0,0l-0.4-0.5c0,0,0,0,0,0c0,0,0,0,0,0c0,0,0,0,0,0   c-0.5-0.7-1-1.4-1.5-2.1c0,0,0,0,0,0l0,0l-0.5-0.7l0,0c0,0,0,0,0,0c-0.1-0.2-0.3-0.4-0.4-0.6l-0.2-0.4l-0.2-0.4   c-0.1-0.2-0.2-0.4-0.3-0.5c0,0,0,0,0,0l0,0c0,0,0,0,0,0l0,0c0,0,0,0,0,0c0,0,0,0,0,0l-0.5-0.8c0,0,0,0,0,0c0,0,0,0,0,0l0,0   c0,0,0,0,0,0c-0.4-0.7-0.8-1.3-1.2-2v0c0,0,0,0,0,0l-0.4-0.7c0,0,0,0,0,0c0,0,0,0,0,0c-0.5-0.8-1-1.7-1.5-2.6c0,0,0,0,0,0l-0.4-0.7   c0,0,0,0,0,0l0,0c0,0,0,0,0,0c-0.5-0.9-0.9-1.7-1.4-2.6c0,0,0,0,0,0l-0.1-0.2c0,0,0,0,0,0l-0.2-0.4l0-0.1c0,0,0,0,0,0l0,0   c-0.4-0.9-0.9-1.8-1.3-2.7l-0.4-0.9c0,0,0,0,0,0l0,0c0,0,0,0,0,0c-0.4-0.8-0.8-1.7-1.2-2.5l0-0.1c0,0,0,0,0,0l-0.4-0.9c0,0,0,0,0,0   c-0.4-1-0.9-2-1.3-3c0,0,0,0,0,0l-0.1-0.2l0,0c0,0,0,0,0,0c0,0,0,0,0,0l0,0c0,0,0,0,0,0l0,0l-0.3-0.7c0,0,0,0,0,0l0-0.1   c-0.4-1-0.8-1.9-1.2-2.9c0,0,0,0,0,0l-0.3-0.7c0,0,0,0,0,0c-0.5-1.2-0.9-2.4-1.4-3.6c0,0,0,0,0,0c0,0,0,0,0,0c0,0,0,0,0,0   c0,0,0,0,0,0l-0.1-0.3c0,0,0,0,0,0l0,0c0,0,0,0,0,0l0-0.1l-0.1-0.4c0,0,0,0,0,0c-0.4-1-0.8-2.1-1.2-3.2c0,0,0,0,0,0c0,0,0,0,0,0   l-0.1-0.2c0,0,0,0,0,0l0-0.1l-0.2-0.7c0,0,0,0,0,0l0,0c0,0,0,0,0,0c-0.4-1.1-0.8-2.2-1.2-3.3c0,0,0,0,0,0l-0.2-0.7l-0.1-0.3l0-0.1   c0,0,0,0,0,0c-0.3-1-0.6-1.9-1-2.9c0,0,0,0,0,0l-0.2-0.6c0,0,0,0,0,0l-0.3-0.8c0,0,0-0.1,0-0.1c0,0,0,0,0,0l0-0.1   c-0.4-1.3-0.8-2.5-1.2-3.8c0-0.1-0.1-0.2-0.1-0.3l-0.1-0.4c0,0,0,0,0,0c-0.4-1.3-0.8-2.6-1.1-3.8c0,0,0,0,0,0l0,0c0,0,0,0,0,0   l0-0.1l-0.2-0.6l0,0l-0.1-0.2l0-0.1c0,0,0,0,0,0c-0.4-1.3-0.7-2.5-1.1-3.8l0,0c0,0,0,0,0,0l0,0l0,0c0,0,0,0,0,0l-0.2-0.9l0,0   c0,0,0,0,0,0c-0.4-1.3-0.7-2.7-1-4l0,0c0,0,0,0,0,0c0,0,0,0,0,0c0,0,0,0,0,0l0,0l-0.2-1l0-0.1c0,0,0,0,0,0l-0.2-1c0,0,0,0,0,0   c0,0,0,0,0,0l-0.3-1.2c0,0,0,0,0,0c0,0,0,0,0,0c-0.4-1.8-0.9-3.6-1.3-5.5c0,0,0,0,0,0l-0.1-0.6c0,0,0,0,0,0c-0.1-0.7-0.3-1.3-0.4-2   l-0.1-0.6c0,0,0,0,0,0l-0.3-1.4c0,0,0,0,0,0c0,0,0,0,0,0c-0.2-0.8-0.4-1.7-0.5-2.5c0,0,0,0,0,0L211,387c0,0,0,0,0,0c0,0,0,0,0,0   c-0.2-0.9-0.4-1.7-0.5-2.6c0,0,0,0,0,0c0,0,0,0,0,0l-0.3-1.4c0,0,0,0,0,0l0-0.1l-0.1-0.3c-0.2-0.8-0.3-1.5-0.5-2.3c0,0,0,0,0,0   l-0.2-0.9c0,0,0,0,0,0c-0.4-2.1-0.8-4.3-1.2-6.5c0,0,0,0,0,0c0,0,0,0,0,0l-0.1-0.5c0,0,0,0,0,0c0,0,0,0,0,0c-0.2-1-0.3-1.9-0.5-2.9   c0,0,0,0,0,0c0,0,0,0,0,0l-0.2-1.4c0,0,0,0,0,0c-0.2-0.9-0.3-1.9-0.5-2.8c0,0,0,0,0,0c0,0,0,0,0,0l-0.2-1.5c0,0,0,0,0,0   c-0.1-1-0.3-1.9-0.4-2.9c0,0,0,0,0,0c0,0,0,0,0,0l-0.2-1.4c0,0,0,0,0,0c-0.1-1-0.3-2-0.4-3c0,0,0,0,0,0l-0.1-0.5c0,0,0,0,0,0   c-0.3-2.4-0.6-4.8-0.9-7.2c0,0,0,0,0,0c0,0,0,0,0,0l-0.1-0.7c0,0,0,0,0,0c0,0,0,0,0,0c-0.1-1-0.3-2.1-0.4-3.1c0,0,0,0,0,0l-0.2-1.4   c0,0,0,0,0,0c-0.1-1-0.2-2-0.3-3c0,0,0,0,0,0l-0.2-1.5c0,0,0,0,0,0c-0.1-1-0.2-2-0.3-3c0,0,0,0,0,0l-0.1-1.4c0-0.4-0.1-0.8-0.1-1.3   l16.5-32.9l10.5-21l33.9-67.9c0.9-1.8,2.5-2,3.2-2c0.7,0,2.3,0.2,3.2,2l25,50c1.7,3.5,5.9,4.9,9.4,3.1c3.5-1.7,4.9-5.9,3.1-9.4   l-25-50c-3-6-9-9.7-15.7-9.7c-6.7,0-12.7,3.7-15.7,9.7L217.4,273L207,294l-6,11.9c-0.6-11.2-0.9-22.5-0.9-34   c0-9.9,0.2-19.9,0.7-29.8c0,0,0,0,0,0c0.5-11.3,1.3-22.5,2.4-33.4c0,0,0,0,0,0c4.4-44,13.6-83.4,25.8-111   c11.5-26.1,25.1-40.5,38.1-40.5c20.9,0,42.4,37,55,94.5c-5.2,32.7-7.8,67.7-7.8,104.1c0,15.1,0.5,30.3,1.4,45.1c0,0,0,0,0,0   c1.4,22,3.8,43.3,7.1,63.3l-37.3-74.5c-3-6-9-9.7-15.7-9.7s-12.7,3.7-15.7,9.7l-20.3,40.5l-14.2,28.4c-1.7,3.5-0.3,7.7,3.1,9.4   c1,0.5,2.1,0.7,3.1,0.7c2.6,0,5-1.4,6.3-3.9l14.2-28.4l20.3-40.5c0.9-1.8,2.5-2,3.2-2s2.3,0.2,3.2,2l48.8,97.5   c0,0.2-0.1,0.4-0.1,0.6c0,0.1,0,0.2-0.1,0.3c0,0,0,0,0,0l0,0c0,0,0,0,0,0l-0.3,1.3c0,0,0,0,0,0l0,0c-0.2,0.7-0.3,1.3-0.5,2   c0,0,0,0,0,0l0,0c0,0,0,0,0,0l-0.1,0.3l-0.2,1c0,0,0,0,0,0l0,0c0,0,0,0,0,0l-0.5,2c0,0,0,0,0,0l0,0.1l-0.3,1.1c0,0,0,0,0,0.1l0,0   c0,0,0,0,0,0c0,0,0,0,0,0l-0.1,0.5c-0.1,0.5-0.3,1.1-0.4,1.6l0,0.2c0,0,0,0,0,0c0,0,0,0,0,0l-0.3,1.2c0,0,0,0,0,0l0,0c0,0,0,0,0,0   l0,0l-0.1,0.5c0,0,0,0,0,0c0,0,0,0,0,0c-0.2,0.6-0.3,1.3-0.5,1.9c0,0,0,0,0,0c0,0,0,0,0,0l-0.4,1.5c0,0,0,0,0,0l0,0l-0.5,1.7l0,0   c0,0,0,0,0,0l0,0.2l-0.1,0.2l0,0.1c0,0,0,0,0,0l0,0.1l-0.4,1.3c0,0,0,0,0,0l-0.6,1.9c0,0,0,0,0,0l0,0c0,0,0,0,0,0c0,0,0,0,0,0   l-0.3,0.9c0,0,0,0,0,0l0,0c0,0,0,0,0,0l0,0l-0.1,0.3c0,0,0,0,0,0c0,0,0,0,0,0l-0.5,1.6c0,0,0,0,0,0c0,0,0,0,0,0c0,0,0,0,0,0   l-0.3,1.1c0,0,0,0,0,0c0,0,0,0,0,0l-0.4,1.2l0,0.1c0,0,0,0,0,0l-0.1,0.3l-0.3,0.9c0,0,0,0,0,0c0,0,0,0,0,0l0,0c0,0,0,0,0,0   l-0.1,0.3c0,0,0,0,0,0l-0.1,0.2c-0.2,0.5-0.3,1.1-0.5,1.6l0,0.1c0,0,0,0,0,0l0,0l-0.5,1.4c0,0,0,0,0,0l0,0.1c0,0,0,0,0,0l0,0.1   c0,0,0,0,0,0c0,0,0,0,0,0l0,0c0,0,0,0,0,0c0,0,0,0,0,0l-0.1,0.2c-0.2,0.5-0.3,1-0.5,1.5c0,0,0,0,0,0c0,0,0,0,0,0c0,0,0,0,0,0   c0,0,0,0,0,0.1c-0.2,0.5-0.3,0.9-0.5,1.4l0,0c0,0,0,0,0,0c0,0,0,0,0,0c0,0,0,0,0,0c0,0,0,0,0,0c-0.2,0.5-0.3,1-0.5,1.4l0,0   c0,0,0,0,0,0l-0.2,0.5c0,0,0,0,0,0c0,0,0,0,0,0c-0.2,0.4-0.3,0.9-0.5,1.3c0,0,0,0,0,0c0,0,0,0,0,0l-0.5,1.5c0,0,0,0,0,0l-0.1,0.2   c0,0,0,0,0,0l0,0c0,0,0,0,0,0l0,0l0,0c0,0,0,0,0,0c0,0,0,0,0,0l0,0c0,0,0,0,0,0c-0.3,0.7-0.5,1.4-0.8,2.1c0,0,0,0,0,0c0,0,0,0,0,0   l-0.1,0.4c0,0,0,0,0,0l0,0c0,0,0,0,0,0c0,0,0,0,0,0l-0.4,0.9c0,0,0,0,0,0l0,0.1l-0.3,0.8c0,0,0,0,0,0c0,0,0,0,0,0l0,0c0,0,0,0,0,0   l0,0.1l-0.4,1.1l0,0.1c0,0,0,0,0,0l0,0l-0.1,0.3c0,0,0,0,0,0c0,0,0,0,0,0l0,0c0,0,0,0,0,0l-0.6,1.4c0,0,0,0,0,0   c-0.2,0.5-0.4,1-0.6,1.5c0,0,0,0,0,0c-0.2,0.5-0.4,1-0.6,1.5c0,0,0,0,0,0c-0.2,0.5-0.4,0.9-0.6,1.4l0,0c0,0,0,0,0,0c0,0,0,0,0,0   c0,0,0,0,0,0c0,0,0,0,0,0c-0.2,0.4-0.4,0.8-0.5,1.2l0,0c0,0,0,0,0,0l-0.1,0.3c0,0,0,0,0,0c0,0,0,0,0,0l0,0c0,0,0,0,0,0   c-0.2,0.4-0.3,0.8-0.5,1.1l0,0.1l0,0.1c0,0,0,0,0,0l0,0.1l-0.3,0.7c0,0,0,0,0,0l0,0c0,0,0,0,0,0l0,0l-0.2,0.5c0,0,0,0,0,0   c0,0,0,0,0,0c0,0,0,0,0,0c-0.4,0.8-0.7,1.5-1.1,2.3c0,0,0,0,0,0l-0.3,0.5c0,0,0,0,0,0l0,0c0,0,0,0,0,0c0,0,0,0,0,0l-0.3,0.6   c0,0,0,0,0,0l0,0c0,0,0,0,0,0l0,0.1c-0.2,0.4-0.4,0.9-0.7,1.3c0,0,0,0,0,0c0,0,0,0,0,0c0,0,0,0,0,0l-0.1,0.2c0,0,0,0,0,0l0,0   l-0.5,1c0,0,0,0,0,0c0,0,0,0,0,0c-0.2,0.5-0.5,0.9-0.7,1.3c0,0,0,0,0,0l0,0l0,0c0,0,0,0,0,0c-0.2,0.4-0.4,0.7-0.6,1c0,0,0,0,0,0   c0,0,0,0,0,0c0,0,0,0,0,0c0,0,0,0,0,0c0,0,0,0,0,0c-0.2,0.4-0.5,0.9-0.7,1.3l0,0c0,0,0,0,0,0l0,0l-0.1,0.1   c-0.2,0.3-0.3,0.6-0.5,0.9c0,0,0,0,0,0c0,0,0,0,0,0c0,0,0,0,0,0c0,0,0,0,0,0c-0.3,0.5-0.6,1-0.9,1.4c0,0,0,0,0,0l0,0.1l-0.2,0.4   c0,0,0,0,0,0c0,0,0,0,0,0l0,0c0,0,0,0,0,0l-0.3,0.5c0,0,0,0,0,0c-0.4,0.6-0.8,1.3-1.2,1.9c0,0,0,0,0,0l-0.5,0.7l0,0c0,0,0,0,0,0   c-0.3,0.4-0.6,0.9-0.9,1.3c0,0,0,0,0,0l0,0c0,0,0,0,0,0c0,0,0,0,0,0l0,0c0,0,0,0,0,0c0,0,0,0,0,0l0,0l-0.5,0.7l0,0c0,0,0,0,0,0l0,0   l0,0c0,0,0,0,0,0c-0.3,0.4-0.5,0.8-0.8,1.1c0,0,0,0,0,0l-0.6,0.8c0,0,0,0,0,0c-0.3,0.4-0.5,0.7-0.8,1.1l0,0c0,0,0,0,0,0   c0,0,0,0,0,0l0,0c0,0,0,0,0,0l0,0l-0.5,0.7c0,0,0,0,0,0c0,0,0,0,0,0c-0.3,0.4-0.7,0.8-1,1.2c0,0,0,0,0,0c0,0,0,0,0,0l-0.1,0.1   l-0.1,0.2l-0.3,0.4c0,0,0,0,0,0c-0.4,0.5-0.8,0.9-1.2,1.4c0,0,0,0,0,0l0,0l0,0c0,0,0,0,0,0l0,0l-0.4,0.4c0,0,0,0,0,0l0,0   c-0.3,0.3-0.6,0.7-1,1c0,0,0,0,0,0c0,0,0,0,0,0l-0.5,0.5l0,0c0,0,0,0,0,0l0,0l0,0c0,0,0,0,0,0c-0.3,0.3-0.6,0.6-0.9,0.8   c0,0,0,0,0,0l0,0c-0.2,0.2-0.4,0.3-0.5,0.5c0,0,0,0,0,0c0,0,0,0,0,0c-0.3,0.3-0.6,0.5-0.9,0.8l0,0c0,0,0,0,0,0l-0.5,0.4   c0,0,0,0,0,0c-0.4,0.3-0.8,0.6-1.1,0.9c0,0,0,0,0,0c0,0,0,0,0,0c0,0,0,0,0,0c0,0-0.1,0-0.1,0.1c0,0,0,0,0,0c0,0,0,0,0,0   c0,0,0,0,0,0l-0.2,0.2c0,0,0,0,0,0l0,0c0,0,0,0,0,0c0,0,0,0,0,0l-0.1,0c0,0,0,0,0,0c-0.3,0.2-0.5,0.4-0.8,0.6   c-3.1,2.2-3.9,6.6-1.6,9.8c1.4,1.9,3.5,2.9,5.7,2.9c1.4,0,2.8-0.4,4.1-1.3c0.4-0.3,0.7-0.5,1.1-0.8c0,0,0,0,0,0c0,0,0,0,0,0   l0.3-0.2c0,0,0,0,0,0l0,0c0,0,0,0,0,0c0,0,0,0,0,0l0.2-0.1c0,0,0,0,0,0c0,0,0,0,0,0c0,0,0,0,0,0c0,0,0,0,0,0c0,0,0,0,0.1-0.1   c0.2-0.2,0.5-0.4,0.7-0.6c0.1-0.1,0.3-0.2,0.4-0.3c0,0,0,0,0,0l0,0c0,0,0,0,0,0c0,0,0,0,0,0c0,0,0,0,0,0c0,0,0,0,0,0   c0,0,0.1-0.1,0.2-0.1c0,0,0,0,0,0c0,0,0,0,0,0l0,0l0.2-0.2c0,0,0,0,0,0c0,0,0,0,0,0l0,0c0,0,0,0,0,0c0,0,0,0,0,0l0.4-0.3   c0,0,0,0,0,0c0,0,0,0,0,0l0,0c0.2-0.2,0.5-0.4,0.7-0.6c0,0,0.1-0.1,0.1-0.1c0,0,0,0,0,0l0.4-0.4c0,0,0,0,0,0c0,0,0,0,0,0   c0,0,0,0,0,0l0.1-0.1c0,0,0,0,0,0c0,0,0,0,0,0l0.3-0.3c0,0,0,0,0,0c0,0,0,0,0,0c0,0,0,0,0,0l0.5-0.5c0,0,0,0,0,0l0.5-0.4   c0,0,0,0,0,0c0.2-0.2,0.4-0.4,0.6-0.6l0,0c0,0,0,0,0,0c0,0,0,0,0,0c0,0,0,0,0,0l0,0c0,0,0,0,0,0c0,0,0,0,0,0l0.4-0.4c0,0,0,0,0,0   l0,0l0,0c0,0,0,0,0,0c0,0,0,0,0,0c0,0,0,0,0,0c0,0,0.1-0.1,0.1-0.1c0,0,0,0,0,0l0.2-0.2c0,0,0,0,0,0c0,0,0,0,0,0l0,0c0,0,0,0,0,0   c0.2-0.2,0.4-0.4,0.6-0.6l0,0c0.2-0.2,0.4-0.4,0.6-0.6c0,0,0,0,0,0c0,0,0,0,0,0l0.2-0.2c0,0,0,0,0,0c0,0,0,0,0,0c0,0,0,0,0,0   l0.4-0.4c0.3-0.4,0.7-0.7,1-1.1c0,0,0,0,0,0c0,0,0,0,0.1-0.1c0,0,0,0,0,0l0.2-0.2l0.1-0.1c0,0,0,0,0,0l0,0c0,0,0,0,0,0c0,0,0,0,0,0   l0.1-0.1l0.1-0.2c0,0,0,0,0,0l0,0c0,0,0,0,0,0c0,0,0,0,0,0c0,0,0,0,0,0l0-0.1c0.2-0.3,0.5-0.6,0.7-0.9c0-0.1,0.1-0.1,0.1-0.2   c0,0,0,0,0,0l0.4-0.4c0,0,0,0,0,0c0,0,0,0,0,0l0,0c0,0,0,0,0,0c0,0,0,0,0,0c0,0,0,0,0,0l0.1-0.2l0,0c0,0,0,0,0,0c0,0,0,0,0,0   c0,0,0,0,0,0l0.3-0.4c0,0,0,0,0,0c0,0,0,0,0,0l0.1-0.2c0.2-0.3,0.4-0.5,0.6-0.8c0,0,0,0,0,0c0,0,0,0,0,0l0.3-0.4l0.1-0.2   c0,0,0,0,0,0c0,0,0,0,0,0l0-0.1c0,0,0,0,0,0c0,0,0,0,0,0l0.4-0.6c0,0,0,0,0,0c0,0,0,0,0,0l0.4-0.6c0,0,0,0,0,0c0,0,0,0,0,0l0.4-0.6   c0,0,0,0,0,0c0,0,0,0,0,0l0.6-0.8c0,0,0,0,0,0l0.1-0.1l0.3-0.5c0,0,0,0,0,0c0,0,0,0,0,0c0,0,0,0,0,0l0.3-0.5l0,0c0,0,0,0,0,0l0,0   c0,0,0,0,0,0c0.3-0.4,0.6-0.8,0.8-1.3l0,0v0c0,0,0,0,0,0c0,0,0,0,0,0l0,0l0,0c0,0,0,0,0,0l0.3-0.5c0,0,0,0,0,0l0,0c0,0,0,0,0,0   c0,0,0,0,0,0c0,0,0,0,0,0l0,0c0,0,0,0,0,0c0,0,0,0,0,0l0.1-0.2c0,0,0,0,0,0c0.4-0.6,0.7-1.2,1.1-1.7c0,0,0,0,0,0l0.2-0.3   c0,0,0,0,0,0l0,0c0,0,0,0,0,0l0.3-0.5c0,0,0,0,0,0c0.2-0.4,0.5-0.8,0.7-1.2c0,0,0,0,0,0l0,0l0,0c0,0,0,0,0,0l0.4-0.7c0,0,0,0,0,0   c0,0,0,0,0,0l0,0c0,0,0,0,0,0c0,0,0,0,0,0c0,0,0,0,0,0c0,0,0,0,0,0l0,0c0,0,0,0,0,0c0,0,0,0,0,0l0.4-0.6c0,0,0,0,0,0l0.1-0.1   l0.5-0.8c0,0,0,0,0,0l0,0c0,0,0,0,0,0l0.2-0.4c0,0,0,0,0,0c0,0,0,0,0,0l0.3-0.6c0,0,0,0,0,0c0,0,0,0,0,0l0,0c0,0,0,0,0,0l0.5-0.8   c0,0,0,0,0,0l0,0l0.3-0.6c0,0,0,0,0,0l0,0c0,0,0,0,0,0c0,0,0,0,0,0l0.4-0.7c0,0,0,0,0,0l0-0.1l0.5-0.9c0,0,0,0,0,0l0.1-0.2l0.2-0.4   c0,0,0,0,0,0c0,0,0,0,0,0l0.4-0.7c0,0,0,0,0,0l0.3-0.5c0.1-0.3,0.3-0.5,0.4-0.8c0,0,0,0,0,0l0,0c0,0,0,0,0,0l0.4-0.8c0,0,0,0,0,0   c0,0,0,0,0,0l0.1-0.2c0,0,0,0,0,0c0,0,0,0,0,0c0,0,0-0.1,0-0.1c0,0,0,0,0,0c0.3-0.7,0.7-1.4,1-2.1c0,0,0,0,0,0l0,0c0,0,0,0,0,0l0,0   c0,0,0,0,0,0v0l0.1-0.2c0,0,0,0,0,0c0,0,0,0,0,0l0,0c0,0,0,0,0,0l0,0l0,0c0,0,0,0,0,0l0.4-0.9c0,0,0,0,0,0l0,0l0,0c0,0,0,0,0,0   l0.1-0.1c0.1-0.2,0.2-0.5,0.3-0.7l0.2-0.5c0,0,0,0,0,0l0.3-0.7l0,0c0,0,0,0,0,0l0,0c0,0,0,0,0,0c0,0,0,0,0,0l0.3-0.8c0,0,0,0,0,0   c0,0,0,0,0,0l0,0c0,0,0,0,0,0l0.5-1c0,0,0,0,0,0l0,0c0,0,0,0,0,0l0.3-0.8c0,0,0,0,0,0l0,0c0,0,0,0,0,0l0.3-0.7c0,0,0,0,0,0   c0,0,0,0,0,0l0.5-1.2c0,0,0,0,0,0l0,0l0.2-0.5l0-0.1c0,0,0,0,0,0l0.3-0.7c0,0,0,0,0,0l0.3-0.7l0-0.1l0,0c0,0,0,0,0,0l0.3-0.8   l0.2-0.5c0,0,0,0,0,0c0,0,0,0,0,0l0,0c0,0,0,0,0,0l0,0l0,0c0,0,0,0,0,0l0.4-0.9c0,0,0,0,0,0l0.1-0.2l0.4-1.1l0-0.1l0.1-0.3   c0,0,0,0,0,0l0.4-1c0,0,0,0,0,0l0,0l0,0c0,0,0,0,0,0c0,0,0,0,0,0c0,0,0,0,0,0c0,0,0,0,0,0l0.1-0.3l0-0.1c0,0,0,0,0,0c0,0,0,0,0,0   c0,0,0,0,0,0c0.2-0.6,0.4-1.2,0.7-1.8c0,0,0,0,0,0l0,0c0.1-0.1,0.1-0.3,0.2-0.4c0,0,0,0,0,0l0,0c0,0,0,0,0,0c0,0,0,0,0,0   c0,0,0,0,0,0l0-0.1l0.1-0.2c0,0,0,0,0,0l0.1-0.2l0.3-0.8c0,0,0,0,0,0l0-0.1l0.5-1.3c0,0,0,0,0,0l0,0c0,0,0,0,0,0l0-0.1l0.2-0.6   c0,0,0,0,0,0l0,0c0,0,0,0,0,0l0.1-0.2l0.3-0.9c0,0,0,0,0,0l0,0l0.3-0.9c0,0,0,0,0,0l0.4-1.1c0,0,0,0,0,0l0-0.1l0.2-0.5l0-0.1   c0,0,0,0,0,0l0.5-1.5l0.2-0.7c0,0,0,0,0,0c0,0,0,0,0,0l0.4-1.1c0,0,0,0,0,0l0,0c0,0,0,0,0,0c0,0,0,0,0-0.1l0.5-1.6c0,0,0,0,0,0   c0,0,0,0,0,0l0.3-1c0,0,0,0,0,0l0-0.1l0.5-1.5c0,0,0,0,0,0c0,0,0,0,0,0c0,0,0,0,0,0l0.1-0.3c0,0,0,0,0,0l0,0c0,0,0,0,0,0   c0.1-0.4,0.3-0.9,0.4-1.3l0,0c0,0,0,0,0,0l0.1-0.3c0.1-0.4,0.3-0.9,0.4-1.3c0,0,0,0,0,0l0,0c0,0,0,0,0,0l0.1-0.2c0,0,0,0,0,0   c0,0,0,0,0,0c0,0,0,0,0,0c0,0,0,0,0,0l0,0c0,0,0,0,0,0l0,0l0.2-0.8c0,0,0,0,0,0c0,0,0,0,0,0l0.5-1.7v0l0,0c0,0,0,0,0,0l0.4-1.4   c0,0,0,0,0,0l0.1-0.4l0-0.2c0,0,0-0.1,0-0.1c0,0,0,0,0,0c0,0,0,0,0,0l0.5-1.7c0,0,0,0,0,0l0.1-0.3l0.1-0.3c0,0,0,0,0,0l0,0l0.1-0.3   c0,0,0,0,0,0l0.2-0.6l0.2-0.7c0,0,0,0,0,0c0,0,0-0.1,0-0.1c0,0,0,0,0,0c0,0,0,0,0,0c0,0,0,0,0,0c0,0,0,0,0,0   c0.2-0.6,0.3-1.3,0.5-1.9l0-0.2c0,0,0,0,0,0c0,0,0,0,0,0c0,0,0,0,0,0l0-0.1l0-0.2c6.3,23.3,14,43.2,22.7,58.5   c17.2,30.3,35,36.7,46.9,36.7c17.7,0,34.3-13.5,48.2-39.1l15.7,5.6c1.6,0.6,3.2,0.9,4.9,0.9c3.8,0,7.5-1.5,10.3-4.4   c3.9-4.1,5.1-10,2.9-15.3l-15.4-37.6l-53.7-131.2c-2.6-6.3-9.1-9.8-15.8-8.5c-6.7,1.3-11.4,7-11.4,13.9v72c0,3.9,3.1,7,7,7   s7-3.1,7-7v-72c0,0,0-0.1,0-0.1c0.1,0,0.1,0,0.2,0c0,0,0,0.1,0,0.1l53.7,131.2l15.4,37.6c0,0.1,0.1,0.2-0.1,0.3   c-0.1,0.1-0.2,0.1-0.3,0.1l-21.4-7.6l-42-15c-3.3-1.2-5.6-4.4-5.6-7.9v-32.3c0-3.9-3.1-7-7-7s-7,3.1-7,7v32.3   c0,9.5,6,17.9,14.9,21.1l34.3,12.2c-10.9,19.4-23.2,29.9-34.9,29.9c-24.7,0-49.3-44.9-62.8-114.4c0,0,0,0,0,0c0,0,0,0,0-0.1   c0,0,0,0,0,0c0,0,0,0,0,0c-4.6-23.5-7.7-49-9.4-75.7c0,0,0,0,0,0c-0.9-14.5-1.4-29.4-1.4-44.2c0-36.2,2.6-70.9,7.8-103.2   c12.6-78.5,39-131.2,65.8-131.2c18,0,36.4,24,50.4,65.9c15,44.9,23.3,104.8,23.3,168.5c0,40.2-3.4,79.9-9.8,114.9   c-0.7,3.8,1.8,7.5,5.6,8.1c0.4,0.1,0.9,0.1,1.3,0.1c3.3,0,6.3-2.4,6.9-5.7c6.6-35.8,10-76.4,10-117.4c0-65.2-8.5-126.7-24-173   C449.4,34.4,426.8,7.5,402,7.5z"></path></g></svg>