<?xml version="1.0" encoding="utf-8"?>
<!-- Generator: Adobe Illustrator 24.2.1, SVG Export Plug-In . SVG Version: 6.00 Build 0)  -->
<svg version="1.1" id="Layer_1" xmlns="http://www.w3.org/2000/svg" xmlns:xlink="http://www.w3.org/1999/xlink" x="0px" y="0px"
	 viewBox="0 0 100 100" enable-background="new 0 0 100 100" xml:space="preserve">
<g>
	<path fill-rule="evenodd" clip-rule="evenodd" d="M47.059,19.457l-4.525,12.67l9.955-1.357v2.715l-9.955-0.452l7.692,15.385
		l5.882-8.145l1.81,1.81l-7.24,6.787l16.29,5.43l-1.81-9.502l2.715-0.452l-0.452,9.955l15.837-7.692l-8.145-5.43l1.81-2.262
		l6.335,7.24l5.882-16.29l-9.502,1.81l-0.452-2.715l9.955,0.452l-7.692-15.385l-5.882,8.145l-1.81-1.81l7.24-6.787l-16.29-5.43
		l1.81,9.502L63.801,18.1l0.452-9.955l-12.217,5.882L47.059,19.457z M56.561,23.077l2.715,4.525h-5.43l4.525,3.167l-4.977,1.81
		l5.43,0.905l-3.62,4.072l5.43-1.357l-1.81,5.43l4.072-3.62l0.452,5.43l2.715-4.977l2.715,4.977l0.452-5.43l4.525,3.167
		l-2.262-4.977l5.43,1.357l-3.62-4.072l5.43-1.357l-5.43-1.81l4.525-3.167h-5.43l2.715-4.525l-4.977,2.262l0.905-5.43l-3.62,4.525
		l-1.81-5.43l-1.357,5.43l-3.62-4.072l0.905,5.43L56.561,23.077z M55.204,23.529l-5.882-6.335c0.452,0,0.452-0.452,0.905-0.452
		l6.787,4.525L55.204,23.529z"/>
	<path d="M87.33,47.059c33.484,44.344-2.715,72.398-56.561,24.887S0.452-14.932,48.416,12.67l-2.262,1.357l-4.525,14.027
		C0,1.357-11.765,24.434,35.747,66.516c47.964,42.081,70.588,27.602,37.557-10.86l13.122-6.335L87.33,47.059z"/>
</g>
</svg>
