<?xml version="1.0" encoding="utf-8"?>
<!-- Generator: Adobe Illustrator 24.2.1, SVG Export Plug-In . SVG Version: 6.00 Build 0)  -->
<svg version="1.1" id="Layer_1" xmlns="http://www.w3.org/2000/svg" xmlns:xlink="http://www.w3.org/1999/xlink" x="0px" y="0px"
	 viewBox="0 0 100 100" enable-background="new 0 0 100 100" xml:space="preserve">
<g>
	<path fill-rule="evenodd" clip-rule="evenodd" d="M3.021,49.271l6.042-16.979c-0.104,0.625-0.208,1.25-0.208,1.979
		c0,5.729,4.271,10.833,11.042,14.375c5.417,2.813,12.5,4.688,20.417,5.208v0.104c0.104,0.938,0.313,1.875,0.521,2.708
		c0.313,0.938,0.625,1.771,1.042,2.604s0.938,1.563,1.458,2.292c1.458,1.875,3.333,3.333,5.521,4.167
		c0.417,0.104,0.938,0.313,1.354,0.417c-0.208,0.313-0.417,0.729-0.521,1.042c-0.521,1.146-1.042,2.396-1.354,3.646l0,0
		c-0.313,1.146-0.417,2.396-0.417,3.542c0.104,1.25,0.313,2.5,0.833,3.646c-1.25,0.104-2.708,0.104-4.062,0.104
		c-11.875,0-22.187-2.5-29.583-6.458c-8.125-4.375-12.917-10.521-12.917-17.5c0-0.833,0.104-1.667,0.208-2.5
		c0.104-0.833,0.312-1.563,0.625-2.292V49.271z M52.083,68.125c0.833-1.875,2.083-3.542,3.021-4.792
		c-3.958,1.146-7.396-0.521-9.688-3.438c-0.938-1.25-1.667-2.604-2.083-4.063c-0.417-1.458-0.625-3.021-0.521-4.479
		c0.313-3.438,2.292-6.563,6.458-7.708c1.563-0.729,3.437-0.104,5.104,1.25c-0.208-0.729-0.313-1.563-0.417-2.396
		c-0.104-1.563,0.104-3.125,0.625-4.479c1.146-3.229,3.854-5.833,8.125-5.833c1.979-0.417,3.854,1.042,5.208,3.333
		c0.521,1.042,1.042,2.187,1.458,3.437c0.104,0.521,0.313,1.146,0.417,1.771c0.104-0.625,0.208-1.146,0.417-1.771
		c0.417-1.25,0.833-2.396,1.458-3.437c1.354-2.292,3.125-3.75,5.208-3.333c4.271,0.104,6.979,2.604,8.125,5.833
		c0.521,1.458,0.729,2.917,0.625,4.479c0,0.625-0.104,1.25-0.208,1.979c1.563-1.771,3.333-2.604,5.104-2.083
		c4.271,0.729,6.563,3.542,7.292,6.875c0.313,1.458,0.313,3.021,0,4.583c-0.313,1.458-0.833,3.021-1.563,4.271
		c-1.979,3.229-5.313,5.313-9.583,4.479c-0.104,0-0.208-0.104-0.417-0.104c1.042,1.146,2.604,3.333,3.75,5.625
		c0.938,1.875,1.563,3.958,1.458,6.042c-0.104,2.292-1.042,4.479-3.438,6.146c-1.458,1.042-3.438,1.771-6.146,2.188
		c-2.708,0.417-5.312,0.313-8.021,0.104C72.917,82.5,71.875,82.5,71.042,82.5c-0.833,0-1.771,0.104-2.813,0.104
		c-2.708,0.104-5.312,0.313-8.021-0.104c-2.604-0.417-4.688-1.25-6.146-2.188c-2.396-1.667-3.333-3.854-3.438-6.146
		C50.521,72.083,51.146,70,52.083,68.125L52.083,68.125z M59.583,56.146c0.521-0.729,1.146-1.354,1.771-1.979
		c0.625-0.625,1.25-1.042,1.979-1.458c-1.875,0-3.438-0.521-4.792-1.354c0.104,0.417,0.208,0.729,0.417,1.042
		C59.375,53.646,59.583,54.896,59.583,56.146L59.583,56.146z M67.083,51.25c1.146-0.208,2.396-0.417,3.854-0.417h0.104
		c0.313,0,0.729,0,0.938,0c-1.146-1.146-1.875-2.604-2.292-4.271C69.375,48.438,68.437,50,67.083,51.25L67.083,51.25z M78.229,52.5
		c0.833,0.521,1.667,1.042,2.292,1.771c0.313,0.313,0.625,0.625,0.938,0.938c0-0.938,0.104-1.979,0.208-2.917
		c0.104-0.625,0.313-1.25,0.417-1.875C81.042,51.354,79.792,52.083,78.229,52.5L78.229,52.5z M44.688,17.083
		c15.208,0,28.125,5.313,32.083,12.5c-1.458-0.104-2.813,0.208-4.063,1.042c-1.146,0.729-2.083,1.771-2.917,3.125
		c-0.833-1.25-1.771-2.396-2.917-3.125c-1.354-0.833-2.813-1.25-4.375-0.938c-2.5,0.104-4.583,0.833-6.146,2.083
		c-1.875,1.354-3.229,3.333-3.958,5.521c-0.312,0.833-0.521,1.771-0.625,2.708c-0.104,0.313-0.104,0.729-0.104,1.042
		c-1.042-0.104-2.083,0-3.125,0.417c-2.396,0.729-4.271,1.875-5.521,3.438c-1.458,1.771-2.292,3.958-2.5,6.25v0.208
		c-16.354-1.042-29.062-8.333-29.062-17.083C11.354,24.792,26.25,17.083,44.688,17.083L44.688,17.083z"/>
</g>
</svg>
