<svg height='100px' width='100px'  fill="#000000" xmlns="http://www.w3.org/2000/svg" xmlns:xlink="http://www.w3.org/1999/xlink" version="1.1" x="0px" y="0px" viewBox="0 0 512 512" style="enable-background:new 0 0 512 512;" xml:space="preserve"><g><g><g><path d="M404.229,451.781H168.556c-2,0-3.624-1.621-3.624-3.623v-75.304c0-5.714,1.142-11.27,3.395-16.513     c2.171-5.054,5.274-9.596,9.223-13.502c3.947-3.905,8.536-6.972,13.64-9.116c5.292-2.225,10.899-3.352,16.668-3.352     c34.175,0,55.502-6.421,67.118-20.205c8.371-9.934,12.032-24.243,11.523-45.035c-0.48-19.62-4.512-43.06-9.182-70.2     c-4.788-27.831-10.214-59.374-12.93-93.796c-0.079-1.007,0.266-2.002,0.952-2.744c0.686-0.742,1.65-1.165,2.661-1.165h154.625     c1.009,0,1.975,0.422,2.661,1.165c0.686,0.742,1.03,1.737,0.951,2.745l-18.386,233.002v114.02     C407.853,450.16,406.229,451.781,404.229,451.781z M172.18,444.533h228.424V333.995c0-0.095,0.004-0.19,0.012-0.284     l18.087-229.235H271.935c2.78,32.581,7.946,62.611,12.524,89.227c4.719,27.42,8.792,51.102,9.287,71.252     c0.265,10.854-0.538,19.946-2.453,27.795c-2.15,8.811-5.675,16.035-10.775,22.088c-3.216,3.817-7.117,7.18-11.593,9.995     c-4.531,2.851-9.823,5.247-15.729,7.119c-12.023,3.813-26.854,5.666-45.338,5.666c-19.673,0-35.678,15.808-35.678,35.236V444.533     z"></path></g><g><path d="M365.802,448.966c-2.002,0-3.625-1.623-3.625-3.625c0-0.073,0.002-0.147,0.002-0.221c0-0.028-0.002-0.058-0.002-0.087     c0-8.764-7.221-15.893-16.097-15.893c-8.871,0-16.09,7.129-16.09,15.893c0,0.029,0,0.059,0,0.087c0,0.073,0,0.147,0,0.221     c0,2.002-1.621,3.625-3.623,3.625c-2.001,0-3.625-1.623-3.625-3.625c0-8.78-7.372-16.2-16.099-16.2     c-8.876,0-16.097,7.129-16.097,15.893c0,2.001-1.623,3.624-3.625,3.624s-3.623-1.623-3.623-3.624     c0-8.764-7.228-15.893-16.108-15.893c-8.878,0-16.1,7.129-16.1,15.893c0,2.001-1.622,3.624-3.624,3.624     c-2,0-3.623-1.623-3.623-3.624c0-8.764-7.222-15.893-16.099-15.893c-8.895,0-16.13,7.129-16.13,15.893     c0,2.001-1.623,3.624-3.624,3.624c-2.001,0-3.624-1.623-3.624-3.624c0-8.764-7.222-15.893-16.098-15.893     c-8.872,0-16.089,7.129-16.089,15.893c0,2.001-1.623,3.624-3.624,3.624c-2,0-3.624-1.623-3.624-3.624     c0-12.761,10.469-23.141,23.337-23.141c6.235,0,12.097,2.405,16.504,6.772c1.235,1.225,2.314,2.56,3.229,3.986     c4.151-6.463,11.449-10.759,19.743-10.759c8.281,0,15.569,4.296,19.715,10.757c0.915-1.425,1.994-2.762,3.229-3.984     c4.409-4.367,10.268-6.772,16.501-6.772c8.283,0,15.574,4.296,19.722,10.757c0.914-1.426,1.994-2.762,3.228-3.984     c4.407-4.367,10.269-6.772,16.504-6.772c6.222,0,12.088,2.469,16.521,6.954c1.186,1.198,2.23,2.504,3.125,3.903     c0.928-1.463,2.027-2.832,3.29-4.083c4.403-4.369,10.264-6.774,16.501-6.774c8.329,0,15.653,4.347,19.785,10.87     c0.898-1.404,1.944-2.714,3.132-3.916c4.431-4.485,10.306-6.954,16.538-6.954c12.873,0,23.347,10.38,23.347,23.141     c0,2.001-1.624,3.624-3.625,3.624c-2.002,0-3.623-1.623-3.623-3.624c0-8.764-7.223-15.893-16.099-15.893     c-8.883,0-16.11,7.268-16.11,16.2C369.425,447.343,367.804,448.966,365.802,448.966z"></path></g><g><path d="M168.556,415.358h-78.55c-2.001,0-3.624-1.623-3.624-3.625v-75.303c0-5.712,1.143-11.267,3.397-16.51     c2.172-5.053,5.275-9.594,9.223-13.5c3.946-3.901,8.532-6.968,13.632-9.112c5.286-2.223,10.885-3.35,16.642-3.35     c34.193,0,55.53-6.424,67.149-20.215c8.374-9.938,12.035-24.253,11.523-45.052c-0.482-19.626-4.519-43.073-9.193-70.223     c-4.79-27.819-10.219-59.351-12.938-93.756c-0.081-1.007,0.265-2.002,0.951-2.745c0.686-0.743,1.651-1.165,2.661-1.165h154.655     c1.011,0,1.976,0.422,2.661,1.165c0.687,0.742,1.031,1.737,0.952,2.745l-2.878,36.423c-0.149,1.885-1.722,3.339-3.611,3.339     h-69.274c2.78,32.581,7.946,62.611,12.524,89.226c4.719,27.421,8.792,51.103,9.287,71.253     c0.265,10.854-0.538,19.946-2.453,27.795c-2.15,8.811-5.675,16.035-10.775,22.088c-3.216,3.817-7.117,7.18-11.593,9.995     c-4.531,2.851-9.823,5.247-15.729,7.119c-12.022,3.813-26.854,5.666-45.337,5.666c-19.673,0-35.678,15.808-35.678,35.236v38.879     C172.18,413.735,170.558,415.358,168.556,415.358z M93.63,408.11h71.302v-35.256c0-5.714,1.142-11.27,3.395-16.513     c2.171-5.054,5.274-9.596,9.223-13.502c3.947-3.905,8.536-6.972,13.64-9.116c5.292-2.225,10.899-3.352,16.668-3.352     c34.175,0,55.502-6.421,67.118-20.205c8.371-9.934,12.032-24.243,11.523-45.035c-0.48-19.621-4.512-43.06-9.183-70.201     c-4.787-27.83-10.213-59.373-12.929-93.795c-0.079-1.007,0.266-2.002,0.952-2.745c0.686-0.742,1.65-1.164,2.661-1.164h69.857     l2.306-29.175H193.365c2.786,32.564,7.953,62.584,12.534,89.188c4.723,27.429,8.801,51.118,9.296,71.275     c0.267,10.858-0.534,19.954-2.45,27.805c-2.149,8.813-5.674,16.04-10.776,22.094c-3.218,3.819-7.119,7.184-11.596,10.001     c-4.535,2.852-9.829,5.248-15.737,7.12c-12.028,3.816-26.865,5.672-45.359,5.672c-19.656,0-35.646,15.801-35.646,35.224V408.11z"></path></g><g><path d="M168.556,412.234h-78.55c-2.001,0-3.624-1.623-3.624-3.625c0-12.754,10.473-23.131,23.347-23.131     c8.287,0,15.579,4.3,19.723,10.767c4.146-6.467,11.441-10.767,19.731-10.767c11.247,0,20.892,7.931,22.935,18.857     c0.042,0.22,0.062,0.443,0.062,0.666v3.607C172.18,410.611,170.558,412.234,168.556,412.234z M133.498,404.986h31.353     c-1.667-7.145-8.146-12.26-15.668-12.26C141.565,392.727,135.166,397.969,133.498,404.986z M94.053,404.986h31.352     c-1.667-7.018-8.063-12.26-15.676-12.26C102.115,392.727,95.719,397.969,94.053,404.986z"></path></g><g><path d="M415.883,189.953h-91.695c-2.001,0-3.623-1.623-3.623-3.624v-35.406c0-2.001,1.622-3.624,3.623-3.624H418.7     c1.012,0,1.977,0.422,2.661,1.165c0.688,0.743,1.03,1.738,0.951,2.746l-2.817,35.406     C419.346,188.5,417.773,189.953,415.883,189.953z M327.813,182.705h84.725l2.239-28.158h-86.964V182.705z"></path></g></g></g></svg>