<svg height='100px' width='100px'  fill="#000000" xmlns="http://www.w3.org/2000/svg" xmlns:xlink="http://www.w3.org/1999/xlink" version="1.1" x="0px" y="0px" viewBox="0 0 100 100" style="enable-background:new 0 0 100 100;" xml:space="preserve"><path d="M78.2285156,71.4726562c0.1953125,0.1953125,0.4511719,0.2929688,0.7070312,0.2929688  s0.5117188-0.0976562,0.7070312-0.2929688c0.390625-0.390625,0.390625-1.0234375,0-1.4140625l-7.0541992-7.0541992  c-0.390625-0.390625-1.0234375-0.390625-1.4140625,0l-7.0541992,7.0541992c-0.390625,0.390625-0.390625,1.0234375,0,1.4140625  s1.0234375,0.390625,1.4140625,0l5.347168-5.347168v5.5913086l-6.7612305,6.7612305  c-0.390625,0.390625-0.390625,1.0234375,0,1.4140625s1.0234375,0.390625,1.4140625,0l5.347168-5.347168v3.4951172  C70.8813477,83.5317383,66.421875,88,60.940918,88C55.4594727,88,51,83.5317383,51,78.0400391V60.5426025  c8.991272-0.6879883,16.144043-10.3771973,16.144043-22.1929932c0-8.0285645-5.5474243-14.7678223-13.005249-16.6351929  c1.4939575-1.2094727,2.4525146-3.055542,2.4525146-5.1231079C56.5913086,12.9570312,53.6342773,10,50,10  s-6.5913086,2.9570312-6.5913086,6.5913086c0,2.0623779,0.9534302,3.9049072,2.440979,5.114502  c-7.4748535,1.8554688-13.0391235,8.6032104-13.0391235,16.6437988c0,11.8355713,7.1768799,21.5386353,16.1894531,22.1974487  v17.492981C49,83.5317383,44.5405273,88,39.059082,88c-5.480957,0-9.9404297-4.4682617-9.9404297-9.9599609v-3.4951172  l5.347168,5.347168c0.1953125,0.1953125,0.4511719,0.2929688,0.7070312,0.2929688s0.5117188-0.0976562,0.7070312-0.2929688  c0.390625-0.390625,0.390625-1.0234375,0-1.4140625l-6.7612305-6.7612305v-5.5913086l5.347168,5.347168  c0.1953125,0.1953125,0.4511719,0.2929688,0.7070312,0.2929688s0.5117188-0.0976562,0.7070312-0.2929688  c0.390625-0.390625,0.390625-1.0234375,0-1.4140625l-7.0541992-7.0541992c-0.390625-0.390625-1.0234375-0.390625-1.4140625,0  l-7.0541992,7.0541992c-0.390625,0.390625-0.390625,1.0234375,0,1.4140625s1.0234375,0.390625,1.4140625,0l5.347168-5.347168  v5.5913086l-6.7612305,6.7612305c-0.390625,0.390625-0.390625,1.0234375,0,1.4140625s1.0234375,0.390625,1.4140625,0  l5.347168-5.347168v3.4951172C27.1186523,84.6347656,32.4750977,90,39.059082,90C43.9482422,90,48.1551514,87.0389404,50,82.8158569  C51.8448486,87.0389404,56.0517578,90,60.940918,90c6.5839844,0,11.9404297-5.3652344,11.9404297-11.9599609v-3.4951172  l5.347168,5.347168c0.1953125,0.1953125,0.4511719,0.2929688,0.7070312,0.2929688s0.5117188-0.0976562,0.7070312-0.2929688  c0.390625-0.390625,0.390625-1.0234375,0-1.4140625l-6.7612305-6.7612305v-5.5913086L78.2285156,71.4726562z M50,12  c2.5317383,0,4.5913086,2.0595703,4.5913086,4.5913086S52.5317383,21.1831055,50,21.1831055  s-4.5913086-2.0600586-4.5913086-4.5917969S47.4682617,12,50,12z M49.9775391,23.1831055  c8.362793,0,15.1665039,6.8037109,15.1665039,15.1665039c0,0.5170288-0.0300903,1.026001-0.0603638,1.534668H34.8687744  c-0.0288086-0.5083618-0.0582275-1.0166626-0.0582275-1.534668C34.8105469,29.9868164,41.6142578,23.1831055,49.9775391,23.1831055z   M35.0574341,41.8842773h29.8292847c-1.2963867,9.3513184-7.590271,16.7011719-14.9091797,16.7011719  C42.5194092,58.5854492,36.315979,51.3600464,35.0574341,41.8842773z"></path></svg>