<svg height='100px' width='100px'  fill="#000000" xmlns="http://www.w3.org/2000/svg" version="1.1" viewBox="0 0 64 64" x="0px" y="0px"><title>aperture</title><path d="M39.090 4.388c-15.217-3.907-30.795 5.305-34.702 20.522s5.305 30.795 20.522 34.702c15.217 3.907 30.795-5.305 34.702-20.522s-5.305-30.795-20.522-34.702zM38.247 7.672c3.014 0.774 5.645 2.196 8.046 3.893-3.502-0.031-6.965 0.304-10.304 1.335-3.045 0.938-5.978 2.322-8.707 4.116-2.114 1.385-4.052 2.974-5.761 4.719-0.277 0.282-0.546 0.566-0.808 0.853-0.62 0.68-0.579 1.761 0.1 2.389 0.219 0.205 0.472 0.335 0.728 0.401 0.591 0.152 1.24-0.032 1.67-0.503l0.005-0.003c0.239-0.261 0.479-0.518 0.726-0.769 1.535-1.569 3.285-3.002 5.199-4.259 2.469-1.619 5.107-2.866 7.846-3.712 4.202-1.296 8.592-1.668 13.078-1.11-0.005-0.001-0.003-0.001-0.002-0l0.006 0.001c0.133 0.016 0.274 0.035 0.41 0.053 4.627 5.072 6.944 11.937 6.338 19.042-1.718-3.032-3.731-5.854-6.282-8.219-2.339-2.169-5.002-4.016-7.917-5.481l-0.004-0.001c-2.62-1.321-5.358-2.299-8.12-2.9-0.904-0.196-1.818 0.39-2.015 1.297-0.191 0.886 0.364 1.779 1.236 2.003l0.030 0.008c0.006 0.001 0.017 0.002 0.028 0.003l0.004 0c2.458 0.535 4.935 1.425 7.308 2.623-0.005-0.001-0.003-0.001-0.002-0l0.006 0.001c2.631 1.326 5.036 2.988 7.141 4.939 3.224 2.992 5.743 6.604 7.564 10.908 0.003 0.005 0.004 0.007 0.005 0.009l-0.002-0.004c0.032 0.075 0.065 0.157 0.097 0.235-2.182 6.918-7.178 12.158-13.35 15.051 1.779-3.017 3.226-6.184 4.002-9.587 0.708-3.111 0.978-6.34 0.791-9.597 0.005 0.001 0.003 0.001 0.002 0l-0.006-0.001c-0.147-2.522-0.551-4.993-1.207-7.347-0.106-0.386-0.22-0.758-0.333-1.122-0.278-0.884-1.243-1.384-2.123-1.11 0.001-0.005 0.001-0.003 0-0.002l-0.001 0.006c-0.878 0.278-1.389 1.232-1.109 2.119l-0.004-0.001c0.106 0.34 0.208 0.682 0.305 1.026 0.587 2.113 0.953 4.344 1.085 6.627 0.168 2.946-0.069 5.86-0.706 8.655-0.977 4.284-2.846 8.275-5.64 11.974-0.067 0.089-0.13 0.171-0.195 0.256-3.736 0.832-7.702 0.858-11.655-0.158-3.016-0.775-5.648-2.197-8.050-3.894 3.504 0.031 6.971-0.301 10.312-1.333 3.050-0.941 5.977-2.326 8.704-4.117 2.116-1.386 4.053-2.971 5.761-4.719 0.276-0.282 0.548-0.567 0.813-0.856 0.623-0.684 0.569-1.769-0.112-2.392-0.683-0.627-1.763-0.578-2.39 0.104-0.24 0.262-0.483 0.519-0.731 0.772-1.535 1.569-3.287 3.001-5.203 4.258-2.462 1.618-5.101 2.866-7.842 3.713-4.202 1.296-8.598 1.672-13.082 1.113 0.005 0.001 0.003 0.001 0.002 0l-0.006-0.001c-0.127-0.015-0.27-0.037-0.405-0.056-4.629-5.073-6.948-11.937-6.342-19.043 1.72 3.032 3.735 5.854 6.286 8.22 2.339 2.169 4.998 4.015 7.913 5.48 2.258 1.14 4.603 2.025 6.97 2.633 0.382 0.098 0.765 0.187 1.152 0.272 0.904 0.196 1.818-0.39 2.015-1.297 0.090-0.415 0.045-0.865-0.186-1.254s-0.662-0.684-1.142-0.769c-2.444-0.533-4.92-1.42-7.282-2.612 0.005 0.001 0.003 0.001 0.002 0l-0.006-0.001c-2.631-1.326-5.032-2.987-7.137-4.938-3.224-2.992-5.743-6.604-7.564-10.908-0.003-0.006-0.004-0.007-0.005-0.009l0.002 0.004c-0.031-0.072-0.065-0.157-0.097-0.235 2.184-6.921 7.179-12.161 13.355-15.054-1.779 3.017-3.226 6.183-4.002 9.587-0.708 3.111-0.978 6.34-0.791 9.597-0.005-0.001-0.003-0.001-0.002-0l0.006 0.001c0.147 2.522 0.549 4.991 1.207 7.347 0.105 0.383 0.218 0.759 0.332 1.126 0.003 0.005 0.004 0.007 0.005 0.009l-0.002-0.004c0.181 0.57 0.647 0.989 1.194 1.129 0.292 0.075 0.619 0.074 0.93-0.023-0.001 0.005-0.001 0.003-0 0.002l0.001-0.006c0.884-0.28 1.386-1.238 1.106-2.124l0.004 0.001c-0.105-0.338-0.209-0.679-0.306-1.022l0.001-0.004c-0.587-2.113-0.954-4.34-1.086-6.623-0.168-2.946 0.070-5.863 0.707-8.659 0.978-4.285 2.85-8.274 5.643-11.973 0.001-0.001 0.003-0.003 0.005-0.006l0.001-0.001c0.060-0.082 0.125-0.165 0.188-0.246 3.734-0.832 7.699-0.862 11.652 0.153z"></path></svg>