<?xml version="1.0" encoding="utf-8"?>
<!-- Generator: Adobe Illustrator 24.2.1, SVG Export Plug-In . SVG Version: 6.00 Build 0)  -->
<svg version="1.1" id="Layer_1" xmlns="http://www.w3.org/2000/svg" xmlns:xlink="http://www.w3.org/1999/xlink" x="0px" y="0px"
	 viewBox="0 0 100 100" enable-background="new 0 0 100 100" xml:space="preserve">
<g>
	<path d="M13.207,22.787c-1.939-3.495-1.331-7.897,1.58-10.683c1.324-1.269,3.053-2.133,4.974-2.406
		c1.667-2.339,4.365-3.762,7.251-3.762c1.71,0,3.333,0.497,4.708,1.361c0.987,0.622,1.846,1.443,2.524,2.401
		c6.361,0.883,9.7,7.872,6.417,13.344c2.028,3.345,1.817,6.796,1.817,6.815v6.561H87.87c1.43,0,2.407,1.162,2.363,2.555
		c-0.05,1.051-1.878,35.238-32.97,35.238c-0.985,0-1.946-0.021-2.885-0.064v11.451c1.032,1.324,2.891,3.68,3.272,4.036
		c2.263,2.132-0.977,5.565-3.234,3.444c-0.335-0.317-1.965-2.345-3.054-3.725l-8.798,4.428c-2.779,1.398-4.893-2.823-2.126-4.217
		l6.884-3.463l-2.543-1.698c-2.582-1.696,0-5.659,2.611-3.941l2.251,1.498v-8.222c-7.214-0.938-12.897-3.187-17.319-6.077v9.262
		c1.032,1.324,2.891,3.682,3.27,4.036c2.264,2.133-0.976,5.565-3.233,3.444c-0.337-0.317-1.965-2.343-3.053-3.724l-8.799,4.427
		c-2.779,1.401-4.893-2.823-2.126-4.215l6.884-3.464l-2.544-1.697c-2.58-1.697,0-5.658,2.613-3.943l2.25,1.499V64.68
		c0-0.25,0.032-0.478,0.087-0.69c-7.085-6.728-9.408-15.108-9.408-19.488V34.154h-6.151c-1.585,0-2.48-1.312-2.332-2.78
		C9.925,30.125,10.559,26.232,13.207,22.787L13.207,22.787z M28.979,25.197c2.057,0,3.729,1.674,3.729,3.735
		c0,2.06-1.671,3.733-3.729,3.733s-3.729-1.674-3.729-3.733C25.25,26.87,26.921,25.197,28.979,25.197z M39.407,46.372
		c0.6-3.033-4.045-3.976-4.651-0.899c-2.125,10.98,10.567,19.279,21.036,16.278c11.242-3.232,12.099-3.595,12.105-3.594
		c3.022-0.613,2.106-5.236-0.951-4.619c0,0-1.217,0.433-12.461,3.665C47.406,59.234,37.934,53.862,39.407,46.372z M37.111,19.38
		c0.324-1.362-0.143-2.897-1.139-3.862c-1.393-1.324-2.841-1.168-4.582-1.168c-0.958-1.977-1.76-3.674-4.378-3.674
		c-2.568,0-3.389,1.642-4.352,3.674c-1.71,0-3.209-0.174-4.602,1.162c-1.063,1.02-1.443,2.476-1.139,3.875
		c2.407-1.524,5.615-2.569,9.893-2.569C31.509,16.818,34.803,17.869,37.111,19.38z M57.264,69.474
		c22.267,0,27.019-20.949,27.995-28.318H40.107c-1.305,0-2.368-1.063-2.368-2.369v-8.929c0-0.019,0.572-8.301-10.926-8.301
		c-8.088,0-10.887,4.837-11.845,7.859h5.665c1.306,0,2.369,1.064,2.369,2.369v12.717c0,4.01,2.493,12.236,10.435,18.163
		C38.684,66.582,46.344,69.474,57.264,69.474z"/>
</g>
</svg>
