<svg height='100px' width='100px'  fill="#000000" xmlns="http://www.w3.org/2000/svg" xmlns:xlink="http://www.w3.org/1999/xlink" version="1.0" x="0px" y="0px" viewBox="0 0 100 100" enable-background="new 0 0 100 100" xml:space="preserve"><path d="M55,10h-4.779C34.519,10,20.293,16.37,10,26.667v0.003c11.101,11.104,25.665,16.658,40.221,16.658L55,43.333  c8.281,0,15,6.716,15,15c0,8.281-6.719,15.001-15,15.001h-2.135C51.373,67.594,46.205,63.33,40,63.33l-20,0.006  c0,4.717,1.272,9.298,3.613,13.331C21.277,80.7,20,85.287,20,90h20c6.205,0,11.373-4.261,12.861-10H55c19.329,0,35-15.671,35-35  C90,25.67,74.329,10,55,10z M40,83.334H27.865c0.886-2.478,2.204-4.75,3.926-6.667c-1.725-1.921-3.04-4.192-3.926-6.671H40  c3.678,0,6.667,2.986,6.667,6.671C46.667,80.349,43.682,83.334,40,83.334z M54.654,36.66h-4.433c-10.996,0-21.451-3.506-30.08-9.993  c8.636-6.49,19.09-10,30.08-10h4.433C57.617,22.989,57.617,30.338,54.654,36.66z M75.86,64.127c0.51-1.849,0.806-3.785,0.806-5.794  c0-9.703-6.378-17.916-15.172-20.673c1.348-3.461,2.076-7.165,2.076-10.99c0-3.114-0.479-6.155-1.379-9.046  C74.349,20.807,83.332,31.839,83.332,45C83.332,52.383,80.484,59.085,75.86,64.127z"></path><circle cx="43.333" cy="26.667" r="3.333"></circle></svg>