<?xml version="1.0" encoding="utf-8"?>
<!-- Generator: Adobe Illustrator 24.2.1, SVG Export Plug-In . SVG Version: 6.00 Build 0)  -->
<svg version="1.1" id="Layer_1" xmlns="http://www.w3.org/2000/svg" xmlns:xlink="http://www.w3.org/1999/xlink" x="0px" y="0px"
	 viewBox="0 0 100 100" enable-background="new 0 0 100 100" xml:space="preserve">
<g>
	<path d="M56.031,29.29c0-1.348,1.094-2.442,2.442-2.442c1.348,0,2.442,1.094,2.442,2.442v24.564l13.471,10.475
		c1.064,0.826,1.256,2.361,0.429,3.425s-2.361,1.256-3.425,0.429L57.022,57.011c-0.6-0.445-0.99-1.161-0.99-1.964
		C56.031,55.047,56.031,29.29,56.031,29.29z"/>
	<path d="M7.864,47.241c-1.348,0-2.442-1.094-2.442-2.442c0-1.348,1.094-2.442,2.442-2.442h19.541c1.348,0,2.442,1.094,2.442,2.442
		c0,1.348-1.094,2.442-2.442,2.442C27.405,47.241,7.864,47.241,7.864,47.241z"/>
	<path d="M2.442,57.489C1.094,57.489,0,56.395,0,55.047c0-1.348,1.094-2.442,2.442-2.442h19.541c1.348,0,2.442,1.094,2.442,2.442
		c0,1.348-1.094,2.442-2.442,2.442C21.983,57.489,2.442,57.489,2.442,57.489z"/>
	<path d="M7.864,67.737c-1.348,0-2.442-1.094-2.442-2.442c0-1.348,1.094-2.442,2.442-2.442h19.541c1.348,0,2.442,1.094,2.442,2.442
		c0,1.348-1.094,2.442-2.442,2.442C27.405,67.737,7.864,67.737,7.864,67.737z"/>
	<path d="M60.915,8.311v5.281C82.834,14.866,100,33.075,100,55.047c0,22.923-18.604,41.527-41.527,41.527
		c-14.618,0-28.121-7.677-35.636-20.213c-0.688-1.152-0.312-2.65,0.84-3.338c1.152-0.688,2.65-0.312,3.338,0.84
		c6.636,11.077,18.546,17.826,31.458,17.826c20.25,0,36.643-16.393,36.643-36.643S78.723,18.404,58.473,18.404
		c-12.912,0-24.822,6.749-31.458,17.826c-0.688,1.152-2.186,1.528-3.338,0.84c-1.152-0.688-1.528-2.186-0.84-3.338
		C29.9,21.952,42.321,14.39,56.031,13.592V8.311H48.58c-1.348,0-2.442-1.094-2.442-2.442s1.094-2.442,2.442-2.442h19.786
		c1.348,0,2.442,1.094,2.442,2.442s-1.094,2.442-2.442,2.442L60.915,8.311L60.915,8.311z"/>
</g>
</svg>
