<svg height='100px' width='100px'  fill="#000000" xmlns="http://www.w3.org/2000/svg" xmlns:xlink="http://www.w3.org/1999/xlink" version="1.1" x="0px" y="0px" viewBox="0 0 100 100" style="enable-background:new 0 0 100 100;" xml:space="preserve"><g><g><path d="M77,93.5c-12.7,0-23-10.3-23-23c0-10.8,7.6-20.2,18.1-22.5c0.6-0.1,1.1,0.2,1.2,0.8    c0.1,0.6-0.2,1.1-0.8,1.2C62.9,52.1,56,60.7,56,70.5c0,11.6,9.4,21,21,21c11.6,0,21-9.4,21-21c0-9.8-6.9-18.4-16.5-20.5    c-0.6-0.1-0.9-0.7-0.8-1.2c0.1-0.6,0.7-0.9,1.2-0.8C92.4,50.3,100,59.7,100,70.5C100,83.2,89.7,93.5,77,93.5z"></path></g><g><path d="M77,86c-8.6,0-15.5-7-15.5-15.5c0-8.6,7-15.5,15.5-15.5c8.6,0,15.5,7,15.5,15.5C92.5,79.1,85.5,86,77,86z     M77,57c-7.4,0-13.5,6-13.5,13.5c0,7.4,6,13.5,13.5,13.5c7.4,0,13.5-6,13.5-13.5C90.4,63.1,84.4,57,77,57z"></path></g><g><path d="M77,57c-0.6,0-1-0.5-1-1V7.5c0-0.6,0.5-1,1-1c0.6,0,1,0.5,1,1V56C78,56.6,77.5,57,77,57z"></path></g><g><path d="M23,93.5c-12.7,0-23-10.3-23-23C0,59.7,7.6,50.3,18.1,48c0.6-0.1,1.1,0.2,1.2,0.8    c0.1,0.6-0.2,1.1-0.8,1.2C9,52.1,2.1,60.7,2.1,70.5c0,11.6,9.4,21,21,21c11.6,0,21-9.4,21-21c0-9.8-6.9-18.4-16.5-20.5    c-0.6-0.1-0.9-0.7-0.8-1.2c0.1-0.6,0.7-0.9,1.2-0.8c10.5,2.3,18.1,11.8,18.1,22.5C46.1,83.2,35.8,93.5,23,93.5z"></path></g><g><path d="M23,86c-8.6,0-15.5-7-15.5-15.5c0-8.6,7-15.5,15.5-15.5c8.6,0,15.5,7,15.5,15.5C38.6,79.1,31.6,86,23,86z     M23,57c-7.4,0-13.5,6-13.5,13.5c0,7.4,6,13.5,13.5,13.5c7.4,0,13.5-6,13.5-13.5C36.5,63.1,30.5,57,23,57z"></path></g><g><path d="M23,57c-0.6,0-1-0.5-1-1V7.5c0-0.6,0.5-1,1-1s1,0.5,1,1V56C24.1,56.6,23.6,57,23,57z"></path></g></g></svg>