<svg height='100px' width='100px'  fill="#000000" xmlns="http://www.w3.org/2000/svg" xmlns:xlink="http://www.w3.org/1999/xlink" version="1.1" x="0px" y="0px" viewBox="0 0 64 64" style="enable-background:new 0 0 64 64;" xml:space="preserve"><g><path d="M54,23h-3v-2.184C51.314,20.928,51.648,21,52,21c1.654,0,3-1.346,3-3v-8c0-1.654-1.346-3-3-3c-0.352,0-0.686,0.072-1,0.184   V6c0-2.757-2.243-5-5-5s-5,2.243-5,5v17h-4V1H25v22h-4V8.697l-5-7.5l-5,7.5V23h-1c-1.654,0-3,1.346-3,3v2   c0,1.338,0.886,2.461,2.098,2.846L13.117,63h37.766l4.019-32.154C56.114,30.461,57,29.338,57,28v-2C57,24.346,55.654,23,54,23z    M52,9c0.552,0,1,0.449,1,1v8c0,0.551-0.448,1-1,1s-1-0.449-1-1v-8C51,9.449,51.448,9,52,9z M46,3c1.654,0,3,1.346,3,3v4v1h-6V6   C43,4.346,44.346,3,46,3z M43,13h6v5v5h-6V13z M27,19h2v-2h-2v-2h4v-2h-4v-2h2V9h-2V7h4V5h-4V3h8v20h-8V19z M18.132,8h-4.263   L16,4.803L18.132,8z M13,10h2v4h2v-4h2v13h-2v-7h-2v7h-2V10z M19.392,44.194L16,47.586l-3.193-3.193L12.633,43h5.459   C18.456,43.468,18.89,43.876,19.392,44.194z M45.908,43h5.459l-0.174,1.392L48,47.586l-3.392-3.391   C45.11,43.876,45.544,43.468,45.908,43z M44,51.586L41.414,49L44,46.414L46.586,49L44,51.586z M33.414,49L36,46.414L38.586,49   L36,51.586L33.414,49z M28,51.586L25.414,49L28,46.414L30.586,49L28,51.586z M17.414,49L20,46.414L22.586,49L20,51.586L17.414,49z    M21.414,45l0.065-0.065C21.693,44.962,21.904,45,22.125,45c0.722,0,1.422-0.148,2.081-0.441l5.079-2.258L24,47.586L21.414,45z    M29.414,45l2.054-2.054C31.644,42.97,31.818,43,32,43s0.356-0.03,0.532-0.054L34.586,45L32,47.586L29.414,45z M34.714,42.3   l5.079,2.258C40.453,44.852,41.153,45,41.875,45c0.221,0,0.432-0.038,0.645-0.065L42.586,45L40,47.586L34.714,42.3z M45,39.875   C45,41.598,43.598,43,41.875,43c-0.439,0-0.866-0.091-1.269-0.269l-4.918-2.186C35.888,40.069,36,39.548,36,39   s-0.112-1.069-0.312-1.545l4.918-2.186C41.009,35.091,41.436,35,41.875,35C43.598,35,45,36.402,45,38.125V39.875z M34,39   c0,1.103-0.897,2-2,2s-2-0.897-2-2s0.897-2,2-2S34,37.897,34,39z M28.312,40.545l-4.918,2.186C22.991,42.909,22.564,43,22.125,43   C20.402,43,19,41.598,19,39.875v-1.751C19,36.402,20.402,35,22.125,35c0.439,0,0.866,0.091,1.269,0.269l4.918,2.186   C28.112,37.931,28,38.452,28,39S28.112,40.069,28.312,40.545z M14.586,49l-1.07,1.07l-0.306-2.445L14.586,49z M13.831,52.583   L16,50.414l4.331,4.331c-0.195,0.19-0.383,0.381-0.558,0.563C18.867,56.253,18.152,57,16.663,57c-1.059,0-1.719-0.373-2.405-1.001   L13.831,52.583z M21.959,53.544L21.414,53L24,50.414L26.586,53l-0.347,0.347C25.693,53.138,25.071,53,24.327,53   C23.368,53,22.603,53.22,21.959,53.544z M32,50.414l4.009,4.009c-0.331,0.293-0.629,0.598-0.904,0.885   C34.199,56.253,33.484,57,31.995,57c-1.49,0-2.206-0.747-3.112-1.692c-0.273-0.285-0.569-0.588-0.898-0.879L32,50.414z    M37.758,53.343L37.414,53L40,50.414L42.586,53l-0.548,0.548C41.39,53.222,40.623,53,39.659,53   C38.92,53,38.302,53.137,37.758,53.343z M48,50.414l2.169,2.169l-0.426,3.411C49.053,56.625,48.39,57,47.33,57   c-1.491,0-2.207-0.747-3.113-1.692c-0.174-0.181-0.359-0.37-0.553-0.558L48,50.414z M49.414,49l1.375-1.375l-0.306,2.445L49.414,49   z M51.617,41h-4.75C46.949,40.637,47,40.263,47,39.875v-1.751C47,35.299,44.701,33,41.875,33c-0.722,0-1.422,0.148-2.081,0.441   l-5.379,2.391C33.742,35.318,32.911,35,32,35s-1.742,0.318-2.415,0.833l-5.379-2.391C23.547,33.148,22.847,33,22.125,33   C19.299,33,17,35.299,17,38.125v1.751c0,0.387,0.051,0.761,0.133,1.125h-4.75l-1.25-10h41.735L51.617,41z M14.883,61l-0.301-2.41   c0.584,0.247,1.262,0.41,2.082,0.41c2.343,0,3.569-1.28,4.554-2.308C22.123,55.747,22.838,55,24.327,55   c1.49,0,2.206,0.747,3.112,1.692C28.425,57.72,29.651,59,31.995,59c2.343,0,3.569-1.28,4.554-2.308   C37.455,55.747,38.17,55,39.659,55c1.491,0,2.208,0.747,3.114,1.692C43.759,57.72,44.986,59,47.33,59   c0.823,0,1.503-0.164,2.089-0.413L49.117,61H14.883z M55,28c0,0.551-0.448,1-1,1H10c-0.552,0-1-0.449-1-1v-2c0-0.551,0.448-1,1-1   h44c0.552,0,1,0.449,1,1V28z"></path><circle cx="24" cy="58" r="1"></circle><circle cx="40" cy="58" r="1"></circle></g></svg>