<svg height='100px' width='100px'  fill="#000000" xmlns="http://www.w3.org/2000/svg" xmlns:xlink="http://www.w3.org/1999/xlink" version="1.1" x="0px" y="0px" viewBox="0 0 64 64" style="enable-background:new 0 0 64 64;" xml:space="preserve"><path d="M59.189,49.775C61.587,44.738,63,38.61,63,32s-1.413-12.738-3.811-17.775l0.003-0.003l-0.009-0.009  C55.381,6.231,49.098,1,42,1c-3.512,0-6.953,1.3-10.008,3.739C29.019,2.355,25.615,1,22,1C14.902,1,8.619,6.231,4.816,14.213  l-0.009,0.009l0.003,0.003C2.413,19.262,1,25.39,1,32s1.413,12.738,3.811,17.775l-0.003,0.003l0.009,0.009  C8.619,57.769,14.902,63,22,63c3.615,0,7.019-1.355,9.991-3.739C35.047,61.7,38.488,63,42,63c7.098,0,13.381-5.231,17.184-13.213  l0.009-0.009L59.189,49.775z M60.983,31H59v2h1.983c-0.126,5.655-1.315,10.905-3.275,15.294L51,41.586V33h6v-2h-6v-8.586  l6.708-6.708C59.669,20.095,60.857,25.345,60.983,31z M56.78,13.806L50,20.586l-7-7V3.041C48.559,3.483,53.49,7.592,56.78,13.806z   M42,48.586l-1.618-1.618C42.048,42.527,43,37.426,43,32s-0.952-10.527-2.618-14.968L42,15.414l7,7v19.172L42,48.586z M22,48.586  l-7-7V22.414l7-7l7,7v19.172L22,48.586z M23,13.586V3.041c5.559,0.442,10.49,4.551,13.78,10.765L30,20.586L23,13.586z M40.983,31H31  v-8.586l6.708-6.708C39.669,20.095,40.857,25.345,40.983,31z M31,33h9.983c-0.126,5.655-1.315,10.905-3.275,15.294L31,41.586V33z   M41,3.05v10.536l-1.441,1.441c-0.12-0.271-0.244-0.537-0.37-0.802l0.003-0.003l-0.009-0.009c-1.528-3.208-3.456-5.97-5.678-8.127  C35.837,4.298,38.393,3.261,41,3.05z M21,3.041v10.545l-7,7l-6.78-6.78C10.51,7.592,15.441,3.483,21,3.041z M13,22.414V31H3.017  c0.126-5.655,1.315-10.905,3.275-15.294L13,22.414z M3.017,33H13v8.586l-6.708,6.708C4.331,43.905,3.143,38.655,3.017,33z   M7.22,50.194l6.78-6.78l7,7V53h2v-2.586l7-7l6.78,6.78C33.49,56.408,28.559,60.517,23,60.959V55h-2v5.959  C15.441,60.517,10.51,56.408,7.22,50.194z M39.184,49.787l0.009-0.009l-0.003-0.003c0.126-0.265,0.25-0.531,0.37-0.802L41,50.414  V60.95c-2.607-0.212-5.163-1.248-7.494-3.036C35.728,55.757,37.655,52.995,39.184,49.787z M43,60.959V50.414l7-7l6.78,6.78  C53.49,56.408,48.559,60.517,43,60.959z"></path></svg>