<svg height='100px' width='100px'  fill="#000000" xmlns="http://www.w3.org/2000/svg" xmlns:xlink="http://www.w3.org/1999/xlink" xml:space="preserve" version="1.1" style="shape-rendering:geometricPrecision;text-rendering:geometricPrecision;image-rendering:optimizeQuality;" viewBox="0 0 277 253" x="0px" y="0px" fill-rule="evenodd" clip-rule="evenodd"><defs><style type="text/css">
   
    .fil0 {fill:#000000}
   
  </style></defs><g><path class="fil0" d="M214 49c26,1 63,15 63,45 0,27 -27,41 -50,45l0 69c0,60 -177,60 -177,0l0 -69c-23,-4 -50,-18 -50,-45 0,-30 37,-44 63,-45 13,-30 43,-49 76,-49 32,0 62,19 75,49zm-8 9c-10,-28 -37,-47 -67,-47 -31,0 -58,19 -68,47l-1 1 -3 0c-20,0 -56,10 -56,35 0,23 30,34 48,35l2 0 0 79c0,45 155,45 155,0l0 -79 2 0c18,-1 48,-12 48,-35 0,-25 -36,-35 -56,-35l-3 0 -1 -1zm-119 53c12,-5 25,-9 37,-11 0,-4 -1,-13 -2,-15 -1,0 -3,3 -4,3 -4,6 -13,0 -9,-6 5,-7 13,-13 20,-5 4,5 6,16 7,23 1,0 2,0 3,0 2,-14 6,-30 19,-36 7,-3 11,7 5,10 -9,4 -12,17 -13,26 15,2 29,6 42,12 3,-7 8,-15 15,-19 11,-7 20,-1 27,8 4,7 -6,13 -10,7 -2,-4 -6,-9 -11,-6 -5,3 -9,10 -12,16 4,2 7,4 10,6 6,5 -1,14 -7,9 -19,-14 -42,-22 -65,-22 -24,0 -47,8 -66,22 -6,5 -13,-4 -7,-9 4,-3 8,-5 12,-8 -6,-11 -14,-13 -26,-9 -7,2 -11,-8 -4,-10 17,-7 31,-2 39,14zm-16 102c-6,3 -11,-6 -5,-10 22,-13 47,-20 73,-20 25,0 50,7 72,20 7,4 1,13 -5,10 -21,-13 -44,-19 -67,-19 -24,0 -47,6 -68,19z"></path></g></svg>