<svg height='100px' width='100px'  fill="#000000" xmlns="http://www.w3.org/2000/svg" viewBox="0 0 48 48" x="0px" y="0px"><title>Chess-board-piece-game-sport-pawn</title><path d="M40,37H37V33a1,1,0,0,0-1-1H34.38c-1-.92-4.38-4.67-4.38-12v0a10,10,0,1,0-12,0v0c0,7.33-3.41,11.08-4.38,12H12a1,1,0,0,0-1,1v4H8a1,1,0,0,0-1,1v5a1,1,0,0,0,1,1H40a1,1,0,0,0,1-1V38A1,1,0,0,0,40,37ZM16,12a8,8,0,1,1,8,8A8,8,0,0,1,16,12Zm4,9.14a9.92,9.92,0,0,0,8.08,0A19,19,0,0,0,31.72,32H16.28A19,19,0,0,0,20,21.14ZM13,34H35v3H13Zm26,8H9V39H39Z"></path></svg>