<svg height='100px' width='100px'  fill="#000000" xmlns="http://www.w3.org/2000/svg" viewBox="0 0 64 64" x="0px" y="0px"><g><path d="M61,17H35a1,1,0,0,0-.673.26l-.866.787-3.754-3.754a1,1,0,0,0-1.414,0L27,15.586l-5.293-5.293A1,1,0,0,0,21,10H8V9A1,1,0,0,0,7,8H3A1,1,0,0,0,2,9v8a1,1,0,0,0,1,1H7a1,1,0,0,0,1-1V16h8.586l5,5-1.293,1.293a1,1,0,0,0,0,1.418L23.619,27l-.292.265A1,1,0,0,0,23,28V56a1,1,0,0,0,1,1H61a1,1,0,0,0,1-1V18A1,1,0,0,0,61,17ZM6,16H4V10H6Zm11.707-1.707A1,1,0,0,0,17,14H8V12H20.586l5,5L23,19.586ZM22.418,23,29,16.414l2.98,2.98L25.1,25.647ZM60,55H25V28.442L35.387,19H60Z"></path><path d="M34.076,28.383A1,1,0,0,0,35,29H55a1,1,0,0,0,1-1V22a1,1,0,0,0-1-1H41a1,1,0,0,0-.707.293l-6,6A1,1,0,0,0,34.076,28.383ZM41.414,23H54v4H37.414Z"></path><path d="M49,32H29a1,1,0,0,0-1,1V52a1,1,0,0,0,1,1H49a1,1,0,0,0,1-1V33A1,1,0,0,0,49,32ZM48,51H30V34H48Z"></path><path d="M39,49a5.006,5.006,0,0,0,5-5c0-3.318-3.854-7.268-4.293-7.707a1,1,0,0,0-1.414,0C37.854,36.732,34,40.682,34,44A5.006,5.006,0,0,0,39,49Zm0-10.531c1.216,1.388,3,3.8,3,5.531a3,3,0,0,1-6,0C36,42.273,37.784,39.859,39,38.469Z"></path><path d="M52,33V52a1,1,0,0,0,1,1h4a1,1,0,0,0,1-1V33a1,1,0,0,0-1-1H53A1,1,0,0,0,52,33Zm2,1h2V51H54Z"></path><rect x="33.586" y="22" width="2.828" height="2" transform="translate(-6.012 31.485) rotate(-45)"></rect><rect x="29.586" y="26" width="2.828" height="2" transform="translate(-10.012 29.828) rotate(-45)"></rect></g></svg>