<svg height='100px' width='100px'  fill="#000000" xmlns="http://www.w3.org/2000/svg" xmlns:xlink="http://www.w3.org/1999/xlink" version="1.1" x="0px" y="0px" viewBox="0 0 100 100" style="enable-background:new 0 0 100 100;" xml:space="preserve"><g><path d="M43.431,61.149c-4.195,0-7.608,3.476-7.608,7.747s3.413,7.747,7.608,7.747s7.607-3.476,7.607-7.747   S47.625,61.149,43.431,61.149z M43.431,72.644c-1.989,0-3.608-1.681-3.608-3.747s1.619-3.747,3.608-3.747s3.607,1.681,3.607,3.747   S45.42,72.644,43.431,72.644z"></path><path d="M65.928,53.074c2.561,0,4.645-2.084,4.645-4.645v-6.033c0-2.562-2.084-4.646-4.645-4.646H45.836   c-2.561,0-4.645,2.084-4.645,4.646v6.033c0,2.561,2.084,4.645,4.645,4.645H65.928z M66.573,42.396v6.033   c0,0.355-0.29,0.645-0.645,0.645h-8.046v-7.323h8.046C66.283,41.751,66.573,42.041,66.573,42.396z M45.191,48.43v-6.033   c0-0.355,0.29-0.646,0.645-0.646h8.046v7.323h-8.046C45.48,49.074,45.191,48.785,45.191,48.43z"></path><path d="M93,66.355H81.725c0.684-1.149,1.099-2.477,1.162-3.901c0.006-0.062,0.019-0.121,0.019-0.184   c0-0.021-0.006-0.041-0.006-0.063c0.001-0.043,0.006-0.084,0.006-0.127v-3.518c0-7.469-2.005-14.788-5.8-21.166l-5.98-10.056   c-1.462-2.458-4.124-3.985-6.946-3.985H13.644C8.878,23.356,5,27.309,5,32.166v29.38c0,0.381,0.032,0.754,0.078,1.122   c0,0.003,0.001,0.005,0.001,0.008c0.547,4.325,4.175,7.68,8.565,7.68h0.423h12.558h5.065c0.697,0,1.343-0.362,1.707-0.957   l4.62-7.562c0.019-0.031,0.037-0.062,0.054-0.094c0.484-0.898,1.399-1.456,2.387-1.456h5.947c0.988,0,1.903,0.558,2.388,1.456   c0.017,0.032,0.035,0.063,0.054,0.094l4.62,7.562c0.363,0.595,1.01,0.957,1.707,0.957h17h2.613h9.497v2.913c0,1.104,0.896,2,2,2   s2-0.896,2-2v-2.913H93c1.104,0,2-0.896,2-2S94.104,66.355,93,66.355z M13.644,27.356H64.18c1.44,0,2.752,0.759,3.508,2.03   l1.055,1.773H9.106C9.554,28.99,11.417,27.356,13.644,27.356z M9.824,64.271h2.243v1.78C11.153,65.706,10.368,65.086,9.824,64.271z    M16.067,66.355v-6.21h1.246c1.104,0,2-0.896,2-2s-0.896-2-2-2h-1.246v-8.375h8.558v18.585H16.067z M30.568,66.355h-1.943v-2.085   h3.217L30.568,66.355z M46.404,56.287h-5.947c-2.441,0-4.688,1.342-5.88,3.506l-0.292,0.478h-5.66v-14.5c0-1.104-0.896-2-2-2   H14.067c-1.104,0-2,0.896-2,2v14.5H9V35.16h62.122l2.547,4.282c3.426,5.76,5.237,12.372,5.237,19.121v1.707h-26.32   c-0.003,0-0.006,0.001-0.009,0.001l-0.292-0.479C51.093,57.629,48.845,56.287,46.404,56.287z M72.172,66.355H56.293l-1.274-2.085   h23.286c-0.722,1.243-2.023,2.085-3.521,2.085H72.172z"></path></g></svg>