<svg height='100px' width='100px'  fill="#000000" xmlns="http://www.w3.org/2000/svg" xmlns:xlink="http://www.w3.org/1999/xlink" version="1.1" x="0px" y="0px" viewBox="0 0 32 32" style="enable-background:new 0 0 32 32;" xml:space="preserve"><style type="text/css">
	.st0{fill:none;}
</style><circle class="st0" cx="20" cy="10.6" r="1"></circle><polygon class="st0" points="16,3.4 14.4,5 17.6,5 "></polygon><path class="st0" d="M12.8,12.8l3.2,3.7l2.4-2.5l6.5,5.1V9.6V7h-2.6H9.6H7v2.6v9.2L12.8,12.8z M20,7.6c1.7,0,3,1.3,3,3s-1.3,3-3,3  s-3-1.3-3-3S18.3,7.6,20,7.6z"></path><polygon class="st0" points="18.6,16.7 16,19.5 12.7,15.8 7,21.6 7,22.4 7,25 9.6,25 22.4,25 25,25 25,22.4 25,21.7 "></polygon><polygon class="st0" points="28.6,16 27,14.4 27,17.6 "></polygon><polygon class="st0" points="16,28.6 17.6,27 14.4,27 "></polygon><polygon class="st0" points="3.4,16 5,17.6 5,14.4 "></polygon><path d="M27,20.4l4.4-4.4L27,11.6V5h-6.6L16,0.6L11.6,5H5v6.6L0.6,16L5,20.4V27h6.6l4.4,4.4l4.4-4.4H27V20.4z M28.6,16L27,17.6v-3.2  L28.6,16z M16,3.4L17.6,5h-3.2L16,3.4z M7,7h2.6h12.8H25v2.6v9.6L18.5,14L16,16.5l-3.2-3.7l-5.8,6V9.6V7z M3.4,16L5,14.4v3.2L3.4,16  z M16,28.6L14.4,27h3.2L16,28.6z M25,25h-2.6H9.6H7v-2.6v-0.8l5.7-5.9l3.2,3.7l2.7-2.8l6.4,5v0.7V25z"></path><path d="M20,13.6c1.7,0,3-1.3,3-3s-1.3-3-3-3s-3,1.3-3,3S18.3,13.6,20,13.6z M20,9.6c0.6,0,1,0.4,1,1s-0.4,1-1,1s-1-0.4-1-1  S19.4,9.6,20,9.6z"></path></svg>