<svg height='100px' width='100px'  fill="#000000" xmlns="http://www.w3.org/2000/svg" viewBox="0 0 64 64" x="0px" y="0px"><g><path d="M60,13a5.028,5.028,0,0,0-6,0V10.54l.917.07c.127.01.254.015.38.015A5.028,5.028,0,0,0,59.979,7.39l.706-1.872a1,1,0,0,0-.859-1.35l-1.994-.153A5.023,5.023,0,0,0,53,6.752a5.017,5.017,0,0,0-4.832-2.737l-1.994.153a1,1,0,0,0-.859,1.35l.706,1.872A5.028,5.028,0,0,0,50.7,10.625c.126,0,.253-.005.38-.015L52,10.54V13a5.028,5.028,0,0,0-6,0l-1.6,1.2a1,1,0,0,0,0,1.6L46,17a5.022,5.022,0,0,0,5.97.019,38.194,38.194,0,0,1-.378,4.336l-.034-.033a5.023,5.023,0,0,0-5.946-.8l-1.746.974a1,1,0,0,0-.214,1.586l1.425,1.4a4.986,4.986,0,0,0,5.7.918A38.055,38.055,0,0,1,44.991,38H42.719a11.614,11.614,0,0,0,1.01-3.313,11.045,11.045,0,0,0-.01-3.357l-.73-4.8a1,1,0,0,0-.489-.716.994.994,0,0,0-.865-.064l-4.514,1.768c-.27.1-.536.222-.8.348-.16-.235-.328-.469-.512-.7l-3.03-3.79a1.034,1.034,0,0,0-1.562,0l-3.031,3.792c-.184.23-.352.464-.512.7-.26-.126-.525-.243-.791-.345l-4.52-1.771a1,1,0,0,0-1.354.78l-.729,4.8a10.992,10.992,0,0,0-.132,1.705,11.744,11.744,0,0,0,.121,1.655A11.6,11.6,0,0,0,21.281,38H13a1,1,0,0,0-1,1v2a17.012,17.012,0,0,0,9.017,15H11a1,1,0,0,0-1,1v2a3,3,0,0,0,3,3H51a3,3,0,0,0,3-3V57a1,1,0,0,0-1-1H43.013a16.954,16.954,0,0,0,4.265-3.237A2.919,2.919,0,0,0,49.684,54a3.061,3.061,0,0,0,.475-.038,2.978,2.978,0,0,0,1.958-1.2,4.25,4.25,0,0,0,.705-1.557,2.974,2.974,0,0,0,1.1.4,2.934,2.934,0,0,0,.475.038,3,3,0,0,0,2.421-4.764,4.232,4.232,0,0,0-1.265-1.154A3,3,0,0,0,52.682,40.6a4.283,4.283,0,0,0-.682.3V39a1,1,0,0,0-1-1H47.41a40.378,40.378,0,0,0,2.763-4.98l.55.542a5.023,5.023,0,0,0,5.946.8l1.746-.974a1,1,0,0,0,.214-1.586l-1.424-1.4a5.013,5.013,0,0,0-5.559-.979,40.142,40.142,0,0,0,1.191-4.035l.167.165a5.023,5.023,0,0,0,5.946.8l1.746-.974a1,1,0,0,0,.215-1.586l-1.425-1.4a5.022,5.022,0,0,0-5.907-.822,40.183,40.183,0,0,0,.392-4.594L54,17a5.028,5.028,0,0,0,6,0l1.6-1.2a1,1,0,0,0,0-1.6ZM54.641,7.941a3.013,3.013,0,0,1,3.038-1.932l.664.051-.235.625a3.009,3.009,0,0,1-3.037,1.931l-.665-.051Zm-3.712.675a3.012,3.012,0,0,1-3.037-1.931l-.235-.625.664-.051a3.011,3.011,0,0,1,3.038,1.932l.235.624ZM50.8,15.4a3.015,3.015,0,0,1-3.6,0l-.533-.4.533-.4a3.015,3.015,0,0,1,3.6,0l.533.4Zm-.753,8.139a3.01,3.01,0,0,1-3.567-.482l-.475-.467.582-.325a3.012,3.012,0,0,1,3.568.482l.474.467ZM55.2,48.062a1,1,0,1,1-1.618,1.174l-1.4-1.926.841-.141A2.219,2.219,0,0,1,55.2,48.062ZM51.78,44.293A2.224,2.224,0,0,1,53.3,42.5a1,1,0,1,1,.619,1.9l-2.265.736ZM41.742,31.637a9.048,9.048,0,0,1,.009,2.759,9.576,9.576,0,0,1-1.035,3.156c-.081.152-.186.3-.279.448H37.722c0-.015.012-.029.017-.044a11.056,11.056,0,0,0,.549-2.851l3.152-5.457Zm-3.9-2.256,1.861-.729-1.713,2.966a11.225,11.225,0,0,0-.491-1.563c-.065-.156-.131-.294-.2-.438C37.483,29.534,37.661,29.451,37.845,29.381ZM33,26.852l1.247,1.56a9.135,9.135,0,0,1,.857,1.277,10.1,10.1,0,0,1,.549,1.125,9.341,9.341,0,0,1,.677,3.506,3.411,3.411,0,0,1-.019.438,9.331,9.331,0,0,1-.468,2.559c-.078.232-.189.457-.286.683H33Zm-4.658,3.974a10.078,10.078,0,0,1,.564-1.153,9,9,0,0,1,.845-1.259L31,26.852V38H28.443c-.1-.225-.207-.45-.284-.677a9.63,9.63,0,0,1-.477-2.647,2.824,2.824,0,0,1-.012-.356A9.327,9.327,0,0,1,28.342,30.826Zm-2.181-1.442c.18.069.358.151.534.233-.067.147-.135.289-.2.449a11.418,11.418,0,0,0-.487,1.551l-1.712-2.964Zm-3.9,2.247.3-1.983,3.162,5.476a11.369,11.369,0,0,0,.541,2.838l.015.038H23.563c-.094-.15-.2-.3-.282-.454A9.548,9.548,0,0,1,22.25,34.4a9.883,9.883,0,0,1-.1-1.371A8.965,8.965,0,0,1,22.259,31.631ZM52,58v1a1,1,0,0,1-1,1H13a1,1,0,0,1-1-1V58H52Zm-5.224-7.715A14.925,14.925,0,0,1,35,56H29A15.017,15.017,0,0,1,14,41V40H46.932a2.991,2.991,0,0,0-1.509,2.588,4.244,4.244,0,0,0,.344,1.674,3,3,0,0,0-.694,5.845,4.249,4.249,0,0,0,1.32.21c.129,0,.256-.026.385-.038Zm3.9-1.042a2.224,2.224,0,0,1-.175,2.345,1,1,0,0,1-.653.4,1.013,1.013,0,0,1-.744-.178,1,1,0,0,1-.221-1.4l1.4-1.928ZM50,40v.047c-.028-.017-.058-.031-.087-.047Zm-1.577,1.588a1,1,0,0,1,1,1V44.97l-.764-.382a2.223,2.223,0,0,1-1.236-2A1,1,0,0,1,48.423,41.588Zm.152,5.451-.6.608a2.223,2.223,0,0,1-2.285.558,1,1,0,0,1-.145-1.842.994.994,0,0,1,.764-.059Zm3.659-15.694a3.012,3.012,0,0,1,3.567.482l.475.467-.582.325a3.011,3.011,0,0,1-3.568-.482l-.474-.467Zm2.281-8.009a3.015,3.015,0,0,1,3.568.482l.474.467-.582.325a3.008,3.008,0,0,1-3.567-.482l-.475-.467ZM58.8,15.4a3.015,3.015,0,0,1-3.6,0l-.533-.4.533-.4a3.015,3.015,0,0,1,3.6,0l.533.4Z"></path><path d="M11.194,33.764a4.253,4.253,0,0,0,.712-1.578,3.009,3.009,0,0,0,1.568.461A3,3,0,0,0,15.9,27.885a4.241,4.241,0,0,0-1.264-1.154A3,3,0,0,0,11.76,21.6a4.241,4.241,0,0,0-1.489.846A3,3,0,0,0,4.5,23.588a4.245,4.245,0,0,0,.345,1.674,3,3,0,0,0-.694,5.845,4.249,4.249,0,0,0,1.32.21c.129,0,.256-.026.384-.038A3,3,0,0,0,8.761,35a3.064,3.064,0,0,0,.476-.038A2.976,2.976,0,0,0,11.194,33.764ZM7.053,28.647a2.228,2.228,0,0,1-2.284.558,1,1,0,0,1,.308-1.951,1,1,0,0,1,.31.05l2.265.735ZM6.5,23.588a1,1,0,0,1,2,0V25.97l-.764-.382A2.225,2.225,0,0,1,6.5,23.588Zm3.076,9a.993.993,0,0,1-.652.4,1.014,1.014,0,0,1-.744-.178,1,1,0,0,1-.222-1.4l1.4-1.928.394.759A2.224,2.224,0,0,1,9.576,32.588Zm4.7-3.526a1,1,0,0,1-1.618,1.174l-1.4-1.926.843-.141A2.223,2.223,0,0,1,14.279,29.062Zm-3.422-3.769a2.225,2.225,0,0,1,1.52-1.794A1,1,0,1,1,13,25.4l-2.266.736Z"></path><path d="M24.2,13.881a3,3,0,0,0,2.956,2.531,3.064,3.064,0,0,0,.476-.038,2.976,2.976,0,0,0,1.957-1.2,4.232,4.232,0,0,0,.706-1.556,2.98,2.98,0,0,0,1.1.4,2.939,2.939,0,0,0,.476.039A3,3,0,0,0,34.291,9.3a4.223,4.223,0,0,0-1.262-1.151,3,3,0,0,0-2.875-5.137,4.237,4.237,0,0,0-1.488.846A3,3,0,0,0,22.9,5a4.256,4.256,0,0,0,.345,1.677,3,3,0,0,0-.695,5.843,4.277,4.277,0,0,0,1.32.209c.13,0,.256-.026.385-.038A2.992,2.992,0,0,0,24.2,13.881Zm8.474-3.408a1,1,0,0,1-.221,1.4,1,1,0,0,1-1.4-.222l-1.4-1.926.843-.141A2.23,2.23,0,0,1,32.673,10.473ZM29.252,6.705a2.223,2.223,0,0,1,1.52-1.794,1.011,1.011,0,0,1,.311-.05,1,1,0,0,1,.307,1.951l-2.265.737Zm-1.106,4.95A2.222,2.222,0,0,1,27.971,14a1,1,0,1,1-1.618-1.175l1.4-1.928ZM25.9,4a1,1,0,0,1,1,1V7.382L26.131,7A2.224,2.224,0,0,1,24.9,5,1,1,0,0,1,25.9,4Zm-2.731,6.617a1,1,0,1,1,.618-1.9l2.265.736-.6.609A2.219,2.219,0,0,1,23.164,10.617Z"></path><path d="M18.919,6.518a1,1,0,0,0-1.341.447,5.5,5.5,0,0,0,0,4.894,1,1,0,1,0,1.789-.894,3.491,3.491,0,0,1,0-3.106A1,1,0,0,0,18.919,6.518Z"></path><path d="M2.547,21.521a1,1,0,0,0,1.345-.438,3.494,3.494,0,0,1,2.5-1.85,1,1,0,1,0-.347-1.968,5.5,5.5,0,0,0-3.933,2.912A1,1,0,0,0,2.547,21.521Z"></path><path d="M36.532,12.662a1,1,0,0,0,.662,1.75.99.99,0,0,0,.66-.25l.176-.154a4.213,4.213,0,0,0,1.3-4.26,1,1,0,1,0-1.934.508,2.225,2.225,0,0,1-.69,2.25Z"></path><path d="M18.854,43.644a1,1,0,1,0-1.869.712A14.983,14.983,0,0,0,18.007,46.5a1,1,0,0,0,.867.5.989.989,0,0,0,.5-.135,1,1,0,0,0,.365-1.366A13.012,13.012,0,0,1,18.854,43.644Z"></path><path d="M26.357,51.147A12.938,12.938,0,0,1,21.9,48.286a1,1,0,1,0-1.4,1.428,14.925,14.925,0,0,0,5.141,3.3,1,1,0,0,0,.714-1.868Z"></path></g></svg>