<svg height='100px' width='100px'  fill="#000000" xmlns="http://www.w3.org/2000/svg" xmlns:xlink="http://www.w3.org/1999/xlink" version="1.1" x="0px" y="0px" viewBox="0 0 65 65" enable-background="new 0 0 65 65" xml:space="preserve"><g><path d="M64.5,36.7V3.8h-9V1.3h2.2v-1.5h-5.9v1.5H54v2.5H11V1.3h2.2v-1.5H7.3v1.5h2.2v2.5h-9v32.9h16.1v3.7H9.6v1.5H28v21.9H19v1.5   h27v-1.5H37V41.9h18.4v-1.5h-7.1v-3.7H64.5z M2,5.3H63v29.9H2V5.3z M35.5,63.8h-6.1V41.9h6.1V63.8z M46.8,40.4H18.2v-3.7h28.7V40.4   z"></path><path d="M55.7,9.8H9.3c-1.5,0-2.8,1.2-2.8,2.8v15.3c0,1.5,1.2,2.8,2.8,2.8h46.3c1.5,0,2.8-1.2,2.8-2.8V12.6   C58.4,11,57.2,9.8,55.7,9.8z M56.9,27.9c0,0.7-0.6,1.3-1.3,1.3H9.3c-0.7,0-1.3-0.6-1.3-1.3V12.6c0-0.7,0.6-1.3,1.3-1.3h46.3   c0.7,0,1.3,0.6,1.3,1.3V27.9z"></path><rect x="25.6" y="16.6" width="1.5" height="1.5"></rect><rect x="29.7" y="16.6" width="1.5" height="1.5"></rect><rect x="17.4" y="16.6" width="1.5" height="1.5"></rect><rect x="21.5" y="16.6" width="1.5" height="1.5"></rect><rect x="33.8" y="16.6" width="1.5" height="1.5"></rect><rect x="42" y="16.6" width="1.5" height="1.5"></rect><rect x="37.9" y="16.6" width="1.5" height="1.5"></rect><rect x="46.1" y="16.6" width="1.5" height="1.5"></rect><rect x="21.5" y="21.9" width="1.5" height="1.5"></rect><rect x="17.4" y="21.9" width="1.5" height="1.5"></rect><rect x="46.1" y="21.9" width="1.5" height="1.5"></rect><rect x="29.7" y="21.9" width="1.5" height="1.5"></rect><rect x="33.8" y="21.9" width="1.5" height="1.5"></rect><rect x="42" y="21.9" width="1.5" height="1.5"></rect><rect x="25.6" y="21.9" width="1.5" height="1.5"></rect><rect x="37.9" y="21.9" width="1.5" height="1.5"></rect></g></svg>