<svg height='100px' width='100px'  fill="#000000" xmlns="http://www.w3.org/2000/svg" xmlns:ooo="http://xml.openoffice.org/svg/export" xmlns:xlink="http://www.w3.org/1999/xlink" xmlns:presentation="http://sun.com/xmlns/staroffice/presentation" xmlns:smil="http://www.w3.org/2001/SMIL20/" xmlns:anim="urn:oasis:names:tc:opendocument:xmlns:animation:1.0" version="1.2" viewBox="0 0 2540 2540" preserveAspectRatio="xMidYMid" fill-rule="evenodd" stroke-width="28.222" stroke-linejoin="round" xml:space="preserve" x="0px" y="0px"><defs class="ClipPathGroup"><clipPath id="a" clipPathUnits="userSpaceOnUse"><rect x="0" y="0" width="2540" height="2540"></rect></clipPath></defs><g class="SlideGroup"><g><g><g class="Slide" clip-path="url(#a)"><g class="Page"><g class="com.sun.star.drawing.ClosedBezierShape"><g><rect class="BoundingBox" stroke="none" fill="none" x="1367" y="1270" width="985" height="968"></rect><path fill="#000000" stroke="none" d="M 2294,1275 C 2300,1272 2306,1270 2313,1270 2320,1270 2326,1272 2332,1275 2338,1279 2342,1283 2346,1289 2349,1295 2351,1301 2351,1308 L 2351,1406 C 2351,1413 2349,1419 2346,1425 2344,1428 2342,1431 2340,1433 L 1535,2225 C 1532,2227 1530,2229 1527,2231 1521,2234 1515,2236 1508,2236 L 1406,2236 C 1399,2236 1393,2234 1387,2231 1381,2227 1377,2223 1373,2217 1370,2211 1368,2205 1368,2198 1368,2191 1370,2185 1373,2179 1375,2176 1377,2173 1379,2171 L 2286,1281 C 2289,1279 2291,1277 2294,1275 Z"></path></g></g><g class="com.sun.star.drawing.ClosedBezierShape"><g><rect class="BoundingBox" stroke="none" fill="none" x="848" y="945" width="355" height="151"></rect><path fill="#000000" stroke="none" d="M 861,1091 C 857,1089 854,1086 852,1082 850,1078 849,1074 849,1069 849,1064 850,1060 852,1056 854,1052 857,1049 861,1047 863,1046 864,1045 866,1045 L 1168,947 C 1171,946 1173,945 1176,945 1181,945 1185,947 1189,949 1193,951 1196,954 1198,958 1200,962 1202,966 1202,971 L 1202,1069 C 1202,1074 1200,1078 1198,1082 1196,1086 1193,1089 1189,1091 1185,1093 1181,1094 1176,1094 L 874,1094 C 869,1094 865,1093 861,1091 Z"></path></g></g><g class="com.sun.star.drawing.ClosedBezierShape"><g><rect class="BoundingBox" stroke="none" fill="none" x="163" y="279" width="2057" height="1808"></rect><path fill="#000000" stroke="none" d="M 371,1190 C 353,1199 338,1207 325,1216 315,1223 307,1230 301,1237 297,1242 294,1246 292,1250 291,1253 290,1255 290,1257 290,1260 291,1262 291,1264 292,1267 293,1271 295,1274 299,1284 306,1294 314,1304 334,1330 361,1356 388,1383 388,1383 388,1383 388,1383 396,1391 406,1396 418,1401 435,1409 454,1414 476,1419 526,1430 585,1435 649,1439 785,1448 939,1448 1058,1465 1067,1466 1074,1469 1081,1473 1091,1479 1098,1486 1104,1495 1189,1637 1277,1778 1363,1921 1594,1695 1823,1469 2052,1245 1908,1160 1764,1075 1620,990 1612,985 1605,979 1600,971 1492,813 1384,654 1277,495 L 1210,755 C 1208,761 1206,766 1203,771 1197,781 1190,788 1180,794 1179,795 1178,795 1176,796 909,926 639,1058 371,1190 371,1190 371,1190 371,1190 Z M 315,1076 C 315,1076 315,1076 315,1076 575,948 836,821 1094,695 L 1189,327 C 1190,321 1192,316 1195,311 1201,301 1208,294 1219,288 1229,282 1239,280 1250,280 1262,280 1272,282 1282,288 1291,293 1297,299 1303,307 1434,501 1566,695 1697,888 1861,985 2025,1081 2188,1179 2198,1184 2205,1191 2210,1201 2216,1211 2219,1221 2219,1233 2219,1245 2216,1255 2210,1265 2207,1270 2204,1274 2200,1278 1933,1539 1665,1803 1395,2067 1391,2071 1387,2074 1382,2077 1372,2083 1362,2086 1350,2086 1339,2086 1329,2083 1319,2077 1309,2071 1302,2064 1296,2055 1201,1898 1105,1742 1011,1587 899,1574 763,1574 641,1566 571,1562 504,1555 449,1543 419,1536 391,1528 367,1518 339,1506 316,1491 299,1473 268,1443 237,1412 213,1381 199,1363 187,1345 179,1326 174,1315 170,1304 168,1294 165,1282 163,1269 163,1257 163,1239 167,1221 174,1202 181,1186 191,1169 206,1153 218,1139 233,1126 253,1112 270,1100 291,1088 315,1076 315,1076 316,1076 316,1076 L 343,1133 315,1076 Z M 298,1473 L 343,1428 299,1473 C 299,1473 299,1473 299,1473 299,1473 299,1473 298,1473 Z"></path></g></g></g></g></g></g></g></svg>