<svg height='100px' width='100px'  fill="#000000" xmlns:dc="http://purl.org/dc/elements/1.1/" xmlns:cc="http://creativecommons.org/ns#" xmlns:rdf="http://www.w3.org/1999/02/22-rdf-syntax-ns#" xmlns:svg="http://www.w3.org/2000/svg" xmlns="http://www.w3.org/2000/svg" xmlns:sodipodi="http://sodipodi.sourceforge.net/DTD/sodipodi-0.dtd" xmlns:inkscape="http://www.inkscape.org/namespaces/inkscape" viewBox="0 0 32 32" version="1.1" x="0px" y="0px"><g transform="translate(0,-1020.3622)"><path style="text-indent:0;text-transform:none;direction:ltr;block-progression:tb;baseline-shift:baseline;color:#000000;enable-background:accumulate;" d="M 9.375,1030.375 A 0.50004991,0.50004991 0 0 0 9.03125,1031 l 0.90625,3.7812 a 0.50004991,0.50004991 0 0 0 0.125,0.25 l 2.6875,2.7188 2.75,12.2188 a 0.50004991,0.50004991 0 0 0 1,0 l 2.75,-12.1876 2.6875,-2.75 a 0.50004991,0.50004991 0 0 0 0.125,-0.25 L 23,1031 a 0.5153882,0.5153882 0 1 0 -1,-0.25 l -0.875,3.6562 -2.6875,2.75 a 0.50004991,0.50004991 0 0 0 -0.125,0.25 l -2.3125,10.125 -2.28125,-10.125 a 0.50004991,0.50004991 0 0 0 -0.15625,-0.25 l -2.6875,-2.75 L 10,1030.75 a 0.50004991,0.50004991 0 0 0 -0.625,-0.375 z" fill="#000000" fill-opacity="1" stroke="none" marker="none" visibility="visible" display="inline" overflow="visible"></path><path style="text-indent:0;text-transform:none;direction:ltr;block-progression:tb;baseline-shift:baseline;color:#000000;enable-background:accumulate;" d="m 16,1032.375 c -1.08869,0 -2,0.9113 -2,2 0,1.0887 0.91131,2 2,2 1.08869,0 2,-0.9113 2,-2 0,-1.0887 -0.91131,-2 -2,-2 z m 0,1 c 0.482123,0 1,0.5179 1,1 0,0.4821 -0.517877,1 -1,1 -0.482123,0 -1,-0.5179 -1,-1 0,-0.4821 0.517877,-1 1,-1 z" fill="#000000" fill-opacity="1" stroke="none" marker="none" visibility="visible" display="inline" overflow="visible"></path><path style="text-indent:0;text-transform:none;direction:ltr;block-progression:tb;baseline-shift:baseline;color:#000000;enable-background:accumulate;" d="m 9.5,1028.375 c -0.8268883,0 -1.5000097,0.6731 -1.5,1.5 -9.7e-6,0.8269 0.6731117,1.5 1.5,1.5 0.826888,0 1.50001,-0.6731 1.5,-1.5 10e-6,-0.8269 -0.673112,-1.5 -1.5,-1.5 z m 0,1 c 0.2203173,0 0.500003,0.2797 0.5,0.5 3e-6,0.2203 -0.2796827,0.5 -0.5,0.5 -0.2203174,0 -0.5000026,-0.2797 -0.5,-0.5 -2.6e-6,-0.2203 0.2796826,-0.5 0.5,-0.5 z" fill="#000000" fill-opacity="1" stroke="none" marker="none" visibility="visible" display="inline" overflow="visible"></path><path style="text-indent:0;text-transform:none;direction:ltr;block-progression:tb;baseline-shift:baseline;color:#000000;enable-background:accumulate;" d="m 22.5,1028.375 c -0.826888,0 -1.50001,0.6731 -1.5,1.5 -10e-6,0.8269 0.673112,1.5 1.5,1.5 0.826888,0 1.50001,-0.6731 1.5,-1.5 10e-6,-0.8269 -0.673112,-1.5 -1.5,-1.5 z m 0,1 c 0.220317,0 0.500003,0.2797 0.5,0.5 3e-6,0.2203 -0.279683,0.5 -0.5,0.5 -0.220317,0 -0.500003,-0.2797 -0.5,-0.5 -3e-6,-0.2203 0.279683,-0.5 0.5,-0.5 z" fill="#000000" fill-opacity="1" stroke="none" marker="none" visibility="visible" display="inline" overflow="visible"></path><path style="text-indent:0;text-transform:none;direction:ltr;block-progression:tb;baseline-shift:baseline;color:#000000;enable-background:accumulate;" d="m 22,1022.375 0,7 1,0 0,-7 -1,0 z" fill="#000000" fill-opacity="1" stroke="none" marker="none" visibility="visible" display="inline" overflow="visible"></path><path style="text-indent:0;text-transform:none;direction:ltr;block-progression:tb;baseline-shift:baseline;color:#000000;enable-background:accumulate;" d="m 9,1022.375 0,7 1,0 0,-7 -1,0 z" fill="#000000" fill-opacity="1" stroke="none" marker="none" visibility="visible" display="inline" overflow="visible"></path></g></svg>