<?xml version="1.0" encoding="utf-8"?>
<!-- Generator: Adobe Illustrator 24.2.1, SVG Export Plug-In . SVG Version: 6.00 Build 0)  -->
<svg version="1.1" id="Layer_1" xmlns="http://www.w3.org/2000/svg" xmlns:xlink="http://www.w3.org/1999/xlink" x="0px" y="0px"
	 viewBox="0 0 100 100" enable-background="new 0 0 100 100" xml:space="preserve">
<g>
	<path fill-rule="evenodd" clip-rule="evenodd" d="M34.094,48.89l-10.367-0.001c-3.489,0.735-7.835,11.975-8.317,15.675h12.835
		c3.217,0,5.849-2.632,5.849-5.849C34.094,58.714,34.094,48.89,34.094,48.89z M79.675,71.468c2.897,0,5.48,1.348,7.155,3.452V61.476
		c0-3.34-3.628-14.715-7.638-14.715H23.646c-5.053,0-10.475,14.728-10.475,19.304V78.17h1.527c1.067-3.863,4.608-6.702,8.81-6.702
		c4.199,0,7.743,2.838,8.811,6.702h38.547C71.932,74.307,75.473,71.468,79.675,71.468z M88.488,83.045
		c-1.068,3.863-4.609,6.703-8.812,6.703c-4.198,0-7.743-2.839-8.81-6.703H32.319c-1.067,3.863-4.608,6.703-8.811,6.703
		c-4.199,0-7.742-2.839-8.81-6.703H5.204c-3.208,0-3.208-4.876,0-4.876h3.091V66.064c0-7.225,6.806-24.18,15.351-24.18h6.234
		l1.639-2.856l-1.657-0.008c-1.604-0.008-2.561-1.752-1.773-3.104L42.14,11.294c0.539-0.945,1.714-1.302,2.68-0.84
		c10.798,4.587,16.927,15.26,15.465,26.9c-0.129,1.048-1.025,1.817-2.055,1.809l-1.368-0.007l1.565,2.728h20.765
		c7.545,0,12.514,13.494,12.514,19.591V78.17h3.091c3.208,0,3.208,4.876,0,4.876C94.797,83.045,88.488,83.045,88.488,83.045z
		 M23.508,75.765c-2.676,0-4.843,2.165-4.843,4.843c0,2.678,2.166,4.844,4.843,4.844c2.678,0,4.844-2.166,4.844-4.844
		C28.351,77.93,26.185,75.765,23.508,75.765z M79.675,75.765c-2.675,0-4.843,2.165-4.843,4.843c0,2.678,2.167,4.844,4.843,4.844
		c2.678,0,4.844-2.166,4.844-4.844C84.519,77.93,82.353,75.765,79.675,75.765z M55.059,41.885l-1.576-2.746l-18.605-0.093
		l-1.63,2.839C33.248,41.885,55.059,41.885,55.059,41.885z M40.827,26.905c-0.387-0.67-0.157-1.525,0.511-1.912
		c0.669-0.385,1.524-0.156,1.911,0.513c0.386,0.67,0.157,1.525-0.513,1.911C42.069,27.802,41.214,27.572,40.827,26.905z
		 M39.172,33.822c-0.327-0.566-0.135-1.29,0.432-1.617c0.566-0.327,1.291-0.132,1.618,0.433c0.326,0.566,0.132,1.291-0.435,1.616
		C40.223,34.583,39.496,34.389,39.172,33.822z M45.37,34.125c-0.334-0.579-0.136-1.318,0.443-1.652
		c0.579-0.334,1.318-0.136,1.652,0.444c0.334,0.578,0.136,1.317-0.443,1.651S45.704,34.703,45.37,34.125z M36.4,30.206
		c-0.446-0.771-0.182-1.759,0.591-2.204c0.771-0.445,1.757-0.181,2.203,0.591c0.445,0.772,0.182,1.759-0.591,2.204
		C37.831,31.243,36.845,30.979,36.4,30.206z M43.376,17.453c6.397,3.595,10.225,10.223,10.137,17.56l2.836,0.015
		c0.394-8.503-4.004-16.13-11.567-20.038C44.783,14.991,43.376,17.453,43.376,17.453z M40.516,49.552h37.42
		c0.808,0,1.462,0.656,1.462,1.463v17.436c0,0.808-0.654,1.462-1.462,1.462h-37.42c-0.807,0-1.462-0.654-1.462-1.462V51.016
		C39.053,50.208,39.709,49.552,40.516,49.552z M41.979,63.88h4.533v-1.332h3.477v1.332h7.547v-1.332h3.476v1.332h7.547v-1.332h3.477
		v1.332h4.436V52.478H75.81c-0.255,2.267-3.709,2.267-3.966,0h-0.209c-0.255,2.267-3.71,2.267-3.966,0h-0.206
		c-0.255,2.267-3.709,2.267-3.965,0h-0.206c-0.255,2.267-3.709,2.267-3.966,0h-0.204c-0.256,2.267-3.71,2.267-3.966,0H54.95
		c-0.255,2.267-3.709,2.267-3.966,0H50.78c-0.256,2.267-3.71,2.267-3.966,0h-0.206c-0.255,2.267-3.709,2.267-3.966,0h-0.663
		C41.979,52.478,41.979,63.88,41.979,63.88z"/>
</g>
</svg>
