<svg height='100px' width='100px'  fill="#000000" xmlns="http://www.w3.org/2000/svg" xmlns:xlink="http://www.w3.org/1999/xlink" version="1.1" x="0px" y="0px" viewBox="0 0 100 100" enable-background="new 0 0 100 100" xml:space="preserve"><path fill="#000000" d="M62.33,84.87L86,36.16l-1.99-18.68L68.11,27.46l-5.37,11.05l0.12-13.81L53.04,8.69L42.97,24.52l-0.18,19.57  l-6.56-18.98L21.62,13.32l-4.19,18.29L37.47,89.6c0.36,1.04,1.49,1.58,2.53,1.23l7.94-2.75l8.6,4.17c0.979,0.48,2.17,0.08,2.65-0.91  c0.04-0.09,0.079-0.189,0.1-0.29c0.04-0.03,0.07-0.08,0.1-0.14l1.44-2.96c0.85-0.21,1.49-0.98,1.5-1.91c0-0.09-0.01-0.19-0.03-0.29  c0.021-0.05,0.021-0.11,0.021-0.17L62.33,84.87z M30.88,29.84l-2.02,4.37l-4.3-2.19l-2.03,4.35l-1.76-5.1l1.95-9.76l3.11-1.07  l7.57,6.47l1.76,5.08L30.88,29.84z M70.71,29.58L79,24.06l2.95,1.44l0.78,9.93l-2.351,4.83l-1.5-4.54l-4.52,1.66l-1.49-4.59  l-4.51,1.64L70.71,29.58z M46.22,25.32l5.12-8.54l3.28,0.03l4.97,8.63l-0.05,5.38l-3.3-3.46l-3.38,3.44l-3.311-3.5l-3.37,3.41  L46.22,25.32z M53.73,52.1c0-0.58,0.01-1.149,0.01-1.709l2.17,2.169l-0.57,1.15L53.73,52.1z M54.88,54.66l-0.56,1.16l-0.61-0.61  c0-0.58,0-1.15,0.01-1.71L54.88,54.66z M53.76,48.99c0-0.58,0.01-1.15,0.01-1.71l3.16,3.17L56.37,51.6L53.76,48.99z M53.78,45.88  c0.01-0.59,0.01-1.15,0.01-1.71l4.17,4.17L57.4,49.5L53.78,45.88z M53.8,42.77c0.01-0.58,0.021-1.15,0.021-1.7l5.16,5.16  l-0.561,1.16L53.8,42.77z M53.83,39.66c0.01-0.59,0.02-1.15,0.02-1.69l5.591,5.59l-0.021,1.69L53.83,39.66z M53.87,36.57  c0.01-0.62,0.01-1.19,0.02-1.7l5.57,5.57l-0.01,1.71L53.87,36.57z M53.91,33.47c0.01-0.37,0.01-0.68,0.02-0.92l0.391-0.39l5.17,5.18  l-0.021,1.69L53.91,33.47z M55.01,31.44l1.2-1.22l3.31,3.45l-0.02,2.26L55.01,31.44z M48.5,31.2l1.02-1.04l2.42,2.56  c-0.011,0.47-0.021,1.11-0.03,1.89L48.5,31.2z M51.89,36.01c0,0.53-0.01,1.09-0.02,1.69l-4.93-4.93l0.85-0.86L51.89,36.01z   M46.15,33.57l0.09-0.09l5.62,5.62c-0.011,0.55-0.011,1.11-0.021,1.71l-5.7-5.7L46.15,33.57z M46.12,36.5l5.71,5.71  c0,0.55-0.01,1.12-0.01,1.71l-5.71-5.71L46.12,36.5z M46.09,39.61l5.71,5.71c0,0.55-0.01,1.12-0.01,1.7l-5.71-5.7L46.09,39.61z   M46.07,42.71l5.7,5.71c0,0.56,0,1.13-0.01,1.71l-5.71-5.71L46.07,42.71z M46.04,45.82l5.71,5.71c0,0.569-0.01,1.14-0.01,1.71  l-5.72-5.72L46.04,45.82z M46.01,48.92l5.721,5.72c0,0.561-0.011,1.141-0.021,1.71l-5.72-5.72L46.01,48.92z M45.97,53.28l0.01-1.25  l5.72,5.72c0,0.57,0,1.14-0.01,1.71l-5.72-5.72V53.28z M45.95,55.13l5.729,5.73v0.39l-0.43,0.9l-5.31-5.301L45.95,55.13z   M45.93,58.24l4.85,4.859l-0.56,1.16l-4.3-4.3L45.93,58.24z M45.89,63.01l0.01-1.66l3.86,3.86l-0.56,1.16l-3.31-3.311V63.01z   M45.88,64.46l2.85,2.86l-0.56,1.16l-2.31-2.311L45.88,64.46z M45.85,67.56l1.86,1.87l-0.57,1.15l-1.31-1.311L45.85,67.56z   M45.82,70.67l0.86,0.86l-0.89,1.83L45.82,70.67z M51.35,82.69c-0.229,0.47-0.43,0.899-0.609,1.27c-0.16,0.33-0.3,0.62-0.42,0.86  l-1.81-0.88l-0.32-0.15l-1.22-0.59l-1.26-0.61l-0.63-0.31l0.65-1.33L46,80.39l3.45-7.08l2.01-4.149l0.16-0.33l2.02-4.14l5.71-11.74  l3.32-6.82L67.11,37l4.51-1.63l1.09,3.35c-1.33,2.66-5.63,11.51-10.16,20.83c-1.1,2.29-2.22,4.601-3.319,6.86  c-1.841,3.8-3.601,7.43-5.08,10.51c-0.21,0.43-0.41,0.84-0.61,1.24c-0.51,1.06-0.98,2.04-1.41,2.92c-0.21,0.439-0.41,0.86-0.6,1.25  C51.47,82.45,51.41,82.57,51.35,82.69z M59.09,84.04l-1.91,3.94l-0.069,0.14l-0.23-0.14h-0.06l-3.58-1.74l-1.13-0.55  C52.56,84.77,53.02,83.8,53.51,82.8c0.5-1.04,1.021-2.12,1.561-3.229c1.3-2.71,2.699-5.59,4.12-8.521  c1.1-2.28,2.22-4.59,3.319-6.859c5.58-11.521,10.82-22.3,12.061-24.78l3.06-1.11l1.51,4.52L62.39,77.25L59.09,84.04z"></path></svg>