<svg height='100px' width='100px'  fill="#000000" xmlns="http://www.w3.org/2000/svg" viewBox="0 0 64 64" x="0px" y="0px"><path d="M45,62H59a.99979.99979,0,0,0,1-1V31a3.00328,3.00328,0,0,0-3-3H53V24.9251a6.979,6.979,0,0,0,4.88769-3.0506,6.535,6.535,0,0,0,.5742-6.2622l-5.542-13.00439a1,1,0,0,0-1.8398,0l-5.542,13.00439a6.535,6.535,0,0,0,.5742,6.2622A6.979,6.979,0,0,0,51,24.9251V28H47a3.00327,3.00327,0,0,0-3,3V61A.99978.99978,0,0,0,45,62Zm2.78129-41.228a4.565,4.565,0,0,1-.4034-4.3755L52,5.55078,56.62209,16.3965a4.56525,4.56525,0,0,1-.4033,4.3755A4.97037,4.97037,0,0,1,53,22.8948V20a1,1,0,0,0-2,0v2.8948A4.97,4.97,0,0,1,47.78129,20.772ZM46,31a1.00094,1.00094,0,0,1,1-1h4v1a1,1,0,0,0,2,0V30h4a1.001,1.001,0,0,1,1,1V60H46Z"></path><path d="M55,33H49a1,1,0,0,0,0,2h6a1,1,0,0,0,0-2Z"></path><path d="M37,25V23a3,3,0,0,0-6,0v2a3,3,0,0,0,6,0Zm-4,0V23a1,1,0,0,1,2,0v2a1,1,0,0,1-2,0Z"></path><path d="M19,58a1,1,0,0,0,0-2c-4.00681,0-7-1.584-7-3a1,1,0,0,0-2,0C10,55.8506,13.86909,58,19,58Z"></path><path d="M20,46a1,1,0,0,0,0-2c-2.44341,0-3.82711-.7275-4.001-1.0371A.99984.99984,0,0,0,14,43C14,45.061,17.11039,46,20,46Z"></path><path d="M20,38a1,1,0,0,0,0-2c-1.22071,0-2-.5923-2-1a1,1,0,0,0-2,0C16,36.6821,17.75679,38,20,38Z"></path><path d="M3,14H19v1a2.98935,2.98935,0,0,0,4.11569,2.7797A2.97341,2.97341,0,0,0,28,19.2197a2.97339,2.97339,0,0,0,4.88429-1.44A2.98937,2.98937,0,0,0,37,15V14h3a.99979.99979,0,0,0,1-1V9a.99976.99976,0,0,0-1-1H37V7a2.98941,2.98941,0,0,0-4.11571-2.77972A2.97342,2.97342,0,0,0,28,2.78027a2.97337,2.97337,0,0,0-4.88421,1.43994A2.98962,2.98962,0,0,0,19,7V8H3A.99975.99975,0,0,0,2,9v4A.99978.99978,0,0,0,3,14Zm36-4v2H37V10ZM34,6a1.001,1.001,0,0,1,1,1v8a1,1,0,0,1-2,0V7A1.001,1.001,0,0,1,34,6ZM30,4a1.001,1.001,0,0,1,1,1V17a1,1,0,0,1-2,0V5A1.001,1.001,0,0,1,30,4ZM25,5a1,1,0,0,1,2,0V17a1,1,0,0,1-2,0V5ZM21,7a1,1,0,0,1,2,0v8a1,1,0,0,1-2,0ZM4,10H19v2H4Z"></path><path d="M5,53c0,5.0469,7.90629,9,18,9s18-3.9531,18-9c0-2.5798-2.05481-4.944-5.68681-6.6197A4.63513,4.63513,0,0,0,37,43a5.16836,5.16836,0,0,0-2.53491-4.0831A3.89291,3.89291,0,0,0,36,36c0-3.4204-5.58891-6-13-6s-13,2.5796-13,6a3.89386,3.89386,0,0,0,1.53629,2.918A5.16234,5.16234,0,0,0,9,43a4.63537,4.63537,0,0,0,1.68649,3.3801C7.05369,48.0553,5,50.4184,5,53ZM23,32c6.29589,0,11,2.1118,11,4s-4.70411,4-11,4-11-2.1118-11-4S16.70409,32,23,32Zm-9.622,8.1078A22.133,22.133,0,0,0,23,42a22.13144,22.13144,0,0,0,9.62349-1.8929C34.15379,40.9823,35,42.0049,35,43c0,2.3647-4.92771,5-12,5s-12-2.6353-12-5C11,42.001,11.84689,40.9825,13.378,40.1078Zm-.75041,7.628A22.13988,22.13988,0,0,0,23,50a22.13718,22.13718,0,0,0,10.37389-2.265C36.89639,49.0879,39,51.0466,39,53c0,3.3804-6.42971,7-16,7S7,56.3804,7,53C7,51.0447,9.105,49.0884,12.62759,47.7358Z"></path></svg>