<svg height='100px' width='100px'  fill="#000000" xmlns="http://www.w3.org/2000/svg" data-name="Layer 1" viewBox="0 0 100 100" x="0px" y="0px"><title>Artboard 9</title><path d="M39.79,11.19a5.88,5.88,0,0,0-5.87,5.87V66a5.88,5.88,0,0,0,5.87,5.87H86.87A5.88,5.88,0,0,0,92.74,66V17.06a5.88,5.88,0,0,0-5.87-5.87Zm18.55,5h10v15.7l-3.5-2.59a2.5,2.5,0,0,0-3,0l-3.5,2.59Zm29.4.87V66a.87.87,0,0,1-.87.87H39.79a.87.87,0,0,1-.87-.87V17.06a.87.87,0,0,1,.87-.87H53.34V36.84a2.5,2.5,0,0,0,4,2l6-4.43,6,4.43a2.5,2.5,0,0,0,4-2V16.19H86.87A.87.87,0,0,1,87.74,17.06Z"></path><circle cx="21.28" cy="84.71" r="3.39"></circle><path d="M91.63,77.28H32.8a13.79,13.79,0,0,0-4.15-4.15V15.76a14.12,14.12,0,0,0-14.1-14.1H8.37a7.37,7.37,0,1,0,0,14.74h5.54V73.12A13.68,13.68,0,1,0,32.8,92H91.63a7.37,7.37,0,1,0,0-14.74ZM14.55,11.4H8.37a2.37,2.37,0,1,1,0-4.74h6.18a9.11,9.11,0,0,1,9.1,9.1V71.17a12.9,12.9,0,0,0-4.74,0V15.76A4.36,4.36,0,0,0,14.55,11.4Zm6.73,81.94a8.7,8.7,0,1,1,8.7-8.7A8.71,8.71,0,0,1,21.28,93.34ZM91.63,87H34.75a12.9,12.9,0,0,0,0-4.74H91.63a2.37,2.37,0,1,1,0,4.74Z"></path></svg>