<svg height='100px' width='100px'  fill="#000000" xmlns="http://www.w3.org/2000/svg" xmlns:xlink="http://www.w3.org/1999/xlink" version="1.1" x="0px" y="0px" viewBox="0 0 50 50" style="enable-background:new 0 0 50 50;" xml:space="preserve"><path d="M46.6005859,18.4140625c-0.9775391-0.6240234-3.5292969-1.203125-4.703125-0.9130859  c-0.7353516,0.1826172-1.8134766,0.6689453-2.7783203,1.9550781c-0.3339844,0.4453125-0.5898438,1.0019531-0.78125,1.5449219  c-0.5136719-0.4667969-1.1474609-0.8652344-1.8662109-0.9541016c-0.6396484-0.0800781-1.2509766-0.1367188-1.7441406-0.1767578  c0.0585938-0.2392578,0.1347656-0.5048828,0.2314453-0.7773438c0.1269531-0.3574219,0.3564453-0.7421875,0.5791016-1.1132813  c0.4287109-0.7167969,0.8730469-1.4580078,0.6328125-2.2402344c-0.0898438-0.2958984-0.3173828-0.7041016-0.8828125-0.96875  C32.609375,13.5195313,27.375,13.1982422,26.2363281,13.46875c-0.4794922,0.1142578-0.8701172,0.2285156-1.1689453,0.3417969  c-1.2119141-0.4052734-4.2470703-1.2558594-5.9111328-0.1982422c-0.3232422,0.2050781-0.5595703,0.3935547-0.7324219,0.5576172  c-0.4873047,0.0566406-1.21875,0.2128906-1.7167969,0.6445313c-0.4667969,0.4052734-1.3544922,1.6992188-1.7861328,2.3457031  c-0.8457031,0.4042969-2.9970703,1.4824219-3.8310547,2.3955078c-0.2060547,0.2236328-0.3691406,0.4511719-0.4990234,0.6660156  c-0.9199219-0.3457031-2.3271484-0.6152344-3.8242188,0.0556641c-1.7275391,0.7734375-2.4267578,2.3974609-2.7001953,3.3798828  l-0.0888672,0.0107422c-0.3457031,0.0419922-0.6445313,0.2597656-0.7900436,0.5761719  c-0.0419877,0.0927734-1.0449173,2.2939453-1.3789017,4.5742188l-0.0771484,0.5058594  c-0.1679688,1.0791016-0.3125,2.0107422,0.0927734,2.8408203c0.3583984,0.7324219,1.1513672,1.2763672,1.9189453,1.8017578  c0.3037109,0.2070313,0.5996094,0.4072266,0.8251953,0.6025391l0.453125,0.3974609  c1.0214844,0.8984375,2.1796875,1.9169922,3.2109375,2.3310547c1.5390625,0.6181641,4.4462891,0.8652344,6.5683594,1.0449219  c0.4208984,0.0361328,0.8027344,0.0683594,1.1240234,0.0996094c0.2822266,0.0273438,0.6298828,0.0683594,1.0107422,0.1123047  c1.0810547,0.1259766,2.3916016,0.2783203,3.3496094,0.2783203c0.140625,0,0.2744141-0.0029297,0.3974609-0.0107422  c1.8515625-0.1054688,5.9052734-1.1171875,7.0517578-1.6728516c0.3652344-0.1757813,0.6337891-0.4052734,0.8320313-0.6435547  c0.8662109,0.359375,2.1884766,0.7285156,3.4853516,0.4023438c2.5410156-0.6376953,3.4423828-3.0625,3.7480469-4.3759766  c0.4287109-0.0478516,0.9873047-0.1337891,1.6064453-0.2929688c1.9550781-0.5,5.7919922-3.3232422,6.8847656-4.1484375  c0.8398438-0.0859375,2.1025391-0.5283203,2.9033203-1.7929688C49.0292969,23.4003906,48.7568359,19.7900391,46.6005859,18.4140625z   M36.2255859,22.03125c0.5644531,0.0703125,1.3652344,1.0351563,1.7275391,1.6630859  c0.0072021,0.0125122,0.0187988,0.020752,0.0264282,0.0328979c-1.2426147,0.7120361-2.6455688,1.5567627-3.2637329,2.0764771  c-0.0117188,0.0095215-0.8840332,0.78125-1.321167,1.5353394c-0.9072266-0.4909058-2.4157715-0.7733765-3.4249268-0.5376587  c0.0046997-0.1331177,0.0245972-0.2896729,0.0810547-0.4537354c0.0072632-0.0210571,0.0041504-0.0422974,0.0084839-0.0635376  c0.3511963-0.1836548,0.6344604-0.3626099,0.8098755-0.484314c1.4943848-1.0377197,2.1176147-2.6135254,2.480835-4.0449219  c0.0493164,0.0100098,0.0942993,0.034729,0.1451416,0.0371094C33.5087891,21.7919922,34.8095703,21.8554688,36.2255859,22.03125z   M26.9497681,30.477417c-0.4592896-0.2099609-0.9545288-0.1238403-1.4728394,0.0748291  c-1.0126343-0.3712158-1.9802246-0.9041138-2.0755615-1.1391602c-0.0273438-0.2089844,0.4980469-0.7324219,0.8125-1.0449219  c0.4960938-0.4941406,1.0087891-1.0048828,1.1416016-1.5878906c0.0125732-0.0552368,0.0169678-0.1191406,0.0252075-0.1790771  c0.6327515,0.3092041,1.2706299,0.4388428,1.8800659,0.4388428c0.614502,0,1.1987305-0.1219482,1.7176514-0.293396  c-0.0087891,0.1836548-0.0004272,0.3623047,0.0350952,0.5283203C28.1119995,27.9564209,27.3296509,29.1834717,26.9497681,30.477417z   M23.2070923,21.7662354c0.6538086,1.6380615,1.3759155,3.9017944,1.1737671,4.7913818  c-0.0683651,0.3017578-0.4960938,0.7265625-0.8730469,1.1015625c-0.5839844,0.5820313-1.1884766,1.1835938-1.0986328,1.8818359  c0.0840454,0.6397095,0.9540405,1.1873169,1.8245239,1.5846558c-0.6808472,0.3275146-1.4320068,0.6456909-2.2659302,0.6741333  l-0.1679688,0.0068359c-1.0888672,0.0419922-2.4375,0.0917969-4.3515625-1.0947266  c-0.6669922-0.4130859-1.6767578-1.2666016-2.1660156-1.6904297c0.5615234-1.1152344,1.71875-3.2558594,2.3955078-3.8408203  c0.6494141-0.5615234,3.1171875-1.4921875,4.0136719-1.8027344c0.0742188-0.0263672,0.1425781-0.0693359,0.1972656-0.1269531  C22.012207,23.1218262,22.5965576,22.5033569,23.2070923,21.7662354z M33.7959595,16.3282471  c0.1087036,0.0376587,0.218689,0.0748901,0.3202515,0.1151123c-0.0878906,0.1640625-0.2041016,0.3583984-0.2939453,0.5087891  c-0.2597694,0.4345703-0.5546875,0.9267578-0.7480469,1.4716797c-0.4189453,1.1816406-0.5224609,2.2304688-0.5263672,2.2744141  c-0.0018921,0.0195313,0.0068359,0.0378418,0.0061035,0.057373c-0.3054199,1.4404297-0.7902832,3.2058716-2.255127,4.2219238  c-0.6386719,0.4433594-2.8710938,1.7910156-4.8251953,0.5410156c-0.038208-0.0247192-0.0807495-0.0348511-0.1223755-0.0479126  c-0.0299072-0.2139893-0.0697021-0.4354248-0.1185303-0.6627197c0.9242554,0.4642944,1.8641968,0.7077026,2.7213745,0.7077026  c0.9033203,0,1.7148438-0.2626953,2.3183594-0.7978516c0.9072266-0.8046875,1.3085938-2.6054688,1.6953125-4.3466797  c0.2470703-1.1064453,0.5009766-2.25,0.8466797-2.8388672C33.0910645,17.0595703,33.3806152,16.619873,33.7959595,16.3282471z   M32.6699219,16.0043335c-0.2832031,0.3181763-0.5130005,0.6709595-0.71875,1.0220337  c-0.4238281,0.7236328-0.6835938,1.8916016-0.9589844,3.1269531c-0.3369141,1.5126953-0.7177734,3.2265625-1.3837891,3.8164063  c-1.0071411,0.895813-2.9902344,0.6618042-4.743042-0.5368042c-0.3400269-1.0922852-0.746521-2.0960083-0.9507446-2.5782471  c0.1829224-0.2521973,0.3435059-0.4968262,0.4815063-0.7323608c0.711792,0.194519,1.3590698,0.314209,1.9007568,0.314209  c0.7128906,0,1.2763672-0.1679688,1.6855469-0.5048828c0.484375-0.3974609,0.71875-1.0253906,0.6435547-1.7216797  c-0.100647-0.9176636-0.946167-1.9013672-2.2655029-2.7073364c0.1055298-0.0285034,0.2038574-0.0559692,0.3397217-0.088562  C27.2338867,15.3012695,30.2862549,15.4376221,32.6699219,16.0043335z M24.7666016,15.8251953  c0.0585327,0.0215454,0.1140747,0.0344238,0.1698608,0.0476685c1.753479,0.8079834,2.6278687,1.8301392,2.6953735,2.4454956  c0.0273438,0.2548828,0,0.6064453-0.2841797,0.8408203c-0.2585449,0.2147217-0.9407349,0.4730835-2.5853882,0.0380859  c0.0493774-0.4901733-0.1499023-1.1507568-0.2944946-1.4355469c-0.4657593-0.9152832-1.9852905-2.1306152-4.1150513-2.5100098  C21.229126,14.8569336,23.4586792,15.3418579,24.7666016,15.8251953z M15.0204468,19.3465576  c-0.651062,1.4123535-1.6165161,3.0461426-2.5392456,4.4963989c-0.0221558-0.0690308-0.0440063-0.1459351-0.0661011-0.2219849  c-0.0275879-0.1217651-0.0508423-0.2457275-0.0934448-0.3590698c-0.1353149-0.5645142-0.2228394-1.2244263-0.1169434-1.8182373  c0.0733643-0.1549683,0.1830444-0.3447266,0.3607178-0.5383911C12.9306641,20.5054321,14.0184326,19.8656616,15.0204468,19.3465576z   M7.5849609,22.1025391c1.0423584-0.4684448,2.0327148-0.1506348,2.5562744,0.0946655  c0.3252563,0.2043457,0.961853,0.7200317,1.227417,1.383667c0.1625366,0.6541748,0.3608398,1.1464233,0.4328613,1.3128052  c-0.8566895,1.2994995-1.5811157,2.3190308-1.829834,2.6658936c-0.2608643,0.0871582-0.5739136,0.1851196-0.8925781,0.2781372  c-1.6619873-0.1759033-3.3236694-0.6903076-3.2184448-3.0604248c0.0079956-0.0350952,0.0256958-0.0661621,0.0299683-0.102478  C5.8925781,24.6552734,6.1289063,22.7539063,7.5849609,22.1025391z M26.8642578,35.3486328  c-0.8652344,0.4189453-4.6396484,1.3828125-6.2958984,1.4775391c-0.7890625,0.0410156-2.2998047-0.1308594-3.4023438-0.2578125  c-0.3945313-0.0458984-0.7539063-0.0878906-1.0458984-0.1162109c-0.3291016-0.0322266-0.7197266-0.0654297-1.1503906-0.1025391  c-1.8837891-0.1591797-4.7304688-0.4013672-5.9921875-0.9072266c-0.7128906-0.2871094-1.7783203-1.2236328-2.6347656-1.9775391  l-0.4648438-0.40625c-0.2929688-0.2548828-0.6552734-0.5029297-1.0048828-0.7421875  c-0.4208984-0.2880859-1.125-0.7705078-1.2519531-1.0302734c-0.1298828-0.2646484-0.0244141-0.9394531,0.0869141-1.6552734  l0.0791016-0.5224609c0.2041016-1.390625,0.7138672-2.7958984,1.0048828-3.5234375l0.0994873-0.0117188  c0.0821533,0.7025757,0.3050537,1.2589111,0.6227417,1.6870117c0.0351563,1.4013672,1.1748657,1.9351196,1.8998413,1.9379883  c0.0029297,0,0.0058594,0,0.0078125,0c0.8349609,0,2.8017578-0.6679688,3.0234375-0.7441406  c0.0976563-0.0332031,0.1816406-0.0957031,0.2421827-0.1777344c0.1887865-0.258728,4.5468187-6.2587891,5.7675829-9.8091431  c0.579895-0.8814697,1.3392334-1.9438477,1.5605469-2.1400757c0.1162109-0.0888672,0.5625-0.1826172,0.8984375-0.1884766  c0.0489502-0.0005493,0.0925293-0.0092773,0.1385498-0.0142822c2.5906372,0.0074463,4.1914063,1.4368896,4.5235596,2.0894775  c0.1308594,0.2587891,0.2353516,0.7666016,0.2041016,0.9023438c-0.1796875,0.6923828-1.6132813,2.3867188-2.5322266,3.3574219  c-0.6630859,0.2333984-3.3779297,1.2197266-4.2246094,1.9501953c-1.0458984,0.9033203-2.6328125,4.1367188-2.8105469,4.5019531  c-0.0976563,0.2011719-0.0498047,0.4423828,0.1171875,0.5917969c0.0654297,0.0585938,1.6142578,1.4394531,2.5908203,2.0439453  c2.1738281,1.3476563,3.7578125,1.2851563,4.9169922,1.2441406l0.1650391-0.0058594  c1.1875-0.0419922,2.1992188-0.5400391,3.0126953-0.9404297c0.7451172-0.3681641,1.2382813-0.5966797,1.5283203-0.4677734  c-0.015625,0.1220703-0.0791016,0.3398438-0.1279297,0.5068359c-0.2296143,0.7813721-0.6190186,2.1728516,0.6035767,3.3305664  C26.980896,35.272522,26.9337158,35.3151855,26.8642578,35.3486328z M31.5644531,34.96875  c-1.0927734,0.2763672-2.2350407-0.2040443-2.9764404-0.6773071c-0.8652954-0.8555908-0.9533691-1.944397-0.8555908-2.7338257  c0.2050724-1.6669922,1.3261719-3.2666016,2.2460938-3.7148438c0.6826172-0.3349609,2.6103516-0.0048828,3.2158203,0.5527344  c0.2041016,0.1875,0.9892578,1.2910156,0.8085938,2.8896484C34.0014648,31.2982788,33.6640625,34.4414063,31.5644531,34.96875z   M36.9101563,30.3017578c-0.9180298,0.2357178-1.6716919,0.2781982-1.8901978,0.2859497  c-0.0530396-1.1798096-0.4981689-2.0755615-0.8512573-2.5703125c0.1025391-0.3057251,0.7570801-1.0846558,1.1896973-1.4480591  c1.1240234-0.9443359,5.3427734-3.2109375,5.3837891-3.2333984c0.9345703-0.5,2.03125-0.8642578,2.2910156-0.7734375  c0.1464844,0.0703125,0.5195313,0.5644531,0.6240234,1.0302734c0.0761719,0.336792,0.21698,1.4873047-0.680603,2.9823608  C41.4927368,27.6890259,38.2978516,29.9467163,36.9101563,30.3017578z M45.5048828,25.2275391  c-0.3358154,0.5307007-0.8175049,0.7388306-1.1523438,0.8223267c0.4855347-1.260437,0.3794556-2.2381592,0.28125-2.6758423  c-0.1533203-0.6816406-0.6943359-1.546875-1.2548828-1.75c-0.859375-0.3085938-2.5966797,0.5566406-3.1083984,0.8300781  c-0.0258179,0.013855-0.1446533,0.0778198-0.3193359,0.1727905c0.1491699-0.6419067,0.4051514-1.4872437,0.7675781-1.9706421  c0.4775391-0.6357422,1.0664063-1.0673828,1.6572266-1.2138672c0.5136719-0.1259766,2.5146484,0.2529297,3.1484375,0.6572266  C46.609375,20.7919922,46.8310547,23.1328125,45.5048828,25.2275391z"></path></svg>