<svg height='100px' width='100px'  fill="#000000" xmlns="http://www.w3.org/2000/svg" xmlns:xlink="http://www.w3.org/1999/xlink" xml:space="preserve" version="1.1" style="shape-rendering:geometricPrecision;text-rendering:geometricPrecision;image-rendering:optimizeQuality;" viewBox="0 0 846.66 846.66" x="0px" y="0px" fill-rule="evenodd" clip-rule="evenodd"><defs><style type="text/css">
   
    .fil0 {fill:#000000;fill-rule:nonzero}
   
  </style></defs><g><path class="fil0" d="M332.71 389.38c-24.77,19.38 -54.26,-18.28 -29.48,-37.67 5.86,-4.56 11.86,-8.84 18,-12.84l-17.87 -17.87 -77.87 77.87 51.91 52.51c-44.5,91.79 -40.45,188.89 34.78,264.12 85.13,85.14 222.85,85.14 307.98,0 85.04,-85.03 85.03,-222.94 -0.01,-307.98 -78.28,-78.28 -201.97,-84.71 -287.44,-18.14zm-3.91 34.76c22.28,-22.27 48.59,-38.03 76.6,-47.29 -50.22,151.85 94.92,296.99 246.76,246.77 -9.25,28.01 -25.01,54.32 -47.28,76.6 -181.58,181.58 -457.66,-94.5 -276.08,-276.08zm130.25 -392.76c-0.04,-15.69 23.82,-15.77 23.87,-0.07l0.01 60.41c0.05,15.68 -23.82,15.77 -23.87,0.07l-0.01 -60.41zm-10.31 64.64c11.13,11.13 -5.8,28.05 -16.92,16.92l-42.72 -42.72c-11.13,-11.12 5.79,-28.05 16.92,-16.92l42.72 42.72zm-16.92 61.42c11.12,-11.13 28.05,5.79 16.92,16.92l-42.72 42.72c-11.13,11.13 -28.05,-5.79 -16.92,-16.92l42.72 -42.72zm104.14 -104.14c11.12,-11.13 28.05,5.8 16.92,16.92l-42.72 42.72c-11.13,11.13 -28.05,-5.79 -16.92,-16.92l42.72 -42.72zm-108.4 69.92c15.74,0 15.74,23.94 0,23.94l-60.42 0c-15.75,0 -15.75,-23.94 0,-23.94l60.42 0zm29.5 27.19c-17.8,-17.8 9.28,-44.87 27.08,-27.07 88.34,88.34 -45.99,222.69 -134.34,134.34l-98.79 -98.78c-52.53,-52.53 -132.81,27.57 -80.19,80.19l66.61 66.61 -27.07 27.08 -66.62 -66.62c-88.32,-88.32 46.02,-222.67 134.35,-134.34l98.78 98.79c52.57,52.56 132.75,-27.63 80.19,-80.2zm-91.42 165.19c98.86,-40.37 212.57,-17.71 288.36,58.08 103.73,103.73 103.75,271.93 0.01,375.67 -103.64,103.64 -272.04,103.64 -375.68,0 -75.55,-75.56 -98.4,-189.17 -58.16,-288.05l-62.03 -62.77 145.22 -145.21 62.28 62.28z"></path></g></svg>