<svg height='100px' width='100px'  fill="#000000" xmlns:dc="http://purl.org/dc/elements/1.1/" xmlns:cc="http://creativecommons.org/ns#" xmlns:rdf="http://www.w3.org/1999/02/22-rdf-syntax-ns#" xmlns:svg="http://www.w3.org/2000/svg" xmlns="http://www.w3.org/2000/svg" xmlns:sodipodi="http://sodipodi.sourceforge.net/DTD/sodipodi-0.dtd" xmlns:inkscape="http://www.inkscape.org/namespaces/inkscape" version="1.1" x="0px" y="0px" viewBox="0 0 100 100"><g transform="translate(0,-952.36218)"><path style="text-indent:0;text-transform:none;direction:ltr;block-progression:tb;baseline-shift:baseline;color:#000000;enable-background:accumulate;" d="m 23.77965,958.81538 c -2.3863,0 -4.4778,1.3422 -5.9063,3.3125 -1.4282,1.9703 -2.2812,4.5883 -2.2812,7.4687 l 0,65.53132 c 0,2.8808 0.853,5.4986 2.2812,7.4687 1.4285,1.9703 3.52,3.3126 5.9063,3.3126 l 34.2187,0 c 2.3866,0 4.4779,-1.342 5.9063,-3.3126 0.6011,-0.8287 1.0922,-1.7828 1.4687,-2.8124 l 15.0626,0 c 1.2052,0 2.2386,-0.7045 2.9062,-1.6876 0.668,-0.9828 1.0625,-2.2541 1.0625,-3.625 l 0,-0.3437 0,-4.8437 a 1.2075316,1.2885661 0 0 0 0,-0.094 l 0,-17.75 a 1.2075316,1.2885661 0 0 0 0,-0.1875 l 0,-5.1875 0,-0.3438 c 0,-1.3737 -0.3926,-2.639 -1.0625,-3.625 -0.6697,-0.9861 -1.6962,-1.6874 -2.9062,-1.6874 l -14.25,0 0,-30.81262 c 0,-2.8805 -0.8529,-5.4984 -2.2813,-7.4687 -1.4284,-1.9703 -3.5197,-3.3125 -5.9063,-3.3125 l -34.2187,0 z m 0,2.5938 34.2187,0 c 1.4244,0 2.7544,0.7907 3.8126,2.25 1.0576,1.4591 1.75,3.5624 1.75,5.9374 l 0,30.81262 -26.1876,0 c -1.2096,0 -2.2675,0.7013 -2.9374,1.6874 -0.6701,0.986 -1.0313,2.2513 -1.0313,3.625 l 0,0.3438 0,5.1875 a 1.2075316,1.2885661 0 0 0 0,0.125 l 0,17.75 a 1.2075316,1.2885661 0 0 0 0,0.1563 l 0,4.8437 0,0.3437 c 0,1.3757 0.3567,2.6438 1.0313,3.625 0.6743,0.9817 1.7325,1.6876 2.9374,1.6876 l 25.1876,0 c -0.221,0.463 -0.4736,0.8995 -0.75,1.2812 -1.0584,1.4593 -2.3884,2.25 -3.8126,2.25 l -34.2187,0 c -1.4239,0 -2.7546,-0.7907 -3.8125,-2.25 -1.0579,-1.4593 -1.75,-3.5625 -1.75,-5.9375 l 0,-65.53132 c 0,-2.375 0.6921,-4.4784 1.75,-5.9374 1.0579,-1.4593 2.3886,-2.25 3.8125,-2.25 z m 1.8125,8.5937 c -0.6548,0.066 -1.188,0.6863 -1.1562,1.3437 0.032,0.6573 0.6231,1.2473 1.2812,1.25 l 10.4375,0 c 0.7097,0.051 1.4063,-0.6009 1.4063,-1.3124 0,-0.7115 -0.6966,-1.3318 -1.4063,-1.2813 l -10.4375,0 -0.125,0 z m 0,10.4375 c -0.6552,0.066 -1.1879,0.6861 -1.1562,1.3438 0.032,0.6576 0.6228,1.2477 1.2812,1.25 l 30.3438,0 c 0.7095,0.05 1.4062,-0.57 1.4062,-1.2813 0,-0.7113 -0.6967,-1.3626 -1.4062,-1.3125 l -30.3438,0 -0.125,0 z m -0.125,10.4375 c -0.679,0.066 -1.2216,0.7274 -1.1562,1.4063 0.066,0.679 0.7272,1.2528 1.4062,1.1874 l 30.3438,0 c 0.7096,0.051 1.4062,-0.6009 1.4062,-1.3124 0,-0.7115 -0.6965,-1.3318 -1.4062,-1.2813 l -30.3438,0 c -0.083,-0.01 -0.1669,-0.01 -0.25,0 z m 11.9062,12.46872 43.0626,0 c 0.3209,0 0.6471,0.1518 0.9687,0.625 0.3215,0.4732 0.5937,1.2188 0.5937,2.0938 l 0,4.4375 -13.9374,8.625 -7.6876,4.75 c -0.083,0.051 -0.2031,0.1148 -0.3124,0.1563 -0.328,0.1244 -0.7565,0.1874 -1.1876,0.1874 -0.431,0 -0.8593,-0.063 -1.1874,-0.1874 -0.1093,-0.041 -0.1989,-0.1052 -0.2813,-0.1563 l -7.625,-4.7187 -13.9687,-8.6563 0,-4.4375 c 0,-0.8705 0.2361,-1.5878 0.5624,-2.0625 0.326,-0.4749 0.6795,-0.6563 1,-0.6563 z m -1.5624,10.125 10.9687,6.8126 -10.9687,6.7812 0,-13.5938 z m 46.1874,0 0,13.5938 -10.9687,-6.7812 10.9687,-6.8126 z m -32.8124,8.3126 7.0312,4.3124 c 0.8228,0.5093 1.7266,0.7188 2.6562,0.7188 0.9296,0 1.8958,-0.2095 2.7188,-0.7188 l 7,-4.3124 13.4062,8.25 0,4.0937 c 0,0.8724 -0.2679,1.6141 -0.5937,2.0937 -0.3259,0.4796 -0.6526,0.6563 -0.9687,0.6563 l -43.0626,0 c -0.3158,0 -0.6742,-0.1767 -1,-0.6563 -0.3258,-0.4796 -0.5624,-1.2213 -0.5624,-2.0937 l 0,-4.0937 13.375,-8.25 z" fill="#000000" fill-opacity="1" stroke="none" marker="none" visibility="visible" display="inline" overflow="visible"></path></g></svg>