<svg height='100px' width='100px'  fill="#000000" xmlns="http://www.w3.org/2000/svg" xmlns:xlink="http://www.w3.org/1999/xlink" version="1.1" x="0px" y="0px" viewBox="0 0 100 100" enable-background="new 0 0 100 100" xml:space="preserve"><g><g><path d="M77.8,25.3H23.3L15.2,6.9l-2.7,1.2L20.3,26c-0.2,0.2-0.2,0.5-0.2,0.8V74c0,0.8,0.7,1.5,1.5,1.5h56.2v-3H23.1V59L78,51    c0.7-0.1,1.3-0.7,1.3-1.5V26.8C79.3,26,78.7,25.3,77.8,25.3z M76.3,37.1H59.7v-8.8h16.7V37.1z M41.3,37.1v-8.8h15.3v8.8H41.3z     M56.7,40.1v11l-15.3,2.2V40.1H56.7z M23.1,28.3h15.3v8.8H23.1V28.3z M23.1,40.1h15.3v13.7l-15.3,2.2V40.1z M59.7,50.7V40.1h16.7    v8.2L59.7,50.7z"></path><path d="M33,80c-2.7-0.6-5.5,0.4-7.1,2.5c-1.4,1.7-1.9,3.9-1.4,6c0.6,2.6,2.7,4.7,5.3,5.3c0.5,0.1,1.1,0.2,1.6,0.2    c2.2,0,4.2-1,5.5-2.7s1.9-3.9,1.4-6C37.7,82.6,35.6,80.6,33,80z M34.6,89.5c-1,1.2-2.6,1.8-4.2,1.4c-1.5-0.3-2.7-1.6-3-3    c-0.3-1.3,0-2.5,0.8-3.5c0.8-1,2-1.5,3.2-1.5c0.3,0,0.6,0,1,0.1c1.5,0.3,2.7,1.6,3,3C35.7,87.2,35.4,88.5,34.6,89.5z"></path><path d="M69.3,80c-2.7-0.6-5.5,0.4-7.1,2.5c-1.4,1.7-1.9,3.9-1.4,6.1c0.6,2.6,2.7,4.7,5.3,5.3c0.5,0.1,1.1,0.2,1.6,0.2    c2.2,0,4.2-1,5.5-2.7s1.9-3.9,1.4-6C74,82.6,71.9,80.6,69.3,80z M70.8,89.5c-1,1.2-2.6,1.8-4.2,1.4c-1.5-0.3-2.7-1.6-3-3    c-0.3-1.3,0-2.5,0.8-3.5c0.8-1,2-1.5,3.2-1.5c0.3,0,0.6,0,1,0.1c1.5,0.3,2.7,1.6,3,3C71.9,87.2,71.6,88.5,70.8,89.5z"></path></g></g></svg>