<?xml version="1.0" encoding="utf-8"?>
<!-- Generator: Adobe Illustrator 24.2.1, SVG Export Plug-In . SVG Version: 6.00 Build 0)  -->
<svg version="1.1" id="Layer_1" xmlns="http://www.w3.org/2000/svg" xmlns:xlink="http://www.w3.org/1999/xlink" x="0px" y="0px"
	 viewBox="0 0 100 100" enable-background="new 0 0 100 100" xml:space="preserve">
<g>
	<path d="M67.233,33.097c0.058,0.232,0.007,0.488-0.16,0.683c-0.275,0.322-0.757,0.358-1.078,0.083
		c-0.902-0.773-1.232-0.958-1.317-0.86c-0.162,0.188-0.297,0.695-0.453,1.283c-0.115,0.432-0.24,0.902-0.417,1.387
		c-0.007,0.02-0.015,0.038-0.023,0.058l-1.077,2.707h0.002c-0.002,0.007-0.005,0.012-0.01,0.018l-0.003,0.007
		c-0.008,0.02-0.017,0.038-0.025,0.057c0.712-0.165,2.25-1.105,2.783-1.432c0.097-0.058,0.163-0.1,0.227-0.133
		c0.37-0.202,0.835-0.065,1.037,0.305c0.055,0.102,0.085,0.21,0.092,0.318h0.002l0.265,4.02c0.027,0.422-0.293,0.785-0.715,0.812
		c-0.053,0.003-0.105,0.002-0.157-0.007c-0.807-0.117-1.685-0.245-2.528-0.438c-0.877-0.202-1.708-0.472-2.377-0.872v0.002
		l-3.572-2.11c-0.358-0.212-0.482-0.672-0.278-1.033c0.708-1.495,0.647-2.51,0.215-3.098c-0.33-0.452-0.895-0.672-1.48-0.668
		c-0.605,0.003-1.22,0.247-1.623,0.72c-0.528,0.623-0.695,1.682-0.027,3.193c0.17,0.387-0.005,0.838-0.392,1.01
		c-0.077,0.033-0.155,0.053-0.232,0.062c-0.165,0.03-0.315,0.072-0.452,0.128c-0.628,0.258-0.978,0.85-1.143,1.607
		c-0.195,0.897-0.14,2.003,0.037,3.12c0.297,1.868,0.933,3.738,1.355,4.763c0.595,1.443,0.538,2.482,0.123,3.133
		c-0.462,0.723-1.272,0.957-2.162,0.753c-0.407-0.093-0.833-0.283-1.245-0.563l-4.785,2.987c1.572-0.377,3.133-0.768,4.682-1.173
		c3.097-0.807,5.347-1.533,7.333-2.448c0.945-0.437,1.833-0.917,2.728-1.473l-1.202-7.875c-0.063-0.418,0.225-0.808,0.643-0.872
		c0.117-0.017,0.23-0.008,0.337,0.025c0.797,0.205,1.435,0.442,2.05,0.67c1.147,0.425,2.213,0.822,3.958,0.828
		c0.418,0.002,0.757,0.34,0.76,0.758l0.017,1.737l0.045-0.033c1.245-0.922,2.877-2.13,4.477-3.087
		c1.11-0.663,1.808-1.065,2.603-1.272c0.635-0.165,1.27-0.19,2.142-0.107c0.02-0.062,0.047-0.12,0.083-0.177
		c0.315-0.493,0.53-0.97,0.665-1.43l-10.855-3.9c-0.318-0.113-0.483-0.463-0.368-0.782c0.113-0.318,0.463-0.483,0.782-0.368
		l10.625,3.818c0.008-1.807-1.11-3.29-1.912-4.353c-0.275-0.365-0.518-0.687-0.695-0.982c-0.385-0.638-0.715-0.732-1.203-0.867
		c-0.433-0.12-0.948-0.265-1.64-0.633c-0.35-0.187-0.495-0.607-0.347-0.965c0.513-1.298,0.355-2.183-0.1-2.683
		c-0.355-0.392-0.898-0.57-1.432-0.537c-0.522,0.033-1.022,0.273-1.307,0.722c-0.407,0.64-0.408,1.725,0.457,3.302
		c0.175,0.32,0.098,0.708-0.163,0.94c-0.327,0.327-0.713,0.452-1.098,0.575c-0.285,0.092-0.572,0.183-0.475,0.643L67.233,33.097z
		 M81.112,61.053c0.422,0,0.763,0.342,0.763,0.763c0,0.422-0.342,0.763-0.763,0.763c-1.91,0.005-3.618-0.798-5.11-1.507
		c-0.502,0.452-1.22,0.968-2.107,1.532c-1.212,0.77-2.758,1.638-4.508,2.55c-0.375,0.195-0.838,0.048-1.033-0.327
		s-0.048-0.838,0.327-1.033c1.715-0.892,3.223-1.74,4.395-2.483c1.053-0.668,1.818-1.24,2.193-1.665l0.002,0.002
		c0.218-0.248,0.582-0.335,0.897-0.187c0.36,0.168,0.402,0.188,0.445,0.208C77.97,60.315,79.532,61.057,81.112,61.053z
		 M80.863,55.517c0.422,0,0.763,0.342,0.763,0.763c0,0.422-0.342,0.763-0.763,0.763c-1.908,0.005-3.617-0.797-5.107-1.505
		c-1.288,1.18-4.015,2.9-7.348,4.735c-3.93,2.163-8.737,4.515-13.007,6.332c-0.388,0.165-0.838-0.015-1.003-0.405
		c-0.165-0.388,0.015-0.838,0.405-1.003c4.218-1.795,8.975-4.122,12.868-6.267c3.607-1.987,6.44-3.79,7.348-4.823l0.002,0.002
		c0.218-0.248,0.582-0.335,0.897-0.187c0.36,0.168,0.402,0.188,0.445,0.208c1.358,0.645,2.92,1.387,4.5,1.383V55.517z
		 M49.482,51.255c-1.182-1.393-1.885-3.735-0.637-6.703c0.042-0.098-0.327-0.318-0.787-0.593c-0.492-0.293-1.042-0.623-1.518-1.112
		c-0.223-0.23-0.273-0.565-0.152-0.842h-0.002c0.828-1.872,0.738-3.09,0.222-3.772c-0.418-0.553-1.147-0.77-1.867-0.695
		c-0.737,0.078-1.447,0.46-1.807,1.1c-0.42,0.748-0.362,1.892,0.665,3.402c0.238,0.348,0.148,0.825-0.2,1.063l-0.012,0.007
		c-0.697,0.517-1.323,0.833-1.863,1.107c-1.308,0.662-1.94,0.982-0.693,4.972c0.022,0.067,0.032,0.135,0.035,0.202l0.618,6.54
		c0.003,0.042,0.005,0.083,0.002,0.123c0.157-0.035,0.313-0.07,0.47-0.105l7.523-4.695L49.482,51.255z M51.703,49.868
		c0.278-0.173,0.643-0.095,0.828,0.173c-0.055-0.198-0.133-0.422-0.237-0.673c-0.452-1.095-1.133-3.097-1.452-5.103
		c-0.205-1.288-0.262-2.588-0.025-3.682c0.263-1.215,0.875-2.187,2.007-2.675c-0.547-1.748-0.195-3.092,0.567-3.988
		c0.705-0.828,1.758-1.253,2.785-1.26c1.048-0.007,2.082,0.418,2.72,1.29c0.663,0.907,0.882,2.265,0.187,4.062l2.033,1.202
		c-0.085-0.323-0.045-0.747,0.148-1.287l0.003,0.002c0.003-0.008,0.007-0.017,0.01-0.025l1.088-2.733l0.005-0.013
		c0.15-0.415,0.267-0.852,0.373-1.255c0.205-0.772,0.382-1.435,0.77-1.888c0.542-0.632,1.233-0.788,2.317-0.157
		c0.283-0.493,0.845-0.675,1.408-0.857l0.042-0.013c-0.812-1.818-0.668-3.218-0.065-4.168c0.567-0.89,1.523-1.367,2.505-1.428
		c0.97-0.062,1.977,0.285,2.66,1.038c0.715,0.788,1.065,1.995,0.617,3.595c0.28,0.11,0.525,0.178,0.745,0.238
		c0.843,0.235,1.412,0.393,2.108,1.55c0.14,0.233,0.358,0.522,0.605,0.85c0.638,0.847,1.443,1.913,1.902,3.192l6.998-2.973
		c-0.068-0.193-0.033-0.398,0.077-0.555l0,0l2.03-2.892c0.077-0.108,0.18-0.183,0.295-0.225l7.168-2.877
		c0.313-0.125,0.67,0.027,0.795,0.34l1.873,4.668c0.125,0.313-0.027,0.67-0.34,0.795l-7.003,2.81
		c-0.127,0.05-0.258,0.057-0.382,0.025l-3.733-0.85c-0.1-0.023-0.19-0.068-0.263-0.132l-7.213,3.065
		c0.068,0.458,0.082,0.937,0.025,1.438l7.107,2.553c0.09-0.125,0.223-0.208,0.368-0.24v-0.002l3.457-0.733
		c0.132-0.028,0.263-0.012,0.378,0.04l7.2,2.773c0.315,0.122,0.472,0.475,0.35,0.79l-1.808,4.693
		c-0.122,0.315-0.475,0.472-0.79,0.35l-7.042-2.713c-0.12-0.047-0.217-0.127-0.285-0.225l0,0l-2.165-3.182
		c-0.087-0.127-0.118-0.273-0.102-0.415l-6.932-2.49c-0.14,0.427-0.335,0.865-0.592,1.318c2.257,0.457,3.627,1.4,4.228,2.945
		c0.638,1.635,0.322,3.868-0.788,6.858c-0.123,0.332-0.453,0.528-0.79,0.497c-1.88-0.015-3.565-0.807-5.037-1.505
		c-2.27,2.068-9.142,5.915-15.892,9.107c-6.49,3.07-12.94,5.558-15.218,5.333c-1.273-0.125-1.595-0.785-1.818-1.578
		c-1.017,0.658-2.367,1.213-3.787,1.665c-3.04,0.968-6.472,1.493-7.495,1.55c-0.128,0.007-0.25-0.018-0.358-0.067l-0.86,1.882
		c-0.052,0.112-0.132,0.202-0.228,0.262l0.002,0.002l-6.543,4.15c-0.285,0.182-0.665,0.097-0.845-0.19l-2.695-4.248
		c-0.182-0.285-0.097-0.665,0.19-0.845l2.462-1.562c-0.037-0.028-0.07-0.058-0.102-0.093c-0.105-0.117-0.213-0.242-0.322-0.373
		c-0.11-0.133-0.225-0.278-0.348-0.435c-0.242-0.31-0.412-0.53-0.588-0.763c-0.245-0.32-0.503-0.66-0.77-1l-6.013,3.753
		c0.102,0.188,0.095,0.408-0.003,0.587l-1.45,3.172c-0.052,0.112-0.132,0.202-0.228,0.262l0.002,0.002l-6.543,4.15
		c-0.285,0.182-0.665,0.097-0.845-0.19L2.45,70.087c-0.182-0.285-0.097-0.665,0.19-0.845L9.012,65.2
		c0.122-0.077,0.26-0.107,0.393-0.092l3.803,0.153c0.108,0.005,0.21,0.037,0.297,0.09l5.947-3.712
		c-0.907-1.082-1.807-1.975-2.398-1.985c-0.422-0.007-0.758-0.353-0.752-0.775c0.005-0.32,0.205-0.59,0.485-0.7v-0.002
		c1.232-0.483,3.653-0.087,5.9,0.28c0.513,0.083,1.015,0.167,1.483,0.235l2.812-1.755c0-0.077,0.002-0.157,0.005-0.24
		c0.148-4.137,0.403-11.213,3.463-11.39l0.568-0.033c-0.083-0.625-0.088-1.178-0.033-1.663c0.098-0.857,0.388-1.523,0.793-2.023
		c0.543-0.67,1.288-1.052,2.072-1.173c0.635-0.1,1.295-0.028,1.887,0.198c0.605,0.232,1.15,0.627,1.542,1.17
		c0.433,0.6,0.672,1.368,0.588,2.277c-0.057,0.622-0.328,1.272-0.858,1.92c-0.252,0.308-0.565,0.62-0.947,0.932
		c1.007,0.663,1.107,1.088,1.147,2.307c0.465-0.43,0.64-0.508,1.965-0.213c-1.352-4.632-0.342-5.143,1.658-6.157
		c0.337-0.17,0.708-0.358,1.097-0.598c-1.005-1.79-0.942-3.278-0.333-4.363c0.615-1.097,1.787-1.747,2.987-1.872
		c1.215-0.128,2.477,0.278,3.245,1.293c0.763,1.008,1.015,2.592,0.172,4.79c0.268,0.203,0.565,0.382,0.84,0.547
		c1.093,0.653,1.965,1.175,1.408,2.497c-0.985,2.343-0.467,4.127,0.42,5.15c0.042,0.048,0.083,0.095,0.127,0.138l0.905-0.565
		L51.703,49.868z M52.627,50.51c-0.032,0.158-0.128,0.305-0.277,0.398l-0.412,0.257c0.022,0.007,0.045,0.012,0.067,0.017
		c0.257,0.058,0.463,0.037,0.54-0.083c0.08-0.125,0.113-0.318,0.083-0.588H52.627z M41.655,57.583L31.472,63.94
		c0.065,0.12,0.085,0.255,0.065,0.383c1.27-0.132,4.14-0.62,6.733-1.445c1.72-0.548,3.295-1.235,4.123-2.042l0,0
		c0.063-0.062,0.137-0.112,0.222-0.15c0.385-0.172,0.837,0.002,1.01,0.387c0.135,0.302,0.21,0.597,0.283,0.878
		c0.1,0.39,0.19,0.737,0.578,0.775c1.983,0.195,8.132-2.223,14.417-5.195c7.078-3.347,14.237-7.367,15.81-9.152l0.002,0.002
		c0.218-0.248,0.582-0.335,0.897-0.187c0.36,0.168,0.402,0.188,0.445,0.208c1.207,0.573,2.572,1.222,3.97,1.357
		c0.827-2.362,1.065-4.082,0.612-5.245c-0.45-1.155-1.693-1.828-3.852-2.13c-1.095-0.152-1.747-0.173-2.328-0.023
		c-0.595,0.155-1.212,0.512-2.203,1.103c-1.535,0.918-3.132,2.1-4.35,3.003c-0.213,0.158-0.413,0.307-0.78,0.573l-0.483,0.352
		c-0.773,0.563-1.405,1.023-2.303,1.71c-2.147,1.642-3.957,2.8-6.042,3.762c-2.07,0.955-4.398,1.707-7.59,2.538
		c-2.975,0.775-5.998,1.507-9.05,2.18H41.655z M23.568,64.5l2.7-1.713c0.122-0.077,0.26-0.107,0.393-0.092l3.803,0.153
		c0.108,0.005,0.21,0.037,0.297,0.09l7.382-4.608c-3.833,0.785-7.683,1.473-11.505,2.04c-0.62,0.092-1.545,0.003-2.6-0.148
		l-2.51,1.567c0.237,0.302,0.465,0.602,0.682,0.885c0.233,0.305,0.455,0.595,0.577,0.75c0.113,0.145,0.222,0.282,0.323,0.405
		c0.103,0.125,0.195,0.233,0.273,0.32c0.093,0.103,0.153,0.223,0.18,0.35L23.568,64.5z M29.962,64.883l-3.425,2.138
		c-0.287,0.178-0.665,0.09-0.843-0.197s-0.09-0.665,0.197-0.843l3.152-1.967l-2.275-0.092l-5.695,3.612l2.038,3.213l5.875-3.727
		L29.962,64.883z M96.19,43.805l-6.488-2.5l-1.997,0.423l3.86,1.387c0.318,0.113,0.483,0.463,0.368,0.782
		c-0.113,0.318-0.463,0.483-0.782,0.368l-4.073-1.463l1.452,2.132l6.292,2.425L96.19,43.805z M87.043,32.162l5.013-2.13
		c0.312-0.132,0.67,0.013,0.803,0.323c0.132,0.312-0.012,0.67-0.323,0.803l-4.845,2.058l2.287,0.52l6.258-2.512l-1.418-3.533
		l-6.455,2.59l-1.32,1.878V32.162z M38.102,50.485c0.005,0.005,0.01,0.008,0.015,0.013c0.048-0.035,0.095-0.072,0.138-0.11
		c-0.05,0-0.063,0.013-0.083,0.032C38.15,50.442,38.127,50.463,38.102,50.485z M35.097,53.322l-6.603,4.122
		c-0.017,0.405-0.037,0.775-0.065,1.103c2.887-0.458,5.767-0.978,8.62-1.553c-1.537-0.218-2.262-1.088-1.968-3.548
		C35.085,53.403,35.09,53.362,35.097,53.322z M27.102,58.312L26.2,58.875c0.08-0.003,0.155-0.01,0.22-0.02
		c0.237-0.035,0.475-0.07,0.712-0.107c0.018-0.087-0.002-0.232-0.032-0.435L27.102,58.312z M20.758,60.827l1.438-0.898
		c-0.892-0.145-1.803-0.29-2.608-0.377C19.985,59.937,20.378,60.373,20.758,60.827z M28.548,55.965l7.542-4.708
		c-0.118-0.075-0.217-0.183-0.282-0.32c-0.043-0.092-0.065-0.187-0.072-0.282h-0.002c-0.02-0.365-0.03-0.717-0.038-1.017
		c-0.03-1.108-0.033-1.235-1.397-1.995c-0.368-0.205-0.502-0.67-0.297-1.04c0.07-0.125,0.168-0.223,0.285-0.29
		c0.692-0.443,1.197-0.88,1.537-1.297c0.328-0.402,0.493-0.768,0.522-1.093c0.047-0.512-0.078-0.93-0.307-1.247
		c-0.207-0.287-0.507-0.5-0.847-0.632c-0.353-0.135-0.74-0.178-1.108-0.122c-0.427,0.067-0.828,0.272-1.118,0.628
		c-0.228,0.282-0.395,0.685-0.458,1.233c-0.063,0.548-0.022,1.222,0.162,2.038c0.092,0.412-0.168,0.82-0.582,0.91
		c-0.042,0.008-0.082,0.015-0.123,0.017v0.002l-1.43,0.082c-1.552,0.09-1.852,5.463-1.992,9.128L28.548,55.965z M12.707,67.297
		l-3.425,2.138c-0.287,0.178-0.665,0.09-0.843-0.197s-0.09-0.665,0.197-0.843l3.152-1.967l-2.275-0.092l-5.695,3.612l2.038,3.213
		l5.875-3.727L12.707,67.297z M65.368,38.917c-0.823,0.462-1.94,1.012-2.795,1.11c0.425,0.182,0.922,0.327,1.447,0.447
		c0.475,0.108,0.975,0.197,1.47,0.275l-0.12-1.832H65.368z M39.897,55.325l-0.378-3.992c-0.432,0.475-1.008,0.725-1.585,0.975
		c-0.62,0.27-1.24,0.538-1.332,1.315c-0.16,1.348,0.12,1.788,0.738,1.863c0.57,0.068,1.39-0.027,2.375-0.14L39.897,55.325z
		 M61.793,49.072c0.522-0.365,1.057-0.757,1.617-1.185c0.695-0.532,1.312-0.983,2.023-1.502l-0.02-2.103
		c-1.588-0.098-2.627-0.483-3.732-0.893c-0.26-0.097-0.525-0.195-0.8-0.29l0.912,5.975V49.072z"/>
</g>
</svg>
