<svg height='100px' width='100px'  fill="#1A1A1A" xmlns="http://www.w3.org/2000/svg" xmlns:xlink="http://www.w3.org/1999/xlink" version="1.1" x="0px" y="0px" viewBox="-247 370.9 100 100" style="enable-background:new -247 370.9 100 100;" xml:space="preserve"><path d="M-147.5,398.9h-6.5c-0.6,0-1-0.4-1-1v-13c0-0.6-0.4-1-1-1h-2.6c-0.8,0-1.2-0.8-0.9-1.5l4.3-7.7c0.3-0.5,0.1-1.1-0.4-1.4  l-1.8-1c-0.5-0.3-1.1-0.1-1.3,0.4l-5.8,10.6c-0.2,0.3-0.5,0.5-0.9,0.5H-188c-0.6,0-1,0.4-1,1v13c0,0.6-0.4,1-1,1h-9  c-0.6,0-1-0.4-1-1v-9.9c0-0.6,0.4-1,1-1h4c0.6,0,1-0.4,1-1v-8c0-0.6-0.4-1-1-1h-4c-0.6,0-1-0.4-1-1v-3.3c0-0.6-0.4-1-1-1h-37  c-0.6,0-1,0.4-1,1v3.3c0,0.6-0.4,1-1,1h-3.7c-0.6,0-1,0.4-1,1v8c0,0.6,0.4,1,1,1h3.7c0.6,0,1,0.4,1,1v10c0,0.6-0.4,1-1,1h-5.5  c-0.6,0-1,0.4-1,1v8c0,0.6,0.4,1,1,1h2.3c0.6,0,1,0.4,1,1v57c0,0.6,0.4,1,1,1h6.2c0.6,0,1,0.4,1,1v1.3c0,0.6,0.4,1,1,1h8.3  c0.6,0,1-0.4,1-1v-1.3c0-0.6,0.4-1,1-1h51.7c0.6,0,1,0.4,1,1v1.3c0,0.6,0.4,1,1,1h8.3c0.6,0,1-0.4,1-1v-1.3c0-0.6,0.4-1,1-1h6  c0.6,0,1-0.4,1-1v-57c0-0.6,0.4-1,1-1h2.3c0.6,0,1-0.4,1-1v-9H-147.5z M-184,387.9h24c0.6,0,1,0.4,1,1v9c0,0.6-0.4,1-1,1h-24  c-0.6,0-1-0.4-1-1v-9C-185,388.3-184.6,387.9-184,387.9z M-199,382.9h-2.8c-0.6,0-1-0.4-1-1l0,0c0-0.6,0.4-1,1-1h2.8  c0.6,0,1,0.4,1,1l0,0C-198,382.5-198.4,382.9-199,382.9z M-239.7,380.9h2.7c0.6,0,1,0.4,1,1l0,0c0,0.6-0.4,1-1,1h-2.7  c-0.6,0-1-0.4-1-1l0,0C-240.7,381.3-240.3,380.9-239.7,380.9z M-234,386.9h1c0.6,0,1-0.4,1-1v-8c0-0.6-0.4-1-1-1h-2v-1.3h31v1.3  h-1.8c-0.6,0-1,0.4-1,1v8c0,0.6,0.4,1,1,1h0.8c0.6,0,1,0.4,1,1v10c0,0.6-0.4,1-1,1h-29c-0.6,0-1-0.4-1-1v-10  C-235,387.3-234.6,386.9-234,386.9z M-155.7,462.9c0,0.6-0.4,1-1,1h-3H-170h-53.7H-234h-3.2c-0.6,0-1-0.4-1-1v-53c0-0.6,0.4-1,1-1  h80.5c0.6,0,1,0.4,1,1V462.9z M-151.5,404.9h-0.3h-90.4h-0.3v-1c0-0.6,0.4-1,1-1h2.5h39h11h34h2.5c0.6,0,1,0.4,1,1V404.9z"></path><path d="M-223,459.9h52c0.6,0,1-0.4,1-1v-17c0-0.6,0.4-1,1-1h3c0.6,0,1-0.4,1-1v-10c0-0.6-0.4-1-1-1h-3c-0.6,0-1-0.4-1-1v-4  c0-0.6-0.4-1-1-1h-52c-0.6,0-1,0.4-1,1v4c0,0.6-0.4,1-1,1h-3c-0.6,0-1,0.4-1,1v10c0,0.6,0.4,1,1,1h3c0.6,0,1,0.4,1,1v17  C-224,459.5-223.6,459.9-223,459.9z M-175,455.9h-44c-0.6,0-1-0.4-1-1v-7.4c0-0.4,0.2-0.7,0.6-0.9l4.9-2.2c5-2.3,10.4-3.5,15.8-3.5  h3.4c5.5,0,10.9,1.2,15.8,3.5l4.9,2.2c0.4,0.2,0.6,0.5,0.6,0.9v7.4C-174,455.5-174.4,455.9-175,455.9z M-225,436.9v-4h1h54h1v4h-1  h-54H-225z"></path><path d="M-204,420.9c2.9,0,5.3-2.4,5.3-5.3s-2.4-5.3-5.3-5.3s-5.3,2.4-5.3,5.3S-206.9,420.9-204,420.9z"></path><path d="M-190,420.9c2.9,0,5.3-2.4,5.3-5.3s-2.4-5.3-5.3-5.3s-5.3,2.4-5.3,5.3S-192.9,420.9-190,420.9z"></path><path d="M-176,420.9c2.9,0,5.3-2.4,5.3-5.3s-2.4-5.3-5.3-5.3s-5.3,2.4-5.3,5.3S-178.9,420.9-176,420.9z"></path><path d="M-218,420.9c2.9,0,5.3-2.4,5.3-5.3s-2.4-5.3-5.3-5.3s-5.3,2.4-5.3,5.3S-220.9,420.9-218,420.9z"></path></svg>