<svg height='100px' width='100px'  fill="#000000" xmlns="http://www.w3.org/2000/svg" data-name="Layer 2" viewBox="0 0 64 64" x="0px" y="0px"><title>02, Angel, love, wings, flying, heart, romance, wedding, marriage, valentine,</title><path d="M3,27a12.81,12.81,0,0,0,2.17,6.55,9.16,9.16,0,0,0,2,2.05c-1.71.22-2.5-.1-2.93.65a1,1,0,0,0,0,.94A12.66,12.66,0,0,0,10,42.58L7.7,44.74A1,1,0,0,0,8,46.37a12.85,12.85,0,0,0,6.86.74c2.46-.4,5.61-3,7.69-4.9C16.77,37,15.77,29.3,18.4,25.09A.9.9,0,0,0,18,25s-4.63,0-7.29-2.71A75.07,75.07,0,0,1,4.8,15.4,1,1,0,0,0,3,16.11c0,.32.75,6.6,2.84,10.55l-1.48-.59A1,1,0,0,0,3,27Z"></path><path d="M41.47,42.21c2.08,1.93,5.23,4.5,7.69,4.9A13,13,0,0,0,56,46.37a1,1,0,0,0,.28-1.63l-2.25-2.16a12.66,12.66,0,0,0,5.75-5.39A1,1,0,0,0,59,35.75l-2.14-.15a9.16,9.16,0,0,0,2-2.05A12.81,12.81,0,0,0,61,27a1,1,0,0,0-1.37-.93l-1.48.59C60.24,22.71,61,16.43,61,16.11a1,1,0,0,0-1.79-.71,75.07,75.07,0,0,1-5.91,6.89C50.63,25,46,25,46,25a.9.9,0,0,0-.4.09C48.24,29.31,47.2,37,41.47,42.21Z"></path><path d="M32,20c3.71,0,10-.74,10-3.5S35.71,13,32,13s-10,.74-10,3.5S28.29,20,32,20Zm0-5c4.75,0,7.4,1,7.94,1.5C39.4,17,36.75,18,32,18s-7.4-1-7.94-1.5C24.6,16,27.25,15,32,15Z"></path><path d="M31.8,44.68a.9.9,0,0,0,.4,0C44.37,42.14,47.76,29,42.81,24.88c-3.5-2.9-7.6-1.51-10.81,1.68-3.21-3.19-7.31-4.58-10.81-1.68C16.24,29,19.64,42.14,31.8,44.68Z"></path></svg>