<svg height='100px' width='100px'  fill="#000000" xmlns="http://www.w3.org/2000/svg" xmlns:xlink="http://www.w3.org/1999/xlink" version="1.1" x="0px" y="0px" viewBox="0 0 64 64" style="enable-background:new 0 0 64 64;" xml:space="preserve"><g><path d="M42,11h2c0-2.206,1.794-4,4-4V5c-2.206,0-4-1.794-4-4h-2c0,2.206-1.794,4-4,4v2C40.206,7,42,8.794,42,11z"></path><path d="M5,20h2c0-2.206,1.794-4,4-4v-2c-2.206,0-4-1.794-4-4H5c0,2.206-1.794,4-4,4v2C3.206,16,5,17.794,5,20z"></path><path d="M59,16h-2c0,2.206-1.794,4-4,4v2c2.206,0,4,1.794,4,4h2c0-2.206,1.794-4,4-4v-2C60.794,20,59,18.206,59,16z"></path><path d="M19,49.142v2.126l1.849-1.068C20.349,49.691,19.711,49.327,19,49.142z"></path><path d="M20,53l1.839,1.061C21.933,53.721,22,53.37,22,53s-0.067-0.721-0.161-1.061L20,53z"></path><path d="M19,56.858c0.711-0.185,1.349-0.549,1.849-1.058L19,54.732V56.858z"></path><path d="M18,45c-4.411,0-8,3.589-8,8s3.589,8,8,8s8-3.589,8-8S22.411,45,18,45z M18,59c-3.309,0-6-2.691-6-6s2.691-6,6-6   s6,2.691,6,6S21.309,59,18,59z"></path><path d="M31,33H18v10c3.692,0,6.915,2.016,8.647,5H31V33z M28,37h-4v-2h4V37z"></path><path d="M27.949,52h8.101c0.069-0.69,0.208-1.359,0.41-2h-8.922C27.741,50.641,27.881,51.31,27.949,52z"></path><path d="M31,21h-9.438c-0.46,0-0.859,0.312-0.97,0.758L18.281,31H31V21z"></path><path d="M5,52h3.051c0.069-0.69,0.208-1.359,0.41-2H3C3,51.103,3.897,52,5,52z"></path><path d="M17,51.268v-2.126c-0.711,0.185-1.349,0.549-1.849,1.058L17,51.268z"></path><path d="M3,33.459V37h3c0.551,0,1-0.449,1-1v-4.98l-2.392,0.478C3.676,31.685,3,32.509,3,33.459z"></path><path d="M14.161,51.939C14.067,52.279,14,52.63,14,53s0.067,0.721,0.161,1.061L16,53L14.161,51.939z"></path><path d="M17,56.858v-2.126L15.151,55.8C15.651,56.309,16.289,56.673,17,56.858z"></path><path d="M17,15h30c0.551,0,1-0.449,1-1s-0.449-1-1-1H17c-0.551,0-1,0.449-1,1S16.449,15,17,15z"></path><path d="M45,51.268v-2.126c-0.711,0.185-1.349,0.549-1.849,1.058L45,51.268z"></path><path d="M47,56.858c0.711-0.185,1.349-0.549,1.849-1.058L47,54.732V56.858z"></path><path d="M47,49.142v2.126l1.849-1.068C48.349,49.691,47.711,49.327,47,49.142z"></path><path d="M48,53l1.839,1.061C49.933,53.721,50,53.37,50,53s-0.067-0.721-0.161-1.061L48,53z"></path><path d="M46,45c-4.411,0-8,3.589-8,8s3.589,8,8,8s8-3.589,8-8S50.411,45,46,45z M46,59c-3.309,0-6-2.691-6-6s2.691-6,6-6   s6,2.691,6,6S49.309,59,46,59z"></path><path d="M59,43c0,0.551,0.449,1,1,1h1v-2h-1C59.449,42,59,42.449,59,43z"></path><path d="M55.949,52H59c1.103,0,2-0.897,2-2h-5.461C55.741,50.641,55.881,51.31,55.949,52z"></path><path d="M59.393,31.498l-5.368-1.073c-1.712-0.343-3.141-1.577-3.728-3.221L46.652,17H17.348l-3.644,10.204   c-0.587,1.644-2.016,2.878-3.728,3.221L9,30.62V36c0,1.654-1.346,3-3,3H3v2h4v2H3v5h6.353c1.411-2.431,3.81-4.221,6.649-4.799   l0.028-11.444l2.621-10.485C18.985,19.935,20.182,19,21.562,19h20.877c1.379,0,2.576,0.935,2.911,2.272L48,32v11.202   c2.839,0.578,5.236,2.368,6.647,4.798H61v-2h-1c-1.654,0-3-1.346-3-3s1.346-3,3-3h1v-6.541C61,32.509,60.324,31.685,59.393,31.498z   "></path><path d="M46,43V33H33v15h4.353C39.085,45.016,42.308,43,46,43z M36,37v-2h4v2H36z"></path><path d="M45,56.858v-2.126L43.151,55.8C43.651,56.309,44.289,56.673,45,56.858z"></path><path d="M42.438,21H33v10h12.719l-2.311-9.242C43.297,21.312,42.898,21,42.438,21z"></path><path d="M42.161,51.939C42.067,52.279,42,52.63,42,53s0.067,0.721,0.161,1.061L44,53L42.161,51.939z"></path></g></svg>