<svg height="100px" width="100px" fill="#000000" xmlns="http://www.w3.org/2000/svg" data-name="Слой 1" viewBox="0 0 100 100" x="0px" y="0px">
	<title>
		Something
	</title>
	<g>
		<path d="M93.20087,64.68111l3.5814-1.51753a3.21459,3.21459,0,0,1-.75063.93748,24.94833,24.94833,0,0,1-3.342,1.39437,31.65225,31.65225,0,0,1-4.92576,1.22375,41.2309,41.2309,0,0,1-4.86154.13736c-0.8067.01535-1.61474,0.05638-2.41959,0.02329a1.56055,1.56055,0,0,1-.8706-0.32552c-0.81782-.67283-1.56138-1.43888-2.4-2.0824-0.54168-.41566-1.244-0.62062-1.79121-1.03092a7.04014,7.04014,0,0,1-1.03283-1.30777c-1.38769.81985-3.00825,1.75355-4.60451,2.72707A34.39084,34.39084,0,0,1,65.109,67.72635a56.532,56.532,0,0,1-7.51067,2.29,32.83353,32.83353,0,0,1-4.72875.64666c-1.566.15562-3.14678,0.16752-4.71112,0.3353-2.44511.26225-4.87524,0.68569-7.32448,0.88008a37.348,37.348,0,0,1-4.71269-.08854q-2.08231-.09943-4.158-0.32552c-1.63611-.1783-3.26831-0.40021-4.89636-0.64251-1.70459-.25368-3.41734-0.485-5.09865-0.85336-1.67042-.36594-3.2995-0.91644-4.95909-1.33719-1.5229-.38609-3.06437-0.6983-4.59369-1.05985-1.02025-.24121-2.0416-0.484-3.04815-0.77551C7.61347,66.288,5.87672,65.72095,4.12106,65.22c-0.99-.28249-1.50237-1.03406-1.34208-2.454a7.534,7.534,0,0,1,1.22253-3.92915,9.74067,9.74067,0,0,1,5.07042-3.92006c1.08861-.30763,2.12631-0.79729,3.21682-1.09584a14.13171,14.13171,0,0,1,4.77885-.71978,6.46233,6.46233,0,0,0,1.07554-.12178c1.60817-.15979,3.21944-0.29242,4.82431-0.48,1.02082-.11932,2.04116-0.27648,3.04614-0.49a41.18223,41.18223,0,0,0,5.08547-1.21068c2.84763-.99809,5.68347-2.11711,7.85705-4.33811,2.16981-2.21715,4.2855-4.48834,6.38867-6.76926,1.34456-1.45819,2.56088-3.03864,3.95187-4.44868,1.06284-1.07741,2.31893-1.96255,3.46909-2.95631A5.75955,5.75955,0,0,1,53.891,31.16867a43.99518,43.99518,0,0,1,4.77346-1.73906,8.389,8.389,0,0,0,2.30426-.88325A3.3698,3.3698,0,0,1,65.61,29.77667c0.46826,0.92009.94936,1.85084,1.45467,2.7569a12.63813,12.63813,0,0,0,3.15638,3.48865,3.64386,3.64386,0,0,0,2.74984.49079,33.57915,33.57915,0,0,0,3.57839-.507c1.27061-.20041,2.54207-0.39855,3.807-0.63119,2.13085-.3919,4.26172-0.7867,6.38324-1.2255,1.49107-.30841,2.95444-0.76645,4.45409-1.01129a10.48428,10.48428,0,0,1,2.43689.10624c1.877,0.14514,2.16668,1.73169,2.437,3.04262a60.093,60.093,0,0,1,1.14771,7.87445,56.9724,56.9724,0,0,1-.2593,6.0271c-0.05576,1.52761-.05518,3.05783-0.05328,4.58686,0.00281,2.24592.03006,4.4918,0.04478,6.73771a6.46918,6.46918,0,0,1-.10115,1.39346c-0.45325-.34056-0.43951-0.34073-0.466-2.55085-0.01054-.87885-0.11788-1.75619-0.14312-2.63531-0.026-.90634-0.00579-1.814-0.00579-2.88921-1.66476,1.39264-3.66475,1.64333-5.5436,2.19383-2.24436.65759-4.52173,1.20244-6.7843,1.798q-1.99433.525-3.98717,1.0557c-1.08875.3954-2.1881,0.7649-3.259,1.20388a2.4569,2.4569,0,0,0-.66352.644L77.061,62.20579c0.17976-.17478.42345-0.32508,0.556,0.24684a0.71926,0.71926,0,0,0,.35273.35439,2.90618,2.90618,0,0,1,1.14277.63579,6.96163,6.96163,0,0,1,.321,1.74174,1.637,1.637,0,0,0,.2937.47429c0-1.78273-.00684-3.45874.00846-5.13455a2.50472,2.50472,0,0,1,.183-0.64257,4.20362,4.20362,0,0,1,.48644,1.26184c0.05861,1.57954.02333,3.16256,0.02333,4.81852l0.63736,0.21537V60.86455l0.18509-.0383a4.40132,4.40132,0,0,1,.12851.7275c0.01011,0.80392-.0202,1.60842-0.005,2.41214a1.65511,1.65511,0,0,0,.20154.52031c0.11-.15966.2225-0.31772,0.3293-0.47951,0.07837-.11873.14929-0.24238,0.28308-0.46128l0.23773,1.0584,0.64245-.78434,0.601,1.578-1.94358.21371c0.065,0.60114.06494,0.60434,0.69134,0.60594,1.49312,0.00381,2.98662.02371,4.47918-.00426a13.29214,13.29214,0,0,0,1.58926-.21435L88.339,65.8291a1.07717,1.07717,0,0,1,.30007-0.4779,13.96109,13.96109,0,0,1,1.49966-.09534l-0.05453.38989,3.04174-.89808Q93.16319,64.71415,93.20087,64.68111ZM63.23554,66.57087c0.363-.09181.72187-0.21152,1.09036-0.26693a2.6803,2.6803,0,0,0,.94678-0.05264,11.67778,11.67778,0,0,0,1.32661-1.26388L66.42153,64.774l-3.17808,1.80539c-0.39439-.25811-0.38307-0.394.195-0.67781,1.61725-.79419,3.21913-1.63273,4.8855-2.31007,1.5492-.6297,2.95651-1.5493,4.53574-2.10649a1.21954,1.21954,0,0,0,.356-0.4277,1.33872,1.33872,0,0,0-.57477-0.068q-1.042.40556-2.05216,0.89223c-4.79363,2.303-9.45,4.91158-14.55564,6.5189a1.87975,1.87975,0,0,0-.37353.29989c1.45085-.27878,2.74361-0.43953,3.98268-0.79006C60.86812,67.56348,62.03981,67.02508,63.23554,66.57087ZM54.49236,53.88478a24.96454,24.96454,0,0,0-2.7936-5.46817,27.45453,27.45453,0,0,0,1.28481,3.19667c0.40248,0.812.94144,1.55626,1.41979,2.3306,0.40145,0.93562.56732,1.03331,1.419,0.65476,1.64188-.72977,3.26915-1.49243,4.90278-2.24077q2.34756-1.07538,4.696-2.14955L65.29982,49.791a2.82365,2.82365,0,0,1,1.44-.28745,0.77993,0.77993,0,0,0,1.074-.29837,1.92309,1.92309,0,0,1,2.30938-.54981l-0.72221.33446,3.77329-.16655-0.367-.91682,1.79131,0.41615q0.02589,0.03851.05034,0.078l-0.77779.28238,3.2428,0.90794,2.41657,1.73082,0.1342-.20618-2.55982-1.51509-0.29589-.56495a0.78994,0.78994,0,0,1,.39734-0.09311,14.369,14.369,0,0,1,2.24638,1.27837,7.81193,7.81193,0,0,1,2.37359,3.67517,4.317,4.317,0,0,0,.20778.63839,9.86671,9.86671,0,0,1,1.08678,1.97119,0.80117,0.80117,0,0,0,1.1734.64889c1.98074-.4518,3.95573-0.92956,5.9405-1.36273a13.05658,13.05658,0,0,0,5.2957-2.22477,1.6828,1.6828,0,0,0,.78621-1.931,2.94553,2.94553,0,0,1,.009-0.91906c0.10289-1.96132.32628-3.92518,0.28047-5.88284a45.30175,45.30175,0,0,0-.58957-5.36875,12.95269,12.95269,0,0,0-1.19686-4.454c-1.86715,2.50611-4.4917,3.75506-7.25326,4.6956a32.48051,32.48051,0,0,1-4.41551.87715,12.69419,12.69419,0,0,1-4.43564-.227,38.66625,38.66625,0,0,1-4.7153-1.386,4.65208,4.65208,0,0,1-1.03234-.22462c-1.21092-.72765-2.38819-1.51138-3.57589-2.27751a0.87467,0.87467,0,0,1-.22885-0.20145c-0.31335-.4214-0.61315-0.85289-0.92774-1.27333-0.7265-.971-1.53775-1.88933-2.16755-2.919a4.42821,4.42821,0,0,0-3.893-1.84873A6.16983,6.16983,0,0,0,59.214,32.12032c0.71552,0.69687.08634,1.09516-.33435,1.37877a2.33759,2.33759,0,0,1-1.11529.0326l-0.01795-.24453L56.36031,34.462c0.66141,0.60186.24955,1.00429-.148,1.45416-0.42837.48469-.83107,0.67723-1.391-0.07236L53.678,37.09114a1.14157,1.14157,0,0,1,.2933.94976,1.3832,1.3832,0,0,1-.94191.64634,1.2365,1.2365,0,0,0-1.59742.74832,2.98072,2.98072,0,0,1,.28284,1.13088,1.32914,1.32914,0,0,1-1.77088.89942,5.28094,5.28094,0,0,1,.53678.85919c0.24026,0.65143.38516,1.33984,0.64863,1.98039,0.23748,0.57736.2644,0.99266-.44567,1.12056-0.04868.66719,0.26094,0.87054,0.73536,0.74442l3.75065,7.57286Zm27.76092,3.74337a10.49723,10.49723,0,0,0-3.36548-5.93691A8.1806,8.1806,0,0,0,73.98767,49.459a20.34493,20.34493,0,0,0-2.9956.04515,17.066,17.066,0,0,0-3.62273.608,55.78875,55.78875,0,0,0-5.19163,2.11974c-1.92434.858-3.79969,1.826-5.72515,2.68126-1.88035.83523-1.99014,0.75221-2.9872-1.06364a45.61921,45.61921,0,0,1-3.5789-8.30023,26.50683,26.50683,0,0,1-.74052-2.753,4.36087,4.36087,0,0,1,.71055-2.55591,1.84868,1.84868,0,0,0,.03511-0.61347,1.10256,1.10256,0,0,0-.40509.0416c-1.38171.75125-2.75255,1.52257-4.13684,2.269a3.20254,3.20254,0,0,1-.72468.19444l-0.13068-.34232L49.0127,39.364l-0.13352-.38668c-0.29341.04958-.59161,0.08019-0.87912,0.15305-0.465.11782-.92249,0.26476-1.384,0.39654a1.09538,1.09538,0,0,0-.46278.12806c-1.32672,1.451-2.67566,2.88444-3.943,4.3864a22.57946,22.57946,0,0,1-9.50317,6.83077c-1.19384.4422-2.39445,0.86613-3.66819,1.32595,4.02563,4.7723,6.33683,10.18966,6.11682,16.62447a41.54048,41.54048,0,0,0,4.27709.33733c3.92145-.08743,7.84042-0.2859,11.76035-0.44093a23.22808,23.22808,0,0,0,8.76562-2.28263c2.78631-1.27321,5.50818-2.68794,8.29927-3.95,2.59831-1.17491,5.20964-2.34555,7.89268-3.30046C78.12283,58.484,80.2199,58.13334,82.25328,57.62815Zm-47.52,11.14431a4.772,4.772,0,0,1-.44336-1.12615c-0.10912-1.15666-.06576-2.33264-0.24045-3.47685a16.88,16.88,0,0,0-.88713-3.71,31.38788,31.38788,0,0,0-2.2369-4.38234,34.10586,34.10586,0,0,0-2.39364-3.31773,1.017,1.017,0,0,0-.785-0.29952c-1.86688.18841-3.72811,0.43195-5.59282,0.643-1.819.20584-3.64335,0.36765-5.45907,0.59829a24.18643,24.18643,0,0,0-3.87746.65454,30.68474,30.68474,0,0,0-4.88253,1.89208,8.14544,8.14544,0,0,0-2.53343,2.06646,11.19549,11.19549,0,0,0-1.30063,2.59536c-0.4433.97777-.31063,1.1286,0.71829,1.42751,1.60076,0.465,3.18523.99021,4.76228,1.53161,1.35894,0.46654,2.67217,1.08425,4.05237,1.46611,1.61093,0.4457,3.26916.72627,4.9147,1.037,0.41656,0.07867.83269,0.47148,1.33316-.00206a6.32177,6.32177,0,0,1,1.11171.45285c2.09423,0.43164,4.18462.91065,6.29977,1.20452C29.71424,68.36347,32.15993,68.5228,34.73324,68.77247ZM94.27208,34.66229a3.93433,3.93433,0,0,0-1.22218-.866,5.07341,5.07341,0,0,0-2.00082.02428c-2.20015.4305-4.38113,0.9583-6.57943,1.3991-1.10851.22228-2.24473,0.30377-3.3572,0.50958-1.31368.243-2.60614,0.60971-3.92448,0.81631-1.47774.23159-2.97414,0.34405-4.65075,0.52914a14.48813,14.48813,0,0,0,8.41672,2.76642C85.887,39.77773,90.48857,38.56751,94.27208,34.66229ZM24.6699,68.49852a1.32228,1.32228,0,0,0,.45714.49877c0.80892,0.10184,1.62848.11516,2.44206,0.18548,0.6606,0.05709,1.31758.1548,1.97707,0.22625,0.538,0.05828,1.07654.13651,1.61607,0.14776,0.67667,0.01411,1.37751-.54876,2.0354.145a1.367,1.367,0,0,0,.70559-0.084c0.09645-.01473.19129-0.04,0.3132-0.06619l0.20305,0.70652c0.39864-.6039,1.33136.307,1.53407-0.75587a4.85748,4.85748,0,0,0-.805-0.22c-1.92841-.16658-3.86416-0.26479-5.78617-0.48447-2.07193-.2368-4.13425-0.56449-6.19487-0.88987-0.74592-.11778-0.87318-0.0427-0.808.81124l1.03252-.50922C23.62562,69.627,24.2531,68.40931,24.6699,68.49852Zm33.26787-36.342c1.14043-.77906,2.16664-1.6013,3.30255-2.22319,1.22228-.66917,2.503-0.05755,3.82318.22006a2.92719,2.92719,0,0,0-4.4377-.58969,14.06853,14.06853,0,0,1-2.4532,1.61743C57.5685,31.48534,57.62637,31.73024,57.93777,32.15655ZM50.4514,34.96948a2.09676,2.09676,0,0,0,.38489.61016,1.24666,1.24666,0,0,0,.78455.32677c0.70261-.5474,1.33886-1.18,2.00759-1.79379L51.887,33.75935Zm-0.76077,3.34019,1.31816-1.58031-0.10037-.21692a3.32452,3.32452,0,0,1-1.33967.17829c-1.034-.33278-1.2783.483-1.93,1.07319ZM4.65572,63.11808c0.44038,1.0707.44038,1.0707,1.29629,0.47146L6.44042,64.7344c0.79517-1.74991.80057,0.38176,1.3895-.02534l0.21618-.72793L3.53448,62.6194l0.30959,1.69053Zm72.5189-3.75619L73.60984,60.535c0.57191,1.22122-.65281,1.10112-1.05866,1.5872L73.009,62.066l0.0598,0.14576-1.35125.77763,0.11779,0.173c0.776-.57412,1.54317-1.16067,2.33022-1.71921C75.15753,60.73923,76.16574,60.05814,77.17462,59.36189ZM55.06513,34.98815l0.02123-.29321a2.16893,2.16893,0,0,0-1.09961-.08952,7.3218,7.3218,0,0,0-1.444,1.36911,1.59735,1.59735,0,0,0-.13517.71881,1.72272,1.72272,0,0,0,.85413-0.03975C53.90026,36.14547,54.46956,35.5503,55.06513,34.98815ZM44.16123,70.16073l0.34439-.53369,0.18315,0.1012,0.12741,0.607c1.201-.19555,2.18861-0.97762,2.8498-0.81238H41.94638ZM57.34153,32.64826a0.73238,0.73238,0,0,0-1.2798-.02271c-0.18017.21555-.412,0.38706-0.60963,0.58906-0.45735.46747-.454,0.87065,0.22787,1.217Zm-2.57414-1.09037c-0.28647.19257-.57247,0.36373-0.8348,0.56564-0.51174.39389-.03676,0.8219-0.0238,1.23486a2.63737,2.63737,0,0,0,.73352-0.25327c0.38793-.2815.72763-0.62945,1.09207-0.95407Zm-4.24267,7.51886,1.94409-1.64852a2.34138,2.34138,0,0,0-1.07719-.10926,13.12916,13.12916,0,0,0-1.3219,1.42864ZM19.40133,67.92267l0.05884-.20823c-0.35024-.09982-0.7019-0.195-1.05027-0.301a1.932,1.932,0,0,1-.77725-0.27711,1.07139,1.07139,0,0,0-1.76386-.02963Zm37.17294-37.2846c0.55789,0.72492,1.0915.54343,2.17311-.702ZM68.87548,63.99843c-1.31249.04818-1.66909,0.34439-1.78646,1.34143Zm25.38109-8.573-0.11006-.28577-2.47888.90924,0.06989,0.18523Z">
		</path>
		<path d="M93.12594,64.74766c-0.42047-.11637-0.42047-0.11637-0.40171-0.778l-1.62315.41848L90.989,64.2591a4.27206,4.27206,0,0,1,.70995-0.51c0.44649-.20213,1.148.10654,1.27819-0.747a2.28314,2.28314,0,0,1,.95273-0.3681L93.999,62.72481c0.30734-.463.65164-0.91234,0.91585-1.40465a2.3178,2.3178,0,0,0,.223-1.08506,1.8049,1.8049,0,0,0-.13694-2.33584c0.13185-.41873.68665-0.92651-0.15057-1.23591a1.75832,1.75832,0,0,1,.21285-0.52793,7.20592,7.20592,0,0,1,.705-0.64l0.23919,0.08494c0,1.9634.02234,3.92725-.01582,5.88991a5.61111,5.61111,0,0,1-.34428,1.45028,0.474,0.474,0,0,1-.35566.13673,3.25872,3.25872,0,0,0-2.0907,1.62387Q93.1632,64.71415,93.12594,64.74766Z">
		</path>
		<path d="M88.37616,65.58286a5.024,5.024,0,0,1-.62378.07664,6.13166,6.13166,0,0,0-2.86282.15186,0.84124,0.84124,0,0,1-.73953-0.214,1.11338,1.11338,0,0,1,.08167-1.42509l0.64571,1.15531c1.09753-.101,1.09753-0.101,1.39161-1.28113l0.7164,1.15068,0.16779-.93795c0.28763,0.29172,1.076.20689,0.63418,0.8902C87.78171,65.15815,88.05548,65.34763,88.37616,65.58286Z">
		</path>
		<path d="M88.45236,64.12074c1.13759,0.47,1.13759.47,1.02433,0.94105C88.41364,64.79575,88.41364,64.79575,88.45236,64.12074Z">
		</path>
		<path d="M53.13748,49.21206L68.364,35.50048c-0.06137,1.59128-1.17209,2.14225-2.01378,2.89678-0.23062.20674-.41123,0.46921-0.64153,0.67636a9.871,9.871,0,0,1-2.42506,2.03711,3.83972,3.83972,0,0,0-1.47245,1.30507c-0.48012.54028-.98255,1.061-1.4838,1.58211-0.27709.288-.43685,0.81048-1.0394,0.49358a0.71591,0.71591,0,0,0-.49516.39608,3.39529,3.39529,0,0,1-1.33695,1.89686,0.56387,0.56387,0,0,1-.4661.16292c-0.66516-.46634-0.8133.19389-0.97456,0.50421A7.51614,7.51614,0,0,1,53.795,49.47088a0.98418,0.98418,0,0,1-.50235.01157Z">
		</path>
		<path d="M58.55689,53.01261c-0.631.3355-1.25177,0.6935-1.901,0.989a1.18416,1.18416,0,0,1-.5846-0.14576,1.3665,1.3665,0,0,1,.37624-0.40749c0.66572-.26549,1.34836-0.48857,2.02484-0.7271Z">
		</path>
		<path d="M64.09873,50.41081l-1.86689.97943C62.17187,50.6223,62.77465,50.289,64.09873,50.41081Z">
		</path>
		<path d="M59.75667,52.47686c-0.10914-.70768.56015-1.069,1.65573-0.801Z">
		</path>
		<path d="M70.63463,48.751c0.309-.67349.8944-0.74462,1.65866-0.24671Z">
		</path>
		<path d="M74.59846,48.3226c0.43572-.38836,1.00991-0.24512,1.53314.55891q-0.74146-.24064-1.48286-0.48112Q74.62438,48.36119,74.59846,48.3226Z">
		</path>
		<path d="M78.59044,62.7438c-0.38237-.35584-0.77616-0.7008-1.1359-1.07822a0.7869,0.7869,0,0,1,.04675-0.40607,0.93891,0.93891,0,0,1,.44658.117c0.30377,0.35959.56445,0.75559,0.84128,1.13793Z">
		</path>
	</g>
</svg>
