<svg height='100px' width='100px'  fill="#000000" xmlns="http://www.w3.org/2000/svg" xmlns:xlink="http://www.w3.org/1999/xlink" version="1.1" x="0px" y="0px" viewBox="0 0 64 64" style="enable-background:new 0 0 64 64;" xml:space="preserve"><g><path d="M54,39v3.184c1.161,0.414,2,1.514,2,2.816h4.989c-0.058-2.242-0.902-4.351-2.415-6H54z"></path><path d="M53,50c-1.654,0-3-1.346-3-3h-5v2.513c0,1.252,0.193,2.467,0.551,3.618c1.143,0.204,1.909,0.618,2.593,0.991   C49.007,54.593,49.753,55,51.33,55c1.579,0,2.325-0.407,3.188-0.878C55.483,53.596,56.576,53,58.665,53   c0.648,0,1.225,0.062,1.771,0.178C60.803,52.014,61,50.782,61,49.513V47h-5C56,48.654,54.654,50,53,50z"></path><path d="M55.477,55.878C54.512,56.404,53.419,57,51.33,57c-2.087,0-3.18-0.596-4.144-1.122c-0.19-0.104-0.375-0.204-0.562-0.297   c1.398,2.429,3.622,4.358,6.376,5.36c2.944-1.071,5.282-3.2,6.653-5.869C59.345,55.028,59.024,55,58.665,55   C57.086,55,56.34,55.407,55.477,55.878z"></path><path d="M53,48c0.551,0,1-0.449,1-1v-2c0-0.551-0.449-1-1-1s-1,0.449-1,1v2C52,47.551,52.449,48,53,48z"></path><path d="M52,39h-4.574c-1.513,1.649-2.357,3.758-2.415,6H50c0-1.302,0.839-2.402,2-2.816V39z"></path><path d="M15.536,19.385c0.173,0.536,0.4,1.078,0.674,1.613l0.248,0.484l-1.23,2.131l3.158,3.158l2.131-1.23l0.484,0.248   c0.535,0.274,1.077,0.501,1.613,0.674l0.517,0.167L23.767,29h4.466l0.635-2.369l0.517-0.167c0.536-0.173,1.078-0.4,1.613-0.674   l0.484-0.248l2.131,1.23l3.158-3.158l-1.23-2.131l0.248-0.484c0.274-0.535,0.501-1.077,0.674-1.613l0.167-0.517L39,18.233v-4.466   l-2.369-0.635l-0.167-0.517c-0.173-0.536-0.4-1.078-0.674-1.613l-0.248-0.484l1.23-2.131l-3.158-3.158l-2.131,1.23L30.998,6.21   c-0.535-0.274-1.077-0.501-1.613-0.674l-0.517-0.167L28.233,3h-4.466l-0.635,2.369l-0.517,0.167   c-0.536,0.173-1.078,0.4-1.613,0.674l-0.484,0.248l-2.131-1.23l-3.158,3.158l1.23,2.131l-0.248,0.484   c-0.274,0.535-0.501,1.077-0.674,1.613l-0.167,0.517L13,13.767v4.466l2.369,0.635L15.536,19.385z M26,7c4.962,0,9,4.038,9,9   s-4.038,9-9,9s-9-4.038-9-9S21.038,7,26,7z"></path><polygon points="34,51 26,51 18,51 18,55 14,55 14,57 26,57 38,57 38,55 34,55  "></polygon><path d="M26,23c3.86,0,7-3.14,7-7s-3.14-7-7-7s-7,3.14-7,7S22.14,23,26,23z M26,13c1.654,0,3,1.346,3,3s-1.346,3-3,3s-3-1.346-3-3   S24.346,13,26,13z"></path><path d="M3,46c0,1.654,1.346,3,3,3h20h17v-3.757c0-0.762,0.077-1.512,0.224-2.243H3V46z M13,45h2v2h-2V45z M9,45h2v2H9V45z M5,45h2   v2H5V45z"></path><path d="M46.547,37H49v-6h-3c-2.761,0-5-2.239-5-5s2.239-5,5-5h3h9c0.551,0,1,0.449,1,1s-0.449,1-1,1H46c-1.654,0-3,1.346-3,3   s1.346,3,3,3h5c0.551,0,1,0.449,1,1v5.278c-0.595,0.347-1,0.985-1,1.722h4c0-0.737-0.405-1.375-1-1.722V30c0-1.654-1.346-3-3-3h-5   c-0.551,0-1-0.449-1-1s0.449-1,1-1h12c1.654,0,3-1.346,3-3s-1.346-3-3-3h-9v-1c0-1.657-1.343-3-3-3h-5v4.767l-2.815,0.755   c-0.112,0.298-0.236,0.596-0.374,0.892l1.459,2.529l-5.328,5.328l-2.529-1.459c-0.296,0.137-0.594,0.262-0.892,0.374L29.767,31   h-7.534l-0.755-2.815c-0.298-0.112-0.596-0.236-0.892-0.374l-2.529,1.459l-5.328-5.328l1.459-2.529   c-0.137-0.296-0.262-0.594-0.374-0.892L11,19.767V15H6c-1.657,0-3,1.343-3,3v23h40.835c0.498-1.227,1.211-2.364,2.118-3.352   L46.547,37z"></path></g></svg>