<?xml version="1.0" encoding="utf-8"?>
<!-- Generator: Adobe Illustrator 24.2.1, SVG Export Plug-In . SVG Version: 6.00 Build 0)  -->
<svg version="1.1" id="Layer_1" xmlns="http://www.w3.org/2000/svg" xmlns:xlink="http://www.w3.org/1999/xlink" x="0px" y="0px"
	 viewBox="0 0 100 100" enable-background="new 0 0 100 100" xml:space="preserve">
<g>
	<path fill-rule="evenodd" clip-rule="evenodd" d="M57.057,24.024c0.601,1.201,1.502,2.402,2.102,3.604l2.402-0.901
		C60.06,25.526,58.559,24.925,57.057,24.024z M58.559,54.955c0-0.3,3.003-44.745-42.643-39.039
		c-1.502,11.712,0.3,20.12,3.904,26.126c18.318-5.105,16.517-23.423,23.123-17.718c9.91,8.709,13.814,21.922,10.511,34.234
		c6.006,0,4.805,2.402,5.706,13.514c3.303-5.105,7.808-9.61,12.913-12.913C65.465,58.559,58.258,59.159,58.559,54.955z M9.61,12.312
		c0.3-1.201,1.502-2.402,3.003-2.703c17.718-2.703,29.73,0.901,37.538,7.207c0.3,0,12.613-1.502,20.42,9.91
		c3.303,5.405-6.006,5.405-8.709,6.907c2.703,7.207,3.303,14.414,3.303,18.318l23.123,2.102c4.204,0.601,3.904,6.306,0,6.607
		c-13.814,0.601-27.027,13.814-27.628,27.628c-0.3,4.204-6.306,4.204-6.607,0l-2.102-23.123C40.541,64.865,2.102,60.36,9.61,12.312z
		 M46.547,58.258c3.003-9.009,1.201-18.619-4.805-25.826c-3.904,7.207-10.511,12.613-18.018,15.315
		C30.631,54.955,39.94,57.357,46.547,58.258z"/>
</g>
</svg>
