<svg height='100px' width='100px'  fill="#000000" xmlns="http://www.w3.org/2000/svg" xmlns:xlink="http://www.w3.org/1999/xlink" version="1.1" x="0px" y="0px" viewBox="0 0 100 100" enable-background="new 0 0 100 100" xml:space="preserve"><g><path d="M81.852,13.451h-3.764c-0.01-0.028-0.016-0.058-0.027-0.086l-3.23-9.132c-0.057-0.553-0.227-1.102-0.525-1.618   c-0.734-1.271-1.998-2.001-3.467-2.001h-5.484V0.55H40.378c-1.468,0-2.731,0.729-3.467,2.001c-0.217,0.378-0.363,0.773-0.451,1.174   l-3.539,9.629c-0.012,0.032-0.02,0.064-0.031,0.097h-3.038c-6.6,0-12,5.399-12,12v55c0,6.6,5.4,12,12,12h52c6.602,0,12-5.4,12-12   v-55C93.852,18.85,88.453,13.451,81.852,13.451z M76.529,28.176l-4.52,16.868l-15.119-8.729L73.506,7.932l0.029,0.018l0.303-0.523   l2.338,6.606C77.785,18.578,77.896,23.073,76.529,28.176z M38.644,3.551c0.373-0.646,0.989-1.001,1.734-1.001h5.486v0.063h24.973   c0.746,0,1.361,0.355,1.734,1.002c0.373,0.645,0.373,1.355,0,2.002l-0.467,0.809l-0.027-0.016l-4.121,7.04H43.204l-3.95-6.843l0,0   l-0.609-1.054C38.271,4.909,38.271,4.197,38.644,3.551z M37.302,7.23l0.379,0.656l0,0l16.411,28.426l-15.124,8.732l-4.521-16.868   c-1.394-5.202-1.282-9.693,0.351-14.133L37.302,7.23z M28.451,38.961l-1.818,4.774l-1.813-4.77l-4.778-1.815l4.774-1.812   l1.817-4.774l1.813,4.77l4.778,1.816L28.451,38.961z M53.852,88.451h-2V42.589h2V88.451z M57.354,84.451   c-0.826,0-1.502-0.674-1.502-1.5s0.676-1.5,1.502-1.5c0.824,0,1.498,0.674,1.498,1.5S58.178,84.451,57.354,84.451z M57.354,75.451   c-0.826,0-1.502-0.674-1.502-1.5s0.676-1.5,1.502-1.5c0.824,0,1.498,0.674,1.498,1.5S58.178,75.451,57.354,75.451z M57.354,66.451   c-0.826,0-1.502-0.674-1.502-1.5s0.676-1.5,1.502-1.5c0.824,0,1.498,0.674,1.498,1.5S58.178,66.451,57.354,66.451z M57.354,57.451   c-0.826,0-1.502-0.674-1.502-1.5s0.676-1.5,1.502-1.5c0.824,0,1.498,0.674,1.498,1.5S58.178,57.451,57.354,57.451z M57.354,48.451   c-0.826,0-1.502-0.674-1.502-1.5s0.676-1.5,1.502-1.5c0.824,0,1.498,0.674,1.498,1.5S58.178,48.451,57.354,48.451z M85.051,64.369   l-2.582,6.779l-2.572-6.771l-6.785-2.578l6.777-2.572l2.58-6.777l2.574,6.771l6.785,2.578L85.051,64.369z"></path><path d="M12.852,84.447v-48.06h-2v48.06c0,8.271,6.73,15.002,15.002,15.002h55.028v-2H25.854   C18.685,97.449,12.852,91.617,12.852,84.447z"></path><path d="M14.416,21.799c0.147,0.388,0.519,0.645,0.935,0.645c0.415,0,0.787-0.256,0.935-0.645l2.102-5.521l5.521-2.095   c0.389-0.146,0.646-0.519,0.646-0.935c0-0.415-0.256-0.787-0.645-0.935l-5.526-2.101l-2.097-5.516   c-0.147-0.388-0.519-0.645-0.934-0.645c0,0,0,0,0,0c-0.415,0-0.787,0.256-0.935,0.645l-2.102,5.521l-5.521,2.095   c-0.389,0.146-0.646,0.519-0.646,0.935c0,0.415,0.256,0.787,0.645,0.935l5.526,2.1L14.416,21.799z"></path></g></svg>