<svg height='100px' width='100px'  fill="#000000" xmlns="http://www.w3.org/2000/svg" viewBox="0 0 64 64" x="0px" y="0px"><title>birthday party-birthday-party-happay-happiness-fun</title><g><path d="M62,57a1,1,0,0,0-1-1,3,3,0,0,1-3-3,1,1,0,0,0-2,0,3,3,0,0,1-3,3,1,1,0,0,0,0,2,3,3,0,0,1,3,3,1,1,0,0,0,2,0,3,3,0,0,1,3-3A1,1,0,0,0,62,57Zm-5,1.031A4.988,4.988,0,0,0,55.969,57,4.988,4.988,0,0,0,57,55.969,4.988,4.988,0,0,0,58.031,57,4.988,4.988,0,0,0,57,58.031Z"></path><path d="M3,8a3,3,0,0,1,3,3,1,1,0,0,0,2,0,3,3,0,0,1,3-3,1,1,0,0,0,0-2A3,3,0,0,1,8,3,1,1,0,0,0,6,3,3,3,0,0,1,3,6,1,1,0,0,0,3,8ZM7,5.969A4.988,4.988,0,0,0,8.031,7,4.988,4.988,0,0,0,7,8.031,4.988,4.988,0,0,0,5.969,7,4.988,4.988,0,0,0,7,5.969Z"></path><path d="M10.214,14.949A4.978,4.978,0,0,0,11.7,19.142l0,.025-4.961-.622a3,3,0,0,0-3.35,2.6L2.019,32.063a3,3,0,0,0,2.6,3.35l4.961.622-.747,5.953,19.845,2.491,2.834-22.591a4.495,4.495,0,0,0-1.455-8.479,4.155,4.155,0,0,0-.772-.027,7,7,0,0,0-12.852-2.643,4.49,4.49,0,0,0-.639-.128,5,5,0,0,0-5.583,4.338Zm-6.008,18.1a.992.992,0,0,1-.2-.737L5.373,21.4a1,1,0,0,1,.99-.876,1.1,1.1,0,0,1,.127.008l4.961.623L11.2,23.136l-3.969-.5-1.121,8.93,3.969.5-.249,1.985-4.961-.623A.993.993,0,0,1,4.206,33.049Zm6.747-7.928-.623,4.961-1.984-.249.622-4.961ZM26.945,42.245,11.07,40.253l.5-3.969,15.875,1.992ZM11.817,34.3l1.756-13.992a4.942,4.942,0,0,0,4.262-.521,6.971,6.971,0,0,0,8.034.727,4.453,4.453,0,0,0,3.07,1.824,4.185,4.185,0,0,0,.5.034l-1.747,13.92ZM12.2,15.2a2.954,2.954,0,0,1,4.27-2.314l.923.446.422-.934a5,5,0,0,1,9.555,2.159l-.03,1.433,1.356-.467a2.445,2.445,0,0,1,1.117-.128,2.487,2.487,0,0,1,.5,4.834l-.029.01a2.452,2.452,0,0,1-3.121-1.524l-.486-1.347-1.1.92a4.944,4.944,0,0,1-3.83,1.134A5,5,0,0,1,18.654,17.8l-.685-.762-.746.7a2.974,2.974,0,0,1-2.422.81,2.834,2.834,0,0,1-.715-.192c-.024-.01-.046-.022-.069-.031a3.179,3.179,0,0,1-.649-.38l-.205-.156A3,3,0,0,1,12.2,15.2Z"></path><path d="M47.374,33.758,47.949,37l-4.386,6.277L56.2,41.035,49.919,36.65l-.575-3.242,6.3-15.085a1,1,0,0,0-1.1-1.371L36.825,20.1a1,1,0,0,0-.559,1.664Zm.595,6.7,1.284-1.838,1.838,1.284Zm5.125-21.221-5.11,12.231-9.006-9.727Z"></path><path d="M49,16a3,3,0,0,0,3-3V8h8v2.184A2.966,2.966,0,0,0,59,10a3,3,0,1,0,3,3V2H50v8.184A2.966,2.966,0,0,0,49,10a3,3,0,0,0,0,6Zm10-2a1,1,0,1,1,1-1A1,1,0,0,1,59,14ZM52,4h8V6H52Zm-3,8a1,1,0,1,1-1,1A1,1,0,0,1,49,12Z"></path><path d="M8,46V56.184A2.966,2.966,0,0,0,7,56a3,3,0,1,0,3,3V48.071a10.871,10.871,0,0,1,6.293,2.636l1.414-1.414C14.452,46.038,9.221,46,9,46ZM7,60a1,1,0,1,1,1-1A1,1,0,0,1,7,60Z"></path><path d="M34,49a3,3,0,1,0,3-3A3,3,0,0,0,34,49Zm3-1a1,1,0,1,1-1,1A1,1,0,0,1,37,48Z"></path><path d="M34,36a3,3,0,1,0,3,3A3,3,0,0,0,34,36Zm0,4a1,1,0,1,1,1-1A1,1,0,0,1,34,40Z"></path><path d="M32,10a3,3,0,1,0-3-3A3,3,0,0,0,32,10Zm0-4a1,1,0,1,1-1,1A1,1,0,0,1,32,6Z"></path><path d="M38.02,11a1,1,0,0,0,0-2h-.01a1,1,0,0,0,.01,2Z"></path><path d="M15.02,29h-.01a1.005,1.005,0,1,0,.01,0Z"></path><path d="M18.02,26h-.01a1.005,1.005,0,1,0,.01,0Z"></path><path d="M17.02,32h-.01a1.005,1.005,0,1,0,.01,0Z"></path><path d="M25.02,32h-.01a1.005,1.005,0,1,0,.01,0Z"></path><path d="M41.02,33a1,1,0,1,0,0-2h-.01a1,1,0,0,0,.01,2Z"></path><path d="M21.02,30h-.01a1.005,1.005,0,1,0,.01,0Z"></path></g></svg>