<svg height='100px' width='100px'  fill="#000000" xmlns="http://www.w3.org/2000/svg" xmlns:xlink="http://www.w3.org/1999/xlink" version="1.1" x="0px" y="0px" viewBox="0 0 66 66" enable-background="new 0 0 66 66" xml:space="preserve"><g><path d="M17.4,57.2h10.8c0.2,0,0.4-0.1,0.6-0.3c0.1-0.2,0.2-0.4,0.2-0.6l-0.7-3.6l0-0.2l-1.5,0.1l0.6,3h-9.8V57.2z"></path><path d="M57.1,41l-1.3,0.7l3.6,7.2c1.3,2.7,0.6,5.9-1.8,7.7c-3.6,2.7-8.7,0.8-9.8-3.5L43,33c-0.7-2.9-2.8-5-5.7-5.8   c-2.7-0.7-5.3,0-7.3,1.9c-1-0.5-2.2-0.4-3,0.4c-0.4,0.4-0.7,1-0.7,1.6l-0.4,0.4c-0.2-0.6-0.6-1.1-1.1-1.5v-3.6h2   c1,0,1.9-0.8,1.9-1.9c0-1-0.8-1.9-1.9-1.9h-2v-1.3h2c1,0,1.9-0.8,1.9-1.9c0-1-0.8-1.9-1.9-1.9h-2v-1.3h7.9c2,0,3.6-1.6,3.6-3.6   c0-2-1.6-3.6-3.6-3.6h-6.5l-0.7-1.8c2-1,3.5-3.1,3.5-5.5c0-0.4-0.3-0.8-0.8-0.8H17.4c-0.4,0-0.8,0.3-0.8,0.8c0,2.4,1.4,4.5,3.5,5.5   L19.4,9H13c-2,0-3.6,1.6-3.6,3.6c0,2,1.6,3.6,3.6,3.6h7.9v1.3h-2c-1,0-1.9,0.8-1.9,1.9c0,1,0.8,1.9,1.9,1.9h2v1.3h-2   c-1,0-1.9,0.8-1.9,1.9c0,1,0.8,1.9,1.9,1.9h2V30c-0.5,0.4-0.9,0.9-1.1,1.5l-1-1c-0.1-0.6-0.3-1.3-0.8-1.7c-1-1-2.9-1-3.9,0   c-1.1,1.1-1.1,2.8,0,3.9c0.5,0.5,1.1,0.7,1.7,0.8l3.6,3.6c0,0,0.1,0.1,0.2,0.1v3.3h-0.7c-1,0-1.9,0.8-1.9,1.9s0.8,1.9,1.9,1.9h0.6   v2.8H19c-2.9,0-5.3,2.2-5.6,5L12,59.7h-0.3c-1.5,0-2.7,1.2-2.7,2.7s1.2,2.7,2.7,2.7h22.2c1.5,0,2.7-1.2,2.7-2.7s-1.2-2.7-2.7-2.7   h-0.3l-1.4-7.6c-0.3-2.9-2.7-5.1-5.6-5.1h-0.5v-2.8h0.6c1,0,1.9-0.8,1.9-1.9s-0.8-1.9-1.9-1.9H26v-3.6l3-3c1.3-0.1,2.3-1.2,2.3-2.6   c0-0.4-0.1-0.8-0.3-1.2c1.6-1.5,3.7-2,5.9-1.5c2.3,0.6,4,2.3,4.6,4.7l4.8,20.1c1.3,5.4,7.7,7.7,12.1,4.4c3-2.2,3.9-6.3,2.3-9.6   L57.1,41z M19.2,34.8l-2.5-2.5c-0.4-0.4-0.9,0-1.5-0.6c-0.5-0.5-0.5-1.3,0-1.8c0.5-0.5,1.3-0.5,1.8,0c0.2,0.2,0.4,0.6,0.4,1   c0,0.2,0.1,0.4,0.2,0.6l1.7,1.7V34.8z M35.1,62.4c0,0.7-0.5,1.2-1.2,1.2H11.7c-0.7,0-1.2-0.5-1.2-1.2s0.5-1.2,1.2-1.2   c-0.7,0,9.5,0,22.2,0C34.5,61.2,35.1,61.8,35.1,62.4z M25.3,48.6h1.3c2.1,0,3.9,1.6,4.1,3.8l1.4,7.4H13.5l1.4-7.4   c0.2-2.1,2-3.7,4.1-3.7h1.3c0.4,0,0.8-0.3,0.8-0.8v-3.5h3.5v3.5C24.6,48.2,24.9,48.6,25.3,48.6z M27.1,42.4c0,0.2-0.2,0.4-0.4,0.4   c-0.2,0-8.3,0-7.8,0c-0.2,0-0.4-0.2-0.4-0.4s0.2-0.4,0.4-0.4h7.8C26.9,42,27.1,42.2,27.1,42.4z M21.1,32.6c0-1.1,1-1.9,2.1-1.7   c0.8,0.2,1.3,0.9,1.3,1.7c0,0.1,0,4.2,0,4v3.9h-3.4V32.6z M18.2,2.4h9.1c-0.4,2.2-2.3,3.9-4.6,3.9S18.6,4.6,18.2,2.4z M21.5,7.7   h2.6L24.6,9H21L21.5,7.7z M18.9,24.9c-0.2,0-0.4-0.2-0.4-0.4c0-0.2,0.2-0.4,0.4-0.4h2.7c0.4,0,0.8-0.3,0.8-0.8v-2.8   c0-0.4-0.3-0.8-0.8-0.8h-2.7c-0.2,0-0.4-0.2-0.4-0.4c0-0.2,0.2-0.4,0.4-0.4h2.7c0.4,0,0.8-0.3,0.8-0.8v-2.8c0-0.4-0.3-0.8-0.8-0.8   H13c-1.2,0-2.1-0.9-2.1-2.1c0-1.2,0.9-2.1,2.1-2.1h19.7c1.2,0,2.1,0.9,2.1,2.1c0,1.2-1,2.1-2.1,2.1H24c-0.4,0-0.8,0.3-0.8,0.8v2.8   c0,0.4,0.3,0.8,0.8,0.8h2.7c0.2,0,0.4,0.2,0.4,0.4c0,0.2-0.2,0.4-0.4,0.4H24c-0.4,0-0.8,0.3-0.8,0.8v2.8c0,0.4,0.3,0.8,0.8,0.8h2.7   c0.2,0,0.4,0.2,0.4,0.4c0,0.2-0.2,0.4-0.4,0.4H24c-0.4,0-0.8,0.3-0.8,0.8v3.8c0,0-0.8,0-0.8,0v-3.8c0-0.4-0.3-0.8-0.8-0.8H18.9z    M28.7,32.4C28.7,32.4,28.7,32.4,28.7,32.4c-0.2,0-0.4,0.1-0.6,0.2L26,34.8v-1.3l1.5-1.5c0.1-0.1,0.2-0.3,0.2-0.6   c0-0.3,0.1-0.6,0.3-0.8c0.4-0.4,1.1-0.4,1.5,0C30.2,31.3,29.8,32.4,28.7,32.4z"></path><path d="M10.3,25.2c0.9,0,1.6,0.7,1.6,1.6h1.5c0-1.7-1.4-3.1-3.1-3.1c-0.9,0-1.8,0.4-2.4,1.1c-1.7,0-3,1.4-3,3.1   c0,1.7,1.4,3.1,3.1,3.1v-1.5c-0.9,0-1.6-0.7-1.6-1.6c0-0.9,0.7-1.6,1.6-1.6c0.1,0,0.1,0,0.2,0c0.3,0,0.6-0.1,0.8-0.3   C9.2,25.5,9.7,25.2,10.3,25.2z"></path><path d="M7.5,22.4c0.1,0,0.1,0,0.2,0c0.3,0.1,0.6-0.1,0.8-0.4c0.3-0.5,0.8-0.8,1.3-0.8c0.9,0,1.6,0.7,1.6,1.6h1.5   c0-1.7-1.4-3.1-3.1-3.1c-0.9,0-1.8,0.4-2.4,1.1c-1.7,0-3,1.4-3,3.1H6C6,23.1,6.7,22.4,7.5,22.4z"></path><rect x="38.9" y="18.5" width="1.5" height="1.7"></rect><rect x="38.9" y="21.7" width="1.5" height="1.7"></rect><rect x="37.2" y="20.2" width="1.7" height="1.5"></rect><rect x="40.4" y="20.2" width="1.7" height="1.5"></rect></g></svg>