<svg height='100px' width='100px'  fill="#000000" xmlns="http://www.w3.org/2000/svg" xmlns:xlink="http://www.w3.org/1999/xlink" version="1.1" x="0px" y="0px" viewBox="0 0 100 100" style="enable-background:new 0 0 100 100;" xml:space="preserve"><path d="M86.4992676,66.3386841c1.4020996-0.2705078,2.4655762-1.5039062,2.4655762-2.9841919v-2.8129883  c0-1.5227051-1.128418-2.7762451-2.5907593-2.9963989c0.5332031-4.8652344,0.8173218-10.4536133,0.8173218-16.2409058  C87.1914062,30.4765625,85.8818359,10,80.9262695,10s-6.2651367,20.4765625-6.2651367,31.3041992  c0,5.7857056,0.2839355,11.3770752,0.8173218,16.2409058c-1.4627686,0.2200928-2.5912476,1.4736328-2.5912476,2.9963989v2.8129883  c0,1.3421021,0.8791504,2.4708252,2.0873413,2.8739624c-2.0437012,1.4745483-3.3102417,3.7526855-3.4755249,6.3237915  c-0.1845703,2.8769531,1.0249023,5.7294922,3.2353516,7.6298828l0.347168,0.296875  c2.1064453,1.7939453,4.0957031,3.4887695,3.7612305,8.4536133c-0.0253906,0.3769531,0.1635742,0.7358398,0.4882812,0.9282227  C79.4882812,89.9536133,79.6645508,90,79.840332,90c0.1875,0,0.375-0.0527344,0.5390625-0.1577148  c0.3149414-0.2016602,7.7265625-5.0141602,9.5878906-12.090332c0.9111328-3.465332,0.2485352-7.0996094-1.7729492-9.7211914  C87.6934814,67.3811646,87.1212158,66.8214111,86.4992676,66.3386841z M80.9160156,11.9990234  c1.4921875,0.3452148,4.2753906,10.7143555,4.2753906,29.3051758c0,5.7839355-0.2861328,11.3621216-0.8238525,16.1953125h-6.8829346  c-0.5373535-4.831543-0.8234863-10.4128418-0.8234863-16.1953125  C76.6611328,22.7133789,79.4443359,12.3442383,80.9160156,11.9990234z M74.887207,60.5415039  c0-0.574707,0.4677734-1.0419922,1.0424805-1.0419922h9.9931641c0.574707,0,1.0419922,0.4672852,1.0419922,1.0419922v2.8129883  c0,0.574707-0.4672852,1.0424805-1.0419922,1.0424805h-9.9931641c-0.574707,0-1.0424805-0.4677734-1.0424805-1.0424805V60.5415039z   M88.0327148,77.2431641c-1.1713867,4.4541016-5.0019531,8.0341797-7.1806641,9.7719727  c-0.2705078-4.4780273-2.5751953-6.4418945-4.4736328-8.0585938l-0.340332-0.2910156  c-1.7373047-1.4936523-2.6879883-3.730957-2.5429688-5.9848633c0.1323242-2.0644531,1.1796875-3.8867188,2.8730469-5.0004883  c1.2753906-0.8393555,2.7719727-1.2832031,4.328125-1.2832031c2.3945312,0,4.4951172,1.0141602,5.9145508,2.8549805  C88.2558594,71.3862305,88.7875977,74.3735352,88.0327148,77.2431641z"></path><path d="M19.5517578,34.3164062C15.2246094,35.9765625,11,38.1689453,11.0004883,44.9746094L10,84.7392578  C10,87.6401367,12.3598633,90,15.2607422,90h26.5488281c2.9008789,0,5.2607422-2.3598633,5.2602539-5.2861328L46.0703125,45  c0-6.8310547-4.2246094-9.0234375-8.5517578-10.6835938c-1.3795776-0.5291748-2.0188599-1.227478-2.3259888-1.7539062h1.0447388  c0.5522461,0,1-0.4477539,1-1v-9.25c0-0.5522461-0.4477539-1-1-1h-1.7603149l-0.5751343-6.3276367  C33.6430664,12.1430664,31.3359375,10,28.5351562,10s-5.1079102,2.1430664-5.3666992,4.9848633L22.5933228,21.3125h-1.7603149  c-0.5522461,0-1,0.4477539-1,1v9.25c0,0.5522461,0.4477539,1,1,1h1.0446777  C21.5705566,33.0889893,20.9315186,33.7870483,19.5517578,34.3164062z M44.0997925,46.1782227l0.7949829,31.5864258H12.1756592  l0.7946777-31.5864258H44.0997925z M41.8095703,88H15.2607422C13.4628906,88,12,86.5371094,11.9995117,84.7646484l0.1257935-5  h32.8198242l0.1251831,4.9746094C45.0703125,86.5371094,43.6074219,88,41.8095703,88z M25.1606445,15.1655273  C25.324707,13.3608398,26.7753906,12,28.5351562,12s3.2104492,1.3608398,3.3745117,3.1655273L32.4683838,21.3125h-7.8664551  L25.1606445,15.1655273z M21.8330078,23.3125h13.4042969v7.25H21.8330078V23.3125z M33.0317993,32.5625  c0.2610474,0.9193726,1.0942383,2.5942383,3.7699585,3.6210938c3.7675781,1.4454956,6.914978,3.0678101,7.2369995,7.9946289  H13.031189c0.3139648-4.9216919,3.4644165-6.5470581,7.2373657-7.9946289  c2.6757202-1.0268555,3.5089111-2.7017212,3.7699585-3.6210938H33.0317993z"></path><path d="M56.3706055,90h5.8100586c2.730957,0,4.953125-2.222168,4.953125-4.953125v-4.7521362  c0.5292358-0.0258179,0.953125-0.454895,0.953125-0.9905396V26.2880859c0-0.8525391-0.171875-1.6821289-0.5102539-2.4663086  l-2.6135864-6.0454712c-0.0003052-0.0006714-0.0004883-0.0012207-0.0007935-0.0018921l-2.4383545-5.6401367  C61.9545898,10.8178711,60.7094727,10,59.2749023,10c-1.434082,0.0004883-2.6787109,0.8183594-3.2475586,2.1342773  l-2.4387207,5.640686c-0.0001221,0.0002441-0.0001831,0.0004883-0.0003052,0.0007935l-2.6141968,6.0465088  c-0.3383789,0.7836914-0.5102539,1.6132812-0.5102539,2.4658203v53.0161133c0,0.5357666,0.4241333,0.9650269,0.9536133,0.9906006  v4.7520752C51.4174805,87.777832,53.6396484,90,56.3706055,90z M54.9238281,28.9174805  c0.3212891,0.1982422,0.7275391,0.1982422,1.0498047,0l3.2958984-2.0322266l3.3012695,2.0327148  c0.1611328,0.0991211,0.3427734,0.1484375,0.5244141,0.1484375s0.3632812-0.0493164,0.5244141-0.1484375l2.4672852-1.5189209  V69.340332H52.4638672V27.4001465L54.9238281,28.9174805z M52.4638672,78.3041992V71.340332h13.6230469v6.9638672H52.4638672z   M62.1806641,88h-5.8100586c-1.628418,0-2.953125-1.324707-2.953125-2.953125v-4.7426758h11.7163086v4.7426758  C65.1337891,86.675293,63.809082,88,62.1806641,88z M57.8632812,12.9277344C58.1142578,12.347168,58.6420898,12,59.2753906,12  s1.1616211,0.347168,1.4125977,0.9282227l1.831543,4.2363281h-6.4880371L57.8632812,12.9277344z M55.1668091,19.1645508h8.2174072  l2.3565063,5.4506836c0.0759888,0.1760864,0.1204834,0.3601074,0.1716309,0.5424805l-2.8171387,1.734375L59.793457,24.859375  c-0.3227539-0.1982422-0.7275391-0.1977539-1.0493164,0.0004883l-3.2954102,2.0317383l-2.8103638-1.7334595  c0.0511475-0.182373,0.0956421-0.366394,0.1716919-0.5424194L55.1668091,19.1645508z"></path></svg>