<svg height='100px' width='100px'  fill="#000000" xmlns="http://www.w3.org/2000/svg" xmlns:xlink="http://www.w3.org/1999/xlink" version="1.1" x="0px" y="0px" viewBox="0 0 100 100" enable-background="new 0 0 100 100" xml:space="preserve"><g><g><path d="M26.525,87.914c-0.946,0-1.854-0.534-2.287-1.447c-0.598-1.262-0.059-2.77,1.203-3.369l48.947-23.199    c1.26-0.599,2.77-0.061,3.369,1.202c0.598,1.262,0.059,2.77-1.203,3.369L27.606,87.669C27.257,87.835,26.888,87.914,26.525,87.914    z"></path></g><g><path d="M41.917,72.136c-0.369,0-0.743-0.081-1.097-0.251l-15.395-7.421c-1.258-0.607-1.787-2.119-1.181-3.377    c0.606-1.26,2.123-1.786,3.377-1.18l15.395,7.421c1.258,0.607,1.787,2.119,1.181,3.377C43.761,71.608,42.857,72.136,41.917,72.136    z"></path></g><g><path d="M75.469,87.868c-0.369,0-0.745-0.082-1.099-0.253l-15.214-7.353c-1.258-0.608-1.785-2.121-1.177-3.378    c0.606-1.259,2.121-1.784,3.378-1.177L76.57,83.06c1.258,0.608,1.785,2.121,1.177,3.378    C77.311,87.341,76.409,87.868,75.469,87.868z"></path></g><g><path d="M51.23,64.91c-11.273,0-20.445-9.172-20.445-20.445c0-4.367,2.506-7.301,4.715-9.889c2.68-3.137,4.14-5.078,3.002-8.491    c-0.32-0.958-0.037-2.016,0.716-2.688c0.756-0.673,1.838-0.831,2.753-0.404c0.146,0.068,14.494,7,9.812,25.262    c-0.347,1.353-1.719,2.167-3.079,1.822c-1.352-0.347-2.169-1.725-1.822-3.078c2.151-8.391-0.526-13.564-3.179-16.441    c-0.69,3.009-2.655,5.31-4.357,7.303c-1.88,2.202-3.504,4.103-3.504,6.604c0,8.484,6.903,15.387,15.386,15.387    c8.485,0,15.387-6.903,15.387-15.387c0-5.069-2.779-8.851-5.997-13.23c-3.139-4.269-6.607-8.989-7.437-15.408    c-1.209,1.396-2.281,3.226-2.417,5.405c-0.086,1.394-1.27,2.456-2.682,2.367c-1.394-0.087-2.454-1.288-2.366-2.682    c0.503-8.05,8.398-12.427,8.733-12.61c0.826-0.45,1.834-0.403,2.616,0.122c0.782,0.524,1.208,1.438,1.107,2.372    c-0.808,7.464,2.754,12.309,6.523,17.438c3.432,4.669,6.98,9.497,6.98,16.225C71.676,55.738,62.503,64.91,51.23,64.91z"></path></g></g></svg>