<svg height='100px' width='100px'  fill="#000000" xmlns="http://www.w3.org/2000/svg" data-name="Layer 1" viewBox="0 0 128 128" x="0px" y="0px"><title>Artboard 20</title><path d="M122.9,67.37c-1.46-4.43-8.94-18.65-23-24.67,1.56-1.64,3.28-3.69,5.51-6.35.74-.89,2.49-3,1.8-5.37a5.11,5.11,0,0,0-2.79-3c-1.92-1-9.66-3.46-17-.87C88,20.48,85.75,13.67,82.93,10c-1.53-2-3.22-3-4.9-3s-2.64.9-3.9,2.07L74,9.19c-4.06-.55-11.1-.53-16.65,4.58-.24.22-.51.48-.81.79A11.26,11.26,0,0,0,55.11,11a14.12,14.12,0,0,0-9.37-6.27,4.19,4.19,0,0,0-3.63.93,3.63,3.63,0,0,0-.95,2.8V8.8a16.48,16.48,0,0,1-.65,4.29,9,9,0,0,0-.41,3.35c0,.16,0,.31.05.46A69.79,69.79,0,0,0,28,16c-7.5-.15-16.31.33-17.94,5.38-.76,2.35.5,4.49,1.19,5.65C18.15,38.63,21.6,44.46,25.8,47.6c1,.74,2.1,1.57,3.33,2.42l-.08,0c-4.1,1.62-6.78,4.81-12.11,11.18A8.9,8.9,0,0,0,15.24,64H12v9c0,.51.46,51,40,51H76c32.5,0,38.59-33.77,39.73-46.18,2.27-.31,5.51-1.14,7-3.85S123.26,68.46,122.9,67.37ZM102.67,31.56c.62.31.73.49.74.53s0,.5-1,1.72a88,88,0,0,1-6.61,7.42A33.45,33.45,0,0,0,88.08,40a44.21,44.21,0,0,0-6.47.22,21.85,21.85,0,0,0,4.93-8.3C93,28.23,101,30.72,102.67,31.56ZM76.86,12c.47-.44,1-.94,1.11-1s.85.28,1.81,1.5c2.76,3.55,4.74,10.89,3.28,17C81.51,36,76.57,39.78,71.79,43.41c-3.08,2.34-7.75,5.88-9.9,4.8-2.54-1.27-2.09-8.85-1.9-12.09.27-4.6.62-10.33,4.51-14.81a12.11,12.11,0,0,1,3.76-2.88,39.1,39.1,0,0,0,8.08-6ZM44.64,63.15l0,0h0c.34-.72.69-1.43,1.09-2.13,3.75-6.66,7.26-10,10.44-10a4.43,4.43,0,0,1,.56,0c4,.52,6.35,6.65,6.38,6.71,2.27,6.15-1.56,12.24-2.82,14.24-.47.75-4.84,7.4-12.73,9.11-2.48.54-3.71.78-4.5.27C40.5,79.66,40.95,71,44.64,63.15Zm6.45-29c.57-1.69,1-5.54-4.3-10.19a2,2,0,0,0-2.64,3,9.44,9.44,0,0,1,3.14,4.24,51.2,51.2,0,0,0-11.36-5.85,13.06,13.06,0,0,0-2.45-5.23c5.56.29,10.05,1.13,14.31,4.42a26.19,26.19,0,0,1,8.24,11l0,.29c-.06,1-.12,2-.15,3.08A43.64,43.64,0,0,0,51.09,34.18Zm-7-18a5.09,5.09,0,0,1,.28-2A20.44,20.44,0,0,0,45.15,9V8.7a10.22,10.22,0,0,1,6.54,4.42c1.42,2.3,1.23,4.79.9,7.36a2,2,0,0,0,3.82,1.06,15.52,15.52,0,0,1,3.65-4.82A14.63,14.63,0,0,1,69.45,13a34.81,34.81,0,0,1-3.16,2,15.86,15.86,0,0,0-4.8,3.74,21.11,21.11,0,0,0-4.66,9.84,31.71,31.71,0,0,0-6.61-7.11,22.94,22.94,0,0,0-5.66-3.22A6.72,6.72,0,0,1,44.09,16.17ZM14.72,25c-.38-.65-1-1.73-.82-2.37.15-.46,1.45-2.63,12.37-2.63a2,2,0,0,0,1.34,1,5.26,5.26,0,0,1,3.52,2.9A51.74,51.74,0,0,0,20.06,22a2,2,0,0,0-.92,3.8l-.86.33a2,2,0,1,0,1.45,3.73L27.05,27a54,54,0,0,1,11.77,4c-.75,1.38-3.61,4.84-13.12,4.23a2,2,0,1,0-.26,4c.83.05,1.61.08,2.37.08,9.7,0,13.29-4.17,14.53-6.43a41.81,41.81,0,0,1,8.54,6.58,6.84,6.84,0,0,1-2.52,3.84C45.94,45.13,42,45.5,36.89,44.38A2,2,0,0,0,36,48.29,28.84,28.84,0,0,0,42.2,49a14,14,0,0,0,8.57-2.5,10.57,10.57,0,0,0,3.09-3.68c.61.77,1.2,1.58,1.76,2.42a10.35,10.35,0,0,1-1.47,1.93,13.32,13.32,0,0,0-6,3.67l-.66.2c-7.6,2.07-14.63-3.19-19.28-6.67C24.64,41.73,21.33,36.14,14.72,25ZM20,63.8c4.9-5.85,7.36-8.79,10.52-10a27.07,27.07,0,0,1,3.07-1A22.57,22.57,0,0,0,44,55.54h.41c-.93,1.4-1.65,2.66-2.11,3.49-.37.66-.73,1.36-1.08,2.09l-.08.11a13.45,13.45,0,0,1-2.37,2.32l-.4.33C31.67,70,21.81,67.09,19.73,66c-.62-.31-.73-.49-.74-.53S19,65,20,63.8ZM76,120H52c-14.82,0-25.37-7.78-31.35-23.13A74.78,74.78,0,0,1,16,73V68.17a6.18,6.18,0,0,0,1.92,1.44,24.76,24.76,0,0,0,10,2,19.65,19.65,0,0,0,10.5-2.83c-1.65,6.57-1.53,13.28,2.51,15.86a5.82,5.82,0,0,0,3.27.91A20.78,20.78,0,0,0,48.42,85c9.29-2,14.35-9.43,15.27-10.89a27.73,27.73,0,0,0,3.52-7.68c4.3,5.8,11.42,8.91,15,10.46,4,1.73,8.12,2.36,13.48,2.36,4.33,0,9.48-.41,16-1C110.45,90.22,104.53,120,76,120Zm43.25-48c-.88,1.58-4.07,1.86-5.43,2-15.54,1.37-23.34,2.06-30-.84C79.57,71.33,69.68,67,68,58.6a12.06,12.06,0,0,1,.24-6.33c1.91.41,4.09.93,6.47,1.58-.9,3.87-1.69,13.81,11.48,20a2,2,0,1,0,1.69-3.62c-10.51-4.9-10-12.33-9.35-15.23a116.86,116.86,0,0,1,14.28,5.46c-.59,2.48-.75,8.12,7,14.16a2,2,0,1,0,2.46-3.16c-5.12-4-5.8-7.38-5.7-9.19a96.83,96.83,0,0,1,16.23,10.33,2,2,0,1,0,2.48-3.14,98.71,98.71,0,0,0-13-8.68,10,10,0,0,1,5.9-2.16,2,2,0,0,0,0-4h0a14.6,14.6,0,0,0-9.69,4.13,116.06,116.06,0,0,0-12.17-5.33c.64-1.44,2.65-4,8.91-3.68a2,2,0,0,0,.21-4C87.3,45.28,83.69,49,82.48,52c-4.21-1.41-8-2.45-11.31-3.21,1-.74,2.07-1.51,3-2.24l1.22-.93.15,0A34.63,34.63,0,0,1,87.92,44c19.23.79,29.64,19.93,31.18,24.63C119.33,69.32,119.86,70.93,119.25,72Z"></path></svg>