<svg height='100px' width='100px'  fill="#000000" xmlns:dc="http://purl.org/dc/elements/1.1/" xmlns:cc="http://creativecommons.org/ns#" xmlns:rdf="http://www.w3.org/1999/02/22-rdf-syntax-ns#" xmlns:svg="http://www.w3.org/2000/svg" xmlns="http://www.w3.org/2000/svg" xmlns:sodipodi="http://sodipodi.sourceforge.net/DTD/sodipodi-0.dtd" xmlns:inkscape="http://www.inkscape.org/namespaces/inkscape" viewBox="0 0 100 100" version="1.1" x="0px" y="0px"><g transform="translate(0,-952.36216)"><path style="color:#000000;font-style:normal;font-variant:normal;font-weight:normal;font-stretch:normal;font-size:medium;line-height:normal;font-family:sans-serif;text-indent:0;text-align:start;text-decoration:none;text-decoration-line:none;text-decoration-style:solid;text-decoration-color:#000000;letter-spacing:normal;word-spacing:normal;text-transform:none;direction:ltr;block-progression:tb;writing-mode:lr-tb;baseline-shift:baseline;text-anchor:start;white-space:normal;clip-rule:nonzero;display:inline;overflow:visible;visibility:visible;opacity:1;isolation:auto;mix-blend-mode:normal;color-interpolation:sRGB;color-interpolation-filters:linearRGB;solid-color:#000000;solid-opacity:1;fill:#000000;fill-opacity:1;fill-rule:evenodd;stroke:none;stroke-width:1;stroke-linecap:butt;stroke-linejoin:round;stroke-miterlimit:4;stroke-dasharray:none;stroke-dashoffset:0;stroke-opacity:1;color-rendering:auto;image-rendering:auto;shape-rendering:auto;text-rendering:auto;enable-background:accumulate" d="m 59.624829,989.26701 c -5.87088,3.9079 -8.53079,11.49599 -11.40899,18.51429 -0.74426,1.6522 -1.70923,2.3717 -2.80226,2.6938 -1.09299,0.3221 -2.33712,0.2214 -3.57242,0.1202 -1.23527,-0.1012 -2.46407,-0.2071 -3.53694,0.2029 -1.07287,0.4099 -1.93446,1.3636 -2.37589,3.1993 -0.0362,0.1513 0.0598,0.3028 0.21266,0.3338 l 3.0783,0.6299 0.0161,0 c 4.60832,0.6727 7.46189,0.496 9.35639,-0.2769 1.89456,-0.7728 2.78283,-2.1602 3.41023,-3.738 1.04349,-2.6242 1.45349,-5.7898 4.84953,-8.3112 0.94589,-0.5637 1.63787,-0.68 2.13955,-0.5473 0.50938,0.1347 0.88387,0.5295 1.17078,1.1226 0.52385,1.083 0.6703,2.7544 0.70242,4.104 l 0.0407,7.9108 c -0.005,0.3714 0.55647,0.3692 0.5499,0 -0.01,-2.5096 -0.0183,-5.0192 -0.0269,-7.5289 -0.0937,-2.8606 0.80649,-4.9378 1.58964,-6.7292 0.39164,-0.8956 0.75633,-1.71929 0.94092,-2.53809 0.18468,-0.8189 0.18034,-1.6424 -0.17396,-2.4781 l 0,0 -0.005,0 c -0.57502,-1.676 -2.3738,-3.49 -3.7507,-6.5693 -0.0819,-0.1692 -0.26372,-0.1991 -0.40336,-0.1146 z m 0.0718,0.6417 0,0 0,0 c 1.41562,3.0089 3.15287,4.9101 3.59392,6.3031 0.2292,0.7239 0.16568,1.2916 -0.4404,1.9973 -0.60606,0.7056 -1.79574,1.5095 -3.78505,2.48549 -5.90294,2.7439 -6.36785,7.0128 -7.57555,10.0498 -0.60405,1.5191 -1.36643,2.722 -3.10735,3.4322 -1.73988,0.7098 -4.5047,0.9071 -9.06205,0.2426 l -2.74214,-0.5603 c 0.42438,-1.4819 1.07674,-2.2261 1.9215,-2.5489 0.90763,-0.3468 2.06268,-0.2695 3.29641,-0.1685 1.23356,0.1011 2.54349,0.2215 3.77214,-0.1406 1.22872,-0.3621 2.35355,-1.2316 3.14816,-2.9954 0,0 0.005,0 0.005,-0.01 2.84424,-6.9348 5.48261,-14.26849 10.975,-18.08829 z m 3.69696,8.4989 c -0.17503,0.7157 -0.50581,1.4823 -0.88068,2.33959 -0.4812,1.1007 -1.0229,2.3533 -1.34802,3.8455 -0.11296,-0.5798 -0.27414,-1.136 -0.50802,-1.6196 -0.32844,-0.6789 -0.82078,-1.2281 -1.52523,-1.4145 -0.13735,-0.036 -0.28253,-0.054 -0.43177,-0.061 1.69076,-0.7824 3.59356,-1.85559 4.69372,-3.08979 z"></path></g></svg>