<?xml version="1.0" encoding="utf-8"?>
<!-- Generator: Adobe Illustrator 24.2.1, SVG Export Plug-In . SVG Version: 6.00 Build 0)  -->
<svg version="1.1" id="Layer_1" xmlns="http://www.w3.org/2000/svg" xmlns:xlink="http://www.w3.org/1999/xlink" x="0px" y="0px"
	 viewBox="0 0 100 100" enable-background="new 0 0 100 100" xml:space="preserve">
<g>
	<path fill-rule="evenodd" clip-rule="evenodd" d="M23.779,24.43c4.235,0,7.818,3.583,7.818,7.818c0,3.909-3.583,7.492-7.818,7.492
		s-7.492-3.583-7.492-7.492C16.287,28.013,19.544,24.43,23.779,24.43z M48.208,85.668c0.651-5.537-0.326-8.469-3.583-8.795
		c1.954,6.189-6.189,7.818-3.257,15.635c-14.658-6.189,5.212-13.681-2.606-20.195c1.954-0.326,3.583,0,4.56,0.977
		c0.326-4.235,2.606-6.84,6.84-7.818c-1.954,12.704,16.287,11.726,4.56,27.687C54.397,83.713,52.117,81.107,48.208,85.668z
		 M74.919,71.336v17.264c0,5.863-8.469,5.863-8.469,0V70.358c-0.326-0.651,0-1.629,0.326-2.606l5.537-8.795
		c1.303,2.606,3.257,4.56,5.863,6.189L74.919,71.336z M92.834,64.821v25.733c0,5.537-8.469,5.537-8.469,0V67.101
		C87.622,67.427,90.554,66.45,92.834,64.821z M73.616,22.476c7.818,0,15.309,0,23.127,0c1.629,0,3.257,1.629,3.257,3.257v11.401
		c0,1.303-0.651,2.606-1.629,3.257l-13.029,9.121c-3.583,2.606-7.492-2.606-3.909-5.212l12.052-8.469v-6.189h-2.932v5.863
		l-2.606,1.954c-1.303-0.326-2.28-0.326-3.583-0.326c-3.257-4.886-9.446-7.492-14.984-5.537l-3.257-2.606l3.909-4.886
		C71.01,23.127,71.987,22.476,73.616,22.476z M55.7,23.779l0.326,0.326l0.651-0.977c0.977-1.303,3.583,0.977,2.606,2.28
		l-0.651,0.977l0.651,0.326l0.651-0.651c0.977-1.303,3.583,0.977,2.606,2.28l-0.651,0.651l7.166,5.863
		c4.886-2.932,11.401,0,13.681,5.212h0.326l-2.932,2.28c-6.189,4.235,0.326,13.681,6.515,9.446l9.121-6.515
		c7.492,10.749-6.515,25.733-18.241,16.287c-2.932-2.606-4.56-6.189-4.56-10.098c-5.212-0.977-9.446-7.166-7.166-12.704
		l-7.166-5.863l-0.651,0.977c-0.977,0.977-3.909-0.977-2.606-2.28l0.651-0.977l-0.651-0.326l-0.651,0.651
		c-0.977,1.303-3.909-0.977-2.606-2.28l0.651-0.651l-0.651-0.326C49.186,25.081,52.769,21.173,55.7,23.779z M83.388,5.212
		c3.909,0,7.492,3.257,7.492,7.492s-3.583,7.818-7.492,7.818c-4.235,0-7.818-3.583-7.818-7.818S79.153,5.212,83.388,5.212z
		 M2.28,70.684h14.332l-7.166-1.303c-2.932-0.651-4.886-3.583-4.235-6.515L9.446,44.3c0.651-2.932,3.257-4.56,6.189-4.235
		l8.795,1.954c2.606,0.651,4.56,3.583,3.909,6.189l-0.651,3.257l-2.606,0.326l-5.863-6.515l4.56,10.098h2.932h6.84
		c3.909,0,3.909,5.863,0,5.863H22.476c-1.303,0-1.629,0-2.28-0.326l-7.166-11.726l5.863,15.309c2.28,0.326,8.143,0.977,9.772,1.303
		c2.28,0.326,4.886,1.629,3.909,4.56L26.71,86.319c-1.629,3.909-7.492,1.629-6.189-2.28l3.257-8.795h-0.326l-7.818,7.492
		l7.492,7.166c2.606,2.28-0.651,5.537-2.932,3.257l-7.818-7.166L4.56,93.16c-2.28,2.28-5.537-0.977-2.932-3.257l7.492-7.166
		l-8.143-7.818C-0.651,73.616,0,70.684,2.28,70.684z"/>
</g>
</svg>
