<?xml version="1.0" encoding="utf-8"?>
<!-- Generator: Adobe Illustrator 24.2.1, SVG Export Plug-In . SVG Version: 6.00 Build 0)  -->
<svg version="1.1" id="Layer_1" xmlns="http://www.w3.org/2000/svg" xmlns:xlink="http://www.w3.org/1999/xlink" x="0px" y="0px"
	 viewBox="0 0 100 100" enable-background="new 0 0 100 100" xml:space="preserve">
<g>
	<path d="M67.817,17.553h-3.128v9.926h3.128V17.553z M24.895,0h29.169c2.061,0,3.935,0.845,5.294,2.199
		c1.355,1.359,2.199,3.232,2.199,5.289v7.965l2.003-3.47c0.866-1.489,2.772-1.999,4.261-1.137c0.489,0.284,0.874,0.677,1.137,1.137
		l11.344,19.652c0.861,1.489,0.355,3.395-1.133,4.257c-0.493,0.289-1.033,0.422-1.564,0.422l-16.048,0.004v4.319
		c3.767,1.493,5.498,4.537,7.204,7.539c1.171,2.061,2.329,4.098,4.135,5.172c1.823,1.087,3.424,2.333,4.591,3.868
		c1.25,1.652,1.969,3.575,1.89,5.891c-0.293,8.521,0.41,12.439,1.631,19.242c0.397,2.191,0.84,4.675,1.313,7.623
		c0.669,1.794,0.067,3.433-1.392,4.867c-1.045,1.029-2.592,1.944-4.395,2.701c-1.714,0.723-3.671,1.321-5.632,1.748
		c-5.682,1.233-11.775,0.966-13.435-1.627c-0.084-0.134-0.151-0.272-0.197-0.41c-0.134-0.381-0.309-0.845-0.514-1.371l-0.569-1.426
		c-2.128-1.756-4.303-3.654-6.264-5.749c-1.89-2.015-3.558-4.198-4.767-6.581c-1.902-0.272-2.927-0.088-4.725,0.234
		c-0.782,0.142-1.681,0.301-2.546,0.431c-2.693,0.406-4.675-0.966-5.741-2.919c-0.447-0.811-0.723-1.739-0.807-2.668
		c-0.088-0.953,0.021-1.919,0.343-2.789l0.075-0.18c0.071-0.167,0.146-0.33,0.23-0.493h-7.091c-2.057,0-3.93-0.84-5.289-2.199
		c-1.355-1.355-2.199-3.228-2.199-5.289V7.489c0-2.057,0.845-3.93,2.199-5.289C20.965,0.845,22.838,0,24.895,0z M66.257,29.093
		c-1.246,0-2.254,1.008-2.254,2.25c0,1.246,1.008,2.254,2.254,2.254c1.242,0,2.25-1.008,2.25-2.254
		C68.506,30.101,67.499,29.093,66.257,29.093z M57.76,36.319l-2.847,0.004c-1.727,0-3.123-1.401-3.123-3.128
		c0-0.648,0.197-1.246,0.531-1.748l3.897-6.744l-13.292,7.673l-7.296,4.223l0.314,7.74l-2.354,0.092l-0.368-9.157l6.648-3.851
		l-2.521-4.361l-16.148,8.471v30.72c0,1.016,0.418,1.94,1.087,2.609c0.669,0.669,1.597,1.087,2.609,1.087h21.162
		c-1.012-1.359-2.045-2.651-3.128-3.905l-0.042-0.05c-0.92,0.786-2.112,1.259-3.408,1.259c-1.447,0-2.764-0.59-3.713-1.543
		c-0.962-0.953-1.551-2.27-1.551-3.721c0-1.384,0.535-2.647,1.413-3.588c-1.643-1.877-2.07-4.135-1.622-6.134
		c0.226-1.02,0.686-1.974,1.325-2.768c0.648-0.807,1.497-1.468,2.488-1.886c1.986-0.84,4.499-0.719,7.104,1.07
		c2.902,1.99,5.707,3.997,8.388,6.013c1.535,1.154,3.023,2.308,4.449,3.458V42.001V36.319z M41.211,64.112
		c-1.187-1.3-2.446-2.592-3.788-3.922c-0.422,0.481-0.677,1.108-0.677,1.798c0,0.753,0.305,1.438,0.803,1.936
		c0.493,0.493,1.175,0.799,1.932,0.799C40.14,64.722,40.743,64.492,41.211,64.112z M51.359,70.919
		c0.393,0.293,0.669,0.732,0.74,1.246c0.063,0.184,0.096,0.385,0.096,0.59c0,0.079-0.004,0.163-0.013,0.243
		c0.284,2.801,0.761,4.926,1.601,6.757c0.903,1.978,2.279,3.726,4.336,5.733c0.748,0.728,0.765,1.923,0.038,2.676
		c-0.728,0.744-1.923,0.761-2.676,0.033c-2.388-2.333-4.01-4.42-5.135-6.874c-0.895-1.948-1.443-4.068-1.79-6.661l-11.703,0.088
		c-0.84,0.008-1.355,0.385-1.585,0.886l-0.029,0.096c-0.13,0.347-0.171,0.74-0.138,1.133c0.038,0.418,0.163,0.836,0.36,1.2
		c0.36,0.648,1.008,1.108,1.877,0.978c1.104-0.163,1.815-0.293,2.425-0.401c2.538-0.456,3.813-0.686,7.025-0.084
		c0.59,0.113,1.116,0.502,1.38,1.091c1.041,2.342,2.647,4.491,4.512,6.477c1.882,2.011,4.052,3.889,6.184,5.641
		c0.284,0.201,0.514,0.485,0.656,0.832l0.761,1.902l0.472,1.254c0.97,0.999,5.172,0.736,9.349-0.171
		c1.777-0.385,3.504-0.907,4.963-1.522c1.38-0.581,2.513-1.238,3.211-1.919c0.364-0.36,0.556-0.673,0.489-0.895
		c-0.071-0.151-0.117-0.314-0.146-0.485c-0.493-3.082-0.937-5.565-1.33-7.748c-1.267-7.054-1.999-11.122-1.693-20.028
		c0.05-1.371-0.376-2.509-1.116-3.487c-0.828-1.091-2.074-2.04-3.525-2.906c-2.659-1.585-4.064-4.056-5.482-6.552
		c-1.091-1.915-2.191-3.851-3.918-5.101v17.24c-0.008,0.435-0.155,0.87-0.46,1.229c-0.682,0.79-1.873,0.886-2.668,0.205
		c-2.325-1.982-4.796-3.947-7.384-5.896c-2.605-1.961-5.373-3.935-8.271-5.925c-1.388-0.958-2.605-1.075-3.487-0.702
		c-0.393,0.167-0.736,0.439-1.008,0.778c-0.284,0.351-0.485,0.769-0.585,1.213c-0.222,0.991,0.059,2.149,1.045,3.103
		c2.626,2.551,4.93,4.913,7.066,7.401C47.755,65.851,49.565,68.218,51.359,70.919z M57.76,21.09V7.489
		c0-1.012-0.414-1.94-1.087-2.609c-0.669-0.669-1.593-1.087-2.609-1.087H24.895c-1.012,0-1.94,0.418-2.609,1.087
		s-1.087,1.597-1.087,2.609v25.385L36.21,25l-5.386-10.253l2.086-1.1l5.933,11.298l0,0l0.87,1.509l4.499-4.495v-9.542h8.555v2.362
		h-6.197v8.158l-5.636,5.636l0.97,1.673L57.76,21.09z"/>
</g>
</svg>
