<svg height='100px' width='100px'  fill="#000000" xmlns="http://www.w3.org/2000/svg" xmlns:xlink="http://www.w3.org/1999/xlink" version="1.1" x="0px" y="0px" viewBox="0 0 32 32" enable-background="new 0 0 32 32" xml:space="preserve"><g><rect fill="none" width="32" height="32"></rect></g><g><g><path d="M18,7c-0.553,0-1-0.447-1-1c0-2.757,2.243-5,5-5c0.553,0,1,0.447,1,1s-0.447,1-1,1c-1.654,0-3,1.346-3,3    C19,6.553,18.553,7,18,7z"></path></g><g><path d="M18,23c-0.553,0-1-0.447-1-1V6c0-0.553,0.447-1,1-1s1,0.447,1,1v16C19,22.553,18.553,23,18,23z"></path></g><g><path d="M26,7c-0.553,0-1-0.447-1-1c0-2.757,2.243-5,5-5c0.553,0,1,0.447,1,1s-0.447,1-1,1c-1.654,0-3,1.346-3,3    C27,6.553,26.553,7,26,7z"></path></g><g><path d="M26,23c-0.553,0-1-0.447-1-1V6c0-0.553,0.447-1,1-1s1,0.447,1,1v16C27,22.553,26.553,23,26,23z"></path></g><g><path d="M26,9h-8c-0.553,0-1-0.447-1-1s0.447-1,1-1h8c0.553,0,1,0.447,1,1S26.553,9,26,9z"></path></g><g><path d="M26,13h-8c-0.553,0-1-0.447-1-1s0.447-1,1-1h8c0.553,0,1,0.447,1,1S26.553,13,26,13z"></path></g><g><path d="M26,21h-8c-0.553,0-1-0.447-1-1s0.447-1,1-1h8c0.553,0,1,0.447,1,1S26.553,21,26,21z"></path></g><g><path d="M26,17h-8c-0.553,0-1-0.447-1-1s0.447-1,1-1h8c0.553,0,1,0.447,1,1S26.553,17,26,17z"></path></g><g><path d="M30,27H2c-0.553,0-1-0.447-1-1s0.447-1,1-1h28c0.553,0,1,0.447,1,1S30.553,27,30,27z"></path></g><g><path d="M30,31H2c-0.553,0-1-0.447-1-1s0.447-1,1-1h28c0.553,0,1,0.447,1,1S30.553,31,30,31z"></path></g></g></svg>