<svg height='100px' width='100px'  fill="#000000" xmlns="http://www.w3.org/2000/svg" viewBox="0 0 64 64" x="0px" y="0px"><g><rect x="38" y="56" width="2" height="2"></rect><path d="M46,2H42a1,1,0,0,0-1,1V6H40a1,1,0,0,0-1,1V25.026c-3.276.355-5,2.4-5,5.974V59a2.988,2.988,0,0,0,2.969,3H51.031A2.973,2.973,0,0,0,54,59.031V31c0-3.571-1.724-5.619-5-5.974V7a1,1,0,0,0-1-1H47V3A1,1,0,0,0,46,2ZM43,4h2V6H43ZM41,8h6v2H41Zm0,4h2v3h2V12h2v5H41ZM52,59.031a.97.97,0,0,1-.969.969H36.969A1,1,0,0,1,36,59V52H52ZM52,50H36V37H52ZM47.993,26.971C50.8,26.991,52,28.2,52,31v4H36V31c0-2.8,1.2-4.009,4.007-4.029a1,1,0,0,0,.993-1V19h6v6.971A1,1,0,0,0,47.993,26.971Z"></path><path d="M39,48H49a1,1,0,0,0,1-1V40a1,1,0,0,0-1-1H39a1,1,0,0,0-1,1v7A1,1,0,0,0,39,48Zm1-7h8v5H40Z"></path><rect x="14" y="47" width="12" height="2"></rect><rect x="24" y="39" width="2" height="2"></rect><path d="M24,6a4,4,0,0,0-8,0V17.82c-.667,1.807-6,16.539-6,26.18V59a3.119,3.119,0,0,0,3,3H27a3.119,3.119,0,0,0,3-3V44c0-9.641-5.333-24.373-6-26.18ZM18,6a2,2,0,0,1,4,0V8H18Zm0,4h4v2H18Zm0,4h4v3H18ZM28,59a1.151,1.151,0,0,1-1,1H13a1.151,1.151,0,0,1-1-1V56H28Zm0-5H12V45H28Zm-.022-11H12.022c.324-8.58,4.616-21.036,5.678-24h4.6C23.362,21.964,27.654,34.417,27.978,43Z"></path></g></svg>