<svg height='100px' width='100px'  fill="#000000" xmlns="http://www.w3.org/2000/svg" viewBox="0 0 64 64" x="0px" y="0px"><title>House Keeper - 25 - Solid - 64 -  Stroke 2 - 2020</title><g><polygon points="34.1 49.73 42.78 57.91 45.05 57.91 35.24 48.65 34.1 49.73"></polygon><path d="M51.76,14.81a1.6,1.6,0,0,0-1.6-1.6H39.78a1.6,1.6,0,0,0,0,3.19H50.16A1.6,1.6,0,0,0,51.76,14.81Z"></path><path d="M51.76,25.18a1.6,1.6,0,0,0-1.6-1.59H39.78a1.6,1.6,0,0,0,0,3.19H50.16A1.6,1.6,0,0,0,51.76,25.18Z"></path><path d="M51.76,20a1.6,1.6,0,0,0-1.6-1.59H39.78a1.6,1.6,0,0,0,0,3.19H50.16A1.6,1.6,0,0,0,51.76,20Z"></path><polygon points="34.1 44.82 34.1 44.82 30.05 48.65 30.05 48.65 20.25 57.91 22.52 57.91 43.76 37.86 41.48 37.86 34.1 44.82"></polygon><path d="M17,12.35a15.87,15.87,0,0,0-4.19,10.54h8.37A15.86,15.86,0,0,0,17,12.35Z"></path><path d="M13.73,34a2.89,2.89,0,0,0,2.7,1.89H47.57A2.89,2.89,0,0,0,50.27,34Z"></path><polygon points="23.82 37.86 21.54 37.86 30.05 45.9 31.19 44.82 23.82 37.86"></polygon><rect x="12.84" y="24.89" width="8.38" height="1.89"></rect><path d="M53.82,28.78H10.18a.78.78,0,0,0-.64.35.76.76,0,0,0,0,.73L10.56,32H53.44l1.05-2.11a.76.76,0,0,0,0-.73A.78.78,0,0,0,53.82,28.78Z"></path><polygon points="26.33 9.39 24.11 10.61 26.33 11.82 27.55 14.04 28.76 11.82 30.98 10.61 28.76 9.39 27.55 7.17 26.33 9.39"></polygon></g></svg>