<svg height='100px' width='100px'  fill="#000000" xmlns="http://www.w3.org/2000/svg" xmlns:xlink="http://www.w3.org/1999/xlink" version="1.1" x="0px" y="0px" viewBox="0 0 100 100" style="enable-background:new 0 0 100 100;" xml:space="preserve"><path d="M21.0351562,58.8725586c0.0888672,0,0.1787109-0.012207,0.2685547-0.0371094  c0.5322266-0.1474609,0.84375-0.6987305,0.6962891-1.230957c-2.7880859-10.0458984,0.046875-20.8540039,7.3994141-28.206543  C36.75,22.0473633,47.5605469,19.2119141,57.6035156,21.9975586c0.53125,0.1469727,1.0830078-0.1630859,1.2314453-0.6962891  c0.1474609-0.5322266-0.1640625-1.0830078-0.6962891-1.2304688c-10.7373047-2.9794922-22.2929688,0.0532227-30.1533203,7.9130859  c-7.8613281,7.8608398-10.8935547,19.4160156-7.9130859,30.1557617  C20.1953125,58.5820312,20.5976562,58.8725586,21.0351562,58.8725586z"></path><path d="M58.203125,13.3310547c0.5332031,0.1459961,1.0839844-0.1640625,1.2314453-0.6967773  c0.1474609-0.5322266-0.1640625-1.0830078-0.6962891-1.230957c-13.3583984-3.703125-27.7207031,0.0678711-37.4931641,9.840332  C11.4707031,31.0180664,7.7011719,45.3852539,11.40625,58.7397461c0.1230469,0.4423828,0.5253906,0.7329102,0.9628906,0.7329102  c0.0888672,0,0.1787109-0.012207,0.2685547-0.0371094c0.5322266-0.1474609,0.84375-0.6987305,0.6962891-1.230957  c-3.5136719-12.6606445,0.0595703-26.28125,9.3251953-35.546875C31.9238281,13.3935547,45.5458984,9.8188477,58.203125,13.3310547z"></path><path d="M42.3974609,78.0014648c-0.5332031-0.1455078-1.0839844,0.1640625-1.2314453,0.6967773  c-0.1474609,0.5322266,0.1640625,1.0830078,0.6962891,1.230957c2.7294922,0.7568359,5.5107422,1.1254883,8.2714844,1.1254883  c8.1015625,0,16.0195312-3.1772461,21.8818359-9.0395508c7.8603516-7.8603516,10.8925781-19.4150391,7.9130859-30.1547852  c-0.1484375-0.5327148-0.6982422-0.8447266-1.2314453-0.6962891c-0.5322266,0.1474609-0.84375,0.6987305-0.6962891,1.2304688  c2.7871094,10.046875-0.0478516,20.8544922-7.3994141,28.206543C63.25,77.9516602,52.4443359,80.7880859,42.3974609,78.0014648z"></path><path d="M88.5947266,41.2597656c-0.1484375-0.5327148-0.6992188-0.8427734-1.2314453-0.6962891  c-0.5322266,0.1474609-0.84375,0.6987305-0.6962891,1.2304688c3.5126953,12.6621094-0.0605469,26.2832031-9.3251953,35.5478516  c-9.2646484,9.2631836-22.8828125,12.8378906-35.5449219,9.3261719c-0.53125-0.1445312-1.0830078,0.1640625-1.2314453,0.6967773  c-0.1474609,0.5322266,0.1640625,1.0830078,0.6962891,1.230957c3.3945312,0.940918,6.8525391,1.3994141,10.2851562,1.3994141  c10.0732422,0,19.9189453-3.9501953,27.2089844-11.2392578C88.5292969,68.9824219,92.2988281,54.6147461,88.5947266,41.2597656z"></path><path d="M50,69.8027344c0.1357422,0,0.2724609-0.027832,0.3994141-0.0830078  c17.5527344-7.6479492,18.7324219-23.0908203,18.4248047-29.375c-0.0068359-0.1523438-0.0136719-0.2602539-0.0126953-0.3168945  c0.0068359-0.2700195-0.0947266-0.5317383-0.2832031-0.7255859c-0.1884766-0.1933594-0.4462891-0.3027344-0.7167969-0.3027344  c-7.1787109,0-8.2880859-5.4204102-8.3310547-5.6464844c-0.0849609-0.4765625-0.5-0.8237305-0.984375-0.8237305H41.5039062  c-0.484375,0-0.8994141,0.347168-0.984375,0.8237305c-0.0410156,0.2304688-1.0947266,5.6464844-8.3310547,5.6464844  c-0.2666016,0-0.5224609,0.1142578-0.7109375,0.3037109c-0.1875,0.1899414-0.2919922,0.4541016-0.2890625,0.7211914  c0.0009766,0.0600586-0.0058594,0.1679688-0.0126953,0.3203125c-0.3076172,6.2841797,0.8720703,21.7270508,18.4248047,29.375  C49.7275391,69.7749023,49.8642578,69.8027344,50,69.8027344z M33.1523438,40.9702148  c6.3173828-0.3930664,8.4658203-4.621582,9.1005859-6.440918h15.4941406  c0.6347656,1.8193359,2.7832031,6.0478516,9.1005859,6.440918C67.0361328,47.0844727,65.5625,60.7099609,50,67.7089844  C34.4375,60.7099609,32.9638672,47.0844727,33.1523438,40.9702148z"></path></svg>