<?xml version="1.0" encoding="utf-8"?>
<!-- Generator: Adobe Illustrator 24.2.1, SVG Export Plug-In . SVG Version: 6.00 Build 0)  -->
<svg version="1.1" id="Layer_1" xmlns="http://www.w3.org/2000/svg" xmlns:xlink="http://www.w3.org/1999/xlink" x="0px" y="0px"
	 viewBox="0 0 100 100" enable-background="new 0 0 100 100" xml:space="preserve">
<polyline fill="none" stroke="#000000" stroke-width="3.125" stroke-linejoin="round" stroke-miterlimit="3.125" points="
	55.469,2.344 55.469,12.5 65.625,24.219 57.813,32.031 53.125,27.344 56.25,24.219 51.563,19.531 50,19.531 48.438,19.531 
	43.75,24.219 46.875,27.344 42.188,32.031 34.375,24.219 44.531,12.5 44.531,2.344 "/>
<path fill="none" stroke="#000000" stroke-width="3.125" stroke-linejoin="round" stroke-miterlimit="3.125" d="M71.875,23.438
	C71.876,11.356,62.083,1.562,50.002,1.56c-12.081-0.001-21.876,9.792-21.877,21.873c-0.001,10.123,6.944,18.924,16.789,21.278
	L50,52.344l5.086-7.633C64.93,42.358,71.874,33.559,71.875,23.438z"/>
<circle fill="none" stroke="#000000" stroke-width="3.125" stroke-linecap="round" stroke-linejoin="round" stroke-miterlimit="3.125" cx="44.016" cy="82.578" r="5.469"/>
<line fill="none" stroke="#000000" stroke-width="3.125" stroke-linecap="round" stroke-linejoin="round" stroke-miterlimit="3.125" x1="67.188" y1="55.469" x2="38.281" y2="62.5"/>
<line fill="none" stroke="#000000" stroke-width="3.125" stroke-linecap="round" stroke-linejoin="round" stroke-miterlimit="3.125" x1="67.969" y1="57.031" x2="48.945" y2="79.688"/>
<line fill="none" stroke="#000000" stroke-width="3.125" stroke-linecap="round" stroke-linejoin="round" stroke-miterlimit="3.125" x1="34.375" y1="51.563" x2="42.188" y2="77.344"/>
<line fill="none" stroke="#000000" stroke-width="3.125" stroke-linecap="round" stroke-linejoin="round" stroke-miterlimit="3.125" x1="44.43" y1="83.125" x2="49.609" y2="92.188"/>
<line fill="none" stroke="#000000" stroke-width="3.125" stroke-linecap="round" stroke-linejoin="round" stroke-miterlimit="3.125" x1="47.266" y1="92.969" x2="52.734" y2="92.969"/>
<circle fill="none" stroke="#000000" stroke-width="3.125" stroke-linejoin="round" stroke-miterlimit="3.125" cx="78.9" cy="82.026" r="6.25"/>
<circle fill="none" stroke="#000000" stroke-width="3.125" stroke-linejoin="round" stroke-miterlimit="3.125" cx="21.09" cy="82.026" r="4.688"/>
<polyline fill="none" stroke="#000000" stroke-width="3.125" stroke-linejoin="round" stroke-miterlimit="3.125" points="
	78.906,82.031 68.75,53.977 68.75,50.781 71.875,48.438 "/>
<line fill="none" stroke="#000000" stroke-width="3.125" stroke-linecap="round" stroke-linejoin="round" stroke-miterlimit="3.125" x1="30.469" y1="51.563" x2="40.672" y2="51.563"/>
<polyline fill="none" stroke="#000000" stroke-width="3.125" stroke-linejoin="round" stroke-miterlimit="3.125" points="
	38.281,63.281 21.094,82.031 38.281,82.031 "/>
<polyline fill="none" stroke="#000000" stroke-width="3.125" stroke-linejoin="round" stroke-miterlimit="3.125" points="
	21.875,86.719 26.563,86.719 23.438,91.406 "/>
<circle fill="none" stroke="#000000" stroke-width="3.125" stroke-linejoin="round" stroke-miterlimit="3.125" cx="21.09" cy="82.026" r="16.406"/>
<circle fill="none" stroke="#000000" stroke-width="3.125" stroke-linejoin="round" stroke-miterlimit="3.125" cx="78.9" cy="82.026" r="16.406"/>
</svg>
