<svg height='100px' width='100px'  fill="#000000" xmlns="http://www.w3.org/2000/svg" viewBox="0 0 64 64" x="0px" y="0px"><title>hotel-empire state building-resort-buildings-condo-resident</title><g data-name="27-Hotel"><path d="M19,57H17V11a1,1,0,0,1,1-1H46a1,1,0,0,1,1,1V56H45V12H19Z"></path><path d="M46,12H18a1,1,0,0,1-.97-.758l-1-4A1,1,0,0,1,17,6H47a1,1,0,0,1,.97,1.242l-1,4A1,1,0,0,1,46,12ZM18.781,10H45.219l.5-2H18.281Z"></path><path d="M46.628,7.929,32,2.077,17.372,7.929l-.744-1.858,15-6a1.007,1.007,0,0,1,.744,0l15,6Z"></path><path d="M38.606,7.919,32,5.088,25.394,7.919l-.788-1.838,7-3a1.007,1.007,0,0,1,.788,0l7,3Z"></path><path d="M61,60c-1.71,0-3-2.149-3-5s1.29-5,3-5,3,2.149,3,5S62.71,60,61,60Zm0-8c-.249,0-1,1.064-1,3s.751,3,1,3,1-1.064,1-3S61.249,52,61,52Z"></path><rect x="60" y="59" width="2" height="4"></rect><path d="M53,60c-1.71,0-3-2.149-3-5s1.29-5,3-5,3,2.149,3,5S54.71,60,53,60Zm0-8c-.249,0-1,1.064-1,3s.751,3,1,3,1-1.064,1-3S53.249,52,53,52Z"></path><rect x="52" y="59" width="2" height="4"></rect><path d="M11,60c-1.71,0-3-2.149-3-5s1.29-5,3-5,3,2.149,3,5S12.71,60,11,60Zm0-8c-.249,0-1,1.064-1,3s.751,3,1,3,1-1.064,1-3S11.249,52,11,52Z"></path><rect x="10" y="59" width="2" height="4"></rect><path d="M3,60c-1.71,0-3-2.149-3-5s1.29-5,3-5,3,2.149,3,5S4.71,60,3,60Zm0-8c-.249,0-1,1.064-1,3s.751,3,1,3,1-1.064,1-3S3.249,52,3,52Z"></path><rect x="2" y="59" width="2" height="4"></rect><rect x="48" y="62" width="15" height="2"></rect><rect x="1" y="62" width="15" height="2"></rect><path d="M40,53H38V46H26v7H24V45a1,1,0,0,1,1-1H39a1,1,0,0,1,1,1Z"></path><rect x="31" y="45" width="2" height="8"></rect><path d="M59,50H57V20H46V18H58a1,1,0,0,1,1,1Z"></path><path d="M59,19H57V16H55a1,1,0,0,1-1,1H50a1,1,0,0,1-1-1H46V14h4a1,1,0,0,1,1,1h2a1,1,0,0,1,1-1h4a1,1,0,0,1,1,1Z"></path><rect x="53" y="22" width="2" height="4"></rect><rect x="49" y="22" width="2" height="4"></rect><rect x="53" y="28" width="2" height="4"></rect><rect x="49" y="28" width="2" height="4"></rect><rect x="53" y="34" width="2" height="4"></rect><rect x="49" y="34" width="2" height="4"></rect><rect x="53" y="40" width="2" height="4"></rect><rect x="49" y="40" width="2" height="4"></rect><rect x="53" y="46" width="2" height="4"></rect><rect x="49" y="46" width="2" height="4"></rect><path d="M7,50H5V19a1,1,0,0,1,1-1H18v2H7Z"></path><path d="M7,19H5V15a1,1,0,0,1,1-1h4a1,1,0,0,1,1,1h2a1,1,0,0,1,1-1h4v2H15a1,1,0,0,1-1,1H10a1,1,0,0,1-1-1H7Z"></path><rect x="9" y="22" width="2" height="4"></rect><rect x="13" y="22" width="2" height="4"></rect><rect x="9" y="28" width="2" height="4"></rect><rect x="13" y="28" width="2" height="4"></rect><rect x="9" y="34" width="2" height="4"></rect><rect x="13" y="34" width="2" height="4"></rect><rect x="9" y="40" width="2" height="4"></rect><rect x="13" y="40" width="2" height="4"></rect><rect x="9" y="46" width="2" height="4"></rect><rect x="13" y="46" width="2" height="4"></rect><rect x="23" y="16" width="2" height="6"></rect><rect x="27" y="16" width="2" height="6"></rect><rect x="31" y="16" width="2" height="6"></rect><rect x="35" y="16" width="2" height="6"></rect><rect x="39" y="16" width="2" height="6"></rect><rect x="23" y="24" width="2" height="6"></rect><rect x="27" y="24" width="2" height="6"></rect><rect x="31" y="24" width="2" height="6"></rect><rect x="35" y="24" width="2" height="6"></rect><rect x="39" y="24" width="2" height="6"></rect><rect x="23" y="32" width="2" height="6"></rect><rect x="27" y="32" width="2" height="6"></rect><rect x="31" y="32" width="2" height="6"></rect><rect x="35" y="32" width="2" height="6"></rect><rect x="39" y="32" width="2" height="6"></rect><path d="M44.562,63H19.438A1.441,1.441,0,0,1,18,61.562a4.443,4.443,0,0,1,3.242-4.153l1.14-.285.6-.9A4.987,4.987,0,0,1,27.141,54H37.859a4.987,4.987,0,0,1,4.161,2.227l.622.933,1.306.436A2.994,2.994,0,0,1,46,60.441v1.121A1.441,1.441,0,0,1,44.562,63ZM20.088,61H44v-.559a1,1,0,0,0-.684-.949l-1.632-.544a1,1,0,0,1-.516-.393l-.813-1.219A2.991,2.991,0,0,0,37.859,56H27.141a2.991,2.991,0,0,0-2.5,1.336l-.813,1.219a1,1,0,0,1-.589.415l-1.515.379A2.5,2.5,0,0,0,20.088,61Z"></path><path d="M24,64a3.01,3.01,0,0,1-2.6-1.5l1.73-1a1.043,1.043,0,0,0,1.734,0l1.731,1A3.01,3.01,0,0,1,24,64Z"></path><path d="M39,64a3.008,3.008,0,0,1-2.6-1.507l1.734-1a1.043,1.043,0,0,0,1.735,0l1.73,1A3.01,3.01,0,0,1,39,64Z"></path><path d="M28,59H23V57h4V55h2v3A1,1,0,0,1,28,59Z"></path></g></svg>