<svg height='100px' width='100px'  fill="#000000" xmlns="http://www.w3.org/2000/svg" xmlns:xlink="http://www.w3.org/1999/xlink" version="1.1" x="0px" y="0px" viewBox="0 0 100 100" style="enable-background:new 0 0 100 100;" xml:space="preserve"><style type="text/css">
	.st0{fill:none;stroke:#000000;stroke-width:2;stroke-linecap:round;stroke-linejoin:round;stroke-miterlimit:10;}
	.st1{fill:none;stroke:#000000;stroke-width:2;stroke-miterlimit:10;}
	.st2{fill:none;stroke:#000000;stroke-width:1.9887;stroke-miterlimit:10;}
	.st3{fill:none;stroke:#000000;stroke-width:1.0657;stroke-linecap:round;stroke-linejoin:round;stroke-miterlimit:10;}
</style><path class="st0" d="M84.9,46.5l-9.4-4.3L74.6,32l7.3-5.1c-6.3-1.6-13,1.4-15.8,7.5c-1.4,3-1.6,6.3-0.8,9.2L49.3,54.8c0,0,0,0,0,0  l-20,13.8c-0.3-0.2-0.6-0.3-0.9-0.4c-6.9-3.1-15-0.2-18.2,6.6c-0.7,1.4-1,2.8-1.2,4.3l7.3-5.1l9.4,4.3l0.9,10.2l-7.3,5.1  c6.3,1.6,13-1.4,15.8-7.5c1.4-3,1.6-6.3,0.8-9.2L52,65.7c0,0,0,0,0,0l20-13.8c0.3,0.2,0.6,0.3,0.9,0.4c6.9,3.1,15,0.2,18.2-6.6  c0.7-1.4,1-2.8,1.2-4.3L84.9,46.5z"></path><path class="st0" d="M49.6,54.2L34.3,43.6c0.8-3,0.6-6.2-0.8-9.2c-2.8-6-9.5-9-15.8-7.5L25,32l-0.9,10.2l-9.4,4.3l-7.3-5.1  c0.1,1.4,0.5,2.9,1.2,4.3c3.2,6.8,11.3,9.8,18.2,6.6c0.3-0.1,0.6-0.3,0.9-0.4l12.9,8.9"></path><path class="st0" d="M49.8,67.2c0,0,0.6,0.4,0.6,0.4l13.4,9.2c-0.8,3-0.6,6.2,0.8,9.2c2.8,6,9.5,9,15.8,7.5L73,88.5l0.9-10.2  l9.4-4.3l7.3,5.1c-0.1-1.4-0.5-2.9-1.2-4.3C86.3,68,78.2,65,71.3,68.2c-0.3,0.1-0.6,0.3-0.9,0.4l-10.9-7.8"></path><polygon class="st1" points="57.7,5.9 65.6,19.4 57.7,32.8 42,32.8 34.1,19.4 42,5.9 "></polygon><ellipse class="st2" cx="49.8" cy="19.4" rx="8.4" ry="8.3"></ellipse><g><line class="st3" x1="30.4" y1="49.7" x2="43" y2="58.1"></line></g><g><line class="st3" x1="65.4" y1="73.2" x2="53.6" y2="65.3"></line></g><g><line class="st3" x1="68.1" y1="50.2" x2="35.6" y2="73"></line></g></svg>