<svg height='100px' width='100px'  fill="#000000" xmlns="http://www.w3.org/2000/svg" xmlns:xlink="http://www.w3.org/1999/xlink" version="1.1" x="0px" y="0px" viewBox="0 0 100 100" enable-background="new 0 0 100 100" xml:space="preserve"><path d="M50,0C22.387,0,0,22.386,0,50s22.387,50,50,50c27.614,0,50-22.386,50-50S77.614,0,50,0z M71.129,55.546H59.316l-1.222-8.076  h11.427L71.129,55.546z M69.223,45.97H57.868l-1.03-6.81h11.029L69.223,45.97z M57.8,55.546H42.199l1.223-8.076h13.156L57.8,55.546z   M65.961,29.584l1.607,8.076H56.611l-1.222-8.076H65.961z M46.128,29.584h7.745l1.222,8.076H44.906L46.128,29.584z M55.321,39.16  l1.03,6.81H43.648l1.03-6.81H55.321z M34.038,29.584h10.573l-1.223,8.076H32.431L34.038,29.584z M32.132,39.16h11.03l-1.031,6.81  H30.776L32.132,39.16z M30.479,47.47h11.426l-1.222,8.076H28.871L30.479,47.47z M80.264,70.416H19.736  c-0.414,0-0.75-0.336-0.75-0.75s0.336-0.75,0.75-0.75h4.703l8.181-11.87h1.822l-8.181,11.87h47.477l-8.181-11.87h1.82l8.182,11.87  h4.704c0.414,0,0.75,0.336,0.75,0.75S80.678,70.416,80.264,70.416z"></path></svg>