<svg height='100px' width='100px'  fill="#000000" xmlns="http://www.w3.org/2000/svg" xmlns:xlink="http://www.w3.org/1999/xlink" version="1.1" x="0px" y="0px" viewBox="0 0 100 100" enable-background="new 0 0 100 100" xml:space="preserve"><g><path d="M90.257,29.027h-5.224c-1.782,0-3.232,1.449-3.232,3.231v15.446h-8.103c0.395-0.48,0.634-1.095,0.634-1.773v-3.556   c0.761-0.618,1.417-1.64,1.417-3.328v-7.781c-0.011-0.095-0.147-1.722-1.149-4.328c1.295-0.136,2.733-0.177,3.402-0.177   c1.49,0,3.235-0.762,3.235-2.922c0-2.409-1.942-2.89-5.051-2.89c-1.804,0-3.055,0.626-3.889,1.284   c-2.241-4.046-4.985-8.595-5.184-8.907c-0.292-0.563-2.39-2.92-16.886-2.92c-14.497,0-16.604,2.357-16.896,2.92   c-0.187,0.313-2.932,4.861-5.184,8.907c-0.833-0.657-2.085-1.284-3.89-1.284c-3.118,0-5.059,0.48-5.059,2.89   c0,2.16,1.742,2.922,3.233,2.922c0.669,0,2.128,0.041,3.421,0.187c-1.013,2.618-1.147,4.245-1.147,4.318v7.781   c0,1.71,0.657,2.73,1.428,3.335v3.548c0,0.679,0.239,1.292,0.646,1.773h-8.583V32.259c0-1.783-1.45-3.231-3.233-3.231H9.742   c-1.784,0-3.233,1.449-3.233,3.231v54.098c0,1.785,1.449,3.235,3.233,3.235h80.513c1.785,0,3.237-1.451,3.237-3.235h0.003V32.259   C93.492,30.476,92.043,29.027,90.257,29.027z M76.187,21.957c3.747,0,4.049,0.812,4.049,1.887c0,1.783-1.712,1.918-2.233,1.918   c-0.742,0-2.391,0.053-3.798,0.219c-0.325-0.752-0.71-1.554-1.178-2.418c-0.074-0.146-0.156-0.292-0.231-0.438   C73.476,22.54,74.562,21.957,76.187,21.957z M73.341,42.96v2.972c0,0.981-0.804,1.774-1.784,1.774h-5.683   c-0.98,0-1.774-0.793-1.774-1.774v-2.639h7.864C71.986,43.293,72.602,43.263,73.341,42.96z M71.336,30.613v2.639   c-0.354,0.448-1.825,2.055-4.734,2.055c-2.617,0-3.565-0.428-3.911-0.781c-0.146-0.158-0.208-0.336-0.197-0.574   c0.012-0.21,0.322-1.368,5.431-3.422c0.813-0.333,1.524-0.5,2.098-0.5C70.949,30.029,71.253,30.457,71.336,30.613z M36.209,15.792   c1.65-0.918,10.681-1.147,14.019-1.158c3.337,0.01,12.359,0.239,14.007,1.158c1.416,0.783,3.474,4.673,4.495,6.862   c-2.336-0.292-9.053-1.021-18.503-1.021c-9.459,0-16.176,0.729-18.513,1.021C32.749,20.465,34.793,16.575,36.209,15.792z    M42.763,39.456v-0.074c0-0.981,0.804-1.773,1.772-1.773h10.921c0.976,0,1.78,0.792,1.78,1.773h0.003v0.074H42.763z M57.236,40.458   v1.835H42.763v-1.835H57.236z M29.631,30.61c0.083-0.156,0.386-0.584,1.304-0.584c0.572,0,1.282,0.167,2.095,0.49   c5.111,2.066,5.425,3.224,5.435,3.432c0.01,0.241-0.042,0.419-0.199,0.575c-0.333,0.355-1.282,0.781-3.911,0.781   c-2.901,0-4.37-1.605-4.725-2.056V30.61z M28.502,43.293h7.866v2.639c0,0.981-0.792,1.774-1.774,1.774h-5.683   c-0.981,0-1.774-0.793-1.774-1.774h-0.001v-2.961C27.867,43.263,28.482,43.293,28.502,43.293z M26.252,25.981   c-1.409-0.167-3.078-0.219-3.818-0.219c-0.52,0.01-2.23-0.136-2.23-1.918c0-1.074,0.302-1.887,4.057-1.887   c1.627,0,2.71,0.593,3.399,1.177c-0.084,0.146-0.167,0.291-0.238,0.428C26.983,24.375,26.585,25.188,26.252,25.981z M17.305,88.588   c0.552-0.584,0.896-1.365,0.896-2.231V86h9.053c0.291,0.074,1.866,0.576,2.085,2.588H17.305z M30.351,88.589   c-0.219-2.389-1.983-3.38-2.942-3.577l-0.053-0.013h-9.157v-33.05h24.842V51.45c0-2.523-1.782-3.545-2.72-3.735l-0.053-0.01h-3.545   c0.406-0.48,0.647-1.095,0.647-1.773v-2.639h25.728v2.639c0,0.679,0.238,1.292,0.646,1.773h-3.972l-0.097,0.01   c-0.938,0.187-2.721,1.212-2.721,3.735v0.499h24.843v33.052h-9.085l-0.105,0.011c-0.958,0.199-2.721,1.188-2.937,3.577H30.351z    M70.681,88.589c0.228-2.022,1.803-2.515,2.085-2.589h9.031v0.358c0,0.865,0.345,1.647,0.898,2.233L70.681,88.589z"></path></g></svg>