<svg height='100px' width='100px'  fill="#000000" xmlns="http://www.w3.org/2000/svg" xmlns:xlink="http://www.w3.org/1999/xlink" version="1.1" x="0px" y="0px" viewBox="0 0 48 48" enable-background="new 0 0 48 48" xml:space="preserve"><g><path d="M35.9,46.4l-2.4-4.9c-0.2-0.3-0.5-0.6-0.9-0.6h-2.6V37c0-0.6-0.4-1-1-1H28V22.3c0.2-0.1,0.3-0.3,0.4-0.5l2.2-5.6   c0.1-0.3,0.1-0.7-0.1-0.9c-0.2-0.3-0.5-0.4-0.8-0.4H18.3c-0.3,0-0.6,0.2-0.8,0.4c-0.2,0.3-0.2,0.6-0.1,0.9l2.2,5.6   c0.1,0.2,0.2,0.4,0.4,0.5V36h-1.1c-0.6,0-1,0.4-1,1v3.9h-2.6c-0.4,0-0.7,0.2-0.9,0.6L12,46.6c-0.1,0.3-0.1,0.7,0.1,1   c0.2,0.3,0.5,0.5,0.8,0.5h22.2c0,0,0,0,0,0c0.6,0,1-0.4,1-1C36.1,46.8,36.1,46.6,35.9,46.4z M19.8,16.9h8.5l-1.4,3.6h-5.6   L19.8,16.9z M26,22.5V36h-4V22.5H26z M19.9,38h8.2v2.9h-8.2V38z M14.5,46l1.5-3.1H32l1.5,3.1H14.5z"></path><path d="M24,13.9c2.8,0,5.1-2.3,5.1-5.1c0-2.5-3.6-7.4-4.3-8.4C24.6,0.2,24.3,0,24,0c-0.3,0-0.6,0.2-0.8,0.4   c-0.7,1-4.3,5.9-4.3,8.4C18.9,11.6,21.2,13.9,24,13.9z M24,2.7c1.5,2.2,3.1,4.9,3.1,6.1c0,1.7-1.4,3.1-3.1,3.1   c-1.7,0-3.1-1.4-3.1-3.1C20.9,7.7,22.5,4.9,24,2.7z"></path></g></svg>