<?xml version="1.0" encoding="utf-8"?>
<!-- Generator: Adobe Illustrator 24.2.1, SVG Export Plug-In . SVG Version: 6.00 Build 0)  -->
<svg version="1.1" id="Layer_1" xmlns="http://www.w3.org/2000/svg" xmlns:xlink="http://www.w3.org/1999/xlink" x="0px" y="0px"
	 viewBox="0 0 100 100" enable-background="new 0 0 100 100" xml:space="preserve">
<g>
	<path fill-rule="evenodd" clip-rule="evenodd" d="M56.552,76.527c1.328,5.153,7.252,3.054,11.43,4.927
		c7.232,3.243,17.894-2.514,26.036,5.363c3.508,3.396-2.026-1.471-7.842-1.768c-9.749-0.495-9.871-0.774-6.862,6.412
		c2.183,5.209-2.462-1.45-4.16-4.32c-1.461-2.469-5.722-2.28-9.46-2.657c-0.812-0.084-8.846-1.715-7.66-0.349
		c6.879,6.342,7.639,8.354,14.425,12.87c5.659,3.766-2.964,0.384-6.262-1.939c-3.033-2.137-1.649,0.38-1.21,3.658
		c0.077,0.561-0.303,1.987-0.924,0.711c-1.234-2.552-1.144-8.654-7.42-11.827c-1.729-0.875-4.128-1.984-6.482-5.279
		c-1.628,0.052-2.584,3.577-3.166,4.948c-0.418,0.98,3.581,12.636,0.391,8.773c-2.765-3.347,0.338-11.356-11.437,0.823
		c-7.082,7.326-3.239,0.059,0.854-4.365c0.966-1.043,7.472-6.956,6.168-9.641c-4.648,4.725-7.563,1.008-16.956,8.002l-7.852,5.446
		l9.212-10.589c-4.477-2.964-16.447,3.403-17.793,3.291c4.435-5.631,15.08-6.036,22.322-6.729
		c10.718-2.141,13.752-12.985,15.024-22.109C49.139,43.975,36.43,43.176,28.853,33.93c-3.337-4.076-13.672-4.787-8.968-4.697
		c10.063,0.195,5.638,3.762,3.239-13.333l1.935,5.523c0.607,1.297,6.471-6.646,3.57-2.179c-1.168,1.799-3.727,2.214-1.611,7.322
		c4.205,10.15,19.63,15.638,20.732,15.321c1.524-0.439,1.667-7.27-3.079-14.365c-1.771-3.818-6.96-8.312-6.315-13.225
		c1.011,3.358,3.333,5.673,4.031,6.942c1.22,2.218,1.22,1.349,6.189-2.427l0.045,0.558l-2.866,2.626
		c-1.695,2.971,1.789,6.541,4.679,9.362c3.863,3.769,2.81,0.565,8.877-3.821c4.306-3.114,6.478-6.37,4.097-12.483
		c0.241-0.22,0.537-0.105,0.955,0.683l1.628,5.272c1.876-1.611,6.339-5.593,5.558-8.358c-0.115-0.408,5.722-0.411-10.945,16.956
		c-7.186,7.49-9.986,20.23-4.829,19.411c13.173-2.096,8.462,0.499,20.924-2.72c3.654-0.941,9.599,0.485,6.914,0.513
		c-5.052,0.056-11.088,1.865-10.359,2.636c1.729,1.07,4.798,2.298,5.188,3.211c-4.606-1.036-4.805-3.065-12.807-2.078
		c-4.707,0.582-9.236,2.35-9.045,7.988c0.098,2.884-1.963,10.467-0.035,17.957L56.552,76.527z"/>
	<path fill-rule="evenodd" clip-rule="evenodd" d="M21.844,7.333c3.344,2.35,3.257,5.778,0.962,7.953
		c-1.761-2.88,0.537-3.602-0.488-6.283c0.718,2.796-1.381,3.403,0,6.283c-3.647-1.607-0.565-6.001-0.478-7.953H21.844z"/>
	<path fill-rule="evenodd" clip-rule="evenodd" d="M13.734,14.997c3.298-2.413,6.517-1.234,7.845,1.635
		c-3.291,0.746-3.239-1.66-6.109-1.548c2.877,0.216,2.782,2.399,5.952,2.012c-2.692,2.943-5.865-1.388-7.688-2.096L13.734,14.997z"
		/>
	<path fill-rule="evenodd" clip-rule="evenodd" d="M15.153,21.095c2.225-3.427,5.656-3.466,7.915-1.259
		c-2.81,1.865-3.619-0.401-6.259,0.718c2.765-0.819,3.452,1.255,6.28-0.234c-1.471,3.706-5.976,0.785-7.932,0.771L15.153,21.095z"/>
	<path fill-rule="evenodd" clip-rule="evenodd" d="M28.483,8.623c1.974,3.577,0.391,6.621-2.622,7.573
		c-0.321-3.361,2.061-3.002,2.319-5.861c-0.582,2.828-2.737,2.455-2.758,5.649C22.845,12.939,27.545,10.342,28.483,8.623z"/>
	<path fill-rule="evenodd" clip-rule="evenodd" d="M34.439,11.151c1.074,3.944-1.182,6.527-4.334,6.736
		c0.481-3.34,2.713-2.427,3.633-5.146c-1.231,2.608-3.236,1.736-4.01,4.836C27.943,14.013,33.124,12.598,34.439,11.151z"/>
	<path fill-rule="evenodd" clip-rule="evenodd" d="M9.578,27.347c3.298-2.413,6.517-1.234,7.845,1.635
		c-3.291,0.746-3.239-1.66-6.109-1.548c2.877,0.216,2.782,2.399,5.952,2.012c-2.692,2.943-5.865-1.388-7.688-2.096V27.347z"/>
	<path fill-rule="evenodd" clip-rule="evenodd" d="M12.734,34.791c3.675,1.789,6.632,0.052,7.427-3.009
		c-3.372-0.146-2.891,2.214-5.732,2.615c2.793-0.725,2.308-2.856,5.499-3.04C16.754,28.94,14.404,33.766,12.734,34.791z"/>
	<path fill-rule="evenodd" clip-rule="evenodd" d="M19.766,39.167c3.947-1.06,5.042-4.31,3.637-7.141
		c-2.643,2.099-0.732,3.567-2.615,5.732c1.632-2.378-0.129-3.672,2.158-5.903c-3.978,0.258-2.591,5.443-3.18,7.308V39.167z"/>
	<path fill-rule="evenodd" clip-rule="evenodd" d="M17.782,22.329c4.076,0.268,5.785,3.243,4.958,6.294
		c-3.002-1.545-1.416-3.354-3.682-5.112c2.064,2.015,0.589,3.626,3.267,5.366C18.375,29.404,18.724,24.045,17.782,22.329z"/>
	<path fill-rule="evenodd" clip-rule="evenodd" d="M33.996,27.183c-0.422-4.066-3.459-5.659-6.475-4.718
		c1.656,2.939,3.407,1.287,5.248,3.487c-2.092-1.987-3.647-0.453-5.488-3.061C26.907,26.858,32.245,26.308,33.996,27.183z"/>
	<path fill-rule="evenodd" clip-rule="evenodd" d="M37.34,20.335c-2.472-3.253-5.896-3.04-7.985-0.669
		c2.943,1.653,3.577-0.669,6.297,0.255c-2.821-0.614-3.351,1.506-6.28,0.234C31.112,23.741,35.391,20.495,37.34,20.335z"/>
	<path fill-rule="evenodd" clip-rule="evenodd" d="M77.057,4.257c1.07,3.944-1.182,6.527-4.334,6.736
		c0.481-3.34,2.713-2.427,3.637-5.146c-1.234,2.608-3.236,1.736-4.01,4.836c-1.782-3.567,3.396-4.979,4.711-6.43L77.057,4.257z"/>
	<path fill-rule="evenodd" clip-rule="evenodd" d="M65.92,4.979c4.079,0.244,5.805,3.208,4.997,6.262
		c-3.009-1.524-1.433-3.347-3.713-5.091c2.078,2.001,0.61,3.623,3.298,5.349C66.552,12.047,66.872,6.688,65.92,4.979z"/>
	<path fill-rule="evenodd" clip-rule="evenodd" d="M63.124,10.579c3.902-1.22,6.566,0.938,6.897,4.079
		c-3.358-0.356-2.528-2.619-5.279-3.441c2.653,1.133,1.855,3.169,4.983,3.828C66.227,16.96,64.623,11.838,63.124,10.579z"/>
	<path fill-rule="evenodd" clip-rule="evenodd" d="M81.346,9.484c-0.764,4.013-3.923,5.345-6.851,4.156
		c1.897-2.789,3.504-0.994,5.523-3.03c-2.252,1.803-3.672,0.143-5.725,2.587c-0.038-3.989,5.234-2.985,7.05-3.713L81.346,9.484z"/>
	<path fill-rule="evenodd" clip-rule="evenodd" d="M79.575,16.119c-1.691,3.72-5.077,4.271-7.639,2.42
		c2.503-2.263,3.637-0.139,6.081-1.642c-2.612,1.22-3.602-0.729-6.172,1.165C72.748,14.177,77.636,16.395,79.575,16.119z"/>
	<path fill-rule="evenodd" clip-rule="evenodd" d="M76.147,26.046c0.174-4.083-2.598-6.102-5.718-5.61
		c1.21,3.152,3.183,1.768,4.683,4.215c-1.778-2.27-3.539-0.976-4.983-3.828C69.181,24.697,74.543,24.927,76.147,26.046z"/>
	<path fill-rule="evenodd" clip-rule="evenodd" d="M57.932,8.494c4.079,0.244,5.805,3.208,4.997,6.262
		c-3.009-1.524-1.433-3.347-3.713-5.091c2.078,2.001,0.61,3.623,3.298,5.349C58.563,15.561,58.884,10.202,57.932,8.494z"/>
	<path fill-rule="evenodd" clip-rule="evenodd" d="M55.139,18.128c2.472-3.253,5.896-3.04,7.985-0.669
		c-2.943,1.653-3.577-0.669-6.297,0.255c2.821-0.614,3.351,1.506,6.28,0.234C61.367,21.534,57.089,18.288,55.139,18.128z"/>
	<path fill-rule="evenodd" clip-rule="evenodd" d="M35.436,5.739c3.874,1.304,4.766,4.613,3.187,7.354
		c-2.507-2.259-0.509-3.605-2.252-5.886c1.482,2.476-0.359,3.658,1.785,6.025c-3.957-0.502-2.245-5.593-2.72-7.49V5.739z"/>
	<path fill-rule="evenodd" clip-rule="evenodd" d="M43.473,7.626c2.252,3.41,0.917,6.569-2.012,7.755
		c-0.586-3.323,1.817-3.156,1.844-6.025c-0.356,2.863-2.531,2.66-2.298,5.847c-2.81-2.831,1.67-5.791,2.465-7.58L43.473,7.626z"/>
	<path fill-rule="evenodd" clip-rule="evenodd" d="M46.168,12.218c-3.358,2.329-3.291,5.76-1.011,7.95
		c1.778-2.87-0.516-3.605,0.523-6.28c-0.732,2.789,1.363,3.41-0.038,6.283c3.661-1.586,0.6-5.997,0.523-7.953H46.168z"/>
	<path fill-rule="evenodd" clip-rule="evenodd" d="M52.514,10.868c-3.996,0.858-5.255,4.048-3.996,6.946
		c2.744-1.963,0.914-3.525,2.901-5.593c-1.75,2.291-0.056,3.675-2.455,5.785c3.985-0.052,2.863-5.303,3.546-7.137H52.514z"/>
	<path fill-rule="evenodd" clip-rule="evenodd" d="M57.054,20.732c-2.225-3.427-5.656-3.469-7.915-1.259
		c2.81,1.865,3.619-0.401,6.259,0.718c-2.765-0.819-3.452,1.255-6.28-0.234c1.471,3.706,5.976,0.785,7.932,0.771L57.054,20.732z"/>
	<path fill-rule="evenodd" clip-rule="evenodd" d="M51.6,28.483c0.987-3.964-1.321-6.499-4.48-6.642
		c0.554,3.33,2.765,2.371,3.745,5.066c-1.287-2.584-3.274-1.667-4.114-4.749C45.045,25.76,50.255,27.061,51.6,28.483z"/>
	<path fill-rule="evenodd" clip-rule="evenodd" d="M92.465,44.132c-1.691,3.72-5.077,4.271-7.639,2.42
		c2.503-2.263,3.637-0.139,6.081-1.642c-2.612,1.22-3.602-0.729-6.172,1.165C85.638,42.19,90.526,44.407,92.465,44.132z"/>
	<path fill-rule="evenodd" clip-rule="evenodd" d="M83.431,37.584c2.985,2.793,2.42,6.175-0.153,8.009
		c-1.342-3.096,1.032-3.49,0.391-6.29c0.321,2.866-1.841,3.176-0.872,6.224C79.407,43.427,83.072,39.505,83.431,37.584z"/>
	<path fill-rule="evenodd" clip-rule="evenodd" d="M76.349,37.762c3.78,1.548,4.456,4.913,2.702,7.542
		c-2.357-2.416-0.275-3.63-1.869-6.018c1.318,2.566-0.593,3.626,1.395,6.126C74.662,44.655,76.698,39.686,76.349,37.762z"/>
	<path fill-rule="evenodd" clip-rule="evenodd" d="M89.247,53.291c-4.048,0.551-6.318-2.019-6.119-5.174
		c3.25,0.91,2.057,3.006,4.63,4.275c-2.427-1.562-1.304-3.434-4.275-4.603c3.766-1.308,4.494,4.013,5.76,5.506L89.247,53.291z"/>
	<path fill-rule="evenodd" clip-rule="evenodd" d="M83.121,54.766c-3.985-0.914-5.199-4.118-3.898-7.001
		c2.72,2.001,0.865,3.539,2.824,5.631c-1.719-2.315-0.007-3.675-2.374-5.816C83.658,47.688,82.462,52.922,83.121,54.766z"/>
	<path fill-rule="evenodd" clip-rule="evenodd" d="M83.037,59.076c-4.048,0.551-6.318-2.019-6.119-5.174
		c3.25,0.91,2.057,3.006,4.63,4.275c-2.427-1.562-1.304-3.434-4.275-4.603c3.766-1.308,4.494,4.013,5.76,5.506L83.037,59.076z"/>
	<path fill-rule="evenodd" clip-rule="evenodd" d="M74.202,60.241c-3.051-2.716-2.573-6.112-0.049-8.013
		c1.419,3.061-0.945,3.515-0.234,6.297c-0.391-2.859,1.764-3.222,0.718-6.241C78.079,54.296,74.512,58.309,74.202,60.241z"/>
	<path fill-rule="evenodd" clip-rule="evenodd" d="M80.572,33.054c-1.691,3.72-5.077,4.271-7.639,2.42
		c2.503-2.263,3.637-0.139,6.081-1.642c-2.612,1.22-3.602-0.729-6.172,1.165C73.745,31.112,78.633,33.33,80.572,33.054z"/>
	<path fill-rule="evenodd" clip-rule="evenodd" d="M76.956,30.091c-3.434,2.211-6.579,0.84-7.734-2.099
		c3.33-0.547,3.135,1.851,6.004,1.911c-2.859-0.387-2.632-2.563-5.819-2.364C72.27,24.763,75.178,29.275,76.956,30.091z"/>
	<path fill-rule="evenodd" clip-rule="evenodd" d="M68.455,34.46c1.611-3.755-0.262-6.628-3.358-7.277
		c0.014,3.375,2.347,2.782,2.884,5.603c-0.858-2.755-2.964-2.169-3.298-5.349c-2.263,3.285,2.671,5.404,3.769,7.022H68.455z"/>
	<path fill-rule="evenodd" clip-rule="evenodd" d="M74.079,38.713c-3.996,0.858-5.255,4.048-3.996,6.946
		c2.744-1.963,0.914-3.525,2.901-5.593c-1.75,2.294-0.056,3.675-2.455,5.785c3.985-0.052,2.863-5.303,3.546-7.137H74.079z"/>
	<path fill-rule="evenodd" clip-rule="evenodd" d="M62.762,38.567c-3.33-2.371-3.222-5.798-0.917-7.96
		c1.743,2.891-0.558,3.598,0.45,6.287c-0.701-2.8,1.402-3.396,0.038-6.283C65.973,32.238,62.863,36.614,62.762,38.567z"/>
	<path fill-rule="evenodd" clip-rule="evenodd" d="M84.146,23.173c-3.04,2.73-6.363,1.872-7.967-0.847
		c3.201-1.07,3.389,1.332,6.231,0.938c-2.884,0.07-3.006-2.113-6.123-1.412c2.385-3.197,5.973,0.798,7.859,1.325V23.173z"/>
	<path fill-rule="evenodd" clip-rule="evenodd" d="M85.513,29.491c-3.434,2.214-6.579,0.844-7.734-2.099
		c3.33-0.547,3.135,1.851,6.004,1.914c-2.859-0.387-2.632-2.563-5.819-2.364c2.863-2.775,5.771,1.736,7.549,2.552L85.513,29.491z"/>
	<path fill-rule="evenodd" clip-rule="evenodd" d="M50.446,3.096c-3.996,0.858-5.255,4.048-3.996,6.946
		c2.744-1.963,0.914-3.525,2.901-5.593c-1.75,2.291-0.056,3.675-2.455,5.785c3.985-0.052,2.863-5.303,3.546-7.137L50.446,3.096z"/>
	<path fill-rule="evenodd" clip-rule="evenodd" d="M55.293,7.333c2.988,2.786,2.434,6.168-0.132,8.013
		c-1.349-3.093,1.025-3.494,0.377-6.29c0.328,2.866-1.834,3.183-0.858,6.224C51.283,13.187,54.941,9.257,55.293,7.333z"/>
	<path fill-rule="evenodd" clip-rule="evenodd" d="M90.049,33.054c-1.691,3.72-5.077,4.271-7.639,2.42
		c2.503-2.263,3.637-0.139,6.081-1.642c-2.612,1.22-3.602-0.729-6.172,1.165C83.222,31.112,88.11,33.33,90.049,33.054z"/>
	<path fill-rule="evenodd" clip-rule="evenodd" d="M29.564,3.379c3.874,1.304,4.766,4.613,3.187,7.354
		c-2.507-2.259-0.509-3.605-2.252-5.886c1.482,2.476-0.359,3.658,1.785,6.025c-3.957-0.502-2.245-5.593-2.72-7.49V3.379z"/>
	<path fill-rule="evenodd" clip-rule="evenodd" d="M7.308,22.05c3.298-2.413,6.517-1.234,7.845,1.635
		c-3.291,0.746-3.239-1.66-6.109-1.548c2.877,0.216,2.782,2.399,5.952,2.012c-2.692,2.943-5.865-1.388-7.688-2.096V22.05z"/>
	<path fill-rule="evenodd" clip-rule="evenodd" d="M24.721,43.19c3.947-1.06,5.042-4.31,3.637-7.141
		c-2.643,2.099-0.732,3.567-2.615,5.732c1.632-2.378-0.129-3.672,2.158-5.903c-3.978,0.258-2.591,5.443-3.18,7.308V43.19z"/>
	<path fill-rule="evenodd" clip-rule="evenodd" d="M16.639,45.157c3.978,0.934,6.482-1.409,6.583-4.568
		c-3.323,0.596-2.333,2.796-5.017,3.811c2.563-1.325,1.621-3.295,4.693-4.177C19.271,38.563,18.04,43.79,16.639,45.157z"/>
	<path fill-rule="evenodd" clip-rule="evenodd" d="M11.862,41.761c3.978,0.934,6.482-1.409,6.583-4.568
		c-3.323,0.596-2.333,2.796-5.017,3.811c2.563-1.325,1.621-3.295,4.693-4.177C14.494,35.167,13.264,40.394,11.862,41.761z"/>
	<path fill-rule="evenodd" clip-rule="evenodd" d="M4.888,33.156c3.298,2.413,6.517,1.234,7.845-1.635
		c-3.291-0.746-3.239,1.66-6.109,1.548c2.877-0.216,2.782-2.399,5.952-2.012c-2.692-2.943-5.865,1.388-7.688,2.096V33.156z"/>
	<path fill-rule="evenodd" clip-rule="evenodd" d="M35.436,27.437c3.874,1.304,4.766,4.613,3.187,7.354
		c-2.507-2.259-0.509-3.605-2.252-5.886c1.482,2.476-0.359,3.658,1.785,6.025c-3.957-0.502-2.245-5.593-2.72-7.49V27.437z"/>
	<path fill-rule="evenodd" clip-rule="evenodd" d="M34.711,24.073c3.298-2.413,6.517-1.234,7.845,1.635
		c-3.291,0.746-3.239-1.66-6.109-1.548c2.877,0.216,2.782,2.399,5.952,2.012c-2.692,2.943-5.865-1.388-7.688-2.096V24.073z"/>
	<path fill-rule="evenodd" clip-rule="evenodd" d="M63.033,0.976c2.988,2.786,2.434,6.168-0.132,8.013
		c-1.349-3.093,1.025-3.494,0.377-6.29c0.328,2.866-1.834,3.183-0.858,6.224C59.024,6.831,62.681,2.901,63.033,0.976z"/>
	<path fill-rule="evenodd" clip-rule="evenodd" d="M54.46,0.565c4.079,0.244,5.805,3.208,4.997,6.262
		c-3.009-1.524-1.433-3.347-3.713-5.091c2.078,2.001,0.61,3.623,3.298,5.349C55.091,7.632,55.411,2.273,54.46,0.565z"/>
	<path fill-rule="evenodd" clip-rule="evenodd" d="M43.211,0c-3.874,1.304-4.766,4.613-3.187,7.354
		c2.507-2.259,0.509-3.605,2.252-5.886c-1.482,2.476,0.359,3.658-1.785,6.025c3.957-0.502,2.245-5.593,2.72-7.49V0z"/>
</g>
</svg>
