<svg height='100px' width='100px'  fill="#000000" xmlns:x="http://ns.adobe.com/Extensibility/1.0/" xmlns:i="http://ns.adobe.com/AdobeIllustrator/10.0/" xmlns:graph="http://ns.adobe.com/Graphs/1.0/" xmlns="http://www.w3.org/2000/svg" xmlns:xlink="http://www.w3.org/1999/xlink" xmlns:a="http://ns.adobe.com/AdobeSVGViewerExtensions/3.0/" version="1.1" x="0px" y="0px" viewBox="0 0 100 100" enable-background="new 0 0 100 100" xml:space="preserve"><metadata><?xpacket begin="&#65279;" id="W5M0MpCehiHzreSzNTczkc9d"?><x:xmpmeta xmlns:x="adobe:ns:meta/" x:xmptk="Adobe XMP Core 5.5-c014 79.151739, 2013/04/03-12:12:15        "></x:xmpmeta><?xpacket end="w"?></metadata><path d="M87.5,26.5h-14v-4c0-0.3789063-0.2138672-0.7250977-0.5527344-0.8945313L71,20.6318359V12.5c0-0.5522461-0.4477539-1-1-1h-5  c-0.5522461,0-1,0.4477539-1,1v4.6318359l-1.0527344-0.5263672c-0.3100586-0.1538086-0.6787109-0.1386719-0.9731445,0.0439453  C61.6796875,16.831543,61.5,17.1533203,61.5,17.5v9h-49c-0.3686523,0-0.7075195,0.203125-0.8818359,0.5283203  c-0.1738281,0.3251953-0.1547852,0.7197266,0.0498047,1.0263672L16.2983398,35l-4.6303711,6.9453125  c-0.2241211,0.3359375-0.2241211,0.7734375,0,1.109375L16.2983398,50l-4.6303711,6.9453125  c-0.2241211,0.3359375-0.2241211,0.7734375,0,1.109375L16.2983398,65l-4.6303711,6.9453125  c-0.2045898,0.3066406-0.2236328,0.7011719-0.0498047,1.0263672C11.7924805,73.296875,12.1313477,73.5,12.5,73.5H64V80  c0,0.1074219,0.0170898,0.2143555,0.0512695,0.3164063l2.5,7.5C66.6875,88.2246094,67.0693359,88.5,67.5,88.5  s0.8125-0.2753906,0.9487305-0.6835938l2.5-7.5C70.9829102,80.2143555,71,80.1074219,71,80v-6.5h16.5c0.5522461,0,1-0.4477539,1-1  v-45C88.5,26.9477539,88.0522461,26.5,87.5,26.5z M66,13.5h3v6.1318359l-3-1.5V13.5z M64,71.5H14.3686523l3.9633789-5.9453125  c0.2241211-0.3359375,0.2241211-0.7734375,0-1.109375L13.7016602,57.5l4.6303711-6.9453125  c0.2241211-0.3359375,0.2241211-0.7734375,0-1.109375L13.7016602,42.5l4.6303711-6.9453125  c0.2241211-0.3359375,0.2241211-0.7734375,0-1.109375L14.3686523,28.5H61.5v14c0,0.5522461,0.4477539,1,1,1H64V71.5z   M67.5,84.3378906L66.3873901,81h2.2252197L67.5,84.3378906z M69,71.5v2V79h-3v-5.5v-2v-28h3V71.5z M70,41.5h-5h-1.5v-13v-2  v-7.3818359l0.5,0.25l1,0.5l1,0.5l3,1.5l1,0.5l1,0.5l0.5,0.25V26.5v2v13H70z M86.5,71.5H71v-28h1.5c0.5522461,0,1-0.4477539,1-1v-14  h13V71.5z"></path><path d="M55,31.5H25c-0.5522461,0-1,0.4477539-1,1s0.4477539,1,1,1h30c0.5522461,0,1-0.4477539,1-1S55.5522461,31.5,55,31.5z"></path><path d="M55,36.5H25c-0.5522461,0-1,0.4477539-1,1s0.4477539,1,1,1h30c0.5522461,0,1-0.4477539,1-1S55.5522461,36.5,55,36.5z"></path><path d="M40,41.5c-7.4438477,0-13.5,6.0561523-13.5,13.5S32.5561523,68.5,40,68.5S53.5,62.4438477,53.5,55S47.4438477,41.5,40,41.5z   M40,66.5c-6.3413086,0-11.5-5.1586914-11.5-11.5S33.6586914,43.5,40,43.5S51.5,48.6586914,51.5,55S46.3413086,66.5,40,66.5z"></path><path d="M45,51c0.5522461,0,1-0.4477539,1-1s-0.4477539-1-1-1h-4v-1.5c0-0.5522461-0.4477539-1-1-1s-1,0.4477539-1,1V49h-1.5  c-2.5678711,0-3.5,2.0932617-3.5,3.5c0,3.0559692,2.6436157,3.4434814,5,3.4926758V59h-4c-0.5522461,0-1,0.4477539-1,1  s0.4477539,1,1,1h4v1.5c0,0.5522461,0.4477539,1,1,1s1-0.4477539,1-1V61h1.5c2.5678711,0,3.5-2.0932617,3.5-3.5  c0-3.0559692-2.6436157-3.4434814-5-3.4926758V51H45z M39,53.987793c-2.4066772-0.0633545-3-0.4052124-3-1.487793  c0-0.2504883,0.0722656-1.5,1.5-1.5H39V53.987793z M44,57.5c0,0.2504883-0.0722656,1.5-1.5,1.5H41v-2.987793  C43.4066772,56.0755615,44,56.4174194,44,57.5z"></path></svg>