<svg height='100px' width='100px'  fill="#000000" xmlns="http://www.w3.org/2000/svg" viewBox="0 0 64 64" x="0px" y="0px"><g><path d="M51,25H13a1,1,0,0,0-1,1V42a1,1,0,0,0,1,1H26a1,1,0,0,0,.759-.349L32,36.537l5.241,6.114A1,1,0,0,0,38,43H51a1,1,0,0,0,1-1V26A1,1,0,0,0,51,25ZM50,41H38.46l-5.7-6.651a1.033,1.033,0,0,0-1.518,0L25.54,41H14V27H50Z"></path><path d="M61,25H56V22a1,1,0,0,0-.445-.832l-6-4A1.006,1.006,0,0,0,49,17H15a1.006,1.006,0,0,0-.555.168l-6,4A1,1,0,0,0,8,22v3H3a1,1,0,0,0-1,1V42a1,1,0,0,0,1,1H8v3a1,1,0,0,0,1,1H28a1,1,0,0,0,.781-.375L32,42.6l3.219,4.024A1,1,0,0,0,36,47H55a1,1,0,0,0,1-1V43h5a1,1,0,0,0,1-1V26A1,1,0,0,0,61,25Zm-1,2v2H56V27Zm0,10H56V31h4ZM4,31H8v6H4Zm4-4v2H4V27ZM4,41V39H8v2Zm50,4H36.48l-3.7-4.625a1.036,1.036,0,0,0-1.562,0L27.52,45H10V22.535L15.3,19H48.7L54,22.535Zm2-4V39h4v2Z"></path><rect x="13" y="21" width="2" height="2"></rect><rect x="17" y="21" width="2" height="2"></rect><rect x="21" y="21" width="2" height="2"></rect><rect x="25" y="21" width="2" height="2"></rect><rect x="29" y="21" width="2" height="2"></rect><rect x="33" y="21" width="2" height="2"></rect><rect x="37" y="21" width="2" height="2"></rect><rect x="41" y="21" width="2" height="2"></rect><rect x="45" y="21" width="2" height="2"></rect><rect x="49" y="21" width="2" height="2"></rect><rect x="35.964" y="31.5" width="7.071" height="2" transform="translate(-11.412 37.45) rotate(-45)"></rect><rect x="42.172" y="31" width="5.657" height="2" transform="translate(-9.447 41.192) rotate(-45)"></rect></g></svg>