<svg height='100px' width='100px'  fill="#000000" xmlns:x="http://ns.adobe.com/Extensibility/1.0/" xmlns:i="http://ns.adobe.com/AdobeIllustrator/10.0/" xmlns:graph="http://ns.adobe.com/Graphs/1.0/" xmlns="http://www.w3.org/2000/svg" xmlns:xlink="http://www.w3.org/1999/xlink" version="1.1" x="0px" y="0px" viewBox="0 0 100 100" style="enable-background:new 0 0 100 100;" xml:space="preserve"><g><g i:extraneous="self"><g><path d="M5273.1,2400.1v-2c0-2.8-5-4-9.7-4s-9.7,1.3-9.7,4v2c0,1.8,0.7,3.6,2,4.9l5,4.9c0.3,0.3,0.4,0.6,0.4,1v6.4     c0,0.4,0.2,0.7,0.6,0.8l2.9,0.9c0.5,0.1,1-0.2,1-0.8v-7.2c0-0.4,0.2-0.7,0.4-1l5.1-5C5272.4,2403.7,5273.1,2401.9,5273.1,2400.1z      M5263.4,2400c-4.8,0-7.4-1.3-7.5-1.8v0c0.1-0.5,2.7-1.8,7.5-1.8c4.8,0,7.3,1.3,7.5,1.8C5270.7,2398.7,5268.2,2400,5263.4,2400z"></path><path d="M5268.4,2410.3c-0.6,0-1,0.4-1,1c0,0.6,0.4,1,1,1h4.3c0.6,0,1-0.4,1-1c0-0.6-0.4-1-1-1H5268.4z"></path><path d="M5272.7,2413.7h-4.3c-0.6,0-1,0.4-1,1c0,0.6,0.4,1,1,1h4.3c0.6,0,1-0.4,1-1C5273.7,2414.1,5273.3,2413.7,5272.7,2413.7z"></path><path d="M5272.7,2417h-4.3c-0.6,0-1,0.4-1,1c0,0.6,0.4,1,1,1h4.3c0.6,0,1-0.4,1-1C5273.7,2417.5,5273.3,2417,5272.7,2417z"></path></g><g><path d="M40.5,39.9l-5.5,13.8l-1.2-10h0.8c0.5,0,0.9-0.4,0.9-0.9v-2.7c0-0.5-0.4-0.9-0.9-0.9h-4.4c-0.5,0-0.9,0.4-0.9,0.9v2.7     c0,0.5,0.4,0.9,0.9,0.9H31l-1.2,10l-5.5-13.8c-5.5,1.3-9.9,5.9-10.6,11.8l-1.4,11.3c-0.2,1.5,0.8,2.9,2.2,3.2     c2.1,0.4,4.2,0.8,6.3,1.1l1.5,26.5c0.1,2.1,1.8,3.7,3.9,3.7h12c2.1,0,3.8-1.6,3.9-3.7l1.5-26.5c2.1-0.3,4.3-0.6,6.3-1.1     c1.4-0.3,2.4-1.7,2.2-3.2L51,51.8C50.3,45.9,46,41.3,40.5,39.9z"></path><circle cx="32.4" cy="24.7" r="12.3"></circle><path d="M69.1,2.5c-10.3,0-18.6,8.4-18.6,18.6c0,3.7,1.1,7.3,3.2,10.4l-1.4,8c-0.1,0.7,0.1,1.4,0.6,1.8c0.4,0.3,0.8,0.5,1.3,0.5     c0.2,0,0.4,0,0.6-0.1l9-2.8c1.7,0.5,3.6,0.8,5.4,0.8c10.3,0,18.6-8.4,18.6-18.6C87.7,10.9,79.3,2.5,69.1,2.5z M69.1,35.8     c-1.6,0-3.2-0.3-4.7-0.8c-0.4-0.1-0.8-0.1-1.2,0l-6.5,2l1-5.6c0.1-0.5,0-1.1-0.4-1.5c-1.9-2.5-2.9-5.6-2.9-8.7     C54.4,13,61,6.4,69.1,6.4c8.1,0,14.7,6.6,14.7,14.7C83.8,29.2,77.2,35.8,69.1,35.8z"></path><path d="M69.8,19.3h-1.5c-0.4,0-0.8-0.2-1.1-0.5c-0.3-0.3-0.4-0.7-0.4-1.2c0.1-0.8,0.8-1.3,1.6-1.3h1.7c0.4,0,0.8,0.3,0.9,0.7     c0.1,0.4,0.4,0.6,0.8,0.6h2c0.2,0,0.5-0.1,0.6-0.3c0.2-0.2,0.2-0.4,0.2-0.6c-0.2-2-1.8-3.7-3.8-4v-1.5c0-0.5-0.4-0.8-0.8-0.8     h-1.9c-0.5,0-0.8,0.4-0.8,0.8v1.6c-2.5,0.5-4.3,2.9-4,5.5c0.2,2.6,2.6,4.6,5.3,4.6h1.3c0.4,0,0.8,0.2,1.1,0.5     c0.3,0.3,0.4,0.7,0.4,1.2c-0.1,0.8-0.8,1.3-1.6,1.3H68c-0.4,0-0.8-0.3-0.9-0.7c-0.1-0.4-0.4-0.6-0.8-0.6h-2     c-0.2,0-0.5,0.1-0.6,0.3c-0.2,0.2-0.2,0.4-0.2,0.6c0.2,2,1.8,3.7,3.8,4V31c0,0.5,0.4,0.8,0.8,0.8H70c0.5,0,0.8-0.4,0.8-0.8v-1.6     c2.2-0.5,3.8-2.3,4-4.4c0.1-1.5-0.3-2.8-1.3-3.9C72.6,19.9,71.2,19.3,69.8,19.3z"></path></g></g></g></svg>