<svg height='100px' width='100px'  fill="#000000" xmlns="http://www.w3.org/2000/svg" data-name="Layer 1" viewBox="0 0 128 128" x="0px" y="0px"><title>Miscellaneous 50 expandlines</title><path d="M25.83,27a2,2,0,0,0,3.66-1.62l-.41-.91a2,2,0,0,0-3.66,1.62Z"></path><path d="M22.58,19.73a2,2,0,0,0,3.66-1.62l-.41-.91a2,2,0,0,0-3.66,1.62Z"></path><path d="M28.67,33.43l.41.91a2,2,0,0,0,3.66-1.62l-.41-.91a2,2,0,0,0-3.66,1.63Z"></path><path d="M7.67,31.81l-.41.91a2,2,0,1,0,3.66,1.62l.41-.91a2,2,0,0,0-3.66-1.62Z"></path><path d="M15.59,20.91a2,2,0,0,0,1.83-1.19l.41-.91a2,2,0,0,0-3.66-1.62l-.41.91a2,2,0,0,0,1.83,2.81Z"></path><path d="M12.34,28.23A2,2,0,0,0,14.17,27l.41-.91a2,2,0,0,0-3.66-1.62l-.41.91a2,2,0,0,0,1.83,2.81Z"></path><path d="M20,37a2,2,0,0,0,2-2V34a2,2,0,0,0-4,0v1A2,2,0,0,0,20,37Z"></path><path d="M22,26a2,2,0,0,0-4,0v1a2,2,0,0,0,4,0Z"></path><path d="M128,96a2,2,0,0,0-2-2H110V65.86c3.45-4.09,7.27-12.93-.7-20.32a2,2,0,0,0-2.65-.06A14.4,14.4,0,0,0,102,54.71c-.27,3.68,1.08,7.34,4,10.88V94H66V65.86c3.45-4.09,7.27-12.93-.7-20.32a2,2,0,0,0-2.65-.06A14.4,14.4,0,0,0,58,54.71c-.27,3.68,1.08,7.34,4,10.88V94H22V65.86c3.45-4.09,7.27-12.93-.7-20.32a2,2,0,0,0-2.65-.06A14.4,14.4,0,0,0,14,54.71c-.27,3.68,1.08,7.34,4,10.88V94H2a2,2,0,0,0,0,4H28.34l-2.83,4H2a2,2,0,0,0,0,4H22.68l-2.83,4H2a2,2,0,0,0,0,4H17l-2.83,4H2a2,2,0,0,0,0,4h9.38l-2,2.85a2,2,0,0,0,3.27,2.31L16.28,122h7.86L22.49,125a2,2,0,1,0,3.52,1.9L28.68,122h8.17l-1.23,3.3a2,2,0,1,0,3.75,1.39l1.75-4.7h8.41l-.74,3.6A2,2,0,0,0,50.35,128a2,2,0,0,0,.4,0,2,2,0,0,0,2-1.6l.9-4.4h8.54L62,125.92A2,2,0,0,0,63.92,128H64a2,2,0,0,0,2-1.92l.15-4.08h8.56l.55,4.26a2,2,0,0,0,2,1.74l.26,0a2,2,0,0,0,1.73-2.24L78.75,122h8.48l1.35,4.57a2,2,0,0,0,3.83-1.14l-1-3.43h8.29l2.25,4.84a2,2,0,0,0,3.63-1.68L104.1,122h8l3.2,5.07a2,2,0,0,0,3.38-2.13L116.84,122H126a2,2,0,0,0,0-4H114.32l-2.52-4H126a2,2,0,0,0,0-4H109.27l-2.52-4H126a2,2,0,0,0,0-4H104.22l-2.52-4H126A2,2,0,0,0,128,96ZM18,55A9.85,9.85,0,0,1,20,50c3.58,4.54,1.71,9.19.1,11.75A10.63,10.63,0,0,1,18,55ZM41.63,98h4.16l-1.49,4H39.47Zm-8.39,0h3.85l-2.16,4H30.41Zm-6.94,20H19.1l2.83-4h6.52Zm-1.54-8,2.83-4h5.18l-2.16,4Zm13.59,8H30.84L33,114h6.84Zm-3.19-8,2.16-4h5.5l-1.49,4Zm15.2,8H42.61l1.49-4h7.07ZM52,110h-6.4l1.49-4h5.73Zm-3.42-8,1.49-4h4.39l-.82,4ZM62.3,118H54.43l.82-4h7.2Zm.3-8H56.07l.82-4h5.86Zm.3-8H57.71l.82-4h4.53Zm1.16-40.29A10.63,10.63,0,0,1,62,55,9.85,9.85,0,0,1,64,50C67.55,54.51,65.69,59.15,64.07,61.71Zm3,36.29h4.55l.52,4H66.91Zm-.3,8h5.89l.52,4H66.61Zm-.45,12,.15-4h7.23l.52,4ZM97,98l2.52,4H94.82L93,98Zm-8.41,0,1.86,4H85.47l-1.19-4ZM75.64,98h4.47l1.19,4H76.16Zm1.55,12-.52-4h5.8l1.19,4Zm1,8-.52-4h7.14L86,118Zm9.61-8-1.19-4h5.62l1.86,4Zm2.37,8L89,114h7l1.86,4Zm16.85-4,2.52,4h-7.34l-1.86-4Zm-5-8,2.52,4h-6l-1.86-4Zm4-51A9.85,9.85,0,0,1,108,50c3.58,4.54,1.71,9.19.1,11.75A10.63,10.63,0,0,1,106,55Z"></path><path d="M5.93,72.47A10.83,10.83,0,0,0,11.59,74a11.21,11.21,0,0,0,3-.38A2,2,0,0,0,16,71.45c-.54-4.35-2.23-7.53-5-9.47a12.75,12.75,0,0,0-9.42-1.71A2,2,0,0,0,0,62.58C.92,67.3,2.9,70.62,5.93,72.47ZM8.7,65.28A7.93,7.93,0,0,1,11.65,70h-.06A6.87,6.87,0,0,1,8,69,8.69,8.69,0,0,1,4.5,64,7.7,7.7,0,0,1,8.7,65.28Z"></path><path d="M12,77a12.75,12.75,0,0,0-9.42-1.71A2,2,0,0,0,1,77.58c.88,4.72,2.87,8,5.89,9.89A10.83,10.83,0,0,0,12.59,89a11.21,11.21,0,0,0,3-.38A2,2,0,0,0,17,86.45C16.44,82.11,14.75,78.92,12,77Zm.63,8A6.87,6.87,0,0,1,9,84,8.69,8.69,0,0,1,5.5,79a7.7,7.7,0,0,1,4.2,1.28A7.93,7.93,0,0,1,12.65,85Z"></path><path d="M38.46,60.27A12.75,12.75,0,0,0,29,62c-2.79,1.94-4.48,5.13-5,9.47a2,2,0,0,0,1.41,2.16,11.21,11.21,0,0,0,3,.38,10.83,10.83,0,0,0,5.66-1.53c3-1.84,5-5.17,5.89-9.89A2,2,0,0,0,38.46,60.27ZM32,69a7,7,0,0,1-3.68,1,7.93,7.93,0,0,1,2.95-4.71A7.7,7.7,0,0,1,35.5,64,8.69,8.69,0,0,1,32,69Z"></path><path d="M28,77c-2.79,1.94-4.48,5.13-5,9.47a2,2,0,0,0,1.41,2.16,11.21,11.21,0,0,0,3,.38,10.83,10.83,0,0,0,5.66-1.53c3-1.84,5-5.17,5.89-9.89a2,2,0,0,0-1.51-2.31A12.74,12.74,0,0,0,28,77Zm3,7a6.83,6.83,0,0,1-3.68,1,7.93,7.93,0,0,1,2.95-4.71A7.7,7.7,0,0,1,34.5,79,8.69,8.69,0,0,1,31,84Z"></path><path d="M99,62a12.75,12.75,0,0,0-9.42-1.71A2,2,0,0,0,88,62.58c.88,4.72,2.87,8,5.89,9.89A10.83,10.83,0,0,0,99.59,74a11.21,11.21,0,0,0,3-.38A2,2,0,0,0,104,71.45C103.44,67.11,101.75,63.92,99,62Zm.63,8A6.87,6.87,0,0,1,96,69a8.69,8.69,0,0,1-3.47-5,7.7,7.7,0,0,1,4.2,1.28A7.93,7.93,0,0,1,99.65,70Z"></path><path d="M100,77a12.75,12.75,0,0,0-9.42-1.71A2,2,0,0,0,89,77.58c.88,4.72,2.87,8,5.89,9.89A10.83,10.83,0,0,0,100.59,89a11.21,11.21,0,0,0,3-.38A2,2,0,0,0,105,86.45C104.44,82.11,102.75,78.92,100,77Zm.63,8A6.87,6.87,0,0,1,97,84a8.69,8.69,0,0,1-3.47-5,7.7,7.7,0,0,1,4.2,1.28A7.93,7.93,0,0,1,100.65,85Z"></path><path d="M126.46,60.27A12.75,12.75,0,0,0,117,62c-2.79,1.94-4.48,5.13-5,9.47a2,2,0,0,0,1.41,2.16,11.21,11.21,0,0,0,3,.38,10.83,10.83,0,0,0,5.66-1.53c3-1.84,5-5.17,5.89-9.89A2,2,0,0,0,126.46,60.27ZM120,69a7,7,0,0,1-3.68,1,7.93,7.93,0,0,1,2.95-4.71A7.7,7.7,0,0,1,123.5,64,8.69,8.69,0,0,1,120,69Z"></path><path d="M112.42,88.62a11.21,11.21,0,0,0,3,.38,10.83,10.83,0,0,0,5.66-1.53c3-1.84,5-5.17,5.89-9.89a2,2,0,0,0-1.51-2.31A12.74,12.74,0,0,0,116,77c-2.79,1.94-4.48,5.13-5,9.47A2,2,0,0,0,112.42,88.62Zm5.87-8.33A7.7,7.7,0,0,1,122.5,79,8.69,8.69,0,0,1,119,84a6.8,6.8,0,0,1-3.68,1A7.93,7.93,0,0,1,118.3,80.28Z"></path><path d="M55,62a12.75,12.75,0,0,0-9.42-1.71A2,2,0,0,0,44,62.58c.88,4.72,2.87,8,5.89,9.89A10.83,10.83,0,0,0,55.59,74a11.21,11.21,0,0,0,3-.38A2,2,0,0,0,60,71.45C59.44,67.11,57.75,63.92,55,62Zm.63,8A6.87,6.87,0,0,1,52,69a8.69,8.69,0,0,1-3.47-5,7.7,7.7,0,0,1,4.2,1.28A7.93,7.93,0,0,1,55.65,70Z"></path><path d="M56,77a12.75,12.75,0,0,0-9.42-1.71A2,2,0,0,0,45,77.58c.88,4.72,2.87,8,5.89,9.89A10.83,10.83,0,0,0,56.59,89a11.21,11.21,0,0,0,3-.38A2,2,0,0,0,61,86.45C60.44,82.11,58.75,78.92,56,77Zm.63,8A6.87,6.87,0,0,1,53,84a8.69,8.69,0,0,1-3.47-5,7.7,7.7,0,0,1,4.2,1.28A7.93,7.93,0,0,1,56.65,85Z"></path><path d="M82.46,60.27A12.75,12.75,0,0,0,73,62c-2.79,1.94-4.48,5.13-5,9.47a2,2,0,0,0,1.41,2.16,11.21,11.21,0,0,0,3,.38,10.83,10.83,0,0,0,5.66-1.53c3-1.84,5-5.17,5.89-9.89A2,2,0,0,0,82.46,60.27ZM76,69a7,7,0,0,1-3.68,1,7.93,7.93,0,0,1,2.95-4.71A7.7,7.7,0,0,1,79.5,64,8.69,8.69,0,0,1,76,69Z"></path><path d="M72,77c-2.79,1.94-4.48,5.13-5,9.47a2,2,0,0,0,1.41,2.16,11.21,11.21,0,0,0,3,.38,10.83,10.83,0,0,0,5.66-1.53c3-1.84,5-5.17,5.89-9.89a2,2,0,0,0-1.51-2.31A12.74,12.74,0,0,0,72,77Zm3,7a6.81,6.81,0,0,1-3.68,1,7.93,7.93,0,0,1,2.95-4.71A7.7,7.7,0,0,1,78.5,79,8.69,8.69,0,0,1,75,84Z"></path><path d="M2,4H18V8H14a2,2,0,1,0,0,4H26a2,2,0,1,0,0-4H22V4H62V8H58a2,2,0,1,0,0,4H70a2,2,0,1,0,0-4H66V4h39V8h-4a2,2,0,1,0,0,4h12a2,2,0,1,0,0-4h-4V4h17a2,2,0,1,0,0-4H2A2,2,0,1,0,2,4Z"></path><path d="M69.83,27a2,2,0,0,0,3.66-1.62l-.41-.91a2,2,0,0,0-3.66,1.62Z"></path><path d="M66.58,19.73a2,2,0,0,0,3.66-1.62l-.41-.91a2,2,0,0,0-3.66,1.62Z"></path><path d="M72.67,33.43l.41.91a2,2,0,0,0,3.66-1.62l-.41-.91a2,2,0,0,0-3.66,1.63Z"></path><path d="M53.09,35.54a2,2,0,0,0,1.83-1.19l.41-.91a2,2,0,0,0-3.66-1.62l-.41.91a2,2,0,0,0,1.83,2.81Z"></path><path d="M58.58,26.12a2,2,0,0,0-3.66-1.62l-.41.91A2,2,0,1,0,58.17,27Z"></path><path d="M59.59,20.91a2,2,0,0,0,1.83-1.19l.41-.91a2,2,0,0,0-3.66-1.62l-.41.91a2,2,0,0,0,1.83,2.81Z"></path><path d="M64,37a2,2,0,0,0,2-2V34a2,2,0,1,0-4,0v1A2,2,0,0,0,64,37Z"></path><path d="M66,26a2,2,0,0,0-4,0v1a2,2,0,0,0,4,0Z"></path><path d="M109.58,19.73a2,2,0,0,0,3.66-1.62l-.41-.91a2,2,0,0,0-3.66,1.62Z"></path><path d="M112.83,27a2,2,0,0,0,3.66-1.62l-.41-.91a2,2,0,0,0-3.66,1.62Z"></path><path d="M116.08,34.35a2,2,0,0,0,3.66-1.62l-.41-.91a2,2,0,0,0-3.66,1.63Z"></path><path d="M94.67,31.81l-.41.91a2,2,0,1,0,3.66,1.62l.41-.91a2,2,0,0,0-3.66-1.62Z"></path><path d="M104.42,19.73l.41-.91a2,2,0,0,0-3.66-1.62l-.41.91a2,2,0,1,0,3.66,1.63Z"></path><path d="M99.34,28.23A2,2,0,0,0,101.17,27l.41-.91a2,2,0,0,0-3.66-1.62l-.41.91a2,2,0,0,0,1.83,2.81Z"></path><path d="M107,37a2,2,0,0,0,2-2V34a2,2,0,1,0-4,0v1A2,2,0,0,0,107,37Z"></path><path d="M109,26a2,2,0,0,0-4,0v1a2,2,0,0,0,4,0Z"></path></svg>