<svg height='100px' width='100px'  fill="#000000" xmlns="http://www.w3.org/2000/svg" data-name="Слой 1" viewBox="0 0 100 100" x="0px" y="0px"><title>cheese</title><g><path d="M89.04622,64.26283a1.96964,1.96964,0,0,1-.34164.36157c-2.18371,1.42357-2.84019,3.14895-1.912,5.503a8.92391,8.92391,0,0,0,2.22272,3.66776,2.53978,2.53978,0,0,1,.739,1.71826c-0.00174,3.72256-.10838,7.445-0.17083,11.16763-0.00688.41,0.04745,0.82113,0.07987,1.33406a13.383,13.383,0,0,1-1.35219.476c-3.00676.71529-3.62714,1.48224-3.51973,4.52473a9.40973,9.40973,0,0,1-4.28393.93073,121.3272,121.3272,0,0,1-12.39715.6475,62.17169,62.17169,0,0,0-9.51063.41079,19.22525,19.22525,0,0,1-4.11167-.032c-4.215-.36047-8.37606.38724-12.56321,0.56656-3.70747.15877-7.39863,0.67293-11.10132,0.9773-3.71109.3051-7.4284,0.53388-11.1413,0.81807-1.61676.12377-3.2327,0.27383-4.8429,0.46367-1.90115.22413-2.79765-.32657-3.335-2.16633a4.67815,4.67815,0,0,1-.18128-1.062c-0.16913-3.29636-.29246-6.59543-0.50045-9.8892a2.34933,2.34933,0,0,1,1.53226-2.53776,9.162,9.162,0,0,0,2.37445-1.88979,2.11188,2.11188,0,0,0,.34538-2.94921,4.19785,4.19785,0,0,0-2.68508-2.26038,1.99031,1.99031,0,0,1-1.71839-2.00668,52.70966,52.70966,0,0,1-.39615-7.00723A10.87555,10.87555,0,0,1,11.76286,62.048c1.05836-2.09041,2.26843-4.10384,3.40661-6.1541a1.8544,1.8544,0,0,1,2.28461-1.18619c1.526,0.3223,3.2749-1.197,3.5493-2.90385a4.0327,4.0327,0,0,0-.74071-3.58434,1.78571,1.78571,0,0,1-.24543-2.1494c1.08811-2.67181,2.20428-5.33412,3.21067-8.03694a126.43049,126.43049,0,0,1,9.42128-19.007C33.84784,16.952,34.77934,14.723,35.825,12.561c1.20286-2.487,2.3939-4.97978,3.5968-7.46678a21.16837,21.16837,0,0,0,.96255-1.93059,1.295,1.295,0,0,1,1.83078-.90493c0.575,0.173,1.17258.28456,1.7297,0.50156a64.86341,64.86341,0,0,1,19.412,11.241c1.17549,1.02311,2.52389,1.848,3.6953,2.8752A63.43764,63.43764,0,0,1,77.41376,29.05858c0.80484,1.1784,1.93127,2.1345,2.764,3.29728a23.21306,23.21306,0,0,1,2.41039,3.979,98.27811,98.27811,0,0,1,6.18415,18.23841c0.469,2.06743.21363,4.30118,0.26951,6.45939C89.06783,62.03892,89.04622,63.04643,89.04622,64.26283ZM32.64134,24.56262c0.44975,0.57467.44975,0.57467,1.0625,0.16308l-1.07728-.1476-1.39334-.863L30.62879,25.685C31.43041,25.23792,32.03582,24.90028,32.64134,24.56262Zm-2.53875,5.42344a2.07852,2.07852,0,0,0,1.441-1.42212l-1.445.7181c-0.407-.84914-0.95573-0.80048-1.50449-0.17959-0.38358.434-.8618,0.97358-0.22252,1.52157a0.97,0.97,0,0,0,1.62478-.30235A1.5101,1.5101,0,0,0,30.10259,29.98605Zm3.62165,32.51777a7.57249,7.57249,0,0,0,6.1827-2.82991l-3.30121.30732a1.95333,1.95333,0,0,1,.03215-0.72453,5.57287,5.57287,0,0,1,1.89486-.46148c1.80855,0.06626,3.58028.07718,5.13779-1.1145,1.22257,1.41153,2.49562.60852,3.73233,0.28911,0.07122,0.925.08573,0.97487-.22,1.06383-0.74387.21636-1.50251,0.38186-2.25544,0.56825-2.23756-.71414-3.90049.20554-5.51528,1.89808a5.70445,5.70445,0,0,0,4.03209-1.207,5.15435,5.15435,0,0,1,1.4596-.65811L44.495,60.9233c0.45886,0,.75048.00042,1.04209-0.00007,1.56948-.00267,2.6386-1.02184,3.78648-1.87383a1.99409,1.99409,0,0,1,1.888-.60911l-2.34186,2.09352a39.32086,39.32086,0,0,0,3.99608-.5088A34.645,34.645,0,0,0,56.339,58.86449a4.392,4.392,0,0,0,1.45411.61042,33.79965,33.79965,0,0,0,3.76362-.32576c0.98444-.1299,1.35686-0.653,1.43576-1.8566-1.16592.18512-1.8157,1.556-3.48822,1.4396A11.11807,11.11807,0,0,1,61.067,57.37a10.15641,10.15641,0,0,0,3.50231-3.29944A7.36762,7.36762,0,0,1,68.21618,51.242c2.75176-1.00156,5.20028-.02148,7.55138,1.29075a5.36794,5.36794,0,0,1,2.87218,3.74273,8.18435,8.18435,0,0,0,.56706,1.40429c2.881-.40441,5.69524-0.79948,8.62224-1.21033-0.17835-.89822-0.28272-1.54445-0.43637-2.17875-1.31946-5.44716-3.40811-10.6424-5.24048-15.92126a5.49765,5.49765,0,0,0-.68424-1.26309c-1.832-2.67972-3.6622-5.361-5.52617-8.01855a56.59557,56.59557,0,0,0-11.6449-12.70346c-5.205-4.00624-10.35721-8.05-16.57722-10.42456-1.95145-.745-3.89442-1.51221-5.76657-2.24022-1.47265,1.58423-6.18417,11.66381-6.31489,13.36655L37.723,17.58349l-0.06357.51042c-0.73022,0-1.46615.0571-2.18915-.01508a0.81634,0.81634,0,0,0-1.06206.94795c0.68819,0.868,1.96494-.06931,2.74976,1.21581-1.05441.01717-1.86216-.00362-2.66376,0.05683a2.00926,2.00926,0,0,0-1.27377.33951,16.46336,16.46336,0,0,0-1.30954,2.27034,2.15547,2.15547,0,0,0,2.21319.35649,10.57006,10.57006,0,0,1,2.0703-.1283l0.18135,0.33763c-0.4606.49467-.93112,0.98074-1.3738,1.491a1.55713,1.55713,0,0,0-.1417.54731h1.59464c-2.031,1.90534-3.783,3.54882-5.60794,5.2608,0.74649,0.35127,1.769-.72478,2.02935.74a4.6409,4.6409,0,0,0-3.38994,2.63074,6.87011,6.87011,0,0,1,.93176.00939,4.67049,4.67049,0,0,1,.75095.23645l-0.00342.35563c-0.73549.127-1.4667,0.29972-2.20759,0.3691A1.47134,1.47134,0,0,0,27.54926,36.568l2.479,0.65894-0.01608.46717c-1.74668-.03088-3.51206-0.13775-4.977.97625,0.14207-.35566.28417-0.71131,0.48794-1.22134-1.0098.52-1.0098,0.52-.46964,1.20878,0.51527,1.09615,1.81715.27287,2.62609,1.08578-0.43665.71742-1.79775,0.81-1.4575,2.08234,0.41264,0.24319.87964,0.51841,1.41858,0.836-0.96905.878-2.43156-.1299-3.21378,1.15829,0.80506,0.13118,1.4785.24088,2.50543,0.40821l-1.512,2.08882,1.505,0.54539a14.30286,14.30286,0,0,1-1.93184.42836,3.88257,3.88257,0,0,0-2.43721,1.39816,0.74456,0.74456,0,0,0,.18066,1.27655c0.58437-.43315,1.17865-0.87366,1.77294-1.31415a1.78507,1.78507,0,0,1-.55359,1.05571,6.41081,6.41081,0,0,0-1.88644,3.12947,4.57631,4.57631,0,0,1-1.43865,2.19431c-1.30784,1.1087-3.075,1.63451-4.0808,3.15733a0.58173,0.58173,0,0,1-.31764.15709c-1.52871.42885-1.64542,2.01017-2.46689,3.01527,0.47529,0.91287-.35057,1.24855-0.77447,1.77083-0.24576.30283-.45021,0.63917-0.90122,1.28881a7.996,7.996,0,0,0,3.04451-2.11659,4.45386,4.45386,0,0,1,2.69871-1.591l-0.01945-.01832-0.25286.65467c1.14661,0,2.22391.00243,3.30121-.00051,2.27734-.0062,4.5681.03515,6.323-1.81078a0.92912,0.92912,0,0,1,.40534.04765c-0.17056.354-.33072,0.68631-0.63935,1.3267,2.32272-.44477,4.35674-0.83553,6.39152-1.22237a2.81659,2.81659,0,0,1,.836-0.1159c0.81761,0.10269,1.6284.25967,2.44177,0.39553-0.7887,1.04533-1.35964,2.33665-2.88334,2.55172q-0.6735.031-1.347,0.06207l0.03716,0.2776ZM29.02031,32.87568c-1.14308.50214-.54843-1.19183-1.51442-1.1q-1.12374,2.10836-2.32236,4.35715a4.522,4.522,0,0,0,.68329.48211,1.2652,1.2652,0,0,0,.48067.01168,3.4999,3.4999,0,0,1,1.85244-2.63791,4.696,4.696,0,0,0,.82735-1.10569l0.84089-.55818-0.24395-.25619ZM16.01918,63.95712l-0.01365-.0151c1.29913,0.71977,2.41092.08913,3.433-.5296,1.37587,0.56645,1.50919.5556,2.633,0.11376a3.41944,3.41944,0,0,1,1.30046-.33586,32.67251,32.67251,0,0,0,6.25-.90795c0.26532-.13191.47846-0.37491,0.74839-0.48969a11.215,11.215,0,0,1,1.17627-.3647,1.73805,1.73805,0,0,0,.67785.59871,2.87925,2.87925,0,0,0,2.693-1.63468L31.562,61.41129a4.554,4.554,0,0,0-1.213-.2275,27.38108,27.38108,0,0,0-3.90629.4847c-3.046.71461-6.16878,0.53463-9.243,0.90378a4.17473,4.17473,0,0,0-2.27284.90656c-0.948.76563-1.95374,1.45982-3.08923,2.29866a1.56235,1.56235,0,0,0,.74288.5038,25.00436,25.00436,0,0,0,2.63913-.509l-0.55275-1.113C15.17617,64.39485,15.59768,64.176,16.01918,63.95712ZM75.986,63.94964q0.3605-.72623.721-1.45245a2.95428,2.95428,0,0,0,.85507-2.347l-1.90836.71249a7.29953,7.29953,0,0,0-1.32279-3.47753c-0.95719-.93053-1.91513-1.86024-2.94142-2.857l0.96614-1.46745a1.27952,1.27952,0,0,0-1.14228.43978c-0.53123,1.22081-1.741.96451-2.66451,1.306a2.75332,2.75332,0,0,1-.54153-0.66739c-0.67712.85628-1.24392,1.61583-2.34084,1.70355a1.49252,1.49252,0,0,0-.7156.92424,18.68533,18.68533,0,0,0-.62936,2.24951,1.39929,1.39929,0,0,0-.00289.8603c1.12486,2.23762,2.10781,4.50651,4.74791,5.57616C71.78368,66.55377,74.01129,66.227,75.986,63.94964ZM13.46808,83.4472c4.90575-.07226,9.81171-0.73152,14.73435-0.00086a3.96728,3.96728,0,0,1-1.67038.37747c-1.80218.043-3.60531,0.0817-5.40769,0.06922a3.92721,3.92721,0,0,0-3.311,1.762L18.69483,86.415c-1.24515.37328-2.32,0.69551-3.39517,1.01812a10.70177,10.70177,0,0,0-1.93171-.19094c-0.90215.06772-.95761,0.35859-0.39149,1.40919l2.335-1.23408-0.59405,1.278a13.64153,13.64153,0,0,1,3.049.84751c-1.0715.10238-1.97156,0.77251-3.133,0.28613a2.33763,2.33763,0,0,0-1.68326.41985,2.46984,2.46984,0,0,0-.1907,1.22063l1.46379-.22759-0.13835,1.10855c1.60824,0.056,3.1201-.67057,4.83163.01248-0.58219.46916-1.00211,0.80753-1.68247,1.35576,1.60727,0.09932,2.76493.01482,3.63863-1.25547-0.83862-.87781-1.43495-1.79506-1.00149-3.0665a2.63411,2.63411,0,0,1,1.92668-1.91191,3.14288,3.14288,0,0,1,2.4857,1.82507A2.17546,2.17546,0,0,1,23.497,91.867c-0.49524.377-1.05712,0.66658-1.88183,1.1766,1.97162,0.116,3.48335.0832,4.84932-1.08592,1.59045-1.36127,3.31054-2.5715,4.98476-3.83352a1.2391,1.2391,0,0,1,.50422-0.07074l-0.30794,1.027c1.47781,0.05383,1.47781.05383,3.41638-1.03767q0.1035,0.115.20563,0.23123l-0.38029.79062c1.7976,0,3.41148-.07145,5.016.02,1.62412,0.09253,3.297-.19766,5.09027.41718a1.97667,1.97667,0,0,1-.60111.37626c-1.43984-.02417-2.88669.00225-4.3169-0.13683-1.80908-.17592-2.85748.7395-3.9389,2.469,2.351-.54517,4.51009.384,6.26475-0.896a2.82469,2.82469,0,0,0,.9805.65092,4.6756,4.6756,0,0,0,3.41257-.85024,1.44279,1.44279,0,0,1,1.60145-.478l-0.518,1.16112c2.75024-.1959,5.27684-0.3759,8.24486-0.58733-1.65609.95176-2.636,2.22113-4.592,2.48429,0.40415-.63328.60759-0.9521,0.83256-1.30462-2.257-.17632-2.47968-0.08267-3.31964,1.41572,0.93432,0,1.82545-.00379,2.71653.001a15.70261,15.70261,0,0,0,3.06034-.01724,14.44851,14.44851,0,0,0,2.80034-1.20054l-0.227,1.087c1.84593,0.93939,2.80462-.92775,4.419-1.39206L61.31,93.35579a4.28889,4.28889,0,0,0,3.80247-.84014,1.17425,1.17425,0,0,1,1.63-.26485l-0.85364,1.26348c5.90552-.13586,11.53412-0.17116,17.18962-1.20579,0.11983-3.36906,2.41725-4.47028,5.0616-5.144a13.10886,13.10886,0,0,0,.31842-2.07714c-0.03676-3.00127-.09475-6.00355-0.2365-9.00116a4.49,4.49,0,0,0-.70889-1.76234,26.04867,26.04867,0,0,1-1.93755-3.42341c-0.87915-2.45271-.8562-4.83675,1.29874-6.78663a2.43091,2.43091,0,0,0,.52375-1.22641c0.12024-.52254.0585-1.08976,0.19806-1.60443a3.50867,3.50867,0,0,0-.41853-2.92491,24.72208,24.72208,0,0,0-3.16791.03047c-1.00138.12847-1.956,0.60777-2.95726,0.75463a2.23588,2.23588,0,0,0-1.90695,1.79929c-0.64651,1.72057-1.23552,3.52652-2.718,4.81C71.99047,69.59394,65.5236,66.478,64.11234,62.741a2.59192,2.59192,0,0,0-3.09805-1.97365c-2.80449.28618-5.61588,0.50453-8.42411,0.75432-2.99269.26616-5.997,0.4427-8.97466,0.82651-4.10172.52865-8.19,1.17331-12.27141,1.84514-4.54726.74848-9.082,1.574-13.61807,2.38876-0.80759.145-1.59528,0.40086-2.6388,0.66889,1.43448,0.47972,2.75238-.1559,3.866.80032H11.87611c-0.0284.55509-.086,1.14828-0.08406,1.7413,0.00622,1.86792-.18988,3.85484,2.33066,4.39588a0.32692,0.32692,0,0,1,.14382.10615c1.225,1.30548,2.81942,1.44072,4.475,1.47616a4.04779,4.04779,0,0,1,2.87864.76082H16.57672c0.87262,2.63434-.10329,4.57747-2.09537,6.1453q-0.49651.39073-.99375,0.78034a10.91588,10.91588,0,0,0-.981,1.03891,1.14644,1.14644,0,0,0,.36834,1.67482c1.49208,0.7373,3.94036-.16276,4.974-2.06825a18.69641,18.69641,0,0,0-2.36076.55063c-0.69758.263-.98749,1.2917-2.23138,1.229l1.18061-1.33757Zm-0.57236,9.70927a18.89124,18.89124,0,0,0,.01436,2.08878,1.51971,1.51971,0,0,0,1.74408,1.43014c2.33163-.11083,4.669-0.18049,6.9906-0.40567,5.373-.52115,10.73636-1.14114,16.10778-1.67971a1.90879,1.90879,0,0,0,1.81555-1.6237,8.30167,8.30167,0,0,1-2.0163.13881c-1.61457-.3047-3.099-0.224-4.088.76656a10.41342,10.41342,0,0,0-2.29465-.55388,43.2964,43.2964,0,0,0-4.43558.32728,12.06609,12.06609,0,0,0-1.68392.5017,1.79846,1.79846,0,0,1-.99168.13822c-1.40021-.58658-2.71747.005-4.06569,0.1813-0.93752.12263-1.87744,0.25442-2.82023,0.29917a13.8716,13.8716,0,0,1-1.85879-.155c0.35972-.49513.6864-0.94477,1.05635-1.454H12.89573Zm18.55464-.90773c2.33467,0.68482,3.69477-.77057,5.24366-2.2107C34.42939,89.74527,32.64591,90.19182,31.45037,92.24874Zm0.37637-2.11215c-2.30953-.13244-3.50145,1.17274-4.82811,2.459C29.37661,93.2387,30.47647,91.69363,31.82674,90.13659ZM33.856,26.51869c-1.54791-.37112-3.04729-0.52735-4.26109.91813C31.89437,28.10269,32.8465,27.88771,33.856,26.51869ZM48.20157,92.682c-1.78761-.22856-3.18862-0.10465-4.194,1.51525C45.59874,94.15659,47.15232,94.50921,48.20157,92.682ZM21.71568,46.39349c1.63459,0.60109,2.16113.37542,3.28163-1.36873A2.64794,2.64794,0,0,0,21.71568,46.39349ZM40.41292,94.16131a3.59672,3.59672,0,0,0,3.44756-1.41221C42.3247,92.53031,41.11229,92.56047,40.41292,94.16131Zm37.017-34.91053,0.27052-.31356c-0.20664-.54481-0.15131-1.41686-1.49585-0.829C76.7021,58.57211,77.066,58.91143,77.42994,59.25078ZM23.1291,41.67981c1.04414-.75166,1.03659-0.75486.824-1.87507ZM16.756,56.34027l-0.24457-.10962a1.36476,1.36476,0,0,0-.3277.39416,3.267,3.267,0,0,0,.07372.86744Z"></path><path d="M46.1858,12.71076a7.72482,7.72482,0,0,1,2.746,5.1125c0.37906,3.65465-3.29188,6.76314-6.53417,5.3583a6.097,6.097,0,0,1-2.6434-9.09916,4.86664,4.86664,0,0,1,3.56611-2.19919,15.1765,15.1765,0,0,1,4.11211.26745ZM44.32565,21.907a2.00206,2.00206,0,0,0,1.72961-1.89308,4.59777,4.59777,0,0,0-2.83013-3.92376c-1.64584-.63-2.83578.15639-2.84824,1.88223A4.22058,4.22058,0,0,0,44.32565,21.907Zm2.33308-5.93239c-0.771-1.95472-.86976-2.00854-1.70249-1.09148Z"></path><path d="M64.22992,27.436c2.20411,0.02014,3.77028,1.80228,3.75612,4.3633A7.54394,7.54394,0,0,1,66.71632,36.041a3.5835,3.5835,0,0,1-5.592.6439,5.62123,5.62123,0,0,1-.15932-7.79153C62.21064,27.52144,62.53647,27.4205,64.22992,27.436ZM66.00831,31.14c-0.12265.75492-1.46593,1.31412-.38261,2.279a1.84051,1.84051,0,0,1-.72781.58984,1.14844,1.14844,0,0,1-1.17309-1.29756,1.81015,1.81015,0,0,0-1.70619-1.86994c-1.2949,1.67547-1.19421,3.373.22371,4.665a2.09112,2.09112,0,0,0,2.329.38512A3.98175,3.98175,0,0,0,66.00831,31.14ZM65.40268,29.33a1.32891,1.32891,0,0,0-.1611.42483,0.62564,0.62564,0,0,0,.24565.22227A1.68833,1.68833,0,0,0,65.666,29.5665,0.80932,0.80932,0,0,0,65.40268,29.33Z"></path><path d="M49.40458,56.1312a4.98592,4.98592,0,0,1-4.89765-5.5187,3.61418,3.61418,0,0,1,2.45092-3.05408,2.66242,2.66242,0,0,1,3.487.979A14.7085,14.7085,0,0,1,52.26135,51.624C53.10749,53.7127,51.46167,56.46261,49.40458,56.1312Zm-3.22937-5.60814a3.20538,3.20538,0,0,0,.91977,3.06339,2.49146,2.49146,0,0,0,2.22358.90766c0.64012-.09466,1.07935-0.53524.77425-1.10658a8.22686,8.22686,0,0,0-1.78-2.39533A5.2781,5.2781,0,0,0,46.17522,50.52307Z"></path><path d="M36.85048,40.51253a3.096,3.096,0,0,1-3.2577-4.05315c0.49538-1.45061,1.113-2.84687,2.86513-3.14511a2.0213,2.0213,0,0,1,1.35944.09218c2.25513,1.68012,2.22805,5.53337-.03387,6.7714A4.895,4.895,0,0,1,36.85048,40.51253Zm-1.02793-4.61475a1.32024,1.32024,0,0,0-.88938,1.66677,2.67674,2.67674,0,0,0,.86466,1.23241,1.10776,1.10776,0,0,0,.92241-0.18614,0.93831,0.93831,0,0,0-.06633-0.75452C35.716,37.554,35.86864,36.72086,35.82255,35.89778Z"></path><path d="M17.29474,58.92621a2.117,2.117,0,0,1,.343-0.616,2.93056,2.93056,0,0,1,1.01939-.20818c3.36284,0.299,6.69194-.97463,10.0709-0.12957C25.01572,58.57119,21.31819,59.31739,17.29474,58.92621Z"></path><path d="M56.9454,35.187A35.37916,35.37916,0,0,1,46.796,37.0027C50.03762,35.61762,53.51806,35.54858,56.9454,35.187Z"></path><path d="M59.35343,24.50757a27.1937,27.1937,0,0,1-9.21969,1.69553,26.16877,26.16877,0,0,1,4.54074-1.06639A13.74174,13.74174,0,0,1,59.35343,24.50757Z"></path><path d="M61.29368,19.7783a11.33786,11.33786,0,0,1-5.53561,1.0173A7.482,7.482,0,0,1,61.29368,19.7783Z"></path><path d="M50.315,14.12153h5.422c-1.80741.21133-3.59219,0.97716-5.41576,0.57522Z"></path><path d="M48.84683,7.82986a4.21678,4.21678,0,0,1-3.8965.25707A4.85469,4.85469,0,0,1,48.84683,7.82986Z"></path><path d="M62.11219,47.29957l3.65248-.50371,0.056,0.41694C64.60121,47.36629,63.452,48.04881,62.11219,47.29957Z"></path><path d="M52.67882,58.96478c0.50195-.35436,1.00389-0.7087,1.69493-1.19651-0.38514,1.1575-.38514,1.1575-1.50194,1.50094Z"></path><path d="M47.99072,45.88888l-2.1309.37992-0.08483-.452,2.09467-.43105Z"></path><path d="M23.789,55.06691l0.82876-.92215L25.046,54.53861l-0.82129.95725Z"></path><path d="M34.2117,21.62018l1.08012,0.40821-0.11736.37806-1.12231-.27854Z"></path><path d="M17.83338,60.71282l0.81791-1.32094c0.26523,1.12306-.50349,1.01439-0.83734,1.30255Z"></path><path d="M16.613,59.74494l-0.54552.281a0.99763,0.99763,0,0,1-.13131-0.27284,5.14727,5.14727,0,0,1,.50775-0.37623Z"></path><path d="M42.49881,46.95068l-1.01763.06393L41.40259,46.838a1.82172,1.82172,0,0,1,.45723-0.22862,3.57771,3.57771,0,0,1,.65357-0.00975Z"></path><path d="M53.15583,44.74342l-0.90821.18488-0.06046-.31665,0.91227-.1501Z"></path><path d="M39.79382,58.0875a2.07086,2.07086,0,0,1-.21864-0.24984,0.94323,0.94323,0,0,1,.34137-0.30269,0.98927,0.98927,0,0,1,.26739.28144Z"></path><path d="M23.34862,60.51251l-0.41348.22177-0.1658-.368,0.44029-.18739Z"></path><path d="M63.81053,80.44534c0.01442,2.37681-2.39683,5.40869-4.71591,5.67528a5.11464,5.11464,0,0,1-2.5625-.58872c-2.46612-1.14952-3.16323-3.56011-3.65768-5.89661-0.39-1.84322,1.49748-4.35679,3.38161-5.0861a5.14328,5.14328,0,0,1,5.88638,1.409A8.08029,8.08029,0,0,1,63.81053,80.44534Zm-3.21722,2.0673c-1.34182-1.64158-2.49992-3.35589-4.74489-3.75863l-1.36235.75611a4.76772,4.76772,0,0,0,1.38306,3.66156C57.99829,85.29419,59.39822,85.54017,60.59331,82.51264ZM56.23106,76.2368c0.93507,0.23328,1.37338.17824,1.73113-.69747C57.33572,75.79174,56.96869,75.93962,56.23106,76.2368Z"></path><path d="M31.97922,72.83638c-0.06512.45383-.16088,1.22617-0.289,1.99306a5.63617,5.63617,0,0,1-4.27888,4.03729A4.97828,4.97828,0,0,1,22.99212,75.725c-1.36423-3.43836,1.81715-7.70565,5.49724-7.37354C30.78769,68.55887,32.0524,70.064,31.97922,72.83638Zm-6.33432-.42971c-1.36041,1.02239-1.57115,1.86474-.83172,3.21186a2.87891,2.87891,0,0,0,3.31991,1.52372,1.65214,1.65214,0,0,0,1.26884-2.00137c-0.02527-.49582-0.18858-0.98312-0.26269-1.47825-0.172-1.1491-.91373-2.34239.6509-3.50485-1.8824.48426-1.96439,1.81343-2.22108,3.0403C26.82454,72.89186,26.22442,72.645,25.6449,72.40668Z"></path><path d="M74.92621,82.5576c-0.01749-2.15908,1.22434-3.51614,3.213-3.51109,1.91036,0.00485,3.64666,1.4521,3.63012,3.02581a3.62679,3.62679,0,0,1-3.495,3.82163C76.05182,85.87056,74.94409,84.76671,74.92621,82.5576Zm4.509,1.02478a15.86974,15.86974,0,0,0-1.93336-1.63775c-0.406-.24166-1.00021.37864-1.00883,0.94694A1.35364,1.35364,0,0,0,77.8697,84.415,5.78769,5.78769,0,0,0,79.43519,83.58238Z"></path><path d="M71.52961,91.56547c1.203-.64109,7.16641-1.05031,8.89858-0.70594C79.3252,91.57716,73.88562,92.05141,71.52961,91.56547Z"></path><path d="M57.85328,88.42186L49.1089,88.821c1.37161-1.12065,2.93726-.63608,4.41816-0.7717C54.96478,87.91762,56.42107,87.58123,57.85328,88.42186Z"></path><path d="M12.535,70.30681c1.86675-.21348,3.728-0.572,5.55138.23372C16.22649,70.72747,14.36591,71.67818,12.535,70.30681Z"></path><path d="M13.57119,72.28965c1.93418,0.08247,3.87.13965,5.801,0.26948a1.81517,1.81517,0,0,1,1.04511.67741A11.30636,11.30636,0,0,1,13.57119,72.28965Z"></path><path d="M18.92211,81.3016l-0.6457-.5894c1.92593-1.06422,3.11175-1.057,5.12394.10152l-4.49573.4685Z"></path><path d="M42.12075,78.90411a9.44452,9.44452,0,0,1-5.47618.4537C37.30052,78.88453,39.99645,78.62666,42.12075,78.90411Z"></path><path d="M18.90462,81.28222L17.781,82.57035l-0.26783-.26777a1.78652,1.78652,0,0,1,1.40884-1.001Z"></path><path d="M35.06186,88.04269l1.63459-1.33977A2.16291,2.16291,0,0,1,35.267,88.27337Q35.16557,88.158,35.06186,88.04269Z"></path><path d="M16.24086,74.67865a2.617,2.617,0,0,1,.34241-0.35017,0.88188,0.88188,0,0,1,.24174.16964,3.38657,3.38657,0,0,1-.30007.37859A1.96329,1.96329,0,0,1,16.24086,74.67865Z"></path><path d="M22.5844,66.44129a1.82453,1.82453,0,0,1,.39222.53954,0.54092,0.54092,0,0,1-.34.31134,0.41934,0.41934,0,0,1-.31229-0.27762A1.68781,1.68781,0,0,1,22.5844,66.44129Z"></path><path d="M19.96558,71.47277L20.53,70.99345l0.18554,0.22115-0.56993.47282Z"></path><path d="M23.05364,78.26229l-0.80217.39293-0.14071-.26205,0.74909-.47526Z"></path><path d="M76.7208,62.51055A0.94682,0.94682,0,0,0,76.006,63.9627c-1.36731-.70195-1.36731-0.70195-0.53857-2.49718C76.1155,61.52637,76.7188,61.61656,76.7208,62.51055Z"></path><path d="M16.01918,63.95712l0.81754-1.05137c0.19991,0.83525-.32642.92409-0.83112,1.03626Z"></path><path d="M30.11842,29.251l-0.005.74275q-0.37886.07336-.75787,0.14663l-0.10812-.23759Z"></path></g></svg>