<svg height='100px' width='100px'  fill="#000000" xmlns="http://www.w3.org/2000/svg" xmlns:xlink="http://www.w3.org/1999/xlink" version="1.1" x="0px" y="0px" viewBox="0 0 100 100" enable-background="new 0 0 100 100" xml:space="preserve"><g><path d="M58.273,85.754H41.727c-4.304,0-7.861,3.207-8.411,7.362c-0.078,0.595,0.399,1.123,0.999,1.123h31.371   c0.6,0,1.077-0.528,0.998-1.123C66.135,88.961,62.578,85.754,58.273,85.754z"></path><path d="M93.737,73.349L78.126,55.872c-0.942-1.056-2.29-1.659-3.705-1.659h-5.094V22.543c0-7.994-6.504-14.498-14.497-14.498   c-3.057,0-5.995,0.966-8.447,2.729l-3.939-4.356c-0.43-0.475-1.058-0.712-1.696-0.647c-0.636,0.067-1.2,0.435-1.521,0.989   c-2.307,3.997-1.775,8.981,1.32,12.404c2.061,2.278,4.924,3.494,7.851,3.494c1.468,0,2.952-0.307,4.358-0.938   c0.582-0.263,1.005-0.788,1.137-1.414c0.131-0.626-0.046-1.277-0.475-1.751l-4.331-4.789c1.697-1.112,3.684-1.719,5.743-1.719   c5.788,0,10.497,4.709,10.497,10.498v31.669h-7.935l0,0V40.634h1.718c1.104,0,2-0.896,2-2v-3.104c0-0.552-0.447-1-1-1H40.923   c-0.552,0-1,0.448-1,1v3.104c0,1.104,0.896,2,2,2h1.72v13.578l0,0h-7.355L13.674,28.924c-1.827-2.046-4.97-2.222-7.017-0.393   c-2.046,1.83-2.222,4.971-0.392,7.017L30.36,62.494c0.941,1.055,2.289,1.657,3.704,1.657h38.131l14.129,15.818   c0.983,1.1,2.343,1.659,3.709,1.659c1.179,0,2.36-0.416,3.309-1.263C95.389,78.538,95.565,75.396,93.737,73.349z M47.643,54.212   V40.634h5.75v13.578l0,0H47.643L47.643,54.212z"></path><polygon points="55.368,81.754 56.627,68.151 43.373,68.151 44.632,81.754  "></polygon></g></svg>