<svg height='100px' width='100px'  fill="#000000" xmlns="http://www.w3.org/2000/svg" xmlns:xlink="http://www.w3.org/1999/xlink" version="1.1" x="0px" y="0px" viewBox="0 0 100 100" style="enable-background:new 0 0 100 100;" xml:space="preserve"><path d="M25.7,80c-9.8,0-17.8-8-17.8-17.8c0-9.8,8-17.8,17.8-17.8c9.8,0,17.8,8,17.8,17.8C43.5,72,35.6,80,25.7,80z M25.7,47.2  c-8.3,0-15,6.7-15,15s6.7,15,15,15s15-6.7,15-15S34,47.2,25.7,47.2z"></path><path d="M81.5,60.2c4.3,0,7.8,3.5,7.8,7.7s-3.5,7.8-7.7,7.8s-7.8-3.5-7.8-7.7c0,0,0,0,0,0C73.8,63.7,77.2,60.3,81.5,60.2 M81.5,57.4  c-5.8,0-10.6,4.7-10.6,10.6s4.7,10.6,10.6,10.6c5.8,0,10.6-4.7,10.6-10.6C92.1,62.2,87.4,57.4,81.5,57.4  C81.5,57.4,81.5,57.4,81.5,57.4z"></path><path d="M87.4,67.8V68c0,0.6-0.5,1.1-1.1,1.1H85c-0.4,1.1-1.2,1.9-2.2,2.3v1.4c0,0.6-0.5,1.1-1.1,1.1c0,0,0,0,0,0h-0.3  c-0.6,0-1.1-0.5-1.1-1.1v-1.3c-1-0.4-1.8-1.1-2.2-2.2h-1.4c-0.6,0-1.1-0.5-1.1-1.1V68c0-0.6,0.5-1.1,1.1-1.1c0,0,0,0,0,0H78  c0.4-1.1,1.2-1.9,2.2-2.3v-1.5c0-0.6,0.5-1.1,1.1-1.1h0.3c0.6,0,1.1,0.5,1.1,1.1v1.4c1,0.4,1.8,1.2,2.2,2.2h1.4  C86.9,66.7,87.4,67.2,87.4,67.8z"></path><path d="M45.2,38.5l-5.2-0.9v-3.8c0-1,0.8-1.8,1.8-1.8h24.8c0.7,0,1.3,0.6,1.3,1.3v8.9l-5.4-0.8v-3.7c0-0.2-0.2-0.3-0.3-0.3h-1.6  c-0.1,0-0.3,0.1-0.3,0.3c0,0,0,0,0,0v3.5l-5.8-1v-2.4c0-0.2-0.2-0.4-0.4-0.4c0,0,0,0,0,0h-1.1c-0.2,0-0.3,0.1-0.3,0.3v2.2l-5.2-0.9  v-1.1c0-0.3-0.2-0.5-0.5-0.5h-1.7V38.5z"></path><path d="M82.8,50.4V55c0,0-13.9-1.1-13.4,13.4H44.4c0,0,3.5-10.1-2.8-18.4c-7.1-9.4-18.1-6.9-18.1-6.9v-1.9c0-1.3,0.5-2.6,1.6-3.5  c0-0.1,0.1-0.1,0.2-0.1c0-0.1,0-0.2,0-0.3V25.9h-1.9c-1.7,0-3-1.3-3-3l0,0c0-1.7,1.3-3,3-3h4.8c1.7,0,3,1.3,3,3l0,0  c0,0.1,0,0.2,0,0.2v0c0,0.1,0,0.2,0,0.3v13.7c0,0.1,0,0.3,0,0.4l48.2,7.9C81.3,45.8,82.8,47.9,82.8,50.4z"></path><path d="M38,66.4c-0.2,0.6-0.9,0.9-1.5,0.7l-2-0.7c-0.5,1.1-1.2,2-2.1,2.8l1.2,1.7c0.4,0.5,0.2,1.3-0.3,1.7  c-0.5,0.4-1.3,0.2-1.6-0.3l-1.1-1.6c-1.1,0.6-2.2,1-3.4,1.2v1.9c0,0.7-0.5,1.2-1.2,1.2s-1.2-0.5-1.2-1.2l0,0v-1.8  c-1.5-0.2-3-0.7-4.3-1.5l-1.1,1.3c-0.5,0.5-1.2,0.5-1.7,0c-0.4-0.4-0.5-1.1-0.1-1.5l1.1-1.3c-0.9-0.9-1.5-2-2-3.1L15,66.2  c-0.6,0.2-1.3-0.2-1.4-0.8c0-0.1,0-0.2,0-0.3c0-0.5,0.4-1,0.9-1.2l1.7-0.4c-0.2-1.2-0.1-2.5,0.2-3.7l-1.7-0.6  c-0.6-0.2-0.9-0.9-0.7-1.5c0.2-0.6,0.9-0.9,1.5-0.7l1.7,0.6c0.6-1.1,1.3-2,2.3-2.8l-1.1-1.6c-0.4-0.5-0.2-1.3,0.3-1.6  c0.2-0.1,0.4-0.2,0.7-0.2c0.4,0,0.8,0.2,1,0.5l1.1,1.6c1.1-0.5,2.2-0.9,3.4-1v-2.1c0-0.7,0.5-1.2,1.2-1.2c0.7,0,1.2,0.5,1.2,1.2v2.1  c1.4,0.2,2.8,0.7,4,1.5l1.4-1.7c0.4-0.5,1.2-0.6,1.7-0.2c0.5,0.4,0.6,1.2,0.2,1.7L33,55.6c0.8,0.8,1.4,1.8,1.8,2.9l2.2-0.6  c0.6-0.2,1.3,0.2,1.4,0.8s-0.2,1.3-0.8,1.4l0,0l-2.1,0.6c0.1,0.5,0.1,0.9,0.1,1.4c0,0.7-0.1,1.3-0.2,2l2,0.8  C38,65.2,38.2,65.9,38,66.4z"></path></svg>