<?xml version="1.0" encoding="utf-8"?>
<!-- Generator: Adobe Illustrator 24.2.1, SVG Export Plug-In . SVG Version: 6.00 Build 0)  -->
<svg version="1.1"
	 id="Layer_1" xmlns:cc="http://creativecommons.org/ns#" xmlns:dc="http://purl.org/dc/elements/1.1/" xmlns:rdf="http://www.w3.org/1999/02/22-rdf-syntax-ns#"
	 xmlns="http://www.w3.org/2000/svg" xmlns:xlink="http://www.w3.org/1999/xlink" x="0px" y="0px" viewBox="0 0 100 100"
	 enable-background="new 0 0 100 100" xml:space="preserve">
<g transform="translate(0,-952.36218)">
	<path d="M29.189,957.92c-0.45,0.039-0.907,0.206-1.281,0.5l-15.344,12.094c-0.999,0.789-1.164,2.283-0.375,3.281l2.188,2.781
		c0.003,0.38,0.258,0.712,0.625,0.813l11.438,14.531c0.001,0.074,0.011,0.148,0.031,0.219l1.563,4.531l-3.594,2.813
		c-0.044,0.027-0.086,0.059-0.125,0.094c-0.266,0.316-0.266,0.778,0,1.094l21.281,27.156c0.295,0.359,0.824,0.415,1.188,0.125
		l3.563-2.781l4.094,2.594c0.049,0.037,0.101,0.068,0.156,0.094l11.438,14.594c0.048,0.254,0.209,0.473,0.438,0.594l2.281,2.875
		c0.783,1.003,2.246,1.189,3.25,0.406l15.438-12.031c0.999-0.784,1.158-2.247,0.375-3.25l-14.219-18.25c-0.01,0-0.021,0-0.031,0
		c0-0.01,0-0.021,0-0.031c-0.01-0.011-0.021-0.021-0.031-0.031l-1.531-4.563l3.563-2.781c0.359-0.295,0.415-0.824,0.125-1.188
		l-4.656-5.938l1.563-1.219c0.276,0.234,0.673,0.264,0.969,0.031l0.063-0.063c0.338-0.266,0.391-0.756,0.125-1.094l-1.25-1.594
		c-0.266-0.338-0.756-0.391-1.094-0.125l-0.063,0.031c-0.301,0.237-0.362,0.643-0.188,0.969l-1.594,1.219l-3.156-4.031l2.313-1.781
		l-2.875-3.656l-2.281,1.813l-3.531-4.531l1.563-1.219c0.275,0.221,0.679,0.259,0.969,0.031l0.031-0.063
		c0.338-0.266,0.422-0.756,0.156-1.094l-1.281-1.594c-0.266-0.338-0.756-0.422-1.094-0.156l-0.063,0.063
		c-0.292,0.229-0.341,0.617-0.188,0.938l-1.563,1.219l-4.188-5.313c-0.295-0.359-0.824-0.415-1.188-0.125l-3.563,2.781l-4-2.563
		c-0.023-0.066-0.055-0.129-0.094-0.188L31.19,958.796c-0.395-0.499-0.97-0.805-1.563-0.875
		C29.479,957.903,29.34,957.908,29.189,957.92L29.189,957.92z M29.439,959.607c0.155,0.023,0.293,0.107,0.406,0.25l2.063,2.594
		c-0.161,0.02-0.312,0.085-0.438,0.188l-15.938,12.625l-2-2.531c-0.227-0.287-0.187-0.653,0.094-0.875l15.344-12.125
		C29.112,959.621,29.284,959.584,29.439,959.607L29.439,959.607z M32.845,963.639l2.719,3.438c-0.055,0.026-0.108,0.057-0.156,0.094
		l-16.219,12.781l-2.625-3.375l15.969-12.594C32.667,963.898,32.775,963.779,32.845,963.639L32.845,963.639z M36.564,968.389
		l3.25,4.094c-0.055,0.026-0.108,0.057-0.156,0.094l-16.219,12.781l-3.188-4.063l16.188-12.812
		C36.484,968.455,36.526,968.424,36.564,968.389L36.564,968.389z M40.845,973.795l3.094,3.906l-16.406,12.875l-3.031-3.844
		l16.219-12.844C40.765,973.861,40.807,973.83,40.845,973.795L40.845,973.795z M53.595,978.764l20.25,25.812l-27.438,21.531
		l-20.25-25.812l3.25-2.562c0.011-0.01,0.021-0.021,0.031-0.031l0.063-0.031c0.011-0.01,0.021-0.021,0.031-0.031l20.656-16.219
		c0.07-0.043,0.133-0.095,0.188-0.156L53.595,978.764L53.595,978.764z M45.189,978.889l3,1.906l-18.75,14.75l-1.156-3.375
		L45.189,978.889L45.189,978.889z M41.751,988.92l-3.063,2.406c1.217,0.645,2.464,1.318,4.406,2.438
		C42.554,991.857,42.188,990.618,41.751,988.92L41.751,988.92z M60.845,991.638c-0.819,1.545-1.436,2.654-2.406,4.375
		c2.147-0.618,3.511-0.98,4.844-1.313L60.845,991.638L60.845,991.638z M50.595,992.107c-0.502,4.275-0.801,6.848-1.125,9.5
		c-0.286-0.029-0.55-0.064-0.844-0.094l-0.063,1.344h0.75c-0.025,0.205-0.069,0.546-0.094,0.75l1.344,0.094c0-0.282,0-0.54,0-0.813
		c3.83,0.043,7.608,0.095,13.844,0.188c-5.498-0.536-9.295-0.92-13.844-1.375C50.568,998.606,50.579,995.912,50.595,992.107
		L50.595,992.107z M70.595,1009.357l1.156,3.375l-16.875,13.281l-3.031-1.938L70.595,1009.357L70.595,1009.357z M41.095,1009.639
		c-1.902,0.534-3.118,0.852-4.813,1.281l2.406,3.094C39.328,1012.798,39.986,1011.578,41.095,1009.639L41.095,1009.639z
		 M56.751,1011.201c0.627,2.152,1.006,3.477,1.344,4.813l3.063-2.375C59.611,1012.812,58.475,1012.18,56.751,1011.201
		L56.751,1011.201z M72.595,1014.264l2.969,3.844c-0.055,0.026-0.108,0.057-0.156,0.094l-16.281,12.688l-2.938-3.75L72.595,1014.264
		L72.595,1014.264z M76.595,1019.42l3.219,4.125c-0.054,0.015-0.106,0.036-0.156,0.062l-16.281,12.688l-3.188-4.063l16.281-12.719
		C76.515,1019.486,76.557,1019.454,76.595,1019.42L76.595,1019.42z M80.845,1024.826l2.719,3.5c-0.031-0.002-0.063-0.002-0.094,0
		c-0.136,0.021-0.264,0.075-0.375,0.156l-16.031,12.531l-2.656-3.375l16.281-12.688
		C80.746,1024.915,80.799,1024.873,80.845,1024.826L80.845,1024.826z M84.439,1029.451l2.031,2.625
		c0.225,0.288,0.19,0.652-0.094,0.875l-15.406,12.031c-0.282,0.22-0.65,0.195-0.875-0.094c0-0.01,0-0.021,0-0.031l-1.969-2.5
		l16.031-12.531C84.285,1029.73,84.382,1029.6,84.439,1029.451L84.439,1029.451z"/>
</g>
</svg>
