<?xml version="1.0" encoding="utf-8"?>
<!-- Generator: Adobe Illustrator 24.2.1, SVG Export Plug-In . SVG Version: 6.00 Build 0)  -->
<svg version="1.1" id="Layer_1" xmlns="http://www.w3.org/2000/svg" xmlns:xlink="http://www.w3.org/1999/xlink" x="0px" y="0px"
	 viewBox="0 0 100 100" enable-background="new 0 0 100 100" xml:space="preserve">
<g>
	<path fill-rule="evenodd" clip-rule="evenodd" d="M5.047,40.063l6.309,0.315l11.041-5.994c3.47-2.208,7.256-3.47,11.041-3.47
		L51.42,31.23c4.732,0,7.886,1.262,11.987,3.785l15.142,9.464c17.35,0.946,18.612,4.101,21.136,12.618
		c0.631,2.839,0,5.047-3.155,5.047h-4.101c0-0.631,0-0.946,0-1.262c0-5.363-4.416-9.779-9.779-9.779s-9.779,4.416-9.779,9.779
		c0,0.315,0,0.631,0,1.262H28.076c0-0.631,0.315-0.946,0.315-1.262c0-5.363-4.416-9.779-9.779-9.779
		c-5.678,0-9.779,4.416-9.779,9.779c0,0.315,0,0.631,0,1.262H3.47c-1.893,0-3.785-1.577-3.47-3.785l1.577-14.826
		C1.577,41.64,3.155,40.063,5.047,40.063z M70.978,44.164l-9.464-5.994c-3.47-2.208-5.994-3.155-10.095-3.155l0,0H48.58v7.571
		L70.978,44.164z M43.849,34.7H33.123c-5.363,0-6.625,2.208-10.41,6.309l21.136,1.262V34.7z"/>
	<path fill-rule="evenodd" clip-rule="evenodd" d="M18.612,52.681c4.416,0,8.202,3.47,8.202,8.202c0,4.416-3.785,8.202-8.202,8.202
		c-4.732,0-8.517-3.785-8.517-8.202C10.095,56.151,13.88,52.681,18.612,52.681z M18.612,56.782c1.893,0,3.785,1.893,3.785,4.101
		s-1.893,3.785-3.785,3.785c-2.208,0-4.101-1.577-4.101-3.785S16.404,56.782,18.612,56.782z"/>
	<path fill-rule="evenodd" clip-rule="evenodd" d="M82.65,52.681c4.732,0,8.202,3.47,8.202,8.202c0,4.416-3.47,8.202-8.202,8.202
		c-4.416,0-8.202-3.785-8.202-8.202C74.448,56.151,78.233,52.681,82.65,52.681z M82.65,56.782c2.208,0,4.101,1.893,4.101,4.101
		s-1.893,3.785-4.101,3.785c-2.208,0-3.785-1.577-3.785-3.785S80.442,56.782,82.65,56.782z"/>
</g>
</svg>
