<svg height='100px' width='100px'  fill="#000000" xmlns="http://www.w3.org/2000/svg" viewBox="0 0 64 64" x="0px" y="0px"><title>Spa and massage</title><path d="M53.35,45.52a5.05,5.05,0,0,0-4.05,0l-8.22,4.16a5.41,5.41,0,0,0-3.67-3.84C33.16,44.54,26,42.38,25.6,42.29s-.8-.16-1.19-.22a10.61,10.61,0,0,0,5-2.6,11.58,11.58,0,0,0,8,3c4.59,0,8.55-2.29,9.86-5.72a2,2,0,0,0,0-1.43,8.69,8.69,0,0,0-4.66-4.63,8.7,8.7,0,0,0,0-6.61,2,2,0,0,0-1-1,8.76,8.76,0,0,0-6.74.1,10.15,10.15,0,0,0-1.92-3c2.83.85,5.25,1.58,5.46,1.63a17.07,17.07,0,0,0,3.81.44A16.74,16.74,0,0,0,44.55,22a17.28,17.28,0,0,0,5-1.47l5.76-2.72a2,2,0,0,0-1.71-3.62L47.8,16.89a13.13,13.13,0,0,1-8.44.94c-.44-.12-7.19-2.15-11.61-3.49a1.41,1.41,0,0,1-.64-2.29,1.43,1.43,0,0,1,1.35-.44s8,2.44,8,2.44a2,2,0,0,0,1.16-3.83L29.72,7.81a5.41,5.41,0,0,0-5.26,1.26L13.08,14.83a1.06,1.06,0,0,1-.84,0,1.14,1.14,0,0,1-.64-1.18A1.08,1.08,0,0,1,12,13c.75-.44,6.27-3.57,14.93-8.48a3.77,3.77,0,0,1,2.92-.32L43.63,8.35A8.88,8.88,0,0,0,50,7.88l.47-.22A2,2,0,1,0,48.77,4l-.48.22a4.87,4.87,0,0,1-3.5.26L31,.33A7.8,7.8,0,0,0,25,1C9.92,9.51,9.81,9.6,9.69,9.69a5.09,5.09,0,0,0,1,8.79,5.22,5.22,0,0,0,2,.43,5.07,5.07,0,0,0,2-.42l8.22-4.16a5.41,5.41,0,0,0,3.67,3.84l1.21.37a9.08,9.08,0,0,0-3.91,4.58,8.76,8.76,0,0,0-6.74-.1,2,2,0,0,0-1,1,8.7,8.7,0,0,0,0,6.61,8.65,8.65,0,0,0-4.66,4.63,2,2,0,0,0,0,1.43c1,2.74,3.79,4.75,7.19,5.45a17.43,17.43,0,0,0-4.22,1.34L8.73,46.21a2,2,0,0,0,1.71,3.62l5.76-2.72a13.13,13.13,0,0,1,8.44-.94c.44.12,7.19,2.15,11.61,3.49A1.41,1.41,0,0,1,36.89,52a1.43,1.43,0,0,1-1.35.44s-8-2.44-8-2.44a2,2,0,0,0-1.16,3.83l7.92,2.41a5.49,5.49,0,0,0,1.55.23,5.38,5.38,0,0,0,3.73-1.5l11.36-5.75a1.06,1.06,0,0,1,.84,0,1.14,1.14,0,0,1,.64,1.18A1.08,1.08,0,0,1,52,51c-.75.44-6.27,3.57-14.93,8.48a3.77,3.77,0,0,1-2.92.32L20.37,55.65a8.88,8.88,0,0,0-6.37.47l-.47.22A2,2,0,1,0,15.23,60l.48-.22a4.86,4.86,0,0,1,3.5-.26L33,63.67a7.76,7.76,0,0,0,6-.67c15-8.51,15.14-8.6,15.26-8.69a5.09,5.09,0,0,0-1-8.79ZM40.51,34.12A5.84,5.84,0,0,1,43.11,36a7.06,7.06,0,0,1-5.74,2.43,9,9,0,0,1-2.47-.34,12.5,12.5,0,0,0,4.77-3A12.16,12.16,0,0,0,40.51,34.12ZM35.81,28c0-.3,0-.6,0-.9a5.91,5.91,0,0,1,3.41-.65,6.27,6.27,0,0,1-1.08,4.22h0a8.89,8.89,0,0,1-1.26,1.56A8.75,8.75,0,0,1,34.31,34,12.36,12.36,0,0,0,35.81,28Zm-6.43-5.73A7.08,7.08,0,0,1,31.81,28a7.09,7.09,0,0,1-2.43,5.74A7.06,7.06,0,0,1,26.94,28,7.05,7.05,0,0,1,29.38,22.26Zm-9.81,4.18a5.91,5.91,0,0,1,3.41.65c0,.3,0,.6,0,.9a12.36,12.36,0,0,0,1.5,6,8.79,8.79,0,0,1-2.54-1.78,9.82,9.82,0,0,1-1.23-1.51s0,0,0-.05A6.27,6.27,0,0,1,19.57,26.44Zm1.81,12A7.06,7.06,0,0,1,15.64,36a5.84,5.84,0,0,1,2.6-1.87,12,12,0,0,0,.83.93,12.65,12.65,0,0,0,4.78,3A9.1,9.1,0,0,1,21.38,38.42Z"></path></svg>