<svg height='100px' width='100px'  fill="#000000" xmlns="http://www.w3.org/2000/svg" xmlns:xlink="http://www.w3.org/1999/xlink" version="1.1" x="0px" y="0px" viewBox="0 0 100 100" enable-background="new 0 0 100 100" xml:space="preserve"><g><path d="M50.211,52.856c-3.667,3.225-5.488,5.668-10.014,11.532c0,0-12.247,4.913-18.243,11.897h28.193l7.144-9.856v9.856h5.485   V52.849H50.219C50.217,52.853,50.214,52.854,50.211,52.856z M48.532,65.419h-3.7c-0.475,0-0.86-0.385-0.86-0.86   c0-0.475,0.385-0.859,0.86-0.859h3.7c0.475,0,0.86,0.385,0.86,0.859C49.392,65.034,49.007,65.419,48.532,65.419z M52.061,61.337   h-3.699c-0.475,0-0.859-0.386-0.859-0.861c0-0.475,0.385-0.859,0.859-0.859h3.699c0.475,0,0.86,0.385,0.86,0.859   C52.921,60.951,52.536,61.337,52.061,61.337z M51.891,55.534h3.7c0.475,0,0.86,0.385,0.86,0.859s-0.385,0.861-0.86,0.861h-3.7   c-0.475,0-0.86-0.387-0.86-0.861S51.416,55.534,51.891,55.534z"></path><path d="M72.92,56.003c-0.558,0-1.011,0.453-1.011,1.01v1.71c0,0.558,0.453,1.011,1.011,1.011s1.011-0.453,1.011-1.011v-1.71   C73.932,56.456,73.478,56.003,72.92,56.003z"></path><path d="M67.399,49.505c0.183-0.183,0.295-0.437,0.295-0.713v-1.71c0-0.558-0.453-1.012-1.011-1.012s-1.011,0.454-1.011,1.012v1.71   c0,0.556,0.454,1.011,1.011,1.011C66.963,49.803,67.216,49.688,67.399,49.505z"></path><path d="M77.069,37.314l-5.578-3.356l-1.474-0.887c0.016-0.026,0.031-0.054,0.044-0.082c0.399-0.863,0.602-1.785,0.602-2.74   c0-3.604-2.933-6.535-6.535-6.535c-3.604,0-6.536,2.931-6.536,6.535c0,0.956,0.203,1.879,0.603,2.74   c0.014,0.028,0.027,0.056,0.042,0.085c0.575,1.2,1.527,2.219,2.693,2.875c0.11,0.062,0.221,0.12,0.335,0.175   c0.888,0.432,1.871,0.659,2.863,0.659c0.997,0,1.978-0.228,2.863-0.659c-0.065,0.945-0.588,1.766-1.35,2.239   c-0.496,0.093-1.003,0.14-1.513,0.14s-1.017-0.047-1.515-0.14c-0.883-0.165-1.738-0.474-2.525-0.914   c-1.425-0.802-2.598-2.033-3.332-3.484l-5.568,3.35c-0.606,0.364-0.978,1.021-0.978,1.729v12.088l14.286-0.001v17.006h9.867   c2.033,0,3.682-1.648,3.682-3.682V39.043C78.045,38.335,77.674,37.679,77.069,37.314z M61.315,31.543   c0.272,0.59,0.734,1.09,1.301,1.409c0.188,0.104,0.386,0.19,0.592,0.252c0.296,0.092,0.607,0.14,0.92,0.14   c0.315,0,0.625-0.047,0.921-0.139c0.634,0.214,1.169,0.645,1.516,1.203c-0.028,0.014-0.055,0.026-0.083,0.041   c-0.712,0.401-1.526,0.614-2.354,0.614c-0.825,0-1.641-0.213-2.357-0.614c-0.026-0.015-0.052-0.029-0.078-0.045   c-0.843-0.494-1.528-1.251-1.938-2.138c-0.013-0.028-0.025-0.056-0.038-0.084c-0.268-0.608-0.406-1.26-0.406-1.934   c0-2.656,2.161-4.815,4.816-4.815c2.655,0,4.815,2.159,4.815,4.815c0,0.672-0.137,1.323-0.405,1.933l-1.493-0.897l-1.875-1.129   c-0.641-0.386-1.442-0.386-2.082,0l-1.878,1.13C61.24,31.372,61.276,31.458,61.315,31.543z M63.954,48.792v-1.71   c0-1.507,1.225-2.73,2.73-2.73s2.73,1.224,2.73,2.73v1.71c0,1.504-1.225,2.729-2.73,2.729S63.954,50.296,63.954,48.792z    M66.088,59.581c-0.158,0-0.319-0.045-0.461-0.135c-0.4-0.256-0.519-0.788-0.263-1.188l8.034-12.586   c0.255-0.4,0.787-0.518,1.187-0.262c0.4,0.256,0.518,0.787,0.262,1.188l-8.033,12.585C66.65,59.44,66.373,59.581,66.088,59.581z    M75.651,58.723c0,1.505-1.225,2.73-2.73,2.73s-2.73-1.226-2.73-2.73v-1.71c0-1.506,1.225-2.729,2.73-2.729s2.73,1.224,2.73,2.729   V58.723z"></path></g></svg>