<svg height='100px' width='100px'  fill="#000000" xmlns="http://www.w3.org/2000/svg" viewBox="0 0 512 512" x="0px" y="0px"><title>Glyph talent skill</title><path d="M188.17,195.79l-45.72,24a10.1,10.1,0,0,1-14.65-10.64l8.73-50.91a10.07,10.07,0,0,0-2.9-8.94l-37-36a10.1,10.1,0,0,1,5.6-17.22l51.11-7.43A10.11,10.11,0,0,0,161,83.12L183.82,36.8a10.09,10.09,0,0,1,18.1,0l22.86,46.32a10.11,10.11,0,0,0,7.6,5.52l51.12,7.43a10.1,10.1,0,0,1,5.6,17.22l-37,36.05a10.11,10.11,0,0,0-2.91,8.94l8.74,50.91a10.1,10.1,0,0,1-14.65,10.64l-45.72-24A10.14,10.14,0,0,0,188.17,195.79Z"></path><path d="M349.63,235l-30.24,15.9a6.68,6.68,0,0,1-9.69-7l5.77-33.68a6.65,6.65,0,0,0-1.92-5.91l-24.46-23.85a6.68,6.68,0,0,1,3.7-11.39l33.81-4.91a6.69,6.69,0,0,0,5-3.66l15.12-30.64a6.68,6.68,0,0,1,12,0l15.12,30.64a6.69,6.69,0,0,0,5,3.66L412.69,169a6.68,6.68,0,0,1,3.7,11.39l-24.47,23.85a6.7,6.7,0,0,0-1.92,5.91l5.78,33.68a6.68,6.68,0,0,1-9.69,7L355.85,235A6.7,6.7,0,0,0,349.63,235Z"></path><path d="M193.53,375.7c2.26,1.52,4.71,3,7.29,4.49a49.36,49.36,0,0,0,9.62,4.17,2.49,2.49,0,0,0,3.15-3.18,88.31,88.31,0,0,1-4.06-14.12,68.67,68.67,0,0,1-.52-22.48c1.42-10.63,2.09-31.94-14-37.77A11.17,11.17,0,0,0,180.22,316a306.77,306.77,0,0,0-2.14,33.37A27,27,0,0,0,182.16,364,39.77,39.77,0,0,0,193.53,375.7Z"></path><path d="M257.72,384.68a4,4,0,0,0,2.82-5.53c-2.14-4.89-3.43-8.9-3.45-11-.12-10.81.26-34.16-16.26-37.78a11,11,0,0,0-13.29,9.72,176.48,176.48,0,0,0,.33,41.76,6,6,0,0,0,5.91,5.14h.53A109,109,0,0,0,257.72,384.68Z"></path><path d="M123.55,338.91c3.47,11.89,10.22,36.56,13.37,58.68a16.24,16.24,0,0,0,8.93,12.23c9.38,4.65,25.35,13.92,37.82,28.13a16.39,16.39,0,0,0,8.41,5.16c12.64,3.1,45.55,10.91,69.28,14a527.42,527.42,0,0,1,60.55,14,179.12,179.12,0,0,0,28.54,6.06,456.83,456.83,0,0,0,50.61,3.59,7.55,7.55,0,0,0,7.73-7.46v-69a8.25,8.25,0,0,0-6.55-8c-8.34-1.89-22.63-6.82-30.59-19.22a20.16,20.16,0,0,1-1.56-3,74.58,74.58,0,0,0-15.43-22.57,37.27,37.27,0,0,1-10.6-21.06A340,340,0,0,1,340.28,294a7.68,7.68,0,0,0-10-6.88c-8.69,2.65-20.68,10.18-25.58,31.33a48.15,48.15,0,0,0-.48,18.91c.48,2.81,1.09,6.09,1.83,9.44A36.84,36.84,0,0,1,295.85,381c-12,11.78-34.5,23.11-76,19.71a64.42,64.42,0,0,1-26.38-8.15c-2.62-1.48-5.44-3.19-8.27-5.1a55,55,0,0,1-22.19-31c-3.66-13.2-12.67-32.71-33.44-27.72A8.17,8.17,0,0,0,123.55,338.91Z"></path></svg>