<svg height='100px' width='100px'  fill="#000000" xmlns="http://www.w3.org/2000/svg" xmlns:xlink="http://www.w3.org/1999/xlink" version="1.1" x="0px" y="0px" viewBox="0 0 64 64" enable-background="new 0 0 64 64" xml:space="preserve"><g><path d="M55,28h-4c-0.553,0-1,0.447-1,1s0.447,1,1,1h2v1c0,0.553,0.447,1,1,1s1-0.447,1-1v-1c1.654,0,3-1.346,3-3s-1.346-3-3-3h-2   c-0.552,0-1-0.448-1-1s0.448-1,1-1h4c0.553,0,1-0.447,1-1s-0.447-1-1-1h-2v-1c0-0.553-0.447-1-1-1s-1,0.447-1,1v1   c-1.654,0-3,1.346-3,3s1.346,3,3,3h2c0.552,0,1,0.448,1,1S55.552,28,55,28z"></path><path d="M61,14H47v-2c0-0.009-0.005-0.017-0.005-0.027c-0.003-0.098-0.015-0.195-0.046-0.29l-2-6C44.812,5.275,44.431,5,44,5V4   c0-0.553-0.447-1-1-1s-1,0.447-1,1v1c-0.431,0-0.813,0.275-0.948,0.684l-2,6c-0.032,0.095-0.044,0.192-0.046,0.29   C39.005,11.983,39,11.991,39,12v2H3c-0.553,0-1,0.447-1,1v34c0,0.553,0.447,1,1,1h36v8c0,1.654,1.346,3,3,3h2c1.654,0,3-1.346,3-3   v-4h3c0.553,0,1-0.447,1-1v-3h10c0.553,0,1-0.447,1-1V15C62,14.447,61.553,14,61,14z M41,15v-2h4v2v31h-4V15z M42.721,7h0.559   l1.333,4h-3.225L42.721,7z M4,48V16h35v32H4z M45,58c0,0.552-0.448,1-1,1h-2c-0.552,0-1-0.448-1-1v-9v-1h4v1V58z M49,52h-2v-2h2V52   z M60,48h-9v-7c0-0.553-0.447-1-1-1s-1,0.447-1,1v7h-2V16h13V48z"></path><path d="M22,37H8c-0.553,0-1,0.447-1,1v6c0,0.553,0.447,1,1,1h14c0.553,0,1-0.447,1-1v-6C23,37.447,22.553,37,22,37z M21,43H9v-4   h12V43z"></path><rect x="25" y="38" width="12" height="2"></rect><rect x="25" y="42" width="8" height="2"></rect><rect x="6" y="27" width="31" height="2"></rect><rect x="7" y="19" width="22" height="2"></rect><rect x="7" y="23" width="22" height="2"></rect></g></svg>