<svg height='100px' width='100px'  fill="#000000" xmlns="http://www.w3.org/2000/svg" data-name="Слой 1" viewBox="0 0 89.54 88.76" x="0px" y="0px"><title>лапка в сердечке</title><path d="M49.3,23.43c2.12-2.93,3.48-6.14,5.88-8.64A71.4,71.4,0,0,1,60.8,9.55a4.44,4.44,0,0,1,1.74-1.08c2.3-.56,4.49-1.44,6.8-2,6.08-1.42,11.33.35,16,4.09,5.35,4.29,8,10.09,8.91,16.79,1.27,9.17-1.85,17-7.83,23.59S75.08,65.07,69.71,72.36C64.86,78.94,59.92,85.44,55,92a10.24,10.24,0,0,1-1,1.1c-2.17,2.25-2.12,2.18-4.57.28-3.34-2.57-6.59-5.27-10.07-7.67-2.53-1.74-4.24-4.37-6.3-6.61-.85-.93-1.61-2-2.55-2.84a106.14,106.14,0,0,1-8.75-10A93.08,93.08,0,0,1,11.22,51,91.89,91.89,0,0,1,5.14,35.62,3.23,3.23,0,0,1,5,34.75c-.14-10.35,3-19,12.63-24.26,3.68-2,7.62-3.34,11.9-2.85,4.61.53,8.77,2.06,11.86,5.8C44.07,16.69,46.79,19.9,49.3,23.43ZM92.59,29.2c-.3-4.34-1.46-10.32-6.14-15.08-3.63-3.71-7.63-6.47-13.12-6.24s-10.59,1.85-14.69,5.9c-3.55,3.51-6.5,7.38-7.94,12.24-.19.63-.26,1.47-1.18,1.49s-1-.73-1.24-1.39a19.83,19.83,0,0,0-3.91-6.56c-1.44-1.6-2.8-3.29-4.16-5A13.67,13.67,0,0,0,28.85,9.24,21.54,21.54,0,0,0,9.69,21.15c-3.46,6.56-4.27,13.69-.44,20.66A5.7,5.7,0,0,1,9.7,42.9c2.77,8.86,8.43,16,14.11,23,3.82,4.73,8,9.2,12.07,13.69a59.64,59.64,0,0,0,6.36,6.15c2.36,1.93,5,3.46,7.24,5.57,1.91,1.8,2.36,1.78,4-.28,3.41-4.33,6.74-8.72,10-13.14,4.89-6.54,9.65-13.18,14.62-19.67C80.56,55,83.38,52.13,86,49,90.31,43.88,92.64,38,92.59,29.2Z" transform="translate(-5 -6)"></path><path d="M60.12,67.21A5.54,5.54,0,0,1,57,66.62c-3.46-2-6.86-1.12-10.24.21-.73.29-1.39.74-2.1,1.08A9.78,9.78,0,0,1,34.11,66.5c-1.94-1.76-2.12-6.17-.37-8.81,2.33-3.54,5.75-5.61,9.6-7.06a28.76,28.76,0,0,1,10.14-1.87c5.81,0,10.42,2.72,13.81,7.31,2.77,3.74,1.2,10.5-5.11,11C61.49,67.08,60.81,67.15,60.12,67.21Zm6.68-6.76a4.09,4.09,0,0,0-.86-3.21c-3.06-3.83-6.82-6.5-11.91-6.68a28,28,0,0,0-14.41,3.62c-3,1.6-5.21,3.9-5.3,7.59a3.68,3.68,0,0,0,.54,2.54C37,67,39.55,67.64,43,66.42A49.19,49.19,0,0,1,49,64.24a13.49,13.49,0,0,1,9.14,1A6,6,0,0,0,66.8,60.45Z" transform="translate(-5 -6)"></path><path d="M56.9,40.5a12.3,12.3,0,0,1,2.39-7.15,4.91,4.91,0,0,1,7.63-.59,5.43,5.43,0,0,1,1.31,5.46,13.69,13.69,0,0,1-4,6.41,4.58,4.58,0,0,1-4.89,1c-1.9-.67-2.29-2.24-2.46-4C56.87,41.29,56.9,40.9,56.9,40.5Zm1.73,0c0,1.31.06,2.6,1.4,3.3a3.53,3.53,0,0,0,4-1,8.65,8.65,0,0,0,2.69-5.09c.4-2.6-.46-3.88-3.14-4.69-1.27-.38-2.48.43-3.56,2.4A10.74,10.74,0,0,0,58.63,40.55Z" transform="translate(-5 -6)"></path><path d="M49.79,38.86c.18,2.42-.12,4.7-1.84,6.59s-3.12,1.94-5,.24a10.76,10.76,0,0,1-3.54-9.79c.51-4,4-5.82,7.59-4.26,1.92.82,2.21,2.61,2.61,4.29A14.94,14.94,0,0,1,49.79,38.86Zm-1.38.67a11.07,11.07,0,0,0-.81-4.78,2.81,2.81,0,0,0-2.69-1.93,2.9,2.9,0,0,0-3.06,1.74c-1.38,2.9-.34,7.95,2.2,9.89,1.38,1.06,2.09,1,3.2-.39A6.38,6.38,0,0,0,48.41,39.53Z" transform="translate(-5 -6)"></path><path d="M32.58,53.65c-3,0-7.14-4-7.39-7a4.15,4.15,0,0,1,2.06-4.27,4.64,4.64,0,0,1,5.27.71,10.75,10.75,0,0,1,3.53,6C36.6,51.89,35.15,53.7,32.58,53.65Zm1.84-3.86a8.36,8.36,0,0,0-3.26-5.37c-.95-.7-1.89-1.21-2.9-.4a2.49,2.49,0,0,0-1,3.11c1,2,2.25,3.91,4.56,4.68C33.41,52.33,34.36,51.64,34.42,49.79Z" transform="translate(-5 -6)"></path><path d="M71.42,53.55c-3.33,0-4.39-1.3-3.33-3.89a13.53,13.53,0,0,1,4.63-6c2.13-1.52,5.47-.24,5.75,2.31A6.58,6.58,0,0,1,77,50.32,8.23,8.23,0,0,1,71.42,53.55Zm-.3-1.64a5.92,5.92,0,0,0,5.38-4.66,2.05,2.05,0,0,0-.8-2.33,2,2,0,0,0-2.45.27,13.13,13.13,0,0,0-3.62,5.27C69.2,51.4,69.85,52,71.12,51.91Z" transform="translate(-5 -6)"></path></svg>