<svg height='100px' width='100px'  fill="#000000" xmlns="http://www.w3.org/2000/svg" xmlns:xlink="http://www.w3.org/1999/xlink" version="1.1" x="0px" y="0px" viewBox="0 0 50.4 50.4" enable-background="new 0 0 50.4 50.4" xml:space="preserve"><path d="M26.008,19.034h-1.475v-4.71c0-0.515,0.153-0.967,0.46-1.364c0.307-0.393,0.7-0.657,1.184-0.787l1.69-4.034  c0.275-0.661,0.774-0.991,1.498-0.991h8.649c0.708,0,1.207,0.33,1.498,0.991l1.69,4.034c0.464,0.13,0.857,0.394,1.172,0.787  c0.314,0.397,0.472,0.849,0.472,1.364h-0.027v4.71h-1.447v1.451c0,0.401-0.142,0.743-0.425,1.026  c-0.279,0.283-0.625,0.424-1.026,0.424c-0.385,0-0.719-0.142-1.002-0.424c-0.283-0.283-0.421-0.625-0.421-1.026v-1.451h-9.616v1.451  c0,0.401-0.142,0.743-0.421,1.026c-0.283,0.283-0.625,0.424-1.026,0.424c-0.39,0-0.724-0.142-1.003-0.424  c-0.282-0.283-0.424-0.625-0.424-1.026V19.034z M26.491,13.951c-0.291,0.283-0.437,0.625-0.437,1.026  c0,0.405,0.146,0.751,0.437,1.038c0.291,0.291,0.637,0.437,1.038,0.437c0.404,0,0.751-0.146,1.038-0.437  c0.29-0.287,0.436-0.633,0.436-1.038c0-0.401-0.146-0.743-0.436-1.026c-0.287-0.283-0.634-0.421-1.038-0.421  C27.128,13.53,26.782,13.667,26.491,13.951z M27.627,12.079h12.125l-1.45-3.456c-0.079-0.208-0.225-0.315-0.433-0.315h-8.382  c-0.193,0-0.331,0.106-0.413,0.315L27.627,12.079z M40.778,13.951c-0.279-0.283-0.625-0.421-1.026-0.421  c-0.4,0-0.747,0.138-1.037,0.421c-0.291,0.283-0.437,0.625-0.437,1.026c0,0.405,0.146,0.751,0.437,1.038  c0.29,0.291,0.637,0.437,1.037,0.437c0.401,0,0.747-0.146,1.026-0.437c0.283-0.287,0.425-0.633,0.425-1.038  C41.203,14.576,41.062,14.234,40.778,13.951z"></path><path d="M3.191,19.034H1.719v-4.71c0-0.515,0.153-0.967,0.458-1.364c0.307-0.393,0.702-0.657,1.183-0.787L5.053,8.14  c0.273-0.661,0.772-0.991,1.496-0.991H15.2c0.708,0,1.207,0.33,1.498,0.991l1.691,4.034c0.464,0.13,0.857,0.394,1.171,0.787  c0.314,0.397,0.472,0.849,0.472,1.364h-0.027v4.71h-1.447v1.451c0,0.401-0.142,0.743-0.425,1.026  c-0.279,0.283-0.625,0.424-1.026,0.424c-0.385,0-0.72-0.142-1.002-0.424c-0.283-0.283-0.421-0.625-0.421-1.026v-1.451H6.067v1.451  c0,0.401-0.142,0.743-0.422,1.026c-0.283,0.283-0.625,0.424-1.026,0.424c-0.387,0-0.722-0.142-1.002-0.424  c-0.283-0.283-0.425-0.625-0.425-1.026V19.034z M3.675,13.951c-0.289,0.283-0.435,0.625-0.435,1.026  c0,0.405,0.146,0.751,0.435,1.038c0.291,0.291,0.637,0.437,1.038,0.437c0.405,0,0.751-0.146,1.04-0.437  c0.289-0.287,0.435-0.633,0.435-1.038c0-0.401-0.146-0.743-0.435-1.026s-0.635-0.421-1.04-0.421  C4.312,13.53,3.966,13.667,3.675,13.951z M4.812,12.079h12.126l-1.451-3.456c-0.079-0.208-0.224-0.315-0.432-0.315H6.671  c-0.192,0-0.33,0.106-0.411,0.315L4.812,12.079z M17.963,13.951c-0.279-0.283-0.625-0.421-1.026-0.421  c-0.401,0-0.747,0.138-1.038,0.421s-0.437,0.625-0.437,1.026c0,0.405,0.146,0.751,0.437,1.038c0.291,0.291,0.637,0.437,1.038,0.437  c0.401,0,0.747-0.146,1.026-0.437c0.283-0.287,0.425-0.633,0.425-1.038C18.388,14.576,18.247,14.234,17.963,13.951z"></path><path d="M26.008,42.015h-1.475v-4.71c0-0.516,0.153-0.968,0.46-1.364c0.307-0.394,0.7-0.657,1.184-0.787l1.69-4.033  c0.275-0.661,0.774-0.991,1.498-0.991h8.649c0.708,0,1.207,0.33,1.498,0.991l1.69,4.033c0.464,0.13,0.857,0.394,1.172,0.787  c0.314,0.396,0.472,0.849,0.472,1.364h-0.027v4.71h-1.447v1.45c0,0.401-0.142,0.743-0.425,1.026  c-0.279,0.283-0.625,0.425-1.026,0.425c-0.385,0-0.719-0.142-1.002-0.425s-0.421-0.625-0.421-1.026v-1.45h-9.616v1.45  c0,0.401-0.142,0.743-0.421,1.026c-0.283,0.283-0.625,0.425-1.026,0.425c-0.39,0-0.724-0.142-1.003-0.425  c-0.282-0.283-0.424-0.625-0.424-1.026V42.015z M26.491,36.931c-0.291,0.283-0.437,0.625-0.437,1.026  c0,0.405,0.146,0.751,0.437,1.038c0.291,0.291,0.637,0.437,1.038,0.437c0.404,0,0.751-0.146,1.038-0.437  c0.29-0.287,0.436-0.633,0.436-1.038c0-0.401-0.146-0.743-0.436-1.026c-0.287-0.283-0.634-0.421-1.038-0.421  C27.128,36.51,26.782,36.647,26.491,36.931z M27.627,35.06h12.125l-1.45-3.456c-0.079-0.208-0.225-0.314-0.433-0.314h-8.382  c-0.193,0-0.331,0.106-0.413,0.314L27.627,35.06z M40.778,36.931c-0.279-0.283-0.625-0.421-1.026-0.421  c-0.4,0-0.747,0.138-1.037,0.421c-0.291,0.283-0.437,0.625-0.437,1.026c0,0.405,0.146,0.751,0.437,1.038  c0.29,0.291,0.637,0.437,1.037,0.437c0.401,0,0.747-0.146,1.026-0.437c0.283-0.287,0.425-0.633,0.425-1.038  C41.203,37.556,41.062,37.214,40.778,36.931z"></path><path d="M3.191,42.015H1.719v-4.71c0-0.516,0.153-0.968,0.458-1.364c0.307-0.394,0.702-0.657,1.183-0.787l1.693-4.033  c0.273-0.661,0.772-0.991,1.496-0.991H15.2c0.708,0,1.207,0.33,1.498,0.991l1.691,4.033c0.464,0.13,0.857,0.394,1.171,0.787  c0.314,0.396,0.472,0.849,0.472,1.364h-0.027v4.71h-1.447v1.45c0,0.401-0.142,0.743-0.425,1.026  c-0.279,0.283-0.625,0.425-1.026,0.425c-0.385,0-0.72-0.142-1.002-0.425c-0.283-0.283-0.421-0.625-0.421-1.026v-1.45H6.067v1.45  c0,0.401-0.142,0.743-0.422,1.026c-0.283,0.283-0.625,0.425-1.026,0.425c-0.387,0-0.722-0.142-1.002-0.425  c-0.283-0.283-0.425-0.625-0.425-1.026V42.015z M3.675,36.931c-0.289,0.283-0.435,0.625-0.435,1.026  c0,0.405,0.146,0.751,0.435,1.038c0.291,0.291,0.637,0.437,1.038,0.437c0.405,0,0.751-0.146,1.04-0.437  c0.289-0.287,0.435-0.633,0.435-1.038c0-0.401-0.146-0.743-0.435-1.026s-0.635-0.421-1.04-0.421  C4.312,36.51,3.966,36.647,3.675,36.931z M4.812,35.06h12.126l-1.451-3.456c-0.079-0.208-0.224-0.314-0.432-0.314H6.671  c-0.192,0-0.33,0.106-0.411,0.314L4.812,35.06z M17.963,36.931c-0.279-0.283-0.625-0.421-1.026-0.421  c-0.401,0-0.747,0.138-1.038,0.421s-0.437,0.625-0.437,1.026c0,0.405,0.146,0.751,0.437,1.038c0.291,0.291,0.637,0.437,1.038,0.437  c0.401,0,0.747-0.146,1.026-0.437c0.283-0.287,0.425-0.633,0.425-1.038C18.388,37.556,18.247,37.214,17.963,36.931z"></path><rect x="0.034" y="24.232" width="44.588" height="3.019"></rect><polygon points="0.034,1.083 0.034,4.102 47.305,4.102 47.305,47.381 0.126,47.381 0.126,50.4 50.324,50.4 50.324,1.083 "></polygon></svg>