<svg height='100px' width='100px'  fill="#000000" xmlns="http://www.w3.org/2000/svg" viewBox="0 0 64 64" x="0px" y="0px"><title>Arcade-game-games-retro</title><polygon points="22 31 23.586 31 33.586 21 30.414 21 22 29.414 22 31"></polygon><rect x="18" y="37" width="28" height="6"></rect><path d="M39,49H25a1,1,0,0,0,0,2H39a1,1,0,0,0,0-2Z"></path><rect x="25" y="53" width="14" height="7"></rect><path d="M18,60h5V52.22A2.989,2.989,0,0,1,25,47H39a2.989,2.989,0,0,1,2,5.22V60h5V45H18Z"></path><path d="M40,30a1.993,1.993,0,0,1,1.722,1H42V23.414L34.414,31h3.864A1.993,1.993,0,0,1,40,30Z"></path><polygon points="22 26.586 27.586 21 22 21 22 26.586"></polygon><rect x="18" y="9" width="28" height="6"></rect><polygon points="16 4 16 7 17 7 47 7 48 7 48 4 16 4"></polygon><path d="M18,35h4V34h2v1h2V34h2v1H39V33.722A2.015,2.015,0,0,1,38.278,33H21a1,1,0,0,1-1-1V20a1,1,0,0,1,1-1H43a1,1,0,0,1,1,1V32a1,1,0,0,1-1,1H41.722a2.015,2.015,0,0,1-.722.722V35h5V17H18Z"></path><polygon points="41.586 21 36.414 21 26.414 31 31.586 31 41.586 21"></polygon></svg>