<svg height='100px' width='100px'  fill="#000000" xmlns="http://www.w3.org/2000/svg" data-name="Слой 1" viewBox="0 0 100 100" x="0px" y="0px"><title>cat footprint-01</title><g><path d="M87.70518,70.223c0.3384,2.51511-.245,4.9556-0.57031,7.40888-0.28323,2.136-.43681,4.3817-1.79752,6.14376-2.026,2.62355-4.08968,5.25758-7.45207,6.37925-1.38421.46176-2.447,1.7088-4.055,1.68233-3.3455-.055-6.634.10149-9.89557-1.30969a31.00338,31.00338,0,0,1-7.44647-4.95838c-2.9439-2.4394-5.78261-1.90447-8.51711.65228-1.82332,1.70482-3.47654,3.68551-5.78977,4.74545-3.90076,1.78735-7.76614,1.3052-11.59531-.43049-3.28892-1.4908-5.06844-4.40937-7.1135-7.116a12.56837,12.56837,0,0,1-2.30689-5.30362c-0.60013-3.05151.239-5.93058,0.94283-8.7949,0.74634-3.03714,2.66377-5.50639,4.6426-7.85655a72.96264,72.96264,0,0,1,5.67875-6.1503c1.98316-1.87079,4.38841-3.06957,6.65835-4.51105,2.833-1.799,6.09878-2.25135,9.01966-3.66015,0.91665-.44208,1.86931-0.15147,2.80125-0.25517,3.62216-.40309,7.28862-0.75395,10.87081.065a32.51784,32.51784,0,0,1,9.236,3.29863c2.36513,1.37153,4.89621,2.46013,7.239,3.86532A11.51472,11.51472,0,0,1,80.89323,56.747a30.74809,30.74809,0,0,1,5.81682,9.27778A38.68063,38.68063,0,0,1,87.70518,70.223ZM61.79335,68.75461c-0.2661.53735-.77448,1.08668,0.14582,1.52476,0.48492,0.23082.94511,0.95254,1.48787,0.21608a16.54714,16.54714,0,0,0,2.48628-4.47005,0.81809,0.81809,0,0,0-.06078-0.89441,0.75323,0.75323,0,0,0-.879.07272c-1.09489.51191-2.40247,0.79749-2.4205,2.41059a1.407,1.407,0,0,1-.35125.5523c0.05428-.44163.10665-0.88351,0.16333-1.32482,0.07066-.55016-0.26687-0.66924-0.6505-0.48523-1.84181.88345-3.75493,0.6601-5.662,0.3906-0.68-.09609-0.63362.4072-0.71091,0.73775-0.12278.52517,0.30138,0.41875,0.6067,0.39953a6.3395,6.3395,0,0,1,2.60121.59366C59.58062,68.856,60.63255,69.66,61.79335,68.75461Zm17.2202-3.82193a1.48917,1.48917,0,0,1-.62083-0.17946,23.06718,23.06718,0,0,1-3.74731-4.0486c-0.2897-.4652-0.52086-0.92925-1.33162-0.41508a0.93838,0.93838,0,0,0-.34411,1.5263,15.31868,15.31868,0,0,0,1.52,2.38566c1.21046,1.303,2.30455,2.71742,3.55124,3.98281a28.0371,28.0371,0,0,0,7.59876,5.53491c0.434,0.21385.72158,0.218,0.84494-.3991,0.37747-1.88807-.215-2.81864-1.92673-3.729a15.39492,15.39492,0,0,1-5.195-4.15988,1.31628,1.31628,0,0,1,1.10772.60522c1.42582,1.1407,2.7481,2.45231,4.54306,3.03376,0.27117,0.08783.67,0.486,0.86529-.13438a4.043,4.043,0,0,0-1.20117-3.12942,23.538,23.538,0,0,1-7.74419-6.35283c-0.33645-.43038-0.59728-1.61067-1.57232-0.91454-1.02343.73065,0.06423,1.41428,0.229,2.11531a2.74792,2.74792,0,0,0,.28009.28244C76.64314,62.48638,78.32132,63.32233,79.01355,64.93268Zm-28.01385,3.907c0.39881-2.04958,1.63664-3.799,2.07747-5.83649a15.86263,15.86263,0,0,0,.24318-6.03486,0.86872,0.86872,0,0,0-.56125-0.83911c-0.39062-.06977-0.43587.38914-0.59737,0.63471-0.52117.79245-.97276,1.63462-1.53758,2.39326a2.66538,2.66538,0,0,0-.48491,2.36981c0.4935,2.27249-.44335,4.24076-1.54944,6.138a8.154,8.154,0,0,1,.28671-1.39267,10.41189,10.41189,0,0,0,.65019-3.40415c-0.12707-1.13623-.49586-1.347-1.3786-0.62434a3.79441,3.79441,0,0,1,.05366-0.50062c0.27547-1.15134,1.31682-1.74952,1.95292-2.64458A22.26458,22.26458,0,0,0,53.9288,49.07685c0.07806-.5534.137-1.18066-0.72865-1.08391-1.6162.18061-3.22874,0.39566-4.84055,0.61276a0.87148,0.87148,0,0,0-.80756,1.14563,16.46655,16.46655,0,0,1-2.915,12.04406c-1.01646,1.39138-1.11851,2.46918-.03462,3.73549a0.5851,0.5851,0,0,0,.46938.39933,0.56119,0.56119,0,0,0,.37562-0.499,6.57617,6.57617,0,0,1,2.72932-3.21789,36.57772,36.57772,0,0,0-1.80146,3.195c-0.78441,1.178-1.11584,2.145-.35832,3.34449,0.25946,0.41082-.00917,1.15916.59361,1.25774,0.63548,0.10392.78309-.62846,1.1339-1.00792a0.69555,0.69555,0,0,1,.29013-0.04213,4.36129,4.36129,0,0,1-1.03816,1.96274,1.56541,1.56541,0,0,0,.51975,2.11195c0.48846,0.39041.97213-.30444,1.33948-0.7378a5.44289,5.44289,0,0,0,.84553-1.37081A4.13779,4.13779,0,0,1,51.028,68.79587a1.27584,1.27584,0,0,1-.21814,1.16113c-0.87748,1.3023-1.28734,2.9033-2.44407,4.00978a1.47674,1.47674,0,0,0-.09653,2.07615c0.51357,0.67018.953-.24292,1.38544-0.50441a5.48076,5.48076,0,0,0,.9686-0.93358c2.44173-2.50025,3.30594-5.85449,4.77629-8.87763a13.30444,13.30444,0,0,0,1.11347-3.02824,19.01119,19.01119,0,0,0-.61073-9.70255,3.31,3.31,0,0,0-1.46482-2.03732c-0.51484,2.01432-1.32931,3.6783-.69533,6.04693C54.85934,61.17985,53.41664,65.23657,50.9997,68.83971Zm-16.274-7.84438a12.88087,12.88087,0,0,0-.94968-4.1472c-0.07677-.26869-0.15823-0.63192-0.64681-0.45268-0.88014.32292-2.52051,2.82464-2.37682,3.75164a40.47848,40.47848,0,0,1,.66916,7.39324,61.627,61.627,0,0,1-2.28692,13.22352A18.51223,18.51223,0,0,1,27.7,84.91127c-0.81889,1.542-.85881,1.86263.56144,2.92311,1.30269,0.9727,1.54375.83634,2.08571-.758,0.25021-.736-0.09474-1.533.37268-2.20187a12.87239,12.87239,0,0,0,1.56539-3.7181c0.71964-2.34039,1.497-4.64991,2.007-7.06605a39.62544,39.62544,0,0,0,.97093-6.2318A20.176,20.176,0,0,0,34.72569,60.99533Zm24.96288,5.02628a5.3313,5.3313,0,0,0,2.21645-.55474c4.52106-1.47129,8.79489-3.34323,12.25736-6.80708,0.81127-.81154,1.26948-1.96892,2.45213-2.5,0.71362-.32041.59569-0.99688-0.17415-1.40826-0.914-.48843-1.81349-1.00537-2.70591-1.53259a1.28365,1.28365,0,0,0-1.86422.38256c-2.36335,2.93227-5.57068,4.82717-8.64391,6.85457a10.51842,10.51842,0,0,1-5.24881,1.96671,0.77031,0.77031,0,0,0-.81558.36728c-0.35126.96328-1.138,2.12534-.85354,2.86138,0.27948,0.72324,1.75576.37079,2.71138,0.44913A3.27339,3.27339,0,0,0,59.68858,66.02161Zm10.67873-2.78416a3.51549,3.51549,0,0,1,.15705.43253c0.5606,2.67268,2.44744,4.5573,4.0346,6.58484,1.29824,1.65842,3.14245,2.78337,4.734,4.15717a10.24543,10.24543,0,0,0,5.53142,2.73963c0.52316,0.06192,1.00552.2902,1.07785-.48226,0.06782-.72408.83261-1.5719-0.27737-2.12a29.38513,29.38513,0,0,1-4.81325-3.20908,38.32184,38.32184,0,0,1-8.3869-8.8714c-0.26187-.38421-0.39831-0.88164-0.98836-0.52868C70.92258,62.24759,70.20674,62.42867,70.36731,63.23745ZM47.90638,79.46909a14.33217,14.33217,0,0,0-1.26988-6.147,14.74741,14.74741,0,0,1-1.07727-2.76832c-0.506-2.24229-1.06562-4.40723-3.25376-5.67027a0.58736,0.58736,0,0,1-.12286-0.34693c-0.4343-2.12226-4.03163-5.2888-6.13707-5.40916-0.54548-.0312-0.86586.0642-0.74191,0.74513,0.20795,1.14254.34394,2.29815,0.5129,3.44786a0.47389,0.47389,0,0,0,.53762.47881c1.86586-.19893,2.93534,1.16918,3.88426,2.30742a25.55513,25.55513,0,0,1,4.794,10.41766A3.3901,3.3901,0,0,0,47.90638,79.46909ZM30.5694,64.76138c-0.11964-.93653-0.23015-1.87439-0.36472-2.80876a5.7079,5.7079,0,0,0-.22258-0.78091c-0.10424-.35348-0.18007-0.71784-0.71022-0.56262-1.03482.303-2.42236,2.857-2.16336,3.88509a21.45492,21.45492,0,0,1,.70186,7.739c-0.44632,3.8429-1.88916,7.49688-2.20788,11.384-0.062.75636-.01648,1.3685,0.52638,1.55223,0.663,0.2244.7998-.6449,1.1359-1.0644a2.07325,2.07325,0,0,0,.194-0.50314A42.1033,42.1033,0,0,0,29.32867,77.571C30.38469,73.35347,31.25952,69.13918,30.5694,64.76138ZM72.83005,84.11229c-0.26123,1.17465.63758,2.32564,0.91455,3.62915a2.63762,2.63762,0,0,0,1.29245,1.66778c1.27579,0.74093,2.19257-.2325,3.05387-0.78843,0.69451-.44825-0.22546-1.02923-0.41974-1.54074-1.54609-4.07006-2.69282-8.16384-.296-12.29264a1.02578,1.02578,0,0,0-.4308-1.62054,2.31759,2.31759,0,0,0-2.67739.5804,8.03709,8.03709,0,0,0-.892,1.66053A16.6513,16.6513,0,0,0,72.83005,84.11229ZM39.72194,79.54367c-1.41985.18138-2.84285,0.34155-4.25889,0.54916-2.08474.30565-2.74913,0.99677-3.22608,3.03113-0.19084.81389,0.05462,0.96361,0.77908,0.83639a49.142,49.142,0,0,1,5.55475-.89828c2.78419-.1676,5.60614-0.63935,8.16931.841,1.16484,0.67272,1.95791.09048,2.86478-.357,0.3724-.18375.39885-0.45338,0.10758-0.74933C48.1393,81.19827,46.673,79.49308,44.157,79.32528A29.57333,29.57333,0,0,0,39.72194,79.54367ZM59.04788,61.49538a11.87137,11.87137,0,0,0,4.4764-1.92683A30.09557,30.09557,0,0,0,70.89233,53.919c0.40581-.46457,1.17077-0.995.88666-1.55773-0.51427-1.01842-1.74-1.21632-2.72817-1.61527a1.30215,1.30215,0,0,0-1.55718.79517,16.25082,16.25082,0,0,1-3.65149,3.95868,10.69508,10.69508,0,0,1-5.11584,2.86059c-0.94582.18628-1.44224,1.25776-1.15884,2.68015C57.77579,62.08576,58.603,61.26819,59.04788,61.49538ZM44.44917,76.78675a30.01166,30.01166,0,0,0-3.08227-7.887,9.91581,9.91581,0,0,0-3.67154-3.69355c-0.63035-.41936-1.33231-0.60494-1.69467.25469-0.59574,1.41327-.04185,2.92233-0.171,4.3899-0.04.45465,0.82283,0.64257,1.29385,0.81118A5.14888,5.14888,0,0,1,39.822,72.97789a10.88832,10.88832,0,0,1,1.70936,4.49c0.03448,0.29974-.06148.81614,0.23252,0.85375a4.67589,4.67589,0,0,0,2.51947.02867C44.97089,78.03528,44.334,77.318,44.44917,76.78675Zm2.59633-24.977c-0.2893-2.42426-.28244-2.39437-2.06163-1.98613-0.53029.12168-1.01621,0.35683-1.53137,0.46951a1.041,1.041,0,0,0-.88346,1.55319,10.1284,10.1284,0,0,1-1.10758,7.523c-0.51391.95027-.5111,1.5018,0.25505,2.16506a4.06908,4.06908,0,0,1,.65446.85476c0.4756,0.71617.90814,0.76278,1.42679,0.01444A18.12891,18.12891,0,0,0,47.04551,51.80976ZM69.28787,82.05668c0.314-.04011.63019-0.06774,0.94155-0.12285,0.74761-.13232,1.61159.08025,1.57058-1.27554-0.03908-1.29093-.4813-1.85072-1.71893-1.814a17.23666,17.23666,0,0,0-10.62817,4.00986c-2.14459,1.75537-2.06662,2.12342-.20416,3.99534a0.79862,0.79862,0,0,0,1.42-.059A12.49715,12.49715,0,0,1,69.28787,82.05668Zm2.88125-4.86717a0.6851,0.6851,0,0,0-.80515-0.83822c-1.99943.06089-4.01691-.0214-5.99407,0.22221-3.57968.44107-6.60462,2.279-9.42481,4.37057-1.903,1.41131-1.76849,2.00892.18063,3.23363,0.74,0.46495,1.31333.53329,1.70566-.43188a4.1571,4.1571,0,0,1,1.53135-1.6538,29.55642,29.55642,0,0,1,8.25266-3.87277,4.42552,4.42552,0,0,1,3.30726.01757C71.92584,78.67175,72.30157,78.30059,72.16912,77.18951Zm0.00613,7.53074c-0.28273-2.21747-.598-2.46991-2.62992-2.13806a12.12555,12.12555,0,0,0-2.09119.54734,12.19856,12.19856,0,0,0-5.92845,3.8223c-0.58421.75784-.48919,1.29556,0.41929,1.67378,0.78839,0.32821,1.56243.69085,2.34332,1.037,0.34843,0.1545.66311,0.27265,0.88988-.21133,1.14688-2.4478,3.39974-3.3286,5.7949-3.56066C72.19036,85.77272,72.48142,85.61178,72.17526,84.72025Zm-41.1555,3.1306A16.07245,16.07245,0,0,1,35.271,86.63457c2.84766-.38917,5.66121-0.69254,8.24535,1.0142a0.90154,0.90154,0,0,0,1.03047.0345c0.91444-.66165,2.20071-1.48793,2.14961-2.42769-0.055-1.01107-1.51022-1.21384-2.6142-1.39678a29.30708,29.30708,0,0,0-8.49167.31924C33.42516,84.44675,31.62,85.19693,31.01975,87.85085ZM26.81617,67.88438a7.41473,7.41473,0,0,0-.19319-1.37705c-0.2044-.64255.12389-1.78457-0.728-1.818-0.87937-.03448-0.60375,1.2482-1.08068,1.82a1,1,0,0,0,.04759.52378A24.28512,24.28512,0,0,1,23.454,78.98144a3.57988,3.57988,0,0,0,.4485,3.338,0.73409,0.73409,0,0,0,.51332.57479,0.69245,0.69245,0,0,0,.57673-0.64509c0.30791-1.03393.5259-2.09544,0.85183-3.12307C27.00051,75.48083,27.69132,71.8005,26.81617,67.88438ZM58.9769,57.422a13.71379,13.71379,0,0,0,7.80868-5.96714c0.544-.78959.58068-1.49685-0.78261-1.94192-1.463-.47765-2.12417.13531-2.94673,1.0521-1.397,1.5571-2.60145,3.52113-4.71913,4.04577-1.582.39193-.85649,1.23716-0.84256,1.99215C57.5142,57.67005,58.2601,57.49142,58.9769,57.422ZM50.25766,76.17055a6.62827,6.62827,0,0,1,7.02223,1.18006c1.1469,0.98521,1.80773.88674,2.95284,0.14269,1.92024-1.24772,1.91705-1.089.30764-2.7923-1.48614-1.57287-3.32991-1.92344-5.33686-2.07526C52.77283,72.44184,51.6365,74.05439,50.25766,76.17055Zm26.872,5.74488c0.16717,2.03461.26446,3.78829,1.31219,5.33119a0.98857,0.98857,0,0,0,1.68082.23106c0.49993-.43287,1.51217-0.64392.82173-1.74294a10.33334,10.33334,0,0,1-1.513-4.592c-0.1395-1.52472-.22836-3.08214.93847-4.33066,0.329-.352.264-0.52194-0.06241-0.85977-1.26272-1.30707-2.24006-1.15094-2.96864.50987C76.50939,78.35315,76.93653,80.27441,77.12968,81.91542ZM37.7609,90.965A8.132,8.132,0,0,0,42,89.67063c0.36738-.23695,1.055-0.25031,1.04712-0.73671a1.34434,1.34434,0,0,0-1.15659-.97263,12.48052,12.48052,0,0,0-10.41091.91423c-0.77736.41348-.40371,0.756,0.15355,0.9673C33.65992,90.61125,35.68686,91.40489,37.7609,90.965ZM53.0105,72.22765a7.39055,7.39055,0,0,1,7.6791,1.69789c0.61949,0.58,1.28979,1.11269,1.85572,1.74019,0.31008,0.3438.46928,0.57855,0.74,0.02712a5.39654,5.39654,0,0,0-.58951-3.76472,11.69225,11.69225,0,0,0-5.429-3.25938c-2.20624-.55157-2.3504-0.43816-3.25986,1.61139C53.77323,70.807,53.48325,71.30892,53.0105,72.22765ZM42.15615,53.43986c-0.05706-.44664-0.09634-0.89645-0.17545-1.33915a0.71014,0.71014,0,0,0-1.08179-.61966c-0.93817.42331-1.83887,0.929-2.76143,1.38786a0.53107,0.53107,0,0,0-.32916.64991A10.43421,10.43421,0,0,1,37.63,57.67516c-0.22337,1.15469.72676,1.3996,1.43467,1.84a1.16139,1.16139,0,0,0,1.71566-.38494A6.84968,6.84968,0,0,0,42.15615,53.43986ZM64.5518,73.35555a5.904,5.904,0,0,0,3.355-2.9261c0.735-1.67449,1.318-3.41538,1.97753-5.1234a1.74219,1.74219,0,0,0-.48616-1.72369c-0.31849-.42529-0.80264-0.02585-1.22708.106a1.83642,1.83642,0,0,0-1.47377,1.77126c-0.26438,2.12716-1.70273,3.73374-2.91549,5.39266-0.59093.80833-.17575,1.42908,0.00866,2.14141C63.90321,73.429,64.18731,73.41108,64.5518,73.35555ZM66.25829,75.604c1.26838,0.11729,2.17823-.6323,3.09165-1.6083a8.80413,8.80413,0,0,0,2.34278-4.62454c0.11843-.67431-0.73869-3.39156-1.14113-3.27918-0.9764.2726-.42893,1.33377-0.8239,1.942a0.58943,0.58943,0,0,0-.07222.1146,8.94056,8.94056,0,0,1-5.13379,5.77612,1.04356,1.04356,0,0,0-.559,1.449c0.13745,0.72648.68766,0.38527,1.08592,0.37675C65.40847,75.74279,65.76693,75.6668,66.25829,75.604ZM84.4865,64.76947a0.72582,0.72582,0,0,0-.15187-0.80114c-1.03982-1.62044-2.157-3.19388-3.138-4.84843a12.77311,12.77311,0,0,0-2.38547-2.54564,1.06287,1.06287,0,0,0-1.665-.113,1.341,1.341,0,0,0-.29182,1.81161,17.9805,17.9805,0,0,0,5.42044,5.38263A4.11848,4.11848,0,0,0,84.4865,64.76947ZM39.61966,78.66578c0.9695,0.10764,1.24279-.44246,1.30393-1.294,0.14035-1.9537-1.952-5.07925-3.83608-5.56054a1.33005,1.33005,0,0,0-1.747.51541c-0.20428.50693-.8075,1.44588-0.1215,1.68133,1.91358,0.65684,2.18681,2.41768,2.89274,3.8491C38.49147,78.62718,38.82694,78.93266,39.61966,78.66578Zm11.191,0.28523a3.79963,3.79963,0,0,1,3.36876.59216,2.01284,2.01284,0,0,0,2.65557-.0584c1.065-.72128,1.12238-0.95419.16527-1.72723a8.21778,8.21778,0,0,0-8.04845-.48558,0.73932,0.73932,0,0,0-.284,1.02c0.12277,0.45688.18287,0.90957,0.821,0.828C49.89092,79.06847,50.29307,79.01713,50.81067,78.951ZM80.3436,81.80848a9.55839,9.55839,0,0,0,.78419,3.07826c0.16625,0.28525.2654,0.80477,0.8644,0.6224a1.64579,1.64579,0,0,0,1.06815-2.33362,4.827,4.827,0,0,1-.18441-4.28876c0.34438-.78688.33642-1.27411-0.57244-1.66-0.96445-.40953-1.3343.13323-1.66581,0.81075A6.44323,6.44323,0,0,0,80.3436,81.80848Zm-9.63486,5.004a5.65338,5.65338,0,0,0-4.61919,2.31914,0.68089,0.68089,0,0,0-.17.95873c0.441,0.5393,3.16178.90293,3.45086,0.367a3.16123,3.16123,0,0,1,2.16045-1.37427c0.516-.18238,1.37453-0.37269,1.50533-1.07575a1.637,1.637,0,0,0-.62019-1.148C71.87713,86.37443,71.20873,86.98735,70.70874,86.81248ZM58.58,53.8177a1.03548,1.03548,0,0,0,.44815-0.20477,15.04363,15.04363,0,0,0,3.72292-3.65982c0.21522-.36431.88529-0.84348,0.28185-1.20419a1.40586,1.40586,0,0,0-1.85011-.12934c-0.35469.34276-.69629,0.69908-1.05137,1.04144A5.96233,5.96233,0,0,1,57.492,51.41709c-0.40581.10249-1.30442-.02818-0.95675,0.88427C56.83775,53.09549,56.9743,54.17695,58.58,53.8177ZM72.71983,69.36134a15.86678,15.86678,0,0,1-3.12245,5.15756c-0.1725.17178-.47047,0.378-0.29138,0.65526a0.89088,0.89088,0,0,0,.59828.22059c2.56249,0.2545,2.56156.25031,3.62771-2.11752a1.109,1.109,0,0,1,.28531-0.444c1.52674-1.1206.72342-1.92987-.33837-2.72784A8.79371,8.79371,0,0,1,72.71983,69.36134ZM56.95606,50.80573a6.623,6.623,0,0,0,3.36639-2.11438c0.40438-.41924.11587-0.58737-0.31821-0.69517-1.742-.43263-3.45784.233-5.20377,0.12119-0.63788-.04082-0.20634.82309-0.37419,1.25153A0.70479,0.70479,0,0,0,54.74,50.40159C55.50634,50.61026,56.30687,50.69313,56.95606,50.80573ZM23.70152,68.85188c-1.12915,3.08524-1.93262,6.19812-1.43559,9.50075a0.41407,0.41407,0,0,0,.21009.44141c0.30652,0.0969.39264-.16265,0.45554-0.362A25.67247,25.67247,0,0,0,23.694,75.8462C24.164,73.52756,24.53426,71.19595,23.70152,68.85188Zm26.987,10.6484c-1.19987.16315-1.65492,0.78668-1.08,1.54a3.88383,3.88383,0,0,0,3.60666,1.66828c1.01041-.09169,1.06568-1.12488,1.62543-1.663,0.26831-.25795-0.04434-0.5593-0.26971-0.61771C53.28317,80.09411,52.09421,79.32907,50.6885,79.50029Zm-15.56918-.24807c0.39623-.07675.78948-0.17921,1.18919-0.22529,1.0972-.12646,1.19255-0.78236.83091-1.61588A4.512,4.512,0,0,0,35.575,75.4303c-0.40648-.2769-1.08527-0.43995-1.09641.26765a8.21441,8.21441,0,0,1-.58623,2.182C33.42841,79.523,33.39554,79.51371,35.11932,79.25222Zm48.04853,2.29014a8.44048,8.44048,0,0,0,.28357.94256,0.78312,0.78312,0,0,0,.4371.75416,0.73757,0.73757,0,0,0,.66122-0.566,8.84879,8.84879,0,0,0,.99679-3.56406c0.15087-.79585-0.61639-0.805-1.16511-0.98018-0.68311-.218-0.86143.1196-0.98368,0.68807A6.07593,6.07593,0,0,0,83.16785,81.54236ZM37.27263,55.39929c-0.1902-1.66207-.44429-1.72274-1.82818-0.95315-1.14024.63408-1.01293,1.42973-.80751,2.47377,0.20425,1.03821.90666,0.87309,1.59037,0.99748,0.86759,0.15784.80689-.54256,0.95669-0.9805A2.66044,2.66044,0,0,0,37.27263,55.39929ZM70.13906,90.86912c0.94256,0.01191,1.65939.04,2.37522,0.02342a13.4406,13.4406,0,0,0,1.48082-.13636c0.24838-.0335.60148,0.03558,0.67209-0.30645a0.65956,0.65956,0,0,0-.45827-0.59182C73.55529,89.34109,71.14438,89.84339,70.13906,90.86912Z"></path><path d="M78.78245,16.05019a19.434,19.434,0,0,1-2.78,11.55241,15.91257,15.91257,0,0,1-3.50925,4.33645,10.50713,10.50713,0,0,1-8.12489,2.10757,21.71585,21.71585,0,0,1-2.60421-.47249c-0.784-.17992-1.45688-1.29049-1.96972-2.12106-1.49192-2.41633-1.26519-5.10642-.9688-7.76156a17.26023,17.26023,0,0,1,1.96087-7.10036c1.57535-2.63972,2.79757-5.63028,5.71808-7.15577,2.87912-1.50389,5.99719-2.28266,8.96351-.51206a6.9473,6.9473,0,0,1,3.24073,5.7773C78.7364,15.15029,78.758,15.60033,78.78245,16.05019ZM68.13678,20.1321a5.34546,5.34546,0,0,0,.22616.90284,12.42092,12.42092,0,0,0,4.74773,5.172c1.1501,0.77322,3.21089-.63532,3.22425-2.03381,0.004-.42054-0.25521-0.3438-0.51211-0.41937A6.08955,6.08955,0,0,1,71.40357,19.601a14.114,14.114,0,0,1-.4654-3.752,23.7997,23.7997,0,0,1,.44523-5.38272c0.14133-.69779.28456-1.38182-0.9451-0.90508-1.62271.62912-2.11333,1.37393-2.34314,3.62524A23.72989,23.72989,0,0,0,68.13678,20.1321Zm3.5174-2.333a11.00306,11.00306,0,0,0,.96159,2.56257,4.37762,4.37762,0,0,0,3.29539,2.46867c1.11338,0.13281.9411-.70228,1.16995-1.26149,0.16188-.3954.17142-0.69017-0.40867-0.69564-1.76659-.01663-2.3422-1.29385-2.71891-2.69575a12.14819,12.14819,0,0,1,.05046-7.302,0.80783,0.80783,0,0,0-.57951-1.22094c-0.73306-.25511-0.80357.24466-0.97437,0.72754A18.83007,18.83007,0,0,0,71.65418,17.79912Zm-3.4595,14.75606c2.21635-.25487,3.44348-1.03838,3.43518-2.3445-0.01352-2.12954.57249-4.50083-1.911-5.85815A1.82189,1.82189,0,0,1,69.1458,23.618c-0.18835-.338-0.40023-0.69264-0.81192-0.46979a0.74106,0.74106,0,0,0-.23258,1.069C69.47367,26.94278,69.10153,29.696,68.19467,32.55518Zm-6.58305-9.4336a4.80053,4.80053,0,0,0-.9012.124c-1.28791.35639-.77983,1.50449-0.8244,2.27615-0.04134.7158,0.7542,0.41431,1.18189,0.35226a15.018,15.018,0,0,0,3.751-1.03562,12.67811,12.67811,0,0,0,3.00429-1.76389c0.91107-.73274.19046-1.42307-0.10714-2.02855-0.39834-.81043-0.79031-0.0094-1.13159.172C65.09113,22.01179,63.73628,23.13,61.61162,23.12158ZM75.34311,10.87293a8.9592,8.9592,0,0,0-1.07085,5.05323,4.957,4.957,0,0,0,1.47393,3.6692c0.73557,0.675,1.61192.60894,1.82325-.21931a2.97955,2.97955,0,0,0-.04715-2.13584,10.82245,10.82245,0,0,1-1.338-5.22843A1.61136,1.61136,0,0,0,75.34311,10.87293ZM65.51517,27.96785c-0.04-.31327-0.07909-0.62669-0.12026-0.93981-0.10214-.77706-0.38841-1.31042-1.3216-1.02658-0.733.22295-1.72361,0.13121-1.38481,1.44412a10.02865,10.02865,0,0,1-.11143,4.15226c-0.07922.48808-.1056,0.971,0.51306,1.01729,0.50464,0.03779.99788,0.473,1.54769-.2308A5.54084,5.54084,0,0,0,65.51517,27.96785Zm1.62906-9.8679a5.45188,5.45188,0,0,1-5.47561,1.17976,0.56285,0.56285,0,0,0-.744.40982c-0.18134.64913-.38353,1.29594-0.50641,1.95683-0.1017.54679,0.2818,0.70709,0.74507,0.67638a11.77373,11.77373,0,0,0,5.36742-1.58268A1.63392,1.63392,0,0,0,67.14422,18.09995Zm1.443,9.6597c-0.29306-.84971-0.55664-1.71136-0.89337-2.54341-0.1402-.3464-0.0277-1.143-0.716-0.84233-0.53443.23342-1.36712,0.42883-1.21047,1.37469a17.50891,17.50891,0,0,1,.29146,2.0053,12.264,12.264,0,0,1-.15246,4.4689c-0.075.232-.41894,0.457-0.14634,0.69549a0.59328,0.59328,0,0,0,.8428-0.16311C67.86863,31.34156,68.84368,29.80393,68.58721,27.75965ZM67.51208,14.08343c-1.66989,1.153-3.04648,2.20832-4.86219,2.42381-0.60261.0715-.78256,0.81909-1.00515,1.34468-0.13172.311,0.16682,0.45274,0.43415,0.5555a4.77312,4.77312,0,0,0,4.78384-.88767C68.00777,16.6645,67.32963,15.41714,67.51208,14.08343Zm-4.31348,1.28789c3.75511-.98989,4.28643-1.553,4.66584-4.92207A7.80684,7.80684,0,0,0,63.19861,15.37132ZM59.71073,28.04407c0.32313,1.00527.592,1.95141,0.93914,2.86795a1.01043,1.01043,0,0,0,.91217.69469,0.47633,0.47633,0,0,0,.53571-0.47694,18.13206,18.13206,0,0,0,.05443-3.335c-0.12692-.881-0.97081-1.07288-1.8108-0.94295C59.53721,26.97616,59.812,27.653,59.71073,28.04407Zm12.58053,2.15327c1.05517-.42068,1.45308-1.43818,2.09857-2.20612,0.18472-.21975.21465-0.43235-0.1658-0.6075-1.36478-.62835-2.06848-0.25959-2.00639,1.18291A3.15515,3.15515,0,0,0,72.29126,30.19734Z"></path><path d="M22.06529,56.35642c-5.48931.61255-9.26257-1.44886-12.40582-5.19581A22.8776,22.8776,0,0,1,5.43616,43.8667c-0.8995-2.59348-.49625-5.67164,1.32342-7.29584A7.38416,7.38416,0,0,1,14.40253,35.258,19.8251,19.8251,0,0,1,26.58188,46.87556a3.5192,3.5192,0,0,1,.09,1.74111c-0.23674,2.38722-.59147,4.72643-2.33381,6.61093A3.57587,3.57587,0,0,1,22.06529,56.35642ZM16.8582,38.305a0.945,0.945,0,0,0,.07851-0.21552c0.14195-.97291-0.74075-1.03531-1.22311-1.05271-0.89993-.03244-0.16419.60548-0.22628,0.93858-0.11473.61594-.20366,1.24072-0.3748,1.84146a21.89749,21.89749,0,0,1-5.0129,8.38355c-0.38415.43684-.93907,0.80685-0.26653,1.54836a1.2363,1.2363,0,0,0,1.87927.07224,11.53587,11.53587,0,0,0,3.78949-4.3885C16.63537,43.25722,17.57538,40.9257,16.8582,38.305Zm5.47948,10.55017a7.572,7.572,0,0,0-.01092,4.29468,1.2344,1.2344,0,0,0,.94638.87845,0.88979,0.88979,0,0,0,.91993-0.65266,12.232,12.232,0,0,0,1.38282-4.61436c0.079-.65912-0.11388-1.1853-0.99157-0.95389-1.16845.30808-2.35566,0.54968-3.51364,0.89158-1.94794.57511-2.46186,1.57425-2.48757,3.625-0.01684,1.3445,1.52341,1.63575,1.5271,2.8367a5.84329,5.84329,0,0,0,2.33289-.36058C20.9223,52.4947,20.82942,49.81535,22.33768,48.85521ZM14.62391,38.35768c-0.17333-.54557-0.34193-1.14927-0.55814-1.73541a0.98275,0.98275,0,0,0-1.1458-.46589c-0.5349-.00934-0.64342.3519-0.65333,0.817a13.60952,13.60952,0,0,1-4.2418,9.30558,0.70988,0.70988,0,0,0-.12065,1.10773c0.68128,0.9585,1.38416.64643,2.01348,0.03781a15.309,15.309,0,0,0,3.57749-5.03687C14.02676,41.12191,14.78887,39.88813,14.62391,38.35768Zm5.02,9.82825c1.76825,0.01234,3.16829-.76576,4.69373-0.95572,0.36142-.045.87887-0.157,0.80539-0.553a3.182,3.182,0,0,0-.74217-1.97254c-0.41508-.36461-0.74383.09307-1.04524,0.32785A6.33367,6.33367,0,0,1,17.257,46.25733c-0.642-.20048-1.45295-0.49471-1.68041.466-0.2237.9449,0.67471,1.20171,1.31448,1.3745A6.08242,6.08242,0,0,0,19.6439,48.18593Zm-8.22481-10.6424c-0.1181-.67359-0.09386-1.415-1.04685-1.29429-0.82758.10483-.926,0.6412-0.82745,1.37422a7.06392,7.06392,0,0,1-.99343,3.84314C8.07013,42.5482,6.662,43.23923,7.12474,44.7372c0.08075,0.26137-.54953.5082-0.13746,0.79532a0.77888,0.77888,0,0,0,.94323-0.32712A10.14294,10.14294,0,0,0,11.41909,37.54353Zm6.97134,11.73875c-2.11983-.32408-3.59989,1.10043-3.79284,3.65067-0.09861,1.303,1.45034,2.04195,4.16072,1.98489C17.93828,53.41578,17.58027,53.03745,18.39043,49.28228Zm1.815-3.41522a10.553,10.553,0,0,0,3.17536-1.45113,0.68524,0.68524,0,0,0,.09264-1.22131c-0.457-.42092-0.57285-1.529-1.586-0.87674a4.69614,4.69614,0,0,1-4.03067.92818c-0.90469-.258-0.89127.662-1.1375,1.18479-0.27978.594,0.14195,0.81554,0.5871,0.96326A8.71517,8.71517,0,0,0,20.20543,45.86706Zm-0.4277-3.21494c0.27919-.1131.78513-0.29641,1.2723-0.52045,0.756-.34767,1.14265-0.72932.18663-1.36771-0.66664-.44517-1.24293-1.02345-1.88176-1.51332-0.37329-.28628-0.7041-0.86876-1.23271-0.624-0.421.19485-.049,0.73359-0.12247,1.11416-0.085.44017-.123,0.88926-0.18632,1.33376C17.62168,42.42151,18.13065,42.89842,19.77773,42.65212ZM14.7395,48.14943a14.17711,14.17711,0,0,0-3.17565,2.82495,0.76424,0.76424,0,0,0,.32494.823c0.391,0.371.801,0.7225,1.21094,1.07288,0.4836,0.41334.86061,0.29416,0.95583-.31351a5.93588,5.93588,0,0,1,1.443-3.14128,0.51916,0.51916,0,0,0,.129-0.72086A1.18226,1.18226,0,0,0,14.7395,48.14943ZM8.74174,37.877a0.69958,0.69958,0,0,0-.42021-0.763,0.73469,0.73469,0,0,0-.67414.36786,6.2972,6.2972,0,0,0-1.25391,4.68743c0.03161,0.79473.60643,0.29671,0.82315,0.05381A6.41426,6.41426,0,0,0,8.74174,37.877Z"></path><path d="M27.94235,23.69212a12.60877,12.60877,0,0,1,.66734-6.70422c1.80031-4.54328,6.40109-6.15753,10.65493-3.533A15.40434,15.40434,0,0,1,45.515,21.47123a26.41434,26.41434,0,0,1,1.706,7.17949c0.486,5.43551-4.85288,10.62856-10.79844,8.66473a9.0004,9.0004,0,0,1-4.45475-3.97288A23.39354,23.39354,0,0,1,27.94235,23.69212ZM42.36277,31.1775c-0.08194,1.94732-1.51263,3.239-2.52622,4.898a3.97554,3.97554,0,0,0,2.41062-.639,7.69076,7.69076,0,0,0,3.74094-7.5436,17.73241,17.73241,0,0,0-1.6919-6.33669C44.183,21.324,44.102,20.96743,43.7725,21.036c-0.39213.08166-.34957,0.45747-0.32192,0.7686,0.0199,0.2241.08427,0.44463,0.09913,0.66873,0.16916,2.55279.53247,5.1266-.77538,7.52743A18.31915,18.31915,0,0,0,42.686,22.633c-0.06718-.23683.05706-0.56952-0.34616-0.61182-0.62141-.0652-2.099,1.50527-2.09776,2.15829,0.00347,1.84307.03541,3.69976-1.06659,5.32629q0.2293-2.21571.459-4.43137c0.05616-.53834-0.09-1.19647-0.60588-1.166-0.57982.0343-1.49578,0.1443-1.54615,0.9927-0.16944,2.85359-1.85717,5.006-3.206,7.32668-0.23.39578-1.194,0.43524-.66944,1.19212a8.37877,8.37877,0,0,0,1.18483,1.28336c0.18388,0.17264.58167,0.359,0.69755,0.04225,0.499-1.36376,2.18369-1.71717,2.58923-3.19027a10.33086,10.33086,0,0,1,1.138-2.10649C39.15344,31.6599,37.61693,33.1692,36.599,34.924c-0.14963.25791-.735,0.32231-0.27783,0.81051a1.67824,1.67824,0,0,0,2.93547-.58143,1.397,1.397,0,0,1,.4859-0.78153A9.19084,9.19084,0,0,0,42.36277,31.1775ZM31.54672,21.44715l0.00886,0.04372c1.41606-.29585,2.85525-0.51081,4.2426-0.90719a10.528,10.528,0,0,0,5.14026-2.82749,0.98052,0.98052,0,0,0,.48492-0.90045,2.53937,2.53937,0,0,0-3.57314-1.42367,25.50109,25.50109,0,0,1-2.46695,1.64538c-1.76956.97836-3.53509,2.03413-5.69913,1.73647a0.5824,0.5824,0,0,0-.75595.392,4.60916,4.60916,0,0,0,.084,1.98188c0.1979,0.51756.90537,0.46928,1.45711,0.39723C30.82829,21.53809,31.18756,21.493,31.54672,21.44715ZM34.22221,24.4a16.74588,16.74588,0,0,0,6.73343-2.10317c2.6715-1.26562,2.93191-2.16676,1.65045-3.95984-0.46266-.64737-0.79032-0.64814-1.3767-0.12466a11.6735,11.6735,0,0,1-2.50987,1.79177A27.424,27.424,0,0,1,29.95,22.42656c-0.32587.04462-.78308-0.04122-0.88008,0.43847-0.09588.4741,0.25478,0.60231,0.59951,0.86335C31.07816,24.79523,32.60809,24.69455,34.22221,24.4Zm0.74188,0.62681c-0.3509.39257-1.55277-.1993-1.43449,0.76772a6.71342,6.71342,0,0,1-1.3031,5.04037,0.73955,0.73955,0,0,0,.21537,1.05592,0.52212,0.52212,0,0,0,.81593.06582,8.8283,8.8283,0,0,0,3.34451-5.64885C36.82254,24.9453,36.48564,24.75832,34.96408,25.02683Zm3.4547-10.63908c-1.05409-.71358-1.82607-0.93689-2.79029.08637a4.55313,4.55313,0,0,1-4.05092,1.43857,1.4228,1.4228,0,0,0-1.76536.78313c-0.18866.3932-.57092,0.95453-0.17493,1.23487a2.31118,2.31118,0,0,0,1.96221.20447A18.142,18.142,0,0,0,38.41878,14.38775Zm-5.31,12.32028a1.47356,1.47356,0,0,0-.614-1.26933,16.54913,16.54913,0,0,0-2.4856-.586c-0.55246-.11022-0.609.21838-0.49134,0.64687a18.13834,18.13834,0,0,0,1.60483,3.98884c0.1384,0.25042.40425,0.64614,0.7037,0.20079C32.41253,28.8174,33.3397,28.08434,33.10874,26.708Zm2.26531-13.06062c-1.14646-.59292-2.08486.30361-3.12066,0.38254-0.39947.03044-.30319,0.50629-0.319,0.79128-0.02154.38965,0.33911,0.34813,0.58013,0.35562A2.71189,2.71189,0,0,0,35.37406,13.64742Z"></path><path d="M86.05024,48.12385a6.883,6.883,0,0,1-4.35218-.39171c-1.86222-.65215-3.157-3.41265-2.84831-5.62724,0.4135-2.96644,2.18806-5.182,3.95-7.42486,2.16729-2.75886,5.19273-3.08021,8.24664-2.55783,3.33562,0.57053,4.616,4.30735,3.68143,7.14725a26.04711,26.04711,0,0,1-3.10092,5.79548A6.453,6.453,0,0,1,86.05024,48.12385Zm5.906-10.227a1.6048,1.6048,0,0,1,1.11335-1.03034c0.80765-.5442.66161-1.05617,0.27619-1.8136-0.47648-.93635-0.97409-0.48141-1.50552-0.20407-0.63188.32972-1.23867,0.70756-1.87025,1.03788a2.16616,2.16616,0,0,0-1.35614,2.32c0.08651,1.10049.36706,1.19374,1.31659,0.78853,0.74-.31578,1.17507-1.14,2.063-1.14879a13.631,13.631,0,0,1-3.32752,2.58894,0.98527,0.98527,0,0,0-.605.95772c0.06943,0.47624.5992,0.261,0.88629,0.42013,0.92463,0.51251,1.58872-.41329,2.50505-0.4777-1.429,1.291-1.55211,1.33877-3.28093,1.41143-1.25355.05268-.93963,1.23727-1.32035,1.903-0.27508.48094,0.27654,0.57046,0.58452,0.68274a5.56614,5.56614,0,0,0,3.61749-1.049,19.95674,19.95674,0,0,0,2.54722-4.86363c0.24262-.7549.73171-1.69729,0.08315-2.24451C93.141,36.71808,92.6014,37.76041,91.95625,37.89688Zm-7.98841,6.23907c0.14037-1.4792.28477-2.95805,0.41986-4.43774a5.9386,5.9386,0,0,0-.86793-3.9195c-0.61518,1.12321-2.00421,1.72845-1.82045,2.88674a22.04415,22.04415,0,0,1-.21186,6.81345c-0.04654.31146-.23193,0.75776,0.24772,0.94368a0.74463,0.74463,0,0,0,.89627-0.42708c0.46084-.63268.9115-1.27279,1.36632-1.90987a11.16518,11.16518,0,0,0-.54125,1.63989,0.994,0.994,0,0,0,.3519,1.2072,1.01171,1.01171,0,0,0,1.24347-.22049,5.15945,5.15945,0,0,0,.828-1.0506,18.13667,18.13667,0,0,0,1.73066-4.52624c0.4536-2.06649.81144-4.17522-.17053-6.21056-0.28034-.58108-0.6043-1.483-1.43262-0.96083-0.71161.44861-1.93434,0.65676-1.50074,2.13249A12.362,12.362,0,0,1,83.96784,44.13595Zm5.31894-8.40709a10.88675,10.88675,0,0,0,2.36555-1.27539,0.5944,0.5944,0,0,0,.45751-0.5946,0.715,0.715,0,0,0-.63277-0.42282,8.59229,8.59229,0,0,0-2.51118-.35459c-0.53273.00841-1.40157,0.29471-1.15279,0.63085C88.29832,34.36788,87.86786,35.79977,89.28678,35.72886Zm-7.84236,5.69435c-0.0875-.58786-0.08354-1.29523-0.59226-1.34217-0.57883-.05343-0.59.68291-0.728,1.13521a19.99374,19.99374,0,0,1-.42655,2.49485,1.02752,1.02752,0,0,0,.81812,1.22913c0.57282,0.15551.51166-.48938,0.65218-0.82489A9.85789,9.85789,0,0,0,81.44442,41.42321Z"></path></g></svg>