<svg height='100px' width='100px'  fill="#000000" xmlns="http://www.w3.org/2000/svg" viewBox="0 0 64 64" x="0px" y="0px"><g><path d="M33,54H31a1,1,0,0,0,0,2h2a1,1,0,0,0,0-2Z"></path><path d="M61,20H59.905L59,10.9A1,1,0,0,0,58,10H54a1,1,0,0,0-.995.9L52.1,20H51a1,1,0,0,0-1,1v4a1,1,0,0,0,1,1h1.978C52.532,45.133,39.5,47.754,38,47.989V43h2a1,1,0,0,0,1-1V38a1,1,0,0,0-1-1H36.46A5.977,5.977,0,0,0,35,27.812V23h2a3,3,0,0,0,3-3V18a1,1,0,0,0-1-1H35V13h1a1,1,0,0,0,.977-.783l2-9A1,1,0,0,0,38,2H26a1,1,0,0,0-.977,1.217l2,9A1,1,0,0,0,28,13h1v4H25a1,1,0,0,0-1,1v2a3,3,0,0,0,3,3h2v4.812A5.977,5.977,0,0,0,27.54,37H24a1,1,0,0,0-1,1v4a1,1,0,0,0,1,1h2v4.989C24.5,47.752,11.468,45.126,11.022,26H13a1,1,0,0,0,1-1V21a1,1,0,0,0-1-1h-1.1L11,10.9A1,1,0,0,0,10,10H6a1,1,0,0,0-1,.9L4.1,20H3a1,1,0,0,0-1,1v4a1,1,0,0,0,1,1H4.959c-.069,4.417.856,21,17.861,26.659a12.206,12.206,0,0,0-.8,4.324,7.693,7.693,0,0,0,1.609,4.378A1.923,1.923,0,0,0,25.014,62H39c2.219,0,2.979-3.938,2.983-4.994a11.443,11.443,0,0,0-.782-4.353C58.185,46.983,59.11,30.415,59.041,26H61a1,1,0,0,0,1-1V21A1,1,0,0,0,61,20Zm-6.095-8H57.1l.8,8h-3.79ZM28.8,11l-.667-3H31a1,1,0,0,0,0-2H27.691l-.444-2h9.506L35.2,11ZM33,13v4H31V13Zm-6,8a1,1,0,0,1-1-1V19H38v1a1,1,0,0,1-1,1Zm6,2v4.09a5.6,5.6,0,0,0-2,0V23Zm-1,6a4,4,0,1,1-4,4A4,4,0,0,1,32,29ZM25,41V39H39v2ZM6.905,12H9.1l.8,8H6.105ZM4,24V22h8v2Zm2.944,2H9.011c.406,18.168,11.842,22.716,15.644,23.727a9.334,9.334,0,0,0-.905,1.138C7.414,45.626,6.819,29.988,6.944,26ZM39,60H25.092a5.8,5.8,0,0,1-1.075-2.984c0-.352.029-.687.06-1.016H27a1,1,0,0,0,0-2H24.463a7.608,7.608,0,0,1,3.1-4.176A1,1,0,0,0,28,49V43h8v6a1,1,0,0,0,.434.824A7.708,7.708,0,0,1,39.565,54H37a1,1,0,0,0,0,2h2.941c.026.324.044.652.042.995A6.011,6.011,0,0,1,39,60Zm1.257-9.138a9.575,9.575,0,0,0-.9-1.124,19.3,19.3,0,0,0,7.272-3.712c3.708-3.013,8.108-8.917,8.358-20.026h2.057C57.125,29.95,56.385,45.676,40.257,50.862ZM60,24H52V22h8Z"></path><path d="M51,5a3,3,0,1,0-3,3A3,3,0,0,0,51,5ZM47,5a1,1,0,1,1,1,1A1,1,0,0,1,47,5Z"></path><path d="M21,13a3,3,0,1,0-3,3A3,3,0,0,0,21,13Zm-4,0a1,1,0,1,1,1,1A1,1,0,0,1,17,13Z"></path></g></svg>