<svg height='100px' width='100px'  fill="#000000" xmlns="http://www.w3.org/2000/svg" xmlns:xlink="http://www.w3.org/1999/xlink" version="1.1" x="0px" y="0px" viewBox="0 0 100 100" style="enable-background:new 0 0 100 100;" xml:space="preserve"><path d="M93.9,83.6l-0.4-1.3l0.1,0l-0.1,0l-0.1-0.2c0,0,0-1.3-9.8-1.9c0,0-3.4-0.1-7.8-0.3l0.1-0.1l0.1-0.1l0.3-0.7l1.7-3.7  l-0.2-0.1l0.3-0.8c3.1,1.9,5.5,1.8,5.5,1.8C83.4,71.5,68.8,53,68.8,53c-0.4,0.4-0.6,0.9-0.8,1.4c-0.7-1.6-1-3.7-1.1-5.4l1.2,0.4  c0.2,0.1,0.3,0.1,0.3,0.1l0,0l0.2,0.1v-1.3L68.3,48L68,37.2l-1.9-15.2c-0.3,0.1-0.7,0.3-1,0.5l0.1-0.2c0,0,1.6-11-1-13.4L48.4,7.9  V7.2l-4.9,0.7c0,0-9.7-0.1-10.4-0.4l-0.1,1.2c0,0-0.4,0-1.5,0.1L30.9,13c0,0,3.6,2.5,16.6,2.5c12.4,0,15-0.7,16-0.6  c0.4,0.5,1,2.1,0.9,5.8l0.1,0c0,0.6,0,1.3,0,1.9l0,0.2c-2.1,1.8-3.4,5.4-4.1,8.4c-4.1-0.9-13-2.9-14.3-3c-1.8-0.1-9.4-2.4-10.4-2.8  c-1-0.4-9-4.3-9.2-4.5c0,0-3,3.4-2.8,4.3c0,0-6.7,5.7-7.6,8.2c-0.9,2.5-2.2,4.8-1.3,10.4l-0.7,1.2l-2.8-1l7.3,38.5l1,0l1.6,9.3  l2.7,0.1l0.4-0.3l0.7-0.1l-0.5-9.2l0.5,0l0-0.4H25l-0.9-27.6l2.2-1.8c0.7,0.4,9.2,5,14,13.5c4.9,8.8,8.4,16.3,12.8,17.1l2.7,8.8  c0,0,0,0,0.1,0l-0.3,1c15.7,4.3,33.4-1.5,33.4-1.5V91c0.1,0,0.2-0.1,0.3-0.1c0,0,2.4-5.1,2.1-6.7L93.9,83.6z M23.9,54.9l-0.1,0.8  l-0.3,2.1l0.1,2.6l0.3-0.4L24,72.9l0.3,8.4H24l0,0.4l0,0.3l0-0.3l0-0.4h-0.5c-0.6-8.6-1.7-23.9-1.9-26.9l-0.4,0l0,0l0,0l0.4-0.2  c0,0,0,0,0,0l3.2-2.2l0.6,0.6l-1.9,1.5L24,54l0.1,0l0,0.1L23.9,54.9z M23.8,91l-0.3,0l-0.2-3.2l-0.2,3.5L22.9,83h0.7l-0.1,2L23.8,91  z M58.7,69.2c0.5,0,1.5-0.4,2.8-1c0,0,0,0,0,0c1.7-0.4,6.6-3.4,8.3-4.5c1.6,3.2,3.5,5.9,3.5,5.9c0.4,0.6,0.9,1.1,1.3,1.5  c-0.7,1-2.1,3.1-2.7,4.6c-0.7,1.1-1.4,2.4-2.1,3.5c-3.8-0.3-7.3-0.8-9.3-1.5c-2.1-0.7-3.8-1.6-5.3-2.8c-0.8-0.7-1.9-1.9-3-3.1  c2.1-0.9,4.5-1.9,6.3-2.6C58.5,69.2,58.6,69.2,58.7,69.2z M77,74.9l0.1,0L77,74.9l-0.2,0.2L71,79.2l1.3-2.1l-1.3,0.4l-0.1,0l0.2-0.4  l1.3-2.3l2.1-0.3L73,76.2l3.9-1.3L77,74.9z M53.8,74.7c1.1,1.1,3.4,3.1,5.3,3.5c0.5,0.1,1.1,0.2,1.7,0.3c2.7,0.5,6.1,0.9,6.1,0.9H65  h-2.2c2.1,0.4,4.3,0.7,6.3,0.9c-0.3,0.5-0.5,1-0.8,1.5c-5.7-0.7-10.7-1.6-12.7-2.6c-2.5-1.2-4.6-4.1-6-6.6c0.5-0.2,1-0.4,1.5-0.7  C52.1,72.9,53,73.9,53.8,74.7z M47.9,69c-0.1-0.3-0.2-0.5-0.2-0.5c-3-7-8.4-12.6-13.3-16.5c-4.7-3.2-12.2-8.1-14.2-8.5  c0,0,0-0.1,0-0.3c-0.1-0.1-0.3-0.1-0.3-0.2l-0.4-0.8l1.1,0.4l0.1,0c0.6,0.1,1.2,0.3,1.8,0.4c0.4,0.1,0.9,0.3,1.3,0.4  c6.1,2.2,11.7,7.5,15.6,11.8c5,5.7,8.5,11.4,8.9,12.6c0.1,0.2,0.2,0.5,0.4,0.8C48.4,68.8,48.1,68.9,47.9,69z M21.1,29.5  c-1.4,1.8-1.5,3.4-1.5,4.6c0.1-0.1,0.1-0.2,0.1-0.2c-0.1,0.2-0.1,0.4-0.1,0.6c0,0.1,0,0.2,0,0.3c0,0.2,0,0.5,0,0.7  c0,0.6,0.6,2.2,1.3,3.8c0.6,1.2,1.3,2.3,1.7,2.8c0.1,0.2,0.2,0.3,0.2,0.3c0,0-0.1-0.1-0.1-0.1c-0.2-0.2-0.5-0.4-0.7-0.6  c0.1,0.2,0.2,0.3,0.2,0.5c-1.5-0.8-3.1-1.3-3.6-1.5c-1.1-3.6-0.8-5.4-0.8-5.5l0,0C18.1,32.8,19.7,30.8,21.1,29.5L21.1,29.5z   M92.4,81.5c0.1,0,0.1,0.1,0.2,0.1c0,0.1-0.1,0.2-0.3,0.3c-0.2,0.1-0.5,0.2-0.5,0.2C90,83,80.4,83,80.4,83c1.7-0.1,3-0.2,3.9-0.3  c-0.6,0-1.2,0-1.8,0h0c-3,0-6.2-0.2-9.5-0.4c0.2-0.5,0.5-1,0.8-1.6c0.6,0,0.9,0,1,0c0.9,0,1.9,0,2.8,0c4.3,0,7.4,0.2,9.6,0.5  c-0.1-0.1-0.1-0.1-0.1-0.1s1.6,0.1,3,0.2c0,0,0,0,0,0c0.9,0.1,1.6,0.1,2,0.2C92.3,81.4,92.3,81.5,92.4,81.5z M70.1,56.1l7.5,10.4  l-8.1-9.7C69.5,56.9,69.5,55.2,70.1,56.1z M70.3,62.5l-1.2,0.6l-9.2,4.6l2.4-2.2l-11.2,5.2l-0.3,0.2l-0.1,0.1l0.1-0.1l0.3-0.2  l9.7-6.1l-1,0.2l-1.1,0.2l-1.4,0.3l0.2-0.1l3.1-1.6l0.4,0.2l0,0l0.5,0.2l1.9,0.9l5.6-2L70.3,62.5z M67.4,48.2l0.2,0.2l-0.2-0.1  L67.4,48.2z M47.6,12.8c3.1,0,15.7,0.4,16.7,0.9c0.2,0.2,0.2,0.9,0.3,2c-0.4-1.2-0.9-1.6-1-1.7L63.5,14l-0.1,0  c-0.1,0-11.4,0.7-15.9,0.7c-3,0-8.6-0.9-12.2-1.6C39.5,13,46.2,12.8,47.6,12.8z M46.6,9.4l-1.9,0.9h8.5l-1.2,0.7l7.3,0.3l-13.1,0.4  l2.1-0.9L41,10.8l0.9-0.6l-7.8-0.6L46.6,9.4z M65.5,24.3L67.3,36l-3.4-9.8C63.9,26.1,64.6,24,65.5,24.3z M61.4,36.4l0,0.3  c-1.5-0.1-7.5-0.5-9.6-1.3c-1.9-0.7-7.6-2.5-10.2-3.2c3.2,0.6,11.6,2.2,13.3,2.3C56.6,34.5,60.3,35.9,61.4,36.4z M61.4,38.3  c0,1.9,2.1,6.2,2.9,7.8c-2.9-3.1-3.8-6.6-4-7.9L61.4,38.3z M56.9,31l-0.4,1h3.1L58.4,33l2.7,0.6h-4.5l0.9-0.7l-3.1-0.1l1.3-0.9  l-6.3,0.3L56.9,31z M24.9,26.1L40,33.3l0.4-0.7c0,0,6.5,2.3,10.7,3.4c0.1,0,0.3,0.1,0.4,0.1c1.6,0.6,5.5,1,8,1.2c0,0,0,0.1,0,0.1  l-0.1,0l0,0.4c0,0.2,0.4,2.9,2.3,6.1c0,0,0.1,0.1,0.1,0.1c0.7,1.2,1.7,2.4,3,3.6l0.5,0.4c0.3,3,1.6,5.9,2.4,7.5  c-0.1,1.1,0,2.3,0.3,3.5c-0.6,0.3-2,1-5.2,2.5c-1.8,0.8-3.9,1.9-5.9,2.9c-2.2,1-4.2,1.8-5.1,2.3l0.1,0.2c-0.8,0.4-1.6,0.8-2.2,1.1  c-0.1-0.2-0.3-0.5-0.4-0.7c-1.2-2.3-4.5-7.2-9.1-12.2c-4.6-5.2-10.5-10.5-16.8-12.5c0,0,0,0,0,0c-0.8-1.7-2.8-5.7-2.9-7  c-0.1-0.9,0.1-3.1,0.9-5.2c0.1-0.1,0.2-0.3,0.3-0.4l1.8-2.4l-0.2-0.2C23.7,26.9,24.3,26.4,24.9,26.1z M14.6,38.4  c0-1.5,1.8-4.6,1.8-4.6l-0.9,2.5l1-0.6l-1.9,6.6c-0.1-1.5,0.7-4.8,0.7-4.8L14.6,38.4z M12.6,48.1l-0.4-1.9l5.1,2.5l-3.6,0.1L18.8,81  L12.6,48.1z M53.3,82.2l9,1.2l-1,0.4l6.7,0.7l-10.6-0.3l1.5-0.4L53.3,82.2z M86.5,91.3c-11.8,3.6-27.3,1.3-27.3,1.3  c20.1,0.7,27.6-2.1,27.6-2.1c1.5-1.2,1.9-3.7,1.9-3.7S89.2,90.5,86.5,91.3z M90.7,85l-17.3,0.3l-1-0.6l18.8-0.4L90.7,85z"></path></svg>