<svg height='100px' width='100px'  fill="#000000" xmlns="http://www.w3.org/2000/svg" xmlns:xlink="http://www.w3.org/1999/xlink" version="1.1" x="0px" y="0px" viewBox="0 0 100 100" style="enable-background:new 0 0 100 100;" xml:space="preserve"><path d="M21.1,60.9c1.3-2.4,2.9-4,4.4-5.7c0.9-1.1,1.9-2.2,2.1-3.7c0.1-0.6,0.5-1.1,1.1-1.5c0.8-0.6,2.1-0.7,2.2-2.1  c0-0.2,0.4-0.3,0.7-0.3c1-0.1,1.8-0.7,2.4-1.5c1.6-2,2.8-4.1,2.6-6.7c-0.1-1.2,0.6-2.1,1.3-3.1C37,35.8,36.3,36,35.6,36  c-1-0.1-2.1,0.6-2.9,1.2c-1.7,1.3-3.3,3.2-5.9,2.5c-0.8-0.2-1.6,0-2.4-0.2c-0.7-0.1-0.9,0.3-0.6,1c0.3,0.6,0.6,1.2,0.9,1.7  c0.3,0.6,0.6,1.1,0,1.7c-0.3,0.3-0.3,0.6,0.1,1c0.3,0.3,0.2,0.6-0.2,0.8c-0.3,0.2-0.7,0.1-0.8-0.2c-0.5-0.7-0.8-1.5-0.4-2.4  c0.2-0.3,0.3-0.6,0-0.9c-0.3-0.3-0.6,0-0.9,0.1c-0.5,0.3-1,0.4-1.7,0.5c-1.3,0.1-2.4,0.9-3.4,1.7c-0.4,0.3-0.8,0.9-1.2,0.4  c-0.5-0.6,0.2-1,0.6-1.2c1.6-0.6,2.5-2.2,4.2-2.7c0.7-0.2,0.6-1.2,1.3-1.9c-2.2,0.1-3.8-0.8-5.3-1.7c-0.6-0.4-1.3-0.4-2-0.1  c-0.5,0.3-1,0.2-1.1-0.4c-0.1-0.5,0.2-1,0.8-1c1.1-0.1,2.2-0.2,3.2,0.7c1.4,1.2,3.1,1.7,5,1.5c1.7-0.2,3.4-0.1,5.1,0.2  c1.6,0.3,2.6-0.2,3.1-1.7c0.1-0.3,0-0.3-0.2-0.4c-0.8-0.6-1.7-1.2-1.4-2.5c0.1-0.5-0.4-0.9-0.8-1.1c-0.8-0.5-1.5-1.3-1.3-2.2  c0.2-1,1.1-1.6,2.2-1.9c0.4-0.1,0.7-0.3,1.1,0c0.1,0.7-0.5,0.9-1,1.3c-1.3,0.9-1.3,0.8-0.1,1.7c0.7,0.5,1.3,1.1,1.2,2.1  c-0.1,1.1,1,1.1,1.3,1.8c0.6-0.1,0.7-0.6,0.9-0.9c0.3-0.5,0.8-0.7,1.3-0.8c0.6-0.1,0.8,0.4,1,0.9c0.1,0.5,0.6,0.6,1,0.5  c0.8-0.2,1.5,0,2.2,0.1c0.5,0.1,1,0.1,1.4-0.1c2-1,4.3-1.5,6.2-2.8c1.7-1.2,3.4-2.4,5.2-3.4c1.2-0.6,2.2-1.5,2.9-2.7  c0.6-1,0.8-0.8,1.9-0.3c1.4,0.7,2.7,1.5,4.3,1.7c0.6,0.1,0.9,0,0.9-0.7c0-1,0.3-1.9,1.3-2.4c0.5-0.3,0.6-0.9,0.7-1.4  c0.3-1,0.9-1.5,1.8-1.8c1.4-0.5,2.9-0.9,4.2-1.5c0.8-0.4,1.2-1,1.3-1.9c0.1-1.5,0.5-2.9,1.1-4.3c0.4-1,1-1.9,2-2.4  c1.2-0.6,1.6-1.8,1.9-2.9c0.3-1.4,1.2-2.4,1.9-3.5C78.3,4,79.4,4,80.1,3.5c0.5-0.3,0.6,0.2,0.8,0.6c0.2,0.3,0.3,0.7-0.2,1  c-0.1,0-0.2,0.1-0.3,0.1c-2.8,0.3-3.1,2.6-4,4.8c1,0,1.9-0.4,2.5,0.6c0.2,0.3,0.7-0.1,1-0.2c0.8-0.4,1.5-1,2.4-1.3  C83,8.7,83.5,8.8,84,9.3c-0.1,0.5-0.6,0.7-0.9,0.7c-1.1,0.1-1.9,0.8-2.6,1.5c-0.9,0.9-1.5,0.9-2.4,0.1c-0.3-0.3-0.7-0.6-1.1-0.4  c-1.5,0.8-3.2,1.4-4,3.2c-0.7,1.5-1,2.9-1.2,4.5c-0.1,1-0.5,1.5-1.3,1.8c-1.4,0.7-2.9,1.2-4.3,1.7c-1,0.3-1.7,0.8-2,1.9  c-0.2,0.6-0.5,1-0.8,1.6c-0.4,1-1,2-0.1,3.2c0.5,0.6,0.1,1.6,0,2.4c-0.1,0.7-0.1,1.4,0,2.1c0.2,1.6,0.4,1.8,2,1.8  c1.6,0.1,3.2,0.4,4.8,0.7c1.8,0.4,3.1,1.5,3.5,3.3c0.2,0.9,0.6,1.8,0.9,2.7c0.4,1,0.3,1.4-0.6,2c-0.6,0.3-1.2,0.5-1.8,0.8  c-0.6,0.2-0.9,0.6-0.7,1.2c0.3,1,0.3,2,0.3,3c0,0.7,0.3,1,0.9,1.1c0.5,0.1,1.1,0.1,1.5,0.4c0.5,0.3,0.9-0.1,1.3-0.4  c1.5-1.4,2.8-1.1,4.3,0.2c0.9,0.7,1.9,1.4,2.3,2.6c0.2,0.7,0.8,0.7,1.5,0.6c1.2-0.3,2.5-0.7,3.8-0.8c0.3,0,0.6-0.2,0.8-0.1  c1.5,0.4,2.2-0.5,2.7-1.6c0.7-1.4,2.1-1.8,3.5-1.8c0.4,0,0.7,0.2,0.7,0.7c0,0.4-0.3,0.7-0.8,0.6c-1.3-0.3-2.2,0.3-2.7,1.4  c-0.8,1.6-1.9,2.2-3.8,2c-2.5-0.3-4.7,0.8-6.7,2.2c-0.2,0.2-0.4,0.3-0.3,0.7c0.2,0.6-0.2,0.6-0.6,0.6c-0.8-0.1-0.7,0.4-0.7,0.9  c0.1,0.4,0.3,0.7,0.5,1c1,1.8,0.8,3-0.7,4.2c-0.5,0.4-0.7,0.8-0.6,1.5c0.3,1,0.1,1.8-0.8,2.5c-0.5,0.4-0.6,1.1-1.2,1.5  c-0.3,0.2-0.7,0.4-0.4,0.9c0.2,0.4,0.4,0.8,0.9,0.8c0.3,0,0.6,0,1-0.1c0.6,0,1.3,0.1,1.6,0.6c0.5,0.8,1.1,0.8,1.9,0.7  c1.3,0,2.2,1,2,2c-0.1,0.3-0.2,0.5-0.5,0.6c-0.3,0.1-0.5-0.2-0.6-0.4c-0.2-1.1-0.8-1.2-1.8-0.8c-0.5,0.2-1,0.1-1.3-0.4  c-0.5-1-1.3-0.9-2.1-0.7c-0.9,0.2-1.9,0.4-2.8,0.5c-0.9,0-1.6,0.5-2.3,1c-0.3,0.2-0.6,0.5-0.6,0.9c-0.1,0.5,0.8,0.1,0.7,0.8  c-0.9,0.2-1.2,0.9-1.6,1.7c-0.8,1.8-1.9,3.4-2.6,5.2c-0.2,0.5-0.6,0.9-1.3,0.6c-0.5-0.1-1-0.1-1.4-0.3c-1.5-0.8-3.1-0.8-4.7-1.1  c-0.4-0.1-0.7-0.1-1.1-0.2c-2.9-0.8-3-1.5-2.4-3.9c0.1-0.3,0.2-0.6,0.2-0.9c0.2-1.3,0-1.3-1.2-1.8c-1.6-0.7-3.2-1.1-4.7-2  c-1.9-1.1-2.5-1.1-4.2,0.3c-1.8,1.5-3.5,3-4.9,4.9c-1.1,1.5-1.5,1.7-3.4,1.1c-3-1-6.1-1.8-9.2-2.4c-0.3-0.1-0.6-0.2-1-0.2  c-0.8,0-1.1,0.2-0.8,0.9c0.3,0.7,0.1,1.1-0.4,1.6c-1.6,1.7-3.3,3.3-5.4,4.3c-1.1,0.5-1.2,0.9-0.2,1.7c0.9,0.7,1.2,1.4,0.8,2.5  c-0.3,0.6-0.1,1.1,0.7,1c0.3,0,0.5,0,0.8,0.1c1,0.2,1,0.2,0.7,1.3c0,0.1-0.1,0.2-0.1,0.3c-0.1,0.4,0,1-0.6,1c-0.6,0-0.6-0.5-0.5-1  c0.1-0.5-0.3-0.5-0.6-0.6c-1.7-0.4-1.7-0.4-1.6-2.2c0.1-0.8-0.1-1.4-0.7-2c-0.9-0.9-1.9-0.9-2.2,0.2c-0.9,2.6-3.1,4.1-4.8,6  c-1.4,1.6-3.1,2.8-3.9,4.8c-0.1,0.2-0.3,0.3-0.5,0.3c-0.3-0.1-0.4-0.3-0.4-0.6c0-0.5,0.3-0.8,0.6-1.1c1.6-2.2,3.7-3.9,5.5-5.9  c1-1.1,2.3-2,2.4-3.7c0-0.6,0.6-0.8,1.1-1.1c1.9-1.2,3.8-2.3,5.6-3.5c1.9-1.3,2.6-3.2,2.7-5.4c0-1.1-0.1-2.2-0.4-3.2  c-0.2-0.5-0.2-1.1,0-1.6c0.3-0.5,0.2-0.9-0.1-1.3c-0.9-1.4-1.8-2.9-2.8-4.3c-0.8-1.1-0.9-1.1-2.2-0.5c-0.4-1.5-1.6-2.5-2.4-3.8  c-0.1-0.1-0.3-0.2-0.4-0.2c-1.8-0.1-3.6-0.5-5.4,0.1c-1.3,0.4-2.5,0.4-3.8-0.1c-0.4-0.2-0.9-0.2-1.4-0.2c-1.3-0.1-2.1-1-3-1.7  c-0.4-0.3-0.2-0.7,0-1c0.2-0.3,0.5-0.3,0.8-0.1c0.2,0.1,0.3,0.3,0.5,0.4c1.4,1.4,3,1.7,4.9,1.2c1.5-0.4,3-0.7,4.5-0.1  c0.5,0.2,1.3,0.1,1.9,0C19.3,58.9,20.4,59,21.1,60.9z M68,56.3c-0.1-2.7-0.2-5.3-0.2-7.9c-0.1-1.7-0.2-1.9-1.8-1.8  c-2.9,0.1-5.9,0.2-8.8,0.3c-1.5,0.1-3,0.1-4.5,0.2c-0.4,0-1,0-1,0.6c0.1,1.2-0.5,2.4-0.3,3.7c0.1,1.1,0.2,2.2,0,3.3  c-0.2,1,0.2,1.4,1.2,1.5c1.8,0.3,3.6,0.6,5.4,0.3c0.6-0.1,1.2,0,1.8,0C62.5,56.6,65.3,56.7,68,56.3z M44,56.2c1.8,0.1,3.5,0,5.2,0  c0.8,0,1.1-0.3,1.2-1.1c0.3-2.3,0-4.5-0.1-6.7c-0.1-1.1-0.1-1.2-1.3-1.1c-1.8,0.2-3.5,0.3-5.3,0.3c-0.3,0-0.7,0-0.9,0.3  c-0.3,0.6-0.5,0.8-1,0.1c-0.2-0.2-0.5-0.1-0.8-0.2c-2.3-0.1-4.6,0.1-6.9,0.4c-0.6,0.1-0.9,0.4-1,1c-0.3,1.5-0.3,2.9,0.1,4.3  c0.1,0.5,0.2,1,0.2,1.4c0.1,0.5-0.4,1.1,0.1,1.5c0.5,0.4,1.1,0.2,1.7,0.1c0.4,0,0.9,0,1.3-0.1C39.1,56,41.6,56.2,44,56.2z   M59.9,65.9c-1.2-0.8-1.2-0.8-1.1-1.8c0-0.4,0.1-0.8,0.2-1.3c0.3-1.4,0.5-2.9,0.4-4.3c0-0.5-0.2-1-0.8-0.9c-2.1,0.1-4.2-0.4-6.3,0  c-1.1,0.2-2.2,0.4-3.4,0.1c-2-0.4-3.9,0.1-5.9,0.1c-1,0-1.6,0.5-1.5,1.5c0.1,2,0.3,3.9,0.5,5.9c0,0.5,0.3,0.6,0.7,0.7  c0.4,0,0.9,0,1.3,0c3.3,0,6.7-0.1,10,0C55.8,66,57.7,66.2,59.9,65.9z M52.8,46.2c1.5-0.1,3.2-0.2,4.9-0.2c0.6,0,0.7-0.3,0.8-0.9  c0.2-2.2,0-4.4-0.3-6.5c-0.2-1.3-0.2-1.3-1.5-1.3c-1.7,0-3.4,0.3-5.1,0.3c-2.5,0-5,0.5-7.5,0.8c-0.7,0.1-1,0.5-1.2,1.3  c-0.4,2-0.3,3.9,0.1,5.9c0.2,1.2,0.3,1.2,1.4,1.1C47.1,46.5,49.8,46.1,52.8,46.2z M69.3,66.3c0.6,0,1.2-0.1,1.8,0  c1.3,0.2,2.5-0.1,3.7-0.5c0.3-0.1,0.5-0.2,0.5-0.5c0.1-0.4,0.2-0.7,0.3-1.1c0.2-2-0.1-4.1,0.5-6.1c0.1-0.5-0.1-0.8-0.7-0.9  c-0.8,0-1.6-0.1-2.4-0.1c-3.2,0.1-6.3,0.2-9.5,0.3c-3.2,0.1-3.2,0.1-3.1,3.4c0,1.3,0.6,2.6,0.2,3.9c-0.2,0.6,0.4,1.1,1.2,1.1  C64.2,65.9,66.7,66.4,69.3,66.3z M40.2,61.7C40.3,61.7,40.3,61.7,40.2,61.7c0.1-0.3,0.2-0.6,0.2-1c0-0.9,0.2-1.9-0.2-2.5  c-0.3-0.6-1.4-0.1-2.1-0.2c-0.3,0-0.5-0.1-0.7-0.3c-0.6-0.4-1.3-0.4-1.8-0.1c-2,0.9-4.1,0.7-6.1,0.5c-1.3-0.1-2.6-0.2-3.8-0.2  c-0.8,0-1,0.4-0.7,1.1c0.4,0.9,0.3,1.7,0,2.7c-0.3,0.7-0.6,1.6,0,2.6c1.1,2.1,2.5,2.5,4.7,2.3c3-0.4,6.1-0.3,9.2-0.5  c1.4-0.1,1.5-0.1,1.6-1.6C40.3,63.7,40.2,62.7,40.2,61.7z M56.5,66.9c-1.2,0-2.4,0-3.5,0c-2.5,0-2.5,0-2.6,2.5  c-0.1,1.6,0.2,2,1.8,2.3c1,0.2,2,0.5,3,0.7c1.5,0.3,2.6,0.9,3.4,2.2c0.2,0.3,0.4,0.6,0.9,0.6c2.9,0,5.8,0.2,8.7-0.1  c0.2,0,0.5,0,0.4-0.5c-0.4-1.9-0.2-3.9-0.6-5.9c-0.3-1.6-0.1-1.7-1.7-1.6c-0.5,0-1.1,0.1-1.6,0.1c-0.3,0-0.8,0-0.9-0.1  c-0.6-0.6-1.2-0.4-1.8-0.2c-0.3,0.1-0.6,0.2-0.9,0.1C59.4,66.8,58,67,56.5,66.9z M34.7,74.3c0.9,0.2,1.5,0.1,2.2,0  c1.6-0.2,3.3-0.1,4.9,0c0.4,0,0.8,0.1,0.8,0.8c-1.6-0.2-3.2,0-4.7,0.2c-1.5,0.2-3-0.3-4.6,0.4c1.7,1.3,3.6,1.6,5.4,2.1  c1.7,0.5,2.2,0.3,3.3-1.1c1.6-2.1,3.4-4,5.8-5.2c0.7-0.3,1.4-0.7,1-1.7c-0.1-0.3,0.2-0.7,0.2-1.1c0.1-0.5,0.8-0.7,0.5-1.3  c-0.3-0.5-1-0.3-1.5-0.4c-0.4-0.1-0.9-0.2-1.3-0.2c-3.7,0.5-7.5,0.5-11.3,0.6c-0.7,0-1.1,0.3-1.1,1c0,1.5-0.1,2.9,0.5,4.3  C35.2,73.2,35.3,73.7,34.7,74.3z M59.3,45.8c0.2,0.1,0.3,0.2,0.4,0.2c3.2-0.1,6.3-0.2,9.5-0.3c0.3,0,0.7,0,0.7-0.2  c0.3-1.4,1.5-1.3,2.5-1.6c1-0.3,1.2-0.7,1-1.7c-0.2-1-0.7-1.8-1.1-2.7c-0.9-1.9-2.3-2.7-4.4-2.4c-0.8,0.1-1.5,0.2-2.2,0.1  c-1.8-0.3-3.5-0.1-5.3,0c-0.3,0-0.7-0.1-0.8,0.6c0.5,0.3,1.1,0.6,0.7,1.4c-0.7,1.6-0.5,3.4-0.4,5.1C59.8,44.9,59.7,45.3,59.3,45.8z   M62.1,31.8c0.1-1.9-0.3-2.6-1.6-3c-1.5-0.4-2.9-0.8-4.2-1.6c-0.6-0.4-1.2-0.4-1.7,0.3c-0.5,0.7-1.2,1.4-2,1.9  c-0.9,0.5-1.1,1.3-0.9,2.2c0.3,1.2,0.3,2.3-0.2,3.5c-0.3,0.7-0.1,0.9,0.7,1c1.1,0,2.1,0,3.2,0c1.9,0.1,3.7-0.4,5.6,0.1  c0.5,0.1,0.9-0.2,0.8-0.7C61.7,34.1,62,32.8,62.1,31.8z M68.9,47c-0.2,1-0.3,1.8-0.3,2.7c0.1,1.8,0.3,3.5,0.2,5.3  c-0.1,1.1,0.1,1.3,1.1,1.3c2.6-0.1,5.2,0.1,7.7,0.3c0.3,0,0.7,0.1,0.9-0.2c0.7-1,1.8-1.5,2.7-2.2c-0.8-1.2-1.6-2.2-2.7-3.1  c-0.9-0.7-1.7-0.9-2.4-0.1c-1.1,1.1-2.1,1.1-3.3,0.5c-0.2-0.1-0.5-0.2-0.8-0.2c-1-0.2-1.4-0.7-1.3-1.7c0-0.3,0-0.6,0-1  C70.6,47.6,70.1,47,68.9,47z M69.2,76.8c-0.4-0.4-0.8-0.4-1.2-0.4c-1-0.1-2-0.1-3-0.1c-1.5,0-3.1,0.3-4.6,0  c-0.6-0.1-1.4-0.4-1.9,0.4c-1,1.8-0.4,3.1,1.5,3.7c0.4,0.1,0.8,0.2,1.2,0.3c1.6,0.2,3.3,0.5,4.9,1c0.6,0.2,1,0,1.3-0.5  C68.2,79.8,68.7,78.3,69.2,76.8z M27.1,67.7c0.9,1.9,1.6,3.6,1.4,5.6c-0.1,1,0.3,1.3,1.3,1.3c0.9,0,1.7-0.2,2.6-0.2  c1.6-0.1,1.8-0.2,1.5-1.8c-0.3-1.3-0.3-2.5-0.4-3.8c0-0.3-0.1-0.6-0.1-1c-0.1-0.4-0.3-0.6-0.7-0.5C30.9,67.7,29.1,67.4,27.1,67.7z   M34.7,47c2.4,0,4.5-0.4,6.6-0.3c0.6,0,0.7-0.5,0.5-0.9c-0.8-2.2-0.2-4.6-0.8-6.9c-0.3,0-0.6,0-0.9,0c-1.3,0-2,0.4-2.4,1.8  C37,42.8,36.6,45.1,34.7,47z M69.1,67.2c0.3,0.9,0.1,1.7,0.1,2.5c-0.1,1.5,0,3.1,0,4.6c0,0.2-0.1,0.4,0.2,0.6c0.3,0.1,0.5,0,0.7-0.2  c0.1-0.2,0.3-0.3,0.4-0.5c0.4-1,1.2-1.4,2.1-1.7c1-0.3,2-0.6,3-1.2c-0.2-0.3-0.3-0.5-0.5-0.7c-0.7-1.1-0.7-1.1,0.4-1.9  c0.3-0.2,0.7-0.4,0.7-0.9c-0.5-0.4-1-0.6-1.6-0.6C72.8,67.3,71.1,67.3,69.1,67.2z M49.9,31.2c-2.6,1.9-5.6,3.2-8.6,4.5  c-0.6,0.3-1.1,0.6-1.7,0.9C39.3,36.8,39,37,39,37.5c0.4,0.1,0.8,0,1.2-0.1c2.7-0.4,5.4-0.9,8.1-1.2c2.4-0.3,2.4-0.2,2.4-2.5  C50.8,32.8,50.9,31.9,49.9,31.2z M25.6,57.2c1.8,0.1,3.6,0,5.3-0.1c1.4-0.2,1.4-0.2,1.4-1.7c0-0.5,0-1,0-1.5c0-1.2-0.2-2.3-0.7-3.5  c-0.1-0.3-0.4-0.7-0.7-0.5c-0.8,0.4-1.9,0.6-2.2,1.7c-0.4,1.5-1.3,2.8-2.3,4C26.1,56,25.7,56.4,25.6,57.2z M76.2,64.6  c0,0.3,0,0.6,0.1,1c0,0.2,0.2,0.3,0.5,0.3c0.2,0,0.3-0.2,0.3-0.3c-0.2-1.4,0.6-2.2,1.5-3c0.6-0.5,0.7-1.1,0.3-1.8  c-0.5-0.9-1.1-1.8-0.8-3c0.1-0.4-0.3-0.5-0.7-0.4c-0.5,0.1-0.6,0.6-0.6,1C76.6,60.4,76.7,62.5,76.2,64.6z M47.8,57.2  c0-0.1,0-0.2,0-0.3c-1.4,0-2.8-0.2-4.2-0.1c-0.5,0-0.9-0.2-1.4,0c-0.2,0.1-0.4,0.2-0.4,0.4c0,0.2,0.2,0.3,0.5,0.3  C44,57.4,45.9,57.3,47.8,57.2z M23.5,59.5c-1.8,2-1.7,2.7,0,3.2C23.7,61.8,23.7,60.8,23.5,59.5z M40.9,63.3c0.1,0.8-0.3,1.7,0.2,2.9  C41.4,65,40.7,64.1,40.9,63.3z"></path></svg>