<svg height='100px' width='100px'  fill="#000000" xmlns="http://www.w3.org/2000/svg" xmlns:xlink="http://www.w3.org/1999/xlink" version="1.1" x="0px" y="0px" viewBox="0 0 100 100" enable-background="new 0 0 100 100" xml:space="preserve"><g><path d="M71.125,28.63v-2.884c2.787-0.579,4.889-3.053,4.889-6.01c0-0.771-0.146-1.53-0.458-2.317   c-0.057-0.122-0.336-0.719-0.582-1.1l-5.099-9.582l-5.096,9.576c-0.243,0.363-0.448,0.756-0.611,1.169   c-0.286,0.724-0.432,1.482-0.432,2.253c0,2.957,2.102,5.431,4.889,6.01v2.884H62.75V94H77V28.63H71.125z M66.236,19.736   c0-0.456,0.086-0.905,0.256-1.334c0.104-0.262,0.234-0.508,0.389-0.733l2.994-5.609l2.92,5.488l0.074,0.121   c0.088,0.128,0.286,0.515,0.389,0.733c0.17,0.43,0.256,0.879,0.256,1.334c0,1.566-0.999,2.892-2.389,3.404v-4.515h-2.5v4.515   C67.235,22.627,66.236,21.302,66.236,19.736z M65.25,34.932c0.887,0.457,1.5,1.371,1.5,2.436s-0.613,1.979-1.5,2.436V34.932z    M65.25,54.932c0.887,0.457,1.5,1.371,1.5,2.436s-0.613,1.979-1.5,2.436V54.932z M65.25,74.932c0.887,0.457,1.5,1.371,1.5,2.436   s-0.613,1.979-1.5,2.436V74.932z M65.25,82.45c2.29-0.564,4-2.621,4-5.083s-1.71-4.519-4-5.083V62.45c2.29-0.564,4-2.621,4-5.083   s-1.71-4.519-4-5.083V42.45c2.29-0.564,4-2.621,4-5.083s-1.71-4.519-4-5.083V31.13h9.25v11.232c-2.161,0.65-3.75,2.635-3.75,5.005   s1.589,4.355,3.75,5.005v9.99c-2.161,0.65-3.75,2.635-3.75,5.005s1.589,4.354,3.75,5.005v9.99c-2.161,0.65-3.75,2.635-3.75,5.005   c0,1.686,0.813,3.172,2.051,4.133H65.25V82.45z M74.5,45.067v4.6c-0.751-0.492-1.25-1.337-1.25-2.3S73.749,45.559,74.5,45.067z    M74.5,65.067v4.6c-0.751-0.491-1.25-1.337-1.25-2.3S73.749,65.559,74.5,65.067z M73.25,87.367c0-0.963,0.499-1.809,1.25-2.3v4.6   C73.749,89.176,73.25,88.33,73.25,87.367z"></path><path d="M31.125,25.747c2.788-0.579,4.889-3.054,4.889-6.011c0-0.771-0.146-1.529-0.458-2.316   c-0.056-0.122-0.335-0.719-0.583-1.101l-5.098-9.581l-5.094,9.575c-0.243,0.362-0.449,0.755-0.613,1.17   c-0.286,0.725-0.432,1.482-0.432,2.253c0,2.957,2.102,5.432,4.889,6.011v2.883H22.75V94H37V28.63h-5.875V25.747z M26.236,19.736   c0-0.455,0.086-0.904,0.258-1.336c0.103-0.262,0.233-0.507,0.387-0.729l2.995-5.611l2.919,5.487l0.075,0.124   c0.088,0.127,0.286,0.513,0.388,0.73c0.17,0.431,0.257,0.88,0.257,1.334c0,1.566-0.999,2.892-2.389,3.404v-4.515h-2.5v4.515   C27.235,22.627,26.236,21.302,26.236,19.736z M25.25,31.13h0.667v4.787h5v3h-5v8.178h5v3.345h-5v8.5h5v3.811h-5v8.334h5v3.511h-5   v8.155h5v2.834h-5V91.5H25.25V31.13z M34.5,91.5h-6.083v-3.416h5V80.25h-5v-3.155h5v-8.511h-5V65.25h5v-8.811h-5v-3.5h5v-8.345h-5   v-3.178h5v-8h-5V31.13H34.5V91.5z"></path><path d="M51.125,25.746c2.787-0.579,4.889-3.053,4.889-6.01c0-0.771-0.146-1.53-0.458-2.317c-0.057-0.122-0.336-0.719-0.582-1.1   l-5.099-9.582l-5.094,9.575c-0.243,0.362-0.449,0.755-0.613,1.17c-0.286,0.725-0.432,1.482-0.432,2.253   c0,2.957,2.102,5.432,4.889,6.011v2.883H42.75V94H57V28.63h-5.875V25.746z M46.236,19.736c0-0.455,0.086-0.904,0.258-1.336   c0.103-0.262,0.233-0.507,0.387-0.729l2.995-5.611l2.92,5.488l0.074,0.121c0.088,0.128,0.286,0.515,0.389,0.733   c0.17,0.43,0.256,0.879,0.256,1.334c0,1.566-0.999,2.892-2.389,3.404v-4.515h-2.5v4.515C47.235,22.627,46.236,21.302,46.236,19.736   z M54.5,91.5h-9.25V31.13h9.25V91.5z"></path><path d="M48.589,37.483c0.247,0.287,0.596,0.434,0.947,0.434c0.289,0,0.58-0.1,0.815-0.303c0.523-0.451,0.582-1.24,0.131-1.763   l-2.299-2.667c-0.45-0.523-1.24-0.581-1.763-0.131c-0.523,0.451-0.582,1.24-0.131,1.763L48.589,37.483z"></path><path d="M48.421,41.053c-0.523,0.451-0.582,1.24-0.131,1.763l2.299,2.667c0.247,0.287,0.596,0.434,0.948,0.434   c0.289,0,0.579-0.1,0.815-0.303c0.522-0.451,0.581-1.24,0.131-1.763l-2.299-2.667C49.734,40.662,48.944,40.603,48.421,41.053z"></path><path d="M48.589,51.483c0.247,0.286,0.596,0.434,0.947,0.434c0.289,0,0.58-0.1,0.815-0.303c0.523-0.451,0.582-1.24,0.131-1.763   l-2.299-2.667c-0.45-0.523-1.24-0.581-1.763-0.131c-0.523,0.451-0.582,1.24-0.131,1.763L48.589,51.483z"></path><path d="M50.184,55.184c-0.45-0.521-1.24-0.58-1.763-0.131c-0.523,0.451-0.582,1.24-0.131,1.764l2.299,2.667   c0.247,0.286,0.596,0.434,0.948,0.434c0.289,0,0.579-0.1,0.815-0.303c0.522-0.451,0.581-1.24,0.131-1.764L50.184,55.184z"></path><path d="M48.589,65.483c0.247,0.286,0.596,0.434,0.947,0.434c0.289,0,0.58-0.1,0.815-0.303c0.523-0.451,0.582-1.24,0.131-1.764   l-2.299-2.667c-0.45-0.521-1.24-0.58-1.763-0.131c-0.523,0.451-0.582,1.24-0.131,1.764L48.589,65.483z"></path><path d="M50.184,69.184c-0.45-0.521-1.24-0.58-1.763-0.131c-0.523,0.451-0.582,1.24-0.131,1.764l2.299,2.667   c0.247,0.286,0.596,0.434,0.948,0.434c0.289,0,0.579-0.1,0.815-0.303c0.522-0.451,0.581-1.24,0.131-1.764L50.184,69.184z"></path><path d="M48.589,79.483c0.247,0.286,0.596,0.434,0.947,0.434c0.289,0,0.58-0.1,0.815-0.303c0.523-0.451,0.582-1.24,0.131-1.764   l-2.299-2.667c-0.45-0.521-1.24-0.58-1.763-0.131c-0.523,0.451-0.582,1.24-0.131,1.764L48.589,79.483z"></path><path d="M50.184,83.184c-0.45-0.521-1.24-0.581-1.763-0.131c-0.523,0.451-0.582,1.24-0.131,1.764l2.299,2.667   c0.247,0.286,0.596,0.434,0.948,0.434c0.289,0,0.579-0.1,0.815-0.303c0.522-0.451,0.581-1.24,0.131-1.764L50.184,83.184z"></path></g></svg>