<?xml version="1.0" encoding="utf-8"?>
<!-- Generator: Adobe Illustrator 24.2.1, SVG Export Plug-In . SVG Version: 6.00 Build 0)  -->
<svg version="1.1" id="Layer_1" xmlns="http://www.w3.org/2000/svg" xmlns:xlink="http://www.w3.org/1999/xlink" x="0px" y="0px"
	 viewBox="0 0 100 100" enable-background="new 0 0 100 100" xml:space="preserve">
<circle fill="none" cx="13.582" cy="34.225" r="6.531"/>
<path d="M63.207,17.924H6.873C3.079,17.937,0.009,21.011,0,24.805v50.391c0.013,3.791,3.083,6.86,6.873,6.873h56.334
	c3.791-0.012,6.861-3.082,6.873-6.873V63.701l5.701,2.813l18.508,9.121c3.145,1.547,5.711-0.049,5.711-3.549V27.914
	c0-3.498-2.566-5.096-5.705-3.549l-18.514,9.121l-5.705,2.813V24.805C70.069,21.012,67,17.938,63.207,17.924z M13.582,40.756
	c-3.607-0.002-6.529-2.928-6.527-6.535c0.002-3.607,2.928-6.529,6.535-6.527c3.606,0.002,6.527,2.926,6.527,6.531
	c0,3.607-2.924,6.531-6.531,6.531C13.585,40.756,13.583,40.756,13.582,40.756z"/>
</svg>
