<svg height='100px' width='100px'  fill="#000000" xmlns="http://www.w3.org/2000/svg" viewBox="0 0 512 512" x="0px" y="0px"><title>Cool-Emoji-Emotion-Face-Expression-Feeling</title><path d="M506,326.41c3.09-5.81,6.05-14.6,3.05-24.08s-9.74-15.48-14.64-18.8c-.74-5.2-2.59-12.83-7.16-19.22-6-8.38-15.11-12.38-19.37-13.87-8-6.05-15.51-8.05-22.09-5.78-17.51,6.06-16.22,25.7-15.18,41.48,1.25,19,1.22,30.88-9.78,35.27-4.35,1.75-10.18.24-16-4.14-9.79-7.36-12.68-21.53-6.72-33C414.48,253,434.79,214,434.79,176.65c0-46.42-19.35-89.75-54.48-122a183.89,183.89,0,0,0-248.62,0c-35.13,32.28-54.48,75.61-54.48,122,0,37.37,20.31,76.34,36.63,107.66,6,11.43,3.07,25.6-6.71,33-5.81,4.38-11.64,5.89-16,4.14-7.34-2.93-11.66-6.77-9.78-35.27,1-15.78,2.33-35.42-15.18-41.48-6.58-2.27-14.13-.27-22.09,5.78-4.26,1.49-13.38,5.49-19.37,13.87-4.57,6.39-6.42,14-7.16,19.22-4.9,3.32-11.66,9.37-14.64,18.8s0,18.27,3.05,24.08c-3.6,5.77-7.3,14.74-4.64,24.8,2.41,9.17,8.66,15.07,13.91,18.57a32.41,32.41,0,0,0,9.06,26.39A30.93,30.93,0,0,0,46,405.88a24.71,24.71,0,0,0,15.6,15.62,32.45,32.45,0,0,0,10.84,1.94C57.76,432,44.63,440.63,44.63,458.38c0,12,6.25,22.28,17.58,28.82a50.32,50.32,0,0,0,6.51,3.13,32.21,32.21,0,0,0,28.11,16.05A39.61,39.61,0,0,0,121.44,498a49,49,0,0,0,26.85,3.08A45.46,45.46,0,0,0,174.55,487c7.67,2.56,19.64,4,33.19-3.51,11.46-6.37,17.06-14.65,19.75-20.47.26-.56.49-1.11.71-1.64A41.64,41.64,0,0,0,253,453.63a24.25,24.25,0,0,0,3-2.51,24.25,24.25,0,0,0,3,2.51,41.75,41.75,0,0,0,24.82,7.73c.22.53.45,1.08.71,1.64,2.69,5.82,8.29,14.1,19.75,20.47,13.55,7.53,25.51,6.07,33.19,3.51a45.46,45.46,0,0,0,26.26,14.14A48.89,48.89,0,0,0,390.56,498a39.61,39.61,0,0,0,24.61,8.34,32.21,32.21,0,0,0,28.09-16c1.44-.59,2.82-1.21,4.15-1.88,12.87-6.5,20-17.2,20-30.11,0-17.75-13.13-26.42-27.79-34.94a32.7,32.7,0,0,0,10.84-1.94A24.71,24.71,0,0,0,466,405.88a30.93,30.93,0,0,0,21.68-9.71,32.41,32.41,0,0,0,9.06-26.39c5.25-3.5,11.49-9.4,13.91-18.57C513.33,341.15,509.63,332.18,506,326.41Zm-58.66,132c0,3.59-1,8.24-9,12.26-7.34,3.7-18.33,5.66-31.79,5.66-3.64,0-7.39-.15-11.22-.43a9.88,9.88,0,0,0-1.54-.37,9.38,9.38,0,0,0-2.8,0,215.8,215.8,0,0,1-45.66-9.81,9.1,9.1,0,0,0-2.74-1.07c-.26-.06-.53-.09-.79-.13-15.62-5.43-30.5-12.57-42.88-21.08a9.88,9.88,0,0,0-1.71-1.57,9.31,9.31,0,0,0-2-1.1c-17.56-13-29.23-29-29.23-46.82a10,10,0,0,0-20,0c0,10-4.16,28.2-29.2,46.8a9.41,9.41,0,0,0-2.06,1.12,10.27,10.27,0,0,0-1.78,1.63q-4.44,3.06-9.7,6.1a194.19,194.19,0,0,1-33,15,8.13,8.13,0,0,0-.84.13,9.2,9.2,0,0,0-2.91,1.14,213.08,213.08,0,0,1-45.38,9.69,9.17,9.17,0,0,0-3,0,8.64,8.64,0,0,0-1.63.41c-19,1.34-35.11-.71-44.32-6-6.71-3.88-7.58-8.18-7.58-11.5,0-6.73,5.68-10.64,20.71-19.31,19.83-11.44,47-27.11,64.54-67.37a10,10,0,0,0-18.34-8c-7,16.07-15.76,27.5-25,36.21a100.59,100.59,0,0,1-13.69-1.71,10.06,10.06,0,0,0-1.35-.26,106.9,106.9,0,0,1-17-4.9A88,88,0,0,1,62,387.15,8.85,8.85,0,0,0,61,386.2a9.36,9.36,0,0,0-3-1.54,64.6,64.6,0,0,1-21.83-23.59c-.07-.2-.14-.41-.23-.62a9.35,9.35,0,0,0-.84-1.52,67.14,67.14,0,0,1-6.89-31.06,9.4,9.4,0,0,0,0-1.5c.74-20.84,10.14-37.76,13.83-43.63C50,270.19,57.47,265,60.23,263.94c2.39,2.34,1.67,13.4,1.17,20.89-.61,9.28-1.3,19.81.86,29.37C65.1,326.75,72.31,335.43,83.72,340c11,4.39,23.91,1.94,35.44-6.74,17.5-13.18,22.84-38.19,12.42-58.18-15.31-29.38-34.37-65.95-34.37-98.42,0-40.75,17.05-78.86,48-107.3a163.89,163.89,0,0,1,221.56,0c31,28.44,48,66.55,48,107.3,0,32.47-19.06,69-34.37,98.42-10.42,20-5.08,45,12.42,58.18,11.53,8.68,24.45,11.13,35.44,6.74,11.4-4.56,18.62-13.24,21.46-25.79,2.16-9.56,1.47-20.09.86-29.37-.5-7.49-1.22-18.55,1.17-20.89,2.76,1,10.27,6.25,18.17,18.8,5,8,20.65,36.44,10.56,67.4a68,68,0,0,1-3.74,9.11c-.22.37-.43.74-.62,1.14l-.2.51A64.51,64.51,0,0,1,454,384.66a9.36,9.36,0,0,0-3,1.54,8.85,8.85,0,0,0-1.07.95,87.52,87.52,0,0,1-12.47,5.9,109.49,109.49,0,0,1-32.06,6.87c-9.23-8.71-18-20.14-25-36.21a10,10,0,0,0-18.34,8c17.54,40.26,44.71,55.93,64.54,67.37C441.69,447.74,447.37,451.65,447.37,458.38Z"></path><path d="M315.19,219.39a10,10,0,0,0-12.57,6.43c-.37,1.09-9.57,26.8-46,26.8s-45.61-25.71-46-26.71a10,10,0,1,0-19,6.1c.53,1.66,13.61,40.61,65,40.61s64.47-39,65-40.61A10,10,0,0,0,315.19,219.39Z"></path><path d="M380.53,122.65a10,10,0,0,0-11.79-8.84l-104.56,19.6H249.09l-104.55-19.6a10,10,0,0,0-11.8,8.84,142.51,142.51,0,0,0,2.67,40.55c8.36,37.19,30.53,47.27,47.65,49.17a87.72,87.72,0,0,0,9.83.56c16,0,29.55-4.72,40.44-14.09,8.62-7.41,14.25-16.71,17.92-25.56H262c3.68,8.85,9.31,18.15,17.92,25.56,10.89,9.37,24.46,14.09,40.45,14.09a87.54,87.54,0,0,0,9.82-.56c17.12-1.9,39.29-12,47.66-49.17A142.31,142.31,0,0,0,380.53,122.65Z"></path></svg>