<svg height='100px' width='100px'  fill="#000000" xmlns="http://www.w3.org/2000/svg" data-name="Слой 1" viewBox="0 0 100 100" x="0px" y="0px"><title>splash-01-01-01</title><g><path d="M49.11961,38.95453c1.77453-3.44578,2.247-6.76909.372-10.10541a20.2775,20.2775,0,0,1-2.47678-13.771c1.10667-6.27129,8.4903-8.46863,11.89149-6.21755,1.10265,0.7298,2.31128,1.29823,3.45555,1.96759a1.266,1.266,0,0,1,.41894.54488c1.10472,2.29045,2.12549,4.53418,1.58381,7.26081a44.44138,44.44138,0,0,1-2.73383,9.08585,12.33,12.33,0,0,0-.18532,8.63428,4.01623,4.01623,0,0,0,1.442,1.77058c1.63293,1.25623,3.65739,1.08348,5.48642.91222,0.851-.07967,1.73276-1.2601,2.3464-2.12242C71.728,35.49824,72.50158,33.918,73.42372,32.438a4.49573,4.49573,0,0,1,4.61107-2.35012,39.066,39.066,0,0,1,5.51866,1.33634,9.66963,9.66963,0,0,1,2.95876,1.35008,4.63175,4.63175,0,0,1,1.6396,2.18035c1.17027,3.80459-1.51567,9.12736-5.24336,10.6429a2.87983,2.87983,0,0,1-.67663.22971c-5.35716.71295-8.31277,4.13259-10.043,8.91848-0.93922,2.59783-.088,3.55294,1.856,4.72951A13.71407,13.71407,0,0,0,77.81449,60.887c3.96187,0.98892,7.20044,3.358,10.29427,5.75884,3.25055,2.52254,3.52949,6.39087,3.06762,10.22531a11.46284,11.46284,0,0,1-6.04276,8.87759,6.93778,6.93778,0,0,1-7.16538-.219c-1.58792-1.15645-3.47615-1.80245-4.82559-3.4031-2.28977-2.71608-3.32948-5.91043-4.19129-9.23472-0.4171-1.609-.89483-3.20489-1.41342-4.78429a5.89861,5.89861,0,0,0-2.672-3.23129,1.55363,1.55363,0,0,0-2.14038.24078,5.26963,5.26963,0,0,0-1.88042,4.66093c0.17477,1.17273.39419,2.34219,0.66337,3.49684a11.28356,11.28356,0,0,1-2.61219,10.42335,2.38109,2.38109,0,0,1-2.24068,1.05279c-1.24967-.17108-2.52691-0.21852-3.74737-0.50835-2.46159-.58461-3.48708-2.42523-4.11169-4.73383-1.076-3.97717.06957-7.51021,1.79059-11.00345a9.22838,9.22838,0,0,0,.99929-2.89122c0.18351-1.56065-.59557-2.16973-2.15816-1.9649a11.42256,11.42256,0,0,0-8.65286,5.16956c-1.40756,2.1938-2.75239,4.43109-4.23667,6.57169-2.52627,3.6434-5.15738,7.21391-7.71189,10.838-1.97637,2.804-5.10864,3.93884-7.9031,5.56253a1.23126,1.23126,0,0,1-.91511.17254c-2.2591-.92486-4.94035-0.55721-6.94464-2.22483-2.02257-1.68283-3.02536-3.93786-3.9368-6.38-1.078-2.88843-.11263-5.46719.74854-7.98185,0.46924-1.37024,2.09742-2.31155,3.08-3.54429,2.51228-3.152,6.25289-3.87128,9.76169-5.05091,3.30048-1.10961,6.63612-2.11723,9.92-3.27291a6.21915,6.21915,0,0,0,3.53206-3.69931c0.8509-2.00537-.43025-3.50777-2.59759-3.158a13.989,13.989,0,0,0-2.29379.61313c-3.21441,1.104-8.10518-.8081-9.62152-3.78516-1.003-1.96924.11974-5.69542,2.18585-7.25452a5.1287,5.1287,0,0,1,6.56593.34231,19.48991,19.48991,0,0,0,3.41462,2.534,2.53556,2.53556,0,0,0,3.41547-.72187A2.44081,2.44081,0,0,0,36.9697,44.772c-1.19134-1.16661-2.385-2.3351-3.64139-3.42974a4.22748,4.22748,0,0,1-1.54152-3.34407,17.40747,17.40747,0,0,1,.53879-5.16529c0.70458-2.092,2.57468-3.16283,4.75389-3.46477a4.73876,4.73876,0,0,1,5.13322,2.19656c0.86877,1.41737,1.78755,2.80453,2.637,4.23316A6.03806,6.03806,0,0,0,49.11961,38.95453Zm0.99145,41.157c1.77155,3.575,5.52164,4.47383,7.56027,2.14945a6.77272,6.77272,0,0,0,1.75095-5.91348,60.83856,60.83856,0,0,1-.72053-6.61182,6.96037,6.96037,0,0,1,1.934-5.20677c1.63255-1.819,2.70249-1.99119,4.7856-.63433A13.39672,13.39672,0,0,1,67.84277,66.119c0.9635,1.04657,1.87156,2.15,2.7338,3.28205,0.614,0.80621,1.1132,1.69994,1.91248,2.941l-2.69025-.61393c0.144,2.84306,2.62438,3.84221,3.83575,5.6916a4.34657,4.34657,0,0,1-1.34151-.5894c-0.36761-.2254-0.72125-0.47357-1.08108-0.71169l-0.34085.38357a9.18676,9.18676,0,0,0,1.452,1.499,7.28911,7.28911,0,0,1,3.5478,4.54436,2.21463,2.21463,0,0,0,.7964.84262c0.56995,0.4277,1.17834.80453,1.774,1.19755a5.54791,5.54791,0,0,0,7.15643-.876,24.763,24.763,0,0,0,1.79851-2.22229c3.13481-4.4376,2.2633-10.79136-1.636-13.48034-1.6394-1.13054-3.744-1.59738-5.65475-2.31918a17.16361,17.16361,0,0,1-3.11024-1.05025,42.83767,42.83767,0,0,1-4.96521-3.7002A6.37655,6.37655,0,0,1,70.029,58.34679c-1.33114-4.10419-.33412-7.43068,3.01414-10.74839a15.57284,15.57284,0,0,1,6.6994-3.46265,12.00881,12.00881,0,0,0,5.32973-3.46769c1.78776-1.92875,1.82851-3.62533.26635-5.7188-0.14244-.19089-0.28582-0.38166-0.41742-0.58a6.85864,6.85864,0,0,0-7.61576-2.73621c0.16343,0.75114.32733,1.50453,0.50827,2.33628l-1.35489.50941c-0.55675-.60048-1.04415-1.12619-1.53155-1.6519l-0.28017.20272,1.22446,2.3568-0.30482.29-1.71148-1.33014c-1.05184,1.1386.21648,1.12892,0.567,1.56729a2.62705,2.62705,0,0,1,.19348.81164l-2.1403-.6089A7.72872,7.72872,0,0,0,71.646,37.9068a6.55083,6.55083,0,0,0,.17774,1.82054l-1.37206-.32555-0.20657,1.562-1.78438.12788,0.87235,1.16754a36.731,36.731,0,0,0-3.7917-.15111c-3.87393.2259-6.484-1.81025-7.28564-5.64213a15.06347,15.06347,0,0,1,.44365-7.2867c0.92977-3.27765,2.16831-6.46749,3.10578-9.74326a11.63711,11.63711,0,0,0,.41882-4.20318A5.7477,5.7477,0,0,0,57.04667,9.899l0.34423,2.49975C56.13249,10.243,56.13249,10.243,54.68374,9.66394c0.624,1.44084,1.131,2.61117,1.74389,4.02639l-1.622-.89262c-1.43612,1.28533.60816,2.36592,0.153,3.81208L53.181,14.35561c-0.87533,1.3054.64483,2.04552,0.22758,3.14373-0.5153-.47435-0.98323-0.90506-1.792-1.64949,0.16057,0.99109.242,1.49334,0.31972,1.97321a2.67957,2.67957,0,0,0-1.25317.67823,2.51983,2.51983,0,0,0,.22866,1.277l-2.17446.90289,1.19385,2.69507-1.54592-.82672a4.80262,4.80262,0,0,0,.00848.80132,3.59754,3.59754,0,0,0,.27506.90492c1.82215,3.72786,3.27851,7.51507,3.1964,11.80271a8.15611,8.15611,0,0,1-.41722,3.20045c-0.3389.789-.51553,1.8309-1.63033,1.7958-1.303-.041-2.90361.1397-3.831-0.52967a9.53635,9.53635,0,0,1-3.53054-4.67363,9.69757,9.69757,0,0,0-1.7701-2.78184,28.92683,28.92683,0,0,0-2.38828-2.33553c-0.55473.02967-1.69941-.78548-2.48418,0.96657l1.98914-.325,0.95015,2.091c-1.20332.90024-1.20332,0.90024-.88393,2.77016H36.23647c0.19986,0.47467.33954,0.73918,0.42095,1.02057a9.25026,9.25026,0,0,1,.13825,1.11809c-0.712-.65212-1.08909-1.04614-1.52179-1.36479a1.76907,1.76907,0,0,0-.78325.03469c0.29786,0.63627.54194,1.15766,0.857,1.83055H34.05073A7.52786,7.52786,0,0,0,36.739,42.97444,10.28108,10.28108,0,0,1,38.28783,44.45c1.35734,1.70967,1.03141,5.05212-.63792,6.302-1.34492,1.00695-2.86117,1.49333-4.4528.59817a25.82289,25.82289,0,0,1-2.91518-2.00328c-1.20108-.913-2.35552-1.88744-3.53-2.83539l-0.43672.3541q0.591,1.17923,1.1807,2.35589l-1.67432.54175c0.45992,0.76894.82878,1.34821,1.15173,1.952a2.46479,2.46479,0,0,1,.012.81549l-1.61733-1.05344c-1.12844,1.04686.54182,1.69667,0.1924,2.642l-2.67145-1.79433a8.40644,8.40644,0,0,0,.39282,1.39312c1.27715,2.192,4.96952,3.46008,7.568,2.54712a6.97619,6.97619,0,0,1,4.171-.56159c1.85894,0.483,2.39111,1.10994,2.3531,3.01489a6.14814,6.14814,0,0,1-3.68494,5.69409,91.06034,91.06034,0,0,1-9.19045,3.195c-1.71856.5666-3.4631,1.05447-5.3891,1.63618,0.3918,1.26678.72364,2.33965,1.05549,3.41253l-0.40774.16677c-0.54252-1.07352-1.085-2.147-1.73451-3.43218-0.72982.8882-2.49432,0.59184-2.02723,2.62235l1.51809-.7612,1.95585,3.41288c-0.80543-.35877-1.17674-0.52417-1.65415-0.73681l-1.91627,2.37282c0.29448,0.6258.58065,1.2339,0.86682,1.842l-0.26026.19527-1.47518-1.26527a7.98458,7.98458,0,0,0-1.165,2.41591,9.32887,9.32887,0,0,0,.67835,2.77008l-1.12687-.80937c-0.91695.62492-1.78694,1.21784-2.73237,1.86219a12.23343,12.23343,0,0,1,1.092,1.80456c0.276,0.688.24315,1.50608,0.54736,2.17549,0.93505,2.05758,4.83856,3.48777,7.06805,2.57063a16.36045,16.36045,0,0,0,7.5027-5.64372c3.83627-5.44966,7.76025-10.83831,11.70337-16.21152a55.47242,55.47242,0,0,1,4.08394-4.95892c1.96655-2.11441,4.60442-1.96259,7.13022-1.60716a3.44513,3.44513,0,0,1,2.73158,3.66644,7.22059,7.22059,0,0,1-.62384,2.99383,2.4727,2.4727,0,0,0-.06756,2.44807,5.516,5.516,0,0,0-1.42149,1.11206,13.61077,13.61077,0,0,0-.49078,1.76642c-1.15086,2.799-.74719,4.69911,1.46778,6.69008a4.16765,4.16765,0,0,1,.62548.69621,0.91,0.91,0,0,1-.11959.42647Zm-0.9143-61.99829A32.64167,32.64167,0,0,1,50.86989,15.205c0.69817-.98164,1.55344-1.85156,2.44113-2.88806C50.731,12.32931,49.36474,14.20345,49.19676,18.11325ZM16.71446,73.18157a5.09885,5.09885,0,0,0-3.96,4.738Zm19.9122-39.5995-0.48032-.40043c-0.98035.40387-1.39371,1.12744-.88092,2.40407Q35.94607,34.58389,36.62666,33.58207ZM70.27483,71.003l0.43092-.4373L69.37531,69.453l-0.3166.33907Q69.66674,70.3975,70.27483,71.003Z"></path><path d="M52.118,75.15879c-0.62813-.13612-1.81288.1352-1.354-1.25323Z"></path><path d="M22.50341,72.1614q-0.59273-.74165-1.18543-1.48331l0.34709-.30251,1.25506,1.4608Z"></path><path d="M73.16853,37.65386l0.53488,1.52708-0.48953.19319q-0.29682-.76041-0.59362-1.52083Z"></path><path d="M15.07676,78.978l0.95067,1.43548-0.38361.27093q-0.55552-.67149-1.11107-1.343Z"></path><path d="M13.07447,84.80722a4.65308,4.65308,0,0,1-.66584-0.60165,0.81115,0.81115,0,0,1-.00787-0.91664l1.02275,1.22293Z"></path></g></svg>