<?xml version="1.0" encoding="utf-8"?>
<!-- Generator: Adobe Illustrator 24.2.1, SVG Export Plug-In . SVG Version: 6.00 Build 0)  -->
<svg version="1.1" id="Layer_1" xmlns="http://www.w3.org/2000/svg" xmlns:xlink="http://www.w3.org/1999/xlink" x="0px" y="0px"
	 viewBox="0 0 100 100" enable-background="new 0 0 100 100" xml:space="preserve">
<g>
	<path fill-rule="evenodd" clip-rule="evenodd" d="M19.52,51.351h17.117c1.201,0,2.402,1.201,2.402,2.703v8.408
		c0,1.501-1.201,2.703-2.402,2.703H19.52c-1.502,0-2.703-1.201-2.703-2.703v-8.408C16.817,52.553,18.018,51.351,19.52,51.351z
		 M61.261,21.321l-8.408,8.108c-0.3,0.3-0.3,0.601,0,0.901l1.502,1.802l-5.405,0.601l-3.604,3.604l9.309,9.61l3.604-3.303
		l0.901-5.405l0.601,0.601c0.601,0.901,1.802,0.901,2.703,0l0.3-0.3l8.709,9.309l0.601,3.303l15.015,16.216l8.408-7.808
		L80.18,42.342l-3.303-0.601l-8.709-9.309l1.201-0.901c0.601-0.601,0.601-1.201,0-1.802l-3.303-3.604
		c0.901-3.904,2.402-6.607,6.907-8.108C66.366,17.718,65.165,18.018,61.261,21.321z M78.378,46.847l10.811,11.712l-1.501,1.501
		L76.577,48.348L78.378,46.847z M7.207,68.468h17.117c1.502,0,2.703,1.201,2.703,2.703v8.408c0,1.501-1.201,2.703-2.703,2.703H7.207
		c-1.502,0-2.402-1.201-2.402-2.703v-8.408C4.805,69.67,5.706,68.468,7.207,68.468z M45.646,51.351h17.117
		c1.502,0,2.402,1.201,2.402,2.703v8.408c0,1.501-0.901,2.703-2.402,2.703H45.646c-1.501,0-2.703-1.201-2.703-2.703v-8.408
		C42.943,52.553,44.144,51.351,45.646,51.351z M33.333,68.468H50.45c1.501,0,2.703,1.201,2.703,2.703v8.408
		c0,1.501-1.201,2.703-2.703,2.703H33.333c-1.201,0-2.402-1.201-2.402-2.703v-8.408C30.931,69.67,32.132,68.468,33.333,68.468z"/>
</g>
</svg>
