<svg height='100px' width='100px'  fill="#000000" xmlns="http://www.w3.org/2000/svg" data-name="Layer 1" viewBox="0 0 128 128" x="0px" y="0px"><title>shopping and retail 02 SOLID</title><path d="M94,0H34a8.009,8.009,0,0,0-8,8V120a8.009,8.009,0,0,0,8,8H94a8.009,8.009,0,0,0,8-8V8A8.009,8.009,0,0,0,94,0Zm4,114a2.13022,2.13022,0,0,1-2.23535,2H32.23535A2.13022,2.13022,0,0,1,30,114V8a4,4,0,0,1,4-4H50.00824a3.98939,3.98939,0,0,0,.66357,2.21881l2.66669,4A3.99993,3.99993,0,0,0,56.66669,12H71.33337a4,4,0,0,0,3.32819-1.78119l2.66663-4A3.98946,3.98946,0,0,0,77.99182,4H94a4,4,0,0,1,4,4Z"></path><path d="M64,35.25A28.75,28.75,0,1,0,92.75,64,28.74767,28.74767,0,0,0,64,35.25ZM80.94,66.26l-15,8a1.95581,1.95581,0,0,1-1.97-.05A1.99737,1.99737,0,0,1,63,72.5v-8a2,2,0,0,1,4,0v4.67l8.9-4.75L58,53.98V74.26l1.11-.55a1.99906,1.99906,0,0,1,1.78,3.58l-4,2a1.989,1.989,0,0,1-1.94-.09A1.9968,1.9968,0,0,1,54,77.5v-27a1.979,1.979,0,0,1,1-1.73,2.00551,2.00551,0,0,1,2.01,0l24,14A2.02568,2.02568,0,0,1,82,64.54,1.98746,1.98746,0,0,1,80.94,66.26Z"></path></svg>