<svg height='100px' width='100px'  fill="#000000" xmlns="http://www.w3.org/2000/svg" xmlns:xlink="http://www.w3.org/1999/xlink" version="1.1" x="0px" y="0px" viewBox="0 0 100 100" style="enable-background:new 0 0 100 100;" xml:space="preserve"><style type="text/css">
	.st0{fill-rule:evenodd;clip-rule:evenodd;}
</style><path class="st0" d="M90.1,56.3c-2.7,1.7-4.2,2-6.3,1.2c3.6-4.3,7.8-4.6,12.2-3.7c-5-2.6-10-2.7-14.3,2.5c-0.6-0.5-1.4-0.8-2-1.1  c2.6-4,5.7-4.3,9-4.9c-4-0.5-7.6-0.5-10.9,4.1c-2.1-0.8-4-0.8-6.4,0.7c-5-2.4-7.5,1.8-10.3,6.7c0.5,0,1.1,0.2,1.5,0.3  c1.9-3.1,3.9-5.7,6.6-5.3c-1.2,1.1-2.4,3.1-3.9,5.5c2.9-0.7,5.6-1.3,7.4,0.1c-5.7,5.6-13.9-4-17.4,4.5c0.9-1.5,1.6-1.9,2.4-2.1  c0.7-0.1,1.3-0.2,1.9-0.1c-1.6,2.7-3.6,5.4-6.4,7.4c4.6-1.2,6.1-4.3,8-7.2c0.7,0,1.4,0.2,2,0.4c-4.8,8.3-8.4,7.8-12,8.1  c3.9,0.9,7.6,2.1,14-7.3c2.4,0.6,5.1,0.8,10-2.1c0.8-0.7,1.5-0.5,2.5-0.5c-1.2-2.8-3.9-4-7.1-4.4c2.8-1.7,4.5-5.5,11.6,0.2  c-1.6,0.8-3.4,0.5-5.5-0.3C82.1,64.7,88.9,60.1,90.1,56.3L90.1,56.3z M11.9,56.3c2.7,1.7,4.2,2,6.3,1.2c-3.6-4.3-7.8-4.6-12.2-3.7  c5-2.6,10-2.7,14.3,2.5c0.6-0.5,1.4-0.8,2-1.1c-2.6-4-5.7-4.3-9-4.9c4-0.5,7.6-0.5,10.9,4.1c2.1-0.8,4-0.8,6.4,0.7  c5-2.4,7.5,1.8,10.3,6.7c-0.5,0-1.1,0.2-1.5,0.3c-1.9-3.1-3.9-5.7-6.6-5.3c1.2,1.1,2.4,3.1,3.9,5.5c-2.9-0.7-5.6-1.3-7.4,0.1  c5.7,5.6,13.9-4,17.4,4.5c-0.9-1.5-1.6-1.9-2.4-2.1c-0.7-0.1-1.3-0.2-1.9-0.1c1.6,2.7,3.6,5.4,6.4,7.4c-4.6-1.2-6.1-4.3-8-7.2  c-0.7,0-1.4,0.2-2,0.4c4.8,8.3,8.4,7.8,12,8.1c-3.9,0.9-7.6,2.1-14-7.3c-2.4,0.6-5.1,0.8-10-2.1c-0.8-0.7-1.5-0.5-2.5-0.5  c1.2-2.8,3.9-4,7.1-4.4c-2.8-1.7-4.5-5.5-11.6,0.2c1.6,0.8,3.4,0.5,5.5-0.3C19.9,64.7,13.1,60.1,11.9,56.3L11.9,56.3z M90.1,43.7  c-2.7-1.7-4.2-2-6.3-1.2c3.6,4.3,7.8,4.6,12.2,3.7c-5,2.6-10,2.7-14.3-2.5c-0.6,0.5-1.4,0.8-2,1.1c2.6,4,5.7,4.3,9,4.9  c-4,0.5-7.6,0.5-10.9-4.1c-2.1,0.8-4,0.8-6.4-0.7c-5,2.4-7.5-1.8-10.3-6.7c0.5,0,1.1-0.2,1.5-0.3c1.9,3.1,3.9,5.7,6.6,5.3  c-1.2-1.1-2.4-3.1-3.9-5.5c2.9,0.7,5.6,1.3,7.4-0.1c-5.7-5.6-13.9,4-17.4-4.5c0.9,1.5,1.6,1.9,2.4,2.1c0.7,0.1,1.3,0.2,1.9,0.1  c-1.6-2.7-3.6-5.4-6.4-7.4c4.6,1.2,6.1,4.3,8,7.2c0.7,0,1.4-0.2,2-0.4c-4.8-8.3-8.4-7.8-12-8.1c3.9-0.9,7.6-2.1,14,7.3  c2.4-0.6,5.1-0.8,10,2.1c0.8,0.7,1.5,0.5,2.5,0.5c-1.2,2.8-3.9,4-7.1,4.4c2.8,1.7,4.5,5.5,11.6-0.2c-1.6-0.8-3.4-0.5-5.5,0.3  C82.1,35.3,88.9,39.9,90.1,43.7L90.1,43.7z M11.9,43.7c2.7-1.7,4.2-2,6.3-1.2c-3.6,4.3-7.8,4.6-12.2,3.7c5,2.6,10,2.7,14.3-2.5  c0.6,0.5,1.4,0.8,2,1.1c-2.6,4-5.7,4.3-9,4.9c4,0.5,7.6,0.5,10.9-4.1c2.1,0.8,4,0.8,6.4-0.7c5,2.4,7.5-1.8,10.3-6.7  c-0.5,0-1.1-0.2-1.5-0.3c-1.9,3.1-3.9,5.7-6.6,5.3c1.2-1.1,2.4-3.1,3.9-5.5c-2.9,0.7-5.6,1.3-7.4-0.1c5.7-5.6,13.9,4,17.4-4.5  c-0.9,1.5-1.6,1.9-2.4,2.1c-0.7,0.1-1.3,0.2-1.9,0.1c1.6-2.7,3.6-5.4,6.4-7.4c-4.6,1.2-6.1,4.3-8,7.2c-0.7,0-1.4-0.2-2-0.4  c4.8-8.3,8.4-7.8,12-8.1c-3.9-0.9-7.6-2.1-14,7.3c-2.4-0.6-5.1-0.8-10,2.1c-0.8,0.7-1.5,0.5-2.5,0.5c1.2,2.8,3.9,4,7.1,4.4  c-2.8,1.7-4.5,5.5-11.6-0.2c1.6-0.8,3.4-0.5,5.5,0.3C19.9,35.3,13.1,39.9,11.9,43.7z"></path></svg>