<svg height='100px' width='100px'  fill="#000000" xmlns="http://www.w3.org/2000/svg" xmlns:xlink="http://www.w3.org/1999/xlink" version="1.1" x="0px" y="0px" viewBox="0 0 100 100" enable-background="new 0 0 100 100" xml:space="preserve"><path d="M74.75,12.751c-6.611-6.61-15.398-10.25-24.748-10.25c-9.351,0-18.141,3.64-24.752,10.25C18.641,19.362,15,28.152,15,37.501  c0,6.32,1.462,11.617,4.597,16.668c2.771,4.463,6.483,8.147,10.416,12.051c7.251,7.195,15.471,15.354,18.974,30.474  c0.109,0.475,0.531,0.808,1.016,0.808c0.482,0,0.904-0.333,1.013-0.808c3.502-15.119,11.726-23.275,18.978-30.474  c3.93-3.901,7.646-7.588,10.411-12.051C83.539,49.118,85,43.821,85,37.501C85,28.152,81.361,19.362,74.75,12.751z M50.002,64.77  c-15.037,0-27.271-12.229-27.271-27.268s12.233-27.271,27.271-27.271c15.035,0,27.27,12.234,27.27,27.271S65.037,64.77,50.002,64.77  z"></path><path d="M46.808,45.342c0.717-1.023,1.112-2.379,1.112-3.818c0-0.918-0.166-1.826-0.479-2.626c-0.045-0.109-0.146-0.178-0.265-0.178  h-0.138c-0.094,0-0.181,0.045-0.233,0.123c-0.055,0.077-0.065,0.179-0.027,0.267c0.253,0.628,0.395,1.335,0.433,2.065h-6.433  c0.036-0.729,0.179-1.437,0.431-2.064c0.037-0.089,0.025-0.191-0.024-0.265c-0.052-0.079-0.143-0.126-0.238-0.126H40.81  c-0.115,0-0.223,0.073-0.267,0.179c-0.313,0.801-0.479,1.709-0.479,2.625c0,1.438,0.396,2.793,1.112,3.818  c0.646,0.924,1.502,1.495,2.424,1.621v3.564l-2.728,0.354c-0.142,0.021-0.248,0.145-0.248,0.369c0,0.16,0.129,0.286,0.285,0.286  h6.164c0.156,0,0.285-0.126,0.285-0.372c0-0.143-0.105-0.264-0.249-0.283l-2.728-0.354v-3.564  C45.307,46.837,46.163,46.267,46.808,45.342z"></path><rect x="53.039" y="20.643" width="4.09" height="3.567"></rect><path d="M57.129,28.275v-3.196h-4.09v3.194c-1.707,0.793-2.808,2.514-2.808,4.395v18.869h9.704V32.668  C59.936,30.787,58.832,29.068,57.129,28.275z M59.043,44.824h-7.919v-8.236h7.919V44.824z"></path></svg>