<svg height='100px' width='100px'  fill="#000000" xmlns="http://www.w3.org/2000/svg" xmlns:xlink="http://www.w3.org/1999/xlink" version="1.1" x="0px" y="0px" viewBox="0 0 100 100" enable-background="new 0 0 100 100" xml:space="preserve"><path fill-rule="evenodd" clip-rule="evenodd" d="M58.887,37.568c1.42-0.311,3.102-0.172,5.047,0.414  c1.172,0.375,2.545,0.93,4.119,1.67l1.805,0.926c0.525,0.311,1.037,0.678,1.529,1.111c0.801,0.709,1.467,1.514,1.99,2.408  c0.217-0.031,0.465-0.031,0.74,0c1.174,0.092,2.455,0.416,3.842,0.973l2.455,1.246l1.945,1.391c0.338,0.371,0.539,0.57,0.6,0.604  c0.928,0.896,1.652,1.93,2.178,3.1l0.184,0.416c0.125,0.248,0.201,0.418,0.234,0.51c0.184,0.529,0.275,0.85,0.275,0.973l0.186,0.975  c0.031,0.123,0.078,0.492,0.139,1.109c0,0.494,0,1.154,0,1.994c-0.061,0.893-0.074,1.512-0.045,1.848  c0.029,0.434,0.045,0.697,0.045,0.789l0.141,0.787c0.092,0.43,0.154,0.678,0.186,0.74c0.09,0.213,0.184,0.432,0.277,0.645  c0.369,0.746,0.957,1.086,1.758,1.021c0.371,0,0.678-0.061,0.926-0.186c0.217-0.123,0.385-0.369,0.51-0.74  c0.029,0,0.156-0.354,0.369-1.064c0.158-0.494,0.328-0.895,0.51-1.203c0.311-0.311,0.602-0.541,0.881-0.695  c0.34-0.123,0.635-0.184,0.879-0.184c0.465,0.061,0.834,0.184,1.111,0.369c0.217,0.123,0.309,0.217,0.279,0.279  c-0.033,0.027-0.156,0.043-0.371,0.043c-0.34,0-0.646,0.016-0.928,0.047c-0.092,0.033-0.168,0.063-0.23,0.092  c-0.309,0.281-0.479,0.525-0.512,0.74c0,0.123,0,0.373,0,0.744c0.064,0.615,0.096,0.939,0.096,0.971v0.648l-0.096,0.742  c-0.09,0.275-0.168,0.506-0.229,0.691c-0.154,0.342-0.279,0.557-0.369,0.65c-0.094,0.184-0.277,0.389-0.557,0.602  c-0.277,0.34-0.48,0.541-0.602,0.602c-0.432,0.248-0.941,0.492-1.527,0.74c-0.527,0.125-1.082,0.217-1.668,0.277  c-0.617,0.066-1.217,0.078-1.805,0.049c-1.48-0.063-2.746-0.418-3.797-1.066c-0.68-0.402-1.268-0.896-1.76-1.48  c-0.494-0.617-0.85-1.359-1.066-2.223c-0.152-0.588-0.246-1.314-0.275-2.178L78.191,58.4c0-2.158,0-3.424,0-3.795  c-0.029-2.713-0.34-4.738-0.926-6.066c-0.309-0.736-0.711-1.326-1.203-1.758c-0.371-0.369-0.834-0.619-1.389-0.742  c-0.184-0.088-0.402-0.154-0.646-0.184c0.057,0.307,0.09,0.619,0.09,0.926c0,0.557-0.105,1.082-0.322,1.578  c-0.154,0.338-0.248,0.49-0.277,0.457c-0.064,0-0.064-0.184,0-0.555c0-0.277,0.016-0.492,0.043-0.646  c0.033-0.063,0.018-0.17-0.043-0.324c0-0.188,0-0.354,0-0.51c-0.096-0.619-0.373-1.264-0.834-1.943  c-0.523-0.805-1.191-1.531-1.994-2.178c-0.4-0.307-0.877-0.602-1.434-0.879L67.5,41.039c-1.637-0.707-2.965-1.201-3.986-1.479  c-1.693-0.436-3.145-0.51-4.35-0.23c-0.525,0.121-1.297,0.367-2.316,0.74c-1.078,0.43-1.988,0.707-2.73,0.832  c-0.77,0.154-1.682,0.201-2.732,0.137c-0.461-0.029-0.908-0.076-1.342-0.137l-1.344-0.232c-0.645-0.154-1.203-0.371-1.666-0.646  c-0.461-0.186-0.939-0.48-1.434-0.883c-1.113-0.953-1.914-1.621-2.408-1.986l-0.604-0.42c-0.273-0.184-0.445-0.291-0.506-0.324  c-0.371-0.211-0.805-0.4-1.297-0.557c-0.557-0.275-0.988-0.459-1.299-0.553c-0.523-0.217-0.971-0.416-1.342-0.604  c-0.463-0.246-0.895-0.557-1.295-0.926c-0.277-0.307-0.463-0.49-0.557-0.555l-1.76-2.914c-0.803-1.514-1.617-2.826-2.451-3.936  c-0.402-0.557-0.803-1.053-1.205-1.482l-1.25-1.346c-0.773-0.738-1.449-1.357-2.037-1.852c-0.586-0.4-1.113-0.664-1.576-0.787  c-0.031,0.123-0.061,0.234-0.09,0.326c-0.029,0.061-0.076,0.09-0.141,0.09c-0.094-0.029-0.184-0.139-0.277-0.322  c-0.184-0.244-0.34-0.447-0.463-0.604l-0.832-1.203l-0.141-0.045h-0.047v1.113c0.125,0.738,0.094,1.141-0.09,1.199  c-0.096,0.033-0.219-0.031-0.373-0.184c-0.092-0.123-0.199-0.277-0.324-0.463c-0.029,0.125-0.184,0.203-0.461,0.232l-1.992,1.945  l-1.805,1.342l-0.092,0.09l-0.092-0.09l0.045,0.229v0.141l0.094,0.465c0.061,0.186,0.09,0.416,0.09,0.691c0,0.188,0,0.324,0,0.418  l-0.137,0.373c-0.217,0.678-0.711,1.416-1.482,2.221c-0.061,0.029-0.34,0.322-0.834,0.881c-0.369,0.367-0.646,0.68-0.834,0.926  c-0.553,0.707-0.803,1.357-0.738,1.943l0.186,0.602l0.184,0.326c0.031,0.059,0.09,0.139,0.186,0.229  c0.096,0.154,0.246,0.324,0.461,0.51c0.125,0.094,0.328,0.277,0.604,0.555l0.277,0.234c0.031,0,0.047,0.014,0.047,0.045h0.045  l0.049-0.045l1.25-0.975c1.018-0.805,1.836-1.326,2.453-1.572l1.389-0.418c0.123,0,0.51,0,1.156,0c0.217,0,0.555,0,1.02,0  l0.416-0.045c0.092-0.031,0.201-0.063,0.324-0.096c0.34-0.123,0.695-0.396,1.064-0.83c0.588-0.65,0.912-0.945,0.973-0.879  c0.061,0.088-0.107,0.521-0.508,1.297c-0.279,0.367-0.59,0.707-0.926,1.016c1.076,1.42,1.912,3.318,2.498,5.693  c0.092,0.434,0.23,1.096,0.416,1.992l0.141,1.156c0.061,0.371,0.092,0.74,0.092,1.111c0.033,0.742-0.016,1.561-0.137,2.455  c-0.127,0.586-0.295,1.404-0.512,2.453c-0.154,0.955-0.295,1.791-0.418,2.498l-0.045,1.16c0.033,0.492,0.063,0.928,0.096,1.295  c0.027,0.277,0.09,0.744,0.184,1.391c0.092,0.553,0.154,1.047,0.184,1.48c0,0.68-0.018,1.219-0.045,1.619  c-0.094,0.496-0.156,0.775-0.186,0.834l-0.232,0.789c-0.031,0.031-0.047,0.088-0.047,0.184l1.391-1.434  c0.184-0.311,0.293-0.494,0.326-0.561c0.152-0.15,0.244-0.273,0.275-0.367l0.23-0.553c0.033-0.188,0.078-0.346,0.141-0.467  c0.031-0.275,0.045-0.633,0.045-1.063c-0.031-0.496-0.045-0.848-0.045-1.066c-0.063-0.834-0.047-1.541,0.045-2.127  c0.031-0.186,0.125-0.48,0.277-0.883c0.092-0.15,0.215-0.34,0.371-0.553l0.373-0.512c0.15-0.092,0.258-0.154,0.322-0.186  c0.154-0.15,0.262-0.182,0.322-0.094c0.031,0.033,0,0.125-0.092,0.279l-0.461,1.434c-0.064,0.373-0.092,0.59-0.092,0.648  c0,0.434,0.057,1.051,0.184,1.854c0.09,0.619,0.139,0.988,0.139,1.113c0.059,0.494,0.076,0.957,0.045,1.389  c-0.029,0.4-0.076,0.646-0.139,0.736l-0.045,0.377l-0.184,0.414c-0.033,0.123-0.156,0.338-0.373,0.646  c-0.094,0.123-0.246,0.342-0.463,0.648c0,0.029-0.324,0.418-0.973,1.158c-0.371,0.338-0.631,0.664-0.787,0.971l-0.137,0.23  l-0.188,0.559c0,0.059-0.018,0.154-0.045,0.277c0,0.307,0.027,0.758,0.092,1.34l0.229,1.621c0.033,0.404,0.064,0.957,0.096,1.67  c0.094,1.633,0.154,2.576,0.186,2.82l0.092,0.65c0.033,0.125,0.076,0.279,0.139,0.461c0.063,0.125,0.123,0.248,0.186,0.373  c0.092,0.123,0.17,0.199,0.234,0.232c0.123,0.061,0.43,0.166,0.924,0.324c0.555,0.186,0.926,0.305,1.111,0.367  c0.428,0.248,0.957,0.666,1.574,1.252l1.713,1.48c0.061,0,0.09,0.018,0.09,0.047v-0.047c0.063-0.121,0.111-0.25,0.139-0.371  c0.127-0.432,0.188-0.926,0.188-1.48c-0.031-0.4-0.078-0.725-0.139-0.971c-0.031-0.189-0.076-0.342-0.141-0.467  c-0.061-0.061-0.152-0.104-0.277-0.135c-0.154-0.033-0.352-0.063-0.6-0.094l-0.695-0.094c-0.648,0-1.189,0-1.621,0  c-0.402,0-0.771-0.074-1.111-0.232c-0.371-0.186-0.693-0.479-0.971-0.877c-0.156-0.311-0.295-0.711-0.418-1.205  c-0.092-0.432-0.156-0.785-0.186-1.064c-0.123-0.738-0.201-1.496-0.23-2.268c-0.031-1.111,0.014-1.977,0.139-2.594  c0.029-0.121,0.092-0.354,0.186-0.695l0.416-0.785c0.279-0.311,0.633-0.633,1.064-0.975c0.586-0.402,1.391-0.77,2.41-1.111  l2.313-0.877c0.928-0.402,1.775-0.729,2.547-0.975c1.018-0.242,1.93-0.369,2.732-0.369c0.832,0,1.74,0.109,2.73,0.324  c0.369,0.154,1.156,0.418,2.361,0.787c0.863,0.277,1.572,0.479,2.129,0.604c0.678,0.123,1.328,0.166,1.943,0.137  c0.619,0,1.281-0.061,1.99-0.186c0.59-0.152,1.746-0.506,3.475-1.064c1.326-0.492,2.391-0.725,3.195-0.693  c0.832,0.029,1.617,0.289,2.359,0.785l0.141,0.049c0.215-0.584,0.385-1.035,0.508-1.342c0.371-1.053,0.648-1.793,0.834-2.225  c0.434-0.955,0.68-1.482,0.742-1.576c0.459-0.861,0.754-1.279,0.879-1.246c0.092,0.057,0.014,0.57-0.232,1.525  c-0.617,2.348-0.955,3.658-1.02,3.936c-0.309,1.109-0.816,3.072-1.525,5.877l-1.111,3.43l-0.879,1.898  c-0.064,0.156-0.172,0.307-0.326,0.461L58.332,68.4c-0.186,0.217-0.311,0.402-0.373,0.557l-0.322,1.807l-0.139,0.324l-0.879,1.574  c-0.527,0.803-1.268,1.744-2.225,2.826l-3.193,3.33c-0.34,0.402-0.682,0.709-1.018,0.928c-0.402,0.307-1.174,1.389-2.316,3.242  c-0.188,0-0.402,0-0.646,0c-0.156,0-0.309,0-0.465,0c-0.709,0-1.436,0-2.176,0c-10.896,0-20.324-0.08-28.287-0.23  c0.186-1.641,0.293-2.518,0.324-2.643c0.154-0.615,0.369-1.08,0.648-1.389c0.246-0.277,0.525-0.492,0.834-0.646  c0.027,0,0.293-0.08,0.787-0.232l0.232-0.092c0.029-0.031,0.059-0.092,0.09-0.188l0.141-0.092l0.275-0.508  c0.188-0.279,0.436-0.834,0.744-1.67c0.152-0.428,0.277-0.77,0.369-1.018l1.527-2.918l2.965-4.443  c0.584-0.711,1.063-1.217,1.434-1.527l-0.23-2.221c-0.127-0.711-0.156-1.279-0.094-1.713c-0.311,0.523-0.727,1.279-1.25,2.268  l-2.268,4.49c-0.186,0.494-0.418,1.266-0.695,2.314c-0.309,0.957-0.604,1.727-0.881,2.314c-0.434,0.744-0.877,1.359-1.342,1.854  c-0.588,0.617-1.08,1.111-1.48,1.48c-0.217,0.189-0.662,0.572-1.344,1.158c-0.525,0.4-0.908,0.725-1.156,0.973  c-0.65,0.584-1.113,1.234-1.389,1.941c-0.096,0.158-0.248,0.975-0.465,2.459c-0.803-0.064-1.561-0.096-2.268-0.096  c-7.717-0.523-7.717-1.049,0-1.574c0.584,0,1.203-0.016,1.852-0.043v-0.051c0.063-0.461,0.139-0.803,0.232-1.016  c0.246-0.805,0.678-1.592,1.297-2.363c0.307-0.309,0.693-0.695,1.158-1.158c0.553-0.553,0.986-0.955,1.293-1.201  c0.342-0.402,0.758-0.883,1.252-1.438c0.34-0.432,0.678-0.986,1.018-1.664c0.217-0.494,0.434-1.188,0.648-2.084  c0.43-1.482,0.664-2.285,0.693-2.408l0.234-0.646c0.09-0.279,0.152-0.48,0.184-0.604l1.896-3.613  c1.207-2.096,2.008-3.766,2.406-4.998l0.141-0.275l0.186-0.881c0.031-0.311,0.047-0.711,0.047-1.205c0-0.369-0.047-0.82-0.141-1.342  c-0.061-0.617-0.121-1.082-0.186-1.391c-0.061-0.645-0.09-1.154-0.09-1.525l0.09-1.438c0.125-0.832,0.311-1.713,0.559-2.637  c0.461-2.039,0.693-3.551,0.693-4.539c0-0.277,0-0.617,0-1.018l-0.094-1.063c-0.063-0.682-0.152-1.332-0.275-1.947  c-0.404-2.189-1.02-4.027-1.854-5.506l-0.047-0.096h-0.09l-0.463,0.139l-1.113,0.186c-0.555,0.033-0.926,0.064-1.111,0.092  c-0.4,0.063-0.738,0.172-1.018,0.324l-1.02,0.648c-0.121,0.061-0.307,0.201-0.557,0.416l-1.896,1.574l-0.324,0.188  c-0.248,0.123-0.479,0.152-0.695,0.092c-0.154-0.063-0.367-0.186-0.646-0.369l-0.279-0.23c-0.275-0.217-0.492-0.406-0.65-0.557  c-0.246-0.217-0.461-0.42-0.643-0.605l-0.467-0.693l-0.092-0.275c-0.152-0.34-0.264-0.68-0.322-1.02  c-0.063-0.588,0.029-1.174,0.277-1.762c0.125-0.367,0.385-0.816,0.785-1.344c0.246-0.275,0.568-0.6,0.977-0.971  c0.365-0.4,0.658-0.693,0.875-0.879c0.617-0.617,1.035-1.176,1.254-1.668l0.041-0.275l-0.041-0.508  c-0.033-0.248-0.049-0.447-0.049-0.605c-0.033-0.273,0-0.525,0.09-0.738c0-0.064,0.018-0.109,0.049-0.141  c0.061-0.123,0.17-0.246,0.322-0.371l0.371-0.322c0.156-0.123,0.373-0.248,0.648-0.371l1.529-1.02  c-0.369-0.305-0.633-0.756-0.789-1.34c-0.215-0.65-0.186-1.225,0.096-1.715c0.09-0.184,0.213-0.307,0.367-0.371  c0.031-0.061,0.08-0.123,0.141-0.188c0.152-0.059,0.387,0.033,0.693,0.283c0.217,0.15,0.51,0.412,0.881,0.783  c0.217,0.217,0.463,0.494,0.74,0.834c0.031,0,0.061,0.016,0.092,0.047c-0.061-0.092-0.092-0.201-0.092-0.324l-0.092-0.322V18.4  l0.23-0.785l0.416-0.604l0.094,0.049l0.23,0.047c0.217,0.059,0.416,0.139,0.602,0.232l0.51,0.504  c0.246,0.311,0.449,0.588,0.604,0.834c0.213,0.434,0.369,0.863,0.463,1.299c0.059,0.184,0.09,0.369,0.09,0.555h0.094  c0.494,0,1.098,0.154,1.807,0.463c0.711,0.402,1.512,0.988,2.406,1.76l1.297,1.205c0.588,0.613,1.049,1.127,1.389,1.525  c0.928,1.08,1.854,2.41,2.779,3.98l0.834,1.391c0.061,0.092,0.123,0.17,0.184,0.23c0.125,0.279,0.215,0.449,0.277,0.508  c0.492,0.682,1.096,1.191,1.805,1.529c0.465,0.217,1.297,0.559,2.5,1.018c0.619,0.217,1.098,0.436,1.438,0.648l1.342,0.834  c0.586,0.404,1.404,1.049,2.453,1.945c0.832,0.619,1.652,1.02,2.453,1.207c1.018,0.213,1.84,0.35,2.455,0.416  c0.895,0.088,1.652,0.057,2.268-0.096h0.096c0.553-0.09,1.34-0.32,2.359-0.695C57.42,37.939,58.299,37.66,58.887,37.568z   M76.664,45.951c0.709,0.43,1.295,1.092,1.76,1.986c0.434,0.742,0.758,1.744,0.971,3.01c0.217,0.99,0.371,2.162,0.465,3.52  c0.029,0.832,0.063,2.131,0.09,3.889c0.035,0.895,0.063,1.576,0.096,2.037c0.061,0.771,0.139,1.371,0.232,1.803  c0.15,0.59,0.4,1.1,0.738,1.531c0.309,0.369,0.709,0.697,1.205,0.977c0.834,0.52,1.854,0.848,3.055,0.969  c0.588,0.061,1.127,0.076,1.621,0.045c0.525-0.029,0.988-0.109,1.389-0.232c0.463-0.059,0.863-0.197,1.203-0.416  c0.123-0.031,0.279-0.152,0.463-0.365c0.217-0.16,0.354-0.279,0.414-0.377c0.127-0.154,0.248-0.338,0.373-0.553  c-0.125,0.154-0.277,0.309-0.463,0.463c-0.154,0.09-0.309,0.17-0.465,0.23c-0.152,0.094-0.275,0.152-0.369,0.186l-0.834,0.184  c-0.678,0.098-1.279-0.014-1.803-0.324c-0.617-0.307-1.113-0.785-1.484-1.434c-0.152-0.275-0.293-0.57-0.414-0.883  c-0.063-0.213-0.156-0.535-0.279-0.969l-0.139-1.018c-0.031-0.186-0.078-0.496-0.139-0.928c0-0.465,0-1.111,0-1.945  c0.061-0.832,0.061-1.449,0-1.85c-0.123-2.193-0.973-4.15-2.547-5.879c-0.215-0.25-0.387-0.447-0.508-0.604l-1.066-0.926  l-2.777-1.762C77.205,46.162,76.941,46.039,76.664,45.951z M75.414,45.348c-0.463-0.158-0.939-0.311-1.436-0.465  c-0.123-0.059-0.215-0.092-0.277-0.092c0.063,0.156,0.123,0.311,0.186,0.463c0.277-0.029,0.588-0.029,0.924,0  C74.998,45.285,75.199,45.316,75.414,45.348z M73.701,48.816c0.063,0,0.094,0.158,0.094,0.465c0,0.369-0.078,0.803-0.234,1.299  l-0.324,0.926c0,0.027-0.166,0.369-0.508,1.02c-0.34,0.615-0.848,1.371-1.527,2.264c-0.461,0.525-1.154,1.346-2.084,2.457  l-0.324,0.32c-0.09,0.586-0.152,1.145-0.184,1.668l0.047,0.928l0.277,1.02c0.215,0.582,0.6,1.264,1.156,2.035  c0.156,0.277,0.4,0.662,0.74,1.158c0.34,0.525,0.602,0.986,0.789,1.389c0.031,0,0.139,0.262,0.324,0.789l0.322,0.879l0.139,0.924  l-0.092,5.51c-0.031,0.742-0.047,1.205-0.047,1.389v1.482l0.139,1.02c0.063,0.584,0.078,1.033,0.049,1.344  c0,0.121-0.018,0.246-0.049,0.367l-0.092,0.326l-0.322,0.693c-0.092,0.123-0.188,0.246-0.279,0.371  c0.926,0.061,1.867,0.09,2.824,0.09c8.27,0.219,12.406,0.512,12.406,0.883c0,0.309-4.137,0.598-12.406,0.881  c-1.697,0.029-3.457,0.059-5.279,0.088c-0.092,0-0.154,0-0.184,0c1.109-1.758,1.713-2.777,1.805-3.053  c0.186-0.367,0.215-0.957,0.092-1.762l-0.279-0.973l-0.09-1.758c0-0.217,0-0.695,0-1.434l-0.045-5.648l-0.049-0.328  c-0.031-0.15-0.061-0.26-0.092-0.32l-0.324-0.881c-0.154-0.309-0.385-0.709-0.693-1.203c-0.311-0.523-0.559-0.928-0.74-1.203  c-0.557-0.924-0.943-1.775-1.156-2.547l-0.234-1.297l0.094-1.111c-0.158,0.186-0.324,0.4-0.51,0.65  c-0.678,0.895-1.389,1.99-2.129,3.285c0,0.064-0.047,0.156-0.143,0.277c0.063,0.031,0.127,0.107,0.188,0.232  c0.523,0.342,1.158,0.863,1.898,1.574c0.928,0.924,1.697,1.914,2.314,2.963c0.4,0.771,0.727,1.498,0.973,2.178  c0.277,0.771,0.447,1.604,0.51,2.498c0.029,0.709,0.029,1.545,0,2.5c-0.031,0.834-0.121,1.602-0.279,2.316  c-0.031,0.184-0.061,0.369-0.092,0.555c-0.125,0.309-0.201,0.494-0.232,0.555l-0.324,0.553c-0.092,0.127-0.217,0.264-0.369,0.42  c-0.186,0.215-0.418,0.445-0.695,0.691c-0.094,0.066-0.74,0.836-1.943,2.318c-0.186,0-0.369,0-0.557,0  c-4.844,0.061-10.17,0.109-15.971,0.141c-0.125,0-0.264,0-0.418,0c1.021-1.268,1.682-2.148,1.99-2.641l0.742-0.787  c0.186-0.182,0.322-0.34,0.416-0.461l0.467-0.465c0.459-0.65,1.014-1.512,1.664-2.594c0.863-1.602,1.51-2.67,1.943-3.195  c0.063-0.119,0.264-0.416,0.602-0.879c0.4-0.434,0.648-0.693,0.742-0.785l1.436-1.438c0.586-0.523,1.018-1.002,1.295-1.434  c0.186-0.189,0.295-0.309,0.324-0.371c0.092-0.219,0.139-0.34,0.139-0.371l0.141-0.416c0.029-0.033,0.061-0.199,0.09-0.51  c0.092-0.461,0.172-0.832,0.232-1.109c0.125-0.465,0.264-0.881,0.416-1.25l1.018-1.992c0.773-1.389,1.561-2.529,2.363-3.426  c0.523-0.742,0.926-1.25,1.203-1.529l1.25-1.246c1.049-1.113,1.789-1.854,2.223-2.223c0.68-0.74,1.203-1.406,1.574-1.992  l1.064-1.576c0.094-0.215,0.279-0.584,0.555-1.107C73.561,48.91,73.641,48.787,73.701,48.816z M60.414,57.754  c-0.68-0.244-1.375-0.34-2.082-0.275c-0.68,0.059-1.59,0.352-2.73,0.877c-0.713,0.279-1.281,0.492-1.713,0.646  c-0.711,0.279-1.361,0.512-1.947,0.695c-0.771,0.186-1.48,0.293-2.129,0.326c-0.742,0.031-1.543,0-2.408-0.092  c-0.588-0.096-1.371-0.281-2.361-0.555c-1.357-0.404-2.113-0.619-2.268-0.652c-0.805-0.211-1.545-0.324-2.225-0.324  c-0.648,0-1.434,0.127-2.359,0.373c-0.77,0.213-1.545,0.508-2.314,0.877l-0.74,0.281c-0.063,0.029-0.139,0.059-0.234,0.092  l-1.48,0.461c-0.863,0.281-1.525,0.572-1.99,0.879c-0.248,0.158-0.479,0.34-0.693,0.559l-0.186,0.324l-0.141,0.463  c-0.119,0.555-0.17,1.264-0.137,2.127c0,0.619,0.029,1.314,0.092,2.084l0.139,0.975c0.063,0.34,0.139,0.586,0.232,0.74  c0.092,0.184,0.201,0.295,0.326,0.322c0.15,0.096,0.367,0.154,0.645,0.186c0.031,0,0.295,0.018,0.787,0.047  c0.34,0.059,0.617,0.109,0.834,0.143l0.738,0.182c0.342,0.063,0.605,0.121,0.791,0.184c0.369,0.154,0.617,0.387,0.74,0.693  c0.092,0.156,0.17,0.42,0.23,0.791c0.031,0.4,0.016,0.785-0.045,1.158c-0.094,0.646-0.279,1.186-0.557,1.619  c-0.125,0.125-0.217,0.213-0.277,0.279c-0.031,0.027-0.063,0.043-0.092,0.043c0.029,0.063,0.043,0.109,0.043,0.143  c-0.027,0.061-0.152,0.072-0.369,0.043c-0.154,0-0.447-0.094-0.879-0.277c-0.338-0.121-0.756-0.369-1.248-0.74  c-0.713-0.371-1.205-0.604-1.484-0.693l-0.924-0.279c-0.59-0.121-1.021-0.234-1.297-0.322c-0.281-0.125-0.523-0.309-0.74-0.557  c-0.156-0.25-0.295-0.494-0.418-0.744c-0.186-0.275-0.293-0.555-0.324-0.83l-0.186-0.742c-0.061-0.463-0.137-1.313-0.23-2.547  c-0.123,0.342-0.295,0.648-0.51,0.93l-4.305,8.424c-0.373,0.834-0.68,1.449-0.926,1.852C21,78,20.877,78.154,20.691,78.4  L19.998,79.1l-0.51,0.279l-0.186,0.039c-0.338,0.033-0.586,0.082-0.742,0.143c-0.152,0-0.293,0.047-0.416,0.137  c-0.186,0.123-0.367,0.389-0.555,0.789c-0.096,0.123-0.17,0.246-0.232,0.371c7.686-0.154,16.762-0.23,27.223-0.23  c0.988,0,1.992,0,3.01,0c0.033-0.064,0.078-0.156,0.139-0.279c0.217-0.277,0.758-0.82,1.621-1.621  c0.338-0.309,0.631-0.602,0.879-0.879l2.967-3.566c0.889-1.143,1.555-2.039,1.988-2.684l0.602-1.111  c0.059-0.063,0.092-0.137,0.092-0.232l0.232-1.482c0.031-0.121,0.061-0.23,0.092-0.322l0.092-0.277  c0.186-0.342,0.434-0.682,0.74-1.02l0.371-0.51l0.51-0.926c0.154-0.34,0.262-0.584,0.322-0.742l1.16-3.33  c0.494-1.545,0.893-2.797,1.203-3.752L60.414,57.754z M64.305,64.189l-0.465,0.879c-0.121,0.309-0.277,0.988-0.465,2.037  l-0.414,1.205c0,0.061-0.076,0.262-0.232,0.602c-0.092,0.123-0.217,0.32-0.371,0.602c-0.398,0.461-0.924,1.018-1.572,1.668  l-2.084,1.99c-0.309,0.309-0.508,0.539-0.604,0.693c-0.244,0.34-0.91,1.344-1.988,3.008c-0.803,1.207-1.469,2.1-1.992,2.688  l-0.51,0.461c-0.092,0.094-0.291,0.262-0.6,0.508l-0.234,0.141c4.879,0,9.387,0.033,13.52,0.096  c0.186-0.279,0.416-0.555,0.695-0.834c0.588-0.586,0.939-0.975,1.064-1.16c0.092-0.121,0.154-0.215,0.184-0.275l0.094-0.186  l0.139-0.463c0.033-0.092,0.063-0.248,0.094-0.461c0.063-0.527,0.123-1.207,0.184-2.039c0-0.711-0.031-1.467-0.09-2.27  c-0.064-0.648-0.188-1.328-0.371-2.035c-0.186-0.619-0.449-1.248-0.785-1.9c-0.342-0.771-0.943-1.742-1.809-2.918  C64.949,65.205,64.488,64.529,64.305,64.189z M34.443,21.227c0.215,0.09,0.459,0.215,0.74,0.371  c0.184,0.059,0.398,0.137,0.646,0.229l0.463,0.094c0.34,0.063,0.51,0.139,0.51,0.23c0,0.063-0.17,0.154-0.51,0.281  c-0.215,0-0.385,0-0.508,0c-0.432-0.127-0.682-0.188-0.742-0.188c-0.555-0.094-1.158-0.275-1.805-0.557  c-0.525-0.246-1.207-0.617-2.037-1.107c-0.773-0.404-1.434-0.693-1.992-0.883c-0.432-0.123-0.973-0.184-1.619-0.184l-0.693,0.094  c-0.25,0.029-0.434,0.043-0.557,0.043c-0.275,0.064-0.434,0.064-0.463,0c-0.029-0.059,0.076-0.17,0.322-0.32l1.205-0.559  c0.773-0.125,1.436-0.109,1.99,0.047c0.68,0.123,1.42,0.402,2.223,0.832L34.443,21.227z M32.311,22.662  c-0.029-0.279-0.014-0.418,0.047-0.418c0.063-0.031,0.154,0.043,0.277,0.23c0.217,0.217,0.42,0.371,0.604,0.465  c0.43,0.34,1.156,0.629,2.174,0.879c0.031,0.031,0.852,0.201,2.455,0.51c0.711,0.188,1.064,0.338,1.064,0.461  c0,0.186-0.369,0.297-1.111,0.326c-0.832,0.063-1.727-0.016-2.684-0.23c-1.111-0.313-1.914-0.771-2.408-1.387  C32.482,23.186,32.344,22.906,32.311,22.662z M34.811,26.178c-0.061-0.15-0.076-0.262-0.047-0.324  c0.031-0.059,0.34,0.016,0.928,0.234c0.617,0.279,1.297,0.541,2.037,0.785c0.74,0.188,1.436,0.309,2.082,0.369l0.65,0.188  c0.152,0.031,0.248,0.064,0.277,0.094c0,0.092-0.078,0.182-0.23,0.275l-0.279,0.139c-0.094,0.063-0.217,0.094-0.371,0.094  c-0.678,0.154-1.498,0.076-2.453-0.232c-0.865-0.248-1.543-0.617-2.037-1.111C35.15,26.475,34.967,26.301,34.811,26.178z   M21.523,21.227l0.047,0.09l0.508-0.367c-0.277-0.094-0.508-0.23-0.693-0.418L21.523,21.227z M42.127,29.977  c-0.156,0.121-0.354,0.23-0.602,0.326c-0.646,0.242-1.375,0.305-2.176,0.182c-0.373-0.031-0.756-0.107-1.158-0.229  c-0.402-0.188-0.711-0.373-0.928-0.561c-0.184-0.15-0.32-0.305-0.414-0.461c-0.094-0.213-0.107-0.34-0.047-0.369  c0.029-0.063,0.125-0.063,0.277,0c0.094,0.029,0.277,0.123,0.557,0.277c0.152,0.061,0.418,0.123,0.785,0.186  c0.34,0.063,0.68,0.107,1.02,0.137c0.4,0.063,1.051,0.094,1.943,0.094c0.557,0,0.848,0.047,0.881,0.137  C42.297,29.791,42.248,29.883,42.127,29.977z M43.516,32.568c0.152,0.031,0.248,0.063,0.277,0.092  c0.031,0.094-0.029,0.188-0.186,0.279c-0.184,0.152-0.416,0.26-0.693,0.324c-0.682,0.217-1.48,0.201-2.406-0.047  c-0.957-0.246-1.699-0.602-2.223-1.063c-0.219-0.189-0.371-0.371-0.465-0.561c-0.059-0.184-0.076-0.32-0.045-0.414  c0.059-0.029,0.17,0.014,0.322,0.137c0.094,0.033,0.295,0.125,0.604,0.277c0.463,0.189,1.127,0.389,1.99,0.604  c0.801,0.221,1.514,0.34,2.131,0.371C43.035,32.568,43.27,32.568,43.516,32.568z"></path></svg>