<svg height='100px' width='100px'  fill="#000000" xmlns="http://www.w3.org/2000/svg" viewBox="0 0 64 64" x="0px" y="0px"><title>bill board</title><g data-name="bill board"><path d="M59,46H5a1,1,0,0,1-1-1V9A1,1,0,0,1,5,8H59a1,1,0,0,1,1,1V45A1,1,0,0,1,59,46ZM6,44H58V10H6Z"></path><path d="M32,15a1,1,0,0,1-1-1V9a1,1,0,0,1,2,0v5A1,1,0,0,1,32,15Z"></path><path d="M36,19H28a1,1,0,0,1-.89-.55,1,1,0,0,1,.09-1.05l3-4A1,1,0,0,1,31,13h2a1,1,0,0,1,.8.4l3,4a1,1,0,0,1,.09,1.05A1,1,0,0,1,36,19Zm-6-2h4l-1.5-2h-1Z"></path><path d="M16,15a1,1,0,0,1-1-1V9a1,1,0,0,1,2,0v5A1,1,0,0,1,16,15Z"></path><path d="M20,19H12a1,1,0,0,1-.89-.55,1,1,0,0,1,.09-1.05l3-4A1,1,0,0,1,15,13h2a1,1,0,0,1,.8.4l3,4a1,1,0,0,1,.09,1.05A1,1,0,0,1,20,19Zm-6-2h4l-1.5-2h-1Z"></path><path d="M48,15a1,1,0,0,1-1-1V9a1,1,0,0,1,2,0v5A1,1,0,0,1,48,15Z"></path><path d="M52,19H44a1,1,0,0,1-.89-.55,1,1,0,0,1,.09-1.05l3-4A1,1,0,0,1,47,13h2a1,1,0,0,1,.8.4l3,4a1,1,0,0,1,.09,1.05A1,1,0,0,1,52,19Zm-6-2h4l-1.5-2h-1Z"></path><path d="M18,34H15a4,4,0,0,1,0-8h3a1,1,0,0,1,1,1v6A1,1,0,0,1,18,34Zm-3-6a2,2,0,0,0,0,4h2V28Z"></path><path d="M24,37a1,1,0,0,1-.45-.11l-6-3A1,1,0,0,1,17,33V27a1,1,0,0,1,.55-.89l6-3A1,1,0,0,1,25,24V36a1,1,0,0,1-.47.85A1,1,0,0,1,24,37Zm-5-4.62,4,2V25.62l-4,2Z"></path><path d="M30,31H28a1,1,0,0,1,0-2h2a1,1,0,0,1,0,2Z"></path><path d="M28,27a1,1,0,0,1-.89-.55,1,1,0,0,1,.44-1.34l2-1a1,1,0,1,1,.9,1.78l-2,1A.93.93,0,0,1,28,27Z"></path><path d="M30,36a.93.93,0,0,1-.45-.11l-2-1a1,1,0,0,1,.9-1.78l2,1a1,1,0,0,1,.44,1.34A1,1,0,0,1,30,36Z"></path><path d="M15,38a1,1,0,0,1-1-1V33a1,1,0,0,1,2,0v4A1,1,0,0,1,15,38Z"></path><path d="M59,51H5a1,1,0,0,1,0-2H59a1,1,0,0,1,0,2Z"></path><path d="M35,63a1,1,0,0,1-1-1V46H30V62a1,1,0,0,1-2,0V45a1,1,0,0,1,1-1h6a1,1,0,0,1,1,1V62A1,1,0,0,1,35,63Z"></path><path d="M29,51H22a1,1,0,0,1-1-1V45a1,1,0,0,1,1-1h7a1,1,0,0,1,1,1v5A1,1,0,0,1,29,51Zm-6-2h5V46H23Z"></path><path d="M22,51H15a1,1,0,0,1-1-1V45a1,1,0,0,1,1-1h7a1,1,0,0,1,1,1v5A1,1,0,0,1,22,51Zm-6-2h5V46H16Z"></path><path d="M15,51H8a1,1,0,0,1-1-1V45a1,1,0,0,1,1-1h7a1,1,0,0,1,1,1v5A1,1,0,0,1,15,51ZM9,49h5V46H9Z"></path><path d="M56,51H49a1,1,0,0,1-1-1V45a1,1,0,0,1,1-1h7a1,1,0,0,1,1,1v5A1,1,0,0,1,56,51Zm-6-2h5V46H50Z"></path><path d="M49,51H42a1,1,0,0,1-1-1V45a1,1,0,0,1,1-1h7a1,1,0,0,1,1,1v5A1,1,0,0,1,49,51Zm-6-2h5V46H43Z"></path><path d="M42,51H35a1,1,0,0,1-1-1V45a1,1,0,0,1,1-1h7a1,1,0,0,1,1,1v5A1,1,0,0,1,42,51Zm-6-2h5V46H36Z"></path><path d="M51,26H37a1,1,0,0,1,0-2H51a1,1,0,0,1,0,2Z"></path><path d="M51,31H37a1,1,0,0,1,0-2H51a1,1,0,0,1,0,2Z"></path><path d="M45,36H37a1,1,0,0,1,0-2h8a1,1,0,0,1,0,2Z"></path></g></svg>