<svg height='100px' width='100px'  fill="#000000" xmlns="http://www.w3.org/2000/svg" xmlns:xlink="http://www.w3.org/1999/xlink" version="1.1" x="0px" y="0px" viewBox="0 0 64 64" style="enable-background:new 0 0 64 64;" xml:space="preserve"><g><path d="M14,57L14,57c2.761,0,5,2.239,5,5v0v0c0-2.761,2.239-5,5-5h0h0c-2.761,0-5-2.239-5-5v0v0C19,54.761,16.761,57,14,57L14,57z   "></path><path d="M2,50L2,50c2.761,0,5,2.239,5,5v0v0c0-2.761,2.239-5,5-5h0h0c-2.761,0-5-2.239-5-5v0v0C7,47.761,4.761,50,2,50L2,50z"></path><path d="M2,7L2,7c2.761,0,5,2.239,5,5v0v0c0-2.761,2.239-5,5-5h0h0C9.239,7,7,4.761,7,2v0v0C7,4.761,4.761,7,2,7L2,7z"></path><g><path d="M54,45c0-0.551-0.448-1-1-1s-1,0.449-1,1v3h-2v-3v-4c0-0.551-0.448-1-1-1s-1,0.449-1,1v2v5h-2v-5v-2v-2    c0-0.551-0.448-1-1-1s-1,0.449-1,1v2v2v5h-2v-5v-2c0-0.551-0.448-1-1-1s-1,0.449-1,1v10v3h-2v-3c0-0.551-0.448-1-1-1s-1,0.449-1,1    v3.465l5.555,3.703C41.833,58.354,42,58.666,42,59v2h10v-3c0-0.265,0.105-0.52,0.293-0.707L54,55.586V45z"></path><path d="M60.395,35.605c0.396-0.594,0.605-1.286,0.605-2C61,31.617,59.383,30,57.395,30c-0.714,0-1.405,0.209-2,0.605l-0.68,0.453    C51.828,32.983,48.469,34,45,34s-6.828-1.017-9.715-2.941l-0.68-0.453c-0.595-0.396-1.286-0.605-2-0.605    C30.617,30,29,31.617,29,33.605c0,0.714,0.209,1.406,0.605,2l0.73,1.096C32.079,39.315,33,42.357,33,45.5    s-0.921,6.185-2.664,8.799l-0.73,1.096c-0.396,0.594-0.605,1.286-0.605,2C29,59.383,30.617,61,32.605,61    c0.714,0,1.405-0.209,2-0.605l0.68-0.453c0.936-0.624,1.931-1.142,2.963-1.574l-3.803-2.535C34.167,55.646,34,55.334,34,55v-4    c0-1.654,1.346-3,3-3c0.352,0,0.686,0.072,1,0.184V41c0-1.654,1.346-3,3-3c0.395,0,0.77,0.081,1.116,0.22    C42.462,36.945,43.617,36,45,36s2.539,0.945,2.884,2.22C48.23,38.081,48.605,38,49,38c1.654,0,3,1.346,3,3v1.184    C52.314,42.072,52.648,42,53,42c1.654,0,3,1.346,3,3v11c0,0.265-0.105,0.52-0.293,0.707L54,58.414v1.092    c0.239,0.143,0.482,0.28,0.715,0.435l0.68,0.453c0.595,0.396,1.286,0.605,2,0.605C59.383,61,61,59.383,61,57.395    c0-0.714-0.209-1.406-0.605-2l-0.73-1.096C57.921,51.685,57,48.643,57,45.5s0.921-6.185,2.664-8.799L60.395,35.605z"></path><path d="M16,29c-3.859,0-7,3.14-7,7s3.141,7,7,7s7-3.14,7-7S19.859,29,16,29z M16,41c-2.757,0-5-2.243-5-5s2.243-5,5-5    s5,2.243,5,5S18.757,41,16,41z"></path><circle cx="16" cy="36" r="3"></circle><polygon points="5,23.183 3,23.754 3,27 5,27   "></polygon><path d="M29.68,8.428L23.789,18H38V7h-5.765C31.186,7,30.23,7.534,29.68,8.428z"></path><path d="M60,20c-0.405,0-0.771-0.245-0.925-0.619l-4.96-12.046C53.031,4.702,50.49,3,47.643,3h-16.29    c-2.385,0-4.582,1.195-5.877,3.197L16.84,19.543c-0.132,0.203-0.332,0.352-0.565,0.418L7,22.611V28c0,0.552-0.447,1-1,1H3v6h4.059    c0.499-4.493,4.316-8,8.941-8s8.442,3.507,8.941,8h2.247C27.072,34.547,27,34.081,27,33.605C27,30.515,29.515,28,32.605,28    c1.11,0,2.186,0.326,3.109,0.941l0.68,0.453C38.951,31.099,41.927,32,45,32s6.049-0.901,8.605-2.605l0.68-0.453    C55.209,28.326,56.284,28,57.395,28c1.373,0,2.63,0.498,3.605,1.32V20H60z M40,24h-4v-2h4V24z M22,20    c-0.362,0-0.696-0.196-0.873-0.512s-0.169-0.703,0.021-1.012L27.977,7.38C28.895,5.89,30.486,5,32.235,5h15.018    c2.053,0,3.929,1.288,4.667,3.205v0l4.014,10.436c0.118,0.308,0.077,0.653-0.109,0.925C55.638,19.838,55.329,20,55,20H22z M56,24    h-4v-2h4V24z"></path><path d="M47.253,7H40v11h13.544l-3.491-9.077C49.61,7.773,48.484,7,47.253,7z"></path></g></g></svg>