<svg height='100px' width='100px'  fill="#000000" xmlns="http://www.w3.org/2000/svg" xmlns:xlink="http://www.w3.org/1999/xlink" version="1.1" x="0px" y="0px" viewBox="0 0 512 512" enable-background="new 0 0 512 512" xml:space="preserve"><g><path d="M298.666,107.224c5.89,0,10.654-4.765,10.654-10.655s-4.765-10.67-10.654-10.67s-10.67,4.781-10.67,10.67   S292.776,107.224,298.666,107.224z"></path><path d="M501.295,415.979H319.991V389.17c17.544-11.154,32.167-23.232,43.619-36.059c20.591-23.059,31.042-48.555,31.042-75.785   c0-52.181-25.902-98.784-38.072-117.813c30.684-1.921,52.648-18.044,62.147-26.449l15.201,5.077   c1.109,0.359,2.249,0.547,3.374,0.547c2.219,0,4.406-0.688,6.25-2.015c2.78-2,4.421-5.234,4.421-8.655   c0-28.121-8.515-50.774-25.294-67.35c-22.996-22.716-54.602-26.715-66.287-27.402c-15.201-13.998-35.479-22.56-57.727-22.56   c-47.056,0-85.332,38.276-85.332,85.316v90.894c-5.25,4.953-13.342,14.951-22.153,34.402c-7.687,8.389-14.982,18.076-21.856,29.012   c-17.482,27.888-29.824,70.694-36.667,127.233c-1.703,14.076-2.844,27.184-3.593,38.416H10.706c-5.89,0-10.67,4.781-10.67,10.67   c0,5.891,4.781,10.654,10.67,10.654h117.234c-0.359,9.797-0.375,15.811-0.375,16.389c0,3.672,1.859,6.906,4.687,8.828   c-2.671,16.324-4.078,26.277-4.125,26.637c-0.438,3.047,0.484,6.139,2.5,8.482c2.031,2.328,4.968,3.656,8.062,3.656h21.325   c3.562,0,6.89-1.781,8.874-4.75l27.793-41.682c10.952-3.563,21.825-8.123,32.605-13.686c2.39-1.234,4.78-2.547,7.14-3.875h264.87   c5.889,0,10.67-4.764,10.67-10.654C511.965,420.76,507.184,415.979,501.295,415.979z M374.875,134.36   c2.249-4.468,4.123-9.17,5.576-14.045l13.842,4.609C389.107,128.299,382.561,131.783,374.875,134.36z M425.539,112.848l-6.03-2   c-0.031-0.016-0.078-0.031-0.109-0.047L383.92,98.975c0.047-0.969,0.063-1.968,0.063-2.953c0-13.686-3.25-26.622-8.998-38.104   c10.576,2.906,22.949,8.249,32.822,18.044C417.307,85.383,423.242,97.756,425.539,112.848z M298.666,32.031   c35.276,0,63.991,28.715,63.991,63.991c0,35.292-28.715,63.991-63.991,63.991c-35.292,0-63.991-28.699-63.991-63.991   C234.675,60.746,263.374,32.031,298.666,32.031z M298.666,181.338c14.482,0,28.137-3.625,40.088-10.03   c10.921,17.216,34.559,59.82,34.559,106.018c0,37.713-25.481,66.928-56.898,88.627c26.668-36.822,39.744-77.176,35.432-111.219   c-2.39-18.825-12.076-36.667-27.246-50.228c-15.717-14.045-35.682-21.778-56.242-21.778c-11.42,0-22.684,2.312-33.683,6.874   v-37.214C250.313,170.137,273.201,181.338,298.666,181.338z M187.4,261.672c12.655-20.186,26.7-35.371,41.745-45.12   c12.779-8.296,25.965-12.482,39.213-12.482c34.309,0,59.07,27.699,62.32,53.352c4.296,33.809-12.482,75.943-44.9,112.734   c-37.401,42.463-87.77,69.006-136.653,72.475C150.155,409.775,155.873,311.93,187.4,261.672z M154.311,479.969h-3.25   c0.687-4.389,1.562-9.889,2.609-16.277c4.171-0.359,8.327-0.859,12.482-1.5L154.311,479.969z M268.498,415.791   c9.593-4.047,19.686-8.717,29.809-14.061c0.109-0.063,0.234-0.125,0.359-0.188v14.436h-30.402   C268.342,415.916,268.42,415.854,268.498,415.791z"></path></g></svg>