<svg height='100px' width='100px'  fill="#000000" xmlns="http://www.w3.org/2000/svg" xmlns:xlink="http://www.w3.org/1999/xlink" version="1.1" x="0px" y="0px" viewBox="0 0 50 50" enable-background="new 0 0 50 50" xml:space="preserve"><g><path d="M25.7,2.4c0,0-5,7.6-5,10.4c0,2.8,2.2,5,5,5c2.8,0,5-2.2,5-5C30.7,10.1,25.7,2.4,25.7,2.4z M24.3,16.2   c-1.3-0.3-2.1-1.4-2.2-2.7l0.9-0.8c0.2,1.3,1.1,2.3,2.4,2.5L24.3,16.2z"></path><path d="M12.2,13.3c0,0-4.2,6.4-4.2,8.8c0,2.3,1.9,4.2,4.2,4.2s4.2-1.9,4.2-4.2C16.4,19.8,12.2,13.3,12.2,13.3z M11,25   c-1.1-0.3-1.8-1.1-1.8-2.3l0.7-0.7c0.1,1.1,0.9,1.9,2,2.1L11,25z"></path><path d="M40.5,11.4c0,0-4.2,6.4-4.2,8.8c0,2.3,1.9,4.2,4.2,4.2c2.3,0,4.2-1.9,4.2-4.2C44.7,17.8,40.5,11.4,40.5,11.4z M39.3,23   c-1.1-0.3-1.8-1.1-1.8-2.3l0.7-0.7c0.1,1.1,0.9,1.9,2,2.1L39.3,23z"></path><path d="M41.2,26c0,0-13.7,23-15.2-4c0,0-1.3,22.9-14,5.5c0,0,3.7,18.8-11,4.9c0,0,3.2,14.4,24,15.2c21.7,0.8,24-13.3,24-13.3   S32.8,46.2,41.2,26z M33.3,42.7C30,46,21.7,46.1,18,42.3c-0.1-0.1-0.1-0.1-0.1-0.1c0.1,0,7.5,3.6,14.9,0.6c0.4-0.2,0.6-0.3,0.6-0.3   C33.5,42.5,33.4,42.6,33.3,42.7z"></path></g></svg>