<svg height='100px' width='100px'  fill="#000000" xmlns="http://www.w3.org/2000/svg" xmlns:xlink="http://www.w3.org/1999/xlink" version="1.2" baseProfile="tiny" x="0px" y="0px" viewBox="0 0 100 100" xml:space="preserve"><path d="M8.4,58.3c-1.8,2.9-3.2,6.2-4,9.8c-0.1,0.5,0.1,1.1,0.6,1.3c3.2,2,6.4,3.4,9.8,4.1c-0.5,3-0.6,6.5,0.1,10.6  c0.1,0.5,0.5,0.9,1,1c2,0.3,3.9,0.5,5.6,0.5c1.8,0,3.5-0.2,5-0.4c0.8,3.3,2.1,6.6,4.1,9.8c0.2,0.4,0.6,0.6,1.1,0.6  c0.1,0,0.2,0,0.3,0c3.6-0.8,6.9-2.2,9.8-4c1.7,2.5,4.2,5.1,7.5,7.5c0.2,0.2,0.5,0.2,0.7,0.2s0.5-0.1,0.7-0.2c3.4-2.4,5.8-5,7.5-7.5  c2.9,1.8,6.2,3.2,9.8,4c0.1,0,0.2,0,0.3,0c0.4,0,0.8-0.2,1.1-0.6c2-3.2,3.4-6.4,4.1-9.8c1.5,0.3,3.2,0.4,5,0.4  c1.7,0,3.6-0.1,5.6-0.5c0.5-0.1,0.9-0.5,1-1c0.7-4.1,0.6-7.6,0.1-10.6c3.3-0.8,6.6-2.1,9.8-4.1c0.5-0.3,0.7-0.8,0.6-1.3  c-0.8-3.6-2.2-6.9-4-9.8c2.5-1.7,5.1-4.2,7.5-7.5c0.3-0.4,0.3-1,0-1.4c-2.4-3.4-5-5.8-7.5-7.5c1.8-2.9,3.2-6.2,4-9.8  c0.1-0.5-0.1-1.1-0.6-1.3c-3.2-2-6.4-3.4-9.8-4.1c0.5-3,0.6-6.5-0.1-10.6c-0.1-0.5-0.5-0.9-1-1c-4.1-0.7-7.6-0.6-10.6-0.1  c-0.8-3.3-2.1-6.6-4.1-9.8c-0.3-0.4-0.8-0.7-1.3-0.6c-3.6,0.8-6.9,2.2-9.8,4C56.5,6,54.1,3.4,50.7,1c-0.4-0.3-1-0.3-1.4,0  c-3.4,2.4-5.8,5-7.5,7.5c-2.9-1.8-6.2-3.2-9.8-4c-0.5-0.1-1.1,0.1-1.3,0.6c-2,3.2-3.4,6.4-4.1,9.8c-3-0.5-6.5-0.6-10.6,0.1  c-0.5,0.1-0.9,0.5-1,1c-0.7,4.1-0.6,7.6-0.1,10.6c-3.3,0.8-6.6,2.1-9.8,4.1C4.6,31,4.4,31.5,4.5,32c0.8,3.6,2.2,6.9,4,9.8  C6,43.5,3.4,45.9,1,49.3c-0.3,0.4-0.3,1,0,1.4C3.4,54.1,6,56.5,8.4,58.3z M7.1,67.8c0.8-3,2-5.7,3.5-8.2c3.1,1.8,5.8,2.5,7.6,2.9  c0.2,0.4,0.3,0.8,0.5,1.2c-1,1.5-2.4,4-3.3,7.4C12.5,70.5,9.8,69.4,7.1,67.8z M50,18.3c17.5,0,31.8,14.2,31.8,31.8  S67.5,81.8,50,81.8S18.2,67.5,18.2,50S32.5,18.3,50,18.3z M17.2,82.8c-1.1-7.9,1-13.5,2.8-16.5c1.4,2.5,3.1,4.9,5,6.9L21.2,77  c-0.5,0.5-0.5,1.3,0,1.8c0.2,0.2,0.6,0.4,0.9,0.4s0.6-0.1,0.9-0.4l3.8-3.8c2.1,1.9,4.4,3.6,6.9,5C30.6,81.8,25.1,84,17.2,82.8z   M32.2,92.9c-1.6-2.7-2.7-5.4-3.3-8.2c3.4-0.9,5.9-2.3,7.4-3.3c0.4,0.2,0.8,0.4,1.2,0.5c0.3,1.8,1.1,4.5,2.9,7.6  C38,91,35.2,92.1,32.2,92.9z M50,96.5c-6.4-4.8-8.8-10.3-9.7-13.6c2.7,0.8,5.5,1.3,8.5,1.4v5.4c0,0.7,0.6,1.2,1.2,1.2  s1.2-0.6,1.2-1.2v-5.4c2.9-0.1,5.8-0.6,8.5-1.4C58.8,86.2,56.4,91.6,50,96.5z M67.8,92.9c-3-0.8-5.7-2-8.2-3.5  c1.8-3.1,2.5-5.8,2.9-7.6c0.4-0.2,0.8-0.3,1.2-0.5c1.5,1,4,2.4,7.4,3.3C70.5,87.5,69.4,90.2,67.8,92.9z M82.8,82.8  c-7.9,1.1-13.5-1-16.5-2.8c2.5-1.4,4.9-3.1,6.9-5l3.8,3.8c0.2,0.2,0.6,0.4,0.9,0.4s0.6-0.1,0.9-0.4c0.5-0.5,0.5-1.3,0-1.8L75,73.2  c1.9-2.1,3.6-4.4,5-6.9C81.8,69.4,84,74.9,82.8,82.8z M92.9,67.8c-2.7,1.6-5.4,2.7-8.2,3.3c-0.9-3.4-2.3-5.9-3.3-7.4  c0.2-0.4,0.4-0.8,0.5-1.2c1.8-0.3,4.5-1.1,7.6-2.9C91,62,92.1,64.8,92.9,67.8z M96.5,50c-4.8,6.4-10.3,8.8-13.6,9.7  c0.8-2.7,1.3-5.5,1.4-8.5h5.4c0.7,0,1.2-0.6,1.2-1.2s-0.6-1.2-1.2-1.2h-5.4c-0.1-2.9-0.6-5.8-1.4-8.5C86.2,41.2,91.6,43.6,96.5,50z   M92.9,32.2c-0.8,3-2,5.7-3.5,8.2c-3.1-1.8-5.8-2.5-7.6-2.9c-0.2-0.4-0.3-0.8-0.5-1.2c1-1.5,2.4-4,3.3-7.4  C87.5,29.5,90.2,30.6,92.9,32.2z M82.8,17.2c1.1,7.9-1,13.5-2.8,16.5c-1.4-2.5-3.1-4.9-5-6.9l3.8-3.8c0.5-0.5,0.5-1.3,0-1.8  s-1.3-0.5-1.8,0L73.2,25c-2.1-1.9-4.4-3.6-6.9-5C69.4,18.2,74.9,16,82.8,17.2z M67.8,7.1c1.6,2.7,2.7,5.4,3.3,8.2  c-3.4,0.9-5.9,2.3-7.4,3.3c-0.4-0.2-0.8-0.4-1.2-0.5c-0.3-1.8-1.1-4.5-2.9-7.6C62,9,64.8,7.9,67.8,7.1z M50,3.5  c6.4,4.8,8.8,10.3,9.7,13.6c-2.7-0.8-5.5-1.3-8.5-1.4v-5.4c0-0.7-0.6-1.2-1.2-1.2s-1.2,0.6-1.2,1.2v5.4c-2.9,0.1-5.8,0.6-8.5,1.4  C41.2,13.8,43.6,8.4,50,3.5z M32.2,7.1c3,0.8,5.7,2,8.2,3.5c-1.8,3.1-2.5,5.8-2.9,7.6c-0.4,0.2-0.8,0.3-1.2,0.5  c-1.5-1-4-2.4-7.4-3.3C29.5,12.5,30.6,9.8,32.2,7.1z M17.2,17.2c7.9-1.1,13.5,1,16.5,2.8c-2.5,1.4-4.9,3.1-6.9,5L23,21.2  c-0.5-0.5-1.3-0.5-1.8,0s-0.5,1.3,0,1.8l3.8,3.8c-1.9,2.1-3.6,4.4-5,6.9C18.2,30.6,16,25.1,17.2,17.2z M7.1,32.2  c2.7-1.6,5.4-2.7,8.2-3.3c0.9,3.4,2.3,5.9,3.3,7.4c-0.2,0.4-0.4,0.8-0.5,1.2c-1.8,0.3-4.5,1.1-7.6,2.9C9,38,7.9,35.2,7.1,32.2z   M17.2,40.3c-0.8,2.7-1.3,5.5-1.4,8.5h-5.4c-0.7,0-1.2,0.6-1.2,1.2s0.6,1.2,1.2,1.2h5.4c0.1,2.9,0.6,5.8,1.4,8.5  c-3.4-0.9-8.8-3.3-13.6-9.7C8.4,43.6,13.8,41.2,17.2,40.3z"></path></svg>