<svg height='100px' width='100px'  fill="#000000" xmlns="http://www.w3.org/2000/svg" xmlns:xlink="http://www.w3.org/1999/xlink" version="1.1" x="0px" y="0px" viewBox="0 0 100 100" enable-background="new 0 0 100 100" xml:space="preserve"><g><path d="M12.503,69.117c5.555,4.267,15.065,6.614,25.058,6.614c10.747,0,22.051-2.716,29.588-8.681   c2.968-2.348,5.201-5.049,6.892-7.859l0.202-0.196l0.151-0.389c3.769-6.593,4.591-13.698,4.653-18.286l0.199,0.056l0.146-6.168   l-11.915-9.335c-3.302-4.898,9.377-14.473,9.377-14.473l-2.906-1.144c-9.674,4.687-10.143,16.655-10.143,16.655l-6.094,3.74   l-1.827,1.942l-0.015,0.494c-3.696,4.624-9.129,16.685-9.822,18.24C41.015,61.7,11.749,61.779,9.672,61.783   c-0.714-0.171-2.142-0.353-2.659,0.702C6.467,63.596,7.191,65.037,12.503,69.117z M72.43,35.447l3.021,0.633l0.679,1.915   c0,0-4.805-2.455-4.986-2.549L72.43,35.447z M68.686,37.646l-2.136,2.068l-0.373-4.66L68.686,37.646z M61.787,34.07l-3.369,2.632   l-1.259-1.3L61.787,34.07z M9.533,63.782c1.331,0.018,32.622,0.286,38.34-12.643c2.041-4.577,5.323-11.281,7.881-15.4l-0.191,6.124   l8.355-6.728l0.417,9.343l6.504-6.476l6.222,1.757c0.001,0.801-0.022,1.697-0.084,2.668l-4.651-1.023l3.956,4.086l-5.013-0.904   l4.647,4.8c-0.008,0.031-0.014,0.061-0.022,0.092l-5.508-1.16l3.941,5l-4.551-1.171l3.123,4.713l-6.466-1.476l3.825,5.761   c-0.023,0.029-0.045,0.058-0.069,0.086l-5.916-2.317l2.556,5.798c0,0-0.001,0.001-0.001,0.001l-6.072-3.114l2.175,5.94   c-0.007,0.004-0.014,0.008-0.021,0.012l-5.387-3.902l0.816,6.046l-3.83-3.957l0.612,5.093l-4.585-4.736l0.72,6.113   c-0.003,0.001-0.007,0.002-0.01,0.002l-3.014-4.964l-0.503,5.056l-2.895-4.105l0.007,5.169c-0.008,0.001-0.015,0.002-0.023,0.003   l-3.447-5.777l-1.833,5.912l-2.725-6.717l-1.392,6.925l-1.972-5.382l-1.495,4.96l-1.849-4.326l-1.689,4.129   c-0.05-0.008-0.102-0.015-0.152-0.023l-1.98-5.264l-1.809,4.45l-0.663-4.216l-2.265,3.416c-0.033-0.011-0.068-0.02-0.101-0.031   c-0.194-0.708-1.165-4.319-0.992-4.811c0.141-0.4-1.516,2.101-2.41,3.466c-0.254-0.117-0.512-0.233-0.757-0.356   c-0.21-1.302-0.483-3.235-0.298-3.531c0.213-0.344-1.687,1.089-2.617,1.8c-0.174-0.122-0.351-0.243-0.518-0.369H14l1.024-2.375   l-2.739,1.148c-1.566-1.27-2.426-2.103-2.885-2.619L9.533,63.782z"></path><polygon points="15.024,55.667 7,42.833 12.833,58.018  "></polygon><polygon points="24.5,47.833 8.833,33.667 22.167,50  "></polygon><polygon points="36.167,46.167 20.333,26.868 33.333,49.333  "></polygon><polygon points="42.973,35.5 31.833,18.833 39.833,38.101  "></polygon><polygon points="53.5,25.333 44.5,10.333 50,28.467  "></polygon><polygon points="80.833,56.667 91.833,66.438 82.667,54  "></polygon><polygon points="73.333,70 83.833,80 75.167,66.438  "></polygon><polygon points="61,74.795 72.333,92.5 65,73.219  "></polygon><polygon points="49,78.333 54.833,94.167 53.5,77.5  "></polygon><polygon points="37.75,92.5 39.333,79.333 36.167,79.333  "></polygon><polygon points="18.5,91.5 23.833,77.5 20.333,76.833  "></polygon><polygon points="7.872,84.167 13.875,74.795 10,73.219  "></polygon><polygon points="83,44.479 95.833,50 83.833,41.407  "></polygon><polygon points="83,32.5 94.167,29.5 82.333,29.5  "></polygon><polygon points="88.25,12.833 77.383,21.167 80.833,24  "></polygon><polygon points="62.333,18.833 57.167,5.667 59.167,19.4  "></polygon></g></svg>