<svg height='100px' width='100px'  fill="#000000" xmlns="http://www.w3.org/2000/svg" xmlns:xlink="http://www.w3.org/1999/xlink" version="1.1" x="0px" y="0px" viewBox="0 0 160 160" style="enable-background:new 0 0 160 160;" xml:space="preserve"><g><path d="M102.716,122.612H89.662c-1.006,0-1.821,0.815-1.821,1.822v2.429c0,1.006,0.815,1.822,1.821,1.822h13.053   c1.006,0,1.822-0.816,1.822-1.822v-2.429C104.537,123.427,103.722,122.612,102.716,122.612z"></path><path d="M22.314,105.513c0-4.342,2.383-8.23,5.978-10.236v1.264c0,1.381,1.119,2.5,2.5,2.5s2.5-1.119,2.5-2.5v-2.968l1.375-0.392   v3.36c0,1.381,1.119,2.5,2.5,2.5s2.5-1.119,2.5-2.5v-4.785l1.375-0.392v5.177c0,1.381,1.119,2.5,2.5,2.5s2.5-1.119,2.5-2.5v-6.602   l2.937-0.837c-0.353,19.011,3.415,37.963,10.996,55.398h14.296c7.577-17.434,11.343-36.386,10.986-55.398l2.665,0.759v6.68   c0,1.381,1.119,2.5,2.5,2.5s2.5-1.119,2.5-2.5v-5.256l1.375,0.392v4.865c0,1.381,1.119,2.5,2.5,2.5s2.5-1.119,2.5-2.5V93.1   l1.375,0.392v3.049c0,1.381,1.119,2.5,2.5,2.5s2.5-1.119,2.5-2.5v-1.423c3.755,1.956,6.262,5.94,6.262,10.395v21.981   c1.978-1.959,4.35-3.528,7-4.556v-17.425c0-8.791-6.147-16.451-14.637-18.267l-20.974-5.974v-7.488   c3.111-2.621,5.386-6.166,6.438-10.147c0.395-1.494,0.689-2.619,0.91-3.469c2.8-0.463,5.015-2.624,5.449-5.461l1.254-7.859   c0.327-2.12-0.288-4.272-1.688-5.903c-0.369-0.43-0.782-0.813-1.23-1.143c0.602-2.139,0.914-4.343,0.932-6.578   c0-0.031,0-0.063-0.001-0.094c-0.146-7.68-3.48-14.806-9.214-19.812c-0.01-1.079-0.515-2.093-1.371-2.749   C80.113,6.978,74.28,5,68.375,5h-2.513c-4.898,0-9.41,2.27-13.379,4.979c-1.043-0.285-2.177-0.075-3.056,0.599   c-6.154,4.72-10.401,13.78-10.569,22.645c0.02,2.23,0.338,4.434,0.947,6.569c-0.454,0.333-0.872,0.718-1.245,1.152   c-1.398,1.631-2.015,3.782-1.687,5.918l1.24,7.855c0.462,2.842,2.68,4.994,5.461,5.452c0.222,0.852,0.517,1.976,0.911,3.468   c1.05,3.982,3.325,7.526,6.438,10.148v7.486l-20.972,5.975c-8.491,1.813-14.639,9.473-14.639,18.268V144.5h7V105.513z    M60.637,125.571c-2.269-8.085-3.718-16.39-4.337-24.77l2.811-1.839l2.794,4.702C61.016,110.934,60.594,118.253,60.637,125.571z    M56.005,95.02c-0.079-2.85-0.057-5.705,0.06-8.56c0.026-0.024,0.047-0.053,0.073-0.078l6.457,4.326L56.005,95.02z M57.924,81.561   v-3.548c2.889,1.507,6.043,2.265,9.199,2.265c3.156,0,6.311-0.759,9.199-2.266v3.549l-9.199,6.164L57.924,81.561z M67.68,142.109   c-0.188,0.427-0.365,0.859-0.558,1.284c-0.194-0.429-0.374-0.865-0.563-1.296c-1.278-12.128-1.224-24.374,0.158-36.492h0.806   C68.905,117.728,68.959,129.977,67.68,142.109z M68.338,100.605h-2.435l-2.604-4.383l3.824-2.501l3.82,2.501L68.338,100.605z    M73.605,125.572c0.043-7.318-0.378-14.637-1.267-21.908l2.793-4.7l2.807,1.838C77.319,109.181,75.872,117.486,73.605,125.572z    M78.231,95.017l-6.58-4.308l6.455-4.324c0.022,0.022,0.041,0.047,0.064,0.068C78.287,89.309,78.31,92.165,78.231,95.017z    M51.269,18.47c0.853,0.073,1.716-0.172,2.419-0.711C57.184,15.077,61.728,12,65.863,12h2.513c3.82,0,7.601,1.118,10.811,3.174   c0.057,1.018,0.554,1.963,1.366,2.586c4.851,3.717,7.705,9.348,7.835,15.455c-0.011,1.088-0.121,2.166-0.325,3.226l-2.487-3.907   c-0.601-0.943-1.756-1.373-2.822-1.054c-5.267,1.569-10.879,0.681-15.405-2.428l-4.723-3.244c-0.984-0.677-2.312-0.562-3.166,0.275   l-1.32,1.296c-1.901,1.863-4.676,2.574-7.233,1.86c-1.189-0.329-2.432,0.248-2.944,1.364l-1.993,4.336   c-0.062-0.564-0.104-1.127-0.11-1.684C45.961,27.882,48.087,22.247,51.269,18.47z M49.771,56.136   c-0.302-1.665-1.751-2.876-3.443-2.876h-1.355l-1.182-7.476c-0.006-0.039-0.023-0.157,0.083-0.282   c0.084-0.098,0.198-0.147,0.339-0.147c0.278,0,0.551-0.036,0.816-0.099c0.031,0.001,0.063,0.01,0.094,0.01   c0.947,0,1.853-0.541,2.273-1.457l4.299-9.354c3.567,0.354,7.158-0.859,9.795-3.36l3.027,2.08   c5.249,3.606,11.642,4.867,17.811,3.569l4.688,7.364c0.492,0.772,1.338,1.172,2.191,1.146c0.268,0.065,0.546,0.102,0.828,0.102   c0.142,0,0.256,0.05,0.34,0.147c0.105,0.124,0.088,0.242,0.085,0.262l-1.196,7.496h-1.343c-1.688,0-3.127,1.158-3.433,2.819   c-0.037,0.173-0.257,1.081-1.494,5.771c-0.911,3.449-3.237,6.394-6.384,8.077l-3.4,1.819c-3.811,2.039-8.36,2.039-12.171,0   l-3.399-1.819c-3.147-1.685-5.474-4.628-6.384-8.077C49.987,57.049,49.792,56.223,49.771,56.136z"></path><path d="M151.033,148h-6.6c-0.796-1.427-1.236-3.018-1.236-4.659v-1.361c0-8.486-6.281-15.515-14.435-16.73v-0.689   c0-1.381-1.119-2.5-2.5-2.5s-2.5,1.119-2.5,2.5v0.689c-8.154,1.215-14.436,8.244-14.436,16.73v1.361   c0,1.641-0.44,3.233-1.236,4.659H8.967c-1.933,0-3.5,1.567-3.5,3.5s1.567,3.5,3.5,3.5h142.065c1.933,0,3.5-1.567,3.5-3.5   S152.965,148,151.033,148z M126.262,130.044c6.196,0,11.306,4.748,11.881,10.797H114.38   C114.956,134.792,120.065,130.044,126.262,130.044z M138.954,147.981H113.57c0.234-0.698,0.416-1.414,0.542-2.141h24.3   C138.538,146.567,138.719,147.283,138.954,147.981z"></path></g></svg>