<svg height='100px' width='100px'  fill="#000000" xmlns="http://www.w3.org/2000/svg" xmlns:xlink="http://www.w3.org/1999/xlink" version="1.1" x="0px" y="0px" viewBox="0 0 40 40" enable-background="new 0 0 40 40" xml:space="preserve"><path d="M19.517,16.834c-0.18-0.137-0.518-0.334-1.013-0.59c-0.582-0.305-0.933-0.51-1.052-0.615  c-0.123-0.105-0.184-0.289-0.184-0.551c0-0.158,0.03-0.277,0.089-0.355c0.059-0.078,0.149-0.118,0.268-0.118  c0.147,0,0.244,0.046,0.289,0.138c0.045,0.09,0.067,0.284,0.067,0.58V15.6h1.95c0.013-0.141,0.019-0.246,0.019-0.314  c0-0.496-0.149-0.883-0.448-1.164c-0.299-0.281-0.75-0.455-1.352-0.521v-0.852h-0.897V13.6c-0.659,0.066-1.154,0.242-1.483,0.527  c-0.33,0.285-0.495,0.678-0.495,1.179c0,0.347,0.078,0.655,0.234,0.929c0.156,0.275,0.341,0.486,0.555,0.638  s0.619,0.387,1.214,0.708c0.357,0.19,0.566,0.367,0.627,0.529c0.062,0.161,0.092,0.43,0.092,0.807c0,0.148-0.032,0.262-0.097,0.338  s-0.162,0.114-0.294,0.114c-0.154,0-0.252-0.055-0.292-0.164c-0.04-0.108-0.061-0.39-0.061-0.841v-0.41h-1.949v0.328  c0,0.746,0.194,1.27,0.584,1.57c0.389,0.301,0.844,0.473,1.365,0.517v0.921h0.897v-0.9c0.669-0.08,1.171-0.291,1.506-0.631  c0.334-0.34,0.502-0.809,0.502-1.406c0-0.373-0.063-0.686-0.186-0.936S19.697,16.972,19.517,16.834z"></path><path d="M30.97,27.564c-1.851-0.979-3.103-1.96-4.953-0.844s-1.578,1.442-4.082,1.479s-4.6-0.228-5.035,0.915  c-1.337,3.51,7.975,2.205,7.975,2.205c-2.232,1.197-5.879,1.741-8.383,0.652c-2.504-1.088-0.599-3.772-0.599-3.772  c-1.578-0.453-2.395-0.908-4.027-1.397c-1.077-0.323-0.932,0.386-0.709,0.907c-0.143-0.066-0.287-0.134-0.435-0.2  c-2.383-1.079-2.416-0.003-2.139,0.896c-2.089-0.618-3.227-0.047-1.634,1.607c2.322,2.413,7.257,7.167,12.047,7.932  s6.242-1.346,8.366-1.705c2.124-0.358,6.439,0.936,6.439,0.936v-7.833C33.8,29.343,32.82,28.544,30.97,27.564z"></path><path d="M6.665,11.873h2.267v11.509c0,0.47,0.381,0.851,0.85,0.851h7.935h7.935c0.469,0,0.85-0.381,0.85-0.851V11.873h2.267  c0.468,0,0.561-0.251,0.208-0.557L18.359,2.118c-0.177-0.152-0.41-0.229-0.643-0.229s-0.466,0.077-0.643,0.229l-3.041,2.635v-1.25  H10.49v4.319l-4.033,3.494C6.104,11.622,6.197,11.873,6.665,11.873z M10.632,11.873h7.084h7.084v10.659H10.632V11.873z"></path></svg>