<svg height='100px' width='100px'  fill="#000000" xmlns="http://www.w3.org/2000/svg" xmlns:xlink="http://www.w3.org/1999/xlink" version="1.1" x="0px" y="0px" viewBox="0 0 100 100" style="enable-background:new 0 0 100 100;" xml:space="preserve"><path d="M13.5,57.26c0,13.828,7.654,26.331,19.976,32.63c0.175,0.089,0.365,0.123,0.55,0.103h32.197  c0.033,0.003,0.066,0.005,0.101,0.005c0.153,0,0.309-0.035,0.454-0.11C79.097,83.589,86.75,71.087,86.75,57.26  c0-18.739-14.149-34.226-32.323-36.364c1.168-1.128,1.899-2.707,1.899-4.456c0-3.419-2.782-6.202-6.201-6.202  s-6.201,2.782-6.201,6.202c0,1.749,0.731,3.328,1.899,4.456C27.649,23.034,13.5,38.521,13.5,57.26z M66.089,87.994H34.161  c-6.191-3.221-11.101-8.116-14.335-13.962h60.597C77.191,79.878,72.28,84.773,66.089,87.994z M49.208,56.408  c-1.376-0.064-3.98-0.415-5.597-2.08c-1.613-1.663-1.887-4.295-1.91-5.673c1.374,0.062,3.989,0.411,5.61,2.082  c1.492,1.537,1.834,3.891,1.896,5.328V56.408z M50.242,45.655c-0.974-0.844-2.811-2.709-2.829-4.782s1.786-3.971,2.745-4.832  c0.974,0.844,2.811,2.709,2.828,4.782C53.005,42.896,51.201,44.794,50.242,45.655z M45.924,16.44c0-2.317,1.885-4.202,4.201-4.202  s4.201,1.885,4.201,4.202c0,2.299-1.858,4.168-4.151,4.196c-0.017,0-0.033-0.001-0.05-0.001s-0.033,0.001-0.05,0.001  C47.782,20.609,45.924,18.74,45.924,16.44z M50.042,22.637c0.028,0,0.055,0.004,0.083,0.004s0.055-0.004,0.083-0.004  C69.263,22.683,84.75,38.196,84.75,57.26c0,5.225-1.173,10.241-3.305,14.771H58.149c1.116-0.49,2.2-1.158,3.14-2.069  c4.075-3.955,3.677-10.768,3.658-11.056c-0.032-0.489-0.415-0.883-0.902-0.93c-0.29-0.027-7.085-0.629-11.161,3.326  c-0.678,0.658-1.223,1.399-1.676,2.173v-5.182c1.661-0.017,4.902-0.346,7.096-2.475c2.992-2.903,2.702-7.875,2.688-8.085  c-0.032-0.489-0.414-0.883-0.902-0.93c-0.212-0.02-5.172-0.458-8.162,2.444c-0.268,0.26-0.502,0.541-0.72,0.83v-2.612  c1.014-0.841,3.807-3.449,3.778-6.659c-0.033-3.835-4.09-6.75-4.262-6.872c-0.353-0.249-0.823-0.244-1.17,0.01  c-0.171,0.125-4.175,3.111-4.142,6.947c0.028,3.105,2.69,5.605,3.795,6.51v2.474c-0.144-0.182-0.296-0.36-0.461-0.53  c-2.904-2.992-7.873-2.702-8.085-2.688c-0.489,0.032-0.883,0.415-0.93,0.903c-0.021,0.209-0.459,5.17,2.443,8.162  c2.136,2.199,5.377,2.622,7.032,2.687v5.065c-0.453-0.773-0.997-1.513-1.675-2.171c-4.077-3.956-10.872-3.353-11.161-3.326  c-0.487,0.047-0.87,0.441-0.902,0.93c-0.019,0.288-0.417,7.101,3.658,11.056c0.939,0.912,2.024,1.579,3.14,2.069H18.805  c-2.132-4.53-3.305-9.546-3.305-14.771C15.5,38.196,30.987,22.683,50.042,22.637z M51.213,71.331  c0.039-1.831,0.432-6.04,3.063-8.594c2.624-2.546,6.893-2.82,8.684-2.804c-0.039,1.831-0.432,6.04-3.063,8.594  C57.273,71.072,53.063,71.344,51.213,71.331z M51.242,56.292c0.064-1.376,0.417-3.998,2.078-5.61s4.292-1.886,5.67-1.91  c-0.065,1.376-0.418,3.998-2.079,5.61S52.619,56.268,51.242,56.292z M49.202,71.331c-1.825,0.005-6.061-0.261-8.682-2.805  c-2.622-2.545-3.02-6.763-3.062-8.595c1.825-0.037,6.049,0.25,8.683,2.806C48.762,65.281,49.16,69.498,49.202,71.331z"></path></svg>