<svg height='100px' width='100px'  fill="#000000" xmlns="http://www.w3.org/2000/svg" viewBox="0 0 500 500" version="1.1" x="0px" y="0px"><g><path fill="#000000" opacity="1.00" d=" M 49.96 160.98 C 49.44 147.44 57.56 135.80 66.00 126.01 C 78.47 135.47 91.62 144.00 105.17 151.81 C 127.44 164.52 150.98 175.37 175.89 181.73 C 206.99 189.03 239.43 188.88 270.99 185.01 C 290.05 206.21 305.57 230.41 317.93 256.05 C 318.22 266.01 315.45 275.97 310.52 284.59 C 302.34 299.26 292.39 312.88 281.98 326.04 C 289.15 335.48 299.17 343.59 311.15 345.55 C 321.78 347.14 332.63 345.58 342.99 343.02 C 348.31 332.84 352.50 321.92 354.28 310.53 C 355.99 298.36 354.69 285.94 352.02 274.00 C 366.19 273.34 380.50 276.25 393.02 283.01 C 396.44 300.27 397.97 318.08 395.07 335.53 C 405.84 334.85 416.64 333.27 426.90 329.81 C 435.44 326.93 442.97 321.51 449.14 315.01 C 451.82 311.35 457.10 312.00 461.10 312.22 C 468.85 313.17 472.18 321.41 474.02 327.98 C 463.08 340.48 448.84 350.26 432.92 355.18 C 408.53 363.03 383.26 367.72 357.97 371.55 C 339.02 374.63 319.64 375.13 300.54 373.20 C 289.46 372.44 279.79 366.32 271.03 360.00 C 255.28 347.25 238.98 335.17 222.14 323.90 C 205.28 312.80 187.88 302.24 168.99 294.95 C 152.65 288.67 135.48 284.34 118.00 282.98 C 118.33 310.99 118.67 338.99 119.00 367.00 C 94.74 371.33 69.73 371.74 45.50 366.99 C 39.70 328.67 33.88 290.36 28.07 252.04 C 27.12 247.06 27.08 241.96 27.13 236.92 C 27.40 234.79 27.42 231.42 30.09 230.96 C 40.62 235.30 51.99 236.90 63.07 239.26 C 83.84 243.21 104.69 246.76 125.59 249.97 C 129.86 241.19 132.03 230.76 128.79 221.28 C 126.27 213.58 119.93 208.12 114.18 202.79 C 94.81 186.00 72.55 172.92 49.96 160.98 M 182.63 229.14 C 179.88 240.11 176.87 251.01 174.00 261.95 C 181.60 265.21 189.10 268.72 196.44 272.53 C 210.49 279.96 223.53 289.17 236.01 298.99 C 243.24 286.57 249.68 273.55 253.72 259.72 C 256.74 248.94 250.70 238.12 243.48 230.49 C 223.25 233.87 202.86 230.42 182.63 229.14 Z"></path></g></svg>