<svg height='100px' width='100px'  fill="#000000" xmlns="http://www.w3.org/2000/svg" xmlns:xlink="http://www.w3.org/1999/xlink" xml:space="preserve" style="shape-rendering:geometricPrecision;text-rendering:geometricPrecision;image-rendering:optimizeQuality;" viewBox="0 0 6.82666 6.82666" x="0px" y="0px" fill-rule="evenodd" clip-rule="evenodd"><defs><style type="text/css">
   
    .fil2 {fill:none}
    .fil1 {fill:#000000}
    .fil0 {fill:#000000;fill-rule:nonzero}
   
  </style></defs><g><g><path class="fil0" d="M3.46053 1.03913l2.48185 1.79896 -0.0437795 0.0604173 0.0438504 -0.0604961c0.0334094,0.0242165 0.0408622,0.070937 0.0166457,0.104346 -0.0145984,0.0201457 -0.0373819,0.0308465 -0.0604961,0.0308661l-0.000744094 0 -4.96981 0c-0.0412638,0 -0.0747165,-0.0334528 -0.0747165,-0.0747165 0,-0.0263543 0.0136496,-0.0495197 0.0342559,-0.0628228l2.48195 -1.79904 -5.90551e-005 -8.26772e-005c0.0280315,-0.0203228 0.0654331,-0.0183386 0.0910551,0.00256299z"></path><path class="fil0" d="M1.70436 1.37871l0.421583 0c0.0412638,0 0.0747165,0.0334567 0.0747165,0.0747205l0 0.338197 -0.57102 0.413902 0 -0.752098c0,-0.0412638 0.0334567,-0.0747205 0.0747205,-0.0747205z"></path><path class="fil1" d="M5.35332 2.92342l-3.87998 0 0 2.80619c0,0.0412638 0.0334528,0.0747165 0.0747205,0.0747165l3.73054 0c0.0412638,0 0.0747165,-0.0334528 0.0747165,-0.0747165l0 -2.80619zm-2.1201 2.26654c-0.0208346,-0.0868465 -0.0511535,-0.165016 -0.0933071,-0.235634 -0.0512717,-0.0858937 -0.120484,-0.161327 -0.211921,-0.228449 -0.0915118,0.0260236 -0.451236,0.0987677 -0.543976,-0.332118l-7.08661e-005 1.5748e-005c-0.00485039,-0.0225591 0.00944882,-0.0447835 0.0319488,-0.0497559 0.423689,-0.134205 0.53663,0.226661 0.556937,0.310953 0.102886,0.0746535 0.180854,0.159315 0.238823,0.256433 0.0142087,0.0238031 0.027185,0.0483071 0.0390118,0.0735512 0.0075748,-0.150409 0.027185,-0.304197 0.0669134,-0.447953 0.0060748,-0.0219764 0.0126181,-0.0437165 0.0196575,-0.0651811 -0.0166181,-0.0262244 -0.0354882,-0.0506181 -0.0568819,-0.0727205 -0.0212008,-0.0219055 -0.0449252,-0.0415669 -0.0714331,-0.0585276 -0.0785276,0.0218976 -0.370925,0.0779606 -0.446752,-0.274283l-7.08661e-005 1.5748e-005c-0.00485039,-0.022563 0.00944094,-0.0447835 0.0319449,-0.0497559 0.341031,-0.107622 0.437555,0.174339 0.457307,0.251846 0.0331063,0.0208701 0.0626457,0.0452047 0.0889528,0.0723858 0.0112835,0.0116535 0.0219606,0.0238346 0.0320748,0.0364882 0.0698228,-0.166665 0.175244,-0.310197 0.331445,-0.405728 0.0238622,-0.101339 0.164756,-0.568315 0.706957,-0.395945 0.0225039,0.00497244 0.0367953,0.0272008 0.0319449,0.0497638l-7.08661e-005 -1.9685e-005c-0.120382,0.559413 -0.595913,0.448614 -0.696748,0.418346 -0.18252,0.112327 -0.288531,0.301374 -0.34774,0.515598 -0.0455945,0.164976 -0.0635236,0.344878 -0.0671063,0.516988 0.0782283,-0.116008 0.183988,-0.16828 0.230933,-0.186878 0.0244252,-0.0946063 0.14072,-0.427476 0.546618,-0.298949 0.0225079,0.00497244 0.0368031,0.0272047 0.0319567,0.0497677l-7.48031e-005 -1.9685e-005c-0.0939094,0.436295 -0.465748,0.348299 -0.542732,0.325055 -0.0386496,0.0140315 -0.166634,0.0707244 -0.234343,0.224709l-0.130197 0z"></path></g></g><rect class="fil2" width="6.82666" height="6.82666"></rect></svg>