<svg height='100px' width='100px'  fill="#000000" xmlns="http://www.w3.org/2000/svg" viewBox="0 0 64 64" x="0px" y="0px"><title>head-idea-creative-graph-growth</title><g><path d="M46,20h2V36H46Zm-9,3h2V36H37Zm-9,3h2V36H28Zm-9,3h2v7H19ZM48,48.3V61H23.82L23,56.8a1,1,0,0,0-1-.8H14V42a1,1,0,0,0-1-1H9.74l5.83-10H17v6a1,1,0,0,0,1,1h4a1,1,0,0,0,1-1V31h3v6a1,1,0,0,0,1,1h4a1,1,0,0,0,1-1V31h3v6a1,1,0,0,0,1,1h4a1,1,0,0,0,1-1V31h3v6a1,1,0,0,0,1,1h4a1,1,0,0,0,1-1V31h5v1.09a18.63,18.63,0,0,1-3.38,10.73l-3.44,4.91A.94.94,0,0,0,48,48.3Z"></path><path d="M12,22a3,3,0,0,0,6,0,3.06,3.06,0,0,0-.5-1.66l2.61-3.49A2.91,2.91,0,0,0,21,17a3,3,0,0,0,2.54-1.41l3.5.78A3,3,0,0,0,33,16a2.94,2.94,0,0,0-.55-1.72l1.73-2.41A2.76,2.76,0,0,0,35,12a3,3,0,0,0,2.82-2h4.36A3,3,0,0,0,48,9a2.92,2.92,0,0,0-.43-1.52l2-2.46.43,1.3L52,5.68l-1-3h0l0-.11A1,1,0,0,0,50,2H47V4h.87L46,6.2A2.95,2.95,0,0,0,42.18,8H37.82A3,3,0,0,0,32,9a2.94,2.94,0,0,0,.55,1.72l-1.73,2.41A2.76,2.76,0,0,0,30,13a3,3,0,0,0-2.54,1.41L24,13.63A3,3,0,0,0,18,14a3.06,3.06,0,0,0,.5,1.66l-2.61,3.49A2.91,2.91,0,0,0,15,19,3,3,0,0,0,12,22ZM45,8a1,1,0,1,1-1,1A1,1,0,0,1,45,8ZM35,8a1,1,0,1,1-1,1A1,1,0,0,1,35,8Zm-5,7a1,1,0,1,1-1,1A1,1,0,0,1,30,15Zm-9-2a1,1,0,1,1-1,1A1,1,0,0,1,21,13Zm-6,8a1,1,0,1,1-1,1A1,1,0,0,1,15,21Z"></path><polygon points="14 4 13 4 13 6 14 6 14 7 16 7 16 6 17 6 17 4 16 4 16 3 14 3 14 4"></polygon><polygon points="60 17 60 15 59 15 59 14 57 14 57 15 56 15 56 17 57 17 57 18 59 18 59 17 60 17"></polygon></g></svg>