<svg height='100px' width='100px'  fill="#000000" xmlns="http://www.w3.org/2000/svg" viewBox="0 0 64 64" x="0px" y="0px"><title>spa-Health-salon-relax</title><g><path d="M62,35a7.009,7.009,0,0,0-7-7H46V21a1,1,0,0,0-1.152-.988L33,21.834V20.9A5.009,5.009,0,0,0,37,16c0-4.364-4.117-8.532-4.293-8.707a1,1,0,0,0-1.414,0C31.117,7.468,27,11.636,27,16a5.009,5.009,0,0,0,4,4.9v1.243l-12.152,1.87A1,1,0,0,0,18,25V36.141a10.94,10.94,0,0,0-2.5-2.006,1,1,0,0,0-1,0,11.049,11.049,0,0,0-5.4,8.086A10.86,10.86,0,0,0,7,42a10.916,10.916,0,0,0-1.32.086,1,1,0,0,0-.8.6A10.991,10.991,0,0,0,8.687,56H2v2H4.382l1.723,3.447A1,1,0,0,0,7,62H45a1,1,0,0,0,1-1V58h6.382l1.723,3.447A1,1,0,0,0,55,62h4a1,1,0,0,0,1-1V58h1a1,1,0,0,0,1-1V53a1,1,0,0,0-1-1H59.889a6.979,6.979,0,0,0-1.3-11A7,7,0,0,0,62,35ZM29,16c0-2.557,1.925-5.216,3-6.5,1.076,1.283,3,3.937,3,6.5a3,3,0,0,1-2,2.816V17H31v1.816A3,3,0,0,1,29,16ZM20,39V25.858l24-3.692V28H41a6.991,6.991,0,0,0-4.83,12.054A6.989,6.989,0,0,0,32.111,52H31a1,1,0,0,0-1,1v4a1,1,0,0,0,1,1h1v2H24.618l1-2H28V56H21.305A10.984,10.984,0,0,0,25.12,42.687a1,1,0,0,0-.8-.6,10.536,10.536,0,0,0-3.417.12A10.955,10.955,0,0,0,19.936,39ZM14.508,55.983A9,9,0,0,1,23,44c.157,0,.321.006.492.017A9,9,0,0,1,15,56C14.843,56,14.679,55.994,14.508,55.983ZM15,36.178a9.031,9.031,0,0,1,3.945,6.606,11.024,11.024,0,0,0-3.936,2.679A11.068,11.068,0,0,0,11.054,42.8,9.029,9.029,0,0,1,15,36.178ZM6,47a8.946,8.946,0,0,1,.508-2.983C6.679,44.006,6.843,44,7,44a8.907,8.907,0,0,1,6.752,3.067,10.829,10.829,0,0,0-1.43,8.527A9,9,0,0,1,6,47ZM22.382,60H7.618l-1-2H23.382Zm14,0H34V58h3.382ZM44,60H38.618l1-2H44Zm14,0H55.618l-1-2H58Zm2-6v2H32V54H60Zm0-7a5.006,5.006,0,0,1-5,5H37a5,5,0,0,1,0-10H50a3,3,0,0,1,0,6H40a1,1,0,0,1,0-2h7V44H40a3,3,0,0,0,0,6H50a5.006,5.006,0,0,0,5-5,4.948,4.948,0,0,0-1.026-3H55A5.006,5.006,0,0,1,60,47ZM50,40H41a5,5,0,0,1,0-10H52a3,3,0,0,1,0,6H42a1,1,0,0,1,0-2h7V32H42a3,3,0,0,0,0,6H52a5.006,5.006,0,0,0,5-5,4.953,4.953,0,0,0-.924-2.876A5,5,0,0,1,55,40Z"></path><rect x="22" y="28" width="2" height="8"></rect><rect x="22" y="38" width="2" height="2"></rect></g></svg>