<svg height='100px' width='100px'  fill="#000000" xmlns="http://www.w3.org/2000/svg" data-name="Layer 1" viewBox="0 0 100 100" x="0px" y="0px"><title>Artboard 297</title><path d="M91.66,28.27A48,48,0,0,0,68,6.62,47.12,47.12,0,0,0,10.53,24.2,47.1,47.1,0,0,0,3.24,54.85,45.62,45.62,0,0,0,17,82.67c1,1,2.36,1.17,3,.48s.38-2-.53-2.9L19.18,80A41.91,41.91,0,0,1,15.87,27.5a41,41,0,0,1,49.43-14,40.89,40.89,0,0,1,24,45.21A41.39,41.39,0,0,1,51.84,92.1l-.51-18.38h0A3.22,3.22,0,0,0,51,72.39l.77-.06c.57,0,1-.79,1-1.72s-.44-1.69-1-1.72h-.16l-4.79-.34a14.56,14.56,0,0,1-4.1-.81,13.8,13.8,0,0,1-6.38-4.68,13.4,13.4,0,0,1-2.63-7.17c0-1.13.05-2.91.09-4.47l0-1.24q15.84.27,31.68-.12l.16,4.58A13.83,13.83,0,0,1,64.37,61a14,14,0,0,1-10.7,7.79h0c-.49.09-.89.88-.9,1.82s.48,1.69,1.12,1.72h.18a18,18,0,0,0,15.17-8.74,19.23,19.23,0,0,0,2.65-9l.27-8v0A3.27,3.27,0,0,0,69,43.23h-.22c-2.78-.08-5.57-.08-8.35-.13a25.45,25.45,0,0,0-1.12-16.3,4.52,4.52,0,0,0-1.73-.18,4.49,4.49,0,0,0-1.72.18v0A25.39,25.39,0,0,0,54.7,43c-3.42,0-6.84-.05-10.26,0a25.44,25.44,0,0,0-1.15-16.16,4.52,4.52,0,0,0-1.73-.18,4.49,4.49,0,0,0-1.72.18v0A25.42,25.42,0,0,0,38.7,43c-2.78,0-5.56,0-8.34.08h-.17a3.45,3.45,0,0,0-3.36,3.53L27,51.43c.06,1.63.05,3.07.25,5.14A18.85,18.85,0,0,0,32,66.82a18.35,18.35,0,0,0,9.58,5.5,18.66,18.66,0,0,0,5.38.35l1.11-.08a3.34,3.34,0,0,0-.26,1.12v.38l-.56,20.52v0A2.28,2.28,0,0,0,49.46,97h.1A46.84,46.84,0,0,0,79.33,87,46.92,46.92,0,0,0,91.66,28.27Z"></path></svg>