<svg height='100px' width='100px'  fill="#000000" xmlns="http://www.w3.org/2000/svg" data-name="Layer 1" viewBox="0 0 128 128" x="0px" y="0px"><title>heavy and power industry</title><path d="M109.33411,19.78119l-3.96228-6a3.93676,3.93676,0,0,0-5.49469-1.10937l-2.97174,2c-.067.0451-.11908.10309-.18243.15149l-.7583-1.10339A3.95146,3.95146,0,0,0,92.70911,12H65.79523V4a3.98126,3.98126,0,0,0-3.96228-4h-25.012a3.951,3.951,0,0,0-3.22424,1.675l-14.85864,21A4.02622,4.02622,0,0,0,18,25v95a7.97159,7.97159,0,0,0,7.92462,8H99.22711a7.97149,7.97149,0,0,0,7.92456-8V31.25a4.02617,4.02617,0,0,0-.70673-2.28009l-1.14508-1.6662,2.93536-1.97552A4.02345,4.02345,0,0,0,109.33411,19.78119ZM22.66986,24,36.82092,4h25.012V8H39.79266a1.97451,1.97451,0,0,0-1.585.7998L26.91516,24Zm71.48053,88a7.97165,7.97165,0,0,1-7.92456,8H38.67822a7.97169,7.97169,0,0,1-7.92456-8V92a7.97169,7.97169,0,0,1,7.92456-8h2.33313a21.49324,21.49324,0,0,0-.37659,4H38.67822a3.98553,3.98553,0,0,0-3.96228,4v20a3.98553,3.98553,0,0,0,3.96228,4H86.22583a3.98553,3.98553,0,0,0,3.96228-4V92a3.98553,3.98553,0,0,0-3.96228-4H84.26935a21.48813,21.48813,0,0,0-.37665-4h2.33313a7.97165,7.97165,0,0,1,7.92456,8ZM50.4,81.29663,62.452,61.21979,74.50409,81.29663A13.34057,13.34057,0,0,1,72.33722,97.665l-.89551.8598a12.95634,12.95634,0,0,1-17.97931.00006l-.89569-.86A13.34051,13.34051,0,0,1,50.4,81.29663ZM94.15039,72a7.97165,7.97165,0,0,1-7.92456,8H82.6925a20.87558,20.87558,0,0,0-1.41132-2.84961L80.59058,76h5.63525a3.98553,3.98553,0,0,0,3.96228-4V52a3.98553,3.98553,0,0,0-3.96228-4H38.67822a3.98553,3.98553,0,0,0-3.96228,4V72a3.98553,3.98553,0,0,0,3.96228,4h5.63525l-.69061,1.15039A20.87558,20.87558,0,0,0,42.21155,80H38.67822a7.97169,7.97169,0,0,1-7.92456-8V52a7.97169,7.97169,0,0,1,7.92456-8H86.22583a7.97165,7.97165,0,0,1,7.92456,8Zm9.039-35.75H61.58527V26a1.99075,1.99075,0,0,0-1.98114-2H31.868L40.7832,12H61.83295v4H92.70911l8.934,13H72.52271a2.00009,2.00009,0,0,0,0,4h30.66669Z"></path></svg>