<svg height='100px' width='100px'  fill="#000000" xmlns="http://www.w3.org/2000/svg" xmlns:xlink="http://www.w3.org/1999/xlink" version="1.1" x="0px" y="0px" viewBox="10 70 490 370" style="enable-background:new 10 70 490 370;" xml:space="preserve"><g><path d="M459.501,85.443C436.098,75.484,405.2,70,372.5,70c-32.369,0-63.042,5.391-86.369,15.18c0,0-0.001,0-0.001,0h0   c-13.659,5.733-24.159,12.735-31.13,20.606c-6.971-7.871-17.47-14.874-31.13-20.606c-23.326-9.789-54-15.18-86.369-15.18   C104.8,70,73.903,75.484,50.5,85.443C24.383,96.557,10,112.38,10,130v50v250c0,4.025,2.413,7.658,6.124,9.218   c1.251,0.526,2.568,0.782,3.875,0.782c2.565,0,5.09-0.987,6.997-2.854C43.288,421.2,72.47,400,137.5,400   c31.668,0,57.265,4.786,78.253,14.632c11.95,5.605,22.5,12.971,32.252,22.515c0.084,0.082,0.175,0.152,0.261,0.231   c0.143,0.131,0.285,0.263,0.435,0.386c0.121,0.099,0.248,0.187,0.373,0.279c0.135,0.1,0.269,0.202,0.409,0.296   c0.139,0.092,0.282,0.173,0.424,0.258c0.136,0.081,0.27,0.164,0.41,0.239c0.146,0.077,0.295,0.144,0.444,0.214   c0.145,0.068,0.289,0.139,0.438,0.2c0.147,0.06,0.297,0.11,0.446,0.163c0.156,0.056,0.311,0.114,0.471,0.162   c0.152,0.046,0.306,0.08,0.46,0.118c0.16,0.04,0.318,0.084,0.481,0.116c0.178,0.035,0.358,0.057,0.538,0.082   c0.141,0.02,0.28,0.046,0.422,0.06c0.326,0.032,0.653,0.049,0.98,0.049s0.654-0.018,0.98-0.049c0.142-0.014,0.281-0.04,0.421-0.06   c0.18-0.025,0.361-0.047,0.54-0.082c0.162-0.032,0.32-0.076,0.479-0.115c0.154-0.038,0.309-0.073,0.462-0.119   c0.159-0.048,0.313-0.106,0.468-0.161c0.15-0.053,0.301-0.104,0.45-0.165c0.148-0.061,0.29-0.131,0.434-0.198   c0.15-0.07,0.3-0.138,0.447-0.215c0.14-0.074,0.273-0.157,0.408-0.237c0.143-0.085,0.286-0.166,0.426-0.259   c0.141-0.094,0.275-0.197,0.412-0.297c0.124-0.091,0.25-0.179,0.37-0.277c0.154-0.125,0.299-0.261,0.446-0.395   c0.083-0.076,0.17-0.143,0.251-0.223c9.754-9.546,20.304-16.91,32.253-22.515C315.236,404.786,340.833,400,372.5,400   c65.03,0,94.212,21.2,110.505,37.146c1.907,1.866,4.432,2.854,6.997,2.854c1.307,0,2.623-0.256,3.874-0.782   c3.711-1.56,6.124-5.192,6.124-9.218V180v-50C500,112.38,485.617,96.557,459.501,85.443z M480,130v16.816   c-5.699-4.172-12.552-7.992-20.499-11.373C436.098,125.484,405.2,120,372.5,120c-26.296,0-51.472,3.558-72.5,10.141v-28.908   C320.108,93.964,345.546,90,372.5,90C434.026,90,480,111.118,480,130z M280,110.76v33.641v254.987   c-5.221,2.752-10.204,5.826-15,9.231V130C265,123.674,270.416,116.881,280,110.76z M137.501,90   c26.953,0,52.392,3.965,72.499,11.233v28.907C188.973,123.558,163.797,120,137.5,120c-32.7,0-63.598,5.484-87,15.443   c-7.947,3.382-14.8,7.201-20.5,11.373V130C30,111.118,75.974,90,137.501,90z M30,408.549V180c0-18.882,45.973-40,107.5-40   c26.955,0,52.395,3.965,72.5,11.233v239.494C189.365,383.521,165.481,380,137.5,380C83.058,380,50.693,393.853,30,408.549z    M230,144.401V110.76c9.584,6.121,15,12.914,15,19.24v278.619c-4.796-3.404-9.779-6.479-15-9.232V144.401z M480,408.548   C459.307,393.853,426.943,380,372.5,380c-3.498,0-6.931,0.055-10.302,0.165c-23.598,0.773-44.141,4.257-62.198,10.561V151.233   C320.108,143.964,345.546,140,372.5,140c61.526,0,107.5,21.118,107.5,40V408.548z"></path><path d="M454.692,211.169c-8.54-4.538-32.558-9.089-55.867-10.587c-22.313-1.433-53.203-0.742-73.695,10.684   c-4.823,2.689-6.554,8.78-3.864,13.604c2.689,4.823,8.78,6.553,13.604,3.864c12.671-7.065,34.929-9.974,62.673-8.192   c24.022,1.543,43.864,6.216,47.765,8.289c1.495,0.795,3.101,1.171,4.684,1.171c3.58,0,7.042-1.928,8.839-5.309   C461.422,219.816,459.569,213.761,454.692,211.169z"></path><path d="M454.692,261.169c-8.54-4.538-32.558-9.089-55.867-10.586c-22.313-1.432-53.203-0.742-73.695,10.683   c-4.823,2.689-6.554,8.78-3.864,13.604s8.78,6.552,13.604,3.864c12.671-7.065,34.929-9.973,62.673-8.193   c24.022,1.544,43.864,6.217,47.765,8.289c1.495,0.795,3.101,1.172,4.684,1.172c3.58,0,7.042-1.928,8.839-5.31   C461.422,269.815,459.569,263.761,454.692,261.169z"></path><path d="M454.692,311.13c-8.539-4.538-32.558-9.089-55.868-10.586c-22.307-1.433-53.202-0.741-73.694,10.683   c-4.823,2.689-6.554,8.78-3.864,13.604c2.689,4.823,8.78,6.552,13.604,3.864c12.67-7.064,34.929-9.979,62.673-8.192   c24.022,1.543,43.864,6.216,47.765,8.288c1.495,0.795,3.101,1.172,4.684,1.172c3.58,0,7.042-1.928,8.839-5.31   C461.422,319.776,459.569,313.722,454.692,311.13z"></path><path d="M60.009,230.002c1.583,0,3.189-0.377,4.684-1.171c3.9-2.073,23.742-6.746,47.764-8.289   c27.745-1.781,50.002,1.127,62.673,8.192c4.825,2.69,10.915,0.959,13.604-3.864c2.69-4.824,0.959-10.914-3.864-13.604   c-20.493-11.426-51.388-12.117-73.695-10.684c-23.31,1.498-47.328,6.049-55.868,10.587c-4.877,2.592-6.729,8.646-4.138,13.523   C52.967,228.075,56.429,230.002,60.009,230.002z"></path><path d="M60.009,280.002c1.583,0,3.189-0.377,4.684-1.172c3.9-2.072,23.742-6.745,47.764-8.289   c27.745-1.779,50.002,1.128,62.673,8.193c4.825,2.688,10.915,0.958,13.604-3.864c2.69-4.824,0.959-10.915-3.864-13.604   c-20.493-11.426-51.388-12.117-73.695-10.683c-23.31,1.498-47.328,6.048-55.868,10.587c-4.877,2.592-6.729,8.646-4.138,13.522   C52.967,278.074,56.429,280.002,60.009,280.002z"></path><path d="M184.87,311.227c-20.493-11.426-51.387-12.118-73.695-10.683c-23.31,1.497-47.328,6.049-55.868,10.587   c-4.877,2.592-6.729,8.646-4.138,13.522c1.797,3.382,5.259,5.31,8.839,5.31c1.583,0,3.189-0.377,4.684-1.172   c3.9-2.072,23.741-6.745,47.764-8.288c27.745-1.784,50.002,1.127,62.673,8.192c4.824,2.688,10.914,0.957,13.604-3.864   C191.424,320.007,189.693,313.916,184.87,311.227z"></path></g></svg>