<?xml version="1.0" encoding="utf-8"?>
<!-- Generator: Adobe Illustrator 24.2.1, SVG Export Plug-In . SVG Version: 6.00 Build 0)  -->
<svg version="1.1" id="Layer_1" xmlns="http://www.w3.org/2000/svg" xmlns:xlink="http://www.w3.org/1999/xlink" x="0px" y="0px"
	 viewBox="0 0 100 100" enable-background="new 0 0 100 100" xml:space="preserve">
<g>
	<path d="M4.58,41.742c-0.342-0.133-0.512-0.52-0.378-0.862s0.52-0.512,0.862-0.378l5.26,2.06c0.748-6.167,3.443-13.282,7.527-17.73
		c2.565-2.793,5.402-4.162,7.925-3.465h0.007l0.128,0.038c0.663,0.203,1.262,0.537,1.797,0.983c0.418,0.352,0.798,0.773,1.137,1.258
		c0.722-0.103,1.432-0.067,2.118,0.122h0.007l0.128,0.038c1.107,0.338,2.038,1.043,2.788,2.043c0.737,0.983,1.297,2.255,1.665,3.738
		c0.045,0.182,0.085,0.355,0.122,0.525c0.042,0.193,0.077,0.375,0.107,0.545c0.078,0.453-0.223,0.885-0.677,0.963
		c-0.453,0.078-0.885-0.223-0.963-0.677c-0.032-0.18-0.063-0.342-0.093-0.485c-0.037-0.17-0.072-0.327-0.108-0.472
		c-0.317-1.273-0.78-2.34-1.378-3.14c-0.54-0.72-1.19-1.22-1.94-1.452l0,0c-1.89-0.58-4.18,0.597-6.355,2.963
		c-3.868,4.213-6.422,11.058-7.11,16.872l11.525,4.512c0.768-6.13,3.452-13.185,7.512-17.605c2.565-2.793,5.402-4.162,7.925-3.465
		h0.007l0.128,0.038c0.663,0.203,1.262,0.537,1.797,0.983c0.418,0.352,0.798,0.773,1.137,1.258c0.722-0.103,1.432-0.067,2.118,0.122
		h0.007l0.128,0.038c1.107,0.338,2.038,1.043,2.788,2.043c0.737,0.983,1.297,2.255,1.665,3.738c0.045,0.182,0.085,0.355,0.122,0.525
		c0.042,0.193,0.077,0.375,0.107,0.545c0.078,0.453-0.223,0.885-0.677,0.963c-0.453,0.078-0.885-0.223-0.963-0.677
		c-0.032-0.18-0.063-0.342-0.093-0.485c-0.037-0.17-0.072-0.327-0.108-0.472c-0.317-1.273-0.78-2.34-1.378-3.14
		c-0.54-0.72-1.19-1.22-1.94-1.452l0,0c-1.89-0.58-4.18,0.597-6.355,2.963c-3.845,4.187-6.387,10.97-7.095,16.748l11.862,4.643
		c0.755-6.153,3.447-13.25,7.522-17.69c2.565-2.793,5.402-4.162,7.925-3.465h0.007l0.128,0.038c0.24,0.073,0.472,0.163,0.695,0.272
		c1.058,0.327,1.958,0.988,2.69,1.925c0.567-0.035,1.123,0.02,1.665,0.168h0.007l0.128,0.038c1.107,0.338,2.038,1.043,2.788,2.043
		c0.737,0.983,1.297,2.255,1.665,3.738c0.045,0.182,0.085,0.355,0.122,0.525c0.042,0.193,0.077,0.375,0.107,0.545
		c0.078,0.453-0.223,0.885-0.677,0.963c-0.453,0.078-0.885-0.223-0.963-0.677c-0.032-0.18-0.063-0.342-0.093-0.485
		c-0.037-0.17-0.072-0.327-0.108-0.472c-0.317-1.273-0.78-2.34-1.378-3.14c-0.54-0.72-1.19-1.22-1.94-1.452l0,0
		c-0.097-0.03-0.195-0.055-0.293-0.075c0.293,0.647,0.537,1.362,0.728,2.133c0.045,0.182,0.085,0.355,0.122,0.525
		c0.042,0.193,0.077,0.375,0.107,0.545c0.078,0.453-0.223,0.885-0.677,0.963c-0.453,0.078-0.885-0.223-0.963-0.677
		c-0.032-0.18-0.063-0.342-0.093-0.485c-0.037-0.17-0.072-0.327-0.108-0.472c-0.232-0.933-0.543-1.757-0.928-2.443
		c-1.37,0.377-2.833,1.412-4.248,2.952c-3.86,4.205-6.41,11.03-7.105,16.832l25.272,9.895l13.98-13.29
		c0.267-0.253,0.687-0.243,0.94,0.023s0.243,0.687-0.023,0.94L80.1,70.863c-0.182,0.187-0.463,0.258-0.722,0.158l-25.315-9.91
		c-0.048,0.665-0.072,1.312-0.07,1.94l26.192,10.253l13.98-13.29c0.267-0.253,0.687-0.243,0.94,0.023s0.243,0.687-0.023,0.94
		L80.815,74.54c-0.182,0.187-0.463,0.258-0.722,0.158l-26.053-10.2c0.035,0.543,0.092,1.068,0.167,1.57
		c0.05,0.338,0.11,0.665,0.177,0.98c8.792,3.442,17.565,6.877,26.365,10.322l13.98-13.29c0.267-0.253,0.687-0.243,0.94,0.023
		c0.253,0.267,0.243,0.687-0.023,0.94L81.378,78.605c-0.182,0.187-0.463,0.258-0.722,0.158l-17.2-6.733
		c-0.995,0.768-2.01,1.317-3.017,1.61c-1.02,0.297-2.025,0.33-2.983,0.065H57.45l-0.128-0.038c-1.177-0.36-2.157-1.137-2.928-2.24
		c-0.723,0.103-1.433,0.067-2.123-0.123h-0.007l-0.128-0.038c-2.09-0.64-3.562-2.593-4.342-5.365l-2.96-1.158
		c-1.018,0.8-2.06,1.368-3.092,1.668c-1.02,0.297-2.025,0.33-2.983,0.065h-0.007l-0.128-0.038c-1.177-0.36-2.157-1.137-2.928-2.24
		c-0.723,0.103-1.433,0.067-2.123-0.123h-0.007l-0.128-0.038c-2.115-0.648-3.597-2.638-4.37-5.463l-2.683-1.05
		c-0.983,0.755-1.987,1.293-2.98,1.582c-1.02,0.297-2.025,0.33-2.983,0.065h-0.007l-0.128-0.038c-1.177-0.36-2.157-1.137-2.928-2.24
		c-0.723,0.103-1.433,0.067-2.123-0.123h-0.007l-0.128-0.038c-2.078-0.637-3.545-2.57-4.328-5.317L5.862,49.49
		c-0.342-0.133-0.512-0.52-0.378-0.862c0.133-0.342,0.52-0.512,0.862-0.378l4.065,1.592c-0.027-0.155-0.053-0.312-0.077-0.472
		c-0.097-0.653-0.163-1.34-0.2-2.053l-4.837-1.893c-0.342-0.133-0.512-0.52-0.378-0.862s0.52-0.512,0.862-0.378l4.323,1.693
		c0.005-0.628,0.033-1.275,0.083-1.935L4.58,41.747V41.742z M64.143,47.918c-0.342-0.133-0.512-0.52-0.378-0.862
		c0.133-0.342,0.52-0.512,0.862-0.378l6.982,2.733l5.975-5.68c0.267-0.253,0.687-0.243,0.94,0.023s0.243,0.687-0.023,0.94
		l-6.262,5.952c-0.182,0.187-0.463,0.258-0.722,0.158l-7.375-2.887H64.143z M11.923,43.188l3.63,1.422
		c0.8-6.038,3.458-12.993,7.482-17.375c1.318-1.435,2.708-2.493,4.09-3.09c-0.155-0.177-0.317-0.337-0.487-0.48
		c-0.37-0.31-0.773-0.537-1.208-0.67h-0.002c-1.89-0.58-4.18,0.597-6.355,2.963C15.138,30.245,12.553,37.272,11.923,43.188z
		 M24.512,56.788l-3.648-1.428c-0.597,0.427-1.198,0.773-1.8,1.032c0.488,0.557,1.055,0.95,1.698,1.147l0,0
		c0.68,0.208,1.413,0.188,2.173-0.033c0.515-0.15,1.042-0.392,1.575-0.718L24.512,56.788z M18.938,54.607l-1.127-0.442
		c0.103,0.282,0.215,0.55,0.337,0.803C18.41,54.87,18.673,54.748,18.938,54.607z M15.84,53.393l-3.04-1.19
		c0.645,1.523,1.58,2.567,2.777,2.933l0,0c0.288,0.088,0.587,0.135,0.893,0.143c-0.248-0.578-0.458-1.21-0.63-1.885V53.393z
		 M12.262,50.563l3.267,1.278c-0.003-0.023-0.007-0.048-0.012-0.073c-0.115-0.768-0.187-1.582-0.215-2.433l-3.457-1.353
		c0.033,0.392,0.078,0.773,0.133,1.142c0.075,0.503,0.17,0.983,0.283,1.438V50.563z M17.352,52.557l3.197,1.252
		c0.14,0.017,0.273,0.068,0.39,0.153c2.632,1.03,5.175,2.027,7.782,3.047c-0.018-0.11-0.037-0.22-0.053-0.332
		c-0.103-0.693-0.172-1.425-0.205-2.187l-11.46-4.487c0.035,0.528,0.09,1.038,0.163,1.527C17.218,51.885,17.28,52.227,17.352,52.557
		z M11.77,46.525l3.525,1.38c0.013-0.627,0.05-1.268,0.108-1.925l-3.593-1.407C11.772,45.243,11.758,45.895,11.77,46.525z
		 M16.952,48.553l11.49,4.498c0.008-0.628,0.038-1.273,0.092-1.932L17.02,46.612C16.973,47.277,16.95,47.925,16.952,48.553z
		 M30.273,50.372l3.633,1.423c0.818-6.002,3.467-12.895,7.465-17.25c1.318-1.435,2.708-2.493,4.09-3.09
		c-0.155-0.177-0.317-0.337-0.487-0.48c-0.37-0.31-0.773-0.537-1.208-0.67h-0.002c-1.89-0.58-4.18,0.597-6.355,2.963
		c-3.912,4.26-6.485,11.225-7.137,17.105V50.372z M42.977,64.017l-3.662-1.433c-0.013,0.012-0.028,0.022-0.042,0.033
		c-0.62,0.452-1.248,0.815-1.873,1.085c0.488,0.557,1.055,0.95,1.698,1.147l0,0c0.68,0.208,1.413,0.188,2.173-0.033
		C41.827,64.653,42.398,64.383,42.977,64.017z M37.413,61.838l-1.32-0.517c0.118,0.338,0.248,0.657,0.392,0.955
		c0.307-0.115,0.617-0.262,0.93-0.438H37.413z M34.14,60.557l-3.07-1.202c0.647,1.608,1.605,2.71,2.842,3.088l0,0
		c0.288,0.088,0.587,0.135,0.893,0.143c-0.267-0.62-0.488-1.3-0.667-2.03H34.14z M30.562,57.727l3.282,1.285
		c-0.115-0.788-0.185-1.625-0.21-2.498l-3.463-1.357c0.035,0.438,0.083,0.865,0.145,1.277
		C30.382,56.883,30.465,57.315,30.562,57.727z M35.657,59.722l11.777,4.61c-0.025-0.14-0.048-0.282-0.068-0.427
		c-0.1-0.667-0.167-1.367-0.202-2.097l-11.835-4.633c0.035,0.575,0.093,1.13,0.172,1.662C35.545,59.14,35.598,59.435,35.657,59.722z
		 M30.103,53.702l3.53,1.382c0.017-0.625,0.055-1.267,0.117-1.922l-3.597-1.408C30.112,52.422,30.095,53.072,30.103,53.702z
		 M35.287,55.732l11.85,4.64c0.007-0.628,0.035-1.273,0.087-1.933l-11.86-4.643C35.313,54.458,35.288,55.105,35.287,55.732z
		 M48.962,57.688l3.632,1.422c0.805-6.027,3.462-12.962,7.477-17.333c1.318-1.435,2.708-2.493,4.09-3.09
		c-0.155-0.177-0.317-0.337-0.487-0.48c-0.37-0.31-0.773-0.537-1.208-0.67h-0.002c-1.89-0.58-4.18,0.597-6.355,2.963
		C52.18,44.778,49.6,51.785,48.962,57.688z M52.44,60.48l-3.593-1.407c-0.04,0.668-0.053,1.32-0.043,1.95l3.527,1.38
		c0.015-0.627,0.052-1.268,0.11-1.925V60.48z M57.935,69.875c-0.608,0.44-1.225,0.795-1.838,1.06
		c0.488,0.557,1.055,0.95,1.698,1.147l0,0c0.68,0.208,1.413,0.188,2.173-0.033c0.528-0.153,1.07-0.405,1.618-0.743L57.935,69.875z
		 M54.825,68.658c0.108,0.3,0.227,0.585,0.355,0.853c0.277-0.103,0.555-0.233,0.837-0.387L54.825,68.658z M52.608,69.678
		c0.288,0.088,0.587,0.135,0.893,0.143c-0.255-0.592-0.468-1.238-0.642-1.933l-3.05-1.195c0.645,1.552,1.588,2.613,2.798,2.983l0,0
		V69.678z M52.553,66.34l-0.003-0.027c-0.117-0.78-0.19-1.608-0.217-2.477l-3.458-1.355c0.035,0.407,0.08,0.803,0.137,1.187
		c0.073,0.487,0.163,0.95,0.272,1.39l3.272,1.282H52.553z"/>
</g>
</svg>
