<?xml version="1.0" encoding="utf-8"?>
<!-- Generator: Adobe Illustrator 24.2.1, SVG Export Plug-In . SVG Version: 6.00 Build 0)  -->
<svg version="1.1" id="Layer_1" xmlns="http://www.w3.org/2000/svg" xmlns:xlink="http://www.w3.org/1999/xlink" x="0px" y="0px"
	 viewBox="0 0 100 100" enable-background="new 0 0 100 100" xml:space="preserve">
<g>
	<path d="M58.585,23.628c2.307,0.423,4.238,1.01,5.607,1.707c1.567,0.797,2.46,1.78,2.46,2.893c0,0.06-0.003,0.12-0.008,0.178
		c-0.015,0.593-0.155,1.147-0.293,1.697c-0.237,0.937-0.47,1.858,0.205,2.565c0.142,0.148,0.2,0.345,0.178,0.533h0.002
		c-0.055,0.475-0.175,0.935-0.295,1.393c-0.22,0.84-0.438,1.673-0.067,2.44c0.072,0.052,0.135,0.118,0.183,0.198l5.4,9.052
		c-0.247-1.315-0.553-2.723-0.862-4.132c-0.76-3.477-1.52-6.955-1.388-9.227c0.028-0.495,0.277-1.033,0.683-1.582
		c0.88-1.188,2.59-2.553,4.322-3.6c1.77-1.068,3.612-1.825,4.703-1.762c0.345,0.02,0.643,0.113,0.882,0.292
		c0.865,0.64,1.793,1.93,2.597,3.045l0.057,0.078l0.328-2.07c0.055-0.347,0.367-0.587,0.71-0.558v-0.002
		c1.322,0.112,2.607,0.078,3.867-0.197c1.252-0.273,2.49-0.785,3.728-1.63c0.303-0.207,0.717-0.128,0.925,0.175
		c0.055,0.08,0.09,0.17,0.107,0.26c0.252,1.108,0.595,2.162,1.168,3.207c0.578,1.055,1.397,2.108,2.595,3.21
		c0.27,0.248,0.288,0.67,0.038,0.94c-0.037,0.04-0.077,0.075-0.12,0.103v0.002l-2.843,1.895l3.933,5.033
		c0.043,0.042,0.083,0.083,0.12,0.125c1.392,1.565,1.543,6.238,1.1,10.757c-0.44,4.487-1.48,8.91-2.477,9.977
		c-0.04,0.043-0.078,0.082-0.113,0.112c-0.192,0.17-0.452,0.21-0.677,0.127l-9.413-3.093l7.288,6.728
		c1.168,1.078,1.118,3.385,0.333,5.783c-0.325,0.992-0.777,2.013-1.318,2.973c-0.543,0.965-1.175,1.862-1.853,2.597
		c-1.43,1.548-3.103,2.43-4.735,1.895l-12.428-4.075l9.063,9.735c0.705,0.757,0.918,1.653,0.748,2.627
		c-0.225,1.298-1.167,2.723-2.515,4.11c-1.295,1.332-2.982,2.648-4.767,3.787c-3.878,2.475-8.29,4.095-10.29,3.228l-5.048-2.187
		c-0.073,0.025-0.147,0.05-0.222,0.073c-2.682,0.867-6.372,1.403-10.43,1.403c-4.06,0-7.748-0.537-10.43-1.403
		c-2.283-0.738-3.882-1.753-4.46-2.937c-0.07-0.068-0.127-0.155-0.16-0.255l-2.958-8.507l0,0c-0.025-0.07-0.037-0.145-0.037-0.223
		l0.01-1.312c-0.348-0.072-0.72-0.142-1.102-0.213c-3.41-0.643-7.667-1.448-9.253-5.48c-0.428-1.092-0.722-3.538-0.872-6.53
		c-5.035,1.91-9.8,1.373-13.85,0.915c-0.525-0.06-1.04-0.117-1.457-0.16c-0.265-0.027-0.498-0.213-0.573-0.485
		c-0.098-0.353,0.11-0.72,0.463-0.818c2.28-0.637,4.652-1.643,7.023-2.652c2.782-1.182,5.563-2.363,8.278-2.987
		c0.012-1.327,0.047-2.658,0.102-3.947C14.203,64.163,8.062,63.47,3.09,62.908c-0.483-0.055-0.955-0.108-1.33-0.147
		c-0.265-0.027-0.498-0.213-0.573-0.485c-0.098-0.353,0.11-0.72,0.463-0.818c2.078-0.58,4.243-1.5,6.408-2.42
		c4.118-1.75,8.237-3.498,12.072-3.082c-0.59-0.937-1.157-1.877-1.7-2.823C12.523,56.68,7.317,55.43,3.117,54.42
		c-0.302-0.072-0.595-0.143-1.065-0.252C1.777,54.12,1.553,53.9,1.51,53.608c-0.053-0.363,0.198-0.702,0.563-0.755
		c1.793-0.268,3.697-0.812,5.6-1.357c3.103-0.887,6.205-1.772,9.03-1.548c-0.395-0.772-0.777-1.547-1.142-2.323
		c-4.957,1.878-8.55,0.16-11.652-1.323c-0.558-0.267-1.102-0.527-1.66-0.763l0,0c-0.243-0.103-0.41-0.347-0.403-0.627
		c0.008-0.367,0.313-0.657,0.68-0.648c1.508,0.04,3.153-0.128,4.797-0.298c2.165-0.223,4.332-0.445,6.297-0.212
		c0.088,0.01,0.175,0.022,0.265,0.035c-0.282-0.697-0.55-1.395-0.808-2.093c-0.08-0.217-0.158-0.433-0.237-0.65
		c-4.912,0.562-7.937-1.788-10.377-3.685c-0.26-0.202-0.515-0.4-0.63-0.488l0,0c-0.21-0.16-0.312-0.437-0.237-0.705
		c0.098-0.353,0.463-0.562,0.818-0.463c1.218,0.34,2.598,0.533,3.978,0.727c1.858,0.26,3.717,0.52,5.3,1.143
		c-0.25-0.827-0.485-1.655-0.705-2.485c-5.012-0.727-7.08-3.86-8.728-6.357c-0.115-0.175-0.228-0.345-0.4-0.6h0.002
		c-0.148-0.22-0.155-0.518,0.005-0.75c0.208-0.302,0.622-0.378,0.925-0.17c0.952,0.655,2.073,1.228,3.193,1.802
		c1.488,0.762,2.975,1.523,4.153,2.495c-0.142-0.665-0.272-1.332-0.393-1.998c-5.058-2.457-5.967-6.375-6.685-9.47
		C3,19.78,2.942,19.527,2.902,19.363c-0.082-0.267,0.013-0.568,0.255-0.737c0.3-0.212,0.715-0.138,0.927,0.162
		c0.682,0.972,1.547,1.913,2.41,2.855c0.662,0.722,1.323,1.443,1.913,2.182c-1.143-4.117,0.383-7.155,1.625-9.622
		c0.122-0.242,0.242-0.478,0.303-0.607c0.105-0.267,0.373-0.445,0.672-0.42c0.367,0.028,0.64,0.35,0.612,0.717
		c-0.097,1.18-0.035,2.458,0.027,3.738c0.13,2.713,0.26,5.428-1.018,7.463c-0.053,0.083-0.122,0.152-0.198,0.202
		c0.008,0.027,0.015,0.055,0.02,0.085c0.062,0.375,0.127,0.75,0.193,1.123c1.37-1.92,3.698-3.268,6.028-4.615
		c1.307-0.757,2.613-1.513,3.712-2.353c0.292-0.223,0.71-0.167,0.932,0.125c0.17,0.223,0.178,0.52,0.042,0.747l0,0
		c-0.168,0.28-0.295,0.493-0.422,0.707c-1.817,3.072-3.73,6.308-9.562,7.76c-0.092,0.022-0.183,0.025-0.27,0.01
		c0.265,1.27,0.558,2.533,0.885,3.787c1.562-2.358,4.373-3.985,7.183-5.612c1.532-0.887,3.063-1.773,4.353-2.762
		c0.292-0.223,0.71-0.167,0.932,0.125c0.17,0.223,0.178,0.52,0.042,0.747l0,0c-0.193,0.322-0.343,0.573-0.493,0.828
		c-2.113,3.573-4.34,7.338-11.115,9.025c-0.083,0.02-0.168,0.025-0.248,0.013c0.36,1.222,0.752,2.437,1.177,3.643
		c1.89-2.827,5.287-4.792,8.683-6.758c1.872-1.083,3.743-2.167,5.322-3.377c0.292-0.223,0.71-0.167,0.932,0.125
		c0.17,0.223,0.178,0.52,0.042,0.747l0,0c-0.23,0.382-0.415,0.695-0.602,1.01c-2.552,4.315-5.242,8.863-13.38,10.912
		c0.42,1.053,0.865,2.1,1.34,3.14c2.345-3.282,6.378-5.617,10.412-7.952c2.305-1.333,4.608-2.667,6.557-4.162
		c0.005-0.003,0.008-0.007,0.013-0.01c0.38-0.657,0.178-1.453-0.025-2.26c-0.145-0.57-0.29-1.145-0.295-1.763
		c0-0.092,0.017-0.178,0.05-0.258c0.115-1.562,2.093-2.895,5.232-3.798c2.998-0.863,7.12-1.398,11.657-1.398
		c0.712,0,1.448,0.015,2.207,0.045c0.487,0.018,0.955,0.043,1.407,0.072V3.258c0-0.368,0.298-0.667,0.667-0.667h3.88
		c0.368,0,0.667,0.298,0.667,0.667v20.36L58.585,23.628z M43.517,94.655c-0.013-0.085-0.02-0.172-0.02-0.26
		c0-0.662,0.373-1.24,0.977-1.64c0.522-0.347,1.23-0.562,2.002-0.562c0.77,0,1.478,0.215,2.002,0.562
		c0.603,0.4,0.977,0.98,0.977,1.64c0,0.253-0.055,0.495-0.158,0.72c0.155,0.002,0.308,0.002,0.465,0.002
		c3.928,0,7.472-0.51,10.025-1.335c2.03-0.657,3.385-1.462,3.702-2.298c0.005-0.022,0.012-0.043,0.018-0.065l0.018-0.055
		c0.022-0.085,0.033-0.17,0.033-0.255h0.055l1.882-5.41c-0.883,0.473-2.002,0.893-3.308,1.245c-3.19,0.86-7.583,1.393-12.427,1.393
		c-4.842,0-9.237-0.532-12.427-1.393c-1.338-0.362-2.478-0.792-3.372-1.278l1.893,5.445h0.107c0,0.968,1.442,1.918,3.773,2.672
		c1.095,0.353,2.372,0.65,3.783,0.872V94.655z M47.497,95.06c0.207-0.093,0.375-0.212,0.488-0.348
		c0.085-0.102,0.133-0.21,0.133-0.318c0-0.187-0.145-0.377-0.377-0.532c-0.313-0.208-0.762-0.338-1.267-0.338
		c-0.505,0-0.953,0.128-1.267,0.338c-0.233,0.155-0.377,0.343-0.377,0.532c0,0.087,0.03,0.172,0.083,0.252
		c0.052,0.078,0.127,0.153,0.218,0.223c0.762,0.085,1.552,0.148,2.367,0.19L47.497,95.06z M57.605,89.883
		c0.397,0,0.755,0.16,1.013,0.42c0.26,0.26,0.42,0.618,0.42,1.013c0,0.397-0.16,0.755-0.42,1.013c-0.26,0.26-0.618,0.42-1.013,0.42
		c-0.397,0-0.755-0.16-1.013-0.42c-0.26-0.26-0.42-0.618-0.42-1.013c0-0.397,0.16-0.755,0.42-1.013
		C56.852,90.043,57.21,89.883,57.605,89.883z M57.677,91.247c-0.018-0.018-0.043-0.03-0.072-0.03c-0.028,0-0.053,0.012-0.072,0.03
		c-0.018,0.018-0.03,0.043-0.03,0.072s0.012,0.053,0.03,0.072c0.018,0.018,0.043,0.03,0.072,0.03c0.028,0,0.053-0.012,0.072-0.03
		s0.03-0.043,0.03-0.072S57.695,91.265,57.677,91.247z M62.72,80.535c0.397,0,0.755,0.16,1.013,0.42
		c0.26,0.26,0.42,0.618,0.42,1.013c0,0.397-0.16,0.755-0.42,1.013c-0.26,0.26-0.618,0.42-1.013,0.42c-0.397,0-0.755-0.16-1.013-0.42
		c-0.26-0.26-0.42-0.618-0.42-1.013c0-0.397,0.16-0.755,0.42-1.013C61.967,80.695,62.325,80.535,62.72,80.535z M62.792,81.898
		c-0.018-0.018-0.043-0.03-0.072-0.03s-0.053,0.012-0.072,0.03s-0.03,0.043-0.03,0.072s0.012,0.053,0.03,0.072
		s0.043,0.03,0.072,0.03s0.053-0.012,0.072-0.03s0.03-0.043,0.03-0.072S62.81,81.917,62.792,81.898z M34.762,70.657
		c0.397,0,0.755,0.16,1.013,0.42c0.26,0.26,0.42,0.618,0.42,1.013c0,0.397-0.16,0.755-0.42,1.013c-0.26,0.26-0.618,0.42-1.013,0.42
		c-0.397,0-0.755-0.16-1.013-0.42c-0.26-0.26-0.42-0.618-0.42-1.013c0-0.397,0.16-0.755,0.42-1.013
		C34.008,70.817,34.367,70.657,34.762,70.657z M34.833,72.02c-0.018-0.018-0.043-0.03-0.072-0.03c-0.028,0-0.053,0.012-0.072,0.03
		s-0.03,0.043-0.03,0.072s0.012,0.053,0.03,0.072s0.043,0.03,0.072,0.03c0.028,0,0.053-0.012,0.072-0.03s0.03-0.043,0.03-0.072
		S34.852,72.038,34.833,72.02z M60.93,47.523c0.397,0,0.755,0.16,1.013,0.42c0.26,0.26,0.42,0.618,0.42,1.013
		c0,0.397-0.16,0.755-0.42,1.013c-0.26,0.26-0.618,0.42-1.013,0.42c-0.397,0-0.755-0.16-1.013-0.42
		c-0.26-0.26-0.42-0.618-0.42-1.013c0-0.397,0.16-0.755,0.42-1.013C60.177,47.683,60.535,47.523,60.93,47.523z M61.002,48.887
		c-0.018-0.018-0.043-0.03-0.072-0.03c-0.028,0-0.053,0.012-0.072,0.03s-0.03,0.043-0.03,0.072c0,0.028,0.012,0.053,0.03,0.072
		s0.043,0.03,0.072,0.03c0.028,0,0.053-0.012,0.072-0.03s0.03-0.043,0.03-0.072C61.032,48.93,61.02,48.905,61.002,48.887z
		 M45.883,63.57c0.018-0.72,0.318-1.372,0.793-1.847c0.492-0.492,1.17-0.795,1.918-0.795s1.427,0.303,1.918,0.795
		c0.492,0.492,0.795,1.17,0.795,1.918c0,0.548-0.163,1.058-0.443,1.485c-0.257,0.392-0.613,0.712-1.033,0.928v0.008
		c0,0.762-0.308,1.453-0.808,1.952c-0.5,0.5-1.19,0.808-1.952,0.808c-0.762,0-1.453-0.308-1.952-0.808
		c-0.5-0.5-0.808-1.19-0.808-1.952c0-0.762,0.308-1.453,0.808-1.952c0.222-0.222,0.478-0.405,0.765-0.54L45.883,63.57z
		 M49.477,64.705c0.105-0.088,0.198-0.192,0.275-0.308c0.142-0.217,0.225-0.477,0.225-0.757c0-0.382-0.155-0.727-0.403-0.975
		c-0.25-0.25-0.595-0.403-0.975-0.403c-0.382,0-0.727,0.155-0.975,0.403c-0.175,0.175-0.302,0.395-0.363,0.642
		c0.688,0.045,1.308,0.343,1.768,0.803c0.177,0.177,0.328,0.377,0.452,0.595H49.477z M41.458,47.347
		c0.853,0,1.627,0.347,2.187,0.905c0.56,0.56,0.905,1.333,0.905,2.187s-0.347,1.627-0.905,2.187c-0.56,0.56-1.333,0.905-2.187,0.905
		c-0.853,0-1.627-0.347-2.187-0.905c-0.56-0.56-0.905-1.333-0.905-2.187s0.347-1.627,0.905-2.187
		C39.832,47.692,40.605,47.347,41.458,47.347z M42.702,49.195c-0.318-0.318-0.758-0.515-1.243-0.515
		c-0.485,0-0.925,0.197-1.243,0.515c-0.318,0.318-0.515,0.758-0.515,1.243s0.197,0.925,0.515,1.243s0.758,0.515,1.243,0.515
		c0.485,0,0.925-0.197,1.243-0.515s0.515-0.758,0.515-1.243S43.02,49.513,42.702,49.195z M53.825,51.783
		c0.608,0,1.158,0.247,1.557,0.645c0.398,0.398,0.645,0.948,0.645,1.557s-0.247,1.158-0.645,1.557s-0.948,0.645-1.557,0.645
		s-1.158-0.247-1.557-0.645c-0.398-0.398-0.645-0.948-0.645-1.557s0.247-1.158,0.645-1.557
		C52.667,52.03,53.217,51.783,53.825,51.783z M54.44,53.372c-0.157-0.157-0.375-0.255-0.615-0.255c-0.24,0-0.457,0.097-0.615,0.255
		c-0.157,0.157-0.255,0.375-0.255,0.615c0,0.24,0.097,0.457,0.255,0.615c0.157,0.157,0.375,0.255,0.615,0.255
		c0.24,0,0.457-0.097,0.615-0.255c0.157-0.157,0.255-0.375,0.255-0.615C54.695,53.747,54.598,53.53,54.44,53.372z M57.973,70.925
		c0.608,0,1.158,0.247,1.557,0.645c0.398,0.398,0.645,0.948,0.645,1.557c0,0.608-0.247,1.158-0.645,1.557
		c-0.398,0.398-0.948,0.645-1.557,0.645s-1.158-0.247-1.557-0.645s-0.645-0.948-0.645-1.557c0-0.608,0.247-1.158,0.645-1.557
		C56.815,71.172,57.365,70.925,57.973,70.925z M58.588,72.513c-0.157-0.157-0.375-0.255-0.615-0.255
		c-0.24,0-0.457,0.097-0.615,0.255c-0.157,0.157-0.255,0.375-0.255,0.615s0.097,0.457,0.255,0.615
		c0.157,0.157,0.375,0.255,0.615,0.255c0.24,0,0.457-0.097,0.615-0.255c0.157-0.157,0.255-0.375,0.255-0.615
		S58.747,72.672,58.588,72.513z M48.083,65.053c-0.258-0.258-0.615-0.418-1.01-0.418s-0.752,0.16-1.01,0.418
		c-0.258,0.258-0.418,0.615-0.418,1.01c0,0.395,0.16,0.752,0.418,1.01c0.258,0.258,0.615,0.418,1.01,0.418s0.752-0.16,1.01-0.418
		c0.258-0.258,0.418-0.615,0.418-1.01C48.502,65.668,48.342,65.312,48.083,65.053z M39.555,79.485c0.562,0,1.07,0.228,1.438,0.595
		c0.368,0.368,0.595,0.877,0.595,1.438s-0.228,1.07-0.595,1.438c-0.368,0.368-0.877,0.595-1.438,0.595
		c-0.562,0-1.07-0.228-1.438-0.595c-0.368-0.368-0.595-0.877-0.595-1.438s0.228-1.07,0.595-1.438
		C38.485,79.712,38.993,79.485,39.555,79.485z M40.05,81.023c-0.127-0.127-0.302-0.205-0.495-0.205s-0.368,0.078-0.495,0.205
		c-0.127,0.127-0.205,0.302-0.205,0.495c0,0.193,0.078,0.368,0.205,0.495c0.127,0.127,0.302,0.205,0.495,0.205
		s0.368-0.078,0.495-0.205c0.127-0.127,0.205-0.302,0.205-0.495C40.255,81.325,40.177,81.15,40.05,81.023z M92.082,39.855
		c-0.23-0.01-0.407-0.205-0.395-0.435c0.01-0.23,0.205-0.407,0.435-0.395c1.067,0.053,2.1,0.285,3.057,0.657
		c0.237,0.092,0.47,0.193,0.697,0.302l-3.868-4.95c-0.025-0.027-0.047-0.055-0.067-0.085c-0.205-0.307-0.122-0.72,0.185-0.925
		l2.75-1.833c-0.992-1-1.713-1.978-2.253-2.963c-0.485-0.885-0.822-1.772-1.078-2.68c-1.128,0.657-2.258,1.082-3.402,1.33
		c-1.203,0.262-2.413,0.328-3.642,0.265l-0.472,2.978c-0.017,0.167-0.097,0.327-0.235,0.442c-0.282,0.237-0.702,0.198-0.938-0.083
		c-0.293-0.352-0.65-0.845-1.035-1.38c-0.747-1.037-1.61-2.235-2.312-2.753c-0.022-0.015-0.077-0.025-0.163-0.03
		c-0.817-0.047-2.375,0.627-3.942,1.575c-1.605,0.97-3.168,2.207-3.942,3.252c-0.257,0.347-0.412,0.645-0.423,0.863
		c-0.122,2.087,0.62,5.48,1.362,8.873c0.593,2.712,1.185,5.423,1.355,7.555h-0.002c0.018,0.243-0.098,0.488-0.322,0.622
		c-0.315,0.188-0.723,0.085-0.912-0.23l-6.315-10.588c-0.618,2.277-0.103,3.62,0.423,4.992c0.412,1.07,0.828,2.157,0.84,3.662
		l0.175,21.42c4.205-5.257,8.375-10.982,12.102-17.248c4.062-6.83,7.598-14.307,10.083-22.528c0.107-0.352,0.478-0.552,0.83-0.445
		c0.352,0.107,0.552,0.478,0.445,0.83c-2.517,8.328-6.098,15.902-10.213,22.82c-4.062,6.83-8.643,13.02-13.23,18.667l0.095,11.59
		h0.003c0,0.027,0,0.053-0.002,0.082v0.048c0,0.067-0.008,0.132-0.027,0.193c-0.035,0.203-0.105,0.403-0.207,0.598l-2.762,7.94
		c-0.007,0.02-0.015,0.038-0.023,0.057c-0.345,0.89-1.258,1.692-2.605,2.358l3.857,1.67c1.585,0.687,5.493-0.86,9.05-3.128
		c1.698-1.083,3.302-2.335,4.527-3.595c1.172-1.205,1.98-2.393,2.155-3.408c0.098-0.565-0.018-1.077-0.41-1.497l-10.808-11.61
		c-0.17-0.172-0.24-0.43-0.162-0.675c0.113-0.35,0.488-0.54,0.838-0.427l14.882,4.878c1.055,0.347,2.255-0.35,3.345-1.53
		c0.615-0.667,1.187-1.477,1.677-2.347c0.493-0.873,0.908-1.813,1.21-2.733c0.635-1.937,0.77-3.71,0.032-4.392l-9.528-8.795
		c-0.193-0.17-0.278-0.445-0.195-0.707c0.113-0.35,0.488-0.54,0.838-0.427l11.912,3.913c0.282-0.46,0.567-1.265,0.835-2.297
		c-1.632-1.057-3.337-1.742-5.102-2.213c-1.943-0.518-3.965-0.783-6.04-1.003c-0.228-0.025-0.393-0.228-0.37-0.457
		c0.025-0.228,0.228-0.393,0.457-0.37c2.115,0.225,4.173,0.493,6.168,1.027c1.757,0.468,3.458,1.14,5.095,2.162
		c0.14-0.618,0.272-1.293,0.393-2.007c-1.452-1.003-2.993-1.668-4.602-2.127c-1.685-0.48-3.442-0.733-5.25-0.91
		c-0.228-0.022-0.395-0.225-0.373-0.453c0.022-0.228,0.225-0.395,0.453-0.373c1.855,0.182,3.662,0.443,5.397,0.937
		c1.57,0.447,3.082,1.083,4.52,2.023c0.102-0.672,0.193-1.367,0.273-2.072c-1.218-0.887-2.537-1.502-3.923-1.928
		c-1.415-0.437-2.912-0.678-4.455-0.813c-0.23-0.02-0.398-0.222-0.38-0.452c0.02-0.23,0.222-0.398,0.452-0.38
		c1.592,0.14,3.143,0.392,4.628,0.85c1.325,0.408,2.592,0.98,3.778,1.777c0.068-0.72,0.123-1.44,0.162-2.147
		c-0.907-0.68-1.907-1.198-2.973-1.573c-1.19-0.42-2.46-0.663-3.772-0.76c-0.23-0.017-0.402-0.215-0.385-0.445
		c0.017-0.23,0.215-0.402,0.445-0.385c1.383,0.102,2.727,0.358,3.99,0.805c0.967,0.342,1.885,0.793,2.737,1.368
		c0.023-0.797,0.023-1.565-0.007-2.28c-0.627-0.463-1.33-0.852-2.085-1.145c-0.877-0.34-1.822-0.552-2.797-0.6
		c-0.23-0.01-0.407-0.205-0.395-0.435c0.01-0.23,0.205-0.407,0.435-0.395c1.067,0.053,2.1,0.285,3.057,0.657
		c0.605,0.235,1.182,0.527,1.717,0.867c-0.085-0.918-0.232-1.708-0.45-2.305c-0.632-0.468-1.34-0.862-2.102-1.157
		c-0.877-0.34-1.822-0.552-2.797-0.6L92.082,39.855z M74.46,31.5c-0.037-0.227,0.117-0.44,0.343-0.477
		c0.227-0.037,0.44,0.117,0.477,0.343l1.543,9.348c0.037,0.227-0.117,0.44-0.343,0.477c-0.227,0.037-0.44-0.117-0.477-0.343
		L74.46,31.5z M78.007,68.793c-0.218-0.075-0.333-0.312-0.258-0.528c0.075-0.218,0.312-0.333,0.528-0.258l10.142,3.483
		c0.218,0.075,0.333,0.312,0.258,0.528c-0.075,0.218-0.312,0.333-0.528,0.258L78.007,68.793z M74.963,70.447
		c-0.218-0.075-0.333-0.312-0.258-0.528c0.075-0.218,0.312-0.333,0.528-0.258l10.142,3.483c0.218,0.075,0.333,0.312,0.258,0.528
		c-0.075,0.218-0.312,0.333-0.528,0.258L74.963,70.447z M73.1,35.857c-0.037-0.227,0.117-0.44,0.343-0.477
		c0.227-0.037,0.44,0.117,0.477,0.343l1.543,9.348c0.037,0.227-0.117,0.44-0.343,0.477s-0.44-0.117-0.477-0.343L73.1,35.857z
		 M53.375,24.337c-0.49-0.033-0.975-0.058-1.453-0.077c-0.67-0.027-1.39-0.04-2.16-0.04c-4.427,0-8.417,0.512-11.292,1.34
		c-2.637,0.76-4.268,1.708-4.268,2.667s1.632,1.908,4.268,2.667c2.875,0.828,6.867,1.34,11.292,1.34
		c0.742,0,1.432-0.012,2.072-0.037c0.508-0.018,1.022-0.047,1.542-0.08v-7.782V24.337z M54.708,32.013
		c0.125-0.012,0.247-0.023,0.363-0.035c0.413-0.042,0.807-0.087,1.177-0.133c0.238-0.03,0.528-0.072,0.868-0.122
		c0.047-0.007,0.092-0.013,0.138-0.022V3.935h-2.547V32.013z M58.588,31.473c2.068-0.395,3.783-0.92,4.993-1.533
		c1.108-0.562,1.74-1.15,1.74-1.712c0-0.558-0.628-1.145-1.73-1.705c-1.212-0.617-2.932-1.145-5.003-1.54V31.473z M58.247,32.888
		c-0.097,0.053-0.207,0.085-0.325,0.085c-0.04,0-0.08-0.003-0.117-0.01c-0.163,0.027-0.328,0.052-0.495,0.077
		c-0.238,0.035-0.535,0.077-0.895,0.122c-0.41,0.052-0.815,0.098-1.213,0.138c-0.44,0.045-0.855,0.082-1.243,0.112
		c-0.652,0.05-1.345,0.088-2.077,0.115c-0.732,0.027-1.44,0.042-2.118,0.042c-4.537,0-8.658-0.533-11.657-1.398
		c-1.42-0.41-2.603-0.907-3.483-1.473c0.155,0.827,0.16,1.643-0.387,2.447c0.248,0.875,1.82,1.728,4.233,2.425
		c2.875,0.828,6.867,1.34,11.292,1.34c4.427,0,8.417-0.512,11.292-1.34c2.368-0.682,3.925-1.517,4.218-2.373
		c-0.568-0.8-0.58-1.613-0.432-2.438c-0.203,0.127-0.423,0.25-0.658,0.37c-1.437,0.728-3.485,1.337-5.933,1.762H58.247z
		 M66.33,71.203c0-0.017-0.002-0.033,0-0.05l-0.19-23.255c-0.008-1.263-0.383-2.237-0.752-3.195
		c-0.503-1.31-0.997-2.597-0.745-4.497c-0.848,0.502-1.94,0.943-3.227,1.315c-2.998,0.863-7.12,1.398-11.657,1.398
		s-8.658-0.533-11.657-1.398c-1.315-0.378-2.427-0.833-3.282-1.348c0.263,1.918-0.233,3.212-0.74,4.53
		c-0.107,0.277-0.213,0.555-0.312,0.842c-0.008,0.035-0.02,0.07-0.035,0.102c-0.225,0.675-0.398,1.397-0.405,2.252L33.167,67.97
		c0.002,0.023,0.002,0.048,0,0.072l-0.108,13.213c0,0.02,0,0.038,0,0.058l-0.013,1.683h0.053c0,0.952,1.75,1.898,4.582,2.662
		c3.082,0.832,7.353,1.345,12.082,1.345s9-0.515,12.082-1.345c2.32-0.625,3.913-1.375,4.413-2.148l0.167-0.478
		c0-0.012,0.002-0.023,0.002-0.035h0.003l-0.097-11.793H66.33z M9.805,23.833c0.733-1.65,0.627-3.893,0.518-6.135
		c-0.015-0.3-0.028-0.6-0.042-0.898c-0.808,1.933-1.347,4.223-0.477,7.032V23.833z M20.44,68.185
		c-0.032-0.925-0.052-1.888-0.058-2.867c-0.002-0.182-0.002-0.363-0.003-0.545c-2.508,0.615-5.13,1.728-7.753,2.842
		c-1.423,0.605-2.847,1.208-4.262,1.738c3.657,0.377,7.81,0.563,12.075-1.17L20.44,68.185z M25.125,65.457
		c0.248-0.192,0.495-0.39,0.738-0.595c0.148-0.125,0.298-0.255,0.45-0.388c-0.405-0.49-0.803-0.982-1.193-1.475
		c-0.007,0.542-0.01,1.083-0.005,1.618C25.117,64.9,25.12,65.18,25.125,65.457z M28.15,64.58l-0.007,0.005
		c0.143,0.167,0.287,0.335,0.43,0.502c1.038,1.198,2.123,2.383,3.257,3.555l0.003-0.357c-1.292-1.223-2.52-2.458-3.685-3.705H28.15z
		 M27.168,65.49c-0.15,0.132-0.3,0.26-0.45,0.387c-0.525,0.442-1.04,0.842-1.545,1.2c0.085,1.977,0.258,3.582,0.517,4.24
		c0.818,2.08,3.282,2.545,5.253,2.918c0.288,0.055,0.568,0.107,0.84,0.165l0.033-4.015c-0.117-0.028-0.228-0.088-0.32-0.18
		c-1.373-1.392-2.683-2.808-3.928-4.247c-0.135-0.155-0.268-0.312-0.402-0.467L27.168,65.49z M20.58,57.687
		c0.007-0.105,0.013-0.21,0.02-0.313c-3.643-0.66-7.828,1.118-12.012,2.895c-1.223,0.52-2.447,1.04-3.665,1.503
		C9.575,62.235,15.092,62.285,20.58,57.687z M17.787,51.978c-0.107-0.193-0.212-0.387-0.317-0.582
		c-2.785-0.507-6.105,0.44-9.423,1.388c-0.935,0.267-1.87,0.533-2.798,0.77c3.613,0.783,7.875,1.227,12.538-1.578V51.978z
		 M15.013,46.42c-0.173-0.387-0.343-0.773-0.51-1.16c-0.078-0.018-0.158-0.037-0.238-0.052c-0.245-0.05-0.51-0.092-0.792-0.125
		c-1.832-0.218-3.918-0.003-6.005,0.212C6.747,45.37,6.025,45.443,5.312,45.5C7.962,46.738,11.03,47.885,15.013,46.42z M12.4,39.757
		c-0.048-0.145-0.097-0.29-0.145-0.435c-1.572-0.947-3.803-1.258-6.035-1.57c-0.415-0.058-0.83-0.117-1.242-0.178
		C6.875,38.887,9.205,40.033,12.4,39.757z M10.338,33.618c-1.052-1.422-3-2.418-4.95-3.417c-0.248-0.127-0.495-0.253-0.742-0.382
		C5.892,31.433,7.565,32.987,10.338,33.618z M9.045,27.597c-0.49-1.74-2.008-3.395-3.525-5.05c-0.203-0.222-0.407-0.443-0.608-0.665
		c0.615,2.005,1.665,4.112,4.132,5.715H9.045z M23.175,33.08c-3.515,2.035-7.032,4.068-8.622,6.963
		c6.582-1.672,9.357-5.143,11.555-8.703c-0.953,0.595-1.942,1.167-2.932,1.74H23.175z M19.845,28.218
		c-2.768,1.602-5.538,3.205-6.887,5.422c4.895-1.317,7.138-3.888,8.86-6.583c-0.647,0.393-1.31,0.777-1.972,1.16L19.845,28.218z
		 M17.345,23.048c-2.267,1.312-4.535,2.625-5.72,4.392c3.773-1.075,5.642-3.055,7.047-5.168c-0.438,0.262-0.882,0.518-1.327,0.775
		V23.048z M16.825,45.897c0.088,0.182,0.177,0.363,0.267,0.543c8.247-2.192,11.562-6.705,14.302-11.238
		c-1.337,0.855-2.743,1.67-4.152,2.485C23.068,40.102,18.895,42.517,16.825,45.897z M17.705,47.652
		c0.993,1.912,2.088,3.798,3.292,5.66c0.055-0.395,0.113-0.768,0.177-1.117c0.463-2.577,2.052-4.527,4.133-5.802
		c2.165-1.328,4.87-1.922,7.372-1.725c0.055-0.147,0.112-0.292,0.167-0.438c0.615-1.6,1.213-3.16,0.017-6.208
		c-0.105-0.213-0.092-0.477,0.057-0.683c0.54-0.753,0.407-1.578,0.195-2.42c-2.977,5.023-6.263,10.222-15.407,12.733H17.705z
		 M25.273,59.23c1.105,1.378,2.28,2.743,3.527,4.093c0.973,1.053,1.99,2.098,3.052,3.133l0.117-14.302
		c-1.412-0.103-2.932,0.232-4.145,0.977c-1.113,0.683-1.963,1.715-2.205,3.065C25.47,57.018,25.357,58.067,25.273,59.23z
		 M31.775,75.758c-0.005-0.002-0.01-0.002-0.015-0.003c-0.315-0.072-0.678-0.14-1.058-0.212c-2.295-0.433-5.16-0.975-6.248-3.742
		c-0.418-1.062-0.642-3.998-0.665-7.178c-0.022-3.153,0.148-6.583,0.522-8.662c0.317-1.763,1.402-3.095,2.82-3.965
		c1.427-0.875,3.197-1.278,4.848-1.177l0.023-2.928c0.005-0.72,0.103-1.343,0.25-1.917c-2.143-0.105-4.42,0.428-6.255,1.553
		c-1.775,1.088-3.13,2.737-3.518,4.902c-0.55,3.063-0.802,8.17-0.768,12.885c0.033,4.655,0.337,8.892,0.9,10.323
		c1.315,3.347,5.17,4.075,8.258,4.658c0.295,0.057,0.585,0.11,0.867,0.167l0.038-4.705H31.775z M34.222,37.768
		c0.198,0.893,1.783,1.768,4.247,2.478c2.875,0.828,6.867,1.34,11.292,1.34c4.427,0,8.417-0.512,11.292-1.34
		c2.17-0.625,3.658-1.378,4.118-2.158c0.032-0.092,0.065-0.185,0.1-0.28c-0.49-0.84-0.507-1.64-0.372-2.432
		c-0.88,0.567-2.062,1.063-3.482,1.472c-2.998,0.863-7.12,1.398-11.657,1.398s-8.658-0.533-11.657-1.398
		c-1.452-0.418-2.653-0.928-3.54-1.51c0.14,0.792,0.132,1.59-0.343,2.43H34.222z"/>
</g>
</svg>
