<svg height='100px' width='100px'  fill="#000000" xmlns="http://www.w3.org/2000/svg" xmlns:xlink="http://www.w3.org/1999/xlink" version="1.1" x="0px" y="0px" viewBox="0 0 66 66" enable-background="new 0 0 66 66" xml:space="preserve"><g><path d="M30,9.4c0,1.1,0.8,1.4,1.9,1.8V7.8C30.9,7.9,30,8.4,30,9.4z"></path><path d="M33.2,13.9v3.5c1-0.1,2-0.6,2-1.7C35.2,14.6,34.3,14.3,33.2,13.9z"></path><path d="M44.6,13.3C44.6,6.5,39.1,1,32.3,1c-6.8,0-12.3,5.5-12.3,12.3c0,6.8,5.5,12.3,12.3,12.3C39.1,25.6,44.6,20.1,44.6,13.3z    M33.2,19.5v1.4h-1.2v-1.4c-1.8-0.2-3.4-0.9-4.8-2.1l1.4-1.7c1.1,0.9,2.2,1.5,3.4,1.7v-3.8c-2.6-0.6-4.3-1.4-4.3-3.9   c0-2.4,1.9-3.8,4.3-3.9v-1h1.2v1c1.4,0.1,2.8,0.6,4.1,1.5L36,9c-0.9-0.6-1.8-1-2.8-1.1v3.7h0.1c2.5,0.6,4.3,1.5,4.3,4   C37.6,18,35.6,19.4,33.2,19.5z"></path><path d="M23.2,24.2c-0.5-0.4-1-0.9-1.4-1.4l-8.9,10c-1.2-0.7-2.5-1-3.9-1c-4.3,0-7.8,3.5-7.8,7.8s3.5,7.8,7.8,7.8   c4.3,0,7.8-3.5,7.8-7.8c0-2.2-0.9-4.1-2.3-5.6L23.2,24.2z"></path><path d="M29.2,27.2l-4.1,19.6c-0.2,0-0.5-0.1-0.7-0.1c-2.8,0-5,2.3-5,5c0,2.8,2.3,5,5,5c2.8,0,5-2.3,5-5c0-1.8-1-3.4-2.4-4.3   l4.2-20C30.5,27.4,29.9,27.4,29.2,27.2z"></path><path d="M43.2,55l-3.6-29.4c-0.6,0.4-1.2,0.7-1.9,0.9l3.5,28.5c-2.2,0.5-3.9,2.5-3.9,4.9c0,2.8,2.3,5,5,5c2.8,0,5-2.3,5-5   C47.3,57.5,45.5,55.4,43.2,55z"></path><path d="M59,40.1L44.7,20.4c-0.3,0.6-0.8,1.2-1.2,1.8l13.1,18.2C54,41.1,52,43.5,52,46.5c0,3.5,2.9,6.4,6.4,6.4   c3.5,0,6.4-2.9,6.4-6.4C64.8,43.1,62.2,40.3,59,40.1z"></path></g></svg>