<svg height='100px' width='100px'  fill="#000000" xmlns="http://www.w3.org/2000/svg" xmlns:xlink="http://www.w3.org/1999/xlink" version="1.1" x="0px" y="0px" viewBox="0 0 100 100" enable-background="new 0 0 100 100" xml:space="preserve"><g><path d="M60,54l-8.5,13.3c-0.4,0.6-1,0.7-1.6,0.7h0c0.7,0,1.3-0.1,1.7-0.7L60,54L60,54z"></path><path d="M92.3,82.2l-16-31.3c-0.4-0.7-1-0.9-1.8-0.9H62.6l4.7-7.7c0.2-0.3,0.4-0.7,0.5-0.9l0.4-0.7c0-0.1,0.1-0.2,0.1-0.3   c1.7-3.1,2.6-6.6,2.6-10.2c0-11.6-9.5-21.1-21.1-21.1c-11.6,0-21.1,9.5-21.1,21.1c0,3.6,0.9,7.2,2.8,10.4l0.3,0.4   c0.2,0.4,0.4,0.9,0.6,1.2l4.7,7.7H25.1c-0.8,0-1.4,0.3-1.8,0.9L7.2,82.5c-0.3,0.6-0.3,1.2,0.1,1.8C7.7,84.8,8.3,85,9,85h81.6   c0,0,0,0,0,0c1.1,0,2-0.7,2-1.8C92.6,82.7,92.5,82.5,92.3,82.2z M35.8,40c-0.2-0.3-0.4-0.6-0.6-0.9L35,38.6   c-1.4-2.5-2.2-5.4-2.2-8.4c0-9.4,7.7-17.1,17.1-17.1c9.4,0,17.1,7.7,17.1,17.1c0,2.9-0.8,5.8-2.2,8.4c0,0,0,0.1,0,0.1l-0.3,0.5   c-0.1,0.2-0.3,0.4-0.4,0.6c0,0-0.1,0.1-0.1,0.1l-6.4,10.1l-7.7,12.3l0-0.1L35.8,40z M12.3,81l14.1-27h13.3l8.5,13.3   c0.4,0.6,1,0.7,1.7,0.7h0.1c0.7,0,1.3-0.1,1.6-0.7L60,54h13.3l14.1,27H12.3z"></path></g><g><path d="M57.2,50.6l-7.3,11.7l0,0.1l7.7-12.3C57.5,50.3,57.3,50.4,57.2,50.6z"></path></g><g><g><path d="M48.5,32.7v5.1h-3.3V23h5.2c3.7,0,5.6,1.6,5.6,4.7c0,1.5-0.5,2.7-1.6,3.6c-1.1,0.9-2.5,1.4-4.3,1.4H48.5z M48.5,25.6v4.6    h1.3c1.8,0,2.6-0.8,2.6-2.3c0-1.5-0.9-2.3-2.6-2.3H48.5z"></path></g></g><g><g><path d="M50,42c-6.6,0-12-5.4-12-12s5.4-12,12-12s12,5.4,12,12S56.6,42,50,42z M50,20c-5.5,0-10,4.5-10,10s4.5,10,10,10    s10-4.5,10-10S55.5,20,50,20z"></path></g></g></svg>