<svg height='100px' width='100px'  fill="#000000" xmlns="http://www.w3.org/2000/svg" xmlns:xlink="http://www.w3.org/1999/xlink" version="1.1" x="0px" y="0px" viewBox="0 0 100 100" enable-background="new 0 0 100 100" xml:space="preserve"><path d="M94.37,55.882c-1.095-0.961-2.213-1.662-3.063-2.128c1.488-0.582,2.111-0.808,2.124-0.812  c0.351-0.127,0.603-0.438,0.652-0.809c0.05-0.369-0.111-0.736-0.416-0.951l-2.083-1.464c1.211-0.819,1.777-1.376,1.829-1.427  c0.193-0.193,0.291-0.5,0.273-0.769c-0.018-0.276-0.164-0.575-0.389-0.74L65.719,26.445c-0.408-0.302-0.982-0.24-1.331,0.129  c-0.021,0.023-2.274,2.367-9.688,4.697c-7.439,2.34-10.236,5.474-11.266,7.239l-0.323-0.253c-3.813-3.135-7.354-4.059-13.527-3.526  c-1.119,0.096-2.443,0.281-3.977,0.496c-5.57,0.778-13.196,1.844-18.411-0.417c-0.468-0.205-1.012-0.022-1.266,0.418  c-0.253,0.441-0.136,1.003,0.274,1.305c1.375,1.012,3.057,2.336,4.917,3.849L8.3,40.958c-0.387,0.079-0.691,0.379-0.776,0.765  s0.065,0.786,0.384,1.021c1.324,0.975,2.888,2.205,4.587,3.59l-2.559,0.52c-0.388,0.078-0.692,0.378-0.777,0.765  c-0.085,0.386,0.065,0.786,0.384,1.021c9.244,6.805,28,25.256,28.188,25.441c0.192,0.19,0.446,0.288,0.702,0.288  c0.185,0,0.37-0.051,0.534-0.155c0.116-0.073,11.737-7.303,28.1-6.662c0.597,0.352,2.087,1.071,3.892,0.795  c2.198-0.338,3.664-2.253,3.983-2.707c0.604-0.599,6.712-6.379,18.902-8.014c0.389-0.052,0.711-0.327,0.824-0.702  S94.665,56.141,94.37,55.882z M55.3,33.18c5.815-1.828,8.694-3.705,9.881-4.646l25.893,19.094c-1.291,0.951-4.01,2.66-8.616,4.261  c-7.701,2.677-10.934,5.621-12.29,7.591L45.021,39.755C45.613,38.583,47.809,35.535,55.3,33.18z M25.885,37.207  c1.505-0.211,2.804-0.393,3.871-0.484c5.646-0.48,8.695,0.293,12.104,3.094l25.495,19.998c-6.394-1.859-9.955-0.978-17.732,0.95  c-5.758,1.427-8.901,1.724-9.914,1.785c-2.413-2.175-18.551-16.68-28.442-24.624C16.135,38.57,21.596,37.808,25.885,37.207z   M73.441,64.312c-0.042,0.044-0.079,0.092-0.112,0.144c-0.012,0.017-1.13,1.676-2.676,1.914c-1.471,0.229-2.685-0.611-2.691-0.616  c-0.158-0.115-0.348-0.181-0.543-0.189c-15.016-0.677-26.026,4.953-28.835,6.553c-2.979-2.912-17.322-16.846-26.092-23.742  l1.989-0.405c10.067,8.379,23.46,20.695,23.627,20.849c0.188,0.173,0.431,0.265,0.678,0.265c0.093,0,0.187-0.013,0.278-0.04  c6.516-1.889,24.544-6.279,29.675-3.945c0.501,0.229,1.095,0.007,1.324-0.496c0.229-0.503,0.007-1.096-0.496-1.324  c-6.357-2.896-26.822,2.65-30.518,3.69c-2.796-2.563-19.051-17.402-28.185-24.492l2.246-0.459  c10.631,8.809,25.375,22.124,25.559,22.291c0.185,0.166,0.423,0.258,0.671,0.258c0.133,0,3.342-0.021,10.761-1.859  c8.781-2.176,11.739-2.908,19.738,0.045c0.28,0.103,0.595,0.063,0.854-0.089c0.258-0.151,0.438-0.424,0.484-0.719  c0.007-0.043,0.81-4.298,11.936-8.166c2.847-0.989,5.013-2.02,6.612-2.919l1.248,0.877c-1.569,0.61-4.304,1.697-8.689,3.507  c-9.587,3.957-10.799,7.114-10.944,7.707c-0.127,0.519,0.183,1.024,0.695,1.175c0.09,0.027,0.182,0.04,0.271,0.04  c0.422,0,0.819-0.277,0.964-0.693c0.009-0.027,1.049-2.777,9.777-6.379c2.397-0.99,4.302-1.763,5.793-2.361  c0.084,0.074,0.176,0.142,0.287,0.185c0.014,0.006,0.919,0.365,2.086,1.104C79.342,58.223,73.69,64.049,73.441,64.312z   M53.613,41.865c1.037-0.989,4.352-2.187,7.276-3.242c2.914-1.053,5.928-2.141,7.662-3.289c0.461-0.305,0.587-0.926,0.282-1.386  c-0.305-0.461-0.926-0.588-1.386-0.282c-1.535,1.017-4.435,2.063-7.238,3.075c-3.412,1.232-6.636,2.396-7.978,3.677  c-0.399,0.382-0.414,1.015-0.033,1.414c0.196,0.206,0.46,0.31,0.724,0.31C53.171,42.142,53.42,42.05,53.613,41.865z M58.161,45.186  c1.036-0.989,4.35-2.186,7.273-3.241c2.915-1.053,5.93-2.142,7.665-3.29c0.46-0.306,0.586-0.926,0.281-1.387  c-0.305-0.46-0.926-0.587-1.387-0.281c-1.534,1.018-4.435,2.064-7.239,3.076c-3.411,1.232-6.634,2.396-7.975,3.676  c-0.399,0.382-0.414,1.015-0.033,1.414c0.197,0.206,0.46,0.31,0.724,0.31C57.719,45.462,57.968,45.37,58.161,45.186z M62.422,48.617  c1.036-0.989,4.35-2.186,7.273-3.241c2.915-1.053,5.93-2.142,7.665-3.29c0.46-0.306,0.586-0.926,0.281-1.387  c-0.306-0.46-0.927-0.587-1.387-0.281c-1.534,1.018-4.435,2.064-7.239,3.076c-3.411,1.232-6.634,2.396-7.975,3.676  c-0.399,0.382-0.414,1.015-0.033,1.414c0.197,0.206,0.46,0.31,0.724,0.31C61.979,48.894,62.229,48.802,62.422,48.617z   M66.465,52.229c1.036-0.99,4.352-2.187,7.275-3.242c2.915-1.053,5.929-2.141,7.662-3.289c0.461-0.305,0.587-0.926,0.282-1.386  c-0.305-0.462-0.927-0.587-1.386-0.282c-1.535,1.017-4.434,2.063-7.237,3.075c-3.413,1.232-6.636,2.396-7.978,3.677  c-0.399,0.382-0.414,1.015-0.033,1.414c0.197,0.206,0.46,0.31,0.724,0.31C66.022,52.506,66.271,52.414,66.465,52.229z   M28.266,43.823c3.046-0.546,6.837-1.225,11.419-0.566c0.561,0.082,1.054-0.302,1.133-0.848c0.078-0.547-0.302-1.054-0.848-1.133  c-4.902-0.704-8.87,0.007-12.058,0.579c-1.972,0.354-3.68,0.654-5.065,0.524c-0.56-0.045-1.039,0.35-1.092,0.898  c-0.054,0.55,0.349,1.039,0.898,1.092c0.298,0.029,0.602,0.042,0.91,0.042C24.982,44.412,26.526,44.136,28.266,43.823z   M33.273,47.731c3.045-0.546,6.84-1.229,11.419-0.566c0.563,0.083,1.054-0.302,1.133-0.848c0.078-0.547-0.301-1.054-0.848-1.133  c-4.901-0.702-8.869,0.007-12.057,0.578c-1.973,0.353-3.679,0.655-5.065,0.524c-0.552-0.051-1.039,0.349-1.092,0.898  c-0.054,0.55,0.349,1.039,0.898,1.092c0.299,0.029,0.602,0.042,0.911,0.042C29.99,48.319,31.535,48.043,33.273,47.731z   M38.234,51.828c3.046-0.546,6.837-1.226,11.419-0.566c0.561,0.08,1.054-0.302,1.133-0.848c0.078-0.547-0.302-1.054-0.848-1.133  c-4.902-0.704-8.869,0.007-12.058,0.579c-1.972,0.353-3.68,0.655-5.065,0.524c-0.561-0.05-1.039,0.349-1.092,0.898  c-0.054,0.55,0.349,1.039,0.898,1.092c0.298,0.029,0.602,0.042,0.911,0.042C34.951,52.417,36.495,52.141,38.234,51.828z   M43.248,56.179c3.046-0.546,6.838-1.226,11.419-0.566c0.563,0.08,1.054-0.302,1.133-0.848c0.078-0.547-0.302-1.054-0.848-1.133  c-4.902-0.704-8.87,0.007-12.058,0.579c-1.972,0.354-3.681,0.654-5.065,0.524c-0.558-0.048-1.038,0.35-1.092,0.898  c-0.054,0.55,0.349,1.039,0.898,1.092c0.298,0.029,0.602,0.042,0.91,0.042C39.965,56.768,41.509,56.491,43.248,56.179z"></path></svg>