<?xml version="1.0" encoding="utf-8"?>
<!-- Generator: Adobe Illustrator 24.2.1, SVG Export Plug-In . SVG Version: 6.00 Build 0)  -->
<svg version="1.1" id="Layer_1" xmlns="http://www.w3.org/2000/svg" xmlns:xlink="http://www.w3.org/1999/xlink" x="0px" y="0px"
	 viewBox="0 0 100 100" enable-background="new 0 0 100 100" xml:space="preserve">
<path d="M95.154,41.694c-0.654-0.365-1.481-0.289-2.096,0.173c-0.019,0-0.769,0.577-1.904,1.25
	c1.981-4.673,3.519-11.827-1.577-17.904c-0.558-0.673-1.519-0.865-2.308-0.481c-0.808,0.385-1.231,1.269-1.038,2.135
	c0,0.058,1.327,6.75-8.308,10.788c-2.173,0.904-4.635,1.462-7.327,1.654c-4.694,0.327-15.662,2.426-20.593,14.522
	C45.074,41.738,34.1,39.637,29.404,39.31c-2.692-0.192-5.154-0.75-7.327-1.654c-9.5-3.981-8.346-10.538-8.308-10.788
	c0.192-0.865-0.231-1.75-1.039-2.135c-0.788-0.385-1.75-0.192-2.308,0.481C5.327,31.29,6.865,38.444,8.846,43.117
	c-1.135-0.673-1.885-1.25-1.904-1.25c-0.615-0.462-1.442-0.538-2.096-0.173c-0.673,0.385-1.058,1.096-1,1.865l0.038,0.327
	C5,56.348,13.385,66.271,24.942,69.021c-0.038,1.173-0.096,2.904-0.173,4.442c-0.019,0.519,0.173,1.019,0.539,1.404
	c0.365,0.385,0.865,0.596,1.385,0.596h14.635c0.019,0,0.019,0,0.038,0c3.769-0.077,6.596-1.404,8.404-3.942
	c0.086-0.119,0.151-0.249,0.231-0.372c0.08,0.123,0.145,0.253,0.231,0.372c1.808,2.538,4.635,3.865,8.442,3.942h14.635
	c0.019,0,0.019,0,0.039,0c1.058,0,1.923-0.865,1.923-1.923c0-0.154-0.019-0.327-0.058-0.462c-0.058-1.442-0.115-2.981-0.154-4.058
	C86.635,66.271,95,56.348,96.115,43.886l0.038-0.327C96.212,42.79,95.827,42.079,95.154,41.694z M41.462,63.963
	c-1.385,0.385-2.808,0.577-4.192,0.577c-7.212,0-12.827-5.212-13.615-12.673c-0.096-0.942,0.5-1.808,1.404-2.058
	c1.385-0.404,2.808-0.596,4.192-0.596c7.231,0,12.827,5.212,13.615,12.692C42.962,62.829,42.385,63.694,41.462,63.963z
	 M62.731,64.54c-1.385,0-2.808-0.192-4.192-0.577c-0.923-0.269-1.5-1.135-1.404-2.058c0.788-7.481,6.385-12.692,13.615-12.692
	c1.385,0,2.808,0.192,4.192,0.596c0.904,0.25,1.5,1.115,1.404,2.058C75.558,59.329,69.942,64.54,62.731,64.54z"/>
</svg>
