<svg height='100px' width='100px'  fill="#000000" xmlns:dc="http://purl.org/dc/elements/1.1/" xmlns:cc="http://creativecommons.org/ns#" xmlns:rdf="http://www.w3.org/1999/02/22-rdf-syntax-ns#" xmlns:svg="http://www.w3.org/2000/svg" xmlns="http://www.w3.org/2000/svg" xmlns:sodipodi="http://sodipodi.sourceforge.net/DTD/sodipodi-0.dtd" xmlns:inkscape="http://www.inkscape.org/namespaces/inkscape" viewBox="0 0 8.4666665 8.4666669" version="1.1" x="0px" y="0px"><g transform="translate(0,-288.53332)"><path style="" d="m 4.8070763,290.81922 a 11.792932,11.792932 0 0 0 -0.6604265,0.50229 11.792932,11.792932 0 0 0 -0.7343246,-0.38603 11.792932,11.792932 0 0 0 0.2733675,0.7829 11.792932,11.792932 0 0 0 -0.5942806,0.57878 11.792932,11.792932 0 0 0 0.8299186,-0.0175 11.792932,11.792932 0 0 0 0.3668977,0.74414 11.792932,11.792932 0 0 0 0.23876,-0.79478 11.792932,11.792932 0 0 0 0.8211344,-0.11885 11.792932,11.792932 0 0 0 -0.6816196,-0.47284 11.792932,11.792932 0 0 0 0.1405731,-0.81804 z m -0.3679296,0.60616 a 11.528348,11.528348 0 0 1 -0.0703,0.33642 11.528348,11.528348 0 0 1 0.2888721,0.1855 11.528348,11.528348 0 0 1 -0.3415771,0.0367 11.528348,11.528348 0 0 1 -0.08681,0.33229 11.528348,11.528348 0 0 1 -0.1405731,-0.31316 11.528348,11.528348 0 0 1 -0.3431117,0.0196 11.528348,11.528348 0 0 1 0.2547673,-0.23048 11.528348,11.528348 0 0 1 -0.1250685,-0.31988 11.528348,11.528348 0 0 1 0.2981854,0.17052 11.528348,11.528348 0 0 1 0.2656152,-0.21754 z" fill="#000000" stroke="none"></path><path style="" d="m 3.9472535,290.5219 0.0327,0.3925 a 0.13229814,0.13229814 0 0 0 0.2636801,-0.022 l -0.0327,-0.3925 a 0.13229311,0.13229311 0 0 0 -0.26367,0.022 z" fill="#000000" stroke="none"></path><path style="" d="m 5.3652035,291.2002 -0.3631901,0.1523 a 0.13229851,0.13229851 0 0 0 0.10235,0.244 l 0.3631798,-0.1523 a 0.13229652,0.13229652 0 0 0 -0.1023397,-0.244 z" fill="#000000" stroke="none"></path><path style="" d="M 5.1582435,292.7584 4.9011232,292.46 a 0.13231404,0.13231404 0 0 0 -0.2004197,0.1728 l 0.2571199,0.2983 a 0.13229168,0.13229168 0 0 0 0.2004201,-0.1727 z" fill="#000000" stroke="none"></path><path style="" d="m 3.6123833,293.043 0.20428,-0.3367 a 0.13229169,0.13229169 0 0 0 -0.22621,-0.1372 l -0.20428,0.3367 a 0.13229168,0.13229168 0 0 0 0.22621,0.1372 z" fill="#000000" stroke="none"></path><path style="" d="m 3.2473133,291.751 a 0.13229168,0.13229168 0 0 0 0.0606,-0.2575 l -0.3833699,-0.09 a 0.13229168,0.13229168 0 0 0 -0.0606,0.2575 z" fill="#000000" stroke="none"></path><path style="" d="m 6.8047934,290.8951 -3.02084,-1.8326 -2.00943,3.3122 0.2159,0.1542 1.8825099,-3.103 2.56841,1.5582 -1.6805699,2.7701 0.5461199,-0.39 z" fill="#000000" stroke="none"></path><path style="" d="m 2.7849716,290.19909 -2.25567884,1.61129 v 4.66016 H 7.9376263 v -4.66016 l -0.9617075,-0.68678 -0.1379538,0.22685 0.686779,0.49041 H 6.5408115 l -0.1607079,0.26458 H 7.524744 l -2.7357652,1.9539 -0.5555192,-0.39688 -0.5555191,0.39688 -2.73573898,-1.9539 H 1.6284514 l 0.1607079,-0.26458 H 0.94220152 l 1.49447258,-1.06815 z m -1.9910955,2.12546 2.6561787,1.89703 -2.6561787,1.89757 z m 6.8791669,0 v 3.7946 l -2.6566813,-1.89757 z m -3.4395834,1.66295 3.1062613,2.21846 H 1.1271982 Z" fill="#000000" stroke="none"></path><path style="" d="m 6.9735233,289.5819 -2.4922801,-0.4059 0.6040001,0.3664 1.45863,0.2376 -0.2870801,0.4732 0.22621,0.1372 z" fill="#000000" stroke="none"></path></g></svg>