<svg height='100px' width='100px'  fill="#000000" xmlns="http://www.w3.org/2000/svg" xmlns:xlink="http://www.w3.org/1999/xlink" viewBox="0 0 100 100" version="1.1" x="0px" y="0px"><title>1</title><desc>Created with Sketch.</desc><g stroke="none" stroke-width="1" fill="none" fill-rule="evenodd"><g fill="#000000"><path d="M96.0784314,48.0831703 C96.0784314,50.9506849 94.484902,53.4526419 92.1360784,54.7567515 C92.0243137,54.818591 91.9115686,54.8780822 91.7970588,54.9342466 C91.7813725,54.9418787 91.7664706,54.9502935 91.7507843,54.9577299 C91.614902,55.0232877 91.4770588,55.0837573 91.3378431,55.1409002 C91.3096078,55.1526419 91.2807843,55.1634051 91.252549,55.1745597 C91.1331373,55.2219178 91.0129412,55.2665362 90.8913725,55.3076321 C90.8664706,55.316047 90.8415686,55.3248532 90.8162745,55.3330724 C90.5184314,55.4307241 90.2145098,55.5107632 89.9062745,55.5712329 C89.8968627,55.5731898 89.8872549,55.5745597 89.8776471,55.5765166 C89.74,55.6029354 89.6015686,55.6248532 89.462549,55.6438356 C89.4276471,55.6485323 89.3929412,55.6528376 89.3582353,55.6571429 C89.24,55.6714286 89.1213725,55.6827789 89.0021569,55.6915851 C88.9639216,55.6945205 88.9256863,55.6982387 88.8872549,55.7003914 C88.7356863,55.709589 88.5835294,55.7152642 88.4313725,55.7152642 C88.3123529,55.7152642 88.1941176,55.711546 88.0762745,55.7062622 C88.0286275,55.7039139 87.9811765,55.7003914 87.9337255,55.6972603 C87.867451,55.692955 87.8009804,55.6880626 87.734902,55.6821918 C87.6717647,55.6763209 87.6084314,55.6696673 87.5452941,55.6622309 C87.5029412,55.6573386 87.4603922,55.6516634 87.4182353,55.6459883 C87.3384314,55.6354207 87.2588235,55.6244618 87.1796078,55.6111546 C87.1776471,55.6107632 87.1756863,55.6103718 87.1735294,55.6101761 C85.1533333,55.2704501 83.3580392,54.1266145 82.1888235,52.4829746 C82.1696078,52.4559687 82.15,52.4293542 82.1311765,52.4021526 C82.0941176,52.3485323 82.0582353,52.2939335 82.022549,52.2391389 C81.995098,52.1968689 81.967451,52.1547945 81.9405882,52.1119374 C81.9096078,52.0622309 81.8792157,52.0121331 81.8492157,51.9616438 C81.8196078,51.9119374 81.7907843,51.8616438 81.7623529,51.8111546 C81.7358824,51.7639922 81.7090196,51.7166341 81.6833333,51.6684932 C81.6527451,51.611546 81.6235294,51.553816 81.5945098,51.4958904 C81.5723529,51.4520548 81.5496078,51.4086106 81.5282353,51.3641879 C81.4827451,51.2694716 81.4394118,51.1735812 81.3978431,51.0767123 C81.3747059,51.0225049 81.3531373,50.9671233 81.3311765,50.9121331 C81.3105882,50.8604697 81.2892157,50.809002 81.2698039,50.7567515 C81.2462745,50.6943249 81.2245098,50.6313112 81.2027451,50.5681018 C81.1882353,50.5258317 81.1733333,50.4835616 81.1594118,50.4409002 C81.1368627,50.3712329 81.1152941,50.3011742 81.0947059,50.2305284 C80.8941176,49.5489237 80.7843137,48.8287671 80.7843137,48.0831703 L80.7843137,43.2162427 L96.0784314,43.2162427 L96.0784314,48.0831703 Z M91.1992157,59.2931507 L91.1992157,95.9569472 L40.3398039,95.9569472 L40.3398039,66.3774951 C40.3398039,65.2966732 39.4619608,64.4205479 38.3790196,64.4205479 L19.1633333,64.4205479 C18.0805882,64.4205479 17.202549,65.2966732 17.202549,66.3774951 L17.202549,95.9569472 L8.86313725,95.9569472 L8.86313725,59.3084149 C8.88509804,59.3136986 8.90784314,59.3172211 8.92980392,59.3225049 C9.10588235,59.3636008 9.28352941,59.4007828 9.46254902,59.4338552 C9.50764706,59.4420744 9.55294118,59.4502935 9.59823529,59.4581213 C9.76588235,59.4868885 9.93470588,59.5117417 10.1047059,59.5334638 C10.1568627,59.5399217 10.2084314,59.5473581 10.2605882,59.553229 C10.4272549,59.5720157 10.595098,59.5863014 10.7639216,59.5980431 C10.8154902,59.6015656 10.8666667,59.6068493 10.9182353,59.6097847 C11.1337255,59.6217221 11.3503922,59.6291585 11.5686275,59.6291585 C11.7427451,59.6291585 11.9156863,59.6236791 12.0880392,59.6158513 C12.1329412,59.6138943 12.177451,59.6119374 12.2219608,59.6093933 C12.3772549,59.6005871 12.5319608,59.5892368 12.6858824,59.5741683 C12.754902,59.5675147 12.8229412,59.5590998 12.8915686,59.551272 C12.9754902,59.5414873 13.0594118,59.5309198 13.1429412,59.5191781 C16.3382353,59.0831703 19.1209804,57.3414873 20.9333333,54.8504892 C20.972549,54.7964775 21.0109804,54.7420744 21.0494118,54.6874755 C21.0915686,54.6272016 21.1352941,54.5677104 21.1764706,54.5066536 C21.2176471,54.5677104 21.2613725,54.6272016 21.3035294,54.6874755 C21.3419608,54.7420744 21.3803922,54.7964775 21.4196078,54.8504892 C23.2319608,57.3414873 26.0147059,59.0831703 29.21,59.5191781 C29.2935294,59.5309198 29.377451,59.5414873 29.4613725,59.551272 C29.53,59.5590998 29.5980392,59.5675147 29.6670588,59.5741683 C29.8209804,59.5892368 29.9756863,59.6005871 30.1309804,59.6093933 C30.1754902,59.6119374 30.22,59.6138943 30.264902,59.6158513 C30.4372549,59.6236791 30.6101961,59.6291585 30.7843137,59.6291585 C30.9584314,59.6291585 31.1313725,59.6236791 31.3037255,59.6158513 C31.3486275,59.6138943 31.3931373,59.6119374 31.4376471,59.6093933 C31.5929412,59.6005871 31.7476471,59.5892368 31.9015686,59.5741683 C31.9705882,59.5675147 32.0386275,59.5590998 32.1072549,59.551272 C32.1911765,59.5414873 32.275098,59.5309198 32.3586275,59.5191781 C35.5539216,59.0831703 38.3366667,57.3414873 40.1490196,54.8504892 C40.1882353,54.7964775 40.2266667,54.7420744 40.265098,54.6874755 C40.3072549,54.6272016 40.3509804,54.5677104 40.3921569,54.5066536 C40.4333333,54.5677104 40.4770588,54.6272016 40.5192157,54.6874755 C40.5576471,54.7420744 40.5960784,54.7964775 40.6352941,54.8504892 C42.4476471,57.3414873 45.2303922,59.0831703 48.4256863,59.5191781 C48.5092157,59.5309198 48.5931373,59.5414873 48.6770588,59.551272 C48.7456863,59.5590998 48.8137255,59.5675147 48.8827451,59.5741683 C49.0366667,59.5892368 49.1913725,59.6005871 49.3466667,59.6093933 C49.3911765,59.6119374 49.4356863,59.6138943 49.4805882,59.6158513 C49.6529412,59.6236791 49.8258824,59.6291585 50,59.6291585 C50.1741176,59.6291585 50.3470588,59.6236791 50.5194118,59.6158513 C50.5643137,59.6138943 50.6088235,59.6119374 50.6533333,59.6093933 C50.8086275,59.6005871 50.9633333,59.5892368 51.1172549,59.5741683 C51.1862745,59.5675147 51.2543137,59.5590998 51.3229412,59.551272 C51.4068627,59.5414873 51.4907843,59.5309198 51.5743137,59.5191781 C54.7696078,59.0831703 57.5523529,57.3414873 59.3647059,54.8504892 C59.4039216,54.7964775 59.4423529,54.7420744 59.4807843,54.6874755 C59.5229412,54.6272016 59.5666667,54.5677104 59.6078431,54.5066536 C59.6490196,54.5677104 59.6927451,54.6272016 59.734902,54.6874755 C59.7733333,54.7420744 59.8117647,54.7964775 59.8509804,54.8504892 C61.6633333,57.3414873 64.4460784,59.0831703 67.6415686,59.5191781 C67.724902,59.5309198 67.8088235,59.5414873 67.8927451,59.551272 C67.9613725,59.5590998 68.0294118,59.5675147 68.0984314,59.5741683 C68.2523529,59.5892368 68.4070588,59.6005871 68.5623529,59.6093933 C68.6068627,59.6119374 68.6513725,59.6138943 68.6962745,59.6158513 C68.8686275,59.6236791 69.0415686,59.6291585 69.2156863,59.6291585 C69.3898039,59.6291585 69.5627451,59.6236791 69.735098,59.6158513 C69.78,59.6138943 69.8245098,59.6119374 69.8690196,59.6093933 C70.0243137,59.6005871 70.1790196,59.5892368 70.3329412,59.5741683 C70.4019608,59.5675147 70.47,59.5590998 70.5386275,59.551272 C70.622549,59.5414873 70.7064706,59.5309198 70.7898039,59.5191781 C73.9845098,59.0833659 76.7666667,57.3422701 78.5788235,54.8524462 C78.6196078,54.7966732 78.6594118,54.7403131 78.6992157,54.6837573 C78.7405882,54.6246575 78.7831373,54.5663405 78.8235294,54.5066536 C78.8639216,54.5663405 78.9064706,54.6246575 78.9478431,54.6837573 C78.9876471,54.7403131 79.027451,54.7966732 79.0682353,54.8524462 C80.8803922,57.3422701 83.662549,59.0833659 86.8572549,59.5191781 C86.9405882,59.5309198 87.0245098,59.5414873 87.1084314,59.551272 C87.1770588,59.5590998 87.245098,59.5675147 87.3141176,59.5741683 C87.4680392,59.5892368 87.6227451,59.6005871 87.7780392,59.6093933 C87.822549,59.6119374 87.8670588,59.6138943 87.9119608,59.6158513 C88.0843137,59.6236791 88.2572549,59.6291585 88.4313725,59.6291585 C88.6529412,59.6291585 88.8729412,59.6213307 89.0913725,59.609002 C89.1458824,59.6058708 89.1996078,59.6005871 89.2537255,59.5966732 C89.4239216,59.5845401 89.5935294,59.5696673 89.7615686,59.5502935 C89.8154902,59.5440313 89.8688235,59.5367906 89.9223529,59.5299413 C90.0982353,59.5072407 90.2729412,59.4806262 90.4458824,59.4500978 C90.487451,59.4428571 90.5290196,59.4356164 90.5703922,59.4279843 C90.7721569,59.3900196 90.9719608,59.3475538 91.1698039,59.2994129 C91.1796078,59.2970646 91.1894118,59.295499 91.1992157,59.2931507 L91.1992157,59.2931507 Z M21.1241176,95.9567515 L36.4182353,95.9567515 L36.4182353,68.3344423 L21.1241176,68.3344423 L21.1241176,95.9567515 Z M3.92156863,43.2162427 L19.2156863,43.2162427 L19.2156863,48.0831703 C19.2156863,48.8262231 19.1066667,49.5440313 18.907451,50.2236791 C18.8854902,50.2982387 18.8627451,50.372407 18.8388235,50.4459883 C18.8264706,50.4837573 18.8133333,50.5213307 18.8003922,50.5589041 C18.777451,50.6262231 18.7541176,50.6935421 18.7292157,50.7598826 C18.7119608,50.8054795 18.6935294,50.8502935 18.6754902,50.8953033 C18.6431373,50.9765166 18.6098039,51.0571429 18.5747059,51.1367906 C18.5417647,51.2125245 18.5082353,51.2880626 18.472549,51.3624266 C18.4498039,51.4099804 18.4254902,51.4563601 18.4017647,51.5033268 C18.3741176,51.5579256 18.3464706,51.6129159 18.3178431,51.6667319 C18.2909804,51.7164384 18.2635294,51.7655577 18.2356863,51.8146771 C18.2082353,51.8632094 18.1805882,51.911546 18.1521569,51.9594912 C18.1213725,52.011546 18.09,52.0630137 18.0578431,52.1142857 C18.0321569,52.1551859 18.0056863,52.1956947 17.9792157,52.2362035 C17.9427451,52.2923679 17.9058824,52.3483366 17.8678431,52.4035225 C17.8501961,52.4289628 17.8319608,52.4536204 17.8143137,52.478865 C16.645098,54.1248532 14.8484314,55.2702544 12.8264706,55.6101761 C12.8243137,55.6103718 12.8223529,55.6107632 12.8203922,55.6111546 C12.7411765,55.6244618 12.6615686,55.6354207 12.5819608,55.6459883 C12.5396078,55.6516634 12.4970588,55.6573386 12.4547059,55.6622309 C12.3915686,55.6696673 12.3282353,55.6763209 12.264902,55.6821918 C12.1990196,55.6880626 12.1327451,55.692955 12.0662745,55.6972603 C12.0188235,55.7003914 11.9713725,55.7039139 11.9237255,55.7062622 C11.8058824,55.711546 11.6876471,55.7152642 11.5686275,55.7152642 C11.4178431,55.7152642 11.2676471,55.709589 11.117451,55.7007828 C11.0794118,55.6986301 11.0415686,55.6949119 11.0033333,55.6919765 C10.8866667,55.6833659 10.7707843,55.6726027 10.6547059,55.6587084 C10.6184314,55.6544031 10.5823529,55.6499022 10.5462745,55.6450098 C10.4176471,55.627593 10.2896078,55.6072407 10.1619608,55.5835616 C10.1429412,55.5800391 10.1237255,55.576908 10.1047059,55.5731898 C9.80392157,55.5146771 9.50686275,55.4377691 9.2154902,55.3438356 C9.18588235,55.3342466 9.15647059,55.3238748 9.12705882,55.3138943 C9.01784314,55.2772994 8.90941176,55.2377691 8.80215686,55.1960861 C8.76,55.1798434 8.71764706,55.1636008 8.67588235,55.1463796 C8.57686275,55.1060665 8.47921569,55.062818 8.38196078,55.0181996 C8.34235294,55 8.30215686,54.9831703 8.26294118,54.9643836 C8.14235294,54.9066536 8.02372549,54.8450098 7.90607843,54.7810176 C5.53411765,53.4837573 3.92156863,50.9681018 3.92156863,48.0831703 L3.92156863,43.2162427 Z M32.0360784,55.6111546 C31.9568627,55.6244618 31.8772549,55.6354207 31.7976471,55.6459883 C31.7552941,55.6516634 31.7127451,55.6573386 31.6703922,55.6622309 C31.6072549,55.6696673 31.5439216,55.6763209 31.4805882,55.6821918 C31.4147059,55.6880626 31.3484314,55.692955 31.2819608,55.6972603 C31.2345098,55.7003914 31.1870588,55.7039139 31.1394118,55.7062622 C31.0215686,55.711546 30.9033333,55.7152642 30.7843137,55.7152642 C30.6652941,55.7152642 30.5470588,55.711546 30.4292157,55.7062622 C30.3815686,55.7039139 30.3341176,55.7003914 30.2866667,55.6972603 C30.2201961,55.692955 30.1539216,55.6880626 30.0880392,55.6821918 C30.0247059,55.6763209 29.9613725,55.6696673 29.8982353,55.6622309 C29.8558824,55.6573386 29.8133333,55.6516634 29.7709804,55.6459883 C29.6913725,55.6354207 29.6117647,55.6244618 29.532549,55.6111546 C29.5305882,55.6107632 29.5286275,55.6103718 29.5264706,55.6101761 C27.5045098,55.2702544 25.7078431,54.1248532 24.5386275,52.478865 C24.5209804,52.4536204 24.5027451,52.4289628 24.485098,52.4035225 C24.4470588,52.3483366 24.4101961,52.2923679 24.3737255,52.2362035 C24.3472549,52.1956947 24.3207843,52.1551859 24.295098,52.1142857 C24.2629412,52.0630137 24.2315686,52.011546 24.2007843,51.9594912 C24.1723529,51.911546 24.1447059,51.8632094 24.1172549,51.8146771 C24.0894118,51.7655577 24.0619608,51.7164384 24.035098,51.6667319 C24.0064706,51.6129159 23.9788235,51.5579256 23.9511765,51.5033268 C23.927451,51.4563601 23.9031373,51.4099804 23.8803922,51.3624266 C23.8447059,51.2880626 23.8113725,51.2125245 23.7782353,51.1367906 C23.7431373,51.0571429 23.7098039,50.9765166 23.677451,50.8953033 C23.6594118,50.8502935 23.6409804,50.8054795 23.6237255,50.7598826 C23.5988235,50.6935421 23.5754902,50.6262231 23.552549,50.5589041 C23.5396078,50.5213307 23.5264706,50.4837573 23.5141176,50.4459883 C23.4901961,50.372407 23.467451,50.2982387 23.4454902,50.2236791 C23.2462745,49.5440313 23.1372549,48.8262231 23.1372549,48.0831703 L23.1372549,43.2162427 L38.4313725,43.2162427 L38.4313725,48.0831703 C38.4313725,48.8262231 38.3223529,49.5440313 38.1231373,50.2236791 C38.1011765,50.2982387 38.0784314,50.372407 38.0545098,50.4459883 C38.0421569,50.4837573 38.0290196,50.5213307 38.0160784,50.5589041 C37.9931373,50.6262231 37.9698039,50.6935421 37.944902,50.7598826 C37.9276471,50.8054795 37.9092157,50.8502935 37.8911765,50.8953033 C37.8588235,50.9765166 37.8254902,51.0571429 37.7903922,51.1367906 C37.757451,51.2125245 37.7239216,51.2880626 37.6882353,51.3624266 C37.6654902,51.4099804 37.6411765,51.4563601 37.617451,51.5033268 C37.5898039,51.5579256 37.5621569,51.6129159 37.5335294,51.6667319 C37.5066667,51.7164384 37.4792157,51.7655577 37.4513725,51.8146771 C37.4239216,51.8632094 37.3962745,51.911546 37.3678431,51.9594912 C37.3370588,52.011546 37.3056863,52.0630137 37.2735294,52.1142857 C37.2478431,52.1551859 37.2213725,52.1956947 37.194902,52.2362035 C37.1584314,52.2923679 37.1215686,52.3483366 37.0835294,52.4035225 C37.0658824,52.4289628 37.0476471,52.4536204 37.03,52.478865 C35.8607843,54.1248532 34.0641176,55.2702544 32.0421569,55.6101761 C32.04,55.6103718 32.0380392,55.6107632 32.0360784,55.6111546 L32.0360784,55.6111546 Z M51.2517647,55.6111546 C51.172549,55.6244618 51.0929412,55.6354207 51.0133333,55.6459883 C50.9709804,55.6516634 50.9284314,55.6573386 50.8860784,55.6622309 C50.8229412,55.6696673 50.7596078,55.6763209 50.6962745,55.6821918 C50.6303922,55.6880626 50.5641176,55.692955 50.4976471,55.6972603 C50.4501961,55.7003914 50.4027451,55.7039139 50.355098,55.7062622 C50.2372549,55.711546 50.1190196,55.7152642 50,55.7152642 C49.8809804,55.7152642 49.7627451,55.711546 49.644902,55.7062622 C49.5972549,55.7039139 49.5498039,55.7003914 49.5023529,55.6972603 C49.4358824,55.692955 49.3696078,55.6880626 49.3037255,55.6821918 C49.2403922,55.6763209 49.1770588,55.6696673 49.1139216,55.6622309 C49.0715686,55.6573386 49.0290196,55.6516634 48.9866667,55.6459883 C48.9070588,55.6354207 48.827451,55.6244618 48.7482353,55.6111546 C48.7462745,55.6107632 48.7443137,55.6103718 48.7421569,55.6101761 C46.7201961,55.2702544 44.9235294,54.1248532 43.7543137,52.478865 C43.7366667,52.4536204 43.7184314,52.4289628 43.7007843,52.4035225 C43.6627451,52.3483366 43.6258824,52.2923679 43.5894118,52.2362035 C43.5629412,52.1956947 43.5364706,52.1551859 43.5107843,52.1142857 C43.4786275,52.0630137 43.4472549,52.011546 43.4164706,51.9594912 C43.3880392,51.911546 43.3603922,51.8632094 43.3329412,51.8146771 C43.305098,51.7655577 43.2776471,51.7164384 43.2507843,51.6667319 C43.2221569,51.6129159 43.1945098,51.5579256 43.1668627,51.5033268 C43.1431373,51.4563601 43.1188235,51.4099804 43.0960784,51.3624266 C43.0603922,51.2880626 43.0270588,51.2125245 42.9939216,51.1367906 C42.9588235,51.0571429 42.9254902,50.9765166 42.8931373,50.8953033 C42.875098,50.8502935 42.8566667,50.8054795 42.8394118,50.7598826 C42.8145098,50.6935421 42.7911765,50.6262231 42.7682353,50.5589041 C42.7552941,50.5213307 42.7421569,50.4837573 42.7298039,50.4459883 C42.7058824,50.372407 42.6831373,50.2982387 42.6611765,50.2236791 C42.4619608,49.5440313 42.3529412,48.8262231 42.3529412,48.0831703 L42.3529412,43.2162427 L57.6470588,43.2162427 L57.6470588,48.0831703 C57.6470588,48.8262231 57.5380392,49.5440313 57.3388235,50.2236791 C57.3168627,50.2982387 57.2941176,50.372407 57.27,50.4459883 C57.2578431,50.4837573 57.2447059,50.5213307 57.2317647,50.5589041 C57.2088235,50.6262231 57.1854902,50.6935421 57.1605882,50.7598826 C57.1433333,50.8054795 57.124902,50.8502935 57.1068627,50.8953033 C57.0745098,50.9765166 57.0411765,51.0571429 57.0060784,51.1367906 C56.9731373,51.2125245 56.9396078,51.2880626 56.9039216,51.3624266 C56.8811765,51.4099804 56.8568627,51.4563601 56.8331373,51.5033268 C56.8054902,51.5579256 56.7778431,51.6129159 56.7492157,51.6667319 C56.7223529,51.7164384 56.694902,51.7655577 56.6670588,51.8146771 C56.6396078,51.8632094 56.6119608,51.911546 56.5833333,51.9594912 C56.5527451,52.011546 56.5213725,52.0630137 56.4892157,52.1142857 C56.4635294,52.1551859 56.4370588,52.1956947 56.4105882,52.2362035 C56.3741176,52.2923679 56.3372549,52.3483366 56.2992157,52.4035225 C56.2815686,52.4289628 56.2631373,52.4536204 56.2456863,52.478865 C55.0764706,54.1248532 53.2798039,55.2702544 51.2578431,55.6101761 C51.2556863,55.6103718 51.2537255,55.6107632 51.2517647,55.6111546 L51.2517647,55.6111546 Z M76.8627451,48.0831703 C76.8627451,48.8262231 76.7537255,49.5440313 76.5545098,50.2236791 C76.532549,50.2982387 76.5098039,50.372407 76.4856863,50.4459883 C76.4735294,50.4837573 76.4603922,50.5213307 76.447451,50.5589041 C76.4245098,50.6262231 76.4011765,50.6935421 76.3762745,50.7598826 C76.3590196,50.8054795 76.3405882,50.8502935 76.322549,50.8953033 C76.2901961,50.9765166 76.2568627,51.0571429 76.2217647,51.1367906 C76.1886275,51.2125245 76.1552941,51.2880626 76.1196078,51.3624266 C76.0968627,51.4099804 76.072549,51.4563601 76.0488235,51.5033268 C76.0211765,51.5579256 75.9935294,51.6129159 75.964902,51.6667319 C75.9380392,51.7164384 75.9105882,51.7655577 75.8827451,51.8146771 C75.8552941,51.8632094 75.8276471,51.911546 75.7990196,51.9594912 C75.7684314,52.011546 75.7370588,52.0630137 75.704902,52.1142857 C75.6792157,52.1551859 75.6527451,52.1956947 75.6262745,52.2362035 C75.5898039,52.2923679 75.5529412,52.3483366 75.514902,52.4035225 C75.4972549,52.4289628 75.4788235,52.4536204 75.4613725,52.478865 C74.2921569,54.1248532 72.4954902,55.2702544 70.4735294,55.6101761 C70.4713725,55.6103718 70.4694118,55.6107632 70.467451,55.6111546 C70.3882353,55.6244618 70.3086275,55.6354207 70.2288235,55.6459883 C70.1866667,55.6516634 70.1441176,55.6573386 70.1017647,55.6622309 C70.0386275,55.6696673 69.9752941,55.6763209 69.9121569,55.6821918 C69.8460784,55.6880626 69.7796078,55.692955 69.7133333,55.6972603 C69.6658824,55.7003914 69.6184314,55.7039139 69.5707843,55.7062622 C69.4529412,55.711546 69.3347059,55.7152642 69.2156863,55.7152642 C69.0966667,55.7152642 68.9784314,55.711546 68.8605882,55.7062622 C68.8129412,55.7039139 68.7654902,55.7003914 68.7180392,55.6972603 C68.6517647,55.692955 68.5852941,55.6880626 68.5192157,55.6821918 C68.4560784,55.6763209 68.3927451,55.6696673 68.3296078,55.6622309 C68.2872549,55.6573386 68.2447059,55.6516634 68.202549,55.6459883 C68.1227451,55.6354207 68.0431373,55.6244618 67.9639216,55.6111546 C67.9619608,55.6107632 67.96,55.6103718 67.9578431,55.6101761 C65.9358824,55.2702544 64.1392157,54.1248532 62.97,52.478865 C62.952549,52.4536204 62.9341176,52.4289628 62.9164706,52.4035225 C62.8784314,52.3483366 62.8415686,52.2923679 62.805098,52.2362035 C62.7786275,52.1956947 62.7521569,52.1551859 62.7264706,52.1142857 C62.6943137,52.0630137 62.6629412,52.011546 62.6323529,51.9594912 C62.6037255,51.911546 62.5760784,51.8632094 62.5486275,51.8146771 C62.5207843,51.7655577 62.4933333,51.7164384 62.4664706,51.6667319 C62.4378431,51.6129159 62.4101961,51.5579256 62.382549,51.5033268 C62.3588235,51.4563601 62.3345098,51.4099804 62.3117647,51.3624266 C62.2760784,51.2880626 62.2427451,51.2125245 62.2096078,51.1367906 C62.1745098,51.0571429 62.1411765,50.9765166 62.1088235,50.8953033 C62.0907843,50.8502935 62.0723529,50.8054795 62.055098,50.7598826 C62.0301961,50.6935421 62.0068627,50.6262231 61.9839216,50.5589041 C61.9709804,50.5213307 61.9578431,50.4837573 61.9456863,50.4459883 C61.9215686,50.372407 61.8988235,50.2982387 61.8768627,50.2236791 C61.6776471,49.5440313 61.5686275,48.8262231 61.5686275,48.0831703 L61.5686275,43.2162427 L76.8627451,43.2162427 L76.8627451,48.0831703 Z M12.9045098,26.0317025 L86.9105882,26.0317025 L94.6329412,39.3023483 L78.8235294,39.3023483 L59.6078431,39.3023483 L40.3921569,39.3023483 L21.1764706,39.3023483 L5.33352941,39.3023483 L12.9045098,26.0317025 Z M30.0868627,22.1178082 L69.9129412,22.1178082 L69.9129412,18.3111546 L30.0868627,18.3111546 L30.0868627,22.1178082 Z M23.2198039,14.3972603 L76.9762745,14.3972603 L76.9762745,3.91389432 L23.2198039,3.91389432 L23.2198039,14.3972603 Z M99.9990196,41.2422701 C99.9984314,41.1686888 99.9931373,41.0958904 99.9845098,41.0242661 C99.9819608,41.0033268 99.9782353,40.9827789 99.974902,40.9618395 C99.9658824,40.902544 99.9543137,40.844227 99.94,40.7868885 C99.935098,40.767319 99.9305882,40.7479452 99.925098,40.7285714 C99.9045098,40.655773 99.8811765,40.5845401 99.8523529,40.5154599 C99.8515686,40.5131115 99.8507843,40.5107632 99.8498039,40.5082192 C99.8190196,40.4342466 99.7829412,40.362818 99.7431373,40.2935421 C99.7401961,40.2880626 99.7380392,40.2819961 99.7347059,40.2763209 L89.7347059,23.0919765 C89.3837255,22.4890411 88.7378431,22.1178082 88.0392157,22.1178082 L73.8347059,22.1178082 L73.8347059,18.3111546 L78.9370588,18.3111546 C80.02,18.3111546 80.8978431,17.4350294 80.8978431,16.3542074 L80.8978431,1.95694716 C80.8978431,0.876125245 80.02,0 78.9370588,0 L21.2590196,0 C20.1760784,0 19.2982353,0.876125245 19.2982353,1.95694716 L19.2982353,16.3542074 C19.2982353,17.4350294 20.1760784,18.3111546 21.2590196,18.3111546 L26.1652941,18.3111546 L26.1652941,22.1178082 L11.7647059,22.1178082 C11.06,22.1178082 10.4094118,22.4953033 10.0607843,23.1064579 L0.256862745,40.290998 C0.254509804,40.2949119 0.252941176,40.2992172 0.250588235,40.3033268 C0.211960784,40.3722114 0.177058824,40.4434442 0.146862745,40.5172211 C0.142941176,40.5270059 0.14,40.5369863 0.136078431,40.546771 C0.111372549,40.6093933 0.0903921569,40.6735812 0.0721568627,40.7391389 C0.0668627451,40.7587084 0.0617647059,40.7782779 0.0570588235,40.7980431 C0.0429411765,40.8565558 0.0315686275,40.9162427 0.022745098,40.9767123 C0.0201960784,40.9953033 0.0164705882,41.0136986 0.0141176471,41.0322896 C0.00549019608,41.1068493 0,41.1823875 0,41.2592955 L0,48.0831703 C0,51.990411 1.95666667,55.4483366 4.94156863,57.5383562 L4.94156863,97.9138943 C4.94156863,98.9947162 5.81960784,99.8708415 6.90235294,99.8708415 L19.1633333,99.8708415 L38.3790196,99.8708415 L93.16,99.8708415 C94.2429412,99.8708415 95.1207843,98.9947162 95.1207843,97.9138943 L95.1207843,57.4941292 C98.0703922,55.3996086 100,51.9632094 100,48.0831703 L100,41.2592955 C100,41.2585127 99.9998039,41.2581213 99.9998039,41.2573386 C99.9998039,41.2524462 99.9992157,41.2473581 99.9990196,41.2422701 L99.9990196,41.2422701 Z M51.9607843,84.719726 L80.0796078,84.719726 L80.0796078,68.3344031 L51.9607843,68.3344031 L51.9607843,84.719726 Z M82.0403922,64.4207045 L50,64.4207045 C48.9172549,64.4207045 48.0392157,65.2968297 48.0392157,66.3776517 L48.0392157,86.6766732 C48.0392157,87.7574951 48.9172549,88.6336204 50,88.6336204 L82.0403922,88.6336204 C83.1233333,88.6336204 84.0011765,87.7574951 84.0011765,86.6766732 L84.0011765,66.3776517 C84.0011765,65.2968297 83.1233333,64.4207045 82.0403922,64.4207045 L82.0403922,64.4207045 Z"></path></g></g></svg>