<svg height='100px' width='100px'  fill="#000000" xmlns="http://www.w3.org/2000/svg" xmlns:xlink="http://www.w3.org/1999/xlink" version="1.1" x="0px" y="0px" viewBox="0 0 50 50" enable-background="new 0 0 50 50" xml:space="preserve"><g><path d="M5.9,22.5c0.9,1.1,1,1.9,0.5,2.9c1.5,0.1,2.8-2.2,1.4-4.3c-0.7-1.3-2.3-2.1-1.4-4.6c0,0-0.2,0-0.5,0.1   C4.5,17.4,3.3,19.4,5.9,22.5z"></path><path d="M7.9,14.1c0.1,0.2,0.3,0.5,0.4,0.7c1.2,1.7,2.6,3.4,1.5,5.8c1.6-0.1,3.8-3,1.9-6.4c-0.8-1.7-3.1-3.5-1.9-7.3   c0,0-0.3,0.1-0.7,0.3C7.3,8.5,6.4,11.1,7.9,14.1z"></path><path d="M17.5,31.3c-1.4,0-2.8-0.5-3.7-1.6c-0.7-0.8-1.5-1.6-2.6-1.9c-3.2-1.2-7.5-0.2-9.2,3.5c-0.9,2-1.6,4.9,0.1,7.8   c2.7,4.6,9.7,5.4,14.8,1.1C28.4,31.3,36.5,21.4,45.7,22v-2.1C27,19.1,23.8,31.3,17.5,31.3z M8.2,31.7c-2.2,0-3.9-0.8-3.9-1.7   c0-2.2,7.8-2.2,7.8,0C12.1,31,10.4,31.7,8.2,31.7z"></path><path d="M48,17.5c-0.5,0-1,0.4-1,1v4.3c0,0.5,0.4,1,1,1c0.5,0,1-0.4,1-1v-4.3C49,18,48.6,17.5,48,17.5z"></path></g></svg>