<?xml version="1.0" encoding="utf-8"?>
<!-- Generator: Adobe Illustrator 24.2.1, SVG Export Plug-In . SVG Version: 6.00 Build 0)  -->
<svg version="1.1" id="Layer_1" xmlns="http://www.w3.org/2000/svg" xmlns:xlink="http://www.w3.org/1999/xlink" x="0px" y="0px"
	 viewBox="0 0 100 100" enable-background="new 0 0 100 100" xml:space="preserve">
<g>
	<path fill-rule="evenodd" clip-rule="evenodd" d="M-359.74,138.725h7.792l0,0h29.044c2.479,0,4.486,2.007,4.486,4.486v21.015
		c0,2.479-2.007,4.486-4.486,4.486h-32.586c-2.952,0.826-6.848,0.472-10.744-0.118c-2.479-0.472-7.202,0.945-7.792,0.708
		c-11.334-4.841,1.181-0.59,1.063-2.243c0-4.723,7.792-2.007,4.723-4.604c-0.118,0-1.417-1.063-4.486,0.708
		c-2.361,1.299-7.792,0-7.91,0.118c-1.181,0.118-8.146,1.653-1.063-0.826c1.063-0.354,2.007-0.826,2.834-1.063
		c8.737-1.653,2.361-2.952-1.889-1.889c-0.472,0.118-1.535,1.299-2.597,0.708c-0.118-0.118-4.25,2.125-5.785-0.236
		c-2.125-3.07-8.028-0.236-8.737-0.472c-3.306-1.417-8.264-4.604-9.327-4.486c-6.257,0.59,1.181-1.417,3.07-0.945
		c0.59,0.236,6.257,4.368,9.799,1.653c3.306-2.479,8.855,0,8.973-0.236c0.472-1.771,4.486-1.299,6.139-1.653
		c3.306-0.472-0.236-2.597-4.132-0.472c-1.063,0.59-2.479-0.472-3.778-0.354c-1.417,0.236-2.597,1.417-4.604-0.472
		c-1.771-1.771-6.021-2.834-6.021-2.834c7.556-1.771,6.966,0.472,11.216-1.889c0.708-0.354,4.723-2.597,7.792-0.236
		c5.903,4.368,11.216-3.542,2.952-1.181c-4.959,1.417,1.181-2.834,5.195-1.299c2.952,0.945,3.896,0,3.896,0
		c3.66,0-1.889-1.771-1.889-1.771c-2.125-2.243-10.035,1.299-13.105-0.354c-3.07-1.653,6.612-1.653,7.674-2.597
		c2.952-2.597,7.91-2.007,12.987-1.417C-360.567,138.843-360.213,138.725-359.74,138.725z M-345.455,143.802l14.994,9.327
		l-14.522,9.799l-0.472-0.118V143.802z"/>
	<path fill-rule="evenodd" clip-rule="evenodd" d="M-370.838-106.021c-0.59,0-1.181,0.118-1.653,0.236
		c-1.417,0.236-3.778,0.826-4.368-1.181c-0.118-0.472-0.118-0.945,0-1.299c-1.535,0.118-2.952-0.354-4.014-1.889
		c-1.063-1.653-5.903,0.945-7.674,0.236c-2.007-0.945-6.966-4.014-8.146-4.25c-1.535,0.118-4.25,0.59-4.604-1.653
		c-0.354-3.07,6.257-3.542,7.91-3.07c2.007,0.59,5.667,3.66,7.91,1.889c0.472-0.354,0.944-0.59,1.417-0.826
		c-0.236-0.118-0.354-0.236-0.59-0.236c-0.708-0.472-1.535-0.708-2.361-1.063c-0.236-0.118-0.59-0.118-0.826-0.236
		c-1.889-0.59-2.479-3.424-0.236-3.896c3.424-0.826,4.841-0.59,7.91-0.708c0.944-0.118,1.771-0.472,2.597-0.945
		c1.417-0.708,2.834-1.299,4.368-1.417c-0.826-0.59-1.417-1.417-1.299-2.361c0.472-3.306,6.966-2.479,8.737-3.188
		c3.66-3.188,9.445-2.479,13.932-2.007c0.472-0.118,0.945-0.118,1.417-0.118h36.128c3.424,0,6.375,2.834,6.375,6.375v20.543
		c0,3.542-2.952,6.375-6.375,6.375h-31.759c-3.424,0.945-7.674,0.354-11.098-0.236c-2.125-0.354-6.493,1.299-8.028,0.59
		c-1.535-0.59-6.612-2.125-5.667-4.723c0.118-0.354,0.354-0.708,0.59-0.945C-370.484-106.021-370.72-106.021-370.838-106.021z
		 M-351.24-131.405h7.32h0.118h27.509c2.361,0,4.25,1.889,4.25,4.25v19.953c0,2.361-1.889,4.25-4.25,4.25h-30.933
		c-2.715,0.826-6.494,0.472-10.272-0.236c-2.243-0.354-6.73,0.945-7.32,0.708c-10.744-4.604,1.063-0.472,1.063-2.125
		c0-4.368,7.32-1.771,4.486-4.25c-0.118-0.118-1.417-1.063-4.25,0.59c-2.243,1.299-7.556,0.118-7.674,0.118
		c-1.063,0.118-7.674,1.535-0.945-0.826c1.063-0.354,1.889-0.826,2.715-0.945c8.264-1.535,2.243-2.715-1.771-1.889
		c-0.472,0.118-1.535,1.299-2.479,0.708c-0.118-0.118-4.014,2.007-5.549-0.118c-2.007-2.952-7.556-0.236-8.264-0.59
		c-3.07-1.299-7.792-4.368-8.855-4.25c-5.903,0.59,1.063-1.299,2.952-0.826c0.59,0.236,5.903,4.132,9.327,1.535
		c3.07-2.361,8.383,0.118,8.501-0.236c0.354-1.653,4.25-1.181,5.785-1.535c3.07-0.472-0.236-2.479-3.896-0.472
		c-1.063,0.59-2.361-0.472-3.542-0.236c-1.417,0.236-2.479,1.299-4.368-0.472c-1.771-1.653-5.785-2.715-5.785-2.834
		c7.202-1.535,6.612,0.59,10.744-1.771c0.59-0.354,4.368-2.361,7.32-0.236c5.549,4.25,10.626-3.306,2.834-1.063
		c-4.723,1.417,1.063-2.597,4.959-1.181c2.715,0.945,3.66,0,3.66,0c3.424,0-1.771-1.653-1.889-1.653
		c-1.889-2.125-9.445,1.181-12.397-0.354c-2.834-1.535,6.257-1.653,7.32-2.479c2.834-2.479,7.556-1.889,12.279-1.417
		C-352.066-131.405-351.712-131.405-351.24-131.405z M-337.78-126.564l14.404,8.737l-13.932,9.327h-0.472V-126.564z
		 M-334.475-123.495v11.806l9.209-6.139L-334.475-123.495z"/>
	<path fill-rule="evenodd" clip-rule="evenodd" d="M-363.046,87.957c0-0.118,0-0.236,0-0.354c-0.59,0-1.181,0-1.889,0
		C-364.227,87.721-363.636,87.839-363.046,87.957z M-336.246,56.907c9.563,0,17.355,7.91,17.355,17.591
		c0,9.563-7.792,17.473-17.355,17.473c-1.771,0-3.542-0.354-5.195-0.826c-3.306,0.826-7.674,0.472-12.043-0.354
		c-2.715-0.472-8.146,1.181-8.737,0.826c-12.987-5.431,1.181-0.59,1.181-2.479c0-5.313,8.855-2.243,5.313-5.195
		c-0.118-0.118-1.653-1.181-5.077,0.708c-2.597,1.535-8.855,0.118-9.091,0.118c-1.181,0.236-9.209,1.889-1.181-0.826
		c1.299-0.472,2.361-1.063,3.188-1.181c9.917-1.889,2.715-3.306-2.125-2.243c-0.472,0.118-1.653,1.417-2.834,0.826
		c-0.236-0.118-4.841,2.361-6.612-0.236c-2.361-3.542-9.209-0.236-9.917-0.59c-3.778-1.653-9.327-5.313-10.626-5.077
		c-7.084,0.708,1.299-1.653,3.424-1.063c0.826,0.236,7.202,4.959,11.216,1.889c3.778-2.834,10.035,0,10.154-0.354
		c0.472-1.889,5.195-1.417,6.966-1.771c3.778-0.59-0.236-2.952-4.604-0.59c-1.181,0.708-2.834-0.59-4.368-0.354
		c-1.535,0.354-2.952,1.653-5.077-0.472c-2.125-2.125-6.966-3.306-6.966-3.424c8.619-1.889,7.91,0.59,12.751-2.125
		c0.826-0.354,5.313-2.834,8.855-0.236c6.73,5.077,12.751-4.014,3.306-1.299c-5.549,1.653,1.417-3.188,6.021-1.535
		c3.188,1.181,4.368,0.118,4.368,0.118c4.132,0-2.125-2.007-2.125-2.007c-2.361-2.597-11.334,1.417-14.994-0.472
		c-3.424-1.771,7.556-1.889,8.737-2.952c4.604-3.896,13.341-1.417,21.015-1.063c1.299-0.472,2.715-0.708,4.132-0.708
		c-0.118-0.118,0-0.118,0.354-0.118H-336.246z M-338.961,83.235V67.651l12.161,7.556l-11.924,8.028H-338.961z M-367.887,87.367
		c-0.708-0.118-1.299-0.236-1.889-0.354c-0.708,0.118-1.535,0.236-2.243,0.354c-1.535,0.236-4.014,0.945-4.723-1.181
		c-0.118-0.708,0-1.299,0.472-1.771c-1.889,0.236-3.778,0-5.077-2.007c-1.535-2.243-7.202,0.945-9.091,0.118
		c-2.125-0.945-8.264-4.604-9.681-4.959c-10.153,1.063-2.952-6.848,3.896-4.723c2.361,0.708,6.612,4.368,9.445,2.125
		c0.708-0.59,1.417-0.945,2.125-1.181c-0.354-0.236-0.826-0.472-1.181-0.708c-0.944-0.472-1.889-0.826-2.834-1.181
		c-0.354-0.118-0.59-0.236-0.944-0.354c-1.889-0.59-2.597-3.306-0.236-3.778c3.778-0.945,5.431-0.708,9.091-0.826
		c1.063-0.118,2.125-0.59,3.07-1.181c2.007-1.063,4.25-1.771,6.375-1.653c-0.354-0.118-0.59-0.236-0.945-0.354
		c-0.944-0.59-1.771-1.417-1.653-2.715c0.472-3.424,8.028-2.597,10.035-3.424c5.313-4.604,15.466-2.007,22.078-1.653
		c1.417-0.354,2.834-0.59,4.25-0.708c0.236,0,0.354,0,0.472,0h0.59c10.744,0,19.362,8.737,19.362,19.481
		c0,10.626-8.619,19.362-19.362,19.362c-1.771,0-3.542-0.236-5.313-0.708c-3.778,0.826-8.501,0.236-12.279-0.354
		c-2.479-0.472-7.556,1.417-9.209,0.708c-1.535-0.708-7.438-2.361-6.494-5.077C-369.421,87.721-368.713,87.367-367.887,87.367z
		 M-369.185,64.345c0.354,0.118,0.59,0.236,0.945,0.354c0.118-0.118,0.236-0.118,0.354-0.236
		C-368.359,64.463-368.831,64.463-369.185,64.345z M-337.308,79.929l6.73-4.486l-6.73-4.132V79.929z"/>
	<path fill-rule="evenodd" clip-rule="evenodd" d="M-402.361-51.594c-0.945,0.59-2.007,0.826-3.07,0.708
		c-1.653,0.708-4.723,0.354-5.667,0.354c-1.299,0-6.612,0.59-6.612-1.771c0-1.063,1.063-1.535,2.361-1.653
		c0.236-0.59,0.708-0.826,1.417-0.945c0.118-0.472,0.472-0.708,0.826-0.945c-2.479,0.118-5.195-0.236-7.438-0.59
		c-2.007-0.354-6.257,1.063-7.556,0.59c-1.299-0.59-6.139-2.007-5.313-4.132c0.236-0.826,0.945-1.063,1.771-1.063
		c-0.59-0.118-1.299-0.236-1.889-0.354c-0.59,0.118-1.181,0.236-1.771,0.354c-1.181,0.118-3.306,0.708-3.778-0.945
		c-0.236-0.59,0-1.181,0.354-1.535c-1.535,0.236-3.188,0-4.25-1.653c-1.181-1.771-5.903,0.826-7.438,0.118
		c-1.771-0.708-6.848-3.896-7.91-4.132c-1.299,0.236-3.778,0.59-4.014-1.299c-0.354-2.479,5.667-2.952,7.202-2.479
		c1.889,0.59,5.313,3.542,7.792,1.771c0.59-0.472,1.181-0.826,1.771-1.063c-0.354-0.236-0.708-0.354-1.063-0.59
		c-0.708-0.354-1.535-0.708-2.361-0.945c-0.236-0.118-0.472-0.118-0.826-0.236c-1.535-0.472-2.007-2.834-0.118-3.188
		c3.188-0.708,4.486-0.472,7.438-0.59c0.945-0.118,1.771-0.472,2.597-0.945c2.361-1.299,5.313-2.007,7.792-0.826
		c0.118-0.236,0.354-0.472,0.708-0.708c-1.653,0.472-3.66-0.236-5.313-0.59c-1.181-0.236-2.715-0.708-2.715-2.243
		c0.118-2.361,5.077-2.361,6.73-2.125c1.417,0.354,1.181-0.472,2.597-0.708c1.535-0.236,1.417-0.118,2.834,0.118
		c0.354,0.118,1.299,0.236,1.889,0.354c0.354-0.59,0.826-0.945,1.535-1.181c2.834-0.472,5.431-0.826,8.383-0.59
		c0.354-0.118,0.826-0.118,1.299-0.118h34.357c3.188,0,5.785,2.597,5.785,5.785v19.599c0,3.188-2.597,5.785-5.785,5.785h-3.188
		c-0.118,0.472-0.236,0.945-0.472,1.299c-1.181,2.715-4.132,5.195-7.084,4.014c-1.771,0.59-4.368,0.354-5.313,0.354
		C-396.93-50.531-401.299-50.059-402.361-51.594z M-386.187-61.393c-1.771-0.826-4.132,0.59-5.313,3.07
		c-1.181,2.597-0.708,5.313,1.181,6.139c1.771,0.826,4.132-0.59,5.313-3.188C-383.825-57.851-384.298-60.567-386.187-61.393z
		 M-395.159-53.365c-1.771,0-3.188,0.118-3.188,0.236c0,0.118,1.417,0.236,3.188,0.236c1.653,0,3.07-0.118,3.07-0.236
		C-392.09-53.247-393.507-53.365-395.159-53.365z M-394.451-54.073c-1.299,0-2.361,0-2.361,0.118c0,0.118,1.063,0.236,2.361,0.236
		c1.299,0,2.361-0.118,2.361-0.236C-392.09-54.073-393.152-54.073-394.451-54.073z M-395.986-52.302
		c-2.834,0-5.077,0.118-5.077,0.118c0,0.118,2.243,0.236,5.077,0.236s5.195-0.118,5.195-0.236
		C-390.791-52.184-393.152-52.302-395.986-52.302z M-410.272-54.427c-1.299,0-2.243,0.118-2.243,0.236
		c0,0.118,0.945,0.118,2.243,0.118c1.181,0,2.243,0,2.243-0.118C-408.028-54.309-409.091-54.427-410.272-54.427z M-410.98-53.365
		c-1.653,0-3.07,0.118-3.07,0.236c0,0.118,1.417,0.236,3.07,0.236c1.771,0,3.188-0.118,3.188-0.236
		C-407.792-53.247-409.209-53.365-410.98-53.365z M-411.216-52.302c-2.834,0-5.077,0.118-5.077,0.236s2.243,0.118,5.077,0.118
		s5.195,0,5.195-0.118S-408.383-52.302-411.216-52.302z M-414.286-85.596h7.202l0,0h27.155c2.243,0,4.132,1.889,4.132,4.132v19.599
		c0,2.361-1.889,4.25-4.132,4.25h-3.424c0.118-1.889-0.472-3.66-2.243-4.486c-2.715-1.299-5.549,1.181-6.612,3.542
		c-0.118,0.354-0.236,0.59-0.354,0.945h-6.612c0.236-2.007-0.354-4.132-2.243-5.077c-2.715-1.181-5.549,1.299-6.612,3.66
		c-0.236,0.354-0.354,0.945-0.472,1.417h-1.889c-2.715,0.708-6.375,0.354-10.035-0.236c-2.243-0.354-6.612,0.945-7.202,0.708
		c-10.626-4.486,1.063-0.472,1.063-2.125c-0.118-4.25,16.057-3.07,4.368-4.132c-0.118-0.118-1.417-1.063-4.25,0.59
		c-2.125,1.181-7.32,0-7.438,0c-1.063,0.236-7.556,1.535-0.944-0.708c1.063-0.354,1.889-0.826,2.597-0.945
		c8.146-1.535,2.243-2.715-1.771-1.771c-0.354,0-1.417,1.181-2.361,0.59c-0.118-0.118-3.896,2.007-5.431-0.118
		c-1.889-2.952-7.438-0.236-8.146-0.59c-2.952-1.299-7.674-4.25-8.737-4.132c-5.785,0.59,1.181-1.299,2.952-0.826
		c0.59,0.236,5.903,4.014,9.209,1.535c3.07-2.361,8.146,0,8.264-0.236c0.472-1.653,4.25-0.945,5.785-1.535
		c0.472-0.118,0.708-0.59,0.944-0.472c8.737,2.007-1.535-1.889-4.841,0c-0.944,0.59-2.243-0.472-3.542-0.236
		c-1.299,0.236-2.361,1.299-4.25-0.472c-1.653-1.653-5.667-2.715-5.549-2.715c6.966-1.653,6.375,0.472,10.39-1.771
		c0.708-0.354,4.368-2.361,7.32-0.236c2.715,2.125,4.959-0.354,6.257,0.236c3.542,1.299,2.597,0.945,3.542,1.299
		c5.431,2.007,11.806,1.417,2.597,0.236c-0.472-0.118-0.826-0.472-1.299-0.708c-2.834-1.181-6.73-2.597-8.383-2.125
		c-4.604,1.299,1.063-2.597,4.841-1.181c2.715,0.945,3.66,0,3.66,0c12.279,1.417,12.279-0.118,6.966-0.708
		c0,0-0.354,0.59-2.007-0.945c-2.361-1.889-6.139,0.118-6.73,0c-2.834-0.354-6.612-2.715-8.737-0.708
		c-1.181,1.063-3.306,0.354-5.313-0.118c-3.896-0.826,1.417-1.653,3.424-1.299c2.125,0.354,2.243-0.59,3.188-0.708
		c1.417-0.236,0.944-0.236,2.361,0.118c4.723,0.945,2.597-0.59,4.014-0.826c2.479-0.472,5.077-0.945,8.146-0.59
		C-415.112-85.596-414.758-85.596-414.286-85.596z M-396.576-80.756l13.105,8.028l-12.633,8.501h-0.472V-80.756z M-401.889-61.747
		c-1.771-0.826-4.25,0.59-5.431,3.188c-1.063,2.479-0.59,5.195,1.181,6.021c1.889,0.826,4.25-0.59,5.431-3.07
		C-399.528-58.205-400.118-60.921-401.889-61.747z M-402.952-59.504c-0.945-0.354-2.125,0.354-2.715,1.653
		c-0.59,1.299-0.354,2.715,0.59,3.07c0.945,0.472,2.125-0.236,2.715-1.535C-401.771-57.615-402.007-59.032-402.952-59.504z
		 M-387.131-59.15c-0.945-0.472-2.243,0.236-2.834,1.535c-0.59,1.299-0.236,2.715,0.59,3.188c0.945,0.354,2.125-0.354,2.834-1.653
		C-385.95-57.379-386.305-58.678-387.131-59.15z"/>
	<path fill-rule="evenodd" clip-rule="evenodd" d="M-357.143,14.286c9.091,0,16.529,7.32,16.529,16.411s-7.438,16.411-16.529,16.411
		c-9.209,0-16.529-7.32-16.529-16.411S-366.352,14.286-357.143,14.286z M-356.316,26.21h2.243l0,0h8.383
		c0.826,0,1.417,0.59,1.417,1.299v6.139c0,0.708-0.59,1.299-1.417,1.299h-9.445c-0.826,0.236-1.889,0.118-3.07-0.118
		c-0.708-0.118-2.125,0.236-2.243,0.236c-3.306-1.417,0.354-0.118,0.354-0.708c0-1.299,2.243-0.472,1.299-1.299
		c0,0-0.354-0.236-1.299,0.236c-0.708,0.354-2.243,0-2.243,0c-0.354,0-2.361,0.472-0.354-0.236c0.354-0.118,0.59-0.236,0.826-0.236
		c2.479-0.472,0.708-0.945-0.59-0.59c-0.118,0-0.354,0.354-0.708,0.118c0,0-1.181,0.708-1.653,0
		c-0.59-0.945-2.361-0.118-2.597-0.118c-0.945-0.472-2.361-1.417-2.715-1.299c-1.771,0.118,0.354-0.472,0.945-0.236
		c0.118,0,1.771,1.181,2.834,0.472c0.945-0.826,2.597,0,2.597-0.118c0.118-0.472,1.299-0.354,1.771-0.472
		c0.944-0.118,0-0.708-1.181-0.118c-0.354,0.118-0.708-0.118-1.063-0.118c-0.472,0.118-0.826,0.472-1.299-0.118
		c-0.59-0.59-1.771-0.826-1.771-0.826c2.125-0.59,2.007,0.118,3.188-0.59c0.236-0.118,1.417-0.708,2.243-0.118
		c1.771,1.299,3.306-0.945,0.945-0.236c-1.535,0.354,0.236-0.826,1.417-0.472c0.826,0.354,1.181,0.118,1.181,0.118
		c1.063,0-0.59-0.59-0.59-0.59c-0.59-0.59-2.834,0.354-3.778-0.118c-0.826-0.472,1.889-0.472,2.243-0.708
		c0.826-0.708,2.243-0.59,3.778-0.472C-356.553,26.21-356.434,26.21-356.316,26.21z M-352.184,27.627l4.368,2.715l-4.25,2.834
		h-0.118V27.627z"/>
	<path fill-rule="evenodd" clip-rule="evenodd" d="M-358.323,115.466c-0.708,0-1.771,0.118-2.125,0.118
		c-1.535,0.354-4.25,2.007-5.549,0.118c-0.944-1.535-3.66,0-4.723-0.118c-0.945,0-1.889-0.472-2.715-0.945
		c-0.472-0.236-2.479-1.653-2.834-1.653c-0.472,0-1.889,0.236-2.007-0.472c-0.118-1.181,3.306-1.299,4.014-1.181
		c0.945,0.354,1.771,1.063,3.07,1.417c0.826,0.118,1.653,0.118,2.243-0.354c0.59-0.354,1.063-0.59,1.653-0.708
		c0-0.118-0.118-0.236-0.236-0.472c-0.118-0.354-0.945-0.708-1.299-0.826c-0.472-0.236-2.361-0.472-2.361-1.181
		c0-0.236,0.236-0.472,0.472-0.472c1.299-0.354,2.479-0.472,3.896-0.236c0.354,0.118,1.417,0.354,1.889,0.118
		c0.236,0,0.354-0.472,0.472-0.708c0.236-0.59,1.535-0.945,2.125-1.063c1.063-0.236,2.125-0.118,3.07,0.472
		c0-0.945,2.834-1.535,3.542-1.535c0.472,0,0.945,0,1.417,0.236c0.354,0.118,0.945,0.236,1.417,0.236
		c-0.354-0.118-0.59-0.236-0.708-0.354h-0.118l0,0c-0.826-0.945-5.667,0.826-7.674-0.118c-0.354-0.236-0.708-0.472-0.59-0.945
		c0.118-1.299,4.25-1.063,5.077-1.535c2.007-1.771,5.549-1.299,8.028-1.063c0.354,0,0.59,0,0.826,0h21.96
		c1.771,0,3.188,1.417,3.188,3.188v12.515c0,1.771-1.417,3.188-3.188,3.188h-19.362c-2.243,0-4.368,0.118-6.493-0.118
		c-1.181-0.118-4.132,0.59-4.723,0.472c-0.708-0.236-1.417-0.472-2.125-0.945c-0.354-0.236-1.299-0.59-0.945-1.299
		c0.354-0.826,2.479,0.118,3.306,0c0.118-0.472,0.354-0.945,0.708-1.417c0.118,0,0.118,0,0.118,0c-1.417,0.708-3.424,0.236-4.841,0
		c-0.354,0.118-0.708,0.236-1.181,0.236c-0.472,0.118-1.653,0.472-1.889-0.236c-0.236-0.826,1.771-1.299,2.243-1.535
		c0.59-0.118,1.181-0.472,1.771-0.59C-359.386,115.702-358.796,115.584-358.323,115.466z M-348.052,102.715h4.604h0.118h17.237
		c1.417,0,2.597,1.181,2.597,2.715v12.515c0,1.417-1.181,2.715-2.597,2.715h-19.362c-1.889,0-4.014,0-6.493-0.236
		c-1.417-0.118-4.25,0.59-4.604,0.472c-0.826-0.236-1.535-0.59-1.889-0.826c-2.834-1.535,2.597,0.354,2.597-0.472
		c0-2.834,4.604-1.181,2.715-2.715c0,0-0.826-0.59-2.597,0.354c-1.417,0.826-4.723,0.118-4.723,0.118
		c-0.708,0.118-4.841,0.945-0.708-0.472c0.708-0.236,1.299-0.59,1.771-0.59c5.195-1.063,1.417-1.771-1.181-1.181
		c-1.299,0.236-3.896,1.889-4.959,0.236c-1.181-1.771-4.604-0.236-5.195-0.236c-2.125-0.236-4.841-2.834-5.549-2.715
		c-3.66,0.354,0.708-0.826,1.771-0.472c0.472,0.118,3.778,2.597,5.903,0.945c2.007-1.535,5.313,0,5.313-0.118
		c0.236-1.063,2.715-0.826,3.66-0.945c1.889-0.354-0.354-2.007-2.361-0.472c-0.236,0.236-0.118,0,0-0.236
		c0.118-0.59,0.118-1.535-2.361,0.118c-0.708,0.59-2.007,1.299-2.715-0.236c-0.472-1.299-4.014-1.653-3.542-1.771
		c4.132-1.063,5.667,1.417,6.612-1.063c0.236-0.472,2.834-1.535,4.723-0.118c3.424,2.597,6.612-2.125,1.653-0.708
		c-2.952,0.826,0.708-1.653,3.188-0.826c1.653,0.59,2.243,0.118,2.243,0.118c2.125,0-1.063-1.063-1.181-1.063
		c-1.181-1.417-5.903,0.708-7.792-0.354c-1.771-0.945,4.014-0.945,4.604-1.417c1.771-1.535,4.723-1.299,7.792-0.945
		C-348.524,102.834-348.288,102.715-348.052,102.715z M-339.551,105.785l8.973,5.549l-8.737,5.785h-0.236V105.785z
		 M-364.345,111.924c0.236,0.118,0.472,0.118,0.708,0.236c0.236-0.354,0.59-0.59,1.063-0.708c-0.118-0.118,0-0.236,0-0.472v-0.118
		c-0.472,0.236-1.181,0.708-1.417,0.826C-364.109,111.806-364.227,111.924-364.345,111.924z M-360.449,111.334
		c0.236-0.118,0.472-0.118,0.59-0.118C-359.976,111.216-360.213,111.216-360.449,111.334z M-358.205,108.028
		c0.59,0.236,1.063,0.236,1.653,0.118c0.236,0,0.826-0.236,0.945-0.472c-0.354-0.236-1.535,0.118-1.771,0.118
		C-357.615,107.91-357.851,108.028-358.205,108.028z M-338.961,106.73v9.563l7.32-4.959L-338.961,106.73z"/>
	<path fill-rule="evenodd" clip-rule="evenodd" d="M-377.686-172.845c-0.945-0.236-3.306,0.236-3.896,0.472
		c-1.889,0.472-5.313,2.479-6.848,0.118c-1.417-2.007-4.959,0.354-6.375-0.118c-2.007-0.472-6.021-3.542-6.966-3.424
		c-0.472,0-2.125,0.354-2.243-0.472c-0.118-1.063,3.66-1.653,4.723-1.181c1.181,0.354,2.243,1.417,3.896,1.771
		c1.063,0.236,2.243,0.236,3.188-0.472c1.181-0.945,2.834-1.063,4.25-0.826c0.826,0.118,1.771,0.354,2.479,0.472
		c0.826-1.299,3.66-0.945,4.841-1.181c0.118,0,0.472,0,0.59-0.118c-0.826-0.354-3.66,0.236-4.25,0.472
		c-1.653,0.708-2.479,0-0.826-1.181c0.236-0.118,0.708-0.354,0.826-0.59c-0.118-0.118-0.354-0.118-0.472,0
		c-1.181,0.118-3.66,3.188-5.549,1.299c-0.354-0.354-0.944-0.708-1.417-0.945c-0.708-0.354-1.299-0.59-2.007-0.826
		c-0.236,0-0.472-0.118-0.708-0.236c-0.59-0.118-0.826-0.826-0.236-1.063c1.417-0.236,2.834-0.354,4.25,0
		c0.472,0.118,1.417,0.472,1.889,0.472c0.826,0,1.653-1.181,2.125-1.653c1.181-1.653,4.959-1.535,6.612-0.354
		c3.424,2.597,7.32-1.417,2.007,0.118c-0.472,0.118-1.535,0.472-1.771-0.236c-0.59-1.299,4.132-3.07,5.903-2.125
		c0.236,0,0.59,0.118,0.826,0.236v-0.118c-1.299-1.299-7.438,0-9.681-0.354c-0.472-0.118-1.535-0.236-1.417-0.945
		c0-1.299,5.785-1.417,6.966-1.889h0.118c2.597-2.243,13.932-1.299,17.71-1.417c6.73,0,12.161,5.431,12.161,12.161
		s-5.431,12.279-12.161,12.279c-3.542,0-8.028-0.236-11.57-0.826c-1.535-0.236-5.431,0.826-6.021,0.59
		c-0.59-0.236-1.181-0.59-1.771-0.826c-0.472-0.236-2.361-0.826-2.125-1.653c0.354-1.063,3.66,0,4.723-0.118
		c0.472-1.063,1.181-1.653,2.243-2.007c0.354-0.118,1.063-0.236,1.535-0.354c-0.118-0.118-0.236-0.236-0.354-0.236
		c-0.59-0.59-2.243,0.118-2.834,0.472c-1.771,1.063-4.368,0.354-6.257,0.118c-0.472,0.118-0.945,0.236-1.417,0.236
		c-0.472,0.118-2.007,0.59-2.243-0.118c-0.236-0.945,2.243-1.535,2.715-1.653c0.708-0.236,1.417-0.708,2.125-0.826
		C-379.929-172.019-378.394-172.373-377.686-172.845z M-359.15-188.666c6.375,0,11.57,5.313,11.57,11.688
		c0,6.493-5.195,11.688-11.57,11.688c-3.188,0-8.619-0.236-11.452-0.708c-1.889-0.354-5.431,0.708-5.903,0.59
		c-0.354-0.118-0.118-0.118-1.771-0.826c-5.431-2.361,2.597-0.354,2.834-0.945c1.181-3.306,5.549-1.417,3.306-3.424
		c-0.118,0-1.063-0.826-3.424,0.472c-1.771,1.063-5.903,0.118-6.021,0.118c-0.826,0.118-6.139,1.299-0.826-0.59
		c0.826-0.354,1.535-0.708,2.125-0.826c5.903-1.417,2.834-2.597-1.417-1.417c-1.653,0.472-5.077,2.243-6.375,0.354
		c-1.535-2.361-5.549-0.118-6.612-0.354c-2.834-0.708-5.549-3.542-7.084-3.424c-4.723,0.354,1.653-1.299,2.361-0.708
		c0.472,0.118,4.723,3.306,7.438,1.299c2.479-2.007,6.73,0,6.848-0.236c0.236-1.299,3.424-1.063,4.604-1.181
		c2.479-0.472,0.944-2.243-4.014-0.708c0,0-1.889,0.826-0.236-0.236c1.771-1.181,0.59-1.771,0-1.653
		c-1.181,0.236-3.66,2.952-5.195,1.535c-1.417-1.299-4.604-2.125-4.604-2.243c5.785-1.299,5.431,2.715,8.501-1.417
		c0.354-0.354,3.542-1.889,5.903-0.118c4.486,3.306,8.619-2.715,2.243-0.945c-3.778,1.181,2.007-2.597,4.132-1.299
		c2.007,0.472,2.834,0.472,2.834,0.472c2.715,0-1.535-1.181-1.535-1.181c-1.535-1.653-7.202-0.118-9.917-0.59
		c-4.368-0.708,5.903-1.417,5.785-1.889C-374.144-189.492-363.636-188.548-359.15-188.666z M-361.039-170.956l0.118-10.508
		l8.146,4.959L-361.039-170.956z M-360.449-171.901l6.73-4.604l-6.73-4.132V-171.901z"/>
	<path fill-rule="evenodd" clip-rule="evenodd" d="M-364.817-224.321c7.91,0,14.286,6.257,14.286,13.813
		c0,7.674-6.375,13.932-14.286,13.932c-7.792,0-14.168-6.257-14.168-13.932C-378.985-218.064-372.609-224.321-364.817-224.321z
		 M-358.205-215.821c2.834,0,5.195,2.361,5.195,5.195c0,2.834-2.361,5.195-5.195,5.195c-1.417,0-3.778-0.118-5.077-0.354
		c-0.826-0.118-2.361,0.354-2.597,0.236c-0.118,0,0,0-0.826-0.354c-2.361-1.063,1.181-0.118,1.299-0.354
		c0.472-1.535,2.479-0.708,1.417-1.535c0,0-0.472-0.354-1.417,0.236c-0.826,0.354-2.715,0-2.715,0c-0.354,0-2.715,0.59-0.354-0.236
		c0.354-0.118,0.708-0.354,0.945-0.354c2.597-0.708,1.299-1.181-0.59-0.708c-0.708,0.236-2.243,1.063-2.834,0.236
		c-0.708-1.063-2.479-0.118-2.952-0.236c-1.299-0.236-2.479-1.535-3.188-1.535c-2.007,0.236,0.826-0.59,1.063-0.236
		c0.236,0,2.125,1.417,3.306,0.59c1.181-0.945,2.952,0,3.07-0.118c0.118-0.59,1.535-0.472,2.007-0.59
		c1.063-0.118,0.472-0.945-1.771-0.236c0,0-0.826,0.354-0.118-0.118c0.826-0.472,0.354-0.826,0-0.708
		c-0.472,0-1.653,1.299-2.243,0.708c-0.708-0.708-2.125-1.063-2.007-1.063c2.479-0.59,2.361,1.181,3.778-0.59
		c0.118-0.236,1.535-0.826,2.597-0.118c1.889,1.535,3.778-1.181,0.944-0.354c-1.653,0.472,0.826-1.181,1.771-0.59
		c0.945,0.236,1.299,0.118,1.299,0.118c1.181,0-0.708-0.472-0.708-0.472c-0.708-0.708-3.188,0-4.368-0.236
		c-1.889-0.354,2.597-0.59,2.597-0.826C-364.817-216.175-360.213-215.702-358.205-215.821z M-359.032-208.028v-4.604l3.66,2.243
		L-359.032-208.028z"/>
	<path fill-rule="evenodd" clip-rule="evenodd" d="M-362.338,190.319h7.32l0,0h27.391c2.361,0,4.25,1.889,4.25,4.25v19.481
		c0,2.361-1.889,4.132-4.25,4.132h-4.368c0.354-2.007,0-4.25-2.007-5.195c-2.597-1.181-5.313,1.299-6.375,3.542
		c-0.236,0.472-0.354,1.063-0.472,1.653h-10.153c0.354-2.007-0.118-4.25-2.007-5.077c-2.715-1.299-5.313,1.181-6.375,3.424
		c-0.236,0.59-0.472,1.299-0.59,2.007c-2.479,0.354-5.431,0-8.501-0.472c-2.361-0.472-6.848,0.945-7.32,0.708
		c-10.744-4.486,1.063-0.59,0.945-2.125c0-4.368,7.32-1.771,4.486-4.25c-0.118,0-1.417-0.945-4.25,0.59
		c-2.125,1.299-7.438,0.118-7.556,0.118c-1.063,0.118-7.556,1.535-0.945-0.708c1.063-0.354,1.889-0.826,2.597-0.945
		c8.264-1.535,2.243-2.715-1.771-1.889c-2.007,0.59-6.139,2.952-7.792,0.472c-2.007-2.834-7.674-0.118-8.264-0.472
		c-3.07-1.299-7.792-4.25-8.855-4.132c-5.903,0.59,1.063-1.299,2.952-0.826c0.59,0.236,5.903,4.014,9.209,1.535
		c3.188-2.361,8.383,0,8.501-0.236c0.354-1.653,4.25-1.181,5.785-1.535c3.07-0.472-0.826-2.243-4.959-0.59
		c-2.125,0.826,1.771-2.361-0.236-2.479c-1.417,0-4.723,3.66-6.612,1.889c-1.771-1.653-5.667-2.715-5.667-2.715
		c7.084-1.535,6.493,0.472,10.626-1.653c0.59-0.354,4.368-2.479,7.32-0.236c5.549,4.014,8.383-0.708,2.715-1.063
		c-6.375-0.472,1.181-2.597,4.959-1.299c3.07,0.236,3.778,0.118,3.778,0.118c3.66,0-1.889-1.653-1.889-1.653
		c-2.007-2.125-9.445,1.181-12.397-0.354c-2.834-1.535,6.257-1.535,7.202-2.479c2.834-2.361,7.556-1.889,12.397-1.299
		C-363.164,190.437-362.81,190.319-362.338,190.319z M-342.739,221.015c-1.299,0-2.243,0.118-2.243,0.236
		c0,0.118,0.945,0.118,2.243,0.118c1.181,0,2.243,0,2.243-0.118C-340.496,221.133-341.558,221.015-342.739,221.015z
		 M-361.747,221.015c-1.299,0-2.361,0.118-2.361,0.236c0,0.118,1.063,0.118,2.361,0.118c1.181,0,2.243,0,2.243-0.118
		C-359.504,221.133-360.567,221.015-361.747,221.015z M-362.456,222.078c-1.653,0-3.07,0.118-3.07,0.236
		c0,0.118,1.417,0.236,3.07,0.236c1.771,0,3.188-0.118,3.188-0.236C-359.268,222.196-360.685,222.078-362.456,222.078z
		 M-362.692,223.141c-2.834,0-5.195,0.118-5.195,0.236c0,0.118,2.361,0.236,5.195,0.236s5.195-0.118,5.195-0.236
		C-357.497,223.259-359.858,223.141-362.692,223.141z M-353.365,213.695c-1.771-0.826-4.25,0.59-5.431,3.07
		c-1.063,2.597-0.59,5.313,1.181,6.139c1.889,0.826,4.25-0.472,5.431-3.07C-351.004,217.237-351.594,214.522-353.365,213.695z
		 M-354.427,215.939c-0.826-0.354-2.125,0.354-2.715,1.653c-0.59,1.299-0.354,2.715,0.59,3.07c0.945,0.472,2.125-0.236,2.715-1.535
		C-353.247,217.828-353.483,216.411-354.427,215.939z M-343.329,222.078c-1.771,0-3.188,0.118-3.188,0.236
		c0,0.118,1.417,0.236,3.188,0.236c1.653,0,3.07-0.118,3.07-0.236C-340.26,222.196-341.677,222.078-343.329,222.078z
		 M-343.566,223.141c-2.952,0-5.195,0.118-5.195,0.236c0,0.118,2.243,0.236,5.195,0.236c2.834,0,5.077-0.118,5.077-0.236
		C-338.489,223.259-340.732,223.141-343.566,223.141z M-334.357,213.695c-1.771-0.826-4.132,0.59-5.313,3.07
		c-1.181,2.597-0.708,5.313,1.181,6.139c1.771,0.826,4.132-0.59,5.313-3.07C-331.995,217.237-332.468,214.522-334.357,213.695z
		 M-335.301,215.939c-0.945-0.354-2.243,0.354-2.834,1.653c-0.59,1.299-0.236,2.597,0.59,3.07c0.945,0.472,2.243-0.236,2.834-1.535
		C-334.12,217.828-334.475,216.411-335.301,215.939z M-348.878,195.041l14.168,8.737l-14.168,8.973V195.041z"/>
	<path fill-rule="evenodd" clip-rule="evenodd" d="M-332.94,271.665c-0.118,0.59-0.236,1.063-0.472,1.417
		c-1.063,2.361-3.896,5.077-6.73,3.778c-2.007-0.944-2.479-3.07-2.243-5.195h-11.688c-0.118,0.59-0.236,1.063-0.472,1.417
		c-1.063,2.479-3.896,5.077-6.73,3.778c-1.889-0.826-2.361-2.834-2.243-4.841h-0.118c-3.07,0.354-6.612,0-9.681-0.59
		c-2.007-0.354-7.438,1.063-8.264,0.708c-0.59-0.236-5.667-1.889-5.195-3.07c0.354-1.181,5.195,0.708,6.021,0.236
		c0-4.014,4.014-3.188,5.549-3.778c-0.118-0.118-0.354-0.354-0.354-0.354c-0.945-0.826-3.188,0.236-4.132,0.708
		c-2.361,1.299-6.021,0.354-8.501,0.118c-0.708,0.118-1.417,0.236-2.125,0.354c-0.59,0.118-2.597,0.708-2.834-0.236
		c-0.354-0.944,3.07-1.771,3.542-2.007c0.944-0.354,2.125-0.944,3.07-1.063c0.472-0.118,2.952-0.59,3.896-1.063
		c-1.181-0.472-4.604-0.118-5.667,0.118c-2.597,0.59-7.202,3.424-9.327,0.354c-2.007-2.952-7.674,0.118-8.973-0.354
		c-1.417-0.59-8.737-4.723-9.445-4.604c-0.59,0-3.07,0.472-3.188-0.472c-0.236-1.417,5.549-1.771,6.493-1.535
		c1.653,0.472,3.07,1.889,5.549,2.361c1.417,0.354,3.07,0.354,4.25-0.59c1.771-1.299,3.896-1.417,6.021-1.181
		c0.945,0.118,2.361,0.59,3.306,0.826c1.063-1.771,5.077-1.417,6.73-1.653c0.118,0,0.354-0.118,0.472-0.118
		c-1.181-0.59-4.604,0.118-5.549,0.472c-3.188,1.299-0.354-2.479-0.354-2.715c-0.118,0-0.236,0-0.236,0
		c-1.417,0-5.195,4.368-7.674,2.007c-0.59-0.59-1.299-1.063-2.007-1.417c-0.944-0.472-1.889-0.826-2.834-1.063
		c-0.236-0.118-0.59-0.236-0.944-0.354c-0.708-0.236-1.063-1.063-0.236-1.181c3.424-0.826,4.959-0.59,8.146-0.708
		c1.299-0.118,2.361-0.59,3.424-1.181c2.715-1.417,6.139-2.125,8.737-0.236c5.195,3.896,8.028,0.236,2.715-0.118
		c-0.708,0-3.306-0.118-3.306-1.299c0-2.125,7.202-1.771,8.973-1.181c1.063,0,2.834,0.236,4.014,0.118
		c-0.945-0.354-2.125-0.708-2.479-0.945c-1.889-1.889-10.154,1.417-13.695-0.354c-4.486-2.361,7.556-3.188,8.028-3.542
		c3.542-2.952,9.681-2.125,13.932-1.653c0.472-0.118,0.944-0.118,1.417-0.118h38.607c2.952,0,5.313,2.243,5.313,5.195v21.606
		c0,2.952-2.361,5.195-5.313,5.195H-332.94z M-366.352,240.142h8.146l0,0h30.46c2.597,0,4.723,2.125,4.723,4.723v21.606
		c0,2.597-2.125,4.723-4.723,4.723h-4.841c0.354-2.361-0.118-4.841-2.243-5.785c-2.952-1.417-5.903,1.299-7.084,3.778
		c-0.236,0.59-0.472,1.299-0.59,2.007h-11.216c0.354-2.243-0.118-4.841-2.243-5.785c-2.952-1.299-5.903,1.299-7.084,3.896
		c-0.236,0.59-0.472,1.417-0.59,2.125c-2.834,0.354-6.139,0-9.563-0.472c-2.597-0.472-7.438,0.944-8.146,0.708
		c-11.806-4.959,1.181-0.472,1.181-2.361c0-4.723,8.146-2.007,4.959-4.604c-0.118-0.118-1.535-1.063-4.723,0.708
		c-2.479,1.299-8.264,0-8.383,0c-1.181,0.236-8.501,1.771-1.063-0.826c1.181-0.354,2.125-0.826,2.952-0.945
		c9.091-1.771,2.479-3.07-2.007-2.125c-2.243,0.59-6.966,3.306-8.737,0.59c-2.243-3.188-8.501-0.236-9.209-0.59
		c-3.424-1.417-8.619-4.723-9.799-4.604c-6.493,0.708,1.299-1.417,3.306-0.826c0.59,0.118,6.612,4.368,10.272,1.653
		c3.424-2.597,9.327,0,9.327-0.354c0.472-1.771,4.723-1.299,6.493-1.535c3.424-0.59-0.945-2.597-5.431-0.708
		c-2.479,0.945,2.007-2.597-0.354-2.834c-1.535,0-5.195,4.132-7.32,2.125c-1.889-1.771-6.375-2.952-6.257-2.952
		c7.91-1.771,7.202,0.472,11.806-2.007c0.59-0.354,4.841-2.597,8.028-0.236c6.257,4.604,9.327-0.708,3.188-1.181
		c-7.202-0.472,1.181-2.834,5.431-1.299c3.424,0.118,4.132,0,4.132,0c4.132,0-2.125-1.771-2.125-1.771
		c-2.125-2.361-10.39,1.299-13.695-0.472c-3.188-1.653,6.966-1.653,8.028-2.597c3.07-2.715,8.264-2.125,13.695-1.535
		C-367.296,240.26-366.824,240.142-366.352,240.142z M-356.316,266.116c-2.007-0.944-4.723,0.59-6.021,3.424
		c-1.299,2.834-0.708,5.903,1.299,6.848c2.007,0.945,4.723-0.708,6.021-3.542C-353.719,270.012-354.309,267.06-356.316,266.116z
		 M-357.497,268.595c-1.063-0.472-2.361,0.354-3.07,1.771c-0.59,1.417-0.354,3.07,0.708,3.542c1.063,0.354,2.361-0.354,3.07-1.889
		C-356.198,270.602-356.434,269.067-357.497,268.595z M-335.183,266.116c-2.007-0.944-4.723,0.59-6.021,3.424
		s-0.708,5.903,1.299,6.848c2.007,0.945,4.723-0.708,6.021-3.542S-333.176,266.942-335.183,266.116z M-336.364,268.595
		c-0.944-0.472-2.361,0.354-3.07,1.771c-0.59,1.417-0.354,2.952,0.708,3.424s2.361-0.236,3.07-1.771
		C-335.065,270.602-335.301,269.067-336.364,268.595z M-351.358,245.455l15.821,9.563l-15.821,10.035V245.455z M-350.885,246.399
		v17.592l14.286-8.973L-350.885,246.399z M-357.733,269.067c-0.945-0.354-1.889,0.826-2.243,1.535
		c-0.354,0.708-0.59,2.361,0.354,2.715c0.944,0.472,1.889-0.708,2.243-1.417C-357.025,271.074-356.789,269.54-357.733,269.067z
		 M-336.6,269.067c-0.945-0.354-1.889,0.826-2.243,1.535c-0.354,0.708-0.59,2.243,0.354,2.715c0.945,0.472,2.007-0.708,2.243-1.535
		C-335.891,271.074-335.655,269.54-336.6,269.067z"/>
	<path fill-rule="evenodd" clip-rule="evenodd" d="M-450.531,146.399h28.217c2.597,0,4.841,2.125,4.841,4.841v14.05
		c0,2.715-2.243,4.841-4.841,4.841h-28.217c-2.597,0-4.841-2.125-4.841-4.841v-14.05
		C-455.372,148.524-453.129,146.399-450.531,146.399z M-435.301,152.775h2.597h0.118h9.917c0.945,0,1.535,0.708,1.535,1.535v7.202
		c0,0.826-0.59,1.535-1.535,1.535h-1.535c0.118-0.826,0-1.653-0.826-1.889c-0.945-0.472-1.889,0.354-2.243,1.181
		c-0.118,0.236-0.118,0.472-0.236,0.708h-3.66c0.118-0.826,0-1.653-0.826-1.889c-0.945-0.472-1.889,0.354-2.243,1.181
		c-0.118,0.236-0.236,0.472-0.236,0.826c-0.945,0.118-2.007,0-3.07-0.236c-0.945-0.118-2.479,0.354-2.715,0.236
		c-3.896-1.653,0.354-0.118,0.354-0.708c0-1.653,2.715-0.708,1.653-1.535c0-0.118-0.472-0.354-1.535,0.236
		c-0.826,0.354-2.715,0-2.834,0c-0.354,0-2.715,0.59-0.354-0.236c0.472-0.236,0.708-0.354,1.063-0.354
		c2.952-0.59,0.826-1.063-0.708-0.708c-0.708,0.118-2.243,1.063-2.834,0.118c-0.708-1.063-2.834,0-3.07-0.118
		c-1.063-0.472-2.834-1.535-3.188-1.535c-2.125,0.236,0.354-0.472,1.063-0.236c0.236,0,2.125,1.417,3.424,0.472
		c1.063-0.826,2.952,0,3.07-0.118c0.118-0.59,1.535-0.354,2.125-0.472c1.063-0.236-0.354-0.826-1.889-0.236
		c-0.708,0.354,0.708-0.826,0-0.945c-0.59,0-1.771,1.417-2.479,0.708c-0.59-0.59-2.007-0.945-2.007-0.945
		c2.597-0.59,2.361,0.118,3.896-0.708c0.118-0.118,1.535-0.826,2.597,0c2.007,1.417,3.07-0.354,1.063-0.472
		c-2.361-0.118,0.354-0.945,1.771-0.354c1.181,0,1.417,0,1.417,0c1.299,0-0.708-0.59-0.708-0.59
		c-0.708-0.826-3.424,0.354-4.604-0.236c-0.944-0.472,2.361-0.472,2.715-0.826c1.063-0.826,2.715-0.708,4.486-0.472
		C-435.655,152.893-435.537,152.775-435.301,152.775z M-428.217,163.991c-0.472,0-0.826,0-0.826,0.118c0,0,0.354,0,0.826,0
		c0.472,0,0.826,0,0.826,0C-427.391,163.991-427.745,163.991-428.217,163.991z M-435.183,163.991c-0.354,0-0.826,0.118-0.826,0.118
		s0.472,0,0.826,0c0.472,0,0.826,0,0.826,0S-434.711,163.991-435.183,163.991z M-435.419,164.463c-0.59,0-1.063,0-1.063,0
		c0,0.118,0.472,0.118,1.063,0.118c0.708,0,1.181,0,1.181-0.118C-434.238,164.463-434.711,164.463-435.419,164.463z
		 M-435.419,164.817c-1.063,0-1.889,0-1.889,0.118c0,0,0.826,0,1.889,0s1.889,0,1.889,0
		C-433.53,164.817-434.357,164.817-435.419,164.817z M-431.995,161.393c-0.708-0.354-1.535,0.118-2.007,1.063
		c-0.472,0.945-0.236,2.007,0.354,2.243c0.708,0.354,1.653-0.236,2.007-1.063C-431.169,162.692-431.405,161.629-431.995,161.393z
		 M-432.468,162.22c-0.236-0.236-0.708,0-0.945,0.59c-0.236,0.472-0.118,0.945,0.236,1.063c0.354,0.118,0.708-0.118,0.944-0.59
		C-431.995,162.81-432.113,162.338-432.468,162.22z M-428.453,164.463c-0.59,0-1.063,0-1.063,0c0,0.118,0.472,0.118,1.063,0.118
		c0.708,0,1.181,0,1.181-0.118C-427.273,164.463-427.745,164.463-428.453,164.463z M-428.453,164.817c-1.063,0-1.889,0-1.889,0
		c0,0.118,0.826,0.118,1.889,0.118s1.889,0,1.889-0.118C-426.564,164.817-427.391,164.817-428.453,164.817z M-425.03,161.393
		c-0.708-0.354-1.653,0.118-2.007,1.063c-0.472,0.945-0.236,2.007,0.354,2.243c0.708,0.354,1.535-0.236,2.007-1.181
		C-424.203,162.692-424.439,161.629-425.03,161.393z M-425.502,162.22c-0.354-0.236-0.708,0-0.945,0.472
		c-0.236,0.59-0.118,1.063,0.236,1.181c0.236,0.118,0.708-0.118,0.944-0.59C-425.03,162.81-425.148,162.338-425.502,162.22z
		 M-430.46,154.545l5.195,3.188l-5.195,3.306V154.545z"/>
	<path fill-rule="evenodd" clip-rule="evenodd" d="M-396.34-17.591c2.715,0,4.959,2.243,4.959,5.077
		c0,2.715-2.243,4.959-4.959,4.959c-1.299,0-3.66-0.118-4.959-0.354c-0.708-0.118-2.243,0.354-2.479,0.236c-0.118,0,0,0-0.708-0.354
		c-2.361-0.945,1.063-0.118,1.181-0.354c0.472-1.417,2.361-0.59,1.417-1.417c0-0.118-0.472-0.354-1.417,0.118
		c-0.826,0.472-2.597,0-2.597,0c-0.354,0.118-2.597,0.59-0.354-0.236c0.354-0.118,0.59-0.236,0.945-0.236
		c2.479-0.708,1.181-1.181-0.59-0.708c-0.708,0.236-2.243,1.063-2.715,0.236c-0.708-1.063-2.479-0.118-2.834-0.236
		c-1.299-0.236-2.361-1.535-3.07-1.417c-2.007,0.118,0.708-0.59,0.945-0.354c0.236,0.118,2.125,1.417,3.306,0.59
		c1.063-0.826,2.834,0,2.834-0.118c0.118-0.59,1.417-0.354,2.007-0.472c1.063-0.236,0.354-0.945-1.771-0.354
		c0,0-0.826,0.354-0.118,0c0.826-0.59,0.354-0.826,0-0.708c-0.472,0-1.535,1.181-2.125,0.59c-0.59-0.59-2.007-0.945-2.007-0.945
		c2.479-0.472,2.361,1.181,3.66-0.59c0.118-0.236,1.535-0.826,2.479-0.118c1.889,1.535,3.66-1.063,0.945-0.354
		c-1.535,0.472,0.826-1.063,1.771-0.59c0.826,0.236,1.181,0.236,1.181,0.236c1.181,0-0.59-0.472-0.59-0.472
		c-0.708-0.708-3.07,0-4.25-0.236c-1.889-0.354,2.479-0.59,2.479-0.826C-402.715-17.946-398.229-17.473-396.34-17.591z
		 M-397.166-10.035v-4.486l3.542,2.125L-397.166-10.035z"/>
	<path fill-rule="evenodd" clip-rule="evenodd" d="M-428.689,87.367c15.112,2.715,25.148,7.556,25.148,13.105
		c0,5.549-10.035,10.39-25.03,12.987c1.299-1.063,2.125-2.715,2.125-4.604V92.09C-426.446,90.201-427.273,88.548-428.689,87.367z
		 M-476.033,105.785c-9.563-0.472-21.842-4.841-21.842-5.431c0-0.59,12.279-5.077,21.724-5.431l0.118,0.118
		c0.944,1.181,1.181,3.778,1.181,5.313S-475.089,104.486-476.033,105.785z M-461.629,123.967c9.799-1.063,17.71-4.959,21.842-9.917
		h7.202c2.952,0,5.195-2.361,5.195-5.195V92.09c0-2.834-2.243-5.195-5.195-5.195h-7.32c-4.014-4.25-11.924-7.674-21.724-8.619
		c-9.327-0.945-18.3,0.59-24.203,3.778c1.889,0,3.896,0,5.903,0.236c6.493,0.59,12.161,2.361,16.411,4.604
		c-2.834,0-5.195,2.361-5.195,5.195v16.765c0,2.834,2.361,5.195,5.195,5.195h0.118c-4.368,2.715-10.035,4.604-16.529,5.313
		c-2.007,0.236-4.014,0.354-5.903,0.354C-479.811,123.259-470.956,125.03-461.629,123.967z M-475.325,94.451h5.785v11.924h-5.785
		v-0.118c0.826-1.063,1.299-3.306,1.299-5.903C-474.026,97.875-474.498,95.632-475.325,94.451L-475.325,94.451z M-463.518,88.666
		h30.933c1.889,0,3.424,1.535,3.424,3.424v16.765c0,1.889-1.535,3.424-3.424,3.424h-30.933c-1.889,0-3.424-1.535-3.424-3.424V92.09
		C-466.942,90.201-465.407,88.666-463.518,88.666z M-451.476,104.604v4.014l11.216-8.028l-11.216-8.146v4.132V104.604z
		 M-449.705,105.195l6.493-4.604l-6.493-4.723V105.195z"/>
	<path fill-rule="evenodd" clip-rule="evenodd" d="M-459.032,207.438h-3.07v-0.236c-0.945,0-1.889-0.118-2.834-0.354
		c-0.826-0.118-7.556-1.535-7.556-2.597c0-1.181,6.73-2.479,7.556-2.715c0.944-0.118,1.889-0.236,2.834-0.354v-0.118h3.07v-0.708
		c0-1.063,0.708-2.007,1.535-2.479c-1.889-0.826-4.132-1.299-6.257-1.535c-0.945-0.118-1.771-0.118-2.715-0.118h-2.007l1.771-0.945
		c3.424-1.653,7.792-2.125,11.57-1.771c3.306,0.354,7.674,1.535,10.153,4.014h3.188c0.118,0,0.118,0,0.236,0l-0.118-0.118
		l1.771,0.354c2.952,0.472,12.043,2.479,12.043,6.493c0,4.132-9.091,6.021-12.043,6.494l-1.653,0.354v-0.118c0,0-0.118,0-0.236,0
		h-3.188c-2.361,2.834-6.612,4.25-10.153,4.723c-3.778,0.354-8.264-0.118-11.57-2.125l-1.535-0.945l1.771,0.118
		c0.945,0,1.771-0.118,2.715-0.118c2.125-0.354,4.368-0.826,6.375-1.889c-0.944-0.472-1.653-1.417-1.653-2.597V207.438z
		 M-440.024,198.229c6.966,1.181,11.688,3.424,11.688,6.021c0,2.597-4.723,4.841-11.57,6.021c0.59-0.472,0.945-1.299,0.945-2.125
		v-7.792C-438.961,199.528-439.315,198.701-440.024,198.229z M-461.865,206.73c-4.486-0.236-10.153-2.243-10.153-2.479
		c0-0.236,5.667-2.361,10.035-2.597l0.118,0.118c0.354,0.59,0.472,1.771,0.472,2.479
		C-461.393,204.959-461.511,206.139-461.865,206.73z M-455.254,215.23c4.604-0.59,8.264-2.361,10.153-4.723h3.306
		c1.299,0,2.361-1.063,2.361-2.361v-7.792c0-1.299-1.063-2.361-2.361-2.361h-3.424c-1.889-2.007-5.549-3.542-10.035-4.014
		c-4.368-0.354-8.383,0.354-11.216,1.771c0.945,0,1.889,0,2.715,0.118c3.07,0.236,5.667,1.063,7.674,2.125
		c-1.417,0-2.479,1.063-2.479,2.361v7.792c0,1.299,1.063,2.361,2.479,2.361l0,0c-2.007,1.299-4.604,2.243-7.674,2.597
		c-0.826,0-1.771,0.118-2.715,0.118C-463.636,214.876-459.504,215.702-455.254,215.23z M-461.629,201.535h2.715v5.431h-2.715l0,0
		c0.472-0.472,0.708-1.535,0.708-2.715C-460.921,203.07-461.157,202.007-461.629,201.535L-461.629,201.535z M-456.08,198.819h14.286
		c0.945,0,1.653,0.708,1.653,1.535v7.792c0,0.945-0.708,1.653-1.653,1.653h-14.286c-0.945,0-1.653-0.708-1.653-1.653v-7.792
		C-457.733,199.528-457.025,198.819-456.08,198.819z M-450.531,206.257v1.771l5.195-3.66l-5.195-3.778v1.889V206.257z
		 M-449.705,206.494l2.952-2.125l-2.952-2.243V206.494z M-456.08,199.292c-0.708,0-1.181,0.472-1.181,1.063v7.792
		c0,0.59,0.59,1.181,1.181,1.181h14.286c0.59,0,1.181-0.59,1.181-1.181v-7.792c0-0.59-0.59-1.063-1.181-1.063H-456.08z
		 M-451.004,208.973v-9.327l6.493,4.723L-451.004,208.973z M-449.233,205.549l1.653-1.181l-1.653-1.299V205.549z"/>
	<path fill-rule="evenodd" clip-rule="evenodd" d="M-490.437,252.066c9.327,0,16.883,7.32,16.883,16.411
		s-7.556,16.411-16.883,16.411c-9.327,0-16.765-7.32-16.765-16.411S-499.764,252.066-490.437,252.066z M-483.943,265.053
		c4.604,0.826,7.674,2.361,7.674,4.014c0,1.771-3.07,3.306-7.674,4.132c0.354-0.354,0.59-0.945,0.59-1.535v-5.195
		C-483.353,265.88-483.589,265.407-483.943,265.053z M-498.583,270.72c-2.834-0.118-6.612-1.417-6.612-1.653
		c0-0.236,3.778-1.535,6.612-1.771v0.118c0.354,0.354,0.472,1.181,0.472,1.653S-498.229,270.366-498.583,270.72z M-494.097,276.387
		c2.952-0.236,5.431-1.535,6.73-3.07h2.243c0.826,0,1.535-0.708,1.535-1.653v-5.195c0-0.945-0.708-1.653-1.535-1.653h-2.361
		c-1.181-1.299-3.66-2.361-6.612-2.597c-2.834-0.354-5.667,0.118-7.438,1.063c0.59,0,1.181,0.118,1.771,0.118
		c2.007,0.236,3.778,0.708,5.077,1.417c-0.826,0-1.653,0.708-1.653,1.653v5.195c0,0.945,0.826,1.653,1.653,1.653l0,0
		c-1.299,0.826-3.07,1.417-5.077,1.653c-0.59,0.118-1.181,0.118-1.771,0.118C-499.764,276.269-496.93,276.741-494.097,276.387z
		 M-498.347,267.178h1.771v3.778h-1.771l0,0c0.236-0.354,0.472-1.063,0.472-1.889S-498.111,267.532-498.347,267.178
		L-498.347,267.178z M-494.687,265.407h9.563c0.59,0,0.944,0.472,0.944,1.063v5.195c0,0.59-0.354,1.063-0.944,1.063h-9.563
		c-0.59,0-1.063-0.472-1.063-1.063v-5.195C-495.75,265.88-495.277,265.407-494.687,265.407z M-491.027,270.366v1.299l3.542-2.597
		l-3.542-2.479v1.299V270.366z M-490.437,270.602l2.007-1.535l-2.007-1.417V270.602z"/>
	<path fill-rule="evenodd" clip-rule="evenodd" d="M-339.906-76.978h24.911c2.243,0,4.132,1.771,4.132,4.132v13.459
		c0,2.243-1.889,4.132-4.132,4.132h-24.911c-2.243,0-4.132-1.889-4.132-4.132v-13.459
		C-344.038-75.207-342.149-76.978-339.906-76.978z M-339.906-75.561h24.911c1.417,0,2.715,1.181,2.715,2.715v13.459
		c0,1.417-1.299,2.715-2.715,2.715h-24.911c-1.535,0-2.715-1.299-2.715-2.715v-13.459C-342.621-74.38-341.44-75.561-339.906-75.561z
		 M-330.224-62.81v3.188l8.973-6.494l-8.973-6.494v3.306V-62.81z M-328.808-62.338l5.195-3.778l-5.195-3.66V-62.338z"/>
	<path fill-rule="evenodd" clip-rule="evenodd" d="M-472.609-37.308c0.118-0.354,0.236-0.945,0.236-1.299l0,0
		c0,0.472-2.597,0.354-2.952,0.354c-0.236,0-2.834,0.118-2.834-0.354c0-0.472,2.597-0.472,2.834-0.472c0.354,0,2.952,0,2.952,0.472
		c0-0.472-0.118-1.181-0.354-1.653h-0.118v-0.118h1.889v3.542h-1.889v-0.118l0.118-0.118
		C-472.727-37.072-472.609-37.19-472.609-37.308c-0.118,0.354-1.771,0.354-2.007,0.354c-0.354,0-2.125,0-2.125-0.354
		c0-0.472,1.771-0.472,2.125-0.472C-474.38-37.78-472.609-37.78-472.609-37.308L-472.609-37.308z M-459.74-42.267
		c3.896,0.826,6.493,2.125,6.493,3.66c0,1.417-2.597,2.715-6.493,3.542c0.354-0.236,0.59-0.59,0.59-1.063v-4.959
		C-459.15-41.558-459.386-42.031-459.74-42.267z M-474.616-37.662c1.063,0,1.889,0.118,1.889,0.354c0,0.118-0.826,0.236-1.889,0.236
		c-1.181,0-2.007-0.118-2.007-0.236C-476.623-37.544-475.797-37.662-474.616-37.662z M-474.616-40.142
		c1.063,0,1.889,0.118,1.889,0.354c0,0.118-0.826,0.236-1.889,0.236c-1.063,0-2.007-0.118-2.007-0.236
		C-476.623-40.024-475.679-40.142-474.616-40.142z M-475.325-38.843c1.535,0,2.834,0.118,2.834,0.236
		c0,0.118-1.299,0.236-2.834,0.236c-1.417,0-2.715-0.118-2.715-0.236C-478.04-38.725-476.741-38.843-475.325-38.843z
		 M-472.609-40.26h1.535v3.306h-1.535l0,0c0.118-0.354,0.354-0.945,0.354-1.653C-472.255-39.315-472.491-40.024-472.609-40.26
		L-472.609-40.26z M-469.185-31.877c2.834-0.354,5.077-1.535,6.139-2.952h-6.612c-1.181,0.826-2.834,1.417-4.723,1.653
		c-0.59,0-1.181,0-1.653,0C-474.38-32.113-471.901-31.641-469.185-31.877z M-469.185-44.864c2.715,0.236,4.959,1.181,6.139,2.361
		h-6.612h-0.118c-1.181-0.59-2.834-1.063-4.604-1.299c-0.59,0-1.181,0-1.653,0C-474.38-44.746-471.901-45.1-469.185-44.864z
		 M-469.658-42.149h9.091c0.59,0,1.063,0.472,1.063,1.063v4.959c0,0.472-0.472,0.945-1.063,0.945h-9.091
		c-0.59,0-1.063-0.472-1.063-0.945v-4.959C-470.72-41.677-470.248-42.149-469.658-42.149z M-466.116-37.662v0.945l2.479-1.889
		l-2.479-1.771v0.945V-37.662z M-459.74-42.385c1.535,0.354,6.73,1.535,6.73,3.778c0,2.243-5.077,3.306-6.73,3.66l-0.59,0.118
		l0.472-0.354c0.354-0.236,0.59-0.59,0.59-0.945v-4.959c0-0.472-0.236-0.826-0.59-1.063l-0.59-0.354L-459.74-42.385z
		 M-474.616-40.26c0.236,0,2.007,0,2.007,0.472c0,0.354-1.771,0.354-2.007,0.354c-0.354,0-2.125,0-2.125-0.354
		C-476.741-40.26-474.97-40.26-474.616-40.26z M-469.185-31.759c-2.243,0.236-4.959-0.118-6.966-1.299l-0.354-0.236h0.472
		c0.472,0,1.063,0,1.653-0.118c1.535-0.118,3.306-0.59,4.604-1.535h0.118h6.966l-0.236,0.236
		C-464.345-32.94-466.942-31.995-469.185-31.759z M-469.185-44.982c2.007,0.118,4.723,0.826,6.257,2.479l0.118,0.118h-6.848h-0.118
		l0,0h-0.118c-1.299-0.708-2.952-1.063-4.486-1.299c-0.59,0-1.181,0-1.653,0h-0.59l0.472-0.236
		C-474.144-44.982-471.429-45.218-469.185-44.982z M-469.658-42.267h9.091c0.708,0,1.181,0.59,1.181,1.181v4.959
		c0,0.59-0.472,1.063-1.181,1.063h-9.091c-0.59,0-1.181-0.472-1.181-1.063v-4.959C-470.838-41.677-470.248-42.267-469.658-42.267z
		 M-465.998-36.954l2.125-1.653l-2.125-1.535V-36.954z"/>
	<path fill-rule="evenodd" clip-rule="evenodd" d="M-428.926,303.424c4.368,0.708,7.202,2.125,7.202,3.66
		c0,1.653-2.834,2.952-7.084,3.778c0.354-0.354,0.59-0.826,0.59-1.299v-4.841C-428.217,304.25-428.453,303.66-428.926,303.424z
		 M-444.274,308.146c1.181,0,2.007,0.118,2.007,0.236c0,0.118-0.826,0.236-2.007,0.236c-1.063,0-1.889-0.118-1.889-0.236
		C-446.163,308.264-445.336,308.146-444.274,308.146z M-444.156,305.667c1.063,0,1.889,0.118,1.889,0.236
		c0,0.118-0.826,0.236-1.889,0.236c-1.181,0-2.007-0.118-2.007-0.236C-446.163,305.785-445.336,305.667-444.156,305.667z
		 M-444.864,306.848c1.535,0,2.834,0.118,2.834,0.236c0,0.236-1.299,0.354-2.834,0.354s-2.715-0.118-2.715-0.354
		C-447.58,306.966-446.399,306.848-444.864,306.848z M-438.253,313.813c2.715-0.236,5.077-1.417,6.257-2.834h2.007
		c0.826,0,1.535-0.59,1.535-1.417v-4.841c0-0.826-0.708-1.417-1.535-1.417h-2.125c-1.063-1.299-3.424-2.243-6.139-2.479
		c-2.715-0.236-5.195,0.118-6.966,1.063c0.59,0,1.181,0,1.653,0c1.889,0.236,3.542,0.708,4.723,1.417
		c-0.826,0-1.417,0.59-1.417,1.417v4.841c0,0.826,0.59,1.417,1.417,1.417l0,0c-1.181,0.826-2.834,1.417-4.604,1.535
		c-0.59,0.118-1.181,0.118-1.771,0.118C-443.447,313.695-440.968,314.168-438.253,313.813z M-442.149,305.431h1.535v3.424h-1.535
		l0,0c0.236-0.354,0.354-1.063,0.354-1.771S-441.913,305.785-442.149,305.431L-442.149,305.431z M-438.843,303.778h8.855
		c0.59,0,0.944,0.472,0.944,0.945v4.841c0,0.472-0.354,0.945-0.944,0.945h-8.855c-0.472,0-0.944-0.472-0.944-0.945v-4.841
		C-439.787,304.25-439.315,303.778-438.843,303.778z M-435.419,308.264v1.181l3.306-2.243l-3.306-2.361v1.181V308.264z
		 M-434.947,308.501l1.889-1.299l-1.889-1.417V308.501z"/>
	<path fill-rule="evenodd" clip-rule="evenodd" d="M-446.281,340.732c6.375,0,11.57,5.077,11.57,11.334
		c0,6.375-5.195,11.452-11.57,11.452c-6.493,0-11.57-5.077-11.57-11.452C-457.851,345.809-452.775,340.732-446.281,340.732z
		 M-441.677,348.996c3.424,0.59,5.667,1.653,5.667,2.952s-2.243,2.361-5.667,2.952c0.236-0.236,0.472-0.59,0.472-1.063v-3.778
		C-441.204,349.587-441.44,349.233-441.677,348.996z M-453.955,352.775c0.826,0,1.535,0,1.535,0.118
		c0,0.236-0.708,0.236-1.535,0.236s-1.535,0-1.535-0.236C-455.49,352.775-454.782,352.775-453.955,352.775z M-453.955,350.767
		c0.826,0,1.535,0.118,1.535,0.236s-0.708,0.236-1.535,0.236s-1.535-0.118-1.535-0.236S-454.782,350.767-453.955,350.767z
		 M-454.427,351.712c1.181,0,2.243,0.118,2.243,0.236s-1.063,0.236-2.243,0.236s-2.243-0.118-2.243-0.236
		S-455.608,351.712-454.427,351.712z M-449.233,357.261c2.243-0.236,4.014-1.063,4.959-2.243h1.653c0.708,0,1.181-0.472,1.181-1.181
		v-3.778c0-0.708-0.472-1.181-1.181-1.181h-1.653c-0.944-0.944-2.715-1.771-4.959-2.007c-2.125-0.118-4.132,0.236-5.549,0.945
		c0.472-0.118,0.945,0,1.417,0c1.417,0.118,2.715,0.472,3.66,1.063c-0.59,0-1.181,0.472-1.181,1.181v3.778
		c0,0.708,0.59,1.181,1.181,1.181h0.118c-1.063,0.59-2.361,1.063-3.778,1.299c-0.472,0-0.945,0-1.417,0
		C-453.365,357.143-451.358,357.615-449.233,357.261z M-452.302,350.531h1.299v2.715h-1.299l0,0
		c0.118-0.236,0.236-0.708,0.236-1.299c0-0.59-0.118-1.063-0.236-1.299V350.531z M-449.705,349.233h7.084
		c0.472,0,0.826,0.354,0.826,0.826v3.778c0,0.472-0.354,0.826-0.826,0.826h-7.084c-0.354,0-0.708-0.354-0.708-0.826v-3.778
		C-450.413,349.587-450.059,349.233-449.705,349.233z M-446.871,352.893v0.944l2.479-1.889l-2.479-1.771v0.826V352.893z
		 M-446.517,353.011l1.535-1.063l-1.535-1.063V353.011z"/>
	<path fill-rule="evenodd" clip-rule="evenodd" d="M-347.462-35.065h24.911c2.243,0,4.132,1.889,4.132,4.132v13.459
		c0,2.243-1.889,4.132-4.132,4.132h-24.911c-2.243,0-4.132-1.889-4.132-4.132v-13.459
		C-351.594-33.176-349.705-35.065-347.462-35.065z M-347.462-33.648h24.911c1.535,0,2.715,1.181,2.715,2.715v13.459
		c0,1.417-1.181,2.715-2.715,2.715h-24.911c-1.417,0-2.715-1.299-2.715-2.715v-13.459
		C-350.177-32.468-348.878-33.648-347.462-33.648z M-337.78-20.897v3.188l9.091-6.494l-9.091-6.375v3.188V-20.897z M-336.364-20.425
		l5.195-3.778l-5.195-3.66V-20.425z"/>
	<path fill-rule="evenodd" clip-rule="evenodd" d="M-356.907-29.044h4.604v9.445h-4.604l0,0c0.708-0.826,1.181-2.597,1.181-4.723
		C-355.726-26.328-356.198-28.099-356.907-29.044L-356.907-29.044z"/>
	<path fill-rule="evenodd" clip-rule="evenodd" d="M-345.809-42.031c8.264,0.826,14.994,3.896,17.946,7.674h-18.3
		c-3.542-2.243-8.501-3.896-14.404-4.486c-1.535-0.118-3.188-0.236-4.723-0.118C-360.449-41.44-353.365-42.739-345.809-42.031z"/>
	<path fill-rule="evenodd" clip-rule="evenodd" d="M-345.809-5.431c8.264-0.826,14.994-4.368,18.064-8.737h-18.418
		c-3.424,2.597-8.501,4.486-14.286,5.077c-1.653,0.236-3.306,0.236-4.841,0.236C-360.449-5.903-353.365-4.486-345.809-5.431z"/>
	<path fill-rule="evenodd" clip-rule="evenodd" d="M-319.481-34.711c12.043,2.125,20.071,6.021,20.071,10.508
		c0,4.368-8.028,8.264-20.071,10.39c1.063-0.826,1.771-2.243,1.771-3.66v-13.459C-317.71-32.468-318.418-33.766-319.481-34.711z"/>
	<ellipse fill-rule="evenodd" clip-rule="evenodd" cx="-364.227" cy="-24.321" rx="7.792" ry="0.826"/>
	<ellipse fill-rule="evenodd" clip-rule="evenodd" cx="-362.456" cy="-27.745" rx="5.431" ry="0.826"/>
	<ellipse fill-rule="evenodd" clip-rule="evenodd" cx="-362.574" cy="-20.779" rx="5.431" ry="0.826"/>
	<path fill-rule="evenodd" clip-rule="evenodd" d="M-420.661,3.542c15.466,3.07,25.738,8.264,25.738,14.05
		c0,5.903-10.035,10.98-25.502,14.05c1.417-0.945,2.243-2.597,2.243-4.25V8.028C-418.182,6.139-419.126,4.486-420.661,3.542z
		 M-478.63,21.606c4.132,0,7.556,0.472,7.556,1.063s-3.424,1.063-7.556,1.063c-4.25,0-7.556-0.472-7.556-1.063
		S-482.881,21.606-478.63,21.606z M-478.63,12.043c4.132,0,7.556,0.472,7.556,1.063s-3.424,1.063-7.556,1.063
		s-7.556-0.472-7.556-1.063S-482.763,12.043-478.63,12.043z M-480.992,16.647c5.903,0,10.626,0.472,10.626,1.063
		c0,0.59-4.723,1.063-10.626,1.063c-6.021,0-10.744-0.472-10.744-1.063C-491.736,17.119-487.013,16.647-480.992,16.647z
		 M-470.838,11.216h6.375v13.105h-6.375l0,0c0.826-1.299,1.535-3.778,1.535-6.612C-469.303,14.876-470.012,12.397-470.838,11.216
		L-470.838,11.216z M-457.261,43.802c10.862-1.181,19.717-5.549,24.203-11.098h-26.092c-4.723,3.07-11.098,5.195-18.418,6.021
		c-2.243,0.236-4.486,0.354-6.612,0.354C-477.568,43.093-467.651,44.982-457.261,43.802z M-457.379-6.73
		c10.744,1.063,19.481,4.723,23.967,9.445h-25.738c-0.118,0-0.354,0-0.472,0c-4.723-2.479-10.862-4.368-17.946-5.077
		c-2.243-0.236-4.486-0.236-6.612-0.236C-477.568-6.021-467.769-7.792-457.379-6.73z M-459.15,4.132h35.655
		c2.125,0,3.896,1.771,3.896,3.896v19.362c0,2.125-1.771,3.896-3.896,3.896h-35.655c-2.125,0-3.896-1.771-3.896-3.896V8.028
		C-463.046,5.903-461.275,4.132-459.15,4.132z M-445.336,21.488v3.542l9.799-7.084l-9.799-6.966v3.542V21.488z"/>
	<path fill-rule="evenodd" clip-rule="evenodd" d="M50.531,1.417c27.037,0,48.996,21.251,48.996,47.58s-21.96,47.698-48.996,47.698
		S1.535,75.325,1.535,48.996S23.495,1.417,50.531,1.417z M71.429,35.183c14.286,2.834,23.613,7.556,23.613,12.987
		c0,5.313-9.209,10.035-23.377,12.869c1.181-0.945,2.007-2.361,2.007-4.014v-17.71C73.672,37.544,72.727,36.009,71.429,35.183z
		 M17.946,51.83c3.896,0,6.966,0.354,6.966,0.945c0,0.59-3.07,0.945-6.966,0.945c-3.778,0-6.966-0.354-6.966-0.945
		C10.98,52.184,14.168,51.83,17.946,51.83z M18.064,42.975c3.778,0,6.966,0.472,6.966,0.945c0,0.59-3.188,1.063-6.966,1.063
		c-3.896,0-6.966-0.472-6.966-1.063C11.098,43.447,14.168,42.975,18.064,42.975z M15.821,47.226c5.431,0,9.799,0.472,9.799,1.063
		c0,0.472-4.368,0.945-9.799,0.945s-9.917-0.472-9.917-0.945C5.903,47.698,10.39,47.226,15.821,47.226z M25.148,42.149h5.903v12.161
		h-5.903l0,0c0.826-1.181,1.417-3.424,1.417-6.021c0-2.597-0.59-4.959-1.417-6.021V42.149z M37.662,72.255
		c10.035-1.063,18.182-5.077,22.314-10.272H36.009c-4.486,2.834-10.272,4.841-17.001,5.667c-2.125,0.236-4.132,0.236-6.139,0.236
		C19.008,71.547,28.099,73.318,37.662,72.255z M37.662,25.738c9.799,0.945,17.828,4.368,22.078,8.737H35.891
		c-0.118,0-0.236,0-0.354,0c-4.368-2.361-10.035-4.014-16.529-4.723c-2.125-0.236-4.132-0.236-6.139-0.236
		C19.008,26.328,28.099,24.793,37.662,25.738z M35.891,35.655h32.94c1.889,0,3.542,1.653,3.542,3.66v17.71
		c0,2.007-1.653,3.66-3.542,3.66h-32.94c-1.889,0-3.542-1.653-3.542-3.66v-17.71C32.349,37.308,34.002,35.655,35.891,35.655z
		 M48.642,51.712V54.9l8.973-6.375l-8.973-6.494v3.188V51.712z"/>
</g>
</svg>
