<svg height='100px' width='100px'  fill="#000000" xmlns="http://www.w3.org/2000/svg" xmlns:xlink="http://www.w3.org/1999/xlink" version="1.1" x="0px" y="0px" viewBox="0 0 64 64" enable-background="new 0 0 64 64" xml:space="preserve"><path d="M55.496,28.776c-0.289-0.702-0.726-1.275-1.262-1.733c1.08-2.015,2.855-5.358,1.452-7.936  c-0.425-0.782-1.092-1.376-1.976-1.792c0.371-0.605,0.586-1.266,0.47-1.98c-0.271-1.68-1.974-2.326-3.62-2.951  c-1.065-0.405-1.953-0.773-2.434-1.193c1.96-0.919,3.324-2.907,3.324-5.211c0-3.175-2.583-5.758-5.758-5.758  c-3.176,0-5.759,2.583-5.759,5.758c0,1.675,0.723,3.18,1.868,4.233c-12.24,3.55-29.918,9.763-30.508,22.06  c-2.157,2.164-3.458,4.594-3.489,7.341c-0.001,0.021-0.003,0.041-0.004,0.063c0,0.013-0.002,0.025-0.002,0.039  c0,0.035,0.008,0.067,0.01,0.102c0.004,0.055,0.006,0.109,0.017,0.164c0.01,0.054,0.026,0.105,0.041,0.157  c0.01,0.033,0.014,0.067,0.026,0.101L16.3,62.803c0.002,0.007,0.008,0.013,0.011,0.02c0.05,0.128,0.118,0.246,0.2,0.354  c0.018,0.023,0.037,0.046,0.057,0.068c0.084,0.1,0.177,0.19,0.284,0.265c0.004,0.003,0.007,0.006,0.01,0.009  c0.109,0.074,0.232,0.13,0.359,0.174c0.028,0.01,0.056,0.018,0.084,0.026c0.128,0.035,0.261,0.061,0.401,0.061h26.291  c0.14,0,0.272-0.025,0.4-0.061c0.029-0.009,0.057-0.017,0.085-0.026c0.127-0.044,0.249-0.1,0.358-0.174  c0.004-0.003,0.008-0.007,0.012-0.009c0.106-0.075,0.199-0.166,0.283-0.265c0.02-0.022,0.038-0.044,0.057-0.068  c0.082-0.108,0.149-0.228,0.2-0.356c0.002-0.006,0.008-0.011,0.01-0.018l8.389-22.517C54.21,39.356,57.104,32.675,55.496,28.776z   M42.956,60.779H18.748l-7.289-19.564h38.785L42.956,60.779z M13.578,34.158c0.133-0.086,0.248-0.195,0.347-0.318  c6.513-5.962,21.787-10.052,31.853-12.743c1.927-0.515,3.695-0.989,5.246-1.43c0.713,0.082,1.715,0.298,2.028,0.875  c0.637,1.169-0.847,3.937-1.48,5.119c-0.177,0.33-0.33,0.621-0.454,0.891c-7.479,3.079-16.622,4.416-24.731,5.586  c-5.371,0.775-9.998,1.444-13.292,2.523C13.25,34.492,13.407,34.324,13.578,34.158z M51.411,38.215H12.183  c2.708-1.385,8.954-2.288,14.632-3.107c8.294-1.198,17.65-2.566,25.477-5.796c0.179,0.151,0.321,0.345,0.43,0.607  C53.487,31.773,52.433,35.66,51.411,38.215z M45.693,3.221c1.521,0,2.758,1.237,2.758,2.758c0,1.521-1.237,2.759-2.758,2.759  c-1.521,0-2.759-1.238-2.759-2.759C42.935,4.458,44.172,3.221,45.693,3.221z M45.224,12.359c0.895,1.545,2.854,2.29,4.271,2.828  c0.504,0.192,1.212,0.46,1.59,0.68c-0.136,0.184-0.413,0.492-0.918,0.923c-1.528,0.435-3.269,0.901-5.164,1.408  c-9.566,2.558-22.283,5.963-30.098,11.167C17.888,21.348,30.949,16.418,45.224,12.359z"></path></svg>