<svg height='100px' width='100px'  fill="#000000" xmlns="http://www.w3.org/2000/svg" xmlns:xlink="http://www.w3.org/1999/xlink" version="1.1" x="0px" y="0px" viewBox="0 0 1000 1000" style="enable-background:new 0 0 1000 1000;" xml:space="preserve"><g><path d="M194.4,352.9c21.4-28.5-22.2-56.8-46.3-35.3C128.6,335.1,171.7,383.2,194.4,352.9z"></path><path d="M564.7,232.2c16-24.4-21-58.3-43.1-38.6C498.1,214.8,544.1,263.5,564.7,232.2z"></path><path d="M332.8,624.4c-23.8,21.3,4.4,66,28.4,44.5C383.9,651.8,353.3,606,332.8,624.4z"></path><path d="M425.1,182.3c-22-26.1-57.7,8.4-36.8,32.5C405,237.4,446.4,207.6,425.1,182.3z"></path><path d="M774.1,726.8c27.3-19.1-12.1-50.6-30.2-34.3c-4.6,4.2-2.2,17.3-2.1,23.6C742.1,734.3,763,734.6,774.1,726.8z"></path><path d="M622.3,338.3c-12.1-21.4-52.5-4-32.3,16.1C603.3,370.8,635.1,360.8,622.3,338.3z"></path><path d="M279.4,774.6c-22.5,20.2,29.9,41.2,34.2,8.9C317.1,756.9,291,764.3,279.4,774.6z"></path><path d="M473.1,755.8c-17.1,15.4,20.8,16.6,30.2,8.1C523.8,745.6,485.1,745,473.1,755.8z"></path><path d="M610,511.4c-12,10.7-10.4,72.4,11.7,66.7C638.8,573.6,630,493.5,610,511.4z"></path><path d="M775.1,802.3c-32.6-8.4-65.2-26.4-94.6-42.6c-12.2-6.7-40-11-30.6-31.5c6.4-13.9,8.7-29,14.3-43.2   c10.2-25.9,20.9-49.1,25.1-77.1c6.4-42.3,1.4-86.7-9.1-128c-5.6-21.9-18.2-59.8-43.7-64.6c-68.2-12.7-88,77.7-93.5,130.4   c-6.7,63.8,52.4,148.9,44.1,154.4c-15,10-95.3-84-104.3-93.5c-13.9-19.2,20.5-74.4,27.7-88.4c15.1-29.2,20.4-66.8,24.6-99.2   c4.7-36.7,5.2-93.7-27.6-119.9c-24.4-19.5-58.9-15.3-76.6,12.8c-22.3,35.2-29.6,54.6-27.3,94.6c2,35.9,33.4,109.1,29.5,120.5   c-10-11.5-62.5-111.2-65.1-117.4c-6.8-16.4-4-40.5-7-58.4c-3.7-22.3-8.3-44.4-11.9-66.7c-8.7-53.4-32.6-193.5-106.5-194.9   c-60.7-1.2-25.2,102.6-15,130.4c15.3,41.7,35.6,91.6,65,125c12.9,14.6,38.2,21,49.5,36.4c7.2,9.8,11.7,25.6,16.9,36.9   c8.4,18.3,17.9,39.3,27.1,57.1c9.2,18,47.6,68.2,36.2,64.9c-25.3-7.3-84.8-71.4-107.9-83.7c-36.3-19.4-147.3-56.6-157.1,9.3   c-12.9,86.5,117.8,113,176.7,125.7c38.1,8.2,66.7,6.1,104.9,9.9c35.2,3.5,55.6,45.1,91.7,73.7c116.8,92.4,1,31.6-66.8,29.3   c-30.5-1-73.3,22.1-93.5,45.5c-28.1,32.5-16.8,75.2,15.8,100.3c26.9,20.8,57,26.8,90.7,22.5c41.6-5.3,73.9-33.6,101.2-62.9   c16.2-17.4,35.3-49.6,62.8-49.6c36.9,0,68.2,37.7,104.2,44.2c19,3.4,37.6,11,56.7,15.2c10.6,2.3,45.8,10.7,55.1,2.4   C855.1,810,789.2,806,775.1,802.3z M291.8,204.2c-15.2,12-36.8-37.1-32.2-48.8C267.3,135.2,299.1,187.3,291.8,204.2z M279.2,490.9   c-8.6,7.8-51.4-12.8-42-21.3C242.4,465,295.3,476.5,279.2,490.9z M468.6,351.5c16.1-32,29.3,46,16.7,57.4   C461.3,430.3,462,364.6,468.6,351.5z M518.8,767.2c-14.7,13.2-90.3,33.5-85.2-5.2c1.6-11.9,41.1-23.3,51.2-25.4   C499,733.6,541.8,746.6,518.8,767.2z M635.1,611c-17.7,15.9-66.5-82.3-36-109.9c30.5-27.3,38.9,12,39.6,35.4   C639.1,552.1,649,598.5,635.1,611z"></path></g></svg>