<?xml version="1.0" encoding="utf-8"?>
<!-- Generator: Adobe Illustrator 24.2.1, SVG Export Plug-In . SVG Version: 6.00 Build 0)  -->
<svg version="1.1" id="Layer_1" xmlns="http://www.w3.org/2000/svg" xmlns:xlink="http://www.w3.org/1999/xlink" x="0px" y="0px"
	 viewBox="0 0 100 100" enable-background="new 0 0 100 100" xml:space="preserve">
<g>
	<path d="M31.051,66.588h3.07c-0.354-4.604-0.118-8.028,1.299-12.279L49.823,67.06h22.668c0.708-9.445-7.202-11.334-14.994-11.57
		c-0.118,0.118-0.354,0.354-0.472,0.472c-1.535,1.417-3.778,1.417-5.195-0.118l-21.251-22.55c-3.896,4.723-3.66,8.973-1.653,14.404
		C30.46,53.247,30.933,60.685,31.051,66.588z M27.981,47.934c-2.361-6.139-1.771-10.98,2.597-15.939l21.96,23.259
		c1.417,1.535,3.424,0.945,4.486-0.708c9.209,0.236,17.355,2.597,16.175,13.459H49.469L35.891,55.844
		c-1.181,3.896-1.181,7.556-0.708,11.57h-5.077C29.988,60.921,29.516,54.427,27.981,47.934z"/>
</g>
</svg>
