<svg height='100px' width='100px'  fill="#000000" xmlns="http://www.w3.org/2000/svg" xmlns:xlink="http://www.w3.org/1999/xlink" version="1.1" x="0px" y="0px" viewBox="0 0 100 104" enable-background="new 0 0 100 104" xml:space="preserve"><path d="M84.832,24.383H68.268v-9.314c0-6.122-4.979-11.103-11.104-11.103h-14.33c-6.122,0-11.103,4.98-11.103,11.103v9.314H15.167  c-2.185,0-3.968,1.749-4.024,3.92L2.896,95.82l-0.011,0.095v0.094c0,2.22,1.806,4.025,4.025,4.025h86.18  c2.219,0,4.025-1.806,4.025-4.025v-0.094l-8.26-67.612C88.8,26.132,87.016,24.383,84.832,24.383z M34.827,15.068  c0-4.415,3.592-8.007,8.007-8.007h14.33c4.415,0,8.007,3.592,8.007,8.007v9.314H34.827V15.068z M93.09,96.938H6.91  c-0.488,0-0.89-0.377-0.927-0.855l8.243-67.485l0.012-0.094v-0.094c0-0.513,0.416-0.929,0.929-0.929h16.564v6.245h3.096V27.48  h30.344v6.244h3.097V27.48h16.564c0.512,0,0.929,0.416,0.929,0.929v0.094l8.255,67.579C93.979,96.561,93.578,96.938,93.09,96.938z"></path><path d="M69.245,70.51c-0.218-1.926-3.394-2.897-4.761-3.617c-2.193-1.152-3.984-2.272-6.025-3.212  c-1.872-3.663-4.375-6.694-9.104-7.499c-2.357-0.39-2.176-1.687-2.171-3.354c0.008-2.946,0.775-6.977-1.311-6.814  c-3.403,0-3.339,2.121-7.097,9.832l-8.033,16.271c0.601,3.352,1.198,5.854,4.192,8.45c3.231,2.8,8.042,3.877,12.546,4.003  c1.242-2.32,1.28-4.887,2.141-7.633c0.289-0.921,1.013-2.451,2.142-2.811c1.52-0.484,3.537,0.307,5.489,0.535  c1.827,0.215,3.747,0.42,5.626,0.268C65.135,74.746,69.535,73.045,69.245,70.51z M52.526,64.463c-0.862,0-1.562-0.701-1.562-1.562  s0.699-1.562,1.562-1.562s1.562,0.7,1.562,1.562S53.389,64.463,52.526,64.463z"></path></svg>