<svg height='100px' width='100px'  fill="#000000" xmlns="http://www.w3.org/2000/svg" xmlns:xlink="http://www.w3.org/1999/xlink" version="1.1" x="0px" y="0px" viewBox="0 0 64 64" style="enable-background:new 0 0 64 64;" xml:space="preserve"><g><path d="M62,33H2c-0.6,0-1-0.4-1-1s0.4-1,1-1h60c0.6,0,1,0.4,1,1S62.6,33,62,33z"></path></g><g><path d="M38.5,63c-0.6,0-1-0.4-1-1V2c0-0.6,0.4-1,1-1s1,0.4,1,1v60C39.5,62.6,39.1,63,38.5,63z"></path></g><g><path d="M11.5,63c-0.6,0-1-0.4-1-1V2c0-0.6,0.4-1,1-1s1,0.4,1,1v60C12.5,62.6,12.1,63,11.5,63z"></path></g><g><path d="M24.5,63c-0.6,0-1-0.4-1-1V2c0-0.6,0.4-1,1-1s1,0.4,1,1v60C25.5,62.6,25.1,63,24.5,63z"></path></g><g><path d="M52.5,63c-0.6,0-1-0.4-1-1V2c0-0.6,0.4-1,1-1s1,0.4,1,1v60C53.5,62.6,53.1,63,52.5,63z"></path></g><g><path d="M21,29h-6c-0.6,0-1-0.4-1-1V12c0-0.6,0.4-1,1-1h6c0.6,0,1,0.4,1,1v16C22,28.6,21.6,29,21,29z M16,27h4V13h-4V27z"></path></g><g><path d="M48.5,29h-6c-0.6,0-1-0.4-1-1V12c0-0.6,0.4-1,1-1h6c0.6,0,1,0.4,1,1v16C49.5,28.6,49.1,29,48.5,29z M43.5,27h4V13h-4V27z"></path></g><g><path d="M34.5,53h-6c-0.6,0-1-0.4-1-1V36c0-0.6,0.4-1,1-1h6c0.6,0,1,0.4,1,1v16C35.5,52.6,35.1,53,34.5,53z M29.5,51h4V37h-4V51z"></path></g><g><g><path d="M14.4,37.3c0.7-0.2,1.7-0.3,2.7-0.3c1.6,0,2.8,0.2,3.7,1c0.8,0.7,1.2,1.8,1.2,3c0,1.5-0.4,2.5-1.1,3.2    c-0.8,0.9-2.2,1.3-3.3,1.3c-0.2,0-0.4,0-0.5,0v5h-2.6V37.3z M17,43.4c0.1,0,0.3,0,0.4,0c1.3,0,1.9-0.9,1.9-2.2    c0-1.2-0.5-2.1-1.7-2.1c-0.2,0-0.5,0-0.6,0.1V43.4z"></path></g></g><g><g><path d="M42.5,36.9c0.7-0.2,1.7-0.3,2.7-0.3c1.6,0,2.8,0.2,3.7,1c0.8,0.7,1.2,1.8,1.2,3c0,1.5-0.4,2.5-1.1,3.2    c-0.8,0.9-2.2,1.3-3.3,1.3c-0.2,0-0.4,0-0.5,0v5h-2.6V36.9z M45.1,43c0.1,0,0.3,0,0.4,0c1.3,0,1.9-0.9,1.9-2.2    c0-1.2-0.5-2.1-1.7-2.1c-0.2,0-0.5,0-0.6,0.1V43z"></path></g></g><g><g><path d="M27.7,13.5c0.7-0.2,1.7-0.3,2.7-0.3c1.6,0,2.8,0.2,3.7,1c0.8,0.7,1.2,1.8,1.2,3c0,1.5-0.4,2.5-1.1,3.2    c-0.8,0.9-2.2,1.3-3.3,1.3c-0.2,0-0.4,0-0.5,0v5h-2.6V13.5z M30.3,19.6c0.1,0,0.3,0,0.4,0c1.3,0,1.9-0.9,1.9-2.2    c0-1.2-0.5-2.1-1.7-2.1c-0.2,0-0.5,0-0.6,0.1V19.6z"></path></g></g></svg>