<svg height='100px' width='100px'  fill="#000000" xmlns:dc="http://purl.org/dc/elements/1.1/" xmlns:cc="http://creativecommons.org/ns#" xmlns:rdf="http://www.w3.org/1999/02/22-rdf-syntax-ns#" xmlns:svg="http://www.w3.org/2000/svg" xmlns="http://www.w3.org/2000/svg" xmlns:sodipodi="http://sodipodi.sourceforge.net/DTD/sodipodi-0.dtd" xmlns:inkscape="http://www.inkscape.org/namespaces/inkscape" viewBox="0 0 8.4666665 8.4666669" version="1.1" x="0px" y="0px"><g transform="translate(0,-288.53333)"><path style="color:#000000;font-style:normal;font-variant:normal;font-weight:normal;font-stretch:normal;font-size:medium;line-height:normal;font-family:sans-serif;font-variant-ligatures:normal;font-variant-position:normal;font-variant-caps:normal;font-variant-numeric:normal;font-variant-alternates:normal;font-feature-settings:normal;text-indent:0;text-align:start;text-decoration:none;text-decoration-line:none;text-decoration-style:solid;text-decoration-color:#000000;letter-spacing:normal;word-spacing:normal;text-transform:none;writing-mode:lr-tb;direction:ltr;text-orientation:mixed;dominant-baseline:auto;baseline-shift:baseline;text-anchor:start;white-space:normal;shape-padding:0;clip-rule:nonzero;display:inline;overflow:visible;visibility:visible;opacity:1;isolation:auto;mix-blend-mode:normal;color-interpolation:sRGB;color-interpolation-filters:linearRGB;solid-color:#000000;solid-opacity:1;vector-effect:none;fill:#000000;fill-opacity:1;fill-rule:evenodd;stroke:none;stroke-width:1.99999988;stroke-linecap:round;stroke-linejoin:round;stroke-miterlimit:4;stroke-dasharray:none;stroke-dashoffset:0;stroke-opacity:1;paint-order:markers stroke fill;color-rendering:auto;image-rendering:auto;shape-rendering:auto;text-rendering:auto;enable-background:accumulate" d="M 2 1 A 1.0001 1.0001 0 0 0 1 2 L 1 30 A 1.0001 1.0001 0 0 0 2 31 L 22 31 A 1.0001 1.0001 0 0 0 23 30 C 23.000006 26.122167 26.122164 23 30 23 A 1.0001 1.0001 0 0 0 31 22 L 31 15.048828 A 1.0001 1.0001 0 0 0 30.679688 14.316406 L 16.623047 1.2675781 A 1.0001 1.0001 0 0 0 15.943359 1 L 2 1 z M 3 3 L 15.550781 3 L 29 15.484375 L 29 21.203125 C 24.876207 21.684599 21.68457 24.876195 21.203125 29 L 3 29 L 3 3 z M 4.9980469 4 A 1.0001 1.0001 0 0 0 4.0019531 4.9960938 L 4.0019531 15 A 1.0001 1.0001 0 0 0 4.9980469 16.003906 L 17 16.003906 A 1.0001 1.0001 0 0 0 17.996094 15 L 17.996094 6.9980469 A 1.0001 1.0001 0 0 0 17.701172 6.2890625 L 15.65625 4.2890625 A 1.0001 1.0001 0 0 0 14.962891 4 L 4.9980469 4 z M 6.0019531 6.0019531 L 14.548828 6.0019531 L 15.996094 7.4179688 L 15.996094 14.003906 L 6.0019531 14.003906 L 6.0019531 6.0019531 z M 19.982422 8.9980469 A 1.0001001 1.0001001 0 0 0 19.001953 10.001953 L 19.001953 15.013672 A 1.0001001 1.0001001 0 0 0 20.005859 16.017578 L 25.001953 15.996094 A 1.0001001 1.0001001 0 0 0 25.703125 14.291016 L 20.707031 9.2929688 A 1.0001001 1.0001001 0 0 0 19.982422 8.9980469 z M 21.001953 12.416016 L 22.587891 14.003906 L 21.001953 14.009766 L 21.001953 12.416016 z M 22.013672 17.996094 A 1.000252 1.000252 0 1 0 22.013672 19.996094 L 25.001953 19.996094 A 1.000252 1.000252 0 1 0 25.001953 17.996094 L 22.013672 17.996094 z " transform="matrix(0.26458333,0,0,0.26458333,0,288.53333)"></path></g></svg>