<svg height='100px' width='100px'  fill="#000000" xmlns="http://www.w3.org/2000/svg" xmlns:xlink="http://www.w3.org/1999/xlink" version="1.1" x="0px" y="0px" viewBox="0 0 100 100" style="enable-background:new 0 0 100 100;" xml:space="preserve"><g><path d="M65.5,53.85986L43.17627,40.97119c-0.30957-0.17871-0.69043-0.17871-1,0s-0.5,0.50879-0.5,0.86621v25.77734   c0,0.35742,0.19043,0.6875,0.5,0.86621c0.15479,0.08936,0.32715,0.13379,0.5,0.13379s0.34521-0.04443,0.5-0.13379L65.5,55.59229   c0.30957-0.17871,0.5-0.50879,0.5-0.86621S65.80957,54.03857,65.5,53.85986z M43.67627,65.88281V43.56934L63,54.72607   L43.67627,65.88281z"></path><path d="M10.8999,11.98828h14.76465v3.64893h-10.6377c-0.55225,0-1,0.44775-1,1v72.37451c0,0.55225,0.44775,1,1,1h69.74561   c0.55225,0,1-0.44775,1-1V16.63721c0-0.55225-0.44775-1-1-1h-10.6377v-3.64893H88.8999c0.55225,0,1-0.44775,1-1s-0.44775-1-1-1h-78   c-0.55225,0-1,0.44775-1,1S10.34766,11.98828,10.8999,11.98828z M83.77246,17.63721v70.37451H16.02686V17.63721h9.6377v3.82812   c-2.00409,0.45734-3.50732,2.24622-3.50732,4.38721c0,2.48535,2.02197,4.50732,4.50732,4.50732   c2.48584,0,4.50781-2.02197,4.50781-4.50732c0-2.14111-1.50336-3.92999-3.50781-4.38727v-3.82806h44.47021v3.82812   c-2.00409,0.45734-3.50732,2.24622-3.50732,4.38721c0,2.48535,2.02197,4.50732,4.50732,4.50732s4.50732-2.02197,4.50732-4.50732   c0-2.14099-1.50323-3.92987-3.50732-4.38721v-3.82812H83.77246z M26.66455,23.34473c1.38281,0,2.50781,1.125,2.50781,2.50781   c0,1.38232-1.125,2.50732-2.50781,2.50732c-1.38232,0-2.50732-1.125-2.50732-2.50732   C24.15723,24.46973,25.28223,23.34473,26.66455,23.34473z M73.13477,23.34473c1.38232,0,2.50732,1.125,2.50732,2.50781   c0,1.38232-1.125,2.50732-2.50732,2.50732s-2.50732-1.125-2.50732-2.50732C70.62744,24.46973,71.75244,23.34473,73.13477,23.34473z    M72.13477,15.63721H27.66455v-3.64893h44.47021V15.63721z"></path><path d="M49.8999,27.95459c-14.7168,0-26.68945,11.97266-26.68945,26.68945S35.18311,81.3335,49.8999,81.3335   c14.71631,0,26.68896-11.97266,26.68896-26.68945S64.61621,27.95459,49.8999,27.95459z M49.8999,79.3335   c-13.61377,0-24.68945-11.07568-24.68945-24.68945S36.28613,29.95459,49.8999,29.95459s24.68896,11.07568,24.68896,24.68945   S63.51367,79.3335,49.8999,79.3335z"></path></g></svg>