<svg height='100px' width='100px'  fill="#000000" xmlns="http://www.w3.org/2000/svg" data-name="Layer 1" viewBox="0 0 24 24" x="0px" y="0px"><title>Cog, cogwheel, gear, options, setting</title><path d="M12,22a9.92,9.92,0,0,0,5.15-1.44l-1-1.71A7.92,7.92,0,0,1,12,20a8,8,0,0,1-8-8A7.91,7.91,0,0,1,5.14,7.89l-1.71-1A9.91,9.91,0,0,0,2,12,10,10,0,0,0,12,22Z"></path><path d="M12,2A9.92,9.92,0,0,0,6.85,3.44l1,1.71A7.92,7.92,0,0,1,12,4a8,8,0,0,1,8,8,7.91,7.91,0,0,1-1.14,4.11l1.71,1A9.91,9.91,0,0,0,22,12,10,10,0,0,0,12,2Z"></path><path d="M7,11v2H8.14a4,4,0,0,0,.42,1l-.81.81,1.41,1.41.81-.81a4,4,0,0,0,1,.42V17h2V15.86a4,4,0,0,0,1-.42l.81.81,1.41-1.41L15.43,14a4,4,0,0,0,.42-1H17V11H15.86a4,4,0,0,0-.42-1l.81-.81L14.83,7.76,14,8.57a4,4,0,0,0-1-.42V7H11V8.14a4,4,0,0,0-1,.42l-.81-.81L7.76,9.17l.81.81a4,4,0,0,0-.42,1Z"></path></svg>