<svg height="100px" width="100px" fill="#000000" xmlns:x="http://ns.adobe.com/Extensibility/1.0/" xmlns:i="http://ns.adobe.com/AdobeIllustrator/10.0/" xmlns:graph="http://ns.adobe.com/Graphs/1.0/" xmlns="http://www.w3.org/2000/svg" xmlns:xlink="http://www.w3.org/1999/xlink" version="1.1" x="0px" y="0px" viewBox="0 0 100 100" style="enable-background:new 0 0 100 100;" xml:space="preserve">
	<g>
	
			
			<g>
				<path d="M85.8,38.8l11.2-13c0.5-0.6,0.6-1.3,0.4-2c-0.2-0.7-0.7-1.3-1.4-1.5L63.1,11.5c-0.8-0.3-1.7,0-2.3,0.6l-3.1,3.5V19     c0.9-0.1,1.8,0,2.7,0.2l2.7-3.1l28.5,9.4l-9.4,10.8l-17-5.6c-0.3,0.5-0.7,1-1.1,1.4l-2,2.1l14,4.6l-26,8.5l-26-8.5l14-4.6     L36,32.1c-0.4-0.4-0.8-1-1.1-1.5l-17.1,5.6L8.4,25.4l28.4-9.4l2.7,3.1c0.9-0.2,1.8-0.3,2.7-0.2v-3.3l-3.1-3.5     c-0.6-0.7-1.5-0.9-2.3-0.6L4,22.3c-0.7,0.2-1.2,0.8-1.4,1.5c-0.2,0.7,0,1.4,0.5,2l11.2,13L3,51.8c-0.5,0.6-0.7,1.3-0.5,2     C2.8,54.5,3.3,55,4,55.2L15,58.8V82c0,0.9,0.6,1.8,1.5,2l32.9,10.8c0.2,0.1,0.4,0.1,0.7,0.1c0.2,0,0.4,0,0.7-0.1L83.6,84     c0.9-0.3,1.4-1.1,1.4-2V58.8l11-3.6c0.7-0.2,1.2-0.8,1.4-1.5s0-1.4-0.4-2L85.8,38.8z M8.4,52.1l9.4-10.9l28.4,9.4l-9.4,10.8     L8.4,52.1z M47.8,89.8l-28.6-9.4V60.2L36.9,66c0.2,0.1,0.4,0.1,0.7,0.1c0.6,0,1.2-0.3,1.6-0.8l8.6-10V89.8z M80.7,80.4l-28.6,9.4     V55.4l8.6,10c0.4,0.5,1,0.8,1.6,0.8c0.3,0,0.5,0,0.7-0.1l17.6-5.8V80.4z M63.1,61.5l-9.4-10.8l28.4-9.4l9.4,10.9L63.1,61.5z">
				</path>
				<path d="M39.9,25.1c-0.9,0.9-0.9,2.3,0,3.1l8.6,8.6c0.4,0.4,1,0.6,1.6,0.6s1.1-0.2,1.6-0.6l8.6-8.6c0.9-0.9,0.9-2.3,0-3.1     c-0.9-0.9-2.3-0.9-3.1,0l-4.8,4.8V7.3c0-1.2-1-2.2-2.2-2.2c-1.2,0-2.2,1-2.2,2.2v22.6L43,25.1C42.1,24.2,40.7,24.2,39.9,25.1z">
				</path>
			</g>
	
	</g>
</svg>
