<svg height='100px' width='100px'  fill="#000000" xmlns="http://www.w3.org/2000/svg" data-name="Layer 1 copy 2" viewBox="0 0 64 64" x="0px" y="0px"><title>Home-system-theater-television</title><path d="M10,16V37a1,1,0,0,0,1,1H53a1,1,0,0,0,1-1V16a1,1,0,0,0-1-1H11A1,1,0,0,0,10,16Zm2,1H52V36H12Z"></path><path d="M54,54V45a1,1,0,0,0-1-1H52V41a1,1,0,0,0-1-1H32a1,1,0,0,0-1,1v3H28V41a1,1,0,0,0-1-1H13a1,1,0,0,0-1,1v3H11a1,1,0,0,0-1,1v9a1,1,0,0,0,1,1H53A1,1,0,0,0,54,54ZM33,42H50v2H33ZM14,42H26v2H14ZM52,53H12V46H52Z"></path><path d="M61,50a1,1,0,0,0,1-1V16a1,1,0,0,0-1-1H57a1,1,0,0,0-1,1V49a1,1,0,0,0,1,1h1v3H56v2h6V53H60V50ZM58,17h2V48H58Z"></path><path d="M16,21H14V33a1,1,0,0,0,1,1h4V32H16Z"></path><path d="M48,19H32v2H47v3h2V20A1,1,0,0,0,48,19Z"></path><path d="M8,53H6V50H7a1,1,0,0,0,1-1V16a1,1,0,0,0-1-1H3a1,1,0,0,0-1,1V49a1,1,0,0,0,1,1H4v3H2v2H8ZM4,17H6V48H4Z"></path><path d="M47,32H43v2h5a1,1,0,0,0,1-1V31H47Z"></path></svg>