<svg height='100px' width='100px'  fill="#000000" xmlns="http://www.w3.org/2000/svg" viewBox="0 0 64 64" x="0px" y="0px"><title>Veterinary - 25 Icon Set - Solid - 64 - Stroke 1.5 - 2019</title><g data-name="Layer 3"><g><path d="M37.8,34.22a2.2,2.2,0,1,0,1.56.64A2.2,2.2,0,0,0,37.8,34.22Z"></path><path d="M52.41,16.93,49,24.66V54.19l6-6V17.79Zm.34,27.82a.75.75,0,0,1-1.5,0v-20a.75.75,0,0,1,1.5,0Z"></path><path d="M12.49,16.75,9,24.66V55.25H47.5V24.5a.77.77,0,0,1,.06-.3l3.29-7.45Zm19,9.67a3.7,3.7,0,1,1-3.7,3.7A3.7,3.7,0,0,1,31.45,26.42ZM19.88,27.54a3.79,3.79,0,0,1,5.24,0,3.71,3.71,0,1,1-5.24,0ZM16.2,40.21a3.7,3.7,0,1,1,3.7-3.7A3.7,3.7,0,0,1,16.2,40.21Zm17.13,5.52a6.79,6.79,0,0,1-5.47,2.35H26.18a6.79,6.79,0,0,1-5.47-2.35,3.36,3.36,0,0,1-.92-2.48L20.64,39A6.5,6.5,0,0,1,33.4,39l.85,4.22A3.34,3.34,0,0,1,33.33,45.73ZM40.42,39a3.7,3.7,0,1,1-5.24-5.23A3.7,3.7,0,0,1,40.42,39Z"></path><path d="M27,35.29a5,5,0,0,0-4.91,4l-.85,4.22A2.54,2.54,0,0,0,22,44.91a5.43,5.43,0,0,0,4.2,1.67h1.68a5.43,5.43,0,0,0,4.2-1.67,2.41,2.41,0,0,0,.71-1.37l-.84-4.22A5,5,0,0,0,27,35.29Z"></path><polygon points="47.88 12.25 50.5 8.75 12.38 8.75 9.75 12.25 12 12.25 47.88 12.25"></polygon><path d="M51.25,15.25v-5l-2.4,3.2a.74.74,0,0,1-.6.3H12.75v1.5Z"></path><path d="M31.45,32.32a2.2,2.2,0,1,0-2.2-2.2A2.21,2.21,0,0,0,31.45,32.32Z"></path><path d="M16.2,34.31a2.2,2.2,0,1,0,2.2,2.2A2.21,2.21,0,0,0,16.2,34.31Z"></path><path d="M24.06,31.71a2.2,2.2,0,1,0-3.12,0A2.25,2.25,0,0,0,24.06,31.71Z"></path></g></g></svg>