<svg height='100px' width='100px'  fill="#000000" xmlns="http://www.w3.org/2000/svg" data-name="Layer 2" viewBox="0 0 100 100" x="0px" y="0px"><title>Artboard 69</title><path d="M89.82,45H64V41a5,5,0,0,0-5-5H41a5,5,0,0,0-5,5v4H10.18A5.11,5.11,0,0,0,5.1,49,5,5,0,0,0,10,55H36v4a5,5,0,0,0,5,5H59a5,5,0,0,0,5-5V55H90a5,5,0,0,0,4.9-6A5.11,5.11,0,0,0,89.82,45Z"></path><path d="M89.82,76H33V72a5,5,0,0,0-5-5H10a5,5,0,0,0-5,5V90a5,5,0,0,0,5,5H28a5,5,0,0,0,5-5V86H90a5,5,0,0,0,4.9-6A5.11,5.11,0,0,0,89.82,76Z"></path><path d="M10,33H28a5,5,0,0,0,5-5V24H90a5,5,0,0,0,4.9-6,5.11,5.11,0,0,0-5.08-4H33V10a5,5,0,0,0-5-5H10a5,5,0,0,0-5,5V28A5,5,0,0,0,10,33Z"></path></svg>