<?xml version="1.0" encoding="utf-8"?>
<!-- Generator: Adobe Illustrator 24.2.1, SVG Export Plug-In . SVG Version: 6.00 Build 0)  -->
<svg version="1.1" id="Layer_1" xmlns="http://www.w3.org/2000/svg" xmlns:xlink="http://www.w3.org/1999/xlink" x="0px" y="0px"
	 viewBox="0 0 100 100" enable-background="new 0 0 100 100" xml:space="preserve">
<g>
	<path fill-rule="evenodd" clip-rule="evenodd" d="M63.363,77.778v11.111c-6.306,0-12.312,0-18.318,0l-7.207-30.931L30.03,88.889
		c-6.907,0-13.514,0-20.42,0V80.48c-2.102,2.703-4.805,5.405-7.207,7.808L0,85.886c6.907-7.207,13.814-14.715,20.12-23.123
		c5.706-7.207,10.811-15.015,15.616-23.423l-0.901-1.502l1.502-0.901v-4.805c0-1.502,2.703-1.502,2.703,0v4.805l1.501,0.901
		c-0.3,0.3-0.601,0.901-0.901,1.502c9.61,16.817,22.523,32.733,36.036,46.547l-2.703,2.402
		C69.67,84.985,66.366,81.381,63.363,77.778z M79.279,11.111c6.607,0,11.712,5.105,11.712,11.411
		c0,6.607-5.105,11.712-11.712,11.712c-6.306,0-11.411-5.105-11.411-11.712C67.868,16.216,72.973,11.111,79.279,11.111z
		 M55.856,43.544c1.201-6.006,4.805-6.306,8.108-4.505l1.501-0.901c-1.201-1.201-1.501-1.802-2.703-2.102
		c1.802-3.604,5.405-4.204,7.207-2.102c0,0,0,0-0.3,0c-1.502,0.601-2.102,0.901-3.003,2.402l2.102,1.201
		c3.003-2.703,6.607-0.901,7.508,1.502c-1.802,0.901-3.003,3.003-3.003,5.405h0.601c0-2.703,4.204-6.006,7.808-2.703l2.102-1.201
		c-0.901-1.501-1.502-1.802-3.003-2.402h-0.3c2.102-2.102,5.706-1.502,7.508,2.102c-1.201,0.3-1.802,0.901-2.703,1.802l1.502,1.201
		c3.303-1.802,6.907-1.502,8.108,4.505H100c-1.201-5.706-6.306-8.108-8.408-8.108c-2.402-6.006-10.511-7.207-13.514-1.502
		c-0.3,0-0.601,0.3-0.901,0.3c-0.601-2.102-2.402-3.904-4.805-4.505c-2.703-5.706-10.811-4.505-13.213,1.802
		c-2.102-0.3-7.207,2.102-8.408,7.808H55.856z"/>
</g>
</svg>
