<svg height='100px' width='100px'  fill="#000000" xmlns="http://www.w3.org/2000/svg" viewBox="0 0 64 64" x="0px" y="0px"><g><path d="M51,20H33V40H51Zm-9,2a2,2,0,1,1-2,2A2,2,0,0,1,42,22Zm-7,0h3.556a3.875,3.875,0,0,0,0,4H35ZM49,38H35V28H49Zm0-12H45.444a3.875,3.875,0,0,0,0-4H49Z"></path><rect x="38" y="30" width="2" height="2"></rect><rect x="43" y="30" width="2" height="2"></rect><rect x="38" y="34" width="7" height="2"></rect><path d="M32,42a3,3,0,0,0-3,3V62H55V45a3,3,0,0,0-3-3Zm1,18H31V58h2Zm0-4H31V45a1,1,0,0,1,1-1h1ZM51,44h1a1,1,0,0,1,1,1V56H51Zm0,14h2v2H51ZM40,44h4v2a2,2,0,0,1-4,0ZM35,58V44h3v2a4,4,0,0,0,8,0V44h3V60H35Z"></path><rect x="41" y="52" width="2" height="2"></rect><rect x="41" y="56" width="2" height="2"></rect><path d="M61,2H3A1,1,0,0,0,2,3V9a1.007,1.007,0,0,0,.038.274l4,14a1,1,0,0,0,1.83.222L10.8,18.37l3.263,8.972a1,1,0,0,0,1.925-.178l1.893-11.357,2.13,16.322A1,1,0,0,0,20.99,33H21a1,1,0,0,0,.989-.852L24.417,15.96l1.646,4.392a.989.989,0,0,0,.983.647,1,1,0,0,0,.919-.736l2.4-8.8,3.789,6.062a1.04,1.04,0,0,0,1.7,0l4.134-6.615,2.161,3.6a1.04,1.04,0,0,0,1.714,0l2.063-3.439,3.185,6.371a1,1,0,0,0,1.52.334l3.88-3.1,3.547,10.639a1,1,0,0,0,1.94-.192l2-16A1.032,1.032,0,0,0,62,9V3A1,1,0,0,0,61,2ZM60,6H54V8h6v.938L59.992,9H58v2h1.742l-1.187,9.5-2.607-7.817a1,1,0,0,0-1.573-.465l-4.034,3.227L46.9,8.553A1,1,0,0,0,46.038,8a.946.946,0,0,0-.895.484L43,12.057,40.857,8.485A1,1,0,0,0,40.009,8a1.033,1.033,0,0,0-.857.47L35,15.113,30.848,8.47a1,1,0,0,0-1.813.267L26.85,16.751l-1.913-5.1a1,1,0,0,0-1.926.2L21.069,24.8,18.991,8.871A1,1,0,0,0,18.018,8H18a1,1,0,0,0-.986.836L14.64,23.082l-2.7-7.424A1,1,0,0,0,11.085,15a.985.985,0,0,0-.953.5L7.31,20.443,4,8.86V8H9V6H4V4H41V6h2V4H60Z"></path><path d="M3,62H23a1,1,0,0,0,1-1V57a1,1,0,0,0-1-1H15.721l-2.773-8.316A1,1,0,0,0,12.042,47a.97.97,0,0,0-.961.605L9.21,51.971,6.965,43.737A1.033,1.033,0,0,0,5.98,43a1,1,0,0,0-.955.775l-3,13A1.07,1.07,0,0,0,2,57v4A1,1,0,0,0,3,62Zm1-4.886L6.081,48.1l1.954,7.166a1,1,0,0,0,1.884.131l1.964-4.582,2.169,6.5A1,1,0,0,0,15,58h7v2H10V58H8v2H4Z"></path><rect x="11" y="6" width="2" height="2"></rect><rect x="12" y="11" width="2" height="2"></rect><rect x="34" y="8" width="2" height="2"></rect><rect x="21" y="6" width="4" height="2"></rect></g></svg>