<svg height='100px' width='100px'  fill="#000000" xmlns="http://www.w3.org/2000/svg" xmlns:xlink="http://www.w3.org/1999/xlink" version="1.1" x="0px" y="0px" viewBox="0 0 95 95" style="enable-background:new 0 0 95 95;" xml:space="preserve"><path d="M33.31,12.02c0,0,1.99-10.35,8.38-7.54s1.02,15.97,10.35,28.49s27.85,18.01,27.85,18.01s8.3,2.68,5.75,10.48  s-29.28,8.03-38.14,3.19c-3.27-1.79-12.43-5.78-18.58-7.15c-4.74-1.06-19.93,0.04-19.03-10c0.86-9.65,5.75-15.94,7.41-26.79  C17.29,20.71,27.3,21.47,33.31,12.02z"></path><path d="M63.59,71c-7.5,0-13.09-1.53-16.04-2.99l-0.5-0.25c-3.93-1.95-14.36-7.14-20.28-7.47c-11.19-0.63-16.15-4.25-16.36-4.41  c-0.44-0.33-0.53-0.96-0.2-1.4c0.33-0.44,0.95-0.53,1.4-0.2l0,0c0.05,0.03,4.76,3.42,15.28,4.02c6.33,0.36,16.65,5.48,21.06,7.67  l0.5,0.25c4.97,2.47,17.99,5.1,35.22-0.67c0.53-0.18,1.09,0.11,1.27,0.63c0.17,0.52-0.11,1.09-0.63,1.27  C76.47,70.07,69.45,71,63.59,71z"></path><path d="M18.15,19.94c0,0-0.55-3.65,2.77-5.22c2.55-1.21,12.14-6.5,12.14-6.5s0.56,3.25-2.44,6.15S24.43,19.84,18.15,19.94z"></path><circle cx="19.96" cy="79.65" r="9.38"></circle><path d="M24.06,65.71c-4.33-0.33-8.19,2.34-9.56,6.26c1.88-2.08,4.66-3.31,7.68-3.08c5.16,0.4,9.03,4.9,8.63,10.07  c-0.06,0.83-0.24,1.62-0.51,2.37c1.34-1.49,2.23-3.41,2.39-5.56C33.09,70.61,29.22,66.1,24.06,65.71z"></path><circle cx="67.02" cy="79.65" r="9.38"></circle><path d="M77.86,74.15c0,0-1.64,1.05-1.2,2.11c0.44,1.05,1.53,4.4,1.53,4.4s3.64,1.89,7.02-0.65s3.46-3.42,3.46-4.07  s-2.11-4.33-2.11-4.33s-1.62-0.84-2.57-0.47c0,0,0,2-2.13,2.9C79.34,75.1,77.86,74.15,77.86,74.15z"></path><path d="M84.97,66.7c0,0-0.66,3.23-4.39,4.53c-3.72,1.3-5.74,2.3-6.41-1.22L84.97,66.7z"></path><path d="M78.13,73.82c-0.47,0-0.78-0.04-0.82-0.05c-0.27-0.04-0.46-0.29-0.43-0.56c0.04-0.27,0.29-0.47,0.56-0.43  c0.16,0.02,3.94,0.48,5.46-2.5c0.12-0.25,0.43-0.34,0.67-0.22c0.25,0.13,0.34,0.43,0.22,0.67C82.41,73.46,79.55,73.82,78.13,73.82z"></path><path d="M48,68.38H12.73c-0.28,0-0.5-0.22-0.5-0.5s0.22-0.5,0.5-0.5H48c0.28,0,0.5,0.22,0.5,0.5S48.28,68.38,48,68.38z"></path><path d="M27.54,60.3v6.05c0,0-12.57,1.25-15.34-2.22l-0.92-7.81L27.54,60.3z"></path><path d="M55.93,32.17c-3.14,0-9.3-10.32-10.46-15.46l-0.26-1.16l1.01,0.62c0.51,0.32,12.59,7.8,11.42,14.06  c-0.29,1.58-1.08,1.92-1.68,1.93C55.95,32.17,55.94,32.17,55.93,32.17z M46.79,17.74c1.74,5.45,7.05,13.43,9.13,13.43  c0.01,0,0.01,0,0.02,0c0.34-0.01,0.58-0.38,0.72-1.12C57.51,25.48,49.73,19.73,46.79,17.74z"></path><path d="M52.77,34.82c-0.1,0-0.2-0.01-0.3-0.03c-3.08-0.6-6.96-12.03-7.02-17.31l-0.01-1.19l0.86,0.82  c0.44,0.42,10.68,10.26,8.23,16.14C54.01,34.51,53.33,34.82,52.77,34.82z M46.53,18.77c0.56,5.71,4.1,14.65,6.14,15.05  c0.33,0.07,0.65-0.25,0.94-0.94C55.4,28.58,48.99,21.33,46.53,18.77z"></path></svg>