<svg height='100px' width='100px'  fill="#000000" xmlns="http://www.w3.org/2000/svg" data-name="Layer 2" viewBox="0 0 64 64" x="0px" y="0px"><title>Ecommerce Glyph</title><path d="M16.82,43.14a6.54,6.54,0,1,0,4.9,2.2A6.54,6.54,0,0,0,16.82,43.14Zm0,9.88a3.33,3.33,0,1,1,3.33-3.33A3.34,3.34,0,0,1,16.82,53Z"></path><path d="M16.82,48.36a1.34,1.34,0,0,0-1.33,1.33,1.33,1.33,0,0,0,2.66,0,1.34,1.34,0,0,0-1.33-1.33Z"></path><path d="M40.38,49.34a1,1,0,0,0-1-1H36.27a1,1,0,0,0,0,2h3.11A1,1,0,0,0,40.38,49.34Z"></path><path d="M41.34,51.68H38.23a1,1,0,0,0,0,2h3.11a1,1,0,0,0,0-2Z"></path><path d="M8.17,49.34a1,1,0,0,0-1-1H4.06a1,1,0,1,0,0,2H7.17A1,1,0,0,0,8.17,49.34Z"></path><path d="M9.13,51.68H6a1,1,0,0,0,0,2H9.13a1,1,0,1,0,0-2Z"></path><path d="M35.9,46V35.46h0V15.55a1,1,0,0,0-1-1H23.5a8.27,8.27,0,0,0,3.08-3,3.49,3.49,0,0,0-.95-4.39,3.37,3.37,0,0,0-4.32.37c-1,.9-1.8,3-2.35,4.82-.55-1.83-1.36-3.92-2.35-4.82a3.37,3.37,0,0,0-4.32-.37,3.49,3.49,0,0,0-.95,4.39,8.27,8.27,0,0,0,3.08,3H4.18a1,1,0,0,0-1,1V46a1,1,0,0,0,1,1H8.71a8.55,8.55,0,0,1,14.51-3,8.68,8.68,0,0,1,1.71,3h10A1,1,0,0,0,35.9,46ZM5.18,34.46v-8h13v8Zm15,0v-8H33.9v8Zm13.75-10H20.15V16.55H33.9ZM22.65,9a1.6,1.6,0,0,1,1.08-.46,1.21,1.21,0,0,1,.72.23,1.51,1.51,0,0,1,.31,2c-.48,1-2.41,2.3-4.17,3.21C21.15,11.86,22,9.63,22.65,9Zm-9.49,1.72a1.51,1.51,0,0,1,.31-2,1.21,1.21,0,0,1,.72-.23A1.6,1.6,0,0,1,15.27,9c.69.64,1.5,2.87,2.06,4.93C15.57,13,13.64,11.76,13.16,10.71Zm5,5.84v8h-13V16.55Z"></path><path d="M60.71,37.32,54.28,24.79a1,1,0,0,0-.89-.54H38.15a1,1,0,0,0-1,1V46a1,1,0,0,0,1,1h3.08a8.55,8.55,0,0,1,14.51-3,8.68,8.68,0,0,1,1.71,3h2.37a1,1,0,0,0,1-1V37.78A1,1,0,0,0,60.71,37.32ZM39.4,34.46a1.87,1.87,0,0,0-.25,0V26.25H52.78L57,34.46Z"></path><path d="M49.34,48.36A1.34,1.34,0,0,0,48,49.69a1.33,1.33,0,1,0,2.66,0,1.34,1.34,0,0,0-1.33-1.33Z"></path><path d="M49.34,43.14a6.54,6.54,0,1,0,4.9,2.2A6.54,6.54,0,0,0,49.34,43.14Zm0,9.88a3.33,3.33,0,1,1,3.33-3.33A3.34,3.34,0,0,1,49.34,53Z"></path></svg>