<svg height='100px' width='100px'  fill="#000000" xmlns="http://www.w3.org/2000/svg" xmlns:xlink="http://www.w3.org/1999/xlink" version="1.1" baseProfile="tiny" x="0px" y="0px" viewBox="0 0 24 24" overflow="scroll" xml:space="preserve"><path d="M12.5895996,6.2615967c-0.2052002,0-0.4106445,0.0786743-0.5674438,0.2359009  c-0.3129883,0.3139038-0.3137817,0.8219604-0.0018311,1.1348267c0.1556396,0.1561279,0.3597412,0.2341309,0.5640869,0.2341309  c0.2052002,0,0.4106445-0.0786743,0.5674438-0.2359619c0.3129272-0.3138428,0.3137817-0.8219604,0.0018311-1.1348267  C12.9979858,6.3395996,12.7938843,6.2615967,12.5895996,6.2615967z"></path><path d="M21.8876953,2.546875c-0.1640625-0.9121094-0.7231445-1.7304688-1.7382813-1.7304688  c-1.0751953,0-5.1230469,0.5058594-5.284668,0.5263672c-4.1982422,0.4677734-5.7548828,2.8857422-6.2016602,3.8076172  L4.8636475,6.5787354C4.756958,6.571167,4.6541138,6.5546875,4.5444336,6.5546875  c-1.8789063,0-3.3510742,1.1318359-3.3510742,2.5761719c0,0.9143066,0.592041,1.7009277,1.5016479,2.1569824  c-0.0818481,0.8241577-0.027832,2.4459229,1.4329224,3.4230957c1.3466797,0.8994141,4.4921875,1.4111328,5.9082031,1.6025391  v1.71875H9.7460938c-0.4140625,0-0.75,0.3359375-0.75,0.75v1.3804932c-0.0164795,0.0053101-0.0335083,0.0026245-0.0498047,0.0091553  c-0.7456055,0.2998047-2.3422852,0.6572266-2.8305664,0.1669922c-1.3271484-1.3320313-3.222168-1.8300781-4.5893555-1.1367188  c-0.0932617,0.0615234-0.9150391,0.6386719-1.0166016,1.6582031c-0.0712891,0.7226563,0.2319336,1.4296875,0.9023438,2.1025391  c0.1464844,0.1474609,0.3388672,0.2207031,0.53125,0.2207031c0.1914063,0,0.3833008-0.0732422,0.5292969-0.21875  c0.293457-0.2919922,0.2944336-0.7675781,0.0019531-1.0605469c-0.2304688-0.2314453-0.4995117-0.5732422-0.4726563-0.8886719  c0.0224609-0.2617188,0.2460938-0.4736328,0.3325195-0.5458984c0.7060547-0.3027344,1.8857422,0.0927734,2.71875,0.9277344  c1.0613403,1.0656128,3.0046387,0.637207,3.9428711,0.3441162v0.6920166c0,0.4140625,0.3359375,0.75,0.75,0.75h10.4033203  c0.4140625,0,0.75-0.3359375,0.75-0.75v-3.6513672c0-0.4140625-0.3359375-0.75-0.75-0.75h-0.2905273v-1.9726563  c0.7833862-0.5338745,2.4644165-1.8598633,2.5791626-3.3786621C23.0383301,12.2354736,23.5,11.5178223,23.5,10.4345703V5.2177734  c0-0.0615234-0.0073242-0.1220703-0.0224609-0.1816406C23.3857422,4.6669922,22.9326172,3.0683594,21.8876953,2.546875z   M2.6933594,9.1308594c0-0.5087891,0.7602539-1.0761719,1.8510742-1.0761719s1.8505859,0.5673828,1.8505859,1.0761719  s-0.7597656,1.0761719-1.8505859,1.0761719S2.6933594,9.6396484,2.6933594,9.1308594z M19.3994141,21.6835938h-8.9033203v-2.1513672  h8.9033203V21.6835938z M22,10.4345703c0,1.21875-1.0229492,1.3310547-1.3305664,1.3369141h-2.0805664  c-1.2133789,0-1.3251953-1.0283203-1.3305664-1.3369141V6.7832031c0-0.4140625-0.3359375-0.75-0.75-0.75s-0.75,0.3359375-0.75,0.75  v3.6513672c0,1.140625,0.7539063,2.8369141,2.8305664,2.8369141h2.0733643  c-0.4381104,0.6478882-1.2808838,1.3386841-1.9405518,1.7373047c-0.2246094,0.1357422-0.362793,0.3798828-0.362793,0.6425781  v2.3808594h-6.8227539v-2.3808594c0-0.3818359-0.2871094-0.703125-0.6669922-0.7451172  c-0.5238037-0.0584717-1.4446411-0.1890259-2.4197388-0.3735962l2.6731567-1.3412476  c0.3701172-0.1855469,0.5195313-0.6357422,0.3339844-1.0058594s-0.6367188-0.5185547-1.0068359-0.3349609L6.2885742,13.9375  c-0.0309448,0.015625-0.0506592,0.0424194-0.0784302,0.0615234c-0.5159912-0.1615601-0.9573975-0.3405762-1.2487183-0.5351563  c-0.697937-0.4671631-0.807251-1.2565308-0.7919312-1.7850342c0.1246338,0.010376,0.2460938,0.0281982,0.374939,0.0281982  c1.8789063,0,3.3505859-1.1318359,3.3505859-2.5761719c0-0.6863403-0.3397217-1.2969971-0.8900757-1.7542725l2.4848022-0.9342041  C9.7011719,6.3623047,9.8657227,6.1914063,9.9375,5.9765625c0.0087891-0.0263672,0.9370117-2.6796875,5.1035156-3.1445313  c1.1445313-0.1435547,4.2929688-0.515625,5.1083984-0.515625c0.1723633,0,0.2871094,0.5380859,0.2900391,0.8154297  c0,0.4140625,0.3359375,0.75,0.75,0.75c0.1669922,0,0.59375,0.6474609,0.8105469,1.4335938V10.4345703z"></path></svg>