<svg height='100px' width='100px'  fill="#000000" xmlns="http://www.w3.org/2000/svg" xmlns:xlink="http://www.w3.org/1999/xlink" version="1.1" x="0px" y="0px" viewBox="0 0 64 64" style="enable-background:new 0 0 64 64;" xml:space="preserve"><g><path d="M48,33c-8.271,0-15,6.729-15,15s6.729,15,15,15s15-6.729,15-15S56.271,33,48,33z M48,61c-7.168,0-13-5.832-13-13   s5.832-13,13-13s13,5.832,13,13S55.168,61,48,61z"></path><path d="M5.465,1L0.743,8.082L16,25.519L31.257,8.082L26.535,1H5.465z M18.136,3h5.996l-2.665,3.997L18.136,3z M18.864,7h-5.729   L16,3.563L18.864,7z M10.533,6.997L7.868,3h5.996L10.533,6.997z M8.132,7H3.869L6,3.803L8.132,7z M10.265,9l3.368,10.776L4.204,9   H10.265z M17.233,16.702L16,20.649L12.36,9h7.281l-1.782,5.702l1.908,0.596L21.735,9h6.062l-9.429,10.776l0.774-2.478   L17.233,16.702z M23.868,7L26,3.803L28.131,7H23.868z"></path><polygon points="6.386,36.211 7.614,37.789 16,31.267 24.386,37.789 25.614,36.211 16,28.733  "></polygon><rect x="15" y="61" width="2" height="2"></rect><rect x="15" y="57" width="2" height="2"></rect><rect x="15" y="34" width="2" height="21"></rect><polygon points="57.614,23.789 56.386,22.211 48,28.733 39.614,22.211 38.386,23.789 48,31.267  "></polygon><rect x="47" y="1" width="2" height="2.001"></rect><rect x="47" y="5" width="2" height="2"></rect><rect x="47" y="9" width="2" height="17"></rect><path d="M49,39v-2h-2v2c-2.757,0-5,2.243-5,5s2.243,5,5,5h2c1.654,0,3,1.346,3,3s-1.346,3-3,3h-2c-1.654,0-3-1.346-3-3v-1h-2v1   c0,2.757,2.243,5,5,5v2h2v-2c2.757,0,5-2.243,5-5s-2.243-5-5-5h-2c-1.654,0-3-1.346-3-3s1.346-3,3-3h2c1.654,0,3,1.346,3,3v1h2v-1   C54,41.243,51.757,39,49,39z"></path></g></svg>