<?xml version="1.0" encoding="utf-8"?>
<!-- Generator: Adobe Illustrator 24.2.1, SVG Export Plug-In . SVG Version: 6.00 Build 0)  -->
<svg version="1.1" id="Layer_1" xmlns="http://www.w3.org/2000/svg" xmlns:xlink="http://www.w3.org/1999/xlink" x="0px" y="0px"
	 viewBox="0 0 400 400" enable-background="new 0 0 400 400" xml:space="preserve">
<g>
	<path fill="#010101" d="M245.59438,146.10999c-7.73999,9.71997-22.93005,10.96002-35.29993,10.96002
		c-0.95996,0-1.89014-0.05005-2.80005-0.14001l-3.66992-7.59003l-6.30005,3.05005l0.88989,1.83997
		c-26.68994-13.84998-27.02991-73.92999-27.02991-76.81h8c0.01001,19.92999,5.57996,71.65002,30.91003,71.65002
		c15.48999,0,24.71997-2.53003,29.04993-7.95001c3.66003-4.60004,4.30994-11.82001,1.97009-22.07001
		c-6.61011-28.90002-19.6001-46.03998-29.33008-55.33002c-11.45996-10.94-24.80005-17.20996-36.59998-17.20996h-23.28003
		c-31.01991,0-36.56995,30.28998-36.78992,31.57996c-0.30005,1.73999-1.70007,3.08002-3.45007,3.30005l-19.77991,2.46997
		c0.00989-0.21002,0.00989-0.40997,0.00989-0.62h-8c0,0.56-0.0199,1.10999-0.05994,1.63l8.05005-1.01001
		c-0.13013,6.87-2.52002,12.25-7.08008,16c-5.43994,4.46002-12.88,5.47998-18.54004,5.47998
		c-0.8999,0-1.76001-0.02997-2.55005-0.07001c0.1001,3.86005,0.90015,7.82001,2.88013,11.42004
		c4.54004,8.26001,14.54993,13.25,29.75,14.83997c22.53003,2.36005,35.61988,7.09003,42.41993,15.34003
		c6.46997,7.84998,6.09009,17.41998,5.69995,27.54999c-0.09985,2.52002-0.19995,5.10999-0.19995,7.75
		c0,8.12-2.23999,16.95001-4.83997,27.16998C136.44435,221.88,132.82448,236.09998,132.82448,252
		c0,19.08997,4.11987,38.42999,12.23999,57.64996c-1.64014,1.94-3.06006,4.12-4.20007,6.53003
		c-0.29993,0.63-0.56995,1.25-0.80994,1.89001C129.94435,296.13,124.82447,273.94,124.82447,252
		c0-16.90002,3.75001-31.63,7.04993-44.63c2.46008-9.70001,4.58997-18.08002,4.58997-25.20001
		c0-2.78998,0.11011-5.46997,0.20996-8.06c0.72998-18.84003,1.17004-30.21002-40.95997-34.62
		c-17.97998-1.88-30.07996-8.27002-35.94995-18.97998c-9.33008-17.03003,1.03003-38.16003,1.47998-39.06
		c0.59009-1.19,1.75-2.01001,3.08008-2.18005l43.79993-5.46997c2.47998-8.98999,12.43005-35.28998,43.97999-35.28998h23.28003
		c13.83997,0,29.19006,7.07996,42.13,19.42999c10.52002,10.03998,24.55005,28.48999,31.58997,59.32996
		C252.03444,130.04999,250.88441,139.47998,245.59438,146.10999z"/>
	<path fill="#1C1C1C" d="M92.09437,83.23999c0,0.21002,0,0.40997-0.00989,0.62L84.03443,84.87
		c0.04004-0.52002,0.05994-1.07001,0.05994-1.63H92.09437z"/>
</g>
<g>
	<path fill="#1C1C1C" d="M84.09437,83.23999h8c0,0.21002,0,0.40997-0.00989,0.62L84.03443,84.87
		C84.07447,84.34998,84.09437,83.79999,84.09437,83.23999z"/>
	<path fill="#1C1C1C" d="M145.06447,309.64996c1.46997,3.47003,3.06995,6.92999,4.79993,10.39001l-7.16003,3.57001
		c-0.91992-1.84003-1.80994-3.69-2.6499-5.53003v-0.00995c0.23999-0.64001,0.51001-1.26001,0.80994-1.89001
		C142.00441,313.76996,143.42433,311.58997,145.06447,309.64996z"/>
	<path fill="#1C1C1C" d="M207.4944,156.92999c-3.33008-0.34003-6.34009-1.27002-9.08008-2.70001l-0.88989-1.83997l6.30005-3.05005
		L207.4944,156.92999z"/>
</g>
<g>
	<path fill="#010101" d="M306.34436,316.17999c-7.14001-15.06-25.14001-21.47003-40.18005-14.32001
		c-3.95996,1.87-7.30994,4.51001-9.98999,7.63l-70.46996-148.66998c0,0-11.81995,17.51996-7.69995,31.10999l42.53003,105.14996
		c22.27002,0.09003,28.45996,23.01001,28.38989,31.86005c-0.02991,4.38995,0.90015,8.85999,2.91016,13.09998
		c7.14989,15.06,25.13988,21.47003,40.18993,14.32001C307.07446,349.21997,313.48438,331.22998,306.34436,316.17999z
		 M223.60439,276.79999c-3.2699,0-5.91003-2.65002-5.91003-5.91998c0-3.26001,2.64014-5.91003,5.91003-5.91003
		c3.27002,0,5.92004,2.65002,5.92004,5.91003C229.52443,274.14996,226.8744,276.79999,223.60439,276.79999z M287.41431,346.64996
		c-9.67993,4.61005-21.2699,0.48004-25.86987-9.20996c-4.6001-9.69-0.46997-21.28003,9.21997-25.88
		c9.68994-4.59003,21.27002-0.46002,25.87,9.21997C301.23438,330.46997,297.10437,342.06,287.41431,346.64996z M214.90431,299.5
		c-0.45996-1.06-4.07983-9.48004-9.05994-21.25l-14.80994,31.23999c-2.67004-3.12-6.02002-5.76001-9.97998-7.63
		c-12.65015-6.01001-27.37012-2.44-35.98999,7.78998c-1.64014,1.94-3.06006,4.12-4.20007,6.53003
		c-0.29993,0.63-0.56995,1.25-0.80994,1.89001v0.00995c-5.78003,14.63,0.70996,31.44,15.12988,38.28003
		c15.05005,7.15002,33.05005,0.73999,40.19006-14.32001c2.01001-4.23999,2.94006-8.71002,2.91003-13.09998
		c-0.05005-7.04004,3.86987-22.98999,16.69995-29.25L214.90431,299.5z M185.66432,337.44
		c-4.59985,9.69-16.17993,13.82001-25.86987,9.20996c-9.69006-4.58997-13.82007-16.17999-9.21997-25.87
		c4.59985-9.67999,16.17993-13.81,25.86987-9.21997C186.13441,316.15997,190.26442,327.75,185.66432,337.44z M261.50439,160.82001
		l-25.82005,54.46997l-3.83997,8.12L227.00441,233.62l13.66992,28.84998l28.53001-70.53998
		C274.16431,178.63,261.50439,160.82001,261.50439,160.82001z"/>
</g>
<g>
	<path fill="#010101" d="M250.28444,220.68712l-6.30005,3.03998l-0.90002-1.87
		c-17.75562-25.12984-39.09558-51.38161-33.43005-69.17999l-0.88989-1.83997l6.30005-3.05005l3.66992,7.59003
		c-8.12915,13.43678,12.49182,36.74336,28.18994,58.35999L250.28444,220.68712z"/>
</g>
<path fill="#010101" d="M128.70428,75.26881c8.75957,6.11206,17.74844,5.82648,26.93582,0
	C146.45277,68.43516,137.46394,68.10021,128.70428,75.26881z"/>
</svg>
