<svg xmlns="http://www.w3.org/2000/svg" viewBox="0 0 209.97454 180.44714">
  <title>icon</title>
  <g id="logo">
    <g>
      <polygon points="108 175.512 23.063 177.387 0 159.949 125.438 159.949 108 175.512" fill="#451a14"/>
      <path d="M196.3125,89.16977c0,48.04973-37.12128,78.467-84.39341,78.467S25.125,137.2195,25.125,89.16977,63.44663,2.168,110.71875,2.168,196.3125,41.12,196.3125,89.16977Z" fill="#06adef"/>
      <path d="M80.71875,50.82429S75.375,2.63679,127.125,3.76179c0,0-64.125-10.5-78,31.875" fill="#fff"/>
      <path d="M103.55378,156.109,86.98657,121.85208a60.95179,60.95179,0,0,1,15.914-73.40475,367.65014,367.65014,0,0,0,37.11579-35.048l2.91971-3.20013,6.78747,8.96927a116.6678,116.6678,0,0,1,18.54459,34.75881Zm0,0" fill="#00cc76"/>
      <path d="M141.75,10.01173s10.06252,35.43755,1.81252,56.06255l26.71875-2.25L168.75,52.38673Z" fill="#096"/>
      <path d="M108.28125,80.918s-11.53125,7.03125-9,28.6875l-24.1875-23.625Z" fill="#451a14"/>
      <path d="M145.88039,32.14483a49.63976,49.63976,0,0,1,1.36572,8.88812l.14819,2.24537.05713,2.24163c.04639,1.49775.0376,2.99268-.0083,4.484a132.98692,132.98692,0,0,1-1.6792,17.81037,119.83745,119.83745,0,0,1-4.15259,17.433c-.45459,1.42731-.9414,2.84583-1.50878,4.24365l-.82911,2.095c-.29614.69195-.62548,1.37628-.94384,2.05871l-.99439,2.0285c-.376.6612-.73657,1.325-1.13159,1.9693a27.70487,27.70487,0,0,1-2.60986,3.68164c.22216-.72729.47314-1.426.70239-2.12725a17.27708,17.27708,0,0,0,.63843-2.11133c.17993-.71552.394-1.4115.593-2.11017l.48609-2.14539c.3584-1.411.65014-2.8435.93921-4.2763l.45117-2.138.40137-2.1543c1.09692-5.73059,2.06616-11.48688,3.02514-17.25146q1.403-8.65393,2.70874-17.3404C144.40138,43.86413,145.27858,38.09637,145.88039,32.14483Z" fill="#451a14"/>
      <path d="M103.55378,156.109,86.98657,121.85208a60.95179,60.95179,0,0,1,15.914-73.40475,367.65014,367.65014,0,0,0,37.11579-35.048l2.91971-3.20013,6.78747,8.96927c8.37726,11.06672,17.06277,28.79358,20.839,40.71828Zm0,0" fill="none" stroke="#451a14" stroke-miterlimit="10" stroke-width="4.43437"/>
      <path d="M192.73791,60.92842,188.25,51.76179l-1.73988-.25256c-9.9093,3.96618-20.01092,7.40222-30.24206,10.41809q-9.153,2.70043-18.43024,4.97388A60.951,60.951,0,0,0,91.5537,126.05659V164.109l10.54,11.59033C175.88269,175.69929,203.41741,114.306,192.73791,60.92842Z" fill="#00cc76"/>
      <path d="M190.125,64.13679s-30.84375,32.0625-105.46875,40.6875L147,133.88679l20.25-28.125,24.68811-43.42651Z" fill="#096"/>
      <polygon points="128.531 90.762 171.469 97.606 154.219 72.856 128.531 90.762" fill="#00cc76"/>
      <path d="M171.84375,98.35554s-1.40625,19.40625,5.34375,37.125l-41.625.5625Z" fill="#096"/>
      <path d="M140.25,132.76179l29.25,16.875,19.875-33,1.39612-10.5487C179.7074,138.34077,147,133.88679,147,133.88679" fill="#451a14"/>
      <path d="M180.99049,81.38586a98.39417,98.39417,0,0,1-10.426,25.24664,102.937,102.937,0,0,1-16.91358,21.78876A94.60323,94.60323,0,0,1,131.313,144.69885a84.41525,84.41525,0,0,1-25.938,8.68793,216.76448,216.76448,0,0,0,23.11279-13.41156,147.07567,147.07567,0,0,0,20.26855-16.55536,168.83622,168.83622,0,0,0,17.23243-19.81238C171.29518,96.549,176.10939,89.06921,180.99049,81.38586Z" fill="#451a14"/>
      <path d="M186.51012,51.50923c-9.9093,3.96618-20.01092,7.40222-30.24206,10.41809q-9.153,2.70043-18.43024,4.97388a60.65742,60.65742,0,0,0-21.19122,9.87541" fill="none" stroke="#451a14" stroke-miterlimit="10" stroke-width="4.43437"/>
      <circle cx="110.87498" cy="86.51185" r="84.49994" fill="none" stroke="#451a14" stroke-miterlimit="10" stroke-width="4.02381"/>
      <path d="M80.625,98.64178s128.25,64.43484,127.125,76.07969-61.78125-9.42843-61.78125-9.42843S108,177.67959,73.125,174.57429s-79.5-39.44531-48.75-98.05773c0,0-4.5-45.80308,36.375-47.35573,0,0,21-2.399,41.625,4.97606Z" fill="#eb6331"/>
      <polygon points="114 155.262 126.75 171.387 144.75 165.387 114 155.262" fill="#451a14"/>
      <path d="M31.5,156.38679s-27.375-45.75,3.375-74.625c0,0,3.09375-27.28125,19.6875-38.25,4.797-3.1709-1.865-8.87623,3.9375-11.25,0,0-34.5-7.86546-34.125,44.25477C24.375,76.51656-4.125,118.13679,31.5,156.38679Z" fill="#fff"/>
      <path d="M55.40625,139.69929s17.15625,23.90625,58.21875,16.875L90.84375,142.23054Z" fill="#451a14"/>
      <polygon points="40.5 91.887 51.75 113.543 60.188 102.293 40.5 91.887" fill="#451a14"/>
      <path d="M39.93752,90.48053a34.09659,34.09659,0,0,0,9.71313,6.17077A42.39752,42.39752,0,0,0,60.3362,99.53057c.92431.11206,1.84228.26874,2.7727.35743.9375.05438,1.87671.09454,2.81787.16558.4712.02759.94092.09516,1.41553.091l1.42749-.00934c.95337-.00549,1.91187.01166,2.87671.03815,1.9231-.07843,3.86816-.16639,5.85107-.1861a59.98507,59.98507,0,0,1,6.0337-.22552,54.9331,54.9331,0,0,1-5.53711,2.63214c-1.93018.64752-3.90821,1.217-5.91577,1.68719-1.01685.16583-2.0398.32233-3.06788.45618l-1.54492.19958c-.51636.05481-1.04077.03748-1.562.05915l-3.13965.01831c-1.04736-.071-2.0957-.22235-3.144-.33686a28.68867,28.68867,0,0,1-11.86133-4.39532,21.44709,21.44709,0,0,1-2.519-1.94855c-.39087-.35974-.78662-.70782-1.16431-1.07318L43.0237,95.87377A15.83214,15.83214,0,0,1,39.93752,90.48053Z" fill="#451a14"/>
      <path d="M81.5625,142.793,147,165.01179S201.65625,181.793,207.28125,176.543,143.625,132.38679,143.625,132.38679Z" fill="#06adef"/>
      <polygon points="102.656 149.824 164.813 144.481 144.844 132.668 102.656 149.824" fill="#451a14"/>
      <line x1="145.96875" y1="165.29304" x2="68.625" y2="138.76179" fill="none" stroke="#451a14" stroke-miterlimit="10" stroke-width="4.43437"/>
      <path d="M80.625,98.64178s128.25,64.43484,127.125,76.07969-61.78125-9.42843-61.78125-9.42843S110.8125,178.8867,73.125,174.57429c-34.786-3.9804-79.5-39.44531-48.75-98.05773,0,0-4.5-45.80308,36.375-47.35573,0,0,21-2.399,41.625,4.97606Z" fill="none" stroke="#451a14" stroke-miterlimit="10" stroke-width="4.43437"/>
      <path d="M98.36984,95.92376c-14.33544-4.40649-30.46862-1.54467-41.23625,7.88847-7.21345,6.31945-11.63829,15.19966-5.61046,27.07466,14.46678,28.5,94.45959,17.25,109.35187-15.75Z" fill="#eb6331"/>
      <path d="M51.52313,130.88689S64.125,96.01179,98.25,97.13679c0,0-36.75-13.875-49.875,21" fill="#fff"/>
      <path d="M73.5,145.51179s49.875-24,32.25-46.875l33.75,11.25-17.25,32.625S85.5,151.88679,73.5,145.51179Z" fill="#f9cd53"/>
      <path d="M76.125,145.13689s63.75-6.75,51.375-39.375l33.375,9.375S140.25,153.01189,76.125,145.13689Z" fill="#06adef"/>
      <path d="M98.36984,95.92376c-14.33544-4.40649-30.46862-1.54467-41.23625,7.88847-7.21345,6.31945-11.63829,15.19966-5.61046,27.07466,14.46678,28.5,94.45959,17.25,109.35187-15.75Z" fill="none" stroke="#451a14" stroke-miterlimit="10" stroke-width="5"/>
      <path d="M66.09375,29.06379S39.375,29.58235,41.625,56.07439s52.3125,11.8125,52.3125,11.8125l10.125-33S92.8125,27.8993,66.09375,29.06379Z" fill="#fff" stroke="#451a14" stroke-miterlimit="10" stroke-width="5.08699"/>
      <path d="M101.625,81.19929c8.01092-5.10149,16.26621,7.28354,16.26621,7.28354S152.46459,38.575,87.81238,29.93715c0,0,4.72934,19.14547-3.24988,32.88724-3.375,5.8124-16.3125.84365-17.625,12.46865C66.9375,75.293,64.09637,105.09817,101.625,81.19929Z" fill="#f9cd53"/>
      <path d="M89.15625,46.88679s22.5-8.71875,33.75-.84375c0,0-14.78149-17.02427-35.09387-16.10589Z" fill="#fff"/>
      <path d="M101.625,81.19929c8.374-4.48067,16.26621,7.28354,16.26621,7.28354S152.46459,38.575,87.81238,29.93715c0,0,4.72934,19.14547-3.24988,32.88724-3.375,5.8124-10.3125-2.4376-16.21875,8.8124C68.34375,71.63679,54.84375,106.23054,101.625,81.19929Z" fill="none" stroke="#451a14" stroke-miterlimit="10" stroke-width="4.43437"/>
      <path d="M70.47491,47.68468c.17166,6.116-2.41651,12.69592-5.83429,12.79185S58.26969,54.14809,58.098,48.03207s2.50318-9.60771,5.921-9.70364S70.30325,41.56866,70.47491,47.68468Z" fill="#451a14"/>
      <path d="M80.93752,71.13678a18.02869,18.02869,0,0,0,3.8269,5.38946,10.615,10.615,0,0,0,5.09131,2.55762,24.48238,24.48238,0,0,0,6.23291.353c2.21387-.09564,4.50049-.36,6.97388-.425a18.0495,18.0495,0,0,1-6.41138,3.51953,15.13591,15.13591,0,0,1-7.64942.459,10.48084,10.48084,0,0,1-6.665-4.48144A9.79979,9.79979,0,0,1,80.93752,71.13678Z" fill="#451a14"/>
      <ellipse cx="99.42188" cy="43.79304" rx="2.39063" ry="4.21875" fill="#451a14"/>
      <path d="M150.75,127.88679c-22.21875,14.90625-66.65625,0-66.65625,0Z" fill="#451a14"/>
      <polygon points="54.281 42.387 64.287 49.402 54.844 52.793 54.281 42.387" fill="#fff"/>
    </g>
  </g>
</svg>
