<svg id="icon" xmlns="http://www.w3.org/2000/svg" viewBox="0 0 360 359.99999">
  <title>icon</title>
  <path d="M179.5904,6.7964A173.58985,173.58985,0,1,0,353.1807,180.38618,173.59129,173.59129,0,0,0,179.5904,6.7964Zm119.31,268.17969a152.44595,152.44595,0,0,1-145.6699,55.39009h-.0098a152.27384,152.27384,0,1,1,145.6797-55.39009Z" fill="none" stroke="#231f20" stroke-linecap="round" stroke-linejoin="round" stroke-width="6.74532"/>
  <g>
    <polygon points="229.59 180.386 228.281 182.656 204.59 223.686 154.59 223.686 152.84 220.656 129.59 180.386 131.561 176.986 131.561 176.976 154.59 137.086 204.59 137.086 206.621 140.596 229.59 180.386" fill="#231f20"/>
    <path d="M204.5904,226.64409h-50a2.9578,2.9578,0,0,1-2.5616-1.4786l-25.0004-43.30031a2.95816,2.95816,0,0,1,.0024-2.96238l1.8887-3.2587c.0249-.04992.0512-.0987.0791-.147l23.0298-39.8897a2.95847,2.95847,0,0,1,2.562-1.479h50a2.95747,2.95747,0,0,1,2.5605,1.4766l25.0015,43.30218a2.958,2.958,0,0,1,.0005,2.95712L207.1524,225.165A2.95847,2.95847,0,0,1,204.5904,226.64409Zm-48.2925-5.9161h46.5845l23.2924-40.34129-23.2905-40.3423H156.2984l-22.0948,38.2701q-.03945.0783-.0834.1552l-1.1124,1.91948Z" fill="#231f20"/>
  </g>
  <path d="M326.6104,143.55418a.13907.13907,0,0,0-.02,0H206.6206a2.95745,2.95745,0,0,1-2.5605-1.47658l-1.1758-2.0332H158.0904a2.958,2.958,0,0,1-2.5992-4.3706L212.4414,30.8735a2.95731,2.95731,0,0,1,3.2857-1.4648A154.96508,154.96508,0,0,1,329.3565,139.4946a2.95982,2.95982,0,0,1-2.7461,4.05958Zm-118.2837-5.916H322.6753A149.046,149.046,0,0,0,216.5493,35.7046l-53.4848,98.4238h41.5259a2.95747,2.95747,0,0,1,2.5605,1.4766Z" fill="#231f20"/>
  <path d="M298.9004,277.93409h-.0268a2.95876,2.95876,0,0,1-2.3228-1.1607L225.9312,184.4536a2.95863,2.95863,0,0,1-.2129-3.27542l.4565-.79148-22.1162-38.31152a2.958,2.958,0,0,1,2.562-4.437H326.5904a2.95765,2.95765,0,0,1,2.8559,2.18752,155.78782,155.78782,0,0,1,5.3521,40.56048,153.56112,153.56112,0,0,1-33.5811,96.42921A2.95881,2.95881,0,0,1,298.9004,277.93409ZM231.8291,182.4258l67.0855,87.69969a147.61969,147.61969,0,0,0,29.9678-89.73931,150.00414,150.00414,0,0,0-4.5757-36.832H211.7442l20.4082,35.353a2.958,2.958,0,0,1,.0005,2.95712Z" fill="#231f20"/>
  <path d="M179.5904,335.604a156.08675,156.08675,0,0,1-26.8706-2.3242,2.95719,2.95719,0,0,1-2.19-4.1201L198.19,222.47949a2.95753,2.95753,0,0,1,2.7007-1.7515h1.9917l22.8364-39.55069a2.95808,2.95808,0,0,1,4.9116-.3184L301.25,273.17869a2.9578,2.9578,0,0,1-.0327,3.6362A154.47115,154.47115,0,0,1,179.5904,335.604Zm-22.0899-7.543a150.61933,150.61933,0,0,0,22.0899,1.627,148.5513,148.5513,0,0,0,115.5493-54.75981L228.6255,187.9756,207.1524,225.165a2.95847,2.95847,0,0,1-2.562,1.4791h-1.7813Z" fill="#231f20"/>
  <path d="M153.2305,333.32418h-.0098a2.96269,2.96269,0,0,1-.5088-.04389A155.07439,155.07439,0,0,1,32.7222,230.73539a2.95768,2.95768,0,0,1,2.5688-3.90821L152.6109,217.707a2.96266,2.96266,0,0,1,2.791,1.4698l.896,1.5512h44.5928a2.9579,2.9579,0,0,1,2.7006,4.1646l-47.6601,106.6802A2.95744,2.95744,0,0,1,153.2305,333.32418ZM39.6075,232.42579A149.1456,149.1456,0,0,0,151.4761,327.041l44.853-100.3969H154.5904a2.9578,2.9578,0,0,1-2.5616-1.4786l-.8178-1.4155Z" fill="#231f20"/>
  <path d="M35.5191,232.73439a2.9576,2.9576,0,0,1-2.7969-1.9986A155.43335,155.43335,0,0,1,64.9873,75.71a2.958,2.958,0,0,1,4.6651.38618l64.3901,99.27a2.96154,2.96154,0,0,1,.4761,1.60992,2.99513,2.99513,0,0,1-.3984,1.4936l-1.1124,1.91948,22.3946,38.78811a2.95841,2.95841,0,0,1-2.3325,4.4282L35.75,232.72559C35.6724,232.73149,35.5957,232.73439,35.5191,232.73439ZM66.7989,82.5693A149.54,149.54,0,0,0,37.5938,226.648l110.3379-8.5772-20.9033-36.20561a2.95816,2.95816,0,0,1,.0024-2.96238l1.0635-1.8349Z" fill="#231f20"/>
  <path d="M131.5601,179.9341a2.95834,2.95834,0,0,1-2.4815-1.3482l-64.3901-99.27a2.95871,2.95871,0,0,1,.2983-3.6054A155.47985,155.47985,0,0,1,215.7266,29.4087a2.958,2.958,0,0,1,1.9131,4.29L160.6895,138.499a2.95783,2.95783,0,0,1-2.5991,1.5454h-1.792l-22.1758,38.4107a2.958,2.958,0,0,1-2.4854,1.478C131.6118,179.9341,131.586,179.9341,131.5601,179.9341ZM70.9063,78.0293l60.5073,93.2847,20.6148-35.7066a2.95847,2.95847,0,0,1,2.562-1.479h1.7407l54.2407-99.8139A149.56267,149.56267,0,0,0,70.9063,78.0293Z" fill="#231f20"/>
</svg>
