<svg id="icon" xmlns="http://www.w3.org/2000/svg" viewBox="0 0 360 360">
  <title>icon</title>
  <g>
    <path d="M188.3731,169.78808a2.47516,2.47516,0,0,1,.247.15479v-.01465C188.5122,169.86572,188.4038,169.80419,188.3731,169.78808Zm10.4995,5.15723a2.03033,2.03033,0,0,0,.2793.10888v-.01562Z" fill="#231f20"/>
    <path d="M94.4605,162.44775a.61854.61854,0,0,1,.1699,0v-.01563C94.5684,162.43212,94.5225,162.44775,94.4605,162.44775ZM17.9707,197.9746v.062c.1089-.3252.2329-.6504.3721-.9604A9.27629,9.27629,0,0,0,17.9707,197.9746Z" fill="#231f20"/>
    <path d="M296.9512,122.8633c1.1152-2.0601,2.1372-4.166,3.0971-6.3032C299.0884,118.6973,298.0508,120.8032,296.9512,122.8633Zm-25.6153,52.88718c2.292.37207,4.522.82129,6.7061,1.333C275.8428,176.55615,273.6128,176.12255,271.3359,175.75048Z" fill="#231f20"/>
    <path d="M215.103,175.64257c1.4864-.54248,2.958-1.03759,4.3828-1.50244C218.061,174.58935,216.5894,175.10009,215.103,175.64257Zm-4.7231,1.27c.186,0,.3711-.03125.5571-.04638a.05585.05585,0,0,0,.0469-.01612C210.7822,176.88134,210.5811,176.897,210.3799,176.91259Zm-4.2593-.1084c-.124-.01562-.2627-.03125-.4028-.04687a3.03793,3.03793,0,0,0,.4028.062c.1553.01611.3096.03076.4644.04688C206.4302,176.85009,206.2759,176.81933,206.1206,176.80419Zm8.9824-1.16162c1.4864-.54248,2.958-1.03759,4.3828-1.50244C218.061,174.58935,216.5894,175.10009,215.103,175.64257Zm-4.7231,1.27c.186,0,.3711-.03125.5571-.04638a.05585.05585,0,0,0,.0469-.01612C210.7822,176.88134,210.5811,176.897,210.3799,176.91259Zm-4.2593-.1084c-.124-.01562-.2627-.03125-.4028-.04687a3.03793,3.03793,0,0,0,.4028.062c.1553.01611.3096.03076.4644.04688C206.4302,176.85009,206.2759,176.81933,206.1206,176.80419Zm8.9824-1.16162c1.4864-.54248,2.958-1.03759,4.3828-1.50244C218.061,174.58935,216.5894,175.10009,215.103,175.64257Zm-4.7231,1.27c.186,0,.3711-.03125.5571-.04638a.05585.05585,0,0,0,.0469-.01612C210.7822,176.88134,210.5811,176.897,210.3799,176.91259Zm-4.2593-.1084c-.124-.01562-.2627-.03125-.4028-.04687a3.03793,3.03793,0,0,0,.4028.062c.1553.01611.3096.03076.4644.04688C206.4302,176.85009,206.2759,176.81933,206.1206,176.80419Zm8.9824-1.16162c1.4864-.54248,2.958-1.03759,4.3828-1.50244C218.061,174.58935,216.5894,175.10009,215.103,175.64257Zm-4.7231,1.27c.186,0,.3711-.03125.5571-.04638a.05585.05585,0,0,0,.0469-.01612C210.7822,176.88134,210.5811,176.897,210.3799,176.91259Zm-4.2593-.1084c-.124-.01562-.2627-.03125-.4028-.04687a3.03793,3.03793,0,0,0,.4028.062c.1553.01611.3096.03076.4644.04688C206.4302,176.85009,206.2759,176.81933,206.1206,176.80419Zm8.9824-1.16162c1.4864-.54248,2.958-1.03759,4.3828-1.50244C218.061,174.58935,216.5894,175.10009,215.103,175.64257Zm-4.7231,1.27c.186,0,.3711-.03125.5571-.04638a.05585.05585,0,0,0,.0469-.01612C210.7822,176.88134,210.5811,176.897,210.3799,176.91259Zm-4.2593-.1084c-.124-.01562-.2627-.03125-.4028-.04687a3.03793,3.03793,0,0,0,.4028.062c.1553.01611.3096.03076.4644.04688C206.4302,176.85009,206.2759,176.81933,206.1206,176.80419Zm0,0c-.124-.01562-.2627-.03125-.4028-.04687a3.03793,3.03793,0,0,0,.4028.062c.1553.01611.3096.03076.4644.04688C206.4302,176.85009,206.2759,176.81933,206.1206,176.80419Zm4.2593.1084c.186,0,.3711-.03125.5571-.04638a.05585.05585,0,0,0,.0469-.01612C210.7822,176.88134,210.5811,176.897,210.3799,176.91259Zm4.7231-1.27c1.4864-.54248,2.958-1.03759,4.3828-1.50244C218.061,174.58935,216.5894,175.10009,215.103,175.64257Zm-8.9824,1.16162c-.124-.01562-.2627-.03125-.4028-.04687a3.03793,3.03793,0,0,0,.4028.062c.1553.01611.3096.03076.4644.04688C206.4302,176.85009,206.2759,176.81933,206.1206,176.80419Zm4.2593.1084c.186,0,.3711-.03125.5571-.04638a.05585.05585,0,0,0,.0469-.01612C210.7822,176.88134,210.5811,176.897,210.3799,176.91259Zm4.7231-1.27c1.4864-.54248,2.958-1.03759,4.3828-1.50244C218.061,174.58935,216.5894,175.10009,215.103,175.64257Zm-8.9824,1.16162c-.124-.01562-.2627-.03125-.4028-.04687a3.03793,3.03793,0,0,0,.4028.062c.1553.01611.3096.03076.4644.04688C206.4302,176.85009,206.2759,176.81933,206.1206,176.80419Zm4.2593.1084c.186,0,.3711-.03125.5571-.04638a.05585.05585,0,0,0,.0469-.01612C210.7822,176.88134,210.5811,176.897,210.3799,176.91259Zm4.7231-1.27c1.4864-.54248,2.958-1.03759,4.3828-1.50244C218.061,174.58935,216.5894,175.10009,215.103,175.64257Zm0,0c1.4864-.54248,2.958-1.03759,4.3828-1.50244C218.061,174.58935,216.5894,175.10009,215.103,175.64257Zm-4.7231,1.27c.186,0,.3711-.03125.5571-.04638a.05585.05585,0,0,0,.0469-.01612C210.7822,176.88134,210.5811,176.897,210.3799,176.91259Zm-4.2593-.1084c-.124-.01562-.2627-.03125-.4028-.04687a3.03793,3.03793,0,0,0,.4028.062c.1553.01611.3096.03076.4644.04688C206.4302,176.85009,206.2759,176.81933,206.1206,176.80419Zm8.9824-1.16162c1.4864-.54248,2.958-1.03759,4.3828-1.50244C218.061,174.58935,216.5894,175.10009,215.103,175.64257Zm-4.7231,1.27c.186,0,.3711-.03125.5571-.04638a.05585.05585,0,0,0,.0469-.01612C210.7822,176.88134,210.5811,176.897,210.3799,176.91259Zm-4.2593-.1084c-.124-.01562-.2627-.03125-.4028-.04687a3.03793,3.03793,0,0,0,.4028.062c.1553.01611.3096.03076.4644.04688C206.4302,176.85009,206.2759,176.81933,206.1206,176.80419Zm13.2568-56.605a141.539,141.539,0,0,1-3.4843,15.7818,138.35772,138.35772,0,0,0,3.4995-15.7818c.0781-.4487.1401-.8823.2012-1.3008C219.5166,119.3169,219.4546,119.7505,219.3774,120.1992Zm-13.2568,56.605c-.124-.01562-.2627-.03125-.4028-.04687a3.03793,3.03793,0,0,0,.4028.062c.1553.01611.3096.03076.4644.04688C206.4302,176.85009,206.2759,176.81933,206.1206,176.80419Zm4.2593.1084c.186,0,.3711-.03125.5571-.04638a.05585.05585,0,0,0,.0469-.01612C210.7822,176.88134,210.5811,176.897,210.3799,176.91259Zm4.7231-1.27c1.4864-.54248,2.958-1.03759,4.3828-1.50244C218.061,174.58935,216.5894,175.10009,215.103,175.64257Zm-8.9824,1.16162c-.124-.01562-.2627-.03125-.4028-.04687a3.03793,3.03793,0,0,0,.4028.062c.1553.01611.3096.03076.4644.04688C206.4302,176.85009,206.2759,176.81933,206.1206,176.80419Zm4.2593.1084c.186,0,.3711-.03125.5571-.04638a.05585.05585,0,0,0,.0469-.01612C210.7822,176.88134,210.5811,176.897,210.3799,176.91259Zm4.7231-1.27c1.4864-.54248,2.958-1.03759,4.3828-1.50244C218.061,174.58935,216.5894,175.10009,215.103,175.64257Zm-8.9824,1.16162c-.124-.01562-.2627-.03125-.4028-.04687a3.03793,3.03793,0,0,0,.4028.062c.1553.01611.3096.03076.4644.04688C206.4302,176.85009,206.2759,176.81933,206.1206,176.80419Zm4.2593.1084c.186,0,.3711-.03125.5571-.04638a.05585.05585,0,0,0,.0469-.01612C210.7822,176.88134,210.5811,176.897,210.3799,176.91259Zm4.7231-1.27c1.4864-.54248,2.958-1.03759,4.3828-1.50244C218.061,174.58935,216.5894,175.10009,215.103,175.64257Zm-8.9824,1.16162c-.124-.01562-.2627-.03125-.4028-.04687a3.03793,3.03793,0,0,0,.4028.062c.1553.01611.3096.03076.4644.04688C206.4302,176.85009,206.2759,176.81933,206.1206,176.80419Zm4.2593.1084c.186,0,.3711-.03125.5571-.04638a.05585.05585,0,0,0,.0469-.01612C210.7822,176.88134,210.5811,176.897,210.3799,176.91259Zm4.7231-1.27c1.4864-.54248,2.958-1.03759,4.3828-1.50244C218.061,174.58935,216.5894,175.10009,215.103,175.64257Zm-8.9824,1.16162c-.124-.01562-.2627-.03125-.4028-.04687a3.03793,3.03793,0,0,0,.4028.062c.1553.01611.3096.03076.4644.04688C206.4302,176.85009,206.2759,176.81933,206.1206,176.80419Zm4.2593.1084c.186,0,.3711-.03125.5571-.04638a.05585.05585,0,0,0,.0469-.01612C210.7822,176.88134,210.5811,176.897,210.3799,176.91259Zm4.7231-1.27c1.4864-.54248,2.958-1.03759,4.3828-1.50244C218.061,174.58935,216.5894,175.10009,215.103,175.64257Z" fill="#231f20"/>
    <path d="M152.2881,144.0957c-.2012-.4644-.3872-.9292-.5571-1.4097.1699.4492.3408.9141.5263,1.3633-.1543-.0928-.2944-.2016-.4487-.2788C151.9629,143.8638,152.1333,143.9878,152.2881,144.0957Zm0,0c-.2012-.4644-.3872-.9292-.5571-1.4097.1699.4492.3408.9141.5263,1.3633-.1543-.0928-.2944-.2016-.4487-.2788C151.9629,143.8638,152.1333,143.9878,152.2881,144.0957Zm0,0c-.2012-.4644-.3872-.9292-.5571-1.4097.1699.4492.3408.9141.5263,1.3633-.1543-.0928-.2944-.2016-.4487-.2788C151.9629,143.8638,152.1333,143.9878,152.2881,144.0957Zm0,0c-.2012-.4644-.3872-.9292-.5571-1.4097.1699.4492.3408.9141.5263,1.3633-.1543-.0928-.2944-.2016-.4487-.2788C151.9629,143.8638,152.1333,143.9878,152.2881,144.0957Z" fill="#231f20"/>
    <path d="M214.6538,157.9409c-.1084.2632-.2163.5112-.3252.77443.124-.247.232-.51123.3408-.77443.2481-.6035.5113-1.2236.7745-1.8428C215.1807,156.7173,214.9175,157.3374,214.6538,157.9409ZM144.8545,90.2168c.186-1.6567.4019-3.3145.6665-4.9863C145.2564,86.9023,145.0249,88.5601,144.8545,90.2168Z" fill="#231f20"/>
    <path d="M227.1982,99.4009v.0151c.2789-.2783.5572-.5415.8365-.8052Q227.61575,99.00635,227.1982,99.4009ZM217.395,72.1597c.5581,2.1523,1.0532,4.3047,1.4864,6.4726C218.4634,76.48,217.9683,74.312,217.395,72.1597Zm-1.9199-6.4737c.7124,2.1367,1.3472,4.2901,1.9199,6.458C216.8374,69.9907,216.1875,67.8227,215.4751,65.686Z" fill="#231f20"/>
    <path d="M336.0864,202.7598q-.7668-.7434-1.58-1.4869c-2.1675-2.0127-4.5528-4.0727-7.1387-6.1474-.6353-.5274-1.2705-1.0381-1.9361-1.5342-.4653-.3711-.914-.7119-1.3784-1.0684-.5571-.4331-1.1303-.8515-1.7187-1.2695-.124-.0928-.2324-.186-.3565-.2632-.6811-.4956-1.3623-.9912-2.0756-1.4873-.5103-.3559-1.0215-.7124-1.5328-1.0527-1.2856-.8833-2.6172-1.7495-3.9799-2.6021-.1241-.0771-.2481-.1552-.3873-.247-.666-.4034-1.3471-.8213-2.0288-1.2237-1.2705-.7592-2.5859-1.5029-3.9184-2.2461-1.2388-.6811-2.4932-1.3476-3.7788-1.9819-.8203-.418-1.6416-.8208-2.4781-1.2231-.1543-.0625-.2939-.1402-.4492-.2022-.8515-.40233-1.7031-.78953-2.5703-1.17674q-.2094-.093-.418-.186c-.8056-.34033-1.6108-.68115-2.4321-1.022-.8974-.37158-1.812-.72754-2.7412-1.084a.78775.78775,0,0,1-.1699-.062c-.9917-.37207-1.9819-.728-2.9888-1.06835q-1.46415-.512-2.9272-.97559a1.92154,1.92154,0,0,0-.2788-.07764q-1.48695-.46435-2.9737-.88281c-2.1059-.58789-4.2588-1.13037-6.4575-1.5957-1.0996-.23194-2.1992-.44922-3.3144-.65039q-1.69635-.30177-3.3916-.55714c-1.1304-.16992-2.2613-.31006-3.4224-.44873h-.1084c-1.1304-.13965-2.292-.248-3.4536-.34131.2944-.20117.5576-.3872.8359-.58837,1.3472-.94434,2.6489-1.90479,3.9336-2.86523.5581-.418,1.1152-.85157,1.6577-1.26954q3.4608-2.6953,6.6436-5.54445c.7275-.6504,1.4555-1.3008,2.1679-1.9819a2.81106,2.81106,0,0,0,.3096-.2944c.6509-.6041,1.3013-1.2232,1.9356-1.8589.2793-.2627.5581-.542.8364-.8203.5732-.5577,1.1309-1.1465,1.6885-1.7198.2324-.247.4643-.48.6967-.7275.6192-.666,1.2393-1.3311,1.8428-2.0137q.37215-.394.6973-.789c.5884-.6353,1.1465-1.3008,1.7036-1.9522a111.90688,111.90688,0,0,0,8.5947-11.5371c.6353-.9756,1.2549-1.9517,1.8589-2.958q1.6026-2.60235,3.0195-5.2964c.233-.4185.4649-.8364.6661-1.2544.8056-1.5176,1.5649-3.0664,2.2768-4.6304.3252-.6665.6348-1.3476.9287-2.0288.3721-.79.7124-1.5957,1.0386-2.4013.2783-.6499.541-1.3155.7891-1.9815a8.20142,8.20142,0,0,0,.3413-.8525c.3091-.8047.6191-1.626.9135-2.4463.294-.7901.5733-1.5796.8365-2.3848.5571-1.6416,1.0835-3.2837,1.5634-4.9717.2481-.8359.4805-1.6723.7124-2.5244.233-.8369.4493-1.6718.6514-2.5244.0147-.0151.0147-.0151.0147-.0312.1704-.6504.3252-1.2852.4643-1.9507q.93015-3.972,1.627-8.0845a161.67564,161.67564,0,0,1,28.9448,92.8594,166.038,166.038,0,0,1-2.2461,27.164C340.0044,206.6001,338.1616,204.7114,336.0864,202.7598Z" fill="#231f20"/>
    <path d="M316.1577,79.439a158.43237,158.43237,0,0,0,.8799-16.94,3.10563,3.10563,0,0,0-3.0498-3.1001h-.3301a121.85438,121.85438,0,0,0-15.6201,1.2202,151.11087,151.11087,0,0,0-31.1597,7.6202,139.745,139.745,0,0,0-11.04-38.2002c-.4199-.98-.8901-1.9703-1.3403-2.9502-.3096-.6797-.6197-1.3599-.96-2.0596a3.0831,3.0831,0,0,0-4.0498-1.4502s-.7202.3101-1.9902.9697c-.6197.3101-1.3697.7202-2.1597,1.1802a151.19839,151.19839,0,0,0-30.4502,22.3198c-.1699-.3296-.3301-.6499-.5-.98-.4199-.8295-.8501-1.6699-1.2798-2.4897-1.27-2.3901-2.7002-4.8198-4.3403-7.4399l-.3096-.4903c-.2803-.4399-.56-.8799-.8501-1.3301-.6802-1.0395-1.3799-2.0795-2.0801-3.0898-.52-.77-1.0498-1.5098-1.6098-2.29a1.54131,1.54131,0,0,1-.1001-.1402,2.87593,2.87593,0,0,0-.19-.2397c-.4199-.5801-.8501-1.1699-1.29-1.75-.8003-1.0899-1.6499-2.19-2.4702-3.21-.5298-.6699-1.0698-1.3501-1.6597-2.06-.02-.0298-.0801-.1099-.1103-.1202l-.23-.2797c-.6201-.75-1.2398-1.4903-1.8101-2.1402-.5796-.6802-1.1596-1.3501-1.75-2.0097-.75-.8404-1.52-1.6905-2.3296-2.5601-.8603-.9102-1.75-1.8403-2.6001-2.7202-.52-.5498-1.0503-1.0899-1.6103-1.6499a3.11208,3.11208,0,0,0-4.3399-.0298s-.54.5298-1.54,1.5796A151.4485,151.4485,0,0,0,156.938,49.3892a138.27506,138.27506,0,0,0-36.8804-25.6099l-.2099-.1104c-.2701-.1396-.5298-.2597-.6997-.3398-.67-.3398-1.3604-.6699-2.0601-.98a3.1021,3.1021,0,0,0-4.0903,1.44s-.3199.6899-.8999,1.9902q-.20955.4797-.4497,1.0796l-.1202.31A152.9632,152.9632,0,0,0,101.0376,71.729c-.4097-.1299-.8496-.27-1.2998-.3901-7.96-2.3199-23.9102-6.2598-41.0801-6.5201-.6797-.0297-1.3701-.0297-2.0498-.0297a3.1095,3.1095,0,0,0-3.0903,3.2299s.0102.25.04.75A169.12319,169.12319,0,0,0,10.9277,181.1689c0,5.5303.2803,11.1402.8199,16.71v.0303A169.58532,169.58532,0,0,0,180.5078,350.749c80.0298,0,149.8799-56.79,166.0601-135.04v-.02a.04041.04041,0,0,1,.02-.0401,171.517,171.517,0,0,0,3.5-34.48A167.73009,167.73009,0,0,0,316.1577,79.439Zm-50.77-4.0401a147.35784,147.35784,0,0,1,33.48-8.6396c5.1899-.7002,9.3403-.98,11.9399-1.1001-.0898,4.8896-.3999,9.6899-.9399,14.29q-.18015,1.6494-.4199,3.2998c-.1499,1.0801-.3101,2.1699-.4898,3.25-.0703.4199-.1304.8198-.2104,1.2403-.2696,1.6396-.5796,3.25-.94,4.8598-.0898.48-.1997.96-.31,1.44-.5098,2.2797-1.0699,4.5297-1.6997,6.7402-.6099,2.1396-1.2701,4.2598-2,6.3296-.3301.98-.6802,1.9399-1.0401,2.8804-.2602.6899-.5298,1.3696-.7998,2.0498-.2104.5297-.4101,1.0498-.6401,1.58-.3999.9898-.8203,1.9698-1.27,2.94-.96,2.1401-1.98,4.2397-3.1001,6.2998a1.34682,1.34682,0,0,1-.1802.3603c-.19.3697-.3696.7398-.5899,1.0996a1.30488,1.30488,0,0,1-.1098.1905c-.3701.6797-.7403,1.3598-1.1499,2.02-.3501.6597-.7403,1.2895-1.1304,1.9199-1.3896,2.2798-2.8599,4.5098-4.4297,6.6797q-.52515.79545-1.1103,1.5303c-.4497.6396-.9297,1.2597-1.4097,1.8598-.3203.44-.6699.8702-1.02,1.2998-.6201.7901-1.2603,1.5503-1.9102,2.3301-.6499.75-1.2998,1.5103-1.9599,2.27-.6499.73-1.2998,1.44-1.9898,2.1499-.5703.6202-1.1601,1.2403-1.7803,1.8501-1.1001,1.1299-2.2299,2.21-3.3701,3.3003-.5298.4898-1.06.9698-1.5996,1.4698-.2104.2002-.4302.3798-.6504.5903-.7998.7197-1.6396,1.4399-2.48,2.1299-.8598.7597-1.7597,1.4897-2.6796,2.1997-.8902.75-1.8204,1.45994-2.75,2.16014-.9302.71-1.8902,1.3999-2.8501,2.08984-1.2901.91016-2.6001,1.82031-3.9502,2.68994-.8199.56006-1.67,1.1001-2.5298,1.64014-.8301.54-1.7002,1.07031-2.5703,1.60009h-.0098c-.6201.00977-1.2402.04-1.9702.06006-.6597.02979-1.3296.06006-1.9697.10987-.8003.04-1.6099.10986-2.4302.18017-.71.04981-1.4199.12988-2.1299.18994l-3.0498.35987c-.7603.09033-1.5103.20019-2.3003.32031l-3.4399.56983c-1.1402.21972-2.2901.43994-3.42.68994a7.68845,7.68845,0,0,0-.77.16992c-.81.1499-1.6299.3501-2.3598.54-.5103.10986-1.0201.25-1.48.37012-.5401.12011-1.0904.27978-1.6104.41992-.7197.18017-1.4096.37988-2,.56006-.5.12011-.98.25976-1.4399.41015l-.6099.18994a.64439.64439,0,0,0-.1499.04981c-.7002.21-1.4101.43018-2.1201.66016-1.4302.46972-2.8999.96-4.3799,1.5-.75.27-1.4902.5498-2.25.83984-.25.06006-.48.12012-.73.16992-.1499.03027-.3203.06006-.4799.09033a6.62383,6.62383,0,0,1-.6602.10987.05469.05469,0,0,1-.0498.02c-.1904.00976-.3701.04-.5601.04-.5703.0498-1.1103.08007-1.6103.08007h-.1196c-.5401,0-1.0601-.03027-1.6104-.08007-.1396-.01026-.2998-.03028-.4497-.04-.1602-.02-.3101-.03028-.4702-.0503a2.40254,2.40254,0,0,1-.3999-.05957c-.1201-.02-.25-.03027-.3701-.05029.6499-1.12988,1.2402-2.19971,1.7802-3.21973.73-1.32031,1.44-2.66015,2.17-4.09033.6499-1.27,1.2998-2.56982,1.9199-3.86963l.1401-.28027c.2598-.56006.5401-1.10986.7598-1.62012.6802-1.43994,1.4502-3.1499,2.2099-4.90967.1104-.27.2203-.51023.3301-.78023.2603-.6001.52-1.2198.7901-1.8399.2602-.6201.52-1.2602.77-1.8901a156.07217,156.07217,0,0,0,9.2798-33c.31-1.8799.5503-3.6001.7402-5.25.1602-1.2998.29-2.6099.4199-3.9102.1201-1.2998.23-2.5796.3101-3.8799.0898-1.3701.1499-2.7099.1699-4.08.0503-1.0796.0601-2.1597.0601-3.25v-1.44c.2802-.2597.56-.52.8398-.79,1.3604-1.2798,2.77-2.5401,4.21-3.75.3603-.3101.7304-.6196,1.1001-.9097,1.75-1.4599,3.5503-2.8301,5.3999-4.1699.4204-.3203.8403-.6104,1.2602-.8901.7901-.5801,1.5899-1.1202,2.4102-1.6499.5298-.3702,1.0698-.71,1.6098-1.0503.4102-.2598.8101-.5098,1.21-.7598.3101-.2002.6201-.3804.9302-.5703s.6196-.3696.9297-.5601c1.1601-.6997,2.3403-1.3799,3.5503-2.0097,1.02-.5899,2.0698-1.1299,3.1298-1.67.9302-.4799,1.8702-.9502,2.8101-1.3999.8398-.4004,1.6899-.8003,2.54-1.1704.9497-.4399,1.9097-.8598,2.8697-1.2597C263.1079,76.3091,264.2378,75.8491,265.3877,75.3989Zm-17.02-44.2798q.49515-.28485.9302-.5102c.29.6304.5898,1.27.8701,1.9204A133.52208,133.52208,0,0,1,260.9277,70.519c-.3999.17-.7998.3399-1.2099.5103-.8501.3599-1.69.71-2.5098,1.0796-.6504.3003-1.3003.5903-1.9302.8901q-2.625,1.1997-5.1699,2.5498c-.31.1602-.6201.3101-.9199.4805-.3101.1597-.6001.3096-.9004.48-.8896.48-1.79.98-2.6797,1.4897-.3799.2202-.77.4302-1.1401.6602-.3701.2197-.75.4399-1.1201.6699-.8799.5298-1.75,1.0698-2.6099,1.6099-1.0898.6801-2.1401,1.3798-3.1802,2.1098-1.04.7105-2.06,1.4405-3.0698,2.1704-.6602.48-1.3101.9698-1.96,1.4698-.9799.7402-1.9399,1.5-2.8798,2.27-.9502.7803-1.8804,1.5703-2.7901,2.3598-.0303-.4497-.0801-.9199-.1201-1.4399-.0698-.7798-.1401-1.5498-.2402-2.3398-.0298-.3101-.0596-.6202-.0899-.9502l-.0498-.3799c-.0703-.6699-.1699-1.3501-.2602-2a1.61019,1.61019,0,0,0-.0298-.2197c-.1201-.9302-.2603-1.8604-.4199-2.8003,0-.0201,0-.0498-.0103-.0601a.19583.19583,0,0,0-.02-.0996c-.1099-.7202-.23-1.4404-.3599-2.04-.0898-.5303-.2002-1.0503-.3198-1.6304a110.79179,110.79179,0,0,0-3.5801-13.6099c-.3203-1.0097-.6601-2-1-2.9101-.6899-1.92-1.4599-3.92-2.3003-5.8697-.1196-.3403-.2597-.6704-.4096-1.0102A146.17852,146.17852,0,0,1,248.3677,31.1191ZM160.6978,55.9893a145.78521,145.78521,0,0,1,24.8999-38.2701c.6401.6499,1.2602,1.3199,1.8603,1.96.7398.7998,1.4898,1.6196,2.23,2.4399.5596.6202,1.0898,1.23,1.6699,1.92.6099.6801,1.1699,1.3598,1.8301,2.1601l.25.2901c.5098.6196,1.02,1.25,1.5596,1.9497.8203,1.02,1.6103,2.06,2.3901,3.1001.4302.54.8301,1.1001,1.2803,1.7202l.2397.3398c.52.71,1.02,1.4199,1.5303,2.1499.6797.9903,1.3496,2,2,2.9702.2598.4097.52.8296.77,1.23l.3296.4898c1.5601,2.5,2.8901,4.8003,4.1001,7.06.4199.7803.8203,1.5498,1.2202,2.3701.7798,1.4898,1.52,3.0601,2.25,4.6299,0,.0401.02.0498.0298.0801.4199.8999.8203,1.7998,1.21,2.77q.58515,1.3353,1.1103,2.73a1.10979,1.10979,0,0,1,.0698.1602c.3399.8798.6802,1.7797,1,2.7099v.0098c.3399.8999.6499,1.8003.9502,2.73.71,2.1298,1.3599,4.3003,1.92,6.4502v.02c.5698,2.1499,1.0698,4.3198,1.4799,6.4697v.0303c.1001.4399.19.8701.2798,1.4096.1299.6504.25,1.3003.3399,1.9502a.6412.6412,0,0,1,.0302.1099.216.216,0,0,0,.0201.1104c.1401.8696.2597,1.7397.3901,2.6499.1099.6699.1797,1.3501.2598,1.9799l.06.4698c.02.25.0498.4799.0601.7202a.49606.49606,0,0,1,.02.1802c.0898.7099.1699,1.4199.23,2.1298l.02.17c.0298.33.04.6499.0801.9902.0298.3296.06.6699.0698,1.0298.0298.48.0601.9399.0801,1.4199a.44144.44144,0,0,0,.02.1602c.0298.52.0601,1.0498.0698,1.6098.0303.7901.0601,1.5801.0801,2.3701v.0601c.0601,3.1396,0,6.3501-.2202,9.6001-.0596,1.2397-.1699,2.48-.2798,3.7197-.1001,1.2403-.2402,2.48-.3999,3.73-.0903.79-.1802,1.5801-.3101,2.3999-.06.4199-.1098.8403-.1801,1.27-.0699.4199-.1299.8501-.21,1.3003a137.29243,137.29243,0,0,1-3.4897,15.7798,156.38992,156.38992,0,0,1-5.44,15.9399c-.48,1.21-.98,2.3999-1.5,3.5904-.8203,1.98-1.7104,3.88962-2.48,5.55954-.2202.5-.4702.98-.7002,1.46045l-.1499.31983q-.91545,1.93506-1.8501,3.71972c-.6899,1.3501-1.3701,2.66015-2.0898,3.96045-.7603,1.40967-1.5801,2.86963-2.54,4.50977v.02c-.0904-.04-.1802-.06983-.2803-.10987-.77-.28027-1.5698-.61035-2.3999-.98-.4102-.17041-.8301-.36035-1.27-.56005-1.1001-.51026-2.2398-1.08008-3.3999-1.7002-1.0103-.50977-2.0201-1.1001-3.0401-1.68994a.65275.65275,0,0,0-.1401-.08008c-.1099-.06982-.21-.12988-.2398-.1499-7.4399-4.3999-14.8701-10.04981-22.04-15.52006-1.3799-1.0498-2.7402-2.0698-4.0801-3.08-.48-.94-.9399-1.8902-1.3701-2.8501-.5898-1.2398-1.1499-2.48-1.6899-3.7198-.3301-.77-.6499-1.5503-.98-2.3398-.4199-1.0303-.8301-2.0903-1.2202-3.1504-.3399-.9297-.6797-1.8799-1.0098-2.8198-.3398-1.0103-.6602-2-.9702-3.0103-.02-.0698-.0498-.1699-.0796-.2597-.2803-.8799-.5303-1.7701-.7603-2.6299a2.48876,2.48876,0,0,1-.1098-.3902c-.2603-.9301-.5103-1.8398-.73-2.77-.2002-.81-.3799-1.6001-.5503-2.3999-.0698-.2803-.1299-.5801-.1899-.8701-.1997-.9302-.3897-1.8701-.5601-2.8198-.1499-.8404-.3096-1.6699-.4297-2.5103v-.0298c-.0801-.4502-.1401-.8798-.2002-1.3203-.3701-2.5195-.6499-5.0595-.81-7.5996-.0401-.56-.0699-1.1201-.1099-1.6699-.0298-.4502-.04-.9004-.04-1.3301-.0298-.4101-.0498-.79-.0498-1.2002-.0503-1.1601-.0601-2.3398-.0503-3.5v-.0097A114.57232,114.57232,0,0,1,160.6978,55.9893Zm-43.44-26.48.0801-.1704a131.71773,131.71773,0,0,1,36.8599,26.0503c-.3902.9096-.7598,1.83-1.1402,2.7397-.2099.5303-.4096,1.0703-.6098,1.5903-.21.48-.3799.96-.5601,1.44-.1997.5498-.3999,1.0898-.5898,1.6299a.03629.03629,0,0,1-.0201.0297c-.3501.9903-.6899,1.98-1.02,2.9903-.3501,1.0498-.6899,2.1098-1,3.1601-.3901,1.2701-.7602,2.5401-1.0898,3.8101-.3101,1.1597-.6001,2.3198-.8804,3.48q-.81,3.4944-1.4297,6.9697c-.1201.6699-.23,1.3301-.3403,2-.2598,1.6699-.48,3.3301-.6597,4.9902-.1899,1.6597-.3403,3.3101-.4502,4.9698v.0102c-.79-.6802-1.6001-1.3403-2.3999-2.0102-.8501-.6797-1.7099-1.3599-2.5698-2.0298-.7002-.52-1.4004-1.0503-2.1104-1.5801-1.0498-.77-2.1196-1.52-3.1899-2.2402-.5698-.4097-1.1597-.7901-1.77-1.1797-1.5098-1.0103-3.0601-1.9702-4.6299-2.8799q-.93015-.55515-1.8901-1.0801c-.6597-.3901-1.3399-.7602-2.0201-1.1201-1.0898-.5898-2.1899-1.1602-3.29-1.7002-1.0996-.5601-2.21-1.0898-3.3296-1.6099-.8301-.3901-1.6904-.7597-2.54-1.1201-2.4702-1.0698-5-2.06-7.5503-2.9599A146.43681,146.43681,0,0,1,117.2578,29.5093Zm-19.25,47.7798c1.6699.4799,3.2998.9902,4.8902,1.5097,1.0996.3604,2.1699.7305,3.2597,1.1304.96.3501,1.9199.6997,2.8599,1.0898.5703.2203,1.1504.4502,1.7002.7002.4399.17.8701.3399,1.29.5201.4502.1899.8799.3696,1.3198.5898.75.3101,1.5.6499,2.2403,1.02.54.25,1.0698.5,1.6001.7598.5097.25,1.02.5,1.5298.7803.9599.4599,1.8999.9599,2.83,1.4799.1001.0498.17.1001.25.1402.9502.5097,1.8902,1.0395,2.8199,1.6098.6801.3902,1.3501.7901,2.0102,1.21.9497.5698,1.8799,1.1802,2.8101,1.7998.48.3101.9599.6201,1.4199.96,1.0098.6601,1.98,1.3603,2.96,2.1001a5.91468,5.91468,0,0,1,.5297.3901c.7901.5698,1.5801,1.1802,2.3702,1.8101.2299.1699.4399.3398.6801.5498.8799.6899,1.7598,1.3999,2.6299,2.1601a.62872.62872,0,0,1,.0899.0801c.9199.77,1.81,1.5601,2.7099,2.3799.0801.0698.1402.1299.2002.1899.3902.3399.7798.7002,1.1499,1.0498v.0401c0,.8901.02,1.79.0503,2.7099v.2002c.0396.9102.0698,1.8399.1397,2.77q0,.3003.0302.6001c.0601,1.0201.1397,2.0498.2398,3.0699.1001.9902.1899,1.9799.3301,2.9702.2602,2.2998.6001,4.5898,1.04,6.8598.2002,1.0899.4199,2.19.6602,3.2701.2197,1.0498.4697,2.0898.7299,3.1499.5,1.9799,1.0401,3.9599,1.6597,5.9399.1104.4004.23.79.3701,1.1802a2.41593,2.41593,0,0,0,.1402.4302c.2299.75.4799,1.5.7397,2.25.27.77.54,1.5498.8403,2.3198.1797.5298.3697,1.04.5699,1.5498a.18783.18783,0,0,0,.0302.0801c.17.4799.3599.9399.5596,1.4101a5.09206,5.09206,0,0,0-.48-.3301c-.1499-.1098-.31-.2002-.4599-.29-.0401-.0298-.0801-.0601-.1099-.0801-.4702-.2998-.9302-.5698-1.3799-.8398-.5-.2901-.98-.5698-1.4399-.8301a38.12165,38.12165,0,0,0-3.6402-1.7998c-.56-.23-1.1201-.4302-1.6401-.6201-.27-.0899-.54-.1699-.8101-.25-.1997-.0601-.4199-.1001-.6196-.1699-.0903-.0103-.1802-.0401-.2803-.0601-.1997-.0498-.3999-.0898-.58-.1201-.25-.0498-.5-.0801-.73-.1099a4.2969,4.2969,0,0,0-.5098-.06c-.2803-.0201-.56-.0298-.8203-.0298a9.38131,9.38131,0,0,0-2.0796.2099c-7.1802,1.6597-9.7602,8.7398-11.4404,13.4297l-.5,1.3604c-2.4297,6.87986-4.1997,11.10984-9.2798,11.48a43.41425,43.41425,0,0,1-4.8101.08985c-.2998,0-.58-.01026-.8501-.03028-.6997-.02978-1.3999-.08984-2.08-.16992-.2896-.02978-.5899-.06006-.8697-.10986-.1001-.00977-.2299-.02979-.3403-.04h-.0098l-.02-.02c-1.27-1.02-2.52-2.08984-3.73-3.16016-.4799-.41992-.9502-.83984-1.3901-1.25-.1597-.13965-.2998-.26953-.4497-.41992-.3003-.27-.5903-.54-.9004-.83984q-.2094-.18018-.4199-.39014c-.1597-.14992-.2901-.29-.4199-.40962-.4898-.48-.9898-.96-1.4698-1.46-.5-.5-.9804-.9702-1.4404-1.4702-1.6099-1.69-3.1396-3.3902-4.6099-5.1402-.3901-.4497-.7797-.8999-1.1401-1.3701a110.06018,110.06018,0,0,1-6.6997-9.0595c-.3599-.5103-.7002-1.0303-1.04-1.5601-.2203-.3403-.4302-.6802-.6499-1.02-.3702-.5601-.71-1.1299-1.0503-1.69q-.19485-.3003-.3599-.5703c-.46-.7798-.9102-1.5498-1.3599-2.31-.1899-.3296-.3701-.6299-.54-.96-.25-.4297-.48-.8696-.7202-1.29-.3198-.5699-.6299-1.1299-.9199-1.6997-.3101-.5704-.6099-1.1402-.8999-1.7203-.3003-.5698-.5899-1.1396-.8702-1.6997q-2.46015-4.98045-4.4301-9.8501c-.4497-1.0703-.8697-2.1201-1.25-3.1801-.2198-.5201-.4097-1.0498-.5899-1.5801-.1997-.5098-.3901-1.0298-.5801-1.5601-.1796-.5097-.3696-1.0395-.54-1.5498-.3496-1.02-.6899-2.04-1.02-3.0498q-.25485-.7653-.48-1.5c-.0898-.2803-.1699-.5801-.2598-.8501-.1601-.5303-.31-1.04-.4702-1.5503-1.25-4.23-2.2397-8.2099-3.0298-11.8496-.1298-.5303-.2402-1.04-.3398-1.5503-.1304-.6196-.25-1.2197-.3804-1.8301-.1699-.8798-.3198-1.7299-.48-2.5498-.0996-.6699-.2299-1.2998-.3198-1.9199-.0898-.48-.1699-.9599-.23-1.4101-.1001-.5401-.1699-1.0801-.25-1.6001-.02-.1397-.0498-.2798-.06-.4097q-.15015-.97485-.27-1.8604c-.23-1.8095-.3999-3.3295-.5098-4.52A158.49319,158.49319,0,0,1,98.0078,77.2891ZM17.2476,187.519c-.0796-2.1201-.1299-4.2397-.1299-6.3501A162.92119,162.92119,0,0,1,54.438,77.269c.0498.3101.0996.6499.1396.98.1304.7998.25,1.6402.3902,2.5103.0498.3095.1098.6098.1601.9399.1197.6997.2398,1.4199.3799,2.1797.1602.9502.3599,1.9399.5601,2.98.1401.6899.29,1.4101.4297,2.1304.27,1.1796.5302,2.3896.8203,3.6396.27,1.1001.5298,2.23.8301,3.3804A162.5537,162.5537,0,0,0,70.0576,128.269c.3701.7603.7403,1.5,1.1402,2.2403.3398.6596.6801,1.2998,1.04,1.9599.5098.96,1.04,1.8999,1.5898,2.8599.3404.5898.69,1.1899,1.0401,1.7798,1.23,2.06,2.5102,4.1103,3.8701,6.1401.3599.5498.75,1.1299,1.1499,1.6802.8403,1.23,1.7202,2.4497,2.6201,3.6597.6499.8501,1.2998,1.7202,1.98,2.5703.0801.0898.1499.1997.23.29.7099.8999,1.4599,1.8101,2.2202,2.6997.7197.8804,1.48,1.75,2.2598,2.6201.1499.17.31.3399.4599.5103.6802.75,1.3799,1.5,2.0899,2.23974a1.2664,1.2664,0,0,0,.2002.20019c.8701.91993,1.77,1.81983,2.6801,2.71v.02a.48437.48437,0,0,0-.1699,0,3.98745,3.98745,0,0,0-.4902.06006,1.57512,1.57512,0,0,0-.23.04981,3.83875,3.83875,0,0,0-.6602.14013,7.201,7.201,0,0,0-1.4697.54c-3.3901,1.69971-6.25,5.98974-7.8501,8.77979a19.78242,19.78242,0,0,0-5.2602-.71c-4.2798,0-10.2696,1.48-14.48,8.60982-.6099,1.0401-2.6997,1.5503-6.21,1.5503-2.3999,0-5.2099-.2402-8.1997-.4799-3.54-.3003-7.2099-.6104-10.9599-.6104-.42,0-.8404,0-1.2701.02-.4399,0-.8901.0103-1.3203.0303h-.06c-.4297.0298-.8697.0498-1.2998.0801-.19.0097-.3702.0298-.5601.0395-.73.0601-1.4497.1402-2.1997.2305-.54.0796-1.0703.1597-1.5903.25-.42.0796-.8199.1597-1.2398.25-.4702.1099-.9502.2197-1.4101.3398-.23.0601-.4698.1299-.7002.1997-.46.1402-.94.2803-1.3897.4502-.23.0801-.4702.17-.7002.2603-.23.0796-.4599.1797-.6797.2798a17.928,17.928,0,0,0-2.0302.98,7.04811,7.04811,0,0,0-.6499.3701,18.1677,18.1677,0,0,0-1.92,1.27c-.2002.1597-.4199.3101-.6201.48-.4199.3398-.8398.6997-1.2402,1.0898C17.5977,187.1689,17.418,187.3389,17.2476,187.519ZM180.5078,344.5591a163.47784,163.47784,0,0,1-162.54-146.52v-.0601c.1098-.3101.2402-.6099.3701-.8999a10.33087,10.33087,0,0,1,.6201-1.3501.58191.58191,0,0,0,.0498-.1099,12.55976,12.55976,0,0,1,.71-1.2402c0-.0098.02-.0298.0298-.04.2104-.3399.4204-.6499.6504-.96.08-.1099.1596-.2197.2397-.3101a11.37731,11.37731,0,0,1,.8501-1,8.86659,8.86659,0,0,1,.8799-.8496c.0801-.0703.1401-.1401.2202-.2002a3.96253,3.96253,0,0,1,.6597-.52c.1704-.1401.3403-.27.52-.3901.1802-.1299.3701-.25.5503-.3599.23-.1499.4697-.29.6997-.4302a18.22412,18.22412,0,0,1,3.6201-1.5c.2402-.0795.4702-.1396.7002-.2099.2598-.0698.5298-.1299.8101-.1997.4897-.1001,1-.21,1.5297-.3101a41.94363,41.94363,0,0,1,6.9703-.52c3.5,0,7.0297.29,10.4497.5898,3.1103.2403,6.06.4903,8.7099.4903,4.1001,0,9.1304-.5103,11.5303-4.5801,2.23-3.77,5.2197-5.58008,9.1597-5.58008a14.67327,14.67327,0,0,1,5.4301,1.10008,3.09915,3.09915,0,0,0,2.3702.1299,3.16253,3.16253,0,0,0,1.77-1.6001,28.04705,28.04705,0,0,1,2.0298-3.60986c.2402-.3999.52-.81983.8003-1.21.2998-.3999.5898-.79.8999-1.16016.1401-.17969.2797-.3501.4301-.52.1397-.16992.2998-.33008.4497-.48974a4.52039,4.52039,0,0,1,.44-.43018,4.46764,4.46764,0,0,1,.48-.39991,3.04944,3.04944,0,0,1,.3803-.27978,2.90449,2.90449,0,0,1,.4097-.25,1.78784,1.78784,0,0,1,.8003-.17041,16.92047,16.92047,0,0,1,3.6699.76025,56.76413,56.76413,0,0,0,5.8701,1.33008,43.71744,43.71744,0,0,0,7.3599.60987c1.25,0,2.5498-.04981,3.8701-.16016,9.3496-.67969,12.2896-8.91992,14.6499-15.54982l.48-1.3398c2.0601-5.7002,3.7197-8.7403,7.0098-9.5a3.22237,3.22237,0,0,1,.6601-.0601c4.5498,0,14.0899,7.1597,19.21,11.0098q2.2653,1.69485,4.6001,3.49021c6.9897,5.31983,14.8999,11.33008,22.6499,15.91993a.98157.98157,0,0,1,.1699.10986l.27.1499c1.1201.65039,2.2202,1.27,3.27,1.81006a58.41188,58.41188,0,0,0,10.6402,4.52,1.00966,1.00966,0,0,0,.1001.04c.0097,0,.0298.0103.04.0103.02,0,.0498.02.0596.02a1.19828,1.19828,0,0,1,.2402.0596c.0401.0102.1001.0302.1499.04l.2002.0503c.3101.0898.6201.1699.8399.23l.9399.2397c.0303,0,.0601.0103.0801.0103a1.61078,1.61078,0,0,0,.2602.06l.6997.1397a20.16259,20.16259,0,0,0,2.1402.3403,10.86805,10.86805,0,0,0,1.1401.1299c.75.0698,1.46.1099,2.2798.1099h.0298a29.35453,29.35453,0,0,0,3.0102-.19,26.26791,26.26791,0,0,0,2.8101-.5698c.1099-.0303.2197-.0703.3301-.1001,2.8799-1.1099,5.6997-2.0898,8.3496-2.8901.06-.0201.1201-.0298.1704-.0498l.79-.25c.3697-.1001.73-.21,1.2198-.3404.6499-.1997,1.3198-.36961,1.9799-.54978.48-.14014.96-.27,1.4903-.39014.4497-.12988.8999-.23,1.4199-.35986.75-.18018,1.48-.35986,2.1997-.50977a.98881.98881,0,0,0,.2002-.05029c.1699-.04.3501-.06982.5601-.12012,1.1298-.23,2.2197-.4497,3.25-.6499l3.3198-.54c.7099-.10986,1.4199-.21972,2.1401-.31006l2.8101-.32959c.6899-.06006,1.3701-.12011,2.0498-.18017.7602-.06006,1.5303-.10987,2.3403-.16016.6299-.04,1.2398-.06982,1.9199-.10986.8501-.02979,1.69-.06006,2.5098-.06983h.04q1.89045-.03,3.75,0c1.2603.02979,2.5103.06983,3.75.14991.2603.02978.5401.0498.8199.06005.4902.02.9804.06983,1.4702.10987,1.27.08984,2.5298.22021,3.7602.37012a.828.828,0,0,0,.2198.02978c.6699.07031,1.2998.16016,1.9502.27.6499.08008,1.2998.16992,1.9399.29,2.2798.37012,4.5.81006,6.6997,1.33008h.02c.8701.21,1.7202.41992,2.5703.64013,1.6001.41993,3.1797.86967,4.71,1.35987,1.3501.4399,2.6797.8799,3.9897,1.3501,2.9502,1.0698,5.8003,2.23,8.5201,3.48,1.83.8398,3.6103,1.7197,5.33,2.6201,2.6001,1.3599,5.0801,2.7895,7.4502,4.2598,1.0498.6499,2.0899,1.3198,3.1001,1.9799,0,.0201,0,.0201.0098,0,1.02.6802,2.0298,1.3599,3.02,2.0801,1.4898,1.0498,2.9302,2.1201,4.3101,3.1602.9101.6899,1.79,1.4096,2.6601,2.1196,1.2998,1.0503,2.5596,2.1001,3.75,3.1401.8296.73,1.6397,1.46,2.4297,2.17.77.7099,1.5303,1.4301,2.25,2.1201.8799.8398,1.71,1.6601,2.4903,2.4502.2597.2597.5297.5298.79.7895,1.27,1.3003,2.4297,2.5401,3.4697,3.7002.2002.23.4199.4502.6001.6802.23.2598.4702.5098.6802.7598C324.0176,290.5591,257.1079,344.5591,180.5078,344.5591Z" fill="#231f20"/>
    <path d="M94.6279,162.42919v.02a.48437.48437,0,0,0-.1699,0,3.98745,3.98745,0,0,0-.4902.06006,1.57512,1.57512,0,0,0-.23.04981,3.83875,3.83875,0,0,0-.6602.14013,7.201,7.201,0,0,0-1.4697.54c-3.3901,1.69971-6.25,5.98974-7.8501,8.77979a19.78242,19.78242,0,0,0-5.2602-.71c-4.2798,0-10.2696,1.48-14.48,8.60982-.6099,1.0401-2.6997,1.5503-6.21,1.5503-2.3999,0-5.2099-.2402-8.1997-.4799-3.54-.3003-7.2099-.6104-10.9599-.6104-.42,0-.8404,0-1.2701.02-.4399,0-.8901.0103-1.3203.0303h-.06c-.4297.0298-.8697.0498-1.2998.0801-.19.0097-.3702.0298-.5601.0395-.73.0601-1.4497.1402-2.1997.2305-.54.0796-1.0703.1597-1.5903.25-.42.0796-.8199.1597-1.2398.25-.4702.1099-.9502.2197-1.4101.3398-.23.0601-.4698.1299-.7002.1997-.46.1402-.94.2803-1.3897.4502-.23.0801-.4702.17-.7002.2603-.23.0796-.4599.1797-.6797.2798a17.928,17.928,0,0,0-2.0302.98,7.04811,7.04811,0,0,0-.6499.3701,18.1677,18.1677,0,0,0-1.92,1.27c-.2002.1597-.4199.3101-.6201.48-.4199.3398-.8398.6997-1.2402,1.0898-.1699.1699-.3496.3399-.52.52-.0796-2.1201-.1299-4.2397-.1299-6.3501A162.92119,162.92119,0,0,1,54.438,77.269c.0498.3101.0996.6499.1396.98.1304.7998.25,1.6402.3902,2.5103.0498.3095.1098.6098.1601.9399.1197.6997.2398,1.4199.3799,2.1797.1602.9502.3599,1.9399.5601,2.98.1401.6899.29,1.4101.4297,2.1304.27,1.1796.5302,2.3896.8203,3.6396.27,1.1001.5298,2.23.8301,3.3804A162.5537,162.5537,0,0,0,70.0576,128.269c.3701.7603.7403,1.5,1.1402,2.2403.3398.6596.6801,1.2998,1.04,1.9599.5098.96,1.04,1.8999,1.5898,2.8599.3404.5898.69,1.1899,1.0401,1.7798,1.23,2.06,2.5102,4.1103,3.8701,6.1401.3599.5498.75,1.1299,1.1499,1.6802.8403,1.23,1.7202,2.4497,2.6201,3.6597.6499.8501,1.2998,1.7202,1.98,2.5703.0801.0898.1499.1997.23.29.7099.8999,1.4599,1.8101,2.2202,2.6997.7197.8804,1.48,1.75,2.2598,2.6201.1499.17.31.3399.4599.5103.6802.75,1.3799,1.5,2.0899,2.23974a1.2664,1.2664,0,0,0,.2002.20019C92.8179,160.63916,93.7178,161.53906,94.6279,162.42919Z" fill="#231f20"/>
    <path d="M143.0117,102.2505c.3872.3408.7744.6968,1.146,1.0683v-.0156C143.7861,102.9473,143.3989,102.5913,143.0117,102.2505Zm2.8496-19.0176c.4029-2.3232.8833-4.6465,1.4244-6.9697C146.7285,78.5864,146.2485,80.9097,145.8613,83.2329Zm-3.8559,9.957c.8052.6665,1.6108,1.3326,2.4004,2.0137V95.188C143.6162,94.5063,142.8106,93.8413,142.0054,93.1899Z" fill="#231f20"/>
  </g>
</svg>
