<svg id="Layer_1" data-name="Layer 1" xmlns="http://www.w3.org/2000/svg" viewBox="0 0 400 400">
  <g>
    <path d="M302.82753,93.82075c-38.42519,24.967-78.31827,47.18614-119.25066,67.6264,11.85118,2.86027,23.933,5.77687,36.00589,8.6922,39.11382-20.16092,76.23808-40.60162,106.21-60.01,17.003-11.01,4.89427-33.71347-22.96522-16.30859ZM91.948,203.95533q-30.95258,13.449-62.37552,26.24359a29.53453,29.53453,0,0,1,5.55908,2.08724,27.956,27.956,0,0,1,8.77652,6.75748,21.53281,21.53281,0,0,1,4.83278,9.42852,17.6629,17.6629,0,0,1,.33763,5.32842l1.22684-.59925a36.31854,36.31854,0,0,1,5.69443-2.77526c24.7857-12.05813,52.33367-25.22711,80.71251-39.01495-15.56156-2.82611-30.59438-5.33611-44.76427-7.45579ZM.00017,266.39769c-.03547-12.176,5.4608-26.45929,18.49614-28.86853a20.97284,20.97284,0,0,1,13.109,1.87235,19.9469,19.9469,0,0,1,6.27763,4.79412,13.65627,13.65627,0,0,1,3.103,5.9345c.69424,3.23608-.25817,6.73224-3.57669,9.8086a23.88109,23.88109,0,0,1-4.82425,3.61238,9.21644,9.21644,0,0,1-4.90773,1.2236,8.66059,8.66059,0,0,1-2.2196-.44374,6.50733,6.50733,0,0,1-2.9715-1.92575,4.10841,4.10841,0,0,1-.88662-2.93755A7.59841,7.59841,0,0,1,22.013,257.518a3.2953,3.2953,0,0,1,1.50017-1.66357,3.25431,3.25431,0,0,1,2.204-.401,3.963,3.963,0,1,0,1.36648-7.80729,11.10524,11.10524,0,0,0-7.53736,1.33849,11.37472,11.37472,0,0,0-5.03286,5.975,15.395,15.395,0,0,0-.8153,3.975,11.864,11.864,0,0,0,2.65118,8.45817,14.38032,14.38032,0,0,0,6.55009,4.43791,16.26986,16.26986,0,0,0,12.80171-.96994,21.04359,21.04359,0,0,0,2.3533,17.45105,17.37156,17.37156,0,0,0,8.05709,6.53156,19.99692,19.99692,0,0,0,9.63206,1.2847,20.21569,20.21569,0,0,0,8.93283-3.161,16.43379,16.43379,0,0,0,6.65414-9.98757,14.8514,14.8514,0,0,0,.20669-5.3327,12.945,12.945,0,0,0-2.00732-5.307c-1.939-2.9222-5.20391-5.26863-10.14069-6.34961a3.96585,3.96585,0,1,0-1.674,7.753c2.674.58551,4.3241,1.678,5.193,2.98706A5.05509,5.05509,0,0,1,63.69537,278.8a7.01353,7.01353,0,0,1-.1179,2.50534,8.25614,8.25614,0,0,1-3.29158,5.03968A12.51613,12.51613,0,0,1,49.063,287.49781a9.47733,9.47733,0,0,1-4.38669-3.57651,12.6318,12.6318,0,0,1-1.92107-5.68718,14.88454,14.88454,0,0,1,2.21065-8.87286,26.40114,26.40114,0,0,1,8.27812-8.64991c7.9482-5.28827,17.936-6.24667,26.36959-1.41411a29.51577,29.51577,0,0,1,13.3751,17.04914c3.79151,12.343.20008,22.96994-10.52467,29.88671-17.72436,11.43115-45.63917,5.87767-61.22855-5.30319C9.534,292.53662.04093,280.64722.00017,266.39769ZM102.244,287.58878a38.98585,38.98585,0,0,0-1.668-13.567A37.46831,37.46831,0,0,0,83.559,252.40055a31.78917,31.78917,0,0,0-8.78147-3.45178c23.81966-11.19026,48.654-23.03611,73.7821-35.345,17.67293,3.3326,35.90426,7.03852,54.2304,11.01389-35.636,20.65508-69.3446,42.0606-100.54609,62.97109Zm175.30517-103.454c-11.36494-2.74363-23.12966-5.58427-35.05414-8.4633L229.66256,172.573c37.64383-19.75437,74.193-40.0947,107.16673-60.35858,30.60272-15.76785,45.81515,21.66093,17.80124,36.59722C328.37452,159.65164,302.62574,171.54576,277.54915,184.13479Z" fill="#1d1301" fill-rule="evenodd"/>
    <path d="M381.99376,227.55567c30.8968,7.90035,18.41348,43.1834-10.17847,36.29952-85.78237-28.78184-227.33223-60.23045-314.076-69.91009a35.25656,35.25656,0,0,0,6.53474-3.60677,34.05533,34.05533,0,0,0,10.0589-10.8815,24.34122,24.34122,0,0,0-.025-25.29757c86.4672,21.18851,221.9222,54.80331,307.68576,73.39641ZM60.06936,184.3291c5.49518-3.8404,10.53018-10.51973,10.47678-17.63938l-.00039-.01408q-.00033-.06343-.00131-.12683l-.00149-.06709-.00192-.082-.00363-.108-.00105-.03975q-.00323-.07879-.00687-.15758l-.00061-.00769c-.00236-.04995-.00511-.09994-.00814-.15032l-.00231-.03975-.00984-.14008-.00215-.02817c-.00363-.04872-.00748-.097-.01153-.14524l-.00194-.02432q-.03711-.42667-.1012-.84906a17.04355,17.04355,0,0,0-2.59738-7.07438c-3.05432-4.52419-8.30459-6.24413-13.47928-5.46295a15.08465,15.08465,0,0,0-6.16187,2.35457,10.21553,10.21553,0,0,0-4.13727,5.68289,8.78192,8.78192,0,0,0-.03179,4.79412,7.65243,7.65243,0,0,0,2.70265,3.94593c2.4972,1.94412,5.94429,2.4891,9.03149,2.49422.06216,0,.12452,0,.1871-.00044a3.67275,3.67275,0,0,1,3.68389,3.661,3.62723,3.62723,0,0,1-2.76158,3.465c-2.61256.7158-6.571-.17429-8.73619-.83157a18.155,18.155,0,0,1-5.93406-3.00927,14.8603,14.8603,0,0,1-5.22826-7.67359,16.14973,16.14973,0,0,1,.02243-8.82293,17.569,17.569,0,0,1,7.07653-9.79838c9.36313-6.321,18.34-2.74962,27.98977-.56417,72.71712,16.47041,287.82354,70.07108,312.30328,76.0598,8.71311,2.09788,11.10612-5.66628,1.69086-8.0738-22.64089-5.31859-229.99985-55.51829-309.40781-74.57476-6.36925-1.5286-12.41435-3.36636-19.19873-4.62031-8.72251-1.61183-18.151-1.93048-25.60253,4.08173a34.864,34.864,0,0,0-8.33961,9.79409,30.17114,30.17114,0,0,0-3.87505,11.59647c-.95861,8.75754,2.66784,17.72479,13.04986,23.64813A25.09578,25.09578,0,0,0,60.06936,184.3291Z" fill="#1d1301" fill-rule="evenodd"/>
  </g>
</svg>
