<?xml version="1.0" encoding="utf-8"?>
<!-- Generator: Adobe Illustrator 24.2.1, SVG Export Plug-In . SVG Version: 6.00 Build 0)  -->
<svg version="1.1" id="Layer_1" xmlns="http://www.w3.org/2000/svg" xmlns:xlink="http://www.w3.org/1999/xlink" x="0px" y="0px"
	 viewBox="0 0 400 400" enable-background="new 0 0 400 400" xml:space="preserve">
<g>
	<path fill="#595A5C" d="M314.45001,62.06497v275.87c0,0.02002-0.01001,0.04004-0.03003,0.04004H92.32001
		c-0.02002,0-0.03998-0.02002-0.03998-0.04004v-275.87c0-0.01996,0.01996-0.03998,0.03998-0.03998h222.09998
		C314.44,62.02499,314.45001,62.04501,314.45001,62.06497z"/>
	<polygon fill="#595A5C" points="321.25354,184.86183 320.62485,184.93802 321.86053,187.3291 	"/>
	<polygon fill="#595A5C" points="85.48056,215.13817 86.10922,215.06198 84.87352,212.6709 	"/>
	<polygon fill="#595A5C" points="245.84978,40.24839 245.8497,40.24839 238.70799,26.4292 181.18112,56.15884 	"/>
	<polygon fill="#595A5C" points="160.88429,359.75162 160.88438,359.75162 168.02608,373.5708 225.55289,343.84116 	"/>
	<polygon fill="#595A5C" points="61.57441,117.9713 41.33784,128.4296 84.87305,212.66997 	"/>
	<polygon fill="#595A5C" points="321.86102,187.33003 345.15967,282.02872 365.39624,271.57056 	"/>
	<g>
		<polygon fill="#595A5C" points="278.27295,39.48546 215.11771,55.02347 282.09579,55.02347 		"/>
		<polygon fill="#595A5C" points="344.19669,307.43738 321.45651,215.00804 321.45651,313.0322 		"/>
		<polygon fill="#595A5C" points="62.53737,92.56263 85.27764,184.99203 85.27764,86.96781 		"/>
		<polygon fill="#595A5C" points="128.46112,360.51453 191.61629,344.97653 124.63829,344.97653 		"/>
	</g>
	<g>
		<polygon fill="#FFFFFF" points="203.36502,170.05006 179.79218,170.05006 191.5786,149.63538 203.36502,129.22069 
			215.15144,149.63538 226.93787,170.05006 		"/>
		<rect x="149.68182" y="182.57555" fill="#FFFFFF" width="107.36639" height="10.21991"/>
		<rect x="149.68182" y="205.32094" fill="#FFFFFF" width="107.36639" height="10.21991"/>
		<rect x="149.68182" y="228.06635" fill="#FFFFFF" width="107.36639" height="10.21991"/>
	</g>
</g>
</svg>
