<svg id="icon" xmlns="http://www.w3.org/2000/svg" viewBox="0 0 360 360">
  <title>icon</title>
  <path d="M178.4204,354.8526c-96.7598,0-175.48-78.7159-175.48-175.4703,0-96.7597,78.7202-175.4799,175.48-175.4799A174.38011,174.38011,0,0,1,301.7919,54.5943a3.5,3.5,0,0,1-2.2299,5.9804c-18.9038,1.2534-46.1822,2.7476-68.7813,2.7476-4.8486,0-10.0425-.0674-15.4365-.2007-21.8638-.5161-45.5327-2.0039-61.564-3.1631-.0312-.0015-.062-.0029-.0903-.0049-10.9971-.7885-19.8794-1.5283-24.7051-1.9453.082,1.8653.2061,4.3516.3897,7.3613a3.50053,3.50053,0,0,1-2.0244,3.3897,121.83878,121.83878,0,0,0-52.7002,46.7998,3.51214,3.51214,0,0,1-3.2207,1.6548c-13.5938-.938-24.7217-1.8613-30.3428-2.3467.5947,13.3965,3.3794,59.0147,14.8457,104.0732,7.9136,31.0977,18.3413,55.8174,30.9936,73.4717,15.4361,21.5391,34.2622,32.4605,55.9551,32.4605,18.4756,0,34.9634-7.9263,49.0059-23.5591a3.5,3.5,0,0,1,2.1611-1.1328,122.10644,122.10644,0,0,0,91.2398-62.2764,3.47634,3.47634,0,0,1,.3466-.5669c26.2705-34.9004,38.4478-91.9101,44.0376-133.5903a3.4998,3.4998,0,0,1,6.6153-1.0669,173.72657,173.72657,0,0,1,17.6137,76.7021C353.9008,276.1367,275.1806,354.8526,178.4204,354.8526Zm0-343.9502c-92.9004,0-168.48,75.5796-168.48,168.4799,0,92.8951,75.5796,168.4703,168.48,168.4703s168.4804-75.5752,168.4804-168.4703a166.91684,166.91684,0,0,0-12.0337-62.6645c-6.3549,40.8501-18.8901,91.7876-43.4682,124.6001a129.153,129.153,0,0,1-95.1802,65.6357c-15.2393,16.5362-33.1787,24.919-53.3379,24.919-24.0918,0-44.8418-11.9175-61.6728-35.4219-13.1636-18.3828-23.959-43.9146-32.086-75.8862-13.75-54.0938-15.1679-108.9038-15.1806-109.4507a3.49923,3.49923,0,0,1,3.8188-3.5669c.1387.0127,13.5557,1.2397,32.061,2.5381a128.77059,128.77059,0,0,1,52.4273-46.6543c-.3228-5.7432-.4033-9.0215-.4067-9.1753a3.50036,3.50036,0,0,1,3.8203-3.5684c.1167.0108,11.8501,1.0884,28.4585,2.2793.0322.0015.0634.003.0922.0054,15.9556,1.1543,39.5401,2.6382,61.2901,3.1519,5.3511.1318,10.4863.1987,15.2778.1987,19.3882,0,42.2988-1.1123,60.2984-2.2193A167.33037,167.33037,0,0,0,178.4204,10.9024Z" fill="#231f20"/>
  <g>
    <path d="M131.2407,116.5523c-20.0103-.3799-41.9502-1.6197-59.5703-2.8301a125.87028,125.87028,0,0,1,54.2104-48.1397C126.5507,76.7525,128.0405,95.1826,131.2407,116.5523Z" fill="#231f20"/>
    <path d="M131.2407,119.1026l-.0484-.0005c-21.0376-.3994-44.0752-1.7627-59.6967-2.8355a2.55046,2.55046,0,0,1-1.9961-3.8828A127.87087,127.87087,0,0,1,124.81,63.2681a2.55037,2.55037,0,0,1,3.6167,2.1616c.686,11.4414,2.1607,29.4565,5.2891,50.4297a2.55259,2.55259,0,0,1-2.4649,3.2432Zm-55.0991-7.6348c19.3398,1.2793,37.2163,2.1269,52.1372,2.4712-2.5772-17.8545-3.9629-33.4185-4.7027-44.418A122.69814,122.69814,0,0,0,76.1416,111.4678Z" fill="#231f20"/>
  </g>
  <g>
    <path d="M288.4306,239.4522a125.35712,125.35712,0,0,1-93.9399,64.2002c8.48-9.4302,15.6601-21.0098,21.75-33.7701a64.08311,64.08311,0,0,0,14.54,1.6299C255.0805,271.5122,273.8906,258.7725,288.4306,239.4522Z" fill="#231f20"/>
    <path d="M194.4897,306.2027a2.55044,2.55044,0,0,1-1.8955-4.2554c7.8022-8.6763,14.9834-19.834,21.3447-33.1636a2.54983,2.54983,0,0,1,2.8784-1.3857,61.83524,61.83524,0,0,0,13.9634,1.5639c21.3994,0,40.1099-10.4443,55.6123-31.0434a2.55017,2.55017,0,0,1,4.2744,2.7583,128.1785,128.1785,0,0,1-95.854,65.5053A2.57941,2.57941,0,0,1,194.4897,306.2027Zm23.1743-33.4058a151.50344,151.50344,0,0,1-16.8359,27.2861,123.028,123.028,0,0,0,68.5132-38.228,66.18007,66.18007,0,0,1-38.5606,12.2075A67.55439,67.55439,0,0,1,217.664,272.7969Z" fill="#231f20"/>
  </g>
  <path d="M299.3305,57.0825c-20.9599,1.3897-46.9697,2.7398-68.5498,2.7398-4.9399,0-10.0903-.0698-15.3501-.1997h-.0102c-21.1797-.5-44.0498-1.9004-61.46-3.1602h-.02c-16.8799-1.2099-28.5996-2.29-28.5996-2.29s.0996,4.1899.54,11.4101c.6699,11.17,2.1597,29.6001,5.3599,50.9698.81,5.4301,1.7397,11.0503,2.7798,16.7802,8.8901,48.6397,26.77,105.8101,62.6103,128.3301a63.06434,63.06434,0,0,0,19.6099,8.2197,64.08311,64.08311,0,0,0,14.54,1.6299c24.2998,0,43.1099-12.7397,57.6499-32.06v-.0098c26.8198-35.6299,39.1299-93.6201,44.71-135.23,3.8901-28.9902,4.52-50.04,4.52-50.04S321.2607,55.6524,299.3305,57.0825ZM164.2807,142.8926a27.21,27.21,0,1,1,42.9199,0,27.19556,27.19556,0,0,0-42.9199,0Zm105.3701,62.98c-.1704.5796-.3403,1.1699-.52,1.77-.1201.3799-.2402.77-.3701,1.1499-.02.0698-.04.1401-.0703.2197-.23.7002-.48,1.4102-.7398,2.1201-.29.7901-.6001,1.5899-.9399,2.3999-.6602,1.6001-1.4102,3.21-2.25,4.8101-.21.3999-.4302.8003-.6499,1.1899-.2202.4004-.4502.7901-.6904,1.19q-.345.58515-.7198,1.1704c-.25.3896-.5.7798-.7602,1.1597-.19.29-.3897.5703-.5996.8603-.2002.2798-.4102.5596-.6201.8399-.4102.56-.8501,1.1098-1.3101,1.6601-.2998.3599-.6099.7197-.9199,1.0698a36.991,36.991,0,0,1-4.2901,4.0899c-.2802.23-.56.4502-.8598.6699-.48.3701-.98.73-1.4903,1.0703q-.5397.375-1.1098.7197c-.23.1402-.4702.2901-.71.42a.37592.37592,0,0,1-.0801.0503c-.2202.1401-.4399.2597-.6699.3798-.4902.2803-1.0102.5401-1.5303.8003-.2299.1099-.4599.2198-.6997.3296-.25.1104-.5.2202-.7602.3301-.3399.1499-.6997.29-1.0498.4302,0,0-.0103,0-.0103.0097-.2998.1104-.6098.23-.9297.3404-.1899.0698-.3901.1396-.5903.1997l-.0898.0303c-.4102.1396-.8101.27-1.23.3896a37.257,37.257,0,0,1-6.19,1.23c-.4799.06-.9702.1001-1.4702.1401-1.1299.0899-2.2998.1402-3.5.1402-1,0-1.9697-.0303-2.9199-.1001-26.2798-1.71-34.1797-26.5801-36.52-39.5201a63.10589,63.10589,0,0,1-.96-7.7099s7.0703.6499,16.2603,1.25c7.54.48,16.5097.9199,24.1396.9199,2.73,0,5.6402-.0601,8.6001-.1499,15.4302-.4902,32.3399-2.02,32.3399-2.02s-.0899,1.7202-.5,4.52c-.0899.6201-.21,1.2998-.3296,2.0298-.0503.2803-.1104.56-.1602.8403-.0498.2798-.1001.5601-.1601.8501-.1797.8696-.3697,1.7798-.6001,2.7398-.0298.1098-.0596.2299-.0899.3501C270.1308,204.0923,269.9008,204.9722,269.6508,205.8726Zm29.0796-62.98c-.1997-.2603-.4096-.52-.6299-.77,0-.0103-.0097-.02-.0297-.0303-.1202-.1499-.2403-.2998-.3702-.4399-.1401-.1602-.2802-.3199-.4301-.4698a1.76131,1.76131,0,0,0-.19-.2104.58291.58291,0,0,0-.1098-.1099c-.1499-.1699-.3199-.3398-.4903-.5a.1045.1045,0,0,0-.04-.0498c-.1699-.1699-.3399-.3403-.5098-.4902a23.08771,23.08771,0,0,0-2.2099-1.8701c-.3101-.2398-.6202-.4698-.94-.69a.93439.93439,0,0,0-.1802-.1196c-.3198-.2202-.6401-.4302-.9697-.6304-.56-.3598-1.1504-.6997-1.75-1.0097-.1001-.0601-.2002-.1099-.3003-.1602a27.11377,27.11377,0,0,0-3.6001-1.5098q-.375-.13545-.75-.2402c-.27-.0898-.54-.1699-.8198-.2397-.2402-.0601-.48-.1202-.71-.1802l-.7802-.1802q-.3897-.0894-.7798-.1499-.7947-.15015-1.5899-.2397a27.1709,27.1709,0,0,0-24.7402,10.29,27.22025,27.22025,0,1,1,42.9199,0Z" fill="none" stroke="#231f20" stroke-miterlimit="10" stroke-width="7"/>
  <path d="M231.2304,242.7525c-1.1347,0-2.1733-.0357-3.1762-.1094-29.2608-1.9038-37.5176-30.2774-39.7081-42.3877a66.3996,66.3996,0,0,1-1.0126-8.1865l-.1675-3.9981,3.9848.3662c.0703.0064,7.1353.6529,16.168,1.2427,9.5098.6055,17.5566.9126,23.9116.9126,2.4282,0,5.2066-.0483,8.4942-.1484,15.1474-.481,31.9624-1.9922,32.1303-2.0074l4.023-.3637-.2124,4.0337a75.87151,75.87151,0,0,1-6.3653,24.9404C261.5849,233.8638,248.4204,242.7525,231.2304,242.7525ZM194.726,195.7691c.1275.9521.2935,2.0449.5093,3.2431,2.3565,13.0288,9.8169,35.1192,33.3023,36.6475.8598.063,1.7309.0928,2.6928.0928,14.4566,0,25.1245-7.2754,31.7075-21.6246a69.217,69.217,0,0,0,5.2881-18.3618c-6.0449.4868-17.5693,1.334-28.2842,1.6743-3.3642.1021-6.2119.1519-8.7114.1519-6.5029,0-14.6992-.312-24.3618-.9272C202.0004,196.3472,197.6962,196.0132,194.726,195.7691Z" fill="#231f20"/>
  <g>
    <path d="M164.288,148.586l-2.7651-3.5381a30.732,30.732,0,0,1-4.4795-29.8701,30.89267,30.89267,0,0,1,28.6973-19.7452,30.72564,30.72564,0,0,1,24.2178,49.6148l-2.7623,3.5351-2.7568-3.539a23.69568,23.69568,0,0,0-37.3955-.003Zm21.4527-19.6836a30.47425,30.47425,0,0,1,20.997,8.2963,23.7282,23.7282,0,0,0-20.997-34.7661A23.85491,23.85491,0,0,0,163.58,117.6821a23.78287,23.78287,0,0,0,1.1607,19.5152A30.45779,30.45779,0,0,1,185.7407,128.9024Z" fill="#231f20"/>
    <path d="M255.8149,148.5825l-2.7622-3.5351a30.41242,30.41242,0,0,1-6.502-18.895,30.72,30.72,0,0,1,61.44,0,30.41025,30.41025,0,0,1-6.5025,18.8955l-2.7622,3.5346-2.7568-3.539a23.69534,23.69534,0,0,0-37.3975,0Zm21.4556-19.6801a30.47312,30.47312,0,0,1,20.9985,8.2973,23.476,23.476,0,0,0,2.7217-11.0473,23.72,23.72,0,0,0-47.44,0,23.483,23.483,0,0,0,2.7212,11.0473A30.475,30.475,0,0,1,277.2705,128.9024Z" fill="#231f20"/>
  </g>
  <path d="M196.6308,261.6626c-35.8403-22.52-53.7202-79.6904-62.6103-128.3301-1.0401-5.7299-1.9698-11.3501-2.7798-16.7802-20.0103-.3799-41.9502-1.6197-59.5703-2.8301-19.8496-1.3696-34.23-2.69-34.23-2.69s5.0503,217.3404,105.4404,217.3404c21.0796,0,38.0098-9.5801,51.6099-24.7202,8.48-9.4302,15.6601-21.0098,21.75-33.7701A63.06434,63.06434,0,0,1,196.6308,261.6626ZM76.3706,155.7822c.4301.5503.8798,1.0801,1.3598,1.6001,0,0-.0097.0103,0,.0103.2901.3198.5904.6299.8902.9199a2.15641,2.15641,0,0,0,.31.2998c.0098.0303.0298.0503.0401.0401.2299.2299.4599.4502.6997.6601q.3456.315.6904.6001c.1299.1099.2598.21.3896.3198a25.11813,25.11813,0,0,0,2.2403,1.6299c.1997.1299.3901.25.5898.3701.19.1299.3902.25.5899.3599.2002.1201.4101.23.6103.3403.1997.1197.4097.23.6201.3296.3897.21.7896.4004,1.19.5801.3999.1802.7998.3501,1.2099.52.2701.1099.5401.21.8199.3003.4399.1597.8901.3096,1.3398.4497a27.10124,27.10124,0,0,0,3.6104.8301c.1899.0298.3896.0498.5898.0801.4199.06.8501.1098,1.27.1401q.3897.0447.7798.0596c.23.02.4502.0303.6904.0303.3096.02.6197.02.9297.02a27.15014,27.15014,0,0,0,21.46-10.4903,27.216,27.216,0,0,1-21.46,43.96c-.3901,0-.7597-.0098-1.1401-.0298-.1499,0-.2998-.0102-.4497-.02-.3599-.0098-.7002-.04-1.0601-.0801-.0898-.0097-.1802-.02-.27-.0298-.27-.0302-.5498-.06-.8301-.1001a.1662.1662,0,0,1-.0698-.0102c-.21-.0298-.4302-.0596-.6401-.0996-.2398-.0303-.4898-.0801-.7398-.1304q-.49515-.0894-.9902-.21c-.1299-.0297-.2598-.06-.3902-.0996-.3598-.0903-.7197-.1801-1.08-.29q-.345-.09015-.69-.21c-.6196-.2002-1.2397-.4204-1.8496-.6704q-.3156-.1194-.6304-.27c-.3198-.1299-.6499-.2798-.9697-.4399-.3999-.1797-.79-.3799-1.1802-.6001-.3901-.1997-.77-.42-1.1401-.6499,0-.0098-.0098-.0098-.02-.0098-.3696-.2202-.73-.4502-1.0796-.7002-.6104-.4199-1.21-.8599-1.79-1.3198-.1802-.1402-.3501-.2803-.5201-.4302-.31-.2598-.6103-.5298-.8999-.7998-.3003-.2603-.5903-.54-.8701-.8301-.54-.54-1.0503-1.1001-1.54-1.6802-.1001-.1196-.21-.2397-.3101-.3696a27.92659,27.92659,0,0,1-2.1299-3.0303c-.2299-.3798-.4502-.75-.6499-1.1401-.1801-.3296-.3501-.6597-.5102-1-.23-.4497-.44-.9097-.6402-1.3799q-.22485-.5097-.4199-1.0498a27.99854,27.99854,0,0,1-.8598-2.7402c-.0801-.2998-.1499-.6099-.2203-.9199a.8773.8773,0,0,1-.0297-.17c-.0303-.1001-.0503-.2099-.0699-.31-.02-.1001-.04-.2002-.06-.3101-.0601-.27-.1001-.54-.1504-.81-.0796-.5699-.1597-1.1397-.21-1.73-.04-.3701-.06-.7398-.0796-1.1099a1.73577,1.73577,0,0,1-.0102-.23c-.02-.3999-.0298-.7998-.0298-1.2099A27.09465,27.09465,0,0,1,76.3706,155.7822Zm33.5898,132.0503c-.3096.0201-.6099.0401-.8999.0699-.9497.0698-1.8101.1401-2.5698.2002-.2202.02-.44.04-.6402.0498-.3598.0302-.6899.06-.9897.08-.1704.0201-.3301.0298-.48.0401-.1201.0097-.23.02-.3301.0298a1.91263,1.91263,0,0,1-.2299.02c-.0704.0102-.1402.0102-.2002.02-.1001.0103-.19.02-.2598.02-.2803.0303-.4302.0401-.4302.0401s.1001-1.9502.5899-5.0601c.0302-.2397.0703-.48.1201-.7397.1201-.7403.2602-1.5201.4199-2.3501.1802-.8999.3901-1.8399.6201-2.8301.1499-.6299.3101-1.2798.4898-1.9502.1801-.6699.3701-1.3496.5703-2.0498.25-.8301.52-1.6802.8198-2.5401.0801-.27.1802-.5498.2803-.83.1797-.5201.3799-1.0498.5796-1.5801.0503-.1397.1001-.2798.1601-.4199.1802-.46.3701-.9297.5703-1.3999.1499-.3702.3096-.75.48-1.1299.1597-.3701.3399-.75.52-1.1402.1597-.3598.3399-.7197.5098-1.08l.0298-.0601c.1504-.29.3003-.5898.4604-.8999.1299-.27.2696-.5298.42-.79q.65985-1.22985,1.4096-2.46.42045-.65985.8404-1.3198c.1699-.25.3398-.5103.5297-.77.46-.67.94-1.3301,1.4502-1.9903q.75-.97485,1.5899-1.9199c.1699-.1997.3501-.3999.54-.5898a.17954.17954,0,0,1,.0601-.0699,3.996,3.996,0,0,1,.3501-.3803c.2998-.3199.5996-.6299.9199-.94.29-.2998.6099-.6001.9199-.8799q.8547-.78,1.77-1.5302c.2002-.1499.3999-.3096.6099-.4698a31.72109,31.72109,0,0,1,2.7402-1.8999c.21-.1401.4297-.27.6499-.3901a31.66235,31.66235,0,0,1,3.3301-1.73q.315-.1347.6299-.27c.21-.1001.4302-.1899.6499-.27.21-.0899.4302-.1699.6499-.25.2202-.0899.4502-.1699.6802-.25.2202-.0801.4399-.1499.6601-.2202.21-.0796.42-.1397.6397-.21.2202-.0698.4404-.1299.6504-.1899.1396-.0401.2798-.0801.4199-.1099.2998-.0898.6099-.1699.9199-.25.3399-.0898.7002-.1699,1.0601-.2402.1997-.0396.3901-.0796.5898-.1197.5703-.1201,1.1499-.2202,1.75-.3003.44-.0698.8799-.1298,1.3301-.1796h.0098c.4804-.0601.9502-.1104,1.4502-.1402.4101-.04.81-.06,1.2202-.0801h.04c.3599-.02.7398-.04,1.1099-.04.3701-.02.75-.02,1.1299-.02.4399,0,.8701.0102,1.2998.02.25,0,.52.0103.77.0303a39.93154,39.93154,0,0,1,4.3701.4297c.1699.02.3301.0503.5.08a33.87985,33.87985,0,0,1,4.2202.96c.21.0601.4097.1201.6099.1899a5.48784,5.48784,0,0,1,.5298.17c.25.08.5.1601.7402.25.3198.1103.6299.2304.9399.3501.21.08.42.1601.6202.25.1401.0503.2797.1103.4101.1699.27.1103.52.23.7798.3501a32.58457,32.58457,0,0,1,3.21,1.6899c.3501.21.7002.4302,1.04.6602.2402.1499.4702.2998.6899.4599.5103.3501,1.0103.71,1.4903,1.0899.2397.1802.48.3701.7099.5703.2398.1899.4698.3799.6997.5801.6504.56,1.2701,1.1396,1.8702,1.7397a37.77052,37.77052,0,0,1,3.0498,3.4302c.1801.23.3603.46.5302.6899.3501.4698.69.94,1.0201,1.42a46.47285,46.47285,0,0,1,3.4897,5.9101c.23.4497.4502.9097.6602,1.3701a60.9042,60.9042,0,0,1,2.3398,5.7896c.1304.3701.25.7402.3701,1.1001.4102,1.2402.77,2.4599,1.0801,3.6299q.15015.52515.27,1.02c.1402.56.27,1.1103.3999,1.6504q.07545.345.1499.6899c.1201.5.2202.9898.3101,1.46.1802.8999.3301,1.75.4702,2.5498.0898.5303.1699,1.04.23,1.52.0898.6299.1699,1.2202.23,1.7603.04.27.0698.52.0898.7597.0103.0503.0103.1099.02.1699.0103.1202.02.23.0303.3404.0098.1098.02.2197.0298.3198.02.2002.04.3799.0498.54.06.75.0801,1.17.0801,1.17s-.3697-.0298-1.0401-.0899c-.1699-.02-.3598-.0303-.5698-.0503-1.0801-.0996-2.6699-.23-4.6299-.3799-.2803-.0297-.56-.0498-.8603-.0698h-.0596c-.3804-.0303-.7603-.06-1.1602-.0903-1.2602-.0996-2.6201-.1997-4.0698-.2998-.48-.0298-.9702-.0601-1.4702-.1001-1.6602-.1099-3.4102-.2197-5.23-.3301-.79-.0498-1.6001-.0898-2.4101-.1396h-.0201c-1.7797-.1001-3.5996-.19-5.4296-.2701-1.1504-.0503-2.2901-.1001-3.44-.1401-1.1401-.04-2.29-.0801-3.4204-.1099-1.3398-.0302-2.6699-.06-3.9697-.0703-.8902-.0097-1.7603-.02-2.6201-.02-1.25,0-2.5401.0103-3.8599.0303-2.3701.04-4.8403.1201-7.3203.2099-.2398.0098-.48.0201-.73.0298q-1.6794.06015-3.3599.1504c-.6098.0298-1.2099.0596-1.81.0899-.6001.0297-1.1997.06-1.7901.0898-.5898.0303-1.1796.0703-1.77.1001q-1.5447.09015-3.0298.1802c-.54.0298-1.0698.0698-1.5898.0996-.5303.0303-1.04.0703-1.5503.1001-.25.02-.5098.0303-.75.0503-.46.0298-.8999.06-1.3301.0898C113.1508,287.5923,111.4604,287.7124,109.9604,287.8325Z" fill="none" stroke="#231f20" stroke-miterlimit="10" stroke-width="7"/>
  <path d="M187.9311,292.2539l-3.9814-.3662c-.2329-.0215-23.5186-2.1455-40.0791-2.1455-16.5616,0-40.3877,2.1245-40.6265,2.146l-4.021.3613.2124-4.0312a75.8586,75.8586,0,0,1,6.3652-24.9405c7.7154-16.8168,20.8799-25.7055,38.0699-25.7055,41.3413,0,43.8759,50.1797,43.8969,50.6865Zm-44.0605-47.6816c-14.4566,0-25.1246,7.2754-31.7076,21.6245a69.21941,69.21941,0,0,0-5.2885,18.3643c7.7192-.6167,24.3872-1.8189,36.9961-1.8189,12.5908,0,28.914,1.1973,36.5009,1.8149a68.69,68.69,0,0,0-5.1494-18.5595C168.8042,251.7808,158.2563,244.5723,143.8706,244.5723Z" fill="#231f20"/>
  <path d="M97.8305,203.2422a30.75449,30.75449,0,0,1-30.7197-30.7197,30.41191,30.41191,0,0,1,6.5019-18.895l2.7623-3.5352,2.7568,3.5391a23.69534,23.69534,0,0,0,37.3975,0l2.7568-3.5391,2.7622,3.5347a30.40973,30.40973,0,0,1,6.5024,18.8955A30.75486,30.75486,0,0,1,97.8305,203.2422ZM76.832,161.4751a23.48187,23.48187,0,0,0-2.7212,11.0474,23.72,23.72,0,0,0,47.4399,0,23.48194,23.48194,0,0,0-2.7216-11.0474,30.71962,30.71962,0,0,1-41.9971,0Z" fill="#231f20"/>
</svg>
