<svg id="Layer1" xmlns="http://www.w3.org/2000/svg" viewBox="0 0 400 400">
  <g>
    <path d="M317.8384,246.9382a23.98536,23.98536,0,1,0,23.97415-23.98536A23.97181,23.97181,0,0,0,317.8384,246.9382Zm11.847,0a12.13278,12.13278,0,1,1,12.12718,12.12717A12.12582,12.12582,0,0,1,329.68537,246.9382Z"/>
    <path d="M27.76034,246.9382a23.97975,23.97975,0,1,0,23.97415-23.98536A23.97181,23.97181,0,0,0,27.76034,246.9382Zm11.847,0a12.12157,12.12157,0,1,1,12.12718,12.12717A12.11865,12.11865,0,0,1,39.60731,246.9382Z"/>
    <g>
      <path d="M194.95955,179.23437a15.46192,15.46192,0,1,0,15.462-15.462A15.46185,15.46185,0,0,0,194.95955,179.23437Zm7.03313,0a8.42881,8.42881,0,1,1,8.42887,8.42882A8.42884,8.42884,0,0,1,201.99268,179.23436Z"/>
      <path d="M51.97848,179.23437a15.46192,15.46192,0,1,0,15.46181-15.462A15.46184,15.46184,0,0,0,51.97848,179.23437Zm7.033,0a8.42881,8.42881,0,1,1,8.42879,8.42881A8.42877,8.42877,0,0,1,59.0115,179.23436Z"/>
    </g>
    <path d="M253.00605,176.33771l-1.82137-11.976c-3.02063-19.86134-49.40522-23.35026-59.54694-23.87678a9.23754,9.23754,0,0,1-3.80217-1.051l-34.06456-19.962c-2.66434-1.38932-9.68891-2.37748-12.57395-2.86363-11.14158-1.877-26.63846-1.42886-38.59725-.612a105.3845,105.3845,0,0,0-32.53347,7.59752L47.96424,132.579a8.23528,8.23528,0,0,1-1.9413.52665l-16.24726,2.31527c-3.62053.51588-6.64533,3.48454-7.72363,7.58045l-2.79569,10.61894-3.38661,12.93945a12.94639,12.94639,0,0,0-.03969,6.35938l.3245,1.30868a11.0456,11.0456,0,0,0,5.81031,7.49534l8.75969,4.0713a9.26179,9.26179,0,0,0,3.91238.8762H49.04969a19.57017,19.57017,0,1,1,36.21073.0049c31.07585-.01462,75.86324-.05065,107.02177-.08541a19.57024,19.57024,0,1,1,36.27143.01733,1.42351,1.42351,0,0,0,.36771.06318H245.649C250.30279,186.67062,253.82511,181.72373,253.00605,176.33771ZM71.17669,137.56l-5.93-6.81886s9.61965-11.45486,54.42405-11.14064L123.624,139.419Zm55.21461,2.1689-4.085-19.96921s20.42547-1.859,34.52563,7.12657c0,0,24.11541,13.77222,26.75089,16.251Z"/>
    <g>
      <path d="M392.21542,222.964h-4.12458V208.53913c0-6.98265.325-19.73748-12.75483-24.52334-19.50212-7.11715-33.88212-11.62281-33.88212-11.62281-10.49079-20.97038-17.48465-36.23583-25.63295-36.23583H272.74817c-7.44219,0-12.83329,3.75472-12.83329,13.2592,0,4.954-.10017,89.72093-.10017,89.72093h53.41987a29.63109,29.63109,0,0,1,57.17047,0h21.81037a3.22162,3.22162,0,0,0,3.22794-3.22794v-9.70622A3.24559,3.24559,0,0,0,392.21542,222.964ZM272.01434,173.312V152.28563c0-5.07728,1.80026-6.79212,7.18826-6.79212h34.103c3.9808,0,11.377,16.49834,17.74117,27.81853Zm90.40857,31.31047c-.12745-3.35656,1.59759-11.33473,14.96418-10.50821,0,0,2.69,3.50813,2.69,10.54683Z"/>
      <path d="M256.045,197.91384H17.78513a6.4767,6.4767,0,0,0-6.46708,6.46708v18.583H7.28313a3.23833,3.23833,0,0,0-3.22793,3.23915v9.70622a3.21452,3.21452,0,0,0,3.22793,3.22794H23.15437a29.63108,29.63108,0,0,1,57.17046,0H256.045Z"/>
    </g>
  </g>
</svg>
